<?xml version="1.0" encoding="UTF-8" standalone="no"?><!-- Generator: Gravit.io --><svg xmlns="http://www.w3.org/2000/svg" xmlns:xlink="http://www.w3.org/1999/xlink" style="isolation:isolate" viewBox="0 0 5000 3000" width="5000pt" height="3000pt"><defs><clipPath id="_clipPath_Wlx00deGfXz1JCiAv7n755e5eggbOad5"><rect width="5000" height="3000"/></clipPath></defs><g clip-path="url(#_clipPath_Wlx00deGfXz1JCiAv7n755e5eggbOad5)"><clipPath id="_clipPath_Kb7Uu36XYUEXxeCW1x5HW7M2jnrrt6lJ"><path d=" M 0 0 L 0 3000 L 5000 3000 L 5000 0 L 0 0 Z " id="Path" fill="rgb(255,255,255)"/></clipPath><g clip-path="url(#_clipPath_Kb7Uu36XYUEXxeCW1x5HW7M2jnrrt6lJ)"><path d=" M 4787.51 1596.8 C 4781.62 1607.66 4768.67 1614.63 4758.33 1609.21 C 4739.89 1599.52 4727.18 1576.47 4720.93 1555.52 C 4713.89 1531.9 4726.18 1503.3 4747.18 1494.47 C 4753.88 1491.66 4761.59 1490.75 4768.17 1493.9 C 4777.83 1498.5 4782.78 1510.31 4785.91 1521.41 C 4789.42 1533.93 4791.74 1546.87 4792.76 1559.93 C 4793.75 1572.54 4793.4 1585.96 4787.51 1596.8 Z  M 4801.74 1058.33 C 4806.37 1048.82 4813.85 1040.42 4823.33 1037.96 C 4832.83 1035.48 4844.16 1040.59 4847.38 1050.79 C 4848.69 1054.95 4848.61 1059.48 4849.35 1063.82 C 4851.11 1073.93 4857.19 1082.29 4862.22 1090.94 C 4867.25 1099.59 4871.46 1110.03 4868.87 1119.92 C 4865.84 1131.55 4854.48 1137.97 4843.76 1140.4 C 4836.6 1142.04 4828.9 1142.46 4822.19 1139.19 C 4815.69 1136 4810.82 1129.7 4807.04 1122.99 C 4798.18 1107.27 4788.39 1085.7 4801.74 1058.33 Z  M 4981.4 719.64 C 4900.04 658.41 4792.68 666.572 4695.43 682.764 C 4677.29 685.795 4658.37 689.379 4643.69 701.545 C 4629 713.712 4620.3 737.292 4629.26 755.034 C 4635.38 767.112 4647.62 773.35 4658.75 779.676 C 4726.74 818.277 4779.41 888.71 4801.04 969.916 C 4802.77 976.442 4804.29 983.653 4801.78 989.869 C 4799.22 996.129 4793.16 999.713 4787.19 1001.55 C 4751.81 1012.37 4719.62 977.504 4696.31 946.07 C 4665.74 904.836 4635.16 863.581 4604.59 822.348 C 4599.4 815.335 4593.38 807.814 4585.23 806.796 C 4578.87 806 4572.76 809.451 4567.13 812.836 C 4495.47 855.728 4425.69 902.492 4358.12 952.883 C 4351.29 957.971 4343.65 964.983 4344.6 974.053 C 4345.14 979.075 4348.32 983.233 4351.47 986.905 C 4364.34 1001.84 4379.35 1014.49 4395.77 1024.25 C 4411.12 1033.36 4427.84 1040.04 4441.57 1051.92 C 4455.28 1063.8 4465.86 1082.89 4462.38 1101.8 C 4458.07 1125.25 4433.85 1138.43 4412.32 1137.13 C 4390.76 1135.82 4371.09 1124.06 4351.41 1114.26 C 4311.92 1094.57 4260.67 1084.13 4229.18 1117.04 C 4209.4 1137.73 4203.62 1169.58 4199.36 1199.35 C 4185.3 1297.95 4176.71 1398.29 4148.32 1493.03 C 4122.33 1579.79 4077.13 1663.3 4010.3 1732.42 C 4004.16 1738.82 3997.83 1745.08 3991.3 1751.18 C 4049.38 1722.65 4119.58 1726.63 4174.74 1761.56 C 4220.14 1790.34 4253.94 1837.34 4297.51 1869.4 C 4341.09 1901.47 4404.55 1915.01 4442.63 1875.26 C 4449.49 1843.58 4433.99 1811.73 4430.28 1779.41 C 4426.56 1747.09 4447.42 1705.04 4475.56 1714.42 C 4494.42 1720.7 4501.78 1746.71 4499.82 1768.44 C 4497.87 1790.14 4489.72 1811.02 4489.86 1832.83 C 4490.28 1891.85 4546.76 1928 4595.47 1951.8 C 4634.47 1970.87 4673.48 1989.91 4712.49 2008.98 C 4733.49 2019.25 4755.04 2029.66 4777.95 2031.17 C 4800.86 2032.69 4825.76 2023.45 4838.02 2001.95 C 4856.28 1969.92 4840.05 1928.31 4823.77 1894.99 C 4804.55 1855.66 4785.33 1816.35 4766.1 1777.02 C 4754 1752.25 4742.67 1718.95 4760.21 1698.56 C 4770.57 1686.5 4787.61 1684.62 4802.28 1688.29 C 4840.29 1697.78 4866.61 1737.42 4879.13 1778.33 C 4891.64 1819.25 4893.81 1863.12 4903.49 1904.97 C 4907.76 1923.5 4913.83 1942.2 4925.64 1956.16 C 4944.18 1978.06 4972.18 1983.67 5000 1985.02 L 5000 734.24 C 4993.99 729.33 4987.81 724.462 4981.4 719.64 Z " id="Compound Path" fill="rgb(92,142,74)"/><path d=" M 4820.79 3000 L 4208.7 3000 C 4111.88 2910.63 4060.03 2811.44 4019.1 2705.9 C 3962.73 2560.59 3927.04 2403.22 3823.15 2242.8 C 4008.21 2267.26 4460.95 2062.42 4767.59 2892.22 C 4791.56 2957.08 4809.32 2986.62 4820.79 3000 Z " id="Path" fill="rgb(147,179,74)"/><path d=" M 3498.65 2635.17 C 3498.65 2635.17 3548.12 2569.27 3553.31 2557.51 C 3553.31 2557.51 3603.84 2476.24 3608.56 2421.96 C 3609.61 2409.92 3608.77 2397.41 3604.16 2386.46 C 3599.55 2375.5 3590.75 2366.32 3580.06 2363.92 C 3564.04 2360.33 3548.45 2372.2 3537.74 2385.88 C 3505.99 2426.43 3503.2 2455.3 3487.69 2527.99 C 3477.32 2576.61 3477.53 2621.29 3477.53 2621.29 L 3498.65 2635.17 Z " id="Path" fill="rgb(63,78,51)"/><path d=" M 3496.5 2622.64 C 3496.5 2622.64 3442.77 2560.97 3432.79 2553.97 C 3432.79 2553.97 3365.39 2489.47 3317.22 2478.38 C 3306.54 2475.92 3295.23 2475.48 3284.91 2479.38 C 3274.58 2483.27 3265.39 2491.97 3262.08 2503.49 C 3257.12 2520.75 3266.08 2539.21 3277.18 2552.5 C 3310.1 2591.9 3335.68 2598.1 3399.19 2623.08 C 3441.66 2639.79 3481.76 2644.41 3481.76 2644.41 L 3496.5 2622.64 Z " id="Path" fill="rgb(63,78,51)"/><path d=" M 3586.29 2899.37 C 3586.29 2899.37 3517.35 2835.16 3505.02 2828.4 C 3505.02 2828.4 3419.95 2762.74 3362.96 2756.35 C 3350.33 2754.93 3337.18 2755.94 3325.65 2761.84 C 3314.12 2767.73 3304.42 2779.04 3301.84 2792.82 C 3297.98 2813.47 3310.37 2833.65 3324.68 2847.55 C 3367.09 2888.76 3397.39 2892.51 3473.66 2912.93 C 3524.67 2926.58 3571.59 2926.55 3571.59 2926.55 L 3586.29 2899.37 Z " id="Path" fill="rgb(63,78,51)"/><path d=" M 3558.64 2897.32 C 3558.64 2897.32 3596.63 2806.82 3605.22 2794.92 C 3605.22 2794.92 3657.29 2695.55 3706.5 2663.05 C 3717.4 2655.85 3729.7 2650.61 3742.4 2650.54 C 3755.1 2650.48 3768.2 2656.18 3775.79 2667.47 C 3787.16 2684.37 3783.63 2708.47 3775.97 2727.77 C 3753.24 2784.99 3727.21 2802.58 3665.88 2856.83 C 3624.87 2893.1 3582.33 2915.07 3582.33 2915.07 L 3558.64 2897.32 Z " id="Path" fill="rgb(63,78,51)"/><path d=" M 3410.69 2441.98 C 3410.69 2441.98 3358.84 2360.37 3353.81 2346.18 C 3353.81 2346.18 3302.04 2246.63 3301.14 2183.14 C 3300.94 2169.07 3302.97 2154.63 3309.25 2142.4 C 3315.53 2130.17 3326.52 2120.42 3339.13 2118.75 C 3358.01 2116.24 3375.1 2131.64 3386.38 2148.62 C 3419.81 2198.98 3420.6 2232.76 3432.46 2318.73 C 3440.4 2376.23 3436.38 2428.06 3436.38 2428.06 L 3410.69 2441.98 Z " id="Path" fill="rgb(63,78,51)"/><path d=" M 4706.07 2254.54 C 4828.9 2326.33 4925.13 2322.5 5000 2369.86 L 5000 2722.51 C 4919.14 2468.99 4709.26 2593.37 4547.56 2113.46 C 4591.12 2169.93 4646.76 2219.9 4706.07 2254.54 Z " id="Path" fill="rgb(63,78,51)"/><path d=" M 4608.6 3000 L 4578.17 3000 C 4553.3 2965.18 4522.31 2922.88 4486.63 2876.54 C 4480.38 2868.42 4474 2860.19 4467.47 2851.83 C 4457.14 2838.63 4446.48 2825.15 4435.5 2811.51 C 4384.46 2747.95 4321.87 2674.33 4253.29 2602.84 C 4246.16 2595.38 4238.96 2587.97 4231.69 2580.61 C 4231.67 2580.61 4231.67 2580.61 4231.67 2580.61 C 4153.79 2501.39 4069.13 2426.42 3985.3 2372.56 L 3997.31 2349.6 C 4134.23 2437.6 4272.84 2580.32 4381.46 2707.12 C 4389.63 2716.65 4397.65 2726.12 4405.45 2735.43 C 4422.39 2755.65 4438.48 2775.29 4453.56 2794.07 C 4492.96 2843.12 4528.44 2889.77 4558.55 2930.6 C 4566.6 2941.55 4574.28 2952.06 4581.52 2962.1 C 4591.34 2975.67 4600.4 2988.36 4608.6 3000 Z " id="Path" fill="rgb(63,78,51)"/><path d=" M 4581.36 2965.51 L 4557.45 2964.08 C 4557.51 2962.86 4563.29 2840.51 4552.17 2759.1 L 4575.84 2755.13 C 4587.34 2839.25 4581.61 2960.4 4581.36 2965.51 Z " id="Path" fill="rgb(63,78,51)"/><path d=" M 4405.38 2739.19 L 4381.44 2738.42 C 4381.47 2737.08 4384.6 2603.44 4358.88 2521.52 L 4381.5 2512.8 C 4392.96 2549.3 4400.46 2598.54 4403.79 2659.14 C 4406.25 2703.98 4405.41 2737.77 4405.38 2739.19 Z " id="Path" fill="rgb(63,78,51)"/><path d=" M 4396.41 2881.74 C 4372.42 2881.74 4346.22 2880.54 4321.03 2877.01 L 4324.03 2850.68 C 4398 2861.04 4484.35 2850.11 4485.21 2850 L 4487.99 2876.37 C 4485.54 2876.68 4445.66 2881.74 4396.41 2881.74 Z " id="Path" fill="rgb(63,78,51)"/><path d=" M 3078.83 3000 L 2296.6 3000 C 2309.79 2975.31 2326.21 2952.59 2343.32 2928.06 C 2371.63 2887.42 2420.54 2851.7 2455.97 2732.14 C 2497.97 2590.34 2355.41 2238.42 2658.06 2238.42 C 2949.44 2238.42 2828.51 2491.5 2885.52 2708.89 C 2916.59 2827.32 3047.28 2851.7 3073.87 2972.68 C 3076 2982.43 3077.6 2991.5 3078.83 3000 Z " id="Path" fill="rgb(54,99,62)"/><path d=" M 4157.47 2615.12 C 4131.97 2615.12 4104.69 2612.13 4079.65 2603.3 L 4086.9 2578 C 4156.64 2602.58 4250.39 2576.3 4251.33 2576.03 L 4257.33 2601.73 C 4254.57 2602.52 4209.75 2615.12 4157.47 2615.12 Z " id="Path" fill="rgb(63,78,51)"/><path d=" M 3624.77 3000 L 3584.52 3000 C 3576.94 2976.33 3569.01 2951.6 3560.89 2926.22 C 3553.49 2903.15 3545.94 2879.55 3538.34 2855.73 C 3515.27 2783.68 3491.63 2709.73 3470.21 2642.66 C 3461.69 2616 3453.53 2590.45 3445.88 2566.54 C 3426.97 2507.25 3411.26 2458.04 3401.46 2427.35 C 3394.76 2406.27 3390.81 2393.93 3390.53 2393.02 L 3426.27 2379.02 C 3426.57 2379.93 3430.46 2392.16 3437.13 2413.04 C 3447.1 2444.28 3463.25 2494.89 3482.7 2555.88 C 3489.83 2578.13 3497.37 2601.75 3505.23 2626.35 C 3527.94 2697.5 3553.23 2776.55 3577.67 2852.94 C 3583.58 2871.43 3589.45 2889.79 3595.24 2907.82 C 3605.47 2939.79 3615.41 2970.8 3624.77 3000 Z " id="Path" fill="rgb(63,78,51)"/><path d=" M 2473.47 2918.77 C 2514.2 2948.24 2559.1 2976.48 2598.71 3000 L 2528.67 3000 C 2503.92 2984.29 2478.72 2967.48 2454.91 2950.25 L 2473.47 2918.77 Z " id="Path" fill="rgb(63,78,51)"/><path d=" M 2691.05 2755.22 L 2668.34 2727.29 C 2748.04 2647.64 2775.29 2584.4 2775.56 2583.77 L 2806.34 2599.59 C 2805.16 2602.42 2776.45 2669.88 2691.05 2755.22 Z " id="Path" fill="rgb(63,78,51)"/><path d=" M 2709.07 3000 L 2675.06 3000 C 2655.73 2698.25 2632.38 2324.31 2632.02 2318.39 L 2665.86 2315.78 C 2666.12 2319.85 2677.14 2496.55 2690.27 2704.4 C 2691.29 2720.41 2692.31 2736.6 2693.34 2752.93 C 2698.55 2834.98 2703.96 2920.1 2709.07 3000 Z " id="Path" fill="rgb(63,78,51)"/><path d=" M 2095.28 2885.21 C 2098.46 2938.33 2107.79 2967.28 2110.69 3000 L 1990.81 3000 C 1991.67 2961.2 1984.95 2924.3 1995.52 2883.27 C 2023.7 2774.1 2144.53 2707.32 2146.43 2706.3 C 2145.23 2708.2 2089.93 2795.67 2095.28 2885.21 Z " id="Path" fill="rgb(63,78,51)"/><path d=" M 1430.47 2602.48 C 1364.48 2089.59 1533.91 2325.06 1686.1 1935.7 C 1814.73 2356.98 1828 2388.85 1430.47 2602.48 Z " id="Path" fill="rgb(147,179,74)"/><path d=" M 1158.11 3000 L 938.073 3000 C 887.085 2923.3 886.347 2861.79 904.107 2775.38 C 916.201 2716.41 958.228 2539.64 948.929 2518.09 C 976.208 2570.14 1028.31 2643.72 1062.98 2689.51 C 1094.67 2731.34 1176.47 2796.88 1158.11 3000 Z " id="Path" fill="rgb(147,179,74)"/><path d=" M 1699.5 2893.98 C 1742.17 2856.82 1810.83 2801.03 1858.67 2772.64 C 1843.61 2784.64 1680.94 2730.77 1627.22 2715.17 C 1497.52 2677.5 1429.25 2699.69 1247.11 2941.6 C 1565.21 3066.17 1650.64 2936.52 1699.5 2893.98 Z " id="Path" fill="rgb(147,179,74)"/><path d=" M 1060.68 2967.68 C 1066.73 2978.54 1072.24 2989.36 1077.21 3000 L 1054.6 3000 C 1051.18 2993.14 1047.57 2986.22 1043.7 2979.29 C 959.605 2828.3 959.605 2698.87 959.605 2656.33 L 979.561 2656.33 C 979.561 2822.04 1040.63 2931.64 1060.68 2967.68 Z " id="Path" fill="rgb(63,78,51)"/><path d=" M 1451.11 2581.85 L 1433.87 2570.71 C 1441.11 2556.94 1447.8 2542.04 1454.88 2526.26 C 1478.44 2473.79 1507.76 2408.49 1588.72 2303.92 C 1643.44 2233.23 1655.66 2162.28 1669.28 2053.82 L 1689.04 2056.87 C 1675.33 2166.05 1662 2243.22 1603.86 2318.32 C 1524.52 2420.81 1495.82 2484.75 1472.75 2536.12 C 1465.51 2552.23 1458.68 2567.45 1451.11 2581.85 Z " id="Path" fill="rgb(63,78,51)"/><path d=" M 405.508 1788.92 C 404.542 1800.65 400.74 1813.53 391.23 1818.79 C 381.134 1824.37 361.277 1831.45 356.091 1824.51 C 350.906 1817.58 341.644 1809.8 340.812 1800.84 C 339.836 1790.35 327.513 1772.85 343.853 1761.89 C 346.825 1757.6 356.171 1751.05 355.408 1745.71 C 354.301 1737.97 360.027 1730.4 366.88 1728.48 C 373.733 1726.55 381.092 1729.27 386.854 1733.82 C 401.962 1745.72 407.193 1768.46 405.508 1788.92 Z  M 159.315 1207.14 C 158.349 1218.87 154.547 1231.75 145.037 1237.01 C 134.941 1242.59 115.084 1249.67 109.898 1242.73 C 104.712 1235.8 95.451 1228.02 94.618 1219.06 C 93.643 1208.57 81.32 1191.06 97.66 1180.1 C 100.632 1175.82 109.978 1169.27 109.214 1163.93 C 108.108 1156.19 113.834 1148.62 120.687 1146.69 C 127.54 1144.77 134.898 1147.49 140.661 1152.03 C 155.769 1163.94 161 1186.67 159.315 1207.14 Z  M 811.112 1354.62 C 697.523 1245.79 723.705 1314.69 624.903 1189.36 C 612.071 1173.07 595.927 1154.96 576.589 1157.88 C 535.32 1164.12 532.726 1254.39 491.517 1247.71 C 472.579 1244.64 463.319 1221.14 456.454 1201.32 C 412.092 1073.4 377.448 1023.65 330.971 968.036 C 297.165 927.599 267.491 915.654 250.608 913.331 C 197.824 906.075 168.349 890.79 229.674 1026.32 C 242.485 1054.62 214.647 1073.46 193.334 1088.68 C 151.566 1118.52 134.663 1055.66 133.725 1011.39 C 132.229 940.562 85.053 900.987 78.926 830.466 C 77.09 809.318 79.585 786.445 69.706 768.218 C 62.841 755.498 50.988 747.225 39.174 740.301 C 26.542 732.891 13.45 726.542 0 721.255 L 0 2101.22 C 53.422 2135.98 120.335 2167.61 151.846 2172.79 C 178.486 2177.17 206.206 2179.64 231.949 2170.84 C 257.672 2162.04 281.18 2139.65 285.91 2110.25 C 289.961 2085.1 280.083 2059.99 269.785 2037.14 C 259.508 2014.29 248.273 1990.38 249.39 1964.87 C 250.508 1939.37 269.686 1912.89 292.516 1916.43 C 331.11 1922.42 326.201 1989.43 353.461 2020.31 C 374.135 2043.75 408.4 2040.88 437.496 2034.91 C 463.698 2029.53 490.24 2022.83 513.069 2007.59 C 557.771 1977.75 580.6 1921.23 607.302 1871.48 C 657.93 1777.15 813.607 1588.68 968.885 1656.86 C 958.388 1587.75 845.497 1387.56 811.112 1354.62 Z " id="Compound Path" fill="rgb(92,142,74)"/><path d=" M 1451.12 2581.85 C 1450.82 2582.4 1448.41 2587.02 1444.16 2595.12 C 1424.28 2632.99 1364.39 2747.18 1294.57 2880.37 C 1287.78 2893.31 1280.92 2906.43 1273.97 2919.68 C 1269.7 2927.82 1265.39 2936.02 1261.08 2944.28 C 1260.68 2945.01 1260.3 2945.76 1259.9 2946.51 C 1250.62 2964.21 1241.26 2982.08 1231.89 3000 L 1208.82 3000 C 1306.36 2813.76 1403.27 2629.03 1427.91 2582.07 C 1431.52 2575.17 1433.58 2571.23 1433.86 2570.72 L 1451.12 2581.85 Z " id="Path" fill="rgb(63,78,51)"/><path d=" M 812.689 2498.32 C 734.002 2467.28 693.671 2461.57 630.57 2442.44 C 683.115 2483.3 761.681 2541.61 761.681 2541.61 C 761.681 2541.61 586.168 2725.46 506.225 2837.79 C 465.514 2804.91 440.449 2839.55 386.309 2802.41 C 426.041 2861.74 427.239 2837.01 445.937 2890.06 C 406.404 2862.94 356.734 2861.74 356.734 2861.74 C 356.734 2861.74 399.719 2869.29 413.149 2908.53 C 383.335 2916.51 321.052 2963.63 300.218 2988.63 C 297.045 2992.43 293.833 2996.24 290.58 3000 L 0 3000 L 0 2527.45 C 105.348 2437.22 180.522 2397.82 295.808 2355.48 C 298.382 2357.87 298.382 2357.87 296.706 2357.1 C 326.441 2396.32 366.732 2426.29 411.214 2439.96 C 396.746 2406.49 387.087 2370.46 382.756 2333.67 C 380.441 2314.16 379.883 2293.1 388.903 2276.14 C 396.047 2262.69 408.22 2253.68 419.994 2245.17 C 613.987 2105.01 822.328 1971.97 1052.7 1946.07 C 903.11 2170.91 843.561 2343.54 812.689 2498.32 Z " id="Path" fill="rgb(54,99,62)"/><path d=" M 959.565 2018.8 C 754.677 2174.16 605.306 2354.13 460.844 2528.2 C 363.12 2645.95 262.063 2767.73 146.477 2877.71 C 100.08 2921.84 52.903 2962.55 4.57 3000 L 0 3000 L 0 2976.82 C 45.061 2941.42 89.283 2902.95 133.466 2860.92 C 248.173 2751.78 344.341 2635.91 446.157 2513.23 C 591.377 2338.25 741.526 2157.32 948.29 2000.55 L 959.565 2018.8 Z " id="Path" fill="rgb(63,78,51)"/><path d=" M 826.458 1512.68 L 811.372 1551.23 C 809.576 1550.37 630.091 1465.78 455.177 1515.48 C 454.358 1515.71 453.541 1515.95 452.723 1516.17 C 440.649 1519.56 428.316 1522.63 415.744 1525.42 C 324.425 1545.61 221.332 1549.9 126.821 1536.96 C 118.319 1535.79 109.898 1534.51 101.576 1533.07 C 88.844 1530.88 76.312 1528.4 64.019 1525.59 C 41.928 1520.62 20.575 1514.64 0 1507.74 L 0 1463.7 C 40.491 1478.21 84.534 1488.83 131.47 1495.24 C 173.318 1500.97 216.922 1503.19 260.326 1501.99 C 273.039 1501.64 285.75 1501 298.382 1500.07 C 349.649 1496.31 399.859 1487.79 445.757 1474.76 C 544.121 1446.82 642.305 1458.59 707.361 1473.39 C 777.646 1489.36 824.503 1511.75 826.458 1512.68 Z " id="Path" fill="rgb(63,78,51)"/><path d=" M 137.161 1903.18 C 133.533 1896.26 48.504 1730.98 64.772 1514.08 L 102.558 1517.56 C 87.313 1720.82 169.136 1880.52 169.964 1882.11 L 137.161 1903.18 Z " id="Path" fill="rgb(63,78,51)"/><path d=" M 260.242 1511.4 C 259.104 1466.2 278.605 1411 318.203 1347.34 C 346.814 1301.34 375.376 1268.1 376.578 1266.71 L 403.982 1295.75 C 373.921 1330.64 296.306 1437.17 298.143 1510.23 L 260.242 1511.4 Z " id="Path" fill="rgb(63,78,51)"/><path d=" M 534.625 1739.63 C 530.808 1736.47 440.851 1660.54 415.403 1523.7 L 452.538 1515.21 C 474.992 1635.95 556.547 1705.32 557.367 1706.01 L 534.625 1739.63 Z " id="Path" fill="rgb(63,78,51)"/><path d=" M 4920.79 232.36 C 4906.25 214.398 4823.61 136.4 4787.17 22.057 C 4784.87 14.845 4782.84 7.479 4781.1 0.002 L 4910.98 0.002 C 4924.99 40.837 4928.22 77.536 4928.32 88.176 C 4928.82 145.536 4927.3 175.465 4920.79 232.36 Z " id="Path" fill="rgb(147,179,74)"/><line x1="4533.59" y1="0.002" x2="4669.05" y2="0.002" id="Path"/><path d=" M 4699.22 47.583 C 4684.25 82.785 4683.72 123.851 4691.08 161.9 C 4712.04 270.318 4778.74 351.761 4790.03 369.932 C 4801.94 319.18 4806.47 292.251 4812.08 240.181 C 4814.34 219.273 4816.18 85.308 4723.3 31.169 C 4713.3 25.341 4705.65 32.452 4699.22 47.583 Z " id="Path" fill="rgb(147,179,74)"/><path d=" M 4586.75 214.255 C 4574.81 242.349 4574.38 275.124 4580.25 305.491 C 4596.98 392.018 4650.21 457.017 4659.22 471.519 C 4668.73 431.014 4672.35 409.522 4676.83 367.966 C 4678.62 351.279 4680.1 244.363 4605.97 201.155 C 4597.99 196.504 4591.88 202.179 4586.75 214.255 Z " id="Path" fill="rgb(147,179,74)"/><path d=" M 4459.29 374.127 C 4448.51 399.487 4448.12 429.072 4453.42 456.484 C 4468.53 534.59 4516.58 593.264 4524.71 606.354 C 4533.29 569.792 4536.55 550.391 4540.6 512.879 C 4542.22 497.816 4543.55 401.305 4476.63 362.302 C 4469.43 358.103 4463.92 363.226 4459.29 374.127 Z " id="Path" fill="rgb(147,179,74)"/><path d=" M 4327.04 496.884 C 4316.26 522.244 4315.87 551.829 4321.17 579.241 C 4336.27 657.347 4384.33 716.021 4392.46 729.111 C 4401.04 692.548 4404.3 673.148 4408.35 635.636 C 4409.97 620.573 4411.3 524.062 4344.38 485.059 C 4337.18 480.86 4331.67 485.983 4327.04 496.884 Z " id="Path" fill="rgb(147,179,74)"/><path d=" M 4218.56 578.108 C 4207.78 603.468 4207.39 633.053 4212.69 660.465 C 4227.79 738.572 4275.84 797.245 4283.98 810.335 C 4292.56 773.772 4295.82 754.373 4299.87 716.86 C 4301.49 701.797 4302.82 605.286 4235.9 566.283 C 4228.7 562.084 4223.19 567.207 4218.56 578.108 Z " id="Path" fill="rgb(147,179,74)"/><path d=" M 4126.16 672.497 C 4115.93 697.832 4116.06 727.127 4121.78 754.15 C 4138.09 831.148 4186.68 888.205 4194.96 900.99 C 4202.82 864.612 4205.71 845.337 4209.06 808.116 C 4210.41 793.17 4210.05 697.602 4143.13 660.42 C 4135.92 656.417 4130.56 661.606 4126.16 672.497 Z " id="Path" fill="rgb(147,179,74)"/><path d=" M 4403.82 391.496 C 4388.35 369.319 4364.76 355.48 4340.33 348.244 C 4270.71 327.625 4201.71 348.373 4187.49 350.448 C 4212.97 375.547 4227.07 387.596 4255.37 408.65 C 4266.73 417.104 4343.66 462.318 4405.43 414 C 4412.08 408.799 4410.47 401.029 4403.82 391.496 Z " id="Path" fill="rgb(147,179,74)"/><path d=" M 4274.84 503.875 C 4259.37 481.698 4235.78 467.86 4211.34 460.624 C 4141.72 440.005 4072.73 460.752 4058.51 462.827 C 4083.98 487.927 4098.08 499.975 4126.38 521.029 C 4137.75 529.483 4214.68 574.698 4276.45 526.38 C 4283.1 521.178 4281.49 513.409 4274.84 503.875 Z " id="Path" fill="rgb(147,179,74)"/><path d=" M 4158.18 613.371 C 4143.82 592.787 4121.92 579.943 4099.24 573.227 C 4034.63 554.09 3970.59 573.346 3957.39 575.272 C 3981.03 598.568 3994.12 609.75 4020.39 629.292 C 4030.93 637.138 4102.34 679.103 4159.67 634.257 C 4165.84 629.43 4164.35 622.218 4158.18 613.371 Z " id="Path" fill="rgb(147,179,74)"/><path d=" M 4524.19 268.349 C 4508.62 242.53 4483.5 225.238 4457 215.173 C 4381.47 186.492 4303.79 203.579 4287.94 204.669 C 4314.36 234.565 4329.11 249.074 4358.94 274.739 C 4370.91 285.044 4452.82 341.526 4524.42 293.356 C 4532.13 288.171 4530.88 279.448 4524.19 268.349 Z " id="Path" fill="rgb(147,179,74)"/><path d=" M 4638.29 90.121 C 4612.43 65.279 4577.8 53.902 4543.65 51.532 C 4446.33 44.777 4359.8 92.71 4341.44 99.668 C 4381.27 125.429 4402.88 137.239 4445.49 156.796 C 4462.6 164.65 4575.53 201.868 4645.85 119.498 C 4653.42 110.63 4649.41 100.799 4638.29 90.121 Z " id="Path" fill="rgb(147,179,74)"/><path d=" M 4709.72 0.002 L 4730.71 0.002 C 4725.31 10.001 4719.94 19.778 4714.59 29.356 C 4707.01 42.983 4699.48 56.189 4692.02 69.019 L 4692.02 69.041 C 4662.96 118.991 4634.9 162.989 4607.72 202.187 C 4597.91 216.345 4588.21 229.882 4578.59 242.823 C 4543.79 289.808 4510.4 329.139 4478.21 363.25 C 4470.29 371.656 4462.42 379.752 4454.64 387.539 C 4416.77 425.521 4380.49 456.821 4345.42 485.667 C 4338.54 491.33 4331.69 496.905 4324.89 502.413 L 4324.87 502.413 C 4317.98 507.987 4311.18 513.496 4304.37 518.959 C 4283.34 535.904 4262.57 552.627 4241.99 570.125 C 4232.23 578.398 4222.53 586.848 4212.86 595.563 L 4212.83 595.586 C 4190.4 615.849 4168.15 637.571 4145.96 662.082 C 4137.46 671.483 4128.98 681.282 4120.48 691.569 C 4102.32 713.579 4084.16 737.801 4065.96 764.966 C 4059.35 774.81 4052.75 785.052 4046.12 795.714 L 4039 790.272 L 4037.46 789.1 L 4031.32 784.41 C 4037.86 773.881 4044.39 763.749 4050.89 753.994 C 4077.99 713.468 4104.93 679.38 4131.93 649.428 C 4141.69 638.589 4151.47 628.281 4161.27 618.437 C 4188.53 590.941 4215.95 566.784 4243.75 543.646 C 4255.76 533.625 4267.87 523.781 4280.05 513.938 C 4284.62 510.265 4289.21 506.571 4293.82 502.855 C 4323.63 478.854 4354.2 454.211 4385.87 426.118 L 4385.89 426.096 C 4393.74 419.149 4401.64 411.96 4409.62 404.528 C 4440.81 375.505 4473.06 342.567 4506.67 303.169 C 4513.85 294.741 4521.12 286.026 4528.42 276.978 C 4560.77 236.984 4594.37 190.707 4629.46 135.979 L 4629.46 135.957 C 4635.88 125.915 4642.37 115.606 4648.91 104.988 C 4668.69 72.846 4688.95 37.984 4709.72 0.002 Z " id="Path" fill="rgb(63,78,51)"/><path d=" M 4040.91 747.312 C 4017.64 737.043 3991.25 738.418 3967.13 745.891 C 3898.41 767.182 3849.02 823.386 3837.85 833.092 C 3870.96 840.268 3888.46 842.666 3922.15 844.815 C 3935.68 845.679 4021.8 841.272 4052.51 765.597 C 4055.81 757.45 4050.91 751.725 4040.91 747.312 Z " id="Path" fill="rgb(147,179,74)"/><path d=" M 4080.71 0.002 C 4070.25 53.225 4035.67 94.569 3979.33 233.201 C 3937.34 336.506 3809.28 393.622 3807.29 394.507 C 3808.65 391.764 3919.38 170.555 3925.15 41.987 C 3925.79 27.72 3926.59 13.673 3927.5 0.002 L 4080.71 0.002 Z " id="Path" fill="rgb(90,139,74)"/><path d=" M 4042.82 772.905 C 4032.15 798.015 4031.77 827.308 4037.02 854.449 C 4051.97 931.784 4099.55 989.877 4107.6 1002.84 C 4116.1 966.637 4119.33 947.429 4123.33 910.287 C 4124.94 895.373 4126.26 799.815 4060 761.197 C 4052.87 757.04 4047.41 762.112 4042.82 772.905 Z " id="Path" fill="rgb(147,179,74)"/><path d=" M 3417.35 0.002 C 3415.57 21.858 3406.81 44.598 3386.88 66.409 C 3230.7 237.47 3144.47 226.477 3051.97 249.637 C 3076.58 160.114 3093.16 80.368 3137.21 0.002 L 3417.35 0.002 Z " id="Path" fill="rgb(147,179,74)"/><path d=" M 3304.38 0.002 L 3130.72 171.218 L 3118.77 156.353 L 3277.36 0.002 L 3304.38 0.002 Z " id="Path" fill="rgb(63,78,51)"/><path d=" M 3485.08 771.849 L 3336.73 607.407 C 3279.12 543.542 3279.12 439.995 3336.73 376.129 L 3485.08 211.688 L 3633.43 376.129 C 3691.04 439.995 3691.04 543.542 3633.43 607.407 L 3485.08 771.849 Z " id="Path" fill="rgb(147,179,74)"/><path d=" M 3278.22 278.417 C 3353.92 339.662 3309.19 551.442 3302.31 573.928 C 3267.11 689.055 3116.08 853.811 3116.08 853.811 C 3116.08 853.811 2973.99 521.883 3090.27 367.495 C 3143.22 297.193 3230.92 240.163 3278.22 278.417 Z " id="Path" fill="rgb(147,179,74)"/><path d=" M 3558.18 0.002 C 3535.31 40.55 3512.06 75.855 3488.53 105.873 C 3482.62 113.394 3476.72 120.583 3470.77 127.419 C 3443.85 158.543 3416.55 182.721 3389.01 199.887 C 3354.27 221.521 3320.16 253 3289.71 289.919 C 3236.77 354.07 3194.78 434.7 3179.23 508.916 C 3157.66 611.977 3147.76 700.24 3142.45 747.645 C 3140.52 764.922 3139.22 776.336 3138.1 782.132 L 3120.56 777.951 C 3121.5 773.018 3122.82 761.36 3124.63 745.19 C 3129.98 697.409 3139.96 608.482 3161.73 504.403 C 3173.83 446.667 3202 382.605 3241.1 324.029 C 3252.15 307.438 3263.89 291.645 3276.12 276.801 C 3308.55 237.448 3344.41 204.842 3380.21 182.544 C 3432.46 150.004 3485.7 87.734 3536.75 0.002 L 3558.18 0.002 Z " id="Path" fill="rgb(63,78,51)"/><path d=" M 3476.1 704.234 L 3470.55 103.198 L 3488.51 102.995 L 3494.06 704.031 L 3476.1 704.234 Z " id="Path" fill="rgb(63,78,51)"/><path d=" M 2764.55 63.268 L 2635.69 88.574 L 2764.55 117 C 2764.55 117 2736.99 367.497 2701.31 380.372 L 2605.52 399.705 C 2605.52 399.705 2645.15 421.383 2709.45 418.53 C 2697.81 419.039 2683.65 531.657 2683.65 531.657 L 2580.75 528.117 L 2669.94 574.704 L 2671.83 576.761 L 2493.23 867.718 C 2493.23 867.718 2411.84 710.77 2368.38 661.285 C 2315.02 600.585 2306.52 483.477 2308.61 468.015 L 2408.83 465.692 C 2408.83 465.692 2337.69 412.336 2292.35 414.659 C 2292.35 256.163 2292.69 221.366 2292.69 221.366 L 2291.99 180 L 2381.57 139.43 C 2378.9 139.784 2301.11 149.827 2294.44 89.924 C 2291.27 61.432 2289.09 30.927 2287.68 0.002 L 2767.34 0.002 L 2764.55 63.268 Z " id="Path" fill="rgb(54,99,62)"/><path d=" M 2545.93 0.002 C 2523.44 72.293 2507.51 138.567 2524.66 310.381 C 2535.87 422.91 2529.11 474.96 2521.26 535.24 C 2515.04 583.132 2507.99 637.417 2507.99 733.975 L 2484.05 733.975 C 2484.05 635.514 2491.23 580.234 2497.58 531.458 C 2505.48 470.558 2511.74 422.467 2500.85 313.279 C 2483.87 142.948 2499.29 70.081 2520.63 0.002 L 2545.93 0.002 Z " id="Path" fill="rgb(63,78,51)"/><path d=" M 1966.55 265.299 L 1933.66 286.203 L 1889.46 200.75 L 1792.35 13.009 L 1785.6 0.002 L 1829.31 0.002 L 1866.95 72.758 L 1900.49 137.594 L 1900.49 137.616 L 1928.23 191.238 L 1966.55 265.299 Z " id="Path" fill="rgb(63,78,51)"/><path d=" M 2034.81 210.109 L 1847.65 109.083 L 1864.25 71.296 L 2051.41 172.322 L 2034.81 210.109 Z " id="Path" fill="rgb(63,78,51)"/><path d=" M 1785.6 0.002 L 1794.41 0.002 L 1792.35 13.009 L 1777.78 105.32 L 1770.24 153.079 L 1732.88 145.845 L 1740.66 96.494 L 1755.91 0.002 L 1785.6 0.002 Z " id="Path" fill="rgb(63,78,51)"/><path d=" M 2138.27 191.215 C 2138.27 232.155 2108.33 265.343 2071.4 265.343 C 2034.46 265.343 2004.52 232.155 2004.52 191.215 C 2004.52 150.276 2034.46 117.088 2071.4 117.088 C 2108.33 117.088 2138.27 150.276 2138.27 191.215 Z " id="Path" fill="rgb(147,179,74)"/><path d=" M 2025.9 298.276 C 2025.9 357.404 1982.65 405.336 1929.31 405.336 C 1875.97 405.336 1832.73 357.404 1832.73 298.276 C 1832.73 239.148 1875.97 191.215 1929.31 191.215 C 1982.65 191.215 2025.9 239.148 2025.9 298.276 Z " id="Path" fill="rgb(147,179,74)"/><path d=" M 1816.17 175.492 C 1816.17 219.19 1784.21 254.614 1744.79 254.614 C 1705.37 254.614 1673.41 219.19 1673.41 175.492 C 1673.41 131.794 1705.37 96.37 1744.79 96.37 C 1784.21 96.37 1816.17 131.794 1816.17 175.492 Z " id="Path" fill="rgb(147,179,74)"/><path d=" M 954.097 0.002 L 682.536 0.002 C 683.214 61.432 692.873 122.441 712.031 180.155 C 725.76 221.477 744.06 260.498 766.93 275.739 C 824.124 313.898 854.816 234.506 865.971 239.151 C 869.165 240.479 872.637 245.124 875.969 251.097 C 886.806 270.497 891.276 293.436 889.42 316.154 C 883.393 389.707 870.182 590.167 901.553 622.64 C 943.86 666.439 997.222 647.99 1034.08 630.891 C 1094.05 603.041 1079.4 485.025 1086.39 502.015 C 1089.44 509.469 1098.76 518.384 1108.28 526.06 C 1124.2 538.89 1134.28 558.755 1135.72 580.5 C 1138.51 622.883 1142.66 695.307 1143.58 761.803 C 1144.42 823.476 1171.84 871.036 1193.39 898.997 C 1208.06 918.021 1230.67 927.157 1252.96 923.263 C 1289.66 916.848 1342.36 900.457 1317.44 851.039 C 1300.69 817.857 1310.97 763.351 1312.37 777.265 C 1313.76 791.179 1386.3 908.708 1460.24 959.741 C 1534.18 1010.75 1594.15 992.988 1645.77 971.332 C 1697.38 949.676 1711.73 882.384 1709.93 854.578 C 1707.16 811.287 1659.6 754.856 1638.79 735.523 C 1622.66 720.525 1549.92 680.508 1531.38 617.995 C 1512.11 552.959 1559.28 587.069 1619.27 576.252 C 1646.39 571.364 1664.95 556.034 1677.16 540.704 C 1692.45 521.503 1696.82 494.338 1688.76 470.337 C 1678.92 441.049 1659.14 399.816 1622.06 378.314 C 1560.68 342.744 1496.16 364.024 1455.71 357.83 C 1415.24 351.636 1378.62 310.668 1378.62 262.732 C 1378.62 230.303 1435.44 221.765 1472.2 219.619 C 1493.27 218.402 1511.57 203.139 1518.55 181.084 C 1529.55 146.354 1535.68 97.135 1493.71 74.992 C 1471.4 63.224 1447.43 34.002 1425.3 0.002 L 1044.44 0.002 L 1013.63 0.002 L 980.419 0.002 L 954.097 0.002 Z " id="Path" fill="rgb(90,139,74)"/><path d=" M 1604.1 870.041 L 1588.38 895.634 C 1551.5 867.784 1464.03 774.434 1368.26 649.871 C 1332.32 603.129 1300.73 559.286 1273.03 518.495 C 1263.97 505.178 1255.33 492.193 1247.09 479.54 C 1178.7 374.532 1137.33 292.153 1112.83 234.97 C 1091.45 185.066 1051.98 91.406 1013.63 0.002 L 1044.44 0.002 C 1059.76 36.479 1075.11 72.979 1089.26 106.559 C 1094.91 119.941 1100.35 132.882 1105.54 145.16 L 1105.54 145.182 C 1118.42 175.598 1129.63 202.033 1138.05 221.676 C 1257.23 499.758 1537.03 819.428 1604.1 870.041 Z " id="Path" fill="rgb(63,78,51)"/><path d=" M 954.097 0.002 L 934.8 125.406 L 960.363 130.228 L 980.419 0.002 L 954.097 0.002 Z " id="Path" fill="rgb(63,78,51)"/><path d=" M 1255.1 213.779 L 1073.32 130.374 L 1083.24 103.803 L 1265.02 187.208 L 1255.1 213.779 Z " id="Path" fill="rgb(63,78,51)"/><path d=" M 1273.03 638.1 L 1247.09 638.1 L 1247.09 472.807 L 1273.03 472.807 L 1273.03 638.1 Z " id="Path" fill="rgb(63,78,51)"/><path d=" M 353.586 0 C 353.286 7.235 352.624 14.207 351.823 20.417 C 349.885 35.567 338.119 53.738 326.402 61.805 C 312.072 71.674 297.53 75.832 275.972 81.765 C 245.237 90.206 182.34 84.066 152.18 79.367 C 113.117 73.268 74.016 63.094 43.043 53.198 C 34.327 50.439 26.237 47.695 18.997 45.061 C 11.794 42.428 5.405 39.947 0.003 37.646 L 0.003 0.028 C 0.003 0.028 0.003 0 0.016 0 L 353.586 0 Z " id="Path" fill="rgb(147,179,74)"/><path d=" M 78.527 493.63 C 75.813 496.86 71.403 501.107 66.194 505.731 C 49.591 520.485 20.854 513.672 0 505.554 L 0 248.111 C 20.475 196.082 44.422 149.562 58.372 127.264 C 62.303 120.981 65.955 118.216 69.586 117.575 C 70.425 117.398 71.263 117.354 72.101 117.42 C 77.908 117.818 83.995 127.794 89.662 144.297 L 89.682 144.319 C 115.426 219.198 132.867 428.75 78.527 493.63 Z " id="Path" fill="rgb(147,179,74)"/><path d=" M 144.362 214.288 C 140.019 185.005 345.302 95.075 414.78 140.314 C 417.634 142.172 421.508 145.358 425.813 149.196 C 440.729 162.493 439.944 193.233 437.425 213.733 C 435.929 225.909 426.611 240.481 417.308 246.932 C 405.923 254.826 394.36 258.117 377.232 262.81 C 352.786 269.509 302.716 264.34 278.705 260.446 C 227.724 252.18 176.665 235.123 154.021 224.839 C 147.544 221.898 144.964 218.352 144.362 214.288 Z " id="Path" fill="rgb(147,179,74)"/><path d=" M 264.009 322.576 C 289.815 322.906 333.312 556.979 283.176 623.382 C 281.117 626.109 277.752 629.7 273.759 633.639 C 259.924 647.288 233.706 641.244 216.549 635.085 C 206.359 631.428 195.394 619.027 191.387 608.016 C 186.484 594.542 185.555 581.659 184.333 562.605 C 182.591 535.409 195.211 482.908 202.476 457.971 C 217.899 405.024 240.869 353.482 253.387 331.085 C 256.966 324.68 260.428 322.53 264.009 322.576 Z " id="Path" fill="rgb(147,179,74)"/><path d=" M 317.446 410.134 C 314.787 386.195 486.329 319.539 542.031 358.495 C 544.318 360.095 547.404 362.807 550.823 366.062 C 562.67 377.338 561.068 402.302 558.358 418.887 C 556.749 428.737 548.637 440.291 540.789 445.242 C 531.184 451.301 521.578 453.613 507.353 456.89 C 487.049 461.568 446.053 455.793 426.437 451.875 C 384.789 443.554 343.349 428.085 325.056 419.014 C 319.825 416.42 317.814 413.457 317.446 410.134 Z " id="Path" fill="rgb(147,179,74)"/><path d=" M 402.387 496.294 C 423.866 494.69 473.901 686.175 436.142 745.043 C 434.591 747.46 432.006 750.691 428.918 754.258 C 418.222 766.614 396.062 763.497 381.429 759.624 C 372.739 757.324 362.886 747.81 358.902 738.945 C 354.027 728.097 352.491 717.451 350.347 701.695 C 347.287 679.207 354.672 634.63 359.236 613.364 C 368.926 568.212 384.975 523.679 394.057 504.143 C 396.655 498.556 399.406 496.517 402.387 496.294 Z " id="Path" fill="rgb(147,179,74)"/><path d=" M 486.763 593.302 C 482.675 572.949 625.271 499.744 676.131 528.119 C 678.22 529.284 681.079 531.333 684.266 533.817 C 695.307 542.426 695.806 564.055 694.721 578.577 C 694.077 587.201 687.965 597.892 681.584 602.877 C 673.776 608.979 665.684 611.855 653.689 615.99 C 636.57 621.891 600.859 620.709 583.686 619.149 C 547.223 615.837 510.402 606.356 493.979 600.241 C 489.282 598.492 487.33 596.127 486.763 593.302 Z " id="Path" fill="rgb(147,179,74)"/><path d=" M 556.832 657.937 C 574.229 657.684 610.037 824.139 578.099 872.542 C 576.788 874.529 574.621 877.159 572.039 880.049 C 563.096 890.064 545.263 886.241 533.531 882.165 C 526.563 879.744 518.831 871.089 515.825 863.296 C 512.147 853.76 511.164 844.57 509.812 830.977 C 507.882 811.575 514.928 773.817 519.13 755.858 C 528.052 717.729 542.098 680.461 549.911 664.218 C 552.145 659.573 554.417 657.971 556.832 657.937 Z " id="Path" fill="rgb(147,179,74)"/><path d=" M 631.929 721.306 C 631.225 704.256 763.005 664.337 802.549 694.25 C 804.173 695.479 806.333 697.527 808.714 699.975 C 816.964 708.453 814.429 726.047 811.516 737.667 C 809.785 744.568 803.103 752.4 796.972 755.572 C 789.469 759.453 782.166 760.683 771.358 762.402 C 755.933 764.854 725.602 759.039 711.151 755.438 C 680.47 747.793 650.327 735.1 637.141 727.91 C 633.37 725.854 632.027 723.672 631.929 721.306 Z " id="Path" fill="rgb(147,179,74)"/><path d=" M 689.546 806.97 C 704.613 809.147 715.399 949.346 681.932 984.315 C 680.557 985.751 678.366 987.592 675.784 989.588 C 666.841 996.504 651.891 990.956 642.245 986.036 C 636.516 983.114 630.881 975.021 629.227 968.275 C 627.204 960.02 627.466 952.417 627.944 941.182 C 628.627 925.148 639.291 895.422 645.098 881.401 C 657.428 851.63 674.083 823.261 682.803 811.128 C 685.297 807.658 687.455 806.668 689.546 806.97 Z " id="Path" fill="rgb(147,179,74)"/><path d=" M 797.738 912.067 L 784.446 919.441 L 783.233 920.716 L 773.754 931.181 L 773.53 930.959 L 772.392 929.698 L 771.441 927.882 C 768.065 921.562 764.452 915.186 760.663 908.935 L 760.288 908.339 C 709.333 824.19 608.123 719.776 508.802 620.048 C 500.336 611.538 491.758 602.958 483.118 594.309 L 458.535 569.748 C 415.482 526.751 370.979 482.286 326.477 436.421 C 320.45 430.28 314.41 424.043 308.383 417.75 C 296.342 405.234 287.126 395.587 278.511 386.494 C 265.719 372.98 253.102 359.507 241.023 346.464 C 205.423 307.904 173.663 272.004 143.902 236.673 L 143.702 236.438 C 140.226 232.293 136.775 228.176 133.324 224.046 L 129.36 219.222 C 119.194 206.9 109.315 194.688 99.775 182.671 C 92.46 173.426 85.357 164.32 78.492 155.338 L 78.268 155.047 C 71.64 146.425 65.013 137.596 57.998 128.06 C 57.973 128.032 57.948 127.991 57.936 127.977 C 39.667 103.221 22.486 78.619 6.88 54.819 C 4.555 51.229 2.229 47.668 0.003 44.174 L 0.003 0.028 C 0.003 0.028 0.003 0 0.016 0 L 8.956 0 C 9.044 0.139 9.106 0.25 9.181 0.375 C 10.282 2.343 11.332 4.186 12.295 5.752 C 18.185 15.247 24.486 25.171 31.127 35.331 C 35.002 41.236 38.979 47.21 43.043 53.198 C 55.022 70.884 67.789 88.931 81.181 107.061 C 87.971 116.292 94.398 124.858 100.8 133.188 L 101.1 133.59 C 117.318 154.825 134.961 176.919 153.518 199.332 C 154.118 200.066 154.743 200.788 155.344 201.522 L 157.995 204.738 C 160.483 207.718 162.984 210.698 165.497 213.664 L 165.609 213.816 C 172.037 221.454 178.589 229.133 185.229 236.853 C 209.024 264.505 234.308 292.795 261.942 322.707 C 273.921 335.667 286.451 349.042 299.155 362.473 C 307.721 371.524 316.886 381.102 328.853 393.549 C 334.842 399.773 340.807 405.941 346.821 412.095 C 391.199 457.794 435.614 502.162 478.566 545.089 L 503.15 569.664 C 511.828 578.313 520.418 586.935 528.909 595.459 C 633.645 700.635 732.028 802.262 784.946 889.529 C 785.146 889.821 785.309 890.098 785.484 890.389 C 789.235 896.585 792.849 902.905 796.25 909.198 L 796.625 909.642 L 797.738 912.067 Z " id="Path" fill="rgb(63,78,51)"/><path d=" M 775.27 898.292 C 783.563 895.811 831.834 1013.88 813.222 1054.15 C 812.458 1055.8 811.124 1058.05 809.51 1060.54 C 803.919 1069.18 790.221 1068.68 781.042 1067.19 C 775.591 1066.3 768.901 1060.87 765.827 1055.46 C 762.064 1048.84 760.347 1042.12 757.883 1032.17 C 754.366 1017.97 755.57 988.902 756.777 974.967 C 759.34 945.38 765.813 915.76 769.894 902.628 C 771.061 898.872 773.51 898.819 775.27 898.292 Z " id="Path" fill="rgb(147,179,74)"/><path d=" M 773.62 898.93 C 780.638 895.041 888.501 888.705 914.623 923.477 C 915.695 924.905 917.035 927.145 918.472 929.769 C 923.45 938.858 917.662 952.629 912.823 961.403 C 909.949 966.614 902.818 971.306 897.122 972.318 C 890.151 973.558 883.903 972.675 874.678 971.285 C 861.512 969.3 837.866 956.674 826.775 949.978 C 803.226 935.761 781.184 917.544 771.887 908.233 C 769.228 905.57 771.354 900.187 773.62 898.93 Z " id="Path" fill="rgb(147,179,74)"/><path d=" M 1254.23 2944.98 L 1253 2922.9 C 1253.95 2922.83 1349.35 2915.27 1442.69 2837.21 C 1528.19 2765.7 1616.05 2776.38 1680.21 2784.17 C 1701.7 2786.78 1720.26 2789.03 1734.99 2787.79 L 1736.5 2809.84 C 1719.93 2811.24 1700.51 2808.89 1678.03 2806.16 C 1617.2 2798.76 1533.89 2788.65 1454.71 2854.87 C 1356.35 2937.13 1258.36 2944.7 1254.23 2944.98 Z " id="Path" fill="rgb(63,78,51)"/><path d=" M 5000 1289.98 L 5000 1985.02 C 4972.18 1983.67 4944.18 1978.06 4925.64 1956.16 C 4913.83 1942.2 4907.76 1923.5 4903.49 1904.97 C 4893.81 1863.12 4891.64 1819.25 4879.13 1778.33 C 4866.61 1737.42 4840.29 1697.78 4802.28 1688.29 C 4787.61 1684.62 4770.57 1686.5 4760.21 1698.56 C 4742.67 1718.95 4754 1752.25 4766.1 1777.02 C 4785.33 1816.35 4804.55 1855.66 4823.77 1894.99 C 4840.05 1928.31 4856.28 1969.92 4838.02 2001.95 C 4825.76 2023.45 4800.86 2032.69 4777.95 2031.17 C 4755.04 2029.66 4733.49 2019.25 4712.49 2008.98 C 4673.48 1989.91 4634.47 1970.87 4595.47 1951.8 C 4546.76 1928 4490.28 1891.85 4489.86 1832.83 C 4489.72 1811.02 4497.87 1790.14 4499.82 1768.44 C 4501.78 1746.71 4494.42 1720.7 4475.56 1714.42 C 4447.42 1705.04 4426.56 1747.09 4430.28 1779.41 C 4433.99 1811.73 4449.49 1843.58 4442.63 1875.26 C 4404.55 1915.01 4341.09 1901.47 4297.51 1869.4 C 4253.94 1837.34 4220.14 1790.34 4174.74 1761.56 C 4119.58 1726.63 4049.38 1722.65 3991.3 1751.18 C 3997.83 1745.08 4004.16 1738.82 4010.3 1732.42 C 4043.99 1718.86 4089.85 1701.28 4136 1686.37 C 4153.33 1680.77 4170.71 1675.53 4187.49 1671.04 C 4291.34 1643.21 4423.95 1581.94 4590.04 1429.57 C 4684.55 1342.88 4841.31 1298.77 5000 1289.98 Z " id="Path" fill="rgb(84,115,66)"/><path d=" M 5000 1284.83 L 5000 1327.26 C 4918.1 1314.23 4831.17 1327.32 4741.01 1366.35 C 4705.79 1381.56 4672.86 1399.57 4642.59 1418.75 C 4631.35 1425.87 4620.48 1433.15 4609.98 1440.52 C 4561.19 1474.8 4520.76 1510.88 4490.64 1540.7 C 4414.93 1615.71 4322.87 1655.36 4258.97 1675.4 C 4189.95 1697.05 4139.06 1701.1 4136.92 1701.28 L 4136 1686.37 L 4135.63 1680.31 L 4134.31 1659.34 L 4134.33 1659.34 C 4137.36 1659.09 4331.13 1642.35 4465.38 1509.38 C 4521.73 1453.57 4612.89 1376.65 4727.2 1327.19 C 4741.77 1320.89 4756.28 1315.22 4770.71 1310.2 C 4783.06 1305.87 4795.37 1302.02 4807.6 1298.66 C 4873.7 1280.41 4938.06 1275.78 5000 1284.83 Z " id="Path" fill="rgb(63,78,51)"/><path d=" M 4777.57 1327.62 C 4706.71 1139.39 4567.76 1039.35 4566.37 1038.37 L 4586.74 1002.92 C 4592.84 1007.22 4736.95 1110.57 4812.57 1311.44 L 4777.57 1327.62 Z " id="Path" fill="rgb(63,78,51)"/><path d=" M 4638.46 1690.13 L 4602.07 1678.31 L 4620.26 1684.22 L 4602.07 1678.32 C 4614.27 1632.01 4638.94 1497.84 4606.98 1433.91 L 4640.14 1413.54 C 4686.33 1505.9 4640.43 1682.65 4638.46 1690.13 Z " id="Path" fill="rgb(63,78,51)"/><path d=" M 4467.84 1508.26 C 4397.77 1412.52 4296.57 1392.55 4295.55 1392.35 L 4301.78 1350.9 C 4306.49 1351.76 4417.88 1373.27 4497.29 1481.78 L 4467.84 1508.26 Z " id="Path" fill="rgb(63,78,51)"/></g></g></svg>