<svg id="Layer_1" data-name="Layer 1" xmlns="http://www.w3.org/2000/svg" viewBox="0 0 499.56 77.53"><defs><style></style></defs><title>shredded-paper-bottom</title><path d="M500,200V127.11a1.72,1.72,0,0,0-.38-.08l-1.72,0a.86.86,0,0,1-.54-.16,2.26,2.26,0,0,0-.84-.44,1.35,1.35,0,0,1-.33-.19,1.14,1.14,0,0,0-.71-.24c-.13,0-.25,0-.38-.06a.48.48,0,0,1-.3-.22,1.4,1.4,0,0,1-.09-.17.71.71,0,0,0-.7-.54l-2.1,0a1.3,1.3,0,0,1-.71-.25c-.06,0-.1-.09-.16-.11a6.45,6.45,0,0,1-1-.46.79.79,0,0,0-.37-.1,1.84,1.84,0,0,1-1.06-.37.92.92,0,0,0-.36-.13,3.36,3.36,0,0,0-1,0,1.75,1.75,0,0,0-.69.32.67.67,0,0,1-.72,0,.88.88,0,0,1-.15-.12.83.83,0,0,0-.73-.1c-.12,0-.23.11-.35.16a.28.28,0,0,1-.18,0,1.16,1.16,0,0,0-.91.09.65.65,0,0,1-.72-.06l-.15-.12a.73.73,0,0,0-.89,0c-.2.16-.38.34-.58.5a.84.84,0,0,1-.53.19l-1.34,0a1.17,1.17,0,0,0-.53.19,2.79,2.79,0,0,1-.33.19,1.32,1.32,0,0,1-.94,0c-.11,0-.21-.13-.33-.19a2.06,2.06,0,0,0-.35-.12.52.52,0,0,0-.5.2c-.05.11-.09.23-.15.35s-.21.33-.4.35a.5.5,0,0,1-.36-.08,1.72,1.72,0,0,0-1.05-.41,1.29,1.29,0,0,1-.19,0,.78.78,0,0,1-.35-.15,1.56,1.56,0,0,0-.89-.3,5.43,5.43,0,0,1-.57,0,1.1,1.1,0,0,1-.55-.16A1.65,1.65,0,0,0,471,124a1.43,1.43,0,0,1-.71-.26,1,1,0,0,0-.71-.24c-.25,0-.51,0-.76-.06a1,1,0,0,1-.52-.23.93.93,0,0,0-.52-.22,6.66,6.66,0,0,0-1.34,0,.89.89,0,0,0-.52.2,13.94,13.94,0,0,1-1.14,1,.35.35,0,0,1-.35,0,1.79,1.79,0,0,0-1.11-.2.62.62,0,0,0-.36.12,1.49,1.49,0,0,1-1.08.29.89.89,0,0,1-.36-.11,3.37,3.37,0,0,0-.86-.4,1.92,1.92,0,0,1-.5-.29.75.75,0,0,0-.35-.13c-.32,0-.64,0-1-.08a.93.93,0,0,1-.52-.22.85.85,0,0,0-.51-.23c-.32,0-.64,0-1-.06a.76.76,0,0,1-.36-.11,2.17,2.17,0,0,0-.33-.19,1.38,1.38,0,0,0-1.11,0,.56.56,0,0,0-.17.09,1.58,1.58,0,0,0-.53.78.89.89,0,0,1-.08.17.57.57,0,0,1-.45.31,5.46,5.46,0,0,1-.57,0l-1.34,0a.72.72,0,0,0-.52.19,3.61,3.61,0,0,1-.3.25.76.76,0,0,1-.86.22.4.4,0,0,0-.37,0,.43.43,0,0,1-.36.06,1,1,0,0,0-.74,0,2.09,2.09,0,0,1-.35.13,3.12,3.12,0,0,1-1.14,0,.73.73,0,0,1-.35-.15c-.24-.21-.49-.41-.74-.61a.36.36,0,0,0-.17-.07,1.59,1.59,0,0,0-.94,0,1,1,0,0,0-.18.07.45.45,0,0,1-.52,0,1.68,1.68,0,0,0-.73-.19,1.47,1.47,0,0,0-.9.28,1.38,1.38,0,0,1-1.28,0,1.19,1.19,0,0,0-.69-.29,2.56,2.56,0,0,1-.39,0,.75.75,0,0,1-.5-.23,3.06,3.06,0,0,0-.57-.51.45.45,0,0,0-.36,0,.42.42,0,0,0-.17.1c-.19.16-.38.34-.57.51a.67.67,0,0,1-.55.06c-.71-.42-.71-.42-1.23-.41H436a1.22,1.22,0,0,0-.71.25,1.22,1.22,0,0,1-.51.25,1.33,1.33,0,0,0-.34.16,1.66,1.66,0,0,0-.71.88c-.14.2-.22.23-.47.11-.06,0-.11-.07-.17-.09a.66.66,0,0,0-.71.15c-.38.34-.74.7-1.12,1a.77.77,0,0,1-.73.09,1.4,1.4,0,0,1-.17-.09,1.41,1.41,0,0,0-.5-.26,1.4,1.4,0,0,1-.36-.13l-.51-.27-.18,0a1.35,1.35,0,0,0-.92.15,1.54,1.54,0,0,1-.9.27h-.58l-2.49,0a.85.85,0,0,0-.53.18,1.44,1.44,0,0,1-.7.27c-.13,0-.26,0-.38.06a.58.58,0,0,0-.47.53c0,.12,0,.25,0,.38-.05.33-.07.35-.35.66,0,.05-.08.11-.12.15a.88.88,0,0,1-.52.21.58.58,0,0,1-.36-.12,1.3,1.3,0,0,0-.86-.35,1.29,1.29,0,0,1-.88-.32.85.85,0,0,0-.35-.15,1,1,0,0,1-.5-.26c-.14-.13-.3-.24-.45-.36l-.15-.11a.29.29,0,0,0-.35,0,7.44,7.44,0,0,1-.85.42,3.5,3.5,0,0,1-.85.41.21.21,0,0,0-.11.31,1.15,1.15,0,0,1,.15.73.47.47,0,0,1-.59.32,5.58,5.58,0,0,0-.67-.37,3,3,0,0,1-.83-.46.77.77,0,0,0-.36-.12,1.17,1.17,0,0,0-.91.21,2.17,2.17,0,0,1-.67.36,2.17,2.17,0,0,0-.33.19,5.17,5.17,0,0,0-.82.8.91.91,0,0,0-.15.35,1.59,1.59,0,0,0-.06.38,1.13,1.13,0,0,1-.24.71,1.3,1.3,0,0,0-.22.53c0,.12,0,.25-.05.38a1,1,0,0,1-.33.67,3.88,3.88,0,0,0-.39.42,1,1,0,0,0-.24.52c0,.12,0,.25,0,.38a2.44,2.44,0,0,0,0,.38,1.19,1.19,0,0,1-.37.86,1.26,1.26,0,0,1-1.56.23c-.06,0-.11-.08-.17-.09a.55.55,0,0,0-.36.08,3,3,0,0,0-.46.34,1.08,1.08,0,0,1-.48.3,1.67,1.67,0,0,0-.53.23,1.48,1.48,0,0,1-.7.28,5.58,5.58,0,0,0-.57.08c-.14.13-.29.25-.44.37l-.46.34a.24.24,0,0,1-.34,0c-.14-.13-.29-.25-.44-.37a.54.54,0,0,0-.7,0,3.89,3.89,0,0,0-.43.38.93.93,0,0,1-.52.22c-.19,0-.38,0-.57,0l-.38,0a.39.39,0,0,0-.33.16.6.6,0,0,0-.05.55l.08.17.1.16a.69.69,0,0,1-.08.88c-.27.28-.43.42-.8.12a1.12,1.12,0,0,1-.46-.59l-.08-.18a.53.53,0,0,0-.66-.16,5.75,5.75,0,0,0-1,.89,1.19,1.19,0,0,0-.24.52.61.61,0,0,1-.56.44c-.19,0-.37.06-.56.09a.71.71,0,0,0-.34.16,1.24,1.24,0,0,1-.91.22,1.16,1.16,0,0,1-.54-.18,1.23,1.23,0,0,0-.33-.19.66.66,0,0,0-.55.08c-.26.18-.51.39-.75.59a1,1,0,0,1-.34.19,1.62,1.62,0,0,0-.77.54,1.38,1.38,0,0,0-.3.49,1.92,1.92,0,0,1-.55.77.83.83,0,0,1-.5.25c-.12,0-.25,0-.38.05a1.17,1.17,0,0,0-.68.32,3.47,3.47,0,0,1-.29.25.5.5,0,0,1-.51.17c-.44-.06-.54,0-.62.48a1.11,1.11,0,0,0,0,.19,1.06,1.06,0,0,1-.34.66,1,1,0,0,1-.66.36,1.84,1.84,0,0,0-.56.1c-.06,0-.14,0-.17.07a1.59,1.59,0,0,0-.18.34,2.32,2.32,0,0,0-.05.38c0,.19,0,.38,0,.57a.54.54,0,0,1-.47.51,19.62,19.62,0,0,1-2.3,0,1.71,1.71,0,0,1-.73-.21.59.59,0,0,0-.53.12c-.35.28-.64.62-1,.93s-.38.35-.57.51a.56.56,0,0,1-.17.09,2.81,2.81,0,0,1-.76.08,1.6,1.6,0,0,0-1.07.34,1,1,0,0,1-.35.13,2.65,2.65,0,0,1-.38,0l-.39,0a1.13,1.13,0,0,0-.71.22,1.47,1.47,0,0,1-.9.29,1,1,0,0,0-.54.17,1.76,1.76,0,0,1-1.09.29,6.23,6.23,0,0,0-1.14.06,1,1,0,0,0-.18,0,.93.93,0,0,0-.15.13c-.18.18-.36.36-.53.55a3.08,3.08,0,0,1-.44.37.48.48,0,0,1-.67,0,.63.63,0,0,0-.55-.09c-.18.06-.35.15-.54.2s-.37-.05-.55-.06-.09.06-.12.11a.48.48,0,0,0-.05.37.54.54,0,0,0,.1.16c.31.42.68.77,1,1.15.24.13.33.25.36.4a1.63,1.63,0,0,1,0,.76.23.23,0,0,1-.26.2.38.38,0,0,1-.31-.19.53.53,0,0,1-.08-.17,1.81,1.81,0,0,1-.12-.56l-.31-.22-.15-.11a.75.75,0,0,0-.55,0c-.28.16-.5.39-.76.57s-.43.13-.62-.16-.22-.3-.07-.51a1,1,0,0,0,.18-.53,6.15,6.15,0,0,0,0-1c0-.16-.08-.24-.24-.23a.47.47,0,0,0-.17,0,1.07,1.07,0,0,0-.44.35,2.21,2.21,0,0,1-.57.49c-.21.17-.34.18-.49.06l-.3-.24L363,153c-.28-.19-.54-.18-.6.09a1.55,1.55,0,0,1-.65.91.65.65,0,0,1-.54.08,1.44,1.44,0,0,1-.49-.29.58.58,0,0,1-.32-.16,1.22,1.22,0,0,1-.38-.61,2.21,2.21,0,0,0-.72-.61.32.32,0,0,0-.36,0,1,1,0,0,1-1.08,0,.44.44,0,0,0-.53,0,1.46,1.46,0,0,1-.74.16,1.17,1.17,0,0,1-.55-.13,2.38,2.38,0,0,0-.67-.35c-.26-.06-.43-.27-.66-.38a1.21,1.21,0,0,0-.55-.14h-.39a1.36,1.36,0,0,0-.89.29,1.08,1.08,0,0,1-.71.25,6.44,6.44,0,0,1-.76,0,.92.92,0,0,1-.51-.23,1.55,1.55,0,0,0-.32-.2.44.44,0,0,0-.37,0c-.34.18-.58.5-.92.69a.25.25,0,0,1-.34,0c-.19-.17-.37-.34-.55-.53a5.39,5.39,0,0,0-.43-.39.57.57,0,0,0-.54-.08,1.48,1.48,0,0,1-.92.19,1,1,0,0,1-.37-.09c-.16-.09-.32-.2-.49-.28a6.21,6.21,0,0,1-.7-.31,1.46,1.46,0,0,0-.91-.25h-2.87a1.29,1.29,0,0,0-.72.21,1.39,1.39,0,0,1-.72.23l-2.3,0-1,0a.94.94,0,0,0-.53.2.72.72,0,0,1-.33.18c-.19,0-.38.07-.57.09a1.58,1.58,0,0,0-.68.32c-.32.24-.51.22-.85,0a.47.47,0,0,1-.39-.38h0l-.29-.23a.8.8,0,0,0-.53-.17,1.33,1.33,0,0,0-.73.14l-.34.17h0a.42.42,0,0,1-.28.19,2.08,2.08,0,0,1-.35,0,.5.5,0,0,1-.45-.24.4.4,0,0,1,0-.34l0-.41a1.18,1.18,0,0,0-.74-.53,1.52,1.52,0,0,1-.49-.25c-.21-.15-.35,0-.5.1a2.2,2.2,0,0,0-.27.26c-.24.23-.18.72.09.79l.35.14a.47.47,0,0,1,.33.4,2.82,2.82,0,0,1,0,1.12.41.41,0,0,1-.23.28,1.41,1.41,0,0,1-.54.11,1.07,1.07,0,0,1-.69-.21c0,.17-.06.33-.1.49a.56.56,0,0,1-.07.18,1,1,0,0,1-.42.38.46.46,0,0,1-.36,0l-.36-.13a.44.44,0,0,0-.6.3,1.78,1.78,0,0,1-.54.78l-.15.12a.71.71,0,0,1-.34.16l-.56.1a.49.49,0,0,0-.41.36,1,1,0,0,1-.68.6.84.84,0,0,0-.33.19c-.19.17-.36.37-.54.54a1.3,1.3,0,0,1-.5.28.82.82,0,0,0-.35.13,3.57,3.57,0,0,1-.86.41,8.82,8.82,0,0,1-1,.51.76.76,0,0,0-.3.24c-.08.09-.18.17-.27.26a2,2,0,0,1-.82.48c-.22.07-.27.13-.36.41a1.87,1.87,0,0,1-.37.66,5.71,5.71,0,0,1-.87.76.53.53,0,0,1-.18,0,3.36,3.36,0,0,1-1.14,0,.63.63,0,0,1-.35-.13,1.55,1.55,0,0,0-1.08-.29l-1,.05a9.07,9.07,0,0,1-.06.91c0,.34-.21.51-.61.57h-.18l-.72.08c-.17.23-.27.31-.44.33l-.57,0a.71.71,0,0,0-.35.13c-.29.27-.7.31-1,.54a1.79,1.79,0,0,1-1.06.37.79.79,0,0,0-.52.22c-.24.2-.48.41-.71.64s-.53.55-.8.82a1,1,0,0,1-.5.27,5,5,0,0,0-.56.1.31.31,0,0,0-.22.26,2,2,0,0,1,.21,1.11.79.79,0,0,1-.1.37,3.77,3.77,0,0,0-.43.85.56.56,0,0,1-.44.32c-.19,0-.38.07-.57.09a.56.56,0,0,0-.34.15l-.43.38a1.3,1.3,0,0,1-.87.35l-2.1,0a.81.81,0,0,0-.53.18l-.72.63a.84.84,0,0,1-.52.2l-.77,0c-.19,0-.38,0-.57,0a.9.9,0,0,0-.51.22,1.37,1.37,0,0,0-.58,1,2.83,2.83,0,0,1-.09.37,1.3,1.3,0,0,1,.07.89.47.47,0,0,1-.22.28l0,0c0,.07,0,.13,0,.19a.56.56,0,0,1-.06-.21.38.38,0,0,1-.15-.2.58.58,0,0,1,0-.18c0-.24,0-.48,0-.73l-.18,0a1.39,1.39,0,0,1-.71-.26,1.6,1.6,0,0,0-.49-.28,1.33,1.33,0,0,1-.49-.28l-1.14-1a.59.59,0,0,0-.17-.1.46.46,0,0,0-.36,0,4.82,4.82,0,0,0-.5.27.74.74,0,0,1-.87-.12l-.27-.27a5.7,5.7,0,0,0-.84-.79.81.81,0,0,0-.34-.15c-.13,0-.25,0-.38,0a1.27,1.27,0,0,1-.7-.25,1,1,0,0,0-.53-.2c-.45,0-.89,0-1.33-.05a.8.8,0,0,1-.52-.2,13.91,13.91,0,0,0-1.12-1.05,1,1,0,0,0-.51-.21,7,7,0,0,0-1.52,0,.35.35,0,0,0-.18.06c-.24.09-.41.29-.67.34a4.33,4.33,0,0,0-.71.27.37.37,0,0,1-.36-.06c-.2-.15-.38-.34-.59-.47a6,6,0,0,0-.68-.32.3.3,0,0,1-.14-.13c-.08-.17-.15-.35-.22-.53a.28.28,0,0,0-.3-.19.47.47,0,0,0-.35.1,2.18,2.18,0,0,0-.22.31.51.51,0,0,1-.63.28.38.38,0,0,0-.35.07,1.41,1.41,0,0,1-.72.22c-.44,0-.88,0-1.33,0a.54.54,0,0,0-.42.33l-.12.56a.3.3,0,0,1-.24.24.35.35,0,0,1-.33-.14.9.9,0,0,1-.33-.66v-.19a.51.51,0,0,0-.28.24,2.19,2.19,0,0,1-.81.79.73.73,0,0,1,0,.36.4.4,0,0,1-.2.28.39.39,0,0,1-.19-.28.6.6,0,0,1,.05-.35c.05-.11.08-.22.13-.32a1.05,1.05,0,0,0,.16-.48c0-.12,0-.23,0-.35a3.4,3.4,0,0,1-.3-.23,1.54,1.54,0,0,0-.64-.4.93.93,0,0,1-.54-.51c-.15-.3-.22-.31-.41-.15a1.17,1.17,0,0,0-.46.59,1.27,1.27,0,0,1-.06.18.61.61,0,0,1-.57.43h-.38a.6.6,0,0,1-.47-.28,4.2,4.2,0,0,0-1.54-.07.58.58,0,0,1-.44.31.48.48,0,0,1-.49-.22,3.32,3.32,0,0,0-.7-1.12,1.53,1.53,0,0,1-.38-.65.78.78,0,0,0-.53-.5,1.16,1.16,0,0,1-.5-.27,3.48,3.48,0,0,0-.58-.5.7.7,0,0,0-.72-.06,3.58,3.58,0,0,0-.49.3,2.31,2.31,0,0,0-.86.39.74.74,0,0,1-.72,0l-.58-.5a3.4,3.4,0,0,0-.86-.41,1.58,1.58,0,0,1-.15-.12,1.09,1.09,0,0,0-.88-.27,1.16,1.16,0,0,0-.54.18l-.3.23a.62.62,0,0,1-.55,0l-.32-.2a.63.63,0,0,0-.87,0,1.11,1.11,0,0,1-.69.28c-.58,0-1.15,0-1.72,0a1.11,1.11,0,0,1-.54-.17l-.15-.12a1.89,1.89,0,0,0-.51-.26,1.3,1.3,0,0,1-.49-.29c-.19-.17-.38-.34-.58-.5s-.6-.18-.86-.4a1.23,1.23,0,0,0-.7-.27l-.19,0a1,1,0,0,1-.52-.2,1.69,1.69,0,0,0-.88-.35l-.19,0-.59.08c0,.12,0,.25,0,.38a1.21,1.21,0,0,1,0,.19.66.66,0,0,1-.37.41,10.14,10.14,0,0,1-2.1,0,.85.85,0,0,1-.51-.23.93.93,0,0,0-.52-.22c-.13,0-.26,0-.38-.06a1,1,0,0,1-.52-.22l-.42-.39a1.32,1.32,0,0,0-.66-.37,1,1,0,0,1-.49-.27c-.14-.13-.28-.27-.41-.41a1,1,0,0,0-.47-.31,3.82,3.82,0,0,1-.36-.13c-.17-.09-.32-.21-.49-.3a4.81,4.81,0,0,1-.53-.2,2.84,2.84,0,0,0-.86-.41.59.59,0,0,1-.17-.1A2.55,2.55,0,0,0,236,158a.84.84,0,0,1-.34-.17,1.46,1.46,0,0,0-.9-.26l-2.49,0a.77.77,0,0,1-.37-.08,4,4,0,0,0-.86-.41l-.17-.08-.16-.11c-.18-.17-.38-.34-.55-.53a.73.73,0,0,0-.5-.25,2.33,2.33,0,0,1-1.25-.41,3.23,3.23,0,0,1-.86-.41,1,1,0,0,0-.53-.18,1.72,1.72,0,0,1-.74-.18.71.71,0,0,0-.72,0,1.34,1.34,0,0,1-.55.16,12.34,12.34,0,0,1-1.72,0,1,1,0,0,1-.53-.19,1.47,1.47,0,0,0-.89-.32H220a1.6,1.6,0,0,1-.9-.28.76.76,0,0,0-.73-.05.91.91,0,0,0-.17.09.35.35,0,0,1-.36,0,2.62,2.62,0,0,0-.53-.2,1.23,1.23,0,0,0-1.09.21,5.59,5.59,0,0,1-.47.33c-.18.12-.41.1-.48-.05-.25-.52-.31-.51-.91-.53-.44,0-.89,0-1.34,0h-1.53a1.24,1.24,0,0,1-.73-.2,1.77,1.77,0,0,0-.89-.29,1.06,1.06,0,0,1-.68-.32c-.14-.13-.29-.25-.42-.39a1,1,0,0,0-.49-.28,2.41,2.41,0,0,1-.68-.34,1.06,1.06,0,0,0-.55-.15,1.91,1.91,0,0,0-.74.14c-.35.13-.5,0-.57-.28s-.08-.37-.13-.56a.45.45,0,0,0-.42-.32l-.19,0a.73.73,0,0,0-.77.45,2.16,2.16,0,0,1-.17.34.42.42,0,0,1-.65,0,3.59,3.59,0,0,1-.17-.34c-.11-.22-.22-.37-.37-.41a2.48,2.48,0,0,1-.85-.41.68.68,0,0,0-.37-.09,1.39,1.39,0,0,0-1.07.3.69.69,0,0,1-.72,0l-.17-.1a1.17,1.17,0,0,0-.72-.19,1.11,1.11,0,0,0-.72.23,1.45,1.45,0,0,1-.52.23,1,1,0,0,0-.63.39l-.28.26a.28.28,0,0,1-.47-.06c-.07-.1-.12-.22-.2-.32a.51.51,0,0,0-.3-.22,1.39,1.39,0,0,0-.94.07.76.76,0,0,1-.71.12.47.47,0,0,0-.52.1c-.18.17-.36.36-.56.52a.57.57,0,0,1-.71,0l-.16-.1s-.09-.1-.15-.12a.59.59,0,0,0-.71,0,1.52,1.52,0,0,1-1.06.36c-.32,0-.64,0-.95,0a.58.58,0,0,0-.19,0,.56.56,0,0,0-.41.35l-.07.18a.56.56,0,0,1-.82.18c-.26-.19-.5-.4-.76-.59a.43.43,0,0,0-.16-.09,2.42,2.42,0,0,0-.38,0c-.17.09-.33.19-.5.27s-.49.14-.71.28l-.15.12a1.33,1.33,0,0,1-.54.18l-1,0c-.32,0-.64,0-1,0a.77.77,0,0,0-.52.23,1,1,0,0,1-.69.27H181a1.06,1.06,0,0,1-.71-.23c-.19-.16-.36-.06-.52.05s-.4.31-.6.47a.59.59,0,0,1-.7.09.82.82,0,0,0-.9,0,1.06,1.06,0,0,1-.37.09,2.36,2.36,0,0,1-.38,0h-.38a1.22,1.22,0,0,0-.71.25.86.86,0,0,1-.16.1,4.83,4.83,0,0,0-.52.23c-.16.1-.22.31-.33.46s-.27.25-.48.15a1.77,1.77,0,0,0-.74-.19,2.11,2.11,0,0,1-.73-.21c-.3-.13-.37-.08-.52.31a1.42,1.42,0,0,1-.08.18.56.56,0,0,1-.51.18l-.35-.13a.61.61,0,0,0-.37-.08,1,1,0,0,0-.54.5,1.27,1.27,0,0,0-.06.18c0,.19,0,.38-.07.57a.59.59,0,0,1-.52.48l-.95.07a2.29,2.29,0,0,0-.37.12c-.34.31-.83.3-1.21.55a.37.37,0,0,1-.16.07.45.45,0,0,1-.18-.07,2.1,2.1,0,0,0-.92-.24,1.16,1.16,0,0,1-.71-.25.67.67,0,0,0-.53-.12.48.48,0,0,0-.4.36c-.05.25-.08.5-.15.75a.36.36,0,0,1-.26.25,1.35,1.35,0,0,1-.93-.06l-.35-.16c-.13-.06-.15,0-.38.35-.13.21-.13.21-.45.15a.39.39,0,0,0-.46.24c0,.19-.06.38-.1.57a.49.49,0,0,1-.73.35,1.51,1.51,0,0,1-.17-.1c-.19-.1-.33-.06-.47.14l-.2.33a.51.51,0,0,1-.5.2,1,1,0,0,1-.35-.14.2.2,0,0,0-.32.05.38.38,0,0,0,.07.5,1.44,1.44,0,0,1,.31.22c.08.1,0,.22-.1.29a1.88,1.88,0,0,1-.75.12,1.23,1.23,0,0,0-.72.23c-.19.14-.35.06-.51-.05a4,4,0,0,0-.63-.44.34.34,0,0,0-.35,0,6.89,6.89,0,0,0-.56.52.87.87,0,0,1-.53.2l-.57,0-.77,0a.57.57,0,0,0-.57.42,1.46,1.46,0,0,1-.54.77.41.41,0,0,1-.36,0c-.12,0-.23-.12-.34-.17a.68.68,0,0,0-.56,0,2.17,2.17,0,0,1-.33.19c-.19.06-.37-.06-.55-.06a.58.58,0,0,0-.19,0,1.25,1.25,0,0,0-.64.68c0,.06,0,.11-.07.18a.43.43,0,0,1-.43.31c-.31,0-.64,0-.95.08a.8.8,0,0,0-.52.21.9.9,0,0,1-.31.21,7.77,7.77,0,0,0-.88.38.36.36,0,0,1-.18,0c-.43-.1-.43-.11-.71,0a.8.8,0,0,1-1-.16,20.48,20.48,0,0,0-2.07.09.54.54,0,0,0-.44.32l-.14.35a.86.86,0,0,1-.05.55,1.88,1.88,0,0,0-.22.73c0,.13-.05.25-.08.37a.49.49,0,0,1-.61.29l-.17-.09a1.66,1.66,0,0,0-.89-.3,1.2,1.2,0,0,1-.71-.23,1.22,1.22,0,0,0-.72-.22c-.25,0-.5,0-.76,0a1.65,1.65,0,0,0-.36.11,1.78,1.78,0,0,1-1.07.35.87.87,0,0,0-.52.2c-.23.22-.47.44-.71.64a.91.91,0,0,1-.34.17,1.59,1.59,0,0,0-.51.24.91.91,0,0,1-.16.11.58.58,0,0,1-.81-.22,3.68,3.68,0,0,1-.15-.35.52.52,0,0,0-.46-.28,6.21,6.21,0,0,0-1.14,0,1.43,1.43,0,0,0-.73.2.55.55,0,0,1-.54,0l-.34-.16a1.82,1.82,0,0,1-.68-.34,5.6,5.6,0,0,0-.59-.48.91.91,0,0,0-.53-.18c-.25,0-.51,0-.76,0a.91.91,0,0,1-.53-.18,2.2,2.2,0,0,0-.67-.37,2.39,2.39,0,0,1-.49-.28,1,1,0,0,0-.54-.17c-.38,0-.76,0-1.14,0l-.19,0a.57.57,0,0,0-.52.48c0,.19,0,.38-.07.57s-.08.24-.32.45l-.11.69a.54.54,0,0,1-.09.31,1.29,1.29,0,0,1-.64.49l-.31.22a.27.27,0,0,1-.44-.12,1.73,1.73,0,0,0-.14-.34,3.51,3.51,0,0,0-.87-1,.71.71,0,0,1-.23-.28l-.16.1a1.51,1.51,0,0,1-.66.38,2.39,2.39,0,0,0-.65.39.65.65,0,0,1-.35.13l-1,.06a1.15,1.15,0,0,0-.36.11,7,7,0,0,1-.66.37c-.24.09-.25.15-.16.44a2.54,2.54,0,0,1,.13.56.54.54,0,0,1-.34.42,1.38,1.38,0,0,1-1.25-.27.7.7,0,0,0-.36-.12c-.32,0-.64,0-1-.08a.94.94,0,0,1-.52-.23,1.07,1.07,0,0,0-.7-.27,21.87,21.87,0,0,0-2.29,0,.85.85,0,0,0-.36.12l-.15.12a1.39,1.39,0,0,1-.71.28,1.43,1.43,0,0,0-.88.31,1,1,0,0,1-.34.16,1.51,1.51,0,0,0-.81.48c-.27.27-.54.55-.82.81a1,1,0,0,1-.32.2,2.28,2.28,0,0,0-.69.32,1.08,1.08,0,0,1-.53.18l-.57.08a.65.65,0,0,0-.34.17,1.2,1.2,0,0,1-.71.25l-2.1,0a1.17,1.17,0,0,0-.7.27,1,1,0,0,1-.52.22c-.32,0-.64,0-1,0l-3.25,0a1.27,1.27,0,0,0-.73.21,1.44,1.44,0,0,1-.53.21,2.33,2.33,0,0,1-.38,0,1,1,0,0,0-.53.19,1.76,1.76,0,0,1-.9.27c-1,0-2,0-3.07,0a1,1,0,0,1-.67-.31c-.09-.09-.2-.16-.3-.25a1.46,1.46,0,0,0-.65-.37.86.86,0,0,1-.35-.16s-.11-.07-.15-.11a.89.89,0,0,0-.51-.24c-.39,0-.77,0-1.15,0a1.48,1.48,0,0,1-.89-.29,1,1,0,0,0-.54-.18c-.64,0-1.28,0-1.92,0H79.62a1.2,1.2,0,0,0-.71.23,1.48,1.48,0,0,1-1.1.22l-.19-.05-.17-.08a.4.4,0,0,0-.56.33,1.34,1.34,0,0,1-.46,1,.4.4,0,0,1-.51,0,1.38,1.38,0,0,1-.58-.74.63.63,0,0,0-.57-.44,1.54,1.54,0,0,1-1-.43c-.14-.13-.32-.22-.47-.34a.23.23,0,0,0-.34,0,.86.86,0,0,1-.35.16.7.7,0,0,1-.55-.08,7.93,7.93,0,0,1-1.11-1.06,1,1,0,0,0-.68-.29c-.26,0-.51,0-.77,0a.91.91,0,0,1-.52-.2c-.15-.12-.31-.23-.47-.34-.34-.22-.38-.22-.57.13a.56.56,0,0,1-.23.29,1.22,1.22,0,0,1-1.1,0,3.5,3.5,0,0,0-.86-.39,1.87,1.87,0,0,1-.35-.16.51.51,0,0,0-.53,0,1.58,1.58,0,0,1-.74.17,1.52,1.52,0,0,1-.55-.13l-.16-.11a1.21,1.21,0,0,0-.71-.24,1.47,1.47,0,0,1-.87-.34.91.91,0,0,0-.53-.2,2.62,2.62,0,0,1-.56-.09c-.31-.1-.53-.37-.86-.41a.8.8,0,0,1-.35-.16,1.25,1.25,0,0,0-.69-.29,2.32,2.32,0,0,1-.38,0,.87.87,0,0,1-.5-.24c-.18-.19-.38-.35-.56-.53a.92.92,0,0,0-.33-.19,1.75,1.75,0,0,1-.69-.32.73.73,0,0,0-.34-.17,1.43,1.43,0,0,1-.66-.36c-.14-.13-.28-.26-.41-.4a1,1,0,0,0-.68-.3l-.19,0a1.07,1.07,0,0,1-.7-.28l-.58-.5a.64.64,0,0,0-.35-.14l-1-.07a.86.86,0,0,1-.51-.23c-.34-.3-.66-.61-1-.91-.09-.09-.17-.2-.26-.29a1.44,1.44,0,0,1-.28-.5c-.12-.31-.27-.32-.54,0s-.39.3-.62.08l-.42-.4a.72.72,0,0,0-.52-.19,2.19,2.19,0,0,0-.57,0,.53.53,0,0,0-.3.45,1,1,0,0,0,.21.52c.27.36.67.6.94,1a.51.51,0,0,1,.07.17.61.61,0,0,1,0,.19c-.06.32-.59.66-.89.32-.08-.1-.19-.17-.27-.27a1.14,1.14,0,0,0-.62-.41,1.07,1.07,0,0,1-.51-.25c-.19-.17-.38-.35-.57-.51a.57.57,0,0,0-.35-.14,1.64,1.64,0,0,0-.38,0,.72.72,0,0,0-.7.47c-.13,0-.25,0-.38,0a.91.91,0,0,1-.53-.2l-.72-.63a.51.51,0,0,0-.16-.09,1.16,1.16,0,0,0-.93,0,1.38,1.38,0,0,0-.33.2,1,1,0,0,1-.52.2l-.77,0h-.76a1.46,1.46,0,0,1-.9-.28,1.29,1.29,0,0,0-.71-.24l-.57,0a1.15,1.15,0,0,1-.71-.25,1.35,1.35,0,0,0-.72-.22l-.58,0a1.29,1.29,0,0,1-.71-.24,1,1,0,0,0-.53-.2l-.38,0-.38,0a.61.61,0,0,1-.6-.38,1.85,1.85,0,0,0-.5-.81l-.72-.62a.6.6,0,0,0-.36-.14l-.76-.05a1.42,1.42,0,0,1-.71-.25,1,1,0,0,0-.7-.27l-1,0a1.44,1.44,0,0,1-.9-.26,1.35,1.35,0,0,0-.73-.21.62.62,0,0,1-.19,0,.53.53,0,0,1-.44-.31,2.27,2.27,0,0,0-.63-.95c-.14-.13-.29-.25-.44-.37a.27.27,0,0,0-.45.08,1.73,1.73,0,0,1-.2.32c-.19.23-.75.15-.82-.1a.8.8,0,0,0-.62-.65.77.77,0,0,1-.33-.18,2.22,2.22,0,0,0-.68-.36c-.25-.07-.42-.28-.65-.38s-.36-.12-.54-.2-.33-.18-.5-.27a.68.68,0,0,0-.37-.09,1.54,1.54,0,0,1-.9-.27,1.21,1.21,0,0,0-.71-.24l-1.15,0a1,1,0,0,1-.53-.2,1.13,1.13,0,0,0-.69-.29l-.76,0a1,1,0,0,1-.54-.18,1.62,1.62,0,0,0-.9-.26l-1.54,0a.9.9,0,0,1-.53-.17,1.55,1.55,0,0,0-.9-.28,7.36,7.36,0,0,0-1.15,0,1.5,1.5,0,0,0-.36.11,3.54,3.54,0,0,0-.33.19l-1.06.41a.58.58,0,0,1-.19,0,2.48,2.48,0,0,0-.92-.22,3.71,3.71,0,0,1-.58,0,.9.9,0,0,1-.53-.17,1.41,1.41,0,0,0-.9-.29H2.79a1.33,1.33,0,0,1-.87-.33.83.83,0,0,0-.53-.2A3.74,3.74,0,0,1,.45,153V200Zm-76.89-72.81a.33.33,0,1,1-.18.29A.33.33,0,0,1,423.12,127.19Zm-2.06,2c.18-.08.32.06.3.31s-.18.35-.34.26a.3.3,0,0,1-.15-.31A.32.32,0,0,1,421.06,129.17Zm-88.92,22.6s.07-.07.11-.11a.19.19,0,0,1,.13.27l-.12.1A.17.17,0,0,1,332.14,151.77Zm-1.64,1.71a.33.33,0,0,1,.22-.25.52.52,0,0,1,.48.25.43.43,0,0,1,.1.51.28.28,0,0,1-.15.11.52.52,0,0,1-.18,0A.48.48,0,0,1,330.5,153.48Zm-130.21-1.71c0-.05.08-.07.13-.1a.2.2,0,0,1,.1.28l-.13.09A.18.18,0,0,1,200.29,151.77ZM164,159.16a.46.46,0,0,1,.48.08.34.34,0,0,1,0,.14c0,.14-.25.22-.45.15a.22.22,0,0,1-.18-.23A.28.28,0,0,1,164,159.16Zm-120.59,5v0a.17.17,0,0,1,.27,0c.12.1.12.2,0,.28a.18.18,0,0,1-.16,0,.2.2,0,0,1-.1-.26h0Z" transform="translate(-0.44 -122.47)"/><polygon points="327.04 29.27 327.05 29.27 327.05 29.27 327.04 29.27"/><path d="M327.46,151.81h0l0-.06S327.47,151.8,327.46,151.81Z" transform="translate(-0.44 -122.47)"/><path d="M500,200V127.55a1.63,1.63,0,0,0-.37-.08l-1.73,0a.78.78,0,0,1-.53-.16,2.44,2.44,0,0,0-.85-.43,1.29,1.29,0,0,1-.32-.19,1.17,1.17,0,0,0-.72-.24l-.37-.06a.45.45,0,0,1-.3-.22,1.4,1.4,0,0,1-.09-.17.7.7,0,0,0-.7-.53l-2.11,0a1.3,1.3,0,0,1-.71-.25.72.72,0,0,0-.15-.11,7,7,0,0,1-1.05-.46.75.75,0,0,0-.36-.1,1.89,1.89,0,0,1-1.07-.37.74.74,0,0,0-.36-.12,3,3,0,0,0-.95,0,1.73,1.73,0,0,0-.69.31.67.67,0,0,1-.72,0l-.15-.11A.83.83,0,0,0,485,124c-.12,0-.23.11-.35.16a.25.25,0,0,1-.17,0,1.19,1.19,0,0,0-.92.1.68.68,0,0,1-.72-.07c-.05,0-.09-.08-.15-.11a.72.72,0,0,0-.88,0l-.59.5a.83.83,0,0,1-.52.19l-1.34,0a1.13,1.13,0,0,0-.53.19,1.59,1.59,0,0,1-.34.18,1.3,1.3,0,0,1-.93,0c-.12-.05-.22-.14-.33-.19a3.82,3.82,0,0,0-.36-.13.54.54,0,0,0-.49.2c-.06.12-.1.24-.15.36s-.22.33-.41.34a.52.52,0,0,1-.36-.08,1.68,1.68,0,0,0-1.05-.41,1.13,1.13,0,0,1-.18,0,.73.73,0,0,1-.35-.15,1.51,1.51,0,0,0-.89-.3l-.58,0a1,1,0,0,1-.54-.16,1.69,1.69,0,0,0-.9-.29,1.33,1.33,0,0,1-.71-.25,1,1,0,0,0-.71-.24l-.76-.07a.93.93,0,0,1-.52-.22,1,1,0,0,0-.51-.23,7.5,7.5,0,0,0-1.34,0,.82.82,0,0,0-.53.19,11,11,0,0,1-1.13,1,.36.36,0,0,1-.36,0,1.79,1.79,0,0,0-1.11-.2.67.67,0,0,0-.36.12,1.42,1.42,0,0,1-1.07.28.79.79,0,0,1-.37-.1,3.75,3.75,0,0,0-.86-.4,1.83,1.83,0,0,1-.49-.28.83.83,0,0,0-.36-.13l-.95-.08a.9.9,0,0,1-.52-.22.88.88,0,0,0-.52-.23c-.31,0-.63-.05-.95-.06a.76.76,0,0,1-.36-.11,2.79,2.79,0,0,0-.33-.19,1.38,1.38,0,0,0-1.11,0,.46.46,0,0,0-.17.09,1.62,1.62,0,0,0-.54.77,1.34,1.34,0,0,1-.07.18.57.57,0,0,1-.45.3l-.57,0c-.45,0-.9,0-1.34,0a.75.75,0,0,0-.53.19c-.09.1-.2.16-.29.25a.78.78,0,0,1-.87.22.39.39,0,0,0-.36,0,.47.47,0,0,1-.36.06,1,1,0,0,0-.74,0,1.58,1.58,0,0,1-.36.14,3.36,3.36,0,0,1-1.14,0,.63.63,0,0,1-.34-.16l-.75-.6a.33.33,0,0,0-.17-.07,1.59,1.59,0,0,0-.94,0l-.18.07a.44.44,0,0,1-.51,0,1.59,1.59,0,0,0-.74-.18,1.36,1.36,0,0,0-.89.27,1.4,1.4,0,0,1-1.29,0,1.17,1.17,0,0,0-.69-.28l-.38,0a.82.82,0,0,1-.51-.22,2.3,2.3,0,0,0-.57-.51.38.38,0,0,0-.36,0,.56.56,0,0,0-.17.09l-.57.51a.61.61,0,0,1-.54.06c-.71-.42-.71-.42-1.23-.41H436a1.35,1.35,0,0,0-.71.25,1.54,1.54,0,0,1-.51.26.82.82,0,0,0-.34.16,1.69,1.69,0,0,0-.72.86c-.13.2-.22.23-.47.12a1.4,1.4,0,0,0-.17-.09.65.65,0,0,0-.7.14c-.39.34-.75.7-1.13,1a.75.75,0,0,1-.72.09c-.06,0-.12,0-.17-.09a1.37,1.37,0,0,0-.51-.26,1.48,1.48,0,0,1-.35-.13L429,126a.59.59,0,0,0-.19,0,1.35,1.35,0,0,0-.92.16,1.58,1.58,0,0,1-.9.26h-.57l-2.49,0a.91.91,0,0,0-.54.17,1.39,1.39,0,0,1-.7.28,2.5,2.5,0,0,0-.38.06.58.58,0,0,0-.47.52c0,.13,0,.26,0,.38a.89.89,0,0,1-.34.66.86.86,0,0,1-.13.14.9.9,0,0,1-.52.22.56.56,0,0,1-.35-.13,1.34,1.34,0,0,0-.87-.34,1.31,1.31,0,0,1-.88-.32.87.87,0,0,0-.34-.15,1.11,1.11,0,0,1-.51-.25c-.14-.13-.29-.25-.44-.37l-.16-.11a.3.3,0,0,0-.35,0,8.46,8.46,0,0,1-.85.43,3.88,3.88,0,0,1-.85.4.2.2,0,0,0-.11.31,1.09,1.09,0,0,1,.15.73.46.46,0,0,1-.59.31A5.44,5.44,0,0,0,414,129a3.08,3.08,0,0,1-.83-.46.73.73,0,0,0-.36-.11,1.23,1.23,0,0,0-.91.2,2.15,2.15,0,0,1-.66.37,1.09,1.09,0,0,0-.33.19,4.77,4.77,0,0,0-.83.79.81.81,0,0,0-.15.34,1.73,1.73,0,0,0-.05.38,1.26,1.26,0,0,1-.24.71,1,1,0,0,0-.22.52,2.65,2.65,0,0,0-.05.38,1.06,1.06,0,0,1-.34.67,5.23,5.23,0,0,0-.39.42,1,1,0,0,0-.24.51l0,.38c0,.13,0,.26,0,.38a1.26,1.26,0,0,1-.36.86,1.12,1.12,0,0,1-.83.4,1.23,1.23,0,0,1-.74-.17c-.06,0-.11-.09-.16-.09a.59.59,0,0,0-.37.07,4,4,0,0,0-.46.35,1.19,1.19,0,0,1-.48.29,1.53,1.53,0,0,0-.52.23,1.51,1.51,0,0,1-.7.27c-.19,0-.38.06-.57.09s-.29.25-.44.36l-.46.34a.24.24,0,0,1-.34,0l-.45-.36a.53.53,0,0,0-.69,0c-.15.13-.3.24-.44.38a.9.9,0,0,1-.51.22c-.19,0-.39,0-.58,0l-.38,0a.45.45,0,0,0-.33.17.57.57,0,0,0-.05.54l.09.17c0,.06.07.11.1.16a.66.66,0,0,1-.09.87c-.27.28-.43.43-.8.13a1.14,1.14,0,0,1-.45-.59l-.08-.18a.53.53,0,0,0-.67-.15,5.58,5.58,0,0,0-1,.88,1.35,1.35,0,0,0-.25.51.61.61,0,0,1-.55.44l-.57.09a.71.71,0,0,0-.34.16,1.22,1.22,0,0,1-.91.21,1.07,1.07,0,0,1-.54-.17,1.09,1.09,0,0,0-.33-.19.71.71,0,0,0-.55.08c-.26.18-.5.39-.75.59a.89.89,0,0,1-.33.18,1.57,1.57,0,0,0-.77.55,1.33,1.33,0,0,0-.31.47,1.83,1.83,0,0,1-.54.77.93.93,0,0,1-.5.26l-.39,0a1.17,1.17,0,0,0-.67.32c-.09.09-.2.17-.29.25a.49.49,0,0,1-.51.16c-.44,0-.55,0-.62.48l0,.19a1.06,1.06,0,0,1-.34.66,1,1,0,0,1-.65.36,1.78,1.78,0,0,0-.56.1c-.06,0-.14,0-.17.07a1.06,1.06,0,0,0-.18.33,1.58,1.58,0,0,0-.05.38c0,.19,0,.38,0,.57a.56.56,0,0,1-.48.51,19.44,19.44,0,0,1-2.29,0,1.54,1.54,0,0,1-.73-.2.59.59,0,0,0-.53.12,12.1,12.1,0,0,0-1,.92,6.91,6.91,0,0,1-.57.51.46.46,0,0,1-.17.09,2.77,2.77,0,0,1-.76.08,1.56,1.56,0,0,0-1.06.33.92.92,0,0,1-.36.13,2.32,2.32,0,0,1-.38.05l-.38,0a1.3,1.3,0,0,0-.72.22,1.46,1.46,0,0,1-.89.29,1,1,0,0,0-.54.17,1.85,1.85,0,0,1-1.09.29,5.55,5.55,0,0,0-1.15.06.53.53,0,0,0-.18.05.57.57,0,0,0-.14.13c-.18.18-.37.35-.54.54a3,3,0,0,1-.43.37.5.5,0,0,1-.68,0,.6.6,0,0,0-.55-.08c-.18.05-.35.14-.53.19s-.37,0-.56-.06-.09.06-.12.11a.45.45,0,0,0,0,.36.4.4,0,0,0,.09.17c.31.41.69.76,1,1.14.23.13.33.24.36.4a1.73,1.73,0,0,1,0,.75.24.24,0,0,1-.27.2.4.4,0,0,1-.31-.18,1.34,1.34,0,0,1-.07-.18,2.1,2.1,0,0,1-.13-.55l-.31-.22-.15-.11a.75.75,0,0,0-.55,0,8.36,8.36,0,0,0-.76.57c-.23.16-.42.12-.62-.16s-.21-.3-.07-.51a1,1,0,0,0,.18-.53,6,6,0,0,0,0-1c0-.16-.07-.24-.23-.23a.53.53,0,0,0-.18,0,1.07,1.07,0,0,0-.44.35,2.68,2.68,0,0,1-.57.49c-.21.16-.34.17-.49.05l-.29-.24a.91.91,0,0,0-.16-.11c-.27-.19-.53-.18-.6.09a1.55,1.55,0,0,1-.64.9.7.7,0,0,1-.55.08,1.44,1.44,0,0,1-.48-.28.67.67,0,0,1-.32-.17,1.13,1.13,0,0,1-.38-.6,2,2,0,0,0-.73-.61.32.32,0,0,0-.36,0,1,1,0,0,1-1.07,0,.45.45,0,0,0-.54,0,1.44,1.44,0,0,1-.73.16,1.12,1.12,0,0,1-.55-.13,2.44,2.44,0,0,0-.68-.35c-.25,0-.43-.26-.66-.38a1.28,1.28,0,0,0-.55-.14h-.38a1.34,1.34,0,0,0-.89.28,1.1,1.1,0,0,1-.71.25,6.61,6.61,0,0,1-.77,0,.8.8,0,0,1-.51-.23,1.16,1.16,0,0,0-.32-.2.44.44,0,0,0-.37,0c-.34.18-.58.5-.91.69a.25.25,0,0,1-.34,0c-.19-.17-.38-.34-.56-.53s-.28-.25-.42-.38a.56.56,0,0,0-.54-.08,1.56,1.56,0,0,1-.92.18.91.91,0,0,1-.37-.08l-.5-.29a3.85,3.85,0,0,1-.69-.31,1.54,1.54,0,0,0-.91-.24H341.2a1.32,1.32,0,0,0-.72.21,1.43,1.43,0,0,1-.72.23h-2.3l-1,0a.84.84,0,0,0-.52.2.78.78,0,0,1-.34.17l-.56.09a1.48,1.48,0,0,0-.69.33c-.31.23-.51.21-.85,0a.44.44,0,0,1-.38-.37h0l-.3-.23a.76.76,0,0,0-.52-.17,1.29,1.29,0,0,0-.73.13,2.7,2.7,0,0,1-.34.17h0a.38.38,0,0,1-.29.19l-.35,0a.51.51,0,0,1-.44-.24.37.37,0,0,1,0-.34l0-.41a1.17,1.17,0,0,0-.73-.53,1.31,1.31,0,0,1-.5-.25c-.21-.15-.35,0-.49.11a2.11,2.11,0,0,0-.27.25c-.25.23-.18.71.08.79s.23.09.35.13a.48.48,0,0,1,.33.41,3,3,0,0,1,0,1.11.41.41,0,0,1-.23.28,1.28,1.28,0,0,1-.55.1,1,1,0,0,1-.68-.2c0,.16-.06.32-.1.49a.38.38,0,0,1-.08.17.94.94,0,0,1-.41.38.53.53,0,0,1-.37,0l-.36-.14a.44.44,0,0,0-.6.3,1.67,1.67,0,0,1-.53.77l-.15.12a.76.76,0,0,1-.34.16l-.57.1a.51.51,0,0,0-.4.36,1,1,0,0,1-.69.6.7.7,0,0,0-.32.19c-.19.16-.36.36-.55.53a1.3,1.3,0,0,1-.5.28.87.87,0,0,0-.35.13,3.92,3.92,0,0,1-.85.41,10.78,10.78,0,0,1-1,.51.74.74,0,0,0-.3.23l-.28.26a1.86,1.86,0,0,1-.81.48c-.22.07-.27.13-.36.41a1.86,1.86,0,0,1-.38.65,5.09,5.09,0,0,1-.86.75.39.39,0,0,1-.18.06,3.63,3.63,0,0,1-1.14,0,.66.66,0,0,1-.36-.13,1.55,1.55,0,0,0-1.08-.29l-.95.05a8.86,8.86,0,0,1-.07.9.6.6,0,0,1-.6.57h-.18l-.72.08c-.18.23-.28.3-.44.32l-.57.06a.6.6,0,0,0-.35.13c-.29.26-.7.3-1,.53a1.79,1.79,0,0,1-1.06.37.75.75,0,0,0-.51.22q-.37.3-.72.63l-.8.82a.84.84,0,0,1-.5.26c-.18,0-.37.06-.56.11a.27.27,0,0,0-.21.25,2.23,2.23,0,0,1,.21,1.11.73.73,0,0,1-.11.36,4,4,0,0,0-.42.85.59.59,0,0,1-.45.32c-.18,0-.37.07-.56.09a.56.56,0,0,0-.34.15c-.14.13-.3.25-.44.37a1.26,1.26,0,0,1-.86.36c-.7,0-1.4,0-2.1,0a.74.74,0,0,0-.53.17l-.72.63a.91.91,0,0,1-.53.2l-.76,0a5.33,5.33,0,0,0-.57,0,1,1,0,0,0-.52.22,1.41,1.41,0,0,0-.58,1,2.83,2.83,0,0,1-.09.37,1.22,1.22,0,0,1,.07.88.45.45,0,0,1-.21.28l0,0a1.09,1.09,0,0,1,0,.18.54.54,0,0,1-.05-.21.42.42,0,0,1-.16-.19,1.13,1.13,0,0,1,0-.18c0-.24,0-.49,0-.73l-.19,0a1.39,1.39,0,0,1-.7-.26,1.6,1.6,0,0,0-.49-.28,1.62,1.62,0,0,1-.5-.27c-.37-.35-.75-.68-1.14-1a.61.61,0,0,0-.16-.09.48.48,0,0,0-.37,0,4.67,4.67,0,0,0-.49.27.77.77,0,0,1-.88-.12l-.27-.27a5.56,5.56,0,0,0-.83-.78.65.65,0,0,0-.35-.15c-.12,0-.25,0-.37,0a1.44,1.44,0,0,1-.71-.25,1,1,0,0,0-.53-.2c-.44,0-.89,0-1.33-.05a.82.82,0,0,1-.52-.2c-.37-.34-.7-.73-1.11-1a1,1,0,0,0-.52-.21,7.72,7.72,0,0,0-1.52,0,.67.67,0,0,0-.18.07c-.23.09-.41.29-.67.34a4.66,4.66,0,0,0-.71.26.35.35,0,0,1-.35-.05,7,7,0,0,0-.6-.48,5.24,5.24,0,0,0-.68-.31.44.44,0,0,1-.14-.13c-.08-.17-.15-.35-.22-.52a.27.27,0,0,0-.3-.19.43.43,0,0,0-.34.1,1.34,1.34,0,0,0-.22.31.51.51,0,0,1-.63.27.4.4,0,0,0-.36.07,1.35,1.35,0,0,1-.71.22c-.44,0-.89,0-1.33,0a.52.52,0,0,0-.42.33c-.05.18-.08.37-.13.55a.3.3,0,0,1-.24.25.4.4,0,0,1-.33-.14.91.91,0,0,1-.32-.66,1.28,1.28,0,0,1,0-.19.6.6,0,0,0-.28.24,2.27,2.27,0,0,1-.81.79.69.69,0,0,1,0,.35.44.44,0,0,1-.2.28.4.4,0,0,1-.2-.28.54.54,0,0,1,.06-.35,1.69,1.69,0,0,1,.13-.31,1.05,1.05,0,0,0,.16-.49c0-.11,0-.23,0-.34a2.37,2.37,0,0,1-.3-.23,1.62,1.62,0,0,0-.65-.4.92.92,0,0,1-.53-.51c-.15-.29-.23-.3-.42-.15a1.13,1.13,0,0,0-.45.6l-.07.18a.59.59,0,0,1-.57.42,2.41,2.41,0,0,1-.38,0,.59.59,0,0,1-.46-.28,4.2,4.2,0,0,0-1.54-.07.59.59,0,0,1-.44.31.47.47,0,0,1-.49-.22,3.4,3.4,0,0,0-.71-1.11,1.64,1.64,0,0,1-.38-.65.76.76,0,0,0-.53-.5,1.26,1.26,0,0,1-.5-.26,3.85,3.85,0,0,0-.57-.5.71.71,0,0,0-.73-.06,3.48,3.48,0,0,0-.48.3,2.27,2.27,0,0,0-.87.38.74.74,0,0,1-.72-.05c-.19-.17-.39-.32-.57-.5a4.18,4.18,0,0,0-.86-.4.44.44,0,0,1-.15-.12,1.1,1.1,0,0,0-.89-.26,1,1,0,0,0-.53.17c-.11.07-.2.16-.31.23a.57.57,0,0,1-.54,0l-.33-.2a.64.64,0,0,0-.87,0,1.08,1.08,0,0,1-.69.27c-.57,0-1.14,0-1.72,0a1.18,1.18,0,0,1-.54-.17c-.05,0-.09-.08-.15-.12a1.73,1.73,0,0,0-.51-.25,1.47,1.47,0,0,1-.48-.29c-.19-.17-.38-.34-.59-.5s-.6-.18-.85-.4a1.29,1.29,0,0,0-.7-.27l-.19,0a.85.85,0,0,1-.53-.2,1.65,1.65,0,0,0-.87-.34l-.19,0-.6.07c0,.13,0,.26,0,.38a1.34,1.34,0,0,1,0,.2.69.69,0,0,1-.37.4,10.17,10.17,0,0,1-2.1,0,.91.91,0,0,1-.52-.23.94.94,0,0,0-.52-.22l-.38-.06a1,1,0,0,1-.52-.21c-.13-.14-.28-.26-.42-.39a1.22,1.22,0,0,0-.65-.37,1,1,0,0,1-.5-.27c-.14-.13-.28-.27-.41-.41a1.14,1.14,0,0,0-.47-.31,2.2,2.2,0,0,1-.36-.13c-.17-.08-.32-.2-.49-.29s-.37-.09-.53-.2a2.73,2.73,0,0,0-.86-.41.83.83,0,0,1-.16-.09,2.26,2.26,0,0,0-.83-.46,1.35,1.35,0,0,1-.34-.17,1.38,1.38,0,0,0-.9-.26l-2.49,0a.79.79,0,0,1-.37-.07,3.92,3.92,0,0,0-.85-.41l-.17-.08a.64.64,0,0,1-.16-.11c-.19-.17-.38-.34-.56-.52a.79.79,0,0,0-.5-.26,2.12,2.12,0,0,1-1.24-.41,2.7,2.7,0,0,1-.86-.4,1.24,1.24,0,0,0-.54-.18,1.86,1.86,0,0,1-.74-.17.71.71,0,0,0-.72,0,1.17,1.17,0,0,1-.55.16,12.35,12.35,0,0,1-1.72,0,1,1,0,0,1-.53-.19,1.47,1.47,0,0,0-.88-.31h-1.92a1.59,1.59,0,0,1-.9-.27.76.76,0,0,0-.73-.05.51.51,0,0,0-.16.09.33.33,0,0,1-.36,0,2.67,2.67,0,0,0-.54-.19,1.23,1.23,0,0,0-1.08.2,3.63,3.63,0,0,1-.47.33c-.18.12-.41.11-.49-.05-.25-.51-.3-.5-.9-.52-.45,0-.9,0-1.34,0h-1.54a1.23,1.23,0,0,1-.72-.2,1.81,1.81,0,0,0-.9-.29,1.07,1.07,0,0,1-.67-.31c-.14-.13-.29-.25-.43-.39a1,1,0,0,0-.48-.29,2.44,2.44,0,0,1-.69-.33,1,1,0,0,0-.54-.15,2,2,0,0,0-.75.14c-.34.13-.5,0-.57-.28l-.12-.55a.45.45,0,0,0-.43-.33h-.19a.71.71,0,0,0-.76.44,3.65,3.65,0,0,1-.18.34.43.43,0,0,1-.65,0c-.06-.11-.12-.23-.17-.34s-.21-.37-.36-.41A3.09,3.09,0,0,1,202,151a.62.62,0,0,0-.36-.09,1.41,1.41,0,0,0-1.08.3.69.69,0,0,1-.72,0l-.16-.09a1.18,1.18,0,0,0-.73-.19,1.13,1.13,0,0,0-.71.22,1.28,1.28,0,0,1-.52.23,1.09,1.09,0,0,0-.64.39l-.28.27a.28.28,0,0,1-.46-.06l-.2-.33a.56.56,0,0,0-.31-.21,1.36,1.36,0,0,0-.93.07.77.77,0,0,1-.72.11.45.45,0,0,0-.51.11c-.19.17-.37.36-.56.51a.6.6,0,0,1-.72,0l-.16-.11a1.49,1.49,0,0,0-.14-.12.62.62,0,0,0-.71,0,1.52,1.52,0,0,1-1.06.36c-.32,0-.64,0-1,0a.65.65,0,0,0-.19,0,.56.56,0,0,0-.41.35,1.34,1.34,0,0,1-.07.18.56.56,0,0,1-.82.18l-.75-.59a.4.4,0,0,0-.17-.09c-.12,0-.25,0-.38,0l-.5.27c-.22.12-.49.14-.71.28,0,0-.09.08-.15.11a1.28,1.28,0,0,1-.54.18l-.95,0c-.32,0-.64,0-1,0a.83.83,0,0,0-.51.23,1,1,0,0,1-.69.28h-.58a1,1,0,0,1-.71-.23c-.19-.15-.36-.06-.51.05s-.4.31-.6.47a.61.61,0,0,1-.71.09.82.82,0,0,0-.9,0,1.06,1.06,0,0,1-.36.09c-.13,0-.26,0-.38,0h-.39a1.31,1.31,0,0,0-.71.24.72.72,0,0,1-.15.11,3.53,3.53,0,0,0-.52.22,1.72,1.72,0,0,0-.34.46c-.14.2-.26.25-.48.15a1.68,1.68,0,0,0-.73-.19,2,2,0,0,1-.73-.2c-.31-.13-.37-.09-.53.3a1.42,1.42,0,0,1-.08.18.54.54,0,0,1-.5.18l-.36-.13a.59.59,0,0,0-.37-.08,1,1,0,0,0-.54.5,1.27,1.27,0,0,0-.06.18c0,.19,0,.38-.07.57a.58.58,0,0,1-.52.47l-.95.07a2.53,2.53,0,0,0-.36.12c-.35.31-.84.3-1.21.55a.36.36,0,0,1-.17.07.67.67,0,0,1-.18-.07,2.06,2.06,0,0,0-.91-.24,1.2,1.2,0,0,1-.71-.25.69.69,0,0,0-.54-.12.47.47,0,0,0-.39.35c-.05.25-.09.51-.15.75a.34.34,0,0,1-.27.25,1.36,1.36,0,0,1-.93-.06l-.34-.16c-.13-.05-.15,0-.38.35-.13.21-.13.21-.46.15a.37.37,0,0,0-.45.24c0,.19-.07.38-.1.57a.51.51,0,0,1-.74.35c-.06,0-.11-.08-.16-.1a.31.31,0,0,0-.47.13l-.2.33a.53.53,0,0,1-.5.2.89.89,0,0,1-.35-.14c-.14-.09-.25-.07-.32,0a.37.37,0,0,0,.07.51,1.11,1.11,0,0,1,.3.22c.09.09.06.21-.09.28a1.94,1.94,0,0,1-.75.12,1.31,1.31,0,0,0-.72.23.41.41,0,0,1-.52-.05,5.35,5.35,0,0,0-.62-.44.35.35,0,0,0-.36,0c-.19.16-.38.34-.56.52a.84.84,0,0,1-.52.2l-.58,0-.76,0a.58.58,0,0,0-.58.41,1.42,1.42,0,0,1-.54.77.36.36,0,0,1-.35,0l-.35-.16a.62.62,0,0,0-.55,0c-.12,0-.22.14-.33.18s-.37,0-.56,0a.33.33,0,0,0-.19,0,1.15,1.15,0,0,0-.63.67.51.51,0,0,0-.07.17.46.46,0,0,1-.43.32c-.32,0-.64,0-1,.07a.79.79,0,0,0-.51.22,1,1,0,0,1-.32.21,7.46,7.46,0,0,0-.88.37.36.36,0,0,1-.18,0c-.42-.1-.43-.11-.7,0a.8.8,0,0,1-1-.16c-.69.06-1.39,0-2.07.09a.53.53,0,0,0-.44.31l-.15.35a.83.83,0,0,1,0,.56,2,2,0,0,0-.23.72,2.41,2.41,0,0,1-.07.37.5.5,0,0,1-.62.28.65.65,0,0,1-.16-.09,1.6,1.6,0,0,0-.89-.29,1.34,1.34,0,0,1-.72-.23,1.19,1.19,0,0,0-.71-.22c-.26,0-.51,0-.76,0a1.58,1.58,0,0,0-.37.11,1.77,1.77,0,0,1-1.06.35.79.79,0,0,0-.52.2q-.35.33-.72.63a.87.87,0,0,1-.33.17,1.5,1.5,0,0,0-.51.24l-.16.1a.58.58,0,0,1-.82-.21l-.15-.35a.52.52,0,0,0-.46-.28,6.21,6.21,0,0,0-1.14,0,1.4,1.4,0,0,0-.72.21.57.57,0,0,1-.54,0c-.12,0-.23-.11-.35-.15a1.85,1.85,0,0,1-.67-.34c-.19-.17-.39-.33-.59-.48a.94.94,0,0,0-.53-.18c-.26,0-.51,0-.77,0a.94.94,0,0,1-.53-.18,2.12,2.12,0,0,0-.66-.36,2.25,2.25,0,0,1-.5-.29,1.14,1.14,0,0,0-.54-.17h-1.14l-.19,0a.56.56,0,0,0-.52.47l-.06.57c0,.16-.08.23-.32.44l-.12.69a.54.54,0,0,1-.09.31,1.25,1.25,0,0,1-.64.49,3.37,3.37,0,0,1-.31.21c-.19.12-.37.08-.44-.11a.94.94,0,0,0-.14-.34,3.43,3.43,0,0,0-.86-1,.68.68,0,0,1-.24-.29s-.11.07-.15.11a1.61,1.61,0,0,1-.66.37,2.25,2.25,0,0,0-.65.39.66.66,0,0,1-.36.13c-.32,0-.64,0-1,.06a1.08,1.08,0,0,0-.36.11,7.19,7.19,0,0,1-.67.37c-.23.09-.25.15-.16.43a2.27,2.27,0,0,1,.13.56.5.5,0,0,1-.33.41,1.37,1.37,0,0,1-1.26-.26.74.74,0,0,0-.36-.12c-.31,0-.63,0-.95-.08a.92.92,0,0,1-.51-.23,1.08,1.08,0,0,0-.7-.26,22.06,22.06,0,0,0-2.3,0,.78.78,0,0,0-.36.13l-.15.11a1.39,1.39,0,0,1-.7.28,1.39,1.39,0,0,0-.88.31,1,1,0,0,1-.35.16,1.55,1.55,0,0,0-.81.47c-.27.28-.53.55-.81.81a1,1,0,0,1-.33.2,2.66,2.66,0,0,0-.69.31.94.94,0,0,1-.53.19c-.19,0-.38.05-.57.07a.7.7,0,0,0-.33.17,1.16,1.16,0,0,1-.71.25l-2.11,0a1.17,1.17,0,0,0-.7.27,1,1,0,0,1-.52.22c-.32,0-.64,0-1,0l-3.26,0a1.22,1.22,0,0,0-.72.21,1.63,1.63,0,0,1-.53.21l-.38,0a1.08,1.08,0,0,0-.53.18,1.64,1.64,0,0,1-.91.27c-1,0-2,0-3.06,0a1,1,0,0,1-.68-.3c-.09-.09-.2-.16-.29-.25a1.55,1.55,0,0,0-.66-.37.89.89,0,0,1-.34-.16l-.16-.11a.78.78,0,0,0-.51-.23c-.38,0-.77,0-1.15-.05a1.5,1.5,0,0,1-.89-.29,1,1,0,0,0-.54-.17l-1.91,0-1.73,0a1.16,1.16,0,0,0-.71.23,1.51,1.51,0,0,1-1.1.21l-.18-.05a1.34,1.34,0,0,0-.18-.07.41.41,0,0,0-.56.32,1.32,1.32,0,0,1-.46,1,.4.4,0,0,1-.51,0,1.4,1.4,0,0,1-.58-.73.62.62,0,0,0-.56-.44,1.59,1.59,0,0,1-1-.42c-.14-.13-.31-.22-.46-.34a.24.24,0,0,0-.35,0,.82.82,0,0,1-.34.16.67.67,0,0,1-.55-.09,6.49,6.49,0,0,1-1.11-1,1.05,1.05,0,0,0-.69-.29c-.25,0-.51,0-.76,0a.89.89,0,0,1-.53-.2,5,5,0,0,0-.47-.33c-.33-.22-.38-.22-.56.13a.63.63,0,0,1-.24.29,1.22,1.22,0,0,1-1.1,0,4.45,4.45,0,0,0-.86-.39,2.63,2.63,0,0,1-.35-.15.5.5,0,0,0-.52,0,1.48,1.48,0,0,1-.74.16,1.26,1.26,0,0,1-.55-.12.91.91,0,0,1-.16-.11,1.29,1.29,0,0,0-.71-.24,1.5,1.5,0,0,1-.88-.34,1,1,0,0,0-.52-.2,2.82,2.82,0,0,1-.57-.09c-.3-.1-.53-.36-.86-.41a.65.65,0,0,1-.34-.15,1.29,1.29,0,0,0-.7-.29,2.65,2.65,0,0,1-.38,0,.84.84,0,0,1-.5-.24,6.89,6.89,0,0,0-.56-.52.73.73,0,0,0-.33-.19,1.64,1.64,0,0,1-.68-.32.73.73,0,0,0-.34-.17,1.46,1.46,0,0,1-.67-.36c-.13-.13-.28-.26-.41-.4a1,1,0,0,0-.68-.3l-.19,0a1.1,1.1,0,0,1-.69-.27l-.59-.49a.53.53,0,0,0-.34-.15l-1-.07a.85.85,0,0,1-.51-.23l-1-.91a3.33,3.33,0,0,1-.25-.28,1.33,1.33,0,0,1-.28-.49c-.13-.32-.28-.33-.55-.06s-.38.3-.62.08l-.41-.4a.78.78,0,0,0-.53-.18,1.57,1.57,0,0,0-.57,0,.49.49,0,0,0-.29.44.89.89,0,0,0,.21.52c.27.36.66.6.93,1a.33.33,0,0,1,.07.16.41.41,0,0,1,0,.19c-.05.32-.58.66-.88.32-.08-.1-.19-.17-.27-.27a1.09,1.09,0,0,0-.63-.4,1.11,1.11,0,0,1-.51-.25c-.19-.17-.37-.35-.57-.51a.57.57,0,0,0-.35-.14,1.59,1.59,0,0,0-.38,0,.73.73,0,0,0-.7.46l-.37,0a.91.91,0,0,1-.53-.2c-.25-.2-.48-.42-.72-.63a.56.56,0,0,0-.17-.09,1.25,1.25,0,0,0-.93,0,1.32,1.32,0,0,0-.32.2,1,1,0,0,1-.53.2c-.25,0-.51,0-.76,0h-.77a1.41,1.41,0,0,1-.89-.28,1.29,1.29,0,0,0-.72-.24l-.57,0a1.11,1.11,0,0,1-.71-.25,1.52,1.52,0,0,0-.72-.22l-.57,0a1.26,1.26,0,0,1-.72-.23,1,1,0,0,0-.52-.2l-.39,0-.38,0a.59.59,0,0,1-.59-.38,1.76,1.76,0,0,0-.5-.8c-.25-.21-.48-.42-.73-.62a.67.67,0,0,0-.35-.14l-.77,0a1.45,1.45,0,0,1-.71-.25,1.07,1.07,0,0,0-.69-.27l-1,0a1.53,1.53,0,0,1-.9-.26,1.29,1.29,0,0,0-.72-.21l-.19,0c-.19-.05-.37-.11-.44-.31a2.26,2.26,0,0,0-.64-.94l-.43-.37a.27.27,0,0,0-.45.08,2.4,2.4,0,0,1-.21.31A.54.54,0,0,1,22,158a.79.79,0,0,0-.61-.64.91.91,0,0,1-.34-.17,2,2,0,0,0-.67-.36,7.08,7.08,0,0,1-.66-.38c-.17-.08-.36-.13-.53-.2s-.34-.19-.5-.28a.8.8,0,0,0-.37-.08,1.51,1.51,0,0,1-.9-.27,1.23,1.23,0,0,0-.72-.23l-1.15-.05a.84.84,0,0,1-.52-.2,1.19,1.19,0,0,0-.7-.29l-.76,0a1.07,1.07,0,0,1-.54-.17,1.58,1.58,0,0,0-.9-.26l-1.53,0a.94.94,0,0,1-.54-.17,1.6,1.6,0,0,0-.9-.28,7.23,7.23,0,0,0-1.14,0,1.58,1.58,0,0,0-.37.11c-.11.05-.22.13-.33.19l-1.06.4a1.25,1.25,0,0,1-.19,0,2.39,2.39,0,0,0-.92-.22,3.62,3.62,0,0,1-.57,0,1,1,0,0,1-.54-.17,1.44,1.44,0,0,0-.89-.29c-.13,0-.26,0-.38,0a1.32,1.32,0,0,1-.88-.33,1,1,0,0,0-.52-.2,3.81,3.81,0,0,1-.95-.12V200Zm-76.89-72.37a.33.33,0,0,1,0,.58.34.34,0,0,1,0-.58Zm-2.05,2c.18-.08.31.06.3.3s-.18.36-.34.26a.27.27,0,0,1-.15-.3A.29.29,0,0,1,421.06,129.6Zm-88.93,22.46s.08-.07.12-.11a.21.21,0,0,1,.13.27l-.12.11A.19.19,0,0,1,332.13,152.06Zm-1.64,1.71a.37.37,0,0,1,.22-.26.52.52,0,0,1,.48.25.44.44,0,0,1,.11.51.33.33,0,0,1-.15.11.58.58,0,0,1-.19,0A.48.48,0,0,1,330.49,153.77Zm-130.21-1.71s.09-.07.13-.1a.21.21,0,0,1,.11.28l-.14.09A.19.19,0,0,1,200.28,152.06ZM164,159.41a.41.41,0,0,1,.47.08.52.52,0,0,1,.06.13c0,.14-.25.22-.45.16s-.2-.13-.18-.23A.2.2,0,0,1,164,159.41Zm-120.59,5s0,0,0,0a.19.19,0,0,1,.28,0c.12.1.12.2,0,.28a.22.22,0,0,1-.16,0,.21.21,0,0,1-.1-.27l0,0Z" transform="translate(-0.44 -122.47)"/><polygon points="327.04 30.56 327.04 30.56 327.04 30.55 327.04 30.56"/><path d="M327.46,153.09h0V153Z" transform="translate(-0.44 -122.47)"/></svg>