<svg id="Layer_1" data-name="Layer 1" xmlns="http://www.w3.org/2000/svg" viewBox="0 0 1019.61 199.55"><defs><style></style></defs><title>music-notes-bottom</title><g id="Layer_1-2" data-name="Layer 1"><path d="M1019.61,100.55v99H1.61v-61s82.09.89,186,12c117.81,12.59,222,30,371,30C758.86,180.55,1019.61,100.55,1019.61,100.55Z" transform="translate(0 0)"/><path d="M977.91,66.58A1082.81,1082.81,0,0,1,800,129.05a1103.85,1103.85,0,0,1-186.87,31,1087.21,1087.21,0,0,1-189.06-1.43q-46.83-4.51-93.12-13.24c-31.91-6-63.29-14.21-94.79-22.08C173.41,107.66,106,93.15,41.79,108.39a205,205,0,0,0-23.28,7c-1.14.42,5.2,2.07,5.65,2.16,2.7.56,7.64,2.19,10.41,1.17,63.4-23.31,130.23-11,193.72,4.87,32.08,8,64.08,16.22,96.56,22.49q46.74,9,94.09,14.21A1119.76,1119.76,0,0,0,607,164.89a1115.65,1115.65,0,0,0,185.79-26.84,1085,1085,0,0,0,179.32-58.5q11-4.69,21.91-9.63c1.15-.52-5.18-2.07-5.64-2.16-2.49-.52-7.88-2.32-10.42-1.18Z" transform="translate(0 0)"/><path d="M16.75,82.12c35.91-44.88,100-54,153.37-43,33.33,6.84,65.35,18.93,97.75,29.12a923.4,923.4,0,0,0,95.61,24.51,958.74,958.74,0,0,0,195.38,18.94A918.15,918.15,0,0,0,753.27,89.51C819.46,74.58,882.5,51.05,944.7,24.27q12-5.19,24-10.42c1.16-.5-5.18-2.07-5.64-2.16-2.53-.53-7.83-2.3-10.41-1.18-62.9,27.32-126,53.34-192.65,70.16A906.28,906.28,0,0,1,564.39,107.8c-65.4,1.9-131.13-3.1-195.31-15.92A871.81,871.81,0,0,1,272.75,66.7c-32.34-10.41-64.48-21.77-97.87-28.65-54-11-117.18-11.67-161.21,26.78A110.92,110.92,0,0,0,0,79.17c-.29.35,7.59,2.28,8.21,2.39C9.64,81.82,15.62,83.56,16.75,82.12Z" transform="translate(0 0)"/><path d="M895.11.48a618.28,618.28,0,0,1-200.39,71c-1,.17,5.13,2,5.65,2.16,3.19.67,7.12,1.73,10.41,1.18A620,620,0,0,0,911.9,3.43c-.26.14-7.26-2.23-8.21-2.4-2.22-.39-6.42-1.75-8.54-.55Z" transform="translate(0 0)"/><path d="M414.94,140.19c-18.51,9.08-18,25.6-14.65,30.15,3.8,5.16,15.47,11.44,37,2.55s17.57-22.64,12.38-28.47C443.43,137.36,429.11,133.23,414.94,140.19Z" transform="translate(0 0)"/><polyline points="450.53 155.67 470.46 43.48 470.48 43.39 453.5 156.12"/><path d="M469.11,52.28s51.56,14.62,36.55,36L502,92.77S538.31,73,471.08,42.62C469.82,42,469.11,52.28,469.11,52.28Z" transform="translate(0 0)"/><path d="M842,124.84c-14.85,14.3-9.34,29.89-4.75,33.19,5.2,3.75,18.23,6.16,36.05-8.88s9.81-26.92,3.09-30.9C868.28,113.45,853.41,113.88,842,124.84Z" transform="translate(0 0)"/><polyline points="880.96 130.69 865.8 19.06 865.66 17.68 883.92 130.21"/><path d="M102.69,156.32c-19,7.87-19.61,24.4-16.55,29.15,3.46,5.39,14.71,12.4,36.79,4.91s19-21.47,14.18-27.62C131.31,155.32,117.3,150.28,102.69,156.32Z" transform="translate(0 0)"/><polyline points="137.92 173.17 164.64 63.73 165.01 62.39 140.85 173.81"/><path d="M918.84,53.55a936.61,936.61,0,0,1-169.11,58.29,956.9,956.9,0,0,1-177.09,25.48,929.8,929.8,0,0,1-178.88-8.2,863.78,863.78,0,0,1-86.57-17.07c-30.71-7.71-60.72-17.78-91.23-26.2C160.06,70.41,96,58.56,40.72,82.91A141,141,0,0,0,23.45,92c.16-.1,7.31,2.24,8.21,2.4,2.13.37,6.51,1.79,8.53.55C64.89,79.78,93.8,73.23,122.6,72.68c30.94-.58,60.9,6.47,90.46,15,29.88,8.6,59.45,18.13,89.66,25.56q44.11,10.86,89.1,17.62a983.1,983.1,0,0,0,177.55,10.72A968.33,968.33,0,0,0,745.24,120,939.16,939.16,0,0,0,914.82,65.86Q924.92,61.53,934.9,57c1.15-.53-5.18-2.07-5.65-2.17-2.48-.51-7.88-2.32-10.41-1.17Z" transform="translate(0 0)"/><path d="M18.9,37.74C50.84,26.1,83.62,14,117.9,12.2s68.68,7.63,101.36,16.85q28.53,8,56.41,18.11a49.1,49.1,0,0,0,11.44,2.3c.82.08,6.27.37,3.22-.73a846.52,846.52,0,0,0-112.17-32c-19.06-4-38.43-7.35-57.93-8.06A207.36,207.36,0,0,0,64.8,14.54C43.67,19.54,23.22,27,2.8,34.4c-1.14.42,5.2,2.07,5.65,2.16,2.71.57,7.63,2.19,10.41,1.18Z" transform="translate(0 0)"/></g></svg>