<?xml version="1.0" encoding="UTF-8" standalone="no"?><!-- Generator: Gravit.io --><svg xmlns="http://www.w3.org/2000/svg" xmlns:xlink="http://www.w3.org/1999/xlink" style="isolation:isolate" viewBox="292 19.667 166 206" width="166pt" height="206pt"><defs><clipPath id="_clipPath_894UHUG9rScRyXw1oAkzppGgBE5fCT79"><rect width="750" height="500"/></clipPath></defs><g clip-path="url(#_clipPath_894UHUG9rScRyXw1oAkzppGgBE5fCT79)"><clipPath id="_clipPath_ZfQaxAd0qLByB10wvRIVDXsT1HGP3OAh"><path d=" M 0 0 L 0 500 L 750 500 L 750 0 L 0 0 Z " fill="rgb(255,255,255)"/></clipPath><g clip-path="url(#_clipPath_ZfQaxAd0qLByB10wvRIVDXsT1HGP3OAh)"><path d=" M 457.19 470.99 L 292.81 470.99 L 297.1 443.93 C 299.07 431.46 307.88 421.15 319.89 417.26 L 340.19 410.67 C 344.2 409.37 347.77 407.21 350.7 404.42 C 353.54 401.72 355.79 398.43 357.28 394.77 C 358.31 392.22 358.97 389.5 359.2 386.66 L 359.63 381.42 L 375 382.11 L 390.37 381.42 L 390.8 386.66 C 391.35 393.35 394.29 399.45 398.86 403.99 C 399.8 404.92 400.8 405.78 401.86 406.56 C 404.23 408.33 406.9 409.72 409.81 410.67 L 430.11 417.26 C 442.12 421.15 450.93 431.46 452.9 443.93 L 457.19 470.99 Z " fill="rgb(158,94,86)"/><path d=" M 398.86 403.99 C 379.31 408.4 364.96 400.72 357.28 394.77 C 358.31 392.22 358.97 389.5 359.2 386.66 L 359.63 381.42 L 375 382.11 L 390.37 381.42 L 390.8 386.66 C 391.35 393.35 394.29 399.45 398.86 403.99 Z " fill="rgb(126,74,76)"/><path d=" M 317.938 332.794 C 319.687 327.266 327.081 324.674 334.452 327.006 C 341.824 329.338 346.382 335.71 344.633 341.239 C 342.884 346.768 335.49 349.359 328.119 347.027 C 320.747 344.695 316.189 338.323 317.938 332.794 Z " fill="rgb(126,74,76)"/><path d=" M 415.503 327.017 C 422.874 324.685 430.269 327.276 432.017 332.805 C 433.766 338.334 429.208 344.706 421.836 347.038 C 414.465 349.37 407.071 346.778 405.322 341.25 C 403.573 335.721 408.131 329.349 415.503 327.017 Z " fill="rgb(126,74,76)"/><path d=" M 330.06 342.1 C 331.408 342.1 332.5 343.192 332.5 344.54 C 332.5 345.888 331.408 346.98 330.06 346.98 C 328.712 346.98 327.62 345.888 327.62 344.54 C 327.62 343.192 328.712 342.1 330.06 342.1 Z " fill="rgb(88,158,195)"/><path d=" M 419.94 342.1 C 421.287 342.1 422.38 343.192 422.38 344.54 C 422.38 345.888 421.287 346.98 419.94 346.98 C 418.593 346.98 417.5 345.888 417.5 344.54 C 417.5 343.192 418.593 342.1 419.94 342.1 Z " fill="rgb(88,158,195)"/><path d=" M 332.5 330.64 C 332.5 300.26 338.09 280.72 375 279.51 C 409.23 278.39 417.5 300.26 417.5 330.64 C 417.5 361.02 398.47 389.51 375 389.51 C 351.53 389.51 332.5 361.02 332.5 330.64 Z " fill="rgb(158,94,86)"/><path d=" M 426.89 293.52 C 426.37 295.6 424.91 297.43 422.82 297.75 C 420.34 315.24 418.15 330.87 415.95 346.5 C 415.95 313.81 410.47 317.72 410.47 300.79 C 389.07 296.68 361.58 295.68 339.89 301.47 C 339.89 327.71 334.24 313.66 334.24 347 C 331.44 333.51 330.4 319.98 328.35 306.45 C 325.52 306.39 323.47 304.11 323.33 301.86 C 323.19 299.62 324.33 297.51 325.39 295.52 C 326.45 293.54 327.49 291.35 327.14 289.12 C 326.63 285.94 323.36 283.2 324.28 280.12 C 324.92 278.01 327.28 276.96 329.46 276.61 C 331.63 276.27 333.94 276.34 335.91 275.35 C 339.9 273.34 340.69 268.1 342.52 263.91 C 343.45 261.79 344.65 259.93 346.67 258.91 C 350.21 257.12 354.45 258.86 357.94 260.74 C 361.44 262.61 365.39 264.68 369.16 263.46 C 373.26 262.14 375.66 257.3 379.89 256.54 C 383.75 255.84 387.22 258.81 389.86 261.7 C 392.49 264.6 395.42 267.88 399.33 268.09 C 402.98 268.29 406.72 265.67 410.08 267.12 C 413.5 268.58 414.04 273.09 415.82 276.36 C 417.29 279.05 419.76 281.02 422.01 283.11 C 424.26 285.19 426.44 287.63 427 290.65 C 427.18 291.59 427.13 292.58 426.89 293.52 Z " fill="rgb(64,54,65)"/><path d=" M 426.89 293.52 C 426.1 292.15 425.12 290.87 424.06 289.77 C 420.44 286.03 415.81 283.23 412.89 278.92 C 411.46 276.81 410.29 274.2 407.9 273.31 C 404.67 272.1 401.24 274.7 397.8 274.59 C 391 274.39 387.55 264.27 380.75 264.48 C 376.07 264.63 372.89 269.78 368.27 270.54 C 362.27 271.53 357.85 265.06 352.14 262.97 C 348.99 261.82 345.45 262.31 342.52 263.91 C 343.45 261.79 344.65 259.93 346.67 258.91 C 350.21 257.12 354.45 258.86 357.94 260.74 C 361.44 262.61 365.39 264.68 369.16 263.46 C 373.26 262.14 375.66 257.3 379.89 256.54 C 383.75 255.84 387.22 258.81 389.86 261.7 C 392.49 264.6 395.42 267.88 399.33 268.09 C 402.98 268.29 406.72 265.67 410.08 267.12 C 413.5 268.58 414.04 273.09 415.82 276.36 C 417.29 279.05 419.76 281.02 422.01 283.11 C 424.26 285.19 426.44 287.63 427 290.65 C 427.18 291.59 427.13 292.58 426.89 293.52 Z " fill="rgb(82,68,84)"/><path d=" M 360.75 331.08 C 362.197 331.08 363.37 332.253 363.37 333.7 C 363.37 335.147 362.197 336.32 360.75 336.32 C 359.303 336.32 358.13 335.147 358.13 333.7 C 358.13 332.253 359.303 331.08 360.75 331.08 Z " fill="rgb(52,56,73)"/><path d=" M 389.25 331.08 C 390.697 331.08 391.87 332.253 391.87 333.7 C 391.87 335.147 390.697 336.32 389.25 336.32 C 387.803 336.32 386.63 335.147 386.63 333.7 C 386.63 332.253 387.803 331.08 389.25 331.08 Z " fill="rgb(52,56,73)"/><path d=" M 342.21 319.84 C 344.62 315.52 348.77 311.94 353.67 311.26 C 358.57 310.58 364.02 313.45 365.35 318.21 C 357.52 316.82 349.35 317.39 342.21 319.84 Z " fill="rgb(64,54,65)"/><path d=" M 408.22 320.61 C 406.09 316.15 402.17 312.31 397.33 311.33 C 392.49 310.35 386.86 312.86 385.24 317.53 C 393.13 316.63 401.24 317.7 408.22 320.61 Z " fill="rgb(64,54,65)"/><path d=" M 374.18 334.625 L 374.12 345.844 C 374.117 346.397 374.563 346.847 375.115 346.85 C 375.667 346.853 376.117 346.407 376.12 345.855 L 376.18 334.635 C 376.183 334.083 375.737 333.633 375.185 333.63 C 374.633 333.627 374.183 334.072 374.18 334.625 Z " fill="rgb(106,61,72)"/><path d=" M 362.394 355.268 C 365.613 358.569 369.925 360.756 374.478 361.41 C 375.457 361.55 376.444 361.619 377.432 361.619 C 381.039 361.618 384.646 360.699 387.808 358.932 C 388.29 358.663 388.463 358.054 388.193 357.572 C 387.924 357.09 387.315 356.917 386.832 357.187 C 383.98 358.781 380.698 359.62 377.432 359.619 C 376.537 359.619 375.645 359.556 374.762 359.43 C 370.655 358.844 366.727 356.851 363.826 353.872 C 363.44 353.477 362.807 353.469 362.412 353.854 C 362.016 354.24 362.008 354.873 362.394 355.268 Z " fill="rgb(106,61,72)"/><path d=" M 401.92 470.99 L 347.42 470.99 C 343.66 450.14 344.78 428.41 350.75 408.08 C 358.86 415.9 365.87 422.61 375 428.17 C 383.18 421.7 392.56 415.13 400.16 408.18 C 404.23 430.61 404.3 451.11 401.92 470.99 Z " fill="rgb(225,208,209)"/><path d=" M 352.78 403.37 C 360.51 411.17 367.89 419.31 375 428.22 C 366.86 425.58 357.52 426.96 350.5 431.84 C 350.22 427.11 349.17 422.46 348.92 417.73 C 348.67 413 349.32 408 352.78 403.37 Z " fill="rgb(247,233,233)"/><path d=" M 398.57 405.59 C 391.36 413.56 383.26 421.27 375 428.2 C 378.85 427.58 383.06 426.7 386.95 426.98 C 390.84 427.26 394.79 428.53 397.6 431.23 C 400.84 423.11 401.2 413.88 398.57 405.59 Z " fill="rgb(247,233,233)"/><path d=" M 363.45 470.99 L 292.81 470.99 L 295.5 454.03 L 297.1 443.93 C 299.07 431.46 307.88 421.15 319.89 417.26 L 340.19 410.67 C 344.2 409.37 347.77 407.21 350.7 404.42 C 354.51 423.56 358.26 443.34 362.01 463.27 C 362.49 465.84 362.97 468.42 363.45 470.99 Z " fill="rgb(124,96,109)"/><path d=" M 358.13 444.15 C 356.57 430.13 355.01 416.12 353.57 401.67 C 353.49 400.91 352.58 400.6 352.04 401.13 C 347.98 405.13 342.27 407.32 338.05 411.25 C 332.04 416.85 329.73 425.26 328.32 433.81 C 330.56 430.61 334.99 429.53 338.81 430.31 C 342.63 431.09 345.96 433.41 348.96 435.9 C 351.96 438.39 354.8 441.14 358.13 444.15 Z " fill="rgb(154,119,131)"/><path d=" M 362.01 463.27 C 362.49 465.84 362.97 468.42 363.45 470.99 L 292.81 470.99 L 295.5 454.03 C 316 462.54 339.38 463.82 362.01 463.27 Z " fill="rgb(109,87,98)"/><path d=" M 457.19 470.99 L 388.95 470.99 C 389.44 467.8 389.89 464.66 390.33 461.55 C 393.12 441.62 395.02 423.25 398.86 404.42 C 399.54 404.23 406.9 409.72 409.81 410.67 L 430.11 417.26 C 439.58 420.33 447.06 427.38 450.76 436.34 C 451.76 438.75 452.48 441.29 452.9 443.93 L 457.19 470.99 Z " fill="rgb(124,96,109)"/><path d=" M 392.35 444.15 C 393.91 430.13 395.47 416.12 396.91 401.67 C 396.99 400.91 397.9 400.6 398.44 401.13 C 402.5 405.13 408.21 407.32 412.43 411.25 C 418.44 416.85 420.75 425.26 422.16 433.81 C 419.92 430.61 415.49 429.53 411.67 430.31 C 407.85 431.09 404.52 433.41 401.52 435.9 C 398.52 438.39 395.67 441.14 392.35 444.15 Z " fill="rgb(154,119,131)"/><path d=" M 457.19 470.99 L 388.95 470.99 C 389.44 467.8 389.89 464.66 390.33 461.55 C 402.69 460.16 414.85 457.63 426.25 452.75 C 435.28 448.89 443.83 443.31 450.76 436.34 C 451.76 438.75 452.48 441.29 452.9 443.93 L 457.19 470.99 Z " fill="rgb(109,87,98)"/><path d=" M 143.5 128.17 C 135.3 129.17 128.16 135.51 126.63 143.14 C 126.23 145.15 126.16 147.29 125.09 149.07 C 123.82 151.2 121.4 152.43 119.4 153.99 C 113.15 158.86 111.14 167.93 114.79 174.74 C 142.7 174.79 170.6 175.66 198.45 177.36 C 199.86 174.58 201.29 171.74 201.8 168.7 C 202.3 165.65 201.75 162.3 199.59 159.98 C 195.99 156.13 188.88 155.88 186.38 151.33 C 184.74 148.34 185.83 144.73 185.65 141.37 C 185.29 134.51 179.27 128.72 172.31 126.61 C 165.36 124.51 157.9 126.42 143.5 128.17 Z " fill="rgb(64,54,65)"/><path d=" M 134.9 130.47 C 130.43 130.3 126.98 134.4 125.15 138.48 C 123.32 142.56 122.23 147.16 119.07 150.32 C 116.8 152.58 113.68 153.84 111.38 156.07 C 108.77 158.6 107.41 162.22 107.05 165.83 C 106.69 169.44 107.25 173.09 108.02 176.64 C 107.82 170.63 107.81 164.03 111.62 159.37 C 114.51 155.83 119.16 154.05 121.94 150.43 C 123.81 147.98 124.66 144.9 126.25 142.25 C 127.84 139.6 130.7 137.24 133.73 137.84 C 134.41 135.38 135.08 132.92 134.9 130.47 Z " fill="rgb(64,54,65)"/><path d=" M 237.68 224.97 L 73.29 224.97 L 77.58 197.91 C 78.28 193.5 79.84 189.36 82.09 185.68 C 86.19 178.95 92.62 173.75 100.38 171.24 L 120.67 164.65 C 130.02 161.62 136.95 153.9 139.09 144.5 C 139.38 143.24 139.58 141.95 139.69 140.64 L 140.12 135.4 L 155.48 136.09 L 170.85 135.4 L 171.28 140.64 C 171.61 144.67 172.81 148.48 174.71 151.86 C 178.04 157.82 183.53 162.46 190.29 164.65 L 210.59 171.24 C 219.06 173.98 225.94 179.92 229.95 187.56 C 231.63 190.75 232.81 194.24 233.39 197.91 L 237.68 224.97 Z " fill="rgb(158,94,86)"/><path d=" M 174.71 151.86 C 157.73 153.86 146.08 149.11 139.09 144.5 C 139.38 143.24 139.58 141.95 139.69 140.64 L 140.12 135.4 L 155.48 136.09 L 170.85 135.4 L 171.28 140.64 C 171.61 144.67 172.81 148.48 174.71 151.86 Z " fill="rgb(126,74,76)"/><path d=" M 237.68 224.97 L 73.29 224.97 L 77.58 197.91 C 78.28 193.5 79.84 189.36 82.09 185.68 C 129.35 200.04 180.6 200.98 229.95 187.56 C 231.63 190.75 232.81 194.24 233.39 197.91 L 237.68 224.97 Z " fill="rgb(232,142,99)"/><path d=" M 146.17 197.49 C 146.17 206.583 146 214.524 146 224.28 L 147 224.28 C 147 214.536 147.17 206.597 147.17 197.49 L 146.17 197.49 Z " fill="rgb(137,75,68)"/><path d=" M 151.84 200.84 C 153.287 200.84 154.46 202.013 154.46 203.46 C 154.46 204.907 153.287 206.08 151.84 206.08 C 150.393 206.08 149.22 204.907 149.22 203.46 C 149.22 202.013 150.393 200.84 151.84 200.84 Z " fill="rgb(245,200,158)"/><path d=" M 151.84 216.09 C 153.287 216.09 154.46 217.263 154.46 218.71 C 154.46 220.157 153.287 221.33 151.84 221.33 C 150.393 221.33 149.22 220.157 149.22 218.71 C 149.22 217.263 150.393 216.09 151.84 216.09 Z " fill="rgb(245,200,158)"/><path d=" M 92.79 173.68 C 132.99 188.61 178.38 189.12 219.03 174.9 C 222.99 174.55 227.07 176.24 229.62 179.28 C 232.17 182.32 233.13 186.63 232.43 190.87 C 182.4 203.25 129.16 202.42 79.84 188.28 C 80.03 184.41 81.77 180.65 84.59 177.99 C 87.41 175.35 91.37 173.15 92.79 173.68 Z " fill="rgb(246,166,116)"/><path d=" M 112.98 84.62 C 112.98 54.24 132.01 33.49 155.48 33.49 C 178.95 33.49 197.98 54.24 197.98 84.62 C 197.98 115 178.95 143.49 155.48 143.49 C 132.01 143.49 112.98 114.99 112.98 84.62 Z " fill="rgb(158,94,86)"/><path d=" M 140.2 92.61 C 141.647 92.61 142.82 93.783 142.82 95.23 C 142.82 96.677 141.647 97.85 140.2 97.85 C 138.753 97.85 137.58 96.677 137.58 95.23 C 137.58 93.783 138.753 92.61 140.2 92.61 Z " fill="rgb(52,56,73)"/><path d=" M 168.7 92.61 C 170.147 92.61 171.32 93.783 171.32 95.23 C 171.32 96.677 170.147 97.85 168.7 97.85 C 167.253 97.85 166.08 96.677 166.08 95.23 C 166.08 93.783 167.253 92.61 168.7 92.61 Z " fill="rgb(52,56,73)"/><path d=" M 136.54 110.87 C 128.615 110.87 122.19 104.445 122.19 96.52 C 122.19 88.595 128.615 82.17 136.54 82.17 C 144.465 82.17 150.89 88.595 150.89 96.52 C 150.89 104.445 144.465 110.87 136.54 110.87 Z  M 140.2 92.61 C 138.753 92.61 137.58 93.783 137.58 95.23 C 137.58 96.677 138.753 97.85 140.2 97.85 C 141.647 97.85 142.82 96.677 142.82 95.23 C 142.82 93.783 141.647 92.61 140.2 92.61 Z " fill="rgb(181,128,122)"/><path d=" M 140.2 97.85 C 138.753 97.85 137.58 96.677 137.58 95.23 C 137.58 93.783 138.753 92.61 140.2 92.61 C 141.647 92.61 142.82 93.783 142.82 95.23 C 142.82 96.677 141.647 97.85 140.2 97.85 Z " fill="rgb(102,102,116)"/><path d=" M 136.54 82.17 L 136.54 83.67 C 140.093 83.671 143.296 85.106 145.626 87.434 C 147.954 89.764 149.389 92.967 149.39 96.52 C 149.389 100.073 147.954 103.276 145.626 105.606 C 143.296 107.934 140.093 109.369 136.54 109.37 C 132.987 109.369 129.784 107.934 127.454 105.606 C 125.126 103.276 123.691 100.073 123.69 96.52 C 123.691 92.967 125.126 89.764 127.454 87.434 C 129.784 85.106 132.987 83.671 136.54 83.67 L 136.54 82.17 L 136.54 80.67 C 127.786 80.671 120.691 87.766 120.69 96.52 C 120.691 105.274 127.786 112.369 136.54 112.37 C 145.294 112.369 152.389 105.274 152.39 96.52 C 152.389 87.766 145.294 80.671 136.54 80.67 L 136.54 82.17 Z " fill="rgb(99,170,204)"/><path d=" M 174.42 110.87 C 166.495 110.87 160.07 104.445 160.07 96.52 C 160.07 88.595 166.495 82.17 174.42 82.17 C 182.345 82.17 188.77 88.595 188.77 96.52 C 188.77 104.445 182.345 110.87 174.42 110.87 Z  M 168.7 92.61 C 167.253 92.61 166.08 93.783 166.08 95.23 C 166.08 96.677 167.253 97.85 168.7 97.85 C 170.147 97.85 171.32 96.677 171.32 95.23 C 171.32 93.783 170.147 92.61 168.7 92.61 Z " fill="rgb(181,128,122)"/><path d=" M 168.7 97.85 C 167.253 97.85 166.08 96.677 166.08 95.23 C 166.08 93.783 167.253 92.61 168.7 92.61 C 170.147 92.61 171.32 93.783 171.32 95.23 C 171.32 96.677 170.147 97.85 168.7 97.85 Z " fill="rgb(102,102,116)"/><path d=" M 174.42 82.17 L 174.42 83.67 C 177.973 83.671 181.176 85.106 183.506 87.434 C 185.834 89.764 187.269 92.967 187.27 96.52 C 187.269 100.073 185.834 103.276 183.506 105.606 C 181.176 107.934 177.973 109.369 174.42 109.37 C 170.867 109.369 167.664 107.934 165.334 105.606 C 163.006 103.276 161.571 100.073 161.57 96.52 C 161.571 92.967 163.006 89.764 165.334 87.434 C 167.664 85.106 170.867 83.671 174.42 83.67 L 174.42 82.17 L 174.42 80.67 C 165.666 80.671 158.571 87.766 158.57 96.52 C 158.571 105.274 165.666 112.369 174.42 112.37 C 183.174 112.369 190.269 105.274 190.27 96.52 C 190.269 87.766 183.174 80.671 174.42 80.67 L 174.42 82.17 Z " fill="rgb(99,170,204)"/><path d=" M 148.662 87.928 L 148.192 87.486 L 148.656 87.934 L 148.662 87.928 L 148.192 87.486 L 148.656 87.934 C 148.664 87.925 149.266 87.31 150.316 86.719 C 151.369 86.125 152.85 85.558 154.687 85.558 C 156.743 85.564 159.31 86.246 162.408 88.653 L 164.252 86.287 C 160.741 83.54 157.449 82.552 154.687 82.558 C 152.141 82.558 150.099 83.374 148.709 84.182 C 147.315 84.992 146.549 85.797 146.477 85.872 L 148.662 87.928 Z " fill="rgb(99,170,204)"/><path d=" M 188.675 95.218 L 193.425 96.038 C 194.241 96.179 195.017 95.632 195.158 94.815 C 195.299 93.999 194.752 93.223 193.935 93.082 L 189.185 92.262 C 188.369 92.121 187.593 92.669 187.452 93.485 C 187.311 94.302 187.859 95.077 188.675 95.218 Z " fill="rgb(99,170,204)"/><path d=" M 121.699 92.258 L 116.449 93.078 C 115.63 93.206 115.07 93.973 115.198 94.791 C 115.326 95.61 116.093 96.17 116.912 96.042 L 122.162 95.222 C 122.98 95.094 123.54 94.327 123.412 93.509 C 123.284 92.69 122.517 92.13 121.699 92.258 Z " fill="rgb(99,170,204)"/><path d=" M 186.42 83.29 C 184.71 78.99 180.69 75.69 176.13 74.86 C 171.57 74.03 166.64 75.7 163.51 79.61 C 170.76 77.85 178.7 79.17 186.42 83.29 Z " fill="rgb(64,54,65)"/><path d=" M 123.97 83.13 C 125.68 78.83 129.7 75.53 134.26 74.7 C 138.81 73.87 143.75 75.54 146.88 79.45 C 139.63 77.69 131.69 79.01 123.97 83.13 Z " fill="rgb(64,54,65)"/><path d=" M 154.27 103.681 L 154.18 113.431 C 154.175 113.983 154.619 114.435 155.171 114.44 C 155.723 114.445 156.175 114.001 156.18 113.449 L 156.27 103.699 C 156.275 103.147 155.831 102.695 155.279 102.69 C 154.727 102.685 154.275 103.128 154.27 103.681 Z " fill="rgb(106,61,72)"/><path d=" M 143.911 121.113 C 147.265 124.128 151.733 125.828 156.244 125.831 L 156.409 125.83 L 156.43 125.83 L 156.409 125.83 C 160.977 125.785 165.474 123.985 168.805 120.859 C 169.207 120.481 169.227 119.848 168.849 119.445 C 168.471 119.043 167.838 119.023 167.435 119.401 C 164.486 122.175 160.443 123.795 156.391 123.83 L 156.369 123.83 L 156.391 123.83 L 156.244 123.831 C 152.238 123.833 148.217 122.302 145.249 119.627 C 144.839 119.257 144.206 119.291 143.837 119.701 C 143.467 120.112 143.501 120.744 143.911 121.113 Z " fill="rgb(106,61,72)"/><path d=" M 184.05 127.86 C 214.79 47 159.46 79.99 153.66 47.41 C 149.54 74.98 93.05 52.75 126.28 126.65 C 99.46 119.13 97.04 98.74 102.23 68.19 C 104.83 52.87 111.31 40.21 120.05 32.53 C 129.37 24.33 141.27 21.82 153.75 27.84 C 179.85 15.51 199.86 31.63 207.7 68.06 C 208.64 72.43 209.27 76.58 209.6 80.53 C 211.67 105.27 202.05 121.69 184.05 127.86 Z " fill="rgb(64,54,65)"/><path d=" M 209.6 80.53 C 205.88 68.61 202.51 55.24 193.05 45.01 C 182.87 34 165.93 25.62 154.02 33.49 C 143.24 27.73 130.86 28.38 120.05 32.53 C 129.37 24.33 141.27 21.82 153.75 27.84 C 179.85 15.51 199.86 31.63 207.7 68.06 C 208.64 72.43 209.27 76.58 209.6 80.53 Z " fill="rgb(82,68,84)"/><path d=" M 645.54 105.53 C 642.481 115.1 635.28 122.83 627.29 128.93 C 618.58 135.59 608.54 140.76 597.73 142.57 C 586.92 144.39 575.01 143.22 563.42 137.14 C 553.07 131.7 546.11 120.33 545.99 108.64 C 545.9 99.83 549.349 90.75 546.52 82.41 C 544.94 69.02 547.13 54.43 555.34 43.6 C 558.5 39.45 562.62 35.98 567.28 33.61 C 574.76 29.82 583.65 28.87 592.19 32.49 C 597.97 27.02 607.05 25.96 614.54 28.63 C 622.03 31.3 628.03 37.22 632.24 43.97 C 636.09 50.14 638.6 57.02 640.89 63.93 C 641.11 64.59 641.33 65.24 641.54 65.89 C 645.74 78.73 649.65 92.66 645.54 105.53 Z " fill="rgb(252,216,187)"/><path d=" M 676.71 224.97 L 512.32 224.97 L 514.97 208.24 L 516.61 197.91 C 518.59 185.44 527.4 175.13 539.41 171.24 L 558.95 164.89 L 559.7 164.65 C 568.79 161.7 575.6 154.32 577.93 145.27 C 578.33 143.77 578.59 142.22 578.72 140.64 L 579.15 135.4 L 594.51 136.09 L 609.88 135.4 L 610.31 140.64 C 610.68 145.16 612.14 149.41 614.45 153.08 C 617.35 157.67 621.56 161.38 626.66 163.62 C 627.52 164.01 628.41 164.35 629.32 164.65 L 649.62 171.24 C 661.63 175.13 670.44 185.44 672.42 197.91 L 674.61 211.72 L 676.71 224.97 Z " fill="rgb(247,169,151)"/><path d=" M 614.45 153.08 C 596.62 156.3 584.69 150.51 577.93 145.27 C 578.33 143.77 578.59 142.22 578.72 140.64 L 579.15 135.4 L 594.51 136.09 L 609.88 135.4 L 610.31 140.64 C 610.68 145.16 612.14 149.41 614.45 153.08 Z " fill="rgb(237,140,135)"/><path d=" M 674.61 211.72 C 667.5 213.12 661.42 214.22 653.43 215.9 C 653.43 220.01 653.38 222.75 653.32 224.97 L 535.83 224.97 C 535.56 222.1 535.29 219.23 535.02 216.36 C 528.24 213.31 521.59 210.71 514.97 208.24 L 516.61 197.91 C 518.59 185.44 527.4 175.13 539.41 171.24 L 555.07 166.15 L 558.95 164.89 C 565.89 175.7 578.39 182.92 591.44 183.2 C 605.31 183.5 618.91 175.92 626.66 163.62 C 627.52 164.01 628.41 164.35 629.32 164.65 L 631.99 165.52 L 649.62 171.24 C 661.63 175.13 670.44 185.44 672.42 197.91 L 674.61 211.72 Z " fill="rgb(88,158,195)"/><path d=" M 631.99 165.52 C 623.54 178.98 607.71 187.67 591.77 187.13 C 577.11 186.63 563.07 178.36 555.07 166.15 L 558.95 164.89 C 565.89 175.7 578.39 182.92 591.44 183.2 C 605.31 183.5 618.91 175.92 626.66 163.62 C 627.52 164.01 628.41 164.35 629.32 164.65 L 631.99 165.52 Z " fill="rgb(117,200,218)"/><path d=" M 564.35 133.84 C 560.63 138.06 559.77 144.58 562.28 149.61 C 557.29 150.42 553.29 155.25 553.41 160.3 C 549.59 161.01 546.16 163.54 544.35 166.98 C 542.54 170.42 542.41 174.68 543.99 178.23 C 539.61 182.48 539.2 190.16 543.08 195.1 C 546.81 195.78 550.85 194.48 553.49 191.75 C 556.13 189.02 557.29 184.94 556.48 181.23 C 562.01 179.27 565.43 172.68 563.85 167.03 C 567.71 166.42 570.61 162.26 569.9 158.48 C 575.82 154.86 579.22 147.51 578.13 140.66 C 573.48 138.6 568.94 136.24 564.35 133.84 Z " fill="rgb(252,216,187)"/><path d=" M 544.62 193.31 C 539.15 194.59 534.62 199.24 533.48 204.74 C 532.34 210.24 534.65 216.3 539.16 219.65 C 537.85 217.14 537.94 213.95 539.4 211.52 C 538.23 213.71 539.53 216.42 541.17 218.29 C 542.81 220.16 544.88 221.84 545.55 224.24 C 552.05 215.63 552.35 202.85 544.62 193.31 Z " fill="rgb(252,216,187)"/><path d=" M 537.452 93.476 C 539.201 87.947 546.595 85.356 553.967 87.688 C 561.338 90.02 565.896 96.392 564.147 101.921 C 562.398 107.45 555.005 110.041 547.633 107.709 C 540.262 105.377 535.703 99.005 537.452 93.476 Z " fill="rgb(237,140,135)"/><path d=" M 635.024 87.7 C 642.396 85.368 649.79 87.959 651.539 93.488 C 653.288 99.017 648.73 105.389 641.358 107.721 C 633.986 110.053 626.593 107.461 624.844 101.933 C 623.095 96.404 627.653 90.032 635.024 87.7 Z " fill="rgb(237,140,135)"/><path d=" M 552.01 84.62 C 552.01 54.24 571.04 33.49 594.51 33.49 C 617.979 33.49 637.01 54.24 637.01 84.62 C 637.01 115 617.979 143.49 594.51 143.49 C 571.04 143.49 552.01 114.99 552.01 84.62 Z " fill="rgb(247,169,151)"/><path d=" M 635.72 97.31 C 636.97 86.59 634.26 75.78 628.28 67.18 C 611.95 65.65 597.04 55.35 592.6 39.53 C 592.41 40.96 592.14 42.28 591.78 43.52 C 589.48 53.62 583.5 63.01 574.95 69.71 C 569.82 73.72 563.51 77.19 561.34 83.04 C 561.02 79.8 562.33 76.72 564.32 73.98 C 563.599 74.75 562.89 75.54 562.21 76.35 C 556.96 82.59 551.97 91.3 553.51 99.31 C 548.62 88.04 548.16 75.58 550.57 64.14 C 552.97 52.7 559.95 41.85 570.46 36.73 C 577.09 33.51 584.599 32.72 591.95 32.15 C 597.98 31.68 604.17 31.34 610 32.99 C 617.67 35.16 624.06 40.65 628.77 47.08 C 639.17 61.3 641.87 80.81 635.72 97.31 Z " fill="rgb(252,216,187)"/><path d=" M 640.89 63.93 C 637.86 58.914 634.556 54.095 630.642 49.827 C 630.049 48.892 629.425 47.976 628.77 47.08 C 624.06 40.65 617.67 35.16 610 32.99 C 606.721 32.062 603.329 31.764 599.916 31.764 C 597.483 31.764 595.039 31.915 592.618 32.099 C 596.351 28.794 601.342 27.226 606.374 27.226 C 609.152 27.226 611.941 27.704 614.54 28.63 C 622.03 31.3 628.03 37.22 632.24 43.97 C 636.09 50.14 638.6 57.02 640.89 63.93 Z  M 567.28 33.61 C 571.534 31.454 576.244 30.218 581.086 30.218 C 584.514 30.218 588.007 30.837 591.452 32.189 C 587.707 32.485 583.926 32.851 580.247 33.578 C 578.144 33.231 576.01 33.059 573.874 33.059 C 571.667 33.059 569.459 33.243 567.28 33.61 Z " fill="rgb(253,227,204)"/><path d=" M 630.642 49.827 C 629.117 48.164 627.5 46.585 625.77 45.11 C 619.05 39.376 610.203 35.505 601.527 35.505 C 598.143 35.505 594.786 36.094 591.59 37.39 C 588.049 35.497 584.202 34.23 580.247 33.578 C 583.926 32.851 587.707 32.485 591.452 32.189 C 591.699 32.286 591.944 32.386 592.19 32.49 C 592.331 32.357 592.474 32.227 592.618 32.099 C 595.039 31.915 597.483 31.764 599.916 31.764 C 603.329 31.764 606.721 32.062 610 32.99 C 617.67 35.16 624.06 40.65 628.77 47.08 C 629.425 47.976 630.049 48.892 630.642 49.827 Z " fill="rgb(253,227,204)"/><path d=" M 579.11 90.1 C 580.557 90.1 581.73 91.273 581.73 92.72 C 581.73 94.167 580.557 95.34 579.11 95.34 C 577.663 95.34 576.49 94.167 576.49 92.72 C 576.49 91.273 577.663 90.1 579.11 90.1 Z " fill="rgb(52,56,73)"/><path d=" M 607.61 90.1 C 609.057 90.1 610.23 91.273 610.23 92.72 C 610.23 94.167 609.057 95.34 607.61 95.34 C 606.163 95.34 604.99 94.167 604.99 92.72 C 604.99 91.273 606.163 90.1 607.61 90.1 Z " fill="rgb(52,56,73)"/><path d=" M 604.16 78.58 C 606.13 74.75 611 73.04 615.24 73.82 C 619.48 74.6 623.08 77.43 625.85 80.73 C 618.9 78.89 611.66 78.18 604.16 78.58 Z " fill="rgb(252,216,187)"/><path d=" M 585.42 78.58 C 583.45 74.75 578.58 73.04 574.34 73.82 C 570.1 74.6 566.5 77.43 563.73 80.73 C 570.68 78.89 577.92 78.18 585.42 78.58 Z " fill="rgb(252,216,187)"/><path d=" M 591.77 95.355 L 591.7 108.355 C 591.697 108.907 592.143 109.357 592.695 109.36 C 593.247 109.363 593.697 108.917 593.7 108.365 L 593.769 95.365 C 593.772 94.813 593.327 94.363 592.775 94.36 C 592.223 94.357 591.772 94.802 591.77 95.355 Z " fill="rgb(178,93,91)"/><path d=" M 582.675 116.899 C 586.103 118.372 589.823 119.102 593.542 119.102 C 597.696 119.102 601.853 118.191 605.606 116.37 C 606.103 116.129 606.311 115.53 606.069 115.034 C 605.828 114.537 605.23 114.329 604.733 114.571 C 601.268 116.253 597.404 117.103 593.542 117.102 C 590.084 117.102 586.63 116.422 583.465 115.061 C 582.958 114.843 582.37 115.078 582.152 115.585 C 581.933 116.092 582.168 116.681 582.675 116.899 Z " fill="rgb(178,93,91)"/><path d=" M 568.34 100.45 C 569.268 100.45 570.02 101.202 570.02 102.13 C 570.02 103.058 569.268 103.81 568.34 103.81 C 567.412 103.81 566.66 103.058 566.66 102.13 C 566.66 101.202 567.412 100.45 568.34 100.45 Z " fill="rgb(237,140,135)"/><path d=" M 575.1 103.81 C 575.686 103.81 576.16 104.285 576.16 104.87 C 576.16 105.456 575.686 105.93 575.1 105.93 C 574.515 105.93 574.04 105.456 574.04 104.87 C 574.04 104.285 574.515 103.81 575.1 103.81 Z " fill="rgb(237,140,135)"/><path d=" M 570.22 108.05 C 571.016 108.05 571.66 108.695 571.66 109.49 C 571.66 110.285 571.016 110.93 570.22 110.93 C 569.425 110.93 568.78 110.285 568.78 109.49 C 568.78 108.695 569.425 108.05 570.22 108.05 Z " fill="rgb(237,140,135)"/><path d=" M 619.79 100.45 C 620.718 100.45 621.47 101.202 621.47 102.13 C 621.47 103.058 620.718 103.81 619.79 103.81 C 618.862 103.81 618.11 103.058 618.11 102.13 C 618.11 101.202 618.862 100.45 619.79 100.45 Z " fill="rgb(237,140,135)"/><path d=" M 613.03 103.81 C 613.615 103.81 614.09 104.285 614.09 104.87 C 614.09 105.456 613.615 105.93 613.03 105.93 C 612.444 105.93 611.97 105.456 611.97 104.87 C 611.97 104.285 612.444 103.81 613.03 103.81 Z " fill="rgb(237,140,135)"/><path d=" M 617.9 108.05 C 618.695 108.05 619.34 108.695 619.34 109.49 C 619.34 110.285 618.695 110.93 617.9 110.93 C 617.104 110.93 616.46 110.285 616.46 109.49 C 616.46 108.695 617.104 108.05 617.9 108.05 Z " fill="rgb(237,140,135)"/><path d=" M 213.59 376.51 C 209.83 380.88 203.41 383.17 197.44 382.26 C 193.77 394.22 179.17 402.35 159.69 396.93 C 147.84 397.2 135.59 397.4 124.62 393.26 C 113.64 389.12 104.21 379.43 104.86 368.51 C 99.77 369.19 94.4 366.01 92.96 361.45 C 96.85 362.85 101.39 360.37 103.26 356.93 C 105.13 353.49 104.96 349.43 104.46 345.61 C 103.84 340.95 102.79 336.32 101.73 331.69 C 99.81 323.32 97.9 314.97 98.59 306.48 C 100.13 287.45 117.29 270.69 137.45 266.41 C 154.3 262.83 172.87 264.36 184.61 274.27 C 186.92 276.21 188.96 278.48 190.68 281.1 C 231.77 281.1 207.7 350.71 205.41 360.44 C 204.61 363.83 204.06 367.43 205.24 370.72 C 206.43 374.01 209.85 376.85 213.59 376.51 Z " fill="rgb(242,120,104)"/><path d=" M 184.61 274.27 C 169.13 268.56 151.72 267.93 136.43 273.97 C 117.93 281.26 103.37 298.9 101.75 318.71 C 101.4 322.99 101.61 327.35 101.73 331.69 C 99.81 323.32 97.9 314.97 98.59 306.48 C 100.13 287.45 117.29 270.69 137.45 266.41 C 154.3 262.83 172.87 264.36 184.61 274.27 Z " fill="rgb(245,151,127)"/><path d=" M 237.68 470.99 L 73.29 470.99 L 77.58 443.93 C 79.56 431.46 88.37 421.15 100.38 417.26 L 120.67 410.67 C 121.78 410.31 122.85 409.89 123.88 409.4 C 130.77 406.17 135.99 400.26 138.36 393.12 C 139.06 391.06 139.51 388.89 139.69 386.66 L 140.12 381.42 L 155.48 382.11 L 170.85 381.42 L 171.28 386.66 C 171.77 392.59 174.14 398.05 177.85 402.38 C 180.36 405.31 183.48 407.71 187.05 409.38 C 188.09 409.88 189.17 410.31 190.29 410.67 L 210.59 417.26 C 222.6 421.15 231.41 431.46 233.39 443.93 L 237.68 470.99 Z " fill="rgb(247,169,151)"/><path d=" M 177.85 402.38 C 161.09 406.02 146.58 398.76 138.36 393.12 C 139.06 391.06 139.51 388.89 139.69 386.66 L 140.12 381.42 L 155.48 382.11 L 170.85 381.42 L 171.28 386.66 C 171.77 392.59 174.14 398.05 177.85 402.38 Z " fill="rgb(237,140,135)"/><path d=" M 237.68 470.99 L 73.29 470.99 L 77.58 443.93 C 79.56 431.46 88.37 421.15 100.38 417.26 L 120.67 410.67 C 121.78 410.31 122.85 409.89 123.88 409.4 C 131.78 417.79 143.1 422.96 154.65 423.18 C 166.74 423.4 178.79 418.18 187.05 409.38 C 188.09 409.88 189.17 410.31 190.29 410.67 L 210.59 417.26 C 222.6 421.15 231.41 431.46 233.39 443.93 L 237.68 470.99 Z " fill="rgb(250,231,231)"/><path d=" M 212.19 470.99 L 99.03 470.99 C 100.53 465.56 102.47 460.2 104.98 454.51 C 138.65 454.51 169.26 454.5 204.31 455.17 C 206.33 460.08 209.43 465.64 212.19 470.99 Z " fill="rgb(88,158,195)"/><path d=" M 105.65 471.089 C 106.421 467.265 107.152 463.441 107.832 459.628 L 107.34 459.54 L 107.317 460.039 C 122.117 460.715 136.935 461.05 151.808 461.05 C 166.906 461.05 182.061 460.705 197.312 460.019 L 197.29 459.52 L 196.859 459.773 C 199.109 463.593 201.348 467.413 203.588 471.243 C 203.728 471.481 204.034 471.561 204.272 471.422 C 204.511 471.282 204.591 470.976 204.452 470.738 C 202.211 466.907 199.971 463.087 197.721 459.266 L 197.568 459.006 L 197.268 459.02 C 182.031 459.705 166.891 460.05 151.808 460.05 C 136.95 460.05 122.148 459.715 107.363 459.041 L 106.925 459.021 L 106.848 459.452 C 106.169 463.258 105.439 467.074 104.67 470.891 C 104.615 471.162 104.791 471.426 105.061 471.48 C 105.332 471.535 105.596 471.36 105.65 471.089 Z " fill="rgb(76,124,173)"/><path d=" M 114.59 462.24 L 115.046 462.444 C 117.002 458.063 118.948 453.277 120.318 448.817 L 120.318 448.816 C 120.379 448.616 120.408 448.414 120.408 448.217 C 120.407 447.115 119.512 446.187 118.367 446.184 L 118.173 446.193 L 118.174 446.193 C 113.528 446.623 109.163 447.114 104.961 447.614 L 104.963 447.614 C 103.886 447.741 103.159 448.658 103.161 449.649 C 103.161 449.931 103.22 450.221 103.344 450.496 L 103.345 450.497 C 105.531 455.303 108.086 459.374 111.725 463.052 L 111.724 463.051 C 112.126 463.46 112.657 463.657 113.171 463.656 C 113.934 463.658 114.698 463.227 115.047 462.443 L 115.055 462.426 L 115.046 462.444 L 114.59 462.24 L 114.133 462.037 C 113.955 462.438 113.571 462.654 113.171 462.656 C 112.903 462.655 112.645 462.559 112.436 462.349 L 112.436 462.349 C 108.894 458.767 106.41 454.817 104.255 450.083 L 104.255 450.084 C 104.19 449.939 104.161 449.793 104.161 449.649 C 104.163 449.137 104.533 448.667 105.077 448.607 L 105.079 448.607 C 109.277 448.107 113.632 447.617 118.266 447.188 L 118.267 447.188 L 118.367 447.184 C 118.948 447.185 119.407 447.667 119.408 448.217 C 119.408 448.316 119.394 448.419 119.362 448.524 L 119.362 448.523 C 118.012 452.922 116.079 457.678 114.133 462.036 L 114.129 462.045 L 114.133 462.037 L 114.59 462.24 Z " fill="rgb(62,84,104)"/><path d=" M 112.98 456.22 C 115.195 456.22 116.99 458.016 116.99 460.23 C 116.99 462.444 115.195 464.24 112.98 464.24 C 110.765 464.24 108.97 462.444 108.97 460.23 C 108.97 458.016 110.765 456.22 112.98 456.22 Z " fill="rgb(248,167,106)"/><path d=" M 193.98 463.24 L 194.437 463.036 C 192.491 458.678 190.558 453.922 189.208 449.523 C 189.176 449.419 189.162 449.317 189.162 449.218 C 189.163 448.667 189.622 448.185 190.203 448.184 L 190.303 448.188 L 190.304 448.188 C 194.938 448.617 199.293 449.107 203.491 449.607 L 203.492 449.607 C 204.036 449.667 204.407 450.137 204.409 450.649 C 204.409 450.793 204.38 450.939 204.314 451.084 C 202.161 455.817 199.676 459.767 196.135 463.349 C 195.926 463.559 195.667 463.655 195.399 463.656 C 194.999 463.654 194.615 463.438 194.437 463.037 L 193.98 463.24 L 193.523 463.443 C 193.871 464.227 194.636 464.658 195.399 464.656 C 195.913 464.657 196.444 464.46 196.846 464.052 C 200.484 460.374 203.04 456.303 205.225 451.497 C 205.35 451.221 205.409 450.931 205.409 450.649 C 205.411 449.658 204.683 448.74 203.607 448.614 L 203.609 448.614 C 199.407 448.114 195.042 447.623 190.396 447.193 L 190.397 447.193 L 190.203 447.184 C 189.058 447.187 188.163 448.116 188.162 449.218 C 188.162 449.415 188.191 449.616 188.252 449.816 C 189.621 454.277 191.568 459.063 193.523 463.444 L 193.98 463.24 Z " fill="rgb(62,84,104)"/><path d=" M 195.59 457.22 C 197.805 457.22 199.6 459.016 199.6 461.23 C 199.6 463.444 197.805 465.24 195.59 465.24 C 193.375 465.24 191.58 463.444 191.58 461.23 C 191.58 459.016 193.375 457.22 195.59 457.22 Z " fill="rgb(248,167,106)"/><path d=" M 189.96 448.9 C 194.64 449.68 199.32 450.45 203.93 451.41 C 206.27 439.96 208.61 428.52 211.19 417.2 C 207.65 415.23 203.71 413.99 199.61 413.25 C 196.6 424.94 193.59 436.64 189.96 448.9 Z " fill="rgb(88,158,195)"/><path d=" M 200.887 413.912 C 197.755 425.709 195.874 433.761 192.866 445.486 L 192.735 445.997 L 193.252 446.101 C 196.252 446.7 199.248 447.299 202.893 448.099 L 203.383 448.206 L 203.489 447.715 C 205.988 436.067 207.74 428.152 210.031 416.456 L 209.049 416.264 C 206.76 427.948 205.012 435.853 202.511 447.505 L 203 447.61 L 203.107 447.122 C 199.452 446.32 196.448 445.72 193.448 445.12 L 193.35 445.61 L 193.834 445.735 C 196.846 433.998 198.725 425.951 201.853 414.168 L 200.887 413.912 Z " fill="rgb(76,124,173)"/><path d=" M 104.9 450.06 C 109.39 449.67 113.87 449.28 118.46 448.91 C 116.43 436.85 114.4 424.79 112.49 412.91 C 108.2 413.31 103.99 414.54 99.91 416.25 C 100.46 427.55 102.1 438.8 104.9 450.06 Z " fill="rgb(88,158,195)"/><path d=" M 101.444 415.605 C 102.984 427.324 104.024 435.554 105.564 447.275 L 105.627 447.751 L 106.105 447.708 C 109.434 447.408 112.764 447.118 116.085 446.818 L 116.648 446.767 L 116.529 446.214 C 115.203 440.096 113.879 431.863 112.881 425.166 C 112.382 421.817 111.964 418.852 111.668 416.723 C 111.52 415.658 111.403 414.803 111.32 414.213 C 111.279 413.918 111.247 413.689 111.224 413.532 L 111.195 413.348 L 111.184 413.285 L 111.173 413.238 L 111.149 413.171 L 111.09 413.071 L 110.985 412.966 C 110.929 412.925 110.828 412.871 110.69 412.87 L 110.69 413.87 L 110.69 413.37 L 110.396 413.774 C 110.451 413.815 110.552 413.87 110.69 413.87 L 110.69 413.37 L 110.396 413.774 L 110.689 413.371 L 110.251 413.609 C 110.272 413.639 110.285 413.687 110.396 413.774 L 110.689 413.371 L 110.251 413.609 L 110.68 413.377 L 110.213 413.519 L 110.251 413.609 L 110.68 413.377 L 110.213 413.519 L 110.578 413.408 L 110.204 413.486 L 110.213 413.519 L 110.578 413.408 L 110.204 413.486 C 110.205 413.486 110.225 413.611 110.25 413.788 C 110.647 416.537 113.087 435.047 115.551 446.426 L 116.04 446.32 L 115.995 445.822 C 112.676 446.122 109.346 446.412 106.015 446.712 L 106.06 447.21 L 106.556 447.145 C 105.016 435.426 103.976 427.196 102.436 415.475 L 101.444 415.605 Z " fill="rgb(76,124,173)"/><path d=" M 112.98 330.64 C 112.98 300.26 132.01 279.51 155.48 279.51 C 178.95 279.51 197.98 300.26 197.98 330.64 C 197.98 361.02 178.95 389.51 155.48 389.51 C 132.01 389.51 112.98 361.02 112.98 330.64 Z " fill="rgb(247,169,151)"/><path d=" M 116.04 365.71 C 112.97 351.37 116.12 336.35 119.25 322.03 C 125.62 312.17 135.22 303.75 145.92 298.07 C 142.56 302.34 139.47 306.28 136.37 310.22 C 152.45 310.67 168.61 305.99 182.7 297.51 C 184 308.05 188.54 318.01 195.06 325.65 C 197.48 339.07 197.69 353.01 195.69 366.52 C 198.72 349.71 201.74 332.45 199.46 315.48 C 198.79 310.5 197.63 305.51 195.3 301.26 C 192.97 297.01 192.34 288.03 187.35 287.05 C 180.8 279.29 169.49 278.92 160.39 276.39 C 151.29 273.86 141.41 274.78 133.01 279.56 C 120.07 286.93 111.76 302.85 109.46 319.36 C 107.16 335.87 110.22 352.86 116.04 365.71 Z " fill="rgb(242,120,104)"/><path d=" M 141.23 335.75 C 142.677 335.75 143.85 336.923 143.85 338.37 C 143.85 339.817 142.677 340.99 141.23 340.99 C 139.783 340.99 138.61 339.817 138.61 338.37 C 138.61 336.923 139.783 335.75 141.23 335.75 Z " fill="rgb(52,56,73)"/><path d=" M 169.73 335.75 C 171.177 335.75 172.35 336.923 172.35 338.37 C 172.35 339.817 171.177 340.99 169.73 340.99 C 168.283 340.99 167.11 339.817 167.11 338.37 C 167.11 336.923 168.283 335.75 169.73 335.75 Z " fill="rgb(52,56,73)"/><path d=" M 154.52 338.365 L 154.45 351.365 C 154.447 351.917 154.893 352.367 155.445 352.37 C 155.997 352.373 156.447 351.928 156.45 351.375 L 156.52 338.375 C 156.523 337.823 156.078 337.373 155.525 337.37 C 154.973 337.367 154.523 337.812 154.52 338.365 Z " fill="rgb(178,93,91)"/><path d=" M 122.27 324.9 C 124.15 320.08 129.04 316.58 134.22 316.37 C 139.39 316.16 144.55 319.25 146.81 323.91 C 139.06 320.91 130.12 321.09 122.27 324.9 Z " fill="rgb(242,120,104)"/><path d=" M 188.7 325.23 C 186.98 320.35 182.2 316.7 177.03 316.33 C 171.87 315.96 166.61 318.88 164.2 323.46 C 172.05 320.7 180.97 321.17 188.7 325.23 Z " fill="rgb(242,120,104)"/><path d=" M 168.46 358.04 C 160.58 359.82 152.34 360.01 144.78 358.87 C 143.15 361.64 144.34 365.43 146.79 367.52 C 149.24 369.61 152.6 370.28 155.81 370.34 C 159.38 370.41 163.14 369.73 165.89 367.46 C 168.64 365.18 170.02 361.01 168.46 358.04 Z " fill="rgb(254,254,254)"/><path d=" M 547.71 305.06 C 548.37 324.17 549 343.61 544.17 362.11 C 543.04 366.46 541.59 370.79 541.45 375.29 C 541.31 379.78 542.71 384.6 546.271 387.35 C 544.89 383.53 545.08 379.18 546.78 375.5 C 547.91 383.51 552.311 391.01 558.75 395.91 C 565.19 400.8 573.6 403.03 581.62 401.97 C 588.78 396.53 597.69 393.44 606.68 393.3 C 614.62 393.18 623.23 395.13 630.05 391.06 C 637.09 386.86 639.39 377.89 640.71 369.79 C 642.48 358.96 643.63 347.7 640.62 337.16 C 636.13 321.41 622.62 309.3 607.31 303.48 C 592.03 297.65 575.11 297.43 547.71 305.06 Z " fill="rgb(216,182,159)"/><path d=" M 676.71 470.99 L 512.32 470.99 L 516.02 447.64 L 516.61 443.93 C 518.59 431.46 527.4 421.15 539.41 417.26 L 559.7 410.67 C 560.76 410.33 561.78 409.92 562.771 409.46 C 563.05 409.34 563.33 409.2 563.61 409.05 L 563.85 408.93 C 564.19 408.76 564.53 408.57 564.87 408.37 L 564.93 408.34 L 565.02 408.29 C 565.33 408.12 565.64 407.93 565.94 407.73 C 566.94 407.1 567.9 406.41 568.8 405.66 C 572.021 403 574.59 399.64 576.33 395.83 C 577.63 392.99 578.45 389.89 578.72 386.66 L 579.15 381.42 L 594.51 382.11 L 609.88 381.42 L 610.31 386.66 C 610.83 392.93 613.44 398.67 617.53 403.1 C 618.15 403.78 618.81 404.43 619.5 405.04 C 619.83 405.33 620.17 405.62 620.51 405.9 L 620.76 406.09 C 621.01 406.29 621.26 406.49 621.521 406.67 C 621.78 406.87 622.06 407.06 622.33 407.24 C 622.61 407.44 622.9 407.63 623.19 407.8 C 623.43 407.95 623.67 408.1 623.91 408.24 C 624.15 408.39 624.39 408.53 624.64 408.65 C 624.88 408.79 625.13 408.92 625.38 409.05 C 625.78 409.25 626.19 409.45 626.61 409.63 C 626.97 409.79 627.33 409.94 627.7 410.09 L 627.79 410.12 C 627.96 410.19 628.14 410.26 628.32 410.32 C 628.65 410.44 628.98 410.56 629.32 410.67 L 649.62 417.26 C 658.99 420.29 666.41 427.24 670.16 436.059 C 671.22 438.55 671.981 441.19 672.42 443.93 L 676.71 470.99 Z " fill="rgb(241,158,138)"/><path d=" M 617.53 403.1 C 597.29 407.36 584.12 401.79 576.33 395.83 C 577.63 392.99 578.45 389.89 578.72 386.66 L 579.15 381.42 L 594.51 382.11 L 609.88 381.42 L 610.31 386.66 C 610.83 392.93 613.44 398.67 617.53 403.1 Z " fill="rgb(224,129,112)"/><path d=" M 676.71 470.99 L 512.32 470.99 L 516.02 447.64 L 516.61 443.93 C 518.59 431.46 527.4 421.15 539.41 417.26 L 559.7 410.67 C 560.76 410.33 561.78 409.92 562.771 409.46 C 563.06 409.33 563.33 409.2 563.61 409.05 L 563.85 408.93 C 564.2 408.75 564.54 408.57 564.87 408.37 L 564.93 408.34 L 565.02 408.29 C 565.33 408.11 565.64 407.92 565.94 407.73 C 566.94 407.1 567.9 406.41 568.8 405.66 C 575.21 414.46 583.68 421.76 593.89 426.78 C 604.18 421.79 613.13 414.09 619.5 405.04 C 619.83 405.33 620.17 405.62 620.51 405.9 L 620.76 406.09 C 621.01 406.29 621.26 406.49 621.521 406.67 C 621.78 406.87 622.06 407.06 622.33 407.24 C 622.61 407.44 622.9 407.62 623.19 407.8 C 623.43 407.95 623.67 408.1 623.91 408.24 C 624.15 408.38 624.39 408.52 624.64 408.65 C 624.88 408.79 625.13 408.92 625.38 409.05 C 625.78 409.25 626.19 409.45 626.61 409.63 C 626.97 409.79 627.33 409.95 627.7 410.09 L 627.79 410.12 C 627.97 410.19 628.14 410.26 628.32 410.32 C 628.65 410.44 628.98 410.56 629.32 410.67 L 649.62 417.26 C 658.99 420.29 666.41 427.24 670.16 436.059 C 671.22 438.55 671.981 441.19 672.42 443.93 L 676.71 470.99 Z " fill="rgb(80,138,138)"/><path d=" M 623.19 407.8 C 616.64 418.86 606.41 427.79 594.47 432.78 C 582.3 427.63 571.95 419.06 564.93 408.34 C 566.3 407.56 567.6 406.66 568.8 405.66 C 575.21 414.46 583.68 421.76 593.89 426.78 C 604.18 421.79 613.13 414.09 619.5 405.04 C 620.64 406.06 621.88 406.99 623.19 407.8 Z " fill="rgb(106,172,167)"/><clipPath id="_clipPath_nVyKeHtURQsAE1gueTIt31EFfwodIs44"><path d=" M 676.71 470.99 L 512.32 470.99 L 516.02 447.64 C 531.76 454.38 548.91 457.97 566.05 458.91 C 569.284 459.086 572.521 459.171 575.755 459.171 C 596.769 459.171 617.731 455.592 638.08 450.21 C 648.19 447.54 658.37 444.33 667.01 438.42 C 668.09 437.68 669.14 436.9 670.16 436.059 C 671.22 438.55 671.981 441.19 672.42 443.93 L 676.71 470.99 Z " fill="rgb(255,255,255)"/></clipPath><g clip-path="url(#_clipPath_nVyKeHtURQsAE1gueTIt31EFfwodIs44)"><path d=" M 512.32 436.059 L 676.71 436.059 L 676.71 470.99 L 512.32 470.99 L 512.32 436.059 Z " fill="rgb(75,126,130)"/></g><path d=" M 586.73 423.41 C 578.81 423.41 570.71 424.91 564.33 429.62 C 563.59 425.8 562.94 422.18 562.6 418.55 C 562.26 414.92 562.08 410.84 563.32 407.69 C 563.96 406.06 572.85 398.97 574.64 399.45 C 575.88 399.78 586.13 412.9 592.79 421.14 C 593.27 423.34 593.48 425.15 593.9 426.76 C 591.64 425.86 587.44 423.28 586.73 423.41 Z " fill="rgb(218,239,236)"/><path d=" M 594.03 426.83 C 594.07 425.01 594.35 423.2 594.96 421.38 C 602.85 415.29 609.71 407.86 615.41 399.29 C 620.4 400.77 622.99 403.3 625.06 408.07 C 625.06 408.1 625.89 419.63 626.38 428.85 C 613.76 420.29 598.92 423.97 598.92 423.97 C 598.92 423.97 596.06 425.69 594.03 426.83 Z " fill="rgb(218,239,236)"/><path d=" M 537.447 332.797 C 539.196 327.269 546.59 324.677 553.962 327.009 C 561.333 329.341 565.892 335.713 564.143 341.242 C 562.394 346.771 555 349.362 547.628 347.03 C 540.256 344.698 535.698 338.326 537.447 332.797 Z " fill="rgb(224,129,112)"/><path d=" M 552.01 330.64 C 552.01 300.26 571.04 279.51 594.51 279.51 C 617.979 279.51 637.01 300.26 637.01 330.64 C 637.01 361.02 617.979 389.51 594.51 389.51 C 571.04 389.51 552.01 361.02 552.01 330.64 Z " fill="rgb(241,158,138)"/><path d=" M 580.26 331.89 C 581.707 331.89 582.88 333.063 582.88 334.51 C 582.88 335.957 581.707 337.13 580.26 337.13 C 578.813 337.13 577.64 335.957 577.64 334.51 C 577.64 333.063 578.813 331.89 580.26 331.89 Z " fill="rgb(52,56,73)"/><path d=" M 608.76 331.89 C 610.207 331.89 611.38 333.063 611.38 334.51 C 611.38 335.957 610.207 337.13 608.76 337.13 C 607.313 337.13 606.14 335.957 606.14 334.51 C 606.14 333.063 607.313 331.89 608.76 331.89 Z " fill="rgb(52,56,73)"/><path d=" M 562.48 324.41 C 564.66 320.12 569.2 317.14 574 316.84 C 578.8 316.54 583.68 318.93 586.38 322.91 C 577.93 321.06 568.9 322.04 562.48 324.41 Z " fill="rgb(252,216,187)"/><path d=" M 626.55 324.41 C 624.37 320.12 619.83 317.14 615.03 316.84 C 610.23 316.54 605.35 318.93 602.65 322.91 C 611.1 321.06 620.13 322.04 626.55 324.41 Z " fill="rgb(252,216,187)"/><path d=" M 592.27 334.504 L 592.2 347.504 C 592.197 348.057 592.643 348.507 593.195 348.51 C 593.747 348.513 594.197 348.067 594.2 347.515 L 594.269 334.515 C 594.272 333.963 593.827 333.513 593.275 333.51 C 592.723 333.507 592.272 333.952 592.27 334.504 Z " fill="rgb(178,93,91)"/><path d=" M 608.57 358.17 C 598.89 358.57 589.14 357.03 580.49 354.59 C 579.99 358.41 582.12 362.27 585.271 364.48 C 588.42 366.69 592.42 367.26 596.271 367.26 C 605.97 367.26 609 360.61 608.57 358.17 Z " fill="rgb(254,254,254)"/><path d=" M 569.45 288.64 C 572.26 289.07 575 289.93 577.51 291.27 C 577.54 291.27 577.56 291.27 577.8 291.02 C 584.91 289.96 592.06 288.99 599.25 289.15 C 606.43 289.31 613.69 290.64 620.07 293.94 C 616.72 283.34 606.81 275.12 595.77 273.79 C 584.73 272.46 573.15 278.09 569.45 288.64 Z " fill="rgb(216,182,159)"/><path d=" M 638.89 400.28 C 639.22 396.39 639.55 392.5 639.88 388.61 C 637.35 398.32 624.12 407.52 614.1 408.08 C 632.79 389.39 627.57 356.39 625.05 331.67 C 623.22 313.68 621.55 289.76 602.19 282.29 C 593.15 279.05 581.34 283.05 577.11 291.23 C 571.37 310.04 551.64 308.93 552.479 339.64 C 543.4 318.37 539.54 279.82 569.77 275.49 C 572.09 272.86 574.7 270.59 577.53 268.68 C 600.979 252.77 639.27 261.03 646.79 289.1 C 650.65 303.5 650.02 322.22 651.77 337.02 C 652.43 342.56 653.87 348.8 655.04 355.23 C 658.12 372.21 659.28 390.46 638.89 400.28 Z " fill="rgb(252,216,187)"/><path d=" M 651.77 337.02 C 652.43 342.56 653.87 348.8 655.04 355.23 C 653.9 353.47 652.76 351.72 651.78 349.88 C 643.49 334.18 648.68 314.6 643.43 297.64 C 638.82 282.73 625.87 270.93 610.83 266.77 C 599.92 263.76 588.13 264.65 577.53 268.68 C 600.98 252.77 639.271 261.03 646.79 289.1 C 650.65 303.5 650.02 322.22 651.77 337.02 Z " fill="rgb(254,232,210)"/><path d=" M 659.99 371.52 C 659.84 372.16 659.62 372.79 659.33 373.4 C 659.55 372.78 659.77 372.15 659.99 371.52 Z " fill="rgb(254,232,210)"/><path d=" M 457.19 224.97 L 292.81 224.97 L 297.1 197.91 C 299.07 185.44 307.88 175.13 319.89 171.24 L 340.19 164.65 C 341.68 164.17 343.1 163.57 344.46 162.86 C 350.73 159.59 355.49 154.04 357.78 147.4 C 358.53 145.25 359.01 142.98 359.2 140.64 L 359.63 135.4 L 375 136.09 L 390.37 135.4 L 390.8 140.64 C 391.23 145.84 393.1 150.68 396.05 154.71 C 398.04 157.43 400.53 159.78 403.4 161.62 C 405.37 162.89 407.52 163.91 409.81 164.65 L 430.11 171.24 C 442.12 175.13 450.93 185.44 452.9 197.91 L 457.19 224.97 Z " fill="rgb(241,158,138)"/><path d=" M 396.05 154.71 C 379.56 157.49 366.27 152.39 357.78 147.4 C 358.53 145.25 359.01 142.98 359.2 140.64 L 359.63 135.4 L 375 136.09 L 390.37 135.4 L 390.8 140.64 C 391.23 145.84 393.1 150.68 396.05 154.71 Z " fill="rgb(224,129,112)"/><path d=" M 457.19 224.97 L 292.81 224.97 L 296.65 200.74 L 297.1 197.91 C 299.07 185.44 307.88 175.13 319.89 171.24 L 338.14 165.32 L 340.19 164.65 C 341.68 164.17 343.1 163.57 344.46 162.86 C 348.62 166.73 359.34 170.82 371.87 172.93 L 375.42 188.66 L 378.75 172.62 C 378.75 172.62 391.56 171.38 403.4 161.62 C 405.229 162.8 407.2 163.76 409.31 164.48 C 409.47 164.54 409.64 164.6 409.81 164.65 L 430.11 171.24 C 438.77 174.05 445.77 180.19 449.74 188.09 C 451.27 191.13 452.35 194.44 452.9 197.91 L 457.19 224.97 Z " fill="rgb(240,97,99)"/><path d=" M 409.31 164.48 C 402.76 170.99 394.41 175.69 385.44 177.85 C 382.61 185.81 378.68 194.27 375 202.39 C 371.18 194.23 369.19 185.97 366.17 177.71 C 356.04 175.4 346.3 171.33 338.14 165.32 L 340.19 164.65 C 341.68 164.17 343.1 163.57 344.46 162.86 C 348.62 166.73 359.34 170.82 371.87 172.93 L 375.42 188.66 L 378.75 172.62 C 378.75 172.62 391.56 171.38 403.4 161.62 C 405.23 162.8 407.2 163.76 409.31 164.48 Z " fill="rgb(243,135,127)"/><path d=" M 457.19 224.97 L 292.81 224.97 L 296.65 200.74 C 321.83 213.45 350.72 218.79 378.77 215.74 C 404.3 212.97 429.02 203.26 449.74 188.09 C 451.27 191.13 452.35 194.44 452.9 197.91 L 457.19 224.97 Z " fill="rgb(238,92,99)"/><path d=" M 317.936 86.778 C 319.685 81.25 327.079 78.658 334.451 80.99 C 341.822 83.322 346.38 89.694 344.631 95.223 C 342.882 100.752 335.489 103.343 328.117 101.011 C 320.745 98.679 316.187 92.307 317.936 86.778 Z " fill="rgb(224,129,112)"/><path d=" M 415.509 80.993 C 422.881 78.661 430.274 81.252 432.023 86.781 C 433.772 92.31 429.214 98.682 421.843 101.014 C 414.471 103.346 407.077 100.754 405.328 95.226 C 403.579 89.697 408.137 83.325 415.509 80.993 Z " fill="rgb(224,129,112)"/><path d=" M 332.5 84.62 C 332.5 54.24 351.53 33.49 375 33.49 C 398.47 33.49 417.5 54.24 417.5 84.62 C 417.5 115 398.47 143.49 375 143.49 C 351.53 143.49 332.5 114.99 332.5 84.62 Z " fill="rgb(241,158,138)"/><path d=" M 416.86 95.07 C 412.63 82.55 409.54 69.66 407.42 56.07 C 390.99 48.67 373.72 66.55 357.08 61.57 C 360.5 60.31 363.6 58.22 366.05 55.54 C 357.41 58.81 347.93 59.82 339.83 58.34 C 337.94 70.41 337.04 87.99 333.87 99.5 C 330.59 87.35 328.54 69.1 329.78 56.58 C 324.36 51.42 322.57 44.85 324.09 39.03 C 324.91 41.06 326.93 42.55 329.11 42.73 C 327.61 40.37 327 37.45 327.43 34.68 C 327.64 34.82 327.85 34.96 328.06 35.08 L 328.07 35.09 C 343.75 44.18 376.16 -1.24 406.41 33.81 C 407.95 35.6 409.49 37.6 411.02 39.82 C 431.39 39.82 419.59 81.62 416.86 95.07 Z " fill="rgb(65,55,68)"/><path d=" M 406.41 33.81 C 401.4 31.11 395.59 29.83 389.87 29.79 C 381.94 29.74 374.14 31.87 366.75 34.74 C 361.8 36.66 356.97 38.93 351.85 40.33 C 346.73 41.74 341.2 42.25 336.15 40.63 C 333.01 39.62 330.09 37.67 328.07 35.09 C 343.75 44.18 376.16 -1.24 406.41 33.81 Z " fill="rgb(82,65,82)"/><path d=" M 366.12 75.54 C 363.95 70.52 358.29 67.25 352.86 67.9 C 347.43 68.55 342.69 73.05 341.76 78.44 C 347.93 73 357.55 71.9 366.12 75.54 Z " fill="rgb(65,55,68)"/><path d=" M 384.1 75.7 C 386.39 70.76 392.06 67.61 397.47 68.28 C 402.88 68.95 407.61 73.37 408.64 78.72 C 403.05 73.42 394.36 71.67 384.1 75.7 Z " fill="rgb(65,55,68)"/><path d=" M 360.75 83.25 C 362.197 83.25 363.37 84.423 363.37 85.87 C 363.37 87.317 362.197 88.49 360.75 88.49 C 359.303 88.49 358.13 87.317 358.13 85.87 C 358.13 84.423 359.303 83.25 360.75 83.25 Z " fill="rgb(52,56,73)"/><path d=" M 389.25 83.25 C 390.697 83.25 391.87 84.423 391.87 85.87 C 391.87 87.317 390.697 88.49 389.25 88.49 C 387.803 88.49 386.63 87.317 386.63 85.87 C 386.63 84.423 387.803 83.25 389.25 83.25 Z " fill="rgb(52,56,73)"/><path d=" M 374.07 89.995 L 374 102.995 C 373.997 103.547 374.442 103.997 374.995 104 C 375.547 104.003 375.997 103.558 376 103.005 L 376.07 90.005 C 376.073 89.453 375.628 89.003 375.076 89 C 374.523 88.997 374.073 89.442 374.07 89.995 Z " fill="rgb(178,93,91)"/><path d=" M 348.1 129.42 C 353.3 138.59 361.24 145.41 375.07 145.41 C 387.29 145.41 396.42 139.79 402.74 128.55 C 398.13 133.14 393.21 137.12 386.1 138.62 C 384.93 136.45 384.54 134.62 383.37 131.78 C 378.9 133.81 373.19 133.8 367.86 131.65 C 367.07 134.15 366.29 136.65 365.5 138.71 C 359.52 137.55 352.39 133.62 348.1 129.42 Z " fill="rgb(65,55,68)"/><path d=" M 388.66 109.72 C 378.87 112.03 371.18 111.54 361.45 109.41 C 360.31 117.97 366.72 124.19 375.42 124.19 C 386.82 124.19 390.2 115.21 388.66 109.72 Z " fill="rgb(254,254,254)"/><path d=" M 375.21 107.42 C 371.58 104.55 366.22 104.08 362.15 106.27 C 358.08 108.46 355.52 113.19 355.91 117.8 C 356.71 115.59 359.08 114.29 361.4 113.92 C 363.72 113.55 366.09 113.9 368.44 113.95 C 370.79 113.99 373.3 113.67 375.08 112.13 C 375.06 110.7 375.05 109.27 375.21 107.42 Z " fill="rgb(65,55,68)"/><path d=" M 374.92 107.42 C 378.55 104.55 383.91 104.08 387.98 106.27 C 392.05 108.46 394.61 113.19 394.22 117.8 C 393.42 115.59 391.05 114.29 388.73 113.92 C 386.41 113.55 384.04 113.9 381.69 113.95 C 379.34 114 376.83 113.67 375.05 112.13 C 375.08 110.7 375.09 109.27 374.92 107.42 Z " fill="rgb(65,55,68)"/></g></g></svg>