<?xml version="1.0" encoding="UTF-8" standalone="no"?><!-- Generator: Gravit.io --><svg xmlns="http://www.w3.org/2000/svg" xmlns:xlink="http://www.w3.org/1999/xlink" style="isolation:isolate" viewBox="524.667 267.667 170 204" width="170pt" height="204pt"><defs><clipPath id="_clipPath_JIEfsTnXLM7DqSOI1y8Kbf0rwqsGqSzZ"><rect width="750" height="500"/></clipPath></defs><g clip-path="url(#_clipPath_JIEfsTnXLM7DqSOI1y8Kbf0rwqsGqSzZ)"><clipPath id="_clipPath_lQ3hiwxwpS5OYqVmnFJb2tp5Qt35Esqx"><path d=" M 0 0 L 0 500 L 750 500 L 750 0 L 0 0 Z " fill="rgb(255,255,255)"/></clipPath><g clip-path="url(#_clipPath_lQ3hiwxwpS5OYqVmnFJb2tp5Qt35Esqx)"><path d=" M 142.72 131 L 142.72 131.07 L 141.18 131.04 L 142.72 131 Z " fill="rgb(212,117,107)"/><path d=" M 142.72 131.04 L 141.18 131.07 L 141.18 131 L 142.72 131.04 Z " fill="rgb(212,117,107)"/><path d=" M 227.66 228.74 L 178.96 228.94 L 175.67 228.95 L 143.41 229.08 L 142.71 229.1 L 142.01 229.08 L 110.85 228.96 L 109.33 228.95 L 57.77 228.74 L 63.8 189.82 C 66.23 174.19 79.59 161.49 97.39 157.85 L 111.61 154.96 L 114.07 154.46 L 118.82 153.49 L 118.94 152.76 L 120.13 145.31 L 122.14 132.58 L 141.13 132.13 L 142.7 132.1 L 144.26 132.13 L 163.24 132.58 L 166.28 151.63 L 166.57 153.49 L 166.96 153.57 L 170.77 154.34 L 174.23 155.04 L 188.01 157.84 C 205.81 161.47 219.18 174.18 221.59 189.81 L 227.66 228.74 Z " fill="rgb(212,117,107)"/><path d=" M 166.3 151.63 C 143.68 154.29 127.67 148.81 120.15 145.3 L 122.17 132.58 L 141.15 132.13 L 142.72 132.1 L 144.28 132.13 L 163.26 132.58 L 166.3 151.63 Z " fill="rgb(201,103,99)"/><path d=" M 111.63 154.96 L 109.34 228.95 L 110.86 228.96 L 142.02 229.08 L 142.72 229.1 L 143.42 229.08 L 175.68 228.95 L 178.97 228.94 L 174.27 155.06 L 170.81 154.36 L 170.1 155.33 C 169.32 156.41 168.46 157.42 167.55 158.37 C 155.03 171.43 131.81 171.89 118.57 159.62 C 117.24 158.4 116.02 157.05 114.92 155.57 L 114.1 154.47" fill="rgb(253,207,117)"/><path d=" M 227.66 228.74 L 198.16 228.86 L 178.96 228.94 L 175.67 228.95 L 166.98 153.58 L 170.79 154.35 L 174.25 155.05 L 188.03 157.85 C 196.36 159.56 203.72 163.24 209.44 168.28 C 215.94 174.01 220.33 181.5 221.61 189.82 L 227.66 228.74 Z " fill="rgb(84,134,170)"/><path d=" M 118.84 153.5 L 110.87 228.96 L 109.35 228.95 L 86.23 228.86 L 57.79 228.75 L 63.82 189.83 C 65.07 181.75 69.25 174.45 75.47 168.78 C 81.26 163.49 88.82 159.62 97.41 157.86 L 111.63 154.97 L 114.09 154.47 L 118.84 153.5 Z " fill="rgb(84,134,170)"/><path d=" M 86.23 192.75 L 86.23 228.86 L 57.79 228.75 L 63.82 189.83 C 65.07 181.75 69.25 174.45 75.47 168.78 C 82.15 175.09 86.23 183.51 86.23 192.75 Z " fill="rgb(99,158,191)"/><path d=" M 227.66 228.74 L 198.16 228.86 L 198.16 192.74 C 198.16 183.27 202.44 174.65 209.44 168.27 C 215.94 174 220.33 181.49 221.61 189.81 L 227.66 228.74 Z " fill="rgb(99,158,191)"/><path d=" M 194.97 65.51 C 198.04 74.51 195.64 84.35 193.03 93.49 C 190.41 102.62 187.59 112.23 189.86 121.46 C 187.91 121.35 185.99 120.69 184.39 119.57 C 183.23 126.74 179.09 133.39 173.15 137.64 C 173.59 135.02 172.85 132.23 171.17 130.17 C 161.11 137.65 152.18 141.51 143.18 141.55 C 134.18 141.59 125.22 137.81 119.01 131.34 C 116.5 133.08 114.93 136.05 114.9 139.08 C 109.03 136.43 104.77 130.59 104.08 124.24 C 100.88 126.32 96.62 126.7 93.11 125.19 C 98.5 123.59 101.03 117.14 100.37 111.6 C 99.71 106.06 96.75 101.12 94.44 96.03 C 92.14 90.95 90.45 85.08 92.46 79.87 C 91.47 78.2 90.74 76.48 90.26 74.75 L 90.26 74.74 C 88.78 69.34 89.68 63.82 92.46 59.37 C 89.83 58.38 87.54 58.1 85.25 57.83 C 88.08 49.23 94.62 41.9 102.88 38.06 C 99.6 35.85 98.19 32.23 99.03 29.06 C 107.87 29.5 116.58 27.11 125.16 24.89 C 133.73 22.68 142.58 20.6 151.37 21.72 C 157.32 22.47 163.28 24.99 167.96 29.23 C 170.19 31.25 172.14 33.67 173.65 36.47 C 177.95 34.41 183.22 36.68 186.47 40.13 C 189.72 43.59 191.59 48.07 194.19 52.03 C 196.79 55.99 200.62 59.68 205.38 60 C 202.66 62.92 198.93 64.89 194.97 65.51 Z " fill="rgb(79,58,92)"/><path d=" M 184.012 88.219 C 191.587 85.778 199.297 88.67 201.233 94.678 C 203.169 100.686 198.598 107.536 191.023 109.977 C 183.448 112.418 175.738 109.525 173.802 103.517 C 171.866 97.509 176.437 90.66 184.012 88.219 Z " fill="rgb(201,103,99)"/><path d=" M 188.148 107.312 C 184.35 107.312 181.123 105.317 180.421 102.242 C 179.569 98.505 182.771 94.587 187.575 93.492 C 188.426 93.298 189.27 93.206 190.088 93.206 C 193.886 93.206 197.114 95.2 197.816 98.275 C 198.668 102.012 195.465 105.929 190.662 107.025 C 189.811 107.219 188.966 107.312 188.148 107.312 Z " fill="rgb(163,83,87)"/><path d=" M 195.63 94.95 C 193.47 93.22 190.72 92.31 187.99 92.45 C 185.27 92.58 182.6 93.75 180.61 95.68 C 180.72 96.4 180.82 97.12 180.93 97.84 C 182.8 95.7 185.39 94.27 188.14 93.84 C 190.88 93.4 193.77 93.98 195.63 94.95 Z " fill="rgb(109,57,70)"/><path d=" M 82.724 94.669 C 84.66 88.66 92.371 85.768 99.945 88.209 C 107.52 90.649 112.091 97.499 110.155 103.507 C 108.219 109.516 100.509 112.408 92.934 109.967 C 85.359 107.526 80.788 100.677 82.724 94.669 Z " fill="rgb(201,103,99)"/><path d=" M 95.83 107.295 C 95.012 107.295 94.168 107.203 93.316 107.009 C 88.513 105.913 85.311 101.996 86.163 98.258 C 86.865 95.184 90.093 93.189 93.89 93.189 C 94.708 93.189 95.552 93.281 96.403 93.476 C 101.207 94.571 104.41 98.489 103.557 102.226 C 102.856 105.301 99.627 107.295 95.83 107.295 Z " fill="rgb(163,83,87)"/><path d=" M 88.33 94.95 C 90.49 93.22 93.24 92.31 95.97 92.45 C 98.69 92.58 101.36 93.75 103.35 95.68 C 103.24 96.4 103.14 97.12 103.03 97.84 C 101.16 95.7 98.57 94.27 95.82 93.84 C 93.08 93.4 90.2 93.98 88.33 94.95 Z " fill="rgb(109,57,70)"/><path d=" M 187.21 84.62 C 187.21 114.27 166.96 144.03 141.98 144.03 C 138.37 144.03 134.85 143.41 131.48 142.25 C 111.56 135.43 96.74 109.98 96.74 84.62 L 96.74 84.43 C 96.82 54.89 117.05 36.66 141.98 36.66 C 166.96 36.66 187.21 54.97 187.21 84.62 Z " fill="rgb(212,117,107)"/><path d=" M 185.82 78.75 C 183.22 78.34 180.75 77.08 178.9 75.2 C 179.2 76.97 179.51 78.73 179.81 80.5 C 173.23 77.12 168.05 71.09 165.73 64.07 C 159.35 69.55 150.52 72.05 142.21 70.73 C 142.76 69.47 143.32 68.21 143.75 66.86 C 138.34 69.95 133.25 73.61 128.61 77.76 C 127.35 74.91 126.85 71.72 127.14 68.69 C 119.13 71.82 111.5 75.91 104.46 80.86 C 104.33 79.4 104.2 77.94 104.07 76.48 C 100.77 78.81 98.27 82.25 97.08 86.11 C 96.75 77.91 96.81 68.67 102.62 62.88 C 104.97 60.54 108.02 59.05 111.05 57.71 C 126.02 51.07 142.06 46.87 158.36 45.31 C 163.77 44.79 167.59 46.49 172.5 48.81 C 177.29 51.06 187.8 68.6 185.82 78.75 Z " fill="rgb(201,103,99)"/><path d=" M 97.87 98.49 C 96.38 86.79 99.43 76.09 106.6 66.78 C 105.7 69.23 105.35 71.88 105.59 74.47 C 114.85 69.85 124.11 65.23 133.37 60.6 C 130.57 63.28 129.36 67.51 130.33 71.27 C 138.09 67.48 145.85 63.68 153.62 59.89 C 151.64 62.47 149.31 64.78 146.71 66.72 C 154.32 67.43 162.19 63.64 166.5 56.38 C 167.68 63.32 171.39 69.79 176.78 74.32 C 176.7 71.74 177.08 69.15 177.44 65.79 C 178.3 70.92 181.1 75.71 184.69 78.95 C 185.19 85.81 185.69 92.68 185.01 99.08 C 213.02 20.76 79.3 1.64 97.87 98.49 Z " fill="rgb(79,58,92)"/><path d=" M 167.96 29.24 C 164.03 27.19 159.48 26.21 155.03 26.11 C 147.72 25.95 140.56 27.88 133.49 29.76 C 126.43 31.64 119.23 33.49 111.93 33.18 C 115.13 35.11 118.76 36.31 122.47 36.67 C 116.48 39.12 110.49 41.57 104.5 44.03 C 109.02 42.57 114.16 43.13 118.25 45.55 C 110.24 45.68 102.35 49.28 97.02 55.24 C 99.08 54.51 101.44 54.64 103.4 55.62 C 96.47 59.62 91.62 66.9 90.26 74.76 C 88.78 69.36 89.68 63.84 92.46 59.39 C 89.83 58.4 87.54 58.12 85.25 57.85 C 88.08 49.25 94.62 41.92 102.88 38.08 C 99.6 35.87 98.19 32.25 99.03 29.08 C 107.87 29.52 116.58 27.13 125.16 24.91 C 133.73 22.7 142.58 20.62 151.37 21.74 C 157.32 22.48 163.28 24.99 167.96 29.24 Z " fill="rgb(119,85,124)"/><path d=" M 130.7 84.39 C 128 81.49 123.65 79.76 118.87 80.1 C 114.1 80.43 110.04 82.74 107.77 85.97 C 107.92 80.1 112.51 75.2 118.49 74.78 C 124.49 74.36 129.73 78.58 130.7 84.39 Z " fill="rgb(79,58,92)"/><path d=" M 153.26 84.39 C 155.96 81.49 160.31 79.76 165.09 80.1 C 169.86 80.43 173.92 82.74 176.19 85.97 C 176.04 80.1 171.45 75.2 165.47 74.78 C 159.48 74.36 154.23 78.58 153.26 84.39 Z " fill="rgb(79,58,92)"/><path d=" M 123.62 92 C 125.177 92 126.44 93.263 126.44 94.82 C 126.44 96.377 125.177 97.64 123.62 97.64 C 122.063 97.64 120.8 96.377 120.8 94.82 C 120.8 93.263 122.063 92 123.62 92 Z " fill="rgb(51,58,76)"/><path d=" M 159.89 92 C 161.447 92 162.71 93.263 162.71 94.82 C 162.71 96.377 161.447 97.64 159.89 97.64 C 158.333 97.64 157.07 96.377 157.07 94.82 C 157.07 93.263 158.333 92 159.89 92 Z " fill="rgb(51,58,76)"/><path d=" M 127.803 117.478 C 132.215 120 137.273 121.247 142.327 121.248 C 147.721 121.247 153.119 119.827 157.735 116.981 C 158.205 116.691 158.351 116.075 158.061 115.605 C 157.771 115.135 157.155 114.989 156.685 115.279 C 152.412 117.915 147.37 119.248 142.327 119.248 C 137.601 119.248 132.88 118.077 128.796 115.742 C 128.317 115.468 127.706 115.634 127.432 116.114 C 127.158 116.593 127.324 117.204 127.803 117.478 Z " fill="rgb(109,57,70)"/><path d=" M 138.89 125.4 C 141.48 126.03 144.18 126.22 146.84 125.96 C 146.04 127.41 144.4 128.36 142.74 128.32 C 141.08 128.28 139.49 127.29 138.89 125.4 Z " fill="rgb(201,103,99)"/><path d=" M 138.968 92.757 C 139.427 94.181 139.67 95.67 139.67 97.155 C 139.669 98.974 139.308 100.787 138.539 102.488 L 138.388 102.821 L 138.488 103.173 C 139.129 105.426 139.779 107.676 140.418 109.932 C 140.568 110.464 141.121 110.773 141.652 110.622 C 142.184 110.472 142.492 109.919 142.342 109.388 C 141.701 107.124 141.051 104.874 140.412 102.626 L 139.45 102.9 L 140.361 103.312 C 141.254 101.338 141.67 99.238 141.67 97.155 C 141.67 95.452 141.393 93.759 140.872 92.143 C 140.702 91.618 140.139 91.329 139.613 91.499 C 139.087 91.668 138.799 92.231 138.968 92.757 Z " fill="rgb(109,57,70)"/><path d=" M 459.99 228.84 C 406.79 229.18 343.34 229.18 290.11 228.84 C 297.9 179.18 293.28 162.23 351.17 153.6 L 351.18 153.55 C 351.98 148.56 353.69 137.74 354.48 132.69 C 365.5 132.22 384.57 132.22 395.58 132.69 L 398.62 151.74 L 398.83 153.04 L 398.91 153.6 C 457.03 162.34 452.1 179.18 459.99 228.84 Z " fill="rgb(247,165,138)"/><path d=" M 398.63 151.73 C 376.01 154.39 360 148.91 352.48 145.4 L 354.5 132.68 L 373.48 132.23 L 375.05 132.2 L 376.61 132.23 L 395.59 132.68 L 398.63 151.73 Z " fill="rgb(239,137,120)"/><path d=" M 459.99 228.84 C 448.43 228.92 436.38 228.97 424.05 229.01 C 379.68 229.16 331.76 229.1 290.11 228.84 C 297.9 179.18 293.28 162.23 351.17 153.6 L 351.18 153.55 L 375.15 173.75 L 398.83 153.03 L 398.91 153.59 C 415.9 156.14 427.5 159.39 435.61 163.95 C 455.24 174.99 454.41 193.69 459.99 228.84 Z " fill="rgb(77,173,191)"/><path d=" M 424.05 229.01 L 424.05 199.09 C 424.05 185.94 428.35 173.79 435.61 163.96 C 455.24 174.99 454.41 193.69 459.99 228.84 C 448.43 228.92 436.38 228.97 424.05 229.01 Z " fill="rgb(82,179,195)"/><path d=" M 312.53 228.961 C 304.897 228.929 297.405 228.89 290.11 228.84 L 290.11 228.84 C 297.41 228.887 304.898 228.927 312.53 228.961 Z  M 297.983 184.282 C 300.256 177.563 303.503 172.195 308.792 167.83 C 303.521 172.194 300.266 177.566 297.983 184.282 Z " fill="rgb(187,227,229)"/><path d=" M 323.682 229.002 C 319.935 228.99 316.217 228.976 312.53 228.961 C 304.898 228.927 297.41 228.887 290.11 228.84 L 290.11 228.84 C 300.934 228.908 312.183 228.962 323.682 229.002 Z " fill="rgb(200,167,151)"/><path d=" M 326.05 229.01 C 325.26 229.007 324.47 229.005 323.682 229.002 C 312.183 228.962 300.934 228.908 290.11 228.84 C 293.187 209.491 294.316 195.126 297.983 184.282 C 300.266 177.566 303.521 172.194 308.792 167.83 C 310.474 166.442 312.361 165.156 314.49 163.96 C 321.75 173.79 326.05 185.94 326.05 199.09 L 326.05 229.01 Z " fill="rgb(82,179,195)"/><path d=" M 375.15 173.75 L 367.549 167.344 L 367.55 167.12 L 375.29 173.628 L 375.15 173.75 Z " fill="rgb(104,134,153)"/><path d=" M 367.4 203.12 L 367.549 167.344 L 375.15 173.75 L 375.29 173.628 L 375.34 173.67 L 375.55 203.06 L 367.4 203.12 Z " fill="rgb(72,137,167)"/><path d=" M 371.23 178.86 C 372.528 178.86 373.58 179.912 373.58 181.21 C 373.58 182.508 372.528 183.56 371.23 183.56 C 369.932 183.56 368.88 182.508 368.88 181.21 C 368.88 179.912 369.932 178.86 371.23 178.86 Z " fill="rgb(189,227,227)"/><path d=" M 371.23 191.79 C 372.528 191.79 373.58 192.842 373.58 194.14 C 373.58 195.438 372.528 196.49 371.23 196.49 C 369.932 196.49 368.88 195.438 368.88 194.14 C 368.88 192.842 369.932 191.79 371.23 191.79 Z " fill="rgb(189,227,227)"/><path d=" M 375.16 173.47 L 351.73 150.89 L 349.88 150.68 C 345.42 150.18 340.99 151.84 337.96 155.15 L 340.94 173.75 L 347.37 169.99 C 350.7 168.04 354.69 167.54 358.39 168.62 L 375.16 173.47 Z " fill="rgb(92,198,207)"/><path d=" M 375.16 173.47 L 398.59 150.89 L 400.44 150.68 C 404.9 150.18 409.33 151.84 412.36 155.15 L 409.38 173.75 L 406.51 172.07 C 400.91 168.79 394.2 167.95 387.96 169.76 L 375.16 173.47 Z " fill="rgb(92,198,207)"/><path d=" M 391.33 206.66 L 391.33 204.26 C 391.33 203.63 391.84 203.11 392.48 203.11 L 418.39 203.11 C 419.02 203.11 419.54 203.62 419.54 204.26 L 419.54 206.66 C 419.54 207.29 419.03 207.81 418.39 207.81 L 392.48 207.81 C 391.85 207.81 391.33 207.29 391.33 206.66 Z " fill="rgb(72,138,167)"/><path d=" M 416.344 88.328 C 423.919 85.887 431.629 88.779 433.564 94.787 C 435.501 100.795 430.93 107.645 423.354 110.085 C 415.78 112.526 408.07 109.634 406.134 103.626 C 404.198 97.618 408.769 90.769 416.344 88.328 Z " fill="rgb(239,137,120)"/><path d=" M 420.488 107.407 C 416.69 107.407 413.462 105.412 412.761 102.337 C 411.908 98.6 415.111 94.683 419.914 93.587 C 420.765 93.393 421.61 93.3 422.427 93.3 C 426.225 93.3 429.454 95.295 430.155 98.37 C 431.007 102.106 427.805 106.024 423.001 107.12 C 422.15 107.314 421.306 107.407 420.488 107.407 Z " fill="rgb(220,119,110)"/><path d=" M 427.96 95.05 C 425.8 93.32 423.05 92.41 420.32 92.55 C 417.6 92.68 414.93 93.85 412.94 95.78 C 413.05 96.5 413.15 97.22 413.26 97.94 C 415.13 95.8 417.72 94.37 420.47 93.94 C 423.22 93.51 426.1 94.08 427.96 95.05 Z " fill="rgb(181,88,97)"/><path d=" M 315.047 94.767 C 316.983 88.758 324.693 85.866 332.268 88.307 C 339.842 90.748 344.414 97.597 342.477 103.605 C 340.542 109.614 332.832 112.506 325.256 110.065 C 317.682 107.624 313.11 100.775 315.047 94.767 Z " fill="rgb(239,137,120)"/><path d=" M 328.147 107.381 C 327.329 107.381 326.485 107.289 325.634 107.095 C 320.83 105.999 317.627 102.081 318.48 98.344 C 319.181 95.27 322.41 93.275 326.208 93.275 C 327.026 93.275 327.869 93.367 328.721 93.562 C 333.524 94.657 336.727 98.575 335.874 102.312 C 335.173 105.387 331.944 107.381 328.147 107.381 Z " fill="rgb(220,119,110)"/><path d=" M 320.66 95.05 C 322.82 93.32 325.57 92.41 328.3 92.55 C 331.02 92.68 333.69 93.85 335.68 95.78 C 335.57 96.5 335.47 97.22 335.36 97.94 C 333.49 95.8 330.9 94.37 328.15 93.94 C 325.41 93.5 322.53 94.08 320.66 95.05 Z " fill="rgb(181,88,97)"/><path d=" M 419.54 84.72 C 419.54 114.37 399.29 144.13 374.31 144.13 C 370.7 144.13 367.18 143.51 363.81 142.35 C 343.89 135.53 329.07 110.08 329.07 84.72 L 329.07 84.53 C 329.15 54.99 349.38 36.76 374.31 36.76 C 399.29 36.76 419.54 55.07 419.54 84.72 Z " fill="rgb(247,165,138)"/><path d=" M 430.86 45.99 C 427.8 46.51 423.88 48.39 422.36 49.37 C 426.04 50.58 429.64 55.56 430.55 61.91 C 427.9 60.76 425.17 61.67 423.47 62.27 L 423.24 62.35 C 423.48 72.71 421.61 89.22 418.05 99.2 C 418.05 92.19 416.21 86.32 414 80.18 C 411.8 74.05 410.19 70.88 409.52 62.09 L 409.51 62.03 C 384.74 62.07 363.52 61.34 340.09 63.18 L 340.08 63.31 C 339.68 72.35 337.47 74.43 335.06 79.68 C 332.65 84.95 330.68 91.98 330.68 100.14 C 326.69 90.98 326.23 63.11 326.23 63.11 C 326.23 63.11 321.58 58.51 316 58.86 C 317.65 55.25 323.02 51.15 327.88 52.15 C 327.41 48.16 322.9 42.97 318.24 40.95 C 325.96 39.06 330.01 41.56 333 45.91 C 333.94 42.14 335.55 38.72 337.73 35.67 C 353 14.25 395.76 11.13 422.72 32.13 C 418.72 32.51 415.92 34.24 413.59 36.58 C 419.53 36.01 425.51 37.35 431.08 45.93 L 430.86 45.99 Z " fill="rgb(121,65,84)"/><path d=" M 423.25 62.34 C 423.49 72.7 421.62 89.21 418.06 99.19 C 418.06 92.18 416.22 86.31 414.01 80.17 C 411.81 74.04 410.2 70.87 409.53 62.08 L 409.63 61.9 L 423.46 62.26 L 423.25 62.34 Z " fill="rgb(152,104,115)"/><path d=" M 340.1 63.32 C 339.7 72.36 337.49 74.44 335.08 79.69 C 332.67 84.96 330.7 91.99 330.7 100.15 C 326.71 90.99 325.28 75.67 326.25 63.12 L 340.1 63.32 Z " fill="rgb(152,104,115)"/><path d=" M 431.1 45.95 L 430.86 46 C 421.64 39.28 409.32 36.76 398.29 39.81 C 401.34 35.56 406.09 32.56 411.24 31.64 C 400.4 28.06 389.15 26.9 378.08 27.9 C 382.72 25.49 388.02 24.37 393.24 24.69 C 374.8 18.71 353.05 23.14 337.75 35.68 C 353.02 14.26 395.78 11.14 422.74 32.14 C 418.74 32.52 415.94 34.25 413.61 36.59 C 419.55 36.03 425.53 37.37 431.1 45.95 Z " fill="rgb(164,91,107)"/><path d=" M 363.03 84.48 C 360.33 81.58 355.98 79.85 351.2 80.19 C 346.43 80.52 342.37 82.83 340.1 86.06 C 340.25 80.19 344.84 75.29 350.82 74.87 C 356.82 74.46 362.06 78.68 363.03 84.48 Z " fill="rgb(121,65,84)"/><path d=" M 385.59 84.48 C 388.29 81.58 392.64 79.85 397.42 80.19 C 402.19 80.52 406.25 82.83 408.52 86.06 C 408.37 80.19 403.78 75.29 397.8 74.87 C 391.81 74.46 386.56 78.68 385.59 84.48 Z " fill="rgb(121,65,84)"/><path d=" M 355.95 92.1 C 357.507 92.1 358.77 93.363 358.77 94.92 C 358.77 96.478 357.507 97.74 355.95 97.74 C 354.393 97.74 353.13 96.478 353.13 94.92 C 353.13 93.363 354.393 92.1 355.95 92.1 Z " fill="rgb(51,58,76)"/><path d=" M 392.22 92.1 C 393.777 92.1 395.04 93.363 395.04 94.92 C 395.04 96.478 393.777 97.74 392.22 97.74 C 390.662 97.74 389.4 96.478 389.4 94.92 C 389.4 93.363 390.662 92.1 392.22 92.1 Z " fill="rgb(51,58,76)"/><path d=" M 371.08 127.85 C 373.67 128.48 376.37 128.67 379.03 128.41 C 378.23 129.86 376.59 130.81 374.93 130.77 C 373.27 130.74 371.67 129.73 371.08 127.85 Z " fill="rgb(221,119,109)"/><path d=" M 370.748 94.037 C 371.208 95.461 371.45 96.949 371.45 98.435 C 371.45 100.253 371.088 102.066 370.319 103.768 L 370.168 104.102 L 370.268 104.454 C 370.909 106.706 371.559 108.956 372.198 111.212 C 372.349 111.744 372.901 112.053 373.433 111.902 C 373.964 111.752 374.273 111.199 374.122 110.667 C 373.481 108.404 372.831 106.154 372.192 103.907 L 371.23 104.18 L 372.141 104.592 C 373.034 102.618 373.45 100.518 373.45 98.435 C 373.45 96.732 373.173 95.039 372.652 93.423 C 372.482 92.897 371.919 92.609 371.393 92.778 C 370.868 92.948 370.579 93.511 370.748 94.037 Z " fill="rgb(221,119,109)"/><path d=" M 360.16 116.6 C 370.31 118.53 380.91 118.01 391.13 115.2 C 391.74 116.94 390.89 118.93 389.5 120.14 C 388.11 121.35 386.29 121.92 384.5 122.35 C 379.31 123.59 373.89 123.9 368.59 123.24 C 366.4 122.97 364.17 122.51 362.32 121.3 C 360.47 120.09 359.07 117.99 360.16 116.6 Z " fill="rgb(254,254,254)"/><path d=" M 566.23 347.66 L 651.02 345.94 L 660.61 414.81 L 560.28 410.01 L 566.23 347.66 Z " fill="rgb(53,49,74)"/><path d=" M 694.63 470.93 C 671.97 471.08 647.47 471.16 622.68 471.17 C 619.31 471.18 615.95 471.18 612.58 471.18 L 607.68 471.18 C 603.68 471.18 599.67 471.18 595.69 471.17 C 571.25 471.15 547.09 471.07 524.74 470.93 C 531.68 426.7 533.09 408.41 574.269 398.84 C 578.1 397.95 582.269 397.13 586.81 396.38 C 588.25 396.15 589.72 395.91 591.24 395.69 C 591.39 394.79 591.57 393.69 591.769 392.46 C 592.03 390.78 592.33 388.86 592.65 386.89 C 593.35 382.41 594.099 377.66 594.56 374.78 C 605.58 374.31 615.85 374.31 626.86 374.78 L 629.53 391.57 L 629.76 393.02 L 630.18 395.69 C 633.05 396.12 635.78 396.57 638.37 397.05 C 641.62 397.65 644.65 398.28 647.479 398.96 C 688.07 408.59 687.62 426.8 694.63 470.93 Z " fill="rgb(212,117,107)"/><path d=" M 629.53 391.56 C 610.82 395.23 598.68 390.47 592.65 386.88 C 593.35 382.4 594.1 377.65 594.56 374.77 C 605.58 374.3 615.85 374.3 626.86 374.77 L 629.53 391.56 Z " fill="rgb(201,103,99)"/><path d=" M 633.42 400.24 L 622.68 471.17 C 619.07 471.18 615.45 471.18 611.84 471.18 L 608.66 471.18 C 604.33 471.18 600.01 471.18 595.7 471.17 L 588.03 400.14 C 589.59 402.17 591.99 406.66 594.65 412.1 C 601.1 425.33 619.97 425.42 626.55 412.25 C 629.24 406.87 631.66 402.44 633.25 400.44 L 633.42 400.24 Z " fill="rgb(173,79,101)"/><path d=" M 608.66 471.18 C 589.8 471.18 570.939 471.14 552.8 471.07 C 543.22 471.03 533.84 470.99 524.76 470.93 C 529.34 441.72 531.52 423.82 544.32 412.29 C 552.71 404.731 565.65 399.89 586.83 396.38 L 608.66 471.18 Z " fill="rgb(112,120,154)"/><path d=" M 694.63 470.93 C 668.68 471.1 640.3 471.18 611.84 471.18 L 638.38 397.04 C 688.17 406.17 687.13 423.73 694.63 470.93 Z " fill="rgb(112,120,154)"/><clipPath id="_clipPath_R5LAUEVfwKSXfHdMt8kH3Kj4y4rsFJBB"><path d=" M 693.485 470.937 C 693.867 470.935 694.248 470.932 694.63 470.93 L 694.63 470.93 C 694.249 470.932 693.867 470.935 693.485 470.937 Z " fill="rgb(255,255,255)"/></clipPath><g clip-path="url(#_clipPath_R5LAUEVfwKSXfHdMt8kH3Kj4y4rsFJBB)"><path d=" M 693.485 470.93 L 694.63 470.93 L 694.63 470.937 L 693.485 470.937 L 693.485 470.93 Z " fill="rgb(188,204,214)"/></g><path d=" M 690.926 470.953 C 692.166 470.946 693.401 470.938 694.63 470.93 L 694.63 470.93 C 694.248 470.932 693.867 470.935 693.485 470.937 C 692.634 470.943 691.782 470.948 690.926 470.953 Z " fill="rgb(180,126,132)"/><path d=" M 694.63 470.93 C 692.534 457.732 691.104 446.851 689.045 437.826 C 691.149 446.923 692.577 457.837 694.63 470.93 Z " fill="rgb(188,204,214)"/><path d=" M 694.63 470.93 C 692.514 457.612 691.077 446.65 688.987 437.576 C 689.006 437.658 689.025 437.743 689.045 437.826 C 691.104 446.851 692.534 457.732 694.63 470.93 L 694.63 470.93 Z " fill="rgb(180,126,132)"/><path d=" M 666.59 471.07 L 666.59 441.61 C 666.59 430.83 670.4 420.3 675.77 411.82 C 682.786 418.135 686.4 426.501 688.987 437.576 C 691.077 446.65 692.514 457.612 694.63 470.93 L 694.63 470.93 C 693.401 470.938 692.166 470.946 690.926 470.953 C 683.007 471.001 674.873 471.036 666.59 471.07 Z " fill="rgb(122,132,163)"/><path d=" M 591.77 392.45 L 609.45 471.18 L 607.68 471.18 L 576.04 421.07 L 587.76 413.08 L 571.65 410.51 L 572.37 404.23 C 572.6 402.28 573.26 400.44 574.27 398.83 C 575.93 396.18 578.51 394.17 581.64 393.26 L 591.32 390.45 L 591.77 392.45 Z " fill="rgb(141,152,178)"/><path d=" M 633.94 413.08 L 645.66 421.07 L 612.58 471.18 L 610.75 471.18 L 629.77 393.02 L 630.39 390.47 L 640.06 393.28 C 643.22 394.2 645.85 396.26 647.5 398.96 C 648.47 400.54 649.1 402.34 649.32 404.24 L 650.05 410.52 L 633.94 413.08 Z " fill="rgb(141,152,178)"/><path d=" M 552.8 471.07 L 552.8 471.07 C 543.22 471.03 533.84 470.99 524.76 470.93 C 529.34 441.72 531.52 423.82 544.32 412.29 C 549.69 420.769 552.8 430.83 552.8 441.61 L 552.8 471.07 Z " fill="rgb(122,132,163)"/><path d=" M 654.18 326.81 C 654.18 356.46 633.93 386.22 608.95 386.22 C 605.34 386.22 601.82 385.6 598.45 384.44 C 578.53 377.62 563.71 352.17 563.71 326.81 L 563.71 326.62 C 563.79 297.08 584.02 278.85 608.95 278.85 C 633.92 278.85 654.18 297.16 654.18 326.81 Z " fill="rgb(212,117,107)"/><path d=" M 616.46 323.72 C 619.19 319.99 623.44 317.95 627.67 318.35 C 631.9 318.75 636.01 321.57 638.53 325.79 C 632.54 322.86 625.99 321.79 616.46 323.72 Z " fill="rgb(68,61,91)"/><path d=" M 600.99 323.72 C 598.26 319.99 594.01 317.95 589.78 318.35 C 585.55 318.75 581.439 321.57 578.92 325.79 C 584.91 322.86 591.46 321.79 600.99 323.72 Z " fill="rgb(68,61,91)"/><path d=" M 626.87 335.21 C 628.428 335.21 629.69 336.473 629.69 338.03 C 629.69 339.588 628.428 340.85 626.87 340.85 C 625.313 340.85 624.05 339.588 624.05 338.03 C 624.05 336.473 625.313 335.21 626.87 335.21 Z " fill="rgb(51,58,76)"/><path d=" M 590.61 335.21 C 592.167 335.21 593.43 336.473 593.43 338.03 C 593.43 339.588 592.167 340.85 590.61 340.85 C 589.053 340.85 587.79 339.588 587.79 338.03 C 587.79 336.473 589.053 335.21 590.61 335.21 Z " fill="rgb(51,58,76)"/><path d=" M 609.778 334.927 C 609.362 336.392 609.143 337.913 609.143 339.441 C 609.143 341.7 609.624 343.976 610.662 346.091 L 611.56 345.65 L 610.589 345.408 C 610.02 347.686 609.45 349.958 608.889 352.242 C 608.758 352.778 609.086 353.32 609.622 353.452 C 610.158 353.583 610.7 353.255 610.832 352.719 C 611.39 350.442 611.96 348.173 612.53 345.893 L 612.618 345.538 L 612.457 345.21 C 611.562 343.385 611.143 341.417 611.143 339.441 C 611.143 338.105 611.335 336.767 611.702 335.473 C 611.853 334.942 611.545 334.389 611.013 334.238 C 610.482 334.087 609.929 334.396 609.778 334.927 Z " fill="rgb(109,57,70)"/><path d=" M 615.45 372.13 C 612.88 372.87 610.19 373.17 607.53 373.01 C 608.39 374.43 610.07 375.3 611.72 375.21 C 613.37 375.11 614.93 374.04 615.45 372.13 Z " fill="rgb(201,103,99)"/><path d=" M 596.99 356.66 C 605.55 359.53 616.87 359.38 623.5 356.35 C 625.43 361.86 623.29 367.45 611.53 367.92 C 596.48 368.53 594.59 361 596.99 356.66 Z " fill="rgb(254,254,254)"/><path d=" M 676.63 412.49 C 660.2 421.12 650.87 408.47 648.17 367.21 C 644.43 310.08 633.88 294.36 621.45 289.59 C 612.67 286.23 605.94 290.42 605.94 290.42 L 605.93 290.36 C 593.36 285.71 580.9 295.07 575.69 319.25 C 571.6 338.23 572.76 388.46 567.56 404.96 C 562.37 421.45 546.03 410.78 546.03 410.78 C 560.21 401.86 552.31 365.43 557.8 326.22 C 562.76 290.78 574.26 278.23 582.9 273.03 C 585.05 271.73 587.02 270.89 588.66 270.26 C 596.83 267.16 603.86 273.39 603.86 273.39 L 603.9 273.72 C 630.22 256.54 650.85 282.19 655.5 303.72 C 660.14 325.18 662.6 352.76 664.66 373.56 C 665.32 380.21 665.939 386.17 666.57 391.02 C 668.62 406.69 676.63 412.49 676.63 412.49 Z " fill="rgb(68,61,91)"/><path d=" M 664.66 373.55 C 659.24 349.14 659.81 308.16 642.57 285.46 C 626.6 264.42 603.72 277.57 603.72 277.57 C 595.81 271.73 587.7 272.05 582.89 273.04 C 585.04 271.74 587.01 270.9 588.65 270.27 C 596.82 267.17 603.85 273.4 603.85 273.4 L 603.89 273.73 C 630.21 256.55 650.84 282.2 655.49 303.73 C 660.14 325.18 662.6 352.75 664.66 373.55 Z " fill="rgb(87,71,107)"/><path d=" M 226.72 470.93 C 173.52 471.27 110.07 471.27 56.84 470.93 C 63.17 430.61 61.31 411.86 91.37 401.6 C 98.33 399.23 107.02 397.31 117.9 395.69 L 117.91 395.64 C 118.71 390.65 120.42 379.83 121.21 374.78 C 132.23 374.31 151.3 374.31 162.31 374.78 L 165.35 393.83 L 165.56 395.13 L 165.64 395.689 C 174.98 397.1 182.69 398.71 189.09 400.64 C 222.51 410.68 220.1 429.23 226.72 470.93 Z " fill="rgb(247,165,138)"/><path d=" M 165.36 393.82 C 142.74 396.48 126.73 391 119.21 387.49 L 121.23 374.77 L 140.21 374.32 L 141.78 374.29 L 143.34 374.32 L 162.32 374.77 L 165.36 393.82 Z " fill="rgb(239,137,120)"/><path d=" M 117.94 392.72 L 141.36 410.98 L 166.3 393.07 L 166.41 409.93 L 141.59 425.97 L 114.07 399.86" fill="rgb(196,205,211)"/><path d=" M 226.72 470.93 C 215.68 471 204.21 471.05 192.48 471.09 C 158.49 471.21 122.31 471.21 88.43 471.08 C 77.62 471.04 67.04 471 56.84 470.93 C 61.8 439.26 61.73 420.91 76.03 409.51 C 79.93 406.39 84.92 403.8 91.37 401.6 L 105.43 401.8 L 141.72 425.14 L 189.09 400.63 C 196.19 402.77 201.67 405.29 205.96 408.34 C 221.89 419.6 221.51 438.09 226.72 470.93 Z " fill="rgb(48,46,69)"/><path d=" M 226.72 470.93 C 215.68 471 204.21 471.05 192.48 471.09 L 192.48 442.21 C 192.48 429.1 197.6 417.18 205.96 408.34 C 221.89 419.6 221.51 438.09 226.72 470.93 Z " fill="rgb(56,51,79)"/><path d=" M 88.44 442.21 L 88.44 471.08 C 77.63 471.04 67.05 471 56.85 470.93 C 61.81 439.26 61.74 420.91 76.04 409.51 C 83.75 418.22 88.44 429.67 88.44 442.21 Z " fill="rgb(56,51,79)"/><path d=" M 141.38 410.9 L 134.51 419.29 L 117.43 400.97 L 118.07 392.88 L 141.38 410.9 Z " fill="rgb(254,254,254)"/><path d=" M 166.01 392.97 L 141.33 411 L 148.44 419.59 L 169.72 395.25 L 166.01 392.97 Z " fill="rgb(254,254,254)"/><path d=" M 118.28 395.73 L 120.19 381.97 C 120.19 381.97 106.21 377.11 97.26 394.27 L 141.79 426.71 L 186.28 395.68 C 186.28 395.68 177.04 378.82 163.31 380.92 L 165.56 394.93 L 141.79 424.8 L 118.28 395.73 Z " fill="rgb(68,61,91)"/><path d=" M 142.18 426.57 L 184.6 392.72 C 184.6 392.72 189.98 391.47 194.55 394.8 C 198.22 397.47 197.48 403.17 193.3 404.94 L 142.18 426.57 Z " fill="rgb(56,51,79)"/><path d=" M 141.72 426.46 L 98.62 392.72 C 98.62 392.72 91.97 390.17 87.35 395.71 C 85.19 398.3 86.24 402.25 89.32 403.6 L 141.72 426.46 Z " fill="rgb(56,51,79)"/><path d=" M 148.869 422.406 C 148.519 424.232 148.379 426.064 148.379 427.897 C 148.386 435.546 150.794 443.215 150.787 450.656 C 150.787 452.467 150.646 454.263 150.299 456.044 C 150.246 456.315 150.423 456.578 150.694 456.63 C 150.965 456.683 151.228 456.506 151.281 456.235 C 151.642 454.38 151.787 452.518 151.787 450.656 C 151.78 443.005 149.372 435.337 149.379 427.897 C 149.379 426.115 149.516 424.347 149.851 422.594 C 149.903 422.323 149.725 422.061 149.454 422.009 C 149.183 421.957 148.921 422.135 148.869 422.406 Z " fill="rgb(254,254,254)"/><path d=" M 132.766 422.085 C 134.574 424.553 135.285 427.648 135.284 430.805 C 135.284 432.076 135.169 433.354 134.966 434.599 C 134.27 438.959 132.608 443.157 131.534 447.552 C 130.969 449.849 130.574 452.26 130.574 454.655 C 130.574 456.845 130.905 459.024 131.747 461.079 C 131.852 461.335 132.144 461.457 132.4 461.352 C 132.655 461.248 132.777 460.956 132.673 460.7 C 131.89 458.791 131.574 456.745 131.574 454.655 C 131.574 452.37 131.953 450.035 132.506 447.789 C 133.553 443.483 135.23 439.261 135.954 434.759 C 136.164 433.467 136.284 432.136 136.284 430.805 C 136.284 427.504 135.544 424.189 133.573 421.495 C 133.41 421.272 133.097 421.223 132.875 421.387 C 132.652 421.55 132.603 421.863 132.766 422.085 Z " fill="rgb(254,254,254)"/><path d=" M 189.6 308.57 C 189.52 320.54 188.96 332.76 184.63 343.93 C 180.29 355.1 171.56 365.19 160.28 368.75 C 146.76 367.15 133.26 365.53 120.42 363.96 C 116.76 362.35 115.91 360.67 108.01 357.83 C 97.03 344.47 92.38 327.9 93.1 311.67 C 93.26 307.96 93.7 304.28 94.4 300.66 C 90.61 299.23 89.37 296.26 89.52 293.47 C 89.66 290.69 90.98 288.09 92.6 285.82 C 97.2 279.37 104.5 274.9 112.37 273.72 C 111.35 271.07 112.2 268.309 113.93 266.67 C 115.65 265.03 118.03 264.27 120.35 263.72 C 133.5 260.62 147.74 263.01 159.48 270.17 C 164.32 273.13 168.73 276.89 172.48 281.41 C 177.29 282 182.18 282.9 186.46 285.19 C 190.74 287.48 194.38 291.36 195.32 296.1 C 196.26 300.84 193.91 306.32 189.6 308.57 Z " fill="rgb(210,119,74)"/><path d=" M 183.062 330.401 C 190.637 327.96 198.347 330.852 200.283 336.86 C 202.219 342.869 197.648 349.718 190.073 352.159 C 182.498 354.6 174.789 351.708 172.853 345.699 C 170.916 339.691 175.487 332.842 183.062 330.401 Z " fill="rgb(239,137,120)"/><path d=" M 187.203 349.504 C 183.405 349.504 180.178 347.51 179.476 344.435 C 178.728 341.157 181.102 337.739 184.939 336.21 C 184.915 338.03 184.805 339.976 184.71 342.16 C 185.433 340.04 186 337.893 186.436 335.73 C 186.5 335.715 186.565 335.699 186.629 335.685 C 187.48 335.49 188.325 335.398 189.143 335.398 C 192.94 335.398 196.169 337.392 196.87 340.467 C 197.723 344.204 194.519 348.122 189.716 349.218 C 188.865 349.412 188.021 349.504 187.203 349.504 Z " fill="rgb(220,119,110)"/><path d=" M 194.69 337.13 C 192.53 335.4 189.78 334.49 187.05 334.63 C 184.33 334.76 181.66 335.93 179.67 337.86 C 179.78 338.58 179.88 339.3 179.99 340.02 C 181.86 337.88 184.45 336.45 187.2 336.02 C 189.95 335.58 192.83 336.16 194.69 337.13 Z " fill="rgb(181,88,97)"/><path d=" M 81.789 336.834 C 83.725 330.825 91.435 327.934 99.01 330.374 C 106.584 332.814 111.156 339.664 109.22 345.673 C 107.284 351.681 99.574 354.573 91.999 352.132 C 84.424 349.691 79.853 342.842 81.789 336.834 Z " fill="rgb(239,137,120)"/><path d=" M 94.904 349.465 C 94.086 349.465 93.242 349.373 92.391 349.179 C 87.588 348.083 84.385 344.165 85.237 340.428 C 85.939 337.354 89.167 335.359 92.965 335.359 C 93.783 335.359 94.627 335.451 95.478 335.645 C 95.662 335.687 95.844 335.734 96.023 335.784 C 96.743 339.804 97.731 343.74 98.95 347.5 L 98.95 347.5 L 98.95 347.5 C 98.203 343.237 97.895 339.783 98.1 336.593 C 101.381 338.271 103.317 341.392 102.631 344.396 C 101.93 347.47 98.702 349.465 94.904 349.465 Z " fill="rgb(220,119,110)"/><path d=" M 87.4 337.13 C 89.56 335.4 92.31 334.49 95.04 334.63 C 97.77 334.77 100.43 335.93 102.42 337.86 C 102.31 338.58 102.21 339.3 102.1 340.02 C 100.23 337.88 97.64 336.45 94.89 336.02 C 92.14 335.58 89.26 336.16 87.4 337.13 Z " fill="rgb(181,88,97)"/><path d=" M 186.27 326.8 C 186.27 356.45 166.02 386.21 141.04 386.21 C 137.43 386.21 133.91 385.59 130.54 384.43 C 110.62 377.61 95.8 352.16 95.8 326.8 L 95.8 326.61 C 95.88 297.07 116.11 278.84 141.04 278.84 C 166.02 278.84 186.27 297.15 186.27 326.8 Z " fill="rgb(247,165,138)"/><path d=" M 129.76 326.57 C 127.06 323.67 122.71 321.94 117.93 322.28 C 113.16 322.61 109.1 324.92 106.83 328.15 C 106.98 322.28 111.57 317.38 117.55 316.96 C 123.55 316.54 128.79 320.76 129.76 326.57 Z " fill="rgb(210,119,74)"/><path d=" M 152.33 326.57 C 155.03 323.67 159.38 321.94 164.16 322.28 C 168.93 322.61 172.99 324.92 175.26 328.15 C 175.11 322.28 170.52 317.38 164.54 316.96 C 158.54 316.54 153.3 320.76 152.33 326.57 Z " fill="rgb(210,119,74)"/><path d=" M 122.68 334.19 C 124.237 334.19 125.5 335.452 125.5 337.01 C 125.5 338.567 124.237 339.83 122.68 339.83 C 121.123 339.83 119.86 338.567 119.86 337.01 C 119.86 335.452 121.123 334.19 122.68 334.19 Z " fill="rgb(51,58,76)"/><path d=" M 158.95 334.19 C 160.507 334.19 161.77 335.452 161.77 337.01 C 161.77 338.567 160.507 339.83 158.95 339.83 C 157.393 339.83 156.13 338.567 156.13 337.01 C 156.13 335.452 157.393 334.19 158.95 334.19 Z " fill="rgb(51,58,76)"/><path d=" M 137.81 369.93 C 140.4 370.56 143.1 370.75 145.76 370.49 C 144.96 371.94 143.32 372.89 141.66 372.85 C 140 372.81 138.41 371.82 137.81 369.93 Z " fill="rgb(221,119,109)"/><path d=" M 139.866 335.215 C 139.582 336.442 139.434 337.699 139.434 338.96 C 139.434 341.476 140.025 344.009 141.307 346.307 L 142.18 345.82 L 141.199 345.628 C 140.749 347.925 140.289 350.215 139.838 352.518 C 139.732 353.06 140.086 353.585 140.628 353.691 C 141.17 353.797 141.695 353.444 141.801 352.902 C 142.251 350.605 142.711 348.315 143.162 346.012 L 143.232 345.653 L 143.054 345.333 C 141.95 343.354 141.434 341.165 141.434 338.96 C 141.434 337.856 141.564 336.749 141.814 335.666 C 141.939 335.128 141.603 334.59 141.065 334.466 C 140.527 334.342 139.99 334.677 139.866 335.215 Z " fill="rgb(221,119,109)"/><path d=" M 128.977 359.762 C 132.655 361.528 136.716 362.397 140.776 362.397 C 145.734 362.396 150.697 361.101 154.967 358.526 C 155.44 358.241 155.592 357.626 155.306 357.153 C 155.021 356.681 154.407 356.528 153.934 356.814 C 150 359.187 145.386 360.398 140.776 360.397 C 137.001 360.397 133.232 359.587 129.843 357.959 C 129.345 357.72 128.748 357.93 128.509 358.427 C 128.27 358.925 128.479 359.523 128.977 359.762 Z " fill="rgb(221,119,109)"/><path d=" M 151.22 275.4 C 136.13 271.769 118.8 274.24 107.66 285.05 C 99.75 292.73 95.75 303.79 94.89 314.79 C 94.03 325.79 95.64 337.29 98.95 347.5 C 97.51 339.28 97.7 334.07 100.06 327.95 C 102.42 321.83 105.73 316 106.95 309.55 C 109.14 312.71 114.24 313.14 118.59 311.9 C 122.94 310.66 126.71 307.981 130.39 305.36 C 128.83 307.6 130.11 310.17 132.07 311.36 C 134.03 312.55 136.45 312.67 138.74 312.54 C 149.56 311.93 160.01 306.36 167.16 298.23 C 167.73 301.96 168.35 305.82 170.39 308.99 C 172.43 312.16 176.31 314.49 179.87 314.31 C 180.52 318.96 182.48 323.31 183.9 327.8 C 185.32 332.29 184.96 336.4 184.71 342.16 C 187.23 334.77 187.86 327.05 187.62 319.53 C 187.38 312.01 185.69 304.41 181.82 297.95 C 175.31 287.06 164.08 278.49 151.22 275.4 Z " fill="rgb(210,119,74)"/><path d=" M 89.508 293.912 C 89.508 293.775 89.511 293.639 89.518 293.502 C 89.511 293.639 89.508 293.775 89.508 293.912 Z  M 89.52 293.47 C 89.66 290.7 90.97 288.11 92.581 285.847 C 90.97 288.11 89.66 290.701 89.52 293.47 Z " fill="rgb(240,191,140)"/><path d=" M 93.1 311.67 C 93.26 307.96 93.7 304.28 94.4 300.66 L 94.4 300.66 L 94.4 300.66 L 94.4 300.66 C 90.81 299.305 89.508 296.569 89.508 293.912 C 89.508 293.775 89.511 293.639 89.518 293.502 C 89.519 293.492 89.519 293.481 89.52 293.47 L 89.52 293.47 C 89.66 290.701 90.97 288.11 92.581 285.847 C 92.587 285.838 92.594 285.829 92.6 285.82 C 97.2 279.37 104.5 274.9 112.37 273.72 L 112.37 273.72 L 112.37 273.72 C 112.067 272.933 111.929 272.137 111.93 271.363 C 111.932 269.53 112.714 267.823 113.93 266.67 C 115.65 265.03 118.03 264.27 120.35 263.72 C 124.127 262.832 127.995 262.397 131.866 262.397 C 141.472 262.397 151.105 265.076 159.48 270.18 C 153.071 268.149 146.346 267.089 139.626 267.089 C 138.072 267.089 136.519 267.145 134.97 267.26 C 132.19 267.46 129.29 267.9 127.08 269.59 C 125.295 270.94 124.17 273.344 124.561 275.617 C 121.876 276.362 119.278 277.347 116.814 278.586 C 112.453 279.695 108.247 281.417 104.37 283.7 C 101.7 285.28 99.09 287.24 97.79 290.05 C 96.685 292.466 96.908 295.615 98.987 297.833 C 98.216 299.61 97.553 301.442 96.997 303.309 C 95.381 305.934 94.073 308.751 93.1 311.67 Z " fill="rgb(238,157,97)"/><path d=" M 96.997 303.309 C 97.553 301.442 98.216 299.61 98.987 297.833 C 99.335 298.204 99.735 298.549 100.19 298.86 C 99.021 300.264 97.955 301.752 96.997 303.309 Z  M 116.814 278.586 C 119.278 277.347 121.876 276.362 124.561 275.617 C 124.656 276.172 124.842 276.718 125.13 277.24 C 122.326 277.44 119.539 277.893 116.814 278.586 Z " fill="rgb(238,157,97)"/><path d=" M 570.95 70.62 L 657.11 78.86 L 658.72 131.52 L 658.01 168.77 L 558.95 168.06 L 561.28 147.82 L 570.95 70.62 Z " fill="rgb(223,114,64)"/><path d=" M 694.63 228.85 C 685.46 228.91 676.07 228.95 666.52 228.99 C 627.33 229.15 585.56 229.13 546.64 228.96 C 539.23 228.93 531.92 228.89 524.75 228.85 C 525.51 220.37 526.53 212.79 527.92 206.02 C 528.65 202.43 529.48 199.08 530.43 195.94 C 532.12 190.34 534.18 185.41 536.72 181.08 C 543.83 168.85 554.63 161.42 571.11 157.11 C 577.05 155.56 583.73 154.42 591.25 153.6 C 591.63 151.27 592.09 148.44 592.55 145.52 C 593.29 140.83 594.05 135.96 594.57 132.69 C 605.59 132.22 615.86 132.22 626.87 132.69 C 627.28 135.3 629.06 146.42 629.86 151.5 C 630.01 152.44 630.13 153.17 630.2 153.6 C 635.84 154.21 640.99 155 645.69 156.02 C 664.59 160.08 676.17 167.7 683.48 181.07 C 685.95 185.59 687.93 190.77 689.53 196.7 C 690.439 200.07 691.24 203.67 691.93 207.53 C 693.06 213.91 693.93 221 694.63 228.85 Z " fill="rgb(250,190,161)"/><path d=" M 629.85 151.5 C 610.92 156.58 598.61 150.25 592.54 145.52 C 593.28 140.83 594.04 135.96 594.56 132.69 C 605.58 132.22 615.85 132.22 626.86 132.69 C 627.27 135.3 629.04 146.42 629.85 151.5 Z " fill="rgb(237,152,129)"/><path d=" M 691.92 207.53 L 659.16 214.38 L 657.74 194.37 L 683.46 181.07 C 685.93 185.59 687.91 190.77 689.51 196.7 C 690.42 200.07 691.22 203.67 691.92 207.53 Z " fill="rgb(237,152,129)"/><path d=" M 564.73 193.43 L 559.78 215.8 L 527.92 206.02 C 528.65 202.43 529.48 199.08 530.43 195.94 C 532.12 190.34 534.18 185.41 536.72 181.08 L 564.73 193.43 Z " fill="rgb(237,152,129)"/><path d=" M 667.85 208.01 C 667.85 208.01 671.87 219.57 672.67 228.99 C 633.48 229.15 585.55 229.13 546.63 228.96 C 547.08 223.73 549.34 215.34 553.12 206.73 L 526.73 194.12 C 526.73 194.12 539.22 160.87 573.24 155.3 C 573.24 155.3 585.99 192.96 611.19 197.54 C 611.19 197.54 640.11 187.83 643.49 154.69 C 643.49 154.69 680.92 158.09 694.84 194.53 L 667.85 208.01 Z " fill="rgb(173,79,101)"/><path d=" M 667.89 205.8 C 666.7 198.12 664.69 190.57 661.91 183.32 C 666.68 189.58 668.92 197.7 667.89 205.8 Z " fill="rgb(131,59,82)"/><path d=" M 554.47 204.98 C 557 197.59 559.85 190.3 562.99 183.14 C 557.68 189.07 554.65 197 554.47 204.98 Z " fill="rgb(131,59,82)"/><path d=" M 650.674 90.187 C 658.249 87.746 665.959 90.638 667.894 96.646 C 669.831 102.654 665.26 109.503 657.685 111.944 C 650.11 114.385 642.4 111.493 640.464 105.485 C 638.528 99.477 643.099 92.627 650.674 90.187 Z " fill="rgb(250,190,161)"/><path d=" M 654.831 109.271 C 651.033 109.271 647.805 107.277 647.103 104.202 C 646.251 100.465 649.454 96.547 654.257 95.451 C 655.108 95.257 655.952 95.165 656.77 95.165 C 660.568 95.165 663.796 97.159 664.497 100.234 C 665.35 103.971 662.147 107.889 657.344 108.984 C 656.493 109.178 655.648 109.271 654.831 109.271 Z " fill="rgb(243,162,137)"/><path d=" M 662.29 96.9 C 660.13 95.17 657.38 94.26 654.65 94.4 C 651.93 94.53 649.26 95.7 647.27 97.63 C 647.38 98.35 647.48 99.07 647.59 99.79 C 649.46 97.65 652.05 96.22 654.8 95.79 C 657.54 95.35 660.43 95.94 662.29 96.9 Z " fill="rgb(197,114,107)"/><path d=" M 654.18 84.73 C 654.18 114.38 633.93 144.14 608.95 144.14 C 605.34 144.14 601.82 143.52 598.45 142.36 C 578.53 135.54 563.71 110.09 563.71 84.73 L 563.71 84.54 C 563.79 55 584.02 36.77 608.95 36.77 C 633.92 36.77 654.18 55.08 654.18 84.73 Z " fill="rgb(250,190,161)"/><path d=" M 674.53 180.72 C 643.95 184.62 651.18 143.02 653.8 112.71 C 655.09 112.61 656.39 112.34 657.7 111.92 C 661.18 110.79 664.04 108.74 665.9 106.26 C 664.99 125.08 661.87 143.22 662.271 154.27 C 663.08 177.16 674.53 180.72 674.53 180.72 Z " fill="rgb(238,144,72)"/><path d=" M 599.76 81.74 C 597.06 77.98 592.84 75.9 588.6 76.26 C 584.37 76.61 580.23 79.39 577.67 83.59 C 583.69 80.72 590.25 79.72 599.76 81.74 Z " fill="rgb(238,144,72)"/><path d=" M 617.95 81.64 C 620.68 77.91 624.93 75.87 629.16 76.27 C 633.39 76.67 637.5 79.49 640.01 83.71 C 634.03 80.77 627.48 79.71 617.95 81.64 Z " fill="rgb(238,144,72)"/><path d=" M 591.56 93.12 C 593.117 93.12 594.38 94.382 594.38 95.94 C 594.38 97.498 593.117 98.76 591.56 98.76 C 590.003 98.76 588.74 97.498 588.74 95.94 C 588.74 94.382 590.003 93.12 591.56 93.12 Z " fill="rgb(51,58,76)"/><path d=" M 627.82 93.12 C 629.377 93.12 630.64 94.382 630.64 95.94 C 630.64 97.498 629.377 98.76 627.82 98.76 C 626.263 98.76 625 97.498 625 95.94 C 625 94.382 626.263 93.12 627.82 93.12 Z " fill="rgb(51,58,76)"/><path d=" M 604.489 93.437 C 604.948 94.861 605.19 96.351 605.19 97.839 C 605.19 99.662 604.828 101.481 604.058 103.189 L 603.908 103.522 L 604.008 103.873 C 604.649 106.136 605.299 108.386 605.938 110.643 C 606.089 111.174 606.642 111.483 607.173 111.332 C 607.704 111.182 608.013 110.629 607.863 110.097 C 607.221 107.834 606.572 105.584 605.932 103.327 L 604.97 103.6 L 605.881 104.011 C 606.774 102.031 607.19 99.927 607.19 97.839 C 607.19 96.134 606.913 94.439 606.392 92.823 C 606.223 92.297 605.659 92.009 605.134 92.178 C 604.608 92.348 604.319 92.911 604.489 93.437 Z " fill="rgb(197,114,107)"/><path d=" M 604.96 126.64 C 607.57 127.18 610.28 127.27 612.93 126.91 C 612.18 128.39 610.58 129.39 608.92 129.42 C 607.27 129.45 605.63 128.5 604.96 126.64 Z " fill="rgb(243,162,137)"/><path d=" M 598.595 118.696 C 598.678 118.734 602.39 120.687 607.492 120.693 C 611.103 120.698 615.435 119.68 619.483 116.276 C 619.906 115.92 619.961 115.29 619.606 114.867 C 619.251 114.444 618.62 114.389 618.197 114.744 C 614.535 117.812 610.745 118.687 607.492 118.693 C 605.201 118.693 603.189 118.246 601.759 117.797 C 601.044 117.573 600.475 117.35 600.09 117.185 C 599.897 117.103 599.751 117.035 599.655 116.989 L 599.549 116.937 L 599.527 116.926 L 599.524 116.924 C 599.035 116.668 598.43 116.857 598.174 117.346 C 597.917 117.835 598.106 118.439 598.595 118.696 Z " fill="rgb(197,114,107)"/><path d=" M 666.11 93.42 C 663.43 90.28 658.67 88.74 653.63 89.48 C 643.54 64.93 605.99 47.44 605.99 47.44 C 597.76 48.99 578.32 61.46 574.27 83.02 C 569.47 108.52 569.26 144.47 565.75 156.67 C 562.24 168.86 546.74 168.92 546.74 168.92 C 549.48 163.91 552.6 157.83 555.07 147.52 C 557.7 136.62 559.61 120.99 559.61 96.89 C 559.61 50.01 576.24 39.45 586.79 35 C 597.35 30.55 606.12 33.31 606.12 33.31 C 612.85 29.15 624.55 23.24 642.43 38.85 C 646.08 42.05 649.99 46.14 654.17 51.33 C 662.94 62.22 665.78 77.55 666.11 93.42 Z " fill="rgb(238,144,72)"/><path d=" M 642.44 38.85 C 639.84 37.4 637.13 36.17 634.27 35.23 C 625.4 32.33 614.97 32.85 607.71 39.45 C 597.77 35.89 586.24 39.81 578.66 47.16 C 571.08 54.51 566.92 64.73 564.51 75.01 C 567.06 66.54 571.96 58.8 579.93 52.48 C 571 61.53 566.83 74.27 564.96 86.84 C 563.09 99.41 563.23 112.21 561.47 124.79 C 560.38 132.58 558.45 140.45 555.07 147.52 C 557.7 136.62 559.61 120.99 559.61 96.89 C 559.61 50.01 576.24 39.45 586.79 35 C 597.35 30.55 606.12 33.31 606.12 33.31 C 612.85 29.15 624.56 23.24 642.44 38.85 Z " fill="rgb(248,162,88)"/><path d=" M 324.87 344.16 C 324.87 344.16 324.57 363.75 319.39 380.98 C 314.21 398.21 310.13 413.84 319.59 422.5 C 329.05 431.16 359.74 416.04 359.74 416.04 L 375.41 377.66 L 347.6 336.34 L 324.87 344.16 Z " fill="rgb(51,58,76)"/><path d=" M 437.97 392.31 C 437.97 392.31 446.27 403.93 442.85 418.52 L 390.87 403.44 L 363.81 298.32 L 358.5 277.68 L 357.37 273.3 C 357.37 273.3 357.9 272.89 358.9 272.21 C 365.6 267.67 393.19 251.47 417.71 273.44 C 439.88 293.3 440.08 321.82 436.86 335.73 C 434.86 344.41 431.43 354.34 430.21 362.78 C 429.47 367.86 429.53 372.39 431.18 375.8 C 435.559 384.89 445.12 391.15 449.71 390.49 C 449.7 390.49 443.01 394.97 437.97 392.31 Z " fill="rgb(51,58,76)"/><path d=" M 337.4 346.12 C 337.4 346.12 338.31 366.65 331.13 381.37 C 323.95 396.09 317.69 411.69 324.87 423.05 C 332.05 434.41 421.02 421.91 421.02 421.91 L 425.13 389.79 L 422.39 354.731 L 337.4 346.12 Z " fill="rgb(42,46,62)"/><path d=" M 464.75 470.93 C 408.71 471.269 350.74 471.26 294.87 470.93 C 297.77 426.17 309.87 407.31 361.37 395.69 C 361.65 393.98 361.97 391.96 362.31 389.84 C 363.15 384.559 364.08 378.58 364.68 374.78 C 375.7 374.31 385.97 374.31 396.98 374.78 C 397.35 377.08 398.43 383.87 399.34 389.57 C 399.72 391.94 400.06 394.1 400.32 395.69 C 452.46 407.97 461.98 427.34 464.75 470.93 Z " fill="rgb(243,144,123)"/><path d=" M 464.75 470.93 C 452.88 471.01 440.92 471.06 428.91 471.1 C 396.15 471.21 363.02 471.2 330.32 471.09 C 318.43 471.05 306.6 471.01 294.87 470.93 C 297 438.03 301.44 419.52 324.08 407.4 C 332.24 403.03 342.76 399.49 356.38 396.41 L 356.45 396.39 C 356.63 395.33 356.54 392.19 356.53 389.44 C 356.53 387.54 358.42 386.21 360.19 386.88 C 373.01 391.73 388.43 391.23 401.73 386.04 C 403.14 385.5 404.66 386.48 404.71 387.99 C 404.79 390.63 404.79 394.24 404.91 395.75 C 404.93 395.92 404.94 396.06 404.96 396.17 C 417.84 399.2 427.83 402.64 435.62 406.75 C 459.38 419.28 462.67 438.1 464.75 470.93 Z " fill="rgb(253,207,117)"/><path d=" M 330.32 471.09 L 330.32 471.09 C 318.43 471.05 306.6 471.01 294.87 470.93 C 297 438.03 301.44 419.52 324.08 407.4 C 328.02 413.12 330.32 420.06 330.32 427.53 L 330.32 471.09 Z " fill="rgb(246,186,109)"/><path d=" M 448.563 416.044 C 447.083 414.563 445.459 413.153 443.673 411.807 C 443.673 411.806 443.673 411.807 443.673 411.806 C 445.458 413.151 447.084 414.563 448.563 416.044 Z " fill="rgb(236,200,156)"/><path d=" M 443.673 411.807 C 441.288 410.011 438.618 408.331 435.62 406.75 C 435.616 406.748 435.612 406.746 435.608 406.744 C 435.609 406.743 435.61 406.741 435.61 406.74 C 438.612 408.324 441.285 410.006 443.673 411.806 C 443.673 411.807 443.673 411.806 443.673 411.807 Z " fill="rgb(148,116,89)"/><path d=" M 428.91 471.1 L 428.91 427.53 C 428.91 419.771 431.399 412.593 435.608 406.744 C 435.612 406.746 435.616 406.748 435.62 406.75 C 438.618 408.331 441.288 410.011 443.673 411.807 C 445.459 413.153 447.083 414.563 448.563 416.044 C 460.774 428.27 463.129 445.345 464.75 470.93 C 452.88 471.01 440.92 471.06 428.91 471.1 Z " fill="rgb(246,186,109)"/><path d=" M 404.9 395.74 L 404.72 396.05 C 376.74 410.98 356.42 396.43 356.42 396.43 L 356.37 396.4 L 356.44 396.38 C 356.62 395.32 356.53 392.18 356.52 389.43 C 356.52 387.53 358.41 386.2 360.18 386.87 C 373 391.72 388.42 391.22 401.72 386.03 C 403.13 385.49 404.65 386.47 404.7 387.98 C 404.79 390.62 404.78 394.231 404.9 395.74 Z " fill="rgb(244,171,105)"/><path d=" M 380.54 401.08 C 380.264 401.08 380.04 400.856 380.04 400.58 C 380.04 397.629 380.05 394.689 380.06 391.748 L 380.06 391.748 C 380.061 391.473 380.284 391.25 380.56 391.25 C 380.56 391.25 380.561 391.25 380.561 391.25 C 380.837 391.251 381.06 391.475 381.06 391.752 C 381.05 394.692 381.04 397.631 381.04 400.58 C 381.04 400.856 380.816 401.08 380.54 401.08 Z " fill="rgb(215,132,91)"/><path d=" M 391.26 399.73 C 390.984 399.73 390.76 399.507 390.76 399.23 C 390.76 396.519 390.76 393.81 390.76 391.1 C 390.76 390.823 390.984 390.6 391.26 390.6 C 391.536 390.6 391.76 390.823 391.76 391.1 C 391.76 393.81 391.76 396.519 391.76 399.23 C 391.76 399.507 391.536 399.73 391.26 399.73 Z " fill="rgb(215,132,91)"/><path d=" M 401.429 397.09 C 401.159 397.09 400.937 396.875 400.93 396.603 C 400.861 394.025 400.781 391.435 400.71 388.853 C 400.703 388.577 400.92 388.348 401.196 388.34 C 401.201 388.34 401.206 388.34 401.21 388.34 C 401.48 388.34 401.702 388.555 401.71 388.826 C 401.78 391.405 401.86 393.995 401.93 396.576 C 401.937 396.852 401.719 397.082 401.443 397.09 C 401.439 397.09 401.434 397.09 401.429 397.09 Z " fill="rgb(215,132,91)"/><path d=" M 359.76 397.53 C 359.758 397.53 359.757 397.53 359.756 397.53 C 359.48 397.528 359.258 397.302 359.26 397.026 C 359.28 394.455 359.31 391.895 359.33 389.326 C 359.332 389.051 359.555 388.83 359.83 388.83 C 359.831 388.83 359.832 388.83 359.834 388.83 C 360.11 388.832 360.332 389.058 360.33 389.334 C 360.31 391.906 360.28 394.465 360.26 397.034 C 360.258 397.309 360.034 397.53 359.76 397.53 Z " fill="rgb(215,132,91)"/><path d=" M 368.69 399.46 C 368.685 399.46 368.68 399.46 368.674 399.46 C 368.398 399.451 368.182 399.22 368.19 398.944 C 368.27 396.345 368.35 393.744 368.43 391.145 C 368.439 390.874 368.661 390.66 368.93 390.66 C 368.935 390.66 368.94 390.66 368.946 390.66 C 369.222 390.669 369.438 390.9 369.43 391.176 C 369.35 393.775 369.27 396.376 369.19 398.975 C 369.181 399.246 368.959 399.46 368.69 399.46 Z " fill="rgb(215,132,91)"/><path d=" M 318.797 338.686 C 320.733 332.678 328.443 329.785 336.018 332.227 C 343.593 334.667 348.164 341.517 346.228 347.524 C 344.292 353.533 336.582 356.425 329.007 353.984 C 321.432 351.543 316.861 344.694 318.797 338.686 Z " fill="rgb(247,165,138)"/><path d=" M 331.917 351.307 C 331.099 351.307 330.255 351.215 329.404 351.02 C 324.601 349.925 321.398 346.008 322.25 342.271 C 322.951 339.196 326.18 337.201 329.978 337.201 C 330.796 337.201 331.639 337.293 332.491 337.487 C 337.294 338.583 340.497 342.501 339.644 346.238 C 338.943 349.312 335.714 351.307 331.917 351.307 Z " fill="rgb(241,143,124)"/><path d=" M 324.42 338.99 C 326.58 337.26 329.33 336.35 332.06 336.49 C 334.78 336.62 337.45 337.79 339.44 339.72 C 339.33 340.44 339.23 341.16 339.12 341.88 C 337.25 339.74 334.66 338.31 331.91 337.88 C 329.16 337.45 326.28 338.02 324.42 338.99 Z " fill="rgb(181,88,97)"/><path d=" M 424.29 326.81 C 424.29 356.46 404.04 386.22 379.06 386.22 C 375.45 386.22 371.93 385.6 368.56 384.44 C 348.64 377.62 333.82 352.17 333.82 326.81 L 333.82 326.62 C 333.9 297.08 354.13 278.85 379.06 278.85 C 404.04 278.85 424.29 297.16 424.29 326.81 Z " fill="rgb(247,165,138)"/><path d=" M 369.88 323.83 C 367.18 320.07 362.96 317.99 358.72 318.35 C 354.49 318.7 350.35 321.48 347.79 325.68 C 353.81 322.8 360.37 321.8 369.88 323.83 Z " fill="rgb(51,58,76)"/><path d=" M 388.07 323.72 C 390.8 319.99 395.05 317.95 399.28 318.35 C 403.51 318.75 407.62 321.57 410.14 325.79 C 404.15 322.86 397.6 321.79 388.07 323.72 Z " fill="rgb(51,58,76)"/><path d=" M 361.67 335.21 C 363.228 335.21 364.49 336.473 364.49 338.03 C 364.49 339.588 363.228 340.85 361.67 340.85 C 360.113 340.85 358.85 339.588 358.85 338.03 C 358.85 336.473 360.113 335.21 361.67 335.21 Z " fill="rgb(51,58,76)"/><path d=" M 397.94 335.21 C 399.497 335.21 400.76 336.473 400.76 338.03 C 400.76 339.588 399.497 340.85 397.94 340.85 C 396.383 340.85 395.12 339.588 395.12 338.03 C 395.12 336.473 396.383 335.21 397.94 335.21 Z " fill="rgb(51,58,76)"/><path d=" M 381.608 334.903 C 381.087 336.519 380.81 338.214 380.81 339.919 C 380.81 342.007 381.226 344.111 382.119 346.091 L 383.03 345.68 L 382.068 345.407 C 381.428 347.665 380.779 349.915 380.138 352.177 C 379.987 352.709 380.295 353.262 380.827 353.412 C 381.358 353.563 381.911 353.254 382.062 352.723 C 382.701 350.466 383.351 348.216 383.992 345.952 L 384.092 345.601 L 383.942 345.269 C 383.172 343.561 382.81 341.742 382.81 339.919 C 382.81 338.431 383.052 336.941 383.511 335.517 C 383.681 334.991 383.392 334.428 382.866 334.258 C 382.341 334.089 381.777 334.377 381.608 334.903 Z " fill="rgb(221,118,110)"/><path d=" M 383.04 368.73 C 380.43 369.27 377.72 369.36 375.07 369 C 375.82 370.48 377.42 371.48 379.08 371.51 C 380.74 371.54 382.38 370.59 383.04 368.73 Z " fill="rgb(239,137,120)"/><path d=" M 388.486 359.015 L 388.483 359.016 C 388.351 359.088 384.955 360.789 380.518 360.783 C 377.265 360.778 373.474 359.902 369.813 356.834 C 369.39 356.479 368.759 356.534 368.404 356.957 C 368.049 357.38 368.104 358.01 368.527 358.365 C 372.574 361.77 376.906 362.789 380.518 362.783 C 385.62 362.777 389.332 360.825 389.415 360.786 C 389.904 360.53 390.092 359.925 389.836 359.436 C 389.579 358.947 388.975 358.758 388.486 359.015 Z " fill="rgb(221,118,110)"/><path d=" M 367.31 293.2 C 366.67 294.93 365.44 296.63 363.82 298.32 C 357.2 305.25 344.2 312.22 339.92 322.01 C 335.52 332.06 335.49 341.94 335.49 341.94 C 333.6 336.66 331.52 331.38 331.52 331.38 L 325.05 332.53 C 324.66 321.24 324.01 297.35 334.14 283.06 L 334.35 282.78 C 341.69 272.66 351.84 271.48 358.9 272.21 C 363.79 272.71 367.22 274.12 367.22 274.12 C 367.22 274.12 367.57 275.21 367.93 276.97 C 368.69 280.65 369.49 287.26 367.31 293.2 Z " fill="rgb(51,58,76)"/><path d=" M 429.22 397.9 C 427.47 388.19 428.43 372.9 429.76 358.69 C 429.24 356.19 429.13 353.6 429.5 351.1 C 429.04 344.25 429.82 337 431.41 330.72 C 429.52 318.25 422.38 296.59 411.6 282.1 C 406.04 280.11 400.22 278.92 394.29 278.05 C 389.62 277.37 384.95 276.81 380.22 276.91 C 376.46 276.99 372.7 277.71 368.95 277.54 C 367.15 279.41 365.33 281.56 363.49 284.02 C 363.49 284.02 366.41 292.35 378.18 292.35 C 389.95 292.35 404.1 293.92 413.86 306.98 C 427 324.57 403.89 388.14 413.77 404.22 C 423.65 420.3 440.31 415.84 440.31 415.84 C 440.31 415.84 431.9 412.82 429.22 397.9 Z " fill="rgb(51,58,76)"/><path d=" M 436.87 335.73 C 434.87 344.41 431.44 354.34 430.22 362.78 C 427.48 351.38 433.99 335.45 434.53 324.98 C 435.16 312.9 431.9 289.91 412.17 277.47 C 383.52 259.4 362.94 279.69 362.94 279.69 C 355.17 273.89 341.38 276.49 334.36 282.77 C 341.7 272.65 351.85 271.47 358.91 272.2 C 365.61 267.66 393.2 251.46 417.72 273.43 C 439.89 293.3 440.08 321.82 436.87 335.73 Z " fill="rgb(70,86,109)"/></g></g></svg>