<?xml version="1.0" encoding="UTF-8" standalone="no"?><!-- Generator: Gravit.io --><svg xmlns="http://www.w3.org/2000/svg" xmlns:xlink="http://www.w3.org/1999/xlink" style="isolation:isolate" viewBox="278.333 21 199 224" width="199pt" height="224pt"><defs><clipPath id="_clipPath_RqvKpnENUo2FBxoIyzkcEopUN6Hhx2EN"><rect width="750" height="500"/></clipPath></defs><g clip-path="url(#_clipPath_RqvKpnENUo2FBxoIyzkcEopUN6Hhx2EN)"><clipPath id="_clipPath_yIgapOmBlVPta73EIyIrng39NVHec0sw"><path d=" M 0 0 L 0 500 L 750 500 L 750 0 L 0 0 Z " fill="rgb(255,255,255)"/></clipPath><g clip-path="url(#_clipPath_yIgapOmBlVPta73EIyIrng39NVHec0sw)"><path d=" M 119.565 49.171 C 107.608 51.522 95.486 53.929 84.578 59.361 C 73.669 64.792 63.934 73.715 60.271 85.338 C 56.63 96.89 59.418 109.665 64.925 120.453 C 68.523 127.5 73.324 134.177 74.658 141.976 C 76.272 151.409 72.55 160.98 72.984 170.541 C 73.834 189.289 90.344 203.774 107.631 211.079 C 123.375 217.733 142.199 220.168 157.138 211.865 C 165.967 206.959 172.597 198.794 181.276 193.628 C 195.028 185.443 212.375 185.62 226.596 178.28 C 250.373 166.007 259.324 133.411 248.89 108.771 C 245.868 101.637 241.546 95.121 238.347 88.064 C 232.968 76.2 230.708 62.733 222.844 52.347 C 209.903 35.255 184.615 31.496 164.293 38.325 L 119.565 49.171 Z " fill="rgb(222,219,237)"/><path d=" M 172.477 151.062 L 153.265 150.286 L 153.265 150.244 L 152.739 150.265 L 152.214 150.244 L 152.214 150.286 L 133.001 151.062 C 133.001 151.062 132.379 155.24 131.341 160.982 C 145.694 166.882 160.908 170.687 176.352 172.197 C 174.047 161.588 172.477 151.062 172.477 151.062 Z " fill="rgb(59,62,116)"/><path d=" M 152.308 207.862 C 171.304 207.862 180.574 196.01 184.415 188.95 C 181.722 187.428 179.764 185.519 179.017 182.946 C 178.062 179.654 177.162 175.92 176.352 172.197 C 160.908 170.687 145.694 166.882 131.341 160.982 C 130.155 167.556 128.424 176.181 126.461 182.946 C 125.621 185.838 123.259 187.894 120.032 189.5 C 124.2 196.728 133.639 207.862 152.308 207.862 Z " fill="rgb(246,158,144)"/><path d=" M 223.573 204.61 C 217.058 194.838 194.98 194.923 184.415 188.95 C 180.574 196.01 171.304 207.862 152.308 207.862 C 133.639 207.862 124.2 196.728 120.032 189.5 C 109.122 194.929 88.215 195.146 81.905 204.61 C 73.73 216.873 65.964 244.669 65.964 244.669 L 152.214 244.669 L 153.265 244.669 L 239.515 244.669 C 239.515 244.669 231.749 216.873 223.573 204.61 Z " fill="rgb(202,198,226)"/><path d=" M 113.784 108.139 C 113.784 116.762 106.793 123.753 98.169 123.753 C 89.545 123.753 82.554 116.762 82.554 108.139 C 82.554 99.514 89.545 92.523 98.169 92.523 C 106.793 92.523 113.784 99.514 113.784 108.139 Z " fill="rgb(246,158,144)"/><path d=" M 98.169 118.616 C 92.382 118.616 87.691 113.925 87.691 108.139 C 87.691 103.767 90.368 100.021 94.172 98.45 C 95.17 101.601 96.425 104.623 97.95 107.321 L 97.95 107.321 C 97.95 111.179 98.348 114.942 99.107 118.575 C 98.798 118.602 98.485 118.616 98.169 118.616 Z " fill="rgb(240,103,85)"/><path d=" M 222.924 108.139 C 222.924 116.762 215.933 123.753 207.309 123.753 C 198.686 123.753 191.695 116.762 191.695 108.139 C 191.695 99.514 198.686 92.523 207.309 92.523 C 215.933 92.523 222.924 99.514 222.924 108.139 Z " fill="rgb(246,158,144)"/><path d=" M 207.309 118.616 C 206.993 118.616 206.681 118.602 206.372 118.575 C 206.924 115.93 207.285 113.217 207.441 110.447 C 210.065 107.329 212.388 103.962 214.383 100.409 C 216.475 102.324 217.787 105.078 217.787 108.139 C 217.787 113.925 213.096 118.616 207.309 118.616 Z " fill="rgb(240,103,85)"/><path d=" M 207.529 107.321 C 207.529 137.58 182.999 162.111 152.739 162.111 C 122.479 162.111 97.95 137.58 97.95 107.321 C 97.95 77.061 122.479 52.531 152.739 52.531 C 182.999 52.531 207.529 77.061 207.529 107.321 Z " fill="rgb(246,158,144)"/><path d=" M 138.317 101.887 C 138.317 104.809 135.948 107.178 133.025 107.178 C 130.103 107.178 127.734 104.809 127.734 101.887 C 127.734 98.964 130.103 96.595 133.025 96.595 C 135.948 96.595 138.317 98.964 138.317 101.887 Z " fill="rgb(59,62,116)"/><path d=" M 120.22 98.397 C 121.339 96.746 122.748 95.283 124.313 94.001 C 125.9 92.746 127.661 91.693 129.536 90.872 C 131.406 90.067 133.384 89.317 135.465 89.243 C 137.526 89.157 139.628 89.433 141.498 90.318 L 141.464 90.517 C 139.437 90.742 137.549 90.921 135.68 91.255 C 133.831 91.603 131.936 91.789 130.111 92.386 C 128.291 92.969 126.533 93.786 124.9 94.825 C 123.247 95.836 121.736 97.093 120.378 98.523 L 120.22 98.397 Z " fill="rgb(59,62,116)"/><path d=" M 167.167 101.887 C 167.167 104.809 169.536 107.178 172.458 107.178 C 175.38 107.178 177.749 104.809 177.749 101.887 C 177.749 98.964 175.38 96.595 172.458 96.595 C 169.536 96.595 167.167 98.964 167.167 101.887 Z " fill="rgb(59,62,116)"/><path d=" M 185.105 98.523 C 183.748 97.093 182.237 95.836 180.583 94.825 C 178.951 93.786 177.192 92.969 175.373 92.386 C 173.548 91.789 171.652 91.603 169.802 91.255 C 167.934 90.921 166.047 90.742 164.019 90.517 L 163.985 90.318 C 165.855 89.433 167.957 89.157 170.017 89.243 C 172.098 89.317 174.077 90.067 175.947 90.872 C 177.822 91.693 179.583 92.746 181.17 94.001 C 182.735 95.283 184.143 96.746 185.263 98.397 L 185.105 98.523 Z " fill="rgb(59,62,116)"/><path d=" M 152.739 127.64 C 148.425 127.64 144.928 124.144 144.928 119.83 C 144.928 115.516 148.425 99.353 152.739 99.353 C 157.053 99.353 160.549 115.516 160.549 119.83 C 160.549 124.144 157.053 127.64 152.739 127.64 Z " fill="rgb(240,103,85)"/><path d=" M 141.146 131.058 C 141.617 132.283 142.419 133.257 143.343 134.082 C 144.264 134.917 145.298 135.619 146.363 136.217 C 148.504 137.394 150.887 138.086 153.257 138.1 C 155.63 138.139 157.955 137.418 159.937 136.034 C 161.919 134.661 163.515 132.668 164.333 130.183 C 164.367 132.819 162.996 135.478 160.917 137.272 C 159.892 138.199 158.673 138.914 157.364 139.412 C 156.041 139.894 154.634 140.111 153.242 140.122 C 150.45 140.066 147.724 139.145 145.521 137.546 C 144.411 136.759 143.43 135.814 142.611 134.745 C 141.815 133.667 141.173 132.384 141.146 131.058 Z " fill="rgb(59,62,116)"/><path d=" M 97.95 107.321 C 92.324 97.366 90.371 83.024 91.448 73.916 C 92.525 64.808 97.347 55.599 105.684 51.777 C 108.586 39.828 119.181 30.683 131.323 28.735 C 132.439 28.556 133.603 28.44 134.683 28.775 C 136.687 29.396 137.964 31.495 138.168 33.583 C 138.372 35.671 137.694 37.744 136.855 39.667 C 146.226 32.639 156.124 26.536 167.131 22.531 C 178.139 18.526 190.124 16.785 201.675 18.727 C 204.754 19.245 207.862 20.053 210.434 21.822 C 215.486 25.299 217.553 32.065 216.659 38.132 C 215.764 44.199 212.351 49.626 208.318 54.245 C 213.682 53.812 218.563 57.686 220.759 62.599 C 222.957 67.513 222.828 73.152 221.999 78.47 C 220.161 90.252 215.018 101.501 207.311 110.601 C 193.081 98.931 193.05 80.166 193.05 80.166 C 176.586 85.357 157.714 81.527 144.607 70.291 C 146.9 73.1 149.271 76.268 150.528 79.669 C 150.865 80.582 151.166 81.548 151.044 82.512 C 150.826 84.236 149.263 85.552 147.584 85.995 C 145.904 86.439 144.126 86.18 142.42 85.848 C 134.043 84.219 126 80.883 118.929 76.102 C 117.719 82.803 114.077 105.524 97.95 107.321 Z " fill="rgb(59,62,116)"/><path d=" M 180.357 128.985 C 174.178 128.985 169.17 125.708 169.17 121.665 C 169.17 117.622 174.178 114.346 180.357 114.346 C 186.536 114.346 191.545 117.622 191.545 121.665 C 191.545 125.708 186.536 128.985 180.357 128.985 Z " fill="rgb(243,130,113)"/><path d=" M 125.664 128.985 C 119.485 128.985 114.477 125.708 114.477 121.665 C 114.477 117.622 119.485 114.346 125.664 114.346 C 131.842 114.346 136.851 117.622 136.851 121.665 C 136.851 125.708 131.842 128.985 125.664 128.985 Z " fill="rgb(243,130,113)"/><path d=" M 95.605 92.484 C 96.263 91.903 96.923 91.33 97.592 90.769 L 99.483 88.963 L 101.295 87.087 L 102.999 85.116 C 105.195 82.43 107.154 79.556 108.791 76.504 C 110.449 73.464 111.779 70.25 112.824 66.942 L 113.539 64.436 L 114.116 61.892 L 114.589 59.32 C 114.693 58.454 114.81 57.588 114.936 56.719 C 114.922 57.594 114.899 58.471 114.864 59.35 L 114.618 61.976 L 114.179 64.581 L 113.592 67.161 C 112.715 70.582 111.378 73.884 109.709 77.001 C 108.017 80.106 105.987 83.032 103.606 85.641 L 101.769 87.545 L 99.83 89.339 L 97.767 90.983 C 97.052 91.494 96.33 91.993 95.605 92.484 Z " fill="rgb(127,129,187)"/><path d=" M 93.301 78.292 C 96.441 75.7 98.844 72.472 100.721 68.954 C 102.623 65.44 103.974 61.639 105.504 57.868 C 104.769 61.863 103.574 65.809 101.641 69.448 C 100.66 71.254 99.5 72.976 98.105 74.496 C 96.725 76.023 95.101 77.338 93.301 78.292 Z " fill="rgb(127,129,187)"/><path d=" M 182.58 70.521 C 179.292 70.521 176.003 70.241 172.761 69.658 C 165.843 68.435 159.162 65.936 153.101 62.383 C 148.232 59.49 143.767 55.913 139.907 51.772 C 140.775 53.814 141.351 55.978 141.596 58.18 C 141.701 59.073 141.742 59.963 141.743 60.867 C 141.724 61.766 141.625 62.745 141.083 63.596 C 140.559 64.435 139.56 64.93 138.614 64.93 C 138.596 64.93 138.578 64.93 138.56 64.93 C 138.557 64.93 138.554 64.93 138.55 64.93 C 137.59 64.93 136.697 64.628 135.882 64.228 C 132.707 62.429 130.377 59.605 128.531 56.601 C 126.683 53.575 125.301 50.317 123.978 47.056 C 125.444 50.256 126.915 53.471 128.832 56.411 C 129.789 57.877 130.859 59.269 132.079 60.512 C 133.291 61.738 134.653 62.905 136.152 63.678 C 136.888 64.026 137.685 64.271 138.464 64.271 C 138.491 64.271 138.518 64.27 138.546 64.27 C 139.351 64.262 140.083 63.871 140.486 63.215 C 140.894 62.558 140.989 61.705 140.987 60.862 C 140.97 60.005 140.916 59.134 140.798 58.279 C 140.337 54.85 139.105 51.53 137.202 48.652 L 137.942 48.109 C 142.317 53.459 147.674 57.992 153.632 61.484 C 159.567 65.012 166.125 67.511 172.923 68.755 C 176.456 69.392 180.049 69.715 183.645 69.715 C 186.969 69.715 190.295 69.439 193.579 68.877 C 200.41 67.712 207.068 65.414 213.141 61.992 C 207.207 65.643 200.567 68.189 193.686 69.478 C 190.032 70.162 186.307 70.521 182.58 70.521 Z " fill="rgb(127,129,187)"/><path d=" M 177.91 48.324 C 172.71 48.304 167.537 47.454 162.592 45.951 C 160.119 45.194 157.693 44.303 155.318 43.299 C 152.956 42.264 150.629 41.158 148.375 39.916 C 150.732 40.947 153.093 41.956 155.506 42.826 C 157.906 43.726 160.341 44.527 162.811 45.182 C 167.562 46.454 172.445 47.285 177.347 47.285 C 177.533 47.285 177.719 47.284 177.905 47.281 C 177.946 47.281 177.988 47.281 178.029 47.281 C 183.066 47.281 188.103 46.339 192.804 44.515 C 197.539 42.678 201.925 39.833 205.387 36.02 C 203.83 38.071 201.931 39.863 199.865 41.423 C 197.775 42.958 195.495 44.232 193.108 45.258 C 188.32 47.296 183.107 48.259 177.91 48.324 Z " fill="rgb(127,129,187)"/><path d=" M 202.768 86.435 C 201.94 86.435 201.115 86.374 200.298 86.246 C 203.714 85.951 206.989 85.166 210.037 83.799 C 213.094 82.45 215.869 80.545 218.378 78.208 C 216.496 81.096 213.634 83.332 210.46 84.752 C 208.042 85.818 205.395 86.435 202.768 86.435 Z " fill="rgb(127,129,187)"/><path d=" M 306.127 52.295 C 296.535 61.65 291.58 75.548 293.091 88.862 C 294.262 99.182 299.067 109.277 297.447 119.535 C 296.137 127.832 290.812 134.857 287.535 142.591 C 284.408 149.97 283.161 158.354 285.301 166.076 C 287.442 173.8 293.311 180.682 301.02 182.872 C 304.999 184.002 309.225 183.878 313.277 184.703 C 326.213 187.337 335.064 198.796 344.661 207.862 C 355.055 217.68 368.15 225.535 382.433 226.201 C 396.716 226.868 411.962 218.762 416.313 205.142 C 417.502 201.425 417.925 197.338 420.207 194.172 C 422.945 190.373 427.741 188.742 432.276 187.581 C 444.458 184.464 457.838 182.765 467.081 174.241 C 475.416 166.553 478.645 153.795 474.971 143.068 C 472.605 136.158 467.691 130.176 466.349 122.995 C 464.001 110.432 473.141 97.955 471.28 85.311 C 469.259 71.591 455.456 63.145 442.712 57.676 C 419.71 47.807 393.262 39.109 368.051 38.371 C 346.474 37.739 322.942 35.9 306.127 52.295 Z " fill="rgb(222,219,237)"/><path d=" M 395.149 62.195 C 393.945 53.223 396.263 43.825 401.502 36.443 C 403.416 33.747 405.967 31.168 409.238 30.686 C 412.508 30.204 416.295 32.887 415.778 36.152 C 417.298 31.927 420.378 28.366 424.074 25.818 C 431.99 20.358 443.334 19.759 451.141 25.372 C 458.949 30.985 461.831 42.907 456.507 50.914 C 459.763 50.201 463.257 52.252 465.98 54.177 C 471.701 58.22 474.565 65.914 472.882 72.714 C 471.198 79.513 465.075 84.982 458.129 85.89 C 462.566 90.275 464.41 98.199 460.936 103.381 C 457.463 108.563 450.134 110.745 444.391 108.307 C 439.782 112.969 432.334 113.827 426.279 111.31 C 420.224 108.794 415.496 103.912 411.245 98.92 C 403.506 89.833 396.737 74.024 395.149 62.195 Z " fill="rgb(59,62,116)"/><path d=" M 404.574 54.924 C 405.032 53.749 405.766 52.683 406.647 51.765 C 407.53 50.848 408.554 50.053 409.693 49.456 C 410.83 48.86 412.071 48.432 413.37 48.273 C 413.709 48.231 414.054 48.209 414.399 48.209 C 415.225 48.209 416.059 48.334 416.851 48.614 C 417.972 45.759 419.14 42.871 420.849 40.237 C 422.599 37.462 425.172 35.179 428.123 33.739 C 430.502 32.547 433.161 31.928 435.809 31.928 C 436.435 31.928 437.06 31.963 437.681 32.033 C 440.928 32.366 444.057 33.649 446.567 35.652 C 443.888 33.873 440.772 32.866 437.629 32.649 C 437.261 32.625 436.893 32.612 436.526 32.612 C 433.746 32.612 430.993 33.309 428.529 34.551 C 427.136 35.262 425.838 36.156 424.688 37.208 C 423.541 38.263 422.552 39.481 421.671 40.779 C 419.918 43.396 418.699 46.359 417.485 49.321 L 417.313 49.741 L 416.915 49.549 C 416.043 49.128 415.062 48.936 414.071 48.936 C 413.86 48.936 413.649 48.944 413.438 48.961 C 412.234 49.058 411.042 49.409 409.932 49.935 C 407.711 50.973 405.733 52.682 404.574 54.924 Z " fill="rgb(127,129,187)"/><path d=" M 464.748 72.409 C 465.307 69.984 464.925 67.441 463.879 65.256 C 462.86 63.058 461.188 61.168 459.127 59.961 C 457.069 58.728 454.667 58.116 452.266 58.094 C 452.214 58.093 452.162 58.093 452.109 58.093 C 449.759 58.093 447.415 58.628 445.273 59.59 L 444.662 59.864 L 444.586 59.207 C 444.359 57.251 444.08 55.306 443.572 53.429 C 443.049 51.563 442.322 49.746 441.174 48.203 C 440.591 47.443 439.913 46.753 439.138 46.185 C 438.36 45.62 437.493 45.18 436.589 44.825 C 435.09 44.244 433.468 43.998 431.838 43.998 C 431.491 43.998 431.143 44.01 430.796 44.031 C 431.515 43.912 432.248 43.851 432.983 43.851 C 434.244 43.851 435.512 44.031 436.733 44.404 C 438.671 44.98 440.441 46.172 441.736 47.76 C 443.039 49.347 443.879 51.251 444.429 53.189 C 444.922 54.917 445.222 56.679 445.463 58.436 C 447.48 57.573 449.675 57.139 451.867 57.139 C 452.006 57.139 452.145 57.14 452.284 57.144 C 454.829 57.207 457.392 57.878 459.564 59.248 C 461.728 60.64 463.395 62.709 464.365 65.044 C 465.311 67.379 465.546 70.045 464.748 72.409 Z " fill="rgb(127,129,187)"/><path d=" M 448.309 97.111 C 449.603 95.251 450.204 92.991 450.118 90.781 C 450.062 88.573 449.374 86.384 448.101 84.613 C 446.814 82.848 445.092 81.398 443.177 80.324 C 441.264 79.258 439.123 78.533 436.966 78.466 L 435.896 78.433 L 436.607 77.631 C 438.107 75.938 439.154 73.838 439.64 71.612 C 440.139 69.385 440.051 67.039 439.425 64.846 C 438.788 62.652 437.535 60.632 435.881 59.017 C 434.25 57.371 432.186 56.145 429.927 55.476 C 432.249 55.921 434.423 57.077 436.224 58.65 C 438.003 60.251 439.404 62.307 440.176 64.611 C 440.962 66.914 441.025 69.43 440.545 71.804 C 440.117 73.866 439.254 75.854 437.974 77.545 C 439.989 77.799 441.899 78.536 443.63 79.528 C 445.625 80.693 447.454 82.219 448.735 84.181 C 450.019 86.138 450.655 88.477 450.605 90.781 C 450.532 93.077 449.788 95.382 448.309 97.111 Z " fill="rgb(127,129,187)"/><path d=" M 357.129 62.195 C 358.333 53.223 356.014 43.825 350.776 36.443 C 348.862 33.747 346.31 31.168 343.04 30.686 C 339.769 30.204 335.983 32.887 336.5 36.152 C 334.98 31.927 331.9 28.366 328.204 25.818 C 320.288 20.358 308.944 19.759 301.136 25.372 C 293.329 30.985 290.447 42.907 295.771 50.914 C 292.514 50.201 289.02 52.252 286.297 54.177 C 280.577 58.22 277.712 65.914 279.396 72.714 C 281.08 79.513 287.203 84.982 294.148 85.89 C 289.712 90.275 287.868 98.199 291.341 103.381 C 294.815 108.563 302.143 110.745 307.886 108.307 C 312.496 112.969 319.944 113.827 325.999 111.31 C 332.053 108.794 336.782 103.912 341.033 98.92 C 348.771 89.833 355.541 74.024 357.129 62.195 Z " fill="rgb(59,62,116)"/><path d=" M 397.127 151.062 L 377.915 150.286 L 377.915 150.244 L 377.389 150.265 L 376.863 150.244 L 376.863 150.286 L 357.651 151.062 C 357.651 151.062 357.029 155.24 355.992 160.982 C 370.344 166.882 385.558 170.687 401.003 172.197 C 398.696 161.588 397.127 151.062 397.127 151.062 Z " fill="rgb(59,62,116)"/><path d=" M 376.958 207.862 C 395.954 207.862 405.223 196.01 409.064 188.95 C 406.372 187.428 404.415 185.519 403.668 182.946 C 402.712 179.654 401.812 175.92 401.003 172.197 C 385.558 170.687 370.344 166.882 355.992 160.982 C 354.804 167.556 353.074 176.181 351.111 182.946 C 350.271 185.838 347.909 187.894 344.682 189.5 C 348.85 196.728 358.29 207.862 376.958 207.862 Z " fill="rgb(242,129,130)"/><path d=" M 448.223 204.61 C 441.708 194.838 419.63 194.923 409.064 188.95 C 405.223 196.01 395.954 207.862 376.958 207.862 C 358.29 207.862 348.85 196.728 344.682 189.5 C 333.771 194.929 312.864 195.146 306.555 204.61 C 298.38 216.873 290.613 244.669 290.613 244.669 L 376.863 244.669 L 377.915 244.669 L 464.165 244.669 C 464.165 244.669 456.398 216.873 448.223 204.61 Z " fill="rgb(116,117,181)"/><path d=" M 338.433 108.139 C 338.433 116.762 331.442 123.753 322.819 123.753 C 314.195 123.753 307.204 116.762 307.204 108.139 C 307.204 99.514 314.195 92.523 322.819 92.523 C 331.442 92.523 338.433 99.514 338.433 108.139 Z " fill="rgb(242,129,130)"/><path d=" M 322.819 118.616 C 317.032 118.616 312.34 113.925 312.34 108.139 C 312.34 102.351 317.032 97.661 322.819 97.661 C 323.029 97.661 323.238 97.667 323.445 97.679 C 322.889 100.809 322.599 104.031 322.599 107.321 C 322.599 107.844 322.624 108.361 322.638 108.88 C 326.133 107.689 329.214 105.337 331.588 102.401 L 331.588 102.401 C 329.214 105.337 326.133 107.689 322.638 108.88 C 322.731 112.194 323.118 115.432 323.773 118.573 C 323.459 118.602 323.141 118.616 322.819 118.616 Z " fill="rgb(238,72,71)"/><path d=" M 447.574 108.139 C 447.574 116.762 440.583 123.753 431.96 123.753 C 423.336 123.753 416.344 116.762 416.344 108.139 C 416.344 99.514 423.336 92.523 431.96 92.523 C 440.583 92.523 447.574 99.514 447.574 108.139 Z " fill="rgb(242,129,130)"/><path d=" M 431.96 118.616 C 431.638 118.616 431.319 118.601 431.004 118.573 C 431.664 115.409 432.052 112.144 432.141 108.805 C 428.847 107.205 425.909 104.789 423.504 101.949 L 423.504 101.949 C 425.909 104.789 428.847 107.205 432.141 108.805 C 432.154 108.31 432.178 107.818 432.178 107.321 C 432.178 104.031 431.888 100.809 431.333 97.679 C 431.54 97.667 431.749 97.661 431.96 97.661 C 437.746 97.661 442.437 102.351 442.437 108.139 C 442.437 113.925 437.746 118.616 431.96 118.616 Z " fill="rgb(238,72,71)"/><path d=" M 334.322 98.165 C 337.26 92.328 337.981 85.622 337.963 79.088 C 337.963 79.088 352.343 64.263 373.847 63.947 C 395.351 63.63 413.692 79.126 413.692 79.126 C 415.335 85.977 417.537 93.446 421.484 99.283 C 424.175 103.263 427.856 106.723 432.141 108.805 C 432.154 108.31 432.178 107.818 432.178 107.321 C 432.178 77.061 407.648 52.531 377.389 52.531 C 347.129 52.531 322.599 77.061 322.599 107.321 C 322.599 107.844 322.624 108.361 322.638 108.88 C 327.695 107.156 331.886 103.001 334.322 98.165 Z " fill="rgb(59,62,116)"/><path d=" M 421.484 99.283 C 417.537 93.446 415.335 85.977 413.692 79.126 C 413.692 79.126 395.351 63.63 373.847 63.947 C 352.343 64.263 337.963 79.088 337.963 79.088 C 337.981 85.622 337.26 92.328 334.322 98.165 C 331.886 103.001 327.695 107.156 322.638 108.88 C 323.466 138.417 347.652 162.111 377.389 162.111 C 407.151 162.111 431.352 138.376 432.141 108.805 C 427.856 106.723 424.175 103.263 421.484 99.283 Z " fill="rgb(242,129,130)"/><path d=" M 344.87 92.388 C 345.99 90.738 347.397 89.274 348.963 87.993 C 350.549 86.738 352.31 85.684 354.186 84.864 C 356.055 84.059 358.034 83.308 360.115 83.235 C 362.176 83.148 364.277 83.425 366.148 84.309 L 366.114 84.509 C 364.087 84.733 362.199 84.912 360.331 85.247 C 358.48 85.594 356.586 85.78 354.76 86.378 C 352.941 86.96 351.182 87.778 349.549 88.817 C 347.896 89.827 346.385 91.085 345.027 92.515 L 344.87 92.388 Z " fill="rgb(59,62,116)"/><path d=" M 409.755 92.515 C 408.397 91.085 406.886 89.827 405.233 88.817 C 403.6 87.778 401.841 86.96 400.022 86.378 C 398.197 85.78 396.302 85.594 394.452 85.247 C 392.584 84.912 390.696 84.733 388.669 84.509 L 388.634 84.309 C 390.505 83.425 392.606 83.148 394.668 83.235 C 396.749 83.308 398.727 84.059 400.596 84.864 C 402.472 85.684 404.233 86.738 405.82 87.993 C 407.384 89.274 408.793 90.738 409.913 92.388 L 409.755 92.515 Z " fill="rgb(59,62,116)"/><path d=" M 377.389 124.472 C 373.075 124.472 369.578 124.144 369.578 119.83 C 369.578 115.531 375.063 99.353 377.367 99.353 C 377.374 99.353 377.382 99.353 377.389 99.353 C 379.678 99.461 385.2 115.516 385.2 119.83 C 385.2 124.144 381.703 124.472 377.389 124.472 Z " fill="rgb(238,72,71)"/><path d=" M 405.007 128.985 C 398.828 128.985 393.82 125.708 393.82 121.665 C 393.82 117.622 398.828 114.346 405.007 114.346 C 411.185 114.346 416.194 117.622 416.194 121.665 C 416.194 125.708 411.185 128.985 405.007 128.985 Z " fill="rgb(240,101,101)"/><path d=" M 350.314 128.985 C 344.135 128.985 339.127 125.708 339.127 121.665 C 339.127 117.622 344.135 114.346 350.314 114.346 C 356.492 114.346 361.501 117.622 361.501 121.665 C 361.501 125.708 356.492 128.985 350.314 128.985 Z " fill="rgb(240,101,101)"/><path d=" M 350.846 104.106 C 350.844 102.079 351.126 99.977 352.21 98.058 C 353.283 96.156 355.283 94.552 357.762 94.455 C 358.99 94.411 360.229 94.85 361.156 95.567 C 362.082 96.291 362.793 97.202 363.247 98.213 C 364.175 100.246 364.194 102.356 364.037 104.373 C 363.371 102.446 362.869 100.485 361.863 98.975 C 360.875 97.465 359.361 96.405 357.818 96.477 C 356.246 96.524 354.614 97.514 353.521 98.927 C 352.38 100.368 351.657 102.235 350.846 104.106 Z " fill="rgb(59,62,116)"/><path d=" M 391.585 104.106 C 391.583 102.079 391.864 99.977 392.948 98.058 C 394.02 96.156 396.02 94.552 398.501 94.455 C 399.728 94.411 400.967 94.85 401.894 95.567 C 402.82 96.291 403.531 97.202 403.984 98.213 C 404.914 100.246 404.932 102.356 404.775 104.373 C 404.109 102.446 403.607 100.485 402.601 98.975 C 401.613 97.465 400.099 96.405 398.556 96.477 C 396.984 96.524 395.352 97.514 394.259 98.927 C 393.118 100.368 392.395 102.235 391.585 104.106 Z " fill="rgb(59,62,116)"/><path d=" M 388.95 139.459 C 389.773 138.388 390.314 137.326 390.557 136.472 C 391.017 134.855 391.051 133.06 390.325 131.543 C 389.597 130.027 388.011 128.87 386.331 128.953 C 382.504 129.144 380.189 134.652 375.989 132.733 C 372.886 131.315 370.083 126.407 366.099 129.383 C 364.826 130.335 364.263 132.037 364.4 133.621 C 364.537 135.205 365.284 136.679 366.215 137.968 C 366.806 138.785 367.59 139.668 368.482 140.512 C 374.837 137.599 382.33 137.215 388.95 139.459 Z " fill="rgb(59,62,116)"/><path d=" M 368.482 140.512 C 370.316 142.246 372.609 143.806 374.637 144.247 C 381.727 145.788 386.552 142.578 388.95 139.459 C 382.33 137.215 374.837 137.599 368.482 140.512 Z " fill="rgb(238,77,80)"/><path d=" M 347.704 54.924 C 346.544 52.682 344.567 50.973 342.345 49.935 C 341.235 49.409 340.044 49.058 338.839 48.961 C 338.629 48.944 338.417 48.936 338.207 48.936 C 337.216 48.936 336.235 49.128 335.363 49.549 L 334.965 49.741 L 334.793 49.321 C 333.579 46.359 332.36 43.396 330.607 40.779 C 329.725 39.481 328.737 38.263 327.59 37.208 C 326.438 36.156 325.141 35.262 323.75 34.551 C 321.284 33.309 318.532 32.612 315.752 32.612 C 315.384 32.612 315.017 32.625 314.649 32.649 C 311.505 32.866 308.389 33.873 305.711 35.652 C 308.22 33.649 311.349 32.366 314.596 32.033 C 315.217 31.963 315.843 31.928 316.469 31.928 C 319.117 31.928 321.775 32.547 324.155 33.739 C 327.106 35.179 329.678 37.462 331.428 40.237 C 333.137 42.871 334.305 45.759 335.426 48.614 C 336.219 48.334 337.052 48.209 337.878 48.209 C 338.224 48.209 338.568 48.231 338.908 48.273 C 340.207 48.432 341.448 48.86 342.585 49.456 C 343.723 50.053 344.748 50.848 345.63 51.765 C 346.511 52.683 347.246 53.749 347.704 54.924 Z " fill="rgb(127,129,187)"/><path d=" M 287.53 72.409 C 286.732 70.045 286.966 67.379 287.913 65.044 C 288.882 62.709 290.549 60.64 292.714 59.248 C 294.884 57.878 297.449 57.207 299.994 57.144 C 300.132 57.14 300.271 57.139 300.41 57.139 C 302.603 57.139 304.797 57.573 306.814 58.436 C 307.056 56.679 307.356 54.917 307.848 53.189 C 308.398 51.251 309.239 49.347 310.542 47.76 C 311.837 46.172 313.607 44.98 315.544 44.404 C 316.765 44.031 318.033 43.851 319.295 43.851 C 320.03 43.851 320.762 43.912 321.482 44.031 C 321.135 44.01 320.787 43.998 320.439 43.998 C 318.81 43.998 317.188 44.244 315.689 44.825 C 314.785 45.18 313.917 45.62 313.139 46.185 C 312.364 46.753 311.687 47.443 311.104 48.203 C 309.956 49.746 309.229 51.563 308.706 53.429 C 308.198 55.306 307.919 57.251 307.692 59.207 L 307.616 59.864 L 307.004 59.59 C 304.864 58.628 302.519 58.093 300.168 58.093 C 300.116 58.093 300.064 58.093 300.011 58.094 C 297.611 58.116 295.209 58.728 293.151 59.961 C 291.089 61.168 289.418 63.058 288.398 65.256 C 287.352 67.441 286.97 69.984 287.53 72.409 Z " fill="rgb(127,129,187)"/><path d=" M 303.968 97.111 C 302.49 95.382 301.746 93.077 301.672 90.781 C 301.623 88.477 302.258 86.138 303.543 84.181 C 304.824 82.219 306.653 80.693 308.648 79.528 C 310.379 78.536 312.289 77.799 314.303 77.545 C 313.023 75.854 312.16 73.866 311.733 71.804 C 311.253 69.43 311.315 66.914 312.101 64.611 C 312.874 62.307 314.274 60.251 316.053 58.65 C 317.854 57.077 320.029 55.921 322.35 55.476 C 320.091 56.145 318.029 57.371 316.397 59.017 C 314.743 60.632 313.49 62.652 312.852 64.846 C 312.226 67.039 312.138 69.385 312.637 71.612 C 313.125 73.838 314.17 75.938 315.67 77.631 L 316.381 78.433 L 315.311 78.466 C 313.155 78.533 311.013 79.258 309.1 80.324 C 307.185 81.398 305.464 82.848 304.176 84.613 C 302.904 86.384 302.215 88.573 302.159 90.781 C 302.073 92.991 302.674 95.251 303.968 97.111 Z " fill="rgb(127,129,187)"/><path d=" M 357.469 56.66 C 352.964 58.69 348.698 61.205 344.812 64.204 C 340.93 67.203 337.38 70.636 334.386 74.514 C 331.33 78.342 328.836 82.605 326.867 87.096 C 325.876 89.341 325.037 91.656 324.352 94.018 C 323.634 96.372 323.11 98.784 322.691 101.221 C 322.886 98.755 323.317 96.308 323.88 93.891 C 324.475 91.482 325.241 89.112 326.16 86.801 C 328.01 82.18 330.555 77.842 333.603 73.899 C 336.714 70.006 340.32 66.503 344.355 63.593 C 348.387 60.682 352.805 58.31 357.469 56.66 Z " fill="rgb(202,198,226)"/><path d=" M 394.826 55.317 C 399.549 56.791 404.052 58.996 408.191 61.754 C 412.333 64.51 416.068 67.876 419.322 71.65 C 422.514 75.475 425.221 79.715 427.243 84.263 C 428.248 86.539 429.102 88.878 429.787 91.264 C 430.44 93.658 430.963 96.087 431.25 98.544 C 430.74 96.125 430.126 93.734 429.32 91.408 C 428.547 89.073 427.623 86.791 426.547 84.586 C 424.413 80.171 421.759 76.004 418.562 72.293 C 415.425 68.53 411.749 65.234 407.757 62.382 C 403.761 59.531 399.405 57.177 394.826 55.317 Z " fill="rgb(202,198,226)"/><path d=" M 74.09 414.018 C 84.731 419.263 96.661 423.223 104.365 432.178 C 110.638 439.471 112.727 449.593 118.26 457.473 C 127.873 471.16 146.433 475.854 163.497 474.547 C 171.863 473.906 180.324 472.006 187.712 467.773 C 195.1 463.539 201.341 456.777 203.767 448.679 C 206.78 438.619 203.84 427.356 208.561 417.911 C 213.349 408.333 224.278 403.813 233.105 397.686 C 240.063 392.857 246.177 386.461 249.514 378.722 C 252.852 370.983 253.13 361.816 249.13 354.704 C 246.112 349.337 240.982 345.502 237.616 340.356 C 230.926 330.128 232.147 316.607 229.613 304.525 C 225.434 284.604 209.538 267.858 189.669 263.406 C 169.801 258.953 146.942 267.434 134.718 284.438 C 130.514 290.286 127.233 297.262 121.029 300.904 C 113.618 305.255 105.214 303.338 96.687 301.421 C 89.345 299.771 81.911 298.121 74.938 300.471 C 63.395 304.362 57.583 318.357 59.044 330.224 C 60.044 338.354 64.807 347.479 60.112 354.441 C 49.415 370.296 42.129 398.263 74.09 414.018 Z " fill="rgb(222,219,237)"/><path d=" M 103.775 414.914 L 105.787 422.356 L 107.593 422.356 L 111.74 409.225 L 113.147 422.356 L 194.533 422.356 L 195.94 409.225 L 200.086 422.356 L 201.893 422.356 L 203.905 414.914 L 206.031 422.356 L 222.817 422.356 C 222.817 422.356 212.568 342.463 207.312 318.023 C 202.055 293.582 184.448 275.974 152.386 275.974 C 120.324 275.974 100.614 288.063 95.357 319.6 C 90.101 351.136 81.955 422.356 81.955 422.356 L 101.649 422.356 L 103.775 414.914 Z " fill="rgb(59,62,116)"/><path d=" M 172.477 388.102 L 153.265 387.326 L 153.265 387.284 L 152.739 387.305 L 152.214 387.284 L 152.214 387.326 L 133.001 388.102 C 133.001 388.102 132.379 392.28 131.341 398.022 C 145.694 403.921 160.908 407.727 176.352 409.237 C 174.047 398.628 172.477 388.102 172.477 388.102 Z " fill="rgb(59,62,116)"/><path d=" M 152.308 444.902 C 171.304 444.902 180.574 433.05 184.415 425.99 C 181.722 424.468 179.764 422.559 179.017 419.986 C 178.062 416.694 177.162 412.96 176.352 409.237 C 160.908 407.727 145.694 403.921 131.341 398.022 C 130.155 404.596 128.424 413.221 126.461 419.986 C 125.621 422.877 123.259 424.934 120.032 426.539 C 124.2 433.768 133.639 444.902 152.308 444.902 Z " fill="rgb(242,129,130)"/><path d=" M 223.573 441.65 C 217.058 431.877 194.98 431.962 184.415 425.99 C 180.574 433.05 171.304 444.902 152.308 444.902 C 133.639 444.902 124.2 433.768 120.032 426.539 C 109.122 431.968 88.215 432.186 81.905 441.65 C 73.73 453.912 65.964 481.709 65.964 481.709 L 152.214 481.709 L 153.265 481.709 L 239.515 481.709 C 239.515 481.709 231.749 453.912 223.573 441.65 Z " fill="rgb(116,117,181)"/><path d=" M 113.784 345.178 C 113.784 353.802 106.793 360.793 98.169 360.793 C 89.545 360.793 82.554 353.802 82.554 345.178 C 82.554 336.554 89.545 329.563 98.169 329.563 C 106.793 329.563 113.784 336.554 113.784 345.178 Z " fill="rgb(242,129,130)"/><path d=" M 98.169 355.656 C 92.382 355.656 87.691 350.965 87.691 345.178 C 87.691 339.392 92.382 334.701 98.169 334.701 C 98.379 334.701 98.587 334.707 98.795 334.719 C 98.239 337.849 97.949 341.071 97.949 344.361 C 97.949 344.883 97.974 345.401 97.989 345.92 C 101.482 344.729 104.564 342.377 106.937 339.441 L 106.937 339.441 C 104.564 342.377 101.482 344.729 97.989 345.92 C 98.082 349.234 98.468 352.471 99.124 355.613 C 98.809 355.641 98.491 355.656 98.169 355.656 Z " fill="rgb(238,72,71)"/><path d=" M 222.924 345.178 C 222.924 353.802 215.933 360.793 207.309 360.793 C 198.686 360.793 191.695 353.802 191.695 345.178 C 191.695 336.554 198.686 329.563 207.309 329.563 C 215.933 329.563 222.924 336.554 222.924 345.178 Z " fill="rgb(242,129,130)"/><path d=" M 207.309 355.656 C 206.987 355.656 206.669 355.641 206.355 355.613 C 207.015 352.448 207.403 349.183 207.492 345.844 C 204.197 344.244 201.26 341.829 198.854 338.989 L 198.854 338.989 C 201.26 341.829 204.197 344.244 207.492 345.844 C 207.504 345.35 207.529 344.858 207.529 344.361 C 207.529 341.071 207.239 337.849 206.683 334.719 C 206.89 334.707 207.099 334.701 207.309 334.701 C 213.096 334.701 217.787 339.392 217.787 345.178 C 217.787 350.965 213.096 355.656 207.309 355.656 Z " fill="rgb(238,72,71)"/><path d=" M 109.672 335.204 C 112.611 329.368 113.332 322.662 113.312 316.127 C 113.312 316.127 127.693 301.303 149.197 300.987 C 170.701 300.67 189.043 316.165 189.043 316.165 C 190.686 323.017 192.886 330.486 196.834 336.323 C 199.525 340.302 203.207 343.763 207.492 345.844 C 207.504 345.35 207.529 344.858 207.529 344.361 C 207.529 314.101 182.999 289.571 152.739 289.571 C 122.479 289.571 97.949 314.101 97.949 344.361 C 97.949 344.883 97.974 345.401 97.989 345.92 C 103.045 344.196 107.237 340.041 109.672 335.204 Z " fill="rgb(59,62,116)"/><path d=" M 196.834 336.323 C 192.886 330.486 190.686 323.017 189.043 316.165 C 189.043 316.165 170.701 300.67 149.197 300.987 C 127.693 301.303 113.312 316.127 113.312 316.127 C 113.332 322.662 112.611 329.368 109.672 335.204 C 107.237 340.041 103.045 344.196 97.989 345.92 C 98.817 375.456 123.003 399.151 152.739 399.151 C 182.502 399.151 206.703 375.415 207.492 345.844 C 203.207 343.763 199.525 340.302 196.834 336.323 Z " fill="rgb(242,129,130)"/><path d=" M 180.357 366.025 C 174.178 366.025 169.17 362.748 169.17 358.705 C 169.17 354.662 174.178 351.385 180.357 351.385 C 186.536 351.385 191.545 354.662 191.545 358.705 C 191.545 362.748 186.536 366.025 180.357 366.025 Z " fill="rgb(240,101,101)"/><path d=" M 125.664 366.025 C 119.485 366.025 114.477 362.748 114.477 358.705 C 114.477 354.662 119.485 351.385 125.664 351.385 C 131.842 351.385 136.851 354.662 136.851 358.705 C 136.851 362.748 131.842 366.025 125.664 366.025 Z " fill="rgb(240,101,101)"/><path d=" M 120.099 330.972 C 121.219 329.322 122.628 327.859 124.192 326.576 C 125.779 325.322 127.54 324.269 129.416 323.449 C 131.285 322.643 133.263 321.893 135.344 321.819 C 137.406 321.733 139.506 322.009 141.378 322.894 L 141.343 323.093 C 139.316 323.318 137.428 323.496 135.56 323.831 C 133.711 324.178 131.815 324.365 129.99 324.961 C 128.171 325.544 126.412 326.362 124.779 327.401 C 123.126 328.411 121.615 329.668 120.257 331.099 L 120.099 330.972 Z " fill="rgb(59,62,116)"/><path d=" M 165.59 335.384 C 165.59 338.307 167.959 340.675 170.881 340.675 C 173.803 340.675 176.173 338.307 176.173 335.384 C 176.173 332.462 173.803 330.093 170.881 330.093 C 167.959 330.093 165.59 332.462 165.59 335.384 Z " fill="rgb(59,62,116)"/><path d=" M 184.985 331.099 C 183.627 329.668 182.116 328.411 180.463 327.401 C 178.83 326.362 177.071 325.544 175.252 324.961 C 173.426 324.365 171.532 324.178 169.681 323.831 C 167.813 323.496 165.925 323.318 163.898 323.093 L 163.864 322.894 C 165.735 322.009 167.836 321.733 169.897 321.819 C 171.978 321.893 173.957 322.643 175.826 323.449 C 177.702 324.269 179.463 325.322 181.049 326.576 C 182.615 327.859 184.022 329.322 185.142 330.972 L 184.985 331.099 Z " fill="rgb(59,62,116)"/><path d=" M 126.125 338.593 C 128.285 337.569 130.567 336.849 132.891 336.321 C 135.215 335.781 137.59 335.478 139.972 335.324 L 139.373 337.103 C 137.661 335.617 135.839 334.279 133.91 333.102 C 131.97 331.935 129.903 330.978 127.668 330.201 C 130.04 330.146 132.433 330.731 134.631 331.702 C 136.844 332.661 138.856 334.029 140.686 335.565 L 142.658 337.219 L 140.087 337.344 C 137.772 337.455 135.464 337.664 133.144 337.878 C 130.825 338.105 128.504 338.381 126.125 338.593 Z " fill="rgb(59,62,116)"/><path d=" M 148.707 303.306 L 152.123 292.005 L 155.802 303.831 L 148.707 303.306 Z " fill="rgb(242,129,130)"/><path d=" M 155.743 361.524 L 147.842 361.524 L 152.808 332.625 L 155.743 361.524 Z " fill="rgb(238,72,71)"/><path d=" M 207.949 322.505 C 205.697 321.904 203.565 320.866 201.612 319.568 C 201.454 319.257 201.293 318.947 201.129 318.64 C 203.183 320.265 205.431 321.624 207.949 322.505 Z  M 171.446 292.847 C 166.699 291.123 161.641 290.036 156.386 289.69 C 156.677 289.682 156.968 289.678 157.26 289.678 C 161.944 289.678 166.648 290.733 170.96 292.636 C 171.122 292.705 171.285 292.776 171.446 292.847 Z " fill="rgb(127,129,187)"/><path d=" M 201.612 319.568 C 201.328 319.379 201.047 319.185 200.771 318.986 C 198.608 317.391 196.648 315.538 194.802 313.604 C 192.937 311.684 191.22 309.639 189.422 307.687 C 187.623 305.74 185.771 303.849 183.768 302.12 C 181.793 300.365 179.713 298.727 177.531 297.239 C 175.343 295.754 173.024 294.483 170.643 293.344 C 168.259 292.211 165.757 291.313 163.176 290.726 C 160.606 290.094 157.959 289.785 155.292 289.741 C 155.656 289.717 156.021 289.7 156.386 289.69 C 161.641 290.036 166.699 291.123 171.446 292.847 C 176.208 294.954 180.52 297.966 184.437 301.364 C 188.484 304.917 191.85 309.123 195.373 313.075 C 197.145 315.055 199.037 316.985 201.129 318.64 C 201.293 318.947 201.454 319.257 201.612 319.568 Z " fill="rgb(127,129,187)"/><path d=" M 204.004 307.051 C 203.966 307.033 203.927 307.016 203.89 306.998 C 203.887 306.991 203.885 306.987 203.882 306.98 C 203.922 307.004 203.963 307.027 204.004 307.051 Z " fill="rgb(212,208,232)"/><path d=" M 203.89 306.998 C 201.701 305.968 199.711 304.533 197.873 302.953 C 196.011 301.328 194.309 299.54 192.6 297.781 C 189.24 294.211 185.717 290.829 181.534 288.321 C 177.455 285.68 172.923 283.772 168.233 282.484 C 163.989 281.324 159.583 280.77 155.152 280.77 C 154.677 280.77 154.201 280.777 153.725 280.789 C 155.262 280.616 156.809 280.541 158.359 280.541 C 159.273 280.541 160.188 280.567 161.102 280.613 C 163.566 280.782 166.011 281.185 168.424 281.733 C 173.239 282.881 177.864 284.842 182.073 287.465 C 186.295 290.086 189.932 293.574 193.17 297.25 C 194.811 299.075 196.435 300.908 198.207 302.586 C 199.914 304.268 201.805 305.757 203.882 306.98 C 203.885 306.987 203.887 306.991 203.89 306.998 Z " fill="rgb(127,129,187)"/><path d=" M 94.692 322.505 C 94.76 322.481 94.827 322.457 94.894 322.433 C 94.893 322.439 94.892 322.445 94.891 322.451 C 94.825 322.469 94.758 322.487 94.692 322.505 Z " fill="rgb(212,208,232)"/><path d=" M 94.891 322.451 C 94.892 322.445 94.893 322.439 94.894 322.433 C 99.879 320.628 103.801 316.949 107.268 313.075 C 110.791 309.123 114.157 304.917 118.204 301.364 C 122.255 297.851 126.726 294.749 131.682 292.636 C 135.993 290.733 140.697 289.678 145.381 289.678 C 146.038 289.678 146.694 289.699 147.349 289.741 C 144.682 289.785 142.035 290.094 139.464 290.726 C 136.884 291.313 134.383 292.211 131.998 293.344 C 130.514 294.054 129.053 294.815 127.635 295.647 C 118.985 300.114 111.677 306.818 106.477 314.992 C 105.032 316.42 103.51 317.777 101.871 318.986 C 99.751 320.514 97.396 321.751 94.891 322.451 Z " fill="rgb(127,129,187)"/><path d=" M 106.477 314.992 C 111.677 306.818 118.985 300.114 127.635 295.647 C 126.777 296.151 125.935 296.679 125.111 297.239 C 122.927 298.727 120.848 300.365 118.874 302.12 C 116.87 303.849 115.018 305.74 113.218 307.687 C 111.421 309.639 109.704 311.684 107.839 313.604 C 107.392 314.072 106.938 314.536 106.477 314.992 Z " fill="rgb(127,129,187)"/><path d=" M 98.637 307.051 C 100.762 305.815 102.694 304.301 104.434 302.586 C 106.207 300.908 107.83 299.075 109.471 297.25 C 112.709 293.574 116.346 290.086 120.568 287.465 C 124.777 284.842 129.402 282.881 134.217 281.733 C 136.63 281.185 139.075 280.782 141.539 280.613 C 142.453 280.567 143.368 280.541 144.282 280.541 C 145.832 280.541 147.379 280.616 148.916 280.789 C 148.44 280.777 147.964 280.77 147.489 280.77 C 143.058 280.77 138.652 281.324 134.408 282.484 C 129.717 283.772 125.186 285.68 121.107 288.321 C 116.925 290.829 113.401 294.211 110.041 297.781 C 108.332 299.54 106.63 301.328 104.768 302.953 C 102.898 304.561 100.871 306.018 98.637 307.051 Z " fill="rgb(127,129,187)"/><path d=" M 213.365 416.648 C 212.917 414.573 212.551 412.484 212.17 410.395 C 211.829 408.301 211.511 406.203 211.209 404.102 C 210.625 399.898 210.212 395.671 209.841 391.442 C 209.551 387.206 209.299 382.967 209.226 378.723 C 209.15 374.479 209.177 370.234 209.403 365.995 C 209.594 370.235 209.762 374.467 210 378.695 C 210.24 382.921 210.476 387.147 210.848 391.364 C 211.138 395.585 211.559 399.797 211.982 404.01 C 212.19 406.117 212.42 408.222 212.661 410.326 L 213.365 416.648 Z " fill="rgb(127,129,187)"/><path d=" M 200.576 409.807 C 200.252 408.683 200.001 407.543 199.726 406.407 C 199.489 405.263 199.268 404.117 199.053 402.968 C 198.631 400.669 198.335 398.351 198.089 396.028 C 197.866 393.702 197.693 391.37 197.648 389.034 C 197.591 386.699 197.6 384.362 197.769 382.029 C 198.017 384.354 198.204 386.673 198.421 388.989 L 199.094 395.926 L 200.576 409.807 Z " fill="rgb(127,129,187)"/><path d=" M 186.276 413.813 C 185.301 410.374 184.752 406.844 184.405 403.3 C 184.088 399.753 183.971 396.183 184.287 392.623 C 184.766 396.161 185.065 399.683 185.412 403.205 C 185.728 406.731 186.091 410.245 186.276 413.813 Z " fill="rgb(127,129,187)"/><path d=" M 120.113 416.099 C 119.942 412.683 120.08 409.288 120.294 405.899 C 120.539 402.511 120.858 399.128 121.484 395.766 C 121.652 399.182 121.515 402.576 121.302 405.967 C 121.06 409.355 120.741 412.737 120.113 416.099 Z " fill="rgb(127,129,187)"/><path d=" M 104.731 407.518 C 104.76 404.362 105.095 401.246 105.507 398.142 C 105.95 395.042 106.466 391.953 107.287 388.905 C 107.255 392.061 106.919 395.175 106.509 398.28 C 106.07 401.38 105.553 404.47 104.731 407.518 Z " fill="rgb(127,129,187)"/><path d=" M 88.707 416.97 C 88.957 414.882 89.265 412.806 89.534 410.723 L 90.426 404.489 L 92.252 392.033 L 94.145 379.586 C 94.791 375.438 95.427 371.288 96.144 367.147 C 95.841 371.339 95.399 375.518 94.913 379.69 C 94.43 383.863 93.83 388.021 93.251 392.182 C 92.591 396.33 91.949 400.482 91.194 404.615 L 90.023 410.806 C 89.589 412.862 89.183 414.922 88.707 416.97 Z " fill="rgb(127,129,187)"/><path d=" M 140.595 367.255 C 141.065 368.479 141.868 369.453 142.793 370.278 C 143.714 371.114 144.748 371.816 145.812 372.413 C 147.953 373.59 150.336 374.283 152.707 374.296 C 155.079 374.335 157.404 373.615 159.386 372.23 C 161.368 370.858 162.964 368.865 163.781 366.379 C 163.816 369.015 162.444 371.674 160.366 373.468 C 159.341 374.395 158.122 375.111 156.812 375.608 C 155.49 376.091 154.084 376.307 152.69 376.319 C 149.898 376.262 147.173 375.341 144.97 373.742 C 143.86 372.955 142.88 372.011 142.059 370.941 C 141.264 369.863 140.622 368.58 140.595 367.255 Z " fill="rgb(59,62,116)"/><path d=" M 472.571 330.487 C 469.511 339.199 462.029 345.45 456.26 352.66 C 450.492 359.871 446.292 370.129 450.883 378.141 C 453.344 382.434 457.829 385.112 461.173 388.759 C 466.478 394.543 468.725 402.985 466.999 410.641 C 465.272 418.297 459.62 424.957 452.345 427.906 C 447.089 430.036 440.98 430.404 436.555 433.952 C 431.773 437.786 430.244 444.268 427.359 449.677 C 420.444 462.643 403.87 469.563 389.788 465.364 C 379.18 462.201 370.524 453.691 359.607 451.868 C 352.909 450.75 346.239 452.286 339.541 453.822 C 333.922 455.111 328.283 456.4 322.592 456.121 C 307.195 455.368 293.869 442.138 291.294 426.938 C 288.984 413.308 294.14 399.091 291.018 385.624 C 288.633 375.341 282.614 366.229 280.415 355.906 C 277.097 340.33 281.179 322.979 296.839 312.245 C 302.875 308.109 309.035 304.229 315.934 301.79 C 349.635 289.881 381.016 295.24 415.398 287.766 C 450.611 280.111 483.513 299.329 472.571 330.487 Z " fill="rgb(222,219,237)"/><path d=" M 395.877 388.102 L 376.665 387.326 L 376.665 387.284 L 376.139 387.305 L 375.613 387.284 L 375.613 387.326 L 356.401 388.102 C 356.401 388.102 355.778 392.28 354.742 398.022 C 369.094 403.921 384.308 407.727 399.753 409.237 C 397.446 398.628 395.877 388.102 395.877 388.102 Z " fill="rgb(59,62,116)"/><path d=" M 375.708 444.902 C 394.704 444.902 403.973 433.05 407.814 425.99 C 405.122 424.468 403.165 422.559 402.418 419.986 C 401.462 416.694 400.562 412.96 399.753 409.237 C 384.308 407.727 369.094 403.921 354.742 398.022 C 353.554 404.596 351.824 413.221 349.861 419.986 C 349.021 422.877 346.659 424.934 343.432 426.539 C 347.6 433.768 357.04 444.902 375.708 444.902 Z " fill="rgb(246,158,144)"/><path d=" M 446.973 441.65 C 440.458 431.877 418.38 431.962 407.814 425.99 C 403.973 433.05 394.704 444.902 375.708 444.902 C 357.04 444.902 347.6 433.768 343.432 426.539 C 332.521 431.968 311.614 432.186 305.305 441.65 C 297.13 453.912 289.363 481.709 289.363 481.709 L 375.613 481.709 L 376.665 481.709 L 462.915 481.709 C 462.915 481.709 455.148 453.912 446.973 441.65 Z " fill="rgb(59,62,116)"/><path d=" M 337.183 345.178 C 337.183 353.802 330.192 360.793 321.568 360.793 C 312.945 360.793 305.954 353.802 305.954 345.178 C 305.954 336.554 312.945 329.563 321.568 329.563 C 330.192 329.563 337.183 336.554 337.183 345.178 Z " fill="rgb(246,158,144)"/><path d=" M 321.568 355.656 C 315.782 355.656 311.09 350.965 311.09 345.178 C 311.09 339.474 315.649 334.834 321.321 334.703 L 320.95 342.449 C 321.1 342.315 321.249 342.182 321.397 342.047 C 321.365 342.815 321.349 343.585 321.349 344.361 C 321.349 348.217 321.748 351.983 322.506 355.614 C 322.197 355.642 321.884 355.656 321.568 355.656 Z " fill="rgb(240,103,85)"/><path d=" M 446.324 345.178 C 446.324 353.802 439.333 360.793 430.71 360.793 C 422.086 360.793 415.094 353.802 415.094 345.178 C 415.094 336.554 422.086 329.563 430.71 329.563 C 439.333 329.563 446.324 336.554 446.324 345.178 Z " fill="rgb(246,158,144)"/><path d=" M 430.71 355.656 C 430.393 355.656 430.08 355.642 429.771 355.614 C 430.529 351.983 430.928 348.217 430.928 344.361 C 430.928 341.071 430.638 337.849 430.083 334.719 C 430.29 334.707 430.499 334.701 430.71 334.701 C 436.496 334.701 441.187 339.392 441.187 345.178 C 441.187 350.965 436.496 355.656 430.71 355.656 Z " fill="rgb(240,103,85)"/><path d=" M 430.928 344.361 C 430.928 374.62 406.398 399.151 376.138 399.151 C 345.879 399.151 321.349 374.62 321.349 344.361 C 321.349 314.101 345.879 289.571 376.138 289.571 C 406.398 289.571 430.928 314.101 430.928 344.361 Z " fill="rgb(246,158,144)"/><path d=" M 361.716 338.926 C 361.716 341.849 359.347 344.218 356.425 344.218 C 353.503 344.218 351.133 341.849 351.133 338.926 C 351.133 336.004 353.503 333.635 356.425 333.635 C 359.347 333.635 361.716 336.004 361.716 338.926 Z " fill="rgb(59,62,116)"/><path d=" M 343.62 335.437 C 344.74 333.785 346.147 332.323 347.713 331.04 C 349.299 329.785 351.06 328.733 352.935 327.912 C 354.805 327.107 356.784 326.357 358.865 326.284 C 360.926 326.197 363.027 326.473 364.898 327.358 L 364.864 327.557 C 362.837 327.782 360.949 327.96 359.08 328.295 C 357.23 328.643 355.336 328.828 353.51 329.426 C 351.691 330.009 349.932 330.826 348.299 331.865 C 346.646 332.876 345.135 334.133 343.777 335.563 L 343.62 335.437 Z " fill="rgb(59,62,116)"/><path d=" M 390.566 338.926 C 390.566 341.849 392.935 344.218 395.857 344.218 C 398.779 344.218 401.148 341.849 401.148 338.926 C 401.148 336.004 398.779 333.635 395.857 333.635 C 392.935 333.635 390.566 336.004 390.566 338.926 Z " fill="rgb(59,62,116)"/><path d=" M 408.505 335.563 C 407.147 334.133 405.636 332.876 403.982 331.865 C 402.35 330.826 400.591 330.009 398.772 329.426 C 396.947 328.828 395.051 328.643 393.202 328.295 C 391.334 327.96 389.446 327.782 387.419 327.557 L 387.384 327.358 C 389.255 326.473 391.356 326.197 393.418 326.284 C 395.499 326.357 397.477 327.107 399.346 327.912 C 401.222 328.733 402.982 329.785 404.57 331.04 C 406.134 332.323 407.543 333.785 408.663 335.437 L 408.505 335.563 Z " fill="rgb(59,62,116)"/><path d=" M 403.756 366.025 C 397.578 366.025 392.569 362.748 392.569 358.705 C 392.569 354.662 397.578 351.385 403.756 351.385 C 409.935 351.385 414.944 354.662 414.944 358.705 C 414.944 362.748 409.935 366.025 403.756 366.025 Z " fill="rgb(243,130,113)"/><path d=" M 349.063 366.025 C 342.885 366.025 337.877 362.748 337.877 358.705 C 337.877 354.662 342.885 351.385 349.063 351.385 C 355.242 351.385 360.251 354.662 360.251 358.705 C 360.251 362.748 355.242 366.025 349.063 366.025 Z " fill="rgb(243,130,113)"/><path d=" M 327.311 296.07 C 327.311 296.07 317.24 294.479 311.939 300.84 C 306.638 307.2 313.795 331.053 313.795 331.053 L 321.568 329.563 L 320.95 342.449 C 330.932 333.618 335.913 320.761 334.906 307.472 C 340.387 311.471 346.546 314.127 353.323 314.437 C 360.101 314.746 366.873 313.498 373.382 311.588 C 380.417 309.524 387.255 306.675 394.489 305.484 C 401.722 304.293 409.666 304.972 415.523 309.38 C 415.964 315.248 416.484 321.307 418.21 326.933 C 419.935 332.559 422.696 337.948 426.794 342.171 C 427.075 339.257 427.534 335.827 427.815 332.913 C 430.006 331.712 432.441 330.412 434.912 330.787 C 434.912 330.787 440.742 314.091 437.562 305.611 C 434.382 297.129 421.661 298.719 421.661 298.719 C 421.661 298.719 428.286 285.733 418.745 276.988 C 409.204 268.242 386.51 273.547 373.956 273.807 C 342.995 274.447 325.204 255.008 325.204 255.008 C 320.914 258.56 319.071 265.17 319.054 270.739 C 319.028 279.951 321.143 289.228 327.311 296.07 Z " fill="rgb(59,62,116)"/><path d=" M 387.113 376.371 C 387.936 375.299 388.477 374.239 388.72 373.385 C 389.18 371.767 389.214 369.972 388.488 368.455 C 387.76 366.94 386.174 365.783 384.495 365.866 C 380.667 366.056 378.352 371.565 374.152 369.645 C 371.049 368.227 368.246 363.319 364.262 366.295 C 362.989 367.247 362.426 368.95 362.563 370.534 C 362.7 372.117 363.447 373.591 364.379 374.879 C 364.969 375.698 365.754 376.58 366.645 377.423 C 373 374.511 380.493 374.127 387.113 376.371 Z " fill="rgb(59,62,116)"/><path d=" M 366.645 377.423 C 368.479 379.159 370.772 380.718 372.8 381.159 C 379.89 382.701 384.715 379.491 387.113 376.371 C 380.493 374.127 373 374.511 366.645 377.423 Z " fill="rgb(238,77,80)"/><path d=" M 430.922 326.032 C 429.9 325.597 428.96 324.977 428.075 324.288 C 427.21 323.572 426.425 322.757 425.721 321.875 C 424.313 320.106 423.306 318.034 422.665 315.866 C 422.047 313.694 421.775 311.434 421.839 309.198 C 421.892 306.961 422.213 304.746 422.803 302.611 C 422.723 303.715 422.622 304.812 422.606 305.91 C 422.558 307.006 422.553 308.1 422.614 309.188 C 422.734 311.361 423.022 313.518 423.636 315.585 C 424.226 317.653 425.151 319.621 426.349 321.415 C 426.948 322.313 427.637 323.155 428.408 323.92 C 429.157 324.712 430.013 325.398 430.922 326.032 Z " fill="rgb(127,129,187)"/><path d=" M 435.901 318.821 C 433.093 316.978 430.977 314.106 429.746 310.947 C 428.528 307.783 428.155 304.237 428.984 300.983 C 428.956 304.321 429.505 307.559 430.688 310.582 C 431.854 313.612 433.631 316.372 435.901 318.821 Z " fill="rgb(127,129,187)"/><path d=" M 317.893 325.852 C 318.818 325.295 319.706 324.701 320.506 324.001 C 321.325 323.329 322.08 322.586 322.758 321.782 C 324.116 320.176 325.248 318.388 326.07 316.462 C 326.916 314.543 327.457 312.496 327.807 310.411 C 327.984 309.368 328.09 308.309 328.142 307.244 C 328.227 306.179 328.215 305.109 328.212 304.03 C 328.444 305.085 328.555 306.162 328.638 307.245 C 328.687 308.329 328.667 309.419 328.58 310.507 C 328.403 312.684 327.864 314.841 326.999 316.865 C 326.111 318.879 324.886 320.756 323.328 322.308 C 322.549 323.081 321.706 323.787 320.8 324.398 C 319.877 324.981 318.917 325.501 317.893 325.852 Z " fill="rgb(127,129,187)"/><path d=" M 313.796 318.064 C 315.51 315.624 316.924 313.082 317.916 310.356 C 318.928 307.635 319.5 304.784 319.78 301.816 C 320.306 304.766 319.898 307.87 318.865 310.704 C 317.81 313.532 316.108 316.158 313.796 318.064 Z " fill="rgb(127,129,187)"/><path d=" M 357.204 301.684 C 353.372 301.684 349.521 301.026 345.996 299.462 C 343.686 298.478 341.531 297.162 339.562 295.62 C 337.584 294.089 335.798 292.321 334.228 290.383 C 331.053 286.525 328.755 282.029 327.114 277.361 C 325.504 272.669 324.51 267.799 323.928 262.901 C 324.737 267.765 325.827 272.597 327.58 277.192 C 329.301 281.785 331.648 286.17 334.826 289.884 C 337.987 293.586 341.876 296.734 346.358 298.617 C 349.706 300.077 353.349 300.693 357.001 300.693 C 358.215 300.693 359.43 300.625 360.635 300.497 C 365.495 300.029 370.254 298.716 374.937 297.23 C 379.625 295.738 384.288 294.045 389.126 292.925 C 392.598 292.108 396.179 291.541 399.763 291.541 C 401.149 291.541 402.535 291.626 403.916 291.814 C 406.375 292.134 408.833 292.862 410.944 294.196 C 411.997 294.858 412.966 295.679 413.696 296.692 C 414.426 297.7 414.902 298.894 414.998 300.127 C 414.704 297.629 412.901 295.619 410.804 294.423 C 408.69 293.179 406.287 292.546 403.854 292.303 C 402.706 292.171 401.555 292.11 400.404 292.11 C 396.668 292.11 392.935 292.751 389.31 293.677 C 384.554 294.903 379.918 296.561 375.218 298.106 C 370.519 299.627 365.711 300.991 360.734 301.503 C 359.566 301.621 358.386 301.684 357.204 301.684 Z " fill="rgb(127,129,187)"/><path d=" M 418.156 291.199 C 417.016 289.309 415.615 287.59 414.009 286.096 C 412.39 284.616 410.593 283.336 408.662 282.312 C 404.815 280.22 400.493 279.104 396.139 278.872 C 395.45 278.836 394.76 278.818 394.07 278.818 C 390.398 278.818 386.727 279.326 383.168 280.257 C 378.932 281.342 374.873 283.061 370.72 284.588 C 366.568 286.083 362.248 287.418 357.748 287.632 C 357.37 287.648 356.991 287.656 356.612 287.656 C 352.504 287.656 348.392 286.734 344.724 284.898 C 340.703 282.934 337.206 279.927 334.683 276.256 C 332.16 272.591 330.559 268.304 330.123 263.911 C 331.388 272.642 337.108 280.583 345.06 284.2 C 348.604 285.855 352.505 286.747 356.405 286.747 C 356.838 286.747 357.27 286.736 357.702 286.714 C 362.046 286.479 366.261 285.153 370.375 283.638 C 374.505 282.149 378.611 280.445 382.941 279.365 C 386.361 278.509 389.89 277.986 393.426 277.986 C 394.348 277.986 395.27 278.022 396.191 278.096 C 400.634 278.427 405.038 279.66 408.903 281.879 C 412.746 284.105 416.086 287.283 418.156 291.199 Z " fill="rgb(127,129,187)"/><path d=" M 376.374 360.947 C 373.979 360.947 371.609 360.349 369.329 359.508 C 369.592 354.85 369.854 350.021 370.954 345.528 C 372.053 341.034 373.774 336.7 376.316 333.058 C 378.606 336.73 380.25 340.91 381.321 345.257 C 382.391 349.604 382.877 354.286 383.357 358.77 C 381.324 360.278 378.87 360.933 376.45 360.947 C 376.425 360.947 376.399 360.947 376.374 360.947 Z " fill="rgb(240,103,85)"/><path d=" M 560.152 49.171 C 548.195 51.522 536.073 53.929 525.165 59.361 C 514.255 64.792 504.521 73.715 500.858 85.338 C 497.216 96.89 500.005 109.665 505.512 120.453 C 509.11 127.5 513.911 134.177 515.245 141.976 C 516.859 151.409 513.137 160.98 513.571 170.541 C 514.42 189.289 530.931 203.774 548.217 211.079 C 563.961 217.733 582.786 220.168 597.725 211.865 C 606.554 206.959 613.184 198.794 621.863 193.628 C 635.615 185.443 652.962 185.62 667.183 178.28 C 690.96 166.007 699.911 133.411 689.477 108.771 C 686.455 101.637 682.133 95.121 678.934 88.064 C 673.555 76.2 671.295 62.733 663.431 52.347 C 650.49 35.255 625.202 31.496 604.88 38.325 L 560.152 49.171 Z " fill="rgb(222,219,237)"/><path d=" M 613.064 151.062 L 593.852 150.286 L 593.852 150.244 L 593.326 150.265 L 592.8 150.244 L 592.8 150.286 L 573.588 151.062 C 573.588 151.062 572.965 155.24 571.928 160.982 C 586.281 166.882 601.495 170.687 616.939 172.197 C 614.633 161.588 613.064 151.062 613.064 151.062 Z " fill="rgb(59,62,116)"/><path d=" M 592.895 207.862 C 611.891 207.862 621.161 196.01 625.002 188.95 C 622.309 187.428 620.351 185.519 619.604 182.946 C 618.649 179.654 617.749 175.92 616.939 172.197 C 601.495 170.687 586.281 166.882 571.928 160.982 C 570.742 167.556 569.011 176.181 567.047 182.946 C 566.208 185.838 563.846 187.894 560.619 189.5 C 564.787 196.728 574.226 207.862 592.895 207.862 Z " fill="rgb(246,158,144)"/><path d=" M 664.16 204.61 C 657.645 194.838 635.567 194.923 625.002 188.95 C 621.161 196.01 611.891 207.862 592.895 207.862 C 574.226 207.862 564.787 196.728 560.619 189.5 C 549.709 194.929 528.801 195.146 522.492 204.61 C 514.317 216.873 506.55 244.669 506.55 244.669 L 592.8 244.669 L 593.852 244.669 L 680.102 244.669 C 680.102 244.669 672.336 216.873 664.16 204.61 Z " fill="rgb(59,62,116)"/><path d=" M 554.371 108.139 C 554.371 116.762 547.38 123.753 538.755 123.753 C 530.131 123.753 523.141 116.762 523.141 108.139 C 523.141 99.514 530.131 92.523 538.755 92.523 C 547.38 92.523 554.371 99.514 554.371 108.139 Z " fill="rgb(246,158,144)"/><path d=" M 538.755 118.616 C 532.969 118.616 528.278 113.925 528.278 108.139 C 528.278 102.351 532.969 97.661 538.755 97.661 C 538.966 97.661 539.175 97.667 539.382 97.679 C 538.827 100.809 538.537 104.031 538.537 107.321 C 538.537 111.179 538.935 114.942 539.694 118.575 C 539.385 118.602 539.072 118.616 538.755 118.616 Z " fill="rgb(240,103,85)"/><path d=" M 663.511 108.139 C 663.511 116.762 656.52 123.753 647.896 123.753 C 639.273 123.753 632.282 116.762 632.282 108.139 C 632.282 99.514 639.273 92.523 647.896 92.523 C 656.52 92.523 663.511 99.514 663.511 108.139 Z " fill="rgb(246,158,144)"/><path d=" M 647.896 118.616 C 647.58 118.616 647.268 118.602 646.959 118.575 C 647.718 114.942 648.116 111.179 648.116 107.321 C 648.116 104.031 647.826 100.809 647.27 97.679 C 647.477 97.667 647.686 97.661 647.896 97.661 C 653.683 97.661 658.374 102.351 658.374 108.139 C 658.374 113.925 653.683 118.616 647.896 118.616 Z " fill="rgb(240,103,85)"/><path d=" M 648.116 107.321 C 648.116 137.58 623.586 162.111 593.326 162.111 C 563.066 162.111 538.537 137.58 538.537 107.321 C 538.537 77.061 563.066 52.531 593.326 52.531 C 623.586 52.531 648.116 77.061 648.116 107.321 Z " fill="rgb(246,158,144)"/><path d=" M 620.944 128.985 C 614.765 128.985 609.756 125.708 609.756 121.665 C 609.756 117.622 614.765 114.346 620.944 114.346 C 627.123 114.346 632.131 117.622 632.131 121.665 C 632.131 125.708 627.123 128.985 620.944 128.985 Z " fill="rgb(243,130,113)"/><path d=" M 566.251 128.985 C 560.072 128.985 555.063 125.708 555.063 121.665 C 555.063 117.622 560.072 114.346 566.251 114.346 C 572.429 114.346 577.438 117.622 577.438 121.665 C 577.438 125.708 572.429 128.985 566.251 128.985 Z " fill="rgb(243,130,113)"/><path d=" M 628.86 90.156 C 618.323 87.116 607.709 82.772 600.422 74.734 C 596.615 70.534 594.094 68.281 591.414 63.318 C 586.271 75.019 576.598 84.754 564.784 90.121 C 552.968 95.487 539.12 96.435 526.655 92.731 C 523.856 91.899 520.681 88.883 519.799 86.156 C 521.971 86.472 524.142 86.789 526.314 87.106 C 523.855 85.233 521.769 82.892 520.208 80.253 C 521.053 79.99 521.905 80.28 522.769 80.569 C 523.438 80.794 524.114 81.018 524.8 80.986 C 526.431 80.909 527.599 79.445 528.395 78.052 C 532.75 70.425 532.989 60.977 537.754 53.588 C 540.309 49.625 544.025 46.501 547.95 43.813 C 554.409 39.39 561.794 35.928 569.657 35.332 C 577.519 34.736 585.897 37.361 590.886 43.332 C 595.448 38.241 601.74 34.696 608.583 33.667 C 615.425 32.638 622.624 34.041 628.54 37.557 C 635.367 41.614 640.236 48.179 644.186 54.968 C 648.136 61.756 651.373 68.963 655.935 75.375 C 657.478 77.544 659.623 79.826 662.32 79.649 C 663.115 79.597 663.893 79.325 664.688 79.373 C 665.483 79.422 666.349 79.961 666.337 80.74 C 666.332 81.146 666.088 81.511 665.83 81.83 C 664.758 83.148 663.247 84.12 661.584 84.559 C 662.837 83.84 664.966 83.443 665.29 84.829 C 665.42 85.39 665.173 86.003 664.776 86.427 C 656.674 95.057 638.211 92.852 628.86 90.156 Z " fill="rgb(59,62,116)"/><path d=" M 538.432 87.448 C 536.231 87.448 534.033 87.31 531.863 86.988 C 533.223 87.084 534.585 87.136 535.945 87.136 C 537.536 87.136 539.125 87.065 540.706 86.91 C 543.639 86.657 546.546 86.157 549.39 85.422 C 555.079 83.965 560.551 81.665 565.511 78.534 C 570.516 75.469 575 71.588 578.936 67.225 C 580.911 65.045 582.732 62.724 584.4 60.295 C 586.096 57.882 587.603 55.338 588.997 52.728 C 586.595 58.14 583.376 63.204 579.511 67.73 C 575.649 72.258 571.083 76.196 566.04 79.382 C 560.954 82.5 555.383 84.847 549.571 86.169 C 546.665 86.823 543.709 87.242 540.74 87.399 C 539.971 87.431 539.201 87.448 538.432 87.448 Z " fill="rgb(127,129,187)"/><path d=" M 538.954 69.633 C 539.99 69.462 541.025 69.3 542.06 69.151 L 545.135 68.533 L 548.18 67.805 L 551.183 66.93 C 555.158 65.679 559.036 64.121 562.713 62.171 C 566.429 60.293 569.936 58.021 573.252 55.497 C 576.569 52.971 579.652 50.134 582.512 47.064 C 579.964 50.403 576.983 53.416 573.728 56.097 C 570.473 58.783 566.903 61.079 563.173 63.058 C 559.407 64.966 555.47 66.555 551.4 67.668 L 548.329 68.419 L 545.226 69.015 L 542.096 69.413 C 541.047 69.497 540 69.57 538.954 69.633 Z " fill="rgb(127,129,187)"/><path d=" M 547.056 57.05 L 550.171 55.232 C 551.21 54.633 552.242 54.023 553.262 53.396 C 555.298 52.138 557.327 50.873 559.308 49.536 C 561.303 48.219 563.249 46.83 565.192 45.432 C 567.128 44.024 569.025 42.557 570.944 41.099 C 569.3 42.865 567.516 44.491 565.663 46.036 C 563.816 47.591 561.864 49.016 559.864 50.367 C 557.849 51.699 555.785 52.955 553.641 54.065 C 552.567 54.616 551.488 55.153 550.398 55.667 C 549.29 56.144 548.19 56.635 547.056 57.05 Z " fill="rgb(127,129,187)"/><path d=" M 638.248 84.204 C 636.822 84.204 635.395 84.128 633.971 83.996 C 631.539 83.738 629.125 83.279 626.758 82.634 C 622.026 81.331 617.524 79.2 613.463 76.427 C 609.446 73.589 605.872 70.118 602.999 66.14 C 601.568 64.147 600.292 62.047 599.201 59.858 C 598.137 57.656 597.222 55.383 596.563 53.038 C 598.29 57.588 600.659 61.865 603.612 65.681 C 606.565 69.493 610.053 72.895 614.032 75.607 C 617.963 78.383 622.37 80.465 626.974 81.896 C 629.276 82.618 631.639 83.157 634.033 83.51 C 636.424 83.896 638.85 84.057 641.284 84.081 C 640.275 84.165 639.262 84.204 638.248 84.204 Z " fill="rgb(127,129,187)"/><path d=" M 640.032 69.456 C 638.1 69.456 636.169 69.258 634.254 68.956 C 632.24 68.605 630.252 68.1 628.303 67.464 C 624.409 66.179 620.724 64.292 617.308 62.021 C 613.938 59.684 610.827 56.975 608.097 53.929 C 605.367 50.885 602.964 47.559 600.961 44.018 C 603.311 47.335 605.844 50.508 608.658 53.406 C 611.469 56.3 614.515 58.969 617.87 61.195 C 621.177 63.486 624.787 65.327 628.558 66.739 C 630.443 67.451 632.378 68.032 634.349 68.475 C 636.315 68.952 638.321 69.251 640.345 69.454 C 640.241 69.456 640.136 69.456 640.032 69.456 Z " fill="rgb(127,129,187)"/><path d=" M 634.73 57.896 C 634.109 57.754 633.487 57.604 632.868 57.439 L 631.038 56.85 L 629.258 56.115 L 627.52 55.279 C 625.231 54.099 623.109 52.611 621.138 50.959 C 619.182 49.289 617.369 47.454 615.754 45.462 C 614.132 43.478 612.66 41.377 611.41 39.15 C 613.001 41.145 614.611 43.106 616.332 44.959 C 618.06 46.803 619.853 48.58 621.783 50.196 C 623.698 51.829 625.746 53.298 627.896 54.608 L 629.537 55.548 L 631.229 56.398 L 632.957 57.19 C 633.548 57.414 634.139 57.651 634.73 57.896 Z " fill="rgb(127,129,187)"/><path d=" M 561.599 95.806 C 562.719 94.155 564.128 92.692 565.692 91.41 C 567.279 90.155 569.04 89.102 570.916 88.282 C 572.785 87.476 574.763 86.726 576.844 86.652 C 578.906 86.566 581.006 86.842 582.878 87.727 L 582.843 87.927 C 580.816 88.151 578.928 88.329 577.06 88.664 C 575.211 89.012 573.315 89.198 571.49 89.795 C 569.671 90.378 567.912 91.195 566.279 92.234 C 564.626 93.245 563.115 94.502 561.757 95.932 L 561.599 95.806 Z " fill="rgb(59,62,116)"/><path d=" M 607.09 100.218 C 607.09 103.14 609.459 105.509 612.381 105.509 C 615.303 105.509 617.672 103.14 617.672 100.218 C 617.672 97.295 615.303 94.926 612.381 94.926 C 609.459 94.926 607.09 97.295 607.09 100.218 Z " fill="rgb(59,62,116)"/><path d=" M 626.485 95.932 C 625.127 94.502 623.616 93.245 621.963 92.234 C 620.33 91.195 618.571 90.378 616.752 89.795 C 614.926 89.198 613.032 89.012 611.182 88.664 C 609.313 88.329 607.425 88.151 605.398 87.927 L 605.364 87.727 C 607.235 86.842 609.336 86.566 611.397 86.652 C 613.478 86.726 615.457 87.476 617.326 88.282 C 619.202 89.102 620.963 90.155 622.549 91.41 C 624.115 92.692 625.523 94.155 626.642 95.806 L 626.485 95.932 Z " fill="rgb(59,62,116)"/><path d=" M 567.625 103.426 C 569.785 102.402 572.067 101.682 574.391 101.154 C 576.715 100.614 579.09 100.311 581.472 100.157 L 580.873 101.936 C 579.161 100.45 577.339 99.112 575.41 97.935 C 573.47 96.768 571.403 95.811 569.168 95.035 C 571.54 94.979 573.933 95.564 576.13 96.536 C 578.344 97.494 580.356 98.862 582.186 100.398 L 584.158 102.053 L 581.587 102.177 C 579.272 102.289 576.964 102.498 574.644 102.712 C 572.325 102.938 570.004 103.215 567.625 103.426 Z " fill="rgb(59,62,116)"/><path d=" M 597.243 126.357 L 589.341 126.357 L 594.308 97.459 L 597.243 126.357 Z " fill="rgb(239,86,78)"/><path d=" M 582.095 132.088 C 582.566 133.313 583.368 134.286 584.293 135.112 C 585.214 135.947 586.248 136.649 587.312 137.246 C 589.453 138.423 591.836 139.116 594.207 139.129 C 596.579 139.169 598.904 138.448 600.886 137.063 C 602.868 135.691 604.464 133.698 605.281 131.212 C 605.316 133.848 603.945 136.508 601.866 138.302 C 600.841 139.228 599.622 139.944 598.312 140.442 C 596.99 140.924 595.583 141.14 594.191 141.152 C 591.399 141.096 588.673 140.175 586.47 138.576 C 585.36 137.788 584.38 136.844 583.559 135.774 C 582.764 134.697 582.122 133.414 582.095 132.088 Z " fill="rgb(59,62,116)"/><path d=" M 514.677 414.018 C 525.318 419.263 537.248 423.223 544.952 432.178 C 551.225 439.471 553.314 449.593 558.847 457.473 C 568.46 471.16 587.02 475.854 604.084 474.547 C 612.45 473.906 620.911 472.006 628.298 467.773 C 635.687 463.539 641.928 456.777 644.354 448.679 C 647.367 438.619 644.426 427.356 649.148 417.911 C 653.936 408.333 664.865 403.813 673.692 397.686 C 680.65 392.857 686.764 386.461 690.101 378.722 C 693.438 370.983 693.716 361.816 689.717 354.704 C 686.699 349.337 681.569 345.502 678.203 340.356 C 671.513 330.128 672.734 316.607 670.2 304.525 C 666.021 284.604 650.125 267.858 630.256 263.406 C 610.388 258.953 587.529 267.434 575.305 284.438 C 571.101 290.286 567.82 297.262 561.616 300.904 C 554.204 305.255 545.801 303.338 537.274 301.421 C 529.932 299.771 522.498 298.121 515.525 300.471 C 503.982 304.362 498.17 318.357 499.631 330.224 C 500.63 338.354 505.394 347.479 500.699 354.441 C 490.002 370.296 482.716 398.263 514.677 414.018 Z " fill="rgb(222,219,237)"/><path d=" M 544.362 461.695 L 546.374 471.642 L 548.18 471.642 L 552.327 454.09 L 553.734 471.642 L 635.12 471.642 L 636.527 454.09 L 640.673 471.642 L 642.48 471.642 L 644.492 461.695 L 646.618 471.642 L 663.404 471.642 C 663.404 471.642 653.155 364.85 647.899 332.18 C 642.642 299.51 625.035 275.974 592.973 275.974 C 560.911 275.974 541.201 292.133 535.944 334.288 C 530.688 376.443 522.542 471.642 522.542 471.642 L 542.236 471.642 L 544.362 461.695 Z " fill="rgb(59,62,116)"/><path d=" M 613.064 388.102 L 593.852 387.326 L 593.852 387.284 L 593.326 387.305 L 592.8 387.284 L 592.8 387.326 L 573.588 388.102 C 573.588 388.102 572.965 392.28 571.928 398.022 C 586.281 403.921 601.495 407.727 616.939 409.237 C 614.633 398.628 613.064 388.102 613.064 388.102 Z " fill="rgb(59,62,116)"/><path d=" M 592.895 444.902 C 611.891 444.902 621.161 433.05 625.002 425.99 C 622.309 424.468 620.351 422.559 619.604 419.986 C 618.649 416.694 617.749 412.96 616.939 409.237 C 601.495 407.727 586.281 403.921 571.928 398.022 C 570.742 404.596 569.011 413.221 567.047 419.986 C 566.208 422.877 563.846 424.934 560.619 426.539 C 564.787 433.768 574.226 444.902 592.895 444.902 Z " fill="rgb(242,129,130)"/><path d=" M 664.16 441.65 C 657.645 431.877 635.567 431.962 625.002 425.99 C 621.161 433.05 611.891 444.902 592.895 444.902 C 574.226 444.902 564.787 433.768 560.619 426.539 C 549.709 431.968 528.801 432.186 522.492 441.65 C 514.317 453.912 506.55 481.709 506.55 481.709 L 592.8 481.709 L 593.852 481.709 L 680.102 481.709 C 680.102 481.709 672.336 453.912 664.16 441.65 Z " fill="rgb(202,198,226)"/><path d=" M 554.371 345.178 C 554.371 353.802 547.38 360.793 538.755 360.793 C 530.131 360.793 523.141 353.802 523.141 345.178 C 523.141 336.554 530.131 329.563 538.755 329.563 C 547.38 329.563 554.371 336.554 554.371 345.178 Z " fill="rgb(242,129,130)"/><path d=" M 538.755 355.656 C 532.969 355.656 528.278 350.965 528.278 345.178 C 528.278 339.392 532.969 334.701 538.755 334.701 C 538.966 334.701 539.174 334.707 539.381 334.719 C 538.826 337.849 538.536 341.071 538.536 344.361 C 538.536 344.883 538.561 345.401 538.576 345.92 C 542.069 344.729 545.15 342.377 547.524 339.441 L 547.524 339.441 C 545.15 342.377 542.069 344.729 538.576 345.92 C 538.669 349.234 539.055 352.471 539.711 355.613 C 539.396 355.641 539.078 355.656 538.755 355.656 Z " fill="rgb(238,72,71)"/><path d=" M 663.511 345.178 C 663.511 353.802 656.52 360.793 647.896 360.793 C 639.273 360.793 632.282 353.802 632.282 345.178 C 632.282 336.554 639.273 329.563 647.896 329.563 C 656.52 329.563 663.511 336.554 663.511 345.178 Z " fill="rgb(242,129,130)"/><path d=" M 647.896 355.656 C 647.574 355.656 647.256 355.641 646.942 355.613 C 647.602 352.448 647.99 349.183 648.079 345.844 C 644.784 344.244 641.847 341.829 639.441 338.989 L 639.441 338.989 C 641.847 341.829 644.784 344.244 648.079 345.844 C 648.091 345.35 648.116 344.858 648.116 344.361 C 648.116 341.071 647.826 337.849 647.27 334.719 C 647.477 334.707 647.686 334.701 647.896 334.701 C 653.683 334.701 658.374 339.392 658.374 345.178 C 658.374 350.965 653.683 355.656 647.896 355.656 Z " fill="rgb(238,72,71)"/><path d=" M 550.258 335.204 C 553.198 329.368 553.919 322.662 553.899 316.127 C 553.899 316.127 568.28 301.303 589.784 300.987 C 611.288 300.67 629.63 316.165 629.63 316.165 C 631.273 323.017 633.473 330.486 637.42 336.323 C 640.112 340.302 643.794 343.763 648.079 345.844 C 648.091 345.35 648.116 344.858 648.116 344.361 C 648.116 314.101 623.586 289.571 593.326 289.571 C 563.066 289.571 538.536 314.101 538.536 344.361 C 538.536 344.883 538.561 345.401 538.576 345.92 C 543.631 344.196 547.824 340.041 550.258 335.204 Z " fill="rgb(59,62,116)"/><path d=" M 637.42 336.323 C 633.473 330.486 631.273 323.017 629.63 316.165 C 629.63 316.165 611.288 300.67 589.784 300.987 C 568.28 301.303 553.899 316.127 553.899 316.127 C 553.919 322.662 553.198 329.368 550.258 335.204 C 547.824 340.041 543.631 344.196 538.576 345.92 C 539.404 375.456 563.589 399.151 593.326 399.151 C 623.089 399.151 647.29 375.415 648.079 345.844 C 643.794 343.763 640.112 340.302 637.42 336.323 Z " fill="rgb(242,129,130)"/><path d=" M 620.944 366.025 C 614.765 366.025 609.756 362.748 609.756 358.705 C 609.756 354.662 614.765 351.385 620.944 351.385 C 627.123 351.385 632.131 354.662 632.131 358.705 C 632.131 362.748 627.123 366.025 620.944 366.025 Z " fill="rgb(240,101,101)"/><path d=" M 566.251 366.025 C 560.072 366.025 555.063 362.748 555.063 358.705 C 555.063 354.662 560.072 351.385 566.251 351.385 C 572.429 351.385 577.438 354.662 577.438 358.705 C 577.438 362.748 572.429 366.025 566.251 366.025 Z " fill="rgb(240,101,101)"/><path d=" M 560.686 330.972 C 561.806 329.322 563.214 327.859 564.779 326.576 C 566.366 325.322 568.127 324.269 570.003 323.449 C 571.872 322.643 573.85 321.893 575.931 321.819 C 577.993 321.733 580.093 322.009 581.964 322.894 L 581.93 323.093 C 579.903 323.318 578.015 323.496 576.147 323.831 C 574.297 324.178 572.402 324.365 570.577 324.961 C 568.757 325.544 566.999 326.362 565.366 327.401 C 563.713 328.411 562.202 329.668 560.844 331.099 L 560.686 330.972 Z " fill="rgb(59,62,116)"/><path d=" M 606.177 335.384 C 606.177 338.307 608.546 340.675 611.468 340.675 C 614.39 340.675 616.759 338.307 616.759 335.384 C 616.759 332.462 614.39 330.093 611.468 330.093 C 608.546 330.093 606.177 332.462 606.177 335.384 Z " fill="rgb(59,62,116)"/><path d=" M 568.778 335.384 C 568.778 338.307 571.147 340.675 574.069 340.675 C 576.992 340.675 579.36 338.307 579.36 335.384 C 579.36 332.462 576.992 330.093 574.069 330.093 C 571.147 330.093 568.778 332.462 568.778 335.384 Z " fill="rgb(59,62,116)"/><path d=" M 625.572 331.099 C 624.214 329.668 622.703 328.411 621.049 327.401 C 619.417 326.362 617.658 325.544 615.839 324.961 C 614.013 324.365 612.118 324.178 610.268 323.831 C 608.4 323.496 606.512 323.318 604.485 323.093 L 604.451 322.894 C 606.322 322.009 608.422 321.733 610.484 321.819 C 612.565 321.893 614.544 322.643 616.413 323.449 C 618.289 324.269 620.049 325.322 621.636 326.576 C 623.201 327.859 624.609 329.322 625.729 330.972 L 625.572 331.099 Z " fill="rgb(59,62,116)"/><path d=" M 589.293 303.306 L 592.709 292.005 L 596.389 303.831 L 589.293 303.306 Z " fill="rgb(242,129,130)"/><path d=" M 653.952 416.648 C 653.503 414.573 653.138 412.484 652.756 410.395 C 652.416 408.301 652.098 406.203 651.795 404.102 C 651.212 399.898 650.798 395.671 650.427 391.442 C 650.138 387.206 649.886 382.967 649.813 378.723 C 649.737 374.479 649.764 370.234 649.99 365.995 C 650.181 370.235 650.349 374.467 650.586 378.695 C 650.827 382.921 651.063 387.147 651.435 391.364 C 651.725 395.585 652.146 399.797 652.569 404.01 C 652.777 406.117 653.006 408.222 653.248 410.326 L 653.952 416.648 Z " fill="rgb(127,129,187)"/><path d=" M 641.163 409.807 C 640.839 408.683 640.587 407.543 640.313 406.407 C 640.076 405.263 639.855 404.117 639.64 402.968 C 639.218 400.669 638.922 398.351 638.675 396.028 C 638.453 393.702 638.28 391.37 638.235 389.034 C 638.178 386.699 638.187 384.362 638.356 382.029 C 638.604 384.354 638.791 386.673 639.008 388.989 L 639.681 395.926 L 641.163 409.807 Z " fill="rgb(127,129,187)"/><path d=" M 626.863 413.813 C 625.888 410.374 625.338 406.844 624.992 403.3 C 624.675 399.753 624.558 396.183 624.874 392.623 C 625.353 396.161 625.652 399.683 625.999 403.205 C 626.315 406.731 626.678 410.245 626.863 413.813 Z " fill="rgb(127,129,187)"/><path d=" M 560.7 416.099 C 560.529 412.683 560.667 409.288 560.88 405.899 C 561.126 402.511 561.445 399.128 562.071 395.766 C 562.239 399.182 562.102 402.576 561.889 405.967 C 561.647 409.355 561.328 412.737 560.7 416.099 Z " fill="rgb(127,129,187)"/><path d=" M 545.318 407.518 C 545.347 404.362 545.682 401.246 546.094 398.142 C 546.537 395.042 547.053 391.953 547.874 388.905 C 547.841 392.061 547.506 395.175 547.096 398.28 C 546.657 401.38 546.14 404.47 545.318 407.518 Z " fill="rgb(127,129,187)"/><path d=" M 529.293 416.97 C 529.544 414.882 529.852 412.806 530.121 410.723 L 531.013 404.489 L 532.839 392.033 L 534.732 379.586 C 535.378 375.438 536.013 371.288 536.731 367.147 C 536.427 371.339 535.986 375.518 535.5 379.69 C 535.017 383.863 534.417 388.021 533.838 392.182 C 533.178 396.33 532.536 400.482 531.781 404.615 L 530.61 410.806 C 530.175 412.862 529.77 414.922 529.293 416.97 Z " fill="rgb(127,129,187)"/><path d=" M 590.131 308.864 C 590.01 307.705 589.97 306.545 589.913 305.382 C 589.902 304.705 589.899 304.028 589.902 303.351 L 590.555 303.399 C 590.5 304.064 590.45 304.729 590.403 305.394 L 590.131 308.864 Z " fill="rgb(230,165,193)"/><path d=" M 591.317 289.607 C 591.424 289.09 591.537 288.575 591.658 288.062 C 592.18 285.794 592.795 283.549 593.589 281.362 C 593.194 283.654 592.771 285.926 592.409 288.207 C 592.338 288.666 592.268 289.124 592.198 289.582 C 591.904 289.588 591.61 289.596 591.317 289.607 Z " fill="rgb(127,129,187)"/><path d=" M 589.942 300.984 C 590.015 298.962 590.198 296.943 590.44 294.934 C 590.674 293.149 590.955 291.369 591.317 289.607 C 591.61 289.596 591.904 289.588 592.198 289.582 C 591.92 291.406 591.652 293.229 591.432 295.059 C 591.347 295.714 591.267 296.369 591.192 297.025 L 589.995 300.984 C 589.977 300.984 589.96 300.984 589.942 300.984 Z " fill="rgb(127,129,187)"/><path d=" M 589.935 301.183 C 589.937 301.117 589.94 301.051 589.942 300.984 C 589.96 300.984 589.977 300.984 589.995 300.984 L 589.935 301.183 Z " fill="rgb(230,165,193)"/><path d=" M 590.555 303.399 L 589.902 303.351 C 589.904 302.866 589.909 302.38 589.917 301.894 C 589.921 301.657 589.927 301.42 589.935 301.183 L 589.995 300.984 L 591.192 297.025 C 591.005 298.66 590.844 300.298 590.684 301.939 C 590.638 302.425 590.595 302.912 590.555 303.399 Z " fill="rgb(230,165,193)"/><path d=" M 580.016 291.199 C 580.369 290.23 580.739 289.269 581.13 288.315 C 582.237 285.583 583.453 282.897 584.856 280.307 C 583.829 283.066 582.798 285.812 581.847 288.583 C 581.58 289.372 581.315 290.161 581.053 290.951 C 580.708 291.03 580.359 291.113 580.016 291.199 Z " fill="rgb(127,129,187)"/><path d=" M 576.546 303.036 C 577.024 300.892 577.589 298.768 578.208 296.66 C 578.763 294.825 579.359 293 580.016 291.199 C 580.359 291.113 580.708 291.03 581.053 290.951 C 580.393 292.94 579.755 294.935 579.166 296.946 C 578.584 298.871 578.047 300.81 577.53 302.755 C 577.199 302.846 576.871 302.939 576.546 303.036 Z " fill="rgb(127,129,187)"/><path d=" M 574.824 313.987 C 574.939 312.518 575.139 311.06 575.328 309.598 C 575.556 308.144 575.812 306.693 576.086 305.244 C 576.228 304.506 576.382 303.77 576.546 303.036 C 576.871 302.939 577.199 302.846 577.53 302.755 C 577.295 303.639 577.065 304.525 576.836 305.412 C 576.473 306.832 576.134 308.258 575.809 309.689 L 574.824 313.987 Z " fill="rgb(230,165,193)"/><path d=" M 563.763 298.223 C 564.289 297.306 564.84 296.402 565.412 295.511 C 567.049 293.002 568.851 290.596 570.856 288.372 C 572.852 286.141 575.003 284.052 577.348 282.205 C 575.283 284.356 573.293 286.558 571.44 288.866 C 569.597 291.183 567.845 293.566 566.251 296.054 C 566.023 296.403 565.799 296.754 565.577 297.107 C 564.966 297.467 564.359 297.84 563.763 298.223 Z " fill="rgb(127,129,187)"/><path d=" M 558.171 311.854 C 558.53 310.406 558.991 308.987 559.461 307.566 L 560.26 305.472 L 561.131 303.404 C 561.912 301.63 562.797 299.904 563.763 298.223 C 564.359 297.84 564.966 297.467 565.577 297.107 C 564.229 299.256 562.99 301.475 561.825 303.735 L 560.839 305.725 L 559.916 307.748 L 559.019 309.787 C 558.747 310.479 558.462 311.166 558.171 311.854 Z " fill="rgb(127,129,187)"/><path d=" M 551.792 308.625 C 552.046 307.773 552.329 306.927 552.613 306.081 L 553.349 304.188 L 554.149 302.318 C 555.256 299.84 556.591 297.465 558.071 295.188 C 559.57 292.922 561.213 290.75 563.043 288.745 C 564.863 286.735 566.823 284.851 568.96 283.193 C 567.102 285.156 565.303 287.152 563.626 289.242 C 561.957 291.339 560.362 293.49 558.907 295.735 C 557.431 297.966 556.096 300.287 554.841 302.655 L 553.925 304.447 L 553.066 306.267 L 552.225 308.102 C 552.218 308.119 552.211 308.135 552.205 308.152 C 552.066 308.309 551.928 308.467 551.792 308.625 Z " fill="rgb(127,129,187)"/><path d=" M 551.423 309.96 C 551.536 309.512 551.66 309.068 551.792 308.625 C 551.928 308.467 552.066 308.309 552.205 308.152 C 551.954 308.757 551.693 309.36 551.423 309.96 Z " fill="rgb(127,129,187)"/><path d=" M 604.543 303.068 C 604.251 302.984 603.957 302.902 603.662 302.822 L 603.662 302.822 C 603.957 302.902 604.251 302.984 604.543 303.067 C 604.543 303.068 604.543 303.068 604.543 303.068 Z  M 602.617 290.355 C 602.387 290.316 602.155 290.278 601.923 290.241 C 601.689 288.633 601.451 287.023 601.25 285.402 C 601.788 287.031 602.228 288.687 602.617 290.355 Z " fill="rgb(127,129,187)"/><path d=" M 604.543 303.067 C 604.251 302.984 603.957 302.902 603.662 302.822 L 602.998 297.873 L 602.126 291.648 C 602.059 291.179 601.991 290.71 601.923 290.241 C 602.155 290.278 602.387 290.316 602.617 290.355 C 602.707 290.74 602.794 291.125 602.88 291.511 C 603.344 293.569 603.688 295.65 603.987 297.737 C 604.221 299.508 604.422 301.285 604.543 303.067 Z " fill="rgb(127,129,187)"/><path d=" M 604.675 310.354 C 604.506 309.311 604.393 308.267 604.236 307.226 L 603.834 304.103 L 603.662 302.822 C 603.957 302.902 604.251 302.984 604.543 303.068 C 604.565 303.388 604.584 303.709 604.6 304.031 C 604.651 305.084 604.696 306.137 604.724 307.191 C 604.716 308.246 604.733 309.299 604.675 310.354 Z " fill="rgb(230,165,193)"/><path d=" M 616.608 307.857 C 616.406 307.755 616.204 307.654 615.998 307.552 C 615.998 307.552 615.998 307.552 615.998 307.551 C 616.203 307.653 616.407 307.755 616.608 307.856 C 616.608 307.857 616.608 307.857 616.608 307.857 Z  M 609.933 292.133 C 609.53 292.005 609.129 291.882 608.722 291.763 C 608.374 291.061 608.024 290.36 607.675 289.657 C 606.492 287.3 605.258 284.965 604.052 282.604 C 605.61 284.751 607.018 287 608.349 289.293 C 608.897 290.228 609.424 291.176 609.933 292.133 Z " fill="rgb(127,129,187)"/><path d=" M 616.608 307.856 C 616.407 307.755 616.203 307.653 615.998 307.551 C 615.488 306.348 614.971 305.148 614.437 303.955 C 613.355 301.548 612.282 299.142 611.144 296.765 C 610.36 295.087 609.545 293.424 608.722 291.763 C 609.129 291.882 609.53 292.005 609.933 292.133 C 610.67 293.518 611.37 294.922 612.048 296.337 C 613.172 298.74 614.23 301.175 615.149 303.664 C 615.604 304.909 616.048 306.158 616.472 307.414 C 616.517 307.562 616.562 307.709 616.608 307.856 Z " fill="rgb(127,129,187)"/><path d=" M 617.592 311.23 L 616.013 307.587 C 616.008 307.575 616.003 307.564 615.998 307.552 C 616.204 307.654 616.406 307.755 616.608 307.857 C 616.952 308.977 617.302 310.094 617.592 311.23 Z " fill="rgb(230,165,193)"/><path d=" M 624.033 298.977 C 623.365 298.524 622.685 298.085 621.996 297.661 C 621.904 297.526 621.811 297.392 621.717 297.257 C 620.13 294.926 618.405 292.686 616.674 290.444 C 614.934 288.208 613.138 286.01 611.417 283.742 C 613.448 285.738 615.392 287.812 617.265 289.956 C 619.147 292.095 620.91 294.343 622.541 296.691 C 623.053 297.442 623.552 298.203 624.033 298.977 Z " fill="rgb(127,129,187)"/><path d=" M 629.395 312.279 C 629.153 311.608 628.921 310.938 628.699 310.266 L 627.909 308.296 L 627.057 306.36 L 626.113 304.468 C 624.873 302.122 623.495 299.853 621.996 297.661 C 622.685 298.085 623.365 298.524 624.033 298.977 C 625.061 300.635 626.003 302.349 626.804 304.131 L 627.637 306.11 L 628.369 308.126 L 628.952 310.188 C 629.112 310.884 629.257 311.581 629.395 312.279 Z " fill="rgb(127,129,187)"/><path d=" M 581.182 367.255 C 581.652 368.479 582.455 369.453 583.38 370.278 C 584.3 371.114 585.335 371.816 586.399 372.413 C 588.54 373.59 590.922 374.283 593.294 374.296 C 595.666 374.335 597.991 373.615 599.973 372.23 C 601.955 370.858 603.55 368.865 604.368 366.379 C 604.403 369.015 603.031 371.674 600.953 373.468 C 599.928 374.395 598.709 375.111 597.399 375.608 C 596.077 376.091 594.671 376.307 593.277 376.319 C 590.485 376.262 587.76 375.341 585.557 373.742 C 584.447 372.955 583.466 372.011 582.646 370.941 C 581.851 369.863 581.209 368.58 581.182 367.255 Z " fill="rgb(59,62,116)"/><path d=" M 548.292 314.96 C 561.618 317.079 575.199 317.594 588.647 316.492 C 589.123 313.545 590.244 311.287 590.718 308.341 C 591.231 311.359 591.743 314.377 592.255 317.396 C 594.601 317.388 596.755 317.514 599.1 317.506 C 599.255 314.564 599.094 311.727 599.25 308.784 C 599.612 311.624 600.202 314.436 601.013 317.182 C 613.756 318.534 626.596 319.03 639.405 318.627 C 629.77 303.081 611.173 292.356 592.889 291.946 C 574.605 291.535 556.385 300.891 546.065 315.99 C 545.832 315.677 548.525 315.273 548.292 314.96 Z " fill="rgb(59,62,116)"/><path d=" M 592.289 359.383 C 587.975 359.383 584.478 359.056 584.478 354.741 C 584.478 350.442 589.963 334.264 592.266 334.264 C 592.274 334.264 592.281 334.265 592.289 334.265 C 594.579 334.373 600.099 350.428 600.099 354.741 C 600.099 359.056 596.602 359.383 592.289 359.383 Z " fill="rgb(238,72,71)"/></g></g></svg>