<svg xmlns="http://www.w3.org/2000/svg" width="32" height="32" viewBox="0 0 32 32"><g transform="translate(0 -1020.362)"><path fill="#fc0" d="m 13.60814,1032.5165 6.27546,0 -0.49496,7.7074 -5.59684,0 z"/><circle cx="16.746" cy="1033.961" r=".482" fill="#f2f2f2"/><path style="line-height:normal;text-indent:0;text-align:start;text-decoration-line:none;text-decoration-style:solid;text-decoration-color:#000;text-transform:none;block-progression:tb;isolation:auto;mix-blend-mode:normal" fill="#13b53e" fill-rule="evenodd" d="m 16.64854,1029.3861 a 0.14452698,0.14452698 0 0 0 -0.14394,0.1459 c -0.0134,1.3757 0.0776,3.0957 0.0678,4.0295 a 0.14452698,0.14452698 0 1 0 0.28883,0.01 c 0.0101,-0.9562 -0.081,-2.6691 -0.0678,-4.0297 a 0.14452698,0.14452698 0 0 0 -0.14489,-0.1486 z" color="#000" font-family="sans-serif" font-weight="400" overflow="visible" white-space="normal"/><path style="line-height:normal;text-indent:0;text-align:start;text-decoration-line:none;text-decoration-style:solid;text-decoration-color:#000;text-transform:none;block-progression:tb;isolation:auto;mix-blend-mode:normal" fill="#13b53e" fill-rule="evenodd" d="M16.97877 1032.3704a.14452698.14452698 0 0 0-.10066.2483l.4817.4818a.14452698.14452698 0 1 0 .20416-.2042l-.48171-.4817a.14452698.14452698 0 0 0-.10349-.044zM16.38699 1031.9291c-.27447-.1121-.54364-.069-.71033.058-.0834.064-.14696.1591-.14113.271.006.1111.085.2084.19946.2727.2776.1612.58596.1177.87874.018a.12043914.12043914 0 0 0 .0743-.026.12043914.12043914 0 0 0 .006-.01.12043914.12043914 0 0 0 .003-.01.12043914.12043914 0 0 0 .006-.01.12043914.12043914 0 0 0 .003-.01.12043914.12043914 0 0 0 .005-.01.12043914.12043914 0 0 0 .003-.01.12043914.12043914 0 0 0 .005-.01.12043914.12043914 0 0 0 .002-.01.12043914.12043914 0 0 0 .004-.01.12043914.12043914 0 0 0 .002-.01.12043914.12043914 0 0 0 .003-.01.12043914.12043914 0 0 0 .002-.01.12043914.12043914 0 0 0 .002-.01.12043914.12043914 0 0 0-.009-.089c-.003-.08-.004-.1583-.0499-.2277-.0572-.087-.14574-.1427-.27661-.2098a.12043914.12043914 0 0 0-.009-.01zm-.0931.223c.10971.057.1611.098.17781.1232.004.01.003.031.006.039-.23111.068-.44532.1126-.62377.01a.12043914.12043914 0 0 0-.002 0c-.0709-.04-.0756-.066-.0762-.076-.00049-.01.006-.035.0471-.067.0813-.062.27189-.1069.47042-.027z" color="#000" font-family="sans-serif" font-weight="400" overflow="visible" white-space="normal"/><path style="line-height:normal;text-indent:0;text-align:start;text-decoration-line:none;text-decoration-style:solid;text-decoration-color:#000;text-transform:none;block-progression:tb;isolation:auto;mix-blend-mode:normal" fill="#13b53e" fill-rule="evenodd" d="m 17.07098,1031.9122 a 0.12043914,0.12043914 0 0 0 -0.009,0.01 c -0.13456,0.069 -0.22503,0.1267 -0.28319,0.2154 -0.0469,0.072 -0.0485,0.1528 -0.0517,0.2353 a 0.12043914,0.12043914 0 0 0 -0.007,0.092 0.12043914,0.12043914 0 0 0 0.002,0.01 0.12043914,0.12043914 0 0 0 0.002,0.01 0.12043914,0.12043914 0 0 0 0.004,0.01 0.12043914,0.12043914 0 0 0 0.002,0.01 0.12043914,0.12043914 0 0 0 0.005,0.01 0.12043914,0.12043914 0 0 0 8.1e-4,0 0.12043914,0.12043914 0 0 0 0.005,0.01 0.12043914,0.12043914 0 0 0 0.003,0.01 0.12043914,0.12043914 0 0 0 0.005,0.01 0.12043914,0.12043914 0 0 0 0.007,0.01 0.12043914,0.12043914 0 0 0 0.002,0 0.12043914,0.12043914 0 0 0 0.003,0 0.12043914,0.12043914 0 0 0 0.0744,0.027 c 0.30215,0.103 0.62014,0.1495 0.90601,-0.017 2.6e-4,-2e-4 -2.5e-4,0 0,0 0.11792,-0.066 0.19827,-0.166 0.20416,-0.2795 0.006,-0.1137 -0.0588,-0.2101 -0.14394,-0.2756 -0.17033,-0.131 -0.44664,-0.1767 -0.72821,-0.061 z m 0.0941,0.2231 c 0.20541,-0.083 0.40236,-0.036 0.48735,0.03 0.0427,0.033 0.0505,0.06 0.0498,0.072 -4.8e-4,0.013 -0.007,0.042 -0.0809,0.083 a 0.12043914,0.12043914 0 0 0 -0.002,0 c -0.18567,0.1088 -0.40742,0.064 -0.6473,-0.01 0.003,-0.011 0.002,-0.039 0.007,-0.047 0.0179,-0.027 0.0718,-0.07 0.18535,-0.1298 z" color="#000" font-family="sans-serif" font-weight="400" overflow="visible" white-space="normal"/><path style="line-height:normal;text-indent:0;text-align:start;text-decoration-line:none;text-decoration-style:solid;text-decoration-color:#000;text-transform:none;block-progression:tb;isolation:auto;mix-blend-mode:normal" fill="#ff9500" fill-rule="evenodd" d="M18.52269 1035.9917c-.064 0-.12752.025-.17594.073-.097.097-.097.2558 0 .3529l.0141.014.31141.3161.31236-.3161.0141-.014c.097-.097.097-.2559 0-.3529-.0823-.082-.20336-.057-.29918 0-.0485-.048-.11309-.073-.17688-.073zm0 .1204c.0331 0 .0656.013.0913.039l.0583.058.0592-.058c.0513-.051.13147-.051.18252 0 .0514.052.0514.1312 0 .1826l-.0141.014-.22674.2295-.22768-.2295-.0141-.014c-.0514-.052-.0514-.1312 0-.1826.0258-.026.0584-.039.0913-.039zM14.18731 1036.4734c-.064 0-.12752.025-.17594.073-.097.097-.097.2558 0 .3529l.0141.014.31142.3161.31235-.3161.0141-.014c.097-.097.097-.2558 0-.3529-.0823-.082-.20337-.057-.29919 0-.0485-.048-.11309-.073-.17687-.073zm0 .1204c.0331 0 .0656.013.0913.039l.0584.058.0592-.058c.0514-.051.13148-.051.18253 0 .0513.052.0513.1312 0 .1826l-.0141.014-.22674.2295-.22768-.2295-.0141-.014c-.0513-.051-.0513-.1312 0-.1826.0258-.026.0584-.039.0913-.039zM16.59586 1035.6135c-.064 0-.12753.026-.17594.073-.097.097-.097.2558 0 .3528l0 0 .0141.013.31142.3161.31236-.3161.0141-.013 0 0c.097-.097.097-.2557 0-.3528-.0823-.082-.20337-.057-.29918 0-.0485-.048-.11309-.073-.17689-.073zm0 .1204c.0331 0 .0656.013.0913.039l.0583.058.0592-.058c.0513-.051.13147-.051.18253 0 .0513.051.0513.1312 0 .1826l-.0141.014-.22673.2295-.22769-.2295-.0141-.014c-.0514-.052-.0514-.1312 0-.1826.0257-.026.0584-.039.0913-.039zM15.15073 1034.0649c-.064 0-.12752.025-.17594.073-.097.097-.097.2557 0 .3528l.0141.014.31142.316.31235-.316.0141-.014c.097-.097.097-.2558 0-.3528-.0823-.082-.20337-.057-.29919 0-.0485-.048-.11309-.073-.17688-.073zm0 .1204c.0331 0 .0656.013.0913.039l.0583.058.0592-.058c.0513-.051.13147-.051.18252 0 .0514.052.0514.1312 0 .1826l-.0141.014-.22675.2297-.22768-.2297-.0141-.014c-.0514-.051-.0514-.1312 0-.1826.0257-.026.0584-.039.0913-.039zM17.55927 1034.6501c-.064 0-.12752.026-.17594.073-.097.097-.097.2559 0 .3529l0 0 .0141.013.31142.3161.31235-.3161.0141-.013 0 0c.097-.097.097-.2558 0-.3529-.0823-.082-.20337-.057-.29919 0-.0485-.048-.11309-.073-.17687-.073zm0 .1204c.0331 0 .0656.013.0913.039l.0584.058.0592-.058c.0514-.051.13148-.051.18253 0 .0513.052.0513.1312 0 .1826l-.0141.014-.22674.2294-.22768-.2294-.0141-.014c-.0513-.052-.0513-.1313 0-.1826.0258-.026.0584-.039.0913-.039zM15.63244 1037.5403c-.064 0-.12752.026-.17594.073-.097.097-.097.2557 0 .3527l0 0 .0141.013.31142.3161.31236-.3161.0141-.013 0 0c.097-.097.097-.2557 0-.3527-.0823-.082-.20337-.057-.29918 0-.0485-.048-.11309-.073-.17688-.073zm0 .1205c.0331 0 .0656.013.0913.039l.0584.058.0592-.058c.0514-.051.13147-.051.18252 0 .0513.052.0513.1312 0 .1826l-.0141.014-.22675.2295-.22768-.2295-.0141-.014c-.0513-.051-.0513-.1312 0-.1826.0258-.026.0584-.039.0913-.039zM17.07756 1038.5376c-.064 0-.12752.026-.17594.073-.097.097-.097.2558 0 .3529l.0141.014.31142.3161.31235-.3161.0141-.014c.097-.097.097-.2558 0-.3529-.0823-.082-.20337-.057-.29918 0-.0485-.048-.11309-.073-.17688-.073zm0 .1205c.0331 0 .0656.013.0913.039l.0584.058.0592-.058c.0513-.051.13147-.051.18253 0 .0514.052.0514.1312 0 .1826l-.0141.014-.22674.2295-.22769-.2295-.0141-.014c-.0513-.052-.0513-.1312 0-.1826.0258-.026.0584-.039.0913-.039zM14.66902 1038.9855c-.064 0-.12752.026-.17594.073-.097.097-.097.2558 0 .3529l0 0 .0141.013.31142.3161.31235-.3161.0141-.013 0 0c.097-.097.097-.2558 0-.3529-.0823-.082-.20337-.057-.29919 0-.0485-.048-.11309-.073-.17687-.073zm0 .1204c.0331 0 .0656.013.0913.039l.0583.058.0592-.058c.0513-.051.13147-.051.18252 0 .0514.052.0514.1311 0 .1824l-.0141.014-.22674.2295-.22768-.2295-.0141-.014c-.0514-.052-.0514-.1312 0-.1824.0258-.026.0584-.039.0913-.039zM18.52269 1037.9184c-.064 0-.12752.025-.17594.073-.097.097-.097.2557 0 .3529l.0141.014.31141.3161.31236-.3161.0141-.014c.097-.097.097-.2558 0-.3529-.0823-.082-.20336-.057-.29918 0-.0485-.048-.11309-.073-.17688-.073zm0 .1205c.0331 0 .0656.013.0913.039l.0583.058.0592-.058c.0513-.051.13147-.051.18252 0 .0514.052.0514.1313 0 .1827l-.0141.014-.22674.2296-.22768-.2296-.0141-.014c-.0514-.052-.0514-.1312 0-.1827.0258-.026.0584-.039.0913-.039zM18.52269 1033.4797c-.064 0-.12752.026-.17594.073-.097.097-.097.2558 0 .3529l.0141.014.31141.3161.31236-.3161.0141-.014c.097-.097.097-.2558 0-.3529-.0823-.082-.20336-.057-.29918 0-.0485-.048-.11309-.073-.17688-.073zm0 .1204c.0331 0 .0656.013.0913.039l.0583.058.0592-.058c.0513-.051.13147-.051.18252 0 .0514.052.0514.1312 0 .1826l-.0141.014-.22674.2295-.22768-.2295-.0141-.014c-.0514-.052-.0514-.1312 0-.1826.0258-.026.0584-.039.0913-.039zM14.18731 1033.205c-.064 0-.12752.026-.17594.073-.097.097-.097.2558 0 .3529l0 0 .0141.013.31142.3161.31235-.3161.0141-.013 0 0c.097-.097.097-.2558 0-.3529-.0823-.082-.20337-.057-.29919 0-.0485-.048-.11309-.073-.17687-.073zm0 .1204c.0331 0 .0656.013.0913.039l.0584.058.0592-.058c.0514-.051.13148-.051.18253 0 .0513.051.0513.1312 0 .1826l-.0141.014-.22674.2296-.22768-.2296-.0141-.014c-.0513-.052-.0513-.1313 0-.1826.0258-.026.0584-.039.0913-.039z" color="#000" font-family="sans-serif" font-weight="400" overflow="visible" white-space="normal"/><path fill="#13b53e" d="m 6.72564,1034.6457 7.07752,0 -0.55823,8.6925 -6.31216,0 z"/><circle cx="10.264" cy="1036.275" r=".543" fill="#f2f2f2"/><path style="line-height:normal;text-indent:0;text-align:start;text-decoration-line:none;text-decoration-style:solid;text-decoration-color:#000;text-transform:none;block-progression:tb;isolation:auto;mix-blend-mode:normal" fill="#373748" fill-rule="evenodd" d="m 10.15463,1031.1152 a 0.16299865,0.16299865 0 0 0 -0.16235,0.1645 c -0.0151,1.5516 0.0875,3.4914 0.0764,4.5446 a 0.16299865,0.16299865 0 1 0 0.32576,0.01 c 0.0113,-1.0783 -0.0913,-3.0101 -0.0764,-4.5446 a 0.16299865,0.16299865 0 0 0 -0.16341,-0.1677 z" color="#000" font-family="sans-serif" font-weight="400" overflow="visible" white-space="normal"/><path style="line-height:normal;text-indent:0;text-align:start;text-decoration-line:none;text-decoration-style:solid;text-decoration-color:#000;text-transform:none;block-progression:tb;isolation:auto;mix-blend-mode:normal" fill="#373748" fill-rule="evenodd" d="M10.52707 1034.4809a.16299865.16299865 0 0 0-.11354.2801l.54328.5433a.16299865.16299865 0 1 0 .23025-.2302l-.54328-.5434a.16299865.16299865 0 0 0-.11671-.05zM9.85965 1033.9833c-.30954-.1265-.61313-.078-.80111.066-.094.072-.16576.1794-.15917.3056.006.1253.0959.2351.22495.3077.31308.1817.66085.1326.99105.021a.13583221.13583221 0 0 0 .0838-.029.13583221.13583221 0 0 0 .007-.01.13583221.13583221 0 0 0 .003-.01.13583221.13583221 0 0 0 .006-.01.13583221.13583221 0 0 0 .003-.01.13583221.13583221 0 0 0 .006-.01.13583221.13583221 0 0 0 .003-.01.13583221.13583221 0 0 0 .006-.01.13583221.13583221 0 0 0 .002-.01.13583221.13583221 0 0 0 .004-.01.13583221.13583221 0 0 0 .002-.01.13583221.13583221 0 0 0 .003-.01.13583221.13583221 0 0 0 .002-.01.13583221.13583221 0 0 0 .002-.01.13583221.13583221 0 0 0-.0106-.1008c-.004-.089-.005-.1786-.0563-.2568-.0645-.098-.16436-.1609-.31196-.2366a.13583221.13583221 0 0 0-.0106-.01zm-.10505.2515c.12373.064.1817.1103.20055.139.005.01.004.035.007.044-.26065.077-.50224.127-.7035.01a.13583221.13583221 0 0 0-.002 0c-.0799-.044-.0853-.074-.0859-.086-.00054-.012.007-.04.0531-.075.0917-.07.30666-.1206.53055-.031z" color="#000" font-family="sans-serif" font-weight="400" overflow="visible" white-space="normal"/><path style="line-height:normal;text-indent:0;text-align:start;text-decoration-line:none;text-decoration-style:solid;text-decoration-color:#000;text-transform:none;block-progression:tb;isolation:auto;mix-blend-mode:normal" fill="#373748" fill-rule="evenodd" d="m 10.63106,1033.9643 a 0.13583221,0.13583221 0 0 0 -0.0106,0.01 c -0.15177,0.078 -0.25381,0.1429 -0.31939,0.243 -0.0529,0.081 -0.0546,0.1722 -0.0584,0.2653 a 0.13583221,0.13583221 0 0 0 -0.008,0.104 0.13583221,0.13583221 0 0 0 0.002,0.01 0.13583221,0.13583221 0 0 0 0.002,0.01 0.13583221,0.13583221 0 0 0 0.004,0.012 0.13583221,0.13583221 0 0 0 0.002,0.01 0.13583221,0.13583221 0 0 0 0.006,0.01 0.13583221,0.13583221 0 0 0 8e-4,0 0.13583221,0.13583221 0 0 0 0.006,0.01 0.13583221,0.13583221 0 0 0 0.003,0.01 0.13583221,0.13583221 0 0 0 0.006,0.01 0.13583221,0.13583221 0 0 0 0.008,0.01 0.13583221,0.13583221 0 0 0 0.002,0 0.13583221,0.13583221 0 0 0 0.003,0 0.13583221,0.13583221 0 0 0 0.0838,0.031 c 0.34078,0.1163 0.6994,0.1688 1.02183,-0.019 2.8e-4,-10e-5 -3e-4,0 0,0 0.13297,-0.075 0.2236,-0.1872 0.23025,-0.3152 0.006,-0.1282 -0.0663,-0.237 -0.16235,-0.3109 -0.19211,-0.1477 -0.50373,-0.1992 -0.82127,-0.069 z m 0.1061,0.2514 c 0.23168,-0.093 0.45379,-0.041 0.54964,0.033 0.0482,0.037 0.057,0.067 0.0563,0.082 -5.4e-4,0.014 -0.008,0.047 -0.0912,0.093 a 0.13583221,0.13583221 0 0 0 -0.002,0 c -0.2094,0.1228 -0.45949,0.072 -0.73002,-0.01 0.004,-0.013 0.002,-0.043 0.008,-0.053 0.0202,-0.031 0.081,-0.079 0.20903,-0.1464 z" color="#000" font-family="sans-serif" font-weight="400" overflow="visible" white-space="normal"/><path style="line-height:normal;text-indent:0;text-align:start;text-decoration-line:none;text-decoration-style:solid;text-decoration-color:#000;text-transform:none;block-progression:tb;isolation:auto;mix-blend-mode:normal" fill="#18a12b" fill-rule="evenodd" d="M12.26831 1038.565c-.0722 0-.14383.028-.19843.083-.10943.1093-.10943.2884 0 .3979l.0159.016.35122.3565.35227-.3565.0159-.016c.10943-.1095.10943-.2887 0-.3979-.0928-.093-.22936-.064-.33742 0-.0547-.055-.12754-.083-.19949-.083zm0 .1359c.0373 0 .074.014.10292.043l.0658.066.0669-.066c.058-.057.14827-.058.20585 0 .0579.058.0579.148 0 .2058l-.0159.016-.25572.259-.25679-.259-.0159-.016c-.0579-.058-.0579-.148 0-.2058.0291-.029.0659-.043.10293-.043zM7.37884 1039.1083c-.0722 0-.14382.028-.19843.083-.10943.1094-.10943.2885 0 .398l.0159.016.35122.3565.35227-.3565.0159-.016c.10943-.1095.10942-.2886 0-.398-.0928-.093-.22936-.064-.33743 0-.0547-.055-.12754-.083-.19948-.083zm0 .1359c.0373 0 .074.014.10292.043l.0658.066.0668-.066c.058-.057.14828-.058.20586 0 .0579.058.0579.148 0 .2058l-.0159.016-.25572.259-.25678-.259-.0159-.016c-.0579-.058-.0579-.1478 0-.2058.0291-.029.0659-.043.10292-.043zM10.09521 1038.1385c-.0722 0-.14382.029-.19842.083-.10943.1095-.10944.2883 0 .3979l0 0 .0159.014.35122.3566.35228-.3566.0159-.014 0 0c.10944-.1096.10943-.2884 0-.3979-.0928-.093-.22935-.064-.33742 0-.0547-.055-.12755-.083-.19948-.083zm0 .1358c.0373 0 .074.014.10292.043l.0658.066.0668-.066c.058-.057.14828-.058.20586 0 .0579.058.0579.1479 0 .2059l-.0159.016-.25573.2589-.25677-.2589-.0159-.016c-.0579-.058-.0579-.148 0-.2059.0291-.029.0659-.043.10292-.043zM8.46538 1036.3919c-.0722 0-.14381.028-.19842.083-.10942.1093-.10943.2884 0 .3979l.0159.016.35122.3565.35229-.3565.0159-.016c.10944-.1095.10942-.2886 0-.3979-.0928-.093-.22936-.064-.33742 0-.0547-.055-.12755-.083-.19948-.083zm0 .1359c.0373 0 .074.014.10293.043l.0658.066.0669-.066c.058-.057.14828-.058.20585 0 .0579.058.0579.1479 0 .2058l-.0159.016-.25572.259-.25678-.259-.0159-.016c-.0579-.058-.0579-.1479 0-.2058.0291-.029.0659-.043.10291-.043zM11.18176 1037.052c-.0722 0-.14382.029-.19843.083-.10942.1095-.10943.2885 0 .398l0 0 .0159.014.35122.3566.35228-.3566.0159-.014 0 0c.10944-.1095.10943-.2885 0-.398-.0928-.093-.22936-.064-.33742 0-.0547-.055-.12755-.083-.19949-.083zm0 .1358c.0373 0 .074.014.10292.043l.0658.066.0669-.066c.058-.057.14827-.058.20585 0 .0579.058.0579.1479 0 .2058l-.0159.016-.25572.2589-.25679-.2589-.0159-.016c-.0579-.058-.0579-.1479 0-.2058.029-.029.0659-.043.10292-.043zM9.00866 1040.3115c-.0722 0-.14382.029-.19843.083-.10942.1094-.10943.2883 0 .3979l0 0 .0159.014.35123.3566.35227-.3566.0159-.014 0 0c.10943-.1096.10942-.2886 0-.3979-.0928-.093-.22937-.064-.33743 0-.0547-.055-.12754-.083-.19948-.083zm0 .1359c.0373 0 .074.014.10292.043l.0658.066.0668-.066c.058-.057.14828-.058.20586 0 .0579.058.0579.1479 0 .2059l-.0159.016-.25572.2588-.25678-.2588-.0159-.016c-.0579-.058-.0579-.148 0-.2059.0291-.029.0659-.043.10293-.043zM10.63848 1041.4363c-.0722 0-.14382.029-.19842.083-.10943.1095-.10944.2885 0 .398l.0159.016.35122.3565.35227-.3565.0159-.016c.10943-.1095.10942-.2886 0-.398-.0928-.093-.22936-.064-.33743 0-.0547-.055-.12754-.083-.19948-.083zm0 .1359c.0373 0 .074.014.10292.043l.0658.066.0668-.066c.058-.057.14828-.058.20586 0 .0579.058.0579.1479 0 .2058l-.0159.016-.25572.2591-.25678-.2591-.0159-.016c-.0579-.058-.0579-.1479 0-.2058.0291-.029.0659-.043.10293-.043zM7.92211 1041.9415c-.0722 0-.14382.029-.19843.083-.10942.1095-.10942.2885 0 .3979l0 0 .0159.014.35122.3566.35227-.3566.0159-.014 0 0c.10944-.1094.10943-.2884 0-.3979-.0928-.093-.22936-.064-.33742 0-.0547-.055-.12755-.083-.19949-.083zm0 .1357c.0373 0 .074.014.10293.043l.0658.066.0668-.066c.0579-.057.14828-.058.20586 0 .0579.058.0579.1479 0 .2058l-.0159.016-.25572.2588-.25678-.2588-.0159-.016c-.0579-.058-.0579-.1479 0-.2058.0291-.029.0659-.043.10293-.043zM12.26831 1040.7381c-.0722 0-.14383.028-.19843.083-.10943.1093-.10943.2884 0 .3979l.0159.016.35122.3564.35227-.3564.0159-.016c.10943-.1095.10943-.2887 0-.3979-.0928-.093-.22936-.064-.33742 0-.0547-.055-.12754-.083-.19949-.083zm0 .1359c.0373 0 .074.014.10292.043l.0658.066.0669-.066c.058-.057.14827-.058.20585 0 .0579.058.0579.148 0 .2058l-.0159.016-.25572.2589-.25679-.2589-.0159-.016c-.0579-.058-.0579-.148 0-.2058.0291-.029.0659-.043.10293-.043zM12.26831 1035.732c-.0722 0-.14383.029-.19843.083-.10943.1095-.10943.2885 0 .398l.0159.016.35122.3566.35227-.3566.0159-.016c.10943-.1095.10943-.2885 0-.398-.0928-.093-.22936-.064-.33742 0-.0547-.055-.12754-.083-.19949-.083zm0 .1358c.0373 0 .074.014.10292.043l.0658.066.0669-.066c.058-.057.14827-.058.20585 0 .0579.058.0579.1479 0 .2058l-.0159.016-.25572.2589-.25679-.2589-.0159-.016c-.0579-.058-.0579-.1479 0-.2058.0291-.029.0659-.043.10293-.043zM7.37884 1035.4222c-.0722 0-.14382.029-.19843.083-.10943.1095-.10943.2885 0 .3979l0 0 .0159.014.35122.3566.35227-.3566.0159-.014 0 0c.10943-.1094.10942-.2884 0-.3979-.0928-.093-.22936-.064-.33743 0-.0547-.055-.12754-.083-.19948-.083zm0 .1358c.0373 0 .074.014.10292.043l.0658.066.0668-.066c.058-.057.14828-.058.20586 0 .0579.058.0579.148 0 .2059l-.0159.016-.25572.2588-.25678-.2588-.0159-.016c-.0579-.058-.0579-.148 0-.2059.0291-.029.0659-.043.10292-.043z" color="#000" font-family="sans-serif" font-weight="400" overflow="visible" white-space="normal"/><path fill="#3477e0" d="m 19.33603,1033.9308 6.23167,0 -0.49152,7.6534 -5.55778,0 z"/><circle cx="22.452" cy="1035.366" r=".478" fill="#f2f2f2"/><path style="line-height:normal;text-indent:0;text-align:start;text-decoration-line:none;text-decoration-style:solid;text-decoration-color:#000;text-transform:none;block-progression:tb;isolation:auto;mix-blend-mode:normal" fill="#ff1e55" fill-rule="evenodd" d="m 22.35521,1030.8221 a 0.14351848,0.14351848 0 0 0 -0.14294,0.1449 c -0.0133,1.3661 0.077,3.0741 0.0673,4.0014 a 0.14351848,0.14351848 0 1 0 0.28683,0.01 c 0.01,-0.9494 -0.0804,-2.6504 -0.0673,-4.0015 a 0.14351848,0.14351848 0 0 0 -0.14388,-0.1476 z" color="#000" font-family="sans-serif" font-weight="400" overflow="visible" white-space="normal"/><path style="line-height:normal;text-indent:0;text-align:start;text-decoration-line:none;text-decoration-style:solid;text-decoration-color:#000;text-transform:none;block-progression:tb;isolation:auto;mix-blend-mode:normal" fill="#ff1e55" fill-rule="evenodd" d="M22.68314 1033.7857a.14351848.14351848 0 0 0-.1.2466l.47834.4783a.14351848.14351848 0 1 0 .20274-.2027l-.47835-.4783a.14351848.14351848 0 0 0-.10277-.044zM22.09549 1033.3475c-.27256-.1113-.53985-.069-.70537.058-.0828.064-.14595.1579-.14015.2691.006.1103.0845.2071.19806.2709.27567.16.58188.1168.87261.018a.11959873.11959873 0 0 0 .0738-.025.11959873.11959873 0 0 0 .006-.01.11959873.11959873 0 0 0 .003-.01.11959873.11959873 0 0 0 .006-.01.11959873.11959873 0 0 0 .003-.01.11959873.11959873 0 0 0 .005-.01.11959873.11959873 0 0 0 .003-.01.11959873.11959873 0 0 0 .005-.01.11959873.11959873 0 0 0 .002-.01.11959873.11959873 0 0 0 .004-.01.11959873.11959873 0 0 0 .002-.01.11959873.11959873 0 0 0 .003-.01.11959873.11959873 0 0 0 .002-.01.11959873.11959873 0 0 0 .002-.01.11959873.11959873 0 0 0-.009-.089c-.003-.079-.004-.1573-.0495-.2261-.0567-.086-.14471-.1419-.27467-.2084a.11959873.11959873 0 0 0-.009-.01zm-.0925.2213c.10895.057.15998.097.17658.1224.004.01.003.031.006.039-.22951.068-.44222.112-.61942.01a.11959873.11959873 0 0 0-.002 0c-.0704-.039-.0751-.065-.0757-.076-.00047-.01.006-.035.0468-.066.0807-.062.27001-.1061.46715-.027z" color="#000" font-family="sans-serif" font-weight="400" overflow="visible" white-space="normal"/><path style="line-height:normal;text-indent:0;text-align:start;text-decoration-line:none;text-decoration-style:solid;text-decoration-color:#000;text-transform:none;block-progression:tb;isolation:auto;mix-blend-mode:normal" fill="#ff1e55" fill-rule="evenodd" d="m 22.7747,1033.3307 a 0.11959873,0.11959873 0 0 0 -0.009,0.01 c -0.13362,0.069 -0.22346,0.1257 -0.28121,0.2139 -0.0466,0.071 -0.0481,0.1518 -0.0514,0.2336 a 0.11959873,0.11959873 0 0 0 -0.007,0.092 0.11959873,0.11959873 0 0 0 0.002,0.01 0.11959873,0.11959873 0 0 0 0.002,0.01 0.11959873,0.11959873 0 0 0 0.004,0.01 0.11959873,0.11959873 0 0 0 0.002,0.01 0.11959873,0.11959873 0 0 0 0.005,0.01 0.11959873,0.11959873 0 0 0 8e-4,0 0.11959873,0.11959873 0 0 0 0.005,0.01 0.11959873,0.11959873 0 0 0 0.003,0.01 0.11959873,0.11959873 0 0 0 0.005,0.01 0.11959873,0.11959873 0 0 0 0.007,0.01 0.11959873,0.11959873 0 0 0 0.002,0 0.11959873,0.11959873 0 0 0 0.003,0 0.11959873,0.11959873 0 0 0 0.0738,0.027 c 0.30004,0.1023 0.61582,0.1486 0.89971,-0.017 2.5e-4,-2e-4 -2.7e-4,0 0,0 0.11709,-0.066 0.19688,-0.1648 0.20272,-0.2775 0.006,-0.1129 -0.0583,-0.2087 -0.14293,-0.2738 -0.16915,-0.1301 -0.44353,-0.1754 -0.72313,-0.06 z m 0.0934,0.2214 c 0.20398,-0.082 0.39955,-0.035 0.48395,0.029 0.0424,0.032 0.0502,0.06 0.0495,0.072 -4.8e-4,0.013 -0.007,0.041 -0.0803,0.082 a 0.11959873,0.11959873 0 0 0 -0.002,0 c -0.18439,0.1081 -0.40458,0.063 -0.64278,-0.01 0.003,-0.011 0.002,-0.039 0.007,-0.047 0.0178,-0.027 0.0713,-0.07 0.18406,-0.1289 z" color="#000" font-family="sans-serif" font-weight="400" overflow="visible" white-space="normal"/><path style="line-height:normal;text-indent:0;text-align:start;text-decoration-line:none;text-decoration-style:solid;text-decoration-color:#000;text-transform:none;block-progression:tb;isolation:auto;mix-blend-mode:normal" fill="#3449e0" fill-rule="evenodd" d="M24.21628 1037.3816c-.0636 0-.12663.025-.17471.073-.0964.096-.0964.2539 0 .3503l.014.014.30924.3139.31018-.3139.014-.014c.0964-.096.0964-.254 0-.3503-.0817-.082-.20195-.057-.2971 0-.0482-.048-.1123-.073-.17564-.073zm0 .1196c.0328 0 .0651.013.0906.039l.058.058.0588-.058c.051-.05.13056-.051.18125 0 .0509.051.0509.1303 0 .1812l-.014.014-.22516.2279-.22609-.2279-.014-.014c-.051-.051-.051-.1303 0-.1812.0256-.026.058-.039.0906-.039zM19.91115 1037.86c-.0636 0-.12662.025-.1747.073-.0964.096-.0964.254 0 .3503l.014.014.30925.3139.31017-.3139.014-.014c.0964-.096.0963-.254 0-.3503-.0817-.082-.20195-.057-.2971 0-.0482-.048-.1123-.073-.17564-.073zm0 .1196c.0328 0 .0651.013.0906.039l.058.058.0588-.058c.051-.05.13056-.051.18126 0 .0509.051.0509.1303 0 .1812l-.014.014-.22515.2281-.2261-.2281-.014-.014c-.0509-.051-.0509-.1303 0-.1812.0256-.026.058-.039.0906-.039zM22.3029 1037.0061c-.0636 0-.12664.026-.17472.073-.0964.096-.0964.254 0 .3504l0 0 .014.013.30925.3138.31018-.3138.014-.013 0 0c.0964-.096.0963-.254 0-.3504-.0817-.082-.20196-.057-.29711 0-.0482-.048-.1123-.073-.17564-.073zm0 .1196c.0328 0 .0651.013.0906.039l.058.058.0588-.058c.051-.05.13055-.051.18125 0 .051.051.051.1302 0 .1812l-.014.014-.22516.228-.2261-.228-.014-.014c-.051-.051-.051-.1304 0-.1812.0256-.026.058-.039.0906-.039zM20.86786 1035.4682c-.0636 0-.12664.025-.17472.073-.0964.096-.0964.2539 0 .3504l.014.014.30925.3139.31017-.3139.014-.014c.0964-.097.0964-.2541 0-.3504-.0817-.082-.20195-.057-.2971 0-.0482-.048-.1123-.073-.17564-.073zm0 .1196c.0328 0 .0651.013.0906.038l.058.058.0588-.058c.051-.05.13055-.051.18125 0 .051.051.051.1303 0 .1811l-.014.014-.22516.228-.2261-.228-.014-.014c-.051-.051-.051-.1302 0-.1811.0256-.026.058-.038.0906-.038zM23.25959 1036.0494c-.0636 0-.12664.026-.17471.073-.0964.096-.0964.254 0 .3503l0 0 .014.013.30924.314.31018-.314.014-.013 0 0c.0964-.096.0964-.254 0-.3503-.0817-.082-.20195-.057-.2971 0-.0482-.048-.1123-.073-.17565-.073zm0 .1196c.0328 0 .0651.013.0906.039l.058.058.0588-.058c.051-.05.13056-.051.18125 0 .051.051.051.1302 0 .1812l-.014.014-.22516.2281-.2261-.2281-.014-.014c-.051-.051-.051-.1303 0-.1812.0256-.025.058-.039.0906-.039zM21.3462 1038.9195c-.0636 0-.12663.025-.17471.073-.0964.096-.0964.254 0 .3503l0 0 .014.013.30925.314.31017-.314.014-.013 0 0c.0964-.096.0963-.254 0-.3503-.0817-.082-.20195-.057-.2971 0-.0482-.048-.1123-.073-.17564-.073zm0 .1196c.0328 0 .0651.013.0906.039l.058.058.0588-.058c.051-.05.13056-.051.18126 0 .0509.051.0509.1302 0 .1812l-.014.014-.22515.228-.2261-.228-.014-.014c-.0509-.051-.0509-.1303 0-.1812.0256-.026.058-.039.0906-.039zM22.78124 1039.9098c-.0636 0-.12663.026-.17471.073-.0964.096-.0964.254 0 .3504l.014.014.30925.3139.31018-.3139.014-.014c.0964-.096.0964-.254 0-.3504-.0817-.082-.20195-.057-.2971 0-.0482-.048-.1123-.073-.17564-.073zm0 .1196c.0328 0 .0651.013.0906.039l.0579.058.0588-.058c.051-.05.13057-.051.18126 0 .0509.051.0509.1303 0 .1812l-.014.014-.22516.228-.22609-.228-.014-.014c-.051-.051-.051-.1303 0-.1812.0256-.026.058-.039.0906-.039zM20.3895 1040.3545c-.0636 0-.12663.026-.17471.073-.0964.096-.0964.254 0 .3503l0 0 .014.013.30924.314.31018-.314.014-.013 0 0c.0964-.096.0964-.2539 0-.3503-.0817-.082-.20194-.057-.29709 0-.0482-.048-.1123-.073-.17564-.073zm0 .1196c.0328 0 .0651.013.0906.039l.058.058.0588-.058c.051-.05.13056-.051.18125 0 .051.051.051.1303 0 .1813l-.014.014-.22516.228-.2261-.228-.014-.014c-.051-.051-.051-.1303 0-.1813.0256-.026.058-.039.0906-.039zM24.21628 1039.2951c-.0636 0-.12663.025-.17471.073-.0964.096-.0964.254 0 .3504l.014.014.30924.3137.31018-.3137.014-.014c.0964-.096.0964-.254 0-.3504-.0817-.082-.20195-.057-.2971 0-.0482-.048-.1123-.073-.17564-.073zm0 .1195c.0328 0 .0651.013.0906.039l.058.058.0588-.058c.051-.05.13056-.051.18125 0 .0509.051.0509.1303 0 .1813l-.014.014-.22516.228-.22609-.228-.014-.014c-.051-.051-.051-.1304 0-.1813.0256-.025.058-.039.0906-.039zM24.21628 1034.8872c-.0636 0-.12663.025-.17471.072-.0964.096-.0964.2539 0 .3504l.014.014.30924.3141.31018-.3141.014-.014c.0964-.096.0964-.254 0-.3504-.0817-.082-.20195-.057-.2971 0-.0482-.048-.1123-.072-.17564-.072zm0 .1196c.0328 0 .0651.013.0906.038l.058.058.0588-.058c.051-.05.13056-.051.18125 0 .0509.051.0509.1303 0 .1812l-.014.014-.22516.228-.22609-.228-.014-.014c-.051-.051-.051-.1303 0-.1812.0256-.026.058-.038.0906-.038zM19.91115 1034.6144c-.0636 0-.12662.026-.1747.073-.0964.096-.0964.254 0 .3504l0 0 .014.013.30925.3139.31017-.3139.014-.013 0 0c.0964-.096.0963-.254 0-.3504-.0817-.082-.20195-.057-.2971 0-.0482-.048-.1123-.073-.17564-.073zm0 .1196c.0328 0 .0651.013.0906.039l.058.058.0588-.058c.051-.05.13056-.051.18126 0 .0509.051.0509.1303 0 .1813l-.014.014-.22515.228-.2261-.228-.014-.014c-.0509-.051-.0509-.1303 0-.1813.0256-.026.058-.039.0906-.039z" color="#000" font-family="sans-serif" font-weight="400" overflow="visible" white-space="normal"/><path fill="#ff1e55" d="m 0,1033.3594 7.09996,0 -0.56,8.7199 -6.33216,0 z"/><circle cx="3.55" cy="1034.994" r=".545" fill="#f2f2f2"/><path style="line-height:normal;text-indent:0;text-align:start;text-decoration-line:none;text-decoration-style:solid;text-decoration-color:#000;text-transform:none;block-progression:tb;isolation:auto;mix-blend-mode:normal" fill="#fc0" fill-rule="evenodd" d="m 3.43986,1029.8175 a 0.1635153,0.1635153 0 0 0 -0.16285,0.1651 c -0.0151,1.5564 0.0877,3.5024 0.0766,4.559 a 0.1635153,0.1635153 0 1 0 0.32678,0.01 c 0.0114,-1.0818 -0.0916,-3.0198 -0.0766,-4.559 a 0.1635153,0.1635153 0 0 0 -0.16392,-0.1683 z" color="#000" font-family="sans-serif" font-weight="400" overflow="visible" white-space="normal"/><path style="line-height:normal;text-indent:0;text-align:start;text-decoration-line:none;text-decoration-style:solid;text-decoration-color:#000;text-transform:none;block-progression:tb;isolation:auto;mix-blend-mode:normal" fill="#fc0" fill-rule="evenodd" d="M3.81348 1033.194a.1635153.1635153 0 0 0-.11389.281l.545.5451a.1635153.1635153 0 1 0 .23098-.2311l-.545-.545a.1635153.1635153 0 0 0-.11709-.05zM3.14395 1032.6948c-.31053-.1269-.61507-.078-.80366.066-.0943.072-.16627.18-.15967.3066.006.1257.0962.2359.22567.3086.31408.1823.66295.1331.99419.021a.13626274.13626274 0 0 0 .0841-.029.13626274.13626274 0 0 0 .007-.01.13626274.13626274 0 0 0 .003-.01.13626274.13626274 0 0 0 .006-.01.13626274.13626274 0 0 0 .003-.01.13626274.13626274 0 0 0 .006-.01.13626274.13626274 0 0 0 .003-.01.13626274.13626274 0 0 0 .006-.01.13626274.13626274 0 0 0 .002-.01.13626274.13626274 0 0 0 .004-.01.13626274.13626274 0 0 0 .002-.01.13626274.13626274 0 0 0 .003-.01.13626274.13626274 0 0 0 .002-.01.13626274.13626274 0 0 0 .002-.01.13626274.13626274 0 0 0-.0106-.1011c-.004-.09-.005-.1791-.0564-.2576-.0646-.098-.16488-.1614-.31294-.2373a.13626274.13626274 0 0 0-.0106-.01zm-.10538.2522c.12412.065.18227.1107.20118.1395.005.01.004.035.007.044-.26147.078-.50383.1274-.70572.01a.13626274.13626274 0 0 0-.002 0c-.0803-.044-.0856-.074-.0862-.086-.00055-.012.007-.04.0533-.076.092-.071.30762-.1209.53223-.031z" color="#000" font-family="sans-serif" font-weight="400" overflow="visible" white-space="normal"/><path style="line-height:normal;text-indent:0;text-align:start;text-decoration-line:none;text-decoration-style:solid;text-decoration-color:#000;text-transform:none;block-progression:tb;isolation:auto;mix-blend-mode:normal" fill="#fc0" fill-rule="evenodd" d="m 3.91781,1032.6756 a 0.13626274,0.13626274 0 0 0 -0.0106,0.01 c -0.15224,0.078 -0.25461,0.1432 -0.32039,0.2437 -0.0531,0.081 -0.0548,0.1729 -0.0585,0.2662 a 0.13626274,0.13626274 0 0 0 -0.009,0.1043 0.13626274,0.13626274 0 0 0 0.002,0.01 0.13626274,0.13626274 0 0 0 0.002,0.01 0.13626274,0.13626274 0 0 0 0.004,0.012 0.13626274,0.13626274 0 0 0 0.002,0.01 0.13626274,0.13626274 0 0 0 0.006,0.01 0.13626274,0.13626274 0 0 0 8.1e-4,0 0.13626274,0.13626274 0 0 0 0.006,0.01 0.13626274,0.13626274 0 0 0 0.003,0.01 0.13626274,0.13626274 0 0 0 0.006,0.01 0.13626274,0.13626274 0 0 0 0.009,0.01 0.13626274,0.13626274 0 0 0 0.002,0 0.13626274,0.13626274 0 0 0 0.003,0 0.13626274,0.13626274 0 0 0 0.0841,0.031 c 0.34185,0.1166 0.70162,0.1693 1.02506,-0.019 2.9e-4,-2e-4 -2.9e-4,0 0,0 0.1334,-0.075 0.22432,-0.1878 0.23098,-0.3161 0.006,-0.1287 -0.0665,-0.2379 -0.16286,-0.312 -0.19271,-0.1482 -0.50533,-0.1998 -0.82388,-0.069 z m 0.10644,0.2523 c 0.2324,-0.094 0.45522,-0.041 0.55138,0.033 0.0484,0.037 0.0571,0.068 0.0564,0.082 -5.5e-4,0.014 -0.008,0.047 -0.0916,0.094 a 0.13626274,0.13626274 0 0 0 -0.002,0 c -0.21007,0.1231 -0.46094,0.072 -0.73234,-0.01 0.004,-0.013 0.002,-0.043 0.009,-0.053 0.0203,-0.031 0.0812,-0.08 0.20969,-0.1469 z" color="#000" font-family="sans-serif" font-weight="400" overflow="visible" white-space="normal"/><path style="line-height:normal;text-indent:0;text-align:start;text-decoration-line:none;text-decoration-style:solid;text-decoration-color:#000;text-transform:none;block-progression:tb;isolation:auto;mix-blend-mode:normal" fill="#e20c45" fill-rule="evenodd" d="M5.56024 1037.291c-.0724 0-.14428.028-.19906.083-.10977.1098-.10977.2893 0 .3991l.0159.016.35234.3576.35339-.3576.0159-.016c.10978-.1098.10977-.2893 0-.3991-.0931-.093-.23009-.065-.3385 0-.0549-.055-.12795-.083-.20012-.083zm0 .1363c.0374 0 .0742.014.10325.043l.066.066.067-.066c.0581-.057.14876-.058.20651 0 .058.058.058.1484 0 .2064l-.0159.016-.25653.2597-.2576-.2597-.0159-.016c-.058-.058-.058-.1484 0-.2064.0291-.029.0661-.043.10325-.043zM.65527 1037.836c-.0724 0-.14427.028-.19905.083-.10978.1098-.10978.2893 0 .3992l.0159.016.35234.3576.35339-.3576.0159-.016c.10979-.1099.10978-.2894 0-.3992-.0931-.093-.23008-.065-.33848 0-.0549-.055-.12795-.083-.20012-.083zm0 .1362c.0374 0 .0742.014.10325.043l.066.066.067-.066c.0581-.057.14875-.058.20651 0 .058.058.058.1484 0 .2066l-.0159.016-.25653.2597-.2576-.2597-.0159-.016c-.058-.058-.058-.1485 0-.2066.0291-.029.0661-.043.10324-.043zM3.38025 1036.8632c-.0724 0-.14427.029-.19905.083-.10978.1097-.10978.2893 0 .3991l0 0 .0159.014.35234.3577.3534-.3577.0159-.014 0 0c.10978-.1097.10978-.2894 0-.3991-.0931-.093-.23009-.065-.33849 0-.0549-.055-.12795-.083-.20012-.083zm0 .1361c.0374 0 .0742.014.10326.043l.066.066.067-.066c.0581-.057.14874-.058.20651 0 .058.058.058.1484 0 .2065l-.0159.016-.25653.2598-.2576-.2598-.0159-.016c-.0581-.058-.058-.1485 0-.2065.0291-.029.0661-.043.10325-.043zM1.74527 1035.111c-.0724 0-.14428.028-.19906.083-.10977.1098-.10977.2893 0 .3992l.0159.016.35234.3576.35338-.3576.0159-.016c.10979-.1099.10977-.2894 0-.3992-.0931-.093-.23009-.065-.33849 0-.0549-.055-.12795-.083-.20012-.083zm0 .1362c.0373 0 .0742.015.10324.044l.066.066.067-.066c.0581-.057.14875-.058.20651 0 .058.058.058.1484 0 .2065l-.0159.016-.25653.2597-.2576-.2597-.0159-.016c-.058-.058-.058-.1484 0-.2065.0291-.029.0661-.044.10325-.044zM4.47025 1035.7732c-.0724 0-.14428.029-.19906.083-.10977.1098-.10977.2894 0 .3992l0 0 .0159.014.35234.3576.35339-.3576.0159-.014 0 0c.10978-.1098.10977-.2894 0-.3992-.0931-.093-.2301-.065-.3385 0-.0549-.055-.12795-.083-.20012-.083zm0 .1362c.0373 0 .0742.014.10325.043l.066.066.067-.066c.0581-.057.14875-.058.20651 0 .058.058.058.1484 0 .2065l-.0159.016-.25653.2598-.2576-.2598-.0159-.016c-.058-.058-.058-.1484 0-.2065.0291-.029.0661-.043.10325-.043zM2.29026 1039.0431c-.0724 0-.14428.029-.19905.083-.10978.1098-.10978.2893 0 .3991l0 0 .0159.014.35234.3577.35339-.3577.0159-.014 0 0c.10979-.1098.10978-.2893 0-.3991-.0931-.093-.23008-.065-.33848 0-.0549-.055-.12795-.083-.20012-.083zm0 .1362c.0374 0 .0742.014.10326.043l.066.066.067-.066c.0581-.057.14874-.058.20651 0 .058.058.058.1485 0 .2066l-.0159.016-.25653.2598-.2576-.2598-.0159-.016c-.058-.058-.058-.1485 0-.2066.0291-.029.0661-.043.10325-.043zM3.92525 1040.1714c-.0724 0-.14428.029-.19906.083-.10977.1099-.10977.2894 0 .3993l.0159.016.35234.3577.35339-.3577.0159-.016c.10978-.1099.10977-.2894 0-.3993-.0931-.093-.23009-.065-.3385 0-.0549-.055-.12794-.083-.20011-.083zm0 .1363c.0373 0 .0742.014.10325.043l.066.066.067-.066c.0581-.057.14875-.058.2065 0 .058.058.058.1484 0 .2064l-.0159.016-.25653.2597-.2576-.2597-.0159-.016c-.058-.058-.058-.1484 0-.2064.0291-.029.0661-.043.10326-.043zM1.20027 1040.6782c-.0724 0-.14428.029-.19906.083-.10977.1097-.10978.2893 0 .3991l0 0 .0159.014.35234.3576.35338-.3576.0159-.014 0 0c.10979-.1098.10977-.2894 0-.3991-.0931-.093-.23008-.065-.33849 0-.0549-.055-.12794-.083-.20012-.083zm0 .1361c.0373 0 .0742.014.10325.043l.066.066.067-.066c.0581-.057.14874-.058.20651 0 .058.058.058.1484 0 .2065l-.0159.016-.25653.2598-.2576-.2598-.0159-.016c-.058-.058-.058-.1485 0-.2065.0291-.029.0661-.043.10325-.043zM5.56024 1039.4711c-.0724 0-.14428.028-.19906.083-.10977.1097-.10977.2893 0 .3991l.0159.016.35234.3577.35339-.3577.0159-.016c.10978-.1098.10977-.2894 0-.3991-.0931-.093-.23009-.065-.3385 0-.0549-.055-.12795-.083-.20012-.083zm0 .1361c.0374 0 .0742.014.10325.043l.066.066.067-.066c.0581-.057.14876-.058.20651 0 .058.058.058.1485 0 .2065l-.0159.016-.25653.2598-.2576-.2598-.0159-.016c-.058-.058-.058-.1484 0-.2065.0291-.029.0661-.043.10325-.043zM5.56024 1034.449c-.0724 0-.14428.029-.19906.083-.10977.1098-.10977.2894 0 .3992l.0159.016.35234.3577.35339-.3577.0159-.016c.10978-.1098.10977-.2894 0-.3992-.0931-.093-.23009-.065-.3385 0-.0549-.055-.12795-.083-.20012-.083zm0 .1361c.0374 0 .0742.014.10325.043l.066.066.067-.066c.0581-.057.14876-.058.20651 0 .058.058.058.1484 0 .2065l-.0159.016-.25653.2598-.2576-.2598-.0159-.016c-.058-.058-.058-.1485 0-.2065.0291-.029.0661-.043.10325-.043zM.65527 1034.1382c-.0724 0-.14427.029-.19905.083-.10978.1098-.10978.2894 0 .3991l0 0 .0159.014.35234.3577.35339-.3577.0159-.014 0 0c.10979-.1097.10978-.2893 0-.3991-.0931-.093-.23008-.065-.33848 0-.0549-.055-.12795-.083-.20012-.083zm0 .1362c.0374 0 .0742.014.10325.043l.066.066.067-.066c.0581-.057.14875-.058.20651 0 .058.058.058.1484 0 .2066l-.0159.016-.25653.2598-.2576-.2598-.0159-.016c-.058-.058-.058-.1485 0-.2066.0291-.029.0661-.043.10324-.043z" color="#000" font-family="sans-serif" font-weight="400" overflow="visible" white-space="normal"/><path style="line-height:125%;-inkscape-font-specification:'Bebas Neue Bold'" fill="#fff" d="m 22.2104,1036.8834 1.14691,0 0,-0.6036 -1.81091,0 0,4.2255 1.81091,0 0,-0.6037 -1.14691,0 0,-1.2374 0.91149,0 0,-0.6037 -0.91149,0 0,-1.1771 z" font-family="Bebas Neue" font-size="7.5" font-weight="700" letter-spacing="0" word-spacing="0"/><path fill="#ff1e55" d="m 24.90005,1034.2976 7.09995,0 -0.55999,8.7199 -6.33216,0 z"/><circle cx="28.45" cy="1035.932" r=".545" fill="#f2f2f2"/><path style="line-height:normal;text-indent:0;text-align:start;text-decoration-line:none;text-decoration-style:solid;text-decoration-color:#000;text-transform:none;block-progression:tb;isolation:auto;mix-blend-mode:normal" fill="#fc0" fill-rule="evenodd" d="m 28.33991,1030.7558 a 0.1635153,0.1635153 0 0 0 -0.16285,0.1651 c -0.0151,1.5564 0.0877,3.5024 0.0766,4.559 a 0.1635153,0.1635153 0 1 0 0.32678,0.01 c 0.0114,-1.0818 -0.0916,-3.0198 -0.0766,-4.5591 a 0.1635153,0.1635153 0 0 0 -0.16392,-0.1682 z" color="#000" font-family="sans-serif" font-weight="400" overflow="visible" white-space="normal"/><path style="line-height:normal;text-indent:0;text-align:start;text-decoration-line:none;text-decoration-style:solid;text-decoration-color:#000;text-transform:none;block-progression:tb;isolation:auto;mix-blend-mode:normal" fill="#fc0" fill-rule="evenodd" d="M28.71353 1034.1323a.1635153.1635153 0 0 0-.11389.281l.545.545a.1635153.1635153 0 1 0 .23097-.231l-.54499-.545a.1635153.1635153 0 0 0-.11709-.05zM28.044 1033.6331c-.31053-.1269-.61507-.078-.80366.066-.0943.072-.16628.1799-.15967.3064.006.1258.0962.2359.22567.3088.31407.1822.66294.133.99419.021a.13626274.13626274 0 0 0 .0841-.029.13626274.13626274 0 0 0 .007-.01.13626274.13626274 0 0 0 .003-.01.13626274.13626274 0 0 0 .006-.01.13626274.13626274 0 0 0 .003-.01.13626274.13626274 0 0 0 .006-.01.13626274.13626274 0 0 0 .003-.01.13626274.13626274 0 0 0 .006-.01.13626274.13626274 0 0 0 .002-.01.13626274.13626274 0 0 0 .004-.01.13626274.13626274 0 0 0 .002-.01.13626274.13626274 0 0 0 .003-.01.13626274.13626274 0 0 0 .002-.01.13626274.13626274 0 0 0 .002-.01.13626274.13626274 0 0 0-.0106-.1012c-.004-.09-.005-.1792-.0564-.2575-.0646-.098-.16487-.1614-.31294-.2374a.13626274.13626274 0 0 0-.0106-.01zm-.10538.2521c.12412.065.18226.1107.20118.1395.005.01.004.035.007.044-.26148.078-.50383.1275-.70572.01a.13626274.13626274 0 0 0-.002 0c-.0802-.044-.0856-.074-.0862-.086-.00055-.012.007-.04.0533-.076.092-.071.30762-.1208.53222-.031z" color="#000" font-family="sans-serif" font-weight="400" overflow="visible" white-space="normal"/><path style="line-height:normal;text-indent:0;text-align:start;text-decoration-line:none;text-decoration-style:solid;text-decoration-color:#000;text-transform:none;block-progression:tb;isolation:auto;mix-blend-mode:normal" fill="#fc0" fill-rule="evenodd" d="m 28.81785,1033.6139 a 0.13626274,0.13626274 0 0 0 -0.0106,0.01 c -0.15224,0.078 -0.25461,0.1432 -0.3204,0.2437 -0.0531,0.081 -0.0548,0.1728 -0.0585,0.2661 a 0.13626274,0.13626274 0 0 0 -0.009,0.1043 0.13626274,0.13626274 0 0 0 0.002,0.01 0.13626274,0.13626274 0 0 0 0.002,0.01 0.13626274,0.13626274 0 0 0 0.004,0.012 0.13626274,0.13626274 0 0 0 0.002,0.01 0.13626274,0.13626274 0 0 0 0.006,0.01 0.13626274,0.13626274 0 0 0 8.1e-4,0 0.13626274,0.13626274 0 0 0 0.006,0.01 0.13626274,0.13626274 0 0 0 0.003,0.01 0.13626274,0.13626274 0 0 0 0.006,0.01 0.13626274,0.13626274 0 0 0 0.009,0.01 0.13626274,0.13626274 0 0 0 0.002,0 0.13626274,0.13626274 0 0 0 0.003,0 0.13626274,0.13626274 0 0 0 0.0841,0.031 c 0.34185,0.1165 0.70162,0.1693 1.02506,-0.019 2.9e-4,-2e-4 -2.9e-4,0 0,0 0.1334,-0.075 0.22432,-0.1878 0.23098,-0.3162 0.006,-0.1287 -0.0665,-0.2378 -0.16286,-0.3119 -0.19272,-0.1482 -0.50533,-0.1999 -0.82388,-0.069 z m 0.10644,0.2521 c 0.23241,-0.094 0.45523,-0.041 0.55138,0.033 0.0484,0.037 0.0572,0.068 0.0564,0.082 -5.4e-4,0.014 -0.008,0.047 -0.0915,0.094 a 0.13626274,0.13626274 0 0 0 -0.002,0 c -0.21006,0.1231 -0.46093,0.072 -0.73233,-0.01 0.004,-0.013 0.002,-0.043 0.009,-0.053 0.0203,-0.031 0.0813,-0.08 0.2097,-0.1469 z" color="#000" font-family="sans-serif" font-weight="400" overflow="visible" white-space="normal"/><path style="line-height:normal;text-indent:0;text-align:start;text-decoration-line:none;text-decoration-style:solid;text-decoration-color:#000;text-transform:none;block-progression:tb;isolation:auto;mix-blend-mode:normal" fill="#e20c45" fill-rule="evenodd" d="M30.46029 1038.2293c-.0724 0-.14428.028-.19906.083-.10977.1098-.10977.2893 0 .3991l.0159.016.35234.3576.35339-.3576.0159-.016c.10978-.1098.10977-.2893 0-.3991-.0931-.093-.2301-.065-.3385 0-.0549-.055-.12795-.083-.20012-.083zm0 .1363c.0374 0 .0742.014.10325.043l.066.066.067-.066c.0581-.057.14875-.058.20651 0 .058.058.058.1485 0 .2065l-.0159.016-.25653.2597-.2576-.2597-.0159-.016c-.058-.058-.058-.1484 0-.2065.0291-.029.0661-.043.10325-.043zM25.55532 1038.7743c-.0724 0-.14428.028-.19905.083-.10978.1098-.10979.2894 0 .3992l.0159.016.35234.3576.35339-.3576.0159-.016c.10979-.1098.10978-.2894 0-.3992-.0931-.093-.23008-.065-.33849 0-.0549-.055-.12794-.083-.20011-.083zm0 .1361c.0374 0 .0742.014.10325.043l.066.066.067-.066c.0581-.057.14874-.058.20651 0 .058.058.058.1484 0 .2065l-.0159.016-.25653.2598-.2576-.2598-.0159-.016c-.058-.058-.058-.1484 0-.2065.0291-.029.0661-.043.10325-.043zM28.2803 1037.8015c-.0724 0-.14428.029-.19905.083-.10978.1098-.10978.2895 0 .3992l0 0 .0159.014.35234.3576.35339-.3576.0159-.014 0 0c.10978-.1097.10977-.2894 0-.3992-.0931-.093-.23009-.065-.33849 0-.0549-.055-.12795-.083-.20012-.083zm0 .1361c.0374 0 .0742.014.10326.043l.066.066.067-.066c.0581-.057.14874-.058.20651 0 .058.058.058.1484 0 .2065l-.0159.016-.25653.2597-.2576-.2597-.0159-.016c-.0581-.058-.058-.1485 0-.2065.0291-.029.0661-.043.10326-.043zM26.64531 1036.0493c-.0724 0-.14427.028-.19905.083-.10978.1097-.10978.2893 0 .3992l.0159.016.35234.3576.35339-.3576.0159-.016c.10979-.1099.10978-.2895 0-.3992-.0931-.093-.23008-.065-.33848 0-.0549-.055-.12795-.083-.20012-.083zm0 .1363c.0374 0 .0742.014.10325.043l.066.066.067-.066c.0581-.057.14875-.058.20651 0 .058.058.058.1484 0 .2065l-.0159.016-.25653.2599-.2576-.2599-.0159-.016c-.058-.058-.058-.1484 0-.2065.0291-.029.0661-.043.10324-.043zM29.37029 1036.7115c-.0724 0-.14427.029-.19905.083-.10978.1099-.10978.2895 0 .3992l0 0 .0159.014.35234.3577.3534-.3577.0159-.014 0 0c.10978-.1097.10978-.2893 0-.3992-.0931-.093-.23009-.065-.33849 0-.0549-.055-.12795-.083-.20012-.083zm0 .1362c.0374 0 .0742.014.10326.043l.066.066.067-.066c.0581-.057.14875-.058.20651 0 .058.058.058.1484 0 .2065l-.0159.016-.25653.2596-.2576-.2596-.0159-.016c-.058-.058-.058-.1484 0-.2065.0291-.029.0661-.043.10325-.043zM27.19031 1039.9814c-.0724 0-.14428.029-.19906.083-.10977.1097-.10977.2893 0 .3991l0 0 .0159.014.35234.3576.35338-.3576.0159-.014 0 0c.10979-.1098.10977-.2894 0-.3991-.0931-.093-.23008-.065-.33849 0-.0549-.055-.12794-.083-.20012-.083zm0 .1363c.0374 0 .0742.014.10325.043l.066.066.067-.066c.0581-.057.14874-.058.2065 0 .058.058.058.1484 0 .2065l-.0159.016-.25653.2599-.2576-.2599-.0159-.016c-.058-.058-.058-.1485 0-.2065.0291-.029.0661-.043.10325-.043zM28.8253 1041.1097c-.0724 0-.14428.029-.19906.083-.10977.1099-.10977.2894 0 .3993l.0159.016.35234.3577.35339-.3577.0159-.016c.10978-.1099.10977-.2894 0-.3993-.0931-.093-.23009-.065-.3385 0-.0549-.055-.12795-.083-.20012-.083zm0 .1363c.0373 0 .0742.014.10325.043l.066.066.067-.066c.0581-.057.14876-.058.20651 0 .058.058.058.1486 0 .2065l-.0159.016-.25653.2596-.2576-.2596-.0159-.016c-.058-.058-.058-.1484 0-.2065.0291-.029.0661-.043.10325-.043zM26.10032 1041.6164c-.0724 0-.14428.029-.19906.083-.10977.1098-.10978.2894 0 .3992l0 0 .0159.014.35234.3577.35338-.3577.0159-.014 0 0c.10979-.1098.10977-.2894 0-.3992-.0931-.093-.23008-.065-.33849 0-.0549-.055-.12795-.083-.20012-.083zm0 .1362c.0373 0 .0742.014.10324.043l.066.066.067-.066c.0581-.057.14875-.058.20651 0 .058.058.058.1484 0 .2065l-.0159.016-.25653.2597-.2576-.2597-.0159-.016c-.058-.058-.058-.1485 0-.2065.0291-.029.0661-.043.10325-.043zM30.46029 1040.4093c-.0724 0-.14428.028-.19906.083-.10977.1097-.10977.2893 0 .3991l.0159.016.35234.3577.35339-.3577.0159-.016c.10978-.1098.10977-.2894 0-.3991-.0931-.093-.2301-.065-.3385 0-.0549-.055-.12795-.083-.20012-.083zm0 .1361c.0374 0 .0742.014.10325.043l.066.066.067-.066c.0581-.057.14875-.058.20651 0 .058.058.058.1485 0 .2065l-.0159.016-.25653.2597-.2576-.2597-.0159-.016c-.058-.058-.058-.1484 0-.2065.0291-.029.0661-.043.10325-.043zM30.46029 1035.3872c-.0724 0-.14428.029-.19906.083-.10977.1098-.10977.2893 0 .3992l.0159.016.35234.3577.35339-.3577.0159-.016c.10978-.1099.10977-.2894 0-.3992-.0931-.093-.2301-.065-.3385 0-.0549-.055-.12795-.083-.20012-.083zm0 .1363c.0374 0 .0742.014.10325.043l.066.066.067-.066c.0581-.057.14875-.058.20651 0 .058.058.058.1484 0 .2065l-.0159.016-.25653.2598-.2576-.2598-.0159-.016c-.058-.058-.058-.1485 0-.2065.0291-.029.0661-.043.10325-.043zM25.55532 1035.0765c-.0724 0-.14428.029-.19905.083-.10978.1097-.10979.2894 0 .3991l0 0 .0159.014.35234.3576.35339-.3576.0159-.014 0 0c.10979-.1097.10978-.2894 0-.3991-.0931-.093-.23008-.065-.33849 0-.0549-.055-.12794-.083-.20011-.083zm0 .1362c.0374 0 .0742.014.10325.043l.066.066.067-.066c.0581-.057.14874-.058.20651 0 .058.058.058.1484 0 .2065l-.0159.016-.25653.2597-.2576-.2597-.0159-.016c-.058-.058-.058-.1485 0-.2065.0291-.029.0661-.043.10325-.043z" color="#000" font-family="sans-serif" font-weight="400" overflow="visible" white-space="normal"/><path style="line-height:125%;-inkscape-font-specification:'Bebas Neue Bold'" fill="#fff" d="M3.20172 1037.3325c0-.3055.13442-.4216.34826-.4216.21384 0 .34826.1161.34826.4216l0 2.3095c0 .3055-.13442.4216-.34826.4216-.21384 0-.34826-.1161-.34826-.4216l0-2.3095zm-.67207 2.2667c0 .6843.36047 1.0754 1.02033 1.0754.65986 0 1.02033-.3911 1.02033-1.0754l0-2.224c0-.6843-.36047-1.0752-1.02033-1.0752-.65986 0-1.02033.3909-1.02033 1.0752l0 2.224zM10.0475 1038.052l1.10587 0 0-.611-1.77794 0 0 4.2768.67207 0 0-1.7657.86759 0 0-.6109-.86759 0 0-1.2892zM16.52897 1035.5615l1.10587 0 0-.6111-1.77795 0 0 4.2769.67208 0 0-1.7656.86759 0 0-.6111-.86759 0 0-1.2891zM29.43999 1041.563c-.0672-.1588-.0733-.3116-.0733-.5193l0-.6599c0-.4459-.10997-.7697-.44601-.9103.29938-.1405.4399-.4277.4399-.8676l0-.336c0-.66-.29938-.9837-.99589-.9837l-1.01422 0 0 4.2768.67207 0 0-1.7412.23218 0c.30549 0 .4399.1466.4399.5438l0 .672c0 .3483.0245.4155.0611.5254l.6843 0zm-1.09365-3.6658c.23828 0 .34215.1344.34215.4399l0 .4216c0 .3421-.15275.4521-.40325.4521l-.26272 0 0-1.3136.32382 0z" font-family="Bebas Neue" font-weight="700" letter-spacing="0" word-spacing="0"/></g></svg>