<svg xmlns="http://www.w3.org/2000/svg" width="32" height="32" viewBox="0 0 32 32"><g transform="translate(0 -1020.362)"><path fill="#ff1e55" d="m 5.9999997,1030.2131 24.0000003,0 -5,6.149 5,6.149 -24.0000003,0 z"/><path fill="#eb1e39" d="m 5.9999997,1030.2131 2,0 0,6.149 0,6.149 -2,0 z"/><rect width="5" height="16" x="2" y="1028.362" fill="#fc0"/><path style="line-height:125%;-inkscape-font-specification:'Bebas Neue Bold'" fill="#fc0" d="M 10.521484 13.003906 C 9.6178536 13.003906 9.1230469 13.539462 9.1230469 14.476562 L 9.1230469 17.523438 C 9.1230469 18.460538 9.6178536 18.996094 10.521484 18.996094 C 11.425116 18.996094 11.917969 18.460538 11.917969 17.523438 L 11.917969 14.476562 C 11.917969 13.539462 11.425116 13.003906 10.521484 13.003906 z M 12.515625 13.072266 L 12.515625 18.927734 L 13.4375 18.927734 L 13.4375 16.509766 L 14.625 16.509766 L 14.625 15.673828 L 13.4375 15.673828 L 13.4375 13.908203 L 14.951172 13.908203 L 14.951172 13.072266 L 12.515625 13.072266 z M 15.392578 13.072266 L 15.392578 18.927734 L 16.3125 18.927734 L 16.3125 16.509766 L 17.501953 16.509766 L 17.501953 15.673828 L 16.3125 15.673828 L 16.3125 13.908203 L 17.828125 13.908203 L 17.828125 13.072266 L 15.392578 13.072266 z M 18.269531 13.072266 L 18.269531 18.927734 L 20.779297 18.927734 L 20.779297 18.091797 L 19.189453 18.091797 L 19.189453 16.376953 L 20.453125 16.376953 L 20.453125 15.539062 L 19.189453 15.539062 L 19.189453 13.908203 L 20.779297 13.908203 L 20.779297 13.072266 L 18.269531 13.072266 z M 21.341797 13.072266 L 21.341797 18.927734 L 22.261719 18.927734 L 22.261719 16.542969 L 22.580078 16.542969 C 22.998426 16.542969 23.181641 16.745263 23.181641 17.289062 L 23.181641 18.208984 C 23.181641 18.685884 23.215425 18.777134 23.265625 18.927734 L 24.203125 18.927734 C 24.111085 18.710234 24.101563 18.501297 24.101562 18.216797 L 24.101562 17.314453 C 24.101562 16.703653 23.95237 16.258906 23.492188 16.066406 C 23.902168 15.874006 24.09375 15.481306 24.09375 14.878906 L 24.09375 14.417969 C 24.09375 13.514369 23.684302 13.072266 22.730469 13.072266 L 21.341797 13.072266 z M 10.521484 13.841797 C 10.814328 13.841797 10.998047 13.999669 10.998047 14.417969 L 10.998047 17.582031 C 10.998047 18.000431 10.814328 18.158203 10.521484 18.158203 C 10.228641 18.158203 10.044922 18.000431 10.044922 17.582031 L 10.044922 14.417969 C 10.044922 13.999669 10.228641 13.841797 10.521484 13.841797 z M 22.261719 13.908203 L 22.705078 13.908203 C 23.031389 13.908203 23.173828 14.091366 23.173828 14.509766 L 23.173828 15.087891 C 23.173828 15.556391 22.964139 15.707031 22.621094 15.707031 L 22.261719 15.707031 L 22.261719 13.908203 z " font-family="Bebas Neue" font-size="8.367" font-weight="700" letter-spacing="0" transform="translate(0 1020.362)" word-spacing="0"/></g></svg>