<svg xmlns="http://www.w3.org/2000/svg" width="32" height="32" viewBox="0 0 32 32"><g transform="translate(0 -1020.362)"><path fill="#df1e49" d="M2.54981 1033.3113l5.8737 0 0 7.3714-5.8737 0 2.10653-3.6859zM29.45019 1033.3113l-5.87373 0 0 7.3714 5.87373 0-2.10656-3.6859z"/><path fill="#ff1e55" d="m 6.86881,1032.0417 0,7.3726 3.99999,0 10.26237,0 3.99999,0 0,-7.3726 -3.99999,0 -10.26237,0 z"/><path style="line-height:125%;-inkscape-font-specification:'Bebas Neue Bold'" fill="#fff" d="M 11.722656 13.464844 C 11.149375 13.464844 10.835937 13.805891 10.835938 14.400391 L 10.835938 16.332031 C 10.835938 16.926631 11.149375 17.265625 11.722656 17.265625 C 12.295938 17.265625 12.609375 16.926631 12.609375 16.332031 L 12.609375 14.400391 C 12.609375 13.805891 12.295938 13.464844 11.722656 13.464844 z M 12.988281 13.507812 L 12.988281 17.222656 L 13.572266 17.222656 L 13.572266 15.689453 L 14.326172 15.689453 L 14.326172 15.158203 L 13.572266 15.158203 L 13.572266 14.039062 L 14.533203 14.039062 L 14.533203 13.507812 L 12.988281 13.507812 z M 14.814453 13.507812 L 14.814453 17.222656 L 15.398438 17.222656 L 15.398438 15.689453 L 16.152344 15.689453 L 16.152344 15.158203 L 15.398438 15.158203 L 15.398438 14.039062 L 16.359375 14.039062 L 16.359375 13.507812 L 14.814453 13.507812 z M 16.638672 13.507812 L 16.638672 17.222656 L 18.230469 17.222656 L 18.230469 16.693359 L 17.222656 16.693359 L 17.222656 15.605469 L 18.023438 15.605469 L 18.023438 15.074219 L 17.222656 15.074219 L 17.222656 14.039062 L 18.230469 14.039062 L 18.230469 13.507812 L 16.638672 13.507812 z M 18.587891 13.507812 L 18.587891 17.222656 L 19.171875 17.222656 L 19.171875 15.710938 L 19.373047 15.710938 C 19.638455 15.710938 19.755859 15.838594 19.755859 16.183594 L 19.755859 16.767578 C 19.755859 17.070178 19.776744 17.127156 19.808594 17.222656 L 20.402344 17.222656 C 20.343954 17.084656 20.339844 16.951984 20.339844 16.771484 L 20.339844 16.199219 C 20.339844 15.811719 20.243117 15.530303 19.951172 15.408203 C 20.211272 15.286103 20.333984 15.036497 20.333984 14.654297 L 20.333984 14.363281 C 20.333984 13.789981 20.07388 13.507812 19.46875 13.507812 L 18.587891 13.507812 z M 11.722656 13.996094 C 11.908442 13.996094 12.025391 14.097881 12.025391 14.363281 L 12.025391 16.369141 C 12.025391 16.634541 11.908442 16.734375 11.722656 16.734375 C 11.53687 16.734375 11.419922 16.634541 11.419922 16.369141 L 11.419922 14.363281 C 11.419922 14.097881 11.53687 13.996094 11.722656 13.996094 z M 19.171875 14.039062 L 19.453125 14.039062 C 19.660144 14.039062 19.75 14.156475 19.75 14.421875 L 19.75 14.787109 C 19.75 15.084309 19.618025 15.179688 19.400391 15.179688 L 19.171875 15.179688 L 19.171875 14.039062 z " font-family="Bebas Neue" font-weight="700" letter-spacing="0" transform="translate(0 1020.362)" word-spacing="0"/></g></svg>