<svg xmlns="http://www.w3.org/2000/svg" width="32" height="32" viewBox="0 0 32 32"><g transform="translate(0 -1020.362)"><rect width="10.907" height="5.6" x="-35.361" y="-1066.249" fill="#df1e49" transform="matrix(-.75506 .65565 0 -1 0 0)"/><rect width="19.531" height="7.84" x="19.987" y="1050.544" fill="#df1e49" transform="matrix(.75899 -.6511 0 1 0 0)"/><rect width="11.758" height="7.84" x="15.471" y="-1048.415" fill="#ff1e55" transform="skewY(-11.325) scale(.98053 -1)"/><rect width="28.464" height="10.08" x="2.033" y="1027.995" fill="#ff1e55" transform="matrix(.98369 -.1799 0 1 0 0)"/><path style="line-height:125%;-inkscape-font-specification:'Bebas Neue Bold'" fill="#fff" d="M 23.085938 5.1191406 C 22.972429 5.1257105 22.85079 5.1424312 22.71875 5.1679688 L 21.179688 5.4648438 L 21.179688 11.951172 L 22.199219 11.753906 L 22.199219 9.1132812 L 22.552734 9.0449219 C 23.016032 8.9549219 23.21875 9.1375344 23.21875 9.7402344 L 23.21875 10.759766 C 23.21875 11.287866 23.2569 11.383063 23.3125 11.539062 L 24.349609 11.337891 C 24.247684 11.116691 24.238281 10.887366 24.238281 10.572266 L 24.238281 9.5722656 C 24.238281 8.8958656 24.072128 8.4367656 23.5625 8.3222656 C 24.016532 8.0213656 24.228516 7.5441531 24.228516 6.8769531 L 24.228516 6.3671875 C 24.228516 5.491575 23.880494 5.0731512 23.085938 5.1191406 z M 20.558594 5.5859375 L 17.777344 6.1230469 L 17.777344 12.609375 L 20.558594 12.072266 L 20.558594 11.144531 L 18.796875 11.486328 L 18.796875 9.5859375 L 20.197266 9.3144531 L 20.197266 8.3886719 L 18.796875 8.6601562 L 18.796875 6.8515625 L 20.558594 6.5117188 L 20.558594 5.5859375 z M 22.923828 6.09375 C 23.120585 6.1347328 23.208984 6.3185406 23.208984 6.6660156 L 23.208984 7.3066406 C 23.208984 7.8255406 22.97756 8.035875 22.597656 8.109375 L 22.199219 8.1875 L 22.199219 6.1953125 L 22.691406 6.0996094 C 22.78175 6.0821094 22.858242 6.0800891 22.923828 6.09375 z M 17.289062 6.2167969 L 14.59375 6.7382812 L 14.59375 13.224609 L 15.611328 13.027344 L 15.611328 10.349609 L 16.927734 10.095703 L 16.927734 9.1699219 L 15.611328 9.4238281 L 15.611328 7.46875 L 17.289062 7.1445312 L 17.289062 6.2167969 z M 14.103516 6.8339844 L 11.408203 7.3554688 L 11.408203 13.841797 L 12.427734 13.644531 L 12.427734 10.966797 L 13.742188 10.710938 L 13.742188 9.7851562 L 12.427734 10.039062 L 12.427734 8.0839844 L 14.103516 7.7597656 L 14.103516 6.8339844 z M 9.5527344 7.6679688 C 9.4420133 7.6711426 9.3223562 7.6847844 9.1972656 7.7089844 C 8.1965416 7.9024844 7.6503906 8.6008719 7.6503906 9.6386719 L 7.6503906 13.011719 C 7.6503906 14.049519 8.1965416 14.535297 9.1972656 14.341797 C 10.19799 14.148197 10.746094 13.449909 10.746094 12.412109 L 10.746094 9.0390625 C 10.746094 8.1309875 10.327782 7.645752 9.5527344 7.6679688 z M 9.4179688 8.6269531 C 9.6121196 8.6606188 9.7265625 8.824475 9.7265625 9.171875 L 9.7265625 12.673828 C 9.7265625 13.137128 9.5215743 13.353316 9.1972656 13.416016 C 8.8729569 13.479016 8.6699219 13.342206 8.6699219 12.878906 L 8.6699219 9.3769531 C 8.6699219 8.9136531 8.8729569 8.6974656 9.1972656 8.6347656 C 9.2783428 8.6190156 9.3532518 8.6157312 9.4179688 8.6269531 z " font-family="Bebas Neue" font-size="9.266" font-weight="700" letter-spacing="0" transform="translate(0 1020.362)" word-spacing="0"/></g></svg>