<svg xmlns="http://www.w3.org/2000/svg" width="32" height="32" viewBox="0 0 32 32"><g transform="translate(0 -1020.362)"><path fill="#fc0" d="m 22.984538,1048.4344 c -0.497115,0.2824 -3.793246,-0.7899 -4.34886,-0.6551 -0.53621,0.1301 -2.85261,2.5659 -3.403552,2.5358 -0.570878,-0.031 -2.76405,-2.7153 -3.304335,-2.9023 -0.521418,-0.1804 -3.7869915,0.6164 -4.2342002,0.2932 -0.4633914,-0.3349 -0.8572876,-3.7786 -1.2107077,-4.228 -0.3410779,-0.4337 -3.5190288,-1.5289 -3.7205187,-2.0426 -0.208781,-0.5322 1.3216578,-3.6422 1.267311,-4.2114 -0.052449,-0.5492 -2.1337997,-3.1887 -2.0255992,-3.7297 0.1121159,-0.5607 3.0809862,-2.3495 3.3429675,-2.8577 0.2528323,-0.4904 -0.071104,-3.8362 0.3124337,-4.2328 0.3974167,-0.4111 3.8621232,-0.3109 4.3572556,-0.5967 0.477841,-0.2759 2.014166,-3.2656 2.551271,-3.392 0.55654,-0.1309 3.417063,1.8266 3.988145,1.8538 0.551139,0.026 3.459953,-1.6583 3.980098,-1.4742 0.538967,0.1908 1.88711,3.384 2.352828,3.7156 0.449453,0.3201 3.807229,0.4756 4.145272,0.9117 0.350274,0.4518 -0.241988,3.867 -0.0295,4.3978 0.20507,0.5122 2.945738,2.4584 2.994351,3.008 0.05037,0.5695 -2.294255,3.1224 -2.402455,3.6838 -0.104422,0.5418 1.148994,3.6607 0.892745,4.1493 -0.265522,0.5064 -3.618114,1.3864 -4.012652,1.8001 -0.38076,0.3994 -1.012546,3.7008 -1.492301,3.9734 z"/><path fill="#3477e0" d="m 21.92176,1046.5973 c -0.421473,0.2395 -3.216061,-0.6697 -3.687131,-0.5554 -0.45462,0.1103 -2.418554,2.1755 -2.885664,2.15 -0.484013,-0.026 -2.343469,-2.3021 -2.801544,-2.4607 -0.442077,-0.153 -3.2107572,0.5226 -3.589918,0.2486 -0.3928811,-0.284 -0.7268427,-3.2037 -1.0264859,-3.5847 -0.289179,-0.3677 -2.9835678,-1.2963 -3.1543988,-1.7318 -0.1770126,-0.4512 1.1205513,-3.088 1.0744741,-3.5705 -0.044468,-0.4657 -1.8091167,-2.7036 -1.7173802,-3.1623 0.095056,-0.4753 2.6121782,-1.992 2.8342961,-2.4228 0.2143611,-0.4158 -0.060284,-3.2525 0.2648946,-3.5888 0.3369452,-0.3485 3.2744571,-0.2635 3.6942491,-0.5059 0.405132,-0.2339 1.707689,-2.7687 2.163067,-2.8758 0.471857,-0.111 2.897119,1.5486 3.381304,1.5717 0.467277,0.022 2.933483,-1.406 3.374481,-1.2499 0.456957,0.1617 1.599966,2.8691 1.994819,3.1503 0.381064,0.2713 3.227916,0.4032 3.514522,0.7729 0.296976,0.3831 -0.205165,3.2786 -0.02501,3.7286 0.173866,0.4343 2.497509,2.0844 2.538725,2.5504 0.04271,0.4828 -1.945157,2.6472 -2.036893,3.1232 -0.08853,0.4593 0.97416,3.1037 0.756902,3.518 -0.225119,0.4293 -3.067576,1.1754 -3.40208,1.5262 -0.322824,0.3385 -0.858477,3.1376 -1.265232,3.3687 z"/><path fill="#fc0" d="m 7.29384,1032.3384 16.909884,0 c 1.752598,0 3.163535,0.098 3.163535,0.2187 l 1.085234,2.1941 -1.788767,3.0011 0.703533,2.8103 c 0.02955,0.1182 -1.410937,0.2186 -3.163535,0.2186 l -16.909884,0 c -1.752598,0 -3.163535,-0.097 -3.163535,-0.2186 l 0,-8.0055 c 0,-0.1212 1.410937,-0.2187 3.163535,-0.2187 z"/><path style="line-height:125%;-inkscape-font-specification:'Bebas Neue Bold'" fill="#3477e0" d="M 9.6875 12.976562 C 8.7157888 12.976562 8.1835938 13.552847 8.1835938 14.560547 L 8.1835938 17.835938 C 8.1835938 18.843638 8.7157888 19.417969 9.6875 19.417969 C 10.659211 19.417969 11.189453 18.843637 11.189453 17.835938 L 11.189453 14.560547 C 11.189453 13.552847 10.659211 12.976562 9.6875 12.976562 z M 11.832031 13.048828 L 11.832031 19.347656 L 12.822266 19.347656 L 12.822266 16.746094 L 14.099609 16.746094 L 14.099609 15.847656 L 12.822266 15.847656 L 12.822266 13.949219 L 14.451172 13.949219 L 14.451172 13.048828 L 11.832031 13.048828 z M 14.925781 13.048828 L 14.925781 19.347656 L 15.914062 19.347656 L 15.914062 16.746094 L 17.193359 16.746094 L 17.193359 15.847656 L 15.914062 15.847656 L 15.914062 13.949219 L 17.542969 13.949219 L 17.542969 13.048828 L 14.925781 13.048828 z M 18.017578 13.048828 L 18.017578 19.347656 L 20.716797 19.347656 L 20.716797 18.447266 L 19.007812 18.447266 L 19.007812 16.603516 L 20.367188 16.603516 L 20.367188 15.703125 L 19.007812 15.703125 L 19.007812 13.949219 L 20.716797 13.949219 L 20.716797 13.048828 L 18.017578 13.048828 z M 21.322266 13.048828 L 21.322266 19.347656 L 22.310547 19.347656 L 22.310547 16.783203 L 22.652344 16.783203 C 23.102211 16.783203 23.300781 16.999184 23.300781 17.583984 L 23.300781 18.572266 C 23.300781 19.085166 23.336645 19.185656 23.390625 19.347656 L 24.398438 19.347656 C 24.299467 19.113756 24.291016 18.887931 24.291016 18.582031 L 24.291016 17.611328 C 24.291016 16.954528 24.129619 16.476431 23.634766 16.269531 C 24.075635 16.062631 24.28125 15.639987 24.28125 14.992188 L 24.28125 14.498047 C 24.28125 13.526347 23.840148 13.048828 22.814453 13.048828 L 21.322266 13.048828 z M 9.6875 13.876953 C 10.002407 13.876953 10.199219 14.048247 10.199219 14.498047 L 10.199219 17.898438 C 10.199219 18.348338 10.002407 18.519531 9.6875 18.519531 C 9.3725936 18.519531 9.1738281 18.348337 9.1738281 17.898438 L 9.1738281 14.498047 C 9.1738281 14.048247 9.3725936 13.876953 9.6875 13.876953 z M 22.310547 13.949219 L 22.789062 13.949219 C 23.139958 13.949219 23.292969 14.145803 23.292969 14.595703 L 23.292969 15.216797 C 23.292969 15.720697 23.066156 15.882812 22.697266 15.882812 L 22.310547 15.882812 L 22.310547 13.949219 z " font-family="Bebas Neue" font-size="8.997" font-weight="700" letter-spacing="0" transform="translate(0 1020.362)" word-spacing="0"/></g></svg>