<svg xmlns="http://www.w3.org/2000/svg" width="32" height="32" viewBox="0 0 32 32"><g transform="translate(0 -1020.362)"><path fill="#13b53e" d="m 0,1032.406 32.000001,0 -2.155231,3.956 2.155231,3.956 -32.000001,0 2.153831,-3.956 z"/><path fill="#18a12b" d="m 1.406587,1033.2264 29.186827,0 -1.96577,3.1356 1.96577,3.1355 -29.186827,0 1.964499,-3.1355 z"/><path fill="#f2f2f2" d="m 299.3316,1179.2456 c -0.15476,0.089 -1.17866,-0.2983 -1.35126,-0.252 -0.17261,0.046 -0.86555,0.8938 -1.04424,0.8938 -0.1787,0 -0.87164,-0.8476 -1.04424,-0.8938 -0.17261,-0.046 -1.19651,0.3413 -1.35126,0.252 -0.15475,-0.089 -0.33107,-1.1699 -0.45742,-1.2962 -0.12636,-0.1264 -1.20686,-0.3027 -1.29621,-0.4575 -0.0894,-0.1547 0.29822,-1.1786 0.25197,-1.3512 -0.0463,-0.1726 -0.89384,-0.8656 -0.89384,-1.0443 0,-0.1787 0.84759,-0.8716 0.89384,-1.0442 0.0462,-0.1726 -0.34132,-1.1965 -0.25197,-1.3513 0.0894,-0.1547 1.16985,-0.331 1.29621,-0.4574 0.12635,-0.1263 0.30267,-1.2068 0.45742,-1.2962 0.15475,-0.089 1.17865,0.2982 1.35126,0.252 0.1726,-0.046 0.86554,-0.8939 1.04424,-0.8939 0.17869,0 0.87163,0.8476 1.04424,0.8939 0.1726,0.046 1.1965,-0.3413 1.35126,-0.252 0.15475,0.089 0.33106,1.1699 0.45741,1.2962 0.12636,0.1264 1.20687,0.3027 1.29621,0.4574 0.0894,0.1548 -0.29821,1.1787 -0.25197,1.3513 0.0462,0.1726 0.89385,0.8655 0.89385,1.0442 0,0.1787 -0.8476,0.8717 -0.89385,1.0443 -0.0462,0.1726 0.34132,1.1965 0.25197,1.3512 -0.0893,0.1548 -1.16985,0.3311 -1.29621,0.4575 -0.12635,0.1263 -0.30266,1.2068 -0.45741,1.2962 z" transform="rotate(-14.835 -6187.826 4485.491) scale(2.33151)"/><path fill="#13b53e" d="m 299.3316,1179.2456 c -0.15476,0.089 -1.17866,-0.2983 -1.35126,-0.252 -0.17261,0.046 -0.86555,0.8938 -1.04424,0.8938 -0.1787,0 -0.87164,-0.8476 -1.04424,-0.8938 -0.17261,-0.046 -1.19651,0.3413 -1.35126,0.252 -0.15475,-0.089 -0.33107,-1.1699 -0.45742,-1.2962 -0.12636,-0.1264 -1.20686,-0.3027 -1.29621,-0.4575 -0.0894,-0.1547 0.29822,-1.1786 0.25197,-1.3512 -0.0463,-0.1726 -0.89384,-0.8656 -0.89384,-1.0443 0,-0.1787 0.84759,-0.8716 0.89384,-1.0442 0.0462,-0.1726 -0.34132,-1.1965 -0.25197,-1.3513 0.0894,-0.1547 1.16985,-0.331 1.29621,-0.4574 0.12635,-0.1263 0.30267,-1.2068 0.45742,-1.2962 0.15475,-0.089 1.17865,0.2982 1.35126,0.252 0.1726,-0.046 0.86554,-0.8939 1.04424,-0.8939 0.17869,0 0.87163,0.8476 1.04424,0.8939 0.1726,0.046 1.1965,-0.3413 1.35126,-0.252 0.15475,0.089 0.33106,1.1699 0.45741,1.2962 0.12636,0.1264 1.20687,0.3027 1.29621,0.4574 0.0894,0.1548 -0.29821,1.1787 -0.25197,1.3513 0.0462,0.1726 0.89385,0.8655 0.89385,1.0442 0,0.1787 -0.8476,0.8717 -0.89385,1.0443 -0.0462,0.1726 0.34132,1.1965 0.25197,1.3512 -0.0893,0.1548 -1.16985,0.3311 -1.29621,0.4575 -0.12635,0.1263 -0.30266,1.2068 -0.45741,1.2962 z" transform="rotate(-14.835 -5414.962 4179.486) scale(2.15443)"/><path fill="#18a12b" d="m 298.97195,1178.6239 c -0.13121,0.076 -0.99931,-0.2529 -1.14565,-0.2137 -0.14634,0.039 -0.73385,0.7579 -0.88535,0.7579 -0.1515,0 -0.73901,-0.7186 -0.88535,-0.7579 -0.14634,-0.039 -1.01444,0.2894 -1.14565,0.2137 -0.1312,-0.076 -0.28069,-0.9919 -0.38782,-1.099 -0.10712,-0.1071 -1.02322,-0.2566 -1.09897,-0.3878 -0.0757,-0.1312 0.25284,-0.9993 0.21363,-1.1457 -0.0392,-0.1463 -0.75784,-0.7338 -0.75784,-0.8853 0,-0.1515 0.71863,-0.739 0.75784,-0.8854 0.0392,-0.1463 -0.28938,-1.0144 -0.21363,-1.1456 0.0758,-0.1312 0.99185,-0.2807 1.09897,-0.3878 0.10713,-0.1072 0.25662,-1.0233 0.38782,-1.099 0.13121,-0.076 0.99931,0.2528 1.14565,0.2136 0.14634,-0.039 0.73385,-0.7578 0.88535,-0.7578 0.1515,0 0.73901,0.7186 0.88535,0.7578 0.14634,0.039 1.01444,-0.2894 1.14565,-0.2136 0.1312,0.076 0.28069,0.9918 0.38781,1.099 0.10713,0.1071 1.02323,0.2566 1.09898,0.3878 0.0758,0.1312 -0.25284,0.9993 -0.21363,1.1456 0.0392,0.1464 0.75783,0.7339 0.75783,0.8854 0,0.1515 -0.71862,0.739 -0.75783,0.8853 -0.0392,0.1464 0.28938,1.0145 0.21363,1.1457 -0.0757,0.1312 -0.99185,0.2807 -1.09898,0.3878 -0.10713,0.1071 -0.25661,1.0232 -0.38781,1.099 z" transform="rotate(-14.835 -5414.962 4179.486) scale(2.15443)"/><path fill="#13b53e" d="m 9.640381,1033.2721 12.324224,0.2482 c 1.277514,0.026 2.267606,-0.032 2.308368,0.047 l 0.788372,1.5158 -1.134654,2.1879 1.17673,2.2695 c 0.04072,0.078 -1.875025,-0.039 -3.152519,-0.062 l -12.324223,-0.2482 c -1.277515,-0.026 -2.308692,0.043 -2.308412,-0.047 l 0.01939,-5.9562 c 2.8e-4,-0.088 3.580411,0.073 2.302896,0.047 z"/><path style="line-height:125%;-inkscape-font-specification:'Bebas Neue Bold'" fill="#f2f2f2" d="M 11.414062 13.632812 C 10.705616 13.632812 10.316567 14.048503 10.314453 14.783203 L 10.306641 17.171875 C 10.304541 17.906575 10.691945 18.328078 11.400391 18.330078 C 12.108838 18.330078 12.495933 17.912434 12.498047 17.177734 L 12.505859 14.791016 C 12.507959 14.056316 12.12251 13.634912 11.414062 13.632812 z M 12.976562 13.681641 L 12.964844 18.273438 L 13.685547 18.273438 L 13.691406 16.376953 L 14.623047 16.376953 L 14.625 15.722656 L 13.693359 15.722656 L 13.697266 14.347656 L 14.884766 14.347656 L 14.886719 13.691406 L 12.976562 13.681641 z M 15.232422 13.6875 L 15.21875 18.279297 L 15.941406 18.279297 L 15.945312 16.384766 L 16.876953 16.384766 L 16.878906 15.728516 L 15.947266 15.728516 L 15.951172 14.353516 L 17.138672 14.353516 L 17.140625 13.697266 L 15.232422 13.6875 z M 17.486328 13.695312 L 17.474609 18.287109 L 19.441406 18.296875 L 19.443359 17.640625 L 18.197266 17.640625 L 18.201172 16.294922 L 19.191406 16.294922 L 19.193359 15.640625 L 18.203125 15.640625 L 18.207031 14.361328 L 19.453125 14.361328 L 19.455078 13.705078 L 17.486328 13.695312 z M 19.896484 13.712891 L 19.882812 18.304688 L 20.603516 18.304688 L 20.609375 16.435547 L 20.859375 16.435547 C 21.187359 16.436547 21.331305 16.595084 21.330078 17.021484 L 21.328125 17.742188 C 21.327025 18.116088 21.351605 18.188541 21.390625 18.306641 L 22.126953 18.306641 C 22.055997 18.136589 22.04818 17.972213 22.048828 17.75 L 22.050781 17.041016 C 22.052181 16.562116 21.934567 16.2144 21.574219 16.0625 C 21.896078 15.9125 22.049422 15.605113 22.050781 15.132812 L 22.050781 14.771484 C 22.052781 14.063084 21.732179 13.714991 20.984375 13.712891 L 19.896484 13.712891 z M 11.412109 14.289062 C 11.641698 14.289763 11.784147 14.414288 11.783203 14.742188 L 11.777344 17.222656 C 11.7764 17.550656 11.631933 17.674528 11.402344 17.673828 C 11.172755 17.673228 11.028353 17.54675 11.029297 17.21875 L 11.035156 14.740234 C 11.0361 14.412334 11.18252 14.288463 11.412109 14.289062 z M 20.615234 14.367188 L 20.962891 14.369141 C 21.218719 14.369941 21.331022 14.513797 21.330078 14.841797 L 21.328125 15.294922 C 21.327025 15.662322 21.161525 15.780097 20.892578 15.779297 L 20.611328 15.777344 L 20.615234 14.367188 z " font-family="Bebas Neue" font-size="6.56" font-weight="700" letter-spacing="0" transform="translate(0 1020.362)" word-spacing="0"/></g></svg>