<svg xmlns="http://www.w3.org/2000/svg" width="32" height="32" viewBox="0 0 32 32"><g transform="translate(0 -1020.362)"><path fill="#f6a119" d="m 22.999992,1048.4865 c -1.078668,0.6228 -2.893713,-1.6118 -4.096811,-1.2895 -1.203097,0.3224 -1.657651,3.1652 -2.903189,3.1652 -1.245539,0 -1.700093,-2.8428 -2.90319,-3.1652 -1.203097,-0.3223 -3.018143,1.9123 -4.0968102,1.2895 -1.0786677,-0.6227 -0.050933,-3.3119 -0.9316619,-4.1927 -0.8807284,-0.8807 -3.5699245,0.147 -4.1926935,-0.9316 -0.6227691,-1.0787 1.611873,-2.8937 1.2895041,-4.0968 -0.322369,-1.2031 -3.1651482,-1.6577 -3.1651481,-2.9032 0,-1.2456 2.8427794,-1.7001 3.1651484,-2.9032 0.3223691,-1.2031 -1.9122729,-3.0182 -1.2895037,-4.0968 0.6227691,-1.0787 3.3119653,-0.051 4.1926938,-0.9317 0.8807285,-0.8807 -0.1470056,-3.5699 0.9316621,-4.1927 1.078668,-0.6227 2.893713,1.6119 4.09681,1.2895 1.203098,-0.3223 1.657652,-3.1651 2.90319,-3.1651 1.245538,0 1.700092,2.8428 2.90319,3.1651 1.203097,0.3224 3.018142,-1.9122 4.09681,-1.2895 1.078668,0.6228 0.05093,3.312 0.931662,4.1927 0.880728,0.8807 3.569924,-0.147 4.192693,0.9317 0.622769,1.0787 -1.611873,2.8937 -1.289504,4.0968 0.322369,1.2031 3.165148,1.6576 3.165148,2.9032 0,1.2455 -2.842779,1.7001 -3.165148,2.9032 -0.322369,1.2031 1.912273,3.0181 1.289504,4.0968 -0.622769,1.0787 -3.311966,0.051 -4.192694,0.9316 -0.880729,0.8808 0.147005,3.57 -0.931662,4.1927 z"/><path fill="#622797" d="m 22.999992,1048.4865 c -1.014496,0.586 -2.829695,-1.096 -3.961346,-0.7928 -1.132802,0.3036 -1.865891,2.6683 -3.038654,2.6685 -1.171571,2e-4 -1.902576,-2.3641 -3.034226,-2.6673 -1.132802,-0.3035 -2.950017,1.3778 -3.9657742,0.7916 -1.0147247,-0.5855 -0.465662,-2.9986 -1.2940877,-3.827 -0.8292685,-0.8293 -3.2436879,-0.2818 -3.8302677,-1.2973 -0.5859837,-1.0145 1.096025,-2.8297 0.7928002,-3.9614 -0.3035333,-1.1328 -2.6682151,-1.8659 -2.6684442,-3.0386 -2.289e-4,-1.1716 2.364033,-1.9026 2.667258,-3.0342 0.3035334,-1.1328 -1.3777963,-2.9501 -0.7916133,-3.9658 0.5855872,-1.0147 2.9986002,-0.4657 3.8270261,-1.2941 0.8292686,-0.8293 0.2818019,-3.2437 1.2973298,-3.8303 1.014496,-0.586 2.829695,1.0961 3.961346,0.7928 1.132802,-0.3035 1.865891,-2.6682 3.038654,-2.6684 1.171571,-2e-4 1.902575,2.364 3.034226,2.6672 1.132802,0.3036 2.950017,-1.3778 3.965774,-0.7916 1.014725,0.5856 0.465662,2.9986 1.294088,3.8271 0.829268,0.8292 3.243688,0.2818 3.830267,1.2973 0.585984,1.0145 -1.096025,2.8297 -0.7928,3.9613 0.303533,1.1328 2.668215,1.8659 2.668444,3.0387 2.29e-4,1.1716 -2.364033,1.9026 -2.667258,3.0342 -0.303533,1.1328 1.377797,2.95 0.791614,3.9658 -0.585588,1.0147 -2.998601,0.4656 -3.827026,1.2941 -0.829269,0.8292 -0.281802,3.2437 -1.29733,3.8302 z"/><circle cx="16" cy="1036.362" r="8.69" fill="#f6a119"/><circle cx="16" cy="1036.362" r="8.69" fill="#fc0"/><path fill="#622797" d="m 8.2069247,1032.7062 14.6462423,0 c 1.517973,0 2.740053,0.083 2.740053,0.1893 l 0.939932,1.9002 -1.549312,2.5994 0.60938,2.4341 c 0.02656,0.1029 -1.22208,0.1892 -2.740053,0.1892 l -14.6462423,0 c -1.5180064,0 -2.7400537,-0.083 -2.7400537,-0.1892 l 0,-6.9337 c 0,-0.1063 1.2220473,-0.1893 2.7400537,-0.1893 z"/><path style="line-height:125%;-inkscape-font-specification:'Bebas Neue Bold'" fill="#fc0" d="M 10.279297 13.210938 C 9.4376635 13.210938 8.9785156 13.709231 8.9785156 14.582031 L 8.9785156 17.417969 C 8.9785156 18.290769 9.4376635 18.791016 10.279297 18.791016 C 11.120929 18.791016 11.580078 18.290769 11.580078 17.417969 L 11.580078 14.582031 C 11.580078 13.709231 11.120929 13.210938 10.279297 13.210938 z M 12.138672 13.273438 L 12.138672 18.728516 L 12.994141 18.728516 L 12.994141 16.476562 L 14.101562 16.476562 L 14.101562 15.697266 L 12.994141 15.697266 L 12.994141 14.052734 L 14.40625 14.052734 L 14.40625 13.273438 L 12.138672 13.273438 z M 14.816406 13.273438 L 14.816406 18.728516 L 15.673828 18.728516 L 15.673828 16.476562 L 16.78125 16.476562 L 16.78125 15.697266 L 15.673828 15.697266 L 15.673828 14.052734 L 17.083984 14.052734 L 17.083984 13.273438 L 14.816406 13.273438 z M 17.496094 13.273438 L 17.496094 18.728516 L 19.833984 18.728516 L 19.833984 17.949219 L 18.353516 17.949219 L 18.353516 16.351562 L 19.529297 16.351562 L 19.529297 15.572266 L 18.353516 15.572266 L 18.353516 14.052734 L 19.833984 14.052734 L 19.833984 13.273438 L 17.496094 13.273438 z M 20.357422 13.273438 L 20.357422 18.728516 L 21.214844 18.728516 L 21.214844 16.507812 L 21.509766 16.507812 C 21.899411 16.507812 22.072266 16.694672 22.072266 17.201172 L 22.072266 18.058594 C 22.072266 18.502794 22.101678 18.588316 22.148438 18.728516 L 23.021484 18.728516 C 22.935764 18.525916 22.927734 18.331406 22.927734 18.066406 L 22.927734 17.224609 C 22.927734 16.655709 22.787985 16.2417 22.359375 16.0625 C 22.741227 15.8832 22.919922 15.518131 22.919922 14.957031 L 22.919922 14.527344 C 22.919922 13.685644 22.538781 13.273438 21.650391 13.273438 L 20.357422 13.273438 z M 10.279297 13.990234 C 10.552048 13.990234 10.722656 14.137644 10.722656 14.527344 L 10.722656 17.472656 C 10.722656 17.862256 10.552048 18.011719 10.279297 18.011719 C 10.006545 18.011719 9.8359375 17.862256 9.8359375 17.472656 L 9.8359375 14.527344 C 9.8359375 14.137644 10.006545 13.990234 10.279297 13.990234 z M 21.214844 14.052734 L 21.626953 14.052734 C 21.930876 14.052734 22.064453 14.223581 22.064453 14.613281 L 22.064453 15.150391 C 22.064453 15.586791 21.868337 15.728516 21.548828 15.728516 L 21.214844 15.728516 L 21.214844 14.052734 z " font-family="Bebas Neue" font-size="7.793" font-weight="700" letter-spacing="0" transform="translate(0 1020.362)" word-spacing="0"/><circle cx="16" cy="1036.362" r="10.215" fill="none" stroke="#fc0" stroke-dasharray=".46 .92" stroke-dashoffset=".349" stroke-linecap="round" stroke-linejoin="round" stroke-width=".46"/></g></svg>