<svg xmlns="http://www.w3.org/2000/svg" width="32" height="32" viewBox="0 0 32 32"><g transform="translate(0 -1020.362)"><circle cx="16" cy="1036.362" r="13" fill="#fc0" stroke="#d31206" stroke-dashoffset="1.68" stroke-linecap="round" stroke-linejoin="round" stroke-width="2"/><circle cx="15.984" cy="1036.378" r="10.5" fill="none" stroke="#d31206" stroke-dasharray="1 2" stroke-linecap="round" stroke-linejoin="round"/><path style="line-height:125%;-inkscape-font-specification:'Bebas Neue Bold'" fill="#fff" d="M 9.9277344 10.658203 C 9.0345037 10.658203 8.546875 11.186981 8.546875 12.113281 L 8.546875 15.123047 C 8.546875 16.049347 9.0345037 16.578125 9.9277344 16.578125 C 10.820965 16.578125 11.310547 16.049347 11.310547 15.123047 L 11.310547 12.113281 C 11.310547 11.186981 10.820965 10.658203 9.9277344 10.658203 z M 11.900391 10.722656 L 11.900391 16.513672 L 12.810547 16.513672 L 12.810547 14.123047 L 13.984375 14.123047 L 13.984375 13.294922 L 12.810547 13.294922 L 12.810547 11.550781 L 14.308594 11.550781 L 14.308594 10.722656 L 11.900391 10.722656 z M 14.744141 10.722656 L 14.744141 16.513672 L 15.654297 16.513672 L 15.654297 14.123047 L 16.828125 14.123047 L 16.828125 13.294922 L 15.654297 13.294922 L 15.654297 11.550781 L 17.150391 11.550781 L 17.150391 10.722656 L 14.744141 10.722656 z M 17.587891 10.722656 L 17.587891 16.513672 L 20.068359 16.513672 L 20.068359 15.685547 L 18.496094 15.685547 L 18.496094 13.990234 L 19.746094 13.990234 L 19.746094 13.164062 L 18.496094 13.164062 L 18.496094 11.550781 L 20.068359 11.550781 L 20.068359 10.722656 L 17.587891 10.722656 z M 20.623047 10.722656 L 20.623047 16.513672 L 21.533203 16.513672 L 21.533203 14.15625 L 21.847656 14.15625 C 22.261189 14.15625 22.443359 14.354978 22.443359 14.892578 L 22.443359 15.800781 C 22.443359 16.272281 22.475761 16.364872 22.525391 16.513672 L 23.453125 16.513672 C 23.362145 16.298672 23.353516 16.091747 23.353516 15.810547 L 23.353516 14.916016 C 23.353516 14.312216 23.204886 13.873794 22.75 13.683594 C 23.155263 13.493294 23.345703 13.105266 23.345703 12.509766 L 23.345703 12.054688 C 23.345703 11.161488 22.938948 10.722656 21.996094 10.722656 L 20.623047 10.722656 z M 9.9277344 11.484375 C 10.217208 11.484375 10.400391 11.641187 10.400391 12.054688 L 10.400391 15.181641 C 10.400391 15.595241 10.217208 15.751953 9.9277344 15.751953 C 9.6382615 15.751953 9.4570313 15.595241 9.4570312 15.181641 L 9.4570312 12.054688 C 9.4570312 11.641187 9.6382615 11.484375 9.9277344 11.484375 z M 21.533203 11.550781 L 21.972656 11.550781 C 22.295211 11.550781 22.435547 11.732984 22.435547 12.146484 L 22.435547 12.716797 C 22.435547 13.179897 22.227769 13.328125 21.888672 13.328125 L 21.533203 13.328125 L 21.533203 11.550781 z " font-family="Bebas Neue" font-size="8.271" font-weight="700" letter-spacing="0" transform="translate(0 1020.362)" word-spacing="0"/><path fill="#d31206" fill-rule="evenodd" d="M-177.57711 1242.6244c-.28705 0-.57414.1087-.79404.33-.4398.4395-.43981 1.1481 0 1.5882l.0835.085 1.59829 1.6187 1.59829-1.6187.0835-.085c.43981-.4401.4398-1.1487 0-1.5882-.43979-.4397-1.14825-.4397-1.58806 0l-.0937.093-.0937-.093c-.21991-.2205-.50699-.33-.79404-.33zM-182.40233 1243.0422c-.22087 0-.44178.085-.61099.2534-.33841.3385-.33842.8836 0 1.2221l.0643.063 1.22983 1.2457 1.22984-1.2457.0642-.063c.33842-.3385.33841-.8836 0-1.2221-.33841-.3382-.88354-.3382-1.22197 0l-.0721.073-.0721-.073c-.1692-.168-.3901-.2534-.61098-.2534zM-172.49768 1243.0422c-.22087 0-.44178.085-.61099.2534-.33841.3385-.33842.8836 0 1.2221l.0642.063 1.22983 1.2457 1.22984-1.2457.0642-.063c.33842-.3385.33841-.8836 0-1.2221-.33841-.3382-.88354-.3382-1.22196 0l-.0721.073-.0721-.073c-.16921-.168-.39011-.2534-.61099-.2534z" transform="translate(192.767 -203.199)"/></g></svg>