<svg xmlns="http://www.w3.org/2000/svg" width="32" height="32" viewBox="0 0 32 32"><g transform="translate(0 -1020.362)"><path fill="#df1e49" d="M1.54981 1033.3113l5.8737 0 0 7.3714-5.8737 0 2.10653-3.6859zM30.45019 1033.3113l-5.87373 0 0 7.3714 5.87373 0-2.10656-3.6859z"/><path fill="#ff1e55" d="m 5.86881,1032.0417 0,7.3726 3.99999,0 12.26237,0 3.99999,0 0,-7.3726 -3.99999,0 -12.26237,0 z"/><path style="line-height:125%;-inkscape-font-specification:'Bebas Neue Bold'" fill="#fff" d="M 12.027344 13.464844 C 11.454062 13.464844 11.140625 13.805891 11.140625 14.400391 L 11.140625 16.332031 C 11.140625 16.926631 11.454062 17.265625 12.027344 17.265625 C 12.600626 17.265625 12.914063 16.926631 12.914062 16.332031 L 12.914062 14.400391 C 12.914062 13.805891 12.600626 13.464844 12.027344 13.464844 z M 13.292969 13.507812 L 13.292969 17.222656 L 13.876953 17.222656 L 13.876953 15.689453 L 14.630859 15.689453 L 14.630859 15.158203 L 13.876953 15.158203 L 13.876953 14.039062 L 14.837891 14.039062 L 14.837891 13.507812 L 13.292969 13.507812 z M 15.117188 13.507812 L 15.117188 17.222656 L 15.701172 17.222656 L 15.701172 15.689453 L 16.455078 15.689453 L 16.455078 15.158203 L 15.701172 15.158203 L 15.701172 14.039062 L 16.662109 14.039062 L 16.662109 13.507812 L 15.117188 13.507812 z M 16.941406 13.507812 L 16.941406 17.222656 L 18.535156 17.222656 L 18.535156 16.693359 L 17.525391 16.693359 L 17.525391 15.605469 L 18.328125 15.605469 L 18.328125 15.074219 L 17.525391 15.074219 L 17.525391 14.039062 L 18.535156 14.039062 L 18.535156 13.507812 L 16.941406 13.507812 z M 18.890625 13.507812 L 18.890625 17.222656 L 19.474609 17.222656 L 19.474609 15.710938 L 19.677734 15.710938 C 19.943142 15.710938 20.058594 15.838594 20.058594 16.183594 L 20.058594 16.767578 C 20.058594 17.070178 20.079478 17.127156 20.111328 17.222656 L 20.707031 17.222656 C 20.648641 17.084656 20.642578 16.951984 20.642578 16.771484 L 20.642578 16.199219 C 20.642578 15.811719 20.547805 15.530303 20.255859 15.408203 C 20.515959 15.286103 20.636719 15.036497 20.636719 14.654297 L 20.636719 14.363281 C 20.636719 13.789981 20.376614 13.507812 19.771484 13.507812 L 18.890625 13.507812 z M 12.027344 13.996094 C 12.21313 13.996094 12.330078 14.097881 12.330078 14.363281 L 12.330078 16.369141 C 12.330078 16.634541 12.21313 16.734375 12.027344 16.734375 C 11.841558 16.734375 11.724609 16.634541 11.724609 16.369141 L 11.724609 14.363281 C 11.724609 14.097881 11.841558 13.996094 12.027344 13.996094 z M 19.474609 14.039062 L 19.755859 14.039062 C 19.962877 14.039062 20.052734 14.156475 20.052734 14.421875 L 20.052734 14.787109 C 20.052734 15.084309 19.92076 15.179688 19.703125 15.179688 L 19.474609 15.179688 L 19.474609 14.039062 z " font-family="Bebas Neue" font-weight="700" letter-spacing="0" transform="translate(0 1020.362)" word-spacing="0"/><path fill="#cb1e49" fill-rule="evenodd" d="M7.98824 1034.5543c-.18616 0-.37234.071-.51495.2138-.28522.2852-.28523.7446 0 1.0299l.0541.054 1.03652 1.0498 1.03652-1.0498.0541-.054c.28523-.2853.28522-.7447 0-1.0299-.28521-.2853-.74466-.2853-1.02989 0l-.0608.061-.0608-.061c-.14261-.1426-.32879-.2138-.51494-.2138zM22.70739 1034.5543c-.18616 0-.37234.071-.51495.2138-.28522.2852-.28523.7446 0 1.0299l.0541.054 1.03652 1.0498 1.03652-1.0498.0541-.054c.28523-.2853.28522-.7447 0-1.0299-.28521-.2853-.74466-.2853-1.02989 0l-.0608.061-.0608-.061c-.14261-.1426-.32879-.2138-.51494-.2138z"/></g></svg>