<svg xmlns="http://www.w3.org/2000/svg" width="32" height="32" viewBox="0 0 32 32"><g transform="translate(0 -1020.362)"><path fill="#fc0" d="m 5.5058865,1205.0046 c -0.5549324,0.3204 -2.7080982,-1.4321 -3.3270449,-1.2663 -0.6189469,0.1659 -1.60735709,2.7602 -2.24813809,2.7602 -0.64078077,0 -1.62918971,-2.5943 -2.24813641,-2.7602 -0.6189469,-0.1658 -2.7721138,1.5867 -3.3270464,1.2663 -0.5549325,-0.3203 -0.1137412,-3.0613 -0.5668416,-3.5144 -0.4531005,-0.4531 -3.1940849,-0.012 -3.5144754,-0.5669 -0.3203907,-0.5549 1.4321843,-2.7081 1.266338,-3.327 -0.1658463,-0.619 -2.7602037,-1.6074 -2.7602037,-2.2482 0,-0.6407 2.5943573,-1.6291 2.7602036,-2.2481 0.1658463,-0.6189 -1.5867276,-2.7721 -1.2663373,-3.327 0.3203903,-0.555 3.0613739,-0.1138 3.5144744,-0.5669 0.4531006,-0.4531 0.01191,-3.1941 0.5668429,-3.5145 0.5549324,-0.3203 2.7080982,1.4322 3.3270449,1.2664 0.6189469,-0.1659 1.6073571,-2.7602 2.2481381,-2.7602 0.64078078,0 1.6291897,2.5943 2.2481364,2.7602 0.6189469,0.1658 2.7721138,-1.5867 3.3270464,-1.2664 0.5549325,0.3204 0.1137412,3.0614 0.5668416,3.5145 0.4531006,0.4531 3.1940849,0.012 3.5144754,0.5669 0.3203904,0.5549 -1.4321843,2.7081 -1.266338,3.327 0.1658463,0.619 2.7602036,1.6074 2.7602036,2.2481 0,0.6408 -2.5943571,1.6292 -2.7602034,2.2482 -0.1658464,0.6189 1.5867277,2.7721 1.2663373,3.327 -0.3203904,0.555 -3.061374,0.1138 -3.5144744,0.5669 -0.4531006,0.4531 -0.01191,3.1941 -0.566843,3.5144 z" transform="translate(17.747 -464.474) scale(1.25556)"/><circle cx="17.146" cy="1036.344" r="10.045" fill="#ff9500" transform="rotate(.063)"/><circle cx="17.146" cy="1036.344" r="7.533" fill="#999" transform="rotate(.063)"/><circle cx="17.146" cy="1036.344" r="7.533" fill="#fc0" transform="rotate(.063)"/><path style="line-height:125%;-inkscape-font-specification:'Bebas Neue Bold'" fill="#fff" d="M 10.818359 13.464844 C 10.0555 13.464044 9.6375939 13.915931 9.6367188 14.707031 L 9.6328125 17.279297 C 9.6319374 18.070397 10.049642 18.522637 10.8125 18.523438 C 11.575359 18.524238 11.991312 18.07235 11.992188 17.28125 L 11.996094 14.710938 C 11.996969 13.919838 11.581218 13.465644 10.818359 13.464844 z M 12.501953 13.525391 L 12.496094 18.46875 L 13.273438 18.470703 L 13.275391 16.427734 L 14.279297 16.427734 L 14.279297 15.722656 L 13.277344 15.722656 L 13.277344 14.232422 L 13.277344 14.230469 L 14.556641 14.230469 L 14.556641 13.525391 L 12.501953 13.525391 z M 14.929688 13.527344 L 14.923828 18.472656 L 15.701172 18.472656 L 15.703125 16.431641 L 16.707031 16.431641 L 16.707031 15.724609 L 15.705078 15.724609 L 15.707031 14.234375 L 16.984375 14.234375 L 16.986328 13.527344 L 14.929688 13.527344 z M 17.357422 13.529297 L 17.353516 18.474609 L 19.472656 18.474609 L 19.472656 17.767578 L 18.130859 17.767578 L 18.132812 16.320312 L 19.199219 16.320312 L 19.199219 15.613281 L 18.132812 15.613281 L 18.134766 14.236328 L 19.476562 14.236328 L 19.476562 13.529297 L 17.357422 13.529297 z M 19.951172 13.533203 L 19.947266 18.478516 L 20.722656 18.478516 L 20.724609 16.464844 L 20.994141 16.466797 C 21.347316 16.467197 21.502461 16.636603 21.501953 17.095703 L 21.5 17.873047 C 21.499555 18.275647 21.528073 18.353269 21.570312 18.480469 L 22.361328 18.480469 L 22.361328 18.478516 C 22.283828 18.294716 22.277084 18.119006 22.277344 17.878906 L 22.279297 17.115234 C 22.279867 16.599634 22.151985 16.2254 21.763672 16.0625 C 22.109963 15.9005 22.272875 15.569147 22.273438 15.060547 L 22.275391 14.671875 C 22.276234 13.909075 21.930241 13.534103 21.125 13.533203 L 19.951172 13.533203 z M 10.816406 14.171875 C 11.063629 14.172175 11.219141 14.307056 11.21875 14.660156 L 11.216797 17.330078 C 11.216406 17.683278 11.059723 17.816706 10.8125 17.816406 C 10.565277 17.816106 10.409765 17.681325 10.410156 17.328125 L 10.414062 14.658203 C 10.414452 14.305103 10.569183 14.171575 10.816406 14.171875 z M 20.728516 14.240234 L 21.101562 14.240234 C 21.377039 14.240534 21.498438 14.394947 21.498047 14.748047 L 21.496094 15.236328 C 21.495656 15.631928 21.318901 15.758112 21.029297 15.757812 L 20.726562 15.757812 L 20.728516 14.240234 z " font-family="Bebas Neue" font-size="7.064" font-weight="700" letter-spacing="0" transform="translate(0 1020.362)" word-spacing="0"/></g></svg>