<svg xmlns="http://www.w3.org/2000/svg" width="32" height="32" viewBox="0 0 32 32"><g transform="translate(0 -1020.362)"><path fill="#df1e49" d="M6.30664e-7 1033.5272l5.457957169336 0 0 6.8497-5.457957169336 0 1.957428969336-3.425zM32.000001 1033.5272l-5.457985 0 0 6.8497 5.457985 0-1.957457-3.425z"/><path fill="#ff1e55" d="m 4.0133001,1032.3475 0,6.8508 3.7168691,0 16.5396348,0 3.716869,0 0,-6.8508 -3.716869,0 -16.5396348,0 z"/><path style="line-height:125%;-inkscape-font-specification:'Bebas Neue Bold'" fill="#fff" d="M 12.554688 13.642578 C 12.026915 13.642578 11.755859 13.957366 11.755859 14.509766 C 11.755859 15.496266 12.816406 15.629544 12.816406 16.339844 C 12.816406 16.586444 12.707792 16.675781 12.535156 16.675781 C 12.36252 16.675781 12.253906 16.586244 12.253906 16.339844 L 12.253906 16.09375 L 11.742188 16.09375 L 11.742188 16.306641 C 11.742188 16.859041 12.018077 17.173828 12.550781 17.173828 C 13.083486 17.173828 13.359375 16.859041 13.359375 16.306641 C 13.359375 15.320141 12.298828 15.186862 12.298828 14.476562 C 12.298828 14.229963 12.397679 14.134766 12.570312 14.134766 C 12.742949 14.134766 12.841797 14.230262 12.841797 14.476562 L 12.841797 14.619141 L 13.353516 14.619141 L 13.353516 14.509766 C 13.353516 13.957366 13.08246 13.642578 12.554688 13.642578 z M 14.429688 13.642578 C 13.896983 13.642578 13.621094 13.957366 13.621094 14.509766 L 13.621094 16.306641 C 13.621094 16.859041 13.896983 17.173828 14.429688 17.173828 C 14.962392 17.173828 15.238281 16.859041 15.238281 16.306641 L 15.238281 15.847656 L 14.726562 15.847656 L 14.726562 16.339844 C 14.726562 16.586444 14.617949 16.675781 14.445312 16.675781 C 14.272676 16.675781 14.164062 16.586244 14.164062 16.339844 L 14.164062 14.476562 C 14.164062 14.229963 14.272676 14.134766 14.445312 14.134766 C 14.617949 14.134766 14.726562 14.230262 14.726562 14.476562 L 14.726562 14.845703 L 15.238281 14.845703 L 15.238281 14.509766 C 15.238281 13.957366 14.962391 13.642578 14.429688 13.642578 z M 16.351562 13.642578 C 15.818858 13.642578 15.529297 13.957366 15.529297 14.509766 L 15.529297 16.306641 C 15.529297 16.859041 15.818858 17.173828 16.351562 17.173828 C 16.884266 17.173828 17.175781 16.859041 17.175781 16.306641 L 17.175781 14.509766 C 17.175781 13.957366 16.884266 13.642578 16.351562 13.642578 z M 8.8769531 13.681641 L 8.8769531 17.134766 L 9.7363281 17.134766 C 10.278898 17.134766 10.544922 16.83365 10.544922 16.28125 L 10.544922 14.535156 C 10.544922 13.982756 10.278898 13.681641 9.7363281 13.681641 L 8.8769531 13.681641 z M 10.890625 13.681641 L 10.890625 17.134766 L 11.433594 17.134766 L 11.433594 13.681641 L 10.890625 13.681641 z M 17.503906 13.681641 L 17.503906 16.310547 C 17.503906 16.862947 17.779796 17.179688 18.3125 17.179688 C 18.845205 17.179688 19.121094 16.862947 19.121094 16.310547 L 19.121094 13.681641 L 18.609375 13.681641 L 18.609375 16.345703 C 18.609375 16.592303 18.500761 16.681641 18.328125 16.681641 C 18.155489 16.681641 18.046875 16.592103 18.046875 16.345703 L 18.046875 13.681641 L 17.503906 13.681641 z M 19.488281 13.681641 L 19.488281 17.134766 L 19.976562 17.134766 L 19.976562 14.634766 L 20.652344 17.134766 L 21.210938 17.134766 L 21.210938 13.681641 L 20.726562 13.681641 L 20.726562 15.748047 L 20.169922 13.681641 L 19.488281 13.681641 z M 21.445312 13.681641 L 21.445312 14.175781 L 22.013672 14.175781 L 22.013672 17.134766 L 22.554688 17.134766 L 22.554688 14.175781 L 23.123047 14.175781 L 23.123047 13.681641 L 21.445312 13.681641 z M 16.351562 14.134766 C 16.524197 14.134766 16.632812 14.230262 16.632812 14.476562 L 16.632812 16.339844 C 16.632812 16.586444 16.524197 16.681641 16.351562 16.681641 C 16.178926 16.681641 16.070312 16.586144 16.070312 16.339844 L 16.070312 14.476562 C 16.070312 14.229963 16.178927 14.134766 16.351562 14.134766 z M 9.4199219 14.175781 L 9.7265625 14.175781 C 9.8991983 14.175781 10.001953 14.263366 10.001953 14.509766 L 10.001953 16.306641 C 10.001953 16.553241 9.8991983 16.640625 9.7265625 16.640625 L 9.4199219 16.640625 L 9.4199219 14.175781 z " font-family="Bebas Neue" font-weight="700" letter-spacing="0" transform="translate(0 1020.362)" word-spacing="0"/><path fill="#cb1e49" fill-rule="evenodd" d="M6.0857571 1034.6823c-.1729835 0-.3459949.066-.4785016.1986-.2650413.265-.2650506.6919 0 .957l.050271.05.9631547.9755.9631547-.9755.050271-.05c.2650413-.2651.265032-.692 0-.957-.2650228-.2651-.691962-.2651-.956994 0l-.056497.057-.056496-.057c-.132516-.1325-.3055181-.1986-.4784923-.1986zM24.728225 1034.6823c-.172983 0-.345995.066-.478501.1986-.265042.265-.265051.6919 0 .957l.05027.05.963154.9755.963155-.9755.05027-.05c.265041-.2651.265032-.692 0-.957-.265023-.2651-.691962-.2651-.956994 0l-.0565.057-.0565-.057c-.132516-.1325-.305518-.1986-.478493-.1986z"/></g></svg>