<svg xmlns="http://www.w3.org/2000/svg" width="32" height="32" viewBox="0 0 32 32"><g transform="translate(0 -1020.362)"><path fill="#3477e0" d="m 1.1e-5,1029.0376 21.485422,0 5.85966,7.3246 -5.85966,7.3246 -21.485422,0 z"/><path style="line-height:normal;text-indent:0;text-align:start;text-decoration-line:none;text-decoration-style:solid;text-decoration-color:#000;text-transform:none;block-progression:tb;isolation:auto;mix-blend-mode:normal" fill="#6ac1f7" fill-rule="evenodd" d="m 1.952736,1030.9905 -0.292984,0 0,0.5275 0.585966,0 0,-0.235 0.195335,0 0,-0.586 -0.488304,0 z m 1.07427,0.293 1.171932,0 0,-0.586 -1.171932,0 z m 1.757898,0 1.171932,0 0,-0.586 -1.171932,0 z m 1.757898,0 1.171932,0 0,-0.586 -1.171932,0 z m 1.757898,0 1.171933,0 0,-0.586 -1.171933,0 z m 1.757899,0 1.171932,0 0,-0.586 -1.171932,0 z m 1.757898,0 1.171932,0 0,-0.586 -1.171932,0 z m 1.757898,0 1.171932,0 0,-0.586 -1.171932,0 z m 1.757898,0 1.171932,0 0,-0.586 -1.171932,0 z m 1.757898,0 1.171932,0 0,-0.586 -1.171932,0 z m 1.757898,0 1.171932,0 0,-0.586 -1.171932,0 z m 1.484448,-0.04 0.712927,0.9325 0.46389,-0.3562 -0.708045,-0.9328 z m -18.672785,2.0313 0.585966,0 0,-1.172 -0.585966,0 z m 19.742174,-0.6348 0.712925,0.9326 0.46389,-0.3565 -0.712925,-0.9276 z m 1.064505,1.4014 0.712924,0.9278 0.46389,-0.3566 -0.708042,-0.9278 z m -20.806679,0.9913 0.585966,0 0,-1.1718 -0.585966,0 z m 21.876066,0.4052 0.712927,0.9278 0.46389,-0.3515 -0.712927,-0.9328 z m -21.876066,1.3526 0.585966,0 0,-1.1718 -0.585966,0 z m 21.783289,0.6203 0.46389,0.3515 0.712925,-0.9278 -0.468773,-0.3565 z m -21.783289,1.1378 0.585966,0 0,-1.1721 -0.585966,0 z m 20.713902,0.2587 0.468772,0.3566 0.708042,-0.9328 -0.46389,-0.3565 z m -20.713902,1.4991 0.585966,0 0,-1.172 -0.585966,0 z m 19.649395,-0.1025 0.46389,0.3563 0.712925,-0.9326 -0.468773,-0.3565 z m -1.035206,1.3526 0.175784,0.1325 0,0.337 0.0586,0 0.146482,0 0.0879,-0.1125 0.67386,-0.8888 -0.46389,-0.3565 z m -18.614189,0.175 0,0.293 0.292984,0 0.332046,0 0,-0.586 -0.03908,0 0,-0.5468 -0.585966,0 z m 1.210996,0.293 1.171933,0 0,-0.586 -1.171933,0 z m 1.757899,0 1.171932,0 0,-0.586 -1.171932,0 z m 1.757898,0 1.171932,0 0,-0.586 -1.171932,0 z m 1.757898,0 1.171932,0 0,-0.586 -1.171932,0 z m 1.757898,0 1.171932,0 0,-0.586 -1.171932,0 z m 1.757898,0 1.171932,0 0,-0.586 -1.171932,0 z m 1.757898,0 1.171932,0 0,-0.586 -1.171932,0 z m 1.757898,0 1.171933,0 0,-0.586 -1.171933,0 z m 1.757899,0 1.171932,0 0,-0.586 -1.171932,0 z m 1.757898,0 1.171932,0 0,-0.586 -1.171932,0 z" color="#000" font-family="sans-serif" font-weight="400" overflow="visible" white-space="normal"/><circle cx="21.486" cy="1036.362" r=".977" fill="#f2f2f2"/><path style="line-height:125%;-inkscape-font-specification:'Bebas Neue Bold'" fill="#fc0" d="M 5.7519531 13.089844 C 4.8740632 13.089844 4.3945312 13.611084 4.3945312 14.521484 L 4.3945312 17.480469 C 4.3945312 18.390869 4.8740632 18.910156 5.7519531 18.910156 C 6.6298429 18.910156 7.109375 18.390869 7.109375 17.480469 L 7.109375 14.521484 C 7.109375 13.611084 6.6298429 13.089844 5.7519531 13.089844 z M 7.6914062 13.15625 L 7.6914062 18.845703 L 8.5859375 18.845703 L 8.5859375 16.496094 L 9.7382812 16.496094 L 9.7382812 15.683594 L 8.5859375 15.683594 L 8.5859375 13.96875 L 10.056641 13.96875 L 10.056641 13.15625 L 7.6914062 13.15625 z M 10.484375 13.15625 L 10.484375 18.845703 L 11.378906 18.845703 L 11.378906 16.496094 L 12.533203 16.496094 L 12.533203 15.683594 L 11.378906 15.683594 L 11.378906 13.96875 L 12.849609 13.96875 L 12.849609 13.15625 L 10.484375 13.15625 z M 13.279297 13.15625 L 13.279297 18.845703 L 15.71875 18.845703 L 15.71875 18.033203 L 14.173828 18.033203 L 14.173828 16.365234 L 15.400391 16.365234 L 15.400391 15.552734 L 14.173828 15.552734 L 14.173828 13.96875 L 15.71875 13.96875 L 15.71875 13.15625 L 13.279297 13.15625 z M 16.263672 13.15625 L 16.263672 18.845703 L 17.158203 18.845703 L 17.158203 16.529297 L 17.466797 16.529297 C 17.873228 16.529297 18.052734 16.723653 18.052734 17.251953 L 18.052734 18.146484 C 18.052734 18.609784 18.084042 18.699403 18.132812 18.845703 L 19.044922 18.845703 C 18.955512 18.634403 18.947266 18.430697 18.947266 18.154297 L 18.947266 17.277344 C 18.947266 16.683944 18.800589 16.251453 18.353516 16.064453 C 18.751818 15.877553 18.9375 15.495356 18.9375 14.910156 L 18.9375 14.464844 C 18.9375 13.586944 18.539943 13.15625 17.613281 13.15625 L 16.263672 13.15625 z M 5.7519531 13.902344 C 6.0364544 13.902344 6.2148438 14.058444 6.2148438 14.464844 L 6.2148438 17.537109 C 6.2148438 17.943509 6.0364544 18.097656 5.7519531 18.097656 C 5.4674517 18.097656 5.2890625 17.943509 5.2890625 17.537109 L 5.2890625 14.464844 C 5.2890625 14.058444 5.4674517 13.902344 5.7519531 13.902344 z M 17.158203 13.96875 L 17.589844 13.96875 C 17.90686 13.96875 18.044922 14.146334 18.044922 14.552734 L 18.044922 15.115234 C 18.044922 15.570434 17.841086 15.714844 17.507812 15.714844 L 17.158203 15.714844 L 17.158203 13.96875 z " font-family="Bebas Neue" font-size="8.129" font-weight="700" letter-spacing="0" transform="translate(0 1020.362)" word-spacing="0"/><path style="line-height:normal;text-indent:0;text-align:start;text-decoration-line:none;text-decoration-style:solid;text-decoration-color:#000;text-transform:none;block-progression:tb;isolation:auto;mix-blend-mode:normal" fill="#fc0" fill-rule="evenodd" d="m 24.628603,1032.9571 0.616288,0.7923 c 0,0 0.486936,-0.088 0.620143,0.1475 0.133206,0.2325 0.01475,0.371 0,0.421 -0.0297,0.105 -0.290032,0.4463 -0.727576,0.7275 -0.437541,0.2813 -1.015949,0.527 -1.557693,0.6445 -0.541742,0.1176 -1.039868,0.09 -1.298891,-0.025 -0.761637,-0.3382 -1.269367,0.8041 -0.507837,1.1426 0.644624,0.2873 1.367646,0.255 2.070413,0.1025 0.702767,-0.1525 1.391373,-0.445 1.967871,-0.8155 0.576498,-0.3706 1.072412,-0.7971 1.254944,-1.4356 0.09125,-0.3193 0.06508,-0.71 -0.122081,-1.0253 -0.546992,-0.9485 -1.401564,-0.9395 -2.149557,-0.783 z" color="#000" font-family="sans-serif" font-weight="400" overflow="visible" white-space="normal"/><path style="line-height:normal;text-indent:0;text-align:start;text-decoration-line:none;text-decoration-style:solid;text-decoration-color:#000;text-transform:none;block-progression:tb;isolation:auto;mix-blend-mode:normal" fill="#fc0" fill-rule="evenodd" d="m 28.912057,1033.4076 c -1.009423,0 -2.363398,0.175 -2.363398,0.175 a 0.62509295,0.62509295 0 1 0 0.156258,1.2403 c 0,0 1.354357,-0.165 2.20714,-0.165 0.738772,0 2.290151,0.4053 2.290151,0.4053 a 0.62680008,0.62680008 0 1 0 0.341813,-1.2061 c 0,0 -1.50853,-0.4493 -2.631964,-0.4493 z" color="#000" font-family="sans-serif" font-weight="400" overflow="visible" white-space="normal"/></g></svg>