<svg xmlns="http://www.w3.org/2000/svg" width="32" height="32" viewBox="0 0 32 32"><g transform="translate(0 -1020.362)"><path fill="none" stroke="#cf6b00" stroke-linecap="round" stroke-linejoin="round" stroke-width=".829" d="m 20.1216,1030.1047 c -0.64676,-11.0985 -6.8082,-11.0985 -7.45514,-0.041"/><path fill="#fc0" fill-rule="evenodd" d="m 9.50611,1027.2981 16.02657,0.6127 1.23229,22.1812 -17.25205,1.2708 z"/><circle cx="21.508" cy="1030.261" r=".75" fill="#dedede"/><path fill="#ff8702" fill-rule="evenodd" d="m 9.50835,1027.2959 -1.84503,0.623 -3e-5,20.3293 1.8496,3.0761 z"/><path fill="#ff9d02" fill-rule="evenodd" d="m 5.81605,1027.9108 0,20.9489 1.87511,-0.6161 0,-20.3328"/><path fill="#fc0" fill-rule="evenodd" d="m 5.81605,1048.8597 1.84844,-0.6161 1.88694,3.1192 -3.73538,-2.5031"/><circle cx="14.042" cy="1030.324" r=".75" fill="#dedede"/><path fill="none" stroke="#cf6b00" stroke-linecap="round" stroke-linejoin="round" stroke-width=".829" d="m 21.53867,1030.2688 c -0.64674,-11.0984 -6.8082,-11.0984 -7.45513,-0.041"/><path fill="#ff1e55" fill-rule="evenodd" d="m 16.4345,1032.726 c -0.48544,0 -0.97094,0.1856 -1.34282,0.5576 -0.74376,0.7437 -0.74379,1.9418 0,2.6857 l 0.1412,0.1412 2.70293,2.7375 2.70294,-2.7375 0.1412,-0.1412 c 0.74379,-0.7439 0.74376,-1.942 0,-2.6857 -0.74375,-0.7438 -1.94186,-0.7438 -2.68565,0 l -0.15849,0.1585 -0.15848,-0.1585 c -0.37189,-0.372 -0.85739,-0.5576 -1.34283,-0.5576 z"/><path fill="#df1e49" d="M0 1042.812l5.42189-.6933 0 6.8042-5.42189.6932 1.9445-3.6507zM31.99999 1036.5427l-5.4219.6932 0 6.8042 5.4219-.6933-1.9445-3.1535z"/><path fill="#ff1e55" d="m 3.98678,1041.1304 0,6.8053 3.6923,-0.4721 16.64182,-2.1277 3.69231,-0.4721 0,-6.8053 -3.69231,0.4722 -16.64182,2.1276 -3.6923,0.4721 z"/><path style="line-height:125%;-inkscape-font-specification:'Bebas Neue Bold'" fill="#fff" d="M 25.019531 20.015625 L 23.353516 20.228516 L 23.353516 20.71875 L 23.917969 20.646484 L 23.917969 23.585938 L 24.457031 23.517578 L 24.457031 20.578125 L 25.019531 20.505859 L 25.019531 20.015625 z M 23.121094 20.257812 L 22.640625 20.318359 L 22.640625 22.373047 L 22.085938 20.390625 L 21.410156 20.476562 L 21.410156 23.90625 L 21.894531 23.84375 L 21.894531 21.359375 L 22.566406 23.757812 L 22.566406 23.759766 L 23.121094 23.6875 L 23.121094 20.257812 z M 21.044922 20.523438 L 20.535156 20.587891 L 20.535156 23.234375 C 20.535156 23.479375 20.427353 23.581616 20.255859 23.603516 C 20.084364 23.625516 19.976562 23.552141 19.976562 23.306641 L 19.976562 20.660156 L 19.4375 20.728516 L 19.4375 23.339844 C 19.4375 23.888644 19.713005 24.167209 20.242188 24.099609 C 20.77137 24.031609 21.044922 23.683566 21.044922 23.134766 L 21.044922 20.523438 z M 18.294922 20.835938 C 17.765739 20.903937 17.476563 21.253934 17.476562 21.802734 L 17.476562 23.585938 C 17.476562 24.134738 17.765739 24.41135 18.294922 24.34375 C 18.824105 24.27575 19.113281 23.925753 19.113281 23.376953 L 19.113281 21.59375 C 19.113281 21.04495 18.824105 20.768238 18.294922 20.835938 z M 16.384766 21.080078 C 15.855583 21.148078 15.582031 21.496122 15.582031 22.044922 L 15.582031 23.828125 C 15.582031 24.376925 15.855583 24.655591 16.384766 24.587891 C 16.913949 24.519891 17.1875 24.171847 17.1875 23.623047 L 17.1875 23.167969 L 16.679688 23.232422 L 16.679688 23.722656 C 16.679688 23.967656 16.571886 24.069897 16.400391 24.091797 C 16.228897 24.113797 16.121094 24.040422 16.121094 23.794922 L 16.121094 21.941406 C 16.121094 21.696406 16.228897 21.590359 16.400391 21.568359 C 16.571886 21.546359 16.679688 21.625694 16.679688 21.871094 L 16.679688 22.238281 L 17.1875 22.173828 L 17.1875 21.839844 C 17.1875 21.291044 16.913949 21.012478 16.384766 21.080078 z M 14.523438 21.318359 C 13.999154 21.385359 13.728516 21.734403 13.728516 22.283203 C 13.728516 23.263203 14.783203 23.259244 14.783203 23.964844 C 14.783203 24.209844 14.6754 24.312084 14.503906 24.333984 C 14.332411 24.355984 14.224609 24.282609 14.224609 24.037109 L 14.224609 23.791016 L 13.714844 23.857422 L 13.714844 24.068359 C 13.714844 24.617159 13.988395 24.895825 14.517578 24.828125 C 15.046761 24.760125 15.320312 24.410128 15.320312 23.861328 C 15.320312 22.881328 14.267578 22.885288 14.267578 22.179688 C 14.267578 21.934688 14.365618 21.828541 14.537109 21.806641 C 14.708604 21.784641 14.806641 21.864675 14.806641 22.109375 L 14.806641 22.251953 L 15.316406 22.1875 L 15.316406 22.080078 C 15.316406 21.531278 15.04772 21.251359 14.523438 21.318359 z M 18.294922 21.326172 C 18.466417 21.304172 18.574219 21.383506 18.574219 21.628906 L 18.574219 23.480469 C 18.574219 23.725469 18.466417 23.833469 18.294922 23.855469 C 18.123428 23.877469 18.015625 23.798134 18.015625 23.552734 L 18.015625 21.699219 C 18.015625 21.454219 18.123428 21.348072 18.294922 21.326172 z M 13.408203 21.5 L 12.869141 21.568359 L 12.869141 24.998047 L 13.408203 24.929688 L 13.408203 21.5 z M 11.720703 21.714844 L 10.869141 21.824219 L 10.869141 25.253906 L 11.720703 25.146484 C 12.259685 25.077484 12.525391 24.744113 12.525391 24.195312 L 12.525391 22.460938 C 12.525391 21.912137 12.259685 21.645944 11.720703 21.714844 z M 11.710938 22.207031 C 11.882431 22.185031 11.986328 22.260759 11.986328 22.505859 L 11.986328 24.289062 C 11.986328 24.534062 11.882431 24.63425 11.710938 24.65625 L 11.408203 24.695312 L 11.408203 22.246094 L 11.710938 22.207031 z " font-family="Bebas Neue" font-weight="700" letter-spacing="0" transform="translate(0 1020.362)" word-spacing="0"/></g></svg>