<svg xmlns="http://www.w3.org/2000/svg" width="32" height="32" viewBox="0 0 32 32"><g transform="translate(0 -1020.362)"><path fill="#ff1e55" d="m 6.73545,1029.6052 18.5291,0 -1.46145,22.7569 -16.52535,0 z"/><circle cx="16" cy="1033.872" r="1.422" fill="#f2f2f2"/><path style="line-height:normal;text-indent:0;text-align:start;text-decoration-line:none;text-decoration-style:solid;text-decoration-color:#000;text-transform:none;block-progression:tb;isolation:auto;mix-blend-mode:normal" fill="#fc0" fill-rule="evenodd" d="m 15.71262,1020.3621 a 0.426734,0.426734 0 0 0 -0.42501,0.4307 c -0.0395,4.0621 0.22901,9.1404 0.2,11.8978 a 0.426734,0.426734 0 1 0 0.85283,0.014 c 0.0297,-2.8232 -0.23904,-7.8806 -0.20002,-11.898 a 0.426734,0.426734 0 0 0 -0.4278,-0.439 z" color="#000" font-family="sans-serif" font-weight="400" overflow="visible" white-space="normal"/><path style="line-height:normal;text-indent:0;text-align:start;text-decoration-line:none;text-decoration-style:solid;text-decoration-color:#000;text-transform:none;block-progression:tb;isolation:auto;mix-blend-mode:normal" fill="#fc0" fill-rule="evenodd" d="M16.68768 1029.1738a.426734.426734 0 0 0-.29723.7334l1.42231 1.4223a.426734.426734 0 1 0 .6028-.6029l-1.42231-1.4223a.426734.426734 0 0 0-.30557-.1309zM14.94037 1027.8709c-.8104-.331-1.60517-.2046-2.09735.1722-.2461.1885-.43393.4698-.41669.8001.0171.3282.25111.6157.58892.8056.81966.4757 1.73014.3473 2.5946.055a.35561166.35561166 0 0 0 .21946-.075.35561166.35561166 0 0 0 .0195-.014.35561166.35561166 0 0 0 .009-.014.35561166.35561166 0 0 0 .0166-.017.35561166.35561166 0 0 0 .009-.014.35561166.35561166 0 0 0 .0142-.017.35561166.35561166 0 0 0 .009-.014.35561166.35561166 0 0 0 .0142-.02.35561166.35561166 0 0 0 .006-.014.35561166.35561166 0 0 0 .0114-.02.35561166.35561166 0 0 0 .006-.014.35561166.35561166 0 0 0 .009-.023.35561166.35561166 0 0 0 .006-.014.35561166.35561166 0 0 0 .006-.023.35561166.35561166 0 0 0-.0277-.2638c-.01-.2341-.0128-.4675-.14724-.6724-.16874-.2565-.43029-.4212-.8167-.6195a.35561166.35561166 0 0 0-.0277-.014zm-.27502.6584c.32393.1694.47568.2888.52503.3639.0128.02.01.091.0195.1167-.6824.2029-1.31488.3325-1.84177.026a.35561166.35561166 0 0 0-.006 0c-.20932-.1167-.2234-.194-.22501-.2251-.001-.031.0182-.1052.13896-.1971.24007-.1839.80282-.3156 1.38898-.081z" color="#000" font-family="sans-serif" font-weight="400" overflow="visible" white-space="normal"/><path style="line-height:normal;text-indent:0;text-align:start;text-decoration-line:none;text-decoration-style:solid;text-decoration-color:#000;text-transform:none;block-progression:tb;isolation:auto;mix-blend-mode:normal" fill="#fc0" fill-rule="evenodd" d="m 16.95993,1027.821 a 0.35561166,0.35561166 0 0 0 -0.0277,0.014 c -0.3973,0.2049 -0.66446,0.3739 -0.83616,0.6362 -0.13853,0.2115 -0.14309,0.451 -0.15279,0.6945 a 0.35561166,0.35561166 0 0 0 -0.0222,0.2722 0.35561166,0.35561166 0 0 0 0.006,0.023 0.35561166,0.35561166 0 0 0 0.006,0.014 0.35561166,0.35561166 0 0 0 0.0114,0.031 0.35561166,0.35561166 0 0 0 0.006,0.014 0.35561166,0.35561166 0 0 0 0.0142,0.023 0.35561166,0.35561166 0 0 0 0.003,0 0.35561166,0.35561166 0 0 0 0.0142,0.017 0.35561166,0.35561166 0 0 0 0.009,0.014 0.35561166,0.35561166 0 0 0 0.0142,0.017 0.35561166,0.35561166 0 0 0 0.0222,0.023 0.35561166,0.35561166 0 0 0 0.006,0 0.35561166,0.35561166 0 0 0 0.009,0 0.35561166,0.35561166 0 0 0 0.21946,0.081 c 0.89216,0.3043 1.83106,0.4418 2.67516,-0.05 7.5e-4,-5e-4 -7.7e-4,0 0,0 0.34815,-0.1955 0.58541,-0.49 0.6028,-0.8251 0.0175,-0.3358 -0.17355,-0.6206 -0.42501,-0.814 -0.50294,-0.3867 -1.31878,-0.5216 -2.15013,-0.1805 z m 0.27779,0.6583 c 0.60652,-0.2445 1.18802,-0.1066 1.43897,0.087 0.12616,0.097 0.1492,0.1761 0.14722,0.2139 -0.001,0.038 -0.0215,0.1223 -0.23889,0.2445 a 0.35561166,0.35561166 0 0 0 -0.006,0 c -0.54822,0.3214 -1.20294,0.1882 -1.91122,-0.024 0.01,-0.033 0.006,-0.1138 0.0222,-0.1394 0.0529,-0.081 0.21205,-0.2073 0.54726,-0.3833 z" color="#000" font-family="sans-serif" font-weight="400" overflow="visible" white-space="normal"/><path style="line-height:normal;text-indent:0;text-align:start;text-decoration-line:none;text-decoration-style:solid;text-decoration-color:#000;text-transform:none;block-progression:tb;isolation:auto;mix-blend-mode:normal" fill="#e20c45" fill-rule="evenodd" d="M21.24628 1039.866c-.18895 0-.37652.074-.51948.2168-.28648.2864-.28649.7551 0 1.0417l.0417.041.91951.9333.92226-.9333.0417-.041c.28651-.2866.28648-.7553 0-1.0417-.24296-.2431-.60047-.1691-.88338 0-.14327-.1432-.33392-.2168-.52226-.2168zm0 .3556c.0976 0 .19369.038.26946.1138l.17224.1722.175-.1722c.15162-.1492.38819-.1508.53893 0 .15153.1516.15153.3874 0 .5389l-.0417.041-.66948.6779-.67226-.6779-.0417-.041c-.15154-.1515-.15153-.3873 0-.5389.0761-.075.17249-.1138.26946-.1138zM8.44554 1041.2883c-.18895 0-.37652.074-.51948.2168-.28648.2864-.28649.7551 0 1.0417l.0417.041.91951.9333.92227-.9333.0417-.041c.28651-.2866.28648-.7553 0-1.0417-.24296-.2431-.60047-.1691-.88338 0-.14327-.1432-.33391-.2168-.52226-.2168zm0 .3556c.0976 0 .19369.038.26946.1138l.17224.1722.175-.1722c.15162-.1492.38819-.1508.53893 0 .15153.1516.15153.3874 0 .5389l-.0417.041-.66948.6779-.67226-.6779-.0417-.041c-.15154-.1515-.15153-.3873 0-.5389.0761-.075.17249-.1138.26946-.1138zM15.55707 1038.7494c-.18896 0-.37653.075-.51949.2166-.28648.2866-.28649.7552 0 1.0417l0 0 .0417.038.9195.9334.92227-.9334.0417-.038 0 0c.28651-.2865.28648-.7551 0-1.0417-.24296-.2429-.60047-.1691-.88338 0-.14327-.1432-.33391-.2166-.52225-.2166zm0 .3555c.0976 0 .19369.038.26945.1138l.17224.1721.175-.1721c.15162-.1493.38819-.1507.53893 0 .15153.1515.15153.3873 0 .5389l-.0417.041-.66947.6777-.67227-.6777-.0417-.041c-.15155-.1516-.15154-.3874 0-.5389.0761-.075.17248-.1138.26945-.1138z" color="#000" font-family="sans-serif" font-weight="400" overflow="visible" white-space="normal"/><path style="line-height:125%;-inkscape-font-specification:'Bebas Neue Bold'" fill="#fff" d="M 10.175781 17.78125 C 9.3188474 17.78125 8.8496094 18.289134 8.8496094 19.177734 L 8.8496094 22.066406 C 8.8496094 22.955106 9.3188473 23.462891 10.175781 23.462891 C 11.032716 23.462891 11.5 22.955106 11.5 22.066406 L 11.5 19.177734 C 11.5 18.289134 11.032716 17.78125 10.175781 17.78125 z M 12.068359 17.84375 L 12.068359 23.398438 L 12.939453 23.398438 L 12.939453 21.105469 L 14.066406 21.105469 L 14.066406 20.3125 L 12.939453 20.3125 L 12.939453 18.638672 L 14.376953 18.638672 L 14.376953 17.84375 L 12.068359 17.84375 z M 14.794922 17.84375 L 14.794922 23.398438 L 15.667969 23.398438 L 15.667969 21.105469 L 16.794922 21.105469 L 16.794922 20.3125 L 15.667969 20.3125 L 15.667969 18.638672 L 17.103516 18.638672 L 17.103516 17.84375 L 14.794922 17.84375 z M 17.523438 17.84375 L 17.523438 23.398438 L 19.902344 23.398438 L 19.902344 22.605469 L 18.394531 22.605469 L 18.394531 20.978516 L 19.59375 20.978516 L 19.59375 20.185547 L 18.394531 20.185547 L 18.394531 18.638672 L 19.902344 18.638672 L 19.902344 17.84375 L 17.523438 17.84375 z M 20.435547 17.84375 L 20.435547 23.398438 L 21.308594 23.398438 L 21.308594 21.136719 L 21.611328 21.136719 C 22.008057 21.136719 22.181641 21.32795 22.181641 21.84375 L 22.181641 22.716797 C 22.181641 23.168997 22.214109 23.255638 22.261719 23.398438 L 23.150391 23.398438 C 23.063111 23.192137 23.054688 22.994409 23.054688 22.724609 L 23.054688 21.867188 C 23.054688 21.287887 22.911011 20.868047 22.474609 20.685547 C 22.863404 20.503047 23.046875 20.129894 23.046875 19.558594 L 23.046875 19.121094 C 23.046875 18.264194 22.658448 17.84375 21.753906 17.84375 L 20.435547 17.84375 z M 10.175781 18.574219 C 10.453492 18.574219 10.626953 18.724394 10.626953 19.121094 L 10.626953 22.121094 C 10.626953 22.517794 10.453492 22.667969 10.175781 22.667969 C 9.8980715 22.667969 9.7226562 22.517794 9.7226562 22.121094 L 9.7226562 19.121094 C 9.7226562 18.724394 9.8980716 18.574219 10.175781 18.574219 z M 21.308594 18.638672 L 21.728516 18.638672 C 22.037965 18.638672 22.173828 18.812284 22.173828 19.208984 L 22.173828 19.755859 C 22.173828 20.200159 21.975709 20.34375 21.650391 20.34375 L 21.308594 20.34375 L 21.308594 18.638672 z " font-family="Bebas Neue" font-size="7.935" font-weight="700" letter-spacing="0" transform="translate(0 1020.362)" word-spacing="0"/><path style="line-height:normal;text-indent:0;text-align:start;text-decoration-line:none;text-decoration-style:solid;text-decoration-color:#000;text-transform:none;block-progression:tb;isolation:auto;mix-blend-mode:normal" fill="#e20c45" fill-rule="evenodd" d="M11.29015 1034.1768c-.18895 0-.37652.074-.51948.2168-.28648.2864-.28649.7551 0 1.0417l.0417.041.91951.9333.92226-.9333.0417-.041c.28651-.2866.28648-.7553 0-1.0417-.24296-.2431-.60047-.1691-.88338 0-.14327-.1433-.33392-.2168-.52226-.2168zm0 .3556c.0976 0 .19369.038.26946.1138l.17224.1722.175-.1722c.15162-.1492.38819-.1508.53892 0 .15154.1516.15154.3874 0 .5389l-.0417.041-.66948.6779-.67226-.6779-.0417-.041c-.15154-.1515-.15153-.3873 0-.5389.0761-.075.17249-.1138.26946-.1138zM18.40167 1035.9048c-.18895 0-.37652.075-.51948.2166-.28648.2866-.28649.7552 0 1.0417l0 0 .0417.038.9195.9334.92227-.9334.0417-.038 0 0c.28651-.2865.28648-.7551 0-1.0417-.24296-.243-.60047-.1691-.88338 0-.14327-.1432-.33391-.2166-.52226-.2166zm0 .3555c.0976 0 .19369.038.26946.1138l.17224.1721.175-.1721c.15162-.1493.38819-.1507.53893 0 .15153.1515.15153.3873 0 .5389l-.0417.041-.66948.6777-.67226-.6777-.0417-.041c-.15154-.1516-.15153-.3874 0-.5389.0761-.075.17249-.1138.26946-.1138zM12.71246 1044.4386c-.18896 0-.37653.075-.51949.2166-.28648.2866-.28649.7552 0 1.0417l0 0 .0417.038.9195.9335.92227-.9335.0417-.038 0 0c.28651-.2865.28648-.7551 0-1.0417-.24296-.2429-.60047-.1691-.88338 0-.14327-.1432-.33391-.2166-.52225-.2166zm0 .3556c.0976 0 .19369.038.26945.1137l.17224.1721.175-.1721c.15162-.1493.38819-.1507.53893 0 .15153.1515.15153.3873 0 .539l-.0417.041-.66948.6777-.67227-.6777-.0417-.041c-.15155-.1517-.15154-.3875 0-.539.0761-.075.17248-.1137.26945-.1137zM16.97937 1047.3832c-.18895 0-.37653.075-.51948.2166-.28648.2866-.2865.7552 0 1.0418l.0417.041.91951.9334.92226-.9334.0417-.041c.2865-.2866.28648-.7552 0-1.0418-.24296-.2429-.60047-.1691-.88338 0-.14327-.1432-.33392-.2166-.52226-.2166zm0 .3556c.0976 0 .19369.038.26946.1137l.17224.1723.175-.1723c.15161-.1492.38819-.1507.53892 0 .15153.1515.15153.3873 0 .539l-.0417.041-.66948.6777-.67227-.6777-.0417-.041c-.15155-.1517-.15153-.3875 0-.539.0761-.075.17248-.1137.26946-.1137zM9.86785 1048.7055c-.18896 0-.37653.075-.51948.2166-.28648.2866-.2865.7553 0 1.0417l0 0 .0417.038.9195.9335.92227-.9335.0417-.038 0 0c.28651-.2864.28648-.7551 0-1.0417-.24295-.2429-.60047-.1691-.88338 0-.14326-.1432-.33391-.2166-.52225-.2166zm0 .3556c.0976 0 .19369.038.26945.1138l.17224.1721.17501-.1721c.15161-.1494.38818-.1508.53892 0 .15153.1514.15153.3873 0 .5389l-.0417.041-.66948.6777-.67227-.6777-.0417-.041c-.15155-.1516-.15153-.3875 0-.5389.0761-.075.17248-.1138.26945-.1138zM21.24628 1045.5552c-.18895 0-.37652.074-.51948.2168-.28648.2865-.28649.7551 0 1.0417l.0417.041.91951.9334.92226-.9334.0417-.041c.28651-.2866.28648-.7552 0-1.0417-.24296-.2431-.60047-.1691-.88338 0-.14327-.1432-.33392-.2168-.52226-.2168zm0 .3556c.0976 0 .19369.038.26946.1138l.17224.1722.175-.1722c.15162-.1492.38819-.1508.53893 0 .15153.1516.15153.3874 0 .5389l-.0417.041-.66948.6778-.67226-.6778-.0417-.041c-.15154-.1515-.15153-.3873 0-.5389.0761-.075.17249-.1138.26946-.1138zM21.24628 1032.449c-.18895 0-.37652.075-.51948.2166-.28648.2866-.28649.7552 0 1.0418l.0417.041.91951.9334.92226-.9334.0417-.041c.28651-.2866.28648-.7552 0-1.0418-.24296-.2429-.60047-.1691-.88338 0-.14327-.1432-.33392-.2166-.52226-.2166zm0 .3556c.0976 0 .19369.038.26946.1137l.17224.1723.175-.1723c.15162-.1492.38819-.1507.53893 0 .15153.1515.15153.3873 0 .539l-.0417.041-.66948.6777-.67226-.6777-.0417-.041c-.15154-.1517-.15153-.3875 0-.539.0761-.075.17249-.1137.26946-.1137zM8.44554 1031.6378c-.18895 0-.37652.075-.51948.2167-.28648.2866-.28649.7552 0 1.0417l0 0 .0417.038.91951.9334.92227-.9334.0417-.038 0 0c.28651-.2865.28648-.7551 0-1.0417-.24296-.243-.60047-.1691-.88338 0-.14327-.1433-.33391-.2167-.52226-.2167zm0 .3556c.0976 0 .19369.038.26946.1138l.17224.1721.175-.1721c.15162-.1493.38819-.1508.53893 0 .15153.1515.15153.3873 0 .5389l-.0417.041-.66948.6777-.67226-.6777-.0417-.041c-.15154-.1516-.15153-.3874 0-.5389.0761-.075.17249-.1138.26946-.1138z" color="#000" font-family="sans-serif" font-weight="400" overflow="visible" white-space="normal"/></g></svg>