<svg xmlns="http://www.w3.org/2000/svg" width="32" height="32" viewBox="0 0 32 32"><g transform="translate(0 -1020.362)"><rect width="30" height="8.052" y="1032.336" fill="#ff1e55" fill-rule="evenodd" rx=".452" ry=".452"/><path fill="#fff" d="M.8 1033.1621c-.11046 0-.2.09-.2.2 0 .1104.0895.2.2.2.11046 0 .2-.09.2-.2 0-.1104-.0895-.2-.2-.2zm.841187 0c-.1104599 0-.2.09-.2.2 0 .1104.089501.2.2.2.1104599 0 .2-.09.2-.2 0-.1104-.089501-.2-.2-.2zm.841187 0c-.1104598 0-.2.09-.2.2 0 .1104.089502.2.2.2.1104598 0 .2-.09.2-.2 0-.1104-.089502-.2-.2-.2zm.841187 0c-.1104596 0-.2.09-.2.2 0 .1104.089504.2.2.2.1104596 0 .2-.09.2-.2 0-.1104-.089503-.2-.2-.2zm.841187 0c-.1104595 0-.2.09-.2.2 0 .1104.089505.2.2.2.1104595 0 .2-.09.2-.2 0-.1104-.089505-.2-.2-.2zm.841187 0c-.1104594 0-.2.09-.2.2 0 .1104.089506.2.2.2.1104594 0 .2-.09.2-.2 0-.1104-.089506-.2-.2-.2zm.841187 0c-.1104593 0-.2.09-.2.2 0 .1104.089507.2.2.2.1104593 0 .2-.09.2-.2 0-.1104-.089507-.2-.2-.2zm.841187 0c-.1104592 0-.2.09-.2.2 0 .1104.089508.2.2.2.1104592 0 .2-.09.2-.2 0-.1104-.089508-.2-.2-.2zm.841187 0c-.1104591 0-.2.09-.2.2 0 .1104.089509.2.2.2.1104591 0 .2-.09.2-.2 0-.1104-.089509-.2-.2-.2zm.841187 0c-.1104589 0-.2.09-.2.2 0 .1104.089511.2.2.2.1104589 0 .2-.09.2-.2 0-.1104-.089511-.2-.2-.2zm.841187 0c-.1104588 0-.2.09-.2.2 0 .1104.089512.2.2.2.1104588 0 .2-.09.2-.2 0-.1104-.089512-.2-.2-.2zm.841187 0c-.1104587 0-.2.09-.2.2 0 .1104.089513.2.2.2.110459 0 .2-.09.2-.2 0-.1104-.08951-.2-.2-.2zm.841187 0c-.110459 0-.2.09-.2.2 0 .1104.08951.2.2.2.110459 0 .2-.09.2-.2 0-.1104-.08951-.2-.2-.2zm.841187 0c-.110458 0-.2.09-.2.2 0 .1104.08951.2.2.2.110458 0 .2-.09.2-.2 0-.1104-.08951-.2-.2-.2zm.841187 0c-.110458 0-.2.09-.2.2 0 .1104.08952.2.2.2.110458 0 .2-.09.2-.2 0-.1104-.08952-.2-.2-.2zm.841187 0c-.110458 0-.2.09-.2.2 0 .1104.08952.2.2.2.110458 0 .2-.09.2-.2 0-.1104-.08952-.2-.2-.2zm.841187 0c-.110458 0-.2.09-.2.2 0 .1104.08952.2.2.2.110458 0 .2-.09.2-.2 0-.1104-.08952-.2-.2-.2zm.841187 0c-.110458 0-.2.09-.2.2 0 .1104.08952.2.2.2.110458 0 .2-.09.2-.2 0-.1104-.08952-.2-.2-.2zm.841187 0c-.110458 0-.2.09-.2.2 0 .1104.08952.2.2.2.110458 0 .2-.09.2-.2 0-.1104-.08952-.2-.2-.2zm.841187 0c-.110458 0-.2.09-.2.2 0 .1104.08952.2.2.2.110458 0 .2-.09.2-.2 0-.1104-.08952-.2-.2-.2zm.841187 0c-.110458 0-.2.09-.2.2 0 .1104.08952.2.2.2.110458 0 .2-.09.2-.2 0-.1104-.08952-.2-.2-.2zm.841187 0c-.110458 0-.2.09-.2.2 0 .1104.08952.2.2.2.110458 0 .2-.09.2-.2 0-.1104-.08952-.2-.2-.2zm.841187 0c-.110457 0-.2.09-.2.2 0 .1104.08953.2.2.2.110457 0 .2-.09.2-.2 0-.1104-.08953-.2-.2-.2zm.841187 0c-.110457 0-.2.09-.2.2 0 .1104.08953.2.2.2.110457 0 .2-.09.2-.2 0-.1104-.08953-.2-.2-.2zm.841187 0c-.110457 0-.2.09-.2.2 0 .1104.08953.2.2.2.110457 0 .2-.09.2-.2 0-.1104-.08953-.2-.2-.2zm.841187 0c-.110457 0-.2.09-.2.2 0 .1104.08953.2.2.2.110457 0 .2-.09.2-.2 0-.1104-.08953-.2-.2-.2zm.841187 0c-.110457 0-.2.09-.2.2 0 .1104.08953.2.2.2.110457 0 .2-.09.2-.2 0-.1104-.08953-.2-.2-.2zm.841187 0c-.110457 0-.2.09-.2.2 0 .1104.08953.2.2.2.110457 0 .2-.09.2-.2 0-.1104-.08953-.2-.2-.2zm.841187 0c-.110457 0-.2.09-.2.2 0 .1104.08953.2.2.2.110457 0 .2-.09.2-.2 0-.1104-.08953-.2-.2-.2zm.841187 0c-.110457 0-.2.09-.2.2 0 .1104.08953.2.2.2.110457 0 .2-.09.2-.2 0-.1104-.08953-.2-.2-.2zm.841187 0c-.110456 0-.2.09-.2.2 0 .1104.08954.2.2.2.110456 0 .2-.09.2-.2 0-.1104-.08954-.2-.2-.2zm.841187 0c-.110456 0-.2.09-.2.2 0 .1104.08954.2.2.2.110456 0 .2-.09.2-.2 0-.1104-.08954-.2-.2-.2zm.841187 0c-.110456 0-.2.09-.2.2 0 .1104.08954.2.2.2.110456 0 .2-.09.2-.2 0-.1104-.08954-.2-.2-.2zm.841187 0c-.110456 0-.2.09-.2.2 0 .1104.08954.2.2.2.110456 0 .2-.09.2-.2 0-.1104-.08954-.2-.2-.2zm.841187 0c-.110456 0-.2.09-.2.2 0 .1104.08954.2.2.2.110456 0 .2-.09.2-.2 0-.1104-.08954-.2-.2-.2zM.8 1039.1651c-.11046 0-.2.089-.2.2 0 .1105.0895.2.2.2.11046 0 .2-.09.2-.2 0-.1105-.0895-.2-.2-.2zm.841187 0c-.1104599 0-.2.089-.2.2 0 .1105.089501.2.2.2.1104599 0 .2-.09.2-.2 0-.1105-.089501-.2-.2-.2zm.841187 0c-.1104598 0-.2.089-.2.2 0 .1105.089502.2.2.2.1104598 0 .2-.09.2-.2 0-.1105-.089502-.2-.2-.2zm.841187 0c-.1104596 0-.2.089-.2.2 0 .1105.089504.2.2.2.1104596 0 .2-.09.2-.2 0-.1105-.089503-.2-.2-.2zm.841187 0c-.1104595 0-.2.089-.2.2 0 .1105.089505.2.2.2.1104595 0 .2-.09.2-.2 0-.1105-.089505-.2-.2-.2zm.841187 0c-.1104594 0-.2.089-.2.2 0 .1105.089506.2.2.2.1104594 0 .2-.09.2-.2 0-.1105-.089506-.2-.2-.2zm.841187 0c-.1104593 0-.2.089-.2.2 0 .1105.089507.2.2.2.1104593 0 .2-.09.2-.2 0-.1105-.089507-.2-.2-.2zm.841187 0c-.1104592 0-.2.089-.2.2 0 .1105.089508.2.2.2.1104592 0 .2-.09.2-.2 0-.1105-.089508-.2-.2-.2zm.841187 0c-.1104591 0-.2.089-.2.2 0 .1105.089509.2.2.2.1104591 0 .2-.09.2-.2 0-.1105-.089509-.2-.2-.2zm.841187 0c-.1104589 0-.2.089-.2.2 0 .1105.089511.2.2.2.1104589 0 .2-.09.2-.2 0-.1105-.089511-.2-.2-.2zm.841187 0c-.1104588 0-.2.089-.2.2 0 .1105.089512.2.2.2.1104588 0 .2-.09.2-.2 0-.1105-.089512-.2-.2-.2zm.841187 0c-.1104587 0-.2.089-.2.2 0 .1105.089513.2.2.2.110459 0 .2-.09.2-.2 0-.1105-.08951-.2-.2-.2zm.841187 0c-.110459 0-.2.089-.2.2 0 .1105.08951.2.2.2.110459 0 .2-.09.2-.2 0-.1105-.08951-.2-.2-.2zm.841187 0c-.110458 0-.2.089-.2.2 0 .1105.08951.2.2.2.110458 0 .2-.09.2-.2 0-.1105-.08951-.2-.2-.2zm.841187 0c-.110458 0-.2.089-.2.2 0 .1105.08952.2.2.2.110458 0 .2-.09.2-.2 0-.1105-.08952-.2-.2-.2zm.841187 0c-.110458 0-.2.089-.2.2 0 .1105.08952.2.2.2.110458 0 .2-.09.2-.2 0-.1105-.08952-.2-.2-.2zm.841187 0c-.110458 0-.2.089-.2.2 0 .1105.08952.2.2.2.110458 0 .2-.09.2-.2 0-.1105-.08952-.2-.2-.2zm.841187 0c-.110458 0-.2.089-.2.2 0 .1105.08952.2.2.2.110458 0 .2-.09.2-.2 0-.1105-.08952-.2-.2-.2zm.841187 0c-.110458 0-.2.089-.2.2 0 .1105.08952.2.2.2.110458 0 .2-.09.2-.2 0-.1105-.08952-.2-.2-.2zm.841187 0c-.110458 0-.2.089-.2.2 0 .1105.08952.2.2.2.110458 0 .2-.09.2-.2 0-.1105-.08952-.2-.2-.2zm.841187 0c-.110458 0-.2.089-.2.2 0 .1105.08952.2.2.2.110458 0 .2-.09.2-.2 0-.1105-.08952-.2-.2-.2zm.841187 0c-.110458 0-.2.089-.2.2 0 .1105.08952.2.2.2.110458 0 .2-.09.2-.2 0-.1105-.08952-.2-.2-.2zm.841187 0c-.110457 0-.2.089-.2.2 0 .1105.08953.2.2.2.110457 0 .2-.09.2-.2 0-.1105-.08953-.2-.2-.2zm.841187 0c-.110457 0-.2.089-.2.2 0 .1105.08953.2.2.2.110457 0 .2-.09.2-.2 0-.1105-.08953-.2-.2-.2zm.841187 0c-.110457 0-.2.089-.2.2 0 .1105.08953.2.2.2.110457 0 .2-.09.2-.2 0-.1105-.08953-.2-.2-.2zm.841187 0c-.110457 0-.2.089-.2.2 0 .1105.08953.2.2.2.110457 0 .2-.09.2-.2 0-.1105-.08953-.2-.2-.2zm.841187 0c-.110457 0-.2.089-.2.2 0 .1105.08953.2.2.2.110457 0 .2-.09.2-.2 0-.1105-.08953-.2-.2-.2zm.841187 0c-.110457 0-.2.089-.2.2 0 .1105.08953.2.2.2.110457 0 .2-.09.2-.2 0-.1105-.08953-.2-.2-.2zm.841187 0c-.110457 0-.2.089-.2.2 0 .1105.08953.2.2.2.110457 0 .2-.09.2-.2 0-.1105-.08953-.2-.2-.2zm.841187 0c-.110457 0-.2.089-.2.2 0 .1105.08953.2.2.2.110457 0 .2-.09.2-.2 0-.1105-.08953-.2-.2-.2zm.841187 0c-.110456 0-.2.089-.2.2 0 .1105.08954.2.2.2.110456 0 .2-.09.2-.2 0-.1105-.08954-.2-.2-.2zm.841187 0c-.110456 0-.2.089-.2.2 0 .1105.08954.2.2.2.110456 0 .2-.09.2-.2 0-.1105-.08954-.2-.2-.2zm.841187 0c-.110456 0-.2.089-.2.2 0 .1105.08954.2.2.2.110456 0 .2-.09.2-.2 0-.1105-.08954-.2-.2-.2zm.841187 0c-.110456 0-.2.089-.2.2 0 .1105.08954.2.2.2.110456 0 .2-.09.2-.2 0-.1105-.08954-.2-.2-.2zm.841187 0c-.110456 0-.2.089-.2.2 0 .1105.08954.2.2.2.110456 0 .2-.09.2-.2 0-.1105-.08954-.2-.2-.2z"/><rect width="12" height="12" x="20" y="1030.362" fill="#fc0" rx=".452" ry=".452"/><rect width="9.988" height="9.6" x="21.2" y="1031.562" fill="#fc0" stroke="#ff1e55" rx=".452" ry=".452"/><path fill="#fc0" fill-rule="evenodd" d="m 2.02445,1035.1622 c -0.1903,0 -0.38063,0.073 -0.52641,0.2186 -0.29156,0.2915 -0.29158,0.7612 0,1.0528 l 0.0553,0.055 1.0596,1.0731 1.05959,-1.0731 0.0554,-0.055 c 0.29158,-0.2916 0.29157,-0.7613 0,-1.0528 -0.29156,-0.2916 -0.76124,-0.2916 -1.05281,0 l -0.0621,0.062 -0.0621,-0.062 c -0.14579,-0.1458 -0.33611,-0.2186 -0.52641,-0.2186 z"/><path style="line-height:125%;-inkscape-font-specification:'Bebas Neue Bold';text-align:center" fill="#fc0" d="M 5.9121094 14.03125 C 5.3181094 14.03125 4.9941406 14.382047 4.9941406 14.998047 L 4.9941406 17.001953 C 4.9941406 17.617953 5.3181094 17.96875 5.9121094 17.96875 C 6.5061094 17.96875 6.8320312 17.617953 6.8320312 17.001953 L 6.8320312 14.998047 C 6.8320312 14.382047 6.5061094 14.03125 5.9121094 14.03125 z M 7.2246094 14.074219 L 7.2246094 17.925781 L 7.8300781 17.925781 L 7.8300781 16.335938 L 8.6113281 16.335938 L 8.6113281 15.785156 L 7.8300781 15.785156 L 7.8300781 14.625 L 8.8242188 14.625 L 8.8242188 14.074219 L 7.2246094 14.074219 z M 9.1152344 14.074219 L 9.1152344 17.925781 L 9.7207031 17.925781 L 9.7207031 16.335938 L 10.501953 16.335938 L 10.501953 15.785156 L 9.7207031 15.785156 L 9.7207031 14.625 L 10.714844 14.625 L 10.714844 14.074219 L 9.1152344 14.074219 z M 11.005859 14.074219 L 11.005859 17.925781 L 12.65625 17.925781 L 12.65625 17.375 L 11.611328 17.375 L 11.611328 16.248047 L 12.441406 16.248047 L 12.441406 15.697266 L 11.611328 15.697266 L 11.611328 14.625 L 12.65625 14.625 L 12.65625 14.074219 L 11.005859 14.074219 z M 13.025391 14.074219 L 13.025391 17.925781 L 13.630859 17.925781 L 13.630859 16.357422 L 13.839844 16.357422 C 14.114844 16.357422 14.236328 16.490156 14.236328 16.847656 L 14.236328 17.451172 C 14.236328 17.764672 14.258016 17.826781 14.291016 17.925781 L 14.90625 17.925781 C 14.84575 17.782781 14.839844 17.644031 14.839844 17.457031 L 14.839844 16.863281 C 14.839844 16.461781 14.741953 16.171422 14.439453 16.044922 C 14.708953 15.918422 14.833984 15.659672 14.833984 15.263672 L 14.833984 14.960938 C 14.833984 14.366937 14.5645 14.074219 13.9375 14.074219 L 13.025391 14.074219 z M 5.9121094 14.580078 C 6.1046094 14.580078 6.2265625 14.685937 6.2265625 14.960938 L 6.2265625 17.039062 C 6.2265625 17.314063 6.1046094 17.419922 5.9121094 17.419922 C 5.7196094 17.419922 5.5996094 17.314063 5.5996094 17.039062 L 5.5996094 14.960938 C 5.5996094 14.685937 5.7196094 14.580078 5.9121094 14.580078 z M 13.630859 14.625 L 13.921875 14.625 C 14.136375 14.625 14.230469 14.746484 14.230469 15.021484 L 14.230469 15.400391 C 14.230469 15.708391 14.092687 15.806641 13.867188 15.806641 L 13.630859 15.806641 L 13.630859 14.625 z " font-family="Bebas Neue" font-size="5.5" font-weight="700" letter-spacing="0" text-anchor="middle" transform="translate(0 1020.362)" word-spacing="0"/><path fill="#fc0" fill-rule="evenodd" d="m 16.69945,1035.1622 c -0.1903,0 -0.38063,0.073 -0.52641,0.2186 -0.29157,0.2915 -0.29158,0.7612 0,1.0528 l 0.0554,0.055 1.0596,1.0731 1.05959,-1.0731 0.0554,-0.055 c 0.29158,-0.2916 0.29156,-0.7613 0,-1.0528 -0.29156,-0.2916 -0.76124,-0.2916 -1.05282,0 l -0.0621,0.062 -0.0621,-0.062 c -0.14578,-0.1458 -0.3361,-0.2186 -0.5264,-0.2186 z"/><path fill="#ff1e55" fill-rule="evenodd" d="m 23.74007,1034.202 c -0.34258,0 -0.68522,0.131 -0.94766,0.3935 -0.52488,0.5249 -0.5249,1.3704 0,1.8953 l 0.0996,0.1 1.90752,1.9319 1.907522,-1.9319 0.09964,-0.1 c 0.524908,-0.5249 0.524884,-1.3704 0,-1.8953 -0.524882,-0.5249 -1.370412,-0.5249 -1.895312,0 l -0.11185,0.1118 -0.11185,-0.1118 c -0.26245,-0.2625 -0.60507,-0.3935 -0.94766,-0.3935 z"/><path fill-rule="evenodd" d="m 25.876215,1034.202 c -0.34258,0 -0.68522,0.131 -0.94766,0.3935 -0.52488,0.5249 -0.5249,1.3704 0,1.8953 l 0.0996,0.1 1.907526,1.9319 1.907516,-1.9319 0.09965,-0.1 c 0.524904,-0.5249 0.524884,-1.3704 0,-1.8953 -0.524888,-0.5249 -1.370416,-0.5249 -1.89532,0 l -0.111844,0.1118 -0.111852,-0.1118 c -0.262456,-0.2625 -0.605076,-0.3935 -0.947666,-0.3935 z"/><path fill="#ff1e55" fill-rule="evenodd" d="m 26.14091,1034.202 c -0.34258,0 -0.68522,0.131 -0.94766,0.3935 -0.52488,0.5249 -0.5249,1.3704 0,1.8953 l 0.0996,0.1 1.907522,1.9319 1.90752,-1.9319 0.09964,-0.1 c 0.524908,-0.5249 0.524884,-1.3704 0,-1.8953 -0.524884,-0.5249 -1.370412,-0.5249 -1.895316,0 l -0.111848,0.1118 -0.111852,-0.1118 c -0.262452,-0.2625 -0.605066,-0.3935 -0.947656,-0.3935 z"/></g></svg>