<svg xmlns="http://www.w3.org/2000/svg" width="32" height="32" viewBox="0 0 32 32"><g transform="translate(0 -1020.362)"><path fill="none" stroke="#cf6b00" stroke-linecap="round" stroke-linejoin="round" stroke-width=".829" d="m 20.1216,1030.1047 c -0.64676,-11.0985 -6.8082,-11.0985 -7.45514,-0.041"/><path fill="#fc0" fill-rule="evenodd" d="m 9.50611,1027.2981 16.02657,0.6127 1.23229,22.1812 -17.25205,1.2708 z"/><circle cx="21.508" cy="1030.261" r=".75" fill="#dedede"/><path fill="#ff8702" fill-rule="evenodd" d="m 9.50835,1027.2959 -1.84503,0.623 -3e-5,20.3293 1.8496,3.0761 z"/><path fill="#ff9d02" fill-rule="evenodd" d="m 5.81605,1027.9108 0,20.9489 1.87511,-0.6161 0,-20.3328"/><path fill="#fc0" fill-rule="evenodd" d="m 5.81605,1048.8597 1.84844,-0.6161 1.88694,3.1192 -3.73538,-2.5031"/><circle cx="14.042" cy="1030.324" r=".75" fill="#dedede"/><path fill="none" stroke="#cf6b00" stroke-linecap="round" stroke-linejoin="round" stroke-width=".829" d="m 21.53867,1030.2688 c -0.64674,-11.0984 -6.8082,-11.0984 -7.45513,-0.041"/><path fill="#ff1e55" fill-rule="evenodd" d="m 16.4345,1032.726 c -0.48544,0 -0.97094,0.1856 -1.34282,0.5576 -0.74376,0.7437 -0.74379,1.9418 0,2.6857 l 0.1412,0.1412 2.70293,2.7375 2.70294,-2.7375 0.1412,-0.1412 c 0.74379,-0.7439 0.74376,-1.942 0,-2.6857 -0.74375,-0.7438 -1.94186,-0.7438 -2.68565,0 l -0.15849,0.1585 -0.15848,-0.1585 c -0.37189,-0.372 -0.85739,-0.5576 -1.34283,-0.5576 z"/><path fill="#df1e49" d="M0 1042.812l5.42189-.6933 0 6.8042-5.42189.6932 1.9445-3.6507zM31.99999 1036.5427l-5.4219.6932 0 6.8042 5.4219-.6933-1.9445-3.1535z"/><path fill="#ff1e55" d="m 3.98678,1041.1304 0,6.8053 3.6923,-0.4721 16.64182,-2.1277 3.69231,-0.4721 0,-6.8053 -3.69231,0.4722 -16.64182,2.1276 -3.6923,0.4721 z"/><path style="line-height:125%;-inkscape-font-specification:'Bebas Neue Bold'" fill="#fff" d="M 21.541016 20.291016 L 20.728516 20.396484 L 20.728516 23.826172 L 21.267578 23.755859 L 21.267578 22.359375 L 21.453125 22.335938 C 21.698117 22.304938 21.806641 22.407562 21.806641 22.726562 L 21.806641 23.265625 C 21.806641 23.544925 21.826069 23.597241 21.855469 23.681641 L 22.404297 23.611328 C 22.350397 23.490828 22.345703 23.369725 22.345703 23.203125 L 22.345703 22.673828 C 22.345703 22.316128 22.257769 22.066481 21.988281 21.988281 C 22.228373 21.844881 22.339844 21.600847 22.339844 21.248047 L 22.339844 20.978516 C 22.339844 20.449316 22.099598 20.219616 21.541016 20.291016 z M 20.398438 20.4375 L 18.929688 20.625 L 18.929688 24.054688 L 20.398438 23.867188 L 20.398438 23.376953 L 19.46875 23.496094 L 19.46875 22.492188 L 20.207031 22.396484 L 20.207031 21.90625 L 19.46875 22.001953 L 19.46875 21.046875 L 20.398438 20.927734 L 20.398438 20.4375 z M 18.669922 20.658203 L 17.244141 20.841797 L 17.244141 24.271484 L 17.783203 24.201172 L 17.783203 22.785156 L 18.478516 22.697266 L 18.478516 22.207031 L 17.783203 22.296875 L 17.783203 21.261719 L 18.669922 21.148438 L 18.669922 20.658203 z M 21.527344 20.783203 C 21.718438 20.759203 21.800781 20.856863 21.800781 21.101562 L 21.800781 21.439453 C 21.800781 21.713853 21.67941 21.81815 21.478516 21.84375 L 21.267578 21.871094 L 21.267578 20.816406 L 21.527344 20.783203 z M 16.986328 20.875 L 15.560547 21.056641 L 15.560547 24.486328 L 16.099609 24.417969 L 16.099609 23.001953 L 16.794922 22.912109 L 16.794922 22.421875 L 16.099609 22.511719 L 16.099609 21.476562 L 16.986328 21.363281 L 16.986328 20.875 z M 14.392578 21.166016 C 13.863395 21.234016 13.574219 21.584012 13.574219 22.132812 L 13.574219 23.917969 C 13.574219 24.466769 13.863395 24.743481 14.392578 24.675781 C 14.921761 24.607781 15.210938 24.255831 15.210938 23.707031 L 15.210938 21.923828 C 15.210938 21.375028 14.921761 21.098316 14.392578 21.166016 z M 14.392578 21.65625 C 14.564073 21.63425 14.671875 21.713584 14.671875 21.958984 L 14.671875 23.810547 C 14.671875 24.055547 14.564073 24.163647 14.392578 24.185547 C 14.221084 24.207547 14.113281 24.128213 14.113281 23.882812 L 14.113281 22.03125 C 14.113281 21.78625 14.221084 21.67815 14.392578 21.65625 z " font-family="Bebas Neue" font-weight="700" letter-spacing="0" transform="translate(0 1020.362)" word-spacing="0"/></g></svg>