<svg xmlns="http://www.w3.org/2000/svg" width="32" height="32" viewBox="0 0 32 32"><g transform="translate(0 -1020.362)"><path fill="#ff1e55" d="m 6.73545,1029.6052 18.5291,0 -1.46145,22.7569 -16.52535,0 z"/><circle cx="16" cy="1033.872" r="1.422" fill="#f2f2f2"/><path style="line-height:normal;text-indent:0;text-align:start;text-decoration-line:none;text-decoration-style:solid;text-decoration-color:#000;text-transform:none;block-progression:tb;isolation:auto;mix-blend-mode:normal" fill="#fc0" fill-rule="evenodd" d="m 15.71262,1020.3621 a 0.426734,0.426734 0 0 0 -0.42501,0.4307 c -0.0395,4.0621 0.22901,9.1404 0.2,11.8978 a 0.426734,0.426734 0 1 0 0.85283,0.014 c 0.0297,-2.8232 -0.23904,-7.8806 -0.20002,-11.898 a 0.426734,0.426734 0 0 0 -0.4278,-0.439 z" color="#000" font-family="sans-serif" font-weight="400" overflow="visible" white-space="normal"/><path style="line-height:normal;text-indent:0;text-align:start;text-decoration-line:none;text-decoration-style:solid;text-decoration-color:#000;text-transform:none;block-progression:tb;isolation:auto;mix-blend-mode:normal" fill="#fc0" fill-rule="evenodd" d="M16.68768 1029.1738a.426734.426734 0 0 0-.29723.7334l1.42231 1.4223a.426734.426734 0 1 0 .6028-.6029l-1.42231-1.4223a.426734.426734 0 0 0-.30557-.1309zM14.94037 1027.8709c-.8104-.331-1.60517-.2046-2.09735.1722-.2461.1885-.43393.4698-.41669.8001.0171.3282.25111.6157.58892.8056.81966.4757 1.73014.3473 2.5946.055a.35561166.35561166 0 0 0 .21946-.075.35561166.35561166 0 0 0 .0195-.014.35561166.35561166 0 0 0 .009-.014.35561166.35561166 0 0 0 .0166-.017.35561166.35561166 0 0 0 .009-.014.35561166.35561166 0 0 0 .0142-.017.35561166.35561166 0 0 0 .009-.014.35561166.35561166 0 0 0 .0142-.02.35561166.35561166 0 0 0 .006-.014.35561166.35561166 0 0 0 .0114-.02.35561166.35561166 0 0 0 .006-.014.35561166.35561166 0 0 0 .009-.023.35561166.35561166 0 0 0 .006-.014.35561166.35561166 0 0 0 .006-.023.35561166.35561166 0 0 0-.0277-.2638c-.01-.2341-.0128-.4675-.14724-.6724-.16874-.2565-.43029-.4212-.8167-.6195a.35561166.35561166 0 0 0-.0277-.014zm-.27502.6584c.32393.1694.47568.2888.52503.3639.0128.02.01.091.0195.1167-.6824.2029-1.31488.3325-1.84177.026a.35561166.35561166 0 0 0-.006 0c-.20932-.1167-.2234-.194-.22501-.2251-.001-.031.0182-.1052.13896-.1971.24007-.1839.80282-.3156 1.38898-.081z" color="#000" font-family="sans-serif" font-weight="400" overflow="visible" white-space="normal"/><path style="line-height:normal;text-indent:0;text-align:start;text-decoration-line:none;text-decoration-style:solid;text-decoration-color:#000;text-transform:none;block-progression:tb;isolation:auto;mix-blend-mode:normal" fill="#fc0" fill-rule="evenodd" d="m 16.95993,1027.821 a 0.35561166,0.35561166 0 0 0 -0.0277,0.014 c -0.3973,0.2049 -0.66446,0.3739 -0.83616,0.6362 -0.13853,0.2115 -0.14309,0.451 -0.15279,0.6945 a 0.35561166,0.35561166 0 0 0 -0.0222,0.2722 0.35561166,0.35561166 0 0 0 0.006,0.023 0.35561166,0.35561166 0 0 0 0.006,0.014 0.35561166,0.35561166 0 0 0 0.0114,0.031 0.35561166,0.35561166 0 0 0 0.006,0.014 0.35561166,0.35561166 0 0 0 0.0142,0.023 0.35561166,0.35561166 0 0 0 0.003,0 0.35561166,0.35561166 0 0 0 0.0142,0.017 0.35561166,0.35561166 0 0 0 0.009,0.014 0.35561166,0.35561166 0 0 0 0.0142,0.017 0.35561166,0.35561166 0 0 0 0.0222,0.023 0.35561166,0.35561166 0 0 0 0.006,0 0.35561166,0.35561166 0 0 0 0.009,0 0.35561166,0.35561166 0 0 0 0.21946,0.081 c 0.89216,0.3043 1.83106,0.4418 2.67516,-0.05 7.5e-4,-5e-4 -7.7e-4,0 0,0 0.34815,-0.1955 0.58541,-0.49 0.6028,-0.8251 0.0175,-0.3358 -0.17355,-0.6206 -0.42501,-0.814 -0.50294,-0.3867 -1.31878,-0.5216 -2.15013,-0.1805 z m 0.27779,0.6583 c 0.60652,-0.2445 1.18802,-0.1066 1.43897,0.087 0.12616,0.097 0.1492,0.1761 0.14722,0.2139 -0.001,0.038 -0.0215,0.1223 -0.23889,0.2445 a 0.35561166,0.35561166 0 0 0 -0.006,0 c -0.54822,0.3214 -1.20294,0.1882 -1.91122,-0.024 0.01,-0.033 0.006,-0.1138 0.0222,-0.1394 0.0529,-0.081 0.21205,-0.2073 0.54726,-0.3833 z" color="#000" font-family="sans-serif" font-weight="400" overflow="visible" white-space="normal"/><path style="line-height:normal;text-indent:0;text-align:start;text-decoration-line:none;text-decoration-style:solid;text-decoration-color:#000;text-transform:none;block-progression:tb;isolation:auto;mix-blend-mode:normal" fill="#e20c45" fill-rule="evenodd" d="M21.24628 1039.866c-.18895 0-.37652.074-.51948.2168-.28648.2864-.28649.7551 0 1.0417l.0417.041.91951.9333.92226-.9333.0417-.041c.28651-.2866.28648-.7553 0-1.0417-.24296-.2431-.60047-.1691-.88338 0-.14327-.1432-.33392-.2168-.52226-.2168zm0 .3556c.0976 0 .19369.038.26946.1138l.17224.1722.175-.1722c.15162-.1492.38819-.1508.53893 0 .15153.1516.15153.3874 0 .5389l-.0417.041-.66948.6779-.67226-.6779-.0417-.041c-.15154-.1515-.15153-.3873 0-.5389.0761-.075.17249-.1138.26946-.1138zM8.44554 1041.2883c-.18895 0-.37652.074-.51948.2168-.28648.2864-.28649.7551 0 1.0417l.0417.041.91951.9333.92227-.9333.0417-.041c.28651-.2866.28648-.7553 0-1.0417-.24296-.2431-.60047-.1691-.88338 0-.14327-.1432-.33391-.2168-.52226-.2168zm0 .3556c.0976 0 .19369.038.26946.1138l.17224.1722.175-.1722c.15162-.1492.38819-.1508.53893 0 .15153.1516.15153.3874 0 .5389l-.0417.041-.66948.6779-.67226-.6779-.0417-.041c-.15154-.1515-.15153-.3873 0-.5389.0761-.075.17249-.1138.26946-.1138zM15.55707 1038.7494c-.18896 0-.37653.075-.51949.2166-.28648.2866-.28649.7552 0 1.0417l0 0 .0417.038.9195.9334.92227-.9334.0417-.038 0 0c.28651-.2865.28648-.7551 0-1.0417-.24296-.2429-.60047-.1691-.88338 0-.14327-.1432-.33391-.2166-.52225-.2166zm0 .3555c.0976 0 .19369.038.26945.1138l.17224.1721.175-.1721c.15162-.1493.38819-.1507.53893 0 .15153.1515.15153.3873 0 .5389l-.0417.041-.66947.6777-.67227-.6777-.0417-.041c-.15155-.1516-.15154-.3874 0-.5389.0761-.075.17248-.1138.26945-.1138z" color="#000" font-family="sans-serif" font-weight="400" overflow="visible" white-space="normal"/><path style="line-height:125%;-inkscape-font-specification:'Bebas Neue Bold'" fill="#fff" d="M 11.611328 17.78125 C 10.762328 17.78125 10.326172 18.289134 10.326172 19.177734 C 10.326172 20.764734 12.03125 20.978494 12.03125 22.121094 C 12.03125 22.517794 11.857788 22.660156 11.580078 22.660156 C 11.302368 22.660156 11.126953 22.517794 11.126953 22.121094 L 11.126953 21.724609 L 10.302734 21.724609 L 10.302734 22.066406 C 10.302734 22.955106 10.746581 23.462891 11.603516 23.462891 C 12.46045 23.462891 12.904297 22.955106 12.904297 22.066406 C 12.904297 20.479506 11.199219 20.263694 11.199219 19.121094 C 11.199219 18.724394 11.357056 18.574219 11.634766 18.574219 C 11.912476 18.574219 12.072266 18.724394 12.072266 19.121094 L 12.072266 19.351562 L 12.896484 19.351562 L 12.896484 19.177734 C 12.896484 18.289134 12.460328 17.78125 11.611328 17.78125 z M 14.056641 17.84375 L 13.167969 23.398438 L 13.96875 23.398438 L 14.119141 22.390625 L 15.191406 22.390625 L 15.341797 23.398438 L 16.222656 23.398438 L 15.333984 17.84375 L 14.056641 17.84375 z M 16.621094 17.84375 L 16.621094 23.398438 L 18.929688 23.398438 L 18.929688 22.605469 L 17.494141 22.605469 L 17.494141 17.84375 L 16.621094 17.84375 z M 19.316406 17.84375 L 19.316406 23.398438 L 21.697266 23.398438 L 21.697266 22.605469 L 20.189453 22.605469 L 20.189453 20.978516 L 21.388672 20.978516 L 21.388672 20.185547 L 20.189453 20.185547 L 20.189453 18.638672 L 21.697266 18.638672 L 21.697266 17.84375 L 19.316406 17.84375 z M 14.650391 18.828125 L 15.072266 21.636719 L 14.230469 21.636719 L 14.650391 18.828125 z " font-family="Bebas Neue" font-size="7.935" font-weight="700" letter-spacing="0" transform="translate(0 1020.362)" word-spacing="0"/><path style="line-height:normal;text-indent:0;text-align:start;text-decoration-line:none;text-decoration-style:solid;text-decoration-color:#000;text-transform:none;block-progression:tb;isolation:auto;mix-blend-mode:normal" fill="#e20c45" fill-rule="evenodd" d="M11.29015 1034.1768c-.18895 0-.37652.074-.51948.2168-.28648.2864-.28649.7551 0 1.0417l.0417.041.91951.9333.92226-.9333.0417-.041c.28651-.2866.28648-.7553 0-1.0417-.24296-.2431-.60047-.1691-.88338 0-.14327-.1433-.33392-.2168-.52226-.2168zm0 .3556c.0976 0 .19369.038.26946.1138l.17224.1722.175-.1722c.15162-.1492.38819-.1508.53892 0 .15154.1516.15154.3874 0 .5389l-.0417.041-.66948.6779-.67226-.6779-.0417-.041c-.15154-.1515-.15153-.3873 0-.5389.0761-.075.17249-.1138.26946-.1138zM18.40167 1035.9048c-.18895 0-.37652.075-.51948.2166-.28648.2866-.28649.7552 0 1.0417l0 0 .0417.038.9195.9334.92227-.9334.0417-.038 0 0c.28651-.2865.28648-.7551 0-1.0417-.24296-.243-.60047-.1691-.88338 0-.14327-.1432-.33391-.2166-.52226-.2166zm0 .3555c.0976 0 .19369.038.26946.1138l.17224.1721.175-.1721c.15162-.1493.38819-.1507.53893 0 .15153.1515.15153.3873 0 .5389l-.0417.041-.66948.6777-.67226-.6777-.0417-.041c-.15154-.1516-.15153-.3874 0-.5389.0761-.075.17249-.1138.26946-.1138zM12.71246 1044.4386c-.18896 0-.37653.075-.51949.2166-.28648.2866-.28649.7552 0 1.0417l0 0 .0417.038.9195.9335.92227-.9335.0417-.038 0 0c.28651-.2865.28648-.7551 0-1.0417-.24296-.2429-.60047-.1691-.88338 0-.14327-.1432-.33391-.2166-.52225-.2166zm0 .3556c.0976 0 .19369.038.26945.1137l.17224.1721.175-.1721c.15162-.1493.38819-.1507.53893 0 .15153.1515.15153.3873 0 .539l-.0417.041-.66948.6777-.67227-.6777-.0417-.041c-.15155-.1517-.15154-.3875 0-.539.0761-.075.17248-.1137.26945-.1137zM16.97937 1047.3832c-.18895 0-.37653.075-.51948.2166-.28648.2866-.2865.7552 0 1.0418l.0417.041.91951.9334.92226-.9334.0417-.041c.2865-.2866.28648-.7552 0-1.0418-.24296-.2429-.60047-.1691-.88338 0-.14327-.1432-.33392-.2166-.52226-.2166zm0 .3556c.0976 0 .19369.038.26946.1137l.17224.1723.175-.1723c.15161-.1492.38819-.1507.53892 0 .15153.1515.15153.3873 0 .539l-.0417.041-.66948.6777-.67227-.6777-.0417-.041c-.15155-.1517-.15153-.3875 0-.539.0761-.075.17248-.1137.26946-.1137zM9.86785 1048.7055c-.18896 0-.37653.075-.51948.2166-.28648.2866-.2865.7553 0 1.0417l0 0 .0417.038.9195.9335.92227-.9335.0417-.038 0 0c.28651-.2864.28648-.7551 0-1.0417-.24295-.2429-.60047-.1691-.88338 0-.14326-.1432-.33391-.2166-.52225-.2166zm0 .3556c.0976 0 .19369.038.26945.1138l.17224.1721.17501-.1721c.15161-.1494.38818-.1508.53892 0 .15153.1514.15153.3873 0 .5389l-.0417.041-.66948.6777-.67227-.6777-.0417-.041c-.15155-.1516-.15153-.3875 0-.5389.0761-.075.17248-.1138.26945-.1138zM21.24628 1045.5552c-.18895 0-.37652.074-.51948.2168-.28648.2865-.28649.7551 0 1.0417l.0417.041.91951.9334.92226-.9334.0417-.041c.28651-.2866.28648-.7552 0-1.0417-.24296-.2431-.60047-.1691-.88338 0-.14327-.1432-.33392-.2168-.52226-.2168zm0 .3556c.0976 0 .19369.038.26946.1138l.17224.1722.175-.1722c.15162-.1492.38819-.1508.53893 0 .15153.1516.15153.3874 0 .5389l-.0417.041-.66948.6778-.67226-.6778-.0417-.041c-.15154-.1515-.15153-.3873 0-.5389.0761-.075.17249-.1138.26946-.1138zM21.24628 1032.449c-.18895 0-.37652.075-.51948.2166-.28648.2866-.28649.7552 0 1.0418l.0417.041.91951.9334.92226-.9334.0417-.041c.28651-.2866.28648-.7552 0-1.0418-.24296-.2429-.60047-.1691-.88338 0-.14327-.1432-.33392-.2166-.52226-.2166zm0 .3556c.0976 0 .19369.038.26946.1137l.17224.1723.175-.1723c.15162-.1492.38819-.1507.53893 0 .15153.1515.15153.3873 0 .539l-.0417.041-.66948.6777-.67226-.6777-.0417-.041c-.15154-.1517-.15153-.3875 0-.539.0761-.075.17249-.1137.26946-.1137zM8.44554 1031.6378c-.18895 0-.37652.075-.51948.2167-.28648.2866-.28649.7552 0 1.0417l0 0 .0417.038.91951.9334.92227-.9334.0417-.038 0 0c.28651-.2865.28648-.7551 0-1.0417-.24296-.243-.60047-.1691-.88338 0-.14327-.1433-.33391-.2167-.52226-.2167zm0 .3556c.0976 0 .19369.038.26946.1138l.17224.1721.175-.1721c.15162-.1493.38819-.1508.53893 0 .15153.1515.15153.3873 0 .5389l-.0417.041-.66948.6777-.67226-.6777-.0417-.041c-.15154-.1516-.15153-.3874 0-.5389.0761-.075.17249-.1138.26946-.1138z" color="#000" font-family="sans-serif" font-weight="400" overflow="visible" white-space="normal"/></g></svg>