<svg xmlns="http://www.w3.org/2000/svg" width="32" height="32" viewBox="0 0 32 32"><g transform="translate(0 -1020.362)"><rect width="9.519" height="4.888" x="-33.558" y="-1064.214" fill="#df1e49" transform="matrix(-.75506 .65565 0 -1 0 0)"/><rect width="17.046" height="6.842" x="20.126" y="1050.486" fill="#df1e49" transform="matrix(.75899 -.6511 0 1 0 0)"/><rect width="10.262" height="6.843" x="15.579" y="-1047.289" fill="#ff1e55" transform="skewY(-11.325) scale(.98053 -1)"/><rect width="24.843" height="8.797" x="3.844" y="1029.432" fill="#ff1e55" transform="matrix(.98369 -.1799 0 1 0 0)"/><path style="line-height:125%;-inkscape-font-specification:'Bebas Neue Bold'" fill="#fff" d="M 22.560547 5.8183594 L 19.779297 6.3554688 L 19.779297 12.841797 L 22.560547 12.304688 L 22.560547 11.376953 L 20.798828 11.716797 L 20.798828 9.8183594 L 22.199219 9.546875 L 22.199219 8.6210938 L 20.798828 8.890625 L 20.798828 7.0839844 L 22.560547 6.7441406 L 22.560547 5.8183594 z M 17.650391 6.7675781 L 16.630859 6.9648438 L 16.630859 13.451172 L 19.328125 12.929688 L 19.328125 12.001953 L 17.650391 12.326172 L 17.650391 6.7675781 z M 15.126953 7.2558594 L 13.636719 7.5429688 L 12.597656 14.230469 L 13.533203 14.048828 L 13.710938 12.837891 L 14.960938 12.597656 L 15.136719 13.740234 L 16.166016 13.541016 L 15.126953 7.2558594 z M 11.130859 7.9804688 C 11.022039 7.9832668 10.905182 7.9975219 10.78125 8.0214844 C 9.7897922 8.2132844 9.28125 8.9056594 9.28125 9.9433594 C 9.28125 11.796559 11.273438 11.659841 11.273438 12.994141 C 11.273438 13.457441 11.06845 13.663863 10.744141 13.726562 C 10.419833 13.789563 10.216797 13.662219 10.216797 13.199219 L 10.216797 12.736328 L 9.2519531 12.921875 L 9.2519531 13.320312 C 9.2519531 14.358113 9.7707607 14.851803 10.771484 14.658203 C 11.772208 14.464703 12.291016 13.770222 12.291016 12.732422 C 12.291016 10.879322 10.298828 11.013987 10.298828 9.6796875 C 10.298828 9.2163875 10.484285 9.0061594 10.808594 8.9433594 C 11.132903 8.8803594 11.318359 9.021475 11.318359 9.484375 L 11.318359 9.7519531 L 12.283203 9.5664062 L 12.283203 9.3613281 C 12.283203 8.4533406 11.892605 7.9608824 11.130859 7.9804688 z M 14.330078 8.5585938 L 14.822266 11.744141 L 13.839844 11.933594 L 14.330078 8.5585938 z " font-family="Bebas Neue" font-size="9.266" font-weight="700" letter-spacing="0" transform="translate(0 1020.362)" word-spacing="0"/></g></svg>