<svg xmlns="http://www.w3.org/2000/svg" width="32" height="32" viewBox="0 0 32 32"><g transform="translate(0 -1020.362)"><rect width="12.465" height="6.4" x="-37.8" y="-1068.805" fill="#3453e0" transform="matrix(-.75506 .65565 0 -1 0 0)"/><rect width="22.321" height="8.96" x="19.831" y="1050.609" fill="#3453e0" transform="matrix(.75899 -.6511 0 1 0 0)"/><rect width="13.731" height="8.96" x="15.337" y="-1049.612" fill="#3477e0" transform="skewY(-11.08) scale(.98136 -1)"/><rect width="32.531" height="11.52" y="1026.382" fill="#3477e0" transform="matrix(.98369 -.1799 0 1 0 0)"/><path style="line-height:125%;-inkscape-font-specification:'Bebas Neue Bold'" fill="#fff" d="m 23.604838,1023.9957 -3.178015,0.6157 0,7.413 3.178015,-0.6157 0,-1.0587 -2.012506,0.3897 0,-2.1708 1.599684,-0.3097 0,-1.0587 -1.599684,0.3095 0,-2.0658 2.012506,-0.3879 0,-1.0606 z m -5.612239,1.0855 -1.163729,0.226 0,7.413 3.081926,-0.5961 0,-1.0588 -1.918197,0.3701 0,-6.3542 z m -2.882633,0.5587 -1.704668,0.3292 -1.186862,7.6425 1.071201,-0.2081 0.201072,-1.3827 1.428861,-0.2776 0.201073,1.3061 1.176185,-0.2259 -1.186862,-7.1835 z m -4.567728,0.8292 c -0.124366,0 -0.256949,0.019 -0.398587,0.046 -1.1330944,0.2191 -1.7153448,1.0097 -1.7153439,2.1957 0,2.118 2.2758559,1.9628 2.2758559,3.4877 0,0.5295 -0.232579,0.7646 -0.603217,0.8363 -0.3706391,0.072 -0.6032176,-0.074 -0.6032176,-0.6032 l 0,-0.5285 -1.1014513,0.2118 0,0.4555 c 0,1.186 0.5930136,1.7497 1.7366979,1.5285 1.143685,-0.2212 1.736697,-1.0133 1.736697,-2.1994 0,-2.1179 -2.2776358,-1.9645 -2.2776358,-3.4894 0,-0.5294 0.2130063,-0.7717 0.5836438,-0.8434 0.370639,-0.072 0.581865,0.089 0.581865,0.6193 l 0,0.306 1.101451,-0.2117 0,-0.2332 c 0,-1.0377 -0.446192,-1.6007 -1.316758,-1.5783 z m 3.656674,0.6584 0.562291,3.6406 -1.122803,0.2171 0.560512,-3.8577 z" font-family="Bebas Neue" font-size="11.624" font-weight="700" letter-spacing="0" word-spacing="0"/></g></svg>