<svg xmlns="http://www.w3.org/2000/svg" width="32" height="32" viewBox="0 0 32 32"><g transform="translate(0 -1020.362)"><path fill="#fc0" d="m 5.5058865,1205.0046 c -0.5549324,0.3204 -2.7080982,-1.4321 -3.3270449,-1.2663 -0.6189469,0.1659 -1.60735709,2.7602 -2.24813809,2.7602 -0.64078077,0 -1.62918971,-2.5943 -2.24813641,-2.7602 -0.6189469,-0.1658 -2.7721138,1.5867 -3.3270464,1.2663 -0.5549325,-0.3203 -0.1137412,-3.0613 -0.5668416,-3.5144 -0.4531005,-0.4531 -3.1940849,-0.012 -3.5144754,-0.5669 -0.3203907,-0.5549 1.4321843,-2.7081 1.266338,-3.327 -0.1658463,-0.619 -2.7602037,-1.6074 -2.7602037,-2.2482 0,-0.6407 2.5943573,-1.6291 2.7602036,-2.2481 0.1658463,-0.6189 -1.5867276,-2.7721 -1.2663373,-3.327 0.3203903,-0.555 3.0613739,-0.1138 3.5144744,-0.5669 0.4531006,-0.4531 0.01191,-3.1941 0.5668429,-3.5145 0.5549324,-0.3203 2.7080982,1.4322 3.3270449,1.2664 0.6189469,-0.1659 1.6073571,-2.7602 2.2481381,-2.7602 0.64078078,0 1.6291897,2.5943 2.2481364,2.7602 0.6189469,0.1658 2.7721138,-1.5867 3.3270464,-1.2664 0.5549325,0.3204 0.1137412,3.0614 0.5668416,3.5145 0.4531006,0.4531 3.1940849,0.012 3.5144754,0.5669 0.3203904,0.5549 -1.4321843,2.7081 -1.266338,3.327 0.1658463,0.619 2.7602036,1.6074 2.7602036,2.2481 0,0.6408 -2.5943571,1.6292 -2.7602034,2.2482 -0.1658464,0.6189 1.5867277,2.7721 1.2663373,3.327 -0.3203904,0.555 -3.061374,0.1138 -3.5144744,0.5669 -0.4531006,0.4531 -0.01191,3.1941 -0.566843,3.5144 z" transform="translate(17.747 -464.474) scale(1.25556)"/><circle cx="17.146" cy="1036.344" r="10.045" fill="#ff9500" transform="rotate(.063)"/><circle cx="17.146" cy="1036.344" r="7.533" fill="#999" transform="rotate(.063)"/><circle cx="17.146" cy="1036.344" r="7.533" fill="#fc0" transform="rotate(.063)"/><path style="line-height:125%;-inkscape-font-specification:'Bebas Neue Bold'" fill="#fff" d="M 12.095703 13.470703 C 11.339908 13.469903 10.952047 13.921791 10.951172 14.712891 C 10.949572 16.125591 12.467922 16.318837 12.466797 17.335938 C 12.466406 17.689138 12.309723 17.816706 12.0625 17.816406 C 11.815278 17.816106 11.659765 17.687184 11.660156 17.333984 L 11.662109 16.982422 L 10.927734 16.980469 L 10.925781 17.285156 C 10.924906 18.076256 11.321125 18.528497 12.083984 18.529297 C 12.846842 18.530097 13.243266 18.078209 13.244141 17.287109 C 13.245741 15.874409 11.727391 15.681263 11.728516 14.664062 C 11.728907 14.310862 11.869965 14.177534 12.117188 14.177734 C 12.36441 14.178034 12.504296 14.312816 12.503906 14.666016 L 12.503906 14.871094 L 13.238281 14.871094 L 13.238281 14.716797 C 13.239157 13.925697 12.851498 13.471603 12.095703 13.470703 z M 14.271484 13.53125 L 13.474609 18.474609 L 14.189453 18.476562 L 14.324219 17.578125 L 15.277344 17.580078 L 15.410156 18.476562 L 16.195312 18.478516 L 15.410156 13.533203 L 15.410156 13.53125 L 14.271484 13.53125 z M 16.554688 13.53125 L 16.548828 18.476562 L 16.550781 18.476562 L 18.605469 18.476562 L 18.605469 17.771484 L 17.328125 17.771484 L 17.332031 13.533203 L 16.554688 13.53125 z M 18.955078 13.537109 L 18.951172 18.480469 L 21.068359 18.480469 L 21.070312 17.775391 L 19.728516 17.775391 L 19.730469 16.326172 L 20.796875 16.326172 L 20.796875 15.619141 L 19.730469 15.619141 L 19.732422 14.242188 L 21.074219 14.242188 L 21.074219 13.537109 L 18.955078 13.537109 z M 14.800781 14.40625 L 15.171875 16.908203 L 14.423828 16.90625 L 14.800781 14.40625 z " font-family="Bebas Neue" font-size="7.064" font-weight="700" letter-spacing="0" transform="translate(0 1020.362)" word-spacing="0"/></g></svg>