<svg xmlns="http://www.w3.org/2000/svg" width="32" height="32" viewBox="0 0 32 32"><g transform="translate(0 -1020.362)"><path fill="#ff9500" d="M28 1029.7108l0 6.7603-3.667944-.4056-8.266128-.9148 0-6.7604 8.266128.9147zM4 1042.4354l0-6.7603 3.667968.4058 8.266128.9146 0 6.7604-8.266128-.9144z"/><path fill="#a80e05" d="m 21.921144,1046.5866 c -0.421028,0.2391 -3.212659,-0.669 -3.683231,-0.5548 -0.454139,0.1101 -2.415996,2.1731 -2.882611,2.1476 -0.483501,-0.026 -2.340991,-2.2996 -2.79858,-2.458 -0.44161,-0.1529 -3.2073611,0.522 -3.5861208,0.2483 -0.3924655,-0.2837 -0.7260738,-3.2003 -1.0254,-3.5809 -0.288873,-0.3673 -2.9804115,-1.2949 -3.1510618,-1.7299 -0.1768254,-0.4508 1.119366,-3.0848 1.0733375,-3.5668 -0.044421,-0.4652 -1.8072029,-2.7007 -1.7155634,-3.1589 0.094956,-0.4749 2.6094148,-1.9899 2.8312977,-2.4203 0.2141343,-0.4154 -0.06022,-3.249 0.2646143,-3.585 0.3365888,-0.3481 3.2709925,-0.2632 3.6903415,-0.5053 0.404703,-0.2337 1.705882,-2.7658 2.160778,-2.8728 0.471358,-0.1109 2.894054,1.547 3.377727,1.57 0.466783,0.022 2.930379,-1.4045 3.370912,-1.2485 0.456473,0.1615 1.598273,2.866 1.992708,3.1469 0.380661,0.271 3.224502,0.4028 3.510804,0.7721 0.296662,0.3827 -0.204948,3.2752 -0.02498,3.7247 0.173683,0.4338 2.494867,2.0821 2.53604,2.5476 0.04266,0.4824 -1.943099,2.6445 -2.034739,3.1199 -0.08844,0.4589 0.97313,3.1005 0.756102,3.5143 -0.224881,0.4288 -3.06433,1.1741 -3.398481,1.5246 -0.322482,0.3382 -0.857569,3.1343 -1.263893,3.3652 z"/><path fill="#d31206" d="m 21.021049,1045.0303 c -0.356963,0.2028 -2.723817,-0.5672 -3.122786,-0.4704 -0.385036,0.093 -2.048375,1.8425 -2.443989,1.8209 -0.409931,-0.022 -1.984783,-1.9498 -2.372745,-2.084 -0.374414,-0.1296 -2.719325,0.4425 -3.040452,0.2105 -0.3327477,-0.2405 -0.6155938,-2.7133 -0.8693742,-3.036 -0.2449177,-0.3115 -2.5269083,-1.0979 -2.6715923,-1.4667 -0.1499194,-0.3822 0.9490417,-2.6154 0.910017,-3.0241 -0.037662,-0.3944 -1.5322165,-2.2897 -1.454521,-2.6783 0.080507,-0.4025 2.2123629,-1.6871 2.4004839,-2.052 0.1815513,-0.3521 -0.051057,-2.7546 0.2243504,-3.0394 0.2853729,-0.2952 2.7732742,-0.2232 3.1288142,-0.4285 0.343123,-0.1981 1.446313,-2.3449 1.831992,-2.4356 0.399635,-0.094 2.453691,1.3115 2.863768,1.3311 0.395756,0.019 2.484489,-1.1908 2.85799,-1.0586 0.387016,0.137 1.355078,2.43 1.689496,2.6681 0.322739,0.2298 2.733856,0.3415 2.976595,0.6546 0.251522,0.3245 -0.173763,2.7768 -0.02118,3.158 0.147255,0.3678 2.115245,1.7653 2.150153,2.1599 0.03617,0.409 -1.647435,2.2421 -1.72513,2.6452 -0.07498,0.3891 0.825057,2.6287 0.641052,2.9796 -0.190663,0.3636 -2.598058,0.9954 -2.881364,1.2926 -0.273413,0.2867 -0.72708,2.6574 -1.071578,2.8531 z"/><path fill="#fc0" d="m 4.013848,1035.6655 0,6.7939 3.686112,-0.9163 16.613928,-4.1302 3.686112,-0.9163 0,-6.7937 -3.686112,0.9161 -16.613928,4.1301 -3.686112,0.9164 z"/><path style="line-height:125%;-inkscape-font-specification:'Bebas Neue Bold'" fill="#fff" d="M 23.070312 12.251953 L 21.408203 12.664062 L 21.408203 13.154297 L 21.970703 13.013672 L 21.970703 15.949219 L 22.507812 15.814453 L 22.507812 12.880859 L 23.070312 12.740234 L 23.070312 12.251953 z M 21.173828 12.722656 L 20.695312 12.841797 L 20.695312 14.890625 L 20.142578 12.978516 L 19.466797 13.146484 L 19.466797 16.572266 L 19.951172 16.451172 L 19.951172 13.970703 L 20.621094 16.285156 L 21.173828 16.146484 L 21.173828 12.722656 z M 19.103516 13.238281 L 18.59375 13.363281 L 18.59375 16.005859 C 18.59375 16.250459 18.48566 16.365703 18.314453 16.408203 C 18.143246 16.451203 18.037109 16.388831 18.037109 16.144531 L 18.037109 13.501953 L 17.498047 13.636719 L 17.498047 16.244141 C 17.498047 16.791941 17.772485 17.03755 18.300781 16.90625 C 18.829077 16.77495 19.103516 16.393503 19.103516 15.845703 L 19.103516 13.238281 z M 16.707031 13.851562 C 16.605683 13.838836 16.487543 13.848034 16.355469 13.880859 C 15.827173 14.012159 15.539062 14.397512 15.539062 14.945312 L 15.539062 16.726562 C 15.539062 17.274463 15.827173 17.514113 16.355469 17.382812 C 16.883765 17.251512 17.173828 16.868213 17.173828 16.320312 L 17.173828 14.539062 C 17.173828 14.128212 17.011077 13.889742 16.707031 13.851562 z M 14.798828 14.326172 C 14.698855 14.313108 14.581293 14.322644 14.449219 14.355469 C 13.920923 14.486769 13.648437 14.868216 13.648438 15.416016 L 13.648438 17.195312 C 13.648438 17.743213 13.920923 17.988722 14.449219 17.857422 C 14.977515 17.726122 15.251953 17.344775 15.251953 16.796875 L 15.251953 16.341797 L 14.744141 16.46875 L 14.744141 16.957031 C 14.744141 17.201631 14.636051 17.316775 14.464844 17.359375 C 14.293637 17.402375 14.185547 17.340103 14.185547 17.095703 L 14.185547 15.248047 C 14.185547 15.003447 14.293637 14.882344 14.464844 14.839844 C 14.636051 14.796844 14.744141 14.865175 14.744141 15.109375 L 14.744141 15.476562 L 15.251953 15.349609 L 15.251953 15.017578 C 15.251953 14.606728 15.098746 14.365364 14.798828 14.326172 z M 16.472656 14.359375 C 16.575151 14.371525 16.634766 14.455522 16.634766 14.638672 L 16.634766 16.488281 C 16.634766 16.732881 16.526676 16.852031 16.355469 16.894531 C 16.184262 16.937531 16.078125 16.871253 16.078125 16.626953 L 16.078125 14.777344 C 16.078125 14.532744 16.184262 14.413694 16.355469 14.371094 C 16.39827 14.360344 16.438491 14.355325 16.472656 14.359375 z M 12.935547 14.789062 C 12.836721 14.775708 12.720695 14.783881 12.589844 14.816406 C 12.06644 14.946606 11.798828 15.3272 11.798828 15.875 C 11.798828 16.8534 12.849609 16.723334 12.849609 17.427734 C 12.849609 17.672334 12.741519 17.787578 12.570312 17.830078 C 12.399105 17.873078 12.292969 17.810806 12.292969 17.566406 L 12.292969 17.322266 L 11.783203 17.449219 L 11.783203 17.660156 C 11.783203 18.208056 12.057641 18.451613 12.585938 18.320312 C 13.114233 18.188913 13.388672 17.807666 13.388672 17.259766 C 13.388672 16.281466 12.335938 16.411431 12.335938 15.707031 C 12.335938 15.462431 12.434259 15.345334 12.605469 15.302734 C 12.776676 15.259734 12.875 15.329619 12.875 15.574219 L 12.875 15.714844 L 13.382812 15.589844 L 13.382812 15.480469 C 13.382812 15.069619 13.232025 14.829127 12.935547 14.789062 z M 11.478516 15.132812 L 10.939453 15.267578 L 10.939453 18.691406 L 11.478516 18.556641 L 11.478516 15.132812 z M 10.146484 15.519531 C 10.046053 15.507961 9.9294416 15.517331 9.7949219 15.550781 L 8.9433594 15.763672 L 8.9433594 19.1875 L 9.7949219 18.976562 C 10.333001 18.842762 10.595703 18.477587 10.595703 17.929688 L 10.595703 16.199219 C 10.595703 15.788294 10.447778 15.554242 10.146484 15.519531 z M 9.9003906 16.03125 C 10.00151 16.042289 10.058594 16.125219 10.058594 16.308594 L 10.058594 18.087891 C 10.058594 18.332491 9.9563632 18.445681 9.7851562 18.488281 L 9.4804688 18.564453 L 9.4804688 16.119141 L 9.7851562 16.042969 C 9.827958 16.032219 9.8666842 16.02757 9.9003906 16.03125 z " font-family="Bebas Neue" font-weight="700" letter-spacing="0" transform="translate(0 1020.362)" word-spacing="0"/></g></svg>