<svg xmlns="http://www.w3.org/2000/svg" width="32" height="32" viewBox="0 0 32 32"><g transform="translate(0 -1020.362)"><path fill="#fc0" d="m -2.21e-4,1029.0438 21.467311,0 5.854721,7.3185 -5.854721,7.3184 -21.467311,0 z"/><path style="line-height:normal;text-indent:0;text-align:start;text-decoration-line:none;text-decoration-style:solid;text-decoration-color:#000;text-transform:none;block-progression:tb;isolation:auto;mix-blend-mode:normal" fill="#3477e0" fill-rule="evenodd" d="m 1.950858,1030.993 -0.292737,0 0,0.5319 0.585472,0 0,-0.2398 0.19517,0 0,-0.5857 -0.487892,0 z m 1.073365,0.2928 1.170944,0 0,-0.5855 -1.170944,0 z m 1.756416,0 1.170944,0 0,-0.5855 -1.170944,0 z m 1.756416,0 1.170944,0 0,-0.5855 -1.170944,0 z m 1.756416,0 1.170945,0 0,-0.5855 -1.170945,0 z m 1.756417,0 1.170944,0 0,-0.5855 -1.170944,0 z m 1.756416,0 1.170944,0 0,-0.5855 -1.170944,0 z m 1.756416,0 1.170945,0 0,-0.5855 -1.170945,0 z m 1.756417,0 1.170944,0 0,-0.5855 -1.170944,0 z m 1.756416,0 1.170944,0 0,-0.5855 -1.170944,0 z m 1.756416,0 1.170944,0 0,-0.5855 -1.170944,0 z m 1.483196,-0.035 0.712327,0.9267 0.463499,-0.3512 -0.707448,-0.9318 z m -18.657044,2.0293 0.585472,0 0,-1.1708 -0.585472,0 z m 19.725532,-0.6342 0.712324,0.932 0.463499,-0.3561 -0.712324,-0.9319 z m 1.063607,1.3955 0.712324,0.932 0.463499,-0.3562 -0.707445,-0.9318 z m -20.789139,0.9954 0.585472,0 0,-1.171 -0.585472,0 z m 21.857625,0.4 0.712326,0.932 0.463499,-0.3562 -0.712326,-0.9318 z m -21.857625,1.3564 0.585472,0 0,-1.1709 -0.585472,0 z m 21.764926,0.6147 0.463499,0.3563 0.712324,-0.932 -0.468378,-0.3563 z m -21.764926,1.1416 0.585472,0 0,-1.1709 -0.585472,0 z m 20.696441,0.2538 0.468377,0.3562 0.707445,-0.9321 -0.463499,-0.3561 z m -20.696441,1.5028 0.585472,0 0,-1.1711 -0.585472,0 z m 19.632831,-0.1075 0.463499,0.3562 0.712324,-0.932 -0.468378,-0.3512 z m -1.034333,1.3515 0.175636,0.1374 0,0.3364 0.05855,0 0.146359,0 0.08783,-0.1174 0.673292,-0.888 -0.463499,-0.3512 z m -18.598498,0.1798 0,0.2925 0.292737,0 0.331767,0 0,-0.5853 -0.03904,0 0,-0.5465 -0.585473,0 z m 1.209976,0.2925 1.170944,0 0,-0.5853 -1.170944,0 z m 1.756416,0 1.170944,0 0,-0.5853 -1.170944,0 z m 1.756416,0 1.170944,0 0,-0.5853 -1.170944,0 z m 1.756417,0 1.170944,0 0,-0.5853 -1.170944,0 z m 1.756416,0 1.170944,0 0,-0.5853 -1.170944,0 z m 1.756416,0 1.170944,0 0,-0.5853 -1.170944,0 z m 1.756416,0 1.170945,0 0,-0.5853 -1.170945,0 z m 1.756417,0 1.170944,0 0,-0.5853 -1.170944,0 z m 1.756416,0 1.170944,0 0,-0.5853 -1.170944,0 z m 1.756416,0 1.170945,0 0,-0.5853 -1.170945,0 z" color="#000" font-family="sans-serif" font-weight="400" overflow="visible" white-space="normal"/><circle cx="21.467" cy="1036.362" r=".976" fill="#f2f2f2"/><path style="line-height:125%;-inkscape-font-specification:'Bebas Neue Bold'" fill="#3477e0" d="M 7.0429688 13.091797 C 6.1739407 13.091797 5.7285156 13.611884 5.7285156 14.521484 C 5.7285156 16.145884 7.4746094 16.365556 7.4746094 17.535156 C 7.4746094 17.941256 7.2959803 18.087891 7.0117188 18.087891 C 6.7274572 18.087891 6.5488281 17.941256 6.5488281 17.535156 L 6.5488281 17.128906 L 5.703125 17.128906 L 5.703125 17.478516 C 5.703125 18.388216 6.1580065 18.908203 7.0351562 18.908203 C 7.912306 18.908203 8.3671875 18.388216 8.3671875 17.478516 C 8.3671875 15.854216 6.6210938 15.634344 6.6210938 14.464844 C 6.6210938 14.058744 6.7840979 13.904297 7.0683594 13.904297 C 7.3526209 13.904297 7.515625 14.058744 7.515625 14.464844 L 7.515625 14.701172 L 8.359375 14.701172 L 8.359375 14.521484 C 8.359375 13.611884 7.9119969 13.091797 7.0429688 13.091797 z M 9.5449219 13.158203 L 8.6367188 18.84375 L 9.4570312 18.84375 L 9.6113281 17.810547 L 10.707031 17.810547 L 10.861328 18.84375 L 11.763672 18.84375 L 10.853516 13.158203 L 9.5449219 13.158203 z M 12.171875 13.158203 L 12.171875 18.84375 L 14.535156 18.84375 L 14.535156 18.03125 L 13.064453 18.03125 L 13.064453 13.158203 L 12.171875 13.158203 z M 14.931641 13.158203 L 14.931641 18.84375 L 17.367188 18.84375 L 17.367188 18.03125 L 15.824219 18.03125 L 15.824219 16.365234 L 17.050781 16.365234 L 17.050781 15.552734 L 15.824219 15.552734 L 15.824219 13.970703 L 17.367188 13.970703 L 17.367188 13.158203 L 14.931641 13.158203 z M 10.154297 14.164062 L 10.585938 17.039062 L 9.7246094 17.039062 L 10.154297 14.164062 z " font-family="Bebas Neue" font-size="8.122" font-weight="700" letter-spacing="0" transform="translate(0 1020.362)" word-spacing="0"/><path style="line-height:normal;text-indent:0;text-align:start;text-decoration-line:none;text-decoration-style:solid;text-decoration-color:#000;text-transform:none;block-progression:tb;isolation:auto;mix-blend-mode:normal" fill="#3477e0" fill-rule="evenodd" d="m 24.607611,1032.96 0.615768,0.7916 c 0,0 0.486525,-0.087 0.61962,0.1474 0.133094,0.2323 0.01474,0.3707 0,0.4207 -0.02968,0.1049 -0.289788,0.4458 -0.726962,0.7269 -0.437173,0.281 -1.015094,0.5266 -1.556381,0.644 -0.541285,0.1174 -1.038991,0.09 -1.297796,-0.025 -0.760995,-0.338 -1.268296,0.8033 -0.507409,1.1415 0.644081,0.2871 1.366494,0.2548 2.068668,0.1024 0.702175,-0.1523 1.3902,-0.4447 1.966212,-0.8149 0.576012,-0.3702 1.071509,-0.7963 1.253886,-1.4343 0.09118,-0.3189 0.06502,-0.7094 -0.121978,-1.0245 -0.546531,-0.9476 -1.400382,-0.9386 -2.147745,-0.7823 z" color="#000" font-family="sans-serif" font-weight="400" overflow="visible" white-space="normal"/><path style="line-height:normal;text-indent:0;text-align:start;text-decoration-line:none;text-decoration-style:solid;text-decoration-color:#000;text-transform:none;block-progression:tb;isolation:auto;mix-blend-mode:normal" fill="#3477e0" fill-rule="evenodd" d="m 28.887454,1033.4081 c -1.008572,0 -2.361406,0.1799 -2.361406,0.1799 a 0.62456603,0.62456603 0 1 0 0.156126,1.2392 c 0,0 1.353215,-0.1698 2.20528,-0.1698 0.738149,0 2.28822,0.4049 2.28822,0.4049 a 0.62456603,0.62456603 0 1 0 0.341525,-1.2 c 0,0 -1.507258,-0.4539 -2.629745,-0.4539 z" color="#000" font-family="sans-serif" font-weight="400" overflow="visible" white-space="normal"/></g></svg>