<svg xmlns="http://www.w3.org/2000/svg" width="32" height="32" viewBox="0 0 32 32"><g transform="translate(0 -1020.362)"><path fill="#ff1e55" d="m 2.8445854e-6,1033.3177 8.8214600554146,0 -0.6957753,10.8342 -7.86750466,0 z"/><circle cx="4.411" cy="1035.349" r=".677" fill="#f2f2f2"/><path style="line-height:normal;text-indent:0;text-align:start;text-decoration-line:none;text-decoration-style:solid;text-decoration-color:#000;text-transform:none;block-progression:tb;isolation:auto;mix-blend-mode:normal" fill="#fc0" fill-rule="evenodd" d="m 4.2739167,1028.9171 a 0.20316244,0.20316244 0 0 0 -0.2023431,0.2051 c -0.018825,1.9339 0.1090263,4.3515 0.095219,5.6643 a 0.20316244,0.20316244 0 1 0 0.4060201,0.01 c 0.014152,-1.3441 -0.113807,-3.7519 -0.095226,-5.6645 a 0.20316244,0.20316244 0 0 0 -0.2036702,-0.209 z" color="#000" font-family="sans-serif" font-weight="400" overflow="visible" white-space="normal"/><path style="line-height:normal;text-indent:0;text-align:start;text-decoration-line:none;text-decoration-style:solid;text-decoration-color:#000;text-transform:none;block-progression:tb;isolation:auto;mix-blend-mode:normal" fill="#fc0" fill-rule="evenodd" d="M4.7381303 1033.1123a.20316244.20316244 0 0 0-.1415088.349l.6771403.6772a.20316244.20316244 0 1 0 .2869857-.2871l-.6771404-.6771a.20316244.20316244 0 0 0-.1454768-.062zM3.9062565 1032.4919c-.385821-.1576-.7642003-.097-.998518.082-.1171656.09-.2065887.2236-.1983818.3809.00813.1562.1195491.2931.2803768.3835.3902292.2265.8236938.1652 1.235253.026a.16930203.16930203 0 0 0 .1044828-.036.16930203.16930203 0 0 0 .00928-.01.16930203.16930203 0 0 0 .00406-.01.16930203.16930203 0 0 0 .00792-.01.16930203.16930203 0 0 0 .00406-.01.16930203.16930203 0 0 0 .00677-.01.16930203.16930203 0 0 0 .00406-.01.16930203.16930203 0 0 0 .00677-.01.16930203.16930203 0 0 0 .00271-.01.16930203.16930203 0 0 0 .00542-.01.16930203.16930203 0 0 0 .00271-.01.16930203.16930203 0 0 0 .00406-.011.16930203.16930203 0 0 0 .00271-.01.16930203.16930203 0 0 0 .00271-.011.16930203.16930203 0 0 0-.013204-.1256c-.00474-.1114-.00609-.2226-.070098-.3201-.080336-.1221-.2048553-.2005-.3888208-.2949a.16930203.16930203 0 0 0-.013204-.01zm-.1309319.3134c.1542188.081.2264629.1376.2499597.1733.00609.01.00474.043.00928.055-.3248784.097-.625996.1584-.8768427.012a.16930203.16930203 0 0 0-.00271 0c-.099655-.055-.1063585-.092-.1071236-.1071-.0006772-.015.00867-.05.066157-.094.1142945-.088.3822119-.1502.661275-.039z" color="#000" font-family="sans-serif" font-weight="400" overflow="visible" white-space="normal"/><path style="line-height:normal;text-indent:0;text-align:start;text-decoration-line:none;text-decoration-style:solid;text-decoration-color:#000;text-transform:none;block-progression:tb;isolation:auto;mix-blend-mode:normal" fill="#fc0" fill-rule="evenodd" d="m 4.8677417,1032.4682 a 0.16930203,0.16930203 0 0 0 -0.013204,0.01 c -0.1891524,0.097 -0.3163397,0.178 -0.3980841,0.3028 -0.065953,0.1006 -0.068127,0.2147 -0.072745,0.3306 a 0.16930203,0.16930203 0 0 0 -0.010563,0.1296 0.16930203,0.16930203 0 0 0 0.00271,0.011 0.16930203,0.16930203 0 0 0 0.00271,0.01 0.16930203,0.16930203 0 0 0 0.00542,0.015 0.16930203,0.16930203 0 0 0 0.00271,0.01 0.16930203,0.16930203 0 0 0 0.00677,0.011 0.16930203,0.16930203 0 0 0 0.00135,0 0.16930203,0.16930203 0 0 0 0.00677,0.01 0.16930203,0.16930203 0 0 0 0.00406,0.01 0.16930203,0.16930203 0 0 0 0.00677,0.01 0.16930203,0.16930203 0 0 0 0.010563,0.011 0.16930203,0.16930203 0 0 0 0.00271,0 0.16930203,0.16930203 0 0 0 0.00406,0 0.16930203,0.16930203 0 0 0 0.1044828,0.039 c 0.4247431,0.1448 0.8717438,0.2103 1.2736063,-0.024 3.589e-4,-10e-5 -3.657e-4,0 0,0 0.1657504,-0.093 0.2787042,-0.2333 0.2869856,-0.3928 0.00833,-0.1599 -0.082625,-0.2955 -0.2023431,-0.3876 -0.2394436,-0.1841 -0.6278513,-0.2483 -1.0236466,-0.086 z m 0.1322523,0.3134 c 0.2887597,-0.1165 0.5656018,-0.051 0.6850765,0.041 0.060062,0.046 0.071032,0.084 0.070091,0.1018 -6.772e-4,0.018 -0.010225,0.058 -0.1137325,0.1164 a 0.16930203,0.16930203 0 0 0 -0.00271,0 c -0.2610038,0.1531 -0.572705,0.09 -0.9099074,-0.012 0.00474,-0.016 0.00271,-0.054 0.010563,-0.066 0.02519,-0.039 0.1009549,-0.099 0.2605433,-0.1825 z" color="#000" font-family="sans-serif" font-weight="400" overflow="visible" white-space="normal"/><path style="line-height:normal;text-indent:0;text-align:start;text-decoration-line:none;text-decoration-style:solid;text-decoration-color:#000;text-transform:none;block-progression:tb;isolation:auto;mix-blend-mode:normal" fill="#e20c45" fill-rule="evenodd" d="M6.9084194 1038.2027c-.089958 0-.1792594.035-.2473188.1032-.1363896.1364-.1363964.3595 0 .4958l.01984.02.4377645.4444.4390782-.4444.01984-.02c.1364031-.1364.1363896-.3595 0-.4958-.1156691-.1157-.2858751-.081-.4205651 0-.068208-.068-.1589723-.1032-.2486392-.1032zm0 .1693c.046452 0 .092213.018.1282842.054l.082002.082.083315-.082c.072183-.071.1848119-.072.2565752 0 .072143.072.072143.1844 0 .2565l-.01984.02-.31873.3227-.3200571-.3227-.01984-.02c-.072149-.072-.072143-.1844 0-.2565.036227-.036.082117-.054.1282842-.054zM.81415583 1038.8798c-.0899581 0-.17925938.035-.24731876.1032-.13638962.1364-.13639639.3595 0 .496l.0198402.02.43776453.4443.4390782-.4443.01984-.02c.1364031-.1365.1363896-.3596 0-.496-.1156692-.1157-.2858752-.081-.4205652 0-.0682083-.068-.15897225-.1032-.24863918-.1032zm0 .1693c.0464518 0 .092213.018.12828424.054l.0820017.082.083315-.082c.072183-.071.1848119-.072.2565752 0 .072143.072.072143.1844 0 .2566l-.01984.02-.31873.3227-.32005708-.3227-.0198402-.02c-.0721493-.072-.0721425-.1844 0-.2566.036227-.036.0821168-.054.12828424-.054zM4.1998578 1037.6711c-.089958 0-.1792594.036-.2473187.1031-.1363897.1364-.1363964.3596 0 .4958l0 0 .01984.018.4377645.4445.4390781-.4445.01984-.018 0 0c.1364032-.1362.1363896-.3595 0-.4958-.1156691-.1157-.2858751-.081-.4205651 0-.068208-.068-.1589723-.1031-.2486392-.1031zm0 .1693c.046452 0 .092213.018.1282843.054l.082002.082.083315-.082c.072183-.071.1848119-.072.2565753 0 .072142.072.072142.1844 0 .2566l-.01984.02-.31873.3226-.3200572-.3226-.01984-.02c-.072149-.072-.072143-.1846 0-.2566.036227-.036.082117-.054.1282842-.054zM2.1684366 1035.4941c-.089958 0-.1792593.035-.2473187.1032-.1363896.1364-.1363964.3595 0 .496l.01984.02.4377645.4443.4390781-.4443.01984-.02c.1364031-.1365.1363896-.3596 0-.496-.1156692-.1157-.2858752-.081-.4205652 0-.068208-.068-.1589722-.1032-.2486392-.1032zm0 .1693c.046452 0 .092213.018.1282843.054l.082002.082.083315-.082c.072183-.071.184812-.072.2565753 0 .072142.072.072142.1844 0 .2566l-.01984.02-.31873.3227-.3200572-.3227-.01984-.02c-.072149-.072-.072142-.1844 0-.2566.036227-.036.082117-.054.1282843-.054zM5.5541386 1036.3168c-.089958 0-.1792594.036-.2473188.1031-.1363896.1365-.1363963.3596 0 .496l0 0 .01984.018.4377644.4444.4390782-.4444.01984-.018 0 0c.1364032-.1364.1363896-.3595 0-.496-.1156691-.1156-.2858751-.081-.4205651 0-.068208-.068-.1589723-.1031-.2486392-.1031zm0 .1693c.046452 0 .092213.018.1282842.054l.082002.082.083315-.082c.072183-.071.1848119-.072.2565753 0 .072142.072.072142.1844 0 .2566l-.01984.02-.3187299.3226-.3200572-.3226-.01984-.02c-.072149-.072-.072143-.1844 0-.2566.036227-.036.082117-.054.1282842-.054zM2.845577 1040.3795c-.089958 0-.1792593.036-.2473187.1032-.1363896.1365-.1363964.3596 0 .4959l0 0 .01984.018.4377645.4445.4390781-.4445.01984-.018 0 0c.1364032-.1364.1363897-.3595 0-.4959-.1156691-.1157-.2858751-.081-.4205651 0-.068208-.068-.1589722-.1032-.2486392-.1032zm0 .1694c.046452 0 .092213.018.1282843.054l.082002.082.083315-.082c.072183-.071.184812-.072.2565753 0 .072142.072.072142.1844 0 .2566l-.01984.02-.31873.3226-.3200572-.3226-.01984-.02c-.072149-.072-.072142-.1846 0-.2566.036227-.036.082117-.054.1282843-.054zM4.8769982 1041.7815c-.089958 0-.1792594.036-.2473188.1031-.1363896.1365-.1363963.3596 0 .4961l.01984.02.4377645.4444.4390781-.4444.01984-.02c.1364032-.1365.1363896-.3596 0-.4961-.1156691-.1156-.2858751-.081-.4205651 0-.068208-.068-.1589723-.1031-.2486392-.1031zm0 .1693c.046452 0 .092213.018.1282843.054l.082002.082.083315-.082c.072183-.071.1848119-.072.2565753 0 .072142.072.072142.1844 0 .2565l-.01984.02-.31873.3226-.3200572-.3226-.01984-.02c-.072149-.072-.072142-.1844 0-.2565.036227-.036.082117-.054.1282842-.054zM1.4912963 1042.4111c-.089958 0-.1792594.036-.2473188.1031-.1363896.1364-.1363964.3595 0 .4958l0 0 .01984.018.4377645.4445.4390781-.4445.01984-.018 0 0c.1364031-.1364.1363896-.3595 0-.4958-.1156692-.1157-.2858752-.081-.4205652 0-.068208-.068-.1589722-.1031-.2486391-.1031zm0 .1692c.046452 0 .092213.018.1282842.054l.082002.082.083315-.082c.072183-.071.1848119-.072.2565752 0 .072143.072.072143.1844 0 .2566l-.01984.02-.31873.3227-.3200571-.3227-.01984-.02c-.072149-.072-.072142-.1845 0-.2566.036227-.036.082117-.054.1282843-.054zM6.9084194 1040.9112c-.089958 0-.1792594.035-.2473188.1032-.1363896.1363-.1363964.3595 0 .4959l.01984.02.4377645.4444.4390782-.4444.01984-.02c.1364031-.1365.1363896-.3596 0-.4959-.1156691-.1158-.2858751-.081-.4205651 0-.068208-.068-.1589723-.1032-.2486392-.1032zm0 .1693c.046452 0 .092213.018.1282842.054l.082002.082.083315-.082c.072183-.071.1848119-.072.2565752 0 .072143.072.072143.1845 0 .2566l-.01984.02-.31873.3226-.3200571-.3226-.01984-.02c-.072149-.072-.072143-.1845 0-.2566.036227-.036.082117-.054.1282842-.054zM6.9084194 1034.6715c-.089958 0-.1792594.036-.2473188.1032-.1363896.1364-.1363964.3595 0 .496l.01984.02.4377645.4444.4390782-.4444.01984-.02c.1364031-.1365.1363896-.3596 0-.496-.1156691-.1157-.2858751-.081-.4205651 0-.068208-.068-.1589723-.1032-.2486392-.1032zm0 .1693c.046452 0 .092213.018.1282842.054l.082002.082.083315-.082c.072183-.071.1848119-.072.2565752 0 .072143.072.072143.1844 0 .2566l-.01984.02-.31873.3227-.3200571-.3227-.01984-.02c-.072149-.072-.072143-.1845 0-.2566.036227-.036.082117-.054.1282842-.054zM.81415583 1034.2853c-.0899581 0-.17925938.036-.24731876.1032-.13638962.1364-.13639639.3596 0 .4958l0 0 .0198402.018.43776453.4445.4390782-.4445.01984-.018 0 0c.1364031-.1362.1363896-.3595 0-.4958-.1156692-.1158-.2858752-.081-.4205652 0-.0682083-.068-.15897225-.1032-.24863918-.1032zm0 .1694c.0464518 0 .092213.018.12828424.054l.0820017.082.083315-.082c.072183-.071.1848119-.072.2565752 0 .072143.072.072143.1844 0 .2566l-.01984.02-.31873.3226-.32005708-.3226-.0198402-.02c-.0721493-.072-.0721425-.1846 0-.2566.036227-.036.0821168-.054.12828424-.054z" color="#000" font-family="sans-serif" font-weight="400" overflow="visible" white-space="normal"/><path fill="#fc0" d="m 16.907667,1030.8976 7.797063,0 -0.614978,9.5762 -6.953886,0 z"/><circle cx="20.806" cy="1032.693" r=".599" fill="#f2f2f2"/><path style="line-height:normal;text-indent:0;text-align:start;text-decoration-line:none;text-decoration-style:solid;text-decoration-color:#000;text-transform:none;block-progression:tb;isolation:auto;mix-blend-mode:normal" fill="#13b53e" fill-rule="evenodd" d="m 20.68527,1027.0081 a 0.17957007,0.17957007 0 0 0 -0.178846,0.1813 c -0.01664,1.7093 0.09637,3.8463 0.08416,5.0066 a 0.17957007,0.17957007 0 1 0 0.358871,0.01 c 0.01251,-1.188 -0.100591,-3.3162 -0.08417,-5.0067 a 0.17957007,0.17957007 0 0 0 -0.180019,-0.1847 z" color="#000" font-family="sans-serif" font-weight="400" overflow="visible" white-space="normal"/><path style="line-height:normal;text-indent:0;text-align:start;text-decoration-line:none;text-decoration-style:solid;text-decoration-color:#000;text-transform:none;block-progression:tb;isolation:auto;mix-blend-mode:normal" fill="#13b53e" fill-rule="evenodd" d="M21.095577 1030.7162a.17957007.17957007 0 0 0-.125076.3086l.598507.5985a.17957007.17957007 0 1 0 .253659-.2537l-.598507-.5985a.17957007.17957007 0 0 0-.128583-.055zM20.360305 1030.1679c-.341018-.1392-.675457-.086-.882565.072-.103559.079-.182598.1976-.175344.3367.0072.138.105666.2591.247818.339.344913.2002.728041.146 1.091808.023a.14964172.14964172 0 0 0 .09235-.032.14964172.14964172 0 0 0 .0082-.01.14964172.14964172 0 0 0 .0036-.01.14964172.14964172 0 0 0 .007-.01.14964172.14964172 0 0 0 .0036-.01.14964172.14964172 0 0 0 .006-.01.14964172.14964172 0 0 0 .0036-.01.14964172.14964172 0 0 0 .006-.01.14964172.14964172 0 0 0 .0024-.01.14964172.14964172 0 0 0 .0048-.01.14964172.14964172 0 0 0 .0024-.01.14964172.14964172 0 0 0 .0036-.01.14964172.14964172 0 0 0 .0024-.01.14964172.14964172 0 0 0 .0024-.01.14964172.14964172 0 0 0-.01167-.111c-.0042-.099-.0054-.1967-.06196-.2829-.07101-.108-.181066-.1773-.343669-.2607a.14964172.14964172 0 0 0-.01167-.01zm-.115728.2771c.13631.071.200165.1215.220933.1531.0054.01.0042.038.0082.049-.287152.085-.553302.1399-.775019.011a.14964172.14964172 0 0 0-.0024 0c-.08808-.049-.09401-.082-.09468-.095-.000598-.013.0077-.044.05847-.083.101022-.077.337828-.1328.584484-.034z" color="#000" font-family="sans-serif" font-weight="400" overflow="visible" white-space="normal"/><path style="line-height:normal;text-indent:0;text-align:start;text-decoration-line:none;text-decoration-style:solid;text-decoration-color:#000;text-transform:none;block-progression:tb;isolation:auto;mix-blend-mode:normal" fill="#13b53e" fill-rule="evenodd" d="m 21.210137,1030.1468 a 0.14964172,0.14964172 0 0 0 -0.01167,0.01 c -0.167187,0.086 -0.279605,0.1575 -0.351856,0.2678 -0.05829,0.089 -0.06022,0.1898 -0.0643,0.2923 a 0.14964172,0.14964172 0 0 0 -0.0093,0.1145 0.14964172,0.14964172 0 0 0 0.0024,0.01 0.14964172,0.14964172 0 0 0 0.0024,0.01 0.14964172,0.14964172 0 0 0 0.0048,0.013 0.14964172,0.14964172 0 0 0 0.0024,0.01 0.14964172,0.14964172 0 0 0 0.006,0.01 0.14964172,0.14964172 0 0 0 0.0012,0 0.14964172,0.14964172 0 0 0 0.006,0.01 0.14964172,0.14964172 0 0 0 0.0036,0.01 0.14964172,0.14964172 0 0 0 0.006,0.01 0.14964172,0.14964172 0 0 0 0.0093,0.01 0.14964172,0.14964172 0 0 0 0.0024,0 0.14964172,0.14964172 0 0 0 0.0036,0 0.14964172,0.14964172 0 0 0 0.09235,0.034 c 0.37542,0.128 0.770512,0.1858 1.125708,-0.021 3.17e-4,-2e-4 -3.23e-4,0 0,0 0.146503,-0.082 0.24634,-0.2063 0.253659,-0.3472 0.0074,-0.1413 -0.07303,-0.2611 -0.178845,-0.3425 -0.211639,-0.1627 -0.554942,-0.2195 -0.904776,-0.076 z m 0.116894,0.2771 c 0.255228,-0.1029 0.499921,-0.045 0.605522,0.037 0.05309,0.041 0.06278,0.074 0.06195,0.09 -5.98e-4,0.016 -0.009,0.052 -0.100525,0.103 a 0.14964172,0.14964172 0 0 0 -0.0024,0 c -0.230695,0.1351 -0.506199,0.079 -0.804244,-0.01 0.0042,-0.014 0.0024,-0.048 0.0093,-0.059 0.02226,-0.034 0.08923,-0.087 0.230287,-0.1612 z" color="#000" font-family="sans-serif" font-weight="400" overflow="visible" white-space="normal"/><path style="line-height:normal;text-indent:0;text-align:start;text-decoration-line:none;text-decoration-style:solid;text-decoration-color:#000;text-transform:none;block-progression:tb;isolation:auto;mix-blend-mode:normal" fill="#ff9500" fill-rule="evenodd" d="M23.01384 1035.2155c-.07951 0-.158443.031-.218599.091-.120551.1205-.120557.3178 0 .4384l.01754.017.386929.3929.38809-.3929.01754-.017c.120563-.1206.120551-.3179 0-.4384-.102237-.1023-.252678-.071-.371727 0-.06029-.06-.140511-.091-.219765-.091zm0 .1495c.04106 0 .0815.016.113387.048l.07248.072.07364-.072c.0638-.063.163351-.063.226781 0 .06377.064.06377.163 0 .2268l-.01754.017-.281717.2853-.28289-.2853-.01754-.017c-.06377-.064-.06376-.163 0-.2268.03202-.032.07258-.048.113388-.048zM17.627276 1035.814c-.07951 0-.158443.031-.218598.091-.120552.1206-.120558.3179 0 .4384l.01754.017.386929.3928.38809-.3928.01754-.017c.120563-.1205.120551-.3178 0-.4384-.102237-.1023-.252678-.071-.371727 0-.06029-.06-.140511-.091-.219766-.091zm0 .1496c.04106 0 .0815.016.113387.048l.07248.072.07364-.072c.0638-.063.16335-.063.22678 0 .06377.064.06377.163 0 .2267l-.01754.017-.281717.2853-.282891-.2853-.01754-.017c-.06377-.064-.06377-.163 0-.2267.03202-.032.07258-.048.113387-.048zM20.619811 1034.7455c-.07951 0-.158442.032-.218598.091-.120552.1206-.120558.3178 0 .4383l0 0 .01754.016.386929.3929.38809-.3929.01754-.016 0 0c.120563-.1205.120551-.3177 0-.4383-.102237-.1023-.252678-.071-.371727 0-.06029-.06-.140511-.091-.219766-.091zm0 .1496c.04106 0 .0815.016.113388.048l.07248.072.07364-.072c.0638-.063.163351-.063.22678 0 .06377.064.06377.163 0 .2268l-.01754.017-.281717.2852-.28289-.2852-.01754-.017c-.06377-.064-.06377-.163 0-.2268.03202-.032.07258-.048.113387-.048zM18.82429 1032.8215c-.07951 0-.158442.031-.218598.091-.120552.1205-.120558.3177 0 .4383l.01754.017.386929.3928.38809-.3928.01754-.017c.120563-.1206.120551-.3178 0-.4383-.102237-.1023-.252678-.071-.371727 0-.06029-.06-.140511-.091-.219766-.091zm0 .1495c.04106 0 .0815.016.113387.048l.07248.072.07364-.072c.0638-.063.163351-.063.22678 0 .06377.064.06377.163 0 .2268l-.01754.017-.281717.2853-.282891-.2853-.01754-.017c-.06377-.064-.06377-.163 0-.2268.03202-.032.07258-.048.113387-.048zM21.816826 1033.5486c-.07951 0-.158443.032-.218599.091-.120551.1206-.120557.3179 0 .4384l0 0 .01754.016.386929.3928.38809-.3928.01754-.016 0 0c.120563-.1205.120551-.3178 0-.4384-.102237-.1022-.252678-.071-.371727 0-.06029-.06-.140511-.091-.219765-.091zm0 .1496c.04106 0 .0815.016.113387.048l.07248.072.07364-.072c.0638-.063.163351-.063.22678 0 .06377.064.06377.163 0 .2267l-.01754.017-.281717.2852-.28289-.2852-.01754-.017c-.06377-.064-.06377-.1631 0-.2267.03202-.032.07258-.048.113388-.048zM19.422797 1037.1395c-.07951 0-.158442.032-.218598.091-.120552.1206-.120558.3178 0 .4383l0 0 .01754.016.386929.3929.38809-.3929.01754-.016 0 0c.120563-.1205.120551-.3177 0-.4383-.102237-.1022-.252678-.071-.371727 0-.06029-.06-.140511-.091-.219766-.091zm0 .1497c.04106 0 .0815.016.113388.048l.07248.072.07364-.072c.0638-.063.163351-.063.22678 0 .06377.064.06377.163 0 .2268l-.01754.017-.281717.2852-.282891-.2852-.01754-.017c-.06377-.064-.06377-.163 0-.2268.03202-.032.07258-.048.113387-.048zM21.218318 1038.3786c-.07951 0-.158442.032-.218598.091-.120552.1206-.120558.3178 0 .4384l.01754.017.386929.3929.38809-.3929.01754-.017c.120563-.1206.120551-.3178 0-.4384-.102237-.1022-.252678-.071-.371727 0-.06029-.06-.140511-.091-.219766-.091zm0 .1497c.04106 0 .0815.016.113388.048l.07248.072.07364-.072c.0638-.063.163351-.063.22678 0 .06377.064.06377.163 0 .2268l-.01754.017-.281717.2852-.28289-.2852-.01754-.017c-.06377-.064-.06377-.163 0-.2268.03202-.032.07258-.048.113387-.048zM18.225783 1038.9352c-.07951 0-.158442.032-.218598.091-.120552.1205-.120558.3178 0 .4384l0 0 .01754.016.386929.3928.38809-.3928.01754-.016 0 0c.120563-.1206.120551-.3179 0-.4384-.102237-.1023-.252678-.071-.371727 0-.06029-.06-.140511-.091-.219766-.091zm0 .1496c.04106 0 .0815.016.113387.048l.07248.072.07364-.072c.0638-.063.16335-.063.22678 0 .06377.064.06377.1629 0 .2267l-.01754.017-.281717.2852-.282891-.2852-.01754-.017c-.06377-.064-.06377-.163 0-.2267.03202-.032.07258-.048.113387-.048zM23.01384 1037.6095c-.07951 0-.158443.031-.218599.091-.120551.1206-.120557.3178 0 .4384l.01754.017.386929.3929.38809-.3929.01754-.017c.120563-.1206.120551-.3178 0-.4384-.102237-.1022-.252678-.071-.371727 0-.06029-.06-.140511-.091-.219765-.091zm0 .1496c.04106 0 .0815.016.113387.048l.07248.072.07364-.072c.0638-.063.163351-.063.226781 0 .06377.064.06377.1631 0 .2268l-.01754.017-.281717.2852-.28289-.2852-.01754-.017c-.06377-.064-.06376-.163 0-.2268.03202-.032.07258-.048.113388-.048zM23.01384 1032.0943c-.07951 0-.158443.032-.218599.091-.120551.1206-.120557.3178 0 .4384l.01754.017.386929.3928.38809-.3928.01754-.017c.120563-.1206.120551-.3178 0-.4384-.102237-.1023-.252678-.071-.371727 0-.06029-.06-.140511-.091-.219765-.091zm0 .1496c.04106 0 .0815.016.113387.048l.07248.072.07364-.072c.0638-.063.163351-.063.226781 0 .06377.064.06377.163 0 .2268l-.01754.017-.281717.2852-.28289-.2852-.01754-.017c-.06377-.064-.06376-.163 0-.2268.03202-.032.07258-.048.113388-.048zM17.627276 1031.7531c-.07951 0-.158443.032-.218598.091-.120552.1205-.120558.3178 0 .4384l0 0 .01754.016.386929.3928.38809-.3928.01754-.016 0 0c.120563-.1206.120551-.3179 0-.4384-.102237-.1023-.252678-.071-.371727 0-.06029-.06-.140511-.091-.219766-.091zm0 .1496c.04106 0 .0815.016.113387.048l.07248.072.07364-.072c.0638-.063.16335-.063.22678 0 .06377.064.06377.163 0 .2268l-.01754.017-.281717.2852-.282891-.2852-.01754-.017c-.06377-.064-.06377-.1631 0-.2268.03202-.032.07258-.048.113387-.048z" color="#000" font-family="sans-serif" font-weight="400" overflow="visible" white-space="normal"/><path fill="#13b53e" d="m 8.3563843,1034.916 8.7935877,0 -0.693577,10.8001 -7.8426463,0 z"/><circle cx="12.753" cy="1036.941" r=".675" fill="#f2f2f2"/><path style="line-height:normal;text-indent:0;text-align:start;text-decoration-line:none;text-decoration-style:solid;text-decoration-color:#000;text-transform:none;block-progression:tb;isolation:auto;mix-blend-mode:normal" fill="#373748" fill-rule="evenodd" d="m 12.616794,1030.5294 a 0.20252053,0.20252053 0 0 0 -0.201704,0.2044 c -0.01877,1.9278 0.108682,4.3379 0.09492,5.6465 a 0.20252053,0.20252053 0 1 0 0.404737,0.01 c 0.01411,-1.3398 -0.113447,-3.74 -0.09492,-5.6466 a 0.20252053,0.20252053 0 0 0 -0.203027,-0.2083 z" color="#000" font-family="sans-serif" font-weight="400" overflow="visible" white-space="normal"/><path style="line-height:normal;text-indent:0;text-align:start;text-decoration-line:none;text-decoration-style:solid;text-decoration-color:#000;text-transform:none;block-progression:tb;isolation:auto;mix-blend-mode:normal" fill="#373748" fill-rule="evenodd" d="M13.079541 1034.7113a.20252053.20252053 0 0 0-.141062.348l.675001.675a.20252053.20252053 0 1 0 .286079-.2861l-.675001-.675a.20252053.20252053 0 0 0-.145017-.062zM12.250296 1034.0929c-.384602-.157-.761786-.097-.995363.082-.116796.089-.205936.2229-.197755.3797.0081.1558.119171.2922.27949.3823.388997.2258.821092.1648 1.231351.026a.1687671.1687671 0 0 0 .104152-.036.1687671.1687671 0 0 0 .0092-.01.1687671.1687671 0 0 0 .004-.01.1687671.1687671 0 0 0 .0079-.01.1687671.1687671 0 0 0 .004-.01.1687671.1687671 0 0 0 .0068-.01.1687671.1687671 0 0 0 .0041-.01.1687671.1687671 0 0 0 .0067-.01.1687671.1687671 0 0 0 .0027-.01.1687671.1687671 0 0 0 .0054-.01.1687671.1687671 0 0 0 .0027-.01.1687671.1687671 0 0 0 .004-.011.1687671.1687671 0 0 0 .0027-.01.1687671.1687671 0 0 0 .0027-.011.1687671.1687671 0 0 0-.01316-.1252c-.0047-.1111-.0061-.2219-.06988-.3191-.08008-.1218-.204208-.1999-.387593-.294a.1687671.1687671 0 0 0-.01316-.01zm-.130519.3125c.153732.08.225748.1371.24917.1727.0061.01.0047.043.0092.055-.323852.096-.624018.1578-.874072.012a.1687671.1687671 0 0 0-.0027 0c-.09934-.055-.106023-.092-.106786-.1068-.000675-.015.0086-.05.06595-.093.113933-.087.381004-.1498.659186-.039z" color="#000" font-family="sans-serif" font-weight="400" overflow="visible" white-space="normal"/><path style="line-height:normal;text-indent:0;text-align:start;text-decoration-line:none;text-decoration-style:solid;text-decoration-color:#000;text-transform:none;block-progression:tb;isolation:auto;mix-blend-mode:normal" fill="#373748" fill-rule="evenodd" d="m 13.208743,1034.0693 a 0.1687671,0.1687671 0 0 0 -0.01316,0.01 c -0.188554,0.097 -0.31534,0.1775 -0.396826,0.3019 -0.06574,0.1004 -0.06791,0.214 -0.07251,0.3296 a 0.1687671,0.1687671 0 0 0 -0.01053,0.1292 0.1687671,0.1687671 0 0 0 0.0027,0.011 0.1687671,0.1687671 0 0 0 0.0027,0.01 0.1687671,0.1687671 0 0 0 0.0054,0.015 0.1687671,0.1687671 0 0 0 0.0027,0.01 0.1687671,0.1687671 0 0 0 0.0068,0.011 0.1687671,0.1687671 0 0 0 0.0014,0 0.1687671,0.1687671 0 0 0 0.0068,0.01 0.1687671,0.1687671 0 0 0 0.004,0.01 0.1687671,0.1687671 0 0 0 0.0068,0.01 0.1687671,0.1687671 0 0 0 0.01053,0.011 0.1687671,0.1687671 0 0 0 0.0027,0 0.1687671,0.1687671 0 0 0 0.004,0 0.1687671,0.1687671 0 0 0 0.104152,0.039 c 0.423402,0.1443 0.86899,0.2097 1.269583,-0.024 3.57e-4,-2e-4 -3.65e-4,0 0,0 0.165226,-0.093 0.277823,-0.2326 0.286079,-0.3916 0.0083,-0.1594 -0.08236,-0.2945 -0.201704,-0.3863 -0.238687,-0.1835 -0.625868,-0.2475 -1.020413,-0.086 z m 0.131834,0.3124 c 0.287848,-0.116 0.563815,-0.051 0.682912,0.041 0.05987,0.046 0.07081,0.083 0.06987,0.1015 -6.75e-4,0.018 -0.01019,0.058 -0.113374,0.116 a 0.1687671,0.1687671 0 0 0 -0.0027,0 c -0.260179,0.1525 -0.570895,0.089 -0.907032,-0.011 0.0047,-0.016 0.0027,-0.054 0.01053,-0.066 0.02511,-0.039 0.100636,-0.098 0.25972,-0.1819 z" color="#000" font-family="sans-serif" font-weight="400" overflow="visible" white-space="normal"/><path style="line-height:normal;text-indent:0;text-align:start;text-decoration-line:none;text-decoration-style:solid;text-decoration-color:#000;text-transform:none;block-progression:tb;isolation:auto;mix-blend-mode:normal" fill="#18a12b" fill-rule="evenodd" d="M15.242973 1039.7856c-.08967 0-.178693.035-.246537.1029-.135959.1359-.135966.3584 0 .4944l.01978.02.436381.443.437691-.443.01978-.02c.135972-.136.135959-.3585 0-.4944-.115304-.1154-.284972-.08-.419236 0-.06799-.068-.15847-.1029-.247854-.1029zm0 .1688c.04631 0 .09192.018.127879.054l.08174.082.08305-.082c.07196-.071.184228-.072.255764 0 .07191.072.07191.1839 0 .2557l-.01978.02-.317723.3217-.319046-.3217-.01978-.02c-.07192-.072-.07191-.1838 0-.2557.03611-.036.08186-.054.127879-.054zM9.1679649 1040.4606c-.089674 0-.178693.035-.2465373.1029-.1359587.1359-.1359654.3584 0 .4944l.019778.02.4363814.443.4376908-.443.019778-.02c.1359722-.136.1359587-.3585 0-.4944-.1153036-.1154-.2849718-.08-.4192363 0-.067993-.068-.1584699-.1029-.2478536-.1029zm0 .1688c.046305 0 .091922.018.127879.054l.081743.082.083052-.082c.071955-.071.184228-.072.2557646 0 .071915.072.071915.1839 0 .2557l-.019778.02-.317723.3216-.3190459-.3216-.019778-.02c-.071921-.072-.071915-.1838 0-.2557.036112-.036.081857-.054.1278789-.054zM12.542969 1039.2557c-.08967 0-.178693.036-.246537.1028-.135959.136-.135965.3584 0 .4944l0 0 .01978.018.436382.443.437691-.443.01978-.018 0 0c.135972-.136.135959-.3584 0-.4944-.115303-.1153-.284972-.08-.419236 0-.06799-.068-.15847-.1028-.247854-.1028zm0 .1687c.04631 0 .09192.018.127879.054l.08174.082.08305-.082c.07196-.071.184228-.072.255765 0 .07191.072.07191.1838 0 .2558l-.01978.02-.317723.3216-.319046-.3216-.01978-.02c-.07192-.072-.07192-.1839 0-.2558.03611-.036.08186-.054.127879-.054zM10.517967 1037.0856c-.08967 0-.178693.035-.246538.1029-.135958.1359-.135965.3584 0 .4944l.01978.02.436381.443.437691-.443.01978-.02c.135973-.136.135959-.3585 0-.4944-.115303-.1154-.284971-.08-.419236 0-.06799-.068-.15847-.1029-.247853-.1029zm0 .1688c.04631 0 .09192.018.127878.054l.08174.082.08305-.082c.07196-.071.184228-.072.255765 0 .07191.072.07191.1838 0 .2557l-.01978.02-.317723.3216-.319046-.3216-.01978-.02c-.07192-.072-.07191-.1838 0-.2557.03611-.036.08186-.054.127879-.054zM13.892971 1037.9057c-.08967 0-.178693.036-.246537.1027-.135959.136-.135966.3584 0 .4944l0 0 .01978.018.436382.443.43769-.443.01978-.018 0 0c.135972-.136.135959-.3584 0-.4944-.115304-.1153-.284972-.08-.419236 0-.06799-.068-.15847-.1027-.247854-.1027zm0 .1686c.04631 0 .09192.018.127879.054l.08174.082.08305-.082c.07196-.071.184228-.072.255764 0 .07191.072.07191.1838 0 .2557l-.01978.02-.317723.3216-.319046-.3216-.01978-.02c-.07192-.072-.07191-.1839 0-.2557.03611-.036.08186-.054.127879-.054zM11.192967 1041.9556c-.08967 0-.178693.036-.246537.1028-.135959.136-.135965.3584 0 .4944l0 0 .01978.018.436381.443.437691-.443.01978-.018 0 0c.135973-.136.135959-.3584 0-.4944-.115303-.1153-.284972-.08-.419236 0-.06799-.068-.15847-.1028-.247854-.1028zm0 .1687c.04631 0 .09192.018.127879.054l.08174.082.08305-.082c.07196-.071.184228-.072.255765 0 .07191.072.07191.1838 0 .2557l-.01978.02-.317723.3216-.319046-.3216-.01978-.02c-.07192-.072-.07192-.1839 0-.2557.03611-.036.08186-.054.127879-.054zM13.21797 1043.3531c-.08967 0-.178693.036-.246537.1027-.135959.1361-.135966.3585 0 .4945l.01978.02.436382.443.437691-.443.01978-.02c.135972-.136.135959-.3584 0-.4945-.115304-.1152-.284972-.08-.419236 0-.06799-.068-.15847-.1027-.247854-.1027zm0 .1687c.04631 0 .09192.018.127879.054l.08174.082.08305-.082c.07196-.071.184228-.072.255764 0 .07191.072.07191.1838 0 .2557l-.01978.02-.317723.3217-.319046-.3217-.01978-.02c-.07192-.072-.07192-.1839 0-.2557.03611-.036.08186-.054.127878-.054zM9.8429658 1043.9807c-.089674 0-.1786929.036-.2465373.1027-.1359587.136-.1359654.3585 0 .4944l0 0 .019778.018.4363815.443.43769-.443.01978-.018 0 0c.135972-.1359.135958-.3584 0-.4944-.115304-.1152-.284972-.08-.419238 0-.06799-.068-.158469-.1027-.2478527-.1027zm0 .1687c.046305 0 .091922.018.127879.054l.081742.082.08305-.082c.07196-.071.184228-.072.255765 0 .07191.072.07191.1838 0 .2558l-.01978.02-.317723.3216-.3190493-.3216-.019778-.02c-.071921-.072-.071915-.1839 0-.2558.036113-.036.081857-.054.1278789-.054zM15.242973 1042.4855c-.08967 0-.178693.035-.246537.103-.135959.1359-.135966.3584 0 .4944l.01978.02.436381.4429.437691-.4429.01978-.02c.135972-.136.135959-.3585 0-.4944-.115304-.1154-.284972-.08-.419236 0-.06799-.068-.15847-.103-.247854-.103zm0 .1688c.04631 0 .09192.018.127879.054l.08174.082.08305-.082c.07196-.071.184228-.072.255764 0 .07191.072.07191.1839 0 .2557l-.01978.02-.317723.3217-.319046-.3217-.01978-.02c-.07192-.072-.07191-.1838 0-.2557.03611-.036.08186-.054.127879-.054zM15.242973 1036.2655c-.08967 0-.178693.036-.246537.1028-.135959.1361-.135966.3585 0 .4945l.01978.02.436381.443.437691-.443.01978-.02c.135972-.136.135959-.3584 0-.4945-.115304-.1153-.284972-.08-.419236 0-.06799-.068-.15847-.1028-.247854-.1028zm0 .1688c.04631 0 .09192.018.127879.054l.08174.082.08305-.082c.07196-.071.184228-.072.255764 0 .07191.072.07191.1838 0 .2557l-.01978.02-.317723.3217-.319046-.3217-.01978-.02c-.07192-.072-.07191-.1838 0-.2557.03611-.036.08186-.054.127879-.054zM9.1679649 1035.8807c-.089674 0-.178693.036-.2465373.1028-.1359587.136-.1359654.3584 0 .4944l0 0 .019778.018.4363814.443.4376908-.443.019778-.018 0 0c.1359722-.136.1359587-.3584 0-.4944-.1153036-.1153-.2849718-.08-.4192363 0-.067993-.068-.1584699-.1028-.2478536-.1028zm0 .1687c.046305 0 .091922.018.127879.054l.081743.082.083052-.082c.071955-.071.184228-.072.2557646 0 .071915.072.071915.1838 0 .2558l-.019778.02-.317723.3216-.3190459-.3216-.019778-.02c-.071921-.072-.071915-.1839 0-.2558.036112-.036.081857-.054.1278789-.054z" color="#000" font-family="sans-serif" font-weight="400" overflow="visible" white-space="normal"/><path fill="#3477e0" d="m 24.257342,1032.9016 7.742655,0 -0.610687,9.5093 -6.905362,0 z"/><circle cx="28.129" cy="1034.685" r=".594" fill="#f2f2f2"/><path style="line-height:normal;text-indent:0;text-align:start;text-decoration-line:none;text-decoration-style:solid;text-decoration-color:#000;text-transform:none;block-progression:tb;isolation:auto;mix-blend-mode:normal" fill="#ff1e55" fill-rule="evenodd" d="m 28.008585,1029.0392 a 0.17831705,0.17831705 0 0 0 -0.177598,0.18 c -0.01652,1.6974 0.09569,3.8195 0.08357,4.9717 a 0.17831705,0.17831705 0 1 0 0.356366,0.01 c 0.01242,-1.1796 -0.09989,-3.293 -0.08358,-4.9717 a 0.17831705,0.17831705 0 0 0 -0.178763,-0.1834 z" color="#000" font-family="sans-serif" font-weight="400" overflow="visible" white-space="normal"/><path style="line-height:normal;text-indent:0;text-align:start;text-decoration-line:none;text-decoration-style:solid;text-decoration-color:#000;text-transform:none;block-progression:tb;isolation:auto;mix-blend-mode:normal" fill="#ff1e55" fill-rule="evenodd" d="M28.416028 1032.7214a.17831705.17831705 0 0 0-.124203.3064l.594331.5943a.17831705.17831705 0 1 0 .251889-.2519l-.594331-.5943a.17831705.17831705 0 0 0-.127686-.055zM27.685887 1032.1769c-.338638-.1383-.670744-.086-.876406.072-.102837.079-.181324.1963-.174121.3343.0071.137.104929.2573.246089.3366.342506.1988.722961.1451 1.08419.023a.14859754.14859754 0 0 0 .09171-.031.14859754.14859754 0 0 0 .0081-.01.14859754.14859754 0 0 0 .0036-.01.14859754.14859754 0 0 0 .007-.01.14859754.14859754 0 0 0 .0036-.01.14859754.14859754 0 0 0 .0059-.01.14859754.14859754 0 0 0 .0036-.01.14859754.14859754 0 0 0 .0059-.01.14859754.14859754 0 0 0 .0024-.01.14859754.14859754 0 0 0 .0048-.01.14859754.14859754 0 0 0 .0024-.01.14859754.14859754 0 0 0 .0036-.01.14859754.14859754 0 0 0 .0024-.01.14859754.14859754 0 0 0 .0024-.01.14859754.14859754 0 0 0-.01159-.1103c-.0042-.098-.0053-.1954-.06152-.2809-.07051-.1073-.179803-.1761-.341271-.2589a.14859754.14859754 0 0 0-.01159-.01zm-.11492.2751c.135359.071.198768.1207.219391.1521.0053.01.0042.038.0081.049-.285148.085-.549441.139-.769611.011a.14859754.14859754 0 0 0-.0024 0c-.08747-.049-.09335-.081-.09402-.094-.000595-.013.0076-.044.05807-.082.100317-.077.33547-.132.580405-.034z" color="#000" font-family="sans-serif" font-weight="400" overflow="visible" white-space="normal"/><path style="line-height:normal;text-indent:0;text-align:start;text-decoration-line:none;text-decoration-style:solid;text-decoration-color:#000;text-transform:none;block-progression:tb;isolation:auto;mix-blend-mode:normal" fill="#ff1e55" fill-rule="evenodd" d="m 28.529789,1032.1559 a 0.14859754,0.14859754 0 0 0 -0.01159,0.01 c -0.166021,0.086 -0.277654,0.1562 -0.349401,0.2658 -0.05789,0.088 -0.0598,0.1885 -0.06385,0.2902 a 0.14859754,0.14859754 0 0 0 -0.0093,0.1138 0.14859754,0.14859754 0 0 0 0.0024,0.01 0.14859754,0.14859754 0 0 0 0.0024,0.01 0.14859754,0.14859754 0 0 0 0.0048,0.013 0.14859754,0.14859754 0 0 0 0.0024,0.01 0.14859754,0.14859754 0 0 0 0.0059,0.01 0.14859754,0.14859754 0 0 0 0.0012,0 0.14859754,0.14859754 0 0 0 0.0059,0.01 0.14859754,0.14859754 0 0 0 0.0036,0.01 0.14859754,0.14859754 0 0 0 0.0059,0.01 0.14859754,0.14859754 0 0 0 0.0093,0.01 0.14859754,0.14859754 0 0 0 0.0024,0 0.14859754,0.14859754 0 0 0 0.0036,0 0.14859754,0.14859754 0 0 0 0.0917,0.034 c 0.3728,0.1271 0.765136,0.1846 1.117853,-0.021 3.15e-4,-2e-4 -3.21e-4,0 0,0 0.145481,-0.082 0.244621,-0.2048 0.251889,-0.3448 0.0073,-0.1403 -0.07252,-0.2593 -0.177597,-0.3402 -0.210162,-0.1616 -0.55107,-0.2179 -0.898462,-0.075 z m 0.116079,0.2752 c 0.253446,-0.1022 0.496432,-0.044 0.601296,0.036 0.05272,0.04 0.06235,0.074 0.06152,0.089 -5.94e-4,0.016 -0.009,0.051 -0.09982,0.1021 a 0.14859754,0.14859754 0 0 0 -0.0024,0 c -0.229085,0.1343 -0.502667,0.079 -0.798632,-0.01 0.0042,-0.014 0.0024,-0.048 0.0093,-0.058 0.02211,-0.034 0.08861,-0.087 0.22868,-0.1602 z" color="#000" font-family="sans-serif" font-weight="400" overflow="visible" white-space="normal"/><path style="line-height:normal;text-indent:0;text-align:start;text-decoration-line:none;text-decoration-style:solid;text-decoration-color:#000;text-transform:none;block-progression:tb;isolation:auto;mix-blend-mode:normal" fill="#3449e0" fill-rule="evenodd" d="M30.320906 1037.1892c-.07896 0-.157337.031-.217074.091-.11971.1197-.119716.3155 0 .4354l.01741.017.384229.39.385382-.39.01741-.017c.119722-.1198.11971-.3156 0-.4354-.101524-.1016-.250915-.071-.369133 0-.05987-.06-.139531-.091-.218232-.091zm0 .1486c.04077 0 .08094.016.112596.048l.07197.072.07313-.072c.06335-.062.16221-.063.225198 0 .06332.063.06332.1619 0 .2252l-.01741.017-.279752.2832-.280916-.2832-.01741-.017c-.06333-.063-.06332-.1619 0-.2252.0318-.032.07207-.048.112596-.048zM24.971929 1037.7835c-.07896 0-.157337.031-.217073.091-.11971.1197-.119716.3156 0 .4353l.01741.017.384229.39.385382-.39.01741-.017c.119722-.1196.119711-.3155 0-.4353-.101523-.1015-.250914-.071-.369132 0-.05987-.06-.139531-.091-.218233-.091zm0 .1485c.04077 0 .08094.016.112596.048l.07197.072.07313-.072c.06336-.062.162211-.063.225198 0 .06332.063.06332.162 0 .2253l-.01741.017-.279751.2833-.280917-.2833-.01741-.017c-.06333-.063-.06332-.1619 0-.2253.0318-.032.07207-.048.112596-.048zM27.943583 1036.7226c-.07896 0-.157337.032-.217073.091-.119711.1198-.119717.3156 0 .4354l0 0 .01741.016.384229.39.385382-.39.01741-.016 0 0c.119722-.1197.11971-.3155 0-.4354-.101524-.1015-.250914-.071-.369133 0-.05987-.06-.139531-.091-.218232-.091zm0 .1486c.04077 0 .08094.016.112596.048l.07197.072.07313-.072c.06336-.062.16221-.063.225198 0 .06332.063.06332.1618 0 .2251l-.01741.017-.279752.2832-.280916-.2832-.01741-.017c-.06333-.063-.06332-.1619 0-.2251.0318-.032.07207-.048.112596-.048zM26.160591 1034.8119c-.07896 0-.157337.031-.217074.091-.11971.1197-.119716.3154 0 .4353l.01741.017.384229.39.385382-.39.01741-.017c.119722-.1198.11971-.3156 0-.4353-.101524-.1016-.250915-.071-.369133 0-.05987-.06-.139531-.091-.218232-.091zm0 .1486c.04077 0 .08094.016.112596.047l.07197.072.07313-.072c.06336-.062.16221-.063.225197 0 .06332.063.06332.1619 0 .2252l-.01741.017-.279752.2832-.280916-.2832-.01741-.017c-.06333-.063-.06332-.1618 0-.2252.0318-.032.07207-.047.112596-.047zM29.132244 1035.534c-.07896 0-.157337.032-.217073.091-.11971.1196-.119716.3155 0 .4353l0 0 .01741.016.384229.3901.385382-.3901.01741-.016 0 0c.119722-.1197.11971-.3156 0-.4353-.101524-.1015-.250915-.071-.369133 0-.05987-.06-.139531-.091-.218233-.091zm0 .1485c.04077 0 .08094.016.112596.048l.07197.072.07313-.072c.06336-.062.162211-.063.225198 0 .06332.063.06332.1618 0 .2252l-.01741.017-.279751.2832-.280917-.2832-.01741-.017c-.06333-.063-.06332-.1619 0-.2252.0318-.031.07207-.048.112596-.048zM26.754921 1039.0999c-.07896 0-.157337.031-.217073.091-.11971.1197-.119716.3155 0 .4353l0 0 .01741.016.384229.3901.385382-.3901.01741-.016 0 0c.119722-.1197.11971-.3156 0-.4353-.101524-.1015-.250915-.071-.369133 0-.05987-.06-.139531-.091-.218233-.091zm0 .1486c.04077 0 .08094.016.112596.048l.07197.072.07313-.072c.06336-.062.162211-.063.225198 0 .06332.063.06332.1618 0 .2252l-.01741.017-.279751.2832-.280917-.2832-.01741-.017c-.06333-.063-.06332-.1619 0-.2252.0318-.032.07207-.048.112595-.048zM28.537914 1040.3304c-.07896 0-.157338.032-.217074.091-.11971.1198-.119716.3156 0 .4355l.01741.017.384229.39.385382-.39.01741-.017c.119722-.1198.11971-.3156 0-.4355-.101524-.1015-.250915-.071-.369133 0-.05987-.06-.139531-.091-.218232-.091zm0 .1486c.04077 0 .08094.016.112596.048l.07197.072.07313-.072c.06336-.062.162211-.063.225198 0 .06332.063.06332.1619 0 .2252l-.01741.017-.279751.2832-.280916-.2832-.01741-.017c-.06333-.063-.06332-.1619 0-.2252.0318-.032.07207-.048.112596-.048zM25.56626 1040.8829c-.07896 0-.157337.032-.217073.091-.11971.1197-.119716.3155 0 .4352l0 0 .01741.016.384228.3902.385382-.3902.01741-.016 0 0c.119722-.1197.11971-.3155 0-.4352-.101523-.1016-.250914-.071-.369133 0-.05987-.06-.139531-.091-.218232-.091zm0 .1486c.04077 0 .08094.016.112596.048l.07197.072.07313-.072c.06336-.062.162211-.063.225198 0 .06332.063.06332.1618 0 .2252l-.01741.017-.279752.2832-.280916-.2832-.01741-.017c-.06333-.063-.06332-.1619 0-.2252.0318-.032.07207-.048.112596-.048zM30.320906 1039.5666c-.07896 0-.157337.031-.217074.091-.11971.1196-.119716.3155 0 .4353l.01741.017.384229.39.385382-.39.01741-.017c.119722-.1197.11971-.3156 0-.4353-.101524-.1015-.250915-.071-.369133 0-.05987-.06-.139531-.091-.218232-.091zm0 .1485c.04077 0 .08094.016.112596.048l.07197.072.07313-.072c.06335-.062.16221-.063.225198 0 .06332.063.06332.1619 0 .2252l-.01741.017-.279752.2833-.280916-.2833-.01741-.017c-.06333-.063-.06332-.1619 0-.2252.0318-.031.07207-.048.112596-.048zM30.320906 1034.0899c-.07896 0-.157337.031-.217074.09-.11971.1198-.119716.3155 0 .4354l.01741.017.384229.3901.385382-.3901.01741-.017c.119722-.1198.11971-.3156 0-.4354-.101524-.1015-.250915-.071-.369133 0-.05987-.06-.139531-.09-.218232-.09zm0 .1486c.04077 0 .08094.016.112596.047l.07197.072.07313-.072c.06335-.062.16221-.063.225198 0 .06332.063.06332.1619 0 .2252l-.01741.017-.279752.2832-.280916-.2832-.01741-.017c-.06333-.063-.06332-.1619 0-.2252.0318-.032.07207-.047.112596-.047zM24.971929 1033.7509c-.07896 0-.157337.032-.217073.091-.11971.1197-.119716.3156 0 .4353l0 0 .01741.016.384229.3901.385382-.3901.01741-.016 0 0c.119722-.1196.119711-.3155 0-.4353-.101523-.1015-.250914-.071-.369132 0-.05987-.06-.139531-.091-.218233-.091zm0 .1486c.04077 0 .08094.016.112596.048l.07197.072.07313-.072c.06336-.062.162211-.063.225198 0 .06332.063.06332.1619 0 .2253l-.01741.017-.279751.2832-.280917-.2832-.01741-.017c-.06333-.063-.06332-.162 0-.2253.0318-.032.07207-.048.112596-.048z" color="#000" font-family="sans-serif" font-weight="400" overflow="visible" white-space="normal"/><path style="line-height:125%;-inkscape-font-specification:'Bebas Neue Bold'" fill="#fff" d="M 19.714844 13.623047 L 19.714844 18.873047 L 21.896484 18.873047 L 21.896484 18.123047 L 20.539062 18.123047 L 20.539062 13.623047 L 19.714844 13.623047 z M 27.003906 15.458984 L 27.003906 20.708984 L 29.253906 20.708984 L 29.253906 19.958984 L 27.828125 19.958984 L 27.828125 18.419922 L 28.960938 18.419922 L 28.960938 17.669922 L 27.828125 17.669922 L 27.828125 16.208984 L 29.253906 16.208984 L 29.253906 15.458984 L 27.003906 15.458984 z M 4.4179688 16.613281 C 3.6154687 16.613281 3.203125 17.091641 3.203125 17.931641 C 3.203125 19.431641 4.8164062 19.634844 4.8164062 20.714844 C 4.8164062 21.089844 4.6511719 21.224609 4.3886719 21.224609 C 4.1261719 21.224609 3.9609375 21.089844 3.9609375 20.714844 L 3.9609375 20.339844 L 3.1816406 20.339844 L 3.1816406 20.662109 C 3.1816406 21.502109 3.6001563 21.982422 4.4101562 21.982422 C 5.2201563 21.982422 5.640625 21.502109 5.640625 20.662109 C 5.640625 19.162109 4.0273437 18.960859 4.0273438 17.880859 C 4.0273438 17.505859 4.1789063 17.363281 4.4414062 17.363281 C 4.7039063 17.363281 4.8535156 17.505859 4.8535156 17.880859 L 4.8535156 18.097656 L 5.6328125 18.097656 L 5.6328125 17.931641 C 5.6328125 17.091641 5.2204688 16.613281 4.4179688 16.613281 z M 12.150391 18.089844 L 11.308594 23.339844 L 12.066406 23.339844 L 12.208984 22.388672 L 13.222656 22.388672 L 13.365234 23.339844 L 14.197266 23.339844 L 13.357422 18.089844 L 12.150391 18.089844 z M 12.712891 19.021484 L 13.109375 21.675781 L 12.314453 21.675781 L 12.712891 19.021484 z " font-family="Bebas Neue" font-size="7.5" font-weight="700" letter-spacing="0" transform="translate(0 1020.362)" word-spacing="0"/></g></svg>