<svg xmlns="http://www.w3.org/2000/svg" width="32" height="32" viewBox="0 0 32 32"><g transform="translate(0 -1020.362)"><path fill="#df1e49" d="M2.54981 1033.3113l5.8737 0 0 7.3714-5.8737 0 2.10653-3.6859zM29.45019 1033.3113l-5.87373 0 0 7.3714 5.87373 0-2.10656-3.6859z"/><path fill="#ff1e55" d="m 6.86881,1032.0417 0,7.3726 3.99999,0 10.26237,0 3.99999,0 0,-7.3726 -3.99999,0 -10.26237,0 z"/><path style="line-height:125%;-inkscape-font-specification:'Bebas Neue Bold'" fill="#fff" d="M 13.064453 13.597656 C 12.49648 13.597656 12.205078 13.938703 12.205078 14.533203 C 12.205078 15.594803 13.345703 15.737653 13.345703 16.501953 C 13.345703 16.767353 13.228755 16.863281 13.042969 16.863281 C 12.857184 16.863281 12.740234 16.766953 12.740234 16.501953 L 12.740234 16.236328 L 12.1875 16.236328 L 12.1875 16.464844 C 12.1875 17.059344 12.485312 17.398438 13.058594 17.398438 C 13.631875 17.398438 13.929687 17.059344 13.929688 16.464844 C 13.929688 15.403144 12.789062 15.260394 12.789062 14.496094 C 12.789062 14.230594 12.894293 14.128906 13.080078 14.128906 C 13.265864 14.128906 13.371094 14.230594 13.371094 14.496094 L 13.371094 14.648438 L 13.923828 14.648438 L 13.923828 14.533203 C 13.923828 13.938703 13.632426 13.597656 13.064453 13.597656 z M 14.699219 13.640625 L 14.105469 17.357422 L 14.640625 17.357422 L 14.742188 16.681641 L 15.458984 16.681641 L 15.558594 17.357422 L 16.148438 17.357422 L 15.554688 13.640625 L 14.699219 13.640625 z M 16.416016 13.640625 L 16.416016 17.357422 L 17.958984 17.357422 L 17.958984 16.826172 L 17 16.826172 L 17 13.640625 L 16.416016 13.640625 z M 18.21875 13.640625 L 18.21875 17.357422 L 19.8125 17.357422 L 19.8125 16.826172 L 18.802734 16.826172 L 18.802734 15.738281 L 19.605469 15.738281 L 19.605469 15.207031 L 18.802734 15.207031 L 18.802734 14.171875 L 19.8125 14.171875 L 19.8125 13.640625 L 18.21875 13.640625 z M 15.097656 14.298828 L 15.378906 16.177734 L 14.816406 16.177734 L 15.097656 14.298828 z " font-family="Bebas Neue" font-weight="700" letter-spacing="0" transform="translate(0 1020.362)" word-spacing="0"/></g></svg>