<svg xmlns="http://www.w3.org/2000/svg" width="32" height="32" viewBox="0 0 32 32"><g transform="translate(0 -1020.362)"><path fill="#df1e49" d="M2.54981 1033.3113l5.8737 0 0 7.3714-5.8737 0 2.10653-3.6859zM29.45019 1033.3113l-5.87373 0 0 7.3714 5.87373 0-2.10656-3.6859z"/><path fill="#ff1e55" d="m 6.86881,1032.0417 0,7.3726 3.99999,0 10.26237,0 3.99999,0 0,-7.3726 -3.99999,0 -10.26237,0 z"/><path style="line-height:125%;-inkscape-font-specification:'Bebas Neue Bold'" fill="#fff" d="M 13.191406 13.597656 C 12.623433 13.597656 12.332031 13.938703 12.332031 14.533203 C 12.332031 15.594803 13.472656 15.737653 13.472656 16.501953 C 13.472656 16.767353 13.357661 16.863281 13.171875 16.863281 C 12.98609 16.863281 12.869141 16.766953 12.869141 16.501953 L 12.869141 16.236328 L 12.316406 16.236328 L 12.316406 16.464844 C 12.316406 17.059344 12.614218 17.398438 13.1875 17.398438 C 13.760781 17.398438 14.056641 17.059344 14.056641 16.464844 C 14.056641 15.403144 12.916016 15.260394 12.916016 14.496094 C 12.916016 14.230594 13.023199 14.128906 13.208984 14.128906 C 13.39477 14.128906 13.5 14.230594 13.5 14.496094 L 13.5 14.648438 L 14.052734 14.648438 L 14.052734 14.533203 C 14.052734 13.938703 13.759379 13.597656 13.191406 13.597656 z M 14.828125 13.640625 L 14.232422 17.357422 L 14.769531 17.357422 L 14.869141 16.681641 L 15.585938 16.681641 L 15.6875 17.357422 L 16.277344 17.357422 L 15.681641 13.640625 L 14.828125 13.640625 z M 16.542969 13.640625 L 16.542969 17.357422 L 18.087891 17.357422 L 18.087891 16.826172 L 17.126953 16.826172 L 17.126953 13.640625 L 16.542969 13.640625 z M 18.347656 13.640625 L 18.347656 17.357422 L 19.939453 17.357422 L 19.939453 16.826172 L 18.931641 16.826172 L 18.931641 15.738281 L 19.732422 15.738281 L 19.732422 15.207031 L 18.931641 15.207031 L 18.931641 14.171875 L 19.939453 14.171875 L 19.939453 13.640625 L 18.347656 13.640625 z M 15.224609 14.298828 L 15.505859 16.177734 L 14.943359 16.177734 L 15.224609 14.298828 z " font-family="Bebas Neue" font-weight="700" letter-spacing="0" transform="translate(0 1020.362)" word-spacing="0"/><path fill="#cb1e49" fill-rule="evenodd" d="M8.98824 1034.6873c-.18616 0-.37234.071-.51495.2138-.28522.2852-.28523.7446 0 1.0299l.0541.054 1.03652 1.0498 1.03652-1.0498.0541-.054c.28523-.2853.28522-.7447 0-1.0299-.28521-.2853-.74466-.2853-1.02989 0l-.0608.061-.0608-.061c-.14261-.1426-.32879-.2138-.51494-.2138zM22.1164 1034.6873c-.18616 0-.37234.071-.51495.2138-.28522.2852-.28523.7446 0 1.0299l.0541.054 1.03652 1.0498 1.03652-1.0498.0541-.054c.28523-.2853.28522-.7447 0-1.0299-.28521-.2853-.74466-.2853-1.02989 0l-.0608.061-.0608-.061c-.14261-.1426-.32879-.2138-.51494-.2138z"/></g></svg>