<svg xmlns="http://www.w3.org/2000/svg" width="32" height="32" viewBox="0 0 32 32"><g transform="translate(0 -1020.362)"><path fill="#fc0" d="m 10.437606,1021.7464 -4.2787654,1.3375 c -0.089092,0 -0.1781704,0.091 -0.1781704,0.1789 0,0.091 -0.089092,0.091 -0.089092,0.091 0,0 0,0 0,0.091 l -3.6547921,4.6352 c -0.089092,0.1788 -0.089092,0.4455 0.089092,0.624 l 4.724455,4.1003 c 0.089092,0.091 0.267277,0.091 0.3567394,0.091 -0.089092,1.1589 0.267277,2.4069 1.1588264,4.0113 1.5154231,4.2789 0.7131371,7.2208 -0.2672627,8.8251 -0.8914214,1.5152 -0.9805564,3.2982 -1.42626,4.7243 -0.089092,0.2665 0.1781847,0.624 0.4457036,0.624 l 17.8281572,0 c 0.267263,0 0.534824,-0.2666 0.445704,-0.5349 0,0 -0.178185,-0.8022 -0.445704,-1.872 -0.267277,-0.9803 -0.624002,-2.1393 -0.980542,-2.8524 -0.713137,-1.3371 -1.158841,-3.12 -1.247962,-4.8139 -0.08909,-1.6933 0.178171,-3.209 0.713123,-4.1002 1.247962,-1.8721 1.426246,-3.2092 1.426246,-4.2788 l 0.178185,0.2664 c 0.178184,0.2665 0.534867,0.2665 0.713123,0.092 l 4.54617,-4.3681 c 0.178185,-0.091 0.178185,-0.4457 0.08909,-0.6241 l -3.743927,-4.9025 c 0,0 0,0 0,0 -0.08909,-0.091 -0.178185,-0.2664 -0.267263,-0.2664 l -4.546185,-1.159 c -0.267263,-0.088 -0.534825,0.088 -0.623988,0.3579 -0.356369,1.6042 -0.713123,3.209 -1.42626,4.3676 -0.713123,1.159 -1.782786,2.0505 -3.654749,2.2288 -1.426246,-0.358 -2.495952,-0.9805 -3.387387,-2.0503 -0.802244,-1.0698 -1.426204,-2.6742 -1.782786,-4.5461 -0.178185,-0.1789 -0.445718,-0.3579 -0.713123,-0.2667 l 0,0 z" class="st1"/><path fill="#3477e0" fill-rule="evenodd" d="m 14.422652,1031.9405 c -0.642703,0 -1.285506,0.2458 -1.777847,0.7382 -0.984713,0.9846 -0.984741,2.571 0,3.5559 l 0.186852,0.1871 3.578565,3.6244 3.57858,-3.6244 0.186852,-0.1871 c 0.984726,-0.9849 0.984698,-2.5713 0,-3.5559 -0.984712,-0.9847 -2.570954,-0.9847 -3.555666,0 l -0.209766,0.2095 -0.209751,-0.2095 c -0.492399,-0.4924 -1.135159,-0.7382 -1.777847,-0.7382 z"/><path fill="#345be0" d="M-9.03391e-7 1042.6394l5.873703403391 0 0 7.3713-5.873703403391 0L2.1065203 1046.3252zM31.999999 1042.6394l-5.873732 0 0 7.3713 5.873732 0-2.10655-3.6855z"/><path fill="#3477e0" d="m 4.3189987,1041.3701 0,7.3723 3.9999892,0 15.3619931,0 3.99999,0 0,-7.3723 -3.99999,0 -15.3619931,0 z"/><path style="line-height:125%;-inkscape-font-specification:'Bebas Neue Bold'" fill="#fff" d="M 12.292969 22.791016 C 11.724996 22.791016 11.433594 23.130109 11.433594 23.724609 C 11.433594 24.786309 12.574219 24.930912 12.574219 25.695312 C 12.574219 25.960712 12.45727 26.054688 12.271484 26.054688 C 12.085699 26.054688 11.96875 25.961212 11.96875 25.695312 L 11.96875 25.429688 L 11.417969 25.429688 L 11.417969 25.658203 C 11.417969 26.252703 11.713827 26.591797 12.287109 26.591797 C 12.860391 26.591797 13.158203 26.252703 13.158203 25.658203 C 13.158203 24.596603 12.017578 24.4519 12.017578 23.6875 C 12.017578 23.4221 12.122808 23.322266 12.308594 23.322266 C 12.494379 23.322266 12.601563 23.4221 12.601562 23.6875 L 12.601562 23.841797 L 13.152344 23.841797 L 13.152344 23.724609 C 13.152344 23.130109 12.860943 22.791016 12.292969 22.791016 z M 14.310547 22.791016 C 13.737265 22.791016 13.439453 23.130109 13.439453 23.724609 L 13.439453 25.658203 C 13.439453 26.252703 13.737265 26.591797 14.310547 26.591797 C 14.883829 26.591797 15.181641 26.252703 15.181641 25.658203 L 15.181641 25.164062 L 14.628906 25.164062 L 14.628906 25.695312 C 14.628906 25.960712 14.511958 26.054688 14.326172 26.054688 C 14.140387 26.054688 14.023437 25.961212 14.023438 25.695312 L 14.023438 23.6875 C 14.023438 23.4221 14.140387 23.322266 14.326172 23.322266 C 14.511958 23.322266 14.628906 23.4221 14.628906 23.6875 L 14.628906 24.085938 L 15.181641 24.085938 L 15.181641 23.724609 C 15.181641 23.130109 14.883829 22.791016 14.310547 22.791016 z M 16.378906 22.791016 C 15.805624 22.791016 15.492188 23.130109 15.492188 23.724609 L 15.492188 25.658203 C 15.492188 26.252703 15.805624 26.591797 16.378906 26.591797 C 16.952188 26.591797 17.265625 26.252703 17.265625 25.658203 L 17.265625 23.724609 C 17.265625 23.130109 16.952188 22.791016 16.378906 22.791016 z M 8.3339844 22.833984 L 8.3339844 26.548828 L 9.2578125 26.548828 C 9.8417105 26.548828 10.128906 26.225359 10.128906 25.630859 L 10.128906 23.751953 C 10.128906 23.157453 9.8417105 22.833984 9.2578125 22.833984 L 8.3339844 22.833984 z M 10.501953 22.833984 L 10.501953 26.548828 L 11.085938 26.548828 L 11.085938 22.833984 L 10.501953 22.833984 z M 17.619141 22.833984 L 17.619141 25.662109 C 17.619141 26.256609 17.914999 26.597656 18.488281 26.597656 C 19.061563 26.597656 19.359375 26.256609 19.359375 25.662109 L 19.359375 22.833984 L 18.806641 22.833984 L 18.806641 25.699219 C 18.806641 25.964619 18.689691 26.060547 18.503906 26.060547 C 18.31812 26.060547 18.203125 25.965119 18.203125 25.699219 L 18.203125 22.833984 L 17.619141 22.833984 z M 19.753906 22.833984 L 19.753906 26.548828 L 20.279297 26.548828 L 20.279297 23.857422 L 21.007812 26.548828 L 21.607422 26.548828 L 21.607422 22.833984 L 21.085938 22.833984 L 21.085938 25.058594 L 20.486328 22.833984 L 19.753906 22.833984 z M 21.861328 22.833984 L 21.861328 23.365234 L 22.470703 23.365234 L 22.470703 26.548828 L 23.054688 26.548828 L 23.054688 23.365234 L 23.666016 23.365234 L 23.666016 22.833984 L 21.861328 22.833984 z M 16.378906 23.322266 C 16.564692 23.322266 16.681641 23.4221 16.681641 23.6875 L 16.681641 25.695312 C 16.681641 25.960712 16.564692 26.060547 16.378906 26.060547 C 16.19312 26.060547 16.076172 25.960712 16.076172 25.695312 L 16.076172 23.6875 C 16.076172 23.4221 16.19312 23.322266 16.378906 23.322266 z M 8.9179688 23.365234 L 9.2480469 23.365234 C 9.4338326 23.365234 9.5449219 23.458709 9.5449219 23.724609 L 9.5449219 25.658203 C 9.5449219 25.923603 9.4338326 26.017578 9.2480469 26.017578 L 8.9179688 26.017578 L 8.9179688 23.365234 z " font-family="Bebas Neue" font-weight="700" letter-spacing="0" transform="translate(0 1020.362)" word-spacing="0"/></g></svg>