<svg xmlns="http://www.w3.org/2000/svg" width="32" height="32" viewBox="0 0 32 32"><g transform="translate(0 -1020.362)"><path fill="#d31206" fill-rule="evenodd" stroke="#a80e05" stroke-width="1.5" d="m 10.81295,1027.2057 c -1.42695,0 -2.85407,0.5458 -3.9472,1.639 -2.18628,2.1862 -2.18633,5.7082 0,7.8947 l 0.41504,0.415 7.94523,8.0468 7.94522,-8.0468 0.41505,-0.415 c 2.18634,-2.1865 2.18628,-5.7085 0,-7.8947 -2.18627,-2.1863 -5.70806,-2.1863 -7.8944,0 l -0.46587,0.4661 -0.46588,-0.4661 c -1.09316,-1.0932 -2.52024,-1.639 -3.94719,-1.639 z"/><path fill="#ffae00" d="M.53544 1038.4215l5.24045-1.3027 0 6.5765-5.24045 1.3027 1.87943-3.7554zM31.46456 1028.6278l-5.24046 1.3027 0 6.5765 5.24046-1.3028-1.87943-2.821z"/><path fill="#fc0" d="m 4.3888,1036.331 0,6.5776 3.56874,-0.8872 16.08491,-3.9985 3.56875,-0.8871 0,-6.5776 -3.56875,0.8873 -16.08491,3.9983 -3.56874,0.8872 z"/><path style="line-height:125%;-inkscape-font-specification:'Bebas Neue Bold'" fill="#fff" d="M 22.837891 13.013672 L 21.228516 13.414062 L 21.228516 13.886719 L 21.773438 13.751953 L 21.773438 16.59375 L 22.294922 16.464844 L 22.294922 13.623047 L 22.837891 13.486328 L 22.837891 13.013672 z M 21.001953 13.470703 L 20.539062 13.585938 L 20.539062 15.570312 L 20.003906 13.71875 L 19.349609 13.880859 L 19.349609 17.195312 L 19.818359 17.080078 L 19.818359 14.677734 L 20.466797 16.917969 L 21.001953 16.785156 L 21.001953 13.470703 z M 18.998047 13.96875 L 18.503906 14.091797 L 18.503906 16.648438 C 18.503906 16.885237 18.40013 16.995909 18.234375 17.037109 C 18.068619 17.078109 17.964844 17.020203 17.964844 16.783203 L 17.964844 14.224609 L 17.443359 14.355469 L 17.443359 16.878906 C 17.443359 17.409306 17.709229 17.646631 18.220703 17.519531 C 18.732177 17.392331 18.998047 17.022587 18.998047 16.492188 L 18.998047 13.96875 z M 16.677734 14.5625 C 16.579613 14.550186 16.465759 14.560022 16.337891 14.591797 C 15.826417 14.718897 15.546875 15.090694 15.546875 15.621094 L 15.546875 17.345703 C 15.546875 17.876203 15.826417 18.109522 16.337891 17.982422 C 16.849365 17.855322 17.128906 17.483625 17.128906 16.953125 L 17.128906 15.228516 C 17.128906 14.830716 16.972098 14.599442 16.677734 14.5625 z M 14.830078 15.021484 C 14.733289 15.008842 14.620056 15.019006 14.492188 15.050781 C 13.980714 15.177981 13.714844 15.545772 13.714844 16.076172 L 13.714844 17.800781 C 13.714844 18.331281 13.980714 18.568606 14.492188 18.441406 C 15.003661 18.314306 15.269531 17.944562 15.269531 17.414062 L 15.269531 16.974609 L 14.777344 17.097656 L 14.777344 17.570312 C 14.777344 17.807112 14.671614 17.917784 14.505859 17.958984 C 14.340103 17.999984 14.236328 17.941978 14.236328 17.705078 L 14.236328 15.914062 C 14.236328 15.677263 14.340103 15.560731 14.505859 15.519531 C 14.671614 15.478531 14.777344 15.542697 14.777344 15.779297 L 14.777344 16.134766 L 15.269531 16.013672 L 15.269531 15.691406 C 15.269531 15.293606 15.120446 15.059411 14.830078 15.021484 z M 16.449219 15.054688 C 16.54845 15.066481 16.607422 15.146769 16.607422 15.324219 L 16.607422 17.115234 C 16.607422 17.352034 16.503646 17.468566 16.337891 17.509766 C 16.172135 17.550766 16.068359 17.4867 16.068359 17.25 L 16.068359 15.458984 C 16.068359 15.222184 16.172135 15.105653 16.337891 15.064453 C 16.379329 15.054203 16.416142 15.050756 16.449219 15.054688 z M 13.025391 15.470703 C 12.929711 15.45778 12.820044 15.466572 12.693359 15.498047 C 12.186621 15.624047 11.925781 15.991084 11.925781 16.521484 C 11.925781 17.468684 12.943359 17.343391 12.943359 18.025391 C 12.943359 18.262191 12.839583 18.372862 12.673828 18.414062 C 12.508072 18.455062 12.404297 18.397056 12.404297 18.160156 L 12.404297 17.923828 L 11.910156 18.044922 L 11.910156 18.25 C 11.910156 18.7805 12.176026 19.017725 12.6875 18.890625 C 13.198974 18.763525 13.464844 18.393781 13.464844 17.863281 C 13.464844 16.916181 12.445313 17.041375 12.445312 16.359375 C 12.445312 16.122575 12.541278 16.00995 12.707031 15.96875 C 12.872786 15.92775 12.966797 15.993569 12.966797 16.230469 L 12.966797 16.367188 L 13.458984 16.244141 L 13.458984 16.140625 C 13.458984 15.742825 13.312429 15.509473 13.025391 15.470703 z M 11.615234 15.802734 L 11.09375 15.933594 L 11.09375 19.248047 L 11.615234 19.119141 L 11.615234 15.802734 z M 10.326172 16.177734 C 10.228938 16.166544 10.114612 16.176609 9.984375 16.208984 L 9.1621094 16.414062 L 9.1621094 19.728516 L 9.984375 19.523438 C 10.505321 19.393937 10.761719 19.042119 10.761719 18.511719 L 10.761719 16.833984 C 10.761719 16.436109 10.617872 16.211306 10.326172 16.177734 z M 10.087891 16.673828 C 10.18579 16.68452 10.240234 16.763581 10.240234 16.941406 L 10.240234 18.664062 C 10.240234 18.900862 10.142321 19.011534 9.9765625 19.052734 L 9.6816406 19.125 L 9.6816406 16.757812 L 9.9765625 16.685547 C 10.018001 16.675297 10.055257 16.670264 10.087891 16.673828 z " font-family="Bebas Neue" font-weight="700" letter-spacing="0" transform="translate(0 1020.362)" word-spacing="0"/></g></svg>