<svg xmlns="http://www.w3.org/2000/svg" width="32" height="32" viewBox="0 0 32 32"><g transform="translate(0 -1020.362)"><path fill="#df1e49" d="M.000001073863 1033.3113l5.873703926137 0 0 7.3714-5.873703926137 0L2.106529 1036.9968zM32.000001 1033.3113l-5.873736 0 0 7.3714 5.873736 0-2.10656-3.6859z"/><path fill="#ff1e55" d="m 4.3190045,1032.0417 0,7.3726 3.9999881,0 15.3619854,0 3.999988,0 0,-7.3726 -3.999988,0 -15.3619854,0 z"/><path style="line-height:125%;-inkscape-font-specification:'Bebas Neue Bold'" fill="#fff" d="M 12.292969 13.462891 C 11.724995 13.462891 11.433594 13.801984 11.433594 14.396484 C 11.433594 15.458184 12.574219 15.602787 12.574219 16.367188 C 12.574219 16.632587 12.45727 16.726562 12.271484 16.726562 C 12.085698 16.726562 11.96875 16.633087 11.96875 16.367188 L 11.96875 16.101562 L 11.417969 16.101562 L 11.417969 16.330078 C 11.417969 16.924578 11.713827 17.263672 12.287109 17.263672 C 12.86039 17.263672 13.158203 16.924578 13.158203 16.330078 C 13.158203 15.268478 12.017578 15.123675 12.017578 14.359375 C 12.017578 14.093975 12.122809 13.994141 12.308594 13.994141 C 12.49438 13.994141 12.601563 14.093975 12.601562 14.359375 L 12.601562 14.513672 L 13.152344 14.513672 L 13.152344 14.396484 C 13.152344 13.801984 12.860942 13.462891 12.292969 13.462891 z M 14.310547 13.462891 C 13.737265 13.462891 13.439453 13.801984 13.439453 14.396484 L 13.439453 16.330078 C 13.439453 16.924578 13.737265 17.263672 14.310547 17.263672 C 14.883829 17.263672 15.181641 16.924578 15.181641 16.330078 L 15.181641 15.835938 L 14.628906 15.835938 L 14.628906 16.367188 C 14.628906 16.632587 14.511957 16.726562 14.326172 16.726562 C 14.140386 16.726562 14.023438 16.633087 14.023438 16.367188 L 14.023438 14.359375 C 14.023438 14.093975 14.140386 13.994141 14.326172 13.994141 C 14.511957 13.994141 14.628906 14.093975 14.628906 14.359375 L 14.628906 14.757812 L 15.181641 14.757812 L 15.181641 14.396484 C 15.181641 13.801984 14.883829 13.462891 14.310547 13.462891 z M 16.378906 13.462891 C 15.805624 13.462891 15.492187 13.801984 15.492188 14.396484 L 15.492188 16.330078 C 15.492188 16.924578 15.805624 17.263672 16.378906 17.263672 C 16.952187 17.263672 17.265625 16.924578 17.265625 16.330078 L 17.265625 14.396484 C 17.265625 13.801984 16.952187 13.462891 16.378906 13.462891 z M 8.3339844 13.505859 L 8.3339844 17.220703 L 9.2578125 17.220703 C 9.8417104 17.220703 10.128906 16.897234 10.128906 16.302734 L 10.128906 14.423828 C 10.128906 13.829328 9.8417104 13.505859 9.2578125 13.505859 L 8.3339844 13.505859 z M 10.501953 13.505859 L 10.501953 17.220703 L 11.085938 17.220703 L 11.085938 13.505859 L 10.501953 13.505859 z M 17.619141 13.505859 L 17.619141 16.333984 C 17.619141 16.928484 17.915 17.269531 18.488281 17.269531 C 19.061563 17.269531 19.359375 16.928484 19.359375 16.333984 L 19.359375 13.505859 L 18.806641 13.505859 L 18.806641 16.371094 C 18.806641 16.636494 18.689691 16.732422 18.503906 16.732422 C 18.31812 16.732422 18.203125 16.635994 18.203125 16.371094 L 18.203125 13.505859 L 17.619141 13.505859 z M 19.753906 13.505859 L 19.753906 17.220703 L 20.279297 17.220703 L 20.279297 14.529297 L 21.007812 17.220703 L 21.607422 17.220703 L 21.607422 13.505859 L 21.085938 13.505859 L 21.085938 15.730469 L 20.486328 13.505859 L 19.753906 13.505859 z M 21.861328 13.505859 L 21.861328 14.037109 L 22.470703 14.037109 L 22.470703 17.220703 L 23.054688 17.220703 L 23.054688 14.037109 L 23.666016 14.037109 L 23.666016 13.505859 L 21.861328 13.505859 z M 16.378906 13.994141 C 16.564692 13.994141 16.681641 14.093975 16.681641 14.359375 L 16.681641 16.367188 C 16.681641 16.632587 16.564692 16.732422 16.378906 16.732422 C 16.19312 16.732422 16.076172 16.632587 16.076172 16.367188 L 16.076172 14.359375 C 16.076172 14.093975 16.19312 13.994141 16.378906 13.994141 z M 8.9179688 14.037109 L 9.2480469 14.037109 C 9.4338326 14.037109 9.5449219 14.130584 9.5449219 14.396484 L 9.5449219 16.330078 C 9.5449219 16.595478 9.4338326 16.689453 9.2480469 16.689453 L 8.9179688 16.689453 L 8.9179688 14.037109 z " font-family="Bebas Neue" font-weight="700" letter-spacing="0" transform="translate(0 1020.362)" word-spacing="0"/></g></svg>