<svg xmlns="http://www.w3.org/2000/svg" width="32" height="32" viewBox="0 0 32 32"><g transform="translate(0 -1020.362)"><path fill="#df1e49" d="M3.98678 1038.4009l0-6.8053 3.69231.4086 16.64182 1.8411 3.69231.4086 0 6.8053-3.69231-.4086-16.64182-1.8411-3.69231-.4086zM32 1023.5848l-5.4219 1.3478 0 6.8043 5.4219-1.3479-1.94449-2.9187z"/><path fill="#ff1e55" d="m 3.98678,1031.5548 0,6.8053 3.69231,-0.9179 16.64182,-4.1368 3.69231,-0.918 0,-6.8053 -3.69231,0.918 -16.64182,4.1368 -3.69231,0.9179 z"/><path style="line-height:125%;-inkscape-font-specification:'Bebas Neue Bold'" fill="#fff" d="M 24.800781 7.7441406 C 24.701789 7.7307719 24.586149 7.7389094 24.455078 7.7714844 C 23.930795 7.9017844 23.662109 8.2833312 23.662109 8.8320312 C 23.662109 9.8120313 24.714844 9.6830719 24.714844 10.388672 C 24.714844 10.633672 24.607041 10.748416 24.435547 10.791016 C 24.264052 10.834016 24.15625 10.772144 24.15625 10.527344 L 24.15625 10.28125 L 23.646484 10.408203 L 23.646484 10.619141 C 23.646484 11.167941 23.921989 11.41285 24.451172 11.28125 C 24.980355 11.14975 25.253906 10.76755 25.253906 10.21875 C 25.253906 9.23875 24.201172 9.3696625 24.201172 8.6640625 C 24.201172 8.4191625 24.299212 8.3004125 24.470703 8.2578125 C 24.642198 8.2148125 24.740234 8.2842969 24.740234 8.5292969 L 24.740234 8.671875 L 25.25 8.5449219 L 25.25 8.4375 C 25.25 8.025975 25.097757 7.7842469 24.800781 7.7441406 z M 23.355469 8.0859375 L 22.835938 8.2148438 L 22.908203 9.2050781 L 23.277344 9.1152344 L 23.355469 8.0859375 z M 22.521484 8.2929688 L 21.050781 8.6582031 L 21.050781 12.087891 L 22.521484 11.722656 L 22.521484 11.232422 L 21.589844 11.462891 L 21.589844 10.458984 L 22.330078 10.275391 L 22.330078 9.7851562 L 21.589844 9.96875 L 21.589844 9.0136719 L 22.521484 8.7832031 L 22.521484 8.2929688 z M 20.660156 8.7558594 L 20.179688 8.875 L 20.179688 10.927734 L 19.626953 9.0117188 L 18.951172 9.1796875 L 18.951172 12.609375 L 19.435547 12.490234 L 19.435547 10.005859 L 20.107422 12.322266 L 20.660156 12.185547 L 20.660156 8.7558594 z M 18.566406 9.2753906 L 18.027344 9.4101562 L 18.027344 12.839844 L 18.566406 12.705078 L 18.566406 9.2753906 z M 17.794922 9.4667969 L 16.128906 9.8808594 L 16.128906 10.371094 L 16.691406 10.232422 L 16.691406 13.171875 L 17.230469 13.037109 L 17.230469 10.097656 L 17.794922 9.9570312 L 17.794922 9.4667969 z M 15.894531 9.9394531 L 15.414062 10.058594 L 15.414062 12.111328 L 14.861328 10.197266 L 14.183594 10.365234 L 14.183594 13.794922 L 14.669922 13.673828 L 14.669922 11.189453 L 15.341797 13.507812 L 15.894531 13.369141 L 15.894531 9.9394531 z M 13.859375 10.445312 L 12.390625 10.810547 L 12.390625 14.240234 L 13.859375 13.875 L 13.859375 13.384766 L 12.929688 13.617188 L 12.929688 12.611328 L 13.669922 12.427734 L 13.669922 11.9375 L 12.929688 12.123047 L 12.929688 11.166016 L 13.859375 10.935547 L 13.859375 10.445312 z M 11.263672 11.089844 L 10.724609 11.224609 L 10.724609 14.654297 L 12.150391 14.300781 L 12.150391 13.810547 L 11.263672 14.03125 L 11.263672 11.089844 z M 9.9296875 11.421875 L 9.140625 11.619141 L 8.5917969 15.185547 L 9.0878906 15.0625 L 9.1796875 14.416016 L 9.8417969 14.251953 L 9.9355469 14.851562 L 10.478516 14.716797 L 9.9296875 11.421875 z M 8.6074219 11.751953 L 8.1132812 11.875 L 7.7011719 14.773438 L 7.2890625 12.078125 L 6.7460938 12.214844 L 7.2753906 15.511719 L 8.078125 15.3125 L 8.6074219 11.751953 z M 9.5078125 12.134766 L 9.7675781 13.804688 L 9.25 13.933594 L 9.5078125 12.134766 z " font-family="Bebas Neue" font-weight="700" letter-spacing="0" transform="translate(0 1020.362)" word-spacing="0"/><path fill="#df1e49" d="m 0,1042.3352 5.4219,-1.3478 0,6.8042 -5.4219,1.3478 1.94451,-3.8854 z"/><path fill="#ff1e55" d="m 3.98678,1040.1724 0,6.8053 3.69231,-0.9179 16.64182,-4.1369 3.69231,-0.9179 0,-6.8053 -3.69231,0.9179 -16.64182,4.137 -3.69231,0.9178 z"/><path style="line-height:125%;-inkscape-font-specification:'Bebas Neue Bold'" fill="#fff" d="M 21.011719 17.246094 L 20.472656 17.380859 L 20.472656 20.810547 L 21.898438 20.455078 L 21.898438 19.964844 L 21.011719 20.185547 L 21.011719 17.246094 z M 19.677734 17.578125 L 18.888672 17.773438 L 18.339844 21.339844 L 18.833984 21.216797 L 18.927734 20.572266 L 19.589844 20.408203 L 19.681641 21.005859 L 20.226562 20.871094 L 19.677734 17.578125 z M 18.091797 17.972656 L 17.554688 18.105469 L 17.554688 21.535156 L 18.091797 21.402344 L 18.091797 17.972656 z M 19.255859 18.291016 L 19.515625 19.960938 L 18.996094 20.089844 L 19.255859 18.291016 z M 16.767578 18.320312 C 16.667438 18.307225 16.550265 18.316734 16.417969 18.349609 C 15.888786 18.481209 15.615234 18.861456 15.615234 19.410156 L 15.615234 21.195312 C 15.615234 21.744113 15.888786 21.989022 16.417969 21.857422 C 16.947152 21.725922 17.222656 21.343722 17.222656 20.794922 L 17.222656 20.339844 L 16.712891 20.466797 L 16.712891 20.955078 C 16.712891 21.200078 16.605089 21.316775 16.433594 21.359375 C 16.2621 21.402375 16.154297 21.340503 16.154297 21.095703 L 16.154297 19.242188 C 16.154297 18.997188 16.2621 18.878537 16.433594 18.835938 C 16.605089 18.792938 16.712891 18.858816 16.712891 19.103516 L 16.712891 19.470703 L 17.222656 19.34375 L 17.222656 19.011719 C 17.222656 18.600194 17.068 18.359575 16.767578 18.320312 z M 15.330078 18.658203 L 13.859375 19.023438 L 13.859375 22.453125 L 15.330078 22.087891 L 15.330078 21.597656 L 14.398438 21.830078 L 14.398438 20.826172 L 15.138672 20.640625 L 15.138672 20.152344 L 14.398438 20.335938 L 14.398438 19.380859 L 15.330078 19.148438 L 15.330078 18.658203 z M 13.160156 19.253906 C 13.059556 19.242323 12.941386 19.253609 12.806641 19.287109 L 12.806641 19.285156 L 12.013672 19.482422 L 12.013672 22.914062 L 12.550781 22.779297 L 12.550781 21.490234 L 12.806641 21.427734 C 13.345624 21.293734 13.609375 20.929659 13.609375 20.380859 L 13.609375 19.933594 C 13.609375 19.522069 13.461956 19.288655 13.160156 19.253906 z M 11.255859 19.689453 C 11.156867 19.676084 11.041227 19.686175 10.910156 19.71875 C 10.385872 19.84915 10.117188 20.228644 10.117188 20.777344 C 10.117188 21.757344 11.169922 21.628384 11.169922 22.333984 C 11.169922 22.578984 11.06212 22.693728 10.890625 22.736328 C 10.719131 22.779328 10.611328 22.717456 10.611328 22.472656 L 10.611328 22.228516 L 10.101562 22.353516 L 10.101562 22.564453 C 10.101562 23.113253 10.375114 23.360116 10.904297 23.228516 C 11.43348 23.097016 11.708984 22.714816 11.708984 22.166016 C 11.708984 21.186016 10.654297 21.314975 10.654297 20.609375 C 10.654297 20.364375 10.752337 20.247678 10.923828 20.205078 C 11.095323 20.162078 11.193359 20.229509 11.193359 20.474609 L 11.193359 20.617188 L 11.703125 20.490234 L 11.703125 20.382812 C 11.703125 19.971287 11.552836 19.729559 11.255859 19.689453 z M 12.919922 19.763672 C 13.018455 19.772512 13.070313 19.849003 13.070312 20.033203 L 13.070312 20.548828 C 13.070312 20.793828 12.978133 20.8949 12.806641 20.9375 L 12.550781 21 L 12.550781 19.837891 L 12.806641 19.775391 C 12.849514 19.764641 12.887078 19.760725 12.919922 19.763672 z " font-family="Bebas Neue" font-weight="700" letter-spacing="0" transform="translate(0 1020.362)" word-spacing="0"/></g></svg>