<svg xmlns="http://www.w3.org/2000/svg" width="32" height="32" viewBox="0 0 32 32"><g transform="translate(0 -1020.362)"><path fill="none" stroke="#cf6b00" stroke-linecap="round" stroke-linejoin="round" stroke-width=".829" d="m 20.1216,1030.1047 c -0.64676,-11.0985 -6.8082,-11.0985 -7.45514,-0.041"/><path fill="#fc0" fill-rule="evenodd" d="m 9.50611,1027.2981 16.02657,0.6127 1.23229,22.1812 -17.25205,1.2708 z"/><circle cx="21.508" cy="1030.261" r=".75" fill="#dedede"/><path fill="#ff8702" fill-rule="evenodd" d="m 9.50835,1027.2959 -1.84503,0.623 -3e-5,20.3293 1.8496,3.0761 z"/><path fill="#ff9d02" fill-rule="evenodd" d="m 5.81605,1027.9108 0,20.9489 1.87511,-0.6161 0,-20.3328"/><path fill="#fc0" fill-rule="evenodd" d="m 5.81605,1048.8597 1.84844,-0.6161 1.88694,3.1192 -3.73538,-2.5031"/><circle cx="14.042" cy="1030.324" r=".75" fill="#dedede"/><path fill="none" stroke="#cf6b00" stroke-linecap="round" stroke-linejoin="round" stroke-width=".829" d="m 21.53867,1030.2688 c -0.64674,-11.0984 -6.8082,-11.0984 -7.45513,-0.041"/><path fill="#ff1e55" fill-rule="evenodd" d="m 16.4345,1032.726 c -0.48544,0 -0.97094,0.1856 -1.34282,0.5576 -0.74376,0.7437 -0.74379,1.9418 0,2.6857 l 0.1412,0.1412 2.70293,2.7375 2.70294,-2.7375 0.1412,-0.1412 c 0.74379,-0.7439 0.74376,-1.942 0,-2.6857 -0.74375,-0.7438 -1.94186,-0.7438 -2.68565,0 l -0.15849,0.1585 -0.15848,-0.1585 c -0.37189,-0.372 -0.85739,-0.5576 -1.34283,-0.5576 z"/><path fill="#df1e49" d="M0 1042.812l5.42189-.6933 0 6.8042-5.42189.6932 1.9445-3.6507zM31.99999 1036.5427l-5.4219.6932 0 6.8042 5.4219-.6933-1.9445-3.1535z"/><path fill="#ff1e55" d="m 3.98678,1041.1304 0,6.8053 3.6923,-0.4721 16.64182,-2.1277 3.69231,-0.4721 0,-6.8053 -3.69231,0.4722 -16.64182,2.1276 -3.6923,0.4721 z"/><path style="line-height:125%;-inkscape-font-specification:'Bebas Neue Bold'" fill="#fff" d="M 22.050781 19.966797 L 20.402344 20.177734 L 20.402344 24.023438 L 22.050781 23.8125 L 22.050781 23.263672 L 21.007812 23.396484 L 21.007812 22.271484 L 21.837891 22.164062 L 21.837891 21.615234 L 21.007812 21.720703 L 21.007812 20.650391 L 22.050781 20.515625 L 22.050781 19.966797 z M 19.140625 20.339844 L 18.535156 20.416016 L 18.535156 24.261719 L 20.134766 24.058594 L 20.134766 23.507812 L 19.140625 23.634766 L 19.140625 20.339844 z M 17.644531 20.529297 L 16.759766 20.642578 L 16.144531 24.568359 L 16.699219 24.498047 L 16.802734 23.787109 L 17.544922 23.691406 L 17.650391 24.375 L 18.259766 24.296875 L 17.644531 20.529297 z M 15.066406 20.816406 C 14.47848 20.891406 14.177734 21.281084 14.177734 21.896484 C 14.177734 22.995484 15.357422 22.992003 15.357422 23.783203 C 15.357422 24.058003 15.237234 24.172666 15.044922 24.197266 C 14.852609 24.222266 14.732422 24.137981 14.732422 23.863281 L 14.732422 23.589844 L 14.160156 23.662109 L 14.160156 23.898438 C 14.160156 24.513837 14.467125 24.8258 15.060547 24.75 C 15.653968 24.674 15.962891 24.283369 15.962891 23.667969 C 15.962891 22.569069 14.78125 22.57245 14.78125 21.78125 C 14.78125 21.50645 14.891672 21.387881 15.083984 21.363281 C 15.276297 21.338281 15.384766 21.428625 15.384766 21.703125 L 15.384766 21.863281 L 15.957031 21.789062 L 15.957031 21.667969 C 15.957031 21.052569 15.654333 20.741206 15.066406 20.816406 z M 17.171875 21.271484 L 17.462891 23.179688 L 16.880859 23.253906 L 17.171875 21.271484 z " font-family="Bebas Neue" font-weight="700" letter-spacing="0" transform="translate(0 1020.362)" word-spacing="0"/></g></svg>