<svg xmlns="http://www.w3.org/2000/svg" width="32" height="32" viewBox="0 0 32 32"><g transform="translate(0 -1020.362)"><path fill="#3477e0" d="m 7.36473,1022.2045 c 0,0 -0.80743,0.6627 -1.2483,0.9758 -1.93878,1.8819 -3.87835,3.7651 -5.81713,5.6466 -0.50039,0.7496 0.42423,1.3463 0.7558,1.9548 0.93103,1.2259 1.77097,2.5326 2.75986,3.7074 0.81982,0.2377 1.22225,-0.7302 1.78726,-1.152 0.45656,-0.4564 0.91255,-0.9159 1.36911,-1.3723 l 0,17.9531 c 0.17843,0.8861 1.2219,0.5071 1.86469,0.5885 l 15.794203,0 c 0.885928,-0.1775 0.507078,-1.2217 0.588527,-1.8648 l 0,-16.5779 c 0.892584,0.8398 1.692594,1.8014 2.645266,2.562 0.829231,0.1109 1.04363,-0.8998 1.508494,-1.4002 0.806,-1.1723 1.613141,-2.3433 2.419141,-3.5156 0.30393,-0.8621 -0.741443,-1.1948 -1.211124,-1.7101 l -6.932229,-5.7953 -3.112982,0 -0.573029,0 a 3.9647953,3.9647953 0 0 1 -3.961736,3.9276 3.9647953,3.9647953 0 0 1 -3.964778,-3.9276 l -0.839435,0 -3.831608,0 z"/><path fill="#6ac1f7" fill-rule="evenodd" d="m 13.973222,1030.4794 c -0.655377,0 -1.310864,0.2505 -1.812906,0.7529 -1.004166,1.004 -1.004193,2.6216 0,3.6258 l 0.1905,0.19 3.649182,3.6957 3.649184,-3.6957 0.190498,-0.19 c 1.004167,-1.0042 1.004139,-2.6218 0,-3.6258 -1.004138,-1.0042 -2.621672,-1.0042 -3.625838,0 l -0.213898,0.2147 -0.213899,-0.2147 c -0.502069,-0.5021 -1.157528,-0.7529 -1.812905,-0.7529 z"/><path fill="#df1e49" d="M0 1041.7615l5.8737 0 0 7.3713-5.8737 0 2.10652-3.6855zM31.999996 1041.7615l-5.873735 0 0 7.3713 5.873735 0-2.106559-3.6855z"/><path fill="#ff1e55" d="m 4.319,1040.4922 0,7.3723 3.99999,0 15.361983,0 3.999988,0 0,-7.3723 -3.999988,0 -15.361983,0 z"/><path style="line-height:125%;-inkscape-font-specification:'Bebas Neue Bold'" fill="#fff" d="M 12.292969 21.914062 C 11.724996 21.914062 11.433594 22.253156 11.433594 22.847656 C 11.433594 23.909256 12.574219 24.052106 12.574219 24.816406 C 12.574219 25.081806 12.45727 25.177734 12.271484 25.177734 C 12.085699 25.177734 11.96875 25.081406 11.96875 24.816406 L 11.96875 24.550781 L 11.417969 24.550781 L 11.417969 24.779297 C 11.417969 25.373797 11.713827 25.712891 12.287109 25.712891 C 12.860391 25.712891 13.158203 25.373797 13.158203 24.779297 C 13.158203 23.717597 12.017578 23.574947 12.017578 22.810547 C 12.017578 22.545147 12.122808 22.443359 12.308594 22.443359 C 12.494379 22.443359 12.601563 22.545147 12.601562 22.810547 L 12.601562 22.964844 L 13.152344 22.964844 L 13.152344 22.847656 C 13.152344 22.253156 12.860943 21.914062 12.292969 21.914062 z M 14.310547 21.914062 C 13.737266 21.914062 13.439453 22.253156 13.439453 22.847656 L 13.439453 24.779297 C 13.439453 25.373797 13.737266 25.712891 14.310547 25.712891 C 14.883829 25.712891 15.181641 25.373797 15.181641 24.779297 L 15.181641 24.285156 L 14.628906 24.285156 L 14.628906 24.816406 C 14.628906 25.081806 14.511958 25.177734 14.326172 25.177734 C 14.140386 25.177734 14.023437 25.081406 14.023438 24.816406 L 14.023438 22.810547 C 14.023438 22.545147 14.140386 22.443359 14.326172 22.443359 C 14.511958 22.443359 14.628906 22.545147 14.628906 22.810547 L 14.628906 23.208984 L 15.181641 23.208984 L 15.181641 22.847656 C 15.181641 22.253156 14.883829 21.914062 14.310547 21.914062 z M 16.378906 21.914062 C 15.805625 21.914062 15.492188 22.253156 15.492188 22.847656 L 15.492188 24.779297 C 15.492188 25.373797 15.805625 25.712891 16.378906 25.712891 C 16.952188 25.712891 17.265625 25.373797 17.265625 24.779297 L 17.265625 22.847656 C 17.265625 22.253156 16.952188 21.914062 16.378906 21.914062 z M 8.3339844 21.955078 L 8.3339844 25.671875 L 9.2578125 25.671875 C 9.8417104 25.671875 10.128906 25.348406 10.128906 24.753906 L 10.128906 22.873047 C 10.128906 22.278547 9.8417104 21.955078 9.2578125 21.955078 L 8.3339844 21.955078 z M 10.501953 21.955078 L 10.501953 25.671875 L 11.085938 25.671875 L 11.085938 21.955078 L 10.501953 21.955078 z M 17.619141 21.955078 L 17.619141 24.785156 C 17.619141 25.379656 17.914999 25.71875 18.488281 25.71875 C 19.061562 25.71875 19.359375 25.379656 19.359375 24.785156 L 19.359375 21.955078 L 18.806641 21.955078 L 18.806641 24.822266 C 18.806641 25.087666 18.689692 25.183594 18.503906 25.183594 C 18.31812 25.183594 18.203125 25.087266 18.203125 24.822266 L 18.203125 21.955078 L 17.619141 21.955078 z M 19.753906 21.955078 L 19.753906 25.671875 L 20.279297 25.671875 L 20.279297 22.980469 L 21.007812 25.671875 L 21.607422 25.671875 L 21.607422 21.955078 L 21.085938 21.955078 L 21.085938 24.179688 L 20.486328 21.955078 L 19.753906 21.955078 z M 21.861328 21.955078 L 21.861328 22.486328 L 22.470703 22.486328 L 22.470703 25.671875 L 23.054688 25.671875 L 23.054688 22.486328 L 23.666016 22.486328 L 23.666016 21.955078 L 21.861328 21.955078 z M 16.378906 22.443359 C 16.564692 22.443359 16.681641 22.545147 16.681641 22.810547 L 16.681641 24.816406 C 16.681641 25.081806 16.564692 25.183594 16.378906 25.183594 C 16.193121 25.183594 16.076172 25.081806 16.076172 24.816406 L 16.076172 22.810547 C 16.076172 22.545147 16.193121 22.443359 16.378906 22.443359 z M 8.9179688 22.486328 L 9.2480469 22.486328 C 9.4338326 22.486328 9.5449219 22.582656 9.5449219 22.847656 L 9.5449219 24.779297 C 9.5449219 25.044697 9.4338326 25.140625 9.2480469 25.140625 L 8.9179688 25.140625 L 8.9179688 22.486328 z " font-family="Bebas Neue" font-weight="700" letter-spacing="0" transform="translate(0 1020.362)" word-spacing="0"/></g></svg>