<svg xmlns="http://www.w3.org/2000/svg" width="32" height="32" viewBox="0 0 32 32"><g transform="translate(0 -1020.362)"><path fill="#ff9500" d="m 5.22898,1040.4958 0,-6.0975 3.30837,0.366 7.45572,0.825 0,6.0976 -7.45572,-0.8248 z"/><path fill="#ff9500" d="m 26.77101,1031.0163 0,6.1427 -3.33282,-0.3686 -7.51092,-0.8313 0,-6.1427 7.51092,0.8311 z"/><path fill="#d31206" fill-rule="evenodd" stroke="#a80e05" stroke-width="1.5" d="m 11.5731,1027.2057 c -1.42695,0 -2.85407,0.5458 -3.9472,1.639 -2.18628,2.1862 -2.18633,5.7082 0,7.8947 l 0.41504,0.415 7.94523,8.0468 7.94522,-8.0468 0.41505,-0.415 c 2.18634,-2.1865 2.18628,-5.7085 0,-7.8947 -2.18627,-2.1863 -5.70806,-2.1863 -7.8944,0 l -0.46587,0.4661 -0.46588,-0.4661 c -1.09316,-1.0932 -2.52024,-1.639 -3.94719,-1.639 z"/><path fill="#fc0" d="m 5.25973,1034.4036 0,6.093 3.30578,-0.5173 14.89972,-2.3314 3.30578,-0.5172 0,-6.0927 -3.30578,0.517 -14.89972,2.3314 -3.30578,0.5172 z"/><path style="line-height:125%;-inkscape-font-specification:'Bebas Neue Bold'" fill="#fff" d="M 22.353516 12.878906 L 20.863281 13.111328 L 20.863281 13.550781 L 21.367188 13.472656 L 21.367188 16.103516 L 21.849609 16.027344 L 21.849609 13.396484 L 22.353516 13.316406 L 22.353516 12.878906 z M 20.654297 13.144531 L 20.222656 13.210938 L 20.222656 15.048828 L 19.728516 13.289062 L 19.123047 13.384766 L 19.123047 16.455078 L 19.556641 16.386719 L 19.556641 14.162109 L 20.158203 16.292969 L 20.654297 16.214844 L 20.654297 13.144531 z M 18.794922 13.435547 L 18.339844 13.505859 L 18.339844 15.875 C 18.339844 16.0944 18.243388 16.188891 18.089844 16.212891 C 17.936302 16.236891 17.839844 16.172425 17.839844 15.953125 L 17.839844 13.583984 L 17.357422 13.660156 L 17.357422 15.998047 C 17.357422 16.489447 17.602385 16.732303 18.076172 16.658203 C 18.549958 16.584203 18.794922 16.264838 18.794922 15.773438 L 18.794922 13.435547 z M 16.332031 13.785156 C 15.858245 13.859156 15.599609 14.180575 15.599609 14.671875 L 15.599609 16.269531 C 15.599609 16.760931 15.858245 17.001834 16.332031 16.927734 C 16.805818 16.853734 17.064453 16.532416 17.064453 16.041016 L 17.064453 14.443359 C 17.064453 13.952059 16.805818 13.711056 16.332031 13.785156 z M 14.623047 14.054688 C 14.14926 14.128688 13.904297 14.448153 13.904297 14.939453 L 13.904297 16.535156 C 13.904297 17.026556 14.14926 17.269413 14.623047 17.195312 C 15.096834 17.121312 15.341797 16.801947 15.341797 16.310547 L 15.341797 15.902344 L 14.886719 15.972656 L 14.886719 16.412109 C 14.886719 16.631409 14.790263 16.726 14.636719 16.75 C 14.483177 16.774 14.386719 16.709334 14.386719 16.490234 L 14.386719 14.832031 C 14.386719 14.612731 14.483175 14.514334 14.636719 14.490234 C 14.790261 14.466234 14.886719 14.534306 14.886719 14.753906 L 14.886719 15.082031 L 15.341797 15.011719 L 15.341797 14.712891 C 15.341797 14.221591 15.096834 13.980587 14.623047 14.054688 z M 16.332031 14.224609 C 16.485573 14.200609 16.582031 14.268681 16.582031 14.488281 L 16.582031 16.146484 C 16.582031 16.365784 16.485576 16.464281 16.332031 16.488281 C 16.178489 16.512281 16.082031 16.444209 16.082031 16.224609 L 16.082031 14.566406 C 16.082031 14.347106 16.178487 14.248609 16.332031 14.224609 z M 12.955078 14.314453 C 12.485678 14.387453 12.244141 14.705966 12.244141 15.197266 C 12.244141 16.074666 13.1875 16.045934 13.1875 16.677734 C 13.1875 16.897034 13.091044 16.991625 12.9375 17.015625 C 12.783958 17.039625 12.6875 16.975059 12.6875 16.755859 L 12.6875 16.537109 L 12.232422 16.607422 L 12.232422 16.796875 C 12.232422 17.288275 12.477386 17.529278 12.951172 17.455078 C 13.424959 17.381078 13.669922 17.061713 13.669922 16.570312 C 13.669922 15.693012 12.728516 15.723497 12.728516 15.091797 C 12.728516 14.872497 12.81521 14.774 12.96875 14.75 C 13.122292 14.726 13.210938 14.795725 13.210938 15.015625 L 13.210938 15.142578 L 13.666016 15.072266 L 13.666016 14.974609 C 13.666016 14.483309 13.424478 14.241053 12.955078 14.314453 z M 11.957031 14.505859 L 11.474609 14.580078 L 11.474609 17.652344 L 11.957031 17.576172 L 11.957031 14.505859 z M 10.447266 14.742188 L 9.6835938 14.861328 L 9.6835938 17.931641 L 10.447266 17.8125 C 10.929827 17.7375 11.167969 17.432706 11.167969 16.941406 L 11.167969 15.388672 C 11.167969 14.897372 10.929827 14.666688 10.447266 14.742188 z M 10.439453 15.181641 C 10.592995 15.157641 10.685547 15.222506 10.685547 15.441406 L 10.685547 17.039062 C 10.685547 17.258462 10.59299 17.351 10.439453 17.375 L 10.167969 17.417969 L 10.167969 15.224609 L 10.439453 15.183594 L 10.439453 15.181641 z " font-family="Bebas Neue" font-weight="700" letter-spacing="0" transform="translate(0 1020.362)" word-spacing="0"/></g></svg>