<svg xmlns="http://www.w3.org/2000/svg" width="32" height="32" viewBox="0 0 32 32"><g transform="translate(0 -1020.362)"><rect width="24.599" height="6.683" x="3.706" y="1033.021" fill="#ff1e55" fill-rule="evenodd" rx=".397" ry=".375"/><path fill="#3477e0" d="m 3.7115,1034.0383 28.10822,0 c 0,3.9021 0,1.7389 0,4.6476 l -28.10822,0 c 0,-4.2426 0,-0.7085 0,-4.6476 z"/><path fill="#fff" d="M4.06292 1034.6957c-.097 0-.17571.074-.17571.166 0 .092.0787.166.17571.166.097 0 .17571-.074.17571-.166 0-.092-.0787-.166-.17571-.166zm.7949966 0c-.097 0-.1757097.074-.1757097.166 0 .092.0787.166.1757097.166.097 0 .17571-.074.17571-.166 0-.092-.0787-.166-.17571-.166zm.7949966 0c-.097 0-.1757094.074-.1757094.166 0 .092.0787.166.1757094.166.097 0 .17571-.074.17571-.166 0-.092-.0787-.166-.17571-.166zm.7949967 0c-.097 0-.1757092.074-.1757092.166 0 .092.0787.166.1757092.166.097 0 .17571-.074.17571-.166 0-.092-.0787-.166-.17571-.166zm.7949966 0c-.097 0-.1757089.074-.1757089.166 0 .092.0787.166.1757089.166.097 0 .17571-.074.17571-.166 0-.092-.0787-.166-.17571-.166zm.7949966 0c-.097 0-.1757085.074-.1757085.166 0 .092.0787.166.1757085.166.097 0 .17571-.074.17571-.166 0-.092-.0787-.166-.17571-.166zm.7949966 0c-.097 0-.1757082.074-.1757082.166 0 .092.0787.166.1757082.166.097 0 .17571-.074.17571-.166 0-.092-.0787-.166-.17571-.166zm.7949966 0c-.097 0-.1757079.074-.1757079.166 0 .092.0787.166.1757079.166.097 0 .17571-.074.17571-.166 0-.092-.0787-.166-.17571-.166zm.7949967 0c-.097 0-.175708.074-.175708.166 0 .092.0787.166.175708.166.097 0 .17571-.074.17571-.166 0-.092-.0787-.166-.17571-.166zm.794997 0c-.097 0-.175708.074-.175708.166 0 .092.0787.166.175708.166.097 0 .17571-.074.17571-.166 0-.092-.0787-.166-.17571-.166zm.794996 0c-.097 0-.175707.074-.175707.166 0 .092.0787.166.175707.166.097 0 .17571-.074.17571-.166 0-.092-.0787-.166-.17571-.166zm.794997 0c-.097 0-.175707.074-.175707.166 0 .092.0787.166.175707.166.097 0 .17571-.074.17571-.166 0-.092-.0787-.166-.17571-.166zm.794996 0c-.097 0-.175706.074-.175706.166 0 .092.0787.166.175706.166.097 0 .17571-.074.17571-.166 0-.092-.0787-.166-.17571-.166zm.794997 0c-.097 0-.175706.074-.175706.166 0 .092.0787.166.175706.166.097 0 .17571-.074.17571-.166 0-.092-.0787-.166-.17571-.166zm.794997 0c-.097 0-.175706.074-.175706.166 0 .092.0787.166.175706.166.097 0 .17571-.074.17571-.166 0-.092-.0787-.166-.17571-.166zm.794996 0c-.097 0-.175705.074-.175705.166 0 .092.0787.166.175705.166.097 0 .17571-.074.17571-.166 0-.092-.0787-.166-.17571-.166zm.794997 0c-.097 0-.175705.074-.175705.166 0 .092.0787.166.175705.166.097 0 .17571-.074.17571-.166 0-.092-.0787-.166-.17571-.166zm.794997 0c-.097 0-.175705.074-.175705.166 0 .092.0787.166.175705.166.097 0 .17571-.074.17571-.166 0-.092-.0787-.166-.17571-.166zm.794996 0c-.097 0-.175705.074-.175705.166 0 .092.0787.166.175705.166.097 0 .17571-.074.17571-.166 0-.092-.0787-.166-.17571-.166zm.794997 0c-.097 0-.175705.074-.175705.166 0 .092.0787.166.175705.166.097 0 .17571-.074.17571-.166 0-.092-.0787-.166-.17571-.166zm.794996 0c-.097 0-.175704.074-.175704.166 0 .092.0787.166.175704.166.097 0 .17571-.074.17571-.166 0-.092-.0787-.166-.17571-.166zm.794997 0c-.097 0-.175704.074-.175704.166 0 .092.0787.166.175704.166.097 0 .17571-.074.17571-.166 0-.092-.0787-.166-.17571-.166zm.794997 0c-.097 0-.175704.074-.175704.166 0 .092.0787.166.175704.166.097 0 .17571-.074.17571-.166 0-.092-.0787-.166-.17571-.166zm.794996 0c-.097 0-.175703.074-.175703.166 0 .092.0787.166.175703.166.097 0 .17571-.074.17571-.166 0-.092-.0787-.166-.17571-.166zm.794997 0c-.097 0-.175703.074-.175703.166 0 .092.0787.166.175703.166.097 0 .17571-.074.17571-.166 0-.092-.0787-.166-.17571-.166zm.794996 0c-.097 0-.175702.074-.175702.166 0 .092.0787.166.175702.166.097 0 .17571-.074.17571-.166 0-.092-.0787-.166-.17571-.166zm.794997 0c-.097 0-.175702.074-.175702.166 0 .092.0787.166.175702.166.097 0 .17571-.074.17571-.166 0-.092-.0787-.166-.17571-.166zm.794997 0c-.097 0-.175702.074-.175702.166 0 .092.0787.166.175702.166.097 0 .17571-.074.17571-.166 0-.092-.0787-.166-.17571-.166zm.794996 0c-.097 0-.175701.074-.175701.166 0 .092.0787.166.175701.166.097 0 .17571-.074.17571-.166 0-.092-.0787-.166-.17571-.166zm.794997 0c-.097 0-.175702.074-.175702.166 0 .092.0787.166.175702.166.097 0 .17571-.074.17571-.166 0-.092-.0787-.166-.17571-.166zm.794997 0c-.097 0-.175702.074-.175702.166 0 .092.0787.166.175702.166.097 0 .17571-.074.17571-.166 0-.092-.0787-.166-.17571-.166zm.794996 0c-.097 0-.175701.074-.175701.166 0 .092.0787.166.175701.166.097 0 .17571-.074.17571-.166 0-.092-.0787-.166-.17571-.166zm.794997 0c-.097 0-.175701.074-.175701.166 0 .092.0787.166.175701.166.097 0 .17571-.074.17571-.166 0-.092-.0787-.166-.17571-.166zm.794996 0c-.097 0-.1757.074-.1757.166 0 .092.0787.166.1757.166.097 0 .17571-.074.17571-.166 0-.092-.0787-.166-.17571-.166zm.794997 0c-.097 0-.1757.074-.1757.166 0 .092.0787.166.1757.166.097 0 .17571-.074.17571-.166 0-.092-.0787-.166-.17571-.166zM4.06292 1037.6931c-.097 0-.17571.074-.17571.166 0 .092.0787.1659.17571.1659.097 0 .17571-.074.17571-.1659 0-.092-.0787-.166-.17571-.166zm.7949966 0c-.097 0-.1757097.074-.1757097.166 0 .092.0787.1659.1757097.1659.097 0 .17571-.074.17571-.1659 0-.092-.0787-.166-.17571-.166zm.7949966 0c-.097 0-.1757094.074-.1757094.166 0 .092.0787.1659.1757094.1659.097 0 .17571-.074.17571-.1659 0-.092-.0787-.166-.17571-.166zm.7949967 0c-.097 0-.1757092.074-.1757092.166 0 .092.0787.1659.1757092.1659.097 0 .17571-.074.17571-.1659 0-.092-.0787-.166-.17571-.166zm.7949966 0c-.097 0-.1757089.074-.1757089.166 0 .092.0787.1659.1757089.1659.097 0 .17571-.074.17571-.1659 0-.092-.0787-.166-.17571-.166zm.7949966 0c-.097 0-.1757085.074-.1757085.166 0 .092.0787.1659.1757085.1659.097 0 .17571-.074.17571-.1659 0-.092-.0787-.166-.17571-.166zm.7949966 0c-.097 0-.1757082.074-.1757082.166 0 .092.0787.1659.1757082.1659.097 0 .17571-.074.17571-.1659 0-.092-.0787-.166-.17571-.166zm.7949966 0c-.097 0-.1757079.074-.1757079.166 0 .092.0787.1659.1757079.1659.097 0 .17571-.074.17571-.1659 0-.092-.0787-.166-.17571-.166zm.7949967 0c-.097 0-.175708.074-.175708.166 0 .092.0787.1659.175708.1659.097 0 .17571-.074.17571-.1659 0-.092-.0787-.166-.17571-.166zm.794997 0c-.097 0-.175708.074-.175708.166 0 .092.0787.1659.175708.1659.097 0 .17571-.074.17571-.1659 0-.092-.0787-.166-.17571-.166zm.794996 0c-.097 0-.175707.074-.175707.166 0 .092.0787.1659.175707.1659.097 0 .17571-.074.17571-.1659 0-.092-.0787-.166-.17571-.166zm.794997 0c-.097 0-.175707.074-.175707.166 0 .092.0787.1659.175707.1659.097 0 .17571-.074.17571-.1659 0-.092-.0787-.166-.17571-.166zm.794996 0c-.097 0-.175706.074-.175706.166 0 .092.0787.1659.175706.1659.097 0 .17571-.074.17571-.1659 0-.092-.0787-.166-.17571-.166zm.794997 0c-.097 0-.175706.074-.175706.166 0 .092.0787.1659.175706.1659.097 0 .17571-.074.17571-.1659 0-.092-.0787-.166-.17571-.166zm.794997 0c-.097 0-.175706.074-.175706.166 0 .092.0787.1659.175706.1659.097 0 .17571-.074.17571-.1659 0-.092-.0787-.166-.17571-.166zm.794996 0c-.097 0-.175705.074-.175705.166 0 .092.0787.1659.175705.1659.097 0 .17571-.074.17571-.1659 0-.092-.0787-.166-.17571-.166zm.794997 0c-.097 0-.175705.074-.175705.166 0 .092.0787.1659.175705.1659.097 0 .17571-.074.17571-.1659 0-.092-.0787-.166-.17571-.166zm.794997 0c-.097 0-.175705.074-.175705.166 0 .092.0787.1659.175705.1659.097 0 .17571-.074.17571-.1659 0-.092-.0787-.166-.17571-.166zm.794996 0c-.097 0-.175705.074-.175705.166 0 .092.0787.1659.175705.1659.097 0 .17571-.074.17571-.1659 0-.092-.0787-.166-.17571-.166zm.794997 0c-.097 0-.175705.074-.175705.166 0 .092.0787.1659.175705.1659.097 0 .17571-.074.17571-.1659 0-.092-.0787-.166-.17571-.166zm.794996 0c-.097 0-.175704.074-.175704.166 0 .092.0787.1659.175704.1659.097 0 .17571-.074.17571-.1659 0-.092-.0787-.166-.17571-.166zm.794997 0c-.097 0-.175704.074-.175704.166 0 .092.0787.1659.175704.1659.097 0 .17571-.074.17571-.1659 0-.092-.0787-.166-.17571-.166zm.794997 0c-.097 0-.175704.074-.175704.166 0 .092.0787.1659.175704.1659.097 0 .17571-.074.17571-.1659 0-.092-.0787-.166-.17571-.166zm.794996 0c-.097 0-.175703.074-.175703.166 0 .092.0787.1659.175703.1659.097 0 .17571-.074.17571-.1659 0-.092-.0787-.166-.17571-.166zm.794997 0c-.097 0-.175703.074-.175703.166 0 .092.0787.1659.175703.1659.097 0 .17571-.074.17571-.1659 0-.092-.0787-.166-.17571-.166zm.794996 0c-.097 0-.175702.074-.175702.166 0 .092.0787.1659.175702.1659.097 0 .17571-.074.17571-.1659 0-.092-.0787-.166-.17571-.166zm.794997 0c-.097 0-.175702.074-.175702.166 0 .092.0787.1659.175702.1659.097 0 .17571-.074.17571-.1659 0-.092-.0787-.166-.17571-.166zm.794997 0c-.097 0-.175702.074-.175702.166 0 .092.0787.1659.175702.1659.097 0 .17571-.074.17571-.1659 0-.092-.0787-.166-.17571-.166zm.794996 0c-.097 0-.175701.074-.175701.166 0 .092.0787.1659.175701.1659.097 0 .17571-.074.17571-.1659 0-.092-.0787-.166-.17571-.166zm.794997 0c-.097 0-.175702.074-.175702.166 0 .092.0787.1659.175702.1659.097 0 .17571-.074.17571-.1659 0-.092-.0787-.166-.17571-.166zm.794997 0c-.097 0-.175702.074-.175702.166 0 .092.0787.1659.175702.1659.097 0 .17571-.074.17571-.1659 0-.092-.0787-.166-.17571-.166zm.794996 0c-.097 0-.175701.074-.175701.166 0 .092.0787.1659.175701.1659.097 0 .17571-.074.17571-.1659 0-.092-.0787-.166-.17571-.166zm.794997 0c-.097 0-.175701.074-.175701.166 0 .092.0787.1659.175701.1659.097 0 .17571-.074.17571-.1659 0-.092-.0787-.166-.17571-.166zm.794996 0c-.097 0-.1757.074-.1757.166 0 .092.0787.1659.1757.1659.097 0 .17571-.074.17571-.1659 0-.092-.0787-.166-.17571-.166zm.794997 0c-.097 0-.1757.074-.1757.166 0 .092.0787.1659.1757.1659.097 0 .17571-.074.17571-.1659 0-.092-.0787-.166-.17571-.166z"/><path fill="#3477e0" stroke="#ff1e55" stroke-linecap="round" stroke-linejoin="round" stroke-width="2.928" d="m 11,270 a 14,14 0 0 1 -14,14 14,14 0 0 1 -14,-14 14,14 0 0 1 14,-14 14,14 0 0 1 14,14 z" transform="matrix(.35142 0 0 .33198 6.669 946.727)"/><path fill="#fff" d="m 9.628945,1036.2263 c -0.0806,0 -0.14371,0.059 -0.14371,0.1358 0,0.076 0.063,0.1358 0.14371,0.1358 0.0807,0 0.14372,-0.06 0.14372,-0.1358 0,-0.076 -0.063,-0.1358 -0.14372,-0.1358 z m -0.076743,0.7395 c -0.0806,0 -0.14371,0.059 -0.14371,0.1358 0,0.076 0.063,0.1358 0.14371,0.1358 0.0807,0 0.14372,-0.06 0.14372,-0.1358 0,-0.076 -0.063,-0.1358 -0.14372,-0.1358 z m -0.2256022,0.7072 c -0.0806,0 -0.14371,0.059 -0.14371,0.1358 0,0.076 0.063,0.1358 0.14371,0.1358 0.0807,0 0.14372,-0.06 0.14372,-0.1358 0,-0.076 -0.063,-0.1358 -0.14372,-0.1358 z m -0.3627621,0.6473 c -0.0806,0 -0.14371,0.059 -0.14371,0.1358 0,0.076 0.063,0.1358 0.14371,0.1358 0.0807,0 0.14372,-0.06 0.14372,-0.1358 0,-0.076 -0.063,-0.1358 -0.14372,-0.1358 z m -0.4829861,0.5648 c -0.0806,0 -0.14371,0.059 -0.14371,0.1358 0,0.076 0.063,0.1358 0.14371,0.1358 0.0807,0 0.14372,-0.06 0.14372,-0.1358 0,-0.076 -0.063,-0.1358 -0.14372,-0.1358 z m -0.5824217,0.4642 c -0.0806,0 -0.14371,0.059 -0.14371,0.1358 0,0.076 0.063,0.1358 0.14371,0.1358 0.0807,0 0.14372,-0.06 0.14372,-0.1358 0,-0.076 -0.063,-0.1358 -0.14372,-0.1358 z m -0.6586009,0.35 c -0.0806,0 -0.14371,0.059 -0.14371,0.1358 0,0.076 0.063,0.1358 0.14371,0.1358 0.0807,0 0.14372,-0.06 0.14372,-0.1358 0,-0.076 -0.063,-0.1358 -0.14372,-0.1358 z m -0.7104403,0.2266 c -0.0806,0 -0.14371,0.059 -0.14371,0.1358 0,0.076 0.063,0.1358 0.14371,0.1358 0.0807,0 0.14372,-0.06 0.14372,-0.1358 0,-0.076 -0.063,-0.1358 -0.14372,-0.1358 z m -0.7382409,0.098 c -0.0806,0 -0.14371,0.059 -0.14371,0.1358 0,0.076 0.063,0.1358 0.14371,0.1358 0.0807,0 0.14372,-0.06 0.14372,-0.1358 0,-0.076 -0.063,-0.1358 -0.14372,-0.1358 z m -0.7435982,-0.033 c -0.0806,0 -0.14371,0.059 -0.14371,0.1357 0,0.076 0.063,0.1358 0.14371,0.1358 0.0807,0 0.14372,-0.06 0.14372,-0.1358 0,-0.076 -0.063,-0.1357 -0.14372,-0.1357 z m -0.7272725,-0.1626 c -0.0806,0 -0.14371,0.059 -0.14371,0.1357 0,0.076 0.063,0.1358 0.14371,0.1358 0.0807,0 0.14372,-0.06 0.14372,-0.1358 0,-0.076 -0.063,-0.1357 -0.14372,-0.1357 z m -0.6875767,-0.2892 c -0.0806,0 -0.14371,0.059 -0.14371,0.1357 0,0.076 0.063,0.1358 0.14371,0.1358 0.0807,0 0.14372,-0.06 0.14372,-0.1358 0,-0.076 -0.063,-0.1357 -0.14372,-0.1357 z m -0.6235185,-0.4086 c -0.0806,0 -0.14371,0.059 -0.14371,0.1358 0,0.076 0.063,0.1358 0.14371,0.1358 0.0807,0 0.14372,-0.06 0.14372,-0.1358 0,-0.076 -0.063,-0.1358 -0.14372,-0.1358 z m -0.5354891,-0.5164 c -0.0806,0 -0.14371,0.059 -0.14371,0.1357 0,0.076 0.063,0.1358 0.14371,0.1358 0.0807,0 0.14372,-0.06 0.14372,-0.1358 0,-0.076 -0.063,-0.1357 -0.14372,-0.1357 z m -0.4252644,-0.6086 c -0.0806,0 -0.14371,0.059 -0.14371,0.1357 0,0.076 0.063,0.1358 0.14371,0.1358 0.0807,0 0.14372,-0.06 0.14372,-0.1358 0,-0.076 -0.063,-0.1357 -0.14372,-0.1357 z m -0.2960043,-0.6804 c -0.0806,0 -0.14371,0.059 -0.14371,0.1357 0,0.076 0.063,0.1358 0.14371,0.1358 0.0807,0 0.14372,-0.06 0.14372,-0.1358 0,-0.076 -0.063,-0.1357 -0.14372,-0.1357 z m -0.1522536,-0.7271 c -0.0806,0 -0.14371,0.059 -0.14371,0.1357 0,0.076 0.063,0.1358 0.14371,0.1358 0.0807,0 0.14372,-0.06 0.14372,-0.1358 0,-0.076 -0.063,-0.1357 -0.14372,-0.1357 z m 0,-0.7437 c -0.0806,0 -0.14371,0.06 -0.14371,0.1357 0,0.076 0.063,0.1358 0.14371,0.1358 0.0807,0 0.14372,-0.06 0.14372,-0.1358 0,-0.076 -0.063,-0.1357 -0.14372,-0.1357 z m 0.1522536,-0.7271 c -0.0806,0 -0.14371,0.059 -0.14371,0.1357 0,0.076 0.063,0.1358 0.14371,0.1358 0.0807,0 0.14372,-0.06 0.14372,-0.1358 0,-0.076 -0.063,-0.1357 -0.14372,-0.1357 z m 0.2960043,-0.6804 c -0.0806,0 -0.14371,0.06 -0.14371,0.1357 0,0.076 0.063,0.1358 0.14371,0.1358 0.0807,0 0.14372,-0.06 0.14372,-0.1358 0,-0.076 -0.063,-0.1357 -0.14372,-0.1357 z m 0.4252644,-0.6086 c -0.0806,0 -0.14371,0.06 -0.14371,0.1357 0,0.076 0.063,0.1358 0.14371,0.1358 0.0807,0 0.14372,-0.06 0.14372,-0.1358 0,-0.076 -0.063,-0.1357 -0.14372,-0.1357 z m 0.5354891,-0.5165 c -0.0806,0 -0.14371,0.06 -0.14371,0.1358 0,0.076 0.063,0.1358 0.14371,0.1358 0.0807,0 0.14372,-0.06 0.14372,-0.1358 0,-0.076 -0.063,-0.1358 -0.14372,-0.1358 z m 0.6235185,-0.4085 c -0.0806,0 -0.14371,0.06 -0.14371,0.1357 0,0.076 0.063,0.1358 0.14371,0.1358 0.0807,0 0.14372,-0.06 0.14372,-0.1358 0,-0.076 -0.063,-0.1357 -0.14372,-0.1357 z m 0.6875767,-0.2892 c -0.0806,0 -0.14371,0.06 -0.14371,0.1357 0,0.076 0.063,0.1358 0.14371,0.1358 0.0807,0 0.14372,-0.06 0.14372,-0.1358 0,-0.076 -0.063,-0.1357 -0.14372,-0.1357 z m 0.7272725,-0.1626 c -0.0806,0 -0.14371,0.06 -0.14371,0.1357 0,0.076 0.063,0.1358 0.14371,0.1358 0.0807,0 0.14372,-0.06 0.14372,-0.1358 0,-0.076 -0.063,-0.1357 -0.14372,-0.1357 z m 0.7435982,-0.033 c -0.0806,0 -0.14371,0.06 -0.14371,0.1357 0,0.076 0.063,0.1358 0.14371,0.1358 0.0807,0 0.14372,-0.06 0.14372,-0.1358 0,-0.076 -0.063,-0.1357 -0.14372,-0.1357 z m 0.7382409,0.098 c -0.0806,0 -0.14371,0.06 -0.14371,0.1357 0,0.076 0.063,0.1358 0.14371,0.1358 0.0807,0 0.14372,-0.06 0.14372,-0.1358 0,-0.076 -0.063,-0.1357 -0.14372,-0.1357 z m 0.7104403,0.2265 c -0.0806,0 -0.14371,0.06 -0.14371,0.1358 0,0.076 0.063,0.1358 0.14371,0.1358 0.0807,0 0.14372,-0.06 0.14372,-0.1358 0,-0.076 -0.063,-0.1358 -0.14372,-0.1358 z m 0.6586009,0.3501 c -0.0806,0 -0.14371,0.06 -0.14371,0.1357 0,0.076 0.063,0.1358 0.14371,0.1358 0.0807,0 0.14372,-0.06 0.14372,-0.1358 0,-0.076 -0.063,-0.1357 -0.14372,-0.1357 z m 0.5824217,0.4642 c -0.0806,0 -0.14371,0.06 -0.14371,0.1357 0,0.076 0.063,0.1358 0.14371,0.1358 0.0807,0 0.14372,-0.06 0.14372,-0.1358 0,-0.076 -0.063,-0.1357 -0.14372,-0.1357 z m 0.4829861,0.5647 c -0.0806,0 -0.14371,0.06 -0.14371,0.1358 0,0.076 0.063,0.1358 0.14371,0.1358 0.0807,0 0.14372,-0.06 0.14372,-0.1358 0,-0.076 -0.063,-0.1358 -0.14372,-0.1358 z m 0.3627621,0.6474 c -0.0806,0 -0.14371,0.06 -0.14371,0.1357 0,0.076 0.063,0.1358 0.14371,0.1358 0.0807,0 0.14372,-0.06 0.14372,-0.1358 0,-0.076 -0.063,-0.1357 -0.14372,-0.1357 z m 0.2256022,0.7072 c -0.0806,0 -0.14371,0.06 -0.14371,0.1357 0,0.076 0.063,0.1358 0.14371,0.1358 0.0807,0 0.14372,-0.06 0.14372,-0.1358 0,-0.076 -0.063,-0.1357 -0.14372,-0.1357 z m 0.076743,0.7395 c -0.0806,0 -0.14371,0.06 -0.14371,0.1357 0,0.076 0.063,0.1358 0.14371,0.1358 0.0807,0 0.14372,-0.06 0.14372,-0.1358 0,-0.076 -0.063,-0.1357 -0.14372,-0.1357 z"/><rect width="4.054" height="3.482" x="3.587" y="1035.092" fill="#fff" color="#000" overflow="visible" rx=".074" ry=".07"/><rect width="4.587" height=".781" x="3.321" y="1035.093" fill="#ff1e55" color="#000" overflow="visible" rx=".075" ry=".071"/><rect width=".682" height="3.485" x="5.274" y="-1038.576" fill="#13b53e" color="#000" overflow="visible" ry="0" transform="scale(1 -1)"/><path style="line-height:normal;text-indent:0;text-align:start;text-decoration-line:none;text-transform:none;block-progression:tb" fill="#13b53e" fill-rule="evenodd" d="m 4.9175,1034.1487 c -0.0364,0 -0.0719,0.01 -0.10456,0.023 -0.13077,0.052 -0.22675,0.1589 -0.29179,0.2791 -0.065,0.1202 -0.10091,0.2567 -0.0689,0.3872 0.032,0.1306 0.16139,0.2442 0.34056,0.2561 l 0.004,0 0.51061,0 c -0.18927,0.1504 -0.57419,0.3973 -0.57419,0.3973 l 0.31648,0.1906 c 0,0 0.35752,-0.3762 0.57624,-0.5794 0.21875,0.2032 0.57641,0.5794 0.57641,0.5794 l 0.34665,-0.1684 c 0,0 -0.4112,-0.2691 -0.6044,-0.4195 l 0.48771,0 0.004,0 c 0.17917,-0.012 0.30851,-0.1255 0.34055,-0.2561 0.032,-0.1305 -0.004,-0.267 -0.0689,-0.3872 -0.065,-0.1202 -0.16102,-0.2274 -0.29179,-0.2791 -0.0654,-0.026 -0.14147,-0.03 -0.21543,-0.012 -0.074,0.018 -0.14588,0.059 -0.2031,0.1244 l -0.002,0 -0.38108,0.4879 -0.38123,-0.4879 -0.002,-0 c -0.0572,-0.065 -0.12914,-0.1063 -0.2031,-0.1244 -0.037,-0.01 -0.0744,-0.013 -0.11088,-0.011 z m 0.0397,0.205 c 0.006,1e-4 0.0117,0 0.0176,0 0.0236,0.01 0.0486,0.025 0.0822,0.063 l 0.36096,0.4621 -0.61032,0 c -0.10501,-0.01 -0.12153,-0.034 -0.13554,-0.091 -0.0141,-0.057 0.003,-0.1558 0.0499,-0.2421 0.0467,-0.086 0.12083,-0.1569 0.17798,-0.1795 0.0214,-0.01 0.0395,-0.014 0.0571,-0.014 z m 1.31477,0 c 0.0176,0 0.0357,0.01 0.0571,0.014 0.0572,0.023 0.1313,0.093 0.17799,0.1795 0.0467,0.086 0.0641,0.1847 0.0501,0.2421 -0.014,0.057 -0.0307,0.084 -0.13569,0.091 l -0.61032,0 0.36097,-0.4621 c 0.0337,-0.038 0.0587,-0.057 0.0822,-0.063 0.006,-0 0.0117,-0 0.0176,-0 z" color="#000" font-family="sans-serif" font-weight="400" overflow="visible"/><path style="line-height:125%;-inkscape-font-specification:'Bebas Neue Bold'" fill="#ff1e55" d="M 20.892578 15.111328 C 20.624478 15.111328 20.486328 15.270828 20.486328 15.548828 L 20.486328 16.451172 C 20.486328 16.729172 20.624478 16.888672 20.892578 16.888672 C 21.160677 16.888672 21.298828 16.729172 21.298828 16.451172 L 21.298828 15.900391 L 20.917969 15.900391 L 20.917969 16.148438 L 21.041016 16.148438 L 21.041016 16.46875 C 21.041016 16.59285 20.987278 16.638672 20.900391 16.638672 C 20.813511 16.638672 20.757812 16.59255 20.757812 16.46875 L 20.757812 15.53125 C 20.757812 15.40715 20.813504 15.359375 20.900391 15.359375 C 20.987271 15.359375 21.041016 15.40705 21.041016 15.53125 L 21.041016 15.716797 L 21.298828 15.716797 L 21.298828 15.548828 C 21.298828 15.270828 21.160677 15.111328 20.892578 15.111328 z M 11.964844 15.130859 L 12.234375 16.869141 L 12.640625 16.869141 L 12.908203 15.130859 L 12.658203 15.130859 L 12.449219 16.548828 L 12.240234 15.130859 L 11.964844 15.130859 z M 13.179688 15.130859 L 12.900391 16.869141 L 13.152344 16.869141 L 13.199219 16.552734 L 13.535156 16.552734 L 13.582031 16.869141 L 13.857422 16.869141 L 13.578125 15.130859 L 13.179688 15.130859 z M 13.982422 15.130859 L 13.982422 16.869141 L 14.705078 16.869141 L 14.705078 16.621094 L 14.253906 16.621094 L 14.253906 15.130859 L 13.982422 15.130859 z M 14.826172 15.130859 L 14.826172 16.869141 L 15.570312 16.869141 L 15.570312 16.621094 L 15.097656 16.621094 L 15.097656 16.111328 L 15.472656 16.111328 L 15.472656 15.863281 L 15.097656 15.863281 L 15.097656 15.378906 L 15.570312 15.378906 L 15.570312 15.130859 L 14.826172 15.130859 z M 15.734375 15.130859 L 15.734375 16.869141 L 15.980469 16.869141 L 15.980469 15.609375 L 16.320312 16.869141 L 16.601562 16.869141 L 16.601562 15.130859 L 16.357422 15.130859 L 16.357422 16.171875 L 16.076172 15.130859 L 15.734375 15.130859 z M 16.71875 15.130859 L 16.71875 15.378906 L 17.003906 15.378906 L 17.003906 16.869141 L 17.277344 16.869141 L 17.277344 15.378906 L 17.5625 15.378906 L 17.5625 15.130859 L 16.71875 15.130859 z M 17.681641 15.130859 L 17.681641 16.869141 L 17.955078 16.869141 L 17.955078 15.130859 L 17.681641 15.130859 z M 18.148438 15.130859 L 18.148438 16.869141 L 18.394531 16.869141 L 18.394531 15.609375 L 18.734375 16.869141 L 19.015625 16.869141 L 19.015625 15.130859 L 18.771484 15.130859 L 18.771484 16.171875 L 18.492188 15.130859 L 18.148438 15.130859 z M 19.212891 15.130859 L 19.212891 16.869141 L 19.957031 16.869141 L 19.957031 16.621094 L 19.486328 16.621094 L 19.486328 16.111328 L 19.861328 16.111328 L 19.861328 15.863281 L 19.486328 15.863281 L 19.486328 15.378906 L 19.957031 15.378906 L 19.957031 15.130859 L 19.212891 15.130859 z M 21.476562 15.130859 L 21.476562 16.869141 L 21.75 16.869141 L 21.75 15.130859 L 21.476562 15.130859 z M 21.947266 15.130859 L 21.947266 16.869141 L 22.220703 16.869141 L 22.220703 16.152344 L 22.574219 16.152344 L 22.574219 15.902344 L 22.220703 15.902344 L 22.220703 15.378906 L 22.669922 15.378906 L 22.669922 15.130859 L 21.947266 15.130859 z M 22.720703 15.130859 L 22.720703 15.378906 L 23.007812 15.378906 L 23.007812 16.869141 L 23.279297 16.869141 L 23.279297 15.378906 L 23.566406 15.378906 L 23.566406 15.130859 L 22.720703 15.130859 z M 13.365234 15.439453 L 13.496094 16.318359 L 13.234375 16.318359 L 13.365234 15.439453 z " font-family="Bebas Neue" font-weight="700" letter-spacing="0" transform="translate(0 1020.362)" word-spacing="0"/><path style="line-height:normal;text-indent:0;text-align:start;text-decoration-line:none;text-decoration-style:solid;text-decoration-color:#000;text-transform:none;block-progression:tb;isolation:auto;mix-blend-mode:normal" fill="#e20c45" fill-rule="evenodd" d="M4.02164 1036.1018c-.0435 0-.0866.017-.11945.05-.0659.066-.0659.1736 0 .2395l.01.01.21142.2146.21206-.2146.01-.01c.0659-.066.0659-.1736 0-.2395-.0559-.056-.13807-.039-.20312 0-.0329-.033-.0768-.05-.12008-.05zm0 .082c.0224 0 .0445.01.0619.026l.0396.04.0402-.04c.0348-.034.0892-.035.12392 0 .0348.035.0348.089 0 .1239l-.01.01-.15393.1558-.15458-.1558-.01-.01c-.0348-.035-.0348-.089 0-.1239.0175-.017.0396-.026.062-.026zM4.82818 1036.6929c-.0435 0-.0866.017-.11945.05-.0659.066-.0659.1736 0 .2395l.01.01.21142.2146.21206-.2146.01-.01c.0659-.066.0659-.1736 0-.2395-.0559-.056-.13807-.039-.20312 0-.0329-.033-.0768-.05-.12008-.05zm0 .082c.0224 0 .0445.01.0619.026l.0396.04.0402-.04c.0348-.034.0892-.035.12392 0 .0348.035.0348.089 0 .1239l-.01.01-.15393.1558-.15458-.1558-.01-.01c-.0348-.035-.0348-.089 0-.1239.0175-.017.0396-.026.062-.026z" color="#000" font-family="sans-serif" font-weight="400" overflow="visible" white-space="normal"/><path style="line-height:normal;text-indent:0;text-align:start;text-decoration-line:none;text-decoration-style:solid;text-decoration-color:#000;text-transform:none;block-progression:tb;isolation:auto;mix-blend-mode:normal" fill="#e20c45" fill-rule="evenodd" d="M4.82818 1036.6929c-.0435 0-.0866.017-.11945.05-.0659.066-.0659.1736 0 .2395l.01.01.21142.2146.21206-.2146.01-.01c.0659-.066.0659-.1736 0-.2395-.0559-.056-.13807-.039-.20312 0-.0329-.033-.0768-.05-.12008-.05zm0 .082c.0224 0 .0445.01.0619.026l.0396.04.0402-.04c.0348-.034.0892-.035.12392 0 .0348.035.0348.089 0 .1239l-.01.01-.15393.1558-.15458-.1558-.01-.01c-.0348-.035-.0348-.089 0-.1239.0175-.017.0396-.026.062-.026zM7.09331 1036.6929c.0435 0 .0866.017.11945.05.0659.066.0659.1736 0 .2395l-.01.01-.21142.2146-.21206-.2146-.01-.01c-.0659-.066-.0659-.1736 0-.2395.0559-.056.13807-.039.20312 0 .0329-.033.0768-.05.12008-.05zm0 .082c-.0224 0-.0445.01-.0619.026l-.0396.04-.0402-.04c-.0348-.034-.0892-.035-.12392 0-.0348.035-.0348.089 0 .1239l.01.01.15393.1558.15458-.1558.01-.01c.0348-.035.0348-.089 0-.1239-.0175-.017-.0396-.026-.062-.026zM6.41935 1036.1018c.0435 0 .0866.017.11945.05.0659.066.0659.1736 0 .2395l-.01.01-.21142.2146-.21206-.2146-.01-.01c-.0659-.066-.0659-.1736 0-.2395.0559-.056.13807-.039.20312 0 .0329-.033.0768-.05.12008-.05zm0 .082c-.0224 0-.0445.01-.0619.026l-.0396.04-.0402-.04c-.0348-.034-.0892-.035-.12392 0-.0348.035-.0348.089 0 .1239l.01.01.15393.1558.15458-.1558.01-.01c.0348-.035.0348-.089 0-.1239-.0175-.017-.0396-.026-.062-.026zM4.02164 1037.3361c-.0435 0-.0866.017-.11945.05-.0659.066-.0659.1737 0 .2396l.01.01.21142.2146.21206-.2146.01-.01c.0659-.066.0659-.1737 0-.2396-.0559-.056-.13807-.039-.20312 0-.0329-.033-.0768-.05-.12008-.05zm0 .082c.0224 0 .0445.01.0619.026l.0396.04.0402-.04c.0348-.034.0892-.035.12392 0 .0348.035.0348.089 0 .124l-.01.01-.15393.1558-.15458-.1558-.01-.01c-.0348-.035-.0348-.089 0-.124.0175-.017.0396-.026.062-.026zM4.80289 1037.7658c-.0435 0-.0866.017-.11945.05-.0659.066-.0659.1737 0 .2396l.01.01.21142.2146.21206-.2146.01-.01c.0659-.066.0659-.1737 0-.2396-.0559-.056-.13807-.039-.20312 0-.0329-.033-.0768-.05-.12008-.05zm0 .082c.0224 0 .0445.01.0619.026l.0396.04.0402-.04c.0348-.034.0892-.035.12392 0 .0348.035.0348.089 0 .124l-.01.01-.15393.1558-.15458-.1558-.01-.01c-.0348-.035-.0348-.089 0-.124.0175-.017.0396-.026.062-.026zM6.23258 1037.3361c-.0435 0-.0866.017-.11945.05-.0659.066-.0659.1737 0 .2396l.01.01.21142.2146.21206-.2146.01-.01c.0659-.066.0659-.1737 0-.2396-.0559-.056-.13807-.039-.20312 0-.0329-.033-.0768-.05-.12008-.05zm0 .082c.0224 0 .0445.01.0619.026l.0396.04.0402-.04c.0348-.034.0892-.035.12392 0 .0348.035.0348.089 0 .124l-.01.01-.15393.1558-.15458-.1558-.01-.01c-.0348-.035-.0348-.089 0-.124.0175-.017.0396-.026.062-.026zM7.01383 1037.7658c-.0435 0-.0866.017-.11945.05-.0659.066-.0659.1737 0 .2396l.01.01.21142.2146.21206-.2146.01-.01c.0659-.066.0659-.1737 0-.2396-.0559-.056-.13807-.039-.20312 0-.0329-.033-.0768-.05-.12008-.05zm0 .082c.0224 0 .0445.01.0619.026l.0396.04.0402-.04c.0348-.034.0892-.035.12392 0 .0348.035.0348.089 0 .124l-.01.01-.15393.1558-.15458-.1558-.01-.01c-.0348-.035-.0348-.089 0-.124.0175-.017.0396-.026.062-.026z" color="#000" font-family="sans-serif" font-weight="400" overflow="visible" white-space="normal"/></g></svg>