<svg xmlns="http://www.w3.org/2000/svg" width="32" height="32" viewBox="0 0 32 32"><g transform="translate(0 -1020.362)"><path fill="#fc0" d="m 6.769237,1024.67 18.46153,0 0,3.6922 -1.23076,0 0,2.4617 1.23076,0 0,12.3076 -9.23077,4.9229 -9.23076,-4.9229 0,-4.6154 0,-7.6922 1.23076,0 0,-2.4617 -1.23076,0 z"/><path style="line-height:125%;-inkscape-font-specification:'Bebas Neue Bold';text-align:center" fill="#d31206" d="M21.933594 6.7675781C21.565734 6.7675781 21.376953 6.9867469 21.376953 7.3730469L21.376953 7.375C21.376953 8.0627 22.115234 8.1553906 22.115234 8.6503906 22.115234 8.8215906 22.040292 8.8847656 21.919922 8.8847656 21.799542 8.8847656 21.722656 8.8239906 21.722656 8.6503906L21.722656 8.4785156 21.365234 8.4785156 21.365234 8.625C21.365234 9.0101 21.558407 9.2304688 21.929688 9.2304688 22.300988 9.2304688 22.494141 9.0111 22.494141 8.625 22.494141 7.9372 21.753906 7.8445094 21.753906 7.3496094 21.753906 7.1783094 21.823069 7.1132812 21.943359 7.1132812 22.063739 7.1132812 22.132812 7.1773094 22.132812 7.3496094L22.132812 7.4492188 22.490234 7.4492188 22.490234 7.3730469C22.490234 6.9879469 22.301444 6.7675781 21.933594 6.7675781zM9.5058594 6.796875L9.8789062 9.203125 10.441406 9.203125 10.8125 6.796875 10.466797 6.796875 10.177734 8.7597656 9.8886719 6.796875 9.5058594 6.796875zM11.1875 6.796875L10.802734 9.203125 11.150391 9.203125 11.214844 8.7675781 11.679688 8.7675781 11.744141 9.203125 12.126953 9.203125 11.740234 6.796875 11.1875 6.796875zM12.298828 6.796875L12.298828 9.203125 13.298828 9.203125 13.298828 8.859375 12.677734 8.859375 12.677734 6.796875 12.298828 6.796875zM13.466797 6.796875L13.466797 9.203125 14.498047 9.203125 14.498047 8.859375 13.845703 8.859375 13.845703 8.1542969 14.365234 8.1542969 14.365234 7.8105469 13.845703 7.8105469 13.845703 7.140625 14.498047 7.140625 14.498047 6.796875 13.466797 6.796875zM14.726562 6.796875L14.726562 9.203125 15.066406 9.203125 15.066406 7.4609375 15.537109 9.203125 15.925781 9.203125 15.925781 6.796875 15.589844 6.796875 15.589844 8.2382812 15.201172 6.796875 14.726562 6.796875zM16.089844 6.796875L16.089844 7.140625 16.486328 7.140625 16.486328 9.203125 16.863281 9.203125 16.863281 7.140625 17.259766 7.140625 17.259766 6.796875 16.089844 6.796875zM17.421875 6.796875L17.421875 9.203125 17.800781 9.203125 17.800781 6.796875 17.421875 6.796875zM18.070312 6.796875L18.070312 9.203125 18.410156 9.203125 18.410156 7.4609375 18.880859 9.203125 19.269531 9.203125 19.269531 6.796875 18.933594 6.796875 18.933594 8.2382812 18.544922 6.796875 18.070312 6.796875zM19.544922 6.796875L19.544922 9.203125 20.576172 9.203125 20.576172 8.859375 19.921875 8.859375 19.921875 8.1542969 20.441406 8.1542969 20.441406 7.8105469 19.921875 7.8105469 19.921875 7.140625 20.576172 7.140625 20.576172 6.796875 19.544922 6.796875zM20.796875 6.796875L20.847656 7.5058594 21.105469 7.5058594 21.160156 6.796875 20.796875 6.796875zM11.445312 7.2226562L11.626953 8.4394531 11.263672 8.4394531 11.445312 7.2226562zM12.429688 10.458984C12.061848 10.458984 11.871094 10.6785 11.871094 11.0625L11.871094 11.066406C11.871094 11.754006 12.611328 11.846397 12.611328 12.341797 12.611328 12.512997 12.536356 12.576172 12.416016 12.576172 12.295646 12.576172 12.21875 12.515397 12.21875 12.341797L12.21875 12.171875 11.861328 12.171875 11.861328 12.318359C11.861328 12.703259 12.054521 12.921875 12.425781 12.921875 12.797061 12.921875 12.988281 12.702159 12.988281 12.318359 12.988281 11.630659 12.25 11.537969 12.25 11.042969 12.25 10.869969 12.319143 10.804688 12.439453 10.804688 12.559823 10.804688 12.628906 10.870569 12.628906 11.042969L12.628906 11.140625 12.986328 11.140625 12.986328 11.0625C12.986328 10.6776 12.797528 10.458984 12.429688 10.458984zM16.292969 10.460938C15.921689 10.460938 15.730469 10.679906 15.730469 11.066406L15.730469 12.318359C15.730469 12.703359 15.921689 12.923828 16.292969 12.923828 16.664239 12.923828 16.857422 12.702359 16.857422 12.318359L16.857422 11.998047 16.5 11.998047 16.5 12.341797C16.5 12.512997 16.424927 12.576172 16.304688 12.576172 16.184307 12.576172 16.107422 12.515397 16.107422 12.341797L16.107422 11.042969C16.107422 10.870069 16.184328 10.804688 16.304688 10.804688 16.425068 10.804688 16.5 10.870669 16.5 11.042969L16.5 11.300781 16.857422 11.300781 16.857422 11.066406C16.857422 10.681306 16.664249 10.460938 16.292969 10.460938zM13.203125 10.490234L13.203125 12.896484 13.580078 12.896484 13.580078 11.992188 13.759766 11.992188C14.137916 11.992188 14.322266 11.780584 14.322266 11.396484L14.322266 11.083984C14.322266 10.698884 14.137916 10.490234 13.759766 10.490234L13.203125 10.490234zM14.498047 10.490234L14.498047 12.896484 15.529297 12.896484 15.529297 12.552734 14.876953 12.552734 14.876953 11.847656 15.396484 11.847656 15.396484 11.503906 14.876953 11.503906 14.876953 10.833984 15.529297 10.833984 15.529297 10.490234 14.498047 10.490234zM17.089844 10.490234L17.089844 12.896484 17.46875 12.896484 17.46875 10.490234 17.089844 10.490234zM18.027344 10.490234L17.642578 12.896484 17.988281 12.896484 18.054688 12.458984 18.517578 12.458984 18.583984 12.896484 18.964844 12.896484 18.580078 10.490234 18.027344 10.490234zM19.138672 10.490234L19.138672 12.896484 20.138672 12.896484 20.138672 12.552734 19.515625 12.552734 19.515625 10.490234 19.138672 10.490234zM13.580078 10.832031L13.759766 10.832031 13.759766 10.833984C13.880146 10.833984 13.945313 10.887947 13.945312 11.060547L13.945312 11.419922C13.945312 11.591122 13.880076 11.646484 13.759766 11.646484L13.580078 11.646484 13.580078 10.832031zM18.285156 10.916016L18.466797 12.132812 18.101562 12.132812 18.285156 10.916016z" font-family="Bebas Neue" font-size="2.576" font-weight="700" letter-spacing="0" text-anchor="middle" transform="translate(0 1020.362)" word-spacing="0"/><path fill="#d31206" fill-rule="evenodd" d="m 15.215507,1041.5317 c -0.25365,0 -0.50733,0.096 -0.70166,0.2916 -0.38863,0.3885 -0.38865,1.0145 0,1.4036 l 0.0737,0.075 1.41237,1.4303 1.41236,-1.4303 0.0737,-0.075 c 0.38864,-0.3891 0.38864,-1.0151 0,-1.4036 -0.38863,-0.3886 -1.01468,-0.3886 -1.40333,0 l -0.0828,0.082 -0.0828,-0.082 c -0.19432,-0.1947 -0.44802,-0.2916 -0.70167,-0.2916 z"/><path fill="#a80e05" fill-rule="evenodd" d="M10.951617 1041.901c-.19518 0-.39039.075-.53991.2239-.29905.299-.29905.7808 0 1.0798l.0568.056 1.08677 1.1009 1.08676-1.1009.0568-.056c.29905-.299.29905-.7808 0-1.0798-.29904-.2989-.78075-.2989-1.07981 0l-.0638.065-.0638-.065c-.14955-.1485-.34472-.2239-.53991-.2239zM19.704057 1041.901c-.19517 0-.39039.075-.53991.2239-.29904.299-.29906.7808 0 1.0798l.0568.056 1.08678 1.1009 1.08676-1.1009.0568-.056c.29906-.299.29904-.7808 0-1.0798-.29903-.2989-.78077-.2989-1.0798 0l-.0638.065-.0638-.065c-.14956-.1485-.34473-.2239-.53992-.2239z"/><path fill="#a80e05" d="M-.000003 1035.0966l5.4219 0 0 6.8039-5.4219 0 1.94452-3.4022zM32.000002 1035.0966l-5.421895 0 0 6.8039 5.421895 0-1.944495-3.4022z"/><path fill="#d31206" d="m 3.986777,1033.9246 0,6.8054 3.69232,0 16.64183,0 3.692299,0 0,-6.8054 -3.692299,0 -16.64183,0 -3.69232,0 z"/><path style="line-height:125%;-inkscape-font-specification:'Bebas Neue Bold'" fill="#fc0" d="M 12.402344 15.210938 C 11.873161 15.210938 11.583984 15.525419 11.583984 16.074219 L 11.583984 17.857422 C 11.583984 18.406122 11.873161 18.71875 12.402344 18.71875 C 12.931527 18.71875 13.220703 18.406122 13.220703 17.857422 L 13.220703 16.074219 C 13.220703 15.525419 12.931527 15.210938 12.402344 15.210938 z M 13.572266 15.25 L 13.572266 18.679688 L 14.111328 18.679688 L 14.111328 17.263672 L 14.806641 17.263672 L 14.806641 16.773438 L 14.111328 16.773438 L 14.111328 15.740234 L 14.998047 15.740234 L 14.998047 15.25 L 13.572266 15.25 z M 15.255859 15.25 L 15.255859 18.679688 L 15.794922 18.679688 L 15.794922 17.263672 L 16.490234 17.263672 L 16.490234 16.773438 L 15.794922 16.773438 L 15.794922 15.740234 L 16.681641 15.740234 L 16.681641 15.25 L 15.255859 15.25 z M 16.939453 15.25 L 16.939453 18.679688 L 18.410156 18.679688 L 18.410156 18.189453 L 17.478516 18.189453 L 17.478516 17.185547 L 18.21875 17.185547 L 18.21875 16.695312 L 17.478516 16.695312 L 17.478516 15.740234 L 18.410156 15.740234 L 18.410156 15.25 L 16.939453 15.25 z M 18.740234 15.25 L 18.740234 18.679688 L 19.279297 18.679688 L 19.279297 17.283203 L 19.464844 17.283203 C 19.709837 17.283203 19.818359 17.40025 19.818359 17.71875 L 19.818359 18.257812 C 19.818359 18.537112 19.837788 18.591488 19.867188 18.679688 L 20.416016 18.679688 C 20.362116 18.552287 20.355469 18.430272 20.355469 18.263672 L 20.355469 17.734375 C 20.355469 17.376675 20.267536 17.116606 19.998047 17.003906 C 20.23814 16.891206 20.351562 16.661394 20.351562 16.308594 L 20.351562 16.039062 C 20.351562 15.509863 20.111316 15.25 19.552734 15.25 L 18.740234 15.25 z M 12.402344 15.701172 C 12.573839 15.701172 12.681641 15.793963 12.681641 16.039062 L 12.681641 17.890625 C 12.681641 18.135625 12.573839 18.228516 12.402344 18.228516 C 12.23085 18.228516 12.123047 18.135725 12.123047 17.890625 L 12.123047 16.039062 C 12.123047 15.794063 12.23085 15.701172 12.402344 15.701172 z M 19.279297 15.740234 L 19.539062 15.740234 C 19.730156 15.740234 19.8125 15.84875 19.8125 16.09375 L 19.8125 16.431641 C 19.8125 16.706041 19.689174 16.792969 19.488281 16.792969 L 19.279297 16.792969 L 19.279297 15.740234 z " font-family="Bebas Neue" font-weight="700" letter-spacing="0" transform="translate(0 1020.362)" word-spacing="0"/></g></svg>