<svg xmlns="http://www.w3.org/2000/svg" width="32" height="32" viewBox="0 0 32 32"><g transform="translate(0 -1020.362)"><path fill="#ff9500" d="M4.73612 1040.7117l0-6.0975 3.30837.366 7.45572.825 0 6.0976-7.45572-.8248zM27.26387 1030.7981l0 6.1426-3.33282-1.2145 0-6.1429z"/><path fill="#d31206" fill-rule="evenodd" stroke="#a80e05" stroke-width="1.5" d="m 11.07159,1027.2057 c -1.42695,0 -2.85407,0.5458 -3.9472,1.639 -2.18628,2.1862 -2.18633,5.7082 0,7.8947 l 0.41504,0.415 7.94523,8.0468 7.94522,-8.0468 0.41505,-0.415 c 2.18634,-2.1865 2.18628,-5.7085 0,-7.8947 -2.18627,-2.1863 -5.70806,-2.1863 -7.8944,0 l -0.46587,0.4661 -0.46588,-0.4661 c -1.09316,-1.0932 -2.52024,-1.639 -3.94719,-1.639 z"/><path fill="#fc0" d="m 4.73612,1034.3247 0,6.3808 3.46199,-0.5416 15.60377,-2.4416 3.46199,-0.5417 0,-6.3806 -3.46199,0.5415 -15.60377,2.4415 -3.46199,0.5417 z"/><path style="line-height:125%;-inkscape-font-specification:'Bebas Neue Bold'" fill="#fff" d="M 21.853516 12.878906 L 20.361328 13.111328 L 20.361328 13.550781 L 20.865234 13.472656 L 20.865234 16.103516 L 21.347656 16.027344 L 21.347656 13.396484 L 21.853516 13.316406 L 21.853516 12.878906 z M 20.152344 13.144531 L 19.722656 13.210938 L 19.722656 15.048828 L 19.226562 13.289062 L 18.621094 13.384766 L 18.621094 16.455078 L 19.054688 16.386719 L 19.054688 14.162109 L 19.65625 16.292969 L 20.152344 16.214844 L 20.152344 13.144531 z M 18.294922 13.435547 L 17.837891 13.505859 L 17.837891 15.875 C 17.837891 16.0943 17.741435 16.188891 17.587891 16.212891 C 17.434349 16.236891 17.337891 16.172325 17.337891 15.953125 L 17.337891 13.583984 L 16.855469 13.660156 L 16.855469 15.998047 C 16.855469 16.489447 17.100432 16.732403 17.574219 16.658203 C 18.048006 16.584203 18.294922 16.264838 18.294922 15.773438 L 18.294922 13.435547 z M 15.830078 13.785156 C 15.356291 13.859156 15.097656 14.180575 15.097656 14.671875 L 15.097656 16.269531 C 15.097656 16.760831 15.356291 17.001834 15.830078 16.927734 C 16.303864 16.853734 16.564453 16.532316 16.564453 16.041016 L 16.564453 14.443359 C 16.564453 13.952059 16.303864 13.710956 15.830078 13.785156 z M 14.121094 14.054688 C 13.647308 14.128688 13.402344 14.4462 13.402344 14.9375 L 13.402344 16.535156 C 13.402344 17.026456 13.647308 17.269413 14.121094 17.195312 C 14.594881 17.121312 14.841797 16.801847 14.841797 16.310547 L 14.841797 15.902344 L 14.384766 15.972656 L 14.384766 16.412109 C 14.384766 16.631409 14.28831 16.726 14.134766 16.75 C 13.981224 16.774 13.884766 16.709434 13.884766 16.490234 L 13.884766 14.832031 C 13.884766 14.612731 13.981222 14.514234 14.134766 14.490234 C 14.288308 14.466234 14.384766 14.534306 14.384766 14.753906 L 14.384766 15.082031 L 14.841797 15.011719 L 14.841797 14.712891 C 14.841797 14.221591 14.594881 13.980487 14.121094 14.054688 z M 15.830078 14.224609 C 15.98362 14.200609 16.082031 14.268781 16.082031 14.488281 L 16.082031 16.146484 C 16.082031 16.365784 15.983622 16.464181 15.830078 16.488281 C 15.676536 16.512281 15.580078 16.444209 15.580078 16.224609 L 15.580078 14.566406 C 15.580078 14.347106 15.676534 14.248609 15.830078 14.224609 z M 12.455078 14.314453 C 11.985679 14.387453 11.744141 14.705966 11.744141 15.197266 C 11.744141 16.074666 12.6875 16.045934 12.6875 16.677734 C 12.6875 16.897034 12.591044 16.991525 12.4375 17.015625 C 12.283958 17.039625 12.1875 16.975059 12.1875 16.755859 L 12.1875 16.537109 L 11.730469 16.607422 L 11.730469 16.796875 C 11.730469 17.288175 11.975432 17.529178 12.449219 17.455078 C 12.923005 17.381078 13.169922 17.061613 13.169922 16.570312 C 13.169922 15.692912 12.226562 15.723497 12.226562 15.091797 C 12.226562 14.872497 12.313257 14.774 12.466797 14.75 C 12.620339 14.726 12.708984 14.795725 12.708984 15.015625 L 12.708984 15.142578 L 13.164062 15.072266 L 13.164062 14.974609 C 13.164062 14.483309 12.924478 14.241053 12.455078 14.314453 z M 11.457031 14.505859 L 10.974609 14.580078 L 10.974609 17.652344 L 11.457031 17.576172 L 11.457031 14.505859 z M 9.9472656 14.742188 L 9.1835938 14.861328 L 9.1835938 17.931641 L 9.9472656 17.8125 C 10.429826 17.7375 10.666016 17.432806 10.666016 16.941406 L 10.666016 15.388672 C 10.666016 14.897272 10.429826 14.666688 9.9472656 14.742188 z M 9.9375 15.181641 C 10.091042 15.157641 10.183594 15.221606 10.183594 15.441406 L 10.183594 17.039062 C 10.183594 17.258362 10.091047 17.3509 9.9375 17.375 L 9.6660156 17.417969 L 9.6660156 15.224609 L 9.9375 15.183594 L 9.9375 15.181641 z " font-family="Bebas Neue" font-weight="700" letter-spacing="0" transform="translate(0 1020.362)" word-spacing="0"/></g></svg>