<svg xmlns="http://www.w3.org/2000/svg" width="32" height="32" viewBox="0 0 32 32"><g transform="translate(0 -1020.362)"><rect width="28.611" height="5.653" x="3.389" y="1033.536" fill="#13b53e" fill-rule="evenodd" rx=".431" ry=".318"/><path fill="#fff" d="M-144.85054 1007.9278c-.11045 0-.2.09-.2.2 0 .1105.0896.2.2.2.11046 0 .2-.09.2-.2 0-.1104-.0895-.2-.2-.2zm.84119 0c-.11045 0-.2.09-.2.2 0 .1105.0896.2.2.2.11046 0 .2-.09.2-.2 0-.1104-.0895-.2-.2-.2zm.84118 0c-.11045 0-.2.09-.2.2 0 .1105.0896.2.2.2.11046 0 .2-.09.2-.2 0-.1104-.0895-.2-.2-.2zm.84119 0c-.11045 0-.2.09-.2.2 0 .1105.0896.2.2.2.11046 0 .2-.09.2-.2 0-.1104-.0895-.2-.2-.2zm.84119 0c-.11045 0-.2.09-.2.2 0 .1105.0896.2.2.2.11046 0 .2-.09.2-.2 0-.1104-.0895-.2-.2-.2zm.84118 0c-.11045 0-.2.09-.2.2 0 .1105.0896.2.2.2.11046 0 .2-.09.2-.2 0-.1104-.0895-.2-.2-.2zm.84119 0c-.11045 0-.2.09-.2.2 0 .1105.0896.2.2.2.11046 0 .2-.09.2-.2 0-.1104-.0895-.2-.2-.2zm.84119 0c-.11045 0-.2.09-.2.2 0 .1105.0896.2.2.2.11046 0 .2-.09.2-.2 0-.1104-.0895-.2-.2-.2zm.84118 0c-.11045 0-.2.09-.2.2 0 .1105.0896.2.2.2.11046 0 .2-.09.2-.2 0-.1104-.0895-.2-.2-.2zm.84119 0c-.11045 0-.2.09-.2.2 0 .1105.0896.2.2.2.11046 0 .2-.09.2-.2 0-.1104-.0895-.2-.2-.2zm.84119 0c-.11045 0-.2.09-.2.2 0 .1105.0896.2.2.2.11046 0 .2-.09.2-.2 0-.1104-.0895-.2-.2-.2zm.84118 0c-.11045 0-.2.09-.2.2 0 .1105.0896.2.2.2.11046 0 .2-.09.2-.2 0-.1104-.0895-.2-.2-.2zm.84119 0c-.11045 0-.2.09-.2.2 0 .1105.0896.2.2.2.11046 0 .2-.09.2-.2 0-.1104-.0895-.2-.2-.2zm.84119 0c-.11045 0-.2.09-.2.2 0 .1105.0896.2.2.2.11046 0 .2-.09.2-.2 0-.1104-.0895-.2-.2-.2zm.84118 0c-.11045 0-.2.09-.2.2 0 .1105.0896.2.2.2.11046 0 .2-.09.2-.2 0-.1104-.0895-.2-.2-.2zm.84119 0c-.11045 0-.2.09-.2.2 0 .1105.0896.2.2.2.11046 0 .2-.09.2-.2 0-.1104-.0895-.2-.2-.2zm.84119 0c-.11045 0-.2.09-.2.2 0 .1105.0896.2.2.2.11046 0 .2-.09.2-.2 0-.1104-.0895-.2-.2-.2zm.84119 0c-.11045 0-.2.09-.2.2 0 .1105.0896.2.2.2.11046 0 .2-.09.2-.2 0-.1104-.0895-.2-.2-.2zm.84118 0c-.11045 0-.2.09-.2.2 0 .1105.0896.2.2.2.11046 0 .2-.09.2-.2 0-.1104-.0895-.2-.2-.2zm.84119 0c-.11045 0-.2.09-.2.2 0 .1105.0896.2.2.2.11046 0 .2-.09.2-.2 0-.1104-.0895-.2-.2-.2zm.84119 0c-.11045 0-.2.09-.2.2 0 .1105.0896.2.2.2.11046 0 .2-.09.2-.2 0-.1104-.0895-.2-.2-.2zm.84118 0c-.11045 0-.2.09-.2.2 0 .1105.0896.2.2.2.11046 0 .2-.09.2-.2 0-.1104-.0895-.2-.2-.2zm.84119 0c-.11045 0-.2.09-.2.2 0 .1105.0896.2.2.2.11046 0 .2-.09.2-.2 0-.1104-.0895-.2-.2-.2zm.84119 0c-.11045 0-.2.09-.2.2 0 .1105.0896.2.2.2.11046 0 .2-.09.2-.2 0-.1104-.0895-.2-.2-.2zm.84118 0c-.11045 0-.2.09-.2.2 0 .1105.0896.2.2.2.11046 0 .2-.09.2-.2 0-.1104-.0895-.2-.2-.2zm.84119 0c-.11045 0-.2.09-.2.2 0 .1105.0896.2.2.2.11046 0 .2-.09.2-.2 0-.1104-.0895-.2-.2-.2zm.84119 0c-.11045 0-.2.09-.2.2 0 .1105.0896.2.2.2.11046 0 .2-.09.2-.2 0-.1104-.0895-.2-.2-.2zm.84118 0c-.11045 0-.2.09-.2.2 0 .1105.0896.2.2.2.11046 0 .2-.09.2-.2 0-.1104-.0895-.2-.2-.2zm.84119 0c-.11045 0-.2.09-.2.2 0 .1105.0896.2.2.2.11046 0 .2-.09.2-.2 0-.1104-.0895-.2-.2-.2zm.84119 0c-.11045 0-.2.09-.2.2 0 .1105.0896.2.2.2.11046 0 .2-.09.2-.2 0-.1104-.0895-.2-.2-.2zm.84118 0c-.11045 0-.2.09-.2.2 0 .1105.0896.2.2.2.11046 0 .2-.09.2-.2 0-.1104-.0895-.2-.2-.2zm.84119 0c-.11045 0-.2.09-.2.2 0 .1105.0896.2.2.2.11046 0 .2-.09.2-.2 0-.1104-.0895-.2-.2-.2zm.84119 0c-.11045 0-.2.09-.2.2 0 .1105.0896.2.2.2.11046 0 .2-.09.2-.2 0-.1104-.0895-.2-.2-.2zm.84118 0c-.11045 0-.2.09-.2.2 0 .1105.0896.2.2.2.11046 0 .2-.09.2-.2 0-.1104-.0895-.2-.2-.2zm.84119 0c-.11045 0-.2.09-.2.2 0 .1105.0896.2.2.2.11046 0 .2-.09.2-.2 0-.1104-.0895-.2-.2-.2zM-144.85054 1012.6185c-.11045 0-.2.089-.2.2 0 .1104.0896.2.2.2.11046 0 .2-.09.2-.2 0-.1105-.0895-.2-.2-.2zm.84119 0c-.11045 0-.2.089-.2.2 0 .1104.0896.2.2.2.11046 0 .2-.09.2-.2 0-.1105-.0895-.2-.2-.2zm.84118 0c-.11045 0-.2.089-.2.2 0 .1104.0896.2.2.2.11046 0 .2-.09.2-.2 0-.1105-.0895-.2-.2-.2zm.84119 0c-.11045 0-.2.089-.2.2 0 .1104.0896.2.2.2.11046 0 .2-.09.2-.2 0-.1105-.0895-.2-.2-.2zm.84119 0c-.11045 0-.2.089-.2.2 0 .1104.0896.2.2.2.11046 0 .2-.09.2-.2 0-.1105-.0895-.2-.2-.2zm.84118 0c-.11045 0-.2.089-.2.2 0 .1104.0896.2.2.2.11046 0 .2-.09.2-.2 0-.1105-.0895-.2-.2-.2zm.84119 0c-.11045 0-.2.089-.2.2 0 .1104.0896.2.2.2.11046 0 .2-.09.2-.2 0-.1105-.0895-.2-.2-.2zm.84119 0c-.11045 0-.2.089-.2.2 0 .1104.0896.2.2.2.11046 0 .2-.09.2-.2 0-.1105-.0895-.2-.2-.2zm.84118 0c-.11045 0-.2.089-.2.2 0 .1104.0896.2.2.2.11046 0 .2-.09.2-.2 0-.1105-.0895-.2-.2-.2zm.84119 0c-.11045 0-.2.089-.2.2 0 .1104.0896.2.2.2.11046 0 .2-.09.2-.2 0-.1105-.0895-.2-.2-.2zm.84119 0c-.11045 0-.2.089-.2.2 0 .1104.0896.2.2.2.11046 0 .2-.09.2-.2 0-.1105-.0895-.2-.2-.2zm.84118 0c-.11045 0-.2.089-.2.2 0 .1104.0896.2.2.2.11046 0 .2-.09.2-.2 0-.1105-.0895-.2-.2-.2zm.84119 0c-.11045 0-.2.089-.2.2 0 .1104.0896.2.2.2.11046 0 .2-.09.2-.2 0-.1105-.0895-.2-.2-.2zm.84119 0c-.11045 0-.2.089-.2.2 0 .1104.0896.2.2.2.11046 0 .2-.09.2-.2 0-.1105-.0895-.2-.2-.2zm.84118 0c-.11045 0-.2.089-.2.2 0 .1104.0896.2.2.2.11046 0 .2-.09.2-.2 0-.1105-.0895-.2-.2-.2zm.84119 0c-.11045 0-.2.089-.2.2 0 .1104.0896.2.2.2.11046 0 .2-.09.2-.2 0-.1105-.0895-.2-.2-.2zm.84119 0c-.11045 0-.2.089-.2.2 0 .1104.0896.2.2.2.11046 0 .2-.09.2-.2 0-.1105-.0895-.2-.2-.2zm.84119 0c-.11045 0-.2.089-.2.2 0 .1104.0896.2.2.2.11046 0 .2-.09.2-.2 0-.1105-.0895-.2-.2-.2zm.84118 0c-.11045 0-.2.089-.2.2 0 .1104.0896.2.2.2.11046 0 .2-.09.2-.2 0-.1105-.0895-.2-.2-.2zm.84119 0c-.11045 0-.2.089-.2.2 0 .1104.0896.2.2.2.11046 0 .2-.09.2-.2 0-.1105-.0895-.2-.2-.2zm.84119 0c-.11045 0-.2.089-.2.2 0 .1104.0896.2.2.2.11046 0 .2-.09.2-.2 0-.1105-.0895-.2-.2-.2zm.84118 0c-.11045 0-.2.089-.2.2 0 .1104.0896.2.2.2.11046 0 .2-.09.2-.2 0-.1105-.0895-.2-.2-.2zm.84119 0c-.11045 0-.2.089-.2.2 0 .1104.0896.2.2.2.11046 0 .2-.09.2-.2 0-.1105-.0895-.2-.2-.2zm.84119 0c-.11045 0-.2.089-.2.2 0 .1104.0896.2.2.2.11046 0 .2-.09.2-.2 0-.1105-.0895-.2-.2-.2zm.84118 0c-.11045 0-.2.089-.2.2 0 .1104.0896.2.2.2.11046 0 .2-.09.2-.2 0-.1105-.0895-.2-.2-.2zm.84119 0c-.11045 0-.2.089-.2.2 0 .1104.0896.2.2.2.11046 0 .2-.09.2-.2 0-.1105-.0895-.2-.2-.2zm.84119 0c-.11045 0-.2.089-.2.2 0 .1104.0896.2.2.2.11046 0 .2-.09.2-.2 0-.1105-.0895-.2-.2-.2zm.84118 0c-.11045 0-.2.089-.2.2 0 .1104.0896.2.2.2.11046 0 .2-.09.2-.2 0-.1105-.0895-.2-.2-.2zm.84119 0c-.11045 0-.2.089-.2.2 0 .1104.0896.2.2.2.11046 0 .2-.09.2-.2 0-.1105-.0895-.2-.2-.2zm.84119 0c-.11045 0-.2.089-.2.2 0 .1104.0896.2.2.2.11046 0 .2-.09.2-.2 0-.1105-.0895-.2-.2-.2zm.84118 0c-.11045 0-.2.089-.2.2 0 .1104.0896.2.2.2.11046 0 .2-.09.2-.2 0-.1105-.0895-.2-.2-.2zm.84119 0c-.11045 0-.2.089-.2.2 0 .1104.0896.2.2.2.11046 0 .2-.09.2-.2 0-.1105-.0895-.2-.2-.2zm.84119 0c-.11045 0-.2.089-.2.2 0 .1104.0896.2.2.2.11046 0 .2-.09.2-.2 0-.1105-.0895-.2-.2-.2zm.84118 0c-.11045 0-.2.089-.2.2 0 .1104.0896.2.2.2.11046 0 .2-.09.2-.2 0-.1105-.0895-.2-.2-.2zm.84119 0c-.11045 0-.2.089-.2.2 0 .1104.0896.2.2.2.11046 0 .2-.09.2-.2 0-.1105-.0895-.2-.2-.2z" transform="translate(142.2 72.67) scale(.9537)"/><path style="line-height:125%;-inkscape-font-specification:'Bebas Neue Bold'" fill="#d31206" d="M 24.099609 14.861328 C 23.759264 14.861328 23.583984 15.063622 23.583984 15.419922 L 23.583984 15.421875 C 23.583984 16.057975 24.267578 16.143562 24.267578 16.601562 C 24.267578 16.760663 24.197263 16.818359 24.085938 16.818359 C 23.974611 16.818359 23.90625 16.760863 23.90625 16.601562 L 23.90625 16.441406 L 23.574219 16.441406 L 23.574219 16.578125 C 23.574219 16.934325 23.752177 17.138672 24.095703 17.138672 C 24.439228 17.138672 24.617188 16.934325 24.617188 16.578125 C 24.617188 15.941925 23.933594 15.856438 23.933594 15.398438 C 23.933594 15.239437 23.998051 15.179688 24.109375 15.179688 C 24.220703 15.179688 24.283203 15.238938 24.283203 15.398438 L 24.283203 15.490234 L 24.615234 15.490234 L 24.615234 15.419922 C 24.615234 15.063622 24.439953 14.861328 24.099609 14.861328 z M 12.603516 14.886719 L 12.945312 17.113281 L 13.46875 17.113281 L 13.810547 14.886719 L 13.490234 14.886719 L 13.222656 16.703125 L 12.955078 14.886719 L 12.603516 14.886719 z M 14.158203 14.886719 L 13.800781 17.113281 L 14.123047 17.113281 L 14.183594 16.708984 L 14.613281 16.708984 L 14.673828 17.113281 L 15.025391 17.113281 L 14.669922 14.886719 L 14.158203 14.886719 z M 15.185547 14.886719 L 15.185547 17.113281 L 16.111328 17.113281 L 16.111328 16.794922 L 15.535156 16.794922 L 15.535156 14.886719 L 15.185547 14.886719 z M 16.267578 14.886719 L 16.267578 17.113281 L 17.220703 17.113281 L 17.220703 16.794922 L 16.617188 16.794922 L 16.617188 16.142578 L 17.097656 16.142578 L 17.097656 15.824219 L 16.617188 15.824219 L 16.617188 15.205078 L 17.220703 15.205078 L 17.220703 14.886719 L 16.267578 14.886719 z M 17.431641 14.886719 L 17.431641 17.113281 L 17.746094 17.113281 L 17.746094 15.5 L 18.181641 17.113281 L 18.541016 17.113281 L 18.541016 14.886719 L 18.230469 14.886719 L 18.230469 16.21875 L 17.871094 14.886719 L 17.431641 14.886719 z M 18.693359 14.886719 L 18.693359 15.205078 L 19.058594 15.205078 L 19.058594 17.113281 L 19.410156 17.113281 L 19.410156 15.205078 L 19.775391 15.205078 L 19.775391 14.886719 L 18.693359 14.886719 z M 19.925781 14.886719 L 19.925781 17.113281 L 20.275391 17.113281 L 20.275391 14.886719 L 19.925781 14.886719 z M 20.525391 14.886719 L 20.525391 17.113281 L 20.839844 17.113281 L 20.839844 15.5 L 21.275391 17.113281 L 21.636719 17.113281 L 21.636719 14.886719 L 21.324219 14.886719 L 21.324219 16.21875 L 20.964844 14.886719 L 20.525391 14.886719 z M 21.888672 14.886719 L 21.888672 17.113281 L 22.84375 17.113281 L 22.84375 16.794922 L 22.240234 16.794922 L 22.240234 16.142578 L 22.71875 16.142578 L 22.71875 15.824219 L 22.240234 15.824219 L 22.240234 15.205078 L 22.84375 15.205078 L 22.84375 14.886719 L 21.888672 14.886719 z M 23.046875 14.886719 L 23.095703 15.541016 L 23.333984 15.541016 L 23.384766 14.886719 L 23.046875 14.886719 z M 25.306641 14.886719 L 25.306641 17.113281 L 25.859375 17.113281 C 26.209262 17.113281 26.380859 16.9187 26.380859 16.5625 L 26.380859 15.4375 C 26.380859 15.0812 26.209262 14.886719 25.859375 14.886719 L 25.306641 14.886719 z M 26.863281 14.886719 L 26.505859 17.113281 L 26.828125 17.113281 L 26.888672 16.708984 L 27.316406 16.708984 L 27.376953 17.113281 L 27.730469 17.113281 L 27.375 14.886719 L 26.863281 14.886719 z M 27.621094 14.886719 L 28.0625 16.375 L 28.0625 17.113281 L 28.412109 17.113281 L 28.412109 16.375 L 28.855469 14.886719 L 28.521484 14.886719 L 28.253906 15.902344 L 27.986328 14.886719 L 27.621094 14.886719 z M 25.65625 15.205078 L 25.853516 15.205078 C 25.964843 15.205078 26.03125 15.262575 26.03125 15.421875 L 26.03125 16.578125 C 26.03125 16.737125 25.96484 16.794922 25.853516 16.794922 L 25.65625 16.794922 L 25.65625 15.205078 z M 14.396484 15.28125 L 14.564453 16.40625 L 14.228516 16.40625 L 14.396484 15.28125 z M 27.101562 15.28125 L 27.269531 16.40625 L 26.931641 16.40625 L 27.101562 15.28125 z " font-family="Bebas Neue" font-size="3.181" font-weight="700" letter-spacing="0" transform="translate(0 1020.362)" word-spacing="0"/><path fill="#d31206" fill-rule="evenodd" d="m 3.1470173,1031.2941 c -0.8037809,0 -1.6076476,0.3074 -2.22339641,0.9232 -1.23147852,1.2315 -1.23150714,3.2152 0,4.4469 l 0.23379071,0.2337 4.4753944,4.5327 4.475394,-4.5327 0.233791,-0.2337 c 1.231517,-1.2317 1.231488,-3.2154 0,-4.4469 -1.231488,-1.2316 -3.2152474,-1.2316 -4.4467641,0 l -0.2624209,0.2625 -0.2624209,-0.2625 c -0.6157584,-0.6158 -1.419606,-0.9232 -2.2233678,-0.9232 z"/></g></svg>