<svg xmlns="http://www.w3.org/2000/svg" width="32" height="32" viewBox="0 0 32 32"><g transform="translate(0 -1020.362)"><path fill="#fc0" d="m 5.7683465,1033.8586 26.2316495,0 -1.748774,2.4484 1.748774,2.4483 -26.2316495,0 1.7487733,-2.4483 z"/><path fill="#f2f2f2" d="M7.473397 1034.5582c-.096553 0-.1748713.079-.1748713.1749 0 .097.078338.1749.1748713.1749.096553 0 .1748813-.079.1748813-.1749 0-.097-.078338-.1749-.1748813-.1749zm.6853664 0c-.096553 0-.1748716.079-.1748716.1749 0 .097.078338.1749.1748716.1749.096553 0 .1748813-.079.1748813-.1749 0-.097-.078338-.1749-.1748813-.1749zm.6853665 0c-.096553 0-.1748719.079-.1748719.1749 0 .097.078338.1749.1748719.1749.096553 0 .1748813-.079.1748813-.1749 0-.097-.078338-.1749-.1748813-.1749zm.6853664 0c-.096553 0-.1748722.079-.1748722.1749 0 .097.078338.1749.1748722.1749.096553 0 .1748813-.079.1748813-.1749 0-.097-.078338-.1749-.1748813-.1749zm.6853667 0c-.09655 0-.174873.079-.174873.1749 0 .097.07834.1749.174873.1749.09655 0 .174881-.079.174881-.1749 0-.097-.07834-.1749-.174881-.1749zm.685366 0c-.09655 0-.174873.079-.174873.1749 0 .097.07834.1749.174873.1749.09655 0 .174882-.079.174882-.1749 0-.097-.07834-.1749-.174882-.1749zm.685367 0c-.09655 0-.174873.079-.174873.1749 0 .097.07834.1749.174873.1749.09655 0 .174881-.079.174881-.1749 0-.097-.07834-.1749-.174881-.1749zm.685366 0c-.09655 0-.174873.079-.174873.1749 0 .097.07834.1749.174873.1749.09655 0 .174881-.079.174881-.1749 0-.097-.07834-.1749-.174881-.1749zm.685366 0c-.09655 0-.174873.079-.174873.1749 0 .097.07834.1749.174873.1749.09655 0 .174882-.079.174882-.1749 0-.097-.07834-.1749-.174882-.1749zm.685367 0c-.09655 0-.174874.079-.174874.1749 0 .097.07834.1749.174874.1749.09655 0 .174881-.079.174881-.1749 0-.097-.07834-.1749-.174881-.1749zm.685366 0c-.09655 0-.174874.079-.174874.1749 0 .097.07834.1749.174874.1749.09655 0 .174882-.079.174882-.1749 0-.097-.07834-.1749-.174882-.1749zm.685367 0c-.09655 0-.174875.079-.174875.1749 0 .097.07834.1749.174875.1749.09655 0 .174881-.079.174881-.1749 0-.097-.07834-.1749-.174881-.1749zm.685366 0c-.09655 0-.174875.079-.174875.1749 0 .097.07834.1749.174875.1749.09655 0 .174882-.079.174882-.1749 0-.097-.07834-.1749-.174882-.1749zm.685367 0c-.09655 0-.174875.079-.174875.1749 0 .097.07834.1749.174875.1749.09655 0 .174881-.079.174881-.1749 0-.097-.07834-.1749-.174881-.1749zm.685366 0c-.09655 0-.174875.079-.174875.1749 0 .097.07834.1749.174875.1749.09655 0 .174882-.079.174882-.1749 0-.097-.07834-.1749-.174882-.1749zm.685366 0c-.09655 0-.174875.079-.174875.1749 0 .097.07834.1749.174875.1749.09655 0 .174882-.079.174882-.1749 0-.097-.07834-.1749-.174882-.1749zm.685367 0c-.09655 0-.174876.079-.174876.1749 0 .097.07834.1749.174876.1749.09655 0 .174881-.079.174881-.1749 0-.097-.07834-.1749-.174881-.1749zm.685366 0c-.09655 0-.174876.079-.174876.1749 0 .097.07834.1749.174876.1749.09655 0 .174882-.079.174882-.1749 0-.097-.07834-.1749-.174882-.1749zm.685367 0c-.09655 0-.174877.079-.174877.1749 0 .097.07834.1749.174877.1749.09655 0 .174881-.079.174881-.1749 0-.097-.07834-.1749-.174881-.1749zm.685366 0c-.09655 0-.174877.079-.174877.1749 0 .097.07834.1749.174877.1749.09655 0 .174882-.079.174882-.1749 0-.097-.07834-.1749-.174882-.1749zm.685367 0c-.09655 0-.174877.079-.174877.1749 0 .097.07834.1749.174877.1749.09655 0 .174881-.079.174881-.1749 0-.097-.07834-.1749-.174881-.1749zm.685366 0c-.09655 0-.174877.079-.174877.1749 0 .097.07834.1749.174877.1749.09655 0 .174882-.079.174882-.1749 0-.097-.07834-.1749-.174882-.1749zm.685366 0c-.09655 0-.174877.079-.174877.1749 0 .097.07834.1749.174877.1749.09655 0 .174882-.079.174882-.1749 0-.097-.07834-.1749-.174882-.1749zm.685367 0c-.09655 0-.174878.079-.174878.1749 0 .097.07834.1749.174878.1749.09655 0 .174882-.079.174882-.1749 0-.097-.07834-.1749-.174882-.1749zm.685366 0c-.09655 0-.174878.079-.174878.1749 0 .097.07834.1749.174878.1749.09655 0 .174882-.079.174882-.1749 0-.097-.07834-.1749-.174882-.1749zm.685367 0c-.09655 0-.174879.079-.174879.1749 0 .097.07834.1749.174879.1749.09655 0 .174881-.079.174881-.1749 0-.097-.07834-.1749-.174881-.1749zm.685366 0c-.09655 0-.174879.079-.174879.1749 0 .097.07834.1749.174879.1749.09655 0 .174882-.079.174882-.1749 0-.097-.07834-.1749-.174882-.1749zm.685367 0c-.09655 0-.174879.079-.174879.1749 0 .097.07834.1749.174879.1749.09655 0 .174881-.079.174881-.1749 0-.097-.07834-.1749-.174881-.1749zm.685366 0c-.09655 0-.174879.079-.174879.1749 0 .097.07834.1749.174879.1749.09655 0 .174882-.079.174882-.1749 0-.097-.07834-.1749-.174882-.1749zm.685366 0c-.09655 0-.174879.079-.174879.1749 0 .097.07834.1749.174879.1749.09655 0 .174882-.079.174882-.1749 0-.097-.07834-.1749-.174882-.1749zm.685367 0c-.09655 0-.17488.079-.17488.1749 0 .097.07834.1749.17488.1749.09655 0 .174882-.079.174882-.1749 0-.097-.07834-.1749-.174882-.1749zm.685366 0c-.09655 0-.17488.079-.17488.1749 0 .097.07834.1749.17488.1749.09655 0 .174882-.079.174882-.1749 0-.097-.07834-.1749-.174882-.1749zm.685367 0c-.09655 0-.174881.079-.174881.1749 0 .097.07834.1749.174881.1749.09655 0 .174882-.079.174882-.1749 0-.097-.07834-.1749-.174882-.1749zm.685366 0c-.09655 0-.174881.079-.174881.1749 0 .097.07834.1749.174881.1749.09655 0 .174882-.079.174882-.1749 0-.097-.07834-.1749-.174882-.1749zm.685367 0c-.09655 0-.174881.079-.174881.1749 0 .097.07834.1749.174881.1749.09655 0 .174882-.079.174882-.1749 0-.097-.07834-.1749-.174882-.1749zM1.746161 1037.7159c-.096553 0-.1748813.079-.1748813.1749 0 .097.078338.1749.1748813.1749.096554 0 .1748713-.079.1748713-.1749 0-.097-.078338-.1749-.1748713-.1749zm.8538145 0c-.096553 0-.1748813.079-.1748813.1749 0 .097.078338.1749.1748813.1749.096554 0 .1748717-.079.1748717-.1749 0-.097-.078338-.1749-.1748717-.1749zm.8538145 0c-.096553 0-.1748812.079-.1748812.1749 0 .097.078338.1749.1748812.1749.096554 0 .1748721-.079.1748721-.1749 0-.097-.078338-.1749-.1748721-.1749zm.8538146 0c-.096553 0-.1748813.079-.1748813.1749 0 .097.078338.1749.1748813.1749.096554 0 .1748723-.079.1748723-.1749 0-.097-.078338-.1749-.1748723-.1749zm.8538145 0c-.096553 0-.1748812.079-.1748812.1749 0 .097.078338.1749.1748812.1749.096554 0 .1748727-.079.1748727-.1749 0-.097-.078338-.1749-.1748727-.1749zm.8538146 0c-.096553 0-.1748813.079-.1748813.1749 0 .097.078338.1749.1748813.1749.096553 0 .1748729-.079.1748729-.1749 0-.097-.078338-.1749-.1748729-.1749zm.8538145 0c-.096552 0-.1748812.079-.1748812.1749 0 .097.078338.1749.1748812.1749.096553 0 .1748733-.079.1748733-.1749 0-.097-.078338-.1749-.1748733-.1749zm.8538146 0c-.096552 0-.1748813.079-.1748813.1749 0 .097.078338.1749.1748813.1749.096553 0 .1748736-.079.1748736-.1749 0-.097-.078339-.1749-.1748736-.1749zm.8538145 0c-.096552 0-.1748812.079-.1748812.1749 0 .097.078338.1749.1748812.1749.096553 0 .1748739-.079.1748739-.1749 0-.097-.078338-.1749-.1748739-.1749zm.8538146 0c-.096552 0-.1748813.079-.1748813.1749 0 .097.078339.1749.1748813.1749.096553 0 .1748742-.079.1748742-.1749 0-.097-.078339-.1749-.1748742-.1749zm.8538141 0c-.09655 0-.174881.079-.174881.1749 0 .097.07834.1749.174881.1749.09655 0 .174875-.079.174875-.1749 0-.097-.07834-.1749-.174875-.1749zm.853815 0c-.09655 0-.174881.079-.174881.1749 0 .097.07834.1749.174881.1749.09655 0 .174875-.079.174875-.1749 0-.097-.07834-.1749-.174875-.1749zm.853814 0c-.09655 0-.174881.079-.174881.1749 0 .097.07834.1749.174881.1749.09655 0 .174876-.079.174876-.1749 0-.097-.07834-.1749-.174876-.1749zm.853815 0c-.09655 0-.174881.079-.174881.1749 0 .097.07834.1749.174881.1749.09655 0 .174875-.079.174875-.1749 0-.097-.07834-.1749-.174875-.1749zm.853815 0c-.09655 0-.174882.079-.174882.1749 0 .097.07834.1749.174882.1749.09655 0 .174875-.079.174875-.1749 0-.097-.07834-.1749-.174875-.1749zm.853814 0c-.09655 0-.174881.079-.174881.1749 0 .097.07834.1749.174881.1749.09655 0 .174876-.079.174876-.1749 0-.097-.07834-.1749-.174876-.1749zm.853815 0c-.09655 0-.174881.079-.174881.1749 0 .097.07834.1749.174881.1749.09655 0 .174876-.079.174876-.1749 0-.097-.07834-.1749-.174876-.1749zm.853814 0c-.09655 0-.174881.079-.174881.1749 0 .097.07834.1749.174881.1749.09655 0 .174877-.079.174877-.1749 0-.097-.07834-.1749-.174877-.1749zm.853815 0c-.09655 0-.174881.079-.174881.1749 0 .097.07834.1749.174881.1749.09655 0 .174877-.079.174877-.1749 0-.097-.07834-.1749-.174877-.1749zm.853814 0c-.09655 0-.174881.079-.174881.1749 0 .097.07834.1749.174881.1749.09655 0 .174878-.079.174878-.1749 0-.097-.07834-.1749-.174878-.1749zm.853815 0c-.09655 0-.174881.079-.174881.1749 0 .097.07834.1749.174881.1749.09655 0 .174877-.079.174877-.1749 0-.097-.07834-.1749-.174877-.1749zm.853814 0c-.09655 0-.174881.079-.174881.1749 0 .097.07834.1749.174881.1749.09655 0 .174878-.079.174878-.1749 0-.097-.07834-.1749-.174878-.1749zm.853815 0c-.09655 0-.174881.079-.174881.1749 0 .097.07834.1749.174881.1749.09655 0 .174878-.079.174878-.1749 0-.097-.07834-.1749-.174878-.1749zm.853814 0c-.09655 0-.174881.079-.174881.1749 0 .097.07834.1749.174881.1749.09655 0 .174879-.079.174879-.1749 0-.097-.07834-.1749-.174879-.1749zm.853815 0c-.09655 0-.174881.079-.174881.1749 0 .097.07834.1749.174881.1749.09655 0 .174879-.079.174879-.1749 0-.097-.07834-.1749-.174879-.1749zm.853815 0c-.09655 0-.174881.079-.174881.1749 0 .097.07834.1749.174881.1749.09655 0 .174879-.079.174879-.1749 0-.097-.07834-.1749-.174879-.1749zm.853814 0c-.09655 0-.174881.079-.174881.1749 0 .097.07834.1749.174881.1749.09655 0 .17488-.079.17488-.1749 0-.097-.07834-.1749-.17488-.1749zm.853815 0c-.09655 0-.174881.079-.174881.1749 0 .097.07834.1749.174881.1749.09655 0 .174879-.079.174879-.1749 0-.097-.07834-.1749-.174879-.1749zm.853814 0c-.09655 0-.174881.079-.174881.1749 0 .097.07834.1749.174881.1749.09655 0 .17488-.079.17488-.1749 0-.097-.07834-.1749-.17488-.1749zm.853815 0c-.09655 0-.174881.079-.174881.1749 0 .097.07834.1749.174881.1749.09655 0 .17488-.079.17488-.1749 0-.097-.07834-.1749-.17488-.1749zm.853814 0c-.09655 0-.174881.079-.174881.1749 0 .097.07834.1749.174881.1749.09655 0 .174881-.079.174881-.1749 0-.097-.07834-.1749-.174881-.1749zm.853815 0c-.09655 0-.174881.079-.174881.1749 0 .097.07834.1749.174881.1749.09655 0 .174881-.079.174881-.1749 0-.097-.07834-.1749-.174881-.1749zm.853814 0c-.09655 0-.174881.079-.174881.1749 0 .097.07834.1749.174881.1749.09655 0 .174882-.079.174882-.1749 0-.097-.07834-.1749-.174882-.1749zm.853815 0c-.09655 0-.174881.079-.174881.1749 0 .097.07834.1749.174881.1749.09655 0 .174882-.079.174882-.1749 0-.097-.07834-.1749-.174882-.1749zm.853814 0c-.09655 0-.174881.079-.174881.1749 0 .097.07834.1749.174881.1749.09655 0 .174882-.079.174882-.1749 0-.097-.07834-.1749-.174882-.1749z"/><path fill="#ff1e55" fill-rule="evenodd" d="m 4.0195633,1032.7808 24.4828857,0 c 0,0 -1.399558,1.0232 -1.399558,3.5206 0,2.4973 1.399558,3.5204 1.399558,3.5204 l -24.4828857,0 z"/><rect width="8.044" height="8.044" x="-732.886" y="732.752" fill="#fc0" rx=".23" ry=".23" transform="rotate(-45)"/><rect width="6.693" height="6.693" x="-732.218" y="733.42" fill="none" stroke="#fff" stroke-width=".351" rx=".191" ry=".191" transform="rotate(-45)"/><path fill="#ff1e55" fill-rule="evenodd" d="m 4.5693012,1034.9081 c -0.3311388,0 -0.6623273,0.1267 -0.9160042,0.3804 -0.5073539,0.5073 -0.5073738,1.3246 0,1.832 l 0.096354,0.097 1.8438039,1.8673 1.8438038,-1.8673 0.096354,-0.097 c 0.5073738,-0.5074 0.5073539,-1.3247 0,-1.832 -0.5073539,-0.5075 -1.3246346,-0.5075 -1.8320084,0 l -0.1081101,0.1081 -0.10812,-0.1081 c -0.253677,-0.2537 -0.5848555,-0.3804 -0.9160042,-0.3804 z"/><path fill="#fc0" fill-rule="evenodd" d="M13.74742 1036.8416c-.09705 0-.194143.037-.268499.1115-.148712.1487-.148722.3883 0 .537l.02827.028.540451.5474.540461-.5474.02827-.028c.148713-.1487.148713-.3883 0-.537-.148722-.1487-.388284-.1487-.536996 0l-.03165.032-.03165-.032c-.07436-.075-.171437-.1115-.268498-.1115zM23.102848 1036.8416c-.09705 0-.194142.037-.268508.1116-.148713.1486-.148713.3882 0 .5368l.02827.028.540451.5474.540461-.5474.02827-.028c.148712-.1487.148702-.3883 0-.5368-.148722-.1488-.388285-.1488-.536997 0l-.03165.032-.03165-.032c-.07436-.075-.171437-.1116-.268499-.1116z"/><path style="line-height:125%;-inkscape-font-specification:'Bebas Neue Bold';text-align:center" fill="#fc0" d="M21.236328 13.996094C20.987779 13.996094 20.859375 14.144097 20.859375 14.404297L20.859375 14.40625C20.859375 14.87085 21.359375 14.933078 21.359375 15.267578 21.359375 15.383678 21.307866 15.425781 21.226562 15.425781 21.145263 15.425781 21.095703 15.383478 21.095703 15.267578L21.095703 15.150391 20.853516 15.150391 20.853516 15.25C20.853516 15.5102 20.983503 15.660156 21.234375 15.660156 21.485247 15.660156 21.615234 15.5102 21.615234 15.25 21.615234 14.7855 21.115234 14.723172 21.115234 14.388672 21.115234 14.272572 21.162842 14.228516 21.244141 14.228516 21.325441 14.228516 21.371094 14.272472 21.371094 14.388672L21.371094 14.457031 21.613281 14.457031 21.613281 14.404297C21.613281 14.144097 21.484877 13.996094 21.236328 13.996094zM12.839844 14.015625L13.091797 15.640625 13.472656 15.640625 13.722656 14.015625 13.488281 14.015625 13.292969 15.341797 13.097656 14.015625 12.839844 14.015625zM13.976562 14.015625L13.716797 15.640625 13.951172 15.640625 13.994141 15.345703 14.308594 15.345703 14.351562 15.640625 14.611328 15.640625 14.349609 14.015625 13.976562 14.015625zM14.726562 14.015625L14.726562 15.640625 15.402344 15.640625 15.402344 15.408203 14.982422 15.408203 14.982422 14.015625 14.726562 14.015625zM15.515625 14.015625L15.515625 15.640625 16.212891 15.640625 16.212891 15.408203 15.771484 15.408203 15.771484 14.931641 16.123047 14.931641 16.123047 14.701172 15.771484 14.701172 15.771484 14.248047 16.212891 14.248047 16.212891 14.015625 15.515625 14.015625zM16.367188 14.015625L16.367188 15.640625 16.597656 15.640625 16.597656 14.462891 16.916016 15.640625 17.177734 15.640625 17.177734 14.015625 16.949219 14.015625 16.949219 14.988281 16.6875 14.015625 16.367188 14.015625zM17.289062 14.015625L17.289062 14.248047 17.556641 14.248047 17.556641 15.640625 17.810547 15.640625 17.810547 14.248047 18.078125 14.248047 18.078125 14.015625 17.289062 14.015625zM18.189453 14.015625L18.189453 15.640625 18.443359 15.640625 18.443359 14.015625 18.189453 14.015625zM18.626953 14.015625L18.626953 15.640625 18.857422 15.640625 18.857422 14.462891 19.173828 15.640625 19.4375 15.640625 19.4375 14.015625 19.208984 14.015625 19.208984 14.988281 18.947266 14.015625 18.626953 14.015625zM19.623047 14.015625L19.623047 15.640625 20.318359 15.640625 20.318359 15.408203 19.876953 15.408203 19.876953 14.931641 20.228516 14.931641 20.228516 14.701172 19.876953 14.701172 19.876953 14.248047 20.318359 14.248047 20.318359 14.015625 19.623047 14.015625zM20.46875 14.015625L20.503906 14.494141 20.677734 14.494141 20.714844 14.015625 20.46875 14.015625zM22.117188 14.015625L22.117188 15.640625 22.521484 15.640625C22.777001 15.640625 22.902344 15.498481 22.902344 15.238281L22.902344 14.416016C22.902344 14.155816 22.777001 14.015625 22.521484 14.015625L22.117188 14.015625zM23.253906 14.015625L22.994141 15.640625 23.228516 15.640625 23.273438 15.345703 23.585938 15.345703 23.630859 15.640625 23.888672 15.640625 23.628906 14.015625 23.253906 14.015625zM23.808594 14.015625L24.130859 15.101562 24.130859 15.640625 24.386719 15.640625 24.386719 15.101562 24.708984 14.015625 24.464844 14.015625 24.269531 14.755859 24.074219 14.015625 23.808594 14.015625zM22.373047 14.248047L22.517578 14.248047C22.598878 14.248047 22.646484 14.29025 22.646484 14.40625L22.646484 15.25C22.646484 15.3662 22.598879 15.408203 22.517578 15.408203L22.373047 15.408203 22.373047 14.248047zM14.150391 14.302734L14.273438 15.125 14.027344 15.125 14.150391 14.302734zM23.427734 14.302734L23.550781 15.125 23.304688 15.125 23.427734 14.302734zM16.371094 16.21875C16.122545 16.21875 15.994141 16.366753 15.994141 16.626953 15.994141 17.091553 16.494141 17.155734 16.494141 17.490234 16.494141 17.606334 16.442633 17.648438 16.361328 17.648438 16.280028 17.648438 16.228516 17.606234 16.228516 17.490234L16.228516 17.373047 15.988281 17.373047 15.988281 17.472656C15.988281 17.732856 16.118269 17.882812 16.369141 17.882812 16.620013 17.882812 16.75 17.732856 16.75 17.472656 16.75 17.008156 16.25 16.945828 16.25 16.611328 16.25 16.495228 16.295655 16.451172 16.376953 16.451172 16.458253 16.451172 16.505859 16.495128 16.505859 16.611328L16.505859 16.677734 16.746094 16.677734 16.746094 16.626953C16.746094 16.366753 16.619643 16.21875 16.371094 16.21875zM18.982422 16.21875C18.73155 16.21875 18.601562 16.366753 18.601562 16.626953L18.601562 17.472656C18.601562 17.732856 18.73155 17.882812 18.982422 17.882812 19.233294 17.882812 19.363281 17.732856 19.363281 17.472656L19.363281 17.257812 19.121094 17.257812 19.121094 17.490234C19.121094 17.606334 19.069585 17.648438 18.988281 17.648438 18.906981 17.648438 18.857422 17.606234 18.857422 17.490234L18.857422 16.611328C18.857422 16.495228 18.906976 16.451172 18.988281 16.451172 19.069581 16.451172 19.121094 16.495128 19.121094 16.611328L19.121094 16.785156 19.363281 16.785156 19.363281 16.626953C19.363281 16.366753 19.233294 16.21875 18.982422 16.21875zM16.892578 16.238281L16.892578 17.863281 17.148438 17.863281 17.148438 17.251953 17.269531 17.251953C17.525049 17.251953 17.650391 17.111763 17.650391 16.851562L17.650391 16.638672C17.650391 16.378572 17.525049 16.238281 17.269531 16.238281L16.892578 16.238281zM17.769531 16.238281L17.769531 17.863281 18.466797 17.863281 18.466797 17.630859 18.025391 17.630859 18.025391 17.154297 18.375 17.154297 18.375 16.921875 18.025391 16.921875 18.025391 16.470703 18.466797 16.470703 18.466797 16.238281 17.769531 16.238281zM19.519531 16.238281L19.519531 17.863281 19.775391 17.863281 19.775391 16.238281 19.519531 16.238281zM20.152344 16.238281L19.892578 17.863281 20.126953 17.863281 20.171875 17.568359 20.486328 17.568359 20.529297 17.863281 20.787109 17.863281 20.527344 16.238281 20.152344 16.238281zM20.904297 16.238281L20.904297 17.863281 21.580078 17.863281 21.580078 17.630859 21.160156 17.630859 21.160156 16.238281 20.904297 16.238281zM17.148438 16.470703L17.269531 16.470703C17.350831 16.470703 17.394531 16.506747 17.394531 16.623047L17.394531 16.867188C17.394531 16.983287 17.350837 17.019531 17.269531 17.019531L17.148438 17.019531 17.148438 16.470703zM20.328125 16.525391L20.451172 17.347656 20.205078 17.347656 20.328125 16.525391z" font-family="Bebas Neue" font-weight="700" letter-spacing="0" text-anchor="middle" transform="translate(0 1020.362)" word-spacing="0"/></g></svg>