<svg xmlns="http://www.w3.org/2000/svg" width="32" height="32" viewBox="0 0 32 32"><g transform="translate(0 -1020.362)"><path fill="#df1e49" d="M0 1038.0266l5.42189-1.3479 0 6.8042-5.42189 1.3478 1.9445-3.8854zM31.99999 1027.8938l-5.4219 1.3478 0 6.8042 5.4219-1.3479-1.9445-2.9187z"/><path fill="#ff1e55" d="m 3.98678,1035.8637 0,6.8053 3.6923,-0.9179 16.64182,-4.1369 3.69231,-0.9179 0,-6.8053 -3.69231,0.918 -16.64182,4.1368 -3.6923,0.9179 z"/><path style="line-height:125%;-inkscape-font-specification:'Bebas Neue Bold'" fill="#fff" d="m 23.076172,1032.8056 -1.666016,0.414 0,0.4903 0.5625,-0.1407 0,2.9414 0.539063,-0.1347 0,-2.9395 0.564453,-0.1406 0,-0.4902 z m -1.900391,0.4726 -0.480469,0.1192 0,2.0527 -0.552734,-1.9141 -0.677734,0.168 0,3.4297 0.486328,-0.1211 0,-2.4844 0.669922,2.3184 0.554687,-0.1387 0,-3.4297 z m -2.074219,0.5156 -0.509765,0.127 0,2.6465 c 0,0.245 -0.107803,0.3597 -0.279297,0.4023 -0.171495,0.043 -0.279297,-0.019 -0.279297,-0.2636 l 0,-2.6465 -0.539062,0.1347 0,2.6114 c 0,0.5488 0.273551,0.7937 0.802734,0.6621 0.529183,-0.1315 0.804688,-0.5137 0.804687,-1.0625 l 0,-2.6114 z m -2.40039,0.6153 c -0.101519,-0.013 -0.219267,-0 -0.351563,0.029 -0.529183,0.1315 -0.818359,0.5176 -0.818359,1.0664 l 0,1.7832 c 0,0.5488 0.289176,0.7897 0.818359,0.6582 0.529183,-0.1316 0.81836,-0.5157 0.81836,-1.0645 l 0,-1.7832 c 0,-0.4116 -0.162241,-0.6512 -0.466797,-0.6894 z m -1.91211,0.4746 c -0.10014,-0.013 -0.217313,-0 -0.349609,0.029 -0.529183,0.1315 -0.802734,0.5137 -0.802734,1.0625 l 0,1.7832 c 0,0.5488 0.273551,0.7956 0.802734,0.6641 0.529183,-0.1316 0.804688,-0.5137 0.804688,-1.0625 l 0,-0.4571 -0.509766,0.127 0,0.4902 c 0,0.245 -0.107802,0.3598 -0.279297,0.4024 -0.171494,0.043 -0.279297,-0.018 -0.279297,-0.2637 l 0,-1.8516 c 0,-0.245 0.107803,-0.3655 0.279297,-0.4082 0.171495,-0.043 0.279297,0.025 0.279297,0.2695 l 0,0.3672 0.509766,-0.1269 0,-0.3321 c 0,-0.4116 -0.154657,-0.6541 -0.455079,-0.6933 z m 1.675782,0.035 c 0.102667,0.012 0.164062,0.096 0.164062,0.2793 l 0,1.8516 c 0,0.245 -0.107803,0.3656 -0.279297,0.4082 -0.171494,0.043 -0.279297,-0.025 -0.279297,-0.2695 l 0,-1.8516 c 0,-0.245 0.107803,-0.3656 0.279297,-0.4082 0.04287,-0.011 0.08101,-0.014 0.115235,-0.01 z m -3.541016,0.4297 c -0.09899,-0.013 -0.214632,-0.01 -0.345703,0.027 -0.524283,0.1303 -0.792969,0.5117 -0.792969,1.0605 0,0.9799 1.052735,0.8491 1.052735,1.5547 0,0.245 -0.107802,0.3616 -0.279297,0.4043 -0.171494,0.043 -0.279297,-0.019 -0.279297,-0.2637 l 0,-0.2461 -0.509766,0.127 0,0.2109 c 0,0.5488 0.273552,0.7937 0.802735,0.6621 0.529183,-0.1315 0.804687,-0.5137 0.804687,-1.0625 0,-0.98 -1.054687,-0.8492 -1.054687,-1.5547 0,-0.245 0.09804,-0.3635 0.269531,-0.4062 0.171495,-0.043 0.269531,0.026 0.269531,0.2715 l 0,0.1426 0.509766,-0.127 0,-0.1074 c 0,-0.4116 -0.15029,-0.6533 -0.447266,-0.6934 z m -1.460937,0.3438 -0.539063,0.1347 0,3.4297 0.539063,-0.1347 0,-3.4297 z m -1.332032,0.3867 c -0.1006,-0.012 -0.2187696,-3e-4 -0.3535152,0.033 l -0.8535157,0.2109 0,3.4297 0.8535157,-0.2109 c 0.5389822,-0.134 0.8027342,-0.4981 0.8027342,-1.0469 l 0,-1.7344 c 0,-0.4116 -0.147419,-0.6468 -0.449219,-0.6816 z m -0.2480465,0.5137 c 0.101289,0.011 0.1582035,0.094 0.1582035,0.2773 l 0,1.7832 c 0,0.245 -0.1019434,0.3578 -0.2734379,0.4004 l -0.3046875,0.076 0,-2.4512 0.3046875,-0.074 c 0.042874,-0.011 0.081471,-0.015 0.1152344,-0.012 z" font-family="Bebas Neue" font-weight="700" letter-spacing="0" word-spacing="0"/></g></svg>