<svg xmlns="http://www.w3.org/2000/svg" width="32" height="32" viewBox="0 0 32 32"><g transform="translate(0 -1020.362)"><path fill="#42277b" fill-rule="evenodd" d="M15.001913 1031.8621l-.99957-2-.38281 0 0 1.9961 0 .1859 1.37457 0zM3.000093 1031.8621l.99991-2 .38281 0 0 1.9961 0 .1859-1.37491 0z"/><rect width="32" height="7" y="1031.862" fill="#fc0"/><path fill="#622797" d="m 4.000003,1029.8621 10,0 0,11 -5,2 -5,-2 z"/><path fill="#ff1e55" fill-rule="evenodd" d="m 7.455433,1032.713 c -0.49944,0 -0.99893,0.1911 -1.38153,0.5737 -0.76519,0.7651 -0.76521,1.9979 0,2.7631 l 0.14527,0.1452 2.78083,2.8164 2.78083,-2.8164 0.14526,-0.1452 c 0.76522,-0.7652 0.7652,-1.998 0,-2.7631 -0.76519,-0.7653 -1.99782,-0.7653 -2.76303,0 l -0.16306,0.1631 -0.16306,-0.1631 c -0.3826,-0.3826 -0.88208,-0.5737 -1.38151,-0.5737 z"/><path style="line-height:125%;-inkscape-font-specification:'Bebas Neue Bold';text-align:center" fill="#ff1e55" d="M 27.445312 12.5 C 27.146432 12.5 26.992187 12.677434 26.992188 12.990234 L 26.992188 12.992188 C 26.992188 13.550888 27.591797 13.625144 27.591797 14.027344 C 27.591797 14.167044 27.531414 14.21875 27.433594 14.21875 C 27.335794 14.21875 27.273437 14.167344 27.273438 14.027344 L 27.273438 13.888672 L 26.984375 13.888672 L 26.984375 14.007812 C 26.984375 14.320612 27.139736 14.5 27.441406 14.5 C 27.743086 14.5 27.900391 14.320613 27.900391 14.007812 C 27.900391 13.449112 27.298828 13.374856 27.298828 12.972656 C 27.298828 12.832956 27.355395 12.779297 27.453125 12.779297 C 27.550925 12.779297 27.605469 12.832856 27.605469 12.972656 L 27.605469 13.052734 L 27.896484 13.052734 L 27.896484 12.990234 C 27.896484 12.677434 27.744203 12.5 27.445312 12.5 z M 17.347656 12.523438 L 17.650391 14.478516 L 18.107422 14.478516 L 18.410156 12.523438 L 18.126953 12.523438 L 17.892578 14.117188 L 17.658203 12.523438 L 17.347656 12.523438 z M 18.712891 12.523438 L 18.400391 14.478516 L 18.683594 14.478516 L 18.736328 14.123047 L 19.113281 14.123047 L 19.166016 14.478516 L 19.476562 14.478516 L 19.164062 12.523438 L 18.712891 12.523438 z M 19.617188 12.523438 L 19.617188 14.478516 L 20.429688 14.478516 L 20.429688 14.199219 L 19.923828 14.199219 L 19.923828 12.523438 L 19.617188 12.523438 z M 20.566406 12.523438 L 20.566406 14.478516 L 21.404297 14.478516 L 21.404297 14.199219 L 20.873047 14.199219 L 20.873047 13.625 L 21.294922 13.625 L 21.294922 13.345703 L 20.873047 13.345703 L 20.873047 12.802734 L 21.404297 12.802734 L 21.404297 12.523438 L 20.566406 12.523438 z M 21.589844 12.523438 L 21.589844 14.478516 L 21.865234 14.478516 L 21.865234 13.060547 L 22.248047 14.478516 L 22.564453 14.478516 L 22.564453 12.523438 L 22.289062 12.523438 L 22.289062 13.693359 L 21.974609 12.523438 L 21.589844 12.523438 z M 22.697266 12.523438 L 22.697266 12.802734 L 23.017578 12.802734 L 23.017578 14.478516 L 23.326172 14.478516 L 23.326172 12.802734 L 23.646484 12.802734 L 23.646484 12.523438 L 22.697266 12.523438 z M 23.779297 12.523438 L 23.779297 14.478516 L 24.085938 14.478516 L 24.085938 12.523438 L 23.779297 12.523438 z M 24.306641 12.523438 L 24.306641 14.478516 L 24.582031 14.478516 L 24.582031 13.060547 L 24.964844 14.478516 L 25.28125 14.478516 L 25.28125 12.523438 L 25.007812 12.523438 L 25.007812 13.693359 L 24.691406 12.523438 L 24.306641 12.523438 z M 25.503906 12.523438 L 25.503906 14.478516 L 26.341797 14.478516 L 26.341797 14.199219 L 25.810547 14.199219 L 25.810547 13.625 L 26.232422 13.625 L 26.232422 13.345703 L 25.810547 13.345703 L 25.810547 12.802734 L 26.341797 12.802734 L 26.341797 12.523438 L 25.503906 12.523438 z M 26.521484 12.523438 L 26.5625 13.097656 L 26.771484 13.097656 L 26.816406 12.523438 L 26.521484 12.523438 z M 18.923828 12.869141 L 19.072266 13.857422 L 18.775391 13.857422 L 18.923828 12.869141 z M 19.722656 15.5 C 19.423786 15.5 19.269531 15.677434 19.269531 15.990234 L 19.269531 15.992188 C 19.269531 16.550888 19.871094 16.625044 19.871094 17.027344 C 19.871094 17.167044 19.808648 17.21875 19.710938 17.21875 C 19.613138 17.21875 19.552734 17.167244 19.552734 17.027344 L 19.552734 16.888672 L 19.261719 16.888672 L 19.261719 17.007812 C 19.261719 17.320612 19.41709 17.5 19.71875 17.5 C 20.02041 17.5 20.177734 17.320613 20.177734 17.007812 C 20.177734 16.449212 19.576172 16.374956 19.576172 15.972656 C 19.576172 15.833056 19.632739 15.779297 19.730469 15.779297 C 19.828269 15.779297 19.884766 15.832956 19.884766 15.972656 L 19.884766 16.052734 L 20.173828 16.052734 L 20.173828 15.990234 C 20.173828 15.677434 20.021516 15.5 19.722656 15.5 z M 22.863281 15.5 C 22.561621 15.5 22.404297 15.679387 22.404297 15.992188 L 22.404297 17.007812 C 22.404297 17.320612 22.561621 17.5 22.863281 17.5 C 23.164931 17.5 23.320312 17.320613 23.320312 17.007812 L 23.320312 16.748047 L 23.029297 16.748047 L 23.029297 17.027344 C 23.029297 17.167044 22.968894 17.21875 22.871094 17.21875 C 22.773294 17.21875 22.710938 17.167244 22.710938 17.027344 L 22.710938 15.972656 C 22.710938 15.833056 22.773284 15.779297 22.871094 15.779297 C 22.968894 15.779297 23.029297 15.832956 23.029297 15.972656 L 23.029297 16.181641 L 23.320312 16.181641 L 23.320312 15.992188 C 23.320312 15.679388 23.164931 15.5 22.863281 15.5 z M 20.351562 15.523438 L 20.351562 17.478516 L 20.658203 17.478516 L 20.658203 16.742188 L 20.802734 16.742188 C 21.109974 16.742188 21.261719 16.572566 21.261719 16.259766 L 21.261719 16.005859 C 21.261719 15.692959 21.109974 15.523438 20.802734 15.523438 L 20.351562 15.523438 z M 21.404297 15.523438 L 21.404297 17.478516 L 22.242188 17.478516 L 22.242188 17.199219 L 21.710938 17.199219 L 21.710938 16.625 L 22.132812 16.625 L 22.132812 16.345703 L 21.710938 16.345703 L 21.710938 15.802734 L 22.242188 15.802734 L 22.242188 15.523438 L 21.404297 15.523438 z M 23.509766 15.523438 L 23.509766 17.478516 L 23.816406 17.478516 L 23.816406 15.523438 L 23.509766 15.523438 z M 24.271484 15.523438 L 23.957031 17.478516 L 24.240234 17.478516 L 24.292969 17.123047 L 24.669922 17.123047 L 24.722656 17.478516 L 25.033203 17.478516 L 24.720703 15.523438 L 24.271484 15.523438 z M 25.173828 15.523438 L 25.173828 17.478516 L 25.986328 17.478516 L 25.986328 17.199219 L 25.480469 17.199219 L 25.480469 15.523438 L 25.173828 15.523438 z M 20.658203 15.802734 L 20.802734 15.802734 C 20.900534 15.802734 20.955078 15.846028 20.955078 15.986328 L 20.955078 16.279297 C 20.955078 16.418997 20.900464 16.462891 20.802734 16.462891 L 20.658203 16.462891 L 20.658203 15.802734 z M 24.480469 15.869141 L 24.628906 16.857422 L 24.332031 16.857422 L 24.480469 15.869141 z " font-family="Bebas Neue" font-size="2.576" font-weight="700" letter-spacing="0" text-anchor="middle" transform="translate(0 1020.362)" word-spacing="0"/></g></svg>