<svg xmlns="http://www.w3.org/2000/svg" width="32" height="32" viewBox="0 0 32 32"><g transform="translate(0 -1020.362)"><path fill="#ff9500" d="M28 1029.7109l0 6.7603-3.667944-.4056-8.266128-.9148 0-6.7604 8.266128.9147zM4 1042.4355l0-6.7603 3.667968.4058 8.266128.9146 0 6.7604-8.266128-.9144z"/><path fill="#a80e05" d="m 21.921144,1046.5867 c -0.421027,0.2392 -3.212658,-0.669 -3.68323,-0.5548 -0.454139,0.1102 -2.415996,2.1731 -2.882611,2.1476 -0.483501,-0.026 -2.340991,-2.2996 -2.798581,-2.458 -0.441609,-0.1528 -3.2073601,0.522 -3.5861199,0.2483 -0.3924655,-0.2836 -0.7260737,-3.2003 -1.0253999,-3.5809 -0.2888731,-0.3673 -2.9804116,-1.2949 -3.1510618,-1.7299 -0.1768254,-0.4508 1.1193659,-3.0848 1.0733374,-3.5668 -0.044421,-0.4652 -1.8072029,-2.7007 -1.7155634,-3.1589 0.094956,-0.4748 2.6094149,-1.9899 2.8312978,-2.4203 0.2141343,-0.4154 -0.06022,-3.249 0.2646143,-3.585 0.3365887,-0.3481 3.2709925,-0.2632 3.6903415,-0.5053 0.404703,-0.2337 1.705882,-2.7658 2.160778,-2.8728 0.471358,-0.1109 2.894054,1.547 3.377727,1.57 0.466783,0.022 2.930379,-1.4044 3.370912,-1.2485 0.456473,0.1615 1.598273,2.866 1.992708,3.1469 0.380661,0.2711 3.224501,0.4028 3.510804,0.7721 0.296662,0.3827 -0.204948,3.2752 -0.02498,3.7247 0.173683,0.4338 2.494867,2.0821 2.53604,2.5476 0.04266,0.4824 -1.943099,2.6445 -2.034739,3.1199 -0.08844,0.4589 0.97313,3.1005 0.756102,3.5143 -0.224881,0.4289 -3.064331,1.1742 -3.398481,1.5246 -0.322482,0.3382 -0.857569,3.1344 -1.263894,3.3652 z"/><path fill="#d31206" d="m 21.021052,1045.0304 c -0.356964,0.2028 -2.723817,-0.5672 -3.122786,-0.4704 -0.385036,0.093 -2.048375,1.8425 -2.44399,1.8209 -0.40993,-0.022 -1.984782,-1.9497 -2.372744,-2.084 -0.374414,-0.1296 -2.719325,0.4426 -3.040452,0.2105 -0.3327478,-0.2405 -0.615594,-2.7133 -0.8693743,-3.036 -0.2449178,-0.3114 -2.5269083,-1.0979 -2.6715923,-1.4667 -0.1499195,-0.3822 0.9490416,-2.6154 0.9100169,-3.0241 -0.037662,-0.3944 -1.5322164,-2.2897 -1.454521,-2.6782 0.080507,-0.4026 2.212363,-1.6871 2.4004839,-2.052 0.1815514,-0.3522 -0.051057,-2.7547 0.2243504,-3.0395 0.285373,-0.2951 2.7732744,-0.2232 3.1288144,-0.4285 0.343123,-0.1981 1.446313,-2.3449 1.831992,-2.4356 0.399635,-0.094 2.453691,1.3116 2.863768,1.3311 0.395756,0.019 2.484489,-1.1908 2.85799,-1.0586 0.387015,0.137 1.355078,2.43 1.689495,2.6681 0.322739,0.2298 2.733857,0.3415 2.976596,0.6546 0.251521,0.3245 -0.173763,2.7769 -0.02118,3.158 0.147255,0.3678 2.115245,1.7653 2.150153,2.16 0.03617,0.4089 -1.647435,2.242 -1.72513,2.6451 -0.07498,0.3891 0.825057,2.6287 0.641052,2.9796 -0.190663,0.3636 -2.598058,0.9955 -2.881364,1.2926 -0.273413,0.2867 -0.72708,2.6574 -1.071578,2.8531 z"/><path fill="#fc0" d="m 4.013848,1035.6656 0,6.7939 3.686112,-0.9163 16.613928,-4.1302 3.686112,-0.9163 0,-6.7937 -3.686112,0.9161 -16.613928,4.1301 -3.686112,0.9164 z"/><path style="line-height:125%;-inkscape-font-specification:'Bebas Neue Bold'" fill="#fff" d="M21.009766 12.759766L20.472656 12.894531 20.472656 16.318359 21.894531 15.964844 21.894531 15.474609 21.009766 15.695312 21.009766 12.759766zM19.677734 13.091797L18.890625 13.287109 18.34375 16.847656 18.837891 16.724609 18.929688 16.080078 19.589844 15.916016 19.683594 16.513672 20.226562 16.378906 19.677734 13.091797zM18.095703 13.484375L17.558594 13.619141 17.558594 17.042969 18.095703 16.908203 18.095703 13.484375zM19.257812 13.802734L19.517578 15.46875 18.998047 15.597656 19.257812 13.802734zM16.773438 13.832031C16.673465 13.818966 16.555902 13.828503 16.423828 13.861328 15.895532 13.992628 15.623047 14.373975 15.623047 14.921875L15.623047 16.701172C15.623047 17.249072 15.895532 17.494581 16.423828 17.363281 16.952124 17.231981 17.226562 16.850634 17.226562 16.302734L17.226562 15.847656 16.71875 15.974609 16.71875 16.462891C16.71875 16.707391 16.61066 16.822734 16.439453 16.865234 16.268246 16.908234 16.160156 16.845763 16.160156 16.601562L16.160156 14.753906C16.160156 14.509306 16.268246 14.388303 16.439453 14.345703 16.61066 14.302703 16.71875 14.371034 16.71875 14.615234L16.71875 14.982422 17.226562 14.855469 17.226562 14.523438C17.226562 14.112512 17.073355 13.871228 16.773438 13.832031zM15.337891 14.169922L13.871094 14.535156 13.871094 17.958984 15.337891 17.59375 15.337891 17.105469 14.408203 17.335938 14.408203 16.333984 15.146484 16.150391 15.146484 15.660156 14.408203 15.84375 14.408203 14.890625 15.337891 14.660156 15.337891 14.169922zM13.171875 14.763672C13.071444 14.752098 12.952879 14.76345 12.818359 14.796875L12.025391 14.994141 12.025391 18.417969 12.564453 18.283203 12.564453 16.998047 12.818359 16.933594C13.356438 16.799894 13.621094 16.436472 13.621094 15.888672L13.621094 15.443359C13.621094 15.032509 13.473169 14.798392 13.171875 14.763672zM11.269531 15.199219C11.170705 15.185872 11.056632 15.195991 10.925781 15.228516 10.402377 15.358616 10.132813 15.737256 10.132812 16.285156 10.132812 17.263456 11.185547 17.135444 11.185547 17.839844 11.185547 18.084344 11.077457 18.199588 10.90625 18.242188 10.735043 18.285187 10.626953 18.222816 10.626953 17.978516L10.626953 17.734375 10.119141 17.859375 10.119141 18.070312C10.119141 18.618213 10.391627 18.863722 10.919922 18.732422 11.448218 18.601122 11.722656 18.219775 11.722656 17.671875 11.722656 16.693575 10.671875 16.821588 10.671875 16.117188 10.671875 15.872588 10.768243 15.755491 10.939453 15.712891 11.11066 15.669891 11.208984 15.739675 11.208984 15.984375L11.208984 16.126953 11.71875 16 11.71875 15.892578C11.71875 15.481653 11.56601 15.239259 11.269531 15.199219zM12.931641 15.273438C13.030008 15.282264 13.082031 15.358994 13.082031 15.542969L13.082031 16.056641C13.082031 16.301241 12.989566 16.402812 12.818359 16.445312L12.564453 16.507812 12.564453 15.347656 12.818359 15.285156C12.861161 15.274406 12.898852 15.270495 12.931641 15.273438zM19.955078 8.4804688L18.998047 8.71875 18.998047 10.955078 19.955078 10.716797 19.955078 10.398438 19.347656 10.548828 19.347656 9.8925781 19.832031 9.7734375 19.832031 9.453125 19.347656 9.5742188 19.347656 8.9511719 19.955078 8.7988281 19.955078 8.4804688zM18.742188 8.78125L18.429688 8.859375 18.429688 10.199219 18.068359 8.9492188 17.626953 9.0585938 17.626953 11.296875 17.943359 11.216797 17.943359 9.5976562 18.380859 11.107422 18.380859 11.109375 18.742188 11.019531 18.742188 8.78125zM17.376953 9.1210938L17.025391 9.2089844 17.025391 11.445312 17.376953 11.359375 17.376953 9.1210938zM16.873047 9.2480469L15.787109 9.5175781 15.787109 9.8359375 16.154297 9.7460938 16.154297 11.662109 16.505859 11.576172 16.505859 9.6582031 16.873047 9.5664062 16.873047 9.2480469zM15.634766 9.5546875L15.320312 9.6328125 15.320312 10.970703 14.958984 9.7226562 14.517578 9.8320312 14.517578 12.068359 14.833984 11.990234 14.833984 10.369141 15.273438 11.880859 15.634766 11.791016 15.634766 9.5546875zM14.306641 9.8847656L13.347656 10.123047 13.347656 12.359375 14.306641 12.121094 14.306641 11.802734 13.699219 11.953125 13.699219 11.296875 14.181641 11.177734 14.181641 10.857422 13.699219 10.978516 13.699219 10.355469 14.306641 10.203125 14.306641 9.8847656zM12.613281 10.304688L12.261719 10.392578 12.261719 12.628906 13.191406 12.398438 13.191406 12.078125 12.613281 12.222656 12.613281 10.304688zM11.744141 10.521484L11.228516 10.650391 10.871094 12.976562 11.193359 12.896484 11.253906 12.474609 11.685547 12.367188 11.746094 12.757812 12.101562 12.669922 11.744141 10.521484zM10.880859 10.736328L10.558594 10.816406 10.289062 12.707031 10.021484 10.949219 9.6660156 11.037109 10.011719 13.189453 10.535156 13.058594 10.880859 10.736328zM11.46875 10.986328L11.638672 12.076172 11.298828 12.160156 11.46875 10.986328z" font-family="Bebas Neue" font-weight="700" letter-spacing="0" transform="translate(0 1020.362)" word-spacing="0"/><path style="line-height:125%;-inkscape-font-specification:'Bebas Neue Bold'" fill="#fff" d="M 21.28125 18.332031 L 20.216797 18.595703 L 20.216797 18.908203 L 20.216797 18.910156 L 20.576172 18.820312 L 20.576172 20.699219 L 20.921875 20.613281 L 20.921875 18.734375 L 21.28125 18.644531 L 21.28125 18.332031 z M 20.066406 18.634766 L 19.759766 18.710938 L 19.759766 20.021484 L 19.40625 18.798828 L 18.974609 18.90625 L 18.974609 21.097656 L 19.283203 21.021484 L 19.283203 19.433594 L 19.712891 20.914062 L 20.066406 20.826172 L 20.066406 18.634766 z M 18.740234 18.964844 L 18.416016 19.044922 L 18.416016 20.736328 C 18.416016 20.892928 18.345932 20.966941 18.236328 20.994141 C 18.126726 21.021141 18.058594 20.980819 18.058594 20.824219 L 18.058594 19.132812 L 17.712891 19.21875 L 17.712891 20.888672 C 17.712891 21.239372 17.888363 21.3965 18.226562 21.3125 C 18.564763 21.2285 18.740234 20.983513 18.740234 20.632812 L 18.740234 18.964844 z M 17.207031 19.357422 C 17.142151 19.349284 17.066972 19.355928 16.982422 19.376953 C 16.644222 19.460953 16.458984 19.705941 16.458984 20.056641 L 16.458984 21.197266 C 16.458984 21.547966 16.644222 21.701188 16.982422 21.617188 C 17.320622 21.533187 17.505859 21.2882 17.505859 20.9375 L 17.505859 19.796875 C 17.505859 19.53385 17.401673 19.381834 17.207031 19.357422 z M 15.984375 19.660156 C 15.920375 19.651789 15.846269 19.658688 15.761719 19.679688 C 15.423519 19.763688 15.248047 20.006722 15.248047 20.357422 L 15.248047 21.498047 C 15.248047 21.848747 15.423519 22.005975 15.761719 21.921875 C 16.099919 21.837875 16.275391 21.592887 16.275391 21.242188 L 16.275391 20.951172 L 15.949219 21.033203 L 15.949219 21.345703 C 15.949219 21.502303 15.881089 21.576316 15.771484 21.603516 C 15.661882 21.630516 15.59375 21.590194 15.59375 21.433594 L 15.59375 20.25 C 15.59375 20.0934 15.66188 20.017534 15.771484 19.990234 C 15.881086 19.963234 15.949219 20.006409 15.949219 20.162109 L 15.949219 20.396484 L 16.275391 20.316406 L 16.275391 20.103516 C 16.275391 19.840491 16.176374 19.685258 15.984375 19.660156 z M 16.982422 19.689453 C 17.092024 19.662453 17.160156 19.705628 17.160156 19.861328 L 17.160156 21.044922 C 17.160156 21.201522 17.092026 21.277387 16.982422 21.304688 C 16.87282 21.331688 16.804687 21.289612 16.804688 21.132812 L 16.804688 19.949219 C 16.804688 19.792619 16.872817 19.716653 16.982422 19.689453 z M 14.792969 19.957031 C 14.729703 19.948491 14.656033 19.953784 14.572266 19.974609 C 14.237197 20.057609 14.064453 20.301644 14.064453 20.652344 C 14.064453 21.278644 14.738281 21.195584 14.738281 21.646484 C 14.738281 21.803084 14.668199 21.877097 14.558594 21.904297 C 14.448992 21.931297 14.380859 21.892928 14.380859 21.736328 L 14.380859 21.578125 L 14.054688 21.660156 L 14.054688 21.794922 C 14.054688 22.145622 14.230158 22.30275 14.568359 22.21875 C 14.906559 22.13475 15.082031 21.889762 15.082031 21.539062 C 15.082031 20.912763 14.410156 20.995822 14.410156 20.544922 C 14.410156 20.388322 14.472429 20.312356 14.582031 20.285156 C 14.691633 20.258156 14.753906 20.302784 14.753906 20.458984 L 14.753906 20.550781 L 15.080078 20.46875 L 15.080078 20.400391 C 15.080078 20.137366 14.982766 19.982653 14.792969 19.957031 z M 13.859375 20.177734 L 13.515625 20.263672 L 13.515625 22.455078 L 13.859375 22.369141 L 13.859375 20.177734 z M 13.007812 20.423828 C 12.943519 20.416417 12.867366 20.423912 12.78125 20.445312 L 12.236328 20.580078 L 12.236328 22.773438 L 12.78125 22.636719 C 13.125713 22.550719 13.294922 22.31955 13.294922 21.96875 L 13.294922 20.859375 C 13.294922 20.59635 13.200692 20.446061 13.007812 20.423828 z M 12.775391 20.759766 C 12.884993 20.732766 12.951172 20.772387 12.951172 20.929688 L 12.951172 22.068359 C 12.951172 22.224959 12.884994 22.298872 12.775391 22.326172 L 12.582031 22.373047 L 12.582031 20.808594 L 12.775391 20.759766 z " font-family="Bebas Neue" font-size="3.131" font-weight="700" letter-spacing="0" transform="translate(0 1020.362)" word-spacing="0"/></g></svg>