<svg xmlns="http://www.w3.org/2000/svg" width="32" height="32" viewBox="0 0 32 32"><g transform="translate(0 -1020.362)"><path fill="#fc0" d="m 6.76924,1024.6699 18.46153,0 0,3.6922 -1.23076,0 0,2.4617 1.23076,0 0,12.3077 -9.23077,4.9229 -9.23076,-4.9229 0,-4.6155 0,-7.6922 1.23076,0 0,-2.4617 -1.23076,0 z"/><path style="line-height:125%;-inkscape-font-specification:'Bebas Neue Bold';text-align:center" fill="#d31206" d="M 21.933594 6.7675781 C 21.565734 6.7675781 21.376953 6.9867469 21.376953 7.3730469 L 21.376953 7.375 C 21.376953 8.0627 22.115234 8.1553906 22.115234 8.6503906 C 22.115234 8.8215906 22.040292 8.8847656 21.919922 8.8847656 C 21.799542 8.8847656 21.722656 8.8239906 21.722656 8.6503906 L 21.722656 8.4785156 L 21.365234 8.4785156 L 21.365234 8.625 C 21.365234 9.0101 21.558408 9.2304688 21.929688 9.2304688 C 22.300988 9.2304688 22.494141 9.0111 22.494141 8.625 C 22.494141 7.9372 21.753906 7.8445094 21.753906 7.3496094 C 21.753906 7.1783094 21.823069 7.1132812 21.943359 7.1132812 C 22.063739 7.1132812 22.132812 7.1773094 22.132812 7.3496094 L 22.132812 7.4492188 L 22.490234 7.4492188 L 22.490234 7.3730469 C 22.490234 6.9879469 22.301444 6.7675781 21.933594 6.7675781 z M 9.5058594 6.796875 L 9.8789062 9.203125 L 10.441406 9.203125 L 10.8125 6.796875 L 10.466797 6.796875 L 10.177734 8.7597656 L 9.8886719 6.796875 L 9.5058594 6.796875 z M 11.1875 6.796875 L 10.802734 9.203125 L 11.150391 9.203125 L 11.214844 8.7675781 L 11.679688 8.7675781 L 11.744141 9.203125 L 12.126953 9.203125 L 11.740234 6.796875 L 11.1875 6.796875 z M 12.298828 6.796875 L 12.298828 9.203125 L 13.298828 9.203125 L 13.298828 8.859375 L 12.677734 8.859375 L 12.677734 6.796875 L 12.298828 6.796875 z M 13.466797 6.796875 L 13.466797 9.203125 L 14.498047 9.203125 L 14.498047 8.859375 L 13.845703 8.859375 L 13.845703 8.1542969 L 14.365234 8.1542969 L 14.365234 7.8105469 L 13.845703 7.8105469 L 13.845703 7.140625 L 14.498047 7.140625 L 14.498047 6.796875 L 13.466797 6.796875 z M 14.726562 6.796875 L 14.726562 9.203125 L 15.066406 9.203125 L 15.066406 7.4609375 L 15.537109 9.203125 L 15.925781 9.203125 L 15.925781 6.796875 L 15.589844 6.796875 L 15.589844 8.2382812 L 15.201172 6.796875 L 14.726562 6.796875 z M 16.089844 6.796875 L 16.089844 7.140625 L 16.486328 7.140625 L 16.486328 9.203125 L 16.863281 9.203125 L 16.863281 7.140625 L 17.259766 7.140625 L 17.259766 6.796875 L 16.089844 6.796875 z M 17.421875 6.796875 L 17.421875 9.203125 L 17.800781 9.203125 L 17.800781 6.796875 L 17.421875 6.796875 z M 18.070312 6.796875 L 18.070312 9.203125 L 18.410156 9.203125 L 18.410156 7.4609375 L 18.880859 9.203125 L 19.269531 9.203125 L 19.269531 6.796875 L 18.933594 6.796875 L 18.933594 8.2382812 L 18.544922 6.796875 L 18.070312 6.796875 z M 19.544922 6.796875 L 19.544922 9.203125 L 20.576172 9.203125 L 20.576172 8.859375 L 19.921875 8.859375 L 19.921875 8.1542969 L 20.441406 8.1542969 L 20.441406 7.8105469 L 19.921875 7.8105469 L 19.921875 7.140625 L 20.576172 7.140625 L 20.576172 6.796875 L 19.544922 6.796875 z M 20.796875 6.796875 L 20.847656 7.5058594 L 21.105469 7.5058594 L 21.160156 6.796875 L 20.796875 6.796875 z M 11.445312 7.2226562 L 11.626953 8.4394531 L 11.263672 8.4394531 L 11.445312 7.2226562 z M 12.429688 10.458984 C 12.061848 10.458984 11.871094 10.6786 11.871094 11.0625 L 11.871094 11.066406 C 11.871094 11.754006 12.611328 11.846397 12.611328 12.341797 C 12.611328 12.512997 12.536356 12.576172 12.416016 12.576172 C 12.295646 12.576172 12.21875 12.515397 12.21875 12.341797 L 12.21875 12.171875 L 11.861328 12.171875 L 11.861328 12.318359 C 11.861328 12.703259 12.054521 12.921875 12.425781 12.921875 C 12.797061 12.921875 12.990234 12.702159 12.990234 12.318359 C 12.990234 11.630659 12.25 11.537869 12.25 11.042969 C 12.25 10.869969 12.319143 10.804688 12.439453 10.804688 C 12.559823 10.804688 12.628906 10.870569 12.628906 11.042969 L 12.628906 11.140625 L 12.986328 11.140625 L 12.986328 11.0625 C 12.986328 10.6776 12.797527 10.458984 12.429688 10.458984 z M 16.292969 10.460938 C 15.921689 10.460938 15.730469 10.679906 15.730469 11.066406 L 15.730469 12.318359 C 15.730469 12.703259 15.921689 12.923828 16.292969 12.923828 C 16.664239 12.923828 16.857422 12.702259 16.857422 12.318359 L 16.857422 11.998047 L 16.5 11.998047 L 16.5 12.341797 C 16.5 12.512997 16.424927 12.576172 16.304688 12.576172 C 16.184307 12.576172 16.107422 12.515397 16.107422 12.341797 L 16.107422 11.042969 C 16.107422 10.870069 16.184328 10.804688 16.304688 10.804688 C 16.425068 10.804688 16.5 10.870569 16.5 11.042969 L 16.5 11.300781 L 16.857422 11.300781 L 16.857422 11.066406 C 16.857422 10.681306 16.664249 10.460938 16.292969 10.460938 z M 13.203125 10.490234 L 13.203125 12.896484 L 13.580078 12.896484 L 13.580078 11.992188 L 13.759766 11.992188 C 14.137916 11.992188 14.322266 11.780484 14.322266 11.396484 L 14.322266 11.083984 C 14.322266 10.698884 14.137916 10.490234 13.759766 10.490234 L 13.203125 10.490234 z M 14.498047 10.490234 L 14.498047 12.896484 L 15.529297 12.896484 L 15.529297 12.552734 L 14.876953 12.552734 L 14.876953 11.847656 L 15.396484 11.847656 L 15.396484 11.503906 L 14.876953 11.503906 L 14.876953 10.833984 L 15.529297 10.833984 L 15.529297 10.490234 L 14.498047 10.490234 z M 17.089844 10.490234 L 17.089844 12.896484 L 17.46875 12.896484 L 17.46875 10.490234 L 17.089844 10.490234 z M 18.027344 10.490234 L 17.642578 12.896484 L 17.988281 12.896484 L 18.054688 12.458984 L 18.517578 12.458984 L 18.583984 12.896484 L 18.964844 12.896484 L 18.580078 10.490234 L 18.027344 10.490234 z M 19.138672 10.490234 L 19.138672 12.896484 L 20.138672 12.896484 L 20.138672 12.552734 L 19.515625 12.552734 L 19.515625 10.490234 L 19.138672 10.490234 z M 13.580078 10.832031 L 13.759766 10.832031 L 13.759766 10.833984 C 13.880146 10.833984 13.945312 10.887947 13.945312 11.060547 L 13.945312 11.419922 C 13.945312 11.591122 13.880076 11.646484 13.759766 11.646484 L 13.580078 11.646484 L 13.580078 10.832031 z M 18.285156 10.916016 L 18.466797 12.132812 L 18.101562 12.132812 L 18.285156 10.916016 z " font-family="Bebas Neue" font-size="2.576" font-weight="700" letter-spacing="0" text-anchor="middle" transform="translate(0 1020.362)" word-spacing="0"/><path fill="#d31206" fill-rule="evenodd" d="m 15.21551,1041.5317 c -0.25365,0 -0.50733,0.096 -0.70166,0.2916 -0.38863,0.3884 -0.38865,1.0145 0,1.4035 l 0.0737,0.075 1.41237,1.4303 1.41236,-1.4303 0.0737,-0.075 c 0.38864,-0.389 0.38864,-1.0151 0,-1.4035 -0.38863,-0.3886 -1.01468,-0.3886 -1.40333,0 l -0.0828,0.082 -0.0828,-0.082 c -0.19432,-0.1948 -0.44802,-0.2916 -0.70167,-0.2916 z"/><path fill="#a80e05" fill-rule="evenodd" d="M10.95162 1041.9009c-.19518 0-.39039.075-.53991.2239-.29905.2991-.29905.7808 0 1.0799l.0568.056 1.08677 1.1008 1.08676-1.1008.0568-.056c.29905-.2991.29905-.7808 0-1.0799-.29904-.2989-.78075-.2989-1.07981 0l-.0638.065-.0638-.065c-.14955-.1485-.34472-.2239-.53991-.2239zM19.70406 1041.9009c-.19517 0-.39039.075-.53991.2239-.29904.2991-.29906.7808 0 1.0799l.0568.056 1.08678 1.1008 1.08676-1.1008.0568-.056c.29906-.2991.29904-.7808 0-1.0799-.29903-.2989-.78077-.2989-1.0798 0l-.0638.065-.0638-.065c-.14956-.1485-.34473-.2239-.53992-.2239z"/><path fill="#a80e05" d="M0 1035.0965l5.4219 0 0 6.804-5.4219 0 1.94452-3.4022zM32.000005 1035.0965l-5.421895 0 0 6.804 5.421895 0-1.944495-3.4022z"/><path fill="#d31206" d="m 3.98678,1033.9245 0,6.8054 3.69232,0 16.64183,0 3.692299,0 0,-6.8054 -3.692299,0 -16.64183,0 -3.69232,0 z"/><path style="line-height:125%;-inkscape-font-specification:'Bebas Neue Bold'" fill="#fc0" d="M 12.578125 15.207031 C 12.053842 15.207031 11.785156 15.521512 11.785156 16.070312 C 11.785156 17.050213 12.837891 17.183072 12.837891 17.888672 C 12.837891 18.133672 12.730089 18.220703 12.558594 18.220703 C 12.387099 18.220703 12.279297 18.133872 12.279297 17.888672 L 12.279297 17.642578 L 11.769531 17.642578 L 11.769531 17.853516 C 11.769531 18.402316 12.043082 18.716797 12.572266 18.716797 C 13.101449 18.716797 13.376953 18.402316 13.376953 17.853516 C 13.376953 16.873516 12.324219 16.740656 12.324219 16.035156 C 12.324219 15.790156 12.420306 15.697266 12.591797 15.697266 C 12.763291 15.697266 12.861328 15.790056 12.861328 16.035156 L 12.861328 16.177734 L 13.371094 16.177734 L 13.371094 16.070312 C 13.371094 15.521512 13.102409 15.207031 12.578125 15.207031 z M 14.439453 15.207031 C 13.91027 15.207031 13.636719 15.521512 13.636719 16.070312 L 13.636719 17.853516 C 13.636719 18.402316 13.91027 18.716797 14.439453 18.716797 C 14.968636 18.716797 15.244141 18.402316 15.244141 17.853516 L 15.244141 17.398438 L 14.734375 17.398438 L 14.734375 17.888672 C 14.734375 18.133672 14.626573 18.220703 14.455078 18.220703 C 14.283584 18.220703 14.175781 18.133872 14.175781 17.888672 L 14.175781 16.035156 C 14.175781 15.790156 14.283584 15.697266 14.455078 15.697266 C 14.626573 15.697266 14.734375 15.790056 14.734375 16.035156 L 14.734375 16.404297 L 15.244141 16.404297 L 15.244141 16.070312 C 15.244141 15.521512 14.968636 15.207031 14.439453 15.207031 z M 16.349609 15.207031 C 15.820426 15.207031 15.53125 15.521512 15.53125 16.070312 L 15.53125 17.853516 C 15.53125 18.402316 15.820426 18.716797 16.349609 18.716797 C 16.878792 18.716797 17.167969 18.402316 17.167969 17.853516 L 17.167969 16.070312 C 17.167969 15.521512 16.878792 15.207031 16.349609 15.207031 z M 8.9238281 15.248047 L 8.9238281 18.677734 L 9.7773438 18.677734 C 10.316326 18.677734 10.580078 18.378878 10.580078 17.830078 L 10.580078 16.095703 C 10.580078 15.546903 10.316326 15.248047 9.7773438 15.248047 L 8.9238281 15.248047 z M 10.923828 15.248047 L 10.923828 18.677734 L 11.462891 18.677734 L 11.462891 15.248047 L 10.923828 15.248047 z M 17.494141 15.248047 L 17.494141 17.859375 C 17.494141 18.408175 17.767692 18.720703 18.296875 18.720703 C 18.826058 18.720703 19.101563 18.408175 19.101562 17.859375 L 19.101562 15.248047 L 18.591797 15.248047 L 18.591797 17.892578 C 18.591797 18.137578 18.483994 18.226562 18.3125 18.226562 C 18.141005 18.226562 18.033203 18.137778 18.033203 17.892578 L 18.033203 15.248047 L 17.494141 15.248047 z M 19.464844 15.248047 L 19.464844 18.677734 L 19.951172 18.677734 L 19.951172 16.193359 L 20.621094 18.677734 L 21.175781 18.677734 L 21.175781 15.248047 L 20.695312 15.248047 L 20.695312 17.300781 L 20.142578 15.248047 L 19.464844 15.248047 z M 21.410156 15.248047 L 21.410156 15.736328 L 21.972656 15.736328 L 21.972656 18.677734 L 22.511719 18.677734 L 22.511719 15.736328 L 23.076172 15.736328 L 23.076172 15.248047 L 21.410156 15.248047 z M 16.349609 15.697266 C 16.521104 15.697266 16.628906 15.790056 16.628906 16.035156 L 16.628906 17.888672 C 16.628906 18.133672 16.521104 18.226562 16.349609 18.226562 C 16.178115 18.226562 16.070312 18.133772 16.070312 17.888672 L 16.070312 16.035156 C 16.070312 15.790156 16.178115 15.697266 16.349609 15.697266 z M 9.4628906 15.736328 L 9.7675781 15.736328 C 9.9390726 15.736328 10.041016 15.825112 10.041016 16.070312 L 10.041016 17.853516 C 10.041016 18.098516 9.9390726 18.1875 9.7675781 18.1875 L 9.4628906 18.1875 L 9.4628906 15.736328 z " font-family="Bebas Neue" font-weight="700" letter-spacing="0" transform="translate(0 1020.362)" word-spacing="0"/></g></svg>