<svg xmlns="http://www.w3.org/2000/svg" width="32" height="32" viewBox="0 0 32 32"><g transform="translate(0 -1020.362)"><rect width="24.889" height="7.158" x="3.556" y="1032.783" fill="#ff1e55" fill-rule="evenodd" rx=".402" ry=".402"/><path fill="#fc0" d="m 0,1033.879 32,0 -1.777778,2.4888 1.777778,2.4889 -32,0 1.777778,-2.4889 z"/><path fill="#fff" d="M1.244444 1034.5902c-.09819 0-.177778.08-.177778.1778 0 .098.07959.1777.177778.1777.09818 0 .177778-.08.177778-.1777 0-.098-.07959-.1778-.177778-.1778zm.8679739 0c-.09819 0-.177778.08-.177778.1778 0 .098.07959.1777.177778.1777.09818 0 .177778-.08.177778-.1777 0-.098-.07959-.1778-.177778-.1778zm.8679739 0c-.09819 0-.177778.08-.177778.1778 0 .098.07959.1777.177778.1777.09818 0 .1777779-.08.1777779-.1777 0-.098-.07959-.1778-.1777779-.1778zm.8679739 0c-.09819 0-.177778.08-.177778.1778 0 .098.07959.1777.177778.1777.09818 0 .1777779-.08.1777779-.1777 0-.098-.07959-.1778-.1777779-.1778zm.8679739 0c-.09819 0-.177778.08-.177778.1778 0 .098.07959.1777.177778.1777.09818 0 .1777779-.08.1777779-.1777 0-.098-.07959-.1778-.1777779-.1778zm.8679739 0c-.09819 0-.177778.08-.177778.1778 0 .098.07959.1777.177778.1777.09818 0 .1777778-.08.1777778-.1777 0-.098-.07959-.1778-.1777778-.1778zm.8679739 0c-.09819 0-.177778.08-.177778.1778 0 .098.07959.1777.177778.1777.09818 0 .1777778-.08.1777778-.1777 0-.098-.07959-.1778-.1777778-.1778zm.8679739 0c-.09819 0-.177778.08-.177778.1778 0 .098.07959.1777.177778.1777.09818 0 .1777778-.08.1777778-.1777 0-.098-.07959-.1778-.1777778-.1778zm.8679739 0c-.09819 0-.177778.08-.177778.1778 0 .098.07959.1777.177778.1777.09818 0 .1777777-.08.1777777-.1777 0-.098-.07959-.1778-.1777777-.1778zm.8679739 0c-.09819 0-.177778.08-.177778.1778 0 .098.07959.1777.177778.1777.09818 0 .1777777-.08.1777777-.1777 0-.098-.07959-.1778-.1777777-.1778zm.8679739 0c-.09819 0-.177778.08-.177778.1778 0 .098.07959.1777.177778.1777.09818 0 .177778-.08.177778-.1777 0-.098-.07959-.1778-.177778-.1778zm.867974 0c-.09819 0-.177778.08-.177778.1778 0 .098.07959.1777.177778.1777.09818 0 .177778-.08.177778-.1777 0-.098-.07959-.1778-.177778-.1778zm.867974 0c-.09819 0-.177778.08-.177778.1778 0 .098.07959.1777.177778.1777.09818 0 .177777-.08.177777-.1777 0-.098-.07959-.1778-.177777-.1778zm.867974 0c-.09819 0-.177778.08-.177778.1778 0 .098.07959.1777.177778.1777.09818 0 .177777-.08.177777-.1777 0-.098-.07959-.1778-.177777-.1778zm.867974 0c-.09819 0-.177778.08-.177778.1778 0 .098.07959.1777.177778.1777.09818 0 .177777-.08.177777-.1777 0-.098-.07959-.1778-.177777-.1778zm.867973 0c-.09819 0-.177778.08-.177778.1778 0 .098.07959.1777.177778.1777.09818 0 .177778-.08.177778-.1777 0-.098-.07959-.1778-.177778-.1778zm.867974 0c-.09819 0-.177778.08-.177778.1778 0 .098.07959.1777.177778.1777.09818 0 .177778-.08.177778-.1777 0-.098-.07959-.1778-.177778-.1778zm.867974 0c-.09819 0-.177778.08-.177778.1778 0 .098.07959.1777.177778.1777.09818 0 .177778-.08.177778-.1777 0-.098-.07959-.1778-.177778-.1778zm.867974 0c-.09819 0-.177778.08-.177778.1778 0 .098.07959.1777.177778.1777.09818 0 .177778-.08.177778-.1777 0-.098-.07959-.1778-.177778-.1778zm.867974 0c-.09819 0-.177778.08-.177778.1778 0 .098.07959.1777.177778.1777.09818 0 .177777-.08.177777-.1777 0-.098-.07959-.1778-.177777-.1778zm.867974 0c-.09819 0-.177778.08-.177778.1778 0 .098.07959.1777.177778.1777.09818 0 .177777-.08.177777-.1777 0-.098-.07959-.1778-.177777-.1778zm.867974 0c-.09819 0-.177778.08-.177778.1778 0 .098.07959.1777.177778.1777.09818 0 .177777-.08.177777-.1777 0-.098-.07959-.1778-.177777-.1778zm.867974 0c-.09819 0-.177778.08-.177778.1778 0 .098.07959.1777.177778.1777.09818 0 .177777-.08.177777-.1777 0-.098-.07959-.1778-.177777-.1778zm.867974 0c-.09819 0-.177778.08-.177778.1778 0 .098.07959.1777.177778.1777.09818 0 .177777-.08.177777-.1777 0-.098-.07959-.1778-.177777-.1778zm.867974 0c-.09819 0-.177778.08-.177778.1778 0 .098.07959.1777.177778.1777.09818 0 .177777-.08.177777-.1777 0-.098-.07959-.1778-.177777-.1778zm.867973 0c-.09819 0-.177778.08-.177778.1778 0 .098.07959.1777.177778.1777.09818 0 .177778-.08.177778-.1777 0-.098-.07959-.1778-.177778-.1778zm.867974 0c-.09819 0-.177778.08-.177778.1778 0 .098.07959.1777.177778.1777.09818 0 .177778-.08.177778-.1777 0-.098-.07959-.1778-.177778-.1778zm.867974 0c-.09819 0-.177778.08-.177778.1778 0 .098.07959.1777.177778.1777.09818 0 .177777-.08.177777-.1777 0-.098-.07959-.1778-.177777-.1778zm.867974 0c-.09819 0-.177778.08-.177778.1778 0 .098.07959.1777.177778.1777.09818 0 .177777-.08.177777-.1777 0-.098-.07959-.1778-.177777-.1778zm.867974 0c-.09819 0-.177778.08-.177778.1778 0 .098.07959.1777.177778.1777.09818 0 .177777-.08.177777-.1777 0-.098-.07959-.1778-.177777-.1778zm.867974 0c-.09819 0-.177778.08-.177778.1778 0 .098.07959.1777.177778.1777.09818 0 .177777-.08.177777-.1777 0-.098-.07959-.1778-.177777-.1778zm.867974 0c-.09819 0-.177778.08-.177778.1778 0 .098.07959.1777.177778.1777.09818 0 .177777-.08.177777-.1777 0-.098-.07959-.1778-.177777-.1778zm.867974 0c-.09819 0-.177778.08-.177778.1778 0 .098.07959.1777.177778.1777.09818 0 .177777-.08.177777-.1777 0-.098-.07959-.1778-.177777-.1778zm.867974 0c-.09819 0-.177778.08-.177778.1778 0 .098.07959.1777.177778.1777.09818 0 .177777-.08.177777-.1777 0-.098-.07959-.1778-.177777-.1778zm.867974 0c-.09819 0-.177778.08-.177778.1778 0 .098.07959.1777.177778.1777.09818 0 .177776-.08.177777-.1777-.000001-.098-.07959-.1778-.177777-.1778zM1.244444 1037.8002c-.09819 0-.177778.08-.177778.1777 0 .098.07959.1778.177778.1778.09818 0 .177778-.08.177778-.1778 0-.098-.07959-.1777-.177778-.1777zm.8679739 0c-.09819 0-.177778.08-.177778.1777 0 .098.07959.1778.177778.1778.09818 0 .177778-.08.177778-.1778 0-.098-.07959-.1777-.177778-.1777zm.8679739 0c-.09819 0-.177778.08-.177778.1777 0 .098.07959.1778.177778.1778.09818 0 .1777779-.08.1777779-.1778 0-.098-.07959-.1777-.1777779-.1777zm.8679739 0c-.09819 0-.177778.08-.177778.1777 0 .098.07959.1778.177778.1778.09818 0 .1777779-.08.1777779-.1778 0-.098-.07959-.1777-.1777779-.1777zm.8679739 0c-.09819 0-.177778.08-.177778.1777 0 .098.07959.1778.177778.1778.09818 0 .1777779-.08.1777779-.1778 0-.098-.07959-.1777-.1777779-.1777zm.8679739 0c-.09819 0-.177778.08-.177778.1777 0 .098.07959.1778.177778.1778.09818 0 .1777778-.08.1777778-.1778 0-.098-.07959-.1777-.1777778-.1777zm.8679739 0c-.09819 0-.177778.08-.177778.1777 0 .098.07959.1778.177778.1778.09818 0 .1777778-.08.1777778-.1778 0-.098-.07959-.1777-.1777778-.1777zm.8679739 0c-.09819 0-.177778.08-.177778.1777 0 .098.07959.1778.177778.1778.09818 0 .1777778-.08.1777778-.1778 0-.098-.07959-.1777-.1777778-.1777zm.8679739 0c-.09819 0-.177778.08-.177778.1777 0 .098.07959.1778.177778.1778.09818 0 .1777777-.08.1777777-.1778 0-.098-.07959-.1777-.1777777-.1777zm.8679739 0c-.09819 0-.177778.08-.177778.1777 0 .098.07959.1778.177778.1778.09818 0 .1777777-.08.1777777-.1778 0-.098-.07959-.1777-.1777777-.1777zm.8679739 0c-.09819 0-.177778.08-.177778.1777 0 .098.07959.1778.177778.1778.09818 0 .177778-.08.177778-.1778 0-.098-.07959-.1777-.177778-.1777zm.867974 0c-.09819 0-.177778.08-.177778.1777 0 .098.07959.1778.177778.1778.09818 0 .177778-.08.177778-.1778 0-.098-.07959-.1777-.177778-.1777zm.867974-.0001c-.09819 0-.177778.08-.177778.1777 0 .098.07959.1778.177778.1778.09818 0 .177777-.08.177777-.1778 0-.098-.07959-.1777-.177777-.1777zm.867974.0001c-.09819 0-.177778.08-.177778.1777 0 .098.07959.1778.177778.1778.09818 0 .177777-.08.177777-.1778 0-.098-.07959-.1777-.177777-.1777zm.867974 0c-.09819 0-.177778.08-.177778.1777 0 .098.07959.1778.177778.1778.09818 0 .177777-.08.177777-.1778 0-.098-.07959-.1777-.177777-.1777zm.867973 0c-.09819 0-.177778.08-.177778.1777 0 .098.07959.1778.177778.1778.09818 0 .177778-.08.177778-.1778 0-.098-.07959-.1777-.177778-.1777zm.867974 0c-.09819 0-.177778.08-.177778.1777 0 .098.07959.1778.177778.1778.09818 0 .177778-.08.177778-.1778 0-.098-.07959-.1777-.177778-.1777zm.867974 0c-.09819 0-.177778.08-.177778.1777 0 .098.07959.1778.177778.1778.09818 0 .177778-.08.177778-.1778 0-.098-.07959-.1777-.177778-.1777zm.867974 0c-.09819 0-.177778.08-.177778.1777 0 .098.07959.1778.177778.1778.09818 0 .177778-.08.177778-.1778 0-.098-.07959-.1777-.177778-.1777zm.867974 0c-.09819 0-.177778.08-.177778.1777 0 .098.07959.1778.177778.1778.09818 0 .177777-.08.177777-.1778 0-.098-.07959-.1777-.177777-.1777zm.867974 0c-.09819 0-.177778.08-.177778.1777 0 .098.07959.1778.177778.1778.09818 0 .177777-.08.177777-.1778 0-.098-.07959-.1777-.177777-.1777zm.867974 0c-.09819 0-.177778.08-.177778.1777 0 .098.07959.1778.177778.1778.09818 0 .177777-.08.177777-.1778 0-.098-.07959-.1777-.177777-.1777zm.867974 0c-.09819 0-.177778.08-.177778.1777 0 .098.07959.1778.177778.1778.09818 0 .177777-.08.177777-.1778 0-.098-.07959-.1777-.177777-.1777zm.867974 0c-.09819 0-.177778.08-.177778.1777 0 .098.07959.1778.177778.1778.09818 0 .177777-.08.177777-.1778 0-.098-.07959-.1777-.177777-.1777zm.867974 0c-.09819 0-.177778.08-.177778.1777 0 .098.07959.1778.177778.1778.09818 0 .177777-.08.177777-.1778 0-.098-.07959-.1777-.177777-.1777zm.867973 0c-.09819 0-.177778.08-.177778.1777 0 .098.07959.1778.177778.1778.09818 0 .177778-.08.177778-.1778 0-.098-.07959-.1777-.177778-.1777zm.867974 0c-.09819 0-.177778.08-.177778.1777 0 .098.07959.1778.177778.1778.09818 0 .177778-.08.177778-.1778 0-.098-.07959-.1777-.177778-.1777zm.867974 0c-.09819 0-.177778.08-.177778.1777 0 .098.07959.1778.177778.1778.09818 0 .177777-.08.177777-.1778 0-.098-.07959-.1777-.177777-.1777zm.867974 0c-.09819 0-.177778.08-.177778.1777 0 .098.07959.1778.177778.1778.09818 0 .177777-.08.177777-.1778 0-.098-.07959-.1777-.177777-.1777zm.867974 0c-.09819 0-.177778.08-.177778.1777 0 .098.07959.1778.177778.1778.09818 0 .177777-.08.177777-.1778 0-.098-.07959-.1777-.177777-.1777zm.867974 0c-.09819 0-.177778.08-.177778.1777 0 .098.07959.1778.177778.1778.09818 0 .177777-.08.177777-.1778 0-.098-.07959-.1777-.177777-.1777zm.867974 0c-.09819 0-.177778.08-.177778.1777 0 .098.07959.1778.177778.1778.09818 0 .177777-.08.177777-.1778 0-.098-.07959-.1777-.177777-.1777zm.867974 0c-.09819 0-.177778.08-.177778.1777 0 .098.07959.1778.177778.1778.09818 0 .177777-.08.177777-.1778 0-.098-.07959-.1777-.177777-.1777zm.867974 0c-.09819 0-.177778.08-.177778.1777 0 .098.07959.1778.177778.1778.09818 0 .177777-.08.177777-.1778 0-.098-.07959-.1777-.177777-.1777zm.867974 0c-.09819 0-.177778.08-.177778.1777 0 .098.07959.1778.177778.1778.09818 0 .177776-.08.177777-.1778-.000001-.098-.07959-.1777-.177777-.1777z"/><path fill="#ff1e55" d="m 17.45504,1041.7923 c 0.0229,-0.01 -0.659337,-0.4652 -0.635946,-0.4691 0.02339,-0 -0.475062,0.6502 -0.451405,0.6487 0.02366,-0 -0.555902,-0.585 -0.532207,-0.5842 0.0237,8e-4 -0.592778,0.545 -0.569274,0.5481 0.02351,0 -0.431103,-0.6822 -0.408015,-0.6768 0.02309,0.01 -0.687715,0.4189 -0.665266,0.4265 0.02245,0.01 -0.289738,-0.7531 -0.268144,-0.7433 0.02159,0.01 -0.756224,0.2767 -0.735693,0.2885 0.02053,0.012 -0.137238,-0.7952 -0.117968,-0.7814 0.01927,0.014 -0.79567,0.1238 -0.777846,0.1395 0.01782,0.016 0.02053,-0.8067 0.03674,-0.7894 0.01621,0.017 -0.804541,-0.034 -0.790108,-0.015 0.01443,0.019 0.17752,-0.7872 0.190039,-0.767 0.01252,0.02 -0.782493,-0.1901 -0.772008,-0.1689 0.01049,0.021 0.327683,-0.7374 0.336034,-0.7152 0.0084,0.022 -0.730374,-0.3391 -0.724238,-0.3162 0.0061,0.023 0.465252,-0.6593 0.469114,-0.6359 0.0039,0.023 -0.650187,-0.4751 -0.648637,-0.4515 0.0016,0.024 0.584944,-0.5559 0.584168,-0.5322 -7.76e-4,0.024 -0.545014,-0.5927 -0.548109,-0.5692 -0.0031,0.024 0.682155,-0.4311 0.676772,-0.4081 -0.0054,0.023 -0.418897,-0.6877 -0.426518,-0.6652 -0.0076,0.022 0.753152,-0.2898 0.743368,-0.2682 -0.0098,0.022 -0.276682,-0.7562 -0.288535,-0.7357 -0.01185,0.021 0.795205,-0.1372 0.781396,-0.1179 -0.01381,0.019 -0.123833,-0.7957 -0.139465,-0.7779 -0.01563,0.018 0.8067,0.021 0.789396,0.037 -0.0173,0.016 0.03378,-0.8046 0.01497,-0.7901 -0.01881,0.014 0.787193,0.1775 0.76706,0.19 -0.02013,0.012 0.190084,-0.7825 0.168821,-0.772 -0.02126,0.011 0.737435,0.3277 0.715247,0.336 -0.02219,0.01 0.339087,-0.7303 0.316188,-0.7242 -0.0229,0.01 0.659337,0.4652 0.635946,0.4691 -0.02339,0 0.475061,-0.6502 0.451405,-0.6486 -0.02366,0 0.555901,0.5849 0.532207,0.5841 -0.0237,-7e-4 0.592778,-0.545 0.569273,-0.5481 -0.0235,-0 0.431104,0.6822 0.408016,0.6768 -0.02309,-0.01 0.687715,-0.4189 0.665266,-0.4265 -0.02245,-0.01 0.289738,0.7531 0.268144,0.7434 -0.0216,-0.01 0.756223,-0.2767 0.735692,-0.2886 -0.02053,-0.012 0.137239,0.7952 0.117968,0.7814 -0.01927,-0.014 0.795671,-0.1238 0.777847,-0.1395 -0.01782,-0.016 -0.02053,0.8067 -0.03674,0.7894 -0.01621,-0.017 0.804541,0.034 0.790109,0.015 -0.01443,-0.019 -0.17752,0.7872 -0.190039,0.7671 -0.01252,-0.02 0.782493,0.1901 0.772007,0.1688 -0.01048,-0.021 -0.327682,0.7374 -0.336033,0.7152 -0.0084,-0.022 0.730374,0.3391 0.724238,0.3162 -0.0061,-0.023 -0.465253,0.6594 -0.469115,0.636 -0.0039,-0.023 0.650188,0.475 0.648637,0.4514 -0.0016,-0.024 -0.584943,0.5559 -0.584167,0.5322 7.75e-4,-0.024 0.545014,0.5928 0.548108,0.5693 0.0031,-0.024 -0.682154,0.4311 -0.676771,0.408 0.0054,-0.023 0.418897,0.6877 0.426517,0.6652 0.0076,-0.022 -0.753151,0.2898 -0.743367,0.2682 0.0098,-0.022 0.276681,0.7562 0.288535,0.7357 0.01185,-0.021 -0.795205,0.1372 -0.781396,0.1179 0.01381,-0.019 0.123833,0.7957 0.139464,0.7779 0.01563,-0.018 -0.806699,-0.021 -0.789396,-0.037 0.0173,-0.016 -0.03377,0.8046 -0.01497,0.7902 0.01881,-0.014 -0.787193,-0.1776 -0.767061,-0.1901 0.02013,-0.013 -0.190083,0.7825 -0.16882,0.772 0.02126,-0.01 -0.737435,-0.3277 -0.715247,-0.336 0.02219,-0.01 -0.339088,0.7304 -0.316188,0.7242 z"/><path fill="#fff" d="m 17.241212,1040.7886 c -0.08678,0 -0.157138,0.07 -0.157138,0.1571 0,0.087 0.07035,0.1571 0.157138,0.1571 0.08678,0 0.157138,-0.07 0.157138,-0.1571 0,-0.087 -0.07035,-0.1571 -0.157138,-0.1571 z m -0.940945,0.1219 c -0.08678,0 -0.157138,0.07 -0.157138,0.1571 0,0.087 0.07035,0.1571 0.157138,0.1571 0.08678,0 0.157138,-0.07 0.157138,-0.1571 0,-0.087 -0.07035,-0.1571 -0.157138,-0.1571 z m -0.93702,-0.057 c -0.08678,0 -0.157138,0.07 -0.157138,0.1571 0,0.087 0.07035,0.1571 0.157138,0.1571 0.08678,0 0.157138,-0.07 0.157138,-0.1571 0,-0.087 -0.07035,-0.1571 -0.157138,-0.1571 z m -0.902777,-0.2318 c -0.08678,0 -0.157138,0.07 -0.157138,0.1571 0,0.087 0.07035,0.1571 0.157138,0.1571 0.08678,0 0.157138,-0.07 0.157138,-0.1571 0,-0.087 -0.07035,-0.1571 -0.157138,-0.1571 z m -0.83527,-0.3947 c -0.08678,0 -0.157138,0.07 -0.157138,0.1571 0,0.087 0.07035,0.1571 0.157138,0.1571 0.08678,0 0.157138,-0.07 0.157138,-0.1571 0,-0.087 -0.07035,-0.1571 -0.157138,-0.1571 z m -0.740804,-0.5431 c -0.08678,0 -0.157138,0.07 -0.157138,0.1571 0,0.087 0.07035,0.1571 0.157138,0.1571 0.08678,0 0.157138,-0.07 0.157138,-0.1571 0,-0.087 -0.07035,-0.1571 -0.157138,-0.1571 z m -0.619932,-0.6686 c -0.08678,0 -0.157138,0.07 -0.157138,0.1571 0,0.087 0.07035,0.1571 0.157138,0.1571 0.08678,0 0.157138,-0.07 0.157138,-0.1571 0,-0.087 -0.07035,-0.1571 -0.157138,-0.1571 z m -0.478667,-0.7679 c -0.08678,0 -0.157138,0.07 -0.157138,0.1571 0,0.087 0.07035,0.1571 0.157138,0.1571 0.08678,0 0.157138,-0.07 0.157138,-0.1571 0,-0.087 -0.07035,-0.1571 -0.157138,-0.1571 z m -0.322355,-0.839 c -0.08678,0 -0.157138,0.07 -0.157138,0.1571 0,0.087 0.07035,0.1571 0.157138,0.1571 0.08678,0 0.157138,-0.07 0.157138,-0.1571 0,-0.087 -0.07035,-0.1571 -0.157138,-0.1571 z m -0.156653,-0.8788 c -0.08678,0 -0.157138,0.07 -0.157138,0.1571 0,0.087 0.07035,0.1571 0.157138,0.1571 0.08678,0 0.157138,-0.07 0.157138,-0.1571 0,-0.087 -0.07035,-0.1571 -0.157138,-0.1571 z m 0.01233,-0.8863 c -0.08678,0 -0.157138,0.07 -0.157138,0.1571 0,0.087 0.07035,0.1571 0.157138,0.1571 0.08678,0 0.157138,-0.07 0.157138,-0.1571 0,-0.087 -0.07035,-0.1571 -0.157138,-0.1571 z m 0.178333,-0.8617 c -0.08678,0 -0.157138,0.07 -0.157138,0.1571 0,0.087 0.07035,0.1571 0.157138,0.1571 0.08678,0 0.157138,-0.07 0.157138,-0.1571 0,-0.087 -0.07035,-0.1571 -0.157138,-0.1571 z m 0.335886,-0.8071 c -0.08678,0 -0.157138,0.07 -0.157138,0.1571 0,0.087 0.07035,0.1571 0.157138,0.1571 0.08678,0 0.157138,-0.07 0.157138,-0.1571 0,-0.087 -0.07035,-0.1571 -0.157138,-0.1571 z m 0.478789,-0.7239 c -0.08678,0 -0.157138,0.07 -0.157138,0.1571 0,0.087 0.07035,0.1571 0.157138,0.1571 0.08678,0 0.157138,-0.07 0.157138,-0.1571 0,-0.087 -0.07035,-0.1571 -0.157138,-0.1571 z m 0.602802,-0.6154 c -0.08678,0 -0.157138,0.07 -0.157138,0.1571 0,0.087 0.07035,0.1571 0.157138,0.1571 0.08678,0 0.157138,-0.07 0.157138,-0.1571 0,-0.087 -0.07035,-0.1571 -0.157138,-0.1571 z m 0.703546,-0.4876 c -0.08678,0 -0.157138,0.07 -0.157138,0.1571 0,0.087 0.07035,0.1571 0.157138,0.1571 0.08678,0 0.157138,-0.07 0.157138,-0.1571 0,-0.087 -0.07035,-0.1571 -0.157138,-0.1571 z m 0.778252,-0.3431 c -0.08678,0 -0.157138,0.07 -0.157138,0.1571 0,0.087 0.07035,0.1571 0.157138,0.1571 0.08678,0 0.157138,-0.07 0.157138,-0.1571 0,-0.087 -0.07035,-0.1571 -0.157138,-0.1571 z m 0.824062,-0.212 c -0.08678,0 -0.157138,0.07 -0.157138,0.1571 0,0.087 0.07035,0.1571 0.157138,0.1571 0.08678,0 0.157138,-0.07 0.157138,-0.1571 0,-0.087 -0.07035,-0.1571 -0.157138,-0.1571 z m 0.844194,-0.091 c -0.08678,0 -0.157138,0.07 -0.157138,0.1571 0,0.087 0.07035,0.1571 0.157138,0.1571 0.08678,0 0.157138,-0.07 0.157138,-0.1571 0,-0.087 -0.07035,-0.1571 -0.157138,-0.1571 z m 0.851274,0.072 c -0.08678,0 -0.157138,0.07 -0.157138,0.1571 0,0.087 0.07035,0.1571 0.157138,0.1571 0.08678,0 0.157138,-0.07 0.157138,-0.1571 0,-0.087 -0.07035,-0.1571 -0.157138,-0.1571 z m 0.828492,0.2324 c -0.08678,0 -0.157138,0.07 -0.157138,0.1571 0,0.087 0.07035,0.1571 0.157138,0.1571 0.08678,0 0.157138,-0.07 0.157138,-0.1571 0,-0.087 -0.07035,-0.1571 -0.157138,-0.1571 z m 0.774525,0.3878 c -0.08678,0 -0.157138,0.07 -0.157138,0.1571 0,0.087 0.07035,0.1571 0.157138,0.1571 0.08678,0 0.157138,-0.07 0.157138,-0.1571 0,-0.087 -0.07035,-0.1571 -0.157138,-0.1571 z m 0.692374,0.5312 c -0.08678,0 -0.157138,0.07 -0.157138,0.1571 0,0.087 0.07035,0.1571 0.157138,0.1571 0.08678,0 0.157138,-0.07 0.157138,-0.1571 0,-0.087 -0.07035,-0.1571 -0.157138,-0.1571 z m 0.583519,0.6568 c -0.08678,0 -0.157138,0.07 -0.157138,0.1571 0,0.087 0.07035,0.1571 0.157138,0.1571 0.08678,0 0.157138,-0.07 0.157138,-0.1571 0,-0.087 -0.07035,-0.1571 -0.157138,-0.1571 z m 0.451975,0.7607 c -0.08678,0 -0.157138,0.07 -0.157138,0.1571 0,0.087 0.07035,0.1571 0.157138,0.1571 0.08678,0 0.157138,-0.07 0.157138,-0.1571 0,-0.087 -0.07035,-0.1571 -0.157138,-0.1571 z m 0.302119,0.8384 c -0.08678,0 -0.157138,0.07 -0.157138,0.1571 0,0.087 0.07035,0.1571 0.157138,0.1571 0.08678,0 0.157138,-0.07 0.157138,-0.1571 0,-0.087 -0.07035,-0.1571 -0.157138,-0.1571 z m 0.138889,0.8865 c -0.08678,0 -0.157138,0.07 -0.157138,0.1571 0,0.087 0.07035,0.1571 0.157138,0.1571 0.08678,0 0.157138,-0.07 0.157138,-0.1571 0,-0.087 -0.07035,-0.1571 -0.157138,-0.1571 z m -0.03162,0.9032 c -0.08678,0 -0.157138,0.07 -0.157138,0.1571 0,0.087 0.07035,0.1571 0.157138,0.1571 0.08678,0 0.157138,-0.07 0.157138,-0.1571 0,-0.087 -0.07035,-0.1571 -0.157138,-0.1571 z m -0.203521,0.8872 c -0.08678,0 -0.157138,0.07 -0.157138,0.1571 0,0.087 0.07035,0.1571 0.157138,0.1571 0.08678,0 0.157138,-0.07 0.157138,-0.1571 0,-0.087 -0.07035,-0.1571 -0.157138,-0.1571 z m -0.370455,0.8385 c -0.08678,0 -0.157138,0.07 -0.157138,0.1571 0,0.087 0.07035,0.1571 0.157138,0.1571 0.08678,0 0.157138,-0.07 0.157138,-0.1571 0,-0.087 -0.07035,-0.1571 -0.157138,-0.1571 z m -0.52638,0.7583 c -0.08678,0 -0.157138,0.07 -0.157138,0.1571 0,0.087 0.07035,0.1571 0.157138,0.1571 0.08678,0 0.157138,-0.07 0.157138,-0.1571 0,-0.087 -0.07035,-0.1571 -0.157138,-0.1571 z m -0.665308,0.6501 c -0.08678,0 -0.157138,0.07 -0.157138,0.1571 0,0.087 0.07035,0.1571 0.157138,0.1571 0.08678,0 0.157138,-0.07 0.157138,-0.1571 0,-0.087 -0.07035,-0.1571 -0.157138,-0.1571 z m -0.782037,0.5155 c -0.08678,0 -0.157138,0.07 -0.157138,0.1571 0,0.087 0.07035,0.1571 0.157138,0.1571 0.08678,0 0.157138,-0.07 0.157138,-0.1571 0,-0.087 -0.07035,-0.1571 -0.157138,-0.1571 z m -0.867614,0.3683 c -0.08678,0 -0.157138,0.07 -0.157138,0.1571 0,0.087 0.07035,0.1571 0.157138,0.1571 0.08678,0 0.157138,-0.07 0.157138,-0.1571 0,-0.087 -0.07035,-0.1571 -0.157138,-0.1571 z"/><path style="line-height:125%;-inkscape-font-specification:'Bebas Neue Bold';text-align:center" fill="#fc0" d="M17.605469 14.679688C17.443456 14.679688 17.359375 14.775813 17.359375 14.945312 17.359375 15.248112 17.685547 15.289812 17.685547 15.507812 17.685547 15.583813 17.650656 15.611328 17.597656 15.611328 17.544656 15.611328 17.511719 15.583813 17.511719 15.507812L17.511719 15.431641 17.355469 15.431641 17.355469 15.496094C17.355469 15.665694 17.439987 15.763672 17.603516 15.763672 17.767043 15.763672 17.851562 15.665594 17.851562 15.496094 17.851562 15.193294 17.525391 15.153547 17.525391 14.935547 17.525391 14.859547 17.556375 14.830078 17.609375 14.830078 17.662365 14.830078 17.693359 14.860047 17.693359 14.935547L17.693359 14.978516 17.849609 14.978516 17.849609 14.945312C17.849609 14.775713 17.767479 14.679688 17.605469 14.679688zM12.130859 14.691406L12.294922 15.751953 12.542969 15.751953 12.707031 14.691406 12.554688 14.691406 12.427734 15.556641 12.300781 14.691406 12.130859 14.691406zM12.873047 14.691406L12.703125 15.751953 12.855469 15.751953 12.884766 15.558594 13.087891 15.558594 13.117188 15.751953 13.285156 15.751953 13.115234 14.691406 12.873047 14.691406zM13.361328 14.691406L13.361328 15.751953 13.802734 15.751953 13.802734 15.599609 13.527344 15.599609 13.527344 14.691406 13.361328 14.691406zM13.876953 14.691406L13.876953 15.751953 14.330078 15.751953 14.330078 15.599609 14.042969 15.599609 14.042969 15.289062 14.271484 15.289062 14.271484 15.138672 14.042969 15.138672 14.042969 14.84375 14.330078 14.84375 14.330078 14.691406 13.876953 14.691406zM14.429688 14.691406L14.429688 15.751953 14.580078 15.751953 14.580078 14.984375 14.787109 15.751953 14.958984 15.751953 14.958984 14.691406 14.810547 14.691406 14.810547 15.326172 14.638672 14.691406 14.429688 14.691406zM15.03125 14.691406L15.03125 14.84375 15.205078 14.84375 15.205078 15.751953 15.371094 15.751953 15.371094 14.84375 15.546875 14.84375 15.546875 14.691406 15.03125 14.691406zM15.617188 14.691406L15.617188 15.751953 15.785156 15.751953 15.785156 14.691406 15.617188 14.691406zM15.902344 14.691406L15.902344 15.751953 16.052734 15.751953 16.052734 14.984375 16.259766 15.751953 16.431641 15.751953 16.431641 14.691406 16.283203 14.691406 16.283203 15.326172 16.111328 14.691406 15.902344 14.691406zM16.552734 14.691406L16.552734 15.751953 17.005859 15.751953 17.005859 15.599609 16.71875 15.599609 16.71875 15.289062 16.947266 15.289062 16.947266 15.138672 16.71875 15.138672 16.71875 14.84375 17.005859 14.84375 17.005859 14.691406 16.552734 14.691406zM17.103516 14.691406L17.126953 15.003906 17.240234 15.003906 17.263672 14.691406 17.103516 14.691406zM18.179688 14.691406L18.179688 15.751953 18.443359 15.751953C18.609915 15.751953 18.691406 15.660134 18.691406 15.490234L18.691406 14.953125C18.691406 14.783525 18.609918 14.691406 18.443359 14.691406L18.179688 14.691406zM18.919922 14.691406L18.75 15.751953 18.902344 15.751953 18.931641 15.558594 19.136719 15.558594 19.166016 15.751953 19.333984 15.751953 19.164062 14.691406 18.919922 14.691406zM19.28125 14.691406L19.492188 15.400391 19.492188 15.751953 19.658203 15.751953 19.658203 15.400391 19.869141 14.691406 19.708984 14.691406 19.582031 15.173828 19.455078 14.691406 19.28125 14.691406zM18.345703 14.84375L18.439453 14.84375C18.492443 14.84375 18.523438 14.869312 18.523438 14.945312L18.523438 15.498047C18.523438 15.574047 18.492443 15.599609 18.439453 15.599609L18.345703 15.599609 18.345703 14.84375zM12.986328 14.878906L13.066406 15.416016 12.90625 15.416016 12.986328 14.878906zM19.033203 14.878906L19.113281 15.416016 18.953125 15.416016 19.033203 14.878906zM14.427734 16.236328C14.265721 16.236328 14.181641 16.332453 14.181641 16.501953 14.181641 16.804753 14.507813 16.846453 14.507812 17.064453 14.507812 17.140453 14.474875 17.167969 14.421875 17.167969 14.368885 17.167969 14.333984 17.140453 14.333984 17.064453L14.333984 16.988281 14.177734 16.988281 14.177734 17.052734C14.177734 17.222334 14.262252 17.320312 14.425781 17.320312 14.589308 17.320312 14.673828 17.222234 14.673828 17.052734 14.673828 16.749934 14.347656 16.710188 14.347656 16.492188 14.347656 16.416187 14.378641 16.386719 14.431641 16.386719 14.484631 16.386719 14.515625 16.416688 14.515625 16.492188L14.515625 16.535156 14.671875 16.535156 14.671875 16.501953C14.671875 16.332353 14.589745 16.236328 14.427734 16.236328zM16.128906 16.236328C15.965379 16.236328 15.880859 16.332453 15.880859 16.501953L15.880859 17.054688C15.880859 17.224287 15.965377 17.320312 16.128906 17.320312 16.292433 17.320312 16.376953 17.224187 16.376953 17.054688L16.376953 16.914062 16.220703 16.914062 16.220703 17.064453C16.220703 17.140453 16.187766 17.167969 16.134766 17.167969 16.081776 17.167969 16.046875 17.140453 16.046875 17.064453L16.046875 16.492188C16.046875 16.416187 16.081766 16.388672 16.134766 16.388672 16.187766 16.388672 16.220703 16.416688 16.220703 16.492188L16.220703 16.605469 16.376953 16.605469 16.376953 16.501953C16.376953 16.332353 16.292435 16.236328 16.128906 16.236328zM14.767578 16.248047L14.767578 17.308594 14.933594 17.308594 14.933594 16.910156 15.013672 16.910156C15.180227 16.910156 15.261719 16.818437 15.261719 16.648438L15.261719 16.509766C15.261719 16.340266 15.180231 16.248047 15.013672 16.248047L14.767578 16.248047zM15.337891 16.248047L15.337891 17.308594 15.792969 17.308594 15.792969 17.15625 15.505859 17.15625 15.505859 16.845703 15.734375 16.845703 15.734375 16.695312 15.505859 16.695312 15.505859 16.400391 15.792969 16.400391 15.792969 16.248047 15.337891 16.248047zM16.480469 16.248047L16.480469 17.308594 16.646484 17.308594 16.646484 16.248047 16.480469 16.248047zM16.892578 16.248047L16.722656 17.308594 16.876953 17.308594 16.904297 17.115234 17.109375 17.115234 17.138672 17.308594 17.306641 17.308594 17.136719 16.248047 16.892578 16.248047zM17.382812 16.248047L17.382812 17.308594 17.822266 17.308594 17.822266 17.15625 17.548828 17.15625 17.548828 16.248047 17.382812 16.248047zM14.933594 16.400391L15.013672 16.400391C15.066662 16.400391 15.095703 16.424 15.095703 16.5L15.095703 16.658203C15.095703 16.734203 15.066662 16.759766 15.013672 16.759766L14.933594 16.759766 14.933594 16.400391zM17.005859 16.435547L17.085938 16.972656 16.925781 16.972656 17.005859 16.435547z" font-family="Bebas Neue" font-weight="700" letter-spacing="0" text-anchor="middle" transform="translate(0 1020.362)" word-spacing="0"/><path fill="#ff1e55" fill-rule="evenodd" d="M7.804377 1035.5681c-.126841 0-.253696.049-.350862.1457-.194336.1943-.194344.5074 0 .7017l.03689.037.706244.7153.70624-.7153.03689-.037c.194343-.1943.194336-.5074 0-.7017-.194332-.1944-.507381-.1944-.701721 0l-.04141.041-.04141-.041c-.09717-.097-.224021-.1457-.350862-.1457zM5.722066 1035.808c-.08879 0-.177586.034-.245604.1019-.136036.1361-.136039.3552 0 .4913l.02581.026.494375.5007.494372-.5007.02581-.026c.13604-.1361.136036-.3552 0-.4913-.136032-.136-.355168-.136-.49121 0l-.02901.029-.02898-.029c-.06802-.068-.156815-.1019-.245604-.1019zM4.102905 1036.048c-.05074 0-.101479.02-.140345.058-.07774.078-.07774.203 0 .2807l.01475.015.2825.2862.282496-.2862.01475-.015c.07774-.078.07774-.2029 0-.2807-.07773-.078-.202954-.078-.280689 0l-.01657.016-.01657-.016c-.03887-.039-.08961-.058-.140345-.058zM23.841066 1035.5681c.126841 0 .253696.049.350862.1457.194336.1943.194344.5074 0 .7017l-.03689.037-.706244.7153-.70624-.7153-.03689-.037c-.194343-.1943-.194336-.5074 0-.7017.194332-.1944.507381-.1944.701721 0l.04141.041.04141-.041c.09717-.097.224021-.1457.350862-.1457zM25.923377 1035.808c.08879 0 .177586.034.245604.1019.136036.1361.136039.3552 0 .4913l-.02581.026-.494375.5007-.494372-.5007-.02581-.026c-.13604-.1361-.136036-.3552 0-.4913.136032-.136.355168-.136.49121 0l.02901.029.02898-.029c.06802-.068.156815-.1019.245604-.1019zM27.542538 1036.048c.05074 0 .101479.02.140345.058.07774.078.07774.203 0 .2807l-.01475.015-.2825.2862-.282496-.2862-.01475-.015c-.07774-.078-.07774-.2029 0-.2807.07773-.078.202954-.078.280689 0l.01657.016.01657-.016c.03887-.039.08961-.058.140345-.058z"/></g></svg>