<svg xmlns="http://www.w3.org/2000/svg" width="32" height="32" viewBox="0 0 32 32"><g transform="translate(0 -1020.362)"><rect width="28.132" height="8.09" y="1032.317" fill="#fc0" fill-rule="evenodd" rx=".455" ry=".455"/><path fill="#fff" d="M.40161 1033.1383c-.11097 0-.20094.09-.20094.2009 0 .111.09.201.20094.201.11098 0 .20094-.09.20094-.201 0-.1109-.09-.2009-.20094-.2009zm.8037679 0c-.11097 0-.20094.09-.20094.2009 0 .111.09.201.20094.201.11098 0 .20094-.09.20094-.201 0-.1109-.09-.2009-.20094-.2009zm.803768 0c-.11097 0-.20094.09-.20094.2009 0 .111.09.201.20094.201.11098 0 .20094-.09.20094-.201 0-.1109-.09-.2009-.20094-.2009zm.8037679 0c-.11097 0-.20094.09-.20094.2009 0 .111.09.201.20094.201.11098 0 .20094-.09.20094-.201 0-.1109-.09-.2009-.20094-.2009zm.803768 0c-.11097 0-.20094.09-.20094.2009 0 .111.09.201.20094.201.11098 0 .20094-.09.20094-.201 0-.1109-.09-.2009-.20094-.2009zm.8037679 0c-.11097 0-.20094.09-.20094.2009 0 .111.09.201.20094.201.11098 0 .20094-.09.20094-.201 0-.1109-.09-.2009-.20094-.2009zm.8037679 0c-.11097 0-.20094.09-.20094.2009 0 .111.09.201.20094.201.11098 0 .20094-.09.20094-.201 0-.1109-.09-.2009-.20094-.2009zm.803768 0c-.11097 0-.20094.09-.20094.2009 0 .111.09.201.20094.201.11098 0 .20094-.09.20094-.201 0-.1109-.09-.2009-.20094-.2009zm.8037679 0c-.11097 0-.20094.09-.20094.2009 0 .111.09.201.20094.201.11098 0 .20094-.09.20094-.201 0-.1109-.09-.2009-.20094-.2009zm.803768 0c-.11097 0-.20094.09-.20094.2009 0 .111.09.201.20094.201.11098 0 .20094-.09.20094-.201 0-.1109-.09-.2009-.20094-.2009zm.8037679 0c-.11097 0-.20094.09-.20094.2009 0 .111.09.201.20094.201.11098 0 .20094-.09.20094-.201 0-.1109-.09-.2009-.20094-.2009zm.803768 0c-.11097 0-.20094.09-.20094.2009 0 .111.09.201.20094.201.11098 0 .20094-.09.20094-.201 0-.1109-.09-.2009-.20094-.2009zm.8037676 0c-.1109697 0-.2009397.09-.2009397.2009 0 .111.09.201.2009397.201.11098 0 .20094-.09.20094-.201 0-.1109-.09-.2009-.20094-.2009zm.803768 0c-.11097 0-.20094.09-.20094.2009 0 .111.09.201.20094.201.11098 0 .20094-.09.20094-.201 0-.1109-.09-.2009-.20094-.2009zm.803768 0c-.11097 0-.20094.09-.20094.2009 0 .111.09.201.20094.201.11098 0 .20094-.09.20094-.201 0-.1109-.09-.2009-.20094-.2009zm.803768 0c-.11097 0-.20094.09-.20094.2009 0 .111.09.201.20094.201.11098 0 .20094-.09.20094-.201 0-.1109-.09-.2009-.20094-.2009zm.803768 0c-.11097 0-.20094.09-.20094.2009 0 .111.09.201.20094.201.11098 0 .20094-.09.20094-.201 0-.1109-.09-.2009-.20094-.2009zm.803768 0c-.11097 0-.20094.09-.20094.2009 0 .111.09.201.20094.201.11098 0 .20094-.09.20094-.201 0-.1109-.09-.2009-.20094-.2009zm.803768 0c-.11097 0-.20094.09-.20094.2009 0 .111.09.201.20094.201.11098 0 .20094-.09.20094-.201 0-.1109-.09-.2009-.20094-.2009zm.803768 0c-.11097 0-.20094.09-.20094.2009 0 .111.09.201.20094.201.11098 0 .20094-.09.20094-.201 0-.1109-.09-.2009-.20094-.2009zm.803768 0c-.11097 0-.20094.09-.20094.2009 0 .111.09.201.20094.201.11098 0 .20094-.09.20094-.201 0-.1109-.09-.2009-.20094-.2009zm.803768 0c-.11097 0-.20094.09-.20094.2009 0 .111.09.201.20094.201.11098 0 .20094-.09.20094-.201 0-.1109-.09-.2009-.20094-.2009zm.803768 0c-.11097 0-.20094.09-.20094.2009 0 .111.09.201.20094.201.11098 0 .20094-.09.20094-.201 0-.1109-.09-.2009-.20094-.2009zm.803768 0c-.11097 0-.20094.09-.20094.2009 0 .111.09.201.20094.201.11098 0 .20094-.09.20094-.201 0-.1109-.09-.2009-.20094-.2009zm.803768 0c-.11097 0-.20094.09-.20094.2009 0 .111.09.201.20094.201.11098 0 .20094-.09.20094-.201 0-.1109-.09-.2009-.20094-.2009zm.803768 0c-.11097 0-.20094.09-.20094.2009 0 .111.09.201.20094.201.11098 0 .20094-.09.20094-.201 0-.1109-.09-.2009-.20094-.2009zm.803767 0c-.11097 0-.20094.09-.20094.2009 0 .111.09.201.20094.201.11098 0 .20094-.09.20094-.201 0-.1109-.09-.2009-.20094-.2009zm.803768 0c-.11097 0-.20094.09-.20094.2009 0 .111.09.201.20094.201.11098 0 .20094-.09.20094-.201 0-.1109-.09-.2009-.20094-.2009zm.803768 0c-.11097 0-.20094.09-.20094.2009 0 .111.09.201.20094.201.11098 0 .20094-.09.20094-.201 0-.1109-.09-.2009-.20094-.2009zm.803768 0c-.11097 0-.20094.09-.20094.2009 0 .111.09.201.20094.201.11098 0 .20094-.09.20094-.201 0-.1109-.09-.2009-.20094-.2009zm.803768 0c-.11097 0-.20094.09-.20094.2009 0 .111.09.201.20094.201.11098 0 .20094-.09.20094-.201 0-.1109-.09-.2009-.20094-.2009zm.803768 0c-.11097 0-.20094.09-.20094.2009 0 .111.09.201.20094.201.11098 0 .20094-.09.20094-.201 0-.1109-.09-.2009-.20094-.2009zm.803768 0c-.11097 0-.20094.09-.20094.2009 0 .111.09.201.20094.201.11098 0 .20094-.09.20094-.201 0-.1109-.09-.2009-.20094-.2009zm.803768 0c-.11097 0-.20094.09-.20094.2009 0 .111.09.201.20094.201.11098 0 .20094-.09.20094-.201 0-.1109-.09-.2009-.20094-.2009zm.803768 0c-.11097 0-.20094.09-.20094.2009 0 .111.09.201.20094.201.11098 0 .20094-.09.20094-.201 0-.1109-.09-.2009-.20094-.2009zM.40161 1039.1794c-.11097 0-.20094.09-.20094.201 0 .111.09.201.20094.201.11098 0 .20094-.09.20094-.201 0-.111-.09-.201-.20094-.201zm.8037679 0c-.11097 0-.20094.09-.20094.201 0 .111.09.201.20094.201.11098 0 .20094-.09.20094-.201 0-.111-.09-.201-.20094-.201zm.803768 0c-.11097 0-.20094.09-.20094.201 0 .111.09.201.20094.201.11098 0 .20094-.09.20094-.201 0-.111-.09-.201-.20094-.201zm.8037679 0c-.11097 0-.20094.09-.20094.201 0 .111.09.201.20094.201.11098 0 .20094-.09.20094-.201 0-.111-.09-.201-.20094-.201zm.803768 0c-.11097 0-.20094.09-.20094.201 0 .111.09.201.20094.201.11098 0 .20094-.09.20094-.201 0-.111-.09-.201-.20094-.201zm.8037679 0c-.11097 0-.20094.09-.20094.201 0 .111.09.201.20094.201.11098 0 .20094-.09.20094-.201 0-.111-.09-.201-.20094-.201zm.8037679 0c-.11097 0-.20094.09-.20094.201 0 .111.09.201.20094.201.11098 0 .20094-.09.20094-.201 0-.111-.09-.201-.20094-.201zm.803768 0c-.11097 0-.20094.09-.20094.201 0 .111.09.201.20094.201.11098 0 .20094-.09.20094-.201 0-.111-.09-.201-.20094-.201zm.8037679 0c-.11097 0-.20094.09-.20094.201 0 .111.09.201.20094.201.11098 0 .20094-.09.20094-.201 0-.111-.09-.201-.20094-.201zm.803768 0c-.11097 0-.20094.09-.20094.201 0 .111.09.201.20094.201.11098 0 .20094-.09.20094-.201 0-.111-.09-.201-.20094-.201zm.8037679 0c-.11097 0-.20094.09-.20094.201 0 .111.09.201.20094.201.11098 0 .20094-.09.20094-.201 0-.111-.09-.201-.20094-.201zm.803768 0c-.11097 0-.20094.09-.20094.201 0 .111.09.201.20094.201.11098 0 .20094-.09.20094-.201 0-.111-.09-.201-.20094-.201zm.8037676 0c-.1109697 0-.2009397.09-.2009397.201 0 .111.09.201.2009397.201.11098 0 .20094-.09.20094-.201 0-.111-.09-.201-.20094-.201zm.803768 0c-.11097 0-.20094.09-.20094.201 0 .111.09.201.20094.201.11098 0 .20094-.09.20094-.201 0-.111-.09-.201-.20094-.201zm.803768 0c-.11097 0-.20094.09-.20094.201 0 .111.09.201.20094.201.11098 0 .20094-.09.20094-.201 0-.111-.09-.201-.20094-.201zm.803768 0c-.11097 0-.20094.09-.20094.201 0 .111.09.201.20094.201.11098 0 .20094-.09.20094-.201 0-.111-.09-.201-.20094-.201zm.803768 0c-.11097 0-.20094.09-.20094.201 0 .111.09.201.20094.201.11098 0 .20094-.09.20094-.201 0-.111-.09-.201-.20094-.201zm.803768 0c-.11097 0-.20094.09-.20094.201 0 .111.09.201.20094.201.11098 0 .20094-.09.20094-.201 0-.111-.09-.201-.20094-.201zm.803768 0c-.11097 0-.20094.09-.20094.201 0 .111.09.201.20094.201.11098 0 .20094-.09.20094-.201 0-.111-.09-.201-.20094-.201zm.803768 0c-.11097 0-.20094.09-.20094.201 0 .111.09.201.20094.201.11098 0 .20094-.09.20094-.201 0-.111-.09-.201-.20094-.201zm.803768 0c-.11097 0-.20094.09-.20094.201 0 .111.09.201.20094.201.11098 0 .20094-.09.20094-.201 0-.111-.09-.201-.20094-.201zm.803768 0c-.11097 0-.20094.09-.20094.201 0 .111.09.201.20094.201.11098 0 .20094-.09.20094-.201 0-.111-.09-.201-.20094-.201zm.803768 0c-.11097 0-.20094.09-.20094.201 0 .111.09.201.20094.201.11098 0 .20094-.09.20094-.201 0-.111-.09-.201-.20094-.201zm.803768 0c-.11097 0-.20094.09-.20094.201 0 .111.09.201.20094.201.11098 0 .20094-.09.20094-.201 0-.111-.09-.201-.20094-.201zm.803768 0c-.11097 0-.20094.09-.20094.201 0 .111.09.201.20094.201.11098 0 .20094-.09.20094-.201 0-.111-.09-.201-.20094-.201zm.803768 0c-.11097 0-.20094.09-.20094.201 0 .111.09.201.20094.201.11098 0 .20094-.09.20094-.201 0-.111-.09-.201-.20094-.201zm.803767 0c-.11097 0-.20094.09-.20094.201 0 .111.09.201.20094.201.11098 0 .20094-.09.20094-.201 0-.111-.09-.201-.20094-.201zm.803768 0c-.11097 0-.20094.09-.20094.201 0 .111.09.201.20094.201.11098 0 .20094-.09.20094-.201 0-.111-.09-.201-.20094-.201zm.803768 0c-.11097 0-.20094.09-.20094.201 0 .111.09.201.20094.201.11098 0 .20094-.09.20094-.201 0-.111-.09-.201-.20094-.201zm.803768 0c-.11097 0-.20094.09-.20094.201 0 .111.09.201.20094.201.11098 0 .20094-.09.20094-.201 0-.111-.09-.201-.20094-.201zm.803768 0c-.11097 0-.20094.09-.20094.201 0 .111.09.201.20094.201.11098 0 .20094-.09.20094-.201 0-.111-.09-.201-.20094-.201zm.803768 0c-.11097 0-.20094.09-.20094.201 0 .111.09.201.20094.201.11098 0 .20094-.09.20094-.201 0-.111-.09-.201-.20094-.201zm.803768 0c-.11097 0-.20094.09-.20094.201 0 .111.09.201.20094.201.11098 0 .20094-.09.20094-.201 0-.111-.09-.201-.20094-.201zm.803768 0c-.11097 0-.20094.09-.20094.201 0 .111.09.201.20094.201.11098 0 .20094-.09.20094-.201 0-.111-.09-.201-.20094-.201zm.803768 0c-.11097 0-.20094.09-.20094.201 0 .111.09.201.20094.201.11098 0 .20094-.09.20094-.201 0-.111-.09-.201-.20094-.201z"/><rect width="12.86" height="12.86" x="19.14" y="1029.932" fill="#a80e05" rx=".367" ry=".367"/><path fill="#fff" d="m 27.029186,1041.8084 c 0.02297,-0.01 -0.661286,-0.4666 -0.637826,-0.4705 0.02346,-0 -0.476466,0.6521 -0.452739,0.6505 0.02373,-0 -0.557545,-0.5866 -0.53378,-0.5859 0.02376,8e-4 -0.59453,0.5467 -0.570956,0.5498 0.02357,0 -0.432378,-0.6842 -0.409222,-0.6788 0.02316,0.01 -0.689748,0.4201 -0.667232,0.4278 0.02252,0.01 -0.290595,-0.7554 -0.268937,-0.7456 0.02166,0.01 -0.758459,0.2775 -0.737867,0.2894 0.02059,0.012 -0.137644,-0.7976 -0.118316,-0.7837 0.01933,0.014 -0.798023,0.1242 -0.780146,0.1399 0.01788,0.016 0.0206,-0.8091 0.03685,-0.7918 0.01625,0.017 -0.806919,-0.034 -0.792444,-0.015 0.01448,0.019 0.178045,-0.7895 0.190601,-0.7693 0.01256,0.02 -0.784806,-0.1906 -0.774289,-0.1693 0.01052,0.021 0.328651,-0.7396 0.337027,-0.7174 0.0084,0.022 -0.732533,-0.3401 -0.726379,-0.3171 0.0062,0.023 0.466628,-0.6613 0.470501,-0.6378 0.0039,0.023 -0.652109,-0.4765 -0.650554,-0.4528 0.0016,0.024 0.586672,-0.5575 0.585894,-0.5337 -7.78e-4,0.024 -0.546625,-0.5946 -0.549729,-0.571 -0.0031,0.024 0.684171,-0.4324 0.678772,-0.4092 -0.0054,0.023 -0.420135,-0.6898 -0.427778,-0.6673 -0.0076,0.023 0.755378,-0.2906 0.745564,-0.2689 -0.0098,0.022 -0.277499,-0.7585 -0.289387,-0.7379 -0.01189,0.021 0.797555,-0.1376 0.783705,-0.1183 -0.01385,0.019 -0.124199,-0.798 -0.139876,-0.7801 -0.01568,0.018 0.809083,0.021 0.791729,0.037 -0.01735,0.016 0.03387,-0.8069 0.01501,-0.7924 -0.01886,0.014 0.789519,0.178 0.769327,0.1906 -0.02019,0.012 0.190646,-0.7848 0.16932,-0.7743 -0.02132,0.01 0.739614,0.3286 0.717361,0.337 -0.02225,0.01 0.34009,-0.7325 0.317122,-0.7264 -0.02297,0.01 0.661286,0.4667 0.637826,0.4705 -0.02346,0 0.476466,-0.6521 0.452739,-0.6505 -0.02373,0 0.557545,0.5867 0.53378,0.5859 -0.02377,-8e-4 0.594531,-0.5466 0.570956,-0.5497 -0.02357,-0 0.432378,0.6841 0.409222,0.6787 -0.02316,-0.01 0.689748,-0.4201 0.667232,-0.4278 -0.02252,-0.01 0.290595,0.7554 0.268937,0.7456 -0.02166,-0.01 0.758459,-0.2775 0.737867,-0.2894 -0.02059,-0.012 0.137644,0.7976 0.118316,0.7837 -0.01933,-0.014 0.798023,-0.1242 0.780146,-0.1398 -0.01788,-0.016 -0.0206,0.809 -0.03685,0.7917 -0.01625,-0.017 0.806919,0.034 0.792444,0.015 -0.01447,-0.019 -0.178045,0.7895 -0.190601,0.7693 -0.01256,-0.02 0.784806,0.1907 0.774289,0.1693 -0.01052,-0.021 -0.328651,0.7397 -0.337027,0.7174 -0.0084,-0.022 0.732533,0.3401 0.726379,0.3171 -0.0062,-0.023 -0.466628,0.6613 -0.470501,0.6378 -0.0039,-0.023 0.652109,0.4765 0.650554,0.4528 -0.0016,-0.024 -0.586672,0.5575 -0.585894,0.5338 7.78e-4,-0.024 0.546625,0.5945 0.549729,0.5709 0.0031,-0.024 -0.684171,0.4324 -0.678772,0.4092 0.0054,-0.023 0.420135,0.6898 0.427778,0.6673 0.0076,-0.023 -0.755378,0.2906 -0.745564,0.2689 0.0098,-0.022 0.277499,0.7585 0.289387,0.7379 0.01189,-0.021 -0.797555,0.1376 -0.783705,0.1183 0.01385,-0.019 0.124199,0.798 0.139876,0.7801 0.01568,-0.018 -0.809083,-0.021 -0.791729,-0.037 0.01735,-0.016 -0.03387,0.8069 -0.01501,0.7924 0.01886,-0.014 -0.789519,-0.178 -0.769327,-0.1906 0.02019,-0.013 -0.190645,0.7848 -0.16932,0.7743 0.02132,-0.011 -0.739614,-0.3286 -0.717361,-0.337 0.02225,-0.01 -0.34009,0.7325 -0.317122,0.7264 z"/><path fill="#fc0" d="m 26.85413,1041.1551 c 0.02021,-0.01 -0.581961,-0.4107 -0.561315,-0.4141 0.02065,-0 -0.419311,0.5739 -0.39843,0.5725 0.02088,-0 -0.490665,-0.5163 -0.46975,-0.5156 0.02091,7e-4 -0.523214,0.4811 -0.502467,0.4838 0.02075,0 -0.380512,-0.6021 -0.360133,-0.5974 0.02038,0 -0.607009,0.3698 -0.587194,0.3765 0.01981,0.01 -0.255737,-0.6648 -0.236677,-0.6561 0.01906,0.01 -0.667477,0.2442 -0.649355,0.2546 0.01812,0.01 -0.121133,-0.7018 -0.104124,-0.6896 0.01701,0.012 -0.702295,0.1093 -0.686563,0.1231 0.01573,0.014 0.01813,-0.7121 0.03243,-0.6968 0.0143,0.015 -0.710125,-0.03 -0.697386,-0.013 0.01274,0.017 0.156687,-0.6948 0.167737,-0.6771 0.01105,0.018 -0.690664,-0.1677 -0.681409,-0.149 0.0093,0.019 0.289228,-0.6509 0.296599,-0.6313 0.0074,0.02 -0.644661,-0.2993 -0.639246,-0.2791 0.0054,0.02 0.410653,-0.5819 0.414062,-0.5613 0.0034,0.021 -0.573885,-0.4193 -0.572516,-0.3984 0.0014,0.021 0.516297,-0.4907 0.515612,-0.4698 -6.84e-4,0.021 -0.481054,-0.5232 -0.483785,-0.5024 -0.0027,0.021 0.6021,-0.3805 0.597349,-0.3602 -0.0048,0.02 -0.369737,-0.607 -0.376464,-0.5871 -0.0067,0.02 0.664766,-0.2558 0.65613,-0.2367 -0.0086,0.019 -0.244211,-0.6675 -0.254674,-0.6494 -0.01046,0.018 0.701884,-0.1211 0.689696,-0.1041 -0.01219,0.017 -0.109301,-0.7023 -0.123098,-0.6866 -0.0138,0.016 0.71203,0.018 0.696757,0.033 -0.01527,0.014 0.02981,-0.7102 0.01321,-0.6974 -0.0166,0.013 0.694812,0.1567 0.677042,0.1677 -0.01777,0.011 0.167776,-0.6906 0.149009,-0.6814 -0.01877,0.01 0.650893,0.2892 0.631309,0.2966 -0.01958,0.01 0.299294,-0.6447 0.279082,-0.6392 -0.02021,0.01 0.581961,0.4106 0.561315,0.414 -0.02065,0 0.419311,-0.5739 0.39843,-0.5725 -0.02088,0 0.490665,0.5163 0.46975,0.5156 -0.02091,-7e-4 0.523214,-0.481 0.502467,-0.4838 -0.02075,-0 0.380512,0.6021 0.360133,0.5974 -0.02038,-0 0.607009,-0.3698 0.587194,-0.3765 -0.01981,-0.01 0.255737,0.6648 0.236677,0.6561 -0.01906,-0.01 0.667477,-0.2442 0.649355,-0.2546 -0.01812,-0.011 0.121133,0.7019 0.104124,0.6897 -0.01701,-0.012 0.702295,-0.1093 0.686563,-0.1231 -0.01573,-0.014 -0.01813,0.712 -0.03243,0.6967 -0.0143,-0.015 0.710125,0.03 0.697386,0.013 -0.01274,-0.017 -0.156687,0.6948 -0.167737,0.6771 -0.01105,-0.018 0.690664,0.1678 0.681409,0.149 -0.0093,-0.019 -0.289228,0.6509 -0.296599,0.6313 -0.0074,-0.02 0.644662,0.2993 0.639246,0.2791 -0.0054,-0.02 -0.410653,0.5819 -0.414062,0.5613 -0.0034,-0.021 0.573885,0.4193 0.572516,0.3984 -0.0014,-0.021 -0.516297,0.4907 -0.515612,0.4698 6.84e-4,-0.021 0.481054,0.5232 0.483785,0.5024 0.0027,-0.021 -0.6021,0.3806 -0.597349,0.3602 0.0048,-0.02 0.369737,0.607 0.376464,0.5872 0.0067,-0.02 -0.664766,0.2557 -0.65613,0.2366 0.0086,-0.019 0.244211,0.6675 0.254674,0.6494 0.01046,-0.018 -0.701884,0.1211 -0.689696,0.1041 0.01219,-0.017 0.109301,0.7023 0.123098,0.6866 0.0138,-0.016 -0.71203,-0.018 -0.696757,-0.032 0.01527,-0.014 -0.02981,0.7101 -0.01321,0.6973 0.0166,-0.013 -0.694811,-0.1566 -0.677042,-0.1677 0.01777,-0.011 -0.167776,0.6907 -0.149009,0.6814 0.01877,-0.01 -0.650893,-0.2892 -0.631309,-0.2966 0.01958,-0.01 -0.299294,0.6447 -0.279082,0.6393 z"/><path fill="#a80e05" fill-rule="evenodd" d="M2.65404 1035.1565c-.1912 0-.38242.073-.52889.2196-.29293.293-.29295.7649 0 1.0578l.0556.056 1.06458 1.0782 1.06458-1.0782.0556-.056c.29295-.2929.29294-.7648 0-1.0578-.29294-.2929-.76483-.2929-1.05778 0l-.0624.062-.0624-.062c-.14648-.1464-.33769-.2196-.52889-.2196zM15.65504 1035.1565c-.19119 0-.38242.073-.52888.2196-.29294.293-.29295.7649 0 1.0578l.0556.056 1.06458 1.0782 1.06458-1.0782.0556-.056c.29295-.2929.29294-.7648 0-1.0578-.29293-.2929-.76482-.2929-1.05777 0l-.0624.062-.0624-.062c-.14647-.1464-.33769-.2196-.52889-.2196z"/><path style="line-height:125%;-inkscape-font-specification:'Bebas Neue Bold';text-align:center" fill="#d31206" d="M 9.5292969 14.380859 C 9.041008 14.380859 8.7734375 14.671334 8.7734375 15.177734 L 8.7734375 16.822266 C 8.7734375 17.328666 9.041008 17.619141 9.5292969 17.619141 C 10.017586 17.619141 10.283203 17.328666 10.283203 16.822266 L 10.283203 15.177734 C 10.283203 14.671334 10.017586 14.380859 9.5292969 14.380859 z M 6.2539062 14.394531 C 5.9419439 14.394531 5.7753906 14.574891 5.7753906 14.900391 L 5.7753906 15.941406 C 5.7753906 16.266906 5.941944 16.447266 6.2539062 16.447266 C 6.5658686 16.447266 6.734375 16.266906 6.734375 15.941406 L 6.734375 14.900391 C 6.734375 14.574891 6.5658686 14.394531 6.2539062 14.394531 z M 7.5019531 14.417969 L 6.2539062 17.582031 L 6.5488281 17.582031 L 7.796875 14.417969 L 7.5019531 14.417969 z M 10.607422 14.417969 L 10.607422 17.582031 L 11.103516 17.582031 L 11.103516 16.275391 L 11.746094 16.275391 L 11.746094 15.824219 L 11.103516 15.824219 L 11.103516 14.869141 L 11.921875 14.869141 L 11.921875 14.417969 L 10.607422 14.417969 z M 12.162109 14.417969 L 12.162109 17.582031 L 12.658203 17.582031 L 12.658203 16.275391 L 13.300781 16.275391 L 13.300781 15.824219 L 12.658203 15.824219 L 12.658203 14.869141 L 13.476562 14.869141 L 13.476562 14.417969 L 12.162109 14.417969 z M 6.2539062 14.679688 C 6.3533722 14.679688 6.4179687 14.739006 6.4179688 14.878906 L 6.4179688 15.962891 C 6.4179688 16.102991 6.3533722 16.162109 6.2539062 16.162109 C 6.1499188 16.162109 6.0917969 16.102791 6.0917969 15.962891 L 6.0917969 14.878906 C 6.0917969 14.738706 6.1499193 14.679688 6.2539062 14.679688 z M 9.5292969 14.833984 C 9.6875386 14.833984 9.7871094 14.918631 9.7871094 15.144531 L 9.7871094 16.853516 C 9.7871094 17.079616 9.6875389 17.166016 9.5292969 17.166016 C 9.3710551 17.166016 9.2714844 17.079516 9.2714844 16.853516 L 9.2714844 15.144531 C 9.2714844 14.918531 9.3710549 14.833984 9.5292969 14.833984 z M 7.8242188 15.552734 C 7.5122564 15.552734 7.34375 15.733094 7.34375 16.058594 L 7.34375 17.097656 C 7.34375 17.423156 7.5122563 17.605469 7.8242188 17.605469 C 8.136181 17.605469 8.3027344 17.423156 8.3027344 17.097656 L 8.3027344 16.058594 C 8.3027344 15.733094 8.1361811 15.552734 7.8242188 15.552734 z M 7.8242188 15.837891 C 7.9236847 15.837891 7.9863281 15.895256 7.9863281 16.035156 L 7.9863281 17.121094 C 7.9863281 17.261294 7.9236846 17.320312 7.8242188 17.320312 C 7.7202313 17.320312 7.6601562 17.260994 7.6601562 17.121094 L 7.6601562 16.035156 C 7.6601562 15.895056 7.7202308 15.837891 7.8242188 15.837891 z " font-family="Bebas Neue" font-size="4.521" font-weight="700" letter-spacing="0" text-anchor="middle" transform="translate(0 1020.362)" word-spacing="0"/><path fill="#d31206" fill-rule="evenodd" d="m 24.15102,1033.7957 c -0.45877,0 -0.9176,0.1755 -1.26905,0.527 -0.7029,0.7028 -0.70292,1.8352 0,2.5381 l 0.13344,0.1335 2.55445,2.5871 2.55444,-2.5871 0.13345,-0.1335 c 0.70292,-0.7029 0.70289,-1.8353 0,-2.5381 -0.70291,-0.703 -1.83519,-0.703 -2.53811,0 l -0.14978,0.1498 -0.14978,-0.1498 c -0.35146,-0.3515 -0.81028,-0.527 -1.26906,-0.527 z"/></g></svg>