<svg xmlns="http://www.w3.org/2000/svg" width="32" height="32" viewBox="0 0 32 32"><g transform="translate(0 -1020.362)"><path fill="#fc0" d="m 10.36437,1029.6699 10.56682,0 0,2.1133 -0.70445,0 0,1.409 0.70445,0 0,7.0446 -5.28341,2.8177 -5.28341,-2.8177 0,-2.6418 0,-4.4028 0.70445,0 0,-1.409 -0.70445,0 z"/><path fill="#a80e05" d="M6.84209 1035.6378l3.10333 0 0 3.8944-3.10333 0 1.11298-1.9473zM25.15792 1035.6378l-3.10333 0 0 3.8944 3.10333 0-1.11297-1.9473z"/><path fill="#d31206" d="m 9.124,1034.967 0,3.8952 2.11337,0 9.52528,0 2.11336,0 0,-3.8952 -2.11336,0 -9.52528,0 -2.11337,0 z"/><path style="line-height:125%;-inkscape-font-specification:'Bebas Neue Bold'" fill="#fc0" d="M 14.041016 15.546875 C 13.740933 15.546875 13.587891 15.724962 13.587891 16.039062 L 13.587891 16.041016 C 13.587891 16.601916 14.189453 16.676178 14.189453 17.080078 C 14.189453 17.220278 14.127455 17.271484 14.029297 17.271484 C 13.931137 17.271484 13.871094 17.220778 13.871094 17.080078 L 13.871094 16.941406 L 13.578125 16.941406 L 13.578125 17.060547 C 13.578125 17.374747 13.736173 17.554688 14.039062 17.554688 C 14.34195 17.554688 14.498047 17.374747 14.498047 17.060547 C 14.498047 16.499647 13.896484 16.425284 13.896484 16.021484 C 13.896484 15.881184 13.950669 15.826172 14.048828 15.826172 C 14.146988 15.826172 14.203125 15.880984 14.203125 16.021484 L 14.203125 16.101562 L 14.496094 16.101562 L 14.496094 16.039062 C 14.496094 15.724962 14.3411 15.546875 14.041016 15.546875 z M 15.107422 15.546875 C 14.804534 15.546875 14.646484 15.726916 14.646484 16.041016 L 14.646484 17.060547 C 14.646484 17.374747 14.804534 17.554688 15.107422 17.554688 C 15.41031 17.554688 15.566406 17.374747 15.566406 17.060547 L 15.566406 16.800781 L 15.275391 16.800781 L 15.275391 17.080078 C 15.275391 17.220278 15.213391 17.271484 15.115234 17.271484 C 15.017074 17.271484 14.955078 17.220778 14.955078 17.080078 L 14.955078 16.021484 C 14.955078 15.881184 15.017076 15.826172 15.115234 15.826172 C 15.213394 15.826172 15.275391 15.880984 15.275391 16.021484 L 15.275391 16.230469 L 15.566406 16.230469 L 15.566406 16.041016 C 15.566406 15.726916 15.41031 15.546875 15.107422 15.546875 z M 16.201172 15.546875 C 15.898283 15.546875 15.732422 15.726916 15.732422 16.041016 L 15.732422 17.060547 C 15.732422 17.374747 15.898283 17.554688 16.201172 17.554688 C 16.50406 17.554688 16.667969 17.374747 16.667969 17.060547 L 16.667969 16.041016 C 16.667969 15.726916 16.50406 15.546875 16.201172 15.546875 z M 11.949219 15.568359 L 11.949219 17.53125 L 12.4375 17.53125 C 12.745997 17.53125 12.898437 17.360975 12.898438 17.046875 L 12.898438 16.054688 C 12.898438 15.740587 12.745997 15.568359 12.4375 15.568359 L 11.949219 15.568359 z M 13.095703 15.568359 L 13.095703 17.53125 L 13.404297 17.53125 L 13.404297 15.568359 L 13.095703 15.568359 z M 16.855469 15.568359 L 16.855469 17.064453 C 16.855469 17.378553 17.011565 17.556641 17.314453 17.556641 C 17.617342 17.556641 17.775391 17.378553 17.775391 17.064453 L 17.775391 15.568359 L 17.482422 15.568359 L 17.482422 17.083984 C 17.482422 17.224184 17.422377 17.273438 17.324219 17.273438 C 17.226059 17.273438 17.164062 17.223684 17.164062 17.083984 L 17.164062 15.568359 L 16.855469 15.568359 z M 17.984375 15.568359 L 17.984375 17.53125 L 18.261719 17.53125 L 18.261719 16.109375 L 18.646484 17.53125 L 18.962891 17.53125 L 18.962891 15.568359 L 18.6875 15.568359 L 18.6875 16.744141 L 18.371094 15.568359 L 17.984375 15.568359 z M 19.095703 15.568359 L 19.095703 15.849609 L 19.417969 15.849609 L 19.417969 17.53125 L 19.726562 17.53125 L 19.726562 15.849609 L 20.050781 15.849609 L 20.050781 15.568359 L 19.095703 15.568359 z M 16.201172 15.826172 C 16.299332 15.826172 16.359375 15.880984 16.359375 16.021484 L 16.359375 17.080078 C 16.359375 17.220278 16.29933 17.273438 16.201172 17.273438 C 16.103012 17.273438 16.041016 17.220578 16.041016 17.080078 L 16.041016 16.021484 C 16.041016 15.881184 16.103014 15.826172 16.201172 15.826172 z M 12.257812 15.849609 L 12.431641 15.849609 C 12.529801 15.849609 12.589844 15.900316 12.589844 16.041016 L 12.589844 17.060547 C 12.589844 17.200847 12.529804 17.251953 12.431641 17.251953 L 12.257812 17.251953 L 12.257812 15.849609 z " font-family="Bebas Neue" font-weight="700" letter-spacing="0" transform="translate(0 1020.362)" word-spacing="0"/><path style="line-height:125%;-inkscape-font-specification:'Bebas Neue Bold';text-align:center" fill="#d31206" d="M19.042969 10.714844C18.832419 10.714844 18.724609 10.8414 18.724609 11.0625 18.724609 11.4561 19.148437 11.509669 19.148438 11.792969 19.148438 11.890969 19.104026 11.927734 19.035156 11.927734 18.966256 11.927734 18.923828 11.892269 18.923828 11.792969L18.923828 11.695312 18.71875 11.695312 18.71875 11.779297C18.71875 11.999697 18.828506 12.125 19.041016 12.125 19.253536 12.125 19.365234 12.000297 19.365234 11.779297 19.365234 11.385597 18.941406 11.332128 18.941406 11.048828 18.941406 10.950828 18.979998 10.914062 19.048828 10.914062 19.117728 10.914062 19.158203 10.950028 19.158203 11.048828L19.158203 11.105469 19.363281 11.105469 19.363281 11.0625C19.363281 10.8421 19.253519 10.714844 19.042969 10.714844zM11.931641 10.732422L12.144531 12.109375 12.466797 12.109375 12.679688 10.732422 12.480469 10.732422 12.314453 11.855469 12.150391 10.732422 11.931641 10.732422zM12.892578 10.732422L12.673828 12.109375 12.871094 12.109375 12.908203 11.859375 13.173828 11.859375 13.212891 12.109375 13.429688 12.109375 13.210938 10.732422 12.892578 10.732422zM13.529297 10.732422L13.529297 12.109375 14.101562 12.109375 14.101562 11.912109 13.746094 11.912109 13.746094 10.732422 13.529297 10.732422zM14.197266 10.732422L14.197266 12.109375 14.789062 12.109375 14.789062 11.912109 14.414062 11.912109 14.414062 11.509766 14.710938 11.509766 14.710938 11.3125 14.414062 11.3125 14.414062 10.929688 14.789062 10.929688 14.789062 10.732422 14.197266 10.732422zM14.917969 10.732422L14.917969 12.109375 15.113281 12.109375 15.113281 11.111328 15.382812 12.109375 15.605469 12.109375 15.605469 10.732422 15.412109 10.732422 15.412109 11.556641 15.189453 10.732422 14.917969 10.732422zM15.699219 10.732422L15.699219 10.929688 15.925781 10.929688 15.925781 12.109375 16.142578 12.109375 16.142578 10.929688 16.369141 10.929688 16.369141 10.732422 15.699219 10.732422zM16.460938 10.732422L16.460938 12.109375 16.677734 12.109375 16.677734 10.732422 16.460938 10.732422zM16.832031 10.732422L16.832031 12.109375 17.027344 12.109375 17.027344 11.111328 17.296875 12.109375 17.519531 12.109375 17.519531 10.732422 17.326172 10.732422 17.326172 11.556641 17.103516 10.732422 16.832031 10.732422zM17.675781 10.732422L17.675781 12.109375 18.265625 12.109375 18.265625 11.912109 17.892578 11.912109 17.892578 11.509766 18.189453 11.509766 18.189453 11.3125 17.892578 11.3125 17.892578 10.929688 18.265625 10.929688 18.265625 10.732422 17.675781 10.732422zM18.392578 10.732422L18.421875 11.138672 18.570312 11.138672 18.601562 10.732422 18.392578 10.732422zM13.041016 10.976562L13.144531 11.673828 12.9375 11.673828 13.041016 10.976562zM13.603516 12.828125C13.392976 12.828125 13.285156 12.954128 13.285156 13.173828L13.285156 13.175781C13.285156 13.569381 13.708984 13.62275 13.708984 13.90625 13.708984 14.00425 13.664553 14.041016 13.595703 14.041016 13.526803 14.041016 13.484375 14.00555 13.484375 13.90625L13.484375 13.808594 13.279297 13.808594 13.279297 13.892578C13.279297 14.112878 13.389063 14.238281 13.601562 14.238281 13.814072 14.238281 13.923828 14.112278 13.923828 13.892578 13.923828 13.498978 13.501953 13.445409 13.501953 13.162109 13.501953 13.063109 13.540535 13.027344 13.609375 13.027344 13.678275 13.027344 13.71875 13.063209 13.71875 13.162109L13.71875 13.21875 13.921875 13.21875 13.921875 13.173828C13.921875 12.953528 13.814056 12.828125 13.603516 12.828125zM15.816406 12.830078C15.603896 12.830078 15.492188 12.954581 15.492188 13.175781L15.492188 13.892578C15.492188 14.112878 15.603896 14.238281 15.816406 14.238281 16.028906 14.238281 16.138672 14.112278 16.138672 13.892578L16.138672 13.708984 15.933594 13.708984 15.933594 13.90625C15.933594 14.00425 15.891116 14.041016 15.822266 14.041016 15.753366 14.041016 15.708984 14.00555 15.708984 13.90625L15.708984 13.162109C15.708984 13.063109 15.753406 13.027344 15.822266 13.027344 15.891166 13.027344 15.933594 13.063209 15.933594 13.162109L15.933594 13.310547 16.138672 13.310547 16.138672 13.175781C16.138672 12.955381 16.028916 12.830078 15.816406 12.830078zM14.046875 12.845703L14.046875 14.222656 14.263672 14.222656 14.263672 13.705078 14.365234 13.705078C14.581674 13.705078 14.6875 13.585034 14.6875 13.365234L14.6875 13.185547C14.6875 12.965147 14.581674 12.845703 14.365234 12.845703L14.046875 12.845703zM14.789062 12.845703L14.789062 14.222656 15.378906 14.222656 15.378906 14.027344 15.003906 14.027344 15.003906 13.623047 15.302734 13.623047 15.302734 13.425781 15.003906 13.425781 15.003906 13.042969 15.378906 13.042969 15.378906 12.845703 14.789062 12.845703zM16.271484 12.845703L16.271484 14.222656 16.488281 14.222656 16.488281 12.845703 16.271484 12.845703zM16.808594 12.845703L16.587891 14.222656 16.787109 14.222656 16.824219 13.972656 17.089844 13.972656 17.126953 14.222656 17.345703 14.222656 17.125 12.845703 16.808594 12.845703zM17.443359 12.845703L17.443359 14.222656 18.015625 14.222656 18.015625 14.027344 17.660156 14.027344 17.660156 12.845703 17.443359 12.845703zM14.263672 13.042969L14.365234 13.042969C14.434134 13.042969 14.470703 13.073175 14.470703 13.171875L14.470703 13.378906C14.470703 13.476906 14.434074 13.507812 14.365234 13.507812L14.263672 13.507812 14.263672 13.042969zM16.955078 13.089844L17.060547 13.787109 16.851562 13.787109 16.955078 13.089844z" font-family="Bebas Neue" font-size="2.576" font-weight="700" letter-spacing="0" text-anchor="middle" transform="translate(0 1020.362)" word-spacing="0"/><path fill="#d31206" fill-rule="evenodd" d="m 15.19876,1039.3211 c -0.14518,0 -0.29038,0.055 -0.40161,0.1669 -0.22244,0.2223 -0.22245,0.5807 0,0.8033 l 0.0422,0.043 0.8084,0.8187 0.80839,-0.8187 0.0422,-0.043 c 0.22245,-0.2226 0.22245,-0.581 0,-0.8033 -0.22244,-0.2224 -0.58077,-0.2224 -0.80322,0 l -0.0474,0.047 -0.0474,-0.047 c -0.11122,-0.1115 -0.25643,-0.1669 -0.40161,-0.1669 z"/><path fill="#a80e05" fill-rule="evenodd" d="M12.75824 1039.5324c-.11172 0-.22345.043-.30903.1282-.17117.1712-.17117.4469 0 .6181l.0325.032.62203.6301.62203-.6301.0325-.032c.17117-.1712.17117-.4469 0-.6181-.17116-.1711-.44688-.1711-.61805 0l-.0365.037-.0365-.037c-.0856-.085-.19731-.1282-.30903-.1282zM17.76787 1039.5324c-.11171 0-.22345.043-.30903.1282-.17116.1712-.17117.4469 0 .6181l.0325.032.62204.6301.62203-.6301.0325-.032c.17117-.1712.17116-.4469 0-.6181-.17116-.1711-.44689-.1711-.61805 0l-.0365.037-.0365-.037c-.0856-.085-.19731-.1282-.30903-.1282z"/></g></svg>