<svg xmlns="http://www.w3.org/2000/svg" width="32" height="32" viewBox="0 0 32 32"><g transform="translate(0 -1020.362)"><path fill="#fc0" d="m 22.984538,1048.4345 c -0.497115,0.2824 -3.793246,-0.7899 -4.34886,-0.6551 -0.53621,0.1301 -2.85261,2.5659 -3.403552,2.5358 -0.570878,-0.031 -2.76405,-2.7152 -3.304335,-2.9022 -0.521418,-0.1805 -3.7869915,0.6163 -4.2342002,0.2931 -0.4633914,-0.3349 -0.8572876,-3.7786 -1.2107077,-4.228 -0.3410779,-0.4337 -3.5190288,-1.5289 -3.7205187,-2.0426 -0.208781,-0.5322 1.3216578,-3.6422 1.267311,-4.2113 -0.052449,-0.5493 -2.1337997,-3.1888 -2.0255992,-3.7298 0.1121159,-0.5607 3.0809862,-2.3495 3.3429675,-2.8577 0.2528323,-0.4904 -0.071104,-3.8362 0.3124337,-4.2328 0.3974167,-0.411 3.8621232,-0.3108 4.3572556,-0.5967 0.477841,-0.2759 2.014166,-3.2656 2.551271,-3.392 0.55654,-0.1309 3.417063,1.8266 3.988145,1.8538 0.551139,0.026 3.459953,-1.6583 3.980098,-1.4742 0.538967,0.1908 1.88711,3.384 2.352828,3.7157 0.449453,0.32 3.807229,0.4755 4.145272,0.9116 0.350274,0.4519 -0.241988,3.867 -0.0295,4.3978 0.20507,0.5123 2.945738,2.4584 2.994351,3.008 0.05037,0.5696 -2.294255,3.1224 -2.402455,3.6838 -0.104422,0.5418 1.148994,3.6607 0.892745,4.1494 -0.265522,0.5063 -3.618114,1.3863 -4.012652,1.8001 -0.38076,0.3993 -1.012546,3.7008 -1.492301,3.9733 z"/><path fill="#3477e0" d="m 21.921762,1046.5973 c -0.421474,0.2395 -3.216061,-0.6697 -3.687131,-0.5554 -0.45462,0.1103 -2.418554,2.1755 -2.885664,2.15 -0.484013,-0.026 -2.34347,-2.3021 -2.801544,-2.4607 -0.442078,-0.153 -3.2107573,0.5226 -3.5899181,0.2486 -0.3928811,-0.284 -0.7268427,-3.2037 -1.0264859,-3.5847 -0.289179,-0.3677 -2.9835678,-1.2963 -3.1543988,-1.7318 -0.1770126,-0.4512 1.1205513,-3.088 1.0744741,-3.5705 -0.044468,-0.4657 -1.8091167,-2.7036 -1.7173802,-3.1623 0.095056,-0.4753 2.6121782,-1.992 2.8342961,-2.4228 0.2143611,-0.4158 -0.060284,-3.2525 0.2648946,-3.5888 0.3369452,-0.3485 3.2744572,-0.2635 3.6942492,-0.5059 0.405132,-0.2339 1.707689,-2.7687 2.163067,-2.8758 0.471857,-0.111 2.897119,1.5486 3.381304,1.5717 0.467277,0.022 2.933482,-1.406 3.374481,-1.2499 0.456957,0.1617 1.599966,2.8691 1.994819,3.1503 0.381064,0.2713 3.227916,0.4032 3.514522,0.7729 0.296976,0.3831 -0.205165,3.2786 -0.02501,3.7286 0.173866,0.4343 2.497508,2.0844 2.538725,2.5504 0.04271,0.4828 -1.945157,2.6472 -2.036893,3.1232 -0.08853,0.4593 0.97416,3.1037 0.756902,3.518 -0.225119,0.4293 -3.067576,1.1754 -3.40208,1.5262 -0.322824,0.3385 -0.858477,3.1376 -1.265232,3.3687 z"/><path fill="#fc0" d="m 7.293841,1032.9572 16.909884,0 c 1.752598,0 3.163535,0.084 3.163535,0.1867 l 1.085234,1.8725 -1.788767,2.5612 0.703533,2.3984 c 0.02955,0.1009 -1.410937,0.1866 -3.163535,0.1866 l -16.909884,0 c -1.752598,0 -3.163535,-0.083 -3.163535,-0.1866 l 0,-6.8321 c 0,-0.1035 1.410937,-0.1867 3.163535,-0.1867 z"/><path style="line-height:125%;-inkscape-font-specification:'Bebas Neue Bold'" fill="#3477e0" d="m 8.5267519,1033.8583 c -0.7996939,0 -1.2109376,0.4774 -1.2109376,1.3144 0,1.4948 1.6074219,1.6973 1.6074219,2.7735 0,0.3737 -0.1641991,0.5078 -0.4257812,0.5078 -0.2615821,0 -0.4257813,-0.1341 -0.4257813,-0.5078 l 0,-0.3731 -0.7773437,0 0,0.3204 c 0,0.837 0.4174418,1.3164 1.2246093,1.3164 0.8071676,0 1.2265625,-0.4794 1.2265626,-1.3164 0,-1.4948 -1.6074219,-1.6953 -1.6074219,-2.7715 0,-0.3737 0.1505272,-0.5157 0.4121093,-0.5157 0.2615822,0 0.4101563,0.142 0.4101563,0.5157 l 0,0.2168 0.7773437,0 0,-0.1661 c 0,-0.837 -0.4112436,-1.3144 -1.2109374,-1.3144 z m 8.4023441,0 c -0.807169,0 -1.226563,0.4774 -1.226563,1.3144 l 0,2.7208 c 0,0.837 0.419394,1.3164 1.226563,1.3164 0.807168,0 1.224609,-0.4794 1.224609,-1.3164 l 0,-0.6954 -0.775391,0 0,0.7481 c 0,0.3737 -0.166152,0.5078 -0.427734,0.5078 -0.261582,0 -0.425781,-0.1341 -0.425781,-0.5078 l 0,-2.8242 c 0,-0.3737 0.164199,-0.5157 0.425781,-0.5157 0.261582,0 0.427734,0.142 0.427734,0.5157 l 0,0.5605 0.775391,0 0,-0.5098 c 0,-0.837 -0.417442,-1.3144 -1.224609,-1.3144 z m -6.720704,0.06 0,5.2305 0.822266,0 0,-1.9648 0.388672,0 c 0.822115,0 1.226562,-0.4559 1.226562,-1.293 l 0,-0.6797 c 0,-0.8371 -0.404447,-1.293 -1.226562,-1.293 l -1.210938,0 z m 2.81836,0 0,5.2305 2.242187,0 0,-0.7461 -1.419922,0 0,-1.5332 1.126953,0 0,-0.748 -1.126953,0 0,-1.4571 1.419922,0 0,-0.7461 -2.242187,0 z m 5.634765,0 0,5.2305 0.822266,0 0,-5.2305 -0.822266,0 z m 2.035157,0 -0.835938,5.2305 0.753906,0 0.142578,-0.9492 1.007813,0 0.142578,0.9492 0.830078,0 -0.83789,-5.2305 -1.203125,0 z m 2.416015,0 0,5.2305 2.175781,0 0,-0.7461 -1.353515,0 0,-4.4844 -0.822266,0 z m -12.082031,0.7461 0.388672,0 c 0.261582,0 0.404297,0.1205 0.404297,0.4942 l 0,0.7851 c 0,0.3737 -0.142715,0.4922 -0.404297,0.4922 l -0.388672,0 0,-1.7715 z m 10.226562,0.1797 0.396485,2.6465 -0.792969,0 0.396484,-2.6465 z" font-family="Bebas Neue" font-size="7.474" font-weight="700" letter-spacing="0" word-spacing="0"/><path style="line-height:125%;-inkscape-font-specification:'Bebas Neue Bold'" fill="#fc0" d="M9.8066414 1029.4852l.4160156 2.6934.630859 0 .416016-2.6934-.388672 0-.324219 2.1973-.322265-2.1973-.4277346 0zm1.8808596 0l-.429688 2.6934.388672 0 .07227-.4883.519531 0 .07226.4883.427735 0-.429688-2.6934-.621093 0zm1.24414 0l0 2.6934 1.119141 0 0-.3848-.695313 0 0-2.3086-.423828 0zm1.308594 0l0 2.6934 1.152344 0 0-.3848-.730469 0 0-.789.582031 0 0-.3848-.582031 0 0-.75.730469 0 0-.3848-1.152344 0zm1.408203 0l0 2.6934.380859 0 0-1.9512.527344 1.9512.433594 0 0-2.6934-.376953 0 0 1.6114-.433594-1.6114-.53125 0zm1.525391 0l0 .3848.443359 0 0 2.3086.421875 0 0-2.3086.44336 0 0-.3848-1.308594 0zm1.492187 0l0 2.6934.421875 0 0-2.6934-.421875 0zm.72461 0l0 2.6934.380859 0 0-1.9512.527344 1.9512.433594 0 0-2.6934-.376954 0 0 1.6114-.433593-1.6114-.53125 0zm1.648437 0l0 2.6934 1.154297 0 0-.3848-.730469 0 0-.789.580078 0 0-.3848-.580078 0 0-.75.730469 0 0-.3848-1.154297 0zm-9.0625.4766l.205078 1.3633-.408203 0 .203125-1.3633zM13.313478 1040.8563c-.411649 0-.623047.2469-.623047.6778 0 .7694.828125.8737.828125 1.4277 0 .1923-.08605.2617-.220703.2617-.134651 0-.21875-.069-.21875-.2617l0-.1933-.400391 0 0 .166c0 .4309.215364.6777.63086.6777.415496 0 .630859-.2468.630859-.6777 0-.7694-.826172-.8738-.826172-1.4278 0-.1923.07628-.2656.210938-.2656.134652 0 .210937.073.210937.2656l0 .1114.400391 0 0-.084c0-.4309-.211398-.6778-.623047-.6778zm1.462891 0c-.415496 0-.63086.2469-.63086.6778l0 1.4004c0 .4309.215364.6777.63086.6777.415496 0 .630859-.2468.630859-.6777l0-.3575-.400391 0 0 .3848c0 .1923-.0841.2617-.21875.2617-.134651 0-.220703-.069-.220703-.2617l0-1.4551c0-.1923.08605-.2656.220703-.2656.134652 0 .21875.073.21875.2656l0 .2891.400391 0 0-.2617c0-.4309-.215363-.6778-.630859-.6778zm1.498046 0c-.415497 0-.642578.2469-.642578.6778l0 1.4004c0 .4309.227081.6777.642578.6777.415497 0 .642579-.2468.642579-.6777l0-1.4004c0-.4309-.227083-.6778-.642579-.6778zm-5.830078.031l0 2.6934.669922 0c.42319 0 .63086-.2352.63086-.6661l0-1.3613c0-.4309-.20767-.666-.63086-.666l-.669922 0zm1.570313 0l0 2.6934.423828 0 0-2.6934-.423828 0zm5.158203 0l0 2.0508c0 .4309.215363.6777.630859.6777.415497 0 .63086-.2468.63086-.6777l0-2.0508-.398438 0 0 2.0781c0 .1924-.08605.2617-.220703.2617-.134652 0-.21875-.069-.21875-.2617l0-2.0781-.423828 0zm1.548828 0l0 2.6934.38086 0 0-1.9512.527343 1.9512.433594 0 0-2.6934-.376953 0 0 1.6113-.433594-1.6113-.53125 0zm1.525391 0l0 .3848.443359 0 0 2.3086.423828 0 0-2.3086.441406 0 0-.3848-1.308593 0zm-3.972657.3535c.134652 0 .220704.073.220704.2656l0 1.4551c0 .1923-.08605.2656-.220704.2656-.134651 0-.21875-.073-.21875-.2656l0-1.4551c0-.1923.0841-.2656.21875-.2656zm-5.40625.031l.238282 0c.134652 0 .214844.069.214844.2617l0 1.4004c0 .1924-.08019.2617-.214844.2617l-.238282 0 0-1.9238z" font-family="Bebas Neue" font-size="3.847" font-weight="700" letter-spacing="0" word-spacing="0"/></g></svg>