<svg xmlns="http://www.w3.org/2000/svg" width="32" height="32" viewBox="0 0 32 32"><g transform="translate(0 -1020.362)"><path fill="#13b53e" d="m -5e-7,1032.4061 32.0000005,0 -2.155231,3.956 2.155231,3.956 -32.0000005,0 2.153831,-3.956 z"/><path fill="#18a12b" d="m 1.4065865,1033.2265 29.1868275,0 -1.96577,3.1356 1.96577,3.1355 -29.1868275,0 1.964499,-3.1355 z"/><path fill="#f2f2f2" d="m 299.3316,1179.2456 c -0.15476,0.089 -1.17866,-0.2983 -1.35126,-0.252 -0.17261,0.046 -0.86555,0.8938 -1.04424,0.8938 -0.1787,0 -0.87164,-0.8476 -1.04424,-0.8938 -0.17261,-0.046 -1.19651,0.3413 -1.35126,0.252 -0.15475,-0.089 -0.33107,-1.1699 -0.45742,-1.2962 -0.12636,-0.1264 -1.20686,-0.3027 -1.29621,-0.4575 -0.0894,-0.1547 0.29822,-1.1786 0.25197,-1.3512 -0.0463,-0.1726 -0.89384,-0.8656 -0.89384,-1.0443 0,-0.1787 0.84759,-0.8716 0.89384,-1.0442 0.0462,-0.1726 -0.34132,-1.1965 -0.25197,-1.3513 0.0894,-0.1547 1.16985,-0.331 1.29621,-0.4574 0.12635,-0.1263 0.30267,-1.2068 0.45742,-1.2962 0.15475,-0.089 1.17865,0.2982 1.35126,0.252 0.1726,-0.046 0.86554,-0.8939 1.04424,-0.8939 0.17869,0 0.87163,0.8476 1.04424,0.8939 0.1726,0.046 1.1965,-0.3413 1.35126,-0.252 0.15475,0.089 0.33106,1.1699 0.45741,1.2962 0.12636,0.1264 1.20687,0.3027 1.29621,0.4574 0.0894,0.1548 -0.29821,1.1787 -0.25197,1.3513 0.0462,0.1726 0.89385,0.8655 0.89385,1.0442 0,0.1787 -0.8476,0.8717 -0.89385,1.0443 -0.0462,0.1726 0.34132,1.1965 0.25197,1.3512 -0.0893,0.1548 -1.16985,0.3311 -1.29621,0.4575 -0.12635,0.1263 -0.30266,1.2068 -0.45741,1.2962 z" transform="rotate(-14.835 -6187.826 4485.491) scale(2.33151)"/><path fill="#13b53e" d="m 299.3316,1179.2456 c -0.15476,0.089 -1.17866,-0.2983 -1.35126,-0.252 -0.17261,0.046 -0.86555,0.8938 -1.04424,0.8938 -0.1787,0 -0.87164,-0.8476 -1.04424,-0.8938 -0.17261,-0.046 -1.19651,0.3413 -1.35126,0.252 -0.15475,-0.089 -0.33107,-1.1699 -0.45742,-1.2962 -0.12636,-0.1264 -1.20686,-0.3027 -1.29621,-0.4575 -0.0894,-0.1547 0.29822,-1.1786 0.25197,-1.3512 -0.0463,-0.1726 -0.89384,-0.8656 -0.89384,-1.0443 0,-0.1787 0.84759,-0.8716 0.89384,-1.0442 0.0462,-0.1726 -0.34132,-1.1965 -0.25197,-1.3513 0.0894,-0.1547 1.16985,-0.331 1.29621,-0.4574 0.12635,-0.1263 0.30267,-1.2068 0.45742,-1.2962 0.15475,-0.089 1.17865,0.2982 1.35126,0.252 0.1726,-0.046 0.86554,-0.8939 1.04424,-0.8939 0.17869,0 0.87163,0.8476 1.04424,0.8939 0.1726,0.046 1.1965,-0.3413 1.35126,-0.252 0.15475,0.089 0.33106,1.1699 0.45741,1.2962 0.12636,0.1264 1.20687,0.3027 1.29621,0.4574 0.0894,0.1548 -0.29821,1.1787 -0.25197,1.3513 0.0462,0.1726 0.89385,0.8655 0.89385,1.0442 0,0.1787 -0.8476,0.8717 -0.89385,1.0443 -0.0462,0.1726 0.34132,1.1965 0.25197,1.3512 -0.0893,0.1548 -1.16985,0.3311 -1.29621,0.4575 -0.12635,0.1263 -0.30266,1.2068 -0.45741,1.2962 z" transform="rotate(-14.835 -5414.962 4179.486) scale(2.15443)"/><path fill="#18a12b" d="m 298.97195,1178.6239 c -0.13121,0.076 -0.99931,-0.2529 -1.14565,-0.2137 -0.14634,0.039 -0.73385,0.7579 -0.88535,0.7579 -0.1515,0 -0.73901,-0.7186 -0.88535,-0.7579 -0.14634,-0.039 -1.01444,0.2894 -1.14565,0.2137 -0.1312,-0.076 -0.28069,-0.9919 -0.38782,-1.099 -0.10712,-0.1071 -1.02322,-0.2566 -1.09897,-0.3878 -0.0757,-0.1312 0.25284,-0.9993 0.21363,-1.1457 -0.0392,-0.1463 -0.75784,-0.7338 -0.75784,-0.8853 0,-0.1515 0.71863,-0.739 0.75784,-0.8854 0.0392,-0.1463 -0.28938,-1.0144 -0.21363,-1.1456 0.0758,-0.1312 0.99185,-0.2807 1.09897,-0.3878 0.10713,-0.1072 0.25662,-1.0233 0.38782,-1.099 0.13121,-0.076 0.99931,0.2528 1.14565,0.2136 0.14634,-0.039 0.73385,-0.7578 0.88535,-0.7578 0.1515,0 0.73901,0.7186 0.88535,0.7578 0.14634,0.039 1.01444,-0.2894 1.14565,-0.2136 0.1312,0.076 0.28069,0.9918 0.38781,1.099 0.10713,0.1071 1.02323,0.2566 1.09898,0.3878 0.0758,0.1312 -0.25284,0.9993 -0.21363,1.1456 0.0392,0.1464 0.75783,0.7339 0.75783,0.8854 0,0.1515 -0.71862,0.739 -0.75783,0.8853 -0.0392,0.1464 0.28938,1.0145 0.21363,1.1457 -0.0757,0.1312 -0.99185,0.2807 -1.09898,0.3878 -0.10713,0.1071 -0.25661,1.0232 -0.38781,1.099 z" transform="rotate(-14.835 -5414.962 4179.486) scale(2.15443)"/><path fill="#13b53e" d="m 9.6403805,1033.2722 12.3242235,0.2482 c 1.277514,0.026 2.267606,-0.032 2.308369,0.047 l 0.788371,1.5158 -1.134654,2.1879 1.17673,2.2695 c 0.04072,0.078 -1.875025,-0.039 -3.152519,-0.062 l -12.3242225,-0.2482 c -1.277515,-0.026 -2.308692,0.043 -2.308412,-0.047 l 0.01939,-5.9562 c 2.8e-4,-0.088 3.5804105,0.073 2.302896,0.047 z"/><path style="line-height:125%;-inkscape-font-specification:'Bebas Neue Bold'" fill="#f2f2f2" d="M 11.371094 13.673828 L 11.357422 18.265625 L 12.080078 18.265625 L 12.085938 16.371094 L 13.017578 16.371094 L 13.017578 15.714844 L 12.087891 15.714844 L 12.091797 14.339844 L 13.277344 14.339844 L 13.279297 13.683594 L 11.371094 13.673828 z M 16.265625 13.6875 L 16.251953 18.279297 L 18.220703 18.291016 L 18.222656 17.634766 L 16.976562 17.634766 L 16.980469 16.289062 L 17.970703 16.289062 L 17.972656 15.632812 L 16.982422 15.632812 L 16.984375 14.353516 L 18.230469 14.353516 L 18.232422 13.699219 L 16.265625 13.6875 z M 13.626953 13.691406 L 13.613281 18.283203 L 14.333984 18.283203 L 14.339844 16.414062 L 14.589844 16.414062 C 14.917828 16.414963 15.061774 16.5736 15.060547 17 L 15.056641 17.720703 C 15.055541 18.094603 15.082074 18.166956 15.121094 18.285156 L 15.855469 18.285156 C 15.784515 18.115107 15.778659 17.950826 15.779297 17.728516 L 15.78125 17.021484 C 15.78265 16.542584 15.665035 16.193016 15.304688 16.041016 C 15.626546 15.891116 15.777938 15.583628 15.779297 15.111328 L 15.78125 14.75 C 15.78325 14.0416 15.462648 13.693606 14.714844 13.691406 L 13.626953 13.691406 z M 18.673828 13.695312 L 18.660156 18.287109 L 20.628906 18.296875 L 20.630859 17.640625 L 19.384766 17.640625 L 19.388672 16.296875 L 20.378906 16.296875 L 20.380859 15.640625 L 19.390625 15.640625 L 19.394531 14.361328 L 20.640625 14.361328 L 20.642578 13.705078 L 18.673828 13.695312 z M 14.345703 14.347656 L 14.693359 14.347656 C 14.949187 14.348356 15.059538 14.492312 15.058594 14.820312 L 15.058594 15.273438 C 15.057494 15.640838 14.891995 15.758612 14.623047 15.757812 L 14.341797 15.757812 L 14.345703 14.347656 z " font-family="Bebas Neue" font-size="6.56" font-weight="700" letter-spacing="0" transform="translate(0 1020.362)" word-spacing="0"/></g></svg>