<svg xmlns="http://www.w3.org/2000/svg" width="32" height="32" viewBox="0 0 32 32"><g transform="translate(0 -1020.362)"><path fill="#ff9500" d="M28 1029.7109l0 6.7603-3.667944-.4056-8.266128-.9148 0-6.7604 8.266128.9147zM4 1042.4355l0-6.7603 3.667968.4058 8.266128.9146 0 6.7604-8.266128-.9144z"/><path fill="#a80e05" d="m 21.921144,1046.5867 c -0.421027,0.2392 -3.212658,-0.669 -3.68323,-0.5548 -0.454139,0.1102 -2.415996,2.1731 -2.882611,2.1476 -0.483501,-0.026 -2.340991,-2.2996 -2.798581,-2.458 -0.441609,-0.1528 -3.2073601,0.522 -3.5861199,0.2483 -0.3924655,-0.2836 -0.7260737,-3.2003 -1.0253999,-3.5809 -0.2888731,-0.3673 -2.9804116,-1.2949 -3.1510618,-1.7299 -0.1768254,-0.4508 1.1193659,-3.0848 1.0733374,-3.5668 -0.044421,-0.4652 -1.8072029,-2.7007 -1.7155634,-3.1589 0.094956,-0.4748 2.6094149,-1.9899 2.8312978,-2.4203 0.2141343,-0.4154 -0.06022,-3.249 0.2646143,-3.585 0.3365887,-0.3481 3.2709925,-0.2632 3.6903415,-0.5053 0.404703,-0.2337 1.705882,-2.7658 2.160778,-2.8728 0.471358,-0.1109 2.894054,1.547 3.377727,1.57 0.466783,0.022 2.930379,-1.4044 3.370912,-1.2485 0.456473,0.1615 1.598273,2.866 1.992708,3.1469 0.380661,0.2711 3.224501,0.4028 3.510804,0.7721 0.296662,0.3827 -0.204948,3.2752 -0.02498,3.7247 0.173683,0.4338 2.494867,2.0821 2.53604,2.5476 0.04266,0.4824 -1.943099,2.6445 -2.034739,3.1199 -0.08844,0.4589 0.97313,3.1005 0.756102,3.5143 -0.224881,0.4289 -3.064331,1.1742 -3.398481,1.5246 -0.322482,0.3382 -0.857569,3.1344 -1.263894,3.3652 z"/><path fill="#d31206" d="m 21.021052,1045.0304 c -0.356964,0.2028 -2.723817,-0.5672 -3.122786,-0.4704 -0.385036,0.093 -2.048375,1.8425 -2.44399,1.8209 -0.40993,-0.022 -1.984782,-1.9497 -2.372744,-2.084 -0.374414,-0.1296 -2.719325,0.4426 -3.040452,0.2105 -0.3327478,-0.2405 -0.615594,-2.7133 -0.8693743,-3.036 -0.2449178,-0.3114 -2.5269083,-1.0979 -2.6715923,-1.4667 -0.1499195,-0.3822 0.9490416,-2.6154 0.9100169,-3.0241 -0.037662,-0.3944 -1.5322164,-2.2897 -1.454521,-2.6782 0.080507,-0.4026 2.212363,-1.6871 2.4004839,-2.052 0.1815514,-0.3522 -0.051057,-2.7547 0.2243504,-3.0395 0.285373,-0.2951 2.7732744,-0.2232 3.1288144,-0.4285 0.343123,-0.1981 1.446313,-2.3449 1.831992,-2.4356 0.399635,-0.094 2.453691,1.3116 2.863768,1.3311 0.395756,0.019 2.484489,-1.1908 2.85799,-1.0586 0.387015,0.137 1.355078,2.43 1.689495,2.6681 0.322739,0.2298 2.733857,0.3415 2.976596,0.6546 0.251521,0.3245 -0.173763,2.7769 -0.02118,3.158 0.147255,0.3678 2.115245,1.7653 2.150153,2.16 0.03617,0.4089 -1.647435,2.242 -1.72513,2.6451 -0.07498,0.3891 0.825057,2.6287 0.641052,2.9796 -0.190663,0.3636 -2.598058,0.9955 -2.881364,1.2926 -0.273413,0.2867 -0.72708,2.6574 -1.071578,2.8531 z"/><path fill="#fc0" d="m 4.013848,1035.6656 0,6.7939 3.686112,-0.9163 16.613928,-4.1302 3.686112,-0.9163 0,-6.7937 -3.686112,0.9161 -16.613928,4.1301 -3.686112,0.9164 z"/><path style="line-height:125%;-inkscape-font-specification:'Bebas Neue Bold'" fill="#fff" d="M21.009766 12.759766L20.472656 12.894531 20.472656 16.318359 21.894531 15.964844 21.894531 15.474609 21.009766 15.695312 21.009766 12.759766zM19.677734 13.091797L18.890625 13.287109 18.34375 16.847656 18.837891 16.724609 18.929688 16.080078 19.589844 15.916016 19.683594 16.513672 20.226562 16.378906 19.677734 13.091797zM18.095703 13.484375L17.558594 13.619141 17.558594 17.042969 18.095703 16.908203 18.095703 13.484375zM19.257812 13.802734L19.517578 15.46875 18.998047 15.597656 19.257812 13.802734zM16.773438 13.832031C16.673465 13.818966 16.555902 13.828503 16.423828 13.861328 15.895532 13.992628 15.623047 14.373975 15.623047 14.921875L15.623047 16.701172C15.623047 17.249072 15.895532 17.494581 16.423828 17.363281 16.952124 17.231981 17.226562 16.850634 17.226562 16.302734L17.226562 15.847656 16.71875 15.974609 16.71875 16.462891C16.71875 16.707391 16.61066 16.822734 16.439453 16.865234 16.268246 16.908234 16.160156 16.845763 16.160156 16.601562L16.160156 14.753906C16.160156 14.509306 16.268246 14.388303 16.439453 14.345703 16.61066 14.302703 16.71875 14.371034 16.71875 14.615234L16.71875 14.982422 17.226562 14.855469 17.226562 14.523438C17.226562 14.112512 17.073355 13.871228 16.773438 13.832031zM15.337891 14.169922L13.871094 14.535156 13.871094 17.958984 15.337891 17.59375 15.337891 17.105469 14.408203 17.335938 14.408203 16.333984 15.146484 16.150391 15.146484 15.660156 14.408203 15.84375 14.408203 14.890625 15.337891 14.660156 15.337891 14.169922zM13.171875 14.763672C13.071444 14.752098 12.952879 14.76345 12.818359 14.796875L12.025391 14.994141 12.025391 18.417969 12.564453 18.283203 12.564453 16.998047 12.818359 16.933594C13.356438 16.799894 13.621094 16.436472 13.621094 15.888672L13.621094 15.443359C13.621094 15.032509 13.473169 14.798392 13.171875 14.763672zM11.269531 15.199219C11.170705 15.185872 11.056632 15.195991 10.925781 15.228516 10.402377 15.358616 10.132813 15.737256 10.132812 16.285156 10.132812 17.263456 11.185547 17.135444 11.185547 17.839844 11.185547 18.084344 11.077457 18.199588 10.90625 18.242188 10.735043 18.285187 10.626953 18.222816 10.626953 17.978516L10.626953 17.734375 10.119141 17.859375 10.119141 18.070312C10.119141 18.618213 10.391627 18.863722 10.919922 18.732422 11.448218 18.601122 11.722656 18.219775 11.722656 17.671875 11.722656 16.693575 10.671875 16.821588 10.671875 16.117188 10.671875 15.872588 10.768243 15.755491 10.939453 15.712891 11.11066 15.669891 11.208984 15.739675 11.208984 15.984375L11.208984 16.126953 11.71875 16 11.71875 15.892578C11.71875 15.481653 11.56601 15.239259 11.269531 15.199219zM12.931641 15.273438C13.030008 15.282264 13.082031 15.358994 13.082031 15.542969L13.082031 16.056641C13.082031 16.301241 12.989566 16.402812 12.818359 16.445312L12.564453 16.507812 12.564453 15.347656 12.818359 15.285156C12.861161 15.274406 12.898852 15.270495 12.931641 15.273438zM19.955078 8.4804688L18.998047 8.71875 18.998047 10.955078 19.955078 10.716797 19.955078 10.398438 19.347656 10.548828 19.347656 9.8925781 19.832031 9.7734375 19.832031 9.453125 19.347656 9.5742188 19.347656 8.9511719 19.955078 8.7988281 19.955078 8.4804688zM18.742188 8.78125L18.429688 8.859375 18.429688 10.199219 18.068359 8.9492188 17.626953 9.0585938 17.626953 11.296875 17.943359 11.216797 17.943359 9.5976562 18.380859 11.107422 18.380859 11.109375 18.742188 11.019531 18.742188 8.78125zM17.376953 9.1210938L17.025391 9.2089844 17.025391 11.445312 17.376953 11.359375 17.376953 9.1210938zM16.873047 9.2480469L15.787109 9.5175781 15.787109 9.8359375 16.154297 9.7460938 16.154297 11.662109 16.505859 11.576172 16.505859 9.6582031 16.873047 9.5664062 16.873047 9.2480469zM15.634766 9.5546875L15.320312 9.6328125 15.320312 10.970703 14.958984 9.7226562 14.517578 9.8320312 14.517578 12.068359 14.833984 11.990234 14.833984 10.369141 15.273438 11.880859 15.634766 11.791016 15.634766 9.5546875zM14.306641 9.8847656L13.347656 10.123047 13.347656 12.359375 14.306641 12.121094 14.306641 11.802734 13.699219 11.953125 13.699219 11.296875 14.181641 11.177734 14.181641 10.857422 13.699219 10.978516 13.699219 10.355469 14.306641 10.203125 14.306641 9.8847656zM12.613281 10.304688L12.261719 10.392578 12.261719 12.628906 13.191406 12.398438 13.191406 12.078125 12.613281 12.222656 12.613281 10.304688zM11.744141 10.521484L11.228516 10.650391 10.871094 12.976562 11.193359 12.896484 11.253906 12.474609 11.685547 12.367188 11.746094 12.757812 12.101562 12.669922 11.744141 10.521484zM10.880859 10.736328L10.558594 10.816406 10.289062 12.707031 10.021484 10.949219 9.6660156 11.037109 10.011719 13.189453 10.535156 13.058594 10.880859 10.736328zM11.46875 10.986328L11.638672 12.076172 11.298828 12.160156 11.46875 10.986328z" font-family="Bebas Neue" font-weight="700" letter-spacing="0" transform="translate(0 1020.362)" word-spacing="0"/><path style="line-height:125%;-inkscape-font-specification:'Bebas Neue Bold'" fill="#fff" d="M 19.125 18.857422 C 19.060413 18.852642 18.983779 18.862566 18.894531 18.884766 L 18.375 19.013672 L 18.375 21.205078 L 18.71875 21.119141 L 18.71875 20.226562 L 18.837891 20.197266 C 18.994465 20.158266 19.064453 20.216222 19.064453 20.419922 L 19.064453 20.763672 C 19.064453 20.942172 19.076923 20.973691 19.095703 21.025391 L 19.445312 20.939453 C 19.410863 20.867453 19.408203 20.788141 19.408203 20.681641 L 19.408203 20.34375 C 19.408203 20.11515 19.351915 19.964747 19.179688 19.935547 C 19.333129 19.825447 19.40625 19.658994 19.40625 19.433594 L 19.40625 19.261719 C 19.40625 19.007994 19.318761 18.871761 19.125 18.857422 z M 18.164062 19.066406 L 17.224609 19.298828 L 17.224609 21.492188 L 18.164062 21.257812 L 18.164062 20.945312 L 17.570312 21.091797 L 17.570312 20.451172 L 18.042969 20.333984 L 18.042969 20.019531 L 17.570312 20.136719 L 17.570312 19.527344 L 18.164062 19.378906 L 18.164062 19.066406 z M 18.884766 19.199219 C 19.006894 19.169219 19.060547 19.223959 19.060547 19.380859 L 19.060547 19.597656 C 19.060547 19.772956 18.981904 19.848959 18.853516 19.880859 L 18.71875 19.914062 L 18.71875 19.242188 L 18.884766 19.201172 L 18.884766 19.199219 z M 17.060547 19.339844 L 16.148438 19.566406 L 16.148438 21.759766 L 16.494141 21.673828 L 16.494141 20.767578 L 16.9375 20.658203 L 16.9375 20.34375 L 16.494141 20.455078 L 16.494141 19.794922 L 17.060547 19.654297 L 17.060547 19.339844 z M 15.984375 19.607422 L 15.072266 19.833984 L 15.072266 22.027344 L 15.416016 21.941406 L 15.416016 21.035156 L 15.861328 20.925781 L 15.861328 20.611328 L 15.416016 20.722656 L 15.416016 20.0625 L 15.984375 19.921875 L 15.984375 19.607422 z M 14.550781 19.976562 C 14.485901 19.968423 14.410722 19.975069 14.326172 19.996094 C 13.987972 20.080094 13.802734 20.324981 13.802734 20.675781 L 13.802734 21.816406 C 13.802734 22.167206 13.987972 22.322281 14.326172 22.238281 C 14.664372 22.154281 14.847656 21.907441 14.847656 21.556641 L 14.847656 20.416016 C 14.847656 20.152916 14.745423 20.00098 14.550781 19.976562 z M 14.326172 20.308594 C 14.435774 20.281594 14.503906 20.323769 14.503906 20.480469 L 14.503906 21.664062 C 14.503906 21.820563 14.435777 21.896528 14.326172 21.923828 C 14.21657 21.950828 14.146484 21.907653 14.146484 21.751953 L 14.146484 20.568359 C 14.146484 20.411759 14.216567 20.335794 14.326172 20.308594 z " font-family="Bebas Neue" font-size="3.131" font-weight="700" letter-spacing="0" transform="translate(0 1020.362)" word-spacing="0"/></g></svg>