<svg xmlns="http://www.w3.org/2000/svg" width="32" height="32" viewBox="0 0 32 32"><g transform="translate(0 -1020.362)"><g transform="translate(61.383 -31.524)"><path fill="#3477e0" d="m -55.383412,1061.7375 24,0 -5,6.149 5,6.149 -24,0 z"/><path fill="#342ce0" d="m -55.383412,1061.7375 2,0 0,6.149 0,6.149 -2,0 z"/><rect width="5" height="16" x="-59.383" y="1059.887" fill="#fc0"/></g><path style="line-height:125%;-inkscape-font-specification:'Bebas Neue Bold'" fill="#fc0" d="M 10.34375 12.703125 L 10.34375 19.296875 L 11.277344 19.296875 L 11.277344 14.521484 L 12.566406 19.296875 L 13.630859 19.296875 L 13.630859 12.703125 L 12.708984 12.703125 L 12.708984 16.650391 L 11.644531 12.703125 L 10.34375 12.703125 z M 14.382812 12.703125 L 14.382812 19.296875 L 17.208984 19.296875 L 17.208984 18.355469 L 15.419922 18.355469 L 15.419922 16.423828 L 16.841797 16.423828 L 16.841797 15.482422 L 15.419922 15.482422 L 15.419922 13.644531 L 17.208984 13.644531 L 17.208984 12.703125 L 14.382812 12.703125 z M 17.607422 12.703125 L 18.341797 19.296875 L 19.763672 19.296875 L 20.140625 15.783203 L 20.517578 19.296875 L 21.894531 19.296875 L 22.628906 12.703125 L 21.724609 12.703125 L 21.1875 17.941406 L 20.667969 12.703125 L 19.669922 12.703125 L 19.169922 17.902344 L 18.615234 12.703125 L 17.607422 12.703125 z " font-family="Bebas Neue" font-size="9.421" font-weight="700" letter-spacing="0" transform="translate(0 1020.362)" word-spacing="0"/></g></svg>