<svg xmlns="http://www.w3.org/2000/svg" width="32" height="32" viewBox="0 0 32 32"><g transform="translate(0 -1020.362)"><path fill="#3477e0" d="m 22.999941,1048.4864 c -1.027138,0.5702 -2.906024,-0.5917 -4.040786,-0.2876 -1.026787,0.2751 -1.896293,2.1811 -2.959152,2.1633 -1.174626,-0.02 -2.220847,-1.9655 -3.35561,-2.2695 -1.026789,-0.2752 -2.7328062,0.9407 -3.6443273,0.3938 -1.0073748,-0.6044 -0.9405967,-2.8125 -1.7713022,-3.6432 -0.7516624,-0.7517 -2.837065,-0.5517 -3.3530075,-1.4811 -0.5701979,-1.0271 0.5916859,-2.906 0.2876249,-4.0408 -0.275129,-1.0268 -2.1811348,-1.8963 -2.1632522,-2.9591 0.019763,-1.1746 1.9654268,-2.2209 2.2694833,-3.3556 0.2751249,-1.0268 -0.9407713,-2.7328 -0.3938553,-3.6444 0.6044285,-1.0073 2.8125331,-0.9406 3.6432353,-1.7713 0.7516593,-0.7516 0.5516711,-2.837 1.4810749,-3.353 1.0271381,-0.5702 2.9060231,0.5917 4.0407851,0.2877 1.026788,-0.2752 1.896294,-2.1812 2.959152,-2.1633 1.174627,0.02 2.220848,1.9654 3.355611,2.2695 1.026788,0.2751 2.732806,-0.9408 3.644327,-0.3939 1.007375,0.6045 0.940597,2.8126 1.771302,3.6433 0.751662,0.7516 2.837065,0.5516 3.353008,1.481 0.570197,1.0272 -0.591686,2.9061 -0.287625,4.0408 0.275129,1.0268 2.181134,1.8963 2.163252,2.9592 -0.01976,1.1746 -1.965427,2.2208 -2.269483,3.3556 -0.275125,1.0268 0.940771,2.7328 0.393855,3.6443 -0.604429,1.0074 -2.812533,0.9406 -3.643235,1.7713 -0.75166,0.7517 -0.551672,2.8371 -1.481075,3.353 z"/><circle cx="16" cy="1036.362" r="10.313" fill="#6ac1f7"/><circle cx="16" cy="1036.362" r="8.69" fill="#3477e0"/><path style="line-height:125%;-inkscape-font-specification:'Bebas Neue Bold'" fill="#f2f2f2" d="M 10.636719 13.384766 C 9.847634 13.384766 9.4160156 13.851622 9.4160156 14.669922 L 9.4160156 17.330078 C 9.4160156 18.148378 9.847634 18.615234 10.636719 18.615234 C 11.425803 18.615234 11.857422 18.148378 11.857422 17.330078 L 11.857422 14.669922 C 11.857422 13.851622 11.425803 13.384766 10.636719 13.384766 z M 12.378906 13.443359 L 12.378906 18.556641 L 13.181641 18.556641 L 13.181641 16.445312 L 14.220703 16.445312 L 14.220703 15.714844 L 13.181641 15.714844 L 13.181641 14.173828 L 14.505859 14.173828 L 14.505859 13.443359 L 12.378906 13.443359 z M 14.890625 13.443359 L 14.890625 18.556641 L 15.693359 18.556641 L 15.693359 16.445312 L 16.732422 16.445312 L 16.732422 15.714844 L 15.693359 15.714844 L 15.693359 14.173828 L 17.017578 14.173828 L 17.017578 13.443359 L 14.890625 13.443359 z M 17.402344 13.443359 L 17.402344 18.556641 L 19.59375 18.556641 L 19.59375 17.826172 L 18.205078 17.826172 L 18.205078 16.328125 L 19.308594 16.328125 L 19.308594 15.597656 L 18.205078 15.597656 L 18.205078 14.173828 L 19.59375 14.173828 L 19.59375 13.443359 L 17.402344 13.443359 z M 20.083984 13.443359 L 20.083984 18.556641 L 20.888672 18.556641 L 20.888672 16.474609 L 21.166016 16.474609 C 21.531333 16.474609 21.691406 16.6501 21.691406 17.125 L 21.691406 17.929688 C 21.691406 18.346188 21.721795 18.425141 21.765625 18.556641 L 22.583984 18.556641 C 22.503614 18.366641 22.496094 18.184047 22.496094 17.935547 L 22.496094 17.146484 C 22.496094 16.613084 22.364739 16.226694 21.962891 16.058594 C 22.320901 15.890594 22.488281 15.547584 22.488281 15.021484 L 22.488281 14.619141 C 22.488281 13.830041 22.129797 13.443359 21.296875 13.443359 L 20.083984 13.443359 z M 10.636719 14.115234 C 10.89244 14.115234 11.052734 14.253741 11.052734 14.619141 L 11.052734 17.380859 C 11.052734 17.746159 10.89244 17.884766 10.636719 17.884766 C 10.380997 17.884766 10.220703 17.746159 10.220703 17.380859 L 10.220703 14.619141 C 10.220703 14.253741 10.380997 14.115234 10.636719 14.115234 z M 20.888672 14.173828 L 21.275391 14.173828 C 21.560338 14.173828 21.685547 14.333919 21.685547 14.699219 L 21.685547 15.203125 C 21.685547 15.612225 21.502685 15.744141 21.203125 15.744141 L 20.888672 15.744141 L 20.888672 14.173828 z " font-family="Bebas Neue" font-size="7.306" font-weight="700" letter-spacing="0" transform="translate(0 1020.362)" word-spacing="0"/></g></svg>