<svg xmlns="http://www.w3.org/2000/svg" width="32" height="32" viewBox="0 0 32 32"><g transform="translate(0 -1020.362)"><path fill="#ff9500" d="M28 1029.7109l0 6.7603-3.667944-.4056-8.266128-.9148 0-6.7604 8.266128.9147zM4 1042.4355l0-6.7603 3.667968.4058 8.266128.9146 0 6.7604-8.266128-.9144z"/><path fill="#a80e05" d="m 21.921144,1046.5866 c -0.421028,0.2391 -3.212659,-0.669 -3.683231,-0.5548 -0.454139,0.1101 -2.415996,2.1731 -2.882611,2.1476 -0.483501,-0.026 -2.340991,-2.2996 -2.79858,-2.458 -0.44161,-0.1529 -3.2073611,0.522 -3.5861208,0.2483 -0.3924655,-0.2837 -0.7260738,-3.2003 -1.0254,-3.5809 -0.288873,-0.3673 -2.9804115,-1.2949 -3.1510618,-1.7299 -0.1768254,-0.4508 1.119366,-3.0848 1.0733375,-3.5668 -0.044421,-0.4652 -1.8072029,-2.7007 -1.7155634,-3.1589 0.094956,-0.4749 2.6094148,-1.9899 2.8312977,-2.4203 0.2141343,-0.4154 -0.06022,-3.249 0.2646143,-3.585 0.3365888,-0.3481 3.2709925,-0.2632 3.6903415,-0.5053 0.404703,-0.2337 1.705882,-2.7658 2.160778,-2.8728 0.471358,-0.1109 2.894054,1.547 3.377727,1.57 0.466783,0.022 2.930379,-1.4045 3.370912,-1.2485 0.456473,0.1615 1.598273,2.866 1.992708,3.1469 0.380661,0.271 3.224502,0.4028 3.510804,0.7721 0.296662,0.3827 -0.204948,3.2752 -0.02498,3.7247 0.173683,0.4338 2.494867,2.0821 2.53604,2.5476 0.04266,0.4824 -1.943099,2.6445 -2.034739,3.1199 -0.08844,0.4589 0.97313,3.1005 0.756102,3.5143 -0.224881,0.4288 -3.06433,1.1741 -3.398481,1.5246 -0.322482,0.3382 -0.857569,3.1343 -1.263893,3.3652 z"/><path fill="#d31206" d="m 21.02105,1045.0303 c -0.356964,0.2028 -2.723817,-0.5672 -3.122786,-0.4704 -0.385036,0.093 -2.048375,1.8425 -2.443989,1.8209 -0.409931,-0.022 -1.984783,-1.9498 -2.372745,-2.084 -0.374414,-0.1296 -2.719325,0.4425 -3.040452,0.2105 -0.3327477,-0.2405 -0.6155939,-2.7133 -0.8693742,-3.036 -0.2449178,-0.3115 -2.5269083,-1.0979 -2.6715923,-1.4667 -0.1499195,-0.3822 0.9490416,-2.6154 0.9100169,-3.0241 -0.037662,-0.3944 -1.5322164,-2.2897 -1.454521,-2.6783 0.080507,-0.4025 2.212363,-1.6871 2.4004839,-2.052 0.1815514,-0.3521 -0.051057,-2.7546 0.2243504,-3.0394 0.285373,-0.2952 2.7732743,-0.2232 3.1288143,-0.4285 0.343123,-0.1981 1.446313,-2.3449 1.831992,-2.4356 0.399635,-0.094 2.453691,1.3115 2.863768,1.3311 0.395756,0.019 2.484489,-1.1908 2.85799,-1.0586 0.387016,0.137 1.355078,2.43 1.689496,2.6681 0.322739,0.2298 2.733856,0.3415 2.976595,0.6546 0.251522,0.3245 -0.173763,2.7768 -0.02118,3.158 0.147255,0.3678 2.115245,1.7653 2.150153,2.1599 0.03617,0.409 -1.647435,2.2421 -1.72513,2.6452 -0.07498,0.3891 0.825057,2.6287 0.641052,2.9796 -0.190663,0.3636 -2.598058,0.9954 -2.881364,1.2926 -0.273413,0.2867 -0.72708,2.6574 -1.071578,2.8531 z"/><path fill="#fc0" d="m 4.013848,1035.6656 0,6.7939 3.686112,-0.9163 16.613928,-4.1302 3.686112,-0.9163 0,-6.7937 -3.686112,0.9161 -16.613928,4.1301 -3.686112,0.9164 z"/><path style="line-height:125%;-inkscape-font-specification:'Bebas Neue Bold'" fill="#fff" d="M 21.123047 12.244141 C 20.990934 12.234353 20.8349 12.251475 20.652344 12.296875 L 19.587891 12.560547 L 19.587891 17.044922 L 20.292969 16.869141 L 20.292969 15.044922 L 20.537109 14.984375 C 20.857382 14.904375 20.998047 15.023053 20.998047 15.439453 L 20.998047 16.142578 C 20.998047 16.507778 21.022117 16.572034 21.060547 16.677734 L 21.779297 16.5 C 21.708837 16.351 21.701172 16.192409 21.701172 15.974609 L 21.701172 15.283203 C 21.701172 14.815603 21.586676 14.505112 21.234375 14.445312 C 21.548243 14.219912 21.695313 13.883075 21.695312 13.421875 L 21.695312 13.068359 C 21.695312 12.549509 21.519386 12.273503 21.123047 12.244141 z M 19.158203 12.667969 L 17.236328 13.146484 L 17.236328 17.630859 L 19.158203 17.152344 L 19.158203 16.511719 L 17.941406 16.814453 L 17.941406 15.501953 L 18.908203 15.259766 L 18.908203 14.619141 L 17.941406 14.861328 L 17.941406 13.611328 L 19.158203 13.308594 L 19.158203 12.667969 z M 20.792969 12.929688 C 20.928985 12.950598 20.990234 13.074378 20.990234 13.314453 L 20.990234 13.755859 C 20.990234 14.114559 20.830984 14.270638 20.568359 14.335938 L 20.292969 14.404297 L 20.292969 13.025391 L 20.632812 12.941406 C 20.695266 12.925906 20.74763 12.922717 20.792969 12.929688 z M 16.898438 13.230469 L 15.035156 13.693359 L 15.035156 18.177734 L 15.738281 18.001953 L 15.738281 16.150391 L 16.648438 15.923828 L 16.648438 15.285156 L 15.738281 15.509766 L 15.738281 14.158203 L 16.898438 13.871094 L 16.898438 13.230469 z M 14.697266 13.777344 L 12.832031 14.240234 L 12.832031 18.724609 L 13.537109 18.548828 L 13.537109 16.697266 L 14.447266 16.472656 L 14.447266 15.832031 L 13.537109 16.058594 L 13.537109 14.707031 L 14.697266 14.417969 L 14.697266 13.777344 z M 11.763672 14.53125 C 11.630958 14.514594 11.477636 14.525359 11.304688 14.568359 C 10.612896 14.740359 10.234375 15.245491 10.234375 15.962891 L 10.234375 18.294922 C 10.234375 19.012322 10.612896 19.32825 11.304688 19.15625 C 11.996479 18.98425 12.375 18.479119 12.375 17.761719 L 12.375 15.431641 C 12.375 14.893591 12.161812 14.581219 11.763672 14.53125 z M 11.457031 15.195312 C 11.591246 15.211166 11.669922 15.320397 11.669922 15.560547 L 11.669922 17.982422 C 11.669922 18.302722 11.52888 18.459925 11.304688 18.515625 C 11.080495 18.571625 10.939453 18.484263 10.939453 18.164062 L 10.939453 15.742188 C 10.939453 15.421887 11.080496 15.264684 11.304688 15.208984 C 11.360736 15.194984 11.412293 15.190028 11.457031 15.195312 z " font-family="Bebas Neue" font-weight="700" letter-spacing="0" transform="translate(0 1020.362)" word-spacing="0"/></g></svg>