<?xml version="1.0" encoding="UTF-8" standalone="no"?><!-- Generator: Gravit.io --><svg xmlns="http://www.w3.org/2000/svg" xmlns:xlink="http://www.w3.org/1999/xlink" style="isolation:isolate" viewBox="14.042 18.923 41.718 87.297" width="41.718pt" height="87.297pt"><g><path d=" M 51.669 106.22 L 51.537 106.213 C 41.957 105.205 32.945 100.907 26.159 94.108 C 19.404 87.31 15.164 78.27 14.219 68.652 C 13.335 59.024 15.787 49.344 21.124 41.388 C 26.535 33.414 34.577 27.495 43.77 24.714 C 44.293 24.585 44.746 24.466 45.199 24.346 C 46.461 24.013 47.766 23.667 49.138 23.521 C 49.4 23.484 49.701 23.436 50.002 23.388 C 50.588 23.295 51.174 23.202 51.763 23.148 L 54.447 23.011 C 55.133 22.976 55.724 23.507 55.759 24.197 C 55.793 24.886 55.263 25.473 54.573 25.508 L 51.941 25.641 C 51.458 25.687 50.927 25.772 50.396 25.857 C 50.078 25.908 49.761 25.958 49.442 26.002 C 48.221 26.133 47.063 26.439 45.838 26.763 C 45.368 26.887 44.898 27.012 44.426 27.125 C 35.847 29.722 28.283 35.291 23.196 42.787 C 18.183 50.261 15.877 59.365 16.707 68.416 C 17.596 77.454 21.582 85.955 27.931 92.345 C 34.31 98.736 42.787 102.779 51.799 103.727 C 52.485 103.799 52.983 104.414 52.911 105.101 C 52.844 105.743 52.301 106.22 51.669 106.22 Z " fill="rgb(255,255,255)"/><path d=" M 48.156 31.389 C 47.881 31.389 47.604 31.299 47.373 31.113 C 46.835 30.681 46.75 29.894 47.182 29.356 C 47.951 28.4 48.777 27.585 49.651 26.723 L 50.429 25.958 C 50.637 25.757 50.847 25.554 51.062 25.366 L 51.949 24.651 C 52.061 24.562 52.175 24.473 52.288 24.384 C 52.164 24.311 52.038 24.238 51.912 24.166 L 50.89 23.586 C 50.705 23.492 50.473 23.387 50.239 23.28 L 49.239 22.833 C 48.052 22.306 46.824 21.76 45.592 21.364 C 44.935 21.152 44.574 20.448 44.785 19.791 C 44.996 19.134 45.7 18.772 46.358 18.984 C 47.717 19.421 49.007 19.994 50.254 20.548 L 51.275 21.005 C 51.545 21.128 51.812 21.25 52.078 21.387 L 53.154 21.995 C 53.849 22.397 54.517 22.796 55.166 23.195 C 55.518 23.413 55.741 23.791 55.759 24.204 C 55.777 24.618 55.589 25.014 55.257 25.262 C 54.655 25.711 54.072 26.159 53.508 26.606 L 52.67 27.28 C 52.526 27.407 52.346 27.582 52.166 27.755 L 51.407 28.502 C 50.585 29.312 49.809 30.078 49.131 30.922 C 48.884 31.229 48.521 31.389 48.156 31.389 Z " fill="rgb(255,255,255)"/></g></svg>