<?xml version="1.0" encoding="UTF-8" standalone="no"?><!-- Generator: Gravit.io --><svg xmlns="http://www.w3.org/2000/svg" xmlns:xlink="http://www.w3.org/1999/xlink" style="isolation:isolate" viewBox="286.482 93.201 60.209 12.701" width="60.209pt" height="12.701pt"><g><path d=" M 345.441 100.801 L 287.732 100.801 C 287.041 100.801 286.482 100.242 286.482 99.551 C 286.482 98.861 287.041 98.301 287.732 98.301 L 345.441 98.301 C 346.132 98.301 346.691 98.861 346.691 99.551 C 346.691 100.242 346.132 100.801 345.441 100.801 Z " fill="rgb(255,255,255)"/><path d=" M 337.93 105.902 C 337.531 105.902 337.137 105.71 336.895 105.354 C 336.508 104.783 336.656 104.005 337.227 103.618 L 343.216 99.551 L 337.227 95.485 C 336.656 95.097 336.508 94.32 336.895 93.749 C 337.283 93.178 338.062 93.029 338.632 93.416 L 346.143 98.517 C 346.486 98.75 346.691 99.137 346.691 99.551 C 346.691 99.965 346.486 100.352 346.143 100.585 L 338.632 105.686 C 338.417 105.832 338.172 105.902 337.93 105.902 Z " fill="rgb(255,255,255)"/></g></svg>