<?xml version="1.0" encoding="UTF-8" standalone="no"?><!-- Generator: Gravit.io --><svg xmlns="http://www.w3.org/2000/svg" xmlns:xlink="http://www.w3.org/1999/xlink" style="isolation:isolate" viewBox="80.593 120.562 49.511 25.476" width="49.511pt" height="25.476pt"><g><path d=" M 106.191 146.038 C 105.882 146.038 105.573 146.031 105.264 146.016 L 81.843 146.017 C 81.152 146.017 80.593 145.457 80.593 144.767 C 80.593 144.077 81.152 143.517 81.843 143.517 L 105.324 143.517 C 109.076 143.699 112.734 142.654 115.701 140.586 C 118.666 138.542 120.894 135.464 121.982 131.916 C 122.727 129.526 122.7 127.023 122.671 124.373 C 122.661 123.508 122.653 122.645 122.671 121.787 C 122.685 121.097 123.215 120.543 123.947 120.563 C 124.636 120.578 125.184 121.149 125.17 121.839 C 125.153 122.671 125.162 123.508 125.171 124.346 C 125.2 127.073 125.231 129.893 124.371 132.655 C 123.12 136.734 120.547 140.282 117.125 142.641 C 113.961 144.846 110.109 146.038 106.191 146.038 Z " fill="rgb(255,255,255)"/><path d=" M 128.853 131.167 C 128.344 131.167 127.866 130.854 127.68 130.348 C 127.435 129.684 127.102 129.018 126.78 128.374 L 126.615 128.045 C 126.407 127.683 126.151 127.315 125.895 126.947 C 125.737 126.719 125.579 126.49 125.423 126.251 L 123.92 124.038 L 122.404 126.271 C 122.244 126.497 122.101 126.713 121.957 126.928 C 121.672 127.357 121.377 127.801 121.05 128.198 L 120.78 128.484 C 120.369 128.913 119.981 129.317 119.5 129.7 C 118.958 130.129 118.174 130.04 117.743 129.501 C 117.314 128.961 117.403 128.174 117.943 127.744 C 118.293 127.466 118.609 127.136 118.975 126.754 L 119.186 126.535 C 119.366 126.31 119.614 125.937 119.876 125.543 C 120.033 125.308 120.19 125.072 120.35 124.847 L 122.886 121.111 C 123.352 120.425 124.489 120.425 124.954 121.111 L 127.505 124.867 C 127.66 125.105 127.805 125.314 127.95 125.522 C 128.237 125.936 128.533 126.364 128.822 126.871 L 129.015 127.256 C 129.352 127.928 129.733 128.689 130.026 129.485 C 130.264 130.132 129.932 130.851 129.284 131.089 C 129.142 131.142 128.996 131.167 128.853 131.167 Z " fill="rgb(255,255,255)"/></g></svg>