<?xml version="1.0" encoding="UTF-8" standalone="no"?><!-- Generator: Gravit.io --><svg xmlns="http://www.w3.org/2000/svg" xmlns:xlink="http://www.w3.org/1999/xlink" style="isolation:isolate" viewBox="82.821 179.489 47.275 85.57" width="47.275pt" height="85.57pt"><g><path d=" M 122.549 180.526 L 122.548 180.527 L 122.549 180.526 Z  M 123.745 265.059 C 123.055 265.059 122.495 264.499 122.495 263.809 L 122.495 181.991 L 85.321 181.991 L 85.321 258.082 C 85.321 258.773 84.762 259.332 84.071 259.332 C 83.381 259.332 82.821 258.773 82.821 258.082 L 82.821 180.755 C 82.821 180.356 83.012 179.98 83.335 179.745 C 83.7 179.479 84.083 179.486 84.23 179.492 L 84.263 179.491 L 123.478 179.491 C 124.036 179.47 124.447 179.643 124.729 180.008 C 124.947 180.288 125.039 180.638 124.995 180.996 L 124.995 263.809 C 124.995 264.499 124.436 265.059 123.745 265.059 Z " fill="rgb(255,255,255)"/><path d=" M 123.745 265.059 C 123.331 265.059 122.944 264.853 122.711 264.511 L 117.611 256.999 C 117.223 256.428 117.371 255.65 117.943 255.263 C 118.513 254.875 119.291 255.023 119.679 255.595 L 123.745 261.583 L 127.812 255.595 C 128.2 255.023 128.977 254.875 129.548 255.263 C 130.119 255.65 130.268 256.428 129.88 256.999 L 124.78 264.511 C 124.547 264.853 124.159 265.059 123.745 265.059 Z " fill="rgb(255,255,255)"/></g></svg>