<?xml version="1.0" encoding="UTF-8" standalone="no"?><!-- Generator: Gravit.io --><svg xmlns="http://www.w3.org/2000/svg" xmlns:xlink="http://www.w3.org/1999/xlink" style="isolation:isolate" viewBox="57.456 46.498 298.672 80.291" width="298.672pt" height="80.291pt"><path d=" M 136.01 78.465 C 137.27 75.905 138.788 73.476 140.512 71.213 C 148.16 75.362 154.677 81.613 158.052 89.663 C 160.612 95.77 161.189 102.741 158.669 108.961 C 156.138 115.206 149.968 119.873 143.222 116.581 C 129.551 109.91 130.311 90.036 136.01 78.465 Z  M 60.798 113.822 C 70.91 87.076 96.69 59.406 128.048 66.511 C 129.329 66.802 130.606 67.161 131.875 67.559 C 126.479 75.282 123.147 84.418 122.882 93.913 C 122.476 108.454 132.097 127.956 149.105 126.734 C 165.556 125.551 171.136 105.904 167.568 92.329 C 164.484 80.598 155.954 71.404 145.544 65.661 C 152.204 59.494 160.761 55.529 170.106 55.352 C 188.126 55.012 204.087 65.996 217.636 76.7 C 230.755 87.063 243.527 98.249 259.275 104.46 C 287.495 115.591 321.702 107.767 342.958 86.412 C 342.476 89.848 341.908 93.318 340.827 96.573 C 337.962 105.203 352.894 108.261 353.662 98.31 C 354.15 92.005 355.531 85.785 355.967 79.452 C 356.303 74.567 356.57 69.145 351.78 66.296 C 347.433 63.712 340.888 64.892 336.087 65.22 C 330.216 65.621 323.944 65.968 318.26 67.55 C 315.36 68.357 315.418 72.535 318.26 73.371 C 324.449 75.194 331.264 75.717 337.845 76.073 C 327.091 88.379 312.343 96.273 296.16 98.823 C 278.012 101.683 261.024 96.593 245.918 86.558 C 228.88 75.24 214.456 60.172 195.451 51.931 C 179.13 44.854 160.524 43.792 145.344 54.172 C 142.16 56.35 139.219 58.894 136.581 61.721 C 100.145 49.397 68.488 80.469 57.555 112.928 C 56.857 115.003 60.044 115.815 60.798 113.822 Z " fill="rgb(255,255,255)"/></svg>