<?xml version="1.0" encoding="UTF-8" standalone="no"?><!-- Generator: Gravit.io --><svg xmlns="http://www.w3.org/2000/svg" xmlns:xlink="http://www.w3.org/1999/xlink" style="isolation:isolate" viewBox="435.298 680.409 259.065 53.289" width="259.065pt" height="53.289pt"><g><path d=" M 659.854 695.18 C 654.867 692.162 649.468 689.94 644.51 686.912 C 641.376 684.997 637.489 689.725 640.486 692.127 C 643.792 694.776 646.672 697.897 649.861 700.694 C 650.599 701.342 651.343 701.972 652.093 702.595 C 651.687 702.957 651.31 703.391 650.979 703.919 C 647.643 709.232 639.258 705.391 635.351 702.987 C 628.742 698.92 622.752 694.104 614.825 693.004 C 597.369 690.58 584.641 703.937 570.331 711.225 C 554.405 719.337 537.913 711.435 522.45 706.176 C 507.948 701.245 493.197 699.457 478.058 702.399 C 462.175 705.485 447.469 713.96 436.207 725.473 C 433.396 728.347 437.738 732.69 440.618 729.884 C 451.675 719.119 465.865 712.747 481.056 710.454 C 497.469 707.977 512.031 712.433 527.199 718.224 C 542.986 724.25 558.875 728.264 574.897 720.695 C 588.746 714.152 604.057 697.159 620.35 706.5 C 627.441 710.566 633.432 716.155 641.812 717.365 C 643.955 717.675 646.074 717.705 648.112 717.452 C 646.44 719.925 644.768 722.399 643.096 724.872 C 638.749 731.301 649.219 737.4 653.5 730.953 C 656.638 726.226 659.776 721.5 662.914 716.773 C 665.439 712.971 669.824 708.391 668.623 703.406 C 667.605 699.182 663.226 697.221 659.854 695.18 Z " fill="rgb(255,255,255)"/><path d=" M 694.229 700.159 C 693.394 695.674 688.92 693.165 685.591 690.601 C 680.874 686.969 676.08 683.792 670.915 680.841 C 667.893 679.115 665.344 682.955 667.379 685.424 C 670 688.604 672.556 691.63 675.501 694.52 C 677.062 696.051 678.675 697.526 680.281 699.01 C 680.779 699.469 683.95 701.842 683.841 701.47 C 684.001 702.013 681.59 706.032 681.323 706.574 C 680.483 708.276 679.643 709.977 678.804 711.678 C 676.845 715.649 674.85 719.603 672.96 723.607 C 670.061 729.747 679.053 735.17 682.172 728.991 C 684.737 723.909 687.161 718.753 689.638 713.627 C 691.563 709.644 695.094 704.804 694.229 700.159 Z " fill="rgb(255,255,255)"/></g></svg>