<?xml version="1.0" encoding="UTF-8" standalone="no"?><!-- Generator: Gravit.io --><svg xmlns="http://www.w3.org/2000/svg" xmlns:xlink="http://www.w3.org/1999/xlink" style="isolation:isolate" viewBox="433.659 43.331 244.713 147.59" width="244.713pt" height="147.59pt"><g><path d=" M 441.124 188.359 C 439.712 162.263 438.664 132.362 452.307 109.024 C 458.455 98.506 469.532 87.466 482.767 88.36 C 496.351 89.276 500.1 104.373 502.626 115.263 C 505.122 126.02 508.275 137.751 517.197 145.081 C 526.843 153.006 539.508 151.359 548.648 143.568 C 559.448 134.361 561.427 119.978 563.091 106.725 C 564.59 94.783 566.926 78.615 580.078 74.009 C 594.32 69.021 609.791 78.344 623.842 80.24 C 634.008 81.612 644.538 80.504 652.369 74.435 C 651.856 76.629 651.335 78.821 650.811 81.013 C 649.31 87.298 659.276 89.883 660.399 83.656 C 661.323 78.535 662.348 73.434 663.283 68.316 C 663.895 64.972 664.626 61.613 661.997 58.911 C 659.574 56.42 655.263 55.905 652.062 55.108 C 647.505 53.974 642.437 52.378 637.723 52.902 C 636.156 53.077 634.876 55.056 636.304 56.326 C 638.688 58.444 641.427 59.583 644.353 60.822 C 645.542 61.325 646.797 61.934 648.075 62.519 C 641.727 72.197 626.935 70.438 617.289 68.067 C 604.48 64.918 590.489 59.582 577.31 63.967 C 564.856 68.111 558.001 79.498 555.031 91.702 C 551.77 105.101 553.682 121.88 544.299 133.059 C 540.552 137.523 534.982 141.22 528.92 139.92 C 523.219 138.698 519.532 133.499 517.065 128.606 C 511.581 117.726 511.399 105.011 505.563 94.211 C 499.788 83.523 488.868 77.596 476.761 79.615 C 464.594 81.644 454.447 90.111 447.673 100.057 C 430.027 125.964 432.971 158.832 435.791 188.359 C 436.112 191.718 441.312 191.831 441.124 188.359 Z " fill="rgb(255,255,255)"/><path d=" M 652.328 46.592 C 654.719 48.153 657.263 49.203 659.934 50.193 C 663.151 51.386 668.303 52.056 670.43 54.808 C 672.004 56.846 671.511 57.29 670.982 59.824 C 670.665 61.338 670.304 62.845 669.938 64.348 C 669.133 67.663 668.161 70.923 667.143 74.178 C 665.692 78.815 673.24 80.899 674.413 76.183 C 675.61 71.375 676.731 66.53 677.637 61.659 C 678.268 58.27 679.098 54.496 677.191 51.357 C 675.229 48.126 671.464 47.416 668.074 46.476 C 663.196 45.124 658.307 43.467 653.212 43.331 C 651.398 43.283 650.936 45.683 652.328 46.592 Z " fill="rgb(255,255,255)"/></g></svg>