<?xml version="1.0" encoding="UTF-8" standalone="no"?><!-- Generator: Gravit.io --><svg xmlns="http://www.w3.org/2000/svg" xmlns:xlink="http://www.w3.org/1999/xlink" style="isolation:isolate" viewBox="185.332 606.458 305.738 133.728" width="305.738pt" height="133.728pt"><path d=" M 486.068 640.139 C 488.758 642.945 492.774 638.797 490.292 635.915 C 474.55 617.639 451.443 606.915 427.321 606.471 C 404.021 606.042 380.913 616.148 364.672 632.718 C 356.192 641.37 350.135 651.69 345.246 662.705 C 339.975 674.582 335.653 687.248 327.767 697.738 C 314.684 715.141 290.593 724.116 269.259 719.915 C 254.936 717.095 243.127 708.013 229.544 703.153 C 221.202 700.168 212.294 699.223 204.024 701.174 C 206.438 694.365 208.924 687.58 211.129 680.702 C 212.371 676.828 206.694 673.157 203.993 676.547 C 195.628 687.048 190.128 698.8 185.625 711.373 C 184.86 713.507 185.636 716.833 187.449 718.275 C 194.822 724.142 201.438 730.605 207.214 738.062 C 209.644 741.201 214.964 740.569 217.527 738.062 C 220.61 735.046 219.96 730.818 217.527 727.748 C 213.587 722.775 209.254 718.215 204.557 714.032 C 213.478 710.773 224.529 714.393 232.614 718.161 C 243.526 723.246 253.958 729.669 265.95 731.918 C 286.973 735.86 308.802 730.092 325.302 716.528 C 344.643 700.629 348.631 675.904 360.079 654.955 C 371.003 634.968 390.98 620.699 413.258 616.235 C 439.581 610.961 467.667 620.94 486.068 640.139 Z " fill="rgb(255,255,255)"/></svg>