<?xml version="1.0" encoding="UTF-8" standalone="no"?><!-- Generator: Gravit.io --><svg xmlns="http://www.w3.org/2000/svg" xmlns:xlink="http://www.w3.org/1999/xlink" style="isolation:isolate" viewBox="300.671 217.186 132.117 121.666" width="132.117pt" height="121.666pt"><path d=" M 315.568 228.76 C 317.335 225.931 318.943 223.019 320.196 219.985 C 321.192 217.571 317.856 216.445 316.29 217.711 C 310.758 222.184 306.231 228.312 301.85 233.883 C 300.186 235.998 300.119 239.062 302.712 240.575 C 306.827 242.976 310.427 245.985 313.113 249.951 C 316.781 255.365 324.405 249.679 320.297 244.409 C 318.787 242.472 317.164 240.724 315.423 239.123 C 324.429 236.389 334.085 235.851 342.84 239.997 C 352.955 244.788 357.756 254.375 359.893 264.905 C 362.186 276.199 362.26 287.976 362.485 299.455 C 362.731 312 362.651 324.546 362.549 337.094 C 362.53 339.482 365.981 339.392 366.199 337.094 C 367.571 322.604 368.427 307.991 368.485 293.424 C 368.499 289.842 368.561 286.195 368.558 282.531 C 368.559 282.533 368.56 282.536 368.56 282.539 C 368.561 279.045 369.253 273.862 369.577 271.574 C 371.216 260.018 376.525 244.788 386.64 239.997 C 396.75 235.21 408.062 236.661 418.186 240.537 C 418.889 240.807 419.548 240.905 420.157 240.877 C 418.915 242.065 417.682 243.204 416.684 244.281 C 413.088 248.159 418.962 254.017 422.488 250.085 C 424.838 247.466 427.223 244.874 429.538 242.225 C 431.238 240.279 433.02 238.523 432.763 235.725 C 432.531 233.209 430.525 231.474 428.897 229.765 C 426.453 227.199 424.057 224.522 421.311 222.276 C 419.326 220.652 416.486 222.638 417.712 225.054 C 418.717 227.034 419.934 228.89 421.165 230.737 C 421.081 230.705 421.003 230.668 420.915 230.638 C 398.423 223.015 373.218 229.972 364.74 253.268 C 357.134 232.367 336.064 224.627 315.568 228.76 Z " fill="rgb(255,255,255)"/></svg>