<?xml version="1.0" encoding="UTF-8" standalone="no"?><!-- Generator: Gravit.io --><svg xmlns="http://www.w3.org/2000/svg" xmlns:xlink="http://www.w3.org/1999/xlink" style="isolation:isolate" viewBox="551.798 239.474 225.869 95.578" width="225.869pt" height="95.578pt"><path d=" M 722.129 250.954 C 738.408 278.758 754.979 306.355 772.129 333.632 C 774.168 336.873 779.095 334.007 777.268 330.628 C 761.135 300.795 744.384 271.344 727.281 242.054 C 725.686 239.322 722.488 239.418 720.259 241.15 C 707.963 250.703 695.589 260.156 683.25 269.653 C 676.929 274.518 670.609 279.382 664.289 284.247 C 659.684 287.791 653.173 295.096 646.833 294.161 C 643.319 293.643 640.046 291.464 636.935 289.874 C 633.376 288.054 629.798 286.269 626.223 284.48 C 619.37 281.049 612.516 277.619 605.663 274.188 C 591.659 267.178 577.655 260.168 563.65 253.158 C 563.573 253.12 563.496 253.091 563.42 253.057 C 564.564 252.646 565.865 252.316 567.156 251.836 C 571.133 250.357 575.1 248.848 579.095 247.421 C 583.915 245.699 581.717 237.905 576.982 239.756 C 571.898 241.743 566.765 243.603 561.662 245.542 C 558.033 246.92 554.219 248.229 552.558 252.035 C 550.836 255.98 552.464 260.651 553.284 264.631 C 554.545 270.747 555.793 276.806 557.773 282.736 C 558.693 285.491 563.216 285.203 563.069 282.019 C 562.787 275.931 561.238 269.892 560.368 263.859 C 575.132 271.169 589.896 278.479 604.66 285.789 C 612.426 289.634 620.181 293.501 627.958 297.325 C 634.297 300.441 641.404 305.01 648.737 304.581 C 655.354 304.194 660.427 299.333 665.378 295.45 C 672.177 290.118 678.976 284.786 685.776 279.454 C 697.891 269.952 709.986 260.421 722.129 250.954 Z " fill="rgb(255,255,255)"/></svg>