<?xml version="1.0" encoding="UTF-8" standalone="no"?><!-- Generator: Gravit.io --><svg xmlns="http://www.w3.org/2000/svg" xmlns:xlink="http://www.w3.org/1999/xlink" style="isolation:isolate" viewBox="644.699 80.121 192.943 104.555" width="192.943pt" height="104.555pt"><path d=" M 654.657 164.309 C 654.005 160.129 653.097 156.016 651.594 152.173 C 650.584 149.589 646.071 148.744 645.462 152.173 C 643.917 160.869 645.09 169.994 645.749 178.733 C 645.807 179.512 646.005 180.195 646.299 180.794 C 647.15 183.039 649.106 184.804 651.986 184.669 C 657.167 184.426 662.615 183.286 667.568 181.743 C 671.763 180.435 677.187 179.071 679.265 174.856 C 680.098 173.166 679.756 171.015 677.998 170.024 C 674.02 167.783 669.498 169.259 665.224 169.907 C 664.743 169.98 664.256 170.047 663.773 170.117 C 696.647 132.257 741.294 105.376 789.952 93.14 C 804.786 89.41 819.843 86.955 835.113 85.978 C 838.944 85.733 838.18 80.058 834.449 80.122 C 778.59 81.084 724.2 102.223 681.467 138.093 C 671.881 146.139 662.923 154.918 654.657 164.309 Z " fill="rgb(255,255,255)"/></svg>