<?xml version="1.0" encoding="UTF-8" standalone="no"?><!-- Generator: Gravit.io --><svg xmlns="http://www.w3.org/2000/svg" xmlns:xlink="http://www.w3.org/1999/xlink" style="isolation:isolate" viewBox="148.48 63.427 49.941 46.545" width="49.941pt" height="46.545pt"><g><path d=" M 197.171 109.972 L 197.161 109.972 C 195.081 109.954 193.045 109.628 191.076 109.313 L 189.866 109.122 L 189.744 109.097 L 185.975 108.128 C 185.764 108.075 185.554 108.021 185.347 107.957 L 182.759 107.013 C 177.902 105.134 173.616 102.682 169.998 99.718 C 166.193 96.596 162.891 92.932 160.183 88.829 L 158.296 85.724 L 158.239 85.617 L 156.547 82.107 C 156.452 81.914 156.358 81.719 156.274 81.521 L 155.11 78.346 C 154.969 77.966 154.829 77.587 154.705 77.203 L 153.585 72.838 L 153.561 72.717 L 153.163 70.112 C 152.883 68.693 152.815 67.221 152.749 65.796 L 152.697 64.748 C 152.658 64.058 153.186 63.469 153.876 63.43 C 154.554 63.385 155.155 63.919 155.193 64.609 C 155.213 64.966 155.23 65.324 155.246 65.681 C 155.31 67.075 155.371 68.392 155.626 69.682 L 156.023 72.279 L 157.105 76.507 C 157.198 76.785 157.326 77.13 157.454 77.476 L 158.598 80.603 C 158.642 80.702 158.718 80.855 158.793 81.01 L 160.464 84.478 L 162.295 87.491 C 164.84 91.346 167.973 94.822 171.583 97.785 C 174.995 100.58 179.052 102.898 183.64 104.673 L 186.144 105.589 C 186.248 105.62 186.417 105.661 186.585 105.704 L 190.309 106.661 L 191.471 106.845 C 193.435 107.159 195.29 107.456 197.181 107.472 C 197.872 107.477 198.427 108.042 198.421 108.732 C 198.415 109.419 197.857 109.972 197.171 109.972 Z " fill="rgb(255,255,255)"/><path d=" M 149.73 74.363 C 149.574 74.363 149.417 74.333 149.264 74.272 C 148.623 74.015 148.313 73.287 148.571 72.646 C 149.176 71.14 149.825 69.637 150.501 68.178 C 151.168 66.843 151.911 65.62 152.629 64.437 L 152.876 64.031 C 153.091 63.676 153.467 63.452 153.88 63.43 C 154.293 63.411 154.691 63.593 154.941 63.923 L 155.263 64.348 C 156.059 65.401 156.811 66.396 157.635 67.312 C 158.584 68.306 159.591 69.305 160.601 70.254 C 161.104 70.727 161.128 71.519 160.655 72.021 C 160.18 72.524 159.39 72.548 158.888 72.076 C 157.845 71.095 156.807 70.064 155.802 69.011 C 155.178 68.318 154.617 67.62 154.063 66.9 C 153.604 67.672 153.155 68.46 152.754 69.262 C 152.112 70.649 151.48 72.112 150.89 73.579 C 150.694 74.066 150.225 74.363 149.73 74.363 Z " fill="rgb(255,255,255)"/></g></svg>