<?xml version="1.0" encoding="UTF-8" standalone="no"?><!-- Generator: Gravit.io --><svg xmlns="http://www.w3.org/2000/svg" xmlns:xlink="http://www.w3.org/1999/xlink" style="isolation:isolate" viewBox="852.29 159.6 52.301 255.326" width="52.301pt" height="255.326pt"><path d=" M 880.929 342.119 C 889.393 349.483 893.544 358.491 890.554 369.837 C 887.319 382.12 877.831 391.274 868.909 399.797 C 868.521 398.178 868.236 396.543 867.864 395.355 C 866.455 390.857 864.74 386.523 862.938 382.172 C 862.059 380.05 858.294 379.986 858.506 382.772 C 858.953 388.657 859.615 394.432 860.688 400.241 C 861.502 404.648 861.805 409.919 865.666 412.84 C 869.411 415.672 874.556 414.856 878.93 414.688 C 885.728 414.427 892.525 414.166 899.323 413.906 C 906.429 413.633 906.264 402.285 899.323 402.95 C 894.791 403.383 890.259 403.817 885.728 404.251 C 883.748 404.441 881.769 404.63 879.79 404.82 C 893.556 390.924 907.322 373.239 901.325 352.623 C 896.336 335.47 878.856 329.738 868.086 317.266 C 852.898 299.679 875.963 281.966 887.434 270.445 C 894.246 263.604 901.078 255.477 903.212 245.802 C 905.401 235.875 902.347 226.382 896.339 218.411 C 889.103 208.811 878.558 202.286 871.559 192.531 C 865.631 184.268 862.61 170.1 873.088 163.817 C 875.716 162.242 873.417 158.68 870.753 159.821 C 863.294 163.017 859.61 170.418 859.123 178.252 C 858.53 187.801 863.434 196.232 869.519 203.184 C 876.67 211.353 886.03 217.92 891.228 227.661 C 896.687 237.89 893.518 247.841 886.45 256.308 C 874.064 271.148 853.15 282.423 852.312 304.067 C 851.589 322.731 868.785 331.552 880.929 342.119 Z " fill="rgb(255,255,255)"/></svg>