<?xml version="1.0" encoding="UTF-8" standalone="no"?><!-- Generator: Gravit.io --><svg xmlns="http://www.w3.org/2000/svg" xmlns:xlink="http://www.w3.org/1999/xlink" style="isolation:isolate" viewBox="878.44 348.839 259.848 251.963" width="259.848pt" height="251.963pt"><path d=" M 967.052 493.196 C 967.665 481.223 968.024 469.235 968.487 457.254 C 981.264 456.529 994.039 455.776 1006.81 455.007 C 1013.66 454.595 1020.51 454.17 1027.36 453.729 C 1032.59 453.393 1038.16 453.289 1042.67 450.303 C 1047.14 447.352 1048.83 442.43 1049.2 437.301 C 1049.71 430.359 1049.41 423.265 1049.43 416.306 C 1049.46 403.536 1049.49 390.766 1049.52 377.996 C 1073.55 378.014 1097.59 378.15 1121.62 378.332 C 1119.86 381.486 1118.1 384.639 1116.34 387.792 C 1112.45 394.765 1123.17 401.03 1127.05 394.047 C 1129.55 389.525 1132.06 385.003 1134.57 380.48 C 1136.83 376.399 1139.65 372.319 1137.55 367.581 C 1135.91 363.883 1132.2 360.768 1129.31 358.013 C 1125.66 354.531 1121.79 351.754 1117.46 349.197 C 1115.21 347.865 1112.6 350.515 1113.91 352.756 C 1115.62 355.714 1117.28 358.642 1119.21 361.471 C 1120.18 362.893 1121.18 364.294 1122.16 365.707 C 1122.27 365.871 1122.4 366.069 1122.52 366.287 C 1096.32 366.524 1070.11 366.706 1043.91 366.741 C 1040.86 366.745 1038.3 369.315 1038.28 372.365 C 1038.22 384.682 1038.17 396.998 1038.11 409.315 C 1038.08 415.641 1038.06 421.965 1038.07 428.29 C 1038.07 432.398 1039.66 440.039 1034.86 441.805 C 1030.32 443.474 1024.29 442.96 1019.53 443.313 C 1013.34 443.772 1007.14 444.267 1000.94 444.749 C 988.546 445.714 976.152 446.699 963.759 447.713 C 961.009 447.937 958.997 449.783 958.852 452.619 C 958.281 463.838 957.622 475.051 957.034 486.269 C 956.74 491.874 956.538 497.485 956.306 503.093 C 956.207 505.519 956.509 508.548 955.86 510.937 C 955.012 514.055 952.842 514.008 949.911 514.226 C 927.531 515.889 905.147 517.493 882.765 519.133 C 880.483 519.301 878.375 520.979 878.442 523.457 C 879.108 548.356 880.304 573.211 881.192 598.096 C 881.32 601.689 886.788 601.719 886.798 598.096 C 886.862 574.577 887.188 551.075 887.095 527.552 C 898.627 526.945 910.158 526.338 921.69 525.731 C 928.178 525.389 934.665 525.047 941.153 524.706 C 946.75 524.411 953.764 525.061 958.923 522.519 C 968.815 517.647 966.588 502.252 967.052 493.196 Z " fill="rgb(255,255,255)"/></svg>