<?xml version="1.0" encoding="UTF-8" standalone="no"?><!-- Generator: Gravit.io --><svg xmlns="http://www.w3.org/2000/svg" xmlns:xlink="http://www.w3.org/1999/xlink" style="isolation:isolate" viewBox="1013.686 490.042 149.789 99.606" width="149.789pt" height="99.606pt"><path d=" M 1160.3 499.539 C 1154.77 496.929 1149.2 494.371 1143.44 492.312 C 1138.69 490.613 1133.56 488.627 1128.82 491.486 C 1124.9 493.842 1121.95 498.619 1119.36 502.27 C 1116.02 506.959 1112.49 512.064 1110.87 517.644 C 1110.25 519.812 1112.97 522.325 1114.99 520.81 C 1120.18 516.93 1124.42 511.664 1128.64 506.62 C 1131.3 531.461 1117.8 553.929 1096.4 566.74 C 1073.86 580.237 1042.07 586.549 1016.95 577.303 C 1014.19 576.289 1012.32 580.739 1014.95 582.058 C 1041.99 595.647 1078.47 589.66 1103.78 574.599 C 1127.46 560.508 1146.17 531.943 1140.52 503.575 C 1140.86 503.767 1141.18 503.95 1141.49 504.102 C 1145.66 506.168 1149.86 508.174 1153.98 510.34 C 1161.16 514.112 1167.51 502.947 1160.3 499.539 Z " fill="rgb(255,255,255)"/></svg>