<?xml version="1.0" encoding="UTF-8" standalone="no"?><!-- Generator: Gravit.io --><svg xmlns="http://www.w3.org/2000/svg" xmlns:xlink="http://www.w3.org/1999/xlink" style="isolation:isolate" viewBox="47.541 597.028 118.457 151.507" width="118.457pt" height="151.507pt"><path d=" M 158.995 605.546 C 155.849 602.9 152.968 599.94 149.66 597.502 C 147.368 595.814 144.79 599.008 145.982 601.18 C 147.365 603.698 149.171 605.92 150.752 608.314 C 151.237 609.047 152.641 610.766 153.712 612.365 C 153.624 612.351 153.539 612.332 153.448 612.322 C 130.946 609.75 108.328 609.479 85.778 611.644 C 76.233 612.56 65.72 613.329 57.586 618.96 C 51.132 623.428 46.47 631.105 47.754 639.153 C 50.424 655.884 70.74 658.178 81.985 666.658 C 90.074 672.759 90.417 680.895 83.861 688.365 C 78.733 694.207 72.291 698.797 68.615 705.813 C 61.037 720.274 65.487 739.13 79.089 748.246 C 80.73 749.346 82.287 747.035 80.837 745.786 C 69.896 736.368 66.963 717.963 75.638 706.083 C 83.166 695.774 99.376 688.119 94.879 672.778 C 90.783 658.808 74.375 655.916 63.733 648.939 C 56.905 644.462 51.851 637.152 57.47 629.404 C 63.036 621.728 73.708 620.849 82.37 620.162 C 105.074 618.363 128.027 619.057 150.627 621.849 C 148.878 624.484 147.163 627.14 145.444 629.795 C 141.27 636.239 151.76 642.402 155.748 635.818 C 158.147 631.858 160.547 627.899 162.863 623.89 C 164.695 620.717 166.709 617.376 165.751 613.541 C 164.871 610.019 161.594 607.731 158.995 605.546 Z " fill="rgb(255,255,255)"/></svg>