<?xml version="1.0" encoding="UTF-8" standalone="no"?><!-- Generator: Gravit.io --><svg xmlns="http://www.w3.org/2000/svg" xmlns:xlink="http://www.w3.org/1999/xlink" style="isolation:isolate" viewBox="153.906 459.296 105.772 124.264" width="105.772pt" height="124.264pt"><path d=" M 245.227 499.729 C 248.495 496.258 251.831 492.853 255.106 489.389 C 257.636 486.712 260.002 484.094 259.642 480.155 C 259.305 476.467 256.303 472.969 254.165 470.137 C 251.462 466.557 248.472 463.313 245.23 460.221 C 242.556 457.671 238.759 460.869 240.286 464.036 C 241.559 466.676 242.793 469.336 244.033 471.991 C 244.228 472.409 244.586 473.036 245.004 473.763 C 223.61 465.348 198.405 466.488 179.452 480.433 C 161.033 493.984 150.505 516.917 154.901 539.691 C 159.289 562.428 178.109 581.325 201.478 583.385 C 224.531 585.418 246.283 569.552 247.503 545.698 C 248.096 534.081 242.397 523.024 232.514 516.9 C 222.713 510.827 211.628 511.021 201.834 516.839 C 199.915 517.979 201.595 520.724 203.56 519.792 C 211.05 516.24 220.801 518.534 227.469 522.977 C 234.728 527.813 238.198 535.689 237.781 544.299 C 236.859 563.304 218.524 574.681 200.717 572.12 C 183.103 569.587 169.893 555.041 166.129 538.09 C 162.273 520.725 170.173 502.879 183.427 491.645 C 199.738 477.821 223.469 476.493 242.495 485.087 C 240.45 487.013 238.404 488.936 236.341 490.843 C 230.396 496.337 239.665 505.637 245.227 499.729 Z " fill="rgb(255,255,255)"/></svg>