<?xml version="1.0" encoding="UTF-8" standalone="no"?><!-- Generator: Gravit.io --><svg xmlns="http://www.w3.org/2000/svg" xmlns:xlink="http://www.w3.org/1999/xlink" style="isolation:isolate" viewBox="99.701 185.651 143.17 141.964" width="143.17pt" height="141.964pt"><path d=" M 143.458 283.125 C 151.211 285.298 154.565 272.868 146.768 271.118 C 140.036 269.608 133.301 268.112 126.573 266.584 C 120.903 265.295 114.279 262.888 109.951 268.267 C 106.343 272.752 105.072 280.191 103.453 285.587 C 101.634 291.652 99.117 299.002 99.823 305.387 C 100.136 308.224 103.34 309.107 105.046 306.801 C 107.892 302.956 109.278 297.81 111.023 293.392 C 112.078 290.722 113.099 288.039 114.135 285.363 C 121.704 305.236 139.48 320.439 160.113 325.71 C 183.337 331.643 207.58 323.344 223.766 305.989 C 240.202 288.367 246.824 263.85 240.514 240.484 C 234.245 217.267 216.673 197.86 193.973 189.798 C 168.134 180.621 138.63 187.148 117.935 204.699 C 115.871 206.449 118.633 210.102 120.857 208.486 C 138.295 195.812 161.03 190.976 182.066 196.065 C 202.315 200.964 218.96 215.906 226.644 235.244 C 234.052 253.887 231.905 274.345 220.135 290.678 C 209.04 306.074 190.586 315.803 171.467 314.028 C 151.206 312.148 132.618 297.702 126.385 278.355 C 126.646 278.424 126.912 278.488 127.171 278.561 C 132.6 280.08 138.029 281.604 143.458 283.125 Z " fill="rgb(255,255,255)"/></svg>