<?xml version="1.0" encoding="UTF-8" standalone="no"?><!-- Generator: Gravit.io --><svg xmlns="http://www.w3.org/2000/svg" xmlns:xlink="http://www.w3.org/1999/xlink" style="isolation:isolate" viewBox="77.265 352.207 578.928 119.388" width="578.928pt" height="119.388pt"><path d=" M 631.865 416.936 C 627.717 425.797 640.083 431.665 644.145 422.616 C 647.281 415.632 650.134 408.535 652.612 401.289 C 654.739 395.067 657.967 387.719 654.991 381.243 C 652.439 375.685 645.815 372.744 640.775 369.992 C 633.531 366.039 626.025 362.025 618.237 359.255 C 614.858 358.052 611.737 362.758 614.446 365.282 C 618.756 369.295 623.579 372.852 628.388 376.24 C 630.99 378.073 633.61 379.888 636.27 381.635 C 636.535 381.808 636.86 381.991 637.205 382.178 C 636.935 382.457 636.676 382.76 636.436 383.106 C 631.24 390.617 621.36 391.982 612.903 390.864 C 602.569 389.498 593.903 384.212 585.603 378.223 C 576.258 371.479 567.399 363.825 556.94 358.804 C 546.261 353.677 534.476 351.47 522.657 352.423 C 470.665 356.612 442.155 402.796 405.472 433.234 C 387.642 448.03 365.961 459.738 342.162 458.359 C 321.624 457.169 302.922 446.533 285.915 435.812 C 267.613 424.275 249.956 411.452 229.859 403.124 C 212.099 395.765 192.771 393.334 173.709 395.724 C 131.612 401.002 92.502 428.052 77.41 468.376 C 76.41 471.049 80.885 472.973 82.06 470.337 C 97.915 434.769 133.392 410.017 171.658 404.671 C 191.152 401.947 211.006 404.67 228.91 412.876 C 248.298 421.762 265.334 434.841 283.202 446.304 C 300.361 457.311 318.749 466.974 339.344 469.017 C 362.395 471.304 384.57 462.258 403.038 449.049 C 441.202 421.751 469.01 370.43 519.44 364.293 C 532.567 362.695 545.205 365.401 556.489 372.26 C 567.565 378.993 576.985 388.076 587.995 394.91 C 603.344 404.436 625.329 408.183 640.096 397.354 C 639.595 398.502 639.132 399.548 638.818 400.383 C 636.713 405.987 634.403 411.515 631.865 416.936 Z " fill="rgb(255,255,255)"/></svg>