<?xml version="1.0" encoding="UTF-8" standalone="no"?><!-- Generator: Gravit.io --><svg xmlns="http://www.w3.org/2000/svg" xmlns:xlink="http://www.w3.org/1999/xlink" style="isolation:isolate" viewBox="722.548 431.832 106.875 63.869" width="106.875pt" height="63.869pt"><path d=" M 781.338 457.84 C 775.719 460.502 768.373 467.945 761.766 464.667 C 750.424 459.041 759.057 440.394 748.028 433.767 C 737.881 427.671 728.532 437.271 722.905 444.693 C 721.499 446.547 724.595 448.921 726.132 447.183 C 729.575 443.291 733.49 438.603 738.968 437.916 C 746.775 436.938 747.44 444.273 747.987 450.145 C 748.783 458.712 750.949 468.885 760.018 472.338 C 770.488 476.324 777.676 467.412 786.774 464.474 C 799.201 460.462 803.013 474.573 804.285 484.489 C 803.24 483.854 802.288 483.246 801.687 482.97 C 799.096 481.781 796.484 480.764 793.798 479.814 C 791.948 479.159 790.647 481.721 791.939 483.008 C 794.926 485.985 798.071 488.707 801.421 491.263 C 803.892 493.148 806.679 495.886 810.085 495.691 C 813.614 495.488 816.075 492.563 818.464 490.325 C 821.635 487.354 824.806 484.383 827.977 481.412 C 832.395 477.273 825.677 470.539 821.328 474.764 C 819.325 476.709 817.323 478.654 815.32 480.6 C 815.01 480.901 814.539 481.434 813.988 482.057 C 811.916 471.611 807.571 460.986 797.005 456.823 C 791.754 454.754 786.352 455.463 781.338 457.84 Z " fill="rgb(255,255,255)"/></svg>