<?xml version="1.0" encoding="UTF-8" standalone="no"?><!-- Generator: Gravit.io --><svg xmlns="http://www.w3.org/2000/svg" xmlns:xlink="http://www.w3.org/1999/xlink" style="isolation:isolate" viewBox="808.743 667.17 97.372 61.248" width="97.372pt" height="61.248pt"><path d=" M 904.475 681.581 C 900.705 678.21 896.873 674.897 893.031 671.608 C 890.323 669.29 887.632 666.752 883.795 667.228 C 879.785 667.726 877.523 671.421 875.062 674.245 C 871.796 677.992 868.541 681.747 865.221 685.446 C 862.348 688.646 866.796 693.151 869.958 690.182 C 872.219 688.058 874.502 685.959 876.795 683.868 C 878.115 682.665 880.063 680.219 881.935 678.557 C 881.886 684.728 881.366 691.088 878.905 696.726 C 875.823 703.787 869.496 708.196 862.776 711.462 C 847.477 718.896 829.189 723.264 812.24 720.498 C 808.748 719.928 807.219 724.845 810.749 725.904 C 829.746 731.601 851.195 726.952 868.752 718.592 C 876.465 714.919 883.445 709.409 887.436 701.713 C 890.316 696.162 891.596 690.148 892.111 684.025 C 893.776 685.667 895.444 687.307 897.135 688.922 C 901.984 693.552 909.445 686.026 904.475 681.581 Z " fill="rgb(255,255,255)"/></svg>