<?xml version="1.0" encoding="UTF-8" standalone="no"?><!-- Generator: Gravit.io --><svg xmlns="http://www.w3.org/2000/svg" xmlns:xlink="http://www.w3.org/1999/xlink" style="isolation:isolate" viewBox="315.431 521.572 133.735 49.487" width="133.735pt" height="49.487pt"><path d=" M 446.507 533.541 C 448.711 534.2 450.317 530.688 448.113 529.733 C 405.22 511.148 358.201 526.349 323.675 554.742 C 323.756 552.752 323.842 550.781 323.629 548.782 C 323.391 546.55 320.023 544.902 318.835 547.483 C 317.407 550.583 316.802 553.831 316.246 557.179 C 315.748 560.177 314.554 564.052 316.528 566.746 C 318.356 569.24 321.659 569.372 324.468 569.731 C 328.52 570.248 332.635 570.866 336.715 571.052 C 343.03 571.34 342.633 562.246 336.715 561.477 C 334.442 561.181 332.144 561.083 329.853 560.963 C 362.01 533.636 405.175 521.198 446.507 533.541 Z " fill="rgb(255,255,255)"/></svg>