<?xml version="1.0" encoding="UTF-8" standalone="no"?><!-- Generator: Gravit.io --><svg xmlns="http://www.w3.org/2000/svg" xmlns:xlink="http://www.w3.org/1999/xlink" style="isolation:isolate" viewBox="293.913 188.241 47.514 66.423" width="47.514pt" height="66.423pt"><g><path d=" M 340.09 254.664 L 340 254.662 L 339.965 254.663 L 295.163 254.663 C 294.473 254.663 293.913 254.103 293.913 253.413 C 293.913 252.722 294.473 252.163 295.163 252.163 L 338.927 252.163 L 338.927 224.858 L 295.279 224.858 L 295.218 224.858 C 294.523 224.858 294.186 224.381 294.096 224.229 C 293.984 224.037 293.924 223.818 293.924 223.595 L 293.924 194.614 C 293.924 194.341 294.013 194.076 294.178 193.859 C 294.334 193.652 294.708 193.321 295.349 193.343 L 295.386 193.342 L 338.927 193.342 C 339.618 193.342 340.177 193.902 340.177 194.592 C 340.177 195.283 339.618 195.842 338.927 195.842 L 296.424 195.842 L 296.424 222.358 L 340.076 222.358 C 340.701 222.339 341.042 222.695 341.165 222.854 C 341.338 223.079 341.429 223.372 341.427 223.662 L 341.427 223.662 L 341.427 253.382 C 341.427 253.515 341.406 253.646 341.365 253.772 C 341.226 254.195 340.812 254.664 340.09 254.664 Z " fill="rgb(255,255,255)"/><path d=" M 331.417 200.943 C 331.017 200.943 330.623 200.751 330.382 200.395 C 329.994 199.824 330.142 199.046 330.714 198.659 L 336.702 194.592 L 330.714 190.525 C 330.142 190.138 329.994 189.36 330.382 188.789 C 330.769 188.218 331.547 188.07 332.118 188.457 L 339.63 193.558 C 339.972 193.791 340.177 194.178 340.177 194.592 C 340.177 195.006 339.972 195.393 339.63 195.626 L 332.118 200.727 C 331.903 200.873 331.658 200.943 331.417 200.943 Z " fill="rgb(255,255,255)"/></g></svg>