<?xml version="1.0" encoding="UTF-8" standalone="no"?><!-- Generator: Gravit.io --><svg xmlns="http://www.w3.org/2000/svg" xmlns:xlink="http://www.w3.org/1999/xlink" style="isolation:isolate" viewBox="953.89 698.187 192.472 50.948" width="192.472pt" height="50.948pt"><path d=" M 1145.62 716.231 C 1142.72 709.067 1133.48 701.694 1126.65 698.474 C 1124.26 697.348 1121.35 699.721 1122.86 702.27 C 1125.34 706.468 1128.64 710.216 1131.35 714.295 C 1102.71 715.214 1074.06 715.812 1045.42 716.711 C 1019.38 717.529 993.067 717.472 967.049 719.459 C 967.183 719.32 967.31 719.185 967.417 719.058 C 968.607 717.638 969.76 716.184 970.917 714.738 C 973.193 711.896 975.465 709.033 977.351 705.915 C 978.627 703.807 975.997 700.904 973.838 702.401 C 969.85 705.166 966.302 708.492 962.734 711.768 C 959.775 714.486 955.069 717.905 954.08 722.038 C 953.033 726.412 956.554 729.696 958.973 732.903 C 962.476 737.547 965.978 742.19 969.481 746.834 C 973.812 752.576 981.968 746.443 977.369 740.747 C 974.933 737.729 972.497 734.712 970.061 731.694 C 968.843 730.185 967.625 728.677 966.406 727.168 C 966.325 727.067 966.243 726.965 966.161 726.864 C 992.507 728.025 1019.09 727.048 1045.42 726.975 C 1073.67 726.897 1101.92 726.528 1130.18 726.46 C 1128.48 729.145 1126.79 731.829 1125.1 734.521 C 1120.82 741.354 1131.77 747.753 1135.9 740.834 C 1138.42 736.614 1140.94 732.387 1143.43 728.151 C 1145.68 724.333 1147.41 720.653 1145.62 716.231 Z " fill="rgb(255,255,255)"/></svg>