<?xml version="1.0" encoding="UTF-8" standalone="no"?><!-- Generator: Gravit.io --><svg xmlns="http://www.w3.org/2000/svg" xmlns:xlink="http://www.w3.org/1999/xlink" style="isolation:isolate" viewBox="954.006 614.803 147.413 43.476" width="147.413pt" height="43.476pt"><path d=" M 956.596 639.724 C 999.304 643.667 1042.4 643.049 1085.17 640.233 C 1085.14 640.269 1085.11 640.311 1085.08 640.343 C 1082.88 643.048 1080.67 645.754 1078.47 648.46 C 1073.95 654.005 1081.87 661.969 1086.38 656.37 C 1089.56 652.411 1092.75 648.457 1095.93 644.493 C 1098.53 641.255 1101.76 638.041 1101.39 633.571 C 1101.03 629.128 1097.15 626.484 1093.97 623.912 C 1090.19 620.855 1086.08 618.291 1082.21 615.359 C 1079.49 613.294 1077.08 617.479 1078.85 619.716 C 1080.76 622.119 1082.44 624.698 1084.32 627.122 C 1084.87 627.822 1085.41 628.515 1085.96 629.203 C 1042.93 633.214 999.798 634.128 956.596 634.348 C 953.081 634.366 953.205 639.411 956.596 639.724 Z " fill="rgb(255,255,255)"/></svg>