<?xml version="1.0" encoding="UTF-8" standalone="no"?><!-- Generator: Gravit.io --><svg xmlns="http://www.w3.org/2000/svg" xmlns:xlink="http://www.w3.org/1999/xlink" style="isolation:isolate" viewBox="273.322 133.6 71.988 28.853" width="71.988pt" height="28.853pt"><g><path d=" M 275.779 156.317 L 275.778 156.319 L 275.779 156.317 Z  M 274.74 157.352 C 274.245 157.352 273.868 157.18 273.602 156.838 C 273.38 156.554 273.287 156.2 273.334 155.837 L 273.334 134.85 C 273.334 134.159 273.893 133.6 274.584 133.6 C 275.274 133.6 275.834 134.159 275.834 134.85 L 275.834 154.852 L 344.06 154.852 C 344.75 154.852 345.31 155.412 345.31 156.102 C 345.31 156.792 344.75 157.352 344.06 157.352 L 274.891 157.352 L 274.83 157.351 L 274.74 157.352 Z " fill="rgb(255,255,255)"/><path d=" M 336.549 162.453 C 336.149 162.453 335.756 162.261 335.514 161.905 C 335.126 161.333 335.275 160.556 335.846 160.168 L 341.835 156.102 L 335.846 152.036 C 335.275 151.648 335.126 150.871 335.514 150.299 C 335.902 149.728 336.68 149.58 337.25 149.967 L 344.762 155.068 C 345.105 155.301 345.31 155.688 345.31 156.102 C 345.31 156.516 345.105 156.903 344.762 157.136 L 337.25 162.237 C 337.035 162.383 336.791 162.453 336.549 162.453 Z " fill="rgb(255,255,255)"/></g></svg>