<?xml version="1.0" encoding="UTF-8" standalone="no"?><!-- Generator: Gravit.io --><svg xmlns="http://www.w3.org/2000/svg" xmlns:xlink="http://www.w3.org/1999/xlink" style="isolation:isolate" viewBox="314.47 23.29 27.678 61.907" width="27.678pt" height="61.907pt"><g><path d=" M 315.727 85.197 C 315.036 85.197 314.477 84.637 314.477 83.947 L 314.477 49.938 C 314.444 49.604 314.514 49.126 314.995 48.674 L 340.014 23.657 C 340.502 23.168 341.293 23.168 341.781 23.657 C 342.27 24.145 342.27 24.936 341.781 25.424 L 316.977 50.229 L 316.977 83.947 C 316.977 84.637 316.417 85.197 315.727 85.197 Z " fill="rgb(255,255,255)"/><path d=" M 339.194 34.709 L 338.958 34.686 C 338.28 34.557 337.835 33.902 337.965 33.224 L 339.324 26.114 L 332.214 27.473 C 331.534 27.603 330.881 27.159 330.752 26.48 C 330.622 25.802 331.067 25.147 331.744 25.018 L 340.663 23.313 C 341.07 23.234 341.489 23.364 341.781 23.657 C 342.074 23.95 342.203 24.369 342.125 24.775 L 340.42 33.694 C 340.306 34.292 339.782 34.709 339.194 34.709 Z " fill="rgb(255,255,255)"/></g></svg>