<?xml version="1.0" encoding="UTF-8" standalone="no"?><!-- Generator: Gravit.io --><svg xmlns="http://www.w3.org/2000/svg" xmlns:xlink="http://www.w3.org/1999/xlink" style="isolation:isolate" viewBox="67.129 26.354 53.954 32.498" width="53.954pt" height="32.498pt"><g><path d=" M 108.876 53.751 L 68.384 53.751 C 67.829 53.751 67.341 53.386 67.184 52.854 C 67.148 52.729 67.126 52.522 67.129 52.393 L 67.129 27.689 C 67.129 27.304 67.319 26.856 67.623 26.619 C 67.846 26.446 68.137 26.355 68.424 26.355 L 68.43 26.355 L 68.43 26.354 L 119.833 26.354 C 120.523 26.354 121.083 26.914 121.083 27.604 C 121.083 28.295 120.523 28.854 119.833 28.854 L 69.629 28.854 L 69.629 51.251 L 108.876 51.251 C 109.566 51.251 110.126 51.811 110.126 52.501 C 110.126 53.192 109.566 53.751 108.876 53.751 Z " fill="rgb(255,255,255)"/><path d=" M 101.365 58.852 C 100.965 58.852 100.572 58.66 100.33 58.304 C 99.942 57.733 100.091 56.956 100.662 56.568 L 106.651 52.501 L 100.662 48.435 C 100.091 48.047 99.942 47.27 100.33 46.699 C 100.718 46.128 101.496 45.979 102.066 46.367 L 109.578 51.467 C 109.921 51.7 110.126 52.087 110.126 52.501 C 110.126 52.916 109.921 53.303 109.578 53.536 L 102.066 58.636 C 101.851 58.782 101.607 58.852 101.365 58.852 Z " fill="rgb(255,255,255)"/></g></svg>