<?xml version="1.0" encoding="UTF-8" standalone="no"?><!-- Generator: Gravit.io --><svg xmlns="http://www.w3.org/2000/svg" xmlns:xlink="http://www.w3.org/1999/xlink" style="isolation:isolate" viewBox="205.601 24.716 30.257 58.021" width="30.257pt" height="58.021pt"><g><path d=" M 206.851 82.736 C 206.531 82.736 206.211 82.614 205.967 82.37 C 205.479 81.882 205.479 81.091 205.967 80.603 L 232.853 53.716 L 205.986 26.849 C 205.498 26.361 205.498 25.57 205.986 25.082 C 206.474 24.594 207.265 24.594 207.754 25.082 L 235.463 52.791 C 235.851 53.177 235.98 53.807 235.728 54.292 C 235.664 54.415 235.559 54.55 235.459 54.645 L 207.735 82.37 C 207.49 82.614 207.171 82.736 206.851 82.736 Z " fill="rgb(255,255,255)"/><path d=" M 206.851 82.736 C 206.523 82.736 206.203 82.607 205.967 82.37 C 205.674 82.077 205.545 81.659 205.623 81.251 L 207.328 72.333 C 207.457 71.655 208.112 71.208 208.79 71.34 C 209.468 71.47 209.913 72.124 209.783 72.803 L 208.424 79.913 L 215.534 78.554 C 216.212 78.427 216.867 78.868 216.997 79.546 C 217.127 80.225 216.682 80.879 216.004 81.009 L 207.086 82.714 L 206.851 82.736 Z " fill="rgb(255,255,255)"/></g></svg>