<?xml version="1.0" encoding="UTF-8" standalone="no"?><!-- Generator: Gravit.io --><svg xmlns="http://www.w3.org/2000/svg" xmlns:xlink="http://www.w3.org/1999/xlink" style="isolation:isolate" viewBox="252.07 161.517 12.718 75.192" width="12.718pt" height="75.192pt"><g><path d=" M 255.144 236.709 C 254.835 236.709 254.527 236.596 254.285 236.367 C 253.783 235.893 253.761 235.102 254.236 234.6 C 258.122 230.492 260.805 225.372 261.792 220.183 C 262.302 217.502 262.42 214.742 262.141 211.978 C 261.876 209.367 261.152 206.712 259.99 204.089 C 259.084 202.018 257.935 199.997 256.823 198.044 L 256.005 196.599 C 254.686 194.239 253.221 191.465 252.514 188.378 C 251.868 185.531 251.927 182.472 252.689 179.283 C 253.313 176.636 254.359 173.922 255.885 170.99 C 257.501 167.899 259.488 164.871 261.791 161.987 C 262.222 161.448 263.009 161.36 263.548 161.789 C 264.087 162.221 264.176 163.007 263.745 163.546 C 261.541 166.306 259.643 169.199 258.102 172.146 C 256.674 174.89 255.698 177.414 255.122 179.86 C 254.458 182.637 254.399 185.389 254.951 187.822 C 255.584 190.584 256.953 193.17 258.187 195.377 L 258.996 196.808 C 260.14 198.817 261.322 200.895 262.278 203.081 C 263.545 205.941 264.336 208.851 264.628 211.726 C 264.931 214.731 264.803 217.733 264.248 220.65 C 263.158 226.385 260.323 231.803 256.052 236.318 C 255.806 236.578 255.475 236.709 255.144 236.709 Z " fill="rgb(255,255,255)"/><path d=" M 262.839 172.807 C 262.204 172.807 261.661 172.326 261.596 171.681 C 261.367 169.384 261.305 166.986 261.41 164.53 C 259.092 165.337 256.832 166.301 254.673 167.402 C 254.057 167.717 253.304 167.472 252.991 166.857 C 252.677 166.242 252.921 165.489 253.536 165.176 C 256.355 163.737 259.336 162.525 262.397 161.573 C 262.792 161.45 263.223 161.531 263.547 161.789 C 263.871 162.047 264.046 162.449 264.014 162.862 C 263.788 165.821 263.811 168.705 264.084 171.433 C 264.153 172.119 263.651 172.732 262.964 172.8 L 262.839 172.807 Z " fill="rgb(255,255,255)"/></g></svg>