<?xml version="1.0" encoding="UTF-8" standalone="no"?><!-- Generator: Gravit.io --><svg xmlns="http://www.w3.org/2000/svg" xmlns:xlink="http://www.w3.org/1999/xlink" style="isolation:isolate" viewBox="193.05 138.416 45.499 12.702" width="45.499pt" height="12.702pt"><g><path d=" M 237.299 146.017 L 194.3 146.017 C 193.61 146.017 193.05 145.457 193.05 144.767 C 193.05 144.077 193.61 143.517 194.3 143.517 L 237.299 143.517 C 237.99 143.517 238.549 144.077 238.549 144.767 C 238.549 145.457 237.99 146.017 237.299 146.017 Z " fill="rgb(255,255,255)"/><path d=" M 229.788 151.118 C 229.388 151.118 228.995 150.926 228.753 150.57 C 228.365 149.998 228.514 149.221 229.085 148.833 L 235.074 144.767 L 229.085 140.7 C 228.514 140.312 228.365 139.535 228.753 138.964 C 229.141 138.393 229.919 138.245 230.49 138.632 L 238.001 143.733 C 238.344 143.966 238.549 144.353 238.549 144.767 C 238.549 145.181 238.344 145.568 238.001 145.801 L 230.49 150.902 C 230.275 151.048 230.03 151.118 229.788 151.118 Z " fill="rgb(255,255,255)"/></g></svg>