<?xml version="1.0" encoding="UTF-8"?><svg xmlns="http://www.w3.org/2000/svg" xmlns:xlink="http://www.w3.org/1999/xlink" width="64px" height="64px" viewBox="0 0 64 64" version="1.1"><title>Namecoin</title><g id="Page-1" stroke="none" stroke-width="1" fill="none" fill-rule="evenodd"><g id="crypto" transform="translate(-354.000000, -443.000000)" fill-rule="nonzero"><g id="Namecoin" transform="translate(354.000000, 443.000000)"><circle id="Oval" fill="#6B91C0" cx="31.7" cy="31.8" r="31.7"/><path d="M46.7 15.8c-.7 0-1.3 0-2 .1-.9.1-1.7.3-2.3.9-.2.2-.4.3-.5.6-.3.5-.5 1.1-.5 1.7 0 .6-.1 1.3-.1 1.9v7.4c-.1 0-.1 0-.2-.1-1.4-.9-2.9-1.8-4.3-2.8-1.9-1.2-3.8-2.5-5.7-3.7-2.4-1.6-4.8-3.1-7.3-4.7-.5-.3-1.1-.7-1.6-.9-.5-.2-1-.4-1.5-.4s-1.1 0-1.6.1c-.6.1-1.1.4-1.5.7-.4.2-.6.6-.8 1-.2.6-.3 1.2-.3 1.8v2.2c0 8.2 0 16.5.1 24.7v1.3c0 .2 0 .2.2.2h.8c.7 0 1.4 0 2.1-.2 1.3-.4 2.4-1.4 2.6-3.1 0-.8.1-1.6.1-2.4v-8.4-.2c.1 0 .1.1.2.1.4.3.7.5 1.1.8 3.5 2.5 7.1 5 10.6 7.6l6.3 4.5c.6.4 1.2.8 1.8 1.1.4.2.8.3 1.2.3.8 0 1.5-.3 2.2-.7.6-.4 1-1 1.1-1.8.1-.4.1-.8.1-1.2 0-7.7.1-15.4.1-23.2v-4.9c-.2-.3-.2-.3-.4-.3zm-5.6 23.6c0 .2-.1.4-.3.5-.2.1-.4.1-.6-.1-.6-.4-1.2-.8-1.7-1.2-2.9-1.9-5.8-3.9-8.7-5.8-2-1.4-4-2.7-6-4.1-.3-.2-.6-.4-.9-.7-.4-.3-.6-.6-.6-1.1v-.5c0-.8 0-1.7.1-2.5 0-.2 0-.4.1-.6.1-.2.2-.3.3-.4.2-.1.4-.1.6 0 .4.3.8.5 1.2.8 2.6 1.7 5.2 3.5 7.8 5.2 2.3 1.5 4.5 3.1 6.8 4.6.5.3.9.6 1.4 1 .4.2.6.5.5 1V39.4z" id="Shape" fill="#FFF"/></g></g></g><metadata><rdf:RDF xmlns:rdf="http://www.w3.org/1999/02/22-rdf-syntax-ns#" xmlns:rdfs="http://www.w3.org/2000/01/rdf-schema#" xmlns:dc="http://purl.org/dc/elements/1.1/"><rdf:Description about="https://iconscout.com/legal#licenses" dc:title="namecoin" dc:description="namecoin" dc:publisher="Iconscout" dc:date="2017-09-17" dc:format="image/svg+xml" dc:language="en"><dc:creator><rdf:Bag><rdf:li>Vladislav Sergeev</rdf:li></rdf:Bag></dc:creator></rdf:Description></rdf:RDF></metadata></svg>