<?xml version="1.0" encoding="UTF-8"?><svg xmlns="http://www.w3.org/2000/svg" xmlns:xlink="http://www.w3.org/1999/xlink" width="64px" height="65px" viewBox="0 0 64 65" version="1.1"><title>Ripple</title><g id="Page-1" stroke="none" stroke-width="1" fill="none" fill-rule="evenodd"><g id="crypto" transform="translate(-215.000000, -208.000000)" fill-rule="nonzero"><g id="Ripple" transform="translate(215.000000, 208.000000)"><circle id="Oval" fill="#739BEE" cx="32" cy="32.4" r="31.7"/><path d="M40.7 35.8c-1-.3-2-.4-2.9-.4-.9.1-1.9-.3-2.4-1.1l-.3-.4c-.6-.9-.6-2 0-2.9l.3-.5c.5-.7 1.3-1.1 2.2-1.1 1.1 0 2.2-.2 3.3-.8 2.7-1.4 4.5-4.1 4.4-7.1-.1-4.3-3.7-7.7-8.1-7.5-3.7.2-6.8 3.2-7.2 6.9-.2 2 .4 3.8 1.4 5.3.6.9.6 2.1 0 3l-.1.1c-.5.7-1.3 1.1-2.1 1.1h-.5c-1 0-1.9-.6-2.3-1.5-1.3-2.6-4-4.3-7.1-4.2-4 .1-7.3 3.4-7.4 7.4-.2 4.4 3.3 8 7.7 8 3 0 5.6-1.7 6.8-4.2.4-.9 1.3-1.5 2.3-1.5h.4c.9 0 1.7.4 2.1 1.1l.5.7c.6.8.5 1.9 0 2.7-.9 1.4-1.3 3-1.1 4.8.3 3.6 3.3 6.5 6.8 6.9 4.9.5 8.9-3.6 8.5-8.4-.2-2.9-2.3-5.5-5.2-6.4z" id="Shape" fill="#FEFEFE"/></g></g></g><metadata><rdf:RDF xmlns:rdf="http://www.w3.org/1999/02/22-rdf-syntax-ns#" xmlns:rdfs="http://www.w3.org/2000/01/rdf-schema#" xmlns:dc="http://purl.org/dc/elements/1.1/"><rdf:Description about="https://iconscout.com/legal#licenses" dc:title="ripple" dc:description="ripple" dc:publisher="Iconscout" dc:date="2017-09-17" dc:format="image/svg+xml" dc:language="en"><dc:creator><rdf:Bag><rdf:li>Vladislav Sergeev</rdf:li></rdf:Bag></dc:creator></rdf:Description></rdf:RDF></metadata></svg>