<?xml version="1.0" encoding="UTF-8"?><svg xmlns="http://www.w3.org/2000/svg" xmlns:xlink="http://www.w3.org/1999/xlink" width="64px" height="64px" viewBox="0 0 64 64" version="1.1"><title>Steem</title><g id="Page-1" stroke="none" stroke-width="1" fill="none" fill-rule="evenodd"><g id="crypto" transform="translate(-86.000000, -443.000000)" fill-rule="nonzero"><g id="Steem" transform="translate(86.000000, 443.000000)"><circle id="Oval" fill="#004F9E" cx="31.7" cy="31.8" r="31.7"/><g id="Group" transform="translate(15.000000, 14.000000)" fill="#27A1F8"><path d="M33 24.9c-.3.1-.3.4-.4.6-1.1 2.2-2.7 3.9-4.5 5.4-.1.1-.3.3-.6.2-.2-.7.2-1.3.4-1.9.8-2.2.5-4.3-.5-6.4-1.4-2.8-2.8-5.7-4-8.6-.4-1-.7-1.9-.9-3-.4-1.8.5-3.2 1.6-4.5.7-.8 1.4-1.5 2.3-2.1.2-.1.4-.4.6-.2.2.1.1.4.1.7-.2 1.6-.4 3.2 0 4.7.3 1.4 1.1 2.6 1.7 3.9 1.4 3 3 5.9 4 9.1.2.5.1 1.1.4 1.5-.2.2-.2.4-.2.6z" id="Shape"/><path d="M15.9 1.7c-.1.8-.3 1.6-.3 2.4-.2 2.5.5 4.7 1.6 6.9 1.8 3.8 3.8 7.6 5.3 11.5.4 1 .7 2.1.9 3.1.3 1.7-.7 2.9-1.6 4.1-1.2 1.7-2.6 3.2-4.2 4.5-.3.2-.6.5-.9.3-.3-.2-.1-.6 0-1 .4-1.2.7-2.5.9-3.8.4-2.3-.6-4.3-1.5-6.3-1.6-3.4-3.3-6.8-4.8-10.2-.6-1.3-.9-2.6-1.2-4-.4-1.9.4-3.5 1.6-5 1-1.3 2.1-2.5 3.4-3.4.2-.2.4-.5.8-.3.1.5-.1.9 0 1.2z" id="Shape"/><path d="M5.7 31.1c-.1-.4 0-.8.1-1.2 1-2.6.7-5-.5-7.5-1.4-2.7-2.8-5.5-3.9-8.3-.3-.8-.5-1.6-.8-2.5-.4-1.3-.1-2.5.6-3.6 1-1.5 2.2-2.8 3.8-3.8.1 1.2-.2 2.2-.2 3.2 0 1.5.2 2.8.9 4.2 1.3 2.6 2.5 5.3 3.7 7.9.6 1.2 1 2.5 1.4 3.8.2.7.2 1.4-.1 2.1-1.1 2.2-2.7 4-4.6 5.5-.1.2-.3.2-.4.2z" id="Shape"/></g></g></g></g><metadata><rdf:RDF xmlns:rdf="http://www.w3.org/1999/02/22-rdf-syntax-ns#" xmlns:rdfs="http://www.w3.org/2000/01/rdf-schema#" xmlns:dc="http://purl.org/dc/elements/1.1/"><rdf:Description about="https://iconscout.com/legal#licenses" dc:title="steem" dc:description="steem" dc:publisher="Iconscout" dc:date="2017-09-17" dc:format="image/svg+xml" dc:language="en"><dc:creator><rdf:Bag><rdf:li>Vladislav Sergeev</rdf:li></rdf:Bag></dc:creator></rdf:Description></rdf:RDF></metadata></svg>