<?xml version="1.0" encoding="UTF-8"?><svg xmlns="http://www.w3.org/2000/svg" xmlns:xlink="http://www.w3.org/1999/xlink" width="64px" height="65px" viewBox="0 0 64 65" version="1.1"><title>Dogecoin</title><g id="Page-1" stroke="none" stroke-width="1" fill="none" fill-rule="evenodd"><g id="crypto" transform="translate(-505.000000, -208.000000)" fill-rule="nonzero"><g id="Dogecoin" transform="translate(505.000000, 208.000000)"><circle id="Oval" fill="#F8BF1A" cx="32.2" cy="32.4" r="31.7"/><path d="M14.6 50.2v-8.4h4.9V22.6h-4.9v-8.1h20.5c1.4 0 2.8.4 4.1.9 2.6 1 4.9 2.5 6.7 4.7 1.6 1.9 2.7 4.1 3.3 6.6 1 4.2 1 8.5-.2 12.7-1.6 5.5-5 9.2-10.8 10.5-1 .2-2.1.3-3.1.4H15.4c-.3-.1-.5-.1-.8-.1zm14.9-8.4c1.1 0 2.2.1 3.3 0 1.4-.1 2.7-.6 3.6-1.8.8-1 1.5-2.1 1.9-3.3.8-2.7.5-5.4-.1-8.1-.3-1.6-1.1-3.1-2.1-4.3-.6-.7-1.4-1.5-2.3-1.6-1.4-.3-2.9-.1-4.3-.1v19.2z" id="Shape" fill="#FFF"/></g></g></g><metadata><rdf:RDF xmlns:rdf="http://www.w3.org/1999/02/22-rdf-syntax-ns#" xmlns:rdfs="http://www.w3.org/2000/01/rdf-schema#" xmlns:dc="http://purl.org/dc/elements/1.1/"><rdf:Description about="https://iconscout.com/legal#licenses" dc:title="dogecoin" dc:description="dogecoin" dc:publisher="Iconscout" dc:date="2017-09-17" dc:format="image/svg+xml" dc:language="en"><dc:creator><rdf:Bag><rdf:li>Vladislav Sergeev</rdf:li></rdf:Bag></dc:creator></rdf:Description></rdf:RDF></metadata></svg>