<?xml version="1.0" encoding="UTF-8"?><svg xmlns="http://www.w3.org/2000/svg" xmlns:xlink="http://www.w3.org/1999/xlink" width="40px" height="65px" viewBox="0 0 40 65" version="1.1"><title>Etherium</title><g id="Page-1" stroke="none" stroke-width="1" fill="none" fill-rule="evenodd"><g id="crypto" transform="translate(-227.000000, -93.000000)" fill-rule="nonzero"><g id="Etherium" transform="translate(227.000000, 93.000000)"><g id="Group"><path d="M20.1.8v23.3c0 .1-.1.2-.2.2-.7.3-1.3.6-2 .9-.9.4-1.9.8-2.8 1.3L11.8 28l-2.7 1.2-3.3 1.5c-.9.4-1.8.8-2.8 1.3-.7.3-1.5.7-2.2 1-.1 0-.1.1-.2 0H.5c.3-.5.6-.9.9-1.4 1.6-2.7 3.3-5.4 4.9-8.1 1.7-2.9 3.5-5.8 5.2-8.7 1.6-2.7 3.2-5.4 4.8-8 1.2-2 2.4-3.9 3.5-5.9.2 0 .2-.1.3-.1-.1 0 0 0 0 0z" id="Shape" fill="#8A92B2"/><path d="M39.5 33c-1.5 1-3.1 1.9-4.6 2.8-4.9 2.9-9.7 5.7-14.6 8.6-.1 0-.1.1-.2.1s-.1-.1-.1-.1v-.3-19.5-.3c0-.1.1-.1.2-.1.4.2.8.4 1.3.6 1.2.6 2.5 1.1 3.7 1.7 1.1.5 2.1 1 3.2 1.4 1.1.5 2.1 1 3.2 1.5.9.4 1.9.8 2.8 1.3.9.4 1.9.8 2.8 1.3.7.3 1.4.7 2.2 1 0-.1 0 0 .1 0z" id="Shape" fill="#454A75"/><path d="M20.1 64.1s-.1 0 0 0c-.1 0-.1 0-.2-.1-2-2.8-3.9-5.5-5.9-8.3l-6-8.4c-1.9-2.7-3.9-5.4-5.8-8.2L.7 37c0-.1-.1-.1-.1-.2.1 0 .1.1.2.1 2.7 1.6 5.5 3.2 8.2 4.8 3.1 1.9 6.3 3.7 9.4 5.6.5.3 1.1.6 1.6.9.1 0 .1.1.1.2V64.1z" id="Shape" fill="#8A92B2"/><path d="M.6 33s.1 0 0 0c.1 0 .1 0 0 0 0 .1 0 .1 0 0z" id="Shape" fill="gray"/><path d="M.7 33.1c0-.1 0-.1 0 0 1-.5 2-.9 3-1.4l3.9-1.8c1-.5 2-.9 3-1.4 1.4-.7 2.9-1.3 4.3-2 1-.4 2-.9 3-1.3.7-.3 1.4-.6 2.1-1 .1 0 .1-.1.2-.1V44.5c-.1.1-.1 0-.2 0-.3-.2-.6-.3-.8-.5L.9 33.2c-.1-.1-.2-.1-.2-.1z" id="Shape" fill="#62688F"/><path d="M39.4 36.8c0 .1 0 .1-.1.2-5.8 8.2-11.6 16.3-17.4 24.5-.6.9-1.2 1.7-1.8 2.6V64v-.2-15.3-.3c1.3-.8 2.6-1.6 3.9-2.3l15.3-9c0-.1.1-.1.1-.1z" id="Shape" fill="#62688F"/><path d="M20.1 24.2V24 1.1.9l19.2 31.8c.1.1.2.2.2.3-.4-.2-.8-.4-1.3-.6-.5-.2-1-.5-1.5-.7-.3-.1-.6-.3-1-.4-.5-.2-1.1-.5-1.6-.7-.3-.1-.6-.3-.9-.4l-2.1-.9c-.4-.2-.7-.3-1.1-.5-.5-.2-1-.5-1.5-.7-.3-.1-.6-.3-.9-.4l-2.1-.9c-.4-.2-.7-.3-1.1-.5-.5-.2-1-.5-1.5-.7-.3-.2-.7-.3-1-.5l-1.8-.9z" id="Shape" fill="#62688F"/></g></g></g></g><metadata><rdf:RDF xmlns:rdf="http://www.w3.org/1999/02/22-rdf-syntax-ns#" xmlns:rdfs="http://www.w3.org/2000/01/rdf-schema#" xmlns:dc="http://purl.org/dc/elements/1.1/"><rdf:Description about="https://iconscout.com/legal#licenses" dc:title="etherium" dc:description="etherium" dc:publisher="Iconscout" dc:date="2017-09-17" dc:format="image/svg+xml" dc:language="en"><dc:creator><rdf:Bag><rdf:li>Vladislav Sergeev</rdf:li></rdf:Bag></dc:creator></rdf:Description></rdf:RDF></metadata></svg>