<?xml version="1.0" encoding="UTF-8"?><svg xmlns="http://www.w3.org/2000/svg" xmlns:xlink="http://www.w3.org/1999/xlink" width="64px" height="64px" viewBox="0 0 64 64" version="1.1"><title>FLASH</title><g id="Page-1" stroke="none" stroke-width="1" fill="none" fill-rule="evenodd"><g id="crypto" transform="translate(-215.000000, -443.000000)" fill-rule="nonzero"><g id="FLASH" transform="translate(215.000000, 443.000000)"><g id="Group" transform="translate(2.000000, 1.000000)"><path d="M30 .7C13.4.7 0 14.1 0 30.7s13.4 30 30 30 30-13.4 30-30c.1-16.5-13.4-30-30-30zm9.7 39.7H20.4V21.1h19.3v19.3z" id="Shape" fill="#FFAF00"/><path d="M30 2.2c3.9 0 7.6.8 11.1 2.2 3.4 1.4 6.5 3.5 9.1 6.1 2.6 2.6 4.7 5.7 6.1 9.1 1.5 3.5 2.2 7.3 2.2 11.1 0 3.9-.8 7.6-2.2 11.1-1.4 3.4-3.5 6.5-6.1 9.1-2.6 2.6-5.7 4.7-9.1 6.1-3.5 1.5-7.3 2.2-11.1 2.2-3.9 0-7.6-.8-11.1-2.2-3.4-1.4-6.5-3.5-9.1-6.1-2.6-2.6-4.7-5.7-6.1-9.1-1.5-3.5-2.2-7.3-2.2-11.1 0-3.9.8-7.6 2.2-11.1 1.4-3.4 3.5-6.5 6.1-9.1 2.6-2.6 5.7-4.7 9.1-6.1C22.4 3 26.2 2.2 30 2.2zM18.9 41.9h22.3V19.6H18.9v22.3zM30 .7C13.4.7 0 14.1 0 30.7s13.4 30 30 30 30-13.4 30-30c.1-16.5-13.4-30-30-30zm-9.6 39.7V21.1h19.3v19.3H20.4z" id="Shape" fill="#FCE900"/></g><path d="M32 63.4c-8.5 0-16.4-3.3-22.4-9.3-6-6-9.3-13.9-9.3-22.4 0-8.5 3.3-16.4 9.3-22.4C15.6 3.3 23.5 0 32 0c8.5 0 16.4 3.3 22.4 9.3 6 6 9.3 13.9 9.3 22.4 0 8.5-3.3 16.4-9.3 22.4-5.9 6.1-13.9 9.3-22.4 9.3zm0-60C16.4 3.4 3.7 16.1 3.7 31.7 3.7 47.3 16.4 60 32 60c15.6 0 28.3-12.7 28.3-28.3C60.3 16.1 47.7 3.4 32 3.4z" id="Shape" fill="#F8F100"/></g></g></g><metadata><rdf:RDF xmlns:rdf="http://www.w3.org/1999/02/22-rdf-syntax-ns#" xmlns:rdfs="http://www.w3.org/2000/01/rdf-schema#" xmlns:dc="http://purl.org/dc/elements/1.1/"><rdf:Description about="https://iconscout.com/legal#licenses" dc:title="flash" dc:description="flash" dc:publisher="Iconscout" dc:date="2017-09-17" dc:format="image/svg+xml" dc:language="en"><dc:creator><rdf:Bag><rdf:li>Vladislav Sergeev</rdf:li></rdf:Bag></dc:creator></rdf:Description></rdf:RDF></metadata></svg>