<?xml version="1.0" encoding="UTF-8"?><svg xmlns="http://www.w3.org/2000/svg" xmlns:xlink="http://www.w3.org/1999/xlink" width="64px" height="65px" viewBox="0 0 64 65" version="1.1"><title>Lisk Wallet</title><defs><path d="M24.495 51.439c-1.1-.167-2.16-.458-3.152-.972-.374-.193-.435-.396-.219-.752l.795-1.294c.25-.407.402-.453.828-.253 1.561.73 3.197.933 4.891.673.565-.086 1.103-.258 1.523-.678.594-.594.601-1.601.01-2.198-.484-.488-1.088-.797-1.705-1.07-.917-.403-1.85-.773-2.77-1.171-.605-.261-1.164-.606-1.729-.943-2.313-1.378-2.644-5.631.591-7.06.99-.436 2.021-.647 3.09-.702 1.801-.093 3.552.156 5.243.794.397.149.462.326.251.69-.295.513-.59 1.025-.887 1.535-.179.306-.383.38-.723.264-1.148-.39-2.31-.7-3.538-.661-.508.017-1.01.066-1.49.25-1.035.4-1.278 1.545-.49 2.33.272.273.608.45.946.624 1.074.553 2.22.938 3.326 1.412a12.42 12.42 0 0 1 1.493.742c1.852 1.1 2.347 2.56 2.117 4.444-.245 2.009-1.524 3.113-3.365 3.682-.746.23-1.515.336-2.29.4-.067.006-2.454-.042-2.746-.086" id="path-1"/></defs><g id="Page-1" stroke="none" stroke-width="1" fill="none" fill-rule="evenodd"><g id="crypto" transform="translate(-215.000000, -325.000000)"><g id="Lisk-Wallet" transform="translate(215.000000, 325.000000)"><circle id="Oval" fill="#27A1F8" fill-rule="nonzero" cx="32" cy="32.4" r="31.7"/><g id="Group" transform="translate(16.000000, 10.000000)" fill-rule="nonzero" fill="#FEFEFE"><path d="M22.3 21.7c.2.1.2.2.2.4v9.8c0 .1 0 .2.1.3.1.1.2-.1.3-.1l5.9-5.9c.3-.3.6-.4.9-.4h2.7c.1 0 .2 0 .3.1.1.1 0 .2-.1.3-1.9 2-3.7 4-5.6 6-.4.4-.4.5-.1 1 1.7 2.7 3.5 5.4 5.2 8 0 .1.1.1.1.2.1.2.1.4-.2.4h-2.6c-.4 0-.7-.2-.9-.5L24.6 35c0-.1-.1-.1-.1-.2-.1-.2-.3-.2-.5-.1-.4.4-.8.8-1.2 1.1-.2.2-.3.5-.3.7V41c0 .5-.1.6-.6.6h-2.1c-.5 0-.6-.1-.6-.6V26.4v-1.6c0-.3.1-.6.4-.8.8-.7 1.7-1.4 2.5-2.2.1 0 .1 0 .2-.1z" id="Shape"/><path d="M3.3.4c.2.1.1.2.1.4V17c0 .5.1.6.6.6h7c.4 0 .5.1.5.5v1.8c0 .4-.1.5-.5.5H.7c-.2 0-.4-.1-.5-.2v-17c.1-.2.2-.4.4-.6.8-.7 1.5-1.3 2.3-2 .1-.1.2-.2.4-.2z" id="Shape"/><path d="M16.5 12.3v7.4c0 .4-.1.6-.6.6h-2.2c-.4 0-.5-.1-.5-.5V7.6c0-.3.1-.6.4-.8.8-.7 1.7-1.4 2.5-2.1.1-.1.2-.2.3-.1.1.1.1.2.1.3v7.4z" id="Shape"/></g><mask id="mask-2" fill="#fff"><use xlink:href="#path-1"/></mask><use id="Fill-1" fill="#FEFEFE" xlink:href="#path-1"/></g></g></g><metadata><rdf:RDF xmlns:rdf="http://www.w3.org/1999/02/22-rdf-syntax-ns#" xmlns:rdfs="http://www.w3.org/2000/01/rdf-schema#" xmlns:dc="http://purl.org/dc/elements/1.1/"><rdf:Description about="https://iconscout.com/legal#licenses" dc:title="lisk,wallet" dc:description="lisk,wallet" dc:publisher="Iconscout" dc:date="2017-09-17" dc:format="image/svg+xml" dc:language="en"><dc:creator><rdf:Bag><rdf:li>Vladislav Sergeev</rdf:li></rdf:Bag></dc:creator></rdf:Description></rdf:RDF></metadata></svg>