<?xml version="1.0" encoding="UTF-8" standalone="no"?><!-- Generator: Gravit.io --><svg xmlns="http://www.w3.org/2000/svg" xmlns:xlink="http://www.w3.org/1999/xlink" style="isolation:isolate" viewBox="0 0 750 500" width="750pt" height="500pt"><defs><clipPath id="_clipPath_vZB4FSXqgiicXSfRAKg7oglzFHO6c3RF"><rect width="750" height="500"/></clipPath></defs><g clip-path="url(#_clipPath_vZB4FSXqgiicXSfRAKg7oglzFHO6c3RF)"><clipPath id="_clipPath_s7lNHsHsPxiXanhx6XqAz46Qp2sgnq8T"><path d=" M 0 0 L 0 500 L 750 500 L 750 0 L 0 0 Z " id="Path" fill="rgb(255,255,255)"/></clipPath><g clip-path="url(#_clipPath_s7lNHsHsPxiXanhx6XqAz46Qp2sgnq8T)"><clipPath id="_clipPath_zh2aAveVC0psFS8Vx646K5KnErje7rFq"><path d=" M 750 500 L 0 500 L 0 0 L 750 0 L 750 500 Z " id="Path" fill="rgb(255,255,255)"/></clipPath><g clip-path="url(#_clipPath_zh2aAveVC0psFS8Vx646K5KnErje7rFq)"><path d=" M 431 0 C 450 43 528.139 63.888 611 42 C 717 14 734 86 741 151 C 747.806 214.196 692 285 750 323 L 750 0 L 431 0 Z " id="Path" fill="rgb(24,167,149)"/><path d=" M 72.597 456.261 C 36.479 458.201 20.845 412.279 48.687 393.602 C 76.529 374.925 145.163 393.778 151.745 415.544 C 158.326 437.311 99.84 454.797 72.597 456.261 Z " id="Path" fill="rgb(24,167,149)"/><path d=" M 301.5 500 C 322.5 488 380.5 471 448.5 500 L 301.5 500 Z " id="Path" fill="rgb(24,167,149)"/><path d=" M -14 378 C 6.255 389.448 3 493 99 474 C 190.125 455.965 250.037 487.53 245 506 C 236 539 -16 514 -16 514 L -14 378 Z " id="Path" fill="rgb(252,152,31)"/><path d=" M 0 337.333 C 27.933 291.624 51.826 248.899 41.477 221.833 C 30.473 193.053 0 180.356 0 180.356 L 0 337.333 Z " id="Path" fill="rgb(252,91,35)"/><path d=" M 1 144 C 72.218 144 13.677 17 102 17 C 124 17 186 48 181.966 0.305 C 180.918 -12.089 0 0 0 0 C 0 0 -37 144 1 144 Z " id="Path" fill="rgb(24,167,149)"/><path d=" M 534 500 C 597 472 635.32 434.664 702 448 C 719.349 451.47 750 468 750 500 L 534 500 Z " id="Path" fill="rgb(252,152,31)"/><path d=" M 659 57 C 631 55 632 83 658 96 C 674.805 104.402 707 126 713 110 C 719 94 690.065 59.219 659 57 Z " id="Path" fill="rgb(252,152,31)"/><path d=" M 496 451 C 478.371 445.882 463 493 495.472 485.495 C 520.446 479.723 527 460 496 451 Z " id="Path" fill="rgb(252,152,31)"/><path d=" M 544 -17 C 526.062 -13.1 560 26 584 17 C 608 8 567 -22 544 -17 Z " id="Path" fill="rgb(255,255,255)"/><path d=" M 236 -9 C 232.707 17.358 349 32 384 -8 C 405.27 -32.309 236 -9 236 -9 Z " id="Path" fill="rgb(252,152,31)"/><path d=" M 773 413 C 786.498 383.986 722.737 360.455 708.299 376.979 C 693.861 393.504 720.723 409.493 731 414 C 754.477 424.296 768.48 422.715 773 413 Z " id="Path" fill="rgb(252,91,35)"/><path d=" M 214.964 -0.743 C 213.654 -1.991 212.345 -3.239 211.036 -4.487 C 210.337 -5.153 209.274 -4.094 209.975 -3.426 C 211.284 -2.178 212.594 -0.93 213.903 0.318 C 214.602 0.984 215.664 -0.075 214.964 -0.743 Z " id="Path" fill="rgb(1,29,68)"/><path d=" M 59.507 186.42 C 37.103 186.416 41.522 154.495 56.687 152.754 C 58.196 152.581 59.617 152.499 60.958 152.499 C 85.162 152.499 82.674 179.309 75.532 182.434 C 69.119 185.24 63.818 186.421 59.507 186.42 Z " id="Path" fill="rgb(252,152,31)"/></g></g></g></svg>