<?xml version="1.0" encoding="UTF-8" standalone="no"?><!-- Generator: Gravit.io --><svg xmlns="http://www.w3.org/2000/svg" xmlns:xlink="http://www.w3.org/1999/xlink" style="isolation:isolate" viewBox="0 0 2500 1600" width="2500pt" height="1600pt"><defs><clipPath id="_clipPath_9A3E61d3vodIwXaD7hiPnZKrxHqRcCBa"><rect width="2500" height="1600"/></clipPath></defs><g clip-path="url(#_clipPath_9A3E61d3vodIwXaD7hiPnZKrxHqRcCBa)"><clipPath id="_clipPath_jqSIwAAgGjnZTbUTo4XGtt1mjoISbn3e"><path d=" M 0 0 L 0 1600 L 2500 1600 L 2500 0 L 0 0 Z " id="Path" fill="rgb(255,255,255)"/></clipPath><g clip-path="url(#_clipPath_jqSIwAAgGjnZTbUTo4XGtt1mjoISbn3e)"><path d=" M 134.246 1600 L 816.188 1600 C 758.738 1468.72 627.689 1376.99 475.217 1376.99 C 322.744 1376.99 191.695 1468.72 134.246 1600 Z " id="Path" fill="rgb(252,228,169)"/><path d=" M 1530.19 1600 L 2083.33 1600 C 2015.23 1524.36 1916.55 1476.79 1806.76 1476.79 C 1696.97 1476.79 1598.29 1524.36 1530.19 1600 Z " id="Path" fill="rgb(252,228,169)"/><path d=" M 1650.81 0 C 1717.97 96.834 1829.93 160.245 1956.7 160.245 C 2083.47 160.245 2195.43 96.834 2262.6 0 L 1650.81 0 Z " id="Path" fill="rgb(252,228,169)"/><path d=" M 202.739 0 C 239.196 143.438 369.187 249.542 523.968 249.542 C 678.749 249.542 808.739 143.438 845.196 0 L 202.739 0 Z " id="Path" fill="rgb(252,228,169)"/><path d=" M 287.413 365.2 C 287.413 379.458 275.854 391.016 261.596 391.016 C 247.338 391.016 235.78 379.458 235.78 365.2 C 235.78 350.941 247.338 339.383 261.596 339.383 C 275.854 339.383 287.413 350.941 287.413 365.2 Z " id="Path" fill="rgb(250,85,102)"/><path d=" M 372.154 139.958 C 372.154 148.666 365.096 155.724 356.389 155.724 C 347.682 155.724 340.624 148.666 340.624 139.958 C 340.624 131.251 347.682 124.193 356.389 124.193 C 365.096 124.193 372.154 131.251 372.154 139.958 Z " id="Path" fill="rgb(106,126,197)"/><path d=" M 632.14 302.332 C 632.14 311.039 625.082 318.097 616.375 318.097 C 607.668 318.097 600.61 311.039 600.61 302.332 C 600.61 293.625 607.668 286.566 616.375 286.566 C 625.082 286.566 632.14 293.625 632.14 302.332 Z " id="Path" fill="rgb(255,184,2)"/><path d=" M 1148.05 120.968 C 1148.05 127.859 1142.46 133.446 1135.57 133.446 C 1128.68 133.446 1123.09 127.859 1123.09 120.968 C 1123.09 114.077 1128.68 108.491 1135.57 108.491 C 1142.46 108.491 1148.05 114.077 1148.05 120.968 Z " id="Path" fill="rgb(1,144,153)"/><path d=" M 711.515 182.145 C 711.515 196.399 699.959 207.955 685.705 207.955 C 671.45 207.955 659.895 196.399 659.895 182.145 C 659.895 167.89 671.45 156.334 685.705 156.334 C 699.959 156.334 711.515 167.89 711.515 182.145 Z " id="Path" fill="rgb(250,85,102)"/><path d=" M 111.132 361.862 C 111.132 368.676 105.608 374.2 98.794 374.2 C 91.981 374.2 86.457 368.676 86.457 361.862 C 86.457 355.049 91.981 349.525 98.794 349.525 C 105.608 349.525 111.132 355.049 111.132 361.862 Z " id="Path" fill="rgb(255,184,2)"/><path d=" M 1369.55 302.576 C 1369.55 313.47 1360.72 322.301 1349.83 322.301 C 1338.94 322.301 1330.1 313.47 1330.1 302.576 C 1330.1 291.683 1338.94 282.852 1349.83 282.852 C 1360.72 282.852 1369.55 291.683 1369.55 302.576 Z " id="Path" fill="rgb(255,184,2)"/><path d=" M 1159.37 254.956 C 1159.37 261.095 1154.4 266.071 1148.26 266.071 C 1142.12 266.071 1137.14 261.095 1137.14 254.956 C 1137.14 248.817 1142.12 243.84 1148.26 243.84 C 1154.4 243.84 1159.37 248.817 1159.37 254.956 Z " id="Path" fill="rgb(250,85,102)"/><path d=" M 1522.1 99.227 C 1522.1 111.652 1512.03 121.725 1499.6 121.725 C 1487.18 121.725 1477.11 111.652 1477.11 99.227 C 1477.11 86.801 1487.18 76.728 1499.6 76.728 C 1512.03 76.728 1522.1 86.801 1522.1 99.227 Z " id="Path" fill="rgb(250,85,102)"/><path d=" M 333.887 629.508 C 333.887 634.602 329.758 638.73 324.665 638.73 C 319.571 638.73 315.442 634.602 315.442 629.508 C 315.442 624.415 319.571 620.286 324.665 620.286 C 329.758 620.286 333.887 624.415 333.887 629.508 Z " id="Path" fill="rgb(106,126,197)"/><path d=" M 159.233 861.403 C 159.233 873.687 149.275 883.645 136.992 883.645 C 124.708 883.645 114.75 873.687 114.75 861.403 C 114.75 849.12 124.708 839.162 136.992 839.162 C 149.275 839.162 159.233 849.12 159.233 861.403 Z " id="Path" fill="rgb(250,85,102)"/><path d=" M 248.256 970.964 C 248.256 978.42 242.212 984.464 234.756 984.464 C 227.301 984.464 221.257 978.42 221.257 970.964 C 221.257 963.509 227.301 957.465 234.756 957.465 C 242.212 957.465 248.256 963.509 248.256 970.964 Z " id="Path" fill="rgb(1,144,153)"/><path d=" M 1924.46 235.737 C 1924.46 246.515 1915.72 255.252 1904.95 255.252 C 1894.17 255.252 1885.43 246.515 1885.43 235.737 C 1885.43 224.958 1894.17 216.221 1904.95 216.221 C 1915.72 216.221 1924.46 224.958 1924.46 235.737 Z " id="Path" fill="rgb(250,85,102)"/><path d=" M 2076.66 363.129 C 2076.66 370.458 2070.71 376.398 2063.39 376.398 C 2056.06 376.398 2050.12 370.458 2050.12 363.129 C 2050.12 355.8 2056.06 349.859 2063.39 349.859 C 2070.71 349.859 2076.66 355.8 2076.66 363.129 Z " id="Path" fill="rgb(255,184,2)"/><path d=" M 1968.14 90.977 C 1968.14 98.306 1962.2 104.247 1954.87 104.247 C 1947.54 104.247 1941.6 98.306 1941.6 90.977 C 1941.6 83.649 1947.54 77.708 1954.87 77.708 C 1962.2 77.708 1968.14 83.649 1968.14 90.977 Z " id="Path" fill="rgb(106,126,197)"/><path d=" M 2262.88 255.252 C 2262.88 268.446 2252.19 279.143 2238.99 279.143 C 2225.8 279.143 2215.1 268.446 2215.1 255.252 C 2215.1 242.058 2225.8 231.362 2238.99 231.362 C 2252.19 231.362 2262.88 242.058 2262.88 255.252 Z " id="Path" fill="rgb(106,126,197)"/><path d=" M 2315.95 129.034 C 2315.95 135.552 2310.66 140.837 2304.14 140.837 C 2297.62 140.837 2292.34 135.552 2292.34 129.034 C 2292.34 122.515 2297.62 117.23 2304.14 117.23 C 2310.66 117.23 2315.95 122.515 2315.95 129.034 Z " id="Path" fill="rgb(255,184,2)"/><path d=" M 2318.82 680.178 C 2318.82 684.842 2315.03 688.624 2310.37 688.624 C 2305.7 688.624 2301.92 684.842 2301.92 680.178 C 2301.92 675.513 2305.7 671.731 2310.37 671.731 C 2315.03 671.731 2318.82 675.513 2318.82 680.178 Z " id="Path" fill="rgb(106,126,197)"/><path d=" M 2315.24 376.398 C 2315.24 383.727 2309.3 389.667 2301.97 389.667 C 2294.64 389.667 2288.7 383.727 2288.7 376.398 C 2288.7 369.07 2294.64 363.129 2301.97 363.129 C 2309.3 363.129 2315.24 369.07 2315.24 376.398 Z " id="Path" fill="rgb(250,85,102)"/><path d=" M 2264.94 541.429 C 2264.94 552.122 2256.28 560.791 2245.58 560.791 C 2234.89 560.791 2226.22 552.122 2226.22 541.429 C 2226.22 530.735 2234.89 522.066 2245.58 522.066 C 2256.28 522.066 2264.94 530.735 2264.94 541.429 Z " id="Path" fill="rgb(1,144,153)"/><path d=" M 2206 786.175 C 2206 792.034 2201.25 796.783 2195.39 796.783 C 2189.54 796.783 2184.79 792.034 2184.79 786.175 C 2184.79 780.317 2189.54 775.568 2195.39 775.568 C 2201.25 775.568 2206 780.317 2206 786.175 Z " id="Path" fill="rgb(255,184,2)"/><path d=" M 2458.44 692.607 C 2458.44 704.137 2449.09 713.483 2437.56 713.483 C 2426.03 713.483 2416.69 704.137 2416.69 692.607 C 2416.69 681.078 2426.03 671.731 2437.56 671.731 C 2449.09 671.731 2458.44 681.078 2458.44 692.607 Z " id="Path" fill="rgb(250,85,102)"/><path d=" M 2241.48 1135.97 C 2241.48 1145.76 2233.54 1153.71 2223.74 1153.71 C 2213.94 1153.71 2206 1145.76 2206 1135.97 C 2206 1126.17 2213.94 1118.22 2223.74 1118.22 C 2233.54 1118.22 2241.48 1126.17 2241.48 1135.97 Z " id="Path" fill="rgb(106,126,197)"/><path d=" M 2292.79 1236.79 C 2292.79 1242.9 2287.83 1247.86 2281.72 1247.86 C 2275.6 1247.86 2270.64 1242.9 2270.64 1236.79 C 2270.64 1230.67 2275.6 1225.71 2281.72 1225.71 C 2287.83 1225.71 2292.79 1230.67 2292.79 1236.79 Z " id="Path" fill="rgb(255,184,2)"/><path d=" M 2436.08 1164.79 C 2436.08 1170.9 2431.12 1175.86 2425 1175.86 C 2418.88 1175.86 2413.92 1170.9 2413.92 1164.79 C 2413.92 1158.67 2418.88 1153.71 2425 1153.71 C 2431.12 1153.71 2436.08 1158.67 2436.08 1164.79 Z " id="Path" fill="rgb(250,85,102)"/><path d=" M 2213.95 1521.25 C 2213.95 1526.1 2210.01 1530.04 2205.15 1530.04 C 2200.29 1530.04 2196.36 1526.1 2196.36 1521.25 C 2196.36 1516.39 2200.29 1512.45 2205.15 1512.45 C 2210.01 1512.45 2213.95 1516.39 2213.95 1521.25 Z " id="Path" fill="rgb(106,126,197)"/><path d=" M 2138.2 1332.55 C 2138.2 1339.5 2132.57 1345.13 2125.62 1345.13 C 2118.67 1345.13 2113.04 1339.5 2113.04 1332.55 C 2113.04 1325.6 2118.67 1319.96 2125.62 1319.96 C 2132.57 1319.96 2138.2 1325.6 2138.2 1332.55 Z " id="Path" fill="rgb(106,126,197)"/><path d=" M 1869.45 1513.98 C 1869.45 1520.42 1864.23 1525.64 1857.79 1525.64 C 1851.34 1525.64 1846.12 1520.42 1846.12 1513.98 C 1846.12 1507.54 1851.34 1502.31 1857.79 1502.31 C 1864.23 1502.31 1869.45 1507.54 1869.45 1513.98 Z " id="Path" fill="rgb(250,85,102)"/><path d=" M 1993.11 1299.74 C 1993.11 1311.59 1983.51 1321.2 1971.66 1321.2 C 1959.81 1321.2 1950.2 1311.59 1950.2 1299.74 C 1950.2 1287.89 1959.81 1278.29 1971.66 1278.29 C 1983.51 1278.29 1993.11 1287.89 1993.11 1299.74 Z " id="Path" fill="rgb(250,85,102)"/><path d=" M 1432.43 1537.49 C 1432.43 1542.25 1428.57 1546.11 1423.8 1546.11 C 1419.04 1546.11 1415.18 1542.25 1415.18 1537.49 C 1415.18 1532.72 1419.04 1528.86 1423.8 1528.86 C 1428.57 1528.86 1432.43 1532.72 1432.43 1537.49 Z " id="Path" fill="rgb(255,184,2)"/><path d=" M 1604.21 1414.68 C 1604.21 1427.06 1594.18 1437.08 1581.81 1437.08 C 1569.44 1437.08 1559.41 1427.06 1559.41 1414.68 C 1559.41 1402.31 1569.44 1392.29 1581.81 1392.29 C 1594.18 1392.29 1604.21 1402.31 1604.21 1414.68 Z " id="Path" fill="rgb(255,184,2)"/><path d=" M 1418.4 1414.68 C 1418.4 1422.67 1411.92 1429.15 1403.93 1429.15 C 1395.94 1429.15 1389.47 1422.67 1389.47 1414.68 C 1389.47 1406.69 1395.94 1400.22 1403.93 1400.22 C 1411.92 1400.22 1418.4 1406.69 1418.4 1414.68 Z " id="Path" fill="rgb(106,126,197)"/><path d=" M 1199.1 1400.66 C 1199.1 1414.3 1188.04 1425.35 1174.4 1425.35 C 1160.77 1425.35 1149.71 1414.3 1149.71 1400.66 C 1149.71 1387.02 1160.77 1375.97 1174.4 1375.97 C 1188.04 1375.97 1199.1 1387.02 1199.1 1400.66 Z " id="Path" fill="rgb(250,85,102)"/><path d=" M 1041.57 1518.9 C 1041.57 1526.84 1035.14 1533.27 1027.2 1533.27 C 1019.27 1533.27 1012.83 1526.84 1012.83 1518.9 C 1012.83 1510.96 1019.27 1504.53 1027.2 1504.53 C 1035.14 1504.53 1041.57 1510.96 1041.57 1518.9 Z " id="Path" fill="rgb(1,144,153)"/><path d=" M 807.2 1441.39 C 807.2 1445.2 804.104 1448.3 800.286 1448.3 C 796.467 1448.3 793.372 1445.2 793.372 1441.39 C 793.372 1437.57 796.467 1434.47 800.286 1434.47 C 804.104 1434.47 807.2 1437.57 807.2 1441.39 Z " id="Path" fill="rgb(255,184,2)"/><path d=" M 642.629 1436.79 C 642.629 1444.88 636.071 1451.44 627.982 1451.44 C 619.893 1451.44 613.335 1444.88 613.335 1436.79 C 613.335 1428.7 619.893 1422.14 627.982 1422.14 C 636.071 1422.14 642.629 1428.7 642.629 1436.79 Z " id="Path" fill="rgb(1,144,153)"/><path d=" M 495.909 1368.06 C 495.909 1379.49 486.645 1388.75 475.217 1388.75 C 463.789 1388.75 454.525 1379.49 454.525 1368.06 C 454.525 1356.63 463.789 1347.37 475.217 1347.37 C 486.645 1347.37 495.909 1356.63 495.909 1368.06 Z " id="Path" fill="rgb(106,126,197)"/><path d=" M 373.569 1419.9 C 373.569 1426.36 368.333 1431.6 361.875 1431.6 C 355.417 1431.6 350.183 1426.36 350.183 1419.9 C 350.183 1413.45 355.417 1408.21 361.875 1408.21 C 368.333 1408.21 373.569 1413.45 373.569 1419.9 Z " id="Path" fill="rgb(255,184,2)"/><path d=" M 58.783 1321.39 C 58.783 1325.85 55.174 1329.46 50.722 1329.46 C 46.271 1329.46 42.662 1325.85 42.662 1321.39 C 42.662 1316.94 46.271 1313.33 50.722 1313.33 C 55.174 1313.33 58.783 1316.94 58.783 1321.39 Z " id="Path" fill="rgb(250,85,102)"/><path d=" M 178.588 1288.3 C 178.588 1297.67 170.988 1305.27 161.613 1305.27 C 152.238 1305.27 144.639 1297.67 144.639 1288.3 C 144.639 1278.92 152.238 1271.32 161.613 1271.32 C 170.988 1271.32 178.588 1278.92 178.588 1288.3 Z " id="Path" fill="rgb(106,126,197)"/><path d=" M 359.343 1193.71 C 359.343 1198.77 355.242 1202.88 350.183 1202.88 C 345.123 1202.88 341.022 1198.77 341.022 1193.71 C 341.022 1188.66 345.123 1184.55 350.183 1184.55 C 355.242 1184.55 359.343 1188.66 359.343 1193.71 Z " id="Path" fill="rgb(250,85,102)"/><path d=" M 1565.1 242.566 C 1554.82 242.836 1546.54 246.302 1540.63 251.526 C 1530.95 260.071 1528.47 272.578 1534.85 280.616 C 1542.08 289.731 1551.5 293.11 1558.85 289.228 C 1567.08 284.88 1573.79 270.437 1565.59 244.039 C 1565.44 243.544 1565.27 243.051 1565.1 242.566 Z  M 1547.7 300.793 C 1540.21 299.407 1532.8 294.697 1526.73 287.053 C 1516.88 274.626 1519.9 256.017 1533.77 243.764 C 1540.35 237.955 1549.21 233.794 1559.94 232.61 C 1535.18 197.129 1457.27 192.954 1456.41 192.914 C 1453.57 192.782 1451.35 190.351 1451.49 187.493 C 1451.62 184.637 1454.05 182.432 1456.91 182.569 C 1460.84 182.757 1548.38 187.49 1571.99 232.526 C 1592.92 234.414 1619.07 246.741 1648.34 276.546 C 1650.35 278.586 1650.32 281.865 1648.28 283.868 C 1646.24 285.873 1642.96 285.843 1640.95 283.803 C 1616.15 258.544 1594.26 246.785 1576.65 243.525 C 1576.5 243.499 1576.36 243.474 1576.22 243.448 C 1585.04 274.385 1575.13 292.345 1563.69 298.386 C 1558.65 301.049 1553.15 301.801 1547.7 300.793 Z " id="Compound Path" fill="rgb(106,126,197)"/><path d=" M 976.308 1431.52 C 984.853 1425.81 990.006 1418.45 992.216 1410.88 C 995.832 1398.49 991.255 1386.59 981.57 1383.2 C 970.59 1379.35 960.82 1381.52 956.675 1388.73 C 952.036 1396.81 954.08 1412.6 975.108 1430.54 C 975.502 1430.88 975.903 1431.21 976.308 1431.52 Z  M 959.927 1373 C 967.001 1370.17 975.784 1370.2 984.993 1373.42 C 999.963 1378.66 1007.34 1396.01 1002.16 1413.78 C 999.7 1422.2 994.43 1430.45 985.985 1437.19 C 1025.87 1453.96 1093.97 1415.89 1094.72 1415.46 C 1097.19 1414.06 1100.37 1414.93 1101.78 1417.42 C 1103.19 1419.91 1102.31 1423.07 1099.82 1424.47 C 1096.4 1426.42 1019.86 1469.16 975.847 1443.69 C 957.142 1453.27 928.449 1456.81 887.784 1447.24 C 885 1446.59 883.274 1443.8 883.929 1441.02 C 884.583 1438.23 887.372 1436.51 890.155 1437.16 C 924.618 1445.27 949.398 1443.53 966.035 1436.88 C 966.168 1436.82 966.303 1436.77 966.436 1436.71 C 942.46 1415.27 941.25 1394.79 947.696 1383.57 C 950.537 1378.63 954.78 1375.06 959.927 1373 Z " id="Compound Path" fill="rgb(255,184,2)"/><path d=" M 2153.01 1004.86 C 2154.38 1015.05 2158.71 1022.92 2164.53 1028.24 C 2174.05 1036.95 2186.75 1038.09 2194.07 1030.89 C 2202.36 1022.73 2204.72 1013.01 2200.08 1006.11 C 2194.88 998.384 2179.8 993.255 2154.43 1004.22 C 2153.95 1004.42 2153.48 1004.64 2153.01 1004.86 Z  M 2212.76 1015.96 C 2212.18 1023.56 2208.29 1031.43 2201.33 1038.28 C 2190.03 1049.4 2171.2 1048.37 2157.54 1035.89 C 2151.06 1029.97 2145.98 1021.6 2143.66 1011.05 C 2111.02 1039.45 2115.16 1117.36 2115.22 1118.22 C 2115.39 1121.06 2113.21 1123.53 2110.35 1123.7 C 2107.5 1123.86 2105.04 1121.68 2104.88 1118.83 C 2104.65 1114.9 2100.03 1027.35 2142.3 999.083 C 2141.95 978.069 2151.42 950.756 2177.94 918.476 C 2179.75 916.266 2183.02 915.945 2185.23 917.761 C 2187.44 919.575 2187.75 922.84 2185.94 925.049 C 2163.47 952.405 2154.1 975.415 2152.74 993.28 C 2152.73 993.424 2152.72 993.568 2152.71 993.712 C 2182.53 981.649 2201.44 989.593 2208.67 1000.32 C 2211.85 1005.05 2213.18 1010.44 2212.76 1015.96 Z " id="Compound Path" fill="rgb(1,144,153)"/><path d=" M 409.338 464.423 C 409.182 466.972 409.415 469.649 410.09 472.462 C 411.755 479.405 415.725 483.494 421.886 484.616 C 429.375 485.98 438.641 482.41 442.541 476.658 C 444.628 473.58 444.683 470.551 442.708 467.395 C 440.637 464.086 435.24 462.222 427.511 462.147 C 422.167 462.096 415.94 462.909 409.338 464.423 Z  M 441.719 490.871 C 435.257 494.518 427.281 496.125 420.031 494.805 C 409.909 492.961 402.615 485.699 400.019 474.879 C 399.389 472.251 399.025 469.728 398.905 467.299 C 378.11 473.951 356.256 486.281 347.47 499.732 C 345.907 502.127 342.697 502.799 340.303 501.236 C 337.909 499.672 337.236 496.462 338.8 494.068 C 349.491 477.699 375.919 463.149 400.151 456.168 C 407.004 432.193 439.778 419.188 464.998 409.187 C 467.656 408.132 470.244 407.105 472.724 406.098 C 475.375 405.021 478.395 406.296 479.471 408.945 C 480.548 411.595 479.266 414.615 476.624 415.692 C 474.118 416.71 471.502 417.748 468.816 418.813 C 447.345 427.331 422.001 437.384 412.827 453.183 C 418.118 452.235 423.121 451.749 427.611 451.792 C 442.204 451.933 448.648 457.367 451.486 461.9 C 455.626 468.517 455.491 476.014 451.113 482.471 C 448.815 485.859 445.53 488.72 441.719 490.871 Z " id="Compound Path" fill="rgb(106,126,197)"/><clipPath id="_clipPath_haiYPB0QuSrRf0BHMF7YILWo85y4T6dN"><path d=" M 2500 1600 L 0 1600 L 0 0 L 2500 0 L 2500 1600 Z " id="Path" fill="rgb(255,255,255)"/></clipPath><g clip-path="url(#_clipPath_haiYPB0QuSrRf0BHMF7YILWo85y4T6dN)"><path d=" M 12.672 843.995 C 8.289 842.326 2.954 842.288 -1.601 844.098 C -4.421 845.217 -9.283 848.04 -10.16 854.37 C -10.957 860.137 -7.603 861.254 -6.501 861.613 C -0.703 863.533 10.252 860.093 20.156 850.218 C 19.34 848.753 18.256 847.469 16.909 846.385 C 15.669 845.389 14.231 844.589 12.672 843.995 Z  M 18.704 938.986 C 17.875 938.671 17.136 938.097 16.622 937.292 C 5.842 920.438 5.206 899.045 14.96 881.46 C 18.247 875.534 20.502 868.92 21.665 861.801 C 21.753 861.26 21.823 860.729 21.876 860.206 C 10.939 869.211 -1.01 872.461 -9.195 869.751 C -16.221 867.41 -19.763 861.231 -18.65 853.195 C -17.575 845.427 -12.513 839.207 -4.764 836.131 C 4.285 832.537 15.153 833.97 22.28 839.706 C 23.679 840.831 24.908 842.089 25.96 843.463 C 27.624 841.207 29.214 838.734 30.692 836.04 C 34.629 828.865 35.903 822.801 34.48 818.019 C 33.348 814.221 30.431 811.045 25.808 808.578 C 22.265 806.689 20.044 803.035 20.015 799.043 C 19.985 795.042 22.065 791.495 25.577 789.555 L 31.75 786.144 C 34.558 784.592 36.733 782.087 37.875 779.09 L 45.476 759.126 C 46.317 756.915 48.794 755.804 51.006 756.646 C 53.218 757.489 54.328 759.965 53.486 762.177 L 45.885 782.14 C 44.023 787.029 40.476 791.115 35.896 793.646 L 29.722 797.058 C 28.725 797.609 28.583 798.498 28.586 798.979 C 28.589 799.392 28.717 800.417 29.841 801.015 C 36.562 804.601 40.886 809.498 42.695 815.572 C 44.797 822.632 43.287 830.905 38.208 840.163 C 35.735 844.669 32.947 848.684 29.963 852.201 C 30.701 855.563 30.765 859.256 30.125 863.182 C 28.803 871.278 26.223 878.827 22.456 885.618 C 14.231 900.445 14.762 918.477 23.843 932.674 C 25.118 934.668 24.536 937.317 22.542 938.593 C 21.352 939.354 19.929 939.453 18.704 938.986 Z " id="Compound Path" fill="rgb(250,85,102)"/><path d=" M -48.537 542.919 C -78.401 632.196 -34.156 727.469 50.288 755.717 C 134.732 783.965 227.397 734.491 257.262 645.214 C 287.127 555.937 242.882 460.664 158.438 432.416 C 73.994 404.168 -18.672 453.642 -48.537 542.919 Z " id="Path" fill="rgb(250,85,102)"/><path d=" M 246.783 607.293 C 233.903 643.323 194.254 662.09 158.225 649.21 C 122.195 636.331 103.428 596.682 116.307 560.652 C 129.187 524.622 168.835 505.855 204.866 518.734 C 240.896 531.614 259.663 571.263 246.783 607.293 Z " id="Path" fill="rgb(255,184,2)"/><path d=" M 213.328 715.798 C 207.835 710.898 201.336 706.943 193.978 704.313 C 163.379 693.375 129.706 709.313 118.768 739.912 C 116.064 747.475 115.008 755.225 115.404 762.773 C 151.843 758.88 186.415 742.196 213.328 715.798 Z " id="Path" fill="rgb(255,184,2)"/><path d=" M -57.81 603.449 C -56.965 643.502 -42.436 681.39 -17.39 710.301 C 6.715 709.559 29.043 694.34 37.651 670.258 C 48.881 638.844 32.518 604.274 1.104 593.045 C -19.724 585.6 -41.931 590.292 -57.81 603.449 Z " id="Path" fill="rgb(255,184,2)"/><path d=" M 147.917 429.318 C 108.94 419.285 68.854 425.251 34.502 443.585 C 31.56 470.045 46.977 496.031 73.137 505.383 C 103.706 516.31 137.345 500.388 148.272 469.819 C 153.153 456.164 152.664 441.901 147.917 429.318 Z " id="Path" fill="rgb(255,184,2)"/><path d=" M 147.72 553.52 C 139.459 578.213 152.781 604.926 177.474 613.187 C 202.167 621.447 228.88 608.125 237.14 583.433 C 245.4 558.74 232.079 532.026 207.386 523.767 C 182.693 515.506 155.98 528.828 147.72 553.52 Z " id="Path" fill="rgb(255,255,255)"/><path d=" M 169.71 641.323 C 165.854 652.852 172.073 665.324 183.602 669.181 C 195.13 673.038 207.603 666.818 211.459 655.289 C 215.316 643.76 209.097 631.288 197.568 627.431 C 186.039 623.575 173.566 629.794 169.71 641.323 Z " id="Path" fill="rgb(255,255,255)"/><path d=" M 39.482 778.838 L 45.006 780.686 C 58.849 785.316 73.825 777.848 78.456 764.005 L 80.304 758.481 C 84.934 744.639 77.466 729.663 63.624 725.032 L 58.1 723.184 C 44.257 718.554 29.281 726.021 24.65 739.864 L 22.802 745.388 C 18.171 759.231 25.64 774.207 39.482 778.838 Z " id="Path" fill="rgb(250,85,102)"/><path d=" M 825.308 -48.437 C 829.257 -49.882 832.894 -52.992 834.916 -56.894 C 836.168 -59.31 837.802 -64.08 834.676 -68.883 C 831.827 -73.258 828.898 -72.043 827.941 -71.639 C 822.885 -69.532 817.486 -60.762 816.581 -48.253 C 817.994 -47.74 819.483 -47.507 821.033 -47.565 C 822.458 -47.619 823.903 -47.922 825.308 -48.437 Z  M 765.395 -109.237 C 766.141 -109.51 766.979 -109.555 767.801 -109.313 C 785.007 -104.232 798.012 -90.114 801.739 -72.47 C 802.996 -66.524 805.354 -60.718 808.751 -55.212 C 809.01 -54.794 809.274 -54.393 809.546 -54.008 C 811.662 -66.536 817.846 -75.759 824.983 -78.734 C 831.118 -81.278 837.148 -79.175 841.118 -73.077 C 844.955 -67.182 845.182 -59.995 841.741 -53.356 C 837.723 -45.604 829.519 -40.187 821.32 -39.884 C 819.711 -39.824 818.14 -39.954 816.62 -40.267 C 816.818 -37.76 817.194 -35.15 817.776 -32.457 C 819.327 -25.283 822.027 -20.427 825.802 -18.024 C 828.8 -16.116 832.643 -15.68 837.225 -16.726 C 840.735 -17.528 844.386 -16.358 846.752 -13.671 C 849.124 -10.978 849.8 -7.354 848.561 -3.976 L 846.384 1.964 C 845.394 4.665 845.393 7.64 846.381 10.341 L 852.965 28.331 C 853.694 30.324 852.67 32.532 850.677 33.261 C 848.683 33.991 846.476 32.966 845.746 30.973 L 839.163 12.983 C 837.55 8.577 837.552 3.724 839.167 -0.683 L 841.344 -6.622 C 841.695 -7.58 841.27 -8.266 840.984 -8.59 C 840.739 -8.868 840.05 -9.487 838.937 -9.232 C 832.278 -7.71 826.471 -8.487 821.675 -11.539 C 816.102 -15.084 812.263 -21.576 810.262 -30.833 C 809.289 -35.338 808.818 -39.697 808.771 -43.833 C 806.297 -45.676 804.083 -48.14 802.209 -51.176 C 798.346 -57.437 795.657 -64.067 794.218 -70.881 C 791.075 -85.758 780.119 -97.66 765.624 -101.94 C 763.588 -102.542 762.425 -104.678 763.026 -106.714 C 763.385 -107.929 764.29 -108.833 765.395 -109.237 Z " id="Compound Path" fill="rgb(135,36,126)"/><path d=" M 1043.71 119.534 C 1011.48 41.508 925.512 2.975 851.709 33.469 C 777.907 63.962 744.213 151.936 776.452 229.962 C 808.691 307.988 894.655 346.521 968.458 316.027 C 1042.26 285.534 1075.95 197.561 1043.71 119.534 Z " id="Path" fill="rgb(255,184,2)"/><path d=" M 805.837 249.49 C 793.387 217.515 809.214 181.5 841.189 169.05 C 873.165 156.599 909.18 172.427 921.63 204.402 C 934.081 236.378 918.253 272.392 886.278 284.843 C 854.302 297.293 818.288 281.466 805.837 249.49 Z " id="Path" fill="rgb(135,36,126)"/><path d=" M 764.729 156.329 C 771.33 156.42 778.057 155.28 784.587 152.737 C 811.743 142.163 825.185 111.577 814.611 84.421 C 811.998 77.709 808.158 71.839 803.454 66.958 C 781.059 91.011 767.446 122.631 764.729 156.329 Z " id="Path" fill="rgb(135,36,126)"/><path d=" M 1014.42 73.082 C 990.31 46.448 958.202 29.322 924.244 24.458 C 908.352 39.127 902.172 62.558 910.494 83.93 C 921.35 111.81 952.75 125.61 980.629 114.754 C 999.113 107.557 1011.4 91.327 1014.42 73.082 Z " id="Path" fill="rgb(135,36,126)"/><path d=" M 977.404 311.943 C 1009.7 295.832 1033.35 268.231 1045.84 235.624 C 1032.29 215.971 1006.57 207.429 983.355 216.47 C 956.227 227.033 942.798 257.588 953.361 284.717 C 958.08 296.835 966.794 306.209 977.404 311.943 Z " id="Path" fill="rgb(135,36,126)"/><path d=" M 904.543 227.695 C 895.626 206.114 870.903 195.848 849.322 204.765 C 827.741 213.681 817.475 238.405 826.392 259.986 C 835.309 281.566 860.032 291.833 881.613 282.916 C 903.194 273.999 913.46 249.276 904.543 227.695 Z " id="Path" fill="rgb(255,255,255)"/><path d=" M 838.045 181.143 C 833.882 171.066 822.339 166.273 812.263 170.437 C 802.187 174.6 797.394 186.143 801.557 196.219 C 805.72 206.295 817.263 211.088 827.339 206.925 C 837.415 202.762 842.208 191.218 838.045 181.143 Z " id="Path" fill="rgb(255,255,255)"/><path d=" M 845.44 11.457 L 840.612 13.452 C 828.514 18.451 822.759 32.311 827.758 44.409 L 829.752 49.237 C 834.751 61.335 848.611 67.09 860.709 62.092 L 865.538 60.097 C 877.636 55.098 883.391 41.238 878.393 29.14 L 876.397 24.312 C 871.399 12.213 857.539 6.458 845.44 11.457 Z " id="Path" fill="rgb(255,184,2)"/><path d=" M 2544.7 1159.92 C 2543.55 1161.11 2542.67 1162.46 2542.06 1163.95 C 2552.64 1172.18 2563.46 1174.17 2568.75 1171.67 C 2569.76 1171.2 2572.82 1169.74 2571.39 1164.35 C 2569.81 1158.43 2564.86 1156.31 2562.04 1155.58 C 2557.5 1154.39 2552.43 1155.05 2548.45 1157.15 C 2547.04 1157.9 2545.76 1158.83 2544.7 1159.92 Z  M 2550.13 1248.3 C 2548.08 1247.32 2547.22 1244.87 2548.2 1242.82 C 2555.17 1228.25 2553.57 1211.04 2544.01 1197.89 C 2539.63 1191.87 2536.3 1184.99 2534.09 1177.45 C 2533.02 1173.79 2532.65 1170.26 2532.96 1166.98 C 2529.71 1163.98 2526.59 1160.49 2523.71 1156.49 C 2517.8 1148.28 2515.39 1140.58 2516.57 1133.62 C 2517.58 1127.63 2521.12 1122.47 2527.09 1118.27 C 2528.09 1117.57 2528.09 1116.58 2528.05 1116.19 C 2528 1115.73 2527.76 1114.9 2526.74 1114.49 L 2520.47 1111.97 C 2515.82 1110.1 2511.97 1106.63 2509.62 1102.19 L 2500.06 1084.09 C 2499 1082.08 2499.76 1079.6 2501.77 1078.54 C 2503.78 1077.48 2506.26 1078.24 2507.32 1080.25 L 2516.89 1098.35 C 2518.32 1101.07 2520.69 1103.2 2523.54 1104.35 L 2529.81 1106.87 C 2533.38 1108.3 2535.77 1111.44 2536.21 1115.25 C 2536.65 1119.05 2534.96 1122.78 2531.81 1125 C 2527.71 1127.88 2525.3 1131.24 2524.67 1134.99 C 2523.87 1139.71 2525.79 1145.33 2530.38 1151.69 C 2532.1 1154.08 2533.9 1156.25 2535.75 1158.2 C 2536.59 1156.77 2537.61 1155.43 2538.81 1154.2 C 2544.92 1147.9 2555.09 1145.27 2564.12 1147.63 C 2571.85 1149.65 2577.39 1154.98 2579.33 1162.24 C 2581.33 1169.76 2578.68 1176.05 2572.27 1179.1 C 2564.8 1182.63 2553.05 1180.94 2541.59 1173.65 C 2541.7 1174.14 2541.83 1174.64 2541.98 1175.14 C 2543.92 1181.78 2546.84 1187.81 2550.66 1193.06 C 2561.99 1208.65 2563.89 1229.08 2555.61 1246.37 C 2555.21 1247.19 2554.57 1247.83 2553.82 1248.22 C 2552.71 1248.81 2551.35 1248.88 2550.13 1248.3 Z " id="Compound Path" fill="rgb(235,169,2)"/><path d=" M 2288.37 1002.43 C 2330.53 1082.21 2425.87 1114.56 2501.33 1074.69 C 2576.79 1034.81 2603.79 937.814 2561.63 858.036 C 2519.48 778.257 2424.13 745.908 2348.67 785.782 C 2273.21 825.655 2246.21 922.653 2288.37 1002.43 Z " id="Path" fill="rgb(255,184,2)"/><path d=" M 2421.43 865.103 C 2433.09 887.168 2460.43 895.604 2482.5 883.944 C 2504.56 872.284 2513 844.944 2501.34 822.879 C 2489.68 800.813 2462.34 792.378 2440.27 804.038 C 2418.21 815.697 2409.77 843.037 2421.43 865.103 Z " id="Path" fill="rgb(255,255,255)"/><path d=" M 2500.44 922.222 C 2505.89 932.524 2518.65 936.463 2528.95 931.019 C 2539.25 925.575 2543.19 912.811 2537.75 902.508 C 2532.31 892.206 2519.54 888.268 2509.24 893.711 C 2498.94 899.155 2495 911.92 2500.44 922.222 Z " id="Path" fill="rgb(255,255,255)"/><path d=" M 2510.22 1097.48 L 2515.15 1094.87 C 2527.52 1088.33 2532.25 1073 2525.72 1060.63 L 2523.11 1055.7 C 2516.57 1043.33 2501.25 1038.6 2488.88 1045.14 L 2483.94 1047.74 C 2471.57 1054.28 2466.84 1069.61 2473.38 1081.98 L 2475.98 1086.91 C 2482.52 1099.28 2497.85 1104.01 2510.22 1097.48 Z " id="Path" fill="rgb(255,184,2)"/><path d=" M 156.569 206.653 C 156.569 206.653 156.569 206.653 156.569 206.652 C 156.569 206.653 156.569 206.653 156.569 206.653 Z  M 142.583 198.108 C 142.679 198.071 142.775 198.037 142.873 198.002 C 148.242 196.113 154.036 198.391 156.651 203.419 C 160.285 210.398 177.906 253.113 168.433 274.16 C 165.721 280.187 160.885 284.34 154.821 285.857 C 150.349 286.975 145.789 285.979 142.311 283.125 C 133.907 276.228 134.196 261.523 135.431 236.128 C 135.902 226.43 136.437 215.437 135.521 210.86 L 135.521 210.857 C 134.43 205.399 137.392 200.087 142.583 198.108 Z " id="Compound Path" fill="rgb(84,100,156)"/><path d=" M 272.059 242.396 C 282.39 238.457 286.779 234.029 287.344 230.882 C 287.987 227.294 284.084 221.779 277.399 216.831 C 264.931 207.601 244.949 201.16 223.947 199.604 C 208.361 198.448 185.602 199.433 161.087 209.42 C 165.685 215.559 172.798 223.722 182.441 231.009 C 206.339 249.069 234.254 253.644 265.41 244.605 C 267.857 243.895 270.069 243.154 272.059 242.396 Z  M 156.044 188.354 C 207.183 168.858 261.741 178.533 290.17 199.579 C 304.171 209.943 310.671 222.406 308.472 234.671 C 306.764 244.195 298.949 257.226 271.39 265.22 C 223.608 279.082 189.199 263.268 168.748 247.561 C 146.864 230.753 136.217 210.699 135.774 209.853 L 130.754 200.264 L 140.387 195.326 C 145.545 192.681 150.781 190.361 156.044 188.354 Z " id="Compound Path" fill="rgb(84,100,156)"/><path d=" M 87.502 295.045 C 89.056 294.453 90.749 293.729 92.59 292.849 C 115.953 281.674 130.165 264.148 134.833 240.758 C 136.492 232.44 136.632 224.747 136.293 218.84 C 99.074 233.074 76.964 264.639 72.825 284.54 C 71.328 291.74 72.534 295.725 73.71 296.647 C 74.917 297.594 79.215 298.205 87.502 295.045 Z  M 128.969 198.676 C 133.342 197.009 137.861 195.555 142.521 194.341 L 152.996 191.613 L 155.634 202.11 C 155.829 202.886 160.36 221.366 156.067 244.005 C 152.046 265.214 139.376 294.264 101.852 312.212 C 79.736 322.788 67.142 318.771 60.468 313.54 C 51.819 306.76 48.745 294.909 51.81 280.17 C 57.823 251.256 86.385 214.912 128.969 198.676 Z " id="Compound Path" fill="rgb(84,100,156)"/><path d=" M -60.91 -12.93 L 162.537 -98.122 C 173.229 -102.198 185.201 -96.835 189.277 -86.143 L 258.492 95.399 C 262.568 106.091 257.205 118.063 246.513 122.14 L 23.066 207.331 C 12.374 211.407 0.402 206.044 -3.674 195.352 L -72.889 13.81 C -76.965 3.118 -71.602 -8.854 -60.91 -12.93 Z " id="Path" fill="rgb(106,126,197)"/><path d=" M 23.066 207.331 L 50.922 196.71 C 40.23 200.787 28.258 195.423 24.182 184.732 L -45.033 3.189 C -49.109 -7.502 -43.746 -19.475 -33.054 -23.551 L -60.91 -12.93 C -71.602 -8.854 -76.965 3.118 -72.889 13.81 L -3.674 195.352 C 0.402 206.044 12.374 211.407 23.066 207.331 Z " id="Path" fill="rgb(95,113,176)"/><path d=" M 23.066 207.331 L 246.513 122.14 C 257.205 118.063 262.568 106.091 258.492 95.399 L 249.273 71.222 C 249.055 71.296 248.836 71.369 248.619 71.452 L -12.25 170.911 C -12.468 170.994 -12.68 171.085 -12.893 171.174 L -3.674 195.352 C 0.402 206.044 12.374 211.407 23.066 207.331 Z " id="Path" fill="rgb(95,113,176)"/><path d=" M 73.466 -64.163 L 43.561 -52.761 L 127.537 167.5 L 157.442 156.099 L 73.466 -64.163 Z " id="Path" fill="rgb(255,255,255)"/><path d=" M 140.837 112.545 L 110.932 123.946 L 127.537 167.5 L 157.442 156.099 L 140.837 112.545 Z " id="Path" fill="rgb(255,184,2)"/><path d=" M -7.13 184.341 L 253.74 84.883 C 264.432 80.807 276.403 86.169 280.48 96.861 L 291.935 126.908 C 296.012 137.599 290.648 149.571 279.957 153.647 L 19.087 253.106 C 8.395 257.183 -3.577 251.819 -7.653 241.128 L -19.108 211.082 C -23.185 200.39 -17.822 188.417 -7.13 184.341 Z " id="Path" fill="rgb(106,126,197)"/><path d=" M 228.422 94.535 L 243.822 88.664 L 270.04 157.429 L 254.639 163.3 L 228.422 94.535 Z " id="Path" fill="rgb(255,184,2)"/><path d=" M 190.816 108.873 L 206.217 103.001 L 232.434 171.766 L 217.033 177.638 L 190.816 108.873 Z " id="Path" fill="rgb(255,184,2)"/><path d=" M 153.21 123.21 L 168.611 117.339 L 194.828 186.104 L 179.427 191.975 L 153.21 123.21 Z " id="Path" fill="rgb(255,184,2)"/><path d=" M 115.604 137.548 L 131.005 131.676 L 157.222 200.441 L 141.822 206.313 L 115.604 137.548 Z " id="Path" fill="rgb(129,241,209)"/><path d=" M 77.999 151.885 L 93.399 146.014 L 119.616 214.779 L 104.216 220.65 L 77.999 151.885 Z " id="Path" fill="rgb(255,184,2)"/><path d=" M 40.393 166.223 L 55.794 160.351 L 82.011 229.116 L 66.61 234.988 L 40.393 166.223 Z " id="Path" fill="rgb(255,184,2)"/><path d=" M 2.787 180.56 L 18.188 174.688 L 44.405 243.454 L 29.004 249.325 L 2.787 180.56 Z " id="Path" fill="rgb(255,184,2)"/><path d=" M 56.461 216.195 C 53.807 209.233 61.525 199.826 73.701 195.184 C 85.876 190.542 97.898 192.423 100.552 199.385 C 103.207 206.347 95.488 215.753 83.313 220.396 C 71.138 225.038 59.116 223.157 56.461 216.195 Z " id="Path" fill="rgb(255,255,255)"/><path d=" M 29.161 226.604 C 27.46 222.142 30.731 216.752 36.467 214.565 C 42.203 212.378 48.232 214.222 49.933 218.684 C 51.634 223.146 48.363 228.535 42.627 230.722 C 36.891 232.909 30.862 231.065 29.161 226.604 Z " id="Path" fill="rgb(255,255,255)"/><path d=" M 19.087 253.106 L 41.372 244.61 C 30.68 248.686 18.708 243.323 14.632 232.631 L 3.176 202.585 C -0.9 191.893 4.463 179.921 15.155 175.845 L -7.13 184.341 C -17.822 188.417 -23.185 200.39 -19.108 211.082 L -7.653 241.128 C -3.577 251.82 8.395 257.183 19.087 253.106 Z " id="Path" fill="rgb(95,113,176)"/><path d=" M 145.958 125.976 L 116.052 137.377 L 142.27 206.142 L 172.175 194.74 L 145.958 125.976 Z " id="Path" fill="rgb(255,255,255)"/><path d=" M 2350.65 1367.94 C 2350.65 1367.94 2350.65 1367.94 2350.65 1367.94 C 2350.65 1367.94 2350.65 1367.94 2350.65 1367.94 Z  M 2366.24 1372.99 C 2366.16 1373.04 2366.07 1373.1 2365.99 1373.15 C 2361.21 1376.24 2355.05 1375.38 2351.33 1371.11 C 2346.16 1365.16 2319.07 1327.73 2323.38 1305.05 C 2324.61 1298.56 2328.34 1293.39 2333.89 1290.51 C 2337.98 1288.38 2342.64 1288.28 2346.69 1290.25 C 2356.47 1295 2359.62 1309.36 2364.33 1334.35 C 2366.14 1343.89 2368.18 1354.7 2370.14 1358.94 L 2370.14 1358.94 C 2372.47 1364 2370.83 1369.85 2366.24 1372.99 Z " id="Compound Path" fill="rgb(112,30,105)"/><path d=" M 2230.01 1360.1 C 2220.88 1366.34 2217.64 1371.67 2217.83 1374.86 C 2218.04 1378.5 2223.12 1382.95 2230.77 1386.2 C 2245.05 1392.27 2265.98 1393.88 2286.77 1390.5 C 2302.2 1387.99 2324.11 1381.72 2345.61 1366.3 C 2339.71 1361.4 2330.89 1355.12 2319.81 1350.28 C 2292.36 1338.29 2264.15 1340.35 2235.96 1356.4 C 2233.75 1357.66 2231.77 1358.9 2230.01 1360.1 Z  M 2355.42 1385.61 C 2310.24 1416.49 2254.93 1419.8 2222.38 1405.96 C 2206.34 1399.14 2197.12 1388.54 2196.4 1376.1 C 2195.84 1366.44 2200.41 1351.94 2225.34 1337.75 C 2268.57 1313.13 2305.72 1320.49 2329.27 1330.99 C 2354.47 1342.24 2369.5 1359.26 2370.13 1359.98 L 2377.24 1368.13 L 2369.03 1375.18 C 2364.63 1378.95 2360.08 1382.43 2355.42 1385.61 Z " id="Compound Path" fill="rgb(112,30,105)"/><path d=" M 2397.21 1265.88 C 2395.84 1266.82 2394.36 1267.92 2392.78 1269.2 C 2372.66 1285.51 2362.92 1305.87 2363.84 1329.7 C 2364.16 1338.18 2365.82 1345.69 2367.53 1351.36 C 2400.4 1328.84 2414.55 1292.99 2413.93 1272.67 C 2413.71 1265.32 2411.61 1261.73 2410.25 1261.11 C 2408.86 1260.47 2404.53 1260.88 2397.21 1265.88 Z  M 2379.35 1369.26 C 2375.48 1371.9 2371.43 1374.37 2367.18 1376.63 L 2357.63 1381.73 L 2352.62 1372.14 C 2352.25 1371.43 2343.53 1354.51 2342.43 1331.5 C 2341.4 1309.93 2346.95 1278.73 2379.26 1252.53 C 2398.29 1237.09 2411.48 1238.06 2419.19 1241.59 C 2429.18 1246.17 2434.93 1256.98 2435.39 1272.03 C 2436.28 1301.55 2416.98 1343.55 2379.35 1369.26 Z " id="Compound Path" fill="rgb(112,30,105)"/><path d=" M 2613.32 1530.78 L 2415.88 1665.71 C 2406.44 1672.16 2393.54 1669.74 2387.09 1660.29 L 2277.46 1499.88 C 2271.01 1490.44 2273.43 1477.54 2282.88 1471.09 L 2480.32 1336.16 C 2489.76 1329.7 2502.66 1332.13 2509.11 1341.58 L 2618.74 1501.99 C 2625.19 1511.43 2622.77 1524.33 2613.32 1530.78 Z " id="Path" fill="rgb(135,36,126)"/><path d=" M 2314.16 1553.58 L 2334.9 1435.54 L 2311.23 1451.72 L 2297.59 1529.33 L 2314.16 1553.58 Z " id="Path" fill="rgb(252,232,156)"/><path d=" M 2354.63 1612.79 L 2392.71 1396.03 L 2369.04 1412.21 L 2338.06 1588.54 L 2354.63 1612.79 Z " id="Path" fill="rgb(252,232,156)"/><path d=" M 2426.84 1372.7 L 2378.52 1647.76 L 2387.09 1660.29 C 2389.36 1663.62 2392.43 1666.07 2395.87 1667.57 L 2450.52 1356.53 L 2426.84 1372.7 Z " id="Path" fill="rgb(252,232,156)"/><path d=" M 2451.32 1641.49 L 2504.82 1336.98 C 2499.11 1332.48 2491.36 1331.29 2484.52 1333.95 L 2427.65 1657.67 L 2451.32 1641.49 Z " id="Path" fill="rgb(252,232,156)"/><path d=" M 2509.13 1601.98 L 2545.52 1394.85 L 2528.95 1370.6 L 2485.46 1618.16 L 2509.13 1601.98 Z " id="Path" fill="rgb(252,232,156)"/><path d=" M 2480.32 1336.16 L 2455.7 1352.98 C 2465.15 1346.52 2478.04 1348.95 2484.5 1358.4 L 2594.12 1518.81 C 2600.58 1528.25 2598.15 1541.15 2588.71 1547.6 L 2613.32 1530.78 C 2622.77 1524.33 2625.19 1511.43 2618.74 1501.99 L 2509.11 1341.58 C 2502.66 1332.13 2489.76 1329.7 2480.32 1336.16 Z " id="Path" fill="rgb(112,30,105)"/><path d=" M 2480.32 1336.16 L 2282.88 1471.09 C 2273.43 1477.54 2271.01 1490.44 2277.46 1499.88 L 2292.06 1521.25 C 2292.26 1521.12 2292.46 1521 2292.65 1520.87 L 2523.15 1363.35 C 2523.34 1363.21 2523.53 1363.08 2523.71 1362.94 L 2509.11 1341.58 C 2502.66 1332.13 2489.76 1329.7 2480.32 1336.16 Z " id="Path" fill="rgb(112,30,105)"/><path d=" M 2494.58 1611.92 L 2521.01 1593.87 L 2388.01 1399.24 L 2361.58 1417.3 L 2494.58 1611.92 Z " id="Path" fill="rgb(255,255,255)"/><path d=" M 2387.88 1455.79 L 2414.31 1437.73 L 2388.01 1399.24 L 2361.58 1417.3 L 2387.88 1455.79 Z " id="Path" fill="rgb(255,184,2)"/><path d=" M 2515.04 1351.48 L 2284.54 1509 C 2275.09 1515.46 2262.2 1513.03 2255.74 1503.59 L 2237.6 1477.04 C 2231.14 1467.59 2233.57 1454.7 2243.01 1448.24 L 2473.52 1290.72 C 2482.96 1284.26 2495.86 1286.69 2502.31 1296.13 L 2520.46 1322.68 C 2526.91 1332.13 2524.49 1345.02 2515.04 1351.48 Z " id="Path" fill="rgb(135,36,126)"/><path d=" M 2445.78 1335.32 C 2449.98 1341.48 2444.67 1352.42 2433.91 1359.77 C 2423.15 1367.13 2411.02 1368.1 2406.82 1361.95 C 2402.61 1355.8 2407.93 1344.85 2418.68 1337.5 C 2429.44 1330.15 2441.57 1329.17 2445.78 1335.32 Z " id="Path" fill="rgb(255,255,255)"/><path d=" M 2469.9 1318.84 C 2472.59 1322.78 2470.67 1328.79 2465.6 1332.25 C 2460.53 1335.71 2454.24 1335.32 2451.54 1331.38 C 2448.85 1327.44 2450.77 1321.44 2455.84 1317.97 C 2460.91 1314.51 2467.2 1314.9 2469.9 1318.84 Z " id="Path" fill="rgb(255,255,255)"/><path d=" M 2473.52 1290.72 L 2453.83 1304.17 C 2463.27 1297.72 2476.17 1300.14 2482.62 1309.59 L 2500.76 1336.14 C 2507.22 1345.59 2504.8 1358.48 2495.35 1364.93 L 2515.04 1351.48 C 2524.49 1345.02 2526.91 1332.13 2520.46 1322.68 L 2502.31 1296.13 C 2495.86 1286.69 2482.96 1284.26 2473.52 1290.72 Z " id="Path" fill="rgb(112,30,105)"/><path d=" M 2379.77 1443.92 L 2406.2 1425.86 L 2364.67 1365.1 L 2338.25 1383.16 L 2379.77 1443.92 Z " id="Path" fill="rgb(255,255,255)"/><path d=" M 1729.97 1724.33 C 1730.83 1722.93 1731.92 1721.7 1732.87 1720.38 C 1732.9 1720.34 1732.93 1720.3 1732.95 1720.26 C 1737.85 1713.38 1741.02 1705.42 1742.37 1697.08 L 1757.69 1602.46 L 1786.03 1427.49 C 1787.11 1420.8 1784.27 1414.86 1779.61 1411.27 C 1774.92 1407.72 1768.43 1406.54 1762.27 1409.36 L 1600.99 1482.89 L 1513.78 1522.66 C 1506.09 1526.16 1499.24 1531.31 1493.9 1537.86 C 1493.87 1537.89 1493.84 1537.93 1493.81 1537.97 C 1492.78 1539.23 1491.88 1540.6 1490.77 1541.81 C 1462.32 1572.51 1486.65 1658.16 1552.74 1708.59 C 1618.83 1759.02 1707.87 1759.87 1729.97 1724.33 Z " id="Path" fill="rgb(106,126,197)"/><path d=" M 1484.53 1551.04 C 1480.04 1560.24 1478.35 1571.98 1479.31 1585.13 C 1496.03 1620.6 1543.2 1664.85 1605.27 1690.38 C 1652.54 1709.83 1701.3 1715.49 1738.14 1711.15 C 1740.15 1706.68 1741.58 1701.95 1742.37 1697.08 L 1743.76 1688.47 C 1707.42 1691.98 1660.4 1686.06 1614.77 1667.29 C 1546.09 1639.03 1495.65 1587.87 1484.53 1551.04 Z " id="Path" fill="rgb(129,241,209)"/><path d=" M 1632.42 1624.39 C 1673.64 1641.35 1715.99 1647.82 1750.59 1646.32 L 1754.3 1623.4 C 1720.83 1623.98 1680.87 1617.32 1641.92 1601.3 C 1591.17 1580.41 1550.37 1547.02 1528.05 1516.15 L 1513.78 1522.66 C 1512.28 1523.34 1510.83 1524.1 1509.4 1524.9 C 1528.27 1559.29 1573.67 1600.22 1632.42 1624.39 Z " id="Path" fill="rgb(129,241,209)"/><path d=" M 1763.68 1565.48 C 1733.45 1564.2 1699.19 1557.34 1665.68 1543.55 C 1632.91 1530.07 1604.29 1511.37 1582.11 1491.5 L 1559.41 1501.85 C 1582.85 1526.31 1616.46 1550.31 1656.18 1566.65 C 1691.82 1581.32 1728.32 1588.14 1759.91 1588.74 L 1763.68 1565.48 Z " id="Path" fill="rgb(129,241,209)"/><path d=" M 1773.33 1505.89 C 1746.86 1503.31 1718.05 1496.62 1689.78 1484.99 C 1674.08 1478.53 1659.34 1470.87 1645.79 1462.46 L 1619.61 1474.4 C 1637.4 1487.21 1657.87 1498.86 1680.27 1508.08 C 1710.58 1520.55 1741.51 1527.35 1769.51 1529.48 L 1773.33 1505.89 Z " id="Path" fill="rgb(129,241,209)"/><path d=" M 1781.58 1454.95 C 1758.55 1451.69 1734.15 1445.37 1710.14 1435.49 C 1709.23 1435.12 1708.33 1434.74 1707.43 1434.36 L 1677.63 1447.95 C 1685.04 1451.76 1692.71 1455.33 1700.64 1458.59 C 1726.62 1469.28 1753.06 1475.8 1777.72 1478.79 L 1781.58 1454.95 Z " id="Path" fill="rgb(129,241,209)"/><path d=" M 1774.06 1418.28 C 1773.76 1418.06 1773.49 1417.8 1773.25 1417.5 C 1771.52 1415.42 1771.82 1412.32 1773.9 1410.6 C 1778.14 1407.1 1815.82 1376.92 1834.49 1394.14 C 1849.41 1407.91 1836.64 1424.19 1829.01 1433.93 C 1828.25 1434.89 1827.51 1435.83 1826.82 1436.74 C 1825.17 1438.9 1822.09 1439.31 1819.94 1437.67 C 1817.79 1436.02 1817.37 1432.94 1819.02 1430.79 C 1819.74 1429.85 1820.5 1428.87 1821.29 1427.87 C 1831.53 1414.81 1834.91 1407.88 1827.84 1401.35 C 1827.63 1401.16 1827.4 1400.97 1827.18 1400.8 C 1816.16 1392.39 1788.99 1410.86 1780.15 1418.16 C 1778.36 1419.64 1775.83 1419.64 1774.06 1418.28 Z " id="Path" fill="rgb(84,100,156)"/><path d=" M 1774.05 1418.28 C 1774.04 1418.27 1774.02 1418.25 1774 1418.24 C 1771.87 1416.57 1771.5 1413.48 1773.17 1411.35 C 1777.11 1406.33 1812.37 1362.25 1835.84 1361.53 C 1844.77 1361.25 1852.3 1364.4 1857.63 1370.62 C 1864.07 1378.14 1866.43 1389.6 1864.09 1402.05 C 1863.59 1404.71 1861.03 1406.47 1858.36 1405.97 C 1855.7 1405.47 1853.95 1402.9 1854.45 1400.24 C 1856.23 1390.73 1854.67 1382.25 1850.17 1377 C 1846.85 1373.12 1842 1371.16 1836.14 1371.33 C 1820.11 1371.83 1790.82 1404.76 1780.89 1417.41 C 1779.23 1419.52 1776.18 1419.91 1774.05 1418.28 Z " id="Path" fill="rgb(84,100,156)"/><path d=" M 1760.18 1526.35 C 1756.14 1546.67 1744.98 1561.57 1735.26 1559.64 C 1725.54 1557.71 1720.93 1539.67 1724.97 1519.35 C 1729.01 1499.03 1740.17 1484.13 1749.89 1486.06 C 1759.61 1488 1764.22 1506.03 1760.18 1526.35 Z " id="Path" fill="rgb(255,255,255)"/><path d=" M 1744.38 1593.86 C 1742.61 1602.73 1736.25 1608.93 1730.15 1607.72 C 1724.06 1606.51 1720.55 1598.34 1722.32 1589.47 C 1724.08 1580.61 1730.45 1574.4 1736.54 1575.61 C 1742.63 1576.82 1746.14 1584.99 1744.38 1593.86 Z " id="Path" fill="rgb(255,255,255)"/><path d=" M 1774.05 1418.28 C 1772.07 1416.76 1771.52 1413.96 1772.86 1411.8 C 1782.66 1395.96 1793.08 1370.42 1785.58 1363.26 C 1784.23 1361.97 1782.98 1361.52 1781.38 1361.76 C 1774.17 1362.83 1764.13 1376.25 1759.5 1384.46 C 1758.17 1386.82 1755.17 1387.65 1752.82 1386.32 C 1750.46 1384.98 1749.62 1382 1750.95 1379.64 C 1752.41 1377.04 1765.67 1354.18 1779.93 1352.05 C 1784.53 1351.37 1788.83 1352.79 1792.36 1356.17 C 1808.54 1371.62 1784.05 1412.37 1781.2 1416.96 C 1779.77 1419.27 1776.75 1419.98 1774.45 1418.55 C 1774.31 1418.46 1774.18 1418.37 1774.05 1418.28 Z " id="Path" fill="rgb(84,100,156)"/><path d=" M 407.33 -45.931 C 406.876 -44.355 406.164 -42.875 405.616 -41.342 C 405.6 -41.297 405.583 -41.253 405.568 -41.208 C 402.731 -33.251 401.865 -24.724 402.841 -16.332 L 413.925 78.878 L 434.42 254.937 C 435.203 261.667 439.564 266.608 445.026 268.789 C 450.507 270.919 457.066 270.281 462.23 265.895 L 597.31 151.133 L 670.359 89.071 C 676.797 83.602 681.98 76.775 685.334 69.022 C 685.353 68.978 685.372 68.935 685.39 68.891 C 686.035 67.397 686.524 65.828 687.268 64.366 C 706.254 27.061 659.466 -48.691 582.122 -79.166 C 504.778 -109.64 418.892 -86.161 407.33 -45.931 Z " id="Path" fill="rgb(250,85,102)"/><path d=" M 690.746 53.784 C 692.555 43.706 690.98 31.95 686.46 19.56 C 660.697 -10 603.243 -39.689 536.558 -47.315 C 485.777 -53.123 437.318 -45.257 403.061 -31.028 C 402.349 -26.176 402.271 -21.232 402.841 -16.332 L 403.85 -7.671 C 437.854 -20.971 484.702 -28.107 533.721 -22.502 C 607.507 -14.063 669.994 21.386 690.746 53.784 Z " id="Path" fill="rgb(129,241,209)"/><path d=" M 528.451 23.581 C 484.169 18.517 441.66 23.853 408.786 34.736 L 411.471 57.801 C 443.513 48.11 483.772 43.61 525.613 48.395 C 580.143 54.63 628.501 75.62 658.406 99.227 L 670.359 89.071 C 671.612 88.007 672.801 86.877 673.954 85.714 C 646.419 57.783 591.568 30.799 528.451 23.581 Z " id="Path" fill="rgb(129,241,209)"/><path d=" M 418.256 116.088 C 447.688 109.067 482.52 106.313 518.519 110.429 C 553.73 114.456 586.364 124.636 613.123 137.699 L 632.14 121.542 C 602.91 104.41 564.025 90.495 521.357 85.615 C 483.061 81.236 446.091 84.637 415.531 92.674 L 418.256 116.088 Z " id="Path" fill="rgb(129,241,209)"/><path d=" M 425.236 176.043 C 451.407 171.297 480.948 169.875 511.324 173.35 C 528.189 175.278 544.461 178.623 559.783 183.015 L 581.719 164.379 C 561.105 156.919 538.235 151.289 514.162 148.536 C 481.599 144.812 449.994 146.714 422.473 152.307 L 425.236 176.043 Z " id="Path" fill="rgb(129,241,209)"/><path d=" M 431.203 227.304 C 454.246 224.155 479.443 223.571 505.244 226.521 C 506.218 226.633 507.188 226.754 508.158 226.875 L 533.12 205.667 C 524.954 204.021 516.595 202.682 508.081 201.708 C 480.163 198.516 452.952 199.46 428.411 203.318 L 431.203 227.304 Z " id="Path" fill="rgb(129,241,209)"/><path d=" M 448.45 260.523 C 448.793 260.658 449.125 260.834 449.441 261.051 C 451.671 262.59 452.232 265.645 450.694 267.876 C 447.576 272.398 419.561 311.712 396.897 300.245 C 378.791 291.074 386.632 271.919 391.317 260.474 C 391.783 259.337 392.236 258.231 392.656 257.166 C 393.649 254.645 396.498 253.407 399.019 254.399 C 401.539 255.393 402.777 258.242 401.784 260.762 C 401.349 261.867 400.88 263.013 400.398 264.191 C 394.108 279.557 392.75 287.145 401.332 291.491 C 401.59 291.623 401.854 291.741 402.121 291.846 C 415.01 296.924 436.109 271.742 442.617 262.304 C 443.938 260.39 446.375 259.706 448.45 260.523 Z " id="Path" fill="rgb(84,100,156)"/><path d=" M 448.453 260.525 C 448.475 260.534 448.495 260.543 448.517 260.551 C 451.024 261.58 452.223 264.444 451.195 266.951 C 448.773 272.86 426.885 324.893 404.507 331.987 C 395.989 334.688 387.883 333.721 381.063 329.191 C 372.811 323.708 367.417 313.329 366.267 300.714 C 366.021 298.016 368.009 295.63 370.707 295.383 C 373.403 295.138 375.792 297.125 376.038 299.823 C 376.917 309.463 380.728 317.189 386.492 321.018 C 390.749 323.846 395.954 324.404 401.542 322.634 C 416.826 317.788 436.014 278.109 442.117 263.229 C 443.136 260.744 445.962 259.544 448.453 260.525 Z " id="Path" fill="rgb(84,100,156)"/><path d=" M 432.304 152.773 C 430.644 132.125 437.308 114.742 447.188 113.948 C 457.069 113.153 466.425 129.248 468.084 149.896 C 469.745 170.544 463.081 187.927 453.2 188.722 C 443.319 189.516 433.964 173.421 432.304 152.773 Z " id="Path" fill="rgb(255,255,255)"/><path d=" M 429.08 83.513 C 428.356 74.502 432.788 66.794 438.979 66.296 C 445.17 65.799 450.776 72.7 451.5 81.711 C 452.225 90.722 447.793 98.43 441.602 98.928 C 435.411 99.425 429.805 92.524 429.08 83.513 Z " id="Path" fill="rgb(255,255,255)"/><path d=" M 448.46 260.528 C 450.78 261.442 452.071 263.987 451.374 266.435 C 446.271 284.351 443.209 311.758 452.377 316.602 C 454.028 317.473 455.363 317.565 456.832 316.902 C 463.478 313.905 469.472 298.253 471.689 289.091 C 472.327 286.458 474.977 284.839 477.609 285.475 C 480.242 286.118 481.862 288.758 481.228 291.392 C 480.529 294.292 474.02 319.906 460.873 325.843 C 456.638 327.755 452.117 327.56 447.794 325.277 C 428.012 314.828 440.455 268.941 441.938 263.744 C 442.682 261.139 445.396 259.631 448.001 260.374 C 448.158 260.417 448.311 260.469 448.46 260.528 Z " id="Path" fill="rgb(84,100,156)"/><path d=" M 214.979 1649.86 C 215.848 1648.45 216.943 1647.21 217.893 1645.87 C 217.92 1645.84 217.948 1645.8 217.975 1645.76 C 222.896 1638.82 226.061 1630.78 227.402 1622.38 L 242.616 1527.04 L 270.75 1350.74 C 271.826 1344 268.944 1338.02 264.244 1334.42 C 259.51 1330.86 252.976 1329.69 246.772 1332.53 L 84.503 1406.98 L -3.25 1447.23 C -10.984 1450.78 -17.871 1455.99 -23.237 1462.59 C -23.267 1462.63 -23.297 1462.67 -23.327 1462.7 C -24.36 1463.98 -25.261 1465.36 -26.381 1466.58 C -54.963 1497.57 -30.251 1583.78 36.434 1634.42 C 103.119 1685.06 192.798 1685.71 214.979 1649.86 Z " id="Path" fill="rgb(255,184,2)"/><path d=" M -32.639 1475.89 C -37.141 1485.17 -38.82 1497 -37.816 1510.24 C -20.895 1545.93 26.718 1590.38 89.299 1615.96 C 136.954 1635.44 186.085 1641.03 223.182 1636.57 C 225.195 1632.06 226.619 1627.29 227.402 1622.38 L 228.786 1613.71 C 192.188 1617.33 144.817 1611.48 98.816 1592.68 C 29.571 1564.38 -21.351 1512.96 -32.639 1475.89 Z " id="Path" fill="rgb(252,228,134)"/><path d=" M 116.491 1549.43 C 158.047 1566.41 200.72 1572.83 235.563 1571.24 L 239.249 1548.15 C 205.537 1548.81 165.274 1542.19 126.008 1526.14 C 74.835 1505.23 33.669 1471.69 11.109 1440.65 L -3.25 1447.23 C -4.754 1447.92 -6.215 1448.7 -7.651 1449.51 C 11.432 1484.1 57.259 1525.22 116.491 1549.43 Z " id="Path" fill="rgb(252,228,134)"/><path d=" M 248.563 1489.78 C 218.11 1488.56 183.585 1481.74 149.802 1467.93 C 116.758 1454.42 87.892 1435.65 65.507 1415.69 L 42.662 1426.17 C 66.333 1450.75 100.243 1474.85 140.285 1491.21 C 176.223 1505.9 212.998 1512.69 244.821 1513.23 L 248.563 1489.78 Z " id="Path" fill="rgb(252,228,134)"/><path d=" M 258.143 1429.74 C 231.473 1427.21 202.441 1420.53 173.935 1408.88 C 158.108 1402.41 143.242 1394.73 129.583 1386.29 L 103.232 1398.38 C 121.186 1411.24 141.826 1422.93 164.417 1432.17 C 194.976 1444.66 226.14 1451.43 254.35 1453.51 L 258.143 1429.74 Z " id="Path" fill="rgb(252,228,134)"/><path d=" M 266.334 1378.41 C 243.132 1375.18 218.542 1368.88 194.33 1358.98 C 193.416 1358.61 192.508 1358.23 191.601 1357.84 L 161.613 1371.6 C 169.083 1375.42 176.823 1379 184.813 1382.27 C 211.012 1392.98 237.654 1399.48 262.501 1402.43 L 266.334 1378.41 Z " id="Path" fill="rgb(252,228,134)"/><path d=" M 258.669 1341.5 C 258.373 1341.27 258.099 1341.01 257.852 1340.72 C 256.109 1338.62 256.398 1335.5 258.498 1333.76 C 262.755 1330.22 300.623 1299.74 319.487 1317.04 C 334.542 1330.87 321.717 1347.3 314.053 1357.12 C 313.292 1358.1 312.551 1359.05 311.854 1359.97 C 310.203 1362.14 307.103 1362.56 304.93 1360.92 C 302.757 1359.26 302.333 1356.16 303.983 1353.99 C 304.706 1353.04 305.474 1352.05 306.262 1351.04 C 316.551 1337.86 319.937 1330.87 312.801 1324.32 C 302.139 1314.52 273.877 1333.83 264.811 1341.36 C 263.008 1342.86 260.458 1342.86 258.669 1341.5 Z " id="Path" fill="rgb(255,71,111)"/><path d=" M 258.667 1341.5 C 258.648 1341.48 258.63 1341.47 258.612 1341.45 C 256.461 1339.77 256.08 1336.67 257.76 1334.52 C 261.72 1329.45 297.131 1284.96 320.764 1284.19 C 329.76 1283.89 337.354 1287.04 342.734 1293.29 C 349.24 1300.86 351.639 1312.39 349.316 1324.94 C 348.818 1327.62 346.241 1329.39 343.557 1328.9 C 340.875 1328.4 339.101 1325.82 339.598 1323.14 C 341.374 1313.55 339.786 1305.02 335.241 1299.74 C 331.884 1295.83 326.99 1293.87 321.088 1294.06 C 304.948 1294.6 275.523 1327.84 265.548 1340.6 C 263.882 1342.73 260.814 1343.13 258.667 1341.5 Z " id="Path" fill="rgb(255,71,111)"/><path d=" M 244.945 1450.38 C 240.924 1470.85 229.723 1485.89 219.925 1483.97 C 210.128 1482.04 205.446 1463.88 209.466 1443.41 C 213.487 1422.94 224.688 1407.9 234.485 1409.82 C 244.283 1411.75 248.965 1429.91 244.945 1450.38 Z " id="Path" fill="rgb(255,255,255)"/><path d=" M 229.185 1518.41 C 227.431 1527.35 221.032 1533.61 214.893 1532.41 C 208.754 1531.2 205.2 1522.98 206.955 1514.05 C 208.709 1505.11 215.108 1498.85 221.247 1500.05 C 227.386 1501.26 230.939 1509.48 229.185 1518.41 Z " id="Path" fill="rgb(255,255,255)"/><path d=" M 258.661 1341.49 C 256.661 1339.97 256.103 1337.15 257.447 1334.97 C 267.279 1318.99 277.721 1293.25 270.152 1286.05 C 268.786 1284.75 267.521 1284.3 265.916 1284.55 C 258.654 1285.64 248.574 1299.18 243.925 1307.46 C 242.589 1309.84 239.578 1310.69 237.199 1309.35 C 234.818 1308.02 233.971 1305.01 235.304 1302.63 C 236.773 1300.01 250.068 1276.95 264.435 1274.78 C 269.063 1274.08 273.39 1275.5 276.961 1278.89 C 293.293 1294.42 268.717 1335.52 265.861 1340.15 C 264.43 1342.47 261.387 1343.2 259.064 1341.77 C 258.924 1341.68 258.79 1341.59 258.661 1341.49 Z " id="Path" fill="rgb(255,71,111)"/><path d=" M 2026.67 -69.237 C 2026.18 -67.782 2025.44 -66.428 2024.86 -65.017 C 2024.85 -64.976 2024.83 -64.935 2024.81 -64.894 C 2021.81 -57.57 2020.62 -49.627 2021.17 -41.73 L 2027.35 47.876 L 2038.79 213.572 C 2039.23 219.906 2043.09 224.723 2048.11 227.004 C 2053.15 229.239 2059.31 228.931 2064.34 225.051 L 2195.83 123.574 L 2266.93 68.697 C 2273.2 63.86 2278.35 57.699 2281.83 50.588 C 2281.85 50.549 2281.87 50.509 2281.89 50.469 C 2282.56 49.098 2283.08 47.651 2283.84 46.316 C 2303.26 12.233 2262.79 -60.731 2191.74 -92.657 C 2120.69 -124.583 2039.26 -106.385 2026.67 -69.237 Z " id="Path" fill="rgb(1,144,153)"/><path d=" M 2060.98 169.57 C 2063.5 163.968 2070.08 161.467 2075.69 163.984 C 2081.29 166.501 2083.79 173.083 2081.27 178.685 C 2078.75 184.287 2072.17 186.788 2066.57 184.271 C 2060.97 181.753 2058.47 175.172 2060.98 169.57 Z " id="Path" fill="rgb(255,184,2)"/><path d=" M 2122.62 129.671 C 2125.14 124.069 2131.72 121.568 2137.32 124.085 C 2142.93 126.603 2145.43 133.184 2142.91 138.786 C 2140.39 144.388 2133.81 146.889 2128.21 144.372 C 2122.61 141.854 2120.11 135.273 2122.62 129.671 Z " id="Path" fill="rgb(255,184,2)"/><path d=" M 2051.12 97.543 C 2053.64 91.941 2060.22 89.44 2065.82 91.957 C 2071.42 94.474 2073.92 101.056 2071.41 106.658 C 2068.89 112.26 2062.31 114.761 2056.7 112.244 C 2051.1 109.727 2048.6 103.145 2051.12 97.543 Z " id="Path" fill="rgb(205,214,255)"/><path d=" M 2184.26 89.772 C 2186.78 84.17 2193.36 81.669 2198.96 84.187 C 2204.56 86.704 2207.06 93.285 2204.55 98.887 C 2202.03 104.489 2195.45 106.99 2189.85 104.473 C 2184.24 101.956 2181.74 95.374 2184.26 89.772 Z " id="Path" fill="rgb(255,184,2)"/><path d=" M 2112.76 57.644 C 2115.27 52.042 2121.86 49.541 2127.46 52.058 C 2133.06 54.575 2135.56 61.157 2133.04 66.759 C 2130.53 72.361 2123.94 74.862 2118.34 72.345 C 2112.74 69.828 2110.24 63.246 2112.76 57.644 Z " id="Path" fill="rgb(255,184,2)"/><path d=" M 2041.25 25.516 C 2043.77 19.914 2050.35 17.413 2055.95 19.93 C 2061.56 22.447 2064.06 29.029 2061.54 34.631 C 2059.02 40.233 2052.44 42.734 2046.84 40.217 C 2041.24 37.7 2038.74 31.118 2041.25 25.516 Z " id="Path" fill="rgb(255,184,2)"/><path d=" M 2242.31 54.568 C 2244.82 48.966 2251.41 46.466 2257.01 48.982 C 2262.61 51.499 2265.11 58.082 2262.59 63.684 C 2260.08 69.285 2253.5 71.786 2247.89 69.269 C 2242.29 66.752 2239.79 60.17 2242.31 54.568 Z " id="Path" fill="rgb(255,184,2)"/><path d=" M 2170.8 22.44 C 2173.32 16.838 2179.9 14.337 2185.5 16.854 C 2191.11 19.372 2193.61 25.954 2191.09 31.555 C 2188.57 37.157 2181.99 39.658 2176.39 37.141 C 2170.79 34.624 2168.29 28.042 2170.8 22.44 Z " id="Path" fill="rgb(255,184,2)"/><path d=" M 2099.3 -9.688 C 2101.82 -15.29 2108.4 -17.791 2114 -15.273 C 2119.6 -12.756 2122.1 -6.175 2119.59 -0.573 C 2117.07 5.029 2110.49 7.53 2104.88 5.013 C 2099.28 2.496 2096.78 -4.086 2099.3 -9.688 Z " id="Path" fill="rgb(255,184,2)"/><path d=" M 2228.85 -12.764 C 2231.37 -18.366 2237.95 -20.866 2243.55 -18.349 C 2249.15 -15.832 2251.65 -9.25 2249.14 -3.648 C 2246.62 1.954 2240.04 4.454 2234.44 1.937 C 2228.83 -0.58 2226.33 -7.162 2228.85 -12.764 Z " id="Path" fill="rgb(255,184,2)"/><path d=" M 2054.66 215.781 C 2054.72 215.807 2054.78 215.833 2054.83 215.862 C 2056.68 216.805 2057.42 219.068 2056.48 220.919 C 2055.82 222.212 2040.17 252.645 2023.38 257.743 C 2018.96 259.086 2014.8 258.687 2010.99 256.557 C 2004.08 252.692 2002.18 247.556 2001.8 243.927 C 2000.58 232.333 2012.42 220.613 2017.56 216.113 C 2019.12 214.745 2021.5 214.903 2022.87 216.467 C 2024.23 218.03 2024.08 220.406 2022.51 221.774 C 2015.97 227.495 2008.59 236.524 2009.28 243.145 C 2009.57 245.887 2011.33 248.127 2014.66 249.993 C 2016.64 251.098 2018.77 251.28 2021.19 250.546 C 2032.59 247.088 2045.69 225.523 2049.77 217.506 C 2050.69 215.711 2052.85 214.965 2054.66 215.781 Z " id="Path" fill="rgb(135,36,126)"/><path d=" M 2054.67 215.784 C 2056.41 216.568 2057.31 218.563 2056.69 220.414 C 2051.42 236.066 2046.52 262.934 2055.79 268.4 C 2057.52 269.423 2059.03 269.588 2060.68 268.935 C 2067.31 266.31 2073.78 251.643 2076.3 243.014 C 2076.89 241.021 2078.97 239.876 2080.97 240.458 C 2082.96 241.037 2084.11 243.125 2083.53 245.119 C 2082.75 247.764 2075.65 271.095 2063.45 275.927 C 2059.65 277.432 2055.69 277.071 2051.97 274.88 C 2034.48 264.563 2047.96 222.746 2049.56 218.012 C 2050.22 216.044 2052.36 214.986 2054.33 215.649 C 2054.44 215.689 2054.56 215.734 2054.67 215.784 Z " id="Path" fill="rgb(135,36,126)"/><path d=" M 2046.95 122.493 C 2046.31 103.093 2053.31 87.116 2062.59 86.807 C 2071.88 86.498 2079.92 101.975 2080.57 121.375 C 2081.22 140.775 2074.21 156.752 2064.93 157.061 C 2055.65 157.37 2047.6 141.894 2046.95 122.493 Z " id="Path" fill="rgb(255,255,255)"/><path d=" M 2046.45 62.206 C 2046.17 53.739 2050.65 46.719 2056.47 46.526 C 2062.29 46.332 2067.23 53.039 2067.51 61.504 C 2067.79 69.971 2063.31 76.991 2057.49 77.185 C 2051.67 77.378 2046.73 70.672 2046.45 62.206 Z " id="Path" fill="rgb(255,255,255)"/><path d=" M 2394.14 78.831 L 2503.71 53.898 C 2517.62 50.732 2530.13 63.046 2527.19 77.007 L 2507.81 168.975 C 2504.86 182.936 2488.45 189.152 2476.99 180.64 L 2386.81 113.605 C 2373.4 103.639 2377.85 82.538 2394.14 78.831 Z " id="Path" fill="rgb(1,144,153)"/><path d=" M 2415.63 106.135 L 2484.26 157.152 C 2493.01 163.651 2504.64 161.557 2510.96 153.99 L 2507.81 168.975 C 2504.86 182.936 2488.45 189.152 2476.99 180.64 L 2386.81 113.605 C 2373.4 103.639 2377.85 82.538 2394.14 78.831 L 2417.35 73.549 C 2405.83 80.233 2403.92 97.43 2415.63 106.135 Z " id="Path" fill="rgb(1,127,135)"/><path d=" M 2481.4 76.669 L 2481.4 76.669 C 2482.45 81.285 2487.04 84.175 2491.66 83.124 L 2508.6 79.269 C 2513.22 78.219 2516.11 73.624 2515.06 69.008 C 2514.01 64.392 2509.42 61.502 2504.8 62.552 L 2487.86 66.407 C 2483.24 67.458 2480.35 72.052 2481.4 76.669 Z " id="Path" fill="rgb(255,255,255)"/><path d=" M 2468.39 72.787 C 2463.7 71.797 2459.09 74.801 2458.1 79.497 C 2457.11 84.191 2460.11 88.8 2464.81 89.79 C 2469.5 90.779 2474.11 87.775 2475.1 83.08 C 2476.09 78.385 2473.09 73.776 2468.39 72.787 Z " id="Path" fill="rgb(255,255,255)"/><path d=" M 2387.12 414.414 L 2481.26 353.053 C 2493.21 345.262 2509.21 352.475 2511.29 366.591 L 2524.98 459.577 C 2527.06 473.693 2513.82 485.213 2500.12 481.197 L 2392.3 449.574 C 2376.27 444.872 2373.13 423.537 2387.12 414.414 Z " id="Path" fill="rgb(205,214,255)"/><path d=" M 2416.74 432.579 L 2498.8 456.647 C 2509.25 459.713 2519.44 453.716 2522.75 444.427 L 2524.98 459.577 C 2527.06 473.692 2513.82 485.213 2500.12 481.198 L 2392.3 449.574 C 2376.27 444.872 2373.13 423.537 2387.12 414.414 L 2407.06 401.415 C 2398.57 411.679 2402.74 428.473 2416.74 432.579 Z " id="Path" fill="rgb(177,198,242)"/><path d=" M 2468.22 382.144 L 2468.22 382.144 C 2470.81 386.11 2476.12 387.229 2480.08 384.644 L 2494.64 375.154 C 2498.61 372.569 2499.73 367.259 2497.14 363.292 C 2494.56 359.326 2489.25 358.208 2485.28 360.792 L 2470.72 370.28 C 2466.76 372.867 2465.64 378.177 2468.22 382.144 Z " id="Path" fill="rgb(255,255,255)"/><path d=" M 2454.67 383.011 C 2449.93 383.71 2446.64 388.125 2447.34 392.872 C 2448.04 397.62 2452.46 400.901 2457.21 400.202 C 2461.95 399.503 2465.23 395.088 2464.53 390.341 C 2463.84 385.594 2459.42 382.313 2454.67 383.011 Z " id="Path" fill="rgb(255,255,255)"/><path d=" M 2378.4 248.212 L 2480.6 201.498 C 2493.57 195.566 2508.33 205.075 2508.29 219.343 L 2508.03 313.33 C 2508 327.599 2493.19 337.026 2480.24 331.023 L 2378.3 283.75 C 2363.15 276.722 2363.21 255.157 2378.4 248.212 Z " id="Path" fill="rgb(255,184,2)"/><path d=" M 2404.99 270.571 L 2482.58 306.548 C 2492.46 311.132 2503.42 306.713 2508.08 298.017 L 2508.03 313.33 C 2508 327.599 2493.19 337.026 2480.24 331.023 L 2378.3 283.75 C 2363.15 276.722 2363.21 255.157 2378.4 248.212 L 2400.05 238.316 C 2390.13 247.207 2391.76 264.432 2404.99 270.571 Z " id="Path" fill="rgb(235,169,2)"/><path d=" M 2463.39 228.333 L 2463.39 228.333 C 2465.36 232.638 2470.45 234.533 2474.75 232.564 L 2490.55 225.34 C 2494.86 223.373 2496.75 218.287 2494.79 213.981 C 2492.82 209.675 2487.73 207.781 2483.43 209.749 L 2467.62 216.972 C 2463.32 218.94 2461.42 224.026 2463.39 228.333 Z " id="Path" fill="rgb(255,255,255)"/><path d=" M 2449.86 227.18 C 2445.07 227.167 2441.17 231.046 2441.15 235.845 C 2441.14 240.643 2445.02 244.543 2449.82 244.556 C 2454.61 244.569 2458.51 240.69 2458.53 235.892 C 2458.54 231.094 2454.66 227.193 2449.86 227.18 Z " id="Path" fill="rgb(255,255,255)"/><path d=" M 2391.11 560.937 L 2486.54 501.605 C 2498.66 494.072 2514.51 501.626 2516.28 515.784 L 2527.98 609.041 C 2529.75 623.198 2516.26 634.433 2502.66 630.125 L 2395.54 596.199 C 2379.61 591.155 2376.93 569.757 2391.11 560.937 Z " id="Path" fill="rgb(250,85,102)"/><path d=" M 2420.34 579.731 L 2501.86 605.551 C 2512.25 608.84 2522.56 603.063 2526.07 593.847 L 2527.98 609.041 C 2529.75 623.198 2516.26 634.433 2502.66 630.125 L 2395.54 596.199 C 2379.61 591.155 2376.93 569.757 2391.11 560.937 L 2411.33 548.367 C 2402.62 558.447 2406.43 575.326 2420.34 579.731 Z " id="Path" fill="rgb(227,63,98)"/><path d=" M 2472.89 530.41 L 2472.89 530.41 C 2475.39 534.431 2480.67 535.663 2484.69 533.164 L 2499.45 523.988 C 2503.47 521.489 2504.7 516.203 2502.2 512.183 C 2499.71 508.162 2494.42 506.93 2490.4 509.429 L 2475.64 518.604 C 2471.62 521.104 2470.39 526.39 2472.89 530.41 Z " id="Path" fill="rgb(255,255,255)"/><path d=" M 2459.32 530.988 C 2454.56 531.585 2451.19 535.928 2451.79 540.689 C 2452.38 545.45 2456.73 548.826 2461.49 548.229 C 2466.25 547.631 2469.62 543.288 2469.03 538.527 C 2468.43 533.766 2464.09 530.391 2459.32 530.988 Z " id="Path" fill="rgb(255,255,255)"/><path d=" M 337.284 1504.75 L 314.384 1617.91 C 311.476 1632.28 324.434 1644.83 338.702 1641.46 L 432.691 1619.28 C 446.959 1615.91 452.938 1598.89 443.911 1587.34 L 372.822 1496.36 C 362.253 1482.83 340.688 1487.93 337.284 1504.75 Z " id="Path" fill="rgb(135,36,126)"/><path d=" M 365.862 1526.14 L 419.964 1595.38 C 426.857 1604.21 424.993 1616.21 417.377 1622.89 L 432.691 1619.28 C 446.959 1615.91 452.938 1598.89 443.911 1587.34 L 372.822 1496.36 C 362.253 1482.83 340.688 1487.93 337.284 1504.75 L 332.433 1528.72 C 339.014 1516.72 356.631 1514.33 365.862 1526.14 Z " id="Path" fill="rgb(112,30,105)"/><path d=" M 337.221 1594.44 L 337.221 1594.44 C 341.989 1595.4 345.071 1600.05 344.107 1604.81 L 340.565 1622.31 C 339.601 1627.08 334.954 1630.16 330.186 1629.2 C 325.418 1628.24 322.335 1623.59 323.3 1618.82 L 326.841 1601.32 C 327.806 1596.55 332.454 1593.47 337.221 1594.44 Z " id="Path" fill="rgb(255,255,255)"/><path d=" M 332.913 1581.17 C 331.78 1576.37 334.751 1571.56 339.55 1570.43 C 344.348 1569.3 349.156 1572.27 350.289 1577.07 C 351.421 1581.86 348.45 1586.67 343.651 1587.8 C 338.853 1588.94 334.045 1585.97 332.913 1581.17 Z " id="Path" fill="rgb(255,255,255)"/><path d=" M 698.604 1489.28 L 644.954 1591.52 C 638.142 1604.5 647.071 1620.17 661.712 1620.93 L 758.154 1625.93 C 772.795 1626.69 783.296 1612.02 777.863 1598.41 L 735.07 1491.17 C 728.708 1475.23 706.58 1474.08 698.604 1489.28 Z " id="Path" fill="rgb(205,214,255)"/><path d=" M 720.053 1517.82 L 752.621 1599.43 C 756.77 1609.83 751.623 1620.83 742.441 1625.12 L 758.154 1625.93 C 772.795 1626.69 783.296 1612.02 777.863 1598.41 L 735.07 1491.17 C 728.708 1475.23 706.58 1474.08 698.604 1489.28 L 687.238 1510.94 C 696.915 1501.26 714.497 1503.9 720.053 1517.82 Z " id="Path" fill="rgb(177,198,242)"/><path d=" M 673.449 1575.37 L 673.449 1575.37 C 677.756 1577.63 679.415 1582.95 677.155 1587.26 L 668.858 1603.07 C 666.598 1607.38 661.274 1609.04 656.966 1606.78 C 652.659 1604.52 651 1599.19 653.26 1594.88 L 661.556 1579.07 C 663.817 1574.77 669.141 1573.11 673.449 1575.37 Z " id="Path" fill="rgb(255,255,255)"/><path d=" M 673.024 1561.43 C 673.279 1556.5 677.478 1552.72 682.401 1552.97 C 687.325 1553.23 691.109 1557.43 690.854 1562.35 C 690.599 1567.27 686.4 1571.06 681.477 1570.8 C 676.553 1570.55 672.769 1566.35 673.024 1561.43 Z " id="Path" fill="rgb(255,255,255)"/><path d=" M 524.147 1486.17 L 486.261 1595.24 C 481.45 1609.09 492.606 1623.26 507.197 1621.84 L 603.313 1612.47 C 617.905 1611.05 626.114 1594.99 618.721 1582.33 L 560.49 1482.63 C 551.833 1467.81 529.78 1469.96 524.147 1486.17 Z " id="Path" fill="rgb(255,184,2)"/><path d=" M 549.594 1511.21 L 593.91 1587.09 C 599.556 1596.75 596.098 1608.4 587.654 1614 L 603.313 1612.47 C 617.905 1611.05 626.114 1594.99 618.721 1582.33 L 560.49 1482.63 C 551.833 1467.81 529.78 1469.96 524.147 1486.17 L 516.121 1509.28 C 524.254 1498.27 542.033 1498.27 549.594 1511.21 Z " id="Path" fill="rgb(235,169,2)"/><path d=" M 512.044 1575.04 L 512.044 1575.04 C 516.639 1576.63 519.069 1581.65 517.473 1586.25 L 511.614 1603.11 C 510.019 1607.71 505 1610.14 500.404 1608.54 C 495.809 1606.95 493.379 1601.93 494.975 1597.33 L 500.833 1580.47 C 502.43 1575.87 507.449 1573.44 512.044 1575.04 Z " id="Path" fill="rgb(255,255,255)"/><path d=" M 509.555 1561.31 C 509.077 1556.41 512.667 1552.04 517.574 1551.56 C 522.481 1551.08 526.847 1554.67 527.325 1559.58 C 527.803 1564.49 524.213 1568.85 519.306 1569.33 C 514.399 1569.81 510.034 1566.22 509.555 1561.31 Z " id="Path" fill="rgb(255,255,255)"/><path d=" M 881.732 1499.33 L 819.104 1596.32 C 811.151 1608.64 818.635 1625.05 833.148 1627.12 L 928.75 1640.77 C 943.263 1642.85 955.041 1629.19 950.854 1615.14 L 917.88 1504.49 C 912.979 1488.04 891.043 1484.91 881.732 1499.33 Z " id="Path" fill="rgb(250,85,102)"/><path d=" M 900.528 1529.68 L 925.623 1613.89 C 928.82 1624.61 922.704 1635.11 913.173 1638.55 L 928.75 1640.77 C 943.263 1642.85 955.041 1629.19 950.854 1615.14 L 917.881 1504.49 C 912.979 1488.04 891.043 1484.91 881.732 1499.33 L 868.464 1519.87 C 878.973 1511.1 896.247 1515.31 900.528 1529.68 Z " id="Path" fill="rgb(227,63,98)"/><path d=" M 848.936 1582.8 L 848.936 1582.8 C 853.022 1585.44 854.196 1590.89 851.557 1594.98 L 841.873 1609.97 C 839.234 1614.06 833.782 1615.23 829.695 1612.6 C 825.609 1609.96 824.436 1604.51 827.074 1600.42 L 836.758 1585.42 C 839.397 1581.33 844.849 1580.16 848.936 1582.8 Z " id="Path" fill="rgb(255,255,255)"/><path d=" M 849.767 1568.87 C 850.464 1563.99 854.986 1560.6 859.867 1561.3 C 864.747 1562 868.139 1566.52 867.441 1571.4 C 866.745 1576.28 862.223 1579.67 857.342 1578.97 C 852.462 1578.28 849.07 1573.75 849.767 1568.87 Z " id="Path" fill="rgb(255,255,255)"/><path d=" M 2091.38 1446.54 C 2089.66 1446.67 2087.73 1446.84 2085.6 1447.08 C 2086.68 1443.75 2086.5 1439.99 2084.72 1436.55 L 2083.71 1434.61 C 2081.18 1429.73 2075.99 1426.83 2070.5 1427.23 C 2067.35 1427.46 2063.4 1427.87 2058.74 1428.58 C 2058.56 1428.03 2058.34 1427.5 2058.06 1426.97 L 2057.28 1425.46 C 2055.3 1421.65 2051.25 1419.39 2046.98 1419.7 C 2042.95 1420 2037.31 1420.66 2030.22 1422.1 C 2028.92 1419.28 2027.35 1416.24 2025.44 1412.96 C 2009.02 1384.72 1995.41 1393.61 1995.41 1393.61 C 1995.41 1393.61 2009.11 1408.51 1982.95 1420.42 C 1975.47 1423.82 1969.65 1428.25 1965.15 1432.84 C 1957.08 1441.09 1955.05 1453.09 1959.03 1463.33 C 1953.38 1469.83 1949.52 1475.23 1947.06 1479.05 C 1944.74 1482.66 1944.79 1487.3 1947.19 1490.86 L 1948.14 1492.27 C 1948.47 1492.76 1948.84 1493.21 1949.23 1493.63 C 1946.38 1497.39 1944.13 1500.65 1942.42 1503.32 C 1939.44 1507.94 1939.5 1513.89 1942.58 1518.45 L 1943.8 1520.26 C 1945.97 1523.47 1949.19 1525.42 1952.63 1526.07 C 1951.4 1527.83 1950.33 1529.44 1949.39 1530.89 C 1946.1 1536.01 1946.17 1542.6 1949.57 1547.66 L 1950.93 1549.67 C 1956.56 1558.03 1968.62 1558.7 1975.16 1551.02 C 1991.99 1531.26 2012.28 1517.87 2023.28 1511.46 C 2028.53 1508.39 2033.77 1505.28 2038.97 1502.13 C 2049.87 1495.54 2071.33 1484.13 2096.74 1478.8 C 2106.61 1476.74 2111.78 1465.82 2107.14 1456.87 L 2106.02 1454.72 C 2103.21 1449.31 2097.46 1446.1 2091.38 1446.54 Z " id="Path" fill="rgb(255,184,2)"/><path d=" M 2001.4 1478.16 C 2000.41 1477.96 1999.58 1477.21 1999.32 1476.17 C 1998.97 1474.73 1999.84 1473.28 2001.28 1472.92 L 2019.8 1468.33 C 2021.24 1467.98 2022.7 1468.86 2023.05 1470.29 C 2023.41 1471.73 2022.53 1473.19 2021.09 1473.54 L 2002.57 1478.13 C 2002.18 1478.23 2001.78 1478.23 2001.4 1478.16 Z " id="Path" fill="rgb(1,144,153)"/><path d=" M 2026.06 1457.8 C 2025.2 1457.28 2024.67 1456.3 2024.77 1455.23 C 2024.92 1453.76 2026.24 1452.69 2027.71 1452.83 L 2046.7 1454.75 C 2048.17 1454.9 2049.24 1456.21 2049.1 1457.69 C 2048.95 1459.16 2047.63 1460.23 2046.16 1460.09 L 2027.17 1458.17 C 2026.76 1458.13 2026.39 1458 2026.06 1457.8 Z " id="Path" fill="rgb(1,144,153)"/><path d=" M 2031.28 1442.27 C 2030.36 1442.69 2029.25 1442.56 2028.43 1441.87 C 2027.31 1440.91 2027.17 1439.21 2028.13 1438.09 L 2040.51 1423.56 C 2041.47 1422.44 2043.16 1422.3 2044.29 1423.26 C 2045.42 1424.22 2045.55 1425.91 2044.59 1427.04 L 2032.22 1441.57 C 2031.95 1441.88 2031.63 1442.11 2031.28 1442.27 Z " id="Path" fill="rgb(1,144,153)"/><path d=" M 1977.74 1453.06 C 1976.79 1452.73 1976.07 1451.87 1975.96 1450.8 C 1975.81 1449.33 1976.88 1448.01 1978.36 1447.86 L 1997.34 1445.91 C 1998.81 1445.76 2000.13 1446.83 2000.28 1448.31 C 2000.43 1449.78 1999.36 1451.1 1997.89 1451.25 L 1978.91 1453.2 C 1978.5 1453.24 1978.1 1453.19 1977.74 1453.06 Z " id="Path" fill="rgb(1,144,153)"/><path d=" M 1974.86 1496.29 C 1973.99 1496.8 1972.88 1496.8 1971.99 1496.19 C 1970.77 1495.36 1970.45 1493.69 1971.29 1492.46 L 1982.04 1476.7 C 1982.88 1475.48 1984.54 1475.16 1985.77 1476 C 1986.99 1476.83 1987.31 1478.5 1986.47 1479.73 L 1975.72 1495.49 C 1975.49 1495.83 1975.19 1496.1 1974.86 1496.29 Z " id="Path" fill="rgb(1,144,153)"/><path d=" M 2069.69 1463.2 L 2067.59 1464.45 C 2059.94 1462.58 2051.58 1463.58 2044.27 1467.92 C 2039.39 1470.82 2035.6 1474.85 2033.01 1479.47 C 2027.72 1479.53 2022.37 1480.93 2017.49 1483.83 C 2012.6 1486.73 2008.81 1490.76 2006.23 1495.38 C 2000.93 1495.44 1995.58 1496.84 1990.7 1499.74 C 1983.39 1504.08 1978.51 1510.94 1976.5 1518.56 L 1974.39 1519.81 C 1961.57 1527.42 1955.86 1542.06 1958.71 1555.59 C 1964.35 1557.47 1970.92 1556.01 1975.16 1551.02 C 1991.99 1531.26 2012.28 1517.87 2023.28 1511.46 C 2028.53 1508.39 2033.77 1505.28 2038.97 1502.13 C 2049.87 1495.54 2071.33 1484.13 2096.74 1478.8 C 2103.15 1477.46 2107.57 1472.39 2108.62 1466.55 C 2098.1 1457.56 2082.51 1455.58 2069.69 1463.2 Z " id="Path" fill="rgb(235,153,2)"/><path d=" M 1965.51 1541 L 1964.16 1538.99 C 1960.75 1533.94 1960.68 1527.35 1963.98 1522.22 C 1964.91 1520.77 1965.99 1519.16 1967.21 1517.41 C 1963.77 1516.76 1960.55 1514.81 1958.39 1511.59 L 1957.16 1509.78 C 1954.09 1505.22 1954.03 1499.28 1957 1494.65 C 1958.72 1491.99 1960.96 1488.72 1963.81 1484.96 C 1963.42 1484.55 1963.06 1484.1 1962.73 1483.6 L 1961.77 1482.19 C 1959.38 1478.64 1959.33 1474 1961.65 1470.39 C 1964.11 1466.57 1967.96 1461.16 1973.62 1454.67 C 1969.64 1444.43 1971.66 1432.43 1979.74 1424.18 C 1981.32 1422.57 1983.06 1420.98 1984.98 1419.45 C 1984.33 1419.77 1983.65 1420.1 1982.95 1420.42 C 1975.47 1423.82 1969.65 1428.25 1965.15 1432.84 C 1957.08 1441.09 1955.05 1453.09 1959.03 1463.33 C 1953.38 1469.83 1949.52 1475.23 1947.06 1479.05 C 1944.74 1482.66 1944.79 1487.3 1947.19 1490.86 L 1948.14 1492.27 C 1948.47 1492.76 1948.84 1493.21 1949.23 1493.63 C 1946.38 1497.39 1944.13 1500.65 1942.42 1503.32 C 1939.44 1507.94 1939.5 1513.89 1942.58 1518.45 L 1943.8 1520.26 C 1945.97 1523.47 1949.19 1525.42 1952.63 1526.07 C 1951.4 1527.83 1950.33 1529.44 1949.39 1530.89 C 1946.1 1536.01 1946.17 1542.6 1949.57 1547.66 L 1950.93 1549.67 C 1956.56 1558.03 1968.62 1558.7 1975.16 1551.02 C 1976.12 1549.9 1977.09 1548.8 1978.06 1547.72 C 1973.26 1547.69 1968.49 1545.42 1965.51 1541 Z " id="Path" fill="rgb(235,153,2)"/><path d=" M 2074.39 1471.11 L 2072.28 1472.36 C 2064.63 1470.48 2056.28 1471.49 2048.97 1475.83 C 2044.09 1478.73 2040.3 1482.76 2037.71 1487.38 C 2032.42 1487.44 2027.06 1488.84 2022.18 1491.74 C 2017.3 1494.64 2013.51 1498.67 2010.92 1503.29 C 2005.63 1503.35 2000.28 1504.75 1995.4 1507.65 C 1988.09 1511.99 1983.21 1518.85 1981.2 1526.47 L 1979.09 1527.72 C 1961.6 1538.1 1957.32 1561.54 1970 1577.44 L 2030.08 1652.81 C 2040.52 1665.9 2059.02 1669.28 2073.42 1660.73 L 2146.08 1617.57 C 2160.48 1609.01 2166.36 1591.15 2159.85 1575.72 L 2122.41 1486.91 C 2114.51 1468.17 2091.88 1460.72 2074.39 1471.11 Z " id="Path" fill="rgb(1,144,153)"/><path d=" M 2053.47 1624.08 C 2051.57 1625.21 2049.08 1624.78 2047.68 1623 L 1992.66 1553.27 C 1991.13 1551.33 1991.46 1548.52 1993.4 1546.99 C 1995.33 1545.46 1998.15 1545.79 1999.68 1547.73 L 2054.7 1617.46 C 2056.23 1619.4 2055.9 1622.21 2053.96 1623.74 C 2053.8 1623.87 2053.64 1623.98 2053.47 1624.08 Z " id="Path" fill="rgb(252,228,134)"/><path d=" M 2085.62 1624 C 2083.62 1625.19 2081.01 1624.64 2079.66 1622.7 L 2019.56 1535.9 C 2018.16 1533.87 2018.66 1531.08 2020.69 1529.68 C 2022.73 1528.27 2025.51 1528.78 2026.92 1530.81 L 2087.02 1617.61 C 2088.42 1619.64 2087.92 1622.42 2085.88 1623.83 C 2085.8 1623.89 2085.71 1623.95 2085.62 1624 Z " id="Path" fill="rgb(252,228,134)"/><path d=" M 2123.43 1582.52 C 2123.27 1582.62 2123.09 1582.71 2122.9 1582.79 C 2120.63 1583.76 2118 1582.7 2117.03 1580.43 L 2082.12 1498.76 C 2081.15 1496.49 2082.2 1493.86 2084.47 1492.89 C 2086.74 1491.92 2089.37 1492.97 2090.34 1495.24 L 2125.26 1576.92 C 2126.15 1579 2125.33 1581.39 2123.43 1582.52 Z " id="Path" fill="rgb(252,228,134)"/><path d=" M 2107.99 1610.71 C 2107.9 1610.77 2107.81 1610.82 2107.71 1610.86 C 2105.51 1611.98 2102.82 1611.09 2101.71 1608.88 L 2054.23 1514.58 C 2053.12 1512.38 2054.01 1509.69 2056.21 1508.58 C 2058.42 1507.47 2061.11 1508.36 2062.22 1510.56 L 2109.69 1604.86 C 2110.76 1606.97 2109.99 1609.52 2107.99 1610.71 Z " id="Path" fill="rgb(252,228,134)"/><path d=" M 1962.51 1525.05 C 1961.12 1525.88 1959.31 1525.85 1957.92 1524.84 C 1956.06 1523.48 1955.65 1520.87 1957 1519.01 C 1957.73 1518.01 1975.08 1494.42 1997.18 1482.53 C 1999.21 1481.44 2001.75 1482.2 2002.84 1484.23 C 2003.93 1486.26 2003.17 1488.79 2001.14 1489.88 C 1980.68 1500.89 1963.92 1523.7 1963.75 1523.92 C 1963.41 1524.4 1962.98 1524.77 1962.51 1525.05 Z " id="Path" fill="rgb(235,153,2)"/><path d=" M 1956.19 1494.94 C 1954.65 1495.85 1952.64 1495.71 1951.25 1494.44 C 1949.54 1492.9 1949.41 1490.26 1950.96 1488.55 C 1951.73 1487.7 1970.02 1467.64 1987.32 1458.53 C 1989.36 1457.46 1991.88 1458.24 1992.95 1460.28 C 1994.03 1462.32 1993.25 1464.84 1991.21 1465.92 C 1975.21 1474.35 1957.33 1493.96 1957.15 1494.16 C 1956.86 1494.47 1956.54 1494.74 1956.19 1494.94 Z " id="Path" fill="rgb(235,153,2)"/><path d=" M 2117.93 1502.76 C 2123.76 1516.09 2122.85 1529.37 2115.88 1532.42 C 2108.92 1535.46 2098.54 1527.13 2092.71 1513.79 C 2086.88 1500.46 2087.8 1487.19 2094.76 1484.14 C 2101.73 1481.09 2112.1 1489.43 2117.93 1502.76 Z " id="Path" fill="rgb(255,255,255)"/><path d=" M 2135.52 1557.31 C 2139.09 1565.49 2138.02 1573.84 2133.13 1575.98 C 2128.24 1578.12 2121.38 1573.23 2117.8 1565.06 C 2114.23 1556.89 2115.29 1548.53 2120.19 1546.39 C 2125.08 1544.25 2131.94 1549.14 2135.52 1557.31 Z " id="Path" fill="rgb(255,255,255)"/><path d=" M 1241.27 167.534 C 1242.98 167.746 1244.91 167.951 1247.04 168.134 C 1245.34 171.191 1244.78 174.914 1245.86 178.638 L 1246.47 180.734 C 1248 186.014 1252.53 189.869 1257.98 190.545 C 1261.13 190.935 1265.07 191.3 1269.79 191.516 C 1269.86 192.082 1269.97 192.652 1270.14 193.222 L 1270.61 194.858 C 1271.81 198.977 1275.34 201.983 1279.59 202.511 C 1283.6 203.006 1289.26 203.454 1296.5 203.419 C 1297.22 206.445 1298.17 209.734 1299.4 213.319 C 1310.01 244.219 1325.09 238.146 1325.09 238.146 C 1325.09 238.146 1314.56 220.861 1342.54 214.282 C 1350.53 212.402 1357.1 209.191 1362.41 205.562 C 1371.94 199.046 1376.26 187.668 1374.36 176.847 C 1381.17 171.581 1386 167.03 1389.16 163.76 C 1392.14 160.673 1392.99 156.115 1391.33 152.16 L 1390.67 150.589 C 1390.44 150.042 1390.17 149.528 1389.87 149.043 C 1393.4 145.913 1396.24 143.146 1398.44 140.868 C 1402.26 136.911 1403.36 131.067 1401.23 125.997 L 1400.38 123.983 C 1398.88 120.408 1396.11 117.867 1392.86 116.56 C 1394.4 115.078 1395.77 113.706 1396.97 112.466 C 1401.2 108.081 1402.42 101.603 1400.06 95.982 L 1399.12 93.75 C 1395.22 84.45 1383.53 81.436 1375.62 87.694 C 1355.26 103.806 1332.75 112.983 1320.72 117.132 C 1314.96 119.116 1309.22 121.146 1303.5 123.22 C 1291.54 127.559 1268.26 134.578 1242.3 134.847 C 1232.22 134.952 1225.02 144.65 1227.83 154.335 L 1228.5 156.659 C 1230.2 162.512 1235.22 166.785 1241.27 167.534 Z " id="Path" fill="rgb(250,85,102)"/><path d=" M 1335.69 154.055 C 1336.61 154.441 1337.29 155.336 1337.33 156.407 C 1337.4 157.887 1336.26 159.143 1334.78 159.212 L 1315.72 160.103 C 1314.24 160.172 1312.98 159.029 1312.92 157.548 C 1312.85 156.068 1313.99 154.813 1315.47 154.744 L 1334.53 153.853 C 1334.94 153.833 1335.33 153.907 1335.69 154.055 Z " id="Path" fill="rgb(255,184,2)"/><path d=" M 1307.54 169.215 C 1308.28 169.891 1308.61 170.959 1308.3 171.985 C 1307.86 173.402 1306.36 174.2 1304.95 173.767 L 1286.7 168.192 C 1285.28 167.759 1284.48 166.259 1284.92 164.842 C 1285.35 163.425 1286.85 162.627 1288.27 163.061 L 1306.51 168.635 C 1306.91 168.755 1307.25 168.956 1307.54 169.215 Z " id="Path" fill="rgb(255,184,2)"/><path d=" M 1299.39 183.431 C 1300.37 183.205 1301.43 183.54 1302.1 184.381 C 1303.02 185.543 1302.82 187.23 1301.66 188.149 L 1286.69 199.985 C 1285.53 200.903 1283.84 200.708 1282.92 199.545 C 1282 198.383 1282.2 196.696 1283.37 195.776 L 1298.33 183.941 C 1298.65 183.687 1299.01 183.518 1299.39 183.431 Z " id="Path" fill="rgb(255,184,2)"/><path d=" M 1354 183.278 C 1354.87 183.792 1355.41 184.771 1355.31 185.838 C 1355.17 187.313 1353.86 188.397 1352.38 188.258 L 1333.39 186.471 C 1331.91 186.332 1330.83 185.024 1330.97 183.548 C 1331.11 182.073 1332.42 180.99 1333.89 181.129 L 1352.89 182.916 C 1353.29 182.955 1353.67 183.082 1354 183.278 Z " id="Path" fill="rgb(255,184,2)"/><path d=" M 1365.25 141.438 C 1366.2 141.108 1367.29 141.328 1368.04 142.093 C 1369.08 143.15 1369.07 144.849 1368.01 145.887 L 1354.39 159.252 C 1353.33 160.289 1351.63 160.274 1350.6 159.216 C 1349.56 158.159 1349.58 156.46 1350.63 155.422 L 1364.25 142.058 C 1364.54 141.771 1364.89 141.563 1365.25 141.438 Z " id="Path" fill="rgb(255,184,2)"/><path d=" M 1265.79 155.425 L 1268.1 154.608 C 1275.24 157.934 1283.63 158.578 1291.64 155.744 C 1296.99 153.851 1301.5 150.639 1304.93 146.61 C 1310.14 147.583 1315.66 147.248 1321.01 145.355 C 1326.37 143.462 1330.87 140.25 1334.31 136.221 C 1339.51 137.193 1345.04 136.858 1350.39 134.965 C 1358.4 132.132 1364.52 126.354 1367.98 119.28 L 1370.29 118.463 C 1384.35 113.49 1392.81 100.25 1392.64 86.416 C 1387.48 83.48 1380.75 83.631 1375.62 87.695 C 1355.26 103.806 1332.75 112.983 1320.72 117.132 C 1314.96 119.116 1309.22 121.146 1303.5 123.22 C 1291.54 127.559 1268.26 134.578 1242.3 134.847 C 1235.75 134.915 1230.43 139.028 1228.26 144.554 C 1236.83 155.417 1251.73 160.398 1265.79 155.425 Z " id="Path" fill="rgb(250,85,102)"/><path d=" M 1383.13 99.407 L 1384.07 101.639 C 1386.42 107.259 1385.21 113.737 1380.97 118.123 C 1379.78 119.362 1378.41 120.734 1376.87 122.217 C 1380.11 123.524 1382.89 126.065 1384.39 129.641 L 1385.23 131.654 C 1387.36 136.724 1386.26 142.568 1382.45 146.524 C 1380.25 148.804 1377.41 151.569 1373.88 154.701 C 1374.18 155.185 1374.45 155.699 1374.68 156.246 L 1375.34 157.817 C 1377 161.772 1376.14 166.331 1373.16 169.417 C 1370.01 172.688 1365.17 177.238 1358.36 182.504 C 1360.27 193.325 1355.95 204.703 1346.42 211.218 C 1344.56 212.491 1342.54 213.709 1340.36 214.839 C 1341.06 214.646 1341.78 214.459 1342.54 214.282 C 1350.53 212.402 1357.1 209.191 1362.41 205.562 C 1371.94 199.046 1376.26 187.668 1374.36 176.847 C 1381.17 171.581 1386 167.03 1389.16 163.76 C 1392.14 160.673 1392.99 156.115 1391.33 152.16 L 1390.67 150.589 C 1390.44 150.042 1390.17 149.528 1389.87 149.043 C 1393.4 145.913 1396.24 143.146 1398.44 140.868 C 1402.26 136.911 1403.36 131.067 1401.23 125.997 L 1400.38 123.983 C 1398.88 120.408 1396.11 117.867 1392.86 116.56 C 1394.4 115.078 1395.77 113.706 1396.97 112.466 C 1401.2 108.081 1402.42 101.603 1400.06 95.982 L 1399.12 93.75 C 1395.22 84.45 1383.53 81.436 1375.62 87.694 C 1374.46 88.61 1373.29 89.501 1372.13 90.373 C 1376.83 91.336 1381.07 94.493 1383.13 99.407 Z " id="Path" fill="rgb(227,63,98)"/><path d=" M 1262.72 146.752 L 1265.03 145.936 C 1272.17 149.261 1280.56 149.905 1288.57 147.071 C 1293.92 145.178 1298.43 141.967 1301.87 137.938 C 1307.07 138.91 1312.59 138.575 1317.95 136.682 C 1323.3 134.789 1327.8 131.578 1331.24 127.548 C 1336.45 128.521 1341.97 128.186 1347.32 126.293 C 1355.33 123.459 1361.45 117.682 1364.91 110.607 L 1367.22 109.791 C 1386.4 103.009 1395.17 80.856 1385.83 62.789 L 1341.58 -22.834 C 1333.89 -37.713 1316.4 -44.636 1300.61 -39.051 L 1220.94 -10.87 C 1205.15 -5.286 1195.9 11.093 1199.28 27.497 L 1218.7 121.9 C 1222.8 141.821 1243.55 153.534 1262.72 146.752 Z " id="Path" fill="rgb(255,184,2)"/><path d=" M 1313.04 0.785 C 1315.12 0.049 1317.48 0.95 1318.51 2.97 L 1358.9 82.082 C 1360.02 84.282 1359.15 86.976 1356.95 88.099 C 1354.75 89.22 1352.05 88.349 1350.93 86.149 L 1310.54 7.037 C 1309.42 4.837 1310.29 2.144 1312.49 1.021 C 1312.67 0.929 1312.86 0.851 1313.04 0.785 Z " id="Path" fill="rgb(252,228,134)"/><path d=" M 1281.49 -5.402 C 1283.69 -6.178 1286.14 -5.133 1287.08 -2.965 L 1329.12 93.879 C 1330.1 96.145 1329.06 98.778 1326.8 99.762 C 1324.53 100.746 1321.9 99.706 1320.92 97.44 L 1278.88 0.596 C 1277.89 -1.669 1278.93 -4.303 1281.2 -5.287 C 1281.3 -5.329 1281.39 -5.367 1281.49 -5.402 Z " id="Path" fill="rgb(252,228,134)"/><path d=" M 1236.32 27.92 C 1236.5 27.855 1236.7 27.801 1236.89 27.76 C 1239.31 27.25 1241.68 28.795 1242.19 31.212 L 1260.53 118.124 C 1261.04 120.541 1259.49 122.913 1257.07 123.422 C 1254.66 123.932 1252.28 122.387 1251.78 119.97 L 1233.44 33.058 C 1232.97 30.839 1234.24 28.657 1236.32 27.92 Z " id="Path" fill="rgb(252,228,134)"/><path d=" M 1256.96 3.274 C 1257.06 3.239 1257.16 3.208 1257.26 3.179 C 1259.64 2.52 1262.11 3.914 1262.77 6.294 L 1290.97 108.033 C 1291.63 110.414 1290.23 112.875 1287.85 113.537 C 1285.47 114.196 1283.01 112.802 1282.35 110.422 L 1254.15 8.683 C 1253.52 6.405 1254.77 4.05 1256.96 3.274 Z " id="Path" fill="rgb(252,228,134)"/><path d=" M 1382.97 115.631 C 1384.49 115.091 1386.26 115.471 1387.43 116.736 C 1388.99 118.431 1388.88 121.071 1387.19 122.634 C 1386.28 123.472 1364.67 143.231 1340.67 150.588 C 1338.47 151.263 1336.13 150.024 1335.46 147.821 C 1334.78 145.617 1336.02 143.28 1338.23 142.607 C 1360.44 135.798 1381.32 116.691 1381.53 116.499 C 1381.96 116.103 1382.45 115.814 1382.97 115.631 Z " id="Path" fill="rgb(227,63,98)"/><path d=" M 1383.3 146.399 C 1384.99 145.804 1386.93 146.34 1388.05 147.849 C 1389.42 149.699 1389.03 152.313 1387.18 153.687 C 1386.26 154.371 1364.42 170.485 1345.68 176.047 C 1343.47 176.704 1341.14 175.444 1340.49 173.235 C 1339.83 171.025 1341.08 168.699 1343.3 168.045 C 1360.64 162.894 1381.99 147.142 1382.21 146.983 C 1382.55 146.729 1382.92 146.534 1383.3 146.399 Z " id="Path" fill="rgb(227,63,98)"/><path d=" M 1226.18 107.219 C 1223.06 93.008 1226.54 80.165 1233.97 78.534 C 1241.39 76.902 1249.94 87.1 1253.07 101.311 C 1256.19 115.522 1252.7 128.365 1245.28 129.996 C 1237.85 131.628 1229.3 121.43 1226.18 107.219 Z " id="Path" fill="rgb(255,255,255)"/><path d=" M 1219.56 50.289 C 1217.65 41.577 1220.32 33.584 1225.54 32.439 C 1230.75 31.293 1236.53 37.427 1238.44 46.14 C 1240.36 54.852 1237.68 62.844 1232.47 63.99 C 1227.25 65.136 1221.47 59.002 1219.56 50.289 Z " id="Path" fill="rgb(255,255,255)"/><path d=" M 1353.28 1577.51 L 1303.48 1677.68 C 1303.48 1677.68 1145.17 1628.98 1122.49 1611.53 C 1122.49 1611.53 1126.85 1533.5 1132.1 1510.52 C 1137.36 1487.55 1336.24 1550.81 1353.28 1577.51 Z " id="Path" fill="rgb(250,85,102)"/><path d=" M 1123.43 1596.26 C 1122.83 1605.48 1122.49 1611.53 1122.49 1611.53 C 1145.17 1628.98 1303.48 1677.68 1303.48 1677.68 L 1317.21 1650.07 C 1265.19 1638.17 1153.21 1611.55 1123.43 1596.26 Z " id="Path" fill="rgb(227,63,98)"/><path d=" M 1336.46 1611.34 C 1315.27 1619.08 1292.81 1613.7 1283.97 1596.14 C 1274.06 1576.45 1262.26 1572.99 1231.16 1582.09 C 1200.06 1591.19 1202.83 1579.56 1177.6 1556.8 C 1161.92 1542.65 1140.83 1544.92 1127.11 1548.67 C 1126.69 1553.2 1126.28 1557.83 1125.91 1562.41 C 1136.96 1559.66 1154.02 1557.13 1163.19 1564.49 C 1177.47 1575.95 1197.96 1612.03 1223.22 1600.84 C 1251.58 1588.28 1265.64 1591.78 1272.9 1610.22 C 1279.92 1628.05 1308.47 1633.31 1326.54 1631.29 L 1336.46 1611.34 Z " id="Path" fill="rgb(255,255,255)"/><path d=" M 1329.92 1489.21 C 1326.99 1482.66 1320.19 1478.72 1313.05 1479.44 C 1269.83 1483.78 1123.89 1499.34 1132.1 1510.52 C 1141.73 1523.64 1335.59 1586.4 1353.28 1577.51 C 1365.31 1571.46 1341.68 1515.43 1329.92 1489.21 Z " id="Path" fill="rgb(106,126,197)"/><path d=" M 1355.43 1558.94 C 1354.89 1560.36 1354.07 1561.39 1352.92 1561.97 C 1337.67 1569.64 1191.56 1524.08 1145.33 1502.95 C 1135.6 1505.57 1130.36 1508.15 1132.1 1510.52 C 1141.73 1523.64 1335.59 1586.4 1353.28 1577.51 C 1357.13 1575.57 1357.33 1568.51 1355.43 1558.94 Z " id="Path" fill="rgb(255,255,255)"/><path d=" M 1303.01 1449.68 L 1282.04 1518.9 L 1258.5 1511.77 L 1279.47 1442.55 L 1303.01 1449.68 Z " id="Path" fill="rgb(135,36,126)"/><path d=" M 1308.9 1387.79 L 1289.09 1414.45 L 1287.61 1409.73 C 1287.61 1409.73 1267.61 1424.31 1275.54 1431.82 C 1283.47 1439.32 1307.49 1445.17 1317.52 1432.63 C 1327.56 1420.08 1308.9 1387.79 1308.9 1387.79 Z " id="Path" fill="rgb(255,184,2)"/><path d=" M 118.225 1234 L -8.25 1231.14 C -8.25 1231.14 -34.441 1045.66 -27.471 1014.06 C -27.471 1014.06 54.513 981.041 80.555 975.388 C 106.596 969.734 137.374 1203.73 118.225 1234 Z " id="Path" fill="rgb(27,184,176)"/><path d=" M -11.392 1007.69 C -21.118 1011.5 -27.471 1014.06 -27.471 1014.06 C -34.441 1045.66 -8.25 1231.14 -8.25 1231.14 L 26.609 1231.93 C 13.799 1172.96 -12.734 1045.53 -11.392 1007.69 Z " id="Path" fill="rgb(1,144,153)"/><path d=" M 75.514 1233.04 C 57.398 1215.06 52.121 1189.48 65.856 1171.99 C 81.249 1152.39 79.124 1138.65 54.87 1111.17 C 30.617 1083.7 43.856 1080.96 55.034 1044.2 C 61.984 1021.34 49.526 1000.84 39.108 988.597 C 34.26 990.342 29.331 992.151 24.458 993.966 C 32.587 1003.96 43.369 1020.21 40.241 1033.13 C 35.366 1053.27 8.268 1091.58 31.853 1112.05 C 58.349 1135.06 61.516 1151.13 46.118 1167.42 C 31.236 1183.17 39.573 1214.93 50.318 1232.47 L 75.514 1233.04 Z " id="Path" fill="rgb(255,255,255)"/><path d=" M 197.4 1167.68 C 202.7 1161.52 203.471 1152.67 199.302 1145.7 C 174.096 1103.55 88.062 961.609 80.555 975.388 C 71.75 991.55 100.621 1220.17 118.225 1234 C 130.201 1243.42 176.203 1192.31 197.4 1167.68 Z " id="Path" fill="rgb(255,184,2)"/><path d=" M 138.263 1227.28 C 136.553 1227.41 135.098 1227.07 133.956 1226.17 C 118.783 1214.24 95.241 1042.77 94.666 985.284 C 87.307 976.587 82.151 972.458 80.555 975.388 C 71.75 991.55 100.621 1220.17 118.225 1234 C 122.059 1237.02 129.384 1233.82 138.263 1227.28 Z " id="Path" fill="rgb(255,255,255)"/><path d=" M 224.948 1121.12 L 144.004 1132.92 L 139.996 1105.39 L 220.939 1093.6 L 224.948 1121.12 Z " id="Path" fill="rgb(135,36,126)"/><path d=" M 291.139 1097.43 L 254.325 1089.96 L 258.45 1086.18 C 258.45 1086.18 233.91 1072.7 230.038 1084.43 C 226.167 1096.15 231.708 1123.55 249.375 1127.8 C 267.042 1132.04 291.139 1097.43 291.139 1097.43 Z " id="Path" fill="rgb(255,184,2)"/><path d=" M 1599.33 128.134 L 1595.86 -5.965 C 1595.86 -5.965 1790.96 -43.238 1824.79 -37.481 C 1824.79 -37.481 1863.97 47.653 1871.3 74.943 C 1878.63 102.233 1632.38 146.859 1599.33 128.134 Z " id="Path" fill="rgb(135,36,126)"/><path d=" M 1832.36 -20.778 C 1827.82 -30.883 1824.79 -37.48 1824.79 -37.48 C 1790.96 -43.238 1595.86 -5.965 1595.86 -5.965 L 1596.82 30.997 C 1658.62 14.397 1792.21 -20.254 1832.36 -20.778 Z " id="Path" fill="rgb(112,30,105)"/><path d=" M 1598.16 82.849 C 1616.27 62.737 1643.09 55.834 1662.32 69.482 C 1683.87 84.777 1698.32 81.82 1726.16 54.72 C 1754.01 27.621 1757.6 41.502 1797.11 51.451 C 1821.67 57.637 1842.75 43.389 1855.18 31.726 C 1853.08 26.681 1850.91 21.553 1848.74 16.485 C 1838.57 25.609 1821.92 37.863 1808.07 35.214 C 1786.5 31.086 1744.53 4.356 1724.05 30.388 C 1701.05 59.633 1684.19 63.813 1666.14 48.342 C 1648.69 33.39 1615.49 43.852 1597.47 56.135 L 1597.47 56.135 C 1597.02 63.6 1597.13 71.088 1597.78 78.539 L 1598.16 82.849 Z " id="Path" fill="rgb(255,255,255)"/><path d=" M 1673.65 208.581 C 1680.44 213.877 1689.85 214.24 1697.02 209.466 C 1740.37 180.603 1886.28 82.186 1871.3 74.943 C 1853.73 66.448 1613.08 108.779 1599.33 128.134 C 1589.98 141.302 1646.48 187.396 1673.65 208.581 Z " id="Path" fill="rgb(205,214,255)"/><path d=" M 1607.48 149.012 C 1607.26 147.207 1607.55 145.649 1608.44 144.393 C 1620.29 127.71 1800.69 93.961 1861.54 90.398 C 1870.38 82.157 1874.48 76.483 1871.3 74.943 C 1853.73 66.448 1613.08 108.779 1599.33 128.134 C 1596.34 132.35 1600.1 139.944 1607.48 149.012 Z " id="Path" fill="rgb(255,255,255)"/><path d=" M 1724.37 235.364 L 1707.72 150.241 L 1736.66 144.581 L 1753.31 229.704 L 1724.37 235.364 Z " id="Path" fill="rgb(1,144,153)"/><path d=" M 1752.87 304.25 L 1758.89 264.875 L 1763.11 269.05 C 1763.11 269.05 1776.12 242.367 1763.5 238.869 C 1750.88 235.371 1722.15 242.648 1718.56 261.578 C 1714.97 280.508 1752.87 304.25 1752.87 304.25 Z " id="Path" fill="rgb(255,184,2)"/></g></g></g></svg>