<?xml version="1.0" encoding="UTF-8" standalone="no"?><!-- Generator: Gravit.io --><svg xmlns="http://www.w3.org/2000/svg" xmlns:xlink="http://www.w3.org/1999/xlink" style="isolation:isolate" viewBox="350 13 66 79" width="66pt" height="79pt"><defs><clipPath id="_clipPath_RnxFGOv4H1iv24zHsVyrHljf0hbDGylE"><rect width="435" height="435.746"/></clipPath></defs><g clip-path="url(#_clipPath_RnxFGOv4H1iv24zHsVyrHljf0hbDGylE)"><path d=" M 159.655 202.783 L 133.29 202.783 L 133.29 161.428 L 159.655 161.428 L 159.655 202.783 Z  M 165.662 161.428 L 165.662 202.783 L 192.028 202.783 L 192.028 161.428 L 165.662 161.428 Z  M 159.42 146.479 L 129.952 146.479 L 129.952 158.463 L 159.42 158.463 L 159.42 146.479 Z  M 165.898 146.479 L 165.898 158.463 L 195.365 158.463 L 195.365 146.479 L 165.898 146.479 Z  M 164.643 142.208 C 165.01 142.679 165.521 142.992 166.098 143.115 C 166.185 143.13 166.272 143.143 166.359 143.152 L 166.494 143.164 L 166.807 143.173 L 167.324 143.184 L 168.357 143.189 C 169.734 143.177 171.117 143.126 172.502 143.031 C 175.269 142.817 178.048 142.44 180.813 141.722 C 182.196 141.368 183.569 140.914 184.936 140.335 C 186.305 139.759 187.645 139.021 188.948 138.019 C 189.601 137.516 190.23 136.92 190.803 136.19 C 191.374 135.461 191.899 134.582 192.215 133.527 C 192.542 132.482 192.594 131.262 192.347 130.17 C 192.109 129.07 191.63 128.124 191.087 127.345 C 190.531 126.556 189.953 125.934 189.289 125.346 C 188.704 124.826 187.946 124.252 187.165 123.833 C 185.587 122.955 183.728 122.507 181.969 122.536 C 180.202 122.553 178.561 122.999 177.099 123.623 C 175.628 124.239 174.333 125.081 173.149 125.994 C 170.797 127.847 168.9 130.065 167.349 132.476 C 166.57 133.68 165.894 134.947 165.335 136.275 C 164.775 137.594 164.327 139.005 164.167 140.473 L 164.166 140.492 C 164.075 141.095 164.277 141.746 164.643 142.208 Z  M 166.166 140.822 C 166.755 138.449 168.203 136.26 169.875 134.377 C 171.568 132.499 173.561 130.891 175.664 129.72 C 177.754 128.549 180.008 127.842 181.875 127.989 C 182.807 128.053 183.63 128.312 184.395 128.761 C 184.789 128.999 185.118 129.233 185.533 129.612 C 185.869 129.923 186.22 130.286 186.44 130.6 C 186.665 130.921 186.799 131.2 186.86 131.416 C 186.916 131.636 186.928 131.802 186.891 132.051 C 186.826 132.548 186.308 133.322 185.558 134.053 C 184.023 135.531 181.781 136.786 179.475 137.805 C 177.143 138.823 174.648 139.629 172.091 140.193 C 170.812 140.483 169.515 140.711 168.208 140.873 L 167.226 140.988 L 166.437 141.07 C 166.353 141.076 166.239 141.042 166.187 140.984 C 166.136 140.927 166.149 140.881 166.164 140.829 L 166.166 140.822 Z  M 162.445 140.492 L 162.444 140.473 C 162.283 139.005 161.836 137.594 161.275 136.275 C 160.718 134.947 160.04 133.68 159.263 132.476 C 157.71 130.065 155.814 127.847 153.462 125.994 C 152.278 125.081 150.984 124.239 149.512 123.623 C 148.051 122.999 146.409 122.553 144.643 122.536 C 142.884 122.507 141.024 122.955 139.446 123.833 C 138.665 124.252 137.907 124.826 137.322 125.346 C 136.657 125.934 136.08 126.556 135.524 127.345 C 134.981 128.124 134.501 129.07 134.265 130.17 C 134.017 131.262 134.068 132.482 134.396 133.527 C 134.712 134.582 135.237 135.461 135.808 136.19 C 136.382 136.92 137.01 137.516 137.662 138.019 C 138.967 139.021 140.307 139.759 141.675 140.335 C 143.041 140.914 144.415 141.368 145.799 141.722 C 148.564 142.44 151.343 142.817 154.109 143.031 C 155.494 143.126 156.876 143.177 158.254 143.189 L 159.288 143.184 L 159.804 143.173 L 160.116 143.164 L 160.252 143.152 C 160.34 143.143 160.427 143.13 160.513 143.115 C 161.091 142.992 161.602 142.679 161.969 142.208 C 162.334 141.746 162.536 141.095 162.445 140.492 Z  M 160.447 140.829 C 160.462 140.881 160.476 140.927 160.425 140.984 C 160.372 141.042 160.259 141.076 160.175 141.07 L 159.386 140.988 L 158.403 140.873 C 157.096 140.711 155.799 140.483 154.521 140.193 C 151.963 139.629 149.469 138.823 147.136 137.805 C 144.83 136.786 142.588 135.531 141.054 134.053 C 140.304 133.322 139.784 132.548 139.721 132.051 C 139.683 131.802 139.695 131.636 139.751 131.416 C 139.813 131.2 139.945 130.921 140.172 130.6 C 140.391 130.286 140.742 129.923 141.078 129.612 C 141.492 129.233 141.821 128.999 142.216 128.761 C 142.981 128.312 143.804 128.053 144.736 127.989 C 146.604 127.842 148.857 128.549 150.947 129.72 C 153.051 130.891 155.043 132.499 156.736 134.377 C 158.407 136.26 159.856 138.449 160.445 140.822 L 160.447 140.829 Z " fill="rgb(255,255,255)"/><path d=" M 273.516 358.285 C 273.677 358.277 273.804 358.206 273.868 358.176 C 273.869 358.176 273.872 358.174 273.874 358.174 L 273.877 358.172 C 275.103 357.558 276.385 356.87 277.647 357.042 C 278.914 357.214 280.203 357.798 281.48 358.359 C 282.121 358.639 282.756 358.955 283.402 359.25 C 283.728 359.401 284.034 359.551 284.378 359.699 C 284.734 359.849 285.096 359.985 285.462 360.112 C 286.927 360.617 288.466 360.96 290.068 361.04 C 291.668 361.122 293.343 360.986 295.039 360.393 C 295.885 360.096 296.738 359.678 297.545 359.088 C 298.352 358.503 299.106 357.724 299.675 356.791 C 300.247 355.864 300.618 354.802 300.77 353.77 C 300.917 352.734 300.858 351.738 300.702 350.829 C 300.55 349.913 300.283 349.077 299.962 348.299 C 299.641 347.523 299.283 346.792 298.879 346.115 C 298.47 345.432 298.047 344.802 297.587 344.171 C 297.381 343.899 297.117 343.544 296.83 343.213 C 296.545 342.883 296.235 342.559 295.898 342.254 C 295.231 341.638 294.432 341.098 293.538 340.716 C 292.648 340.33 291.667 340.134 290.732 340.131 C 288.842 340.126 287.235 340.786 285.895 341.562 C 284.542 342.355 283.396 343.312 282.348 344.324 C 280.254 346.352 278.501 348.579 276.879 350.877 C 276.069 352.025 275.301 353.2 274.579 354.404 C 274.228 355.013 273.884 355.625 273.567 356.261 C 273.415 356.583 273.27 356.906 273.155 357.265 C 273.108 357.452 273.042 357.616 273.07 357.899 C 273.086 357.974 273.108 358.068 273.199 358.164 C 273.296 358.262 273.427 358.287 273.516 358.285 Z  M 273.634 357.707 C 273.728 357.425 273.861 357.141 274.002 356.862 C 274.283 356.301 274.617 355.757 274.973 355.232 C 275.673 354.174 276.461 353.169 277.294 352.209 C 278.972 350.304 280.858 348.566 282.928 347.218 C 283.963 346.555 285.042 345.984 286.117 345.62 C 287.188 345.256 288.26 345.125 289.088 345.329 C 289.914 345.534 290.511 345.982 291.065 346.698 C 291.2 346.875 291.331 347.068 291.456 347.273 C 291.582 347.476 291.687 347.688 291.847 347.974 C 292.116 348.468 292.378 348.994 292.596 349.501 C 293.048 350.511 293.352 351.526 293.444 352.382 C 293.492 352.809 293.471 353.187 293.406 353.498 C 293.351 353.814 293.25 354.064 293.099 354.296 C 292.803 354.746 292.249 355.227 291.419 355.64 C 290.601 356.048 289.587 356.384 288.507 356.613 C 287.426 356.835 286.267 356.987 285.094 356.997 C 284.803 356.998 284.508 356.992 284.214 356.975 L 283.253 356.91 C 282.605 356.862 281.952 356.826 281.303 356.763 L 279.339 356.583 C 278.683 356.516 278.004 356.466 277.303 356.512 C 276.598 356.552 275.913 356.782 275.32 357.065 C 274.726 357.351 274.164 357.658 273.596 357.954 C 273.584 357.959 273.579 357.961 273.569 357.967 C 273.58 357.89 273.606 357.793 273.634 357.707 Z " fill="rgb(255,255,255)"/><path d=" M 244.006 355.905 L 244.01 355.906 L 244.343 355.92 C 244.639 355.932 244.942 355.872 245.227 355.733 C 247.441 354.65 249.744 353.782 252.124 353.25 C 254.503 352.721 256.961 351.8 259.417 352.056 C 261.872 352.307 264.315 352.999 266.626 354.076 C 268.938 355.151 271.121 356.59 273.135 358.258 L 273.142 358.264 C 273.219 358.328 273.332 358.34 273.423 358.287 C 273.54 358.217 273.579 358.065 273.51 357.948 C 271.262 354.152 268.712 350.481 265.56 347.26 C 263.981 345.655 262.242 344.167 260.299 342.921 C 258.358 341.676 256.198 340.68 253.878 340.114 C 251.563 339.543 249.108 339.431 246.73 339.746 C 245.54 339.899 244.371 340.152 243.234 340.475 C 242.087 340.803 240.904 341.222 239.737 341.885 C 239.152 342.22 238.569 342.62 238.012 343.139 C 237.462 343.657 236.932 344.306 236.555 345.116 C 236.172 345.919 235.978 346.886 236.037 347.81 C 236.091 348.736 236.371 349.593 236.748 350.324 C 237.52 351.791 238.625 353.564 239.844 354.365 C 241.07 355.154 242.453 355.707 244.006 355.905 Z  M 240.635 346.884 C 240.738 346.479 241.224 345.889 241.927 345.4 C 242.632 344.903 243.5 344.481 244.437 344.12 C 245.39 343.752 246.353 343.449 247.333 343.229 C 249.287 342.783 251.307 342.686 253.307 342.984 C 257.326 343.566 261.13 345.737 264.398 348.51 C 266.736 350.495 268.852 352.775 270.804 355.204 C 269.76 354.262 268.651 353.383 267.466 352.59 C 265.208 351.076 262.667 349.893 259.956 349.18 C 257.246 348.46 254.385 348.231 251.562 348.414 C 248.986 348.581 246.446 349.082 243.992 349.797 C 243.481 349.724 242.94 349.552 242.446 349.299 C 241.787 348.967 241.21 348.477 240.902 348.016 C 240.747 347.788 240.659 347.582 240.62 347.411 C 240.582 347.237 240.576 347.087 240.635 346.884 Z " fill="rgb(255,255,255)"/><path d=" M 273.404 360.75 L 246.404 361.829 L 239.503 371.745 L 240.315 375.329 L 252.025 426.95 L 252.117 427.354 L 252.507 427.355 L 259.348 427.374 L 288.633 427.459 L 308.656 376.274 L 273.404 360.75 Z  M 303.367 380.821 C 299.891 391.071 289.513 421.838 289.513 421.838 C 288.648 424.4 286.263 426.473 284.187 426.466 L 260.425 426.397 C 259.936 426.494 259.475 426.51 259.006 426.393 C 258.543 426.393 257.41 426.389 256.084 426.385 C 254.346 426.38 252.646 424.202 252.286 421.522 L 246.564 378.769 C 246.242 377.758 246.221 376.797 247.575 376.558 C 249.011 376.305 305.219 375.366 303.367 380.821 Z " fill="rgb(255,255,255)"/><path d=" M 284.305 400.12 C 281.422 399.898 278.697 399.648 276.615 399.447 C 281.706 398.737 289.831 397.315 289.033 391.198 C 288.002 383.307 280.309 383.764 277.916 389.395 C 276.627 392.43 275.373 395.26 274.486 397.233 C 275.107 392.147 275.909 383.736 269.718 382.931 C 261.823 381.903 260.295 389.457 265.124 393.213 C 267.101 394.75 268.967 396.236 270.49 397.461 C 266.02 394.9 259.315 391.627 256.318 396.663 C 252.247 403.504 258.575 407.901 263.938 404.954 C 265.666 404.005 267.34 403.105 268.817 402.318 C 265.183 405.379 261.653 409.481 264.576 413.456 C 269.291 419.871 275.808 415.756 275.181 409.668 C 274.904 406.971 274.674 404.401 274.503 402.372 C 276.815 406.98 280.702 413.884 286.136 411.232 C 293.289 407.741 290.405 400.595 284.305 400.12 Z " fill="rgb(255,255,255)"/><path d=" M 20.323 373.054 L 22.402 377.376 L 46.97 428.505 L 47.067 428.707 L 47.276 428.709 L 79.729 429.102 L 83.891 382.514 L 84.136 379.787 L 81.263 379.485 L 25.22 373.569 L 20.323 373.054 Z  M 67.46 383.861 L 78.06 385.059 L 79.075 428.418 L 69.385 428.301 L 67.46 383.861 Z  M 61.592 399.221 C 61.634 397.305 60.11 395.715 58.191 395.676 C 57.272 395.654 56.433 396.004 55.798 396.575 L 55.026 382.457 L 61.939 383.237 L 62.197 386.119 C 61.927 386.022 61.641 385.953 61.336 385.947 C 59.845 385.916 58.609 387.1 58.579 388.593 C 58.548 390.082 59.731 391.318 61.221 391.35 C 61.738 391.359 62.219 391.217 62.636 390.976 L 64.287 409.381 C 63.879 409.117 63.402 408.953 62.882 408.942 C 61.391 408.911 60.156 410.097 60.125 411.587 C 60.095 413.076 61.278 414.313 62.769 414.344 C 63.502 414.359 64.171 414.078 64.668 413.613 L 65.982 428.26 L 57.526 428.158 L 57.369 425.277 C 57.785 425.559 58.279 425.732 58.816 425.742 C 60.309 425.773 61.543 424.588 61.573 423.098 C 61.604 421.607 60.42 420.371 58.929 420.34 C 58.245 420.326 57.619 420.576 57.136 420.988 L 56.093 401.97 C 56.644 402.365 57.317 402.606 58.046 402.622 C 59.964 402.661 61.554 401.139 61.592 399.221 Z  M 29.079 379.525 L 49.61 381.844 L 54.127 428.117 L 47.515 428.035 L 29.079 379.525 Z  M 73.563 343.143 C 73.644 342.725 73.643 342.219 73.523 341.76 C 73.409 341.299 73.2 340.903 72.985 340.609 C 72.773 340.313 72.554 340.1 72.349 339.924 C 71.531 339.267 70.925 339.072 70.346 338.856 C 69.208 338.481 68.209 338.32 67.213 338.184 C 65.232 337.94 63.327 337.902 61.415 337.945 C 59.504 337.996 57.609 338.164 55.671 338.488 C 54.697 338.658 53.721 338.863 52.673 339.225 C 52.143 339.413 51.602 339.617 50.954 340.022 C 50.634 340.232 50.267 340.488 49.868 340.98 C 49.675 341.229 49.472 341.56 49.337 341.979 C 49.2 342.397 49.164 342.897 49.235 343.326 C 49.272 343.549 49.319 343.729 49.395 343.929 L 49.458 344.087 L 49.639 344.51 C 49.752 344.759 49.864 344.988 49.977 345.208 C 50.206 345.645 50.434 346.057 50.661 346.462 L 52.017 348.836 C 52.907 350.398 53.761 351.957 54.564 353.539 C 56.206 356.683 57.586 359.935 58.619 363.293 C 59.621 366.654 60.227 370.145 60.121 373.691 C 60.107 374.066 60.404 374.379 60.778 374.391 C 61.078 374.4 61.341 374.209 61.439 373.941 L 61.452 373.904 C 63.91 367.041 65.994 360.088 68.421 353.416 C 69.029 351.756 69.668 350.113 70.371 348.576 C 70.729 347.815 71.093 347.067 71.484 346.425 C 71.678 346.107 71.879 345.811 72.063 345.59 L 72.192 345.44 L 72.351 345.28 L 72.504 345.12 C 72.596 345.024 72.679 344.928 72.748 344.84 C 72.894 344.66 73.048 344.446 73.195 344.172 C 73.342 343.898 73.483 343.563 73.563 343.143 Z  M 68.694 342.727 C 68.543 342.955 68.401 343.18 68.269 343.403 C 67.731 344.32 67.302 345.213 66.925 346.107 C 66.161 347.894 65.566 349.672 65.027 351.455 C 63.965 355.023 63.162 358.609 62.506 362.221 C 62.479 362.375 62.457 362.53 62.429 362.684 C 62.397 362.502 62.37 362.318 62.335 362.139 C 61.662 358.432 60.417 354.873 58.995 351.44 C 58.264 349.729 57.466 348.054 56.657 346.408 L 55.459 343.972 C 55.307 343.662 55.166 343.36 55.03 343.061 C 55.05 343.057 55.065 343.049 55.085 343.045 C 55.765 342.846 56.577 342.694 57.394 342.578 C 59.046 342.346 60.779 342.261 62.498 342.244 C 64.215 342.232 65.948 342.315 67.57 342.537 C 67.953 342.589 68.335 342.652 68.694 342.727 Z  M 50.253 356.132 C 48.228 353.433 46.023 350.765 42.739 348.715 C 41.906 348.219 40.995 347.749 39.949 347.42 C 38.91 347.093 37.717 346.87 36.434 346.971 C 35.155 347.058 33.823 347.496 32.742 348.181 C 31.656 348.864 30.815 349.731 30.155 350.601 L 30.018 350.785 L 29.931 350.908 L 29.72 351.219 C 29.549 351.469 29.429 351.672 29.289 351.908 C 29.023 352.368 28.776 352.857 28.563 353.375 C 28.13 354.409 27.853 355.582 27.813 356.789 C 27.759 357.997 27.986 359.209 28.373 360.287 C 28.757 361.369 29.319 362.314 29.931 363.139 C 31.17 364.787 32.633 365.986 34.119 366.992 C 35.616 367.988 37.166 368.773 38.72 369.471 C 41.854 370.818 45.042 371.772 48.247 372.539 C 49.847 372.932 51.458 373.249 53.07 373.534 C 54.682 373.82 56.3 374.065 57.946 374.148 L 57.976 374.148 L 58.06 374.152 C 58.124 374.148 58.196 374.146 58.251 374.122 C 58.373 374.09 58.481 374 58.55 373.908 C 58.677 373.717 58.689 373.561 58.705 373.427 C 58.724 373.162 58.695 372.939 58.662 372.721 C 58.589 372.286 58.475 371.881 58.353 371.481 C 58.103 370.682 57.803 369.912 57.485 369.152 C 56.849 367.632 56.161 366.136 55.405 364.671 C 53.903 361.733 52.223 358.873 50.253 356.132 Z  M 58.069 373.477 C 58.064 373.481 58.047 373.479 58.029 373.478 C 58.029 373.476 58.026 373.476 58.026 373.476 C 58.036 373.477 58.056 373.471 58.069 373.477 Z  M 46.978 359.023 C 49.268 361.12 51.426 363.463 53.407 365.95 C 54.386 367.199 55.345 368.481 56.192 369.821 C 56.614 370.492 57.019 371.174 57.369 371.871 C 57.543 372.22 57.707 372.574 57.826 372.922 C 57.886 373.094 57.931 373.271 57.947 373.408 C 57.949 373.428 57.949 373.441 57.949 373.457 C 54.878 372.75 51.892 371.592 49.028 370.275 C 46.146 368.932 43.363 367.391 40.851 365.624 C 39.585 364.76 38.4 363.822 37.352 362.84 C 36.302 361.866 35.392 360.822 34.801 359.811 C 34.204 358.783 33.99 357.888 34.074 357.101 C 34.148 356.313 34.542 355.387 35.262 354.441 C 35.566 354.025 35.877 353.724 36.153 353.545 C 36.432 353.363 36.666 353.253 36.996 353.209 C 37.634 353.086 38.749 353.322 39.911 353.874 C 41.079 354.42 42.296 355.206 43.481 356.092 C 44.674 356.975 45.848 357.966 46.978 359.023 Z " fill="rgb(255,255,255)"/><path d=" M 128.258 376.332 L 129.049 378.395 L 148.054 428.008 L 177.17 428.009 L 183.973 428.008 L 184.358 428.009 L 184.451 427.608 L 196.242 376.318 L 197.059 372.758 L 171.757 365.957 L 150.358 366.984 L 128.258 376.332 Z  M 177.289 427.035 L 183.171 378.793 L 190.159 378.701 L 184.207 422.209 C 183.843 424.875 182.147 427.033 180.419 427.034 C 178.69 427.034 177.289 427.035 177.289 427.035 Z  M 164.34 379.037 L 174.815 378.9 L 177.125 427.034 L 166.644 427.034 L 164.34 379.037 Z  M 156.315 427.035 L 146.732 379.266 L 157.73 379.122 L 166.628 427.035 L 156.315 427.035 Z  M 132.837 379.445 L 138.793 379.369 L 156.215 427.035 L 152.477 427.034 C 150.412 427.035 148.048 424.967 147.195 422.418 L 132.837 379.445 Z  M 130.625 360.273 C 131.252 362.256 132.257 364.16 133.821 365.677 C 134.602 366.428 135.529 367.078 136.594 367.49 C 137.65 367.908 138.849 368.048 139.958 367.855 C 141.064 367.674 142.082 367.168 142.862 366.594 C 143.562 366.093 144.274 365.663 145.041 365.277 C 145.804 364.896 146.6 364.57 147.423 364.305 C 148.248 364.049 149.099 363.859 149.963 363.725 C 151.69 363.476 153.476 363.429 155.231 363.68 C 156.988 363.936 158.673 364.543 160.282 365.263 L 160.289 365.266 C 160.706 365.441 161.177 365.64 161.765 365.639 C 162.049 365.637 162.424 365.55 162.711 365.275 C 162.82 365.305 162.933 365.321 163.037 365.322 C 163.556 365.336 164.028 365.164 164.448 365.004 L 164.455 365.002 C 166.102 364.352 167.801 363.875 169.515 363.607 C 171.233 363.36 172.957 363.298 174.615 363.487 C 176.276 363.68 177.866 364.111 179.315 364.762 C 179.677 364.924 180.031 365.102 180.376 365.29 C 180.547 365.383 180.723 365.484 180.882 365.581 L 181.399 365.901 C 181.413 365.911 181.473 365.941 181.447 365.934 L 181.544 365.99 L 181.741 366.098 C 181.874 366.17 182.008 366.237 182.147 366.303 C 182.426 366.434 182.716 366.551 183.018 366.653 C 183.622 366.859 184.278 367 184.962 367.047 C 186.328 367.149 187.78 366.837 188.98 366.198 C 190.193 365.576 191.176 364.697 191.957 363.746 C 193.516 361.829 194.332 359.624 194.715 357.42 C 195.458 352.998 194.26 348.42 191.752 344.868 C 191.136 343.975 190.429 343.154 189.672 342.401 C 189.285 342.018 188.923 341.679 188.48 341.306 L 188.211 341.09 L 187.805 340.773 C 187.534 340.576 187.255 340.388 186.961 340.214 C 185.788 339.51 184.372 339.09 183.025 339.035 C 181.673 338.962 180.423 339.227 179.327 339.607 C 178.228 339.988 177.272 340.522 176.398 341.09 C 175.526 341.661 174.736 342.287 173.999 342.94 C 172.537 344.257 171.285 345.688 170.133 347.164 C 168.985 348.64 167.952 350.176 166.993 351.738 C 166.025 353.297 165.148 354.9 164.355 356.539 C 163.954 357.354 163.578 358.182 163.234 359.023 C 162.95 359.703 162.699 360.397 162.48 361.101 C 161.833 359.438 160.986 357.905 160.101 356.394 C 158.2 353.227 155.991 350.235 153.343 347.526 C 152.012 346.179 150.56 344.912 148.903 343.803 C 148.072 343.25 147.191 342.733 146.231 342.296 C 145.274 341.852 144.234 341.481 143.085 341.256 C 141.94 341.029 140.664 340.965 139.351 341.215 C 138.035 341.449 136.73 342.065 135.693 342.893 C 135.433 343.098 135.19 343.315 134.958 343.54 L 134.612 343.898 L 134.382 344.151 C 134.011 344.578 133.705 344.959 133.388 345.386 C 132.764 346.223 132.203 347.115 131.736 348.059 C 129.831 351.816 129.377 356.295 130.625 360.273 Z  M 162.629 364.109 C 162.795 363.722 162.683 362.746 162.826 362.063 C 162.808 362.007 162.792 361.951 162.774 361.897 C 162.792 361.856 162.806 361.813 162.824 361.772 C 163.537 360.162 164.489 358.662 165.512 357.23 C 167.595 354.384 170.009 351.779 172.65 349.568 C 173.967 348.465 175.347 347.466 176.751 346.654 C 178.136 345.83 179.602 345.227 180.854 345.029 C 181.475 344.933 182.024 344.951 182.452 345.053 C 182.884 345.16 183.2 345.34 183.531 345.6 C 183.612 345.666 183.694 345.742 183.775 345.82 C 183.81 345.856 183.873 345.918 183.884 345.933 L 184.112 346.163 C 184.327 346.393 184.602 346.681 184.827 346.948 C 185.291 347.496 185.702 348.074 186.079 348.664 C 187.559 351.029 188.231 353.824 187.995 356.492 C 187.884 357.815 187.515 359.094 186.962 360.067 C 186.682 360.551 186.365 360.947 186.041 361.234 C 185.708 361.513 185.385 361.714 184.963 361.811 C 184.753 361.857 184.518 361.875 184.259 361.856 C 184.13 361.847 183.995 361.828 183.855 361.801 C 183.785 361.787 183.714 361.772 183.643 361.752 L 183.534 361.723 L 183.479 361.707 C 183.404 361.676 183.412 361.684 183.375 361.67 L 182.671 361.44 C 182.42 361.36 182.185 361.291 181.938 361.226 C 181.449 361.096 180.958 360.981 180.464 360.891 C 178.49 360.524 176.501 360.482 174.593 360.711 C 172.683 360.93 170.844 361.386 169.108 362.035 C 167.367 362.665 165.711 363.46 164.152 364.378 L 164.158 364.376 C 163.865 364.541 163.579 364.688 163.29 364.769 C 163.218 364.807 163.142 364.826 163.063 364.817 C 163.049 364.819 163.037 364.823 163.024 364.824 C 163.024 364.824 163.024 364.824 163.023 364.824 C 163.025 364.82 163.025 364.816 163.027 364.813 C 162.745 364.761 162.48 364.459 162.629 364.109 Z  M 136.687 350.723 C 137.065 350.094 137.484 349.486 137.952 348.912 C 138.179 348.633 138.446 348.329 138.674 348.092 L 138.898 347.854 L 139.021 347.734 C 139.112 347.65 139.202 347.572 139.294 347.503 C 139.663 347.227 140.024 347.078 140.465 346.981 C 140.905 346.887 141.445 346.897 142.054 346.981 C 143.279 347.171 144.703 347.732 146.099 348.465 C 147.499 349.201 148.899 350.102 150.272 351.084 C 153.014 353.059 155.655 355.367 158 357.94 C 159.168 359.225 160.251 360.602 161.127 362.059 C 161.344 362.421 161.533 362.797 161.689 363.169 C 161.78 363.39 161.856 363.615 161.909 363.827 C 161.904 363.99 161.906 364.156 161.931 364.326 C 161.938 364.361 161.945 364.398 161.953 364.434 C 161.945 364.463 161.939 364.492 161.931 364.508 C 161.915 364.551 161.844 364.607 161.692 364.634 C 161.548 364.659 161.359 364.652 161.166 364.625 C 160.967 364.593 160.788 364.554 160.563 364.486 L 160.569 364.49 C 158.837 363.953 157.059 363.617 155.29 363.313 C 153.522 362.999 151.716 362.778 149.884 362.841 C 148.058 362.891 146.211 363.179 144.423 363.748 C 143.535 364.033 142.645 364.402 141.815 364.818 C 141.08 365.18 140.393 365.344 139.715 365.331 C 138.377 365.309 137.236 364.506 136.417 363.352 C 135.601 362.19 135.092 360.74 134.891 359.261 C 134.485 356.275 135.188 353.235 136.687 350.723 Z " fill="rgb(255,255,255)"/><path d=" M 44.15 315.244 L 24.081 315.244 L 24.081 275.028 L 44.15 275.028 L 44.15 315.244 Z  M 48.842 315.244 L 56.139 315.244 L 56.139 275.028 L 48.842 275.028 L 48.842 315.244 Z  M 60.831 275.028 L 60.831 315.244 L 80.901 315.244 L 80.901 275.028 L 60.831 275.028 Z  M 48.842 272.823 L 56.139 272.823 L 56.139 261.75 L 48.842 261.75 L 48.842 272.823 Z  M 60.831 261.75 L 60.831 272.823 L 85.071 272.823 L 85.071 261.75 L 60.831 261.75 Z  M 44.15 261.75 L 19.389 261.75 L 19.389 272.823 L 44.15 272.823 L 44.15 261.75 Z  M 48.404 253.894 C 48.829 254.965 49.201 256.053 49.536 257.154 C 49.703 257.704 49.858 258.261 49.976 258.834 C 50.033 259.121 50.085 259.41 50.105 259.718 C 50.112 259.871 50.115 260.028 50.085 260.211 C 50.065 260.304 50.044 260.41 49.944 260.535 C 49.888 260.594 49.808 260.649 49.72 260.662 C 49.68 260.676 49.631 260.671 49.585 260.67 L 49.527 260.662 L 49.508 260.659 C 48.368 260.486 47.26 260.203 46.16 259.89 C 45.059 259.58 43.962 259.246 42.877 258.861 C 40.704 258.104 38.554 257.216 36.47 256.061 C 35.439 255.466 34.417 254.812 33.446 254.015 C 32.482 253.211 31.551 252.275 30.805 251.043 C 30.438 250.427 30.112 249.729 29.922 248.951 C 29.728 248.175 29.655 247.316 29.778 246.481 C 29.891 245.645 30.165 244.848 30.538 244.158 C 30.723 243.815 30.928 243.492 31.147 243.19 C 31.258 243.036 31.357 242.903 31.493 242.742 L 31.662 242.541 L 31.731 242.462 L 31.84 242.343 C 32.359 241.784 33.004 241.241 33.807 240.842 C 34.606 240.442 35.564 240.231 36.459 240.26 C 37.357 240.28 38.172 240.519 38.871 240.818 C 39.575 241.121 40.175 241.512 40.719 241.914 C 42.858 243.569 44.203 245.578 45.422 247.597 C 46.599 249.641 47.566 251.747 48.404 253.894 Z  M 49.609 260.197 C 49.609 260.197 49.611 260.197 49.611 260.199 C 49.624 260.2 49.635 260.203 49.64 260.2 C 49.631 260.196 49.616 260.197 49.609 260.197 Z  M 40.718 247.095 C 39.956 246.396 39.165 245.763 38.392 245.303 C 37.623 244.838 36.863 244.594 36.412 244.635 C 36.18 244.643 36.009 244.703 35.802 244.81 C 35.598 244.915 35.361 245.103 35.12 245.371 C 34.553 245.978 34.215 246.594 34.108 247.136 C 33.994 247.677 34.081 248.315 34.424 249.071 C 34.763 249.815 35.323 250.604 35.984 251.354 C 36.645 252.111 37.402 252.846 38.22 253.535 C 39.843 254.94 41.669 256.206 43.579 257.343 C 45.477 258.458 47.472 259.472 49.557 260.179 C 49.559 260.168 49.56 260.16 49.56 260.146 C 49.557 260.049 49.538 259.922 49.509 259.8 C 49.451 259.548 49.362 259.291 49.266 259.036 C 49.07 258.527 48.838 258.024 48.59 257.529 C 48.096 256.537 47.519 255.579 46.926 254.643 C 45.723 252.775 44.387 250.995 42.942 249.377 C 42.231 248.563 41.485 247.792 40.718 247.095 Z  M 56.135 250.816 C 55.676 251.873 55.171 252.906 54.629 253.923 C 54.358 254.43 54.074 254.933 53.753 255.421 C 53.589 255.664 53.42 255.906 53.217 256.136 C 53.114 256.251 53.007 256.365 52.855 256.472 C 52.775 256.523 52.685 256.585 52.526 256.601 C 52.446 256.604 52.349 256.585 52.279 256.534 C 52.242 256.514 52.208 256.477 52.177 256.443 L 52.142 256.397 L 52.13 256.38 C 51.447 255.452 50.864 254.469 50.306 253.471 C 49.748 252.473 49.208 251.46 48.713 250.421 C 47.712 248.349 46.82 246.2 46.163 243.909 C 45.854 242.761 45.593 241.574 45.47 240.324 C 45.358 239.075 45.36 237.755 45.705 236.355 C 45.881 235.659 46.144 234.939 46.56 234.252 C 46.972 233.565 47.528 232.908 48.205 232.404 C 48.875 231.891 49.633 231.523 50.383 231.299 C 50.759 231.187 51.131 231.104 51.498 231.046 C 51.689 231.015 51.85 230.992 52.061 230.973 L 52.323 230.951 L 52.428 230.942 L 52.588 230.937 C 53.351 230.908 54.191 230.981 55.041 231.266 C 55.889 231.549 56.715 232.076 57.328 232.729 C 57.949 233.379 58.356 234.122 58.638 234.83 C 58.922 235.541 59.07 236.241 59.17 236.911 C 59.514 239.594 59.043 241.965 58.478 244.255 C 57.865 246.532 57.06 248.705 56.135 250.816 Z  M 52.529 256.126 L 52.529 256.127 C 52.535 256.139 52.542 256.147 52.547 256.149 C 52.544 256.139 52.533 256.132 52.529 256.126 Z  M 55.507 240.573 C 55.462 239.54 55.35 238.535 55.128 237.66 C 54.914 236.787 54.549 236.081 54.2 235.789 C 54.031 235.63 53.868 235.553 53.647 235.481 C 53.428 235.412 53.127 235.377 52.768 235.396 C 51.939 235.425 51.262 235.62 50.803 235.929 C 50.34 236.231 49.95 236.742 49.658 237.521 C 49.372 238.287 49.21 239.24 49.146 240.24 C 49.079 241.241 49.096 242.296 49.186 243.361 C 49.341 245.502 49.736 247.69 50.283 249.842 C 50.836 251.974 51.53 254.102 52.504 256.076 C 52.513 256.069 52.521 256.063 52.529 256.055 C 52.598 255.984 52.674 255.881 52.739 255.773 C 52.876 255.555 52.995 255.31 53.106 255.063 C 53.329 254.563 53.519 254.043 53.695 253.519 C 54.046 252.468 54.316 251.383 54.56 250.301 C 55.03 248.13 55.343 245.926 55.466 243.761 C 55.538 242.681 55.556 241.608 55.507 240.573 Z  M 61.878 258.615 C 60.808 259.037 59.718 259.41 58.617 259.747 C 58.068 259.913 57.51 260.068 56.939 260.186 C 56.65 260.243 56.36 260.294 56.054 260.315 C 55.901 260.323 55.742 260.326 55.561 260.295 C 55.468 260.274 55.361 260.254 55.236 260.154 C 55.178 260.099 55.123 260.017 55.109 259.931 C 55.096 259.892 55.1 259.841 55.102 259.795 L 55.109 259.737 L 55.113 259.717 C 55.286 258.578 55.57 257.471 55.88 256.371 C 56.191 255.271 56.526 254.172 56.911 253.087 C 57.668 250.913 58.556 248.764 59.711 246.68 C 60.305 245.649 60.96 244.628 61.756 243.655 C 62.56 242.692 63.496 241.761 64.729 241.015 C 65.345 240.648 66.042 240.323 66.82 240.132 C 67.597 239.939 68.456 239.865 69.291 239.987 C 70.128 240.1 70.923 240.375 71.612 240.748 C 71.957 240.934 72.279 241.139 72.581 241.356 C 72.735 241.47 72.868 241.567 73.028 241.703 L 73.231 241.872 L 73.311 241.941 L 73.429 242.05 C 73.987 242.57 74.53 243.216 74.93 244.018 C 75.329 244.817 75.541 245.773 75.512 246.668 C 75.491 247.567 75.253 248.382 74.953 249.08 C 74.651 249.785 74.26 250.386 73.857 250.929 C 72.202 253.068 70.192 254.413 68.175 255.632 C 66.13 256.81 64.025 257.777 61.878 258.615 Z  M 55.574 259.82 C 55.574 259.82 55.574 259.821 55.573 259.821 C 55.571 259.833 55.568 259.845 55.571 259.85 C 55.576 259.841 55.573 259.826 55.574 259.82 Z  M 68.678 250.928 C 69.377 250.165 70.008 249.376 70.47 248.602 C 70.935 247.832 71.177 247.074 71.136 246.621 C 71.13 246.39 71.068 246.219 70.961 246.012 C 70.856 245.809 70.669 245.572 70.401 245.33 C 69.795 244.764 69.178 244.424 68.636 244.318 C 68.095 244.205 67.457 244.291 66.701 244.634 C 65.957 244.973 65.168 245.532 64.417 246.194 C 63.66 246.855 62.925 247.612 62.236 248.432 C 60.832 250.055 59.565 251.879 58.43 253.788 C 57.314 255.688 56.3 257.683 55.592 259.768 C 55.603 259.77 55.613 259.77 55.626 259.77 C 55.724 259.768 55.849 259.749 55.973 259.72 C 56.224 259.66 56.481 259.572 56.736 259.477 C 57.244 259.281 57.747 259.048 58.244 258.8 C 59.234 258.306 60.192 257.729 61.129 257.136 C 62.997 255.934 64.776 254.597 66.395 253.153 C 67.21 252.44 67.981 251.695 68.678 250.928 Z " fill="rgb(255,255,255)"/><path d=" M 272.342 272.907 L 258.863 267.535 L 258.863 262.521 L 272.297 255.893 L 283.107 261.229 L 283.107 268.615 L 272.342 272.907 Z  M 274.422 250.518 L 272.297 249.469 L 270.195 250.506 L 272.322 251.536 L 274.422 250.518 Z  M 254.984 303.888 L 254.984 267.662 L 252.397 266.648 L 252.397 302.873 L 254.984 303.888 Z  M 267.854 253.7 L 265.787 252.681 L 252.397 259.288 L 252.397 264.959 L 254.984 265.989 L 254.984 259.936 L 267.854 253.7 Z  M 276.764 253.688 L 286.988 258.643 L 286.988 267.07 L 289.574 266.038 L 289.574 257.995 L 278.805 252.681 L 276.764 253.688 Z  M 289.574 303.93 L 289.574 267.705 L 286.988 268.719 L 286.988 304.944 L 289.574 303.93 Z  M 256.125 241.488 L 253.551 242.441 L 265.75 248.354 L 267.912 247.306 L 256.125 241.488 Z  M 288.506 241.47 L 276.705 247.294 L 278.889 248.354 L 291.107 242.433 L 288.506 241.47 Z  M 293.455 302.408 L 305.309 297.76 L 305.309 261.535 L 293.455 266.184 L 293.455 302.408 Z  M 295.943 244.224 L 283.272 250.477 L 293.455 255.41 L 293.455 264.492 L 309.904 257.937 L 309.904 249.393 L 295.943 244.224 Z  M 283.107 270.24 L 272.334 274.467 L 258.863 269.185 L 258.863 305.409 L 272.334 310.691 L 283.107 306.465 L 283.107 270.24 Z  M 272.322 245.17 L 283.66 239.675 L 272.342 235.483 L 260.998 239.685 L 272.322 245.17 Z  M 248.518 265.126 L 239.357 261.535 L 239.357 297.76 L 248.518 301.353 L 248.518 265.126 Z  M 248.518 256.703 L 261.344 250.487 L 248.688 244.242 L 234.779 249.393 L 234.779 257.937 L 248.518 263.411 L 248.518 256.703 Z " fill="rgb(255,255,255)"/><path d=" M 162.268 256.159 L 179.162 264.495 L 179.162 272.066 L 162.659 278.643 L 145.374 271.753 L 145.374 264.495 L 162.268 256.159 Z  M 145.374 273.449 L 145.374 310.206 L 162.65 316.981 L 179.162 310.507 L 179.162 273.749 L 162.65 280.224 L 145.374 273.449 Z  M 155.002 249.992 C 153.588 248.625 152.112 247.401 150.617 246.351 C 149.834 245.789 149.06 245.297 148.312 244.881 C 147.477 244.41 146.728 244.069 146.083 243.865 C 145.667 243.731 145.265 243.657 144.946 243.657 C 144.767 243.657 144.68 243.682 144.657 243.69 C 144.549 243.72 144.502 243.743 144.39 243.838 C 144.343 243.877 144.216 244.003 144.067 244.273 C 143.774 244.783 143.624 245.268 143.637 245.647 C 143.645 246.017 143.821 246.425 144.16 246.863 C 144.533 247.346 145.105 247.867 145.815 248.37 C 146.495 248.858 147.257 249.318 148.083 249.737 C 149.621 250.544 151.386 251.265 153.336 251.882 C 154.925 252.373 156.316 252.711 157.618 252.918 C 157.431 252.66 157.217 252.388 156.961 252.079 C 156.303 251.288 155.568 250.547 155.002 249.992 Z  M 164.314 237.24 C 164.132 236.5 163.856 236.056 163.713 235.938 C 163.631 235.86 163.585 235.833 163.448 235.789 C 163.39 235.771 163.261 235.739 163.041 235.739 C 162.999 235.739 162.955 235.741 162.909 235.744 C 162.318 235.765 161.826 235.892 161.513 236.103 C 161.201 236.305 160.949 236.668 160.755 237.187 C 160.542 237.757 160.4 238.518 160.345 239.389 C 160.289 240.218 160.3 241.108 160.379 242.037 C 160.504 243.77 160.822 245.648 161.325 247.63 C 161.744 249.24 162.19 250.602 162.7 251.816 C 162.819 251.526 162.939 251.201 163.068 250.815 C 163.393 249.844 163.635 248.826 163.81 248.05 C 164.225 246.135 164.488 244.234 164.592 242.407 C 164.657 241.44 164.669 240.523 164.627 239.673 C 164.587 238.716 164.481 237.898 164.314 237.24 Z  M 180.909 243.837 C 180.799 243.743 180.751 243.72 180.681 243.701 C 180.621 243.682 180.533 243.657 180.356 243.657 C 180.036 243.657 179.633 243.731 179.222 243.865 C 178.573 244.069 177.824 244.41 176.991 244.88 C 176.241 245.297 175.467 245.789 174.689 246.348 C 173.189 247.401 171.712 248.625 170.295 249.993 C 169.732 250.547 168.997 251.288 168.339 252.079 C 168.084 252.387 167.87 252.659 167.683 252.918 C 168.984 252.711 170.375 252.373 171.968 251.881 C 173.915 251.265 175.68 250.544 177.21 249.741 C 178.044 249.318 178.806 248.858 179.483 248.371 C 180.196 247.867 180.768 247.346 181.142 246.861 C 181.48 246.425 181.656 246.017 181.664 245.656 C 181.677 245.268 181.526 244.783 181.239 244.282 C 181.085 244.003 180.958 243.877 180.909 243.837 Z  M 183.099 308.964 L 196.111 303.86 L 196.111 267.103 L 183.099 272.206 L 183.099 308.964 Z  M 129.19 303.86 L 141.437 308.663 L 141.437 271.905 L 129.19 267.103 L 129.19 303.86 Z  M 200.774 254.782 L 200.774 263.452 L 183.099 270.496 L 183.099 261.872 L 171.075 256.046 C 170.593 256.081 170.086 256.109 169.531 256.136 C 168.988 256.161 168.442 256.179 167.896 256.179 C 167.314 256.179 166.781 256.159 166.266 256.118 L 166.069 256.096 L 165.989 256.084 C 165.825 256.053 165.606 256.002 165.356 255.875 C 164.984 255.705 164.636 255.39 164.392 254.986 C 164.3 255.068 164.198 255.149 164.083 255.231 C 163.875 255.366 163.475 255.629 162.865 255.691 L 162.651 255.703 C 162.189 255.703 161.747 255.572 161.371 255.324 C 161.162 255.196 161.007 255.036 160.927 254.95 C 160.665 255.383 160.321 255.7 159.905 255.896 C 159.703 255.999 159.49 256.049 159.333 256.079 L 159.076 256.114 C 158.529 256.158 157.998 256.179 157.405 256.179 C 156.859 256.179 156.314 256.161 155.768 256.136 C 154.956 256.099 154.241 256.053 153.567 255.995 L 141.437 261.872 L 141.437 270.185 L 124.544 263.452 L 124.544 254.782 L 138.41 249.647 C 138.264 249.421 138.127 249.192 138.007 248.956 C 137.548 248.067 137.262 247.094 137.181 246.147 C 137.092 245.224 137.178 244.241 137.428 243.322 C 137.536 242.92 137.675 242.516 137.839 242.124 C 137.923 241.925 137.998 241.756 138.106 241.543 L 138.259 241.242 L 138.359 241.061 C 138.869 240.168 139.487 239.419 140.205 238.826 C 141.061 238.113 142.135 237.601 143.228 237.382 C 143.683 237.286 144.176 237.234 144.679 237.234 C 145.15 237.234 145.64 237.28 146.135 237.369 C 147.081 237.536 147.865 237.847 148.373 238.067 C 150.942 239.237 152.71 240.925 154.167 242.417 C 154.485 242.757 154.795 243.11 155.105 243.466 L 155.261 243.408 C 155.233 243.311 155.202 243.213 155.175 243.116 C 154.816 241.783 154.604 240.677 154.499 239.614 C 154.358 238.051 154.44 236.735 154.753 235.461 C 154.983 234.554 155.303 233.771 155.733 233.063 C 156.248 232.204 156.924 231.448 157.685 230.88 C 158.419 230.318 159.297 229.874 160.215 229.6 C 160.61 229.482 161.024 229.388 161.445 229.32 C 161.668 229.285 161.849 229.258 162.084 229.238 L 162.413 229.211 L 162.63 229.201 C 162.752 229.195 162.866 229.193 162.98 229.193 C 163.868 229.193 164.716 229.327 165.501 229.591 C 166.557 229.942 167.56 230.585 168.321 231.398 C 168.966 232.071 169.473 232.881 169.864 233.862 C 170.218 234.746 170.369 235.579 170.451 236.13 C 170.809 238.918 170.311 241.301 169.814 243.317 L 170.194 243.459 C 170.495 243.115 170.797 242.775 171.105 242.447 C 172.585 240.932 174.356 239.238 176.892 238.081 C 177.43 237.85 178.221 237.535 179.168 237.369 C 179.66 237.28 180.15 237.234 180.622 237.234 C 181.123 237.234 181.619 237.286 182.094 237.387 C 183.169 237.603 184.241 238.115 185.099 238.829 C 185.813 239.419 186.43 240.167 186.933 241.046 L 187.067 241.291 L 187.198 241.55 C 187.303 241.756 187.377 241.926 187.461 242.124 C 187.625 242.515 187.765 242.918 187.875 243.326 C 188.123 244.241 188.208 245.226 188.117 246.167 C 188.039 247.095 187.751 248.068 187.288 248.966 C 187.171 249.196 187.037 249.421 186.895 249.643 L 200.774 254.782 Z  M 159.939 253.61 C 159.923 253.388 159.878 253.208 159.829 253.039 C 159.738 252.74 159.623 252.473 159.509 252.224 C 159.261 251.687 158.982 251.191 158.768 250.82 C 158.218 249.873 157.677 249.018 157.117 248.213 C 155.852 246.372 154.583 244.781 153.229 243.335 C 151.855 241.929 150.194 240.339 147.853 239.271 C 147.403 239.077 146.713 238.803 145.905 238.66 C 145.484 238.586 145.073 238.547 144.679 238.547 C 144.268 238.547 143.862 238.589 143.484 238.669 C 142.603 238.845 141.735 239.261 141.041 239.838 C 140.446 240.33 139.931 240.957 139.504 241.701 L 139.427 241.839 L 139.275 242.136 C 139.183 242.318 139.12 242.465 139.049 242.634 C 138.908 242.97 138.788 243.317 138.694 243.666 C 138.484 244.436 138.414 245.257 138.488 246.034 C 138.555 246.813 138.794 247.618 139.177 248.361 C 139.493 248.983 139.914 249.563 140.468 250.138 C 141.283 250.969 142.246 251.649 143.506 252.28 C 144.401 252.72 145.387 253.098 146.616 253.467 C 148.47 253.992 150.426 254.353 152.771 254.6 C 153.68 254.699 154.652 254.771 155.829 254.824 C 156.354 254.85 156.879 254.865 157.405 254.865 C 157.954 254.865 158.453 254.848 158.97 254.806 L 159.084 254.791 C 159.141 254.781 159.241 254.761 159.35 254.706 C 159.528 254.622 159.685 254.477 159.82 254.244 C 159.942 253.989 159.941 253.779 159.939 253.61 Z  M 166.436 248.911 C 167.335 246.86 168.02 244.941 168.532 243.036 C 169.004 241.126 169.48 238.876 169.154 236.324 C 169.081 235.839 168.951 235.107 168.646 234.348 C 168.319 233.526 167.897 232.855 167.363 232.295 C 166.75 231.639 165.938 231.12 165.083 230.834 C 164.433 230.616 163.726 230.505 162.98 230.505 C 162.883 230.505 162.788 230.508 162.69 230.511 L 162.522 230.52 L 162.196 230.546 C 161.994 230.562 161.839 230.585 161.654 230.616 C 161.293 230.673 160.935 230.754 160.591 230.857 C 159.823 231.087 159.087 231.46 158.47 231.932 C 157.844 232.398 157.286 233.026 156.855 233.741 C 156.494 234.339 156.223 235.002 156.027 235.774 C 155.749 236.902 155.678 238.08 155.805 239.486 C 155.902 240.478 156.102 241.512 156.436 242.755 C 156.967 244.607 157.692 246.46 158.717 248.581 C 159.109 249.403 159.56 250.269 160.138 251.302 C 160.584 252.101 161.13 253.039 161.803 253.953 L 161.873 254.039 C 161.913 254.084 161.985 254.163 162.092 254.229 C 162.252 254.333 162.447 254.391 162.651 254.391 L 162.73 254.388 C 163.022 254.356 163.203 254.238 163.329 254.157 C 163.519 254.023 163.65 253.885 163.762 253.759 C 163.973 253.519 164.143 253.274 164.289 253.057 C 164.546 252.668 164.793 252.243 165.091 251.687 C 165.601 250.729 166.041 249.821 166.436 248.911 Z  M 186.607 243.667 C 186.513 243.317 186.393 242.97 186.252 242.634 C 186.18 242.465 186.118 242.318 186.025 242.139 L 185.917 241.922 L 185.794 241.697 C 185.371 240.957 184.854 240.33 184.26 239.838 C 183.566 239.261 182.698 238.845 181.824 238.67 C 181.439 238.589 181.033 238.547 180.622 238.547 C 180.228 238.547 179.815 238.586 179.397 238.66 C 178.588 238.803 177.898 239.077 177.436 239.276 C 175.106 240.339 173.446 241.929 172.063 243.346 C 170.718 244.781 169.449 246.372 168.186 248.21 C 167.625 249.018 167.084 249.873 166.532 250.82 C 166.318 251.191 166.039 251.687 165.791 252.227 C 165.677 252.473 165.563 252.74 165.469 253.048 C 165.422 253.208 165.377 253.388 165.36 253.666 C 165.359 253.779 165.358 253.989 165.51 254.3 C 165.619 254.482 165.773 254.623 165.951 254.706 C 166.061 254.761 166.161 254.781 166.228 254.792 L 166.369 254.81 C 166.848 254.848 167.348 254.865 167.896 254.865 C 168.421 254.865 168.947 254.85 169.471 254.824 C 170.648 254.771 171.621 254.699 172.527 254.6 C 174.875 254.353 176.831 253.992 178.695 253.464 C 179.915 253.098 180.899 252.72 181.799 252.278 C 183.054 251.649 184.018 250.969 184.835 250.134 C 185.388 249.563 185.808 248.983 186.121 248.366 C 186.507 247.618 186.746 246.813 186.811 246.043 C 186.886 245.257 186.816 244.436 186.607 243.667 Z " fill="rgb(255,255,255)"/><path d=" M 295.48 133.965 C 295.532 134.173 295.544 134.332 295.508 134.567 C 295.447 135.039 294.955 135.771 294.245 136.462 C 292.793 137.863 290.669 139.052 288.484 140.017 C 286.275 140.981 283.914 141.744 281.491 142.278 C 280.28 142.554 279.052 142.77 277.815 142.922 L 276.883 143.032 L 276.136 143.109 C 276.056 143.115 275.949 143.081 275.899 143.028 C 275.852 142.973 275.865 142.931 275.879 142.881 L 275.88 142.875 C 276.439 140.627 277.81 138.553 279.393 136.77 C 280.996 134.991 282.883 133.468 284.875 132.36 C 286.855 131.25 288.99 130.581 290.757 130.72 C 291.641 130.781 292.42 131.025 293.146 131.451 C 293.519 131.677 293.83 131.898 294.222 132.257 C 294.541 132.551 294.873 132.896 295.081 133.191 C 295.296 133.496 295.421 133.761 295.48 133.965 L 294.264 134.31 C 294.262 134.305 294.222 134.168 294.048 133.92 C 293.919 133.737 293.664 133.462 293.365 133.186 C 293.032 132.882 292.782 132.71 292.491 132.534 C 291.942 132.21 291.343 132.028 290.672 131.981 C 290.534 131.971 290.411 131.966 290.284 131.966 C 289.129 131.966 287.737 132.349 286.298 133.045 L 293.281 135.631 C 293.309 135.605 293.342 135.579 293.369 135.552 C 293.956 134.979 294.224 134.513 294.26 134.377 L 295.48 133.965 Z  M 240.297 188.844 L 271.367 201.028 L 271.367 166.614 L 240.297 154.43 L 240.297 188.844 Z  M 273.727 201.022 L 304.779 188.844 L 304.779 154.43 L 273.727 166.607 L 273.727 201.022 Z  M 270.464 142.881 C 270.478 142.931 270.49 142.973 270.443 143.028 C 270.393 143.081 270.285 143.115 270.205 143.109 L 269.458 143.032 L 268.528 142.922 C 267.289 142.77 266.061 142.554 264.851 142.278 C 262.428 141.744 260.065 140.981 257.856 140.017 C 255.671 139.052 253.548 137.863 252.095 136.462 C 251.386 135.771 250.894 135.039 250.833 134.567 C 250.797 134.332 250.809 134.173 250.861 133.965 C 250.92 133.761 251.047 133.496 251.26 133.191 C 251.468 132.896 251.802 132.551 252.118 132.257 C 252.511 131.898 252.824 131.677 253.196 131.451 C 253.921 131.025 254.7 130.781 255.583 130.72 C 257.352 130.581 259.487 131.25 261.465 132.36 C 263.458 133.468 265.346 134.991 266.948 136.77 C 268.53 138.553 269.902 140.627 270.461 142.875 L 270.464 142.881 Z  M 259.487 132.79 C 258.246 132.254 257.063 131.966 256.058 131.966 C 255.931 131.966 255.807 131.971 255.684 131.98 C 254.999 132.028 254.399 132.21 253.838 132.541 C 253.559 132.71 253.311 132.882 252.973 133.19 C 252.678 133.462 252.424 133.737 252.297 133.916 C 252.119 134.168 252.079 134.305 252.076 134.31 L 252.088 134.406 C 252.114 134.495 252.318 134.843 252.729 135.292 L 259.487 132.79 Z  M 309.273 141.553 L 309.273 149.907 L 272.547 164.544 L 235.821 149.907 L 235.821 141.553 L 245.317 138.037 C 245.007 137.482 244.754 136.912 244.578 136.329 C 244.206 135.142 244.152 133.742 244.432 132.505 C 244.664 131.427 245.134 130.373 245.822 129.385 C 246.376 128.598 246.981 127.926 247.724 127.269 C 248.137 126.902 248.981 126.203 249.975 125.67 C 251.568 124.783 253.481 124.289 255.341 124.289 L 255.515 124.29 C 257.169 124.306 258.883 124.687 260.604 125.422 C 261.921 125.973 263.237 126.761 264.62 127.829 C 265.458 128.489 266.259 129.215 267.022 130 L 272.547 127.954 L 279 130.343 C 279.856 129.428 280.76 128.587 281.713 127.837 C 283.106 126.761 284.422 125.973 285.746 125.418 C 287.458 124.687 289.174 124.306 290.836 124.29 L 291 124.289 C 292.862 124.289 294.773 124.783 296.384 125.679 C 297.361 126.203 298.206 126.902 298.62 127.272 C 299.361 127.926 299.964 128.598 300.518 129.38 C 301.208 130.373 301.677 131.427 301.913 132.519 C 302.19 133.742 302.135 135.142 301.76 136.343 C 301.546 137.052 301.22 137.746 300.8 138.416 L 309.273 141.553 Z  M 272.356 142.561 L 272.355 142.544 C 272.203 141.153 271.778 139.818 271.248 138.568 C 270.719 137.31 270.078 136.11 269.341 134.97 C 267.871 132.686 266.076 130.585 263.847 128.83 C 262.728 127.965 261.501 127.169 260.107 126.584 C 258.723 125.994 257.167 125.571 255.494 125.555 C 253.828 125.527 252.068 125.952 250.572 126.784 C 249.833 127.181 249.115 127.723 248.561 128.216 C 247.931 128.773 247.384 129.363 246.858 130.109 C 246.344 130.846 245.89 131.744 245.665 132.785 C 245.431 133.82 245.479 134.974 245.789 135.966 C 246.088 136.964 246.587 137.797 247.127 138.487 C 247.671 139.178 248.266 139.743 248.883 140.219 C 250.119 141.169 251.388 141.867 252.684 142.413 C 253.978 142.96 255.278 143.392 256.589 143.727 C 259.208 144.407 261.84 144.765 264.46 144.966 C 265.772 145.057 267.08 145.105 268.386 145.117 L 269.364 145.11 L 269.854 145.101 L 270.15 145.092 L 270.278 145.081 C 270.361 145.072 270.444 145.061 270.525 145.045 C 271.072 144.931 271.558 144.633 271.904 144.187 C 272.25 143.748 272.442 143.133 272.356 142.561 Z  M 300.552 135.966 C 300.862 134.974 300.912 133.82 300.676 132.785 C 300.451 131.744 299.997 130.846 299.482 130.109 C 298.957 129.363 298.41 128.773 297.78 128.216 C 297.226 127.723 296.508 127.181 295.769 126.784 C 294.273 125.952 292.512 125.527 290.847 125.555 C 289.174 125.571 287.62 125.994 286.235 126.584 C 284.842 127.169 283.615 127.965 282.494 128.83 C 280.267 130.585 278.47 132.686 277.001 134.97 C 276.264 136.11 275.621 137.31 275.093 138.568 C 274.562 139.818 274.139 141.153 273.986 142.544 L 273.985 142.561 C 273.9 143.133 274.092 143.748 274.438 144.187 C 274.783 144.633 275.268 144.931 275.815 145.045 C 275.897 145.061 275.979 145.072 276.063 145.081 L 276.191 145.092 L 276.486 145.101 L 276.976 145.11 L 277.955 145.117 C 279.26 145.105 280.568 145.057 281.88 144.966 C 284.501 144.765 287.135 144.407 289.752 143.727 C 291.064 143.392 292.363 142.96 293.657 142.413 C 294.953 141.867 296.223 141.169 297.457 140.219 C 298.077 139.743 298.672 139.178 299.215 138.487 C 299.755 137.797 300.252 136.964 300.552 135.966 Z " fill="rgb(255,255,255)"/><path d=" M 50.683 168.586 L 53.776 168.586 L 53.776 150.448 C 52.744 150.437 51.712 150.431 50.683 150.435 L 50.683 168.586 Z " fill="rgb(255,255,255)"/><path d=" M 51.431 146.2 C 49.567 134.875 31.497 117.161 19.886 127.059 C 7.912 137.268 27.819 147.648 49.443 148.299 C 50.625 148.335 51.623 147.366 51.431 146.2 Z  M 29.863 140.421 C 26.353 140.421 23.509 137.577 23.509 134.068 C 23.509 130.558 26.353 127.714 29.863 127.714 C 33.372 127.714 36.216 130.558 36.216 134.068 C 36.216 137.577 33.372 140.421 29.863 140.421 Z  M 37.962 145.11 C 36.222 145.11 34.812 143.7 34.812 141.959 C 34.812 140.219 36.222 138.809 37.962 138.809 C 39.703 138.809 41.113 140.219 41.113 141.959 C 41.113 143.7 39.703 145.11 37.962 145.11 Z  M 45.032 142.418 C 43.751 142.418 42.711 141.378 42.711 140.098 C 42.711 138.816 43.751 137.777 45.032 137.777 C 46.314 137.777 47.352 138.816 47.352 140.098 C 47.352 141.378 46.314 142.418 45.032 142.418 Z " fill="rgb(255,255,255)"/><path d=" M 19.12 154.91 L 19.12 166.863 C 19.12 167.815 19.892 168.586 20.843 168.586 L 47.589 168.586 L 47.589 150.468 C 38.519 150.652 29.595 151.462 20.818 152.9 C 19.879 153.055 19.12 153.959 19.12 154.91 Z " fill="rgb(255,255,255)"/><path d=" M 24.097 171.955 L 24.097 199.435 C 24.097 200.386 24.867 201.157 25.819 201.157 L 47.589 201.157 L 47.589 170.233 L 25.819 170.233 C 24.867 170.233 24.097 171.004 24.097 171.955 Z " fill="rgb(255,255,255)"/><path d=" M 50.683 201.157 L 53.776 201.157 L 53.776 170.233 L 50.683 170.233 L 50.683 201.157 Z " fill="rgb(255,255,255)"/><path d=" M 84.573 127.059 C 72.963 117.161 54.892 134.875 53.029 146.2 C 52.837 147.366 53.835 148.335 55.017 148.299 C 76.641 147.648 96.549 137.268 84.573 127.059 Z  M 58.732 144.595 C 57.704 144.595 56.87 143.761 56.87 142.732 C 56.87 141.704 57.704 140.871 58.732 140.871 C 59.76 140.871 60.594 141.704 60.594 142.732 C 60.594 143.761 59.76 144.595 58.732 144.595 Z  M 65.203 143.057 C 63.318 143.057 61.79 141.528 61.79 139.644 C 61.79 137.758 63.318 136.23 65.203 136.23 C 67.088 136.23 68.617 137.758 68.617 139.644 C 68.617 141.528 67.088 143.057 65.203 143.057 Z  M 75.451 140.421 C 71.942 140.421 69.098 137.577 69.098 134.068 C 69.098 130.558 71.942 127.714 75.451 127.714 C 78.96 127.714 81.805 130.558 81.805 134.068 C 81.805 137.577 78.96 140.421 75.451 140.421 Z " fill="rgb(255,255,255)"/><path d=" M 78.641 170.233 L 56.87 170.233 L 56.87 201.157 L 78.641 201.157 C 79.593 201.157 80.363 200.386 80.363 199.435 L 80.363 171.955 C 80.363 171.004 79.593 170.233 78.641 170.233 Z " fill="rgb(255,255,255)"/><path d=" M 83.638 152.92 C 74.579 151.536 65.659 150.736 56.87 150.505 L 56.87 168.586 L 83.617 168.586 C 84.568 168.586 85.339 167.815 85.339 166.863 L 85.339 154.91 C 85.339 153.959 84.578 153.064 83.638 152.92 Z " fill="rgb(255,255,255)"/><path d=" M 382.77 272.097 C 390.961 272.097 398.449 271.067 404.219 269.368 L 387.713 264.343 C 386.148 264.318 384.746 263.944 383.607 263.235 C 383.498 263.242 383.168 263.248 383.168 263.248 C 382.941 263.248 382.713 263.235 382.482 263.209 C 381.297 263.96 379.828 264.353 378.172 264.353 C 378.055 264.353 377.94 264.348 377.822 264.344 L 361.32 269.368 C 367.09 271.067 374.578 272.097 382.77 272.097 Z " fill="rgb(255,255,255)"/><path d=" M 349.783 262.921 L 349.77 262.921 L 349.77 304.571 C 349.77 307.063 352.109 309.365 356.066 311.237 L 356.066 269.408 C 352.209 267.58 349.889 265.344 349.783 262.921 Z " fill="rgb(255,255,255)"/><path d=" M 393.463 250.01 C 393.092 252.16 392.486 254.222 391.604 256.147 C 391.16 257.1 390.707 257.933 390.219 258.678 C 390.522 258.547 390.834 258.397 391.156 258.227 C 393.109 257.151 395.018 255.58 396.959 253.44 L 396.959 253.44 C 397.695 252.624 398.344 251.751 398.924 250.852 C 397.193 250.517 395.367 250.234 393.463 250.01 Z " fill="rgb(255,255,255)"/><path d=" M 374.916 258.242 C 375.422 258.51 375.906 258.727 376.369 258.896 C 375.82 258.072 375.326 257.154 374.879 256.127 C 374.035 254.193 373.443 252.101 373.072 249.897 C 370.973 250.118 368.961 250.409 367.063 250.764 C 367.654 251.694 368.324 252.597 369.086 253.44 C 371.031 255.583 372.938 257.153 374.916 258.242 Z " fill="rgb(255,255,255)"/><path d=" M 415.77 260.747 C 415.77 257.666 412.193 254.873 406.398 252.828 C 405.139 254.642 403.594 256.385 401.703 258.116 C 399.705 259.932 397.535 261.372 395.232 262.451 L 408.057 266.356 C 408.635 266.531 409.072 266.963 409.299 267.497 C 413.363 265.61 415.77 263.275 415.77 260.747 Z " fill="rgb(255,255,255)"/><path d=" M 409.473 269.408 L 409.473 311.237 C 413.43 309.365 415.77 307.063 415.77 304.571 L 415.77 262.921 L 415.758 262.921 C 415.65 265.344 413.332 267.58 409.473 269.408 Z " fill="rgb(255,255,255)"/><path d=" M 360.066 270.978 L 360.066 312.804 C 365.982 314.734 373.971 315.921 382.77 315.921 C 391.568 315.921 399.557 314.734 405.473 312.804 L 405.473 270.978 C 399.559 272.909 391.57 274.097 382.77 274.097 C 373.969 274.097 365.981 272.909 360.066 270.978 Z " fill="rgb(255,255,255)"/><path d=" M 364.375 258.147 C 362.406 256.345 360.818 254.545 359.543 252.687 C 353.51 254.743 349.77 257.595 349.77 260.747 C 349.77 263.275 352.176 265.61 356.242 267.497 C 356.469 266.963 356.904 266.531 357.484 266.356 L 370.602 262.361 C 368.383 261.295 366.293 259.889 364.375 258.147 Z " fill="rgb(255,255,255)"/><path d=" M 407.428 241.863 C 407.166 240.87 406.623 239.841 405.816 239.037 L 405.535 238.787 C 405.492 238.747 405.35 238.634 405.213 238.533 C 404.932 238.316 404.699 238.19 404.459 238.054 C 403.975 237.806 403.469 237.605 402.975 237.489 C 401.977 237.236 401.027 237.229 400.137 237.305 C 398.354 237.484 396.811 238.086 395.379 238.779 C 394.031 239.476 392.803 240.305 391.662 241.219 C 391.502 239.958 391.254 238.694 390.875 237.438 C 390.385 235.917 389.717 234.391 388.574 232.992 C 387.988 232.309 387.309 231.63 386.406 231.114 C 385.52 230.596 384.408 230.253 383.27 230.254 L 382.895 230.276 C 382.836 230.278 382.652 230.3 382.486 230.325 C 382.135 230.371 381.881 230.444 381.615 230.519 C 381.096 230.687 380.598 230.9 380.166 231.17 C 379.281 231.696 378.604 232.362 378.027 233.046 C 376.895 234.434 376.229 235.95 375.707 237.453 C 375.27 238.824 374.99 240.206 374.826 241.586 C 373.561 240.526 372.19 239.567 370.666 238.779 C 369.234 238.086 367.691 237.484 365.908 237.305 C 365.018 237.229 364.066 237.236 363.07 237.489 C 362.574 237.605 362.07 237.806 361.584 238.054 C 361.344 238.19 361.113 238.316 360.83 238.533 C 360.695 238.634 360.551 238.747 360.51 238.787 L 360.227 239.037 C 359.422 239.841 358.877 240.87 358.617 241.863 C 358.344 242.866 358.344 243.827 358.412 244.725 C 358.594 246.522 359.199 248.072 359.928 249.493 C 361.438 252.304 363.496 254.63 365.691 256.642 L 365.719 256.666 C 367.945 258.687 370.527 260.318 373.342 261.363 C 374.75 261.879 376.221 262.272 377.75 262.342 C 379.186 262.412 380.813 262.143 381.994 261.079 C 382.402 261.194 382.828 261.259 383.27 261.247 C 383.565 261.245 383.85 261.203 384.127 261.145 C 385.301 262.151 386.889 262.411 388.295 262.342 C 389.824 262.272 391.293 261.879 392.703 261.363 C 395.522 260.316 398.109 258.681 400.34 256.654 L 400.352 256.642 C 402.549 254.63 404.606 252.304 406.115 249.493 C 406.844 248.072 407.451 246.522 407.631 244.725 C 407.701 243.827 407.699 242.866 407.428 241.863 Z  M 388.383 254.779 C 387.979 256.094 387.41 257.379 386.557 258.431 C 385.986 259.147 385.248 259.735 384.436 260.034 C 383.832 259.273 383.6 258.265 383.617 257.238 C 383.619 257.177 383.621 257.116 383.623 257.056 C 383.629 256.917 383.637 256.779 383.65 256.642 C 383.791 255.31 384.293 254.007 384.9 252.781 C 385.992 250.701 387.506 248.862 389.199 247.24 C 389.277 249.765 389.094 252.331 388.383 254.779 Z  M 379.205 238.79 C 379.721 237.617 380.387 236.531 381.137 235.735 C 381.887 234.916 382.691 234.531 383.27 234.588 C 383.846 234.584 384.594 234.987 385.342 235.789 C 386.082 236.574 386.746 237.65 387.293 238.806 C 388.023 240.353 388.535 242.06 388.852 243.835 C 388.637 244.063 388.408 244.281 388.201 244.514 C 386.201 246.773 384.549 249.329 383.451 252.133 C 383.291 252.535 383.15 252.946 383.022 253.362 C 382.893 252.946 382.752 252.535 382.594 252.133 C 381.494 249.329 379.842 246.773 377.844 244.514 C 377.772 244.434 377.691 244.36 377.619 244.28 C 377.926 242.351 378.447 240.481 379.205 238.79 Z  M 380.045 258.377 C 379.201 257.336 378.635 256.06 378.197 254.764 C 377.488 252.479 377.244 250.062 377.305 247.676 C 378.813 249.19 380.15 250.889 381.145 252.781 C 381.752 254.007 382.252 255.31 382.393 256.642 C 382.408 256.779 382.416 256.917 382.422 257.056 C 382.422 257.116 382.424 257.177 382.428 257.238 C 382.443 258.175 382.254 259.098 381.762 259.831 C 381.111 259.49 380.527 258.974 380.045 258.377 Z  M 377.826 261.285 C 376.481 261.144 375.168 260.638 373.953 259.994 C 371.533 258.663 369.441 256.808 367.607 254.786 L 367.602 254.78 C 365.742 252.723 364.301 250.364 363.43 247.929 C 363 246.725 362.707 245.495 362.676 244.416 C 362.637 243.321 362.881 242.506 363.291 242.102 C 363.66 241.652 364.502 241.356 365.611 241.405 C 366.705 241.437 367.943 241.733 369.137 242.199 C 371.053 242.929 372.92 244.018 374.641 245.336 C 374.648 245.753 374.662 246.169 374.686 246.584 C 374.871 249.594 375.508 252.57 376.715 255.33 C 377.313 256.709 378.078 258.035 379.119 259.177 C 379.623 259.739 380.24 260.267 380.941 260.648 C 380.078 261.231 378.932 261.408 377.826 261.285 Z  M 402.615 247.929 C 401.742 250.364 400.303 252.723 398.441 254.78 L 398.455 254.768 C 396.615 256.797 394.518 258.659 392.092 259.994 C 390.875 260.638 389.565 261.144 388.217 261.285 C 387.178 261.401 386.102 261.251 385.26 260.75 C 386.072 260.351 386.783 259.758 387.357 259.124 C 388.391 257.992 389.152 256.676 389.785 255.315 C 391.037 252.581 391.709 249.595 391.854 246.584 L 391.854 246.566 C 391.877 246.039 391.885 245.507 391.885 244.972 C 393.471 243.818 395.17 242.86 396.908 242.199 C 398.102 241.733 399.34 241.437 400.432 241.405 C 401.543 241.356 402.383 241.652 402.752 242.102 C 403.162 242.506 403.406 243.321 403.367 244.416 C 403.336 245.495 403.045 246.725 402.615 247.929 Z " fill="rgb(255,255,255)"/><path d=" M 52.23 67.366 C 61.304 67.366 69.045 66.226 75.436 64.343 L 57.706 58.776 C 55.973 58.75 54.419 58.335 53.157 57.55 C 53.037 57.557 52.67 57.564 52.67 57.564 C 52.419 57.564 52.166 57.55 51.912 57.521 C 50.599 58.352 46.878 58.782 46.749 58.777 L 29.023 64.343 C 35.415 66.226 43.156 67.366 52.23 67.366 Z " fill="rgb(255,255,255)"/><path d=" M 15.689 57.201 L 15.675 57.201 L 15.675 75.646 C 15.675 78.405 19.374 81.51 23.758 83.584 L 22.649 64.388 C 18.376 62.362 15.807 59.885 15.689 57.201 Z " fill="rgb(255,255,255)"/><path d=" M 88.785 54.794 C 88.785 51.38 84.823 48.287 78.404 46.021 C 77.008 48.03 75.296 49.961 73.202 51.879 C 70.99 53.89 68.586 55.486 66.035 56.681 L 80.24 61.006 C 80.882 61.201 81.365 61.679 81.616 62.271 C 86.119 60.181 88.785 57.594 88.785 54.794 Z " fill="rgb(255,255,255)"/><path d=" M 81.81 64.388 L 80.702 83.584 C 85.085 81.51 88.785 78.405 88.785 75.646 L 88.785 57.201 L 88.771 57.201 C 88.653 59.885 86.084 62.362 81.81 64.388 Z " fill="rgb(255,255,255)"/><path d=" M 28.188 66.68 L 27.081 84.765 C 33.634 86.903 42.483 88.218 52.23 88.218 C 61.977 88.218 70.825 86.903 77.379 84.765 L 76.271 66.68 C 69.72 68.819 61.979 69.581 52.23 69.581 C 42.481 69.581 34.739 68.819 28.188 66.68 Z " fill="rgb(255,255,255)"/><path d=" M 31.853 51.914 C 29.673 49.917 27.914 47.923 26.501 45.864 C 19.816 48.143 15.675 51.301 15.675 54.794 C 15.675 57.594 18.34 60.181 22.844 62.271 C 23.095 61.679 23.578 61.201 24.22 61.006 L 38.751 56.582 C 36.292 55.4 33.979 53.842 31.853 51.914 Z " fill="rgb(255,255,255)"/><path d=" M 68.962 38.537 C 68.966 38.542 68.966 38.542 68.97 38.544 C 68.97 38.544 68.969 38.544 68.969 38.543 L 68.956 38.53 C 68.959 38.533 68.958 38.535 68.962 38.537 Z " fill="rgb(255,255,255)"/><path d=" M 68.943 38.512 C 68.94 38.509 68.936 38.502 68.934 38.5 L 68.933 38.5 C 68.934 38.502 68.938 38.506 68.94 38.51 C 68.942 38.511 68.942 38.511 68.943 38.512 Z " fill="rgb(255,255,255)"/><path d=" M 69.073 38.643 L 69.074 38.644 L 69.073 38.643 C 69.072 38.642 69.074 38.644 69.073 38.643 Z " fill="rgb(255,255,255)"/><path d=" M 68.924 38.499 L 68.923 38.498 L 68.925 38.5 L 68.956 38.53 C 68.946 38.523 68.945 38.518 68.94 38.51 C 68.933 38.504 68.934 38.506 68.924 38.499 Z " fill="rgb(255,255,255)"/><path d=" M 75.611 36.749 C 75.371 35.683 74.773 34.528 73.873 33.631 L 73.705 33.476 L 73.662 33.438 L 73.575 33.365 L 73.457 33.267 L 73.224 33.084 C 72.882 32.82 72.63 32.681 72.364 32.531 C 71.831 32.253 71.276 32.037 70.75 31.911 C 69.679 31.64 68.707 31.659 67.824 31.744 C 66.256 31.929 64.962 32.423 63.787 33.017 C 63.811 31.822 63.755 30.61 63.601 29.383 C 63.602 28.46 63.561 27.516 63.453 26.545 C 63.185 24.608 62.704 22.538 61.304 20.512 C 60.599 19.504 59.681 18.492 58.35 17.659 C 57.048 16.827 55.273 16.223 53.443 16.242 L 53.142 16.252 L 53.105 16.253 L 53.03 16.26 L 52.881 16.272 L 52.783 16.281 L 52.687 16.272 L 52.537 16.26 L 52.462 16.253 L 52.426 16.252 L 52.124 16.242 C 50.293 16.223 48.52 16.827 47.218 17.659 C 45.887 18.492 44.969 19.504 44.264 20.512 C 42.862 22.538 42.383 24.608 42.114 26.545 C 42.007 27.516 41.966 28.46 41.967 29.383 C 41.813 30.61 41.756 31.822 41.78 33.017 C 40.606 32.423 39.312 31.929 37.743 31.744 C 36.86 31.659 35.889 31.64 34.817 31.911 C 34.291 32.037 33.735 32.253 33.202 32.531 C 32.938 32.681 32.685 32.82 32.344 33.084 L 32.11 33.267 L 31.992 33.365 L 31.905 33.438 L 31.862 33.476 L 31.694 33.631 C 30.793 34.528 30.196 35.683 29.956 36.749 C 29.696 37.824 29.725 38.799 29.856 39.674 C 30.13 41.427 30.877 42.785 31.683 43.981 C 33.37 46.324 35.415 48.043 37.344 49.653 L 37.356 49.665 C 39.331 51.28 41.547 52.558 43.896 53.421 C 45.069 53.85 46.285 54.187 47.556 54.273 C 48.726 54.357 50.066 54.183 51.092 53.346 C 51.435 53.439 51.798 53.505 52.124 53.527 C 52.346 53.544 52.566 53.54 52.783 53.525 C 53.001 53.54 53.222 53.544 53.443 53.527 C 53.77 53.505 54.133 53.439 54.476 53.346 C 55.501 54.183 56.842 54.357 58.012 54.273 C 59.282 54.187 60.498 53.85 61.672 53.421 C 64.019 52.558 66.236 51.28 68.212 49.665 L 68.224 49.653 C 70.152 48.043 72.197 46.324 73.885 43.981 C 74.69 42.785 75.437 41.427 75.712 39.674 C 75.843 38.799 75.871 37.824 75.611 36.749 Z  M 51.172 51.386 C 50.765 51.03 50.406 50.607 50.101 50.149 C 49.298 48.953 48.802 47.531 48.499 46.088 C 48.379 45.475 48.298 44.855 48.239 44.233 C 48.888 44.936 49.492 45.681 50 46.493 C 50.582 47.45 51.049 48.494 51.231 49.567 C 51.34 50.182 51.322 50.81 51.172 51.386 Z  M 52.133 52.034 C 52.525 51.231 52.673 50.31 52.675 49.463 C 52.68 48.127 52.392 46.839 52.004 45.598 C 51.217 43.153 49.96 40.875 48.403 38.785 C 48.478 38.281 48.56 37.779 48.661 37.284 C 49.216 34.437 50.23 31.741 51.416 29.596 C 51.856 29.059 52.314 28.699 52.783 28.475 C 53.254 28.699 53.712 29.059 54.151 29.596 C 55.338 31.741 56.352 34.437 56.906 37.284 C 57.008 37.779 57.09 38.281 57.164 38.785 C 55.607 40.875 54.35 43.153 53.564 45.598 C 53.175 46.839 52.888 48.127 52.893 49.463 C 52.894 50.31 53.042 51.231 53.435 52.034 C 53.226 52.139 53.009 52.225 52.783 52.29 C 52.559 52.225 52.341 52.139 52.133 52.034 Z  M 54.337 49.567 C 54.519 48.494 54.985 47.45 55.567 46.493 C 56.076 45.681 56.679 44.936 57.328 44.233 C 57.269 44.855 57.189 45.475 57.068 46.088 C 56.766 47.531 56.27 48.953 55.467 50.149 C 55.161 50.607 54.802 51.03 54.396 51.386 C 54.245 50.81 54.228 50.182 54.337 49.567 Z  M 47.61 53.498 C 46.471 53.407 45.356 52.993 44.329 52.451 C 42.283 51.318 40.572 49.665 39.138 47.881 L 39.15 47.893 C 37.68 46.094 36.792 43.885 36.483 41.833 C 36.319 40.831 36.313 39.857 36.409 39.2 C 36.463 38.88 36.534 38.635 36.597 38.544 C 36.545 38.594 36.512 38.627 36.494 38.643 C 36.498 38.64 36.501 38.637 36.49 38.648 L 36.493 38.644 C 36.456 38.68 36.481 38.655 36.494 38.643 L 36.501 38.637 L 36.521 38.617 L 36.562 38.578 L 36.599 38.543 L 36.6 38.54 C 36.615 38.513 36.616 38.52 36.624 38.512 C 36.551 38.562 36.545 38.562 36.54 38.558 C 36.54 38.558 36.54 38.528 36.601 38.511 C 36.606 38.508 36.626 38.503 36.634 38.5 C 36.639 38.499 36.64 38.493 36.635 38.5 C 36.639 38.499 36.644 38.497 36.647 38.496 C 36.665 38.48 36.725 38.42 36.696 38.452 L 36.647 38.496 C 36.757 38.447 36.976 38.394 37.263 38.389 C 37.91 38.357 38.815 38.522 39.729 38.799 C 40.717 39.111 41.741 39.548 42.756 40.08 C 43.287 42.193 44.034 44.224 44.981 46.153 C 45.076 46.375 45.155 46.604 45.252 46.823 C 45.921 48.311 46.707 49.756 47.771 51.023 C 48.299 51.659 48.912 52.242 49.64 52.698 C 49.781 52.795 49.936 52.875 50.089 52.954 C 49.403 53.405 48.499 53.576 47.61 53.498 Z  M 69.084 41.833 C 68.775 43.885 67.888 46.094 66.417 47.893 L 66.429 47.881 C 64.994 49.665 63.284 51.318 61.237 52.451 C 60.211 52.993 59.097 53.407 57.957 53.498 C 57.068 53.576 56.164 53.405 55.479 52.954 C 55.632 52.875 55.785 52.795 55.927 52.698 C 56.655 52.242 57.269 51.659 57.797 51.023 C 58.86 49.756 59.647 48.311 60.314 46.823 C 60.412 46.604 60.491 46.375 60.584 46.153 C 61.533 44.225 62.28 42.193 62.811 40.08 C 63.826 39.548 64.851 39.111 65.839 38.799 C 66.751 38.522 67.657 38.357 68.305 38.389 C 68.592 38.394 68.81 38.447 68.92 38.496 L 68.87 38.452 C 68.843 38.42 68.902 38.48 68.92 38.496 C 68.924 38.497 68.929 38.499 68.933 38.5 C 68.928 38.493 68.929 38.499 68.934 38.5 C 68.94 38.503 68.96 38.508 68.967 38.511 C 69.027 38.528 69.027 38.558 69.027 38.558 C 69.023 38.562 69.017 38.562 68.943 38.512 C 68.95 38.52 68.952 38.513 68.968 38.54 L 68.969 38.543 L 69.006 38.578 L 69.047 38.617 L 69.066 38.637 L 69.073 38.643 C 69.086 38.655 69.11 38.68 69.074 38.644 L 69.077 38.648 C 69.066 38.637 69.069 38.64 69.073 38.643 C 69.056 38.627 69.023 38.594 68.97 38.544 C 69.033 38.635 69.105 38.88 69.158 39.2 C 69.255 39.857 69.248 40.831 69.084 41.833 Z " fill="rgb(255,255,255)"/><path d=" M 68.92 38.496 L 68.92 38.496 L 68.923 38.498 C 68.923 38.498 68.922 38.497 68.92 38.496 Z " fill="rgb(255,255,255)"/><path d=" M 36.647 38.496 L 36.647 38.496 C 36.646 38.497 36.645 38.498 36.645 38.498 L 36.647 38.496 Z " fill="rgb(255,255,255)"/><path d=" M 36.494 38.643 L 36.493 38.644 L 36.494 38.643 C 36.493 38.644 36.495 38.642 36.494 38.643 Z " fill="rgb(255,255,255)"/><path d=" M 36.627 38.51 C 36.622 38.518 36.621 38.523 36.611 38.53 L 36.643 38.5 L 36.645 38.498 L 36.644 38.499 C 36.634 38.506 36.635 38.504 36.627 38.51 Z " fill="rgb(255,255,255)"/><path d=" M 36.635 38.5 L 36.634 38.5 C 36.632 38.502 36.627 38.509 36.624 38.512 C 36.625 38.511 36.625 38.511 36.627 38.51 C 36.63 38.506 36.634 38.502 36.635 38.5 Z " fill="rgb(255,255,255)"/><path d=" M 36.611 38.53 L 36.599 38.543 C 36.599 38.544 36.597 38.544 36.597 38.544 C 36.602 38.542 36.602 38.542 36.606 38.537 C 36.609 38.535 36.607 38.533 36.611 38.53 Z " fill="rgb(255,255,255)"/><path d=" M 162.665 52.231 C 162.683 52.228 162.676 52.229 162.683 52.227 C 162.661 52.228 162.647 52.228 162.641 52.229 C 162.639 52.23 162.637 52.23 162.635 52.231 C 162.639 52.232 162.653 52.233 162.665 52.231 Z " fill="rgb(255,255,255)"/><path d=" M 133.748 82.835 L 141.777 85.984 L 141.777 54.231 L 133.748 51.083 L 133.748 82.835 Z " fill="rgb(255,255,255)"/><path d=" M 172.581 31.922 L 172.552 31.911 C 172.549 31.92 172.548 31.93 172.546 31.939 L 172.581 31.922 Z " fill="rgb(255,255,255)"/><path d=" M 145.177 87.316 L 147.445 88.206 L 147.445 56.454 L 145.177 55.565 L 145.177 87.316 Z " fill="rgb(255,255,255)"/><path d=" M 145.951 39.267 C 144.921 38.33 143.874 37.457 142.765 36.531 C 142.584 36.38 142.397 36.221 142.213 36.068 L 141.926 35.926 L 129.734 40.44 L 129.734 47.929 L 141.777 52.728 L 141.777 46.848 L 150.411 42.665 C 148.935 41.734 147.46 40.613 145.951 39.267 Z " fill="rgb(255,255,255)"/><path d=" M 181.165 86.909 L 191.555 82.835 L 191.555 51.083 L 181.165 55.158 L 181.165 86.909 Z " fill="rgb(255,255,255)"/><path d=" M 183.347 35.91 L 182.969 36.096 C 182.837 36.206 182.701 36.32 182.57 36.429 C 181.413 37.388 180.319 38.294 179.263 39.254 C 177.754 40.6 176.285 41.718 174.825 42.643 L 181.165 45.715 L 181.165 53.675 L 195.583 47.929 L 195.583 40.44 L 183.347 35.91 Z " fill="rgb(255,255,255)"/><path d=" M 168.745 45.277 L 175.498 48.548 L 175.498 55.935 L 177.764 55.03 L 177.764 47.981 L 170.97 44.628 C 170.313 44.878 169.564 45.115 168.745 45.277 Z " fill="rgb(255,255,255)"/><path d=" M 175.498 89.131 L 177.764 88.243 L 177.764 56.491 L 175.498 57.38 L 175.498 89.131 Z " fill="rgb(255,255,255)"/><path d=" M 150.845 57.788 L 150.845 89.539 L 162.651 94.169 L 172.096 90.465 L 172.096 58.713 L 162.651 62.418 L 150.845 57.788 Z " fill="rgb(255,255,255)"/><path d=" M 154.25 44.637 L 145.177 49.114 L 145.177 54.085 L 147.445 54.987 L 147.445 49.682 L 156.513 45.288 C 155.673 45.127 154.909 44.887 154.25 44.637 Z " fill="rgb(255,255,255)"/><path d=" M 150.845 51.947 L 150.845 56.342 L 162.659 61.051 L 172.096 57.29 L 172.096 50.815 L 162.62 46.137 L 150.845 51.947 Z " fill="rgb(255,255,255)"/><path d=" M 188.424 23.68 C 188.135 22.996 187.756 22.487 187.255 22.03 L 187.053 21.855 L 186.703 21.584 C 186.437 21.38 186.252 21.287 186.028 21.147 C 185.598 20.911 185.164 20.71 184.735 20.56 C 183.875 20.25 183.026 20.073 182.191 19.971 C 180.521 19.766 178.898 19.915 177.333 20.212 C 175.177 20.648 173.136 21.499 171.311 22.666 C 171.258 21.247 171.111 19.802 170.791 18.335 C 170.399 16.722 169.833 15.053 168.638 13.482 C 168.035 12.702 167.289 11.934 166.267 11.32 C 165.266 10.7 163.95 10.287 162.605 10.291 L 162.377 10.299 L 162.31 10.305 L 162.175 10.314 C 162.132 10.315 161.903 10.338 161.697 10.368 C 161.257 10.425 160.963 10.51 160.649 10.596 C 160.04 10.789 159.456 11.042 158.959 11.349 C 157.937 11.955 157.191 12.717 156.563 13.474 C 155.332 15.013 154.636 16.627 154.132 18.225 C 153.726 19.593 153.477 20.958 153.341 22.312 C 151.7 21.34 149.895 20.623 147.998 20.228 C 146.438 19.92 144.815 19.766 143.146 19.966 C 142.311 20.066 141.463 20.243 140.605 20.552 C 140.176 20.702 139.743 20.903 139.315 21.136 C 139.089 21.279 138.913 21.364 138.648 21.567 L 138.288 21.843 L 138.086 22.018 C 137.606 22.452 137.216 22.958 136.925 23.626 C 136.638 24.28 136.537 25.022 136.581 25.659 C 136.683 26.951 137.176 27.839 137.62 28.598 C 138.567 30.088 139.654 31.14 140.742 32.162 C 142.941 34.152 145.192 35.874 147.282 37.774 C 149.463 39.72 151.881 41.484 154.653 42.654 C 156.037 43.202 157.563 43.656 159.152 43.393 C 159.939 43.255 160.691 42.941 161.325 42.42 C 161.386 42.372 161.444 42.313 161.504 42.26 C 161.86 42.339 162.227 42.382 162.605 42.367 C 162.963 42.358 163.305 42.296 163.634 42.206 C 163.702 42.267 163.767 42.335 163.836 42.39 C 164.471 42.92 165.219 43.242 166.008 43.386 C 167.602 43.664 169.135 43.211 170.523 42.663 C 173.306 41.495 175.731 39.725 177.917 37.774 C 180.011 35.871 182.272 34.154 184.486 32.176 C 185.581 31.16 186.677 30.118 187.642 28.644 C 188.095 27.892 188.599 27.02 188.729 25.733 C 188.788 25.099 188.702 24.349 188.424 23.68 Z  M 167.844 35.947 C 167.428 37.269 166.838 38.559 165.956 39.606 C 165.414 40.26 164.731 40.807 163.985 41.11 C 163.75 40.808 163.57 40.476 163.441 40.104 C 163.251 39.529 163.181 38.909 163.198 38.278 C 163.199 38.242 163.198 38.206 163.198 38.169 C 163.227 37.522 163.348 36.866 163.54 36.235 C 163.932 34.945 164.508 33.69 165.262 32.545 C 166.203 31.098 167.346 29.752 168.581 28.551 C 168.726 31.021 168.532 33.54 167.844 35.947 Z  M 162.711 16.788 C 162.7 16.788 162.68 16.789 162.663 16.789 L 162.697 16.788 L 162.711 16.788 Z  M 159.449 20.257 C 159.981 19.179 160.617 18.191 161.271 17.547 C 161.588 17.227 161.913 16.994 162.146 16.891 C 162.252 16.83 162.336 16.816 162.407 16.798 C 162.406 16.797 162.409 16.797 162.413 16.796 C 162.419 16.795 162.425 16.794 162.431 16.792 C 162.46 16.791 162.48 16.788 162.455 16.794 C 162.467 16.794 162.476 16.794 162.495 16.794 L 162.606 16.791 C 162.702 16.805 162.808 16.812 163.047 16.919 C 163.279 17.015 163.603 17.242 163.947 17.54 C 164.636 18.151 165.4 19.084 166.046 20.148 C 166.966 21.649 167.699 23.398 168.133 25.259 C 167.346 26.083 166.664 26.953 166.005 27.85 C 165.131 29.06 164.354 30.339 163.711 31.687 C 163.285 32.595 162.9 33.527 162.6 34.492 C 162.307 33.551 161.933 32.641 161.52 31.753 C 160.499 29.642 159.208 27.687 157.627 25.903 C 158.015 23.881 158.62 21.945 159.449 20.257 Z  M 161.291 41.018 C 160.579 40.669 159.956 40.092 159.462 39.424 C 158.67 38.365 158.163 37.083 157.782 35.788 C 157.2 33.623 157.056 31.353 157.206 29.129 C 158.229 30.195 159.173 31.359 159.975 32.603 C 160.719 33.749 161.293 34.999 161.676 36.288 C 161.858 36.904 161.971 37.545 161.999 38.177 C 161.999 38.218 162.003 38.26 162.004 38.302 C 162.02 38.94 161.945 39.565 161.744 40.143 C 161.631 40.461 161.481 40.751 161.291 41.018 Z  M 158.997 42.405 C 157.737 42.573 156.417 42.092 155.264 41.411 C 152.937 40 151.026 37.93 149.167 35.887 C 147.235 33.753 145.266 31.641 143.525 29.516 C 142.665 28.468 141.827 27.389 141.309 26.43 C 141.038 25.967 140.925 25.519 140.923 25.382 C 140.92 25.31 140.922 25.327 140.919 25.327 C 140.904 25.338 140.956 25.263 141.001 25.219 C 141.515 24.655 142.567 24.247 143.715 24.051 C 144.868 23.863 146.125 23.826 147.372 23.979 C 149.397 24.222 151.427 24.849 153.244 25.89 C 153.269 26.498 153.309 27.103 153.371 27.704 C 153.711 30.778 154.481 33.782 155.8 36.545 C 156.455 37.926 157.279 39.246 158.371 40.369 C 158.935 40.954 159.623 41.494 160.393 41.868 C 159.98 42.144 159.501 42.351 158.997 42.405 Z  M 183.983 26.427 C 183.445 27.389 182.594 28.464 181.722 29.512 C 179.958 31.634 177.972 33.745 176.032 35.887 C 174.168 37.935 172.253 40.013 169.916 41.422 C 168.759 42.103 167.433 42.581 166.171 42.401 C 165.628 42.336 165.115 42.092 164.684 41.78 C 165.439 41.371 166.094 40.796 166.628 40.188 C 167.632 39.051 168.372 37.739 168.992 36.386 C 170.251 33.675 170.933 30.711 171.189 27.704 L 171.188 27.687 C 171.218 27.233 171.245 26.775 171.269 26.315 C 173.281 25.001 175.615 24.242 177.939 23.971 C 179.192 23.825 180.455 23.868 181.615 24.057 C 182.773 24.256 183.82 24.661 184.342 25.233 C 184.362 25.253 184.396 25.302 184.397 25.308 C 184.397 25.312 184.397 25.325 184.394 25.363 C 184.39 25.506 184.263 25.962 183.983 26.427 Z " fill="rgb(255,255,255)"/><path d=" M 401.697 45.705 C 399.147 48.025 396.324 49.764 393.291 50.891 C 391.414 51.578 389.813 51.929 388.24 52.001 C 388.074 52.009 387.9 52.014 387.725 52.014 C 386.93 52.014 386.18 51.912 385.479 51.733 L 385.479 56.568 C 399.559 56.186 411.223 52.852 415.231 48.363 C 414.848 45.522 411.375 42.96 405.947 41.06 C 404.77 42.643 403.365 44.178 401.697 45.705 Z " fill="rgb(255,255,255)"/><path d=" M 390.373 46.605 C 390.639 46.485 390.912 46.352 391.193 46.203 C 393.213 45.091 395.184 43.47 397.188 41.261 L 397.188 41.26 C 397.785 40.598 398.318 39.894 398.818 39.175 C 397.262 38.87 395.629 38.608 393.926 38.394 C 393.516 40.072 392.977 41.661 392.303 43.145 C 391.711 44.456 391.072 45.602 390.373 46.605 Z " fill="rgb(255,255,255)"/><path d=" M 350.27 53.404 C 350.27 59.264 363.381 64.066 380.063 64.54 L 380.063 57.471 C 365.934 57.087 354.24 53.731 350.27 49.218 L 350.27 53.404 Z " fill="rgb(255,255,255)"/><path d=" M 368.354 41.26 C 370.359 43.471 372.328 45.091 374.373 46.217 C 374.848 46.468 375.303 46.676 375.74 46.844 C 374.967 45.763 374.287 44.532 373.686 43.123 C 373.035 41.61 372.51 40.01 372.109 38.335 C 370.229 38.559 368.428 38.841 366.723 39.175 C 367.221 39.894 367.754 40.598 368.354 41.26 Z " fill="rgb(255,255,255)"/><path d=" M 352.979 67.261 L 352.979 81.232 C 352.979 86.577 364.879 90.963 380.063 91.434 L 380.063 66.346 C 367.904 66.001 357.648 63.356 352.979 59.678 L 352.979 67.261 Z " fill="rgb(255,255,255)"/><path d=" M 385.479 91.434 C 400.662 90.963 412.563 86.577 412.563 81.232 L 412.563 67.261 L 412.563 59.678 C 407.891 63.356 397.635 66.001 385.479 66.346 L 385.479 91.434 Z " fill="rgb(255,255,255)"/><path d=" M 385.479 57.471 L 385.479 64.54 C 402.16 64.066 415.27 59.264 415.27 53.404 L 415.27 49.218 C 411.301 53.731 399.607 57.087 385.479 57.471 Z " fill="rgb(255,255,255)"/><path d=" M 377.824 52.014 C 377.647 52.014 377.469 52.01 377.293 52.001 C 375.729 51.929 374.125 51.578 372.258 50.895 C 369.225 49.768 366.406 48.033 363.875 45.735 C 362.186 44.188 360.772 42.643 359.592 41.061 C 354.164 42.96 350.691 45.522 350.309 48.363 C 354.318 52.852 365.981 56.186 380.063 56.568 L 380.063 51.738 C 379.365 51.916 378.617 52.014 377.824 52.014 Z " fill="rgb(255,255,255)"/><path d=" M 383.029 51.226 L 382.92 51.227 C 382.574 51.227 382.221 51.192 381.867 51.134 L 381.867 56.594 C 382.17 56.597 382.467 56.607 382.77 56.607 C 383.074 56.607 383.371 56.597 383.672 56.594 L 383.672 51.177 C 383.457 51.2 383.242 51.225 383.029 51.226 Z " fill="rgb(255,255,255)"/><path d=" M 381.867 57.497 L 381.867 64.574 C 382.168 64.576 382.467 64.582 382.77 64.582 C 383.072 64.582 383.373 64.576 383.672 64.574 L 383.672 57.497 C 383.371 57.5 383.074 57.51 382.77 57.51 C 382.467 57.51 382.17 57.5 381.867 57.497 Z " fill="rgb(255,255,255)"/><path d=" M 381.867 66.376 L 381.867 91.47 C 382.168 91.473 382.467 91.478 382.77 91.478 C 383.072 91.478 383.373 91.473 383.672 91.47 L 383.672 66.376 C 383.371 66.378 383.074 66.387 382.77 66.387 C 382.467 66.387 382.168 66.378 381.867 66.376 Z " fill="rgb(255,255,255)"/><path d=" M 407.707 29.273 C 407.441 28.257 406.887 27.206 406.063 26.385 L 405.773 26.13 C 405.731 26.089 405.584 25.973 405.445 25.871 C 405.156 25.649 404.92 25.519 404.676 25.38 C 404.18 25.126 403.664 24.92 403.158 24.804 C 402.139 24.545 401.168 24.538 400.258 24.615 C 398.436 24.798 396.859 25.413 395.397 26.121 C 394.531 26.569 393.725 27.08 392.947 27.62 C 392.92 27.305 392.895 26.99 392.859 26.676 C 392.668 24.876 392.338 23.069 391.773 21.281 C 391.188 19.502 390.389 17.724 389.066 16.111 C 388.395 15.318 387.598 14.547 386.576 13.956 C 385.565 13.369 384.307 12.973 383.023 12.982 C 381.74 12.996 380.496 13.413 379.504 14.013 C 378.5 14.614 377.707 15.374 377.045 16.166 C 375.731 17.769 374.936 19.536 374.316 21.297 C 373.596 23.5 373.211 25.735 373.063 27.964 C 372.143 27.294 371.186 26.66 370.145 26.121 C 368.682 25.413 367.106 24.798 365.281 24.615 C 364.373 24.538 363.402 24.545 362.383 24.804 C 361.877 24.92 361.361 25.126 360.865 25.38 C 360.619 25.519 360.383 25.649 360.096 25.871 C 359.955 25.973 359.809 26.089 359.766 26.13 L 359.479 26.385 C 358.654 27.206 358.1 28.257 357.832 29.273 C 357.555 30.298 357.553 31.28 357.623 32.196 C 357.809 34.032 358.428 35.618 359.172 37.07 C 360.715 39.94 362.816 42.318 365.063 44.374 L 365.09 44.398 C 367.365 46.463 370.004 48.131 372.879 49.199 C 374.318 49.725 375.82 50.126 377.383 50.197 C 378.723 50.264 380.232 50.045 381.402 49.177 C 381.92 49.339 382.461 49.434 383.023 49.42 C 383.447 49.419 383.856 49.353 384.252 49.252 C 385.404 50.053 386.857 50.261 388.158 50.197 C 389.721 50.126 391.223 49.725 392.662 49.199 C 395.543 48.128 398.188 46.457 400.465 44.386 L 400.479 44.374 C 402.723 42.318 404.824 39.94 406.367 37.07 C 407.113 35.618 407.731 34.032 407.916 32.196 C 407.986 31.28 407.986 30.298 407.707 29.273 Z  M 384.391 48.056 C 383.635 47.261 383.359 46.13 383.377 44.983 C 383.381 44.921 383.383 44.859 383.383 44.796 C 383.391 44.656 383.398 44.515 383.412 44.374 C 383.557 43.012 384.068 41.682 384.69 40.428 C 386 37.934 387.887 35.758 389.988 33.908 C 390.098 33.812 390.219 33.727 390.33 33.633 C 390.344 36.4 390.023 39.189 389.227 41.852 C 388.729 43.421 388.031 44.951 387.004 46.212 C 386.322 47.06 385.443 47.763 384.473 48.128 C 384.447 48.103 384.416 48.082 384.391 48.056 Z  M 377.893 22.664 C 378.504 21.238 379.299 19.913 380.223 18.913 C 381.143 17.891 382.186 17.35 383.023 17.411 C 383.859 17.403 384.844 17.963 385.762 18.968 C 386.676 19.957 387.469 21.272 388.113 22.679 C 389.147 24.899 389.783 27.374 390.098 29.923 C 389.387 30.584 388.701 31.266 388.061 31.981 C 386.02 34.289 384.33 36.901 383.209 39.766 C 383.045 40.177 382.902 40.598 382.77 41.022 C 382.639 40.598 382.494 40.177 382.332 39.766 C 381.209 36.901 379.522 34.289 377.479 31.981 C 376.981 31.424 376.461 30.881 375.92 30.356 C 376.221 27.663 376.854 25.028 377.893 22.664 Z  M 379.106 46.158 C 378.088 44.907 377.395 43.387 376.861 41.835 C 376.055 39.332 375.727 36.69 375.713 34.062 C 377.748 35.879 379.574 38 380.852 40.428 C 381.471 41.682 381.984 43.012 382.127 44.374 C 382.143 44.515 382.15 44.656 382.156 44.796 C 382.158 44.858 382.158 44.921 382.162 44.983 C 382.18 46.075 381.924 47.148 381.248 47.935 C 380.434 47.528 379.703 46.892 379.106 46.158 Z  M 377.461 49.118 C 376.086 48.974 374.746 48.456 373.502 47.799 C 371.031 46.44 368.893 44.543 367.02 42.477 L 367.014 42.471 C 365.113 40.37 363.641 37.96 362.75 35.47 C 362.311 34.241 362.012 32.984 361.981 31.881 C 361.941 30.762 362.19 29.93 362.609 29.517 C 362.986 29.058 363.846 28.754 364.981 28.804 C 366.098 28.837 367.361 29.14 368.582 29.616 C 370.113 30.198 371.607 31.02 373.031 31.985 C 373.031 32.007 373.031 32.03 373.033 32.053 C 373.225 35.611 373.938 39.143 375.346 42.415 C 376.043 44.05 376.941 45.623 378.16 46.975 C 378.742 47.631 379.455 48.243 380.264 48.691 C 379.44 49.106 378.434 49.227 377.461 49.118 Z  M 402.789 35.47 C 401.898 37.96 400.428 40.37 398.525 42.471 L 398.539 42.459 C 396.66 44.532 394.516 46.436 392.037 47.799 C 390.795 48.456 389.455 48.974 388.078 49.118 C 387.182 49.218 386.256 49.123 385.471 48.783 C 386.379 48.315 387.176 47.643 387.824 46.92 C 389.033 45.579 389.928 44.017 390.658 42.399 C 392.131 39.154 392.834 35.61 393.014 32.053 L 393.014 32.044 C 393.022 31.908 393.022 31.77 393.027 31.633 C 394.295 30.82 395.613 30.127 396.959 29.616 C 398.178 29.14 399.443 28.837 400.561 28.804 C 401.695 28.754 402.553 29.058 402.932 29.517 C 403.35 29.93 403.6 30.762 403.559 31.881 C 403.527 32.984 403.229 34.241 402.789 35.47 Z " fill="rgb(255,255,255)"/><path d=" M 359.745 132.434 C 360.002 132.655 360.24 132.813 360.457 132.94 C 360.561 133.002 360.682 133.07 360.811 133.131 L 361.03 133.235 L 361.251 133.335 L 361.44 133.439 C 361.712 133.591 362.028 133.816 362.349 134.064 C 362.993 134.564 363.65 135.183 364.306 135.821 C 365.608 137.11 366.891 138.531 368.146 139.983 C 373.172 145.824 377.959 152.082 383.094 158.104 L 383.122 158.136 C 383.324 158.371 383.664 158.464 383.965 158.338 C 384.34 158.183 384.521 157.752 384.362 157.377 C 382.892 153.816 382.167 150.04 381.892 146.242 C 381.65 142.437 381.802 138.605 382.261 134.783 C 382.467 132.868 382.735 130.958 383.038 129.029 L 383.501 126.098 C 383.576 125.6 383.649 125.094 383.715 124.562 C 383.744 124.296 383.771 124.021 383.789 123.725 L 383.812 123.225 L 383.814 123.04 C 383.814 122.808 383.792 122.608 383.744 122.368 C 383.651 121.904 383.422 121.41 383.123 121.039 C 382.826 120.664 382.492 120.407 382.199 120.228 C 381.607 119.883 381.136 119.764 380.73 119.673 C 379.917 119.51 379.288 119.512 378.679 119.524 C 377.475 119.561 376.405 119.727 375.353 119.928 C 373.26 120.344 371.27 120.903 369.312 121.586 C 367.354 122.276 365.435 123.046 363.517 124.056 C 362.558 124.578 361.607 125.124 360.595 125.943 C 360.091 126.384 359.55 126.815 358.974 127.796 C 358.832 128.053 358.691 128.353 358.59 128.737 C 358.485 129.117 358.426 129.599 358.485 130.112 C 358.54 130.623 358.735 131.136 358.978 131.53 C 359.219 131.926 359.491 132.212 359.745 132.434 Z  M 375.174 124.744 C 376.049 124.547 376.932 124.388 377.697 124.33 C 377.708 124.328 377.719 124.328 377.729 124.328 C 377.746 124.327 377.683 125.227 377.581 126.338 C 377.487 127.345 377.395 128.348 377.395 128.348 C 377.206 130.329 377.04 132.336 376.954 134.354 C 376.877 136.894 377.214 141.209 377.483 144.104 C 377.636 145.753 377.077 145.95 376.182 144.556 C 374.65 142.176 372.362 138.69 370.835 136.689 C 369.605 135.085 368.317 133.508 366.856 131.989 C 366.531 131.648 365.929 131.098 365.338 130.579 C 364.481 129.823 364.946 128.605 366.44 127.888 C 367.667 127.3 369.026 126.676 369.863 126.366 C 371.615 125.722 373.408 125.142 375.174 124.744 Z  M 385.717 147.686 C 385.537 149.255 385.428 150.828 385.374 152.407 C 385.347 153.195 385.339 153.987 385.387 154.787 C 385.413 155.186 385.447 155.589 385.529 156.002 C 385.573 156.21 385.624 156.419 385.73 156.65 C 385.789 156.765 385.856 156.9 386.033 157.029 C 386.125 157.086 386.254 157.13 386.373 157.119 C 386.431 157.122 386.496 157.099 386.555 157.082 L 386.63 157.049 L 386.655 157.039 C 388.104 156.406 389.471 155.637 390.815 154.836 C 392.164 154.033 393.501 153.202 394.801 152.308 C 397.412 150.533 399.944 148.598 402.296 146.328 C 403.45 145.174 404.573 143.946 405.577 142.545 C 406.567 141.139 407.47 139.57 408.023 137.672 C 408.29 136.725 408.474 135.688 408.449 134.588 C 408.432 133.492 408.224 132.328 407.767 131.265 C 407.32 130.198 406.675 129.24 405.937 128.46 C 405.569 128.069 405.182 127.713 404.786 127.393 C 404.583 127.228 404.406 127.086 404.169 126.921 L 403.874 126.714 L 403.755 126.633 L 403.569 126.514 C 402.682 125.959 401.635 125.468 400.429 125.224 C 399.229 124.977 397.887 125.036 396.711 125.392 C 395.527 125.738 394.535 126.341 393.714 126.987 C 392.889 127.635 392.231 128.367 391.654 129.093 C 389.405 132.044 388.337 135.182 387.438 138.288 C 386.603 141.411 386.066 144.544 385.717 147.686 Z  M 386.407 156.352 C 386.407 156.352 386.404 156.353 386.404 156.356 C 386.386 156.364 386.371 156.371 386.363 156.37 C 386.375 156.358 386.397 156.357 386.407 156.352 Z  M 394.491 133.116 C 395.355 131.76 396.288 130.495 397.264 129.492 C 398.231 128.485 399.273 127.816 399.968 127.695 C 400.318 127.614 400.599 127.636 400.952 127.712 C 401.3 127.789 401.731 127.975 402.202 128.28 C 403.296 128.963 404.052 129.752 404.428 130.524 C 404.816 131.291 404.943 132.283 404.731 133.554 C 404.523 134.807 404 136.217 403.307 137.609 C 402.619 139.01 401.778 140.418 400.825 141.781 C 398.952 144.54 396.722 147.172 394.311 149.645 C 391.91 152.082 389.324 154.406 386.478 156.304 C 386.471 156.288 386.466 156.274 386.461 156.254 C 386.426 156.106 386.403 155.912 386.397 155.714 C 386.384 155.314 386.415 154.891 386.456 154.471 C 386.545 153.628 386.694 152.782 386.863 151.937 C 387.21 150.251 387.69 148.582 388.204 146.938 C 389.259 143.651 390.549 140.444 392.069 137.434 C 392.81 135.926 393.618 134.469 394.491 133.116 Z " fill="rgb(255,255,255)"/><path d=" M 357.113 170.985 L 408.427 170.985 C 409.531 170.985 410.527 170.095 410.651 168.998 L 411.286 163.382 C 411.486 161.612 410.204 160.176 408.422 160.176 L 357.118 160.176 C 355.336 160.176 354.054 161.612 354.255 163.382 L 354.889 168.998 C 355.013 170.095 356.009 170.985 357.113 170.985 Z " fill="rgb(255,255,255)"/><path d=" M 357.165 172.606 L 360.355 200.83 C 360.665 203.574 363.154 205.798 365.916 205.798 L 399.624 205.798 C 402.386 205.798 404.875 203.574 405.186 200.83 L 408.375 172.606 L 357.165 172.606 Z  M 381.361 173.79 C 382.511 173.79 383.444 174.723 383.444 175.874 C 383.444 177.023 382.511 177.957 381.361 177.957 C 380.211 177.957 379.277 177.023 379.277 175.874 C 379.277 174.723 380.211 173.79 381.361 173.79 Z  M 379.569 182.04 C 380.674 182.04 381.569 182.935 381.569 184.04 C 381.569 185.144 380.674 186.04 379.569 186.04 C 378.465 186.04 377.569 185.144 377.569 184.04 C 377.569 182.935 378.465 182.04 379.569 182.04 Z  M 361.374 178.915 C 361.374 177.189 362.773 175.79 364.499 175.79 C 366.225 175.79 367.624 177.189 367.624 178.915 C 367.624 180.64 366.225 182.04 364.499 182.04 C 362.773 182.04 361.374 180.64 361.374 178.915 Z  M 369.934 201.789 C 368.467 201.789 367.277 200.599 367.277 199.132 C 367.277 197.666 368.467 196.476 369.934 196.476 C 371.4 196.476 372.59 197.666 372.59 199.132 C 372.59 200.599 371.4 201.789 369.934 201.789 Z  M 369.53 192.392 C 367.32 192.392 365.527 190.599 365.527 188.389 C 365.527 186.178 367.32 184.386 369.53 184.386 C 371.741 184.386 373.533 186.178 373.533 188.389 C 373.533 190.599 371.741 192.392 369.53 192.392 Z  M 381.36 201.534 C 379.268 201.534 377.569 199.835 377.569 197.742 C 377.569 195.649 379.268 193.951 381.36 193.951 C 383.454 193.951 385.152 195.649 385.152 197.742 C 385.152 199.835 383.454 201.534 381.36 201.534 Z  M 382.5 186.04 C 382.5 183.982 384.171 182.311 386.229 182.311 C 388.287 182.311 389.958 183.982 389.958 186.04 C 389.958 188.098 388.287 189.769 386.229 189.769 C 384.171 189.769 382.5 188.098 382.5 186.04 Z  M 390.145 199.743 C 389.04 199.743 388.145 198.847 388.145 197.743 C 388.145 196.638 389.04 195.743 390.145 195.743 C 391.249 195.743 392.145 196.638 392.145 197.743 C 392.145 198.847 391.249 199.743 390.145 199.743 Z  M 395.572 177.956 C 395.572 176.346 396.879 175.04 398.488 175.04 C 400.099 175.04 401.405 176.346 401.405 177.956 C 401.405 179.566 400.099 180.873 398.488 180.873 C 396.879 180.873 395.572 179.566 395.572 177.956 Z  M 402.694 185.612 C 402.694 186.943 401.616 188.023 400.284 188.023 C 398.954 188.023 397.874 186.943 397.874 185.612 C 397.874 184.281 398.954 183.202 400.284 183.202 C 401.616 183.202 402.694 184.281 402.694 185.612 Z  M 399.874 201.52 C 398.556 201.52 397.486 200.451 397.486 199.132 C 397.486 197.814 398.556 196.745 399.874 196.745 C 401.192 196.745 402.262 197.814 402.262 199.132 C 402.262 200.451 401.192 201.52 399.874 201.52 Z " fill="rgb(255,255,255)"/><path d=" M 240.065 51.594 L 240.065 63.185 C 240.065 64.107 240.814 64.856 241.735 64.856 L 267.671 64.856 L 267.671 47.286 C 258.876 47.465 250.223 48.25 241.712 49.646 C 240.802 49.795 240.065 50.671 240.065 51.594 Z " fill="rgb(255,255,255)"/><path d=" M 244.891 68.122 L 244.891 90.77 C 244.891 91.691 245.638 92.44 246.561 92.44 L 267.671 92.44 L 267.671 66.452 L 246.561 66.452 C 245.638 66.452 244.891 67.2 244.891 68.122 Z " fill="rgb(255,255,255)"/><path d=" M 293.782 66.452 L 272.671 66.452 L 272.671 92.44 L 293.782 92.44 C 294.704 92.44 295.452 91.691 295.452 90.77 L 295.452 68.122 C 295.452 67.2 294.704 66.452 293.782 66.452 Z " fill="rgb(255,255,255)"/><path d=" M 298.627 49.664 C 289.843 48.322 281.192 47.547 272.671 47.322 L 272.671 64.856 L 298.607 64.856 C 299.53 64.856 300.277 64.107 300.277 63.185 L 300.277 51.594 C 300.277 50.671 299.539 49.804 298.627 49.664 Z " fill="rgb(255,255,255)"/><path d=" M 271.925 18.513 C 271.903 18.513 271.889 18.513 271.883 18.513 C 271.882 18.514 271.879 18.514 271.877 18.515 C 271.881 18.516 271.895 18.517 271.907 18.517 C 271.925 18.514 271.918 18.514 271.925 18.513 Z " fill="rgb(255,255,255)"/><path d=" M 287.158 22.183 C 289.935 32.73 281.437 44.348 274.665 43.487 C 274.817 43.349 274.964 42.206 275.103 42.062 C 276.153 40.969 276.948 39.69 277.626 38.363 C 278.998 35.709 279.805 32.776 280.189 29.782 L 280.188 29.766 C 280.515 26.805 280.757 23.675 280.189 20.405 C 279.865 18.777 279.37 17.086 278.243 15.466 C 277.674 14.66 276.961 13.861 275.966 13.205 C 274.992 12.543 273.695 12.074 272.351 12.02 L 272.123 12.02 L 272.056 12.023 L 271.92 12.026 C 271.877 12.025 271.648 12.039 271.44 12.06 C 270.998 12.098 270.701 12.17 270.384 12.243 C 269.768 12.41 269.173 12.638 268.663 12.924 C 267.616 13.485 266.84 14.216 266.179 14.945 C 264.885 16.431 264.12 18.014 263.549 19.589 C 262.463 22.754 262.196 25.937 262.387 29.026 C 262.516 30.925 262.831 32.795 263.316 34.614 C 262.654 33.537 261.802 32.539 260.804 31.698 C 260.288 31.266 259.747 30.878 259.143 30.511 L 258.748 30.279 L 258.65 30.222 L 258.511 30.151 L 258.285 30.037 C 257.988 29.88 257.678 29.751 257.37 29.612 C 254.879 28.568 252.081 28.225 249.35 28.634 C 247.985 28.855 246.615 29.216 245.308 29.892 C 244.654 30.228 244.01 30.634 243.395 31.156 C 243.086 31.412 242.788 31.716 242.503 32.043 C 242.356 32.235 242.239 32.358 242.077 32.614 L 241.855 32.972 L 241.745 33.173 C 241.478 33.688 241.302 34.254 241.265 34.926 C 241.228 35.587 241.381 36.266 241.624 36.801 C 242.13 37.883 242.829 38.464 243.433 38.952 C 244.681 39.884 245.881 40.387 247.072 40.867 C 249.456 41.772 251.779 42.431 254.026 43.297 C 256.472 44.231 259.014 44.582 261.529 44.625 C 262.789 44.643 264.042 44.6 265.318 44.369 C 265.64 44.305 265.96 44.228 266.287 44.097 C 266.605 43.955 266.973 43.828 267.272 43.392 C 267.418 43.176 267.48 42.856 267.425 42.604 C 267.412 42.537 267.387 42.484 267.366 42.426 C 268.333 43.338 269.581 44.067 270.99 44.068 C 271.352 44.074 271.697 44.027 272.033 43.949 C 289.276 48.37 305.028 19.475 305.028 19.475 C 305.028 19.475 297.84 24.637 287.158 22.183 Z  M 266.436 42.864 C 266.396 42.945 266.181 43.097 265.94 43.169 C 265.698 43.253 265.424 43.306 265.147 43.347 C 264.02 43.498 262.822 43.381 261.668 43.176 C 259.353 42.732 257.115 41.912 255.12 40.866 C 252.942 39.725 250.743 38.6 248.742 37.407 C 247.754 36.822 246.777 36.205 246.12 35.623 C 245.867 35.419 245.699 35.196 245.63 35.087 C 245.837 34.586 246.481 33.983 247.279 33.514 C 248.108 33.03 249.071 32.619 250.087 32.363 C 252.119 31.841 254.337 31.779 256.447 32.31 C 256.708 32.385 256.975 32.449 257.231 32.54 L 257.427 32.605 C 257.446 32.609 257.52 32.639 257.496 32.624 L 257.604 32.664 L 258.03 32.826 C 258.505 33.016 259.008 33.254 259.481 33.529 C 260.429 34.079 261.26 34.822 261.989 35.691 C 262.713 36.568 263.292 37.591 263.856 38.655 C 264.416 39.722 264.903 40.878 265.745 41.913 C 265.94 42.163 266.255 42.434 266.342 42.571 C 266.473 42.771 266.468 42.821 266.436 42.864 Z  M 267.975 40.995 C 267.229 39.903 266.776 38.601 266.451 37.291 C 265.856 34.633 265.906 31.849 266.35 29.195 C 266.793 26.546 267.61 23.981 268.775 21.845 C 269.353 20.79 270.03 19.83 270.71 19.214 C 271.041 18.907 271.375 18.69 271.612 18.596 C 271.722 18.54 271.807 18.529 271.877 18.515 C 271.876 18.514 271.88 18.514 271.883 18.513 C 271.889 18.512 271.896 18.511 271.901 18.509 C 271.93 18.51 271.951 18.508 271.925 18.513 C 271.938 18.513 271.946 18.513 271.966 18.514 L 272.078 18.516 C 272.173 18.534 272.278 18.546 272.512 18.663 C 272.739 18.769 273.053 19.008 273.385 19.32 C 274.047 19.96 274.771 20.925 275.371 22.015 C 276.596 24.219 277.431 26.907 277.523 29.687 L 277.523 29.669 C 277.653 32.415 277.377 35.229 276.497 37.876 C 276.025 39.18 275.381 40.443 274.456 41.452 C 273.548 42.457 272.295 43.176 271.032 43.069 C 269.773 42.958 268.709 42.08 267.975 40.995 Z " fill="rgb(255,255,255)"/><path d=" M 355.559 387.76 L 363.768 426.429 L 401.773 426.429 L 409.986 387.737 C 391.668 391.142 373.527 391.127 355.559 387.76 Z  M 368.205 424.673 L 359.162 391.087 L 368.205 392.366 L 368.205 424.673 Z  M 370.654 424.673 L 373.104 392.846 L 377.627 424.673 L 370.654 424.673 Z  M 376.801 392.846 L 387.99 392.846 L 382.772 424.673 L 376.801 392.846 Z  M 387.613 424.673 L 392.135 392.846 L 394.586 424.673 L 387.613 424.673 Z  M 397.033 424.673 L 397.033 392.366 L 406.078 391.087 L 397.033 424.673 Z " fill="rgb(255,255,255)"/><path d=" M 406.225 366.375 L 359.315 366.375 L 348.119 383.699 C 370.938 389.166 394.037 389.213 417.42 383.699 L 406.225 366.375 Z  M 352.096 382.764 L 358.807 370.922 L 364.791 385.131 L 352.096 382.764 Z  M 368.205 385.883 L 360.873 368.015 L 368.205 367.97 L 368.205 385.883 Z  M 370.654 386.123 L 372.162 368.247 L 379.887 386.586 L 370.654 386.123 Z  M 376.801 368.247 L 387.99 368.247 L 382.772 386.586 L 376.801 368.247 Z  M 385.635 386.586 L 393.359 368.247 L 394.867 386.123 L 385.635 386.586 Z  M 397.316 367.97 L 404.648 368.015 L 397.316 385.883 L 397.316 367.97 Z  M 406.717 370.922 L 413.426 382.764 L 400.731 385.131 L 406.717 370.922 Z " fill="rgb(255,255,255)"/><path d=" M 377.178 342.214 C 380.906 340.052 384.637 340.082 388.367 342.214 L 383.148 363.818 L 377.178 342.214 Z " fill="rgb(255,255,255)"/><path d=" M 395.311 344.814 C 399.426 346.528 402.092 349.148 403.223 352.725 L 384.256 364.313 L 395.311 344.814 Z " fill="rgb(255,255,255)"/><path d=" M 382.01 364.313 L 363.045 352.725 C 364.174 349.148 366.842 346.528 370.957 344.814 L 382.01 364.313 Z " fill="rgb(255,255,255)"/></g></svg>