<?xml version="1.0" encoding="UTF-8" standalone="no"?><!-- Generator: Gravit.io --><svg xmlns="http://www.w3.org/2000/svg" xmlns:xlink="http://www.w3.org/1999/xlink" style="isolation:isolate" viewBox="269.152 201.718 173.152 45.409" width="173.152pt" height="45.409pt"><path d=" M 409.288 221.471 C 411.739 222.925 414.273 222.397 416.717 222.515 C 414.326 222.01 411.93 221.539 409.288 221.471 Z  M 421.721 220.222 C 421.715 221.279 423.098 220.821 423.177 221.394 C 423.512 222.22 422.651 222.381 422.9 223.162 C 429.214 223.815 435.645 224.433 441.937 226.101 C 440.798 226.631 439.6 227.27 438.465 226.886 C 436.569 226.245 434.604 226.161 432.69 226.001 C 428.663 225.664 424.71 224.615 420.637 224.763 C 420.336 224.775 420.034 224.765 419.171 224.765 C 420.422 225.228 421.442 225.093 421.875 226.368 C 418.46 226.685 415.221 225.792 411.819 225.558 C 411.716 225.971 411.606 226.415 411.485 226.902 C 421.572 227.409 431.607 228.075 441.958 230.304 C 439.965 231.46 438.332 231.06 436.808 230.897 C 433.612 230.554 430.442 229.971 427.255 229.523 C 426.805 229.459 426.127 229.42 425.895 229.676 C 424.851 230.839 423.858 230.134 422.592 229.955 C 423.274 229.253 423.769 230.312 424.415 229.4 C 421.813 228.646 419.334 229.808 416.881 229.395 C 414.413 228.978 411.874 228.981 409.039 228.776 C 409.981 229.925 411.217 229.756 411.965 229.764 C 414.33 229.791 416.645 230.32 419.007 230.251 C 421.475 230.179 423.904 230.607 426.343 230.924 C 427.902 231.127 429.469 230.873 431.022 230.635 C 431.539 230.555 431.25 230.879 431.328 231.093 C 431.575 231.773 432.354 231.714 433.016 231.7 C 435.429 231.646 437.759 232.145 440.074 232.762 C 440.412 232.851 440.824 232.777 440.846 233.31 C 440.869 233.837 440.452 233.766 440.138 233.92 C 438.338 234.806 436.601 233.783 434.835 233.757 C 433.847 233.742 432.82 232.691 431.975 234.112 C 431.821 234.371 431.343 234.163 430.979 234.063 C 428.862 233.487 426.64 233.665 424.484 232.96 C 423.41 232.609 421.852 233.058 420.505 233.32 C 418.637 233.684 416.733 232.812 414.803 232.655 C 413.172 232.521 411.447 232.285 409.823 232.175 C 406.462 231.947 403.089 231.296 399.311 231.855 C 401.632 232.68 403.767 232.729 405.799 232.731 C 410.416 232.735 414.873 234.398 419.515 233.895 C 422.943 236.23 427.044 235.019 430.751 235.994 C 433.06 236.601 435.535 236.575 437.932 236.855 C 438.128 236.878 438.303 237.072 438.445 237.49 C 428.985 235.924 419.411 236.448 409.676 235.325 C 411.986 236.855 414.789 235.118 416.926 237.335 C 413.116 238.752 409.45 236.659 405.796 237.276 C 407.138 238.301 409.182 238.07 410.167 239.664 C 410.37 239.994 410.225 240.463 409.617 240.598 C 410.729 241.308 411.254 239.078 412.325 240.332 C 412.38 239.925 412.429 239.569 412.476 239.225 C 412.866 238.976 413.411 239.817 413.216 240.312 C 413.177 240.411 413.222 240.543 413.231 240.66 C 422.071 240.951 430.835 241.908 439.816 243.263 C 439.047 244.046 438.477 244.167 437.845 244.101 C 434.511 243.754 431.175 243.416 427.841 243.061 C 426.349 242.902 424.827 242.783 423.357 242.734 C 419.8 242.616 416.279 242.227 412.74 241.981 C 408.512 241.687 404.248 241.903 400 241.919 C 399.38 241.922 398.629 241.659 398.199 242.651 C 405.246 242.869 412.23 243.077 419.192 243.484 C 426.213 243.894 433.306 244.4 440.118 246.547 C 438.047 247.28 435.934 247.215 433.946 246.914 C 431.464 246.539 428.955 246.108 426.488 246.01 C 421.06 245.794 415.648 245.322 410.218 245.116 C 401.839 244.798 393.464 244.908 385.089 244.838 C 379.972 244.796 374.85 244.681 369.74 244.864 C 361.303 245.165 352.861 244.997 344.431 245.264 C 338.218 245.461 332.004 245.339 325.802 245.605 C 320.498 245.832 315.186 246.018 309.894 246.365 C 303.686 246.772 297.49 246.482 291.293 246.661 C 289.484 246.714 287.678 246.808 285.763 246.513 C 286.211 245.635 286.892 245.537 287.612 245.564 C 291.561 245.707 295.467 245.296 299.392 244.928 C 301.202 244.758 303.117 244.6 305.03 245.075 C 306.182 245.36 307.54 244.855 308.815 244.754 C 312.29 244.479 315.764 244.268 319.243 244.062 C 324.849 243.728 330.461 243.192 336.065 243.448 C 339.689 243.612 343.281 242.98 346.885 243.376 C 347.986 243.497 348.956 242.992 349.991 242.641 C 347.22 242.641 344.449 242.641 341.678 242.641 C 337.169 242.641 332.658 242.555 328.151 242.668 C 324.361 242.763 320.569 242.887 316.78 243.233 C 315.555 243.345 314.226 243.277 312.931 243.335 C 308.167 243.545 303.394 243.748 298.629 243.681 C 296.094 243.645 293.594 243.605 291.104 244.093 C 290.032 244.303 289.166 243.137 288.037 243.652 C 288.13 243.968 288.226 244.291 288.359 244.744 C 287.485 244.744 286.463 245.062 286.006 244.689 C 284.009 243.055 281.556 243.58 279.344 243.041 C 278.534 242.844 277.553 242.991 277.322 241.968 C 277.103 240.992 278.214 240.9 278.602 240.035 C 276.609 239.017 276.39 236.364 274.6 234.761 C 273.887 234.87 274.164 236.798 272.635 235.713 C 272.807 237.497 274.738 238.559 273.949 240.382 C 272.875 240.633 272.383 239.779 271.998 239.114 C 270.336 236.248 269.101 233.021 269.154 229.839 C 269.237 224.857 269.196 219.766 270.819 214.917 C 270.932 214.58 271 214.208 271.195 213.926 C 271.633 213.29 271.749 212.197 272.869 212.393 C 273.899 212.574 274.062 213.492 274.101 214.331 C 274.147 215.329 274.829 215.653 275.652 216.153 C 276.057 215.157 275.888 214.001 276.863 213.416 C 276.943 213.368 277.025 213.147 276.992 213.112 C 275.508 211.524 277.579 211.509 278.063 210.71 C 276.61 209.357 276.172 207.593 276.289 205.579 C 275.526 205.389 274.82 205.279 274.151 205.609 C 273.313 206.02 273.146 205.234 272.725 204.894 C 273.03 204.531 273.068 204.055 273.779 203.931 C 277.366 203.307 280.924 202.658 284.589 202.467 C 294.024 201.975 303.461 201.827 312.905 201.725 C 318.555 201.664 324.157 202.019 329.765 202.511 C 331.472 202.661 333.107 201.845 334.797 202.16 C 338.53 202.855 342.292 202.397 346.038 202.5 C 349.458 202.594 352.855 202.06 356.309 202.461 C 362.074 203.132 367.898 202.68 373.684 202.933 C 378.136 203.128 382.605 203.26 387.038 203.666 C 392.655 204.181 398.274 204.643 403.895 205.106 C 409.151 205.539 414.476 205.482 419.643 206.589 C 422.995 207.307 426.423 207.429 429.765 208.334 C 431.687 208.854 433.639 209.502 435.629 209.748 C 436.618 209.87 436.044 210.484 436.328 210.866 C 434.449 210.25 432.505 210.315 430.648 209.822 C 428.607 209.28 426.588 209.116 424.565 210.139 C 423.177 210.842 421.594 210.319 420.196 210.093 C 415.364 209.313 410.498 208.898 405.647 208.321 C 399.92 207.639 394.165 207.332 388.431 206.803 C 383.714 206.367 378.995 206.449 374.299 206.088 C 368.901 205.674 363.506 206.105 358.134 205.731 C 355.224 205.529 352.324 205.523 349.42 205.436 C 347.417 205.377 345.434 206.366 343.368 205.637 C 343.65 205.805 343.931 206.123 344.213 206.122 C 349.212 206.115 354.084 207.477 359.12 207.33 C 362.215 207.24 365.359 207.471 368.462 207.947 C 369.966 208.178 371.453 207.666 373.063 207.88 C 376.662 208.357 380.348 208.209 383.975 208.438 C 389.826 208.808 395.698 208.761 401.517 209.21 C 407.843 209.7 414.15 210.732 420.384 212.206 C 423.305 212.897 426.413 213.298 429.481 213.465 C 429.745 213.48 430.005 213.57 430.229 213.795 C 428.008 213.847 425.821 213.803 423.676 213.402 C 423.4 214.23 424.329 214.038 424.44 214.803 C 419.797 216.002 415.14 213.764 410.567 214.707 C 411.562 215.712 412.967 215.408 414.105 215.427 C 417.519 215.485 420.795 216.349 424.122 216.85 C 425.461 217.052 426.886 216.825 428.168 217.462 C 428.917 217.834 430.328 216.654 430.478 218.447 C 432.357 217.934 433.883 219.545 435.733 219.304 C 437.62 219.057 439.4 219.754 441.219 220.074 C 441.619 220.144 442.217 220.259 442.295 220.856 C 442.385 221.565 441.818 221.738 441.314 221.963 C 439.681 222.692 438.155 221.658 436.56 221.655 C 436.125 221.655 435.625 221.473 435.147 221.488 C 430.614 221.636 426.195 220.576 421.705 220.24 C 418.845 219.907 415.991 219.571 413.135 219.236 C 413.121 219.393 413.106 219.55 413.091 219.707 C 415.954 220.028 418.781 220.725 421.721 220.222 Z " fill="rgb(254,254,254)"/></svg>