<?xml version="1.0" encoding="UTF-8" standalone="no"?><!-- Generator: Gravit.io --><svg xmlns="http://www.w3.org/2000/svg" xmlns:xlink="http://www.w3.org/1999/xlink" style="isolation:isolate" viewBox="47.603 374.878 180.366 49.261" width="180.366pt" height="49.261pt"><path d=" M 89.893 409.292 C 88.227 409.591 86.489 408.862 84.856 409.637 C 86.523 409.342 88.303 410.696 89.893 409.292 Z  M 105.652 410.027 C 105.639 409.909 105.626 409.79 105.614 409.671 C 102.442 409.671 99.269 409.671 96.096 409.671 C 96.097 409.79 96.098 409.909 96.098 410.027 C 99.283 410.027 102.467 410.027 105.652 410.027 Z  M 202.906 384.889 C 198.674 384.393 194.443 383.896 190.212 383.4 C 194.384 384.345 198.573 385.128 202.906 384.889 Z  M 65.365 407.196 C 64.166 406.232 60.968 406.427 59.074 407.589 C 61.273 407.872 63.232 407.891 65.365 407.196 Z  M 124.787 380.951 C 117.32 380.752 109.826 380.398 102.349 381.249 C 109.818 380.932 117.293 381.172 124.787 380.951 Z  M 193.101 413.676 C 184.909 411.66 176.571 411.189 168.228 410.744 C 176.519 411.722 184.81 412.699 193.101 413.676 Z  M 141.737 404.484 C 141.753 404.315 141.768 404.145 141.784 403.976 C 132.906 403.248 124.013 402.913 115.085 403.463 C 123.969 403.803 132.853 404.144 141.737 404.484 Z  M 70.571 414.257 C 71.839 415.188 72.962 415.249 74.059 414.887 C 74.668 414.686 75.259 414.63 75.841 414.702 C 78.796 415.068 81.773 415.21 84.725 415.008 C 88.845 414.726 92.972 414.607 97.081 414.739 C 102.235 414.904 107.396 415.224 112.541 414.977 C 115.191 414.849 117.844 414.963 120.422 415.176 C 125.127 415.567 129.831 415.203 134.535 415.646 C 139.255 416.09 144.028 415.952 148.77 416.207 C 149.48 416.245 150.263 416.278 150.979 416.343 C 153.479 416.571 156.012 416.431 158.182 416.431 C 129.377 413.367 100.153 412.479 70.571 414.257 Z  M 175.647 414.337 C 176.926 414.556 178.183 414.849 179.425 415.001 C 183.984 415.562 188.507 416.296 193.015 417.163 C 194.423 417.435 195.908 417.477 197.309 417.5 C 199.388 417.536 201.153 418.512 203.12 418.806 C 204.112 418.954 203.524 420.483 204.568 420.976 C 202.508 421.76 200.702 420.713 198.801 420.934 C 199.809 422.201 201.191 421.291 202.29 421.791 C 203.255 422.229 204.64 422.011 204.706 423.608 C 200.447 424.56 196.242 424.049 192.009 423.494 C 188.121 422.985 184.2 422.727 180.295 422.342 C 175.795 421.898 171.249 421.985 166.774 421.523 C 160.462 420.87 154.136 420.771 147.819 420.406 C 146.316 420.319 144.815 420.104 143.292 420.135 C 137.243 420.261 131.207 419.599 125.172 419.685 C 122.944 419.716 120.684 419.57 118.453 419.623 C 115.044 419.703 111.579 420.057 108.128 419.493 C 106.574 419.24 104.865 419.654 103.285 419.656 C 99.781 419.661 96.271 420.078 92.74 419.523 C 90.535 419.175 88.22 419.567 85.956 419.545 C 80.31 419.493 74.655 419.763 69.043 418.757 C 67.359 418.455 65.608 418.54 63.96 417.563 C 64.629 416.499 65.874 416.845 66.722 416.097 C 66.641 415.616 65.8 415.636 65.823 415.068 C 65.841 414.422 66.592 414.412 66.895 414.008 C 65.751 413.051 65.751 413.051 66.225 411.932 C 60.544 411.336 54.738 412.452 48.772 411.333 C 49.539 410.133 50.353 410.117 50.995 410.002 C 51.706 409.875 52.381 409.74 53.192 409.344 C 52.051 409.119 50.887 409.336 50.212 408.326 C 50.45 407.435 51.413 408.008 51.856 407.515 C 51.803 406.574 50.71 407.402 50.51 406.716 C 51.728 404.864 53.839 405.194 55.611 404.617 C 53.519 404.572 51.688 403.757 49.742 402.962 C 51.035 401.008 53.156 401.885 55.201 401.206 C 53.194 400.484 51.503 401.059 49.79 400.708 C 49.839 399.432 50.389 398.857 51.703 398.494 C 52.739 398.208 54.035 398.702 54.883 397.57 C 53.071 397.416 51.18 397.926 49.669 396.598 C 50.089 396.014 50.079 395.94 51.685 395.737 C 52.632 395.617 52.768 394.35 53.847 394.513 C 52.728 394.159 51.729 393.748 50.922 393.071 C 50.644 392.254 51.875 392.503 51.668 391.742 C 50.694 391.747 49.698 391.66 48.789 391.179 C 49.223 389.794 50.866 390.54 51.652 389.509 C 50.73 389.509 49.894 389.529 49.059 389.503 C 48.389 389.482 47.598 389.361 47.603 388.557 C 47.608 387.875 48.39 387.833 48.963 387.682 C 51.031 387.139 53.292 387.622 55.26 386.405 C 54.61 385.825 53.836 385.424 52.794 385.444 C 53.258 384.926 53.731 384.711 54.367 384.688 C 53.921 384.262 53.267 384.139 53.464 383.512 C 53.636 382.966 54.155 382.911 54.665 382.946 C 56.296 383.053 57.841 382.326 59.491 382.463 C 56.897 381.784 53.942 383.034 51.574 381.026 C 52.559 379.604 54.125 379.844 55.287 379.77 C 59.601 379.493 63.824 378.603 68.111 378.172 C 73.767 377.605 79.445 377.254 85.078 376.422 C 87.09 376.124 89.175 376.15 91.206 376.096 C 96.677 375.949 102.158 375.751 107.616 375.507 C 111.384 375.338 115.216 375.83 118.962 374.949 C 119.635 374.79 120.369 374.923 121.085 375.102 C 122.787 375.528 124.475 374.914 126.178 374.911 C 134.516 374.897 142.829 375.561 151.156 375.78 C 155.584 375.896 160.002 376.259 164.415 376.497 C 170.625 376.833 176.839 377.502 183.043 378.079 C 187.1 378.457 191.109 379.237 195.207 379.371 C 198.768 379.49 202.297 380.512 205.86 380.659 C 210.195 380.839 214.417 381.704 218.683 382.269 C 221.81 382.682 225.165 382.635 227.969 385.161 C 225.563 385.481 227.249 388.26 225.073 388.885 C 225.664 389.101 225.96 389.209 226.365 389.357 C 225.368 391.32 223.745 391.05 221.986 390.574 C 223.268 392.37 225.837 392.182 227.015 394.622 C 225.372 393.849 224.28 394.901 222.718 394.524 C 223.752 395.421 225.074 395.207 225.547 396.367 C 225.032 398.259 223.369 397.36 221.904 397.667 C 223.295 398.241 224.05 399.182 224.963 400.137 C 222.412 401.705 219.983 399.216 217.477 400.321 C 219.61 400.542 221.691 400.756 222.631 403.057 C 222.434 403.528 221.575 403.445 221.649 404.214 C 221.826 404.631 222.297 404.328 222.564 404.498 C 223.211 404.909 224.514 404.567 224.435 405.771 C 224.369 406.779 223.235 406.497 222.578 406.805 C 223.423 407.442 224.882 407.204 225.248 408.778 C 220.368 409.258 215.544 407.75 211.09 409.314 C 212.566 410.306 214.854 410.781 216.821 412.352 C 215.461 413.153 214.416 413.465 213.185 413.053 C 212.684 412.886 212.117 412.866 211.581 412.867 C 208.726 412.88 205.746 412.361 203.462 414.852 C 204.169 415.454 205.915 414.815 206.049 416.375 C 206.095 416.907 205.737 417.732 204.605 417.537 C 205.108 416.742 204.897 416.161 203.952 416.162 C 200.86 416.169 197.808 415.758 194.743 415.431 C 190.21 414.948 185.664 414.572 181.121 414.186 C 179.309 414.033 177.485 413.773 175.647 414.337 Z " fill="rgb(254,254,254)"/></svg>