<?xml version="1.0" encoding="UTF-8" standalone="no"?><!-- Generator: Gravit.io --><svg xmlns="http://www.w3.org/2000/svg" xmlns:xlink="http://www.w3.org/1999/xlink" style="isolation:isolate" viewBox="263.691 284.274 178.727 61.022" width="178.727pt" height="61.022pt"><g><path d=" M 363.982 334.674 C 352.994 334.979 342.006 335.284 331.018 335.588 C 331.025 335.783 331.032 335.976 331.039 336.17 C 342.019 336.43 352.962 335.556 363.982 334.674 Z  M 373.243 335.743 C 376.217 336.731 379.238 335.98 382.211 336.007 C 385.441 336.036 388.735 336.004 391.988 335.801 C 394.644 335.636 397.295 335.475 399.955 335.476 C 405.242 335.478 410.529 335.466 415.816 335.485 C 416.828 335.489 417.744 335.446 417.998 334.245 C 403.006 333.405 388.125 334.546 373.243 335.743 Z  M 320.093 336.071 C 321.196 335.79 322.094 335.562 323.004 335.33 C 322.015 334.594 320.241 334.458 316.611 335.135 C 314.323 335.562 312.032 335.575 309.757 335.433 C 307.604 335.299 305.251 336.648 303.1 334.595 C 304.36 334.32 304.085 332.637 305.588 332.61 C 304.718 332.008 303.878 332.135 303.125 332.222 C 299.413 332.649 295.682 333.148 291.962 332.871 C 287.434 332.534 282.928 332.924 278.426 333.029 C 275.543 333.096 272.683 332.977 269.812 332.927 C 268.78 332.909 267.792 332.805 266.904 331.89 C 268.683 329.176 271.988 330.394 274.276 328.893 C 273.694 328.205 272.696 328.366 272.045 328.29 C 270.567 328.12 269.692 327.021 268.482 326.484 C 267.856 326.205 267.819 325.455 268.704 325.186 C 269.549 324.928 270.422 324.548 271.275 324.568 C 274.903 324.651 278.474 324.046 282.073 323.8 C 283.037 323.735 283.037 323.731 283.378 322.342 C 278.189 323.078 273.186 322.223 268.165 321.337 C 269.622 319.483 271.78 320.178 274.031 319.395 C 272.251 318.832 270.868 319.163 269.581 318.739 C 268.328 318.326 268.058 317.886 268.969 316.894 C 270.22 315.532 271.613 314.453 273.89 314.7 C 271.744 313.329 269.737 314.85 267.733 314.134 C 270.258 310.791 274.144 311.781 277.46 311.166 C 273.998 308.337 270.256 308.851 266.134 310.181 C 267.149 308.575 268.349 308.059 269.506 307.513 C 269.128 305.504 269.128 305.504 272.686 304.915 C 271.151 304.261 269.41 304.214 267.979 303.35 C 266.887 304.948 265.375 305.519 264.347 304.986 C 263.401 304.493 263.608 304.057 264.154 303.482 C 264.279 303.351 264.408 303.155 264.56 303.129 C 267.184 302.676 269.361 300.839 272.14 300.796 C 275.233 300.748 278.339 300.623 281.287 299.495 C 282.376 299.078 283.675 299.758 284.7 298.819 C 281.76 298.87 279.127 297.592 276.278 297.26 C 277.004 296.628 277.799 296.946 278.517 296.789 C 279.359 296.607 280.695 297.503 280.903 295.737 C 280.927 295.535 281.542 295.327 282.026 295.374 C 286.734 295.825 291.459 295.829 296.179 295.99 C 301.005 296.154 305.85 296.187 310.663 296.251 C 314.788 296.306 319.021 296.51 323.182 295.788 C 324.895 295.491 326.704 295.64 328.462 295.73 C 331.859 295.903 335.223 295.363 338.607 295.355 C 348.569 295.334 358.532 295.348 368.496 295.344 C 368.671 295.344 368.846 295.301 369.125 295.264 C 368.513 294.772 367.886 295.008 367.319 294.993 C 361.781 294.853 356.242 294.779 350.706 294.605 C 344.512 294.409 338.319 293.917 332.129 293.958 C 327.59 293.988 323.023 294.048 318.503 294.01 C 314.748 293.979 310.915 294.549 307.1 293.685 C 305.945 293.423 304.42 293.516 303.067 293.535 C 296.308 293.632 289.557 293.366 282.803 293.171 C 281.355 293.129 280.182 292.139 278.693 292.226 C 280.045 291.135 281.347 290.959 283.086 291.194 C 285.552 291.526 288.118 291.474 290.672 291.073 C 292.877 290.725 295.18 291.062 297.434 290.951 C 300.675 290.79 303.901 291.161 307.129 291.142 C 310.597 291.121 314.032 291.551 317.48 291.617 C 319.203 291.649 320.973 291.514 322.718 291.392 C 323.08 291.367 323.45 291.299 323.805 291.343 C 327.981 291.859 332.186 291.223 336.367 291.681 C 338.13 291.874 339.887 291.499 341.693 291.583 C 345.917 291.779 350.138 292.26 354.386 292.082 C 360.263 291.835 366.131 292.404 372.005 292.519 C 377.37 292.624 382.75 292.88 388.111 293.213 C 391.116 293.401 394.077 293.732 397.087 293.241 C 397.612 293.155 398.693 293.288 398.943 294.056 C 399.478 295.705 400.723 295.728 402.079 295.72 C 405.634 295.701 409.19 295.617 412.714 296.307 C 413.428 296.447 414.223 296.109 414.984 296.086 C 419.456 295.951 423.86 297.011 428.335 296.85 C 431.376 296.741 434.353 297.234 437.277 297.961 C 438.305 298.216 440.038 298.202 439.398 300.273 C 439.306 300.568 439.988 301.101 440.311 301.523 C 439.899 302.355 439.183 302.795 438.467 303.296 C 438.755 304.325 440.434 304.232 440.252 305.739 C 438.621 305.562 438.451 307.513 437.516 307.869 C 437.964 311.429 437.339 314.899 437.058 318.476 C 438.219 319.04 439.861 318.809 440.712 320.244 C 440.09 320.7 439.445 320.393 438.665 320.664 C 439.939 320.909 439.402 321.909 439.752 322.528 C 439.249 322.847 438.763 323.156 438.005 323.637 C 439.678 324.101 441.045 322.892 442.385 323.623 C 442.391 323.736 442.448 323.92 442.397 323.957 C 440.736 325.157 440.454 326.655 441.408 328.425 C 442.004 329.531 441.401 330.014 440.465 330.442 C 438.82 331.194 437.171 331.911 434.997 332.015 C 436.119 333.006 437.328 333.013 437.964 333.929 C 437.041 335.378 435.504 334.858 434.332 334.666 C 431.914 334.272 429.542 334.365 427.136 334.539 C 426.405 334.593 425.613 334.576 424.927 334.35 C 423.673 333.937 422.811 334.358 421.917 335.498 C 426.112 335.214 430.098 336.148 434.153 335.907 C 434.885 335.864 435.812 336.027 436.296 336.908 C 436.603 337.468 436.767 337.929 436.066 338.242 C 436.395 339.041 438.028 338.544 437.622 339.681 C 437.244 340.739 435.951 339.939 435.156 340.337 C 436.132 341.289 437.766 340.615 438.771 341.859 C 438.21 342.519 437.507 342.777 436.654 342.776 C 432.52 342.769 428.384 342.819 424.251 342.76 C 419.129 342.688 414.005 342.386 408.887 342.471 C 406.502 342.51 404.127 342.335 401.748 342.412 C 397.096 342.563 392.443 342.671 387.797 342.926 C 383.717 343.151 379.635 343.207 375.557 343.117 C 367.937 342.949 360.392 344.093 352.79 344.311 C 348.281 344.44 343.751 344.677 339.255 345.042 C 333.915 345.476 328.593 345.204 323.266 345.287 C 321.524 345.315 319.716 345.092 318.101 343.813 C 320.055 342.195 322.794 344.403 324.222 342.143 C 323.185 340.994 321.463 340.566 319.6 339.812 C 321.677 338.96 323.323 339.913 324.973 339.639 C 325.73 339.513 326.824 339.616 326.913 338.751 C 327.036 337.549 326.004 337.269 324.945 337.296 C 323.298 337.339 321.638 337.411 320.093 336.071 Z " fill="rgb(254,254,254)"/><path d=" M 294.207 284.319 C 296.788 284.074 299.316 284.926 301.867 284.711 C 305.297 284.423 308.696 284.984 312.158 284.756 C 317.509 284.405 322.906 285.19 328.293 284.992 C 332.279 284.847 336.261 284.978 340.258 284.74 C 345.387 284.435 350.561 284.867 355.714 285.002 C 360.127 285.117 364.534 284.947 368.959 285.287 C 373.443 285.632 377.977 285.288 382.487 285.382 C 388.04 285.497 393.576 286.017 399.131 286.204 C 401.715 286.291 404.32 286.269 406.904 286.47 C 410.059 286.716 413.244 286.709 416.34 287.53 C 416.874 287.671 417.333 287.853 417.839 288.229 C 417.288 289.222 416.398 289.347 415.409 289.385 C 408.86 289.638 402.317 289.223 395.79 288.924 C 389.393 288.631 382.996 288.468 376.602 288.199 C 372.217 288.015 367.818 288.232 363.46 287.864 C 356.526 287.278 349.587 287.879 342.674 287.452 C 340.861 287.341 339.124 287.576 337.351 287.558 C 331.356 287.497 325.361 287.263 319.374 287.065 C 316.052 286.954 312.771 287.145 309.47 287.177 C 305.452 287.217 301.432 287.216 297.413 287.174 C 295.242 287.152 294.47 286.427 294.207 284.319 Z " fill="rgb(254,254,254)"/></g></svg>