<?xml version="1.0" encoding="UTF-8" standalone="no"?><!-- Generator: Gravit.io --><svg xmlns="http://www.w3.org/2000/svg" xmlns:xlink="http://www.w3.org/1999/xlink" style="isolation:isolate" viewBox="479.523 374.878 194.368 65.437" width="194.368pt" height="65.437pt"><path d=" M 663.964 381.993 C 663.801 382.458 663.49 382.628 662.977 382.662 C 663.685 383.435 664.278 384.081 664.876 384.733 C 663.564 385.923 663.03 384.196 662.145 383.965 C 661.679 384.924 663.13 385.241 662.484 386.094 C 661.384 386.041 660.228 385.985 658.623 385.908 C 659.879 387.362 661.524 387.1 662.592 387.967 C 661.901 389.808 659.946 387.464 659.089 389.066 C 660.095 389.103 660.991 389.351 661.866 389.692 C 661.197 391.309 661.89 394.111 658.01 392.942 C 658.986 393.851 659.458 394.289 659.988 394.784 C 659.783 395.08 659.561 395.399 659.289 395.79 C 659.795 396.09 660.231 396.349 660.674 396.613 C 660.512 396.9 660.349 397.187 660.132 397.57 C 661.3 397.753 662.208 398.094 661.795 399.651 C 660.352 397.714 659.304 401.415 657.859 399.413 C 657.647 400.434 658.452 400.531 658.539 401.209 C 657.45 401.69 655.934 401.033 654.986 402.281 C 655.841 402.609 656.689 402.934 657.628 403.293 C 656.508 404.639 654.297 402.165 653.764 404.75 C 654.627 404.897 655.53 405.113 656.444 405.189 C 657.378 405.266 658.322 405.205 659.414 405.205 C 658.937 406.639 657.528 405.044 657.189 406.337 C 657.964 406.991 658.978 406.991 659.963 407.301 C 657.689 408.401 654.812 406.565 652.961 408.732 C 656.381 409.359 660.018 409.874 663.576 410.723 C 667.053 411.551 671.072 410.876 673.891 414.082 C 672.908 414.775 672.12 413.551 671.214 414.1 C 671.392 414.882 672.609 414.767 672.685 415.745 C 671.085 415.377 671.065 416.875 670.459 417.686 C 669.741 418.647 671.225 418.667 671.26 419.316 C 670.689 420.206 669.747 419.534 669.04 419.936 C 669.089 420.897 670.83 420.214 670.61 421.437 C 670.444 422.361 669.586 422.399 668.935 422.447 C 668.839 423.372 669.735 423.276 669.926 423.94 C 669.243 424.399 668.429 424.033 667.705 424.229 C 667.098 425.126 669.55 426.085 667.586 426.98 C 668.17 427.249 668.684 427.488 669.176 427.715 C 669.096 428.515 668.457 428.494 667.964 428.682 C 668.444 429.303 669.446 429.266 669.811 430.504 C 667.696 429.312 666.873 432.082 665.003 431.666 C 663.768 434.315 661.713 432.615 660.06 432.486 C 657.395 432.277 654.693 431.2 652.126 431.501 C 649.921 431.76 647.815 431.878 645.589 431.632 C 647.561 432.449 649.678 432.833 651.187 434.271 C 650.209 434.232 649.989 435.183 649.569 436.189 C 649.955 436.46 650.401 436.775 650.916 437.137 C 651.573 436.975 652.491 436.258 653.081 437.701 C 649.533 438.762 646.004 437.885 642.507 438.062 C 642.356 438.878 643.661 439.092 643.166 440.072 C 641.393 440.695 639.573 439.943 637.778 439.774 C 634.686 439.484 631.615 438.99 628.51 438.734 C 625.301 438.47 622.1 438.019 618.923 437.48 C 617.38 437.218 615.807 437.142 614.283 437.032 C 609.671 436.699 605.069 436.25 600.465 435.829 C 596.154 435.435 591.834 435.301 587.515 435.067 C 582.82 434.812 578.124 434.595 573.43 434.33 C 567.884 434.017 562.333 433.881 556.792 433.576 C 553.1 433.372 549.417 433.284 545.732 433.324 C 540.075 433.384 534.438 433.833 528.795 434.301 C 524.288 434.675 519.735 435.063 515.196 434.717 C 514.045 434.629 512.725 434.343 511.849 433.671 C 510.808 432.872 509.792 432.953 508.701 432.936 C 504.501 432.867 500.295 432.502 496.115 433.291 C 493.274 433.827 490.412 434.121 487.509 434.046 C 486.474 434.02 485.931 433.739 486.174 432.576 C 484.015 432.584 481.921 432.567 480.243 431.013 C 481.402 430.924 482.603 431.632 483.583 430.55 C 482.749 429.868 481.503 430.269 480.552 429.505 C 481.63 428.951 482.685 430.013 483.542 429.159 C 482.882 428.401 482.43 427.704 484.018 427.404 C 484.874 427.242 485.689 426.87 486.609 426.566 C 485.187 425.459 483.575 426.347 481.939 425.795 C 482.936 424.208 484.645 424.523 486 424.055 C 485.662 423.607 485.184 423.818 484.791 423.838 C 484.388 423.86 484.002 424.093 483.595 424.162 C 482.921 424.278 481.988 424.132 481.899 423.592 C 481.795 422.954 482.332 422.284 483.303 422.331 C 484.246 422.378 485.086 421.74 486.083 421.863 C 484.74 421.483 483.291 421.902 482.027 420.918 C 482.829 419.398 484.722 420.276 485.782 419.273 C 485.159 418.782 484.377 419.322 483.767 418.809 C 483.035 418.192 483.041 417.706 483.872 417.232 C 483.296 416.538 482.852 417.147 482.381 417.215 C 481.897 417.285 481.397 417.319 481.094 416.785 C 481.259 415.862 482.108 415.824 482.763 415.388 C 481.7 415.388 480.635 415.388 479.617 415.388 C 479.389 414.653 479.571 414.417 480.227 414.308 C 482.043 414.004 483.85 413.29 485.646 413.335 C 487.069 413.37 487.468 411.986 488.653 411.941 C 488.01 411.759 487.37 411.629 486.777 411.141 C 487.44 409.539 488.987 409.608 490.23 409.64 C 492.361 409.696 494.427 409.141 496.541 409.226 C 497.08 409.247 497.457 409.014 497.788 408.682 C 497.042 407.731 495.042 410.126 494.797 407.337 C 496.825 407.84 498.362 406.583 500.113 406.153 C 500.037 405.404 499.197 405.742 498.81 405.252 C 499.685 403.576 501.463 404.045 502.833 403.585 C 501.306 402.803 499.485 403.341 497.774 402.525 C 498.742 401.982 499.547 401.531 500.452 401.023 C 497.207 400.213 494.032 400.554 490.601 400.424 C 491.912 398.576 493.919 398.951 495.382 398.116 C 493.893 397.846 492.314 398.176 491.136 396.879 C 493.106 395.91 495.312 396.061 497.488 396.101 C 498.674 396.123 499.434 395.864 499.088 394.388 C 496.419 393.95 493.7 394.488 490.769 394.52 C 492.122 392.587 494.022 393.49 495.835 392.876 C 493.979 391.879 492.38 393.533 490.73 392.463 C 491.375 389.111 494.665 391.496 496.047 389.939 C 494.239 389.939 492.3 389.939 490.362 389.939 C 490.346 389.788 490.33 389.637 490.313 389.487 C 494.52 388.251 499.01 388.381 503.222 387.128 C 499.871 387.082 496.552 386.098 493.2 386.949 C 492.744 387.065 492.231 386.967 491.745 386.952 C 491.276 386.939 490.868 386.731 490.867 386.242 C 490.867 385.76 491.28 385.618 491.733 385.5 C 493.392 385.065 495.078 385.129 496.761 385.15 C 497.609 385.16 498.429 385.14 499.149 384.606 C 496.099 383.589 492.838 385.624 489.685 384.097 C 490.674 382.443 492.292 382.933 493.507 382.671 C 497.018 381.918 500.634 381.806 504.202 381.414 C 508.787 380.911 513.429 380.984 517.969 380.056 C 518.261 379.996 518.575 380.034 518.88 380.036 C 526.199 380.105 533.481 378.994 540.806 379.324 C 541.792 379.367 542.585 378.861 543.326 378.492 C 544.996 377.657 546.644 377.176 548.528 377.19 C 552.514 377.22 556.492 376.832 560.476 376.685 C 567.017 376.443 573.539 375.711 580.077 375.325 C 584.423 375.068 588.783 374.988 593.138 374.942 C 599.046 374.88 604.957 374.831 610.863 374.954 C 616.308 375.068 621.754 375.345 627.19 375.68 C 632.214 375.991 637.22 376.621 642.207 377.22 C 648.266 377.948 654.429 378.353 660.254 380.59 C 661.45 381.049 662.74 381.33 663.964 381.993 Z " fill="rgb(254,254,254)"/></svg>