<?xml version="1.0" encoding="UTF-8" standalone="no"?><!-- Generator: Gravit.io --><svg xmlns="http://www.w3.org/2000/svg" xmlns:xlink="http://www.w3.org/1999/xlink" style="isolation:isolate" viewBox="396.959 32.896 120.54 52.915" width="120.54pt" height="52.915pt"><path d=" M 445.974 84.118 C 445.97 84.187 445.965 84.256 445.961 84.326 C 446.012 84.313 446.073 84.313 446.111 84.284 C 446.132 84.267 446.12 84.205 446.122 84.164 C 446.073 84.148 446.023 84.133 445.974 84.118 Z  M 426.798 34.72 C 426.897 34.788 426.994 34.905 427.094 34.909 C 427.193 34.913 427.296 34.802 427.398 34.741 C 427.297 34.673 427.198 34.606 427.098 34.538 C 426.997 34.599 426.898 34.66 426.798 34.72 Z  M 502.161 46.979 C 502.056 46.944 501.952 46.91 501.847 46.876 C 501.934 46.926 502.02 46.977 502.108 47.026 C 502.11 47.025 502.161 46.979 502.161 46.979 Z  M 502.11 47.025 L 502.199 47.139 L 502.161 46.979 L 502.11 47.025 Z  M 504.181 46.927 C 504.185 46.927 504.186 46.794 504.182 46.794 C 504.071 46.785 503.958 46.784 503.846 46.783 C 503.846 46.833 503.846 46.883 503.846 46.933 C 503.96 46.933 504.071 46.935 504.181 46.927 Z  M 423.87 83.947 C 423.475 83.502 422.937 83.715 422.463 83.65 C 422.466 83.648 422.512 83.612 422.515 83.609 C 422.98 83.707 423.443 83.807 423.905 83.907 C 423.905 83.907 423.871 83.945 423.87 83.947 Z  M 423.905 83.907 C 423.831 84.247 424.084 84.352 424.329 84.371 C 424.459 84.381 424.617 84.231 424.734 84.125 C 424.752 84.108 424.623 83.851 424.562 83.851 C 424.331 83.849 424.101 83.909 423.871 83.945 L 423.905 83.907 Z  M 405.565 75.312 C 405.445 75.281 405.322 75.219 405.206 75.229 C 405.124 75.235 405.053 75.341 404.977 75.402 C 405.135 75.491 405.293 75.58 405.462 75.675 C 405.504 75.526 405.535 75.419 405.565 75.312 Z  M 401.976 39.894 C 401.928 39.897 401.884 39.962 401.837 39.999 C 401.908 40.063 401.992 40.193 402.043 40.182 C 402.218 40.143 402.382 40.054 402.782 39.889 C 402.345 39.889 402.161 39.881 401.976 39.894 Z  M 426.308 84.606 C 426.435 84.744 426.547 84.903 426.699 85.007 C 426.745 85.039 426.901 84.916 427.006 84.865 C 426.914 84.719 426.82 84.573 426.734 84.437 C 426.542 84.513 426.425 84.559 426.308 84.606 Z  M 422.463 83.65 C 422.259 82.866 422.263 82.858 421.396 82.992 C 421.576 83.532 422.03 83.595 422.512 83.612 C 422.512 83.612 422.466 83.648 422.463 83.65 Z  M 440.499 84.009 C 440.422 84.006 440.336 84.171 440.255 84.259 C 440.362 84.313 440.48 84.428 440.574 84.411 C 440.885 84.357 441.189 84.255 441.585 84.147 C 441.156 84.087 440.829 84.023 440.499 84.009 Z  M 429.422 85.375 C 429.715 85.315 429.891 85.171 429.821 84.817 C 429.146 84.616 428.472 84.614 427.349 84.96 C 428.31 85.197 428.802 85.5 429.422 85.375 Z  M 498.645 48.032 C 499.16 48.032 499.577 48.032 500.446 48.032 C 499.225 47.41 499.225 47.41 498.645 48.032 Z  M 429.132 83.152 C 428.118 82.941 427.101 82.729 425.63 82.422 C 426.958 83.4 428.062 83.632 429.347 83.976 C 429.211 83.549 429.137 83.318 429.064 83.087 C 429.064 83.087 429.13 83.15 429.132 83.152 Z  M 443.491 84.667 C 443.512 85.164 443.088 85.097 442.891 85.307 C 442.835 85.367 442.897 85.531 442.907 85.685 C 443.489 85.848 444.06 85.914 444.657 85.495 C 444.596 85.023 444.535 84.543 444.472 84.057 C 443.914 83.927 443.462 84.039 443.491 84.667 Z  M 413.346 34.871 C 412.605 33.536 411.226 33.513 410.09 32.896 C 409.938 33.224 409.838 33.438 409.612 33.927 C 411.002 34.173 411.912 35.182 413.346 34.871 Z  M 434.108 35.087 C 432.977 34.94 432.123 34.622 431.384 34.787 C 430.444 34.997 429.664 34.367 428.789 34.599 C 428.679 34.628 428.59 34.734 428.492 34.805 C 429.496 35.575 430.058 35.61 434.108 35.087 Z  M 437.094 83.905 C 436.287 83.897 435.477 83.936 434.67 83.9 C 434.426 83.889 434.194 83.628 433.967 83.946 C 433.815 84.16 434.116 84.456 434.587 84.508 C 435.096 84.565 435.609 84.586 436.244 84.631 C 435.952 85.048 435.721 85.379 435.438 85.784 C 436.937 85.984 437.516 84.903 438.619 83.998 C 437.883 83.952 437.489 83.909 437.094 83.905 Z  M 482.159 80.119 L 482.321 80.206 L 482.346 80.078 L 482.159 80.119 Z  M 403.144 42.797 C 403.039 42.777 402.937 42.758 402.834 42.739 C 402.878 42.782 402.917 42.852 402.968 42.861 C 403.02 42.871 403.083 42.822 403.144 42.797 Z  M 509.91 53.223 C 509.872 53.186 509.836 53.116 509.797 53.115 C 509.673 53.11 509.549 53.131 509.425 53.142 C 509.472 53.207 509.522 53.327 509.565 53.325 C 509.682 53.318 509.797 53.259 509.91 53.223 Z  M 505.483 53.228 C 505.462 53.18 505.448 53.095 505.418 53.09 C 505.292 53.069 505.163 53.072 505.034 53.066 C 505.06 53.146 505.086 53.295 505.113 53.295 C 505.237 53.296 505.36 53.255 505.483 53.228 Z  M 508.792 50.015 C 509.097 50.26 509.394 50.451 509.7 50.059 C 509.569 50.009 509.454 49.93 509.338 49.93 C 509.156 49.93 508.974 49.984 508.792 50.015 Z  M 486.307 80.029 C 486.289 80.089 486.271 80.148 486.253 80.209 C 486.598 80.209 486.944 80.209 487.289 80.209 C 487.289 80.178 487.289 80.148 487.29 80.117 C 486.962 80.088 486.635 80.058 486.307 80.029 Z  M 500.485 52.718 C 500.497 52.813 500.508 52.909 500.521 53.004 C 501.174 52.974 501.829 52.944 502.483 52.915 C 502.48 52.849 502.477 52.784 502.474 52.718 C 501.811 52.718 501.148 52.718 500.485 52.718 Z  M 415.809 40.917 C 414.311 40.587 412.826 39.856 411.173 40.832 C 411.99 40.977 412.686 40.969 413.399 40.928 C 414.2 40.881 415.005 40.917 415.809 40.917 Z  M 429.13 83.15 C 428.586 82.782 428.084 82.319 427.488 82.072 C 426.882 81.821 426.185 81.783 425.458 81.638 C 425.244 81.773 424.965 81.949 424.693 82.122 C 424.549 82.106 424.409 82.112 424.283 82.073 C 423.238 81.749 422.19 81.434 421.156 81.082 C 420.252 80.775 419.399 80.434 418.72 79.673 C 418.257 79.154 417.516 78.871 416.752 78.39 C 417.526 78.263 418.18 78.242 418.763 78.031 C 419.183 77.88 419.507 77.476 419.984 77.096 C 419.694 76.757 419.452 76.474 419.172 76.147 C 419.223 75.931 419.29 75.647 419.382 75.263 C 418.586 75.224 417.856 75.188 417.128 75.152 C 417.012 75.469 416.923 75.709 416.791 76.068 C 415.267 76.086 413.724 75.962 412.212 75.522 C 411.821 75.407 411.422 75.188 411.036 75.205 C 409.099 75.293 407.27 74.596 405.36 74.522 C 405.091 74.512 404.799 74.48 404.564 74.367 C 403.027 73.634 401.296 73.5 399.731 72.865 C 399.164 72.634 398.574 72.42 398.072 72.086 C 397.694 71.834 397.36 71.445 397.15 71.045 C 396.719 70.222 397.037 69.483 397.921 69.095 C 398.165 68.987 398.45 68.967 398.725 68.904 C 398.777 68.719 398.82 68.526 398.886 68.342 C 398.953 68.159 399.042 67.984 399.152 67.737 C 398.627 67.463 398.12 67.197 397.548 66.898 C 397.7 66.661 397.763 66.424 397.903 66.368 C 398.334 66.194 398.795 66.088 399.27 65.948 C 399.304 65.519 399.327 65.131 399.369 64.745 C 399.412 64.356 399.475 63.969 399.529 63.587 C 398.755 63.23 398.045 62.902 397.046 62.44 C 397.757 62.311 398.161 62.238 398.673 62.145 C 398.487 61.614 398.345 61.211 398.168 60.711 C 398.741 60.672 399.202 60.641 399.657 60.609 C 399.703 60.481 399.807 60.344 399.773 60.263 C 399.592 59.832 399.357 59.44 399.62 58.938 C 400.114 57.991 399.865 57.272 398.848 56.826 C 398.74 56.778 398.683 56.62 398.603 56.514 C 398.966 54.305 398.966 54.305 398.614 53.195 C 398.853 53.117 399.095 53.038 399.336 52.959 C 398.534 51.619 398.598 50.554 399.847 49.51 C 400.512 48.954 401.19 48.582 400.886 47.598 C 401.522 46.703 401.245 45.709 401.206 44.742 C 401.196 44.484 401.061 44.128 401.186 43.984 C 401.874 43.192 401.539 42.241 401.68 41.256 C 402.312 40.852 402.987 40.419 403.694 39.966 C 403.574 39.321 403.817 38.847 404.478 38.58 C 405.321 38.24 406.207 37.982 407.081 38.267 C 408.226 38.641 409.392 38.615 410.542 38.563 C 411.844 38.504 413.136 38.441 414.434 38.584 C 414.634 38.606 414.895 38.647 415.035 38.551 C 416.06 37.843 417.137 38.215 418.208 38.354 C 418.614 38.407 419.034 38.48 419.433 38.433 C 422.368 38.089 425.163 38.753 427.908 39.611 C 429.825 40.211 431.749 40.525 433.759 40.522 C 436.295 40.519 438.835 40.539 441.367 40.674 C 444.095 40.82 446.815 41.115 449.539 41.336 C 450.353 41.401 451.171 41.54 451.956 41.124 C 452.174 41.008 452.523 40.953 452.742 41.039 C 453.742 41.433 454.765 41.3 455.791 41.277 C 456.127 41.27 456.508 41.284 456.794 41.427 C 457.447 41.756 458.141 41.733 458.795 41.642 C 459.449 41.551 459.999 41.671 460.585 41.895 C 460.956 42.037 461.385 42.157 461.769 42.115 C 463.29 41.949 464.758 42.147 466.223 42.531 C 467.962 42.988 469.726 43.092 471.52 42.857 C 472.467 42.732 473.405 42.748 474.328 43.153 C 474.808 43.363 475.393 43.366 475.935 43.418 C 478.384 43.651 480.829 43.912 483.236 44.431 C 483.489 44.486 483.84 44.506 483.962 44.671 C 484.508 45.41 485.196 45.402 485.968 45.161 C 487.173 44.785 488.358 44.596 489.432 45.512 C 489.515 45.583 489.768 45.615 489.808 45.564 C 490.398 44.815 490.824 45.554 491.334 45.677 C 491.787 45.785 492.288 45.776 492.756 45.724 C 494.039 45.583 494.157 45.628 495.788 46.033 C 496.709 46.262 497.683 46.285 498.631 46.414 C 499.094 46.476 499.553 46.567 500.233 46.682 C 499.219 47.358 498.241 46.702 497.331 47.162 C 497.414 47.529 497.506 47.938 497.628 48.482 C 498.093 48.565 498.619 48.713 499.15 48.741 C 500.928 48.831 502.708 48.878 504.488 48.94 C 504.762 48.95 505.058 48.893 505.307 48.976 C 506.973 49.531 508.695 49.316 510.398 49.367 C 511.066 49.387 511.739 49.278 512.234 49.975 C 512.407 50.219 512.988 50.173 513.371 50.293 C 513.732 50.406 514.227 50.255 514.442 50.872 C 513.019 51.42 511.512 51.27 510.054 51.359 C 508.483 51.454 506.901 51.375 505.325 51.408 C 503.832 51.44 502.34 51.518 500.866 51.575 C 500.799 52.137 501.153 52.088 501.381 52.09 C 502.34 52.099 503.302 52.101 504.26 52.058 C 507.002 51.934 509.731 52.081 512.457 52.364 C 513.272 52.449 514.098 52.423 514.918 52.447 C 515.248 52.457 515.591 52.429 515.908 52.728 C 515.331 53.254 514.697 53.039 514.122 53.086 C 513.607 53.128 513.062 52.921 512.418 53.242 C 513.141 53.948 514.166 53.12 514.706 54.017 C 514.702 54.389 514.293 54.311 513.996 54.347 C 513.401 54.418 512.768 54.098 512.208 54.511 C 512.032 55.118 512.572 55.212 512.895 55.289 C 513.488 55.429 514.124 55.381 514.727 55.491 C 515.417 55.617 515.863 56.168 515.643 56.798 C 515.193 58.091 515.901 59.3 515.796 60.557 C 515.783 60.722 515.929 61.002 516.074 61.062 C 517.042 61.463 516.941 62.494 517.499 63.272 C 516.839 63.637 516.153 63.893 515.801 64.73 C 515.432 65.609 515.747 66.277 516.002 67.113 C 515.547 67.416 515.118 67.703 514.747 67.95 C 514.747 68.658 514.805 69.322 514.733 69.972 C 514.647 70.746 514.723 71.414 515.315 72.005 C 516.03 72.719 515.754 73.462 515.247 74.266 C 511.257 75.096 507.195 75.58 502.668 75.565 C 503.551 76.036 504.111 76.063 504.66 76.006 C 505.46 75.924 506.097 76.269 506.798 76.558 C 507.425 76.816 507.433 77.359 507.799 77.876 C 508.811 77.876 509.895 77.876 510.982 77.876 C 511.23 78.19 511.478 78.505 511.722 78.815 C 511.665 78.928 511.642 79.072 511.563 79.112 C 511.328 79.234 510.929 79.25 510.847 79.422 C 510.506 80.139 509.835 80.152 509.212 80.411 C 508.162 80.845 507.116 80.923 506.022 80.938 C 504.662 80.957 503.305 81.044 501.929 81.166 C 502.091 81.799 502.516 81.828 502.92 81.842 C 504.496 81.895 506.073 81.919 507.648 81.98 C 508.274 82.003 508.273 82.033 508.473 83.134 C 506.65 83.723 504.749 83.779 502.851 83.828 C 498.805 83.932 494.786 83.594 490.757 83.268 C 487.285 82.985 483.808 82.637 480.303 82.767 C 478.739 82.825 477.164 82.545 475.591 82.487 C 474.432 82.444 473.265 82.468 472.107 82.541 C 470.331 82.653 468.557 82.819 466.786 82.989 C 464.674 83.192 462.555 83.361 460.46 83.678 C 459.746 83.786 458.756 83.615 458.409 84.612 C 457.531 84.664 456.654 84.739 455.777 84.754 C 455.524 84.758 455.272 84.577 455.014 84.498 C 453.997 84.185 453.699 84.266 452.657 85.141 C 452.296 84.918 451.952 84.574 451.545 84.481 C 450.945 84.341 450.957 85.137 450.515 85.31 C 449.589 84.346 448.166 85.031 447.077 84.288 C 447.497 83.602 448.669 84.326 448.903 83.333 C 448.838 82.951 448.439 82.959 448.142 82.948 C 446.294 82.881 444.446 82.785 442.599 82.818 C 439.182 82.88 435.775 82.724 432.367 82.528 C 431.957 82.504 431.548 82.482 431.052 82.454 C 431.206 82.764 431.329 83.01 431.471 83.298 C 430.631 83.224 429.848 83.156 429.064 83.087 L 429.13 83.15 Z " fill="rgb(254,254,254)"/></svg>