<?xml version="1.0" encoding="UTF-8" standalone="no"?><!-- Generator: Gravit.io --><svg xmlns="http://www.w3.org/2000/svg" xmlns:xlink="http://www.w3.org/1999/xlink" style="isolation:isolate" viewBox="68.955 297.906 121.458 37.615" width="121.458pt" height="37.615pt"><path d=" M 185.683 319.697 C 185.79 319.731 185.891 319.785 185.996 319.794 C 186.047 319.799 186.105 319.721 186.161 319.68 C 186.107 319.69 186.054 319.71 186 319.71 C 185.897 319.71 185.794 319.698 185.691 319.692 C 185.691 319.692 185.679 319.697 185.683 319.697 Z  M 185.691 319.692 C 185.657 319.789 185.596 319.887 185.598 319.983 C 185.599 320.033 185.713 320.08 185.775 320.128 C 185.794 320.079 185.841 320.021 185.827 319.983 C 185.791 319.884 185.73 319.792 185.679 319.697 L 185.691 319.692 Z  M 70.283 329.521 L 70.419 329.477 L 70.291 329.418 L 70.283 329.521 Z  M 184.432 320.34 C 184.394 320.347 184.377 320.47 184.352 320.539 C 184.4 320.549 184.463 320.581 184.494 320.563 C 184.574 320.516 184.639 320.445 184.71 320.384 C 184.617 320.365 184.519 320.324 184.432 320.34 Z  M 161.828 299.416 C 161.768 299.329 161.727 299.204 161.643 299.165 C 161.56 299.126 161.435 299.174 161.328 299.185 C 161.388 299.319 161.447 299.454 161.51 299.596 C 161.647 299.519 161.737 299.468 161.828 299.416 Z  M 82.139 299.402 C 81.889 299.42 81.635 299.419 81.391 299.465 C 81.319 299.479 81.229 299.632 81.234 299.715 C 81.238 299.773 81.404 299.882 81.474 299.866 C 81.716 299.813 81.948 299.715 82.184 299.634 C 82.169 299.557 82.154 299.479 82.139 299.402 Z  M 75.078 300.205 C 75.076 300.386 75.197 300.64 75.349 300.731 C 75.554 300.854 75.979 300.507 75.923 300.255 C 75.882 300.072 75.69 299.922 75.462 299.619 C 75.272 299.893 75.079 300.048 75.078 300.205 Z  M 187.504 319.434 C 188.37 319.09 189.233 318.738 190.083 318.36 C 190.223 318.299 190.299 318.103 190.413 317.958 C 189.239 317.904 189.239 317.904 187.192 319.338 C 187.297 319.373 187.426 319.464 187.504 319.434 Z  M 83.991 299.522 C 85.353 298.687 85.368 298.789 86.445 298.642 C 87.434 298.507 88.472 298.881 89.421 298.341 C 89.602 298.238 89.923 298.228 90.116 298.311 C 90.711 298.57 91.271 298.514 91.849 298.288 C 91.953 298.247 92.105 298.233 92.201 298.278 C 93.292 298.784 94.316 298.23 95.349 298.067 C 96.485 297.888 97.593 297.821 98.722 298.063 C 99.062 298.136 99.428 298.103 99.782 298.098 C 100.615 298.087 101.451 298.014 102.281 298.054 C 103.891 298.133 105.498 298.26 107.104 298.393 C 108.112 298.477 109.116 298.607 110.121 298.722 C 111.61 298.89 113.098 299.077 114.597 298.819 C 115.516 298.662 116.387 298.876 117.232 299.18 C 117.689 299.344 118.108 299.413 118.612 299.379 C 119.439 299.321 120.281 299.499 121.113 299.469 C 122.493 299.418 123.825 299.646 125.157 299.938 C 125.445 300 125.755 299.966 126.054 299.983 C 128.505 300.13 130.956 300.278 133.407 300.427 C 135.2 300.535 136.99 300.679 138.784 300.737 C 139.411 300.758 140.009 300.676 140.637 300.296 C 141.657 299.68 142.894 299.569 144.106 299.78 C 144.31 299.815 144.474 300.057 144.732 300.264 C 146.276 299.356 148.033 299.657 149.743 299.678 C 150.401 299.686 151.04 299.737 151.701 299.62 C 152.282 299.518 152.895 299.546 153.492 299.567 C 154.457 299.602 155.395 299.563 156.141 298.997 C 156.345 299.029 156.487 299.014 156.574 299.072 C 157.153 299.465 157.668 300.029 158.308 300.233 C 158.958 300.442 159.728 300.3 160.446 300.315 C 161.765 300.345 163.084 300.375 164.403 300.406 C 165.004 300.421 165.593 300.423 166.052 300.926 C 166.439 301.351 166.994 301.386 167.549 301.375 C 167.961 301.366 168.382 301.341 168.787 301.403 C 170.265 301.631 171.73 301.944 173.214 302.115 C 173.83 302.186 174.109 302.828 174.803 302.738 C 175.375 302.663 175.979 302.813 176.489 302.856 C 176.625 303.051 176.752 303.148 176.747 303.237 C 176.687 304.094 177.231 304.357 177.967 304.408 C 178.624 304.454 179.285 304.451 179.943 304.484 C 180.356 304.505 180.768 304.552 181.44 304.609 C 181.113 304.878 180.983 305.073 180.822 305.101 C 180.175 305.213 179.517 305.26 178.866 305.357 C 178.182 305.46 177.449 305.464 176.785 306.132 C 178.784 306.655 180.732 306.188 182.547 306.661 C 182.588 307.232 182.236 307.303 181.876 307.335 C 180.276 307.475 178.674 307.601 177.074 307.742 C 176.84 307.764 176.613 307.846 176.348 307.908 C 176.277 308.47 176.632 308.628 177.061 308.687 C 178.182 308.84 179.307 308.968 180.428 309.12 C 180.656 309.151 180.873 309.249 181.197 309.347 C 180.893 309.545 180.682 309.684 180.459 309.828 C 180.547 309.928 180.603 310.054 180.679 310.066 C 181.384 310.185 182.089 310.344 182.8 310.373 C 183.739 310.413 184.496 310.795 185.242 311.358 C 184.589 312.186 183.576 311.728 182.786 312.002 C 182.86 312.531 182.86 312.531 183.703 312.67 C 183.592 312.714 183.517 312.767 183.438 312.773 C 182.549 312.854 181.659 312.926 180.742 313.14 C 180.971 313.19 181.197 313.259 181.429 313.29 C 182.889 313.49 184.429 313.289 185.744 314.217 C 186.036 314.422 186.536 314.351 186.909 314.402 C 187.15 315.611 187.147 315.645 186.419 316.056 C 186.073 316.252 185.705 316.411 185.376 316.572 C 185.457 317.476 186.462 317.042 186.725 317.631 C 185.857 318.109 184.988 318.589 184.119 319.067 C 183.963 319.153 183.723 319.195 183.658 319.322 C 183.115 320.386 182.095 320.211 181.154 320.278 C 179.423 320.402 177.692 320.532 175.965 320.697 C 175.505 320.741 175.06 320.92 174.27 321.123 C 176.015 321.435 177.433 321.362 178.834 321.364 C 179.946 321.366 180.864 321.862 181.852 322.192 C 181.927 322.217 181.951 322.384 182.019 322.527 C 181.776 322.741 181.523 322.964 181.255 323.199 C 181.607 323.327 181.921 323.441 182.387 323.61 C 181.534 324.376 180.577 323.979 179.762 324.169 C 178.919 324.365 178.025 324.358 177.166 324.604 C 177.366 325.253 177.792 325.057 178.091 325.104 C 178.503 325.168 178.928 325.163 179.347 325.186 C 179.706 325.205 180.067 325.208 180.425 325.239 C 180.764 325.27 181.101 325.327 181.574 325.392 C 181.388 325.647 181.325 325.839 181.212 325.872 C 180.139 326.188 179.268 326.72 178.987 327.763 C 177.688 328.2 176.269 327.757 175.141 328.698 C 176.015 329.237 176.857 328.776 177.685 328.892 C 177.588 329.033 177.542 329.179 177.477 329.187 C 174.212 329.619 170.941 330.003 167.683 330.475 C 165.876 330.736 164.111 331.213 162.377 331.784 C 161.926 331.934 161.458 332.05 160.989 332.134 C 156.863 332.877 152.727 333.538 148.538 333.87 C 145.373 334.12 142.224 334.554 139.06 334.804 C 136.014 335.046 132.957 335.154 129.905 335.327 C 128.887 335.385 127.871 335.495 126.852 335.514 C 125.716 335.536 124.578 335.506 123.442 335.449 C 122.853 335.42 122.276 335.35 121.849 334.803 C 121.673 334.577 121.221 334.491 120.883 334.458 C 119.63 334.336 118.373 334.252 117.116 334.175 C 116.384 334.131 115.723 334.017 115.169 333.454 C 114.699 332.977 114.095 332.71 113.397 333.134 C 113.313 333.185 113.129 333.189 113.061 333.135 C 112.349 332.566 111.752 332.92 111.101 333.282 C 110.318 333.719 109.186 333.52 108.501 332.911 C 108.327 332.757 108.153 332.603 107.936 332.41 C 107.598 332.533 107.273 332.652 106.853 332.806 C 106.228 332.351 105.472 332.032 104.617 332.019 C 104.143 332.012 103.738 332.03 103.377 332.501 C 103.01 332.979 102.248 332.99 101.754 332.689 C 101.452 332.505 101.215 332.216 100.906 332.049 C 100.604 331.886 100.245 331.719 99.915 331.725 C 98.071 331.762 96.272 331.347 94.417 331.331 C 91.922 331.309 89.416 330.949 86.941 330.566 C 85.301 330.313 83.736 330.477 82.183 330.867 C 81.56 331.024 81.034 331.015 80.442 330.835 C 79.3 330.488 78.147 330.167 76.985 329.892 C 76.354 329.742 75.693 329.709 75.037 329.623 C 74.921 329.978 74.837 330.236 74.741 330.534 C 74.217 330.707 73.709 330.462 73.563 330.071 C 73.252 329.237 72.569 329.165 71.865 328.998 C 71.056 328.805 70.257 328.569 69.464 328.32 C 69.025 328.182 68.841 327.748 69.027 327.333 C 69.144 327.072 69.362 326.852 69.471 326.588 C 69.642 326.179 69.758 325.748 69.872 325.403 C 69.61 325.024 69.063 325.069 69.144 324.495 C 69.945 324.271 70.783 324.039 71.708 323.781 C 71.095 322.778 70.514 321.926 69.609 321.251 C 69.928 321.205 70.247 321.159 70.619 321.105 C 70.664 320.742 70.706 320.404 70.759 319.971 C 70.344 319.704 69.914 319.427 69.32 319.045 C 69.773 318.854 70.069 318.729 70.461 318.563 C 70.354 318.263 70.229 317.933 70.119 317.598 C 70.016 317.284 69.93 316.966 69.823 316.604 C 70.151 316.443 70.458 316.293 70.77 316.141 C 70.792 315.55 70.066 315.766 69.905 315.33 C 69.958 314.876 69.879 314.307 70.105 313.896 C 70.463 313.245 69.994 312.945 69.693 312.487 C 70.093 311.633 70.829 310.871 70.767 309.819 C 70.761 309.714 70.802 309.547 70.879 309.504 C 71.649 309.069 71.64 308.238 71.961 307.576 C 72.056 307.382 72.25 307.232 72.467 306.983 C 72.114 306.664 71.823 306.4 71.528 306.133 C 71.548 306.041 71.536 305.875 71.603 305.836 C 72.349 305.406 72.423 304.815 72.104 304.097 C 72.07 304.021 72.178 303.887 72.259 303.678 C 72.593 303.625 72.982 303.565 73.366 303.506 C 73.393 303.387 73.471 303.248 73.429 303.188 C 73.043 302.624 72.57 302.106 72.642 301.354 C 72.675 301.011 73.039 300.726 73.392 300.813 C 73.565 300.855 73.778 300.872 73.897 300.979 C 74.747 301.749 75.828 301.456 76.812 301.578 C 77.064 301.609 77.354 301.418 77.617 301.307 C 77.773 301.241 77.988 301.023 78.047 301.062 C 78.918 301.621 79.751 300.885 80.615 301.014 C 81.26 301.11 81.931 301.041 82.59 301.046 C 82.771 301.047 82.973 301.102 83.126 301.04 C 84.664 300.421 86.202 300.956 87.728 301.058 C 88.992 301.143 90.199 301.115 91.427 300.75 C 92.255 300.504 93.182 300.282 93.867 301.204 C 93.982 301.358 94.416 301.322 94.703 301.321 C 95.961 301.317 97.219 301.278 98.477 301.283 C 99.298 301.286 100.106 301.464 100.933 301.505 C 102.085 301.563 103.183 301.287 104.312 301.311 C 104.597 301.316 104.945 301.258 105.16 301.099 C 106.057 300.433 106.965 300.702 107.864 301.017 C 108.39 301.201 108.87 301.389 109.385 300.996 C 109.502 300.906 109.813 300.852 109.866 300.915 C 110.419 301.57 110.987 301.19 111.627 301.068 C 112.441 300.914 113.301 300.986 113.979 301.615 C 114.147 301.771 114.375 301.864 114.671 302.046 C 114.888 301.883 115.135 301.739 115.33 301.545 C 115.701 301.174 116.198 301.043 116.651 301.124 C 117.702 301.313 118.817 301.453 119.742 301.919 C 120.46 302.282 121.124 302.549 121.91 302.546 C 122.622 302.543 123.312 302.705 124.052 302.59 C 124.594 302.506 125.194 302.859 125.78 302.929 C 126.48 303.013 127.193 303.026 127.901 303.027 C 128.912 303.029 129.951 302.839 130.928 303.006 C 132.679 303.305 134.403 303.115 136.122 302.942 C 136.645 302.89 137.115 302.794 137.64 302.925 C 138.039 303.025 138.471 303.026 138.889 303.025 C 141.22 303.021 143.549 302.864 145.885 303.022 C 146.952 303.095 148.035 302.913 149.112 302.886 C 150.365 302.854 151.619 302.873 152.873 302.854 C 153.531 302.843 154.191 302.822 154.846 302.755 C 155.058 302.733 155.385 302.591 155.433 302.438 C 155.669 301.68 156.218 301.696 156.849 301.783 C 157.323 301.849 157.803 301.892 158.281 301.899 C 158.489 301.903 158.698 301.795 159.015 301.708 C 158.036 301.253 157.688 301.189 156.948 301.28 C 156.535 301.331 156.115 301.443 155.708 301.41 C 152.296 301.133 148.886 301.404 145.475 301.42 C 145.118 301.422 144.688 301.357 144.415 301.519 C 142.877 302.426 141.274 301.814 139.7 301.767 C 139.493 301.761 139.267 301.598 139.093 301.458 C 138.828 301.246 138.581 301.216 138.277 301.364 C 137.551 301.719 136.781 301.709 135.992 301.637 C 133.429 301.403 130.863 301.192 128.298 300.978 C 126.627 300.837 124.952 300.725 123.283 300.562 C 120.661 300.306 118.049 299.999 115.403 299.962 C 112.529 299.922 109.651 299.792 106.787 299.564 C 104.1 299.352 101.414 299.446 98.729 299.369 C 98.014 299.349 97.296 299.497 96.579 299.544 C 95.509 299.614 94.437 299.784 93.379 299.412 C 93.181 299.343 92.896 299.35 92.708 299.437 C 92.167 299.687 91.711 299.671 91.2 299.322 C 90.938 299.144 90.525 299.076 90.193 299.104 C 88.821 299.219 87.455 299.395 86.084 299.537 C 85.549 299.593 85.012 299.632 84.474 299.655 C 84.332 299.661 84.185 299.578 83.991 299.522 Z " fill="rgb(254,254,254)"/></svg>