<?xml version="1.0" encoding="UTF-8" standalone="no"?><!-- Generator: Gravit.io --><svg xmlns="http://www.w3.org/2000/svg" xmlns:xlink="http://www.w3.org/1999/xlink" style="isolation:isolate" viewBox="557.499 32.896 125 44.415" width="125pt" height="44.415pt"><path d=" M 629.157 33.616 C 629.146 33.68 629.135 33.743 629.124 33.807 C 629.172 33.798 629.231 33.801 629.267 33.776 C 629.29 33.759 629.283 33.702 629.289 33.663 C 629.246 33.647 629.202 33.632 629.157 33.616 Z  M 644.327 33.693 L 644.204 33.734 L 644.32 33.787 L 644.327 33.693 Z  M 650.021 33.654 C 649.978 33.639 649.919 33.664 649.867 33.67 C 649.903 33.732 649.94 33.793 649.976 33.855 C 650.019 33.825 650.062 33.794 650.104 33.765 C 650.078 33.726 650.058 33.668 650.021 33.654 Z  M 660.631 64.836 L 660.745 64.873 L 660.742 64.791 L 660.631 64.836 Z  M 583.214 76.164 C 583.104 76.14 582.995 76.116 582.885 76.092 C 582.993 76.119 583.099 76.147 583.206 76.174 C 583.206 76.174 583.215 76.163 583.214 76.164 Z  M 619.124 76.798 C 619.174 76.816 619.224 76.834 619.275 76.852 C 619.263 76.821 619.251 76.791 619.239 76.76 C 619.201 76.773 619.163 76.786 619.124 76.798 Z  M 633.379 33.597 C 633.348 33.679 633.276 33.774 633.298 33.839 C 633.317 33.892 633.481 33.956 633.526 33.93 C 633.594 33.891 633.616 33.778 633.657 33.697 C 633.564 33.664 633.472 33.63 633.379 33.597 Z  M 665.285 64.788 C 665.289 64.822 665.287 64.884 665.297 64.886 C 665.35 64.897 665.406 64.891 665.554 64.891 C 665.41 64.836 665.347 64.812 665.285 64.788 Z  M 662.612 64.817 C 662.515 64.794 662.419 64.763 662.322 64.753 C 662.278 64.749 662.229 64.788 662.182 64.807 C 662.254 64.849 662.328 64.892 662.4 64.934 C 662.47 64.895 662.54 64.856 662.612 64.817 Z  M 623.872 33.457 C 623.802 33.446 623.714 33.532 623.634 33.576 C 623.706 33.663 623.778 33.75 623.849 33.838 C 623.912 33.776 623.973 33.714 624.035 33.651 C 623.982 33.582 623.936 33.466 623.872 33.457 Z  M 661.91 73.968 C 662.107 73.968 662.304 73.971 662.501 73.965 C 662.527 73.964 662.55 73.919 662.575 73.895 C 662.525 73.876 662.475 73.844 662.424 73.842 C 662.259 73.834 662.093 73.839 661.927 73.839 C 661.921 73.882 661.915 73.925 661.91 73.968 Z  M 631.073 33.831 C 631.1 33.602 631.048 33.397 630.765 33.363 C 630.684 33.353 630.588 33.449 630.499 33.496 C 630.613 33.65 630.722 33.808 630.844 33.955 C 630.867 33.982 630.946 33.966 630.999 33.97 C 631.025 33.923 631.067 33.879 631.073 33.831 Z  M 673.251 37.553 C 672.849 37.534 672.448 37.515 672.045 37.496 C 672.043 37.555 672.041 37.613 672.039 37.672 C 672.441 37.672 672.843 37.672 673.246 37.672 C 673.247 37.632 673.249 37.593 673.251 37.553 Z  M 666.528 63.538 C 666.99 63.538 667.452 63.538 667.914 63.538 C 667.914 63.505 667.913 63.473 667.912 63.44 C 667.45 63.44 666.988 63.44 666.526 63.44 C 666.527 63.473 666.528 63.505 666.528 63.538 Z  M 674.663 42.162 C 675.539 42.256 676.408 42.465 677.417 42.161 C 676.38 41.864 675.499 41.86 674.629 42.194 C 674.629 42.194 674.654 42.169 674.663 42.162 Z  M 674.279 37.894 C 674.968 38.183 675.573 38.093 676.161 37.88 C 675.563 37.855 674.969 37.263 674.279 37.894 Z  M 654.314 73.875 C 653.071 73.968 651.891 72.99 650.248 73.833 C 651.832 73.987 653.073 73.946 654.314 73.875 Z  M 656.196 73.883 C 657.515 73.935 658.834 74.109 660.15 73.799 C 658.801 73.179 657.523 73.913 656.196 73.883 Z  M 558.871 70.06 C 560.102 70.482 561.318 70.937 562.687 70.825 C 563.303 70.775 563.938 70.92 564.562 70.989 C 565.13 71.052 565.696 71.143 566.264 71.203 C 569.164 71.51 572.077 71.613 574.993 71.645 C 576.536 71.662 578.079 71.706 579.622 71.728 C 581.281 71.75 582.942 71.745 584.601 71.783 C 588.496 71.871 592.389 71.985 596.283 72.072 C 597.37 72.096 598.459 72.03 599.546 72.062 C 602.121 72.139 604.694 72.249 607.268 72.345 C 607.382 72.35 607.497 72.347 607.612 72.35 C 612.821 72.472 618.031 72.567 623.238 72.727 C 626.387 72.823 629.533 73.018 632.68 73.167 C 635.827 73.315 638.973 73.471 642.121 73.606 C 644.179 73.693 646.24 73.757 648.3 73.813 C 648.603 73.821 648.91 73.723 649.214 73.674 C 648.706 73.461 648.202 73.406 647.697 73.384 C 644.548 73.249 641.399 73.133 638.251 72.987 C 634.245 72.8 630.239 72.588 626.233 72.394 C 625.603 72.363 624.971 72.376 624.341 72.349 C 620.965 72.2 617.592 71.995 614.214 71.904 C 608.715 71.758 603.213 71.693 597.713 71.58 C 593.359 71.491 589.003 71.412 584.651 71.274 C 579.097 71.098 573.533 71.261 567.986 70.828 C 565.082 70.601 562.169 70.433 559.347 69.662 C 559.099 69.594 558.822 69.623 558.407 69.597 C 558.642 69.838 558.732 70.013 558.871 70.06 Z  M 642.111 76.229 L 642.22 76.188 L 642.11 76.147 L 642.111 76.229 Z  M 562.893 74.259 C 562.88 74.229 562.873 74.18 562.852 74.174 C 562.805 74.16 562.751 74.168 562.701 74.167 C 562.717 74.211 562.722 74.276 562.754 74.291 C 562.787 74.306 562.846 74.272 562.893 74.259 Z  M 565.669 74.511 C 565.614 74.511 565.56 74.511 565.505 74.511 C 565.508 74.545 565.507 74.608 565.516 74.609 C 565.569 74.617 565.624 74.61 565.678 74.608 C 565.675 74.575 565.672 74.542 565.669 74.511 Z  M 609.797 75.158 C 609.776 75.113 609.764 75.047 609.728 75.029 C 609.697 75.015 609.635 75.057 609.587 75.073 C 609.609 75.119 609.619 75.188 609.654 75.203 C 609.688 75.217 609.748 75.175 609.797 75.158 Z  M 569.979 75.555 L 570.038 75.506 L 569.913 75.502 L 569.979 75.555 Z  M 616.255 75.26 C 616.317 75.227 616.377 75.193 616.439 75.16 C 616.383 75.154 616.327 75.14 616.272 75.145 C 616.22 75.148 616.17 75.171 616.12 75.186 C 616.164 75.211 616.21 75.235 616.255 75.26 Z  M 569.573 74.83 C 570.05 75.055 570.322 75.203 570.567 74.764 C 570.27 74.784 570.022 74.8 569.573 74.83 Z  M 568.667 74.86 C 568.565 74.871 568.463 74.881 568.361 74.892 C 568.463 74.881 568.565 74.871 568.667 74.86 Z  M 567.581 72.649 C 567.581 72.622 567.581 72.595 567.581 72.567 C 567.394 72.582 567.206 72.597 567.02 72.612 C 567.206 72.625 567.393 72.637 567.581 72.649 Z  M 604.974 74.94 C 604.956 74.892 604.937 74.843 604.918 74.795 C 604.605 74.814 604.291 74.833 603.978 74.852 C 603.98 74.881 603.983 74.911 603.986 74.94 C 604.315 74.94 604.644 74.94 604.974 74.94 Z  M 646.828 76.536 C 646.828 76.493 646.828 76.449 646.829 76.406 C 646.443 76.423 646.057 76.441 645.671 76.459 C 645.671 76.484 645.671 76.51 645.671 76.536 C 646.057 76.536 646.442 76.536 646.828 76.536 Z  M 632.164 75.75 C 632.146 75.813 632.128 75.875 632.112 75.937 C 632.39 75.937 632.668 75.946 632.947 75.933 C 633.08 75.926 633.21 75.875 633.343 75.845 C 633.233 75.825 633.123 75.795 633.012 75.788 C 632.73 75.77 632.447 75.762 632.164 75.75 Z  M 625.547 75.495 C 625.548 75.52 625.548 75.544 625.548 75.569 C 626.042 75.569 626.536 75.569 627.029 75.569 C 627.029 75.544 627.029 75.52 627.029 75.495 C 626.535 75.495 626.041 75.495 625.547 75.495 Z  M 640.416 76.226 C 640.416 76.192 640.416 76.157 640.416 76.123 C 639.763 76.123 639.11 76.123 638.456 76.123 C 638.456 76.157 638.456 76.192 638.456 76.226 C 639.11 76.226 639.763 76.226 640.416 76.226 Z  M 650.084 76.413 C 650.104 76.476 650.123 76.54 650.144 76.604 C 650.706 76.64 651.268 76.69 651.831 76.709 C 652.338 76.726 652.846 76.698 653.354 76.709 C 654.135 76.725 654.135 76.731 654.926 76.413 C 653.223 76.413 651.654 76.413 650.084 76.413 Z  M 583.215 76.163 C 582.874 75.821 582.503 75.625 582.002 75.895 C 581.863 75.97 581.611 76.078 581.545 76.025 C 580.766 75.383 579.674 75.779 578.871 75.247 C 578.055 75.719 577.186 75.924 576.264 75.896 C 576.063 75.89 575.793 75.831 575.678 75.7 C 575.403 75.387 575.4 75.656 575.234 75.789 C 574.802 76.134 574.779 76.109 574.088 75.539 C 573.787 75.703 573.482 75.941 573.132 76.035 C 572.816 76.121 572.449 76.07 572.108 76.042 C 569.657 75.841 567.174 75.988 564.747 75.546 C 562.949 75.219 561.164 74.819 559.388 74.397 C 558.792 74.254 558.244 73.941 557.499 73.634 C 558.824 73.173 559.772 74.328 561.031 73.868 C 560.179 73.591 559.453 73.316 558.703 73.123 C 558.107 72.97 557.87 72.606 557.758 71.994 C 558.109 71.758 558.499 71.495 558.826 71.275 C 560.637 71.629 562.362 72.014 564.105 72.286 C 564.871 72.405 565.654 72.498 566.473 72.217 C 567.022 72.028 567.713 72.185 568.339 72.223 C 569.137 72.272 569.933 72.361 570.731 72.426 C 575.706 72.83 580.697 72.707 585.68 72.83 C 586.767 72.856 587.853 72.938 588.94 72.969 C 591.231 73.034 593.524 73.071 595.814 73.145 C 596.528 73.168 597.3 72.981 597.903 73.571 C 597.992 73.658 598.229 73.62 598.398 73.624 C 600.399 73.678 602.403 73.808 604.401 73.751 C 605.648 73.715 606.87 73.794 608.109 73.856 C 611.134 74.008 614.169 73.985 617.2 74.043 C 617.771 74.054 618.34 74.126 618.912 74.149 C 621.027 74.237 623.143 74.308 625.258 74.4 C 628.174 74.528 631.088 74.671 634.004 74.804 C 638.639 75.014 643.273 75.246 647.91 75.421 C 650.827 75.531 653.747 75.597 656.667 75.6 C 657.973 75.601 659.267 75.539 660.58 75.669 C 661.94 75.804 663.329 75.66 664.703 75.705 C 666.912 75.777 669.122 75.838 671.321 76.139 C 669.552 76.52 667.766 76.297 665.99 76.33 C 664.171 76.364 662.348 76.26 660.534 76.518 C 661.656 76.749 662.797 76.664 663.927 76.743 C 664.997 76.818 666.06 76.968 667.349 77.11 C 667.002 77.218 666.871 77.295 666.738 77.295 C 661.235 77.297 655.73 77.342 650.227 77.271 C 646.676 77.225 643.128 77.004 639.579 76.87 C 637.01 76.773 634.442 76.705 631.874 76.598 C 628.844 76.472 625.817 76.295 622.787 76.182 C 620.386 76.093 617.984 76.033 615.582 76.024 C 612.954 76.015 610.325 76.078 607.696 76.114 C 607.018 76.123 606.399 75.637 605.692 75.91 C 602.562 75.683 599.431 75.868 596.301 75.898 C 596.131 75.899 595.95 75.969 595.794 75.931 C 594.047 75.496 592.272 75.799 590.511 75.73 C 590.284 75.721 590.05 75.685 589.829 75.716 C 589.109 75.816 588.452 75.379 587.666 75.643 C 586.998 75.868 586.201 75.75 585.416 75.786 C 585.592 75.935 585.726 76.046 585.956 76.24 C 585.302 76.301 584.82 76.264 584.32 75.896 C 583.941 75.618 583.459 75.66 583.206 76.174 L 583.215 76.163 Z  M 597.865 33.647 C 597.826 33.677 597.763 33.702 597.754 33.738 C 597.747 33.77 597.798 33.815 597.824 33.855 C 597.882 33.804 597.94 33.753 597.998 33.702 C 597.954 33.684 597.91 33.665 597.865 33.647 Z  M 606.668 34.744 L 606.683 34.662 L 606.575 34.689 L 606.668 34.744 Z  M 578.16 36.587 C 578.115 36.597 578.069 36.607 578.023 36.617 C 578.036 36.65 578.046 36.711 578.06 36.711 C 578.106 36.712 578.153 36.693 578.199 36.681 C 578.186 36.65 578.173 36.619 578.16 36.587 Z  M 612.184 39.298 C 612.172 39.267 612.163 39.209 612.149 39.209 C 612.111 39.207 612.063 39.22 612.036 39.244 C 612.024 39.254 612.054 39.307 612.065 39.34 C 612.105 39.326 612.144 39.313 612.184 39.298 Z  M 577.282 42.254 L 577.219 42.341 L 577.321 42.354 L 577.282 42.254 Z  M 674.284 49.621 L 674.288 49.534 L 674.189 49.574 L 674.284 49.621 Z  M 652.975 63.268 C 652.965 63.231 652.967 63.177 652.944 63.164 C 652.903 63.143 652.846 63.147 652.796 63.141 C 652.809 63.198 652.821 63.255 652.833 63.313 C 652.88 63.298 652.928 63.283 652.975 63.268 Z  M 646.198 64.492 L 646.333 64.565 L 646.357 64.459 L 646.198 64.492 Z  M 670.186 59.582 C 670.203 59.619 670.226 59.689 670.236 59.688 C 670.328 59.671 670.417 59.643 670.508 59.617 C 670.49 59.576 670.461 59.498 670.454 59.5 C 670.363 59.52 670.275 59.553 670.186 59.582 Z  M 645.072 64.559 C 645.115 64.544 645.158 64.53 645.2 64.517 C 645.165 64.49 645.134 64.448 645.097 64.442 C 645.058 64.438 645.014 64.469 644.972 64.484 C 645.005 64.509 645.039 64.534 645.072 64.559 Z  M 647.908 64.547 C 647.9 64.512 647.9 64.452 647.882 64.447 C 647.781 64.42 647.675 64.405 647.572 64.387 C 647.581 64.457 647.592 64.529 647.602 64.6 C 647.705 64.582 647.806 64.565 647.908 64.547 Z  M 601.463 39.298 C 601.383 39.25 601.304 39.165 601.222 39.162 C 601.142 39.16 601.06 39.242 600.979 39.288 C 601.056 39.338 601.133 39.429 601.21 39.429 C 601.294 39.429 601.379 39.346 601.463 39.298 Z  M 576.107 42.4 C 576.122 42.456 576.138 42.511 576.154 42.567 C 576.345 42.537 576.537 42.508 576.728 42.478 C 576.701 42.388 576.673 42.297 576.646 42.207 C 576.466 42.272 576.287 42.336 576.107 42.4 Z  M 667.801 37.748 C 667.831 37.789 667.862 37.869 667.887 37.867 C 668.187 37.845 668.511 38.157 668.785 37.816 C 668.809 37.786 668.789 37.68 668.785 37.679 C 668.485 37.656 668.183 37.636 667.882 37.628 C 667.856 37.627 667.829 37.706 667.801 37.748 Z  M 604.168 39.19 C 604.784 39.663 604.992 39.713 605.339 39.54 C 605.373 39.523 605.411 39.447 605.397 39.418 C 605.36 39.336 605.302 39.204 605.243 39.2 C 604.937 39.178 604.628 39.19 604.168 39.19 Z  M 610.586 39.361 C 610.541 39.29 610.501 39.168 610.461 39.168 C 609.984 39.168 609.506 39.186 608.843 39.204 C 609.525 39.693 610.039 39.617 610.586 39.361 Z  M 579.151 36.758 C 580.095 36.758 580.744 36.758 581.405 36.758 C 580.303 36.379 580.302 36.38 579.151 36.758 Z  M 623.508 38.541 C 623.894 38.856 624.288 38.96 624.738 38.731 C 624.827 38.685 624.925 38.597 624.949 38.512 C 624.97 38.431 624.929 38.277 624.864 38.243 C 624.345 37.966 623.907 38.091 623.508 38.541 Z  M 621.145 38.564 C 619.937 37.944 619.698 37.967 618.823 38.708 C 619.651 39.054 620.38 38.632 621.145 38.564 Z  M 583.716 41.956 C 583.633 41.897 583.55 41.788 583.466 41.787 C 581.891 41.773 580.329 42.07 578.746 41.957 C 578.551 41.943 578.176 41.92 578.142 42.296 C 579.947 42.731 582.002 42.603 583.716 41.956 Z  M 616.612 37.866 C 616.856 38.145 617.065 38.464 617.359 38.685 C 617.486 38.78 617.786 38.672 618.303 38.635 C 617.597 38.169 617.35 37.489 616.562 37.918 C 616.707 37.695 616.853 37.473 617.026 37.207 C 617.856 37.448 618.747 36.77 619.61 37.329 C 619.7 37.387 619.922 37.25 620.086 37.223 C 620.421 37.166 620.76 37.075 621.096 37.081 C 622.916 37.114 624.733 37.106 626.543 36.883 C 626.881 36.841 627.234 36.834 627.574 36.869 C 629.729 37.083 631.885 37.185 634.055 37.107 C 635.252 37.065 636.454 37.148 637.653 37.151 C 639.428 37.156 641.203 37.136 642.978 37.135 C 643.664 37.135 644.372 37.066 645.032 37.199 C 645.722 37.338 646.372 37.332 647.063 37.27 C 647.857 37.201 648.664 37.232 649.464 37.259 C 650.838 37.306 652.212 37.362 653.583 37.453 C 654.548 37.517 655.507 37.658 656.472 37.739 C 657.428 37.82 658.386 37.91 659.344 37.922 C 661.118 37.946 662.891 37.922 664.664 37.907 C 665.159 37.902 665.653 37.859 666.182 37.832 C 666.055 37.443 665.789 37.492 665.583 37.476 C 664.387 37.379 663.191 37.278 661.993 37.215 C 659.422 37.082 656.849 36.986 654.279 36.846 C 652.507 36.75 650.742 36.546 648.969 36.496 C 644.849 36.379 640.727 36.319 636.606 36.253 C 635.577 36.237 634.546 36.304 633.516 36.302 C 629.451 36.295 625.384 36.272 621.318 36.267 C 620.47 36.265 619.623 36.332 618.776 36.33 C 617.689 36.329 616.602 36.263 615.516 36.273 C 613.744 36.291 611.968 36.426 610.2 36.366 C 608.43 36.305 606.664 36.687 604.896 36.342 C 604.63 36.29 604.331 36.396 604.047 36.415 C 603.536 36.449 603.023 36.51 602.512 36.495 C 600.059 36.419 597.608 36.3 595.155 36.236 C 591.275 36.136 587.395 36.206 583.518 36.393 C 583.294 36.403 583.006 36.391 582.872 36.787 C 586.039 36.787 589.12 36.786 592.201 36.788 C 592.659 36.788 593.137 36.729 593.569 36.833 C 593.961 36.927 594.302 37.206 594.665 37.403 C 594.862 37.113 594.873 36.726 595.326 36.731 C 595.609 36.734 595.892 36.739 596.176 36.746 C 597.774 36.782 599.385 36.954 600.967 36.817 C 602.506 36.684 603.995 37.168 605.515 36.944 C 606.027 37.299 606.363 36.581 606.891 36.769 C 608.152 37.22 609.493 37.02 610.797 37.059 C 611.92 37.093 613.05 37.235 614.17 37.116 C 615.132 37.013 615.903 37.308 616.612 37.866 Z  M 559.715 67.776 C 559.808 67.081 558.943 66.873 558.843 66.163 C 558.934 65.906 559.007 65.527 559.196 65.21 C 559.497 64.702 559.875 64.235 560.149 63.851 C 560.997 63.481 561.681 64.324 562.408 63.848 C 562.447 63.822 562.455 63.755 562.519 63.617 C 562.094 63.44 561.666 63.261 560.912 62.947 C 561.677 62.82 562.09 62.753 562.512 62.683 C 562.42 62.346 562.333 62.024 562.225 61.627 C 563.206 61.72 564.058 61.767 564.899 61.888 C 565.91 62.034 566.822 61.918 567.567 61.207 C 568.185 60.619 568.926 60.472 569.772 60.574 C 570.255 60.632 570.782 60.848 571.268 60.338 C 571.112 60.265 570.986 60.154 570.861 60.153 C 569.378 60.15 567.9 60.037 566.432 60.457 C 565.407 60.752 564.308 60.724 562.87 60.795 C 563.293 60.481 563.428 60.293 563.576 60.284 C 564.782 60.209 565.809 59.588 566.981 59.221 C 566.621 59.154 566.164 58.924 565.918 59.051 C 565.222 59.412 564.579 59.07 563.936 59.173 C 563.779 58.445 563.779 58.445 563.029 58.037 C 563.093 57.153 563.161 56.226 563.238 55.168 C 562.789 54.998 562.224 54.786 561.58 54.543 C 561.58 54.215 561.618 53.901 561.569 53.6 C 561.52 53.3 561.384 53.013 561.251 52.617 C 562.056 52.24 562.815 51.884 563.589 51.522 C 563.661 50.883 563.736 50.218 563.812 49.54 C 564.094 49.069 564.977 49.41 565.119 48.716 C 565.129 48.667 565.098 48.611 565.069 48.48 C 564.318 48.438 563.543 48.396 562.71 48.35 C 562.77 48.125 562.758 47.909 562.857 47.844 C 563.227 47.602 563.614 47.357 564.034 47.213 C 564.447 47.071 564.964 47.159 565.18 46.662 C 564.75 46.235 565.625 46.09 565.372 45.638 C 564.656 45.437 563.654 45.983 563.048 45.065 C 563.85 44.416 564.879 44.498 565.79 44.231 C 566.706 43.961 567.575 43.548 568.573 43.156 C 568.708 42.057 569.775 42.07 571.006 41.871 C 570.591 41.753 570.433 41.705 570.272 41.662 C 570.109 41.618 569.945 41.579 569.759 41.531 C 569.595 41.199 569.429 40.863 569.218 40.434 C 570.014 40.141 570.794 39.854 571.689 39.524 C 570.953 39.451 570.337 39.39 569.763 39.333 C 569.546 39.028 569.365 38.773 569.195 38.536 C 569.463 37.278 570.828 37.556 571.691 36.963 C 570.37 36.362 569.016 36.508 567.678 36.46 C 567.52 35.93 567.879 35.7 568.244 35.653 C 569.828 35.45 571.398 35.118 573.014 35.191 C 573.584 35.217 574.162 35.218 574.728 35.164 C 575.226 35.115 575.714 35.064 575.992 34.494 C 576.116 34.239 576.626 34.106 576.99 34.013 C 577.312 33.931 577.679 34.017 578.014 33.961 C 578.276 33.916 578.68 33.819 578.739 33.656 C 578.944 33.086 579.411 33.144 579.852 33.129 C 580.42 33.11 580.991 33.125 581.822 33.125 C 581.836 33.147 581.935 33.347 582.077 33.513 C 582.178 33.632 582.337 33.707 582.568 33.869 C 582.841 33.626 583.111 33.387 583.416 33.116 C 583.804 33.149 584.26 33.281 584.667 33.199 C 585.161 33.101 585.386 33.483 585.757 33.548 C 585.97 33.586 586.287 33.594 586.414 33.477 C 586.852 33.08 587.382 33.203 587.876 33.172 C 589.239 33.087 590.599 32.879 591.991 33.033 C 592.084 33.301 592.169 33.543 592.267 33.822 C 592.534 33.822 592.804 33.822 593.081 33.822 C 593.042 33.587 593.011 33.395 592.963 33.109 C 594.073 32.793 595.206 32.925 596.322 32.913 C 597.525 32.9 598.73 32.92 599.932 32.972 C 601.057 33.02 602.178 33.13 603.274 33.211 C 603.377 33.545 603.206 33.714 602.975 33.728 C 602.523 33.753 602.066 33.719 601.612 33.692 C 600.987 33.656 600.364 33.587 599.739 33.573 C 599.627 33.57 599.433 33.757 599.417 33.873 C 599.402 33.984 599.552 34.134 599.662 34.235 C 599.736 34.304 599.911 34.382 599.964 34.348 C 600.761 33.854 601.625 34.557 602.423 34.214 C 603.069 34.548 603.622 34.147 604.299 34.038 C 604.232 33.808 604.177 33.622 604.121 33.428 C 604.19 33.382 604.272 33.277 604.359 33.274 C 605.276 33.24 606.212 33.004 607.426 33.493 C 606.497 33.789 605.621 33.246 605.136 34.109 C 607.841 34.325 610.504 34.192 613.15 34.237 C 613.232 34.5 613.294 34.703 613.358 34.906 C 614.468 34.915 614.542 34.873 614.631 34.125 C 614.65 33.972 614.551 33.794 614.605 33.664 C 614.646 33.563 614.832 33.486 614.968 33.461 C 615.023 33.45 615.174 33.605 615.174 33.684 C 615.174 33.885 615.093 34.086 615.082 34.289 C 615.071 34.497 615.104 34.707 615.124 35.008 C 616.883 35.469 618.351 34.772 620.036 34.078 C 620.58 34.309 621.273 34.622 621.983 34.894 C 622.237 34.992 622.534 35.034 622.81 35.032 C 623.825 35.025 624.849 35.23 625.853 34.934 C 626.511 35.313 626.693 34.596 627.14 34.436 C 628.047 35.068 629.137 35.148 630.187 35.059 C 631.176 34.975 632.186 35.081 633.162 34.815 C 633.365 34.759 633.631 34.75 633.819 34.827 C 634.795 35.23 635.756 35.494 636.729 34.829 C 636.772 34.8 636.854 34.772 636.89 34.791 C 637.837 35.278 638.881 34.809 639.857 35.067 C 641.027 35.377 642.178 35.515 643.361 34.97 C 643.771 34.781 644.425 34.807 644.865 34.975 C 646.163 35.474 647.543 35.251 648.86 35.514 C 648.915 35.525 648.993 35.561 649.026 35.539 C 650.042 34.868 650.959 35.524 651.94 35.668 C 653.346 35.875 654.789 35.864 656.217 35.944 C 656.902 35.983 657.586 36.018 658.271 36.058 C 660.78 36.207 663.295 36.289 665.793 36.53 C 667.539 36.699 669.322 36.714 671.007 37.277 C 671.101 37.309 671.167 37.413 671.234 37.472 C 671.246 37.538 671.263 37.625 671.261 37.625 C 670.878 37.702 670.494 37.773 670.055 37.855 C 670.082 38.192 670.107 38.498 670.142 38.925 C 670.508 38.7 670.771 38.538 671.088 38.343 C 672.91 39.2 674.894 39.172 676.888 39.12 C 677.515 39.104 678.15 39.136 678.769 39.22 C 679.073 39.261 679.351 39.472 679.649 39.609 C 679.206 40.278 679.206 40.278 677.353 40.507 C 677.506 40.82 677.855 40.697 678.089 40.811 C 678.278 40.901 678.571 41.068 678.567 41.195 C 678.555 41.577 678.209 41.498 677.928 41.476 C 676.794 41.389 675.662 41.243 674.39 41.414 C 674.482 41.715 674.555 41.955 674.629 42.194 L 674.654 42.169 C 674.076 42.334 673.507 42.57 672.916 42.643 C 672.298 42.719 671.658 42.648 671.027 42.627 C 669.251 42.565 667.476 42.486 665.7 42.436 C 665.269 42.423 664.835 42.491 664.429 42.52 C 664.338 42.984 664.669 42.94 664.837 42.998 C 665.858 43.353 666.88 43.706 667.917 44.011 C 668.348 44.138 668.815 44.171 669.268 44.205 C 670.858 44.322 672.447 44.398 674.022 44.678 C 674.918 44.838 675.847 44.834 676.759 44.923 C 677.442 44.99 678.13 45.051 678.798 45.19 C 679.1 45.253 679.359 45.498 679.761 45.734 C 678.384 46.091 677.172 45.346 675.868 45.737 C 676.295 46.365 676.95 46.137 677.452 46.297 C 677.923 46.448 678.421 46.589 678.713 47.186 C 678.496 47.284 678.309 47.445 678.13 47.437 C 677.447 47.404 676.766 47.306 676.083 47.253 C 674.949 47.164 673.814 47.001 672.372 47.22 C 672.848 47.439 673.065 47.608 673.3 47.634 C 674.151 47.73 675.008 47.779 675.864 47.843 C 677.119 47.936 678.374 48.023 679.63 48.12 C 680.04 48.151 680.374 48.3 680.595 48.75 C 679.766 49.234 679.036 49.711 678.034 49.324 C 677.789 49.229 677.471 49.245 677.197 49.278 C 676.648 49.346 676.105 49.46 675.262 49.606 C 676.261 49.697 676.991 49.899 677.667 49.795 C 678.822 49.618 679.791 50.122 680.834 50.334 C 681.539 50.479 681.611 50.643 681.973 51.583 C 681.5 51.807 680.813 51.698 680.63 52.404 C 680.59 52.558 680.175 52.719 679.936 52.717 C 679.193 52.709 678.452 52.614 677.709 52.571 C 676.509 52.502 675.308 52.439 674.106 52.392 C 673.835 52.381 673.561 52.447 673.17 52.49 C 673.255 52.763 673.251 53.034 673.384 53.123 C 673.892 53.463 674.427 53.78 674.987 54.038 C 675.402 54.23 675.775 54.361 675.957 54.846 C 676.039 55.064 676.496 55.232 676.808 55.283 C 677.706 55.43 678.619 55.503 679.524 55.613 C 679.725 55.638 679.921 55.701 680.342 55.797 C 679.159 56.229 678.213 55.699 677.179 55.844 C 677.427 56.271 677.849 56.196 678.176 56.186 C 679.029 56.161 679.723 56.43 680.291 57.04 C 679.194 57.486 678.065 57.054 676.934 57.147 C 676.771 57.481 676.611 57.809 676.372 58.296 C 676.522 58.386 676.77 58.463 676.893 58.625 C 677.194 59.022 677.045 59.408 676.586 59.481 C 676.253 59.533 675.911 59.53 675.258 59.572 C 676.353 59.903 677.126 59.847 677.756 59.528 C 678.868 60.096 679.855 60.601 680.994 61.183 C 680.695 61.339 680.519 61.422 680.355 61.52 C 680.234 61.593 680.127 61.687 679.913 61.847 C 680.806 62.1 681.775 61.53 682.499 62.453 C 682.219 62.548 682.039 62.65 681.848 62.669 C 679.847 62.871 677.854 62.821 675.855 62.582 C 674.899 62.469 673.918 62.538 672.95 62.516 C 671.178 62.475 669.407 62.427 667.635 62.382 C 665.245 62.321 662.851 62.221 660.539 62.992 C 660.145 63.123 659.739 63.147 659.57 62.626 C 659.545 62.552 659.171 62.498 659.165 62.512 C 658.864 63.235 658.308 62.705 657.875 62.758 C 657.374 62.82 656.882 62.961 656.38 62.995 C 655.752 63.038 655.119 63 654.488 63.012 C 654.261 63.017 653.927 62.981 653.826 63.1 C 653.095 63.963 652.139 63.559 651.304 63.463 C 650.544 63.375 649.836 63.27 649.358 63.643 C 648.768 63.595 648.629 63.005 648.011 63.295 C 648.289 63.543 648.5 63.897 648.748 63.922 C 649.762 64.027 650.755 64.246 651.789 64.254 C 653.673 64.269 655.573 64.281 657.432 64.521 C 658.408 64.647 659.48 64.591 660.388 65.148 C 660.6 65.278 660.943 65.249 661.225 65.246 C 662.206 65.234 663.151 65.381 664.108 65.6 C 665.043 65.815 666.029 65.834 666.991 65.955 C 667.381 66.004 667.77 66.082 668.151 66.177 C 668.22 66.194 668.29 66.355 668.288 66.448 C 668.285 66.538 668.2 66.692 668.131 66.703 C 667.797 66.754 667.457 66.773 667.119 66.791 C 666.333 66.834 665.526 66.742 664.827 67.086 C 664.685 67.505 664.938 67.668 665.209 67.733 C 665.593 67.826 665.998 67.84 666.394 67.892 C 667.017 67.973 667.646 68.03 668.259 68.153 C 668.58 68.217 668.972 68.324 669.161 68.543 C 669.674 69.139 670.332 69.381 671.095 69.467 C 671.798 69.545 672.227 69.911 672.436 70.523 C 671.957 70.939 671.539 71.373 671.042 71.708 C 670.739 71.914 670.215 71.872 669.971 72.107 C 669.171 72.88 668.182 72.665 667.247 72.669 C 663.697 72.681 660.146 72.675 656.596 72.645 C 653.96 72.624 651.324 72.596 648.69 72.502 C 642.448 72.28 636.205 72.053 629.965 71.763 C 622.578 71.42 615.19 71.149 607.791 71.103 C 602.92 71.072 598.05 70.936 593.18 70.829 C 588.139 70.719 583.099 70.582 578.058 70.466 C 577.026 70.442 575.99 70.409 574.962 70.473 C 573.636 70.555 572.331 70.428 571.021 70.299 C 570.566 70.254 570.109 70.221 569.652 70.188 C 568.283 70.091 566.914 70.002 565.546 69.898 C 564.41 69.811 563.271 69.733 562.14 69.601 C 561.001 69.467 559.875 69.267 558.952 68.535 C 558.706 68.341 558.525 68.067 558.683 67.85 C 558.799 67.689 559.166 67.675 559.429 67.631 C 559.524 67.615 559.637 67.702 559.749 67.735 C 560.175 67.783 560.594 67.838 561.013 67.893 C 560.591 67.626 560.158 67.421 559.715 67.776 Z " fill="rgb(254,254,254)"/></svg>