<?xml version="1.0" encoding="UTF-8" standalone="no"?><!-- Generator: Gravit.io --><svg xmlns="http://www.w3.org/2000/svg" xmlns:xlink="http://www.w3.org/1999/xlink" style="isolation:isolate" viewBox="396.959 229.588 120.54 54.203" width="120.54pt" height="54.203pt"><path d=" M 509.558 235.923 L 509.54 236.047 L 509.704 236.002 L 509.558 235.923 Z  M 497.372 234.287 L 497.526 234.342 L 497.524 234.23 L 497.372 234.287 Z  M 496.399 234.298 C 496.36 234.27 496.322 234.221 496.281 234.218 C 496.236 234.214 496.187 234.252 496.14 234.272 C 496.181 234.301 496.222 234.33 496.263 234.359 C 496.308 234.338 496.354 234.318 496.399 234.298 Z  M 396.959 251.904 C 397.016 251.93 397.073 251.975 397.129 251.976 C 397.187 251.976 397.244 251.933 397.301 251.908 C 397.245 251.883 397.188 251.857 397.131 251.831 C 397.074 251.855 397.017 251.88 396.959 251.904 Z  M 505.187 268.799 C 504.55 268.947 504.174 269.034 503.799 269.121 C 503.801 269.121 503.8 269.056 503.8 269.056 C 504.195 269.175 504.59 269.324 505.187 268.799 Z  M 439.162 232.073 C 438.818 232.093 438.475 232.114 438.131 232.134 C 438.131 232.154 438.131 232.175 438.132 232.195 C 438.477 232.195 438.821 232.195 439.165 232.195 C 439.164 232.154 439.163 232.114 439.162 232.073 Z  M 486.293 283.721 C 486.008 283.721 485.723 283.721 485.438 283.721 C 485.44 283.744 485.441 283.768 485.442 283.791 C 485.718 283.791 485.995 283.791 486.27 283.791 C 486.278 283.768 486.286 283.744 486.293 283.721 Z  M 472.687 233.383 C 472.22 233.383 471.754 233.383 471.289 233.383 C 471.29 233.417 471.291 233.451 471.293 233.485 C 471.758 233.485 472.223 233.485 472.688 233.485 C 472.687 233.451 472.687 233.417 472.687 233.383 Z  M 506.965 235.808 C 506.266 235.808 505.565 235.786 504.867 235.814 C 504.245 235.839 503.599 235.668 502.511 236.048 C 504.33 236.048 505.655 236.048 506.979 236.048 C 506.975 235.968 506.97 235.888 506.965 235.808 Z  M 453.976 234.334 C 454.025 234.315 454.075 234.297 454.123 234.278 C 454.085 234.246 454.05 234.192 454.007 234.186 C 453.963 234.178 453.913 234.217 453.864 234.236 C 453.902 234.269 453.939 234.301 453.976 234.334 Z  M 438.604 233.761 C 438.547 233.774 438.49 233.788 438.433 233.801 C 438.446 233.848 438.457 233.934 438.473 233.935 C 438.53 233.937 438.588 233.911 438.646 233.896 C 438.632 233.851 438.619 233.806 438.604 233.761 Z  M 488.539 232.162 C 488.426 232.133 488.359 232.115 488.29 232.098 C 488.305 232.139 488.318 232.213 488.335 232.215 C 488.385 232.219 488.437 232.192 488.539 232.162 Z  M 454.013 230.985 C 454.063 230.969 454.112 230.954 454.162 230.938 C 454.122 230.908 454.086 230.858 454.043 230.851 C 453.999 230.844 453.949 230.877 453.9 230.894 C 453.938 230.924 453.975 230.954 454.013 230.985 Z  M 430.985 230.573 L 430.993 230.466 L 430.853 230.512 L 430.985 230.573 Z  M 502.094 261.89 L 502.086 262.006 L 502.236 261.955 L 502.094 261.89 Z  M 426.323 234.351 C 426.386 234.329 426.45 234.308 426.512 234.287 C 426.46 234.249 426.411 234.187 426.355 234.18 C 426.297 234.173 426.232 234.22 426.17 234.243 C 426.221 234.279 426.272 234.314 426.323 234.351 Z  M 430.73 231.896 C 430.805 231.84 430.88 231.784 430.956 231.729 C 430.886 231.722 430.815 231.703 430.748 231.712 C 430.687 231.721 430.63 231.761 430.571 231.787 C 430.623 231.823 430.677 231.859 430.73 231.896 Z  M 457.365 232.172 C 457.371 232.192 457.373 232.231 457.384 232.232 C 457.443 232.243 457.503 232.245 457.563 232.25 C 457.557 232.224 457.553 232.177 457.543 232.176 C 457.485 232.169 457.424 232.172 457.365 232.172 Z  M 485.42 233.316 C 485.307 233.373 485.194 233.43 485.081 233.487 C 485.171 233.565 485.286 233.724 485.349 233.707 C 485.509 233.663 485.647 233.54 485.794 233.448 C 485.669 233.404 485.545 233.36 485.42 233.316 Z  M 438.541 275.828 C 438.438 275.939 438.361 276.022 438.284 276.104 C 438.417 276.201 438.545 276.361 438.687 276.373 C 438.792 276.382 438.914 276.199 439.029 276.102 C 438.871 276.013 438.711 275.924 438.541 275.828 Z  M 415.001 233.619 C 414.999 233.531 414.997 233.444 414.995 233.356 C 414.795 233.378 414.595 233.399 414.395 233.42 C 414.597 233.486 414.799 233.552 415.001 233.619 Z  M 430.735 234.224 C 430.808 234.277 430.868 234.353 430.913 234.346 C 431.066 234.321 431.213 234.267 431.364 234.224 C 431.162 234.224 430.958 234.224 430.735 234.224 Z  M 450.468 234.295 C 450.408 234.258 450.351 234.193 450.304 234.199 C 450.16 234.217 450.019 234.261 449.876 234.295 C 450.071 234.295 450.266 234.295 450.468 234.295 Z  M 469.745 235.21 C 469.765 235.159 469.787 235.108 469.807 235.057 C 469.465 235.057 469.123 235.057 468.782 235.057 C 468.781 235.086 468.78 235.116 468.778 235.146 C 469.1 235.167 469.422 235.189 469.745 235.21 Z  M 446.371 231.882 C 446.371 231.841 446.37 231.8 446.37 231.758 C 446.077 231.758 445.784 231.758 445.49 231.758 C 445.491 231.8 445.491 231.841 445.491 231.882 C 445.784 231.882 446.078 231.882 446.371 231.882 Z  M 462.621 232.554 C 464.532 232.87 464.532 232.855 465.291 232.554 C 464.498 232.554 463.728 232.554 462.621 232.554 Z  M 481.611 235.393 C 481.611 235.462 481.611 235.532 481.61 235.602 C 482.415 235.602 483.221 235.602 484.027 235.602 C 484.028 235.532 484.028 235.462 484.028 235.393 C 483.222 235.393 482.416 235.393 481.611 235.393 Z  M 474.794 235.04 C 473.778 235.04 472.761 235.04 471.745 235.04 C 472.766 235.16 473.789 235.353 474.794 235.04 Z  M 501.232 261.502 C 501.087 261.39 500.914 261.15 500.704 261.114 C 500.371 261.058 499.921 261.063 499.891 261.524 C 499.879 261.696 500.164 261.988 500.37 262.051 C 500.706 262.153 501.079 262.095 501.232 261.502 Z  M 506.451 261.499 C 506.099 261.878 505.651 262.011 505.143 262.121 C 503.113 262.563 501.053 262.7 498.986 262.784 C 498.222 262.815 497.461 262.835 496.386 263.313 C 497.203 263.377 497.622 263.418 498.043 263.441 C 498.962 263.493 499.806 263.605 500.688 264.06 C 501.584 264.521 502.678 264.779 503.784 264.699 C 504.077 264.678 504.388 264.917 504.688 265.035 C 504.414 265.889 503.262 265.895 503.203 266.953 C 503.966 266.892 504.645 266.837 505.434 266.773 C 505.373 267.444 504.784 267.521 504.536 267.859 C 504.248 268.252 504.04 268.698 503.799 269.121 C 503.801 269.121 503.8 269.056 503.8 269.056 C 503.949 269.855 502.799 269.772 502.773 270.482 C 503.571 271.431 504.544 270.142 505.425 270.723 C 504.862 271.658 503.498 271.024 502.846 272 C 503.401 272.418 503.933 272.818 504.62 273.336 C 504.254 273.438 504.013 273.561 503.77 273.566 C 502.625 273.59 501.48 273.575 500.334 273.585 C 494.182 273.638 488.039 274.092 481.879 273.892 C 479.095 273.801 476.302 273.883 473.515 273.963 C 471.968 274.008 470.425 274.21 468.465 274.377 C 469.051 274.572 469.221 274.672 469.397 274.682 C 472.826 274.881 476.255 275.068 479.685 275.262 C 481.898 275.387 484.109 275.577 486.324 275.627 C 488.129 275.668 489.819 276.204 491.542 276.59 C 491.978 276.687 492.345 277.074 493.131 277.576 C 489.179 277.6 485.687 277.714 482.202 277.616 C 478.342 277.509 474.49 277.193 470.633 276.995 C 468.918 276.906 467.201 276.893 465.485 276.825 C 461.982 276.688 458.488 276.354 454.974 276.474 C 454.12 276.503 453.26 276.39 452.403 276.333 C 450.976 276.239 449.549 276.144 448.122 276.038 C 446.842 275.942 445.561 275.849 444.284 275.722 C 443.555 275.649 443.558 275.615 442.131 276.25 C 442.38 276.438 442.556 276.598 442.758 276.712 C 442.874 276.778 443.034 276.788 443.175 276.795 C 446.53 276.957 449.885 277.115 453.24 277.273 C 453.74 277.297 454.24 277.312 454.74 277.342 C 461.524 277.751 468.308 278.175 475.093 278.568 C 482.164 278.979 489.236 279.358 496.363 279.755 C 496.636 280.048 496.944 280.328 497.192 280.652 C 497.793 281.437 497.645 282.048 496.752 282.513 C 495.917 282.947 495.029 283.104 494.074 283.111 C 490.996 283.138 487.918 283.25 484.84 283.268 C 483.906 283.272 483.037 283.644 482.136 283.641 C 480.494 283.637 478.841 283.57 477.213 283.373 C 475.573 283.175 473.957 283.077 472.317 283.333 C 471.84 283.407 471.306 283.354 470.838 283.222 C 467.785 282.357 464.632 282.291 461.498 282.11 C 457.142 281.859 452.778 281.736 448.424 281.44 C 444.148 281.15 439.883 280.682 435.609 280.35 C 429.546 279.88 423.482 279.373 417.393 279.404 C 412.737 279.428 408.09 279.248 403.45 278.917 C 402.031 278.815 400.627 278.511 399.21 278.362 C 398.276 278.266 397.952 277.319 397.003 277.176 C 397.349 276.908 397.557 276.747 397.8 276.558 C 397.573 276.309 397.346 276.061 397.072 275.759 C 398.22 275.838 399.322 275.913 400.423 275.988 C 400.435 275.939 400.446 275.892 400.456 275.844 C 399.641 275.579 398.827 275.313 397.796 274.979 C 399.28 274.572 400.468 273.998 401.839 274.235 C 401.519 272.243 401.519 272.243 400.045 271.044 C 400.788 270.77 401.469 270.881 402.127 270.89 C 402.913 270.899 403.697 270.962 404.482 270.98 C 404.765 270.987 405.127 271.037 405.323 270.895 C 406.648 269.93 408.18 270.234 409.651 270.148 C 410.077 270.123 410.5 270.054 411.039 269.991 C 408.138 269.624 405.359 269.224 402.568 268.941 C 401.493 268.833 400.76 268.327 399.981 267.687 C 399.47 267.268 400.028 266.683 399.57 266.388 C 398.986 266.013 399.093 265.572 399.164 264.987 C 399.207 264.623 398.662 264.207 398.435 263.786 C 398.349 263.625 398.328 263.298 398.431 263.194 C 399.02 262.602 398.585 262.032 398.461 261.449 C 398.36 260.973 398.194 260.484 398.225 260.011 C 398.284 259.113 398.408 258.238 399.532 257.878 C 400.284 257.638 400.258 257.515 399.859 256.667 C 399.809 256.562 399.823 256.428 399.803 256.273 C 400.127 256.184 400.457 256.092 400.86 255.98 C 400.787 255.795 400.767 255.525 400.64 255.462 C 399.981 255.133 399.971 255.151 399.122 253.661 C 399.419 253.505 399.704 253.322 400.013 253.201 C 400.337 253.074 400.686 253.006 401.272 252.844 C 400.391 252.321 399.518 252.481 398.736 252.141 C 398.914 251.491 399.677 251.881 399.893 251.412 C 399.819 251.172 399.738 250.909 399.632 250.566 C 400.263 250.566 400.87 250.566 401.466 250.566 C 401.622 249.255 401.782 248.025 401.909 246.792 C 401.984 246.056 401.961 246.054 401.079 244.672 C 401.326 244.458 401.583 244.233 401.841 244.009 C 401.973 242.776 400.51 242.282 400.595 240.787 C 401.045 240.239 401.945 239.517 402.067 238.32 C 404.646 238.182 407.135 238.398 409.627 238.167 C 409.506 237.633 409.206 237.67 408.926 237.674 C 407.425 237.692 405.923 237.727 404.422 237.727 C 403.778 237.727 403.119 237.681 402.906 236.796 C 403.31 236.69 403.7 236.588 404.118 236.478 C 404.064 236.381 404.036 236.236 403.964 236.211 C 403.239 235.966 402.505 235.74 401.616 235.459 C 401.81 235.035 401.992 234.757 402.054 234.455 C 402.085 234.307 401.829 234.117 401.827 233.944 C 401.824 233.743 402.056 233.506 402 233.347 C 401.953 233.209 401.615 233.191 401.458 233.061 C 401.26 232.896 401.117 232.67 400.826 232.323 C 401.366 232.136 401.747 232.004 402.235 231.836 C 402.2 231.427 402.162 230.986 402.122 230.528 C 402.405 230.431 402.595 230.314 402.79 230.307 C 406.645 230.151 410.498 229.963 414.354 229.876 C 420.006 229.746 425.66 229.656 431.313 229.615 C 435.816 229.583 440.324 229.553 444.823 229.695 C 451.043 229.891 457.267 230.064 463.47 230.626 C 465.107 230.774 466.761 230.739 468.407 230.804 C 471.694 230.933 474.98 231.073 478.266 231.208 C 478.481 231.217 478.698 231.2 478.909 231.229 C 480.228 231.408 481.494 231.773 482.891 231.596 C 484.217 231.428 485.599 231.727 486.955 231.711 C 488.248 231.697 489.501 231.813 490.775 232.066 C 491.726 232.255 492.746 232.133 493.735 232.114 C 494.45 232.101 495.131 232.042 495.792 232.477 C 496.107 232.684 496.637 232.728 497.028 232.649 C 498.577 232.337 500.124 232.946 501.667 232.608 C 501.86 232.566 502.093 232.645 502.293 232.708 C 503.423 233.064 504.548 233.433 505.689 233.802 C 505.617 234.168 505.276 234.071 505.049 234.063 C 503.266 234.002 501.481 233.948 499.701 233.829 C 496.491 233.613 493.282 233.606 489.905 233.714 C 490.099 233.944 490.209 234.075 490.41 234.312 C 489.301 234.529 488.263 234.296 487.23 234.221 C 486.382 234.158 485.539 234.029 484.692 233.973 C 483.917 233.922 483.106 234.052 482.497 233.407 C 481.265 233.262 480.034 232.532 478.799 233.459 C 478.603 233.606 478.251 233.588 477.97 233.592 C 476.831 233.605 475.692 233.597 474.267 233.597 C 475.37 232.773 476.402 233.573 477.564 232.995 C 474.883 232.918 472.511 232.837 470.138 232.793 C 469.497 232.781 468.816 232.767 468.224 232.961 C 467.512 233.195 466.826 233.17 466.112 233.156 C 461.042 233.055 455.99 232.628 450.927 232.401 C 448.214 232.279 445.493 232.351 442.776 232.311 C 442.183 232.302 441.487 232.558 441.097 231.777 C 441.027 231.637 440.579 231.64 440.304 231.639 C 438.251 231.628 436.198 231.633 433.734 231.633 C 434.705 232.192 435.528 231.556 436.117 232.296 C 433.66 232.18 431.269 232.806 428.905 232.064 C 427.833 232.649 426.696 232.03 425.566 232.251 C 424.481 232.462 423.308 232.227 422.173 232.217 C 421.68 232.213 421.187 232.291 420.693 232.316 C 420.351 232.334 420.001 232.364 419.665 232.318 C 418.926 232.218 417.366 232.352 416.807 232.658 C 416.657 232.74 416.502 233.004 416.53 233.154 C 416.557 233.311 416.799 233.548 416.951 233.55 C 418.592 233.569 420.236 233.557 421.877 233.534 C 422.232 233.529 422.605 233.349 422.936 233.414 C 426.361 234.082 429.775 232.936 433.195 233.371 C 437.043 232.851 440.873 233.487 444.713 233.541 C 446.998 233.573 449.284 233.584 451.568 233.628 C 452.492 233.646 453.414 233.734 454.338 233.78 C 457.619 233.943 460.898 234.134 464.179 234.253 C 467.96 234.392 471.745 234.449 475.526 234.575 C 476.808 234.617 478.086 234.778 479.369 234.855 C 483.081 235.079 486.803 234.89 490.52 235.258 C 493.073 235.511 495.665 235.375 498.242 235.411 C 498.73 235.417 499.219 235.412 499.709 235.523 C 496.614 236.199 493.464 235.518 490.357 236.001 C 491.067 236.042 491.778 236.111 492.489 236.121 C 494.632 236.15 496.78 236.076 498.918 236.189 C 503.764 236.445 508.606 236.78 513.448 237.105 C 514.279 237.161 515.102 237.326 515.872 237.433 C 515.912 237.638 515.952 237.714 515.927 237.753 C 515.895 237.807 515.818 237.841 515.753 237.87 C 515.691 237.897 515.62 237.924 515.553 237.924 C 511.835 237.934 508.118 237.939 504.4 237.952 C 504.347 237.952 504.293 238.028 504.238 238.071 C 504.19 238.61 504.56 238.834 505.002 238.9 C 506.484 239.122 507.972 239.307 509.458 239.501 C 509.955 239.565 510.453 239.61 510.95 239.669 C 512.288 239.829 513.621 239.9 514.823 240.684 C 515.449 241.091 516.292 241.178 517.013 241.402 C 517.626 242.193 517.692 242.996 517.022 243.708 C 516.35 244.422 516.358 245.145 516.56 246.031 C 516.736 246.803 516.972 247.6 516.444 248.446 C 516.175 248.876 516.865 249.596 516.432 250.198 C 516.779 250.71 517.125 251.222 517.485 251.753 C 517.39 252.199 516.991 252.147 516.657 252.133 C 514.727 252.048 512.798 251.941 510.87 251.85 C 510.516 251.833 510.156 251.815 509.806 251.855 C 509.245 251.92 508.689 252.033 508.006 252.146 C 508.028 252.531 508.045 252.855 508.064 253.191 C 507.663 253.87 506.403 253.314 506.226 254.492 C 506.997 255.199 508.056 254.907 508.989 255.063 C 509.971 255.226 510.966 255.318 512.206 255.474 C 511.369 255.988 510.396 255.885 510.128 256.77 C 509.584 256.914 509.04 257.059 508.558 257.187 C 508.18 257.847 507.844 258.433 507.44 259.141 C 508.927 259.325 510.387 259.506 511.813 259.684 C 511.888 259.758 511.977 259.815 511.968 259.843 C 511.839 260.237 511.697 260.628 511.519 261.131 C 511.218 261.156 510.874 261.241 510.545 261.203 C 509.617 261.097 508.741 260.976 507.871 261.579 C 507.567 261.789 506.93 261.541 506.443 261.503 C 505.497 261.481 504.542 260.955 503.453 261.62 C 504.57 261.932 505.511 261.74 506.451 261.499 Z " fill="rgb(254,254,254)"/></svg>