<?xml version="1.0" encoding="UTF-8" standalone="no"?><!-- Generator: Gravit.io --><svg xmlns="http://www.w3.org/2000/svg" xmlns:xlink="http://www.w3.org/1999/xlink" style="isolation:isolate" viewBox="68.955 32.896 121.458 52.691" width="121.458pt" height="52.691pt"><path d=" M 100.601 33.414 C 100.56 33.43 100.487 33.44 100.483 33.461 C 100.475 33.513 100.499 33.569 100.521 33.679 C 100.558 33.559 100.58 33.486 100.601 33.414 Z  M 98.479 35.165 C 98.376 35.186 98.279 35.236 98.179 35.275 C 98.278 35.317 98.375 35.371 98.478 35.395 C 98.505 35.402 98.555 35.322 98.594 35.282 C 98.555 35.241 98.508 35.159 98.479 35.165 Z  M 71.514 46.93 C 71.417 46.874 71.324 46.797 71.219 46.774 C 71.186 46.767 71.12 46.902 71.068 46.972 C 71.177 47.005 71.285 47.039 71.394 47.072 C 71.434 47.024 71.474 46.977 71.514 46.93 Z  M 69.091 66.911 L 68.955 66.944 L 69.071 67.018 L 69.091 66.911 Z  M 96.54 34.032 C 96.479 34.031 96.418 34.068 96.358 34.089 C 96.419 34.112 96.48 34.152 96.542 34.154 C 96.599 34.156 96.657 34.116 96.714 34.095 C 96.656 34.072 96.598 34.032 96.54 34.032 Z  M 69.805 47.265 C 69.765 47.298 69.686 47.349 69.691 47.362 C 69.727 47.44 69.783 47.509 69.832 47.582 C 69.874 47.546 69.916 47.512 69.959 47.477 C 69.908 47.406 69.856 47.335 69.805 47.265 Z  M 72.036 46.801 C 72.094 46.911 72.338 46.95 72.506 46.966 C 72.549 46.97 72.687 46.729 72.653 46.675 C 72.564 46.531 72.406 46.427 72.2 46.237 C 72.117 46.492 71.979 46.695 72.036 46.801 Z  M 69.672 48.638 C 69.939 49.057 70.206 49.475 70.539 49.999 C 70.782 49.715 70.935 49.536 71.165 49.268 C 70.719 48.935 70.335 48.647 69.952 48.36 C 69.858 48.453 69.765 48.545 69.672 48.638 Z  M 79.528 34.799 C 80.547 34.848 81.572 34.81 82.587 34.895 C 86.054 35.19 89.501 34.9 92.95 34.631 C 93.14 34.617 93.314 34.403 93.787 34.088 C 91.864 34.088 90.311 34 88.776 34.125 C 88.015 34.188 87.316 34.148 86.577 34.022 C 84.319 33.638 82.012 33.563 79.79 32.92 C 79.423 32.815 78.858 33.075 78.5 33.324 C 78.227 33.514 78.136 33.955 77.812 34.573 C 78.607 34.682 79.066 34.777 79.528 34.799 Z  M 72.262 80.52 C 73.74 81.194 75.314 81.674 76.655 82.625 C 76.809 82.735 77.038 82.752 77.236 82.794 C 78.97 83.164 80.702 83.547 82.442 83.893 C 84.715 84.345 86.971 84.915 89.315 84.933 C 90.125 84.939 90.997 84.791 91.73 85.033 C 93.62 85.656 95.467 85.567 97.358 85.157 C 97.745 85.073 98.237 85.052 98.573 85.213 C 99.844 85.823 101.079 85.584 102.334 85.23 C 102.527 85.175 102.738 85.15 102.94 85.153 C 104.848 85.178 106.755 85.219 108.663 85.238 C 109.001 85.242 109.374 85.241 109.673 85.113 C 110.773 84.646 111.938 84.67 113.093 84.589 C 116.358 84.36 119.625 84.148 122.889 83.897 C 124.589 83.767 126.281 83.52 127.983 83.414 C 129.617 83.313 131.259 83.285 132.896 83.301 C 135.357 83.325 137.823 83.544 140.278 83.448 C 144.513 83.284 148.746 82.999 152.968 82.639 C 154.301 82.525 155.695 82.539 156.965 81.89 C 157.417 81.659 158.03 81.706 158.573 81.671 C 159.255 81.627 159.943 81.663 160.623 81.604 C 161.776 81.505 162.915 81.373 163.943 80.737 C 164.315 80.507 164.862 80.405 165.307 80.45 C 167.218 80.645 168.924 79.906 170.684 79.415 C 171.323 79.236 171.765 78.773 171.809 78.122 C 171.868 77.254 172.001 76.418 172.239 75.576 C 172.355 75.164 172.199 74.654 172.081 74.21 C 171.979 73.829 171.684 73.492 171.606 73.11 C 171.532 72.745 171.525 72.304 171.671 71.972 C 171.976 71.281 172.476 70.739 173.317 70.615 C 174.394 70.457 175.469 70.276 176.687 70.084 C 176.946 69.233 177.705 68.903 178.661 68.876 C 178.865 68.87 179.071 68.797 179.272 68.813 C 180.828 68.936 181.964 68.118 183.091 67.244 C 183.611 66.841 184.243 66.582 184.234 65.75 C 184.231 65.494 184.592 65.207 184.833 64.981 C 185.27 64.573 185.743 64.202 186.287 63.742 C 186.003 63.467 185.794 63.222 185.542 63.031 C 184.682 62.38 184.045 61.556 184.295 60.483 C 184.553 59.378 185.647 59.073 186.615 58.729 C 186.741 58.684 186.887 58.696 187.021 58.674 C 187.896 58.526 188.773 58.388 189.643 58.216 C 189.85 58.176 190.032 58.017 190.413 57.811 C 189.709 57.489 189.199 57.306 188.747 57.032 C 188.326 56.778 187.943 56.336 188.206 55.864 C 188.648 55.075 188.278 54.678 187.699 54.206 C 187.186 53.788 186.696 53.293 186.354 52.74 C 186.012 52.188 185.888 51.511 185.627 50.906 C 185.415 50.411 185.48 49.998 185.871 49.634 C 186.135 49.388 186.409 49.151 186.748 48.849 C 186.201 48.666 185.801 48.57 185.436 48.405 C 183.93 47.723 183.55 46.659 184.252 45.17 C 184.361 44.939 184.454 44.701 184.532 44.518 C 184.22 43.938 183.89 43.534 183.255 43.514 C 183.118 43.509 182.979 43.523 182.845 43.504 C 181.532 43.321 181.379 43.095 181.585 41.529 C 180.721 41.395 179.857 41.194 178.983 41.138 C 176.254 40.963 173.522 40.838 170.79 40.702 C 169.697 40.647 168.603 40.599 167.509 40.571 C 165.117 40.511 162.719 40.346 160.333 40.44 C 153.706 40.701 147.083 41.073 140.459 41.403 C 139.063 41.473 139.064 41.478 138.028 40.269 C 137.818 40.269 137.546 40.291 137.278 40.266 C 135.853 40.135 134.342 40.234 133.032 39.782 C 131.797 39.357 130.545 39.081 129.294 38.839 C 125.596 38.126 121.855 37.661 118.078 38.082 C 112.555 38.697 107.018 38.64 101.478 38.537 C 100.514 38.519 99.598 38.337 98.761 37.781 C 98.326 37.492 97.77 37.314 97.244 37.228 C 95.897 37.005 94.542 36.798 93.181 36.7 C 89.151 36.409 85.119 36.418 81.089 36.727 C 78.528 36.923 76.253 37.79 73.93 39.604 C 74.337 39.807 74.659 39.872 74.82 40.065 C 75.416 40.778 75.495 41.135 74.907 41.827 C 74.186 42.678 74.249 43.809 73.613 44.699 C 73.268 45.181 73.159 45.954 73.235 46.562 C 73.352 47.493 73.1 48.252 72.662 49.033 C 72.304 49.67 71.999 50.343 71.744 51.026 C 71.491 51.707 71.15 52.425 71.167 53.119 C 71.201 54.557 71.77 55.965 71.443 57.439 C 71.407 57.605 71.524 57.834 71.633 57.994 C 72.047 58.606 72.134 59.203 71.707 59.856 C 71.358 60.391 71.726 61.162 71.01 61.628 C 70.205 62.151 70.145 63.078 70.515 63.785 C 71.034 64.776 70.881 65.716 70.725 66.692 C 70.547 67.797 70.321 68.894 70.115 70.003 C 70.525 70.772 71.287 71.052 72.071 71.329 C 72.492 71.477 73.051 71.505 73.152 72.144 C 72.926 72.431 72.685 72.739 72.394 73.11 C 72.732 73.659 73.07 74.208 73.383 74.717 C 72.796 75.758 71.959 76.62 72.347 77.887 C 72.407 78.082 72.147 78.361 72.06 78.61 C 71.907 79.044 71.773 79.485 71.605 80.004 C 71.946 80.276 72.084 80.439 72.262 80.52 Z " fill="rgb(254,254,254)"/></svg>