<?xml version="1.0" encoding="UTF-8" standalone="no"?><!-- Generator: Gravit.io --><svg xmlns="http://www.w3.org/2000/svg" xmlns:xlink="http://www.w3.org/1999/xlink" style="isolation:isolate" viewBox="396.959 439.391 120.54 29.269" width="120.54pt" height="29.269pt"><path d=" M 485.382 468.489 C 485.434 468.508 485.486 468.525 485.538 468.544 C 485.526 468.513 485.514 468.481 485.501 468.449 C 485.462 468.463 485.422 468.477 485.382 468.489 Z  M 488.86 465.109 C 488.97 465.074 489.081 465.039 489.191 465.004 C 489.071 465.03 488.951 465.056 488.827 465.077 C 488.822 465.072 488.86 465.109 488.86 465.109 Z  M 400.005 462.239 C 399.918 462.263 399.831 462.287 399.745 462.311 C 399.791 462.318 399.85 462.349 399.882 462.331 C 399.926 462.307 399.95 462.248 399.982 462.199 C 399.981 462.193 400.005 462.239 400.005 462.239 Z  M 487.979 452.39 L 487.85 452.434 L 487.972 452.49 L 487.979 452.39 Z  M 485.084 450.4 C 485.051 450.347 485.017 450.294 484.984 450.24 C 484.968 450.278 484.952 450.315 484.936 450.354 C 484.985 450.369 485.035 450.385 485.084 450.4 Z  M 418.531 441.659 C 418.561 441.687 418.618 441.686 418.664 441.696 C 418.657 441.633 418.65 441.57 418.644 441.507 C 418.602 441.519 418.559 441.53 418.517 441.543 C 418.52 441.583 418.508 441.64 418.531 441.659 Z  M 407.089 440.218 L 406.972 440.173 L 406.978 440.273 L 407.089 440.218 Z  M 436.069 468.418 C 436.023 468.45 436.006 468.524 435.977 468.581 C 436.037 468.58 436.1 468.591 436.153 468.572 C 436.186 468.561 436.202 468.505 436.225 468.468 C 436.171 468.449 436.095 468.399 436.069 468.418 Z  M 432.16 443 C 432.253 443.05 432.345 443.135 432.442 443.141 C 432.537 443.147 432.636 443.073 432.734 443.035 C 432.627 442.958 432.521 442.881 432.424 442.811 C 432.314 442.89 432.237 442.945 432.16 443 Z  M 410.18 440.495 C 410.122 440.462 409.987 440.556 409.887 440.592 C 409.987 440.717 410.074 440.856 410.196 440.956 C 410.229 440.983 410.366 440.892 410.503 440.834 C 410.39 440.708 410.305 440.569 410.18 440.495 Z  M 514.714 449.891 C 514.462 449.801 514.215 449.695 513.956 449.631 C 513.89 449.614 513.73 449.718 513.72 449.782 C 513.706 449.868 513.786 450.042 513.846 450.052 C 514.115 450.095 514.391 450.093 514.664 450.107 C 514.681 450.035 514.698 449.963 514.714 449.891 Z  M 459.699 467.996 C 460.003 468.155 460.223 468.771 460.704 468.174 C 460.346 468.111 460.023 468.056 459.7 467.999 C 459.7 467.999 459.699 467.995 459.699 467.996 Z  M 488.463 468.539 C 488.669 468.539 488.874 468.539 489.081 468.539 C 489.081 468.498 489.081 468.458 489.081 468.417 C 488.874 468.417 488.669 468.417 488.463 468.417 C 488.463 468.458 488.463 468.498 488.463 468.539 Z  M 405.129 440.018 C 405.325 440.248 405.557 440.365 405.854 440.193 C 405.885 440.175 405.903 440.102 405.895 440.059 C 405.853 439.817 405.507 439.663 405.212 439.755 C 405.163 439.771 405.124 439.823 405.081 439.859 C 405.096 439.913 405.096 439.979 405.129 440.018 Z  M 434.722 468.438 C 434.455 468.423 434.187 468.395 433.92 468.396 C 433.816 468.397 433.711 468.469 433.608 468.508 C 433.702 468.561 433.795 468.656 433.891 468.658 C 434.166 468.667 434.443 468.638 434.719 468.623 C 434.72 468.562 434.721 468.5 434.722 468.438 Z  M 492.823 465.156 C 492.269 464.857 491.895 465.034 491.433 465.385 C 491.978 465.559 492.398 465.671 492.823 465.156 Z  M 459.7 467.999 C 459.292 468.042 458.886 468.086 458.265 468.151 C 459.176 468.519 459.176 468.519 459.699 467.995 L 459.7 467.999 Z  M 516.316 447.441 C 515.704 447.441 515.091 447.441 514.479 447.441 C 514.477 447.488 514.475 447.536 514.473 447.583 C 515.066 447.583 515.659 447.583 516.25 447.583 C 516.273 447.536 516.294 447.488 516.316 447.441 Z  M 405.497 466.796 C 406.083 466.796 406.671 466.796 407.258 466.796 C 407.258 466.762 407.258 466.728 407.259 466.693 C 406.672 466.693 406.085 466.693 405.498 466.693 C 405.498 466.728 405.497 466.762 405.497 466.796 Z  M 455.462 468.045 C 454.404 467.966 453.75 468.111 453.095 468.235 C 453.751 468.158 454.424 468.561 455.462 468.045 Z  M 403.935 439.592 C 403.438 439.582 402.938 439.637 402.469 439.393 C 402.43 439.372 402.224 439.535 402.235 439.566 C 402.284 439.705 402.37 439.926 402.466 439.938 C 402.975 440.004 403.491 440.017 404.092 440.053 C 404.024 439.844 403.983 439.593 403.935 439.592 Z  M 428.752 468.618 C 427.704 468.333 426.655 468.221 425.602 468.618 C 426.652 468.618 427.702 468.618 428.752 468.618 Z  M 438.642 468.271 C 439.735 468.271 440.829 468.271 441.922 468.271 C 440.793 468.198 439.709 467.928 438.642 468.271 Z  M 451.356 468.096 C 448.831 468.096 446.307 468.096 443.783 468.096 C 443.783 468.146 443.783 468.196 443.783 468.246 C 446.315 468.246 448.847 468.246 451.378 468.246 C 451.371 468.196 451.364 468.146 451.356 468.096 Z  M 507.395 447.396 C 509.056 447.463 510.718 447.514 512.381 447.563 C 512.423 447.564 512.48 447.507 512.508 447.463 C 512.535 447.424 512.531 447.366 512.539 447.316 C 510.973 446.975 508.82 446.921 506.892 447.187 C 507.096 447.274 507.243 447.389 507.395 447.396 Z  M 473.954 468.344 C 472.009 468.433 470.066 468.597 468.141 468.107 C 467.814 468.024 467.392 468.026 467.092 468.158 C 466.38 468.473 465.706 468.295 465.001 468.204 C 464.693 468.164 464.361 468.29 464.039 468.342 C 467.354 468.763 470.662 468.558 473.963 468.639 C 474.062 468.642 474.163 468.544 474.262 468.493 C 474.16 468.441 474.054 468.339 473.954 468.344 Z  M 488.86 465.109 C 488.449 465.052 488.038 464.949 487.625 464.944 C 485.48 464.917 483.333 464.91 481.188 464.903 C 477.313 464.892 473.437 464.848 469.563 464.888 C 465.209 464.933 460.861 464.504 456.505 464.77 C 456.329 464.78 456.15 464.761 455.972 464.75 C 449.415 464.36 442.855 464.399 436.3 464.701 C 431.102 464.941 425.927 464.771 420.751 464.315 C 415.886 463.888 411.014 463.527 406.152 463.065 C 404.085 462.869 402.038 462.49 399.981 462.193 L 400.005 462.239 C 399.762 462.393 399.491 462.699 399.283 462.663 C 398.92 462.6 398.597 462.323 398.249 462.132 C 397.9 462.481 397.291 462.475 396.959 462.924 C 397.411 463.188 397.754 463.391 398.243 463.678 C 397.831 463.872 397.558 464.001 397.217 464.163 C 397.536 464.61 398.206 464.8 398.111 465.559 C 399.741 465.839 401.316 466.123 402.898 466.366 C 403.172 466.409 403.497 466.329 403.751 466.21 C 403.853 466.163 403.826 465.854 403.861 465.645 C 404.452 465.645 405.049 465.609 405.641 465.65 C 408.376 465.843 411.114 466.024 413.843 466.277 C 414.961 466.381 416.113 466.315 417.188 466.718 C 417.37 466.785 417.502 466.979 417.715 467.165 C 417.459 467.309 417.308 467.47 417.164 467.462 C 415.618 467.388 414.072 467.287 412.526 467.193 C 411.889 466.727 411.162 466.953 410.468 466.943 C 409.84 466.935 409.201 466.709 408.437 467.014 C 408.716 467.14 408.862 467.255 409.015 467.267 C 410.855 467.407 412.697 467.523 414.536 467.667 C 416.199 467.796 417.86 467.951 419.521 468.097 C 420.171 468.154 420.82 468.239 421.471 468.271 C 422.062 468.302 422.656 468.278 423.248 468.278 C 422.654 468.102 422.054 468.109 421.466 468.032 C 420.528 467.908 419.594 467.74 418.665 467.558 C 418.532 467.53 418.317 467.258 418.347 467.195 C 418.436 467.013 418.625 466.875 418.786 466.73 C 418.822 466.698 418.901 466.704 418.958 466.708 C 420.682 466.824 422.407 466.934 424.129 467.064 C 425.91 467.2 427.687 467.461 429.467 467.48 C 431.962 467.509 434.468 467.769 436.956 467.325 C 437.188 467.284 437.431 467.301 437.67 467.299 C 440.653 467.268 443.634 467.246 446.617 467.204 C 447.563 467.19 448.509 467.18 449.392 466.718 C 449.68 466.566 450.081 466.58 450.429 466.582 C 451.97 466.591 453.517 466.716 455.051 466.622 C 456.79 466.517 458.497 466.698 460.204 466.911 C 460.983 467.008 461.722 467.068 462.497 466.854 C 462.997 466.715 463.584 466.616 464.069 466.739 C 465.317 467.058 466.531 467.035 467.778 466.781 C 468.296 466.676 468.846 466.695 469.381 466.694 C 472.002 466.69 474.624 466.715 477.246 466.698 C 484.042 466.656 490.839 466.595 497.636 466.547 C 499.542 466.534 501.449 466.543 503.355 466.544 C 504.071 466.545 504.788 466.564 505.502 466.554 C 505.743 466.55 505.963 466.459 505.866 466.014 C 501.551 465.915 497.205 465.954 492.86 465.919 C 488.456 465.883 484.051 465.834 479.647 465.791 C 479.646 465.737 479.646 465.684 479.646 465.629 C 482.015 465.603 484.385 465.575 486.755 465.548 C 487.29 465.542 487.831 465.571 488.36 465.509 C 488.53 465.489 488.668 465.225 488.822 465.072 L 488.86 465.109 Z  M 481.676 449.761 C 481.645 449.717 481.622 449.65 481.581 449.637 C 481.548 449.626 481.494 449.683 481.449 449.709 C 481.503 449.774 481.557 449.841 481.611 449.906 C 481.633 449.857 481.655 449.81 481.676 449.761 Z  M 466.575 453.064 C 466.526 453.087 466.477 453.11 466.429 453.134 C 466.477 453.158 466.525 453.201 466.574 453.201 C 466.622 453.201 466.67 453.159 466.719 453.136 C 466.671 453.111 466.622 453.088 466.575 453.064 Z  M 443.232 452.12 C 443.281 452.12 443.33 452.12 443.378 452.12 C 443.335 452.091 443.291 452.062 443.247 452.033 C 443.243 452.061 443.238 452.087 443.232 452.12 Z  M 472.257 450.649 C 472.204 450.715 472.15 450.78 472.096 450.846 C 472.139 450.871 472.21 450.927 472.22 450.918 C 472.284 450.86 472.334 450.789 472.389 450.723 C 472.345 450.698 472.301 450.674 472.257 450.649 Z  M 471.032 450.63 C 470.977 450.646 470.922 450.663 470.868 450.68 C 470.937 450.723 471.002 450.775 471.079 450.803 C 471.097 450.81 471.147 450.736 471.183 450.7 C 471.132 450.677 471.081 450.653 471.032 450.63 Z  M 406.02 447.435 C 405.972 447.46 405.923 447.486 405.875 447.512 C 405.956 447.552 406.033 447.604 406.118 447.625 C 406.157 447.634 406.212 447.58 406.26 447.554 C 406.18 447.515 406.1 447.475 406.02 447.435 Z  M 420.407 462.628 L 420.384 462.546 L 420.274 462.59 L 420.407 462.628 Z  M 403.9 447.179 L 403.828 447.197 L 403.966 447.2 L 403.9 447.179 Z  M 407.906 444.354 C 407.852 444.354 407.793 444.354 407.735 444.354 C 407.783 444.399 407.824 444.461 407.88 444.483 C 407.92 444.5 407.983 444.462 408.036 444.449 C 407.994 444.418 407.952 444.388 407.906 444.354 Z  M 465.212 450.626 C 465.167 450.697 465.115 450.766 465.083 450.843 C 465.078 450.857 465.167 450.939 465.19 450.931 C 465.27 450.901 465.34 450.846 465.414 450.8 C 465.347 450.742 465.281 450.684 465.212 450.626 Z  M 441.179 452.104 C 441.159 452.073 441.141 452.018 441.12 452.016 C 441.012 452.008 440.905 452.015 440.797 452.017 C 440.823 452.065 440.85 452.155 440.874 452.155 C 440.976 452.153 441.078 452.123 441.179 452.104 Z  M 485.622 452.178 C 485.625 452.161 485.629 452.144 485.633 452.126 C 485.539 452.095 485.448 452.054 485.351 452.037 C 485.306 452.029 485.251 452.068 485.201 452.087 C 485.341 452.117 485.482 452.147 485.622 452.178 Z  M 492.346 453.764 C 492.354 453.813 492.362 453.861 492.37 453.91 C 492.577 453.892 492.785 453.873 492.992 453.854 C 492.99 453.824 492.987 453.794 492.985 453.764 C 492.772 453.764 492.559 453.764 492.346 453.764 Z  M 417.105 448.649 C 417.104 448.609 417.103 448.568 417.102 448.527 C 416.767 448.527 416.431 448.527 416.095 448.527 C 416.097 448.568 416.098 448.609 416.099 448.649 C 416.434 448.649 416.77 448.649 417.105 448.649 Z  M 456.713 452.879 C 456.712 452.844 456.711 452.809 456.71 452.773 C 456.391 452.773 456.073 452.773 455.754 452.773 C 455.756 452.826 455.757 452.879 455.759 452.932 C 456.078 452.914 456.395 452.896 456.713 452.879 Z  M 408.876 447.838 C 409.788 447.994 409.789 447.986 410.1 447.838 C 409.8 447.838 409.456 447.838 408.876 447.838 Z  M 461.414 453.085 C 461.412 453.107 461.41 453.13 461.408 453.152 C 461.906 453.152 462.404 453.152 462.901 453.152 C 462.903 453.13 462.904 453.107 462.906 453.085 C 462.408 453.085 461.911 453.085 461.414 453.085 Z  M 414.12 448.359 C 414.122 448.307 414.122 448.255 414.124 448.202 C 413.624 448.202 413.123 448.202 412.622 448.202 C 412.622 448.226 412.622 448.249 412.622 448.272 C 413.122 448.302 413.621 448.33 414.12 448.359 Z  M 454.289 452.889 C 454.273 452.838 454.257 452.788 454.242 452.738 C 452.685 452.738 451.129 452.738 449.573 452.738 C 449.574 452.788 449.574 452.838 449.575 452.889 C 451.146 452.889 452.717 452.889 454.289 452.889 Z  M 457.365 452.169 C 457.372 452.113 457.378 452.058 457.384 452.002 C 453.583 452.002 449.784 452.002 445.983 452.002 C 445.983 452.058 445.983 452.113 445.983 452.169 C 449.777 452.169 453.571 452.169 457.365 452.169 Z  M 459.996 452.552 C 463.834 452.552 467.673 452.552 471.512 452.552 C 467.678 452.258 463.837 452.311 459.996 452.552 Z  M 476.64 450.525 C 476.747 450.793 476.811 451.122 477.162 451.166 C 478.046 451.276 478.934 451.411 479.823 451.435 C 483.758 451.539 487.695 451.606 491.63 451.694 C 491.735 451.697 491.837 451.78 491.943 451.827 C 492.263 452.384 491.599 452.456 491.565 452.898 C 490.452 452.264 489.402 451.928 488.257 451.966 C 487.966 451.976 487.584 451.948 487.404 452.108 C 486.855 452.595 486.207 452.571 485.564 452.58 C 482.462 452.623 479.362 452.653 476.26 452.684 C 475.372 452.692 474.484 452.685 473.593 452.828 C 474.914 452.85 476.236 452.919 477.554 452.881 C 481.076 452.779 484.587 452.906 488.101 453.141 C 490.062 453.271 492.034 453.241 494.001 453.278 C 494.534 453.288 495.066 453.279 495.62 453.279 C 495.619 453.903 495.039 453.549 494.874 453.928 C 496.719 453.989 498.547 454.063 500.376 454.107 C 502.82 454.168 505.268 454.149 507.707 454.276 C 509.19 454.354 510.662 454.641 512.136 454.838 C 512.253 454.854 512.385 454.875 512.477 454.939 C 513.618 455.741 514.953 455.66 516.252 455.749 C 516.666 455.778 517.079 455.846 517.499 455.965 C 515.089 456.3 512.651 456.429 510.265 456.952 C 510.319 457.149 510.331 457.328 510.374 457.336 C 511.272 457.5 512.025 457.866 512.657 458.549 C 513.14 459.069 513.785 459.363 514.574 459.293 C 515.035 459.252 515.508 459.352 515.925 459.385 C 516.156 459.774 516.049 460.094 515.747 460.171 C 515.149 460.323 515.119 460.784 515.008 461.207 C 514.135 461.698 513.2 461.771 512.233 461.724 C 511.451 461.685 510.71 461.739 510.072 462.331 C 509.806 462.577 509.324 462.678 508.931 462.702 C 507.86 462.769 506.785 462.779 505.71 462.777 C 498.907 462.768 492.103 462.723 485.3 462.744 C 481.964 462.755 478.628 462.901 475.292 462.949 C 474.162 462.965 473.029 462.829 471.897 462.829 C 469.273 462.828 466.65 462.901 464.027 462.881 C 461.405 462.859 458.784 462.76 456.163 462.693 C 455.569 462.678 454.975 462.641 454.381 462.638 C 451.884 462.622 449.387 462.635 446.891 462.595 C 445.943 462.58 445.023 462.841 444.056 462.757 C 443.69 462.726 443.339 462.894 442.971 462.608 C 442.844 462.51 442.529 462.644 442.3 462.67 C 441.612 462.751 440.929 463.041 440.234 462.868 C 438.926 462.544 437.628 462.854 436.328 462.864 C 436.056 462.866 435.789 463.065 435.514 463.153 C 435.355 463.204 435.149 463.285 435.02 463.229 C 433.747 462.682 432.457 463.213 431.18 463.145 C 431.122 463.142 431.063 463.167 431.005 463.18 C 430.053 463.39 429.124 463.166 428.18 463.099 C 427.316 463.037 426.43 463.323 425.549 463.383 C 425.025 463.418 424.493 463.375 424.043 462.974 C 423.816 462.77 422.166 462.805 421.632 462.89 C 421.227 462.954 420.798 463.079 420.41 463.013 C 419.016 462.777 417.546 462.962 416.226 462.271 C 415.942 462.123 415.517 462.123 415.185 462.188 C 414.354 462.354 413.616 462.426 412.796 461.955 C 412.366 461.708 411.638 461.905 411.053 461.973 C 409.914 462.104 408.804 462.085 407.757 461.558 C 407.856 461.574 407.953 461.593 408.05 461.61 C 407.956 461.589 407.861 461.567 407.766 461.546 C 407.237 461.56 406.629 461.744 406.193 461.555 C 404.789 460.944 403.266 461.064 401.824 460.731 C 400.9 460.519 399.946 460.434 399.018 460.235 C 398.621 460.15 398.259 459.914 397.875 459.759 C 397.294 459.525 397.054 459.044 397.122 458.504 C 397.234 457.619 396.979 456.614 397.848 455.928 C 397.886 455.428 398.447 454.874 397.689 454.456 C 397.587 453.737 397.486 453.019 397.376 452.242 C 397.938 452.242 398.497 452.242 399.309 452.242 C 398.624 451.884 398.173 451.646 397.495 451.29 C 398.05 451.137 398.366 451.002 398.692 450.971 C 399.119 450.93 399.405 450.753 399.349 450.336 C 399.265 449.702 399.569 449.517 400.143 449.473 C 400.398 449.454 400.643 449.312 401.097 449.154 C 400.361 448.733 399.801 448.469 399.315 448.109 C 399.103 447.954 399.04 447.605 398.898 447.317 C 399.083 447.166 399.428 446.948 399.404 446.896 C 399.012 446.068 399.459 445.402 399.821 444.646 C 400.109 444.579 400.44 444.502 400.908 444.394 C 400.758 444.146 400.634 443.758 400.504 443.756 C 399.281 443.735 399.184 442.814 398.799 441.857 C 399.326 441.92 399.698 442.028 400.053 441.99 C 400.442 441.948 400.439 441.247 400.981 441.361 C 401.725 441.518 401.109 440.563 401.721 440.567 C 402.567 440.866 403.504 440.367 404.426 440.738 C 405.296 441.09 406.216 441.336 407.128 441.577 C 407.817 441.76 408.524 441.9 409.231 441.991 C 411.183 442.244 413.156 442.372 415.089 442.714 C 417.845 443.2 420.666 443.081 423.408 443.698 C 424.203 443.877 425.074 443.706 425.9 443.79 C 427.381 443.941 428.854 444.172 430.331 444.353 C 430.86 444.417 431.395 444.442 431.927 444.465 C 432.097 444.472 432.327 444.47 432.431 444.372 C 433.5 443.371 434.779 443.876 435.984 443.883 C 436.23 443.885 436.378 444.004 436.466 444.287 C 436.546 444.547 436.854 444.522 437.01 444.302 C 437.461 443.666 437.9 443.736 438.487 444.169 C 438.935 444.5 439.48 444.783 439.981 444.098 C 440.091 443.946 440.575 443.914 440.808 444.009 C 442.545 444.717 444.4 444.645 446.188 444.613 C 449.18 444.563 452.146 444.876 455.126 444.942 C 457.09 444.985 459.053 445.094 461.012 445.232 C 463.086 445.38 465.157 445.35 467.229 445.265 C 467.526 445.253 467.832 445.265 468.121 445.327 C 469.88 445.708 471.67 445.491 473.444 445.603 C 474.036 445.639 474.628 445.666 475.218 445.718 C 475.915 445.78 476.593 445.962 477.311 445.726 C 477.685 445.603 478.141 445.651 478.547 445.706 C 480.311 445.942 482.105 445.869 483.856 446.232 C 484.134 446.29 484.445 446.18 484.74 446.184 C 486.213 446.202 487.688 446.239 489.163 446.258 C 490.396 446.273 491.63 446.272 492.864 446.275 C 493.035 446.276 493.254 446.188 493.368 446.263 C 494.081 446.732 494.857 446.474 495.613 446.506 C 498.047 446.608 500.48 446.754 502.914 446.868 C 503.566 446.899 504.22 446.868 504.872 446.891 C 505.155 446.901 505.435 446.977 505.735 447.225 C 505.5 447.271 505.265 447.364 505.033 447.356 C 502.889 447.284 500.747 447.177 498.603 447.115 C 496.7 447.061 494.795 447.074 492.893 447.017 C 490.152 446.935 487.414 446.796 484.672 446.717 C 482.055 446.641 479.436 446.613 476.818 446.558 C 475.633 446.533 474.449 446.472 473.264 446.468 C 472.373 446.465 471.484 446.542 470.593 446.553 C 469.778 446.563 468.955 446.169 468.149 446.611 C 466.637 446.148 465.075 446.353 463.534 446.292 C 460.381 446.168 457.228 446.047 454.075 445.999 C 451.875 445.966 449.673 446.064 447.473 446.087 C 447.183 446.09 446.891 445.95 446.601 445.952 C 445.482 445.96 444.337 445.867 443.255 446.073 C 442.55 446.207 441.86 446.29 441.151 446.341 C 437.76 446.585 434.364 446.305 430.963 446.575 C 433.331 446.689 435.696 446.869 438.064 446.901 C 440.867 446.939 443.671 446.805 446.474 446.829 C 450.768 446.867 455.069 446.857 459.354 447.101 C 462.031 447.252 464.71 447.256 467.382 447.429 C 468.831 447.521 470.309 447.323 471.738 447.846 C 472.247 448.032 472.895 447.826 473.471 447.881 C 474.99 448.024 476.524 447.431 478.03 447.984 C 479.014 447.515 479.948 448.233 480.944 448.09 C 481.868 447.957 482.826 448.041 483.769 448.054 C 485.011 448.07 486.272 447.866 487.478 448.369 C 487.677 448.452 487.949 448.452 488.165 448.401 C 489.66 448.05 491.122 448.316 492.585 448.587 C 492.702 448.608 492.814 448.676 492.929 448.679 C 494.649 448.729 496.369 448.772 498.088 448.813 C 498.5 448.824 498.914 448.808 499.327 448.823 C 501.528 448.907 503.729 449.013 505.93 449.082 C 507.659 449.137 509.39 449.136 511.119 449.189 C 511.76 449.209 512.437 449.142 512.992 449.569 C 513.044 449.877 512.902 449.984 512.612 449.997 C 509.111 450.16 505.611 450.074 502.111 449.978 C 500.161 449.924 498.198 450.032 496.26 449.861 C 493.765 449.642 491.278 450.022 488.792 449.793 C 488.508 449.767 488.238 449.622 487.954 449.579 C 487.666 449.535 487.338 449.466 487.081 449.555 C 486.214 449.854 485.336 449.878 484.439 449.798 C 484.206 449.777 483.904 449.733 483.74 449.847 C 482.813 450.486 481.639 450.181 480.677 450.653 C 480.574 450.704 480.445 450.733 480.33 450.729 C 479.098 450.676 477.867 450.613 476.629 450.565 C 474.247 450.563 473.912 450.603 473.271 451.01 C 473.442 451.097 473.581 451.227 473.723 451.228 C 474.368 451.235 475.026 451.279 475.651 451.162 C 476.009 451.096 476.312 450.747 476.64 450.525 Z " fill="rgb(254,254,254)"/></svg>