<?xml version="1.0" encoding="UTF-8" standalone="no"?><!-- Generator: Gravit.io --><svg xmlns="http://www.w3.org/2000/svg" xmlns:xlink="http://www.w3.org/1999/xlink" style="isolation:isolate" viewBox="492.748 194.193 167.919 60.458" width="167.919pt" height="60.458pt"><path d=" M 570.458 201.272 C 570.46 201.385 570.461 201.497 570.462 201.61 C 575.168 201.61 579.873 201.61 584.579 201.61 C 584.577 201.497 584.575 201.385 584.573 201.272 C 579.868 201.272 575.163 201.272 570.458 201.272 Z  M 515.625 201.103 C 515.626 201.154 515.627 201.204 515.628 201.255 C 521.191 201.255 526.754 201.255 532.317 201.255 C 532.316 201.204 532.315 201.154 532.314 201.103 C 526.751 201.103 521.188 201.103 515.625 201.103 Z  M 567.693 201.273 C 567.722 201.212 567.751 201.151 567.78 201.09 C 560.937 201.09 554.095 201.09 547.254 201.09 C 547.254 201.151 547.253 201.212 547.253 201.273 C 554.066 201.273 560.88 201.273 567.693 201.273 Z  M 646.909 224.689 C 639.541 224.773 632.187 223.656 624.808 224.136 C 624.806 224.321 624.803 224.505 624.801 224.689 C 632.171 224.689 639.54 224.689 646.909 224.689 Z  M 556.856 204.347 C 546.036 203.933 535.215 203.632 524.402 204.347 C 535.22 204.347 546.039 204.347 556.856 204.347 Z  M 514.605 251.227 C 516.137 251.227 517.31 251.227 518.498 251.227 C 518.526 250.554 516.993 250.431 517.386 249.686 C 518.784 249.17 520.611 250.048 521.989 249.006 C 519.603 247.942 516.803 247.326 515.483 245.111 C 514.538 246.836 516.696 247.534 516.522 248.695 C 516.38 249.639 514.89 250.05 514.605 251.227 Z  M 498.172 215.982 C 496.283 218.07 500.188 233.604 503.177 236.304 C 500.671 229.52 498.448 222.984 498.172 215.982 Z  M 590.768 235.721 C 600.529 235.082 610.291 234.444 620.052 233.805 C 610.2 233.832 600.289 233.465 590.768 235.721 Z  M 653.699 207.042 C 653.35 207.886 657.034 207.599 654.934 208.906 C 656.674 209.427 658.784 209.173 660.667 210.114 C 658.804 211.651 655.375 209.981 653.981 211.862 C 655.112 212.748 656.994 212.714 658.852 212.723 C 658.844 212.881 658.836 213.038 658.828 213.196 C 656.402 213.426 653.976 213.655 651.387 213.9 C 653.628 215.669 657.013 214.836 659.68 215.656 C 657.973 217.092 655.695 215.203 653.955 216.283 C 655.481 217.287 657.447 216.962 659.312 217.151 C 658.891 219.214 656.222 217.01 655.417 218.142 C 656.398 219.745 655.97 220.132 652.753 220.516 C 653.26 220.913 654.269 220.49 654.862 221.374 C 654.758 221.214 654.794 221.312 654.478 221.443 C 653.753 221.744 652.994 221.791 652.167 221.814 C 644.828 222.019 637.512 221.539 630.195 221.35 C 626.289 221.249 622.379 221.054 618.459 221.084 C 618.149 221.086 617.708 221.006 617.522 221.577 C 620.53 221.577 623.468 221.577 626.274 221.577 C 626.624 222.295 625.908 222.455 625.428 222.671 C 636.303 223.598 647.077 222.976 657.769 223.74 C 656.084 223.983 654.389 224.02 652.459 224.615 C 654.952 224.811 657.104 224.981 659.951 225.206 C 656.987 225.892 654.638 226.125 652.199 225.95 C 651.574 225.905 650.933 225.776 650.328 225.83 C 643.86 226.4 637.401 226.287 630.931 225.828 C 628.696 225.669 626.993 226.76 624.739 227.064 C 626.012 227.537 627.632 226.825 628.369 228.096 C 624.663 229.596 620.436 230.089 615.976 230.65 C 618.791 231.592 621.52 229.88 624.1 231.027 C 623.313 232.124 621.826 231.869 620.602 232.262 C 621.437 232.848 622.168 233.362 622.899 233.875 C 621.639 234.621 619.873 234.298 618.72 235.021 C 619.227 235.61 620.632 234.942 620.909 235.928 C 615.909 236.353 610.692 235.353 606.045 236.953 C 609 238.948 612.649 238.179 616.308 237.935 C 619.054 237.753 621.84 237.742 624.719 237.425 C 624.113 238.379 622.375 238.18 621.808 239.062 C 622.991 239.606 624.364 239.064 626.253 239.763 C 618.38 241.405 610.787 241.814 603.228 242.754 C 604.604 243.315 606.689 242.398 607.35 243.445 C 607.746 244.072 608.549 245.065 607.165 245.831 C 608.201 246.233 609.018 246.55 610.037 246.946 C 608.056 248.355 605.573 248.28 603.278 248.417 C 595.971 248.853 588.65 249.155 581.376 249.849 C 576.157 250.346 570.88 250.557 565.649 251.005 C 560.613 251.436 555.571 251.892 550.542 252.301 C 545.494 252.712 540.406 252.897 535.376 253.517 C 531.348 254.012 527.265 254.33 523.19 254.616 C 520.601 254.797 518.129 254.258 515.734 253.773 C 515.504 253.154 516.375 253 516.53 252.557 C 515.462 251.846 513.915 251.566 512.626 251.162 C 507.393 249.522 504.58 246.652 503.105 243.162 C 500.482 236.953 497.727 230.771 496.401 224.332 C 495.77 221.273 495.572 218.231 495.371 215.18 C 494.694 214.425 492.313 214.684 492.818 213.252 C 493.862 212.67 494.43 213.505 495.124 213.579 C 496.442 211.157 495.963 208.451 497.666 205.858 C 499.487 207.524 501.345 207.565 503.882 206.301 C 503.747 205.555 502.479 205.955 501.925 205.371 C 504.155 204.173 506.539 204.664 509.296 205.052 C 508.579 204.539 508.212 204.079 509.338 203.675 C 508.058 203.447 506.923 203.536 505.816 203.27 C 504.228 202.888 503.56 202.52 504.751 201.522 C 505.243 201.109 505.191 200.952 504.547 200.546 C 503.736 200.034 503.827 199.097 504.485 198.571 C 505.047 198.121 506.141 197.927 507.224 198.19 C 510.189 198.909 512.898 197.765 515.661 197.868 C 515.928 197.23 514.616 197.322 515.428 196.637 C 538.538 197.596 561.835 196.363 585.18 196.056 C 582.645 196.154 580.248 195.54 577.741 195.539 C 567.391 195.536 557.034 195.363 546.698 195.607 C 541.053 195.741 535.39 196.015 529.773 195.806 C 525.399 195.644 521.064 195.477 516.696 195.699 C 515.905 195.739 515.162 195.553 514.468 194.809 C 516.6 194.809 518.511 194.81 520.423 194.809 C 525.688 194.809 530.968 194.978 536.215 194.77 C 544.718 194.433 553.227 194.596 561.722 194.384 C 565.851 194.28 570.088 194.113 574.11 194.238 C 582.922 194.513 591.778 194.532 600.562 195.212 C 600.874 195.236 601.153 195.446 602.141 195.861 C 593.953 197.402 586.188 197.426 577.875 197.36 C 579.541 197.67 587.954 197.814 589.177 197.763 C 593.35 197.587 597.543 197.492 601.611 198.283 C 602.707 198.495 603.762 198.487 604.807 198.436 C 609.159 198.223 613.598 198.409 617.724 198.989 C 620.824 199.424 623.839 199.825 627.01 199.964 C 632.013 200.183 637.016 200.21 642.018 200.328 C 646.393 200.432 650.756 200.783 655.118 201.072 C 655.655 201.107 656.15 201.435 656.739 201.656 C 654.72 204 651.316 202.86 648.573 203.412 C 651.355 203.685 654.541 203.139 656.522 205.233 C 655.404 205.684 654.562 206.385 653.672 207.061 C 649.975 206.164 646.035 206.328 642.261 206.216 C 636.053 206.031 629.846 205.494 623.609 205.744 C 623.079 205.765 622.472 205.772 622.014 205.625 C 620.137 205.026 618.701 205.426 617.455 206.405 C 623.754 206.549 630.033 207.054 636.35 206.85 C 637.074 206.827 637.814 206.8 638.523 206.875 C 643.572 207.415 648.633 207.26 653.699 207.042 Z " fill="rgb(254,254,254)"/></svg>