<?xml version="1.0" encoding="UTF-8" standalone="no"?><!-- Generator: Gravit.io --><svg xmlns="http://www.w3.org/2000/svg" xmlns:xlink="http://www.w3.org/1999/xlink" style="isolation:isolate" viewBox="396.959 289.835 120.54 65.266" width="120.54pt" height="65.266pt"><path d=" M 486.164 295.361 C 486.11 295.359 486.054 295.396 486 295.415 C 486.053 295.438 486.106 295.477 486.16 295.479 C 486.213 295.48 486.267 295.444 486.322 295.425 C 486.269 295.402 486.216 295.362 486.164 295.361 Z  M 483.202 354.8 C 483.385 354.874 483.562 354.961 483.747 355.025 C 483.795 355.042 483.868 354.987 483.929 354.966 C 483.867 354.88 483.799 354.719 483.744 354.723 C 483.544 354.736 483.35 354.807 483.153 354.854 C 483.153 354.854 483.198 354.804 483.202 354.8 Z  M 446.8 346.857 C 446.425 346.857 446.05 346.857 445.675 346.857 C 445.672 346.916 445.669 346.976 445.666 347.034 C 446.023 347.063 446.38 347.091 446.738 347.118 C 446.758 347.031 446.78 346.944 446.8 346.857 Z  M 490.788 349.057 C 488.181 348.96 485.581 348.626 482.959 348.964 C 485.561 349.186 488.174 349.317 490.788 349.057 Z  M 421.687 290.645 C 421.059 290.645 420.43 290.635 419.801 290.646 C 417.744 290.683 415.667 290.993 413.691 290.072 C 413.261 289.872 412.7 289.792 412.228 289.858 C 411.179 290.006 410.149 290.274 409.117 290.518 C 409.051 290.533 409.036 290.75 408.986 290.907 C 409.178 290.969 409.372 291.087 409.562 291.083 C 413.619 291.017 417.674 290.937 421.731 290.858 C 421.716 290.787 421.702 290.716 421.687 290.645 Z  M 457.208 347.16 C 459.332 347.294 461.46 347.394 463.586 347.501 C 465.011 347.572 466.442 347.581 467.861 347.707 C 471.338 348.017 474.809 348.397 478.286 348.704 C 479.268 348.791 480.265 348.718 481.255 348.718 C 479.106 348.329 476.946 348.031 474.778 347.806 C 472.51 347.57 470.238 347.382 467.964 347.214 C 465.771 347.052 463.571 347.107 461.372 346.958 C 459.162 346.807 456.917 346.756 454.396 346.93 C 455.515 347.505 456.372 347.107 457.208 347.16 Z  M 483.153 354.854 C 483.763 354.386 484.491 354.397 485.2 354.425 C 486.412 354.47 487.622 354.641 488.832 354.626 C 490.541 354.604 492.257 354.313 493.955 354.409 C 496.399 354.548 498.578 353.931 500.68 352.766 C 500.653 352.428 500.666 352.082 500.588 351.757 C 500.497 351.386 500.881 350.952 500.436 350.636 C 499.363 350.705 498.285 350.905 497.233 350.813 C 495.331 350.644 493.422 350.782 491.52 350.559 C 490.036 350.385 488.52 350.478 487.024 350.372 C 483.252 350.108 479.49 349.746 475.727 349.365 C 470.759 348.862 465.755 348.616 460.761 348.477 C 455.408 348.327 450.047 348.47 444.691 348.406 C 441.476 348.369 438.264 348.139 435.049 348.074 C 430.41 347.981 425.765 348.038 421.126 347.888 C 416.485 347.737 411.846 347.712 407.205 347.832 C 405.851 347.867 404.495 347.821 403.14 347.792 C 402.851 347.786 402.603 347.659 402.739 347.188 C 405.835 347.079 408.967 346.872 412.099 346.886 C 415.211 346.898 418.323 347.105 421.416 346.583 C 415.376 346.194 409.335 346.391 403.295 346.48 C 402.545 346.492 401.797 346.667 400.988 346.773 C 401.391 347.372 401.391 347.751 401.061 347.813 C 400.325 347.953 399.582 348.062 398.539 348.233 C 399.596 349.128 400.269 349.967 400.453 351.188 C 400.12 351.461 399.789 351.93 399.363 352.036 C 398.666 352.21 397.909 352.147 396.959 352.195 C 397.282 352.443 397.414 352.624 397.577 352.656 C 398.344 352.805 399.116 352.96 399.894 353.025 C 403.536 353.332 407.179 353.033 410.822 353.001 C 412.603 352.985 414.384 352.826 416.164 352.847 C 417.442 352.861 418.726 353.148 419.878 352.342 C 419.985 352.268 420.163 352.229 420.289 352.255 C 421.572 352.519 422.835 352.146 424.111 352.164 C 426.392 352.196 428.674 352.194 430.956 352.198 C 432.523 352.202 434.09 352.18 435.657 352.189 C 438.228 352.205 440.799 352.229 443.37 352.273 C 443.714 352.279 444.06 352.41 444.399 352.504 C 444.669 352.579 444.93 352.764 445.197 352.767 C 446.751 352.786 448.315 352.862 449.859 352.733 C 451.502 352.596 453.126 352.824 454.76 352.774 C 454.962 352.769 455.265 352.756 455.355 352.871 C 455.855 353.511 456.28 353.298 456.772 352.864 C 457.133 352.547 457.669 352.553 457.954 352.852 C 458.459 353.382 458.831 353.395 459.398 352.952 C 459.593 352.799 460.038 352.929 460.364 352.967 C 460.536 352.986 460.805 353.183 460.846 353.139 C 461.43 352.502 461.972 352.793 462.548 353.144 C 462.774 353.28 463.104 353.461 463.304 353.393 C 464.193 353.087 464.979 353.545 465.813 353.607 C 466.655 353.671 467.51 353.604 468.347 353.696 C 472.175 354.118 475.997 354.603 479.827 355.005 C 480.94 355.122 482.115 355.276 483.107 354.493 C 482.598 354.597 482.089 354.699 481.354 354.849 C 481.998 354.05 482.559 354.604 483.067 354.529 C 483.116 354.616 483.157 354.71 483.198 354.804 L 483.153 354.854 Z  M 451.357 296.697 L 451.467 296.764 L 451.486 296.661 L 451.357 296.697 Z  M 419.305 297.07 C 419.199 297.077 419.092 297.085 418.986 297.092 C 419.028 297.126 419.064 297.175 419.112 297.189 C 419.162 297.205 419.226 297.198 419.276 297.18 C 419.297 297.172 419.296 297.108 419.305 297.07 Z  M 421.294 297.134 L 421.17 297.068 L 421.14 297.147 L 421.294 297.134 Z  M 490.414 300.094 C 490.245 300.078 490.075 300.063 489.906 300.046 C 489.946 300.076 489.986 300.131 490.026 300.131 C 490.155 300.129 490.285 300.108 490.414 300.094 Z  M 412.922 298.817 C 412.93 298.787 412.937 298.757 412.944 298.727 C 412.622 298.727 412.299 298.727 411.976 298.727 C 411.976 298.757 411.976 298.787 411.975 298.817 C 412.291 298.817 412.607 298.817 412.922 298.817 Z  M 414.896 298.761 C 414.896 298.776 414.896 298.793 414.896 298.809 C 415.276 298.809 415.656 298.809 416.037 298.809 C 416.037 298.793 416.037 298.776 416.037 298.761 C 415.656 298.761 415.276 298.761 414.896 298.761 Z  M 428.412 297.567 C 428.378 297.511 428.346 297.453 428.313 297.396 C 427.684 297.396 427.055 297.396 426.426 297.396 C 425.895 297.396 425.364 297.396 424.832 297.396 C 424.836 297.453 424.841 297.511 424.845 297.567 C 426.034 297.567 427.222 297.567 428.412 297.567 Z  M 485.631 298.721 C 485.093 298.647 484.553 298.587 484.017 298.499 C 483.456 298.407 482.903 298.188 482.282 298.444 C 483.368 299.131 484.504 298.831 485.631 298.721 Z  M 423.08 298.717 C 421.864 298.717 420.647 298.717 419.431 298.717 C 420.664 299.04 421.89 299.438 423.08 298.717 Z  M 449.684 296.809 C 449.684 296.752 449.684 296.695 449.685 296.639 C 448.006 296.639 446.329 296.639 444.651 296.639 C 444.651 296.695 444.65 296.752 444.65 296.809 C 446.328 296.809 448.006 296.809 449.684 296.809 Z  M 480.321 298.254 C 479.188 298.2 478.055 298.164 476.924 298.088 C 473.578 297.862 470.234 297.57 466.884 297.4 C 464.05 297.258 461.208 297.331 458.378 297.009 C 457.416 296.899 456.402 296.815 455.428 297.078 C 457.271 297.348 459.106 297.603 460.951 297.684 C 465.299 297.876 469.651 297.98 474.001 298.134 C 474.425 298.149 474.842 298.282 475.267 298.313 C 476.947 298.437 478.624 298.785 480.321 298.254 Z  M 488.122 300.118 C 488.123 300.074 488.125 300.031 488.127 299.987 C 486.861 299.856 485.596 299.692 484.327 299.604 C 483.047 299.515 481.761 299.517 480.48 299.449 C 478.915 299.366 477.352 299.262 475.79 299.148 C 473.728 298.999 471.668 298.708 469.607 298.698 C 465.253 298.678 460.92 298.347 456.581 298.093 C 454.947 297.998 453.313 297.887 451.677 297.823 C 448.397 297.695 445.117 297.585 441.835 297.486 C 438.059 297.373 434.282 297.236 430.503 297.509 C 431.413 297.646 432.334 297.848 433.236 297.786 C 436.17 297.585 439.083 297.783 442 298.021 C 445.699 298.322 449.414 298.144 453.118 298.415 C 457.949 298.769 462.791 298.976 467.632 299.184 C 472.691 299.4 477.74 299.738 482.789 300.098 C 484.558 300.224 486.344 300.118 488.122 300.118 Z  M 495.156 301.582 C 495.219 302.099 495.555 302.258 496.043 302.266 C 497.759 302.297 499.476 302.325 501.191 302.383 C 505.256 302.521 509.321 302.676 513.233 302.818 C 513.845 303.316 514.279 303.778 514.81 304.069 C 515.356 304.367 515.997 304.498 516.609 304.706 C 516.632 305.459 516.184 305.899 515.784 306.377 C 515.281 306.976 514.757 307.586 515.31 308.437 C 515.359 308.511 515.271 308.712 515.193 308.816 C 514.8 309.348 515.07 309.711 515.478 310.069 C 515.741 310.3 516.078 310.525 516.194 310.822 C 516.393 311.331 516.589 311.916 516.513 312.429 C 516.45 312.85 515.989 313.213 515.622 313.714 C 514.929 313.714 514.216 313.751 513.509 313.706 C 511.908 313.604 510.347 313.913 508.897 314.457 C 507.76 314.883 506.71 314.964 505.571 314.729 C 505.389 314.69 505.188 314.749 504.684 314.785 C 505.768 315.488 506.71 315.108 507.567 315.229 C 508.409 315.348 509.275 315.297 510.122 315.391 C 511.043 315.492 511.953 315.689 512.872 315.818 C 513.717 315.937 514.569 316.021 515.664 316.148 C 515.313 316.486 514.955 316.673 514.932 316.891 C 514.902 317.192 515.038 317.603 515.255 317.818 C 516.058 318.611 515.702 319.434 515.214 320.081 C 514.649 320.833 514.456 321.52 514.722 322.407 C 515.003 323.35 514.781 324.202 513.99 324.866 C 513.935 324.912 513.873 324.952 513.831 325.007 C 512.769 326.336 512.798 327.122 513.977 328.286 C 514.275 328.581 514.613 328.837 514.931 329.11 C 514.936 329.875 514.557 330.3 513.952 330.797 C 512.946 331.623 511.708 331.961 510.623 332.596 C 509.956 332.987 509.884 333.52 509.547 334.11 C 508.913 334.173 508.234 334.239 507.429 334.319 C 508.019 334.763 508.781 334.605 509.094 335.324 C 509.299 335.793 509.784 336.146 510.152 336.562 C 509.614 336.987 508.96 337.312 509.06 338.2 C 509.142 338.939 508.716 339.538 508.164 340.022 C 507.423 340.674 507.427 341.429 507.656 342.315 C 507.972 343.543 508.535 344.646 509.25 345.747 C 508.886 346.211 508.546 346.644 508.249 347.021 C 501.955 347.644 495.742 347.766 489.527 347.54 C 485.389 347.39 481.234 347.26 477.131 346.766 C 473.582 346.338 470.025 346.149 466.472 345.866 C 463.769 345.651 461.049 345.66 458.337 345.541 C 454.273 345.361 450.209 345.144 446.144 344.97 C 443.718 344.866 441.29 344.795 438.863 344.758 C 438.087 344.746 437.309 344.898 436.531 344.963 C 435.961 345.01 435.391 345.061 434.821 345.065 C 430.173 345.106 425.525 345.148 420.877 345.167 C 416.231 345.187 411.584 345.184 406.939 345.182 C 405.44 345.182 403.941 345.14 402.443 345.146 C 401.529 345.15 400.813 344.664 400.623 343.932 C 400.363 342.923 399.634 342.29 399.042 341.52 C 399.164 341.217 399.21 340.919 399.377 340.716 C 400.058 339.889 399.969 339.088 399.471 338.206 C 398.67 336.791 398.73 335.856 399.913 334.91 C 400.803 334.198 401.344 333.466 401.406 332.325 C 401.428 331.897 401.825 331.489 402.061 331.053 C 401.101 330.625 401.145 329.813 401.253 328.908 C 401.746 328.524 402.45 328.237 402.571 327.467 C 402.611 327.216 402.685 326.96 402.666 326.712 C 402.634 326.287 402.575 325.857 402.454 325.45 C 402.419 325.333 402.137 325.286 401.916 325.182 C 403.498 324.669 403.498 324.669 404.082 323.261 C 403.622 322.766 403.155 322.263 402.738 321.815 C 403.328 320.788 403.864 319.854 404.432 318.864 C 404.094 318.445 403.793 318.073 403.485 317.691 C 403.562 317.606 403.624 317.473 403.72 317.444 C 404.051 317.347 404.439 317.358 404.724 317.193 C 405.25 316.891 405.718 316.493 406.356 316.029 C 405.862 315.877 405.483 315.761 405.103 315.645 C 404.886 315.192 405.452 315.127 405.514 314.728 C 405.071 314.501 404.561 314.239 403.687 313.792 C 404.624 313.65 405.144 313.572 405.709 313.487 C 405.874 313.219 406.054 312.927 406.304 312.521 C 406.974 312.445 407.728 312.36 408.482 312.275 C 408.487 312.206 408.492 312.138 408.497 312.068 C 407.904 311.97 407.311 311.87 406.684 311.766 C 406.758 310.981 407.707 311.462 407.956 310.949 C 407.439 310.24 408.654 310.402 408.505 309.836 C 407.742 309.021 406.946 308.171 406.095 307.264 C 406.595 306.695 406.999 306.237 407.454 305.723 C 407.046 304.77 406.646 303.834 406.247 302.901 C 407.331 301.803 407.676 300.295 408.519 299.008 C 408.861 298.932 409.237 298.848 409.602 298.767 C 409.271 298.697 408.932 298.626 408.694 298.575 C 408.277 298.157 408.591 297.858 408.621 297.537 C 408.702 296.645 409.153 295.653 407.7 294.903 C 408.437 294.784 408.766 294.73 409.135 294.67 C 409.769 293.981 409.61 293.202 409.091 292.367 C 410.979 292.078 412.688 291.94 414.381 292.166 C 416.024 292.385 417.659 292.329 419.299 292.334 C 420.3 292.337 421.3 292.348 422.3 292.382 C 422.553 292.391 422.803 292.504 423.146 292.594 C 422.228 293.211 422.226 293.175 420.3 293.152 C 419.23 293.14 418.159 293.242 417.087 293.253 C 416.089 293.263 415.09 293.212 414.092 293.202 C 413.098 293.192 412.104 293.2 411.108 293.314 C 411.959 293.638 412.835 293.41 413.697 293.446 C 414.622 293.485 415.554 293.524 416.477 293.472 C 417.493 293.414 418.477 293.448 419.417 293.853 C 419.964 294.087 420.484 294.194 421.047 293.861 C 421.277 293.727 421.597 293.668 421.869 293.686 C 427.004 294.015 432.15 293.944 437.289 294.08 C 439.64 294.143 441.982 294.484 444.329 294.691 C 444.897 294.741 445.469 294.767 446.039 294.79 C 450.539 294.975 455.04 295.12 459.538 295.348 C 466.678 295.709 473.815 296.156 480.956 296.507 C 487.525 296.829 494.097 297.069 500.668 297.351 C 502.237 297.418 503.839 297.337 505.364 297.633 C 507.216 297.991 509.032 297.857 510.878 297.858 C 513.071 297.86 515.276 298.098 517.499 298.618 C 517.231 299.261 516.8 299.454 516.305 299.471 C 515.377 299.501 514.447 299.486 513.517 299.479 C 511.302 299.462 509.086 299.443 506.872 299.414 C 506.23 299.405 505.587 299.371 504.947 299.322 C 503.888 299.243 502.831 299.142 501.476 299.024 C 502.303 299.762 503.022 299.751 503.747 299.757 C 505.819 299.776 507.893 299.771 509.963 299.851 C 511.818 299.922 513.669 300.086 515.522 300.227 C 515.71 300.241 515.89 300.373 516.374 300.577 C 514.161 300.831 512.258 300.571 510.363 300.569 C 508.364 300.566 506.365 300.376 504.365 300.331 C 502.436 300.287 500.504 300.335 498.575 300.323 C 496.652 300.312 494.726 300.121 492.806 300.448 C 500.061 300.779 507.328 300.887 514.649 301.478 C 514.244 302.255 513.677 302.283 513.099 302.267 C 511.816 302.231 510.534 302.193 509.251 302.148 C 506.04 302.035 502.831 301.92 499.621 301.801 C 498.124 301.746 496.629 301.68 495.123 301.63 C 492.126 301.501 489.14 301.358 486.153 301.223 C 483.521 301.103 480.887 301.02 478.258 300.858 C 477.42 300.807 476.709 300.965 476.063 301.461 C 476.003 300.691 475.437 300.659 474.836 300.632 C 471.848 300.499 468.86 300.354 465.872 300.212 C 464.66 300.153 463.448 300.098 462.237 300.025 C 458.536 299.804 454.836 299.55 451.133 299.359 C 449.215 299.261 447.29 299.285 445.371 299.228 C 444.303 299.195 443.239 299.06 442.172 299.053 C 437.112 299.022 432.049 299.124 426.996 298.747 C 426.395 298.702 425.734 298.595 424.976 299.192 C 425.418 299.257 425.665 299.324 425.914 299.325 C 429.052 299.332 432.192 299.314 435.331 299.336 C 437.11 299.348 438.888 299.4 440.665 299.475 C 441.658 299.517 442.646 299.7 443.637 299.715 C 447.269 299.77 450.896 299.909 454.523 300.106 C 460.574 300.436 466.629 300.691 472.682 301.013 C 473.814 301.072 474.937 301.291 476.072 301.427 C 476.219 301.392 476.359 301.339 476.497 301.345 C 480.81 301.519 485.122 301.687 489.434 301.884 C 490.633 301.938 491.837 302.019 493.021 302.2 C 493.875 302.33 494.555 302.157 495.156 301.582 Z " fill="rgb(254,254,254)"/></svg>