<?xml version="1.0" encoding="UTF-8" standalone="no"?><!-- Generator: Gravit.io --><svg xmlns="http://www.w3.org/2000/svg" xmlns:xlink="http://www.w3.org/1999/xlink" style="isolation:isolate" viewBox="46.842 281.896 186.492 72.416" width="186.492pt" height="72.416pt"><path d=" M 80.712 308.835 C 82.448 308.449 84.17 308.024 85.564 306.804 C 83.781 307.077 82.165 307.758 80.712 308.835 Z  M 128.18 293.834 C 128.123 293.663 128.066 293.493 128.009 293.324 C 125.956 294.037 123.903 294.75 121.85 295.463 C 121.893 295.592 121.936 295.72 121.978 295.849 C 124.046 295.177 126.113 294.505 128.18 293.834 Z  M 131.986 290.12 C 134.518 290.504 138.105 289 139.315 287.009 C 136.851 288.118 134.1 288.272 131.986 290.12 Z  M 55.695 319.612 C 59.014 317.831 62.845 317.348 66.108 315.507 C 65.719 314.5 65.083 314.332 64.429 314.917 C 63.012 316.184 61.21 316.603 59.534 317.298 C 58.14 317.877 56.721 318.388 55.695 319.612 Z  M 208.076 328.291 C 212.052 327.692 216.027 327.093 220.003 326.494 C 219.976 326.334 219.949 326.173 219.922 326.013 C 215.811 325.79 211.845 326.447 208.076 328.291 Z  M 191.056 295.368 C 188.039 294.739 170.244 296.001 167.725 297.046 C 171.891 297.149 175.654 296.08 179.483 296.176 C 183.366 296.273 187.189 295.578 191.056 295.368 Z  M 143.066 295.909 C 145.373 295.386 147.346 296.16 149.31 296.109 C 151.368 296.055 153.42 295.225 155.524 295.602 C 157.708 295.992 159.818 295.82 161.995 295.234 C 159.319 293.259 145.598 293.617 143.066 295.909 Z  M 197.671 297.569 C 185.656 298.306 173.896 300.9 161.559 302.7 C 163.405 303.633 193.049 299.392 197.671 297.569 Z  M 196.26 350.717 C 197.058 351.856 198.393 352.071 199.553 352.256 C 200.495 352.408 200.944 352.895 201.61 353.505 C 199.876 354.805 197.913 354.187 196.284 354.005 C 191.317 353.451 186.412 352.392 181.415 351.942 C 178.451 351.675 175.531 350.896 172.567 350.676 C 169.753 350.468 166.963 350.127 164.164 349.808 C 159.343 349.257 154.509 348.828 149.679 348.356 C 149.318 348.321 148.951 348.33 148.586 348.329 C 142.618 348.308 136.697 347.49 130.744 347.262 C 127.204 347.126 123.653 347.235 120.108 347.234 C 114.78 347.234 109.445 347.062 104.126 347.281 C 98.301 347.52 92.468 347.356 86.66 347.668 C 81.44 347.95 76.226 347.78 71.017 347.992 C 67.334 348.142 63.674 348.153 60.029 347.581 C 59.234 347.457 58.362 347.394 57.716 346.493 C 59.198 344.533 61.583 345.864 63.241 344.81 C 61.227 344.276 59.765 342.601 57.735 341.693 C 59.508 340.439 61.62 340.524 63.743 339.205 C 62.34 339.205 61.414 339.148 60.499 339.222 C 59.667 339.289 59.404 338.715 59.33 338.164 C 59.252 337.589 59.779 337.386 60.323 337.388 C 61.305 337.39 62.287 337.388 63.455 337.388 C 61.908 336.248 58.891 337.157 59.631 333.786 C 59.867 333.641 60.486 333.684 60.906 332.969 C 59.823 333.227 58.902 333.519 57.958 333.652 C 57.046 333.78 56.029 333.858 56.066 332.331 C 55.692 332.043 54.949 332.597 54.455 331.81 C 55.291 331.443 56.081 331.126 57.109 331.105 C 56.565 329.977 55.62 330.124 54.564 330.025 C 55.508 328.588 54.232 327.254 54.409 325.865 C 52.578 324.942 52.225 323.257 52.52 321.275 C 49.974 319.951 53.407 317.818 51.93 316.36 C 50.996 316.034 50.373 317.428 49.341 316.661 C 49.942 316.125 50.502 315.627 51.268 314.945 C 50.409 314.684 49.587 314.791 49.055 314.037 C 48.974 313.675 49.541 313.509 49.633 313.092 C 49.123 312.77 48.744 313.287 48.307 313.37 C 47.737 313.48 47.191 313.536 46.938 313.062 C 46.63 312.484 47.118 312.181 47.6 311.812 C 50.348 309.704 53.648 308.786 56.767 307.502 C 61.704 305.47 66.685 303.539 71.677 301.643 C 75.674 300.125 79.711 298.714 83.736 297.271 C 89.143 295.332 94.526 293.315 99.974 291.499 C 108.866 288.536 117.738 285.494 126.83 283.182 C 129.015 282.627 131.265 282.318 133.494 281.951 C 134.063 281.857 134.734 281.79 135.088 282.566 C 135.064 283.391 133.984 283.576 133.839 284.437 C 138.003 283.617 141.872 280.927 146.419 282.722 C 144.505 283.288 142.061 282.485 140.72 284.766 C 141.454 284.837 142.091 284.899 142.943 284.981 C 142.074 286.106 140.748 286.159 139.741 287.146 C 140.874 287.069 141.872 286.814 142.652 287.579 C 142.142 289.094 140.796 289.859 139.406 290.993 C 141.686 291.13 143.475 289.177 145.543 290.278 C 145.516 291.108 144.607 291.266 144.465 292.062 C 146.346 292.388 148.14 291.77 149.954 291.647 C 153.435 291.409 156.883 291.559 160.225 292.536 C 161.883 293.022 163.483 293.631 164.923 294.867 C 166.033 295.822 167.895 294.903 169.291 294.597 C 172.192 293.963 175.14 293.849 178.035 293.709 C 182.258 293.506 186.497 293.238 190.729 293.282 C 194.115 293.318 197.524 293.041 200.895 293.614 C 201.583 293.731 202.257 293.926 202.981 294.096 C 202.519 295.973 200.605 294.845 199.591 295.729 C 201.609 296.675 203.42 297.835 205.549 296.874 C 207.659 295.922 209.837 296.899 211.943 296.511 C 214.251 296.086 216.665 295.828 218.9 295.986 C 222.342 296.227 225.839 295.437 229.244 296.492 C 229.813 296.668 230.215 296.889 230.591 297.367 C 230.217 298.438 229.314 298.322 228.428 298.37 C 227.844 298.403 227.075 297.973 226.906 299.232 C 226.75 300.395 227.4 300.68 228.098 300.856 C 228.678 301.001 229.102 301.192 229.47 301.754 C 228.4 302.969 226.664 301.807 225.585 302.904 C 226.554 303.543 225.648 303.741 225.18 304.038 C 226.554 304.707 228.269 304.222 229.542 305.342 C 228.506 306.159 227.348 305.95 226.235 306.079 C 226.964 307.242 228.577 306.265 229.265 307.497 C 229.288 308.678 227.896 309.372 228.033 310.643 C 229.086 311.155 229.263 309.595 230.166 309.723 C 229.725 311.353 229.536 311.491 224.089 314.159 C 225.341 314.986 225.341 314.986 230.763 314.266 C 230.2 315.383 229.288 316.012 228.365 316.585 C 228.837 319.001 228.811 318.947 231.204 317.858 C 231.774 317.598 232.697 316.731 233.334 318.17 C 230.265 321.24 226.222 322.205 221.884 323.326 C 223.995 323.957 226.124 323.144 227.659 324.745 C 227.315 325.211 226.715 325.271 226.212 325.505 C 227.124 326.423 228.519 324.994 229.336 326.303 C 228.643 327.069 227.317 326.803 226.438 327.699 C 227.76 328.284 229.302 327.305 230.485 328.614 C 229.038 329.632 227.478 329.961 225.921 330.064 C 220.185 330.44 214.521 331.296 208.846 332.176 C 206.221 332.583 203.62 333.082 200.863 333.412 C 201.616 334.252 202.237 334.946 202.854 335.633 C 201.752 336.916 200.432 336.534 199.15 336.194 C 196.729 335.55 194.311 334.863 191.787 334.855 C 190.725 334.852 189.662 335.12 188.558 335.432 C 192.84 337.185 197.682 336.979 201.985 339.07 C 201.177 340.392 200.067 339.957 199.073 339.79 C 195.677 339.219 192.355 338.186 188.852 338.227 C 193.052 339.306 197.439 339.609 201.528 341.238 C 199.849 343.778 199.411 344.028 197.006 343.144 C 195.81 342.705 194.7 343.003 193.551 343.026 C 195.567 343.488 197.587 343.931 199.594 344.43 C 199.977 344.525 200.306 344.835 200.665 345.049 C 199.93 346.076 199.122 346.032 197.96 345.833 C 192.481 344.899 187.037 343.719 181.4 343.889 C 178.676 343.971 175.932 343.402 173.177 343.595 C 173.016 343.606 172.86 343.687 172.584 343.771 C 181.953 345.304 191.374 345.743 200.59 348.707 C 198.993 349.321 198.543 351.829 196.24 350.737 C 192.58 349.801 188.897 349.012 185.121 348.774 C 186.798 349.622 188.648 349.897 190.434 350.072 C 192.379 350.262 194.236 351.335 196.26 350.717 Z " fill="rgb(254,254,254)"/></svg>