<?xml version="1.0" encoding="UTF-8" standalone="no"?><!-- Generator: Gravit.io --><svg xmlns="http://www.w3.org/2000/svg" xmlns:xlink="http://www.w3.org/1999/xlink" style="isolation:isolate" viewBox="472.775 282.544 207.865 71.12" width="207.865pt" height="71.12pt"><path d=" M 481.847 330.357 C 482.841 332.442 484.349 334.206 486.86 335.501 C 485.189 333.786 483.518 332.072 481.847 330.357 Z  M 658.219 310.302 C 661.273 310.499 664.228 310.227 667.157 309.743 C 660.61 308.768 659.509 308.832 658.219 310.302 Z  M 519.328 349.36 C 524.927 350.801 529.786 349.451 534.639 349.36 C 529.787 349.36 524.934 349.36 519.328 349.36 Z  M 628.551 303.183 C 631.858 302.818 634.955 303.667 638.129 303.953 C 641.328 304.242 644.471 303.434 647.627 304.009 C 647.997 304.076 648.345 303.783 648.315 303.412 C 641.739 302.574 635.145 303.133 628.551 303.183 Z  M 588.656 292.667 C 581.433 291.883 574.244 290.886 566.864 291.117 C 574.026 292.293 581.31 292.684 588.656 292.667 Z  M 667.989 329.36 C 654.474 328.389 645.689 328.534 644.436 329.749 C 649.63 330.434 666.467 330.156 667.989 329.36 Z  M 544.637 351.033 C 559.63 350.8 574.643 351.42 589.622 350.474 C 574.63 350.774 559.611 349.889 544.637 351.033 Z  M 506.92 352.488 C 508.232 351.911 509.82 352.699 510.664 351.635 C 502.765 350.333 495.224 348.55 488.547 345.322 C 482.859 342.572 479.266 338.907 476.356 334.692 C 474.002 331.281 473.023 327.73 472.825 324.139 C 472.605 320.143 473.093 316.106 474.521 312.161 C 476.087 307.833 478.373 303.692 480.808 299.55 C 483.311 295.292 488.251 292.708 493.29 290.084 C 494.885 289.253 496.647 288.575 498.562 288.107 C 498.575 287.39 497.355 287.904 497.353 287.12 C 498.176 285.884 500.482 286.453 501.887 286.332 C 503.965 286.153 505.978 285.784 507.793 285.309 C 512.214 284.151 516.76 283.47 521.372 282.816 C 524.768 282.334 528.089 282.623 531.434 282.698 C 536.93 282.819 542.286 284.068 547.924 283.327 C 551.463 282.863 555.072 283.618 558.653 283.788 C 565.238 284.101 571.623 285.267 578.149 285.861 C 587.291 286.694 596.529 286.916 605.633 287.771 C 611.108 288.284 616.618 288.532 622.084 289.056 C 623.788 289.219 625.559 288.709 627.366 289.078 C 628.424 289.294 629.386 289.49 630.15 290.133 C 627.952 292.127 624.525 289.376 622.402 291.284 C 624.297 291.421 626.411 291.223 628.439 291.934 C 628.685 292.297 626.798 292.821 629.13 293.283 C 624.105 294.009 619.752 293.818 615.427 293.986 C 622.524 295.185 630.015 294.521 637.48 295.945 C 635.682 297.101 634.719 298.296 632.556 298.656 C 633.344 299.427 635.976 298.21 635.649 299.903 C 640.11 300.218 644.792 299.768 649.384 300.367 C 651.509 300.644 653.476 299.869 655.714 300.335 C 657.772 300.765 659.55 301.388 661.342 302.172 C 658.659 301.32 656.182 302.609 653.577 302.319 C 654.318 302.772 655.152 302.563 655.935 302.6 C 656.438 302.623 656.802 302.744 657.068 303.005 C 657.487 303.416 655.974 303.66 656.762 303.988 C 657.254 304.193 657.979 304.159 658.404 304.72 C 658.068 304.899 657.672 305.11 657.135 305.395 C 663.683 306.263 670.3 305.973 676.74 306.596 C 676.746 306.774 676.751 306.951 676.755 307.128 C 675.949 307.373 675.141 307.618 674.38 307.85 C 674.149 308.446 675.324 308.891 674.43 309.544 C 673.797 310.007 675.415 310.087 675.215 310.839 C 672.756 312.44 668.991 311.186 666.105 312.36 C 668.63 312.645 671.178 312.333 673.685 312.773 C 676.163 313.206 677.733 314.525 680.64 314.895 C 678.634 315.804 677.317 314.847 676.047 315.064 C 675.693 316.189 677.697 315.938 677.86 316.737 C 676.804 317.537 676.012 316.31 674.784 316.617 C 675.945 318.454 674.414 319.261 671.686 319.547 C 673.375 319.826 675.143 319.499 675.822 320.852 C 675.239 321.519 674.102 321.503 672.471 321.831 C 673.879 321.895 674.642 321.857 675.34 321.982 C 676.047 322.109 676.866 322.489 676.117 323.004 C 674.737 323.955 676.451 323.97 676.966 324.431 C 675.186 327.405 670.593 325.643 667.814 326.957 C 669.711 327.368 673.172 326.288 673.306 329.178 C 674.251 329.218 675.544 329.272 676.977 329.332 C 676.547 330.637 674.775 330.451 673.268 331.06 C 675.279 331.06 676.851 331.06 678.574 331.06 C 678.261 332.278 676.995 332.409 675.78 332.512 C 668.27 333.149 660.755 333.756 653.309 334.689 C 651.821 334.874 650.297 334.8 648.776 334.946 C 646.754 335.139 644.923 335.105 644.402 336.855 C 645.113 336.919 646.254 336.954 647.363 338.002 C 639.048 339.867 630.494 339.314 621.949 340.453 C 621.432 340.772 622.685 340.819 622.776 341.094 C 622.574 341.756 621.213 341.548 621.094 342.216 C 622.067 342.54 623.357 342.522 624.191 343.619 C 615.737 344.828 607.13 343.632 598.859 344.961 C 599.18 345.529 600.349 345.041 600.271 346.086 C 600.081 346.238 599.712 346.83 598.662 346.732 C 596.418 346.521 596.578 347.473 596.897 348.558 C 596.073 348.558 595.173 348.738 594.874 348.53 C 591.714 346.341 588.118 347.747 584.623 347.794 C 578.868 347.872 573.369 349.275 567.58 349.034 C 578.368 349.922 589.263 348.452 600.346 349.475 C 599.103 350.892 597.448 350.082 596.333 350.519 C 597.227 351.406 599.314 350.753 600.443 351.722 C 598.171 352.906 595.989 352.253 593.875 352.236 C 589.199 352.195 584.521 352.214 579.844 352.239 C 575.058 352.265 570.299 352.487 565.48 352.288 C 556.906 351.935 548.319 352.658 539.72 352.69 C 536.441 352.702 532.998 353.132 529.7 353.611 C 528.15 353.835 526.91 353.269 525.476 353.305 C 520.594 353.431 515.709 353.174 510.82 353.438 C 509.545 353.507 508.009 353.45 506.92 352.488 Z " fill="rgb(254,254,254)"/></svg>