<?xml version="1.0" encoding="UTF-8" standalone="no"?><!-- Generator: Gravit.io --><svg xmlns="http://www.w3.org/2000/svg" xmlns:xlink="http://www.w3.org/1999/xlink" style="isolation:isolate" viewBox="510.803 67.413 181.795 91.809" width="181.795pt" height="91.809pt"><path d=" M 618.133 150.167 C 616.713 148.153 615 148.937 613.669 148.408 C 613.623 148.564 613.578 148.721 613.533 148.877 C 614.906 149.262 616.278 149.647 618.133 150.167 Z  M 675.355 84.292 C 673.789 84.746 671.984 83.586 670.328 84.813 C 672.245 85.894 673.752 84.647 675.355 84.292 Z  M 681.553 84.97 C 680.204 83.441 677.493 83.18 675.901 84.226 C 677.625 86.014 679.736 84.376 681.553 84.97 Z  M 530.378 133.58 C 528.204 132.208 525.931 131.807 523.374 131.857 C 523.842 132.221 524.157 132.467 524.478 132.718 C 524.374 133.099 523.537 132.676 523.736 133.39 C 525.913 134.265 528.108 133.306 530.378 133.58 Z  M 675.333 118.791 C 673.933 118.511 672.382 118.875 671.38 118.496 C 669.032 117.611 668.039 119.051 666.597 120.18 C 670.405 122.017 673.973 121.448 675.333 118.791 Z  M 610.237 140.181 C 610.592 141.187 611.422 141.213 611.838 141.768 C 611.751 142.237 611.273 142.624 611.481 143.306 C 613.819 143.252 616.034 143.761 618.267 144.481 C 620.002 145.041 621.874 145.93 623.813 144.987 C 623.947 144.922 624.188 144.923 624.091 144.7 C 623.737 144.449 623.418 144.222 622.923 143.872 C 624.583 143.938 623.859 142.79 623.556 142.686 C 622.491 142.319 622.481 141.519 622.37 140.577 C 623.317 140.805 623.85 139.944 624.683 139.701 C 619.898 139.704 615.166 140.373 610.237 140.181 Z  M 672.271 76.618 C 677.713 76.901 683.03 77.579 688.268 78.884 C 689.544 79.201 690.65 79.963 691.995 80.096 C 692.54 80.149 692.553 80.77 692.592 81.283 C 692.653 82.087 692.199 82.587 691.6 82.871 C 689.445 83.895 687.426 85.587 684.757 84.462 C 684.68 84.43 684.489 84.666 684.227 84.877 C 685.047 85.633 686.136 85.506 687.018 85.761 C 687.759 85.975 688.264 86.449 688.876 86.776 C 689.478 87.098 689.577 88.074 689.031 88.267 C 688.159 88.577 687.679 89.148 687.731 89.848 C 687.817 91.006 689.123 90.408 689.747 90.907 C 689.939 91.061 690.325 90.974 690.716 91.006 C 690.615 92.015 690.231 92.768 689.329 93.284 C 689.705 93.451 689.913 93.543 690.137 93.643 C 690.075 93.721 690.034 93.819 689.962 93.857 C 687.724 95.029 685.507 95.986 682.915 94.718 C 681.163 93.862 675.781 94.108 673.654 94.913 C 672.006 93.724 671.419 93.621 668.441 94.057 C 670.22 96.436 672.96 94.885 675.02 95.935 C 674.893 97.159 673.347 96.581 672.872 97.612 C 678.854 98.658 684.941 98.674 691.074 100.369 C 691.673 101.104 691.056 102.478 691.626 103.351 C 685.982 104.237 680.265 102.658 674.558 103.219 C 674.176 104.315 674.349 105.199 675.357 104.949 C 677.545 104.406 679.638 105.069 681.73 105.255 C 684.439 105.496 687.211 105.577 689.935 106.372 C 690.034 107.187 690.485 108.207 690.154 108.74 C 689.444 109.877 688.491 111.153 687.331 111.634 C 686.325 112.051 684.9 111.413 683.654 111.307 C 678.155 110.841 672.662 110.562 667.144 111.932 C 667.928 113.173 667.928 113.185 669.099 113.194 C 672.623 113.22 676.118 112.888 679.627 112.599 C 682.064 112.398 684.819 112.458 686.889 114.554 C 687.601 115.274 688.782 115.479 689.432 116.363 C 687.99 118.242 685.784 118.047 683.776 118.276 C 681.155 118.575 678.481 118.304 675.832 119.024 C 677.751 119.677 679.394 120.982 681.57 120.876 C 683.839 120.764 684.666 123.007 686.28 123.988 C 686.485 124.113 686.493 124.658 686.026 124.866 C 684.711 125.45 684.613 127.279 682.797 127.5 C 683.918 128.686 684.931 128.655 685.998 128.353 C 686.963 128.08 687.946 128.245 688.508 128.98 C 689.422 130.175 688.933 130.974 687.461 131.493 C 686.42 131.86 685.203 131.78 684.311 132.616 C 686.32 134.467 689.218 133.394 691.418 135.12 C 691.461 135.471 691.539 136.101 691.623 136.785 C 688.72 137.946 685.659 138.206 682.512 138.485 C 678.547 138.836 674.602 138.424 670.666 138.745 C 665.313 139.182 659.951 138.958 654.594 139.111 C 652.502 139.171 650.471 139.831 648.357 139.844 C 646.719 139.853 645.118 139.631 643.571 139.18 C 642.534 138.877 641.683 139.402 640.746 139.492 C 637.201 139.828 633.669 140.121 630.127 139.474 C 629.672 139.391 629.188 139.463 628.525 139.463 C 631.192 140.863 631.774 141.881 631.487 144.471 C 630.66 144.755 629.572 144.236 628.842 145.25 C 630.765 146.375 633.187 146.734 634.56 148.836 C 632.784 150.031 631.023 150.665 628.689 150.32 C 630.513 152.44 633.794 152.563 634.292 155.566 C 632.105 156.478 629.747 155.919 627.537 156.309 C 623.4 157.041 619.6 155.525 615.672 154.943 C 614.586 154.782 613.739 155.373 612.699 155.195 C 611.648 155.015 610.591 155.155 609.593 154.506 C 608.393 153.726 607.229 154.846 606.008 154.909 C 605.279 154.948 604.483 155.138 603.713 155.14 C 599.978 155.146 596.268 155.489 592.549 155.785 C 591.255 155.888 589.877 155.822 588.566 155.774 C 585.331 155.655 582.272 156.785 578.931 156.429 C 575.534 156.066 571.977 156.807 568.488 157.378 C 564.506 158.03 560.438 158.596 556.334 158.472 C 554.378 158.413 552.503 159.312 550.474 159.215 C 549.03 159.145 547.592 159.328 546.177 158.824 C 544.046 158.064 541.818 158.564 539.637 158.455 C 536.655 158.306 534.244 157.137 532.283 154.909 C 531.904 154.479 531.314 154.236 530.754 153.862 C 530.987 153.522 531.077 153.204 531.81 153.182 C 533.532 153.129 535.168 153.358 536.868 153.616 C 541.395 154.303 545.994 154.095 550.564 153.994 C 551.193 153.98 551.84 154.264 552.722 153.865 C 550.783 152.924 548.825 152.846 546.963 152.642 C 544.202 152.341 541.382 152.06 538.632 152.294 C 533.524 152.728 528.416 152.352 523.322 152.645 C 520.695 152.796 518.088 153.341 515.436 153.326 C 514.066 153.317 511.187 151.067 510.914 149.747 C 510.781 149.109 511.194 148.876 511.728 148.556 C 513.459 147.52 515.325 147.358 517.361 147.506 C 517.195 144.858 514.422 146.15 513.639 144.633 C 513.289 143.137 515.086 142.616 515.567 141.329 C 514.772 140.822 513.776 140.83 513.438 139.784 C 513.671 139.14 514.845 138.81 514.282 137.739 C 514.758 137.66 515.148 137.596 515.488 137.539 C 515.953 136.538 515.088 135.918 514.774 135.378 C 513.753 133.619 514.304 131.46 513.13 129.799 C 513.062 129.701 513.131 129.405 513.236 129.302 C 515.002 127.558 513.685 125.837 513.047 124.267 C 511.507 120.482 510.422 116.608 510.929 112.532 C 511.283 109.688 511.182 106.867 511.231 104.034 C 511.277 101.35 511.329 98.662 511.221 95.982 C 511.034 91.284 511.358 86.607 511.617 81.926 C 511.632 81.635 511.659 81.278 511.827 81.073 C 513.339 79.23 513.066 76.415 515.203 74.897 C 515.393 74.762 515.281 74.193 515.66 73.988 C 516.218 74.395 516.17 74.395 516.172 75.808 C 516.172 76.571 516.371 77.333 516.482 78.103 C 518.024 77.554 519.226 76.505 521.193 76.903 C 522.835 77.235 524.918 76.975 526.274 75.363 C 522.916 74.747 520.416 74.54 518.009 72.55 C 518.063 71.377 519.107 71.494 519.799 71.272 C 522.985 70.253 526.313 70.265 529.598 70.182 C 534.59 70.055 539.589 70.196 544.583 70.134 C 549.055 70.079 553.526 69.883 557.999 69.796 C 559.342 69.77 560.55 69.139 561.83 68.888 C 564.89 68.288 567.87 68.731 570.863 68.74 C 575.763 68.756 580.615 67.97 585.496 68.005 C 589.426 68.033 593.337 67.903 597.258 67.748 C 598.694 67.691 600.244 67.839 601.736 67.965 C 604.939 68.236 608.099 66.923 611.29 67.62 C 613.609 68.128 615.917 67.327 618.261 67.897 C 620.502 68.442 622.805 67.501 625.108 67.583 C 629.39 67.737 633.665 67.671 637.95 68.214 C 640.167 68.495 642.566 67.751 644.85 68.002 C 650.409 68.614 656.008 68.446 661.576 68.792 C 665.768 69.053 668.866 71.233 672.496 72.394 C 674.068 72.896 674.103 74.318 672.866 75.475 C 672.58 75.742 672.127 75.948 672.271 76.618 Z " fill="rgb(254,254,254)"/></svg>