<?xml version="1.0" encoding="UTF-8" standalone="no"?><!-- Generator: Gravit.io --><svg xmlns="http://www.w3.org/2000/svg" xmlns:xlink="http://www.w3.org/1999/xlink" style="isolation:isolate" viewBox="55.705 66.407 123.086 93.822" width="123.086pt" height="93.822pt"><path d=" M 154.817 134.476 C 156.894 134.868 159.376 133.156 160.272 130.713 C 156.38 131.54 156.38 131.54 154.817 134.476 Z  M 117.882 146.491 C 123.022 146.202 127.918 144.943 132.97 144.888 C 128.106 143.826 118.778 144.966 117.882 146.491 Z  M 162.855 93.149 C 162.054 91.701 161.188 92.67 160.443 92.682 C 158.212 92.719 156.062 92.087 153.843 92.043 C 152.27 92.012 150.974 92.297 150.058 94.082 C 154.548 94.824 158.622 93.58 162.855 93.149 Z  M 57.187 109.542 C 57.705 109.435 58.21 109.299 58.225 109.796 C 58.282 111.562 59.713 113.051 59.305 114.856 C 59.081 115.844 59.558 116.157 60.274 116.411 C 61.172 116.73 61.383 115.994 61.58 115.428 C 62.204 113.64 63.066 111.86 63.249 110.019 C 63.375 108.76 64.099 107.973 64.484 106.952 C 66.359 101.972 67.418 96.764 68.847 91.659 C 69.133 90.637 69.765 89.688 69.517 88.551 C 68.522 87.706 67.726 88.044 66.902 88.885 C 65.835 89.974 64.54 90.767 62.824 91.734 C 63.86 89.612 64.859 88.184 66.512 86.968 C 69.553 84.731 72.29 82.08 75.174 79.584 C 73.622 78.945 72.163 78.094 70.494 79.72 C 69.382 80.805 67.05 80.387 65.835 79.12 C 69.916 76.218 74.082 73.708 79.292 73.668 C 82.065 73.647 84.653 72.595 87.358 72.182 C 89.549 71.846 91.733 71.469 93.958 71.485 C 95.95 71.499 97.584 70.692 99.136 69.332 C 99.653 69.302 99.462 70.149 100.049 70.262 C 100.42 70.105 100.624 69.574 101.414 69.923 C 102.195 70.269 103.255 70.041 104.226 69.717 C 107.583 68.599 111.133 68.972 114.588 68.57 C 121.257 67.793 128.004 67.853 134.645 66.758 C 134.823 66.728 135.009 66.743 135.191 66.739 C 140.093 66.616 144.998 66.333 149.895 66.425 C 153.677 66.496 157.442 67.297 161.244 67.086 C 166.077 66.818 170.631 68.178 175.179 69.443 C 176.357 69.77 177.75 70.405 178.289 71.829 C 176.266 73.929 173.939 73.401 171.63 72.682 C 169.995 72.173 168.55 72.311 167.109 73.312 C 166.309 73.868 165.31 74.138 164.046 74.693 C 166.695 74.735 168.739 75.727 170.89 76.471 C 170.442 76.542 169.993 76.613 169.46 76.697 C 170.685 77.57 172.094 76.137 173.497 77.302 C 172.246 77.302 171.298 77.302 170.349 77.302 C 171.938 77.274 172.813 78.703 174.14 79.135 C 174.646 79.3 175.118 79.494 174.905 80.1 C 174.737 80.58 174.491 81.094 173.753 80.98 C 173.22 80.898 172.664 80.964 172.137 80.964 C 171.928 81.428 172.391 81.238 172.476 81.662 C 171.419 81.65 170.342 82.062 169.28 80.726 C 170.169 82.951 170.169 82.951 168.095 84.064 C 169.526 85.727 173.02 84.858 173.166 87.962 C 171.388 89.31 169.115 87.222 167.462 89.137 C 168.422 89.928 169.742 89.828 170.728 90.626 C 172.472 92.038 172.737 92.537 171.367 94.221 C 170.792 94.927 171.407 95.884 170.681 96.372 C 170.057 96.792 169.323 97.047 168.48 97.45 C 169.686 98.077 170.766 98.638 171.991 99.275 C 171.98 97.563 173.01 96.566 174.077 95.579 C 174.485 95.202 174.89 95.031 175.361 95.387 C 175.821 95.735 175.855 96.183 175.553 96.669 C 175.177 97.274 175.001 97.986 174.451 98.504 C 173.841 99.078 172.964 99.415 173.11 100.615 C 173.182 101.212 172.526 101.089 172.167 100.787 C 172.068 100.181 172.974 100.855 172.716 100.098 C 172.392 99.889 171.874 99.728 171.787 100.272 C 171.533 101.86 170.186 101.581 169.266 101.711 C 167.286 101.989 165.269 101.997 163.267 102.13 C 162.88 102.156 162.372 101.961 162.226 102.57 C 161.94 103.761 160.808 104.616 160.82 105.949 C 161.82 106.459 162.389 105.433 163.203 105.408 C 165.253 105.344 167.312 104.674 169.276 106.069 C 170.046 106.616 171.107 105.756 172.06 105.778 C 172.411 106.405 171.309 105.992 171.693 106.672 C 172.196 107.097 172.88 107.623 173.018 108.502 C 172.409 108.78 171.776 109.069 171.103 109.375 C 171.28 110.015 171.43 110.558 171.611 111.215 C 170.562 111.57 170.195 112.601 169.377 113.618 C 171.526 113.372 173.144 114.53 174.98 114.891 C 175.962 115.085 176.893 114.54 177.925 114.847 C 178.676 115.072 178.82 115.386 178.786 116.045 C 178.684 118.045 177.714 119.514 176.075 120.589 C 174.328 121.736 173.677 121.427 173.553 119.401 C 173.539 119.169 173.504 118.938 173.481 118.734 C 172.448 118.243 171.551 118.799 170.619 118.889 C 168.94 119.052 167.256 119.21 165.571 119.246 C 164.562 119.268 163.921 119.523 164.037 120.887 C 162.968 119.391 161.611 120.195 161.006 120.563 C 159.845 121.269 158.357 121.899 157.453 123.751 C 159.039 123.014 159.846 124.114 160.292 124.492 C 161.705 125.69 163.122 125.165 164.394 124.86 C 165.609 124.569 166.646 123.945 167.615 125.179 C 167.996 125.664 168.562 124.61 168.969 125.84 C 168.903 127.774 166.667 127.879 165.342 128.904 C 165.727 132.207 162.31 132.505 161.145 134.519 C 160.49 134.183 161.285 133.779 160.954 133.599 C 158.027 136.88 155.042 139.919 150.211 140.343 C 151.952 141.55 154.735 142.638 156.316 142.596 C 157.928 142.552 158.325 144.311 159.785 144.729 C 157.837 146.179 156.062 147.726 153.747 148.516 C 151.462 149.297 149.002 148.324 146.728 149.259 C 151.369 149.811 155.967 150.325 159.666 153.618 C 157.519 156.158 154.466 155.808 151.771 156.485 C 147.325 157.601 142.661 157.161 138.23 158.409 C 137.374 158.65 136.426 158.706 135.534 158.648 C 130.261 158.302 125.109 159.528 119.886 159.784 C 116.863 159.931 113.881 159.191 110.881 159.122 C 106.581 159.023 102.285 158.523 97.965 159.663 C 94.55 160.565 90.927 160.121 87.392 160.11 C 86.584 160.108 86.324 159.377 85.818 158.698 C 87.528 157.718 89.139 156.795 90.854 155.813 C 90.058 154.767 88.735 154.762 87.958 153.806 C 88.792 152.22 87.773 151.178 86.585 150.428 C 85.296 149.614 84.098 148.724 83.126 147.576 C 81.523 145.682 79.174 145.258 77.05 145.059 C 75.345 144.899 76.523 146.306 76.866 147.004 C 76.74 147.155 76.679 147.303 76.592 147.321 C 75.758 147.492 76.136 149.16 74.889 148.744 C 73.821 148.388 73.975 147.263 73.708 146.461 C 73.428 145.623 73.445 144.684 72.432 143.966 C 70.072 146.249 73.376 148.521 72.258 150.771 C 70.593 151.094 70.074 150.147 69.462 148.5 C 68.238 145.208 68.072 141.765 67.384 138.402 C 67.337 138.168 67.389 137.785 67.26 137.713 C 64.126 135.958 65.709 133.256 65.849 130.846 C 65.851 130.801 65.777 130.752 65.679 130.635 C 64.866 130.711 64.994 131.625 64.919 131.967 C 64.538 133.703 63.561 135.233 63.299 137.015 C 63.214 137.589 62.529 137.936 61.72 138.017 C 60.635 138.125 60.993 137.437 60.777 136.945 C 60.269 135.787 60.576 134.569 60.33 133.071 C 58.722 134.833 58.553 137.581 55.978 138.331 C 55.223 135.205 56.192 132.384 56.957 129.562 C 57.483 127.621 57.916 125.654 58.874 123.834 C 60.032 121.635 58.986 119.545 58.261 117.474 C 57.356 114.888 57.107 112.229 57.187 109.542 Z " fill="rgb(254,254,254)"/></svg>