<?xml version="1.0" encoding="UTF-8" standalone="no"?><!-- Generator: Gravit.io --><svg xmlns="http://www.w3.org/2000/svg" xmlns:xlink="http://www.w3.org/1999/xlink" style="isolation:isolate" viewBox="206.765 62.426 172.051 101.782" width="172.051pt" height="101.782pt"><path d=" M 375.024 112.227 C 375.593 110.528 376.292 109.39 375.691 107.966 C 375.488 109.229 374.29 110.216 375.024 112.227 Z  M 299.93 82.056 C 298.177 82.666 296.56 81.706 294.892 81.493 C 294.37 81.427 293.825 81.465 293.303 81.555 C 289.969 82.124 286.643 82.006 283.305 81.562 C 281.39 81.307 279.478 81.37 277.701 82.424 C 279.191 82.571 280.67 82.568 282.15 82.571 C 283.772 82.574 285.43 82.348 287.004 82.662 C 288.24 82.909 289.469 83.033 290.683 82.991 C 293.617 82.892 296.534 82.878 299.462 83.243 C 300.308 83.347 301.464 83.882 302.216 82.393 C 301.203 82.863 300.354 82.495 299.251 82.54 C 299.624 82.274 299.777 82.164 299.93 82.056 Z  M 217.715 119.517 C 218.891 119.388 219.798 118.601 220.893 118.833 C 220.737 118.03 219.909 118.556 219.767 117.766 C 220.899 116.287 222.398 116.838 223.801 117.063 C 225.476 117.333 227.133 117.455 228.851 117.09 C 229.139 117.538 228.78 117.86 228.455 118.226 C 229.062 118.32 229.647 118.556 230.073 117.884 C 230.115 117.23 229.408 117.377 229.255 116.798 C 229.601 116.527 229.966 116.241 230.697 115.669 C 223.857 114.673 217.492 115.418 211.205 117.306 C 210.906 115.847 212.197 113.782 213.522 113.602 C 215.007 113.402 216.387 112.552 217.947 112.784 C 218.455 112.859 218.725 112.264 219.032 111.595 C 214.918 109.618 211.061 112.227 207.049 112.262 C 206.568 111.338 206.661 110.716 207.622 110.159 C 208.669 109.553 209.537 108.914 210.899 109.087 C 212.365 109.272 213.606 107.835 215.046 107.314 C 218.117 106.203 221.42 106.583 224.421 105.195 C 225.144 104.861 225.893 104.599 226.626 104.306 C 226.196 101.951 227.095 100.524 229.389 100.122 C 230.176 99.984 230.915 99.82 231.716 99.378 C 231.29 98.663 230.8 98.146 230.18 97.775 C 230.965 94.647 233.062 93.865 235.431 93.515 C 236.212 93.4 236.996 93.296 237.768 93.126 C 238.402 92.986 238.546 92.36 238.523 91.764 C 238.498 91.127 238.054 91.344 237.657 91.234 C 235.117 90.529 232.539 91.533 229.64 90.977 C 231.798 87.183 235.257 88.644 237.909 87.604 C 237.703 86.995 237.495 86.387 237.261 85.701 C 238.994 85.174 240.529 84.228 242.286 83.828 C 243.391 83.577 244.525 83.786 245.464 83.873 C 246.766 83.993 247.814 83.613 248.925 83.234 C 249.404 83.071 249.804 82.788 250.244 83.215 C 251.224 84.164 252.277 82.326 253.373 83.386 C 253.772 83.771 253.95 82.353 254.587 82.257 C 255.26 82.366 254.545 83.02 255.112 83.307 C 256.598 82.834 258.586 84.224 260.246 82.164 C 259.409 81.674 259.026 80.693 257.93 81.668 C 257.347 82.186 256.122 82.577 255.747 81.356 C 253.922 81.408 252.374 81.88 250.702 81.997 C 247.528 82.218 244.381 81.141 241.247 81.953 C 240.817 82.065 240.699 81.702 240.442 81.686 C 240.059 81.661 239.505 81.7 239.6 82.333 C 239.648 82.653 240.407 82.96 239.616 83.21 C 238.984 83.411 239.528 82.301 238.797 82.262 C 236.57 83.727 234.194 82.037 231.629 82.034 C 231.953 81.182 232.293 80.287 232.608 79.459 C 231.77 79.615 232.017 78.191 231.461 77.721 C 233.161 76.191 235.199 76.34 237.216 76.368 C 238.29 76.383 239.323 76.27 240.193 74.908 C 236.24 73.812 231.858 75.915 228.556 72.225 C 228.792 71.332 230.169 70.26 231.512 69.776 C 232.876 69.284 234.446 69.307 235.65 67.822 C 234.958 67.565 234.331 67.323 234.048 66.4 C 235.405 65.04 237.184 64.833 238.862 64.33 C 242.093 63.362 245.424 63.938 248.666 63.507 C 251.474 63.133 254.303 64.074 257.098 62.942 C 258.538 62.36 260.138 63.118 261.666 63.254 C 263.547 63.42 265.421 63.405 267.234 62.849 C 269.771 62.072 272.324 62.558 274.818 62.804 C 276.797 62.999 278.67 62.441 280.588 62.526 C 285.63 62.748 290.683 62.928 295.704 63.36 C 298.882 63.634 302.032 63.43 305.187 63.616 C 310.413 63.924 315.632 64.364 320.858 64.656 C 323.244 64.789 325.635 64.907 328.019 65.002 C 333.744 65.229 339.411 66.231 345.16 66.304 C 348.207 66.343 351.445 66.751 354.355 68.34 C 355.066 68.728 355.994 68.938 356.02 69.998 C 356.044 70.997 355.117 71.205 354.494 71.619 C 353.867 72.036 353.238 72.451 352.501 72.94 C 354.117 74.328 355.769 75.434 357.691 76.224 C 357.444 77.917 356.539 77.557 355.601 77.189 C 353.502 76.366 352.656 76.583 351.291 78.201 C 351.387 78.669 351.667 78.846 352.077 78.927 C 352.841 79.077 353.864 79.126 353.755 80.333 C 353.66 81.399 352.83 82.005 351.9 82.189 C 350.918 82.384 349.727 82.137 348.968 82.689 C 347.321 83.886 345.317 83.241 343.721 84.351 C 342.276 85.357 340.787 84.797 339.319 84.507 C 338.837 84.411 338.39 84.374 337.8 84.524 C 338.748 85.394 339.629 85.984 340.86 85.876 C 343.754 85.621 346.551 86.748 349.468 86.743 C 350.609 86.74 352.016 87.542 353.281 88.046 C 353.877 88.284 353.688 88.945 353.871 89.581 C 352.869 89.948 352.331 91.196 351.004 91.059 C 351.405 92.256 351.755 93.127 350.179 92.605 C 349.071 92.239 347.811 92.461 346.724 91.831 C 346.261 91.563 346.065 91.991 345.486 92.32 C 347.737 92.445 349.536 93.591 351.586 93.552 C 352.65 93.532 353.328 95.199 352.883 96.322 C 352.608 97.019 351.999 97.52 351.961 98.35 C 352.035 98.428 352.13 98.579 352.171 98.563 C 355.195 97.311 357.268 100.306 359.881 100.783 C 364.512 101.626 369.17 102.28 373.816 103.011 C 374.133 103.061 374.457 103.067 374.77 103.135 C 378.703 103.984 379.553 105.408 378.245 110.24 C 375.319 121.041 371.662 131.549 368.015 142.058 C 366.789 145.591 365.529 149.125 365.013 152.929 C 364.846 154.158 363.94 154.63 362.927 154.8 C 362.379 154.891 361.722 154.523 361.303 155.345 C 362.697 155.991 364.164 156.399 365.495 157.224 C 366.164 157.638 366.536 158.073 366.289 158.91 C 366.053 159.709 366.057 160.761 364.989 160.853 C 361.337 161.169 357.709 161.667 354.056 160.476 C 352.663 160.022 351.059 160.402 349.517 160.402 C 349.739 161.489 350.843 160.528 351.077 161.606 C 350.123 163.642 348.244 163.909 346.444 163.883 C 340.476 163.794 334.517 163.572 328.586 162.542 C 325.644 162.031 322.607 162.25 319.614 162.094 C 313.471 161.773 307.375 160.791 301.19 160.844 C 298.789 160.864 296.228 160.264 293.762 160.061 C 291.863 159.905 289.86 160.107 287.912 160.234 C 286.466 160.328 285.163 159.68 283.763 159.708 C 279.878 159.784 275.994 159.873 272.109 159.904 C 265.889 159.953 259.731 161.055 253.496 161.137 C 249.839 161.185 246.155 161.92 242.462 162.219 C 239.036 162.495 235.532 162.705 232.181 163.876 C 231.457 164.129 230.73 163.751 230.002 163.589 C 228.569 163.27 227.129 163.685 225.749 163.976 C 222.484 164.665 219.393 163.68 216.315 162.894 C 212.974 162.041 213.627 162.384 212.627 160.811 C 214.095 158.915 215.932 159.841 217.619 160.07 C 219.133 160.275 219.94 159.621 219.842 157.887 C 217.032 157.915 214.832 156.535 214.542 154.355 C 221.01 155.162 227.472 156.159 233.527 153.149 C 232.349 152.897 232.262 152.825 231.059 153.251 C 229.707 153.731 228.358 153.234 227.05 153.173 C 225.472 153.1 224.148 153.982 222.668 153.967 C 221.698 153.957 220.441 154.765 219.837 152.967 C 220.528 152.417 221.382 152.663 221.907 152 C 220.782 151.531 219.757 152.476 218.647 152.269 C 218.171 152.18 217.639 152.278 217.423 151.668 C 217.203 151.042 217.709 150.726 217.964 150.279 C 219.144 148.206 220.832 147.507 222.941 147.459 C 224.601 147.421 226.092 146.419 227.672 145.76 C 226.337 146.162 225.35 144.782 224.069 144.927 C 221.277 145.244 218.574 144.33 215.817 144.153 C 214.939 144.096 215.03 142.868 214.154 142.194 C 215.545 142.119 216.249 141.306 217.088 140.758 C 218.454 139.866 220.067 139.739 221.596 139.526 C 222.959 139.337 224.209 138.807 225.53 138.293 C 221.975 136.567 218.06 138.79 214.473 137.181 C 215.968 133.122 217.039 132.244 219.622 133.215 C 220.552 133.564 221.582 133.293 222.537 132.38 C 219.451 131.656 217.214 128.46 213.753 128.861 C 214.17 127.707 214.343 127.587 218.87 126.249 C 220.857 125.662 222.877 125.218 224.908 124.702 C 225.018 123.477 224.442 122.94 223.061 123.339 C 221.231 123.868 218.637 122.243 217.735 120.493 C 217.595 120.222 217.715 119.78 217.715 119.517 Z " fill="rgb(254,254,254)"/></svg>