<?xml version="1.0" encoding="UTF-8" standalone="no"?><!-- Generator: Gravit.io --><svg xmlns="http://www.w3.org/2000/svg" xmlns:xlink="http://www.w3.org/1999/xlink" style="isolation:isolate" viewBox="390.996 61.298 107.628 105.653" width="107.628pt" height="105.653pt"><path d=" M 461.547 65.037 C 464.493 65.715 467.032 67.648 470.192 67.449 C 467.405 66.28 464.713 64.805 461.547 65.037 Z  M 472.197 150.233 C 474.525 150.707 479.299 146.43 480.269 141.901 C 477.474 144.651 475.425 147.765 472.197 150.233 Z  M 472.93 68.34 C 482.938 73.794 489.666 82.017 493.526 92.659 C 494.073 84.851 480.64 68.938 472.93 68.34 Z  M 406.958 72.801 C 406.006 74.167 404.568 75.122 403.452 76.339 C 400.767 79.263 398.147 82.222 396.389 85.791 C 392.939 92.799 391.763 100.177 392.45 108.009 C 392.694 110.791 392.9 113.498 393.737 116.155 C 394.167 117.519 394.771 118.827 395.29 120.147 C 396.405 122.99 397.405 126.172 399.423 128.29 C 401.734 130.714 402.762 133.922 405.38 136.045 C 403.823 133.156 403.306 129.796 400.768 127.315 C 399.717 126.289 399.224 124.63 398.925 123.069 C 399.72 124.331 400.565 125.53 401.641 126.869 C 401.781 124.452 400.967 122.4 400.497 120.317 C 399.333 115.171 398.884 109.942 399.288 104.731 C 399.79 98.26 401.797 92.114 405.16 86.548 C 408.117 81.651 412.306 77.682 416.769 74.267 C 421.097 70.955 425.834 68.062 431.101 66.218 C 433.114 65.514 435.086 64.789 437.183 64.351 C 437.971 64.186 439.208 64.008 439.094 62.597 C 441.806 63.491 444.304 62.465 446.841 62.363 C 450.153 62.229 453.474 62.33 456.84 62.055 C 456.045 61.883 455.25 61.711 454.454 61.539 C 456.136 61.093 457.668 61.308 459.275 61.83 C 462.128 62.757 465.081 63.37 467.982 64.151 C 472.216 65.289 476.253 67.016 479.931 69.324 C 481.994 70.618 483.999 72.193 485.561 74.259 C 487.54 76.876 489.928 79.2 491.489 82.118 C 494.328 87.425 496.586 92.936 497.016 99.047 C 497.18 101.374 497.743 103.698 497.681 106.011 C 497.566 110.38 498.407 114.664 498.583 119.01 C 498.739 122.883 498.449 126.649 497.662 130.36 C 496.705 134.876 495.422 139.448 492.835 143.254 C 490.924 146.06 488.878 148.941 486.068 151.115 C 483.93 152.768 481.511 154.102 480.014 156.57 C 479.301 157.744 478.069 158.728 476.865 159.458 C 473.038 161.782 469.429 164.378 464.857 165.476 C 460.902 166.426 456.997 166.868 452.992 166.946 C 448.575 167.031 444.396 165.864 440.185 164.68 C 433.078 162.684 426.913 158.84 420.993 154.719 C 417.973 152.616 415.297 149.856 412.8 146.969 C 410.444 144.242 408.154 141.414 405.474 138.917 C 403.392 136.976 401.906 134.345 400.387 131.878 C 399.839 130.989 399.317 129.971 398.703 129.197 C 395.364 124.994 393.671 120.055 392.318 115.03 C 391.433 111.74 391.08 108.341 391.003 104.827 C 390.882 99.348 392.316 94.327 393.747 89.231 C 394.641 86.045 396.376 83.039 398.321 80.616 C 400.601 77.777 402.651 74.408 406.15 72.643 C 406.389 72.523 406.575 72.444 406.958 72.801 Z " fill="rgb(254,254,254)"/></svg>