<?xml version="1.0" encoding="UTF-8" standalone="no"?><!-- Generator: Gravit.io --><svg xmlns="http://www.w3.org/2000/svg" xmlns:xlink="http://www.w3.org/1999/xlink" style="isolation:isolate" viewBox="264.32 374.878 183.455 48.743" width="183.455pt" height="48.743pt"><path d=" M 275.111 405.334 C 277.116 405.846 275.639 403.506 277.103 403.614 C 275.932 402.548 274.9 403.228 273.796 403.551 C 274.269 404.194 274.721 404.806 275.111 405.334 Z  M 415.63 417.226 C 415.086 416.887 414.852 416.645 414.579 416.587 C 409.062 415.42 403.407 415.357 397.84 414.454 C 392.622 413.609 387.263 413.628 381.967 413.247 C 380.209 413.12 378.441 413.013 376.7 412.751 C 375.279 412.536 370.888 412.429 369.339 412.874 C 384.696 413.6 399.95 415.402 415.63 417.226 Z  M 273.343 417.562 C 273.997 419.022 275.047 418.794 275.984 418.677 C 278.464 418.367 280.938 417.686 283.41 417.702 C 287.776 417.732 292.03 416.737 296.417 416.746 C 299.824 416.754 303.322 416.158 306.772 415.88 C 312.831 415.394 318.906 414.924 325.001 415.076 C 325.804 415.096 325.805 415.059 326.421 414.499 C 319.167 413.698 311.848 415.2 304.503 414.723 C 304.266 414.707 304.025 414.764 303.787 414.797 C 302.252 415.012 300.716 415.414 299.182 415.412 C 292.837 415.407 286.496 415.507 280.188 416.209 C 277.922 416.461 275.697 417.085 273.343 417.562 Z  M 266.954 420.347 C 268.075 420.158 268.915 420.159 269.872 420.447 C 270.967 420.775 272.193 420.821 272.422 419.111 C 271.583 418.245 269.688 419.386 269.325 417.409 C 270.195 417.472 271.031 417.839 271.933 417.522 C 272.525 416.401 271.324 416.409 270.723 415.908 C 271.706 414.282 273.046 413.261 275.035 413.184 C 274.705 412.601 274.708 412.085 275.199 411.23 C 272.731 412.226 270.47 412.902 268.527 410.814 C 271.426 409.955 274.17 409.143 276.914 408.331 C 276.874 408.157 276.834 407.983 276.795 407.808 C 274.201 408.259 271.645 409.737 268.985 408.367 C 268.926 405.532 271.607 406.841 272.783 405.791 C 271.482 405.062 270.546 403.853 268.548 404.057 C 269.974 402.131 272.275 402.819 273.457 401.34 C 272.77 400.79 271.259 400.801 271.533 399.265 C 273.029 398.424 274.24 398.957 275.322 400.127 C 275.643 399.03 275.837 398.015 277.015 397.713 C 275.708 396.171 274.249 396.481 272.785 396.897 C 271.068 397.386 269.242 397.277 267.538 397.9 C 267.013 398.091 266.31 398.033 266.03 397.191 C 267.229 395.776 269.227 395.881 271.018 394.794 C 268.534 394.549 266.46 395.537 264.32 394.952 C 268.035 392.715 272.021 391.377 276.366 390.938 C 274.474 390.255 275.127 389.298 275.925 388.272 C 275.029 387.696 273.752 388.054 272.758 386.928 C 274.294 386.166 275.476 384.721 277.209 384.867 C 279.1 385.026 280.266 384.236 281.354 382.762 C 280.217 382.523 278.522 383.758 278.163 381.934 C 277.919 380.688 279.485 380.739 280.422 380.216 C 278.918 379.819 277.288 380.183 276.208 378.654 C 278.35 377.488 280.689 377.221 282.96 377.196 C 287.37 377.147 291.746 376.565 296.117 376.227 C 298.331 376.056 300.672 375.584 302.931 375.163 C 304.158 374.935 305.162 375.422 306.269 375.317 C 311.283 374.838 316.312 374.959 321.337 374.951 C 325.564 374.946 329.795 375.068 334.016 374.926 C 340.431 374.71 346.821 375.286 353.226 375.392 C 355.919 375.436 358.643 375.297 361.276 375.478 C 364.848 375.723 368.462 375.802 372.026 376.319 C 372.68 376.413 373.353 376.409 374.017 376.409 C 380.751 376.417 387.414 377.499 394.131 377.717 C 398.617 377.862 403.041 378.671 407.551 378.672 C 410.883 378.673 414.216 379.644 417.546 379.623 C 422.754 379.59 427.906 380.21 433.089 380.414 C 433.605 380.435 433.964 380.659 434.559 381.148 C 429.799 381.148 425.284 381.148 420.767 381.148 C 428.338 381.951 435.938 382.843 443.325 384.905 C 442.742 385.35 439.442 385.398 437.857 384.993 C 435.951 384.507 434.037 384.064 431.968 384.062 C 433.425 386.492 436.158 385.922 438.17 387.038 C 436.861 387.504 435.649 386.794 434.274 386.705 C 434.131 387.405 433.819 388.078 432.922 388.472 C 433.794 388.961 434.633 388.982 435.141 389.599 C 434.319 391.183 432.314 390.167 431.246 391.328 C 433.866 392.639 438.588 393.362 439.657 392.631 C 440.039 394.323 441.584 393.972 442.685 394.25 C 444.583 394.73 446.554 394.951 447.775 396.953 C 446.482 397.576 444.953 396.705 443.903 397.698 C 444.079 398.9 445.642 398.342 445.866 399.49 C 445.232 400.158 444.164 399.328 443.481 400.226 C 443.892 400.648 444.85 401.034 444.303 401.783 C 443.685 402.629 442.699 402.51 441.738 402.329 C 438.353 401.693 434.961 401.095 431.569 400.498 C 431.229 400.439 430.87 400.491 430.572 400.491 C 433.433 402.884 437.053 402.977 440.442 403.742 C 441.92 404.075 442.985 404.907 444.199 405.852 C 443.24 406.846 442.253 406.758 441.165 406.534 C 438.835 406.056 436.492 405.626 434.141 405.258 C 433.533 405.163 432.812 405.032 431.915 405.833 C 435.844 406.847 439.788 406.773 443.238 408.467 C 442.75 410.381 442.024 410.659 439.881 410.285 C 437.416 409.856 434.957 409.321 432.439 409.254 C 432.063 409.244 431.599 409.104 431.279 409.711 C 435 410.585 439.055 410.191 442.295 412.989 C 441.554 413.64 441.081 413.985 440.069 413.702 C 437.788 413.065 435.395 412.901 433.102 412.215 C 431.496 411.735 429.916 412.793 427.751 412.403 C 429.429 414.066 431.21 414.025 432.777 414.297 C 434.178 414.541 435.589 414.844 436.994 414.986 C 438.67 415.154 439.606 415.845 439.839 417.554 C 439.329 417.598 438.747 417.648 438.032 417.708 C 439.065 418.348 440.097 418.793 440.81 419.741 C 439.838 421.193 438.535 420.172 436.912 420.156 C 438.615 421.085 439.885 421.779 441.434 422.623 C 439.965 423.997 438.344 423.64 437.077 423.365 C 432.519 422.375 427.875 422.033 423.281 421.345 C 418.741 420.665 414.181 420.018 409.616 419.545 C 406.578 419.23 403.515 419.003 400.464 418.778 C 395.13 418.384 389.8 417.908 384.465 417.536 C 376.057 416.952 367.658 416.923 359.248 416.908 C 354.66 416.899 350.066 416.752 345.486 416.944 C 339.454 417.197 333.418 417.411 327.392 417.728 C 324.466 417.881 321.537 417.814 318.623 418.028 C 313.26 418.422 307.908 418.977 302.549 419.425 C 300.329 419.611 298.101 419.75 295.875 419.814 C 288.692 420.021 281.567 420.674 274.548 422.293 C 272.59 422.745 270.734 422.006 268.964 421.371 C 268.422 421.177 267.566 421.195 266.954 420.347 Z " fill="rgb(254,254,254)"/></svg>