<?xml version="1.0" encoding="UTF-8" standalone="no"?><!-- Generator: Gravit.io --><svg xmlns="http://www.w3.org/2000/svg" xmlns:xlink="http://www.w3.org/1999/xlink" style="isolation:isolate" viewBox="208 52.667 95 117" width="95pt" height="117pt"><defs><clipPath id="_clipPath_Ou3oOtP7UELmyI0xCeBfYBFCnf3YL454"><rect width="500" height="500"/></clipPath></defs><g clip-path="url(#_clipPath_Ou3oOtP7UELmyI0xCeBfYBFCnf3YL454)"><clipPath id="_clipPath_IS8xRmjjGcpd6B8bL22umYvp3Nqm1TYO"><path d=" M 0 0 L 0 500 L 500 500 L 500 0 L 0 0 Z " fill="rgb(255,255,255)"/></clipPath><g clip-path="url(#_clipPath_IS8xRmjjGcpd6B8bL22umYvp3Nqm1TYO)"><path d=" M 128.622 95.687 C 128.849 95.667 129.095 95.628 129.354 95.582 L 129.349 95.727 L 128.5 95.797 C 128.54 95.761 128.583 95.722 128.622 95.687 Z  M 110.876 73.458 C 127.402 75.294 128.418 88.734 128.48 90.38 C 128.447 90.433 128.416 90.491 128.383 90.547 C 108.67 91.264 110.876 73.458 110.876 73.458 Z  M 150.012 73.458 C 150.012 73.458 152.229 91.33 132.403 90.546 C 132.403 90.546 132.403 75.414 150.012 73.458 Z  M 131.928 95.517 L 131.882 95.103 C 132.077 95.049 132.261 95.02 132.435 95.004 C 132.581 95.141 132.736 95.286 132.9 95.437 L 131.928 95.517 Z  M 190.449 90.735 L 135.046 95.262 C 134.595 94.882 134.136 94.479 133.671 94.057 C 133.538 93.617 133.275 92.986 132.934 92.325 C 163.942 92.092 160.369 63.248 160.369 63.248 C 136.595 65.89 131.709 82.661 130.704 89.445 C 130.518 89.33 130.332 89.257 130.15 89.226 C 129.073 82.308 124.042 65.862 100.519 63.248 C 100.519 63.248 96.967 91.901 127.641 92.323 C 127.37 93.244 127.242 94.164 127.322 94.764 C 126.815 95.204 126.315 95.625 125.825 96.015 L 76.513 100.045 L 79.616 116.973 L 83.67 116.587 L 91.134 167.511 L 126.91 167.511 L 126.857 169.062 L 140.104 169.062 L 139.932 167.511 L 175.336 167.511 L 183.543 107.057 L 187.346 106.695 L 190.449 90.735 Z " fill="rgb(0,0,0)" fill-opacity="0.1"/><path d=" M 86.288 167.609 L 78.071 111.552 L 174.074 101.924 L 165.158 167.609 L 86.288 167.609 Z " fill="rgb(178,34,45)"/><path d=" M 75.499 120.272 L 176.406 110.644 L 179.313 95.695 L 72.592 104.415 L 75.499 120.272 Z " fill="rgb(8,29,54)"/><path d=" M 132.157 169.062 L 119.748 169.062 L 122.135 98.809 L 124.347 98.809 L 132.157 169.062 Z " fill="rgb(255,255,255)"/><path d=" M 123.266 100.075 C 121.812 100.151 120.377 100.917 120.184 99.473 C 119.991 98.029 121.068 94.589 122.492 94.281 C 123.916 93.973 125.71 97.415 126.132 98.809 C 126.554 100.203 125.541 99.343 124.185 99.876" fill="rgb(255,255,255)"/><path d=" M 124.943 95.518 C 124.943 95.518 124.943 81.345 141.437 79.512 C 141.437 79.512 143.514 96.252 124.943 95.518 Z  M 151.138 69.949 C 123.108 73.063 123.108 97.15 123.108 97.15 C 154.668 98.398 151.138 69.949 151.138 69.949 Z " fill="rgb(255,255,255)"/><path d=" M 104.779 79.512 C 121.273 81.345 121.273 95.518 121.273 95.518 C 102.702 96.252 104.779 79.512 104.779 79.512 Z  M 123.108 97.15 C 123.108 97.15 123.108 73.063 95.078 69.949 C 95.078 69.949 91.548 98.398 123.108 97.15 Z " fill="rgb(255,255,255)"/><path d=" M 123.532 98.275 C 123.532 98.275 110.847 111.696 102.451 108.217 L 105.544 107.688 L 102.643 105.883 C 102.643 105.883 110.728 109.306 123.069 96.754 L 123.532 98.275 Z " fill="rgb(255,255,255)"/><path d=" M 123.532 98.275 C 123.532 98.275 136.217 111.696 144.614 108.217 L 141.52 107.688 L 144.421 105.883 C 144.421 105.883 136.336 109.306 123.996 96.754 L 123.532 98.275 Z " fill="rgb(255,255,255)"/><path d=" M 255.111 71.135 C 256.037 71.166 256.857 71.159 257.556 71.134 C 257.56 71.14 257.565 71.146 257.57 71.152 L 254.84 71.201 C 254.933 71.176 255.021 71.157 255.111 71.135 Z  M 245.26 68.912 C 238.821 66.912 233.267 62.519 233.267 62.519 C 233.267 62.519 238.153 61.369 244.592 63.368 C 250.112 65.082 254.97 68.548 256.247 69.504 C 255.396 69.599 254.417 69.774 253.392 70.084 C 251.362 70.127 248.51 69.921 245.26 68.912 Z  M 272.555 58.857 C 278.957 55.342 286.03 55.921 286.03 55.921 C 286.03 55.921 282.722 62.199 276.32 65.714 C 271.41 68.41 266.109 68.697 263.903 68.685 C 263.709 68.465 263.45 68.278 263.149 68.122 C 264.091 66.547 267.262 61.763 272.555 58.857 Z  M 302.25 70.351 L 263.641 71.043 C 263.745 70.969 263.841 70.89 263.923 70.801 C 267.916 70.72 273.893 70.044 279.642 67.267 C 289.512 62.5 294.96 53.35 294.96 53.35 C 294.96 53.35 284.406 51.929 274.536 56.695 C 268.286 59.714 263.811 64.489 261.368 67.586 C 259.49 67.297 257.299 67.598 256.676 68.233 C 253.409 65.942 248.204 62.703 242.43 60.678 C 232.732 57.276 225.101 58.589 225.101 58.589 C 225.101 58.589 233.194 65.416 242.892 68.818 C 246.02 69.915 248.93 70.52 251.44 70.839 C 251.162 70.972 250.884 71.118 250.609 71.277 L 210.748 71.992 L 213.881 90.564 L 217.59 90.557 L 225.212 167.018 L 256.532 167.144 L 256.499 169.062 L 264.221 169.062 L 264.147 167.175 L 288.045 167.272 L 295.669 90.413 L 299.116 90.407 L 302.25 70.351 Z " fill="rgb(0,0,0)" fill-opacity="0.1"/><path d=" M 221.346 167.166 L 213.407 87.52 L 287.576 87.373 L 279.636 167.401 L 221.346 167.166 Z " fill="rgb(178,34,45)"/><path d=" M 222.696 101.32 C 222.839 101.538 222.887 101.806 222.883 102.066 C 222.878 102.377 222.785 102.716 222.527 102.891 C 222.213 103.106 221.743 102.98 221.515 102.674 C 221.289 102.37 221.202 101.708 221.399 101.361 C 221.682 100.862 222.387 100.848 222.696 101.32 Z " fill="rgb(255,255,255)"/><path d=" M 225.37 136.342 C 225.513 136.559 225.561 136.827 225.557 137.087 C 225.552 137.399 225.459 137.737 225.201 137.913 C 224.887 138.128 224.417 138.001 224.189 137.696 C 223.963 137.391 223.876 136.729 224.073 136.382 C 224.356 135.884 225.061 135.869 225.37 136.342 Z " fill="rgb(255,255,255)"/><path d=" M 223.842 113.121 C 223.764 113.512 223.503 113.878 223.13 114.018 C 222.705 114.177 222.194 114.008 221.912 113.654 C 221.629 113.299 221.572 112.792 221.725 112.366 C 221.898 111.88 222.493 111.168 223.076 111.344 C 223.723 111.539 223.956 112.547 223.842 113.121 Z " fill="rgb(255,255,255)"/><path d=" M 227.927 158.384 C 227.849 158.775 227.588 159.141 227.215 159.281 C 226.79 159.44 226.279 159.271 225.997 158.917 C 225.715 158.562 225.657 158.056 225.81 157.629 C 225.983 157.143 226.578 156.431 227.161 156.607 C 227.808 156.802 228.041 157.81 227.927 158.384 Z " fill="rgb(255,255,255)"/><path d=" M 224.637 126.125 C 223.857 126.954 222.648 125.891 223.092 124.955 C 223.33 124.453 224.201 123.704 224.683 124.334 C 225.022 124.775 225.019 125.719 224.637 126.125 Z " fill="rgb(255,255,255)"/><path d=" M 226.4 147.884 C 225.621 148.713 224.412 147.649 224.855 146.713 C 225.094 146.211 225.964 145.463 226.447 146.093 C 226.785 146.533 226.783 147.478 226.4 147.884 Z " fill="rgb(255,255,255)"/><path d=" M 229.385 106.44 C 229.528 106.657 229.576 106.925 229.572 107.185 C 229.567 107.497 229.474 107.835 229.216 108.011 C 228.902 108.226 228.432 108.099 228.204 107.794 C 227.978 107.489 227.891 106.827 228.088 106.48 C 228.371 105.981 229.076 105.967 229.385 106.44 Z " fill="rgb(255,255,255)"/><path d=" M 232.059 141.461 C 232.202 141.679 232.25 141.947 232.246 142.207 C 232.241 142.518 232.148 142.857 231.89 143.032 C 231.576 143.247 231.106 143.121 230.878 142.815 C 230.652 142.511 230.565 141.848 230.762 141.502 C 231.045 141.003 231.75 140.989 232.059 141.461 Z " fill="rgb(255,255,255)"/><path d=" M 230.531 118.24 C 230.453 118.631 230.192 118.997 229.819 119.137 C 229.394 119.296 228.883 119.127 228.601 118.773 C 228.318 118.419 228.261 117.912 228.414 117.485 C 228.587 116.999 229.182 116.287 229.765 116.463 C 230.412 116.658 230.645 117.666 230.531 118.24 Z " fill="rgb(255,255,255)"/><path d=" M 234.616 163.503 C 234.538 163.894 234.277 164.26 233.904 164.4 C 233.48 164.559 232.968 164.39 232.686 164.036 C 232.404 163.682 232.346 163.175 232.499 162.748 C 232.672 162.262 233.267 161.55 233.85 161.726 C 234.497 161.921 234.73 162.929 234.616 163.503 Z " fill="rgb(255,255,255)"/><path d=" M 231.326 131.245 C 230.546 132.073 229.337 131.01 229.781 130.074 C 230.019 129.572 230.89 128.824 231.372 129.453 C 231.711 129.894 231.708 130.839 231.326 131.245 Z " fill="rgb(255,255,255)"/><path d=" M 233.089 153.004 C 232.31 153.832 231.101 152.769 231.544 151.833 C 231.783 151.331 232.653 150.582 233.136 151.212 C 233.474 151.653 233.472 152.597 233.089 153.004 Z " fill="rgb(255,255,255)"/><path d=" M 236.051 99.939 C 236.193 100.157 236.241 100.425 236.237 100.685 C 236.233 100.997 236.139 101.335 235.882 101.511 C 235.567 101.726 235.098 101.599 234.87 101.293 C 234.643 100.989 234.557 100.327 234.754 99.98 C 235.036 99.481 235.741 99.467 236.051 99.939 Z " fill="rgb(255,255,255)"/><path d=" M 238.725 134.961 C 238.867 135.178 238.915 135.447 238.911 135.707 C 238.907 136.018 238.813 136.356 238.556 136.532 C 238.241 136.747 237.772 136.62 237.544 136.315 C 237.317 136.011 237.231 135.348 237.428 135.001 C 237.711 134.503 238.415 134.489 238.725 134.961 Z " fill="rgb(255,255,255)"/><path d=" M 237.196 111.74 C 237.118 112.131 236.857 112.497 236.484 112.637 C 236.06 112.796 235.548 112.627 235.266 112.273 C 234.984 111.918 234.927 111.412 235.079 110.985 C 235.253 110.499 235.847 109.787 236.43 109.963 C 237.077 110.158 237.311 111.166 237.196 111.74 Z " fill="rgb(255,255,255)"/><path d=" M 241.281 157.003 C 241.203 157.394 240.943 157.76 240.569 157.9 C 240.145 158.059 239.633 157.89 239.351 157.536 C 239.069 157.182 239.012 156.675 239.164 156.248 C 239.338 155.762 239.932 155.05 240.516 155.226 C 241.162 155.421 241.396 156.429 241.281 157.003 Z " fill="rgb(255,255,255)"/><path d=" M 237.991 124.745 C 237.211 125.573 236.002 124.51 236.446 123.574 C 236.684 123.072 237.555 122.324 238.038 122.953 C 238.376 123.394 238.374 124.338 237.991 124.745 Z " fill="rgb(255,255,255)"/><path d=" M 239.755 146.503 C 238.975 147.332 237.766 146.268 238.21 145.333 C 238.448 144.831 239.319 144.082 239.802 144.712 C 240.14 145.153 240.137 146.097 239.755 146.503 Z " fill="rgb(255,255,255)"/><path d=" M 252.236 100.317 C 252.369 100.541 252.404 100.811 252.389 101.07 C 252.37 101.381 252.261 101.715 251.996 101.879 C 251.672 102.079 251.209 101.932 250.995 101.616 C 250.782 101.302 250.726 100.636 250.938 100.299 C 251.244 99.813 251.948 99.831 252.236 100.317 Z " fill="rgb(255,255,255)"/><path d=" M 253.326 135.423 C 253.459 135.647 253.495 135.917 253.479 136.177 C 253.46 136.488 253.352 136.821 253.087 136.985 C 252.763 137.186 252.3 137.038 252.086 136.723 C 251.873 136.408 251.817 135.743 252.029 135.405 C 252.334 134.92 253.039 134.938 253.326 135.423 Z " fill="rgb(255,255,255)"/><path d=" M 252.848 112.157 C 252.752 112.544 252.475 112.898 252.096 113.021 C 251.665 113.161 251.161 112.969 250.895 112.602 C 250.63 112.236 250.595 111.727 250.767 111.307 C 250.962 110.829 251.588 110.145 252.163 110.347 C 252.8 110.571 252.988 111.589 252.848 112.157 Z " fill="rgb(255,255,255)"/><path d=" M 254.886 157.558 C 254.79 157.946 254.513 158.299 254.134 158.422 C 253.703 158.562 253.199 158.37 252.933 158.004 C 252.667 157.637 252.633 157.128 252.805 156.709 C 253 156.231 253.626 155.546 254.201 155.749 C 254.838 155.973 255.026 156.99 254.886 157.558 Z " fill="rgb(255,255,255)"/><path d=" M 253.055 125.185 C 252.238 125.977 251.079 124.86 251.564 123.945 C 251.825 123.454 252.728 122.746 253.182 123.397 C 253.5 123.852 253.455 124.796 253.055 125.185 Z " fill="rgb(255,255,255)"/><path d=" M 253.835 147.001 C 253.018 147.793 251.858 146.676 252.344 145.761 C 252.605 145.271 253.508 144.562 253.962 145.213 C 254.28 145.669 254.235 146.612 253.835 147.001 Z " fill="rgb(255,255,255)"/><path d=" M 243.534 104.395 C 243.676 104.612 243.724 104.88 243.72 105.14 C 243.715 105.452 243.622 105.79 243.365 105.966 C 243.05 106.181 242.581 106.054 242.353 105.749 C 242.126 105.444 242.04 104.782 242.236 104.435 C 242.519 103.936 243.224 103.922 243.534 104.395 Z " fill="rgb(255,255,255)"/><path d=" M 246.208 139.416 C 246.35 139.634 246.398 139.902 246.394 140.162 C 246.389 140.473 246.296 140.812 246.039 140.987 C 245.724 141.202 245.255 141.076 245.027 140.77 C 244.8 140.466 244.714 139.803 244.91 139.457 C 245.193 138.958 245.898 138.944 246.208 139.416 Z " fill="rgb(255,255,255)"/><path d=" M 244.679 116.195 C 244.601 116.586 244.34 116.952 243.967 117.092 C 243.543 117.251 243.031 117.082 242.749 116.728 C 242.467 116.374 242.409 115.867 242.562 115.44 C 242.736 114.954 243.33 114.242 243.913 114.418 C 244.56 114.613 244.794 115.621 244.679 116.195 Z " fill="rgb(255,255,255)"/><path d=" M 248.764 161.458 C 248.686 161.849 248.425 162.215 248.052 162.355 C 247.628 162.514 247.116 162.345 246.834 161.991 C 246.552 161.637 246.495 161.13 246.647 160.703 C 246.821 160.217 247.415 159.505 247.998 159.681 C 248.645 159.876 248.879 160.884 248.764 161.458 Z " fill="rgb(255,255,255)"/><path d=" M 246.441 129.2 C 245.661 130.028 244.452 128.965 244.896 128.029 C 245.134 127.527 246.005 126.779 246.488 127.408 C 246.826 127.849 246.823 128.793 246.441 129.2 Z " fill="rgb(255,255,255)"/><path d=" M 247.238 150.959 C 246.458 151.787 245.249 150.724 245.693 149.788 C 245.931 149.286 246.802 148.537 247.285 149.167 C 247.623 149.608 247.62 150.552 247.238 150.959 Z " fill="rgb(255,255,255)"/><path d=" M 270.215 100.681 C 270.347 100.904 270.383 101.174 270.367 101.434 C 270.349 101.745 270.24 102.079 269.975 102.243 C 269.651 102.443 269.188 102.295 268.974 101.98 C 268.761 101.666 268.705 101 268.917 100.663 C 269.222 100.177 269.927 100.195 270.215 100.681 Z " fill="rgb(255,255,255)"/><path d=" M 271.305 135.787 C 271.438 136.011 271.473 136.281 271.458 136.541 C 271.439 136.852 271.33 137.185 271.065 137.349 C 270.741 137.55 270.278 137.402 270.064 137.086 C 269.851 136.772 269.795 136.107 270.008 135.769 C 270.313 135.284 271.017 135.301 271.305 135.787 Z " fill="rgb(255,255,255)"/><path d=" M 257.136 135.787 C 257.269 136.011 257.305 136.281 257.289 136.541 C 257.27 136.852 257.162 137.185 256.897 137.349 C 256.573 137.55 256.109 137.402 255.896 137.086 C 255.683 136.772 255.627 136.107 255.839 135.769 C 256.144 135.284 256.849 135.301 257.136 135.787 Z " fill="rgb(255,255,255)"/><path d=" M 270.826 112.521 C 270.731 112.908 270.454 113.262 270.074 113.385 C 269.643 113.525 269.14 113.333 268.874 112.966 C 268.608 112.599 268.574 112.09 268.745 111.671 C 268.941 111.193 269.567 110.509 270.142 110.711 C 270.779 110.935 270.967 111.953 270.826 112.521 Z " fill="rgb(255,255,255)"/><path d=" M 272.864 157.922 C 272.769 158.309 272.492 158.663 272.112 158.786 C 271.681 158.926 271.178 158.734 270.912 158.367 C 270.646 158.001 270.612 157.492 270.783 157.073 C 270.979 156.595 271.605 155.91 272.179 156.112 C 272.817 156.336 273.005 157.354 272.864 157.922 Z " fill="rgb(255,255,255)"/><path d=" M 258.685 157.047 C 258.59 157.435 258.313 157.789 257.933 157.912 C 257.502 158.051 256.999 157.86 256.733 157.493 C 256.467 157.126 256.433 156.617 256.604 156.198 C 256.8 155.72 257.426 155.036 258 155.238 C 258.638 155.462 258.825 156.479 258.685 157.047 Z " fill="rgb(255,255,255)"/><path d=" M 271.033 125.548 C 270.217 126.341 269.057 125.224 269.543 124.309 C 269.803 123.818 270.707 123.11 271.161 123.761 C 271.479 124.216 271.434 125.16 271.033 125.548 Z " fill="rgb(255,255,255)"/><path d=" M 256.339 124.025 C 255.523 124.817 254.363 123.7 254.849 122.786 C 255.109 122.295 256.013 121.587 256.467 122.237 C 256.785 122.693 256.74 123.636 256.339 124.025 Z " fill="rgb(255,255,255)"/><path d=" M 271.813 147.364 C 270.997 148.157 269.837 147.04 270.323 146.125 C 270.583 145.634 271.487 144.926 271.941 145.577 C 272.259 146.032 272.214 146.976 271.813 147.364 Z " fill="rgb(255,255,255)"/><path d=" M 261.512 104.758 C 261.655 104.976 261.703 105.244 261.699 105.504 C 261.694 105.816 261.6 106.154 261.343 106.329 C 261.029 106.544 260.559 106.418 260.331 106.112 C 260.104 105.808 260.018 105.146 260.215 104.799 C 260.498 104.3 261.203 104.286 261.512 104.758 Z " fill="rgb(255,255,255)"/><path d=" M 264.186 139.78 C 264.329 139.997 264.377 140.265 264.373 140.526 C 264.368 140.837 264.274 141.175 264.017 141.351 C 263.703 141.566 263.233 141.439 263.005 141.134 C 262.779 140.829 262.692 140.167 262.889 139.82 C 263.172 139.322 263.877 139.308 264.186 139.78 Z " fill="rgb(255,255,255)"/><path d=" M 262.658 116.559 C 262.58 116.95 262.319 117.316 261.946 117.456 C 261.521 117.615 261.01 117.446 260.728 117.092 C 260.445 116.737 260.388 116.231 260.541 115.804 C 260.714 115.318 261.309 114.606 261.892 114.782 C 262.539 114.977 262.772 115.985 262.658 116.559 Z " fill="rgb(255,255,255)"/><path d=" M 266.743 161.822 C 266.665 162.213 266.404 162.579 266.031 162.719 C 265.606 162.878 265.095 162.709 264.813 162.355 C 264.53 162 264.473 161.494 264.626 161.067 C 264.799 160.581 265.394 159.869 265.977 160.045 C 266.624 160.24 266.857 161.248 266.743 161.822 Z " fill="rgb(255,255,255)"/><path d=" M 263.453 129.564 C 262.673 130.392 261.464 129.329 261.908 128.393 C 262.146 127.891 263.017 127.142 263.499 127.772 C 263.838 128.213 263.835 129.157 263.453 129.564 Z " fill="rgb(255,255,255)"/><path d=" M 265.216 151.322 C 264.437 152.151 263.228 151.087 263.671 150.152 C 263.909 149.65 264.78 148.901 265.263 149.531 C 265.601 149.971 265.599 150.916 265.216 151.322 Z " fill="rgb(255,255,255)"/><path d=" M 279.4 104.336 C 279.523 104.566 279.547 104.837 279.521 105.096 C 279.489 105.406 279.366 105.734 279.095 105.887 C 278.762 106.074 278.306 105.907 278.105 105.582 C 277.906 105.259 277.878 104.592 278.104 104.264 C 278.429 103.792 279.133 103.839 279.4 104.336 Z " fill="rgb(255,255,255)"/><path d=" M 279.01 139.458 C 279.133 139.687 279.157 139.958 279.13 140.217 C 279.099 140.527 278.976 140.856 278.704 141.008 C 278.372 141.195 277.916 141.028 277.715 140.704 C 277.516 140.381 277.488 139.713 277.714 139.385 C 278.039 138.913 278.743 138.96 279.01 139.458 Z " fill="rgb(255,255,255)"/><path d=" M 279.512 116.192 C 279.4 116.575 279.108 116.917 278.724 117.023 C 278.288 117.145 277.793 116.932 277.543 116.554 C 277.292 116.177 277.28 115.667 277.469 115.255 C 277.684 114.786 278.338 114.129 278.904 114.355 C 279.531 114.606 279.676 115.63 279.512 116.192 Z " fill="rgb(255,255,255)"/><path d=" M 279.635 161.639 C 279.523 162.022 279.231 162.363 278.847 162.47 C 278.41 162.592 277.915 162.379 277.665 162.001 C 277.415 161.624 277.402 161.114 277.591 160.702 C 277.807 160.233 278.461 159.576 279.027 159.802 C 279.654 160.053 279.799 161.077 279.635 161.639 Z " fill="rgb(255,255,255)"/><path d=" M 279.17 129.216 C 278.321 129.974 277.209 128.809 277.733 127.915 C 278.014 127.436 278.946 126.767 279.373 127.436 C 279.671 127.904 279.586 128.845 279.17 129.216 Z " fill="rgb(255,255,255)"/><path d=" M 279.029 151.046 C 278.18 151.803 277.069 150.639 277.592 149.745 C 277.873 149.266 278.806 148.596 279.232 149.265 C 279.531 149.734 279.446 150.675 279.029 151.046 Z " fill="rgb(255,255,255)"/><path d=" M 210.835 96.24 L 289.908 96.094 L 292.815 77.488 L 207.928 79.01 L 210.835 96.24 Z " fill="rgb(255,255,255)"/><path d=" M 257.536 169.062 L 250.372 169.062 L 251.93 78.86 C 251.93 78.86 250.267 77.29 250.372 75.837 C 250.476 74.384 258.487 74.145 257.536 77.427 C 257.12 78.86 254.006 78.86 254.006 78.86 L 257.536 169.062 Z " fill="rgb(8,29,54)"/><path d=" M 252.752 76.632 C 252.752 76.632 247.412 76.109 243.504 79.31 C 239.597 82.51 238.602 88.222 238.602 88.222 L 242.448 86.381 C 242.448 86.381 242.923 82.476 245.382 80.143 C 247.841 77.811 251.353 77.936 251.353 77.936 L 252.752 76.632 Z " fill="rgb(8,29,54)"/><path d=" M 253.955 79.049 C 253.955 79.049 257.422 79.62 259.373 82.392 C 261.323 85.163 261.018 89.086 261.018 89.086 L 264.425 91.65 C 264.425 91.65 264.577 85.854 261.378 81.945 C 258.179 78.036 252.841 77.495 252.841 77.495 L 253.955 79.049 Z " fill="rgb(8,29,54)"/><path d=" M 268.76 73.186 C 262.82 76.447 256.259 75.91 256.259 75.91 C 256.259 75.91 259.328 70.086 265.267 66.825 C 271.206 63.564 277.767 64.101 277.767 64.101 C 277.767 64.101 274.699 69.925 268.76 73.186 Z  M 267.105 64.82 C 257.949 69.242 252.894 77.731 252.894 77.731 C 252.894 77.731 262.685 79.049 271.842 74.627 C 280.998 70.205 286.052 61.716 286.052 61.716 C 286.052 61.716 276.261 60.397 267.105 64.82 Z " fill="rgb(8,29,54)"/><path d=" M 239.325 71.01 C 245.298 72.865 250.451 76.94 250.451 76.94 C 250.451 76.94 245.919 78.008 239.945 76.153 C 233.972 74.298 228.82 70.223 228.82 70.223 C 228.82 70.223 233.352 69.155 239.325 71.01 Z  M 237.749 76.066 C 246.746 79.222 253.826 78.004 253.826 78.004 C 253.826 78.004 246.317 71.67 237.32 68.514 C 228.323 65.358 221.243 66.576 221.243 66.576 C 221.243 66.576 228.752 72.91 237.749 76.066 Z " fill="rgb(8,29,54)"/><path d=" M 138.158 226.794 C 138.208 226.81 138.237 226.82 138.237 226.82 L 138.196 227.458 L 136.18 227.496 C 137.205 227.208 137.919 226.948 138.158 226.794 Z  M 124.986 224.931 C 127.025 223.476 132.976 225.346 135.851 226.383 C 131.547 226.448 122.92 226.405 124.986 224.931 Z  M 133.898 219.244 C 135.213 219.395 136.834 221.847 137.833 223.596 C 137.466 223.299 137.074 223.067 136.682 222.974 C 134.757 221.202 132.698 219.107 133.898 219.244 Z  M 142.402 218.334 C 143.444 217.799 142.356 220.316 141.215 222.601 C 140.781 222.926 140.461 223.432 140.229 223.95 C 140.537 221.959 141.193 218.955 142.402 218.334 Z  M 152.993 224.931 C 155.059 226.405 146.432 226.448 142.128 226.383 C 145.003 225.346 150.955 223.476 152.993 224.931 Z  M 140.654 227.412 L 140.644 227.139 C 140.877 227.22 141.149 227.306 141.457 227.397 L 140.654 227.412 Z  M 195.211 226.395 L 159.867 227.054 C 162.001 224.187 151.429 219.673 142.969 224.127 C 143.671 223.46 143.995 222.758 142.918 222.376 C 144.328 220.374 145.656 217.923 145.667 215.935 C 145.687 212.222 138.816 217.301 139.127 223.972 C 137.413 217.164 128.627 214.574 129.997 218.151 C 130.755 220.13 133.101 222.077 135.242 223.479 C 135.065 223.685 134.961 223.886 134.92 224.081 C 125.674 219.29 113.965 225.133 119.064 227.815 L 81.263 228.52 L 81.263 242.541 L 85.736 242.658 L 89.53 281.845 L 134.651 281.845 L 134.609 282.482 L 142.662 282.482 L 142.638 281.845 L 187.273 281.845 L 189.363 245.363 L 195.211 245.516 L 195.211 226.395 Z " fill="rgb(0,0,0)" fill-opacity="0.1"/><path d=" M 84.265 281.878 L 176.88 281.878 L 179.209 241.215 L 80.056 238.396 L 84.265 281.878 Z " fill="rgb(255,255,255)"/><path d=" M 81.975 251.96 L 82.157 253.838 L 108.705 281.274 L 111.27 281.274 L 81.975 251.96 Z " fill="rgb(178,34,45)"/><path d=" M 122.09 247.202 L 119.815 247.121 L 152.862 281.274 L 156.139 281.274 L 122.09 247.202 Z " fill="rgb(178,34,45)"/><path d=" M 83.531 268.025 L 83.658 269.344 L 95.733 281.274 L 96.778 281.274 L 83.531 268.025 Z " fill="rgb(178,34,45)"/><path d=" M 90.395 246.067 L 89.047 246.018 L 124.73 281.274 L 125.599 281.274 L 90.395 246.067 Z " fill="rgb(178,34,45)"/><path d=" M 105.529 246.609 L 103.015 246.519 L 138.617 281.274 L 140.187 281.274 L 105.529 246.609 Z " fill="rgb(178,34,45)"/><path d=" M 137.902 247.769 L 136.014 247.701 L 169.09 281.274 L 171.385 281.274 L 137.902 247.769 Z " fill="rgb(178,34,45)"/><path d=" M 166.239 248.784 L 163.201 248.675 L 177.34 263.288 L 177.524 260.077 L 166.239 248.784 Z " fill="rgb(178,34,45)"/><path d=" M 151.215 248.246 L 150.271 248.212 L 176.708 274.333 L 176.74 273.773 L 151.215 248.246 Z " fill="rgb(178,34,45)"/><path d=" M 76.432 244.637 L 76.432 231.351 L 184.402 229.338 L 184.402 247.455 L 76.432 244.637 Z " fill="rgb(178,34,45)"/><path d=" M 130.417 229.74 L 126.979 282.482 L 134.609 282.482 L 132.65 228.734 C 132.65 228.734 137.226 226.318 134.81 225.513 C 132.395 224.708 131.791 228.734 131.791 228.734 C 131.791 228.734 129.296 224.708 127.624 226.519 C 125.953 228.331 130.417 229.74 130.417 229.74 Z " fill="rgb(8,29,54)"/><path d=" M 117.861 227.95 C 119.793 226.572 125.432 228.344 128.156 229.326 C 124.078 229.388 115.903 229.347 117.861 227.95 Z  M 112.297 230.711 C 117.867 233.548 130.013 230.218 130.417 229.653 L 130.349 229.276 C 121.437 221.169 106.727 227.875 112.297 230.711 Z " fill="rgb(8,29,54)"/><path d=" M 134.104 229.326 C 136.828 228.344 142.467 226.572 144.399 227.95 C 146.357 229.347 138.182 229.388 134.104 229.326 Z  M 131.91 229.276 L 131.843 229.653 C 132.247 230.218 144.392 233.548 149.963 230.711 C 155.533 227.875 140.822 221.169 131.91 229.276 Z " fill="rgb(8,29,54)"/><path d=" M 132.2 227.744 C 132.433 225.969 133.058 222.37 134.363 221.7 C 135.685 221.02 133.39 225.522 132.2 227.744 Z  M 131.551 228.934 L 131.739 229.078 C 132.164 229.017 137.435 223.29 137.456 219.427 C 137.477 215.563 129.625 221.742 131.551 228.934 Z " fill="rgb(8,29,54)"/><path d=" M 126.305 222.562 C 127.762 222.729 129.616 225.877 130.46 227.455 C 128.563 225.796 124.828 222.393 126.305 222.562 Z  M 122.609 221.526 C 123.99 225.133 130.942 228.634 131.362 228.542 L 131.487 228.34 C 130.754 220.931 121.227 217.918 122.609 221.526 Z " fill="rgb(8,29,54)"/><path d=" M 257.25 216.756 C 256.8 214.854 261.821 219.203 264.282 221.423 C 262.091 220.566 257.694 218.632 257.25 216.756 Z  M 274.768 216.13 C 274.342 217.931 270.279 219.782 268.015 220.685 C 268.061 220.661 268.101 220.639 268.149 220.614 C 268.577 220.39 268.713 220.175 268.65 219.98 C 271.255 217.679 275.168 214.441 274.768 216.13 Z  M 301.799 222.629 L 286.166 222.629 C 282.776 220.784 278.002 219.487 273.032 220.142 C 278.312 216.878 280.343 210.541 276.693 211.464 C 273.323 212.317 269.615 216.583 267.628 219.372 C 266.523 219.065 264.821 219.002 263.948 219.394 C 261.886 216.63 258.46 212.884 255.325 212.091 C 251.902 211.225 253.475 216.742 258.036 220.125 C 253.129 219.523 248.427 220.806 245.077 222.629 L 229.498 222.629 L 232.89 248.046 L 237.847 248.046 L 240.436 281.688 L 261.988 281.688 L 261.956 282.482 L 269.224 282.482 L 269.189 281.688 L 288.693 281.688 L 291.505 248.046 L 297.492 248.046 L 301.799 222.629 Z " fill="rgb(0,0,0)" fill-opacity="0.1"/><path d=" M 278.86 281.739 L 233.695 281.739 L 230.405 238.975 L 282.485 238.359 L 278.86 281.739 Z " fill="rgb(8,29,54)"/><path d=" M 287.095 250.253 L 226.633 250.253 L 223.459 226.465 L 291.127 226.465 L 287.095 250.253 Z " fill="rgb(255,255,255)"/><path d=" M 260.639 282.482 L 253.836 282.482 L 256.103 226.465 C 256.103 226.465 250.437 226.344 251.552 225.229 C 252.667 224.115 256.445 225.601 256.445 225.601 C 256.445 225.601 254.153 224.208 255.639 223.464 C 257.125 222.721 261.583 223.557 259.633 224.579 C 257.682 225.601 258.332 225.508 258.332 225.508 C 258.332 225.508 263.162 223.65 263.07 225.322 C 262.977 226.994 258.147 226.465 258.147 226.465 L 260.639 282.482 Z " fill="rgb(178,34,45)"/><path d=" M 260.586 226.858 C 264.129 226.478 271.387 226.005 273.294 228.216 C 275.227 230.456 265.443 228.121 260.586 226.858 Z  M 257.979 226.158 L 257.788 226.589 C 258.106 227.383 271.654 234.905 279.139 233.139 C 286.625 231.373 270.996 219.067 257.979 226.158 Z " fill="rgb(178,34,45)"/><path d=" M 241.241 228.216 C 243.148 226.005 250.406 226.478 253.949 226.858 C 249.092 228.121 239.308 230.456 241.241 228.216 Z  M 235.396 233.139 C 242.881 234.905 256.429 227.383 256.747 226.589 L 256.556 226.158 C 243.539 219.067 227.91 231.373 235.396 233.139 Z " fill="rgb(178,34,45)"/><path d=" M 265.828 220.382 C 265.412 222.138 261.297 223.948 259.246 224.75 C 261.549 222.672 266.249 218.602 265.828 220.382 Z  M 267.63 216.016 C 263.021 217.182 257.737 225.168 257.788 225.695 L 258.016 225.877 C 267.176 226.054 272.238 214.85 267.63 216.016 Z " fill="rgb(178,34,45)"/><path d=" M 256.014 225.336 C 253.963 224.534 249.848 222.725 249.432 220.969 C 249.011 219.189 253.71 223.258 256.014 225.336 Z  M 257.244 226.463 L 257.471 226.281 C 257.523 225.755 252.238 217.768 247.63 216.602 C 243.022 215.437 248.084 226.641 257.244 226.463 Z " fill="rgb(178,34,45)"/><path d=" M 355.303 94.049 C 361.229 86.72 382.895 97.518 382.895 97.518 C 382.895 97.518 349.377 101.378 355.303 94.049 Z  M 416.821 93.712 C 417.233 94.222 417.449 94.677 417.503 95.084 L 391.405 97.406 C 390.047 97.275 389.229 97.181 389.229 97.181 C 389.229 97.181 410.895 86.383 416.821 93.712 Z  M 427.408 121.597 L 426.367 96.719 C 427.667 95.714 427.837 94.349 426.354 92.515 C 419.449 83.975 398.313 91.831 389.2 95.773 C 388.76 94.358 386.985 90.975 385.572 91.281 C 384.217 91.575 383.177 94.705 383.248 96.25 C 374.323 92.359 352.758 84.209 345.77 92.852 C 340.664 99.168 355.072 99.947 368.27 99.465 L 349.034 101.177 L 350.142 121.597 L 351.556 121.597 L 351.709 126.54 L 351.854 131.205 L 351.854 131.205 L 352.127 140.004 L 352.127 140.004 L 352.282 145.012 L 352.62 155.919 L 352.62 155.919 L 352.758 160.358 L 352.89 164.609 L 353.125 164.602 L 353.125 164.602 L 355.639 164.532 L 355.639 164.532 L 382.907 163.764 L 382.829 166.062 L 395.237 166.062 L 394.944 163.426 L 406.078 163.112 L 406.078 163.113 L 408.987 163.031 L 424.389 162.597 L 424.389 156.334 L 424.389 149.904 L 424.389 139.052 L 424.389 131.359 L 424.389 121.597 L 427.408 121.597 Z " fill="rgb(0,0,0)" fill-opacity="0.1"/><path d=" M 342.89 167.609 L 341.151 111.552 L 414.389 104.597 L 414.389 165.597 L 342.89 167.609 Z " fill="rgb(178,34,45)"/><clipPath id="_clipPath_WIdzANeSQC400fkPF6CxsmCXe914PKOS"><path d=" M 342.179 112.459 L 413.389 105.697 L 413.389 164.625 L 343.859 166.581 L 342.179 112.459 Z " fill="rgb(255,255,255)"/></clipPath><g clip-path="url(#_clipPath_WIdzANeSQC400fkPF6CxsmCXe914PKOS)"><path d=" M 341.854 134.205 L 342.579 133.824 L 345.902 135.571 L 345.267 131.871 L 347.956 129.25 L 344.24 128.71 L 342.579 125.343 L 341.638 127.248 L 341.854 134.205 Z " fill="rgb(255,255,255)"/><path d=" M 344.24 145.455 L 342.579 142.088 L 342.127 143.004 L 342.365 150.682 L 342.579 150.57 L 345.902 152.317 L 345.267 148.616 L 347.956 145.995 L 344.24 145.455 Z " fill="rgb(255,255,255)"/><path d=" M 345.639 167.532 L 345.267 165.362 L 347.956 162.741 L 344.24 162.201 L 342.62 158.919 L 342.886 167.477 L 343.125 167.602 L 345.639 167.532 Z " fill="rgb(255,255,255)"/><path d=" M 358.366 153.501 L 356.705 150.134 L 355.043 153.501 L 351.327 154.041 L 354.016 156.661 L 353.381 160.362 L 356.705 158.615 L 360.028 160.362 L 359.393 156.661 L 362.082 154.041 L 358.366 153.501 Z " fill="rgb(255,255,255)"/><path d=" M 359.208 136.662 L 357.547 133.295 L 355.885 136.662 L 352.169 137.201 L 354.858 139.822 L 354.223 143.523 L 357.547 141.776 L 360.87 143.523 L 360.235 139.822 L 362.924 137.201 L 359.208 136.662 Z " fill="rgb(255,255,255)"/><path d=" M 372.399 128.71 L 370.737 125.343 L 369.075 128.71 L 365.36 129.25 L 368.048 131.871 L 367.414 135.571 L 370.737 133.824 L 374.061 135.571 L 373.426 131.871 L 376.115 129.25 L 372.399 128.71 Z " fill="rgb(255,255,255)"/><path d=" M 372.399 145.455 L 370.737 142.088 L 369.075 145.455 L 365.36 145.995 L 368.048 148.616 L 367.414 152.317 L 370.737 150.57 L 374.061 152.317 L 373.426 148.616 L 376.115 145.995 L 372.399 145.455 Z " fill="rgb(255,255,255)"/><path d=" M 373.663 166.743 L 373.426 165.362 L 376.115 162.741 L 372.399 162.201 L 370.737 158.834 L 369.075 162.201 L 365.36 162.741 L 368.048 165.362 L 367.783 166.909 L 373.663 166.743 Z " fill="rgb(255,255,255)"/><path d=" M 386.525 153.501 L 384.863 150.134 L 383.201 153.501 L 379.486 154.041 L 382.174 156.661 L 381.54 160.362 L 384.863 158.615 L 388.187 160.362 L 387.552 156.661 L 390.241 154.041 L 386.525 153.501 Z " fill="rgb(255,255,255)"/><path d=" M 387.367 136.662 L 385.705 133.295 L 384.043 136.662 L 380.328 137.201 L 383.016 139.822 L 382.382 143.523 L 385.705 141.776 L 389.029 143.523 L 388.394 139.822 L 391.083 137.201 L 387.367 136.662 Z " fill="rgb(255,255,255)"/><path d=" M 400.557 128.71 L 398.896 125.343 L 397.234 128.71 L 393.518 129.25 L 396.207 131.871 L 395.572 135.571 L 398.896 133.824 L 402.219 135.571 L 401.584 131.871 L 404.273 129.25 L 400.557 128.71 Z " fill="rgb(255,255,255)"/><path d=" M 400.557 145.455 L 398.896 142.088 L 397.234 145.455 L 393.518 145.995 L 396.207 148.616 L 395.572 152.317 L 398.896 150.57 L 402.219 152.317 L 401.584 148.616 L 404.273 145.995 L 400.557 145.455 Z " fill="rgb(255,255,255)"/><path d=" M 401.686 165.955 L 401.584 165.362 L 404.273 162.741 L 400.557 162.201 L 398.896 158.834 L 397.234 162.201 L 393.518 162.741 L 396.207 165.362 L 396.078 166.113 L 401.686 165.955 Z " fill="rgb(255,255,255)"/><path d=" M 414.389 152.904 L 413.022 150.134 L 411.36 153.501 L 407.644 154.041 L 410.333 156.661 L 409.698 160.362 L 413.022 158.615 L 414.389 159.334 L 414.389 152.904 Z " fill="rgb(255,255,255)"/><path d=" M 413.864 141.776 L 414.389 142.052 L 414.389 134.359 L 413.864 133.295 L 412.202 136.662 L 408.486 137.201 L 411.175 139.822 L 410.54 143.523 L 413.864 141.776 Z " fill="rgb(255,255,255)"/></g><path d=" M 340.142 124.597 L 417.408 124.597 L 416.266 97.304 L 339.034 104.177 L 340.142 124.597 Z " fill="rgb(255,255,255)"/><path d=" M 385.237 169.062 L 372.829 169.062 L 375.216 98.809 L 377.427 98.809 L 385.237 169.062 Z " fill="rgb(8,29,54)"/><path d=" M 376.347 100.075 C 374.892 100.151 373.457 100.917 373.264 99.473 C 373.071 98.029 374.149 94.589 375.573 94.281 C 376.996 93.973 378.79 97.415 379.212 98.809 C 379.634 100.203 378.621 99.343 377.266 99.876" fill="rgb(8,29,54)"/><path d=" M 345.303 97.049 C 351.229 89.72 372.895 100.518 372.895 100.518 C 372.895 100.518 339.377 104.378 345.303 97.049 Z  M 335.77 95.852 C 326.876 106.852 377.183 101.058 377.183 101.058 C 377.183 101.058 344.665 84.852 335.77 95.852 Z " fill="rgb(8,29,54)"/><path d=" M 379.229 100.181 C 379.229 100.181 400.895 89.383 406.821 96.712 C 412.747 104.041 379.229 100.181 379.229 100.181 Z  M 374.941 100.722 C 374.941 100.722 425.248 106.515 416.354 95.515 C 407.46 84.515 374.941 100.722 374.941 100.722 Z " fill="rgb(8,29,54)"/><path d=" M 375.808 101.058 L 366.458 117.597 L 367.333 113.347 L 363.985 115.972 L 374.972 100.075 L 375.808 101.058 Z " fill="rgb(8,29,54)"/><path d=" M 376.666 101.058 L 386.017 117.597 L 385.142 113.347 L 388.49 115.972 L 377.502 100.075 L 376.666 101.058 Z " fill="rgb(8,29,54)"/><path d=" M 355.716 334.562 C 358.821 328.413 368.842 335.021 371.989 337.309 L 371.584 338.257 C 366.999 338.965 352.594 340.744 355.716 334.562 Z  M 394.135 334.225 C 394.649 335.243 394.675 336.038 394.361 336.665 L 380.121 337.932 L 378.644 336.418 C 382.418 333.798 391.254 328.52 394.135 334.225 Z  M 413.286 346.514 L 416.272 346.349 L 415.129 334.817 L 400.64 336.106 C 400.847 335.265 400.709 334.257 400.089 333.028 C 396.007 324.946 383.97 331.547 377.866 335.62 L 377.777 335.529 C 377.094 333.932 375.635 331.534 374.436 331.794 C 373.264 332.048 372.328 334.423 372.141 336.061 C 366.089 331.998 353.878 325.214 349.763 333.365 C 347.465 337.914 351.496 339.587 357.009 339.989 L 337.898 341.69 L 337.898 350.67 L 340.062 350.551 L 342.343 421.848 L 374.106 420.955 L 374.107 421.848 L 383.357 421.848 L 383.262 420.697 L 413.842 419.837 L 413.286 346.514 Z " fill="rgb(0,0,0)" fill-opacity="0.1"/><path d=" M 332.343 424.848 L 330.015 352.065 L 403.252 345.11 L 403.842 422.837 L 332.343 424.848 Z " fill="rgb(255,255,255)"/><path d=" M 327.898 353.67 L 406.271 349.349 L 405.129 337.817 L 327.898 344.69 L 327.898 353.67 Z " fill="rgb(178,34,45)"/><path d=" M 347.553 355.362 L 344.784 355.625 L 331.452 368.957 L 331.534 371.382 L 347.553 355.362 Z " fill="rgb(178,34,45)"/><path d=" M 351.1 355.026 L 349.715 355.157 L 331.598 373.274 L 331.639 374.486 L 351.1 355.026 Z " fill="rgb(178,34,45)"/><path d=" M 343.986 355.701 L 343.294 355.767 L 331.408 367.653 L 331.428 368.259 L 343.986 355.701 Z " fill="rgb(178,34,45)"/><path d=" M 368.461 353.377 L 365.691 353.64 L 332.072 387.259 L 332.154 389.683 L 368.461 353.377 Z " fill="rgb(178,34,45)"/><path d=" M 372.007 353.04 L 370.622 353.172 L 332.218 391.576 L 332.259 392.788 L 372.007 353.04 Z " fill="rgb(178,34,45)"/><path d=" M 364.894 353.716 L 364.201 353.781 L 332.028 385.955 L 332.048 386.561 L 364.894 353.716 Z " fill="rgb(178,34,45)"/><path d=" M 389.368 351.392 L 386.599 351.655 L 332.692 405.561 L 332.774 407.985 L 389.368 351.392 Z " fill="rgb(178,34,45)"/><path d=" M 392.914 351.055 L 391.53 351.186 L 332.838 409.878 L 332.879 411.09 L 392.914 351.055 Z " fill="rgb(178,34,45)"/><path d=" M 385.801 351.73 L 385.109 351.796 L 332.648 404.257 L 332.668 404.863 L 385.801 351.73 Z " fill="rgb(178,34,45)"/><path d=" M 402.319 357.363 L 402.299 354.877 L 333.356 423.819 L 335.935 423.747 L 402.319 357.363 Z " fill="rgb(178,34,45)"/><path d=" M 402.344 360.547 L 402.334 359.304 L 337.948 423.69 L 339.237 423.654 L 402.344 360.547 Z " fill="rgb(178,34,45)"/><path d=" M 402.293 354.16 L 402.288 353.539 L 333.268 422.559 L 333.289 423.165 L 402.293 354.16 Z " fill="rgb(178,34,45)"/><path d=" M 402.469 376.135 L 402.449 373.649 L 352.826 423.272 L 355.405 423.199 L 402.469 376.135 Z " fill="rgb(178,34,45)"/><path d=" M 402.494 379.319 L 402.484 378.076 L 357.418 423.142 L 358.707 423.106 L 402.494 379.319 Z " fill="rgb(178,34,45)"/><path d=" M 402.443 372.932 L 402.438 372.311 L 351.438 423.311 L 352.083 423.293 L 402.443 372.932 Z " fill="rgb(178,34,45)"/><path d=" M 402.619 394.907 L 402.599 392.421 L 372.296 422.724 L 374.875 422.651 L 402.619 394.907 Z " fill="rgb(178,34,45)"/><path d=" M 402.644 398.091 L 402.634 396.848 L 376.888 422.595 L 378.177 422.558 L 402.644 398.091 Z " fill="rgb(178,34,45)"/><path d=" M 402.593 391.704 L 402.588 391.083 L 370.908 422.763 L 371.553 422.745 L 402.593 391.704 Z " fill="rgb(178,34,45)"/><path d=" M 402.769 413.679 L 402.749 411.193 L 391.765 422.176 L 394.344 422.104 L 402.769 413.679 Z " fill="rgb(178,34,45)"/><path d=" M 402.794 416.863 L 402.784 415.62 L 396.357 422.047 L 397.647 422.011 L 402.794 416.863 Z " fill="rgb(178,34,45)"/><path d=" M 402.743 410.476 L 402.738 409.855 L 390.378 422.215 L 391.023 422.197 L 402.743 410.476 Z " fill="rgb(178,34,45)"/><path d=" M 363.084 352.543 L 363.106 423.543 L 374.252 423.543 L 368.386 352.543 L 363.084 352.543 Z " fill="rgb(255,255,255)"/><path d=" M 373.357 424.848 L 364.107 424.848 L 364.079 339.322 L 366.291 339.322 L 373.357 424.848 Z " fill="rgb(8,29,54)"/><path d=" M 365.21 340.588 C 363.756 340.664 362.321 341.43 362.128 339.986 C 361.935 338.542 363.012 335.102 364.436 334.794 C 365.86 334.486 367.654 337.928 368.076 339.322 C 368.498 340.716 367.485 339.856 366.129 340.389" fill="rgb(8,29,54)"/><path d=" M 345.716 337.562 C 349.417 330.233 362.948 341.031 362.948 341.031 C 362.948 341.031 342.015 344.891 345.716 337.562 Z  M 339.763 336.365 C 334.208 347.365 365.626 341.571 365.626 341.571 C 365.626 341.571 345.317 325.365 339.763 336.365 Z " fill="rgb(8,29,54)"/><path d=" M 366.903 340.694 C 366.903 340.694 380.434 329.896 384.135 337.225 C 387.836 344.554 366.903 340.694 366.903 340.694 Z  M 364.225 341.234 C 364.225 341.234 395.643 347.028 390.089 336.028 C 384.534 325.028 364.225 341.234 364.225 341.234 Z " fill="rgb(8,29,54)"/><path d=" M 362.128 339.986 L 351.023 365.962 C 351.023 365.962 357.929 362.605 360.199 369.388 L 365.21 340.588 L 374.465 356.835 C 374.465 356.835 373.249 349.116 378.804 349.837 L 367.777 338.529 L 362.911 339.563" fill="rgb(8,29,54)"/><path d=" M 423.778 205.813 L 396 205.813 C 402.773 204.648 412.452 202.633 411.264 200.796 C 409.708 198.392 395.042 202.903 390.974 204.211 C 390.354 204.397 389.922 204.554 389.922 204.554 C 389.922 204.554 416.524 194.056 404.195 189.618 C 394.054 185.967 389.969 197.101 388.838 201.17 C 389.954 196.275 392.669 180.816 380.814 186.659 C 368.582 192.687 382.103 200.691 385.733 202.627 C 385.732 202.641 385.728 202.654 385.728 202.667 C 382.455 201.186 370.733 196.23 369.18 200.467 C 367.372 205.398 384.422 205.658 384.427 205.658 C 384.427 205.658 384.428 205.658 384.428 205.658 L 384.563 205.687 C 384.545 205.727 384.525 205.771 384.507 205.813 L 349.386 205.813 L 349.638 219.044 L 353.496 219.044 L 357.522 278.505 L 387.435 278.505 L 387.44 279.482 L 389.893 279.482 L 389.89 278.505 L 416.918 278.505 L 421.299 219.044 L 423.01 219.044 L 423.778 205.813 Z " fill="rgb(0,0,0)" fill-opacity="0.1"/><path d=" M 406.918 281.505 L 347.522 281.505 L 343.195 217.596 L 411.686 216.786 L 406.918 281.505 Z " fill="rgb(8,29,54)"/><path d=" M 347.597 254.465 L 350.377 260.398 L 352.29 255.424 L 349.63 250.451 L 347.597 254.465 Z " fill="rgb(255,255,255)"/><path d=" M 350.377 276.417 L 352.29 271.443 L 349.63 266.47 L 347.703 270.275 L 347.741 270.792 L 350.377 276.417 Z " fill="rgb(255,255,255)"/><path d=" M 360.3 261.32 L 358.196 257.387 L 356.163 261.402 L 358.51 265.254 L 360.3 261.32 Z " fill="rgb(255,255,255)"/><path d=" M 358.196 276.417 L 356.163 280.431 L 356.208 280.505 L 360.229 280.505 L 360.3 280.35 L 358.196 276.417 Z " fill="rgb(255,255,255)"/><path d=" M 368.027 250.451 L 365.993 254.465 L 368.774 260.398 L 370.687 255.424 L 368.027 250.451 Z " fill="rgb(255,255,255)"/><path d=" M 365.993 270.484 L 368.774 276.417 L 370.687 271.443 L 368.027 266.47 L 365.993 270.484 Z " fill="rgb(255,255,255)"/><path d=" M 378.696 261.32 L 376.593 257.387 L 374.559 261.402 L 376.906 265.254 L 378.696 261.32 Z " fill="rgb(255,255,255)"/><path d=" M 376.593 276.417 L 374.559 280.431 L 374.604 280.505 L 378.626 280.505 L 378.696 280.35 L 376.593 276.417 Z " fill="rgb(255,255,255)"/><path d=" M 376.195 252.072 L 378.229 248.058 L 375.448 242.125 L 373.535 247.099 L 376.195 252.072 Z " fill="rgb(255,255,255)"/><path d=" M 378.229 232.038 L 375.448 226.106 L 373.535 231.079 L 376.195 236.053 L 378.229 232.038 Z " fill="rgb(255,255,255)"/><path d=" M 369.663 241.121 L 367.316 237.269 L 365.525 241.202 L 367.629 245.136 L 369.663 241.121 Z " fill="rgb(255,255,255)"/><path d=" M 367.629 226.106 L 369.056 223.29 L 366.141 223.324 L 367.629 226.106 Z " fill="rgb(255,255,255)"/><path d=" M 357.799 252.072 L 359.832 248.058 L 357.052 242.125 L 355.139 247.099 L 357.799 252.072 Z " fill="rgb(255,255,255)"/><path d=" M 359.832 232.038 L 357.052 226.106 L 355.139 231.079 L 357.799 236.053 L 359.832 232.038 Z " fill="rgb(255,255,255)"/><path d=" M 351.266 241.121 L 348.92 237.269 L 347.129 241.202 L 349.233 245.136 L 351.266 241.121 Z " fill="rgb(255,255,255)"/><path d=" M 349.233 226.106 L 350.549 223.509 L 347.861 223.541 L 349.233 226.106 Z " fill="rgb(255,255,255)"/><path d=" M 383.279 250.451 L 381.246 254.465 L 384.026 260.398 L 385.939 255.424 L 383.279 250.451 Z " fill="rgb(255,255,255)"/><path d=" M 381.246 270.484 L 384.026 276.417 L 385.939 271.443 L 383.279 266.47 L 381.246 270.484 Z " fill="rgb(255,255,255)"/><path d=" M 393.949 261.32 L 391.845 257.387 L 389.812 261.402 L 392.159 265.254 L 393.949 261.32 Z " fill="rgb(255,255,255)"/><path d=" M 391.845 276.417 L 389.812 280.431 L 389.857 280.505 L 393.878 280.505 L 393.949 280.35 L 391.845 276.417 Z " fill="rgb(255,255,255)"/><path d=" M 399.642 254.465 L 402.423 260.398 L 404.336 255.424 L 401.676 250.451 L 399.642 254.465 Z " fill="rgb(255,255,255)"/><path d=" M 401.676 266.47 L 399.642 270.484 L 402.423 276.417 L 404.336 271.443 L 401.676 266.47 Z " fill="rgb(255,255,255)"/><path d=" M 407.184 247.099 L 408.471 249.505 L 409.053 242.24 L 407.184 247.099 Z " fill="rgb(255,255,255)"/><path d=" M 409.097 226.106 L 407.184 231.079 L 409.587 235.572 L 410.163 228.379 L 409.097 226.106 Z " fill="rgb(255,255,255)"/><path d=" M 403.312 241.121 L 400.965 237.269 L 399.174 241.202 L 401.278 245.136 L 403.312 241.121 Z " fill="rgb(255,255,255)"/><path d=" M 401.278 226.106 L 402.908 222.889 L 399.579 222.929 L 401.278 226.106 Z " fill="rgb(255,255,255)"/><path d=" M 391.448 252.072 L 393.481 248.058 L 390.701 242.125 L 388.788 247.099 L 391.448 252.072 Z " fill="rgb(255,255,255)"/><path d=" M 393.481 232.038 L 390.701 226.106 L 388.788 231.079 L 391.448 236.053 L 393.481 232.038 Z " fill="rgb(255,255,255)"/><path d=" M 384.916 241.121 L 382.569 237.269 L 380.778 241.202 L 382.882 245.136 L 384.916 241.121 Z " fill="rgb(255,255,255)"/><path d=" M 382.882 226.106 L 384.401 223.108 L 381.298 223.145 L 382.882 226.106 Z " fill="rgb(255,255,255)"/><path d=" M 413.01 222.044 L 339.638 222.044 L 339.386 208.813 L 413.778 208.813 L 413.01 222.044 Z " fill="rgb(255,255,255)"/><path d=" M 379.893 282.482 L 377.441 282.482 L 376.991 208.813 C 376.991 208.813 369.539 208.654 371.005 207.188 C 372.471 205.722 377.441 207.676 377.441 207.676 C 377.441 207.676 374.425 205.844 376.38 204.867 C 378.334 203.889 384.198 204.989 381.632 206.333 C 379.067 207.676 379.922 207.554 379.922 207.554 C 379.922 207.554 385.851 205.378 385.729 207.577 C 385.607 209.776 379.678 208.813 379.678 208.813 L 379.893 282.482 Z " fill="rgb(178,34,45)"/><path d=" M 374.428 208.658 C 374.428 208.658 357.371 208.399 359.18 203.468 C 360.988 198.536 376.582 206.063 376.582 206.063 C 376.582 206.063 356.803 196.563 370.814 189.659 C 384.825 182.754 378.484 205.605 378.484 205.605 C 378.484 205.605 381.866 188.179 394.195 192.618 C 406.524 197.056 379.922 207.554 379.922 207.554 C 379.922 207.554 399.455 201.002 401.264 203.796 C 403.072 206.591 379.728 209.797 379.728 209.797 L 374.428 208.658 Z " fill="rgb(178,34,45)"/><path d=" M 375.126 207.331 C 375.208 207.659 363.043 233.222 363.043 233.222 L 370.029 232.071 L 377.441 207.676 L 385.811 242.592 L 393.208 242.592 L 379.4 206.673 L 375.126 207.331 Z " fill="rgb(178,34,45)"/><path d=" M 259.208 331.407 C 258.95 331.134 258.714 330.83 258.593 330.475 C 258.472 330.121 258.481 329.706 258.689 329.394 C 259.048 328.859 259.827 328.818 260.45 328.982 C 261.76 329.327 263.709 330.981 263.426 332.539 C 263.081 334.44 259.828 332.065 259.208 331.407 Z  M 274.121 326.879 C 274.933 326.389 275.844 325.997 276.793 326.008 C 277.742 326.02 278.73 326.512 279.11 327.382 C 279.604 328.51 278.956 329.817 278.137 330.736 C 276.856 332.174 275.102 333.184 273.216 333.571 C 272.486 333.72 271.706 333.774 271.016 333.494 C 267.62 332.114 272.63 327.78 274.121 326.879 Z  M 293.903 335.831 L 272.166 335.831 C 274.891 335.65 278.421 335.102 277.484 334.688 C 277.418 334.659 270.676 335.002 270.653 334.943 C 270.86 334.817 275.192 334.673 277.986 333.86 C 280.093 333.247 280.998 330.808 281.294 328.634 C 281.511 327.049 281.178 324.974 279.597 323.902 C 278.152 322.921 276 323.107 273.845 324.401 C 271.984 325.518 270.373 327.032 269.159 328.751 C 268.874 328.069 268.321 327.406 267.476 327.303 C 266.327 327.17 265.438 328.145 265.063 329.177 C 264.995 329.363 264.937 329.551 264.89 329.741 C 264.623 329.294 264.326 328.888 263.999 328.52 C 262.697 327.053 260.897 326.269 259.196 326.43 C 257.233 326.612 255.553 328.17 255.369 329.977 C 255.212 331.524 255.965 333.297 262.184 334.61 C 262.008 334.664 257.382 334.518 257.247 334.596 C 255.888 335.369 260.262 335.664 263.069 335.772 C 263.023 335.791 262.975 335.812 262.928 335.831 L 238.403 335.831 L 238.403 349.194 L 240.628 349.194 L 242.403 421.105 L 263.543 421.105 L 263.528 421.848 L 270.903 421.762 L 270.887 421.105 L 290.998 421.105 L 292.307 349.194 L 293.903 349.194 L 293.903 335.831 Z " fill="rgb(0,0,0)" fill-opacity="0.1"/><path d=" M 280.998 424.105 L 232.403 424.105 L 230.405 343.152 L 282.485 342.418 L 280.998 424.105 Z " fill="rgb(178,34,45)"/><path d=" M 228.403 338.831 L 228.403 352.194 L 283.903 352.194 L 283.903 338.831 L 228.403 338.831 Z " fill="rgb(8,29,54)"/><path d=" M 263.216 336.571 C 262.486 336.72 261.706 336.774 261.016 336.494 C 257.62 335.114 262.63 330.78 264.121 329.879 C 264.933 329.389 265.844 328.997 266.793 329.008 C 267.742 329.02 268.73 329.512 269.11 330.382 C 269.604 331.51 268.956 332.817 268.137 333.736 C 266.856 335.174 265.102 336.184 263.216 336.571 Z  M 253.426 335.539 C 253.081 337.44 249.828 335.065 249.208 334.407 C 248.95 334.134 248.714 333.83 248.593 333.475 C 248.472 333.121 248.481 332.706 248.689 332.394 C 249.048 331.859 249.827 331.818 250.45 331.982 C 251.76 332.327 253.709 333.982 253.426 335.539 Z  M 271.294 331.634 C 271.511 330.049 271.178 327.974 269.597 326.902 C 268.152 325.922 266 326.107 263.845 327.401 C 261.984 328.518 260.373 330.032 259.159 331.751 C 258.874 331.069 258.321 330.406 257.476 330.303 C 256.327 330.17 255.438 331.145 255.063 332.177 C 254.995 332.363 254.937 332.551 254.89 332.741 C 254.623 332.294 254.326 331.888 253.999 331.52 C 252.697 330.053 250.897 329.269 249.196 329.43 C 247.233 329.612 245.553 331.17 245.369 332.977 C 245.212 334.524 245.965 336.297 252.184 337.61 C 252.008 337.664 247.382 337.518 247.247 337.596 C 245.888 338.369 250.262 338.664 253.069 338.772 C 250.175 339.962 246.081 342.076 244.412 345.018 C 241.707 349.784 243.491 354.381 238.159 354.946 L 239.401 355.928 L 237.658 358.268 C 237.658 358.268 244.368 356.136 245.913 350.665 C 247.322 345.677 249.315 342.887 255.228 339.356 L 253.528 424.848 L 260.903 424.762 L 258.882 340.064 C 263.511 345.108 264.62 348.346 264.55 353.515 C 264.473 359.199 270.298 363.154 270.298 363.154 L 269.293 360.414 L 270.764 359.827 C 265.813 357.766 268.833 353.868 267.598 348.529 C 266.652 344.442 261.773 340.514 259.532 338.892 C 259.768 338.891 260.013 338.893 260.239 338.89 C 262.656 338.958 268.674 338.214 267.484 337.688 C 267.418 337.659 260.676 338.002 260.653 337.943 C 260.86 337.817 265.192 337.673 267.986 336.86 C 270.093 336.247 270.998 333.808 271.294 331.634 Z " fill="rgb(255,255,255)"/><path d=" M 183.712 380.571 L 187.524 380.644 L 186.696 357.994 L 139.879 354.345 L 139.859 354.027 C 140.662 354.167 141.33 354.248 141.605 353.661 C 146.191 352.987 163.615 350.248 162.044 347.819 C 160.457 345.366 145.221 350.112 141.515 351.31 C 141.51 351.291 141.505 351.271 141.5 351.251 C 145.833 349.451 166.018 340.616 154.975 336.64 C 144.876 333.005 140.782 344.034 139.631 348.144 C 139.63 348.144 139.63 348.144 139.629 348.144 C 140.752 343.192 143.408 327.86 131.594 333.681 C 118.6 340.085 134.66 348.715 137.06 349.935 C 137.059 349.937 137.057 349.939 137.056 349.941 C 134.894 348.933 121.62 342.962 119.96 347.49 C 118.151 352.422 135.208 352.681 135.208 352.681 L 135.73 352.793 C 135.503 353.799 136.325 353.263 137.476 353.591 L 137.43 354.154 L 97.903 351.072 L 97.903 378.939 L 102.751 379.031 L 104.069 421.395 L 131.868 421.395 L 131.748 422.848 L 144.157 422.848 L 144.066 421.395 L 183.385 421.395 L 183.712 380.571 Z " fill="rgb(0,0,0)" fill-opacity="0.1"/><path d=" M 92.678 378.7 L 94.07 423.395 L 173.385 423.395 L 173.727 380.731 L 92.678 378.7 Z " fill="rgb(178,34,45)"/><path d=" M 93.71 382.396 L 93.74 383.294 L 94.616 382.418 L 93.71 382.396 Z " fill="rgb(255,255,255)"/><path d=" M 95.831 382.449 L 93.78 384.499 L 93.832 386.063 L 97.407 382.488 L 95.831 382.449 Z " fill="rgb(255,255,255)"/><path d=" M 108.277 382.76 L 107.226 382.734 L 94.156 395.805 L 94.19 396.847 L 108.277 382.76 Z " fill="rgb(255,255,255)"/><path d=" M 107.631 386.267 L 111.068 382.83 L 109.492 382.791 L 106.823 385.459 L 107.631 386.267 Z " fill="rgb(255,255,255)"/><path d=" M 99.242 394.656 L 104.52 389.379 L 103.712 388.571 L 98.434 393.848 L 99.242 394.656 Z " fill="rgb(255,255,255)"/><path d=" M 95.323 396.96 L 94.23 398.053 L 94.282 399.616 L 96.131 397.768 L 95.323 396.96 Z " fill="rgb(255,255,255)"/><path d=" M 121.938 383.103 L 120.887 383.076 L 94.606 409.358 L 94.64 410.401 L 121.938 383.103 Z " fill="rgb(255,255,255)"/><path d=" M 124.729 383.173 L 123.153 383.133 L 122.214 384.072 L 123.022 384.88 L 124.729 383.173 Z " fill="rgb(255,255,255)"/><path d=" M 114.633 393.269 L 119.911 387.991 L 119.103 387.183 L 113.825 392.461 L 114.633 393.269 Z " fill="rgb(255,255,255)"/><path d=" M 106.244 401.658 L 111.522 396.38 L 110.714 395.572 L 105.436 400.85 L 106.244 401.658 Z " fill="rgb(255,255,255)"/><path d=" M 97.855 410.047 L 103.133 404.769 L 102.325 403.961 L 97.047 409.239 L 97.855 410.047 Z " fill="rgb(255,255,255)"/><path d=" M 94.732 413.146 L 94.732 413.17 L 94.744 413.158 L 94.732 413.146 Z " fill="rgb(255,255,255)"/><path d=" M 135.599 383.445 L 134.548 383.419 L 95.572 422.395 L 96.649 422.395 L 135.599 383.445 Z " fill="rgb(255,255,255)"/><path d=" M 130.024 391.882 L 135.302 386.604 L 134.494 385.796 L 129.216 391.074 L 130.024 391.882 Z " fill="rgb(255,255,255)"/><path d=" M 121.635 400.271 L 126.913 394.993 L 126.105 394.185 L 120.827 399.463 L 121.635 400.271 Z " fill="rgb(255,255,255)"/><path d=" M 113.246 408.66 L 118.524 403.382 L 117.716 402.574 L 112.438 407.852 L 113.246 408.66 Z " fill="rgb(255,255,255)"/><path d=" M 109.327 410.963 L 104.049 416.241 L 104.857 417.049 L 110.134 411.771 L 109.327 410.963 Z " fill="rgb(255,255,255)"/><path d=" M 100.938 419.352 L 97.895 422.395 L 99.511 422.395 L 101.746 420.16 L 100.938 419.352 Z " fill="rgb(255,255,255)"/><path d=" M 149.261 383.787 L 148.21 383.761 L 109.576 422.395 L 110.653 422.395 L 149.261 383.787 Z " fill="rgb(255,255,255)"/><path d=" M 145.415 390.495 L 150.692 385.217 L 149.884 384.409 L 144.607 389.687 L 145.415 390.495 Z " fill="rgb(255,255,255)"/><path d=" M 137.026 398.884 L 142.303 393.606 L 141.495 392.798 L 136.218 398.076 L 137.026 398.884 Z " fill="rgb(255,255,255)"/><path d=" M 128.637 407.273 L 133.914 401.995 L 133.106 401.187 L 127.829 406.465 L 128.637 407.273 Z " fill="rgb(255,255,255)"/><path d=" M 124.717 409.576 L 119.44 414.854 L 120.248 415.662 L 125.525 410.384 L 124.717 409.576 Z " fill="rgb(255,255,255)"/><path d=" M 116.328 417.965 L 111.898 422.395 L 113.514 422.395 L 117.136 418.773 L 116.328 417.965 Z " fill="rgb(255,255,255)"/><path d=" M 162.922 384.13 L 161.871 384.103 L 123.579 422.395 L 124.656 422.395 L 162.922 384.13 Z " fill="rgb(255,255,255)"/><path d=" M 160.805 389.107 L 165.713 384.199 L 164.137 384.16 L 159.998 388.299 L 160.805 389.107 Z " fill="rgb(255,255,255)"/><path d=" M 152.416 397.496 L 157.694 392.218 L 156.886 391.411 L 151.608 396.688 L 152.416 397.496 Z " fill="rgb(255,255,255)"/><path d=" M 144.027 405.885 L 149.305 400.607 L 148.497 399.8 L 143.219 405.077 L 144.027 405.885 Z " fill="rgb(255,255,255)"/><path d=" M 140.108 408.189 L 134.83 413.466 L 135.638 414.274 L 140.916 408.997 L 140.108 408.189 Z " fill="rgb(255,255,255)"/><path d=" M 131.719 416.578 L 126.441 421.855 L 126.981 422.395 L 127.518 422.395 L 132.527 417.386 L 131.719 416.578 Z " fill="rgb(255,255,255)"/><path d=" M 172.685 388.37 L 172.694 387.283 L 137.583 422.395 L 138.66 422.395 L 172.685 388.37 Z " fill="rgb(255,255,255)"/><path d=" M 166.999 395.301 L 167.807 396.109 L 172.66 391.256 L 172.667 390.414 L 172.277 390.023 L 166.999 395.301 Z " fill="rgb(255,255,255)"/><path d=" M 159.418 404.498 L 164.696 399.22 L 163.888 398.412 L 158.61 403.69 L 159.418 404.498 Z " fill="rgb(255,255,255)"/><path d=" M 155.499 406.801 L 150.221 412.079 L 151.029 412.887 L 156.307 407.609 L 155.499 406.801 Z " fill="rgb(255,255,255)"/><path d=" M 147.11 415.19 L 141.832 420.468 L 142.64 421.276 L 147.918 415.998 L 147.11 415.19 Z " fill="rgb(255,255,255)"/><path d=" M 172.564 402.495 L 172.573 401.408 L 151.586 422.395 L 152.663 422.395 L 172.564 402.495 Z " fill="rgb(255,255,255)"/><path d=" M 166.42 411.5 L 171.698 406.222 L 170.89 405.414 L 165.612 410.692 L 166.42 411.5 Z " fill="rgb(255,255,255)"/><path d=" M 157.223 419.081 L 158.031 419.889 L 163.309 414.611 L 162.501 413.803 L 157.223 419.081 Z " fill="rgb(255,255,255)"/><path d=" M 153.909 422.395 L 154.314 422.395 L 154.112 422.192 L 153.909 422.395 Z " fill="rgb(255,255,255)"/><path d=" M 172.452 415.533 L 165.59 422.395 L 166.667 422.395 L 172.442 416.62 L 172.452 415.533 Z " fill="rgb(255,255,255)"/><path d=" M 167.912 422.395 L 169.528 422.395 L 170.31 421.613 L 169.502 420.805 L 167.912 422.395 Z " fill="rgb(255,255,255)"/><path d=" M 135.029 422.774 L 132.477 381.899 L 124.297 381.899 L 120.917 422.774 L 135.029 422.774 Z " fill="rgb(178,34,45)"/><path d=" M 87.903 353.072 L 87.903 380.939 L 177.524 382.644 L 176.696 359.994 L 87.903 353.072 Z " fill="rgb(8,29,54)"/><path d=" M 121.748 424.848 L 134.157 424.848 L 129.77 354.595 L 127.558 354.595 L 121.748 424.848 Z " fill="rgb(255,255,255)"/><path d=" M 128.639 355.861 C 130.093 355.937 131.528 356.703 131.721 355.259 C 131.914 353.815 130.837 350.375 129.413 350.067 C 127.989 349.759 126.195 353.201 125.773 354.595 C 125.351 355.989 126.364 355.129 127.72 355.662" fill="rgb(255,255,255)"/><path d=" M 125.208 354.681 C 125.208 354.681 108.151 354.422 109.96 349.49 C 111.768 344.558 127.362 352.085 127.362 352.085 C 127.362 352.085 107.583 342.586 121.594 335.681 C 135.605 328.777 129.264 351.627 129.264 351.627 C 129.264 351.627 132.646 334.202 144.975 338.64 C 157.304 343.079 130.702 353.577 130.702 353.577 C 130.702 353.577 150.235 347.024 152.044 349.819 C 153.852 352.613 130.508 355.819 130.508 355.819 L 125.208 354.681 Z " fill="rgb(255,255,255)"/><path d=" M 260.104 465.465 C 259.672 465.908 259.301 466.396 258.996 466.918 L 258.531 466.677 C 258.464 466.38 258.181 466.175 257.872 466.211 C 257.541 466.25 257.304 466.55 257.343 466.881 C 257.382 467.212 257.682 467.449 258.013 467.41 C 258.078 467.402 258.139 467.384 258.196 467.358 L 258.648 467.592 C 258.397 468.146 258.215 468.73 258.108 469.336 L 258.855 469.467 C 259.085 468.161 259.704 466.961 260.647 465.995 L 260.104 465.465 Z " fill="rgb(247,250,251)"/><path d=" M 265.592 463.163 C 265.421 463.163 265.251 463.169 265.082 463.18 L 265.009 462.554 C 265.196 462.405 265.304 462.165 265.274 461.91 C 265.228 461.517 264.872 461.235 264.479 461.282 C 264.086 461.328 263.805 461.684 263.851 462.077 C 263.881 462.331 264.04 462.538 264.256 462.641 L 264.329 463.265 C 263.615 463.381 262.926 463.597 262.269 463.911 L 262.596 464.595 C 263.53 464.148 264.538 463.921 265.592 463.921 C 266.088 463.921 266.585 463.974 267.067 464.079 L 267.227 463.338 C 266.692 463.222 266.142 463.163 265.592 463.163 Z " fill="rgb(247,250,251)"/><path d=" M 272.194 465.711 C 272.525 465.67 272.76 465.369 272.72 465.038 C 272.679 464.707 272.378 464.472 272.047 464.513 C 271.738 464.551 271.512 464.816 271.518 465.121 L 271.102 465.485 C 270.684 465.054 270.212 464.672 269.694 464.345 L 269.29 464.987 C 270.424 465.701 271.31 466.713 271.853 467.912 L 272.544 467.599 C 272.293 467.045 271.976 466.527 271.602 466.054 L 272.004 465.703 C 272.065 465.715 272.129 465.719 272.194 465.711 Z " fill="rgb(247,250,251)"/><path d=" M 265.044 473.372 C 264.658 473.395 264.269 473.406 263.887 473.406 C 263.007 473.406 262.154 473.346 261.409 473.227 C 261.018 473.165 260.563 473.072 260.138 472.935 C 261.185 474.796 263.208 476.06 265.527 476.06 C 268.382 476.06 270.789 474.144 271.477 471.557 C 270.795 472.006 269.971 472.382 269.018 472.679 C 267.839 473.047 266.464 473.286 265.044 473.372 Z " fill="rgb(247,250,251)"/><path d=" M 268.17 470.286 C 267.42 470.286 266.81 469.676 266.81 468.926 C 266.81 468.176 267.42 467.565 268.17 467.565 C 268.92 467.565 269.53 468.176 269.53 468.926 C 269.53 469.676 268.92 470.286 268.17 470.286 Z  M 263.432 471.194 C 262.413 471.194 261.583 470.365 261.583 469.345 C 261.583 468.325 262.413 467.495 263.432 467.495 C 264.452 467.495 265.282 468.325 265.282 469.345 C 265.282 470.365 264.452 471.194 263.432 471.194 Z  M 265.592 464.679 C 262.24 464.679 259.512 467.346 259.512 470.623 C 259.512 471.048 259.558 471.472 259.649 471.884 C 260.323 472.367 262.355 472.774 264.997 472.615 C 267.876 472.442 270.294 471.658 271.669 470.457 C 271.664 470.262 271.648 470.067 271.624 469.875 C 271.244 466.913 268.65 464.679 265.592 464.679 Z " fill="rgb(247,250,251)"/><path d=" M 281.595 466.547 C 281.301 466.431 280.79 466.238 280.213 466.309 C 279.662 466.378 279.369 466.65 279.369 467.316 L 279.369 468.182 L 281.597 468.182 L 281.597 469.899 L 279.369 469.899 L 279.369 475.354 L 277.437 475.354 L 277.437 469.899 L 276.098 469.899 L 276.098 468.182 L 277.437 468.182 L 277.437 467.294 C 277.437 465.614 278.333 464.511 280.006 464.511 C 280.648 464.511 281.163 464.632 281.596 464.819 L 281.595 466.547 Z " fill="rgb(247,250,251)"/><path d=" M 286.298 469.879 C 286.121 469.849 285.94 469.832 285.772 469.832 C 284.876 469.832 284.262 470.38 284.262 471.446 L 284.262 475.354 L 282.33 475.354 L 282.33 468.182 L 284.203 468.182 L 284.203 468.966 C 284.654 468.293 285.342 467.99 286.223 467.99 C 286.638 467.99 287.071 468.117 287.318 468.326 L 286.298 469.879 Z " fill="rgb(247,250,251)"/><path d=" M 288.851 471.091 L 292.026 471.091 C 291.848 470.173 291.293 469.655 290.464 469.655 C 289.554 469.655 289.021 470.203 288.851 471.091 Z  M 293.965 471.757 C 293.965 471.979 293.95 472.245 293.928 472.408 L 288.843 472.408 C 289.051 473.444 289.776 473.896 290.686 473.896 C 291.308 473.896 291.982 473.644 292.5 473.208 L 293.632 474.451 C 292.818 475.198 291.782 475.539 290.575 475.539 C 288.377 475.539 286.852 474.044 286.852 471.786 C 286.852 469.529 288.333 467.99 290.479 467.99 C 292.544 467.99 293.958 469.522 293.965 471.757 Z " fill="rgb(247,250,251)"/><path d=" M 296.504 471.091 L 299.679 471.091 C 299.502 470.173 298.946 469.655 298.118 469.655 C 297.207 469.655 296.674 470.203 296.504 471.091 Z  M 301.618 471.757 C 301.618 471.979 301.603 472.245 301.581 472.408 L 296.497 472.408 C 296.704 473.444 297.429 473.896 298.34 473.896 C 298.961 473.896 299.635 473.644 300.153 473.208 L 301.285 474.451 C 300.471 475.198 299.435 475.539 298.229 475.539 C 296.03 475.539 294.506 474.044 294.506 471.786 C 294.506 469.529 295.986 467.99 298.132 467.99 C 300.197 467.99 301.611 469.522 301.618 471.757 Z " fill="rgb(247,250,251)"/><path d=" M 304.287 471.764 C 304.287 472.897 305.035 473.74 306.13 473.74 C 307.27 473.74 307.98 472.86 307.98 471.764 C 307.98 470.669 307.27 469.788 306.13 469.788 C 305.035 469.788 304.287 470.632 304.287 471.764 Z  M 309.964 471.764 C 309.964 473.918 308.469 475.539 306.493 475.539 C 305.531 475.539 304.85 475.161 304.383 474.606 L 304.383 478.314 L 302.459 478.314 L 302.459 468.182 L 304.346 468.182 L 304.346 468.974 C 304.813 468.389 305.501 467.99 306.485 467.99 C 308.469 467.99 309.964 469.61 309.964 471.764 Z " fill="rgb(247,250,251)"/><path d=" M 312.809 475.354 L 310.877 475.354 L 310.877 468.182 L 312.809 468.182 L 312.809 475.354 Z  M 313.068 465.836 C 313.068 466.531 312.527 467.064 311.832 467.064 C 311.136 467.064 310.603 466.531 310.603 465.836 C 310.603 465.14 311.136 464.592 311.832 464.592 C 312.527 464.592 313.068 465.14 313.068 465.836 Z " fill="rgb(247,250,251)"/><path d=" M 316.032 470.735 L 318.734 468.182 L 321.102 468.182 L 317.624 471.557 L 321.124 475.354 L 318.749 475.354 L 316.032 472.453 L 316.032 475.354 L 314.1 475.354 L 314.1 464.696 L 316.032 464.696 L 316.032 470.735 Z " fill="rgb(247,250,251)"/><path d=" M 184.412 473.37 L 184.412 470.162 C 184.017 469.547 183.168 469.02 182.288 469.02 C 180.868 469.02 180.018 470.191 180.018 471.759 C 180.018 473.326 180.868 474.483 182.288 474.483 C 183.168 474.483 184.017 473.985 184.412 473.37 Z  M 184.412 475.289 L 184.412 474.234 C 183.885 474.952 183.021 475.465 182.025 475.465 C 180.179 475.465 178.876 474.059 178.876 471.759 C 178.876 469.503 180.165 468.038 182.025 468.038 C 182.977 468.038 183.841 468.507 184.412 469.283 L 184.412 465.519 L 185.511 465.519 L 185.511 475.289 L 184.412 475.289 Z " fill="rgb(247,250,251)"/><path d=" M 190.403 468.947 C 188.895 468.947 188.148 470.221 188.089 471.305 L 192.732 471.305 C 192.718 470.25 192.015 468.947 190.403 468.947 Z  M 186.932 471.744 C 186.932 469.694 188.397 468.038 190.418 468.038 C 192.557 468.038 193.816 469.708 193.816 471.832 L 193.816 472.111 L 188.089 472.111 C 188.177 473.443 189.115 474.557 190.638 474.557 C 191.443 474.557 192.264 474.234 192.82 473.663 L 193.347 474.381 C 192.644 475.084 191.693 475.465 190.535 475.465 C 188.44 475.465 186.932 473.956 186.932 471.744 Z " fill="rgb(247,250,251)"/><path d=" M 194.607 474.351 L 195.178 473.561 C 195.647 474.103 196.541 474.571 197.507 474.571 C 198.591 474.571 199.177 474.059 199.177 473.355 C 199.177 471.642 194.798 472.696 194.798 470.074 C 194.798 468.976 195.749 468.038 197.434 468.038 C 198.635 468.038 199.485 468.492 200.056 469.064 L 199.543 469.826 C 199.119 469.313 198.342 468.932 197.434 468.932 C 196.467 468.932 195.867 469.415 195.867 470.045 C 195.867 471.598 200.246 470.572 200.246 473.326 C 200.246 474.513 199.294 475.465 197.463 475.465 C 196.306 475.465 195.325 475.113 194.607 474.351 Z " fill="rgb(247,250,251)"/><path d=" M 201.667 475.289 L 201.667 468.214 L 202.766 468.214 L 202.766 475.289 L 201.667 475.289 Z  M 201.477 466.471 C 201.477 466.061 201.814 465.724 202.209 465.724 C 202.619 465.724 202.956 466.061 202.956 466.471 C 202.956 466.881 202.619 467.203 202.209 467.203 C 201.814 467.203 201.477 466.881 201.477 466.471 Z " fill="rgb(247,250,251)"/><path d=" M 209.709 473.253 L 209.709 470.162 C 209.328 469.547 208.478 469.02 207.599 469.02 C 206.178 469.02 205.329 470.148 205.329 471.715 C 205.329 473.268 206.178 474.41 207.599 474.41 C 208.478 474.41 209.328 473.868 209.709 473.253 Z  M 204.582 477.105 L 205.138 476.285 C 205.724 476.988 206.428 477.252 207.438 477.252 C 208.61 477.252 209.709 476.681 209.709 475.128 L 209.709 474.117 C 209.196 474.835 208.332 475.377 207.335 475.377 C 205.49 475.377 204.186 474 204.186 471.715 C 204.186 469.444 205.475 468.038 207.335 468.038 C 208.288 468.038 209.137 468.507 209.709 469.283 L 209.709 468.214 L 210.807 468.214 L 210.807 475.084 C 210.807 477.428 209.167 478.16 207.438 478.16 C 206.237 478.16 205.417 477.925 204.582 477.105 Z " fill="rgb(247,250,251)"/><path d=" M 217.413 475.289 L 217.413 470.66 C 217.413 469.415 216.783 469.02 215.831 469.02 C 214.967 469.02 214.147 469.547 213.737 470.118 L 213.737 475.289 L 212.638 475.289 L 212.638 468.214 L 213.737 468.214 L 213.737 469.24 C 214.235 468.654 215.201 468.038 216.256 468.038 C 217.735 468.038 218.512 468.785 218.512 470.323 L 218.512 475.289 L 217.413 475.289 Z " fill="rgb(247,250,251)"/><path d=" M 223.404 468.947 C 221.895 468.947 221.148 470.221 221.09 471.305 L 225.733 471.305 C 225.718 470.25 225.015 468.947 223.404 468.947 Z  M 219.932 471.744 C 219.932 469.694 221.397 468.038 223.419 468.038 C 225.557 468.038 226.817 469.708 226.817 471.832 L 226.817 472.111 L 221.09 472.111 C 221.178 473.443 222.115 474.557 223.638 474.557 C 224.444 474.557 225.264 474.234 225.821 473.663 L 226.348 474.381 C 225.645 475.084 224.693 475.465 223.536 475.465 C 221.441 475.465 219.932 473.956 219.932 471.744 Z " fill="rgb(247,250,251)"/><path d=" M 233.35 473.37 L 233.35 470.162 C 232.954 469.547 232.105 469.02 231.226 469.02 C 229.805 469.02 228.956 470.191 228.956 471.759 C 228.956 473.326 229.805 474.483 231.226 474.483 C 232.105 474.483 232.954 473.985 233.35 473.37 Z  M 233.35 475.289 L 233.35 474.234 C 232.823 474.952 231.958 475.465 230.962 475.465 C 229.117 475.465 227.813 474.059 227.813 471.759 C 227.813 469.503 229.102 468.038 230.962 468.038 C 231.914 468.038 232.779 468.507 233.35 469.283 L 233.35 465.519 L 234.449 465.519 L 234.449 475.289 L 233.35 475.289 Z " fill="rgb(247,250,251)"/><path d=" M 242.9 474.483 C 244.335 474.483 245.185 473.326 245.185 471.759 C 245.185 470.191 244.335 469.02 242.9 469.02 C 242.036 469.02 241.171 469.547 240.79 470.162 L 240.79 473.37 C 241.171 473.985 242.036 474.483 242.9 474.483 Z  M 239.692 475.289 L 239.692 465.519 L 240.79 465.519 L 240.79 469.283 C 241.362 468.507 242.211 468.038 243.178 468.038 C 245.024 468.038 246.328 469.503 246.328 471.759 C 246.328 474.059 245.024 475.465 243.178 475.465 C 242.182 475.465 241.318 474.952 240.79 474.234 L 240.79 475.289 L 239.692 475.289 Z " fill="rgb(247,250,251)"/><path d=" M 247.529 477.061 C 247.69 477.135 247.953 477.179 248.129 477.179 C 248.612 477.179 248.935 477.017 249.184 476.432 L 249.653 475.362 L 246.694 468.214 L 247.88 468.214 L 250.238 474.015 L 252.582 468.214 L 253.783 468.214 L 250.238 476.725 C 249.814 477.75 249.096 478.145 248.158 478.16 C 247.924 478.16 247.558 478.116 247.353 478.057 L 247.529 477.061 Z " fill="rgb(247,250,251)"/></g></g></svg>