<?xml version="1.0" encoding="UTF-8" standalone="no"?><!-- Generator: Gravit.io --><svg xmlns="http://www.w3.org/2000/svg" xmlns:xlink="http://www.w3.org/1999/xlink" style="isolation:isolate" viewBox="254.333 210.333 231 95" width="231pt" height="95pt"><defs><clipPath id="_clipPath_U6FGdMhsG53r9bkPVtyycxh6wCe7Lx0c"><rect width="800" height="800"/></clipPath></defs><g clip-path="url(#_clipPath_U6FGdMhsG53r9bkPVtyycxh6wCe7Lx0c)"><clipPath id="_clipPath_AziYYqqondi2py1J6hvCFuHIK8F2UF6v"><path d=" M 0 0 L 0 800 L 800 800 L 800 0 L 0 0 Z " fill="rgb(255,255,255)"/></clipPath><g clip-path="url(#_clipPath_AziYYqqondi2py1J6hvCFuHIK8F2UF6v)"><path d=" M 96.514 215.748 C 104.162 210.32 126.365 211.801 126.365 211.801 L 126.365 234.497 C 126.365 234.497 98.241 231.043 93.061 230.056 C 87.88 229.069 88.867 221.175 96.514 215.748 Z  M 132.039 211.801 C 166.083 211.801 177.678 228.823 183.352 237.951 C 189.026 247.078 183.352 246.092 183.352 246.092 L 132.039 235.977 L 132.039 211.801 Z  M 218.876 257.933 C 218.876 257.933 229.238 257.687 229.238 268.541 C 229.238 268.541 218.876 269.774 218.876 257.933 Z  M 72.091 287.907 L 72.091 292.471 L 74.805 292.471 C 74.805 292.471 71.351 265.087 96.884 265.087 C 122.417 265.087 119.704 292.471 119.704 292.471 L 170.277 292.471 C 170.277 292.471 167.316 266.126 193.837 266.126 C 220.357 266.126 216.41 292.471 216.41 292.471 L 233.432 292.471 C 233.432 292.471 233.432 286.057 233.432 270.515 C 233.432 254.973 202.882 248.319 202.882 248.319 C 202.882 248.319 191.616 216.734 161.889 207.606 C 140.269 200.968 98.488 205.633 89.833 207.606 C 81.177 209.58 78.752 220.682 76.038 232.77 C 73.325 244.858 72.091 287.907 72.091 287.907 Z " fill="#000000"/><path d=" M 193.837 278.862 C 198.824 278.862 202.882 282.919 202.882 287.907 C 202.882 292.895 198.824 296.952 193.837 296.952 C 188.85 296.952 184.792 292.895 184.792 287.907 C 184.792 282.919 188.85 278.862 193.837 278.862 Z " fill="#000000"/><path d=" M 180.925 287.907 C 180.925 280.788 186.718 274.996 193.837 274.996 C 200.956 274.996 206.748 280.788 206.748 287.907 C 206.748 295.026 200.956 300.818 193.837 300.818 C 186.718 300.818 180.925 295.026 180.925 287.907 Z  M 176.444 287.907 C 176.444 297.512 184.231 305.299 193.837 305.299 C 203.442 305.299 211.229 297.512 211.229 287.907 C 211.229 278.301 203.442 270.515 193.837 270.515 C 184.231 270.515 176.444 278.301 176.444 287.907 Z " fill="#000000"/><path d=" M 96.885 278.862 C 101.872 278.862 105.929 282.919 105.929 287.907 C 105.929 292.895 101.872 296.952 96.885 296.952 C 91.897 296.952 87.839 292.895 87.839 287.907 C 87.839 282.919 91.897 278.862 96.885 278.862 Z " fill="#000000"/><path d=" M 83.973 287.907 C 83.973 280.788 89.765 274.996 96.885 274.996 C 104.004 274.996 109.795 280.788 109.795 287.907 C 109.795 295.026 104.004 300.818 96.885 300.818 C 89.765 300.818 83.973 295.026 83.973 287.907 Z  M 79.492 287.907 C 79.492 297.512 87.279 305.299 96.884 305.299 C 106.49 305.299 114.276 297.512 114.276 287.907 C 114.276 278.301 106.49 270.515 96.884 270.515 C 87.279 270.515 79.492 278.301 79.492 287.907 Z " fill="#000000"/><path d=" M 545.082 272.829 C 551.208 272.829 556.191 277.813 556.191 283.938 C 556.191 290.064 551.208 295.047 545.082 295.047 C 538.957 295.047 533.972 290.064 533.972 283.938 C 533.972 277.813 538.957 272.829 545.082 272.829 Z " fill="#000000"/><path d=" M 529.224 283.938 C 529.224 275.194 536.338 268.081 545.082 268.081 C 553.826 268.081 560.939 275.194 560.939 283.938 C 560.939 292.682 553.826 299.795 545.082 299.795 C 536.338 299.795 529.224 292.682 529.224 283.938 Z  M 523.72 283.938 C 523.72 295.735 533.284 305.299 545.082 305.299 C 556.879 305.299 566.443 295.735 566.443 283.938 C 566.443 272.141 556.879 262.577 545.082 262.577 C 533.284 262.577 523.72 272.141 523.72 283.938 Z " fill="#000000"/><path d=" M 692.423 272.829 C 698.549 272.829 703.533 277.813 703.533 283.938 C 703.533 290.064 698.549 295.047 692.423 295.047 C 686.298 295.047 681.314 290.064 681.314 283.938 C 681.314 277.813 686.298 272.829 692.423 272.829 Z " fill="#000000"/><path d=" M 676.566 283.938 C 676.566 275.194 683.68 268.081 692.423 268.081 C 701.167 268.081 708.281 275.194 708.281 283.938 C 708.281 292.682 701.167 299.795 692.423 299.795 C 683.68 299.795 676.566 292.682 676.566 283.938 Z  M 671.062 283.938 C 671.062 295.735 680.625 305.299 692.423 305.299 C 704.221 305.299 713.785 295.735 713.785 283.938 C 713.785 272.141 704.221 262.577 692.423 262.577 C 680.625 262.577 671.062 272.141 671.062 283.938 Z " fill="#000000"/><path d=" M 523.72 237.025 C 523.72 237.025 524.174 225.479 535.47 219.706 C 536.696 219.079 538.402 218.53 540.49 218.048 L 540.49 237.025 C 530.461 237.025 523.72 237.025 523.72 237.025 Z  M 546.994 217.358 C 555.486 215.428 574.459 214.871 592.449 214.778 L 592.449 237.025 L 546.994 237.025 L 546.994 217.358 Z  M 597.72 214.762 C 607.552 214.756 616.822 214.866 624.076 214.936 C 649.93 215.187 659.719 234.264 659.719 234.264 C 659.719 239.771 628.264 237.041 597.72 237.025 L 597.72 214.762 Z  M 725.985 245.421 C 725.985 245.421 739.038 250.077 741.045 258.612 C 741.045 258.612 732.762 262.879 725.985 258.612 C 719.208 254.344 725.985 245.421 725.985 245.421 Z  M 501.834 272.829 C 501.834 284.034 505.6 283.938 505.6 283.938 L 519.155 283.938 C 519.155 283.938 519.908 257.858 545.082 257.858 C 570.255 257.858 570.862 283.938 570.862 283.938 L 667.5 283.938 C 667.5 283.938 665.493 259.365 692.423 259.365 C 719.354 259.365 717.702 283.938 717.702 283.938 L 746.066 283.938 C 746.066 283.938 748.827 283.963 748.827 274.425 C 748.827 264.887 745.564 265.64 745.564 265.64 C 745.564 234.264 701.135 240.037 675.039 232.507 C 648.942 224.977 667.25 206.904 596.465 206.904 C 525.68 206.904 532.708 210.418 519.657 222.215 C 506.604 234.013 507.859 262.577 507.859 262.577 C 506.102 262.526 501.834 261.624 501.834 272.829 Z " fill="#000000"/><path d=" M 313.434 464.574 C 317.981 464.574 321.68 468.273 321.68 472.821 C 321.68 477.369 317.981 481.068 313.434 481.068 C 308.886 481.068 305.186 477.369 305.186 472.821 C 305.186 468.273 308.886 464.574 313.434 464.574 Z " fill="#000000"/><path d=" M 301.661 472.821 C 301.661 466.33 306.942 461.049 313.434 461.049 C 319.925 461.049 325.206 466.33 325.206 472.821 C 325.206 479.313 319.925 484.593 313.434 484.593 C 306.942 484.593 301.661 479.313 301.661 472.821 Z  M 297.576 472.821 C 297.576 481.579 304.675 488.679 313.433 488.679 C 322.191 488.679 329.291 481.579 329.291 472.821 C 329.291 464.063 322.191 456.964 313.433 456.964 C 304.675 456.964 297.576 464.063 297.576 472.821 Z " fill="#000000"/><path d=" M 429.505 464.574 C 434.053 464.574 437.752 468.273 437.752 472.821 C 437.752 477.369 434.053 481.068 429.505 481.068 C 424.958 481.068 421.258 477.369 421.258 472.821 C 421.258 468.273 424.958 464.574 429.505 464.574 Z " fill="#000000"/><path d=" M 417.733 472.821 C 417.733 466.33 423.014 461.049 429.505 461.049 C 435.997 461.049 441.278 466.33 441.278 472.821 C 441.278 479.313 435.997 484.593 429.505 484.593 C 423.014 484.593 417.733 479.313 417.733 472.821 Z  M 413.648 472.821 C 413.648 481.579 420.748 488.679 429.505 488.679 C 438.263 488.679 445.363 481.579 445.363 472.821 C 445.363 464.063 438.263 456.964 429.505 456.964 C 420.748 456.964 413.648 464.063 413.648 472.821 Z " fill="#000000"/><path d=" M 289.936 408.185 C 292.489 406.695 302.239 405.702 313.205 405.044 L 313.205 427.074 L 285.282 427.074 C 285.282 427.074 283.366 412.018 289.936 408.185 Z  M 320.596 404.655 C 335.75 403.956 350.195 404.737 350.195 404.737 C 350.195 404.737 366.643 409.827 365.274 427.074 L 320.596 427.074 L 320.596 404.655 Z  M 280.354 469.779 L 286.103 475.528 L 294.316 475.528 C 294.316 475.528 292.125 453.902 313.433 453.902 C 334.741 453.902 332.642 475.528 332.642 475.528 L 410.114 475.528 C 410.114 475.528 408.198 453.902 429.505 453.902 C 450.813 453.902 448.44 475.528 448.44 475.528 L 478.005 475.528 C 478.005 463.31 474.966 454.126 470.3 447.221 C 470.918 447.071 471.51 446.863 472.039 446.554 L 470.424 434.805 C 469.634 434.599 468.792 434.538 467.931 434.656 C 465.463 434.995 463.543 436.707 462.772 438.906 C 445.963 424.862 421.258 426.526 421.258 426.526 L 375.621 426.526 C 366.313 398.604 351.257 399.676 351.257 399.676 L 329.291 399.699 C 304.588 399.699 285.282 398.604 280.354 411.743 C 275.7 434.739 280.354 469.779 280.354 469.779 Z " fill="#000000"/><path d=" M 544.048 457.862 C 549.862 457.862 554.591 462.593 554.591 468.406 C 554.591 474.22 549.862 478.949 544.048 478.949 C 538.235 478.949 533.504 474.22 533.504 468.406 C 533.504 462.593 538.235 457.862 544.048 457.862 Z " fill="#000000"/><path d=" M 528.999 468.406 C 528.999 460.107 535.75 453.355 544.048 453.355 C 552.347 453.355 559.098 460.107 559.098 468.406 C 559.098 476.705 552.347 483.456 544.048 483.456 C 535.75 483.456 528.999 476.705 528.999 468.406 Z  M 523.775 468.406 C 523.775 479.603 532.851 488.679 544.048 488.679 C 555.245 488.679 564.321 479.603 564.321 468.406 C 564.321 457.209 555.245 448.133 544.048 448.133 C 532.851 448.133 523.775 457.209 523.775 468.406 Z " fill="#000000"/><path d=" M 688.8 457.862 C 694.614 457.862 699.343 462.593 699.343 468.406 C 699.343 474.22 694.614 478.949 688.8 478.949 C 682.987 478.949 678.257 474.22 678.257 468.406 C 678.257 462.593 682.987 457.862 688.8 457.862 Z " fill="#000000"/><path d=" M 673.75 468.406 C 673.75 460.107 680.502 453.355 688.8 453.355 C 697.099 453.355 703.85 460.107 703.85 468.406 C 703.85 476.705 697.099 483.456 688.8 483.456 C 680.502 483.456 673.75 476.705 673.75 468.406 Z  M 668.527 468.406 C 668.527 479.603 677.604 488.679 688.8 488.679 C 699.997 488.679 709.073 479.603 709.073 468.406 C 709.073 457.209 699.997 448.133 688.8 448.133 C 677.604 448.133 668.527 457.209 668.527 468.406 Z " fill="#000000"/><path d=" M 722.823 449.572 C 722.823 449.572 735.332 455.115 741.16 461.086 C 741.16 461.086 723.391 465.776 722.823 449.572 Z  M 504.802 454.886 C 504.802 468.75 510.034 466.134 510.034 466.134 L 510.034 473.458 L 520.236 473.458 C 520.236 473.458 517.097 445.076 544.047 445.076 C 570.999 445.076 568.369 473.458 568.369 473.458 L 665.679 473.458 C 665.679 473.458 661.494 445.076 688.8 445.076 C 716.106 445.076 712.503 473.458 712.503 473.458 C 712.503 473.458 732.384 473.458 740.755 473.458 C 749.126 473.458 744.679 460.641 744.679 460.641 C 730.815 446.253 696.024 437.882 696.024 437.882 L 664.895 437.882 C 660.709 436.574 637.69 416.693 637.69 416.693 C 633.024 412.719 632.981 416.171 632.981 416.171 L 656 439.19 C 656 439.19 639.252 439.19 621.733 439.19 C 621.733 439.19 618.593 425.064 613.1 425.064 C 607.607 425.064 608.653 432.912 610.746 439.19 C 606.596 439.19 602.594 439.19 598.974 439.19 C 577.262 439.19 573.338 424.541 573.338 424.541 C 552.935 424.541 539.333 435.528 539.333 435.528 L 523.775 435.528 L 516.05 425.064 L 511.081 425.064 L 511.081 443.376 C 511.081 443.376 504.802 441.021 504.802 454.886 Z " fill="#000000"/><path d=" M 287.315 277.086 C 292.638 277.086 296.967 281.417 296.967 286.739 C 296.967 292.062 292.638 296.392 287.315 296.392 C 281.993 296.392 277.663 292.062 277.663 286.739 C 277.663 281.417 281.993 277.086 287.315 277.086 Z " fill="#000000"/><path d=" M 273.537 286.739 C 273.537 279.142 279.718 272.961 287.315 272.961 C 294.913 272.961 301.093 279.142 301.093 286.739 C 301.093 294.336 294.913 300.517 287.315 300.517 C 279.718 300.517 273.537 294.336 273.537 286.739 Z  M 268.755 286.739 C 268.755 296.99 277.064 305.299 287.315 305.299 C 297.565 305.299 305.875 296.99 305.875 286.739 C 305.875 276.489 297.565 268.179 287.315 268.179 C 277.064 268.179 268.755 276.489 268.755 286.739 Z " fill="#000000"/><path d=" M 437.704 277.086 C 443.026 277.086 447.355 281.417 447.355 286.739 C 447.355 292.062 443.026 296.392 437.704 296.392 C 432.381 296.392 428.05 292.062 428.05 286.739 C 428.05 281.417 432.381 277.086 437.704 277.086 Z " fill="#000000"/><path d=" M 423.924 286.739 C 423.924 279.142 430.106 272.961 437.704 272.961 C 445.3 272.961 451.481 279.142 451.481 286.739 C 451.481 294.336 445.3 300.517 437.704 300.517 C 430.106 300.517 423.924 294.336 423.924 286.739 Z  M 419.143 286.739 C 419.143 296.99 427.453 305.299 437.703 305.299 C 447.954 305.299 456.263 296.99 456.263 286.739 C 456.263 276.489 447.954 268.179 437.703 268.179 C 427.453 268.179 419.143 276.489 419.143 286.739 Z " fill="#000000"/><path d=" M 285.167 237.138 C 298.525 220.11 315.797 217.531 333.279 217.26 L 333.279 237.053 L 285.167 237.138 Z  M 339.508 217.241 C 345.528 217.277 351.515 217.172 357.334 217.163 C 383.109 217.123 406.09 236.923 406.09 236.923 L 339.508 237.042 L 339.508 217.241 Z  M 460.551 248.691 C 460.551 248.691 473.566 254.838 473.857 266.007 C 473.857 266.007 464.339 267.755 461.037 263.967 C 457.735 260.18 460.551 248.691 460.551 248.691 Z  M 255.346 286.739 L 265.782 286.739 C 265.782 286.739 265.167 264.189 287.315 264.189 C 309.462 264.189 310.284 286.739 310.284 286.739 L 415.249 286.739 C 415.249 286.739 415.249 264.496 437.703 264.496 C 460.157 264.496 460.672 286.739 460.672 286.739 C 480.622 286.739 483.998 288.128 484.612 277.086 C 485.225 266.044 477.859 265.724 477.859 265.724 C 474.176 237.794 420.16 236.26 420.16 236.26 C 420.16 236.26 387.626 212.014 367.677 211.4 C 347.728 210.786 321.947 208.638 301.998 215.39 C 282.048 222.142 262.405 258.357 262.405 258.357 C 250.436 266.951 255.346 286.739 255.346 286.739 Z " fill="#000000"/><path d=" M 312.144 654.895 C 318.313 654.895 323.331 659.914 323.331 666.082 C 323.331 672.251 318.313 677.27 312.144 677.27 C 305.975 677.27 300.956 672.251 300.956 666.082 C 300.956 659.914 305.975 654.895 312.144 654.895 Z " fill="#000000"/><path d=" M 296.174 666.082 C 296.174 657.276 303.338 650.112 312.144 650.112 C 320.949 650.112 328.113 657.276 328.113 666.082 C 328.113 674.888 320.949 682.051 312.144 682.051 C 303.338 682.051 296.174 674.888 296.174 666.082 Z  M 290.632 666.082 C 290.632 677.963 300.263 687.594 312.144 687.594 C 324.024 687.594 333.655 677.963 333.655 666.082 C 333.655 654.201 324.024 644.57 312.144 644.57 C 300.263 644.57 290.632 654.201 290.632 666.082 Z " fill="#000000"/><path d=" M 440.867 654.895 C 447.035 654.895 452.053 659.914 452.053 666.082 C 452.053 672.251 447.035 677.27 440.867 677.27 C 434.698 677.27 429.678 672.251 429.678 666.082 C 429.678 659.914 434.698 654.895 440.867 654.895 Z " fill="#000000"/><path d=" M 424.897 666.082 C 424.897 657.276 432.061 650.112 440.867 650.112 C 449.672 650.112 456.835 657.276 456.835 666.082 C 456.835 674.888 449.672 682.051 440.867 682.051 C 432.061 682.051 424.897 674.888 424.897 666.082 Z  M 419.355 666.082 C 419.355 677.963 428.986 687.594 440.866 687.594 C 452.747 687.594 462.377 677.963 462.377 666.082 C 462.377 654.201 452.747 644.57 440.866 644.57 C 428.986 644.57 419.355 654.201 419.355 666.082 Z " fill="#000000"/><path d=" M 283.022 627.806 L 299.141 607.601 L 305.498 607.601 L 296.417 627.806 L 283.022 627.806 Z  M 302.546 627.806 L 310.492 607.601 L 373.605 607.601 L 383.821 627.806 L 302.546 627.806 Z  M 390.632 627.806 L 379.961 607.601 L 399.259 607.601 L 421.734 627.806 L 390.632 627.806 Z  M 464.031 634.93 C 464.031 634.93 476.261 638.492 477.092 649.654 C 477.092 649.654 462.606 653.098 464.031 634.93 Z  M 271.444 659.361 C 271.444 673.21 278.255 670.713 278.255 670.713 L 288.244 670.889 C 288.244 670.889 283.146 642.108 312.144 642.108 C 341.141 642.108 336.373 670.889 336.373 670.889 L 416.512 670.713 C 416.512 670.713 411.869 641.427 440.866 641.427 C 469.863 641.427 465.323 670.713 465.323 670.713 L 482.123 670.713 C 482.123 670.713 484.847 670.94 484.847 660.043 C 484.847 649.146 479.625 649.373 479.625 649.373 C 479.625 649.373 485.298 627.578 429.678 627.578 L 403.345 606.692 C 403.345 606.692 408.567 602.833 398.578 602.833 C 388.589 602.833 295.282 602.833 295.282 602.833 C 295.282 602.833 288.471 604.876 295.282 607.373 L 277.347 628.714 L 277.347 647.783 C 277.347 647.783 271.444 645.514 271.444 659.361 Z " fill="#000000"/><path d=" M 558.635 655.123 C 564.761 655.123 569.745 660.107 569.745 666.232 C 569.745 672.358 564.761 677.342 558.635 677.342 C 552.51 677.342 547.526 672.358 547.526 666.232 C 547.526 660.107 552.51 655.123 558.635 655.123 Z " fill="#000000"/><path d=" M 542.778 666.232 C 542.778 657.488 549.891 650.375 558.635 650.375 C 567.379 650.375 574.493 657.488 574.493 666.232 C 574.493 674.977 567.379 682.09 558.635 682.09 C 549.891 682.09 542.778 674.977 542.778 666.232 Z  M 537.274 666.232 C 537.274 678.029 546.838 687.594 558.635 687.594 C 570.433 687.594 579.997 678.029 579.997 666.232 C 579.997 654.435 570.433 644.871 558.635 644.871 C 546.838 644.871 537.274 654.435 537.274 666.232 Z " fill="#000000"/><path d=" M 695.692 655.123 C 701.818 655.123 706.801 660.107 706.801 666.232 C 706.801 672.358 701.818 677.342 695.692 677.342 C 689.567 677.342 684.583 672.358 684.583 666.232 C 684.583 660.107 689.567 655.123 695.692 655.123 Z " fill="#000000"/><path d=" M 679.834 666.232 C 679.834 657.488 686.948 650.375 695.692 650.375 C 704.436 650.375 711.549 657.488 711.549 666.232 C 711.549 674.977 704.436 682.09 695.692 682.09 C 686.948 682.09 679.834 674.977 679.834 666.232 Z  M 674.331 666.232 C 674.331 678.029 683.895 687.594 695.692 687.594 C 707.49 687.594 717.053 678.029 717.053 666.232 C 717.053 654.435 707.49 644.871 695.692 644.871 C 683.895 644.871 674.331 654.435 674.331 666.232 Z " fill="#000000"/><path d=" M 534.147 587.313 L 587.627 587.313 L 587.627 616.471 L 534.147 616.471 L 534.147 587.313 Z  M 596.327 587.313 L 634.182 587.313 L 660.118 616.471 L 596.327 616.471 L 596.327 587.313 Z  M 623.585 582.754 L 538.14 582.754 L 538.14 577.822 L 623.585 577.822 L 623.585 582.754 Z  M 719.61 622.454 C 719.61 622.454 733.458 624.831 732.218 637.13 C 732.218 637.13 717.026 639.61 719.61 622.454 Z  M 511.492 603.318 L 511.492 636.031 C 511.492 637.449 512.652 638.608 514.069 638.608 L 520.012 638.608 L 520.012 640.976 L 515.989 640.976 L 515.989 666.232 L 534.212 666.232 C 534.212 666.232 534.067 641.448 558.635 641.448 C 583.204 641.448 583.676 666.232 583.676 666.232 L 670.772 666.232 C 670.772 666.232 672.331 641.448 695.692 641.448 C 719.053 641.448 721.183 666.232 721.183 666.232 L 739.17 666.232 L 739.17 640.502 L 734.437 640.502 L 734.437 634.112 C 734.437 634.112 737.513 620.621 718.343 620.385 C 699.172 620.148 673.138 615.651 673.138 615.651 L 638.348 582.754 L 627.58 582.754 L 627.58 577.822 L 638.393 577.822 L 638.393 573.321 L 519.893 573.321 L 519.893 577.822 L 534.147 577.822 L 534.147 582.754 L 524.508 582.754 L 520.012 587.961 L 520.012 600.741 L 514.069 600.741 C 512.652 600.741 511.492 601.9 511.492 603.318 Z " fill="#000000"/><path d=" M 84.753 455.524 C 91.008 455.524 96.096 460.613 96.096 466.868 C 96.096 473.122 91.008 478.211 84.753 478.211 C 78.499 478.211 73.41 473.122 73.41 466.868 C 73.41 460.613 78.499 455.524 84.753 455.524 Z " fill="#000000"/><path d=" M 68.561 466.868 C 68.561 457.939 75.825 450.676 84.753 450.676 C 93.682 450.676 100.945 457.939 100.945 466.868 C 100.945 475.796 93.682 483.06 84.753 483.06 C 75.825 483.06 68.561 475.796 68.561 466.868 Z  M 62.942 466.867 C 62.942 478.913 72.707 488.679 84.753 488.679 C 96.799 488.679 106.564 478.913 106.564 466.867 C 106.564 454.821 96.799 445.056 84.753 445.056 C 72.707 445.056 62.942 454.821 62.942 466.867 Z " fill="#000000"/><path d=" M 210.137 455.524 C 216.391 455.524 221.479 460.613 221.479 466.868 C 221.479 473.122 216.391 478.211 210.137 478.211 C 203.882 478.211 198.793 473.122 198.793 466.868 C 198.793 460.613 203.882 455.524 210.137 455.524 Z " fill="#000000"/><path d=" M 193.944 466.868 C 193.944 457.939 201.208 450.676 210.137 450.676 C 219.065 450.676 226.328 457.939 226.328 466.868 C 226.328 475.796 219.065 483.06 210.137 483.06 C 201.208 483.06 193.944 475.796 193.944 466.868 Z  M 188.325 466.867 C 188.325 478.913 198.09 488.679 210.136 488.679 C 222.183 488.679 231.948 478.913 231.948 466.867 C 231.948 454.821 222.183 445.056 210.136 445.056 C 198.09 445.056 188.325 454.821 188.325 466.867 Z " fill="#000000"/><path d=" M 75.404 431.436 C 75.404 431.436 77.678 422.622 94.193 416.336 L 94.193 431.436 L 75.404 431.436 Z  M 99.774 414.484 C 107.379 412.293 117.3 410.654 130.283 410.244 L 130.283 431.436 L 99.774 431.436 L 99.774 414.484 Z  M 138.096 410.18 C 185.667 410.798 200.043 431.436 200.043 431.436 L 138.096 431.436 L 138.096 410.18 Z  M 53.639 474.408 L 60.894 474.408 C 60.894 474.408 54.291 442.039 84.753 442.039 C 115.215 442.039 109.076 474.408 109.076 474.408 L 183.859 473.479 C 183.859 473.479 182.279 441.296 210.136 441.296 C 237.993 441.296 236.691 473.479 236.691 473.479 L 252.504 473.479 C 252.504 473.479 253.695 466.082 251.335 457.453 C 251.953 457.611 252.594 457.706 253.265 457.666 C 253.637 457.644 253.998 457.583 254.349 457.5 L 253.607 445.102 C 253.249 445.061 252.884 445.044 252.511 445.066 C 250.288 445.199 248.412 446.474 247.395 448.28 C 241.708 439.077 230.254 430.878 207.485 430.878 C 207.485 430.878 196.881 404.462 130.097 404.462 C 63.313 404.462 43.594 458.782 53.639 474.408 Z " fill="#000000"/><path d=" M 79.669 654.19 C 85.97 654.19 91.096 659.318 91.096 665.619 C 91.096 671.921 85.97 677.047 79.669 677.047 C 73.367 677.047 68.24 671.921 68.24 665.619 C 68.24 659.318 73.367 654.19 79.669 654.19 Z " fill="#000000"/><path d=" M 63.356 665.619 C 63.356 656.624 70.673 649.306 79.669 649.306 C 88.664 649.306 95.981 656.624 95.981 665.619 C 95.981 674.614 88.664 681.932 79.669 681.932 C 70.673 681.932 63.356 674.614 63.356 665.619 Z  M 57.694 665.619 C 57.694 677.755 67.532 687.594 79.669 687.594 C 91.804 687.594 101.643 677.755 101.643 665.619 C 101.643 653.483 91.804 643.645 79.669 643.645 C 67.532 643.645 57.694 653.483 57.694 665.619 Z " fill="#000000"/><path d=" M 219.183 654.19 C 225.484 654.19 230.611 659.318 230.611 665.619 C 230.611 671.921 225.484 677.047 219.183 677.047 C 212.882 677.047 207.755 671.921 207.755 665.619 C 207.755 659.318 212.882 654.19 219.183 654.19 Z " fill="#000000"/><path d=" M 202.87 665.619 C 202.87 656.624 210.188 649.306 219.183 649.306 C 228.178 649.306 235.496 656.624 235.496 665.619 C 235.496 674.614 228.178 681.932 219.183 681.932 C 210.188 681.932 202.87 674.614 202.87 665.619 Z  M 197.208 665.619 C 197.208 677.755 207.047 687.594 219.183 687.594 C 231.319 687.594 241.157 677.755 241.157 665.619 C 241.157 653.483 231.319 643.645 219.183 643.645 C 207.047 643.645 197.208 653.483 197.208 665.619 Z " fill="#000000"/><path d=" M 69.205 624.519 C 69.205 624.519 72.368 611.233 79.485 603.01 C 80.969 601.295 84.053 599.995 88.184 599.029 L 88.184 624.519 L 69.205 624.519 Z  M 92.928 598.128 C 103.885 596.447 119.312 596.376 132.783 597.014 L 132.783 624.519 L 92.928 624.519 L 92.928 598.128 Z  M 138.476 597.332 C 143.146 597.634 147.439 598.011 151.022 598.423 C 171.633 600.795 198.891 624.519 198.891 624.519 L 138.476 624.519 L 138.476 597.332 Z  M 222.93 627.365 C 222.93 627.365 233.605 629.104 241.157 636.38 C 241.157 636.38 222.613 642.231 222.93 627.365 Z  M 51.174 640.881 L 51.174 668.283 L 55.132 668.283 C 55.132 668.283 51.174 640.881 79.668 640.881 C 108.162 640.881 105.37 668.283 105.37 668.283 L 194.277 668.283 C 194.277 668.283 191.232 640.576 219.183 640.576 C 247.134 640.576 243.906 668.283 243.906 668.283 L 252.126 668.283 C 263.392 636.923 228.682 623.221 218.33 622.003 C 207.978 620.785 170.528 594.296 155.304 591.556 C 140.081 588.815 98.977 587.293 79.668 593.992 C 60.36 600.69 59.395 635.096 59.395 635.096 L 51.174 640.881 Z " fill="#000000"/><path d=" M 186.104 98.474 L 200.201 98.474 L 200.201 95.257 L 186.104 95.257 L 186.104 98.474 Z  M 217.516 69.591 C 209.318 69.591 205.947 75.414 205.947 83.152 L 205.947 110.579 C 205.947 118.317 209.318 124.14 217.516 124.14 C 225.713 124.14 229.084 118.317 229.084 110.579 L 229.084 104.45 L 225.713 104.45 L 225.713 110.809 C 225.713 116.555 223.491 120.845 217.592 120.845 C 211.693 120.845 209.471 116.555 209.471 110.809 L 209.471 82.922 C 209.471 77.176 211.693 72.809 217.592 72.809 C 223.491 72.809 225.713 77.176 225.713 82.922 L 225.713 87.595 L 229.084 87.595 L 229.084 83.152 C 229.084 75.414 225.713 69.591 217.516 69.591 Z  M 256.665 111.805 L 259.346 123.68 L 262.871 123.68 L 250.919 69.974 L 245.786 69.974 L 234.064 123.68 L 237.282 123.68 L 239.963 111.805 L 256.665 111.805 Z  M 248.237 74.035 L 256.129 108.74 L 240.5 108.74 L 248.237 74.035 Z  M 268.233 70.051 L 268.233 123.68 L 271.758 123.68 L 271.758 99.7 L 277.35 99.7 C 283.479 99.7 287.387 101.692 287.387 108.817 L 287.387 117.245 C 287.387 120.156 287.617 122.071 288.536 123.68 L 292.213 123.68 C 291.064 121.918 290.911 119.466 290.911 117.245 L 290.911 108.894 C 290.911 103.071 288.689 99.164 283.173 97.938 C 288.459 96.712 290.911 93.111 290.911 86.829 L 290.911 82.156 C 290.911 74.571 287.617 70.051 279.419 70.051 L 268.233 70.051 Z  M 271.758 96.482 L 271.758 73.269 L 279.342 73.269 C 285.165 73.269 287.387 76.716 287.387 82.462 L 287.387 87.519 C 287.387 94.72 283.709 96.482 277.427 96.482 L 271.758 96.482 Z " fill="#000000"/><path d=" M 320.864 69.591 C 312.972 69.668 309.448 74.878 309.448 82.922 C 309.448 97.861 328.831 98.091 328.831 110.962 C 328.831 116.708 326.609 120.845 320.71 120.845 C 314.811 120.845 312.589 116.708 312.589 110.962 L 312.589 107.974 L 309.218 107.974 L 309.218 110.732 C 309.218 118.47 312.589 124.14 320.787 124.14 C 328.984 124.14 332.355 118.47 332.355 110.732 C 332.355 95.946 312.972 95.716 312.972 82.692 C 312.972 77.023 315.118 72.809 320.94 72.809 C 326.763 72.809 328.908 77.099 328.908 82.769 L 328.908 84.148 L 332.279 84.148 L 332.279 82.998 C 332.279 75.261 328.984 69.591 320.864 69.591 Z  M 338.025 70.051 L 338.025 123.68 L 341.549 123.68 L 341.549 70.051 L 338.025 70.051 Z  M 368.056 123.68 L 368.056 120.462 L 351.201 120.462 L 351.201 70.051 L 347.677 70.051 L 347.677 123.68 L 368.056 123.68 Z  M 393.568 98.474 L 393.568 123.68 L 397.169 123.68 L 397.169 70.051 L 393.568 70.051 L 393.568 95.257 L 376.866 95.257 L 376.866 70.051 L 373.342 70.051 L 373.342 123.68 L 376.866 123.68 L 376.866 98.474 L 393.568 98.474 Z  M 403.067 110.579 C 403.067 118.394 406.668 124.14 414.789 124.14 C 423.063 124.14 426.664 118.394 426.664 110.579 L 426.664 83.152 C 426.664 75.337 423.063 69.591 414.789 69.591 C 406.668 69.591 403.067 75.337 403.067 83.152 L 403.067 110.579 Z  M 406.591 82.922 C 406.591 77.099 408.889 72.809 414.789 72.809 C 420.764 72.809 423.139 77.099 423.139 82.922 L 423.139 110.809 C 423.139 116.632 420.764 120.922 414.789 120.922 C 408.889 120.922 406.591 116.632 406.591 110.809 L 406.591 82.922 Z  M 435.858 70.051 L 432.333 70.051 L 432.333 110.579 C 432.333 118.24 435.628 124.14 443.825 124.14 C 452.023 124.14 455.241 118.24 455.241 110.579 L 455.241 70.051 L 451.946 70.051 L 451.946 110.732 C 451.946 116.478 449.801 120.922 443.902 120.922 C 438.003 120.922 435.858 116.478 435.858 110.732 L 435.858 70.051 Z  M 464.816 94.874 L 464.816 73.269 L 482.437 73.269 L 482.437 70.051 L 461.292 70.051 L 461.292 123.68 L 482.437 123.68 L 482.437 120.462 L 464.816 120.462 L 464.816 98.091 L 479.45 98.091 L 479.45 94.874 L 464.816 94.874 Z  M 500.977 123.68 L 500.977 73.269 L 511.856 73.269 L 511.856 70.051 L 486.497 70.051 L 486.497 73.269 L 497.453 73.269 L 497.453 123.68 L 500.977 123.68 Z  M 529.247 123.68 L 529.247 73.269 L 540.126 73.269 L 540.126 70.051 L 514.767 70.051 L 514.767 73.269 L 525.723 73.269 L 525.723 123.68 L 529.247 123.68 Z  M 548.246 94.874 L 548.246 73.269 L 565.867 73.269 L 565.867 70.051 L 544.722 70.051 L 544.722 123.68 L 565.867 123.68 L 565.867 120.462 L 548.246 120.462 L 548.246 98.091 L 562.879 98.091 L 562.879 94.874 L 548.246 94.874 Z  M 582.798 69.591 C 574.907 69.668 571.383 74.878 571.383 82.922 C 571.383 97.861 590.766 98.091 590.766 110.962 C 590.766 116.708 588.544 120.845 582.645 120.845 C 576.746 120.845 574.524 116.708 574.524 110.962 L 574.524 107.974 L 571.153 107.974 L 571.153 110.732 C 571.153 118.47 574.524 124.14 582.721 124.14 C 590.919 124.14 594.29 118.47 594.29 110.732 C 594.29 95.946 574.907 95.716 574.907 82.692 C 574.907 77.023 577.052 72.809 582.875 72.809 C 588.697 72.809 590.842 77.099 590.842 82.769 L 590.842 84.148 L 594.213 84.148 L 594.213 82.998 C 594.213 75.261 590.919 69.591 582.798 69.591 Z  M 599.806 98.474 L 613.903 98.474 L 613.903 95.257 L 599.806 95.257 L 599.806 98.474 Z " fill="#000000"/><path d=" M 283.362 778.843 C 283.362 779.546 283.472 780.144 283.69 780.638 C 283.909 781.132 284.208 781.503 284.587 781.753 C 284.968 782.003 285.382 782.13 285.832 782.13 C 286.288 782.13 286.704 782.011 287.081 781.772 C 287.458 781.536 287.758 781.171 287.983 780.681 C 288.208 780.19 288.32 779.575 288.32 778.843 C 288.32 778.151 288.208 777.558 287.983 777.06 C 287.758 776.563 287.455 776.185 287.071 775.921 C 286.688 775.659 286.269 775.528 285.813 775.528 C 285.338 775.528 284.914 775.663 284.54 775.931 C 284.167 776.2 283.877 776.585 283.671 777.089 C 283.465 777.593 283.362 778.177 283.362 778.843 Z  M 288.463 782.651 L 288.463 782.394 C 288.114 782.792 287.771 783.118 287.432 783.366 C 287.094 783.618 286.726 783.808 286.33 783.937 C 285.935 784.069 285.503 784.132 285.034 784.132 C 284.413 784.132 283.838 784.001 283.31 783.739 C 282.781 783.476 282.324 783.101 281.938 782.612 C 281.551 782.126 281.258 781.554 281.059 780.894 C 280.86 780.235 280.76 779.522 280.76 778.757 C 280.76 777.136 281.156 775.872 281.947 774.966 C 282.739 774.062 283.78 773.608 285.072 773.608 C 285.819 773.608 286.449 773.737 286.962 773.993 C 287.475 774.249 287.975 774.646 288.463 775.175 L 288.463 771.349 C 288.463 770.815 288.568 770.415 288.781 770.142 C 288.993 769.87 289.295 769.733 289.688 769.733 C 290.081 769.733 290.382 769.858 290.595 770.108 C 290.807 770.36 290.913 770.728 290.913 771.216 L 290.913 782.651 C 290.913 783.146 290.8 783.515 290.571 783.763 C 290.343 784.009 290.049 784.132 289.688 784.132 C 289.333 784.132 289.041 784.005 288.809 783.749 C 288.578 783.491 288.463 783.126 288.463 782.651 Z " fill="#000000"/><path d=" M 294.825 778.026 L 299.527 778.026 C 299.464 777.14 299.224 776.476 298.81 776.036 C 298.395 775.595 297.849 775.376 297.171 775.376 C 296.525 775.376 295.995 775.599 295.581 776.044 C 295.166 776.491 294.915 777.151 294.825 778.026 Z  M 299.896 779.499 L 294.825 779.499 C 294.832 780.087 294.95 780.606 295.182 781.056 C 295.412 781.505 295.72 781.845 296.103 782.071 C 296.486 782.3 296.909 782.413 297.371 782.413 C 297.681 782.413 297.964 782.378 298.221 782.306 C 298.478 782.231 298.726 782.118 298.967 781.962 C 299.208 781.808 299.429 781.642 299.631 781.464 C 299.833 781.286 300.096 781.044 300.419 780.741 C 300.552 780.628 300.743 780.569 300.99 780.569 C 301.256 780.569 301.471 780.644 301.635 780.79 C 301.799 780.937 301.883 781.14 301.883 781.407 C 301.883 781.642 301.79 781.913 301.607 782.228 C 301.422 782.542 301.146 782.843 300.776 783.13 C 300.404 783.419 299.94 783.657 299.379 783.847 C 298.819 784.038 298.175 784.132 297.446 784.132 C 295.782 784.132 294.486 783.657 293.562 782.708 C 292.638 781.759 292.176 780.47 292.176 778.843 C 292.176 778.075 292.289 777.364 292.517 776.71 C 292.746 776.054 293.078 775.493 293.514 775.024 C 293.951 774.556 294.489 774.196 295.129 773.946 C 295.769 773.696 296.478 773.571 297.257 773.571 C 298.27 773.571 299.139 773.784 299.863 774.212 C 300.589 774.64 301.132 775.192 301.493 775.868 C 301.853 776.546 302.034 777.237 302.034 777.938 C 302.034 778.593 301.847 779.015 301.474 779.208 C 301.101 779.401 300.575 779.499 299.896 779.499 Z " fill="#000000"/><path d=" M 311.711 780.741 C 311.711 781.456 311.538 782.069 311.189 782.579 C 310.841 783.089 310.327 783.476 309.646 783.739 C 308.965 784.001 308.137 784.132 307.162 784.132 C 306.231 784.132 305.434 783.989 304.769 783.704 C 304.104 783.421 303.613 783.063 303.297 782.638 C 302.98 782.208 302.822 781.78 302.822 781.349 C 302.822 781.063 302.922 780.821 303.126 780.618 C 303.328 780.417 303.585 780.315 303.896 780.315 C 304.167 780.315 304.375 780.382 304.521 780.515 C 304.667 780.647 304.807 780.835 304.939 781.073 C 305.205 781.538 305.524 781.88 305.895 782.11 C 306.265 782.337 306.769 782.452 307.41 782.452 C 307.929 782.452 308.354 782.335 308.687 782.104 C 309.019 781.872 309.185 781.608 309.185 781.312 C 309.185 780.854 309.013 780.524 308.667 780.315 C 308.322 780.106 307.754 779.905 306.962 779.716 C 306.07 779.495 305.343 779.261 304.783 779.017 C 304.222 778.774 303.774 778.452 303.439 778.054 C 303.104 777.655 302.936 777.163 302.936 776.581 C 302.936 776.063 303.09 775.571 303.401 775.108 C 303.711 774.647 304.169 774.278 304.774 774.003 C 305.378 773.728 306.107 773.589 306.962 773.589 C 307.634 773.589 308.237 773.659 308.771 773.8 C 309.307 773.937 309.754 774.126 310.111 774.36 C 310.469 774.593 310.741 774.853 310.928 775.138 C 311.114 775.423 311.208 775.7 311.208 775.974 C 311.208 776.271 311.108 776.515 310.909 776.706 C 310.71 776.894 310.427 776.991 310.059 776.991 C 309.792 776.991 309.566 776.915 309.38 776.761 C 309.193 776.61 308.979 776.382 308.739 776.079 C 308.542 775.825 308.313 775.622 308.046 775.47 C 307.78 775.317 307.419 775.243 306.962 775.243 C 306.494 775.243 306.105 775.341 305.794 775.542 C 305.484 775.741 305.329 775.989 305.329 776.286 C 305.329 776.56 305.443 776.782 305.67 776.956 C 305.899 777.132 306.206 777.276 306.593 777.39 C 306.979 777.503 307.51 777.642 308.188 777.806 C 308.992 778.003 309.648 778.237 310.159 778.509 C 310.668 778.78 311.054 779.103 311.318 779.474 C 311.581 779.845 311.711 780.267 311.711 780.741 Z " fill="#000000"/><path d=" M 315.643 775.062 L 315.643 782.556 C 315.643 783.075 315.52 783.468 315.272 783.733 C 315.025 783.999 314.712 784.132 314.332 784.132 C 313.952 784.132 313.643 783.997 313.406 783.724 C 313.168 783.452 313.05 783.062 313.05 782.556 L 313.05 775.138 C 313.05 774.626 313.168 774.239 313.406 773.979 C 313.643 773.72 313.952 773.589 314.332 773.589 C 314.712 773.589 315.025 773.72 315.272 773.979 C 315.52 774.239 315.643 774.601 315.643 775.062 Z  M 314.36 772.384 C 314 772.384 313.691 772.272 313.435 772.052 C 313.178 771.831 313.05 771.517 313.05 771.11 C 313.05 770.743 313.181 770.442 313.444 770.204 C 313.707 769.966 314.013 769.847 314.36 769.847 C 314.696 769.847 314.994 769.954 315.253 770.171 C 315.513 770.386 315.643 770.698 315.643 771.11 C 315.643 771.511 315.516 771.821 315.262 772.046 C 315.009 772.271 314.708 772.384 314.36 772.384 Z " fill="#000000"/><path d=" M 319.489 778.776 C 319.489 779.827 319.718 780.622 320.177 781.159 C 320.636 781.698 321.23 781.968 321.958 781.968 C 322.388 781.968 322.795 781.851 323.178 781.62 C 323.562 781.39 323.873 781.04 324.114 780.575 C 324.354 780.11 324.475 779.546 324.475 778.88 C 324.475 777.823 324.243 776.999 323.777 776.411 C 323.311 775.823 322.699 775.528 321.938 775.528 C 321.197 775.528 320.604 775.81 320.158 776.374 C 319.711 776.937 319.489 777.737 319.489 778.776 Z  M 327.002 775.489 L 327.002 783.021 C 327.002 783.882 326.909 784.624 326.725 785.245 C 326.543 785.864 326.248 786.378 325.842 786.782 C 325.437 787.187 324.907 787.489 324.252 787.685 C 323.597 787.882 322.781 787.979 321.806 787.979 C 320.913 787.979 320.115 787.854 319.412 787.604 C 318.71 787.353 318.169 787.03 317.788 786.636 C 317.409 786.239 317.218 785.833 317.218 785.415 C 317.218 785.099 317.326 784.839 317.542 784.642 C 317.756 784.44 318.017 784.341 318.32 784.341 C 318.7 784.341 319.032 784.509 319.317 784.845 C 319.456 785.015 319.6 785.188 319.749 785.362 C 319.898 785.538 320.063 785.687 320.243 785.81 C 320.424 785.933 320.641 786.024 320.894 786.085 C 321.147 786.144 321.439 786.175 321.768 786.175 C 322.439 786.175 322.96 786.081 323.331 785.894 C 323.701 785.708 323.961 785.446 324.109 785.11 C 324.258 784.776 324.345 784.417 324.371 784.032 C 324.396 783.649 324.415 783.034 324.427 782.185 C 324.028 782.743 323.568 783.167 323.045 783.458 C 322.523 783.749 321.9 783.896 321.179 783.896 C 320.312 783.896 319.554 783.673 318.904 783.229 C 318.255 782.786 317.756 782.167 317.409 781.368 C 317.06 780.569 316.887 779.649 316.887 778.604 C 316.887 777.827 316.992 777.122 317.204 776.497 C 317.417 775.868 317.719 775.341 318.111 774.909 C 318.504 774.479 318.957 774.155 319.469 773.937 C 319.982 773.718 320.545 773.608 321.16 773.608 C 321.894 773.608 322.531 773.751 323.069 774.03 C 323.607 774.313 324.108 774.755 324.57 775.356 L 324.57 775.005 C 324.57 774.556 324.68 774.208 324.902 773.96 C 325.124 773.714 325.409 773.589 325.757 773.589 C 326.257 773.589 326.589 773.753 326.754 774.079 C 326.919 774.405 327.002 774.876 327.002 775.489 Z " fill="#000000"/><path d=" M 331.123 775.024 L 331.123 775.337 C 331.578 774.735 332.077 774.294 332.618 774.013 C 333.16 773.731 333.781 773.589 334.484 773.589 C 335.168 773.589 335.779 773.739 336.318 774.036 C 336.855 774.335 337.259 774.755 337.523 775.298 C 337.695 775.616 337.806 775.958 337.856 776.325 C 337.907 776.692 337.933 777.161 337.933 777.731 L 337.933 782.556 C 337.933 783.075 337.814 783.468 337.576 783.733 C 337.339 783.999 337.03 784.132 336.65 784.132 C 336.264 784.132 335.951 783.997 335.71 783.724 C 335.469 783.452 335.349 783.062 335.349 782.556 L 335.349 778.233 C 335.349 777.38 335.23 776.726 334.993 776.272 C 334.755 775.821 334.282 775.593 333.572 775.593 C 333.111 775.593 332.689 775.731 332.31 776.007 C 331.93 776.282 331.651 776.661 331.474 777.142 C 331.347 777.528 331.284 778.249 331.284 779.308 L 331.284 782.556 C 331.284 783.081 331.161 783.476 330.918 783.739 C 330.675 784.001 330.36 784.132 329.974 784.132 C 329.599 784.132 329.293 783.997 329.052 783.724 C 328.812 783.452 328.691 783.062 328.691 782.556 L 328.691 775.062 C 328.691 774.567 328.798 774.198 329.014 773.954 C 329.229 773.712 329.523 773.589 329.896 773.589 C 330.125 773.589 330.331 773.644 330.515 773.751 C 330.698 773.86 330.846 774.021 330.957 774.235 C 331.067 774.45 331.123 774.714 331.123 775.024 Z " fill="#000000"/><path d=" M 341.826 778.026 L 346.527 778.026 C 346.464 777.14 346.225 776.476 345.81 776.036 C 345.395 775.595 344.849 775.376 344.172 775.376 C 343.525 775.376 342.995 775.599 342.58 776.044 C 342.165 776.491 341.915 777.151 341.826 778.026 Z  M 346.897 779.499 L 341.826 779.499 C 341.833 780.087 341.95 780.606 342.182 781.056 C 342.413 781.505 342.72 781.845 343.104 782.071 C 343.485 782.3 343.909 782.413 344.371 782.413 C 344.681 782.413 344.964 782.378 345.222 782.306 C 345.477 782.231 345.726 782.118 345.967 781.962 C 346.207 781.808 346.428 781.642 346.632 781.464 C 346.834 781.286 347.097 781.044 347.42 780.741 C 347.553 780.628 347.743 780.569 347.99 780.569 C 348.256 780.569 348.471 780.644 348.636 780.79 C 348.8 780.937 348.882 781.14 348.882 781.407 C 348.882 781.642 348.791 781.913 348.607 782.228 C 348.423 782.542 348.146 782.843 347.775 783.13 C 347.405 783.419 346.94 783.657 346.38 783.847 C 345.819 784.038 345.175 784.132 344.447 784.132 C 342.782 784.132 341.487 783.657 340.562 782.708 C 339.638 781.759 339.175 780.47 339.175 778.843 C 339.175 778.075 339.29 777.364 339.517 776.71 C 339.745 776.054 340.078 775.493 340.515 775.024 C 340.952 774.556 341.49 774.196 342.129 773.946 C 342.769 773.696 343.479 773.571 344.257 773.571 C 345.27 773.571 346.138 773.784 346.863 774.212 C 347.589 774.64 348.132 775.192 348.493 775.868 C 348.854 776.546 349.035 777.237 349.035 777.938 C 349.035 778.593 348.848 779.015 348.474 779.208 C 348.101 779.401 347.575 779.499 346.897 779.499 Z " fill="#000000"/><path d=" M 352.367 778.843 C 352.367 779.546 352.476 780.144 352.694 780.638 C 352.913 781.132 353.212 781.503 353.593 781.753 C 353.972 782.003 354.387 782.13 354.836 782.13 C 355.292 782.13 355.709 782.011 356.085 781.772 C 356.462 781.536 356.763 781.171 356.987 780.681 C 357.212 780.19 357.325 779.575 357.325 778.843 C 357.325 778.151 357.212 777.558 356.987 777.06 C 356.763 776.563 356.459 776.185 356.076 775.921 C 355.692 775.659 355.273 775.528 354.817 775.528 C 354.343 775.528 353.918 775.663 353.544 775.931 C 353.171 776.2 352.881 776.585 352.675 777.089 C 352.469 777.593 352.367 778.177 352.367 778.843 Z  M 357.467 782.651 L 357.467 782.394 C 357.119 782.792 356.775 783.118 356.437 783.366 C 356.098 783.618 355.731 783.808 355.335 783.937 C 354.94 784.069 354.507 784.132 354.039 784.132 C 353.417 784.132 352.843 784.001 352.315 783.739 C 351.786 783.476 351.329 783.101 350.942 782.612 C 350.556 782.126 350.263 781.554 350.064 780.894 C 349.864 780.235 349.765 779.522 349.765 778.757 C 349.765 777.136 350.16 775.872 350.952 774.966 C 351.743 774.062 352.785 773.608 354.077 773.608 C 354.824 773.608 355.454 773.737 355.967 773.993 C 356.479 774.249 356.98 774.646 357.467 775.175 L 357.467 771.349 C 357.467 770.815 357.573 770.415 357.786 770.142 C 357.997 769.87 358.3 769.733 358.693 769.733 C 359.085 769.733 359.387 769.858 359.6 770.108 C 359.812 770.36 359.918 770.728 359.918 771.216 L 359.918 782.651 C 359.918 783.146 359.804 783.515 359.576 783.763 C 359.348 784.009 359.054 784.132 358.693 784.132 C 358.338 784.132 358.045 784.005 357.814 783.749 C 357.583 783.491 357.467 783.126 357.467 782.651 Z " fill="#000000"/><path d=" M 368.188 778.919 C 368.188 779.95 368.424 780.743 368.896 781.296 C 369.368 781.851 369.987 782.13 370.753 782.13 C 371.405 782.13 371.967 781.847 372.438 781.278 C 372.91 780.712 373.146 779.899 373.146 778.843 C 373.146 778.159 373.049 777.569 372.852 777.075 C 372.655 776.581 372.377 776.2 372.017 775.931 C 371.655 775.663 371.234 775.528 370.753 775.528 C 370.259 775.528 369.818 775.663 369.433 775.931 C 369.046 776.2 368.743 776.589 368.521 777.099 C 368.299 777.608 368.188 778.216 368.188 778.919 Z  M 368.065 771.216 L 368.065 775.175 C 368.552 774.669 369.049 774.28 369.556 774.013 C 370.063 773.743 370.69 773.608 371.437 773.608 C 372.298 773.608 373.053 773.813 373.703 774.22 C 374.351 774.63 374.854 775.222 375.212 775.997 C 375.57 776.772 375.75 777.692 375.75 778.757 C 375.75 779.542 375.649 780.261 375.45 780.917 C 375.25 781.573 374.96 782.142 374.581 782.622 C 374.201 783.103 373.74 783.476 373.199 783.739 C 372.657 784.001 372.061 784.132 371.409 784.132 C 371.009 784.132 370.634 784.085 370.283 783.989 C 369.931 783.896 369.632 783.771 369.385 783.614 C 369.139 783.46 368.928 783.3 368.754 783.136 C 368.58 782.972 368.35 782.724 368.065 782.394 L 368.065 782.651 C 368.065 783.138 367.948 783.507 367.713 783.759 C 367.48 784.009 367.182 784.132 366.821 784.132 C 366.454 784.132 366.161 784.009 365.942 783.759 C 365.724 783.507 365.615 783.138 365.615 782.651 L 365.615 771.329 C 365.615 770.804 365.721 770.405 365.932 770.138 C 366.145 769.868 366.441 769.733 366.821 769.733 C 367.22 769.733 367.527 769.862 367.742 770.118 C 367.957 770.376 368.065 770.739 368.065 771.216 Z " fill="#000000"/><path d=" M 379.111 784.456 L 379.348 783.876 L 376.157 775.841 C 375.961 775.38 375.862 775.042 375.862 774.833 C 375.862 774.612 375.919 774.407 376.033 774.218 C 376.147 774.026 376.304 773.874 376.503 773.761 C 376.703 773.646 376.91 773.589 377.125 773.589 C 377.499 773.589 377.78 773.708 377.971 773.946 C 378.162 774.183 378.329 774.522 378.474 774.966 L 380.668 781.349 L 382.749 775.413 C 382.913 774.933 383.062 774.556 383.195 774.282 C 383.328 774.011 383.468 773.827 383.617 773.733 C 383.766 773.638 383.977 773.589 384.249 773.589 C 384.446 773.589 384.634 773.642 384.814 773.747 C 384.995 773.851 385.134 773.991 385.232 774.169 C 385.33 774.347 385.38 774.532 385.38 774.729 C 385.354 774.849 385.313 775.021 385.256 775.243 C 385.198 775.464 385.129 775.69 385.047 775.917 L 381.666 784.769 C 381.374 785.548 381.089 786.157 380.811 786.601 C 380.532 787.044 380.164 787.386 379.704 787.622 C 379.245 787.86 378.626 787.979 377.847 787.979 C 377.088 787.979 376.518 787.897 376.139 787.733 C 375.757 787.567 375.568 787.267 375.568 786.829 C 375.568 786.532 375.658 786.302 375.839 786.142 C 376.019 785.979 376.287 785.897 376.641 785.897 C 376.78 785.897 376.917 785.917 377.05 785.956 C 377.214 785.993 377.356 786.013 377.477 786.013 C 377.774 786.013 378.009 785.97 378.18 785.88 C 378.351 785.792 378.504 785.638 378.641 785.419 C 378.776 785.202 378.934 784.88 379.111 784.456 Z " fill="#000000"/><path d=" M 416.673 773.813 L 417.292 773.813 L 417.292 773.036 C 417.292 772.222 417.392 771.579 417.599 771.099 C 417.802 770.62 418.154 770.272 418.646 770.054 C 419.136 769.837 419.808 769.728 420.662 769.728 C 422.181 769.728 422.935 770.095 422.935 770.841 C 422.935 771.079 422.855 771.286 422.695 771.456 C 422.541 771.626 422.351 771.712 422.136 771.712 C 422.037 771.712 421.859 771.694 421.609 771.653 C 421.373 771.62 421.158 771.597 420.986 771.597 C 420.519 771.597 420.22 771.737 420.082 772.013 C 419.955 772.288 419.886 772.681 419.886 773.196 L 419.886 773.813 L 420.519 773.813 C 421.509 773.813 422 774.11 422 774.71 C 422 775.128 421.873 775.399 421.607 775.515 C 421.345 775.628 420.984 775.685 420.519 775.685 L 419.886 775.685 L 419.886 782.556 C 419.886 783.067 419.765 783.456 419.517 783.724 C 419.275 783.997 418.962 784.13 418.574 784.13 C 418.207 784.13 417.904 783.997 417.656 783.724 C 417.412 783.456 417.292 783.067 417.292 782.556 L 417.292 775.685 L 416.578 775.685 C 416.189 775.685 415.896 775.601 415.685 775.423 C 415.476 775.253 415.371 775.024 415.371 774.745 C 415.371 774.122 415.804 773.813 416.673 773.813 Z " fill="#000000"/><path d=" M 425.164 780.388 L 425.164 782.556 C 425.164 783.079 425.031 783.476 424.789 783.735 C 424.542 784.001 424.23 784.13 423.851 784.13 C 423.47 784.13 423.164 783.999 422.925 783.729 C 422.689 783.466 422.564 783.073 422.564 782.556 L 422.564 775.333 C 422.564 774.167 422.984 773.585 423.826 773.585 C 424.259 773.585 424.568 773.72 424.759 773.993 C 424.949 774.267 425.054 774.667 425.076 775.2 C 425.384 774.667 425.701 774.267 426.025 773.993 C 426.357 773.72 426.787 773.585 427.333 773.585 C 427.882 773.585 428.406 773.72 428.919 773.993 C 429.435 774.267 429.691 774.63 429.691 775.077 C 429.691 775.392 429.58 775.657 429.365 775.858 C 429.144 776.067 428.91 776.171 428.658 776.171 C 428.558 776.171 428.328 776.108 427.966 775.991 C 427.601 775.878 427.277 775.817 427.003 775.817 C 426.623 775.817 426.31 775.921 426.072 776.116 C 425.83 776.321 425.64 776.612 425.507 777.003 C 425.378 777.397 425.289 777.868 425.234 778.407 C 425.185 778.948 425.164 779.61 425.164 780.388 Z " fill="#000000"/><path d=" M 432.009 778.021 L 436.71 778.021 C 436.648 777.136 436.414 776.472 435.998 776.034 C 435.58 775.593 435.039 775.374 434.357 775.374 C 433.71 775.374 433.179 775.595 432.765 776.044 C 432.351 776.489 432.097 777.147 432.009 778.021 Z  M 437.083 779.495 L 432.009 779.495 C 432.019 780.083 432.134 780.606 432.365 781.054 C 432.599 781.501 432.904 781.841 433.289 782.071 C 433.673 782.298 434.093 782.411 434.558 782.411 C 434.869 782.411 435.15 782.378 435.408 782.3 C 435.662 782.229 435.912 782.114 436.152 781.958 C 436.394 781.806 436.613 781.64 436.816 781.458 C 437.019 781.284 437.283 781.042 437.607 780.739 C 437.742 780.626 437.931 780.565 438.175 780.565 C 438.443 780.565 438.656 780.64 438.824 780.788 C 438.99 780.935 439.068 781.138 439.068 781.405 C 439.068 781.64 438.978 781.913 438.8 782.224 C 438.613 782.542 438.337 782.841 437.964 783.13 C 437.589 783.415 437.125 783.657 436.566 783.845 C 436.007 784.034 435.361 784.13 434.634 784.13 C 432.964 784.13 431.671 783.657 430.748 782.708 C 429.824 781.757 429.357 780.466 429.357 778.841 C 429.357 778.073 429.474 777.362 429.705 776.706 C 429.929 776.048 430.261 775.489 430.703 775.019 C 431.138 774.548 431.673 774.19 432.316 773.94 C 432.953 773.69 433.662 773.565 434.443 773.565 C 435.455 773.565 436.324 773.78 437.05 774.212 C 437.773 774.634 438.324 775.188 438.679 775.866 C 439.041 776.546 439.22 777.233 439.22 777.94 C 439.22 778.589 439.033 779.011 438.66 779.206 C 438.287 779.399 437.761 779.495 437.083 779.495 Z " fill="#000000"/><path d=" M 442.798 778.021 L 447.5 778.021 C 447.435 777.136 447.195 776.472 446.785 776.034 C 446.363 775.593 445.822 775.374 445.142 775.374 C 444.496 775.374 443.966 775.595 443.548 776.044 C 443.136 776.489 442.882 777.147 442.798 778.021 Z  M 447.871 779.495 L 442.798 779.495 C 442.804 780.083 442.923 780.606 443.152 781.054 C 443.384 781.501 443.691 781.841 444.074 782.071 C 444.457 782.298 444.878 782.411 445.345 782.411 C 445.652 782.411 445.937 782.378 446.189 782.3 C 446.449 782.229 446.695 782.114 446.939 781.958 C 447.181 781.806 447.4 781.64 447.603 781.458 C 447.802 781.284 448.068 781.042 448.392 780.739 C 448.527 780.626 448.718 780.565 448.96 780.565 C 449.228 780.565 449.443 780.64 449.611 780.788 C 449.775 780.935 449.851 781.138 449.851 781.405 C 449.851 781.64 449.763 781.913 449.578 782.224 C 449.4 782.542 449.123 782.841 448.748 783.13 C 448.376 783.415 447.908 783.657 447.351 783.845 C 446.794 784.034 446.144 784.13 445.417 784.13 C 443.75 784.13 442.458 783.657 441.531 782.708 C 440.607 781.757 440.142 780.466 440.142 778.841 C 440.142 778.073 440.257 777.362 440.49 776.706 C 440.716 776.048 441.048 775.489 441.486 775.019 C 441.921 774.548 442.458 774.19 443.099 773.94 C 443.738 773.69 444.451 773.565 445.228 773.565 C 446.238 773.565 447.107 773.78 447.841 774.212 C 448.562 774.634 449.107 775.188 449.462 775.866 C 449.822 776.546 450.007 777.233 450.007 777.94 C 450.007 778.589 449.816 779.011 449.447 779.206 C 449.072 779.399 448.546 779.495 447.871 779.495 Z " fill="#000000"/><path d=" M 458.634 778.812 C 458.634 778.126 458.529 777.538 458.32 777.048 C 458.111 776.556 457.822 776.181 457.455 775.921 C 457.087 775.657 456.671 775.524 456.222 775.524 C 455.507 775.524 454.904 775.808 454.414 776.368 C 453.921 776.935 453.673 777.763 453.673 778.86 C 453.673 779.888 453.917 780.694 454.41 781.267 C 454.896 781.841 455.496 782.126 456.222 782.126 C 456.65 782.126 457.052 781.999 457.419 781.753 C 457.791 781.501 458.083 781.126 458.302 780.626 C 458.523 780.124 458.634 779.519 458.634 778.812 Z  M 453.55 775.044 L 453.55 775.354 C 454.037 774.753 454.544 774.312 455.076 774.03 C 455.593 773.745 456.193 773.603 456.857 773.603 C 457.652 773.603 458.392 773.812 459.064 774.22 C 459.736 774.634 460.263 775.235 460.654 776.026 C 461.042 776.821 461.24 777.757 461.24 778.841 C 461.24 779.636 461.126 780.372 460.904 781.042 C 460.679 781.71 460.367 782.269 459.974 782.722 C 459.582 783.171 459.119 783.522 458.585 783.767 C 458.042 784.009 457.474 784.13 456.857 784.13 C 456.119 784.13 455.494 783.981 454.992 783.683 C 454.49 783.392 454.009 782.95 453.55 782.378 L 453.55 786.271 C 453.55 787.405 453.134 787.979 452.306 787.979 C 451.816 787.979 451.498 787.833 451.335 787.54 C 451.183 787.241 451.101 786.817 451.101 786.249 L 451.101 775.056 C 451.101 774.562 451.208 774.196 451.421 773.948 C 451.636 773.71 451.933 773.585 452.306 773.585 C 452.675 773.585 452.972 773.71 453.203 773.958 C 453.437 774.212 453.55 774.569 453.55 775.044 Z " fill="#000000"/><path d=" M 465.134 775.056 L 465.134 782.558 C 465.134 783.073 465.011 783.466 464.765 783.729 C 464.515 783.999 464.205 784.13 463.824 784.13 C 463.443 784.13 463.138 783.997 462.896 783.724 C 462.662 783.448 462.541 783.06 462.541 782.558 L 462.541 775.13 C 462.541 774.62 462.662 774.235 462.896 773.976 C 463.138 773.712 463.443 773.585 463.824 773.585 C 464.205 773.585 464.515 773.712 464.765 773.976 C 465.011 774.235 465.134 774.599 465.134 775.056 Z  M 463.851 772.378 C 463.488 772.378 463.181 772.263 462.927 772.042 C 462.667 771.819 462.541 771.511 462.541 771.106 C 462.541 770.737 462.671 770.437 462.937 770.196 C 463.199 769.962 463.503 769.841 463.851 769.841 C 464.191 769.841 464.486 769.946 464.744 770.159 C 465.003 770.378 465.134 770.694 465.134 771.106 C 465.134 771.505 465.007 771.817 464.757 772.042 C 464.503 772.263 464.203 772.378 463.851 772.378 Z " fill="#000000"/><path d=" M 473.494 782.946 L 471.21 779.181 L 469.802 780.509 L 469.802 782.575 C 469.802 783.073 469.669 783.456 469.406 783.724 C 469.148 783.997 468.839 784.13 468.5 784.13 C 468.101 784.13 467.785 783.999 467.558 783.729 C 467.332 783.466 467.214 783.073 467.214 782.556 L 467.214 771.493 C 467.214 770.919 467.33 770.481 467.546 770.179 C 467.769 769.874 468.091 769.728 468.5 769.728 C 468.898 769.728 469.212 769.864 469.449 770.138 C 469.683 770.409 469.802 770.812 469.802 771.341 L 469.802 777.634 L 472.718 774.571 C 473.08 774.194 473.351 773.931 473.544 773.792 C 473.734 773.653 473.964 773.585 474.234 773.585 C 474.56 773.585 474.828 773.688 475.05 773.894 C 475.261 774.099 475.371 774.358 475.371 774.667 C 475.371 775.046 475.017 775.556 474.316 776.188 L 472.939 777.45 L 475.597 781.634 C 475.791 781.946 475.937 782.177 476.021 782.339 C 476.105 782.499 476.152 782.659 476.152 782.802 C 476.152 783.214 476.037 783.536 475.81 783.776 C 475.585 784.013 475.287 784.13 474.925 784.13 C 474.609 784.13 474.361 784.05 474.191 783.874 C 474.021 783.702 473.785 783.392 473.494 782.946 Z " fill="#000000"/><path d=" M 479.13 784.13 C 478.738 784.13 478.402 784.005 478.117 783.749 C 477.832 783.501 477.687 783.144 477.687 782.685 C 477.687 782.3 477.826 781.966 478.097 781.69 C 478.373 781.411 478.705 781.271 479.105 781.271 C 479.503 781.271 479.841 781.411 480.128 781.683 C 480.408 781.958 480.55 782.296 480.55 782.685 C 480.55 783.138 480.408 783.493 480.128 783.745 C 479.841 784.005 479.509 784.13 479.13 784.13 Z " fill="#000000"/><path d=" M 492.029 780.921 C 492.029 781.241 491.931 781.589 491.738 781.954 C 491.546 782.325 491.25 782.673 490.851 783.005 C 490.457 783.337 489.96 783.606 489.357 783.808 C 488.755 784.011 488.076 784.114 487.326 784.114 C 485.72 784.114 484.468 783.646 483.568 782.714 C 482.673 781.778 482.222 780.524 482.222 778.954 C 482.222 777.886 482.427 776.948 482.841 776.13 C 483.25 775.315 483.845 774.683 484.623 774.235 C 485.402 773.788 486.339 773.565 487.417 773.565 C 488.091 773.565 488.705 773.663 489.269 773.86 C 489.83 774.056 490.302 774.312 490.695 774.62 C 491.082 774.935 491.38 775.263 491.583 775.612 C 491.791 775.964 491.892 776.292 491.892 776.599 C 491.892 776.907 491.779 777.171 491.548 777.386 C 491.314 777.601 491.033 777.71 490.71 777.71 C 490.492 777.71 490.312 777.653 490.169 777.544 C 490.025 777.433 489.865 777.255 489.691 777.003 C 489.373 776.524 489.044 776.161 488.695 775.923 C 488.351 775.681 487.914 775.562 487.38 775.562 C 486.619 775.562 485.998 775.858 485.527 776.458 C 485.06 777.054 484.824 777.878 484.824 778.913 C 484.824 779.401 484.886 779.853 485.007 780.261 C 485.125 780.667 485.298 781.017 485.527 781.304 C 485.757 781.591 486.031 781.81 486.353 781.958 C 486.677 782.112 487.035 782.185 487.417 782.185 C 487.939 782.185 488.384 782.063 488.753 781.823 C 489.13 781.583 489.457 781.216 489.74 780.722 C 489.898 780.431 490.068 780.204 490.25 780.038 C 490.431 779.874 490.658 779.788 490.925 779.788 C 491.242 779.788 491.505 779.911 491.71 780.151 C 491.921 780.392 492.029 780.649 492.029 780.921 Z " fill="#000000"/><path d=" M 500.615 778.86 C 500.615 777.802 500.38 776.979 499.917 776.392 C 499.455 775.796 498.828 775.503 498.042 775.503 C 497.535 775.503 497.087 775.636 496.701 775.897 C 496.314 776.159 496.019 776.546 495.81 777.062 C 495.601 777.575 495.496 778.175 495.496 778.86 C 495.496 779.538 495.597 780.128 495.804 780.634 C 496.013 781.144 496.306 781.53 496.691 781.8 C 497.076 782.065 497.525 782.204 498.042 782.204 C 498.828 782.204 499.455 781.907 499.917 781.312 C 500.38 780.722 500.615 779.901 500.615 778.86 Z  M 503.218 778.86 C 503.218 779.63 503.097 780.345 502.863 780.999 C 502.617 781.651 502.271 782.212 501.814 782.677 C 501.359 783.146 500.812 783.505 500.181 783.757 C 499.542 784.005 498.832 784.132 498.042 784.132 C 497.257 784.132 496.55 784.005 495.921 783.749 C 495.298 783.501 494.751 783.136 494.296 782.667 C 493.835 782.19 493.488 781.634 493.244 780.991 C 493.015 780.347 492.894 779.636 492.894 778.86 C 492.894 778.073 493.017 777.354 493.251 776.702 C 493.494 776.048 493.841 775.489 494.291 775.028 C 494.742 774.567 495.285 774.212 495.921 773.958 C 496.566 773.71 497.271 773.585 498.042 773.585 C 498.828 773.585 499.541 773.71 500.181 773.966 C 500.82 774.218 501.365 774.581 501.826 775.046 C 502.283 775.521 502.628 776.075 502.865 776.718 C 503.099 777.368 503.218 778.077 503.218 778.86 Z " fill="#000000"/><path d=" M 513.111 779.05 L 513.111 782.497 C 513.111 783.044 512.99 783.448 512.742 783.724 C 512.492 783.997 512.169 784.132 511.763 784.132 C 511.371 784.132 511.05 783.997 510.812 783.724 C 510.566 783.448 510.441 783.044 510.441 782.497 L 510.441 778.366 C 510.441 777.712 510.419 777.204 510.376 776.841 C 510.332 776.487 510.208 776.187 510.015 775.958 C 509.818 775.724 509.505 775.606 509.083 775.606 C 508.234 775.606 507.677 775.897 507.408 776.487 C 507.14 777.063 507.001 777.901 507.001 778.995 L 507.001 782.497 C 507.001 783.034 506.878 783.442 506.64 783.72 C 506.39 783.993 506.072 784.132 505.675 784.132 C 505.279 784.132 504.958 783.993 504.708 783.72 C 504.457 783.442 504.332 783.034 504.332 782.497 L 504.332 775.077 C 504.332 774.589 504.443 774.218 504.667 773.966 C 504.896 773.71 505.193 773.585 505.556 773.585 C 505.914 773.585 506.208 773.708 506.449 773.94 C 506.685 774.179 506.802 774.507 506.802 774.925 L 506.802 775.169 C 507.255 774.634 507.738 774.237 508.248 773.989 C 508.763 773.729 509.33 773.603 509.96 773.603 C 510.611 773.603 511.171 773.733 511.638 773.993 C 512.107 774.253 512.492 774.647 512.798 775.169 C 513.238 774.642 513.707 774.247 514.208 773.989 C 514.708 773.731 515.261 773.603 515.871 773.603 C 516.576 773.603 517.191 773.745 517.705 774.022 C 518.214 774.3 518.597 774.702 518.851 775.218 C 519.072 775.69 519.181 776.427 519.181 777.435 L 519.181 782.497 C 519.181 783.044 519.06 783.448 518.814 783.724 C 518.568 783.997 518.24 784.132 517.835 784.132 C 517.441 784.132 517.121 783.993 516.871 783.72 C 516.621 783.442 516.494 783.034 516.494 782.497 L 516.494 778.136 C 516.494 777.577 516.47 777.132 516.425 776.798 C 516.378 776.46 516.248 776.177 516.042 775.95 C 515.83 775.724 515.511 775.606 515.089 775.606 C 514.748 775.606 514.423 775.714 514.115 775.915 C 513.808 776.112 513.568 776.392 513.394 776.728 C 513.208 777.165 513.111 777.94 513.111 779.05 Z " fill="#000000"/><path d=" M 392.406 778.231 C 392.404 778.228 392.404 778.222 392.404 778.214 C 392.404 778.222 392.404 778.228 392.406 778.231 Z " fill="#000000"/><path d=" M 392.537 779.062 C 392.539 779.062 392.539 779.062 392.54 779.062 C 392.49 778.825 392.451 778.591 392.421 778.358 C 392.451 778.593 392.49 778.827 392.537 779.062 Z " fill="#000000"/><path d=" M 393.395 781.468 C 393.389 781.458 393.384 781.446 393.378 781.435 C 393.384 781.446 393.389 781.458 393.395 781.468 Z " fill="#000000"/><path d=" M 393.313 781.308 C 393.291 781.263 393.269 781.218 393.248 781.173 C 393.269 781.22 393.291 781.263 393.313 781.308 Z " fill="#000000"/><path d=" M 392.778 779.987 C 392.905 780.388 393.058 780.776 393.235 781.146 C 393.055 780.769 392.905 780.38 392.781 779.987 C 392.78 779.987 392.779 779.987 392.778 779.987 Z " fill="#000000"/><path d=" M 402.444 768.296 C 402.944 768.296 403.315 768.335 403.738 768.407 L 403.859 767.644 C 403.859 767.644 402.688 767.284 401.148 767.409 L 401.027 766.995 C 401.505 766.894 401.865 766.468 401.865 765.96 C 401.865 765.378 401.391 764.907 400.808 764.907 C 400.225 764.907 399.752 765.378 399.752 765.96 C 399.752 766.468 400.11 766.894 400.588 766.995 L 400.722 767.458 C 399.087 767.683 397.787 768.319 397.787 768.319 L 398.017 769.024 C 399.006 768.696 399.863 768.495 400.641 768.411 C 401.403 768.331 401.976 768.296 402.444 768.296 Z " fill="#000000"/><path d=" M 393.375 772.153 L 393.381 772.146 C 393.42 772.097 393.457 772.05 393.495 772.003 L 393.182 771.778 L 392.694 771.421 C 392.667 771.46 391.899 772.165 391.292 773.47 C 391.267 773.429 391.237 773.388 391.203 773.351 C 391.021 773.151 390.767 773.05 390.444 773.056 C 390.44 773.056 390.435 773.056 390.43 773.056 C 390.23 773.056 390.093 772.989 390.003 772.909 C 390.092 772.796 390.146 772.653 390.146 772.495 C 390.146 772.128 389.846 771.827 389.477 771.827 C 389.108 771.827 388.808 772.128 388.808 772.495 C 388.808 772.866 389.108 773.165 389.477 773.165 C 389.535 773.165 389.59 773.155 389.644 773.144 C 389.808 773.327 390.069 773.485 390.451 773.478 C 390.648 773.476 390.792 773.526 390.889 773.634 C 391 773.755 391.037 773.929 391.048 774.062 C 391.047 774.063 391.047 774.065 391.045 774.065 C 390.61 775.255 390.734 776.735 390.734 776.735 L 391.792 776.778 C 391.813 776.239 391.89 775.296 392.163 774.548 C 392.689 773.099 393.349 772.192 393.375 772.153 Z " fill="#000000"/><path d=" M 411.642 769.179 C 411.275 769.179 410.974 769.478 410.974 769.849 C 410.974 769.905 410.982 769.96 410.998 770.013 C 410.814 770.179 410.654 770.44 410.66 770.823 C 410.664 771.021 410.613 771.163 410.505 771.261 C 410.421 771.335 410.314 771.376 410.21 771.401 C 409.423 770.298 408.455 769.626 408.455 769.626 L 407.695 770.438 C 408.269 770.96 408.855 771.614 409.423 772.429 C 409.818 772.993 410.222 773.72 410.56 774.444 L 411.583 773.958 C 411.583 773.958 411.117 772.802 410.458 771.767 C 410.572 771.726 410.687 771.663 410.789 771.573 C 410.99 771.394 411.087 771.138 411.082 770.815 C 411.08 770.608 411.148 770.468 411.23 770.374 C 411.345 770.462 411.488 770.517 411.642 770.517 C 412.013 770.517 412.312 770.218 412.312 769.849 C 412.312 769.478 412.013 769.179 411.642 769.179 Z " fill="#000000"/><path d=" M 408.986 778.382 C 407.576 779.067 405.257 779.976 402.204 780.401 C 401.006 780.567 399.845 780.628 398.776 780.628 C 397.385 780.628 396.156 780.524 395.213 780.405 C 394.137 780.271 393.296 780.104 392.781 779.987 C 392.905 780.38 393.055 780.769 393.235 781.146 C 393.238 781.155 393.243 781.167 393.248 781.173 C 393.269 781.218 393.291 781.263 393.313 781.308 C 393.334 781.351 393.356 781.394 393.378 781.435 C 393.384 781.446 393.389 781.458 393.395 781.468 C 393.698 782.038 394.062 782.562 394.476 783.017 C 395.916 784.591 397.383 784.841 397.396 784.843 L 397.419 784.845 L 397.441 784.853 C 397.454 784.858 398.755 785.278 400.732 785.278 C 402.678 785.278 404.587 784.886 406.406 784.11 C 407.753 783.421 409.029 782.374 409.66 781.44 C 410.148 780.718 410.501 779.948 410.71 779.147 C 410.822 778.722 410.91 778.04 410.857 777.321 C 410.46 777.589 409.833 777.968 408.986 778.382 Z " fill="#000000"/><path d=" M 397.856 771.751 C 399.413 771.751 400.673 773.013 400.673 774.569 C 400.673 776.124 399.413 777.384 397.856 777.384 C 396.301 777.384 395.04 776.124 395.04 774.569 C 395.04 773.013 396.301 771.751 397.856 771.751 Z  M 406.097 771.821 C 407.058 771.821 407.841 772.603 407.841 773.563 C 407.841 774.526 407.058 775.308 406.097 775.308 C 405.136 775.308 404.355 774.526 404.355 773.563 C 404.355 772.603 405.136 771.821 406.097 771.821 Z  M 393.828 772.487 C 393.787 772.548 393.176 773.413 392.693 774.741 C 392.331 775.735 392.347 777.185 392.347 777.2 L 392.347 777.204 C 392.347 777.544 392.366 777.88 392.404 778.214 C 392.404 778.222 392.404 778.228 392.406 778.231 C 392.41 778.274 392.417 778.315 392.421 778.358 C 392.451 778.591 392.49 778.825 392.54 779.062 C 393.24 779.239 397.418 780.214 402.088 779.563 C 405.015 779.155 407.238 778.29 408.587 777.636 C 409.708 777.093 410.429 776.601 410.707 776.397 C 410.429 775.37 409.666 773.757 408.964 772.751 C 406.958 769.886 404.796 769.151 403.687 768.968 C 403.262 768.899 402.924 768.858 402.444 768.858 C 401.997 768.858 401.442 768.896 400.7 768.974 C 399.957 769.05 399.128 769.245 398.168 769.569 C 396.82 770.021 395.601 770.728 394.641 771.616 L 394.608 771.647 C 394.466 771.778 394.169 772.054 393.828 772.487 Z " fill="#000000"/></g></g></svg>