<?xml version="1.0" encoding="UTF-8" standalone="no"?><!-- Generator: Gravit.io --><svg xmlns="http://www.w3.org/2000/svg" xmlns:xlink="http://www.w3.org/1999/xlink" style="isolation:isolate" viewBox="49.778 10.09 40.093 21.033" width="40.093pt" height="21.033pt"><path d=" M 86.253 21.943 C 86.548 21.471 86.718 20.915 86.718 20.317 C 86.718 18.621 85.343 17.245 83.647 17.245 C 82.85 17.245 82.124 17.549 81.578 18.046 C 80.814 16.802 79.441 15.972 77.874 15.972 C 77.003 15.972 76.192 16.229 75.512 16.671 C 75.107 12.97 71.972 10.09 68.165 10.09 C 65.51 10.09 63.182 11.491 61.879 13.592 C 61.296 13.301 60.638 13.138 59.943 13.138 C 57.543 13.138 55.598 15.084 55.598 17.483 C 55.598 18.213 55.779 18.901 56.097 19.505 C 55.932 19.492 55.766 19.484 55.598 19.484 C 52.384 19.484 49.778 22.09 49.778 25.304 C 49.778 28.518 52.384 31.124 55.598 31.124 C 58.813 31.124 82.655 31.124 85.222 31.124 C 87.79 31.124 89.871 29.043 89.871 26.476 C 89.871 24.263 88.324 22.412 86.253 21.943 Z " fill="rgb(254,254,254)"/></svg>