<?xml version="1.0" encoding="UTF-8" standalone="no"?><!-- Generator: Gravit.io --><svg xmlns="http://www.w3.org/2000/svg" xmlns:xlink="http://www.w3.org/1999/xlink" style="isolation:isolate" viewBox="98.138 109.33 37.659 24.579" width="37.659pt" height="24.579pt"><path d=" M 131.818 116.056 C 131.35 116.056 130.901 116.137 130.484 116.286 C 130.493 116.166 130.499 116.044 130.499 115.921 C 130.499 113.244 128.328 111.073 125.651 111.073 C 124.187 111.073 122.875 111.722 121.986 112.749 C 120.694 110.695 118.409 109.33 115.804 109.33 C 112.65 109.33 109.964 111.33 108.943 114.131 C 108.373 113.909 107.754 113.786 107.106 113.786 C 104.305 113.786 102.034 116.057 102.034 118.859 C 102.034 119.048 102.045 119.235 102.065 119.419 C 102.055 119.419 102.045 119.418 102.034 119.418 C 99.882 119.418 98.138 121.162 98.138 123.314 C 98.138 125.465 99.882 127.21 102.034 127.21 C 103.049 127.21 103.973 126.821 104.667 126.185 C 104.665 126.236 104.663 126.288 104.663 126.339 C 104.663 129.417 107.157 131.911 110.234 131.911 C 112.235 131.911 113.989 130.854 114.971 129.27 C 116.345 132.02 119.187 133.909 122.47 133.909 C 127.098 133.909 130.849 130.158 130.849 125.53 C 130.849 124.954 130.791 124.391 130.681 123.848 C 131.041 123.956 131.423 124.014 131.818 124.014 C 134.015 124.014 135.797 122.233 135.797 120.035 C 135.797 117.838 134.015 116.056 131.818 116.056 Z " fill="rgb(254,254,254)"/></svg>