<?xml version="1.0" encoding="UTF-8" standalone="no"?><!-- Generator: Gravit.io --><svg xmlns="http://www.w3.org/2000/svg" xmlns:xlink="http://www.w3.org/1999/xlink" style="isolation:isolate" viewBox="6.706 113.053 35.626 17.148" width="35.626pt" height="17.148pt"><path d=" M 41.027 123.99 C 41.043 123.872 41.052 123.752 41.052 123.63 C 41.052 122.389 40.193 121.351 39.038 121.076 C 39.137 120.855 39.192 120.611 39.192 120.354 C 39.192 119.378 38.401 118.586 37.424 118.586 C 36.981 118.586 36.577 118.749 36.267 119.017 C 35.397 118.014 34.113 117.38 32.681 117.38 C 31.66 117.38 30.715 117.702 29.941 118.251 C 29.978 118.021 29.997 117.785 29.997 117.545 C 29.997 115.064 27.986 113.053 25.505 113.053 C 23.891 113.053 22.476 113.904 21.684 115.182 C 21.098 114.258 20.067 113.644 18.891 113.644 C 18.289 113.644 17.724 113.806 17.238 114.089 C 16.751 113.806 16.187 113.644 15.584 113.644 C 13.758 113.644 12.278 115.126 12.278 116.952 C 12.278 117.255 12.319 117.548 12.395 117.826 C 10.77 118.446 9.615 120.018 9.615 121.861 C 9.615 121.953 9.618 122.044 9.624 122.134 C 9.541 122.127 9.457 122.122 9.373 122.122 C 7.9 122.122 6.706 123.316 6.706 124.789 C 6.706 126.262 7.9 127.456 9.373 127.456 C 9.81 127.456 10.223 127.35 10.588 127.164 C 11.156 128.372 12.384 129.208 13.808 129.208 C 14.609 129.208 15.347 128.944 15.942 128.498 C 17.072 129.553 18.59 130.201 20.259 130.201 C 21.967 130.201 23.516 129.524 24.654 128.425 C 25.299 129.337 26.36 129.931 27.56 129.931 C 29.45 129.931 30.995 128.459 31.112 126.598 C 31.603 126.77 32.131 126.865 32.681 126.865 C 34.135 126.865 35.436 126.21 36.306 125.179 C 36.784 125.832 37.555 126.256 38.426 126.256 C 38.92 126.256 39.382 126.119 39.777 125.881 C 39.988 126.343 40.453 126.665 40.994 126.665 C 41.733 126.665 42.332 126.065 42.332 125.327 C 42.332 124.599 41.751 124.007 41.027 123.99 Z " fill="rgb(254,254,254)"/></svg>