<?xml version="1.0" encoding="UTF-8" standalone="no"?><!-- Generator: Gravit.io --><svg xmlns="http://www.w3.org/2000/svg" xmlns:xlink="http://www.w3.org/1999/xlink" style="isolation:isolate" viewBox="5.833 10.09 37.372 21.033" width="37.372pt" height="21.033pt"><path d=" M 39.019 22.753 C 38.909 22.753 38.801 22.758 38.693 22.766 C 38.693 22.733 38.694 22.699 38.694 22.666 C 38.694 19.392 36.259 16.689 33.103 16.264 C 33.103 16.246 33.106 16.226 33.106 16.207 C 33.106 15.466 32.505 14.867 31.765 14.867 C 31.581 14.867 31.405 14.904 31.245 14.971 C 29.755 12.073 26.735 10.09 23.252 10.09 C 19.135 10.09 15.666 12.86 14.604 16.637 C 14.277 16.536 13.929 16.481 13.569 16.481 C 11.644 16.481 10.084 18.042 10.084 19.967 C 10.084 20.554 10.23 21.108 10.486 21.593 C 7.906 21.654 5.833 23.762 5.833 26.357 C 5.833 28.99 7.967 31.124 10.599 31.124 C 13.232 31.124 37.239 31.124 39.019 31.124 C 41.331 31.124 43.205 29.25 43.205 26.938 C 43.205 24.627 41.331 22.753 39.019 22.753 Z " fill="rgb(254,254,254)"/></svg>