<?xml version="1.0" encoding="UTF-8" standalone="no"?><!-- Generator: Gravit.io --><svg xmlns="http://www.w3.org/2000/svg" xmlns:xlink="http://www.w3.org/1999/xlink" style="isolation:isolate" viewBox="26.64 202.413 235.578 105.601" width="235.578pt" height="105.601pt"><path d=" M 261.502 308.014 C 261.966 306.317 262.218 304.534 262.218 302.691 C 262.218 293.51 256.076 285.766 247.678 283.331 C 249.192 280.295 250.049 276.874 250.049 273.25 C 250.049 262.908 243.105 254.194 233.626 251.502 C 233.854 249.975 233.975 248.413 233.975 246.822 C 233.975 229.443 219.886 215.354 202.506 215.354 C 195.086 215.354 188.271 217.929 182.892 222.225 C 178.792 215.88 171.663 211.677 163.546 211.677 C 158.408 211.677 153.663 213.361 149.833 216.206 C 144.722 207.93 135.572 202.413 125.131 202.413 C 109.741 202.413 97.158 214.395 96.183 229.537 C 91.632 227.183 86.471 225.844 80.994 225.844 C 62.712 225.844 47.891 240.665 47.891 258.946 C 47.891 264.071 49.056 268.923 51.135 273.253 C 51.098 273.253 51.061 273.25 51.024 273.25 C 37.557 273.25 26.64 284.168 26.64 297.635 C 26.64 301.347 27.473 304.863 28.957 308.014 L 261.502 308.014 Z " fill="rgb(254,254,254)"/></svg>