<?xml version="1.0" encoding="UTF-8" standalone="no"?><!-- Generator: Gravit.io --><svg xmlns="http://www.w3.org/2000/svg" xmlns:xlink="http://www.w3.org/1999/xlink" style="isolation:isolate" viewBox="233.901 512.138 243.416 82.25" width="243.416pt" height="82.25pt"><path d=" M 476.735 594.388 C 477.11 592.759 477.317 591.064 477.317 589.323 C 477.317 576.947 467.286 566.915 454.907 566.915 C 454.495 566.915 454.085 566.927 453.677 566.949 C 452.188 555.771 442.622 547.142 431.034 547.142 C 428.128 547.142 425.351 547.691 422.792 548.682 C 422.149 537.934 413.233 529.421 402.329 529.421 C 400.312 529.421 398.366 529.717 396.526 530.259 C 390.566 519.457 379.07 512.138 365.861 512.138 C 346.585 512.138 330.954 527.717 330.86 546.971 C 323.975 539.939 314.38 535.571 303.761 535.571 C 283.388 535.571 266.772 551.63 265.871 571.782 C 263.382 570.91 260.707 570.43 257.919 570.43 C 244.673 570.43 233.935 581.147 233.901 594.388 L 476.735 594.388 Z " fill="rgb(254,254,254)"/></svg>