<?xml version="1.0" encoding="UTF-8" standalone="no"?><!-- Generator: Gravit.io --><svg xmlns="http://www.w3.org/2000/svg" xmlns:xlink="http://www.w3.org/1999/xlink" style="isolation:isolate" viewBox="576.577 233.119 181.413 71.487" width="181.413pt" height="71.487pt"><path d=" M 578.906 304.606 L 754.94 304.606 C 756.856 301.891 757.99 298.585 757.99 295.008 C 757.99 285.786 750.513 278.309 741.29 278.309 C 739.804 278.309 738.371 278.521 736.999 278.886 C 736.271 261.265 721.761 247.2 703.959 247.2 C 695.424 247.2 687.646 250.435 681.778 255.742 C 677.186 242.572 664.664 233.119 649.93 233.119 C 632.682 233.119 618.468 246.068 616.454 262.772 C 613.262 261.597 609.812 260.954 606.211 260.954 C 589.845 260.954 576.577 274.22 576.577 290.589 C 576.577 295.52 577.788 300.164 579.918 304.254 C 579.574 304.358 579.243 304.487 578.906 304.606 Z " fill="rgb(254,254,254)"/></svg>