<?xml version="1.0" encoding="UTF-8" standalone="no"?><!-- Generator: Gravit.io --><svg xmlns="http://www.w3.org/2000/svg" xmlns:xlink="http://www.w3.org/1999/xlink" style="isolation:isolate" viewBox="234.309 641.861 223.675 113.44" width="223.675pt" height="113.44pt"><path d=" M 234.309 755.301 L 457.349 755.301 C 457.765 753.309 457.984 751.246 457.984 749.131 C 457.984 732.514 444.515 719.043 427.896 719.043 C 422.646 719.043 417.713 720.391 413.416 722.754 C 414.041 720.237 414.379 717.608 414.379 714.898 C 414.379 696.958 399.833 682.414 381.891 682.414 C 381.356 682.414 380.826 682.429 380.298 682.454 C 379.075 659.829 360.346 641.861 337.413 641.861 C 313.692 641.861 294.463 661.09 294.463 684.811 C 294.463 685.036 294.477 685.26 294.48 685.484 C 292.29 685.044 290.023 684.811 287.703 684.811 C 268.798 684.811 253.473 700.136 253.473 719.043 C 253.473 722.577 254.009 725.985 255.004 729.193 C 243.382 732.359 234.758 742.786 234.309 755.301 Z " fill="rgb(254,254,254)"/></svg>