<?xml version="1.0" encoding="UTF-8" standalone="no"?><!-- Generator: Gravit.io --><svg xmlns="http://www.w3.org/2000/svg" xmlns:xlink="http://www.w3.org/1999/xlink" style="isolation:isolate" viewBox="477.317 641.322 305.272 114.517" width="305.272pt" height="114.517pt"><path d=" M 782.589 755.839 C 781.128 744.851 771.724 736.37 760.337 736.37 C 757.444 736.37 754.681 736.923 752.142 737.92 C 754.104 733.563 755.206 728.733 755.206 723.643 C 755.206 704.424 739.628 688.844 720.411 688.844 C 718.647 688.844 716.915 688.977 715.222 689.23 C 715.224 689.102 715.231 688.974 715.231 688.844 C 715.231 662.597 693.956 641.322 667.708 641.322 C 649.026 641.322 632.87 652.104 625.104 667.78 C 621.026 666.319 616.634 665.519 612.052 665.519 C 593.144 665.519 577.413 679.076 574.021 696.998 C 569.407 694.938 564.302 693.784 558.923 693.784 C 545.544 693.784 533.823 700.873 527.302 711.496 C 526.167 711.24 524.99 711.094 523.778 711.094 C 517.345 711.094 511.813 714.905 509.278 720.384 C 507.403 719.957 505.455 719.724 503.451 719.724 C 489.019 719.724 477.317 731.425 477.317 745.856 C 477.317 749.394 478.024 752.764 479.297 755.839 L 782.589 755.839 Z " fill="rgb(254,254,254)"/></svg>