<?xml version="1.0" encoding="UTF-8" standalone="no"?><!-- Generator: Gravit.io --><svg xmlns="http://www.w3.org/2000/svg" xmlns:xlink="http://www.w3.org/1999/xlink" style="isolation:isolate" viewBox="25.935 349.91 208.375 104.738" width="208.375pt" height="104.738pt"><path d=" M 25.935 454.648 L 234.31 454.648 C 233.581 439.313 220.918 427.099 205.398 427.099 C 203.756 427.099 202.149 427.242 200.582 427.505 C 202.083 423.71 202.917 419.577 202.917 415.248 C 202.917 396.826 187.981 381.888 169.56 381.888 C 169.039 381.888 168.522 381.903 168.008 381.927 C 162.554 363.42 145.447 349.91 125.173 349.91 C 106.302 349.91 90.178 361.617 83.637 378.162 C 82.606 378.083 81.567 378.03 80.516 378.03 C 58.285 378.03 40.264 396.051 40.264 418.278 C 40.264 423.956 41.445 429.356 43.568 434.255 C 34.645 437.482 27.864 445.184 25.935 454.648 Z " fill="rgb(254,254,254)"/></svg>