<?xml version="1.0" encoding="UTF-8" standalone="no"?><!-- Generator: Gravit.io --><svg xmlns="http://www.w3.org/2000/svg" xmlns:xlink="http://www.w3.org/1999/xlink" style="isolation:isolate" viewBox="566.67 63.484 201.227 87.781" width="201.227pt" height="87.781pt"><path d=" M 764.695 151.265 C 766.754 146.229 767.897 140.72 767.897 134.942 C 767.897 111.093 748.562 91.76 724.715 91.76 C 723.021 91.76 721.352 91.868 719.708 92.058 C 711.538 75.149 694.227 63.484 674.188 63.484 C 654.895 63.484 638.132 74.303 629.62 90.2 C 624.311 87.46 618.29 85.903 611.902 85.903 C 590.531 85.903 573.205 103.228 573.205 124.601 C 573.205 127.204 573.466 129.746 573.957 132.205 C 569.5 135.999 566.67 141.646 566.67 147.956 C 566.67 149.082 566.764 150.188 566.938 151.265 L 764.695 151.265 Z " fill="rgb(254,254,254)"/></svg>