<?xml version="1.0" encoding="UTF-8" standalone="no"?><!-- Generator: Gravit.io --><svg xmlns="http://www.w3.org/2000/svg" xmlns:xlink="http://www.w3.org/1999/xlink" style="isolation:isolate" viewBox="99.423 10.507 35.09 20.199" width="35.09pt" height="20.199pt"><path d=" M 133.924 27.613 C 134.179 27.171 134.325 26.658 134.325 26.11 C 134.325 24.445 132.976 23.094 131.31 23.094 C 131.011 23.094 130.722 23.139 130.449 23.22 C 130.486 22.952 130.505 22.677 130.505 22.399 C 130.505 20.047 129.158 18.009 127.194 17.015 C 127.464 16.43 127.615 15.78 127.615 15.093 C 127.615 12.561 125.562 10.507 123.029 10.507 C 121.182 10.507 119.59 11.6 118.864 13.173 C 118.23 12.54 117.354 12.147 116.387 12.147 C 114.785 12.147 113.435 13.224 113.019 14.693 C 112.586 14.609 112.139 14.564 111.681 14.564 C 107.832 14.564 104.712 17.684 104.712 21.534 C 104.712 22.044 104.767 22.541 104.871 23.019 C 104.679 22.982 104.482 22.963 104.279 22.963 C 102.577 22.963 101.198 24.341 101.198 26.044 C 101.198 26.441 101.274 26.821 101.411 27.171 C 101.341 27.162 101.27 27.157 101.198 27.157 C 100.217 27.157 99.423 27.952 99.423 28.932 C 99.423 29.913 100.217 30.707 101.198 30.707 C 102.178 30.707 131.815 30.707 132.737 30.707 C 133.717 30.707 134.512 29.913 134.512 28.932 C 134.512 28.408 134.285 27.937 133.924 27.613 Z " fill="rgb(254,254,254)"/></svg>