<?xml version="1.0" encoding="UTF-8" standalone="no"?><!-- Generator: Gravit.io --><svg xmlns="http://www.w3.org/2000/svg" xmlns:xlink="http://www.w3.org/1999/xlink" style="isolation:isolate" viewBox="254.23 369.518 251.483 85.13" width="251.483pt" height="85.13pt"><path d=" M 505.604 454.648 C 505.668 453.713 505.713 452.771 505.713 451.819 C 505.713 429.492 487.615 411.395 465.289 411.395 C 463.745 411.395 462.223 411.489 460.724 411.658 C 456.752 387.751 435.985 369.518 410.951 369.518 C 388.26 369.518 369.071 384.491 362.718 405.095 C 358.065 402.928 352.882 401.711 347.411 401.711 C 333.28 401.711 321.045 409.786 315.043 421.57 C 312.742 420.558 310.204 419.986 307.528 419.986 C 300.151 419.986 293.792 424.27 290.749 430.474 C 288.081 429.636 285.242 429.183 282.297 429.183 C 267.645 429.183 255.606 440.359 254.23 454.648 L 505.604 454.648 Z " fill="rgb(254,254,254)"/></svg>