<?xml version="1.0" encoding="UTF-8" standalone="no"?><!-- Generator: Gravit.io --><svg xmlns="http://www.w3.org/2000/svg" xmlns:xlink="http://www.w3.org/1999/xlink" style="isolation:isolate" viewBox="297.636 203.184 255.341 104.058" width="255.341pt" height="104.058pt"><path d=" M 552.977 307.242 C 550.864 293.961 540.666 283.372 527.581 280.698 C 528.65 277.441 529.236 273.965 529.236 270.351 C 529.236 252.037 514.391 237.191 496.078 237.191 C 491.037 237.191 486.262 238.322 481.982 240.335 C 476.887 219.028 457.73 203.184 434.862 203.184 C 411.729 203.184 392.395 219.396 387.569 241.076 C 383.704 239.453 379.46 238.555 375.005 238.555 C 357.068 238.555 342.527 253.094 342.527 271.032 C 342.527 273.674 342.851 276.239 343.446 278.698 C 339.161 276.52 334.315 275.284 329.179 275.284 C 311.758 275.284 297.636 289.405 297.636 306.825 C 297.636 306.965 297.645 307.103 297.647 307.242 L 552.977 307.242 Z " fill="rgb(254,254,254)"/></svg>