<?xml version="1.0" encoding="UTF-8" standalone="no"?><!-- Generator: Gravit.io --><svg xmlns="http://www.w3.org/2000/svg" xmlns:xlink="http://www.w3.org/1999/xlink" style="isolation:isolate" viewBox="25.935 512.247 186.249 77.757" width="186.249pt" height="77.757pt"><path d=" M 25.935 590.004 L 212.165 590.004 C 212.173 589.738 212.184 589.473 212.184 589.203 C 212.184 576.183 201.628 565.625 188.606 565.625 C 185.694 565.625 182.908 566.156 180.333 567.122 C 180.661 565.508 180.833 563.838 180.833 562.127 C 180.833 548.316 169.637 537.122 155.827 537.122 C 154.413 537.122 153.028 537.245 151.679 537.471 C 149.365 523.169 136.967 512.247 122.012 512.247 C 110.229 512.247 100.035 519.03 95.108 528.905 C 92.202 527.212 88.825 526.238 85.22 526.238 C 74.343 526.238 65.527 535.057 65.527 545.934 C 65.527 546.001 65.531 546.067 65.532 546.137 C 64.598 546.006 63.647 545.934 62.677 545.934 C 51.372 545.934 42.206 555.098 42.206 566.402 C 42.206 569.32 42.821 572.094 43.922 574.606 C 35.306 575.683 28.273 581.851 25.935 590.004 Z " fill="rgb(254,254,254)"/></svg>