<?xml version="1.0" encoding="UTF-8" standalone="no"?><!-- Generator: Gravit.io --><svg xmlns="http://www.w3.org/2000/svg" xmlns:xlink="http://www.w3.org/1999/xlink" style="isolation:isolate" viewBox="317.715 57.618 215.181 99.513" width="215.181pt" height="99.513pt"><path d=" M 532.856 157.131 C 532.879 156.612 532.896 156.092 532.896 155.567 C 532.896 136.517 518.242 120.913 499.592 119.352 C 498.106 98.845 481.04 82.657 460.153 82.657 C 455.336 82.657 450.738 83.561 446.468 85.137 C 440.309 69.057 424.772 57.618 406.526 57.618 C 383.66 57.618 365.035 75.565 363.842 98.136 C 362.359 97.977 360.856 97.882 359.33 97.882 C 336.348 97.882 317.715 116.513 317.715 139.497 C 317.715 145.803 319.125 151.776 321.634 157.131 L 532.856 157.131 Z " fill="rgb(254,254,254)"/></svg>