<?xml version="1.0" encoding="UTF-8" standalone="no"?><!-- Generator: Gravit.io --><svg xmlns="http://www.w3.org/2000/svg" xmlns:xlink="http://www.w3.org/1999/xlink" style="isolation:isolate" viewBox="43.624 44.161 240.494 111.47" width="240.494pt" height="111.47pt"><path d=" M 278.002 155.631 C 281.885 148.9 284.117 141.099 284.117 132.771 C 284.117 107.457 263.597 86.937 238.283 86.937 C 236.977 86.937 235.687 87.005 234.409 87.111 C 231.154 62.863 210.398 44.161 185.258 44.161 C 169.48 44.161 155.434 51.536 146.348 63.018 C 139.026 57.934 130.14 54.946 120.551 54.946 C 99.324 54.946 81.514 69.55 76.605 89.258 C 57.466 95.456 43.624 113.418 43.624 134.62 C 43.624 142.162 45.381 149.291 48.499 155.631 L 278.002 155.631 Z " fill="rgb(254,254,254)"/></svg>