<?xml version="1.0" encoding="UTF-8" standalone="no"?><!-- Generator: Gravit.io --><svg xmlns="http://www.w3.org/2000/svg" xmlns:xlink="http://www.w3.org/1999/xlink" style="isolation:isolate" viewBox="519.13 488.243 248.767 106.145" width="248.767pt" height="106.145pt"><path d=" M 519.227 594.388 L 764.847 594.388 C 766.797 590.46 767.897 586.035 767.897 581.352 C 767.897 565.132 754.75 551.983 738.531 551.983 C 738.482 551.983 738.434 551.987 738.385 551.987 C 738.66 549.014 738.534 545.953 737.94 542.872 C 734.561 525.327 717.599 513.848 700.054 517.227 C 698.209 517.582 696.435 518.097 694.733 518.737 C 689.379 501.309 671.638 490.354 653.326 493.881 C 646.117 495.27 639.828 498.715 634.938 503.484 C 624.124 491.857 607.75 485.887 591.009 489.111 C 570.527 493.057 555.668 509.574 552.86 529.122 C 535.819 532.741 524.739 549.352 528.049 566.535 C 528.299 567.83 528.632 569.087 529.024 570.313 C 522.286 576.186 518.458 585.052 519.227 594.388 Z " fill="rgb(254,254,254)"/></svg>