<?xml version="1.0" encoding="UTF-8" standalone="no"?><!-- Generator: Gravit.io --><svg xmlns="http://www.w3.org/2000/svg" xmlns:xlink="http://www.w3.org/1999/xlink" style="isolation:isolate" viewBox="487.246 189.374 262.666 128" width="262.666pt" height="128pt"><path d=" M 581.626 257.116 C 581.63 257.12 581.635 257.123 581.639 257.126 C 581.631 257.131 581.625 257.137 581.619 257.143 C 581.621 257.134 581.623 257.125 581.626 257.116 Z  M 730.906 249.956 C 730.906 249.873 730.912 249.791 730.912 249.708 C 730.912 232.771 717.183 219.04 700.246 219.04 C 695.699 219.04 691.387 220.038 687.506 221.813 C 684.699 209.268 673.506 199.89 660.115 199.89 C 651.82 199.89 644.367 203.49 639.228 209.21 C 632.742 197.39 620.182 189.374 605.746 189.374 C 586.732 189.374 570.972 203.279 568.064 221.473 C 563.232 218.457 557.527 216.708 551.412 216.708 C 534.016 216.708 519.912 230.812 519.912 248.208 C 519.912 249.639 520.017 251.045 520.201 252.425 C 518.226 251.961 516.169 251.708 514.052 251.708 C 499.247 251.708 487.246 263.708 487.246 278.513 C 487.246 293.317 499.247 305.319 514.052 305.319 C 520.263 305.319 525.975 303.201 530.52 299.656 C 535.54 308.539 545.064 314.54 555.996 314.54 C 565.045 314.54 573.133 310.43 578.498 303.976 C 584.404 310.368 592.855 314.374 602.246 314.374 C 610.619 314.374 618.25 311.19 623.992 305.968 C 631.363 312.392 640.992 316.29 651.537 316.29 C 659.981 316.29 667.837 313.787 674.42 309.495 C 680.158 314.403 687.603 317.374 695.746 317.374 C 710.458 317.374 722.909 307.697 727.084 294.361 C 727.249 294.365 727.413 294.374 727.579 294.374 C 739.913 294.374 749.912 284.374 749.912 272.04 C 749.912 260.837 741.662 251.563 730.906 249.956 Z " fill="rgb(254,254,254)"/></svg>