<?xml version="1.0" encoding="UTF-8" standalone="no"?><!-- Generator: Gravit.io --><svg xmlns="http://www.w3.org/2000/svg" xmlns:xlink="http://www.w3.org/1999/xlink" style="isolation:isolate" viewBox="294.217 653.055 251.19 98.549" width="251.19pt" height="98.549pt"><path d=" M 534.242 724.674 C 533.523 714.074 524.706 705.699 513.924 705.699 C 512.117 705.699 510.368 705.936 508.701 706.377 C 508.994 705.131 509.153 703.833 509.153 702.497 C 509.153 694.261 503.256 687.404 495.454 685.912 C 495.457 685.81 495.462 685.708 495.462 685.606 C 495.462 674.511 486.466 665.515 475.37 665.515 C 473.438 665.515 471.57 665.793 469.8 666.303 C 466.466 658.514 458.732 653.055 449.725 653.055 C 437.667 653.055 427.893 662.83 427.893 674.887 C 427.893 675.387 427.916 675.881 427.948 676.371 C 420.659 677.101 414.813 682.681 413.646 689.834 C 413.163 689.79 412.675 689.76 412.181 689.76 C 408.371 689.76 404.878 691.1 402.137 693.328 C 400.854 682.935 391.998 674.887 381.258 674.887 C 372.814 674.887 365.536 679.863 362.184 687.041 C 359.163 684.533 355.283 683.024 351.051 683.024 C 341.627 683.024 333.955 690.499 333.628 699.844 C 332.189 700.104 330.839 700.607 329.616 701.313 C 327.766 700.251 325.628 699.635 323.343 699.635 C 316.37 699.635 310.716 705.288 310.716 712.262 C 310.716 712.357 310.728 712.449 310.729 712.544 C 309.042 711.409 307.01 710.747 304.824 710.747 C 298.965 710.747 294.217 715.496 294.217 721.354 C 294.217 727.211 298.965 731.96 304.824 731.96 C 305.603 731.96 306.36 731.87 307.093 731.71 C 307.808 738.381 313.451 743.576 320.312 743.576 C 323.937 743.576 327.218 742.123 329.617 739.772 C 332.747 745.037 338.489 748.566 345.058 748.566 C 349.849 748.566 354.199 746.686 357.419 743.628 C 360.021 744.793 362.901 745.445 365.936 745.445 C 369.384 745.445 372.635 744.604 375.501 743.124 C 377.466 745.557 380.468 747.114 383.838 747.114 C 387.826 747.114 391.299 744.933 393.146 741.7 C 396.489 747.61 402.828 751.604 410.104 751.604 C 415.309 751.604 420.031 749.558 423.524 746.232 C 424.896 746.704 426.361 746.973 427.893 746.973 C 431.837 746.973 435.373 745.263 437.833 742.558 C 441.121 746.246 445.907 748.572 451.238 748.572 C 458.895 748.572 465.427 743.778 468.011 737.031 C 472 743.292 478.998 747.449 486.973 747.449 C 492.486 747.449 497.533 745.46 501.443 742.164 C 504.892 744.842 509.219 746.441 513.924 746.441 C 518.044 746.441 521.875 745.214 525.08 743.111 C 527.167 745.75 530.39 747.449 534.014 747.449 C 540.306 747.449 545.407 742.348 545.407 736.056 C 545.407 729.84 540.428 724.797 534.242 724.674 Z " fill="rgb(254,254,254)"/></svg>