<?xml version="1.0" encoding="UTF-8" standalone="no"?><!-- Generator: Gravit.io --><svg xmlns="http://www.w3.org/2000/svg" xmlns:xlink="http://www.w3.org/1999/xlink" style="isolation:isolate" viewBox="7.502 43.37 34.033 21.822" width="34.033pt" height="21.822pt"><path d=" M 39.103 58.939 C 39.339 58.349 39.47 57.707 39.47 57.033 C 39.47 54.197 37.172 51.899 34.337 51.899 C 33.894 51.899 33.465 51.955 33.055 52.06 C 33.243 51.441 33.345 50.785 33.345 50.104 C 33.345 46.384 30.33 43.37 26.611 43.37 C 23.616 43.37 21.08 45.324 20.204 48.026 C 19.419 47.213 18.318 46.707 17.098 46.707 C 14.712 46.707 12.778 48.64 12.778 51.027 C 12.778 51.368 12.819 51.7 12.894 52.019 C 9.823 52.606 7.502 55.303 7.502 58.546 C 7.502 62.215 10.478 65.192 14.149 65.192 C 17.819 65.192 36.638 65.192 38.365 65.192 C 40.116 65.192 41.535 63.772 41.535 62.021 C 41.535 60.525 40.498 59.271 39.103 58.939 Z " fill="rgb(254,254,254)"/></svg>