<?xml version="1.0" encoding="UTF-8" standalone="no"?><!-- Generator: Gravit.io --><svg xmlns="http://www.w3.org/2000/svg" xmlns:xlink="http://www.w3.org/1999/xlink" style="isolation:isolate" viewBox="32.986 210.756 231.681 108.772" width="231.681pt" height="108.772pt"><path d=" M 253.643 270.368 C 252.069 270.368 250.576 270.703 249.222 271.297 C 248.812 263.281 242.182 256.908 234.064 256.908 C 233.36 256.908 232.667 256.959 231.988 257.052 C 231.989 257.004 231.992 256.956 231.992 256.908 C 231.992 245.369 222.639 236.015 211.101 236.015 C 202.417 236.015 194.973 241.313 191.82 248.853 C 189.499 247.367 186.743 246.502 183.783 246.502 C 181.839 246.502 179.985 246.877 178.281 247.553 C 175.947 240.837 169.567 236.015 162.057 236.015 C 156.765 236.015 152.035 238.409 148.884 242.172 C 147.056 236.509 141.749 232.411 135.478 232.411 C 135.456 232.411 135.434 232.415 135.412 232.415 C 132.392 219.986 121.196 210.756 107.84 210.756 C 97.319 210.756 88.141 216.486 83.24 224.993 C 80.478 224.227 77.572 223.809 74.567 223.809 C 56.681 223.809 42.182 238.307 42.182 256.194 C 42.182 259.787 42.776 263.239 43.856 266.468 C 37.246 271.597 32.986 279.612 32.986 288.625 C 32.986 304.109 45.537 316.659 61.02 316.659 C 67.62 316.659 73.682 314.373 78.471 310.556 C 83.828 316.086 91.326 319.528 99.632 319.528 C 106.772 319.528 113.317 316.988 118.416 312.764 C 121.362 314.301 124.708 315.176 128.259 315.176 C 136.394 315.176 143.461 310.616 147.052 303.915 C 150.389 305.916 154.294 307.067 158.468 307.067 C 164.291 307.067 169.588 304.828 173.554 301.167 C 177.402 304.842 182.613 307.104 188.354 307.104 C 193.813 307.104 198.791 305.061 202.576 301.702 C 206.344 305.966 211.851 308.658 217.991 308.658 C 222.332 308.658 226.354 307.311 229.673 305.017 C 232.146 306.803 235.18 307.859 238.462 307.859 C 246.765 307.859 253.493 301.128 253.493 292.828 C 253.493 292.688 253.487 292.55 253.482 292.411 C 253.537 292.412 253.589 292.419 253.643 292.419 C 259.731 292.419 264.667 287.483 264.667 281.394 C 264.667 275.304 259.731 270.368 253.643 270.368 Z " fill="rgb(254,254,254)"/></svg>