<?xml version="1.0" encoding="UTF-8" standalone="no"?><!-- Generator: Gravit.io --><svg xmlns="http://www.w3.org/2000/svg" xmlns:xlink="http://www.w3.org/1999/xlink" style="isolation:isolate" viewBox="44.924 663.184 207.805 100.115" width="207.805pt" height="100.115pt"><path d=" M 247.501 727.236 C 249.752 723.976 251.073 720.024 251.073 715.763 C 251.073 704.601 242.023 695.548 230.857 695.548 C 229.388 695.548 227.956 695.709 226.575 696.007 C 225.171 682.231 213.536 671.484 199.39 671.484 C 190.686 671.484 182.938 675.558 177.935 681.897 C 174.276 671.021 164.005 663.184 151.896 663.184 C 140.573 663.184 130.854 670.035 126.647 679.816 C 121.55 674.672 114.48 671.484 106.667 671.484 C 91.832 671.484 79.688 682.969 78.62 697.532 C 75.683 696.259 72.442 695.548 69.036 695.548 C 55.719 695.548 44.924 706.345 44.924 719.661 C 44.924 732.979 55.719 743.773 69.036 743.773 C 70.802 743.773 72.521 743.579 74.179 743.219 C 77.797 751.133 85.777 756.634 95.049 756.634 C 98.93 756.634 102.584 755.666 105.789 753.966 C 111.257 759.575 118.892 763.063 127.345 763.063 C 137.226 763.063 145.993 758.305 151.481 750.953 C 157.585 758.483 166.904 763.299 177.352 763.299 C 185 763.299 192.041 760.713 197.663 756.378 C 201.739 759.645 206.911 761.603 212.543 761.603 C 220.623 761.603 227.758 757.576 232.063 751.425 C 233.944 752.319 236.041 752.834 238.263 752.834 C 246.252 752.834 252.729 746.359 252.729 738.367 C 252.729 733.891 250.695 729.89 247.501 727.236 Z " fill="rgb(254,254,254)"/></svg>