<?xml version="1.0" encoding="UTF-8" standalone="no"?><!-- Generator: Gravit.io --><svg xmlns="http://www.w3.org/2000/svg" xmlns:xlink="http://www.w3.org/1999/xlink" style="isolation:isolate" viewBox="487.247 36.701 280.518 118.977" width="280.518pt" height="118.977pt"><path d=" M 753.143 98.127 C 753.458 96.779 753.578 95.363 753.458 93.91 C 752.842 86.455 746.296 80.908 738.84 81.525 C 738.305 81.569 737.784 81.652 737.27 81.756 C 737.347 80.644 737.341 79.512 737.246 78.366 C 736.257 66.411 725.977 57.46 714.092 58.012 C 709.424 44.649 696.185 35.591 681.422 36.812 C 667.138 37.993 655.843 48.436 652.943 61.748 C 650.962 61.117 648.828 60.852 646.628 61.034 C 642.972 61.337 639.695 62.819 637.144 65.075 C 632.83 60.803 626.747 58.366 620.222 58.906 C 616.632 59.203 613.324 60.369 610.48 62.175 C 604.682 55.624 595.975 51.794 586.586 52.57 C 572.706 53.718 561.953 64.555 560.416 77.879 C 558.897 77.688 557.337 77.647 555.75 77.778 C 546.854 78.514 539.609 84.362 536.659 92.195 C 533.164 89.147 528.489 87.456 523.501 87.868 C 513.709 88.679 506.428 97.275 507.236 107.066 C 507.238 107.073 507.238 107.08 507.239 107.087 C 506.378 107.04 505.505 107.046 504.621 107.119 C 494.2 107.98 486.45 117.127 487.313 127.549 C 488.174 137.97 497.321 145.72 507.742 144.858 C 511.786 144.523 515.425 142.938 518.316 140.518 C 522.128 146.544 529.074 150.3 536.674 149.672 C 540.245 149.376 543.512 148.146 546.263 146.247 C 551.559 151.022 558.732 153.689 566.398 153.055 C 572.496 152.551 577.942 150.037 582.151 146.223 C 587.866 151.563 595.728 154.562 604.135 153.866 C 612.175 153.201 619.161 149.282 623.919 143.517 C 627.65 146.984 632.771 148.931 638.247 148.478 C 643.769 148.021 648.531 145.218 651.642 141.131 C 657.227 150.444 667.77 156.301 679.322 155.346 C 686.204 154.776 692.33 151.878 697.005 147.498 C 699.975 152.786 705.825 156.155 712.266 155.623 C 718.731 155.088 723.967 150.771 726.01 145.034 C 727.753 145.449 729.588 145.604 731.47 145.449 C 737.396 144.959 742.378 141.541 745.117 136.737 C 746.585 136.953 748.1 137.013 749.642 136.885 C 760.514 135.986 768.597 126.445 767.697 115.575 C 766.991 107.041 760.961 100.229 753.143 98.127 Z " fill="rgb(254,254,254)"/></svg>