<?xml version="1.0" encoding="UTF-8" standalone="no"?><!-- Generator: Gravit.io --><svg xmlns="http://www.w3.org/2000/svg" xmlns:xlink="http://www.w3.org/1999/xlink" style="isolation:isolate" viewBox="240.604 48.394 228.138 115.857" width="228.138pt" height="115.857pt"><path d=" M 468.741 117.489 C 468.823 102.482 456.724 90.248 441.716 90.165 C 437.72 90.144 433.927 90.993 430.501 92.523 C 428.624 81.616 419.157 73.289 407.706 73.226 C 406.685 73.22 405.679 73.288 404.69 73.411 C 400.444 64.045 391.042 57.504 380.085 57.444 C 371.407 57.397 363.663 61.425 358.654 67.731 C 353.611 63.011 346.847 60.102 339.398 60.061 C 338.291 60.055 337.201 60.119 336.125 60.236 C 332.705 53.262 325.555 48.44 317.26 48.394 C 305.587 48.33 296.072 57.741 296.008 69.415 C 296.006 69.67 296.017 69.924 296.023 70.177 C 288.192 71.914 281.504 76.691 277.264 83.218 C 276.282 83.082 275.281 83.003 274.265 82.998 C 261.708 82.929 251.475 93.052 251.406 105.607 C 251.392 108.222 251.824 110.733 252.625 113.077 C 245.564 116.364 240.65 123.502 240.604 131.807 C 240.541 143.284 249.794 152.639 261.271 152.702 C 264.921 152.722 268.356 151.796 271.347 150.158 C 275.764 158.496 284.504 164.195 294.599 164.251 C 302.687 164.296 309.944 160.704 314.829 155.013 C 318.507 156.734 322.605 157.711 326.933 157.735 C 334.284 157.776 341.006 155.071 346.14 150.587 C 348.335 152.215 351.041 153.196 353.982 153.212 C 355.997 153.223 357.901 152.773 359.617 151.983 C 362.931 156.433 368.221 159.328 374.198 159.361 C 381.022 159.398 386.992 155.691 390.165 150.167 C 393.938 152.257 398.276 153.456 402.894 153.481 C 407.634 153.507 412.085 152.289 415.952 150.14 C 418.964 153.762 423.487 156.081 428.563 156.108 C 436.06 156.149 442.407 151.188 444.464 144.356 C 458.046 142.916 468.663 131.468 468.741 117.489 Z " fill="rgb(254,254,254)"/></svg>