<?xml version="1.0" encoding="UTF-8" standalone="no"?><!-- Generator: Gravit.io --><svg xmlns="http://www.w3.org/2000/svg" xmlns:xlink="http://www.w3.org/1999/xlink" style="isolation:isolate" viewBox="45.939 521.609 283.096 117.29" width="283.096pt" height="117.29pt"><path d=" M 308.913 573.441 C 309.207 571.989 309.362 570.486 309.362 568.946 C 309.362 556.555 299.316 546.508 286.924 546.508 C 278.408 546.508 271 551.253 267.199 558.242 C 264.06 553.751 258.854 550.812 252.958 550.812 C 250.293 550.812 247.769 551.413 245.512 552.487 C 243.758 543.815 236.095 537.286 226.908 537.286 C 225.298 537.286 223.736 537.488 222.243 537.866 C 220.882 528.669 212.957 521.609 203.38 521.609 C 193.702 521.609 185.712 528.822 184.48 538.163 C 182.731 537.597 180.868 537.286 178.931 537.286 C 172.157 537.286 166.259 541.035 163.192 546.569 C 162.792 546.531 162.386 546.508 161.975 546.508 C 158.825 546.508 155.948 547.654 153.723 549.545 C 150.64 545.489 145.766 542.869 140.279 542.869 C 133.085 542.869 126.946 547.37 124.516 553.709 C 122.913 551.934 120.6 550.812 118.019 550.812 C 117.55 550.812 117.092 550.858 116.642 550.93 C 113.895 546.116 108.717 542.869 102.778 542.869 C 96.275 542.869 90.684 546.763 88.198 552.345 C 85.913 551.359 83.396 550.812 80.75 550.812 C 71.411 550.812 63.664 557.611 62.182 566.53 C 53.111 567.128 45.939 574.671 45.939 583.893 C 45.939 593.506 53.731 601.298 63.344 601.298 C 68.224 601.298 72.632 599.287 75.793 596.052 C 78.71 603.314 85.815 608.444 94.12 608.444 C 96.969 608.444 99.675 607.836 102.122 606.751 C 105.392 617.26 115.195 624.89 126.779 624.89 C 132.707 624.89 138.163 622.887 142.521 619.528 C 142.498 619.908 142.481 620.29 142.481 620.675 C 142.481 630.741 150.641 638.899 160.707 638.899 C 168.995 638.899 175.986 633.364 178.198 625.79 C 181.295 632.4 188.004 636.98 195.786 636.98 C 203.969 636.98 210.965 631.915 213.821 624.75 C 217.001 626.161 220.517 626.952 224.22 626.952 C 234.07 626.952 242.62 621.397 246.919 613.251 C 248.484 615.631 251.176 617.205 254.238 617.205 C 258.47 617.205 262 614.205 262.819 610.216 C 266.944 613.983 272.433 616.282 278.459 616.282 C 282.742 616.282 286.75 615.117 290.193 613.094 C 294.319 616.975 299.87 619.356 305.982 619.356 C 318.714 619.356 329.035 609.035 329.035 596.303 C 329.035 584.564 320.259 574.882 308.913 573.441 Z " fill="rgb(254,254,254)"/></svg>