<?xml version="1.0" encoding="UTF-8" standalone="no"?><!-- Generator: Gravit.io --><svg xmlns="http://www.w3.org/2000/svg" xmlns:xlink="http://www.w3.org/1999/xlink" style="isolation:isolate" viewBox="309.601 224.142 131.787 82" width="131.787pt" height="82pt"><path d=" M 418.776 243.142 C 415.069 243.142 411.574 244.04 408.487 245.62 C 406.849 233.494 396.462 224.142 383.886 224.142 C 376.522 224.142 369.909 227.351 365.362 232.443 C 361.655 229.155 356.792 227.142 351.448 227.142 C 339.851 227.142 330.448 236.544 330.448 248.142 C 330.448 249.751 330.646 251.312 330.988 252.817 C 319.161 252.91 309.601 262.519 309.601 274.369 C 309.601 286.277 319.253 295.929 331.159 295.929 C 333.788 295.929 336.296 295.436 338.626 294.574 C 342.511 301.477 349.901 306.142 358.386 306.142 C 365.829 306.142 372.433 302.555 376.565 297.016 C 381.114 301.229 387.198 303.808 393.888 303.808 C 404.418 303.808 413.456 297.424 417.347 288.315 C 417.819 288.345 418.296 288.365 418.776 288.365 C 431.263 288.365 441.388 278.242 441.388 265.753 C 441.388 253.265 431.263 243.142 418.776 243.142 Z " fill="rgb(254,254,254)"/></svg>