<?xml version="1.0" encoding="UTF-8" standalone="no"?><!-- Generator: Gravit.io --><svg xmlns="http://www.w3.org/2000/svg" xmlns:xlink="http://www.w3.org/1999/xlink" style="isolation:isolate" viewBox="646.26 521.3 121.506 101.146" width="121.506pt" height="101.146pt"><path d=" M 767.766 566.3 C 767.766 555.53 759.035 546.8 748.266 546.8 C 748.201 546.8 748.141 546.81 748.078 546.81 C 746.467 532.458 734.297 521.3 719.516 521.3 C 710.545 521.3 702.535 525.41 697.262 531.849 C 692.973 528.978 687.814 527.3 682.266 527.3 C 667.354 527.3 655.266 539.388 655.266 554.3 C 655.266 558.188 656.094 561.88 657.572 565.22 C 650.98 567.597 646.26 573.889 646.26 581.298 C 646.26 590.747 653.92 598.407 663.369 598.407 C 663.467 598.407 663.563 598.395 663.66 598.394 C 665.61 611.993 677.303 622.446 691.441 622.446 C 700.203 622.446 708.025 618.432 713.174 612.142 C 718.313 617.477 725.523 620.8 733.516 620.8 C 749.117 620.8 761.766 608.151 761.766 592.55 C 761.766 588.835 761.041 585.292 759.738 582.044 C 764.596 578.497 767.766 572.775 767.766 566.3 Z " fill="rgb(254,254,254)"/></svg>