<?xml version="1.0" encoding="UTF-8" standalone="no"?><!-- Generator: Gravit.io --><svg xmlns="http://www.w3.org/2000/svg" xmlns:xlink="http://www.w3.org/1999/xlink" style="isolation:isolate" viewBox="30.993 48.394 183.144 101.933" width="183.144pt" height="101.933pt"><path d=" M 214.137 104.347 C 214.137 94.194 207.342 85.634 198.053 82.95 C 198.063 82.657 198.076 82.365 198.076 82.07 C 198.076 68.335 186.941 57.202 173.208 57.202 C 168.501 57.202 164.1 58.51 160.348 60.782 C 156.954 53.468 149.549 48.394 140.957 48.394 C 133.855 48.394 127.566 51.861 123.68 57.191 C 117.77 51.733 109.874 48.394 101.194 48.394 C 85.64 48.394 72.593 59.107 69.014 73.555 C 56.922 74.191 47.313 84.196 47.313 96.447 C 47.313 99.147 47.783 101.737 48.641 104.143 C 48.286 104.12 47.933 104.089 47.572 104.089 C 38.416 104.089 30.993 111.511 30.993 120.668 C 30.993 129.824 38.416 137.246 47.572 137.246 C 50.621 137.246 53.469 136.409 55.923 134.972 C 59.623 140.261 65.755 143.723 72.699 143.723 C 78.919 143.723 84.487 140.943 88.241 136.563 C 93.126 142.625 100.606 146.506 108.998 146.506 C 116.104 146.506 122.555 143.72 127.333 139.186 C 129.021 139.765 130.826 140.095 132.71 140.095 C 135.393 140.095 137.917 139.443 140.16 138.313 C 144.989 145.554 153.229 150.327 162.587 150.327 C 171.099 150.327 178.684 146.375 183.621 140.211 C 185.53 141.124 187.659 141.649 189.916 141.649 C 197.999 141.649 204.551 135.097 204.551 127.013 C 204.551 125.63 204.347 124.298 203.988 123.03 C 210.095 119.057 214.137 112.175 214.137 104.347 Z " fill="rgb(254,254,254)"/></svg>