<?xml version="1.0" encoding="UTF-8" standalone="no"?><!-- Generator: Gravit.io --><svg xmlns="http://www.w3.org/2000/svg" xmlns:xlink="http://www.w3.org/1999/xlink" style="isolation:isolate" viewBox="34.561 361.352 228.532 121.187" width="228.532pt" height="121.187pt"><path d=" M 232.02 395.48 C 230.141 378.687 217.26 364.543 199.759 361.815 C 187.44 359.896 175.582 364.063 167.23 372.076 C 163.229 366.82 157.274 363.039 150.231 361.942 C 136.957 359.873 124.458 368.046 120.752 380.586 C 116.291 376.101 110.415 372.942 103.684 371.894 C 88.294 369.496 73.799 378.944 69.46 393.462 C 68.799 393.311 68.133 393.173 67.453 393.067 C 51.9 390.646 37.328 401.288 34.904 416.841 C 32.481 432.394 43.124 446.966 58.677 449.388 C 60.411 449.658 62.131 449.757 63.826 449.714 C 65.999 461.238 75.198 470.686 87.447 472.595 C 94.826 473.745 101.98 471.949 107.725 468.088 C 113.597 475.339 122.074 480.52 132.02 482.069 C 144.366 483.993 156.253 479.892 164.713 471.96 C 169.164 475.97 174.787 478.779 181.147 479.771 C 192.179 481.489 202.766 477.335 209.744 469.639 C 212.422 470.71 215.256 471.509 218.228 471.972 C 239.44 475.278 259.318 460.761 262.624 439.546 C 265.834 418.946 252.234 399.608 232.02 395.48 Z " fill="rgb(254,254,254)"/></svg>