<?xml version="1.0" encoding="UTF-8" standalone="no"?><!-- Generator: Gravit.io --><svg xmlns="http://www.w3.org/2000/svg" xmlns:xlink="http://www.w3.org/1999/xlink" style="isolation:isolate" viewBox="359.136 521.61 256.22 100.526" width="256.22pt" height="100.526pt"><path d=" M 615.356 589.358 C 615.356 582.073 609.451 576.168 602.166 576.168 C 601.622 576.168 601.09 576.211 600.563 576.274 C 600.563 576.239 600.566 576.204 600.566 576.168 C 600.566 567.227 593.318 559.979 584.377 559.979 C 581.963 559.979 579.676 560.511 577.618 561.458 C 575.497 552.697 567.609 546.188 558.196 546.188 C 552.854 546.188 548.004 548.289 544.418 551.704 C 540.986 541.751 531.543 534.597 520.422 534.597 C 518.049 534.597 515.753 534.928 513.574 535.537 C 507.841 527.13 498.189 521.61 487.246 521.61 C 476.766 521.61 467.47 526.673 461.665 534.485 C 458.367 533.017 454.715 532.198 450.871 532.198 C 438.603 532.198 428.28 540.513 425.219 551.813 C 422.551 550.028 419.346 548.986 415.896 548.986 C 410.223 548.986 405.212 551.803 402.172 556.11 C 399.29 554.38 395.919 553.384 392.313 553.384 C 382.894 553.384 375.064 560.174 373.44 569.124 C 372.599 568.932 371.727 568.821 370.827 568.821 C 364.37 568.821 359.136 574.056 359.136 580.513 C 359.136 585.55 362.327 589.83 366.794 591.476 C 366.237 593.134 365.931 594.907 365.931 596.753 C 365.931 605.914 373.357 613.341 382.52 613.341 C 388.231 613.341 393.268 610.453 396.251 606.06 C 399.558 608.854 403.83 610.543 408.5 610.543 C 411.989 610.543 415.257 609.598 418.066 607.956 C 422.126 613.634 428.77 617.339 436.282 617.339 C 443.044 617.339 449.101 614.336 453.204 609.597 C 457.647 613.659 463.563 616.14 470.059 616.14 C 477.314 616.14 483.845 613.043 488.409 608.103 C 492.723 612.098 498.491 614.542 504.834 614.542 C 509.593 614.542 514.026 613.162 517.768 610.788 C 520.584 616.11 526.175 619.738 532.614 619.738 C 537.406 619.738 541.725 617.728 544.783 614.509 C 546.938 616.276 549.694 617.339 552.699 617.339 C 554.479 617.339 556.17 616.96 557.703 616.288 C 561.908 619.929 567.388 622.136 573.387 622.136 C 579.155 622.136 584.447 620.097 588.586 616.703 C 590.243 617.616 592.145 618.139 594.172 618.139 C 600.573 618.139 605.763 612.948 605.763 606.548 C 605.763 605.028 605.463 603.583 604.933 602.253 C 610.889 600.981 615.356 595.694 615.356 589.358 Z " fill="rgb(254,254,254)"/></svg>