<?xml version="1.0" encoding="UTF-8" standalone="no"?><!-- Generator: Gravit.io --><svg xmlns="http://www.w3.org/2000/svg" xmlns:xlink="http://www.w3.org/1999/xlink" style="isolation:isolate" viewBox="51.466 42.38 36.716 23.821" width="36.716pt" height="23.821pt"><path d=" M 86.164 54.341 C 85.784 54.341 85.429 54.446 85.126 54.629 C 84.91 52.899 83.436 51.56 81.648 51.56 C 81.352 51.56 81.065 51.597 80.791 51.666 C 80.584 50.669 79.7 49.919 78.641 49.919 C 78.162 49.919 77.719 50.073 77.358 50.333 C 76.791 48.364 74.977 46.923 72.825 46.923 C 72.497 46.923 72.178 46.957 71.869 47.02 C 70.731 44.295 68.041 42.38 64.903 42.38 C 60.736 42.38 57.358 45.757 57.358 49.924 C 57.358 50.542 57.432 51.14 57.572 51.714 C 56.956 51.321 56.225 51.093 55.44 51.093 C 53.245 51.093 51.466 52.872 51.466 55.067 C 51.466 57.261 53.245 59.041 55.44 59.041 C 55.748 59.041 56.047 59.005 56.334 58.938 C 56.268 59.076 56.22 59.225 56.197 59.384 C 56.075 60.219 56.654 60.995 57.488 61.116 C 57.922 61.179 58.339 61.051 58.657 60.798 C 59.253 62.207 60.549 63.279 62.173 63.515 C 63.357 63.687 64.5 63.383 65.409 62.749 C 65.528 64.454 66.818 65.905 68.578 66.162 C 70.39 66.425 72.085 65.332 72.637 63.65 C 73.409 64.251 74.341 64.667 75.378 64.818 C 78.569 65.282 81.531 63.072 81.996 59.882 C 82.003 59.832 82.008 59.782 82.014 59.732 C 82.322 60.171 82.803 60.488 83.376 60.571 C 84.479 60.732 85.503 59.967 85.664 58.864 C 85.691 58.678 85.691 58.495 85.669 58.317 C 85.827 58.357 85.993 58.379 86.164 58.379 C 87.279 58.379 88.182 57.474 88.182 56.36 C 88.182 55.245 87.279 54.341 86.164 54.341 Z " fill="rgb(254,254,254)"/></svg>