<?xml version="1.0" encoding="UTF-8" standalone="no"?><!-- Generator: Gravit.io --><svg xmlns="http://www.w3.org/2000/svg" xmlns:xlink="http://www.w3.org/1999/xlink" style="isolation:isolate" viewBox="583.257 362.28 185.75 119.332" width="185.75pt" height="119.332pt"><path d=" M 769.007 444.946 C 769.007 438.451 765.361 432.811 760.007 429.948 C 760.007 429.947 760.007 429.947 760.007 429.946 C 760.007 416.14 748.814 404.946 735.007 404.946 C 732.444 404.946 729.974 405.333 727.646 406.05 C 727.66 405.683 727.674 405.316 727.674 404.946 C 727.674 390.034 715.586 377.946 700.674 377.946 C 696.461 377.946 692.475 378.912 688.922 380.632 C 683.303 369.736 671.945 362.28 658.84 362.28 C 641.024 362.28 626.436 376.052 625.115 393.529 C 623.99 393.368 622.843 393.28 621.674 393.28 C 609.778 393.28 599.91 401.936 598.01 413.291 C 589.699 414.299 583.257 421.364 583.257 429.948 C 583.257 437.291 587.978 443.516 594.543 445.797 C 594.413 446.773 594.34 447.769 594.34 448.78 C 594.34 461.206 604.414 471.28 616.84 471.28 C 624.896 471.28 631.961 467.042 635.936 460.678 C 640.744 465.574 647.436 468.614 654.841 468.614 C 659.65 468.614 664.157 467.326 668.046 465.086 C 673.842 472.504 682.864 477.278 693.007 477.278 C 699.639 477.278 705.791 475.236 710.878 471.753 C 715.608 477.755 722.938 481.612 731.174 481.612 C 743.527 481.612 753.849 472.94 756.397 461.353 C 763.654 459.415 769.007 452.813 769.007 444.946 Z " fill="rgb(254,254,254)"/></svg>