<?xml version="1.0" encoding="UTF-8" standalone="no"?><!-- Generator: Gravit.io --><svg xmlns="http://www.w3.org/2000/svg" xmlns:xlink="http://www.w3.org/1999/xlink" style="isolation:isolate" viewBox="294.217 342.926 258.904 138.596" width="258.904pt" height="138.596pt"><path d=" M 538.143 415.551 C 538.154 415.254 538.165 414.96 538.165 414.661 C 538.165 401.37 527.391 390.594 514.099 390.594 C 506.43 390.594 499.604 394.185 495.198 399.771 C 492.112 394.295 486.248 390.594 479.515 390.594 C 478.316 390.594 477.146 390.714 476.014 390.939 C 473.52 376.671 461.081 365.825 446.101 365.825 C 444.7 365.825 443.323 365.928 441.973 366.112 C 436.034 352.469 422.439 342.926 406.611 342.926 C 387.842 342.926 372.211 356.341 368.769 374.104 C 366.223 373.284 363.51 372.835 360.692 372.835 C 346.175 372.835 334.407 384.603 334.407 399.121 C 334.407 399.896 334.447 400.661 334.514 401.417 C 331.034 399.94 327.209 399.121 323.192 399.121 C 307.19 399.121 294.217 412.094 294.217 428.095 C 294.217 444.098 307.19 457.069 323.192 457.069 C 323.235 457.069 323.276 457.066 323.318 457.066 C 324.608 470.443 335.879 480.904 349.596 480.904 C 354.56 480.904 359.203 479.531 363.169 477.15 C 368.367 479.937 374.307 481.522 380.619 481.522 C 394.335 481.522 406.298 474.049 412.681 462.957 C 418.313 466.833 425.136 469.106 432.491 469.106 C 441.072 469.106 448.927 466.014 455.015 460.888 C 461.048 469.928 471.336 475.885 483.021 475.885 C 491.014 475.885 498.351 473.093 504.122 468.437 C 506.182 469.316 508.446 469.809 510.826 469.809 C 519.059 469.809 525.927 463.977 527.529 456.221 C 528.999 456.545 530.524 456.723 532.091 456.723 C 543.705 456.723 553.121 447.307 553.121 435.691 C 553.121 426.183 546.807 418.149 538.143 415.551 Z " fill="rgb(254,254,254)"/></svg>