<?xml version="1.0" encoding="UTF-8" standalone="no"?><!-- Generator: Gravit.io --><svg xmlns="http://www.w3.org/2000/svg" xmlns:xlink="http://www.w3.org/1999/xlink" style="isolation:isolate" viewBox="97.422 42.355 39.09 23.846" width="39.09pt" height="23.846pt"><path d=" M 135.248 58.152 C 136.019 57.523 136.512 56.565 136.512 55.492 C 136.512 53.597 134.977 52.062 133.083 52.062 C 132.936 52.062 132.792 52.072 132.65 52.09 C 132.734 51.748 132.779 51.391 132.779 51.023 C 132.779 48.554 130.778 46.553 128.31 46.553 C 127.572 46.553 126.876 46.734 126.262 47.051 C 124.821 44.262 121.914 42.355 118.559 42.355 C 114.797 42.355 111.596 44.753 110.397 48.102 C 109.436 47.282 108.189 46.785 106.826 46.785 C 103.784 46.785 101.319 49.251 101.319 52.292 C 101.319 52.531 101.336 52.765 101.365 52.996 C 101.179 52.965 100.989 52.947 100.794 52.947 C 98.932 52.947 97.422 54.457 97.422 56.318 C 97.422 58.18 98.932 59.69 100.794 59.69 C 101.189 59.69 101.568 59.622 101.92 59.497 C 102.194 61.13 103.612 62.374 105.322 62.374 C 106.22 62.374 107.037 62.031 107.651 61.469 C 108.404 63.834 110.617 65.547 113.231 65.547 C 114.86 65.547 116.332 64.881 117.394 63.807 C 117.989 64.846 119.107 65.547 120.39 65.547 C 121.422 65.547 122.347 65.092 122.98 64.375 C 124.047 65.499 125.554 66.201 127.227 66.201 C 130.358 66.201 132.915 63.744 133.074 60.652 C 133.383 61.107 133.903 61.405 134.494 61.405 C 135.442 61.405 136.21 60.637 136.21 59.69 C 136.21 59.014 135.817 58.43 135.248 58.152 Z " fill="rgb(254,254,254)"/></svg>