<?xml version="1.0" encoding="UTF-8" standalone="no"?><!-- Generator: Gravit.io --><svg xmlns="http://www.w3.org/2000/svg" xmlns:xlink="http://www.w3.org/1999/xlink" style="isolation:isolate" viewBox="52.301 110.068 35.047 23.173" width="35.047pt" height="23.173pt"><path d=" M 84.405 119.661 C 84.387 119.661 84.371 119.662 84.354 119.662 C 84.386 119.468 84.405 119.271 84.405 119.068 C 84.405 117.119 82.824 115.538 80.874 115.538 C 79.992 115.538 79.187 115.862 78.568 116.396 C 78.074 112.822 75.009 110.068 71.298 110.068 C 68.314 110.068 65.748 111.85 64.599 114.407 C 63.385 114.526 62.299 115.079 61.495 115.908 C 60.818 115.302 59.925 114.934 58.945 114.934 C 56.829 114.934 55.113 116.65 55.113 118.766 C 55.113 119.288 55.217 119.784 55.405 120.236 C 55.309 120.226 55.212 120.221 55.113 120.221 C 53.56 120.221 52.301 121.48 52.301 123.034 C 52.301 124.587 53.56 125.845 55.113 125.845 C 55.349 125.845 55.578 125.816 55.798 125.761 C 55.988 127.676 57.603 129.173 59.568 129.173 C 60.721 129.173 61.753 128.657 62.448 127.844 C 63.053 128.645 64.013 129.163 65.094 129.163 C 65.247 129.163 65.397 129.151 65.544 129.131 C 66.007 131.474 68.072 133.241 70.55 133.241 C 73.248 133.241 75.455 131.147 75.64 128.496 C 76.164 128.714 76.74 128.837 77.344 128.837 C 79.791 128.837 81.775 126.852 81.775 124.406 C 81.775 124.218 81.761 124.034 81.739 123.853 C 82.209 124.854 83.225 125.548 84.405 125.548 C 86.03 125.548 87.348 124.23 87.348 122.604 C 87.348 120.978 86.03 119.661 84.405 119.661 Z " fill="rgb(254,254,254)"/></svg>