<?xml version="1.0" encoding="UTF-8" standalone="no"?><!-- Generator: Gravit.io --><svg xmlns="http://www.w3.org/2000/svg" xmlns:xlink="http://www.w3.org/1999/xlink" style="isolation:isolate" viewBox="6.278 77.091 36.481 21.726" width="36.481pt" height="21.726pt"><path d=" M 39.62 86.258 C 39.154 86.258 38.713 86.361 38.315 86.543 C 38.525 85.899 38.64 85.212 38.64 84.497 C 38.64 80.852 35.685 77.896 32.039 77.896 C 30.674 77.896 29.405 78.311 28.352 79.021 C 27.372 77.841 25.894 77.091 24.24 77.091 C 22.051 77.091 20.171 78.407 19.344 80.292 C 18.585 79.861 17.708 79.615 16.773 79.615 C 13.884 79.615 11.543 81.956 11.543 84.844 C 11.543 85.134 11.567 85.418 11.613 85.695 C 11.116 85.447 10.558 85.306 9.966 85.306 C 7.929 85.306 6.278 86.958 6.278 88.995 C 6.278 91.031 7.929 92.682 9.966 92.682 C 10.593 92.682 11.183 92.525 11.7 92.25 C 12.339 95.08 14.867 97.195 17.891 97.195 C 19.3 97.195 20.6 96.736 21.653 95.96 C 22.773 97.679 24.712 98.817 26.917 98.817 C 29.967 98.817 32.508 96.641 33.076 93.757 C 33.633 94.259 34.37 94.565 35.179 94.565 C 36.642 94.565 37.872 93.563 38.22 92.209 C 38.641 92.419 39.117 92.538 39.62 92.538 C 41.354 92.538 42.759 91.133 42.759 89.398 C 42.759 87.665 41.354 86.258 39.62 86.258 Z " fill="rgb(254,254,254)"/></svg>