<?xml version="1.0" encoding="UTF-8" standalone="no"?><!-- Generator: Gravit.io --><svg xmlns="http://www.w3.org/2000/svg" xmlns:xlink="http://www.w3.org/1999/xlink" style="isolation:isolate" viewBox="48.928 76.667 41.791 22.61" width="41.791pt" height="22.61pt"><path d=" M 88.508 83.064 C 88.075 83.064 87.671 83.188 87.33 83.403 C 87.109 82.415 86.227 81.675 85.172 81.675 C 84.275 81.675 83.504 82.209 83.156 82.975 C 82.251 80.783 80.093 79.24 77.574 79.24 C 76.617 79.24 75.712 79.464 74.907 79.861 C 73.543 77.929 71.294 76.667 68.75 76.667 C 67.232 76.667 65.819 77.118 64.636 77.89 C 63.704 77.126 62.512 76.667 61.213 76.667 C 58.228 76.667 55.808 79.087 55.808 82.072 C 55.808 82.374 55.834 82.67 55.882 82.958 C 55.115 83.048 54.421 83.374 53.874 83.862 C 53.354 83.29 52.604 82.931 51.771 82.931 C 50.201 82.931 48.928 84.204 48.928 85.773 C 48.928 87.342 50.201 88.615 51.771 88.615 C 51.804 88.615 51.837 88.613 51.87 88.612 C 51.805 88.845 51.771 89.09 51.771 89.343 C 51.771 90.858 52.998 92.086 54.513 92.086 C 55.024 92.086 55.501 91.946 55.91 91.703 C 55.91 91.716 55.909 91.728 55.909 91.741 C 55.909 94.67 58.284 97.044 61.213 97.044 C 63.078 97.044 64.717 96.081 65.663 94.625 C 66.288 97.291 68.68 99.277 71.538 99.277 C 74.126 99.277 76.333 97.648 77.191 95.359 C 77.951 95.934 78.898 96.276 79.925 96.276 C 82.352 96.276 84.334 94.369 84.454 91.971 C 84.523 91.974 84.592 91.977 84.661 91.977 C 86.785 91.977 88.508 90.255 88.508 88.131 C 88.508 87.912 88.488 87.697 88.453 87.487 C 88.471 87.488 88.489 87.489 88.508 87.489 C 89.729 87.489 90.72 86.498 90.72 85.276 C 90.72 84.054 89.729 83.064 88.508 83.064 Z " fill="rgb(254,254,254)"/></svg>