<?xml version="1.0" encoding="UTF-8" standalone="no"?><!-- Generator: Gravit.io --><svg xmlns="http://www.w3.org/2000/svg" xmlns:xlink="http://www.w3.org/1999/xlink" style="isolation:isolate" viewBox="95.767 76.11 42.4 23.678" width="42.4pt" height="23.678pt"><path d=" M 135.281 87.324 C 134.618 87.324 134.007 87.549 133.52 87.925 C 133.038 85.386 130.808 83.466 128.13 83.466 C 128.092 83.466 128.056 83.467 128.019 83.468 C 127.355 79.298 123.742 76.11 119.384 76.11 C 115.079 76.11 111.503 79.222 110.777 83.319 C 109.771 82.16 108.287 81.425 106.632 81.425 C 103.601 81.425 101.144 83.883 101.144 86.913 C 101.144 86.952 101.146 86.991 101.147 87.03 C 100.825 86.955 100.49 86.913 100.146 86.913 C 97.728 86.913 95.767 88.874 95.767 91.292 C 95.767 93.71 97.728 95.67 100.146 95.67 C 101.068 95.67 101.923 95.384 102.629 94.897 C 103.217 97.451 105.503 99.355 108.235 99.355 C 110.014 99.355 111.605 98.547 112.66 97.278 C 113.697 98.794 115.438 99.788 117.412 99.788 C 119.792 99.788 121.835 98.343 122.711 96.283 C 123.382 96.71 124.179 96.958 125.034 96.958 C 126.608 96.958 127.986 96.12 128.747 94.866 C 129.249 96.111 130.467 96.99 131.892 96.99 C 133.764 96.99 135.281 95.472 135.281 93.599 C 135.281 93.428 135.269 93.259 135.244 93.094 C 135.257 93.094 135.269 93.095 135.281 93.095 C 136.875 93.095 138.167 91.803 138.167 90.21 C 138.167 88.616 136.875 87.324 135.281 87.324 Z " fill="rgb(254,254,254)"/></svg>