<?xml version="1.0" encoding="UTF-8" standalone="no"?><!-- Generator: Gravit.io --><svg xmlns="http://www.w3.org/2000/svg" xmlns:xlink="http://www.w3.org/1999/xlink" style="isolation:isolate" viewBox="43.895 234.936 300.776 122.107" width="300.776pt" height="122.107pt"><g><path d=" M 318.759 234.936 L 54.968 234.936 C 48.853 234.936 43.895 239.893 43.895 246.008 L 43.895 303.957 C 43.895 310.072 48.853 315.029 54.968 315.029 L 281.829 315.029 C 282.214 322.223 288.152 327.941 295.441 327.941 C 302.731 327.941 308.669 322.223 309.055 315.029 L 318.759 315.029 C 324.874 315.029 329.832 310.072 329.832 303.957 L 329.832 246.008 C 329.832 239.893 324.874 234.936 318.759 234.936 Z " fill="#FFFFFF"/><path d=" M 318.895 329.562 C 314.118 329.562 310.246 333.434 310.246 338.21 C 310.246 342.987 314.118 346.859 318.895 346.859 C 323.671 346.859 327.543 342.987 327.543 338.21 C 327.543 333.434 323.671 329.562 318.895 329.562 Z " fill="#FFFFFF"/><path d=" M 339.579 346.859 C 336.767 346.859 334.487 349.139 334.487 351.951 C 334.487 354.763 336.767 357.043 339.579 357.043 C 342.392 357.043 344.671 354.763 344.671 351.951 C 344.671 349.139 342.392 346.859 339.579 346.859 Z " fill="#FFFFFF"/></g></svg>