<?xml version="1.0" encoding="UTF-8" standalone="no"?><!-- Generator: Gravit.io --><svg xmlns="http://www.w3.org/2000/svg" xmlns:xlink="http://www.w3.org/1999/xlink" style="isolation:isolate" viewBox="833.479 34.829 272.551 560.05" width="272.551pt" height="560.05pt"><g><path d=" M 1064.77 34.829 L 959.874 34.829 C 937.089 34.829 918.618 53.3 918.618 76.085 L 918.618 270.215 L 874.735 270.215 C 851.95 270.215 833.479 288.686 833.479 311.471 L 833.479 516.128 C 833.479 538.913 851.95 557.384 874.735 557.384 L 895.141 557.384 C 905.055 578.1 880.447 594.879 880.447 594.879 C 920.937 592.383 924.81 562.676 925.178 557.384 L 967.251 557.384 C 990.036 557.384 1008.51 538.913 1008.51 516.128 L 1008.51 360.313 L 1064.77 360.313 C 1087.56 360.313 1106.03 341.842 1106.03 319.057 L 1106.03 76.085 C 1106.03 53.3 1087.56 34.829 1064.77 34.829 Z " fill="#FFFFFF"/></g></svg>