<?xml version="1.0" encoding="UTF-8" standalone="no"?><!-- Generator: Gravit.io --><svg xmlns="http://www.w3.org/2000/svg" xmlns:xlink="http://www.w3.org/1999/xlink" style="isolation:isolate" viewBox="1067.4 390.542 404.27 226.414" width="404.27pt" height="226.414pt"><g><path d=" M 1424.82 417.709 L 1123.41 390.75 C 1093.32 388.059 1067.4 411.765 1067.4 441.98 L 1067.4 468.939 C 1067.4 497.346 1090.42 520.374 1118.83 520.374 L 1228.44 520.374 C 1211.06 520.374 1196.96 534.464 1196.96 551.845 L 1196.96 551.845 C 1196.96 568.496 1209.93 582.265 1226.56 583.261 L 1348.07 590.537 C 1355.24 604.329 1339.3 616.956 1339.3 616.956 C 1365.58 615.336 1368.49 595.577 1368.8 591.778 L 1417.97 594.723 C 1436.06 595.806 1451.33 581.429 1451.33 563.308 L 1451.33 551.845 C 1451.33 534.464 1437.23 520.374 1419.85 520.374 L 1420.23 520.374 C 1448.64 520.374 1471.67 497.346 1471.67 468.939 L 1471.67 468.939 C 1471.67 442.309 1451.34 420.082 1424.82 417.709 Z " fill="#FFFFFF"/></g></svg>