<?xml version="1.0" encoding="UTF-8" standalone="no"?><!-- Generator: Gravit.io --><svg xmlns="http://www.w3.org/2000/svg" xmlns:xlink="http://www.w3.org/1999/xlink" style="isolation:isolate" viewBox="34.478 326.082 315.008 265.01" width="315.008pt" height="265.01pt"><g><path d=" M 349.485 411.674 C 349.485 382 323.06 357.945 290.461 357.945 C 274.224 357.945 259.521 363.915 248.85 373.573 C 249.759 370.99 250.238 368.315 250.238 365.575 C 250.238 343.763 219.974 326.082 182.641 326.082 C 145.307 326.082 115.042 343.763 115.042 365.575 C 115.042 365.863 115.069 366.147 115.08 366.435 C 110.245 359.396 102.143 354.778 92.959 354.778 C 78.146 354.778 66.137 366.787 66.137 381.6 C 66.137 385.265 66.875 388.757 68.206 391.939 C 49.148 393.864 34.478 405.677 34.478 419.97 C 34.478 430.623 42.63 439.897 54.671 444.729 C 43.693 454.875 37.081 467.931 37.081 482.181 C 37.081 514.482 71.021 540.667 112.889 540.667 C 133.24 540.667 151.704 534.468 165.321 524.399 C 181.92 534.427 205.402 540.683 231.437 540.683 C 236.283 540.683 241.039 540.464 245.679 540.047 C 245.648 540.314 245.616 540.581 245.616 540.853 C 245.616 546.819 253.125 551.656 262.389 551.656 C 271.652 551.656 279.162 546.819 279.162 540.853 C 279.162 538.326 277.804 536.006 275.546 534.167 C 303.556 525.271 322.519 508.17 322.519 488.53 C 322.519 478.974 318.026 470.019 310.19 462.317 C 333.084 454.926 349.485 435.048 349.485 411.674 Z " fill="#FFFFFF"/><path d=" M 287.968 568.111 C 287.968 564.516 283.443 561.602 277.862 561.602 C 272.28 561.602 267.755 564.516 267.755 568.111 C 267.755 571.706 272.28 574.62 277.862 574.62 C 283.443 574.62 287.968 571.706 287.968 568.111 Z " fill="#FFFFFF"/><path d=" M 289.041 583.591 C 285.825 583.591 283.218 585.27 283.218 587.341 C 283.218 589.413 285.825 591.092 289.041 591.092 C 292.257 591.092 294.865 589.413 294.865 587.341 C 294.865 585.27 292.257 583.591 289.041 583.591 Z " fill="#FFFFFF"/></g></svg>