<?xml version="1.0" encoding="UTF-8" standalone="no"?><!-- Generator: Gravit.io --><svg xmlns="http://www.w3.org/2000/svg" xmlns:xlink="http://www.w3.org/1999/xlink" style="isolation:isolate" viewBox="29.958 822.522 227.266 268.618" width="227.266pt" height="268.618pt"><g><path d=" M 66.84 951.737 C 66.84 951.737 26.216 994.556 30.238 1043.79 C 34.26 1093.01 97.052 1091.13 97.052 1091.13 L 190.275 1091.14 C 190.275 1091.14 256.536 1090.12 257.217 1046.64 C 257.899 1003.17 208.629 947.295 208.629 947.295 C 208.629 947.295 192.263 932.089 207.859 911.638 C 226.208 887.577 186.943 881.957 169.992 882.961 C 153.041 883.965 125.856 886.158 137.779 864.967 C 149.702 843.775 127.784 840.487 103.301 840.924 C 78.818 841.36 60.14 839.912 55.411 822.522 C 55.411 822.522 50.64 848.845 82.299 853.072 C 113.958 857.3 111.842 866.26 93.82 878.927 C 75.799 891.594 74.673 897.693 93.108 906.236 C 111.543 914.779 97.539 924.405 86.426 933.617 C 75.013 943.077 66.84 951.737 66.84 951.737 Z " fill="#FFFFFF"/></g></svg>