<?xml version="1.0" encoding="UTF-8" standalone="no"?><!-- Generator: Gravit.io --><svg xmlns="http://www.w3.org/2000/svg" xmlns:xlink="http://www.w3.org/1999/xlink" style="isolation:isolate" viewBox="1131.552 38.821 260.56 145.806" width="260.56pt" height="145.806pt"><g><path d=" M 1389.51 77.215 C 1377.84 45.019 1323.69 40.281 1266.56 39.718 C 1209.42 39.155 1115.72 30.969 1133.84 77.519 C 1140.03 89.043 1155.94 88.195 1155.94 88.195 C 1155.94 88.195 1178.88 88.876 1162.23 103.237 C 1148.51 115.065 1143.77 118.279 1143.77 118.279 C 1143.77 118.279 1121.07 132.154 1138.51 154.52 C 1152.92 173.008 1209.05 182.549 1306.78 150.121 C 1309.22 154.451 1315.14 157.51 1322.07 157.51 C 1331.17 157.51 1338.55 152.232 1338.55 145.721 C 1338.55 143.466 1337.65 141.367 1336.12 139.576 C 1348.12 134.945 1360.65 129.733 1373.72 123.892 C 1373.72 123.892 1400.37 107.184 1389.51 77.215 Z " fill="#FFFFFF"/><path d=" M 1339.87 158.954 C 1335.03 158.954 1331.12 161.754 1331.12 165.209 C 1331.12 168.664 1335.03 171.464 1339.87 171.464 C 1344.7 171.464 1348.61 168.664 1348.61 165.209 C 1348.61 161.754 1344.7 158.954 1339.87 158.954 Z " fill="#FFFFFF"/><path d=" M 1334.96 175.389 C 1331.39 175.389 1328.5 177.457 1328.5 180.008 C 1328.5 182.56 1331.39 184.627 1334.96 184.627 C 1338.53 184.627 1341.42 182.56 1341.42 180.008 C 1341.42 177.457 1338.53 175.389 1334.96 175.389 Z " fill="#FFFFFF"/></g></svg>