<?xml version="1.0" encoding="UTF-8" standalone="no"?><!-- Generator: Gravit.io --><svg xmlns="http://www.w3.org/2000/svg" xmlns:xlink="http://www.w3.org/1999/xlink" style="isolation:isolate" viewBox="795.851 786.439 418.681 143.358" width="418.681pt" height="143.358pt"><g><path d=" M 871.578 860.387 C 871.578 860.387 895.508 847.906 878.916 835.036 C 862.323 822.166 879.742 814.268 879.742 814.268 C 879.742 814.268 903.891 802.192 865.646 800.187 C 837.861 798.729 807.998 802.834 795.851 786.439 C 795.851 786.439 805.646 799.26 865.647 791.209 C 925.648 783.157 916.573 802.891 909.303 810.079 C 902.032 817.269 890.487 836.48 948.563 835.511 C 1006.64 834.542 1149.74 834.328 1149.74 834.328 C 1149.74 834.328 1216.45 833.183 1214.49 880.415 C 1212.53 927.648 1177.9 929.247 1151.13 929.628 C 1124.37 930.009 899.934 929.628 899.934 929.628 C 899.934 929.628 849.532 933.933 850.418 894.755 C 850.418 894.755 849.345 874.118 871.578 860.387 Z " fill="#FFFFFF"/></g></svg>