<?xml version="1.0" encoding="UTF-8" standalone="no"?><!-- Generator: Gravit.io --><svg xmlns="http://www.w3.org/2000/svg" xmlns:xlink="http://www.w3.org/1999/xlink" style="isolation:isolate" viewBox="338.411 40.006 282.315 297.209" width="282.315pt" height="297.209pt"><g><path d=" M 430.897 46.794 C 430.897 46.794 447.478 113.684 364.199 97.236 C 364.199 97.236 398.486 153.382 338.411 174.525 C 338.411 174.525 403.466 200.139 362.315 252.447 C 362.315 252.447 420.87 233.011 420.009 302.378 C 420.009 302.378 443.645 275.119 482.89 281.438 C 482.89 281.438 503.898 284.253 490.269 302.378 C 476.641 320.503 523.133 314.906 523.133 314.906 C 523.133 314.906 542.718 312.413 537.8 326.082 C 532.882 339.75 584.624 338.096 607.371 335.298 C 607.371 335.298 550.035 336.56 555.456 318.908 C 560.878 301.256 537.086 304.494 537.086 304.494 C 537.086 304.494 500.302 312.436 517.733 293.303 C 517.733 293.303 532.822 279.122 521.477 277.874 C 512.742 276.913 520.456 236.353 600.595 255.354 C 600.595 255.354 546.094 190.135 620.726 161.958 C 620.726 161.958 542.557 155.053 573.964 66.304 C 573.964 66.304 508.052 118.456 510.219 40.006 C 510.219 40.006 473.391 93.588 430.897 46.794 Z " fill="#FFFFFF"/></g></svg>