<?xml version="1.0" encoding="UTF-8" standalone="no"?><!-- Generator: Gravit.io --><svg xmlns="http://www.w3.org/2000/svg" xmlns:xlink="http://www.w3.org/1999/xlink" style="isolation:isolate" viewBox="585.496 578.986 329.008 242.41" width="329.008pt" height="242.41pt"><g><path d=" M 914.504 681.58 C 914.504 659.469 892.869 645.544 866.181 645.544 C 866.035 645.544 865.892 645.552 865.745 645.553 C 861.361 608.174 824.303 578.986 779.233 578.986 C 745.728 578.986 716.654 595.12 702.136 618.756 C 690.996 613.238 678.267 610.103 664.741 610.103 C 620.976 610.103 585.496 642.863 585.496 683.276 C 585.496 722.94 619.678 755.21 662.322 756.395 L 662.396 756.45 L 709.177 756.45 C 709.177 756.45 722.719 757.275 723.073 765.167 C 723.404 772.539 719.492 776.041 705.759 777.988 C 689.396 780.308 688.737 785.246 685.493 799.899 C 682.184 814.843 651.087 820.585 636.95 818.786 C 636.95 818.786 648.867 825.416 690.742 817.541 C 690.742 817.541 705.865 815.318 706.114 802.05 C 706.302 791.993 729.98 789.357 729.98 789.357 C 729.98 789.357 756.287 784.723 764.327 767.132 C 772.367 749.541 828.118 755.448 828.118 755.448 C 828.118 755.448 867.742 761.291 880.867 753.541 C 880.867 753.541 889.492 750.541 886.867 739.666 C 884.37 729.323 883.889 722.556 897.518 712.044 C 898.213 711.553 898.89 711.045 899.551 710.522 C 899.609 710.479 899.664 710.438 899.725 710.395 L 899.718 710.391 C 908.828 703.108 914.504 692.896 914.504 681.58 Z " fill="#FFFFFF"/></g></svg>