<?xml version="1.0" encoding="UTF-8" standalone="no"?><!-- Generator: Gravit.io --><svg xmlns="http://www.w3.org/2000/svg" xmlns:xlink="http://www.w3.org/1999/xlink" style="isolation:isolate" viewBox="941.68 532.667 284.18 277.345" width="284.18pt" height="277.345pt"><g><path d=" M 1225.86 646.813 C 1225.86 609.397 1194.72 579.065 1156.32 579.065 C 1149.16 579.065 1142.26 580.122 1135.76 582.08 C 1132.91 554.329 1109 532.667 1079.93 532.667 C 1048.93 532.667 1023.81 557.289 1023.81 587.661 C 1023.81 598.455 1026.99 608.514 1032.48 617.008 C 1032 616.977 1031.52 616.956 1031.04 616.956 C 1021.06 616.956 1012.64 623.657 1010.04 632.806 C 1006.59 632.182 1003.05 631.84 999.42 631.84 C 967.531 631.84 941.68 657.03 941.68 688.105 C 941.68 713.707 959.233 735.301 983.248 742.118 C 993.024 780.769 1038.65 810.012 1093.48 810.012 C 1155.43 810.012 1205.65 772.672 1205.65 726.61 C 1205.65 717.21 1203.56 708.173 1199.7 699.741 C 1215.64 687.327 1225.86 668.238 1225.86 646.813 Z " fill="#FFFFFF"/></g></svg>