<?xml version="1.0" encoding="UTF-8" standalone="no"?><!-- Generator: Gravit.io --><svg xmlns="http://www.w3.org/2000/svg" xmlns:xlink="http://www.w3.org/1999/xlink" style="isolation:isolate" viewBox="1389.14 1134.47 1055.08 652.59" width="1055.08pt" height="652.59pt"><path d=" M 1821.41 1758.65 C 1839.33 1759.21 1859.73 1760.29 1873.61 1773.18 C 1878.67 1777.89 1880.73 1784.42 1887.64 1787.06 C 1888.76 1779.86 1886.35 1771.39 1883.65 1764.74 C 1879.78 1755.25 1873.79 1746.05 1864.04 1741.41 C 1857.54 1738.32 1849.61 1736.7 1842.47 1735.83 C 1836.47 1735.14 1823.69 1736.22 1819.88 1730.3 C 1813.41 1720.25 1830.37 1713.23 1837.75 1712.41 C 1845.48 1711.55 1861.48 1707.44 1860.86 1696.97 C 1860.28 1687.22 1846.58 1683.98 1839.1 1682.12 C 1829.78 1679.77 1807.92 1678.31 1812.24 1674.52 C 1816.55 1670.73 2129.13 1674.52 2129.13 1674.52 C 2211.62 1674.52 2298.27 1665.94 2321.66 1655.46 C 2345.05 1644.99 2364.2 1579.27 2364.2 1566.87 C 2364.2 1554.42 2382.2 1535.38 2404.2 1524.51 C 2426.2 1513.63 2444.22 1429.13 2444.22 1392.03 C 2444.22 1354.91 2425.05 1268.97 2401.66 1258.51 C 2378.27 1248.05 2341.18 1239.48 2319.15 1239.48 C 2297.17 1239.48 2279.19 1234.98 2279.19 1229.52 C 2279.19 1224.01 2270.63 1200.37 2260.15 1177.02 C 2249.67 1153.62 2126.64 1134.47 2044.13 1134.47 L 1684.2 1134.47 C 1601.72 1134.47 1515.05 1143.04 1491.65 1153.53 C 1468.26 1163.99 1449.13 1224.85 1449.13 1231.36 C 1449.13 1237.88 1435.63 1252.92 1419.14 1264.76 C 1402.64 1276.6 1389.14 1354.89 1389.14 1391.99 C 1389.14 1429.13 1397.71 1478.59 1408.18 1501.98 C 1418.63 1525.35 1487.67 1544.5 1504.16 1544.5 C 1520.64 1544.5 1534.12 1554.63 1534.12 1566.97 C 1534.12 1579.34 1542.71 1608.59 1553.17 1631.99 C 1562.34 1652.48 1707.02 1668.67 1720.36 1671.86 C 1733.7 1675.05 1757.96 1687.39 1764.09 1690.7 C 1769.84 1693.83 1788.24 1700.84 1780.86 1709.97 C 1777.4 1714.27 1770.9 1716.26 1768.08 1721.54 C 1763.32 1730.48 1774.33 1743.88 1781.06 1748.6 C 1792.43 1756.52 1807.96 1758.21 1821.41 1758.65 Z " fill="rgb(255,255,255)"/></svg>