<?xml version="1.0" encoding="UTF-8" standalone="no"?><!-- Generator: Gravit.io --><svg xmlns="http://www.w3.org/2000/svg" xmlns:xlink="http://www.w3.org/1999/xlink" style="isolation:isolate" viewBox="265.938 382.989 846.352 652.601" width="846.352pt" height="652.601pt"><path d=" M 492.503 460.54 C 488.084 460.899 484.251 463.783 481.261 468.283 L 475.926 441.768 L 471.897 467.504 C 467.7 461.362 462.327 457.777 456.774 458.23 C 450.122 458.761 444.728 465.015 441.742 474.118 C 439.277 466.204 436.137 461.165 433.062 461.405 C 430.135 461.653 427.932 466.563 426.709 474.059 L 361.461 405.175 L 400.784 471.732 C 392.947 466.461 385.507 464.732 381.08 468.104 C 379.706 469.13 378.847 470.688 378.231 472.441 L 356.755 456.416 L 376.168 484.052 C 369.272 480.792 363.985 479.792 362.222 481.999 C 360.648 483.983 362.282 488.193 366.107 493.404 C 359.711 494.045 355.258 496.099 354.18 499.555 L 277.501 486.345 L 362.744 533.42 C 355.373 535.243 350.565 537.989 350.565 541.129 C 350.565 543.901 354.261 546.399 360.182 548.196 L 325.658 554.365 L 359.702 559.173 C 352.015 561.963 347.146 565.916 347.146 570.374 C 347.146 575.207 352.956 579.46 361.808 582.257 L 265.938 596.409 L 360.387 607.164 C 354.569 609.148 350.753 612.254 350.753 615.788 C 350.753 618.407 352.901 620.759 356.327 622.633 L 329.719 628.1 L 366.898 634.226 L 366.898 634.244 C 359.429 636.631 354.701 640.001 354.701 643.766 C 354.701 645.502 355.75 647.163 357.576 648.678 C 351.164 651.021 347.164 654.145 347.164 657.576 C 347.164 660.51 350.09 663.18 354.873 665.361 L 270.644 686.563 L 366.889 680.916 L 366.889 682.02 C 357.589 683.62 350.727 688.608 350.727 694.571 C 350.727 699.517 355.458 703.778 362.355 706.011 C 353.435 707.739 346.963 712.616 346.963 718.408 C 346.963 724.697 354.526 729.95 364.631 731.225 L 321.881 738.866 L 357.666 743.922 C 350.12 746.925 345.342 751.186 345.342 755.943 C 345.342 761.257 351.326 765.937 360.472 768.958 L 267.05 792.477 L 365.508 786.728 C 356.224 794.556 351.382 802.958 354.158 808.502 C 356.327 812.789 362.603 814.423 370.813 813.679 C 368.156 816.459 366.911 819.224 367.886 821.157 C 369.118 823.604 373.469 824.032 378.756 822.671 C 378.932 822.851 379.103 823.057 379.287 823.245 L 339.673 892.488 L 387.762 836.301 C 391.993 843.249 397.648 847.45 403.577 847.013 C 407.989 846.696 411.856 843.822 414.863 839.339 L 419.988 865.905 L 424.214 840.194 C 428.368 846.363 433.699 850.007 439.256 849.58 C 445.386 849.118 450.469 843.779 453.639 835.839 L 455.029 835.839 C 457.36 842.606 460.201 846.773 463.024 846.568 C 463.854 846.5 464.633 845.944 465.369 845.156 L 466.673 906.99 L 477.278 844.104 C 480.265 850.495 483.905 854.286 487.473 853.917 C 490.669 853.583 493.193 849.854 494.87 844.156 C 498.061 852.275 502.21 857.366 506.27 856.938 C 509.535 856.596 512.118 852.729 513.804 846.808 C 516.837 853.592 520.589 857.716 524.272 857.332 C 527.083 857.05 529.397 854.149 531.052 849.58 C 532.64 851 534.278 851.779 535.891 851.616 C 539.352 851.257 542.085 847.005 543.733 840.434 L 549.773 872.921 L 553.396 842.949 C 557.204 848.562 561.812 851.822 566.488 851.343 C 568.074 851.18 569.563 850.563 570.937 849.614 L 552.665 894.404 L 599.363 886.114 L 559.604 956.435 L 612.133 944.286 L 553.722 1035.59 L 636.621 930.237 L 597.053 936.663 L 628.591 874.084 L 590.624 882.648 L 611.628 847.834 C 615.941 851.325 620.749 853.199 625.634 852.48 C 629.806 851.856 633.374 849.443 636.317 845.96 L 642.216 871.474 L 644.106 846.739 C 646.614 849.255 649.403 850.572 652.158 850.17 C 655.589 849.666 658.306 846.628 659.986 842.145 C 664.859 847.073 670.651 849.777 676.479 848.912 C 680.653 848.289 684.239 845.883 687.169 842.384 L 693.073 867.907 L 694.883 844.122 C 697.304 847.766 699.884 849.734 702.283 849.375 C 703.549 849.203 704.64 848.237 705.578 846.894 L 707.109 896.963 L 715.819 842.12 C 720.067 847.09 725.191 850.016 730.574 849.571 C 733.034 849.375 735.297 848.356 737.415 846.944 L 741.812 870.688 L 744.52 848.356 C 746.509 849.46 748.542 850.127 750.642 849.965 C 755.304 849.58 759.219 845.738 762.017 839.877 C 763.617 845.054 765.636 848.305 767.6 848.143 C 769.957 847.962 771.604 843 772.151 835.822 C 775.412 844.66 779.779 850.239 784.04 849.802 C 786.226 849.571 788.079 847.646 789.605 844.694 C 792.818 847.826 796.373 849.554 799.997 849.203 C 804.643 848.725 808.51 844.865 811.218 839.082 L 813.802 923.315 L 826.875 841.05 C 829.797 846.979 833.279 850.495 836.698 850.145 C 839.889 849.811 842.417 846.089 844.094 840.374 C 847.286 848.502 851.435 853.583 855.486 853.165 C 857.476 852.977 859.174 851.394 860.624 848.938 L 864.659 870.688 L 867.52 847.107 C 870.968 851.146 874.908 853.421 878.93 853.02 C 883.247 852.565 886.874 849.023 889.475 843.667 C 892.649 851.497 896.691 856.399 900.679 855.997 C 902.895 855.766 904.782 853.79 906.317 850.777 L 910.005 870.704 L 912.653 848.93 C 915.036 851.497 917.77 852.917 920.563 852.634 C 924.55 852.215 927.729 848.434 929.53 842.949 C 931.861 846.251 934.394 848.117 936.892 847.86 C 939.527 847.586 941.748 845.071 943.374 840.998 L 969.674 909.437 L 958.641 848.365 C 960.823 851.274 963.091 852.917 965.216 852.592 C 967.779 852.215 969.726 849.203 971 844.54 C 973.961 850.325 977.297 853.712 980.378 853.259 C 982.62 852.917 984.377 850.547 985.648 846.833 L 999.244 861.704 L 991.873 845.858 C 993.776 846.962 995.727 847.569 997.648 847.287 C 1002.6 846.542 1006.27 840.904 1008.13 832.759 C 1013.31 838.209 1018.25 840.879 1021.55 839.271 C 1024.44 837.875 1025.52 833.461 1025.1 827.438 L 1076 854.474 L 1029.49 811.026 C 1035.43 809.401 1039.96 804.362 1040.36 798.047 C 1040.5 795.515 1039.91 793.128 1038.87 790.989 L 1075.55 783.554 L 1041.88 779.601 C 1042.37 778.292 1042.76 776.922 1042.85 775.46 C 1043.22 769.676 1040 764.525 1035.11 761.881 C 1043.08 760.375 1048.28 757.809 1048.48 754.557 C 1048.64 752.067 1045.73 749.604 1040.86 747.456 C 1046.62 744.795 1050.34 741.227 1050.6 737.018 C 1050.88 732.551 1047.27 728.308 1041.25 724.86 L 1109.23 717.451 L 1042.56 706.807 C 1049.72 703.667 1054.46 698.293 1054.46 692.176 C 1054.46 686.469 1050.29 681.456 1043.94 678.229 C 1048.87 675.851 1051.96 672.54 1051.96 668.861 C 1051.96 666.542 1050.63 664.403 1048.52 662.529 L 1076.81 656.788 L 1045.58 653.127 C 1047.22 651.416 1048.21 649.524 1048.21 647.522 C 1048.21 646 1047.58 644.536 1046.59 643.176 C 1049.18 641.157 1050.72 638.786 1050.72 636.229 C 1050.72 631.676 1046.02 627.672 1038.9 625.328 L 1104.76 610.159 L 1045.16 607.737 C 1047.81 604.572 1049.46 600.533 1049.46 596.058 C 1049.46 587.725 1043.87 580.769 1036.31 578.656 C 1041.87 576.439 1045.69 572.162 1045.69 567.182 C 1045.69 564.966 1044.87 562.921 1043.55 561.082 L 1079.74 549.685 L 1048.05 549.291 C 1049.72 547.837 1050.72 546.254 1050.72 544.594 C 1050.72 540.658 1045.5 537.167 1037.4 534.763 L 1112.29 505.425 L 1032.95 520.295 L 1032.95 519.192 C 1037.81 515.435 1040.41 509.822 1039.09 504.338 C 1038.22 500.71 1035.76 497.827 1032.44 495.944 L 1052.9 479.817 L 1029.19 488.484 C 1029.98 483.795 1029.28 479.86 1026.76 477.413 C 1023.54 474.281 1017.99 474.187 1011.54 476.445 C 1013.81 471.226 1014.27 467.034 1012.23 465.032 C 1009.99 462.851 1005.26 463.646 999.423 466.649 L 1010.35 411.138 L 977.263 471.885 C 975.86 466.692 973.499 463.261 970.504 462.953 C 966.825 462.585 963.103 467.051 960.506 474.076 C 959.659 468.283 957.906 464.434 955.562 464.185 C 953.85 464.023 952.126 465.743 950.534 468.72 C 948.849 465.811 946.689 463.971 944.16 463.723 C 941.302 463.432 938.492 465.289 936.066 468.523 C 933.979 463.158 930.963 459.633 927.322 459.265 C 923.096 458.847 918.865 462.576 915.442 468.925 L 911.656 400.324 L 894.985 465.896 C 891.387 462.859 887.387 461.148 883.225 461.49 C 878.289 461.901 873.997 465.049 870.703 469.875 C 869.244 465.725 866.985 463.005 864.346 462.919 C 862.044 462.842 859.918 464.775 858.237 467.941 C 855.345 460.908 851.191 456.484 846.452 456.322 C 841.138 456.143 836.257 461.464 832.813 469.79 L 828.548 388.166 L 820.043 472.236 C 816.223 465.545 811.295 461.533 806.191 461.953 C 800.938 462.371 796.643 467.445 793.952 475.017 L 792.874 475.017 L 784.882 443.454 L 779.3 475.017 L 778.307 475.017 C 774.337 467.907 769.084 463.543 763.634 463.997 C 758.723 464.382 754.59 468.583 751.78 475.017 L 751.257 475.017 C 749.135 468.001 746.569 463.637 744.104 463.843 C 741.765 464.04 739.959 468.301 738.963 475.017 L 738.363 475.017 L 724.957 393.033 L 713.419 473.768 C 710.591 466.983 706.176 462.619 701.53 462.987 C 698.074 463.269 695.165 466.119 693.209 470.482 C 688.667 465.238 683.054 462.174 677.181 462.646 C 672.983 462.987 669.245 465.161 666.096 468.454 L 661.865 442.599 L 658.494 466.229 C 656.321 462.439 653.878 460.292 651.448 460.489 C 648.321 460.746 645.81 464.853 644.218 471.278 L 634.956 382.989 L 624.574 469.011 C 621.785 463.005 618.367 459.394 614.944 459.667 C 612.159 459.908 609.806 462.68 608.057 467.12 C 603.813 462.123 598.657 459.188 593.272 459.625 C 588.044 460.061 583.552 463.586 580.198 468.942 C 577.875 465.383 575.3 463.373 572.707 463.569 C 569.238 463.86 566.419 468.069 564.622 474.598 L 559.288 441.974 L 555.925 465.614 C 552.871 462.328 549.452 460.48 545.94 460.763 C 540.756 461.19 536.482 466.067 533.778 473.417 C 531.254 464.04 527.793 458.025 524.447 458.281 C 522.3 458.461 520.542 461.293 519.289 465.793 L 506.142 399.434 L 501.487 463.432 C 498.66 461.396 495.618 460.283 492.503 460.54 Z " fill="rgb(255,255,255)"/></svg>