<?xml version="1.0" encoding="UTF-8" standalone="no"?><!-- Generator: Gravit.io --><svg xmlns="http://www.w3.org/2000/svg" xmlns:xlink="http://www.w3.org/1999/xlink" style="isolation:isolate" viewBox="283.94 1134.473 810.338 652.59" width="810.338pt" height="652.59pt"><path d=" M 1066.92 1462.86 C 1101.51 1424.7 1103.58 1370.2 1071.53 1341.19 C 1070.02 1339.82 1068.42 1338.6 1066.83 1337.4 C 1076.16 1324.5 1081.73 1308.7 1081.73 1291.56 C 1081.73 1248.42 1046.83 1213.44 1003.69 1213.3 C 999.843 1180.42 972.592 1149.83 933.397 1138.69 C 894.617 1127.66 855.799 1138.98 835.038 1164.31 C 820.723 1148.64 800.172 1138.72 777.259 1138.72 C 745.157 1138.72 717.616 1158.08 705.53 1185.71 C 691.468 1164.86 667.619 1151.15 640.582 1151.15 C 608.792 1151.15 581.52 1170.11 569.233 1197.31 C 541.5 1177.46 492.414 1174.83 443.487 1193.64 C 379.381 1218.29 339.716 1270.42 354.107 1310.64 C 314.685 1314.7 283.94 1348.01 283.94 1388.51 C 283.94 1414.24 296.41 1437.01 315.58 1451.26 C 299.743 1476.54 298.146 1512.89 314.321 1546.12 C 327.815 1573.83 350.634 1593.12 375.022 1600.62 C 388.014 1624.26 413.108 1641.43 443.003 1645.52 C 440.992 1652.95 441.087 1660.61 443.132 1668 C 433.806 1669.06 425.087 1672.98 418.648 1680.17 C 408.348 1691.64 406.653 1707.93 412.411 1722.6 C 406.628 1722.25 400.801 1723.49 395.642 1726.69 C 381.417 1735.46 377.691 1755.18 387.27 1770.68 C 396.865 1786.2 416.159 1791.64 430.375 1782.88 C 440.774 1776.46 445.493 1764.17 443.564 1751.97 C 459.423 1757.19 476.585 1753.93 487.409 1741.86 C 495.066 1733.32 498.044 1722.08 496.709 1710.88 C 522.574 1714.3 546.753 1702.43 554.162 1680.83 C 556.456 1674.15 556.858 1667.2 555.72 1660.4 C 558.765 1660.28 561.662 1659.89 564.613 1659.59 C 572.186 1664.48 580.451 1668.72 589.447 1671.99 C 618.704 1682.67 648.762 1681.54 672.598 1671.18 C 686.297 1684.08 705.783 1692.21 727.45 1692.21 C 744.751 1692.21 760.623 1687.03 773.328 1678.4 C 786.911 1690.34 804.702 1697.65 824.206 1697.65 C 857.89 1697.65 886.463 1676.03 896.987 1645.95 C 919.797 1647.29 944.665 1640.91 966.97 1626.18 C 982.269 1616.06 994.427 1603.26 1003.07 1589.28 C 1035.93 1575.98 1059.01 1544.73 1059.01 1508.29 C 1059.01 1496.91 1056.69 1486.07 1052.6 1476.07 C 1057.63 1472.18 1062.45 1467.82 1066.92 1462.86 Z " fill="rgb(255,255,255)"/></svg>