<?xml version="1.0" encoding="UTF-8" standalone="no"?><!-- Generator: Gravit.io --><svg xmlns="http://www.w3.org/2000/svg" xmlns:xlink="http://www.w3.org/1999/xlink" style="isolation:isolate" viewBox="7897.99 1139.42 830.73 502.14" width="830.73pt" height="502.14pt"><path d=" M 7987.64 1639.77 L 8118.25 1579.33 L 8143.34 1631.24 L 8207.37 1590.35 L 8247.24 1641.56 L 8295.23 1576.32 L 8368.12 1640.93 L 8399.64 1560.79 L 8529.04 1638.19 L 8479.74 1523.73 L 8592.25 1526.47 L 8526 1455.2 L 8728.72 1420.82 L 8542.32 1360.57 L 8631.7 1264.93 L 8485.94 1302.67 L 8534.55 1158.27 L 8379.54 1242.29 L 8341.5 1157.45 L 8261.65 1254.82 L 8150.19 1139.42 L 8134.24 1265.64 L 7990.38 1232.84 L 8041.86 1345.25 L 7904.45 1339.2 L 7987.26 1445.31 L 7897.99 1495.84 L 8022.67 1545.7 L 7987.64 1639.77 Z " fill="rgb(255,255,255)"/></svg>