<?xml version="1.0" encoding="UTF-8" standalone="no"?><!-- Generator: Gravit.io --><svg xmlns="http://www.w3.org/2000/svg" xmlns:xlink="http://www.w3.org/1999/xlink" style="isolation:isolate" viewBox="7892.65 296.946 841.41 552.022" width="841.41pt" height="552.022pt"><path d=" M 8696.65 473.053 L 8729.39 426.304 L 8670.17 415.382 L 8682.64 362.399 L 8615.61 381.102 L 8606.25 318.764 L 8564.19 359.293 L 8542.36 296.946 L 8508.06 351.499 L 8459.76 301.622 L 8448.86 360.851 L 8391.19 328.12 L 8397.44 385.787 L 8333.52 379.541 L 8341.84 406.557 C 8319.44 404.516 8296.37 403.403 8272.79 403.403 C 8062.85 403.403 7892.65 487.949 7892.65 592.242 C 7892.67 663.911 7973.07 726.258 8091.51 758.254 C 8085.19 788.007 8072.82 823.685 8048.36 848.968 C 8091.85 840.275 8138.74 814.334 8161.26 772.786 C 8196.52 778.176 8233.98 781.068 8272.79 781.068 C 8449.47 781.068 8597.99 721.198 8640.61 640.062 L 8662.36 644.502 L 8656.13 600.866 L 8713.8 582.164 L 8690.41 536.962 L 8734.06 504.231 L 8696.65 473.053 Z " fill="rgb(255,255,255)"/></svg>