<?xml version="1.0" encoding="UTF-8" standalone="no"?><!-- Generator: Gravit.io --><svg xmlns="http://www.w3.org/2000/svg" xmlns:xlink="http://www.w3.org/1999/xlink" style="isolation:isolate" viewBox="5436.9 321.232 638.99 503.45" width="638.99pt" height="503.45pt"><path d=" M 5436.9 464.579 C 5436.9 528.714 5602.97 592.713 5602.97 592.713 C 5619.46 597.449 5620.81 607.399 5605.96 614.808 C 5605.96 614.808 5541.31 647.099 5541.31 678.003 C 5541.31 712.12 5584.82 742.215 5651.02 760.046 C 5637.14 781.372 5611.89 804.499 5566.71 824.682 C 5647.15 824.682 5693.19 799.63 5719.44 772.932 C 5742.2 775.635 5766.32 777.111 5791.31 777.111 C 5929.37 777.111 6041.31 732.735 6041.31 677.994 C 6041.31 640.574 5940.48 602.12 5940.48 602.12 C 5924.69 596.11 5924.73 586.309 5940.59 580.362 C 5940.59 580.362 6075.89 519.418 6075.89 464.579 C 6075.89 385.423 5941.58 321.232 5741.87 321.232 C 5542.17 321.232 5436.9 385.428 5436.9 464.579 Z " fill="rgb(255,255,255)"/></svg>