<?xml version="1.0" encoding="UTF-8" standalone="no"?><!-- Generator: Gravit.io --><svg xmlns="http://www.w3.org/2000/svg" xmlns:xlink="http://www.w3.org/1999/xlink" style="isolation:isolate" viewBox="297.849 646.378 259.776 145.695" width="259.776pt" height="145.695pt"><g><path d=" M 521.545 696.698 L 436.07 696.698 C 449.965 696.698 461.23 685.434 461.23 671.538 L 461.23 671.538 C 461.23 657.643 449.965 646.378 436.07 646.378 L 350.797 646.378 C 336.901 646.378 325.636 657.643 325.636 671.538 L 325.636 671.538 C 325.636 685.434 336.901 696.698 350.797 696.698 L 333.929 696.698 C 314.003 696.698 297.849 712.852 297.849 732.778 L 297.849 732.778 C 297.849 752.705 314.003 768.858 333.929 768.858 L 355.203 768.858 C 355.203 768.858 355.388 790.412 382.338 792.073 C 382.338 792.073 367.017 781.639 373.662 768.858 L 521.545 768.858 C 541.471 768.858 557.625 752.705 557.625 732.778 L 557.625 732.778 C 557.625 712.852 541.471 696.698 521.545 696.698 Z " fill="#FFFFFF"/></g></svg>