<?xml version="1.0" encoding="UTF-8" standalone="no"?><!-- Generator: Gravit.io --><svg xmlns="http://www.w3.org/2000/svg" xmlns:xlink="http://www.w3.org/1999/xlink" style="isolation:isolate" viewBox="19.623 293.67 117.5 20.329" width="117.5pt" height="20.329pt"><path d=" M 85.751 296.575 C 85.44 298.793 85.776 299.886 87.247 301.88 C 87.967 299.821 87.345 298.25 85.751 296.575 Z  M 72.933 303.582 C 73.264 301.477 73.329 299.823 72.634 298.217 C 72.39 297.652 72.095 296.859 71.317 297.032 C 70.533 297.206 70.58 298.02 70.671 298.646 C 70.917 300.343 71.613 301.849 72.933 303.582 Z  M 54.505 305.656 C 55.833 303.431 55.68 300.014 54.217 298.145 C 53.829 297.649 53.399 297.023 52.657 297.324 C 52.04 297.575 51.694 298.151 51.658 298.854 C 51.517 301.568 52.471 303.807 54.505 305.656 Z  M 137.123 301.155 C 137.022 301.229 136.92 301.367 136.819 301.367 C 131.096 301.365 125.849 303.416 120.513 305.104 C 115.315 306.75 110.223 308.764 104.822 309.722 C 99.283 310.704 93.928 310.158 88.887 307.59 C 87.775 307.023 87.325 307.271 86.699 308.183 C 84.953 310.726 82.462 311.684 79.418 311.412 C 77.392 311.231 75.429 310.857 73.629 309.886 C 72.923 309.505 72.449 309.441 71.762 310.066 C 66.374 314.961 60.786 315.273 54.78 311.077 C 54.243 310.702 53.819 310.294 53.06 310.685 C 49.505 312.515 45.713 312.437 41.895 311.925 C 37.414 311.325 33.3 309.743 29.456 307.353 C 25.137 304.667 22.236 300.849 20.208 296.277 C 20.064 295.951 19.963 295.603 19.859 295.26 C 19.697 294.725 19.338 294.058 20.043 293.748 C 20.812 293.41 20.939 294.256 21.224 294.688 C 26.744 303.064 34.515 307.806 44.441 309.021 C 46.585 309.284 48.748 309.229 50.862 308.675 C 51.195 308.588 51.548 308.471 51.796 308.046 C 51.036 306.259 50.334 304.388 49.952 302.403 C 49.728 301.243 49.764 300.122 50.024 298.996 C 50.299 297.812 50.874 296.851 52.15 296.524 C 53.528 296.172 54.501 296.846 55.337 297.828 C 56.002 298.607 56.418 299.521 56.715 300.489 C 57.319 302.452 57.576 304.467 56.809 306.405 C 56.385 307.478 56.741 307.97 57.537 308.522 C 60.148 310.335 62.855 311.704 66.175 310.723 C 67.505 310.329 68.667 309.646 69.763 308.809 C 70.577 308.188 70.864 307.641 70.091 306.715 C 69.068 305.49 68.471 304.008 68.046 302.471 C 67.586 300.805 67.701 299.19 68.612 297.688 C 69.922 295.53 72.092 295.473 73.414 297.606 C 74.381 299.17 74.779 300.915 74.648 302.761 C 74.618 303.188 74.594 303.634 74.455 304.033 C 73.675 306.271 74.939 307.571 76.594 308.635 C 79.786 310.688 83.388 309.943 85.517 306.913 C 86.031 306.182 86.024 305.721 85.361 305.103 C 84.019 303.853 83.101 302.33 82.731 300.499 C 82.586 299.78 82.56 299.091 82.736 298.371 C 83.114 296.821 83.864 295.902 84.975 295.794 C 86.406 295.653 87.258 296.513 87.877 297.633 C 88.657 299.044 89.19 300.599 88.805 302.182 C 88.405 303.823 89.092 304.726 90.322 305.566 C 94.435 308.378 99.008 308.784 103.751 308.11 C 108.611 307.42 113.201 305.691 117.869 304.263 C 122.531 302.835 127.109 301.062 132.028 300.623 C 133.391 300.501 134.751 300.406 136.118 300.538 C 136.546 300.579 136.998 300.598 137.123 301.155 Z " fill="rgb(0,0,0)"/></svg>