<?xml version="1.0" encoding="UTF-8" standalone="no"?><!-- Generator: Gravit.io --><svg xmlns="http://www.w3.org/2000/svg" xmlns:xlink="http://www.w3.org/1999/xlink" style="isolation:isolate" viewBox="158.351 71.738 183.286 25.092" width="183.286pt" height="25.092pt"><g><path d=" M 225.741 90.419 C 225.152 89.372 225.037 88.495 224.023 88.269 C 223.788 88.216 223.571 88.484 223.596 88.681 C 223.724 89.684 224.431 90.062 225.741 90.419 Z  M 236.307 88.92 C 235.849 88.93 235.539 89.087 235.472 89.511 C 235.359 90.212 236.367 91.221 237.146 91.198 C 237.481 91.188 237.723 90.997 237.654 90.659 C 237.489 89.852 237.19 89.12 236.307 88.92 Z  M 213.02 93.005 C 210.418 93.359 210.373 93.39 209.861 94.91 C 211.095 94.822 211.884 94.093 213.02 93.005 Z  M 223.77 93.114 C 221.317 93.618 221.081 93.807 220.818 95.395 C 222.144 94.98 223.034 94.158 223.77 93.114 Z  M 190.456 87.497 C 190.503 86.048 190.363 84.947 189.251 84.203 C 189.175 84.152 188.775 84.362 188.754 84.488 C 188.534 85.808 189.198 86.661 190.456 87.497 Z  M 214.798 90.368 C 214.798 89.314 214.234 88.692 213.791 88.036 C 213.509 87.619 213.057 87.445 212.635 87.791 C 212.222 88.127 212.307 88.616 212.579 89.011 C 213.05 89.696 213.579 90.333 214.798 90.368 Z  M 237.137 93.15 C 235.673 92.94 234.726 93.604 233.804 94.325 C 233.558 94.518 233.378 94.845 233.529 95.102 C 233.729 95.444 234.141 95.508 234.517 95.376 C 235.595 94.999 236.441 94.336 237.137 93.15 Z  M 162.854 77.316 C 161.906 74.57 161.566 74.13 159.877 73.298 C 159.795 75.317 161.119 76.196 162.854 77.316 Z  M 172.547 90.144 C 174.492 89.977 175.717 89.14 176.925 87.103 C 175.181 87.881 173.438 88.301 172.547 90.144 Z  M 201.238 89.752 C 201.462 88.121 201.034 87 200.395 85.931 C 200.208 85.618 199.956 85.298 199.521 85.48 C 199.137 85.641 199.003 86.02 199.041 86.395 C 199.182 87.772 199.853 88.803 201.238 89.752 Z  M 180.035 84.358 C 180.213 82.951 179.766 81.737 179.026 80.605 C 178.867 80.361 178.646 80.135 178.317 80.211 C 177.992 80.286 177.868 80.572 177.805 80.867 C 177.531 82.161 178.458 83.632 180.035 84.358 Z  M 169.625 81.618 C 170.141 80.032 169.812 78.858 169.375 77.7 C 169.244 77.351 168.98 76.96 168.593 77.032 C 168.12 77.12 167.944 77.593 167.922 78.053 C 167.859 79.38 168.319 80.483 169.625 81.618 Z  M 195.614 94.573 C 197.749 94.549 199.026 93.141 200.47 91.313 C 198.142 91.689 196.599 92.638 195.614 94.573 Z  M 188.242 89.77 C 186.74 89.952 185.369 90.338 184.391 91.555 C 184.103 91.913 183.931 92.371 184.25 92.775 C 184.593 93.207 185.075 93.045 185.457 92.817 C 186.671 92.094 187.587 91.081 188.242 89.77 Z  M 167.706 83.105 C 165.832 82.967 164.204 83.539 162.736 84.591 C 162.438 84.805 162.16 85.112 162.426 85.516 C 162.611 85.798 162.953 85.773 163.238 85.71 C 164.981 85.328 166.527 84.574 167.706 83.105 Z  M 233.893 90.835 C 234.124 90.386 233.916 90.022 233.926 89.658 C 233.956 88.656 234.45 87.95 235.407 87.617 C 236.442 87.256 237.329 87.519 238.047 88.339 C 238.5 88.856 238.884 89.457 238.979 90.118 C 239.159 91.376 239.967 91.599 241.038 91.732 C 244.244 92.131 247.416 92.74 250.546 93.547 C 251.492 93.791 252.428 94.088 253.156 94.801 C 253.443 95.082 253.642 95.429 253.412 95.796 C 253.173 96.178 252.806 96.115 252.433 95.914 C 248.839 93.969 244.791 93.861 240.91 93.081 C 240.117 92.922 239.462 93.141 238.875 93.739 C 238.14 94.488 237.344 95.18 236.541 95.858 C 235.961 96.347 235.291 96.693 234.522 96.794 C 233.559 96.921 232.714 96.738 232.203 95.814 C 231.737 94.974 231.961 94.223 232.567 93.546 C 232.81 93.275 233.062 93.013 233.47 92.574 C 231.376 92.053 229.449 92.121 227.533 92.182 C 226.731 92.207 226.223 92.856 225.708 93.407 C 224.731 94.452 223.728 95.471 222.481 96.199 C 221.119 96.993 220.055 96.947 219.428 96.108 C 218.784 95.247 218.987 94.333 220.101 93.134 C 220.302 92.916 220.531 92.725 220.973 92.309 C 218.476 91.896 216.293 91.507 214.464 93.559 C 213.308 94.856 211.994 95.995 210.205 96.356 C 209.504 96.497 208.851 96.398 208.396 95.762 C 207.949 95.135 208.009 94.484 208.376 93.856 C 208.563 93.537 208.801 93.237 209.06 92.972 C 209.369 92.656 209.726 92.387 210.413 91.796 C 207.722 91.611 205.388 91.434 203.052 91.301 C 202.365 91.262 202.024 91.863 201.629 92.298 C 200.769 93.246 199.908 94.188 198.88 94.959 C 198.155 95.504 197.398 95.997 196.489 96.168 C 195.632 96.329 194.815 96.27 194.288 95.449 C 193.773 94.649 193.99 93.884 194.454 93.129 C 195.05 92.162 196.188 91.759 197.129 90.618 C 195.035 90.315 193.269 89.807 191.398 89.806 C 190.725 89.806 190.263 90.116 189.843 90.57 C 189.282 91.176 188.726 91.789 188.155 92.385 C 187.583 92.982 186.996 93.567 186.258 93.966 C 184.924 94.685 183.628 94.564 182.987 93.664 C 182.361 92.784 182.552 91.369 183.551 90.385 C 184.179 89.766 184.945 89.286 185.757 88.66 C 183.993 87.918 182.213 87.666 180.491 87.21 C 179.79 87.025 179.342 87.406 178.888 87.797 C 177.977 88.582 177.095 89.399 176.174 90.172 C 175.423 90.803 174.601 91.353 173.648 91.618 C 172.759 91.865 171.817 91.997 171.234 91.029 C 170.73 90.193 171.106 89.436 171.626 88.748 C 172.181 88.014 172.931 87.511 173.715 87.058 C 174.352 86.69 174.995 86.332 176.062 85.728 C 174.145 84.981 172.588 84.366 171.024 83.771 C 170.3 83.495 169.747 83.869 169.163 84.26 C 167.917 85.095 166.707 86.001 165.286 86.538 C 164.37 86.883 163.445 87.231 162.44 87.095 C 160.762 86.868 160.197 85.507 161.215 84.157 C 161.775 83.415 162.559 82.967 163.391 82.601 C 164.187 82.25 164.991 81.92 165.999 81.494 C 164.378 80.308 162.946 79.245 161.497 78.205 C 160.572 77.541 159.734 76.791 159.123 75.828 C 158.846 75.39 158.585 74.91 158.46 74.412 C 158.229 73.488 158.315 72.572 159.219 72.017 C 160.137 71.452 160.971 71.816 161.666 72.486 C 163.283 74.043 164.216 76.019 164.77 78.139 C 165.021 79.103 165.425 79.559 166.401 79.611 C 166.654 78.707 166.322 77.766 166.768 76.93 C 167.169 76.176 167.622 75.476 168.579 75.437 C 169.433 75.401 169.946 75.96 170.372 76.612 C 171.193 77.871 171.317 79.316 171.282 80.736 C 171.251 82.013 171.764 82.666 172.931 83.028 C 174.328 83.461 175.637 84.183 177.139 84.459 C 177.289 83.623 176.778 83.191 176.6 82.651 C 176.307 81.764 176.218 80.88 176.581 80.007 C 177.256 78.383 178.844 78.125 179.941 79.508 C 181.051 80.908 181.578 82.571 181.507 84.344 C 181.454 85.671 182.012 86.233 183.257 86.453 C 184.721 86.711 186.16 87.108 187.741 87.476 C 187.941 86.52 187.293 85.925 187.261 85.207 C 187.214 84.153 187.44 83.245 188.453 82.743 C 189.286 82.33 190.156 82.721 190.906 83.794 C 191.57 84.746 191.896 85.816 191.906 86.971 C 191.914 87.959 192.332 88.461 193.361 88.579 C 194.916 88.757 196.458 89.055 197.947 89.293 C 198.541 88.661 198.028 88.218 197.885 87.771 C 197.675 87.109 197.583 86.443 197.707 85.772 C 197.883 84.82 198.393 84.089 199.389 83.868 C 200.347 83.655 200.949 84.249 201.434 84.954 C 202.171 86.026 202.547 87.244 202.745 88.52 C 202.87 89.324 203.127 89.927 204.124 89.953 C 206.445 90.013 208.751 90.443 211.062 90.29 C 211.577 89.719 211.01 89.294 210.944 88.825 C 210.776 87.638 211.256 86.707 212.301 86.284 C 213.377 85.848 214.215 86.218 214.84 87.119 C 215.225 87.672 215.667 88.233 215.863 88.859 C 216.305 90.27 217.244 90.651 218.606 90.568 C 219.869 90.492 221.14 90.552 222.402 90.552 C 222.628 90.048 222.235 89.691 222.129 89.27 C 221.869 88.237 222.316 87.506 223.176 87.013 C 224.096 86.486 224.958 86.693 225.579 87.503 C 226.122 88.213 226.569 89.006 226.987 89.8 C 227.291 90.377 227.634 90.766 228.343 90.778 C 229.845 90.804 231.346 90.885 232.848 90.923 C 233.212 90.932 233.58 90.864 233.893 90.835 Z " fill="rgb(0,0,0)"/><path d=" M 276.392 88.681 C 276.417 88.484 276.2 88.216 275.965 88.269 C 274.951 88.495 274.836 89.372 274.247 90.419 C 275.557 90.062 276.265 89.684 276.392 88.681 Z  M 262.334 90.659 C 262.265 90.997 262.507 91.188 262.842 91.198 C 263.621 91.221 264.629 90.212 264.517 89.511 C 264.449 89.087 264.139 88.93 263.681 88.92 C 262.798 89.12 262.499 89.852 262.334 90.659 Z  M 290.127 94.91 C 289.615 93.39 289.569 93.359 286.968 93.005 C 288.104 94.093 288.893 94.822 290.127 94.91 Z  M 279.17 95.395 C 278.907 93.807 278.671 93.618 276.218 93.114 C 276.954 94.158 277.845 94.98 279.17 95.395 Z  M 311.233 84.488 C 311.213 84.362 310.812 84.152 310.737 84.203 C 309.625 84.947 309.484 86.048 309.532 87.497 C 310.79 86.661 311.454 85.808 311.233 84.488 Z  M 287.409 89.011 C 287.681 88.616 287.767 88.127 287.353 87.791 C 286.932 87.445 286.478 87.619 286.197 88.036 C 285.754 88.692 285.19 89.314 285.19 90.368 C 286.409 90.333 286.937 89.696 287.409 89.011 Z  M 265.472 95.376 C 265.847 95.508 266.259 95.444 266.459 95.102 C 266.609 94.845 266.43 94.518 266.185 94.325 C 265.263 93.604 264.314 92.94 262.851 93.15 C 263.547 94.336 264.393 94.999 265.472 95.376 Z  M 340.11 73.298 C 338.422 74.13 338.082 74.57 337.134 77.316 C 338.869 76.196 340.192 75.317 340.11 73.298 Z  M 323.062 87.103 C 324.271 89.14 325.495 89.977 327.44 90.144 C 326.55 88.301 324.808 87.881 323.062 87.103 Z  M 300.946 86.395 C 300.984 86.02 300.852 85.641 300.467 85.48 C 300.032 85.298 299.779 85.618 299.593 85.931 C 298.954 87 298.525 88.121 298.75 89.752 C 300.136 88.803 300.806 87.772 300.946 86.395 Z  M 322.183 80.867 C 322.12 80.572 321.996 80.286 321.671 80.211 C 321.342 80.135 321.121 80.361 320.962 80.605 C 320.223 81.737 319.775 82.951 319.953 84.358 C 321.529 83.632 322.457 82.161 322.183 80.867 Z  M 332.066 78.053 C 332.044 77.593 331.868 77.12 331.395 77.032 C 331.008 76.96 330.744 77.351 330.612 77.7 C 330.176 78.858 329.848 80.032 330.362 81.618 C 331.669 80.483 332.129 79.38 332.066 78.053 Z  M 299.519 91.313 C 300.962 93.141 302.238 94.549 304.374 94.573 C 303.389 92.638 301.847 91.689 299.519 91.313 Z  M 314.531 92.817 C 314.913 93.045 315.395 93.207 315.737 92.775 C 316.057 92.371 315.885 91.913 315.598 91.555 C 314.619 90.338 313.248 89.952 311.746 89.77 C 312.401 91.081 313.316 92.094 314.531 92.817 Z  M 336.75 85.71 C 337.034 85.773 337.377 85.798 337.562 85.516 C 337.828 85.112 337.55 84.805 337.252 84.591 C 335.784 83.539 334.156 82.967 332.281 83.105 C 333.461 84.574 335.007 85.328 336.75 85.71 Z  M 267.141 90.923 C 268.642 90.885 270.143 90.804 271.645 90.778 C 272.353 90.766 272.696 90.377 273.001 89.8 C 273.419 89.006 273.866 88.213 274.409 87.503 C 275.029 86.693 275.893 86.486 276.811 87.013 C 277.672 87.506 278.119 88.237 277.858 89.27 C 277.753 89.691 277.359 90.048 277.586 90.552 C 278.848 90.552 280.119 90.492 281.382 90.568 C 282.744 90.651 283.683 90.27 284.125 88.859 C 284.321 88.233 284.763 87.672 285.147 87.119 C 285.773 86.218 286.61 85.848 287.687 86.284 C 288.732 86.707 289.212 87.638 289.044 88.825 C 288.978 89.294 288.411 89.719 288.926 90.29 C 291.237 90.443 293.543 90.013 295.864 89.953 C 296.86 89.927 297.118 89.324 297.243 88.52 C 297.44 87.244 297.816 86.026 298.555 84.954 C 299.039 84.249 299.641 83.655 300.599 83.868 C 301.595 84.089 302.104 84.82 302.281 85.772 C 302.405 86.443 302.313 87.109 302.103 87.771 C 301.96 88.218 301.446 88.661 302.04 89.293 C 303.53 89.055 305.072 88.757 306.627 88.579 C 307.656 88.461 308.073 87.959 308.082 86.971 C 308.092 85.816 308.418 84.746 309.082 83.794 C 309.832 82.721 310.702 82.33 311.535 82.743 C 312.548 83.245 312.773 84.153 312.727 85.207 C 312.695 85.925 312.047 86.52 312.247 87.476 C 313.828 87.108 315.268 86.711 316.73 86.453 C 317.976 86.233 318.534 85.671 318.481 84.344 C 318.41 82.571 318.936 80.908 320.047 79.508 C 321.144 78.125 322.731 78.383 323.407 80.007 C 323.77 80.88 323.682 81.764 323.389 82.651 C 323.21 83.191 322.699 83.623 322.849 84.459 C 324.351 84.183 325.66 83.461 327.057 83.028 C 328.225 82.666 328.736 82.013 328.706 80.736 C 328.671 79.316 328.795 77.871 329.616 76.612 C 330.042 75.96 330.556 75.401 331.409 75.437 C 332.366 75.476 332.819 76.176 333.221 76.93 C 333.666 77.766 333.334 78.707 333.587 79.611 C 334.562 79.559 334.967 79.103 335.219 78.139 C 335.771 76.019 336.705 74.043 338.321 72.486 C 339.017 71.816 339.852 71.452 340.769 72.017 C 341.673 72.572 341.76 73.488 341.527 74.412 C 341.402 74.91 341.143 75.39 340.864 75.828 C 340.254 76.791 339.416 77.541 338.491 78.205 C 337.042 79.245 335.61 80.308 333.989 81.494 C 334.997 81.92 335.802 82.25 336.598 82.601 C 337.429 82.967 338.213 83.415 338.773 84.157 C 339.791 85.507 339.226 86.868 337.548 87.095 C 336.543 87.231 335.618 86.883 334.702 86.538 C 333.281 86.001 332.07 85.095 330.825 84.26 C 330.241 83.869 329.688 83.495 328.964 83.771 C 327.399 84.366 325.844 84.981 323.926 85.728 C 324.993 86.332 325.636 86.69 326.273 87.058 C 327.058 87.511 327.808 88.014 328.361 88.748 C 328.881 89.436 329.258 90.193 328.754 91.029 C 328.171 91.997 327.229 91.865 326.34 91.618 C 325.387 91.353 324.565 90.803 323.813 90.172 C 322.894 89.399 322.011 88.582 321.101 87.797 C 320.645 87.406 320.198 87.025 319.497 87.21 C 317.774 87.666 315.995 87.918 314.23 88.66 C 315.043 89.286 315.809 89.766 316.437 90.385 C 317.436 91.369 317.627 92.784 317.001 93.664 C 316.36 94.564 315.063 94.685 313.73 93.966 C 312.992 93.567 312.405 92.982 311.833 92.385 C 311.262 91.789 310.706 91.176 310.145 90.57 C 309.725 90.116 309.263 89.806 308.59 89.806 C 306.72 89.807 304.952 90.315 302.858 90.618 C 303.8 91.759 304.938 92.162 305.534 93.129 C 305.998 93.884 306.215 94.649 305.7 95.449 C 305.173 96.27 304.355 96.329 303.499 96.168 C 302.59 95.997 301.833 95.504 301.107 94.959 C 300.08 94.188 299.219 93.246 298.359 92.298 C 297.964 91.863 297.622 91.262 296.936 91.301 C 294.6 91.434 292.267 91.611 289.575 91.796 C 290.262 92.387 290.619 92.656 290.928 92.972 C 291.187 93.237 291.425 93.537 291.612 93.856 C 291.979 94.484 292.039 95.135 291.592 95.762 C 291.137 96.398 290.483 96.497 289.783 96.356 C 287.994 95.995 286.681 94.856 285.524 93.559 C 283.694 91.507 281.513 91.896 279.015 92.309 C 279.457 92.725 279.686 92.916 279.888 93.134 C 281.001 94.333 281.204 95.247 280.56 96.108 C 279.933 96.947 278.869 96.993 277.507 96.199 C 276.261 95.471 275.257 94.452 274.28 93.407 C 273.765 92.856 273.257 92.207 272.455 92.182 C 270.539 92.121 268.612 92.053 266.518 92.574 C 266.926 93.013 267.179 93.275 267.421 93.546 C 268.026 94.223 268.251 94.974 267.785 95.814 C 267.274 96.738 266.429 96.921 265.466 96.794 C 264.696 96.693 264.026 96.347 263.447 95.858 C 262.645 95.18 261.848 94.488 261.112 93.739 C 260.525 93.141 259.871 92.922 259.078 93.081 C 255.196 93.861 251.149 93.969 247.555 95.914 C 247.182 96.115 246.815 96.178 246.576 95.796 C 246.346 95.429 246.545 95.082 246.832 94.801 C 247.56 94.088 248.496 93.791 249.442 93.547 C 252.572 92.74 255.744 92.131 258.95 91.732 C 260.02 91.599 260.829 91.376 261.009 90.118 C 261.103 89.457 261.487 88.856 261.94 88.339 C 262.659 87.519 263.546 87.256 264.581 87.617 C 265.538 87.95 266.031 88.656 266.061 89.658 C 266.072 90.022 265.863 90.386 266.096 90.835 C 266.408 90.864 266.775 90.932 267.141 90.923 Z " fill="rgb(0,0,0)"/></g></svg>