<?xml version="1.0" encoding="UTF-8" standalone="no"?><!-- Generator: Gravit.io --><svg xmlns="http://www.w3.org/2000/svg" xmlns:xlink="http://www.w3.org/1999/xlink" style="isolation:isolate" viewBox="153.885 288.772 192.218 19.546" width="192.218pt" height="19.546pt"><g><path d=" M 236.191 298.313 C 236.546 297.528 236.5 296.896 236.173 296.292 C 235.986 295.947 235.645 295.761 235.256 295.973 C 234.969 296.13 234.858 296.429 234.961 296.756 C 235.146 297.348 235.452 297.859 236.191 298.313 Z  M 204.706 300.464 C 204.607 299.581 204.459 298.885 203.904 298.366 C 203.45 297.943 202.877 297.885 202.439 298.322 C 202.042 298.72 202.442 299.112 202.708 299.415 C 203.181 299.955 203.679 300.491 204.706 300.464 Z  M 213.608 301.011 C 212.667 301.208 211.888 301.314 211.365 302.009 C 211.03 302.455 211.005 302.954 211.443 303.332 C 211.831 303.667 212.261 303.505 212.602 303.189 C 213.151 302.681 213.578 302.097 213.608 301.011 Z  M 242.468 302.345 C 241.812 302.388 241.125 302.42 240.837 303.19 C 240.696 303.569 240.796 303.946 241.161 304.122 C 241.857 304.457 242.457 304.148 242.985 303.699 C 243.299 303.432 243.708 303.137 243.461 302.649 C 243.272 302.274 242.837 302.373 242.468 302.345 Z  M 186.959 299.741 C 186.097 299.74 185.687 300.315 186.088 301.042 C 186.478 301.745 186.987 302.357 187.865 302.479 C 188.174 302.521 188.499 302.516 188.624 302.163 C 188.942 301.275 187.878 299.742 186.959 299.741 Z  M 164.386 299.63 C 163.238 299.258 162.173 299.247 161.473 299.605 C 161.2 299.745 160.922 299.918 160.913 300.253 C 160.905 300.583 161.145 300.776 161.43 300.923 C 162.631 301.544 163.65 301.102 164.386 299.63 Z  M 228.577 300.323 C 228.63 299.749 228.299 299.614 227.912 299.59 C 226.936 299.53 225.743 300.57 225.791 301.436 C 225.822 301.995 226.124 302.333 226.703 302.363 C 227.578 302.409 228.557 301.298 228.577 300.323 Z  M 179.386 303.327 C 178.126 303.344 177.246 303.672 176.511 304.357 C 176.089 304.751 175.758 305.292 176.138 305.806 C 176.571 306.39 177.257 306.265 177.778 305.892 C 178.579 305.316 179.13 304.535 179.386 303.327 Z  M 220.795 297.126 C 220.797 295.993 220.005 294.851 219.173 294.784 C 218.549 294.734 217.947 295.235 217.918 295.827 C 217.874 296.764 219.027 297.981 219.965 298.018 C 220.612 298.043 220.821 297.704 220.795 297.126 Z  M 173.247 298.986 C 173.215 298.162 172.908 297.518 172.393 296.969 C 172.093 296.649 171.747 296.375 171.277 296.583 C 170.783 296.802 170.559 297.236 170.576 297.758 C 170.605 298.604 171.072 299.233 171.686 299.765 C 172.021 300.057 172.428 300.259 172.852 300.049 C 173.3 299.827 173.209 299.335 173.247 298.986 Z  M 196.032 303.664 C 195.124 303.629 194.529 303.934 193.959 304.284 C 193.423 304.613 193.026 305.064 192.952 305.723 C 192.896 306.216 192.882 306.729 193.381 307.014 C 193.854 307.283 194.332 307.157 194.73 306.818 C 195.658 306.026 196.115 305.034 196.032 303.664 Z  M 157.025 293.392 C 158.093 293.479 158.487 293.023 158.233 291.968 C 158.073 291.302 157.756 290.715 157.212 290.281 C 156.507 289.721 155.861 289.838 155.367 290.593 C 154.545 291.853 155.375 293.256 157.025 293.392 Z  M 185.125 302.256 C 185.243 301.968 185.105 301.761 185.02 301.532 C 184.517 300.181 184.652 299.576 185.565 298.982 C 186.602 298.308 187.948 298.444 188.764 299.323 C 189.28 299.88 189.631 300.564 189.666 301.301 C 189.718 302.387 190.283 302.597 191.222 302.557 C 194.966 302.398 198.673 301.974 202.316 301.186 C 202.425 300.604 201.969 300.384 201.737 300.046 C 200.898 298.82 200.903 297.908 201.767 297.306 C 202.768 296.608 204.111 296.807 204.917 297.766 C 205.408 298.35 205.612 299.063 205.792 299.774 C 205.947 300.385 206.291 300.533 206.873 300.439 C 210.446 299.863 214.022 299.305 217.596 298.731 C 217.696 298.716 217.781 298.604 217.928 298.497 C 217.656 298.029 217.348 297.574 217.115 297.084 C 216.495 295.78 216.764 294.637 217.8 294.014 C 218.93 293.334 220.207 293.594 221.075 294.69 C 221.711 295.495 221.954 296.436 221.973 297.44 C 221.984 298.062 222.28 298.316 222.889 298.271 C 226.624 297.993 230.36 298.106 234.065 298.373 C 234.274 297.731 233.858 297.337 233.785 296.864 C 233.63 295.856 234.004 295.166 234.917 294.828 C 235.804 294.501 236.634 294.787 237.13 295.622 C 237.451 296.161 237.548 296.762 237.57 297.388 C 237.626 298.951 237.634 298.965 239.218 299.355 C 243.63 300.443 247.645 302.355 251.239 305.139 C 251.869 305.626 252.522 306.099 252.996 306.753 C 253.209 307.048 253.461 307.405 253.088 307.728 C 252.713 308.051 252.414 307.751 252.157 307.483 C 250.565 305.825 248.637 304.624 246.673 303.479 C 245.34 302.701 245.318 302.721 244.377 303.896 C 243.781 304.64 243.065 305.197 242.111 305.358 C 241.204 305.512 240.377 305.342 239.876 304.472 C 239.393 303.632 239.513 302.815 240.124 302.083 C 240.352 301.809 240.644 301.588 240.899 301.35 C 240.765 300.747 240.232 300.814 239.87 300.711 C 237.085 299.918 234.236 299.511 231.347 299.331 C 230.415 299.273 229.829 299.428 229.704 300.499 C 229.62 301.226 229.307 301.915 228.814 302.493 C 227.969 303.483 226.655 303.813 225.679 303.272 C 224.718 302.74 224.423 301.737 224.852 300.366 C 224.94 300.082 225.173 299.844 225.081 299.4 C 222.531 299.224 219.995 299.688 217.447 299.928 C 217.02 299.968 216.599 300.107 216.173 300.112 C 215.425 300.123 215.087 300.521 214.92 301.194 C 214.634 302.344 214.198 303.422 213.211 304.168 C 212.242 304.9 211.04 304.817 210.417 303.979 C 210.076 303.52 209.984 302.989 209.991 302.413 C 209.996 301.998 210.388 301.632 210.036 301.035 C 207.269 301.513 204.444 302 201.62 302.489 C 200.531 302.678 199.45 302.919 198.354 303.043 C 197.612 303.127 197.251 303.422 197.22 304.179 C 197.176 305.254 196.775 306.213 196.112 307.053 C 195.204 308.203 193.91 308.611 192.874 308.102 C 191.851 307.597 191.512 306.338 191.98 304.859 C 192.087 304.521 192.463 304.278 192.337 303.857 C 191.99 303.452 191.541 303.649 191.136 303.656 C 188.125 303.714 185.119 303.612 182.129 303.269 C 181.193 303.161 180.619 303.318 180.328 304.299 C 180.082 305.129 179.544 305.82 178.927 306.437 C 178.383 306.979 177.739 307.312 176.967 307.336 C 175.217 307.39 174.253 305.853 175.114 304.327 C 175.408 303.807 175.873 303.382 176.262 302.908 C 176.242 302.495 175.9 302.47 175.62 302.424 C 172.76 301.952 170.001 301.111 167.321 300.036 C 166.361 299.651 165.847 299.7 165.262 300.684 C 164.367 302.188 162.828 302.62 161.279 302.096 C 160.405 301.8 159.71 301.302 159.675 300.305 C 159.643 299.382 160.255 298.862 161.055 298.551 C 161.452 298.396 161.865 298.279 162.395 298.104 C 161.907 297.217 160.953 296.973 160.312 296.378 C 159.197 295.342 158.086 294.529 156.386 294.353 C 154.165 294.122 153.255 291.862 154.347 290.06 C 155.239 288.586 156.828 288.338 158.081 289.518 C 159.073 290.452 159.535 291.649 159.461 293.001 C 159.416 293.825 159.727 294.401 160.328 294.907 C 163.046 297.202 166.259 298.49 169.75 299.71 C 169.615 298.902 169.453 298.324 169.436 297.74 C 169.405 296.734 169.866 295.958 170.787 295.519 C 171.629 295.118 172.493 295.37 173.249 296.214 C 174.212 297.291 174.603 298.56 174.264 299.969 C 174.063 300.804 174.416 301.076 175.136 301.204 C 178.281 301.763 181.442 302.182 184.634 302.353 C 184.802 302.361 184.975 302.287 185.125 302.256 Z " fill="rgb(0,0,0)"/><path d=" M 265.027 296.756 C 265.13 296.429 265.02 296.13 264.731 295.973 C 264.343 295.761 264.002 295.947 263.814 296.292 C 263.487 296.896 263.442 297.528 263.797 298.313 C 264.536 297.859 264.842 297.348 265.027 296.756 Z  M 297.28 299.415 C 297.546 299.112 297.945 298.72 297.549 298.322 C 297.11 297.885 296.538 297.943 296.084 298.366 C 295.528 298.885 295.381 299.581 295.281 300.464 C 296.309 300.491 296.808 299.955 297.28 299.415 Z  M 287.386 303.189 C 287.728 303.505 288.157 303.667 288.545 303.332 C 288.982 302.954 288.958 302.455 288.623 302.009 C 288.101 301.314 287.321 301.208 286.38 301.011 C 286.41 302.097 286.837 302.681 287.386 303.189 Z  M 256.526 302.649 C 256.28 303.137 256.689 303.432 257.003 303.699 C 257.53 304.148 258.131 304.457 258.827 304.122 C 259.191 303.946 259.292 303.569 259.15 303.19 C 258.863 302.42 258.176 302.388 257.52 302.345 C 257.15 302.373 256.716 302.274 256.526 302.649 Z  M 311.363 302.163 C 311.489 302.516 311.814 302.521 312.123 302.479 C 313.001 302.357 313.511 301.745 313.899 301.042 C 314.302 300.315 313.892 299.74 313.028 299.741 C 312.11 299.742 311.046 301.275 311.363 302.163 Z  M 338.559 300.923 C 338.843 300.776 339.083 300.583 339.075 300.253 C 339.066 299.918 338.788 299.745 338.515 299.605 C 337.815 299.247 336.75 299.258 335.603 299.63 C 336.337 301.102 337.357 301.544 338.559 300.923 Z  M 273.285 302.363 C 273.863 302.333 274.166 301.995 274.197 301.436 C 274.245 300.57 273.052 299.53 272.076 299.59 C 271.688 299.614 271.357 299.749 271.411 300.323 C 271.432 301.298 272.41 302.409 273.285 302.363 Z  M 322.21 305.892 C 322.73 306.265 323.417 306.39 323.85 305.806 C 324.23 305.292 323.898 304.751 323.477 304.357 C 322.742 303.672 321.861 303.344 320.603 303.327 C 320.857 304.535 321.408 305.316 322.21 305.892 Z  M 280.022 298.018 C 280.961 297.981 282.114 296.764 282.069 295.827 C 282.041 295.235 281.439 294.734 280.815 294.784 C 279.982 294.851 279.191 295.993 279.193 297.126 C 279.167 297.704 279.376 298.043 280.022 298.018 Z  M 327.136 300.049 C 327.56 300.259 327.967 300.057 328.303 299.765 C 328.916 299.233 329.383 298.604 329.412 297.758 C 329.43 297.236 329.205 296.802 328.71 296.583 C 328.241 296.375 327.895 296.649 327.595 296.969 C 327.08 297.518 326.772 298.162 326.741 298.986 C 326.779 299.335 326.687 299.827 327.136 300.049 Z  M 305.258 306.818 C 305.656 307.157 306.134 307.283 306.606 307.014 C 307.105 306.729 307.092 306.216 307.036 305.723 C 306.962 305.064 306.564 304.613 306.029 304.284 C 305.459 303.934 304.864 303.629 303.956 303.664 C 303.873 305.034 304.33 306.026 305.258 306.818 Z  M 344.62 290.593 C 344.127 289.838 343.481 289.721 342.776 290.281 C 342.231 290.715 341.915 291.302 341.755 291.968 C 341.501 293.023 341.895 293.479 342.963 293.392 C 344.612 293.256 345.443 291.853 344.62 290.593 Z  M 315.354 302.353 C 318.545 302.182 321.707 301.763 324.852 301.204 C 325.572 301.076 325.925 300.804 325.724 299.969 C 325.385 298.56 325.775 297.291 326.739 296.214 C 327.494 295.37 328.358 295.118 329.201 295.519 C 330.122 295.958 330.583 296.734 330.553 297.74 C 330.535 298.324 330.373 298.902 330.238 299.71 C 333.728 298.49 336.941 297.202 339.66 294.907 C 340.261 294.401 340.572 293.825 340.527 293.001 C 340.453 291.649 340.915 290.452 341.907 289.518 C 343.16 288.338 344.748 288.586 345.641 290.06 C 346.733 291.862 345.823 294.122 343.602 294.353 C 341.901 294.529 340.791 295.342 339.676 296.378 C 339.035 296.973 338.081 297.217 337.594 298.104 C 338.123 298.279 338.536 298.396 338.934 298.551 C 339.733 298.862 340.345 299.382 340.312 300.305 C 340.278 301.302 339.583 301.8 338.709 302.096 C 337.16 302.62 335.621 302.188 334.726 300.684 C 334.141 299.7 333.627 299.651 332.667 300.036 C 329.986 301.111 327.228 301.952 324.368 302.424 C 324.088 302.47 323.746 302.495 323.726 302.908 C 324.115 303.382 324.58 303.807 324.874 304.327 C 325.735 305.853 324.77 307.39 323.02 307.336 C 322.249 307.312 321.604 306.979 321.061 306.437 C 320.443 305.82 319.906 305.129 319.66 304.299 C 319.369 303.318 318.795 303.161 317.859 303.269 C 314.869 303.612 311.863 303.714 308.853 303.656 C 308.446 303.649 307.998 303.452 307.651 303.857 C 307.525 304.278 307.901 304.521 308.008 304.859 C 308.477 306.338 308.137 307.597 307.113 308.102 C 306.078 308.611 304.784 308.203 303.876 307.053 C 303.213 306.213 302.811 305.254 302.768 304.179 C 302.736 303.422 302.376 303.127 301.634 303.043 C 300.538 302.919 299.457 302.678 298.368 302.489 C 295.544 302 292.719 301.513 289.952 301.035 C 289.6 301.632 289.992 301.998 289.997 302.413 C 290.004 302.989 289.912 303.52 289.57 303.979 C 288.948 304.817 287.746 304.9 286.776 304.168 C 285.79 303.422 285.353 302.344 285.068 301.194 C 284.9 300.521 284.562 300.123 283.814 300.112 C 283.39 300.107 282.968 299.968 282.541 299.928 C 279.993 299.688 277.457 299.224 274.907 299.4 C 274.814 299.844 275.048 300.082 275.137 300.366 C 275.564 301.737 275.27 302.74 274.309 303.272 C 273.333 303.813 272.019 303.483 271.174 302.493 C 270.681 301.915 270.368 301.226 270.283 300.499 C 270.158 299.428 269.573 299.273 268.641 299.331 C 265.752 299.511 262.903 299.918 260.118 300.711 C 259.756 300.814 259.224 300.747 259.089 301.35 C 259.344 301.588 259.636 301.809 259.864 302.083 C 260.476 302.815 260.596 303.632 260.112 304.472 C 259.611 305.342 258.784 305.512 257.876 305.358 C 256.923 305.197 256.207 304.64 255.611 303.896 C 254.67 302.721 254.648 302.701 253.314 303.479 C 251.351 304.624 249.423 305.825 247.831 307.483 C 247.574 307.751 247.275 308.051 246.9 307.728 C 246.527 307.405 246.779 307.048 246.992 306.753 C 247.465 306.099 248.119 305.626 248.749 305.139 C 252.343 302.355 256.357 300.443 260.77 299.355 C 262.354 298.965 262.361 298.951 262.418 297.388 C 262.44 296.762 262.537 296.161 262.858 295.622 C 263.354 294.787 264.184 294.501 265.07 294.828 C 265.984 295.166 266.357 295.856 266.203 296.864 C 266.13 297.337 265.714 297.731 265.922 298.373 C 269.628 298.106 273.364 297.993 277.099 298.271 C 277.708 298.316 278.004 298.062 278.016 297.44 C 278.034 296.436 278.276 295.495 278.913 294.69 C 279.781 293.594 281.058 293.334 282.188 294.014 C 283.225 294.637 283.493 295.78 282.873 297.084 C 282.64 297.574 282.332 298.029 282.06 298.497 C 282.207 298.604 282.292 298.716 282.393 298.731 C 285.966 299.305 289.542 299.863 293.115 300.439 C 293.697 300.533 294.041 300.385 294.195 299.774 C 294.376 299.063 294.58 298.35 295.07 297.766 C 295.877 296.807 297.221 296.608 298.221 297.306 C 299.085 297.908 299.09 298.82 298.251 300.046 C 298.02 300.384 297.562 300.604 297.672 301.186 C 301.315 301.974 305.021 302.398 308.766 302.557 C 309.705 302.597 310.27 302.387 310.322 301.301 C 310.357 300.564 310.708 299.88 311.225 299.323 C 312.04 298.444 313.386 298.308 314.423 298.982 C 315.336 299.576 315.472 300.181 314.968 301.532 C 314.883 301.761 314.745 301.968 314.862 302.256 C 315.013 302.287 315.186 302.361 315.354 302.353 Z " fill="rgb(0,0,0)"/></g></svg>