<?xml version="1.0" encoding="UTF-8" standalone="no"?><!-- Generator: Gravit.io --><svg xmlns="http://www.w3.org/2000/svg" xmlns:xlink="http://www.w3.org/1999/xlink" style="isolation:isolate" viewBox="158.452 151.228 183.083 21.226" width="183.083pt" height="21.226pt"><g><path d=" M 185.348 153.822 C 185.124 153.892 184.963 154.049 184.978 154.275 C 185.008 154.749 185.34 154.849 185.732 154.763 C 185.942 154.716 186.129 154.586 185.999 154.304 C 185.869 154.022 185.648 153.868 185.348 153.822 Z  M 215.375 157.966 C 215.482 157.429 215.3 157.23 215.028 157.134 C 214.626 156.992 214.376 157.206 214.256 157.571 C 214.15 157.891 214.303 158.096 214.624 158.146 C 214.974 158.201 215.306 158.179 215.375 157.966 Z  M 217.128 168.992 C 217.07 168.668 217.141 168.252 216.651 168.209 C 216.245 168.173 215.955 168.427 215.907 168.785 C 215.836 169.299 216.21 169.515 216.671 169.555 C 217.075 169.591 217.052 169.246 217.128 168.992 Z  M 203.598 168.003 C 203.479 167.594 203.203 167.411 202.797 167.488 C 202.44 167.556 202.073 167.687 202.022 168.115 C 201.966 168.586 202.318 168.75 202.692 168.742 C 203.149 168.731 203.526 168.531 203.598 168.003 Z  M 228.455 169.547 C 228.082 169.53 227.89 169.727 227.856 170.023 C 227.805 170.479 227.973 170.882 228.455 170.963 C 228.738 171.011 228.954 170.735 229.02 170.45 C 229.137 169.95 228.883 169.667 228.455 169.547 Z  M 230.105 158.229 C 229.999 157.747 229.76 157.332 229.162 157.305 C 228.656 157.283 228.37 157.572 228.356 158.073 C 228.342 158.576 228.63 158.866 229.121 158.903 C 229.581 158.938 229.955 158.779 230.105 158.229 Z  M 201.487 155.643 C 201.381 155.105 201.082 154.753 200.507 154.718 C 199.989 154.687 199.712 154.96 199.736 155.473 C 199.758 155.964 200.065 156.25 200.54 156.286 C 200.993 156.321 201.367 156.157 201.487 155.643 Z  M 161.478 159.374 C 161.389 158.757 161.013 158.448 160.451 158.438 C 160.049 158.432 159.761 158.707 159.823 159.132 C 159.911 159.741 160.169 160.265 160.923 160.158 C 161.351 160.097 161.438 159.719 161.478 159.374 Z  M 172.594 153.95 C 172.662 153.383 171.996 152.603 171.458 152.629 C 171.145 152.645 170.921 152.852 170.897 153.155 C 170.847 153.799 171.148 154.241 171.789 154.393 C 172.177 154.485 172.467 154.332 172.594 153.95 Z  M 188.041 167.068 C 187.969 166.379 187.385 166.321 186.803 166.307 C 186.334 166.295 185.921 166.446 185.975 167.022 C 186.037 167.695 186.515 168.024 187.124 168.102 C 187.784 168.186 187.967 167.711 188.041 167.068 Z  M 172.384 164.14 C 171.75 164.082 171.064 164.082 170.974 164.806 C 170.872 165.626 171.584 165.854 172.25 165.954 C 173.002 166.065 173.59 165.767 173.621 164.971 C 173.653 164.137 172.85 164.311 172.384 164.14 Z  M 221.667 165.658 C 221.342 165.453 221.178 165.265 221.001 165.251 C 217.915 165.009 214.831 164.691 211.74 164.593 C 209.322 164.517 207.424 166.029 205.414 167.125 C 205.147 167.27 205.033 167.54 205.017 167.846 C 205.01 167.989 205.02 168.141 204.977 168.275 C 204.539 169.642 203.477 170.334 202.223 170.081 C 201.163 169.866 200.526 169.107 200.585 168.126 C 200.65 167.021 201.634 165.975 202.967 166.103 C 204.601 166.259 205.665 165.37 206.853 164.708 C 206.867 164.222 206.583 164.167 206.297 164.144 C 202.997 163.87 199.694 163.625 196.397 163.316 C 195.339 163.217 194.425 163.395 193.551 164.018 C 192.91 164.475 192.198 164.845 191.487 165.19 C 190.287 165.773 189.363 166.415 189.186 167.978 C 189.033 169.327 188.053 169.756 186.801 169.452 C 185.35 169.099 184.446 167.964 184.598 166.682 C 184.739 165.48 185.564 164.666 186.861 164.986 C 189.018 165.517 190.353 164.193 192.367 163.189 C 189.52 162.437 187.019 162.527 184.596 162.106 C 183.746 161.959 182.87 161.955 182.025 161.786 C 180.103 161.401 178.356 161.614 176.708 162.807 C 175.819 163.449 174.948 163.853 174.947 165.223 C 174.947 166.26 174.243 167.123 173.063 167.271 C 171.856 167.423 170.756 167.145 169.952 166.164 C 169.386 165.474 169.411 164.683 169.812 163.933 C 170.304 163.01 171.149 162.51 172.146 162.778 C 173.87 163.241 174.964 162.288 176.459 161.34 C 174.246 160.622 172.281 160.706 170.372 160.463 C 168.375 160.209 166.35 160.191 164.344 160.002 C 163.464 159.919 162.919 160.223 162.307 160.862 C 161.296 161.917 159.975 161.807 159.099 160.803 C 158.312 159.9 158.23 158.376 158.927 157.613 C 159.609 156.867 160.886 156.714 161.864 157.587 C 162.934 158.542 164.102 158.696 165.42 158.785 C 168.867 159.019 172.32 159.202 175.744 159.701 C 176.02 159.742 176.306 159.779 176.739 159.358 C 175.642 158.284 174.536 157.206 173.437 156.121 C 173.018 155.706 172.51 155.864 172.016 155.841 C 170.802 155.785 170.004 155.134 169.63 153.99 C 169.292 152.954 169.594 151.941 170.392 151.517 C 171.32 151.022 172.207 151.18 172.989 151.862 C 173.549 152.351 173.846 153.022 174.09 153.698 C 175.041 156.335 177.315 157.867 179.129 159.782 C 179.436 160.105 179.857 160.214 180.302 160.263 C 183.951 160.661 187.599 161.07 191.249 161.466 C 191.366 161.479 191.495 161.375 191.842 161.238 C 190.454 159.334 188.779 157.802 187.06 156.319 C 186.576 155.902 185.94 156.252 185.377 156.177 C 184.419 156.05 183.72 155.627 183.546 154.639 C 183.396 153.791 183.691 153.061 184.459 152.618 C 185.23 152.174 186.475 152.36 186.921 153.29 C 188.303 156.173 191.061 157.826 192.895 160.285 C 193.718 161.39 194.742 161.928 196.179 162.004 C 199.835 162.198 203.482 162.557 207.372 162.869 C 206.665 161.394 205.456 160.707 204.48 159.824 C 203.215 158.68 202.037 157.456 200.043 157.525 C 198.969 157.563 198.298 156.487 198.294 155.409 C 198.291 154.375 198.907 153.602 199.899 153.399 C 201.109 153.151 202.578 153.729 202.627 154.892 C 202.718 157.065 204.349 157.856 205.618 159.021 C 206.414 159.752 207.339 160.374 208.005 161.205 C 209.244 162.75 210.829 163.296 212.719 163.304 C 215.524 163.315 218.302 163.878 221.107 163.791 C 221.422 163.061 220.785 162.889 220.451 162.608 C 219.516 161.819 218.526 161.095 217.581 160.318 C 216.837 159.708 216.128 159.318 215.049 159.502 C 213.727 159.728 213.096 159.24 212.869 158.289 C 212.659 157.406 213.123 156.291 213.885 155.851 C 214.668 155.397 215.61 155.616 216.406 156.437 C 216.506 156.54 216.63 156.641 216.681 156.768 C 218.057 160.218 221.716 161.296 224.005 163.8 C 224.222 164.037 224.633 164.176 224.969 164.211 C 228.675 164.595 232.385 164.948 236.309 164.981 C 234.449 163.448 232.603 161.897 230.718 160.394 C 230.239 160.012 229.595 160.287 229.03 160.232 C 227.742 160.108 227.123 159.547 227.002 158.421 C 226.88 157.281 227.429 156.309 228.373 155.995 C 229.319 155.679 230.427 156.065 231.03 156.933 C 231.152 157.109 231.325 157.309 231.327 157.5 C 231.353 159.539 232.957 160.417 234.26 161.497 C 240.95 167.041 238.316 165.644 247.365 166.859 C 248.149 166.965 248.942 167.004 249.727 167.106 C 250.097 167.155 250.465 167.338 250.406 167.775 C 250.352 168.18 249.964 168.339 249.599 168.345 C 249.026 168.355 248.448 168.324 247.878 168.256 C 245.449 167.964 243.019 167.671 240.595 167.338 C 239.578 167.199 238.64 167.229 237.651 167.635 C 236.19 168.234 234.643 168.621 233.148 169.141 C 231.838 169.597 230.381 169.742 229.944 171.557 C 229.727 172.458 228.582 172.65 227.75 172.267 C 226.748 171.806 226.183 170.401 226.593 169.309 C 226.95 168.36 227.739 167.847 228.642 168.209 C 231.06 169.18 232.848 167.551 234.914 166.953 C 233.363 166.183 231.702 166.234 230.102 166.042 C 225.507 165.486 225.502 165.527 221.218 167.409 C 220.691 167.64 220.17 167.887 219.637 168.105 C 219.011 168.363 218.624 168.69 218.467 169.465 C 218.192 170.816 217.489 171.215 216.374 170.967 C 215.224 170.711 214.451 169.887 214.466 168.934 C 214.483 167.836 215.38 166.902 216.518 166.807 C 216.66 166.794 216.818 166.776 216.947 166.823 C 218.746 167.478 220.088 166.447 221.667 165.658 Z " fill="rgb(0,0,0)"/><path d=" M 313.989 154.304 C 313.858 154.586 314.046 154.716 314.256 154.763 C 314.648 154.849 314.979 154.749 315.011 154.275 C 315.025 154.049 314.864 153.892 314.641 153.822 C 314.34 153.868 314.119 154.022 313.989 154.304 Z  M 285.363 158.146 C 285.686 158.096 285.838 157.891 285.732 157.571 C 285.611 157.206 285.361 156.992 284.96 157.134 C 284.688 157.23 284.506 157.429 284.612 157.966 C 284.682 158.179 285.014 158.201 285.363 158.146 Z  M 283.316 169.555 C 283.777 169.515 284.151 169.299 284.081 168.785 C 284.033 168.427 283.743 168.173 283.337 168.209 C 282.848 168.252 282.918 168.668 282.859 168.992 C 282.936 169.246 282.913 169.591 283.316 169.555 Z  M 297.296 168.742 C 297.67 168.75 298.021 168.586 297.966 168.115 C 297.915 167.687 297.548 167.556 297.191 167.488 C 296.785 167.411 296.509 167.594 296.39 168.003 C 296.462 168.531 296.839 168.731 297.296 168.742 Z  M 270.967 170.45 C 271.034 170.735 271.25 171.011 271.533 170.963 C 272.015 170.882 272.184 170.479 272.132 170.023 C 272.098 169.727 271.906 169.53 271.533 169.547 C 271.105 169.667 270.851 169.95 270.967 170.45 Z  M 270.867 158.903 C 271.357 158.866 271.645 158.576 271.632 158.073 C 271.618 157.572 271.332 157.283 270.826 157.305 C 270.228 157.332 269.989 157.747 269.883 158.229 C 270.033 158.779 270.407 158.938 270.867 158.903 Z  M 299.448 156.286 C 299.923 156.25 300.229 155.964 300.252 155.473 C 300.275 154.96 299.999 154.687 299.481 154.718 C 298.906 154.753 298.606 155.105 298.501 155.643 C 298.621 156.157 298.995 156.321 299.448 156.286 Z  M 339.065 160.158 C 339.818 160.265 340.077 159.741 340.165 159.132 C 340.228 158.707 339.938 158.432 339.537 158.438 C 338.976 158.448 338.6 158.757 338.51 159.374 C 338.55 159.719 338.638 160.097 339.065 160.158 Z  M 328.199 154.393 C 328.839 154.241 329.142 153.799 329.091 153.155 C 329.067 152.852 328.843 152.645 328.529 152.629 C 327.992 152.603 327.326 153.383 327.394 153.95 C 327.52 154.332 327.811 154.485 328.199 154.393 Z  M 312.864 168.102 C 313.474 168.024 313.951 167.695 314.014 167.022 C 314.066 166.446 313.654 166.295 313.186 166.307 C 312.603 166.321 312.019 166.379 311.947 167.068 C 312.021 167.711 312.204 168.186 312.864 168.102 Z  M 326.367 164.971 C 326.397 165.767 326.985 166.065 327.737 165.954 C 328.403 165.854 329.116 165.626 329.014 164.806 C 328.924 164.082 328.237 164.082 327.603 164.14 C 327.138 164.311 326.335 164.137 326.367 164.971 Z  M 283.041 166.823 C 283.17 166.776 283.328 166.794 283.471 166.807 C 284.607 166.902 285.505 167.836 285.521 168.934 C 285.537 169.887 284.764 170.711 283.614 170.967 C 282.499 171.215 281.796 170.816 281.521 169.465 C 281.363 168.69 280.977 168.363 280.351 168.105 C 279.818 167.887 279.297 167.64 278.77 167.409 C 274.485 165.527 274.48 165.486 269.886 166.042 C 268.286 166.234 266.625 166.183 265.074 166.953 C 267.14 167.551 268.929 169.18 271.347 168.209 C 272.249 167.847 273.038 168.36 273.395 169.309 C 273.806 170.401 273.239 171.806 272.237 172.267 C 271.406 172.65 270.261 172.458 270.044 171.557 C 269.607 169.742 268.149 169.597 266.84 169.141 C 265.345 168.621 263.798 168.234 262.337 167.635 C 261.348 167.229 260.41 167.199 259.394 167.338 C 256.969 167.671 254.539 167.964 252.109 168.256 C 251.54 168.324 250.962 168.355 250.389 168.345 C 250.023 168.339 249.636 168.18 249.582 167.775 C 249.523 167.338 249.891 167.155 250.261 167.106 C 251.046 167.004 251.839 166.965 252.623 166.859 C 261.672 165.644 259.038 167.041 265.728 161.497 C 267.031 160.417 268.635 159.539 268.661 157.5 C 268.663 157.309 268.836 157.109 268.958 156.933 C 269.561 156.065 270.669 155.679 271.615 155.995 C 272.56 156.309 273.108 157.281 272.986 158.421 C 272.865 159.547 272.246 160.108 270.958 160.232 C 270.393 160.287 269.749 160.012 269.27 160.394 C 267.386 161.897 265.539 163.448 263.679 164.981 C 267.603 164.948 271.312 164.595 275.02 164.211 C 275.355 164.176 275.767 164.037 275.982 163.8 C 278.271 161.296 281.931 160.218 283.307 156.768 C 283.357 156.641 283.482 156.54 283.582 156.437 C 284.378 155.616 285.32 155.397 286.103 155.851 C 286.865 156.291 287.329 157.406 287.119 158.289 C 286.893 159.24 286.262 159.728 284.939 159.502 C 283.86 159.318 283.15 159.708 282.407 160.318 C 281.461 161.095 280.472 161.819 279.537 162.608 C 279.203 162.889 278.565 163.061 278.881 163.791 C 281.686 163.878 284.464 163.315 287.27 163.304 C 289.159 163.296 290.744 162.75 291.982 161.205 C 292.649 160.374 293.574 159.752 294.37 159.021 C 295.64 157.856 297.27 157.065 297.361 154.892 C 297.41 153.729 298.879 153.151 300.089 153.399 C 301.081 153.602 301.697 154.375 301.693 155.409 C 301.689 156.487 301.019 157.563 299.944 157.525 C 297.951 157.456 296.772 158.68 295.508 159.824 C 294.532 160.707 293.323 161.394 292.616 162.869 C 296.506 162.557 300.152 162.198 303.809 162.004 C 305.246 161.928 306.27 161.39 307.094 160.285 C 308.927 157.826 311.685 156.173 313.067 153.29 C 313.513 152.36 314.758 152.174 315.528 152.618 C 316.297 153.061 316.592 153.791 316.442 154.639 C 316.268 155.627 315.568 156.05 314.611 156.177 C 314.048 156.252 313.412 155.902 312.929 156.319 C 311.209 157.802 309.534 159.334 308.145 161.238 C 308.493 161.375 308.622 161.479 308.739 161.466 C 312.389 161.07 316.037 160.661 319.686 160.263 C 320.131 160.214 320.553 160.105 320.858 159.782 C 322.673 157.867 324.947 156.335 325.898 153.698 C 326.142 153.022 326.438 152.351 326.999 151.862 C 327.781 151.18 328.668 151.022 329.597 151.517 C 330.394 151.941 330.696 152.954 330.357 153.99 C 329.983 155.134 329.186 155.785 327.973 155.841 C 327.478 155.864 326.971 155.706 326.551 156.121 C 325.452 157.206 324.346 158.284 323.249 159.358 C 323.682 159.779 323.968 159.742 324.244 159.701 C 327.668 159.202 331.121 159.019 334.567 158.785 C 335.886 158.696 337.055 158.542 338.124 157.587 C 339.103 156.714 340.379 156.867 341.061 157.613 C 341.758 158.376 341.676 159.9 340.889 160.803 C 340.014 161.807 338.692 161.917 337.681 160.862 C 337.068 160.223 336.523 159.919 335.644 160.002 C 333.638 160.191 331.612 160.209 329.616 160.463 C 327.707 160.706 325.742 160.622 323.528 161.34 C 325.024 162.288 326.118 163.241 327.842 162.778 C 328.839 162.51 329.685 163.01 330.177 163.933 C 330.577 164.683 330.603 165.474 330.036 166.164 C 329.231 167.145 328.132 167.423 326.925 167.271 C 325.745 167.123 325.041 166.26 325.041 165.223 C 325.04 163.853 324.169 163.449 323.28 162.807 C 321.632 161.614 319.885 161.401 317.963 161.786 C 317.118 161.955 316.242 161.959 315.393 162.106 C 312.969 162.527 310.468 162.437 307.621 163.189 C 309.635 164.193 310.97 165.517 313.127 164.986 C 314.424 164.666 315.249 165.48 315.391 166.682 C 315.541 167.964 314.639 169.099 313.186 169.452 C 311.935 169.756 310.955 169.327 310.803 167.978 C 310.625 166.415 309.701 165.773 308.501 165.19 C 307.79 164.845 307.078 164.475 306.436 164.018 C 305.563 163.395 304.648 163.217 303.591 163.316 C 300.294 163.625 296.991 163.87 293.691 164.144 C 293.404 164.167 293.121 164.222 293.136 164.708 C 294.323 165.37 295.388 166.259 297.021 166.103 C 298.354 165.975 299.338 167.021 299.403 168.126 C 299.461 169.107 298.825 169.866 297.765 170.081 C 296.511 170.334 295.449 169.642 295.011 168.275 C 294.968 168.141 294.978 167.989 294.971 167.846 C 294.955 167.54 294.841 167.27 294.574 167.125 C 292.563 166.029 290.666 164.517 288.248 164.593 C 285.157 164.691 282.073 165.009 278.987 165.251 C 278.81 165.265 278.646 165.453 278.32 165.658 C 279.899 166.447 281.242 167.478 283.041 166.823 Z " fill="rgb(0,0,0)"/></g></svg>