<?xml version="1.0" encoding="UTF-8" standalone="no"?><!-- Generator: Gravit.io --><svg xmlns="http://www.w3.org/2000/svg" xmlns:xlink="http://www.w3.org/1999/xlink" style="isolation:isolate" viewBox="152.154 248.851 195.68 16.159" width="195.68pt" height="16.159pt"><g><path d=" M 243.425 252.761 C 242.742 250.727 242.103 250.211 240.423 250.34 C 241.311 251.907 241.723 252.24 243.425 252.761 Z  M 223.598 254.833 C 222.862 253.386 221.964 252.17 220.325 251.813 C 219.996 251.742 219.65 251.792 219.459 252.142 C 219.301 252.429 219.474 252.678 219.641 252.862 C 220.688 254.021 221.942 254.799 223.598 254.833 Z  M 202.398 255.573 C 201.552 254.207 200.623 252.962 199.083 252.347 C 198.712 252.199 198.266 252.043 197.977 252.41 C 197.664 252.808 197.998 253.172 198.271 253.441 C 199.412 254.571 200.769 255.306 202.398 255.573 Z  M 180.547 255.146 C 179.859 253.663 179.024 252.329 177.782 251.294 C 177.408 250.982 176.959 250.742 176.517 251.136 C 176.074 251.529 176.252 252.021 176.52 252.419 C 177.486 253.854 178.923 254.612 180.547 255.146 Z  M 213.241 257.37 C 211.15 257.193 209.56 258.094 208.319 259.697 C 208.118 259.958 207.938 260.322 208.15 260.628 C 208.435 261.04 208.854 260.88 209.236 260.725 C 210.894 260.051 212.078 258.777 213.241 257.37 Z  M 191.965 257.535 C 189.522 257.115 187.939 258.04 186.491 259.282 C 186.123 259.598 185.529 259.992 185.988 260.59 C 186.317 261.019 186.863 260.851 187.282 260.636 C 188.863 259.824 190.349 258.867 191.965 257.535 Z  M 236.709 256.127 C 234.416 255.767 232.576 256.268 231.478 258.269 C 231.138 258.886 231.018 259.584 231.683 260.068 C 232.295 260.514 232.837 260.125 233.27 259.688 C 234.432 258.516 235.565 257.315 236.709 256.127 Z  M 160.896 255.037 C 159.447 253.5 157.721 252.511 155.836 251.833 C 155.093 251.565 154.001 250.912 153.548 252.005 C 153.154 252.954 154.159 253.52 154.92 253.933 C 156.776 254.94 158.805 255.147 160.896 255.037 Z  M 171.425 257.502 C 170.422 257.029 169.679 257.107 168.957 257.618 C 167.634 258.555 166.366 259.561 165.434 260.9 C 164.913 261.649 164.075 262.601 164.864 263.415 C 165.692 264.271 166.621 263.369 167.337 262.833 C 169.154 261.474 170.302 259.574 171.425 257.502 Z  M 220.228 255.238 C 219.662 254.671 219.107 254.187 218.642 253.628 C 218.1 252.979 217.775 252.222 218.299 251.408 C 218.79 250.646 219.566 250.432 220.42 250.564 C 221.744 250.77 222.959 251.391 223.615 252.499 C 225.067 254.95 227.083 255.374 229.739 255.025 C 233.651 254.512 237.609 254.341 241.78 254.006 C 241.318 253.022 240.453 252.693 239.926 252.07 C 238.986 250.958 238.741 250.042 239.294 249.377 C 239.804 248.764 241.038 248.674 242.122 249.177 C 243.421 249.781 244.237 250.876 244.747 252.128 C 245.297 253.477 246.14 253.924 247.545 253.711 C 248.328 253.592 249.155 253.697 249.954 253.777 C 250.382 253.819 250.723 254.153 250.66 254.606 C 250.583 255.162 250.134 255.038 249.719 254.999 C 246.552 254.697 243.417 255.262 240.265 255.365 C 239.693 255.385 239.284 255.681 238.834 256.005 C 237.51 256.961 236.47 258.195 235.35 259.355 C 234.791 259.935 234.224 260.516 233.596 261.016 C 232.79 261.658 231.89 261.784 230.984 261.173 C 230.129 260.597 229.736 259.582 230.067 258.508 C 230.297 257.763 230.693 257.068 231.026 256.325 C 230.215 256.07 229.483 256.217 228.758 256.26 C 225.067 256.474 221.377 256.738 217.684 256.904 C 216.469 256.959 215.481 257.324 214.603 258.154 C 213.626 259.078 212.611 259.964 211.571 260.814 C 210.785 261.457 209.895 261.958 208.868 262.103 C 207.297 262.323 206.452 261.277 206.905 259.744 C 207.137 258.959 207.777 258.421 208.151 257.743 C 207.76 257.187 207.25 257.371 206.825 257.391 C 203.126 257.556 199.426 257.52 195.728 257.444 C 194.719 257.425 193.954 257.709 193.156 258.317 C 191.769 259.375 190.281 260.306 188.807 261.244 C 188.304 261.565 187.731 261.8 187.162 261.987 C 186.248 262.288 185.382 262.086 184.796 261.325 C 184.152 260.488 184.562 259.684 185.087 258.925 C 185.417 258.446 186.028 258.19 186.199 257.599 C 185.864 257.163 185.429 257.3 185.057 257.299 C 181.491 257.289 177.926 257.323 174.361 257.286 C 173.45 257.277 172.875 257.571 172.401 258.359 C 171.641 259.625 170.823 260.865 169.922 262.034 C 169.015 263.211 167.914 264.2 166.483 264.757 C 165.529 265.128 164.621 265.156 163.857 264.407 C 163.076 263.641 163.18 262.706 163.533 261.775 C 163.972 260.62 164.756 259.703 165.574 258.801 C 166.001 258.329 166.685 258.053 166.86 257.159 C 164.823 256.94 162.848 256.696 160.867 256.524 C 158.852 256.351 156.844 256.176 154.964 255.345 C 154.092 254.96 153.29 254.473 152.713 253.691 C 152.155 252.936 151.95 252.09 152.399 251.231 C 152.865 250.34 153.719 250.14 154.646 250.246 C 155.522 250.347 156.349 250.645 157.148 251.005 C 159.123 251.896 160.921 253.073 162.566 254.476 C 163.41 255.195 164.323 255.689 165.446 255.771 C 169.409 256.057 173.376 256.033 177.345 255.98 C 177.528 255.978 177.709 255.862 178.015 255.758 C 177.54 254.93 176.7 254.591 176.139 253.977 C 174.823 252.535 174.592 251.192 175.55 250.238 C 176.51 249.281 177.843 249.529 179.233 250.923 C 180.286 251.98 181.041 253.263 181.901 254.464 C 182.652 255.512 183.522 256.045 184.929 256.033 C 189.096 255.999 193.266 256.162 197.435 256.231 C 198 256.24 198.605 256.403 199.278 256.014 C 198.502 255.307 197.779 254.734 197.164 254.063 C 196.549 253.39 196.159 252.557 196.733 251.677 C 197.299 250.809 198.216 250.821 199.096 251.044 C 200.827 251.483 202.134 252.653 202.99 254.081 C 204.132 255.985 205.651 256.338 207.673 256.191 C 211.423 255.92 215.187 255.837 218.945 255.669 C 219.338 255.651 219.76 255.716 220.228 255.238 Z " fill="rgb(0,0,0)"/><path d=" M 259.564 250.34 C 257.885 250.211 257.246 250.727 256.563 252.761 C 258.265 252.24 258.678 251.907 259.564 250.34 Z  M 280.348 252.862 C 280.515 252.678 280.686 252.429 280.529 252.142 C 280.338 251.792 279.992 251.742 279.663 251.813 C 278.023 252.17 277.126 253.386 276.39 254.833 C 278.046 254.799 279.3 254.021 280.348 252.862 Z  M 301.717 253.441 C 301.989 253.172 302.324 252.808 302.011 252.41 C 301.722 252.043 301.275 252.199 300.905 252.347 C 299.365 252.962 298.436 254.207 297.59 255.573 C 299.22 255.306 300.576 254.571 301.717 253.441 Z  M 323.469 252.419 C 323.736 252.021 323.914 251.529 323.472 251.136 C 323.029 250.742 322.58 250.982 322.206 251.294 C 320.964 252.329 320.129 253.663 319.441 255.146 C 321.064 254.612 322.502 253.854 323.469 252.419 Z  M 290.752 260.725 C 291.134 260.88 291.554 261.04 291.838 260.628 C 292.05 260.322 291.87 259.958 291.669 259.697 C 290.429 258.094 288.838 257.193 286.747 257.37 C 287.91 258.777 289.095 260.051 290.752 260.725 Z  M 312.706 260.636 C 313.125 260.851 313.671 261.019 314 260.59 C 314.459 259.992 313.865 259.598 313.497 259.282 C 312.049 258.04 310.466 257.115 308.022 257.535 C 309.64 258.867 311.125 259.824 312.706 260.636 Z  M 266.718 259.688 C 267.15 260.125 267.692 260.514 268.305 260.068 C 268.971 259.584 268.85 258.886 268.511 258.269 C 267.412 256.268 265.572 255.767 263.278 256.127 C 264.423 257.315 265.557 258.516 266.718 259.688 Z  M 345.067 253.933 C 345.829 253.52 346.834 252.954 346.44 252.005 C 345.986 250.912 344.895 251.565 344.151 251.833 C 342.268 252.511 340.541 253.5 339.092 255.037 C 341.184 255.147 343.212 254.94 345.067 253.933 Z  M 332.65 262.833 C 333.366 263.369 334.296 264.271 335.124 263.415 C 335.913 262.601 335.075 261.649 334.554 260.9 C 333.622 259.561 332.354 258.555 331.031 257.618 C 330.31 257.107 329.566 257.029 328.563 257.502 C 329.686 259.574 330.834 261.474 332.65 262.833 Z  M 281.043 255.669 C 284.801 255.837 288.564 255.92 292.314 256.191 C 294.337 256.338 295.856 255.985 296.998 254.081 C 297.853 252.653 299.161 251.483 300.892 251.044 C 301.771 250.821 302.688 250.809 303.255 251.677 C 303.829 252.557 303.438 253.39 302.824 254.063 C 302.209 254.734 301.485 255.307 300.71 256.014 C 301.383 256.403 301.987 256.24 302.554 256.231 C 306.723 256.162 310.892 255.999 315.06 256.033 C 316.466 256.045 317.336 255.512 318.087 254.464 C 318.947 253.263 319.702 251.98 320.755 250.923 C 322.145 249.529 323.478 249.281 324.437 250.238 C 325.395 251.192 325.165 252.535 323.849 253.977 C 323.288 254.591 322.447 254.93 321.973 255.758 C 322.278 255.862 322.46 255.978 322.644 255.98 C 326.611 256.033 330.579 256.057 334.542 255.771 C 335.665 255.689 336.578 255.195 337.422 254.476 C 339.066 253.073 340.865 251.896 342.84 251.005 C 343.639 250.645 344.466 250.347 345.342 250.246 C 346.269 250.14 347.123 250.34 347.589 251.231 C 348.038 252.09 347.833 252.936 347.274 253.691 C 346.698 254.473 345.895 254.96 345.024 255.345 C 343.144 256.176 341.137 256.351 339.121 256.524 C 337.14 256.696 335.165 256.94 333.128 257.159 C 333.303 258.053 333.986 258.329 334.414 258.801 C 335.232 259.703 336.017 260.62 336.455 261.775 C 336.809 262.706 336.912 263.641 336.131 264.407 C 335.366 265.156 334.459 265.128 333.505 264.757 C 332.074 264.2 330.974 263.211 330.065 262.034 C 329.165 260.865 328.348 259.625 327.587 258.359 C 327.113 257.571 326.538 257.277 325.627 257.286 C 322.062 257.323 318.497 257.289 314.932 257.299 C 314.56 257.3 314.124 257.163 313.789 257.599 C 313.96 258.19 314.57 258.446 314.901 258.925 C 315.427 259.684 315.836 260.488 315.191 261.325 C 314.605 262.086 313.74 262.288 312.826 261.987 C 312.257 261.8 311.685 261.565 311.181 261.244 C 309.707 260.306 308.22 259.375 306.832 258.317 C 306.034 257.709 305.27 257.425 304.261 257.444 C 300.562 257.52 296.861 257.556 293.163 257.391 C 292.737 257.371 292.228 257.187 291.837 257.743 C 292.211 258.421 292.851 258.959 293.083 259.744 C 293.536 261.277 292.691 262.323 291.12 262.103 C 290.093 261.958 289.203 261.457 288.417 260.814 C 287.377 259.964 286.361 259.078 285.385 258.154 C 284.507 257.324 283.52 256.959 282.304 256.904 C 278.61 256.738 274.921 256.474 271.229 256.26 C 270.505 256.217 269.773 256.07 268.962 256.325 C 269.295 257.068 269.69 257.763 269.921 258.508 C 270.252 259.582 269.859 260.597 269.004 261.173 C 268.099 261.784 267.198 261.658 266.392 261.016 C 265.765 260.516 265.197 259.935 264.638 259.355 C 263.519 258.195 262.478 256.961 261.153 256.005 C 260.704 255.681 260.295 255.385 259.723 255.365 C 256.57 255.262 253.436 254.697 250.27 254.999 C 249.854 255.038 249.405 255.162 249.328 254.606 C 249.265 254.153 249.606 253.819 250.034 253.777 C 250.833 253.697 251.66 253.592 252.443 253.711 C 253.849 253.924 254.69 253.477 255.24 252.128 C 255.751 250.876 256.566 249.781 257.866 249.177 C 258.95 248.674 260.185 248.764 260.694 249.377 C 261.247 250.042 261.002 250.958 260.062 252.07 C 259.535 252.693 258.67 253.022 258.208 254.006 C 262.379 254.341 266.337 254.512 270.249 255.025 C 272.905 255.374 274.921 254.95 276.373 252.499 C 277.029 251.391 278.244 250.77 279.567 250.564 C 280.422 250.432 281.198 250.646 281.689 251.408 C 282.213 252.222 281.888 252.979 281.347 253.628 C 280.881 254.187 280.326 254.671 279.761 255.238 C 280.228 255.716 280.65 255.651 281.043 255.669 Z " fill="rgb(0,0,0)"/></g></svg>