<?xml version="1.0" encoding="UTF-8" standalone="no"?><!-- Generator: Gravit.io --><svg xmlns="http://www.w3.org/2000/svg" xmlns:xlink="http://www.w3.org/1999/xlink" style="isolation:isolate" viewBox="373.991 36.921 86.521 24.076" width="86.521pt" height="24.076pt"><g><path d=" M 373.991 48.918 C 376.392 49.781 378.509 50.392 380.699 50.743 C 390.527 52.323 400.167 51.431 409.718 48.773 C 417.482 46.614 424.969 43.671 432.539 40.957 C 437.416 39.209 442.37 37.73 447.544 37.152 C 450.122 36.865 452.706 36.8 455.283 37.219 C 456.133 37.357 456.968 37.515 457.387 38.086 C 457.525 38.49 457.445 38.632 457.263 38.596 C 452.471 37.65 447.842 38.569 443.236 39.798 C 437.459 41.339 431.97 43.672 426.429 45.867 C 419.617 48.564 412.802 51.274 405.567 52.664 C 396.766 54.356 387.992 54.269 379.275 52.051 C 378.089 51.748 376.935 51.354 375.848 50.784 C 375.162 50.425 374.395 50.144 373.991 48.918 Z " fill="rgb(0,0,0)"/><path d=" M 380.431 56.052 C 381.032 55.664 381.387 55.826 381.708 55.943 C 391.948 59.684 402.259 59.478 412.628 56.532 C 418.438 54.882 424.105 52.809 429.707 50.573 C 436.079 48.029 442.608 46.148 449.426 45.294 C 452.659 44.889 455.876 44.767 459.052 45.676 C 459.459 45.793 459.847 45.99 460.226 46.186 C 460.325 46.238 460.357 46.422 460.512 46.725 C 459.391 46.608 458.373 46.479 457.352 46.399 C 453.129 46.072 449.064 47.063 444.987 47.919 C 440.603 48.84 436.494 50.555 432.391 52.296 C 425.778 55.101 419.131 57.791 412.146 59.598 C 402.467 62.101 393.059 61.096 383.782 57.763 C 382.651 57.356 381.541 56.888 380.431 56.052 Z " fill="rgb(0,0,0)"/></g></svg>