<?xml version="1.0" encoding="UTF-8" standalone="no"?><!-- Generator: Gravit.io --><svg xmlns="http://www.w3.org/2000/svg" xmlns:xlink="http://www.w3.org/1999/xlink" style="isolation:isolate" viewBox="366.633 332.91 101.237 13.037" width="101.237pt" height="13.037pt"><g><path d=" M 463.988 339.674 C 463.988 341.182 464.088 342.697 463.942 344.193 C 463.877 344.862 463.944 346.007 462.728 345.945 C 461.71 345.893 461.794 344.915 461.718 344.224 C 461.614 343.295 461.553 342.359 461.543 341.427 C 461.533 340.434 461.092 340.128 459.954 340.098 C 448.602 339.796 437.247 339.764 425.891 339.771 C 411.358 339.779 396.826 339.776 382.294 339.779 C 379.672 339.78 377.057 339.691 374.447 339.419 C 372.231 339.188 372.217 339.224 372.086 341.16 C 372.022 342.092 372.021 343.026 371.961 343.959 C 371.927 344.479 371.793 345 371.041 344.98 C 370.311 344.961 370.201 344.469 370.14 343.932 C 369.776 340.78 369.705 337.625 369.919 334.464 C 369.938 334.178 369.985 333.891 370.056 333.612 C 370.147 333.25 370.323 332.917 370.813 332.93 C 371.252 332.941 371.517 333.2 371.702 333.544 C 372.066 334.218 371.982 334.946 372.035 335.659 C 372.186 337.688 371.833 337.717 374.272 337.74 C 380.146 337.799 386.022 337.807 391.897 337.775 C 410.638 337.675 429.377 337.436 448.117 337.674 C 452.087 337.725 456.055 337.879 459.995 338.324 C 461.15 338.455 461.62 338.17 461.604 337.121 C 461.59 336.116 461.645 335.11 461.689 334.105 C 461.712 333.605 461.696 333.016 462.422 332.924 C 463.167 332.829 463.569 333.229 463.752 333.88 C 464.148 335.291 464.065 336.734 464.157 338.165 C 464.188 338.667 464.162 339.171 464.162 339.674 C 464.103 339.674 464.046 339.674 463.988 339.674 Z " fill="rgb(0,0,0)"/><path d=" M 467.87 339.062 C 467.834 340.333 467.889 341.187 467.553 342.007 C 467.416 342.342 467.33 342.702 466.836 342.722 C 466.317 342.741 465.834 342.521 465.71 342.109 C 465.185 340.37 465.284 338.604 465.677 336.854 C 465.761 336.483 466.215 336.354 466.632 336.41 C 467.124 336.479 467.575 336.72 467.662 337.165 C 467.81 337.927 467.835 338.708 467.87 339.062 Z " fill="rgb(0,0,0)"/><path d=" M 368.374 338.774 C 368.107 339.463 368.727 340.721 367.7 340.792 C 366.244 340.893 366.974 339.521 366.766 338.808 C 366.59 338.204 366.634 337.538 366.65 336.901 C 366.66 336.54 366.848 336.188 367.349 336.205 C 367.785 336.22 368.102 336.463 368.165 336.849 C 368.27 337.479 368.307 338.12 368.374 338.774 Z " fill="rgb(0,0,0)"/></g></svg>