<?xml version="1.0" encoding="UTF-8" standalone="no"?><!-- Generator: Gravit.io --><svg xmlns="http://www.w3.org/2000/svg" xmlns:xlink="http://www.w3.org/1999/xlink" style="isolation:isolate" viewBox="152.072 187.87 195.845 43.151" width="195.845pt" height="43.151pt"><g><path d=" M 159.452 201.67 C 158.577 201.271 157.701 200.9 156.546 200.987 C 157.904 201.727 157.904 201.727 159.452 201.67 Z  M 161.266 200.244 C 159.62 198.973 157.752 198.809 155.799 199.021 C 157.533 199.819 159.359 200.243 161.266 200.244 Z  M 168.692 210.727 C 171.133 209.101 173.449 207.355 175.506 205.3 C 172.697 206.461 170.298 208.124 168.692 210.727 Z  M 176.685 202.125 C 174.279 199.177 172.354 195.904 169.818 192.773 C 169.953 197.369 172.716 201.134 176.685 202.125 Z  M 177.963 205.629 C 175.181 207.147 169.229 212.106 168.352 213.604 C 172.929 212.713 176.038 210.233 177.963 205.629 Z  M 192.662 203.593 C 191.161 201.732 189.803 200.088 188.489 198.41 C 187.161 196.713 186.032 194.855 184.402 192.978 C 184.241 198.57 189.103 203.243 192.662 203.593 Z  M 192.919 206.622 C 187.899 207.199 183.031 211.54 182.237 215.811 C 185.842 212.71 189.381 209.666 192.919 206.622 Z  M 185.044 191.557 C 188.036 195.574 190.605 199.632 194.166 203.104 C 194.581 199.248 190.228 193.435 185.044 191.557 Z  M 193.766 208.026 C 192.796 208.196 192.201 208.98 191.479 209.537 C 190.681 210.152 189.919 210.813 189.154 211.47 C 188.338 212.171 187.542 212.894 186.73 213.599 C 185.968 214.26 185.184 214.895 184.435 215.569 C 183.723 216.209 182.922 216.784 182.302 218.004 C 188.256 216.766 191.421 212.892 193.766 208.026 Z  M 201.055 192.296 C 200.913 197.764 206.451 204.686 210.88 204.634 C 206.928 200.969 204.068 196.59 201.055 192.296 Z  M 170.136 189.981 C 171.191 192.936 176.681 200.414 178.355 201.279 C 178.568 196.958 174.621 191.416 170.136 189.981 Z  M 197.737 221.882 C 201.337 219.266 209.371 210.658 210.321 208.511 C 203.897 210.979 200.477 216.118 197.737 221.882 Z  M 201.688 190.249 C 204.679 195.272 207.717 200.265 212.436 204.23 C 212.493 199.898 206.681 192.307 201.688 190.249 Z  M 212.572 208.7 C 207.974 213.599 203.584 218.642 198.443 223.287 C 204.364 222.764 211.325 215.532 212.572 208.7 Z  M 217.999 191.332 C 217.479 198.769 223.799 206.717 229.779 206.333 C 225.473 201.583 221.8 196.423 217.999 191.332 Z  M 218.647 227.649 C 223.195 221.597 228.03 216.259 231.595 209.703 C 225.614 211.139 219.032 220.208 218.647 227.649 Z  M 231.752 206.489 C 232.188 204.549 231.889 203.179 231.251 201.9 C 228.838 197.056 225.486 193.026 220.831 190.169 C 220.229 189.799 219.619 189.379 218.482 189.438 C 222.605 195.45 226.585 201.185 231.752 206.489 Z  M 218.83 229.469 C 223.431 228.879 227.349 225.954 229.937 221.095 C 231.636 217.906 233.368 214.649 232.699 210.798 C 228.666 217.374 223.585 223.121 218.83 229.469 Z  M 174.783 203.753 C 174.424 203.351 173.929 203.388 173.471 203.331 C 170.467 202.96 167.462 202.598 164.458 202.228 C 163.789 202.146 163.132 202.04 162.486 202.376 C 159.706 203.826 157.133 203.103 154.669 201.563 C 153.932 201.102 153.202 200.591 152.582 199.986 C 151.758 199.182 151.954 198.441 153.008 197.955 C 153.129 197.898 153.255 197.819 153.383 197.811 C 156.944 197.567 160.583 197.057 163.261 200.287 C 163.643 200.747 164.087 200.939 164.636 201.011 C 167.229 201.347 169.822 201.685 172.422 202.023 C 172.562 201.223 171.961 200.991 171.636 200.628 C 168.952 197.639 168.236 193.979 168.094 190.151 C 168.044 188.811 168.676 188.39 170.04 188.607 C 171.123 188.78 172.121 189.205 172.993 189.849 C 175.758 191.89 177.897 194.44 179.098 197.696 C 179.589 199.028 179.916 200.409 179.692 201.849 C 179.601 202.433 179.804 202.782 180.391 202.82 C 182.969 202.989 185.531 203.457 188.135 203.385 C 188.141 202.752 187.702 202.612 187.421 202.373 C 184.092 199.533 182.924 195.773 182.873 191.572 C 182.849 189.694 183.549 189.167 185.274 190.025 C 190.55 192.652 194.641 196.342 195.599 202.562 C 195.838 204.113 195.821 204.174 197.4 204.317 C 200.461 204.594 203.528 204.798 206.778 205.046 C 206.525 204.162 205.917 203.94 205.493 203.581 C 201.995 200.615 199.959 196.871 199.443 192.31 C 199.391 191.843 199.363 191.37 199.374 190.9 C 199.424 188.571 200.374 187.842 202.434 189.001 C 207.911 192.083 211.753 196.62 213.703 202.653 C 214.006 203.59 213.668 204.83 214.445 205.486 C 215.145 206.077 216.263 205.749 217.193 205.834 C 219.652 206.061 222.118 206.217 224.604 206.403 C 224.557 205.696 224.001 205.6 223.636 205.365 C 219.969 203.01 217.889 199.601 216.968 195.413 C 216.578 193.635 216.241 191.842 216.353 190.016 C 216.472 188.071 217.277 187.529 219.164 188.065 C 220.272 188.38 221.271 188.946 222.229 189.579 C 226.546 192.429 229.726 196.289 232.131 200.818 C 232.932 202.327 233.387 203.948 233.222 205.677 C 233.121 206.732 233.572 207.116 234.589 207.17 C 237.612 207.331 240.632 207.551 243.652 207.751 C 245.465 207.872 247.277 207.992 249.088 208.131 C 249.484 208.162 249.892 208.227 250.262 208.365 C 250.495 208.453 250.692 208.693 250.591 209.015 C 250.525 209.225 250.371 209.361 250.163 209.365 C 249.693 209.374 249.222 209.365 248.754 209.335 C 244.792 209.083 240.831 208.825 236.87 208.57 C 236.467 208.544 236.063 208.508 235.66 208.505 C 234.238 208.495 234.121 208.514 234.225 209.98 C 234.592 215.181 232.486 219.588 229.749 223.726 C 227.198 227.583 223.64 230.122 218.964 230.87 C 218.567 230.934 218.161 231.047 217.77 231.016 C 216.922 230.949 216.38 230.539 216.486 229.584 C 216.494 229.517 216.502 229.45 216.517 229.384 C 218.242 221.596 220.871 214.344 228.106 209.818 C 228.727 209.429 229.326 209.004 229.929 208.588 C 229.963 208.565 229.945 208.468 229.966 208.263 C 229.342 207.92 228.59 208.007 227.897 207.949 C 224.009 207.623 220.119 207.315 216.226 207.054 C 214.589 206.944 214.69 207.114 214.132 208.715 C 211.389 216.585 206.996 222.897 198.247 224.884 C 197.531 225.046 196.78 225.148 196.049 225.131 C 194.883 225.103 194.591 224.614 195.094 223.578 C 195.504 222.733 196.011 221.934 196.486 221.121 C 197.233 219.843 198.024 218.589 198.736 217.292 C 201.119 212.96 204.571 209.783 209.002 207.628 C 209.392 207.439 209.94 207.411 210.153 206.656 C 208.955 206.539 207.793 206.41 206.627 206.315 C 203.476 206.058 200.322 205.833 197.172 205.559 C 196.308 205.483 195.984 205.695 195.668 206.63 C 193.7 212.46 190.177 216.912 184.092 218.877 C 182.879 219.27 181.635 219.598 180.381 219.825 C 179.127 220.052 178.659 219.503 179.199 218.351 C 181.705 213.008 184.289 207.706 190.448 205.563 C 190.548 205.529 190.606 205.371 190.784 205.138 C 190.022 204.746 189.217 204.9 188.47 204.823 C 186.062 204.575 183.646 204.395 181.24 204.125 C 180.358 204.025 179.813 204.257 179.609 205.144 C 179.594 205.208 179.551 205.265 179.528 205.328 C 177.417 211.046 173.25 214.226 167.314 215.225 C 166.983 215.281 166.656 215.366 166.324 215.417 C 165.854 215.488 165.317 215.581 164.996 215.179 C 164.595 214.678 164.953 214.175 165.187 213.688 C 167.083 209.755 169.819 206.617 173.73 204.572 C 174.121 204.368 174.633 204.285 174.783 203.753 Z " fill="rgb(0,0,0)"/><path d=" M 343.441 200.987 C 342.287 200.9 341.411 201.271 340.536 201.67 C 342.084 201.727 342.084 201.727 343.441 200.987 Z  M 344.188 199.021 C 342.236 198.809 340.368 198.973 338.723 200.244 C 340.629 200.243 342.455 199.819 344.188 199.021 Z  M 324.481 205.3 C 326.539 207.355 328.855 209.101 331.296 210.727 C 329.69 208.124 327.291 206.461 324.481 205.3 Z  M 330.17 192.773 C 327.635 195.904 325.709 199.177 323.304 202.125 C 327.271 201.134 330.035 197.369 330.17 192.773 Z  M 331.636 213.604 C 330.76 212.106 324.808 207.147 322.024 205.629 C 323.95 210.233 327.06 212.713 331.636 213.604 Z  M 315.586 192.978 C 313.956 194.855 312.827 196.713 311.499 198.41 C 310.186 200.088 308.827 201.732 307.325 203.593 C 310.886 203.243 315.747 198.57 315.586 192.978 Z  M 317.751 215.811 C 316.957 211.54 312.089 207.199 307.068 206.622 C 310.607 209.666 314.146 212.71 317.751 215.811 Z  M 305.821 203.104 C 309.383 199.632 311.952 195.574 314.943 191.557 C 309.76 193.435 305.407 199.248 305.821 203.104 Z  M 317.686 218.004 C 317.065 216.784 316.265 216.209 315.554 215.569 C 314.804 214.895 314.02 214.26 313.258 213.599 C 312.446 212.894 311.649 212.171 310.834 211.47 C 310.069 210.813 309.307 210.152 308.509 209.537 C 307.787 208.98 307.192 208.196 306.223 208.026 C 308.567 212.892 311.732 216.766 317.686 218.004 Z  M 289.107 204.634 C 293.537 204.686 299.075 197.764 298.934 192.296 C 295.92 196.59 293.06 200.969 289.107 204.634 Z  M 321.633 201.279 C 323.307 200.414 328.797 192.936 329.852 189.981 C 325.366 191.416 321.42 196.958 321.633 201.279 Z  M 289.666 208.511 C 290.617 210.658 298.65 219.266 302.251 221.882 C 299.511 216.118 296.091 210.979 289.666 208.511 Z  M 287.552 204.23 C 292.27 200.265 295.309 195.272 298.3 190.249 C 293.307 192.307 287.495 199.898 287.552 204.23 Z  M 301.545 223.287 C 296.403 218.642 292.014 213.599 287.415 208.7 C 288.663 215.532 295.624 222.764 301.545 223.287 Z  M 270.209 206.333 C 276.188 206.717 282.509 198.769 281.989 191.332 C 278.187 196.423 274.515 201.583 270.209 206.333 Z  M 268.394 209.703 C 271.957 216.259 276.793 221.597 281.341 227.649 C 280.956 220.208 274.374 211.139 268.394 209.703 Z  M 281.506 189.438 C 280.369 189.379 279.759 189.799 279.157 190.169 C 274.502 193.026 271.15 197.056 268.736 201.9 C 268.1 203.179 267.8 204.549 268.235 206.489 C 273.402 201.185 277.383 195.45 281.506 189.438 Z  M 267.289 210.798 C 266.62 214.649 268.352 217.906 270.051 221.095 C 272.639 225.954 276.558 228.879 281.158 229.469 C 276.402 223.121 271.321 217.374 267.289 210.798 Z  M 326.258 204.572 C 330.169 206.617 332.905 209.755 334.801 213.688 C 335.035 214.175 335.393 214.678 334.991 215.179 C 334.671 215.581 334.134 215.488 333.664 215.417 C 333.332 215.366 333.005 215.281 332.674 215.225 C 326.738 214.226 322.571 211.046 320.46 205.328 C 320.436 205.265 320.394 205.208 320.379 205.144 C 320.175 204.257 319.63 204.025 318.748 204.125 C 316.342 204.395 313.926 204.575 311.518 204.823 C 310.771 204.9 309.966 204.746 309.204 205.138 C 309.382 205.371 309.439 205.529 309.539 205.563 C 315.699 207.706 318.283 213.008 320.789 218.351 C 321.329 219.503 320.86 220.052 319.606 219.825 C 318.353 219.598 317.109 219.27 315.895 218.877 C 309.811 216.912 306.288 212.46 304.319 206.63 C 304.004 205.695 303.68 205.483 302.815 205.559 C 299.666 205.833 296.512 206.058 293.36 206.315 C 292.195 206.41 291.032 206.539 289.835 206.656 C 290.048 207.411 290.596 207.439 290.985 207.628 C 295.417 209.783 298.869 212.96 301.251 217.292 C 301.964 218.589 302.755 219.843 303.502 221.121 C 303.978 221.934 304.484 222.733 304.895 223.578 C 305.396 224.614 305.104 225.103 303.938 225.131 C 303.208 225.148 302.457 225.046 301.741 224.884 C 292.992 222.897 288.599 216.585 285.856 208.715 C 285.298 207.114 285.399 206.944 283.762 207.054 C 279.869 207.315 275.978 207.623 272.091 207.949 C 271.397 208.007 270.645 207.92 270.022 208.263 C 270.043 208.468 270.025 208.565 270.059 208.588 C 270.662 209.004 271.261 209.429 271.882 209.818 C 279.117 214.344 281.746 221.596 283.472 229.384 C 283.485 229.45 283.494 229.517 283.502 229.584 C 283.608 230.539 283.065 230.949 282.219 231.016 C 281.826 231.047 281.421 230.934 281.024 230.87 C 276.349 230.122 272.79 227.583 270.239 223.726 C 267.502 219.588 265.395 215.181 265.764 209.98 C 265.867 208.514 265.75 208.495 264.328 208.505 C 263.925 208.508 263.521 208.544 263.118 208.57 C 259.157 208.825 255.196 209.083 251.234 209.335 C 250.766 209.365 250.295 209.374 249.825 209.365 C 249.617 209.361 249.462 209.225 249.397 209.015 C 249.296 208.693 249.493 208.453 249.727 208.365 C 250.096 208.227 250.503 208.162 250.9 208.131 C 252.711 207.992 254.523 207.872 256.336 207.751 C 259.356 207.551 262.376 207.331 265.398 207.17 C 266.416 207.116 266.867 206.732 266.767 205.677 C 266.601 203.948 267.056 202.327 267.856 200.818 C 270.263 196.289 273.441 192.429 277.759 189.579 C 278.717 188.946 279.716 188.38 280.824 188.065 C 282.711 187.529 283.517 188.071 283.636 190.016 C 283.747 191.842 283.41 193.635 283.02 195.413 C 282.099 199.601 280.019 203.01 276.352 205.365 C 275.986 205.6 275.431 205.696 275.384 206.403 C 277.87 206.217 280.336 206.061 282.795 205.834 C 283.726 205.749 284.843 206.077 285.543 205.486 C 286.319 204.83 285.982 203.59 286.285 202.653 C 288.234 196.62 292.077 192.083 297.554 189.001 C 299.614 187.842 300.563 188.571 300.614 190.9 C 300.625 191.37 300.598 191.843 300.545 192.31 C 300.029 196.871 297.993 200.615 294.495 203.581 C 294.071 203.94 293.463 204.162 293.21 205.046 C 296.46 204.798 299.527 204.594 302.588 204.317 C 304.167 204.174 304.15 204.113 304.39 202.562 C 305.348 196.342 309.438 192.652 314.714 190.025 C 316.438 189.167 317.139 189.694 317.115 191.572 C 317.063 195.773 315.895 199.533 312.566 202.373 C 312.286 202.612 311.848 202.752 311.853 203.385 C 314.457 203.457 317.02 202.989 319.597 202.82 C 320.184 202.782 320.387 202.433 320.296 201.849 C 320.072 200.409 320.398 199.028 320.89 197.696 C 322.091 194.44 324.23 191.89 326.995 189.849 C 327.866 189.205 328.865 188.78 329.948 188.607 C 331.312 188.39 331.943 188.811 331.894 190.151 C 331.752 193.979 331.036 197.639 328.353 200.628 C 328.026 200.991 327.426 201.223 327.566 202.023 C 330.166 201.685 332.759 201.347 335.352 201.011 C 335.9 200.939 336.346 200.747 336.727 200.287 C 339.405 197.057 343.044 197.567 346.604 197.811 C 346.732 197.819 346.858 197.898 346.98 197.955 C 348.034 198.441 348.23 199.182 347.406 199.986 C 346.786 200.591 346.057 201.102 345.318 201.563 C 342.854 203.103 340.282 203.826 337.502 202.376 C 336.855 202.04 336.199 202.146 335.53 202.228 C 332.525 202.598 329.52 202.96 326.517 203.331 C 326.059 203.388 325.563 203.351 325.205 203.753 C 325.354 204.285 325.866 204.368 326.258 204.572 Z " fill="rgb(0,0,0)"/></g></svg>