<?xml version="1.0" encoding="UTF-8" standalone="no"?><!-- Generator: Gravit.io --><svg xmlns="http://www.w3.org/2000/svg" xmlns:xlink="http://www.w3.org/1999/xlink" style="isolation:isolate" viewBox="363.402 239.672 107.699 8.978" width="107.699pt" height="8.978pt"><path d=" M 363.402 239.672 C 364.91 240.231 365.728 241.055 366.483 241.861 C 367.353 242.789 368.313 243.068 369.537 243.067 C 381.104 243.055 392.671 243.08 404.237 243.104 C 423.204 243.142 442.169 242.841 461.135 242.674 C 461.351 242.672 461.57 242.635 461.78 242.668 C 464.118 243.032 466.144 242.521 467.806 240.721 C 468.223 240.269 468.884 240.024 469.464 239.75 C 469.711 239.634 470.062 239.696 470.229 239.972 C 470.405 240.262 470.236 240.526 470.008 240.713 C 469.065 241.488 468.114 242.251 467.164 243.017 C 466.888 243.239 466.606 243.455 466.226 243.754 C 466.947 244.74 467.973 245.281 468.79 246.04 C 469.603 246.795 470.645 247.35 471.101 248.473 C 470.343 248.926 469.915 248.404 469.506 248.072 C 468.168 246.988 466.842 245.884 465.572 244.722 C 465.115 244.304 464.721 244.083 464.074 244.119 C 452.948 244.739 441.809 244.402 430.676 244.544 C 413.363 244.764 396.05 244.529 378.736 244.429 C 375.936 244.413 373.132 244.327 370.338 244.14 C 369.252 244.068 368.503 244.186 367.817 245.153 C 367.075 246.203 365.967 246.945 364.9 247.683 C 364.501 247.959 364.098 247.99 363.737 247.64 C 363.335 247.249 363.505 246.847 363.808 246.501 C 364.375 245.856 364.897 245.143 365.565 244.621 C 366.54 243.858 366.28 243.271 365.576 242.525 C 364.861 241.769 363.876 241.209 363.402 239.672 Z " fill="rgb(0,0,0)"/></svg>