<?xml version="1.0" encoding="UTF-8" standalone="no"?><!-- Generator: Gravit.io --><svg xmlns="http://www.w3.org/2000/svg" xmlns:xlink="http://www.w3.org/1999/xlink" style="isolation:isolate" viewBox="353.815 141.052 126.873 14.181" width="126.873pt" height="14.181pt"><path d=" M 430.674 147.405 C 429.153 149.253 429.042 150.271 430.188 152.173 C 431.751 150.68 431.222 149.096 430.674 147.405 Z  M 418.981 147.979 C 417.85 149.094 417.183 150.289 417.342 151.838 C 417.407 152.471 417.718 152.946 418.403 152.983 C 419.025 153.017 419.304 152.5 419.42 152.033 C 419.758 150.688 419.75 149.349 418.981 147.979 Z  M 408.66 146.564 C 407.597 147.177 406.993 147.982 406.387 148.78 C 405.772 149.588 405.289 150.485 405.054 151.462 C 404.856 152.283 404.683 153.212 405.531 153.833 C 406.354 154.436 407.203 154.08 407.973 153.69 C 408.916 153.213 409.533 152.418 409.716 151.361 C 410.008 149.679 409.823 148.086 408.66 146.564 Z  M 480.688 150.257 C 479.863 151.273 478.724 151.357 477.723 151.543 C 468.789 153.2 460.14 152.55 451.954 148.24 C 448.969 146.668 445.939 145.182 442.704 144.158 C 439.855 143.256 437.072 143.189 434.313 144.5 C 433.457 144.907 433.057 145.326 433.569 146.307 C 434.14 147.398 434.294 148.635 434.506 149.835 C 434.754 151.242 434.236 152.366 433.095 153.218 C 431.889 154.117 430.564 154.225 429.213 153.699 C 428.006 153.229 427.295 151.694 427.472 150.057 C 427.621 148.666 428.179 147.439 429.095 146.367 C 429.522 145.865 430.371 145.515 429.863 144.589 C 429.421 143.781 428.77 143.195 427.846 143.153 C 426.073 143.072 424.455 143.69 422.931 144.528 C 422.364 144.84 422.583 145.379 422.767 145.867 C 423.225 147.088 423.455 148.354 423.475 149.661 C 423.491 150.765 423.253 151.795 422.679 152.746 C 421.341 154.963 418.506 155.409 416.553 153.717 C 415.388 152.707 415.453 151.438 415.844 150.154 C 416.181 149.045 416.849 148.089 417.555 147.177 C 417.99 146.615 418.591 146.143 418.057 145.304 C 417.479 144.396 417.045 143.35 415.71 143.373 C 414.915 143.386 414.145 143.496 413.384 143.757 C 411.337 144.46 411.323 144.448 412.032 146.52 C 412.583 148.129 412.707 149.734 412.148 151.373 C 411.339 153.746 408.876 155.385 406.471 155.121 C 404.33 154.886 403.287 153.473 403.735 151.366 C 404.172 149.32 405.401 147.742 406.793 146.255 C 407.69 145.296 407.582 144.914 406.346 144.543 C 405.355 144.248 404.357 144.364 403.362 144.571 C 400.814 145.104 398.415 146.054 396.061 147.134 C 392.275 148.871 388.512 150.658 384.695 152.323 C 379.749 154.481 374.575 155.574 369.158 155.139 C 363.245 154.664 358.206 152.368 354.332 147.765 C 354.147 147.547 353.976 147.313 353.837 147.064 C 353.784 146.971 353.841 146.815 353.853 146.582 C 354.778 146.571 355.16 147.376 355.682 147.86 C 358.248 150.242 361.085 152.095 364.513 153.032 C 369.453 154.383 374.197 153.671 378.861 151.884 C 381.486 150.879 383.907 149.456 386.35 148.083 C 389.041 146.568 391.691 144.971 394.502 143.682 C 397.389 142.359 400.352 141.287 403.602 141.316 C 405.656 141.335 407.624 141.684 409.322 142.9 C 410.009 143.392 410.548 143.425 411.253 142.984 C 412.042 142.492 412.882 142.066 413.735 141.696 C 416.199 140.628 418.573 140.846 420.561 142.671 C 421.492 143.527 422.182 143.551 423.196 142.994 C 423.94 142.586 424.795 142.364 425.618 142.118 C 427.763 141.476 429.776 141.783 431.484 143.25 C 432.156 143.827 432.676 143.824 433.394 143.474 C 436.615 141.899 439.917 142.053 443.262 143.051 C 446.236 143.938 449.123 145.085 451.776 146.657 C 458.07 150.385 464.96 151.376 472.087 151.412 C 474.616 151.424 477.079 150.89 479.506 150.214 C 479.849 150.118 480.157 149.906 480.688 150.257 Z " fill="rgb(0,0,0)"/></svg>