<?xml version="1.0" encoding="UTF-8" standalone="no"?><!-- Generator: Gravit.io --><svg xmlns="http://www.w3.org/2000/svg" xmlns:xlink="http://www.w3.org/1999/xlink" style="isolation:isolate" viewBox="25.694 41.833 105.357 12.29" width="105.357pt" height="12.29pt"><path d=" M 25.694 47.787 C 26.26 47.461 26.641 47.857 27.018 48.157 C 30.337 50.807 34.257 51.871 38.355 52.464 C 48.157 53.883 57.669 52.444 67.084 49.696 C 73.563 47.806 79.968 45.655 86.537 44.082 C 94.131 42.264 101.812 41.326 109.625 42.114 C 116.998 42.856 123.869 44.888 129.412 50.148 C 130.051 50.755 130.898 51.237 131.051 52.242 C 130.379 52.594 130.013 52.218 129.664 51.867 C 123.658 45.83 116.046 43.882 107.896 43.399 C 99.258 42.888 90.864 44.344 82.587 46.699 C 75.338 48.761 68.153 51.06 60.773 52.645 C 52.375 54.45 43.957 54.692 35.534 52.868 C 32.281 52.164 29.192 51.015 26.552 48.893 C 26.273 48.669 26.009 48.424 25.766 48.163 C 25.694 48.087 25.717 47.922 25.694 47.787 Z " fill="rgb(0,0,0)"/></svg>