<?xml version="1.0" encoding="UTF-8" standalone="no"?><!-- Generator: Gravit.io --><svg xmlns="http://www.w3.org/2000/svg" xmlns:xlink="http://www.w3.org/1999/xlink" style="isolation:isolate" viewBox="25.553 247.791 105.639 20.696" width="105.639pt" height="20.696pt"><path d=" M 31.967 249.267 C 31.247 249.158 31.031 249.152 30.832 249.091 C 28.247 248.296 27.004 249.204 27.052 251.932 C 27.089 254.019 27.919 255.843 29.116 257.514 C 31.156 260.363 34.046 261.956 37.32 262.894 C 44.754 265.022 52.177 264.746 59.583 262.679 C 64.886 261.197 70.052 259.301 75.278 257.585 C 83.537 254.875 91.868 252.466 100.542 251.481 C 106.813 250.77 113.072 250.501 119.249 252.216 C 122.848 253.214 125.956 255.022 128.424 257.859 C 129.715 259.342 130.725 260.989 131.113 262.942 C 131.736 266.08 128.571 269.172 125.562 268.354 C 125.616 267.653 126.283 267.655 126.691 267.397 C 129.266 265.766 129.683 264.171 128.054 261.567 C 125.966 258.23 122.872 256.293 119.077 255.456 C 114.082 254.354 109.049 254.679 104.027 255.226 C 93.648 256.355 83.71 259.4 73.731 262.266 C 66.644 264.301 59.498 266.057 52.077 266.313 C 46.364 266.509 40.778 265.805 35.399 263.811 C 32.13 262.599 29.323 260.732 27.373 257.748 C 26.012 255.666 25.298 253.414 25.637 250.914 C 25.811 249.634 26.33 248.522 27.648 248.019 C 28.997 247.505 30.35 247.833 31.967 249.267 Z " fill="rgb(0,0,0)"/></svg>