<?xml version="1.0" encoding="UTF-8" standalone="no"?><!-- Generator: Gravit.io --><svg xmlns="http://www.w3.org/2000/svg" xmlns:xlink="http://www.w3.org/1999/xlink" style="isolation:isolate" viewBox="21.686 33.426 126.077 45.193" width="126.077pt" height="45.193pt"><path d=" M 110.637 59.94 C 114.894 60.801 119.145 61.13 123.431 60.615 C 123.973 60.55 124.525 60.34 125.009 60.079 C 125.709 59.7 126.493 59.231 126.376 58.301 C 126.269 57.451 125.417 57.297 124.733 57.139 C 119.62 55.955 115.075 57.629 110.637 59.94 Z  M 70.898 71.73 C 67.612 71.083 64.352 70.459 60.994 71.132 C 59.262 71.48 57.608 72.052 56.206 73.157 C 55.407 73.787 54.277 74.563 54.725 75.618 C 55.138 76.593 56.434 76.122 57.302 75.964 C 61.689 75.166 65.971 73.957 70.173 72.468 C 70.456 72.368 70.766 72.245 70.898 71.73 Z  M 63.415 53.343 C 63.38 53.172 63.345 53.002 63.31 52.831 C 61.085 52.228 58.785 52.043 56.505 51.814 C 51.143 51.276 45.815 51.444 40.602 52.989 C 38.268 53.681 36.151 54.782 34.514 56.625 C 33.798 57.431 32.589 58.315 33.263 59.459 C 33.754 60.293 35.034 59.715 35.964 59.68 C 36.358 59.665 36.748 59.538 37.141 59.467 C 43.588 58.311 49.951 56.777 56.295 55.16 C 58.669 54.555 61.042 53.949 63.415 53.343 Z  M 113.051 43.2 C 115.699 44.118 118.397 44.345 121.076 44.651 C 125.197 45.122 129.327 45.473 133.479 44.912 C 136.921 44.447 140.191 43.531 143.039 41.452 C 143.454 41.149 144.06 40.937 143.909 39.96 C 133.226 36.852 123.098 39.608 113.051 43.2 Z  M 96.804 60.985 C 91.816 59.611 86.773 58.407 81.858 56.81 C 77.987 55.552 74.369 55.633 70.437 56.71 C 59.946 59.584 49.231 61.378 38.39 62.369 C 37.028 62.493 35.671 62.539 34.336 62.221 C 31.493 61.542 30.581 59.108 32.315 56.766 C 34.042 54.435 36.447 53.029 39.12 52.073 C 44.009 50.324 49.092 49.949 54.234 50.056 C 58.639 50.147 62.994 50.718 67.334 51.417 C 68.858 51.663 70.307 51.626 71.824 51.228 C 80.089 49.061 88.302 46.71 96.509 44.337 C 96.962 44.206 97.398 44.019 98.06 43.779 C 97.567 43.254 97.06 43.159 96.58 43.057 C 83.929 40.358 71.327 37.381 58.444 35.938 C 50.02 34.995 41.575 34.415 33.098 35.224 C 29.596 35.559 26.119 36.047 22.833 37.404 C 22.445 37.564 22.006 37.771 21.779 37.349 C 21.475 36.783 21.979 36.49 22.409 36.283 C 23.933 35.55 25.568 35.158 27.21 34.819 C 34.304 33.354 41.481 33.264 48.678 33.566 C 61.651 34.109 74.383 36.411 87.097 38.847 C 92.038 39.794 96.997 40.652 101.927 41.652 C 103.56 41.983 105.056 41.823 106.624 41.364 C 113.059 39.482 119.504 37.638 126.134 36.528 C 131.296 35.664 136.458 35.518 141.636 36.306 C 142.5 36.438 143.364 36.654 144.188 36.944 C 147.826 38.224 148.913 42.353 146.395 45.296 C 145.162 46.737 143.529 47.561 141.763 48.159 C 138.613 49.226 135.358 49.448 132.067 49.337 C 124.923 49.097 117.949 47.654 111.027 46.065 C 107.906 45.35 105.171 45.576 102.23 46.761 C 96.084 49.236 89.787 51.317 83.433 53.214 C 82.884 53.377 82.133 53.3 81.713 54.256 C 84.377 54.915 86.96 55.591 89.561 56.187 C 93.064 56.988 96.596 57.663 100.084 58.519 C 101.961 58.981 103.676 58.812 105.443 58.092 C 108.925 56.674 112.518 55.602 116.215 54.885 C 118.604 54.422 120.982 54.435 123.356 54.933 C 124.056 55.08 124.769 55.252 125.415 55.545 C 128.484 56.939 128.788 60.235 126.023 62.202 C 124.76 63.101 123.282 63.438 121.758 63.649 C 116.622 64.361 111.548 63.688 106.494 62.912 C 105.146 62.705 104.042 62.842 102.843 63.47 C 96.619 66.734 90.327 69.861 83.784 72.451 C 83.571 72.536 83.394 72.709 83.158 72.87 C 83.582 73.46 84.222 73.497 84.793 73.662 C 90.327 75.257 95.917 76.571 101.672 77.074 C 102.598 77.155 103.584 77.164 104.04 78.158 C 103.794 78.828 103.348 78.57 102.996 78.574 C 95.785 78.662 88.899 76.942 82.124 74.715 C 80.287 74.111 78.612 74.097 76.772 74.666 C 70.957 76.464 64.985 77.523 58.933 78.148 C 57.729 78.273 56.533 78.309 55.361 78 C 53.307 77.456 52.61 75.81 53.624 73.932 C 54.292 72.693 55.344 71.848 56.565 71.199 C 59.173 69.812 61.969 69.281 64.9 69.438 C 67.696 69.587 70.467 69.953 73.204 70.549 C 73.997 70.722 74.752 70.819 75.548 70.504 C 82.744 67.667 89.807 64.523 96.906 61.464 C 96.872 61.305 96.838 61.145 96.804 60.985 Z " fill="rgb(0,0,0)"/></svg>