<?xml version="1.0" encoding="UTF-8" standalone="no"?><!-- Generator: Gravit.io --><svg xmlns="http://www.w3.org/2000/svg" xmlns:xlink="http://www.w3.org/1999/xlink" style="isolation:isolate" viewBox="160.566 288.941 178.868 17.165" width="178.868pt" height="17.165pt"><g><path d=" M 192.291 305.144 C 192.613 304.918 192.723 304.772 192.825 304.777 C 198.027 305.053 203.002 303.814 207.95 302.466 C 213.97 300.826 219.97 299.11 225.918 297.066 C 223.477 297.426 221.03 297.75 218.596 298.151 C 210.051 299.56 201.574 301.401 192.938 302.225 C 186.775 302.811 180.605 303.171 174.46 302.032 C 172.74 301.714 171.165 301.092 170.056 299.61 C 170.254 299.439 170.404 299.262 170.443 299.284 C 173.181 300.809 176.213 300.872 179.213 301.01 C 185.718 301.311 192.17 300.624 198.579 299.641 C 207.947 298.204 217.234 296.273 226.631 294.936 C 225.175 294.936 223.709 294.829 222.264 294.954 C 213.407 295.717 204.563 296.671 195.696 297.286 C 187.943 297.825 180.169 297.869 172.513 296.128 C 169.035 295.338 165.711 294.145 162.833 291.958 C 161.902 291.251 160.949 290.526 160.566 289.305 C 161.295 288.982 161.458 289.551 161.748 289.807 C 164.19 291.959 167.123 293.116 170.213 293.892 C 177.083 295.614 184.079 295.728 191.106 295.464 C 200.228 295.121 209.279 293.934 218.369 293.209 C 224.609 292.712 230.852 292.331 237.116 292.527 C 239.457 292.601 241.765 292.956 244.066 293.366 C 244.669 293.474 245.262 293.588 245.722 294.016 C 246.154 294.417 246.201 294.935 246.046 295.476 C 245.895 296.008 245.465 296.183 244.993 296.104 C 239.825 295.246 234.996 296.998 230.144 298.196 C 222.252 300.144 214.45 302.447 206.591 304.528 C 202.946 305.494 199.25 306.248 195.438 306.083 C 194.347 306.035 193.271 305.95 192.291 305.144 Z " fill="rgb(0,0,0)"/><path d=" M 250.103 297.446 C 249.49 297.446 249.139 297.142 248.918 296.744 C 248.371 295.758 247.818 294.767 247.374 293.732 C 247.007 292.88 248.359 289.588 249.204 289.081 C 249.663 288.806 250.063 288.964 250.421 289.308 C 252.337 291.145 252.417 295.223 250.572 297.138 C 250.417 297.299 250.266 297.478 250.103 297.446 Z " fill="rgb(0,0,0)"/><path d=" M 307.709 305.144 C 307.388 304.918 307.277 304.772 307.175 304.777 C 301.973 305.053 296.998 303.814 292.05 302.466 C 286.03 300.826 280.03 299.11 274.082 297.066 C 276.522 297.426 278.97 297.75 281.403 298.151 C 289.949 299.56 298.426 301.401 307.063 302.225 C 313.225 302.811 319.395 303.171 325.54 302.032 C 327.261 301.714 328.835 301.092 329.944 299.61 C 329.746 299.439 329.597 299.262 329.558 299.284 C 326.819 300.809 323.786 300.872 320.787 301.01 C 314.282 301.311 307.83 300.624 301.421 299.641 C 292.054 298.204 282.766 296.273 273.369 294.936 C 274.825 294.936 276.29 294.829 277.735 294.954 C 286.594 295.717 295.437 296.671 304.304 297.286 C 312.057 297.825 319.831 297.869 327.487 296.128 C 330.965 295.338 334.289 294.145 337.167 291.958 C 338.099 291.251 339.051 290.526 339.434 289.305 C 338.705 288.982 338.542 289.551 338.253 289.807 C 335.81 291.959 332.877 293.116 329.786 293.892 C 322.918 295.614 315.921 295.728 308.895 295.464 C 299.771 295.121 290.722 293.934 281.632 293.209 C 275.391 292.712 269.148 292.331 262.884 292.527 C 260.543 292.601 258.235 292.956 255.934 293.366 C 255.33 293.474 254.738 293.588 254.277 294.016 C 253.846 294.417 253.799 294.935 253.954 295.476 C 254.105 296.008 254.535 296.183 255.007 296.104 C 260.175 295.246 265.004 296.998 269.856 298.196 C 277.747 300.144 285.55 302.447 293.408 304.528 C 297.054 305.494 300.749 306.248 304.563 306.083 C 305.653 306.035 306.729 305.95 307.709 305.144 Z " fill="rgb(0,0,0)"/></g></svg>