<?xml version="1.0" encoding="UTF-8" standalone="no"?><!-- Generator: Gravit.io --><svg xmlns="http://www.w3.org/2000/svg" xmlns:xlink="http://www.w3.org/1999/xlink" style="isolation:isolate" viewBox="16.852 338.158 132.199 15.971" width="132.199pt" height="15.971pt"><g><path d=" M 149.051 352.076 C 148.492 352.638 147.893 352.418 147.362 352.407 C 124.273 351.938 101.198 352.673 78.119 353.156 C 60.032 353.534 41.95 354.188 23.855 354.124 C 21.974 354.117 20.089 354.138 18.227 353.806 C 17.692 353.71 17.045 353.76 16.852 353.071 C 17.015 352.516 17.427 352.665 17.755 352.665 C 33.534 352.688 49.296 351.98 65.066 351.641 C 86.915 351.17 108.755 350.27 130.614 350.353 C 136.114 350.374 141.604 350.735 147.09 351.13 C 147.857 351.185 148.662 351.167 149.051 352.076 Z " fill="rgb(0,0,0)"/><path d=" M 83.109 342.395 C 83.27 344.155 82.695 345.83 82.503 347.551 C 82.404 348.431 81.568 348.635 80.909 348.036 C 80.753 347.895 80.627 347.708 80.526 347.52 C 79.486 345.576 78.864 343.504 78.855 341.295 C 78.847 339.42 79.694 338.199 80.875 338.159 C 82.164 338.115 82.956 339.146 83.103 341.094 C 83.136 341.526 83.108 341.963 83.109 342.395 Z " fill="rgb(0,0,0)"/><path d=" M 78.186 349.112 C 76.321 348.8 74.612 348.267 73.143 347.136 C 72.725 346.814 72.447 346.378 72.616 345.816 C 72.782 345.266 73.236 345.057 73.762 344.964 C 74.809 344.777 75.761 345.002 76.648 345.584 C 77.508 346.148 78.116 346.967 78.834 347.675 C 79.09 347.928 79.396 348.179 79.233 348.59 C 79.034 349.096 78.533 348.994 78.186 349.112 Z " fill="rgb(0,0,0)"/><path d=" M 85.934 348.474 C 85.561 348.484 85.21 348.431 84.999 348.076 C 84.778 347.707 84.958 347.381 85.156 347.077 C 86.127 345.598 87.577 344.839 89.245 344.489 C 90.097 344.311 90.873 344.626 91.155 345.507 C 91.403 346.279 90.752 346.667 90.209 347.021 C 88.911 347.869 87.379 348.049 85.934 348.474 Z " fill="rgb(0,0,0)"/></g></svg>