<?xml version="1.0" encoding="UTF-8" standalone="no"?><!-- Generator: Gravit.io --><svg xmlns="http://www.w3.org/2000/svg" xmlns:xlink="http://www.w3.org/1999/xlink" style="isolation:isolate" viewBox="343.181 301.764 135.098 18.648" width="135.098pt" height="18.648pt"><path d=" M 358.335 316.848 C 360.201 315.915 361.426 314.575 362.682 313.302 C 365.642 310.301 368.863 307.612 372.247 305.113 C 373.764 303.993 375.334 302.951 377.104 302.261 C 378.561 301.692 379.66 301.923 380.631 303.005 C 381.608 304.095 381.745 305.323 381.113 306.63 C 380.506 307.887 379.565 308.895 378.597 309.876 C 377.173 311.319 375.717 312.731 374.321 314.202 C 373.576 314.988 372.924 315.865 372.551 316.91 C 372.432 317.245 372.227 317.595 372.499 317.926 C 372.787 318.275 373.15 318.093 373.494 317.988 C 374.694 317.625 375.734 316.958 376.701 316.196 C 378.978 314.405 381.229 312.581 383.475 310.751 C 386.568 308.229 389.752 305.869 393.414 304.187 C 395.086 303.42 396.126 303.444 397.539 304.802 C 398.692 305.909 398.771 307.272 397.906 308.996 C 397.382 310.041 396.679 310.956 395.851 311.78 C 394.618 313.007 393.389 314.237 392.17 315.478 C 391.469 316.191 390.741 316.893 390.199 318.232 C 391.482 317.7 392.286 317.043 393.099 316.407 C 397.094 313.284 400.992 310.036 405.177 307.164 C 406.429 306.306 407.744 305.536 409.048 304.755 C 411.013 303.579 412.353 303.751 414.052 305.593 C 415.369 307.02 415.233 308.657 413.632 310.445 C 412.231 312.008 410.681 313.435 409.201 314.926 C 408.644 315.488 407.965 315.945 407.585 316.798 C 408.477 316.955 409.088 316.414 409.715 316.024 C 412.304 314.416 414.728 312.576 417.095 310.664 C 419.929 308.374 422.996 306.478 426.344 305.035 C 428.495 304.108 429.521 304.234 430.62 305.575 C 431.65 306.834 431.616 308.208 430.433 309.974 C 429.252 311.735 427.637 313.099 426.109 314.537 C 425.289 315.309 424.51 316.102 423.656 317.445 C 424.932 317.174 425.524 316.651 426.148 316.229 C 429.033 314.281 431.737 312.097 434.412 309.874 C 437.257 307.509 440.158 305.219 443.535 303.643 C 445.217 302.857 446.176 303.03 447.296 304.13 C 448.664 305.472 448.776 307.116 447.518 308.573 C 446.237 310.058 444.735 311.318 443.236 312.576 C 442.237 313.414 441.271 314.282 440.366 315.488 C 441.35 315.578 441.891 314.961 442.471 314.579 C 445.918 312.309 449.327 309.979 452.771 307.703 C 454.038 306.866 455.344 306.081 456.672 305.343 C 457.618 304.816 458.604 304.338 459.617 303.964 C 461.656 303.213 463.168 303.577 464.098 304.936 C 464.975 306.217 464.706 307.478 463.068 309.142 C 461.748 310.481 460.341 311.734 458.982 313.036 C 458.207 313.779 457.471 314.559 456.915 315.686 C 457.997 315.931 458.814 315.438 459.591 315.051 C 461.794 313.954 463.982 312.824 466.126 311.616 C 469.346 309.802 472.679 308.218 475.997 306.6 C 476.516 306.347 477.055 306.126 477.605 305.955 C 477.761 305.907 478.061 306.035 478.165 306.177 C 478.344 306.42 478.323 306.731 478.037 306.929 C 477.74 307.133 477.437 307.335 477.114 307.496 C 472.121 309.981 467.341 312.856 462.439 315.511 C 460.915 316.337 459.358 317.103 457.654 317.538 C 456.43 317.852 455.36 317.776 454.476 316.788 C 453.605 315.813 453.946 314.771 454.308 313.726 C 455.139 311.326 456.715 309.456 458.537 307.762 C 459.036 307.297 459.693 306.972 460.033 306.07 C 458.495 306.389 457.308 307.056 456.13 307.724 C 451.963 310.088 448.184 313.028 444.261 315.755 C 443.37 316.374 442.495 317.03 441.547 317.549 C 440.366 318.194 439.122 318.574 437.911 317.537 C 436.706 316.506 436.889 315.249 437.309 313.951 C 437.944 311.99 438.996 310.273 440.379 308.754 C 440.815 308.274 441.257 307.8 441.834 307.174 C 440.88 307.07 440.363 307.615 439.804 307.948 C 436.863 309.699 434.385 312.055 431.737 314.187 C 430.271 315.369 428.817 316.567 427.331 317.722 C 426.704 318.209 426.025 318.639 425.336 319.033 C 424.329 319.611 423.304 319.751 422.278 319.015 C 421.212 318.25 420.889 317.188 421.06 315.962 C 421.231 314.726 421.742 313.603 422.393 312.544 C 423.191 311.244 424.139 310.058 425.114 308.888 C 425.417 308.524 425.852 308.203 425.879 307.466 C 423.384 308.262 421.222 309.511 419.223 311.046 C 416.753 312.943 414.328 314.898 411.875 316.816 C 410.902 317.576 409.867 318.241 408.72 318.716 C 405.989 319.847 404.019 318.403 404.337 315.508 C 404.525 313.8 405.173 312.297 406.326 311.016 C 407.289 309.946 408.25 308.875 409.41 307.584 C 408.156 307.47 407.43 308.062 406.692 308.483 C 403.094 310.54 399.881 313.135 396.691 315.76 C 395.127 317.048 393.671 318.474 391.953 319.566 C 390.895 320.24 389.82 320.832 388.533 320.018 C 387.162 319.149 386.927 317.851 387.12 316.412 C 387.377 314.505 388.141 312.791 389.339 311.288 C 390.417 309.936 391.538 308.617 392.785 307.106 C 391.363 307.03 390.43 307.71 389.488 308.248 C 386.011 310.238 382.995 312.844 379.997 315.473 C 378.42 316.856 376.841 318.229 374.965 319.234 C 371.882 320.887 369.319 318.367 369.584 315.688 C 369.686 314.667 369.881 313.683 370.269 312.74 C 371.077 310.773 372.295 309.075 373.739 307.523 C 374.375 306.841 375.156 306.283 375.671 305.321 C 374.66 305.083 374.002 305.724 373.337 306.136 C 370.123 308.124 367.194 310.48 364.513 313.146 C 363.075 314.575 361.663 316.039 360.131 317.361 C 358.901 318.421 358.084 318.453 357.186 317.836 C 356.109 317.097 356.085 316.05 356.358 314.927 C 357.005 312.274 358.354 309.976 359.931 307.785 C 360.39 307.147 361.037 306.63 361.279 305.733 C 360.239 305.472 359.475 306.105 358.689 306.506 C 355.787 307.985 352.913 309.519 350.027 311.03 C 348.166 312.005 346.275 312.916 344.266 313.547 C 343.917 313.655 343.413 314.097 343.212 313.412 C 343.058 312.89 343.516 312.664 343.932 312.496 C 345.814 311.735 347.647 310.867 349.382 309.813 C 352.662 307.821 355.918 305.79 359.187 303.779 C 360.172 303.172 361.163 302.584 362.23 302.115 C 363.941 301.364 365.354 301.886 366.603 303.049 C 368.027 304.375 368.152 305.688 367.047 307.311 C 366.099 308.706 364.777 309.738 363.497 310.806 C 362.164 311.918 360.732 312.92 359.628 314.287 C 359.087 314.955 358.47 315.578 358.335 316.848 Z " fill="rgb(0,0,0)"/></svg>