<?xml version="1.0" encoding="UTF-8" standalone="no"?><!-- Generator: Gravit.io --><svg xmlns="http://www.w3.org/2000/svg" xmlns:xlink="http://www.w3.org/1999/xlink" style="isolation:isolate" viewBox="349.821 339.614 127.062 17.687" width="127.062pt" height="17.687pt"><path d=" M 452.644 342.076 C 450.998 341.746 449.593 342.023 448.206 342.389 C 443.935 343.512 439.997 345.461 436.07 347.416 C 431.317 349.781 426.604 352.226 421.856 354.603 C 419.841 355.611 417.743 356.429 415.561 357.016 C 414.771 357.228 413.969 357.349 413.16 357.282 C 411.316 357.131 410.418 355.69 411.07 353.978 C 411.403 353.103 411.917 352.332 412.572 351.67 C 414.156 350.071 415.773 348.505 417.349 346.896 C 418.432 345.792 419.511 344.67 420.038 342.902 C 418.685 342.728 417.464 342.824 416.244 343.099 C 412.159 344.017 408.348 345.652 404.612 347.497 C 399.954 349.798 395.503 352.496 390.789 354.687 C 388.907 355.561 387.042 356.487 384.984 356.91 C 384.53 357.004 384.083 357.106 383.613 357.042 C 382.359 356.868 381.766 356.067 382.086 354.847 C 382.385 353.711 383.005 352.723 383.806 351.874 C 385.151 350.447 386.509 349.028 387.912 347.658 C 388.869 346.726 389.761 345.748 390.484 344.629 C 390.788 344.16 391.206 343.707 391.054 343.007 C 390.124 342.782 389.242 343.077 388.363 343.308 C 383.704 344.527 379.348 346.514 375.02 348.575 C 370.587 350.686 366.113 352.7 361.314 353.86 C 359.281 354.352 357.231 354.683 355.137 354.293 C 353.258 353.943 351.6 353.199 350.535 351.512 C 350.047 350.738 349.638 349.919 349.906 348.947 C 350.24 348.965 350.452 349.059 350.467 349.335 C 350.614 352.07 353.014 353.5 355.883 353.593 C 358.11 353.666 360.23 353.106 362.323 352.409 C 366.948 350.867 371.234 348.609 375.471 346.239 C 378.997 344.267 382.501 342.251 386.224 340.655 C 387.236 340.222 388.264 339.834 389.354 339.666 C 391.305 339.365 393.315 340.387 394.154 342.052 C 394.738 343.21 394.627 344.268 393.767 345.256 C 392.967 346.177 392.044 346.96 391.099 347.72 C 389.253 349.202 387.295 350.544 385.551 352.152 C 384.614 353.017 383.698 353.908 383.177 355.098 C 382.792 355.975 383.04 356.295 384.007 356.163 C 385.219 355.998 386.333 355.496 387.444 355.014 C 391.692 353.17 395.65 350.784 399.636 348.452 C 404.226 345.767 408.9 343.255 413.898 341.401 C 415.472 340.817 417.072 340.346 418.782 340.353 C 419.879 340.358 420.824 340.686 421.625 341.425 C 422.88 342.585 423.048 343.878 422.067 345.29 C 421.509 346.097 420.824 346.802 420.065 347.437 C 418.164 349.032 416.27 350.637 414.39 352.258 C 413.602 352.936 412.853 353.672 412.352 354.598 C 411.691 355.818 411.998 356.321 413.346 356.293 C 414.102 356.276 414.828 356.106 415.555 355.894 C 419.295 354.797 422.714 352.989 426.119 351.153 C 431.251 348.386 436.351 345.557 441.637 343.085 C 444.099 341.934 446.607 340.914 449.248 340.237 C 450.209 339.99 451.184 339.92 452.168 339.924 C 453.139 339.928 453.972 340.31 454.69 340.927 C 455.968 342.023 456.098 343.267 455.035 344.566 C 454.045 345.778 452.819 346.756 451.65 347.788 C 450.267 349.011 448.831 350.181 447.633 351.601 C 446.921 352.445 446.277 353.336 446.032 354.437 C 445.825 355.372 446.121 355.761 447.069 355.776 C 448.125 355.794 449.113 355.439 450.095 355.095 C 452.388 354.288 454.571 353.233 456.713 352.099 C 462.99 348.772 469.418 345.754 475.828 342.7 C 475.984 342.626 476.123 342.512 476.283 342.453 C 476.53 342.362 476.721 342.455 476.843 342.691 C 476.944 342.89 476.836 343.045 476.705 343.142 C 476.383 343.381 476.054 343.626 475.694 343.8 C 468.221 347.433 460.973 351.516 453.428 355.005 C 451.906 355.708 450.327 356.263 448.692 356.649 C 448.011 356.811 447.321 356.863 446.634 356.684 C 445.286 356.332 444.525 355.257 444.65 353.837 C 444.775 352.408 445.438 351.194 446.244 350.049 C 447.442 348.346 448.863 346.825 450.221 345.253 C 451.041 344.303 452.026 343.477 452.644 342.076 Z " fill="rgb(0,0,0)"/></svg>