<?xml version="1.0" encoding="UTF-8" standalone="no"?><!-- Generator: Gravit.io --><svg xmlns="http://www.w3.org/2000/svg" xmlns:xlink="http://www.w3.org/1999/xlink" style="isolation:isolate" viewBox="361.672 300.536 111.159 15.341" width="111.159pt" height="15.341pt"><path d=" M 422.327 309.394 C 421.885 310.076 421.481 310.649 421.952 311.644 C 422.395 310.843 422.714 310.251 422.327 309.394 Z  M 396.942 313.525 C 398.154 312.311 397.948 311.004 397.807 309.191 C 396.877 310.768 396.387 311.92 396.942 313.525 Z  M 414.774 311.833 C 415.766 310.097 416.068 308.681 415.531 307.134 C 414.559 308.404 414.067 309.767 414.774 311.833 Z  M 406.464 313.972 C 407.864 312.661 408.225 310.698 407.642 307.555 C 405.827 309.229 405.392 311.603 406.464 313.972 Z  M 361.672 301.092 C 362.427 301.022 362.78 300.953 363.131 300.963 C 372.91 301.221 382.678 300.571 392.453 300.551 C 393.46 300.548 394.469 300.606 395.472 300.547 C 397.311 300.438 398.718 301.1 399.557 302.76 C 400.037 303.711 400.562 303.822 401.38 303.148 C 401.816 302.788 402.361 302.556 402.864 302.279 C 404.887 301.164 406.868 301.17 408.697 302.649 C 409.438 303.249 410 303.286 410.782 302.729 C 412.549 301.475 414.398 301.379 416.173 302.723 C 416.861 303.244 417.45 303.229 418.132 302.791 C 418.431 302.6 418.776 302.473 419.113 302.351 C 421.342 301.544 422.826 301.926 424.169 303.885 C 424.73 304.703 425.16 305.055 426.013 304.404 C 428.896 302.203 432.304 302.301 435.671 302.18 C 446.009 301.807 456.353 301.947 466.693 301.757 C 468.418 301.725 470.14 301.596 471.855 301.878 C 472.292 301.95 472.785 302.066 472.827 302.56 C 472.886 303.244 472.253 303.343 471.786 303.373 C 469.209 303.54 466.629 303.765 464.049 303.769 C 457.015 303.778 449.979 303.648 442.944 303.65 C 438.714 303.651 434.481 303.766 430.251 303.887 C 428.362 303.94 426.959 305.188 425.448 306.117 C 424.95 306.424 425.222 307.045 425.239 307.529 C 425.293 308.978 425.259 310.414 424.583 311.742 C 423.882 313.119 422.661 314.031 421.835 313.833 C 420.943 313.619 420.531 312.411 420.728 310.649 C 420.851 309.55 421.231 308.537 421.899 307.677 C 422.536 306.857 422.653 305.984 422.42 305.039 C 422.238 304.304 422.29 303.402 421.305 303.128 C 420.572 302.923 418.556 303.586 418.11 304.146 C 417.707 304.653 418.058 305.104 418.185 305.564 C 418.877 308.081 418.416 310.398 417.016 312.565 C 416.528 313.321 415.981 314.018 414.961 313.802 C 413.997 313.598 413.619 312.852 413.408 311.941 C 412.907 309.779 413.275 307.806 414.551 305.996 C 414.963 305.411 415.478 304.864 414.871 304.083 C 414.328 303.384 413.624 303.127 412.787 303.234 C 412.366 303.289 411.951 303.438 411.548 303.583 C 410.672 303.899 410.328 304.352 410.756 305.374 C 411.708 307.648 411.678 310.007 410.894 312.334 C 410.5 313.503 409.924 314.588 408.861 315.31 C 407.074 316.523 405.201 315.716 404.863 313.592 C 404.442 310.953 405.188 308.62 406.725 306.489 C 407.092 305.98 407.598 305.545 407.483 304.782 C 407.294 303.515 406.382 302.711 405.085 302.831 C 404.22 302.912 403.409 303.227 402.64 303.63 C 400.896 304.542 400.835 304.673 401.268 306.625 C 401.599 308.121 401.603 309.624 401.339 311.125 C 401.136 312.275 400.698 313.336 399.895 314.206 C 399 315.179 398.006 315.428 396.996 314.976 C 396.012 314.535 395.428 313.558 395.551 312.322 C 395.672 311.099 395.985 309.884 396.666 308.86 C 397.765 307.209 397.62 305.499 397.273 303.688 C 397.069 302.626 396.584 302.286 395.533 302.306 C 390.934 302.387 386.332 302.351 381.732 302.458 C 376.053 302.59 370.376 302.713 364.708 302.222 C 363.767 302.141 362.715 302.285 361.672 301.092 Z " fill="rgb(0,0,0)"/></svg>