<?xml version="1.0" encoding="UTF-8" standalone="no"?><!-- Generator: Gravit.io --><svg xmlns="http://www.w3.org/2000/svg" xmlns:xlink="http://www.w3.org/1999/xlink" style="isolation:isolate" viewBox="345.831 255.547 129.547 21.167" width="129.547pt" height="21.167pt"><path d=" M 460.974 258.687 C 459.813 259.219 459.474 260.056 459.141 260.891 C 458.423 262.691 458.063 264.573 457.839 266.491 C 457.659 268.018 457.449 269.545 456.953 271.009 C 456.708 271.732 456.475 272.484 456.085 273.133 C 454.461 275.832 451.754 275.914 449.939 273.336 C 448.994 271.993 448.486 270.453 448.108 268.871 C 447.676 267.061 447.578 265.216 447.551 263.362 C 447.535 262.307 447.591 261.228 446.978 260.138 C 445.909 260.939 445.583 262.058 445.354 263.152 C 444.834 265.632 444.417 268.134 443.973 270.629 C 443.783 271.692 443.567 272.752 443.09 273.722 C 442.281 275.365 441.032 275.846 439.26 275.332 C 437.726 274.886 436.77 273.832 436.163 272.436 C 435.543 271.012 435.259 269.497 435.168 267.946 C 435.116 267.051 435.057 266.156 434.979 264.922 C 434.006 266.117 434.061 267.312 433.768 268.367 C 433.295 270.07 432.975 271.82 432.063 273.372 C 430.406 276.195 427.975 276.394 425.957 273.831 C 424.589 272.094 423.889 270.057 423.563 267.895 C 423.275 265.985 423.175 264.062 423.27 262.13 C 423.322 261.065 423.442 259.986 422.996 258.746 C 421.651 259.661 421.1 260.952 420.82 262.353 C 420.176 265.596 419.623 268.856 418.987 272.1 C 418.811 272.999 418.574 273.913 418.188 274.738 C 417.352 276.531 415.88 276.937 414.187 275.912 C 413.094 275.251 412.431 274.204 411.846 273.105 C 410.69 270.936 410.32 269.321 409.846 265.221 C 409.653 265.932 409.441 266.638 409.272 267.354 C 409.097 268.103 408.958 268.859 408.813 269.615 C 408.58 270.832 408.253 272.023 407.651 273.109 C 406.358 275.44 403.972 275.993 401.776 274.473 C 400.39 273.512 399.585 272.127 399.053 270.558 C 397.935 267.261 398.017 263.887 398.379 260.493 C 398.464 259.693 398.734 258.893 398.394 257.835 C 397.361 258.788 397.002 259.867 396.607 260.92 C 395.661 263.448 395.109 266.087 394.432 268.69 C 394.044 270.182 393.631 271.671 392.852 273.015 C 391.471 275.397 389.013 275.717 387.08 273.722 C 385.287 271.87 384.521 269.537 384.282 267.027 C 384.151 265.648 384.169 264.256 384.097 262.87 C 384.039 261.744 383.947 260.62 383.857 259.309 C 382.812 259.965 382.685 260.847 382.424 261.609 C 381.552 264.162 381.019 266.798 380.579 269.455 C 380.34 270.899 380.043 272.337 379.382 273.66 C 377.964 276.493 375.199 276.936 372.957 274.661 C 371.444 273.125 370.753 271.179 370.318 269.105 C 369.922 267.216 370.079 265.304 369.991 263.374 C 368.885 265.037 368.897 266.971 368.591 268.806 C 368.312 270.475 368.169 272.17 367.633 273.782 C 366.658 276.713 364.19 277.556 361.622 275.812 C 359.732 274.528 358.713 272.647 358.375 270.426 C 358.214 269.367 358.208 268.275 358.221 267.2 C 358.248 265.042 358.376 262.886 358.387 260.728 C 358.399 258.382 358.085 258.189 355.855 259.078 C 354.564 259.592 353.351 260.259 352.235 261.1 C 350.255 262.592 348.459 264.268 346.993 266.278 C 346.764 266.594 346.497 266.96 346.078 266.669 C 345.687 266.397 345.823 265.967 346.057 265.645 C 346.733 264.709 347.39 263.753 348.144 262.883 C 350.335 260.353 352.875 258.232 355.905 256.777 C 359.844 254.885 363.49 256.939 363.946 261.268 C 364.222 263.884 364.009 266.505 363.982 269.124 C 363.965 270.801 364.078 272.451 364.594 274.219 C 366.051 273.542 366.299 272.258 366.621 271.148 C 367.22 269.082 367.626 266.96 368.12 264.862 C 368.651 262.607 369.404 260.427 370.331 258.306 C 371.027 256.714 371.844 256.401 373.399 257.101 C 374.642 257.659 375.238 258.681 375.506 259.951 C 375.875 261.705 375.894 263.472 375.677 265.243 C 375.452 267.085 375.43 268.934 375.465 270.783 C 375.484 271.784 375.564 272.782 376.164 273.73 C 377.341 273.508 377.65 272.499 378.038 271.621 C 378.821 269.849 379.117 267.931 379.609 266.072 C 380.339 263.319 380.926 260.52 382.205 257.944 C 383.495 255.348 385.746 255.1 387.618 257.34 C 388.387 258.259 388.688 259.375 388.88 260.523 C 389.264 262.816 389.313 265.114 389.074 267.433 C 388.887 269.246 388.945 271.057 389.939 272.824 C 391.268 271.838 391.693 270.492 392.109 269.198 C 392.934 266.633 393.648 264.033 394.405 261.447 C 394.794 260.116 395.183 258.782 395.878 257.573 C 396.61 256.299 397.588 255.396 399.216 255.568 C 400.895 255.745 401.923 256.595 402.422 258.42 C 402.643 259.229 402.749 260.083 402.799 260.924 C 402.957 263.539 403.028 266.159 403.203 268.773 C 403.299 270.199 403.395 271.657 404.39 273 C 406.02 271.886 406.383 270.196 406.832 268.602 C 407.541 266.084 408.13 263.532 408.809 261.005 C 409.047 260.115 409.345 259.232 409.713 258.389 C 410.245 257.167 410.867 256.922 412.085 257.371 C 413.505 257.895 414.287 259.015 414.74 260.384 C 415.36 262.255 415.302 264.184 415.098 266.11 C 414.952 267.489 414.81 268.873 414.557 270.234 C 414.365 271.268 414.578 272.231 414.817 273.197 C 414.96 273.776 415.091 274.54 415.78 274.645 C 416.532 274.76 416.748 273.978 416.97 273.449 C 417.355 272.53 417.712 271.58 417.919 270.609 C 418.481 267.976 418.982 265.329 419.459 262.679 C 419.733 261.153 420.104 259.661 420.812 258.281 C 422.034 255.892 424.357 255.529 426.307 257.395 C 427.052 258.108 427.499 258.99 427.735 259.99 C 428.168 261.813 428.198 263.644 427.963 265.5 C 427.661 267.877 427.488 270.264 428.284 272.593 C 428.75 273.955 429.229 274.058 430.146 272.992 C 431.014 271.981 431.547 270.779 431.91 269.514 C 432.547 267.295 433.125 265.059 433.76 262.839 C 433.991 262.028 434.254 261.216 434.609 260.454 C 435.377 258.809 436.452 258.585 437.817 259.781 C 438.858 260.694 439.312 261.909 439.35 263.277 C 439.403 265.206 439.318 267.129 439.032 269.04 C 438.835 270.354 438.832 271.664 439.313 272.917 C 439.765 274.101 440.566 274.217 441.369 273.241 C 442.073 272.386 442.371 271.34 442.604 270.283 C 443.216 267.502 443.791 264.713 444.415 261.934 C 444.6 261.111 444.814 260.278 445.155 259.513 C 446.025 257.557 447.323 257.127 449.287 258.061 C 450.955 258.856 451.855 260.221 452.144 262.009 C 452.404 263.624 452.277 265.236 452.024 266.842 C 451.759 268.526 451.624 270.215 452.104 271.88 C 452.264 272.435 452.253 273.232 453.024 273.315 C 453.706 273.389 454.098 272.772 454.464 272.289 C 455.27 271.225 455.728 269.986 455.971 268.693 C 456.452 266.123 456.88 263.542 457.298 260.96 C 457.459 259.965 457.651 258.985 458.125 258.091 C 459.201 256.059 460.895 255.528 462.975 256.556 C 464.647 257.382 465.463 258.792 465.676 260.593 C 465.921 262.676 465.783 264.745 465.415 266.806 C 465.169 268.179 465.05 269.571 465.42 270.933 C 465.817 272.395 466.627 272.756 468.047 272.186 C 469.42 271.634 470.236 270.551 470.833 269.245 C 471.673 267.408 472.001 265.423 472.553 263.503 C 472.894 262.318 473.202 261.126 473.552 259.945 C 473.658 259.583 473.809 259.217 474.018 258.905 C 474.254 258.552 474.655 258.467 475.04 258.642 C 475.353 258.784 475.437 259.099 475.339 259.419 C 474.285 262.878 474.016 266.538 472.65 269.918 C 472.115 271.242 471.295 272.339 470.096 273.117 C 467.425 274.852 464.043 273.941 462.641 271.093 C 461.883 269.554 461.543 267.889 461.428 266.185 C 461.265 263.76 461.132 261.332 460.974 258.687 Z " fill="rgb(0,0,0)"/></svg>