<?xml version="1.0" encoding="UTF-8" standalone="no"?><!-- Generator: Gravit.io --><svg xmlns="http://www.w3.org/2000/svg" xmlns:xlink="http://www.w3.org/1999/xlink" style="isolation:isolate" viewBox="21.632 156.9 113.481 28.434" width="113.481pt" height="28.434pt"><path d=" M 63.922 165.99 C 62.283 169.376 61.18 172.44 63.29 175.79 C 65.717 173.547 66.003 169.697 63.922 165.99 Z  M 88.046 175.556 C 90.562 171.853 89.879 168.157 89.282 164.218 C 85.973 167.221 85.451 171.771 88.046 175.556 Z  M 75.805 168.503 C 73.656 172.261 72.481 176.237 72.808 180.569 C 72.868 181.372 73.096 182.17 73.32 182.95 C 73.424 183.315 73.587 183.773 74.092 183.778 C 74.565 183.784 74.745 183.355 74.971 183.031 C 75.11 182.832 75.231 182.61 75.315 182.382 C 76.989 177.816 76.827 173.186 75.805 168.503 Z  M 135.113 167.297 C 126.405 166.622 118.091 164.451 109.858 161.913 C 106.713 160.943 103.543 160.125 100.217 160.049 C 97.458 159.986 94.839 160.471 92.321 161.625 C 91.187 162.145 90.678 162.692 91.088 164.063 C 91.75 166.273 91.909 168.581 91.82 170.897 C 91.763 172.401 91.429 173.833 90.689 175.141 C 90.137 176.115 89.337 176.862 88.126 176.74 C 86.983 176.625 86.145 175.982 85.724 174.879 C 84.118 170.673 84.666 166.816 87.649 163.388 C 88.318 162.62 88.864 162.015 88.36 160.812 C 87.143 157.899 85.742 157.355 83.036 159.003 C 81.03 160.225 79.562 161.981 78.152 163.816 C 77.49 164.678 77.773 165.506 77.963 166.383 C 78.712 169.849 79.214 173.339 78.828 176.896 C 78.578 179.193 78.133 181.449 76.9 183.452 C 76.242 184.521 75.462 185.521 73.979 185.304 C 72.523 185.09 72.021 183.956 71.633 182.746 C 70.744 179.973 71.188 177.209 71.764 174.466 C 72.308 171.878 73.311 169.45 74.548 167.118 C 75.046 166.178 75.603 165.296 75.098 164.114 C 74.422 162.533 73.991 160.83 72.59 159.669 C 72.016 159.193 71.391 159.301 70.729 159.521 C 69.454 159.945 68.379 160.69 67.365 161.53 C 65.383 163.171 65.406 163.214 66.473 165.562 C 67.544 167.919 68.141 170.363 67.654 172.981 C 67.456 174.05 67.096 175.046 66.447 175.915 C 64.835 178.072 62.567 177.871 61.394 175.463 C 60.526 173.682 60.551 171.805 60.945 169.92 C 61.283 168.302 61.861 166.754 62.712 165.342 C 63.29 164.384 63.056 163.714 62.371 162.943 C 60.293 160.604 57.683 159.435 54.606 159.154 C 50.453 158.775 46.419 159.523 42.4 160.395 C 37.171 161.529 32.124 163.237 27.179 165.263 C 25.811 165.823 24.428 166.346 22.969 166.622 C 22.509 166.709 22.023 166.842 21.632 166.426 C 21.721 166.245 21.758 166.019 21.861 165.983 C 29.047 163.446 36.03 160.286 43.587 158.886 C 47.627 158.138 51.651 157.323 55.806 158.016 C 58.629 158.486 61.239 159.408 63.312 161.418 C 64.267 162.344 64.9 162.259 65.722 161.347 C 66.607 160.363 67.701 159.625 68.878 159.016 C 71.614 157.599 73.685 158.098 75.526 160.595 C 76 161.237 76.233 162.061 76.94 162.551 C 77.744 162.294 78.039 161.559 78.515 161.031 C 79.68 159.738 80.965 158.604 82.494 157.76 C 85.281 156.221 87.511 156.745 89.291 159.355 C 90.397 160.977 90.402 160.991 92.248 160.238 C 97.051 158.279 101.908 158.664 106.756 159.966 C 111.829 161.328 116.875 162.788 121.935 164.195 C 125.265 165.121 128.673 165.646 132.089 166.128 C 133.193 166.284 134.337 166.359 135.113 167.297 Z " fill="rgb(0,0,0)"/></svg>