<?xml version="1.0" encoding="UTF-8" standalone="no"?><!-- Generator: Gravit.io --><svg xmlns="http://www.w3.org/2000/svg" xmlns:xlink="http://www.w3.org/1999/xlink" style="isolation:isolate" viewBox="24.276 119.305 108.194 13.607" width="108.194pt" height="13.607pt"><path d=" M 79.821 132.102 C 80.708 131.942 81.567 131.896 82.384 131.578 C 83.061 131.314 83.721 131.038 84.169 130.44 C 84.656 129.793 84.62 129.094 84.23 128.424 C 83.985 128.005 83.729 127.405 83.122 127.601 C 81.27 128.2 79.485 128.956 78.315 130.638 C 77.885 131.255 78.071 131.729 78.8 131.932 C 79.141 132.026 79.502 132.051 79.821 132.102 Z  M 24.276 119.653 C 24.816 119.29 25.102 119.591 25.355 119.8 C 28.525 122.414 32.342 123.376 36.258 124.07 C 43.419 125.34 50.571 124.979 57.711 123.886 C 61.547 123.298 65.393 122.806 69.261 122.501 C 72.216 122.27 75.146 122.453 78.035 123.17 C 79.086 123.432 80.248 123.634 81.034 124.307 C 83.211 126.172 85.641 126.008 88.26 125.854 C 93.648 125.537 99.02 126.3 104.405 126.474 C 111.053 126.688 117.619 126.292 124.004 124.262 C 126.697 123.405 129.321 122.421 130.959 119.88 C 131.036 119.761 131.136 119.653 131.24 119.557 C 131.536 119.282 131.899 119.224 132.228 119.425 C 132.661 119.69 132.413 120.066 132.249 120.356 C 131.455 121.757 130.412 122.896 128.945 123.65 C 126.041 125.145 122.939 126.004 119.761 126.64 C 113.284 127.935 106.749 127.681 100.214 127.343 C 97.416 127.198 94.623 126.954 91.826 126.785 C 89.603 126.65 87.39 126.742 85.207 127.161 C 85.207 127.333 85.189 127.406 85.21 127.465 C 86.326 130.524 85.688 131.758 82.502 132.59 C 81.314 132.9 80.103 133.028 78.872 132.785 C 78.061 132.624 77.323 132.379 77.056 131.493 C 76.794 130.625 77.219 129.952 77.781 129.363 C 78.739 128.356 79.95 127.721 81.193 127.148 C 81.582 126.969 82.01 126.864 82.366 126.4 C 80.007 124.379 77.152 123.85 74.215 123.667 C 69.596 123.379 65.033 124.042 60.488 124.735 C 53.068 125.867 45.64 126.4 38.167 125.359 C 34.526 124.852 30.945 124.077 27.665 122.336 C 26.396 121.663 25.045 121.018 24.276 119.653 Z " fill="rgb(0,0,0)"/></svg>