<?xml version="1.0" encoding="UTF-8" standalone="no"?><!-- Generator: Gravit.io --><svg xmlns="http://www.w3.org/2000/svg" xmlns:xlink="http://www.w3.org/1999/xlink" style="isolation:isolate" viewBox="25.85 75.769 105.046 15.544" width="105.046pt" height="15.544pt"><path d=" M 78.285 81.107 C 79.354 79.772 79.634 78.599 79.098 76.932 C 78.061 78.264 77.674 79.414 78.285 81.107 Z  M 77.651 84.204 C 73.36 87.133 68.689 88.947 63.763 90.074 C 50.958 93.003 39.038 90.668 27.928 83.829 C 27.067 83.299 26.003 82.838 25.85 81.591 C 26.089 81.508 26.284 81.379 26.347 81.427 C 32.548 86.089 39.563 88.741 47.205 89.773 C 56.126 90.98 64.619 89.441 72.712 85.567 C 73.409 85.234 74.063 84.81 74.749 84.455 C 76.327 83.637 77.314 82.654 76.644 80.61 C 76.197 79.245 76.702 77.846 77.563 76.667 C 78.047 76.003 78.687 75.6 79.563 75.838 C 80.473 76.085 80.693 76.782 80.734 77.618 C 80.815 79.283 80.641 80.892 79.504 82.206 C 78.86 82.951 79.02 83.552 79.547 84.249 C 80.903 86.043 82.729 87.167 84.778 87.962 C 86.446 88.609 88.204 88.915 89.967 89.172 C 100.808 90.752 111.256 89.491 121.25 84.877 C 123.728 83.732 125.973 82.25 128.08 80.521 C 128.795 79.934 129.505 78.981 130.896 79.788 C 128.811 81.827 126.686 83.637 124.187 84.958 C 115.5 89.546 106.235 91.585 96.431 91.074 C 94.194 90.957 91.958 90.775 89.731 90.429 C 85.026 89.697 80.665 88.368 77.651 84.204 Z " fill="rgb(0,0,0)"/></svg>