<?xml version="1.0" encoding="UTF-8" standalone="no"?><!-- Generator: Gravit.io --><svg xmlns="http://www.w3.org/2000/svg" xmlns:xlink="http://www.w3.org/1999/xlink" style="isolation:isolate" viewBox="372.61 76.655 89.283 34.096" width="89.283pt" height="34.096pt"><path d=" M 418.743 83.114 C 417.241 85.79 417.172 90.733 418.592 93.895 C 420.554 90.609 420.629 85.302 418.743 83.114 Z  M 406.713 96.058 C 408.036 92.79 408.761 87.941 408.401 85.305 C 408.263 84.294 408.19 83.217 406.904 82.389 C 406.1 86.944 405.837 91.212 406.713 96.058 Z  M 393.14 97.151 C 393.497 97.126 393.612 96.853 393.678 96.576 C 394.421 93.438 394.888 90.247 394.954 87.035 C 394.991 85.248 395.02 83.31 393.561 81.796 C 392.232 83.923 392.033 92.271 393.14 97.151 Z  M 383.517 88.496 C 384.082 84.966 384.042 81.686 381.026 79.153 C 379.453 80.894 379.094 82.973 378.788 85.007 C 377.946 90.592 377.985 96.184 379.081 101.739 C 379.458 103.648 380.034 105.508 381.24 107.091 C 382.826 109.175 384.653 109.54 386.883 108.169 C 387.549 107.76 388.164 107.236 388.717 106.68 C 390.715 104.673 390.73 104.607 389.394 102.145 C 388.014 99.604 387.62 96.855 387.564 94.024 C 387.501 90.763 387.878 87.564 389.06 84.502 C 389.608 83.078 390.348 81.762 391.728 80.951 C 393.134 80.124 394.192 80.4 394.939 81.843 C 395.543 83.008 395.771 84.274 395.798 85.586 C 395.892 90.283 395.323 94.896 394.081 99.425 C 393.495 101.563 394.805 105.42 396.567 106.803 C 397.541 107.566 398.585 107.587 399.601 107.054 C 401.93 105.831 403.307 103.72 404.551 101.509 C 404.867 100.946 404.438 100.583 404.189 100.158 C 403.608 99.168 402.945 98.207 402.508 97.154 C 400.616 92.601 400.78 88.045 402.707 83.539 C 402.958 82.951 403.299 82.379 403.702 81.884 C 405.429 79.764 408.18 80.234 409.131 82.815 C 409.795 84.615 409.731 86.507 409.514 88.359 C 409.144 91.494 408.543 94.588 407.552 97.602 C 406.966 99.381 408.427 102.286 410.14 102.983 C 410.964 103.319 411.697 103.078 412.397 102.676 C 413.854 101.838 414.979 100.644 416.019 99.336 C 416.698 98.481 416.723 97.827 416.078 96.875 C 413.625 93.25 413.16 89.295 414.519 85.145 C 414.784 84.332 415.172 83.546 415.604 82.808 C 416.253 81.701 417.145 80.859 418.56 81.052 C 419.96 81.243 420.608 82.239 420.965 83.501 C 421.626 85.84 421.504 88.197 421.102 90.549 C 420.847 92.036 420.393 93.473 419.821 94.878 C 419.014 96.863 420.325 98.786 422.484 98.807 C 423.273 98.815 424.04 98.607 424.79 98.317 C 426.606 97.613 428.298 96.668 429.992 95.723 C 435.4 92.705 440.934 89.974 447.011 88.547 C 451.076 87.593 455.189 86.941 459.381 86.959 C 460.192 86.962 461.113 86.751 461.893 87.832 C 457.556 87.313 453.518 88.048 449.503 88.861 C 443.303 90.118 437.673 92.797 432.245 95.957 C 430.321 97.078 428.379 98.169 426.412 99.211 C 423.919 100.533 421.346 100.826 418.789 99.411 C 418.015 98.982 417.648 99.198 417.221 99.839 C 416.499 100.918 415.639 101.884 414.632 102.715 C 411.925 104.95 409.661 105.035 406.811 102.997 C 406.467 102.75 406.129 102.494 405.688 102.17 C 405.061 103.124 404.5 104.018 403.895 104.882 C 403.024 106.129 402.035 107.291 400.682 108.02 C 398.482 109.204 396.264 109.228 394.165 107.767 C 393.293 107.158 392.519 106.409 391.585 105.627 C 391.095 106.239 390.619 106.845 390.13 107.439 C 387.074 111.146 382.55 111.801 378.584 109.099 C 375.961 107.311 374.398 104.781 373.658 101.746 C 372.594 97.375 372.405 92.933 372.801 88.464 C 372.985 86.388 373.228 84.318 373.847 82.313 C 374.295 80.856 374.886 79.474 375.942 78.345 C 378.367 75.755 382.023 76.191 383.676 79.312 C 385.077 81.958 385.404 84.756 384.534 87.652 C 384.436 87.977 384.326 88.342 383.517 88.496 Z " fill="rgb(0,0,0)"/></svg>