<?xml version="1.0" encoding="UTF-8" standalone="no"?><!-- Generator: Gravit.io --><svg xmlns="http://www.w3.org/2000/svg" xmlns:xlink="http://www.w3.org/1999/xlink" style="isolation:isolate" viewBox="151.928 328.707 196.132 17.474" width="196.132pt" height="17.474pt"><g><path d=" M 165.879 344.861 C 168.847 344.844 171.675 343.114 172.511 340.901 C 170.052 341.698 167.874 342.729 165.879 344.861 Z  M 160.786 338.505 C 158.994 336.786 156.96 335.568 154.458 335.271 C 154.011 335.217 153.465 335.271 153.294 335.709 C 153.107 336.188 153.575 336.504 153.944 336.738 C 156.022 338.056 158.315 338.573 160.786 338.505 Z  M 206.868 335.34 C 204.99 333.719 203.017 332.289 200.551 331.728 C 200.189 331.646 199.793 331.69 199.416 331.714 C 199.093 331.734 198.734 331.826 198.613 332.14 C 198.437 332.597 198.842 332.83 199.148 333.012 C 201.517 334.418 204.097 335.152 206.868 335.34 Z  M 232.377 334.9 C 232.179 334.429 231.73 334.275 231.359 334.06 C 229.273 332.846 227.264 331.485 225.021 330.562 C 224.322 330.273 223.575 330.083 222.833 329.924 C 222.424 329.837 221.926 329.748 221.692 330.304 C 223.468 332.614 228.296 334.696 232.377 334.9 Z  M 195.758 338.771 C 192.327 340.072 189.281 341.372 187.148 344.387 C 190.164 345.108 193.665 342.826 195.758 338.771 Z  M 174.497 332.771 C 175.911 335.489 181.062 337.772 184.574 337.239 C 181.897 334.769 176.807 332.512 174.497 332.771 Z  M 219.124 338.027 C 215.314 337.882 208.847 341.851 208.1 344.782 C 212.675 343.793 215.953 341.004 219.124 338.027 Z  M 227.415 343.669 C 230.815 344.319 240.728 340.356 243.784 337.193 C 237.887 338.719 232.321 340.314 227.415 343.669 Z  M 203.852 336.275 C 202.489 335.755 201.117 335.259 199.769 334.703 C 199.003 334.388 198.271 333.976 197.707 333.348 C 196.853 332.398 197.032 331.441 198.189 330.878 C 199.279 330.347 200.417 330.433 201.547 330.754 C 202.847 331.124 204.019 331.773 205.147 332.495 C 206.22 333.182 207.246 333.94 208.318 334.628 C 209.85 335.61 211.472 336.117 213.361 336.02 C 217.496 335.805 221.639 335.767 225.778 335.651 C 226.407 335.634 227.036 335.592 227.943 335.548 C 227.281 334.913 226.642 334.838 226.088 334.614 C 224.307 333.895 222.589 333.064 221.184 331.718 C 220.631 331.188 220.036 330.583 220.352 329.73 C 220.697 328.8 221.569 328.706 222.425 328.707 C 223.331 328.707 224.199 328.939 225.017 329.294 C 226.066 329.749 227.108 330.236 228.106 330.794 C 229.83 331.756 231.527 332.767 233.217 333.787 C 235.281 335.032 237.418 335.74 239.912 335.514 C 243.016 335.232 246.145 335.215 249.264 335.112 C 249.793 335.095 250.645 334.898 250.657 335.668 C 250.669 336.46 249.8 336.281 249.285 336.239 C 247.981 336.134 247.004 336.703 245.987 337.436 C 241.299 340.812 236.219 343.412 230.603 344.88 C 229.49 345.17 228.345 345.289 227.193 345.168 C 226.61 345.106 226.034 344.971 225.847 344.301 C 225.668 343.663 225.999 343.195 226.439 342.791 C 227.197 342.093 228.091 341.602 228.997 341.133 C 231.664 339.754 234.463 338.704 237.314 337.778 C 238.033 337.545 238.806 337.442 239.553 336.922 C 239.097 336.537 238.596 336.681 238.157 336.688 C 233.252 336.757 228.347 336.856 223.442 336.913 C 222.627 336.922 222.053 337.176 221.441 337.751 C 219.072 339.976 216.617 342.107 213.795 343.763 C 212.529 344.506 211.247 345.206 209.811 345.581 C 209.186 345.745 208.554 345.841 207.921 345.738 C 206.838 345.563 206.412 344.789 206.855 343.78 C 207.221 342.948 207.875 342.322 208.536 341.722 C 210.052 340.343 211.754 339.225 213.533 338.219 C 213.961 337.976 214.386 337.727 215.068 337.333 C 214.284 337.018 213.731 337.103 213.207 337.142 C 208.636 337.484 204.069 337.869 199.496 338.172 C 198.514 338.237 197.803 338.581 197.218 339.33 C 196.552 340.184 195.859 341.017 195.172 341.854 C 194.194 343.047 193.039 344.041 191.736 344.863 C 190.63 345.561 189.421 345.908 188.11 345.881 C 187.333 345.865 186.526 345.842 186.131 345.023 C 185.737 344.208 186.177 343.545 186.693 342.949 C 187.659 341.835 188.776 340.896 190.019 340.099 C 190.438 339.829 190.96 339.702 191.336 339.139 C 190.786 338.87 190.233 339.028 189.724 339.062 C 185.276 339.354 180.831 339.687 176.381 339.966 C 175.551 340.018 174.977 340.288 174.483 340.988 C 173.335 342.618 171.886 343.959 170.177 344.999 C 168.957 345.741 167.626 346.153 166.195 346.18 C 165.611 346.191 165.012 346.094 164.721 345.499 C 164.425 344.894 164.748 344.382 165.133 343.938 C 166.192 342.717 167.498 341.819 168.921 341.073 C 169.19 340.933 169.531 340.862 169.677 340.513 C 169.428 339.944 168.918 340.208 168.535 340.201 C 165.416 340.142 162.292 340.252 159.192 339.749 C 157.228 339.431 155.317 338.963 153.598 337.928 C 152.273 337.13 151.74 336.232 151.986 335.375 C 152.25 334.454 153.361 333.969 154.905 334.147 C 156.451 334.326 157.855 334.915 159.181 335.709 C 159.454 335.873 159.728 336.036 159.992 336.213 C 165.022 339.575 163.473 338.988 169.734 339.035 C 173.177 339.062 176.607 338.772 180.04 338.563 C 180.202 338.554 180.36 338.463 180.536 338.404 C 180.305 337.859 179.803 337.899 179.409 337.756 C 177.657 337.116 176.037 336.243 174.633 335.009 C 174.159 334.592 173.694 334.127 173.36 333.599 C 172.666 332.499 173.117 331.612 174.414 331.404 C 174.992 331.311 175.548 331.451 176.111 331.579 C 178.312 332.082 180.309 333.061 182.241 334.184 C 183.728 335.049 185.185 335.963 186.66 336.848 C 187.942 337.615 189.264 338.004 190.824 337.829 C 195.17 337.346 199.531 336.997 203.885 336.595 C 203.874 336.488 203.863 336.382 203.852 336.275 Z " fill="rgb(0,0,0)"/><path d=" M 327.478 340.901 C 328.313 343.114 331.141 344.844 334.109 344.861 C 332.114 342.729 329.936 341.698 327.478 340.901 Z  M 346.044 336.738 C 346.413 336.504 346.881 336.188 346.693 335.709 C 346.522 335.271 345.977 335.217 345.53 335.271 C 343.028 335.568 340.994 336.786 339.202 338.505 C 341.673 338.573 343.966 338.056 346.044 336.738 Z  M 300.84 333.012 C 301.145 332.83 301.551 332.597 301.375 332.14 C 301.254 331.826 300.895 331.734 300.572 331.714 C 300.194 331.69 299.799 331.646 299.437 331.728 C 296.971 332.289 294.998 333.719 293.12 335.34 C 295.892 335.152 298.471 334.418 300.84 333.012 Z  M 278.296 330.304 C 278.061 329.748 277.563 329.837 277.155 329.924 C 276.413 330.083 275.666 330.273 274.967 330.562 C 272.724 331.485 270.715 332.846 268.629 334.06 C 268.258 334.275 267.81 334.429 267.61 334.9 C 271.691 334.696 276.52 332.614 278.296 330.304 Z  M 312.84 344.387 C 310.707 341.372 307.661 340.072 304.229 338.771 C 306.323 342.826 309.824 345.108 312.84 344.387 Z  M 315.414 337.239 C 318.927 337.772 324.077 335.489 325.491 332.771 C 323.181 332.512 318.091 334.769 315.414 337.239 Z  M 291.889 344.782 C 291.141 341.851 284.674 337.882 280.863 338.027 C 284.035 341.004 287.312 343.793 291.889 344.782 Z  M 256.204 337.193 C 259.26 340.356 269.173 344.319 272.573 343.669 C 267.667 340.314 262.102 338.719 256.204 337.193 Z  M 296.103 336.595 C 300.457 336.997 304.818 337.346 309.163 337.829 C 310.724 338.004 312.046 337.615 313.328 336.848 C 314.803 335.963 316.261 335.049 317.747 334.184 C 319.679 333.061 321.676 332.082 323.877 331.579 C 324.44 331.451 324.996 331.311 325.574 331.404 C 326.871 331.612 327.322 332.499 326.628 333.599 C 326.294 334.127 325.829 334.592 325.354 335.009 C 323.951 336.243 322.331 337.116 320.579 337.756 C 320.185 337.899 319.684 337.859 319.452 338.404 C 319.628 338.463 319.786 338.554 319.948 338.563 C 323.381 338.772 326.811 339.062 330.253 339.035 C 336.515 338.988 334.966 339.575 339.996 336.213 C 340.261 336.036 340.534 335.873 340.808 335.709 C 342.133 334.915 343.537 334.326 345.083 334.147 C 346.627 333.969 347.738 334.454 348.002 335.375 C 348.248 336.232 347.715 337.13 346.391 337.928 C 344.671 338.963 342.76 339.431 340.796 339.749 C 337.696 340.252 334.571 340.142 331.452 340.201 C 331.07 340.208 330.56 339.944 330.311 340.513 C 330.457 340.862 330.798 340.933 331.067 341.073 C 332.49 341.819 333.796 342.717 334.854 343.938 C 335.24 344.382 335.562 344.894 335.267 345.499 C 334.977 346.094 334.377 346.191 333.793 346.18 C 332.362 346.153 331.031 345.741 329.811 344.999 C 328.102 343.959 326.652 342.618 325.505 340.988 C 325.011 340.288 324.437 340.018 323.606 339.966 C 319.157 339.687 314.712 339.354 310.264 339.062 C 309.755 339.028 309.202 338.87 308.651 339.139 C 309.028 339.702 309.55 339.829 309.97 340.099 C 311.212 340.896 312.329 341.835 313.295 342.949 C 313.811 343.545 314.251 344.208 313.856 345.023 C 313.462 345.842 312.654 345.865 311.878 345.881 C 310.567 345.908 309.357 345.561 308.252 344.863 C 306.949 344.041 305.794 343.047 304.815 341.854 C 304.129 341.017 303.436 340.184 302.77 339.33 C 302.186 338.581 301.475 338.237 300.492 338.172 C 295.919 337.869 291.352 337.484 286.781 337.142 C 286.257 337.103 285.704 337.018 284.92 337.333 C 285.603 337.727 286.026 337.976 286.455 338.219 C 288.234 339.225 289.936 340.343 291.452 341.722 C 292.113 342.322 292.767 342.948 293.133 343.78 C 293.576 344.789 293.15 345.563 292.067 345.738 C 291.434 345.841 290.803 345.745 290.177 345.581 C 288.74 345.206 287.459 344.506 286.192 343.763 C 283.371 342.107 280.916 339.976 278.547 337.751 C 277.935 337.176 277.36 336.922 276.546 336.913 C 271.641 336.856 266.736 336.757 261.831 336.688 C 261.392 336.681 260.891 336.537 260.436 336.922 C 261.182 337.442 261.955 337.545 262.674 337.778 C 265.525 338.704 268.324 339.754 270.991 341.133 C 271.897 341.602 272.791 342.093 273.549 342.791 C 273.988 343.195 274.319 343.663 274.142 344.301 C 273.954 344.971 273.378 345.106 272.795 345.168 C 271.643 345.289 270.498 345.17 269.385 344.88 C 263.769 343.412 258.689 340.812 254.001 337.436 C 252.984 336.703 252.007 336.134 250.703 336.239 C 250.187 336.281 249.319 336.46 249.331 335.668 C 249.343 334.898 250.194 335.095 250.724 335.112 C 253.843 335.215 256.972 335.232 260.076 335.514 C 262.569 335.74 264.707 335.032 266.77 333.787 C 268.461 332.767 270.158 331.756 271.882 330.794 C 272.88 330.236 273.922 329.749 274.971 329.294 C 275.789 328.939 276.657 328.707 277.563 328.707 C 278.419 328.706 279.291 328.8 279.636 329.73 C 279.952 330.583 279.357 331.188 278.804 331.718 C 277.399 333.064 275.682 333.895 273.899 334.614 C 273.346 334.838 272.706 334.913 272.045 335.548 C 272.952 335.592 273.581 335.634 274.21 335.651 C 278.35 335.767 282.492 335.805 286.627 336.02 C 288.516 336.117 290.139 335.61 291.67 334.628 C 292.742 333.94 293.769 333.182 294.841 332.495 C 295.969 331.773 297.141 331.124 298.441 330.754 C 299.57 330.433 300.709 330.347 301.798 330.878 C 302.955 331.441 303.135 332.398 302.281 333.348 C 301.717 333.976 300.985 334.388 300.22 334.703 C 298.871 335.259 297.499 335.755 296.136 336.275 C 296.125 336.382 296.114 336.488 296.103 336.595 Z " fill="rgb(0,0,0)"/></g></svg>