<?xml version="1.0" encoding="UTF-8" standalone="no"?><!-- Generator: Gravit.io --><svg xmlns="http://www.w3.org/2000/svg" xmlns:xlink="http://www.w3.org/1999/xlink" style="isolation:isolate" viewBox="22.751 293.53 77.765 126.746" width="77.765pt" height="126.746pt"><g><path d=" M 22.985 420.276 C 20.765 411.911 34.904 375.499 40.425 371.09 L 74.277 389.263 C 79.581 406.322 85.525 406.005 88.738 420.276 L 22.985 420.276 Z " fill="#000000"/><path d=" M 36.748 374.037 L 43.719 363.558 C 43.719 363.558 54.048 365.427 67.741 376.922 C 73.481 381.739 74.864 386.774 77.583 397.09 C 77.583 397.09 63.997 378.461 36.748 374.037 Z " fill="#000000"/><path d=" M 40.298 337.467 C 38.519 332.428 38.759 326.627 39.463 323.097 C 45.333 293.631 79.968 299.484 89.747 311.844 C 95.113 318.628 95.313 324.275 95.349 326.063 C 95.404 328.734 93.764 331.082 93.764 332.215 C 93.764 336.821 96.947 339.693 99.683 342.036 C 102.765 344.674 96.316 347.54 96.152 348.405 C 95.98 349.3 96.911 349.758 97.393 350.331 C 97.809 350.825 97.687 351.647 97.011 352.322 C 95.997 353.338 94.457 353.658 94.457 353.658 C 94.457 353.658 96.96 355.115 96.371 356.412 C 95.847 357.559 93.626 356.806 93.652 360.291 C 93.687 364.953 84.75 367.017 78.44 364.964 C 71.078 362.564 71.613 386.24 71.613 386.24 L 59.038 377.211 L 44.742 372.868 C 52.986 351.592 42.078 342.505 40.298 337.467 Z " fill="#000000"/><path d=" M 88.076 307.289 L 92.697 305.217 C 87.838 301.72 81.968 301.72 81.968 301.72 L 86.269 298.551 C 80.49 297.512 76.789 298.853 76.789 298.853 L 80.658 295.516 C 73.839 295.26 68.736 298.673 68.736 298.673 L 72.008 293.53 C 65.097 294.616 59.502 298.907 59.502 298.907 L 59.853 293.53 C 56.784 296.279 55.994 299.706 55.745 299.649 C 51.421 298.693 46.177 299.946 46.177 299.946 L 50.266 301.72 C 44.287 302.715 38.936 306.738 38.936 306.738 L 43.904 306.469 C 37.162 310.92 34.03 316.091 34.03 316.091 L 38.194 315.959 C 34.608 318.611 31.099 326.14 31.099 326.14 L 36.125 325.674 C 33.183 329.46 32.194 336.086 32.194 336.086 L 36.748 333.698 C 36.748 333.698 34.817 339.049 35.449 344.55 L 39.794 343.122 C 39.794 343.122 37.372 348.951 38.936 352.076 L 42.671 348.7 C 42.671 348.7 41.183 352.412 42.333 355.7 L 45.085 354.193 C 45.085 354.193 43.654 357.731 45.008 361.207 C 45.008 361.207 46.582 356.984 51.027 355.301 C 59.434 352.118 64.806 372.043 70.518 365.601 L 72.13 347.083 C 72.13 347.083 72.853 320.472 81.773 315.578 C 85.799 313.37 97.393 317.634 97.393 317.634 C 93.63 311.497 92.289 309.956 88.076 307.289 Z " fill="#000000"/></g></svg>