<?xml version="1.0" encoding="UTF-8" standalone="no"?><!-- Generator: Gravit.io --><svg xmlns="http://www.w3.org/2000/svg" xmlns:xlink="http://www.w3.org/1999/xlink" style="isolation:isolate" viewBox="239.058 3.916 73.657 123.085" width="73.657pt" height="123.085pt"><g><path d=" M 303.346 36.206 C 304.721 31.049 303.048 24.628 303.048 24.628 C 292.845 -1.577 255.731 5.412 247.716 19.792 C 243.333 27.656 244.758 31.712 244.544 33.486 C 244.425 34.48 245.646 37.917 245.646 37.917 C 246.023 38.366 246.127 39.16 245.879 39.691 C 245.879 39.691 241.534 45.561 239.471 50.174 C 238.664 51.973 238.893 54.097 241.472 54.097 L 242.718 54.097 C 243.302 54.097 244.008 56.283 243.768 56.817 L 243.146 58.206 C 242.905 58.74 243.056 59.5 243.481 59.903 L 245.005 61.351 C 245.005 61.351 244.218 62.107 244.218 63.252 C 244.218 64.398 246.952 63.738 245.693 66.602 C 244.967 68.247 244.238 70.868 245.502 72.567 C 248.373 76.434 249.775 74.987 256.374 74.663 C 264.128 74.282 263.701 78.148 265.347 80.493 C 268.208 84.575 262.161 89.245 261.108 93.279 L 302.016 75.635 C 287.462 65.436 301.971 41.362 303.346 36.206 Z " fill="#000000"/><path d=" M 253.177 22.271 C 253.177 22.271 246.106 21.16 245.212 15.151 C 244.973 13.533 245.656 11.205 247.312 8.522 C 247.312 8.522 247.794 10.634 249.037 12.044 C 249.037 12.044 248.328 8.51 250.984 6.745 C 250.984 6.745 251.525 9.092 252.237 9.873 C 252.237 9.873 252.346 6.948 254.655 5.54 C 254.655 5.54 254.674 7.807 256.095 8.522 C 256.095 8.522 256.501 5.449 258.318 4.745 C 258.318 4.745 258.314 5.946 259.953 7.795 C 259.953 7.795 260.07 5.264 262.009 4.147 C 262.009 4.147 263.094 6.527 263.812 7.186 C 263.812 7.186 263.86 4.745 265.537 3.916 C 265.537 3.916 265.983 5.746 267.669 6.984 C 267.669 6.984 267.943 5.176 269.315 4.099 C 269.315 4.099 269.838 5.767 271.527 6.578 C 271.527 6.578 271.887 4.753 273.012 4.55 C 274.14 4.347 312.596 5.455 301.846 39.679 C 292.866 68.267 253.177 22.271 253.177 22.271 Z " fill="#000000"/><path d=" M 273.279 6.578 C 271.59 5.767 271.019 4.378 271.019 4.378 C 269.646 5.455 269.421 6.984 269.421 6.984 C 267.734 5.746 267.395 4.099 267.395 4.099 C 265.719 4.929 265.564 7.186 265.564 7.186 C 264.846 6.527 263.799 3.916 263.799 3.916 C 261.862 5.033 261.704 7.795 261.704 7.795 C 260.065 5.946 260.162 4.331 260.162 4.331 C 258.345 5.034 257.846 8.522 257.846 8.522 C 256.426 7.807 256.492 5.121 256.492 5.121 C 254.181 6.529 253.987 9.873 253.987 9.873 C 253.277 9.092 252.826 6.074 252.826 6.074 C 250.09 8.109 250.34 11.176 250.34 11.176 C 249.096 9.766 248.827 7.617 248.827 7.617 C 247.171 10.3 246.724 13.533 246.965 15.151 L 273.732 9.698 C 272.607 9.901 273.279 6.578 273.279 6.578 Z " fill="#000000"/><path d=" M 305.19 80.002 L 298.249 69.568 C 298.249 69.568 282.835 71.428 269.202 82.873 C 263.486 87.671 258.515 92.683 255.809 102.955 C 255.809 102.955 278.057 84.405 305.19 80.002 Z " fill="#000000"/><path d=" M 312.305 127.001 C 314.526 118.636 307.251 82.223 301.732 77.813 L 261.013 95.989 C 261.013 95.989 255.682 113.133 252.559 127.001 L 312.305 127.001 Z " fill="#000000"/></g></svg>