<?xml version="1.0" encoding="UTF-8" standalone="no"?><!-- Generator: Gravit.io --><svg xmlns="http://www.w3.org/2000/svg" xmlns:xlink="http://www.w3.org/1999/xlink" style="isolation:isolate" viewBox="0 6.387 95.516 120.614" width="95.516pt" height="120.614pt"><g><path d=" M 24.66 127.001 C 22.44 118.636 35.72 82.222 41.241 77.813 L 73.377 95.989 C 78.681 113.047 84.625 112.73 87.839 127.001 L 24.66 127.001 Z " fill="#000000"/><path d=" M 31.063 43.005 C 29.24 37.845 29.486 31.903 30.207 28.287 C 36.221 -1.899 71.702 4.098 81.719 16.759 C 87.217 23.709 87.082 30.011 87.118 31.844 C 87.174 34.578 86.499 37.041 86.515 38.203 C 86.538 39.823 86.795 41.869 88.856 44.26 C 90.566 46.245 92.94 47.969 92.94 49.127 C 92.94 51.742 88.301 52.334 88.301 54.071 C 88.301 54.849 88.401 55.496 89.654 56.712 C 90.085 57.13 89.773 57.97 89.448 58.475 C 88.725 59.598 86.892 60.302 86.892 60.302 C 86.892 60.302 88.644 62.125 88.095 63.332 C 87.607 64.402 85.937 63.813 86.4 67.31 C 86.642 69.136 86.089 71.236 84.644 71.88 C 81.663 73.211 78.284 73.117 71.838 71.018 C 64.295 68.56 67.144 92.972 67.144 92.972 L 54.26 83.721 L 39.615 79.273 C 48.061 57.478 32.886 48.168 31.063 43.005 Z " fill="#000000"/><path d=" M 66.287 82.296 C 57.52 74.936 48.038 71.428 42.16 69.833 L 36.812 80.954 C 60.579 87.255 76.369 102.955 76.369 102.955 C 73.584 92.387 72.167 87.231 66.287 82.296 Z " fill="#000000"/><path d=" M 93.938 17.366 C 87.438 8.558 67.42 5.216 52.08 7.003 L 76.295 30.206 C 76.295 22.608 88.607 27.498 88.768 34.354 C 90.541 33.646 90.196 27.97 90.196 27.97 C 91.13 30.24 92.752 32.107 92.688 32.228 C 94.429 28.829 92.686 23.889 92.686 23.889 C 94.285 25.791 94.429 28.829 94.429 28.829 C 96.058 24.045 95.826 19.925 93.938 17.366 Z " fill="#000000"/><path d=" M 35.946 17.448 C 35.946 17.448 21.664 -0.901 8.776 21.666 C -7.91 50.88 19.412 73.457 11.766 93.13 C 10.893 95.376 5.422 98.762 1.378 89.101 C 1.378 89.101 -2.931 98.952 3.69 103.571 C 9.647 107.725 22.601 108.551 25.984 96.09 C 28.013 88.613 35.86 58.367 23.861 27.548 C 20.009 17.654 32.642 22.753 33.001 22.402 C 33.362 22.05 35.946 17.448 35.946 17.448 Z " fill="#000000"/><path d=" M 37.253 17.836 C 37.253 17.836 37.036 12.757 32.177 14.45 C 28.611 15.694 24.634 22.595 30.429 24.798 C 37.824 27.607 37.253 17.836 37.253 17.836 Z " fill="#000000"/></g></svg>