<?xml version="1.0" encoding="UTF-8" standalone="no"?><!-- Generator: Gravit.io --><svg xmlns="http://www.w3.org/2000/svg" xmlns:xlink="http://www.w3.org/1999/xlink" style="isolation:isolate" viewBox="234.058 296.092 76.34 124.184" width="76.34pt" height="124.184pt"><g><path d=" M 309.988 420.276 C 312.209 411.912 304.935 375.499 299.414 371.09 L 258.697 389.266 C 258.697 389.266 253.366 406.409 250.242 420.276 L 309.988 420.276 Z " fill="#000000"/><path d=" M 296.742 330.546 C 298.071 325.564 296.454 316.661 296.454 316.661 C 285.937 289.647 247.094 303.457 242.333 314.861 C 238.982 322.889 238.411 329.354 238.309 331.077 C 238.184 333.206 240.126 333.946 240.023 335.435 C 239.824 338.347 234.388 345.66 234.388 345.66 C 233.514 347.352 234.386 349.497 236.861 349.78 C 237.223 349.82 238.278 350.106 238.278 350.106 C 238.843 350.106 239.525 351.466 239.293 351.982 L 238.691 353.651 C 238.459 354.168 238.605 354.901 239.015 355.292 L 240.487 356.69 C 240.487 356.69 239.402 357.094 239.402 358.2 C 239.402 359.308 241.286 358.742 240.824 362.073 C 240.586 363.794 239.632 366.734 240.853 368.378 C 243.628 372.113 246.595 370.365 252.977 370.191 C 260.387 369.986 257.898 373.23 259.487 375.496 C 262.253 379.437 261.24 382.986 260.224 386.883 L 299.749 369.836 C 285.688 359.98 295.414 335.528 296.742 330.546 Z " fill="#000000"/><path d=" M 302.787 374.053 L 296.08 363.972 C 296.08 363.972 281.188 365.769 268.015 376.828 C 262.492 381.464 257.718 386.307 255.102 396.231 C 255.102 396.231 276.569 378.309 302.787 374.053 Z " fill="#000000"/><path d=" M 299.749 309.022 C 296.874 302.502 287.789 302.206 287.789 302.206 C 279.374 290.362 250.597 298.738 244.574 302.356 C 236.523 307.193 234.86 312.203 235.777 316.181 C 235.777 316.181 236.778 313.932 239.734 313.606 C 238.727 314.454 238.61 316.336 238.656 317.878 C 238.656 317.9 240.766 314.705 243.822 314.704 C 251.221 318.429 277.789 348.472 291.941 353.754 C 291.609 356.229 293.363 359.076 293.363 359.076 C 293.063 358.11 294.493 357.493 294.495 357.493 C 294.231 360.364 293.363 360.735 293.363 360.735 C 293.363 360.735 294.643 361.248 295.556 360.322 C 295.467 363.389 294.873 363.972 294.873 363.972 C 297.053 363.027 298.608 358.404 299.749 355.316 C 304.309 342.969 303.645 317.861 299.749 309.022 Z " fill="#000000"/></g></svg>