<?xml version="1.0" encoding="UTF-8" standalone="no"?><!-- Generator: Gravit.io --><svg xmlns="http://www.w3.org/2000/svg" xmlns:xlink="http://www.w3.org/1999/xlink" style="isolation:isolate" viewBox="459.463 1107.617 167.309 695.343" width="167.309pt" height="695.343pt"><path d=" M 549.32 1494.81 C 549.419 1495.9 549.514 1497.02 549.606 1498.16 C 550.958 1514.65 552.31 1511.95 552.852 1527.9 C 553.39 1543.85 555.555 1575.49 556.093 1584.68 C 556.638 1593.87 558.797 1610.64 560.694 1618.48 C 562.584 1626.32 564.202 1639.3 564.202 1643.89 C 564.202 1648.49 567.175 1654.44 568.393 1661.33 C 569.609 1668.23 570.151 1673.91 568.527 1680.39 C 566.902 1686.88 565.819 1697.97 565.819 1697.97 C 565.819 1697.97 563.116 1699.59 561.764 1703.37 C 560.412 1707.16 561.495 1709.05 559.736 1717.71 C 557.98 1726.36 557.98 1728.66 555.004 1736.23 C 553.829 1739.22 552.677 1742 551.617 1744.45 C 551.27 1741.5 551 1738.41 550.902 1734.68 C 550.633 1724.68 551.171 1723.19 548.198 1721.43 C 545.225 1719.68 545.494 1720.08 545.225 1714.94 C 544.953 1709.81 546.846 1710.21 544.411 1706.02 C 541.979 1701.83 541.708 1703.31 541.845 1698.86 C 541.979 1694.4 541.708 1696.96 541.438 1687.5 C 541.169 1678.04 541.849 1645.87 541.849 1634.78 C 541.849 1623.69 543.739 1624.64 543.876 1619.77 C 544.011 1614.9 541.849 1614.91 543.066 1611.79 C 544.28 1608.69 545.904 1607.06 545.904 1603.28 C 545.904 1599.49 547.125 1568.54 547.397 1551.5 C 547.667 1534.47 548.431 1517.24 549.019 1507.7 C 549.219 1504.44 549.281 1499.84 549.32 1494.81 L 549.32 1494.81 Z  M 473.794 1222.75 C 466.368 1232.77 461.768 1237.25 461.768 1251.36 C 461.768 1267.04 461.227 1272.99 459.875 1287.32 C 458.522 1301.65 460.688 1363.84 463.661 1391.15 C 466.634 1418.46 467.448 1427.38 469.607 1439.54 C 471.77 1451.71 472.446 1456.78 473.325 1464.76 C 474.205 1472.73 474.579 1473.88 474.917 1474.86 C 475.255 1475.84 476.81 1475.91 476.81 1475.91 C 476.81 1475.91 477.857 1487.47 479.95 1492.21 C 482.044 1496.94 483.265 1496.06 485.224 1497.95 C 487.183 1499.84 487.793 1500.52 489.145 1500.99 C 490.497 1501.47 491.442 1501.53 491.442 1501.53 C 491.442 1501.53 493.942 1503.69 497.392 1503.97 L 498.615 1504.06 C 498.28 1516.61 497.854 1533.99 497.696 1545.75 C 497.424 1566.03 499.455 1593.94 499.524 1597.25 C 499.59 1600.57 498.172 1600.7 498.576 1603.81 C 498.983 1606.92 499.455 1606.85 498.576 1610.03 C 497.696 1613.21 497.9 1615.57 497.496 1617.87 C 497.089 1620.17 498.983 1657.89 502.632 1673.3 C 506.284 1688.71 509.392 1700.07 510.475 1704.8 C 511.558 1709.53 511.285 1710.07 512.365 1713.72 C 513.447 1717.37 514.938 1720.08 516.289 1720.75 C 517.638 1721.43 517.91 1727.51 518.586 1733.6 C 519.262 1739.68 518.317 1757.66 518.317 1774.96 C 518.317 1792.27 520.749 1797.54 525.753 1799.7 C 530.754 1801.87 545.895 1803.08 551.709 1802.95 C 557.524 1802.82 558.469 1799.03 558.738 1793.49 C 559.007 1787.94 556.304 1787.13 555.765 1781.45 C 555.653 1780.29 555.535 1779.15 555.414 1778 C 559.621 1780.26 566.167 1779.42 571.093 1773.13 C 577.446 1765.03 584.202 1745.69 584.878 1739.47 C 585.554 1733.25 589.61 1728.25 590.962 1720 C 592.314 1711.76 591.638 1707.43 591.638 1707.43 C 591.638 1707.43 593.259 1704.18 593.801 1702.84 C 594.342 1701.48 593.801 1698.78 595.963 1692.29 C 598.122 1685.8 601.909 1674.17 601.102 1666.6 C 600.291 1659.03 602.182 1658.49 605.965 1649.3 C 609.752 1640.11 609.479 1621.18 607.317 1610.36 C 605.151 1599.55 608.938 1589.55 608.938 1560.34 C 608.938 1538.94 610.244 1498.79 610.943 1478.88 C 611.711 1477.76 612.426 1476.37 612.984 1474.63 C 615.416 1467.06 613.525 1468.42 616.498 1460.84 C 619.472 1453.27 620.554 1443.81 620.554 1443.81 C 620.554 1443.81 621.906 1441.11 623.258 1435.97 C 624.61 1430.83 627.583 1414.61 625.962 1401.9 C 624.341 1389.19 626.772 1374.32 626.772 1361.61 C 626.772 1348.91 625.424 1285.91 624.61 1261.03 C 623.8 1236.16 620.285 1231.56 615.96 1223.72 C 615.031 1222.04 613.84 1220.4 612.406 1218.79 C 611.94 1210.05 610.457 1199.58 606.497 1191.28 C 598.116 1173.7 598.657 1175.59 591.897 1153.42 C 585.138 1131.25 581.082 1120.97 567.834 1115.03 C 554.584 1109.08 545.393 1109.35 545.393 1109.35 C 545.393 1109.35 536.201 1105.84 525.113 1108.81 C 514.028 1111.78 502.671 1123.41 493.208 1138.82 C 483.744 1154.23 475.094 1171.54 474.553 1191.54 C 474.148 1206.54 473.893 1215.16 473.794 1222.75 L 473.794 1222.75 Z " fill="rgb(0,0,0)"/></svg>