<?xml version="1.0" encoding="UTF-8" standalone="no"?><!-- Generator: Gravit.io --><svg xmlns="http://www.w3.org/2000/svg" xmlns:xlink="http://www.w3.org/1999/xlink" style="isolation:isolate" viewBox="976.918 225.157 279.982 713.655" width="279.982pt" height="713.655pt"><path d=" M 1094.12 486.217 C 1094.12 486.217 1083.67 461.081 1078.87 448.371 C 1074.06 435.66 1070.96 432.836 1067 425.212 C 1063.05 417.584 1060.22 413.912 1060.22 413.912 C 1060.22 413.912 1050.34 422.104 1039.61 433.967 C 1028.87 445.827 1017.86 455.997 1017.86 455.997 C 1017.86 455.997 1033.39 471.531 1044.41 477.745 C 1055.42 483.958 1060.22 485.935 1064.46 485.935 C 1068.7 485.935 1076.61 485.088 1081.69 486.217 C 1086.78 487.348 1090.73 490.737 1090.73 490.737 L 1094.12 486.217 Z  M 1163.27 728.589 C 1169.72 719.938 1172.43 712.669 1172.43 712.669 C 1172.43 712.669 1172.15 693.464 1164.52 669.456 L 1160.54 656.943 C 1161.26 676.87 1162.26 703.675 1163.27 728.589 Z  M 1222.43 576.538 C 1222.43 576.538 1219.33 554.506 1217.63 545.187 C 1215.93 535.866 1213.68 535.018 1211.42 520.613 C 1209.15 506.209 1206.05 493.5 1206.05 493.5 C 1206.05 493.5 1212.83 505.361 1216.5 517.79 C 1220.17 530.217 1221.87 537.559 1222.15 542.926 C 1222.43 548.292 1225.82 549.705 1225.82 549.705 C 1225.82 549.705 1224.97 569.758 1222.43 576.538 L 1222.43 576.538 Z  M 1160.2 332.878 C 1161.96 332.891 1163.76 332.885 1165.58 332.852 C 1181.68 332.571 1189.87 336.806 1197.77 352.623 C 1205.68 368.441 1226.3 441.025 1237.6 475.201 C 1248.9 509.376 1249.75 528.299 1252.29 539.034 C 1254.83 549.768 1251.72 550.332 1251.72 550.332 C 1251.72 550.332 1253.14 554.568 1255.4 563.323 C 1257.65 572.078 1257.37 584.225 1254.55 591.567 C 1251.72 598.911 1250.88 595.522 1245.51 605.973 C 1240.14 616.422 1230.54 620.658 1230.54 620.658 L 1227.96 620.634 C 1229.43 636.486 1231.43 659.483 1231.95 672.63 C 1232.79 694.096 1231.1 713.02 1220.37 732.227 C 1211 748.988 1185.71 770.057 1166.85 794.864 C 1168.83 817.441 1170.91 826.542 1171.31 832.705 C 1171.87 841.46 1182.6 843.154 1185.14 851.911 C 1187.69 860.666 1189.38 877.615 1187.97 892.582 C 1186.56 907.552 1190.51 908.116 1193.06 914.613 C 1195.6 921.11 1197.85 935.513 1194.75 936.924 C 1191.64 938.338 1178.09 937.491 1169.61 938.338 C 1161.13 939.185 1153.51 939.467 1150.12 934.102 C 1146.73 928.733 1148.71 919.414 1151.25 907.837 C 1153.79 896.253 1152.66 884.677 1151.25 878.461 C 1149.84 872.246 1145.88 860.102 1141.08 856.712 C 1139.08 855.301 1136.19 852.856 1133.31 848.994 C 1132.37 853.014 1129.5 861.739 1122.93 869.49 C 1115.02 878.813 1112.19 890.675 1113.32 900.841 C 1114.46 911.01 1124.34 922.873 1123.21 928.238 C 1122.08 933.603 1120.1 933.603 1120.1 933.603 C 1120.1 933.603 1108.24 934.384 1104.5 934.312 C 1100.75 934.239 1098.14 929.298 1094.47 926.476 C 1090.8 923.65 1083.81 918.072 1081.41 914.892 C 1079.01 911.716 1078.79 908.047 1078.79 904.162 C 1078.79 900.276 1079.79 890.468 1078.09 881.008 C 1076.39 871.544 1073.14 868.154 1073.14 868.154 L 1064.53 873.946 C 1064.53 873.946 1059.31 869.001 1055.78 864.482 C 1052.25 859.964 1049.28 856.01 1049.28 856.01 C 1049.28 856.01 1052.81 849.794 1064.39 844.146 C 1075.97 838.496 1081.33 837.507 1088.54 830.729 C 1095.74 823.951 1106.62 821.126 1119.89 796.272 L 1119.93 796.2 C 1118.97 788.789 1117.89 780.095 1116.22 766.614 C 1112.55 736.958 1111.42 734.981 1110.29 707.302 C 1109.16 679.621 1086 647.425 1076.4 601.104 C 1070.73 573.773 1074.5 552.739 1078.55 540.082 C 1077.71 536.596 1076.79 532.89 1076.04 529.995 C 1074.07 522.371 1074.07 520.958 1074.07 520.958 C 1074.07 520.958 1039.61 510.507 1020.97 499.774 C 1002.33 489.041 986.509 476.896 981.708 471.812 C 976.907 466.729 973.235 453.171 983.401 439.612 C 993.57 426.057 1017.58 395.554 1033.96 374.935 C 1049.56 355.292 1062.86 344.366 1073.13 341.91 C 1071.09 325.001 1066.42 302.365 1064.74 284.273 C 1062.49 259.982 1065.87 246.709 1074.91 235.411 C 1083.95 224.112 1103.72 223.83 1115.02 226.656 C 1126.32 229.479 1132.81 246.427 1140.44 261.395 C 1148.07 276.365 1147.78 289.075 1151.74 307.998 C 1153.49 316.413 1156.93 325.444 1160.2 332.878 L 1160.2 332.878 Z " fill="rgb(0,0,0)"/></svg>