<?xml version="1.0" encoding="UTF-8" standalone="no"?><!-- Generator: Gravit.io --><svg xmlns="http://www.w3.org/2000/svg" xmlns:xlink="http://www.w3.org/1999/xlink" style="isolation:isolate" viewBox="1316.047 223.395 271.489 715.417" width="271.489pt" height="715.417pt"><path d=" M 1377.16 447.529 C 1374.88 450.263 1372.53 453.397 1370.41 456.817 C 1363.08 468.66 1360.27 472.607 1359.7 477.682 C 1359.14 482.757 1361.39 503.338 1365.62 513.489 C 1369.85 523.639 1365.62 521.383 1373.52 532.66 C 1381.27 543.744 1381.96 547.474 1381.98 547.599 C 1381.96 547.426 1379.44 494.009 1378.31 476.274 C 1377.43 462.471 1377.58 456.328 1377.16 447.529 Z  M 1522.28 527.691 C 1527.39 520.051 1534.31 509.596 1536.2 506.159 C 1539.3 500.521 1538.17 496.29 1541.28 487.832 C 1544.38 479.374 1544.94 475.146 1544.38 472.89 C 1543.81 470.634 1535.07 459.075 1528.58 449.77 C 1526.72 447.094 1524.39 444.467 1522.01 442.078 C 1521.4 456.171 1520.62 477.559 1520.98 488.679 C 1521.54 506.159 1520.13 510.951 1521.54 520.538 C 1521.87 522.802 1522.11 525.226 1522.28 527.691 Z  M 1477.18 331.457 C 1478.31 331.28 1484.36 330.603 1489.96 335.438 C 1496.16 340.796 1506.03 343.899 1514.21 347.563 C 1522.38 351.228 1532.25 352.636 1543.81 373.501 C 1555.37 394.366 1568.06 420.869 1576.52 440.041 C 1584.98 459.214 1587.79 465.698 1587.51 475.283 C 1587.23 484.87 1582.44 493.328 1579.05 502.351 C 1575.67 511.373 1567.78 522.087 1561.01 532.521 C 1554.25 542.952 1551.14 547.462 1545.79 552.537 C 1540.43 557.612 1540.15 561.843 1536.34 563.393 C 1532.54 564.942 1530.42 565.225 1530.42 565.225 C 1530.42 565.225 1529.58 568.749 1526.05 574.106 C 1524.58 576.344 1523.33 577.99 1522.37 579.149 C 1524.1 587.265 1526.47 598.688 1528.59 610.197 C 1532.54 631.625 1534.23 644.595 1534.23 659.257 C 1534.23 673.917 1541.56 707.189 1541.84 722.978 C 1542.12 738.767 1545.79 745.533 1546.91 757.375 C 1548.04 769.217 1547.48 792.336 1548.04 798.538 C 1548.61 804.742 1551.99 845.902 1553.96 851.826 C 1555.94 857.747 1562.14 861.976 1561.01 869.024 C 1559.88 876.072 1555.94 880.863 1559.88 885.939 C 1563.83 891.016 1562.42 897.218 1562.42 897.218 C 1562.42 897.218 1560.45 903.138 1564.68 907.932 C 1568.91 912.727 1577.65 912.727 1584.13 919.775 C 1590.62 926.823 1586.39 933.025 1583.29 936.973 C 1580.19 940.921 1546.91 937.537 1541.28 935.848 C 1535.64 934.154 1533.95 927.67 1528.59 925.412 C 1523.23 923.158 1523.51 918.646 1521.54 911.88 C 1519.57 905.113 1524.36 900.884 1524.36 900.884 C 1524.36 900.884 1519.57 895.811 1519.29 883.403 C 1519 870.999 1517.03 866.484 1512.24 860.001 C 1507.45 853.516 1506.32 845.904 1506.03 833.781 C 1505.75 821.658 1503.21 798.54 1496.45 763.013 C 1489.68 727.488 1480.1 707.189 1473.33 686.888 C 1466.56 666.587 1461.49 647.416 1461.49 647.416 C 1461.49 647.416 1456.69 666.589 1457.82 689.145 C 1458.95 711.699 1462.9 724.951 1460.08 739.049 C 1457.26 753.146 1456.41 756.811 1457.26 765.551 C 1458.11 774.292 1457.26 815.454 1458.11 834.626 C 1458.95 853.8 1458.11 855.209 1458.95 863.104 C 1459.79 870.999 1464.03 878.612 1463.46 884.25 C 1462.9 889.888 1459.52 891.298 1461.49 900.037 C 1463.46 908.779 1460.36 916.674 1460.36 916.674 C 1460.36 916.674 1453.59 920.057 1445.7 920.904 C 1437.81 921.747 1434.14 926.823 1425.68 930.489 C 1417.22 934.154 1401.15 935.001 1394.1 935.001 C 1387.05 935.001 1381.69 931.05 1384.52 924.565 C 1387.34 918.082 1394.39 915.266 1400.87 910.187 C 1407.35 905.113 1403.69 900.604 1411.02 893.553 C 1418.35 886.504 1415.53 885.657 1412.99 874.379 C 1410.46 863.104 1411.3 860.85 1412.71 853.235 C 1414.12 845.624 1411.02 833.781 1409.89 825.323 C 1408.77 816.865 1398.61 783.313 1399.74 747.225 C 1400.87 711.135 1386.21 697.039 1386.21 675.61 C 1386.21 654.18 1385.64 630.498 1384.52 606.251 C 1384.29 601.406 1384.06 596.156 1383.82 590.854 C 1380.65 589.192 1377.62 587.158 1375.77 584.822 C 1370.41 578.054 1370.41 573.824 1368.44 571.569 C 1366.47 569.313 1358.29 567.34 1351.52 557.473 C 1344.76 547.604 1327.27 520.536 1320.22 502.774 C 1313.18 485.011 1316.28 475.426 1320.51 460.2 C 1324.74 444.975 1337.43 392.535 1354.35 374.49 C 1371.26 356.447 1389.31 349.398 1401.99 342.631 C 1411.72 337.444 1416.64 333.086 1423.74 331.08 C 1423.81 316.567 1421.2 312.146 1421.2 312.146 C 1421.2 312.146 1417.75 311.16 1415.28 304.534 C 1412.81 297.907 1413.27 289.768 1413.7 287.229 C 1414.12 284.691 1416.52 285.398 1416.52 285.398 C 1416.52 285.398 1415.11 273.697 1416.23 265.239 C 1417.36 256.781 1415.67 253.537 1420.32 239.44 C 1424.98 225.343 1440.34 221.678 1456.27 224.075 C 1472.2 226.47 1476.43 240.567 1476.43 240.567 C 1476.43 240.567 1479.53 241.977 1483.34 249.309 C 1487.15 256.64 1487.15 266.931 1485.88 275.389 C 1484.61 283.848 1483.76 288.358 1483.76 288.358 C 1483.76 288.358 1485.17 291.883 1484.61 296.534 C 1484.04 301.188 1482.91 304.288 1481.08 308.518 C 1479.25 312.748 1477.7 314.157 1477.7 314.157 C 1477.7 314.157 1476.99 317.964 1476.99 321.347 C 1476.99 322.866 1477.08 327.173 1477.18 331.457 L 1477.18 331.457 Z " fill="rgb(0,0,0)"/></svg>