<?xml version="1.0" encoding="UTF-8" standalone="no"?><!-- Generator: Gravit.io --><svg xmlns="http://www.w3.org/2000/svg" xmlns:xlink="http://www.w3.org/1999/xlink" style="isolation:isolate" viewBox="698.466 1088.217 263.67 714.741" width="263.67pt" height="714.741pt"><path d=" M 778.32 1396.76 C 778.557 1396.21 778.793 1395.72 779.042 1395.3 C 784.108 1386.69 783.095 1374.53 783.348 1367.19 C 783.6 1359.84 782.842 1326.67 782.842 1317.04 C 782.842 1312.4 782.724 1308.53 782.603 1305.76 C 781.004 1317.8 779.098 1332.1 778.284 1337.81 C 776.765 1348.45 773.979 1357.05 773.979 1362.38 C 773.979 1367.69 770.432 1381.12 774.737 1388.21 C 776.154 1390.54 777.352 1393.65 778.32 1396.76 Z  M 871.225 1185.23 C 874.306 1186.02 877.814 1187.66 880.337 1191.04 C 885.909 1198.51 893.762 1198.89 901.611 1202.18 C 909.464 1205.48 923.013 1207.63 928.965 1211.56 C 934.918 1215.48 947.328 1228.52 952.392 1248.28 C 957.458 1268.03 956.572 1282.6 956.572 1282.6 C 956.572 1282.6 956.973 1283.25 955.68 1284.38 C 956.008 1288.02 956.526 1294.33 956.775 1300.45 C 957.153 1309.83 962.351 1341.36 962.098 1374.28 C 961.846 1407.21 962.604 1431.27 961.59 1443.68 C 960.579 1456.09 962.731 1474.45 960.07 1480.65 C 957.412 1486.86 954.374 1488.63 954.374 1488.63 C 954.374 1488.63 953.993 1492.18 949.94 1495.09 C 945.888 1498 942.341 1499.14 938.163 1500.03 C 933.986 1500.91 929.556 1498.76 928.037 1497.37 C 926.518 1495.98 927.784 1493.57 930.442 1491.42 C 933.104 1489.27 937.28 1483.95 938.547 1481.67 C 939.813 1479.39 938.675 1476.47 938.8 1472.8 C 938.928 1469.13 939.181 1463.94 939.181 1463.94 C 939.181 1463.94 936.647 1469.25 935.761 1474.2 C 934.875 1479.13 935.381 1478.63 933.989 1481.79 C 932.595 1484.96 930.566 1486.1 929.428 1486.86 C 928.289 1487.62 923.479 1485.46 925.251 1477.62 C 927.022 1469.76 926.262 1469.39 927.275 1465.21 C 928.289 1461.03 928.414 1452.03 931.581 1447.6 C 934.747 1443.17 937.028 1440.51 937.786 1433.29 C 938.547 1426.07 932.342 1397.08 931.079 1374.03 C 930.284 1359.62 922.363 1323.53 916.542 1297.94 C 915.564 1317.17 913.687 1359.69 915.039 1378.58 C 916.811 1403.4 915.039 1416.32 915.039 1423.66 C 915.039 1431.01 916.555 1437.34 915.544 1440.13 C 914.53 1442.91 918.586 1557.89 918.077 1573.34 C 917.572 1588.79 919.6 1589.55 920.105 1596.14 C 920.611 1602.72 920.611 1599.68 920.611 1605 C 920.611 1610.31 922.386 1613.1 920.611 1617.92 C 918.839 1622.73 923.909 1657.68 924.161 1675.4 C 924.414 1693.13 924.161 1695.66 921.881 1704.02 C 919.6 1712.38 922.133 1717.45 922.639 1721.5 C 923.147 1725.55 924.667 1729.1 922.389 1732.14 C 920.105 1735.17 918.084 1739.48 918.084 1739.48 C 918.084 1739.48 923.4 1745.05 925.425 1752.14 C 927.453 1759.23 930.491 1762.78 938.344 1768.61 C 946.193 1774.43 952.271 1777.47 954.042 1786.84 C 955.817 1796.21 954.804 1798.49 950.751 1799.76 C 946.698 1801.02 934.035 1801.53 928.463 1801.02 C 922.895 1800.51 919.348 1795.7 914.028 1792.67 C 908.712 1789.62 905.417 1783.55 898.326 1780 C 891.235 1776.46 886.168 1771.9 885.663 1765.56 C 885.158 1759.23 884.902 1752.65 885.663 1748.85 C 886.425 1745.05 887.691 1740.75 887.691 1740.75 C 887.691 1740.75 885.663 1737.96 883.13 1731.12 C 880.597 1724.28 878.575 1721.5 879.081 1716.18 C 879.586 1710.86 880.853 1700.22 879.839 1693.13 C 878.825 1686.04 873.253 1650.33 873.509 1632.86 C 873.762 1615.38 866.67 1598.92 867.176 1589.8 C 867.681 1580.68 866.414 1578.15 866.414 1568.53 C 866.414 1558.9 863.884 1554.6 863.123 1542.95 C 862.365 1531.3 863.123 1527.75 858.817 1519.9 C 854.513 1512.05 853.246 1512.05 848.183 1503.69 C 843.116 1495.34 840.835 1492.04 840.835 1492.04 C 840.835 1492.04 828.681 1510.53 822.856 1527.5 C 817.028 1544.47 813.737 1554.09 810.445 1569.54 C 807.151 1584.99 807.912 1593.09 806.393 1600.95 C 804.874 1608.8 801.579 1609.56 803.354 1617.66 C 805.126 1625.76 805.632 1631.08 805.632 1634.38 C 805.632 1637.67 804.365 1674.64 802.34 1697.94 C 800.315 1721.24 799.046 1723.52 800.568 1730.11 C 802.088 1736.69 802.084 1738.21 801.579 1741.5 C 801.074 1744.8 798.541 1745.05 801.074 1748.34 C 803.607 1751.63 806.898 1753.92 806.898 1765.56 C 806.898 1777.21 806.39 1783.55 803.607 1785.57 C 800.821 1787.6 785.372 1790.38 777.014 1790.13 C 768.66 1789.88 749.407 1798.49 733.706 1801.53 C 718.004 1804.57 704.835 1802.54 701.541 1797.48 C 698.249 1792.41 696.225 1784.56 702.808 1783.04 C 709.393 1781.52 722.817 1776.96 731.172 1769.62 C 739.53 1762.27 743.583 1758.73 751.688 1754.68 C 759.793 1750.62 763.593 1743.28 763.593 1743.28 C 763.593 1743.28 761.565 1744.29 760.804 1737.2 C 760.046 1730.11 760.046 1724.54 760.555 1712.38 C 761.06 1700.22 758.273 1695.92 758.273 1685.28 C 758.273 1674.64 755.993 1666.03 755.488 1642.23 C 754.982 1618.42 752.449 1573.85 754.982 1552.57 C 757.516 1531.3 755.993 1530.79 759.035 1510.03 C 762.074 1489.26 755.996 1482.17 763.088 1469 C 770.176 1455.83 771.698 1441.14 771.698 1441.14 C 771.698 1441.14 771.757 1440.15 771.879 1438.48 C 768.266 1435.9 763.777 1431.06 762.077 1422.4 C 759.038 1406.95 751.944 1397.83 750.428 1390.49 C 748.905 1383.14 745.866 1375.8 747.133 1361.87 C 748.209 1350.05 748.006 1305.12 747.921 1291.79 C 746.917 1290.84 746.372 1290.02 746.372 1289.43 C 746.372 1287.66 748.144 1282.85 749.158 1277.02 C 750.172 1271.2 748.649 1259.04 752.196 1246.38 C 755.744 1233.72 758.277 1223.84 770.179 1218.01 C 782.081 1212.19 794.747 1208.64 806.141 1201.3 C 815.46 1195.3 816.313 1192.51 820.471 1190.86 L 820.257 1178.78 C 820.257 1178.78 820.257 1178.71 818.932 1176.69 C 817.599 1174.66 816.395 1169.22 816.395 1169.22 C 816.395 1169.22 813.609 1168.71 811.962 1167.82 C 810.317 1166.94 809.56 1163.39 808.162 1157.06 C 806.771 1150.73 807.532 1144.65 807.532 1144.65 C 807.532 1144.65 807.026 1136.42 807.276 1130.34 C 807.532 1124.26 806.771 1110.46 818.548 1097.54 C 830.325 1084.63 841.593 1088.17 859.323 1090.45 C 877.053 1092.73 876.925 1114.13 876.925 1114.13 C 876.925 1114.13 880.472 1118.18 881.102 1124.64 C 881.738 1131.1 879.839 1138.32 879.839 1138.32 C 879.839 1138.32 881.105 1138.95 882.497 1140.72 C 883.891 1142.5 884.144 1144.4 884.272 1149.84 C 884.396 1155.29 882.116 1161.68 880.662 1164.47 C 879.205 1167.26 876.672 1167.26 876.672 1167.26 C 876.672 1167.26 876.419 1167.7 874.962 1170.61 C 873.509 1173.52 871.225 1177.45 871.225 1177.45 L 871.225 1185.23 L 871.225 1185.23 Z " fill="rgb(0,0,0)"/></svg>