<?xml version="1.0" encoding="UTF-8" standalone="no"?><!-- Generator: Gravit.io --><svg xmlns="http://www.w3.org/2000/svg" xmlns:xlink="http://www.w3.org/1999/xlink" style="isolation:isolate" viewBox="726.616 197.039 219.573 741.774" width="219.573pt" height="741.774pt"><path d=" M 904.886 436.501 L 906.304 476.708 C 906.829 491.668 907.354 503.738 907.354 516.075 C 907.354 525.672 908.469 549.4 908.715 569.475 C 909.723 568.761 910.619 568.059 911.324 567.396 C 915.656 563.327 916.44 562.276 917.1 560.439 C 917.756 558.602 917.1 528.42 915.262 504.011 C 913.864 485.451 908.676 457.334 904.886 436.501 Z  M 763.639 573.496 C 764.006 562.508 764.735 549.312 764.735 537.995 C 764.735 522.772 765.782 473.168 765.782 460.044 C 765.782 458.551 765.752 456.981 765.7 455.367 C 764.282 466.482 762.608 479.133 761.201 488.526 C 758.051 509.524 756.738 525.009 756.476 541.02 C 756.21 557.029 755.163 561.755 758.313 567.266 C 759.668 569.642 761.664 571.627 763.636 573.496 L 763.639 573.496 Z  M 856.124 296.497 C 858.689 298.501 859.585 302.027 862.201 305.19 C 865.351 308.996 876.771 311.621 885.692 314.64 C 894.615 317.657 909.316 323.826 917.057 328.025 C 924.801 332.224 932.677 338.389 936.746 359.256 C 940.814 380.123 941.73 389.833 942.518 398.758 C 943.305 407.681 943.437 415.686 943.437 415.686 C 943.437 415.686 942.554 415.966 940.874 416.414 C 941.97 423.407 943.801 435.25 945.183 444.825 C 947.282 459.392 945.839 513.852 943.213 536.161 C 940.588 558.47 938.226 564.506 936.125 569.757 C 934.025 575.005 931.663 579.73 931.138 587.079 C 930.616 594.428 930.354 595.479 925.365 603.09 C 920.378 610.701 923.164 613.062 915.656 620.411 C 913.066 622.942 910.455 625.1 908.145 626.841 L 908.145 631.033 C 908.145 642.057 908.936 684.443 909.066 697.699 C 909.198 710.954 908.673 715.416 910.511 721.585 C 912.348 727.75 910.248 732.476 910.248 733.395 C 910.248 734.313 912.479 736.151 912.742 742.712 C 913.004 749.273 912.873 752.947 913.004 755.704 C 913.136 758.46 910.251 804.126 911.039 814.101 C 911.826 824.074 916.286 826.698 914.32 831.686 C 912.352 836.672 906.97 839.689 908.676 846.25 C 910.382 852.813 916.814 853.076 915.633 856.618 C 914.448 860.161 916.68 864.361 912.22 866.724 C 907.757 869.083 907.626 872.364 907.626 872.364 C 907.626 872.364 912.88 877.615 916.161 886.278 C 919.442 894.938 918.13 896.644 922.195 899.791 C 926.265 902.941 936.372 907.666 937.812 913.311 C 939.256 918.955 938.469 925.252 937.287 927.483 C 936.105 929.714 924.952 932.336 918.783 932.599 C 912.617 932.861 904.217 925.514 899.229 922.232 C 894.244 918.955 887.813 910.816 882.828 906.354 C 877.84 901.891 876.003 897.3 875.215 891.131 C 874.428 884.965 874.428 882.734 875.215 878.927 C 876.003 875.121 876.265 872.364 876.265 872.364 C 876.265 872.364 871.018 871.183 870.358 865.936 C 869.702 860.686 868.393 854.126 869.443 847.04 C 870.496 839.953 867.346 838.643 867.346 828.406 C 867.346 818.169 864.983 818.434 866.293 808.721 C 867.605 799.011 864.458 765.942 863.671 755.705 C 862.883 745.469 861.309 743.107 861.833 735.495 C 862.358 727.885 860.258 726.31 858.424 716.599 C 856.586 706.887 858.945 707.675 856.586 692.452 C 854.224 677.229 848.448 653.87 844.776 639.697 C 841.101 625.523 839.264 623.686 837.951 618.699 C 836.638 613.713 835.326 609.775 835.326 609.775 C 835.326 609.775 830.863 620.274 829.025 637.072 C 827.191 653.87 827.979 663.055 826.403 679.329 C 824.825 695.602 822.466 709.25 822.203 719.222 C 821.94 729.196 821.025 727.356 819.45 734.051 C 817.875 740.743 818.006 745.994 819.056 753.21 C 820.106 760.429 819.45 761.608 819.45 768.828 C 819.45 776.044 819.581 799.141 818.794 811.739 C 818.006 824.339 815.906 825.914 817.219 832.475 C 818.531 839.035 821.682 846.121 819.056 850.321 C 816.431 854.521 817.481 856.883 816.168 861.345 C 814.856 865.808 813.806 866.333 813.806 866.333 C 813.806 866.333 815.906 871.321 815.644 880.768 C 815.381 890.216 817.219 897.041 816.693 900.979 C 816.168 904.917 809.084 907.804 804.621 913.313 C 800.158 918.823 792.023 928.536 780.214 934.574 C 768.403 940.609 754.753 939.037 749.502 936.934 C 744.255 934.833 744.255 924.599 745.831 920.923 C 747.405 917.248 752.394 913.313 757.903 909.376 C 763.416 905.441 764.203 899.666 769.191 894.678 C 774.176 889.69 773.388 883.656 776.014 878.405 C 778.639 873.155 779.16 869.221 778.639 865.021 C 778.113 860.82 772.604 858.458 773.913 848.485 C 775.226 838.511 774.701 834.573 774.701 830.9 C 774.701 827.225 771.554 798.879 770.241 781.294 C 768.929 763.71 764.729 755.312 767.091 747.174 C 769.454 739.039 771.029 733.264 768.929 718.041 C 766.829 702.818 765.782 691.799 765.516 677.626 C 765.253 663.452 762.894 649.542 762.894 638.518 C 762.894 637.533 762.897 636.38 762.904 635.095 C 759.931 632.349 756.847 628.67 754.638 623.957 C 748.862 611.621 744.403 604.535 741.516 592.2 C 738.628 579.863 733.377 576.451 732.327 566.216 C 731.277 555.981 728.39 543.905 728.39 536.557 C 728.39 529.209 727.602 497.451 727.602 475.667 C 727.602 461.019 728.908 446.725 729.765 438.935 C 727.907 438.708 726.906 438.518 726.906 438.518 C 726.906 438.518 726.253 421.852 726.906 409.123 C 727.563 396.393 729.794 366.995 733.207 361.092 C 736.619 355.186 738.06 353.218 738.06 353.218 C 738.06 353.218 739.376 347.313 753.021 339.308 C 766.671 331.301 774.806 324.742 784.256 320.017 C 793.704 315.291 794.754 317.522 796.723 311.355 C 798.386 306.144 798.455 301.309 802.708 298.985 L 802.479 293.417 C 802.479 293.417 801.468 291.745 800.398 288.887 C 799.328 286.025 798.586 279.044 798.586 279.044 C 798.586 279.044 794.872 278.964 793.684 276.375 C 792.496 273.784 790.888 265.39 790.796 258.245 C 790.704 251.096 793.061 250.451 793.061 250.451 C 793.061 250.451 792.86 246.489 792.611 241.468 C 792.361 236.447 790.888 222.751 792.529 213.135 C 794.17 203.518 805.727 196.322 827.483 197.096 C 849.239 197.869 852.507 215.715 852.507 215.715 C 852.507 215.715 858.063 218.221 858.509 224.554 C 858.959 230.889 860.32 244.989 860.32 244.989 C 860.32 244.989 863.96 246.266 864.586 250.87 C 865.21 255.474 865.896 263.915 863.934 269.705 C 861.971 275.499 858.329 276.868 858.329 276.868 C 858.329 276.868 857.252 279.172 856.238 282.8 C 855.228 286.424 855.809 290.104 856.058 295.123 L 856.124 296.497 Z " fill="rgb(0,0,0)"/></svg>