<?xml version="1.0" encoding="UTF-8" standalone="no"?><!-- Generator: Gravit.io --><svg xmlns="http://www.w3.org/2000/svg" xmlns:xlink="http://www.w3.org/1999/xlink" style="isolation:isolate" viewBox="1623.465 197.047 234.864 741.764" width="234.864pt" height="741.764pt"><path d=" M 1813.05 532.839 C 1813.21 532.686 1813.34 532.547 1813.43 532.42 C 1815.42 529.72 1812.01 529.862 1815.42 526.591 C 1818.84 523.321 1816.85 520.478 1819.41 511.521 C 1821.96 502.564 1815.86 488.203 1817.7 476.117 C 1819.55 464.033 1818.7 457.068 1818.7 451.094 C 1818.7 445.122 1819.83 448.109 1818.41 440.004 C 1816.99 431.901 1817.27 430.621 1815.86 423.796 C 1814.87 419.047 1813.46 414.919 1812.7 412.847 C 1812.32 418.693 1811.86 426.269 1811.45 434.036 C 1810.6 450.528 1810.6 448.254 1811.17 460.48 C 1811.74 472.709 1812.59 477.827 1811.17 491.761 C 1809.92 504.009 1810.87 520.213 1813.05 532.839 Z  M 1770.05 292.707 C 1771.29 293.177 1772.63 294.091 1773.83 295.765 C 1777.53 300.882 1781.37 302.731 1781.37 302.731 C 1781.37 302.731 1797.58 308.704 1814.21 312.257 C 1830.85 315.812 1836.53 324.343 1840.09 336.998 C 1843.64 349.651 1846.06 390.026 1851.75 405.384 C 1857.43 420.737 1856.01 426.141 1855.73 434.956 C 1855.44 443.77 1856.58 450.881 1858 458.272 C 1859.43 465.666 1855.73 473.912 1855.73 480.452 C 1855.73 486.992 1857.15 491.827 1854.87 499.22 C 1852.6 506.613 1849.54 522.751 1845.57 529.433 C 1841.58 536.113 1842.15 538.744 1841.66 542.868 C 1841.16 546.991 1837.74 546.778 1837.74 546.778 C 1837.74 546.778 1831.57 565.013 1817.14 572.922 C 1816.59 585.093 1815.65 603.127 1814.3 618.585 C 1812.02 644.744 1812.74 667.071 1807.91 687.259 C 1803.07 707.448 1802.79 712 1802.79 723.373 C 1802.79 734.747 1802.79 750.386 1802.22 758.063 C 1801.65 765.74 1807.34 795.313 1807.63 815.503 C 1807.91 835.692 1805.35 842.232 1803.08 849.911 C 1800.8 857.588 1793.98 858.441 1796.54 865.267 C 1799.09 872.089 1803.08 879.485 1803.36 883.462 C 1803.64 887.446 1801.65 884.887 1802.79 890.858 C 1803.93 896.831 1802.79 899.387 1802.79 899.387 C 1802.79 899.387 1808.91 911.899 1818.86 918.584 C 1828.81 925.265 1830.52 927.257 1830.52 930.669 C 1830.52 934.082 1828.38 937.777 1828.38 937.777 C 1828.38 937.777 1819.57 938.489 1808.19 938.771 C 1796.82 939.057 1791.84 937.777 1787.58 936.215 C 1783.31 934.646 1782.46 932.09 1778.05 931.378 C 1773.64 930.669 1769.67 931.664 1764.55 928.678 C 1759.43 925.691 1758.43 922.991 1758.15 916.877 C 1757.87 910.764 1755.31 914.032 1757.87 908.346 C 1760.43 902.659 1759.86 899.246 1759.86 899.246 C 1759.86 899.246 1753.74 893.7 1753.31 885.172 C 1752.88 876.64 1749.48 877.634 1753.46 870.953 C 1757.44 864.272 1752.6 858.439 1751.18 851.76 C 1749.76 845.077 1750.47 832.71 1752.46 812.236 C 1754.45 791.764 1750.76 780.389 1750.76 767.31 C 1750.76 754.229 1750.19 751.955 1751.04 740.579 C 1751.89 729.204 1747.63 699.351 1748.05 681.152 C 1748.48 662.953 1749.62 660.678 1748.63 651.863 C 1747.63 643.048 1747.35 634.802 1747.35 634.802 C 1747.35 634.802 1744.64 644.611 1745.21 652.858 C 1745.78 661.104 1746.49 664.801 1745.64 676.886 C 1744.79 688.972 1746.2 691.246 1745.21 699.067 C 1744.21 706.887 1744.36 745.131 1742.65 762.903 C 1740.95 780.676 1740.95 786.505 1740.95 795.178 C 1740.95 803.851 1735.83 819.203 1736.68 833.991 C 1737.53 848.777 1737.68 851.335 1739.67 857.734 C 1741.66 864.135 1742.94 867.544 1742.37 872.236 C 1741.8 876.929 1741.09 882.045 1737.96 888.161 C 1734.83 894.274 1729.15 900.105 1729.15 900.105 C 1729.15 900.105 1729.57 909.77 1729.57 917.307 C 1729.57 924.842 1728.87 925.98 1726.3 927.687 C 1723.75 929.39 1717.06 928.966 1709.81 929.675 C 1702.56 930.387 1700 934.509 1692.18 935.506 C 1684.36 936.5 1673.84 936.5 1663.46 935.933 C 1653.08 935.362 1649.81 935.362 1648.82 931.381 C 1647.82 927.401 1646.83 922.994 1655.92 921.146 C 1665.03 919.296 1668.87 918.869 1671.14 915.457 C 1673.42 912.044 1674.55 908.349 1679.81 903.089 C 1685.07 897.828 1686.78 890.009 1686.78 890.009 C 1686.78 890.009 1683.51 884.178 1687.92 880.909 C 1692.32 877.638 1694.74 868.111 1692.75 861.004 C 1690.76 853.896 1686.92 854.608 1689.76 846.218 C 1692.6 837.829 1691.04 833.85 1691.19 828.731 C 1691.33 823.612 1689.63 824.749 1691.47 816.076 C 1693.32 807.404 1690.76 773.855 1691.61 748.263 C 1692.47 722.669 1691.9 720.965 1689.91 702.196 C 1687.92 683.428 1683.65 675.184 1685.64 670.064 C 1687.63 664.945 1677.12 630.537 1679.39 604.947 C 1680.99 586.958 1679.35 576.695 1679.83 567.347 C 1677.21 562.834 1673.26 554.273 1673.26 543.797 C 1673.26 528.157 1672.12 516.784 1674.39 494.603 C 1676.67 472.424 1676.1 472.708 1676.67 458.49 C 1676.89 452.828 1677.03 445.726 1677.12 439.225 C 1674.68 443.235 1670.54 448.934 1664.44 453.654 C 1653.77 461.9 1649.22 462.61 1644.81 462.61 C 1640.4 462.61 1631.16 455.36 1628.46 445.122 C 1625.76 434.886 1621.35 433.748 1624.63 425.075 C 1627.89 416.402 1626.33 416.544 1628.18 410.716 C 1630.03 404.886 1635.86 398.348 1639.41 381.855 C 1642.96 365.363 1644.95 363.942 1646.95 355.126 C 1648.94 346.313 1655.2 329.821 1661.59 320.154 C 1667.99 310.483 1669.84 307.642 1680.08 307.215 C 1690.31 306.787 1688.32 307.785 1696.57 304.088 C 1704.81 300.39 1712.49 300.676 1712.49 300.676 C 1712.49 300.676 1715.62 301.813 1720.31 296.267 C 1720.89 295.588 1721.56 294.978 1722.3 294.433 C 1722.37 287.731 1722.41 281.361 1722.41 281.361 C 1722.41 281.361 1722.13 281.006 1720.06 278.161 C 1718 275.318 1716.01 267.213 1716.01 267.213 C 1716.01 267.213 1714.81 267.355 1712.75 265.15 C 1710.69 262.947 1710.32 258.538 1709.62 253.848 C 1708.9 249.156 1708.55 246.312 1710.04 246.028 C 1711.53 245.744 1712.03 246.028 1712.03 246.028 C 1712.03 246.028 1711.46 237.284 1711.75 230.602 C 1712.03 223.919 1711.75 217.947 1713.17 212.545 C 1714.59 207.143 1716.3 202.45 1720.84 200.033 C 1725.39 197.615 1727.39 197.047 1733.36 197.047 C 1739.33 197.047 1738.48 197.047 1743.59 198.041 C 1748.71 199.037 1750.42 197.758 1756.11 198.327 C 1761.79 198.895 1761.79 198.895 1764.64 201.881 C 1767.48 204.867 1769.19 205.861 1773.45 210.98 C 1777.72 216.099 1778.57 218.373 1778.85 226.337 C 1779.14 234.298 1777.08 242.754 1777.08 242.754 C 1777.08 242.754 1779.92 243.324 1780.92 245.741 C 1781.91 248.159 1781.2 250.007 1780.42 254.272 C 1779.63 258.537 1779.21 263.3 1777.15 266.002 C 1775.09 268.704 1773.45 268.913 1773.45 268.913 C 1773.45 268.913 1773.45 269.124 1772.24 272.893 C 1771.03 276.662 1770.18 278.793 1770.18 278.793 C 1770.18 278.793 1770.39 281.566 1770.18 288.534 L 1770.05 292.707 Z " fill="rgb(0,0,0)"/></svg>