<?xml version="1.0" encoding="UTF-8" standalone="no"?><!-- Generator: Gravit.io --><svg xmlns="http://www.w3.org/2000/svg" xmlns:xlink="http://www.w3.org/1999/xlink" style="isolation:isolate" viewBox="106.158 296.152 99.62 124.124" width="99.62pt" height="124.124pt"><g><path d=" M 130.495 420.276 C 128.275 411.912 139.555 379.499 145.076 375.09 L 179.212 393.265 C 184.516 410.323 190.46 406.005 193.674 420.276 L 130.495 420.276 Z " fill="#000000"/><path d=" M 173.159 379.571 C 164.392 372.212 152.911 368.704 147.031 367.108 L 141.684 378.23 C 165.452 384.531 183.241 400.231 183.241 400.231 C 180.456 389.663 179.039 384.508 173.159 379.571 Z " fill="#000000"/><path d=" M 140.664 333.67 C 138.841 328.509 138.581 321.38 139.302 317.764 C 145.171 288.302 183.71 293.691 193.582 306.17 C 199.079 313.119 200.944 319.268 200.462 325.052 C 200.235 327.777 198.664 329.508 199.519 333.112 C 201.338 340.78 205.96 340.488 205.773 342.006 C 205.243 346.332 200.959 345.991 201.142 347.457 C 201.243 348.26 201.487 348.601 202.74 349.818 C 203.172 350.236 202.949 351.455 202.625 351.96 C 201.901 353.082 199.554 353.688 199.554 353.688 C 199.554 353.688 201.582 355.549 201.033 356.756 C 200.546 357.826 198.259 357.215 198.723 360.711 C 198.964 362.537 198.016 364.241 196.967 365.281 C 194.649 367.581 190.378 366.48 183.82 364.758 C 173.715 362.108 177.126 389.996 177.126 389.996 L 164.243 380.747 L 147.599 376.299 C 156.044 354.504 142.486 338.832 140.664 333.67 Z " fill="#000000"/><path d=" M 145.904 304.273 C 145.904 304.273 119.474 288.319 116.693 320.869 C 115.254 337.695 118.086 349.037 115.997 356.974 C 115.372 359.351 113.632 364.826 106.176 357.332 C 106.176 357.332 105.425 368.165 113.632 369.973 C 125.447 372.576 133.834 370.401 133.834 320.616 C 133.834 305.06 146.55 313.381 146.781 312.916 C 147.013 312.451 145.904 304.273 145.904 304.273 Z " fill="#000000"/><path d=" M 147.336 304.14 C 147.336 304.14 145.308 299.479 141.1 302.899 C 138.01 305.412 136.534 313.364 143.061 313.227 C 151.39 313.052 147.336 304.14 147.336 304.14 Z " fill="#000000"/></g></svg>