<?xml version="1.0" encoding="UTF-8" standalone="no"?><!-- Generator: Gravit.io --><svg xmlns="http://www.w3.org/2000/svg" xmlns:xlink="http://www.w3.org/1999/xlink" style="isolation:isolate" viewBox="132.054 197.038 227.5 741.776" width="227.5pt" height="741.776pt"><path d=" M 277.747 291.01 C 278.758 291.369 279.723 291.837 280.385 292.436 C 282.515 294.351 283.437 295.272 284.927 298.963 C 286.417 302.652 288.048 305.137 288.333 305.491 C 288.615 305.846 299.546 309.747 311.464 312.869 C 323.382 315.993 325.085 317.27 332.039 320.533 C 338.992 323.797 343.678 326.208 345.949 333.588 C 348.22 340.967 354.038 380.273 356.026 397.303 C 358.012 414.332 358.012 412.913 359.002 418.73 C 360 424.549 359.573 425.824 358.297 429.089 C 357.021 432.354 356.594 432.213 355.458 437.463 C 354.323 442.713 354.75 442.997 353.47 447.537 C 352.193 452.079 350.067 460.026 338.575 468.824 C 327.081 477.623 327.507 474.501 323.674 477.339 C 319.842 480.176 317.433 482.59 317.433 482.59 C 317.433 482.59 325.236 507.137 328.643 519.342 C 332.049 531.546 332.62 538.072 331.484 544.885 C 330.349 551.695 329.496 550.844 330.631 555.669 C 331.767 560.495 331.484 565.604 331.484 565.604 C 331.484 565.604 330.29 566.746 327.435 568.341 C 328.183 575.698 329.2 586.596 329.784 596.325 C 330.775 612.929 330.211 653.936 328.226 674.938 C 326.24 695.94 320.846 703.603 322.834 710.415 C 324.819 717.227 321.699 721.767 320.281 730.848 C 318.86 739.932 325.387 742.77 323.97 751.852 C 322.552 760.933 324.537 764.055 325.673 773.42 C 326.808 782.785 327.376 799.672 327.376 816.132 C 327.376 832.593 327.238 833.302 329.509 839.404 C 331.776 845.507 334.047 847.352 331.776 853.169 C 329.509 858.989 326.812 861.542 327.521 866.084 C 328.229 870.625 333.053 874.028 332.915 876.158 C 332.771 878.287 334.05 883.748 331.569 887.722 C 329.085 891.699 327.809 890.064 328.305 892.617 C 328.8 895.174 328.019 897.087 328.019 897.087 C 328.019 897.087 331.287 907.377 338.454 912.772 C 345.621 918.167 348.955 920.365 353.355 922.846 C 357.756 925.33 359.6 930.935 359.387 932.993 C 359.173 935.053 356.62 938.528 356.62 938.528 C 356.62 938.528 345.194 938.814 336.751 938.814 C 328.308 938.814 322.916 938.598 318.443 937.18 C 313.975 935.762 312.911 935.053 309.078 934.2 C 305.246 933.347 299.995 932.428 295.953 930.227 C 291.91 928.028 290.916 924.907 290.561 920.575 C 290.203 916.25 290.203 912.346 290.203 912.346 C 290.203 912.346 285.668 909.721 283.112 902.911 C 280.56 896.099 280.56 897.231 281.554 891.131 C 282.544 885.031 281.554 887.302 281.554 880.489 C 281.554 873.677 281.268 874.813 283.112 868.854 C 284.96 862.894 279.991 862.186 280.136 856.366 C 280.273 850.548 279.565 849.837 280.982 845.014 C 282.403 840.189 279.142 817.912 274.318 795.773 C 269.491 773.635 267.788 767.391 268.355 753.77 C 268.923 740.146 269.209 735.604 268.641 729.644 C 268.073 723.685 261.688 701.407 260.552 689.346 C 259.417 677.283 257.572 673.451 257.572 668.484 C 257.572 663.52 256.72 661.39 255.729 657.701 C 254.734 654.01 254.449 652.451 254.449 652.451 C 254.449 652.451 251.61 655.573 251.042 663.093 C 250.478 670.614 250.478 679.271 250.334 685.797 C 250.196 692.326 244.801 696.298 243.666 710.631 C 242.53 724.963 242.813 728.085 241.677 734.471 C 240.542 740.856 231.744 754.904 231.177 780.731 C 230.612 806.558 228.624 819.328 227.488 829.83 C 226.353 840.331 225.503 845.44 225.218 853.672 C 224.936 861.903 220.394 865.447 218.69 872.827 C 216.987 880.207 217.414 887.02 215.284 889.717 C 213.155 892.411 215.002 888.863 211.737 897.802 C 208.476 906.744 203.79 907.026 203.79 907.026 C 203.79 907.026 203.009 916.395 202.727 920.72 C 202.444 925.048 203.507 926.396 198.398 929.022 C 193.289 931.647 182.506 932.356 174.132 934.981 C 165.758 937.606 148.592 939.103 140.713 937.259 C 132.838 935.411 131.204 930.305 132.411 927.467 C 133.619 924.628 137.307 921.576 141.14 920.228 C 144.973 918.879 149.373 916.749 152.635 914.124 C 155.9 911.499 155.332 910.862 161.292 907.811 C 167.25 904.759 170.516 899.653 170.516 899.653 C 170.516 899.653 166.968 895.607 168.671 890.216 C 170.375 884.824 170.516 883.121 170.089 877.727 C 169.666 872.335 168.53 872.338 170.942 866.661 C 173.354 860.984 172.646 858.287 173.213 852.611 C 173.78 846.935 174.493 840.265 175.057 836.718 C 175.625 833.171 174.775 799.823 178.04 791.309 C 181.305 782.797 177.472 785.918 180.734 776.127 C 183.999 766.336 181.443 764.916 181.443 757.252 C 181.443 749.59 181.587 751.435 183.572 745.9 C 185.558 740.366 184.566 737.244 184.849 731.567 C 185.135 725.892 182.585 713.404 184.855 697.228 C 187.126 681.051 179.179 667.995 180.314 653.237 C 181.449 638.48 176.058 629.965 179.461 621.167 C 182.867 612.37 181.731 584.555 182.017 571.784 C 182.073 569.325 182.148 567.256 182.233 565.517 C 180.504 563.069 178.831 560.144 178.227 557.372 C 176.806 550.844 174.821 547.439 177.374 538.926 C 179.927 530.41 177.374 521.045 181.915 505.435 C 186.457 489.825 186.171 487.555 186.171 487.555 C 186.171 487.555 179.645 483.3 175.385 480.176 C 171.129 477.054 169.994 476.486 168.291 473.649 C 166.591 470.811 166.591 470.527 166.591 470.527 C 166.591 470.527 156.087 467.405 156.655 462.579 C 157.223 457.756 157.508 454.35 154.666 446.97 C 151.831 439.591 151.831 437.89 151.831 432.213 C 151.831 426.536 155.805 391.629 155.805 370.059 C 155.805 348.491 158.361 332.596 171.133 325.501 C 183.9 318.407 189.578 313.582 200.364 310.177 C 211.15 306.771 216.256 305.919 216.256 305.919 C 216.256 305.919 218.668 293.645 226.475 291.09 C 227.475 290.762 228.492 290.47 229.503 290.208 L 229.565 285.784 C 229.565 285.784 228.145 284.081 226.445 280.675 C 224.742 277.271 225.165 270.46 225.165 270.46 C 225.165 270.46 221.903 267.336 220.912 264.215 C 219.915 261.093 220.059 258.538 220.341 254.14 C 220.624 249.741 221.903 249.173 221.903 249.173 C 221.903 249.173 221.335 247.045 221.05 244.207 C 220.768 241.368 221.477 241.227 221.477 232.428 C 221.477 223.63 221.477 224.908 222.612 217.812 C 223.747 210.718 229.142 200.499 235.951 198.655 C 242.764 196.811 246.452 196.102 255.958 198.94 C 265.468 201.777 265.612 205.041 274.124 207.597 C 282.637 210.15 284.48 216.25 286.896 226.469 C 289.308 236.686 287.746 245.837 287.746 245.837 C 287.746 245.837 288.526 246.902 289.521 249.67 C 290.512 252.437 289.652 254.916 289.442 259.101 C 289.226 263.288 287.808 267.616 286.673 270.028 C 285.541 272.442 282.702 273.718 282.702 273.718 C 282.702 273.718 282.558 274.286 281.14 277.833 C 279.723 281.382 277.806 284.643 277.806 284.643 C 277.806 284.643 277.734 285.564 277.734 289.041 C 277.734 289.633 277.74 290.306 277.747 291.01 Z " fill="rgb(0,0,0)"/></svg>