<?xml version="1.0" encoding="UTF-8" standalone="no"?><!-- Generator: Gravit.io --><svg xmlns="http://www.w3.org/2000/svg" xmlns:xlink="http://www.w3.org/1999/xlink" style="isolation:isolate" viewBox="1362.809 1103.228 257.698 699.732" width="257.698pt" height="699.732pt"><path d=" M 1487.28 1215.7 C 1493.95 1215.78 1497.81 1216.86 1500.7 1219.75 C 1505.02 1224.07 1509.35 1236.24 1511.78 1254.36 C 1514.22 1272.47 1514.76 1297.34 1514.22 1311.95 C 1513.67 1326.55 1511.78 1334.12 1509.35 1338.71 C 1506.91 1343.31 1505.02 1344.93 1505.02 1344.93 C 1505.02 1344.93 1509.49 1349.12 1509.76 1354.26 C 1510.02 1359.4 1510.16 1361.16 1507.32 1366.02 C 1504.49 1370.89 1501.64 1374.27 1501.64 1374.27 C 1501.64 1374.27 1502.46 1383.46 1503 1391.44 C 1503.54 1399.41 1504.49 1402.12 1504.75 1404.69 C 1504.95 1406.52 1503.21 1407.39 1499.46 1407.73 C 1502.34 1417.24 1507.03 1432.17 1513 1449.3 C 1523.28 1478.77 1536.25 1512.3 1543.01 1554.75 C 1549.77 1597.2 1554.37 1611.8 1557.61 1623.69 C 1560.85 1635.59 1564.37 1674.79 1568.7 1693.45 C 1573.02 1712.11 1571.67 1716.7 1574.1 1719.68 C 1576.54 1722.65 1583.84 1723.46 1584.38 1729.41 C 1584.92 1735.36 1586.81 1756.45 1589.78 1764.02 C 1592.76 1771.59 1599.25 1775.92 1606.28 1779.97 C 1613.31 1784.03 1619.53 1783.76 1620.34 1787.54 C 1621.15 1791.33 1619.26 1798.9 1608.98 1800.52 C 1598.71 1802.14 1581.13 1801.87 1576 1802.14 C 1570.86 1802.42 1558.7 1793.76 1555.18 1786.73 C 1551.66 1779.7 1551.39 1771.86 1548.69 1765.1 C 1545.98 1758.34 1545.98 1749.96 1545.98 1744.01 C 1545.98 1738.07 1548.15 1731.31 1547.6 1727.25 C 1547.07 1723.19 1535.98 1702.91 1534.36 1696.15 C 1532.73 1689.39 1518.94 1645.6 1509.48 1616.39 C 1500.02 1587.19 1493.53 1579.62 1491.37 1567.46 C 1489.2 1555.29 1491.63 1556.91 1485.69 1547.72 C 1479.74 1538.52 1477.31 1536.36 1474.87 1528.79 C 1472.44 1521.22 1469.73 1516.35 1466.22 1511.76 C 1462.71 1507.16 1461.9 1503.38 1459.46 1497.97 C 1457.03 1492.56 1453.78 1487.42 1453.78 1487.42 C 1453.78 1487.42 1454.33 1542.85 1452.7 1566.64 C 1451.08 1590.44 1446.21 1602.87 1446.75 1619.1 C 1447.3 1635.32 1444.59 1653.71 1448.92 1668.3 C 1453.24 1682.91 1454.86 1685.61 1456.49 1693.72 C 1458.11 1701.83 1458.92 1714 1458.92 1714 C 1458.92 1714 1466.49 1716.43 1466.76 1727.52 C 1467.03 1738.61 1468.93 1747.8 1468.38 1764.83 C 1467.84 1781.87 1468.11 1786.46 1469.47 1794.03 C 1470.82 1801.6 1463.52 1802.96 1457.3 1802.96 C 1451.08 1802.96 1440.81 1802.42 1436.48 1800.79 C 1432.16 1799.17 1428.64 1788.9 1429.99 1782.13 C 1431.34 1775.38 1432.69 1764.83 1431.34 1758.34 C 1429.99 1751.85 1427.02 1749.96 1426.48 1737.79 C 1425.93 1725.63 1427.83 1721.57 1426.48 1716.7 C 1425.13 1711.84 1418.91 1707.78 1415.12 1693.18 C 1411.34 1678.58 1407.01 1635.59 1405.38 1600.44 C 1403.76 1565.3 1400.52 1543.12 1396.74 1524.74 C 1392.95 1506.35 1380.51 1485.8 1380.51 1459.31 C 1380.51 1439.74 1387.29 1417.81 1395.2 1403.98 C 1393.86 1403 1393.13 1400.7 1393.63 1395.36 C 1394.44 1386.71 1392.95 1388.46 1394.58 1383.87 C 1396.2 1379.27 1397.55 1372.78 1396.74 1370.35 C 1395.92 1367.92 1387 1356.56 1383.22 1347.91 C 1379.43 1339.26 1370.51 1316.55 1366.99 1299.24 C 1363.48 1281.94 1362.4 1263.28 1362.94 1256.79 C 1363.48 1250.3 1365.37 1246.79 1373.75 1242.46 C 1376.15 1241.22 1379.04 1239.81 1382.07 1238.3 C 1382.13 1233.74 1382.31 1229.13 1382.68 1225.15 C 1383.92 1211.69 1382.95 1206.23 1388.89 1185.14 C 1394.85 1164.05 1385.92 1157.56 1390.52 1133.77 C 1395.11 1109.97 1415.13 1100.24 1432.42 1104.02 C 1449.73 1107.81 1456.22 1117.27 1463.79 1129.98 C 1471.36 1142.69 1474.6 1153.5 1474.88 1168.64 C 1475.15 1183.79 1474.88 1188.11 1482.18 1199.47 C 1485.16 1204.12 1486.61 1210.17 1487.28 1215.7 L 1487.28 1215.7 Z " fill="rgb(0,0,0)"/></svg>