<?xml version="1.0" encoding="UTF-8" standalone="no"?><!-- Generator: Gravit.io --><svg xmlns="http://www.w3.org/2000/svg" xmlns:xlink="http://www.w3.org/1999/xlink" style="isolation:isolate" viewBox="149.184 1066.193 200.295 736.767" width="200.295pt" height="736.767pt"><path d=" M 298.381 1188.5 C 313.863 1193.36 325.61 1192.98 327.615 1197.24 C 329.778 1201.84 333.834 1214.81 335.458 1228.06 C 337.079 1241.31 335.458 1248.07 338.973 1258.89 C 342.487 1269.7 343.297 1282.41 347.892 1297.82 C 352.489 1313.23 346.271 1321.08 339.78 1332.43 C 333.292 1343.79 334.103 1344.87 329.509 1348.39 C 324.911 1351.9 319.231 1352.44 319.231 1352.44 C 319.231 1352.44 320.314 1357.31 324.911 1367.04 C 329.509 1376.77 333.292 1390.29 340.324 1399.21 C 347.354 1408.14 348.164 1413.28 348.164 1413.28 C 348.164 1413.28 349.014 1418.13 340.298 1425.24 C 341.19 1435.6 340.833 1452.78 333.837 1475.19 C 321.941 1513.31 317.617 1535.48 314.913 1554.14 C 312.209 1572.8 310.857 1575.5 309.236 1587.13 C 307.615 1598.75 309.236 1604.16 308.153 1609.84 C 307.073 1615.52 305.449 1627.96 303.287 1637.96 C 301.124 1647.96 298.42 1669.86 295.985 1688.25 C 293.554 1706.64 292.474 1714.21 292.474 1714.21 C 292.474 1714.21 289.836 1714.67 285.534 1715.13 C 284.736 1721.69 283.952 1729.39 284.093 1733.41 C 284.362 1741.25 287.335 1743.14 288.149 1754.22 C 288.96 1765.31 291.66 1776.4 285.173 1788.29 C 278.682 1800.19 266.518 1796.68 261.379 1788.83 C 256.24 1780.99 255.702 1769.09 255.702 1758.82 C 255.702 1748.55 251.646 1730.7 252.729 1726.65 C 253.602 1723.36 257.854 1719.36 261.596 1712.63 C 260.431 1712.13 259.758 1711.77 259.758 1711.77 C 259.758 1711.77 258.944 1697.71 258.944 1683.38 C 258.944 1669.05 260.027 1654.72 260.027 1654.72 C 260.027 1654.72 252.454 1685.28 251.102 1697.17 C 249.75 1709.07 248.939 1715.56 247.859 1720.42 C 246.776 1725.29 245.966 1727.45 245.966 1727.45 C 245.966 1727.45 243.324 1728.51 239.558 1728.87 C 240.266 1734.56 240.811 1740.97 240.289 1744.49 C 239.21 1751.79 235.154 1764.5 234.071 1776.4 C 232.988 1788.29 232.178 1798.57 227.583 1802.35 C 222.986 1806.14 204.6 1791.54 201.896 1778.56 C 199.192 1765.58 204.6 1752.6 205.142 1740.98 C 205.68 1729.35 204.082 1722.56 212.722 1710.95 C 211.356 1708.86 210.546 1707.45 210.546 1707.45 C 210.546 1707.45 213.253 1686.63 212.978 1667.16 C 212.708 1647.69 212.708 1625.52 216.227 1612.27 C 219.737 1599.02 219.468 1599.03 219.468 1591.99 C 219.468 1584.97 221.089 1577.39 221.631 1575.23 C 222.172 1573.07 217.844 1550.09 208.384 1520.08 C 199.917 1493.23 184.317 1466.39 182.86 1435.48 C 174.604 1432.33 169.334 1428.16 169.987 1423.82 C 170.798 1418.41 174.584 1405.44 178.641 1387.59 C 182.693 1369.74 183.234 1352.98 183.234 1352.98 C 183.234 1352.98 174.043 1347.57 166.742 1341.89 C 159.44 1336.22 151.06 1332.16 149.98 1325.13 C 148.897 1318.1 148.628 1309.18 151.06 1300.53 C 153.491 1291.88 152.953 1288.9 154.036 1280.52 C 155.116 1272.14 153.761 1266.19 156.737 1257.27 C 159.713 1248.34 157.009 1223.74 158.361 1213.2 C 159.713 1202.65 159.44 1200.22 171.608 1195.89 C 180.15 1192.85 184.429 1189.42 190.896 1185.21 C 191.563 1164.36 187.215 1161.8 192.698 1146.14 C 198.375 1129.92 195.13 1122.89 196.754 1106.12 C 198.375 1089.36 212.437 1072.87 221.627 1068.54 C 230.822 1064.21 244.342 1066.65 252.992 1069.62 C 261.645 1072.6 268.677 1079.08 271.108 1092.6 C 273.54 1106.13 276.517 1108.29 281.383 1121.27 C 286.249 1134.24 286.249 1146.68 287.87 1164.26 C 288.733 1173.62 293.819 1182.36 298.381 1188.5 L 298.381 1188.5 Z " fill="rgb(0,0,0)"/></svg>