<?xml version="1.0" encoding="UTF-8" standalone="no"?><!-- Generator: Gravit.io --><svg xmlns="http://www.w3.org/2000/svg" xmlns:xlink="http://www.w3.org/1999/xlink" style="isolation:isolate" viewBox="415.117 227.32 200.693 711.492" width="200.693pt" height="711.492pt"><path d=" M 567.434 348.821 C 568.215 349.146 569.003 349.432 569.793 349.673 C 581.78 353.32 592.725 350.976 596.895 355.403 C 601.063 359.833 607.573 373.383 609.66 386.151 C 611.744 398.916 615.133 432.787 615.133 452.069 C 615.133 471.349 618.782 475.518 609.142 488.025 C 599.5 500.531 588.819 510.433 588.819 510.433 C 588.819 510.433 592.465 540.396 599.238 561.761 C 606.014 583.127 609.142 590.943 610.966 594.852 C 612.79 598.76 612.269 605.534 603.149 609.182 C 598.952 610.858 595.198 612.593 590.621 614.33 C 590.837 627.11 590.759 642.821 589.604 655.043 C 587.257 679.797 587.779 689.697 588.56 697.254 C 589.341 704.81 584.648 778.155 583.868 793.919 C 583.087 809.684 583.477 811.768 582.824 818.803 C 582.174 825.838 581.652 828.183 581.652 828.183 C 581.652 828.183 574.207 831.533 562.099 832.664 C 562.2 835.517 562.4 837.897 562.768 838.999 C 564.07 842.905 565.892 841.343 565.373 850.462 C 564.852 859.582 566.417 867.921 564.07 875.216 C 561.725 882.511 562.505 884.335 558.859 894.495 C 555.211 904.66 547.653 911.171 538.275 915.338 C 528.896 919.509 519.774 908.306 520.559 898.144 C 521.339 887.984 527.853 882.511 530.458 875.475 C 533.064 868.439 534.107 855.153 536.191 846.293 C 537.569 840.434 538.492 836.285 540.241 830.979 C 540.303 823.571 540.582 800.345 541.658 778.81 C 542.961 752.755 541.661 730.607 541.399 723.052 C 541.137 715.494 532.539 694.39 530.718 673.546 C 528.894 652.7 526.288 642.539 524.985 634.723 C 523.683 626.906 521.599 619.61 521.599 619.61 C 521.599 619.61 518.472 637.067 511.695 662.341 C 504.922 687.615 503.879 697.517 498.668 712.63 C 493.457 727.742 491.114 742.072 486.946 770.213 C 482.775 798.351 477.824 810.076 476 827.533 C 474.175 844.992 471.832 853.59 471.832 853.59 C 471.832 853.59 471.593 853.667 471.14 853.791 C 471.484 856.067 471.957 858.133 472.616 859.582 C 475.219 865.313 475.481 871.045 472.357 878.603 C 469.227 886.16 463.628 893.845 458.677 906.351 C 453.729 918.856 457.111 924.07 447.215 931.627 C 437.312 939.182 420.116 941.265 416.467 935.532 C 412.818 929.803 417.248 917.557 421.678 910.259 C 426.108 902.964 427.67 901.143 430.275 896.45 C 432.881 891.758 436.009 883.941 437.312 873.001 C 437.898 868.075 438.328 861.729 438.62 856.236 C 436.921 856.216 435.874 856.196 435.874 856.196 C 435.874 856.196 433.793 800.177 434.834 781.156 C 435.874 762.135 438.22 736.341 439.785 725.397 C 441.348 714.454 445.256 640.717 447.861 607.626 C 450.385 575.603 449 550.899 453.869 534.227 C 450.972 529.793 446.775 522.499 445.774 516.164 C 444.209 506.262 442.646 498.185 444.99 491.151 C 447.336 484.115 450.463 476.819 452.288 460.403 C 454.112 443.99 445.512 408.038 445.771 390.579 C 446.033 373.122 448.376 366.867 455.934 361.397 C 458.335 359.658 460.659 357.34 463.104 354.769 C 462.762 348.896 462.585 341.937 462.71 333.78 C 463.231 299.908 468.964 285.577 477.824 261.606 C 486.681 237.636 509.871 228.517 518.206 227.473 C 526.544 226.433 542.18 230.6 548.431 242.847 C 554.686 255.093 554.164 261.606 559.896 273.331 C 565.629 285.056 566.932 301.991 565.629 323.096 C 565.042 332.614 566.095 341.705 567.434 348.821 L 567.434 348.821 Z " fill="rgb(0,0,0)"/></svg>