<?xml version="1.0" encoding="UTF-8" standalone="no"?><!-- Generator: Gravit.io --><svg xmlns="http://www.w3.org/2000/svg" xmlns:xlink="http://www.w3.org/1999/xlink" style="isolation:isolate" viewBox="1613.84 1087.778 254.107 715.185" width="254.107pt" height="715.185pt"><path d=" M 1730.83 1186.28 C 1735.03 1188.75 1742.23 1192.01 1753.82 1194.62 C 1775.44 1199.49 1783.29 1204.63 1787.48 1209.63 C 1791.67 1214.63 1792.89 1223.96 1792.75 1228.96 C 1792.62 1233.96 1795.04 1265.73 1795.04 1275.33 C 1795.04 1284.93 1793.56 1288.04 1792.07 1292.77 C 1790.59 1297.5 1790.18 1301.01 1789.64 1306.15 C 1789.1 1311.29 1788.56 1312.1 1787.34 1316.97 C 1786.13 1321.84 1784.64 1336.7 1782.62 1346.98 C 1780.59 1357.25 1780.45 1355.09 1778.29 1361.45 C 1776.13 1367.8 1773.28 1371.99 1773.28 1371.99 C 1773.28 1371.99 1775.86 1383.48 1775.32 1394.43 C 1774.78 1405.38 1774.1 1405.79 1774.78 1410.25 C 1775.46 1414.71 1777.75 1417.82 1775.86 1421.47 C 1775.32 1422.5 1774.47 1423.37 1773.33 1424.13 C 1773.87 1427.53 1774.67 1431.88 1775.73 1435.8 C 1777.9 1443.77 1782.62 1444.86 1783.44 1455.13 C 1784.25 1465.41 1786.82 1474.73 1787.08 1480.01 C 1787.36 1485.28 1793.17 1539.08 1791.82 1553.14 C 1790.47 1567.2 1788.3 1571.26 1789.66 1578.56 C 1791.01 1585.86 1791.01 1585.86 1791.01 1596.13 C 1791.01 1606.41 1795.06 1609.92 1795.34 1622.09 C 1795.61 1634.26 1801.42 1653.32 1802.37 1669.13 C 1803.31 1684.96 1802.37 1690.22 1804.4 1696.98 C 1806.43 1703.74 1809.8 1708.88 1809.8 1713.07 C 1809.8 1717.26 1811.16 1721.05 1813.45 1728.21 C 1815.75 1735.38 1815.75 1731.46 1815.89 1736.59 C 1816.03 1741.73 1815.48 1746.6 1815.48 1746.6 C 1815.48 1746.6 1822.25 1750.93 1826.84 1759.44 C 1831.44 1767.96 1833.87 1768.91 1839.15 1772.83 C 1844.42 1776.75 1863.62 1776.07 1866.59 1783.64 C 1869.56 1791.21 1866.73 1795.81 1866.73 1795.81 C 1866.73 1795.81 1851.58 1799.19 1839.55 1799.05 C 1827.52 1798.92 1820.96 1796.42 1815.62 1793.38 C 1810.28 1790.34 1808.05 1789.73 1808.05 1789.73 C 1808.05 1789.73 1808.46 1791.82 1808.53 1793.18 C 1808.59 1794.53 1805.21 1794.66 1802.44 1794.8 C 1799.67 1794.93 1781.01 1793.31 1778.31 1792.97 C 1775.61 1792.63 1773.11 1791.35 1772.9 1789.05 C 1772.7 1786.76 1772.84 1785.13 1773.04 1779.25 C 1773.24 1773.37 1772.09 1770.19 1772.84 1765.19 C 1773.58 1760.19 1774.59 1758.02 1774.59 1758.02 C 1774.59 1758.02 1771.48 1757.55 1770.94 1754.98 C 1770.4 1752.42 1768.71 1748.97 1770.2 1744.04 C 1771.68 1739.1 1769.79 1735.99 1768.71 1733.08 C 1767.63 1730.18 1767.16 1730.79 1766.08 1724.03 C 1764.99 1717.27 1761.48 1710.92 1759.86 1696.72 C 1758.23 1682.53 1760.13 1680.36 1757.43 1669.14 C 1754.72 1657.92 1743.5 1617.64 1741.74 1599.66 C 1739.98 1581.68 1737.96 1578.57 1736.33 1569.1 C 1734.71 1559.64 1733.09 1557.48 1732.14 1549.23 C 1731.19 1540.98 1728.9 1538.82 1727.68 1531.25 C 1726.46 1523.68 1724.3 1523.55 1722.95 1515.84 C 1721.6 1508.13 1720.12 1506.11 1719.71 1503.13 C 1719.3 1500.16 1717.01 1501.91 1716.74 1506.78 C 1716.46 1511.65 1716.19 1516.25 1716.87 1523.55 C 1717.54 1530.84 1719.71 1533.14 1719.98 1542.07 C 1720.25 1550.99 1721.33 1554.23 1721.33 1560.72 C 1721.33 1567.21 1722.68 1598.04 1722.28 1606.55 C 1721.87 1615.07 1722.81 1618.04 1723.77 1624.13 C 1724.71 1630.21 1722.95 1633.18 1722.95 1640.48 C 1722.95 1647.79 1723.49 1649.81 1723.49 1655.22 C 1723.49 1660.63 1722.28 1687.8 1721.73 1700.1 C 1721.19 1712.4 1722.68 1716.73 1723.63 1723.76 C 1724.57 1730.79 1724.57 1732.41 1723.49 1737.42 C 1722.41 1742.42 1725.25 1742.15 1722.14 1746.88 C 1719.03 1751.61 1717.27 1752.02 1717.27 1752.02 C 1717.27 1752.02 1719.3 1760.06 1719.3 1764.25 C 1719.3 1768.45 1719.3 1770.47 1719.17 1773.11 C 1719.03 1775.74 1718.76 1778.04 1718.36 1778.99 C 1717.95 1779.93 1716.13 1780.88 1713.42 1782.78 C 1710.72 1784.67 1709.84 1784.94 1709.1 1785.21 C 1708.35 1785.48 1705.45 1784.8 1704.7 1787.17 C 1703.96 1789.54 1702.88 1790.95 1701.05 1792.17 C 1699.23 1793.39 1691.66 1802.24 1680.3 1802.79 C 1668.95 1803.33 1662.86 1802.65 1661.1 1800.08 C 1659.34 1797.51 1658.13 1791.02 1660.43 1785.21 C 1662.72 1779.4 1664.75 1776.56 1669.21 1773.04 C 1673.68 1769.53 1673.95 1770.48 1676.92 1765.47 C 1679.89 1760.47 1680.57 1758.85 1683.82 1756.01 C 1687.06 1753.17 1687.33 1750.33 1687.33 1750.33 C 1687.33 1750.33 1680.97 1746.55 1680.84 1742.49 C 1680.71 1738.43 1679.76 1738.44 1682.33 1735.46 C 1684.9 1732.49 1680.57 1725.19 1680.97 1714.5 C 1681.38 1703.83 1679.22 1701.12 1678.95 1693.28 C 1678.68 1685.44 1677.06 1685.03 1678.27 1677.33 C 1679.49 1669.62 1671.11 1642.32 1671.92 1618.79 C 1672.73 1595.27 1675.17 1591.49 1672.19 1579.86 C 1669.22 1568.23 1664.9 1560.12 1663.54 1542.82 C 1662.19 1525.51 1663.54 1529.03 1660.56 1517.13 C 1657.59 1505.23 1655.7 1503.61 1655.16 1491.17 C 1654.62 1478.74 1652.45 1474.41 1651.37 1464.68 C 1650.29 1454.94 1646.78 1449 1646.78 1440.07 C 1646.78 1435.79 1646.72 1430.63 1646.65 1426.43 C 1646.21 1426.4 1645.88 1426.36 1645.67 1426.34 C 1644.45 1426.2 1643.23 1423.77 1642.96 1419.44 C 1642.69 1415.12 1639.99 1404.3 1641.75 1397.54 C 1643.51 1390.78 1641.21 1388.48 1643.1 1381.45 C 1644.99 1374.42 1645.8 1370.91 1645.8 1368.61 C 1645.8 1366.31 1645.8 1364.96 1645.8 1364.96 C 1645.8 1364.96 1629.04 1347.25 1624.71 1338.06 C 1620.39 1328.87 1617.95 1328.6 1616.88 1315.08 C 1615.79 1301.56 1614.44 1295.61 1614.44 1284.52 C 1614.44 1273.44 1613.09 1268.03 1614.44 1255.59 C 1615.79 1243.16 1618.09 1225.17 1628.37 1215.71 C 1638.64 1206.25 1643.51 1203.41 1657.03 1198.13 C 1670.54 1192.86 1675.27 1187.05 1682.03 1185.02 C 1683.02 1184.73 1684.07 1184.42 1685.16 1184.11 L 1684.64 1176.66 C 1684.64 1176.66 1684.11 1175.78 1682.08 1172.13 C 1680.05 1168.48 1679.3 1162.94 1679.3 1162.94 C 1679.3 1162.94 1676.6 1162.73 1675.18 1158.27 C 1673.76 1153.81 1671.12 1147.93 1670.72 1145.83 C 1670.31 1143.74 1670.72 1140.23 1672.27 1139.89 C 1673.83 1139.55 1675.31 1140.02 1675.31 1140.02 C 1675.31 1140.02 1675.31 1135.56 1674.5 1129.48 C 1673.69 1123.4 1673.28 1123.12 1673.28 1115.55 C 1673.28 1107.98 1676.39 1105.28 1680.18 1099.46 C 1683.97 1093.65 1687.08 1091.63 1694.92 1089.06 C 1702.76 1086.49 1704.65 1088.25 1716.28 1090.27 C 1727.9 1092.3 1728.24 1104.67 1728.24 1104.67 C 1728.24 1104.67 1731.96 1105.55 1733.98 1108.05 C 1736.01 1110.55 1735.54 1111.22 1735.61 1117.17 C 1735.67 1123.12 1736.42 1123.05 1736.55 1127.65 C 1736.69 1132.25 1736.08 1135.83 1736.08 1135.83 C 1736.08 1135.83 1736.68 1135.83 1738.17 1136.24 C 1739.66 1136.64 1740.13 1137.12 1740.26 1139.62 C 1740.4 1142.12 1740.26 1143.54 1739.86 1146.99 C 1739.46 1150.43 1739.73 1153.88 1738.64 1156.52 C 1737.57 1159.15 1735.67 1159.96 1735.67 1159.96 C 1735.67 1159.96 1735.47 1160.84 1734.38 1165.1 C 1733.3 1169.36 1730.73 1174.09 1730.73 1174.09 C 1730.73 1174.09 1730.73 1175.78 1730.66 1181.19 C 1730.64 1182.63 1730.72 1184.42 1730.83 1186.28 Z " fill="rgb(0,0,0)"/></svg>