<?xml version="1.0" encoding="UTF-8" standalone="no"?><!-- Generator: Gravit.io --><svg xmlns="http://www.w3.org/2000/svg" xmlns:xlink="http://www.w3.org/1999/xlink" style="isolation:isolate" viewBox="136.623 1067.418 285.17 653.828" width="285.17pt" height="653.828pt"><path d=" M 359.039 1262.03 C 355.162 1244.73 344.012 1195.32 342.962 1194.39 C 341.69 1193.26 305.904 1182.79 305.904 1182.79 C 305.904 1182.79 305.622 1173.81 305.834 1170.34 C 306.045 1166.88 316.371 1157.68 316.371 1157.68 C 316.371 1157.68 314.397 1132.44 312.981 1112.92 C 311.566 1093.39 307.605 1081.65 300.392 1074.72 C 293.179 1067.8 284.407 1069.49 281.155 1068.92 C 277.901 1068.36 262.342 1063.27 252.583 1075.71 C 242.823 1088.16 232.779 1109.1 230.941 1126.5 C 229.102 1143.89 232.071 1155.21 232.921 1158.18 C 232.921 1158.18 236.174 1161.86 236.598 1167.8 C 237.022 1173.74 234.759 1179.68 234.759 1179.68 C 234.759 1179.68 222.032 1190.43 208.309 1195.95 C 194.588 1201.46 192.326 1202.88 191.618 1206.27 C 190.91 1209.67 142.958 1304.01 141.262 1308.26 C 139.566 1312.5 137.088 1312.57 136.664 1314.47 C 136.242 1316.38 139.212 1321.05 139.212 1321.05 C 139.212 1321.05 138.436 1325.93 144.658 1332.16 C 150.881 1338.38 202.659 1384.07 202.659 1384.07 C 202.659 1384.07 204.149 1382.43 206.34 1379.93 C 207.495 1383.29 209.041 1388.3 209.171 1391.42 C 209.384 1396.44 214.475 1398.35 214.475 1398.35 L 218.154 1519.71 L 219.61 1520.42 C 219.61 1520.42 219.719 1527.59 217.879 1548.38 C 216.039 1569.18 216.32 1596.34 222.545 1621.66 C 228.769 1646.97 225.944 1669.75 223.678 1679.37 C 221.415 1688.99 220.849 1710.77 221.98 1714.3 C 223.112 1717.84 239.661 1721.52 244.471 1721.23 C 249.28 1720.95 259.604 1714.02 260.028 1711.62 C 260.454 1709.21 257.273 1686.16 254.233 1674.84 C 251.19 1663.53 250.764 1657.66 250.764 1654.26 C 250.764 1650.86 249.991 1632.54 256.498 1606.8 C 263.005 1581.05 265.695 1570.44 265.834 1557.29 C 265.976 1544.14 265.268 1525.04 265.268 1522.78 C 265.268 1522.78 284.367 1521.22 295.681 1521.64 C 306.993 1522.07 322.271 1523.34 322.271 1523.34 C 322.271 1523.34 325.241 1530.13 325.241 1532.54 C 325.241 1534.94 320.431 1566.06 335.001 1594.63 C 349.571 1623.21 356.784 1653.48 356.36 1658.57 C 356.36 1658.57 352.258 1663.24 352.966 1669.18 C 353.674 1675.12 355.369 1697.18 354.946 1701 L 370.931 1701 L 370.72 1692.16 C 370.72 1692.16 384.225 1701.36 388.257 1702.56 C 392.291 1703.76 417.045 1706.38 419.732 1704.61 C 422.422 1702.84 421.786 1700.29 421.572 1699.59 C 421.357 1698.88 402.686 1689.69 396.746 1682.97 C 390.805 1676.25 378.003 1658.85 378.003 1658.85 C 378.003 1658.85 373.544 1624.41 371.99 1592.44 C 370.434 1560.47 362.796 1522.85 362.796 1522.85 C 362.796 1522.85 363.924 1521.64 363.782 1519.95 C 363.64 1518.25 353.458 1413.86 353.035 1411.88 C 352.612 1409.9 349.074 1402.26 349.074 1402.26 C 349.074 1402.26 362.656 1389.39 362.937 1388.11 C 363.199 1386.94 354.636 1360.24 356.361 1329.72 C 361.638 1332.79 366.379 1335.03 367.013 1334.71 C 368.428 1334.01 384.552 1321.56 386.11 1317.46 C 387.665 1313.35 399.407 1245.89 397.851 1242.77 C 397.188 1241.45 393.644 1236.78 389.578 1231.86 C 395.389 1224.51 404.502 1215.02 404.928 1213.85 C 405.493 1212.29 404.575 1191.85 404.36 1188.17 C 404.147 1184.49 399.834 1182.02 398.137 1183.5 C 396.439 1184.99 396.368 1188.81 396.368 1188.81 C 396.368 1188.81 394.53 1190.22 394.178 1191.57 C 393.825 1192.91 394.107 1198.36 393.046 1200.05 C 391.985 1201.75 386.257 1206.84 386.257 1206.84 L 386.61 1203.02 C 386.61 1203.02 391.841 1195.67 391.419 1192.27 C 390.995 1188.88 388.378 1188.95 385.831 1194.26 C 383.284 1199.56 373.172 1205.71 370.696 1211.23 C 369.598 1213.67 369.473 1217.6 369.676 1221.23 C 367.255 1222.95 365.04 1225.01 364.471 1226.37 C 363.83 1227.88 361.203 1246.3 359.039 1262.03 Z  M 215.254 1343.94 C 214.376 1342.99 213.471 1341.82 212.559 1340.36 C 205.91 1329.76 195.657 1318.65 192.969 1316.96 C 190.28 1315.26 185.613 1313.07 185.613 1313.07 C 185.613 1313.07 197.201 1298.12 204.123 1283.32 C 208.33 1292.72 215.266 1308.74 216.244 1314.26 C 217.659 1322.25 216.952 1324.02 216.244 1324.8 C 216.244 1324.8 213.412 1326.78 213.625 1330.59 C 213.762 1333.06 214.988 1338.26 215.254 1343.94 L 215.254 1343.94 Z " fill-rule="evenodd" fill="rgb(0,0,0)"/></svg>