<?xml version="1.0" encoding="UTF-8" standalone="no"?><!-- Generator: Gravit.io --><svg xmlns="http://www.w3.org/2000/svg" xmlns:xlink="http://www.w3.org/1999/xlink" style="isolation:isolate" viewBox="832.545 1041.984 321.323 679.269" width="321.323pt" height="679.269pt"><path d=" M 1000.91 1147.08 C 1000.91 1147.08 998.429 1150.22 993.921 1144.99 C 989.414 1139.77 984.97 1128.99 983.665 1122.92 C 982.36 1116.84 982.165 1112.01 982.165 1112.01 C 982.165 1112.01 979.355 1112.86 979.159 1110.51 C 978.963 1108.16 978.245 1088.49 981.577 1078.63 C 984.908 1068.77 993.202 1052.96 1001.89 1046.62 C 1010.58 1040.29 1024.23 1042.25 1027.23 1043.03 C 1027.23 1043.03 1040.43 1041.2 1047.22 1042.38 C 1054.01 1043.55 1062.24 1048.39 1069.16 1059.49 C 1076.09 1070.6 1077 1092.8 1078.77 1099.07 C 1080.53 1105.35 1082.16 1114.23 1082.36 1114.82 C 1082.56 1115.41 1081.18 1117.24 1079.74 1115.99 C 1079.74 1115.99 1079.94 1131.34 1080.59 1133.37 C 1081.25 1135.39 1076.75 1139.44 1073.82 1139.31 C 1070.88 1139.18 1069.57 1138.65 1069.57 1138.65 C 1069.57 1138.65 1064.93 1143.1 1063.76 1146.88 C 1062.58 1150.67 1057.88 1148.39 1057.88 1148.39 C 1057.88 1148.39 1056.11 1156.49 1059.84 1160.6 C 1063.56 1164.72 1080.54 1169.22 1086.16 1171.18 C 1091.78 1173.14 1103.87 1185.88 1114.91 1205.93 C 1125.95 1225.98 1142.47 1248.06 1147.57 1253.54 C 1152.66 1259.03 1154.95 1261.12 1153.38 1266.67 C 1151.81 1272.23 1129.73 1297.24 1094.98 1309.79 C 1082.14 1314.42 1073.34 1319.32 1065.85 1323.04 C 1076.96 1343.27 1091.83 1374.62 1092.78 1400.55 C 1094.08 1436.08 1072.4 1488.6 1071.62 1512.37 C 1070.83 1536.14 1078.67 1545.03 1079.45 1570.37 C 1080.24 1595.71 1073.18 1619.23 1068.21 1643.39 C 1063.25 1667.56 1064.68 1686.63 1063.9 1688.33 C 1063.12 1690.03 1059.98 1691.6 1059.98 1691.6 C 1059.98 1691.6 1062.46 1707.8 1059.72 1710.28 C 1056.98 1712.76 1039.99 1717.59 1020.14 1720.47 C 1000.28 1723.34 984.084 1717.72 984.217 1713.28 C 984.349 1708.84 991.531 1706.49 1001.85 1699.7 C 1012.17 1692.9 1026.15 1669.78 1026.67 1667.43 C 1027.19 1665.08 1030.59 1639.47 1029.28 1614.39 C 1027.98 1589.31 1023.67 1536.67 1022.1 1528.83 C 1020.54 1521 1020.01 1444.97 1020.01 1444.97 C 1004.2 1467.31 975.203 1531.98 975.203 1531.98 C 975.203 1541.25 973.112 1567.12 953.647 1600.3 C 934.184 1633.48 931.05 1657.51 931.05 1657.51 C 935.752 1673.84 936.011 1680.57 933.334 1684.69 C 930.657 1688.8 922.161 1692.79 916.806 1695.01 C 911.451 1697.23 907.4 1702.52 905.114 1704.02 C 902.826 1705.52 886.824 1711.92 864.682 1714.08 C 842.538 1716.24 828.102 1711.99 833.787 1710.09 C 839.47 1708.2 857.432 1698.6 861.025 1694.81 C 864.618 1691.02 868.077 1691.54 868.077 1691.54 C 868.077 1691.54 875.521 1684.62 884.145 1675.22 C 892.766 1665.81 899.82 1652.88 899.82 1652.88 C 901.128 1639.56 926.73 1519.63 928.819 1507.62 C 930.909 1495.6 955.727 1400.24 955.336 1398.67 C 954.945 1397.1 956.903 1380.51 958.731 1367.05 C 960.558 1353.6 961.343 1329.82 959.124 1321.72 C 956.904 1313.63 955.857 1268.56 955.203 1262.29 C 954.551 1256.02 952.33 1256.02 948.542 1243.61 C 944.754 1231.2 951.155 1226.1 952.984 1208.6 C 954.813 1191.09 958.929 1180.64 959.777 1179.53 C 960.613 1178.44 969.252 1176.12 969.521 1176.04 L 969.527 1176.04 L 969.527 1176.04 C 977.674 1173.47 990.099 1169.87 996.285 1165.89 C 1005.63 1159.88 1006.67 1158.7 1007.06 1157.72 C 1007.46 1156.74 1007.52 1152.43 1007.06 1151.39 C 1006.61 1150.34 1004.91 1149.82 1000.91 1147.08 Z  M 1054.71 1303.86 C 1065.54 1305.4 1072.35 1302.1 1079.18 1297.24 C 1087.8 1291.1 1109.81 1267 1119.74 1261.58 C 1119.74 1261.58 1103.08 1245.64 1091.85 1235.72 C 1089.15 1233.34 1085.25 1229.58 1080.87 1225.24 C 1073.64 1238.05 1061.01 1252.18 1055.94 1266.79 C 1049.76 1284.58 1048.03 1291.85 1054.71 1303.86 L 1054.71 1303.86 Z " fill-rule="evenodd" fill="rgb(0,0,0)"/></svg>