<?xml version="1.0" encoding="UTF-8" standalone="no"?><!-- Generator: Gravit.io --><svg xmlns="http://www.w3.org/2000/svg" xmlns:xlink="http://www.w3.org/1999/xlink" style="isolation:isolate" viewBox="157.57 293.182 272.637 606.196" width="272.637pt" height="606.196pt"><path d=" M 336.847 340.782 C 335.857 344.458 336.705 349.411 336.705 355.21 C 336.705 361.009 334.3 377.981 327.228 384.347 C 327.228 384.347 326.803 387.743 327.37 389.724 C 327.936 391.704 355.376 402.594 357.923 404.717 C 360.471 406.838 402.338 475.581 404.743 477.844 C 407.149 480.109 409.978 481.099 410.118 484.069 C 410.26 487.04 408.845 487.748 409.835 490.578 C 410.825 493.405 409.27 498.494 406.299 501.75 C 403.329 505.005 403.61 510.237 401.066 511.227 C 398.52 512.218 395.692 513.208 394.277 516.885 C 392.862 520.563 391.872 524.028 386.851 523.887 C 382.49 523.764 363.134 542.797 358.124 547.8 C 359.053 550.555 360.179 553.423 361.535 556.279 C 368.113 570.141 364.79 584.076 364.79 584.076 C 364.79 584.076 366.137 612.86 367.976 627.997 C 369.814 643.133 372.077 664.63 371.935 685.14 C 371.935 685.14 373.633 704.095 374.623 710.603 C 375.615 717.111 374.623 741.015 376.604 768.032 C 378.584 795.048 373.777 831.683 383.251 849.081 C 392.728 866.479 419.32 873.414 424.837 875.958 C 430.355 878.503 430.357 881.684 430.143 884.232 C 429.93 886.779 426.324 888.973 419.038 890.174 C 411.752 891.377 392.093 892.367 387.706 890.669 C 383.321 888.969 378.228 883.598 371.084 883.456 C 363.942 883.313 357.859 884.872 352.768 882.606 C 347.675 880.341 345.269 873.765 345.411 870.015 C 345.551 866.267 349.442 857.143 349.089 849.433 C 348.736 841.724 342.938 814.217 333.744 791.445 C 324.55 768.672 324.692 751.841 325.683 738.969 C 325.683 738.969 326.67 735.286 323.7 726.305 C 320.73 717.323 319.173 720.435 319.809 713.928 C 320.448 707.421 308.779 657.273 305.242 640.018 C 305.242 640.018 279.494 715.97 277.797 721.347 C 276.099 726.722 274.968 732.945 273.977 736.483 C 272.988 740.018 275.673 746.523 273.129 752.747 C 270.584 758.973 264.931 788.115 253.05 816.686 C 241.168 845.258 242.862 846.81 244.278 854.592 C 245.694 862.373 250.359 879.91 249.936 886.983 C 249.513 894.057 240.035 898.796 234.874 899.291 C 229.712 899.784 211.465 898.088 208.706 896.603 C 205.948 895.117 201.846 887.691 203.048 878.779 C 204.248 869.866 208.068 855.72 208.775 851.477 C 209.484 847.236 209.2 836.558 210.189 822.273 C 211.18 807.985 212.167 773.753 219.242 756.356 C 226.314 738.959 228.009 734.433 227.162 730.896 C 226.314 727.359 226.384 716.823 228.364 713.286 C 230.344 709.75 232.394 708.193 232.394 708.193 C 232.394 708.193 231.404 701.968 233.033 697.866 C 234.66 693.765 236.214 691.925 236.214 691.925 C 236.214 691.925 236.639 686.481 237.347 674.033 C 238.055 661.586 241.166 633.016 243.996 622.689 C 246.826 612.363 249.087 603.449 248.238 600.198 C 247.389 596.944 242.58 593.765 243.499 590.299 C 244.42 586.833 251.987 569.786 251.987 569.786 C 251.987 569.786 253.683 564.694 250.854 560.874 C 249.241 558.697 246.594 554.843 244.657 550.503 C 215.106 536.939 177.794 519.561 174.898 518.652 C 170.158 517.166 167.118 516.813 164.783 514.973 C 162.449 513.135 161.389 513.208 160.471 511.51 C 159.55 509.811 159.903 498.777 159.903 498.777 C 159.903 498.777 157.57 494.464 157.57 491.213 C 157.57 487.959 160.966 487.109 165.209 483.006 C 169.451 478.903 223.769 415.818 223.769 415.818 C 223.769 415.818 223.627 411.434 224.899 410.586 C 226.173 409.736 232.68 409.029 246.965 403.371 C 253.865 400.637 260.962 396.555 266.505 393.157 L 270.437 383.994 L 272.277 383.076 C 272.277 383.076 271.003 381.378 270.579 380.317 C 270.153 379.257 270.153 378.478 270.153 378.478 C 270.153 378.478 267.112 378.264 266.828 377.559 C 266.546 376.852 268.879 371.407 268.879 371.407 C 268.879 371.407 263.079 370.698 262.514 369.709 C 261.95 368.717 266.971 367.798 266.971 367.798 L 266.828 360.301 C 266.828 360.301 262.585 352.734 262.302 349.693 C 262.019 346.653 262.09 334.559 263.93 332.507 C 265.77 330.453 271.497 323.029 271.497 323.029 C 271.497 323.029 270.155 315.952 272.277 312.419 C 274.396 308.884 278.358 309.307 278.358 309.307 C 278.358 309.307 281.682 302.801 292.292 297.213 C 302.9 291.625 308.275 293.038 312.306 294.454 C 316.338 295.869 322.208 302.022 322.208 302.022 C 322.208 302.022 333.526 300.041 338.617 307.609 C 342.729 313.722 347.566 327.132 342.436 334.099 C 340.486 336.754 337.856 338.164 336.847 340.782 Z  M 353.49 515.141 C 363.366 504.754 373.948 493.064 376.172 492.413 C 376.172 492.413 367.187 483.943 357.691 475.065 C 355.596 481.544 353.36 493.545 353.49 515.141 Z  M 237.17 481.799 C 226.294 491.805 216.484 502.103 216.484 502.103 C 216.484 502.103 237.347 518.652 250.006 526.857 C 250.612 527.25 251.231 527.637 251.861 528.018 C 251.646 524.872 251.114 521.752 249.933 520.064 C 246.963 515.823 248.943 509.598 248.943 509.598 C 248.943 509.598 244.558 506.133 244.063 499.626 C 243.721 495.082 239.614 486.542 237.17 481.799 L 237.17 481.799 Z " fill-rule="evenodd" fill="rgb(0,0,0)"/></svg>