<?xml version="1.0" encoding="UTF-8" standalone="no"?><!-- Generator: Gravit.io --><svg xmlns="http://www.w3.org/2000/svg" xmlns:xlink="http://www.w3.org/1999/xlink" style="isolation:isolate" viewBox="903.321 253.857 202.955 645.521" width="202.955pt" height="645.521pt"><path d=" M 1022.52 259.869 C 1026.05 254.542 1026.88 253.178 1027.75 255.421 C 1028.08 256.276 1027.7 257.881 1028.54 259.675 C 1030.94 264.8 1034.35 270.045 1035.32 272.035 C 1036.66 274.793 1036.1 287.949 1037.23 299.407 C 1038.36 310.863 1036.66 315.814 1034.12 323.593 C 1031.57 331.374 1029.16 342.83 1027.04 349.197 C 1024.92 355.563 1021.53 356.975 1021.53 356.975 C 1021.53 356.975 1020.54 358.815 1020.54 361.218 C 1020.54 363.622 1021.25 364.41 1022.95 364.835 C 1024.65 365.259 1069.49 382.376 1070.69 383.366 C 1071.89 384.356 1068.78 381.03 1073.87 405.22 C 1078.97 429.409 1080.95 468.739 1081.23 471.851 C 1081.51 474.963 1086.32 523.053 1086.89 536.917 C 1087.46 550.779 1088.59 571.428 1089.72 574.258 C 1090.85 577.088 1100.89 599.58 1101.6 618.674 C 1101.6 618.674 1083.92 633.528 1083.07 648.098 C 1083.07 648.098 1077.7 697.321 1077.7 705.1 C 1077.7 712.881 1078.97 716.839 1077.27 719.81 C 1075.57 722.783 1071.61 726.603 1071.9 730.844 C 1072.18 735.088 1075.65 740.04 1072.89 744.281 C 1070.13 748.525 1067.94 748.664 1068.22 753.545 C 1068.5 758.427 1065.24 785.946 1065.09 797.404 C 1064.95 808.863 1066.23 826.686 1066.23 826.686 C 1066.23 826.686 1070.47 835.807 1089.14 842.385 C 1107.81 848.963 1106.05 848.89 1106.26 851.934 C 1106.47 854.976 1104.84 858.725 1085.61 860.068 C 1066.37 861.411 1021.98 859.649 1020.99 856.394 C 1020 853.14 1024.25 835.457 1024.25 832.064 L 1020.43 829.518 C 1020.43 829.518 1020.71 784.113 1020.29 779.305 C 1019.86 774.495 1019.16 735.598 1020.29 734.042 C 1021.42 732.485 1024.11 728.312 1024.11 727.179 C 1024.11 726.047 1020.78 722.438 1020.5 719.257 C 1020.22 716.075 1019.51 676.466 1019.51 676.466 C 1019.51 676.466 1008.12 720.675 1007.49 723.219 C 1006.85 725.763 1003.95 740.34 1003.67 745.996 C 1003.39 751.656 1006.22 751.517 1003.53 757.03 C 1000.84 762.546 1000.84 766.933 1000.28 780.371 C 999.711 793.808 993.202 843.454 992.354 850.103 C 991.508 856.752 990.66 862.835 990.66 862.835 C 990.66 862.835 985.848 868.916 981.746 869.906 C 981.746 869.906 981.961 885.538 980.758 891.268 C 979.557 896.996 970.572 900.035 949.142 899.258 C 927.713 898.482 931.673 888.509 931.248 882.779 C 930.825 877.051 931.248 870.474 931.248 870.474 C 931.248 870.474 927.149 868.989 926.652 868.423 C 926.158 867.855 925.379 850.247 928.916 842.89 C 932.453 835.533 931.107 837.445 932.875 820.68 C 934.644 803.918 943.84 773.151 945.891 766.857 C 947.941 760.565 947.941 756.601 947.728 755.401 C 947.518 754.198 943.414 751.583 945.96 745.64 C 948.507 739.697 949.426 739.204 953.245 721.098 C 957.065 702.993 960.813 625.191 960.813 625.191 C 960.813 625.191 954.949 613.742 940.235 605.325 C 940.235 605.325 943.913 594.571 957.987 575.971 C 957.987 575.971 953.187 567.769 938.192 555.958 C 923.198 544.149 908.418 521.376 905.941 516.851 C 903.465 512.327 902.333 511.901 904.384 509.143 C 906.434 506.384 908.983 503.555 908.7 501.575 C 908.414 499.593 907.284 496.908 910.182 493.512 C 913.083 490.117 915.345 480.357 915.134 476.891 C 914.923 473.425 913.931 469.605 916.973 463.595 C 920.014 457.583 932.818 382.544 933.666 378.585 C 934.516 374.624 936.708 375.615 947.528 371.443 C 958.349 367.271 961.603 365.998 961.603 365.998 L 971.645 354.326 L 970.304 334.741 C 970.304 334.741 968.604 329.436 967.969 327.314 C 967.334 325.194 965.635 323.428 965.635 316.498 C 965.635 309.569 965.635 302.709 966.272 301.009 C 966.909 299.311 970.795 286.442 979.071 275.477 C 987.348 264.513 994.139 261.264 996.472 260.201 C 998.804 259.138 998.167 262.18 998.167 262.18 C 998.167 262.18 1005.1 255.567 1008.49 254.613 C 1011.89 253.659 1010.51 256.947 1010.51 256.947 C 1010.51 256.947 1014.01 254.122 1015.99 253.907 C 1017.97 253.694 1017.16 258.998 1017.16 258.998 C 1017.16 258.998 1020.52 254.224 1022.08 253.871 C 1023.63 253.518 1022.52 259.869 1022.52 259.869 L 1022.52 259.869 Z " fill-rule="evenodd" fill="rgb(0,0,0)"/></svg>