<?xml version="1.0" encoding="UTF-8" standalone="no"?><!-- Generator: Gravit.io --><svg xmlns="http://www.w3.org/2000/svg" xmlns:xlink="http://www.w3.org/1999/xlink" style="isolation:isolate" viewBox="486.585 1024.638 260.942 696.613" width="260.942pt" height="696.613pt"><path d=" M 590.394 1143.49 C 590.394 1143.49 587.992 1138.11 590.961 1133.3 C 593.931 1128.49 602.066 1124.39 601.287 1118.17 C 600.509 1111.94 589.119 1108.76 586.716 1098.01 C 584.313 1087.26 593.224 1078.99 601.358 1072.48 C 609.49 1065.97 611.614 1065.26 612.886 1055.86 C 614.158 1046.45 616.35 1037.75 628.798 1034.29 C 641.246 1030.82 644.994 1035.34 644.994 1035.34 C 644.994 1035.34 651.29 1023.96 665.08 1024.67 C 678.87 1025.37 685.592 1036.69 687.853 1046.73 C 690.117 1056.78 689.267 1071.13 689.267 1071.13 C 689.267 1071.13 710.485 1080.26 711.333 1094.69 C 712.183 1109.11 699.806 1115.27 699.806 1115.27 C 699.806 1115.27 699.099 1118.24 701.856 1120.93 C 704.616 1123.62 701.999 1136.77 693.512 1138.11 C 693.512 1138.11 694.147 1143.77 701.08 1146.67 C 708.012 1149.57 707.728 1154.94 707.728 1154.94 C 707.728 1154.94 728.592 1160.39 733.969 1176.8 C 739.344 1193.2 738.074 1248.09 738.074 1248.09 C 738.074 1248.09 743.801 1253.96 744.226 1257.64 C 744.652 1261.32 741.185 1263.93 743.378 1266.9 C 745.569 1269.88 748.824 1272.99 746.984 1278.22 C 745.147 1283.46 734.043 1290.38 735.315 1298.31 C 736.587 1306.23 745.003 1320.16 745.498 1328.58 C 745.995 1336.99 739.558 1341.52 734.75 1342.44 C 734.75 1342.44 729.587 1398.88 719.687 1436.79 C 709.786 1474.7 708.087 1481.77 708.087 1512.6 C 708.087 1543.44 704.974 1579.93 699.6 1607.38 C 694.226 1634.82 692.671 1660.14 697.197 1675.84 C 701.722 1691.54 711.484 1710.21 716.575 1714.59 C 721.667 1718.98 714.029 1722.51 693.237 1720.82 C 672.443 1719.12 667.069 1715.02 666.502 1711.9 C 665.936 1708.79 666.784 1699.74 664.804 1690.69 C 662.824 1681.64 661.836 1667.21 665.229 1665.09 C 665.229 1665.09 667.49 1628.17 664.661 1591.96 C 661.833 1555.75 661.124 1529.16 661.973 1514.87 C 662.822 1500.58 666.357 1501.29 664.943 1491.53 C 663.531 1481.77 657.446 1445.56 657.446 1445.56 L 625.621 1445.28 C 625.621 1445.28 607.656 1486.87 606.384 1494.36 C 605.111 1501.86 607.232 1517.7 601.151 1534.53 C 595.07 1551.37 568.474 1584.04 557.3 1623.5 C 557.3 1623.5 550.655 1647.41 549.805 1657.45 C 548.957 1667.49 551.076 1668.48 550.085 1677.53 C 549.096 1686.59 545.133 1691.12 545.982 1699.32 C 545.982 1699.32 545.205 1700.45 543.155 1700.24 C 543.155 1700.24 542.802 1693.87 542.802 1691.89 C 542.802 1689.91 543.155 1687.08 542.024 1689.98 C 540.893 1692.88 533.889 1704.27 525.331 1708.8 C 516.774 1713.32 488.765 1709.5 487.211 1706.67 C 485.655 1703.85 486.787 1701.86 493.011 1696.35 C 499.233 1690.83 502.629 1690.69 508.568 1674.85 C 514.509 1659.01 523.563 1646.84 524.553 1642.88 C 525.543 1638.92 536.718 1583.47 540.394 1564.51 C 544.072 1545.56 552.56 1510.62 556.519 1500.72 C 560.481 1490.82 566.424 1477.95 570.807 1455.88 C 575.19 1433.82 585.943 1398.46 590.044 1383.74 C 594.145 1369.03 597.541 1350.5 597.541 1350.5 C 597.541 1350.5 585.093 1342.3 582.547 1340.6 C 580 1338.9 580.99 1331.83 583.819 1323.35 C 586.649 1314.86 591.458 1305.94 589.476 1300.43 C 587.497 1294.92 582.334 1292.87 582.194 1287.06 C 582.053 1281.26 584.74 1276.1 584.74 1276.1 C 584.74 1276.1 581.98 1273.06 579.858 1266.27 C 573.353 1245.45 552.309 1187.11 576.253 1171.15 C 584.527 1165.63 600.228 1162.66 600.228 1162.66 C 600.228 1162.66 595.878 1161.89 596.196 1159.16 C 596.514 1156.44 600.192 1155.38 602.632 1155.73 C 605.072 1156.09 607.055 1151.49 602.597 1149.36 C 598.141 1147.24 592.803 1150.07 590.394 1143.49 L 590.394 1143.49 Z " fill-rule="evenodd" fill="rgb(0,0,0)"/></svg>