<?xml version="1.0" encoding="UTF-8" standalone="no"?><!-- Generator: Gravit.io --><svg xmlns="http://www.w3.org/2000/svg" xmlns:xlink="http://www.w3.org/1999/xlink" style="isolation:isolate" viewBox="339.139 294.487 78.922 125.789" width="78.922pt" height="125.789pt"><g><path d=" M 403.694 330.481 C 405.069 325.324 403.395 318.904 403.395 318.904 C 393.191 292.699 356.078 299.688 348.063 314.068 C 343.68 321.932 345.106 327.705 344.892 329.477 C 344.772 330.471 345.994 332.193 345.994 332.193 C 346.37 332.642 346.475 333.435 346.226 333.967 C 346.226 333.967 344.459 339.877 339.818 344.45 C 338.414 345.833 339.24 349.231 341.819 349.231 L 343.065 349.231 C 343.65 349.231 344.356 351.418 344.114 351.951 L 343.493 353.341 C 343.252 353.875 343.402 354.634 343.827 355.037 L 345.352 356.485 C 345.352 356.485 344.565 357.242 344.565 358.386 C 344.565 359.532 346.44 358.873 345.18 361.736 C 344.456 363.381 344.585 365.144 345.849 366.843 C 347.347 368.861 353.834 370.407 358.439 368.938 C 365.834 366.582 364.048 372.424 365.694 374.768 C 368.555 378.851 367.508 382.521 366.456 386.555 L 407.363 368.911 C 392.81 358.713 402.319 335.638 403.694 330.481 Z " fill="#000000"/><path d=" M 403.046 317.415 L 407.644 318.346 C 407.644 318.346 401.623 313.134 401.742 313.021 L 406.245 313.154 L 400.189 309.761 L 405.944 308.977 C 405.944 308.977 397.27 305.482 397.016 305.384 L 399.163 303.654 C 399.163 303.654 393.443 303.548 392.419 303.343 L 397.569 300.294 C 397.569 300.294 389.193 300.661 388.676 300.658 L 390.706 297.879 C 390.706 297.879 382.758 298.417 381.642 298.804 C 381.639 298.792 381.638 298.781 381.634 298.768 L 383.547 294.798 C 383.547 294.798 377.734 298.124 377.324 298.47 L 376.572 294.487 C 376.572 294.487 372.308 298.519 372.155 299.097 L 371.54 295.033 C 371.54 295.033 368.526 300.203 368.449 300.572 L 368.715 295.904 L 363.791 300.326 L 363.634 297.319 L 359.907 303.008 C 359.907 303.008 359.113 299.877 358.879 299.831 L 355.495 304.702 L 355.961 300.455 L 352.552 306.566 L 352.857 302.822 C 352.857 302.822 349.258 311.196 349.169 311.505 L 347.712 306.368 L 346.013 315.818 C 346.101 319.7 347.135 322.894 348.923 324.813 C 354.32 330.473 363.51 328.724 365.526 328.111 C 365.998 328.133 395.909 330.567 399.369 332.389 L 402.291 333.928 L 402.1 318.159 L 405.565 320.397 C 405.565 320.397 403.303 317.617 403.046 317.415 Z " fill="#000000"/><path d=" M 410.537 373.277 L 403.596 362.844 C 403.596 362.844 388.183 364.704 374.549 376.148 C 368.833 380.947 363.861 385.959 361.155 396.231 C 361.155 396.231 383.403 377.68 410.537 373.277 Z " fill="#000000"/><path d=" M 417.651 420.276 C 419.873 411.912 412.599 375.499 407.078 371.09 L 366.361 389.265 C 366.361 389.265 361.028 406.409 357.906 420.276 L 417.651 420.276 Z " fill="#000000"/></g></svg>