<?xml version="1.0" encoding="UTF-8" standalone="no"?><!-- Generator: Gravit.io --><svg xmlns="http://www.w3.org/2000/svg" xmlns:xlink="http://www.w3.org/1999/xlink" style="isolation:isolate" viewBox="1238.848 341.646 251.481 557.731" width="251.481pt" height="557.731pt"><path d=" M 1266.31 549.638 C 1266.31 549.638 1260.58 548.433 1260.16 544.969 C 1259.73 541.505 1263.76 530.117 1269.92 509.394 C 1276.07 488.672 1274.8 479.757 1290.99 462.925 C 1307.19 446.093 1330.67 438.597 1330.67 438.597 C 1330.67 438.597 1330.81 433.506 1330.67 432.656 C 1330.53 431.808 1329.5 433.257 1327.66 431.206 C 1325.83 429.155 1326.14 425.23 1326.14 425.23 C 1326.14 425.23 1323.07 425.194 1322.86 419.96 C 1322.64 414.727 1323.99 413.736 1324.69 412.464 C 1325.4 411.19 1324.98 407.089 1324.98 407.089 C 1324.98 407.089 1322.15 408.289 1322.36 403.835 C 1322.57 399.381 1323.99 398.178 1323.49 396.693 C 1323 395.206 1322.22 392.166 1320.24 390.327 C 1318.26 388.487 1317.06 385.872 1317.83 381.416 C 1318.61 376.96 1321.23 376.392 1321.23 376.392 C 1321.23 376.392 1316.49 372.803 1315.6 369.37 C 1314.71 365.938 1315.74 362.118 1315.74 362.118 C 1315.74 362.118 1317.83 363.96 1321.61 362.544 C 1321.61 362.544 1320.13 359.183 1320.48 357.062 C 1320.83 354.94 1322.81 354.622 1322.81 354.622 C 1322.81 354.622 1322.64 352.109 1323.59 349.705 C 1326.95 355.056 1335.4 352.633 1341.85 349.697 C 1359.46 341.673 1378.75 334.978 1394.53 353.715 C 1394.53 353.715 1393.61 349.257 1393.54 347.701 C 1393.47 346.147 1395.16 347.951 1398.03 355.695 C 1398.03 355.695 1398.66 354.066 1400.5 353.29 C 1402.34 352.514 1400.54 356.473 1400.54 356.473 C 1400.54 356.473 1408.46 362.384 1410.37 366.981 C 1412.28 371.58 1409.45 386.509 1411.43 389.763 C 1413.41 393.014 1416.02 392.803 1416.02 392.803 C 1416.02 392.803 1412.35 396.197 1408.67 394.286 C 1408.67 394.286 1410.82 396.525 1410.54 399.247 C 1410.25 401.969 1410.46 403.103 1411.53 403.385 C 1412.59 403.667 1413.44 408.156 1412.52 410.598 C 1411.6 413.04 1408.7 413.537 1408.7 413.537 C 1408.7 413.537 1407.42 417.496 1409.05 420.962 C 1410.68 424.429 1411.74 424.853 1409.4 427.4 C 1407.07 429.946 1405.16 426.551 1405.16 426.551 C 1405.16 426.551 1404.52 433.765 1405.44 434.897 C 1406.36 436.029 1434.22 442.818 1456.29 462.622 C 1456.29 462.622 1465.05 471.252 1473.4 498.554 C 1481.74 525.853 1481.04 540.843 1480.75 542.826 C 1480.47 544.808 1476.93 545.799 1476.93 545.799 C 1476.93 545.799 1485.56 558.952 1488.68 587.667 C 1491.79 616.38 1487.68 615.247 1489.38 643.398 C 1491.08 671.547 1490.09 672.959 1489.52 677.204 C 1488.96 681.447 1484.15 684.066 1479.41 685.834 C 1474.67 687.603 1466.89 687.814 1466.89 687.814 C 1466.89 687.814 1464.63 708.328 1466.75 725.017 C 1468.87 741.708 1470.99 745.386 1466.33 752.174 C 1461.66 758.964 1460.24 766.035 1463.5 771.977 C 1466.75 777.918 1467.46 784.142 1463.64 789.941 C 1459.82 795.741 1460.67 794.893 1461.24 801.824 C 1461.8 808.755 1460.81 816.112 1463.36 821.343 C 1465.9 826.576 1464.91 829.972 1460.67 836.62 C 1456.43 843.269 1455.71 849.776 1456.28 856.707 C 1456.28 856.707 1461.3 867.03 1463.29 870.001 C 1465.27 872.971 1466.68 878.277 1466.61 883.864 C 1466.54 889.45 1466.25 891.428 1464.98 893.057 C 1463.71 894.684 1457.7 899.071 1440.44 899.353 C 1423.18 899.635 1418.23 897.372 1414.77 895.321 C 1411.3 893.27 1410.03 891.782 1409.96 891.218 C 1409.89 890.653 1409.88 870.299 1410.31 868.53 C 1410.73 866.761 1412 865.419 1412.22 863.862 C 1412.43 862.305 1411.65 856.858 1412.29 850.918 C 1412.29 850.918 1408.96 846.258 1404.22 843.074 C 1399.48 839.889 1397.99 838.832 1397.78 836.425 C 1397.57 834.02 1398.98 827.584 1393.04 823.764 C 1387.1 819.945 1384.63 818.459 1384.77 815.418 C 1384.91 812.377 1385.9 806.793 1382.5 801.627 C 1379.11 796.463 1371.76 780.972 1371.47 770.154 C 1371.47 770.154 1366.87 781.257 1367.79 789.463 C 1368.71 797.667 1370.55 799.293 1367.86 804.951 C 1365.18 810.609 1358.03 817.896 1359.8 825.959 C 1361.57 834.02 1359.02 840.172 1355.42 840.81 C 1355.42 840.81 1356.97 845.337 1356.97 848.165 C 1356.97 850.994 1358.88 849.44 1359.66 853.753 C 1360.43 858.065 1361.14 865.917 1360.65 868.604 C 1360.15 871.292 1348.2 879.85 1330.94 882.539 C 1313.69 885.227 1295.51 884.872 1288.08 882.89 C 1280.66 880.91 1280.58 879.286 1280.3 877.588 C 1280.02 875.89 1279.45 868.675 1280.23 867.402 C 1281.01 866.13 1283.27 865.493 1283.27 865.493 C 1283.27 865.493 1293.8 860.405 1299.04 853.05 C 1304.27 845.694 1303.14 844.351 1307.67 844.491 C 1307.67 844.491 1307.24 838.761 1307.74 837.136 C 1308.23 835.511 1309.43 835.511 1309.43 835.511 L 1309.01 831.337 C 1309.01 831.337 1305.62 831.264 1305.47 827.8 C 1305.33 824.335 1305.97 819.95 1303.07 817.121 C 1300.17 814.291 1294.16 806.935 1297.77 797.176 C 1301.37 787.416 1305.76 782.605 1304.2 772.774 C 1302.64 762.944 1293.45 758.345 1294.09 743.352 C 1294.73 728.357 1296.42 706.999 1295.01 701.695 C 1293.59 696.389 1291.47 693.348 1292.18 686.559 C 1292.89 679.769 1292.96 675.383 1292.18 674.393 C 1291.4 673.404 1287.3 674.042 1287.93 657.915 C 1287.93 657.915 1284.54 661.944 1284.47 667.25 C 1284.4 672.554 1282.49 675.525 1279.02 677.152 C 1275.56 678.779 1271.1 684.508 1270.54 688.539 C 1269.97 692.569 1266.44 694.194 1264.03 693.559 C 1261.62 692.924 1260.85 689.74 1260.85 689.74 C 1260.85 689.74 1257.45 693.561 1254.91 692.995 C 1252.36 692.429 1246.56 687.762 1243.38 683.588 C 1240.2 679.413 1238.78 675.245 1238.85 673.122 C 1238.92 670.998 1248.19 652.538 1250.95 642.001 C 1259.17 610.579 1253.54 587.642 1266.31 549.638 L 1266.31 549.638 Z " fill-rule="evenodd" fill="rgb(0,0,0)"/></svg>