<?xml version="1.0" encoding="UTF-8" standalone="no"?><!-- Generator: Gravit.io --><svg xmlns="http://www.w3.org/2000/svg" xmlns:xlink="http://www.w3.org/1999/xlink" style="isolation:isolate" viewBox="1644.17 287.88 216.26 611.497" width="216.26pt" height="611.497pt"><path d=" M 1730.25 388.745 C 1730.25 388.745 1728.55 366.821 1726.29 361.303 C 1724.02 355.786 1722.18 353.381 1718.93 349.28 C 1715.68 345.178 1716.66 334.99 1716.03 331.809 C 1715.39 328.627 1717.66 323.887 1720.98 326.433 C 1720.98 326.433 1719.5 306.35 1732.72 294.679 C 1736.68 291.187 1741.74 289.103 1747.07 288.282 L 1747.07 288.243 C 1748.74 288.006 1750.43 287.884 1752.13 287.88 L 1752.47 287.88 C 1754.17 287.884 1755.87 288.006 1757.53 288.243 L 1757.53 288.282 C 1762.86 289.101 1767.92 291.187 1771.88 294.679 C 1785.1 306.35 1783.62 326.433 1783.62 326.433 C 1786.94 323.887 1789.2 328.627 1788.57 331.809 C 1787.93 334.99 1788.92 345.178 1785.67 349.28 C 1782.42 353.381 1780.58 355.786 1778.31 361.303 C 1776.05 366.821 1774.35 388.745 1774.35 388.745 C 1782.92 397.015 1793.81 403.311 1805.13 411.515 C 1816.44 419.722 1825.42 419.718 1826.27 420.357 C 1827.12 420.994 1826.7 421.276 1826.7 426.582 C 1826.7 431.886 1828.25 438.602 1832.92 455.295 C 1837.59 471.988 1845.65 492.779 1852.44 517.391 C 1859.23 542.001 1855.83 554.874 1855.55 559.684 C 1855.27 564.493 1853.15 565.766 1848.62 568.312 C 1844.09 570.856 1834.05 576.235 1829.66 581.467 C 1825.28 586.699 1823.02 586.843 1823.02 586.843 C 1823.02 586.843 1824.29 593.491 1824.72 602.26 C 1825.14 611.03 1823.87 621.779 1826.41 632.247 C 1828.96 642.716 1828.96 646.111 1828.96 646.111 L 1819.2 651.627 C 1823.02 673.55 1821.53 684.083 1822.17 700.279 C 1822.8 716.475 1827.9 730.055 1834.69 740.805 C 1841.48 751.555 1838.58 755.869 1833.63 762.589 C 1828.68 769.307 1829.03 773.552 1829.03 773.552 C 1832.71 774.828 1835.68 776.875 1836.17 782.888 C 1836.67 788.903 1830.16 788.404 1829.6 793.286 C 1829.03 798.168 1832.57 800.006 1833.27 805.523 C 1833.98 811.04 1830.73 812.734 1830.73 812.734 C 1830.73 812.734 1830.8 824.192 1831.86 835.297 C 1832.92 846.402 1833.2 848.949 1836.81 854.819 C 1840.41 860.688 1841.69 861.748 1843.1 866.204 C 1844.52 870.662 1846.64 871.721 1852.79 875.754 C 1858.94 879.784 1859.3 884.451 1859.3 884.451 C 1859.3 884.451 1860.43 884.451 1860.43 888.556 C 1860.43 892.659 1860.15 896.477 1856.33 897.96 C 1852.51 899.445 1821.82 900.154 1813.33 898.104 C 1804.84 896.053 1802.72 890.252 1802.44 885.938 C 1802.15 881.625 1797.98 881.057 1795.93 878.796 C 1793.88 876.534 1794.94 871.439 1794.02 870.873 C 1793.1 870.306 1792.18 864.862 1794.45 859.557 C 1796.71 854.252 1795.5 851.495 1796.35 831.974 C 1797.2 812.452 1786.59 788.058 1786.59 788.058 C 1774.57 788.129 1771.38 772.99 1770.53 766.059 C 1769.69 759.13 1765.3 734.658 1765.3 734.658 C 1763.6 733.383 1760.78 729.283 1761.06 719.664 C 1761.34 710.047 1756.67 703.257 1755.26 693.781 C 1754.67 689.837 1753.57 687.263 1752.3 684.403 C 1751.03 687.263 1749.93 689.837 1749.34 693.781 C 1747.93 703.257 1743.26 710.047 1743.54 719.664 C 1743.82 729.283 1740.99 733.383 1739.3 734.658 C 1739.3 734.658 1734.91 759.13 1734.06 766.059 C 1733.22 772.99 1730.03 788.129 1718.01 788.058 C 1718.01 788.058 1707.4 812.452 1708.25 831.974 C 1709.09 851.495 1707.89 854.252 1710.15 859.557 C 1712.42 864.862 1711.5 870.306 1710.58 870.873 C 1709.66 871.439 1710.72 876.534 1708.67 878.796 C 1706.62 881.057 1702.44 881.625 1702.16 885.938 C 1701.88 890.252 1699.76 896.053 1691.27 898.104 C 1682.78 900.154 1652.09 899.445 1648.27 897.96 C 1644.45 896.477 1644.17 892.659 1644.17 888.556 C 1644.17 884.451 1645.3 884.451 1645.3 884.451 C 1645.3 884.451 1645.65 879.784 1651.81 875.754 C 1657.96 871.721 1660.08 870.662 1661.49 866.204 C 1662.91 861.748 1664.19 860.688 1667.79 854.819 C 1671.4 848.949 1671.68 846.402 1672.74 835.297 C 1673.8 824.192 1673.87 812.734 1673.87 812.734 C 1673.87 812.734 1670.62 811.04 1671.33 805.523 C 1672.03 800.006 1675.57 798.168 1675 793.286 C 1674.44 788.404 1667.93 788.903 1668.43 782.888 C 1668.92 776.875 1671.89 774.828 1675.57 773.552 C 1675.57 773.552 1675.92 769.307 1670.97 762.589 C 1666.02 755.869 1663.12 751.555 1669.91 740.805 C 1676.7 730.055 1681.8 716.475 1682.43 700.279 C 1683.07 684.083 1681.58 673.55 1685.4 651.627 L 1675.64 646.111 C 1675.64 646.111 1675.64 642.716 1678.19 632.247 C 1680.73 621.779 1679.46 611.03 1679.88 602.26 C 1680.31 593.491 1681.58 586.843 1681.58 586.843 C 1681.58 586.843 1679.32 586.699 1674.93 581.467 C 1670.55 576.235 1660.51 570.856 1655.98 568.312 C 1651.45 565.766 1649.33 564.493 1649.05 559.684 C 1648.76 554.874 1645.37 542.001 1652.16 517.391 C 1658.95 492.779 1667.01 471.988 1671.68 455.295 C 1676.35 438.602 1677.9 431.886 1677.9 426.582 C 1677.9 421.276 1677.48 420.994 1678.33 420.357 C 1679.18 419.718 1688.16 419.722 1699.47 411.515 C 1710.79 403.311 1721.68 397.015 1730.25 388.745 L 1730.25 388.745 Z " fill-rule="evenodd" fill="rgb(0,0,0)"/></svg>