<?xml version="1.0" encoding="UTF-8" standalone="no"?><!-- Generator: Gravit.io --><svg xmlns="http://www.w3.org/2000/svg" xmlns:xlink="http://www.w3.org/1999/xlink" style="isolation:isolate" viewBox="1270.55 1040.28 181.398 680.967" width="181.398pt" height="680.967pt"><path d=" M 1407.42 1166.85 L 1415.47 1164.58 C 1415.47 1164.58 1412.07 1157.41 1412.83 1135.9 C 1413.58 1114.39 1411.69 1087.97 1406.41 1071.62 C 1401.13 1055.26 1397.73 1052.24 1391.57 1052.75 C 1391.57 1052.75 1388.8 1044.69 1383.64 1041.93 C 1378.48 1039.16 1363.01 1040.29 1358.98 1042.3 C 1354.96 1044.32 1339.36 1055.64 1337.22 1059.41 C 1335.08 1063.19 1323.39 1101.31 1323.13 1119.8 C 1322.88 1138.29 1323.01 1147.72 1323.01 1147.72 C 1323.01 1147.72 1331.06 1157.54 1331.69 1159.93 C 1332.32 1162.32 1332.06 1167.1 1332.06 1167.1 C 1332.06 1167.1 1319.11 1174.52 1313.95 1178.55 C 1308.79 1182.57 1297.72 1190.12 1297.72 1190.12 C 1297.72 1190.12 1275.58 1237.91 1270.55 1283.45 L 1277.09 1288.49 C 1277.09 1288.49 1271.68 1332.89 1272.81 1360.32 C 1273.94 1387.74 1273.19 1404.6 1272.31 1418.69 C 1271.43 1432.78 1271.43 1441.71 1272.43 1444.73 C 1273.44 1447.75 1282.12 1458.57 1285.52 1460.2 C 1288.91 1461.84 1291.05 1460.2 1291.3 1458.69 C 1291.3 1458.69 1294.89 1458.38 1296.52 1457.12 C 1298.16 1455.86 1297.22 1449.38 1297.22 1449.38 C 1297.22 1449.38 1298.47 1447.87 1299.48 1446.18 C 1300.49 1444.48 1300.55 1442.15 1300.55 1442.15 C 1300.55 1442.15 1303 1441.14 1303.57 1438.31 C 1304.13 1435.48 1304.57 1422.27 1303.76 1419.69 C 1302.94 1417.12 1297.84 1411.39 1296.9 1394.6 C 1295.96 1377.8 1298.91 1359.12 1302 1348.49 C 1305.08 1337.86 1303.94 1313.96 1303.94 1313.96 L 1311.3 1318.92 C 1311.3 1318.92 1317.59 1341.7 1314.83 1359.56 C 1312.06 1377.42 1306.4 1390.01 1306.4 1390.01 L 1314.58 1397.55 C 1314.58 1397.55 1311.8 1459.7 1308.79 1487.88 C 1305.76 1516.06 1303 1523.1 1303 1529.64 C 1303 1536.18 1304.51 1538.45 1304.51 1538.45 L 1301.11 1548.77 L 1316.72 1558.52 C 1316.21 1582.87 1318.08 1621.95 1319.34 1635.49 C 1320.85 1651.71 1320.47 1655.11 1318.33 1663.29 C 1316.2 1671.46 1319.09 1674.99 1317.45 1678.01 C 1315.82 1681.03 1314.81 1698.01 1315.44 1703.67 C 1316.07 1709.33 1323.87 1717 1334.43 1720.27 C 1345 1723.54 1356.57 1717.76 1359.21 1715.24 C 1361.86 1712.73 1362.11 1707.95 1360.85 1696.25 C 1359.59 1684.55 1348.14 1668.07 1346.64 1665.68 C 1345.13 1663.29 1343.74 1643.79 1349.78 1614.6 C 1353.6 1596.12 1356.52 1577.23 1358.15 1565.86 C 1365.71 1566.15 1373.63 1565.81 1381.24 1564.36 L 1381.6 1564.29 C 1382.4 1571.37 1383.45 1579.71 1384.75 1588.69 C 1388.27 1613.02 1387.02 1630.95 1386.58 1640.89 C 1386.14 1650.83 1383.87 1659.45 1382.36 1662.28 C 1380.85 1665.11 1378.34 1676.24 1381.55 1679.89 C 1384.75 1683.54 1403.18 1691.03 1417.46 1695.5 C 1431.74 1699.96 1448.79 1695.75 1450.17 1694.87 C 1451.56 1693.99 1452.57 1692.6 1451.5 1686.88 C 1450.43 1681.15 1449.23 1682.91 1433.82 1671.78 C 1418.41 1660.64 1412.94 1647.88 1412.06 1646.12 C 1411.18 1644.36 1411.3 1640.33 1412.81 1618.7 C 1413.95 1602.36 1419.61 1573.4 1422.31 1560.2 C 1436.65 1559.68 1447.16 1560.08 1447.16 1560.08 C 1447.16 1560.08 1449.68 1468 1451.19 1452.4 C 1452.69 1436.8 1451.19 1396.04 1448.17 1367.11 C 1445.15 1338.17 1445.15 1316.28 1447.41 1290.62 C 1449.68 1264.96 1443.64 1241.68 1438.48 1220.17 C 1433.32 1198.66 1434.33 1184.57 1434.08 1182.68 C 1433.83 1180.8 1421.37 1177.65 1407.42 1166.85 L 1407.42 1166.85 Z " fill-rule="evenodd" fill="rgb(0,0,0)"/></svg>