<?xml version="1.0" encoding="UTF-8" standalone="no"?><!-- Generator: Gravit.io --><svg xmlns="http://www.w3.org/2000/svg" xmlns:xlink="http://www.w3.org/1999/xlink" style="isolation:isolate" viewBox="1567.899 1064.072 305.69 682.072" width="305.69pt" height="682.072pt"><path d=" M 1664.72 1173.44 C 1664.73 1175.61 1664.62 1178.88 1663.86 1179.46 C 1662.71 1180.34 1660.75 1178.98 1659.39 1179.8 C 1658.03 1180.61 1657.97 1182.78 1657.97 1182.78 C 1644.47 1180.46 1629.62 1187.95 1630.92 1203.45 C 1630.92 1203.45 1594.19 1224.6 1579.01 1246.56 C 1563.83 1268.51 1568.16 1278.68 1569.52 1280.71 C 1570.87 1282.75 1576.7 1293.73 1594.05 1294.81 C 1602.66 1295.35 1611.54 1294.61 1618.3 1293.74 C 1614.8 1311.82 1609.64 1341.05 1609.29 1357.62 C 1608.75 1382.83 1608.47 1398.55 1609.02 1400.45 C 1609.56 1402.35 1615.79 1408.04 1615.79 1408.04 C 1615.79 1408.04 1616.48 1428.65 1617.69 1430.54 C 1618.91 1432.44 1623.79 1431.63 1623.79 1431.63 C 1623.79 1431.63 1615.52 1512.54 1617.15 1535.31 C 1617.15 1535.31 1623.24 1534.1 1627.04 1536.4 C 1629.92 1538.15 1630.7 1539.98 1638.2 1540.64 C 1638.21 1546.99 1638.56 1553.42 1639.37 1558.47 C 1641.06 1569.05 1641.67 1590.19 1641.88 1594.05 C 1642.08 1597.92 1646.01 1596.63 1647.44 1599.95 C 1648.86 1603.27 1646.42 1608.22 1645.33 1610.18 C 1644.25 1612.15 1644.32 1616.42 1644.32 1616.42 C 1644.32 1616.42 1641.81 1616.82 1640.52 1620.15 C 1639.23 1623.47 1642.76 1626.65 1644.45 1629.63 C 1646.15 1632.62 1645.13 1639.73 1645.13 1639.73 C 1645.13 1639.73 1642.08 1638.44 1639.85 1642.04 C 1637.61 1645.63 1632.73 1654.98 1624.39 1667.38 C 1616.06 1679.79 1590.24 1688.67 1587.39 1694.29 C 1584.54 1699.92 1586.98 1706.96 1586.98 1706.96 C 1600.54 1714.56 1628.87 1714.42 1651.91 1705.34 C 1674.95 1696.26 1674 1688.8 1684.17 1687.99 C 1694.33 1687.17 1709.85 1682.43 1711.75 1679.32 C 1713.65 1676.2 1716.97 1664.27 1713.45 1655.94 C 1709.92 1647.6 1701.52 1644.55 1701.52 1644.55 C 1701.52 1644.55 1701.18 1643.13 1699.76 1635.26 C 1698.33 1627.4 1701.25 1617.51 1701.25 1617.51 C 1701.25 1617.51 1704.77 1617.92 1703.62 1612.29 C 1702.46 1606.66 1703.89 1595.75 1703.89 1595.75 C 1708.63 1595.62 1709.58 1588.71 1709.24 1580.03 C 1708.9 1571.36 1712.02 1568.44 1714.06 1565.59 C 1714.77 1564.6 1715.32 1562.23 1715.74 1559.57 C 1718.48 1559.53 1721.07 1559.6 1723.41 1559.98 C 1731.68 1561.34 1736.83 1561.47 1741.16 1558.76 C 1741.68 1558.44 1742.22 1558.19 1742.8 1558 C 1743.92 1560.98 1745.52 1564.24 1747.8 1567.36 C 1754.85 1576.98 1756.62 1586.74 1756.75 1595.28 C 1756.88 1603.82 1757.56 1606.12 1759.6 1610.19 C 1761.63 1614.26 1760.41 1619.27 1762.58 1621.3 C 1764.75 1623.34 1767.6 1622.93 1769.36 1626.32 C 1771.12 1629.71 1772.75 1644.35 1773.02 1651.8 C 1773.29 1659.26 1773.02 1660.48 1774.37 1663.73 C 1775.73 1666.98 1769.76 1669.28 1771.93 1675.52 C 1774.1 1681.76 1774.37 1693.95 1771.66 1700.32 C 1768.95 1706.7 1760.95 1715.64 1761.09 1722.96 C 1761.22 1730.28 1761.63 1732.85 1766.1 1736.92 C 1770.58 1740.99 1780.06 1745.87 1800.26 1746.14 C 1820.45 1746.41 1831.84 1734.75 1835.91 1727.16 C 1839.97 1719.57 1837.67 1688.4 1834.55 1676.2 C 1831.43 1664 1833.06 1661.56 1829.13 1655.6 C 1825.2 1649.63 1827.64 1647.46 1825.2 1645.02 C 1822.76 1642.58 1822.08 1645.16 1821.13 1637.84 C 1820.19 1630.52 1815.17 1633.37 1814.35 1626.86 C 1813.54 1620.35 1818.15 1620.35 1819.64 1618.19 C 1819.64 1618.19 1821 1610.73 1818.56 1603.82 C 1816.12 1596.91 1815.85 1593.52 1815.98 1582.81 C 1816.12 1572.1 1808.53 1571.56 1807.17 1556.11 C 1807.03 1554.48 1806.93 1552.96 1806.86 1551.54 C 1808.16 1551.29 1809.32 1551.12 1810.29 1551.04 C 1820.19 1550.22 1822.35 1549.68 1822.76 1548.33 C 1823.17 1546.97 1824.25 1524.6 1817.61 1507.66 C 1810.97 1490.72 1811.37 1486.11 1811.65 1466.32 C 1811.92 1446.53 1810.56 1446.8 1807.85 1439.21 C 1805.14 1431.62 1805.14 1422.95 1805.14 1422.95 C 1805.14 1422.95 1808.94 1422.61 1809.88 1419.29 C 1810.83 1415.97 1806.5 1412.65 1807.58 1408.17 C 1808.66 1403.7 1815.04 1397.13 1816.12 1388.79 C 1817.2 1380.45 1816.33 1373.07 1813.07 1355.04 C 1810.47 1340.61 1806.82 1322.53 1805.47 1303.65 C 1815.95 1305.13 1840.94 1308.13 1849.95 1304.42 C 1861.47 1299.68 1871.09 1289.92 1873.4 1283.14 C 1875.7 1276.37 1856.32 1248.17 1852.39 1242.48 C 1848.46 1236.79 1843.92 1241.06 1835.45 1226.62 C 1826.98 1212.19 1826.91 1199.78 1818.5 1189.82 C 1810.1 1179.86 1795.87 1182.03 1794.65 1181.49 C 1793.63 1181.03 1791.57 1174.72 1778.58 1171.71 C 1779.24 1169.68 1779.83 1166.99 1779.8 1163.93 C 1779.8 1163.93 1785.63 1164.95 1792.47 1160.34 C 1799.32 1155.73 1799.73 1151.26 1799.73 1151.26 C 1799.73 1151.26 1796.47 1151.12 1792.47 1149.63 C 1792.47 1149.63 1798.5 1145.84 1799.86 1140.28 C 1799.86 1140.28 1787.8 1139.12 1785.83 1132.82 C 1783.87 1126.52 1786.1 1118.46 1780.07 1117.85 C 1780.07 1117.85 1781.77 1107.34 1779.46 1102.46 C 1777.16 1097.58 1772.48 1094.26 1768.62 1094.8 C 1768.62 1094.8 1758.72 1075.42 1749.78 1068.78 C 1740.83 1062.14 1726.12 1066.34 1716.57 1071.76 C 1716.57 1071.76 1717.24 1066.2 1718.4 1064.51 C 1719.55 1062.81 1709.79 1065.87 1704.17 1077.11 C 1704.17 1077.11 1694.68 1076.43 1688.71 1076.71 C 1682.75 1076.98 1688.85 1077.72 1691.02 1079.76 C 1691.02 1079.76 1680.78 1082.2 1675.29 1089.59 C 1669.8 1096.97 1670.01 1106.19 1664.18 1109.65 C 1658.35 1113.1 1654.15 1110.39 1654.15 1110.39 C 1654.15 1110.39 1652.86 1116.35 1658.21 1117.44 C 1658.21 1117.44 1655.3 1119.2 1651.84 1118.59 C 1651.84 1118.59 1650.63 1127.47 1657 1128.89 C 1657 1128.89 1654.21 1135.33 1655.71 1139.67 C 1657.2 1144.01 1663.3 1146.38 1663.3 1146.38 C 1663.3 1146.38 1657.13 1149.77 1653.06 1147.26 C 1653.06 1147.26 1653.54 1153.9 1657.27 1155.39 C 1657.27 1155.39 1653.47 1156.41 1651.03 1154.72 C 1651.03 1154.72 1647.8 1171.43 1664.72 1173.44 L 1664.72 1173.44 Z " fill-rule="evenodd" fill="rgb(0,0,0)"/></svg>