<?xml version="1.0" encoding="UTF-8" standalone="no"?><!-- Generator: Gravit.io --><svg xmlns="http://www.w3.org/2000/svg" xmlns:xlink="http://www.w3.org/1999/xlink" style="isolation:isolate" viewBox="538.202 264.19 207.496 635.186" width="207.496pt" height="635.186pt"><path d=" M 661.902 688.874 C 661.902 688.874 670.036 704.507 671.802 708.749 C 673.571 712.991 673.641 717.165 673.641 718.084 C 673.641 719.004 674.635 720.63 677.179 721.338 C 679.723 722.046 685.879 722.612 685.879 722.612 C 685.879 722.612 686.301 733.573 694.011 752.528 C 701.72 771.482 711.624 830.398 711.551 833.653 C 711.479 836.908 709.582 840.304 710.925 843.771 C 712.268 847.237 713.682 850.842 713.682 850.842 C 713.682 850.842 708.236 869.659 702.084 877.437 C 695.932 885.218 695.082 889.318 696.99 891.51 C 698.901 893.705 716.087 898.443 721.957 899.292 C 727.828 900.142 741.267 894.341 743.389 891.867 C 745.51 889.39 746.287 866.616 745.228 860.11 C 744.167 853.601 741.974 845.258 741.974 843.136 C 741.974 841.015 743.245 836.486 742.609 833.8 C 741.974 831.114 739.355 826.798 738.082 819.372 C 736.811 811.946 733.909 779.696 733.626 760.319 C 733.345 740.94 727.26 721.986 727.26 721.986 C 727.26 721.986 734.332 721.915 735.819 720.642 C 737.304 719.371 738.08 715.76 738.01 713.638 C 737.939 711.517 728.536 679.904 728.255 673.539 C 727.973 667.172 728.397 665.192 723.587 656.421 C 723.587 656.421 722.596 644.681 721.324 641.005 C 720.052 637.327 719.344 638.598 712.413 618.372 C 705.482 598.145 695.441 561.793 695.016 558.258 C 694.591 554.72 694.872 550.899 694.591 548.354 C 694.308 545.81 691.479 543.829 691.479 541.283 C 691.479 538.735 696.077 532.865 694.591 524.449 C 693.104 516.032 687.734 509.605 690.563 492.914 C 693.392 476.224 698.771 468.018 700.607 465.191 C 702.443 462.361 704.567 459.813 704.567 458.681 C 704.567 457.551 704.567 453.873 704.567 453.873 C 704.567 453.873 714.184 442.984 719.418 432.94 C 724.653 422.896 732.858 411.725 733.708 398.429 C 734.557 385.134 725.221 372.544 716.451 371.696 C 707.682 370.845 705.278 374.523 690.85 369.432 C 690.85 369.432 689.153 362.218 689.293 358.824 C 689.293 358.824 691.346 355.923 691.205 353.307 C 691.063 350.69 689.366 347.012 689.577 339.019 C 689.789 331.028 692.123 329.541 691.628 324.801 C 691.135 320.062 687.386 314.123 687.386 314.123 C 687.386 314.123 686.254 301.181 682.717 293.966 C 679.182 286.751 677.906 287.393 677.906 287.393 C 677.906 287.393 676.634 280.462 672.814 278.623 C 668.995 276.783 665.6 279.611 663.62 278.057 C 661.639 276.501 660.865 273.459 658.036 272.966 C 655.206 272.471 653.933 273.742 653.933 273.742 C 653.933 273.742 653.441 271.266 651.389 269.923 C 649.335 268.581 644.95 270.63 641.485 269.357 C 641.485 269.357 638.091 263.984 633.564 264.196 C 629.036 264.406 628.26 269.502 628.26 269.502 C 628.26 269.502 622.317 269.288 620.832 272.33 C 619.347 275.371 620.126 277.351 620.126 277.351 C 620.126 277.351 615.74 278.623 615.173 282.442 C 614.609 286.261 615.741 287.888 615.741 287.888 C 615.741 287.888 611.567 291.496 612.982 295.245 C 614.398 298.993 615.599 300.054 615.599 300.054 C 615.599 300.054 614.043 312.572 613.902 317.311 C 613.762 322.05 617.863 335.633 620.69 343.056 C 623.52 350.482 637.382 370.499 637.382 370.499 C 637.382 370.499 629.473 377.159 624.946 377.863 C 620.421 378.569 601.466 382.461 596.797 386.705 C 592.129 390.947 583.293 400.988 578.058 411.596 C 572.824 422.205 567.59 419.871 551.323 433.734 C 535.057 447.598 537.817 469.66 539.513 472.633 C 541.209 475.606 551.603 482.818 556.556 483.738 C 561.509 484.657 567.803 481.051 571.692 479.708 C 575.582 478.365 581.381 482.535 581.381 482.535 C 581.381 482.535 580.116 552.215 580.116 556.245 C 580.116 560.276 583.438 560.557 583.438 560.557 C 583.438 560.557 584.014 603.702 587.126 616.432 C 590.238 629.162 588.966 643.306 587.834 657.31 C 586.704 671.315 590.239 683.692 588.895 688.57 C 587.55 693.45 586.207 696.703 586.49 699.531 C 586.49 699.531 594.13 706.259 598.939 707.532 C 603.748 708.803 609.689 709.018 609.689 709.018 C 609.689 709.018 612.457 767.08 613.305 784.619 C 614.154 802.158 611.607 822.101 606.658 829.174 C 601.706 836.248 580.985 852.23 576.67 853.433 C 572.354 854.633 563.444 856.546 561.464 859.021 C 559.484 861.494 562.596 867.86 567.545 869.558 C 572.496 871.256 597.108 872.81 607.647 870.051 C 618.184 867.293 643.788 856.193 646.758 853.291 C 649.729 850.389 647.536 839.286 642.09 833.274 C 636.644 827.263 636.857 811.702 637.352 804.7 C 637.846 797.698 642.158 774.084 647.817 757.816 C 653.475 741.549 656.445 716.515 656.304 710.432 C 656.304 710.432 660.477 709.649 661.326 707.883 C 662.172 706.116 662.387 699.183 661.902 688.874 L 661.902 688.874 Z " fill-rule="evenodd" fill="rgb(0,0,0)"/></svg>