<?xml version="1.0" encoding="UTF-8" standalone="no"?><!-- Generator: Gravit.io --><svg xmlns="http://www.w3.org/2000/svg" xmlns:xlink="http://www.w3.org/1999/xlink" style="isolation:isolate" viewBox="5049.84 131.258 612.31 1768.939" width="612.31pt" height="1768.939pt"><path d=" M 5147.51 822.241 L 5147.52 822.207 L 5158 659.352 C 5158.1 659.326 5158.2 659.302 5158.3 659.275 L 5161.99 676.891 C 5161.99 676.891 5164.79 683.446 5167.63 692.212 C 5166.22 703.594 5165.75 712.788 5167.98 716.153 C 5169.6 718.582 5171.3 723.038 5172.76 728.569 C 5172.35 730.153 5171.78 731.574 5170.98 732.764 C 5161.91 746.341 5175.47 767.495 5175.47 767.495 L 5172.34 779.27 C 5172.34 779.27 5172.34 779.27 5172.34 779.271 C 5166.95 789.365 5162.91 800.119 5160.32 811.261 C 5160.32 811.261 5154.27 809.76 5147.51 822.241 Z  M 5414.99 885.387 C 5410.5 869.111 5406.08 854.889 5403.29 846.198 C 5418.7 844.504 5422.57 815.345 5407.95 790.425 C 5392.88 764.74 5411.14 653.038 5411.14 653.038 L 5413.03 634.122 C 5413.69 634.248 5414.35 634.375 5415.03 634.496 L 5445.71 781.412 L 5414.99 885.387 Z  M 5661.8 1867.22 C 5661.8 1867.22 5652.77 1841.54 5624.08 1839.99 C 5597.86 1838.58 5540.2 1747.54 5529.38 1713.48 C 5533.94 1710.29 5537.99 1706.22 5541.21 1700.99 L 5512.8 1476 C 5512.8 1476 5496.25 1432.19 5502.31 1409.55 C 5508.38 1386.92 5491.79 1370.29 5491.79 1370.29 L 5430.28 1051.65 C 5430.28 1051.65 5412.21 1015.39 5427.34 988.231 C 5428.75 985.699 5429.66 982.324 5430.16 978.289 C 5441.28 956.787 5482.2 876.749 5493.95 840.352 C 5507.59 798.095 5503.09 772.423 5503.09 772.423 L 5476.73 622.415 C 5478.72 620.346 5480.55 618.031 5482.14 615.378 C 5504.84 577.662 5427.95 485.471 5427.95 485.471 L 5427.95 485.471 C 5427.95 485.471 5406.92 484.901 5389.03 482.842 L 5389.03 482.842 L 5389.03 482.841 C 5388.36 482.764 5387.69 482.684 5387.03 482.602 C 5386.21 482.5 5385.39 482.396 5384.59 482.288 C 5383.87 482.19 5383.16 482.089 5382.45 481.986 C 5381.63 481.865 5380.83 481.738 5380.04 481.609 C 5378.93 481.428 5377.86 481.237 5376.82 481.04 C 5376.08 480.896 5375.35 480.751 5374.66 480.599 C 5373.61 480.37 5372.62 480.129 5371.7 479.879 C 5370.05 479.432 5368.6 478.954 5367.45 478.438 C 5366.08 477.827 5365.12 477.164 5364.64 476.45 C 5364.61 476.411 5364.57 476.374 5364.55 476.335 C 5364.09 475.572 5363.5 474.885 5362.79 474.267 C 5361.53 473.158 5359.92 472.281 5358.17 471.571 C 5356.98 471.094 5355.74 470.688 5354.48 470.359 C 5350.36 469.365 5346.15 468.828 5341.91 468.758 C 5341.53 469.64 5341.13 470.469 5340.73 471.314 C 5334.56 468.759 5326.05 462.958 5321.88 449.962 C 5374.49 431.748 5412.29 381.796 5412.29 322.985 C 5412.29 273.616 5385.65 230.493 5345.98 207.135 C 5347.96 201.327 5349.04 195.108 5349.04 188.63 C 5349.04 156.945 5323.36 131.258 5291.67 131.258 C 5259.99 131.258 5234.3 156.945 5234.3 188.63 C 5234.3 191.04 5234.47 193.409 5234.76 195.741 C 5181.73 213.726 5143.55 263.88 5143.55 322.985 C 5143.55 380.821 5180.09 430.114 5231.35 449.056 C 5229.58 464.537 5224.51 480.862 5212.13 490.411 C 5210.04 488.191 5209.03 486.714 5209.03 486.714 L 5175.78 497.137 L 5169.97 498.959 L 5145.59 506.596 L 5145.59 506.597 L 5127.47 512.282 L 5127.47 512.282 C 5127.47 512.282 5079.1 551.478 5085.03 645.092 C 5085.03 645.092 5086.05 647.118 5090.78 649.895 L 5087.89 780.977 L 5049.84 1028.54 C 5049.84 1028.54 5051.19 1156.87 5090.44 1164.47 C 5129.68 1172.06 5090.61 1027.08 5090.61 1027.08 L 5100.08 992.969 C 5097.55 1013.65 5097.71 1032.92 5102.66 1048.23 C 5120.71 1104.11 5179.16 1460.49 5179.16 1460.49 L 5218.13 1694.56 C 5218.13 1694.56 5226.68 1696.15 5238.64 1697.04 L 5245.19 1783.67 C 5245.19 1783.67 5190.73 1880.23 5248.1 1878.79 C 5305.47 1877.35 5310.01 1871.32 5310.01 1871.32 L 5310.05 1841.12 L 5310.12 1776.2 L 5295.83 1689.81 C 5299.61 1687.87 5302.97 1685.5 5305.71 1682.59 L 5284.91 1407.78 L 5270.17 1108.82 C 5270.17 1108.82 5370.98 1398.83 5386.06 1407.9 L 5447.59 1715.98 C 5447.59 1715.98 5456.37 1719.03 5468.75 1721.22 C 5472 1735.26 5475.77 1759.65 5468.65 1777.9 C 5458.05 1805.07 5453.44 1868.47 5460.99 1869.99 C 5468.54 1871.51 5504.76 1879.1 5504.76 1879.1 C 5504.76 1879.1 5592.29 1909.41 5630.05 1897.37 C 5667.81 1885.34 5661.8 1867.22 5661.8 1867.22 Z " fill="rgb(0,0,0)"/></svg>