<?xml version="1.0" encoding="UTF-8" standalone="no"?><!-- Generator: Gravit.io --><svg xmlns="http://www.w3.org/2000/svg" xmlns:xlink="http://www.w3.org/1999/xlink" style="isolation:isolate" viewBox="4311.088 120.157 697.585 1764.845" width="697.585pt" height="1764.845pt"><path d=" M 4828.43 782.583 C 4828.43 782.583 4816.38 782.021 4804.62 787.988 C 4800.12 764.84 4800.38 743.875 4810.07 730.728 C 4834.14 698.061 4855.73 649.314 4865.96 624.534 C 4889.69 641.928 4916.52 670.434 4925.16 675.393 C 4926.77 676.316 4928.97 676.747 4931.59 676.777 C 4905.22 710.975 4828.43 782.583 4828.43 782.583 Z  M 4516.33 782.583 C 4516.33 782.583 4428.88 710.974 4398.86 676.777 C 4401.84 676.747 4404.35 676.316 4406.18 675.393 C 4417.34 669.766 4455.17 633.835 4484.25 618.212 C 4494.94 637.258 4519.87 682.849 4541.06 730.728 C 4547.37 744.992 4546.71 765.443 4542.47 787.563 C 4529.4 782.045 4516.33 782.583 4516.33 782.583 Z  M 4992.7 646.881 C 4994.77 644.407 4996.24 641.971 4996.88 639.664 C 5001.89 621.799 4908.49 529.923 4906.82 527.371 C 4905.93 526.006 4888.36 505.689 4872.2 487.067 L 4872.2 455.911 C 4872.2 455.911 4819.63 439.183 4802.9 436.793 C 4799.05 436.245 4793.94 433.409 4788.3 429.418 L 4788.3 245.834 C 4788.3 245.834 4783.4 128.342 4670.81 120.183 C 4670.81 120.183 4550.05 115.287 4546.79 239.307 C 4544.61 321.893 4545.33 396.505 4546.06 437.15 C 4527.4 440.491 4478.93 455.911 4478.93 455.911 L 4478.93 474.49 C 4458.53 495.096 4428.32 525.686 4427.07 527.371 C 4425.17 529.923 4318.81 621.799 4324.51 639.664 C 4325.25 641.971 4326.91 644.407 4329.27 646.881 C 4316.36 664.291 4300.54 692.464 4320.71 706.019 C 4351.1 726.436 4480.24 823.417 4480.24 823.417 C 4480.24 823.417 4500.55 844.038 4521.68 856.074 C 4508.84 889.14 4495.66 914.736 4495.66 914.736 C 4495.82 927.066 4497.61 938.147 4500.78 948.103 C 4499.88 948.161 4499.4 948.192 4499.4 948.192 C 4499.4 948.192 4468.34 1117.86 4485.06 1213.45 C 4493.86 1266.61 4493.48 1320.83 4484.03 1373.77 C 4474.77 1374.62 4468.03 1377.39 4465.95 1383.12 C 4456.39 1409.41 4458.78 1703.34 4461.17 1722.46 C 4463.56 1741.58 4470.73 1732.02 4463.56 1741.58 C 4456.39 1751.14 4456.39 1729.63 4458.78 1755.92 C 4461.17 1782.2 4463.56 1786.98 4463.56 1786.98 C 4463.56 1786.98 4420.54 1887.35 4497.01 1884.96 C 4573.48 1882.57 4537.64 1810.88 4537.64 1810.88 C 4537.64 1810.88 4549.59 1789.37 4542.42 1777.42 C 4535.25 1765.47 4532.86 1746.36 4542.42 1736.8 C 4551.98 1727.24 4532.86 1708.12 4530.47 1700.95 C 4528.08 1693.78 4520.91 1696.17 4540.03 1672.28 C 4559.15 1648.38 4549.59 1636.43 4547.2 1629.26 C 4544.81 1622.09 4563.93 1579.08 4563.93 1579.08 L 4583.04 1392.68 C 4583.04 1392.68 4580.25 1391.75 4575.55 1390.3 C 4586.33 1328.62 4636.91 1048.82 4666.68 1050.95 C 4695.9 1053.04 4754.28 1323.03 4768.6 1391.41 C 4766.09 1392.21 4764.66 1392.68 4764.66 1392.68 L 4783.78 1579.08 C 4783.78 1579.08 4802.9 1622.09 4800.51 1629.26 C 4798.12 1636.43 4788.56 1648.38 4807.68 1672.28 C 4826.79 1696.17 4819.63 1693.78 4817.24 1700.95 C 4814.85 1708.12 4795.73 1727.24 4805.29 1736.8 C 4814.85 1746.36 4812.46 1765.48 4805.29 1777.42 C 4798.12 1789.37 4810.07 1810.88 4810.07 1810.88 C 4810.07 1810.88 4774.22 1882.57 4850.69 1884.96 C 4927.16 1887.35 4884.15 1786.98 4884.15 1786.98 C 4884.15 1786.98 4886.54 1782.2 4888.93 1755.92 C 4891.32 1729.63 4891.32 1751.14 4884.15 1741.58 C 4876.98 1732.02 4884.15 1741.58 4886.54 1722.46 C 4888.93 1703.34 4891.32 1409.41 4881.76 1383.12 C 4880.09 1378.52 4875.41 1375.83 4868.84 1374.51 C 4861.21 1331.66 4844.12 1224.99 4855.47 1187.16 C 4867.39 1147.44 4862.79 1021.9 4840.33 969.644 C 4849.69 954.903 4855.17 936.816 4855.47 914.736 C 4855.47 914.736 4840.35 888.151 4826.15 854.453 C 4843.81 842.279 4860.12 823.417 4860.12 823.417 C 4860.12 823.417 4973.53 726.436 5000.22 706.019 C 5017.94 692.465 5004.04 664.292 4992.7 646.881 Z " fill="rgb(0,0,0)"/></svg>