<?xml version="1.0" encoding="UTF-8" standalone="no"?><!-- Generator: Gravit.io --><svg xmlns="http://www.w3.org/2000/svg" xmlns:xlink="http://www.w3.org/1999/xlink" style="isolation:isolate" viewBox="2861.083 120.157 749.464 1765.235" width="749.464pt" height="1765.235pt"><path d=" M 3449.47 846.778 C 3449.47 846.778 3417.72 880.102 3411.35 905.944 C 3394.67 874.544 3342.5 769.309 3370.82 730.864 C 3398.83 692.858 3423.47 633.121 3430.77 614.631 C 3454.72 634.248 3479.73 661.971 3483.67 664.808 C 3489.77 669.213 3515.59 721.087 3531.5 726.274 C 3532.46 726.588 3533.52 726.768 3534.67 726.84 L 3537.75 737.967 L 3449.47 846.778 Z  M 3018.17 850.515 L 2933.93 732.251 L 2937.45 720.905 C 2938.6 720.901 2939.67 720.78 2940.65 720.514 C 2956.79 716.118 2984.69 663.926 2990.98 659.736 C 2995.25 656.891 3024.05 626.835 3049.92 608.006 C 3049.03 620.529 3048.16 652.772 3055.31 711.742 C 3064.87 790.62 3093.56 838.425 3060.09 871.889 C 3053.8 878.184 3049.7 886.171 3047.31 895.085 C 3036.56 872.522 3018.17 850.515 3018.17 850.515 Z  M 3599.28 695.877 C 3600.45 695.118 3601.51 694.436 3602.41 693.874 C 3615.06 685.928 3537.84 583.498 3539.26 579.134 C 3540.68 574.77 3476.23 510.298 3477.65 505.934 C 3479.07 501.57 3446.85 469.333 3446.85 469.333 L 3432.97 458.201 L 3432.97 455.986 C 3432.97 455.986 3380.39 439.254 3363.65 436.864 C 3359.81 436.314 3354.69 433.479 3349.05 429.487 L 3349.05 245.862 C 3349.05 245.862 3344.15 128.343 3231.53 120.183 C 3231.53 120.183 3110.75 115.286 3107.48 239.333 C 3105.29 322.696 3106.05 397.894 3106.78 438.29 C 3091.18 441.196 3061.83 442.157 3053.07 446.229 L 3053.07 446.229 L 3053.07 446.229 C 3052 446.73 3051.24 447.28 3050.85 447.886 L 3035.49 459.336 C 3035.49 459.336 3001.94 490.771 3003.19 495.383 C 3004.45 499.996 2987.04 527.033 2978.02 539.399 C 2969 551.765 2937.34 562.865 2938.6 567.478 C 2939.86 572.09 2858.48 673.529 2870.85 682.547 C 2871.72 683.185 2872.76 683.956 2873.9 684.816 C 2863.62 703.789 2853.78 730.814 2868.73 747.534 C 2893.67 775.424 2972.25 872.932 2972.25 872.932 C 2972.25 872.932 3004.72 955.749 3042.67 940.458 C 3044.04 939.907 3045.24 939.257 3046.36 938.557 C 3048.35 951.039 3051.87 963.169 3055.94 973.504 C 3048.09 1024.31 3032.96 1140.63 3045.75 1213.69 C 3054.55 1266.86 3054.17 1321.09 3044.71 1374.06 C 3035.45 1374.9 3028.71 1377.67 3026.63 1383.4 C 3017.07 1409.69 3019.46 1703.69 3021.85 1722.82 C 3024.24 1741.94 3031.41 1732.38 3024.24 1741.94 C 3017.07 1751.5 3017.07 1729.99 3019.46 1756.28 C 3021.85 1782.57 3024.24 1787.35 3024.24 1787.35 C 3024.24 1787.35 2981.21 1887.74 3057.7 1885.35 C 3134.19 1882.96 3098.34 1811.25 3098.34 1811.25 C 3098.34 1811.25 3110.29 1789.74 3103.12 1777.79 C 3095.95 1765.84 3093.56 1746.72 3103.12 1737.16 C 3112.68 1727.6 3093.56 1708.47 3091.17 1701.3 C 3088.77 1694.13 3081.6 1696.52 3100.73 1672.62 C 3119.85 1648.72 3110.29 1636.77 3107.9 1629.6 C 3105.51 1622.43 3124.63 1579.4 3124.63 1579.4 L 3143.75 1392.96 C 3143.75 1392.96 3140.95 1392.03 3136.25 1390.59 C 3147.04 1328.9 3197.63 1049.03 3227.41 1051.16 C 3256.63 1053.24 3315.03 1323.31 3329.35 1391.69 C 3326.86 1392.48 3325.41 1392.96 3325.41 1392.96 L 3344.53 1579.4 C 3344.53 1579.4 3363.65 1622.43 3361.26 1629.6 C 3358.87 1636.77 3349.31 1648.72 3368.43 1672.62 C 3387.55 1696.52 3380.38 1694.13 3377.99 1701.3 C 3375.6 1708.47 3356.48 1727.6 3366.04 1737.16 C 3375.6 1746.72 3373.21 1765.84 3366.04 1777.79 C 3358.87 1789.74 3370.82 1811.25 3370.82 1811.25 C 3370.82 1811.25 3334.97 1882.96 3411.46 1885.35 C 3487.95 1887.74 3444.92 1787.35 3444.92 1787.35 C 3444.92 1787.35 3447.31 1782.57 3449.7 1756.28 C 3452.09 1729.99 3452.09 1751.5 3444.92 1741.94 C 3437.75 1732.38 3444.92 1741.94 3447.31 1722.82 C 3449.7 1703.69 3452.09 1409.69 3442.53 1383.4 C 3440.86 1378.81 3436.16 1376.15 3429.61 1374.82 C 3421.99 1331.98 3404.88 1225.25 3416.24 1187.4 C 3428.16 1147.67 3423.56 1022.09 3401.09 969.829 C 3408.59 958.018 3413.55 944.026 3415.4 927.587 C 3417.06 929.232 3419.11 930.69 3421.72 931.875 C 3458.92 948.838 3494.34 871.068 3494.34 871.068 C 3494.34 871.068 3576.22 781.895 3602.09 756.534 C 3617.6 741.331 3608.81 714.743 3599.28 695.877 Z " fill="rgb(0,0,0)"/></svg>