<?xml version="1.0" encoding="UTF-8" standalone="no"?><!-- Generator: Gravit.io --><svg xmlns="http://www.w3.org/2000/svg" xmlns:xlink="http://www.w3.org/1999/xlink" style="isolation:isolate" viewBox="1428.974 120.156 726.221 1771.18" width="726.221pt" height="1771.18pt"><path d=" M 1951.65 665.805 L 2005.37 1074.57 L 1977.79 1172.14 C 1977.16 1174.39 1976.76 1176.64 1976.5 1178.9 L 1933.97 1036.67 C 1901.61 920.437 1916.34 795.109 1951.65 665.805 Z  M 2144.48 1740.64 L 2127.85 1697.86 L 2124.56 1699.34 L 2086.02 1570.88 L 2093.05 1568.61 L 1986.38 1211.93 C 1991.78 1218.34 1999.08 1223.27 2007.76 1225.72 C 2010.24 1226.42 2012.79 1226.9 2015.36 1227.15 C 2039.22 1229.48 2060.45 1212.02 2062.78 1188.16 C 2063.01 1185.72 2063.04 1183.27 2062.87 1180.83 L 2055.14 1073.47 L 2041.69 623.013 C 2038.47 591.143 2014.19 565.44 1982.55 560.422 L 1972.88 558.887 L 1921.54 544.512 L 1921.43 544.527 C 1904.45 525.381 1895.52 495.3 1891.01 473.216 C 1942.32 452.998 1979.01 403.543 1980.25 345.127 L 1980.25 345.127 C 1980.29 344.146 1980.29 343.121 1980.29 342.139 L 1980.29 342.139 L 1980.29 342.139 C 1980.29 311.22 1970.3 282.647 1953.42 259.415 C 1960.94 256.292 1968.09 251.922 1974.46 246.123 C 2004.09 219.149 2006.24 173.262 1979.27 143.631 C 1990.08 162.259 1992.06 184.727 1984.66 204.956 C 1978.22 222.596 1965.64 236.221 1950.22 244.304 C 1963.51 231.151 1971.75 212.904 1971.75 192.728 C 1971.75 152.647 1939.26 120.156 1899.18 120.156 C 1859.1 120.156 1826.61 152.647 1826.61 192.728 C 1826.61 195.805 1826.82 198.831 1827.2 201.808 C 1826.7 201.851 1826.2 201.893 1825.7 201.941 C 1824.67 202.04 1823.65 202.174 1822.63 202.295 C 1821.43 202.439 1820.23 202.579 1819.03 202.752 C 1817.9 202.917 1816.77 203.111 1815.64 203.303 C 1814.59 203.483 1813.53 203.664 1812.48 203.868 C 1811.28 204.099 1810.1 204.354 1808.91 204.616 C 1807.96 204.827 1807 205.044 1806.06 205.274 C 1804.82 205.576 1803.58 205.893 1802.36 206.227 C 1801.49 206.462 1800.63 206.708 1799.78 206.96 C 1798.5 207.334 1797.23 207.718 1795.97 208.126 C 1795.19 208.379 1794.41 208.647 1793.64 208.913 C 1792.33 209.362 1791.03 209.817 1789.74 210.304 C 1789.05 210.563 1788.37 210.841 1787.69 211.11 C 1786.34 211.644 1784.99 212.179 1783.66 212.752 C 1783.11 212.99 1782.57 213.248 1782.03 213.492 C 1780.59 214.133 1779.16 214.774 1777.75 215.461 C 1777.62 215.522 1777.5 215.591 1777.37 215.653 C 1773.86 217.381 1770.42 219.246 1767.08 221.25 C 1766.98 221.311 1766.87 221.366 1766.77 221.427 C 1765.69 222.083 1764.63 222.777 1763.56 223.461 C 1762.78 223.958 1762 224.443 1761.23 224.955 C 1760.32 225.566 1759.43 226.205 1758.53 226.836 C 1757.63 227.467 1756.73 228.092 1755.85 228.742 C 1755.04 229.338 1754.25 229.956 1753.45 230.57 C 1752.51 231.299 1751.56 232.031 1750.64 232.784 C 1749.91 233.373 1749.2 233.975 1748.49 234.578 C 1747.51 235.401 1746.55 236.232 1745.6 237.081 C 1744.95 237.659 1744.31 238.244 1743.68 238.833 C 1742.69 239.751 1741.71 240.683 1740.74 241.629 C 1740.17 242.192 1739.6 242.757 1739.04 243.33 C 1738.04 244.345 1737.06 245.378 1736.09 246.424 C 1735.59 246.966 1735.08 247.505 1734.59 248.055 C 1733.58 249.177 1732.6 250.32 1731.63 251.475 C 1731.2 251.984 1730.76 252.488 1730.34 253.003 C 1729.32 254.252 1728.33 255.527 1727.35 256.812 C 1727 257.263 1726.65 257.706 1726.31 258.161 C 1725.25 259.585 1724.23 261.037 1723.22 262.503 C 1722.99 262.848 1722.74 263.183 1722.5 263.53 C 1720.05 267.174 1717.76 270.939 1715.64 274.822 C 1715.28 275.491 1714.95 276.178 1714.59 276.853 C 1713.94 278.089 1713.29 279.323 1712.68 280.581 C 1712.19 281.592 1711.73 282.624 1711.27 283.649 C 1710.84 284.586 1710.4 285.517 1709.99 286.465 C 1709.48 287.651 1709.01 288.854 1708.53 290.055 C 1708.21 290.861 1707.88 291.663 1707.57 292.477 C 1707.08 293.778 1706.63 295.094 1706.17 296.414 C 1705.92 297.148 1705.67 297.879 1705.43 298.619 C 1704.98 300.003 1704.56 301.4 1704.15 302.803 C 1703.95 303.502 1703.75 304.201 1703.55 304.904 C 1703.16 306.337 1702.8 307.778 1702.45 309.229 C 1702.28 309.941 1702.11 310.655 1701.95 311.373 C 1701.63 312.805 1701.33 314.244 1701.06 315.692 C 1700.91 316.493 1700.77 317.298 1700.63 318.104 C 1700.39 319.459 1700.17 320.816 1699.98 322.184 C 1699.93 322.505 1699.87 322.821 1699.82 323.143 L 1699.82 323.143 C 1699.83 323.161 1699.84 323.179 1699.85 323.197 C 1699.01 329.396 1698.54 335.711 1698.54 342.139 C 1698.54 389.891 1722.32 432.064 1758.67 457.541 C 1768.82 474.284 1784.85 487.069 1803.89 493.048 C 1813.6 529 1797.53 551.214 1779.08 564.424 C 1765.07 564.578 1751.61 568.303 1739.79 574.926 C 1718.85 577.713 1699.66 589.839 1688.38 608.887 L 1486.62 1011.86 L 1434.43 1105.99 C 1433.25 1108.14 1432.24 1110.37 1431.43 1112.68 C 1423.5 1135.31 1435.41 1160.08 1458.04 1168.01 C 1460.48 1168.87 1462.98 1169.5 1465.53 1169.91 C 1489.21 1173.7 1511.47 1157.59 1515.27 1133.91 L 1531.31 1033.8 L 1643.1 857.459 C 1582.34 1064.29 1568.82 1328.91 1573.54 1615.83 L 1615.8 1618.18 L 1615.8 1737.63 L 1613.31 1737.63 L 1528.06 1828.33 C 1513.91 1843.38 1514.65 1867.04 1529.69 1881.19 C 1531.58 1882.96 1533.65 1884.54 1535.86 1885.88 C 1546.93 1892.62 1560.69 1893.15 1572.23 1887.28 L 1666.89 1833.97 C 1679.47 1826.88 1686.21 1812.63 1683.7 1798.41 L 1673.1 1738.39 L 1691.87 1622.41 L 1707.77 1623.29 L 1769.91 1155.99 L 1931.48 1620.81 L 2016.96 1593.19 L 2079.26 1719.73 L 2078.13 1720.23 L 2062.84 1825.62 C 2059.35 1849.61 2075.98 1871.87 2099.96 1875.35 C 2101.62 1875.6 2103.3 1875.74 2104.98 1875.79 C 2125.59 1876.4 2143.84 1862.57 2148.84 1842.57 L 2150.49 1835.96 C 2158.4 1804.33 2156.3 1771.03 2144.48 1740.64 Z " fill="rgb(0,0,0)"/></svg>