<?xml version="1.0" encoding="UTF-8" standalone="no"?><!-- Generator: Gravit.io --><svg xmlns="http://www.w3.org/2000/svg" xmlns:xlink="http://www.w3.org/1999/xlink" style="isolation:isolate" viewBox="819.468 120.156 603.824 1764.733" width="603.824pt" height="1764.733pt"><path d=" M 1268.77 746.872 C 1268.93 746.852 1269.09 746.832 1269.25 746.811 C 1269.24 747.171 1269.19 747.529 1269.21 747.888 C 1269.06 747.549 1268.92 747.205 1268.77 746.872 Z  M 1026.25 1300.9 C 998.201 1288.43 1023.14 1272.85 1023.14 1272.85 C 1023.14 1272.85 1073.79 1103.04 1125.57 1078 L 1166.5 1431.8 C 1166.5 1431.8 1159.55 1461.34 1152.07 1501.15 L 1035.6 1335.18 C 1035.6 1335.18 1054.3 1313.36 1026.25 1300.9 Z  M 1418.69 672.858 L 1380.82 638.728 C 1378.7 636.817 1376.15 635.686 1373.52 635.302 C 1379.45 590.676 1387.28 533.601 1390.91 515.484 C 1397.14 484.317 1365.97 450.033 1365.97 450.033 L 1336.98 432.563 C 1338.74 426.428 1340.74 419.077 1342.69 411.06 L 1347.42 420.999 C 1448.37 383.513 1368.77 295.523 1307.04 201.608 C 1240.81 100.85 1161.5 122.007 1161.5 122.007 C 1161.5 122.007 1079.14 136.425 1046.78 212.769 C 1020.44 274.929 1041.71 346.056 1050.45 399.063 L 1029.37 400.166 L 1029.37 400.166 C 1029.36 400.167 988.851 409.517 985.734 443.8 C 982.618 478.083 923.4 699.371 970.151 708.721 C 973.9 709.471 977.756 710.154 981.665 710.789 C 972.358 732.959 972.416 757.285 1016.42 758.533 C 1007.37 790.137 983.875 875.071 976.384 930.008 C 976.384 930.008 789.381 1182.46 823.665 1291.55 C 857.949 1400.63 957.684 1618.8 957.684 1618.8 C 957.684 1618.8 1031.54 1588.71 1091.37 1557.52 L 1102.73 1574.57 C 1090.95 1578.67 1080.82 1586.38 1088.51 1600.8 C 1096.45 1615.68 1103.47 1666.86 1114.6 1710.74 C 1082.28 1747.39 982.761 1827.77 1010.67 1855.67 C 1041.83 1886.84 1104.17 1893.07 1132.22 1874.37 C 1160.27 1855.67 1169.62 1843.21 1169.62 1843.21 C 1169.62 1843.21 1182.09 1821.39 1191.44 1824.51 C 1200.79 1827.62 1235.07 1808.92 1235.07 1787.11 C 1235.07 1773.68 1229.17 1748.46 1224.63 1731.04 C 1226.1 1728.87 1227.47 1726.68 1228.75 1724.47 C 1260.34 1730.36 1290.24 1730.85 1300.52 1715.42 C 1325.46 1678.02 1312.99 1039.09 1312.99 1039.09 L 1312.99 1039.09 L 1312.99 1039.09 C 1312.99 1039.09 1303.58 839.223 1272.51 756.067 C 1272.92 756.551 1273.31 757.046 1273.79 757.482 L 1311.66 791.613 C 1317.37 796.762 1326.18 796.305 1331.33 790.591 L 1365.93 752.195 C 1377.95 753.064 1388.14 750.282 1394.07 741.391 C 1398.89 734.171 1398.63 727.379 1395.12 721.121 L 1404.25 710.991 L 1403.6 710.403 L 1419.71 692.528 C 1424.86 686.814 1424.4 678.008 1418.69 672.858 Z " fill="rgb(0,0,0)"/></svg>