<?xml version="1.0" encoding="UTF-8" standalone="no"?><!-- Generator: Gravit.io --><svg xmlns="http://www.w3.org/2000/svg" xmlns:xlink="http://www.w3.org/1999/xlink" style="isolation:isolate" viewBox="5693.901 120.156 686.359 1772.414" width="686.359pt" height="1772.414pt"><path d=" M 6081.35 774.754 C 6090.09 756.614 6098.31 738.71 6105.86 721.114 L 6144.06 796.852 L 6141.07 877.764 C 6130.58 854.596 6117.89 834.656 6102.35 818.874 L 6081.35 774.754 Z  M 6375.68 1805.02 L 6194.93 1262.67 C 6192.93 1212.16 6190.91 1161.69 6187.39 1113.42 C 6189.2 1112.19 6190.96 1110.85 6192.61 1109.31 C 6209.67 1093.35 6210.56 1066.57 6194.6 1049.51 C 6191.83 1046.55 6188.66 1044.01 6185.17 1041.96 L 6188.65 1041.17 L 6211.46 790.001 L 6164.65 624.37 C 6189.96 618.861 6214.78 610.563 6239.36 602.281 C 6250.92 598.392 6263.12 593.905 6273.93 587.87 C 6275.85 586.795 6277.73 585.672 6279.56 584.495 C 6282.46 582.618 6285.23 580.602 6287.82 578.426 C 6290.3 576.339 6292.6 574.105 6294.7 571.705 C 6298.84 566.958 6302.15 561.562 6304.32 555.366 C 6311.5 534.896 6303.03 511.546 6288.65 495.276 C 6274.28 479.006 6254.8 468.295 6235.91 457.61 C 6217.02 446.925 6197.8 435.529 6184.48 418.388 C 6163.21 391.037 6160.43 353.822 6161.69 319.202 C 6162.96 284.583 6167.29 249.07 6157.23 215.915 C 6143.93 172.057 6105.37 137.917 6061.19 125.722 C 6017.01 113.526 5968.42 122.057 5928.54 144.641 L 5939.26 133.477 C 5915.31 139.656 5900.91 164.079 5907.09 188.026 C 5909.56 197.604 5915.11 205.994 5922.74 212.008 C 5912.65 227.284 5907.15 245.785 5908.12 265.473 C 5910.28 309.34 5943.81 344.208 5985.92 349.513 C 5979.82 372.206 5973.69 394.874 5969.32 417.842 C 5886.85 515.57 5818.98 609.554 5872.45 672.391 L 5851.38 726.751 L 5827.37 772.587 C 5816.42 798.152 5808.22 831.217 5802.26 870.414 L 5731.39 982.627 C 5708.18 985.29 5691.52 1006.27 5694.18 1029.48 C 5696.85 1052.7 5717.82 1069.36 5741.04 1066.69 C 5764.25 1064.03 5780.91 1043.05 5778.25 1019.84 C 5777.79 1015.81 5776.75 1011.88 5775.17 1008.15 L 5778.44 1009.59 L 5791.05 995.459 C 5781.53 1211.72 5806.15 1521.26 5824.13 1812.69 L 5798.15 1812.69 L 5798.14 1812.69 C 5755.42 1812.69 5720.78 1847.33 5720.78 1890.05 L 5720.78 1892.57 L 5919.54 1892.57 L 5919.54 1812.7 L 5917.52 1812.7 L 5977.09 1189.16 L 6278.29 1805.01 L 6258.86 1805.01 L 6258.86 1805.01 C 6216.13 1805.02 6181.5 1839.65 6181.5 1882.38 L 6181.5 1884.89 L 6380.26 1884.9 L 6380.26 1805.02 L 6375.68 1805.02 Z " fill="rgb(0,0,0)"/></svg>