<?xml version="1.0" encoding="UTF-8" standalone="no"?><!-- Generator: Gravit.io --><svg xmlns="http://www.w3.org/2000/svg" xmlns:xlink="http://www.w3.org/1999/xlink" style="isolation:isolate" viewBox="137.896 106.279 719.496 1785.591" width="719.496pt" height="1785.591pt"><path d=" M 775.554 1800.78 L 738.585 1809.58 L 727.844 1713 C 729.057 1712.96 730.265 1712.83 731.456 1712.59 C 743.379 1710.18 751.093 1698.56 748.682 1686.63 L 669.236 1293.27 C 678.982 1281.75 685.723 1267.8 688.487 1252.63 C 693.349 1226.5 686.797 1199.53 670.488 1178.55 C 646.478 1147.49 581.905 994.601 551.944 893.147 L 566.027 897.571 C 574.063 900.114 582.728 897.809 588.45 891.882 L 629.632 914.621 C 646.539 933.696 675.708 935.454 694.783 918.547 C 710.743 904.4 714.933 881.16 704.915 862.331 L 704.915 862.331 C 693.153 839.873 665.411 831.203 642.955 842.965 C 640.56 844.22 638.28 845.683 636.143 847.338 L 624.764 840.846 L 629.098 834.702 C 630.059 833.339 630.862 831.872 631.49 830.328 C 636.087 819.062 630.68 806.204 619.414 801.608 L 528.744 764.63 C 522.86 728.298 515.328 694.872 505.137 649.74 C 501.749 634.736 490.322 530.053 466.38 500.282 C 445.249 474.003 416.722 457.172 386.648 452.838 C 388.339 445.858 391.11 439.247 394.277 433.286 C 397.803 431.261 400.921 428.526 403.413 425.207 C 407.158 420.138 409.897 414.488 411.676 408.559 C 412.156 408.029 412.566 407.578 412.903 407.22 C 454.56 388.329 483.551 346.411 483.551 297.693 C 483.551 289.58 482.735 281.659 481.204 273.996 C 502.872 251.197 508.173 216.085 491.9 187.274 C 471.946 151.946 427.131 139.483 391.805 159.436 C 377.482 121.433 329.913 98.352 286.073 108.793 C 247.187 118.043 212.927 149.928 194.426 194.082 C 177.426 234.652 174.847 278.722 174.591 320.301 C 174.537 329.248 174.589 338.212 174.642 347.178 C 174.837 380.207 175.041 414.359 169.545 447.31 L 168.023 456.446 L 213.958 399.872 L 221.176 453.812 L 322.124 443.373 C 324.394 450.174 323.927 457.009 322.468 462.89 C 306.639 470.31 291.912 481.259 279.332 495.305 C 253.718 523.898 241.723 559.963 246.43 594.249 C 263.606 719.434 218.359 871.049 178.437 1004.81 C 169.847 1033.6 161.729 1060.8 154.209 1087.63 C 127.517 1182.88 126.688 1254.19 204.917 1315.31 C 228.445 1333.69 255.283 1348.43 284.253 1359.38 L 332.347 1740.71 C 332.403 1746.49 334.773 1752.01 338.927 1756.03 C 341.671 1758.74 345.082 1760.56 348.748 1761.53 L 348.754 1823.91 L 336.762 1823.91 L 336.768 1891.87 L 512.655 1891.86 C 512.652 1854.32 482.225 1823.9 444.693 1823.9 L 406.69 1823.91 L 414.989 1756.6 L 423.754 1755.77 C 435.85 1755.5 445.46 1745.51 445.271 1733.42 L 439.921 1381.13 C 455.71 1380.02 471.434 1378.06 486.99 1375.04 C 502.981 1371.78 518.749 1367.65 534.296 1362.86 L 632.478 1699.35 C 635.221 1708.74 643.832 1715.2 653.62 1715.21 C 653.84 1715.21 654.06 1715.2 654.28 1715.2 L 656.563 1715.13 L 682.22 1822.98 L 670.553 1825.76 L 686.279 1891.87 L 857.392 1851.17 C 848.707 1814.65 812.066 1792.1 775.554 1800.78 Z " fill="rgb(0,0,0)"/></svg>