<?xml version="1.0" encoding="UTF-8" standalone="no"?><!-- Generator: Gravit.io --><svg xmlns="http://www.w3.org/2000/svg" xmlns:xlink="http://www.w3.org/1999/xlink" style="isolation:isolate" viewBox="24.629 151.187 70.887 121.32" width="70.887pt" height="121.32pt"><g><path d=" M 25.261 272.507 C 23.04 264.142 35.321 227.729 40.842 223.32 L 73.978 241.496 C 79.282 258.553 85.225 258.236 88.44 272.507 L 25.261 272.507 Z " fill="#000000"/><path d=" M 61.888 227.802 C 53.121 220.442 47.639 216.935 41.76 215.34 L 37.412 226.461 C 61.18 232.761 76.97 248.462 76.97 248.462 C 75.7 243.643 60.918 226.988 61.888 227.802 Z " fill="#000000"/><path d=" M 37.806 190.555 C 35.987 185.631 36.237 179.959 36.961 176.509 C 42.993 147.692 72.089 152.096 82.098 164.175 C 87.59 170.803 89.833 177.298 89.869 179.046 C 89.923 181.657 88.906 184.658 88.922 185.766 C 88.943 187.313 88.858 190.24 90.917 192.521 C 92.625 194.415 95.518 195.719 95.516 197.178 C 95.514 200.283 90.751 200.11 90.874 201.73 C 90.93 202.471 91.136 203.09 92.387 204.251 C 92.819 204.648 92.506 205.451 92.181 205.933 C 91.457 207.006 89.623 207.679 89.623 207.679 C 89.623 207.679 91.374 209.418 90.824 210.569 C 90.336 211.592 87.946 210.883 88.786 215.357 C 90.911 226.676 64.888 218.537 72.604 220.673 C 65.595 218.735 65.855 238.227 65.855 238.227 L 52.978 229.407 L 43.336 225.171 C 51.795 204.362 39.626 195.482 37.806 190.555 Z " fill="#000000"/><path d=" M 90.344 170.217 C 91.236 171.874 91.239 172.61 91.179 172.699 C 92.843 170.217 91.177 165.357 91.177 165.357 C 92.704 166.746 92.843 170.217 92.843 170.217 C 94.399 166.724 94.178 163.717 92.373 161.847 C 86.162 155.416 66.328 150.079 51.671 151.385 C 38.986 152.514 27.701 161.739 29.143 188.535 C 29.609 197.183 20.439 209.217 27.007 216.02 C 34.752 224.042 45.027 228.376 57.58 214.22 L 68.085 201.516 C 68.085 201.516 75.514 184.156 75.514 175.609 C 75.514 170.061 83.533 172.121 88.207 174.251 C 89.901 173.734 90.344 170.217 90.344 170.217 Z " fill="#000000"/></g></svg>