<?xml version="1.0" encoding="UTF-8" standalone="no"?><!-- Generator: Gravit.io --><svg xmlns="http://www.w3.org/2000/svg" xmlns:xlink="http://www.w3.org/1999/xlink" style="isolation:isolate" viewBox="234.057 148.322 76.671 124.185" width="76.671pt" height="124.185pt"><g><path d=" M 298.398 182.713 C 299.773 177.555 298.101 171.134 298.101 171.134 C 287.898 144.929 252.486 151.919 244.47 166.299 C 240.086 174.163 239.811 178.219 239.597 179.992 C 239.478 180.987 240.698 184.424 240.698 184.424 C 241.076 184.873 241.181 185.666 240.932 186.197 C 240.932 186.197 236.588 191.386 234.523 196 C 233.718 197.799 233.77 199.571 236.185 200.264 L 237.771 200.604 C 238.355 200.604 239.061 202.11 238.82 202.643 L 238.198 204.032 C 237.959 204.566 238.109 205.326 238.533 205.73 L 240.058 206.837 C 240.058 206.837 239.273 207.934 239.273 209.08 C 239.273 210.225 240.726 209.3 240.745 212.428 C 240.758 214.638 239.588 217.19 240.555 219.074 C 242.05 221.994 245.472 222.497 251.768 220.489 C 259.784 217.933 257.038 224.654 258.683 227.001 C 261.545 231.082 260.497 234.753 259.444 238.785 L 300.352 221.141 C 285.799 210.942 297.023 187.869 298.398 182.713 Z " fill="#000000"/><path d=" M 303.407 225.508 L 296.595 215.075 C 296.595 215.075 281.469 216.934 268.089 228.38 C 262.48 233.177 257.615 238.19 254.96 248.462 C 254.96 248.462 276.777 229.913 303.407 225.508 Z " fill="#000000"/><path d=" M 296.36 161.162 C 299.053 162.255 302.367 170.109 302.367 170.109 C 301.474 164.055 297.033 157.636 289.335 153.682 C 292.694 154.859 295.695 156.457 295.695 156.457 C 289.475 147.891 269.797 149.503 269.797 149.503 C 271.633 148.973 278.973 148.809 278.973 148.809 C 266.228 147.177 262.25 150.032 256.59 151.692 L 256.59 151.693 C 235.165 159.72 246.138 166.828 246.138 166.828 C 246.138 166.828 291.079 200.225 293.876 196.846 C 296.672 193.467 298.017 182.533 298.017 182.533 C 298.432 184.421 298.017 189.49 298.017 189.49 C 300.193 184.421 299.571 173.09 299.571 173.09 C 300.503 174.382 300.56 183.186 300.56 183.186 C 301.858 176.584 299.54 169.228 299.54 169.228 C 301.063 170.733 302.367 176.37 302.367 176.37 C 302.16 168.419 296.36 161.162 296.36 161.162 Z " fill="#000000"/><path d=" M 310.319 272.507 C 312.539 264.142 305.265 227.729 299.744 223.32 L 259.026 241.495 C 259.026 241.495 253.695 258.638 250.571 272.507 L 310.319 272.507 Z " fill="#000000"/></g></svg>