<?xml version="1.0" encoding="UTF-8" standalone="no"?><!-- Generator: Gravit.io --><svg xmlns="http://www.w3.org/2000/svg" xmlns:xlink="http://www.w3.org/1999/xlink" style="isolation:isolate" viewBox="341.138 149.499 76.988 123.008" width="76.988pt" height="123.008pt"><g><path d=" M 405.316 180.188 C 406.697 175.009 405.017 165.757 405.017 165.757 C 394.085 137.677 355.712 152.032 350.765 163.886 C 347.28 172.23 346.795 176.236 346.582 178.017 C 346.461 179.016 348.81 182.467 348.81 182.467 C 349.188 182.919 349.293 183.716 349.043 184.249 L 341.484 195.898 C 340.575 197.656 341.465 199.839 344.056 199.839 L 345.868 199.839 C 346.455 199.839 347.163 200.912 346.924 201.448 L 346.298 202.843 C 346.057 203.38 346.208 204.143 346.635 204.548 L 348.164 206.001 C 348.164 206.001 347.376 206.761 347.376 207.911 C 347.376 209.062 350.121 210.082 348.855 212.958 C 348.128 214.61 348.956 216.802 350.225 218.509 C 353.109 222.392 356.292 221.214 362.827 220.053 C 370.587 218.675 367.943 223.553 369.593 225.909 C 372.468 230.008 368.416 234.694 367.358 238.745 L 408.44 221.025 C 393.826 210.783 403.936 185.367 405.316 180.188 Z " fill="#000000"/><path d=" M 411.634 225.411 L 404.662 214.931 C 404.662 214.931 389.184 216.8 375.49 228.295 C 379.124 225.244 363.384 243.347 362.035 248.462 C 362.035 248.462 384.384 229.834 411.634 225.411 Z " fill="#000000"/><path d=" M 351.506 167.176 C 351.506 167.176 343.924 161.329 352.328 156.488 C 360.732 151.647 383.906 143.033 398.038 157.525 C 412.17 172.017 351.506 167.176 351.506 167.176 Z " fill="#000000"/><path d=" M 417.716 272.507 C 419.937 264.142 412.663 227.729 407.142 223.319 L 366.425 241.495 C 366.425 241.495 361.093 258.638 357.97 272.507 L 417.716 272.507 Z " fill="#000000"/></g></svg>