<?xml version="1.0" encoding="UTF-8" standalone="no"?><!-- Generator: Gravit.io --><svg xmlns="http://www.w3.org/2000/svg" xmlns:xlink="http://www.w3.org/1999/xlink" style="isolation:isolate" viewBox="342.139 0 73.132 127.001" width="73.132pt" height="127.001pt"><g><path d=" M 414.861 127.001 C 417.082 118.637 409.808 82.223 404.287 77.813 L 363.569 95.99 C 363.569 95.99 358.239 113.133 355.115 127.001 L 414.861 127.001 Z " fill="#000000"/><path d=" M 404.614 35.27 C 405.944 30.289 404.327 21.386 404.327 21.386 C 393.81 -5.629 354.967 8.181 350.206 19.585 C 346.855 27.614 347.142 33.22 347.039 34.943 C 346.914 37.071 347.998 38.671 347.897 40.159 C 347.697 43.072 343.132 47.682 342.261 52.101 C 341.893 53.969 342.259 55.937 344.734 56.22 C 345.096 56.261 346.151 56.548 346.151 56.548 C 346.716 56.548 347.398 57.907 347.166 58.423 L 346.565 60.092 C 346.332 60.608 346.478 61.342 346.888 61.733 L 348.36 63.131 C 348.36 63.131 347.275 63.535 347.275 64.641 C 347.275 65.749 349.159 65.183 348.697 68.514 C 348.458 70.234 347.505 71.459 348.726 73.102 C 351.5 76.838 354.468 75.089 360.85 74.915 C 368.26 74.711 365.771 77.954 367.36 80.22 C 370.125 84.162 366.113 89.71 365.097 93.607 L 404.621 76.56 C 390.561 66.705 403.287 40.253 404.614 35.27 Z " fill="#000000"/><path d=" M 407.66 80.779 L 400.953 70.697 C 400.953 70.697 386.061 72.494 372.888 83.552 C 367.365 88.188 362.591 93.032 359.975 102.956 C 359.975 102.956 381.443 85.034 407.66 80.779 Z " fill="#000000"/><path d=" M 407.621 13.746 C 403.576 2.351 390.038 5.745 390.038 5.745 C 381.624 -6.098 358.47 3.462 352.447 7.081 C 344.396 11.918 341.931 16.531 343.65 20.906 C 344.398 22.809 347.364 26.757 350.42 26.755 C 357.819 30.481 379.239 54.196 393.391 59.477 C 393.059 61.952 398.236 67.459 398.236 67.459 L 398.029 70.697 C 399.978 57.829 419.273 46.564 407.621 13.746 Z " fill="#000000"/></g></svg>