<?xml version="1.0" encoding="UTF-8" standalone="no"?><!-- Generator: Gravit.io --><svg xmlns="http://www.w3.org/2000/svg" xmlns:xlink="http://www.w3.org/1999/xlink" style="isolation:isolate" viewBox="127.089 0.851 76.69 126.15" width="76.69pt" height="126.15pt"><g><path d=" M 130.996 127.001 C 128.775 118.636 138.056 82.223 143.577 77.813 L 179.713 95.989 C 185.017 113.047 190.96 112.729 194.175 127.001 L 130.996 127.001 Z " fill="#000000"/><path d=" M 173.157 82.295 C 164.39 74.935 150.908 71.428 145.03 69.833 L 139.682 80.954 C 163.449 87.255 183.239 102.955 183.239 102.955 C 180.454 92.388 179.036 87.231 173.157 82.295 Z " fill="#000000"/><path d=" M 141.044 42.755 C 139.221 37.594 139.467 31.652 140.188 28.036 C 146.201 -2.15 181.683 3.848 191.699 16.508 C 197.197 23.457 197.062 28.902 197.099 30.735 C 197.154 33.469 196.48 35.932 196.496 37.093 C 196.518 38.714 196.775 40.76 198.836 43.151 C 200.547 45.136 203.779 48.206 203.779 49.734 C 203.779 52.988 199.069 52.92 199.14 53.82 C 199.201 54.596 198.381 55.244 199.635 56.461 C 200.066 56.879 199.754 57.719 199.429 58.224 C 198.705 59.347 196.872 60.051 196.872 60.051 C 196.872 60.051 198.625 61.874 198.075 63.081 C 197.588 64.151 195.917 65.278 196.381 68.775 C 196.622 70.601 196.069 72.701 194.625 73.345 C 191.643 74.677 188.264 74.583 181.819 72.483 C 174.276 70.026 177.124 92.721 177.124 92.721 L 164.241 83.471 L 145.596 79.023 C 154.041 57.227 142.867 47.917 141.044 42.755 Z " fill="#000000"/><path d=" M 130.791 38.657 C 129.488 18.391 144.064 3.915 156.558 1.454 C 173.655 -1.913 197.454 9.765 200.505 13.325 C 207.079 20.997 196.887 27.664 196.887 27.664 C 196.887 27.664 181.082 18.154 181.082 26.699 C 181.082 35.247 173.653 52.607 173.653 52.607 L 162.461 89.796 C 149.908 103.951 127.809 102.953 127.14 91.822 C 126.545 81.901 131.346 47.3 130.791 38.657 Z " fill="#000000"/></g></svg>