<?xml version="1.0" encoding="utf-8"?>
<!-- Generator: Adobe Illustrator 21.1.0, SVG Export Plug-In . SVG Version: 6.00 Build 0)  -->
<svg version="1.1" id="Layer_1" xmlns="http://www.w3.org/2000/svg" xmlns:xlink="http://www.w3.org/1999/xlink" x="0px" y="0px"
	 viewBox="0 0 128 128" style="enable-background:new 0 0 128 128;" xml:space="preserve">
<style type="text/css">
	.st0{fill:none;stroke:#FFFFFF;stroke-width:4;stroke-linecap:round;stroke-linejoin:round;stroke-miterlimit:10;}
</style>
<path class="st0" d="M104,101.1"/>
<g>
	<path d="M94.7,81.1C79.3,93.6,69.5,109.2,64.1,128C58.7,109.2,49,93.6,33.6,81.2c2.9-2.2,5.6-4.6,8.6-6.6
		c9.9-6.8,20.9-10.8,32.5-13.5c7.4-1.7,14.9-3.2,21.8-6.5c4.3-2,8.1-4.8,10.9-8.6c4.8-6.4,4.4-12.7-1.2-18.5
		c-3.1-3.2-6.9-5.5-10.8-7.6c-0.3-0.2-0.6-0.3-0.9-0.6c6.4,0.7,12.5,2.3,17.8,6.3c3.6,2.7,6,6.1,7.1,10.4c1.5,6.1,0.4,11.5-4,16.1
		c-4.3,4.6-9.8,7.5-15.5,9.9c-7.7,3.3-15.9,5.1-24.1,7c-8.7,2-17.1,4.7-24.8,9.4c-1.4,0.9-2.7,1.9-4.1,2.9
		c7.8,7.6,12.6,17,17.1,26.6c4.6-9.6,9.3-19,17.3-26.7c-3-1.9-5.9-3.8-9.1-5.7c3.1-0.7,6.2-1.4,9.2-2.2c1.5-0.4,2.8-0.1,4,0.8
		C88.4,76.4,91.5,78.7,94.7,81.1z"/>
	<path d="M33.8,19.2c-3.1,2.1-6.4,4.1-9.5,6.5c-1.7,1.3-3.2,3.1-4.4,4.9c-3,4.5-2.7,9,0,13.6c3.5,5.7,8.6,9.4,14.7,11.4
		c6.3,2.1,12.8,3.6,19.2,5.4c0.4,0.1,0.7,0.2,1.1,0.4c-3.6,1.8-7.1,3.6-10.6,5.4c-0.3,0.2-0.8,0.2-1.1,0.1
		c-9.2-2.5-18.2-5.4-26-11.1c-4-2.9-7.5-6.4-8.4-11.5C7.5,37,9.7,30.8,15.5,26.1c5.2-4.3,11.5-6,18-6.9
		C33.6,19.2,33.8,19.2,33.8,19.2z"/>
	<path d="M75.2,29c0,5.9-4.8,10.8-10.7,10.8c-5.8,0-10.6-4.8-10.7-10.6c-0.1-5.9,4.6-10.6,10.6-10.7C70.4,18.4,75.2,23,75.2,29z"/>
	<path d="M56.6,82.8c2.6-1.1,5-2.2,7.5-3.2c0.3-0.1,0.9-0.1,1.2,0c2.3,1,4.5,2,6.7,3c-2.5,4.1-4.9,8.1-7.4,12.1
		C62.1,90.9,59.4,86.9,56.6,82.8z"/>
	<path d="M61.6,16.8c0.8-1.8,1.4-3.5,2.3-4.9c2.4-3.6,3.9-7.4,2.5-11.9c1.6,1.2,2,3,2.4,4.7c1,4-0.1,7.7-1.9,11.3
		c-0.2,0.4-0.7,0.8-1,0.8C64.7,16.9,63.3,16.8,61.6,16.8z"/>
	<path d="M71.4,18.2c1.5-0.5,3.1-1.2,4.7-1.6c4.2-0.9,7.9-2.5,10.4-6.4c-0.1,0.6-0.1,1.1-0.3,1.7c-1.8,5.4-6,8.1-11,9.8
		c-0.3,0.1-0.9-0.1-1.1-0.3C73.2,20.4,72.4,19.4,71.4,18.2z"/>
	<path d="M83.4,51.1c-2.4-0.4-4.2-1.4-5.8-2.7C74.8,46.3,73,43.3,72,40c-0.1-0.4,0.1-1.1,0.4-1.5c0.7-0.9,1.6-1.8,2.8-3
		c0.7,2,1.5,3.7,1.9,5.6c0.8,3.8,2.3,7,5.7,9.1C83,50.3,83.1,50.6,83.4,51.1z"/>
	<path d="M52.1,31.9c-1.8-0.9-3.5-1.6-5-2.5c-2.6-1.6-5.3-2.9-8.5-2.8c-1.1,0-2.2,0.3-3.8,0.6c3-2.1,5.9-3.1,9-2.8
		c2.5,0.3,4.9,1.2,7.3,1.9c0.9,0.3,1.3,0.7,1.1,1.8C51.9,29.1,52.1,30.2,52.1,31.9z"/>
	<path d="M53.7,22.2c-0.7-2-1.5-3.8-1.9-5.8c-0.8-3.9-2.5-7-6.1-9.3c0.5,0,1.1,0,1.5,0.1c5.4,1.8,8.2,5.9,9.9,11
		c0.1,0.3-0.1,0.9-0.4,1.1C55.9,20.2,55,21.1,53.7,22.2z"/>
	<path d="M54.2,36.2c1.1,1.2,2.1,2.3,3.2,3.5c-1.2,0.5-2.6,1.3-4.1,1.6c-4.4,0.8-8.4,2.4-10.5,6.9C41.7,44.1,47.4,38.3,54.2,36.2z"
		/>
	<path d="M76.8,26.2c1.3,0.5,2.6,0.9,3.7,1.6c3.9,2.4,7.8,4.7,12.7,3.3c0,0.2,0.1,0.5,0.1,0.7c-1.7,0.6-3.3,1.4-5.1,1.7
		c-3.7,0.6-7.2-0.1-10.6-1.8c-0.7-0.4-1-0.7-0.9-1.6C76.9,28.8,76.8,27.7,76.8,26.2z"/>
	<path d="M67.2,41.4c-0.7,1.5-1.2,3-2,4.4c-3.3,5.6-3.5,6.2-2.6,12.3c-1.7-1.7-2.7-4.5-2.8-7.7c0-2.9,0.7-5.6,2-8.1
		c0.2-0.4,0.9-0.8,1.5-0.8C64.5,41.3,65.6,41.4,67.2,41.4z"/>
	<path d="M59.3,17.3c-4.5-2.5-6.7-11.4-4.1-16.8c0,0.8,0.1,1.3,0.1,1.8c-0.3,3.6,1.3,6.4,3.8,8.7c1.2,1.1,1.7,2,0.9,3.5
		C59.6,15.3,59.5,16.3,59.3,17.3z"/>
	<path d="M36.5,38.4c4.7,0.1,8.1-1.6,10.8-4.9c0.3-0.3,1-0.5,1.4-0.4c1.3,0.3,2.6,0.7,4,1.1C51,38.3,41.7,41,36.5,38.4z"/>
	<path d="M69.8,40.5c4,3.1,7.2,11.9,4.2,16.1c-0.1-1.1-0.1-2-0.2-2.8c-0.5-2.8-1.9-5.1-3.9-6.9c-1.2-1-1.5-2-0.9-3.4
		C69.3,42.6,69.5,41.6,69.8,40.5z"/>
	<path d="M69,17c-0.4-6.3,3.3-12.7,8.3-14.3c-0.8,1.1-1.9,2-2.3,3.1c-0.7,1.9-1.4,3.9-1.4,5.8c0,2.3-0.6,3.7-2.7,4.5
		C70.3,16.3,69.7,16.7,69,17z"/>
	<path d="M52,54.7c2.7-2.7,3.8-5.7,3.6-9.2c-0.1-1.7,0.3-2.7,2-3.3c0.9-0.3,1.6-0.9,2.4-1.4C60.9,46.4,56.3,54.4,52,54.7z"/>
	<path d="M52.5,24.4c-4.2,1.5-11.9-2.7-14.1-7.6c0.5,0.2,0.8,0.2,1.1,0.4c2.4,2.2,5.2,3.1,8.4,2.9c1.8-0.1,2.9,0.4,3.5,2.2
		C51.6,23,52.1,23.6,52.5,24.4z"/>
	<path d="M76.2,23.7c3.3-4.6,11.8-6.7,15.9-4.3c-1.3,0.2-2.7,0.2-3.9,0.5c-2.4,0.6-4.4,2.1-6,4c-0.8,0.9-1.6,1.2-2.8,0.7
		C78.4,24.3,77.3,24,76.2,23.7z"/>
	<path d="M90.4,41.6c-2.9-3-6.2-4-10-3.8c-1,0.1-1.8-0.3-2.2-1.3c-0.4-1-1-1.9-1.6-2.9C80.7,32,90.4,37.3,90.4,41.6z"/>
	<path d="M35.7,33.5c3.3,0.3,6.4,0,9.2-1.8c0.3-0.2,0.9,0.1,1.5,0.1C43.9,36,40.5,36.5,35.7,33.5z"/>
	<path d="M81.8,5.6c-2.9,1.9-4.6,4.3-5.4,7.4c-0.1,0.4-0.8,0.7-1.4,1.2C74.4,9.2,77.4,5.4,81.8,5.6z"/>
	<path d="M49.5,18c-5,1.1-8-1.3-8.8-6.3c0.1-0.1,0.3-0.3,0.4-0.4c0.1,0.3,0.2,0.7,0.4,1c1.5,2.4,3.8,3.8,6.5,4.6
		C48.6,17.1,49.1,17.6,49.5,18z"/>
	<path d="M47.1,52.5c2.7-1.8,4.5-4.3,5.4-7.5c0.1-0.5,0.7-0.8,1.3-1.4C54.5,49,53.7,50.7,47.1,52.5z"/>
	<path d="M60,0.3c0.1,1.8,0.2,3.7,0.3,5.6c0.1,1.7,2.1,3,1.4,5.1C57.7,8.5,57.1,3.6,60,0.3z"/>
	<path d="M82.5,26.1c2.8-4.1,7.5-4.7,10.6-1.6c-3.3-0.6-6.2,0.1-9,1.6C83.8,26.4,83.2,26.2,82.5,26.1z"/>
	<path d="M67.3,47.2c4.3,2.2,4.8,6.4,1.6,10.1C70.3,53.7,67.9,50.6,67.3,47.2z"/>
	<path d="M79.3,39.6c5.2-0.6,7.9,1.6,8.7,6.4c-1.3-1.2-2.7-2.4-4-3.6C82.7,41.2,80.4,41.7,79.3,39.6z"/>
</g>
</svg>
