<?xml version="1.0" encoding="utf-8"?>
<!-- Generator: Adobe Illustrator 21.1.0, SVG Export Plug-In . SVG Version: 6.00 Build 0)  -->
<svg version="1.1" id="Layer_1" xmlns="http://www.w3.org/2000/svg" xmlns:xlink="http://www.w3.org/1999/xlink" x="0px" y="0px"
	 viewBox="0 0 128 128" style="enable-background:new 0 0 128 128;" xml:space="preserve">
<g>
	<path d="M63.9,0c22.4,0.4,43.3,5.9,62.9,16.7c1,0.6,1.2,1.3,1.2,2.3c-0.2,18.5-4.2,36.2-12.1,52.9c-7.3,15.6-17.5,29.1-30.3,40.7
		c-6.2,5.6-13.1,10.5-20.3,14.9c-1,0.6-1.7,0.6-2.7,0c-25-15.1-43-36.2-53.9-63.4c-3.8-9.6-6.5-19.5-7.6-29.8
		C0.5,29.2,0.3,24,0,18.8c0-0.6,0.5-1.6,1.1-1.9C14.6,9.2,29,4.1,44.4,2C50.9,1.1,57.4,0.6,63.9,0z M83.5,7.5
		c-1-0.3-1.6-0.5-2.1-0.6c-3.1-0.4-6.3-0.8-9.5-1.1c-10.5-0.7-21,0-31.3,2.1c-11.9,2.4-23.1,6.6-33.7,12.5c-1.1,0.6-1.5,1.3-1.4,2.6
		C6,28.5,6.3,34,6.9,39.4c0.4,3.4,0.9,7,2.3,10.1c6.1,13.8,23,20,36.5,13.3C56,57.8,61,49.2,61.5,37.8c0.6-13.3,6.9-22.9,18.8-28.8
		C81.2,8.5,82.1,8.1,83.5,7.5z M96,94.5c0.1,0.1,0.3,0.1,0.4,0.2c1.1-1.4,2.1-2.8,3.2-4.2c14.8-20.1,22.4-42.7,22.7-67.7
		c0-1-0.2-1.7-1.2-2.1c-5.9-2.7-11.7-5.6-17.7-8c-7.7-3-15.4-2.4-22.7,1.5C70.2,19.7,64.3,32.4,67,44c1.9,8,6.5,13.8,13.4,18.1
		c10.5,6.5,15.7,16,15.8,28.3C96.2,91.8,96.1,93.2,96,94.5z M13.6,63.7c0.2,0.6,0.4,1.4,0.8,2.2c2.3,4.6,4.3,9.4,6.9,13.8
		c10,17.3,23.7,31,40.7,41.5c1.3,0.8,2.4,1,3.7,0c5.2-3.8,10.6-7.5,15.7-11.4c2-1.5,4.2-3.3,5.5-5.4c4.1-6.6,5.3-13.8,3.5-21.4
		c-2.9-11.8-13.9-20.5-26-20.6c-5.2,0-9.9,1.2-14.5,3.7c-8.5,4.6-17.4,5.6-26.5,2.4C20.1,67.3,17,65.4,13.6,63.7z"/>
</g>
</svg>
