<?xml version="1.0" encoding="utf-8"?>
<!-- Generator: Adobe Illustrator 21.1.0, SVG Export Plug-In . SVG Version: 6.00 Build 0)  -->
<svg version="1.1" id="Layer_1" xmlns="http://www.w3.org/2000/svg" xmlns:xlink="http://www.w3.org/1999/xlink" x="0px" y="0px"
	 viewBox="0 0 128 128" style="enable-background:new 0 0 128 128;" xml:space="preserve">
<style type="text/css">
	.st0{fill:#FFFFFF;}
</style>
<path d="M64,128L64,128C28.7,128,0,99.3,0,64v0C0,28.7,28.7,0,64,0h0c35.3,0,64,28.7,64,64v0C128,99.3,99.3,128,64,128z"/>
<g>
	<polygon class="st0" points="40.4,57.3 40.4,57.3 40.4,57.3 40.4,57.3 40.4,57.3 	"/>
	<path class="st0" d="M19.9,90.1c-0.1,0-0.3,0-0.4,0C19.6,90.1,19.7,90.2,19.9,90.1z"/>
	<path class="st0" d="M111,65.2c-0.2-0.9-2-6.9-6-10.3c-8-6.8-20.1-4.5-23.5-3.4c-1.4,0.5-2.8,0.4-4.1-0.3c-0.3-0.1-0.6-0.3-0.9-0.4
		c0.6,0.6,1,1.3,1.3,2c0.3,1,0.5,2,0.5,3.1c0.1,1.5-0.2,3-0.4,4.4c-0.2,0.7-0.3,1.4-0.5,2.1c-0.6,2.5-1.4,4.9-2.6,7.1
		c-0.5,0.8-0.9,1.6-1.4,2.5h0c-1.3,1.9-2.7,3.6-4.8,4.8c1.5,0.7,2.4,2,3.2,3.2c0.9,1.4,1.8,2.7,3,3.9l0,0v0c1.5,1.7,3.1,3.1,5,4.2h0
		c1.3,0.9,2.7,1.5,4.1,2c1.1,0.4,2.2,0.8,3.3,0.8l0,0l0,0c2.4,0.6,4.8,0.5,7.2,0.1c3.3-0.6,6.2-2,8.8-4c0.3-0.2,1.6-1.3,1.8-1.5
		c1.1-1,2.1-2.1,3-3.3c0.3-0.4,1.5-2.3,1.7-2.8C110.5,77.9,112.8,72.2,111,65.2z M77.6,51.8C77.6,51.7,77.6,51.7,77.6,51.8
		C77.6,51.7,77.7,51.7,77.6,51.8C77.7,51.7,77.7,51.8,77.6,51.8z M80.3,65c-1.2,2.9-1.6,5.9-1.4,9.1c0.1,1.7,0.4,3.3,1.1,4.9
		c0.1,0.1,0.1,0.2,0.1,0.3c0,0,0,0-0.1,0c-1.3-2.1-1.8-4.4-2.1-6.8c-0.3-2.7,0.4-5.3,0.5-5.5c0.4-1.6,1.7-5.4,5.8-8.7
		c0.8-0.7,1.6-1.4,2.5-1.8c-1.4,1.3-4.5,4.8-4.6,5C81.4,62.6,80.8,63.8,80.3,65z M83.8,60.1C83.8,60.1,83.8,60.1,83.8,60.1
		C83.8,60.1,83.8,60.1,83.8,60.1C83.8,60.1,83.8,60.1,83.8,60.1z M88.3,85.2l-4.8-6.7l6.3-3.8l-3.6-6.3l6.7-3l-2.7-6.7l7.9-1.8
		l0.7,0.9l-6.6,1.8l3,6.7L88.3,69l3.4,6.6l-6.1,3.1l3.9,5.8L88.3,85.2z M90.2,79.5l5.4-3.2l-3-5.4l5.7-2.6l-2.3-5.8l6.8-1.5l0.6,0.8
		l-5.7,1.5l2.6,5.7l-5.8,2.3l2.9,5.7l-5.3,2.7l3.4,4.9l-1,0.6L90.2,79.5z M101.7,87.7C101.7,87.7,101.7,87.7,101.7,87.7
		C101.7,87.7,101.7,87.7,101.7,87.7C101.7,87.7,101.7,87.7,101.7,87.7C101.7,87.7,101.7,87.7,101.7,87.7
		C101.7,87.7,101.7,87.7,101.7,87.7z M109.2,74.9c-0.8,4.1-3,7.4-6.1,10.1c-0.6,0.5-1.3,0.8-1.7,1.5c0,0,0,0,0,0
		c-0.1,0.1-0.3,0.2-0.4,0.3c-2.7,1.7-5.7,2.8-8.9,2.8c0,0,0,0,0,0c0-0.1,0-0.2-0.1-0.2c-0.3,0.1-0.2-0.1-0.1-0.2c0,0,0,0,0,0
		c0.2,0.2,0.5,0.1,0.7,0.1c3-0.7,5.8-2,8.3-3.9c0.2-0.1,0.4-0.3,0.4-0.6c0.3,0,0.5-0.2,0.7-0.3c2.8-2.6,4.9-5.6,6-9.3
		c0.7-2.4,1-4.9,0.6-7.2C109.2,70.1,109.6,72.5,109.2,74.9z"/>
	<path class="st0" d="M75.6,50.2c-0.6-0.7-1.3-1.3-1.9-2c-0.3-0.1-0.6-0.4-0.9-0.5c-0.1-0.1-0.3-0.1-0.4,0c-0.1,0.1,0,0.2,0,0.4
		c0.1,0.2,0.4,0.4,0.3,0.7c0.3,0.6,0.7,1.2,0.8,1.9c0.7,2.4,0.5,4.9-0.1,7.3c-0.3,1.1-0.1,2,0.3,3c0.4,1.5,1,3,2,4.2
		c0.2-0.1,0.3-0.4,0.4-0.6c0.7-1.7,1.1-3.4,1.4-5.1c0.2-1.4,0.3-2.7,0.1-4.1v0C77.5,53.4,76.9,51.7,75.6,50.2z"/>
	<path class="st0" d="M78.5,51.3c0.2-0.1,0.4-0.1,0.6-0.1c1.5,0,2.8-0.5,4-1.2c0.8-0.5,1.6-1,1.8-1.9c0-0.1,0-0.1,0-0.2
		c0-0.2-0.1-0.4-0.3-0.5c-0.3,0-0.2,0.2-0.3,0.4c0,0.3-0.3,0.5-0.5,0.6c-1,0.5-2,0.6-3,0c-1.2-0.6-2-1.5-2.5-2.7
		c-0.1-0.4-0.2-0.8-0.2-1.2c0-0.4-0.2-0.4-0.5-0.3c-0.9,0.5-1.7,1-2.4,1.8c-0.9,0.9-0.9,0.9,0.3,1.4c0.2,0.1,0.3,0.2,0.5,0.3
		c1.2,0.8,2.2,1.8,2.3,3.4C78.1,51.3,78.2,51.4,78.5,51.3z"/>
	<path class="st0" d="M59.8,76.3c0,0,0,0.1,0,0.1l0,0c-0.2,0.1-0.5,0.1-0.7,0.2c0.8,0.2,1.5,0.1,2.2,0.2c1.8,0.2,3.6,0.1,5.4,0
		c1.5,0,2.5-0.8,3.4-1.7c0.3-0.3,0.7-0.7,1-1c0.9-1.1,1.9-2.2,2.6-3.5l0,0c0.6-1,1.3-2.1,1.6-3.2c0.3-0.8,0.6-1.4-0.4-2.2
		c-0.2-0.2-0.3-0.5-0.5-0.7c-0.4-0.7-0.7-1.6-1-2.3c-0.1-0.6-0.3-1.2-0.5-1.8c-0.3,1-0.6,1.8-0.9,2.7l0,0c0,0.1-0.1,0.2-0.1,0.3
		c-1.3,3.2-2.9,6.1-5.2,8.7c-1.3,1.5-2.8,2.8-4.7,3.7c0.2-0.4,0.6-0.5,1-0.7c2.6-1.8,4.6-4.3,6.2-7c0.5-0.9,1.2-1.8,1.4-2.9l0,0
		c0.3-0.7,0.6-1.3,0.9-2c0.9-2.3,1.6-4.7,1.9-7.2c0.3-2.8,0.4-5.6-1.5-8c-0.2-0.5-0.8-0.5-1.2-0.7c-1.8-0.9-3.5-0.7-5,0.4
		c-0.2,0.1-0.4,0.2-0.3,0.5c0.1,0.2,0.4,0.1,0.6,0.1c0.2-0.1,0.4-0.1,0.6-0.2c1.1-0.2,2.5,0.3,3,1.1c0.6,0.8,1,1.6,1.2,2.5
		c0.5,2.4,0.1,4.7-0.5,7c-0.6,2.4-1.6,4.7-2.8,6.9c-0.1,0.1-0.2,0.3-0.3,0.4c-1,1.7-2.3,3.3-3.7,4.6c-5.1,4.7-8.1,1.6-8.1-0.9
		c0-0.7,0-1.4,0-2.1l0,0c0-0.2,0.1-0.5,0.1-0.7c0-0.2,0-0.4,0-0.6c-0.9,1.6-1.4,3.3-1.3,5.2v0c0.1,1.7,0.9,3,2.3,3.9
		C57.4,76.3,58.6,76.4,59.8,76.3z"/>
	<path class="st0" d="M71.4,88.4c-1.6-0.2-3-0.8-4.4-1.6c-1.8-1.2-3.1-2.8-3.8-4.9v0C63,81,62.8,80,62.7,79.1c0-0.3-0.2-0.3-0.4-0.3
		c-1.2,0-2.4,0.1-3.6-0.4c0,1.1,0.2,2,0.6,2.9c0.3,0.9,0.6,1.7,1.2,2.4c1.1,1.8,2.5,3.3,4.3,4.4h0c1.2,0.9,2.6,1.4,4.1,1.6
		c0.1,0,0.2,0,0.3,0c2.3,0.4,4.5,0,6.6-0.9c0.8-0.3,1.5-0.7,2.1-1.5c-0.5,0.2-0.8,0.3-1.2,0.4C75,88.4,73.2,88.5,71.4,88.4z"/>
	<path class="st0" d="M52.5,65.6c2.3-1.4,4.4-2.8,7.2-2.8h0l0,0c0.8,0.1,1.6,0.3,2.4,0.5c0.5,0.3,1,0.5,1.5,0.8
		c0.2,0.1,0.3,0.1,0.5-0.1c0.5-1,1.1-1.9,1.6-2.9c0.8-1.2,1.6-2.4,2.4-3.5c0.2-0.3,0.2-0.4-0.2-0.5c-2.5-0.8-5-0.8-7.5-0.1
		c-0.2,0-0.3,0-0.5,0.1c-2,0.6-3.8,1.5-5.5,2.7c-1,0.7-2,1.5-2.7,2.7c-0.8,1-1.6,2.1-2.2,3.2c-0.5,0.7-0.8,1.5-1.3,2.2
		c-1.5,2.6-1.7,5.7-1.8,6.8C47,73.3,48.4,68.2,52.5,65.6z"/>
	<path class="st0" d="M71.2,44.6c0.5,0.1,0.9,0.4,1.3,0.6c0.5,0.4,1,0.8,1.4,1.2c0.2,0.3,0.3,0.2,0.5,0c0.6-0.8,1.4-1.5,2.2-2.1
		c1.2-0.9,2.6-1.3,4-1.5c1.1,0,2.2,0,3.2,0.3c3.5,1,5.9,3.5,6.2,3.8c0.1,0.1,0.3,0.3,0.4,0.2c0.2-0.1,0-0.3-0.1-0.5
		c-0.2-0.6-2.9-8.4-13.5-6.1c-2.3,0.5-4.1,1.8-5.8,3.4C70.8,44.2,70.6,44.4,71.2,44.6z"/>
	<path class="st0" d="M48.4,66.1L48.4,66.1L48.4,66.1c0.6-0.9,1.2-1.8,1.9-2.7c-0.7,0-1.4,0.1-1.5,0.1C46.3,64,44,65,41.9,66.6
		c-1.7,1.3-3.1,2.8-3.9,4.9v0c-0.8,1.7-0.9,3.6-1.1,5.4c-0.1,1.4-0.2,2.9-1,4.2c-0.7,1.2-1.8,1.4-2.9,0.6c-0.3-0.4-0.5-0.9-0.4-1.4
		c0.1-0.5,0.5-0.8,1.1-0.9c0.4,0,0.6,0.2,0.7,0.6c0.1,0.5-0.3,0.6-0.7,0.7c0,0,0,0.1-0.1,0.1c0.6,0.6,1.4,0.5,1.8-0.2
		c0.3-0.6,0.2-1.4-0.5-2c-1-0.9-2.7-0.7-3.6,0.4c-1.2,1.3-1,3.3,0.3,4.7l0,0v0c0.8,0.9,2,1.1,3.1,1.1c3.6-0.2,5.8-2.4,6.6-5.5
		c0.2-0.4,0.3-0.7,0.5-1.1c0.9-1.5,1.9-3,4-3c0.2,0,0.2-0.1,0.2-0.3c0-0.8,0-1.6-0.1-2.4c0.1-0.4,0.1-0.8,0.2-1.1
		C46.6,69.6,47.5,67.8,48.4,66.1z"/>
	<path class="st0" d="M71.3,84.2c-0.3,0.1-0.4-0.1-0.6-0.3c-0.1-0.2-0.2-0.4-0.4-0.6c0,0.2,0,0.3,0,0.4c0,0.8,0.4,1.2,1,1.3
		c0.6,0,1.1-0.4,1.2-1.2c0.1-0.6,0-1.2-0.3-1.8c-0.5-1.7-1.5-3-2.9-4.1c-0.4-0.3-0.5-0.3-0.8,0.1c-0.2,0.4-0.7,0.6-1.1,0.8
		c-0.8,0.3-1.6,0.4-2.4,0.4c-0.4-0.1-0.9-0.1-1.3-0.3c-0.4-0.1-0.6,0-0.5,0.4c0,0.5,0.3,3,1.1,3.9c1.5-1.5,3.2-2.2,5.3-1.5h0l0,0
		c0.6,0.4,1.3,0.8,1.7,1.4c0.1,0.2,0.1,0.3,0.2,0.5C71.5,83.8,71.6,84.1,71.3,84.2z"/>
	<path class="st0" d="M51.7,71.9c-0.9,0.3-1.1,1.1-1.2,2c0.6-0.6,1-1.3,1.9-0.7h0v0c0.3,0.5,0.1,0.8-0.3,1.2c-0.5,0.5-1,0.2-1.5,0
		C50,73.8,49.9,73,50,72.2c0.2-0.7,0.5-1.4,0.8-2.1l0,0c0,0,0.1,0,0.1-0.1c1.9-2.8,4.5-4.6,7.7-5.7c0.9-0.3,1.9-0.4,2.8-0.6
		c-1.3-0.3-2.6-0.4-3.9,0c-0.1,0-0.2,0-0.3,0c-2.9,0.9-5.3,2.6-7.2,4.9h0c-0.7,0.8-1.4,1.7-1.8,2.7c-0.3,0.5-0.5,1-0.6,1.5
		c-0.3,1.2-0.2,2.3,0.7,3.2c0.4,0.5,1,0.9,1.7,0.9c1.7,0.5,3.7-0.8,4.1-2.6c0.2-0.8,0.1-1.5-0.5-2C53.2,71.7,52.5,71.6,51.7,71.9z"
		/>
	<path class="st0" d="M66.9,55.8C66.9,55.8,66.9,55.8,66.9,55.8C66.9,55.9,66.9,55.9,66.9,55.8C67,55.9,66.9,55.8,66.9,55.8z"/>
	<path class="st0" d="M68.6,56.7c0,0-1.1-1.5-4-2.9c0.3,0.2,0.5,0.3,0.8,0.5C66.6,54.9,67.6,55.8,68.6,56.7z"/>
	<path class="st0" d="M65,53.1L65,53.1c0.6,0.3,1.7,1,2.1,1.4c-0.3-0.5-0.6-0.9-1-1.3c-2.2-2.2-4.7-2.7-5.9-3.1
		c-4.3-1.2-2.5-3.4-1-2.5c0.4,0.3,1,1.4,1,1.8c0.6-1.4,0.4-2.7-1.2-3.1c-2-0.6-4.8,1.2-4.4,3.8c0,0.1,0.1,0.3,0.1,0.4
		C58.7,50.7,62.1,51.6,65,53.1L65,53.1z"/>
	<path class="st0" d="M65.4,54.3c-0.3-0.2-0.5-0.4-0.8-0.5c-2.2-1.1-5.5-2.2-10-2.6c-1.3,0-2.7,0.1-4.2,0.4
		c-1.7,0.3-3.4,0.9-5.2,1.9c-1.9,1-3.6,2.2-5.1,3.6c-2.4,2.1-4.7,4.4-7.2,6.4c-1.5,1.2-3,2.2-4.9,2.5c-1.4,0.2-2.4-0.1-2.9-1.1l0,0
		v0c0-0.1-0.1-0.2-0.1-0.4c-0.2-0.8,0.2-1.5,0.9-1.6c0.8-0.1,1.2,0.4,1.3,1.3c0,0.2-0.1,0.4,0.1,0.5c0.7-0.9,0.8-1.8,0.4-2.5
		c-0.5-0.9-1.3-1.2-2.2-1.2c-2.3,0-3.9,2.5-2.9,4.8l0,0h0c0.5,1.2,1.2,2.1,2.4,2.7c0.2,0.1,0.4,0.2,0.6,0.3c1.7,0.6,3.3,0.3,4.9-0.3
		c1.3-0.5,2.5-1.3,3.6-2l0,0l0,0c-0.1,0.2-0.3,0.3-0.4,0.5c-1.5,1.3-3,2.7-4.1,4.4v0h0c-0.8,1.1-1.5,2.3-1.9,3.6
		c-0.3,0.3-0.3,0.7-0.5,1.1c-0.9,2.4-1.7,4.7-2.6,7.1c-0.4,0.6-0.8,1.3-1.3,1.9c-1.1,1.4-2.4,2.5-4.4,2.1c0,0-1.1-0.3-1.5-1.3
		c-0.2-0.6-0.2-1.1,0.2-1.4c0.4-0.4,0.9-0.4,1.4-0.1c0.5,0.3,0.6,0.7,0.4,1.3c0,0.1-0.1,0.2,0,0.3c0.1,0.1,0.2,0,0.3,0
		c0.2-0.1,0.3-0.2,0.4-0.4c0.5-0.7,0.3-1.5-0.5-2.1c-0.8-0.6-1.6-0.7-2.5-0.3c-1.1,0.5-1.9,1.3-2,2.6c-0.2,1.5,0.5,2.6,1.7,3.5
		c1.4,1.2,3.5,1.2,4.2,1.1c3.1-0.5,5.6-2.1,7.8-4.2l0,0c0.7-0.5,1.3-1.2,1.9-1.8c0.1-0.1,0.2-0.2,0.1-0.4c-0.4-0.7-0.5-1.4-0.7-2.2
		l0,0l0,0c0-1.1,0.2-2.1,0.6-3.1c1.2-2.9,3-5.4,5-7.8c3.2-3.6,7-6.2,11.8-7.3c1.1-0.2,2.2-0.3,3.4-0.5c-0.4-0.2-0.8-0.3-1.1-0.4
		c-0.9-0.4-1.5-0.5-2.4-0.7h0v0c-1.5-0.2-3.8-0.1-5,0.2c-2.2,0.6-4.3,1.6-6.2,2.9c-0.2,0.1-0.3,0.4-0.5,0.2l0,0c0,0,0,0,0,0
		c0.2-0.2,0.4-0.3,0.7-0.5c3.3-2.9,7.1-4.2,11.6-3.3h0l0,0c1.5,0.3,2.3,1.1,2.8,0.8c0.4-0.2,0.8-0.5,1.1-0.8c1-1.2,2.1-2.1,3.3-3
		c2.5-1.7,5.3-2.7,8.4-2.7c1.7,0.1,3.5,0.4,5.1,1C67.6,55.8,66.6,54.9,65.4,54.3z M40.4,57.3L40.4,57.3L40.4,57.3
		C40.4,57.3,40.4,57.3,40.4,57.3C40.4,57.3,40.4,57.3,40.4,57.3C40.4,57.3,40.4,57.3,40.4,57.3z M66.9,55.8
		C66.9,55.8,67,55.9,66.9,55.8C66.9,55.9,66.9,55.9,66.9,55.8C66.9,55.8,66.9,55.8,66.9,55.8z"/>
</g>
</svg>
