<?xml version="1.0" encoding="utf-8"?>
<!-- Generator: Adobe Illustrator 21.1.0, SVG Export Plug-In . SVG Version: 6.00 Build 0)  -->
<svg version="1.1" id="Layer_1" xmlns="http://www.w3.org/2000/svg" xmlns:xlink="http://www.w3.org/1999/xlink" x="0px" y="0px"
	 viewBox="0 0 128 128" style="enable-background:new 0 0 128 128;" xml:space="preserve">
<style type="text/css">
	.st0{fill:#FFFFFF;}
</style>
<path d="M64,128L64,128C28.7,128,0,99.3,0,64v0C0,28.7,28.7,0,64,0h0c35.3,0,64,28.7,64,64v0C128,99.3,99.3,128,64,128z"/>
<g>
	<path class="st0" d="M36,16c1.6,1.4,3,2.7,4.5,4c7.6,6.7,15.2,13.5,22.7,20.2c0.3,0.3,0.5,0.6,0.5,1c0,10,0,19.9,0,29.9
		c0,0.5-0.1,0.7-0.6,0.8c-1.1,0.3-2.1,0.8-3.2,1.2c0,0-0.2-0.2-0.3-0.3C51.7,65,44,57.3,36.3,49.6c-0.2-0.2-0.3-0.5-0.3-0.7
		c0-10.8,0-21.6,0-32.4C35.9,16.3,35.9,16.2,36,16z"/>
	<path class="st0" d="M56.5,76.4c-0.4,1.1-0.9,2.4-1.4,3.6c-0.1,0.2-0.3,0.3-0.5,0.3c-0.6,0-1.3,0-1.9,0c-5.3,0-10.6,0-15.9,0
		c-0.2,0-0.5,0-0.8,0c0-8.2,0-16.4,0-24.6C42.8,62.6,49.7,69.5,56.5,76.4z"/>
	<path class="st0" d="M46.2,104.9c4.5-4.5,8.9-9,13.3-13.4c1.4,0.6,2.7,1.1,4.1,1.7c0,6.2,0,12.5,0,18.9
		C57,111.5,51.2,109.1,46.2,104.9z"/>
	<path class="st0" d="M85.2,104.8c-5,4.3-10.8,6.7-17.4,7.2c0-0.3,0-0.5,0-0.7c0-5.9,0-11.8,0-17.6c0-0.5,0.1-0.7,0.6-0.8
		c1.1-0.4,2.1-0.9,3.1-1.3c0.2-0.1,0.5-0.1,0.6,0C76.5,96,80.8,100.4,85.2,104.8z"/>
	<path class="st0" d="M36,84.4c0.3,0,0.5,0,0.7,0c5.9,0,11.8,0,17.7,0c0.5,0,0.7,0.1,0.9,0.6c0.4,1.1,0.9,2.2,1.3,3.3
		c-4.4,4.4-8.8,8.9-13.3,13.4C38.9,96.9,36.6,91.1,36,84.4z"/>
	<path class="st0" d="M85.2,59.9c-4.5,4.5-8.9,9-13.3,13.4c-1.3-0.5-2.6-0.9-3.8-1.4c-0.1-0.1-0.2-0.3-0.3-0.4c0-0.1,0-0.2,0-0.3
		c0-5.9,0-11.7,0-17.6c0-0.2,0-0.4,0-0.7C74.4,53.2,80.2,55.6,85.2,59.9z"/>
	<path class="st0" d="M88.2,62.9c4.3,5,6.7,10.8,7.2,17.4c-6.4,0-12.7,0-18.9,0c-0.6-1.4-1.1-2.7-1.6-3.9
		C79.3,71.9,83.7,67.4,88.2,62.9z"/>
	<path class="st0" d="M95.4,84.4c-0.5,6.5-2.9,12.2-7,17.1c-4.5-4.5-9-9-13.4-13.5c0.4-1,0.8-2.2,1.2-3.3c0.1-0.2,0.4-0.3,0.6-0.3
		c1.6,0,3.1,0,4.7,0c4.4,0,8.7,0,13.1,0C94.9,84.4,95.1,84.4,95.4,84.4z"/>
</g>
</svg>
