<?xml version="1.0" encoding="utf-8"?>
<!-- Generator: Adobe Illustrator 21.1.0, SVG Export Plug-In . SVG Version: 6.00 Build 0)  -->
<svg version="1.1" id="Layer_1" xmlns="http://www.w3.org/2000/svg" xmlns:xlink="http://www.w3.org/1999/xlink" x="0px" y="0px"
	 viewBox="0 0 128 128" style="enable-background:new 0 0 128 128;" xml:space="preserve">
<style type="text/css">
	.st0{fill:#FFFFFF;}
</style>
<path d="M64,128L64,128C28.7,128,0,99.3,0,64v0C0,28.7,28.7,0,64,0h0c35.3,0,64,28.7,64,64v0C128,99.3,99.3,128,64,128z"/>
<g>
	<path class="st0" d="M43.3,100.1c0-6.1,0-11.9,0-18.1c-6.6,0-13.1,0-19.7,0c0-3.6,0-7,0-10.5c6.5,0,12.9,0,19.5,0
		c0-5.7,0-11.2,0-16.9c-6.4,0-12.9,0-19.5,0c0-3.6,0-7,0-10.6c6.5,0,12.9,0,19.6,0c0-5.6,0-11.1,0-16.6c0.6-0.1,1-0.1,1.4-0.1
		c10.8,0,21.6-0.1,32.4,0.1c5,0.1,9.9,1.2,14.1,4.3c8.4,6.2,9.5,17.2,2.5,25c-0.6,0.7-1.3,1.4-2,2.1c3.8,1.8,6.9,4.1,9.2,7.5
		c6.6,9.6,3.7,21.9-6.7,28.5c-5.9,3.7-12.5,5.2-19.2,5.4c-10.2,0.3-20.4,0.1-30.6,0.1C44.1,100.3,43.8,100.2,43.3,100.1z M57.2,67.1
		c0,7.2,0,14.2,0,20.9c7.1,0,14.2,0.3,21.1-0.1c2.9-0.2,6-1.3,8.6-2.7c5.6-3,6-10.5,0.8-14.1c-2.4-1.7-5.3-2.9-8.2-3.6
		C72.2,65.7,64.7,66.7,57.2,67.1z M57.2,58.3c4.3-0.3,8.3-0.4,12.3-0.9c3-0.4,6.1-1.1,8.9-2.2c3.9-1.6,5.8-5.2,5.4-9.1
		c-0.4-3.5-2.9-6.4-6.9-7.3c-6.5-1.6-13.1-0.6-19.8-0.9C57.2,44.7,57.2,51.3,57.2,58.3z"/>
</g>
</svg>
