<?xml version="1.0" encoding="utf-8"?>
<!-- Generator: Adobe Illustrator 21.1.0, SVG Export Plug-In . SVG Version: 6.00 Build 0)  -->
<svg version="1.1" id="Layer_1" xmlns="http://www.w3.org/2000/svg" xmlns:xlink="http://www.w3.org/1999/xlink" x="0px" y="0px"
	 viewBox="0 0 128 128" style="enable-background:new 0 0 128 128;" xml:space="preserve">
<style type="text/css">
	.st0{fill:#FFFFFF;}
</style>
<path d="M64,128L64,128C28.7,128,0,99.3,0,64v0C0,28.7,28.7,0,64,0h0c35.3,0,64,28.7,64,64v0C128,99.3,99.3,128,64,128z"/>
<g>
	<path class="st0" d="M69,98.5c-0.7,0-1.2,0.1-1.7,0.1c-6.6,0-13.1,0-19.7,0c-13.5,0-24.7-8.9-27.7-21.9C17,64,23.4,50.8,35.1,45.3
		c0.4-0.2,0.8-0.4,1.4-0.8c-2.9-2.5-5.6-5-8.4-7.4c-2.8-2.4-5.6-4.9-8.6-7.5c0.6-0.1,0.9-0.2,1.2-0.2c5.8,0,11.6-0.1,17.3,0
		c0.8,0,1.7,0.4,2.3,0.9c9.2,7.9,18.4,15.9,27.6,23.9c0.4,0.3,0.8,0.5,1.2,0.8c-0.1,0.2-0.2,0.4-0.2,0.5c-0.6,0-1.2,0-1.8,0
		c-6.5,0-12.9-0.1-19.4,0C41.6,55.7,37,58.3,34,63.7C29.5,72,34.6,83.2,43.8,85c3.1,0.6,6.4,0.4,9.5,0.6c0.5,0,1.1,0.1,1.5,0.4
		c4.5,3.9,9,7.8,13.5,11.7C68.5,97.8,68.7,98.1,69,98.5z"/>
	<path class="st0" d="M108.6,98.5c-1.4,0-2.5,0-3.5,0c-5,0-10,0.1-15,0c-0.8,0-1.8-0.3-2.5-0.9c-9.4-8.1-18.7-16.2-28.1-24.3
		c-0.2-0.1-0.3-0.4-0.6-0.8c0.7,0,1.3-0.1,1.8-0.1c6.5,0,12.9,0,19.4,0c6.1,0,10.8-2.6,13.8-8.1c4.2-7.8,0.2-17.8-8.1-20.8
		c-3.1-1.1-6.3-1.1-9.4-1c-1.9,0.1-3.4-0.4-4.9-1.7C67.8,37.3,63.8,34,60,30.6c-0.3-0.2-0.6-0.4-1.1-0.8c0.5-0.2,0.7-0.4,0.8-0.4
		c7.8,0,15.5,0,23.3,0.1c5.3,0.1,9.9,2,14.2,5.1c5.8,4.2,9.4,9.8,11,16.7c1.3,5.8,0.7,11.5-1.6,17c-2.6,6-6.8,10.6-12.6,13.7
		c-0.4,0.2-0.8,0.3-1.2,0.5c-0.3,0.2-0.6,0.4-1.3,0.8C97.2,88.5,102.7,93.3,108.6,98.5z"/>
</g>
</svg>
