<?xml version="1.0" encoding="utf-8"?>
<!-- Generator: Adobe Illustrator 21.1.0, SVG Export Plug-In . SVG Version: 6.00 Build 0)  -->
<svg version="1.1" id="Layer_1" xmlns="http://www.w3.org/2000/svg" xmlns:xlink="http://www.w3.org/1999/xlink" x="0px" y="0px"
	 viewBox="0 0 128 128" style="enable-background:new 0 0 128 128;" xml:space="preserve">
<style type="text/css">
	.st0{fill:#FFFFFF;}
</style>
<path d="M64,128L64,128C28.7,128,0,99.4,0,64v0C0,28.7,28.7,0,64,0h0c35.3,0,64,28.7,64,64v0C128,99.4,99.3,128,64,128z"/>
<path class="st0" d="M64,117.3C64,117.3,64,117.3,64,117.3c-0.4,0-0.8-0.1-1.1-0.3L29.2,95.8c-0.3-0.2-0.6-0.5-0.7-0.8
	c-0.1-0.1-0.1-0.3-0.1-0.4c-0.1-0.3-0.1-0.5,0-0.8c0,0,0-0.1,0-0.1l11-50.2c0-0.2,0.1-0.3,0.2-0.5c0,0,0,0,0,0c0,0,0,0,0,0
	c0,0,0,0,0,0c0,0,0,0,0,0l0,0c0,0,0,0,0,0l0,0c0,0,0,0,0,0c0,0,0,0,0,0c0,0,0,0,0,0c0,0,0,0,0,0c0,0,0,0,0,0c0,0,0,0,0,0
	c0-0.1,0.1-0.2,0.2-0.3l22.7-31c0.4-0.5,1-0.8,1.6-0.8c0,0,0,0,0,0c0.6,0,1.2,0.3,1.6,0.8l22.7,31c0.2,0.2,0.3,0.5,0.4,0.8l11,50.2
	c0,0,0,0.1,0,0.1c0,0,0,0,0,0c0,0,0,0,0,0c0,0.3,0,0.6,0,0.8l0,0c0,0,0,0,0,0l0,0c0,0.1-0.1,0.2-0.1,0.4c0,0,0,0,0,0l0,0
	c-0.2,0.3-0.4,0.6-0.7,0.8L65.1,117C64.8,117.2,64.4,117.3,64,117.3z M37.2,96.1l23.2,14.6l-4.6-14.6H37.2z M72.2,96.1l-4.6,14.6
	l23.2-14.6H72.2z M60,96.1l4,12.6l4-12.6H60z M73.5,92.1h20.8L81,68.6L73.5,92.1z M58.7,92.1h10.6l9-28.3L64,38.6L49.7,63.8
	L58.7,92.1z M33.7,92.1h20.8L47,68.6L33.7,92.1z M82.6,63.4L93,81.6l-6.6-30.1L82.6,63.4z M41.6,51.6L35,81.6l10.3-18.2L41.6,51.6z
	 M66,34.1L80,58.6l4.6-14.4L66,18.9V34.1z M43.5,44.2L48,58.6L62,34.1V18.9L43.5,44.2z"/>
</svg>
