<?xml version="1.0" encoding="utf-8"?>
<!-- Generator: Adobe Illustrator 21.1.0, SVG Export Plug-In . SVG Version: 6.00 Build 0)  -->
<svg version="1.1" id="Layer_1" xmlns="http://www.w3.org/2000/svg" xmlns:xlink="http://www.w3.org/1999/xlink" x="0px" y="0px"
	 viewBox="0 0 128 128" style="enable-background:new 0 0 128 128;" xml:space="preserve">
<style type="text/css">
	.st0{fill:#FFFFFF;}
</style>
<path d="M64,128L64,128C28.7,128,0,99.3,0,64v0C0,28.7,28.7,0,64,0h0c35.3,0,64,28.7,64,64v0C128,99.3,99.3,128,64,128z"/>
<g>
	<path class="st0" d="M63.8,22.6c3.7-0.1,7.2,0.6,10.2,2.7c1.4,0.9,2.4,0.8,3.6-0.5c2.4-2.6,5-5,7.5-7.6c0.9-0.9,1.8-1.5,2.9-0.2
		c1.1,1.1,0.8,2-0.2,2.9c-2.6,2.6-5,5.2-7.6,7.8c-1.1,1.1-1.3,1.9-0.5,3.3c5.8,10.4,2.9,22.5-8.6,28.1c-1.1,0.5-2.3,0.8-3.5,1
		c-1.4,0.3-1.9,1-1.9,2.5c0.1,3,0.1,6,0,8.9c0,1.6,0.5,2.3,2.1,2.7c6.2,1.5,10.6,5.2,13.3,10.9c2.6,5.5,1.9,15.4-3.8,21.3
		c-4.8,4.9-13.2,6.9-19.5,4.4c-7.5-3-12.1-9.6-12.2-17.5c-0.1-9.6,5.1-16.4,14.3-19c1.4-0.4,2.2-1,2.1-2.5c-0.1-3.4,0-6.8-0.2-10.2
		c0-0.6-1.1-1.4-1.8-1.6c-6-1.6-10.4-5.2-12.9-10.8C41.5,36.2,51.4,21.8,63.8,22.6z M79,92.8c0-7.9-6.9-15.1-14.5-15.1
		c-8-0.1-15.3,7-15.4,15c-0.1,7.9,7.3,15.6,14.9,15.5C72.1,108.1,79,101,79,92.8z M49.3,41.1c0,8.6,6.6,15.6,14.9,15.6
		c7.7,0,14.8-7.1,14.8-15.1c0-7.4-5.5-15.2-14.7-15C55.9,26.7,49.4,32.9,49.3,41.1z"/>
</g>
</svg>
