<?xml version="1.0" encoding="utf-8"?>
<!-- Generator: Adobe Illustrator 21.1.0, SVG Export Plug-In . SVG Version: 6.00 Build 0)  -->
<svg version="1.1" id="Layer_1" xmlns="http://www.w3.org/2000/svg" xmlns:xlink="http://www.w3.org/1999/xlink" x="0px" y="0px"
	 viewBox="0 0 128 128" style="enable-background:new 0 0 128 128;" xml:space="preserve">
<style type="text/css">
	.st0{fill:#FFFFFF;}
</style>
<path d="M64,128L64,128C28.7,128,0,99.3,0,64v0C0,28.7,28.7,0,64,0h0c35.3,0,64,28.7,64,64v0C128,99.3,99.3,128,64,128z"/>
<g>
	<path class="st0" d="M88.4,77.8c-12.4,10-20.2,22.6-24.5,37.6c-4.3-15.1-12.2-27.6-24.5-37.6c2.3-1.8,4.5-3.7,6.9-5.3
		c7.9-5.4,16.8-8.7,26.1-10.9c5.9-1.4,11.9-2.6,17.5-5.2c3.5-1.6,6.5-3.8,8.8-6.9c3.8-5.2,3.5-10.2-1-14.8c-2.5-2.6-5.5-4.5-8.7-6.1
		c-0.3-0.1-0.5-0.3-0.7-0.5c5.2,0.6,10.1,1.9,14.3,5c2.9,2.1,4.8,4.9,5.7,8.4c1.2,4.9,0.3,9.2-3.2,12.9c-3.5,3.7-7.9,6-12.4,8
		c-6.2,2.7-12.8,4.1-19.3,5.6c-7,1.6-13.7,3.8-19.9,7.6c-1.1,0.7-2.2,1.5-3.3,2.3c6.3,6.1,10.1,13.6,13.8,21.4
		c3.7-7.7,7.5-15.2,13.9-21.5c-2.4-1.5-4.8-3-7.3-4.6c2.5-0.6,5-1.1,7.4-1.8c1.2-0.3,2.2-0.1,3.2,0.7C83.4,74,85.9,75.8,88.4,77.8z"
		/>
	<path class="st0" d="M39.5,28c-2.5,1.7-5.2,3.3-7.6,5.2c-1.4,1.1-2.6,2.5-3.5,3.9c-2.4,3.6-2.2,7.3,0,10.9
		c2.8,4.6,6.9,7.5,11.8,9.2c5.1,1.7,10.3,2.9,15.4,4.3c0.3,0.1,0.6,0.2,0.9,0.3c-2.9,1.5-5.7,2.9-8.5,4.3c-0.2,0.1-0.6,0.1-0.9,0.1
		c-7.4-2-14.6-4.4-20.9-8.9c-3.2-2.3-6-5.1-6.8-9.2c-1.1-5.8,0.7-10.8,5.3-14.6C29,30.2,34,28.8,39.2,28C39.4,28,39.6,28,39.5,28z"
		/>
	<path class="st0" d="M72.8,35.9c0,4.8-3.8,8.6-8.6,8.6c-4.7,0-8.5-3.8-8.6-8.5c0-4.7,3.7-8.5,8.5-8.6C69,27.4,72.8,31.1,72.8,35.9z
		"/>
	<path class="st0" d="M57.9,79.1c2.1-0.9,4-1.8,6-2.6c0.3-0.1,0.7-0.1,1,0c1.8,0.8,3.6,1.6,5.4,2.4c-2,3.3-4,6.5-5.9,9.7
		C62.2,85.6,60.1,82.4,57.9,79.1z"/>
	<path class="st0" d="M61.9,26.1c0.7-1.5,1.1-2.8,1.9-4c1.9-2.9,3.1-5.9,2-9.5c1.3,1,1.6,2.4,1.9,3.7c0.8,3.2-0.1,6.2-1.5,9.1
		c-0.1,0.3-0.5,0.6-0.8,0.7C64.3,26.2,63.3,26.1,61.9,26.1z"/>
	<path class="st0" d="M69.7,27.2c1.2-0.4,2.5-1,3.8-1.3c3.3-0.8,6.3-2,8.3-5.1c-0.1,0.4-0.1,0.9-0.2,1.3c-1.4,4.3-4.8,6.5-8.9,7.9
		c-0.2,0.1-0.7-0.1-0.9-0.3C71.2,29,70.5,28.2,69.7,27.2z"/>
	<path class="st0" d="M79.3,53.6c-1.9-0.3-3.4-1.1-4.7-2.1c-2.2-1.7-3.6-4.1-4.5-6.7c-0.1-0.3,0.1-0.9,0.3-1.2
		c0.6-0.8,1.3-1.4,2.2-2.4c0.6,1.6,1.2,3,1.5,4.5c0.6,3,1.8,5.6,4.6,7.3C79,53,79.1,53.3,79.3,53.6z"/>
	<path class="st0" d="M54.2,38.2c-1.4-0.7-2.8-1.3-4-2c-2.1-1.3-4.3-2.4-6.8-2.2c-0.9,0-1.8,0.3-3.1,0.5c2.4-1.7,4.7-2.5,7.2-2.2
		c2,0.2,3.9,1,5.8,1.5c0.7,0.2,1.1,0.6,0.9,1.5C54.1,36,54.2,36.9,54.2,38.2z"/>
	<path class="st0" d="M55.5,30.4c-0.5-1.6-1.2-3.1-1.5-4.6c-0.6-3.1-2-5.6-4.9-7.5c0.4,0,0.9,0,1.2,0.1c4.3,1.4,6.6,4.7,7.9,8.8
		c0.1,0.2-0.1,0.7-0.3,0.9C57.3,28.9,56.5,29.5,55.5,30.4z"/>
	<path class="st0" d="M55.9,41.7c0.9,0.9,1.7,1.8,2.6,2.8c-1,0.4-2.1,1.1-3.3,1.3c-3.6,0.7-6.7,1.9-8.5,5.6
		C45.9,48,50.4,43.4,55.9,41.7z"/>
	<path class="st0" d="M74.1,33.6c1,0.4,2.1,0.7,2.9,1.3c3.1,1.9,6.2,3.8,10.2,2.6c0,0.2,0.1,0.4,0.1,0.6c-1.4,0.5-2.7,1.1-4.1,1.4
		c-3,0.5-5.8,0-8.5-1.5c-0.6-0.3-0.8-0.6-0.7-1.3C74.2,35.8,74.1,34.8,74.1,33.6z"/>
	<path class="st0" d="M66.4,45.8c-0.5,1.2-0.9,2.4-1.6,3.5c-2.7,4.5-2.8,5-2.1,9.9c-1.4-1.4-2.2-3.6-2.2-6.2c0-2.3,0.5-4.5,1.6-6.5
		c0.2-0.3,0.7-0.6,1.2-0.7C64.2,45.8,65.1,45.8,66.4,45.8z"/>
	<path class="st0" d="M60,26.5c-3.6-2-5.4-9.2-3.3-13.5c0,0.6,0.1,1,0.1,1.4c-0.3,2.9,1,5.1,3.1,7c0.9,0.8,1.4,1.6,0.7,2.8
		C60.2,24.9,60.2,25.7,60,26.5z"/>
	<path class="st0" d="M41.7,43.4c3.8,0.1,6.5-1.3,8.7-3.9c0.2-0.3,0.8-0.4,1.1-0.3c1.1,0.2,2.1,0.6,3.2,0.9
		C53.4,43.3,45.9,45.5,41.7,43.4z"/>
	<path class="st0" d="M68.4,45.1c3.2,2.5,5.8,9.5,3.4,12.9c-0.1-0.9,0-1.6-0.2-2.3c-0.4-2.2-1.5-4.1-3.2-5.5
		c-0.9-0.8-1.2-1.6-0.7-2.8C68,46.8,68.2,46,68.4,45.1z"/>
	<path class="st0" d="M67.8,26.3c-0.3-5.1,2.7-10.2,6.7-11.5c-0.7,0.9-1.5,1.6-1.9,2.5c-0.6,1.5-1.1,3.1-1.1,4.7
		c0,1.8-0.5,3-2.2,3.6C68.8,25.7,68.4,26,67.8,26.3z"/>
	<path class="st0" d="M54.1,56.6c2.2-2.1,3.1-4.6,2.9-7.4c-0.1-1.3,0.3-2.2,1.6-2.7c0.7-0.2,1.3-0.7,2-1.1
		C61.3,49.9,57.6,56.3,54.1,56.6z"/>
	<path class="st0" d="M54.5,32.2c-3.3,1.2-9.5-2.1-11.4-6.1c0.4,0.1,0.7,0.2,0.9,0.3c1.9,1.8,4.2,2.5,6.7,2.3
		c1.5-0.1,2.3,0.4,2.8,1.7C53.8,31.1,54.2,31.6,54.5,32.2z"/>
	<path class="st0" d="M73.6,31.6c2.6-3.7,9.5-5.4,12.8-3.4c-1.1,0.1-2.1,0.2-3.1,0.4c-2,0.5-3.5,1.7-4.8,3.2
		c-0.6,0.8-1.3,0.9-2.2,0.6C75.3,32.1,74.4,31.9,73.6,31.6z"/>
	<path class="st0" d="M85,46c-2.3-2.4-5-3.2-8.1-3c-0.8,0.1-1.4-0.2-1.8-1c-0.3-0.8-0.8-1.5-1.3-2.3C77.2,38.3,85,42.6,85,46z"/>
	<path class="st0" d="M41.1,39.5c2.6,0.2,5.1,0,7.4-1.5c0.2-0.2,0.7,0.1,1.2,0.1C47.6,41.5,44.9,41.9,41.1,39.5z"/>
	<path class="st0" d="M78.1,17.1c-2.3,1.5-3.7,3.5-4.3,5.9c-0.1,0.3-0.6,0.6-1.1,1C72.1,20,74.5,16.9,78.1,17.1z"/>
	<path class="st0" d="M52.2,27.1c-4,0.9-6.4-1-7-5.1c0.1-0.1,0.2-0.2,0.3-0.3c0.1,0.3,0.2,0.6,0.3,0.8c1.2,1.9,3.1,3,5.2,3.7
		C51.5,26.3,51.8,26.8,52.2,27.1z"/>
	<path class="st0" d="M50.2,54.8c2.2-1.5,3.6-3.4,4.3-6c0.1-0.4,0.6-0.6,1-1.1C56.2,51.9,55.5,53.3,50.2,54.8z"/>
	<path class="st0" d="M60.5,12.8c0.1,1.4,0.1,3,0.2,4.5c0.1,1.4,1.7,2.4,1.1,4.1C58.7,19.4,58.2,15.5,60.5,12.8z"/>
	<path class="st0" d="M78.6,33.6c2.3-3.3,6-3.8,8.5-1.3c-2.7-0.5-5,0-7.2,1.3C79.7,33.8,79.2,33.6,78.6,33.6z"/>
	<path class="st0" d="M66.4,50.5c3.4,1.8,3.9,5.1,1.3,8.1C68.8,55.7,66.9,53.3,66.4,50.5z"/>
	<path class="st0" d="M76.1,44.4c4.1-0.5,6.3,1.2,7,5.1c-1.1-0.9-2.1-1.9-3.2-2.9C78.8,45.7,76.9,46.1,76.1,44.4z"/>
</g>
</svg>
