<?xml version="1.0" encoding="utf-8"?>
<!-- Generator: Adobe Illustrator 21.1.0, SVG Export Plug-In . SVG Version: 6.00 Build 0)  -->
<svg version="1.1" id="Layer_1" xmlns="http://www.w3.org/2000/svg" xmlns:xlink="http://www.w3.org/1999/xlink" x="0px" y="0px"
	 viewBox="0 0 128 128" style="enable-background:new 0 0 128 128;" xml:space="preserve">
<style type="text/css">
	.st0{fill:#FFFFFF;}
</style>
<path d="M64,128L64,128C28.7,128,0,99.3,0,64v0C0,28.7,28.7,0,64,0h0c35.3,0,64,28.7,64,64v0C128,99.3,99.3,128,64,128z"/>
<polygon class="st0" points="59.5,87.6 64.5,68.6 76.4,64.2 79.4,53 79.3,52.8 67.6,57.1 76,25.2 52,25.2 40.9,66.8 31.7,70.2 
	28.6,81.7 37.9,78.3 31.3,102.8 95.3,102.8 99.4,87.6 "/>
</svg>
