<?xml version="1.0" encoding="utf-8"?>
<!-- Generator: Adobe Illustrator 21.1.0, SVG Export Plug-In . SVG Version: 6.00 Build 0)  -->
<svg version="1.1" id="Layer_1" xmlns="http://www.w3.org/2000/svg" xmlns:xlink="http://www.w3.org/1999/xlink" x="0px" y="0px"
	 viewBox="0 0 128 128" style="enable-background:new 0 0 128 128;" xml:space="preserve">
<style type="text/css">
	.st0{fill:#FFFFFF;}
</style>
<path d="M64,128L64,128C28.7,128,0,99.3,0,64v0C0,28.7,28.7,0,64,0h0c35.3,0,64,28.7,64,64v0C128,99.3,99.3,128,64,128z"/>
<g>
	<path class="st0" d="M63.9,25.1c15.7,0.3,30.4,4.1,44.1,11.7c0.7,0.4,0.9,0.9,0.9,1.6c-0.1,13-3,25.4-8.5,37.1
		c-5.1,11-12.3,20.4-21.3,28.5c-4.4,4-9.2,7.4-14.2,10.4c-0.7,0.4-1.2,0.4-1.9,0c-17.5-10.6-30.2-25.4-37.8-44.4
		c-2.7-6.7-4.6-13.7-5.3-20.9c-0.4-3.6-0.6-7.3-0.8-10.9c0-0.4,0.4-1.1,0.8-1.4c9.5-5.4,19.6-8.9,30.4-10.4
		C54.8,25.9,59.4,25.6,63.9,25.1z M77.6,30.4c-0.7-0.2-1.1-0.3-1.5-0.4c-2.2-0.3-4.4-0.6-6.6-0.7c-7.4-0.5-14.7,0-21.9,1.5
		c-8.3,1.7-16.2,4.6-23.6,8.8c-0.8,0.4-1,0.9-1,1.8c0.3,3.8,0.5,7.6,1,11.4c0.3,2.4,0.6,4.9,1.6,7.1c4.3,9.7,16.1,14,25.6,9.3
		c7.2-3.6,10.7-9.6,11.1-17.6c0.4-9.3,4.8-16.1,13.2-20.2C76.1,31.1,76.7,30.8,77.6,30.4z M86.4,91.4c0.1,0,0.2,0.1,0.3,0.1
		c0.7-1,1.5-2,2.2-3c10.4-14.1,15.7-29.9,15.9-47.5c0-0.7-0.1-1.2-0.8-1.5c-4.1-1.9-8.2-3.9-12.4-5.6c-5.4-2.1-10.8-1.7-15.9,1.1
		C68.3,39,64.2,47.9,66.1,56c1.3,5.6,4.5,9.7,9.4,12.7c7.4,4.5,11,11.2,11,19.9C86.6,89.5,86.5,90.4,86.4,91.4z M28.7,69.8
		c0.2,0.5,0.3,1,0.5,1.5c1.6,3.2,3,6.6,4.8,9.7c7,12.1,16.6,21.8,28.6,29.1c0.9,0.6,1.7,0.7,2.6,0c3.7-2.7,7.4-5.3,11-8
		c1.4-1.1,2.9-2.3,3.9-3.8c2.9-4.6,3.7-9.6,2.4-15c-2-8.3-9.7-14.4-18.2-14.4c-3.6,0-7,0.9-10.1,2.6c-6,3.2-12.2,3.9-18.6,1.7
		C33.2,72.3,31,71,28.7,69.8z"/>
</g>
</svg>
