<?xml version="1.0" encoding="utf-8"?>
<!-- Generator: Adobe Illustrator 21.1.0, SVG Export Plug-In . SVG Version: 6.00 Build 0)  -->
<svg version="1.1" id="Layer_1" xmlns="http://www.w3.org/2000/svg" xmlns:xlink="http://www.w3.org/1999/xlink" x="0px" y="0px"
	 viewBox="0 0 128 128" style="enable-background:new 0 0 128 128;" xml:space="preserve">
<style type="text/css">
	.st0{fill:#FFFFFF;}
</style>
<path d="M64,128L64,128C28.7,128,0,99.3,0,64v0C0,28.7,28.7,0,64,0h0c35.3,0,64,28.7,64,64v0C128,99.3,99.3,128,64,128z"/>
<g>
	<path class="st0" d="M63.1,76.6c0,5.8-4.7,10.6-10.6,10.8c-5.7,0.2-11.2-4.6-11.7-10.3c-0.1-1,0-2,0-3c0-8.2-2.6-10.8-10.7-10.9
		c-7-0.1-10.6-2.3-12.6-7.5c-1.8-4.6-0.6-8.6,2.6-11.9c3.1-3.1,7.2-4,11.5-2.5c4.6,1.6,6.8,5,7.4,9.6c0.1,0.8,0,1.7,0,2.6
		c0,8.4,3,11.4,11.3,11.4C58.5,65,63.1,69.2,63.1,76.6z"/>
	<path class="st0" d="M65.5,52.8c0.3-7.2,4.5-11.6,10.4-11.9c5.6-0.3,10.5,3.9,11.3,9.7c1.7,12.9,1.7,12.9,14.5,14.6
		c6.3,0.8,10.3,5.8,9.8,12c-0.4,5.6-5.4,10.1-11.1,9.9c-5.9-0.2-10.3-4.8-10.5-11c0-1.2,0-2.3,0-3.5c-0.2-6.3-3.7-9.7-10.1-9.8
		c-5-0.1-9.9-0.5-12.6-5.6C66.1,55.5,65.8,53.5,65.5,52.8z"/>
	<path class="st0" d="M87.3,76.3c0,5-3.6,9.5-8.6,10.5c-2.2,0.4-4.6,0.3-6.9,0.4c-5.2,0.3-8.5,3.7-8.8,8.8c-0.1,2.2-0.1,4.3-0.4,6.5
		c-0.9,5.5-6,9.4-11.4,9c-5.7-0.5-10.2-5.3-10.1-11c0.1-5.6,4.3-10.2,9.9-10.7c0.6-0.1,1.1,0,1.7,0c10.1-0.2,12.8-3,12.8-13
		c0-8.1,6.7-13.2,14.2-10.9C84.3,67.2,87.3,71.4,87.3,76.3z"/>
	<path class="st0" d="M52,62.6c-5.9-0.1-10.5-4.4-10.9-10.1c-0.4-5.8,3.8-10.8,9.9-11.6c1.7-0.2,3.4,0,5.2-0.1
		c5.2-0.2,8.5-3.3,9.1-8.5c0.2-2,0.1-4,0.3-6c0.7-6.1,5.5-10,11.6-9.7c5.3,0.3,9.8,5.1,10,10.6c0.1,6-4.2,10.7-10.3,11.2
		c-1,0.1-2,0-3,0c-7.7,0.1-10.9,3.5-10.9,11.2C63.1,57.5,58.7,62.7,52,62.6z"/>
</g>
</svg>
