<?xml version="1.0" encoding="utf-8"?>
<!-- Generator: Adobe Illustrator 21.1.0, SVG Export Plug-In . SVG Version: 6.00 Build 0)  -->
<svg version="1.1" id="Layer_1" xmlns="http://www.w3.org/2000/svg" xmlns:xlink="http://www.w3.org/1999/xlink" x="0px" y="0px"
	 viewBox="0 0 128 128" style="enable-background:new 0 0 128 128;" xml:space="preserve">
<style type="text/css">
	.st0{fill:#FFFFFF;}
</style>
<path d="M64,128L64,128C28.7,128,0,99.3,0,64v0C0,28.7,28.7,0,64,0h0c35.3,0,64,28.7,64,64v0C128,99.3,99.3,128,64,128z"/>
<g>
	<path class="st0" d="M49.8,38.1c-0.9,3-1.6,5.2-2.3,7.5c-4,14.3-7.9,28.7-11.8,43.1c-1.2,4.2-3.9,6.9-8.6,8.3
		c0.2-1.1,0.2-1.9,0.4-2.6c6-21.8,12.1-43.5,18.2-65.2c0.3-1.2,1.7-3.1,2.5-3.1c2.2,0,4.6-0.6,5.9,2.7C61.6,48.5,69.3,68,76.9,87.6
		c0.2,0.6,0.5,1.1,1.1,2.4c0.8-2.7,1.4-4.6,1.9-6.6C84,68.7,88.1,54,92.1,39.3c1.2-4.3,3.8-6.9,8.7-8.3c-0.5,1.9-0.8,3.2-1.1,4.6
		C94,56.5,88.3,77.3,82.5,98.2c-0.4,1.5-0.1,4-3,3.8c-2.6-0.2-4.6-0.2-5.9-3.5C66.5,79.6,59,60.9,51.6,42.2
		C51.1,41,50.6,40,49.8,38.1z"/>
	<path class="st0" d="M45,26c-1,3.5-1.8,6.5-2.6,9.5c-5.3,19-10.6,38-15.9,57c-1.4,5.1-1.5,5.1-7,3.6c3.8-13.7,7.6-27.4,11.3-41.1
		c1.9-6.8,3.8-13.6,5.6-20.4C37.7,30.4,40.1,27.5,45,26z"/>
	<path class="st0" d="M108.2,31.6c-3.5,12.6-6.8,25-10.3,37.3c-2.3,8.4-4.6,16.7-7,25.1c-1.1,3.8-3.4,6.3-7.9,7.7
		c1.8-6.7,3.4-12.8,5.1-18.9c4.3-15.6,8.6-31.1,12.9-46.6C102.5,31,102.5,31,108.2,31.6z"/>
</g>
</svg>
