<?xml version="1.0" encoding="utf-8"?>
<!-- Generator: Adobe Illustrator 21.1.0, SVG Export Plug-In . SVG Version: 6.00 Build 0)  -->
<svg version="1.1" id="Layer_1" xmlns="http://www.w3.org/2000/svg" xmlns:xlink="http://www.w3.org/1999/xlink" x="0px" y="0px"
	 viewBox="0 0 128 128" style="enable-background:new 0 0 128 128;" xml:space="preserve">
<style type="text/css">
	.st0{fill:#FFFFFF;}
</style>
<path d="M64,128L64,128C28.7,128,0,99.3,0,64v0C0,28.7,28.7,0,64,0h0c35.3,0,64,28.7,64,64v0C128,99.3,99.3,128,64,128z"/>
<g>
	<path class="st0" d="M102.2,97.1c0,3-2.1,5.2-5.1,5.2c-7,0-14,0.1-21,0c-12.5-0.3-23-10.1-24.4-22.6c-0.5-4.5,0.2-8.7,1.9-12.8
		c2.4-5.8,1.6-10.1-2.8-14.5c-4.7-4.7-9.4-9.3-14-14c-1.5-1.5-3.1-2.1-5.2-1.9c-3.2,0.3-5.9-2.1-6.1-5.2c-0.1-3,2.4-5.5,5.4-5.6
		c3.2,0,5.6,2.5,5.4,5.8c-0.2,2.3,0.6,4,2.2,5.6c4.6,4.5,9.2,9.2,13.8,13.8c4.4,4.4,8.8,5.3,14.5,2.8c15-6.4,32.3,2.8,34.9,18.7
		C102.5,77,102.3,93.6,102.2,97.1z M92.1,81.8C92.1,81.8,92.1,81.8,92.1,81.8c0-1.4,0-2.9,0-4.3c0.1-11.4-9.7-16.7-17-15.7
		c-7.5,1-13.4,7.3-13.4,14.8c-0.1,7.9,5.6,14.5,13.2,15.2c4.3,0.4,8.6,0.3,12.9,0.2c2.5,0,4.1-1.7,4.2-4.3
		C92.1,85.8,92.1,83.8,92.1,81.8z"/>
</g>
</svg>
