<?xml version="1.0" encoding="utf-8"?>
<!-- Generator: Adobe Illustrator 21.1.0, SVG Export Plug-In . SVG Version: 6.00 Build 0)  -->
<svg version="1.1" id="Layer_1" xmlns="http://www.w3.org/2000/svg" xmlns:xlink="http://www.w3.org/1999/xlink" x="0px" y="0px"
	 viewBox="0 0 128 128" style="enable-background:new 0 0 128 128;" xml:space="preserve">
<style type="text/css">
	.st0{fill:#FFFFFF;}
</style>
<path d="M64,128L64,128C28.7,128,0,99.3,0,64v0C0,28.7,28.7,0,64,0h0c35.3,0,64,28.7,64,64v0C128,99.3,99.3,128,64,128z"/>
<path class="st0" d="M63.9,104c-0.4,0-0.7-0.1-1.1-0.3L21.3,77.5c-0.9-0.6-1.2-1.8-0.6-2.8c0.6-0.9,1.8-1.2,2.8-0.6l40.5,25.5
	l39.7-25.5v-7.2L64.4,91.6c-0.7,0.4-1.5,0.4-2.2,0L21.3,65c-0.6-0.4-0.9-1-0.9-1.7V51.4c0-0.1,0-0.2,0-0.3c0-0.1,0-0.2,0.1-0.3
	c0.1-0.4,0.4-0.8,0.7-1c0,0,0.1,0,0.1-0.1l41.6-27.3c0.7-0.4,1.5-0.4,2.2,0l41.4,27.4c0.6,0.4,0.9,1,0.9,1.7c0,0.7-0.4,1.3-0.9,1.7
	L65.1,79.4c-0.7,0.4-1.5,0.4-2.1,0L24.4,55v7.2l39,25.4l41.1-26c0.6-0.4,1.4-0.4,2-0.1c0.6,0.4,1,1,1,1.8v11.9
	c0,0.7-0.3,1.3-0.9,1.7L65,103.7C64.7,103.9,64.3,104,63.9,104z M26.1,51.3l37.9,24l37.8-24L64,26.4L26.1,51.3z"/>
</svg>
