<?xml version="1.0" encoding="utf-8"?>
<!-- Generator: Adobe Illustrator 21.1.0, SVG Export Plug-In . SVG Version: 6.00 Build 0)  -->
<svg version="1.1" id="Layer_1" xmlns="http://www.w3.org/2000/svg" xmlns:xlink="http://www.w3.org/1999/xlink" x="0px" y="0px"
	 viewBox="0 0 128 128" style="enable-background:new 0 0 128 128;" xml:space="preserve">
<style type="text/css">
	.st0{fill:#FFFFFF;}
</style>
<path d="M64,128L64,128C28.7,128,0,99.3,0,64v0C0,28.7,28.7,0,64,0h0c35.3,0,64,28.7,64,64v0C128,99.3,99.3,128,64,128z"/>
<g>
	<path class="st0" d="M19,96.5c0.8-3.2,1.5-6.1,2.3-9.2c3.6,0.3,5.3-1.7,6.3-4.7c1.6-5.1,3.1-10.3,4.7-15.9c-4.1,2-7.9,0.6-12,1.3
		c0.6-2.6,1.1-4.9,1.8-7.2c0.1-0.3,1-0.6,1.5-0.6c3.3-0.1,6.6,0,9.9,0c1.2-4.4,2.3-8.8,3.5-13.1c1.1-3.8,2.7-7.3,4.9-10.6
		c4.9-7.3,14.5-6.2,18.6,0.2c2.8,4.3,4.3,9.1,5.6,14c2.6,10.2,5.1,20.4,7.7,30.6c0.4,1.4,0.9,2.8,1.6,4c1,1.9,2.6,2,3.4,0
		c1.3-3.4,2.4-6.9,3.4-10.5c2.5-9.7,4.9-19.5,7.4-29.3c1-3.9,3-7.4,5.7-10.5c1.9-2.1,4.2-3.4,7.1-3.5c2.2-0.1,4.3,0,6.7,0
		c-0.8,3.2-1.5,6.1-2.3,9.2c-3.8-0.5-5.5,1.8-6.4,4.8c-1.6,5.1-3,10.2-4.5,15.6c4.1-1.9,7.9-0.6,12-1.1c-0.7,2.8-1.3,5.2-1.9,7.7
		c-3.8,0-7.5,0-11.3,0c-0.7,2.8-1.4,5.5-2.1,8.2c-1.5,5.6-3,11.2-6.6,15.9c-4.6,6-12.8,6.1-17.5,0.2c-3-3.7-4.5-8.1-5.6-12.6
		c-2.8-10.5-5.4-21.1-8.1-31.7c-0.5-1.8-1.1-3.6-1.9-5.3c-0.3-0.6-1.2-1.4-1.8-1.4c-0.5,0-1.4,0.8-1.6,1.4c-1.3,4-2.6,7.9-3.7,11.9
		c-2.4,9.2-4.5,18.5-7.1,27.6c-0.9,3.3-2.8,6.4-4.6,9.4c-1.9,3.1-4.9,4.8-8.6,4.9C23.2,96.5,21.2,96.5,19,96.5z"/>
</g>
</svg>
