<?xml version="1.0" encoding="utf-8"?>
<!-- Generator: Adobe Illustrator 21.1.0, SVG Export Plug-In . SVG Version: 6.00 Build 0)  -->
<svg version="1.1" id="Layer_1" xmlns="http://www.w3.org/2000/svg" xmlns:xlink="http://www.w3.org/1999/xlink" x="0px" y="0px"
	 viewBox="0 0 128 128" style="enable-background:new 0 0 128 128;" xml:space="preserve">
<style type="text/css">
	.st0{fill:#FFFFFF;}
</style>
<path d="M64,128L64,128C28.7,128,0,99.3,0,64v0C0,28.7,28.7,0,64,0h0c35.3,0,64,28.7,64,64v0C128,99.3,99.3,128,64,128z"/>
<g>
	<path class="st0" d="M40.7,55.4l4.6,4.3c1.4,1.3,3.5,1.3,4.9,0l9.3-8.6c2.6-2.4,6.5-2.4,9.1,0l9.3,8.6c1.4,1.3,3.5,1.3,4.9,0
		l4.6-4.3l7-7c1.3-1.3,1.3-3.5,0-4.9L71.3,20.4c-4-4-10.5-4-14.5,0L33.7,43.5c-1.4,1.4-1.4,3.5,0,4.9L40.7,55.4z"/>
	<path class="st0" d="M104.8,58.8l-5.7-5.4c-1.4-1.3-3.5-1.3-4.9,0L84.9,62c-2.6,2.4-6.5,2.4-9.1,0l-9.3-8.6c-1.4-1.3-3.5-1.3-4.9,0
		L52.3,62c-2.6,2.4-6.5,2.4-9.1,0l-9.3-8.6c-1.4-1.3-3.5-1.3-4.9,0l-5.2,4.9c-4.8,4.5-9.9,6.5-3.3,13.1l36.3,36.3c4,4,10.5,4,14.5,0
		l36.3-36.3C113.8,65,109.4,63.1,104.8,58.8z"/>
</g>
</svg>
