<?xml version="1.0" encoding="utf-8"?>
<!-- Generator: Adobe Illustrator 21.1.0, SVG Export Plug-In . SVG Version: 6.00 Build 0)  -->
<svg version="1.1" id="Layer_1" xmlns="http://www.w3.org/2000/svg" xmlns:xlink="http://www.w3.org/1999/xlink" x="0px" y="0px"
	 viewBox="0 0 128 128" style="enable-background:new 0 0 128 128;" xml:space="preserve">
<style type="text/css">
	.st0{fill:#FFFFFF;}
</style>
<path d="M64,128L64,128C28.7,128,0,99.3,0,64v0C0,28.7,28.7,0,64,0h0c35.3,0,64,28.7,64,64v0C128,99.3,99.3,128,64,128z"/>
<g>
	<path class="st0" d="M56.6,32.4c0-4.1,0-7.7,0-11.5c4.8,0,9.4,0,14.4,0c0,3.7,0,7.4,0,11.4c5.9,0,11.4,0,17.5,0
		c-0.6,5.5,1.4,10.8-2.8,15.9C77.4,58.3,69.8,69,62,79.4c-0.1,0.1-0.1,0.3-0.2,0.9c9.2,0,18.3,0,27.5,0c0,5.4,0,10.3,0,15.6
		c-6,0-12,0-18.3,0c0,3.9,0,7.4,0,11.2c-4.9,0-9.4,0-14.3,0c0-3.6,0-7.1,0-11c-6.1,0-11.9,0-18.1,0c0.3-5.6-1-10.9,3.1-15.9
		c8.4-10.1,16.1-20.8,24-31.3c0.1-0.2,0.2-0.5,0.4-1c-8.5,0-16.8,0-25.3,0c0-5.3,0-10.2,0-15.5C46.1,32.4,51.2,32.4,56.6,32.4z"/>
</g>
</svg>
