<?xml version="1.0" encoding="UTF-8" standalone="no"?>
<svg xmlns="http://www.w3.org/2000/svg" id="Layer_1" data-name="Layer 1" viewBox="0 0 128 128"><defs><style>.cls-1{fill:#3d5a98;}.cls-2{fill:#fff;}</style></defs><title>Artboard 21</title><circle class="cls-1" cx="64" cy="64" r="64" style="fill: #3d5a98;"/><path class="cls-2" d="M92.47,32H35.53A3.53,3.53,0,0,0,32,35.53V92.47A3.53,3.53,0,0,0,35.53,96H66V70H58V62h8V54c0-8.27,5.23-12.33,12.61-12.33A71.64,71.64,0,0,1,86,42v8H81a4.83,4.83,0,0,0-5,5v7H86l-1,8H76V96H92.47A3.53,3.53,0,0,0,96,92.47V35.53A3.53,3.53,0,0,0,92.47,32Z" style="fill: #fff;"/>
	<metadata>
		<rdf:RDF xmlns:rdf="http://www.w3.org/1999/02/22-rdf-syntax-ns#" xmlns:rdfs="http://www.w3.org/2000/01/rdf-schema#" xmlns:dc="http://purl.org/dc/elements/1.1/">
			<rdf:Description about="https://iconscout.com/legal#licenses" dc:title="yumminky-social-media-21" dc:description="yumminky-social-media-21" dc:publisher="Iconscout" dc:date="2017-05-12" dc:format="image/svg+xml" dc:language="en">
				<dc:creator>
					<rdf:Bag>
						<rdf:li>Juraj Sedlák</rdf:li>
					</rdf:Bag>
				</dc:creator>
			</rdf:Description>
		</rdf:RDF>
    </metadata></svg>
