<?xml version="1.0" encoding="UTF-8" standalone="no"?>
<svg xmlns="http://www.w3.org/2000/svg" id="Layer_1" data-name="Layer 1" viewBox="0 0 128 128"><defs><style>.cls-1{fill:#38a8e0;}</style></defs><title>Artboard 12</title><path class="cls-1" d="M104,8a16,16,0,0,1,16,16v80a16,16,0,0,1-16,16H24A16,16,0,0,1,8,104V24A16,16,0,0,1,24,8h80m0-8H24A24.07,24.07,0,0,0,0,24v80a24.07,24.07,0,0,0,24,24h80a24.07,24.07,0,0,0,24-24V24A24.07,24.07,0,0,0,104,0Z" style="fill: #38a8e0;"/><path class="cls-1" d="M99,44.29a28.71,28.71,0,0,1-8.25,2.26,14.4,14.4,0,0,0,6.31-7.95,28.75,28.75,0,0,1-9.12,3.48,14.37,14.37,0,0,0-24.47,13.1,40.77,40.77,0,0,1-29.6-15,14.38,14.38,0,0,0,4.44,19.17,14.3,14.3,0,0,1-6.5-1.8c0,.06,0,.12,0,.18A14.37,14.37,0,0,0,43.33,71.82a14.39,14.39,0,0,1-6.49.25A14.38,14.38,0,0,0,50.26,82a28.81,28.81,0,0,1-17.84,6.15A29.14,29.14,0,0,1,29,88a40.65,40.65,0,0,0,22,6.45c26.42,0,40.86-21.88,40.86-40.86q0-.93,0-1.86A29.18,29.18,0,0,0,99,44.29Z" style="fill: #38a8e0;"/>
	<metadata>
		<rdf:RDF xmlns:rdf="http://www.w3.org/1999/02/22-rdf-syntax-ns#" xmlns:rdfs="http://www.w3.org/2000/01/rdf-schema#" xmlns:dc="http://purl.org/dc/elements/1.1/">
			<rdf:Description about="https://iconscout.com/legal#licenses" dc:title="yumminky-social-media-12" dc:description="yumminky-social-media-12" dc:publisher="Iconscout" dc:date="2017-05-12" dc:format="image/svg+xml" dc:language="en">
				<dc:creator>
					<rdf:Bag>
						<rdf:li>Juraj Sedlák</rdf:li>
					</rdf:Bag>
				</dc:creator>
			</rdf:Description>
		</rdf:RDF>
    </metadata></svg>
