<?xml version="1.0" encoding="UTF-8" standalone="no"?>
<svg xmlns="http://www.w3.org/2000/svg" id="Layer_1" data-name="Layer 1" viewBox="0 0 128 128"><defs><style>.cls-1{fill:#e84c88;}</style></defs><title>Artboard 20</title><path class="cls-1" d="M104,8a16,16,0,0,1,16,16v80a16,16,0,0,1-16,16H24A16,16,0,0,1,8,104V24A16,16,0,0,1,24,8h80m0-8H24A24.07,24.07,0,0,0,0,24v80a24.07,24.07,0,0,0,24,24h80a24.07,24.07,0,0,0,24-24V24A24.07,24.07,0,0,0,104,0Z" style="fill: #e84c88;"/><g id="SVGID"><path class="cls-1" d="M64,27a37,37,0,1,0,37,37A37.08,37.08,0,0,0,64,27Zm4.45,24.87a193.13,193.13,0,0,0-11.83-18.4,19.89,19.89,0,0,1,5.9-.87q.82,0,1.69.06A31.31,31.31,0,0,1,85,40.55c-.61.81-5.46,7.08-16.58,11.32ZM33.07,57.63A30.64,30.64,0,0,1,50.66,35.69a194.59,194.59,0,0,1,11.63,18.2,125.93,125.93,0,0,1-29.22,3.74ZM73.7,62.79c-.2-.51-.51-1.11-.71-1.62-.61-1.62-1.42-3-2.12-4.55C82.6,51.77,87.76,44.89,88.46,44.08A32.3,32.3,0,0,1,95.74,63.8,79.2,79.2,0,0,0,81,62.36a58.77,58.77,0,0,0-7.25.43Zm-39.57.34a113.81,113.81,0,0,0,30.77-4.48c1,1.82,1.82,3.64,2.63,5.46a3.11,3.11,0,0,0-1.31.3C49.95,69.66,41.15,84.12,40.55,85.23A31.66,31.66,0,0,1,32.36,64.1v-1c.25,0,.86,0,1.78,0ZM81.59,90.28a139.44,139.44,0,0,0-6.07-22.54,40.51,40.51,0,0,1,6.58-.52,48.94,48.94,0,0,1,13.13,1.84A32.32,32.32,0,0,1,81.59,90.28ZM64,95.54a32.06,32.06,0,0,1-19.41-6.77c.61-1.11,7.08-13.45,24.77-19.71h.2a133.42,133.42,0,0,1,6.77,24.06A30.86,30.86,0,0,1,64,95.54Z" style="fill: #e84c88;"/></g>
	<metadata>
		<rdf:RDF xmlns:rdf="http://www.w3.org/1999/02/22-rdf-syntax-ns#" xmlns:rdfs="http://www.w3.org/2000/01/rdf-schema#" xmlns:dc="http://purl.org/dc/elements/1.1/">
			<rdf:Description about="https://iconscout.com/legal#licenses" dc:title="yumminky-social-media-20" dc:description="yumminky-social-media-20" dc:publisher="Iconscout" dc:date="2017-05-12" dc:format="image/svg+xml" dc:language="en">
				<dc:creator>
					<rdf:Bag>
						<rdf:li>Juraj Sedlák</rdf:li>
					</rdf:Bag>
				</dc:creator>
			</rdf:Description>
		</rdf:RDF>
    </metadata></svg>
