<?xml version="1.0" encoding="UTF-8" standalone="no"?>
<svg xmlns="http://www.w3.org/2000/svg" id="Layer_1" data-name="Layer 1" viewBox="0 0 128 128"><defs><style>.cls-1{fill:#e84c88;}.cls-2{fill:#fff;}</style></defs><title>Artboard 50</title><path class="cls-1" d="M6.84,42.55V85.45a20,20,0,0,0,10,17.32L54,124.23a20,20,0,0,0,20,0l37.16-21.45a20,20,0,0,0,10-17.32V42.55a20,20,0,0,0-10-17.32L74,3.77a20,20,0,0,0-20,0L16.84,25.23A20,20,0,0,0,6.84,42.55Z" style="fill: #e84c88;"/><g id="SVGID"><path class="cls-2" d="M64,101a37,37,0,1,1,37-37A37.08,37.08,0,0,1,64,101ZM95.24,69.05a47.24,47.24,0,0,0-19.71-1.31,139.44,139.44,0,0,1,6.07,22.54A32.32,32.32,0,0,0,95.24,69.05ZM76.33,93.11a133.41,133.41,0,0,0-6.77-24.06h-.2C51.67,75.32,45.2,87.66,44.59,88.77A32.06,32.06,0,0,0,64,95.54a30.86,30.86,0,0,0,12.33-2.43ZM40.55,85.23c.61-1.11,9.4-15.57,25.68-20.83a3.11,3.11,0,0,1,1.31-.3c-.81-1.82-1.62-3.64-2.63-5.46a111.47,111.47,0,0,1-32.55,4.45v1a31.66,31.66,0,0,0,8.19,21.13Zm-7.48-27.6a125.93,125.93,0,0,0,29.22-3.74,194.56,194.56,0,0,0-11.63-18.2A30.64,30.64,0,0,0,33.07,57.63ZM56.62,33.47a193.12,193.12,0,0,1,11.83,18.4c11.12-4.25,16-10.51,16.58-11.32A31.31,31.31,0,0,0,64.2,32.66a20.37,20.37,0,0,0-7.58.81ZM88.46,44.08c-.71.81-5.86,7.68-17.59,12.54.71,1.52,1.52,2.93,2.12,4.55.2.51.51,1.11.71,1.62a75.1,75.1,0,0,1,22,1A32.3,32.3,0,0,0,88.46,44.08Z" style="fill: #fff;"/></g>
	<metadata>
		<rdf:RDF xmlns:rdf="http://www.w3.org/1999/02/22-rdf-syntax-ns#" xmlns:rdfs="http://www.w3.org/2000/01/rdf-schema#" xmlns:dc="http://purl.org/dc/elements/1.1/">
			<rdf:Description about="https://iconscout.com/legal#licenses" dc:title="yumminky-social-media-50" dc:description="yumminky-social-media-50" dc:publisher="Iconscout" dc:date="2017-05-12" dc:format="image/svg+xml" dc:language="en">
				<dc:creator>
					<rdf:Bag>
						<rdf:li>Juraj Sedlák</rdf:li>
					</rdf:Bag>
				</dc:creator>
			</rdf:Description>
		</rdf:RDF>
    </metadata></svg>
