<?xml version="1.0" encoding="UTF-8" standalone="no"?>
<svg xmlns="http://www.w3.org/2000/svg" xmlns:xlink="http://www.w3.org/1999/xlink" id="Layer_1" data-name="Layer 1" viewBox="0 0 128 128"><defs><style>.cls-1{fill:none;}.cls-2{fill:#256ed7;}.cls-3{fill:#fd0184;}.cls-4{fill:#dee8f0;}.cls-5{clip-path:url(#clip-path);}.cls-6{fill:url(#radial-gradient);}.cls-7{clip-path:url(#clip-path-2);}.cls-8{fill:url(#radial-gradient-2);}.cls-9{clip-path:url(#clip-path-3);}.cls-10{clip-path:url(#clip-path-4);}.cls-11{clip-path:url(#clip-path-5);}.cls-12{fill:url(#radial-gradient-5);}</style><clipPath id="clip-path"><rect class="cls-1" x="163" y="-163" width="128" height="128" rx="24" ry="24" style="fill: none;"/></clipPath><radialGradient id="radial-gradient" cx="190.5" cy="-41.5" r="148.5" gradientUnits="userSpaceOnUse"><stop offset="0" stop-color="#ffd676"/><stop offset="0.25" stop-color="#f2a454"/><stop offset="0.38" stop-color="#f05c3c"/><stop offset="0.7" stop-color="#c22f86"/><stop offset="0.96" stop-color="#6666ad"/><stop offset="0.99" stop-color="#5c6cb2"/></radialGradient><clipPath id="clip-path-2"><path class="cls-1" d="M267,0H187a24.07,24.07,0,0,0-24,24v80a24.07,24.07,0,0,0,24,24h80a24.07,24.07,0,0,0,24-24V24A24.07,24.07,0,0,0,267,0Zm16,104a16,16,0,0,1-16,16H187a16,16,0,0,1-16-16V24A16,16,0,0,1,187,8h80a16,16,0,0,1,16,16Z" style="fill: none;"/></clipPath><radialGradient id="radial-gradient-2" cx="190.5" cy="121.5" r="148.5" xlink:href="#radial-gradient"/><clipPath id="clip-path-3"><path class="cls-1" d="M227,48a16,16,0,1,0,16,16A16,16,0,0,0,227,48Zm0,24a8,8,0,1,1,8-8A8,8,0,0,1,227,72Z" style="fill: none;"/></clipPath><clipPath id="clip-path-4"><path class="cls-1" d="M247,100H207a16,16,0,0,1-16-16V44a16,16,0,0,1,16-16h40a16,16,0,0,1,16,16V84A16,16,0,0,1,247,100ZM207,36a8,8,0,0,0-8,8V84a8,8,0,0,0,8,8h40a8,8,0,0,0,8-8V44a8,8,0,0,0-8-8Z" style="fill: none;"/></clipPath><clipPath id="clip-path-5"><circle class="cls-1" cx="245" cy="46" r="5" style="fill: none;"/></clipPath><radialGradient id="radial-gradient-5" cx="176.87" cy="140.38" r="185.63" xlink:href="#radial-gradient"/></defs><title>Artboard 15</title><circle class="cls-2" cx="48" cy="64" r="12" style="fill: #256ed7;"/><circle class="cls-3" cx="80" cy="64" r="12" style="fill: #fd0184;"/><path class="cls-4" d="M104,8a16,16,0,0,1,16,16v80a16,16,0,0,1-16,16H24A16,16,0,0,1,8,104V24A16,16,0,0,1,24,8h80m0-8H24A24.07,24.07,0,0,0,0,24v80a24.07,24.07,0,0,0,24,24h80a24.07,24.07,0,0,0,24-24V24A24.07,24.07,0,0,0,104,0Z" style="fill: #dee8f0;"/><g class="cls-5" style="clip-path: url(#clip-path);"><circle class="cls-6" cx="190.5" cy="-41.5" r="148.5" style="fill: url(#radial-gradient);"/></g><g class="cls-7" style="clip-path: url(#clip-path-2);"><circle class="cls-8" cx="190.5" cy="121.5" r="148.5" style="fill: url(#radial-gradient-2);"/></g><g class="cls-9" style="clip-path: url(#clip-path-3);"><circle class="cls-8" cx="190.5" cy="121.5" r="148.5" style="fill: url(#radial-gradient-2);"/></g><g class="cls-10" style="clip-path: url(#clip-path-4);"><circle class="cls-8" cx="190.5" cy="121.5" r="148.5" style="fill: url(#radial-gradient-2);"/></g><g class="cls-11" style="clip-path: url(#clip-path-5);"><circle class="cls-12" cx="176.87" cy="140.38" r="185.63" style="fill: url(#radial-gradient-5);"/></g>
	<metadata>
		<rdf:RDF xmlns:rdf="http://www.w3.org/1999/02/22-rdf-syntax-ns#" xmlns:rdfs="http://www.w3.org/2000/01/rdf-schema#" xmlns:dc="http://purl.org/dc/elements/1.1/">
			<rdf:Description about="https://iconscout.com/legal#licenses" dc:title="yumminky-social-media-15" dc:description="yumminky-social-media-15" dc:publisher="Iconscout" dc:date="2017-05-12" dc:format="image/svg+xml" dc:language="en">
				<dc:creator>
					<rdf:Bag>
						<rdf:li>Juraj Sedlák</rdf:li>
					</rdf:Bag>
				</dc:creator>
			</rdf:Description>
		</rdf:RDF>
    </metadata></svg>
