<?xml version="1.0" encoding="UTF-8" standalone="no"?>
<svg xmlns="http://www.w3.org/2000/svg" id="Layer_1" data-name="Layer 1" viewBox="0 0 128 128"><defs><style>.cls-1{fill:#1e6dff;}.cls-2{fill:#fff;}</style></defs><title>Artboard 9</title><rect class="cls-1" width="128" height="128" rx="24" ry="24" style="fill: #1e6dff;"/><path class="cls-2" d="M57,63s6-2.23,6-10S57.86,42,51,42H28V86H51s13,0,13-13C64,73,64,63,57,63ZM38,50H51s3,0,3,4c0,4.52-2,5-4,5H38ZM50,78H38V67l12.59-.07S55,67,55,73C55,78,51.81,77.95,50,78Z" style="fill: #fff;"/><path class="cls-2" d="M84.77,52.88c-16.69,0-16.68,16.68-16.68,16.68S67.17,86,85,86c0,0,15,1.39,15-11H92s.24,4.28-7,4.28c0,0-8,.79-8-7.28h23S102.34,52.88,84.77,52.88ZM92,66H77s1.24-6.76,7.94-6.76S92,66,92,66Z" style="fill: #fff;"/><rect class="cls-2" x="75" y="44" width="19" height="6" style="fill: #fff;"/>
	<metadata>
		<rdf:RDF xmlns:rdf="http://www.w3.org/1999/02/22-rdf-syntax-ns#" xmlns:rdfs="http://www.w3.org/2000/01/rdf-schema#" xmlns:dc="http://purl.org/dc/elements/1.1/">
			<rdf:Description about="https://iconscout.com/legal#licenses" dc:title="yumminky-social-media-09" dc:description="yumminky-social-media-09" dc:publisher="Iconscout" dc:date="2017-05-12" dc:format="image/svg+xml" dc:language="en">
				<dc:creator>
					<rdf:Bag>
						<rdf:li>Juraj Sedlák</rdf:li>
					</rdf:Bag>
				</dc:creator>
			</rdf:Description>
		</rdf:RDF>
    </metadata></svg>
