<?xml version="1.0" encoding="UTF-8" standalone="no"?>
<svg xmlns="http://www.w3.org/2000/svg" xmlns:xlink="http://www.w3.org/1999/xlink" id="Layer_1" data-name="Layer 1" viewBox="0 0 128 128"><defs><style>.cls-1{fill:none;}.cls-2{fill:#256ed7;}.cls-3{fill:#fd0184;}.cls-4{fill:#dee8f0;}.cls-5{clip-path:url(#clip-path);}.cls-6{fill:url(#radial-gradient);}.cls-7{clip-path:url(#clip-path-2);}.cls-8{fill:url(#radial-gradient-2);}.cls-9{clip-path:url(#clip-path-3);}.cls-10{fill:url(#radial-gradient-3);}.cls-11{clip-path:url(#clip-path-4);}.cls-12{clip-path:url(#clip-path-5);}.cls-13{fill:url(#radial-gradient-5);}.cls-14{clip-path:url(#clip-path-6);}.cls-15{fill:url(#radial-gradient-6);}</style><clipPath id="clip-path"><path class="cls-1" d="M169.84-120.45v42.91a20,20,0,0,0,10,17.32L217-38.77a20,20,0,0,0,20,0l37.16-21.45a20,20,0,0,0,10-17.32v-42.91a20,20,0,0,0-10-17.32L237-159.23a20,20,0,0,0-20,0l-37.16,21.45A20,20,0,0,0,169.84-120.45Z" style="fill: none;"/></clipPath><radialGradient id="radial-gradient" cx="190.5" cy="-41.5" r="137.5" gradientUnits="userSpaceOnUse"><stop offset="0" stop-color="#ffd676"/><stop offset="0.25" stop-color="#f2a454"/><stop offset="0.38" stop-color="#f05c3c"/><stop offset="0.7" stop-color="#c22f86"/><stop offset="0.96" stop-color="#6666ad"/><stop offset="0.99" stop-color="#5c6cb2"/></radialGradient><clipPath id="clip-path-2"><path class="cls-1" d="M227,9.09a12,12,0,0,1,6,1.61l37.16,21.45a12,12,0,0,1,6,10.39V85.45a12,12,0,0,1-6,10.39L233,117.3a12,12,0,0,1-12,0L183.84,95.85a12,12,0,0,1-6-10.39V42.55a12,12,0,0,1,6-10.39L221,10.7a12,12,0,0,1,6-1.61m0-8a20,20,0,0,0-10,2.68L179.84,25.23a20,20,0,0,0-10,17.32V85.45a20,20,0,0,0,10,17.32L217,124.23a20,20,0,0,0,20,0l37.16-21.45a20,20,0,0,0,10-17.32V42.55a20,20,0,0,0-10-17.32L237,3.77a20,20,0,0,0-10-2.68Z" style="fill: none;"/></clipPath><radialGradient id="radial-gradient-2" cx="190.5" cy="121.5" r="137.5" xlink:href="#radial-gradient"/><clipPath id="clip-path-3"><path class="cls-1" d="M227,48a16,16,0,1,0,16,16A16,16,0,0,0,227,48Zm0,24a8,8,0,1,1,8-8A8,8,0,0,1,227,72Z" style="fill: none;"/></clipPath><radialGradient id="radial-gradient-3" cx="190.5" cy="121.5" r="148.5" xlink:href="#radial-gradient"/><clipPath id="clip-path-4"><path class="cls-1" d="M247,100H207a16,16,0,0,1-16-16V44a16,16,0,0,1,16-16h40a16,16,0,0,1,16,16V84A16,16,0,0,1,247,100ZM207,36a8,8,0,0,0-8,8V84a8,8,0,0,0,8,8h40a8,8,0,0,0,8-8V44a8,8,0,0,0-8-8Z" style="fill: none;"/></clipPath><clipPath id="clip-path-5"><circle class="cls-1" cx="245" cy="46" r="5" style="fill: none;"/></clipPath><radialGradient id="radial-gradient-5" cx="176.87" cy="140.38" r="185.63" xlink:href="#radial-gradient"/><clipPath id="clip-path-6"><circle class="cls-1" cx="245" cy="-280" r="5" style="fill: none;"/></clipPath><radialGradient id="radial-gradient-6" cx="176.87" cy="-185.62" r="185.63" xlink:href="#radial-gradient"/></defs><title>Artboard 55</title><circle class="cls-2" cx="48" cy="64" r="12" style="fill: #256ed7;"/><circle class="cls-3" cx="80" cy="64" r="12" style="fill: #fd0184;"/><path class="cls-4" d="M64,9.09a12,12,0,0,1,6,1.61l37.16,21.45a12,12,0,0,1,6,10.39V85.45a12,12,0,0,1-6,10.39L70,117.3a12,12,0,0,1-12,0L20.84,95.85a12,12,0,0,1-6-10.39V42.55a12,12,0,0,1,6-10.39L58,10.7a12,12,0,0,1,6-1.61m0-8A20,20,0,0,0,54,3.77L16.84,25.23a20,20,0,0,0-10,17.32V85.45a20,20,0,0,0,10,17.32L54,124.23a20,20,0,0,0,20,0l37.16-21.45a20,20,0,0,0,10-17.32V42.55a20,20,0,0,0-10-17.32L74,3.77A20,20,0,0,0,64,1.09Z" style="fill: #dee8f0;"/><g class="cls-5" style="clip-path: url(#clip-path);"><circle class="cls-6" cx="190.5" cy="-41.5" r="137.5" style="fill: url(#radial-gradient);"/></g><g class="cls-7" style="clip-path: url(#clip-path-2);"><circle class="cls-8" cx="190.5" cy="121.5" r="137.5" style="fill: url(#radial-gradient-2);"/></g><g class="cls-9" style="clip-path: url(#clip-path-3);"><circle class="cls-10" cx="190.5" cy="121.5" r="148.5" style="fill: url(#radial-gradient-3);"/></g><g class="cls-11" style="clip-path: url(#clip-path-4);"><circle class="cls-10" cx="190.5" cy="121.5" r="148.5" style="fill: url(#radial-gradient-3);"/></g><g class="cls-12" style="clip-path: url(#clip-path-5);"><circle class="cls-13" cx="176.87" cy="140.38" r="185.63" style="fill: url(#radial-gradient-5);"/></g><g class="cls-14" style="clip-path: url(#clip-path-6);"><circle class="cls-15" cx="176.87" cy="-185.62" r="185.63" style="fill: url(#radial-gradient-6);"/></g>
	<metadata>
		<rdf:RDF xmlns:rdf="http://www.w3.org/1999/02/22-rdf-syntax-ns#" xmlns:rdfs="http://www.w3.org/2000/01/rdf-schema#" xmlns:dc="http://purl.org/dc/elements/1.1/">
			<rdf:Description about="https://iconscout.com/legal#licenses" dc:title="yumminky-social-media-55" dc:description="yumminky-social-media-55" dc:publisher="Iconscout" dc:date="2017-05-12" dc:format="image/svg+xml" dc:language="en">
				<dc:creator>
					<rdf:Bag>
						<rdf:li>Juraj Sedlák</rdf:li>
					</rdf:Bag>
				</dc:creator>
			</rdf:Description>
		</rdf:RDF>
    </metadata></svg>
