<?xml version="1.0" encoding="UTF-8" standalone="no"?>
<svg xmlns="http://www.w3.org/2000/svg" id="Layer_1" data-name="Layer 1" viewBox="0 0 128 128"><defs><style>.cls-1{fill:#dd4b39;}.cls-2{fill:#fff;fill-rule:evenodd;}</style></defs><title>Artboard 43</title><path class="cls-1" d="M6.84,42.55V85.45a20,20,0,0,0,10,17.32L54,124.23a20,20,0,0,0,20,0l37.16-21.45a20,20,0,0,0,10-17.32V42.55a20,20,0,0,0-10-17.32L74,3.77a20,20,0,0,0-20,0L16.84,25.23A20,20,0,0,0,6.84,42.55Z" style="fill: #dd4b39;"/><path class="cls-2" d="M49,61v8H63c-.54,3.46-3.68,10-13,10a15,15,0,1,1,0-30,12.32,12.32,0,0,1,9,4l6.32-6.39C61.22,42.78,56.36,40,50,40a24,24,0,1,0,0,48c13.59,0,22-9.55,22-23a26.34,26.34,0,0,0,0-4Z" style="fill: #fff; fill-rule: evenodd;"/><polygon class="cls-2" points="102 61 94 61 94 53 86 53 86 61 78 61 78 69 86 69 86 77 94 77 94 69 102 69 102 61" style="fill: #fff; fill-rule: evenodd;"/>
	<metadata>
		<rdf:RDF xmlns:rdf="http://www.w3.org/1999/02/22-rdf-syntax-ns#" xmlns:rdfs="http://www.w3.org/2000/01/rdf-schema#" xmlns:dc="http://purl.org/dc/elements/1.1/">
			<rdf:Description about="https://iconscout.com/legal#licenses" dc:title="yumminky-social-media-43" dc:description="yumminky-social-media-43" dc:publisher="Iconscout" dc:date="2017-05-12" dc:format="image/svg+xml" dc:language="en">
				<dc:creator>
					<rdf:Bag>
						<rdf:li>Juraj Sedlák</rdf:li>
					</rdf:Bag>
				</dc:creator>
			</rdf:Description>
		</rdf:RDF>
    </metadata></svg>
