<?xml version="1.0" encoding="UTF-8" standalone="no"?>
<svg xmlns="http://www.w3.org/2000/svg" xmlns:xlink="http://www.w3.org/1999/xlink" id="Layer_1" data-name="Layer 1" viewBox="0 0 128 128"><defs><style>.cls-1,.cls-7{fill:none;}.cls-2{clip-path:url(#clip-path);}.cls-3{fill:url(#radial-gradient);}.cls-4{clip-path:url(#clip-path-2);}.cls-5{fill:url(#radial-gradient-2);}.cls-6{fill:#fff;}.cls-7{stroke:#fff;stroke-miterlimit:10;stroke-width:8px;}</style><clipPath id="clip-path"><rect class="cls-1" width="128" height="128" rx="24" ry="24" style="fill: none;"/></clipPath><radialGradient id="radial-gradient" cx="27.5" cy="121.5" r="148.5" gradientUnits="userSpaceOnUse"><stop offset="0" stop-color="#ffd676"/><stop offset="0.25" stop-color="#f2a454"/><stop offset="0.38" stop-color="#f05c3c"/><stop offset="0.7" stop-color="#c22f86"/><stop offset="0.96" stop-color="#6666ad"/><stop offset="0.99" stop-color="#5c6cb2"/></radialGradient><clipPath id="clip-path-2"><circle class="cls-1" cx="82" cy="209" r="5" style="fill: none;"/></clipPath><radialGradient id="radial-gradient-2" cx="13.87" cy="303.38" r="185.63" xlink:href="#radial-gradient"/></defs><title>Artboard 6</title><g class="cls-2" style="clip-path: url(#clip-path);"><circle class="cls-3" cx="27.5" cy="121.5" r="148.5" style="fill: url(#radial-gradient);"/></g><g class="cls-4" style="clip-path: url(#clip-path-2);"><circle class="cls-5" cx="13.87" cy="303.38" r="185.63" style="fill: url(#radial-gradient-2);"/></g><circle class="cls-6" cx="82" cy="46" r="5" style="fill: #fff;"/><path class="cls-6" d="M64,48A16,16,0,1,0,80,64,16,16,0,0,0,64,48Zm0,24a8,8,0,1,1,8-8A8,8,0,0,1,64,72Z" style="fill: #fff;"/><rect class="cls-7" x="32" y="32" width="64" height="64" rx="12" ry="12" style="fill: none; stroke: #fff; stroke-miterlimit: 10; stroke-width: 8px;"/>
	<metadata>
		<rdf:RDF xmlns:rdf="http://www.w3.org/1999/02/22-rdf-syntax-ns#" xmlns:rdfs="http://www.w3.org/2000/01/rdf-schema#" xmlns:dc="http://purl.org/dc/elements/1.1/">
			<rdf:Description about="https://iconscout.com/legal#licenses" dc:title="yumminky-social-media-06" dc:description="yumminky-social-media-06" dc:publisher="Iconscout" dc:date="2017-05-12" dc:format="image/svg+xml" dc:language="en">
				<dc:creator>
					<rdf:Bag>
						<rdf:li>Juraj Sedlák</rdf:li>
					</rdf:Bag>
				</dc:creator>
			</rdf:Description>
		</rdf:RDF>
    </metadata></svg>
