<?xml version="1.0" encoding="UTF-8" standalone="no"?>
<svg xmlns="http://www.w3.org/2000/svg" xmlns:xlink="http://www.w3.org/1999/xlink" id="Layer_1" data-name="Layer 1" viewBox="0 0 128 128"><defs><style>.cls-1,.cls-9{fill:none;}.cls-2{clip-path:url(#clip-path);}.cls-3{fill:url(#radial-gradient);}.cls-4{clip-path:url(#clip-path-2);}.cls-5{fill:url(#radial-gradient-2);}.cls-6{clip-path:url(#clip-path-3);}.cls-7{fill:url(#radial-gradient-3);}.cls-8{fill:#fff;}.cls-9{stroke:#fff;stroke-miterlimit:10;stroke-width:8px;}.cls-10{clip-path:url(#clip-path-4);}.cls-11{clip-path:url(#clip-path-5);}.cls-12{clip-path:url(#clip-path-6);}.cls-13{fill:url(#radial-gradient-6);}</style><clipPath id="clip-path"><path class="cls-1" d="M64-35A64.07,64.07,0,0,1,0-99a64.07,64.07,0,0,1,64-64,64.07,64.07,0,0,1,64,64A64.07,64.07,0,0,1,64-35Zm0-120A56.06,56.06,0,0,0,8-99,56.06,56.06,0,0,0,64-43a56.06,56.06,0,0,0,56-56A56.06,56.06,0,0,0,64-155Z" style="fill: none;"/></clipPath><radialGradient id="radial-gradient" cx="27.5" cy="-41.5" r="148.5" gradientUnits="userSpaceOnUse"><stop offset="0" stop-color="#ffd676"/><stop offset="0.25" stop-color="#f2a454"/><stop offset="0.38" stop-color="#f05c3c"/><stop offset="0.7" stop-color="#c22f86"/><stop offset="0.96" stop-color="#6666ad"/><stop offset="0.99" stop-color="#5c6cb2"/></radialGradient><clipPath id="clip-path-2"><path class="cls-1" d="M6.84,42.55V85.45a20,20,0,0,0,10,17.32L54,124.23a20,20,0,0,0,20,0l37.16-21.45a20,20,0,0,0,10-17.32V42.55a20,20,0,0,0-10-17.32L74,3.77a20,20,0,0,0-20,0L16.84,25.23A20,20,0,0,0,6.84,42.55Z" style="fill: none;"/></clipPath><radialGradient id="radial-gradient-2" cx="27.5" cy="121.5" r="137.5" xlink:href="#radial-gradient"/><clipPath id="clip-path-3"><circle class="cls-1" cx="82" cy="209" r="5" style="fill: none;"/></clipPath><radialGradient id="radial-gradient-3" cx="13.87" cy="303.38" r="185.63" xlink:href="#radial-gradient"/><clipPath id="clip-path-4"><path class="cls-1" d="M64-115A16,16,0,0,0,48-99,16,16,0,0,0,64-83,16,16,0,0,0,80-99,16,16,0,0,0,64-115Zm0,24a8,8,0,0,1-8-8,8,8,0,0,1,8-8,8,8,0,0,1,8,8A8,8,0,0,1,64-91Z" style="fill: none;"/></clipPath><clipPath id="clip-path-5"><path class="cls-1" d="M84-63H44A16,16,0,0,1,28-79v-40a16,16,0,0,1,16-16H84a16,16,0,0,1,16,16v40A16,16,0,0,1,84-63ZM44-127a8,8,0,0,0-8,8v40a8,8,0,0,0,8,8H84a8,8,0,0,0,8-8v-40a8,8,0,0,0-8-8Z" style="fill: none;"/></clipPath><clipPath id="clip-path-6"><circle class="cls-1" cx="82" cy="-117" r="5" style="fill: none;"/></clipPath><radialGradient id="radial-gradient-6" cx="13.87" cy="-22.62" r="185.63" xlink:href="#radial-gradient"/></defs><title>Artboard 46</title><g class="cls-2" style="clip-path: url(#clip-path);"><circle class="cls-3" cx="27.5" cy="-41.5" r="148.5" style="fill: url(#radial-gradient);"/></g><g class="cls-4" style="clip-path: url(#clip-path-2);"><circle class="cls-5" cx="27.5" cy="121.5" r="137.5" style="fill: url(#radial-gradient-2);"/></g><g class="cls-6" style="clip-path: url(#clip-path-3);"><circle class="cls-7" cx="13.87" cy="303.38" r="185.63" style="fill: url(#radial-gradient-3);"/></g><circle class="cls-8" cx="82" cy="46" r="5" style="fill: #fff;"/><path class="cls-8" d="M64,48A16,16,0,1,0,80,64,16,16,0,0,0,64,48Zm0,24a8,8,0,1,1,8-8A8,8,0,0,1,64,72Z" style="fill: #fff;"/><rect class="cls-9" x="32" y="32" width="64" height="64" rx="12" ry="12" style="fill: none; stroke: #fff; stroke-miterlimit: 10; stroke-width: 8px;"/><g class="cls-10" style="clip-path: url(#clip-path-4);"><circle class="cls-3" cx="27.5" cy="-41.5" r="148.5" style="fill: url(#radial-gradient);"/></g><g class="cls-11" style="clip-path: url(#clip-path-5);"><circle class="cls-3" cx="27.5" cy="-41.5" r="148.5" style="fill: url(#radial-gradient);"/></g><g class="cls-12" style="clip-path: url(#clip-path-6);"><circle class="cls-13" cx="13.87" cy="-22.62" r="185.63" style="fill: url(#radial-gradient-6);"/></g>
	<metadata>
		<rdf:RDF xmlns:rdf="http://www.w3.org/1999/02/22-rdf-syntax-ns#" xmlns:rdfs="http://www.w3.org/2000/01/rdf-schema#" xmlns:dc="http://purl.org/dc/elements/1.1/">
			<rdf:Description about="https://iconscout.com/legal#licenses" dc:title="yumminky-social-media-46" dc:description="yumminky-social-media-46" dc:publisher="Iconscout" dc:date="2017-05-12" dc:format="image/svg+xml" dc:language="en">
				<dc:creator>
					<rdf:Bag>
						<rdf:li>Juraj Sedlák</rdf:li>
					</rdf:Bag>
				</dc:creator>
			</rdf:Description>
		</rdf:RDF>
    </metadata></svg>
