<?xml version="1.0" encoding="UTF-8" standalone="no"?>
<svg xmlns="http://www.w3.org/2000/svg" id="Layer_1" data-name="Layer 1" viewBox="0 0 128 128"><defs><style>.cls-1{fill:#0177b5;}</style></defs><title>Artboard 62</title><path class="cls-1" d="M104,8a16,16,0,0,1,16,16v80a16,16,0,0,1-16,16H24A16,16,0,0,1,8,104V24A16,16,0,0,1,24,8h80m0-8H24A24.07,24.07,0,0,0,0,24v80a24.07,24.07,0,0,0,24,24h80a24.07,24.07,0,0,0,24-24V24A24.07,24.07,0,0,0,104,0Z" style="fill: #0177b5;"/><path class="cls-1" d="M92,32H36a4,4,0,0,0-4,4V92a4,4,0,0,0,4,4H92a4,4,0,0,0,4-4V36A4,4,0,0,0,92,32ZM52,86H42V56H52ZM47,52a6,6,0,1,1,6-6A6,6,0,0,1,47,52ZM86,86H76V66c0-1.66-2.24-3-5-3-4,0-5,5.34-5,7V86H56V56H66v7c0-5,4.48-7,10-7A10,10,0,0,1,86,66Z" style="fill: #0177b5;"/>
	<metadata>
		<rdf:RDF xmlns:rdf="http://www.w3.org/1999/02/22-rdf-syntax-ns#" xmlns:rdfs="http://www.w3.org/2000/01/rdf-schema#" xmlns:dc="http://purl.org/dc/elements/1.1/">
			<rdf:Description about="https://iconscout.com/legal#licenses" dc:title="yumminky-social-media-62" dc:description="yumminky-social-media-62" dc:publisher="Iconscout" dc:date="2017-05-12" dc:format="image/svg+xml" dc:language="en">
				<dc:creator>
					<rdf:Bag>
						<rdf:li>Juraj Sedlák</rdf:li>
					</rdf:Bag>
				</dc:creator>
			</rdf:Description>
		</rdf:RDF>
    </metadata></svg>
