<?xml version="1.0" encoding="UTF-8" standalone="no"?>
<svg xmlns="http://www.w3.org/2000/svg" id="Layer_1" data-name="Layer 1" viewBox="0 0 128 128"><defs><style>.cls-1{fill:none;stroke:#e21a20;stroke-miterlimit:10;stroke-width:8px;}.cls-2{fill:#e21a20;fill-rule:evenodd;}</style></defs><title>Artboard 38</title><circle class="cls-1" cx="64" cy="64" r="60" style="fill: none; stroke: #e21a20; stroke-miterlimit: 10; stroke-width: 8px;"/><path class="cls-2" d="M98.62,53.92c-.49-6.75-1.72-13.72-10.35-14.23a426.5,426.5,0,0,0-48.55,0c-8.63.5-9.86,7.48-10.35,14.23a135,135,0,0,0,0,20.16c.49,6.75,1.72,13.72,10.35,14.23a426.5,426.5,0,0,0,48.55,0c8.63-.5,9.86-7.48,10.35-14.23A135,135,0,0,0,98.62,53.92ZM57,73V53L76,63Z" style="fill: #e21a20; fill-rule: evenodd;"/>
	<metadata>
		<rdf:RDF xmlns:rdf="http://www.w3.org/1999/02/22-rdf-syntax-ns#" xmlns:rdfs="http://www.w3.org/2000/01/rdf-schema#" xmlns:dc="http://purl.org/dc/elements/1.1/">
			<rdf:Description about="https://iconscout.com/legal#licenses" dc:title="yumminky-social-media-38" dc:description="yumminky-social-media-38" dc:publisher="Iconscout" dc:date="2017-05-12" dc:format="image/svg+xml" dc:language="en">
				<dc:creator>
					<rdf:Bag>
						<rdf:li>Juraj Sedlák</rdf:li>
					</rdf:Bag>
				</dc:creator>
			</rdf:Description>
		</rdf:RDF>
    </metadata></svg>
