<?xml version="1.0" encoding="UTF-8" standalone="no"?>
<svg xmlns="http://www.w3.org/2000/svg" xmlns:xlink="http://www.w3.org/1999/xlink" id="Layer_1" data-name="Layer 1" viewBox="0 0 128 128"><defs><style>.cls-1{fill:none;}.cls-2{clip-path:url(#clip-path);}.cls-3{fill:url(#radial-gradient);}.cls-4{clip-path:url(#clip-path-2);}.cls-5{fill:url(#radial-gradient-2);}.cls-6{clip-path:url(#clip-path-3);}.cls-7{fill:url(#radial-gradient-3);}.cls-8{clip-path:url(#clip-path-4);}.cls-9{clip-path:url(#clip-path-5);}.cls-10{fill:url(#radial-gradient-5);}.cls-11{clip-path:url(#clip-path-6);}.cls-12{fill:url(#radial-gradient-6);}.cls-13,.cls-14{fill:#00b3ec;}.cls-14{fill-rule:evenodd;}</style><clipPath id="clip-path"><path class="cls-1" d="M-156.16-120.45v42.91a20,20,0,0,0,10,17.32L-109-38.77a20,20,0,0,0,20,0l37.16-21.45a20,20,0,0,0,10-17.32v-42.91a20,20,0,0,0-10-17.32L-89-159.23a20,20,0,0,0-20,0l-37.16,21.45A20,20,0,0,0-156.16-120.45Z" style="fill: none;"/></clipPath><radialGradient id="radial-gradient" cx="-135.5" cy="-41.5" r="137.5" gradientUnits="userSpaceOnUse"><stop offset="0" stop-color="#ffd676"/><stop offset="0.25" stop-color="#f2a454"/><stop offset="0.38" stop-color="#f05c3c"/><stop offset="0.7" stop-color="#c22f86"/><stop offset="0.96" stop-color="#6666ad"/><stop offset="0.99" stop-color="#5c6cb2"/></radialGradient><clipPath id="clip-path-2"><path class="cls-1" d="M-99,9.09a12,12,0,0,1,6,1.61l37.16,21.45a12,12,0,0,1,6,10.39V85.45a12,12,0,0,1-6,10.39L-93,117.3a12,12,0,0,1-6,1.61,12,12,0,0,1-6-1.61l-37.16-21.45a12,12,0,0,1-6-10.39V42.55a12,12,0,0,1,6-10.39L-105,10.7a12,12,0,0,1,6-1.61m0-8a20,20,0,0,0-10,2.68l-37.16,21.45a20,20,0,0,0-10,17.32V85.45a20,20,0,0,0,10,17.32L-109,124.23a20,20,0,0,0,10,2.68,20,20,0,0,0,10-2.68l37.16-21.45a20,20,0,0,0,10-17.32V42.55a20,20,0,0,0-10-17.32L-89,3.77A20,20,0,0,0-99,1.09Z" style="fill: none;"/></clipPath><radialGradient id="radial-gradient-2" cx="-135.5" cy="121.5" r="137.5" xlink:href="#radial-gradient"/><clipPath id="clip-path-3"><path class="cls-1" d="M-99,48a16,16,0,0,0-16,16A16,16,0,0,0-99,80,16,16,0,0,0-83,64,16,16,0,0,0-99,48Zm0,24a8,8,0,0,1-8-8,8,8,0,0,1,8-8,8,8,0,0,1,8,8A8,8,0,0,1-99,72Z" style="fill: none;"/></clipPath><radialGradient id="radial-gradient-3" cx="-135.5" cy="121.5" r="148.5" xlink:href="#radial-gradient"/><clipPath id="clip-path-4"><path class="cls-1" d="M-79,100h-40a16,16,0,0,1-16-16V44a16,16,0,0,1,16-16h40A16,16,0,0,1-63,44V84A16,16,0,0,1-79,100Zm-40-64a8,8,0,0,0-8,8V84a8,8,0,0,0,8,8h40a8,8,0,0,0,8-8V44a8,8,0,0,0-8-8Z" style="fill: none;"/></clipPath><clipPath id="clip-path-5"><circle class="cls-1" cx="-81" cy="46" r="5" style="fill: none;"/></clipPath><radialGradient id="radial-gradient-5" cx="-149.13" cy="140.38" r="185.63" xlink:href="#radial-gradient"/><clipPath id="clip-path-6"><circle class="cls-1" cx="-81" cy="-280" r="5" style="fill: none;"/></clipPath><radialGradient id="radial-gradient-6" cx="-149.13" cy="-185.62" r="185.63" xlink:href="#radial-gradient"/></defs><title>Artboard 57</title><g class="cls-2" style="clip-path: url(#clip-path);"><circle class="cls-3" cx="-135.5" cy="-41.5" r="137.5" style="fill: url(#radial-gradient);"/></g><g class="cls-4" style="clip-path: url(#clip-path-2);"><circle class="cls-5" cx="-135.5" cy="121.5" r="137.5" style="fill: url(#radial-gradient-2);"/></g><g class="cls-6" style="clip-path: url(#clip-path-3);"><circle class="cls-7" cx="-135.5" cy="121.5" r="148.5" style="fill: url(#radial-gradient-3);"/></g><g class="cls-8" style="clip-path: url(#clip-path-4);"><circle class="cls-7" cx="-135.5" cy="121.5" r="148.5" style="fill: url(#radial-gradient-3);"/></g><g class="cls-9" style="clip-path: url(#clip-path-5);"><circle class="cls-10" cx="-149.13" cy="140.38" r="185.63" style="fill: url(#radial-gradient-5);"/></g><g class="cls-11" style="clip-path: url(#clip-path-6);"><circle class="cls-12" cx="-149.13" cy="-185.62" r="185.63" style="fill: url(#radial-gradient-6);"/></g><path class="cls-13" d="M64,9.09a12,12,0,0,1,6,1.61l37.16,21.45a12,12,0,0,1,6,10.39V85.45a12,12,0,0,1-6,10.39L70,117.3a12,12,0,0,1-12,0L20.84,95.85a12,12,0,0,1-6-10.39V42.55a12,12,0,0,1,6-10.39L58,10.7a12,12,0,0,1,6-1.61m0-8A20,20,0,0,0,54,3.77L16.84,25.23a20,20,0,0,0-10,17.32V85.45a20,20,0,0,0,10,17.32L54,124.23a20,20,0,0,0,20,0l37.16-21.45a20,20,0,0,0,10-17.32V42.55a20,20,0,0,0-10-17.32L74,3.77A20,20,0,0,0,64,1.09Z" style="fill: #00b3ec;"/><path class="cls-14" d="M96.7,47.17c.52-2.91.51-5.91-1.3-8.17-2.53-3.18-7.9-3.29-11.58-2.73-3,.46-13.13,4.9-16.58,15.54,6.11-.46,9.31.44,8.72,7.12-.25,2.8-1.67,5.86-3.25,8.8-1.83,3.39-5.27,10-9.78,5.24-4.06-4.31-3.75-12.56-4.68-18.06a75.15,75.15,0,0,0-2.08-10.09c-.88-2.73-2.88-6-5.34-6.73-2.64-.77-5.9.43-7.81,1.55-6.1,3.56-10.74,8.63-16,12.81v.39c1,1,1.33,2.62,2.87,2.84,3.63.53,7.09-3.36,9.51.69,1.47,2.48,1.93,5.19,2.87,7.86,1.26,3.55,2.23,7.43,3.25,11.51,1.74,6.92,3.88,17.27,9.9,19.8,3.07,1.3,7.69-.44,10-1.82C71.75,90,76.69,84.6,80.91,79.11,90.57,66.11,95.9,51.38,96.7,47.17Z" style="fill: #00b3ec; fill-rule: evenodd;"/>
	<metadata>
		<rdf:RDF xmlns:rdf="http://www.w3.org/1999/02/22-rdf-syntax-ns#" xmlns:rdfs="http://www.w3.org/2000/01/rdf-schema#" xmlns:dc="http://purl.org/dc/elements/1.1/">
			<rdf:Description about="https://iconscout.com/legal#licenses" dc:title="yumminky-social-media-57" dc:description="yumminky-social-media-57" dc:publisher="Iconscout" dc:date="2017-05-12" dc:format="image/svg+xml" dc:language="en">
				<dc:creator>
					<rdf:Bag>
						<rdf:li>Juraj Sedlák</rdf:li>
					</rdf:Bag>
				</dc:creator>
			</rdf:Description>
		</rdf:RDF>
    </metadata></svg>
