<?xml version="1.0" encoding="UTF-8" standalone="no"?><!-- Generator: Gravit.io --><svg xmlns="http://www.w3.org/2000/svg" xmlns:xlink="http://www.w3.org/1999/xlink" style="isolation:isolate" viewBox="266.5 151.25 71 80" width="71pt" height="80pt"><defs><clipPath id="_clipPath_5gbxFAL07GptEpP3PAPDaepY6qwzs8Sm"><rect width="500" height="500"/></clipPath></defs><g clip-path="url(#_clipPath_5gbxFAL07GptEpP3PAPDaepY6qwzs8Sm)"><clipPath id="_clipPath_YY7OSR6kk98py1TWRtWEkVgq5vLWU4a5"><path d=" M 0 0 L 0 500 L 500 500 L 500 0 L 0 0 Z " fill="rgb(255,255,255)"/></clipPath><g clip-path="url(#_clipPath_YY7OSR6kk98py1TWRtWEkVgq5vLWU4a5)"><path d=" M 174.287 481.895 C 174.137 482.225 173.936 482.475 173.677 482.635 C 173.427 482.795 173.137 482.875 172.836 482.875 C 172.526 482.875 172.247 482.785 171.986 482.615 C 171.727 482.445 171.526 482.195 171.376 481.865 C 171.236 481.525 171.157 481.125 171.157 480.645 C 171.157 480.195 171.227 479.795 171.367 479.455 C 171.506 479.115 171.706 478.855 171.956 478.675 C 172.206 478.495 172.497 478.395 172.816 478.395 C 173.126 478.395 173.416 478.485 173.677 478.664 C 173.936 478.845 174.137 479.105 174.287 479.435 C 174.446 479.775 174.517 480.175 174.517 480.645 C 174.517 481.145 174.446 481.555 174.287 481.895 Z  M 176.057 474.725 C 175.916 474.555 175.717 474.475 175.446 474.475 C 175.177 474.475 174.977 474.565 174.827 474.745 C 174.686 474.935 174.617 475.205 174.617 475.565 L 174.617 478.164 C 174.287 477.805 173.946 477.535 173.597 477.355 C 173.247 477.185 172.827 477.095 172.316 477.095 C 171.446 477.095 170.736 477.405 170.196 478.015 C 169.666 478.635 169.396 479.485 169.396 480.585 C 169.396 481.105 169.467 481.585 169.597 482.035 C 169.736 482.485 169.927 482.875 170.196 483.205 C 170.456 483.535 170.767 483.785 171.126 483.965 C 171.477 484.145 171.867 484.235 172.287 484.235 C 172.606 484.235 172.907 484.185 173.166 484.095 C 173.436 484.015 173.686 483.885 173.916 483.715 C 174.146 483.545 174.376 483.325 174.617 483.055 L 174.617 483.225 C 174.617 483.545 174.696 483.795 174.847 483.975 C 175.006 484.145 175.206 484.235 175.446 484.235 C 175.686 484.235 175.887 484.145 176.046 483.985 C 176.196 483.815 176.276 483.565 176.276 483.225 L 176.276 475.475 C 176.276 475.145 176.206 474.895 176.057 474.725 Z " fill="#000000"/><path d=" M 179.436 478.745 C 179.717 478.445 180.077 478.295 180.517 478.295 C 180.977 478.295 181.347 478.445 181.626 478.745 C 181.907 479.045 182.066 479.495 182.117 480.095 L 178.927 480.095 C 178.986 479.505 179.157 479.055 179.436 478.745 Z  M 183.106 481.815 C 182.936 481.815 182.807 481.855 182.717 481.935 C 182.497 482.135 182.316 482.305 182.186 482.425 C 182.046 482.545 181.896 482.655 181.736 482.765 C 181.566 482.865 181.407 482.945 181.227 482.995 C 181.057 483.045 180.867 483.065 180.657 483.065 C 180.336 483.065 180.057 482.985 179.796 482.835 C 179.537 482.685 179.327 482.455 179.166 482.145 C 179.006 481.845 178.927 481.485 178.927 481.095 L 182.367 481.095 C 182.827 481.095 183.177 481.025 183.436 480.895 C 183.686 480.765 183.816 480.475 183.816 480.035 C 183.816 479.555 183.686 479.095 183.446 478.635 C 183.206 478.175 182.836 477.795 182.336 477.505 C 181.847 477.215 181.256 477.075 180.577 477.075 C 180.046 477.075 179.566 477.155 179.137 477.325 C 178.696 477.495 178.336 477.745 178.037 478.055 C 177.747 478.375 177.517 478.755 177.367 479.205 C 177.206 479.645 177.126 480.125 177.126 480.645 C 177.126 481.745 177.446 482.625 178.066 483.265 C 178.696 483.905 179.577 484.235 180.706 484.235 C 181.196 484.235 181.637 484.164 182.017 484.035 C 182.396 483.905 182.706 483.745 182.956 483.555 C 183.206 483.355 183.396 483.155 183.526 482.945 C 183.646 482.725 183.706 482.545 183.706 482.385 C 183.706 482.205 183.657 482.065 183.546 481.965 C 183.427 481.865 183.287 481.815 183.106 481.815 Z " fill="#000000"/><path d=" M 190.106 481.075 C 189.927 480.825 189.666 480.605 189.316 480.425 C 188.977 480.235 188.526 480.075 187.986 479.945 C 187.526 479.835 187.166 479.735 186.907 479.664 C 186.637 479.585 186.436 479.485 186.276 479.365 C 186.126 479.255 186.046 479.095 186.046 478.914 C 186.046 478.715 186.146 478.545 186.356 478.405 C 186.577 478.275 186.836 478.205 187.157 478.205 C 187.467 478.205 187.706 478.255 187.887 478.365 C 188.066 478.465 188.227 478.605 188.356 478.775 C 188.517 478.975 188.666 479.135 188.787 479.235 C 188.916 479.335 189.066 479.395 189.247 479.395 C 189.497 479.395 189.696 479.325 189.827 479.195 C 189.967 479.065 190.026 478.905 190.026 478.705 C 190.026 478.515 189.967 478.325 189.836 478.135 C 189.717 477.945 189.526 477.765 189.287 477.605 C 189.046 477.445 188.747 477.325 188.376 477.225 C 188.017 477.135 187.606 477.085 187.157 477.085 C 186.577 477.085 186.077 477.175 185.666 477.365 C 185.256 477.555 184.946 477.805 184.736 478.115 C 184.526 478.425 184.427 478.765 184.427 479.115 C 184.427 479.505 184.537 479.845 184.767 480.115 C 184.997 480.385 185.296 480.605 185.677 480.765 C 186.057 480.925 186.546 481.085 187.157 481.235 C 187.686 481.365 188.077 481.505 188.307 481.645 C 188.546 481.785 188.657 482.015 188.657 482.315 C 188.657 482.525 188.546 482.695 188.327 482.855 C 188.097 483.015 187.807 483.095 187.456 483.095 C 187.026 483.095 186.677 483.015 186.427 482.865 C 186.177 482.705 185.967 482.475 185.776 482.155 C 185.696 481.995 185.597 481.865 185.497 481.775 C 185.396 481.685 185.256 481.645 185.077 481.645 C 184.867 481.645 184.686 481.715 184.557 481.845 C 184.416 481.985 184.347 482.155 184.347 482.345 C 184.347 482.635 184.456 482.925 184.666 483.215 C 184.887 483.505 185.217 483.745 185.666 483.945 C 186.117 484.135 186.657 484.235 187.287 484.235 C 187.946 484.235 188.506 484.145 188.967 483.965 C 189.436 483.785 189.787 483.525 190.017 483.175 C 190.256 482.835 190.367 482.414 190.367 481.935 C 190.367 481.615 190.287 481.325 190.106 481.075 Z " fill="#000000"/><path d=" M 192.767 474.765 C 192.597 474.625 192.396 474.545 192.166 474.545 C 191.927 474.545 191.727 474.625 191.546 474.795 C 191.367 474.955 191.276 475.155 191.276 475.405 C 191.276 475.685 191.367 475.895 191.537 476.045 C 191.717 476.195 191.927 476.265 192.166 476.265 C 192.407 476.265 192.606 476.195 192.776 476.045 C 192.946 475.885 193.037 475.675 193.037 475.405 C 193.037 475.125 192.946 474.914 192.767 474.765 Z  M 192.787 477.355 C 192.617 477.175 192.407 477.085 192.146 477.085 C 191.887 477.085 191.677 477.175 191.517 477.355 C 191.356 477.525 191.276 477.785 191.276 478.135 L 191.276 483.164 C 191.276 483.505 191.356 483.765 191.517 483.955 C 191.677 484.135 191.887 484.235 192.146 484.235 C 192.407 484.235 192.617 484.145 192.787 483.965 C 192.956 483.785 193.037 483.515 193.037 483.164 L 193.037 478.085 C 193.037 477.775 192.956 477.525 192.787 477.355 Z " fill="#000000"/><path d=" M 198.776 481.825 C 198.617 482.135 198.407 482.375 198.146 482.525 C 197.887 482.685 197.606 482.765 197.316 482.765 C 196.827 482.765 196.416 482.585 196.106 482.215 C 195.796 481.855 195.646 481.315 195.646 480.605 C 195.646 479.895 195.796 479.355 196.097 478.975 C 196.396 478.595 196.796 478.395 197.307 478.395 C 197.816 478.395 198.236 478.595 198.546 478.995 C 198.867 479.395 199.026 479.955 199.026 480.675 C 199.026 481.125 198.936 481.505 198.776 481.825 Z  M 200.566 477.414 C 200.456 477.195 200.227 477.085 199.887 477.085 C 199.657 477.085 199.456 477.175 199.307 477.335 C 199.157 477.505 199.086 477.745 199.086 478.045 L 199.086 478.285 C 198.776 477.875 198.436 477.575 198.066 477.385 C 197.706 477.195 197.276 477.095 196.776 477.095 C 196.356 477.095 195.977 477.175 195.626 477.325 C 195.276 477.465 194.977 477.685 194.706 477.985 C 194.446 478.275 194.236 478.635 194.097 479.055 C 193.946 479.485 193.876 479.955 193.876 480.485 C 193.876 481.195 193.997 481.815 194.236 482.355 C 194.467 482.895 194.807 483.315 195.247 483.615 C 195.686 483.925 196.196 484.075 196.787 484.075 C 197.276 484.075 197.696 483.975 198.057 483.775 C 198.407 483.575 198.717 483.285 198.986 482.914 C 198.977 483.485 198.967 483.905 198.946 484.164 C 198.936 484.425 198.876 484.664 198.776 484.895 C 198.677 485.125 198.497 485.295 198.247 485.425 C 197.997 485.555 197.646 485.615 197.186 485.615 C 196.967 485.615 196.767 485.595 196.597 485.555 C 196.427 485.515 196.276 485.455 196.157 485.365 C 196.037 485.285 195.916 485.185 195.816 485.065 C 195.717 484.945 195.617 484.825 195.526 484.715 C 195.336 484.485 195.106 484.375 194.847 484.375 C 194.646 484.375 194.467 484.445 194.327 484.575 C 194.177 484.715 194.106 484.885 194.106 485.105 C 194.106 485.385 194.236 485.655 194.486 485.925 C 194.747 486.195 195.117 486.414 195.586 486.585 C 196.066 486.755 196.606 486.835 197.217 486.835 C 197.876 486.835 198.427 486.775 198.867 486.635 C 199.316 486.505 199.677 486.305 199.946 486.025 C 200.227 485.755 200.427 485.405 200.546 484.985 C 200.666 484.565 200.736 484.065 200.736 483.475 L 200.736 478.375 C 200.736 477.955 200.677 477.635 200.566 477.414 Z " fill="#000000"/><path d=" M 208.086 478.935 C 208.057 478.695 207.977 478.455 207.867 478.245 C 207.686 477.875 207.416 477.595 207.046 477.385 C 206.686 477.185 206.267 477.085 205.807 477.085 C 205.327 477.085 204.907 477.185 204.537 477.375 C 204.436 477.425 204.347 477.485 204.247 477.555 C 203.997 477.735 203.756 477.975 203.526 478.275 L 203.526 478.055 C 203.526 477.845 203.486 477.664 203.416 477.525 C 203.336 477.375 203.236 477.265 203.117 477.195 C 202.986 477.125 202.847 477.085 202.696 477.085 C 202.446 477.085 202.247 477.164 202.097 477.335 C 201.946 477.495 201.876 477.745 201.876 478.085 L 201.876 483.164 C 201.876 483.505 201.956 483.765 202.126 483.955 C 202.287 484.135 202.497 484.235 202.747 484.235 C 203.006 484.235 203.227 484.145 203.387 483.965 C 203.557 483.785 203.637 483.515 203.637 483.164 L 203.637 480.965 C 203.637 480.245 203.677 479.755 203.767 479.495 C 203.887 479.164 204.077 478.914 204.327 478.725 C 204.586 478.535 204.876 478.445 205.186 478.445 C 205.666 478.445 205.986 478.595 206.146 478.905 C 206.307 479.215 206.387 479.655 206.387 480.235 L 206.387 483.164 C 206.387 483.505 206.477 483.765 206.637 483.955 C 206.796 484.135 207.006 484.235 207.276 484.235 C 207.526 484.235 207.736 484.145 207.896 483.965 C 208.066 483.785 208.146 483.515 208.146 483.164 L 208.146 479.895 C 208.146 479.505 208.126 479.185 208.086 478.935 Z " fill="#000000"/><path d=" M 211.296 478.745 C 211.577 478.445 211.936 478.295 212.367 478.295 C 212.827 478.295 213.196 478.445 213.477 478.745 C 213.767 479.045 213.927 479.495 213.967 480.095 L 210.776 480.095 C 210.836 479.505 211.006 479.055 211.296 478.745 Z  M 214.956 481.815 C 214.787 481.815 214.666 481.855 214.577 481.935 C 214.356 482.135 214.177 482.305 214.037 482.425 C 213.896 482.545 213.747 482.655 213.586 482.765 C 213.427 482.865 213.256 482.945 213.086 482.995 C 212.916 483.045 212.736 483.065 212.537 483.065 L 212.526 483.065 C 212.517 483.065 212.517 483.065 212.506 483.065 C 212.196 483.065 211.907 482.985 211.646 482.835 C 211.387 482.685 211.177 482.455 211.026 482.145 C 210.997 482.085 210.967 482.035 210.946 481.975 L 210.946 481.965 C 210.836 481.705 210.787 481.405 210.776 481.095 L 214.217 481.095 C 214.677 481.095 215.037 481.025 215.287 480.895 C 215.537 480.765 215.666 480.475 215.666 480.035 C 215.666 479.555 215.546 479.095 215.296 478.635 C 215.057 478.175 214.686 477.795 214.196 477.505 C 213.706 477.215 213.117 477.075 212.427 477.075 C 211.896 477.075 211.416 477.155 210.986 477.325 C 210.557 477.495 210.186 477.745 209.896 478.055 C 209.597 478.375 209.367 478.755 209.217 479.205 C 209.066 479.645 208.986 480.125 208.986 480.645 C 208.986 481.745 209.296 482.625 209.927 483.265 C 210.546 483.905 211.427 484.235 212.557 484.235 C 213.046 484.235 213.486 484.164 213.867 484.035 C 213.876 484.035 213.896 484.025 213.907 484.025 C 214.267 483.895 214.566 483.735 214.816 483.555 C 215.066 483.355 215.247 483.155 215.376 482.945 C 215.497 482.725 215.566 482.545 215.566 482.385 C 215.566 482.205 215.506 482.065 215.396 481.965 C 215.287 481.865 215.137 481.815 214.956 481.815 Z " fill="#000000"/><path d=" M 221.057 481.895 C 220.907 482.225 220.696 482.475 220.446 482.635 C 220.186 482.795 219.907 482.875 219.597 482.875 C 219.296 482.875 219.017 482.785 218.756 482.615 C 218.497 482.445 218.296 482.195 218.146 481.865 C 217.997 481.525 217.927 481.125 217.927 480.645 C 217.927 480.195 217.997 479.795 218.137 479.455 C 218.276 479.115 218.467 478.855 218.727 478.675 C 218.977 478.495 219.267 478.395 219.586 478.395 C 219.896 478.395 220.177 478.485 220.436 478.664 C 220.696 478.845 220.907 479.105 221.057 479.435 C 221.206 479.775 221.287 480.175 221.287 480.645 C 221.287 481.145 221.206 481.555 221.057 481.895 Z  M 222.827 474.725 C 222.686 474.555 222.477 474.475 222.217 474.475 C 221.946 474.475 221.736 474.565 221.597 474.745 C 221.456 474.935 221.376 475.205 221.376 475.565 L 221.376 478.164 C 221.046 477.805 220.717 477.535 220.367 477.355 C 220.017 477.185 219.586 477.095 219.086 477.095 C 218.206 477.095 217.506 477.405 216.967 478.015 C 216.427 478.635 216.157 479.485 216.157 480.585 C 216.157 481.105 216.227 481.585 216.367 482.035 C 216.497 482.485 216.696 482.875 216.956 483.205 C 217.217 483.535 217.526 483.785 217.887 483.965 C 218.247 484.145 218.637 484.235 219.057 484.235 C 219.376 484.235 219.666 484.185 219.936 484.095 C 220.206 484.015 220.456 483.885 220.686 483.715 C 220.916 483.545 221.146 483.325 221.376 483.055 L 221.376 483.225 C 221.376 483.545 221.456 483.795 221.617 483.975 C 221.776 484.145 221.967 484.235 222.217 484.235 C 222.456 484.235 222.657 484.145 222.807 483.985 C 222.967 483.815 223.046 483.565 223.046 483.225 L 223.046 475.475 C 223.046 475.145 222.967 474.895 222.827 474.725 Z " fill="#000000"/><path d=" M 231.526 482.295 C 231.206 482.685 230.827 482.875 230.387 482.875 C 229.867 482.875 229.446 482.685 229.126 482.305 C 228.807 481.935 228.646 481.395 228.646 480.695 C 228.646 480.225 228.727 479.805 228.876 479.465 C 229.026 479.115 229.227 478.855 229.486 478.675 C 229.756 478.495 230.046 478.395 230.387 478.395 C 230.706 478.395 230.997 478.495 231.236 478.675 C 231.486 478.855 231.677 479.115 231.807 479.445 C 231.936 479.785 232.006 480.185 232.006 480.645 C 232.006 481.365 231.847 481.914 231.526 482.295 Z  M 233.407 478.715 C 233.166 478.195 232.827 477.795 232.387 477.515 C 231.946 477.235 231.436 477.095 230.847 477.095 C 230.347 477.095 229.916 477.195 229.577 477.375 C 229.227 477.555 228.896 477.815 228.566 478.164 L 228.566 475.475 C 228.566 475.155 228.486 474.905 228.347 474.735 C 228.196 474.555 227.986 474.475 227.717 474.475 C 227.467 474.475 227.267 474.565 227.117 474.745 C 226.977 474.925 226.907 475.195 226.907 475.555 L 226.907 483.225 C 226.907 483.555 226.977 483.805 227.126 483.975 C 227.276 484.145 227.467 484.235 227.717 484.235 C 227.967 484.235 228.166 484.145 228.327 483.975 C 228.486 483.805 228.566 483.555 228.566 483.225 L 228.566 483.055 C 228.756 483.275 228.916 483.445 229.026 483.555 C 229.146 483.664 229.287 483.775 229.456 483.885 C 229.626 483.985 229.827 484.075 230.066 484.135 C 230.307 484.195 230.557 484.235 230.827 484.235 C 231.267 484.235 231.677 484.145 232.046 483.965 C 232.407 483.785 232.727 483.535 232.977 483.205 C 233.236 482.885 233.436 482.495 233.566 482.055 C 233.706 481.605 233.767 481.125 233.767 480.585 C 233.767 479.865 233.646 479.245 233.407 478.715 Z " fill="#000000"/><path d=" M 240.196 477.475 C 240.126 477.355 240.037 477.265 239.916 477.195 C 239.796 477.125 239.666 477.085 239.537 477.085 C 239.347 477.085 239.206 477.115 239.106 477.185 C 239.006 477.245 238.907 477.375 238.816 477.555 C 238.727 477.745 238.626 477.995 238.517 478.325 L 237.106 482.345 L 235.617 478.015 C 235.517 477.715 235.407 477.485 235.276 477.325 C 235.146 477.164 234.956 477.085 234.706 477.085 C 234.557 477.085 234.416 477.125 234.287 477.205 C 234.146 477.275 234.037 477.385 233.967 477.515 C 233.887 477.635 233.847 477.775 233.847 477.925 C 233.847 478.075 233.916 478.295 234.046 478.615 L 236.206 484.055 L 236.046 484.455 C 235.927 484.735 235.827 484.955 235.727 485.105 C 235.637 485.255 235.537 485.355 235.416 485.414 C 235.307 485.475 235.146 485.505 234.946 485.505 C 234.856 485.505 234.767 485.495 234.657 485.465 C 234.566 485.445 234.467 485.425 234.376 485.425 C 234.137 485.425 233.956 485.485 233.836 485.595 C 233.706 485.705 233.646 485.855 233.646 486.055 C 233.646 486.355 233.776 486.555 234.037 486.675 C 234.296 486.785 234.677 486.835 235.196 486.835 C 235.717 486.835 236.137 486.755 236.446 486.595 C 236.767 486.435 237.017 486.205 237.196 485.905 C 237.387 485.605 237.586 485.195 237.776 484.664 L 240.077 478.664 C 240.126 478.505 240.177 478.355 240.217 478.205 C 240.256 478.055 240.276 477.935 240.296 477.855 C 240.296 477.725 240.267 477.595 240.196 477.475 Z " fill="#000000"/><path d=" M 261.507 477.238 L 261.926 477.238 L 261.926 476.71 C 261.926 476.159 261.993 475.723 262.133 475.398 C 262.271 475.074 262.51 474.837 262.843 474.69 C 263.175 474.542 263.631 474.468 264.21 474.468 C 265.239 474.468 265.75 474.717 265.75 475.223 C 265.75 475.385 265.696 475.525 265.587 475.64 C 265.482 475.755 265.354 475.814 265.209 475.814 C 265.142 475.814 265.02 475.801 264.852 475.774 C 264.69 475.751 264.545 475.736 264.43 475.736 C 264.112 475.736 263.91 475.831 263.815 476.017 C 263.729 476.204 263.684 476.47 263.684 476.82 L 263.684 477.238 L 264.112 477.238 C 264.784 477.238 265.116 477.439 265.116 477.845 C 265.116 478.129 265.03 478.313 264.85 478.39 C 264.673 478.468 264.427 478.506 264.112 478.506 L 263.684 478.506 L 263.684 483.163 C 263.684 483.509 263.602 483.773 263.434 483.955 C 263.27 484.139 263.058 484.23 262.795 484.23 C 262.546 484.23 262.34 484.139 262.173 483.955 C 262.007 483.773 261.926 483.509 261.926 483.163 L 261.926 478.506 L 261.441 478.506 C 261.179 478.506 260.979 478.45 260.836 478.329 C 260.694 478.213 260.623 478.058 260.623 477.87 C 260.623 477.447 260.918 477.238 261.507 477.238 L 261.507 477.238 Z " fill="#000000"/><path d=" M 267.26 481.694 L 267.26 483.163 C 267.26 483.518 267.17 483.786 267.007 483.962 C 266.839 484.142 266.628 484.23 266.371 484.23 C 266.112 484.23 265.905 484.141 265.743 483.958 C 265.583 483.78 265.499 483.514 265.499 483.163 L 265.499 478.268 C 265.499 477.478 265.783 477.082 266.353 477.082 C 266.647 477.082 266.856 477.174 266.986 477.359 C 267.114 477.544 267.185 477.816 267.201 478.178 C 267.409 477.816 267.624 477.544 267.844 477.359 C 268.068 477.174 268.36 477.082 268.731 477.082 C 269.103 477.082 269.458 477.174 269.806 477.359 C 270.154 477.544 270.328 477.79 270.328 478.094 C 270.328 478.308 270.253 478.488 270.107 478.624 C 269.958 478.766 269.8 478.835 269.629 478.835 C 269.561 478.835 269.404 478.792 269.159 478.713 C 268.912 478.636 268.692 478.596 268.507 478.596 C 268.249 478.596 268.037 478.665 267.875 478.798 C 267.711 478.937 267.584 479.135 267.493 479.399 C 267.405 479.666 267.345 479.986 267.309 480.351 C 267.275 480.718 267.26 481.166 267.26 481.694 L 267.26 481.694 Z " fill="#000000"/><path d=" M 272.416 478.745 C 272.696 478.445 273.057 478.295 273.486 478.295 C 273.957 478.295 274.316 478.445 274.606 478.745 C 274.887 479.035 275.047 479.485 275.087 480.085 L 271.896 480.085 C 271.957 479.495 272.127 479.055 272.416 478.745 Z  M 276.076 481.815 C 275.916 481.815 275.786 481.855 275.696 481.935 C 275.477 482.135 275.297 482.305 275.156 482.414 C 275.017 482.545 274.877 482.655 274.707 482.755 C 274.547 482.865 274.377 482.945 274.207 482.985 C 274.026 483.045 273.837 483.065 273.627 483.065 C 273.316 483.065 273.026 482.985 272.767 482.835 C 272.507 482.675 272.297 482.445 272.137 482.145 C 271.986 481.845 271.906 481.485 271.896 481.085 L 275.337 481.085 C 275.797 481.085 276.156 481.025 276.406 480.895 C 276.656 480.755 276.786 480.475 276.786 480.035 C 276.786 479.555 276.666 479.095 276.416 478.625 C 276.177 478.164 275.807 477.795 275.316 477.505 C 274.826 477.215 274.236 477.075 273.547 477.075 C 273.017 477.075 272.536 477.155 272.106 477.325 C 271.677 477.495 271.307 477.735 271.017 478.055 C 270.717 478.375 270.486 478.755 270.337 479.195 C 270.177 479.645 270.106 480.125 270.106 480.645 C 270.106 481.745 270.416 482.625 271.047 483.265 C 271.666 483.905 272.547 484.225 273.677 484.225 C 274.166 484.225 274.606 484.164 274.986 484.035 C 275.366 483.905 275.686 483.745 275.936 483.555 C 276.186 483.355 276.377 483.155 276.507 482.935 C 276.627 482.725 276.686 482.545 276.686 482.385 C 276.686 482.205 276.627 482.065 276.517 481.965 C 276.406 481.865 276.257 481.815 276.076 481.815 Z " fill="#000000"/><path d=" M 279.717 478.745 C 280.007 478.445 280.366 478.295 280.797 478.295 C 281.257 478.295 281.627 478.445 281.916 478.745 C 282.196 479.035 282.356 479.485 282.396 480.085 L 279.207 480.085 C 279.267 479.495 279.436 479.055 279.717 478.745 Z  M 283.387 481.815 C 283.227 481.815 283.097 481.855 283.007 481.935 C 282.786 482.135 282.606 482.305 282.467 482.414 C 282.326 482.545 282.186 482.655 282.017 482.755 C 281.856 482.865 281.686 482.945 281.507 482.985 C 281.337 483.045 281.146 483.065 280.936 483.065 C 280.627 483.065 280.337 482.985 280.076 482.835 C 279.816 482.675 279.606 482.445 279.457 482.145 C 279.297 481.845 279.217 481.485 279.207 481.085 L 282.646 481.085 C 283.106 481.085 283.467 481.025 283.717 480.895 C 283.967 480.755 284.097 480.475 284.097 480.035 C 284.097 479.555 283.977 479.095 283.727 478.625 C 283.486 478.164 283.116 477.795 282.627 477.505 C 282.127 477.215 281.547 477.075 280.856 477.075 C 280.326 477.075 279.847 477.155 279.416 477.325 C 278.977 477.495 278.616 477.735 278.326 478.055 C 278.026 478.375 277.797 478.755 277.646 479.195 C 277.486 479.645 277.406 480.125 277.406 480.645 C 277.406 481.745 277.727 482.625 278.356 483.265 C 278.977 483.905 279.856 484.225 280.986 484.225 C 281.477 484.225 281.916 484.164 282.297 484.035 C 282.677 483.905 282.996 483.745 283.246 483.555 C 283.496 483.355 283.686 483.155 283.807 482.935 C 283.936 482.725 283.986 482.545 283.986 482.385 C 283.986 482.205 283.936 482.065 283.826 481.965 C 283.717 481.865 283.566 481.815 283.387 481.815 Z " fill="#000000"/><path d=" M 289.717 481.855 C 289.566 482.195 289.377 482.445 289.116 482.615 C 288.877 482.785 288.597 482.875 288.307 482.875 C 288.246 482.875 288.186 482.875 288.137 482.855 C 287.717 482.825 287.366 482.625 287.076 482.285 C 286.746 481.905 286.587 481.355 286.587 480.655 C 286.587 479.914 286.746 479.355 287.087 478.965 C 287.416 478.585 287.826 478.395 288.307 478.395 C 288.616 478.395 288.896 478.485 289.146 478.664 C 289.396 478.845 289.587 479.095 289.727 479.435 C 289.877 479.765 289.946 480.164 289.946 480.625 C 289.946 481.055 289.887 481.425 289.757 481.735 C 289.746 481.775 289.736 481.815 289.717 481.855 Z  M 291.696 480.435 C 291.677 479.785 291.547 479.225 291.316 478.735 C 291.047 478.205 290.686 477.795 290.236 477.515 C 289.776 477.235 289.276 477.095 288.736 477.095 C 288.286 477.095 287.887 477.195 287.536 477.385 C 287.177 477.575 286.826 477.875 286.496 478.285 L 286.496 478.075 C 286.496 477.745 286.427 477.505 286.267 477.335 C 286.106 477.164 285.906 477.085 285.656 477.085 C 285.406 477.085 285.207 477.164 285.057 477.325 C 284.906 477.495 284.837 477.745 284.837 478.085 L 284.837 485.664 C 284.837 486.055 284.896 486.335 284.996 486.545 C 285.106 486.735 285.326 486.835 285.656 486.835 C 286.217 486.835 286.496 486.445 286.496 485.675 L 286.496 483.045 C 286.677 483.265 286.856 483.455 287.047 483.615 C 287.186 483.735 287.326 483.835 287.477 483.925 C 287.816 484.125 288.236 484.225 288.736 484.225 C 289.156 484.225 289.547 484.145 289.906 483.985 C 290.276 483.815 290.587 483.575 290.856 483.275 C 291.116 482.965 291.326 482.585 291.486 482.135 C 291.637 481.685 291.707 481.185 291.707 480.645 C 291.707 480.575 291.707 480.505 291.696 480.435 Z " fill="#000000"/><path d=" M 294.087 474.765 C 293.906 474.615 293.707 474.545 293.477 474.545 C 293.246 474.545 293.036 474.625 292.856 474.785 C 292.677 474.945 292.587 475.155 292.587 475.405 C 292.587 475.675 292.677 475.885 292.856 476.035 C 293.026 476.185 293.236 476.265 293.477 476.265 C 293.717 476.265 293.916 476.185 294.097 476.035 C 294.267 475.885 294.347 475.675 294.347 475.405 C 294.347 475.125 294.257 474.905 294.087 474.765 Z  M 294.097 477.345 C 293.927 477.164 293.717 477.085 293.457 477.085 C 293.207 477.085 292.996 477.164 292.837 477.345 C 292.677 477.525 292.587 477.785 292.587 478.135 L 292.587 483.164 C 292.587 483.505 292.677 483.765 292.837 483.955 C 292.996 484.135 293.207 484.225 293.457 484.225 C 293.717 484.225 293.927 484.145 294.097 483.955 C 294.267 483.775 294.347 483.515 294.347 483.164 L 294.347 478.085 C 294.347 477.765 294.267 477.525 294.097 477.345 Z " fill="#000000"/><path d=" M 300.015 483.427 L 298.467 480.875 L 297.513 481.776 L 297.513 483.175 C 297.513 483.514 297.423 483.773 297.244 483.955 C 297.069 484.139 296.86 484.23 296.63 484.23 C 296.359 484.23 296.145 484.141 295.992 483.958 C 295.839 483.78 295.76 483.514 295.76 483.163 L 295.76 475.664 C 295.76 475.277 295.837 474.98 295.983 474.775 C 296.135 474.568 296.352 474.468 296.63 474.468 C 296.9 474.468 297.113 474.561 297.273 474.748 C 297.432 474.93 297.513 475.204 297.513 475.562 L 297.513 479.827 L 299.489 477.751 C 299.734 477.497 299.918 477.317 300.05 477.224 C 300.178 477.129 300.333 477.082 300.517 477.082 C 300.737 477.082 300.919 477.153 301.069 477.291 C 301.212 477.431 301.286 477.608 301.286 477.816 C 301.286 478.073 301.047 478.418 300.571 478.847 L 299.639 479.703 L 301.44 482.538 C 301.571 482.75 301.67 482.906 301.727 483.016 C 301.785 483.123 301.815 483.233 301.815 483.329 C 301.815 483.609 301.738 483.827 301.585 483.99 C 301.433 484.151 301.23 484.23 300.984 484.23 C 300.77 484.23 300.602 484.175 300.487 484.056 C 300.372 483.939 300.212 483.729 300.015 483.427 L 300.015 483.427 Z " fill="#000000"/><path d=" M 303.834 484.23 C 303.569 484.23 303.342 484.144 303.147 483.972 C 302.955 483.803 302.856 483.561 302.856 483.25 C 302.856 482.989 302.95 482.763 303.135 482.576 C 303.321 482.386 303.547 482.292 303.818 482.292 C 304.087 482.292 304.316 482.386 304.511 482.572 C 304.7 482.758 304.797 482.986 304.797 483.25 C 304.797 483.557 304.7 483.797 304.511 483.968 C 304.316 484.144 304.091 484.23 303.834 484.23 L 303.834 484.23 Z " fill="#000000"/><path d=" M 312.576 482.054 C 312.576 482.272 312.511 482.507 312.379 482.755 C 312.249 483.006 312.048 483.242 311.778 483.467 C 311.511 483.692 311.174 483.875 310.766 484.011 C 310.358 484.148 309.897 484.219 309.39 484.219 C 308.301 484.219 307.452 483.901 306.843 483.27 C 306.235 482.635 305.931 481.786 305.931 480.721 C 305.931 479.998 306.068 479.362 306.35 478.807 C 306.626 478.255 307.03 477.827 307.558 477.524 C 308.085 477.22 308.72 477.07 309.451 477.07 C 309.907 477.07 310.324 477.136 310.706 477.27 C 311.086 477.402 311.406 477.576 311.672 477.785 C 311.934 477.998 312.137 478.22 312.275 478.456 C 312.415 478.695 312.483 478.918 312.483 479.125 C 312.483 479.334 312.406 479.513 312.251 479.66 C 312.092 479.805 311.901 479.879 311.683 479.879 C 311.534 479.879 311.413 479.84 311.315 479.766 C 311.219 479.69 311.109 479.57 310.991 479.399 C 310.776 479.075 310.554 478.829 310.316 478.667 C 310.084 478.503 309.788 478.422 309.427 478.422 C 308.91 478.422 308.488 478.624 308.17 479.031 C 307.853 479.434 307.693 479.993 307.693 480.694 C 307.693 481.025 307.736 481.331 307.817 481.607 C 307.896 481.883 308.015 482.12 308.17 482.315 C 308.326 482.509 308.512 482.657 308.73 482.758 C 308.95 482.862 309.191 482.911 309.451 482.911 C 309.805 482.911 310.106 482.83 310.356 482.666 C 310.611 482.503 310.833 482.255 311.025 481.919 C 311.133 481.722 311.247 481.569 311.37 481.456 C 311.494 481.345 311.647 481.288 311.828 481.288 C 312.043 481.288 312.221 481.371 312.361 481.533 C 312.504 481.696 312.576 481.872 312.576 482.054 L 312.576 482.054 Z " fill="#000000"/><path d=" M 317.927 482.315 C 317.606 482.725 317.186 482.925 316.656 482.925 C 316.297 482.925 315.996 482.835 315.736 482.655 C 315.477 482.465 315.276 482.205 315.137 481.855 C 314.996 481.515 314.927 481.115 314.927 480.655 C 314.927 480.195 314.996 479.785 315.137 479.435 C 315.276 479.095 315.477 478.825 315.746 478.645 C 316.007 478.475 316.307 478.385 316.656 478.385 C 317.186 478.385 317.606 478.585 317.927 478.985 C 318.236 479.385 318.396 479.945 318.396 480.655 C 318.396 481.365 318.236 481.914 317.927 482.315 Z  M 319.916 479.205 C 319.757 478.775 319.526 478.395 319.217 478.075 C 318.906 477.755 318.536 477.515 318.106 477.345 C 317.666 477.164 317.186 477.085 316.656 477.085 C 316.127 477.085 315.646 477.164 315.217 477.335 C 314.786 477.505 314.416 477.745 314.106 478.065 C 313.807 478.375 313.566 478.755 313.406 479.195 C 313.246 479.635 313.166 480.125 313.166 480.655 C 313.166 481.185 313.246 481.664 313.396 482.105 C 313.566 482.535 313.797 482.914 314.116 483.235 C 314.416 483.555 314.797 483.805 315.217 483.975 C 315.637 484.145 316.116 484.235 316.656 484.235 C 317.186 484.235 317.666 484.145 318.106 483.975 C 318.526 483.805 318.896 483.565 319.207 483.245 C 319.517 482.925 319.757 482.545 319.916 482.105 C 320.076 481.664 320.156 481.175 320.156 480.655 C 320.156 480.125 320.076 479.645 319.916 479.205 Z " fill="#000000"/><path d=" M 326.864 480.787 L 326.864 483.123 C 326.864 483.494 326.782 483.767 326.613 483.955 C 326.444 484.139 326.227 484.231 325.951 484.231 C 325.685 484.231 325.467 484.139 325.307 483.955 C 325.139 483.767 325.055 483.494 325.055 483.123 L 325.055 480.323 C 325.055 479.88 325.04 479.536 325.012 479.289 C 324.98 479.05 324.897 478.846 324.766 478.692 C 324.633 478.532 324.421 478.454 324.135 478.454 C 323.559 478.454 323.182 478.65 322.999 479.05 C 322.817 479.441 322.724 480.008 322.724 480.749 L 322.724 483.123 C 322.724 483.487 322.641 483.764 322.478 483.952 C 322.31 484.137 322.094 484.231 321.824 484.231 C 321.557 484.231 321.339 484.137 321.169 483.952 C 320.999 483.764 320.914 483.487 320.914 483.123 L 320.914 478.094 C 320.914 477.763 320.99 477.511 321.142 477.341 C 321.297 477.167 321.498 477.082 321.744 477.082 C 321.986 477.082 322.185 477.166 322.349 477.324 C 322.509 477.485 322.589 477.707 322.589 477.991 L 322.589 478.157 C 322.896 477.794 323.223 477.526 323.567 477.357 C 323.918 477.18 324.301 477.095 324.728 477.095 C 325.17 477.095 325.549 477.184 325.865 477.359 C 326.184 477.536 326.444 477.803 326.652 478.157 C 326.95 477.798 327.269 477.532 327.607 477.357 C 327.946 477.182 328.321 477.095 328.734 477.095 C 329.213 477.095 329.63 477.192 329.977 477.379 C 330.322 477.568 330.582 477.839 330.755 478.189 C 330.904 478.509 330.978 479.009 330.978 479.692 L 330.978 483.123 C 330.978 483.494 330.895 483.767 330.729 483.955 C 330.563 484.139 330.34 484.231 330.065 484.231 C 329.798 484.231 329.582 484.137 329.412 483.952 C 329.242 483.764 329.157 483.487 329.157 483.123 L 329.157 480.166 C 329.157 479.789 329.141 479.487 329.11 479.26 C 329.078 479.032 328.99 478.839 328.851 478.686 C 328.707 478.532 328.491 478.454 328.205 478.454 C 327.973 478.454 327.753 478.526 327.545 478.662 C 327.337 478.796 327.174 478.985 327.057 479.212 C 326.931 479.509 326.864 480.035 326.864 480.787 L 326.864 480.787 Z " fill="#000000"/><path d=" M 245.06 480.232 C 245.058 480.229 245.058 480.226 245.058 480.22 C 245.058 480.226 245.058 480.229 245.06 480.232 Z " fill="#000000"/><path d=" M 245.148 480.794 C 245.149 480.794 245.149 480.794 245.15 480.794 C 245.117 480.634 245.09 480.475 245.07 480.319 C 245.09 480.477 245.117 480.636 245.148 480.794 Z " fill="#000000"/><path d=" M 245.73 482.425 C 245.726 482.418 245.723 482.411 245.718 482.403 C 245.723 482.411 245.726 482.418 245.73 482.425 Z " fill="#000000"/><path d=" M 245.674 482.317 C 245.659 482.287 245.645 482.255 245.63 482.226 C 245.645 482.257 245.659 482.287 245.674 482.317 Z " fill="#000000"/><path d=" M 245.311 481.422 C 245.397 481.694 245.501 481.956 245.622 482.207 C 245.499 481.952 245.397 481.688 245.314 481.422 C 245.314 481.422 245.313 481.422 245.311 481.422 Z " fill="#000000"/><path d=" M 251.862 473.498 C 252.202 473.498 252.452 473.525 252.74 473.574 L 252.821 473.057 C 252.821 473.057 252.027 472.813 250.984 472.898 L 250.902 472.617 C 251.227 472.548 251.47 472.26 251.47 471.915 C 251.47 471.521 251.149 471.202 250.754 471.202 C 250.358 471.202 250.038 471.521 250.038 471.915 C 250.038 472.26 250.281 472.548 250.605 472.617 L 250.695 472.93 C 249.588 473.082 248.706 473.515 248.706 473.515 L 248.862 473.993 C 249.533 473.769 250.114 473.634 250.641 473.577 C 251.157 473.522 251.546 473.498 251.862 473.498 Z " fill="#000000"/><path d=" M 245.717 476.113 L 245.721 476.108 C 245.747 476.074 245.772 476.042 245.797 476.011 L 245.585 475.858 L 245.255 475.617 C 245.236 475.642 244.716 476.121 244.305 477.004 C 244.288 476.977 244.267 476.95 244.244 476.923 C 244.121 476.789 243.949 476.721 243.73 476.725 C 243.727 476.725 243.724 476.725 243.72 476.725 C 243.585 476.725 243.492 476.679 243.431 476.624 C 243.492 476.548 243.528 476.452 243.528 476.344 C 243.528 476.095 243.325 475.891 243.074 475.891 C 242.825 475.891 242.621 476.095 242.621 476.344 C 242.621 476.595 242.825 476.798 243.074 476.798 C 243.114 476.798 243.151 476.791 243.188 476.785 C 243.299 476.908 243.476 477.016 243.735 477.01 C 243.868 477.009 243.966 477.043 244.031 477.116 C 244.106 477.198 244.132 477.316 244.14 477.406 C 244.139 477.407 244.139 477.409 244.138 477.409 C 243.842 478.215 243.927 479.218 243.927 479.218 L 244.643 479.247 C 244.658 478.881 244.71 478.243 244.895 477.735 C 245.252 476.753 245.699 476.139 245.717 476.113 Z " fill="#000000"/><path d=" M 258.097 474.097 C 257.848 474.097 257.644 474.299 257.644 474.55 C 257.644 474.589 257.649 474.626 257.659 474.663 C 257.535 474.775 257.427 474.953 257.431 475.211 C 257.433 475.345 257.398 475.442 257.326 475.507 C 257.269 475.558 257.196 475.585 257.126 475.603 C 256.593 474.856 255.936 474.4 255.936 474.4 L 255.422 474.951 C 255.811 475.304 256.207 475.748 256.593 476.299 C 256.859 476.681 257.135 477.174 257.363 477.665 L 258.057 477.335 C 258.057 477.335 257.74 476.552 257.294 475.85 C 257.371 475.823 257.449 475.781 257.519 475.72 C 257.654 475.597 257.721 475.424 257.717 475.206 C 257.716 475.065 257.762 474.97 257.817 474.907 C 257.895 474.966 257.991 475.004 258.097 475.004 C 258.349 475.004 258.551 474.8 258.551 474.55 C 258.551 474.299 258.349 474.097 258.097 474.097 Z " fill="#000000"/><path d=" M 256.296 480.333 C 255.341 480.799 253.769 481.414 251.7 481.703 C 250.888 481.815 250.101 481.857 249.376 481.857 C 248.434 481.857 247.602 481.787 246.962 481.706 C 246.233 481.614 245.663 481.501 245.314 481.422 C 245.397 481.688 245.499 481.952 245.622 482.207 C 245.624 482.214 245.627 482.221 245.63 482.226 C 245.645 482.255 245.659 482.287 245.674 482.317 C 245.689 482.346 245.704 482.375 245.718 482.403 C 245.723 482.411 245.726 482.418 245.73 482.425 C 245.935 482.812 246.182 483.167 246.462 483.475 C 247.438 484.542 248.433 484.711 248.442 484.712 L 248.457 484.714 L 248.472 484.719 C 248.481 484.723 249.362 485.007 250.703 485.007 C 252.021 485.007 253.315 484.742 254.548 484.216 C 255.461 483.749 256.325 483.039 256.753 482.407 C 257.084 481.917 257.323 481.395 257.465 480.852 C 257.54 480.564 257.6 480.102 257.564 479.616 C 257.296 479.796 256.871 480.053 256.296 480.333 Z " fill="#000000"/><path d=" M 254.337 478.255 C 253.686 478.255 253.156 477.725 253.156 477.065 C 253.156 476.414 253.686 475.885 254.337 475.885 C 254.986 475.885 255.517 476.414 255.517 477.065 C 255.517 477.725 254.986 478.255 254.337 478.255 Z  M 248.756 479.655 C 247.696 479.655 246.847 478.805 246.847 477.745 C 246.847 476.695 247.696 475.845 248.756 475.845 C 249.807 475.845 250.666 476.695 250.666 477.745 C 250.666 478.805 249.807 479.655 248.756 479.655 Z  M 256.276 476.515 C 254.927 474.575 253.457 474.075 252.707 473.955 C 252.417 473.905 252.186 473.885 251.866 473.885 C 251.557 473.885 251.186 473.905 250.677 473.955 C 250.177 474.005 249.617 474.145 248.967 474.365 C 248.046 474.664 247.227 475.145 246.577 475.745 L 246.557 475.765 C 246.456 475.855 246.256 476.045 246.026 476.335 C 245.997 476.375 245.577 476.965 245.256 477.865 C 245.006 478.545 245.017 479.525 245.017 479.535 C 245.017 479.765 245.037 479.995 245.057 480.225 C 245.057 480.225 245.057 480.225 245.057 480.235 C 245.066 480.265 245.066 480.285 245.066 480.315 C 245.086 480.475 245.117 480.635 245.146 480.795 C 245.626 480.914 248.456 481.575 251.616 481.135 C 253.606 480.855 255.106 480.275 256.026 479.825 C 256.786 479.465 257.276 479.125 257.467 478.985 C 257.276 478.295 256.757 477.195 256.276 476.515 Z " fill="#000000"/><path d=" M 230.206 434.974 C 230.206 434.974 218.314 430.964 213.781 429.18 C 210.873 428.036 208.442 426.006 208.338 422.928 C 208.899 422.365 209.402 421.749 209.832 421.08 L 212.847 416.389 C 214.541 413.755 215.551 410.822 215.833 407.805 C 216.616 407.611 217.04 407.137 217.497 406.412 C 217.539 406.345 217.577 406.273 217.608 406.2 L 219.483 401.801 C 219.973 400.37 219.286 398.827 217.824 398.08 L 217.636 397.985 C 217.067 397.694 216.429 397.724 215.924 397.968 L 215.924 390.968 C 215.963 390.928 216 390.887 216.037 390.847 C 216.075 390.807 216.113 390.766 216.149 390.727 C 216.218 390.65 216.283 390.575 216.347 390.499 C 216.376 390.464 216.408 390.428 216.437 390.393 C 216.505 390.31 216.569 390.227 216.632 390.145 C 216.652 390.119 216.674 390.092 216.693 390.065 C 216.769 389.964 216.84 389.863 216.908 389.764 C 216.912 389.757 216.917 389.751 216.922 389.744 C 217.068 389.527 217.196 389.315 217.307 389.109 C 217.311 389.103 217.314 389.097 217.317 389.09 C 217.368 388.996 217.415 388.903 217.46 388.812 C 217.469 388.793 217.477 388.774 217.486 388.755 C 217.523 388.678 217.558 388.602 217.59 388.527 C 217.6 388.502 217.61 388.477 217.62 388.452 C 217.648 388.385 217.675 388.319 217.699 388.255 C 217.71 388.228 217.719 388.201 217.729 388.174 C 217.751 388.114 217.772 388.054 217.791 387.995 C 217.8 387.968 217.808 387.941 217.817 387.914 C 217.834 387.859 217.851 387.805 217.865 387.752 C 217.873 387.725 217.88 387.699 217.887 387.672 C 217.901 387.621 217.914 387.572 217.925 387.524 C 217.931 387.498 217.937 387.474 217.942 387.45 C 217.953 387.403 217.962 387.357 217.971 387.313 C 217.976 387.29 217.98 387.267 217.984 387.244 C 217.992 387.202 217.999 387.162 218.005 387.122 C 218.009 387.101 218.012 387.08 218.015 387.059 C 218.02 387.021 218.025 386.985 218.029 386.95 C 218.031 386.931 218.034 386.913 218.036 386.895 C 218.039 386.862 218.042 386.831 218.045 386.801 C 218.046 386.784 218.048 386.767 218.049 386.752 C 218.051 386.725 218.052 386.7 218.053 386.676 C 218.054 386.661 218.055 386.646 218.056 386.632 C 218.056 386.611 218.057 386.594 218.057 386.576 C 218.057 386.563 218.058 386.548 218.058 386.537 C 218.058 386.524 218.058 386.515 218.058 386.505 C 218.057 386.447 218.055 386.413 218.055 386.413 C 219.441 385.378 218.131 384.465 218.131 384.465 L 218.389 381.236 C 224.285 376.183 222.857 374.264 222.857 374.264 C 216.913 366.96 205.711 365.081 200.777 364.601 C 199.652 364.491 198.52 364.491 197.395 364.601 C 192.461 365.081 181.259 366.96 175.315 374.264 C 175.315 374.264 173.888 376.183 179.784 381.236 L 180.041 384.465 C 180.041 384.465 178.731 385.378 180.117 386.413 C 180.117 386.413 180.115 386.447 180.114 386.505 C 180.114 386.515 180.114 386.524 180.114 386.537 C 180.114 386.548 180.115 386.561 180.115 386.574 C 180.115 386.593 180.116 386.611 180.117 386.633 C 180.117 386.646 180.118 386.661 180.119 386.675 C 180.12 386.699 180.121 386.724 180.123 386.752 C 180.124 386.767 180.126 386.784 180.128 386.801 C 180.13 386.831 180.133 386.862 180.136 386.895 C 180.138 386.913 180.141 386.931 180.143 386.949 C 180.147 386.985 180.152 387.021 180.157 387.06 C 180.16 387.08 180.163 387.1 180.167 387.121 C 180.173 387.161 180.18 387.202 180.188 387.245 C 180.192 387.267 180.196 387.289 180.201 387.312 C 180.21 387.357 180.219 387.403 180.23 387.451 C 180.236 387.475 180.241 387.498 180.247 387.522 C 180.258 387.572 180.271 387.622 180.285 387.674 C 180.292 387.699 180.299 387.725 180.306 387.751 C 180.321 387.805 180.338 387.86 180.356 387.915 C 180.364 387.942 180.372 387.968 180.381 387.995 C 180.4 388.054 180.422 388.114 180.444 388.175 C 180.453 388.202 180.462 388.228 180.472 388.254 C 180.497 388.319 180.524 388.386 180.552 388.453 C 180.562 388.478 180.572 388.502 180.582 388.527 C 180.615 388.602 180.65 388.678 180.686 388.755 C 180.695 388.774 180.703 388.793 180.713 388.812 C 180.757 388.905 180.806 388.999 180.857 389.095 C 180.86 389.1 180.862 389.104 180.865 389.109 C 180.976 389.314 181.104 389.526 181.251 389.744 C 181.255 389.751 181.26 389.757 181.265 389.764 C 181.332 389.864 181.403 389.964 181.479 390.066 C 181.498 390.092 181.52 390.118 181.54 390.144 C 181.603 390.227 181.667 390.31 181.736 390.394 C 181.764 390.428 181.795 390.463 181.825 390.498 C 181.889 390.574 181.954 390.65 182.023 390.727 C 182.059 390.766 182.097 390.807 182.135 390.847 C 182.173 390.887 182.209 390.928 182.248 390.968 L 182.248 397.968 C 181.743 397.724 181.105 397.694 180.536 397.985 L 180.348 398.08 C 178.886 398.827 178.199 400.37 178.689 401.801 L 180.564 406.2 C 180.595 406.273 180.633 406.345 180.675 406.412 C 181.134 407.141 181.561 407.616 182.351 407.809 C 182.655 410.853 183.698 413.809 185.438 416.455 L 188.539 421.173 C 189.12 422.056 189.828 422.848 190.631 423.538 C 190.232 426.263 187.976 428.129 185.23 429.13 C 180.971 430.682 168.085 435.027 168.085 435.027 C 161.547 437.277 157.158 443.429 157.158 450.343 L 157.158 452.416 L 241.015 452.416 L 241.015 450.248 C 241.015 443.38 236.683 437.259 230.206 434.974 Z " fill="#000000"/><path d=" M 333.012 434.974 C 333.012 434.974 321.12 430.964 316.587 429.18 C 313.68 428.036 311.249 426.006 311.145 422.928 C 311.706 422.365 312.209 421.749 312.638 421.08 L 315.654 416.389 C 317.347 413.755 318.357 410.822 318.64 407.805 C 319.422 407.611 319.847 407.137 320.304 406.412 C 320.346 406.345 320.383 406.273 320.414 406.2 L 322.289 401.801 C 322.78 400.37 322.092 398.827 320.63 398.08 L 320.443 397.985 C 319.874 397.694 319.236 397.724 318.731 397.968 L 318.731 390.317 C 318.731 389.995 318.712 389.676 318.684 389.36 C 318.699 389.363 318.715 389.366 318.731 389.369 C 318.97 389.139 319.415 388.461 319.259 387.9 C 322.318 388.463 323.962 388.199 323.962 387.308 C 323.963 385.895 304.291 364.84 289.184 370.947 C 282.434 373.675 284.236 385.051 285.7 386.516 C 285.7 386.516 284.802 387.254 285.345 387.862 C 285.156 388.654 285.055 389.475 285.055 390.317 L 285.055 397.968 C 284.549 397.724 283.912 397.694 283.342 397.985 L 283.155 398.08 C 281.693 398.827 281.005 400.37 281.496 401.801 L 283.371 406.2 C 283.402 406.273 283.439 406.345 283.481 406.412 C 283.941 407.141 284.367 407.616 285.158 407.809 C 285.461 410.853 286.505 413.809 288.244 416.455 L 291.345 421.173 C 291.926 422.056 292.634 422.848 293.438 423.538 C 293.039 426.262 290.783 428.129 288.036 429.13 C 283.778 430.682 270.892 435.027 270.892 435.027 C 264.354 437.277 259.964 443.429 259.964 450.343 L 259.964 452.416 L 343.821 452.416 L 343.821 450.248 C 343.821 443.38 339.489 437.259 333.012 434.974 Z " fill="#000000"/><path d=" M 435.991 434.974 C 435.991 434.974 424.099 430.964 419.566 429.18 C 416.659 428.036 414.228 426.006 414.124 422.928 C 414.684 422.365 415.187 421.749 415.617 421.08 L 418.632 416.389 C 420.326 413.755 421.336 410.822 421.619 407.805 C 422.401 407.611 422.826 407.137 423.283 406.412 C 423.325 406.345 423.362 406.273 423.393 406.2 L 425.268 401.801 C 425.759 400.37 425.071 398.827 423.609 398.08 L 423.422 397.985 C 423.106 397.823 422.77 397.763 422.446 397.78 L 422.942 392.205 L 424.099 392.205 L 424.316 389.769 C 424.316 386.974 429.177 364.801 404.889 369.723 C 381.231 365.776 384.667 384.478 384.667 391.356 L 384.796 392.205 L 385.948 392.205 L 386.798 397.817 C 386.637 397.851 386.476 397.905 386.321 397.985 L 386.134 398.08 C 384.672 398.827 383.984 400.37 384.475 401.801 L 386.35 406.2 C 386.381 406.273 386.418 406.345 386.46 406.412 C 386.919 407.141 387.346 407.616 388.136 407.809 C 388.44 410.853 389.483 413.809 391.223 416.455 L 394.324 421.173 C 394.905 422.056 395.613 422.848 396.417 423.538 C 396.018 426.262 393.762 428.129 391.015 429.13 C 386.756 430.682 373.871 435.027 373.871 435.027 C 367.332 437.277 362.943 443.429 362.943 450.343 L 362.943 452.416 L 446.8 452.416 L 446.8 450.248 C 446.8 443.38 442.468 437.259 435.991 434.974 Z " fill="#000000"/><path d=" M 230.206 325.437 C 230.206 325.437 218.314 321.427 213.781 319.643 C 210.873 318.499 208.442 316.469 208.338 313.39 C 208.899 312.828 209.402 312.212 209.832 311.543 L 212.847 306.852 C 214.541 304.218 215.551 301.285 215.833 298.268 C 216.616 298.074 217.04 297.6 217.497 296.875 C 217.539 296.808 217.577 296.736 217.608 296.663 L 219.483 292.264 C 219.973 290.833 219.286 289.29 217.824 288.543 L 217.636 288.447 C 217.067 288.156 216.429 288.187 215.924 288.431 L 215.924 283.05 C 224.061 281.046 229.629 277.933 229.629 275.026 C 229.629 271.906 223.839 269.171 215.149 267.639 C 212.507 261.193 206.172 256.65 198.774 256.65 L 198.774 256.65 C 191.328 256.65 184.962 261.251 182.35 267.762 C 174.036 269.314 168.543 271.987 168.543 275.026 C 168.543 278.183 173.827 281.586 182.248 283.544 L 182.248 288.431 C 181.743 288.187 181.105 288.156 180.536 288.447 L 180.348 288.543 C 178.886 289.29 178.199 290.833 178.689 292.264 L 180.564 296.663 C 180.595 296.736 180.633 296.808 180.675 296.875 C 181.134 297.604 181.561 298.079 182.351 298.272 C 182.655 301.316 183.698 304.272 185.438 306.918 L 188.539 311.636 C 189.12 312.519 189.828 313.311 190.631 314.001 C 190.232 316.725 187.976 318.592 185.23 319.593 C 180.971 321.144 168.085 325.49 168.085 325.49 C 161.547 327.74 157.158 333.892 157.158 340.806 L 157.158 342.879 L 241.015 342.879 L 241.015 340.711 C 241.015 333.843 236.683 327.722 230.206 325.437 Z " fill="#000000"/><path d=" M 230.206 213.895 C 230.206 213.895 218.314 209.885 213.781 208.101 C 210.873 206.957 208.442 204.927 208.338 201.848 C 208.899 201.286 209.402 200.67 209.832 200.001 L 212.847 195.31 C 214.541 192.676 215.551 189.743 215.833 186.726 C 216.616 186.532 217.04 186.058 217.497 185.333 C 217.539 185.266 217.577 185.194 217.608 185.121 L 219.483 180.722 C 219.973 179.291 219.286 177.748 217.824 177.001 L 217.636 176.905 C 217.067 176.614 216.429 176.645 215.924 176.889 L 215.924 171.578 L 215.924 171.578 L 217.314 156.473 L 215.441 160.307 L 213.896 156.473 L 212.18 157.961 L 211.093 156.473 L 209.834 157.546 L 205.829 155.043 L 203.597 156.072 L 202.396 155.615 L 200.851 156.473 L 198.219 155.043 L 196.387 156.473 L 194.957 154.814 L 193.582 156.873 L 192.163 155.548 L 191.295 156.473 L 188.148 154.814 L 186.546 156.473 L 184.715 155.729 L 182.941 158.476 L 180.998 156.473 L 182.248 171.578 L 182.248 176.889 C 181.743 176.645 181.105 176.614 180.536 176.905 L 180.348 177.001 C 178.886 177.748 178.199 179.291 178.689 180.722 L 180.564 185.121 C 180.595 185.194 180.633 185.266 180.675 185.333 C 181.134 186.062 181.561 186.537 182.351 186.73 C 182.655 189.774 183.698 192.73 185.438 195.376 L 188.539 200.094 C 189.12 200.977 189.828 201.769 190.631 202.459 C 190.232 205.183 187.976 207.05 185.23 208.051 C 180.971 209.602 168.085 213.948 168.085 213.948 C 161.547 216.198 157.158 222.35 157.158 229.264 L 157.158 231.337 L 241.015 231.337 L 241.015 229.169 C 241.015 222.301 236.683 216.18 230.206 213.895 Z " fill="#000000"/><path d=" M 126.248 213.895 C 126.248 213.895 114.356 209.885 109.824 208.101 C 106.916 206.957 104.485 204.927 104.381 201.848 C 104.942 201.286 105.445 200.67 105.874 200.001 L 108.89 195.31 C 110.584 192.676 111.593 189.743 111.876 186.726 C 112.658 186.532 113.083 186.058 113.54 185.333 C 113.582 185.266 113.619 185.194 113.65 185.121 L 115.525 180.722 C 116.016 179.291 115.328 177.748 113.866 177.001 L 113.679 176.905 C 113.24 176.681 112.759 176.647 112.33 176.755 L 112.33 176.755 C 112.262 176.597 113.126 174.744 112.366 173.557 C 111.705 172.527 112.566 171.224 112.621 170.657 C 112.728 169.56 111.904 168.706 111.744 167.606 C 111.526 166.111 113.066 164.977 113.367 163.524 C 113.459 163.079 114.109 161.617 113.177 161.218 C 112.49 160.924 110.37 161.274 109.438 160.909 C 108.728 160.631 107.903 158.67 107.405 158.378 C 106.6 157.908 105.959 158.323 104.704 158.518 C 103.683 158.677 102.69 158.549 101.772 158.07 C 100.03 157.159 99.323 155.371 97.095 155.846 C 96.34 156.007 95.699 156.628 94.907 156.567 C 94.408 156.528 92.601 155.623 91.422 155.638 C 90.584 155.648 88.97 156.8 88.469 156.882 C 87.167 157.096 85.529 156.968 84.097 156.45 C 83.039 156.067 82.056 156.224 81.448 156.832 C 80.624 157.656 81.881 159.828 81.323 160.114 C 79.95 160.816 79.567 161.835 79.778 163.214 C 79.977 164.516 80.476 165.006 79.882 166.241 C 79.352 167.342 78.633 166.462 77.41 168.982 C 76.53 170.795 78.099 174.66 78.118 176.814 C 77.645 176.641 77.085 176.647 76.578 176.905 L 76.391 177.001 C 74.929 177.748 74.241 179.291 74.732 180.722 L 76.607 185.121 C 76.638 185.194 76.675 185.266 76.718 185.333 C 77.177 186.062 77.603 186.537 78.394 186.73 C 78.697 189.774 79.741 192.73 81.48 195.376 L 84.582 200.094 C 85.162 200.977 85.87 201.769 86.674 202.459 C 86.275 205.183 84.019 207.05 81.272 208.051 C 77.014 209.602 64.128 213.948 64.128 213.948 C 57.59 216.198 53.2 222.35 53.2 229.264 L 53.2 231.337 L 137.057 231.337 L 137.057 229.169 C 137.057 222.301 132.725 216.18 126.248 213.895 Z " fill="#000000"/><path d=" M 137.057 118.63 C 137.057 111.761 132.725 105.64 126.248 103.355 C 126.248 103.355 114.356 99.345 109.824 97.562 C 106.916 96.418 104.485 94.387 104.381 91.309 C 104.942 90.747 105.445 90.13 105.874 89.462 L 108.89 84.771 C 110.584 82.136 111.593 79.204 111.876 76.187 C 112.658 75.992 113.083 75.518 113.54 74.793 C 113.582 74.726 113.619 74.654 113.65 74.582 L 115.525 70.183 C 116.016 68.751 115.328 67.209 113.866 66.462 L 113.679 66.366 C 113.444 66.246 113.196 66.182 112.951 66.164 C 113.061 63.896 113.227 60.425 113.367 57.497 C 113.596 52.691 112.663 51.644 112.663 51.644 C 113.15 51.158 114.58 51.444 114.58 51.444 C 112.291 44.492 102.993 43.576 102.993 43.576 C 104.653 42.661 106.484 43.062 106.484 43.062 C 97.958 39.285 90.463 42.489 90.463 42.489 C 90.177 40.83 91.607 39.628 91.607 39.628 C 83.883 38.942 82.91 46.323 82.91 46.323 C 79.134 45.98 77.926 50.124 77.926 50.124 C 79.065 48.757 79.756 49.184 79.756 49.184 C 76.277 52.663 78.019 64.456 78.291 66.153 L 78.291 66.349 C 77.786 66.105 77.148 66.075 76.578 66.366 L 76.391 66.462 C 74.929 67.209 74.241 68.751 74.732 70.183 L 76.607 74.582 C 76.638 74.654 76.675 74.726 76.718 74.793 C 77.177 75.522 77.603 75.998 78.394 76.19 C 78.697 79.235 79.741 82.19 81.48 84.836 L 84.582 89.555 C 85.162 90.438 85.87 91.229 86.674 91.92 C 86.275 94.644 84.019 96.51 81.272 97.511 C 77.014 99.063 64.128 103.409 64.128 103.409 C 57.59 105.658 53.2 111.81 53.2 118.725 L 53.2 120.798 L 137.057 120.798 L 137.057 118.63 Z " fill="#000000"/><path d=" M 333.012 103.355 C 333.012 103.355 321.12 99.345 316.587 97.562 C 315.186 97.01 313.898 96.251 312.924 95.27 C 313.354 95.2 313.785 95.13 314.07 94.877 C 314.612 94.397 314.562 93.322 315.042 92.78 C 315.521 92.239 316.595 92.16 317.007 91.564 C 317.417 90.971 317.113 89.939 317.451 89.296 C 317.786 88.659 318.809 88.325 319.067 87.645 C 319.322 86.973 318.779 86.045 318.953 85.337 C 319.124 84.641 320.037 84.071 320.124 83.345 C 320.209 82.635 319.459 81.865 319.459 81.132 C 319.459 80.399 320.209 79.628 320.124 78.918 C 320.037 78.193 319.124 77.623 318.953 76.926 C 318.888 76.664 318.922 76.372 318.978 76.075 C 319.553 75.837 319.918 75.406 320.304 74.793 C 320.346 74.726 320.383 74.654 320.414 74.582 L 322.289 70.183 C 322.78 68.751 322.092 67.209 320.63 66.462 L 320.443 66.366 C 319.874 66.075 319.236 66.105 318.731 66.349 L 318.731 58.698 C 318.731 52.241 312.898 47.007 305.703 47.007 L 298.082 47.007 C 290.887 47.007 285.055 52.241 285.055 58.698 L 285.055 66.349 C 284.549 66.105 283.912 66.075 283.342 66.366 L 283.155 66.462 C 281.693 67.209 281.005 68.751 281.496 70.183 L 283.371 74.582 C 283.402 74.654 283.439 74.726 283.481 74.793 C 283.867 75.406 284.233 75.837 284.808 76.075 C 284.863 76.373 284.897 76.664 284.833 76.926 C 284.662 77.623 283.749 78.193 283.661 78.918 C 283.576 79.628 284.326 80.399 284.326 81.132 C 284.326 81.865 283.576 82.635 283.661 83.346 C 283.749 84.071 284.662 84.641 284.833 85.337 C 285.007 86.046 284.463 86.973 284.718 87.646 C 284.976 88.326 286 88.659 286.335 89.297 C 286.673 89.939 286.368 90.971 286.779 91.565 C 287.191 92.161 288.264 92.24 288.744 92.781 C 289.224 93.322 289.174 94.397 289.716 94.878 C 290.16 95.272 290.954 95.225 291.555 95.424 C 290.605 96.326 289.379 97.022 288.036 97.511 C 283.778 99.063 270.892 103.409 270.892 103.409 C 264.354 105.658 259.964 111.81 259.964 118.725 L 259.964 120.798 L 343.821 120.798 L 343.821 118.63 C 343.821 111.761 339.489 105.64 333.012 103.355 Z " fill="#000000"/><path d=" M 435.991 103.355 C 435.991 103.355 424.099 99.345 419.566 97.562 C 416.659 96.418 414.228 94.387 414.124 91.309 C 414.684 90.747 415.187 90.13 415.617 89.462 L 418.632 84.771 C 420.326 82.136 421.336 79.203 421.619 76.187 C 422.401 75.992 422.826 75.518 423.283 74.793 C 423.325 74.726 423.362 74.654 423.393 74.582 L 425.268 70.183 C 425.759 68.751 425.071 67.209 423.609 66.462 L 423.422 66.366 C 422.852 66.075 422.215 66.105 421.709 66.349 L 421.709 58.698 C 421.709 58.328 421.688 57.962 421.65 57.6 C 421.725 56.446 422.316 45.147 417.338 40.169 C 417.338 40.169 417.567 45.084 412.532 46.045 C 407.656 46.976 402.071 46.976 397.195 46.045 C 392.16 45.084 392.389 40.169 392.389 40.169 C 387.411 45.147 388.002 56.448 388.077 57.6 C 388.039 57.962 388.018 58.328 388.018 58.698 L 388.018 66.342 C 387.515 66.105 386.885 66.078 386.321 66.366 L 386.134 66.462 C 384.672 67.209 383.984 68.751 384.475 70.183 L 386.35 74.582 C 386.381 74.654 386.418 74.726 386.46 74.793 C 386.914 75.513 387.336 75.985 388.108 76.182 C 388.39 79.2 389.4 82.135 391.095 84.771 L 394.11 89.462 C 394.734 90.432 395.511 91.292 396.4 92.033 C 395.956 94.696 393.724 96.524 391.015 97.511 C 386.756 99.063 373.871 103.409 373.871 103.409 C 367.332 105.658 362.943 111.81 362.943 118.725 L 362.943 120.798 L 446.8 120.798 L 446.8 118.63 C 446.8 111.761 442.468 105.64 435.991 103.355 Z " fill="#000000"/><path d=" M 121.312 434.974 C 121.312 434.974 111.307 430.964 107.493 429.18 C 105.119 428.07 103.121 426.126 102.925 423.201 L 104.262 421.663 C 104.488 421.404 104.705 421.14 104.92 420.873 C 105.717 421.319 106.729 421.128 107.301 420.394 C 107.946 422.122 110.11 426.432 115.576 426.108 C 123.3 425.652 125.088 425.418 126.068 428.893 C 126.942 427.707 125.162 417.348 118.968 413.77 C 116.874 412.56 115.181 411.888 113.816 411.553 C 114.42 410.722 114.241 409.559 113.413 408.949 L 113.413 408.949 C 113.189 408.784 112.94 408.681 112.684 408.628 C 114.109 405.701 114.963 402.42 115.041 398.988 C 115.514 378.186 105.788 371.771 95.129 376.207 C 84.469 371.771 74.744 378.186 75.217 398.988 C 75.295 402.42 76.149 405.701 77.573 408.628 C 77.318 408.681 77.069 408.784 76.845 408.949 L 76.845 408.949 C 76.017 409.559 75.838 410.722 76.441 411.553 C 75.077 411.888 73.383 412.56 71.289 413.77 C 65.095 417.348 63.316 427.707 64.19 428.893 C 65.17 425.418 66.958 425.652 74.681 426.108 C 80.147 426.432 82.311 422.122 82.956 420.394 C 83.528 421.128 84.541 421.319 85.337 420.873 C 85.552 421.14 85.77 421.404 85.995 421.664 L 87.606 423.515 C 87.722 423.648 87.842 423.777 87.963 423.903 C 87.51 426.43 85.677 428.174 83.47 429.13 C 79.887 430.682 69.046 435.027 69.046 435.027 C 63.544 437.277 59.851 443.429 59.851 450.343 L 59.851 452.416 L 130.406 452.416 L 130.406 450.248 C 130.406 443.38 126.762 437.259 121.312 434.974 Z " fill="#000000"/><path d=" M 378.788 325.49 C 373.287 327.74 369.594 333.892 369.594 340.806 L 369.594 342.879 L 440.149 342.879 L 440.149 340.711 C 440.149 333.843 436.504 327.722 431.055 325.437 C 431.055 325.437 427.98 324.204 424.59 322.802 L 424.59 289.542 C 424.617 287.622 424.531 285.851 424.352 284.213 C 424.787 284.097 425.208 283.979 425.615 283.859 C 425.814 283.801 426.01 283.741 426.202 283.682 C 433.701 281.364 436.151 278.476 436.151 278.476 C 436.197 278.388 436.31 277.97 436.434 277.482 C 436.455 277.4 436.476 277.317 436.497 277.233 C 436.685 276.476 436.875 275.659 436.875 275.659 L 436.875 275.659 L 436.875 275.659 L 436.875 275.659 C 431.732 276.582 422.476 275.179 422.476 275.179 C 422.476 275.179 422.458 275.124 422.428 275.032 C 422.404 274.959 422.374 274.865 422.335 274.744 C 422.323 274.706 422.312 274.673 422.298 274.63 C 422.297 274.629 422.297 274.627 422.296 274.625 C 422.27 274.545 422.242 274.456 422.211 274.36 C 422.199 274.323 422.185 274.28 422.172 274.24 C 422.148 274.166 422.124 274.091 422.098 274.009 C 422.093 273.993 422.087 273.977 422.082 273.961 C 422.007 273.725 421.923 273.463 421.831 273.175 C 420.71 269.661 418.496 262.576 418.243 260.638 C 418.228 260.523 418.181 260.411 418.114 260.3 C 418.106 260.286 418.101 260.272 418.092 260.259 C 418.062 260.214 418.025 260.17 417.988 260.126 C 417.972 260.108 417.96 260.089 417.943 260.071 C 417.905 260.03 417.86 259.99 417.815 259.949 C 417.793 259.929 417.773 259.908 417.749 259.888 C 417.703 259.85 417.651 259.812 417.6 259.773 C 417.571 259.752 417.544 259.731 417.513 259.71 C 417.46 259.673 417.401 259.637 417.343 259.601 C 417.308 259.579 417.274 259.557 417.237 259.536 C 417.177 259.501 417.113 259.466 417.048 259.432 C 417.007 259.41 416.967 259.388 416.924 259.367 C 416.858 259.333 416.789 259.3 416.718 259.268 C 416.672 259.246 416.625 259.224 416.577 259.202 C 416.505 259.171 416.431 259.139 416.356 259.108 C 416.304 259.087 416.252 259.065 416.198 259.044 C 416.121 259.013 416.042 258.983 415.962 258.953 C 415.906 258.932 415.85 258.911 415.792 258.891 C 415.71 258.861 415.626 258.832 415.54 258.803 C 415.481 258.783 415.421 258.763 415.36 258.743 C 415.273 258.715 415.185 258.687 415.095 258.659 C 415.032 258.64 414.969 258.62 414.905 258.601 C 414.814 258.574 414.721 258.547 414.628 258.521 C 414.563 258.502 414.497 258.484 414.431 258.466 C 414.334 258.439 414.237 258.413 414.138 258.387 C 414.074 258.37 414.008 258.354 413.943 258.337 C 413.84 258.311 413.738 258.286 413.634 258.26 C 413.569 258.245 413.504 258.23 413.438 258.214 C 413.332 258.189 413.225 258.165 413.118 258.141 C 413.053 258.126 412.988 258.112 412.922 258.098 C 412.811 258.074 412.699 258.05 412.586 258.026 C 412.527 258.014 412.468 258.002 412.408 257.99 C 412.289 257.966 412.169 257.942 412.048 257.919 C 411.994 257.908 411.94 257.899 411.886 257.888 C 411.76 257.865 411.633 257.841 411.506 257.819 C 411.46 257.81 411.414 257.803 411.368 257.795 C 411.232 257.771 411.095 257.748 410.959 257.725 C 410.93 257.72 410.9 257.716 410.871 257.711 C 410.717 257.686 410.564 257.662 410.411 257.639 C 410.409 257.638 410.408 257.638 410.406 257.638 C 408.219 257.308 406.104 257.158 404.871 257.24 C 403.639 257.158 401.526 257.308 399.338 257.638 C 399.336 257.638 399.334 257.638 399.332 257.639 C 399.18 257.662 399.027 257.686 398.875 257.71 C 398.844 257.715 398.814 257.72 398.783 257.725 C 398.647 257.747 398.512 257.771 398.377 257.794 C 398.33 257.803 398.283 257.81 398.236 257.819 C 398.11 257.841 397.984 257.864 397.859 257.888 C 397.804 257.898 397.748 257.908 397.693 257.919 C 397.573 257.942 397.455 257.966 397.336 257.99 C 397.276 258.002 397.215 258.014 397.155 258.026 C 397.043 258.05 396.932 258.073 396.822 258.097 C 396.756 258.112 396.69 258.126 396.624 258.141 C 396.517 258.165 396.411 258.189 396.305 258.214 C 396.239 258.229 396.173 258.245 396.108 258.261 C 396.005 258.286 395.902 258.311 395.801 258.337 C 395.735 258.354 395.669 258.37 395.604 258.387 C 395.505 258.413 395.409 258.439 395.313 258.465 C 395.246 258.484 395.18 258.502 395.114 258.521 C 395.021 258.547 394.929 258.574 394.838 258.601 C 394.774 258.62 394.71 258.64 394.647 258.659 C 394.558 258.687 394.47 258.715 394.383 258.743 C 394.321 258.763 394.261 258.783 394.201 258.804 C 394.116 258.832 394.033 258.861 393.951 258.89 C 393.893 258.911 393.836 258.932 393.779 258.954 C 393.7 258.983 393.621 259.013 393.545 259.043 C 393.491 259.065 393.438 259.087 393.386 259.109 C 393.311 259.14 393.237 259.171 393.166 259.202 C 393.117 259.224 393.07 259.246 393.023 259.268 C 392.953 259.301 392.884 259.333 392.819 259.366 C 392.776 259.388 392.735 259.411 392.693 259.433 C 392.629 259.467 392.565 259.501 392.506 259.536 C 392.468 259.557 392.434 259.579 392.398 259.601 C 392.341 259.637 392.283 259.673 392.23 259.709 C 392.199 259.731 392.171 259.753 392.142 259.775 C 392.09 259.812 392.039 259.85 391.994 259.888 C 391.969 259.909 391.949 259.93 391.926 259.95 C 391.882 259.99 391.837 260.03 391.8 260.071 C 391.782 260.09 391.769 260.109 391.754 260.128 C 391.717 260.171 391.68 260.214 391.651 260.258 C 391.641 260.273 391.636 260.288 391.627 260.302 C 391.598 260.351 391.569 260.4 391.55 260.45 L 391.55 260.45 L 391.55 260.45 C 391.526 260.512 391.508 260.575 391.499 260.638 C 391.247 262.574 389.036 269.651 387.914 273.167 C 387.595 274.168 387.366 274.874 387.293 275.097 C 387.278 275.145 387.267 275.179 387.267 275.179 C 387.267 275.179 378.01 276.582 372.867 275.659 C 372.867 275.659 373.468 278.242 373.592 278.476 C 373.592 278.476 376.384 281.764 385.122 284.14 C 384.937 285.798 384.848 287.594 384.876 289.542 L 384.876 323.035 C 381.625 324.353 378.788 325.49 378.788 325.49 Z " fill="#000000"/><path d=" M 266.615 340.806 L 266.615 342.879 L 337.17 342.879 L 337.17 340.711 C 337.17 333.843 333.526 327.722 328.076 325.437 C 328.076 325.437 318.07 321.427 314.257 319.643 C 311.883 318.533 309.885 316.589 309.689 313.663 L 311.026 312.126 C 312.847 310.034 314.325 307.693 315.426 305.191 C 315.75 305.56 316.134 305.829 316.576 305.974 C 318.1 306.475 319.932 305.394 321.431 303.364 C 321.547 303.447 321.669 303.516 321.804 303.56 C 323.129 303.996 324.871 302.319 325.695 299.814 C 326.519 297.309 326.113 294.925 324.788 294.489 C 324.603 294.429 324.41 294.413 324.213 294.431 C 324.117 292.128 323.295 290.372 321.864 289.901 C 321.367 289.738 320.837 289.751 320.297 289.901 C 321.616 276.549 313.88 265.693 301.893 269.929 C 289.906 265.693 282.169 276.549 283.488 289.901 C 282.948 289.751 282.418 289.738 281.921 289.901 C 280.49 290.372 279.669 292.128 279.572 294.431 C 279.375 294.413 279.182 294.429 278.997 294.489 C 277.672 294.925 277.266 297.309 278.09 299.814 C 278.914 302.319 280.656 303.996 281.981 303.56 C 282.116 303.516 282.238 303.447 282.354 303.364 C 283.853 305.394 285.686 306.475 287.209 305.974 C 287.651 305.829 288.036 305.56 288.359 305.191 C 289.46 307.693 290.938 310.034 292.759 312.126 L 294.37 313.977 C 294.486 314.111 294.606 314.24 294.727 314.366 C 294.274 316.893 292.441 318.637 290.234 319.593 C 286.651 321.144 275.81 325.49 275.81 325.49 C 270.308 327.74 266.615 333.892 266.615 340.806 Z " fill="#000000"/><path d=" M 393.213 208.051 C 389.63 209.602 378.788 213.948 378.788 213.948 C 373.287 216.198 369.594 222.35 369.594 229.264 L 369.594 231.337 L 440.149 231.337 L 440.149 229.169 C 440.149 222.301 436.504 216.18 431.055 213.895 C 431.055 213.895 421.049 209.885 417.235 208.101 C 414.862 206.991 412.864 205.047 412.667 202.121 L 414.005 200.584 C 416.58 197.625 418.467 194.168 419.575 190.463 C 419.685 190.495 419.806 190.503 419.929 190.474 C 420.734 190.285 421.163 189.807 421.626 189.071 C 421.668 189.004 421.706 188.932 421.737 188.859 L 423.612 184.46 C 424.102 183.029 423.415 181.486 421.953 180.739 L 421.766 180.644 C 421.449 180.482 421.112 180.422 420.789 180.439 L 420.845 178.175 C 425.907 176.599 428.199 174.256 429.149 172.117 C 429.147 172.123 429.145 172.129 429.143 172.135 C 429.152 172.117 429.157 172.099 429.165 172.081 C 429.231 171.93 429.293 171.78 429.346 171.632 C 429.35 171.619 429.354 171.607 429.358 171.594 C 429.408 171.454 429.45 171.316 429.489 171.179 C 429.498 171.147 429.508 171.114 429.517 171.082 C 429.555 170.939 429.588 170.798 429.616 170.659 C 429.621 170.634 429.625 170.61 429.63 170.586 C 429.653 170.462 429.673 170.34 429.689 170.219 C 429.692 170.193 429.696 170.167 429.7 170.141 C 429.716 170.008 429.728 169.878 429.736 169.75 C 429.737 169.722 429.739 169.695 429.74 169.667 C 429.746 169.552 429.749 169.438 429.749 169.328 C 429.749 169.312 429.75 169.296 429.75 169.28 C 429.749 169.159 429.745 169.042 429.738 168.928 C 429.736 168.902 429.734 168.876 429.733 168.85 C 429.724 168.737 429.715 168.627 429.702 168.522 C 429.403 166.093 426.974 167.363 424.807 167.064 C 422.64 166.766 419.801 166.766 419.801 166.766 C 419.539 165.495 418.836 164.81 418.836 164.81 C 418.836 164.81 418.431 158.384 416.388 155.793 C 414.345 153.203 410.31 151.932 410.31 151.932 C 408.673 151.449 407.345 152.679 404.871 153.034 C 402.397 152.679 401.069 151.449 399.432 151.932 C 399.432 151.932 395.397 153.203 393.355 155.793 C 391.312 158.384 390.907 164.81 390.907 164.81 C 390.907 164.81 390.204 165.495 389.942 166.766 C 389.942 166.766 387.102 166.766 384.935 167.064 C 382.768 167.363 380.34 166.093 380.041 168.522 C 380.028 168.627 380.018 168.737 380.01 168.85 C 380.008 168.876 380.006 168.902 380.005 168.928 C 379.998 169.042 379.993 169.159 379.993 169.28 C 379.993 169.296 379.993 169.313 379.993 169.33 C 379.993 169.439 379.997 169.552 380.003 169.667 C 380.004 169.694 380.005 169.722 380.007 169.75 C 380.015 169.878 380.027 170.008 380.043 170.141 C 380.046 170.167 380.05 170.193 380.054 170.219 C 380.07 170.339 380.089 170.461 380.113 170.585 C 380.117 170.61 380.121 170.634 380.126 170.659 C 380.154 170.798 380.188 170.939 380.226 171.082 C 380.235 171.114 380.244 171.147 380.253 171.179 C 380.292 171.316 380.335 171.454 380.384 171.594 C 380.389 171.607 380.392 171.619 380.397 171.632 C 380.45 171.78 380.511 171.93 380.577 172.08 C 380.585 172.099 380.591 172.117 380.599 172.135 C 380.597 172.129 380.595 172.123 380.594 172.117 C 381.544 174.256 383.836 176.599 388.898 178.175 L 388.954 180.439 C 388.63 180.422 388.293 180.482 387.977 180.644 L 387.79 180.739 C 386.328 181.486 385.64 183.029 386.131 184.46 L 388.006 188.859 C 388.037 188.932 388.074 189.004 388.116 189.071 C 388.58 189.807 389.009 190.285 389.814 190.474 L 389.814 190.474 C 389.936 190.503 390.057 190.495 390.167 190.463 C 391.276 194.169 393.163 197.625 395.738 200.584 L 397.349 202.435 C 397.465 202.569 397.584 202.698 397.706 202.824 C 397.253 205.351 395.42 207.095 393.213 208.051 Z " fill="#000000"/><path d=" M 234.364 118.63 C 234.364 111.761 230.719 105.64 225.269 103.355 C 225.269 103.355 215.264 99.345 211.45 97.562 C 209.076 96.452 207.079 94.508 206.882 91.582 L 208.22 90.045 C 210.795 87.085 212.682 83.629 213.79 79.923 C 213.9 79.955 214.021 79.964 214.144 79.935 C 214.949 79.746 215.378 79.267 215.841 78.531 C 215.883 78.465 215.921 78.392 215.952 78.32 L 217.827 73.921 C 218.153 72.969 217.955 71.968 217.358 71.185 C 217.765 69.454 217.984 67.637 217.984 65.763 C 217.984 61.226 216.71 57.027 214.549 53.578 C 214.818 53.577 215.088 53.49 215.309 53.302 C 215.804 52.88 215.864 52.14 215.447 51.642 C 216.292 51.371 217.33 50.872 218.596 50.017 C 222.34 47.486 223 40.878 222.396 40.169 C 221.933 42.403 220.796 42.336 215.908 42.392 C 212.446 42.431 211.277 45.246 210.948 46.362 C 210.522 45.886 209.793 45.833 209.304 46.249 L 209.304 46.249 C 208.859 46.628 208.768 47.264 209.057 47.75 C 206.162 45.728 202.747 44.557 199.086 44.557 C 195.426 44.557 192.01 45.728 189.116 47.75 C 189.404 47.264 189.313 46.628 188.868 46.249 L 188.868 46.249 C 188.379 45.833 187.65 45.886 187.224 46.362 C 186.895 45.246 185.726 42.431 182.264 42.392 C 177.376 42.336 176.239 42.403 175.776 40.169 C 175.172 40.878 175.833 47.486 179.577 50.017 C 180.843 50.872 181.88 51.371 182.725 51.642 C 182.308 52.14 182.369 52.88 182.863 53.302 C 183.084 53.49 183.355 53.577 183.624 53.578 C 181.462 57.027 180.188 61.226 180.188 65.763 C 180.188 67.637 180.408 69.454 180.814 71.185 C 180.217 71.968 180.019 72.969 180.346 73.921 L 182.221 78.32 C 182.252 78.392 182.289 78.465 182.331 78.531 C 182.795 79.267 183.223 79.746 184.028 79.935 C 184.151 79.964 184.272 79.955 184.382 79.923 C 185.49 83.629 187.377 87.086 189.953 90.045 L 191.564 91.896 C 191.68 92.029 191.799 92.158 191.921 92.284 C 191.467 94.812 189.635 96.555 187.428 97.511 C 183.845 99.063 173.003 103.409 173.003 103.409 C 167.502 105.658 163.809 111.81 163.809 118.725 L 163.809 120.798 L 234.364 120.798 L 234.364 118.63 Z " fill="#000000"/><path d=" M 290.234 208.051 C 286.651 209.602 275.81 213.948 275.81 213.948 C 270.308 216.198 266.615 222.35 266.615 229.264 L 266.615 231.337 L 337.17 231.337 L 337.17 229.169 C 337.17 222.301 333.526 216.18 328.076 213.895 C 328.076 213.895 318.07 209.885 314.257 208.101 C 311.883 206.991 309.885 205.047 309.689 202.121 L 311.026 200.584 C 312.184 199.254 313.197 197.821 314.069 196.313 C 314.997 199.059 315.94 204.473 324.691 204.473 C 323.195 203.915 319.179 200.068 322.207 183.155 C 322.207 183.155 323.032 183.989 325.206 183.245 C 321.83 181.643 322.698 173.861 322.669 172.039 C 322.474 159.932 316.738 155.361 310.92 154.827 C 311.359 153.768 311.369 152.662 310.139 151.432 C 308.891 154.904 304.237 152.995 301.956 154.295 C 291.766 151.933 283.031 157.588 281.801 170.353 C 281.677 171.646 282.007 176.551 278.974 178.039 C 280.474 178.408 281.339 178.21 281.897 178 C 282.647 185.007 285.311 202.573 277.601 205.861 C 282.7 206.299 290.101 204.65 291.654 199.219 C 292.009 199.684 292.374 200.141 292.759 200.584 L 294.37 202.435 C 294.486 202.569 294.606 202.698 294.727 202.824 C 294.274 205.351 292.441 207.095 290.234 208.051 Z " fill="#000000"/><path d=" M 121.312 325.437 C 121.312 325.437 119.341 324.647 116.817 323.613 C 115.997 320.507 113.888 319.058 114.15 317.676 C 114.678 314.897 117.451 313.867 117.526 310.768 C 117.614 307.092 112.094 304.296 113.148 302.239 C 114.451 299.7 115.838 299.497 115.627 297.046 C 115.478 295.312 112.835 292.065 112.885 289.868 C 113.271 272.855 99.486 266.936 95.129 271.293 C 90.772 266.936 76.986 272.855 77.373 289.868 C 77.423 292.065 74.78 295.312 74.63 297.046 C 74.419 299.497 75.807 299.7 77.109 302.239 C 78.164 304.296 72.643 307.092 72.732 310.768 C 72.806 313.867 75.58 314.897 76.107 317.676 C 76.373 319.075 74.21 320.545 73.413 323.731 C 70.944 324.729 69.046 325.49 69.046 325.49 C 63.544 327.74 59.851 333.892 59.851 340.806 L 59.851 342.879 L 130.406 342.879 L 130.406 340.711 C 130.406 333.843 126.762 327.722 121.312 325.437 Z " fill="#000000"/></g></g></svg>