<?xml version="1.0" encoding="UTF-8" standalone="no"?><!-- Generator: Gravit.io --><svg xmlns="http://www.w3.org/2000/svg" xmlns:xlink="http://www.w3.org/1999/xlink" style="isolation:isolate" viewBox="190.5 327.75 120 113" width="120pt" height="113pt"><defs><clipPath id="_clipPath_BHYcbjaSqiEYiBNbt3ylUEgHjBgw1X4m"><rect width="500" height="500"/></clipPath></defs><g clip-path="url(#_clipPath_BHYcbjaSqiEYiBNbt3ylUEgHjBgw1X4m)"><clipPath id="_clipPath_mX15r1cDFEjXe7XD7nL7jMpMA3lIbQgc"><path d=" M 0 0 L 0 500 L 500 500 L 500 0 L 0 0 Z " fill="rgb(255,255,255)"/></clipPath><g clip-path="url(#_clipPath_mX15r1cDFEjXe7XD7nL7jMpMA3lIbQgc)"><path d=" M 242.633 145.487 L 245.671 127.331 L 243.43 120.181 L 251.723 114.276 L 260.017 120.181 L 257.775 127.331 L 260.813 145.487 L 309.317 145.487 L 301.288 122.101 C 298.603 114.282 292.256 108.279 284.303 106.024 C 275.745 103.598 266.633 101.914 263.945 101.437 C 263.992 101.488 264.042 101.541 264.092 101.588 L 251.233 112.229 L 237.629 101.588 C 237.688 101.532 237.744 101.473 237.8 101.411 C 235.217 101.852 225.503 103.576 216.523 106.081 C 208.554 108.303 202.208 114.337 199.522 122.162 L 191.515 145.487 L 242.633 145.487 Z " fill="#000000"/><path d=" M 264.917 100.744 C 262.964 98.838 261.871 92.988 261.529 88.558 L 261.499 88.168 L 259.567 92.238 C 260.008 95.215 260.852 99.081 262.438 101.426 L 251.212 110.715 L 239.304 101.399 C 241.214 98.552 242.044 93.493 242.387 90.483 L 240.27 87.568 L 240.196 88.558 C 239.853 92.988 238.763 98.838 236.805 100.741 L 235.836 101.686 L 251.253 113.748 L 265.858 101.659 L 264.917 100.744 Z " fill="#000000"/><path d=" M 273.408 59.761 L 269.403 65.222 L 269.409 60.13 C 269.409 60.13 262.979 54.557 261.712 51.863 C 258.277 52.971 254.712 53.523 251.147 53.523 C 247.583 53.523 244.018 52.971 240.583 51.863 C 239.968 53.169 238.06 55.236 236.306 56.973 C 234.555 58.709 232.954 60.122 232.954 60.122 L 232.954 60.127 C 232.954 60.13 232.951 60.13 232.951 60.13 L 232.951 66.359 L 228.116 59.761 C 228.116 59.761 227.641 41.801 236.778 41.063 C 236.778 41.063 240.952 36.851 249.532 36.349 L 249.532 36.308 C 249.951 36.299 250.358 36.299 250.763 36.305 C 251.165 36.299 251.572 36.299 251.992 36.308 L 251.992 36.349 C 260.572 36.851 264.745 41.063 264.745 41.063 C 273.883 41.801 273.408 59.761 273.408 59.761 Z " fill="#000000"/><path d=" M 251.131 91.499 L 251.215 91.499 C 266.205 90.195 268.08 77.254 268.212 76.153 L 268.228 60.666 C 266.858 59.455 262.866 55.832 261.163 53.269 C 254.589 55.201 247.703 55.2 241.129 53.269 C 239.444 55.791 235.48 59.441 234.131 60.653 L 234.134 76.154 C 234.265 77.245 236.136 90.194 251.131 91.499 Z  M 251.316 93.861 L 250.98 93.857 C 241.93 93.087 237.185 88.37 234.798 84.547 C 232.223 80.424 231.795 76.506 231.778 76.341 L 231.771 76.221 L 231.768 59.49 L 232.203 59.207 C 233.957 57.657 238.596 53.31 239.514 51.361 L 239.956 50.421 L 240.945 50.74 C 247.619 52.892 254.674 52.892 261.349 50.74 L 262.337 50.421 L 262.78 51.361 C 263.732 53.384 268.447 57.733 270.184 59.238 L 270.592 59.592 L 270.569 76.341 C 270.552 76.506 270.124 80.424 267.549 84.547 C 265.162 88.37 260.417 93.087 251.366 93.857 L 251.316 93.861 Z " fill="#000000"/><path d=" M 232.953 74.58 C 229.348 74.334 228.908 72.641 228.984 70.742 C 229.063 68.775 228.35 66.734 227.157 62.072 C 225.967 57.41 232.4 59.815 232.4 59.815 L 232.949 61.176 L 232.953 74.58 Z " fill="#000000"/><path d=" M 274.513 62.072 C 273.325 66.734 272.611 68.775 272.69 70.742 C 272.761 72.514 272.384 74.109 269.41 74.514 L 269.426 60.131 C 269.426 60.131 269.353 60.074 269.224 59.97 L 269.286 59.815 C 269.286 59.815 275.7 57.41 274.513 62.072 Z " fill="#000000"/><path d=" M 260.68 90.572 C 260.68 90.572 256.151 98.448 244.731 97.463 L 242.073 106.619 L 237.629 101.589 L 241.187 89.883 C 241.187 89.883 251.918 94.608 260.68 90.572 Z " fill="#000000"/><path d=" M 428.468 354.766 L 424.035 358.39 L 424.041 353.109 C 424.041 353.109 417.611 347.536 416.344 344.842 C 412.909 345.95 409.344 346.505 405.779 346.505 C 402.211 346.505 398.649 345.95 395.214 344.842 C 394.597 346.151 392.692 348.212 390.938 349.952 C 389.187 351.688 387.586 353.1 387.586 353.1 L 387.586 353.106 C 387.583 353.109 387.583 353.109 387.583 353.109 L 387.583 355.369 C 384.523 355.218 381.942 355.085 381.788 355.053 C 381.788 355.053 382.984 340.395 386.528 337.636 C 390.073 334.88 390.073 334.29 390.073 334.29 L 394.503 328.235 L 395.292 331.829 L 399.178 327.251 L 399.524 330.746 L 403.732 324.395 L 406.169 329.786 L 408.237 325.526 L 410.23 329.712 L 411.979 325.872 L 414.365 331.631 L 415.375 328.48 L 420.42 334.437 C 420.42 334.437 424.038 335.273 426.303 339.999 C 428.565 344.724 428.468 354.766 428.468 354.766 Z " fill="#000000"/><path d=" M 464.644 440.487 L 455.92 415.08 C 453.235 407.261 446.888 401.258 438.935 399.003 C 430.376 396.577 421.264 394.893 418.577 394.416 C 418.624 394.467 418.674 394.52 418.725 394.567 L 414.014 398.469 C 409.255 402.403 402.4 402.498 397.536 398.693 L 392.261 394.567 C 392.32 394.511 392.376 394.452 392.433 394.39 C 389.849 394.831 380.135 396.555 371.154 399.06 C 363.186 401.282 356.84 407.315 354.153 415.139 L 345.45 440.487 L 464.644 440.487 Z " fill="#000000"/><path d=" M 419.547 393.724 C 417.874 392.091 416.83 387.544 416.354 383.483 C 416.272 382.811 416.21 382.161 416.158 381.53 L 416.106 380.786 C 415.063 381.592 413.916 382.264 412.666 382.811 L 413.905 382.811 C 413.957 383.359 414.029 384.01 414.133 384.723 C 414.557 387.854 415.445 392.205 417.233 394.643 C 414.525 398.301 410.278 400.502 405.69 400.564 L 405.494 400.564 C 400.844 400.564 396.504 398.363 393.755 394.633 C 395.595 392.111 396.483 387.575 396.897 384.434 C 396.979 383.834 397.042 383.287 397.083 382.811 L 398.974 382.811 C 397.465 382.161 396.174 381.344 395.068 380.445 L 394.913 380.445 L 394.83 381.53 C 394.789 382.037 394.748 382.563 394.686 383.09 C 394.231 387.245 393.167 392.039 391.441 393.724 L 390.718 394.416 L 391.523 395.583 C 394.696 400.192 399.904 402.92 405.494 402.92 L 405.722 402.92 C 411.384 402.848 416.623 399.965 419.713 395.211 L 420.24 394.395 L 419.547 393.724 Z " fill="#000000"/><path d=" M 422.844 369.13 C 422.792 369.575 422.317 372.85 420.178 376.27 C 419.062 378.058 417.708 379.567 416.106 380.786 C 415.063 381.592 413.916 382.264 412.666 382.811 C 410.65 383.7 408.367 384.258 405.846 384.475 L 405.763 384.475 C 403.107 384.248 400.865 383.648 398.974 382.811 C 397.465 382.161 396.174 381.344 395.068 380.445 C 389.757 376.136 388.858 369.874 388.765 369.13 L 388.765 353.63 C 390.108 352.421 394.076 348.774 395.76 346.252 C 402.333 348.174 409.225 348.185 415.796 346.252 C 417.501 348.815 421.49 352.432 422.864 353.641 L 422.844 369.13 Z  M 424.817 352.215 C 423.082 350.716 418.37 346.366 417.409 344.341 L 416.964 343.4 L 415.982 343.721 C 409.307 345.87 402.25 345.87 395.574 343.721 L 394.593 343.4 L 394.148 344.341 C 393.229 346.293 388.547 350.675 386.812 352.204 L 386.398 352.494 L 386.398 369.203 L 386.409 369.316 C 386.429 369.481 386.853 373.398 389.426 377.531 C 390.563 379.35 392.247 381.386 394.686 383.09 C 395.368 383.576 396.101 384.02 396.897 384.434 C 399.232 385.632 402.095 386.532 405.608 386.831 L 405.949 386.841 L 406 386.831 C 409.235 386.562 411.911 385.777 414.133 384.723 C 414.939 384.341 415.672 383.928 416.354 383.483 C 419.103 381.695 420.953 379.495 422.183 377.531 C 424.755 373.398 425.179 369.481 425.2 369.316 L 425.221 352.566 L 424.817 352.215 Z " fill="#000000"/><path d=" M 387.584 367.559 C 383.98 367.313 383.54 365.62 383.616 363.721 C 383.695 361.754 382.981 359.713 381.789 355.051 C 380.599 350.389 387.032 352.793 387.032 352.793 L 387.581 354.154 L 387.584 367.559 Z " fill="#000000"/><path d=" M 429.145 355.051 C 427.956 359.713 427.243 361.754 427.322 363.721 C 427.393 365.493 427.016 367.088 424.042 367.493 L 424.057 353.11 C 424.057 353.11 423.985 353.053 423.856 352.949 L 423.918 352.793 C 423.918 352.793 430.332 350.389 429.145 355.051 Z " fill="#000000"/><path d=" M 415.312 383.551 C 415.312 383.551 410.783 391.427 399.363 390.442 L 396.705 399.598 L 392.261 394.568 L 395.819 382.862 C 395.819 382.862 406.55 387.587 415.312 383.551 Z " fill="#000000"/><path d=" M 242.358 440.487 L 245.671 420.694 L 243.43 413.543 L 251.723 407.639 L 260.017 413.543 L 257.775 420.694 L 261.087 440.487 L 309.88 440.487 L 301.288 415.463 C 298.603 407.645 292.256 401.642 284.303 399.387 C 275.745 396.961 266.633 395.277 263.945 394.801 C 263.992 394.851 264.042 394.904 264.092 394.951 L 251.233 405.593 L 237.629 394.951 C 237.688 394.895 237.744 394.836 237.8 394.774 C 235.217 395.214 225.503 396.939 216.523 399.443 C 208.554 401.665 202.208 407.7 199.521 415.524 L 190.953 440.487 L 242.358 440.487 Z " fill="#000000"/><path d=" M 264.916 394.106 C 263.056 392.293 261.975 386.885 261.582 382.546 C 260.896 383.025 260.152 383.474 259.343 383.875 C 259.686 386.9 260.521 391.957 262.438 394.789 L 251.212 404.078 L 239.304 394.762 C 241.276 391.824 242.095 386.534 242.417 383.565 C 241.604 383.125 240.86 382.635 240.178 382.115 C 239.82 386.519 238.733 392.228 236.805 394.106 L 235.836 395.049 L 251.253 407.111 L 265.858 395.022 L 264.916 394.106 Z " fill="#000000"/><path d=" M 260.68 383.935 C 260.68 383.935 256.151 391.811 244.731 390.826 L 242.073 399.982 L 237.629 394.952 L 241.187 383.246 C 241.187 383.246 251.918 387.971 260.68 383.935 Z " fill="#000000"/><path d=" M 273.715 355.354 L 269.405 356.526 L 269.409 353.493 L 265.208 347.509 C 260.749 348.08 256.26 348.366 251.771 348.366 C 247.281 348.366 242.792 348.08 238.332 347.509 L 232.951 353.493 L 232.951 356.58 L 228.45 355.354 C 228.45 355.354 227.752 338.058 237.579 332.175 C 238.854 331.413 240.065 330.763 241.208 330.208 C 242.762 329.457 244.381 328.896 246.038 328.524 C 247.691 328.152 249.384 327.966 251.082 327.966 C 254.479 327.966 257.846 328.707 260.953 330.208 C 262.096 330.763 263.31 331.413 264.583 332.175 C 274.409 338.058 273.715 355.354 273.715 355.354 Z " fill="#000000"/><path d=" M 251.131 384.861 L 251.215 384.861 C 257.675 384.3 262.496 381.54 265.545 376.658 C 267.681 373.237 268.156 369.961 268.212 369.514 L 268.228 353.866 L 264.65 348.769 C 256.068 349.811 247.378 349.807 238.797 348.757 L 234.131 353.946 L 234.134 369.517 C 234.265 370.608 236.136 383.557 251.131 384.861 Z  M 251.316 387.224 L 250.98 387.22 C 241.93 386.45 237.185 381.732 234.798 377.91 C 232.223 373.787 231.795 369.869 231.778 369.704 L 231.771 369.583 L 231.768 353.04 L 237.868 346.258 L 238.482 346.337 C 247.299 347.467 256.241 347.467 265.059 346.337 L 265.766 346.246 L 270.591 353.121 L 270.568 369.704 C 270.552 369.869 270.124 373.787 267.549 377.91 C 265.162 381.732 260.417 386.45 251.366 387.22 L 251.316 387.224 Z " fill="#000000"/><path d=" M 232.953 367.943 C 229.348 367.697 228.908 366.003 228.984 364.105 C 229.063 362.139 228.35 360.097 227.157 355.436 C 225.967 350.773 232.4 353.177 232.4 353.177 L 232.949 354.539 L 232.953 367.943 Z " fill="#000000"/><path d=" M 274.513 355.436 C 273.324 360.097 272.611 362.139 272.69 364.105 C 272.761 365.876 272.384 367.472 269.41 367.876 L 269.425 353.494 C 269.425 353.494 269.353 353.437 269.224 353.332 L 269.286 353.177 C 269.286 353.177 275.7 350.773 274.513 355.436 Z " fill="#000000"/><path d=" M 121.36 87.471 C 120.12 83.672 119.55 79.236 120.693 74.534 C 123.073 64.738 120.637 51.4 120.637 51.4 C 117.804 28.41 105.16 33.924 105.16 33.924 C 103.536 31.118 98.072 30.971 98.072 30.971 C 76.955 29.051 71.057 51.4 71.057 51.4 C 71.057 51.4 68.62 64.738 71.003 74.534 C 72.147 79.236 71.576 83.672 70.336 87.471 C 68.478 93.153 73.532 98.738 80.067 98.168 L 84.099 97.817 C 85.118 94.99 85.623 91.399 85.839 89.157 C 78.372 84.331 77.498 75.837 77.498 75.837 L 77.495 59.746 C 77.495 59.746 77.498 59.746 77.498 59.743 L 77.498 59.737 C 77.498 59.737 93.79 55.632 102.059 47.067 L 113.971 59.324 L 113.938 75.837 C 113.938 75.837 113.02 84.771 105.013 89.514 C 105.243 91.747 105.739 95.073 106.685 97.74 L 111.625 98.168 C 118.162 98.738 123.218 93.153 121.36 87.471 Z " fill="#000000"/><path d=" M 153.994 145.487 L 145.771 121.54 C 143.134 113.859 136.955 107.937 129.184 105.579 C 120.612 102.978 111.422 101.081 108.705 100.599 C 108.752 100.649 108.586 101.157 108.637 101.204 L 95.777 134.688 L 82.173 101.204 C 82.23 101.148 81.735 100.769 81.791 100.709 C 79.191 101.152 69.623 103.023 60.772 105.641 C 52.962 107.951 46.768 113.917 44.123 121.619 L 35.927 145.487 L 153.994 145.487 Z " fill="#000000"/><path d=" M 109.461 100.36 C 107.6 98.543 106.519 93.135 106.129 88.797 C 105.441 89.278 104.694 89.727 103.881 90.132 C 104.626 96.984 106.307 100.138 107.287 101.44 L 95.748 131.998 L 83.535 101.429 C 84.533 100.1 86.24 96.869 86.964 89.822 C 86.149 89.378 85.404 88.891 84.722 88.372 C 84.368 92.775 83.278 98.481 81.35 100.357 L 80.782 100.909 L 95.81 138.524 L 110.016 100.897 L 109.461 100.36 Z " fill="#000000"/><path d=" M 105.225 90.188 C 105.225 90.188 100.696 98.064 89.276 97.079 L 86.11 107.712 L 82.174 101.205 L 85.732 89.499 C 85.732 89.499 96.463 94.224 105.225 90.188 Z " fill="#000000"/><path d=" M 77.498 74.196 C 73.893 73.951 73.453 72.256 73.529 70.358 C 73.608 68.392 72.895 66.351 71.702 61.688 C 70.512 57.026 76.945 59.43 76.945 59.43 L 77.494 60.791 L 77.498 74.196 Z " fill="#000000"/><path d=" M 119.058 61.688 C 117.87 66.351 117.156 68.392 117.235 70.358 C 117.306 72.13 116.929 73.726 113.955 74.129 L 113.97 59.747 C 113.97 59.747 113.898 59.69 113.769 59.585 L 113.831 59.43 C 113.831 59.43 120.245 57.026 119.058 61.688 Z " fill="#000000"/><path d=" M 95.676 91.114 L 95.76 91.114 C 110.751 89.81 112.625 76.867 112.757 75.769 L 112.788 59.802 L 102.042 48.745 C 94.53 55.843 82.122 59.679 78.676 60.643 L 78.679 75.77 C 78.81 76.861 80.681 89.81 95.676 91.114 Z  M 95.861 93.477 L 95.525 93.473 C 86.475 92.703 81.73 87.985 79.343 84.163 C 76.768 80.039 76.34 76.122 76.323 75.957 L 76.316 75.837 L 76.313 59.124 L 76.316 59.121 L 76.316 58.824 L 77.209 58.591 C 77.25 58.581 81.287 57.553 86.262 55.507 C 92.778 52.828 97.946 49.626 101.209 46.247 L 102.057 45.369 L 115.153 58.845 L 115.113 75.957 C 115.097 76.122 114.668 80.039 112.094 84.163 C 109.707 87.985 104.961 92.703 95.911 93.473 L 95.861 93.477 Z " fill="#000000"/><path d=" M 118.992 197.028 C 117.707 198.52 117.11 200.487 117.246 202.451 L 117.677 208.668 L 113.95 208.668 L 113.953 205.706 L 113.838 196.757 C 111.209 197.604 102.662 198.381 97.298 198.331 C 88.639 198.249 80.021 197.439 80.021 197.439 C 78.792 200.053 77.498 205.697 77.498 205.697 L 77.498 205.703 L 77.495 205.706 L 77.495 208.668 L 73.818 208.668 L 71.701 207.646 C 71.701 207.646 66.656 188.658 78.027 187.108 C 78.027 187.108 81.35 182.161 87.109 182.234 C 94.271 182.326 112.754 186.641 120.433 181.104 C 120.433 181.104 123.481 191.818 118.992 197.028 Z " fill="#000000"/><path d=" M 154.39 292.487 L 145.797 267.222 C 143.137 259.401 136.817 253.377 128.876 251.102 C 119.645 248.457 109.759 246.683 107.981 246.373 C 108.185 246.671 108.403 246.937 108.637 247.164 L 95.777 257.805 L 82.173 247.164 C 82.413 246.934 82.634 246.659 82.844 246.352 C 81.418 246.591 70.914 248.391 61.212 251.111 C 53.19 253.36 46.782 259.399 44.1 267.287 L 35.531 292.487 L 154.39 292.487 Z " fill="#000000"/><path d=" M 109.461 246.316 C 107.597 244.503 106.519 239.095 106.126 234.753 C 105.441 235.235 104.697 235.684 103.885 236.088 C 104.23 239.11 105.066 244.169 106.983 247.001 L 95.757 256.29 L 83.848 246.975 C 85.821 244.039 86.639 238.747 86.961 235.781 C 86.149 235.338 85.405 234.851 84.722 234.328 C 84.365 238.735 83.275 244.441 81.35 246.316 L 80.381 247.261 L 95.798 259.32 L 110.403 247.235 L 109.461 246.316 Z " fill="#000000"/><path d=" M 95.676 237.073 L 95.759 237.073 C 110.749 235.77 112.625 222.829 112.756 221.728 L 112.773 205.712 L 112.676 198.257 C 108.916 199.009 101.756 199.557 97.287 199.512 C 90.253 199.445 83.172 198.894 80.768 198.69 C 79.807 201.119 78.857 205.072 78.679 205.832 L 78.679 221.729 C 78.809 222.819 80.68 235.769 95.676 237.073 Z  M 95.86 239.436 L 95.525 239.432 C 86.474 238.662 81.729 233.944 79.342 230.122 C 76.767 225.999 76.339 222.081 76.322 221.916 L 76.316 221.795 L 76.313 205.09 L 76.448 204.996 C 76.783 203.595 77.872 199.229 78.952 196.936 L 79.305 196.185 L 80.131 196.263 C 80.217 196.271 88.802 197.068 97.31 197.149 C 102.713 197.201 111.026 196.421 113.475 195.631 L 114.999 195.14 L 115.136 205.707 L 115.119 221.856 L 115.113 221.916 C 115.096 222.081 114.668 225.999 112.093 230.122 C 109.706 233.944 104.961 238.662 95.91 239.432 L 95.86 239.436 Z " fill="#000000"/><path d=" M 77.497 220.155 C 73.893 219.909 73.452 218.215 73.528 216.317 C 73.607 214.35 72.894 212.309 71.702 207.647 C 70.511 202.985 76.944 205.389 76.944 205.389 L 77.494 206.75 L 77.497 220.155 Z " fill="#000000"/><path d=" M 119.058 207.647 C 117.869 212.309 117.155 214.35 117.235 216.317 C 117.305 218.088 116.928 219.684 113.954 220.088 L 113.97 205.706 C 113.97 205.706 113.897 205.649 113.768 205.544 L 113.83 205.389 C 113.83 205.389 120.245 202.985 119.058 207.647 Z " fill="#000000"/><path d=" M 105.224 236.146 C 105.224 236.146 100.696 244.022 89.275 243.038 L 86.617 252.194 L 82.173 247.164 L 85.731 235.458 C 85.731 235.458 96.462 240.183 105.224 236.146 Z " fill="#000000"/><path d=" M 95.353 234.68 L 95.345 234.68 L 95.336 234.68 C 91.733 234.402 88.874 233.365 86.661 231.524 L 87.718 228.722 C 88.843 225.737 94.03 225.585 95.058 225.585 C 95.141 225.585 95.345 225.589 95.345 225.589 C 95.345 225.589 95.548 225.585 95.631 225.585 C 96.659 225.585 101.846 225.737 102.971 228.723 L 104.028 231.524 C 101.815 233.365 98.957 234.402 95.353 234.68 Z  M 112.982 215.461 C 112.982 223.042 106.288 227.472 106.288 227.472 C 104.3 222.201 97.08 222.012 95.345 222.044 C 93.609 222.012 86.389 222.201 84.401 227.472 C 84.401 227.472 77.707 223.042 77.707 215.461 C 77.707 215.461 75.586 236.712 95.064 238.213 L 95.064 238.254 C 95.159 238.249 95.251 238.24 95.345 238.234 C 95.439 238.24 95.53 238.249 95.625 238.254 L 95.626 238.213 C 115.103 236.712 112.982 215.461 112.982 215.461 Z " fill="#000000"/><path d=" M 464.439 292.487 L 455.92 267.675 C 453.235 259.856 446.888 253.854 438.935 251.599 C 430.376 249.172 421.264 247.488 418.577 247.012 C 418.624 247.062 418.674 247.115 418.725 247.163 L 405.865 257.804 L 392.261 247.163 C 392.32 247.106 391.842 247.043 391.898 246.981 C 389.32 247.421 379.863 249.14 371.058 251.636 C 363.139 253.88 356.844 259.898 354.171 267.683 L 345.654 292.487 L 464.439 292.487 Z " fill="#000000"/><path d=" M 424.025 221.794 C 424.025 221.794 422.476 236.844 405.897 238.254 L 405.712 238.254 C 389.134 236.844 387.585 221.794 387.585 221.794 L 387.582 205.705 C 387.582 205.705 407.995 200.852 412.72 196.126 C 412.72 196.126 418.363 202.427 424.058 205.848 L 424.025 221.794 Z  M 408.29 179.045 C 375.358 179.045 380.626 216.644 381.314 225.623 C 382.115 236.078 396.082 240.576 396.082 240.576 L 406.666 239.855 L 414.77 240.576 C 414.77 240.576 429.641 236.078 430.441 225.623 C 431.129 216.644 436.052 179.193 408.29 179.045 Z " fill="#000000"/><path d=" M 419.548 246.318 C 417.688 244.501 416.607 239.093 416.214 234.755 C 415.529 235.236 414.785 235.682 413.972 236.087 C 414.318 239.111 415.154 244.167 417.07 247 L 405.844 256.289 L 393.936 246.974 C 395.906 244.038 396.727 238.748 397.049 235.78 C 396.237 235.337 395.492 234.85 394.81 234.33 C 394.453 238.733 393.363 244.442 391.437 246.318 L 390.468 247.26 L 405.886 259.322 L 420.491 247.233 L 419.548 246.318 Z " fill="#000000"/><path d=" M 415.312 236.146 C 415.312 236.146 410.783 244.022 399.363 243.038 L 396.705 252.193 L 392.261 247.163 L 395.819 235.457 C 395.819 235.457 406.55 240.183 415.312 236.146 Z " fill="#000000"/><path d=" M 387.584 220.154 C 383.98 219.909 383.54 218.215 383.616 216.316 C 383.695 214.35 382.981 212.309 381.789 207.646 C 380.599 202.984 387.032 205.388 387.032 205.388 L 387.581 206.75 L 387.584 220.154 Z " fill="#000000"/><path d=" M 429.145 207.646 C 427.956 212.309 427.243 214.35 427.322 216.316 C 427.393 218.088 427.016 219.684 424.042 220.088 L 424.058 205.706 C 424.058 205.706 423.985 205.648 423.856 205.543 L 423.918 205.388 C 423.918 205.388 430.332 202.984 429.145 207.646 Z " fill="#000000"/><path d=" M 405.763 237.072 L 405.847 237.072 C 412.306 236.511 417.128 233.751 420.176 228.87 C 422.313 225.447 422.788 222.17 422.844 221.725 L 422.875 206.505 C 418.604 203.784 414.98 199.771 413.448 197.95 C 407.92 202.018 392.726 205.728 388.763 206.647 L 388.766 221.728 C 388.897 222.819 390.768 235.769 405.763 237.072 Z  M 405.948 239.435 L 405.613 239.431 C 396.562 238.661 391.816 233.943 389.43 230.121 C 386.854 225.998 386.426 222.08 386.41 221.916 L 386.403 221.795 L 386.4 204.756 L 387.327 204.551 C 393.158 203.263 409.096 199.114 412.771 195.438 L 413.719 194.49 L 414.541 195.551 C 414.587 195.611 419.235 201.573 424.666 204.835 L 425.24 205.18 L 425.2 221.916 C 425.184 222.08 424.755 225.998 422.18 230.121 C 419.793 233.943 415.048 238.661 405.998 239.431 L 405.948 239.435 Z " fill="#000000"/><path d=" M 154.565 440.487 L 145.213 414.322 C 142.463 406.63 136.156 400.76 128.297 398.534 C 118.924 395.879 108.863 394.081 107.286 393.806 C 107.448 394.024 107.623 394.219 107.806 394.394 L 102.796 398.644 C 98.293 402.468 91.73 402.643 87.031 399.057 L 80.861 394.344 C 80.898 394.307 70.112 396.507 60.236 399.489 C 52.34 401.873 46.084 407.926 43.503 415.76 L 35.356 440.487 L 154.565 440.487 Z " fill="#000000"/><path d=" M 108.618 393.537 C 106.973 391.975 105.889 387.668 105.345 383.717 C 105.233 382.919 105.147 382.137 105.08 381.392 L 105.053 381.1 C 104.223 381.69 103.295 382.231 102.262 382.701 L 102.835 382.695 C 102.906 383.315 103 384.065 103.13 384.892 C 103.611 387.993 104.557 392.149 106.323 394.491 C 103.667 398.245 99.415 400.519 94.778 400.62 C 90.067 400.72 85.634 398.549 82.831 394.783 C 84.703 392.164 85.533 387.382 85.888 384.225 C 85.944 383.74 85.985 383.297 86.021 382.904 L 88.481 382.875 C 86.975 382.228 85.684 381.436 84.582 380.56 L 83.817 380.568 L 83.747 381.661 C 83.723 382.03 83.693 382.411 83.658 382.798 C 83.283 387.048 82.278 392.122 80.509 393.889 L 79.815 394.58 L 80.521 395.619 C 83.685 400.25 88.874 402.985 94.465 402.985 C 94.586 402.985 94.707 402.982 94.828 402.979 C 100.558 402.858 105.782 399.881 108.807 395.017 L 109.318 394.199 L 108.618 393.537 Z " fill="#000000"/><path d=" M 104.254 383.419 C 104.254 383.419 99.825 391.352 88.393 390.51 L 85.85 399.699 L 81.343 394.725 L 84.754 382.975 C 84.754 382.975 95.544 387.565 104.254 383.419 Z " fill="#000000"/><path d=" M 95.137 384.472 L 95.221 384.472 C 110.21 383.168 112.086 370.228 112.218 369.126 L 112.233 353.639 C 110.896 352.457 107.059 348.975 105.293 346.427 C 93.861 352.645 81.852 353.95 78.137 354.212 L 78.14 369.127 C 78.271 370.218 80.142 383.168 95.137 384.472 Z  M 95.321 386.834 L 94.986 386.83 C 85.936 386.061 81.19 381.343 78.803 377.52 C 76.229 373.397 75.8 369.479 75.783 369.315 L 75.777 369.194 L 75.774 352.489 L 75.777 352.487 L 75.777 351.957 L 76.922 351.914 C 77.07 351.909 91.928 351.361 105.13 343.812 L 106.241 343.177 L 106.786 344.334 C 107.737 346.357 112.453 350.707 114.189 352.211 L 114.597 352.565 L 114.574 369.315 C 114.557 369.479 114.129 373.397 111.554 377.52 C 109.167 381.343 104.422 386.061 95.372 386.83 L 95.321 386.834 Z " fill="#000000"/><path d=" M 112.218 369.126 C 112.124 369.915 111.131 376.79 105.053 381.1 C 104.223 381.69 103.295 382.231 102.262 382.701 C 100.315 383.593 97.994 384.23 95.221 384.473 L 95.138 384.473 C 92.548 384.249 90.347 383.672 88.481 382.875 C 86.975 382.228 85.684 381.436 84.582 380.56 C 79.142 376.238 78.23 369.876 78.141 369.126 L 78.138 354.211 C 81.85 353.949 93.862 352.646 105.292 346.426 C 107.058 348.975 110.898 352.457 112.233 353.638 L 112.218 369.126 Z  M 114.188 352.212 C 112.451 350.706 107.737 346.358 106.787 344.335 L 106.24 343.177 L 105.129 343.812 C 91.928 351.361 77.071 351.908 76.921 351.914 L 75.778 351.958 L 75.778 352.486 L 75.775 352.489 L 75.778 369.194 L 75.784 369.315 C 75.801 369.481 76.227 373.397 78.802 377.52 C 79.883 379.245 81.44 381.153 83.658 382.798 C 84.337 383.303 85.079 383.782 85.888 384.225 C 88.286 385.536 91.272 386.514 94.987 386.83 L 95.321 386.835 L 95.371 386.83 C 98.422 386.57 100.983 385.864 103.13 384.892 C 103.925 384.535 104.66 384.139 105.345 383.717 C 108.302 381.895 110.269 379.579 111.553 377.52 C 114.129 373.397 114.557 369.481 114.575 369.315 L 114.599 352.566 L 114.188 352.212 Z " fill="#000000"/><path d=" M 76.959 367.554 C 73.354 367.308 72.913 365.614 72.989 363.716 C 73.069 361.749 72.355 359.708 71.163 355.046 C 69.972 350.384 76.405 352.788 76.405 352.788 L 76.955 354.149 L 76.959 367.554 Z " fill="#000000"/><path d=" M 118.519 355.046 C 117.33 359.708 116.617 361.749 116.696 363.716 C 116.767 365.487 116.389 367.083 113.416 367.487 L 113.431 353.105 C 113.431 353.105 113.359 353.048 113.229 352.943 L 113.292 352.788 C 113.292 352.788 119.706 350.384 118.519 355.046 Z " fill="#000000"/><path d=" M 115.91 359.327 C 115.189 360.242 114.341 361.04 113.405 361.731 L 113.414 353.104 C 113.414 353.104 106.984 347.531 105.717 344.837 C 98.901 348.736 91.712 350.797 86.225 351.89 C 80.74 352.98 76.96 353.095 76.96 353.095 L 76.96 353.101 C 76.96 353.104 76.957 353.104 76.957 353.104 L 76.957 358.441 L 71.705 356.078 C 71.705 356.078 66.268 335.312 83.667 329.349 C 104.784 322.113 111.184 329.003 115.514 333.927 C 119.992 339.013 122.703 350.664 115.91 359.327 Z " fill="#000000"/><path d=" M 110.485 324.996 C 110.485 320.119 104.307 316.166 96.687 316.166 C 89.066 316.166 82.888 320.119 82.888 324.996 C 82.888 329.872 89.066 333.825 96.687 333.825 C 104.307 333.825 110.485 329.872 110.485 324.996 Z " fill="#000000"/><path d=" M 382.542 110.882 C 381.36 108.586 380.557 106.084 380.25 103.437 C 385.913 102.173 390.729 101.319 392.434 101.027 C 394.681 98.587 395.609 92.43 395.928 89.157 C 388.458 84.331 387.584 75.837 387.584 75.837 L 387.581 59.746 C 387.581 59.746 387.584 59.746 387.584 59.743 L 387.584 59.737 C 387.584 59.737 396.772 55.484 405.042 46.919 L 424.057 59.324 L 424.024 75.837 C 424.024 75.837 423.105 84.774 415.096 89.518 C 415.45 92.878 416.396 98.717 418.584 101.054 C 418.622 101.098 418.661 101.142 418.705 101.181 C 420.743 101.505 424.385 102.132 428.292 102.991 C 428.027 105.801 427.211 108.459 425.965 110.882 L 437.276 110.882 C 436.942 108.987 436.599 106.988 436.254 104.908 C 434.078 91.797 432.067 80.117 431.713 66.779 C 430.611 25.264 410.285 29.996 403.453 33.286 C 400.302 31.806 379.383 24.608 377.383 61.665 C 376.612 75.993 374.001 90.894 371.254 105.67 C 370.918 107.48 370.588 109.217 370.268 110.882 L 382.542 110.882 Z " fill="#000000"/><path d=" M 464.08 145.487 L 455.92 121.718 C 453.239 113.907 446.903 107.901 438.958 105.647 C 438.06 105.393 437.156 105.146 436.254 104.908 C 433.508 104.185 430.779 103.541 428.292 102.991 C 427.193 114.625 416.847 123.742 404.248 123.742 C 391.813 123.742 381.571 114.855 380.25 103.437 C 377.371 104.078 374.273 104.831 371.254 105.67 C 371.203 105.684 371.151 105.699 371.1 105.713 C 363.153 107.933 356.835 113.971 354.155 121.775 L 346.013 145.487 L 464.08 145.487 Z " fill="#000000"/><path d=" M 396.409 106.334 L 382.182 110.195 C 381.19 108.092 380.525 105.818 380.25 103.437 C 385.913 102.173 390.729 101.319 392.434 101.027 C 392.466 100.992 392.499 100.956 392.525 100.921 L 392.8 101.015 L 396.409 106.334 Z " fill="#000000"/><path d=" M 387.585 74.196 C 383.98 73.951 383.54 72.256 383.616 70.358 C 383.695 68.392 382.981 66.351 381.789 61.688 C 380.599 57.026 387.032 59.43 387.032 59.43 L 387.582 60.791 L 387.585 74.196 Z " fill="#000000"/><path d=" M 429.146 61.688 C 427.957 66.351 427.243 68.392 427.322 70.358 C 427.393 72.13 427.016 73.726 424.042 74.129 L 424.058 59.747 C 424.058 59.747 423.985 59.69 423.856 59.585 L 423.918 59.43 C 423.918 59.43 430.333 57.026 429.146 61.688 Z " fill="#000000"/><path d=" M 405.764 91.114 L 405.847 91.114 C 412.307 90.553 417.128 87.793 420.176 82.912 C 422.314 79.489 422.788 76.212 422.844 75.767 L 422.875 59.978 L 404.745 48.644 C 399.354 55.534 391.263 59.434 388.764 60.524 L 388.766 75.77 C 388.897 76.861 390.768 89.81 405.764 91.114 Z  M 405.948 93.477 L 405.613 93.473 C 396.562 92.703 391.817 87.985 389.43 84.163 C 386.854 80.039 386.427 76.122 386.41 75.957 L 386.404 75.837 L 386.4 59.143 L 386.404 59.14 L 386.404 58.938 L 387.155 58.636 C 387.259 58.596 397.673 54.449 403.493 46.376 L 404.14 45.479 L 425.24 58.67 L 425.2 75.957 C 425.184 76.122 424.755 80.039 422.181 84.163 C 419.794 87.985 415.049 92.703 405.998 93.473 L 405.948 93.477 Z " fill="#000000"/><path d=" M 420.216 101.423 L 419.55 100.36 C 417.686 98.543 416.605 93.138 416.212 88.8 C 415.858 89.048 415.486 89.29 415.096 89.518 C 414.735 89.733 414.363 89.937 413.974 90.129 C 413.995 90.313 414.018 90.504 414.042 90.702 C 407.347 93.126 399.892 90.985 397.03 89.966 C 397.036 89.918 397.042 89.866 397.047 89.819 C 396.657 89.609 396.285 89.387 395.928 89.157 C 395.538 88.903 395.166 88.643 394.812 88.372 C 394.454 92.775 393.364 98.481 391.438 100.357 L 390.759 101.017 L 392.318 101.017 L 392.261 101.205 L 396.366 106.358 L 399.363 97.079 C 407.561 97.786 412.208 93.927 414.177 91.693 C 414.609 94.682 415.451 98.628 417.054 101.017 L 420.216 101.423 Z " fill="#000000"/><path d=" M 396.409 106.334 L 382.182 110.195 C 381.19 108.092 380.525 105.818 380.25 103.437 C 385.913 102.173 389.9 101.15 391.604 100.857 C 391.636 100.822 392.499 100.956 392.525 100.921 L 392.8 101.015 L 396.409 106.334 Z " fill="#000000"/><path d=" M 281.143 240.281 L 261.204 240.281 C 260.84 238.535 260.607 236.808 260.468 235.473 C 268.475 230.729 269.394 221.795 269.394 221.795 L 269.426 205.849 L 256.531 205.873 L 251.806 200.409 L 247.08 205.705 C 247.08 205.705 233.296 205.651 232.951 205.705 L 232.954 221.795 C 232.954 221.795 233.828 230.289 241.294 235.115 C 241.161 236.488 240.922 238.376 240.521 240.281 L 221.187 240.281 C 221.187 240.281 224.708 211.845 228.225 195.795 C 231.456 181.066 248.244 180.095 250.976 180.033 L 250.976 180.03 C 250.976 180.03 251.043 180.03 251.165 180.03 C 251.286 180.03 251.354 180.03 251.354 180.03 L 251.354 180.033 C 254.086 180.095 270.874 181.066 274.104 195.795 C 277.622 211.845 281.143 240.281 281.143 240.281 Z " fill="#000000"/><path d=" M 237.759 246.994 C 237.582 247.026 237.372 247.062 237.133 247.104 C 237.372 247.059 237.582 247.023 237.759 246.994 Z " fill="#000000"/><path d=" M 309.807 292.487 L 301.287 267.672 C 298.607 259.869 292.282 253.863 284.346 251.61 C 278.813 250.039 273.042 248.778 268.924 247.954 C 267.589 260.14 259.86 282.613 250.524 282.613 C 241.208 282.613 233.491 260.234 232.132 248.031 C 227.891 248.861 222.091 250.104 216.565 251.644 C 208.582 253.867 202.216 259.896 199.524 267.734 L 191.025 292.487 L 309.807 292.487 Z " fill="#000000"/><path d=" M 270.51 248.488 L 269.624 250.68 L 263.434 248.172 L 263.268 248.01 C 260.755 245.562 259.73 239.516 259.346 236.087 C 260.155 235.682 260.899 235.233 261.584 234.758 C 261.963 238.981 262.997 244.212 264.769 246.161 L 270.51 248.488 Z " fill="#000000"/><path d=" M 260.68 236.146 C 260.113 236.407 259.971 235.204 260.353 234.22 L 260.273 234.22 C 257.751 235.812 254.724 236.769 251.215 237.073 L 251.132 237.073 C 247.331 236.743 244.375 235.665 242.077 234.22 L 241.374 234.22 C 241.347 234.579 241.307 235.011 241.257 235.487 C 241.216 235.469 241.188 235.457 241.188 235.457 L 237.63 247.161 C 237.63 247.162 237.629 247.162 237.629 247.162 L 232.132 248.031 L 232.263 259.036 C 232.263 259.036 244.89 255.042 246.949 243.118 C 256.74 242.991 260.68 236.146 260.68 236.146 Z " fill="#000000"/><path d=" M 232.953 220.154 C 229.349 219.909 228.908 218.215 228.984 216.316 C 229.063 214.35 228.35 212.309 227.158 207.646 C 225.967 202.984 232.4 205.388 232.4 205.388 L 232.95 206.75 L 232.953 220.154 Z " fill="#000000"/><path d=" M 274.514 207.646 C 273.325 212.309 272.612 214.35 272.691 216.316 C 272.762 218.088 272.384 219.684 269.41 220.088 L 269.426 205.706 C 269.426 205.706 269.354 205.648 269.224 205.543 L 269.287 205.388 C 269.287 205.388 275.701 202.984 274.514 207.646 Z " fill="#000000"/><path d=" M 251.132 237.072 L 251.215 237.072 C 257.675 236.511 262.496 233.751 265.545 228.87 C 267.683 225.447 268.156 222.17 268.212 221.725 L 268.242 207.032 L 255.991 207.055 L 251.791 202.199 L 247.606 206.888 L 247.074 206.886 C 242.766 206.87 236.621 206.854 234.132 206.867 L 234.135 221.728 C 234.266 222.819 236.136 235.769 251.132 237.072 Z  M 251.316 239.435 L 250.981 239.431 C 241.93 238.661 237.185 233.943 234.798 230.121 C 232.223 225.998 231.795 222.08 231.778 221.916 L 231.772 221.795 L 231.769 204.692 L 232.769 204.538 C 232.887 204.519 233.2 204.471 246.552 204.521 L 251.818 198.619 L 257.07 204.69 L 270.609 204.665 L 270.569 221.916 C 270.552 222.08 270.124 225.998 267.549 230.121 C 265.162 233.943 260.417 238.661 251.366 239.431 L 251.316 239.435 Z " fill="#000000"/><path d=" M 260.273 234.22 C 257.751 235.812 254.724 236.769 251.215 237.073 L 251.132 237.073 C 247.331 236.743 244.375 235.665 242.077 234.22 L 241.374 234.22 C 241.33 234.799 241.259 235.552 241.152 236.406 C 243.666 237.924 246.882 239.082 250.981 239.43 L 251.315 239.436 L 251.366 239.43 C 253.92 239.215 256.135 238.683 258.046 237.945 C 258.968 236.949 259.768 235.727 260.353 234.22 L 260.273 234.22 Z " fill="#000000"/><path d=" M 177.12 482.404 C 177.12 482.844 177.188 483.217 177.325 483.526 C 177.461 483.834 177.648 484.067 177.885 484.223 C 178.123 484.38 178.382 484.458 178.663 484.458 C 178.948 484.458 179.208 484.384 179.444 484.235 C 179.679 484.087 179.867 483.859 180.008 483.553 C 180.148 483.247 180.218 482.862 180.218 482.404 C 180.218 481.973 180.148 481.602 180.008 481.29 C 179.867 480.98 179.678 480.743 179.438 480.578 C 179.198 480.415 178.936 480.332 178.651 480.332 C 178.355 480.332 178.089 480.417 177.856 480.584 C 177.623 480.752 177.441 480.994 177.313 481.309 C 177.184 481.624 177.12 481.988 177.12 482.404 Z  M 180.308 484.785 L 180.308 484.624 C 180.09 484.873 179.875 485.076 179.664 485.232 C 179.452 485.389 179.222 485.508 178.975 485.588 C 178.728 485.671 178.458 485.71 178.165 485.71 C 177.776 485.71 177.417 485.628 177.087 485.464 C 176.757 485.3 176.471 485.065 176.229 484.761 C 175.987 484.456 175.805 484.099 175.68 483.686 C 175.556 483.274 175.493 482.83 175.493 482.351 C 175.493 481.338 175.741 480.547 176.235 479.981 C 176.73 479.416 177.381 479.133 178.188 479.133 C 178.655 479.133 179.049 479.214 179.37 479.373 C 179.69 479.534 180.003 479.781 180.308 480.112 L 180.308 477.72 C 180.308 477.388 180.374 477.137 180.507 476.966 C 180.639 476.796 180.828 476.711 181.073 476.711 C 181.319 476.711 181.507 476.79 181.64 476.946 C 181.773 477.103 181.839 477.332 181.839 477.637 L 181.839 484.785 C 181.839 485.093 181.768 485.325 181.625 485.479 C 181.483 485.633 181.299 485.71 181.073 485.71 C 180.852 485.71 180.668 485.63 180.524 485.471 C 180.38 485.31 180.308 485.081 180.308 484.785 Z " fill="#000000"/><path d=" M 184.284 481.894 L 187.223 481.894 C 187.184 481.34 187.033 480.925 186.774 480.65 C 186.515 480.374 186.174 480.237 185.75 480.237 C 185.347 480.237 185.015 480.376 184.756 480.655 C 184.497 480.935 184.34 481.348 184.284 481.894 Z  M 187.454 482.814 L 184.284 482.814 C 184.288 483.182 184.362 483.506 184.507 483.787 C 184.651 484.068 184.843 484.28 185.083 484.422 C 185.322 484.565 185.586 484.636 185.875 484.636 C 186.069 484.636 186.246 484.613 186.406 484.568 C 186.567 484.522 186.722 484.452 186.873 484.354 C 187.023 484.258 187.161 484.153 187.288 484.042 C 187.414 483.931 187.578 483.78 187.78 483.591 C 187.863 483.52 187.982 483.484 188.137 483.484 C 188.303 483.484 188.437 483.53 188.54 483.621 C 188.643 483.713 188.695 483.84 188.695 484.007 C 188.695 484.153 188.637 484.324 188.523 484.52 C 188.407 484.716 188.234 484.904 188.003 485.084 C 187.771 485.264 187.481 485.413 187.13 485.532 C 186.78 485.651 186.377 485.71 185.922 485.71 C 184.882 485.71 184.072 485.413 183.495 484.82 C 182.917 484.227 182.628 483.421 182.628 482.404 C 182.628 481.925 182.699 481.48 182.841 481.072 C 182.984 480.662 183.192 480.311 183.465 480.018 C 183.738 479.725 184.074 479.5 184.474 479.344 C 184.874 479.187 185.317 479.11 185.804 479.11 C 186.437 479.11 186.98 479.243 187.433 479.51 C 187.886 479.777 188.226 480.123 188.451 480.545 C 188.676 480.969 188.79 481.401 188.79 481.84 C 188.79 482.248 188.673 482.512 188.439 482.633 C 188.207 482.753 187.877 482.814 187.454 482.814 Z " fill="#000000"/><path d=" M 194.838 483.591 C 194.838 484.038 194.729 484.421 194.511 484.74 C 194.294 485.059 193.973 485.3 193.547 485.464 C 193.122 485.628 192.604 485.71 191.995 485.71 C 191.413 485.71 190.914 485.621 190.499 485.443 C 190.083 485.266 189.776 485.042 189.579 484.776 C 189.381 484.508 189.282 484.241 189.282 483.971 C 189.282 483.792 189.345 483.641 189.472 483.514 C 189.599 483.388 189.759 483.325 189.953 483.325 C 190.123 483.325 190.253 483.366 190.344 483.449 C 190.436 483.532 190.523 483.649 190.605 483.799 C 190.771 484.089 190.971 484.303 191.203 484.446 C 191.434 484.588 191.749 484.66 192.149 484.66 C 192.474 484.66 192.74 484.587 192.948 484.443 C 193.155 484.298 193.259 484.133 193.259 483.947 C 193.259 483.662 193.151 483.455 192.936 483.325 C 192.72 483.194 192.364 483.069 191.87 482.95 C 191.312 482.812 190.858 482.666 190.507 482.513 C 190.157 482.362 189.877 482.161 189.667 481.912 C 189.458 481.662 189.353 481.355 189.353 480.991 C 189.353 480.667 189.45 480.36 189.644 480.071 C 189.838 479.783 190.124 479.552 190.502 479.38 C 190.879 479.207 191.335 479.121 191.87 479.121 C 192.29 479.121 192.666 479.165 193 479.252 C 193.335 479.338 193.615 479.456 193.838 479.603 C 194.062 479.749 194.231 479.911 194.348 480.088 C 194.465 480.267 194.523 480.44 194.523 480.611 C 194.523 480.797 194.461 480.95 194.336 481.069 C 194.212 481.186 194.035 481.247 193.805 481.247 C 193.639 481.247 193.497 481.199 193.381 481.103 C 193.264 481.009 193.13 480.867 192.98 480.677 C 192.857 480.519 192.714 480.392 192.547 480.296 C 192.381 480.201 192.155 480.154 191.87 480.154 C 191.577 480.154 191.334 480.216 191.14 480.342 C 190.946 480.466 190.849 480.621 190.849 480.807 C 190.849 480.978 190.92 481.117 191.062 481.226 C 191.205 481.334 191.397 481.425 191.639 481.496 C 191.88 481.567 192.212 481.653 192.636 481.756 C 193.138 481.88 193.549 482.026 193.868 482.196 C 194.186 482.366 194.427 482.567 194.592 482.799 C 194.756 483.03 194.838 483.294 194.838 483.591 Z " fill="#000000"/><path d=" M 197.295 480.041 L 197.295 484.725 C 197.295 485.049 197.218 485.295 197.063 485.461 C 196.909 485.627 196.713 485.71 196.476 485.71 C 196.238 485.71 196.045 485.625 195.897 485.455 C 195.749 485.285 195.674 485.041 195.674 484.725 L 195.674 480.088 C 195.674 479.769 195.749 479.527 195.897 479.365 C 196.045 479.202 196.238 479.121 196.476 479.121 C 196.713 479.121 196.909 479.202 197.063 479.365 C 197.218 479.527 197.295 479.753 197.295 480.041 Z  M 196.494 478.368 C 196.268 478.368 196.075 478.298 195.915 478.16 C 195.755 478.022 195.674 477.826 195.674 477.572 C 195.674 477.342 195.756 477.154 195.921 477.005 C 196.085 476.856 196.276 476.782 196.494 476.782 C 196.704 476.782 196.889 476.849 197.051 476.984 C 197.214 477.119 197.295 477.314 197.295 477.572 C 197.295 477.821 197.216 478.016 197.057 478.157 C 196.899 478.297 196.711 478.368 196.494 478.368 Z " fill="#000000"/><path d=" M 199.699 482.363 C 199.699 483.02 199.842 483.516 200.129 483.853 C 200.416 484.189 200.787 484.357 201.242 484.357 C 201.511 484.357 201.765 484.285 202.004 484.141 C 202.244 483.996 202.439 483.778 202.59 483.487 C 202.74 483.196 202.815 482.844 202.815 482.428 C 202.815 481.768 202.67 481.252 202.379 480.885 C 202.088 480.517 201.705 480.332 201.23 480.332 C 200.767 480.332 200.396 480.509 200.117 480.861 C 199.838 481.213 199.699 481.714 199.699 482.363 Z  M 204.395 480.309 L 204.395 485.016 C 204.395 485.554 204.336 486.018 204.222 486.406 C 204.108 486.792 203.923 487.113 203.67 487.367 C 203.416 487.62 203.085 487.808 202.676 487.93 C 202.266 488.054 201.757 488.115 201.147 488.115 C 200.589 488.115 200.09 488.037 199.651 487.88 C 199.212 487.723 198.874 487.522 198.636 487.275 C 198.399 487.027 198.279 486.773 198.279 486.512 C 198.279 486.314 198.347 486.152 198.482 486.028 C 198.616 485.903 198.779 485.841 198.968 485.841 C 199.206 485.841 199.414 485.946 199.592 486.155 C 199.678 486.262 199.769 486.371 199.861 486.479 C 199.955 486.589 200.058 486.682 200.17 486.759 C 200.283 486.835 200.418 486.893 200.577 486.931 C 200.735 486.967 200.917 486.987 201.123 486.987 C 201.542 486.987 201.868 486.929 202.1 486.811 C 202.332 486.695 202.494 486.531 202.587 486.321 C 202.68 486.113 202.734 485.888 202.75 485.648 C 202.766 485.408 202.777 485.024 202.785 484.493 C 202.536 484.842 202.249 485.107 201.921 485.289 C 201.595 485.471 201.206 485.562 200.755 485.562 C 200.213 485.562 199.739 485.423 199.333 485.146 C 198.928 484.869 198.616 484.482 198.399 483.983 C 198.181 483.484 198.072 482.909 198.072 482.256 C 198.072 481.77 198.138 481.329 198.271 480.938 C 198.404 480.545 198.593 480.215 198.838 479.946 C 199.083 479.677 199.366 479.475 199.687 479.338 C 200.007 479.202 200.359 479.133 200.743 479.133 C 201.202 479.133 201.6 479.222 201.937 479.397 C 202.272 479.574 202.586 479.85 202.874 480.226 L 202.874 480.005 C 202.874 479.725 202.943 479.507 203.082 479.353 C 203.221 479.199 203.399 479.121 203.617 479.121 C 203.929 479.121 204.137 479.224 204.239 479.427 C 204.343 479.631 204.395 479.925 204.395 480.309 Z " fill="#000000"/><path d=" M 206.97 480.018 L 206.97 480.213 C 207.254 479.837 207.566 479.561 207.905 479.385 C 208.243 479.209 208.632 479.121 209.071 479.121 C 209.499 479.121 209.88 479.214 210.217 479.4 C 210.553 479.587 210.805 479.85 210.971 480.189 C 211.078 480.388 211.147 480.602 211.178 480.831 C 211.21 481.061 211.227 481.353 211.227 481.709 L 211.227 484.725 C 211.227 485.049 211.152 485.295 211.003 485.461 C 210.855 485.627 210.662 485.71 210.425 485.71 C 210.183 485.71 209.987 485.625 209.837 485.455 C 209.687 485.285 209.611 485.041 209.611 484.725 L 209.611 482.024 C 209.611 481.49 209.537 481.081 209.389 480.798 C 209.24 480.516 208.945 480.374 208.501 480.374 C 208.212 480.374 207.949 480.459 207.712 480.632 C 207.474 480.804 207.3 481.041 207.189 481.341 C 207.11 481.583 207.071 482.034 207.071 482.695 L 207.071 484.725 C 207.071 485.053 206.994 485.3 206.842 485.464 C 206.69 485.628 206.493 485.71 206.252 485.71 C 206.018 485.71 205.826 485.625 205.676 485.455 C 205.525 485.285 205.45 485.041 205.45 484.725 L 205.45 480.041 C 205.45 479.732 205.517 479.502 205.652 479.349 C 205.787 479.197 205.971 479.121 206.204 479.121 C 206.347 479.121 206.475 479.155 206.59 479.222 C 206.705 479.29 206.797 479.391 206.866 479.524 C 206.936 479.659 206.97 479.824 206.97 480.018 Z " fill="#000000"/><path d=" M 213.659 481.894 L 216.598 481.894 C 216.558 481.34 216.409 480.925 216.149 480.65 C 215.89 480.374 215.549 480.237 215.125 480.237 C 214.722 480.237 214.39 480.376 214.131 480.655 C 213.872 480.935 213.715 481.348 213.659 481.894 Z  M 216.829 482.814 L 213.659 482.814 C 213.664 483.182 213.737 483.506 213.882 483.787 C 214.026 484.068 214.218 484.28 214.458 484.422 C 214.697 484.565 214.961 484.636 215.25 484.636 C 215.444 484.636 215.621 484.613 215.782 484.568 C 215.941 484.522 216.097 484.452 216.248 484.354 C 216.397 484.258 216.536 484.153 216.664 484.042 C 216.79 483.931 216.954 483.78 217.156 483.591 C 217.239 483.52 217.357 483.484 217.512 483.484 C 217.678 483.484 217.813 483.53 217.916 483.621 C 218.019 483.713 218.07 483.84 218.07 484.007 C 218.07 484.153 218.013 484.324 217.897 484.52 C 217.783 484.716 217.609 484.904 217.378 485.084 C 217.146 485.264 216.856 485.413 216.506 485.532 C 216.155 485.651 215.752 485.71 215.297 485.71 C 214.257 485.71 213.448 485.413 212.869 484.82 C 212.292 484.227 212.003 483.421 212.003 482.404 C 212.003 481.925 212.074 481.48 212.216 481.072 C 212.359 480.662 212.567 480.311 212.84 480.018 C 213.113 479.725 213.45 479.5 213.849 479.344 C 214.249 479.187 214.692 479.11 215.179 479.11 C 215.812 479.11 216.354 479.243 216.808 479.51 C 217.261 479.777 217.601 480.123 217.827 480.545 C 218.052 480.969 218.165 481.401 218.165 481.84 C 218.165 482.248 218.048 482.512 217.814 482.633 C 217.582 482.753 217.253 482.814 216.829 482.814 Z " fill="#000000"/><path d=" M 220.248 482.404 C 220.248 482.844 220.315 483.217 220.452 483.526 C 220.589 483.834 220.776 484.067 221.014 484.223 C 221.251 484.38 221.51 484.458 221.791 484.458 C 222.076 484.458 222.336 484.384 222.571 484.235 C 222.807 484.087 222.995 483.859 223.135 483.553 C 223.276 483.247 223.346 482.862 223.346 482.404 C 223.346 481.973 223.276 481.602 223.135 481.29 C 222.995 480.98 222.805 480.743 222.565 480.578 C 222.326 480.415 222.064 480.332 221.779 480.332 C 221.482 480.332 221.217 480.417 220.983 480.584 C 220.75 480.752 220.569 480.994 220.44 481.309 C 220.312 481.624 220.248 481.988 220.248 482.404 Z  M 223.435 484.785 L 223.435 484.624 C 223.217 484.873 223.003 485.076 222.791 485.232 C 222.579 485.389 222.35 485.508 222.103 485.588 C 221.856 485.671 221.585 485.71 221.292 485.71 C 220.904 485.71 220.545 485.628 220.215 485.464 C 219.885 485.3 219.599 485.065 219.357 484.761 C 219.116 484.456 218.933 484.099 218.808 483.686 C 218.684 483.274 218.621 482.83 218.621 482.351 C 218.621 481.338 218.868 480.547 219.363 479.981 C 219.858 479.416 220.509 479.133 221.316 479.133 C 221.783 479.133 222.177 479.214 222.498 479.373 C 222.818 479.534 223.131 479.781 223.435 480.112 L 223.435 477.72 C 223.435 477.388 223.501 477.137 223.634 476.966 C 223.767 476.796 223.956 476.711 224.201 476.711 C 224.446 476.711 224.635 476.79 224.768 476.946 C 224.9 477.103 224.967 477.332 224.967 477.637 L 224.967 484.785 C 224.967 485.093 224.896 485.325 224.753 485.479 C 224.611 485.633 224.427 485.71 224.201 485.71 C 223.98 485.71 223.797 485.63 223.652 485.471 C 223.507 485.31 223.435 485.081 223.435 484.785 Z " fill="#000000"/><path d=" M 230.136 482.452 C 230.136 483.097 230.284 483.592 230.578 483.938 C 230.873 484.285 231.26 484.458 231.739 484.458 C 232.146 484.458 232.498 484.282 232.792 483.927 C 233.087 483.572 233.234 483.065 233.234 482.404 C 233.234 481.977 233.174 481.608 233.051 481.3 C 232.928 480.991 232.754 480.752 232.529 480.584 C 232.303 480.417 232.04 480.332 231.739 480.332 C 231.43 480.332 231.155 480.417 230.914 480.584 C 230.672 480.752 230.482 480.996 230.344 481.314 C 230.206 481.633 230.136 482.012 230.136 482.452 Z  M 230.059 477.637 L 230.059 480.112 C 230.363 479.796 230.674 479.553 230.991 479.385 C 231.308 479.217 231.7 479.133 232.167 479.133 C 232.705 479.133 233.176 479.261 233.583 479.515 C 233.987 479.771 234.302 480.142 234.526 480.626 C 234.75 481.11 234.862 481.686 234.862 482.351 C 234.862 482.842 234.799 483.291 234.675 483.701 C 234.55 484.111 234.369 484.466 234.131 484.766 C 233.894 485.067 233.606 485.3 233.268 485.464 C 232.929 485.628 232.556 485.71 232.149 485.71 C 231.899 485.71 231.665 485.681 231.445 485.621 C 231.225 485.562 231.038 485.484 230.884 485.387 C 230.73 485.29 230.599 485.19 230.489 485.087 C 230.38 484.985 230.237 484.83 230.059 484.624 L 230.059 484.785 C 230.059 485.089 229.986 485.32 229.839 485.477 C 229.693 485.633 229.507 485.71 229.281 485.71 C 229.052 485.71 228.869 485.633 228.732 485.477 C 228.596 485.32 228.527 485.089 228.527 484.785 L 228.527 477.708 C 228.527 477.38 228.594 477.131 228.726 476.963 C 228.859 476.795 229.044 476.711 229.281 476.711 C 229.531 476.711 229.723 476.791 229.857 476.951 C 229.992 477.112 230.059 477.34 230.059 477.637 Z " fill="#000000"/><path d=" M 236.962 485.913 L 237.111 485.55 L 235.116 480.528 C 234.994 480.24 234.932 480.029 234.932 479.898 C 234.932 479.76 234.968 479.632 235.039 479.514 C 235.11 479.395 235.208 479.299 235.333 479.228 C 235.458 479.156 235.587 479.121 235.722 479.121 C 235.955 479.121 236.131 479.195 236.25 479.344 C 236.369 479.492 236.474 479.705 236.564 479.981 L 237.936 483.971 L 239.236 480.261 C 239.339 479.961 239.432 479.725 239.515 479.554 C 239.598 479.384 239.686 479.27 239.779 479.211 C 239.872 479.151 240.004 479.121 240.174 479.121 C 240.297 479.121 240.415 479.153 240.527 479.219 C 240.64 479.285 240.727 479.373 240.788 479.483 C 240.849 479.594 240.881 479.71 240.881 479.833 C 240.864 479.908 240.839 480.015 240.803 480.154 C 240.767 480.292 240.724 480.434 240.673 480.576 L 238.56 486.108 C 238.377 486.595 238.199 486.976 238.025 487.253 C 237.851 487.53 237.621 487.744 237.333 487.892 C 237.046 488.04 236.66 488.115 236.173 488.115 C 235.698 488.115 235.342 488.063 235.105 487.961 C 234.867 487.857 234.749 487.669 234.749 487.396 C 234.749 487.21 234.804 487.066 234.918 486.966 C 235.03 486.865 235.198 486.814 235.418 486.814 C 235.506 486.814 235.591 486.826 235.674 486.851 C 235.777 486.874 235.866 486.886 235.941 486.886 C 236.127 486.886 236.274 486.858 236.381 486.802 C 236.487 486.748 236.583 486.651 236.668 486.514 C 236.753 486.379 236.852 486.177 236.962 485.913 Z " fill="#000000"/><path d=" M 260.439 479.261 L 260.826 479.261 L 260.826 478.775 C 260.826 478.266 260.888 477.864 261.017 477.564 C 261.145 477.265 261.365 477.048 261.672 476.911 C 261.978 476.775 262.398 476.707 262.932 476.707 C 263.882 476.707 264.352 476.936 264.352 477.403 C 264.352 477.552 264.303 477.681 264.202 477.788 C 264.106 477.894 263.988 477.948 263.854 477.948 C 263.792 477.948 263.68 477.936 263.524 477.911 C 263.376 477.89 263.242 477.876 263.135 477.876 C 262.842 477.876 262.655 477.964 262.569 478.135 C 262.489 478.308 262.447 478.553 262.447 478.875 L 262.447 479.261 L 262.842 479.261 C 263.462 479.261 263.768 479.447 263.768 479.821 C 263.768 480.083 263.689 480.252 263.523 480.324 C 263.359 480.395 263.133 480.431 262.842 480.431 L 262.447 480.431 L 262.447 484.725 C 262.447 485.044 262.372 485.288 262.216 485.455 C 262.065 485.625 261.87 485.709 261.627 485.709 C 261.397 485.709 261.208 485.625 261.053 485.455 C 260.901 485.288 260.826 485.044 260.826 484.725 L 260.826 480.431 L 260.379 480.431 C 260.137 480.431 259.953 480.378 259.821 480.267 C 259.69 480.16 259.625 480.018 259.625 479.844 C 259.625 479.454 259.896 479.261 260.439 479.261 Z " fill="#000000"/><path d=" M 265.745 483.37 L 265.745 484.725 C 265.745 485.052 265.662 485.3 265.511 485.462 C 265.357 485.628 265.162 485.709 264.925 485.709 C 264.687 485.709 264.496 485.627 264.346 485.459 C 264.199 485.294 264.121 485.049 264.121 484.725 L 264.121 480.211 C 264.121 479.482 264.383 479.118 264.909 479.118 C 265.18 479.118 265.374 479.202 265.493 479.373 C 265.611 479.544 265.677 479.794 265.691 480.128 C 265.883 479.794 266.081 479.544 266.284 479.373 C 266.491 479.202 266.76 479.118 267.102 479.118 C 267.445 479.118 267.772 479.202 268.093 479.373 C 268.415 479.544 268.575 479.771 268.575 480.051 C 268.575 480.248 268.506 480.414 268.371 480.54 C 268.233 480.67 268.087 480.734 267.93 480.734 C 267.867 480.734 267.723 480.695 267.497 480.622 C 267.269 480.551 267.066 480.514 266.895 480.514 C 266.658 480.514 266.462 480.578 266.313 480.7 C 266.162 480.828 266.043 481.011 265.96 481.254 C 265.879 481.501 265.823 481.795 265.79 482.132 C 265.759 482.471 265.745 482.884 265.745 483.37 Z " fill="#000000"/><path d=" M 270.024 481.891 L 272.962 481.891 C 272.923 481.338 272.776 480.922 272.517 480.649 C 272.255 480.373 271.917 480.237 271.491 480.237 C 271.087 480.237 270.755 480.374 270.496 480.655 C 270.237 480.934 270.079 481.345 270.024 481.891 Z  M 273.196 482.812 L 270.024 482.812 C 270.03 483.18 270.102 483.506 270.246 483.787 C 270.393 484.065 270.583 484.278 270.824 484.422 C 271.064 484.564 271.326 484.634 271.617 484.634 C 271.811 484.634 271.987 484.613 272.147 484.565 C 272.306 484.521 272.463 484.449 272.613 484.352 C 272.765 484.256 272.901 484.153 273.028 484.039 C 273.155 483.93 273.32 483.779 273.522 483.59 C 273.606 483.519 273.725 483.481 273.877 483.481 C 274.045 483.481 274.178 483.528 274.283 483.62 C 274.387 483.712 274.435 483.839 274.435 484.006 C 274.435 484.153 274.38 484.323 274.268 484.518 C 274.151 484.716 273.979 484.903 273.746 485.084 C 273.512 485.262 273.221 485.414 272.872 485.53 C 272.522 485.649 272.119 485.709 271.665 485.709 C 270.621 485.709 269.813 485.414 269.236 484.82 C 268.658 484.226 268.366 483.419 268.366 482.403 C 268.366 481.924 268.439 481.479 268.583 481.069 C 268.724 480.657 268.932 480.309 269.208 480.014 C 269.48 479.72 269.814 479.497 270.215 479.34 C 270.614 479.185 271.057 479.106 271.545 479.106 C 272.177 479.106 272.721 479.24 273.174 479.51 C 273.626 479.774 273.97 480.12 274.192 480.543 C 274.418 480.969 274.531 481.399 274.531 481.84 C 274.531 482.246 274.413 482.509 274.18 482.631 C 273.947 482.752 273.619 482.812 273.196 482.812 Z " fill="#000000"/><path d=" M 276.767 481.891 L 279.705 481.891 C 279.666 481.338 279.515 480.922 279.258 480.649 C 278.995 480.373 278.657 480.237 278.232 480.237 C 277.828 480.237 277.497 480.374 277.236 480.655 C 276.978 480.934 276.819 481.345 276.767 481.891 Z  M 279.938 482.812 L 276.767 482.812 C 276.771 483.18 276.845 483.506 276.988 483.787 C 277.133 484.065 277.325 484.278 277.564 484.422 C 277.803 484.564 278.067 484.634 278.359 484.634 C 278.551 484.634 278.729 484.613 278.887 484.565 C 279.048 484.521 279.203 484.449 279.355 484.352 C 279.507 484.256 279.643 484.153 279.771 484.039 C 279.895 483.93 280.06 483.779 280.263 483.59 C 280.347 483.519 280.467 483.481 280.618 483.481 C 280.786 483.481 280.92 483.528 281.025 483.62 C 281.128 483.712 281.175 483.839 281.175 484.006 C 281.175 484.153 281.121 484.323 281.004 484.518 C 280.894 484.716 280.72 484.903 280.485 485.084 C 280.254 485.262 279.96 485.414 279.613 485.53 C 279.265 485.649 278.858 485.709 278.404 485.709 C 277.362 485.709 276.555 485.414 275.975 484.82 C 275.397 484.226 275.107 483.419 275.107 482.403 C 275.107 481.924 275.179 481.479 275.324 481.069 C 275.466 480.657 275.673 480.309 275.947 480.014 C 276.219 479.72 276.555 479.497 276.956 479.34 C 277.354 479.185 277.8 479.106 278.286 479.106 C 278.917 479.106 279.46 479.24 279.919 479.51 C 280.369 479.774 280.71 480.12 280.933 480.543 C 281.157 480.969 281.273 481.399 281.273 481.84 C 281.273 482.246 281.153 482.509 280.922 482.631 C 280.688 482.752 280.36 482.812 279.938 482.812 Z " fill="#000000"/><path d=" M 286.665 482.384 C 286.665 481.957 286.599 481.589 286.468 481.283 C 286.338 480.975 286.156 480.741 285.927 480.578 C 285.697 480.414 285.438 480.33 285.157 480.33 C 284.71 480.33 284.333 480.508 284.026 480.857 C 283.719 481.211 283.564 481.729 283.564 482.415 C 283.564 483.057 283.717 483.561 284.024 483.919 C 284.329 484.278 284.703 484.456 285.157 484.456 C 285.425 484.456 285.676 484.377 285.905 484.224 C 286.137 484.065 286.321 483.832 286.458 483.519 C 286.595 483.206 286.665 482.827 286.665 482.384 Z  M 283.487 480.03 L 283.487 480.224 C 283.792 479.849 284.109 479.573 284.44 479.396 C 284.764 479.219 285.139 479.129 285.554 479.129 C 286.051 479.129 286.514 479.259 286.934 479.515 C 287.353 479.774 287.683 480.15 287.926 480.645 C 288.17 481.141 288.293 481.726 288.293 482.403 C 288.293 482.9 288.223 483.36 288.083 483.779 C 287.943 484.196 287.747 484.545 287.502 484.829 C 287.256 485.11 286.968 485.33 286.634 485.482 C 286.295 485.633 285.939 485.709 285.554 485.709 C 285.093 485.709 284.702 485.616 284.388 485.43 C 284.074 485.247 283.774 484.971 283.487 484.613 L 283.487 487.046 C 283.487 487.756 283.228 488.115 282.71 488.115 C 282.403 488.115 282.205 488.023 282.103 487.84 C 282.008 487.654 281.957 487.388 281.957 487.034 L 281.957 480.038 C 281.957 479.728 282.023 479.5 282.157 479.346 C 282.291 479.196 282.477 479.118 282.71 479.118 C 282.94 479.118 283.126 479.196 283.27 479.352 C 283.417 479.51 283.487 479.733 283.487 480.03 Z " fill="#000000"/><path d=" M 290.728 480.038 L 290.728 484.727 C 290.728 485.049 290.65 485.294 290.496 485.459 C 290.34 485.627 290.146 485.709 289.908 485.709 C 289.67 485.709 289.48 485.625 289.328 485.455 C 289.182 485.283 289.106 485.04 289.106 484.727 L 289.106 480.084 C 289.106 479.766 289.182 479.525 289.328 479.363 C 289.48 479.197 289.67 479.118 289.908 479.118 C 290.146 479.118 290.34 479.197 290.496 479.363 C 290.65 479.525 290.728 479.751 290.728 480.038 Z  M 289.925 478.363 C 289.698 478.363 289.507 478.292 289.348 478.154 C 289.186 478.015 289.106 477.821 289.106 477.569 C 289.106 477.339 289.188 477.15 289.354 477 C 289.517 476.853 289.708 476.778 289.925 476.778 C 290.137 476.778 290.322 476.844 290.483 476.978 C 290.646 477.114 290.728 477.311 290.728 477.569 C 290.728 477.818 290.648 478.013 290.491 478.154 C 290.333 478.292 290.145 478.363 289.925 478.363 Z " fill="#000000"/><path d=" M 295.952 484.969 L 294.524 482.616 L 293.645 483.446 L 293.645 484.737 C 293.645 485.049 293.562 485.288 293.396 485.455 C 293.236 485.625 293.042 485.709 292.83 485.709 C 292.581 485.709 292.383 485.627 292.242 485.459 C 292.101 485.294 292.027 485.049 292.027 484.725 L 292.027 477.811 C 292.027 477.452 292.099 477.179 292.234 476.99 C 292.374 476.799 292.575 476.707 292.83 476.707 C 293.08 476.707 293.276 476.792 293.423 476.964 C 293.57 477.133 293.645 477.385 293.645 477.715 L 293.645 481.648 L 295.467 479.734 C 295.693 479.499 295.862 479.334 295.984 479.248 C 296.102 479.161 296.246 479.118 296.415 479.118 C 296.619 479.118 296.786 479.183 296.924 479.311 C 297.056 479.439 297.125 479.602 297.125 479.794 C 297.125 480.031 296.904 480.35 296.465 480.745 L 295.605 481.534 L 297.267 484.148 C 297.388 484.344 297.479 484.488 297.532 484.59 C 297.584 484.689 297.613 484.79 297.613 484.878 C 297.613 485.137 297.542 485.337 297.4 485.488 C 297.259 485.636 297.073 485.709 296.846 485.709 C 296.648 485.709 296.494 485.659 296.388 485.549 C 296.282 485.441 296.133 485.247 295.952 484.969 Z " fill="#000000"/><path d=" M 299.475 485.709 C 299.229 485.709 299.02 485.63 298.841 485.471 C 298.663 485.315 298.573 485.093 298.573 484.806 C 298.573 484.565 298.659 484.356 298.829 484.184 C 299.001 484.009 299.209 483.922 299.459 483.922 C 299.708 483.922 299.918 484.009 300.098 484.18 C 300.272 484.352 300.362 484.562 300.362 484.806 C 300.362 485.088 300.272 485.311 300.098 485.468 C 299.918 485.63 299.711 485.709 299.475 485.709 Z " fill="#000000"/><path d=" M 307.536 483.703 C 307.536 483.903 307.476 484.121 307.354 484.349 C 307.234 484.581 307.049 484.798 306.8 485.005 C 306.554 485.213 306.243 485.382 305.866 485.508 C 305.491 485.634 305.066 485.699 304.597 485.699 C 303.593 485.699 302.811 485.406 302.249 484.824 C 301.689 484.239 301.407 483.455 301.407 482.474 C 301.407 481.807 301.535 481.22 301.794 480.708 C 302.049 480.2 302.422 479.804 302.908 479.525 C 303.395 479.245 303.98 479.106 304.654 479.106 C 305.075 479.106 305.459 479.167 305.812 479.29 C 306.162 479.413 306.457 479.573 306.702 479.765 C 306.944 479.961 307.131 480.167 307.258 480.385 C 307.388 480.605 307.451 480.811 307.451 481.002 C 307.451 481.194 307.38 481.359 307.236 481.494 C 307.089 481.628 306.914 481.697 306.712 481.697 C 306.575 481.697 306.463 481.661 306.374 481.593 C 306.284 481.522 306.184 481.412 306.075 481.254 C 305.876 480.955 305.671 480.728 305.452 480.58 C 305.238 480.428 304.964 480.353 304.631 480.353 C 304.155 480.353 303.767 480.54 303.473 480.914 C 303.181 481.287 303.033 481.802 303.033 482.448 C 303.033 482.753 303.072 483.035 303.147 483.29 C 303.221 483.545 303.33 483.763 303.473 483.943 C 303.617 484.122 303.788 484.258 303.989 484.352 C 304.192 484.447 304.415 484.493 304.654 484.493 C 304.98 484.493 305.258 484.417 305.489 484.268 C 305.725 484.117 305.928 483.888 306.106 483.579 C 306.205 483.396 306.31 483.255 306.424 483.151 C 306.538 483.049 306.68 482.996 306.846 482.996 C 307.044 482.996 307.209 483.072 307.337 483.222 C 307.469 483.372 307.536 483.534 307.536 483.703 Z " fill="#000000"/><path d=" M 312.903 482.415 C 312.903 481.753 312.756 481.24 312.466 480.872 C 312.177 480.5 311.785 480.317 311.295 480.317 C 310.978 480.317 310.698 480.4 310.456 480.563 C 310.214 480.727 310.03 480.969 309.9 481.291 C 309.769 481.612 309.703 481.987 309.703 482.415 C 309.703 482.839 309.767 483.207 309.896 483.523 C 310.026 483.843 310.21 484.084 310.45 484.252 C 310.691 484.419 310.972 484.505 311.295 484.505 C 311.785 484.505 312.177 484.32 312.466 483.948 C 312.756 483.579 312.903 483.066 312.903 482.415 Z  M 314.53 482.415 C 314.53 482.896 314.454 483.343 314.308 483.751 C 314.153 484.16 313.938 484.51 313.652 484.801 C 313.367 485.094 313.025 485.318 312.632 485.476 C 312.232 485.63 311.788 485.71 311.295 485.71 C 310.804 485.71 310.362 485.63 309.969 485.471 C 309.58 485.315 309.238 485.087 308.953 484.795 C 308.665 484.497 308.448 484.148 308.296 483.747 C 308.152 483.345 308.077 482.9 308.077 482.415 C 308.077 481.924 308.154 481.474 308.301 481.066 C 308.452 480.657 308.668 480.309 308.95 480.02 C 309.232 479.732 309.571 479.51 309.969 479.352 C 310.372 479.196 310.813 479.118 311.295 479.118 C 311.785 479.118 312.231 479.196 312.632 479.356 C 313.03 479.514 313.371 479.741 313.659 480.031 C 313.945 480.328 314.161 480.674 314.309 481.076 C 314.455 481.483 314.53 481.926 314.53 482.415 Z " fill="#000000"/><path d=" M 320.712 482.534 L 320.712 484.688 C 320.712 485.03 320.637 485.283 320.481 485.455 C 320.325 485.625 320.125 485.71 319.871 485.71 C 319.625 485.71 319.424 485.625 319.276 485.455 C 319.122 485.283 319.043 485.03 319.043 484.688 L 319.043 482.106 C 319.043 481.698 319.031 481.38 319.004 481.153 C 318.975 480.933 318.899 480.744 318.777 480.602 C 318.655 480.455 318.459 480.382 318.196 480.382 C 317.664 480.382 317.316 480.563 317.147 480.933 C 316.98 481.292 316.894 481.816 316.894 482.499 L 316.894 484.688 C 316.894 485.024 316.817 485.279 316.668 485.453 C 316.512 485.624 316.313 485.71 316.065 485.71 C 315.818 485.71 315.617 485.624 315.46 485.453 C 315.303 485.279 315.226 485.024 315.226 484.688 L 315.226 480.051 C 315.226 479.746 315.295 479.514 315.435 479.356 C 315.579 479.196 315.764 479.118 315.991 479.118 C 316.214 479.118 316.398 479.195 316.548 479.34 C 316.696 479.489 316.77 479.694 316.77 479.956 L 316.77 480.108 C 317.053 479.774 317.354 479.526 317.673 479.371 C 317.996 479.208 318.349 479.129 318.743 479.129 C 319.15 479.129 319.5 479.211 319.792 479.373 C 320.085 479.536 320.325 479.783 320.517 480.108 C 320.792 479.778 321.085 479.532 321.398 479.371 C 321.71 479.21 322.056 479.129 322.437 479.129 C 322.878 479.129 323.263 479.219 323.583 479.392 C 323.902 479.565 324.141 479.816 324.3 480.139 C 324.438 480.434 324.507 480.895 324.507 481.524 L 324.507 484.688 C 324.507 485.03 324.431 485.283 324.277 485.455 C 324.124 485.625 323.918 485.71 323.665 485.71 C 323.418 485.71 323.219 485.624 323.062 485.453 C 322.906 485.279 322.827 485.024 322.827 484.688 L 322.827 481.962 C 322.827 481.613 322.813 481.335 322.784 481.126 C 322.754 480.915 322.673 480.738 322.544 480.597 C 322.412 480.455 322.213 480.382 321.949 480.382 C 321.735 480.382 321.533 480.449 321.34 480.574 C 321.148 480.698 320.999 480.872 320.89 481.082 C 320.774 481.356 320.712 481.84 320.712 482.534 Z " fill="#000000"/><path d=" M 245.272 482.022 C 245.271 482.02 245.271 482.017 245.271 482.012 C 245.271 482.017 245.271 482.02 245.272 482.022 Z " fill="#000000"/><path d=" M 245.354 482.541 C 245.355 482.541 245.355 482.541 245.355 482.541 C 245.324 482.393 245.3 482.247 245.281 482.102 C 245.3 482.248 245.324 482.395 245.354 482.541 Z " fill="#000000"/><path d=" M 245.89 484.045 C 245.887 484.039 245.883 484.031 245.879 484.024 C 245.883 484.031 245.887 484.039 245.89 484.045 Z " fill="#000000"/><path d=" M 245.839 483.945 C 245.825 483.917 245.812 483.889 245.798 483.861 C 245.812 483.89 245.825 483.917 245.839 483.945 Z " fill="#000000"/><path d=" M 245.504 483.12 C 245.583 483.37 245.679 483.613 245.79 483.844 C 245.677 483.608 245.583 483.365 245.506 483.12 C 245.506 483.12 245.505 483.12 245.504 483.12 Z " fill="#000000"/><path d=" M 251.545 475.812 C 251.858 475.812 252.09 475.837 252.354 475.882 L 252.43 475.405 C 252.43 475.405 251.698 475.18 250.736 475.259 L 250.66 474.999 C 250.959 474.936 251.184 474.67 251.184 474.353 C 251.184 473.989 250.887 473.694 250.523 473.694 C 250.159 473.694 249.863 473.989 249.863 474.353 C 249.863 474.67 250.087 474.936 250.386 474.999 L 250.469 475.289 C 249.448 475.429 248.635 475.828 248.635 475.828 L 248.779 476.268 C 249.397 476.062 249.933 475.937 250.419 475.885 C 250.895 475.834 251.253 475.812 251.545 475.812 Z " fill="#000000"/><path d=" M 245.878 478.224 L 245.882 478.219 C 245.906 478.188 245.929 478.159 245.952 478.13 L 245.757 477.989 L 245.452 477.766 C 245.435 477.79 244.955 478.231 244.576 479.046 C 244.56 479.02 244.541 478.995 244.52 478.972 C 244.406 478.848 244.248 478.784 244.046 478.788 C 244.043 478.788 244.04 478.788 244.037 478.788 C 243.912 478.788 243.826 478.746 243.77 478.696 C 243.826 478.625 243.859 478.536 243.859 478.437 C 243.859 478.207 243.672 478.02 243.441 478.02 C 243.211 478.02 243.023 478.207 243.023 478.437 C 243.023 478.668 243.211 478.855 243.441 478.855 C 243.478 478.855 243.512 478.85 243.545 478.843 C 243.648 478.957 243.812 479.056 244.05 479.051 C 244.173 479.05 244.263 479.082 244.324 479.148 C 244.393 479.224 244.417 479.333 244.423 479.416 C 244.423 479.417 244.423 479.419 244.421 479.419 C 244.149 480.162 244.227 481.087 244.227 481.087 L 244.888 481.114 C 244.901 480.777 244.95 480.187 245.12 479.72 C 245.449 478.814 245.861 478.248 245.878 478.224 Z " fill="#000000"/><path d=" M 257.295 476.365 C 257.064 476.365 256.876 476.551 256.876 476.783 C 256.876 476.819 256.882 476.853 256.892 476.886 C 256.777 476.99 256.677 477.153 256.681 477.393 C 256.683 477.516 256.651 477.605 256.584 477.665 C 256.531 477.712 256.465 477.737 256.399 477.753 C 255.908 477.064 255.302 476.644 255.302 476.644 L 254.828 477.152 C 255.186 477.478 255.552 477.886 255.908 478.396 C 256.154 478.748 256.407 479.202 256.618 479.655 L 257.258 479.351 C 257.258 479.351 256.966 478.629 256.555 477.981 C 256.626 477.957 256.698 477.917 256.761 477.861 C 256.887 477.749 256.948 477.588 256.944 477.388 C 256.943 477.258 256.986 477.17 257.037 477.112 C 257.109 477.166 257.198 477.201 257.295 477.201 C 257.527 477.201 257.713 477.014 257.713 476.783 C 257.713 476.551 257.527 476.365 257.295 476.365 Z " fill="#000000"/><path d=" M 255.634 482.116 C 254.753 482.545 253.304 483.112 251.396 483.378 C 250.647 483.482 249.921 483.52 249.253 483.52 C 248.384 483.52 247.616 483.456 247.026 483.381 C 246.354 483.296 245.828 483.193 245.506 483.12 C 245.583 483.365 245.677 483.608 245.79 483.844 C 245.792 483.85 245.795 483.857 245.798 483.861 C 245.812 483.889 245.825 483.917 245.839 483.945 C 245.852 483.972 245.866 483.999 245.879 484.024 C 245.883 484.031 245.887 484.039 245.89 484.045 C 246.079 484.401 246.307 484.729 246.565 485.013 C 247.465 485.997 248.382 486.153 248.391 486.154 L 248.405 486.156 L 248.419 486.161 C 248.427 486.164 249.24 486.426 250.476 486.426 C 251.692 486.426 252.885 486.181 254.022 485.697 C 254.864 485.266 255.661 484.612 256.056 484.028 C 256.361 483.577 256.581 483.095 256.712 482.595 C 256.781 482.329 256.836 481.902 256.804 481.454 C 256.556 481.621 256.165 481.858 255.634 482.116 Z " fill="#000000"/><path d=" M 248.678 477.972 C 249.651 477.972 250.439 478.761 250.439 479.733 C 250.439 480.706 249.651 481.492 248.678 481.492 C 247.707 481.492 246.918 480.706 246.918 479.733 C 246.918 478.761 247.707 477.972 248.678 477.972 Z  M 253.829 478.016 C 254.43 478.016 254.918 478.504 254.918 479.105 C 254.918 479.707 254.43 480.195 253.829 480.195 C 253.228 480.195 252.74 479.707 252.74 479.105 C 252.74 478.504 253.228 478.016 253.829 478.016 Z  M 246.161 478.433 C 246.135 478.47 245.753 479.011 245.451 479.841 C 245.225 480.462 245.235 481.368 245.235 481.378 L 245.235 481.38 C 245.235 481.592 245.247 481.803 245.271 482.012 C 245.271 482.017 245.271 482.02 245.272 482.022 C 245.274 482.049 245.279 482.075 245.281 482.102 C 245.3 482.247 245.324 482.393 245.355 482.541 C 245.793 482.652 248.404 483.261 251.323 482.854 C 253.152 482.6 254.542 482.059 255.385 481.65 C 256.086 481.311 256.536 481.003 256.71 480.876 C 256.537 480.234 256.059 479.226 255.621 478.597 C 254.368 476.807 253.016 476.347 252.322 476.233 C 252.058 476.189 251.846 476.165 251.545 476.165 C 251.266 476.165 250.919 476.187 250.456 476.236 C 249.991 476.284 249.474 476.406 248.873 476.608 C 248.031 476.89 247.269 477.332 246.669 477.888 L 246.648 477.907 C 246.56 477.989 246.374 478.161 246.161 478.433 Z " fill="#000000"/></g></g></svg>