<?xml version="1.0" encoding="UTF-8" standalone="no"?><!-- Generator: Gravit.io --><svg xmlns="http://www.w3.org/2000/svg" xmlns:xlink="http://www.w3.org/1999/xlink" style="isolation:isolate" viewBox="0 0 1519.994 1199.622" width="1519.994pt" height="1199.622pt"><defs><clipPath id="_clipPath_APPG7j9y96Mu0aCaKVqe3H9Tvgaosa2k"><rect width="1519.994" height="1199.622"/></clipPath></defs><g clip-path="url(#_clipPath_APPG7j9y96Mu0aCaKVqe3H9Tvgaosa2k)"><g id="g4280"><path d=" M 1519.994 0 L 0 0 L 0 1199.595 L 1519.994 1199.595 L 1519.994 0 Z  M 1335.994 183.999 L 1335.994 1015.596 L 183.999 1015.596 L 183.999 183.999 L 1335.994 183.999 Z " id="rect4157" fill="rgb(0,0,0)"/><g id="Group"><path d=" M 34.992 163.057 C 34.55 160.534 36.336 157.486 41.769 151.497 C 47.042 145.685 47.711 144.523 47.839 140.967 C 47.946 137.999 46.037 136.338 40.479 134.565 C 35.27 132.904 33.92 131.798 33.923 129.193 C 33.928 125.027 36.56 124.138 49.513 123.925 C 63.226 123.7 68.145 122.249 77.667 115.621 C 89.838 107.149 90.624 103.416 80.772 100.89 C 68.688 97.79 56.928 99.972 44.53 107.614 C 35.817 112.984 32.623 113.744 29.957 111.08 C 27.692 108.816 28.452 106.352 33.155 100.712 C 38.606 94.174 37.127 91.772 24.953 87.39 C 14.385 83.586 12.105 82.026 11.985 78.515 C 11.835 74.125 16.507 73.294 28.021 75.661 C 40.778 78.284 44.388 76.14 42.22 67.227 C 39.114 54.459 48.264 53.451 54.329 65.893 C 55.082 67.438 57.24 71.2 59.125 74.252 L 62.551 79.801 L 67.603 83.183 C 88.697 97.301 97.166 95.432 89.829 78.276 C 84.703 66.29 79.784 61.108 67.039 54.266 C 54.121 47.33 54.559 38.868 67.7 41.507 C 76.643 43.304 78.695 39.998 76.159 27.874 C 73.711 16.169 74.782 11.469 79.766 12.049 C 82.871 12.411 84.583 15.058 87.479 23.977 C 91.835 37.392 95.404 39.154 102.996 31.635 C 109.587 25.108 116.219 30.427 111.426 38.395 C 101.095 55.569 99.351 61.299 100.419 74.575 C 101.835 92.32 112.53 88.795 121.37 67.663 C 124.258 60.754 124.458 59.632 124.594 49.245 C 124.81 31.985 130.61 27.633 135.322 41.189 C 138.218 49.535 140.986 50.081 148.714 43.833 C 160.322 34.449 161.962 33.537 164.786 34.886 C 169 36.902 165.781 45.018 157.472 53.329 C 151.503 59.301 152.415 63.443 160.232 65.861 C 165.83 67.593 167.861 69.196 167.858 71.88 C 167.853 75.848 163.644 77.237 150.941 77.459 C 136.454 77.713 120.912 84.72 116.017 93.206 C 110.099 103.465 140.453 104.738 155.345 94.856 C 167.596 86.725 175.174 86.941 172.475 95.343 C 172.251 96.042 170.749 98.227 169.139 100.198 C 163.183 107.489 164.325 109.358 177.554 113.975 C 194.991 120.06 194.265 129.277 176.605 126.022 C 167.281 124.303 165.188 124.159 162.605 125.059 C 158.853 126.367 157.841 129.349 159.618 133.86 C 161.911 139.683 160.485 143.944 156.242 143.949 C 153.358 143.952 149.507 139.48 145.522 131.502 C 137.506 115.454 109.879 101.587 109.393 113.369 C 109.007 122.726 120.005 138.832 130.324 144.025 C 139.832 148.809 143.946 152.415 144.082 156.086 C 144.227 160.042 141.945 160.916 134.518 159.749 C 128.726 158.839 127.982 158.927 126.173 160.735 C 124.586 162.321 124.542 165.755 125.999 174.222 C 129.42 194.089 120.582 195.642 114.242 176.289 C 110.14 163.769 107.936 162.486 100.83 168.485 C 88.91 178.547 85.294 168.862 95.551 154.348 C 101.581 145.816 104.11 129.259 100.871 119.533 C 95.702 104.01 77.814 128.531 77.585 151.455 C 77.484 161.536 76.636 165.905 74.592 166.877 C 71.239 168.471 68.896 166.524 66.49 160.142 C 64.41 154.627 62.735 153.007 59.729 153.601 C 57.5 154.041 56.281 154.866 49.437 160.559 C 41.001 167.576 35.93 168.454 34.986 163.06 L 34.992 163.057 Z " id="path4147" fill="rgb(149,149,255)"/><path d=" M 12.76 1119.333 C 13.64 1116.927 16.712 1115.181 24.413 1112.709 C 31.886 1110.31 33.048 1109.638 34.937 1106.623 C 36.515 1104.106 35.693 1101.714 31.766 1097.401 C 28.086 1093.359 27.471 1091.727 28.777 1089.473 C 30.865 1085.867 33.589 1086.412 44.913 1092.7 C 56.901 1099.357 61.887 1100.558 73.45 1099.576 C 88.228 1098.32 90.777 1095.481 83.509 1088.369 C 74.595 1079.647 63.32 1075.661 48.759 1076.084 C 38.527 1076.381 35.381 1075.443 34.405 1071.803 C 33.575 1068.711 35.466 1066.957 42.361 1064.422 C 50.352 1061.484 50.273 1058.665 41.924 1048.787 C 34.675 1040.212 33.481 1037.721 35.133 1034.621 C 37.199 1030.745 41.661 1032.359 50.448 1040.163 C 60.184 1048.808 64.383 1048.755 66.964 1039.954 C 70.663 1027.345 79.091 1031.043 78.119 1044.849 C 77.998 1046.564 77.985 1050.899 78.09 1054.485 L 78.281 1061.003 L 80.964 1066.456 C 92.167 1089.223 100.438 1091.835 102.667 1073.312 C 104.225 1060.371 102.558 1053.424 94.944 1041.131 C 87.227 1028.669 91.84 1021.561 101.9 1030.413 C 108.746 1036.437 112.176 1034.599 116.046 1022.832 C 119.783 1011.472 123.062 1007.937 127.088 1010.93 C 129.596 1012.795 129.754 1015.943 127.8 1025.114 C 124.86 1038.908 127.07 1042.218 137.406 1039.5 C 146.38 1037.14 149.462 1045.061 141.325 1049.567 C 123.785 1059.278 119.409 1063.369 113.691 1075.399 C 106.049 1091.479 117.071 1093.768 135.303 1079.886 C 141.264 1075.348 141.995 1074.474 147.306 1065.545 C 156.133 1050.707 163.33 1049.835 160.629 1063.929 C 158.965 1072.607 161.086 1074.461 170.907 1072.912 C 185.654 1070.586 187.531 1070.615 189.299 1073.193 C 191.939 1077.044 185.091 1082.464 173.737 1085.51 C 165.581 1087.703 164.298 1091.742 169.858 1097.742 C 173.839 1102.039 174.796 1104.442 173.45 1106.765 C 171.461 1110.199 167.121 1109.298 156.008 1103.143 C 143.335 1096.124 126.37 1094.427 117.885 1099.33 C 107.627 1105.258 133.277 1121.528 151.119 1120.41 C 165.796 1119.491 172.252 1123.464 165.711 1129.392 C 165.166 1129.885 162.773 1131.027 160.392 1131.93 C 151.587 1135.268 151.64 1137.458 160.787 1148.066 C 172.844 1162.048 167.603 1169.668 153.938 1158.025 C 146.723 1151.877 144.982 1150.707 142.295 1150.195 C 138.392 1149.453 136.023 1151.53 135.305 1156.324 C 134.378 1162.513 131.011 1165.491 127.333 1163.375 C 124.835 1161.937 123.737 1156.139 124.277 1147.239 C 125.365 1129.335 108.377 1103.523 102.061 1113.482 C 97.046 1121.392 98.511 1140.836 104.851 1150.49 C 110.692 1159.384 112.45 1164.563 110.73 1167.81 C 108.878 1171.308 106.464 1170.925 100.616 1166.203 C 96.055 1162.521 95.367 1162.225 92.896 1162.886 C 90.728 1163.467 88.971 1166.419 85.998 1174.48 C 79.02 1193.395 70.589 1190.325 74.781 1170.395 C 77.493 1157.503 76.225 1155.291 67.07 1156.935 C 51.713 1159.693 53.426 1149.499 69.572 1142.054 C 79.062 1137.678 89.536 1124.604 91.598 1114.562 C 94.888 1098.535 67.128 1110.833 55.46 1130.571 C 50.329 1139.251 47.408 1142.612 45.152 1142.432 C 41.451 1142.137 40.396 1139.279 41.505 1132.55 C 42.463 1126.736 41.823 1124.496 38.922 1123.508 C 36.771 1122.776 35.303 1122.88 26.528 1124.391 C 15.712 1126.254 10.88 1124.479 12.761 1119.336 L 12.76 1119.333 Z " id="path4149" fill="rgb(149,149,255)"/><path d=" M 1330.474 121.697 C 1331.354 119.291 1334.426 117.545 1342.127 115.073 C 1349.601 112.674 1350.762 112.002 1352.652 108.987 C 1354.23 106.47 1353.407 104.078 1349.481 99.765 C 1345.801 95.723 1345.185 94.091 1346.491 91.837 C 1348.58 88.231 1351.304 88.776 1362.627 95.064 C 1374.616 101.721 1379.601 102.922 1391.165 101.94 C 1405.944 100.684 1408.492 97.845 1401.224 90.734 C 1392.309 82.011 1381.034 78.025 1366.473 78.448 C 1356.241 78.745 1353.095 77.807 1352.119 74.168 C 1351.29 71.075 1353.181 69.321 1360.075 66.786 C 1368.067 63.849 1367.988 61.029 1359.638 51.151 C 1352.389 42.576 1351.196 40.086 1352.848 36.986 C 1354.914 33.109 1359.376 34.724 1368.163 42.527 C 1377.899 51.172 1382.097 51.12 1384.679 42.318 C 1388.377 29.709 1396.805 33.407 1395.833 47.213 C 1395.712 48.928 1395.699 53.263 1395.804 56.849 L 1395.995 63.367 L 1398.679 68.82 C 1409.882 91.587 1418.151 94.199 1420.382 75.676 C 1421.94 62.735 1420.273 55.789 1412.659 43.494 C 1404.941 31.033 1409.555 23.924 1419.614 32.775 C 1426.461 38.799 1429.89 36.962 1433.761 25.195 C 1437.497 13.835 1440.777 10.3 1444.802 13.293 C 1447.311 15.157 1447.469 18.305 1445.514 27.477 C 1442.575 41.271 1444.785 44.58 1455.121 41.863 C 1464.094 39.503 1467.177 47.423 1459.039 51.929 C 1441.499 61.64 1437.123 65.732 1431.406 77.762 C 1423.763 93.842 1434.785 96.131 1453.017 82.249 C 1458.978 77.711 1459.71 76.836 1465.021 67.907 C 1473.847 53.07 1481.045 52.197 1478.343 66.292 C 1476.68 74.969 1478.801 76.823 1488.621 75.274 C 1503.368 72.948 1505.245 72.977 1507.013 75.555 C 1509.654 79.406 1502.805 84.827 1491.452 87.873 C 1483.294 90.061 1482.012 94.104 1487.572 100.105 C 1491.553 104.402 1492.51 106.804 1491.164 109.127 C 1489.175 112.562 1484.835 111.66 1473.723 105.506 C 1461.049 98.486 1444.084 96.79 1435.6 101.693 C 1425.341 107.62 1450.992 123.89 1468.833 122.773 C 1483.511 121.853 1489.966 125.827 1483.425 131.754 C 1482.881 132.248 1480.487 133.39 1478.107 134.292 C 1469.301 137.631 1469.355 139.82 1478.501 150.428 C 1490.558 164.411 1485.318 172.031 1471.653 160.387 C 1464.437 154.24 1462.697 153.069 1460.009 152.558 C 1456.106 151.815 1453.738 153.892 1453.02 158.687 C 1452.093 164.875 1448.726 167.853 1445.048 165.737 C 1442.549 164.299 1441.451 158.502 1441.992 149.601 C 1443.079 131.697 1426.091 105.885 1419.776 115.845 C 1414.76 123.756 1416.226 143.2 1422.565 152.853 C 1428.406 161.747 1430.164 166.926 1428.445 170.172 C 1426.592 173.671 1424.178 173.288 1418.331 168.566 C 1413.77 164.883 1413.081 164.587 1410.61 165.249 C 1408.442 165.83 1406.686 168.782 1403.712 176.843 C 1396.735 195.758 1388.303 192.687 1392.495 172.758 C 1395.207 159.866 1393.94 157.653 1384.785 159.298 C 1369.427 162.056 1371.141 151.862 1387.286 144.417 C 1396.776 140.041 1407.252 126.967 1409.312 116.924 C 1412.602 100.898 1384.842 113.196 1373.174 132.934 C 1368.043 141.614 1365.122 144.975 1362.866 144.795 C 1359.165 144.5 1358.11 141.642 1359.219 134.913 C 1360.177 129.098 1359.537 126.859 1356.636 125.871 C 1354.486 125.138 1353.018 125.243 1344.242 126.754 C 1333.426 128.616 1328.595 126.842 1330.476 121.698 L 1330.474 121.697 Z " id="path4151" fill="rgb(149,149,255)"/><path d=" M 1352.714 1160.693 C 1352.272 1158.17 1354.059 1155.122 1359.492 1149.133 C 1364.764 1143.321 1365.434 1142.159 1365.562 1138.603 C 1365.669 1135.635 1363.76 1133.974 1358.201 1132.201 C 1352.992 1130.54 1351.643 1129.434 1351.646 1126.829 C 1351.654 1122.663 1354.283 1121.774 1367.235 1121.561 C 1380.948 1121.336 1385.866 1119.885 1395.389 1113.257 C 1407.559 1104.785 1408.346 1101.052 1398.493 1098.525 C 1386.409 1095.426 1374.65 1097.608 1362.252 1105.25 C 1353.539 1110.62 1350.345 1111.38 1347.679 1108.715 C 1345.414 1106.452 1346.174 1103.988 1350.876 1098.348 C 1356.327 1091.81 1354.848 1089.408 1342.675 1085.026 C 1332.107 1081.222 1329.827 1079.662 1329.707 1076.151 C 1329.557 1071.762 1334.229 1070.93 1345.743 1073.297 C 1358.5 1075.919 1362.11 1073.776 1359.942 1064.863 C 1356.836 1052.095 1365.985 1051.087 1372.051 1063.529 C 1372.804 1065.074 1374.962 1068.835 1376.846 1071.888 L 1380.273 1077.437 L 1385.325 1080.819 C 1406.419 1094.937 1414.887 1093.067 1407.551 1075.912 C 1402.425 1063.926 1397.506 1058.744 1384.761 1051.901 C 1371.843 1044.966 1372.281 1036.504 1385.422 1039.143 C 1394.365 1040.939 1396.416 1037.634 1393.88 1025.509 C 1391.433 1013.805 1392.504 1009.105 1397.487 1009.685 C 1400.593 1010.046 1402.304 1012.693 1405.2 1021.613 C 1409.557 1035.028 1413.126 1036.789 1420.717 1029.271 C 1427.308 1022.744 1433.94 1028.062 1429.147 1036.031 C 1418.816 1053.205 1417.072 1058.935 1418.14 1072.211 C 1419.566 1089.955 1430.257 1086.429 1439.101 1065.298 C 1441.992 1058.389 1442.189 1057.266 1442.321 1046.88 C 1442.541 1029.62 1448.338 1025.267 1453.05 1038.824 C 1455.951 1047.17 1458.715 1047.715 1466.445 1041.467 C 1478.052 1032.084 1479.693 1031.171 1482.513 1032.521 C 1486.726 1034.537 1483.507 1042.653 1475.199 1050.964 C 1469.232 1056.938 1470.142 1061.078 1477.959 1063.496 C 1483.557 1065.228 1485.587 1066.83 1485.584 1069.515 C 1485.576 1073.483 1481.37 1074.871 1468.668 1075.094 C 1454.18 1075.347 1438.639 1082.355 1433.744 1090.841 C 1427.826 1101.1 1458.18 1102.373 1473.071 1092.49 C 1485.323 1084.36 1492.901 1084.576 1490.202 1092.977 C 1489.977 1093.676 1488.476 1095.862 1486.866 1097.833 C 1480.91 1105.124 1482.052 1106.993 1495.281 1111.609 C 1512.718 1117.694 1511.992 1126.912 1494.332 1123.656 C 1485.007 1121.937 1482.915 1121.793 1480.331 1122.693 C 1476.58 1124 1475.568 1126.983 1477.345 1131.494 C 1479.638 1137.316 1478.212 1141.578 1473.968 1141.584 C 1471.085 1141.584 1467.234 1137.115 1463.248 1129.136 C 1455.232 1113.088 1427.606 1099.222 1427.12 1111.004 C 1426.734 1120.36 1437.731 1136.467 1448.051 1141.66 C 1457.559 1146.443 1461.672 1150.05 1461.808 1153.72 C 1461.954 1157.676 1459.672 1158.55 1452.245 1157.383 C 1446.453 1156.473 1445.708 1156.561 1443.9 1158.368 C 1442.313 1159.954 1442.268 1163.389 1443.726 1171.855 C 1447.147 1191.723 1438.309 1193.276 1431.969 1173.922 C 1427.867 1161.402 1425.662 1160.12 1418.557 1166.118 C 1406.637 1176.181 1403.021 1166.496 1413.278 1151.982 C 1419.307 1143.45 1421.837 1126.893 1418.598 1117.166 C 1413.428 1101.643 1395.54 1126.165 1395.312 1149.089 C 1395.211 1159.17 1394.363 1163.54 1392.319 1164.511 C 1388.966 1166.105 1386.623 1164.157 1384.216 1157.775 C 1382.137 1152.261 1380.462 1150.641 1377.455 1151.235 C 1375.226 1151.675 1374.007 1152.499 1367.163 1158.193 C 1358.728 1165.21 1353.657 1166.088 1352.712 1160.693 L 1352.714 1160.693 Z " id="path4153" fill="rgb(149,149,255)"/><path d=" M 1363.274 278.44 C 1364.305 276.973 1366.699 276.348 1372.354 276.071 C 1377.843 275.802 1378.75 275.559 1380.574 273.862 C 1382.097 272.446 1381.975 270.679 1380.102 267.052 C 1378.347 263.653 1378.226 262.438 1379.518 261.151 C 1381.584 259.091 1383.327 259.953 1389.843 266.254 C 1396.743 272.926 1399.896 274.641 1407.892 276.07 C 1418.113 277.897 1420.351 276.439 1416.725 270.314 C 1412.279 262.803 1405.378 258.066 1395.456 255.716 C 1388.484 254.064 1386.527 252.86 1386.527 250.223 C 1386.527 247.982 1388.123 247.138 1393.245 246.672 C 1399.18 246.133 1399.638 244.212 1395.783 236.022 C 1392.436 228.911 1392.081 227.012 1393.76 225.215 C 1395.86 222.968 1398.584 224.867 1403.111 231.734 C 1408.127 239.343 1410.975 240.067 1414.316 234.584 C 1419.103 226.727 1424.13 230.754 1420.97 239.913 C 1420.578 241.05 1419.783 243.98 1419.204 246.423 L 1418.151 250.864 L 1418.977 255.037 C 1422.425 272.46 1427.543 275.723 1432.408 263.602 C 1435.808 255.134 1435.94 250.136 1433.021 240.445 C 1430.062 230.621 1434.47 226.65 1439.667 234.456 C 1443.204 239.769 1445.856 239.148 1450.606 231.892 C 1455.192 224.888 1458.05 223.092 1460.229 225.844 C 1461.587 227.559 1461.123 229.716 1458.139 235.563 C 1453.651 244.358 1454.545 246.996 1462.027 247.029 C 1468.522 247.058 1469.171 252.972 1462.851 254.545 C 1449.231 257.935 1445.531 259.909 1439.483 267.008 C 1431.401 276.497 1438.439 280.04 1453.283 273.955 C 1458.136 271.965 1458.789 271.507 1463.998 266.431 C 1472.656 257.997 1477.681 258.71 1473.299 267.751 C 1470.602 273.317 1471.7 274.954 1478.62 275.685 C 1489.013 276.783 1490.277 277.142 1491.005 279.205 C 1492.092 282.287 1486.479 284.712 1478.25 284.716 C 1472.338 284.719 1470.738 287.22 1473.409 292.285 C 1475.322 295.911 1475.533 297.708 1474.202 299.035 C 1472.235 300.997 1469.464 299.602 1463.066 293.429 C 1455.769 286.388 1444.606 282.17 1437.98 283.948 C 1429.97 286.099 1444.364 301.743 1456.63 304.218 C 1466.72 306.254 1470.365 310.11 1464.868 312.934 C 1464.41 313.169 1462.585 313.508 1460.812 313.687 C 1454.253 314.35 1453.892 315.84 1458.154 324.668 C 1463.771 336.306 1458.846 340.509 1451.717 330.162 C 1447.953 324.699 1446.988 323.592 1445.264 322.76 C 1442.76 321.551 1440.781 322.527 1439.427 325.638 C 1437.678 329.655 1434.861 331.059 1432.758 328.962 C 1431.33 327.538 1431.638 323.419 1433.617 317.498 C 1437.598 305.589 1430.792 285.061 1424.716 290.652 C 1419.89 295.092 1417.356 308.505 1419.893 316.18 C 1422.229 323.251 1422.479 327.071 1420.728 328.955 C 1418.841 330.985 1417.279 330.289 1414.181 326.037 C 1411.764 322.722 1411.352 322.397 1409.562 322.397 C 1407.991 322.397 1406.268 324.075 1402.796 328.987 C 1394.649 340.513 1389.505 336.91 1395.952 324.194 C 1400.123 315.968 1399.667 314.243 1393.179 313.697 C 1382.295 312.782 1385.302 306.199 1397.568 304.088 C 1404.778 302.848 1414.231 295.905 1417.446 289.487 C 1422.575 279.246 1401.576 282.535 1390.108 293.769 C 1385.065 298.709 1382.481 300.452 1380.988 299.922 C 1378.539 299.053 1378.344 296.929 1380.314 292.58 C 1382.016 288.822 1381.989 287.192 1380.207 285.998 C 1378.885 285.114 1377.874 284.919 1371.666 284.352 C 1364.015 283.652 1361.071 281.578 1363.275 278.441 L 1363.274 278.44 Z " id="path4171" fill="rgb(149,149,255)"/><path d=" M 1363.274 597.679 C 1364.305 596.211 1366.699 595.587 1372.354 595.31 C 1377.843 595.041 1378.75 594.797 1380.574 593.101 C 1382.097 591.684 1381.975 589.918 1380.102 586.291 C 1378.347 582.892 1378.226 581.677 1379.518 580.389 C 1381.584 578.33 1383.327 579.191 1389.843 585.493 C 1396.743 592.165 1399.896 593.879 1407.892 595.309 C 1418.113 597.136 1420.351 595.677 1416.725 589.553 C 1412.279 582.041 1405.378 577.305 1395.456 574.954 C 1388.484 573.303 1386.527 572.099 1386.527 569.461 C 1386.527 567.22 1388.123 566.376 1393.245 565.911 C 1399.18 565.372 1399.638 563.451 1395.783 555.261 C 1392.436 548.15 1392.081 546.25 1393.76 544.454 C 1395.86 542.206 1398.584 544.106 1403.111 550.973 C 1408.127 558.582 1410.975 559.306 1414.316 553.823 C 1419.103 545.966 1424.13 549.993 1420.97 559.152 C 1420.578 560.289 1419.783 563.218 1419.204 565.661 L 1418.151 570.103 L 1418.977 574.276 C 1422.425 591.698 1427.543 594.961 1432.408 582.841 C 1435.808 574.373 1435.94 569.374 1433.021 559.683 C 1430.062 549.86 1434.47 545.889 1439.667 553.695 C 1443.204 559.008 1445.856 558.386 1450.606 551.131 C 1455.192 544.127 1458.05 542.33 1460.229 545.082 C 1461.587 546.797 1461.123 548.954 1458.139 554.802 C 1453.651 563.597 1454.545 566.234 1462.027 566.268 C 1468.522 566.297 1469.171 572.21 1462.851 573.784 C 1449.231 577.174 1445.531 579.148 1439.483 586.247 C 1431.401 595.735 1438.439 599.279 1453.283 593.194 C 1458.136 591.204 1458.789 590.745 1463.998 585.67 C 1472.656 577.236 1477.681 577.948 1473.299 586.99 C 1470.602 592.556 1471.7 594.193 1478.62 594.924 C 1489.013 596.021 1490.277 596.381 1491.005 598.444 C 1492.092 601.526 1486.479 603.951 1478.25 603.955 C 1472.338 603.957 1470.738 606.459 1473.409 611.523 C 1475.322 615.15 1475.533 616.947 1474.202 618.274 C 1472.235 620.236 1469.464 618.841 1463.066 612.668 C 1455.769 605.627 1444.606 601.408 1437.98 603.187 C 1429.97 605.337 1444.364 620.982 1456.63 623.457 C 1466.72 625.493 1470.365 629.348 1464.868 632.172 C 1464.41 632.407 1462.585 632.746 1460.812 632.926 C 1454.253 633.588 1453.892 635.079 1458.154 643.907 C 1463.771 655.545 1458.846 659.748 1451.717 649.401 C 1447.953 643.937 1446.988 642.831 1445.264 641.999 C 1442.76 640.79 1440.781 641.765 1439.427 644.877 C 1437.678 648.894 1434.861 650.298 1432.758 648.201 C 1431.33 646.776 1431.638 642.657 1433.617 636.737 C 1437.598 624.828 1430.792 604.299 1424.716 609.891 C 1419.89 614.331 1417.356 627.743 1419.893 635.418 C 1422.229 642.49 1422.479 646.31 1420.728 648.194 C 1418.841 650.224 1417.279 649.528 1414.181 645.276 C 1411.764 641.96 1411.352 641.636 1409.562 641.636 C 1407.991 641.636 1406.268 643.314 1402.796 648.226 C 1394.649 659.752 1389.505 656.149 1395.952 643.433 C 1400.123 635.207 1399.667 633.482 1393.179 632.936 C 1382.295 632.02 1385.302 625.438 1397.568 623.327 C 1404.778 622.087 1414.231 615.143 1417.446 608.726 C 1422.575 598.485 1401.576 601.774 1390.108 613.008 C 1385.065 617.947 1382.481 619.691 1380.988 619.161 C 1378.539 618.291 1378.344 616.168 1380.314 611.819 C 1382.016 608.061 1381.989 606.431 1380.207 605.237 C 1378.885 604.352 1377.874 604.157 1371.666 603.59 C 1364.015 602.891 1361.071 600.817 1363.275 597.68 L 1363.274 597.679 Z " id="path4173" fill="rgb(149,149,255)"/><path d=" M 1363.274 757.302 C 1364.305 755.835 1366.699 755.21 1372.354 754.933 C 1377.843 754.664 1378.75 754.421 1380.574 752.724 C 1382.097 751.308 1381.975 749.541 1380.102 745.914 C 1378.347 742.515 1378.226 741.3 1379.518 740.013 C 1381.584 737.953 1383.327 738.815 1389.843 745.116 C 1396.743 751.788 1399.896 753.503 1407.892 754.932 C 1418.113 756.759 1420.351 755.301 1416.725 749.176 C 1412.279 741.665 1405.378 736.928 1395.456 734.578 C 1388.484 732.926 1386.527 731.722 1386.527 729.085 C 1386.527 726.844 1388.123 726 1393.245 725.534 C 1399.18 724.995 1399.638 723.074 1395.783 714.884 C 1392.436 707.773 1392.081 705.874 1393.76 704.077 C 1395.86 701.83 1398.584 703.729 1403.111 710.596 C 1408.127 718.205 1410.975 718.929 1414.316 713.446 C 1419.103 705.589 1424.13 709.616 1420.97 718.775 C 1420.578 719.912 1419.783 722.842 1419.204 725.285 L 1418.151 729.726 L 1418.977 733.899 C 1422.425 751.322 1427.543 754.585 1432.408 742.464 C 1435.808 733.996 1435.94 728.998 1433.021 719.307 C 1430.062 709.483 1434.47 705.512 1439.667 713.318 C 1443.204 718.631 1445.856 718.01 1450.606 710.754 C 1455.192 703.75 1458.05 701.954 1460.229 704.706 C 1461.587 706.421 1461.123 708.578 1458.139 714.425 C 1453.651 723.22 1454.545 725.858 1462.027 725.891 C 1468.522 725.921 1469.171 731.834 1462.851 733.407 C 1449.231 736.798 1445.531 738.771 1439.483 745.87 C 1431.401 755.359 1438.439 758.902 1453.283 752.817 C 1458.136 750.827 1458.789 750.369 1463.998 745.293 C 1472.656 736.859 1477.681 737.572 1473.299 746.613 C 1470.602 752.179 1471.7 753.816 1478.62 754.547 C 1489.013 755.645 1490.277 756.004 1491.005 758.067 C 1492.092 761.149 1486.479 763.574 1478.25 763.578 C 1472.338 763.581 1470.738 766.083 1473.409 771.147 C 1475.322 774.773 1475.533 776.57 1474.202 777.897 C 1472.235 779.859 1469.464 778.464 1463.066 772.291 C 1455.769 765.25 1444.606 761.032 1437.98 762.81 C 1429.97 764.961 1444.364 780.605 1456.63 783.081 C 1466.72 785.116 1470.365 788.972 1464.868 791.796 C 1464.41 792.031 1462.585 792.37 1460.812 792.549 C 1454.253 793.212 1453.892 794.702 1458.154 803.53 C 1463.771 815.168 1458.846 819.371 1451.717 809.024 C 1447.953 803.561 1446.988 802.454 1445.264 801.622 C 1442.76 800.413 1440.781 801.389 1439.427 804.5 C 1437.678 808.517 1434.861 809.921 1432.758 807.824 C 1431.33 806.4 1431.638 802.281 1433.617 796.36 C 1437.598 784.451 1430.792 763.923 1424.716 769.514 C 1419.89 773.954 1417.356 787.367 1419.893 795.042 C 1422.229 802.113 1422.479 805.933 1420.728 807.817 C 1418.841 809.847 1417.279 809.151 1414.181 804.899 C 1411.764 801.584 1411.352 801.259 1409.562 801.259 C 1407.991 801.259 1406.268 802.937 1402.796 807.849 C 1394.649 819.375 1389.505 815.772 1395.952 803.056 C 1400.123 794.83 1399.667 793.105 1393.179 792.559 C 1382.295 791.644 1385.302 785.061 1397.568 782.951 C 1404.778 781.71 1414.231 774.767 1417.446 768.349 C 1422.575 758.108 1401.576 761.397 1390.108 772.631 C 1385.065 777.571 1382.481 779.314 1380.988 778.784 C 1378.539 777.915 1378.344 775.791 1380.314 771.442 C 1382.016 767.684 1381.989 766.054 1380.207 764.86 C 1378.885 763.976 1377.874 763.781 1371.666 763.214 C 1364.015 762.514 1361.071 760.44 1363.275 757.303 L 1363.274 757.302 Z " id="path4175" fill="rgb(149,149,255)"/><path d=" M 1363.274 916.934 C 1364.305 915.466 1366.699 914.842 1372.354 914.565 C 1377.843 914.296 1378.75 914.052 1380.574 912.355 C 1382.097 910.939 1381.975 909.173 1380.102 905.546 C 1378.347 902.147 1378.226 900.931 1379.518 899.644 C 1381.584 897.584 1383.327 898.446 1389.843 904.748 C 1396.743 911.42 1399.896 913.134 1407.892 914.564 C 1418.113 916.39 1420.351 914.932 1416.725 908.808 C 1412.279 901.296 1405.378 896.56 1395.456 894.209 C 1388.484 892.558 1386.527 891.354 1386.527 888.716 C 1386.527 886.475 1388.123 885.631 1393.245 885.166 C 1399.18 884.626 1399.638 882.706 1395.783 874.515 C 1392.436 867.405 1392.081 865.505 1393.76 863.708 C 1395.86 861.461 1398.584 863.361 1403.111 870.228 C 1408.127 877.836 1410.975 878.561 1414.316 873.077 C 1419.103 865.221 1424.13 869.248 1420.97 878.407 C 1420.578 879.544 1419.783 882.473 1419.204 884.916 L 1418.151 889.358 L 1418.977 893.531 C 1422.425 910.953 1427.543 914.217 1432.408 902.095 C 1435.808 893.627 1435.94 888.629 1433.021 878.938 C 1430.062 869.115 1434.47 865.144 1439.667 872.95 C 1443.204 878.263 1445.856 877.641 1450.606 870.386 C 1455.192 863.382 1458.05 861.585 1460.229 864.337 C 1461.587 866.052 1461.123 868.209 1458.139 874.056 C 1453.651 882.851 1454.545 885.489 1462.027 885.523 C 1468.522 885.551 1469.171 891.465 1462.851 893.038 C 1449.231 896.429 1445.531 898.403 1439.483 905.501 C 1431.401 914.99 1438.439 918.533 1453.283 912.448 C 1458.136 910.459 1458.789 910 1463.998 904.925 C 1472.656 896.49 1477.681 897.203 1473.299 906.244 C 1470.602 911.81 1471.7 913.448 1478.62 914.178 C 1489.013 915.276 1490.277 915.635 1491.005 917.699 C 1492.092 920.78 1486.479 923.206 1478.25 923.209 C 1472.338 923.209 1470.738 925.714 1473.409 930.778 C 1475.322 934.404 1475.533 936.202 1474.202 937.529 C 1472.235 939.491 1469.464 938.096 1463.066 931.922 C 1455.769 924.882 1444.606 920.663 1437.98 922.441 C 1429.97 924.592 1444.364 940.237 1456.63 942.712 C 1466.72 944.748 1470.365 948.603 1464.868 951.427 C 1464.41 951.662 1462.585 952.001 1460.812 952.18 C 1454.253 952.843 1453.892 954.333 1458.154 963.162 C 1463.771 974.798 1458.846 979.002 1451.717 968.655 C 1447.953 963.192 1446.988 962.085 1445.264 961.253 C 1442.76 960.044 1440.781 961.02 1439.427 964.132 C 1437.678 968.148 1434.861 969.552 1432.758 967.455 C 1431.33 966.031 1431.638 961.912 1433.617 955.991 C 1437.598 944.083 1430.792 923.554 1424.716 929.145 C 1419.89 933.586 1417.356 946.998 1419.893 954.673 C 1422.229 961.744 1422.479 965.564 1420.728 967.448 C 1418.841 969.478 1417.279 968.782 1414.181 964.531 C 1411.764 961.215 1411.352 960.89 1409.562 960.89 C 1407.991 960.89 1406.268 962.568 1402.796 967.48 C 1394.649 979.006 1389.505 975.403 1395.952 962.687 C 1400.123 954.462 1399.667 952.736 1393.179 952.19 C 1382.295 951.275 1385.302 944.692 1397.568 942.582 C 1404.778 941.341 1414.231 934.398 1417.446 927.98 C 1422.575 917.739 1401.576 921.029 1390.108 932.262 C 1385.065 937.202 1382.481 938.945 1380.988 938.415 C 1378.539 937.546 1378.344 935.423 1380.314 931.073 C 1382.016 927.315 1381.989 925.685 1380.207 924.492 C 1378.885 923.607 1377.874 923.412 1371.666 922.845 C 1364.015 922.146 1361.071 920.071 1363.275 916.934 L 1363.274 916.934 Z " id="path4177" fill="rgb(149,149,255)"/><path d=" M 1175.595 90.868 C 1176.626 89.4 1179.02 88.775 1184.675 88.498 C 1190.163 88.229 1191.07 87.986 1192.895 86.289 C 1194.418 84.873 1194.296 83.107 1192.423 79.479 C 1190.667 76.08 1190.547 74.865 1191.839 73.578 C 1193.904 71.518 1195.648 72.38 1202.164 78.681 C 1209.063 85.353 1212.217 87.068 1220.213 88.497 C 1230.434 90.324 1232.671 88.866 1229.046 82.741 C 1224.6 75.23 1217.699 70.493 1207.777 68.143 C 1200.804 66.491 1198.847 65.287 1198.847 62.65 C 1198.847 60.409 1200.444 59.565 1205.565 59.099 C 1211.501 58.56 1211.959 56.639 1208.104 48.449 C 1204.757 41.339 1204.402 39.439 1206.081 37.642 C 1208.181 35.395 1210.905 37.294 1215.432 44.162 C 1220.447 51.77 1223.296 52.494 1226.637 47.011 C 1231.423 39.155 1236.451 43.181 1233.291 52.34 C 1232.899 53.477 1232.104 56.407 1231.525 58.85 L 1230.472 63.291 L 1231.298 67.464 C 1234.746 84.887 1239.864 88.15 1244.729 76.029 C 1248.129 67.561 1248.261 62.563 1245.341 52.872 C 1242.382 43.048 1246.791 39.077 1251.988 46.883 C 1255.525 52.196 1258.177 51.575 1262.927 44.319 C 1267.513 37.315 1270.371 35.519 1272.55 38.271 C 1273.908 39.986 1273.444 42.143 1270.46 47.99 C 1265.972 56.785 1266.866 59.423 1274.348 59.456 C 1280.843 59.486 1281.491 65.399 1275.172 66.972 C 1261.552 70.363 1257.851 72.336 1251.804 79.435 C 1243.722 88.924 1250.759 92.467 1265.603 86.382 C 1270.456 84.393 1271.11 83.934 1276.319 78.858 C 1284.977 70.424 1290.002 71.137 1285.62 80.178 C 1282.922 85.744 1284.02 87.381 1290.941 88.112 C 1301.334 89.21 1302.598 89.569 1303.326 91.632 C 1304.413 94.714 1298.8 97.139 1290.571 97.143 C 1284.659 97.146 1283.059 99.648 1285.73 104.712 C 1287.643 108.338 1287.854 110.135 1286.523 111.462 C 1284.555 113.424 1281.784 112.029 1275.386 105.856 C 1268.09 98.815 1256.927 94.596 1250.301 96.375 C 1242.291 98.526 1256.684 114.17 1268.951 116.646 C 1279.041 118.681 1282.686 122.537 1277.189 125.361 C 1276.731 125.596 1274.906 125.935 1273.133 126.114 C 1266.574 126.777 1266.213 128.267 1270.474 137.095 C 1276.091 148.733 1271.167 152.936 1264.038 142.589 C 1260.274 137.126 1259.309 136.019 1257.585 135.187 C 1255.08 133.978 1253.102 134.954 1251.747 138.065 C 1249.999 142.082 1247.182 143.486 1245.079 141.389 C 1243.65 139.965 1243.959 135.846 1245.938 129.926 C 1249.919 118.017 1243.112 97.489 1237.036 103.08 C 1232.211 107.52 1229.677 120.932 1232.213 128.608 C 1234.55 135.679 1234.8 139.499 1233.049 141.383 C 1231.162 143.413 1229.599 142.717 1226.501 138.465 C 1224.085 135.15 1223.673 134.825 1221.882 134.825 C 1220.311 134.825 1218.589 136.503 1215.117 141.415 C 1206.969 152.94 1201.825 149.338 1208.273 136.622 C 1212.444 128.396 1211.988 126.671 1205.5 126.125 C 1194.616 125.209 1197.623 118.627 1209.889 116.516 C 1217.099 115.276 1226.552 108.332 1229.766 101.915 C 1234.896 91.674 1213.897 94.963 1202.429 106.197 C 1197.386 111.137 1194.802 112.88 1193.309 112.35 C 1190.86 111.48 1190.665 109.357 1192.634 105.008 C 1194.336 101.25 1194.31 99.62 1192.527 98.426 C 1191.206 97.542 1190.194 97.346 1183.987 96.779 C 1176.336 96.08 1173.391 94.006 1175.595 90.869 L 1175.595 90.868 Z " id="path4181" fill="rgb(149,149,255)"/><path d=" M 1015.868 90.868 C 1016.899 89.4 1019.292 88.775 1024.948 88.498 C 1030.436 88.229 1031.343 87.986 1033.168 86.289 C 1034.691 84.873 1034.568 83.107 1032.695 79.479 C 1030.94 76.08 1030.82 74.865 1032.111 73.578 C 1034.177 71.518 1035.92 72.38 1042.437 78.681 C 1049.336 85.353 1052.49 87.068 1060.486 88.497 C 1070.706 90.324 1072.944 88.866 1069.318 82.741 C 1064.872 75.23 1057.971 70.493 1048.05 68.143 C 1041.077 66.491 1039.12 65.287 1039.12 62.65 C 1039.12 60.409 1040.717 59.565 1045.838 59.099 C 1051.774 58.56 1052.232 56.639 1048.377 48.449 C 1045.03 41.339 1044.674 39.439 1046.353 37.642 C 1048.453 35.395 1051.177 37.294 1055.705 44.162 C 1060.72 51.77 1063.569 52.494 1066.91 47.011 C 1071.697 39.155 1076.725 43.181 1073.565 52.34 C 1073.172 53.477 1072.377 56.407 1071.798 58.85 L 1070.746 63.291 L 1071.572 67.464 C 1075.019 84.887 1080.137 88.15 1085.003 76.029 C 1088.402 67.561 1088.534 62.563 1085.615 52.872 C 1082.656 43.048 1087.064 39.077 1092.261 46.883 C 1095.798 52.196 1098.451 51.575 1103.2 44.319 C 1107.786 37.315 1110.644 35.519 1112.824 38.271 C 1114.182 39.986 1113.718 42.143 1110.734 47.99 C 1106.245 56.785 1107.14 59.423 1114.621 59.456 C 1121.116 59.486 1121.765 65.399 1115.446 66.972 C 1101.826 70.363 1098.125 72.336 1092.078 79.435 C 1083.995 88.924 1091.033 92.467 1105.877 86.382 C 1110.73 84.393 1111.383 83.934 1116.593 78.858 C 1125.25 70.424 1130.275 71.137 1125.893 80.178 C 1123.196 85.744 1124.294 87.381 1131.215 88.112 C 1141.607 89.21 1142.871 89.569 1143.599 91.632 C 1144.687 94.714 1139.073 97.139 1130.844 97.143 C 1124.932 97.146 1123.332 99.648 1126.004 104.712 C 1127.917 108.338 1128.128 110.135 1126.797 111.462 C 1124.829 113.424 1122.058 112.029 1115.66 105.856 C 1108.364 98.815 1097.2 94.596 1090.574 96.375 C 1082.564 98.526 1096.958 114.17 1109.224 116.646 C 1119.314 118.681 1122.959 122.537 1117.462 125.361 C 1117.005 125.596 1115.179 125.935 1113.406 126.114 C 1106.847 126.777 1106.486 128.267 1110.748 137.095 C 1116.365 148.733 1111.44 152.936 1104.312 142.589 C 1100.547 137.126 1099.583 136.019 1097.858 135.187 C 1095.354 133.978 1093.376 134.954 1092.021 138.065 C 1090.272 142.082 1087.456 143.486 1085.353 141.389 C 1083.924 139.965 1084.233 135.846 1086.212 129.926 C 1090.192 118.017 1083.386 97.489 1077.31 103.08 C 1072.485 107.52 1069.951 120.932 1072.487 128.608 C 1074.824 135.679 1075.074 139.499 1073.322 141.383 C 1071.435 143.413 1069.873 142.717 1066.775 138.465 C 1064.359 135.15 1063.947 134.825 1062.156 134.825 C 1060.585 134.825 1058.862 136.503 1055.39 141.415 C 1047.243 152.94 1042.099 149.338 1048.547 136.622 C 1052.717 128.396 1052.262 126.671 1045.773 126.125 C 1034.889 125.209 1037.896 118.627 1050.162 116.516 C 1057.372 115.276 1066.825 108.332 1070.04 101.915 C 1075.17 91.674 1054.17 94.963 1042.702 106.197 C 1037.66 111.137 1035.075 112.88 1033.582 112.35 C 1031.133 111.48 1030.938 109.357 1032.908 105.008 C 1034.61 101.25 1034.583 99.62 1032.801 98.426 C 1031.48 97.542 1030.468 97.346 1024.261 96.779 C 1016.61 96.08 1013.665 94.006 1015.87 90.869 L 1015.868 90.868 Z " id="path4183" fill="rgb(149,149,255)"/><path d=" M 856.14 90.868 C 857.171 89.4 859.565 88.775 865.22 88.498 C 870.709 88.229 871.616 87.986 873.44 86.289 C 874.964 84.873 874.841 83.107 872.968 79.479 C 871.213 76.08 871.092 74.865 872.384 73.578 C 874.45 71.518 876.193 72.38 882.71 78.681 C 889.609 85.353 892.762 87.068 900.758 88.497 C 910.978 90.324 913.217 88.866 909.591 82.741 C 905.145 75.23 898.244 70.493 888.322 68.143 C 881.35 66.491 879.393 65.287 879.393 62.65 C 879.393 60.409 880.989 59.565 886.111 59.099 C 892.047 58.56 892.504 56.639 888.649 48.449 C 885.302 41.339 884.947 39.439 886.626 37.642 C 888.726 35.395 891.45 37.294 895.977 44.162 C 900.993 51.77 903.841 52.494 907.183 47.011 C 911.97 39.155 916.998 43.181 913.837 52.34 C 913.445 53.477 912.65 56.407 912.071 58.85 L 911.018 63.291 L 911.844 67.464 C 915.292 84.887 920.41 88.15 925.275 76.029 C 928.675 67.561 928.807 62.563 925.887 52.872 C 922.929 43.048 927.337 39.077 932.534 46.883 C 936.071 52.196 938.723 51.575 943.473 44.319 C 948.059 37.315 950.917 35.519 953.096 38.271 C 954.454 39.986 953.99 42.143 951.006 47.99 C 946.518 56.785 947.412 59.423 954.894 59.456 C 961.389 59.486 962.038 65.399 955.718 66.972 C 942.098 70.363 938.397 72.336 932.35 79.435 C 924.268 88.924 931.306 92.467 946.149 86.382 C 951.002 84.393 951.656 83.934 956.865 78.858 C 965.523 70.424 970.548 71.137 966.166 80.178 C 963.468 85.744 964.566 87.381 971.487 88.112 C 981.88 89.21 983.144 89.569 983.872 91.632 C 984.959 94.714 979.346 97.139 971.117 97.143 C 965.204 97.146 963.605 99.648 966.276 104.712 C 968.189 108.338 968.4 110.135 967.069 111.462 C 965.101 113.424 962.33 112.029 955.932 105.856 C 948.636 98.815 937.472 94.596 930.847 96.375 C 922.837 98.526 937.23 114.17 949.496 116.646 C 959.587 118.681 963.232 122.537 957.735 125.361 C 957.277 125.596 955.452 125.935 953.678 126.114 C 947.12 126.777 946.759 128.267 951.02 137.095 C 956.637 148.733 951.713 152.936 944.584 142.589 C 940.82 137.126 939.855 136.019 938.131 135.187 C 935.626 133.978 933.648 134.954 932.293 138.065 C 930.545 142.082 927.728 143.486 925.625 141.389 C 924.196 139.965 924.505 135.846 926.484 129.926 C 930.465 118.017 923.658 97.489 917.582 103.08 C 912.757 107.52 910.223 120.932 912.759 128.608 C 915.096 135.679 915.346 139.499 913.595 141.383 C 911.708 143.413 910.145 142.717 907.047 138.465 C 904.631 135.15 904.219 134.825 902.428 134.825 C 900.857 134.825 899.134 136.503 895.662 141.415 C 887.515 152.94 882.371 149.338 888.819 136.622 C 892.99 128.396 892.534 126.671 886.046 126.125 C 875.162 125.209 878.169 118.627 890.435 116.516 C 897.645 115.276 907.098 108.332 910.312 101.915 C 915.442 91.674 894.443 94.963 882.975 106.197 C 877.932 111.137 875.348 112.88 873.855 112.35 C 871.406 111.48 871.211 109.357 873.18 105.008 C 874.882 101.25 874.856 99.62 873.073 98.426 C 871.752 97.542 870.74 97.346 864.533 96.779 C 856.882 96.08 853.937 94.006 856.142 90.869 L 856.14 90.868 Z " id="path4185" fill="rgb(149,149,255)"/><path d=" M 696.421 90.868 C 697.452 89.4 699.846 88.775 705.501 88.498 C 710.989 88.229 711.896 87.986 713.721 86.289 C 715.244 84.873 715.122 83.107 713.249 79.479 C 711.493 76.08 711.373 74.865 712.665 73.578 C 714.73 71.518 716.474 72.38 722.99 78.681 C 729.889 85.353 733.043 87.068 741.039 88.497 C 751.259 90.324 753.497 88.866 749.872 82.741 C 745.426 75.23 738.525 70.493 728.603 68.143 C 721.631 66.491 719.673 65.287 719.673 62.65 C 719.673 60.409 721.27 59.565 726.391 59.099 C 732.327 58.56 732.785 56.639 728.93 48.449 C 725.583 41.339 725.228 39.439 726.907 37.642 C 729.006 35.395 731.731 37.294 736.258 44.162 C 741.273 51.77 744.122 52.494 747.464 47.011 C 752.25 39.155 757.279 43.181 754.118 52.34 C 753.725 53.477 752.931 56.407 752.352 58.85 L 751.299 63.291 L 752.125 67.464 C 755.572 84.887 760.69 88.15 765.556 76.029 C 768.955 67.561 769.087 62.563 766.168 52.872 C 763.209 43.048 767.617 39.077 772.815 46.883 C 776.352 52.196 779.004 51.575 783.754 44.319 C 788.339 37.315 791.198 35.519 793.377 38.271 C 794.735 39.986 794.271 42.143 791.287 47.99 C 786.799 56.785 787.693 59.423 795.174 59.456 C 801.67 59.486 802.318 65.399 795.999 66.972 C 782.379 70.363 778.678 72.336 772.631 79.435 C 764.548 88.924 771.586 92.467 786.43 86.382 C 791.283 84.393 791.936 83.934 797.146 78.858 C 805.804 70.424 810.828 71.137 806.447 80.178 C 803.749 85.744 804.847 87.381 811.768 88.112 C 822.161 89.21 823.425 89.569 824.153 91.632 C 825.24 94.714 819.626 97.139 811.397 97.143 C 805.485 97.146 803.885 99.648 806.557 104.712 C 808.47 108.338 808.681 110.135 807.35 111.462 C 805.382 113.424 802.611 112.029 796.213 105.856 C 788.917 98.815 777.753 94.596 771.128 96.375 C 763.117 98.526 777.511 114.17 789.777 116.646 C 799.867 118.681 803.512 122.537 798.015 125.361 C 797.558 125.596 795.733 125.935 793.959 126.114 C 787.4 126.777 787.039 128.267 791.301 137.095 C 796.918 148.733 791.993 152.936 784.865 142.589 C 781.1 137.126 780.136 136.019 778.411 135.187 C 775.907 133.978 773.929 134.954 772.574 138.065 C 770.825 142.082 768.009 143.486 765.906 141.389 C 764.477 139.965 764.786 135.846 766.765 129.926 C 770.745 118.017 763.939 97.489 757.863 103.08 C 753.038 107.52 750.504 120.932 753.04 128.608 C 755.377 135.679 755.627 139.499 753.875 141.383 C 751.988 143.413 750.426 142.717 747.328 138.465 C 744.912 135.15 744.5 134.825 742.709 134.825 C 741.138 134.825 739.415 136.503 735.943 141.415 C 727.796 152.94 722.652 149.338 729.1 136.622 C 733.27 128.396 732.815 126.671 726.326 126.125 C 715.442 125.209 718.449 118.627 730.715 116.516 C 737.925 115.276 747.378 108.332 750.593 101.915 C 755.723 91.674 734.723 94.963 723.255 106.197 C 718.213 111.137 715.628 112.88 714.135 112.35 C 711.686 111.48 711.491 109.357 713.461 105.008 C 715.163 101.25 715.136 99.62 713.354 98.426 C 712.033 97.542 711.021 97.346 704.814 96.779 C 697.163 96.08 694.218 94.006 696.423 90.869 L 696.421 90.868 Z " id="path4187" fill="rgb(149,149,255)"/><path d=" M 536.694 90.868 C 537.725 89.4 540.118 88.775 545.774 88.498 C 551.262 88.229 552.169 87.986 553.994 86.289 C 555.517 84.873 555.394 83.107 553.521 79.479 C 551.766 76.08 551.646 74.865 552.937 73.578 C 555.003 71.518 556.746 72.38 563.263 78.681 C 570.162 85.353 573.316 87.068 581.312 88.497 C 591.532 90.324 593.77 88.866 590.144 82.741 C 585.698 75.23 578.797 70.493 568.876 68.143 C 561.903 66.491 559.946 65.287 559.946 62.65 C 559.946 60.409 561.543 59.565 566.664 59.099 C 572.6 58.56 573.058 56.639 569.203 48.449 C 565.856 41.339 565.5 39.439 567.179 37.642 C 569.279 35.395 572.003 37.294 576.531 44.162 C 581.546 51.77 584.395 52.494 587.736 47.011 C 592.523 39.155 597.551 43.181 594.39 52.34 C 593.998 53.477 593.203 56.407 592.624 58.85 L 591.572 63.291 L 592.397 67.464 C 595.845 84.887 600.963 88.15 605.829 76.029 C 609.228 67.561 609.36 62.563 606.441 52.872 C 603.482 43.048 607.89 39.077 613.087 46.883 C 616.624 52.196 619.276 51.575 624.026 44.319 C 628.612 37.315 631.47 35.519 633.65 38.271 C 635.007 39.986 634.544 42.143 631.56 47.99 C 627.071 56.785 627.966 59.423 635.447 59.456 C 641.942 59.486 642.591 65.399 636.271 66.972 C 622.651 70.363 618.951 72.336 612.904 79.435 C 604.821 88.924 611.859 92.467 626.703 86.382 C 631.556 84.393 632.209 83.934 637.419 78.858 C 646.076 70.424 651.101 71.137 646.719 80.178 C 644.022 85.744 645.12 87.381 652.04 88.112 C 662.433 89.21 663.697 89.569 664.425 91.632 C 665.512 94.714 659.899 97.139 651.67 97.143 C 645.758 97.146 644.158 99.648 646.829 104.712 C 648.742 108.338 648.953 110.135 647.622 111.462 C 645.655 113.424 642.884 112.029 636.486 105.856 C 629.189 98.815 618.026 94.596 611.4 96.375 C 603.39 98.526 617.784 114.17 630.05 116.646 C 640.14 118.681 643.785 122.537 638.288 125.361 C 637.831 125.596 636.005 125.935 634.232 126.114 C 627.673 126.777 627.312 128.267 631.574 137.095 C 637.191 148.733 632.266 152.936 625.137 142.589 C 621.373 137.126 620.408 136.019 618.684 135.187 C 616.179 133.978 614.201 134.954 612.847 138.065 C 611.098 142.082 608.281 143.486 606.178 141.389 C 604.75 139.965 605.058 135.846 607.037 129.926 C 611.018 118.017 604.212 97.489 598.136 103.08 C 593.31 107.52 590.776 120.932 593.313 128.608 C 595.649 135.679 595.899 139.499 594.148 141.383 C 592.261 143.413 590.699 142.717 587.6 138.465 C 585.184 135.15 584.772 134.825 582.982 134.825 C 581.411 134.825 579.688 136.503 576.216 141.415 C 568.069 152.94 562.925 149.338 569.372 136.622 C 573.543 128.396 573.087 126.671 566.599 126.125 C 555.715 125.209 558.722 118.627 570.988 116.516 C 578.198 115.276 587.651 108.332 590.866 101.915 C 595.995 91.674 574.996 94.963 563.528 106.197 C 558.485 111.137 555.901 112.88 554.408 112.35 C 551.959 111.48 551.764 109.357 553.734 105.008 C 555.435 101.25 555.409 99.62 553.626 98.426 C 552.305 97.542 551.293 97.346 545.086 96.779 C 537.436 96.08 534.491 94.006 536.695 90.869 L 536.694 90.868 Z " id="path4189" fill="rgb(149,149,255)"/><path d=" M 376.971 90.868 C 378.002 89.4 380.396 88.775 386.051 88.498 C 391.539 88.229 392.446 87.986 394.271 86.289 C 395.794 84.873 395.672 83.107 393.799 79.479 C 392.044 76.08 391.923 74.865 393.215 73.578 C 395.28 71.518 397.024 72.38 403.54 78.681 C 410.44 85.353 413.593 87.068 421.589 88.497 C 431.809 90.324 434.047 88.866 430.422 82.741 C 425.976 75.23 419.075 70.493 409.153 68.143 C 402.181 66.491 400.224 65.287 400.224 62.65 C 400.224 60.409 401.82 59.565 406.941 59.099 C 412.877 58.56 413.335 56.639 409.48 48.449 C 406.133 41.339 405.778 39.439 407.457 37.642 C 409.557 35.395 412.281 37.294 416.808 44.162 C 421.824 51.77 424.672 52.494 428.014 47.011 C 432.8 39.155 437.829 43.181 434.668 52.34 C 434.276 53.477 433.481 56.407 432.902 58.85 L 431.849 63.291 L 432.675 67.464 C 436.123 84.887 441.24 88.15 446.106 76.029 C 449.505 67.561 449.638 62.563 446.718 52.872 C 443.759 43.048 448.167 39.077 453.365 46.883 C 456.902 52.196 459.554 51.575 464.304 44.319 C 468.889 37.315 471.748 35.519 473.927 38.271 C 475.285 39.986 474.821 42.143 471.837 47.99 C 467.349 56.785 468.243 59.423 475.724 59.456 C 482.22 59.486 482.868 65.399 476.549 66.972 C 462.929 70.363 459.228 72.336 453.181 79.435 C 445.099 88.924 452.136 92.467 466.98 86.382 C 471.833 84.393 472.486 83.934 477.696 78.858 C 486.354 70.424 491.378 71.137 486.997 80.178 C 484.299 85.744 485.397 87.381 492.318 88.112 C 502.711 89.21 503.975 89.569 504.703 91.632 C 505.79 94.714 500.177 97.139 491.948 97.143 C 486.035 97.146 484.435 99.648 487.107 104.712 C 489.02 108.338 489.231 110.135 487.9 111.462 C 485.932 113.424 483.161 112.029 476.763 105.856 C 469.467 98.815 458.303 94.596 451.678 96.375 C 443.667 98.526 458.061 114.17 470.327 116.646 C 480.418 118.681 484.062 122.537 478.566 125.361 C 478.108 125.596 476.283 125.935 474.509 126.114 C 467.95 126.777 467.59 128.267 471.851 137.095 C 477.468 148.733 472.544 152.936 465.415 142.589 C 461.651 137.126 460.686 136.019 458.961 135.187 C 456.457 133.978 454.479 134.954 453.124 138.065 C 451.376 142.082 448.559 143.486 446.456 141.389 C 445.027 139.965 445.336 135.846 447.315 129.926 C 451.296 118.017 444.489 97.489 438.413 103.08 C 433.588 107.52 431.054 120.932 433.59 128.608 C 435.927 135.679 436.177 139.499 434.426 141.383 C 432.538 143.413 430.976 142.717 427.878 138.465 C 425.462 135.15 425.05 134.825 423.259 134.825 C 421.688 134.825 419.965 136.503 416.493 141.415 C 408.346 152.94 403.202 149.338 409.65 136.622 C 413.82 128.396 413.365 126.671 406.877 126.125 C 395.993 125.209 398.999 118.627 411.265 116.516 C 418.476 115.276 427.929 108.332 431.143 101.915 C 436.273 91.674 415.273 94.963 403.805 106.197 C 398.763 111.137 396.179 112.88 394.686 112.35 C 392.236 111.48 392.041 109.357 394.011 105.008 C 395.713 101.25 395.686 99.62 393.904 98.426 C 392.583 97.542 391.571 97.346 385.364 96.779 C 377.713 96.08 374.768 94.006 376.973 90.869 L 376.971 90.868 Z " id="path4191" fill="rgb(149,149,255)"/><path d=" M 217.247 90.868 C 218.278 89.4 220.672 88.775 226.327 88.498 C 231.815 88.229 232.722 87.986 234.547 86.289 C 236.07 84.873 235.948 83.107 234.075 79.479 C 232.319 76.08 232.199 74.865 233.491 73.578 C 235.556 71.518 237.3 72.38 243.816 78.681 C 250.715 85.353 253.869 87.068 261.865 88.497 C 272.085 90.324 274.323 88.866 270.698 82.741 C 266.252 75.23 259.351 70.493 249.429 68.143 C 242.456 66.491 240.499 65.287 240.499 62.65 C 240.499 60.409 242.096 59.565 247.217 59.099 C 253.153 58.56 253.611 56.639 249.756 48.449 C 246.409 41.339 246.054 39.439 247.733 37.642 C 249.832 35.395 252.557 37.294 257.084 44.162 C 262.099 51.77 264.948 52.494 268.29 47.011 C 273.076 39.155 278.105 43.181 274.944 52.34 C 274.551 53.477 273.757 56.407 273.178 58.85 L 272.125 63.291 L 272.951 67.464 C 276.398 84.885 281.516 88.148 286.382 76.028 C 289.781 67.56 289.913 62.561 286.994 52.87 C 284.036 43.047 288.444 39.076 293.64 46.882 C 297.178 52.195 299.83 51.573 304.579 44.318 C 309.166 37.314 312.024 35.517 314.203 38.269 C 315.561 39.984 315.098 42.141 312.114 47.988 C 307.625 56.784 308.519 59.421 316.001 59.455 C 322.496 59.484 323.145 65.397 316.825 66.97 C 303.205 70.362 299.505 72.335 293.457 79.434 C 285.375 88.923 292.413 92.466 307.257 86.381 C 312.11 84.392 312.763 83.933 317.973 78.858 C 326.63 70.423 331.656 71.136 327.273 80.178 C 324.576 85.744 325.674 87.381 332.594 88.112 C 342.987 89.209 344.251 89.568 344.979 91.632 C 346.066 94.714 340.453 97.139 332.224 97.143 C 326.312 97.145 324.712 99.647 327.383 104.711 C 329.296 108.337 329.507 110.135 328.176 111.462 C 326.209 113.424 323.438 112.029 317.04 105.855 C 309.744 98.814 298.58 94.595 291.954 96.374 C 283.944 98.524 298.337 114.167 310.604 116.647 C 320.694 118.683 324.339 122.538 318.842 125.363 C 318.384 125.598 316.559 125.937 314.786 126.116 C 308.227 126.779 307.866 128.269 312.127 137.097 C 317.745 148.735 312.82 152.938 305.691 142.591 C 301.927 137.128 300.962 136.021 299.238 135.189 C 296.733 133.98 294.755 134.955 293.401 138.067 C 291.652 142.084 288.835 143.488 286.732 141.391 C 285.304 139.967 285.612 135.848 287.591 129.928 C 291.572 118.019 284.766 97.49 278.69 103.082 C 273.864 107.522 271.33 120.934 273.867 128.609 C 276.203 135.681 276.453 139.501 274.702 141.385 C 272.815 143.415 271.252 142.719 268.154 138.467 C 265.738 135.151 265.326 134.827 263.536 134.827 C 261.965 134.827 260.242 136.505 256.77 141.417 C 248.623 152.942 243.479 149.34 249.926 136.624 C 254.097 128.398 253.641 126.673 247.153 126.127 C 236.269 125.211 239.276 118.629 251.542 116.518 C 258.752 115.278 268.205 108.334 271.419 101.917 C 276.549 91.676 255.55 94.965 244.082 106.199 C 239.039 111.138 236.455 112.882 234.962 112.352 C 232.513 111.482 232.318 109.359 234.288 105.01 C 235.989 101.252 235.963 99.622 234.18 98.428 C 232.859 97.543 231.847 97.348 225.64 96.781 C 217.99 96.082 215.045 94.008 217.249 90.871 L 217.247 90.868 Z " id="path4193" fill="rgb(149,149,255)"/><path d=" M 1175.595 1104.533 C 1176.626 1103.065 1179.02 1102.441 1184.675 1102.164 C 1190.163 1101.895 1191.07 1101.651 1192.895 1099.955 C 1194.418 1098.538 1194.296 1096.772 1192.423 1093.145 C 1190.667 1089.746 1190.547 1088.531 1191.839 1087.243 C 1193.904 1085.184 1195.648 1086.045 1202.164 1092.347 C 1209.063 1099.019 1212.217 1100.733 1220.213 1102.163 C 1230.434 1103.99 1232.671 1102.531 1229.046 1096.407 C 1224.6 1088.895 1217.699 1084.159 1207.777 1081.808 C 1200.804 1080.157 1198.847 1078.953 1198.847 1076.315 C 1198.847 1074.074 1200.444 1073.23 1205.565 1072.765 C 1211.501 1072.226 1211.959 1070.305 1208.104 1062.114 C 1204.757 1055.003 1204.402 1053.103 1206.081 1051.307 C 1208.181 1049.06 1210.905 1050.959 1215.432 1057.826 C 1220.447 1065.435 1223.296 1066.159 1226.637 1060.676 C 1231.423 1052.819 1236.451 1056.846 1233.291 1066.005 C 1232.899 1067.142 1232.104 1070.071 1231.525 1072.514 L 1230.472 1076.956 L 1231.298 1081.129 C 1234.746 1098.551 1239.864 1101.815 1244.729 1089.694 C 1248.129 1081.226 1248.261 1076.228 1245.341 1066.536 C 1242.382 1056.713 1246.791 1052.741 1251.988 1060.548 C 1255.525 1065.861 1258.177 1065.239 1262.927 1057.984 C 1267.513 1050.98 1270.371 1049.183 1272.55 1051.936 C 1273.908 1053.651 1273.444 1055.808 1270.46 1061.655 C 1265.972 1070.45 1266.866 1073.087 1274.348 1073.121 C 1280.843 1073.15 1281.491 1079.064 1275.172 1080.637 C 1261.552 1084.027 1257.851 1086.001 1251.804 1093.1 C 1243.722 1102.589 1250.759 1106.132 1265.603 1100.047 C 1270.456 1098.057 1271.11 1097.598 1276.319 1092.523 C 1284.977 1084.089 1290.002 1084.802 1285.62 1093.843 C 1282.922 1099.409 1284.02 1101.046 1290.941 1101.777 C 1301.334 1102.874 1302.598 1103.234 1303.326 1105.297 C 1304.413 1108.379 1298.8 1110.804 1290.571 1110.808 C 1284.659 1110.816 1283.059 1113.312 1285.73 1118.376 C 1287.643 1122.003 1287.854 1123.8 1286.523 1125.127 C 1284.555 1127.089 1281.784 1125.694 1275.386 1119.521 C 1268.09 1112.48 1256.927 1108.261 1250.301 1110.04 C 1242.291 1112.19 1256.684 1127.835 1268.951 1130.31 C 1279.041 1132.346 1282.686 1136.201 1277.189 1139.025 C 1276.731 1139.26 1274.906 1139.599 1273.133 1139.778 C 1266.574 1140.441 1266.213 1141.931 1270.474 1150.759 C 1276.091 1162.396 1271.167 1166.6 1264.038 1156.253 C 1260.274 1150.79 1259.309 1149.683 1257.585 1148.851 C 1255.08 1147.642 1253.102 1148.617 1251.747 1151.729 C 1249.999 1155.746 1247.182 1157.15 1245.079 1155.053 C 1243.65 1153.629 1243.959 1149.51 1245.938 1143.59 C 1249.919 1131.681 1243.112 1111.152 1237.036 1116.744 C 1232.211 1121.184 1229.677 1134.596 1232.213 1142.272 C 1234.55 1149.343 1234.8 1153.163 1233.049 1155.047 C 1231.162 1157.077 1229.599 1156.381 1226.501 1152.129 C 1224.085 1148.814 1223.673 1148.489 1221.882 1148.489 C 1220.311 1148.489 1218.589 1150.167 1215.117 1155.079 C 1206.969 1166.605 1201.825 1163.002 1208.273 1150.286 C 1212.444 1142.06 1211.988 1140.335 1205.5 1139.788 C 1194.616 1138.873 1197.623 1132.29 1209.889 1130.179 C 1217.099 1128.939 1226.552 1121.996 1229.766 1115.578 C 1234.896 1105.337 1213.897 1108.626 1202.429 1119.86 C 1197.386 1124.8 1194.802 1126.543 1193.309 1126.013 C 1190.86 1125.143 1190.665 1123.02 1192.634 1118.671 C 1194.336 1114.913 1194.31 1113.283 1192.527 1112.089 C 1191.206 1111.205 1190.194 1111.01 1183.987 1110.443 C 1176.336 1109.743 1173.391 1107.669 1175.595 1104.532 L 1175.595 1104.533 Z " id="path4195" fill="rgb(149,149,255)"/><path d=" M 1015.868 1104.533 C 1016.899 1103.065 1019.292 1102.441 1024.948 1102.164 C 1030.436 1101.895 1031.343 1101.651 1033.168 1099.955 C 1034.691 1098.538 1034.568 1096.772 1032.695 1093.145 C 1030.94 1089.746 1030.82 1088.531 1032.111 1087.243 C 1034.177 1085.184 1035.92 1086.045 1042.437 1092.347 C 1049.336 1099.019 1052.49 1100.733 1060.486 1102.163 C 1070.706 1103.99 1072.944 1102.531 1069.318 1096.407 C 1064.872 1088.895 1057.971 1084.159 1048.05 1081.808 C 1041.077 1080.157 1039.12 1078.953 1039.12 1076.315 C 1039.12 1074.074 1040.717 1073.23 1045.838 1072.765 C 1051.774 1072.226 1052.232 1070.305 1048.377 1062.114 C 1045.03 1055.003 1044.674 1053.103 1046.353 1051.307 C 1048.453 1049.06 1051.177 1050.959 1055.705 1057.826 C 1060.72 1065.435 1063.569 1066.159 1066.91 1060.676 C 1071.697 1052.819 1076.725 1056.846 1073.565 1066.005 C 1073.172 1067.142 1072.377 1070.071 1071.798 1072.514 L 1070.746 1076.956 L 1071.572 1081.129 C 1075.019 1098.551 1080.137 1101.815 1085.003 1089.694 C 1088.402 1081.226 1088.534 1076.228 1085.615 1066.536 C 1082.656 1056.713 1087.064 1052.741 1092.261 1060.548 C 1095.798 1065.861 1098.451 1065.239 1103.2 1057.984 C 1107.786 1050.98 1110.644 1049.183 1112.824 1051.936 C 1114.182 1053.651 1113.718 1055.808 1110.734 1061.655 C 1106.245 1070.45 1107.14 1073.087 1114.621 1073.121 C 1121.116 1073.15 1121.765 1079.064 1115.446 1080.637 C 1101.826 1084.027 1098.125 1086.001 1092.078 1093.1 C 1083.995 1102.589 1091.033 1106.132 1105.877 1100.047 C 1110.73 1098.057 1111.383 1097.598 1116.593 1092.523 C 1125.25 1084.089 1130.275 1084.802 1125.893 1093.843 C 1123.196 1099.409 1124.294 1101.046 1131.215 1101.777 C 1141.607 1102.874 1142.871 1103.234 1143.599 1105.297 C 1144.687 1108.379 1139.073 1110.804 1130.844 1110.808 C 1124.932 1110.816 1123.332 1113.312 1126.004 1118.376 C 1127.917 1122.003 1128.128 1123.8 1126.797 1125.127 C 1124.829 1127.089 1122.058 1125.694 1115.66 1119.521 C 1108.364 1112.48 1097.2 1108.261 1090.574 1110.04 C 1082.564 1112.19 1096.958 1127.835 1109.224 1130.31 C 1119.314 1132.346 1122.959 1136.201 1117.462 1139.025 C 1117.005 1139.26 1115.179 1139.599 1113.406 1139.778 C 1106.847 1140.441 1106.486 1141.931 1110.748 1150.759 C 1116.365 1162.396 1111.44 1166.6 1104.312 1156.253 C 1100.547 1150.79 1099.583 1149.683 1097.858 1148.851 C 1095.354 1147.642 1093.376 1148.617 1092.021 1151.729 C 1090.272 1155.746 1087.456 1157.15 1085.353 1155.053 C 1083.924 1153.629 1084.233 1149.51 1086.212 1143.59 C 1090.192 1131.681 1083.386 1111.152 1077.31 1116.744 C 1072.485 1121.184 1069.951 1134.596 1072.487 1142.272 C 1074.824 1149.343 1075.074 1153.163 1073.322 1155.047 C 1071.435 1157.077 1069.873 1156.381 1066.775 1152.129 C 1064.359 1148.814 1063.947 1148.489 1062.156 1148.489 C 1060.585 1148.489 1058.862 1150.167 1055.39 1155.079 C 1047.243 1166.605 1042.099 1163.002 1048.547 1150.286 C 1052.717 1142.06 1052.262 1140.335 1045.773 1139.788 C 1034.889 1138.873 1037.896 1132.29 1050.162 1130.179 C 1057.372 1128.939 1066.825 1121.996 1070.04 1115.578 C 1075.17 1105.337 1054.17 1108.626 1042.702 1119.86 C 1037.66 1124.8 1035.075 1126.543 1033.582 1126.013 C 1031.133 1125.143 1030.938 1123.02 1032.908 1118.671 C 1034.61 1114.913 1034.583 1113.283 1032.801 1112.089 C 1031.48 1111.205 1030.468 1111.01 1024.261 1110.443 C 1016.61 1109.743 1013.665 1107.669 1015.87 1104.532 L 1015.868 1104.533 Z " id="path4197" fill="rgb(149,149,255)"/><path d=" M 856.14 1104.533 C 857.171 1103.065 859.565 1102.441 865.22 1102.164 C 870.709 1101.895 871.616 1101.651 873.44 1099.955 C 874.964 1098.538 874.841 1096.772 872.968 1093.145 C 871.213 1089.746 871.092 1088.531 872.384 1087.243 C 874.45 1085.184 876.193 1086.045 882.71 1092.347 C 889.609 1099.019 892.762 1100.733 900.758 1102.163 C 910.978 1103.99 913.217 1102.531 909.591 1096.407 C 905.145 1088.895 898.244 1084.159 888.322 1081.808 C 881.35 1080.157 879.393 1078.953 879.393 1076.315 C 879.393 1074.074 880.989 1073.23 886.111 1072.765 C 892.047 1072.226 892.504 1070.305 888.649 1062.114 C 885.302 1055.003 884.947 1053.103 886.626 1051.307 C 888.726 1049.06 891.45 1050.959 895.977 1057.826 C 900.993 1065.435 903.841 1066.159 907.183 1060.676 C 911.97 1052.819 916.998 1056.846 913.837 1066.005 C 913.445 1067.142 912.65 1070.071 912.071 1072.514 L 911.018 1076.956 L 911.844 1081.129 C 915.292 1098.551 920.41 1101.815 925.275 1089.694 C 928.675 1081.226 928.807 1076.228 925.887 1066.536 C 922.929 1056.713 927.337 1052.741 932.534 1060.548 C 936.071 1065.861 938.723 1065.239 943.473 1057.984 C 948.059 1050.98 950.917 1049.183 953.096 1051.936 C 954.454 1053.651 953.99 1055.808 951.006 1061.655 C 946.518 1070.45 947.412 1073.087 954.894 1073.121 C 961.389 1073.15 962.038 1079.064 955.718 1080.637 C 942.098 1084.027 938.397 1086.001 932.35 1093.1 C 924.268 1102.589 931.306 1106.132 946.149 1100.047 C 951.002 1098.057 951.656 1097.598 956.865 1092.523 C 965.523 1084.089 970.548 1084.802 966.166 1093.843 C 963.468 1099.409 964.566 1101.046 971.487 1101.777 C 981.88 1102.874 983.144 1103.234 983.872 1105.297 C 984.959 1108.379 979.346 1110.804 971.117 1110.808 C 965.204 1110.816 963.605 1113.312 966.276 1118.376 C 968.189 1122.003 968.4 1123.8 967.069 1125.127 C 965.101 1127.089 962.33 1125.694 955.932 1119.521 C 948.636 1112.48 937.472 1108.261 930.847 1110.04 C 922.837 1112.19 937.23 1127.835 949.496 1130.31 C 959.587 1132.346 963.232 1136.201 957.735 1139.025 C 957.277 1139.26 955.452 1139.599 953.678 1139.778 C 947.12 1140.441 946.759 1141.931 951.02 1150.759 C 956.637 1162.396 951.713 1166.6 944.584 1156.253 C 940.82 1150.79 939.855 1149.683 938.131 1148.851 C 935.626 1147.642 933.648 1148.617 932.293 1151.729 C 930.545 1155.746 927.728 1157.15 925.625 1155.053 C 924.196 1153.629 924.505 1149.51 926.484 1143.59 C 930.465 1131.681 923.658 1111.152 917.582 1116.744 C 912.757 1121.184 910.223 1134.596 912.759 1142.272 C 915.096 1149.343 915.346 1153.163 913.595 1155.047 C 911.708 1157.077 910.145 1156.381 907.047 1152.129 C 904.631 1148.814 904.219 1148.489 902.428 1148.489 C 900.857 1148.489 899.134 1150.167 895.662 1155.079 C 887.515 1166.605 882.371 1163.002 888.819 1150.286 C 892.99 1142.06 892.534 1140.335 886.046 1139.788 C 875.162 1138.873 878.169 1132.29 890.435 1130.179 C 897.645 1128.939 907.098 1121.996 910.312 1115.578 C 915.442 1105.337 894.443 1108.626 882.975 1119.86 C 877.932 1124.8 875.348 1126.543 873.855 1126.013 C 871.406 1125.143 871.211 1123.02 873.18 1118.671 C 874.882 1114.913 874.856 1113.283 873.073 1112.089 C 871.752 1111.205 870.74 1111.01 864.533 1110.443 C 856.882 1109.743 853.937 1107.669 856.142 1104.532 L 856.14 1104.533 Z " id="path4199" fill="rgb(149,149,255)"/><path d=" M 696.421 1104.533 C 697.452 1103.065 699.846 1102.441 705.501 1102.164 C 710.989 1101.895 711.896 1101.651 713.721 1099.955 C 715.244 1098.538 715.122 1096.772 713.249 1093.145 C 711.493 1089.746 711.373 1088.531 712.665 1087.243 C 714.73 1085.184 716.474 1086.045 722.99 1092.347 C 729.889 1099.019 733.043 1100.733 741.039 1102.163 C 751.259 1103.99 753.497 1102.531 749.872 1096.407 C 745.426 1088.895 738.525 1084.159 728.603 1081.808 C 721.631 1080.157 719.673 1078.953 719.673 1076.315 C 719.673 1074.074 721.27 1073.23 726.391 1072.765 C 732.327 1072.226 732.785 1070.305 728.93 1062.114 C 725.583 1055.003 725.228 1053.103 726.907 1051.307 C 729.006 1049.06 731.731 1050.959 736.258 1057.826 C 741.273 1065.435 744.122 1066.159 747.464 1060.676 C 752.25 1052.819 757.279 1056.846 754.118 1066.005 C 753.725 1067.142 752.931 1070.071 752.352 1072.514 L 751.299 1076.956 L 752.125 1081.129 C 755.572 1098.551 760.69 1101.815 765.556 1089.694 C 768.955 1081.226 769.087 1076.228 766.168 1066.536 C 763.209 1056.713 767.617 1052.741 772.815 1060.548 C 776.352 1065.861 779.004 1065.239 783.754 1057.984 C 788.339 1050.98 791.198 1049.183 793.377 1051.936 C 794.735 1053.651 794.271 1055.808 791.287 1061.655 C 786.799 1070.45 787.693 1073.087 795.174 1073.121 C 801.67 1073.15 802.318 1079.064 795.999 1080.637 C 782.379 1084.027 778.678 1086.001 772.631 1093.1 C 764.548 1102.589 771.586 1106.132 786.43 1100.047 C 791.283 1098.057 791.936 1097.598 797.146 1092.523 C 805.804 1084.089 810.828 1084.802 806.447 1093.843 C 803.749 1099.409 804.847 1101.046 811.768 1101.777 C 822.161 1102.874 823.425 1103.234 824.153 1105.297 C 825.24 1108.379 819.626 1110.804 811.397 1110.808 C 805.485 1110.816 803.885 1113.312 806.557 1118.376 C 808.47 1122.003 808.681 1123.8 807.35 1125.127 C 805.382 1127.089 802.611 1125.694 796.213 1119.521 C 788.917 1112.48 777.753 1108.261 771.128 1110.04 C 763.117 1112.19 777.511 1127.835 789.777 1130.31 C 799.867 1132.346 803.512 1136.201 798.015 1139.025 C 797.558 1139.26 795.733 1139.599 793.959 1139.778 C 787.4 1140.441 787.039 1141.931 791.301 1150.759 C 796.918 1162.396 791.993 1166.6 784.865 1156.253 C 781.1 1150.79 780.136 1149.683 778.411 1148.851 C 775.907 1147.642 773.929 1148.617 772.574 1151.729 C 770.825 1155.746 768.009 1157.15 765.906 1155.053 C 764.477 1153.629 764.786 1149.51 766.765 1143.59 C 770.745 1131.681 763.939 1111.152 757.863 1116.744 C 753.038 1121.184 750.504 1134.596 753.04 1142.272 C 755.377 1149.343 755.627 1153.163 753.875 1155.047 C 751.988 1157.077 750.426 1156.381 747.328 1152.129 C 744.912 1148.814 744.5 1148.489 742.709 1148.489 C 741.138 1148.489 739.415 1150.167 735.943 1155.079 C 727.796 1166.605 722.652 1163.002 729.1 1150.286 C 733.27 1142.06 732.815 1140.335 726.326 1139.788 C 715.442 1138.873 718.449 1132.29 730.715 1130.179 C 737.925 1128.939 747.378 1121.996 750.593 1115.578 C 755.723 1105.337 734.723 1108.626 723.255 1119.86 C 718.213 1124.8 715.628 1126.543 714.135 1126.013 C 711.686 1125.143 711.491 1123.02 713.461 1118.671 C 715.163 1114.913 715.136 1113.283 713.354 1112.089 C 712.033 1111.205 711.021 1111.01 704.814 1110.443 C 697.163 1109.743 694.218 1107.669 696.423 1104.532 L 696.421 1104.533 Z " id="path4201" fill="rgb(149,149,255)"/><path d=" M 536.694 1104.533 C 537.725 1103.065 540.118 1102.441 545.774 1102.164 C 551.262 1101.895 552.169 1101.651 553.994 1099.955 C 555.517 1098.538 555.394 1096.772 553.521 1093.145 C 551.766 1089.746 551.646 1088.531 552.937 1087.243 C 555.003 1085.184 556.746 1086.045 563.263 1092.347 C 570.162 1099.019 573.316 1100.733 581.312 1102.163 C 591.532 1103.99 593.77 1102.531 590.144 1096.407 C 585.698 1088.895 578.797 1084.159 568.876 1081.808 C 561.903 1080.157 559.946 1078.953 559.946 1076.315 C 559.946 1074.074 561.543 1073.23 566.664 1072.765 C 572.6 1072.226 573.058 1070.305 569.203 1062.114 C 565.856 1055.003 565.5 1053.103 567.179 1051.307 C 569.279 1049.06 572.003 1050.959 576.531 1057.826 C 581.546 1065.435 584.395 1066.159 587.736 1060.676 C 592.523 1052.819 597.551 1056.846 594.39 1066.005 C 593.998 1067.142 593.203 1070.071 592.624 1072.514 L 591.572 1076.956 L 592.397 1081.129 C 595.845 1098.551 600.963 1101.815 605.829 1089.694 C 609.228 1081.226 609.36 1076.228 606.441 1066.536 C 603.482 1056.713 607.89 1052.741 613.087 1060.548 C 616.624 1065.861 619.276 1065.239 624.026 1057.984 C 628.612 1050.98 631.47 1049.183 633.65 1051.936 C 635.007 1053.651 634.544 1055.808 631.56 1061.655 C 627.071 1070.45 627.966 1073.087 635.447 1073.121 C 641.942 1073.15 642.591 1079.064 636.271 1080.637 C 622.651 1084.027 618.951 1086.001 612.904 1093.1 C 604.821 1102.589 611.859 1106.132 626.703 1100.047 C 631.556 1098.057 632.209 1097.598 637.419 1092.523 C 646.076 1084.089 651.101 1084.802 646.719 1093.843 C 644.022 1099.409 645.12 1101.046 652.04 1101.777 C 662.433 1102.874 663.697 1103.234 664.425 1105.297 C 665.512 1108.379 659.899 1110.804 651.67 1110.808 C 645.758 1110.816 644.158 1113.312 646.829 1118.376 C 648.742 1122.003 648.953 1123.8 647.622 1125.127 C 645.655 1127.089 642.884 1125.694 636.486 1119.521 C 629.189 1112.48 618.026 1108.261 611.4 1110.04 C 603.39 1112.19 617.784 1127.835 630.05 1130.31 C 640.14 1132.346 643.785 1136.201 638.288 1139.025 C 637.831 1139.26 636.005 1139.599 634.232 1139.778 C 627.673 1140.441 627.312 1141.931 631.574 1150.759 C 637.191 1162.396 632.266 1166.6 625.137 1156.253 C 621.373 1150.79 620.408 1149.683 618.684 1148.851 C 616.179 1147.642 614.201 1148.617 612.847 1151.729 C 611.098 1155.746 608.281 1157.15 606.178 1155.053 C 604.75 1153.629 605.058 1149.51 607.037 1143.59 C 611.018 1131.681 604.212 1111.152 598.136 1116.744 C 593.31 1121.184 590.776 1134.596 593.313 1142.272 C 595.649 1149.343 595.899 1153.163 594.148 1155.047 C 592.261 1157.077 590.699 1156.381 587.6 1152.129 C 585.184 1148.814 584.772 1148.489 582.982 1148.489 C 581.411 1148.489 579.688 1150.167 576.216 1155.079 C 568.069 1166.605 562.925 1163.002 569.372 1150.286 C 573.543 1142.06 573.087 1140.335 566.599 1139.788 C 555.715 1138.873 558.722 1132.29 570.988 1130.179 C 578.198 1128.939 587.651 1121.996 590.866 1115.578 C 595.995 1105.337 574.996 1108.626 563.528 1119.86 C 558.485 1124.8 555.901 1126.543 554.408 1126.013 C 551.959 1125.143 551.764 1123.02 553.734 1118.671 C 555.435 1114.913 555.409 1113.283 553.626 1112.089 C 552.305 1111.205 551.293 1111.01 545.086 1110.443 C 537.436 1109.743 534.491 1107.669 536.695 1104.532 L 536.694 1104.533 Z " id="path4203" fill="rgb(149,149,255)"/><path d=" M 376.971 1104.533 C 378.002 1103.065 380.396 1102.441 386.051 1102.164 C 391.539 1101.895 392.446 1101.651 394.271 1099.955 C 395.794 1098.538 395.672 1096.772 393.799 1093.145 C 392.044 1089.746 391.923 1088.531 393.215 1087.243 C 395.28 1085.184 397.024 1086.045 403.54 1092.347 C 410.44 1099.019 413.593 1100.733 421.589 1102.163 C 431.809 1103.99 434.047 1102.531 430.422 1096.407 C 425.976 1088.895 419.075 1084.159 409.153 1081.808 C 402.181 1080.157 400.224 1078.953 400.224 1076.315 C 400.224 1074.074 401.82 1073.23 406.941 1072.765 C 412.877 1072.226 413.335 1070.305 409.48 1062.114 C 406.133 1055.003 405.778 1053.103 407.457 1051.307 C 409.557 1049.06 412.281 1050.959 416.808 1057.826 C 421.824 1065.435 424.672 1066.159 428.014 1060.676 C 432.8 1052.819 437.829 1056.846 434.668 1066.005 C 434.276 1067.142 433.481 1070.071 432.902 1072.514 L 431.849 1076.956 L 432.675 1081.129 C 436.123 1098.551 441.24 1101.815 446.106 1089.694 C 449.505 1081.226 449.638 1076.228 446.718 1066.536 C 443.759 1056.713 448.167 1052.741 453.365 1060.548 C 456.902 1065.861 459.554 1065.239 464.304 1057.984 C 468.889 1050.98 471.748 1049.183 473.927 1051.936 C 475.285 1053.651 474.821 1055.808 471.837 1061.655 C 467.349 1070.45 468.243 1073.087 475.724 1073.121 C 482.22 1073.15 482.868 1079.064 476.549 1080.637 C 462.929 1084.027 459.228 1086.001 453.181 1093.1 C 445.099 1102.589 452.136 1106.132 466.98 1100.047 C 471.833 1098.057 472.486 1097.598 477.696 1092.523 C 486.354 1084.089 491.378 1084.802 486.997 1093.843 C 484.299 1099.409 485.397 1101.046 492.318 1101.777 C 502.711 1102.874 503.975 1103.234 504.703 1105.297 C 505.79 1108.379 500.177 1110.804 491.948 1110.808 C 486.035 1110.816 484.435 1113.312 487.107 1118.376 C 489.02 1122.003 489.231 1123.8 487.9 1125.127 C 485.932 1127.089 483.161 1125.694 476.763 1119.521 C 469.467 1112.48 458.303 1108.261 451.678 1110.04 C 443.667 1112.19 458.061 1127.835 470.327 1130.31 C 480.418 1132.346 484.062 1136.201 478.566 1139.025 C 478.108 1139.26 476.283 1139.599 474.509 1139.778 C 467.95 1140.441 467.59 1141.931 471.851 1150.759 C 477.468 1162.396 472.544 1166.6 465.415 1156.253 C 461.651 1150.79 460.686 1149.683 458.961 1148.851 C 456.457 1147.642 454.479 1148.617 453.124 1151.729 C 451.376 1155.746 448.559 1157.15 446.456 1155.053 C 445.027 1153.629 445.336 1149.51 447.315 1143.59 C 451.296 1131.681 444.489 1111.152 438.413 1116.744 C 433.588 1121.184 431.054 1134.596 433.59 1142.272 C 435.927 1149.343 436.177 1153.163 434.426 1155.047 C 432.538 1157.077 430.976 1156.381 427.878 1152.129 C 425.462 1148.814 425.05 1148.489 423.259 1148.489 C 421.688 1148.489 419.965 1150.167 416.493 1155.079 C 408.346 1166.605 403.202 1163.002 409.65 1150.286 C 413.82 1142.06 413.365 1140.335 406.877 1139.788 C 395.993 1138.873 398.999 1132.29 411.265 1130.179 C 418.476 1128.939 427.929 1121.996 431.143 1115.578 C 436.273 1105.337 415.273 1108.626 403.805 1119.86 C 398.763 1124.8 396.179 1126.543 394.686 1126.013 C 392.236 1125.143 392.041 1123.02 394.011 1118.671 C 395.713 1114.913 395.686 1113.283 393.904 1112.089 C 392.583 1111.205 391.571 1111.01 385.364 1110.443 C 377.713 1109.743 374.768 1107.669 376.973 1104.532 L 376.971 1104.533 Z " id="path4205" fill="rgb(149,149,255)"/><path d=" M 217.247 1104.533 C 218.278 1103.065 220.672 1102.441 226.327 1102.164 C 231.815 1101.895 232.722 1101.651 234.547 1099.955 C 236.07 1098.538 235.948 1096.772 234.075 1093.145 C 232.319 1089.746 232.199 1088.531 233.491 1087.243 C 235.556 1085.184 237.3 1086.045 243.816 1092.347 C 250.715 1099.019 253.869 1100.733 261.865 1102.163 C 272.085 1103.99 274.323 1102.531 270.698 1096.407 C 266.252 1088.895 259.351 1084.159 249.429 1081.808 C 242.456 1080.157 240.499 1078.953 240.499 1076.315 C 240.499 1074.074 242.096 1073.23 247.217 1072.765 C 253.153 1072.226 253.611 1070.305 249.756 1062.114 C 246.409 1055.003 246.054 1053.103 247.733 1051.307 C 249.832 1049.06 252.557 1050.959 257.084 1057.826 C 262.099 1065.435 264.948 1066.159 268.29 1060.676 C 273.076 1052.819 278.105 1056.846 274.944 1066.005 C 274.551 1067.142 273.757 1070.071 273.178 1072.514 L 272.125 1076.956 L 272.951 1081.129 C 276.398 1098.551 281.516 1101.815 286.382 1089.694 C 289.781 1081.226 289.913 1076.228 286.994 1066.536 C 284.035 1056.713 288.443 1052.741 293.641 1060.548 C 297.178 1065.861 299.83 1065.239 304.58 1057.984 C 309.165 1050.98 312.024 1049.183 314.203 1051.936 C 315.561 1053.651 315.097 1055.808 312.113 1061.655 C 307.625 1070.45 308.519 1073.087 316 1073.121 C 322.496 1073.15 323.144 1079.064 316.825 1080.637 C 303.205 1084.027 299.504 1086.001 293.457 1093.1 C 285.374 1102.589 292.412 1106.132 307.256 1100.047 C 312.109 1098.057 312.762 1097.598 317.972 1092.523 C 326.629 1084.089 331.654 1084.802 327.273 1093.843 C 324.575 1099.409 325.673 1101.046 332.594 1101.777 C 342.987 1102.874 344.251 1103.234 344.979 1105.297 C 346.066 1108.379 340.452 1110.804 332.223 1110.808 C 326.311 1110.816 324.711 1113.312 327.383 1118.376 C 329.296 1122.003 329.507 1123.8 328.176 1125.127 C 326.208 1127.089 323.437 1125.694 317.039 1119.521 C 309.743 1112.48 298.579 1108.261 291.954 1110.04 C 283.943 1112.19 298.337 1127.835 310.603 1130.31 C 320.693 1132.346 324.338 1136.201 318.841 1139.025 C 318.384 1139.26 316.558 1139.599 314.785 1139.778 C 308.226 1140.441 307.865 1141.931 312.127 1150.759 C 317.744 1162.396 312.819 1166.6 305.691 1156.253 C 301.926 1150.79 300.962 1149.683 299.237 1148.851 C 296.733 1147.642 294.755 1148.617 293.4 1151.729 C 291.651 1155.746 288.835 1157.15 286.732 1155.053 C 285.303 1153.629 285.612 1149.51 287.591 1143.59 C 291.572 1131.681 284.765 1111.152 278.689 1116.744 C 273.864 1121.184 271.33 1134.596 273.866 1142.272 C 276.203 1149.343 276.453 1153.163 274.702 1155.047 C 272.814 1157.077 271.252 1156.381 268.154 1152.129 C 265.738 1148.814 265.326 1148.489 263.535 1148.489 C 261.964 1148.489 260.241 1150.167 256.769 1155.079 C 248.622 1166.605 243.478 1163.002 249.926 1150.286 C 254.096 1142.06 253.641 1140.335 247.152 1139.788 C 236.269 1138.873 239.275 1132.29 251.541 1130.179 C 258.752 1128.939 268.205 1121.996 271.419 1115.578 C 276.549 1105.337 255.549 1108.626 244.081 1119.86 C 239.039 1124.8 236.455 1126.543 234.961 1126.013 C 232.512 1125.143 232.317 1123.02 234.287 1118.671 C 235.989 1114.913 235.962 1113.283 234.18 1112.089 C 232.859 1111.205 231.847 1111.01 225.64 1110.443 C 217.989 1109.743 215.044 1107.669 217.249 1104.532 L 217.247 1104.533 Z " id="path4207" fill="rgb(149,149,255)"/><path d=" M 29.56 278.44 C 30.591 276.973 32.985 276.348 38.64 276.071 C 44.128 275.802 45.035 275.559 46.86 273.862 C 48.383 272.446 48.26 270.679 46.387 267.052 C 44.632 263.653 44.512 262.438 45.803 261.151 C 47.869 259.091 49.612 259.953 56.129 266.254 C 63.028 272.926 66.181 274.641 74.178 276.07 C 84.398 277.897 86.636 276.439 83.01 270.314 C 78.564 262.803 71.663 258.066 61.742 255.716 C 54.769 254.064 52.812 252.86 52.812 250.223 C 52.812 247.982 54.409 247.138 59.53 246.672 C 65.466 246.133 65.924 244.212 62.069 236.022 C 58.722 228.911 58.366 227.012 60.046 225.215 C 62.145 222.968 64.87 224.867 69.397 231.734 C 74.412 239.343 77.261 240.067 80.601 234.584 C 85.388 226.727 90.417 230.754 87.256 239.913 C 86.863 241.05 86.069 243.98 85.49 246.423 L 84.437 250.864 L 85.263 255.037 C 88.71 272.46 93.828 275.723 98.694 263.602 C 102.093 255.134 102.225 250.136 99.306 240.445 C 96.347 230.621 100.755 226.65 105.952 234.456 C 109.489 239.769 112.142 239.148 116.892 231.892 C 121.477 224.888 124.336 223.092 126.515 225.844 C 127.873 227.559 127.409 229.716 124.425 235.563 C 119.936 244.358 120.831 246.996 128.312 247.029 C 134.807 247.058 135.456 252.972 129.137 254.545 C 115.517 257.935 111.816 259.909 105.769 267.008 C 97.686 276.497 104.724 280.04 119.568 273.955 C 124.421 271.965 125.074 271.507 130.284 266.431 C 138.941 257.997 143.966 258.71 139.585 267.751 C 136.887 273.317 137.985 274.954 144.906 275.685 C 155.298 276.783 156.562 277.142 157.29 279.205 C 158.378 282.287 152.764 284.712 144.535 284.716 C 138.623 284.719 137.023 287.22 139.695 292.285 C 141.608 295.911 141.819 297.708 140.488 299.035 C 138.52 300.997 135.749 299.602 129.351 293.429 C 122.055 286.388 110.891 282.17 104.266 283.948 C 96.255 286.099 110.649 301.743 122.915 304.218 C 133.005 306.254 136.65 310.11 131.153 312.934 C 130.696 313.169 128.871 313.508 127.097 313.687 C 120.538 314.35 120.177 315.84 124.439 324.668 C 130.056 336.306 125.131 340.509 118.003 330.162 C 114.238 324.699 113.274 323.592 111.549 322.76 C 109.045 321.551 107.067 322.527 105.712 325.638 C 103.964 329.655 101.147 331.059 99.044 328.962 C 97.615 327.538 97.924 323.419 99.903 317.498 C 103.884 305.589 97.077 285.061 91.001 290.652 C 86.176 295.092 83.642 308.505 86.178 316.18 C 88.515 323.251 88.765 327.071 87.014 328.955 C 85.127 330.985 83.564 330.289 80.466 326.037 C 78.05 322.722 77.638 322.397 75.847 322.397 C 74.276 322.397 72.553 324.075 69.081 328.987 C 60.934 340.513 55.79 336.91 62.238 324.194 C 66.409 315.968 65.953 314.243 59.465 313.697 C 48.581 312.782 51.587 306.199 63.853 304.088 C 71.064 302.848 80.517 295.905 83.731 289.487 C 88.861 279.246 67.861 282.535 56.394 293.769 C 51.351 298.709 48.767 300.452 47.274 299.922 C 44.825 299.053 44.629 296.929 46.599 292.58 C 48.301 288.822 48.274 287.192 46.492 285.998 C 45.171 285.114 44.159 284.919 37.952 284.352 C 30.301 283.652 27.356 281.578 29.561 278.441 L 29.56 278.44 Z " id="path4209" fill="rgb(149,149,255)"/><path d=" M 29.56 597.679 C 30.591 596.211 32.985 595.587 38.64 595.31 C 44.128 595.041 45.035 594.797 46.86 593.101 C 48.383 591.684 48.26 589.918 46.387 586.291 C 44.632 582.892 44.512 581.677 45.803 580.389 C 47.869 578.33 49.612 579.191 56.129 585.493 C 63.028 592.165 66.181 593.879 74.178 595.309 C 84.398 597.136 86.636 595.677 83.01 589.553 C 78.564 582.041 71.663 577.305 61.742 574.954 C 54.769 573.303 52.812 572.099 52.812 569.461 C 52.812 567.22 54.409 566.376 59.53 565.911 C 65.466 565.372 65.924 563.451 62.069 555.261 C 58.722 548.15 58.366 546.25 60.046 544.454 C 62.145 542.206 64.87 544.106 69.397 550.973 C 74.412 558.582 77.261 559.306 80.601 553.823 C 85.388 545.966 90.417 549.993 87.256 559.152 C 86.863 560.289 86.069 563.218 85.49 565.661 L 84.437 570.103 L 85.263 574.276 C 88.71 591.698 93.828 594.961 98.694 582.841 C 102.093 574.373 102.225 569.374 99.306 559.683 C 96.347 549.86 100.755 545.889 105.952 553.695 C 109.489 559.008 112.142 558.386 116.892 551.131 C 121.477 544.127 124.336 542.33 126.515 545.082 C 127.873 546.797 127.409 548.954 124.425 554.802 C 119.936 563.597 120.831 566.234 128.312 566.268 C 134.807 566.297 135.456 572.21 129.137 573.784 C 115.517 577.174 111.816 579.148 105.769 586.247 C 97.686 595.735 104.724 599.279 119.568 593.194 C 124.421 591.204 125.074 590.745 130.284 585.67 C 138.941 577.236 143.966 577.948 139.585 586.99 C 136.887 592.556 137.985 594.193 144.906 594.924 C 155.298 596.021 156.562 596.381 157.29 598.444 C 158.378 601.526 152.764 603.951 144.535 603.955 C 138.623 603.957 137.023 606.459 139.695 611.523 C 141.608 615.15 141.819 616.947 140.488 618.274 C 138.52 620.236 135.749 618.841 129.351 612.668 C 122.055 605.627 110.891 601.408 104.266 603.187 C 96.255 605.337 110.649 620.982 122.915 623.457 C 133.005 625.493 136.65 629.348 131.153 632.172 C 130.696 632.407 128.871 632.746 127.097 632.926 C 120.538 633.588 120.177 635.079 124.439 643.907 C 130.056 655.545 125.131 659.748 118.003 649.401 C 114.238 643.937 113.274 642.831 111.549 641.999 C 109.045 640.79 107.067 641.765 105.712 644.877 C 103.964 648.894 101.147 650.298 99.044 648.201 C 97.615 646.776 97.924 642.657 99.903 636.737 C 103.884 624.828 97.077 604.299 91.001 609.891 C 86.176 614.331 83.642 627.743 86.178 635.418 C 88.515 642.49 88.765 646.31 87.014 648.194 C 85.127 650.224 83.564 649.528 80.466 645.276 C 78.05 641.96 77.638 641.636 75.847 641.636 C 74.276 641.636 72.553 643.314 69.081 648.226 C 60.934 659.752 55.79 656.149 62.238 643.433 C 66.409 635.207 65.953 633.482 59.465 632.936 C 48.581 632.02 51.587 625.438 63.853 623.327 C 71.064 622.087 80.517 615.143 83.731 608.726 C 88.861 598.485 67.861 601.774 56.394 613.008 C 51.351 617.947 48.767 619.691 47.274 619.161 C 44.825 618.291 44.629 616.168 46.599 611.819 C 48.301 608.061 48.274 606.431 46.492 605.237 C 45.171 604.352 44.159 604.157 37.952 603.59 C 30.301 602.891 27.356 600.817 29.561 597.68 L 29.56 597.679 Z " id="path4211" fill="rgb(149,149,255)"/><path d=" M 29.56 757.302 C 30.591 755.835 32.985 755.21 38.64 754.933 C 44.128 754.664 45.035 754.421 46.86 752.724 C 48.383 751.308 48.26 749.541 46.387 745.914 C 44.632 742.515 44.512 741.3 45.803 740.013 C 47.869 737.953 49.612 738.815 56.129 745.116 C 63.028 751.788 66.181 753.503 74.178 754.932 C 84.398 756.759 86.636 755.301 83.01 749.176 C 78.564 741.665 71.663 736.928 61.742 734.578 C 54.769 732.926 52.812 731.722 52.812 729.085 C 52.812 726.844 54.409 726 59.53 725.534 C 65.466 724.995 65.924 723.074 62.069 714.884 C 58.722 707.773 58.366 705.874 60.046 704.077 C 62.145 701.83 64.87 703.729 69.397 710.596 C 74.412 718.205 77.261 718.929 80.601 713.446 C 85.388 705.589 90.417 709.616 87.256 718.775 C 86.863 719.912 86.069 722.842 85.49 725.285 L 84.437 729.726 L 85.263 733.899 C 88.71 751.322 93.828 754.585 98.694 742.464 C 102.093 733.996 102.225 728.998 99.306 719.307 C 96.347 709.483 100.755 705.512 105.952 713.318 C 109.489 718.631 112.142 718.01 116.892 710.754 C 121.477 703.75 124.336 701.954 126.515 704.706 C 127.873 706.421 127.409 708.578 124.425 714.425 C 119.936 723.22 120.831 725.858 128.312 725.891 C 134.807 725.921 135.456 731.834 129.137 733.407 C 115.517 736.798 111.816 738.771 105.769 745.87 C 97.686 755.359 104.724 758.902 119.568 752.817 C 124.421 750.827 125.074 750.369 130.284 745.293 C 138.941 736.859 143.966 737.572 139.585 746.613 C 136.887 752.179 137.985 753.816 144.906 754.547 C 155.298 755.645 156.562 756.004 157.29 758.067 C 158.378 761.149 152.764 763.574 144.535 763.578 C 138.623 763.581 137.023 766.083 139.695 771.147 C 141.608 774.773 141.819 776.57 140.488 777.897 C 138.52 779.859 135.749 778.464 129.351 772.291 C 122.055 765.25 110.891 761.032 104.266 762.81 C 96.255 764.961 110.649 780.605 122.915 783.081 C 133.005 785.116 136.65 788.972 131.153 791.796 C 130.696 792.031 128.871 792.37 127.097 792.549 C 120.538 793.212 120.177 794.702 124.439 803.53 C 130.056 815.168 125.131 819.371 118.003 809.024 C 114.238 803.561 113.274 802.454 111.549 801.622 C 109.045 800.413 107.067 801.389 105.712 804.5 C 103.964 808.517 101.147 809.921 99.044 807.824 C 97.615 806.4 97.924 802.281 99.903 796.36 C 103.884 784.451 97.077 763.923 91.001 769.514 C 86.176 773.954 83.642 787.367 86.178 795.042 C 88.515 802.113 88.765 805.933 87.014 807.817 C 85.127 809.847 83.564 809.151 80.466 804.899 C 78.05 801.584 77.638 801.259 75.847 801.259 C 74.276 801.259 72.553 802.937 69.081 807.849 C 60.934 819.375 55.79 815.772 62.238 803.056 C 66.409 794.83 65.953 793.105 59.465 792.559 C 48.581 791.644 51.587 785.061 63.853 782.951 C 71.064 781.71 80.517 774.767 83.731 768.349 C 88.861 758.108 67.861 761.397 56.394 772.631 C 51.351 777.571 48.767 779.314 47.274 778.784 C 44.825 777.915 44.629 775.791 46.599 771.442 C 48.301 767.684 48.274 766.054 46.492 764.86 C 45.171 763.976 44.159 763.781 37.952 763.214 C 30.301 762.514 27.356 760.44 29.561 757.303 L 29.56 757.302 Z " id="path4213" fill="rgb(149,149,255)"/><path d=" M 29.56 916.934 C 30.591 915.466 32.985 914.842 38.64 914.565 C 44.128 914.296 45.035 914.052 46.86 912.355 C 48.383 910.939 48.26 909.173 46.387 905.546 C 44.632 902.147 44.512 900.931 45.803 899.644 C 47.869 897.584 49.612 898.446 56.129 904.748 C 63.028 911.42 66.181 913.134 74.178 914.564 C 84.398 916.39 86.636 914.932 83.01 908.808 C 78.564 901.296 71.663 896.56 61.742 894.209 C 54.769 892.558 52.812 891.354 52.812 888.716 C 52.812 886.475 54.409 885.631 59.53 885.166 C 65.466 884.626 65.924 882.706 62.069 874.515 C 58.722 867.405 58.366 865.505 60.046 863.708 C 62.145 861.461 64.87 863.361 69.397 870.228 C 74.412 877.836 77.261 878.561 80.601 873.077 C 85.388 865.221 90.417 869.248 87.256 878.407 C 86.863 879.544 86.069 882.473 85.49 884.916 L 84.437 889.358 L 85.263 893.531 C 88.71 910.953 93.828 914.217 98.694 902.095 C 102.093 893.627 102.225 888.629 99.306 878.938 C 96.347 869.115 100.755 865.144 105.952 872.95 C 109.489 878.263 112.142 877.641 116.892 870.386 C 121.477 863.382 124.336 861.585 126.515 864.337 C 127.873 866.052 127.409 868.209 124.425 874.056 C 119.936 882.851 120.831 885.489 128.312 885.523 C 134.807 885.551 135.456 891.465 129.137 893.038 C 115.517 896.429 111.816 898.403 105.769 905.501 C 97.686 914.99 104.724 918.533 119.568 912.448 C 124.421 910.459 125.074 910 130.284 904.925 C 138.941 896.49 143.966 897.203 139.585 906.244 C 136.887 911.81 137.985 913.448 144.906 914.178 C 155.298 915.276 156.562 915.635 157.29 917.699 C 158.378 920.78 152.764 923.206 144.535 923.209 C 138.623 923.209 137.023 925.714 139.695 930.778 C 141.608 934.404 141.819 936.202 140.488 937.529 C 138.52 939.491 135.749 938.096 129.351 931.922 C 122.055 924.882 110.891 920.663 104.266 922.441 C 96.255 924.592 110.649 940.237 122.915 942.712 C 133.005 944.748 136.65 948.603 131.153 951.427 C 130.696 951.662 128.871 952.001 127.097 952.18 C 120.538 952.843 120.177 954.333 124.439 963.162 C 130.056 974.798 125.131 979.002 118.003 968.655 C 114.238 963.192 113.274 962.085 111.549 961.253 C 109.045 960.044 107.067 961.02 105.712 964.132 C 103.964 968.148 101.147 969.552 99.044 967.455 C 97.615 966.031 97.924 961.912 99.903 955.991 C 103.884 944.083 97.077 923.554 91.001 929.145 C 86.176 933.586 83.642 946.998 86.178 954.673 C 88.515 961.744 88.765 965.564 87.014 967.448 C 85.127 969.478 83.564 968.782 80.466 964.531 C 78.05 961.215 77.638 960.89 75.847 960.89 C 74.276 960.89 72.553 962.568 69.081 967.48 C 60.934 979.006 55.79 975.403 62.238 962.687 C 66.409 954.462 65.953 952.736 59.465 952.19 C 48.581 951.275 51.587 944.692 63.853 942.582 C 71.064 941.341 80.517 934.398 83.731 927.98 C 88.861 917.739 67.861 921.029 56.394 932.262 C 51.351 937.202 48.767 938.945 47.274 938.415 C 44.825 937.546 44.629 935.423 46.599 931.073 C 48.301 927.315 48.274 925.685 46.492 924.492 C 45.171 923.607 44.159 923.412 37.952 922.845 C 30.301 922.146 27.356 920.071 29.561 916.934 L 29.56 916.934 Z " id="path4215" fill="rgb(149,149,255)"/><path d=" M 1363.274 438.064 C 1364.305 436.596 1366.699 435.972 1372.354 435.695 C 1377.843 435.426 1378.75 435.182 1380.574 433.485 C 1382.097 432.069 1381.975 430.303 1380.102 426.676 C 1378.347 423.276 1378.226 422.061 1379.518 420.774 C 1381.584 418.714 1383.327 419.576 1389.843 425.878 C 1396.743 432.55 1399.896 434.264 1407.892 435.694 C 1418.113 437.52 1420.351 436.062 1416.725 429.937 C 1412.279 422.426 1405.378 417.69 1395.456 415.339 C 1388.484 413.688 1386.527 412.484 1386.527 409.846 C 1386.527 407.605 1388.123 406.761 1393.245 406.296 C 1399.18 405.756 1399.638 403.836 1395.783 395.645 C 1392.436 388.535 1392.081 386.635 1393.76 384.838 C 1395.86 382.591 1398.584 384.491 1403.111 391.358 C 1408.127 398.966 1410.975 399.691 1414.316 394.207 C 1419.103 386.351 1424.13 390.378 1420.97 399.537 C 1420.578 400.674 1419.783 403.603 1419.204 406.046 L 1418.151 410.488 L 1418.977 414.661 C 1422.425 432.083 1427.543 435.346 1432.408 423.225 C 1435.808 414.757 1435.94 409.759 1433.021 400.068 C 1430.062 390.245 1434.47 386.274 1439.667 394.08 C 1443.204 399.393 1445.856 398.771 1450.606 391.516 C 1455.192 384.511 1458.05 382.715 1460.229 385.467 C 1461.587 387.182 1461.123 389.339 1458.139 395.186 C 1453.651 403.981 1454.545 406.619 1462.027 406.653 C 1468.522 406.682 1469.171 412.595 1462.851 414.168 C 1449.231 417.559 1445.531 419.533 1439.483 426.631 C 1431.401 436.12 1438.439 439.663 1453.283 433.578 C 1458.136 431.589 1458.789 431.13 1463.998 426.055 C 1472.656 417.62 1477.681 418.333 1473.299 427.374 C 1470.602 432.94 1471.7 434.578 1478.62 435.309 C 1489.013 436.406 1490.277 436.765 1491.005 438.829 C 1492.092 441.91 1486.479 444.336 1478.25 444.34 C 1472.338 444.342 1470.738 446.844 1473.409 451.908 C 1475.322 455.534 1475.533 457.332 1474.202 458.659 C 1472.235 460.621 1469.464 459.226 1463.066 453.052 C 1455.769 446.012 1444.606 441.793 1437.98 443.572 C 1429.97 445.722 1444.364 461.367 1456.63 463.842 C 1466.72 465.878 1470.365 469.733 1464.868 472.557 C 1464.41 472.792 1462.585 473.131 1460.812 473.31 C 1454.253 473.973 1453.892 475.463 1458.154 484.292 C 1463.771 495.929 1458.846 500.132 1451.717 489.785 C 1447.953 484.322 1446.988 483.215 1445.264 482.383 C 1442.76 481.174 1440.781 482.15 1439.427 485.262 C 1437.678 489.278 1434.861 490.682 1432.758 488.585 C 1431.33 487.161 1431.638 483.042 1433.617 477.122 C 1437.598 465.213 1430.792 444.684 1424.716 450.275 C 1419.89 454.716 1417.356 468.128 1419.893 475.803 C 1422.229 482.874 1422.479 486.694 1420.728 488.578 C 1418.841 490.608 1417.279 489.912 1414.181 485.661 C 1411.764 482.345 1411.352 482.02 1409.562 482.02 C 1407.991 482.02 1406.268 483.698 1402.796 488.61 C 1394.649 500.137 1389.505 496.534 1395.952 483.817 C 1400.123 475.592 1399.667 473.866 1393.179 473.321 C 1382.295 472.405 1385.302 465.823 1397.568 463.712 C 1404.778 462.471 1414.231 455.528 1417.446 449.11 C 1422.575 438.87 1401.576 442.159 1390.108 453.392 C 1385.065 458.332 1382.481 460.076 1380.988 459.545 C 1378.539 458.676 1378.344 456.553 1380.314 452.203 C 1382.016 448.445 1381.989 446.815 1380.207 445.622 C 1378.885 444.737 1377.874 444.542 1371.666 443.975 C 1364.015 443.276 1361.071 441.202 1363.275 438.064 L 1363.274 438.064 Z " id="path4275" fill="rgb(149,149,255)"/><path d=" M 29.56 438.064 C 30.591 436.596 32.985 435.972 38.64 435.695 C 44.128 435.426 45.035 435.182 46.86 433.485 C 48.383 432.069 48.26 430.303 46.387 426.676 C 44.632 423.276 44.512 422.061 45.803 420.774 C 47.869 418.714 49.612 419.576 56.129 425.878 C 63.028 432.55 66.181 434.264 74.178 435.694 C 84.398 437.52 86.636 436.062 83.01 429.937 C 78.564 422.426 71.663 417.69 61.742 415.339 C 54.769 413.688 52.812 412.484 52.812 409.846 C 52.812 407.605 54.409 406.761 59.53 406.296 C 65.466 405.756 65.924 403.836 62.069 395.645 C 58.722 388.535 58.366 386.635 60.046 384.838 C 62.145 382.591 64.87 384.491 69.397 391.358 C 74.412 398.966 77.261 399.691 80.601 394.207 C 85.388 386.351 90.417 390.378 87.256 399.537 C 86.863 400.674 86.069 403.603 85.49 406.046 L 84.437 410.488 L 85.263 414.661 C 88.71 432.083 93.828 435.346 98.694 423.225 C 102.093 414.757 102.225 409.759 99.306 400.068 C 96.347 390.245 100.755 386.274 105.952 394.08 C 109.489 399.393 112.142 398.771 116.892 391.516 C 121.477 384.511 124.336 382.715 126.515 385.467 C 127.873 387.182 127.409 389.339 124.425 395.186 C 119.936 403.981 120.831 406.619 128.312 406.653 C 134.807 406.682 135.456 412.595 129.137 414.168 C 115.517 417.559 111.816 419.533 105.769 426.631 C 97.686 436.12 104.724 439.663 119.568 433.578 C 124.421 431.589 125.074 431.13 130.284 426.055 C 138.941 417.62 143.966 418.333 139.585 427.374 C 136.887 432.94 137.985 434.578 144.906 435.309 C 155.298 436.406 156.562 436.765 157.29 438.829 C 158.378 441.91 152.764 444.336 144.535 444.34 C 138.623 444.342 137.023 446.844 139.695 451.908 C 141.608 455.534 141.819 457.332 140.488 458.659 C 138.52 460.621 135.749 459.226 129.351 453.052 C 122.055 446.012 110.891 441.793 104.266 443.572 C 96.255 445.722 110.649 461.367 122.915 463.842 C 133.005 465.878 136.65 469.733 131.153 472.557 C 130.696 472.792 128.871 473.131 127.097 473.31 C 120.538 473.973 120.177 475.463 124.439 484.292 C 130.056 495.929 125.131 500.132 118.003 489.785 C 114.238 484.322 113.274 483.215 111.549 482.383 C 109.045 481.174 107.067 482.15 105.712 485.262 C 103.964 489.278 101.147 490.682 99.044 488.585 C 97.615 487.161 97.924 483.042 99.903 477.122 C 103.884 465.213 97.077 444.684 91.001 450.275 C 86.176 454.716 83.642 468.128 86.178 475.803 C 88.515 482.874 88.765 486.694 87.014 488.578 C 85.127 490.608 83.564 489.912 80.466 485.661 C 78.05 482.345 77.638 482.02 75.847 482.02 C 74.276 482.02 72.553 483.698 69.081 488.61 C 60.934 500.137 55.79 496.534 62.238 483.817 C 66.409 475.592 65.953 473.866 59.465 473.321 C 48.581 472.405 51.587 465.823 63.853 463.712 C 71.064 462.471 80.517 455.528 83.731 449.11 C 88.861 438.87 67.861 442.159 56.394 453.392 C 51.351 458.332 48.767 460.076 47.274 459.545 C 44.825 458.676 44.629 456.553 46.599 452.203 C 48.301 448.445 48.274 446.815 46.492 445.622 C 45.171 444.737 44.159 444.542 37.952 443.975 C 30.301 443.276 27.356 441.202 29.561 438.064 L 29.56 438.064 Z " id="path4277" fill="rgb(149,149,255)"/></g></g></g></svg>