<?xml version="1.0" encoding="UTF-8"?><svg xmlns="http://www.w3.org/2000/svg" xmlns:xlink="http://www.w3.org/1999/xlink" version="1.1" id="Layer_1" x="0px" y="0px" viewBox="0 0 30 30" xml:space="preserve"><g fill="#000000"><path d="M4.993 15.083c0 .293.153.493.415.493.19 0 .362-.118.47-.31.134-.235.128-.457.128-.722v-.148c-.492 0-1.013.105-1.013.687z"/><path d="M21.143 13.117c-.502 0-.534.684-.534 1.11 0 .427-.006 1.339.528 1.339.528 0 .553-.735.553-1.185 0-.294-.013-.647-.102-.926-.076-.243-.229-.338-.445-.338z"/><path d="M28 4H2C.897 4 0 4.897 0 6v18c0 1.103.897 2 2 2h26c1.103 0 2-.897 2-2V6c0-1.103-.897-2-2-2zm-13.15 9.27c-.083-.126-.243-.178-.383-.178-.26 0-.49.133-.547.41-.012.06-.057.12-.119.124l-.659-.071c-.056-.013-.118-.057-.102-.142.152-.802.875-1.044 1.523-1.044.331 0 .764.09 1.026.34.33.31.298.721.298 1.172v1.06c0 .32.134.46.258.632.043.061.053.136-.002.18-.14.117-.386.332-.523.453l-.001-.002a.14.14 0 0 1-.16.016c-.227-.188-.267-.274-.391-.454-.374.381-.64.495-1.123.495-.573 0-1.02-.354-1.02-1.061 0-.553.3-.93.727-1.113.37-.162.885-.192 1.28-.237v-.088c0-.162.012-.353-.083-.493zm-7.1-.666c0-.071.06-.127.131-.127h.635c.066.004.119.054.124.118v.456h.012c.165-.441.476-.648.897-.648.425 0 .692.207.883.648a.965.965 0 0 1 .94-.648.97.97 0 0 1 .789.383c.215.294.171.721.171 1.096v2.205c0 .07-.06.126-.132.126h-.68a.128.128 0 0 1-.122-.126v-1.852c0-.148.013-.515-.018-.655-.052-.236-.205-.301-.401-.301a.452.452 0 0 0-.407.287c-.07.175-.064.47-.064.669v1.852c0 .07-.059.126-.13.126h-.681a.128.128 0 0 1-.123-.126v-1.852c0-.39.064-.964-.42-.964-.49 0-.47.559-.47.964v1.852c0 .07-.06.126-.131.126h-.681a.127.127 0 0 1-.122-.114v-3.495zm-1.058 3.6a.14.14 0 0 1-.16.016c-.226-.188-.266-.274-.39-.454-.374.381-.64.495-1.123.495C4.445 16.261 4 15.907 4 15.2c0-.553.299-.93.726-1.113.37-.162.885-.192 1.28-.237v-.088c0-.162.014-.353-.083-.493-.082-.125-.242-.177-.382-.177-.26 0-.49.133-.547.41-.012.06-.057.12-.118.124l-.66-.071c-.056-.013-.118-.057-.102-.142.152-.802.874-1.044 1.523-1.044.331 0 .764.09 1.025.34.331.31.3.721.3 1.172v1.06c0 .32.132.46.257.632.042.061.053.135-.003.18-.139.117-.387.332-.522.453l-.002-.002zm10.956 1.35C16.37 18.499 14.517 19 12.921 19a8.554 8.554 0 0 1-5.774-2.203c-.12-.108-.014-.256.13-.172 1.645.957 3.678 1.532 5.778 1.532 1.417 0 2.974-.293 4.407-.901.217-.091.398.143.186.299zm.355.926c-.105.089-.206.041-.16-.075.155-.385.5-1.248.337-1.458-.164-.209-1.08-.098-1.493-.049-.124.014-.144-.095-.031-.173.732-.514 1.93-.366 2.07-.194.14.173-.037 1.376-.723 1.95zm1.275-2.486c0 .073-.08.158-.165.115a2.573 2.573 0 0 0-2.365.004c-.078.04-.16-.043-.16-.116v-.507c0-.081.003-.22.084-.343l1.344-1.927h-1.17a.125.125 0 0 1-.13-.126v-.5c.001-.075.058-.126.127-.126h2.238c.071 0 .13.052.13.126v.43c0 .07-.062.163-.17.313l-1.159 1.655c.43-.01.886.054 1.277.274.089.05.112.123.119.195v.533zm1.859.293c-.992 0-1.532-.869-1.532-1.948 0-1.09.547-1.936 1.532-1.936 1.01 0 1.557.868 1.557 1.971 0 1.067-.604 1.913-1.557 1.913zM26 16.103a.13.13 0 0 1-.131.11h-.682a.129.129 0 0 1-.122-.11v-1.898c0-.382.045-.941-.426-.941-.165 0-.317.11-.394.28-.095.212-.108.426-.108.661v1.882a.13.13 0 0 1-.132.126h-.68a.128.128 0 0 1-.12-.126l-.002-3.495a.13.13 0 0 1 .131-.115h.632c.059.002.109.043.12.098v.534h.014c.19-.477.457-.706.927-.706.305 0 .604.11.795.412.178.28.178.75.178 1.089v2.2z"/><path d="M13.92 15.083c0 .293.153.493.413.493.191 0 .363-.118.472-.31.133-.235.128-.457.128-.722v-.148c-.493 0-1.014.105-1.014.687z"/></g><metadata><rdf:RDF xmlns:rdf="http://www.w3.org/1999/02/22-rdf-syntax-ns#" xmlns:rdfs="http://www.w3.org/2000/01/rdf-schema#" xmlns:dc="http://purl.org/dc/elements/1.1/"><rdf:Description about="https://iconscout.com/legal#licenses" dc:title="amazon,pay,payments,online,send,money,credit,card,ecommerce" dc:description="amazon,pay,payments,online,send,money,credit,card,ecommerce" dc:publisher="Iconscout" dc:date="2017-11-29" dc:format="image/svg+xml" dc:language="en"><dc:creator><rdf:Bag><rdf:li>Those Icons</rdf:li></rdf:Bag></dc:creator></rdf:Description></rdf:RDF></metadata></svg>