<?xml version="1.0" encoding="UTF-8"?><svg xmlns="http://www.w3.org/2000/svg" xmlns:xlink="http://www.w3.org/1999/xlink" version="1.1" id="Layer_1" x="0px" y="0px" viewBox="0 0 30 30" xml:space="preserve"><g fill="#000000"><path d="M28 4H2C.897 4 0 4.897 0 6v18c0 1.103.897 2 2 2h26c1.103 0 2-.897 2-2V6c0-1.103-.897-2-2-2zm-9.5 16.975V21h-7v-.025C8.42 20.72 6 18.145 6 15s2.42-5.72 5.5-5.975V9h7v.025C21.58 9.28 24 11.855 24 15s-2.42 5.72-5.5 5.975z"/><path d="M12 10c-2.757 0-5 2.243-5 5s2.243 5 5 5 5-2.243 5-5-2.243-5-5-5zm-4 5c0-2.034 1.532-3.7 3.5-3.95v7.9C9.532 18.7 8 17.033 8 15zm4.5 3.95v-7.9c1.968.25 3.5 1.916 3.5 3.95s-1.532 3.7-3.5 3.95z"/></g><metadata><rdf:RDF xmlns:rdf="http://www.w3.org/1999/02/22-rdf-syntax-ns#" xmlns:rdfs="http://www.w3.org/2000/01/rdf-schema#" xmlns:dc="http://purl.org/dc/elements/1.1/"><rdf:Description about="https://iconscout.com/legal#licenses" dc:title="diners,club,payments,pay,online,send,money,credit,card,ecommerce" dc:description="diners,club,payments,pay,online,send,money,credit,card,ecommerce" dc:publisher="Iconscout" dc:date="2017-11-29" dc:format="image/svg+xml" dc:language="en"><dc:creator><rdf:Bag><rdf:li>Those Icons</rdf:li></rdf:Bag></dc:creator></rdf:Description></rdf:RDF></metadata></svg>