<?xml version="1.0" encoding="UTF-8"?><svg xmlns="http://www.w3.org/2000/svg" xmlns:xlink="http://www.w3.org/1999/xlink" version="1.1" id="Layer_1" x="0px" y="0px" viewBox="0 0 30 30" xml:space="preserve"><g fill="#000000"><path d="M18.811 13.671h-.33v.548h.296s.41-.023.434-.274c.011-.24-.4-.274-.4-.274z"/><path d="M15.228 16.01h-.32v1.267h.366s.753-.046.753-.628-.799-.639-.799-.639z"/><path d="M15.228 13.637h-.32v1.267h.366s.753-.058.753-.628c0-.593-.799-.64-.799-.64z"/><path d="M20.99 16.512c-.327 0-.427.248-.456.369v.149c.029.123.13.338.48.338a.49.49 0 0 0 .479-.433c0-.137-.08-.423-.502-.423z"/><path d="M18.218 16.444c-.318 0-.422.171-.453.33h.875s0-.33-.422-.33z"/><path d="M28 4H2C.897 4 0 4.897 0 6v18c0 1.103.897 2 2 2h26c1.103 0 2-.897 2-2V6c0-1.103-.897-2-2-2zm-7.785 9.363h1.552v.365h-.993v.434h.913v.354h-.913v.41h1.004v.343h-1.563v-1.906zM8.975 19C6.225 19 4 17.402 4 15.44s2.225-3.56 4.975-3.56c.084 0 .168.001.251.004v2.554c-1.33-.097-4.347.527-4.347 1.892 0 .89 1.597 2.19 4.199 2.225.102 0 3.058-.114 3.012-3.286-.038-2.665-2.032-3.131-2.67-3.212v-.163c2.542.161 4.542 1.69 4.542 3.546 0 1.962-2.237 3.56-4.987 3.56zm.251-4.491v3.818s-2.214-.4-2.214-1.917c0-1.21 1.64-1.744 2.214-1.901zm6.287 3.122H14.35v-1.883h1.14s1.13-.023 1.119 1.004c-.011.765-1.096.879-1.096.879zm0-2.374H14.35v-1.883h1.14s1.13-.022 1.119 1.005c-.011.764-1.096.878-1.096.878zm1.393-1.894h.547v1.906h-.547v-1.906zm1.357 4.028c.48.011.754-.171.754-.171v.354s-.525.125-.776.125c-.263 0-1.039-.057-1.039-.776 0-.582.64-.764 1.004-.764.64.023.948.25.936.901 0 .01-1.051.003-1.379 0 .032.15.14.314.5.331zm1.05-2.122s-.091-.114-.137-.194c-.034-.08-.137-.251-.137-.251s-.08-.286-.353-.286l-.206-.007v.738h-.547v-1.906h.901s.936-.046.936.502c0 .468-.537.502-.537.502s.149.023.217.126c.057.091.434.776.434.776h-.57zm1.837 2.419c-.31 0-.5-.106-.616-.238v.192h-.559v-2.054h.56v.83c.126-.138.338-.248.695-.248.708 0 .822.593.81.753-.01.16-.068.765-.89.765zm2.408-.046H23v-1.45h.56v1.45zm0-1.666H23v-.388h.56v.388zm-.32-1.05c.389 0 .617-.068.617-.068l.057.365s-.171.08-.685.08-1.346-.251-1.346-.981c0-.742.787-1.016 1.278-1.016.502 0 .787.126.787.126l-.068.33s-.263-.102-.605-.102c-.445 0-.788.33-.799.627 0 .331.388.628.765.64zm2.18 2.762c-.171 0-.616-.103-.616-.537v-.661h-.468v-.297h.468v-.354h.57v.354h.468v.297h-.468v.57s0 .285.229.285c.228 0 .24-.034.24-.034l.01.32s-.262.057-.433.057zM26 13.683h-.673v1.586h-.56v-1.586h-.661v-.331H26v.33z"/></g><metadata><rdf:RDF xmlns:rdf="http://www.w3.org/1999/02/22-rdf-syntax-ns#" xmlns:rdfs="http://www.w3.org/2000/01/rdf-schema#" xmlns:dc="http://purl.org/dc/elements/1.1/"><rdf:Description about="https://iconscout.com/legal#licenses" dc:title="direct,debit,payments,pay,online,send,money,credit,card,ecommerce" dc:description="direct,debit,payments,pay,online,send,money,credit,card,ecommerce" dc:publisher="Iconscout" dc:date="2017-11-29" dc:format="image/svg+xml" dc:language="en"><dc:creator><rdf:Bag><rdf:li>Those Icons</rdf:li></rdf:Bag></dc:creator></rdf:Description></rdf:RDF></metadata></svg>