<?xml version="1.0" encoding="UTF-8"?><svg xmlns="http://www.w3.org/2000/svg" xmlns:xlink="http://www.w3.org/1999/xlink" version="1.1" id="Layer_1" x="0px" y="0px" viewBox="0 0 30 30" xml:space="preserve"><g fill="#000000"><path d="M29.5 4.691V4.5h-.191A1.983 1.983 0 0 0 28 4H2C.897 4 0 4.897 0 6v18c0 1.103.897 2 2 2h26a2 2 0 0 0 2-2V6c0-.503-.193-.957-.5-1.309zM5.47 15.416c-.37.308-.79.446-1.374.446H3v-3.87h1.102c1.218 0 2.066.796 2.066 1.938 0 .57-.26 1.12-.698 1.486zm18.72-3.423h1.113c.866 0 1.362.418 1.362 1.142 0 .593-.311.982-.877 1.097L27 15.862h-.923l-1.04-1.554h-.097v1.554h-.75v-3.87zm-2.627 0h2.13v.655h-1.38v.86h1.329v.655h-1.329v1.044h1.38v.655h-2.13v-3.87zm-3.22 0l1.027 2.599 1.04-2.6h.814l-1.663 3.97h-.404l-1.633-3.97h.82zm-11.078 3.87h-.751v-3.87h.75v3.87zm1.615.092c-.571 0-.987-.226-1.333-.736l.485-.47c.173.336.462.516.82.516.335 0 .583-.232.583-.546a.464.464 0 0 0-.225-.4c-.076-.047-.226-.116-.52-.22-.705-.255-.946-.528-.946-1.061 0-.634.52-1.109 1.2-1.109.422 0 .808.145 1.131.429l-.393.517c-.195-.22-.38-.313-.605-.313-.324 0-.56.185-.56.429 0 .209.133.32.583.487.854.314 1.108.592 1.108 1.207 0 .749-.548 1.27-1.328 1.27zm4.537-2.924c-.312-.307-.583-.435-.941-.435-.704 0-1.258.586-1.258 1.329 0 .783.537 1.334 1.293 1.334.34 0 .606-.121.906-.423v.888a2.067 2.067 0 0 1-.941.225c-1.143 0-2.032-.881-2.032-2.019a2.03 2.03 0 0 1 2.05-2.025c.323 0 .594.07.923.238v.888zm2.293-1.148c1.13 0 2.048.921 2.048 2.058a2.053 2.053 0 0 1-2.048 2.058 2.053 2.053 0 0 1-2.048-2.058c0-1.137.917-2.058 2.048-2.058zM29 24c0 .551-.449 1-1 1H14.189C21.545 22.502 26.56 19.078 29 17.161V24z"/><path d="M25.893 13.176c0-.377-.255-.574-.722-.574h-.231v1.172h.219c.48 0 .734-.21.734-.598z"/><path d="M3.952 12.648H3.75v2.56h.202c.485 0 .791-.094 1.027-.308a1.33 1.33 0 0 0 .416-.975c0-.371-.156-.731-.416-.964-.248-.225-.542-.313-1.027-.313z"/></g><metadata><rdf:RDF xmlns:rdf="http://www.w3.org/1999/02/22-rdf-syntax-ns#" xmlns:rdfs="http://www.w3.org/2000/01/rdf-schema#" xmlns:dc="http://purl.org/dc/elements/1.1/"><rdf:Description about="https://iconscout.com/legal#licenses" dc:title="discover,payments,pay,online,send,money,credit,card,ecommerce" dc:description="discover,payments,pay,online,send,money,credit,card,ecommerce" dc:publisher="Iconscout" dc:date="2017-11-29" dc:format="image/svg+xml" dc:language="en"><dc:creator><rdf:Bag><rdf:li>Those Icons</rdf:li></rdf:Bag></dc:creator></rdf:Description></rdf:RDF></metadata></svg>