<?xml version="1.0" encoding="UTF-8"?><svg xmlns="http://www.w3.org/2000/svg" xmlns:xlink="http://www.w3.org/1999/xlink" version="1.1" id="Layer_1" x="0px" y="0px" viewBox="0 0 30 30" xml:space="preserve"><path fill="#000000" d="M28 4H2C.897 4 0 4.897 0 6v18c0 1.103.897 2 2 2h26c1.103 0 2-.897 2-2V6c0-1.103-.897-2-2-2zM13 20c-.3 0-.602-.115-.831-.344l-3.824-3.824C8.122 15.61 8 15.314 8 15s.122-.61.345-.832l3.824-3.824a1.177 1.177 0 0 1 1.662 0l.877.877-.707.707-.877-.877c-.059-.058-.19-.058-.248 0l-3.824 3.824a.175.175 0 0 0 0 .249l3.824 3.825c.059.058.19.058.248 0l3.824-3.824a.175.175 0 0 0 0-.249l-1.696-1.697.707-.707 1.696 1.696c.223.222.345.518.345.832s-.122.61-.345.832l-3.824 3.824c-.23.229-.53.344-.831.344zm8.655-4.168l-3.824 3.824a1.173 1.173 0 0 1-1.662 0l-.837-.823.701-.713.84.826c.063.061.192.06.251.003l3.824-3.824a.175.175 0 0 0 0-.249l-3.824-3.825c-.059-.058-.19-.058-.248 0l-3.824 3.824a.175.175 0 0 0 0 .249l1.682 1.683-.707.707-1.682-1.682C12.122 15.61 12 15.314 12 15s.122-.61.345-.832l3.824-3.824a1.177 1.177 0 0 1 1.662 0l3.824 3.824c.223.222.345.518.345.832s-.122.61-.345.832z"/><metadata><rdf:RDF xmlns:rdf="http://www.w3.org/1999/02/22-rdf-syntax-ns#" xmlns:rdfs="http://www.w3.org/2000/01/rdf-schema#" xmlns:dc="http://purl.org/dc/elements/1.1/"><rdf:Description about="https://iconscout.com/legal#licenses" dc:title="epay,payments,pay,online,send,money,credit,card,ecommerce" dc:description="epay,payments,pay,online,send,money,credit,card,ecommerce" dc:publisher="Iconscout" dc:date="2017-11-29" dc:format="image/svg+xml" dc:language="en"><dc:creator><rdf:Bag><rdf:li>Those Icons</rdf:li></rdf:Bag></dc:creator></rdf:Description></rdf:RDF></metadata></svg>