<?xml version="1.0" encoding="UTF-8"?><svg xmlns="http://www.w3.org/2000/svg" xmlns:xlink="http://www.w3.org/1999/xlink" version="1.1" id="Layer_1" x="0px" y="0px" viewBox="0 0 30 30" xml:space="preserve"><g fill="#000000"><path d="M18.135 9c.272 1.2.816 3.96.875 7.006a30.232 30.232 0 0 1 1.51 4.017c.24-1.162.48-2.863.48-5.023 0-3.368-.584-5.316-.836-6h-2.03z"/><path d="M12.464 15.555c.403.781.722 1.554.972 2.224.093-.503.173-1.037.247-1.542.109-.748.215-1.45.352-2.003-.337-.646-.7-1.31-1.094-1.998-.063 1.01-.199 2.242-.477 3.319z"/><path d="M28 4H2C.897 4 0 4.897 0 6v18c0 1.103.897 2 2 2h26c1.103 0 2-.897 2-2V6c0-1.103-.897-2-2-2zm-7.035 18.184l-.01-.004c-.019.048-.035.097-.069.137a.5.5 0 0 1-.386.183h-3a.5.5 0 0 1-.49-.403c-.388-1.954-1.121-4.047-2.237-6.389a92.17 92.17 0 0 0-.101.674c-.177 1.21-.36 2.46-.71 3.308l-.013-.005c-.014.037-.02.076-.044.108A.5.5 0 0 1 13.5 20h-3a.5.5 0 0 1-.475-.345l-.043-.131c-.35-1.08-1.278-3.945-2.853-5.689A.5.5 0 0 1 7.5 13h3a.5.5 0 0 1 .371.165c.306.339.58.72.84 1.112.26-1.562.289-3.215.289-3.777h.002a.497.497 0 0 1 .498-.5h3a.5.5 0 0 1 .428.24c.727 1.2 1.37 2.337 1.94 3.424a36.136 36.136 0 0 0-.851-5.037A.5.5 0 0 1 17.5 8h3a.5.5 0 0 1 .448.279C20.991 8.366 22 10.46 22 15c0 4.518-.993 7.077-1.035 7.184z"/></g><metadata><rdf:RDF xmlns:rdf="http://www.w3.org/1999/02/22-rdf-syntax-ns#" xmlns:rdfs="http://www.w3.org/2000/01/rdf-schema#" xmlns:dc="http://purl.org/dc/elements/1.1/"><rdf:Description about="https://iconscout.com/legal#licenses" dc:title="google,wallet,payments,pay,online,send,money,credit,ecommerce" dc:description="google,wallet,payments,pay,online,send,money,credit,ecommerce" dc:publisher="Iconscout" dc:date="2017-11-29" dc:format="image/svg+xml" dc:language="en"><dc:creator><rdf:Bag><rdf:li>Those Icons</rdf:li></rdf:Bag></dc:creator></rdf:Description></rdf:RDF></metadata></svg>