<?xml version="1.0" encoding="UTF-8"?><svg xmlns="http://www.w3.org/2000/svg" xmlns:xlink="http://www.w3.org/1999/xlink" version="1.1" id="Layer_1" x="0px" y="0px" viewBox="0 0 30 30" xml:space="preserve"><path fill="#000000" d="M28 4H2C.897 4 0 4.897 0 6v18c0 1.103.897 2 2 2h26c1.103 0 2-.897 2-2V6c0-1.103-.897-2-2-2zM10.989 19.568c0 .075-.004.149-.01.223-.028.34-.12.667-.304.973-.328.55-.92.97-1.593 1.14-.388.098-.776.091-1.175.091H4.5v-4.46a.499.499 0 0 0 .09.03c.103.023.225.049.35.067.681.101 1.214.156 1.729.178.118.006.238.008.366.008.143 0 .3-.003.492-.01.164-.005.309-.014.441-.026.05-.005.1-.01.148-.013a4.07 4.07 0 0 0 .355-.039c.517-.086 1.224-.292 1.662-.781.347-.387.42-.86.42-1.189v-2.465c0-.221-.202-.4-.45-.4H8.387c-.249 0-.45.179-.45.4L7.93 15.9a.912.912 0 0 1-.604.752 1.81 1.81 0 0 1-.658.107 4.21 4.21 0 0 1-.487-.032 5.428 5.428 0 0 1-1.306-.332.502.502 0 0 0-.375.007v-5.809c0-.374.021-.735.173-1.092.268-.63.883-1.172 1.61-1.378.271-.077.546-.123.831-.123h3.875v11.568zm7.264-10.983V19.61c0 .078-.001.157-.008.235-.038.428-.214.801-.47 1.159-.38.457-.89.759-1.498.92-.368.089-.747.074-1.124.074h-3.396l-.003-4.848c.148.09.299.162.43.22.328.142.65.243.986.307.31.06.614.09.87.113.2.017.397.02.633.02h.233c.265 0 .566 0 .859-.03.477-.051.99-.113 1.505-.225.202-.043.344-.204.344-.39v-.42a.392.392 0 0 0-.204-.335.499.499 0 0 0-.427-.031c-.453.176-.95.292-1.518.354-.331.035-.684.005-1.097-.094h-.003c-.371-.119-.655-.32-.82-.583-.206-.325-.262-.788-.146-1.212a1.235 1.235 0 0 1 .634-.78c.213-.117.48-.19.815-.226a4.03 4.03 0 0 1 .878.014c.444.055.872.161 1.271.316.14.053.3.041.427-.033a.391.391 0 0 0 .203-.335v-.412c0-.19-.149-.354-.358-.393a3.776 3.776 0 0 0-.101-.017l-.123-.02c-.54-.087-1.052-.17-1.596-.191-.263-.01-.554-.014-.85-.009-.284.005-.579.01-.868.052l-.115.017c-.26.038-.506.074-.761.139a3.848 3.848 0 0 0-1.102.457l-.003-2.619c0-.425-.022-.858.156-1.263.258-.68.906-1.196 1.656-1.428.399-.123.813-.114 1.228-.114h3.463v.585zm7.247-.083V19.58c0 .443-.104.866-.353 1.253-.355.55-.962.936-1.646 1.097-.355.083-.722.067-1.085.067h-3.402l-.005-4.35c.06.025.126.04.196.04h3.13c.082 0 .165.002.248.004l.258.003c.151 0 .275-.005.389-.015.31-.027.703-.085 1.013-.292.187-.09.325-.25.436-.4.151-.204.218-.482.184-.761-.07-.551-.525-.877-1.038-1.036.223-.105.405-.248.528-.421.299-.438.273-.969-.066-1.353l-.009-.01c-.312-.332-.766-.453-1.092-.495a4.792 4.792 0 0 0-.626-.03h-3.362a.497.497 0 0 0-.194.04L19 10.343c0-.377.098-.753.296-1.088.172-.29.41-.547.7-.75.247-.176.522-.285.812-.39C21.215 7.994 22 8 22 8l3.5.002v.5zm-3.508 6.076c-.111.114-.27.137-.392.137l-.136.001-1.062-.001v-.816h1.097c.177-.004.254.013.266.015.127.019.251.118.31.244a.385.385 0 0 1-.083.42zm.288 1.605c0 .128-.084.458-.618.458l-1.26-.001v-.912h1.236c.18 0 .314.013.428.083a.43.43 0 0 1 .214.372z"/><metadata><rdf:RDF xmlns:rdf="http://www.w3.org/1999/02/22-rdf-syntax-ns#" xmlns:rdfs="http://www.w3.org/2000/01/rdf-schema#" xmlns:dc="http://purl.org/dc/elements/1.1/"><rdf:Description about="https://iconscout.com/legal#licenses" dc:title="jcb,payments,pay,online,send,money,credit,card,ecommerce" dc:description="jcb,payments,pay,online,send,money,credit,card,ecommerce" dc:publisher="Iconscout" dc:date="2017-11-29" dc:format="image/svg+xml" dc:language="en"><dc:creator><rdf:Bag><rdf:li>Those Icons</rdf:li></rdf:Bag></dc:creator></rdf:Description></rdf:RDF></metadata></svg>