<?xml version="1.0" encoding="UTF-8"?><svg xmlns="http://www.w3.org/2000/svg" xmlns:xlink="http://www.w3.org/1999/xlink" version="1.1" id="Layer_1" x="0px" y="0px" viewBox="0 0 30 30" xml:space="preserve"><g fill="#000000"><path d="M13 13a5.98 5.98 0 0 0 2 4.46c1.224-1.1 2-2.689 2-4.46s-.776-3.36-2-4.46A5.98 5.98 0 0 0 13 13z"/><path d="M20.39 21.46c-.343 0-.552.264-.552.584 0 .32.21.583.552.583.328 0 .549-.252.549-.583 0-.332-.221-.583-.549-.583z"/><path d="M15.048 21.442c-.282 0-.442.179-.484.442h.945c-.042-.282-.205-.442-.46-.442z"/><path d="M9.21 21.46c-.342 0-.552.264-.552.584 0 .32.21.583.553.583.327 0 .548-.252.548-.583 0-.332-.22-.583-.548-.583z"/><path d="M28 4H2C.897 4 0 4.897 0 6v18c0 1.103.897 2 2 2h26c1.103 0 2-.897 2-2V6c0-1.103-.897-2-2-2zM7.9 22.954h-.4v-1.013c0-.309-.13-.48-.4-.48-.263 0-.446.167-.446.484v1.01h-.4V21.94c0-.309-.133-.48-.396-.48-.27 0-.446.167-.446.484v1.01h-.4v-1.822h.396v.225a.602.602 0 0 1 .534-.27c.278 0 .476.121.602.323.167-.255.407-.328.64-.324.442.004.716.294.716.724v1.143zm2.233-.91v.91h-.396v-.22A.69.69 0 0 1 9.16 23c-.51 0-.91-.4-.91-.956 0-.557.4-.957.91-.957.26 0 .45.103.576.267v-.221h.396v.91zm1.173.956c-.297 0-.571-.076-.788-.236l.186-.309a.97.97 0 0 0 .606.19c.27 0 .416-.08.416-.22 0-.103-.103-.16-.32-.19l-.187-.028c-.408-.057-.629-.24-.629-.537 0-.362.297-.583.758-.583.29 0 .553.065.743.19l-.171.32a1.174 1.174 0 0 0-.568-.155c-.217 0-.347.08-.347.213 0 .122.138.156.31.179l.186.027c.396.057.636.224.636.545 0 .346-.305.594-.83.594zm2.1 0c-.469 0-.633-.252-.633-.674v-.831h-.37v-.362h.37v-.553h.4v.553h.648v.362h-.647v.823c0 .183.064.305.262.305a.731.731 0 0 0 .351-.103l.114.339a.931.931 0 0 1-.495.141zm2.507-.804H14.56c.058.328.29.446.545.446a.868.868 0 0 0 .53-.19l.194.293a1.107 1.107 0 0 1-.746.255c-.545 0-.934-.377-.934-.956 0-.568.373-.957.907-.957.51 0 .861.389.865.957 0 .053-.004.102-.008.152zm1.448-.686a.646.646 0 0 0-.248-.046c-.259 0-.388.168-.388.469v1.021h-.397v-1.821h.393v.22a.537.537 0 0 1 .48-.266c.08 0 .194.015.282.05l-.122.373zm1.2 1.117a.8.8 0 0 0 .477-.164l.19.32a.954.954 0 0 1-.655.217c-.587 0-.972-.404-.972-.956 0-.553.385-.957.972-.957.274 0 .457.061.655.217l-.19.32a.8.8 0 0 0-.477-.163c-.316.003-.548.232-.548.583 0 .35.232.579.548.583zm2.751-.583v.91h-.396v-.22a.691.691 0 0 1-.575.266c-.51 0-.91-.4-.91-.956 0-.557.4-.957.91-.957.259 0 .45.103.575.267v-.221h.396v.91zm1.555-.534a.646.646 0 0 0-.248-.046c-.259 0-.388.168-.388.469v1.021h-.397v-1.821h.393v.22a.537.537 0 0 1 .48-.266c.08 0 .194.015.282.05l-.122.373zm2.122.534v.91h-.396v-.22a.69.69 0 0 1-.575.266c-.51 0-.91-.4-.91-.956 0-.557.4-.957.91-.957.259 0 .45.103.575.267V20.4h.396v1.643zM19 19a5.927 5.927 0 0 1-4-1.534A5.927 5.927 0 0 1 11 19c-3.309 0-6-2.691-6-6s2.691-6 6-6c1.496 0 2.898.541 4 1.534A5.927 5.927 0 0 1 19 7c3.309 0 6 2.691 6 6s-2.691 6-6 6z"/><path d="M24.067 21.46c-.343 0-.552.264-.552.584 0 .32.21.583.552.583.328 0 .549-.252.549-.583 0-.332-.221-.583-.549-.583z"/></g><metadata><rdf:RDF xmlns:rdf="http://www.w3.org/1999/02/22-rdf-syntax-ns#" xmlns:rdfs="http://www.w3.org/2000/01/rdf-schema#" xmlns:dc="http://purl.org/dc/elements/1.1/"><rdf:Description about="https://iconscout.com/legal#licenses" dc:title="mastercard,payments,pay,online,send,money,credit,card,ecommerce" dc:description="mastercard,payments,pay,online,send,money,credit,card,ecommerce" dc:publisher="Iconscout" dc:date="2017-11-29" dc:format="image/svg+xml" dc:language="en"><dc:creator><rdf:Bag><rdf:li>Those Icons</rdf:li></rdf:Bag></dc:creator></rdf:Description></rdf:RDF></metadata></svg>