<?xml version="1.0" encoding="UTF-8"?><svg xmlns="http://www.w3.org/2000/svg" xmlns:xlink="http://www.w3.org/1999/xlink" version="1.1" id="Layer_1" x="0px" y="0px" viewBox="0 0 30 30" xml:space="preserve"><g fill="#000000"><path d="M13 13a5.98 5.98 0 0 0 2 4.46c1.224-1.1 2-2.689 2-4.46s-.776-3.36-2-4.46A5.98 5.98 0 0 0 13 13z"/><path d="M18.308 20.778c-.328 0-.548.251-.548.582 0 .331.22.582.548.582.342 0 .551-.262.551-.582 0-.32-.209-.582-.551-.582z"/><path d="M20.47 20.88c-.343 0-.552.262-.552.581 0 .32.21.583.552.583.327 0 .548-.251.548-.583 0-.33-.22-.582-.548-.582z"/><path d="M14.699 20.82c-.282 0-.441.18-.483.442h.943c-.041-.282-.205-.442-.46-.442z"/><path d="M8.87 20.84c-.342 0-.551.262-.551.582 0 .32.209.582.551.582.328 0 .548-.251.548-.582 0-.331-.22-.582-.548-.582z"/><path d="M28 4H2C.897 4 0 4.897 0 6v18c0 1.103.897 2 2 2h26c1.103 0 2-.897 2-2V6c0-1.103-.897-2-2-2zM11 7c1.496 0 2.898.541 4 1.534A5.927 5.927 0 0 1 19 7c3.309 0 6 2.691 6 6s-2.691 6-6 6a5.927 5.927 0 0 1-4-1.534A5.927 5.927 0 0 1 11 19c-3.309 0-6-2.691-6-6s2.691-6 6-6zM7.562 22.331h-.4v-1.012c0-.308-.13-.48-.4-.48-.262 0-.444.168-.444.484v1.008h-.4v-1.012c0-.308-.133-.48-.396-.48-.27 0-.445.168-.445.484v1.008h-.4v-1.819h.396v.225a.601.601 0 0 1 .533-.27c.278 0 .476.121.601.323.168-.255.407-.327.64-.323.44.004.715.293.715.723v1.141zm2.23 0h-.397v-.22a.69.69 0 0 1-.574.266c-.51 0-.91-.4-.91-.955 0-.556.4-.955.91-.955a.69.69 0 0 1 .574.266v-.22h.396v1.818zm1.17.046c-.296 0-.57-.077-.787-.236l.187-.309c.133.103.33.19.605.19.27 0 .414-.08.414-.22 0-.103-.102-.16-.32-.19l-.186-.027c-.407-.057-.627-.24-.627-.536 0-.362.296-.582.757-.582.289 0 .551.064.742.19l-.172.32a1.172 1.172 0 0 0-.566-.157c-.217 0-.347.08-.347.214 0 .121.137.156.309.178l.186.027c.396.057.635.225.635.544 0 .346-.304.594-.83.594zm2.097 0c-.468 0-.631-.252-.631-.674v-.83h-.37v-.36h.37v-.552h.4v.551h.646v.362h-.647v.822c0 .182.065.304.263.304a.73.73 0 0 0 .35-.103l.114.339a.93.93 0 0 1-.495.14zm2.504-.803h-1.351c.057.327.29.445.544.445a.866.866 0 0 0 .529-.19l.194.293c-.22.186-.472.255-.746.255-.544 0-.932-.377-.932-.955 0-.567.373-.955.906-.955.51 0 .86.388.863.955 0 .053-.004.102-.007.152zm1.445-.685a.644.644 0 0 0-.247-.046c-.259 0-.388.168-.388.468v1.02h-.396v-1.819h.392v.221a.536.536 0 0 1 .48-.266c.08 0 .194.015.281.05l-.122.372zm1.35 1.426a.69.69 0 0 1-.575-.266V23h-.396v-2.55h.396v.222a.69.69 0 0 1 .574-.267c.51 0 .91.4.91.955 0 .556-.4.955-.91.955zm3.033.056h-.396v-.22a.69.69 0 0 1-.575.266c-.51 0-.909-.4-.909-.956 0-.555.4-.954.91-.954a.69.69 0 0 1 .574.266v-.22h.396v1.818zm1.183.006c-.297 0-.57-.077-.788-.236l.187-.309c.133.103.33.19.605.19.27 0 .414-.08.414-.22 0-.103-.102-.16-.32-.19l-.186-.027c-.407-.057-.627-.24-.627-.536 0-.362.296-.582.757-.582.289 0 .551.064.742.19l-.172.32a1.172 1.172 0 0 0-.566-.157c-.217 0-.347.08-.347.214 0 .121.137.156.309.178l.186.027c.396.057.635.225.635.544 0 .346-.304.594-.83.594zm1.919 0c-.297 0-.57-.077-.788-.236l.187-.309c.133.103.33.19.605.19.27 0 .414-.08.414-.22 0-.103-.102-.16-.32-.19l-.186-.027c-.407-.057-.627-.24-.627-.536 0-.362.296-.582.757-.582.289 0 .551.064.742.19l-.172.32a1.172 1.172 0 0 0-.566-.157c-.217 0-.347.08-.347.214 0 .121.137.156.308.178l.187.027c.396.057.635.225.635.544 0 .346-.304.594-.83.594z"/></g><metadata><rdf:RDF xmlns:rdf="http://www.w3.org/1999/02/22-rdf-syntax-ns#" xmlns:rdfs="http://www.w3.org/2000/01/rdf-schema#" xmlns:dc="http://purl.org/dc/elements/1.1/"><rdf:Description about="https://iconscout.com/legal#licenses" dc:title="masterpass,payments,pay,online,send,money,credit,card,ecommerce" dc:description="masterpass,payments,pay,online,send,money,credit,card,ecommerce" dc:publisher="Iconscout" dc:date="2017-11-29" dc:format="image/svg+xml" dc:language="en"><dc:creator><rdf:Bag><rdf:li>Those Icons</rdf:li></rdf:Bag></dc:creator></rdf:Description></rdf:RDF></metadata></svg>