<?xml version="1.0" encoding="UTF-8"?><svg xmlns="http://www.w3.org/2000/svg" xmlns:xlink="http://www.w3.org/1999/xlink" version="1.1" id="Layer_1" x="0px" y="0px" viewBox="0 0 30 30" xml:space="preserve"><g fill="#000000"><path d="M12.917 13.14H11.35v-.654h1.53v-.671h-1.53v-.59h1.567v-.683h-2.236v3.277h2.236z"/><path d="M8.524 13.82l.97-2.567.003 2.566h.686v-3.277H9.067l-.804 2.223-.876-2.223H6.294v3.103l-1.14-3.103h-.993l-1.2 3.277h.728l.26-.73h1.393l.258.73h1.362V11.25l.972 2.569h.59zm-4.337-1.415l.456-1.306.457 1.306h-.913z"/><path d="M14.805 16.182h-2.142l-.852 1.073-.824-1.073H8.294v3.277h2.652l.857-1.085.825 1.085h1.301V18.36h.835c.585 0 1.166-.188 1.166-1.098 0-.906-.595-1.08-1.125-1.08zm-4.197 2.595H8.963v-.652h1.469v-.67h-1.47v-.595h1.679l.732.954-.765.963zm2.654.384l-1.028-1.336 1.028-1.292v2.628zm1.533-1.467h-.866v-.835h.873c.242 0 .41.116.41.403 0 .282-.16.432-.417.432z"/><path d="M18.8 13.82h.783l.252-.732h1.39l.261.731h1.363v-2.46l1.27 2.46h.948v-3.277h-.684v2.283l-1.178-2.283h-1.02v3.1l-1.133-3.1H20.05l-.945 2.577h-.3c-.175 0-.364-.04-.467-.17-.126-.164-.184-.418-.184-.768 0-.344.077-.605.192-.743.132-.151.27-.194.515-.194h.635v-.702h-.648c-.462 0-.801.12-1.017.382-.287.35-.36.795-.36 1.281 0 .596.123.973.359 1.251.232.278.644.363.97.363zm1.734-2.721l.464 1.306h-.924l.46-1.306z"/><path d="M18.669 11.826c-.006.01-.053.128-.053.355 0 .225.03.333.053.382a.456.456 0 0 0 .131.015l.29-.793H18.856c-.151 0-.167.02-.186.04z"/><path d="M16.459 10.542h.683v3.277h-.683z"/><path d="M14.052 12.627h.718c.24 0 .39.025.488.14.121.158.105.44.105.638l.003.414h.676v-.645c0-.292-.017-.437-.112-.6a.797.797 0 0 0-.331-.276c.174-.081.472-.352.472-.874 0-.365-.128-.579-.338-.726-.218-.146-.47-.156-.812-.156h-1.54v3.277h.67v-1.192zm0-1.402h.824c.116 0 .238.007.317.059.087.048.14.149.14.29 0 .142-.05.258-.137.31-.093.066-.201.068-.331.068h-.814v-.727z"/><path d="M18.941 17.063c0-.374-.133-.579-.343-.728-.221-.137-.468-.154-.806-.154h-1.546v3.277h.672v-1.196h.715c.245 0 .393.028.492.145.124.153.108.445.108.642v.41h.671v-.65c-.002-.289-.015-.438-.11-.598a.74.74 0 0 0-.328-.275c.175-.082.474-.348.475-.873zm-.879.465c-.09.063-.2.068-.331.068h-.814v-.736h.825c.118 0 .238.003.32.059.086.053.138.155.138.295s-.052.253-.138.314z"/><path d="M23.338 17.467l-.36-.012a.67.67 0 0 1-.261-.037c-.084-.037-.146-.12-.146-.244 0-.104.027-.183.101-.237.067-.053.146-.059.268-.059h1.228v-.697h-1.341c-.703 0-.958.5-.958.976 0 1.036.785.99 1.41 1.013.118 0 .188.023.239.073a.3.3 0 0 1 .081.217c0 .089-.032.163-.078.213-.057.062-.147.081-.273.081h-1.299v.703h1.304c.675 0 1.052-.329 1.052-1.034 0-.337-.07-.537-.2-.694-.155-.179-.404-.251-.767-.262z"/><path d="M19.312 19.458h2.234v-.68l-1.568-.003v-.651h1.53v-.669h-1.53v-.596h1.568v-.678h-2.234z"/><path d="M26.073 17.467l-.36-.012a.676.676 0 0 1-.261-.037c-.083-.037-.146-.12-.146-.244 0-.104.027-.183.101-.237.067-.053.147-.059.269-.059h1.228v-.697h-1.342c-.702 0-.958.5-.958.976 0 1.036.785.99 1.411 1.013.117 0 .186.023.239.073.046.046.08.12.08.217a.32.32 0 0 1-.077.213c-.057.062-.147.081-.274.081h-1.298v.703h1.304c.675 0 1.051-.329 1.051-1.034 0-.337-.07-.537-.2-.694-.154-.179-.404-.251-.767-.262z"/><path d="M28 4H2C.897 4 0 4.897 0 6v18c0 1.103.897 2 2 2h26c1.103 0 2-.897 2-2V6c0-1.103-.897-2-2-2zM7.512 14.037l-.088-.232v.012c0 .299-.207.541-.462.541H5.6c-.188 0-.356-.132-.428-.335l-.14-.396h-.775l-.141.399c-.071.201-.24.333-.426.333h-.728a.45.45 0 0 1-.386-.243.622.622 0 0 1-.038-.511l1.198-3.277c.072-.199.24-.328.425-.328h.994c.185 0 .352.129.425.327l.251.685v-.47c0-.299.207-.541.463-.541h1.093c.18 0 .344.123.42.314l.438 1.112.398-1.096c.072-.2.24-.33.425-.33h1.116c.094 0 .176.04.25.097a.409.409 0 0 1 .249-.097h2.236c.086 0 .163.035.232.083a.406.406 0 0 1 .232-.083h1.54c.398 0 .727.016 1.042.229.032.022.055.05.083.075.075-.178.23-.304.412-.304h.683c.232 0 .415.201.45.46.299-.304.707-.46 1.256-.46h.648c.103 0 .2.04.276.107a.418.418 0 0 1 .276-.107h1.003c.185 0 .351.13.425.327l.246.673v-.46c0-.298.207-.54.463-.54h1.019c.162 0 .312.099.396.26l.318.618v-.338c0-.299.208-.541.464-.541h.684c.256 0 .463.242.463.541v3.277c0 .299-.208.54-.463.54h-.948a.453.453 0 0 1-.397-.26l-.41-.797v.517c0 .299-.208.54-.463.54h-1.363c-.186 0-.354-.13-.427-.332l-.141-.398h-.772l-.136.393c-.07.204-.24.338-.427.338h-.784c-.298 0-.832-.062-1.212-.435-.043.246-.22.435-.445.435h-.683a.407.407 0 0 1-.21-.065.396.396 0 0 1-.207.065h-.676c-.254 0-.46-.24-.463-.536l-.002-.414v-.072c0-.044.002-.11-.001-.165a1.652 1.652 0 0 0-.13-.004h-.256v.65c0 .3-.207.541-.462.541h-.67a.408.408 0 0 1-.233-.083.402.402 0 0 1-.231.083h-2.236a.412.412 0 0 1-.25-.097.415.415 0 0 1-.25.097h-.686c-.255 0-.462-.241-.462-.54v-.013l-.089.232c-.074.196-.239.322-.422.322h-.589c-.182 0-.348-.126-.422-.323zM25.99 20h-1.307c-.19 0-.354-.136-.425-.33-.254.211-.59.33-1.007.33h-1.303a.403.403 0 0 1-.201-.059.402.402 0 0 1-.2.059h-2.235a.392.392 0 0 1-.204-.061.403.403 0 0 1-.204.06h-.671c-.257 0-.463-.242-.463-.54v-.476a2.51 2.51 0 0 0-.002-.176 1.682 1.682 0 0 0-.136-.005h-.253v.657c0 .299-.207.54-.462.54h-.673c-.256 0-.463-.242-.463-.54v-.833c-.237.165-.565.274-1.017.274h-.372v.559c0 .299-.208.54-.463.54h-1.301a.437.437 0 0 1-.347-.18l-.484-.64-.511.648a.435.435 0 0 1-.34.174H8.294c-.255 0-.462-.243-.462-.542v-3.277c0-.3.207-.541.462-.541h2.693c.132 0 .256.065.344.18l.486.633.507-.64a.434.434 0 0 1 .339-.173h2.139c.469 0 .798.121 1.033.3.076-.176.228-.3.409-.3h1.546c.356 0 .7.016 1.023.218.035.024.058.055.09.08.076-.175.227-.298.408-.298h2.234c.173 0 .32.116.399.282.22-.175.512-.282.88-.282h1.342c.202 0 .368.152.432.361.23-.218.543-.361.961-.361h1.343c.255 0 .462.242.462.541v.698a.568.568 0 0 1-.212.455l.014.016c.23.276.334.617.334 1.075 0 .985-.564 1.574-1.51 1.574z"/></g><metadata><rdf:RDF xmlns:rdf="http://www.w3.org/1999/02/22-rdf-syntax-ns#" xmlns:rdfs="http://www.w3.org/2000/01/rdf-schema#" xmlns:dc="http://purl.org/dc/elements/1.1/"><rdf:Description about="https://iconscout.com/legal#licenses" dc:title="american,express,payments,pay,online,send,money,credit,card,ecommerce" dc:description="american,express,payments,pay,online,send,money,credit,card,ecommerce" dc:publisher="Iconscout" dc:date="2017-11-29" dc:format="image/svg+xml" dc:language="en"><dc:creator><rdf:Bag><rdf:li>Those Icons</rdf:li></rdf:Bag></dc:creator></rdf:Description></rdf:RDF></metadata></svg>