<?xml version="1.0" encoding="UTF-8"?><svg xmlns="http://www.w3.org/2000/svg" xmlns:xlink="http://www.w3.org/1999/xlink" version="1.1" id="Layer_1" x="0px" y="0px" viewBox="0 0 30 30" xml:space="preserve"><g fill="#000000"><path d="M28 4H2C.897 4 0 4.897 0 6v18c0 1.103.897 2 2 2h26c1.103 0 2-.897 2-2V6c0-1.103-.897-2-2-2zm-1.257 10.887c-.17.216-.415.36-.729.428l-.142.03.623 1.655h-1.36l-.6-2.025L24.162 17H11.352l.592-3.208h-.762L10.59 17H5.721l-.9-2.611L4.359 17H3l.766-4.147h1.422l.927 2.541.465-2.541h8.173l-.17.94h-1.307l-.133.725 1.258.002-.149.812h-1.26l-.132.728h2.097l.592-3.207h1.37l-.565 3.042h.938l.56-3.042h1.372l-.565 3.042h.962l.56-3.042h2.624l-.172.94h-1.291l-.134.724 1.253-.002-.149.817h-1.254l-.134.728h2.082l.59-3.207h1.59c.607 0 1.07.105 1.375.315.296.202.44.49.439.883 0 .337-.087.617-.257.836z"/><path d="M24.97 13.692h-.198l-.206 1.113h.269c.271 0 .47-.047.606-.143.103-.071.225-.212.225-.473 0-.216-.105-.33-.193-.388-.114-.073-.278-.11-.503-.11z"/><path d="M7.623 14.512h1.292l-.149.82H7.462l-.135.727h2.08l.417-2.267H7.748z"/></g><metadata><rdf:RDF xmlns:rdf="http://www.w3.org/1999/02/22-rdf-syntax-ns#" xmlns:rdfs="http://www.w3.org/2000/01/rdf-schema#" xmlns:dc="http://purl.org/dc/elements/1.1/"><rdf:Description about="https://iconscout.com/legal#licenses" dc:title="neteller,payments,pay,online,send,money,credit,card,ecommerce" dc:description="neteller,payments,pay,online,send,money,credit,card,ecommerce" dc:publisher="Iconscout" dc:date="2017-11-29" dc:format="image/svg+xml" dc:language="en"><dc:creator><rdf:Bag><rdf:li>Those Icons</rdf:li></rdf:Bag></dc:creator></rdf:Description></rdf:RDF></metadata></svg>