<?xml version="1.0" encoding="UTF-8"?><svg xmlns="http://www.w3.org/2000/svg" xmlns:xlink="http://www.w3.org/1999/xlink" version="1.1" id="Layer_1" x="0px" y="0px" viewBox="0 0 30 30" xml:space="preserve"><g fill="#000000"><path d="M28 4H2C.897 4 0 4.897 0 6v18c0 1.103.897 2 2 2h26c1.103 0 2-.897 2-2V6c0-1.103-.897-2-2-2zM18 18h-.559l-.445 3.562A.5.5 0 0 1 16.5 22h-3.927a1 1 0 0 1-.754-.343.986.986 0 0 1-.226-.657H9.09a1 1 0 0 1-.986-1.164l1.833-11A.998.998 0 0 1 10.923 8H16.5c1.404 0 2.609.836 3.166 2.032 1.863.16 3.334 1.7 3.334 3.593C23 16.16 20.897 18 18 18z"/><path d="M19.316 10h-5.38c-.498 0-.923.372-.99.865l-.623 4.568a.498.498 0 0 0 .495.567H15.5c2.481 0 4.5-2.019 4.5-4.5 0-.382-.07-.764-.212-1.167a.5.5 0 0 0-.472-.333z"/></g><metadata><rdf:RDF xmlns:rdf="http://www.w3.org/1999/02/22-rdf-syntax-ns#" xmlns:rdfs="http://www.w3.org/2000/01/rdf-schema#" xmlns:dc="http://purl.org/dc/elements/1.1/"><rdf:Description about="https://iconscout.com/legal#licenses" dc:title="paypal,payments,pay,online,send,money,credit,card,ecommerce" dc:description="paypal,payments,pay,online,send,money,credit,card,ecommerce" dc:publisher="Iconscout" dc:date="2017-11-29" dc:format="image/svg+xml" dc:language="en"><dc:creator><rdf:Bag><rdf:li>Those Icons</rdf:li></rdf:Bag></dc:creator></rdf:Description></rdf:RDF></metadata></svg>