<?xml version="1.0" encoding="UTF-8"?><svg xmlns="http://www.w3.org/2000/svg" xmlns:xlink="http://www.w3.org/1999/xlink" version="1.1" id="Layer_1" x="0px" y="0px" viewBox="0 0 30 30" xml:space="preserve"><g fill="#000000"><path d="M13.836 19.92h-.46a.243.243 0 0 0-.128.027c-.019.018-.028.064-.028.138v.147h.01c0 .037.018.064.045.083.028.027.065.036.11.036h.46c.102 0 .157-.036.157-.12v-.174c0-.092-.055-.138-.166-.138z"/><path d="M17.69 19.137h-.413c-.055 0-.101.01-.13.046-.036.028-.063.065-.063.11v.249l.745-.276v-.018a.112.112 0 0 0-.037-.083.186.186 0 0 0-.101-.028z"/><path d="M4.242 19.146h-.47c-.11.01-.165.065-.165.184v.837c0 .12.065.175.193.184h.423c.046 0 .083-.018.11-.046s.047-.055.047-.1v-.911c0-.102-.046-.148-.138-.148z"/><path d="M6.67 19.92h-.46c-.064 0-.1.008-.128.027-.019.018-.028.064-.028.138v.147h.01c0 .037.018.064.045.083.028.027.065.036.11.036h.46c.102 0 .157-.036.157-.12v-.174c0-.092-.055-.138-.166-.138z"/><path d="M21.389 19.606a.519.519 0 0 0-.13.36v.367c0 .074.01.138.02.193.008.065.054.12.11.166.1.083.22.129.35.129h.726c.303 0 .46-.166.46-.488v-.865h-1.196a.43.43 0 0 0-.34.138z"/><path d="M25.5 18.677a.38.38 0 0 0-.202.129.62.62 0 0 0-.12.184.806.806 0 0 0-.027.22v1.123c0 .184.055.313.166.386a.806.806 0 0 0 .405.101h.496c.184 0 .34-.045.45-.128.12-.083.176-.22.185-.414l.009-1.628h-1.14a.806.806 0 0 0-.221.027z"/><path d="M28 4H2C.897 4 0 4.897 0 6v18c0 1.103.897 2 2 2h26c1.103 0 2-.897 2-2V6c0-1.103-.897-2-2-2zm-15.525 7.42A2.53 2.53 0 0 1 14.995 9a2.524 2.524 0 0 1 2.52 2.3c.02.147.029.303.02.469a1.426 1.426 0 0 0-.69-.331c-.175-.856-.939-1.5-1.84-1.5s-1.665.644-1.84 1.5a1.862 1.862 0 0 0-.295.1 1.495 1.495 0 0 0-.404.25c0-.13 0-.25.009-.369zm-7.506 9.005a.51.51 0 0 1-.166.377.582.582 0 0 1-.396.175h-.81v.91H3v-2.713c0-.212.046-.368.138-.478a.832.832 0 0 1 .175-.12.477.477 0 0 1 .22-.046h.856c.377 0 .57.212.58.626v1.269zm2.474-.037a.606.606 0 0 1-.147.405.507.507 0 0 1-.396.166h-.818c-.405 0-.608-.184-.608-.552v-.497c0-.377.194-.57.58-.58h.8l-.009-.055c0-.092-.046-.138-.156-.138H5.474v-.616h1.362c.396 0 .598.202.607.58v1.287zm2.447.828a.76.76 0 0 1-.147.479.512.512 0 0 1-.405.183H7.931v-.616h1.195a.22.22 0 0 0 .13-.046.148.148 0 0 0 .045-.101v-.147H8.53a.566.566 0 0 1-.24-.037c-.064-.018-.128-.064-.193-.129s-.101-.138-.129-.202-.036-.147-.036-.249v-1.82h.598v1.627c0 .129.055.193.156.193h.423c.046 0 .092-.018.129-.046s.055-.064.055-.1V18.53h.598v2.685zm2.318-2.07H11.15c-.129 0-.184.037-.184.11v.056c0 .083.065.12.193.12h.534c.138 0 .267.055.359.165.101.11.156.23.156.377v.451c0 .129-.064.258-.175.377a.506.506 0 0 1-.165.129.808.808 0 0 1-.24.028h-1.26v-.608h1.077c.1 0 .147-.046.147-.12v-.054c0-.019 0-.037-.01-.056-.018-.045-.055-.073-.091-.073h-.534a.587.587 0 0 1-.405-.156.44.44 0 0 1-.174-.36v-.46c0-.358.202-.542.588-.542h1.242v.616zm.129-3.725v-2.364c.01-.433.11-.764.294-.994.092-.092.221-.175.368-.239a1.18 1.18 0 0 1 .451-.101h3.026c.792.01 1.187.441 1.196 1.288v2.456c-.009.855-.414 1.278-1.196 1.288H13.45a1.18 1.18 0 0 1-.45-.101 1.34 1.34 0 0 1-.369-.24c-.193-.23-.285-.56-.294-.993zm2.272 4.967a.606.606 0 0 1-.147.405.507.507 0 0 1-.396.166h-.818c-.405 0-.607-.184-.607-.552v-.497c0-.377.193-.57.579-.58h.8l-.009-.055c0-.092-.046-.138-.156-.138H12.64v-.616H14c.396 0 .599.202.608.58v1.287zm1.518-2.17h-.23c-.129 0-.193.064-.193.183v.13h.423v.615h-.432v1.822h-.598V18.18c0-.166.064-.304.184-.405s.266-.157.46-.157h.386v.598zm2.318 1.38l-1.361.542v.037c0 .046.009.092.036.12.019.036.046.054.083.054h1.233v.617H17.12a.737.737 0 0 1-.276-.037.428.428 0 0 1-.193-.12.66.66 0 0 1-.138-.202.824.824 0 0 1-.037-.285V19.09c.01-.377.203-.56.59-.57h.809c.377 0 .56.202.57.589v.487zm2.143 1.36l-.874.01c-.092 0-.174-.01-.248-.019a.47.47 0 0 1-.24-.11c-.082-.074-.137-.147-.165-.24s-.046-.183-.046-.294v-1.159c0-.092 0-.174.028-.248a.655.655 0 0 1 .129-.212.47.47 0 0 1 .23-.138c.073-.018.156-.027.257-.027h.92v.138h-.901c-.157 0-.286.027-.378.101-.092.074-.137.193-.137.368v1.15c0 .083.009.156.036.239a.448.448 0 0 0 .13.193.463.463 0 0 0 .192.092c.065.01.138.019.212.019h.855v.138zm2.475-.404a.476.476 0 0 1-.12.22.605.605 0 0 1-.469.194h-.717a.619.619 0 0 1-.451-.166.602.602 0 0 1-.184-.46v-.368c0-.414.211-.634.625-.644h1.187v-.165a.521.521 0 0 0-.12-.35.418.418 0 0 0-.174-.138.806.806 0 0 0-.221-.027h-1.297v-.138h1.233c.11 0 .211.009.303.018.046.01.092.028.129.055a.653.653 0 0 1 .12.11.77.77 0 0 1 .165.497l.01 1.113c0 .092-.01.175-.02.249zm1.545-1.904h-.184c-.33 0-.496.184-.496.542v1.767h-.138v-1.757c-.01-.46.211-.69.662-.69h.156v.138zM27 20.287c-.01.47-.258.69-.736.68h-.533c-.11 0-.212-.008-.304-.027-.092-.018-.175-.083-.267-.165a.585.585 0 0 1-.12-.24 1.187 1.187 0 0 1-.027-.266V19.21c0-.47.248-.708.718-.7h1.131v-.8H27v2.576z"/></g><metadata><rdf:RDF xmlns:rdf="http://www.w3.org/1999/02/22-rdf-syntax-ns#" xmlns:rdfs="http://www.w3.org/2000/01/rdf-schema#" xmlns:dc="http://purl.org/dc/elements/1.1/"><rdf:Description about="https://iconscout.com/legal#licenses" dc:title="paysafe,card,payments,pay,online,send,money,credit,ecommerce" dc:description="paysafe,card,payments,pay,online,send,money,credit,ecommerce" dc:publisher="Iconscout" dc:date="2017-11-29" dc:format="image/svg+xml" dc:language="en"><dc:creator><rdf:Bag><rdf:li>Those Icons</rdf:li></rdf:Bag></dc:creator></rdf:Description></rdf:RDF></metadata></svg>