<?xml version="1.0" encoding="UTF-8"?><svg xmlns="http://www.w3.org/2000/svg" xmlns:xlink="http://www.w3.org/1999/xlink" version="1.1" id="Layer_1" x="0px" y="0px" viewBox="0 0 30 30" xml:space="preserve"><g fill="#000000"><path d="M12.669 15.666h-.548l-.225 1.2h.525c.9-.018.865-.67.865-.67-.063-.542-.617-.53-.617-.53z"/><path d="M28 4H2C.897 4 0 4.897 0 6v18c0 1.103.897 2 2 2h26c1.103 0 2-.897 2-2V6c0-1.103-.897-2-2-2zm-10.952 9.533h-5.95l1.045-5.428 4.905 5.428zm-5.842-5.478l-1.021 5.484-6.036-.003 7.057-5.481zM4 14.345h6.055l-1.1 5.523L4 14.344zm7.629 3.867l-.355 1.69H9.867l1.061-5.557 1.854.005s1.336.046 1.761.979c.425.933-.162 1.95-.268 2.03-.107.082-.497.974-2.646.853zm5.501 1.639h-2.986l1.054-5.503 1.441-.002-.796 4.235 1.52.003-.233 1.267zm2.257.139c-2.324-.136-1.883-1.924-1.883-1.924l.703-3.689 1.397-.002-.63 3.507s-.247.775.544.84c.654.055.74-.65.772-.673l.716-3.672h1.424s-.183.962-.645 3.499c-.437 2.393-2.398 2.114-2.398 2.114zm6.558-3.865H24.62s.015-.43-.086-.542c-.14-.156-.398-.087-.398-.087s-.377.067-.357.42.37.51.37.51c1.673.71 1.522 1.755 1.522 1.755.004 1.764-1.983 1.802-1.983 1.802-2.373-.108-1.781-1.932-1.781-1.932l1.37.001c.012 0-.118.75.506.709.553-.036.525-.747.257-.938-.269-.19-.421-.204-1.156-.683-.736-.478-.515-1.404-.515-1.404.346-1.56 1.944-1.46 1.944-1.46 2.15.023 1.632 1.849 1.632 1.849z"/></g><metadata><rdf:RDF xmlns:rdf="http://www.w3.org/1999/02/22-rdf-syntax-ns#" xmlns:rdfs="http://www.w3.org/2000/01/rdf-schema#" xmlns:dc="http://purl.org/dc/elements/1.1/"><rdf:Description about="https://iconscout.com/legal#licenses" dc:title="plus,payments,pay,online,send,money,credit,card,ecommerce" dc:description="plus,payments,pay,online,send,money,credit,card,ecommerce" dc:publisher="Iconscout" dc:date="2017-11-29" dc:format="image/svg+xml" dc:language="en"><dc:creator><rdf:Bag><rdf:li>Those Icons</rdf:li></rdf:Bag></dc:creator></rdf:Description></rdf:RDF></metadata></svg>