<?xml version="1.0" encoding="UTF-8"?><svg xmlns="http://www.w3.org/2000/svg" xmlns:xlink="http://www.w3.org/1999/xlink" version="1.1" id="Layer_1" x="0px" y="0px" viewBox="0 0 30 30" xml:space="preserve"><path fill="#000000" d="M28 4H2C.897 4 0 4.897 0 6v18c0 1.103.897 2 2 2h26c1.103 0 2-.897 2-2V6c0-1.103-.897-2-2-2zm-6.199 18.416c-.107.016-.085-.097-.13-.145-.035-.056-.078-.105-.101-.173-.17-.178-.321-.373-.506-.535-.184-.159-.364-.321-.579-.448a4.364 4.364 0 0 0-1.417-.651c-.537-.156-1.139-.218-1.837-.174-.306.04-.598.096-.853.188-.274.068-.58.106-.882.145-1.184.073-2.502-.21-3.384-.636a5.319 5.319 0 0 1-1.273-.796c-.2-.145-.365-.328-.535-.506-.155-.187-.317-.367-.434-.593-.154-.192-.246-.448-.376-.665-.084-.257-.204-.48-.26-.766a3.844 3.844 0 0 1-.173-.868c-.005-.087-.044-.255-.044-.39 0-.013.016-.023.015-.044-.007-.123-.036-.313 0-.42-.007-.286.045-.638.101-.91a5.31 5.31 0 0 1 .217-.81c.086-.261.2-.494.303-.738.07-.104.123-.224.188-.332.056-.114.139-.2.189-.319.055-.03.065-.107.115-.144.022-.065.083-.091.101-.16a.492.492 0 0 0 .116-.144c.044-.043.09-.084.116-.145.172-.17.326-.358.506-.52.179-.168.38-.315.564-.477.117-.056.202-.145.318-.203.088-.08.216-.121.304-.202.241-.106.446-.248.708-.333.226-.116.497-.188.752-.275a6.126 6.126 0 0 1 1.808-.217c.025.003.037-.024.043 0 1.31.04 2.266.435 3.08.97a5.465 5.465 0 0 1 1.88 2.154c.439.889.685 2.097.478 3.37a6.82 6.82 0 0 1-.477 1.547c-.119.22-.224.451-.362.65a1.93 1.93 0 0 1-.202.304.612.612 0 0 1-.101.145c-.017.027-.038.049-.058.073-.007.012-.013.025-.03.029.005.025-.013.03-.014.014a2.17 2.17 0 0 0-.694-1.215 1.78 1.78 0 0 0-.42-.304 1.476 1.476 0 0 0-.245-.115 1.47 1.47 0 0 0-.694-.116c.144-.073.358-.076.578-.072.183.02.335.07.492.115.131.072.261.144.39.217.317-.947.196-2.244-.159-3.08-.343-.877-.84-1.598-1.489-2.17a4.958 4.958 0 0 0-2.415-1.243 3.986 3.986 0 0 0-1.591.014c-.48.127-.88.335-1.23.593-.324.288-.639.586-.853.984-.077.077-.11.198-.173.29-.045.109-.094.213-.145.317-.074.229-.16.447-.202.709a4.592 4.592 0 0 0-.058 1.634c.06.548.22.995.39 1.432.106.203.202.416.318.607.111.193.248.36.377.535.291.316.604.61.968.854.74.48 1.587.852 2.748.91.023-.047-.031-.141-.043-.202-.017-.07-.024-.15-.044-.217a2.133 2.133 0 0 1 0-.491c.046.011.045.07.073.1.024.029.034.073.072.087.03.082.092.13.13.203.11.112.194.25.333.332.11.112.257.186.39.275.144.074.266.168.434.217.288.151.673.205 1.056.26.386.053.759.119 1.113.203.327.112.66.218.926.39.14.081.28.165.405.26.061.05.139.083.188.145.076.03.11.103.188.13.224.214.446.431.637.68.078.143.185.257.245.42.053.057.068.153.116.216.003.082.082.181.014.246zm-2.514-4.034c.003.113.012.233-.072.26-.17-.067-.198-.275-.275-.434-.014-.059-.025-.147 0-.203.012-.002.015-.014.03-.014.042-.027.082.007.144.029.083.095.136.22.173.362zm-.94.491a.308.308 0 0 1-.246.275c-.345.006-.541-.312-.419-.636.069-.057.118-.133.26-.116.003-.016.015-.008.015 0 .256.033.374.204.39.477z"/><metadata><rdf:RDF xmlns:rdf="http://www.w3.org/1999/02/22-rdf-syntax-ns#" xmlns:rdfs="http://www.w3.org/2000/01/rdf-schema#" xmlns:dc="http://purl.org/dc/elements/1.1/"><rdf:Description about="https://iconscout.com/legal#licenses" dc:title="qiwi,payments,pay,online,send,money,credit,card,ecommerce" dc:description="qiwi,payments,pay,online,send,money,credit,card,ecommerce" dc:publisher="Iconscout" dc:date="2017-11-29" dc:format="image/svg+xml" dc:language="en"><dc:creator><rdf:Bag><rdf:li>Those Icons</rdf:li></rdf:Bag></dc:creator></rdf:Description></rdf:RDF></metadata></svg>