<?xml version="1.0" encoding="UTF-8"?><svg xmlns="http://www.w3.org/2000/svg" xmlns:xlink="http://www.w3.org/1999/xlink" version="1.1" id="Layer_1" x="0px" y="0px" viewBox="0 0 30 30" xml:space="preserve"><g fill="#000000"><path d="M8.979 14.823h-.31v.754h.327c.255 0 .454-.1.454-.38 0-.256-.185-.374-.471-.374z"/><path d="M20.279 15.066c0 .39.12.608.386.608.307 0 .479-.367.479-.698v-.6a1.413 1.413 0 0 0-.308-.035c-.331 0-.557.203-.557.725z"/><path d="M16.78 14.353c-.253 0-.498.195-.498.639 0 .436.171.666.494.666.27 0 .495-.21.495-.658 0-.413-.16-.647-.49-.647z"/><path d="M9.366 14.079c0-.222-.135-.33-.384-.33H8.67v.683h.29c.219 0 .407-.118.407-.353z"/><path d="M6.864 13.752h-.26v.751h.202c.273 0 .469-.118.469-.374 0-.225-.142-.377-.411-.377z"/><path d="M28 4H2C.897 4 0 4.897 0 6v18c0 1.103.897 2 2 2h26c1.103 0 2-.897 2-2V6c0-1.103-.897-2-2-2zM3.064 13.688a.213.213 0 0 1 0-.303.214.214 0 0 1 .303 0l.488.488v-.337a.214.214 0 0 1 .428 0v.428c0 .09-.054.175-.135.202-.225.08-.303.3-.303.3a.22.22 0 0 1-.202.14h-.428A.217.217 0 0 1 3 14.392c0-.117.08-.211.215-.211l.344.003-.495-.495zm1.222 2.077a.212.212 0 0 1-.215.213c-.118 0-.212-.078-.209-.213l.003-.343-.495.495a.213.213 0 0 1-.303 0 .213.213 0 0 1 0-.303l.485-.488H3.22a.215.215 0 0 1-.216-.216c0-.118.095-.215.216-.215h.427c.092 0 .172.053.203.134.077.23.296.307.296.307.084.03.141.107.141.202v.427zm1.31-.15a.213.213 0 0 1 0 .302.213.213 0 0 1-.302 0l-.489-.488v.336a.21.21 0 0 1-.215.216.217.217 0 0 1-.216-.216v-.427c0-.091.058-.175.138-.202.226-.077.303-.3.303-.3a.22.22 0 0 1 .202-.141h.428c.118 0 .216.097.216.215a.208.208 0 0 1-.216.212l-.343-.003.495.495zm-.148-1.011h-.427c-.09 0-.175-.054-.202-.135-.078-.225-.3-.306-.3-.306a.216.216 0 0 1-.141-.202v-.428c0-.118.097-.212.215-.212s.212.087.212.212l-.003.343.495-.495a.214.214 0 0 1 .303 0 .217.217 0 0 1 0 .307l-.488.485h.336c.118 0 .216.098.216.215a.217.217 0 0 1-.216.216zm1.9 1.374c-.155-.32-.44-.825-.609-1.088h-.135v1.088H6.1v-2.63h.832c.546 0 .873.263.873.788 0 .36-.26.583-.532.674.175.239.511.825.68 1.168h-.603zm1.661 0h-.848v-2.63h.892c.512 0 .848.25.848.687 0 .31-.205.485-.4.562.27.071.488.256.488.603 0 .458-.354.778-.98.778zm1.775.023c-.229 0-.516-.037-.66-.08l.114-.472c.105.047.334.122.546.122.256 0 .448-.112.448-.337 0-.192-.118-.293-.448-.421-.337-.132-.613-.293-.613-.771 0-.468.367-.727.93-.727.239 0 .481.046.626.094l-.111.458a1.116 1.116 0 0 0-.515-.122c-.273 0-.394.105-.394.283 0 .182.134.25.427.377.404.172.657.344.657.795 0 .499-.397.801-1.007.801zm3.984-.024l-.448-1.624c-.047-.16-.074-.327-.102-.495h-.003c-.02.164-.051.324-.094.487l-.444 1.632h-.499l-.681-2.629h.452l.405 1.597c.046.175.078.343.101.518h.004c.027-.171.058-.339.105-.498l.448-1.617h.464l.459 1.62c.039.14.078.316.105.483h.004c.027-.163.055-.315.094-.46l.409-1.643h.424l-.682 2.63h-.521zm1.97.04c-.538 0-.889-.3-.889-.982 0-.584.378-1.032.966-1.032.518 0 .885.288.885.97 0 .595-.39 1.043-.963 1.043zm2.185-1.602c-.386-.074-.573.195-.573.776v.786h-.417v-1.936h.398c0 .11-.012.281-.04.429h.008c.086-.261.281-.503.643-.464l-.02.41zm.659 1.562h-.417v-2.654h.417v2.654zm1.974 0h-.393c0-.101.008-.253.027-.362h-.007a.667.667 0 0 1-.631.401c-.476 0-.713-.35-.713-.911 0-.666.385-1.095 1.013-1.095.093 0 .186.008.292.016v-.703h.412v2.654zm.924-.962c-.059 0-.129 0-.195-.007v.97h-.425v-2.63c.203-.008.429-.015.674-.015.624 0 .966.303.966.79 0 .51-.408.892-1.02.892zm2.236.6c-.093.23-.334.401-.642.401-.331 0-.542-.222-.542-.537 0-.436.433-.674 1.142-.674v-.113c0-.238-.102-.366-.406-.366-.179 0-.397.058-.553.14l-.081-.335c.194-.074.455-.128.705-.128.588 0 .752.257.752.642v.803c0 .167.003.366.011.53h-.401c0-.125.004-.254.02-.359l-.005-.004zm1.501.499c-.241.646-.499.845-.938.845-.075 0-.18-.012-.246-.023l.047-.363c.066.02.16.031.237.031.183 0 .355-.09.483-.436l.07-.19-.724-1.937h.468l.315.885c.062.171.109.342.152.506h.004c.039-.156.12-.409.19-.604l.277-.787H27l-.783 2.073z"/><path d="M23.934 15.428c0 .148.1.261.264.261.285 0 .476-.272.476-.549v-.055c-.58 0-.74.16-.74.343z"/><path d="M22.503 13.68c-.082 0-.148 0-.218.007v.962c.059.008.125.016.187.016.354-.004.588-.199.588-.507 0-.3-.175-.479-.557-.479z"/></g><metadata><rdf:RDF xmlns:rdf="http://www.w3.org/1999/02/22-rdf-syntax-ns#" xmlns:rdfs="http://www.w3.org/2000/01/rdf-schema#" xmlns:dc="http://purl.org/dc/elements/1.1/"><rdf:Description about="https://iconscout.com/legal#licenses" dc:title="rbs,worldpay,payments,pay,online,send,money,credit,card,ecommerce" dc:description="rbs,worldpay,payments,pay,online,send,money,credit,card,ecommerce" dc:publisher="Iconscout" dc:date="2017-11-29" dc:format="image/svg+xml" dc:language="en"><dc:creator><rdf:Bag><rdf:li>Those Icons</rdf:li></rdf:Bag></dc:creator></rdf:Description></rdf:RDF></metadata></svg>