<?xml version="1.0" encoding="UTF-8"?><svg xmlns="http://www.w3.org/2000/svg" xmlns:xlink="http://www.w3.org/1999/xlink" version="1.1" id="Layer_1" x="0px" y="0px" viewBox="0 0 30 30" xml:space="preserve"><g fill="#000000"><path d="M14.013 14.089c-.292 0-.595.11-.765.367a.894.894 0 0 0-.137.502h1.822a.855.855 0 0 0-.161-.524c-.176-.236-.472-.345-.759-.345z"/><path d="M11.93 14.678c-.017-.196-.18-.35-.391-.435a1.043 1.043 0 0 0-.391-.075c-.175.001-.356.06-.499.142-.157.09-.269.208-.278.305-.02.2-.037.403-.043.593-.01.301.005.57.081.737.09.199.397.341.739.361a.845.845 0 0 0 .584-.194.558.558 0 0 0 .202-.322c.043-.19.048-.385.038-.592-.008-.165-.026-.338-.042-.52z"/><path d="M18.091 13.676c-.433 0-.745.138-.936.415-.192.276-.288.633-.288 1.07 0 .413.1.764.298 1.052.198.287.507.431.926.431.374 0 .658-.147.852-.442.194-.294.29-.642.29-1.042 0-.405-.095-.753-.287-1.045-.191-.293-.476-.439-.855-.439z"/><path d="M8.362 14.915c.33.017.786.002.786.002s.048-.46 0-.535c-.076-.12-.225-.225-.743-.226-.379 0-.522 0-.928.298 0 .014-.349-.321-.349-.321l-.33.321a1.898 1.898 0 0 0-.952-.321c-.154-.008-.42-.013-.64.125-.154.096-.176.36-.066.452.19.16.54.167.92.188.297.017.496-.008.775.126.153.074.293.177.293.177.164-.143.326-.215.562-.256.263-.045.41-.044.672-.03z"/><path d="M8.2 15.543c-.173.002-.461.034-.586.2a.326.326 0 0 0-.039.342c.094.228.324.246.566.277.29.037.563.008.734-.048.378-.124.298-.512.273-.77H8.2z"/><path d="M28 4H2C.897 4 0 4.897 0 6v18c0 1.103.897 2 2 2h26c1.103 0 2-.897 2-2V6c0-1.103-.897-2-2-2zM15.54 15.586l-2.448-.003c0 .33.04.372.154.502.212.242.604.307.95.261.298-.04.56-.192.737-.343l.52.39a1.99 1.99 0 0 1-.26.233c-.172.127-.363.222-.58.282-.465.127-.883.122-1.25.005a1.753 1.753 0 0 1-.543-.287l-.021-.015v.015c-.007.19-.012.348-.056.565-.084.408-.218.673-.566.89-.526.327-1.29.434-1.942.12a1.679 1.679 0 0 1-.543-.382l.603-.423c.353.261.749.424 1.183.242.252-.105.491-.292.505-.566l-.001-.443c-.476.38-1.28.5-1.785.182-.088-.056-.214-.163-.214-.163v.343h-.796v-.343c-.284.343-.588.328-.997.347-.65.031-.918-.22-1.122-.365-.251.171-.543.28-.851.332a2.919 2.919 0 0 1-1.87-.335h-.002a2.492 2.492 0 0 1-.19-.118A2.696 2.696 0 0 1 4 16.387l.544-.461c.48.329.674.404 1.186.44.614.041.869-.272.869-.463 0-.163-.13-.274-.273-.301-.3-.059-.586-.059-.992-.107-.463-.054-.72-.18-.951-.503-.123-.173-.17-.505-.059-.792a.744.744 0 0 1 .22-.329c.312-.283.754-.392 1.214-.395.524-.003.996.154 1.37.355.388-.297.885-.361 1.378-.342.433.016.977.097 1.321.501.167-.197.339-.323.609-.409a1.77 1.77 0 0 1 .85-.073c.246.039.492.204.694.387v-.366h.824v.366c.185-.163.588-.41 1.122-.409 1.233.004 1.614.966 1.614 1.482v.618zm3.714.89c-.27.351-.658.527-1.163.527-.275 0-.523-.066-.744-.198a1.07 1.07 0 0 1-.466-.56l-.014 1.948h-.426v-4.774h.392v.663a1.2 1.2 0 0 1 .49-.562c.224-.135.48-.202.768-.202.51 0 .898.174 1.166.523.269.348.403.788.403 1.32 0 .526-.135.964-.406 1.315zm3.839.405a1.347 1.347 0 0 1-.277.027c-.203 0-.337-.048-.402-.145s-.099-.252-.099-.464c-.17.246-.348.425-.53.536-.183.112-.434.168-.754.168-.343 0-.623-.086-.842-.257-.219-.17-.328-.425-.328-.762 0-.306.083-.532.25-.678.167-.147.359-.242.575-.287s.484-.087.805-.125.531-.078.635-.118c.104-.04.156-.169.156-.385 0-.27-.08-.456-.24-.56-.16-.103-.385-.155-.673-.155-.28 0-.505.066-.676.2-.172.132-.257.336-.257.611h-.426c0-.392.13-.685.389-.879.259-.193.6-.29 1.024-.29.374 0 .682.08.923.243.241.162.362.455.362.88v1.852c0 .171.083.257.25.257.045 0 .09-.01.135-.027v.358zm1.383.561c-.121.295-.24.494-.357.597s-.303.154-.56.154c-.157 0-.265-.01-.323-.027v-.359c.112.018.209.027.29.027.197 0 .332-.056.404-.167.072-.112.14-.238.202-.376l.148-.396-1.393-3.476.458-.002 1.146 2.968 1.074-2.966h.426l-1.515 4.023z"/><path d="M21.727 15.186l-.9.159c-.36.112-.54.316-.54.612 0 .207.077.373.23.499a.836.836 0 0 0 .548.188c.338 0 .625-.1.862-.3a.985.985 0 0 0 .355-.79V15a.238.238 0 0 1-.115.088c-.054.022-.2.055-.44.097z"/></g><metadata><rdf:RDF xmlns:rdf="http://www.w3.org/1999/02/22-rdf-syntax-ns#" xmlns:rdfs="http://www.w3.org/2000/01/rdf-schema#" xmlns:dc="http://purl.org/dc/elements/1.1/"><rdf:Description about="https://iconscout.com/legal#licenses" dc:title="sage,pay,payments,online,send,money,credit,card,ecommerce" dc:description="sage,pay,payments,online,send,money,credit,card,ecommerce" dc:publisher="Iconscout" dc:date="2017-11-29" dc:format="image/svg+xml" dc:language="en"><dc:creator><rdf:Bag><rdf:li>Those Icons</rdf:li></rdf:Bag></dc:creator></rdf:Description></rdf:RDF></metadata></svg>