<?xml version="1.0" encoding="UTF-8"?><svg xmlns="http://www.w3.org/2000/svg" xmlns:xlink="http://www.w3.org/1999/xlink" version="1.1" id="Layer_1" x="0px" y="0px" viewBox="0 0 30 30" xml:space="preserve"><g fill="#000000"><path d="M12.106 14.594c0 1.262 1.26 1.296 1.26 2.064 0 .186-.132.44-.455.44-.494 0-1.079-.502-1.079-.502l-.298.985s.57.692 1.683.692c.927 0 1.616-.698 1.616-1.783 0-1.379-1.535-1.605-1.535-2.193 0-.108.034-.536.717-.536.465 0 .845.202.845.202l.433-1.289s-.293-.17-.886-.17c-1.539 0-2.3 1.028-2.3 2.09z"/><path d="M14.795 9.068a.33.33 0 0 0-.188-.064c-1.054 0-1.645 1.383-1.894 2.232l.895-.278c.213-1.112.717-1.67 1.187-1.89z"/><path d="M14.058 10.82l1.133-.352v-.064c0-.437-.058-.761-.148-.987-.358.153-.767.56-.985 1.402z"/><path d="M15.445 9.345c.08.231.131.523.131.886v.118l.549-.17c-.14-.424-.355-.794-.68-.834z"/><path d="M28 4H2C.897 4 0 4.897 0 6v18c0 1.103.897 2 2 2h26c1.103 0 2-.897 2-2V6c0-1.103-.897-2-2-2zM16.486 19.983L10 18.768s.832-6.437.864-6.664c.042-.3.052-.31.37-.41l1.026-.318c.22-.932.92-2.765 2.387-2.765.192 0 .414.103.593.34a.992.992 0 0 1 .053-.002c.63 0 .987.536 1.19 1.12l.34-.106c.05-.014.18-.035.247.032l.674.67.915.068a.11.11 0 0 1 .1.092c.007.057 1.241 8.398 1.241 8.398l-3.514.76z"/></g><metadata><rdf:RDF xmlns:rdf="http://www.w3.org/1999/02/22-rdf-syntax-ns#" xmlns:rdfs="http://www.w3.org/2000/01/rdf-schema#" xmlns:dc="http://purl.org/dc/elements/1.1/"><rdf:Description about="https://iconscout.com/legal#licenses" dc:title="shopify,payments,pay,online,send,money,credit,card,ecommerce" dc:description="shopify,payments,pay,online,send,money,credit,card,ecommerce" dc:publisher="Iconscout" dc:date="2017-11-29" dc:format="image/svg+xml" dc:language="en"><dc:creator><rdf:Bag><rdf:li>Those Icons</rdf:li></rdf:Bag></dc:creator></rdf:Description></rdf:RDF></metadata></svg>