<?xml version="1.0" encoding="UTF-8"?><svg xmlns="http://www.w3.org/2000/svg" xmlns:xlink="http://www.w3.org/1999/xlink" version="1.1" id="Layer_1" x="0px" y="0px" viewBox="0 0 30 30" xml:space="preserve"><g fill="#000000"><path d="M14.925 13.217h-1.07V15.4h1.07c.734 0 1.166-.397 1.166-1.088 0-.69-.423-1.096-1.166-1.096z"/><path d="M17.964 16.8c0 .353.31.578.786.578.604-.009 1.07-.397 1.07-.941v-.32l-1.001.07c-.561.034-.855.241-.855.612z"/><path d="M28 4H2C.897 4 0 4.897 0 6v18c0 1.103.897 2 2 2h26c1.103 0 2-.897 2-2V6c0-1.103-.897-2-2-2zM8.671 10.606c.288-.337.776-.59 1.179-.606.051.469-.137.939-.416 1.278-.28.338-.738.6-1.187.566-.062-.46.165-.938.424-1.238zm2.29 6.401c-.334.487-.68.973-1.225.982-.536.01-.708-.317-1.32-.317-.613 0-.804.308-1.311.327-.526.02-.927-.527-1.263-1.012-.688-.993-1.212-2.806-.507-4.03.35-.609.976-.994 1.655-1.003.516-.01 1.005.347 1.32.347.316 0 .909-.43 1.532-.367.26.011.993.105 1.463.794-.038.023-.874.51-.865 1.522.011 1.21 1.062 1.614 1.074 1.618-.01.029-.168.575-.553 1.139zm4.163-.89h-1.27v1.874H13V12.5h2.15c1.061 0 1.813.734 1.813 1.804s-.76 1.813-1.84 1.813zm5.516 1.865h-.785v-.69h-.018c-.224.448-.742.733-1.303.733-.838.009-1.407-.483-1.407-1.217 0-.725.56-1.14 1.58-1.209l1.113-.06v-.32c0-.474-.32-.733-.863-.733-.45 0-.777.233-.846.587h-.769c.026-.734.717-1.27 1.64-1.27 1.01 0 1.658.536 1.658 1.347v2.832zm2.815.19c-.354.993-.743 1.312-1.589 1.312a2.143 2.143 0 0 1-.328-.017v-.673c.06.017.19.017.26.017.388 0 .612-.164.75-.605l.06-.215-1.502-4.144h.89l1.062 3.375h.017l1.062-3.375H25l-1.545 4.325z"/></g><metadata><rdf:RDF xmlns:rdf="http://www.w3.org/1999/02/22-rdf-syntax-ns#" xmlns:rdfs="http://www.w3.org/2000/01/rdf-schema#" xmlns:dc="http://purl.org/dc/elements/1.1/"><rdf:Description about="https://iconscout.com/legal#licenses" dc:title="apple,pay,payments,online,send,money,credit,card,ecommerce" dc:description="apple,pay,payments,online,send,money,credit,card,ecommerce" dc:publisher="Iconscout" dc:date="2017-11-29" dc:format="image/svg+xml" dc:language="en"><dc:creator><rdf:Bag><rdf:li>Those Icons</rdf:li></rdf:Bag></dc:creator></rdf:Description></rdf:RDF></metadata></svg>