<?xml version="1.0" encoding="UTF-8"?><svg xmlns="http://www.w3.org/2000/svg" xmlns:xlink="http://www.w3.org/1999/xlink" version="1.1" id="Layer_1" x="0px" y="0px" viewBox="0 0 30 30" xml:space="preserve"><path fill="#000000" d="M28 4H2C.897 4 0 4.897 0 6v18c0 1.103.897 2 2 2h26c1.103 0 2-.897 2-2V6c0-1.103-.897-2-2-2zm-8.197 7.486a.903.903 0 1 1 0 1.806.903.903 0 0 1 0-1.806zM6.57 19c-.936 0-1.734-.093-2.442-.278V17.08a5.749 5.749 0 0 0 2.054.398c.733 0 1.168-.242 1.168-.654 0-.499-.532-.53-.732-.542C4.255 16.122 4 14.723 4 14.13c0-1.03.732-2.233 2.796-2.233 1.197 0 1.843.186 2.399.38l.028.01v1.593l-.02-.005a9.776 9.776 0 0 0-.487-.187c-.47-.141-1.13-.291-1.638-.291-.29 0-1.061 0-1.061.582 0 .482.536.517.767.532 1.698.114 2.71.945 2.71 2.223C9.493 17.862 8.588 19 6.57 19zm8.354-.076H12.66s-.27-1.236-.817-2.057v2.057h-1.89V12.27l1.89-.373v3.67c.709-.858 1.002-1.686 1.043-1.789h2.161a8.292 8.292 0 0 1-1.327 2.499s.98 1.716 1.204 2.647zm3.416-3.686c-1.073.036-1.191.424-1.191 1.328v2.358h-1.847v-2.892c0-1.51.86-2.269 2.552-2.323 0 0 .305-.012.486.026v1.503zm2.378 3.686h-1.832v-5.14h1.832v5.14zm2.606 0h-1.83v-6.7l1.83-.327v7.027zm2.675 0h-1.832v-6.7L26 11.897v7.027z"/><metadata><rdf:RDF xmlns:rdf="http://www.w3.org/1999/02/22-rdf-syntax-ns#" xmlns:rdfs="http://www.w3.org/2000/01/rdf-schema#" xmlns:dc="http://purl.org/dc/elements/1.1/"><rdf:Description about="https://iconscout.com/legal#licenses" dc:title="skrill,payments,pay,online,send,money,credit,card,ecommerce" dc:description="skrill,payments,pay,online,send,money,credit,card,ecommerce" dc:publisher="Iconscout" dc:date="2017-11-29" dc:format="image/svg+xml" dc:language="en"><dc:creator><rdf:Bag><rdf:li>Those Icons</rdf:li></rdf:Bag></dc:creator></rdf:Description></rdf:RDF></metadata></svg>