<?xml version="1.0" encoding="UTF-8"?><svg xmlns="http://www.w3.org/2000/svg" xmlns:xlink="http://www.w3.org/1999/xlink" version="1.1" id="Layer_1" x="0px" y="0px" viewBox="0 0 30 30" xml:space="preserve"><path fill="#000000" d="M28 4H2C.897 4 0 4.897 0 6v18c0 1.103.897 2 2 2h26c1.103 0 2-.897 2-2V6c0-1.103-.897-2-2-2zM15 23c-4.411 0-8-3.589-8-8s3.589-8 8-8 8 3.589 8 8-3.589 8-8 8z"/><path fill="#000000" d="M13.504 16.354a3.433 3.433 0 0 1 0-4.85c1.297-1.296 3.555-1.296 4.85 0l-.708.707c-.917-.917-2.516-.918-3.435 0a2.432 2.432 0 0 0 0 3.435l-.707.708z" id="XMLID_1148_"/><path fill="#000000" d="M14.064 19.5a3.405 3.405 0 0 1-2.424-1.004l.707-.707c.917.917 2.516.918 3.434 0a2.413 2.413 0 0 0 .712-1.718c0-.649-.253-1.259-.712-1.717l.707-.708c.649.648 1.005 1.51 1.005 2.425s-.356 1.777-1.005 2.425a3.405 3.405 0 0 1-2.424 1.004z" id="XMLID_1147_"/><metadata><rdf:RDF xmlns:rdf="http://www.w3.org/1999/02/22-rdf-syntax-ns#" xmlns:rdfs="http://www.w3.org/2000/01/rdf-schema#" xmlns:dc="http://purl.org/dc/elements/1.1/"><rdf:Description about="https://iconscout.com/legal#licenses" dc:title="solo,payments,pay,online,send,money,credit,card,ecommerce" dc:description="solo,payments,pay,online,send,money,credit,card,ecommerce" dc:publisher="Iconscout" dc:date="2017-11-29" dc:format="image/svg+xml" dc:language="en"><dc:creator><rdf:Bag><rdf:li>Those Icons</rdf:li></rdf:Bag></dc:creator></rdf:Description></rdf:RDF></metadata></svg>