<?xml version="1.0" encoding="UTF-8"?><svg xmlns="http://www.w3.org/2000/svg" xmlns:xlink="http://www.w3.org/1999/xlink" version="1.1" id="Layer_1" x="0px" y="0px" viewBox="0 0 30 30" xml:space="preserve"><g fill="#000000"><path d="M20.604 14.584c-.56 0-.966.419-.966.976 0 .552.414.958.966.958a.949.949 0 0 0 .945-.963c0-.526-.41-.97-.945-.97z"/><path d="M5 13v4h4v-4H5zm3 2.75a.25.25 0 0 1-.25.25h-1.5a.25.25 0 0 1-.25-.25v-1.5a.25.25 0 0 1 .25-.25h1.5a.25.25 0 0 1 .25.25v1.5z"/><path d="M15.038 14.584c-.561 0-.966.419-.966.976 0 .552.414.958.966.958a.949.949 0 0 0 .945-.963c0-.526-.41-.97-.945-.97z"/><path d="M24.765 14.584c-.47 0-.846.346-.92.807h1.844c-.078-.461-.449-.807-.924-.807z"/><path d="M28 4H2C.897 4 0 4.897 0 6v18c0 1.103.897 2 2 2h26c1.103 0 2-.897 2-2V6c0-1.103-.897-2-2-2zM10 17c0 .551-.448 1-1 1H5c-.552 0-1-.449-1-1v-4c0-.551.448-1 1-1h4c.552 0 1 .449 1 1v4zm3.064-.485a1.163 1.163 0 0 1-.775.284h-.003c-.309 0-.605-.119-.814-.327a.96.96 0 0 1-.29-.681h.312c0 .17.07.333.198.46.151.15.368.236.594.236h.003c.436 0 .79-.305.79-.68 0-.28-.156-.504-.912-.68-.308-.07-.516-.166-.654-.3-.148-.142-.22-.332-.22-.58 0-.49.44-.888.979-.888.258 0 .502.09.686.251.19.167.295.392.295.634h-.313c0-.316-.3-.572-.668-.572-.361 0-.666.263-.666.575 0 .285.098.453.631.576.57.132 1.153.352 1.155.984 0 .269-.117.52-.328.708zm3.204 1.173h-.302V16.32h-.009c-.202.31-.552.47-.919.47-.708 0-1.27-.531-1.27-1.243 0-.708.576-1.235 1.27-1.235.367 0 .717.16.92.475h.008v-.414h.302v3.315zm2.631-.951h-.286v-.369h-.009c-.139.29-.446.425-.759.425-.308 0-.62-.108-.815-.355-.17-.213-.208-.499-.208-.763v-1.31h.303v1.305c0 .49.178.85.72.85a.68.68 0 0 0 .503-.19c.209-.2.247-.435.247-.712v-1.253h.304v2.372zm2.935-.003h-.302v-.414h-.009c-.207.31-.552.47-.92.47-.706 0-1.268-.531-1.268-1.243 0-.708.574-1.235 1.269-1.235.371 0 .717.156.92.475h.008v-.414h.302v2.36zm1.578-2.102c-.414.034-.672.298-.672.72v1.382h-.303v-2.361h.303v.34h.008c.13-.301.358-.38.664-.4v.319zm2.583 1.032h-2.15c.022.466.454.854.916.854.362 0 .716-.207.846-.557h.319a1.236 1.236 0 0 1-1.16.829c-.683 0-1.23-.557-1.23-1.235 0-.673.547-1.243 1.225-1.243.69 0 1.239.583 1.239 1.265 0 .03-.005.056-.005.087z"/></g><metadata><rdf:RDF xmlns:rdf="http://www.w3.org/1999/02/22-rdf-syntax-ns#" xmlns:rdfs="http://www.w3.org/2000/01/rdf-schema#" xmlns:dc="http://purl.org/dc/elements/1.1/"><rdf:Description about="https://iconscout.com/legal#licenses" dc:title="square,payments,pay,online,send,money,credit,card,ecommerce" dc:description="square,payments,pay,online,send,money,credit,card,ecommerce" dc:publisher="Iconscout" dc:date="2017-11-29" dc:format="image/svg+xml" dc:language="en"><dc:creator><rdf:Bag><rdf:li>Those Icons</rdf:li></rdf:Bag></dc:creator></rdf:Description></rdf:RDF></metadata></svg>