<?xml version="1.0" encoding="UTF-8"?><svg xmlns="http://www.w3.org/2000/svg" xmlns:xlink="http://www.w3.org/1999/xlink" version="1.1" id="Layer_1" x="0px" y="0px" viewBox="0 0 30 30" xml:space="preserve"><path fill="#000000" d="M28 4H2C.897 4 0 4.897 0 6v18c0 1.103.897 2 2 2h26c1.103 0 2-.897 2-2V6c0-1.103-.897-2-2-2zM13.619 21a4.858 4.858 0 0 1-4.034-2.17l.83-.558A3.862 3.862 0 0 0 13.619 20c2.14 0 3.881-1.782 3.881-3.972 0-.808-.236-1.586-.682-2.249l.83-.558c.557.829.852 1.8.852 2.807C18.5 18.77 16.31 21 13.619 21zm6.457-9.192A3.809 3.809 0 0 0 16.836 10C14.721 10 13 11.747 13 13.893c0 .84.26 1.64.75 2.313l-.809.588a4.895 4.895 0 0 1-.941-2.9C12 11.193 14.17 9 16.836 9c1.667 0 3.195.851 4.088 2.276l-.848.532z"/><metadata><rdf:RDF xmlns:rdf="http://www.w3.org/1999/02/22-rdf-syntax-ns#" xmlns:rdfs="http://www.w3.org/2000/01/rdf-schema#" xmlns:dc="http://purl.org/dc/elements/1.1/"><rdf:Description about="https://iconscout.com/legal#licenses" dc:title="switch,payments,pay,online,send,money,credit,card,ecommerce" dc:description="switch,payments,pay,online,send,money,credit,card,ecommerce" dc:publisher="Iconscout" dc:date="2017-11-29" dc:format="image/svg+xml" dc:language="en"><dc:creator><rdf:Bag><rdf:li>Those Icons</rdf:li></rdf:Bag></dc:creator></rdf:Description></rdf:RDF></metadata></svg>