<?xml version="1.0" encoding="UTF-8"?><svg xmlns="http://www.w3.org/2000/svg" xmlns:xlink="http://www.w3.org/1999/xlink" version="1.1" id="Layer_1" x="0px" y="0px" viewBox="0 0 30 30" xml:space="preserve"><g fill="#000000"><path d="M16.71 17.113c-.01.332.508.538.923.246.381-.28.417-.864.417-.864-.128.123-.573.108-.814.154-.241.045-.515.133-.525.464z"/><path d="M9.535 13.26h-.919c-.067 0-.068.067-.068.067l-.532 2.514c-.186.882-.49 1.388-1.27 1.317-.781-.07-.597-.802-.597-.802l.586-2.775c.068-.32-.219-.32-.219-.32H6.16h-.563c-.073 0-.08.104-.08.104l-.555 2.63s-.093.31-.093.897c.135 1.306 1.783 1.301 1.783 1.301s.703.045 1.24-.15c1.08-.292 1.276-1.698 1.276-1.698l.586-2.775c.062-.294-.219-.31-.219-.31z"/><path d="M28 4H2C.897 4 0 4.897 0 6v18c0 1.103.897 2 2 2h26c1.103 0 2-.897 2-2V6c0-1.103-.897-2-2-2zM11.157 15.5c-.31 2.485-2.379 4.5-4.62 4.5s-3.808-2.015-3.498-4.5C3.35 13.015 5.42 11 7.66 11c2.242 0 3.808 2.015 3.497 4.5zm4.058 2.603h-1.119s-.016.019-.061-.045-.764-1.153-.764-1.153l-.173.82s-.045.37-.33.37h-.835s-.074.032-.04-.123l.976-4.623s.004-.089.072-.089h.728s.366.03.282.427l-.44 2.086 1.208-1.191h1.325s.064.03 0 .09-1.913 1.738-1.913 1.738l1.13 1.607s.043.086-.046.086zm4.045-1.913s-.279 1.197-.382 1.561c-.103.365-.371.354-.371.354s-.696-.002-.749 0c-.052.003-.035-.062-.035-.062l.062-.296c-.329.491-.924.446-1.202.446s-.555-.062-.824-.346c-.269-.284-.178-.882-.178-.882s.052-.326.27-.508c.462-.439 1.468-.441 1.699-.451.23-.01.602.004.689-.404.086-.41-.488-.38-.488-.38l-.239.018c-.219.015-.355.239-.377.343-.022.105-.08.1-.08.1h-.982c-.066 0-.033-.117-.033-.117s.03-.147.189-.442c.294-.57 1.136-.63 1.136-.63s.529-.076 1.1.037c.569.113.89.442.888.759-.002.316-.093.9-.093.9zm3.655-.566l-.947-.005s-.048.01-.056-.083c-.007-.093-.055-.344-.46-.342-.403.003-.499.222-.494.342s.078.254.751.384.97.372 1.035.725c.065.353-.014.865-.229 1.082-.214.217-.44.366-1.127.466-.734.033-1.015-.052-1.015-.052s-.864-.14-.904-1.144c-.003-.02.007-.06.041-.06h.96s.049 0 .056.073c.008.073.02.29.276.392.257.103.593.03.716-.078s.191-.392-.07-.492c-.261-.1-.88-.251-.88-.251s-.552-.11-.715-.58c-.083-.296-.032-.538-.032-.538s.014-.304.343-.595c.36-.312 1.02-.37 1.02-.37s.781-.06 1.193.134c.412.193.598.532.578.952.005.04-.04.04-.04.04zm4.069.014l-.45 2.123s-.1.33-.334.33h-.855s-.054.015-.026-.115l.408-1.93s.176-.693-.4-.686c-.574.008-.74.536-.779.72l-.35 1.655s-.1.354-.342.357c-.24.003-.828 0-.828 0s-.064.027-.04-.083l.993-4.706s.007-.043.053-.043h.828s.281.002.208.349l-.296 1.404s.346-.572 1.282-.523c.935.049.986.872.928 1.148z"/></g><metadata><rdf:RDF xmlns:rdf="http://www.w3.org/1999/02/22-rdf-syntax-ns#" xmlns:rdfs="http://www.w3.org/2000/01/rdf-schema#" xmlns:dc="http://purl.org/dc/elements/1.1/"><rdf:Description about="https://iconscout.com/legal#licenses" dc:title="ukash,payments,pay,online,send,money,credit,card,ecommerce" dc:description="ukash,payments,pay,online,send,money,credit,card,ecommerce" dc:publisher="Iconscout" dc:date="2017-11-29" dc:format="image/svg+xml" dc:language="en"><dc:creator><rdf:Bag><rdf:li>Those Icons</rdf:li></rdf:Bag></dc:creator></rdf:Description></rdf:RDF></metadata></svg>