<?xml version="1.0" encoding="UTF-8"?><svg xmlns="http://www.w3.org/2000/svg" xmlns:xlink="http://www.w3.org/1999/xlink" version="1.1" id="Layer_1" x="0px" y="0px" viewBox="0 0 30 30" xml:space="preserve"><g fill="#000000"><path d="M21.854 11.698l-.103-.443-.806 1.924h1.26z"/><path d="M28 4H2C.897 4 0 4.897 0 6v18c0 1.103.897 2 2 2h26c1.103 0 2-.897 2-2V6c0-1.103-.897-2-2-2zm-6.356 5.872h1.035c.08 0 .148.05.165.122l1.152 4.816a.148.148 0 0 1-.033.131.175.175 0 0 1-.132.059h-1.06a.167.167 0 0 1-.165-.123c-.036-.149-.121-.51-.155-.646h-1.088l-.854-.002-.277.67a.17.17 0 0 1-.158.101h-1.215a.173.173 0 0 1-.142-.07.146.146 0 0 1-.013-.15l2.145-4.483c.143-.298.38-.425.795-.425zm-7.016 3.935a.157.157 0 0 1 .085-.11.182.182 0 0 1 .147-.007c.453.174.774.256 1.37.256.417 0 .869-.15.873-.482.003-.217-.188-.372-.757-.614-.554-.237-1.29-.634-1.28-1.345.007-.96 1.023-1.632 2.47-1.632.51 0 .917.089 1.17.163.08.024.129.098.115.175l-.137.744c-.009.046-.04.086-.084.11s-.097.026-.144.01a2.86 2.86 0 0 0-1.032-.169c-.553 0-.84.213-.84.424-.004.234.311.387.825.617.839.35 1.23.777 1.223 1.342-.01 1.027-1.01 1.69-2.544 1.69h-.002c-.535-.005-1.093-.085-1.493-.215a.155.155 0 0 1-.11-.174l.145-.783zm-1.625-3.94h1.173c.05 0 .098.02.13.055a.148.148 0 0 1 .037.127l-.89 4.819a.166.166 0 0 1-.167.13h-1.172a.175.175 0 0 1-.13-.056.148.148 0 0 1-.037-.127l.89-4.819a.166.166 0 0 1 .166-.13zm-4 2.985l.154.518 1.443-3.4a.17.17 0 0 1 .158-.099h1.233c.057 0 .11.026.141.07.031.044.037.1.014.148l-2.241 4.809a.17.17 0 0 1-.155.094l-1.366.002a.168.168 0 0 1-.163-.112l-1.185-3.738a.15.15 0 0 1 .066-.173.18.18 0 0 1 .2.005c.853.605 1.465 1.368 1.693 1.856a.123.123 0 0 1 .007.02zM6.168 9.857l1.591.003h.007c.233.008.554.06.656.412l.002.008.282 1.231a.154.154 0 0 1-.095.175.181.181 0 0 1-.206-.048c-.53-.645-1.324-1.156-2.294-1.478-.078-.025-.124-.099-.11-.174s.085-.129.167-.129zM29 24c0 .551-.449 1-1 1H2c-.551 0-1-.449-1-1v-5h28v5z"/></g><g id="XMLID_1284_"><path fill-rule="evenodd" clip-rule="evenodd" fill="#000000" d="M6 20.732h2.2v.663H6.833l-.01.612h1.363v.635H6.82l.005.612h1.348v.663H6.001L6 20.732z" id="XMLID_1296_"/><path fill-rule="evenodd" clip-rule="evenodd" fill="#000000" d="M8.752 20.466h.801l.003 3.451h-.8l-.004-3.451z" id="XMLID_1295_"/><path fill-rule="evenodd" clip-rule="evenodd" fill="#000000" d="M12.308 23.655c-.272.23-.686.345-1.054.345-.842 0-1.224-.598-1.224-1.192 0-.7.524-1.293 1.247-1.293.884 0 1.16.626 1.16 1.422H10.83c0 .18.115.483.556.483.281 0 .438-.083.654-.23l.267.465zm-.59-1.188c0-.239-.114-.455-.381-.455-.253 0-.447.225-.497.455h.879z" id="XMLID_1292_"/><path fill-rule="evenodd" clip-rule="evenodd" fill="#000000" d="M14.867 23.76a1.82 1.82 0 0 1-.852.24c-.736 0-1.265-.423-1.265-1.187 0-.783.524-1.298 1.316-1.298.276 0 .608.087.787.202l-.258.525a.99.99 0 0 0-.377-.092c-.4 0-.667.24-.667.621 0 .332.257.594.598.594.152 0 .304-.07.432-.134l.286.53z" id="XMLID_1291_"/><path fill-rule="evenodd" clip-rule="evenodd" fill="#000000" d="M15.163 21.598h.362l-.003-.787h.773l-.018.787h.658l-.014.58h-.658c0 .322-.023.662-.023.86 0 .203.05.3.23.3.11 0 .202-.056.295-.111l.174.543c-.234.143-.52.23-.791.23-.65 0-.681-.41-.681-.943 0-.286.022-.571.022-.88h-.345l.019-.58z" id="XMLID_1290_"/><path fill-rule="evenodd" clip-rule="evenodd" fill="#000000" d="M17.344 21.598h.801v.326h.01c.12-.198.276-.39.589-.39.087 0 .179.008.262.027l-.106.791a.95.95 0 0 0-.285-.046c-.267 0-.474.226-.474.272l-.014 1.34h-.8l.017-2.32z" id="XMLID_1289_"/><path fill-rule="evenodd" clip-rule="evenodd" fill="#000000" d="M20.456 21.515c.857 0 1.298.543 1.298 1.242 0 .7-.441 1.243-1.298 1.243-.855 0-1.297-.543-1.297-1.243 0-.7.442-1.242 1.297-1.242zm0 1.877c.382 0 .498-.33.498-.635 0-.303-.116-.635-.498-.635-.381 0-.496.332-.496.635 0 .304.115.635.496.635z" id="XMLID_1286_"/><path fill-rule="evenodd" clip-rule="evenodd" fill="#000000" d="M22.19 21.598h.8v.253c.185-.18.465-.336.75-.336.493 0 .76.271.76.906 0 .474-.005.985-.01 1.496h-.8c.005-.446.01-.897.01-1.376 0-.189-.051-.336-.29-.336-.13 0-.314.11-.42.212l-.004 1.5h-.815l.019-2.32z" id="XMLID_1285_"/></g><metadata><rdf:RDF xmlns:rdf="http://www.w3.org/1999/02/22-rdf-syntax-ns#" xmlns:rdfs="http://www.w3.org/2000/01/rdf-schema#" xmlns:dc="http://purl.org/dc/elements/1.1/"><rdf:Description about="https://iconscout.com/legal#licenses" dc:title="visa,payments,pay,online,send,money,credit,card,ecommerce" dc:description="visa,payments,pay,online,send,money,credit,card,ecommerce" dc:publisher="Iconscout" dc:date="2017-11-29" dc:format="image/svg+xml" dc:language="en"><dc:creator><rdf:Bag><rdf:li>Those Icons</rdf:li></rdf:Bag></dc:creator></rdf:Description></rdf:RDF></metadata></svg>