<?xml version="1.0" encoding="UTF-8"?><svg xmlns="http://www.w3.org/2000/svg" xmlns:xlink="http://www.w3.org/1999/xlink" version="1.1" id="Layer_1" x="0px" y="0px" viewBox="0 0 30 30" xml:space="preserve"><g fill="#000000"><path d="M18.371 16.121c-.223 0-.271.209-.271.653 0 .423.055.632.268.632.216 0 .27-.212.27-.677 0-.417-.05-.608-.267-.608z"/><path d="M28 4H2C.897 4 0 4.897 0 6v18c0 1.103.897 2 2 2h26c1.103 0 2-.897 2-2V6c0-1.103-.897-2-2-2zM6.755 15.254h-.96l-.2-1.425-.196 1.425h-.976l-.472-2.2h.783l.202 1.354.206-1.354h.916l.206 1.39.206-1.39h.75l-.465 2.2zm2.753 0h-1.91v-2.2h1.878v.566h-.93v.235h.907v.566h-.908v.26h.963v.573zm.411-.707h.88v.018c0 .15.044.246.204.246.13 0 .182-.053.195-.138.009-.062-.013-.128-.08-.157a4.19 4.19 0 0 0-.58-.207c-.393-.113-.585-.291-.585-.6 0-.432.379-.709 1.092-.709.648 0 1 .234 1 .623v.092h-.812c.007-.144-.065-.242-.214-.242-.125 0-.178.06-.178.143 0 .153.174.147.475.248.562.19.787.309.787.71 0 .465-.384.717-1.09.717-.717 0-1.097-.245-1.097-.665 0-.024 0-.052.003-.08zm2.307 2.458c0 .624-.36.912-1.13.912-.418 0-.712-.074-.914-.27-.196-.19-.212-.389-.212-.642v-1.326h.91v1.36c0 .186.074.277.216.277.135 0 .216-.097.216-.278V15.68h.914v1.326zm.116-3.951h2.092v.587h-.579v1.613h-.93V13.64h-.583v-.587zm2.75 4.825h-1.065l-.49-1.255v1.255h-.72v-2.2h1.15l.406 1.12v-1.12h.719v2.2zm1.535 0h-.937v-2.2h.937v2.2zm.118-2.625h-1.91v-2.2h1.879v.566h-.931v.235h.899v.566h-.899v.26h.962v.573zm1.599 2.66c-.78 0-1.229-.416-1.229-1.147 0-.738.453-1.156 1.26-1.156.799 0 1.248.418 1.248 1.152 0 .747-.446 1.15-1.28 1.15zm.366-2.66a2.27 2.27 0 0 1-.071-.306l-.024-.162c-.035-.24-.068-.32-.287-.32-.024 0-.054 0-.085.004v.784h-.916v-2.2h1.281c.669 0 .946.13.946.57 0 .264-.188.454-.439.515.247.05.368.169.409.487l.03.236c.014.098.044.23.085.392h-.93zm1.389-2.2h1.15l.406 1.12v-1.12h.719v2.2h-1.065l-.49-1.255v1.255h-.72v-2.2zm2.297 4.825H21.33l-.49-1.255v1.255h-.72v-2.2h1.15l.406 1.12v-1.12h.719v2.2zm1.24.106h-.196v-4.94h.195v4.94zM26 18h-.196v-4.94H26V18z"/><path d="M18.348 13.543c-.03 0-.064 0-.105.003v.384a.518.518 0 0 0 .068.003c.22 0 .334-.063.334-.203 0-.136-.09-.187-.297-.187z"/></g><metadata><rdf:RDF xmlns:rdf="http://www.w3.org/1999/02/22-rdf-syntax-ns#" xmlns:rdfs="http://www.w3.org/2000/01/rdf-schema#" xmlns:dc="http://purl.org/dc/elements/1.1/"><rdf:Description about="https://iconscout.com/legal#licenses" dc:title="western,union,payments,pay,online,send,money,credit,card,ecommerce" dc:description="western,union,payments,pay,online,send,money,credit,card,ecommerce" dc:publisher="Iconscout" dc:date="2017-11-29" dc:format="image/svg+xml" dc:language="en"><dc:creator><rdf:Bag><rdf:li>Those Icons</rdf:li></rdf:Bag></dc:creator></rdf:Description></rdf:RDF></metadata></svg>