<?xml version="1.0" encoding="UTF-8"?><svg xmlns="http://www.w3.org/2000/svg" xmlns:xlink="http://www.w3.org/1999/xlink" version="1.1" id="Layer_1" x="0px" y="0px" viewBox="0 0 30 30" xml:space="preserve"><g fill="#000000"><path d="M18.574 16.06c0 .307.392.397.633.397.302 0 .772-.156.772-.59v-.514c-.21.14-.542.133-.844.187-.295.049-.56.157-.56.52z"/><path d="M13.067 14.256c-.476 0-.802.362-.82.826h1.604c-.024-.434-.32-.826-.784-.826z"/><path d="M28 4H2C.897 4 0 4.897 0 6v18c0 1.103.897 2 2 2h26c1.103 0 2-.897 2-2V6c0-1.103-.897-2-2-2zM7.559 16.915h-.706l-.58-2.316h-.011l-.573 2.316h-.724L4 13.797h.73l.61 2.328h.011l.585-2.328h.694l.56 2.328h.013l.633-2.328h.7l-.977 3.118zm1.938 0H8.81v-3.101h.686v3.101zm0-3.624H8.81v-.686h.686v.686zm1.066 2.14v1.484h-.687v-3.118h.645v.604h.012c.078-.332.488-.688.91-.688.157 0 .2.012.26.018v.663c-.096-.012-.199-.03-.295-.03-.471 0-.845.38-.845 1.068zm3.976.103h-2.292c0 .489.265.923.838.923.398 0 .64-.175.76-.519h.652c-.151.682-.73 1.062-1.412 1.062-.977 0-1.526-.682-1.526-1.64 0-.887.58-1.647 1.508-1.647.983 0 1.586.886 1.472 1.821zm1.707.923c.398 0 .675-.265.742-.712h.687c-.126.809-.627 1.255-1.43 1.255-.976 0-1.513-.694-1.513-1.61 0-.941.513-1.677 1.538-1.677.724 0 1.339.362 1.405 1.128h-.687c-.054-.38-.332-.585-.712-.585-.356 0-.857.187-.857 1.134 0 .518.23 1.067.827 1.067zm4.753.465c-.103.036-.32.078-.435.078-.277 0-.476-.096-.53-.38-.272.265-.712.38-1.08.38-.56 0-1.067-.302-1.067-.91 0-.779.62-.905 1.2-.972.494-.09.935-.036.935-.44 0-.356-.368-.422-.646-.422-.386 0-.657.157-.687.494H18c.048-.802.73-1.037 1.418-1.037.609 0 1.248.247 1.248.905v1.604c0 .169.036.235.163.235.042 0 .096 0 .169-.012v.477zm.917-1.49v1.483h-.688v-3.118h.645v.604h.012c.079-.332.489-.688.911-.688.157 0 .2.012.26.018v.663c-.097-.012-.2-.03-.296-.03-.47 0-.844.38-.844 1.068zM26 16.915h-.651v-.422h-.013c-.18.356-.573.507-.965.507-.983 0-1.46-.73-1.46-1.665 0-1.127.67-1.622 1.352-1.622.392 0 .826.145 1.037.488h.012V12.61H26v4.306z"/><path d="M24.474 14.256c-.645 0-.875.573-.875 1.134 0 .536.266 1.067.863 1.067.615 0 .874-.56.874-1.104 0-.687-.331-1.097-.862-1.097z"/></g><metadata><rdf:RDF xmlns:rdf="http://www.w3.org/1999/02/22-rdf-syntax-ns#" xmlns:rdfs="http://www.w3.org/2000/01/rdf-schema#" xmlns:dc="http://purl.org/dc/elements/1.1/"><rdf:Description about="https://iconscout.com/legal#licenses" dc:title="wirecard,payments,pay,online,send,money,credit,card,ecommerce" dc:description="wirecard,payments,pay,online,send,money,credit,card,ecommerce" dc:publisher="Iconscout" dc:date="2017-11-29" dc:format="image/svg+xml" dc:language="en"><dc:creator><rdf:Bag><rdf:li>Those Icons</rdf:li></rdf:Bag></dc:creator></rdf:Description></rdf:RDF></metadata></svg>