<?xml version="1.0" encoding="UTF-8"?><svg xmlns="http://www.w3.org/2000/svg" xmlns:xlink="http://www.w3.org/1999/xlink" version="1.1" id="Layer_1" x="0px" y="0px" viewBox="0 0 30 30" xml:space="preserve"><g fill="#000000"><path d="M16.326 12.63l.27-1.082-.659-.164-.262 1.053a26.62 26.62 0 0 0-.528-.124l.264-1.06-.657-.164-.27 1.081a21.901 21.901 0 0 1-.42-.098v-.004l-.908-.227-.175.704s.488.112.478.119c.267.066.315.243.307.382l-.307 1.233a.548.548 0 0 1 .068.022l-.07-.018-.43 1.727c-.033.08-.115.202-.302.156.007.01-.478-.12-.478-.12l-.327.754.857.214.469.12-.272 1.095.657.164.27-1.082c.18.048.354.093.525.136l-.27 1.077.66.164.272-1.092c1.122.213 1.967.127 2.322-.888.286-.818-.014-1.29-.605-1.597.43-.1.754-.382.84-.967.12-.798-.488-1.228-1.32-1.514zm-.185 3.623c-.203.818-1.58.376-2.026.265l.362-1.449c.446.111 1.877.332 1.664 1.184zm.204-2.12c-.186.743-1.331.365-1.703.272l.328-1.314c.371.093 1.568.265 1.375 1.041z"/><path d="M28 4H2C.897 4 0 4.897 0 6v18c0 1.103.897 2 2 2h26c1.103 0 2-.897 2-2V6c0-1.103-.897-2-2-2zm-7.18 12.451A6 6 0 1 1 9.18 13.547 6 6 0 0 1 20.82 16.45z"/></g><metadata><rdf:RDF xmlns:rdf="http://www.w3.org/1999/02/22-rdf-syntax-ns#" xmlns:rdfs="http://www.w3.org/2000/01/rdf-schema#" xmlns:dc="http://purl.org/dc/elements/1.1/"><rdf:Description about="https://iconscout.com/legal#licenses" dc:title="bitcoin,payments,pay,online,send,money,credit,ecommerce" dc:description="bitcoin,payments,pay,online,send,money,credit,ecommerce" dc:publisher="Iconscout" dc:date="2017-11-29" dc:format="image/svg+xml" dc:language="en"><dc:creator><rdf:Bag><rdf:li>Those Icons</rdf:li></rdf:Bag></dc:creator></rdf:Description></rdf:RDF></metadata></svg>