<?xml version="1.0" encoding="UTF-8"?><svg xmlns="http://www.w3.org/2000/svg" xmlns:xlink="http://www.w3.org/1999/xlink" version="1.1" id="Layer_1" x="0px" y="0px" viewBox="0 0 30 30" xml:space="preserve"><g fill="#000000"><path d="M17.235 15.187c0 .663.224.877.558.877.281 0 .51-.186.72-.395v-1.182c-.143-.119-.4-.257-.653-.257-.448 0-.625.39-.625.957z"/><path d="M20.872 14.235c-.305 0-.592.187-.73.296v1.226c.162.158.4.31.653.31.453 0 .625-.376.625-.977 0-.65-.253-.855-.548-.855z"/><path d="M12.355 14.233c-.464 0-.734.276-.734.906 0 .634.242.938.71.938.46 0 .712-.29.712-.943 0-.625-.228-.9-.688-.9z"/><path d="M28 4H2C.897 4 0 4.897 0 6v18c0 1.103.897 2 2 2h26c1.103 0 2-.897 2-2V6c0-1.103-.897-2-2-2zM6.588 15.547v.127c-.056.781-1.002 1.344-1.595 1.344-.071 0-.276-.01-.276-.152 0-.015.01-.061.02-.097-.112.016-.332.056-.46.056-.096 0-.541-.005-.541-.243 0-.224.399-.239.475-.239.215 0 .44.061.66.163-.036.01-.103.03-.113.03-.015 0-.036-.015-.056-.02a1.403 1.403 0 0 0-.455-.081c-.087 0-.102-.006-.204.02-.01 0-.19.046-.19.117 0 .05.144.08.174.086.061.01.19.02.2.02.91 0 2.32-.75 2.32-1.65a.849.849 0 0 0-.23-.557 1.11 1.11 0 0 1-.051.208c-.015.046-.056.127-.056.137 0 0 .255.279.255.34 0 .036-.056.193-.056.198a1.044 1.044 0 0 0-.266-.411c-.02.02-.04.05-.061.076-.026.036-.056.071-.087.107-.067.076-.22.207-.22.223 0 0 .184.183.246.395.01.031.025.092.025.102 0 .03-.102.097-.102.101-.006-.172-.077-.355-.266-.527-.22.162-.45.294-.67.4.133.112.21.275.21.391 0 .056-.03.178-.056.193a.354.354 0 0 1-.102.04.471.471 0 0 0 .076-.217.435.435 0 0 0-.163-.31c-.026-.015-.062-.05-.072-.05-.015 0-.143.055-.214.08-.082.031-.169.056-.256.082a2.67 2.67 0 0 1-.756.122c-.098 0-.522-.01-.522-.239 0-.34.788-.37.895-.37.235 0 .46.025.7.132-.046.015-.133.05-.143.05-.015 0-.281-.076-.521-.076-.108 0-.24.01-.343.03a1.18 1.18 0 0 0-.235.066c-.026.006-.215.087-.215.158 0 .01.03.03.051.04.103.051.195.046.297.046.966 0 2.448-.756 2.535-1.543v-.126c-.046-.513-.844-.843-1.232-.843a.794.794 0 0 0-.118.015c.026.01.057.01.082.02.02.006.046.016.072.026.04.016.112.051.158.091.036.031.056.077.092.102.026.026.077.02.118.036.133.04.296.1.435.162.055.03.127.06.189.096.02.016.035.046.05.071.026.041.057.107.067.163a2.596 2.596 0 0 0-.797-.386h-.016c.01.137-.046.274-.143.411.292.076.598.188.9.396a.633.633 0 0 1-.061.111 2.56 2.56 0 0 0-.394-.223c-.03-.015-.46-.172-.527-.172-.015 0-.117.102-.173.147a3.331 3.331 0 0 1-.414.279c.373.051.746.132 1.119.375a.369.369 0 0 1-.097.077c-.01 0-.107-.071-.164-.097a2.99 2.99 0 0 0-1.058-.248c-.025 0-.321.127-.393.147-.21.06-.44.137-.654.137-.072 0-.215-.005-.215-.122 0-.228.813-.284.869-.284h.179c-.128.05-.281.106-.404.137-.118.03-.24.05-.353.086-.02.005-.04.02-.061.03 0 0-.005.006.01.006.01 0 .179-.026.27-.046.466-.112.967-.294 1.427-.715a.75.75 0 0 0 .22-.355v-.102c-.016-.112-.179-.228-.281-.259a1.646 1.646 0 0 0-.21-.046c-.025 0-.061.015-.087.056.164.036.353 0 .496.203 0 0 .005.005 0 .015a5.875 5.875 0 0 0-.624-.132c-.03 0-.27.168-.327.203a6.705 6.705 0 0 1-.465.254l.527.005c.23.015.49.046.725.092-.01.004-.102.101-.122.101-.01 0-.174-.03-.256-.04-.148-.021-.301-.026-.455-.036l-.664.015c-.036-.005-.107-.01-.107-.071 0-.046.056-.076.097-.091.03-.01.066-.03.097-.04.327-.138.664-.32.997-.529-.01-.005-.031-.005-.042-.005a.343.343 0 0 0-.086.015c.005.006.01.006.015.006-.046.025-.123.076-.138.076-.036 0-.087-.046-.087-.076 0-.091.21-.097.225-.097.21-.005.225.006.24.006.01 0 .097-.046.154-.056.081-.02.122-.02.199-.02a1.59 1.59 0 0 1 1.099.452.821.821 0 0 1 .184.278c.015.035.015.091.04.127.041.06.113.111.164.177.067.071.107.148.143.229.015.025.02.06.036.091.02.04.056.233.056.305 0 .147-.05.33-.117.471 0 .006.005.006.005.02zm4.551-1.368l-.172.027c-.08.015-.1.034-.119.096l-.644 2.07h-.51l-.459-1.893-.524 1.893h-.525l-.672-2.07c-.02-.057-.043-.067-.1-.081l-.206-.042.058-.251h.958v.25l-.305.038.534 1.72.549-1.94h.501l.462 1.935.53-1.715-.31-.037.052-.251h.902v.25zm1.179 2.245c-.825 0-1.145-.532-1.145-1.29 0-.748.382-1.26 1.192-1.26.81 0 1.126.517 1.126 1.231 0 .801-.362 1.319-1.173 1.319zm3.14-1.784l-.334-.015-.059-.333c-.005-.038-.015-.047-.058-.047-.22 0-.469.196-.581.301v1.44c0 .076.005.09.078.095l.449.038v.25h-1.266v-.254l.239-.029c.066-.009.076-.024.076-.095v-1.623c0-.053-.015-.086-.062-.1l-.272-.09.043-.255h.617l.046.326.014.005c.16-.176.399-.382.73-.382.109 0 .254.02.34.046v.722zm1.192 1.73h-1.158v-.255l.296-.029c.067-.005.076-.024.076-.096v-2.78c0-.052-.014-.085-.062-.1l-.286-.09.043-.254h.73v3.224c0 .077.004.086.076.096l.285.033v.25zm2.607.002h-.665l-.037-.318-.019-.004c-.218.208-.466.373-.838.373-.544 0-.9-.35-.9-1.223 0-.941.423-1.328.995-1.328.286 0 .544.096.73.23v-.896c0-.048-.02-.081-.062-.095l-.287-.092.043-.253h.72v3.222c0 .077.005.086.076.096l.244.033v.255zm1.61.053c-.272 0-.5-.067-.725-.262v.828c0 .077.005.091.076.096l.448.038v.25h-1.224v-.255l.195-.028c.067-.01.081-.024.081-.096v-2.629c0-.052-.014-.085-.062-.1l-.272-.09.043-.254h.625l.043.27.014.005c.262-.19.529-.322.853-.322.534 0 .895.336.895 1.175 0 .716-.242 1.374-.99 1.374zm3.494-.053h-.663l-.043-.312-.014-.004c-.228.212-.494.366-.86.366-.595 0-.671-.404-.671-.646 0-.474.295-.697.867-.744l.64-.053v-.254c0-.35-.066-.522-.478-.522-.29 0-.498.009-.503.369l-.41-.044c0-.59.542-.657.916-.657.673 0 .9.192.9.854v1.264c0 .076.005.085.076.095l.243.033v.255zM27 14.179l-.162.023c-.057.01-.095.028-.119.08l-1.156 2.8.461.047v.246h-1.289v-.25l.343-.043c.057-.004.076-.033.104-.1l.276-.636-.856-2.04c-.024-.057-.043-.066-.1-.08l-.195-.047.057-.251h.985v.25l-.314.038.633 1.608.661-1.608-.323-.037.052-.251H27v.25z"/><path d="M5.315 16.597a.733.733 0 0 0 .47-.243 4.238 4.238 0 0 1-.47.243z"/><path d="M6.01 16.201c-.036.04-.051.102-.082.147a.832.832 0 0 1-.24.224.816.816 0 0 1-.388.111c-.015 0-.149-.015-.164-.015-.01 0-.174.04-.25.071-.036.01-.077.092-.077.117 0 .046.128.046.143.046.496 0 1.334-.467 1.472-1.107a3.03 3.03 0 0 1-.21.229c-.07.065-.158.116-.204.177z"/><path d="M22.558 15.729c0 .256.11.36.333.36.28 0 .58-.227.727-.365v-.445l-.537.047c-.409.038-.523.157-.523.403z"/></g><metadata><rdf:RDF xmlns:rdf="http://www.w3.org/1999/02/22-rdf-syntax-ns#" xmlns:rdfs="http://www.w3.org/2000/01/rdf-schema#" xmlns:dc="http://purl.org/dc/elements/1.1/"><rdf:Description about="https://iconscout.com/legal#licenses" dc:title="worldpay,payments,pay,online,send,money,credit,card,ecommerce" dc:description="worldpay,payments,pay,online,send,money,credit,card,ecommerce" dc:publisher="Iconscout" dc:date="2017-11-29" dc:format="image/svg+xml" dc:language="en"><dc:creator><rdf:Bag><rdf:li>Those Icons</rdf:li></rdf:Bag></dc:creator></rdf:Description></rdf:RDF></metadata></svg>