<?xml version="1.0" encoding="UTF-8"?><svg xmlns="http://www.w3.org/2000/svg" xmlns:xlink="http://www.w3.org/1999/xlink" version="1.1" id="Layer_1" x="0px" y="0px" viewBox="0 0 30 30" xml:space="preserve"><g fill="#000000"><path d="M17.462 17.256c-1.433.608-2.99.901-4.407.901-2.1 0-4.133-.575-5.778-1.532-.144-.084-.25.064-.13.172A8.554 8.554 0 0 0 12.92 19c1.596 0 3.45-.502 4.727-1.445.212-.156.03-.39-.186-.3z"/><path d="M16.656 16.725c-.113.078-.093.187.031.173.412-.05 1.33-.16 1.493.05.164.209-.182 1.072-.336 1.457-.047.116.054.164.16.075.685-.573.862-1.776.722-1.949-.14-.172-1.338-.32-2.07.194z"/><path d="M19.16 15.266c-.392-.22-.848-.284-1.278-.274l1.16-1.655c.107-.15.168-.243.168-.314v-.43a.125.125 0 0 0-.129-.125h-2.238c-.07 0-.126.05-.127.127v.5c.001.073.059.124.13.124h1.17l-1.344 1.928a.608.608 0 0 0-.084.343v.507c0 .073.082.157.16.116a2.573 2.573 0 0 1 2.365-.004c.084.043.165-.042.165-.115v-.533c-.007-.072-.03-.146-.119-.195z"/><path d="M7.872 16.213h.68a.129.129 0 0 0 .132-.126v-1.852c0-.405-.02-.964.47-.964.484 0 .42.574.42.964v1.852c0 .068.054.122.123.126h.68c.072 0 .13-.056.13-.126v-1.852c0-.2-.005-.494.065-.67a.452.452 0 0 1 .407-.286c.196 0 .349.065.4.301.032.14.02.507.02.655v1.852c0 .068.053.122.122.126h.679a.129.129 0 0 0 .132-.126v-2.205c0-.375.044-.802-.171-1.096a.97.97 0 0 0-.79-.383c-.4 0-.775.207-.939.648-.191-.441-.458-.648-.883-.648-.42 0-.732.207-.897.648H8.64v-.456a.129.129 0 0 0-.124-.118H7.88a.13.13 0 0 0-.131.127v3.495c.005.061.056.11.122.114z"/><path d="M21.137 12.403c-.985 0-1.532.846-1.532 1.936 0 1.08.54 1.948 1.532 1.948.953 0 1.557-.846 1.557-1.913 0-1.103-.547-1.97-1.557-1.97zm0 3.163c-.534 0-.528-.912-.528-1.339 0-.426.032-1.11.534-1.11.216 0 .37.095.445.338.09.28.102.632.102.926 0 .45-.025 1.185-.553 1.185z"/><path d="M25.027 12.403c-.47 0-.737.229-.927.706h-.014v-.534a.127.127 0 0 0-.12-.098h-.632a.13.13 0 0 0-.13.115v3.495c0 .068.054.122.122.126h.68a.13.13 0 0 0 .131-.126v-1.882c0-.235.013-.449.108-.662.077-.169.229-.28.394-.28.47 0 .426.56.426.942v1.898c.008.06.059.106.122.11h.682a.13.13 0 0 0 .131-.11v-2.2c0-.337 0-.808-.178-1.088-.19-.301-.49-.412-.795-.412z"/><path d="M13.652 14.087c-.427.184-.726.56-.726 1.113 0 .707.446 1.061 1.019 1.061.484 0 .749-.114 1.123-.495.124.18.164.266.39.454a.14.14 0 0 0 .16-.016l.002.002c.137-.12.383-.336.523-.453.055-.044.045-.119.002-.18-.124-.172-.258-.312-.258-.631V13.88c0-.45.032-.863-.298-1.173-.262-.25-.695-.339-1.026-.339-.648 0-1.371.242-1.523 1.044-.016.085.046.13.102.142l.66.071c.061-.003.106-.064.118-.124.057-.277.288-.41.547-.41.14 0 .3.052.382.177.095.14.084.331.084.493v.088c-.396.045-.911.075-1.28.237zm1.28.457c0 .265.006.487-.127.722-.109.192-.281.31-.472.31-.26 0-.414-.2-.414-.493 0-.582.52-.687 1.014-.687v.148z"/><path d="M7.219 15.573c-.125-.172-.258-.312-.258-.631V13.88c0-.45.032-.863-.3-1.173-.26-.25-.693-.339-1.024-.339-.649 0-1.371.242-1.523 1.044-.016.085.046.13.102.142l.66.071c.061-.003.106-.064.118-.124.057-.277.288-.41.547-.41.14 0 .3.052.382.177.097.14.083.331.083.493v.088c-.395.045-.91.075-1.28.237C4.3 14.27 4 14.647 4 15.2c0 .707.445 1.061 1.019 1.061.484 0 .749-.114 1.123-.495.124.18.164.266.39.454a.14.14 0 0 0 .16-.016l.002.002c.135-.12.383-.336.522-.453.056-.045.045-.119.003-.18zm-1.213-1.029c0 .265.006.487-.127.722-.109.192-.281.31-.471.31-.262 0-.415-.2-.415-.493 0-.582.521-.687 1.013-.687v.148z"/><path d="M28 4H2C.897 4 0 4.897 0 6v18c0 1.103.897 2 2 2h26c1.103 0 2-.897 2-2V6c0-1.103-.897-2-2-2zm1 20c0 .551-.449 1-1 1H2c-.551 0-1-.449-1-1V6c0-.551.449-1 1-1h26c.551 0 1 .449 1 1v18z"/></g><metadata><rdf:RDF xmlns:rdf="http://www.w3.org/1999/02/22-rdf-syntax-ns#" xmlns:rdfs="http://www.w3.org/2000/01/rdf-schema#" xmlns:dc="http://purl.org/dc/elements/1.1/"><rdf:Description about="https://iconscout.com/legal#licenses" dc:title="amazon,payments,pay,online,send,money,credit,card,ecommerce" dc:description="amazon,payments,pay,online,send,money,credit,card,ecommerce" dc:publisher="Iconscout" dc:date="2017-11-27" dc:format="image/svg+xml" dc:language="en"><dc:creator><rdf:Bag><rdf:li>Those Icons</rdf:li></rdf:Bag></dc:creator></rdf:Description></rdf:RDF></metadata></svg>