<?xml version="1.0" encoding="UTF-8"?><svg xmlns="http://www.w3.org/2000/svg" xmlns:xlink="http://www.w3.org/1999/xlink" version="1.1" id="Layer_1" x="0px" y="0px" viewBox="0 0 30 30" xml:space="preserve"><g fill-rule="evenodd" clip-rule="evenodd" fill="#000000"><path d="M15.15 12.5H13v5.49h.855v-1.873h1.269c1.079 0 1.839-.742 1.839-1.813S16.21 12.5 15.15 12.5zm-.225 2.9h-1.07v-2.183h1.07c.743 0 1.166.405 1.166 1.096 0 .69-.432 1.088-1.166 1.088z"/><path d="M18.983 13.804c-.924 0-1.615.535-1.64 1.269h.768c.069-.354.397-.587.846-.587.544 0 .863.259.863.733v.32l-1.114.06c-1.018.07-1.58.484-1.58 1.209 0 .734.57 1.226 1.408 1.217.561 0 1.079-.285 1.303-.734h.018v.691h.785V15.15c0-.811-.647-1.346-1.657-1.346zm.837 2.633c0 .544-.466.932-1.07.94-.475 0-.786-.224-.786-.578 0-.371.294-.578.855-.613l1.001-.069v.32z"/><path d="M23.075 17.222h-.017l-1.062-3.375h-.89l1.503 4.144-.06.215c-.139.44-.363.605-.752.605-.069 0-.198 0-.259-.017v.673c.07.009.268.026.328.017.846 0 1.235-.32 1.589-1.312L25 13.847h-.863l-1.062 3.375z"/><path d="M28 4H2C.897 4 0 4.897 0 6v18c0 1.103.897 2 2 2h26c1.103 0 2-.897 2-2V6c0-1.103-.897-2-2-2zm1 20c0 .551-.449 1-1 1H2c-.551 0-1-.449-1-1V6c0-.551.449-1 1-1h26c.551 0 1 .449 1 1v18z"/><path d="M10.44 14.25c-.01-1.011.827-1.499.865-1.522-.47-.689-1.202-.783-1.463-.794-.623-.062-1.216.367-1.532.367-.315 0-.804-.357-1.32-.347-.68.01-1.305.394-1.655 1.002-.705 1.225-.18 3.038.507 4.031.336.485.737 1.032 1.263 1.012.507-.02.698-.327 1.31-.327.613 0 .785.327 1.321.317.545-.01.891-.495 1.225-.982.385-.564.544-1.11.553-1.139-.012-.004-1.063-.407-1.074-1.618z"/><path d="M9.85 10c-.403.016-.89.269-1.179.606-.259.3-.486.779-.424 1.238.449.035.907-.228 1.187-.566.28-.339.467-.81.416-1.278z"/></g><metadata><rdf:RDF xmlns:rdf="http://www.w3.org/1999/02/22-rdf-syntax-ns#" xmlns:rdfs="http://www.w3.org/2000/01/rdf-schema#" xmlns:dc="http://purl.org/dc/elements/1.1/"><rdf:Description about="https://iconscout.com/legal#licenses" dc:title="apple,payments,pay,online,send,money,credit,card,ecommerce" dc:description="apple,payments,pay,online,send,money,credit,card,ecommerce" dc:publisher="Iconscout" dc:date="2017-11-27" dc:format="image/svg+xml" dc:language="en"><dc:creator><rdf:Bag><rdf:li>Those Icons</rdf:li></rdf:Bag></dc:creator></rdf:Description></rdf:RDF></metadata></svg>