<?xml version="1.0" encoding="UTF-8"?><svg xmlns="http://www.w3.org/2000/svg" xmlns:xlink="http://www.w3.org/1999/xlink" version="1.1" id="Layer_1" x="0px" y="0px" viewBox="0 0 30 30" xml:space="preserve"><g fill="#000000"><path d="M5.514 14.669l-.138.553c.157.04.64.199.718-.115.081-.326-.423-.4-.58-.438z"/><path d="M6.138 13.021a2.526 2.526 0 1 0-1.222 4.903 2.526 2.526 0 0 0 1.222-4.903zm.404 3.171c-.15.428-.505.464-.978.374l-.115.46-.277-.069.113-.454a10.431 10.431 0 0 1-.22-.057l-.114.456-.277-.07.114-.46-.197-.05-.361-.09.138-.318s.204.054.201.05c.079.02.113-.032.127-.066l.182-.727.029.007a.235.235 0 0 0-.029-.009l.13-.519c.003-.059-.018-.133-.13-.161a3.693 3.693 0 0 0-.201-.05l.074-.296.382.095v.002l.177.041.113-.455.278.069-.112.446c.075.017.15.034.222.053l.11-.444.278.07-.113.455c.35.12.606.301.556.637-.037.247-.173.366-.355.408.25.13.376.328.255.672z"/><path d="M5.307 15.502l-.153.61c.188.047.768.233.854-.111.09-.36-.513-.452-.701-.499z"/><path d="M11.175 14.894a1.063 1.063 0 0 0-.37-.293 1.2 1.2 0 0 0-.529-.108c-.097 0-.188.01-.273.032-.085.021-.17.051-.255.089l.395-1.643-.987.153-1.102 4.629c.124.06.254.106.392.14.138.034.268.06.392.077.123.016.232.026.327.028l.201.003c.297 0 .573-.056.828-.169a2.081 2.081 0 0 0 1.104-1.14 2.144 2.144 0 0 0 .093-1.365 1.234 1.234 0 0 0-.216-.433zm-.74 1.516c-.054.152-.13.29-.225.41-.095.121-.21.218-.341.29a.865.865 0 0 1-.42.109h-.115a.69.69 0 0 1-.137-.014 2.251 2.251 0 0 0-.066-.012l.42-1.745a.58.58 0 0 1 .258-.134c.095-.02.172-.032.232-.032.182 0 .308.058.376.172.068.115.102.274.102.478a1.4 1.4 0 0 1-.083.478z"/><path d="M11.541 17.913h.943l.802-3.35h-.949z"/><path d="M12.942 14.156a.62.62 0 0 0 .252-.05.664.664 0 0 0 .35-.34.595.595 0 0 0 .054-.253c0-.16-.054-.28-.16-.36a.585.585 0 0 0-.356-.117.631.631 0 0 0-.252.05.672.672 0 0 0-.35.34.599.599 0 0 0-.054.252c0 .162.053.282.16.36a.584.584 0 0 0 .356.118z"/><path d="M14.672 15.34h1.05l.192-.776h-1.058l.243-.987-.987.152-.624 2.636c-.051.217-.08.422-.09.618-.008.195.022.368.09.518.068.151.182.27.343.358.162.086.39.13.682.13.204 0 .38-.017.529-.051.148-.034.286-.074.413-.12l-.07-.727a2.1 2.1 0 0 1-.29.08c-.095.019-.194.028-.296.028a.626.626 0 0 1-.283-.051.276.276 0 0 1-.137-.143.5.5 0 0 1-.031-.22c.004-.085.018-.176.044-.273l.28-1.172z"/><path d="M17.878 15.276c.131 0 .243.014.334.042.091.028.18.058.264.092l.325-.739a2.077 2.077 0 0 0-.923-.197c-.306 0-.583.055-.83.165a1.88 1.88 0 0 0-.634.452 2.005 2.005 0 0 0-.402.67 2.35 2.35 0 0 0-.14.814c0 .191.027.374.08.548.053.174.139.325.258.455s.27.232.452.309c.182.076.405.114.668.114.2 0 .372-.018.516-.053.144-.037.276-.078.395-.125l-.07-.757a1.754 1.754 0 0 1-.663.133c-.25 0-.422-.066-.515-.2-.094-.134-.14-.31-.14-.526 0-.365.092-.656.277-.872.185-.216.433-.325.748-.325z"/><path d="M21.615 14.863a1.089 1.089 0 0 0-.414-.287 1.55 1.55 0 0 0-.583-.102c-.3 0-.569.065-.802.194-.233.13-.43.297-.591.5a2.164 2.164 0 0 0-.367.688c-.083.254-.124.51-.124.764 0 .204.027.39.083.557.055.168.136.313.245.436.108.123.245.218.41.286.166.068.361.102.586.102.31 0 .583-.064.818-.194.236-.13.432-.296.59-.5.156-.203.276-.433.356-.687.08-.255.12-.51.12-.764 0-.204-.027-.39-.082-.557a1.243 1.243 0 0 0-.245-.436zm-.668 1.505c-.036.147-.09.282-.163.405a1.046 1.046 0 0 1-.267.305.593.593 0 0 1-.37.121c-.178 0-.3-.06-.369-.178-.067-.119-.101-.284-.101-.497 0-.131.017-.27.053-.417.037-.146.09-.28.163-.404a1.04 1.04 0 0 1 .267-.306c.106-.08.23-.12.37-.12.177 0 .3.06.369.178.068.118.102.284.102.496 0 .132-.018.271-.054.417z"/><path d="M22.822 14.564l-.796 3.349h.943l.802-3.35z"/><path d="M23.427 14.156c.09 0 .173-.016.252-.05a.661.661 0 0 0 .35-.34.604.604 0 0 0 .054-.253c0-.16-.053-.28-.16-.36a.585.585 0 0 0-.356-.117.627.627 0 0 0-.251.05.663.663 0 0 0-.35.34.597.597 0 0 0-.055.252c0 .162.054.282.16.36a.583.583 0 0 0 .356.118z"/><path d="M25.8 14.487c-.17 0-.322.007-.455.022a3.516 3.516 0 0 0-.656.134l-.239.073-.77 3.196h.949l.617-2.59c.128-.026.253-.04.376-.04.127 0 .221.025.283.074.062.049.101.113.118.19.017.08.018.171.003.274a3.772 3.772 0 0 1-.06.322l-.42 1.77h.948l.433-1.808c.123-.5.09-.895-.099-1.184-.189-.289-.531-.433-1.028-.433z"/><path d="M28 4H2C.897 4 0 4.897 0 6v18c0 1.103.897 2 2 2h26c1.103 0 2-.897 2-2V6c0-1.103-.897-2-2-2zm1 20c0 .551-.449 1-1 1H2c-.551 0-1-.449-1-1V6c0-.551.449-1 1-1h26c.551 0 1 .449 1 1v18z"/></g><metadata><rdf:RDF xmlns:rdf="http://www.w3.org/1999/02/22-rdf-syntax-ns#" xmlns:rdfs="http://www.w3.org/2000/01/rdf-schema#" xmlns:dc="http://purl.org/dc/elements/1.1/"><rdf:Description about="https://iconscout.com/legal#licenses" dc:title="bitcoin,payments,pay,online,send,money,credit,card,ecommerce" dc:description="bitcoin,payments,pay,online,send,money,credit,card,ecommerce" dc:publisher="Iconscout" dc:date="2017-11-27" dc:format="image/svg+xml" dc:language="en"><dc:creator><rdf:Bag><rdf:li>Those Icons</rdf:li></rdf:Bag></dc:creator></rdf:Description></rdf:RDF></metadata></svg>