<?xml version="1.0" encoding="UTF-8"?><svg xmlns="http://www.w3.org/2000/svg" xmlns:xlink="http://www.w3.org/1999/xlink" version="1.1" id="Layer_1" x="0px" y="0px" viewBox="0 0 30 30" xml:space="preserve"><g fill="#000000"><path d="M20.46 13.357c-.898 0-1.525.727-1.525 1.617v.013c0 .89.64 1.63 1.539 1.63.899 0 1.526-.727 1.526-1.617v-.013c0-.89-.64-1.63-1.54-1.63z"/><path d="M17.92 15v-.013c0-1.29.984-2.369 2.374-2.369a2.4 2.4 0 0 1 1.237.33C20.664 10.085 18.03 8 14.917 8 11.097 8 8 11.134 8 15s3.097 7 6.917 7c3.13 0 5.773-2.104 6.625-4.991a2.394 2.394 0 0 1-1.261.347c-1.39 0-2.36-1.066-2.36-2.356zm-4.599 2.278H10.05v-.635l1.559-1.342c.62-.53.847-.824.847-1.237 0-.451-.317-.713-.731-.713s-.699.229-1.048.687l-.562-.445c.433-.616.86-.962 1.668-.962.886 0 1.494.55 1.494 1.368v.013c0 .72-.375 1.113-1.177 1.773l-.932.786h2.154v.707zm2.804-.661c.466 0 .791-.163 1.113-.43l.53.524c-.43.4-.92.645-1.669.645-1.32 0-2.302-1.04-2.302-2.356v-.013c0-1.303.964-2.37 2.334-2.37.777.001 1.266.258 1.68.63l-.56.554c-.323-.27-.676-.444-1.126-.444-.867 0-1.494.72-1.494 1.617v.013c0 .897.627 1.63 1.494 1.63z"/><path d="M28 4H2C.897 4 0 4.897 0 6v18c0 1.103.897 2 2 2h26c1.103 0 2-.897 2-2V6c0-1.103-.897-2-2-2zm1 20c0 .551-.448 1-1 1H2c-.552 0-1-.449-1-1V6c0-.551.448-1 1-1h26c.552 0 1 .449 1 1v18z"/></g><metadata><rdf:RDF xmlns:rdf="http://www.w3.org/1999/02/22-rdf-syntax-ns#" xmlns:rdfs="http://www.w3.org/2000/01/rdf-schema#" xmlns:dc="http://purl.org/dc/elements/1.1/"><rdf:Description about="https://iconscout.com/legal#licenses" dc:title="checkoupayments,pay,online,send,money,credit,card,ecommerce" dc:description="checkoupayments,pay,online,send,money,credit,card,ecommerce" dc:publisher="Iconscout" dc:date="2017-11-27" dc:format="image/svg+xml" dc:language="en"><dc:creator><rdf:Bag><rdf:li>Those Icons</rdf:li></rdf:Bag></dc:creator></rdf:Description></rdf:RDF></metadata></svg>