<?xml version="1.0" encoding="UTF-8"?><svg xmlns="http://www.w3.org/2000/svg" xmlns:xlink="http://www.w3.org/1999/xlink" version="1.1" id="Layer_1" x="0px" y="0px" viewBox="0 0 30 30" xml:space="preserve"><g fill="#000000"><path d="M17.523 22.097a.679.679 0 0 1-.037.236.377.377 0 0 1-.249.245c-.057.017-.119.026-.184.026s-.127-.009-.185-.027a.377.377 0 0 1-.249-.244.682.682 0 0 1-.036-.236v-1.07h-.421v1.108c0 .152.025.284.075.393a.752.752 0 0 0 .487.423 1.118 1.118 0 0 0 .658 0 .763.763 0 0 0 .486-.422c.05-.11.076-.242.076-.394v-1.108h-.421v1.07z"/><path d="M13.551 21.26v-.233h-.414v1.922h.418v-1.078c0-.317.137-.494.41-.494.085 0 .173.012.262.048l.128-.394a.894.894 0 0 0-.297-.052.567.567 0 0 0-.507.281z"/><path d="M15.04 21.26v-.233h-.414v1.922h.419v-1.078c0-.317.136-.494.41-.494.084 0 .173.012.261.048l.129-.394a.894.894 0 0 0-.298-.052.567.567 0 0 0-.506.281z"/><path d="M11.013 21.373c.181 0 .346.06.503.173l.201-.338c-.209-.165-.402-.23-.691-.23-.62 0-1.026.427-1.026 1.01s.406 1.01 1.026 1.01c.29 0 .482-.065.691-.23l-.2-.338a.845.845 0 0 1-.504.173c-.333-.004-.579-.245-.579-.615s.246-.611.58-.615z"/><path d="M19.328 21.795l-.197-.028c-.18-.024-.325-.06-.325-.19 0-.14.136-.224.366-.224.245 0 .482.092.599.164l.18-.337c-.2-.133-.478-.201-.783-.201-.487 0-.8.233-.8.615 0 .314.233.507.663.567l.197.028c.23.032.338.093.338.201 0 .149-.153.233-.439.233-.29 0-.498-.092-.64-.2l-.196.325c.229.169.519.25.832.25.555 0 .877-.262.877-.628 0-.338-.253-.515-.672-.575z"/><circle cx="12.3483429" cy="20.361557" r="0.2950151"/><path d="M12.139 21.027h.421v1.922h-.421z"/><path d="M28 4H2C.897 4 0 4.897 0 6v18c0 1.103.897 2 2 2h26c1.103 0 2-.897 2-2V6c0-1.103-.897-2-2-2zm1 20c0 .551-.449 1-1 1H2c-.551 0-1-.449-1-1V6c0-.551.449-1 1-1h26c.551 0 1 .449 1 1v18z"/><path d="M19 7a5.969 5.969 0 0 0-4 1.54A5.969 5.969 0 0 0 11 7c-3.309 0-6 2.691-6 6s2.691 6 6 6a5.969 5.969 0 0 0 4-1.54A5.969 5.969 0 0 0 19 19c3.309 0 6-2.691 6-6s-2.691-6-6-6zm-4 8.97c-.62-.834-1-1.854-1-2.97s.38-2.136 1-2.97c.62.834 1 1.854 1 2.97s-.38 2.136-1 2.97zM6 13c0-2.757 2.243-5 5-5a4.96 4.96 0 0 1 3.304 1.276 5.966 5.966 0 0 0 0 7.448A4.96 4.96 0 0 1 11 18c-2.757 0-5-2.243-5-5zm13 5a4.96 4.96 0 0 1-3.304-1.276 5.966 5.966 0 0 0 0-7.448A4.96 4.96 0 0 1 19 8c2.757 0 5 2.243 5 5s-2.243 5-5 5z"/></g><metadata><rdf:RDF xmlns:rdf="http://www.w3.org/1999/02/22-rdf-syntax-ns#" xmlns:rdfs="http://www.w3.org/2000/01/rdf-schema#" xmlns:dc="http://purl.org/dc/elements/1.1/"><rdf:Description about="https://iconscout.com/legal#licenses" dc:title="cirrus,payments,pay,online,send,money,credit,card,ecommerce" dc:description="cirrus,payments,pay,online,send,money,credit,card,ecommerce" dc:publisher="Iconscout" dc:date="2017-11-27" dc:format="image/svg+xml" dc:language="en"><dc:creator><rdf:Bag><rdf:li>Those Icons</rdf:li></rdf:Bag></dc:creator></rdf:Description></rdf:RDF></metadata></svg>