<?xml version="1.0" encoding="UTF-8"?><svg xmlns="http://www.w3.org/2000/svg" xmlns:xlink="http://www.w3.org/1999/xlink" version="1.1" id="Layer_1" x="0px" y="0px" viewBox="0 0 30 30" xml:space="preserve"><g fill="#000000"><path d="M17.788 8.383S17.405 8 16.864 8c0 0-.54 0-.924.383 0 0-.383.383-.383.924 0 0 0 .54.383.924l.72.715H13.9s-.547 0-.93.387c0 0-.387.383-.387.927 0 0 0 .544.387.93 0 0 .383.384.93.384h2.758l-.719.719s-.383.383-.383.924c0 0 0 .54.383.924 0 0 .384.38.924.38 0 0 .541 0 .924-.38l2.954-2.957s.383-.383.383-.924c0 0 0-.54-.38-.924l-2.957-2.953z"/><path d="M10.105 10.44c-.723 0-1.233.51-1.233.51-.511.51-.511 1.233-.511 1.233 0 .722.51 1.233.51 1.233.511.51 1.234.51 1.234.51.722 0 1.233-.51 1.233-.51.51-.51.51-1.233.51-1.233 0-.722-.51-1.233-.51-1.233-.511-.51-1.233-.51-1.233-.51z"/><path d="M4.986 18.788c-.636 0-.986.345-.986.992v.73c0 .647.355.992.986.992.214 0 .454-.047.454-.047.073-.016.1-.053.1-.11v-.318c0-.058-.037-.084-.095-.079 0 0-.214.032-.417.032-.334 0-.454-.193-.454-.486v-.704c0-.282.11-.48.449-.48.193 0 .417.031.417.031.063.006.1-.026.1-.083v-.318c0-.058-.032-.094-.1-.105 0 0-.219-.047-.454-.047z"/><path d="M6.38 17.745h-.376c-.058 0-.1.041-.1.099v3.506c0 .058.042.1.1.1h.376c.057 0 .099-.042.099-.1v-3.506c0-.058-.042-.1-.1-.1z"/><path d="M7.397 17.745H7.02c-.057 0-.099.041-.099.099v.376c0 .057.042.099.1.099h.375c.057 0 .1-.042.1-.1v-.375c0-.058-.043-.1-.1-.1z"/><path d="M7.397 18.84H7.02c-.057 0-.099.042-.099.1v2.41c0 .058.042.1.1.1h.375c.057 0 .1-.042.1-.1v-2.41c0-.058-.043-.1-.1-.1z"/><path d="M8.926 18.788c-.637 0-.986.345-.986.992v.73c0 .647.354.992.986.992.214 0 .454-.047.454-.047.073-.016.099-.053.099-.11v-.318c0-.058-.037-.084-.094-.079 0 0-.214.032-.417.032-.334 0-.454-.193-.454-.486v-.704c0-.282.11-.48.448-.48.193 0 .418.031.418.031.062.006.099-.026.099-.083v-.318c0-.058-.031-.094-.1-.105 0 0-.218-.047-.453-.047z"/><path d="M11.712 18.94c.031-.047 0-.1-.057-.1h-.423c-.057 0-.104.053-.136.1l-.647 1.048.71 1.362c.026.052.073.1.13.1h.423c.058 0 .094-.053.068-.1l-.715-1.372.647-1.038z"/><path d="M10.32 17.745h-.377c-.057 0-.099.041-.099.099v3.506c0 .058.042.1.1.1h.375c.057 0 .1-.042.1-.1v-3.506c0-.058-.043-.1-.1-.1z"/><path d="M12.912 18.788c-.438 0-.777.11-.777.11-.063.016-.1.052-.1.11v.318c0 .057.037.099.1.083 0 0 .391-.089.7-.089.307 0 .427.147.427.418v.209a4.707 4.707 0 0 0-.501-.032c-.58 0-.908.266-.908.804 0 .527.298.783.804.783.245 0 .464-.094.631-.199v.047c0 .058.042.1.1.1h.349c.057 0 .099-.042.099-.1v-1.612c0-.626-.23-.95-.924-.95zm.35 2.087c-.151.079-.329.141-.49.141-.23 0-.345-.115-.345-.313 0-.224.115-.344.397-.344h.438v.516z"/><path d="M15.5 18.788c-.297 0-.521.115-.672.23v-.078c0-.058-.042-.1-.1-.1h-.35c-.057 0-.098.042-.098.1v2.41c0 .058.041.1.099.1h.375c.058 0 .1-.042.1-.1v-1.873c.146-.078.323-.151.485-.151.276 0 .35.156.35.401v1.623c0 .058.041.1.099.1h.375c.058 0 .1-.042.1-.1v-1.675c0-.542-.194-.887-.763-.887z"/><path d="M18.485 17.745h-.375c-.058 0-.1.041-.1.099v1.085a1.243 1.243 0 0 0-.558-.14c-.58 0-.85.354-.85.912v.887c0 .559.27.914.85.914.225 0 .423-.084.584-.183v.031c0 .058.042.1.1.1h.35c.057 0 .098-.042.098-.1v-3.506c0-.058-.041-.1-.099-.1zm-.475 3.125c-.14.068-.297.12-.438.12-.287 0-.396-.182-.396-.443v-.81c0-.26.11-.443.396-.443.141 0 .298.042.438.1v1.476z"/><path d="M20.166 18.788c-.214 0-.407.068-.564.162v-1.106c0-.058-.042-.1-.1-.1h-.375c-.057 0-.099.042-.099.1v3.506c0 .058.042.1.1.1h.928c.647 0 .955-.345.955-.914v-.835c0-.558-.266-.913-.845-.913zm.27 1.733c0 .26-.12.433-.432.433h-.402v-1.54c.14-.067.303-.12.443-.12.287 0 .392.183.392.444v.783z"/><path d="M23.338 18.84h-.376c-.057 0-.099.042-.099.1v1.873c-.146.078-.323.151-.485.151-.276 0-.35-.156-.35-.402V18.94c0-.058-.041-.1-.099-.1h-.375c-.058 0-.1.042-.1.1v1.675c0 .542.194.887.762.887.298 0 .522-.115.673-.23v.078c0 .058.042.1.1.1h.35c.057 0 .098-.042.098-.1v-2.41c0-.058-.041-.1-.099-.1z"/><path d="M25.916 18.84h-.412c-.058 0-.094.042-.115.094l-.558 1.654-.533-1.654c-.015-.057-.057-.094-.114-.094h-.413c-.062 0-.094.048-.078.1l.83 2.53-.298.872c-.02.052.021.099.078.099h.423c.058 0 .089-.042.11-.094l1.158-3.402c.021-.052-.016-.105-.078-.105z"/><path d="M28 4H2C.897 4 0 4.897 0 6v18c0 1.103.897 2 2 2h26c1.103 0 2-.897 2-2V6c0-1.103-.897-2-2-2zm1 20c0 .551-.449 1-1 1H2c-.551 0-1-.449-1-1V6c0-.551.449-1 1-1h26c.551 0 1 .449 1 1v18z"/></g><metadata><rdf:RDF xmlns:rdf="http://www.w3.org/1999/02/22-rdf-syntax-ns#" xmlns:rdfs="http://www.w3.org/2000/01/rdf-schema#" xmlns:dc="http://purl.org/dc/elements/1.1/"><rdf:Description about="https://iconscout.com/legal#licenses" dc:title="clickandbuy,payments,pay,online,send,money,credit,card,ecommerce" dc:description="clickandbuy,payments,pay,online,send,money,credit,card,ecommerce" dc:publisher="Iconscout" dc:date="2017-11-27" dc:format="image/svg+xml" dc:language="en"><dc:creator><rdf:Bag><rdf:li>Those Icons</rdf:li></rdf:Bag></dc:creator></rdf:Description></rdf:RDF></metadata></svg>