<?xml version="1.0" encoding="UTF-8"?><svg xmlns="http://www.w3.org/2000/svg" xmlns:xlink="http://www.w3.org/1999/xlink" version="1.1" id="Layer_1" x="0px" y="0px" viewBox="0 0 30 30" xml:space="preserve"><g fill="#000000"><path d="M13.882 12.791h1.498v-.788h-1.497v-.354h1.637v-.859h-2.686v3.197h2.747v-.843h-1.7v-.353z"/><path d="M18.358 13.154v-2.365h-1.034v3.198h2.46l-.001-.833h-1.425z"/><path d="M20.76 11.658h.875v2.33h1.051v-2.341h.898v-.86h-2.825v.871z"/><path d="M26.857 10.877c-.028-.072-.061-.1-.139-.1h-.004c-.14.002-.278.004-.417.004a8.751 8.751 0 0 1-.358-.006c-.1 0-.149.046-.182.135l-.177.473c-.246.653-.494 1.305-.738 1.959-.08.212-.153.427-.235.656h.448c.175 0 .346 0 .518-.004.037 0 .09-.045.108-.082.05-.119.089-.244.133-.372h.38c.17 0 .341 0 .511.004.037 0 .087.047.101.083.038.095.056.198.092.294.012.032.055.073.085.073.184.003.367.004.554.004H28c-.016-.065-.024-.107-.039-.145-.367-.992-.737-1.983-1.104-2.976zm-.82 1.954l.279-.874c.09.304.173.58.262.874h-.542z"/><path d="M10.327 10.92c-.237-.104-.489-.133-.74-.14a24.184 24.184 0 0 0-.596-.005l-.833.002H8v3.22h.169c.27 0 .54.003.811.003.177 0 .354 0 .532-.004.172-.003.348-.02.516-.06.414-.094.744-.318.925-.712.206-.448.22-.917.098-1.389-.105-.41-.32-.736-.724-.914zm-.38 1.947c-.162.258-.405.285-.661.285l-.204-.001h-.033v-1.488c.086-.007.173-.013.257-.013.257 0 .493.056.651.307.185.294.172.617-.01.91z"/><path d="M28 4H2C.897 4 0 4.897 0 6v18c0 1.103.897 2 2 2h26c1.103 0 2-.897 2-2V6c0-1.103-.897-2-2-2zM1 19.337L5.945 22H1v-2.663zM2.483 19H13v5.663L2.483 19zM7 23v1.742L2.936 23H7zm1 .107L11.516 25H8v-1.893zm6-3.924L23.695 25H14v-5.817zM1 18v-6.617L12.029 18H1zm0 6v-.742L5.064 25H2c-.552 0-1-.449-1-1zm28 0c0 .551-.448 1-1 1h-2.362L1 10.217V6c0-.551.448-1 1-1h26c.552 0 1 .449 1 1v18z"/></g><metadata><rdf:RDF xmlns:rdf="http://www.w3.org/1999/02/22-rdf-syntax-ns#" xmlns:rdfs="http://www.w3.org/2000/01/rdf-schema#" xmlns:dc="http://purl.org/dc/elements/1.1/"><rdf:Description about="https://iconscout.com/legal#licenses" dc:title="delta,payments,pay,online,send,money,credit,card,ecommerce" dc:description="delta,payments,pay,online,send,money,credit,card,ecommerce" dc:publisher="Iconscout" dc:date="2017-11-27" dc:format="image/svg+xml" dc:language="en"><dc:creator><rdf:Bag><rdf:li>Those Icons</rdf:li></rdf:Bag></dc:creator></rdf:Description></rdf:RDF></metadata></svg>