<?xml version="1.0" encoding="UTF-8"?><svg xmlns="http://www.w3.org/2000/svg" xmlns:xlink="http://www.w3.org/1999/xlink" version="1.1" id="Layer_1" x="0px" y="0px" viewBox="0 0 30 30" xml:space="preserve"><g fill="#000000"><path d="M10.041 15.282c-.06 0-.137.012-.232.032a.58.58 0 0 0-.258.134l-.42 1.745.066.012a.5.5 0 0 0 .137.013h.115a.865.865 0 0 0 .42-.108c.132-.072.246-.169.34-.29a1.462 1.462 0 0 0 .31-.888c0-.204-.034-.363-.102-.478-.068-.114-.194-.172-.376-.172z"/><path d="M6.642 15.112c.05-.336-.206-.517-.556-.637l.113-.456-.277-.069-.11.444a10.871 10.871 0 0 0-.223-.053l.112-.446-.278-.07-.113.456a9.155 9.155 0 0 1-.177-.041v-.002l-.382-.095-.074.296s.206.047.201.05c.112.028.133.102.13.161l-.13.52a.235.235 0 0 1 .029.008l-.03-.007-.18.727c-.015.034-.05.085-.128.066.003.004-.201-.05-.201-.05l-.138.317.36.09.198.051-.114.46.277.07.113-.456c.076.02.15.04.221.057l-.113.454.277.07.115-.46c.473.089.829.053.978-.375.12-.344-.006-.543-.255-.672.182-.042.318-.161.355-.408zm-.634.889c-.086.344-.666.158-.854.111l.153-.61c.188.047.79.14.7.499zm-.632-.779l.138-.553c.157.039.661.112.58.438-.078.314-.561.155-.718.115z"/><path d="M20.53 15.276c-.14 0-.264.041-.37.121a1.04 1.04 0 0 0-.267.306 1.509 1.509 0 0 0-.163.404 1.74 1.74 0 0 0-.053.417c0 .213.034.378.101.497.068.119.191.178.37.178.14 0 .263-.04.369-.12.105-.081.195-.183.267-.306.072-.123.127-.258.163-.405.036-.146.054-.285.054-.417 0-.212-.034-.378-.102-.496-.068-.119-.192-.179-.37-.179z"/><path d="M28 4H2C.897 4 0 4.897 0 6v18c0 1.103.897 2 2 2h26c1.103 0 2-.897 2-2V6c0-1.103-.897-2-2-2zm-5.034 9.427a.663.663 0 0 1 .601-.391c.132 0 .25.039.357.117.106.08.16.2.16.36 0 .09-.02.173-.055.252a.661.661 0 0 1-.602.39.583.583 0 0 1-.356-.117c-.106-.078-.16-.198-.16-.36 0-.089.019-.172.055-.25zm-10.486 0a.672.672 0 0 1 .602-.391c.132 0 .25.039.357.117.105.08.159.2.159.36 0 .09-.018.173-.055.252a.664.664 0 0 1-.6.39.584.584 0 0 1-.357-.117c-.107-.078-.16-.198-.16-.36 0-.089.018-.172.054-.25zM7.98 16.084a2.527 2.527 0 1 1-4.904-1.223 2.527 2.527 0 0 1 4.904 1.223zm3.32.609a2.081 2.081 0 0 1-1.105 1.14c-.255.112-.53.168-.828.168-.038 0-.105 0-.2-.003a2.946 2.946 0 0 1-.328-.028 3.856 3.856 0 0 1-.392-.077 1.966 1.966 0 0 1-.392-.14l1.102-4.629.987-.153-.395 1.643c.085-.038.17-.068.255-.089.085-.021.176-.032.273-.032.204 0 .38.036.529.108.148.073.271.17.37.293.097.124.17.268.216.433a2.144 2.144 0 0 1-.092 1.366zm1.185 1.22h-.943l.796-3.35h.949l-.802 3.35zm1.895-.908c.026.062.071.11.137.143.066.034.16.051.283.051.102 0 .201-.01.297-.029a2.1 2.1 0 0 0 .29-.079l.07.726a3.384 3.384 0 0 1-.414.12c-.15.035-.325.052-.53.052-.292 0-.519-.044-.68-.13a.757.757 0 0 1-.344-.358 1.134 1.134 0 0 1-.09-.518c.01-.196.039-.401.09-.618l.624-2.636.987-.152-.243.987h1.058l-.191.776h-1.051l-.28 1.172c-.026.097-.04.188-.044.273a.5.5 0 0 0 .031.22zm2.614-.006c.093.134.265.2.515.2a1.754 1.754 0 0 0 .662-.133l.071.757c-.12.047-.25.088-.395.125a2.195 2.195 0 0 1-.516.053 1.74 1.74 0 0 1-.668-.114 1.273 1.273 0 0 1-.452-.309 1.164 1.164 0 0 1-.258-.455 1.87 1.87 0 0 1-.08-.548c0-.288.047-.56.14-.815.093-.255.227-.477.402-.669a1.88 1.88 0 0 1 .633-.452c.248-.11.525-.165.83-.165a2.077 2.077 0 0 1 .923.197l-.324.74a3.049 3.049 0 0 0-.264-.093 1.149 1.149 0 0 0-.334-.042c-.315 0-.563.109-.748.325-.185.216-.278.507-.278.872 0 .217.047.392.14.526zm4.829-.379c-.08.254-.2.484-.357.688-.157.203-.353.37-.589.5-.235.129-.508.193-.818.193a1.54 1.54 0 0 1-.586-.102 1.082 1.082 0 0 1-.41-.286 1.237 1.237 0 0 1-.245-.436 1.76 1.76 0 0 1-.083-.557c0-.255.041-.51.124-.764.083-.255.205-.484.367-.688.16-.203.358-.37.591-.5.233-.13.501-.194.802-.194.221 0 .415.034.583.102.168.068.305.164.414.287.108.123.19.268.245.436.055.167.083.353.083.557 0 .254-.04.51-.121.764zm.204 1.293l.796-3.35h.95l-.803 3.35h-.943zm4.901-1.809l-.433 1.808h-.949l.42-1.77c.026-.11.046-.217.061-.322a.763.763 0 0 0-.003-.273.328.328 0 0 0-.118-.191c-.062-.05-.156-.074-.283-.074-.123 0-.248.014-.376.04l-.617 2.59h-.95l.771-3.196c.072-.02.152-.046.239-.073a3.516 3.516 0 0 1 .656-.133 4.07 4.07 0 0 1 .455-.023c.497 0 .84.144 1.028.433.19.289.222.684.1 1.184z"/></g><metadata><rdf:RDF xmlns:rdf="http://www.w3.org/1999/02/22-rdf-syntax-ns#" xmlns:rdfs="http://www.w3.org/2000/01/rdf-schema#" xmlns:dc="http://purl.org/dc/elements/1.1/"><rdf:Description about="https://iconscout.com/legal#licenses" dc:title="bitcoin,payments,pay,online,send,money,credit,ecommerce" dc:description="bitcoin,payments,pay,online,send,money,credit,ecommerce" dc:publisher="Iconscout" dc:date="2017-11-29" dc:format="image/svg+xml" dc:language="en"><dc:creator><rdf:Bag><rdf:li>Those Icons</rdf:li></rdf:Bag></dc:creator></rdf:Description></rdf:RDF></metadata></svg>