<?xml version="1.0" encoding="UTF-8"?><svg xmlns="http://www.w3.org/2000/svg" xmlns:xlink="http://www.w3.org/1999/xlink" version="1.1" id="Layer_1" x="0px" y="0px" viewBox="0 0 30 30" xml:space="preserve"><g fill="#000000"><path d="M28 4H2C.897 4 0 4.897 0 6v18c0 1.103.897 2 2 2h26c1.103 0 2-.897 2-2V6c0-1.103-.897-2-2-2zm1 20c0 .551-.449 1-1 1H2c-.551 0-1-.449-1-1V6c0-.551.449-1 1-1h26c.551 0 1 .449 1 1v18z"/><path d="M7.5 15c0 2.31 1.756 4.197 4 4.45v-8.9c-2.244.253-4 2.14-4 4.45z"/><path d="M12.5 10.55v8.9c2.244-.253 4-2.14 4-4.45s-1.756-4.197-4-4.45z"/><path d="M18.5 9.025V9h-7v.025C8.42 9.28 6 11.855 6 15s2.42 5.72 5.5 5.975V21h7v-.025C21.58 20.72 24 18.145 24 15s-2.42-5.72-5.5-5.975zM12 20.5c-3.033 0-5.5-2.467-5.5-5.5S8.967 9.5 12 9.5s5.5 2.467 5.5 5.5-2.467 5.5-5.5 5.5z"/></g><metadata><rdf:RDF xmlns:rdf="http://www.w3.org/1999/02/22-rdf-syntax-ns#" xmlns:rdfs="http://www.w3.org/2000/01/rdf-schema#" xmlns:dc="http://purl.org/dc/elements/1.1/"><rdf:Description about="https://iconscout.com/legal#licenses" dc:title="diners,club,payments,pay,online,send,money,credit,card,ecommerce" dc:description="diners,club,payments,pay,online,send,money,credit,card,ecommerce" dc:publisher="Iconscout" dc:date="2017-11-27" dc:format="image/svg+xml" dc:language="en"><dc:creator><rdf:Bag><rdf:li>Those Icons</rdf:li></rdf:Bag></dc:creator></rdf:Description></rdf:RDF></metadata></svg>