<?xml version="1.0" encoding="UTF-8"?><svg xmlns="http://www.w3.org/2000/svg" xmlns:xlink="http://www.w3.org/1999/xlink" version="1.1" id="Layer_1" x="0px" y="0px" viewBox="0 0 30 30" xml:space="preserve"><g fill="#000000"><path d="M19.142 17.06c.012-.65-.297-.878-.936-.901-.365 0-1.004.182-1.004.764 0 .72.776.776 1.039.776.25 0 .776-.125.776-.125v-.354s-.274.182-.754.171c-.36-.017-.468-.181-.5-.33.328.002 1.38.009 1.38 0zm-1.377-.285c.031-.16.135-.331.453-.331.422 0 .422.33.422.33h-.875z"/><path d="M15.49 13.374h-1.14v1.883h1.163s1.085-.114 1.096-.878c.011-1.027-1.118-1.005-1.118-1.005zm-.216 1.53h-.365v-1.267h.32s.798.046.798.639c0 .57-.753.628-.753.628z"/><path d="M21.778 14.926h-1.004v-.41h.913v-.354h-.913v-.434h.993v-.365h-1.552v1.906h1.563z"/><path d="M16.906 13.363h.547v1.906h-.547z"/><path d="M15.49 15.748h-1.14v1.883h1.163s1.085-.114 1.096-.879c.011-1.027-1.118-1.004-1.118-1.004zm-.216 1.529h-.365V16.01h.32s.798.057.798.64c0 .581-.753.627-.753.627z"/><path d="M21.23 16.17c-.357 0-.57.11-.696.248v-.83h-.559v2.054h.56v-.192c.115.132.305.238.615.238.822 0 .88-.605.89-.765a.749.749 0 0 0-.81-.753zm-.217 1.198c-.35 0-.45-.215-.479-.338v-.149c.03-.121.129-.369.457-.369.422 0 .502.286.502.423a.49.49 0 0 1-.48.433z"/><path d="M19.233 14.367s.537-.034.537-.502c0-.548-.936-.502-.936-.502h-.901v1.906h.547v-.738l.206.007c.274 0 .353.286.353.286s.103.17.137.25c.046.08.137.195.137.195h.57s-.376-.685-.433-.776c-.068-.103-.217-.126-.217-.126zm-.456-.148h-.297v-.548h.331s.411.034.4.274c-.023.251-.434.274-.434.274z"/><path d="M24.106 13.683h.662v1.586h.559v-1.586H26v-.331h-1.894z"/><path d="M23.273 13.66c.342 0 .605.102.605.102l.068-.33s-.285-.126-.787-.126c-.49 0-1.278.274-1.278 1.016 0 .73.833.98 1.346.98s.685-.079.685-.079l-.057-.365s-.228.068-.616.068c-.377-.011-.765-.308-.765-.639.011-.296.354-.627.799-.627z"/><path d="M25.6 17.345c-.228 0-.228-.285-.228-.285v-.57h.468v-.297h-.468v-.354h-.57v.354h-.468v.297h.468v.661c0 .434.445.537.616.537s.434-.057.434-.057l-.012-.32s-.011.034-.24.034z"/><path d="M22.999 15.588h.56v.388h-.56z"/><path d="M22.999 16.193h.56v1.45h-.56z"/><path d="M9.42 11.894v.163c.638.08 2.632.547 2.67 3.212.046 3.172-2.91 3.286-3.012 3.286-2.602-.034-4.2-1.335-4.2-2.225 0-1.365 3.018-1.989 4.348-1.892v-2.554a6.842 6.842 0 0 0-.25-.004C6.225 11.88 4 13.477 4 15.44S6.225 19 8.975 19s4.987-1.598 4.987-3.56c0-1.856-2-3.385-4.542-3.546z"/><path d="M7.012 16.41c0 1.517 2.214 1.917 2.214 1.917v-3.818c-.575.157-2.214.69-2.214 1.9z"/><path d="M28 4H2C.897 4 0 4.897 0 6v18c0 1.103.897 2 2 2h26c1.103 0 2-.897 2-2V6c0-1.103-.897-2-2-2zm1 20c0 .551-.449 1-1 1H2c-.551 0-1-.449-1-1V6c0-.551.449-1 1-1h26c.551 0 1 .449 1 1v18z"/></g><metadata><rdf:RDF xmlns:rdf="http://www.w3.org/1999/02/22-rdf-syntax-ns#" xmlns:rdfs="http://www.w3.org/2000/01/rdf-schema#" xmlns:dc="http://purl.org/dc/elements/1.1/"><rdf:Description about="https://iconscout.com/legal#licenses" dc:title="direct,debit,payments,pay,online,send,money,credit,card,ecommerce" dc:description="direct,debit,payments,pay,online,send,money,credit,card,ecommerce" dc:publisher="Iconscout" dc:date="2017-11-27" dc:format="image/svg+xml" dc:language="en"><dc:creator><rdf:Bag><rdf:li>Those Icons</rdf:li></rdf:Bag></dc:creator></rdf:Description></rdf:RDF></metadata></svg>