<?xml version="1.0" encoding="UTF-8"?><svg xmlns="http://www.w3.org/2000/svg" xmlns:xlink="http://www.w3.org/1999/xlink" version="1.1" id="Layer_1" x="0px" y="0px" viewBox="0 0 30 30" xml:space="preserve"><g fill="#000000"><path d="M4.102 11.993H3v3.87h1.096c.583 0 1.004-.139 1.374-.447.439-.366.698-.916.698-1.486 0-1.142-.848-1.937-2.066-1.937zM4.98 14.9c-.236.214-.542.307-1.027.307H3.75v-2.559h.202c.485 0 .78.088 1.027.313.26.233.416.593.416.964s-.156.742-.416.975z"/><path d="M6.514 11.993h.75v3.87h-.75z"/><path d="M9.1 13.478c-.45-.168-.582-.278-.582-.487 0-.244.235-.43.559-.43.225 0 .41.094.605.314l.393-.517a1.68 1.68 0 0 0-1.13-.429c-.682 0-1.201.475-1.201 1.109 0 .533.241.806.947 1.06.293.105.443.174.519.221.15.099.225.238.225.4 0 .314-.248.546-.583.546-.358 0-.647-.18-.82-.516l-.485.47c.346.51.762.736 1.333.736.78 0 1.328-.521 1.328-1.27 0-.615-.254-.893-1.108-1.207z"/><path d="M12.476 15.95c.323 0 .6-.064.941-.226v-.888c-.3.302-.566.423-.906.423-.756 0-1.293-.55-1.293-1.334 0-.743.554-1.33 1.258-1.33.358 0 .63.13.941.436v-.888c-.33-.168-.6-.238-.923-.238-1.138 0-2.05.9-2.05 2.025 0 1.138.889 2.02 2.032 2.02z"/><path d="M19.561 15.962l1.663-3.97h-.814l-1.04 2.6-1.026-2.6h-.82l1.633 3.97z"/><path d="M23.693 15.207h-1.38v-1.044h1.329v-.656h-1.329v-.859h1.38v-.655h-2.13v3.87h2.13z"/><path d="M24.94 14.308h.098l1.039 1.554H27l-1.212-1.63c.566-.115.877-.504.877-1.097 0-.724-.496-1.142-1.362-1.142H24.19v3.87h.75v-1.555zm0-1.706h.23c.468 0 .723.197.723.574 0 .389-.255.598-.734.598h-.22v-1.172z"/><path d="M28 4H2C.897 4 0 4.897 0 6v18c0 1.103.897 2 2 2h26c1.103 0 2-.897 2-2V6c0-1.103-.897-2-2-2zM1 24V6c0-.551.448-1 1-1h26c.552 0 1 .449 1 1v9.87c-2.306 1.897-8.576 6.462-18.247 9.13H2c-.552 0-1-.449-1-1zm28 0c0 .551-.449 1-1 1H14.189C21.545 22.502 26.56 19.078 29 17.161V24z"/><path d="M15.71 16c1.13 0 2.048-.922 2.048-2.06a2.053 2.053 0 0 0-2.048-2.057 2.053 2.053 0 0 0-2.048 2.058c0 1.137.917 2.058 2.048 2.058zm0-3.117c.578 0 1.048.474 1.048 1.058 0 .584-.47 1.058-1.048 1.058s-1.048-.474-1.048-1.058c0-.584.47-1.058 1.048-1.058z"/></g><metadata><rdf:RDF xmlns:rdf="http://www.w3.org/1999/02/22-rdf-syntax-ns#" xmlns:rdfs="http://www.w3.org/2000/01/rdf-schema#" xmlns:dc="http://purl.org/dc/elements/1.1/"><rdf:Description about="https://iconscout.com/legal#licenses" dc:title="discover,payments,pay,online,send,money,credit,card,ecommerce" dc:description="discover,payments,pay,online,send,money,credit,card,ecommerce" dc:publisher="Iconscout" dc:date="2017-11-27" dc:format="image/svg+xml" dc:language="en"><dc:creator><rdf:Bag><rdf:li>Those Icons</rdf:li></rdf:Bag></dc:creator></rdf:Description></rdf:RDF></metadata></svg>