<?xml version="1.0" encoding="UTF-8"?><svg xmlns="http://www.w3.org/2000/svg" xmlns:xlink="http://www.w3.org/1999/xlink" version="1.1" id="Layer_1" x="0px" y="0px" viewBox="0 0 30 30" xml:space="preserve"><g fill="#000000"><path d="M17.831 10.344a1.177 1.177 0 0 0-1.662 0l-3.824 3.824c-.223.222-.345.518-.345.832s.122.61.345.832l1.682 1.682.707-.707-1.682-1.683a.175.175 0 0 1 0-.249l3.824-3.824c.059-.058.19-.058.248 0l3.824 3.825a.175.175 0 0 1 0 .249l-3.824 3.824c-.059.057-.188.058-.251-.003l-.84-.826-.701.713.837.823a1.173 1.173 0 0 0 1.662 0l3.824-3.824c.223-.222.345-.518.345-.832s-.122-.61-.345-.832l-3.824-3.824z"/><path d="M18 15c0-.314-.122-.61-.345-.832l-1.696-1.696-.707.707 1.696 1.697a.175.175 0 0 1 0 .249l-3.824 3.824c-.059.058-.19.058-.248 0l-3.824-3.825a.175.175 0 0 1 0-.249l3.824-3.824c.059-.058.19-.058.248 0l.877.877.707-.707-.877-.877a1.177 1.177 0 0 0-1.662 0l-3.824 3.824C8.122 14.39 8 14.686 8 15s.122.61.345.832l3.824 3.824a1.173 1.173 0 0 0 1.662 0l3.824-3.824c.223-.222.345-.518.345-.832z"/><path d="M28 4H2C.897 4 0 4.897 0 6v18c0 1.103.897 2 2 2h26c1.103 0 2-.897 2-2V6c0-1.103-.897-2-2-2zm1 20c0 .551-.448 1-1 1H2c-.552 0-1-.449-1-1V6c0-.551.448-1 1-1h26c.552 0 1 .449 1 1v18z"/></g><metadata><rdf:RDF xmlns:rdf="http://www.w3.org/1999/02/22-rdf-syntax-ns#" xmlns:rdfs="http://www.w3.org/2000/01/rdf-schema#" xmlns:dc="http://purl.org/dc/elements/1.1/"><rdf:Description about="https://iconscout.com/legal#licenses" dc:title="epay,payments,pay,online,send,money,credit,card,ecommerce" dc:description="epay,payments,pay,online,send,money,credit,card,ecommerce" dc:publisher="Iconscout" dc:date="2017-11-27" dc:format="image/svg+xml" dc:language="en"><dc:creator><rdf:Bag><rdf:li>Those Icons</rdf:li></rdf:Bag></dc:creator></rdf:Description></rdf:RDF></metadata></svg>