<?xml version="1.0" encoding="UTF-8"?><svg xmlns="http://www.w3.org/2000/svg" xmlns:xlink="http://www.w3.org/1999/xlink" version="1.1" id="Layer_1" x="0px" y="0px" viewBox="0 0 30 30" xml:space="preserve"><g fill="#000000"><path d="M20.5 8h-3a.5.5 0 0 0-.483.627c.007.028.575 2.217.851 5.037a64.154 64.154 0 0 0-1.94-3.423A.5.5 0 0 0 15.5 10h-3a.5.5 0 0 0-.498.5H12c0 .562-.029 2.215-.289 3.777a9.349 9.349 0 0 0-.84-1.112A.5.5 0 0 0 10.5 13h-3a.5.5 0 0 0-.371.835c1.575 1.744 2.503 4.61 2.853 5.689l.043.131A.5.5 0 0 0 10.5 20h3a.5.5 0 0 0 .405-.207c.023-.032.03-.071.044-.108l.013.005c.35-.847.533-2.098.71-3.308l.1-.674c1.117 2.342 1.85 4.435 2.238 6.39a.5.5 0 0 0 .49.402h3a.5.5 0 0 0 .386-.183c.034-.04.05-.089.07-.137l.009.004C21.007 22.077 22 19.518 22 15c0-4.539-1.009-6.634-1.052-6.721A.5.5 0 0 0 20.5 8zm-9.637 11c-.353-1.081-1.106-3.269-2.328-5h1.738c1.282 1.511 2.114 3.742 2.537 5h-1.947zm2.82-2.763a43.256 43.256 0 0 1-.247 1.542c-.25-.67-.569-1.443-.972-2.224.278-1.077.414-2.31.477-3.319.394.687.757 1.352 1.094 1.998-.137.553-.243 1.255-.352 2.003zm4.223 5.263c-.67-3.058-2.119-6.423-4.525-10.5h1.837c2.473 4.117 3.968 7.479 4.663 10.5h-1.975zm2.613-1.477a30.232 30.232 0 0 0-1.51-4.017c-.058-3.045-.602-5.806-.874-7.006h2.03c.251.684.835 2.632.835 6 0 2.16-.24 3.86-.48 5.023z"/><path d="M28 4H2C.897 4 0 4.897 0 6v18c0 1.103.897 2 2 2h26c1.103 0 2-.897 2-2V6c0-1.103-.897-2-2-2zm1 20c0 .551-.449 1-1 1H2c-.551 0-1-.449-1-1V6c0-.551.449-1 1-1h26c.551 0 1 .449 1 1v18z"/></g><metadata><rdf:RDF xmlns:rdf="http://www.w3.org/1999/02/22-rdf-syntax-ns#" xmlns:rdfs="http://www.w3.org/2000/01/rdf-schema#" xmlns:dc="http://purl.org/dc/elements/1.1/"><rdf:Description about="https://iconscout.com/legal#licenses" dc:title="google,wallet,payments,pay,online,send,money,credit,card,ecommerce" dc:description="google,wallet,payments,pay,online,send,money,credit,card,ecommerce" dc:publisher="Iconscout" dc:date="2017-11-27" dc:format="image/svg+xml" dc:language="en"><dc:creator><rdf:Bag><rdf:li>Those Icons</rdf:li></rdf:Bag></dc:creator></rdf:Description></rdf:RDF></metadata></svg>