<?xml version="1.0" encoding="UTF-8"?><svg xmlns="http://www.w3.org/2000/svg" xmlns:xlink="http://www.w3.org/1999/xlink" version="1.1" id="Layer_1" x="0px" y="0px" viewBox="0 0 30 30" xml:space="preserve"><g fill="#000000"><path d="M7.834 16.103h2.75v4.895h-2.75z"/><circle cx="9.2092285" cy="13.6366119" r="1.7092438"/><path d="M13.484 13.626c0-.695-.349-.785-.653-.785h-.49v1.596h.49c.34 0 .653-.099.653-.81z"/><path d="M18.566 12.923l-.262.9h.573l-.263-.9z"/><path d="M22.477 14.437c-.322-4.335-3.731-5.272-6.831-5.272h-3.304v2.884h.49c.89 0 1.444.605 1.444 1.577 0 1.004-.54 1.603-1.445 1.603h-.489V21h3.304c5.038 0 6.792-2.34 6.854-5.771h-1.99v-3.182h.794v2.39h1.173zm-5.752.792h-1.96v-3.18H16.662v.792h-1.105v.368h1.045V14h-1.045v.436h1.168v.792zm2.563 0l-.18-.615H18.07l-.18.615h-.823l.958-3.182h1.128l.958 3.182h-.824z"/><path d="M28 4H2C.897 4 0 4.897 0 6v18c0 1.103.897 2 2 2h26c1.103 0 2-.897 2-2V6c0-1.103-.897-2-2-2zm1 20c0 .551-.449 1-1 1H2c-.551 0-1-.449-1-1V6c0-.551.449-1 1-1h26c.551 0 1 .449 1 1v18z"/><path d="M16.063 7H6v16h10.063C20.439 23 24 19.411 24 15s-3.56-8-7.938-8zm0 15.5H6.5v-15h9.563c4.107 0 7.437 3.358 7.437 7.5s-3.33 7.5-7.438 7.5z"/></g><metadata><rdf:RDF xmlns:rdf="http://www.w3.org/1999/02/22-rdf-syntax-ns#" xmlns:rdfs="http://www.w3.org/2000/01/rdf-schema#" xmlns:dc="http://purl.org/dc/elements/1.1/"><rdf:Description about="https://iconscout.com/legal#licenses" dc:title="ideal,payments,pay,online,send,money,credit,card,ecommerce" dc:description="ideal,payments,pay,online,send,money,credit,card,ecommerce" dc:publisher="Iconscout" dc:date="2017-11-27" dc:format="image/svg+xml" dc:language="en"><dc:creator><rdf:Bag><rdf:li>Those Icons</rdf:li></rdf:Bag></dc:creator></rdf:Description></rdf:RDF></metadata></svg>