<?xml version="1.0" encoding="UTF-8"?><svg xmlns="http://www.w3.org/2000/svg" xmlns:xlink="http://www.w3.org/1999/xlink" version="1.1" id="Layer_1" x="0px" y="0px" viewBox="0 0 30 30" xml:space="preserve"><g fill="#000000"><path d="M6.283 8.123c-.727.206-1.342.747-1.61 1.378-.152.357-.173.718-.173 1.092v5.81a.499.499 0 0 1 .375-.008c.438.169.889.284 1.306.332.19.022.345.032.487.032a1.81 1.81 0 0 0 .67-.112.912.912 0 0 0 .592-.748l.008-2.604c0-.221.201-.4.45-.4h1.714c.25 0 .45.179.45.4v2.465c0 .329-.072.802-.419 1.189-.438.49-1.146.695-1.662.781-.123.02-.241.03-.355.039l-.148.013a7.055 7.055 0 0 1-.44.027c-.193.006-.35.01-.493.01-.128 0-.248-.003-.366-.009a16.433 16.433 0 0 1-1.729-.178 5.289 5.289 0 0 1-.35-.067.502.502 0 0 1-.09-.03v4.46H8.05c.349 0 .692-.005 1.033-.091.672-.17 1.265-.59 1.593-1.14.183-.306.276-.633.304-.972v-.001c.006-.074.01-.148.01-.223V8H7.114c-.285 0-.56.046-.831.123zm3.706 11.445c0 .048-.003.095-.007.142-.017.207-.07.383-.165.54-.19.317-.565.579-.98.684-.224.057-.478.061-.788.061H5.5v-2.279c.406.048.769.078 1.125.094.132.005.266.008.41.008.153 0 .32-.003.526-.01.187-.006.351-.016.505-.031l.129-.011a4.715 4.715 0 0 0 1.794-.479v1.28zm0-7.674H8.388c-.8 0-1.45.629-1.45 1.398l-.008 2.44a1.011 1.011 0 0 1-.262.027c-.108 0-.227-.009-.372-.025a4.212 4.212 0 0 1-.796-.178v-4.963c0-.297.016-.518.093-.7.155-.364.541-.689.962-.808A2.04 2.04 0 0 1 7.115 9h2.874v2.894z"/><path d="M21.985 8c-.11 0-.803.004-1.176.114-.29.106-.565.215-.813.39-.289.204-.527.46-.699.751-.198.335-.296.71-.296 1.088l.003 2.578a.497.497 0 0 1 .194-.04h3.362c.233 0 .428.004.626.03.326.042.78.163 1.092.496l.009.009c.339.384.364.915.066 1.353a1.336 1.336 0 0 1-.528.421c.513.16.969.485 1.038 1.036.034.279-.033.557-.184.762-.111.148-.249.31-.436.4-.31.206-.704.264-1.013.291a4.45 4.45 0 0 1-.39.015l-.257-.003a13.465 13.465 0 0 0-.248-.003h-3.13a.489.489 0 0 1-.196-.042l.005 4.351h3.402l.3.001c.264 0 .528-.008.785-.068.684-.161 1.291-.548 1.646-1.097.249-.387.353-.81.353-1.253V8.502v-.5L23 8h-1.015zM24.5 19.027v.553c0 .28-.062.506-.194.711-.204.316-.58.559-1.034.665a2.53 2.53 0 0 1-.556.042H20.013l-.003-2.31h2.325l.245.003.26.003c.186 0 .337-.007.476-.019.344-.03.77-.091 1.184-.287v.64zm0-6.712a3.047 3.047 0 0 0-1.185-.396 5.682 5.682 0 0 0-.755-.039h-2.557L20 10.343c0-.205.054-.405.157-.579.1-.169.243-.322.416-.444.131-.092.294-.178.54-.253.15-.046 1.005-.066 1.362-.067l2.024.001v3.314z"/><path d="M20.402 15.728v.912l1.26.001c.534 0 .618-.33.618-.458a.43.43 0 0 0-.214-.372c-.114-.07-.248-.084-.428-.084l-1.236.001z"/><path d="M21.765 13.914c-.01-.002-.075-.016-.217-.016H20.402v.817l1.062.001h.136c.122 0 .28-.024.392-.138a.385.385 0 0 0 .082-.42.435.435 0 0 0-.309-.244z"/><path d="M14.79 8h-.158c-.362 0-.722.007-1.07.114-.75.232-1.398.748-1.656 1.428-.178.405-.156.838-.156 1.263l.003 2.62a3.848 3.848 0 0 1 1.102-.458c.255-.065.5-.1.76-.139l.116-.017c.29-.043.584-.047.869-.052a17.03 17.03 0 0 1 .85.009c.543.022 1.054.104 1.595.19l.122.02.102.018c.209.04.358.203.358.393v.412a.392.392 0 0 1-.203.335.491.491 0 0 1-.427.033c-.4-.155-.827-.26-1.271-.316a4.285 4.285 0 0 0-.52-.032c-.125 0-.246.006-.358.018-.336.035-.602.11-.815.226a1.235 1.235 0 0 0-.634.78c-.116.424-.06.887.145 1.212.166.263.45.464.821.583h.003c.301.073.57.108.823.108.093 0 .184-.005.274-.014a5.876 5.876 0 0 0 1.518-.354.499.499 0 0 1 .427.031c.127.074.204.2.204.336v.42c0 .185-.142.346-.344.39a14.15 14.15 0 0 1-1.505.223c-.293.031-.594.031-.859.031h-.232c-.237 0-.435-.003-.634-.02a8.515 8.515 0 0 1-.87-.113 4.614 4.614 0 0 1-.986-.308 3.415 3.415 0 0 1-.43-.22l.003 4.85h3.679c.283 0 .565-.008.84-.075.61-.161 1.12-.463 1.498-.92.257-.358.433-.73.47-1.159.008-.078.009-.157.009-.235V8.585 8H14.79zm2.463 7.349a1.487 1.487 0 0 0-.633.099c-.37.144-.783.24-1.263.291-.055.006-.11.01-.166.01-.162 0-.343-.024-.552-.072-.144-.05-.224-.113-.249-.153-.04-.065-.075-.236-.023-.429a.258.258 0 0 1 .092-.124l.037-.02.02-.01c.063-.035.19-.082.436-.108a3.278 3.278 0 0 1 .651.012c.363.046.71.132 1.033.256a1.491 1.491 0 0 0 .617.099v.149zm0 3.762v.5c0 .049 0 .098-.004.148-.018.2-.1.396-.266.632-.235.272-.55.458-.94.562-.163.04-.353.047-.607.047h-2.679l-.002-2.388c.075.018.151.034.227.048.356.068.691.103.971.127a8.2 8.2 0 0 0 .722.025h.231c.276 0 .618 0 .964-.037.435-.046.9-.102 1.383-.195v.53zm0-7.132l-.05-.007c-.545-.088-1.11-.18-1.714-.203a15.5 15.5 0 0 0-.617-.012l-.289.002c-.302.005-.645.01-.997.063l-.114.017a9.383 9.383 0 0 0-.72.124l-.002-1.158v-.133c-.002-.3-.003-.558.09-.775.137-.359.527-.676 1.017-.827.21-.065.475-.07.775-.07h2.621v2.98z"/><path d="M28 4H2C.897 4 0 4.897 0 6v18c0 1.103.897 2 2 2h26c1.103 0 2-.897 2-2V6c0-1.103-.897-2-2-2zm1 20c0 .551-.448 1-1 1H2c-.552 0-1-.449-1-1V6c0-.551.448-1 1-1h26c.552 0 1 .449 1 1v18z"/></g><metadata><rdf:RDF xmlns:rdf="http://www.w3.org/1999/02/22-rdf-syntax-ns#" xmlns:rdfs="http://www.w3.org/2000/01/rdf-schema#" xmlns:dc="http://purl.org/dc/elements/1.1/"><rdf:Description about="https://iconscout.com/legal#licenses" dc:title="jcb,payments,pay,online,send,money,credit,card,ecommerce" dc:description="jcb,payments,pay,online,send,money,credit,card,ecommerce" dc:publisher="Iconscout" dc:date="2017-11-27" dc:format="image/svg+xml" dc:language="en"><dc:creator><rdf:Bag><rdf:li>Those Icons</rdf:li></rdf:Bag></dc:creator></rdf:Description></rdf:RDF></metadata></svg>