<?xml version="1.0" encoding="UTF-8"?><svg xmlns="http://www.w3.org/2000/svg" xmlns:xlink="http://www.w3.org/1999/xlink" version="1.1" id="Layer_1" x="0px" y="0px" viewBox="0 0 30 30" xml:space="preserve"><g fill="#000000"><path d="M10.082 21.16c-.223-.003-.454.067-.615.312a.642.642 0 0 0-.578-.311.579.579 0 0 0-.512.26v-.216h-.38v1.749h.383v-.97c0-.303.169-.464.428-.464.253 0 .381.164.381.46v.974h.384v-.97c0-.303.176-.464.428-.464.26 0 .385.164.385.46v.974h.384v-1.098c0-.413-.264-.691-.688-.695z"/><path d="M12.534 21.417a.664.664 0 0 0-.553-.256c-.49 0-.874.384-.874.918s.384.919.874.919a.664.664 0 0 0 .553-.256v.212h.38v-1.749h-.38v.212zm-.505 1.222c-.33 0-.531-.252-.531-.56s.201-.56.53-.56c.315 0 .528.242.528.56s-.213.56-.527.56z"/><path d="M21.731 21.423c-.084-.082-.183-.147-.298-.194s-.24-.07-.376-.07-.26.023-.375.07a.896.896 0 0 0-.565.85.896.896 0 0 0 .565.85c.115.048.24.071.375.071s.26-.023.376-.07.214-.112.298-.194a.886.886 0 0 0 .198-.291.925.925 0 0 0 .071-.366.926.926 0 0 0-.071-.365.886.886 0 0 0-.198-.291zm-.166.884a.531.531 0 0 1-.508.333.568.568 0 0 1-.217-.04.513.513 0 0 1-.288-.293.597.597 0 0 1-.042-.228c0-.082.014-.158.042-.227a.514.514 0 0 1 .289-.292.568.568 0 0 1 .216-.041c.078 0 .15.013.218.04a.509.509 0 0 1 .29.293.599.599 0 0 1 .042.227.599.599 0 0 1-.042.228z"/><path d="M14.154 21.16c-.512 0-.87.374-.87.92 0 .556.373.918.896.918.263 0 .505-.066.717-.245l-.186-.282a.833.833 0 0 1-.509.183c-.245 0-.468-.113-.523-.428h1.299c.003-.048.007-.095.007-.147-.004-.545-.34-.918-.83-.918zm-.472.766c.04-.253.194-.425.465-.425.245 0 .403.154.443.425h-.908z"/><path d="M16.185 21.904l-.179-.026c-.165-.022-.296-.055-.296-.172 0-.128.124-.205.333-.205.223 0 .439.084.545.15l.164-.307c-.183-.12-.435-.183-.713-.183-.443 0-.728.212-.728.56 0 .285.212.46.603.516l.18.025c.208.03.307.085.307.183 0 .136-.139.213-.399.213a.932.932 0 0 1-.582-.183l-.179.296c.209.154.472.227.758.227.505 0 .797-.238.797-.57 0-.308-.23-.47-.61-.524z"/><path d="M18.047 22.636c-.19 0-.253-.118-.253-.293v-.79h.622v-.348h-.622v-.53h-.384v.53h-.355v.347h.355v.798c0 .406.158.648.608.648a.894.894 0 0 0 .475-.135l-.11-.326a.702.702 0 0 1-.336.099z"/><path d="M19.272 21.417v-.212h-.376v1.749h.38v-.98c0-.29.125-.45.373-.45a.62.62 0 0 1 .238.043l.117-.359a.813.813 0 0 0-.27-.047.516.516 0 0 0-.462.256z"/><path d="M28 4H2C.897 4 0 4.897 0 6v18c0 1.103.897 2 2 2h26c1.103 0 2-.897 2-2V6c0-1.103-.897-2-2-2zm1 20c0 .551-.449 1-1 1H2c-.551 0-1-.449-1-1V6c0-.551.449-1 1-1h26c.551 0 1 .449 1 1v18z"/><path d="M19 7a5.969 5.969 0 0 0-4 1.54A5.969 5.969 0 0 0 11 7c-3.309 0-6 2.691-6 6s2.691 6 6 6a5.969 5.969 0 0 0 4-1.54A5.969 5.969 0 0 0 19 19c3.309 0 6-2.691 6-6s-2.691-6-6-6zm-4 8.97c-.62-.834-1-1.854-1-2.97s.38-2.136 1-2.97c.62.834 1 1.854 1 2.97s-.38 2.136-1 2.97zM6 13c0-2.757 2.243-5 5-5a4.96 4.96 0 0 1 3.304 1.276 5.966 5.966 0 0 0 0 7.448A4.96 4.96 0 0 1 11 18c-2.757 0-5-2.243-5-5zm13 5a4.96 4.96 0 0 1-3.304-1.276 5.966 5.966 0 0 0 0-7.448A4.96 4.96 0 0 1 19 8c2.757 0 5 2.243 5 5s-2.243 5-5 5z"/></g><metadata><rdf:RDF xmlns:rdf="http://www.w3.org/1999/02/22-rdf-syntax-ns#" xmlns:rdfs="http://www.w3.org/2000/01/rdf-schema#" xmlns:dc="http://purl.org/dc/elements/1.1/"><rdf:Description about="https://iconscout.com/legal#licenses" dc:title="maestro,payments,pay,online,send,money,credit,card,ecommerce" dc:description="maestro,payments,pay,online,send,money,credit,card,ecommerce" dc:publisher="Iconscout" dc:date="2017-11-27" dc:format="image/svg+xml" dc:language="en"><dc:creator><rdf:Bag><rdf:li>Those Icons</rdf:li></rdf:Bag></dc:creator></rdf:Description></rdf:RDF></metadata></svg>