<?xml version="1.0" encoding="UTF-8"?><svg xmlns="http://www.w3.org/2000/svg" xmlns:xlink="http://www.w3.org/1999/xlink" version="1.1" id="Layer_1" x="0px" y="0px" viewBox="0 0 30 30" xml:space="preserve"><g fill="#000000"><path d="M28 4H2C.897 4 0 4.897 0 6v18c0 1.103.897 2 2 2h26c1.103 0 2-.897 2-2V6c0-1.103-.897-2-2-2zm1 20c0 .551-.449 1-1 1H2c-.551 0-1-.449-1-1V6c0-.551.449-1 1-1h26c.551 0 1 .449 1 1v18z"/><path d="M11 19a5.969 5.969 0 0 0 4-1.54A5.969 5.969 0 0 0 19 19c3.309 0 6-2.691 6-6s-2.691-6-6-6a5.969 5.969 0 0 0-4 1.54A5.969 5.969 0 0 0 11 7c-3.309 0-6 2.691-6 6s2.691 6 6 6zm4-8.97c.62.834 1 1.854 1 2.97s-.38 2.136-1 2.97c-.62-.834-1-1.854-1-2.97s.38-2.136 1-2.97zM24 13c0 2.757-2.243 5-5 5a4.96 4.96 0 0 1-3.304-1.276 5.966 5.966 0 0 0 0-7.448A4.96 4.96 0 0 1 19 8c2.757 0 5 2.243 5 5zM11 8a4.96 4.96 0 0 1 3.304 1.276 5.966 5.966 0 0 0 0 7.448A4.96 4.96 0 0 1 11 18c-2.757 0-5-2.243-5-5s2.243-5 5-5z"/><path d="M24.687 21.239l-.187-.027c-.17-.022-.308-.057-.308-.178 0-.134.13-.214.347-.214.232 0 .456.088.566.157l.172-.32c-.19-.126-.453-.19-.742-.19-.46 0-.757.22-.757.582 0 .297.22.48.627.536l.187.027c.217.03.32.087.32.19 0 .14-.145.22-.415.22a.968.968 0 0 1-.605-.19l-.187.309c.217.16.491.236.788.236.525 0 .83-.248.83-.594 0-.32-.24-.487-.636-.544z"/><path d="M9.395 20.733a.69.69 0 0 0-.574-.266c-.51 0-.91.4-.91.955 0 .555.4.955.91.955a.69.69 0 0 0 .574-.267v.221h.396v-1.819h-.396v.221zm-.525 1.27c-.342 0-.551-.262-.551-.581 0-.32.209-.582.551-.582.328 0 .548.25.548.582 0 .33-.22.582-.548.582z"/><path d="M6.846 20.467c-.232-.004-.471.068-.639.323a.668.668 0 0 0-.6-.323.601.601 0 0 0-.534.27v-.225h-.395v1.819h.4v-1.008c0-.316.174-.483.444-.483.263 0 .396.17.396.479v1.012h.4v-1.008c0-.316.182-.483.445-.483.27 0 .4.17.4.479v1.012h.399V21.19c0-.43-.274-.72-.716-.723z"/><path d="M18.357 20.405a.69.69 0 0 0-.574.267v-.221h-.396V23h.396v-.951a.69.69 0 0 0 .574.266c.51 0 .91-.4.91-.955 0-.555-.4-.955-.91-.955zm-.05 1.537c-.327 0-.547-.25-.547-.582 0-.33.22-.582.548-.582.342 0 .551.263.551.582 0 .32-.209.582-.551.582z"/><path d="M16.37 20.733v-.22h-.393v1.818h.396v-1.02c0-.3.13-.468.388-.468.08 0 .164.012.247.046l.122-.373a.846.846 0 0 0-.281-.05.536.536 0 0 0-.48.267z"/><path d="M11.157 21.239l-.186-.027c-.172-.022-.309-.057-.309-.178 0-.134.13-.214.347-.214.232 0 .456.088.566.157l.172-.32c-.19-.126-.453-.19-.742-.19-.46 0-.757.22-.757.582 0 .297.22.48.627.536l.187.027c.217.03.32.087.32.19 0 .14-.145.22-.415.22a.968.968 0 0 1-.605-.19l-.187.309c.217.16.491.236.788.236.525 0 .83-.248.83-.594 0-.32-.24-.487-.636-.544z"/><path d="M14.707 20.467c-.533 0-.906.388-.906.955 0 .578.388.955.932.955.274 0 .525-.069.746-.255l-.194-.293a.866.866 0 0 1-.529.19c-.255 0-.487-.118-.544-.445h1.35c.004-.05.008-.1.008-.152-.004-.567-.354-.955-.863-.955zm-.491.795c.042-.263.201-.442.483-.442.255 0 .419.16.46.442h-.943z"/><path d="M20.995 20.773a.69.69 0 0 0-.575-.266c-.51 0-.909.4-.909.954 0 .556.4.956.91.956a.69.69 0 0 0 .574-.267v.22h.396v-1.818h-.396v.22zm-.525 1.27c-.343 0-.552-.262-.552-.582 0-.319.21-.582.552-.582.327 0 .548.252.548.582 0 .332-.22.583-.548.583z"/><path d="M13.09 22c-.198 0-.263-.122-.263-.304v-.822h.647v-.362h-.647v-.551h-.4v.551h-.368v.362h.369v.83c0 .421.163.673.631.673a.93.93 0 0 0 .495-.141l-.114-.339a.73.73 0 0 1-.35.103z"/><path d="M22.768 21.239l-.186-.027c-.172-.022-.309-.057-.309-.178 0-.134.13-.214.347-.214.232 0 .456.088.566.157l.172-.32c-.19-.126-.453-.19-.742-.19-.46 0-.757.22-.757.582 0 .297.22.48.627.536l.187.027c.217.03.32.087.32.19 0 .14-.145.22-.415.22a.968.968 0 0 1-.605-.19l-.187.309c.217.16.491.236.788.236.525 0 .83-.248.83-.594 0-.32-.24-.487-.636-.544z"/></g><metadata><rdf:RDF xmlns:rdf="http://www.w3.org/1999/02/22-rdf-syntax-ns#" xmlns:rdfs="http://www.w3.org/2000/01/rdf-schema#" xmlns:dc="http://purl.org/dc/elements/1.1/"><rdf:Description about="https://iconscout.com/legal#licenses" dc:title="masterpass,payments,pay,online,send,money,credit,card,ecommerce" dc:description="masterpass,payments,pay,online,send,money,credit,card,ecommerce" dc:publisher="Iconscout" dc:date="2017-11-27" dc:format="image/svg+xml" dc:language="en"><dc:creator><rdf:Bag><rdf:li>Those Icons</rdf:li></rdf:Bag></dc:creator></rdf:Description></rdf:RDF></metadata></svg>