<?xml version="1.0" encoding="UTF-8"?><svg xmlns="http://www.w3.org/2000/svg" xmlns:xlink="http://www.w3.org/1999/xlink" version="1.1" id="Layer_1" x="0px" y="0px" viewBox="0 0 30 30" xml:space="preserve"><g fill="#000000"><path d="M16.125 13.357c.45 0 .803.174 1.126.444l.56-.554c-.414-.372-.903-.629-1.68-.63-1.37 0-2.334 1.067-2.334 2.37V15c0 1.315.983 2.356 2.302 2.356.748 0 1.24-.245 1.669-.645l-.53-.525c-.322.268-.647.43-1.113.43-.867 0-1.494-.732-1.494-1.629v-.013c0-.897.627-1.617 1.494-1.617z"/><path d="M12.1 15.785c.801-.66 1.176-1.053 1.176-1.773v-.013c0-.818-.608-1.368-1.494-1.368-.808 0-1.235.346-1.668.962l.562.445c.35-.458.634-.687 1.048-.687.414 0 .731.262.731.713 0 .413-.227.707-.847 1.237l-1.559 1.342v.635h3.272v-.707h-2.154l.932-.786z"/><path d="M28 4H2C.897 4 0 4.897 0 6v18c0 1.103.897 2 2 2h26c1.103 0 2-.897 2-2V6c0-1.103-.897-2-2-2zM14.917 22C11.097 22 8 18.866 8 15s3.097-7 6.917-7c3.114 0 5.747 2.084 6.614 4.949a2.4 2.4 0 0 0-1.237-.33c-1.39 0-2.373 1.079-2.373 2.368V15c0 1.29.97 2.356 2.36 2.356.477 0 .904-.129 1.261-.347C20.69 19.896 18.046 22 14.917 22zM22 15c0 .89-.627 1.617-1.526 1.617-.9 0-1.54-.74-1.54-1.63v-.013c0-.89.628-1.617 1.527-1.617.899 0 1.539.74 1.539 1.63V15z"/></g><metadata><rdf:RDF xmlns:rdf="http://www.w3.org/1999/02/22-rdf-syntax-ns#" xmlns:rdfs="http://www.w3.org/2000/01/rdf-schema#" xmlns:dc="http://purl.org/dc/elements/1.1/"><rdf:Description about="https://iconscout.com/legal#licenses" dc:title="checkout,payments,pay,online,send,money,credit,card,ecommerce" dc:description="checkout,payments,pay,online,send,money,credit,card,ecommerce" dc:publisher="Iconscout" dc:date="2017-11-29" dc:format="image/svg+xml" dc:language="en"><dc:creator><rdf:Bag><rdf:li>Those Icons</rdf:li></rdf:Bag></dc:creator></rdf:Description></rdf:RDF></metadata></svg>