<?xml version="1.0" encoding="UTF-8"?><svg xmlns="http://www.w3.org/2000/svg" xmlns:xlink="http://www.w3.org/1999/xlink" version="1.1" id="Layer_1" x="0px" y="0px" viewBox="0 0 30 30" xml:space="preserve"><g fill="#000000"><path d="M26.561 13.168c-.306-.21-.768-.315-1.375-.315h-1.59l-.59 3.207h-2.082l.134-.728h1.254l.15-.817-1.254.002.134-.724h1.291l.172-.94h-2.623l-.56 3.042h-.963l.565-3.042h-1.372l-.56 3.042h-.938l.565-3.042h-1.37l-.592 3.207H12.86l.133-.728h1.26l.148-.812-1.258-.002.133-.725h1.306l.171-.94H6.58l-.465 2.541-.927-2.541H3.766L3 17h1.358l.464-2.611.9 2.611h4.868l.592-3.208h.762L11.352 17h12.811l.371-2.025.602 2.025h1.36l-.624-1.655.142-.03c.314-.067.559-.212.729-.428.17-.219.257-.5.257-.836 0-.393-.143-.681-.439-.883zM9.407 16.059h-2.08l.135-.727h1.304l.149-.82H7.623l.125-.72h2.076l-.417 2.267zm16.034-1.397c-.137.096-.335.143-.606.143h-.268l.205-1.113h.198c.225 0 .39.036.503.11.088.057.193.17.193.387 0 .261-.122.402-.225.473z"/><path d="M28 4H2C.897 4 0 4.897 0 6v18c0 1.103.897 2 2 2h26c1.103 0 2-.897 2-2V6c0-1.103-.897-2-2-2zm1 20c0 .551-.448 1-1 1H2c-.552 0-1-.449-1-1V6c0-.551.448-1 1-1h26c.552 0 1 .449 1 1v18z"/></g><metadata><rdf:RDF xmlns:rdf="http://www.w3.org/1999/02/22-rdf-syntax-ns#" xmlns:rdfs="http://www.w3.org/2000/01/rdf-schema#" xmlns:dc="http://purl.org/dc/elements/1.1/"><rdf:Description about="https://iconscout.com/legal#licenses" dc:title="neteller,payments,pay,online,send,money,credit,card,ecommerce" dc:description="neteller,payments,pay,online,send,money,credit,card,ecommerce" dc:publisher="Iconscout" dc:date="2017-11-27" dc:format="image/svg+xml" dc:language="en"><dc:creator><rdf:Bag><rdf:li>Those Icons</rdf:li></rdf:Bag></dc:creator></rdf:Description></rdf:RDF></metadata></svg>