<?xml version="1.0" encoding="UTF-8"?><svg xmlns="http://www.w3.org/2000/svg" xmlns:xlink="http://www.w3.org/1999/xlink" version="1.1" id="Layer_1" x="0px" y="0px" viewBox="0 0 30 30" xml:space="preserve"><g fill-rule="evenodd" clip-rule="evenodd" fill="#000000"><path d="M28 4H2C.897 4 0 4.897 0 6v18c0 1.103.897 2 2 2h26c1.103 0 2-.897 2-2V6c0-1.103-.897-2-2-2zm1 20c0 .551-.449 1-1 1H2c-.551 0-1-.449-1-1V6c0-.551.449-1 1-1h26c.551 0 1 .449 1 1v18z"/><path d="M13 10H7v10h4v-2h2c.347 0 .679-.058 1-.141V10.14A3.966 3.966 0 0 0 13 10zm-1 5.5h-1.5v-3H12a1.5 1.5 0 1 1 0 3z"/><path d="M20 10h-6v.141A3.99 3.99 0 0 1 17 14a3.99 3.99 0 0 1-3 3.859V20h4v-2h2a4 4 0 0 0 0-8zm-1 5.5h-1.5v-3H19a1.5 1.5 0 1 1 0 3z"/></g><metadata><rdf:RDF xmlns:rdf="http://www.w3.org/1999/02/22-rdf-syntax-ns#" xmlns:rdfs="http://www.w3.org/2000/01/rdf-schema#" xmlns:dc="http://purl.org/dc/elements/1.1/"><rdf:Description about="https://iconscout.com/legal#licenses" dc:title="pay,point,payments,online,send,money,credit,card,ecommerce" dc:description="pay,point,payments,online,send,money,credit,card,ecommerce" dc:publisher="Iconscout" dc:date="2017-11-27" dc:format="image/svg+xml" dc:language="en"><dc:creator><rdf:Bag><rdf:li>Those Icons</rdf:li></rdf:Bag></dc:creator></rdf:Description></rdf:RDF></metadata></svg>