<?xml version="1.0" encoding="UTF-8"?><svg xmlns="http://www.w3.org/2000/svg" xmlns:xlink="http://www.w3.org/1999/xlink" version="1.1" id="Layer_1" x="0px" y="0px" viewBox="0 0 30 30" xml:space="preserve"><g fill="#000000"><path d="M4.389 18.53h-.855a.477.477 0 0 0-.221.046c-.065.037-.129.074-.175.12-.092.11-.138.266-.138.478v2.714h.598v-.911h.81a.582.582 0 0 0 .395-.175.51.51 0 0 0 .166-.377v-1.27c-.01-.413-.203-.625-.58-.625zm-.01 1.674c0 .046-.018.074-.045.101s-.065.046-.11.046H3.8c-.128-.009-.193-.064-.193-.184v-.837c0-.12.055-.174.166-.184h.469c.092 0 .138.046.138.148v.91z"/><path d="M6.836 18.52H5.474v.617H6.69c.11 0 .156.046.156.138l.01.055h-.801c-.386.01-.58.203-.58.58v.497c0 .368.203.552.608.552H6.9a.507.507 0 0 0 .396-.166.606.606 0 0 0 .147-.405V19.1c-.01-.377-.211-.58-.607-.58zm0 1.712c0 .083-.055.12-.156.12h-.46c-.046 0-.083-.01-.11-.037a.097.097 0 0 1-.047-.083h-.009v-.147c0-.074.01-.12.028-.138.027-.019.064-.028.128-.028h.46c.11 0 .166.046.166.138v.175z"/><path d="M9.292 20.13v.074c0 .037-.018.074-.055.101s-.083.046-.129.046h-.423c-.101 0-.156-.064-.156-.193V18.53H7.93v1.821c0 .102.009.184.036.249s.065.138.13.202.128.11.192.129a.566.566 0 0 0 .24.037H9.3v.147a.148.148 0 0 1-.046.101.22.22 0 0 1-.129.046H7.931v.616h1.407a.512.512 0 0 0 .405-.183.76.76 0 0 0 .147-.479V18.53h-.598v1.6z"/><path d="M10.378 19.073v.46a.44.44 0 0 0 .174.359c.11.1.249.156.405.156h.534c.036 0 .073.028.092.073.009.019.009.037.009.056v.055c0 .073-.046.12-.147.12h-1.077v.607h1.26c.102 0 .185-.01.24-.028a.506.506 0 0 0 .165-.129c.11-.12.175-.248.175-.377v-.45a.537.537 0 0 0-.156-.378.458.458 0 0 0-.359-.165h-.534c-.128 0-.193-.037-.193-.12v-.055c0-.074.055-.11.184-.11h1.058v-.617h-1.242c-.386 0-.588.184-.588.543z"/><path d="M14.002 18.52H12.64v.617h1.214c.11 0 .156.046.156.138l.01.055h-.801c-.386.01-.58.203-.58.58v.497c0 .368.203.552.608.552h.818a.507.507 0 0 0 .396-.166.606.606 0 0 0 .147-.405V19.1c-.01-.377-.212-.58-.607-.58zm0 1.712c0 .083-.055.12-.156.12h-.46c-.046 0-.083-.01-.11-.037a.097.097 0 0 1-.047-.083h-.009v-.147c0-.074.01-.12.028-.138a.243.243 0 0 1 .128-.028h.46c.11 0 .166.046.166.138v.175z"/><path d="M15.28 17.776a.512.512 0 0 0-.183.405v2.787h.598v-1.822h.432v-.616h-.423v-.129c0-.12.064-.184.193-.184h.23v-.598h-.386a.679.679 0 0 0-.46.157z"/><path d="M17.875 18.52h-.81c-.386.01-.58.194-.589.571v1.233c0 .12.01.211.037.285a.66.66 0 0 0 .138.202c.055.056.12.102.193.12a.737.737 0 0 0 .276.037h1.316v-.617H17.203c-.037 0-.064-.018-.083-.055-.027-.027-.036-.073-.036-.12v-.036l1.361-.543v-.487c-.01-.387-.193-.59-.57-.59zm-.046.746l-.745.276v-.248c0-.046.027-.083.064-.11.028-.038.074-.047.129-.047h.414c.036 0 .073.01.1.028a.112.112 0 0 1 .038.083v.018z"/><path d="M19.521 20.802a.463.463 0 0 1-.193-.092.448.448 0 0 1-.129-.193.72.72 0 0 1-.036-.24v-1.149c0-.175.045-.294.137-.368.092-.074.221-.101.378-.101h.901v-.138h-.92c-.101 0-.184.01-.257.027a.47.47 0 0 0-.23.138.655.655 0 0 0-.13.212c-.027.074-.027.156-.027.248v1.16c0 .11.019.202.046.294s.083.165.166.239a.47.47 0 0 0 .24.11c.073.01.155.019.247.019l.874-.01v-.137h-.855c-.074 0-.147-.01-.212-.019z"/><path d="M22.906 18.696a.653.653 0 0 0-.12-.11.322.322 0 0 0-.128-.056 2.985 2.985 0 0 0-.303-.018h-1.233v.138h1.297c.083 0 .156.009.22.027a.418.418 0 0 1 .176.138c.082.101.12.212.12.35v.165h-1.188c-.414.01-.625.23-.625.644v.368c0 .193.064.35.184.46.11.11.267.166.45.166h.718c.184 0 .34-.055.47-.193a.476.476 0 0 0 .119-.221c.01-.074.018-.157.018-.249l-.009-1.113a.77.77 0 0 0-.166-.496zm.019 1.637c0 .322-.157.488-.46.488h-.727a.547.547 0 0 1-.35-.13c-.055-.045-.1-.1-.11-.165a1.146 1.146 0 0 1-.018-.193v-.368c0-.147.046-.267.129-.359a.43.43 0 0 1 .34-.138h1.196v.865z"/><path d="M23.79 19.202v1.757h.138v-1.767c0-.358.165-.542.496-.542h.184v-.138h-.156c-.45 0-.672.23-.662.69z"/><path d="M26.862 18.512h-1.131c-.47-.01-.718.23-.718.699v1.058c0 .1.01.184.028.266a.585.585 0 0 0 .12.24c.091.082.174.147.266.165.092.019.193.028.304.028h.533c.478.009.727-.212.736-.681v-2.576h-.138v.8zm-.01 1.766c-.008.193-.064.331-.183.414a.748.748 0 0 1-.45.129h-.498a.806.806 0 0 1-.404-.102c-.11-.073-.166-.202-.166-.386v-1.122c0-.083.01-.157.028-.221a.62.62 0 0 1 .12-.184.38.38 0 0 1 .202-.129.806.806 0 0 1 .22-.027h1.141l-.01 1.628z"/><path d="M13.165 11.438c.175-.856.938-1.5 1.84-1.5s1.665.644 1.84 1.5c.275.055.505.165.69.33a2.6 2.6 0 0 0-.02-.468 2.524 2.524 0 0 0-2.52-2.3 2.53 2.53 0 0 0-2.52 2.42c-.01.119-.01.238-.01.367.12-.1.25-.184.405-.248.102-.046.194-.074.295-.101z"/><path d="M13.45 16.755h3.026c.782-.01 1.187-.433 1.196-1.288V13.01c-.009-.847-.404-1.279-1.196-1.288H13.45a1.18 1.18 0 0 0-.45.101 1.213 1.213 0 0 0-.369.24c-.184.23-.285.56-.294.993v2.364c.01.432.101.763.294.993.101.092.221.175.368.24.157.064.304.1.451.1z"/><path d="M28 4H2C.897 4 0 4.897 0 6v18c0 1.103.897 2 2 2h26c1.103 0 2-.897 2-2V6c0-1.103-.897-2-2-2zm1 20c0 .551-.448 1-1 1H2c-.552 0-1-.449-1-1V6c0-.551.448-1 1-1h26c.552 0 1 .449 1 1v18z"/></g><metadata><rdf:RDF xmlns:rdf="http://www.w3.org/1999/02/22-rdf-syntax-ns#" xmlns:rdfs="http://www.w3.org/2000/01/rdf-schema#" xmlns:dc="http://purl.org/dc/elements/1.1/"><rdf:Description about="https://iconscout.com/legal#licenses" dc:title="paysafe,card,payments,pay,online,send,money,credit,ecommerce" dc:description="paysafe,card,payments,pay,online,send,money,credit,ecommerce" dc:publisher="Iconscout" dc:date="2017-11-27" dc:format="image/svg+xml" dc:language="en"><dc:creator><rdf:Bag><rdf:li>Those Icons</rdf:li></rdf:Bag></dc:creator></rdf:Description></rdf:RDF></metadata></svg>