<?xml version="1.0" encoding="UTF-8"?><svg xmlns="http://www.w3.org/2000/svg" xmlns:xlink="http://www.w3.org/1999/xlink" version="1.1" id="Layer_1" x="0px" y="0px" viewBox="0 0 30 30" xml:space="preserve"><g fill="#000000"><path d="M4 14.344l4.954 5.524 1.101-5.523z"/><path d="M17.048 13.533l-4.905-5.428-1.045 5.428z"/><path d="M21.006 14.377l-.716 3.672c-.032.023-.118.728-.772.673-.79-.065-.544-.84-.544-.84l.63-3.507-1.397.002-.703 3.689s-.441 1.788 1.883 1.924c0 0 1.96.28 2.398-2.114.462-2.537.645-3.499.645-3.499h-1.424z"/><path d="M24.313 14.276s-1.598-.1-1.944 1.46c0 0-.221.926.515 1.404.735.479.887.492 1.156.683.268.191.296.902-.257.938-.624.04-.494-.709-.506-.709l-1.37-.001s-.592 1.824 1.781 1.932c0 0 1.987-.038 1.983-1.802 0 0 .151-1.044-1.521-1.756 0 0-.352-.156-.371-.51s.357-.419.357-.419.259-.07.398.087c.1.112.086.542.086.542h1.325s.519-1.826-1.632-1.85z"/><path d="M11.206 8.055l-7.057 5.48 6.036.004z"/><path d="M16.64 14.346l-1.442.002-1.054 5.504 2.986-.001.233-1.267-1.52-.003z"/><path d="M14.543 15.329c-.425-.933-1.761-.979-1.761-.979l-1.854-.005-1.061 5.557h1.407l.355-1.69c2.149.121 2.54-.771 2.646-.853.106-.08.693-1.097.268-2.03zm-2.122 1.536h-.525l.225-1.2h.548s.554-.01.617.532c0 0 .035.651-.865.668z"/><path d="M28 4H2C.897 4 0 4.897 0 6v18c0 1.103.897 2 2 2h26c1.103 0 2-.897 2-2V6c0-1.103-.897-2-2-2zm1 20c0 .551-.449 1-1 1H2c-.551 0-1-.449-1-1V6c0-.551.449-1 1-1h26c.551 0 1 .449 1 1v18z"/></g><metadata><rdf:RDF xmlns:rdf="http://www.w3.org/1999/02/22-rdf-syntax-ns#" xmlns:rdfs="http://www.w3.org/2000/01/rdf-schema#" xmlns:dc="http://purl.org/dc/elements/1.1/"><rdf:Description about="https://iconscout.com/legal#licenses" dc:title="plus,payments,pay,online,send,money,credit,card,ecommerce" dc:description="plus,payments,pay,online,send,money,credit,card,ecommerce" dc:publisher="Iconscout" dc:date="2017-11-27" dc:format="image/svg+xml" dc:language="en"><dc:creator><rdf:Bag><rdf:li>Those Icons</rdf:li></rdf:Bag></dc:creator></rdf:Description></rdf:RDF></metadata></svg>