<?xml version="1.0" encoding="UTF-8"?><svg xmlns="http://www.w3.org/2000/svg" xmlns:xlink="http://www.w3.org/1999/xlink" version="1.1" id="Layer_1" x="0px" y="0px" viewBox="0 0 30 30" xml:space="preserve"><g fill="#000000"><path d="M21.671 21.954c-.06-.163-.167-.277-.245-.42a5.994 5.994 0 0 0-.637-.68c-.079-.027-.112-.1-.188-.13-.05-.062-.127-.095-.188-.144a3.751 3.751 0 0 0-.405-.261c-.266-.172-.6-.278-.926-.39-.354-.084-.727-.15-1.113-.203-.383-.055-.768-.109-1.056-.26-.168-.049-.29-.143-.434-.217-.133-.089-.28-.163-.39-.275-.139-.083-.224-.22-.333-.332-.038-.073-.1-.121-.13-.203-.038-.014-.048-.058-.072-.086-.028-.03-.027-.09-.073-.101a2.133 2.133 0 0 0 0 .491c.02.068.027.147.044.217.012.06.066.155.043.202-1.16-.058-2.009-.43-2.748-.91a5.417 5.417 0 0 1-.968-.854c-.129-.176-.266-.342-.377-.535-.116-.191-.212-.404-.317-.607-.17-.437-.332-.884-.391-1.432a4.592 4.592 0 0 1 .058-1.634c.042-.262.128-.48.202-.709.05-.104.1-.208.145-.318.063-.09.096-.212.173-.29.214-.397.53-.695.854-.983.349-.258.748-.466 1.229-.593a3.986 3.986 0 0 1 1.59-.014 4.958 4.958 0 0 1 2.416 1.244c.648.57 1.146 1.292 1.49 2.169.354.836.475 2.133.158 3.08-.129-.073-.259-.145-.39-.217-.157-.045-.309-.096-.492-.115-.22-.004-.434 0-.578.072.287-.029.518.049.694.116.106.04.165.069.246.115.16.093.302.18.42.304.338.298.58.691.693 1.215.001.015.019.011.015-.014.016-.004.022-.017.029-.03.02-.023.04-.045.058-.072a.612.612 0 0 0 .1-.145 1.93 1.93 0 0 0 .203-.303c.138-.2.243-.432.362-.651a6.82 6.82 0 0 0 .477-1.547c.207-1.273-.04-2.481-.477-3.37a5.465 5.465 0 0 0-1.88-2.155 5.683 5.683 0 0 0-3.08-.969c-.007-.024-.02.003-.044 0a6.126 6.126 0 0 0-1.808.217c-.255.087-.526.159-.752.275-.262.085-.467.227-.708.333-.088.08-.216.122-.304.202-.116.058-.2.147-.318.203-.185.162-.385.309-.564.477-.18.162-.334.35-.506.52-.026.061-.072.102-.116.145a.492.492 0 0 1-.116.145c-.018.068-.079.094-.101.159-.05.037-.06.113-.115.144-.05.12-.133.205-.189.319-.065.108-.118.228-.188.332-.103.244-.217.477-.303.738a5.31 5.31 0 0 0-.217.81 4.388 4.388 0 0 0-.101.91c-.036.107-.007.297 0 .42 0 .02-.015.031-.015.043 0 .136.039.304.044.39.03.317.085.61.173.869.056.286.176.509.26.766.13.217.222.473.376.665.117.226.28.406.434.593.17.178.334.36.535.506.369.321.802.578 1.273.796.882.426 2.2.709 3.384.636.303-.04.608-.077.882-.145.255-.092.547-.147.853-.188.698-.044 1.3.018 1.837.174a4.364 4.364 0 0 1 1.417.65c.215.128.395.29.579.45.185.16.336.356.506.534.023.068.066.117.101.173.045.048.023.16.13.145.068-.065-.011-.164-.014-.246-.048-.063-.063-.159-.116-.216z"/><path d="M18.97 17.991c-.015 0-.018.012-.03.014-.025.056-.014.144 0 .203.077.16.106.367.275.434.084-.027.075-.147.072-.26a.892.892 0 0 0-.173-.362c-.062-.022-.102-.056-.145-.029z"/><path d="M17.957 18.396c0-.008-.012-.016-.014 0-.143-.017-.192.06-.26.116-.123.324.073.642.418.636a.308.308 0 0 0 .246-.275c-.016-.273-.134-.444-.39-.477z"/><path d="M28 4H2C.897 4 0 4.897 0 6v18c0 1.103.897 2 2 2h26c1.103 0 2-.897 2-2V6c0-1.103-.897-2-2-2zm1 20c0 .551-.448 1-1 1H2c-.552 0-1-.449-1-1V6c0-.551.448-1 1-1h26c.552 0 1 .449 1 1v18z"/></g><metadata><rdf:RDF xmlns:rdf="http://www.w3.org/1999/02/22-rdf-syntax-ns#" xmlns:rdfs="http://www.w3.org/2000/01/rdf-schema#" xmlns:dc="http://purl.org/dc/elements/1.1/"><rdf:Description about="https://iconscout.com/legal#licenses" dc:title="qiwi,payments,pay,online,send,money,credit,card,ecommerce" dc:description="qiwi,payments,pay,online,send,money,credit,card,ecommerce" dc:publisher="Iconscout" dc:date="2017-11-27" dc:format="image/svg+xml" dc:language="en"><dc:creator><rdf:Bag><rdf:li>Those Icons</rdf:li></rdf:Bag></dc:creator></rdf:Description></rdf:RDF></metadata></svg>