<?xml version="1.0" encoding="UTF-8"?><svg xmlns="http://www.w3.org/2000/svg" xmlns:xlink="http://www.w3.org/1999/xlink" version="1.1" id="Layer_1" x="0px" y="0px" viewBox="0 0 30 30" xml:space="preserve"><g fill="#000000"><path d="M5.448 14.173h-.336l.488-.485a.217.217 0 0 0 0-.307.214.214 0 0 0-.303 0l-.495.495.003-.343a.207.207 0 0 0-.212-.212.214.214 0 0 0-.215.212v.428c0 .094.06.171.141.202 0 0 .222.08.3.306.027.081.111.135.202.135h.427a.217.217 0 0 0 .216-.216.217.217 0 0 0-.216-.215z"/><path d="M4.145 15.136s-.219-.077-.296-.307a.213.213 0 0 0-.203-.134H3.22a.215.215 0 0 0-.216.215c0 .118.095.216.216.216h.333l-.485.488a.213.213 0 0 0 0 .303c.081.084.22.084.303 0l.495-.495-.003.343c-.003.135.091.213.209.213a.212.212 0 0 0 .215-.213v-.427a.212.212 0 0 0-.141-.202z"/><path d="M5.66 14.91a.217.217 0 0 0-.215-.215h-.428a.22.22 0 0 0-.202.141s-.077.223-.303.3a.213.213 0 0 0-.138.202v.427c0 .119.098.216.216.216a.21.21 0 0 0 .215-.216v-.336l.489.488a.213.213 0 0 0 .303 0 .213.213 0 0 0 0-.303l-.495-.495.343.003a.208.208 0 0 0 .216-.212z"/><path d="M3 14.391c0 .119.098.216.215.216h.428a.22.22 0 0 0 .202-.141s.078-.22.303-.3c.081-.027.135-.111.135-.202v-.428a.214.214 0 1 0-.428 0v.337l-.488-.488a.214.214 0 0 0-.303 0 .213.213 0 0 0 0 .303l.495.495-.344-.003A.204.204 0 0 0 3 14.39z"/><path d="M7.804 14.136c0-.525-.327-.788-.873-.788h-.832v2.63h.505V14.89h.135c.169.263.454.768.61 1.088h.603c-.169-.343-.505-.93-.68-1.168.272-.091.532-.314.532-.674zm-.998.367h-.202v-.75h.26c.27 0 .411.15.411.376 0 .256-.196.374-.469.374z"/><path d="M11.134 14.405c-.293-.127-.427-.195-.427-.377 0-.178.12-.283.394-.283.229 0 .417.068.515.122l.11-.458a2.191 2.191 0 0 0-.625-.094c-.563 0-.93.259-.93.727 0 .478.276.64.613.77.33.129.448.23.448.422 0 .225-.192.337-.448.337-.212 0-.441-.075-.546-.122l-.114.472c.144.043.431.08.66.08.61 0 1.007-.302 1.007-.801 0-.451-.253-.623-.657-.795z"/><path d="M9.5 14.597c.196-.077.401-.252.401-.562 0-.438-.336-.687-.848-.687H8.16v2.63h.848c.626 0 .98-.32.98-.778 0-.347-.219-.532-.488-.603zm-.831-.848h.313c.25 0 .384.108.384.33 0 .235-.188.353-.407.353h-.29v-.683zm.327 1.828h-.327v-.754h.31c.286 0 .471.118.471.374 0 .28-.199.38-.454.38z"/><path d="M15.547 13.348l-.41 1.644a4.749 4.749 0 0 0-.093.46h-.004a4.718 4.718 0 0 0-.105-.483l-.46-1.62h-.463l-.448 1.616c-.047.16-.078.327-.105.498h-.004a4.044 4.044 0 0 0-.101-.518l-.405-1.597h-.452l.681 2.63h.499l.444-1.633c.043-.163.074-.323.094-.487h.003c.028.168.055.335.102.495l.448 1.624h.521l.682-2.629h-.424z"/><path d="M16.815 14.003c-.588 0-.966.448-.966 1.032 0 .681.35.981.888.981.573 0 .963-.448.963-1.044 0-.681-.367-.97-.885-.97zm-.039 1.655c-.323 0-.494-.23-.494-.666 0-.444.245-.639.498-.639.331 0 .49.234.49.647 0 .448-.225.658-.494.658z"/><path d="M18.3 14.47h-.008c.027-.148.039-.32.039-.429h-.398v1.936h.417v-.786c0-.58.187-.85.573-.776l.02-.409c-.363-.039-.558.203-.644.464z"/><path d="M19.165 13.323h.417v2.654h-.417z"/><path d="M21.144 14.026c-.106-.008-.2-.016-.292-.016-.628 0-1.013.429-1.013 1.095 0 .56.237.911.713.911.3 0 .525-.163.63-.4h.008c-.019.108-.027.26-.027.361h.393v-2.654h-.412v.703zm0 .95c0 .331-.172.698-.48.698-.264 0-.385-.219-.385-.608 0-.522.226-.725.557-.725.101 0 .202.012.308.035v.6z"/><path d="M22.534 13.333c-.245 0-.47.007-.674.015v2.63h.425v-.97c.066.007.136.007.195.007.612 0 1.02-.381 1.02-.892 0-.487-.342-.79-.966-.79zm-.062 1.332c-.062 0-.128-.008-.187-.016v-.962c.07-.008.136-.008.218-.008.382 0 .557.18.557.48 0 .307-.234.502-.588.506z"/><path d="M25.102 15.977a12.045 12.045 0 0 1-.011-.53v-.802c0-.385-.164-.642-.752-.642-.25 0-.51.054-.705.128l.081.335c.156-.082.374-.14.553-.14.304 0 .406.128.406.366v.113c-.71 0-1.142.238-1.142.674 0 .315.21.537.542.537.308 0 .549-.171.642-.4l.004.003c-.015.105-.02.234-.02.358h.402zm-.428-.837c0 .277-.191.55-.476.55-.163 0-.264-.114-.264-.262 0-.183.16-.343.74-.343v.055z"/><path d="M26.276 14.828c-.07.195-.152.448-.191.604h-.004a5.697 5.697 0 0 0-.152-.506l-.315-.885h-.468l.724 1.936-.07.191c-.128.347-.3.436-.483.436a.924.924 0 0 1-.237-.03l-.047.362c.066.011.171.023.246.023.44 0 .697-.199.938-.845L27 14.04h-.448l-.276.787z"/><path d="M28 4H2C.897 4 0 4.897 0 6v18c0 1.103.897 2 2 2h26c1.103 0 2-.897 2-2V6c0-1.103-.897-2-2-2zm1 20c0 .551-.448 1-1 1H2c-.552 0-1-.449-1-1V6c0-.551.448-1 1-1h26c.552 0 1 .449 1 1v18z"/></g><metadata><rdf:RDF xmlns:rdf="http://www.w3.org/1999/02/22-rdf-syntax-ns#" xmlns:rdfs="http://www.w3.org/2000/01/rdf-schema#" xmlns:dc="http://purl.org/dc/elements/1.1/"><rdf:Description about="https://iconscout.com/legal#licenses" dc:title="rbs,worldpay,payments,pay,online,send,money,credit,card,ecommerce" dc:description="rbs,worldpay,payments,pay,online,send,money,credit,card,ecommerce" dc:publisher="Iconscout" dc:date="2017-11-27" dc:format="image/svg+xml" dc:language="en"><dc:creator><rdf:Bag><rdf:li>Those Icons</rdf:li></rdf:Bag></dc:creator></rdf:Description></rdf:RDF></metadata></svg>