<?xml version="1.0" encoding="UTF-8"?><svg xmlns="http://www.w3.org/2000/svg" xmlns:xlink="http://www.w3.org/1999/xlink" version="1.1" id="Layer_1" x="0px" y="0px" viewBox="0 0 30 30" xml:space="preserve"><g fill="#000000"><path d="M14.36 17.128c-.217.121-.45.175-.695.166-.273-.011-.492-.125-.624-.367-.199-.362-.206-.749-.103-1.138.105-.398.391-.601.803-.59.228.007.442.07.644.197l.292-.62c-.047-.024-.087-.048-.13-.069-.393-.194-.809-.23-1.233-.163-.617.099-1.067.423-1.281 1.022a2.045 2.045 0 0 0-.016 1.332c.157.492.48.825.968.993.378.13.767.132 1.156.047.201-.043.389-.121.561-.246l-.275-.597c-.027.013-.05.022-.067.033z"/><path d="M18.064 14.698v-.102h-.908v2.146c0 .033.003.073-.015.096-.159.199-.347.364-.613.4-.259.034-.44-.09-.483-.33a1.158 1.158 0 0 1-.01-.177v-2.026-.11h-.904v.103c0 .723-.002 1.445 0 2.169 0 .105.007.21.018.313.043.38.275.682.615.764.518.126.972.007 1.348-.382l.076-.08c.022.152.045.292.067.429h.88c-.022-.25-.062-.499-.064-.747-.01-.82-.005-1.643-.007-2.466z"/><path d="M7.242 16.158c-.103-.15-.232-.277-.35-.416.024-.006.057-.013.089-.022.46-.12.804-.378.979-.832.096-.248.118-.507.096-.77-.047-.555-.3-.982-.827-1.192-.628-.253-1.27-.23-1.903-.005-.39.139-.632.43-.722.834-.029.134-.038.27-.055.416h-.457l.989.827c.321-.275.639-.543.954-.814-.002-.006-.007-.013-.009-.02h-.534c-.016-.268.105-.45.35-.527a1.52 1.52 0 0 1 .743-.038c.268.051.43.22.476.491.011.059.018.117.022.175.032.378-.15.69-.482.84-.155.07-.32.09-.485.09H4.557v2.732h.966v-2.02a.604.604 0 0 1 .624.229c.105.132.212.261.304.402.286.438.568.879.847 1.32.036.055.072.073.134.073.298-.002.597 0 .894 0h.09a85.4 85.4 0 0 0-.295-.45c-.289-.44-.58-.885-.879-1.323z"/><path d="M10.792 14.63c-.255-.11-.525-.137-.8-.11-.613.056-1.06.357-1.321.918-.184.396-.202.816-.121 1.239.125.644.494 1.075 1.136 1.245.37.098.746.087 1.12.016.241-.045.465-.139.677-.269l-.29-.579a5.25 5.25 0 0 1-.117.056c-.29.146-.6.204-.923.164-.39-.05-.718-.459-.669-.848h2.095c.02-.306.022-.599-.047-.885-.1-.427-.32-.764-.74-.948zm-1.321 1.21c.038-.234.103-.45.313-.58a.618.618 0 0 1 .657-.016c.172.098.28.35.26.6-.407 0-.812 0-1.23-.003z"/><path d="M19.683 15.007v-.41h-.901v3.314h.903v-.096-1.925c0-.031-.005-.067.009-.09.13-.223.297-.402.559-.467.167-.04.33-.02.498.052l.217-.792c-.534-.18-.959-.053-1.285.414z"/><path d="M25.18 14.596c-.07-.003-.099.022-.117.085-.205.677-.415 1.354-.626 2.034-.009.027-.022.051-.042.103-.022-.05-.036-.072-.045-.096-.062-.188-.127-.378-.19-.566-.167-.494-.33-.99-.5-1.482-.01-.03-.047-.072-.07-.074-.297-.004-.597-.004-.903-.004.013.042.027.076.038.11.393 1.023.785 2.05 1.176 3.073.013.031.022.074.013.103a6.087 6.087 0 0 1-.187.487.616.616 0 0 1-.439.376c-.163.038-.328.029-.491.01-.027-.001-.074.016-.076.03a28.2 28.2 0 0 0-.119.655c.038.009.07.018.103.024.226.043.451.045.68.018.31-.035.579-.15.793-.38.206-.217.331-.48.436-.755L26 14.596h-.096c-.24 0-.48.004-.724 0z"/><path d="M21.39 17.909h.906v-4.896h-.905v4.896z"/><path d="M28 4H2C.897 4 0 4.897 0 6v18c0 1.103.897 2 2 2h26c1.103 0 2-.897 2-2V6c0-1.103-.897-2-2-2zm1 20c0 .551-.449 1-1 1H2c-.551 0-1-.449-1-1V6c0-.551.449-1 1-1h26c.551 0 1 .449 1 1v18z"/></g><metadata><rdf:RDF xmlns:rdf="http://www.w3.org/1999/02/22-rdf-syntax-ns#" xmlns:rdfs="http://www.w3.org/2000/01/rdf-schema#" xmlns:dc="http://purl.org/dc/elements/1.1/"><rdf:Description about="https://iconscout.com/legal#licenses" dc:title="recurly,payments,pay,online,send,money,credit,card,ecommerce" dc:description="recurly,payments,pay,online,send,money,credit,card,ecommerce" dc:publisher="Iconscout" dc:date="2017-11-27" dc:format="image/svg+xml" dc:language="en"><dc:creator><rdf:Bag><rdf:li>Those Icons</rdf:li></rdf:Bag></dc:creator></rdf:Description></rdf:RDF></metadata></svg>