<?xml version="1.0" encoding="UTF-8"?><svg xmlns="http://www.w3.org/2000/svg" xmlns:xlink="http://www.w3.org/1999/xlink" version="1.1" id="Layer_1" x="0px" y="0px" viewBox="0 0 30 30" xml:space="preserve"><g fill="#000000"><path d="M13.926 13.486a1.738 1.738 0 0 0-1.122.41v-.367h-.824v.366c-.202-.183-.448-.348-.695-.387a1.77 1.77 0 0 0-.85.073c-.27.086-.441.212-.608.41-.344-.405-.888-.486-1.32-.502-.494-.02-.991.045-1.379.342a2.879 2.879 0 0 0-1.37-.355c-.46.003-.902.112-1.214.395a.744.744 0 0 0-.22.329c-.11.287-.064.62.059.792.23.323.488.449.95.503.407.048.692.048.993.107.142.027.273.138.273.301 0 .191-.255.504-.869.462-.512-.035-.705-.11-1.186-.439L4 16.387s.093.078.156.122c.06.042.124.081.19.118h.001c.548.31 1.242.44 1.87.335.308-.052.6-.16.851-.332.204.146.472.396 1.122.365.41-.019.713-.004.997-.347v.343h.796v-.343s.126.107.214.163c.505.318 1.31.198 1.785-.182v.443c-.013.274-.252.46-.504.566-.434.182-.83.02-1.183-.242l-.603.423c.163.171.311.271.543.383.653.313 1.416.206 1.942-.122.348-.216.482-.481.566-.889.044-.217.049-.375.056-.565v-.015l.02.015c.169.123.317.214.545.287.366.117.784.122 1.25-.005.216-.06.407-.155.578-.282a1.99 1.99 0 0 0 .26-.234l-.52-.389c-.176.151-.438.304-.737.343-.345.046-.737-.02-.949-.26-.114-.131-.154-.172-.154-.503l2.448.003v-.618c0-.516-.381-1.478-1.614-1.482zm-7.091 1.538c-.279-.134-.478-.109-.776-.126-.38-.02-.73-.029-.92-.188-.109-.092-.087-.356.066-.452.22-.138.487-.133.641-.125.311.017.67.124.952.321l.33-.321s.349.335.349.321c.406-.297.55-.298.928-.298.518 0 .667.106.743.226.048.075 0 .535 0 .535s-.457.015-.786-.002a2.577 2.577 0 0 0-.672.03c-.236.04-.398.113-.562.256 0 0-.14-.103-.293-.177zm2.04 1.29a1.79 1.79 0 0 1-.734.048c-.242-.03-.472-.049-.566-.277a.326.326 0 0 1 .04-.342c.124-.166.412-.198.585-.2h.948c.025.26.105.647-.273.771zm3.06-.524a.558.558 0 0 1-.203.322.845.845 0 0 1-.584.194c-.342-.02-.648-.162-.739-.361-.076-.168-.092-.436-.081-.737.006-.19.023-.393.043-.593.01-.097.121-.215.278-.305.143-.081.324-.14.499-.142.133 0 .27.026.39.075.212.085.375.239.392.435.016.182.034.355.042.52.01.207.005.403-.038.592zm1.176-.832c0-.207.052-.373.137-.502.17-.258.473-.368.765-.367.287 0 .583.109.759.345.1.133.16.306.16.524h-1.821z"/><path d="M18.091 13.318c-.288 0-.544.067-.767.202a1.2 1.2 0 0 0-.49.562v-.663h-.393v4.774h.426l.014-1.948c.09.242.245.428.466.56.221.132.469.198.744.198.505 0 .893-.176 1.163-.527.27-.35.406-.79.406-1.316 0-.53-.134-.97-.403-1.32-.268-.348-.657-.522-1.166-.522zm.852 2.884c-.194.295-.478.442-.852.442-.42 0-.728-.144-.926-.431-.199-.288-.298-.639-.298-1.053 0-.436.096-.793.288-1.07.191-.276.503-.414.936-.414.379 0 .664.146.855.439.192.292.288.64.288 1.045 0 .4-.097.748-.291 1.042z"/><path d="M22.708 16.293V14.44c0-.424-.12-.717-.362-.879-.241-.162-.549-.243-.923-.243-.424 0-.765.097-1.024.29-.26.194-.39.487-.39.88h.427c0-.276.085-.48.257-.613.171-.133.396-.199.676-.199.288 0 .513.052.673.155.16.104.24.29.24.56 0 .216-.052.344-.156.385-.104.04-.315.08-.635.118s-.589.08-.805.125-.408.14-.575.287c-.167.146-.25.372-.25.678 0 .337.11.591.328.762.219.171.5.257.842.257.32 0 .571-.056.754-.168.182-.111.36-.29.53-.536 0 .212.033.367.099.464s.199.145.402.145c.099 0 .191-.009.277-.027v-.358a.362.362 0 0 1-.135.027c-.167 0-.25-.086-.25-.257zm-.426-.74a.985.985 0 0 1-.355.792c-.237.2-.524.3-.862.3a.836.836 0 0 1-.548-.19.612.612 0 0 1-.23-.498c0-.296.18-.5.54-.612l.9-.159c.24-.042.386-.075.44-.097a.238.238 0 0 0 .115-.088v.552z"/><path d="M24.491 16.385l-1.146-2.968-.458.002 1.393 3.476-.148.396c-.063.138-.13.264-.202.376-.072.111-.207.167-.404.167a1.87 1.87 0 0 1-.29-.027v.359c.058.018.166.027.324.027.256 0 .442-.052.559-.154s.236-.302.357-.597l1.515-4.023h-.426l-1.074 2.966z"/><path d="M28 4H2C.897 4 0 4.897 0 6v18c0 1.103.897 2 2 2h26c1.103 0 2-.897 2-2V6c0-1.103-.897-2-2-2zm1 20c0 .551-.448 1-1 1H2c-.552 0-1-.449-1-1V6c0-.551.448-1 1-1h26c.552 0 1 .449 1 1v18z"/></g><metadata><rdf:RDF xmlns:rdf="http://www.w3.org/1999/02/22-rdf-syntax-ns#" xmlns:rdfs="http://www.w3.org/2000/01/rdf-schema#" xmlns:dc="http://purl.org/dc/elements/1.1/"><rdf:Description about="https://iconscout.com/legal#licenses" dc:title="sage,pay,payments,online,send,money,credit,card,ecommerce" dc:description="sage,pay,payments,online,send,money,credit,card,ecommerce" dc:publisher="Iconscout" dc:date="2017-11-27" dc:format="image/svg+xml" dc:language="en"><dc:creator><rdf:Bag><rdf:li>Those Icons</rdf:li></rdf:Bag></dc:creator></rdf:Description></rdf:RDF></metadata></svg>