<?xml version="1.0" encoding="UTF-8"?><svg xmlns="http://www.w3.org/2000/svg" xmlns:xlink="http://www.w3.org/1999/xlink" version="1.1" id="Layer_1" x="0px" y="0px" viewBox="0 0 30 30" xml:space="preserve"><g fill="#000000"><path d="M18.66 10.733l-.916-.069-.674-.669c-.066-.067-.197-.046-.247-.032l-.34.105c-.203-.583-.56-1.12-1.19-1.12l-.053.002c-.18-.236-.401-.34-.593-.34-1.466 0-2.167 1.834-2.387 2.766l-1.026.318c-.318.1-.328.11-.37.41-.032.227-.864 6.664-.864 6.664l6.486 1.215 3.514-.76s-1.234-8.34-1.241-8.398a.11.11 0 0 0-.1-.092zm-3.468-.329v.064l-1.134.351c.218-.842.627-1.249.985-1.402.09.226.149.55.149.987zm-.585-1.4a.33.33 0 0 1 .188.064c-.47.22-.974.778-1.187 1.89l-.895.278c.249-.849.84-2.232 1.894-2.232zm.253 4.96s-.38-.203-.845-.203c-.683 0-.717.428-.717.536 0 .588 1.535.814 1.535 2.193 0 1.085-.689 1.783-1.616 1.783-1.114 0-1.683-.692-1.683-.692l.298-.985s.585.502 1.08.502a.435.435 0 0 0 .453-.44c0-.768-1.259-.802-1.259-2.064 0-1.062.762-2.09 2.301-2.09.593 0 .886.17.886.17l-.433 1.29zm.716-3.615v-.118c0-.363-.05-.655-.13-.886.324.04.54.41.679.834l-.55.17z"/><path d="M28 4H2C.897 4 0 4.897 0 6v18c0 1.103.897 2 2 2h26c1.103 0 2-.897 2-2V6c0-1.103-.897-2-2-2zm1 20c0 .551-.449 1-1 1H2c-.551 0-1-.449-1-1V6c0-.551.449-1 1-1h26c.551 0 1 .449 1 1v18z"/></g><metadata><rdf:RDF xmlns:rdf="http://www.w3.org/1999/02/22-rdf-syntax-ns#" xmlns:rdfs="http://www.w3.org/2000/01/rdf-schema#" xmlns:dc="http://purl.org/dc/elements/1.1/"><rdf:Description about="https://iconscout.com/legal#licenses" dc:title="shopify,payments,pay,online,send,money,credit,card,ecommerce" dc:description="shopify,payments,pay,online,send,money,credit,card,ecommerce" dc:publisher="Iconscout" dc:date="2017-11-27" dc:format="image/svg+xml" dc:language="en"><dc:creator><rdf:Bag><rdf:li>Those Icons</rdf:li></rdf:Bag></dc:creator></rdf:Description></rdf:RDF></metadata></svg>