<?xml version="1.0" encoding="UTF-8"?><svg xmlns="http://www.w3.org/2000/svg" xmlns:xlink="http://www.w3.org/1999/xlink" version="1.1" id="Layer_1" x="0px" y="0px" viewBox="0 0 30 30" xml:space="preserve"><g fill="#000000"><path d="M6.784 14.511c-.231-.015-.767-.05-.767-.532 0-.582.771-.582 1.06-.582.51 0 1.169.15 1.64.29 0 0 .262.093.485.188l.021.006v-1.595l-.028-.008c-.556-.195-1.202-.381-2.4-.381C4.733 11.897 4 13.099 4 14.13c0 .593.255 1.991 2.619 2.152.2.013.732.043.732.542 0 .412-.435.654-1.168.654a5.749 5.749 0 0 1-2.054-.398v1.642c.708.185 1.506.278 2.442.278 2.018 0 2.922-1.138 2.922-2.266 0-1.278-1.011-2.11-2.709-2.223z"/><path d="M12.887 13.778c-.04.103-.334.931-1.043 1.79v-3.671l-1.89.373v6.654h1.89v-2.057c.547.821.817 2.057.817 2.057h2.264c-.224-.93-1.204-2.647-1.204-2.647a8.292 8.292 0 0 0 1.327-2.499h-2.161z"/><path d="M17.855 13.709c-1.693.054-2.552.814-2.552 2.323v2.892h1.847v-2.358c0-.904.118-1.292 1.19-1.328v-1.503c-.18-.038-.485-.026-.485-.026z"/><circle cx="19.8028564" cy="12.3885193" r="0.9026184"/><path d="M18.887 13.784h1.832v5.14h-1.832z"/><path d="M24.168 18.924H26v-7.027l-1.832.327z"/><path d="M21.495 18.924h1.83v-7.027l-1.83.327z"/><path d="M28 4H2C.897 4 0 4.897 0 6v18c0 1.103.897 2 2 2h26c1.103 0 2-.897 2-2V6c0-1.103-.897-2-2-2zm1 20c0 .551-.449 1-1 1H2c-.551 0-1-.449-1-1V6c0-.551.449-1 1-1h26c.551 0 1 .449 1 1v18z"/></g><metadata><rdf:RDF xmlns:rdf="http://www.w3.org/1999/02/22-rdf-syntax-ns#" xmlns:rdfs="http://www.w3.org/2000/01/rdf-schema#" xmlns:dc="http://purl.org/dc/elements/1.1/"><rdf:Description about="https://iconscout.com/legal#licenses" dc:title="skrill,payments,pay,online,send,money,credit,card,ecommerce" dc:description="skrill,payments,pay,online,send,money,credit,card,ecommerce" dc:publisher="Iconscout" dc:date="2017-11-27" dc:format="image/svg+xml" dc:language="en"><dc:creator><rdf:Bag><rdf:li>Those Icons</rdf:li></rdf:Bag></dc:creator></rdf:Description></rdf:RDF></metadata></svg>