<?xml version="1.0" encoding="UTF-8"?><svg xmlns="http://www.w3.org/2000/svg" xmlns:xlink="http://www.w3.org/1999/xlink" version="1.1" id="Layer_1" x="0px" y="0px" viewBox="0 0 30 30" xml:space="preserve"><g fill="#000000"><path d="M15 7c-4.411 0-8 3.589-8 8s3.589 8 8 8 8-3.589 8-8-3.589-8-8-8zm0 15c-3.86 0-7-3.14-7-7s3.14-7 7-7 7 3.14 7 7-3.14 7-7 7z"/><path d="M13.504 11.504c-.648.648-1.004 1.509-1.004 2.425s.356 1.777 1.004 2.425l.707-.708c-.459-.459-.711-1.068-.711-1.717s.252-1.26.711-1.718c.917-.918 2.518-.918 3.435 0l.708-.707c-1.296-1.296-3.555-1.296-4.85 0z"/><path d="M15.782 14.354a2.432 2.432 0 0 1 0 3.435c-.918.918-2.517.918-3.435 0l-.707.707c.647.648 1.508 1.004 2.424 1.004s1.777-.356 2.425-1.004a3.433 3.433 0 0 0 0-4.85l-.707.708z"/><path d="M28 4H2C.897 4 0 4.897 0 6v18c0 1.103.897 2 2 2h26c1.103 0 2-.897 2-2V6c0-1.103-.897-2-2-2zm1 20c0 .551-.449 1-1 1H2c-.551 0-1-.449-1-1V6c0-.551.449-1 1-1h26c.551 0 1 .449 1 1v18z"/></g><metadata><rdf:RDF xmlns:rdf="http://www.w3.org/1999/02/22-rdf-syntax-ns#" xmlns:rdfs="http://www.w3.org/2000/01/rdf-schema#" xmlns:dc="http://purl.org/dc/elements/1.1/"><rdf:Description about="https://iconscout.com/legal#licenses" dc:title="solo,payments,pay,online,send,money,credit,card,ecommerce" dc:description="solo,payments,pay,online,send,money,credit,card,ecommerce" dc:publisher="Iconscout" dc:date="2017-11-27" dc:format="image/svg+xml" dc:language="en"><dc:creator><rdf:Bag><rdf:li>Those Icons</rdf:li></rdf:Bag></dc:creator></rdf:Description></rdf:RDF></metadata></svg>