<?xml version="1.0" encoding="UTF-8"?><svg xmlns="http://www.w3.org/2000/svg" xmlns:xlink="http://www.w3.org/1999/xlink" version="1.1" id="Layer_1" x="0px" y="0px" viewBox="0 0 30 30" xml:space="preserve"><g fill="#000000"><path d="M12.237 14.823c-.533-.123-.631-.29-.631-.576 0-.312.305-.575.666-.575.369 0 .668.256.668.572h.313a.837.837 0 0 0-.295-.634 1.037 1.037 0 0 0-.686-.25c-.54 0-.979.398-.979.887 0 .248.072.438.22.58.138.134.346.23.654.3.756.176.912.4.912.68 0 .375-.354.68-.79.68h-.003a.844.844 0 0 1-.594-.236.648.648 0 0 1-.198-.46h-.312a.96.96 0 0 0 .29.68c.209.21.505.328.814.328h.003c.292 0 .567-.1.775-.284a.939.939 0 0 0 .328-.708c-.002-.632-.585-.852-1.155-.984z"/><path d="M15.966 14.787h-.009c-.202-.315-.552-.475-.919-.475-.694 0-1.27.527-1.27 1.235 0 .712.562 1.243 1.27 1.243.367 0 .717-.16.92-.47h.008v1.368h.302v-3.315h-.302v.414zm-.928 1.731c-.552 0-.966-.406-.966-.958 0-.557.405-.976.966-.976.536 0 .945.445.945.971 0 .527-.41.963-.945.963z"/><path d="M21.532 14.787h-.009c-.202-.32-.548-.475-.92-.475-.694 0-1.268.527-1.268 1.235 0 .712.562 1.243 1.269 1.243.367 0 .712-.16.92-.47h.008v.414h.302v-2.361h-.302v.414zm-.928 1.731c-.552 0-.966-.406-.966-.958 0-.557.405-.976.966-.976.535 0 .945.445.945.971 0 .527-.41.963-.945.963z"/><path d="M22.748 14.714h-.008v-.341h-.303v2.361h.303v-1.381c0-.423.258-.687.672-.721v-.32c-.306.022-.535.1-.664.402z"/><path d="M24.76 14.312c-.677 0-1.225.57-1.225 1.243 0 .678.548 1.235 1.23 1.235.523 0 .989-.337 1.16-.829h-.318c-.13.35-.484.557-.846.557-.462 0-.894-.388-.916-.854h2.15c0-.031.005-.057.005-.087 0-.682-.548-1.265-1.24-1.265zm-.915 1.08c.074-.462.45-.808.92-.808.475 0 .846.346.924.807h-1.844z"/><path d="M18.595 15.618c0 .277-.038.512-.247.711a.68.68 0 0 1-.503.191c-.542 0-.72-.36-.72-.85v-1.305h-.303v1.31c0 .264.039.55.208.763.195.247.507.355.815.355.313 0 .62-.134.76-.425h.008v.369h.286v-2.372h-.304v1.253z"/><path d="M9 12H5c-.552 0-1 .449-1 1v4c0 .551.448 1 1 1h4c.552 0 1-.449 1-1v-4c0-.551-.448-1-1-1zm0 5.5V17H5v-4h4v4h.001L9 17.5z"/><path d="M7.75 14h-1.5a.25.25 0 0 0-.25.25v1.5c0 .138.112.25.25.25h1.5a.25.25 0 0 0 .25-.25v-1.5a.25.25 0 0 0-.25-.25z"/><path d="M28 4H2C.897 4 0 4.897 0 6v18c0 1.103.897 2 2 2h26c1.103 0 2-.897 2-2V6c0-1.103-.897-2-2-2zm1 20c0 .551-.448 1-1 1H2c-.552 0-1-.449-1-1V6c0-.551.448-1 1-1h26c.552 0 1 .449 1 1v18z"/></g><metadata><rdf:RDF xmlns:rdf="http://www.w3.org/1999/02/22-rdf-syntax-ns#" xmlns:rdfs="http://www.w3.org/2000/01/rdf-schema#" xmlns:dc="http://purl.org/dc/elements/1.1/"><rdf:Description about="https://iconscout.com/legal#licenses" dc:title="square,payments,pay,online,send,money,credit,card,ecommerce" dc:description="square,payments,pay,online,send,money,credit,card,ecommerce" dc:publisher="Iconscout" dc:date="2017-11-27" dc:format="image/svg+xml" dc:language="en"><dc:creator><rdf:Bag><rdf:li>Those Icons</rdf:li></rdf:Bag></dc:creator></rdf:Description></rdf:RDF></metadata></svg>