<?xml version="1.0" encoding="UTF-8"?><svg xmlns="http://www.w3.org/2000/svg" xmlns:xlink="http://www.w3.org/1999/xlink" version="1.1" id="Layer_1" x="0px" y="0px" viewBox="0 0 30 30" xml:space="preserve"><g fill="#000000"><path d="M16.818 13.78c.446.662.682 1.44.682 2.248 0 2.19-1.741 3.972-3.881 3.972a3.862 3.862 0 0 1-3.204-1.728l-.83.557A4.858 4.858 0 0 0 13.619 21c2.691 0 4.881-2.23 4.881-4.972a5.015 5.015 0 0 0-.852-2.807l-.83.558z"/><path d="M16.836 9C14.17 9 12 11.195 12 13.893c0 1.053.326 2.056.941 2.901l.809-.588a3.9 3.9 0 0 1-.75-2.313C13 11.747 14.721 10 16.836 10c1.32 0 2.531.676 3.24 1.808l.848-.532A4.804 4.804 0 0 0 16.836 9z"/><path d="M28 4H2C.897 4 0 4.897 0 6v18c0 1.103.897 2 2 2h26c1.103 0 2-.897 2-2V6c0-1.103-.897-2-2-2zm1 20c0 .551-.449 1-1 1H2c-.551 0-1-.449-1-1V6c0-.551.449-1 1-1h26c.551 0 1 .449 1 1v18z"/></g><metadata><rdf:RDF xmlns:rdf="http://www.w3.org/1999/02/22-rdf-syntax-ns#" xmlns:rdfs="http://www.w3.org/2000/01/rdf-schema#" xmlns:dc="http://purl.org/dc/elements/1.1/"><rdf:Description about="https://iconscout.com/legal#licenses" dc:title="switch,payments,pay,online,send,money,credit,card,ecommerce" dc:description="switch,payments,pay,online,send,money,credit,card,ecommerce" dc:publisher="Iconscout" dc:date="2017-11-27" dc:format="image/svg+xml" dc:language="en"><dc:creator><rdf:Bag><rdf:li>Those Icons</rdf:li></rdf:Bag></dc:creator></rdf:Description></rdf:RDF></metadata></svg>