<?xml version="1.0" encoding="UTF-8"?><svg xmlns="http://www.w3.org/2000/svg" xmlns:xlink="http://www.w3.org/1999/xlink" version="1.1" id="Layer_1" x="0px" y="0px" viewBox="0 0 30 30" xml:space="preserve"><g fill="#000000"><path d="M7.66 11c-2.242 0-4.31 2.015-4.62 4.5-.311 2.485 1.255 4.5 3.496 4.5s4.311-2.015 4.621-4.5c.31-2.485-1.255-4.5-3.497-4.5zm1.508 5.345s-.195 1.406-1.275 1.698c-.538.195-1.241.15-1.241.15s-1.648.005-1.783-1.3c0-.588.093-.898.093-.898l.556-2.63s.006-.105.079-.105H6.516s.287.001.219.321l-.586 2.775s-.184.732.596.802c.78.07 1.085-.435 1.271-1.317l.532-2.514s0-.067.068-.067h.92s.28.016.218.31l-.586 2.775z"/><path d="M14.131 16.41s1.849-1.678 1.913-1.738c.064-.06 0-.09 0-.09H14.72l-1.208 1.19.44-2.085c.084-.398-.282-.427-.282-.427h-.728c-.068 0-.072.09-.072.09l-.977 4.622c-.033.155.04.123.04.123h.837c.285 0 .33-.37.33-.37l.172-.82s.719 1.089.764 1.153c.045.064.061.045.061.045h1.119c.089 0 .047-.086.047-.086l-1.13-1.607z"/><path d="M18.465 14.531c-.571-.113-1.1-.036-1.1-.036s-.842.059-1.136.63c-.158.294-.19.441-.19.441s-.032.117.034.117h.982s.058.005.08-.1c.022-.104.159-.328.377-.343s.239-.018.239-.018.574-.03.488.38c-.087.408-.458.394-.69.404-.23.01-1.236.012-1.698.45-.218.183-.27.51-.27.51s-.09.597.178.88c.269.285.546.347.824.347s.873.045 1.202-.446l-.062.296s-.017.065.035.062c.053-.002.749 0 .749 0s.268.01.371-.354c.103-.364.382-1.561.382-1.561s.09-.584.093-.9c.003-.317-.32-.646-.888-.759zm-.832 2.828c-.415.292-.933.086-.922-.246s.284-.42.525-.464c.24-.046.686-.031.814-.154 0 0-.036.583-.417.864z"/><path d="M22.377 14.632c-.412-.194-1.193-.133-1.193-.133s-.66.057-1.02.369c-.329.291-.343.595-.343.595s-.05.242.032.538c.163.47.716.58.716.58s.618.15.879.251c.261.1.193.384.07.492-.123.108-.46.181-.716.078-.256-.103-.268-.319-.276-.392-.007-.072-.055-.074-.055-.074h-.961c-.034 0-.044.042-.041.06.04 1.005.904 1.145.904 1.145s.281.085 1.015.052c.688-.1.913-.249 1.127-.466.215-.217.294-.73.229-1.082-.065-.353-.362-.594-1.035-.725s-.746-.264-.75-.384.09-.34.494-.342c.404-.002.452.25.46.342.007.093.055.083.055.083l.947.005s.045 0 .04-.04c.02-.42-.166-.759-.578-.952z"/><path d="M26.056 14.49c-.936-.05-1.282.523-1.282.523l.296-1.404c.073-.347-.208-.349-.208-.349h-.828c-.046 0-.053.043-.053.043l-.994 4.706c-.024.11.04.083.04.083s.588.003.83 0c.24-.003.341-.357.341-.357l.35-1.656c.04-.183.205-.711.78-.719.575-.007.399.685.399.685l-.408 1.93c-.028.131.026.117.026.117h.855c.234 0 .335-.331.335-.331l.449-2.123c.058-.276.007-1.1-.928-1.148z"/><path d="M28 4H2C.897 4 0 4.897 0 6v18c0 1.103.897 2 2 2h26c1.103 0 2-.897 2-2V6c0-1.103-.897-2-2-2zm1 20c0 .551-.448 1-1 1H2c-.552 0-1-.449-1-1V6c0-.551.448-1 1-1h26c.552 0 1 .449 1 1v18z"/></g><metadata><rdf:RDF xmlns:rdf="http://www.w3.org/1999/02/22-rdf-syntax-ns#" xmlns:rdfs="http://www.w3.org/2000/01/rdf-schema#" xmlns:dc="http://purl.org/dc/elements/1.1/"><rdf:Description about="https://iconscout.com/legal#licenses" dc:title="ukash,payments,pay,online,send,money,credit,card,ecommerce" dc:description="ukash,payments,pay,online,send,money,credit,card,ecommerce" dc:publisher="Iconscout" dc:date="2017-11-27" dc:format="image/svg+xml" dc:language="en"><dc:creator><rdf:Bag><rdf:li>Those Icons</rdf:li></rdf:Bag></dc:creator></rdf:Description></rdf:RDF></metadata></svg>