<?xml version="1.0" encoding="UTF-8"?><svg xmlns="http://www.w3.org/2000/svg" xmlns:xlink="http://www.w3.org/1999/xlink" version="1.1" id="Layer_1" x="0px" y="0px" viewBox="0 0 30 30" xml:space="preserve"><g fill="#000000"><path d="M11.984 14.942c.032.036.08.056.13.056h1.172a.166.166 0 0 0 .167-.13l.89-4.82a.148.148 0 0 0-.037-.126.176.176 0 0 0-.13-.056h-1.173a.166.166 0 0 0-.166.13l-.89 4.82a.148.148 0 0 0 .037.126z"/><path d="M7.301 10.976a.18.18 0 0 0-.199-.005.15.15 0 0 0-.066.173l1.185 3.738a.168.168 0 0 0 .163.112l1.366-.002a.17.17 0 0 0 .155-.094l2.241-4.81a.146.146 0 0 0-.014-.147.173.173 0 0 0-.141-.07h-1.233a.17.17 0 0 0-.158.1l-1.443 3.4-.155-.519a.123.123 0 0 0-.007-.02c-.228-.488-.84-1.25-1.694-1.856z"/><path d="M18.717 14.93c.031.043.085.07.142.07h1.215a.17.17 0 0 0 .158-.1c.15-.364.245-.596.277-.67h.876l1.066.001c.034.137.12.497.155.646a.167.167 0 0 0 .165.123h1.06c.051 0 .1-.022.132-.059a.148.148 0 0 0 .033-.13l-1.152-4.817a.167.167 0 0 0-.165-.122h-1.035c-.414 0-.652.127-.795.425l-2.145 4.484a.146.146 0 0 0 .013.148zm3.034-3.675l.103.443.35 1.481h-1.259l.806-1.924z"/><path d="M6.112 10.16c.97.322 1.763.833 2.294 1.478.033.04.084.062.135.062a.181.181 0 0 0 .07-.014.154.154 0 0 0 .096-.175l-.282-1.23a.148.148 0 0 0-.002-.009C8.32 9.921 8 9.868 7.767 9.86H7.76l-1.59-.003c-.083 0-.153.055-.167.13s.031.148.109.173z"/><path d="M14.593 14.764c.4.13.958.21 1.493.215h.002c1.535 0 2.533-.663 2.544-1.69.006-.565-.384-.992-1.223-1.342-.514-.23-.829-.383-.826-.617 0-.21.288-.424.841-.424h.045c.459 0 .783.096.987.168.047.017.1.013.144-.01s.075-.063.084-.11l.137-.743c.014-.077-.035-.151-.116-.175a4.172 4.172 0 0 0-1.17-.163c-1.446 0-2.462.671-2.47 1.632-.009.711.727 1.108 1.28 1.345.57.242.76.397.758.614-.004.331-.456.482-.874.482-.595 0-.916-.082-1.37-.256a.182.182 0 0 0-.146.007.157.157 0 0 0-.085.11l-.146.783a.155.155 0 0 0 .111.174z"/><path d="M6 23.917h2.172v-.663H6.824l-.005-.612h1.367v-.635H6.824l.009-.612H8.2v-.663H6z"/><path d="M8.754 20.466h.8v3.451h-.8z"/><path d="M11.277 21.515c-.723 0-1.247.594-1.247 1.293 0 .594.382 1.192 1.224 1.192.368 0 .782-.115 1.054-.345l-.267-.465c-.216.147-.373.23-.654.23-.441 0-.556-.304-.556-.483h1.606c0-.796-.276-1.422-1.16-1.422zm-.437.952c.05-.23.244-.455.497-.455.267 0 .382.216.382.455h-.88z"/><path d="M14.149 23.365a.587.587 0 0 1-.598-.594c0-.382.267-.621.667-.621a.99.99 0 0 1 .377.092l.258-.525c-.18-.115-.51-.202-.787-.202-.792 0-1.316.515-1.316 1.298 0 .764.529 1.187 1.265 1.187.267 0 .63-.101.852-.24l-.286-.529c-.128.065-.28.134-.432.134z"/><path d="M16.47 23.337c-.18 0-.23-.096-.23-.299 0-.198.023-.538.023-.86h.658l.014-.58h-.658l.018-.787h-.773l.003.787h-.362l-.019.58h.346c0 .308-.023.593-.023.879 0 .533.032.943.68.943.272 0 .558-.087.792-.23l-.174-.543c-.093.055-.185.11-.295.11z"/><path d="M18.154 21.924h-.009v-.326h-.8l-.019 2.32h.8l.015-1.34c0-.046.207-.272.474-.272.12 0 .207.023.285.046l.106-.791a1.239 1.239 0 0 0-.262-.028c-.313 0-.47.194-.59.391z"/><path d="M20.456 21.515c-.855 0-1.297.543-1.297 1.242 0 .7.442 1.243 1.297 1.243.857 0 1.298-.543 1.298-1.243 0-.7-.441-1.242-1.298-1.242zm0 1.877c-.381 0-.496-.33-.496-.635 0-.303.115-.635.496-.635.382 0 .498.332.498.635 0 .304-.116.635-.498.635z"/><path d="M23.74 21.515c-.285 0-.565.156-.75.336v-.253h-.8l-.019 2.32h.815l.004-1.501c.106-.101.29-.212.42-.212.239 0 .29.147.29.336 0 .479-.005.93-.01 1.376h.8c.005-.51.01-1.022.01-1.496 0-.635-.267-.906-.76-.906z"/><path d="M28 4H2C.897 4 0 4.897 0 6v18c0 1.103.897 2 2 2h26c1.103 0 2-.897 2-2V6c0-1.103-.897-2-2-2zM2 5h26c.551 0 1 .449 1 1v12H1V6c0-.551.449-1 1-1zm26 20H2c-.551 0-1-.449-1-1v-5h28v5c0 .551-.449 1-1 1z"/></g><metadata><rdf:RDF xmlns:rdf="http://www.w3.org/1999/02/22-rdf-syntax-ns#" xmlns:rdfs="http://www.w3.org/2000/01/rdf-schema#" xmlns:dc="http://purl.org/dc/elements/1.1/"><rdf:Description about="https://iconscout.com/legal#licenses" dc:title="visa,payments,pay,online,send,money,credit,card,ecommerce" dc:description="visa,payments,pay,online,send,money,credit,card,ecommerce" dc:publisher="Iconscout" dc:date="2017-11-27" dc:format="image/svg+xml" dc:language="en"><dc:creator><rdf:Bag><rdf:li>Those Icons</rdf:li></rdf:Bag></dc:creator></rdf:Description></rdf:RDF></metadata></svg>