<?xml version="1.0" encoding="UTF-8"?><svg xmlns="http://www.w3.org/2000/svg" xmlns:xlink="http://www.w3.org/1999/xlink" version="1.1" id="Layer_1" x="0px" y="0px" viewBox="0 0 30 30" xml:space="preserve"><g fill="#000000"><path d="M25.804 13.06H26V18h-.196z"/><path d="M23.44 13.045h.195v4.94h-.195z"/><path d="M6.264 14.445l-.206-1.391h-.916l-.206 1.354-.202-1.354H3.95l.472 2.2H5.4l.196-1.425.2 1.425h.96l.466-2.2H6.47z"/><path d="M8.545 14.421h.908v-.566h-.908v-.235h.931v-.566H7.597v2.2h1.91v-.572h-.962z"/><path d="M11.013 15.291c.706 0 1.09-.252 1.09-.718 0-.4-.225-.52-.787-.709-.3-.1-.475-.095-.475-.248 0-.083.053-.143.178-.143.149 0 .221.098.214.242h.812v-.092c0-.389-.352-.623-1-.623-.713 0-1.092.277-1.092.708 0 .31.192.488.586.601.288.083.454.152.58.207.066.03.088.095.079.157-.013.085-.065.138-.195.138-.16 0-.204-.096-.204-.246v-.018h-.88c-.003.027-.003.055-.003.08 0 .419.38.664 1.097.664z"/><path d="M12.924 15.254h.931V13.64h.58v-.587h-2.093v.587h.582z"/><path d="M15.783 14.421h.899v-.566h-.899v-.235h.93v-.566h-1.878v2.2h1.91v-.572h-.962z"/><path d="M19.524 14.626c-.041-.318-.162-.438-.409-.487.251-.061.44-.25.44-.515 0-.44-.278-.57-.947-.57h-1.28v2.2h.915v-.784c.03-.003.061-.003.085-.003.22 0 .252.08.287.319l.024.162c.013.098.04.199.07.306h.93a4.061 4.061 0 0 1-.085-.392l-.03-.236zm-1.213-.693c-.02 0-.044 0-.068-.003v-.384c.04-.003.075-.003.105-.003.206 0 .297.05.297.187 0 .14-.115.203-.334.203z"/><path d="M20.818 13.999l.491 1.255h1.065v-2.2h-.72v1.12l-.406-1.12H20.1v2.2h.72z"/><path d="M14.373 16.8l-.407-1.12h-1.149v2.2h.72v-1.256l.49 1.255h1.065v-2.2h-.72z"/><path d="M21.677 16.8l-.407-1.12h-1.149v2.2h.72v-1.256l.49 1.255h1.065v-2.2h-.72z"/><path d="M11.312 17.038c0 .18-.081.278-.216.278-.142 0-.216-.091-.216-.278V15.68h-.91v1.326c0 .253.016.452.212.642.202.196.496.27.914.27.77 0 1.13-.288 1.13-.912v-1.326h-.914v1.36z"/><path d="M15.69 15.68h.937v2.2h-.937z"/><path d="M18.375 15.61c-.807 0-1.26.42-1.26 1.157 0 .73.45 1.147 1.229 1.147.833 0 1.28-.404 1.28-1.15 0-.735-.45-1.153-1.25-1.153zm-.007 1.796c-.213 0-.268-.209-.268-.632 0-.444.048-.653.271-.653.216 0 .268.191.268.608 0 .465-.055.677-.271.677z"/><path d="M28 4H2C.897 4 0 4.897 0 6v18c0 1.103.897 2 2 2h26c1.103 0 2-.897 2-2V6c0-1.103-.897-2-2-2zm1 20c0 .551-.449 1-1 1H2c-.551 0-1-.449-1-1V6c0-.551.449-1 1-1h26c.551 0 1 .449 1 1v18z"/></g><metadata><rdf:RDF xmlns:rdf="http://www.w3.org/1999/02/22-rdf-syntax-ns#" xmlns:rdfs="http://www.w3.org/2000/01/rdf-schema#" xmlns:dc="http://purl.org/dc/elements/1.1/"><rdf:Description about="https://iconscout.com/legal#licenses" dc:title="western,union,payments,pay,online,send,money,credit,card,ecommerce" dc:description="western,union,payments,pay,online,send,money,credit,card,ecommerce" dc:publisher="Iconscout" dc:date="2017-11-27" dc:format="image/svg+xml" dc:language="en"><dc:creator><rdf:Bag><rdf:li>Those Icons</rdf:li></rdf:Bag></dc:creator></rdf:Description></rdf:RDF></metadata></svg>