<?xml version="1.0" encoding="UTF-8"?><svg xmlns="http://www.w3.org/2000/svg" xmlns:xlink="http://www.w3.org/1999/xlink" version="1.1" id="Layer_1" x="0px" y="0px" viewBox="0 0 30 30" xml:space="preserve"><g fill="#000000"><path d="M8.811 12.605h.686v.686H8.81z"/><path d="M8.811 13.814h.686v3.101H8.81z"/><path d="M7.203 16.125H7.19l-.561-2.328h-.694l-.585 2.328H5.34l-.61-2.328H4l.965 3.118h.724l.573-2.316h.012l.579 2.316h.706l.977-3.118h-.7z"/><path d="M11.703 13.73c-.06-.005-.103-.017-.26-.017-.422 0-.832.356-.91.688h-.012v-.604h-.645v3.118h.687v-1.483c0-.688.374-1.068.845-1.068.096 0 .199.018.295.03v-.663z"/><path d="M13.067 13.713c-.929 0-1.508.76-1.508 1.646 0 .96.55 1.64 1.526 1.64.682 0 1.26-.379 1.412-1.06h-.652c-.12.343-.362.518-.76.518-.573 0-.838-.434-.838-.923h2.292c.114-.935-.489-1.821-1.472-1.821zm-.82 1.37c.018-.465.344-.827.82-.827.465 0 .76.392.784.826h-1.604z"/><path d="M16.276 14.256c.38 0 .658.205.712.585h.687c-.066-.766-.681-1.128-1.405-1.128-1.025 0-1.538.736-1.538 1.677 0 .916.537 1.61 1.514 1.61.802 0 1.303-.446 1.43-1.255h-.688c-.067.447-.344.712-.742.712-.597 0-.827-.549-.827-1.067 0-.947.501-1.134.857-1.134z"/><path d="M20.667 16.222v-1.604c0-.658-.64-.905-1.248-.905-.688 0-1.37.235-1.418 1.037h.688c.03-.337.301-.494.687-.494.278 0 .646.066.646.422 0 .404-.44.35-.935.44-.58.067-1.2.193-1.2.971 0 .61.506.911 1.067.911.368 0 .808-.115 1.08-.38.054.284.253.38.53.38.115 0 .332-.042.435-.078v-.477c-.073.012-.127.012-.17.012-.126 0-.162-.066-.162-.235zm-.688-.356c0 .435-.47.591-.772.591-.24 0-.633-.09-.633-.398 0-.362.266-.47.56-.519.303-.054.634-.048.845-.187v.513z"/><path d="M23.055 13.73c-.06-.005-.102-.017-.259-.017-.422 0-.832.356-.91.688h-.013v-.604h-.645v3.118h.688v-1.483c0-.688.374-1.068.844-1.068.096 0 .199.018.295.03v-.663z"/><path d="M25.312 14.201H25.3c-.21-.343-.645-.488-1.037-.488-.682 0-1.351.495-1.351 1.622 0 .935.476 1.665 1.46 1.665.391 0 .784-.15.964-.507h.013v.422H26V12.61h-.688v1.592zm-.85 2.256c-.597 0-.863-.53-.863-1.067 0-.561.23-1.134.875-1.134.53 0 .862.41.862 1.097 0 .543-.259 1.104-.874 1.104z"/><path d="M28 4H2C.897 4 0 4.897 0 6v18c0 1.103.897 2 2 2h26c1.103 0 2-.897 2-2V6c0-1.103-.897-2-2-2zm1 20c0 .551-.449 1-1 1H2c-.551 0-1-.449-1-1V6c0-.551.449-1 1-1h26c.551 0 1 .449 1 1v18z"/></g><metadata><rdf:RDF xmlns:rdf="http://www.w3.org/1999/02/22-rdf-syntax-ns#" xmlns:rdfs="http://www.w3.org/2000/01/rdf-schema#" xmlns:dc="http://purl.org/dc/elements/1.1/"><rdf:Description about="https://iconscout.com/legal#licenses" dc:title="wirecard,payments,pay,online,send,money,credit,card,ecommerce" dc:description="wirecard,payments,pay,online,send,money,credit,card,ecommerce" dc:publisher="Iconscout" dc:date="2017-11-27" dc:format="image/svg+xml" dc:language="en"><dc:creator><rdf:Bag><rdf:li>Those Icons</rdf:li></rdf:Bag></dc:creator></rdf:Description></rdf:RDF></metadata></svg>