<?xml version="1.0" encoding="UTF-8"?><svg xmlns="http://www.w3.org/2000/svg" xmlns:xlink="http://www.w3.org/1999/xlink" version="1.1" id="Layer_1" x="0px" y="0px" viewBox="0 0 30 30" xml:space="preserve"><g fill="#000000"><path d="M20.045 19.294c-.14 0-.302.053-.443.12v1.54h.402c.313 0 .433-.172.433-.433v-.783c0-.26-.105-.444-.392-.444z"/><path d="M12.427 20.703c0 .198.115.313.345.313.161 0 .339-.062.49-.14v-.517h-.438c-.282 0-.397.12-.397.344z"/><path d="M17.176 19.738v.809c0 .26.11.443.396.443.141 0 .298-.052.438-.12v-1.476c-.14-.058-.297-.1-.438-.1-.287 0-.396.183-.396.444z"/><path d="M28 4H2C.897 4 0 4.897 0 6v18c0 1.103.897 2 2 2h26c1.103 0 2-.897 2-2V6c0-1.103-.897-2-2-2zM5.54 19.258c0 .057-.037.089-.1.083 0 0-.224-.03-.417-.03-.34 0-.449.197-.449.479v.704c0 .293.12.486.454.486.203 0 .417-.032.417-.032.058-.005.094.021.094.079v.318c0 .057-.026.094-.099.11 0 0-.24.047-.454.047-.631 0-.986-.345-.986-.992v-.73c0-.647.35-.992.986-.992.235 0 .454.047.454.047.068.01.1.047.1.105v.318zm.939 2.092c0 .058-.042.1-.1.1h-.375a.096.096 0 0 1-.1-.1v-3.506c0-.058.042-.1.1-.1h.376c.057 0 .099.042.099.1v3.506zm1.017 0c0 .058-.042.1-.1.1h-.375a.096.096 0 0 1-.099-.1v-2.41c0-.058.042-.1.1-.1h.375c.057 0 .1.042.1.1v2.41zm0-3.13c0 .057-.042.099-.1.099h-.375a.096.096 0 0 1-.099-.1v-.375c0-.058.042-.1.1-.1h.375c.057 0 .1.042.1.1v.376zm1.983 1.038c0 .057-.037.089-.1.083 0 0-.224-.03-.417-.03-.339 0-.448.197-.448.479v.704c0 .293.12.486.454.486.203 0 .417-.032.417-.032.057-.005.094.021.094.079v.318c0 .057-.026.094-.1.11 0 0-.24.047-.453.047-.632 0-.986-.345-.986-.992v-.73c0-.647.35-.992.986-.992.235 0 .454.047.454.047.068.01.099.047.099.105v.318zm.94 2.092c0 .058-.043.1-.1.1h-.376a.096.096 0 0 1-.099-.1v-3.506c0-.058.042-.1.1-.1h.375c.057 0 .1.042.1.1v3.506zm1.293.1h-.422c-.058 0-.105-.048-.13-.1l-.71-1.362.646-1.048c.032-.047.079-.1.136-.1h.423c.057 0 .088.053.057.1l-.647 1.038.715 1.372c.026.047-.01.1-.068.1zm-.374-8.034s-.511.51-1.233.51c0 0-.723 0-1.233-.51 0 0-.511-.51-.511-1.233 0 0 0-.722.51-1.233 0 0 .511-.51 1.234-.51 0 0 .722 0 1.233.51 0 0 .51.51.51 1.233 0 0 0 .722-.51 1.233zm2.498 7.934c0 .058-.042.1-.1.1h-.349a.096.096 0 0 1-.099-.1v-.047a1.208 1.208 0 0 1-.631.199c-.506 0-.804-.256-.804-.783 0-.538.329-.804.908-.804.178 0 .433.021.501.032v-.21c0-.27-.12-.417-.428-.417s-.7.09-.7.09c-.062.015-.098-.027-.098-.084v-.319c0-.057.036-.093.099-.11 0 0 .34-.109.777-.109.694 0 .924.324.924.95v1.612zm2.426 0c0 .058-.041.1-.099.1h-.375a.096.096 0 0 1-.1-.1v-1.623c0-.245-.073-.401-.35-.401-.16 0-.338.073-.484.151v1.873c0 .058-.042.1-.1.1h-.375a.096.096 0 0 1-.1-.1v-2.41c0-.058.042-.1.1-.1h.35c.057 0 .099.042.099.1v.078c.15-.115.375-.23.672-.23.57 0 .762.345.762.887v1.675zm2.322 0c0 .058-.041.1-.099.1h-.35a.096.096 0 0 1-.099-.1v-.031c-.161.1-.36.183-.584.183-.58 0-.85-.355-.85-.914v-.887c0-.558.27-.913.85-.913.214 0 .402.063.558.141v-1.085c0-.058.042-.1.1-.1h.375c.058 0 .1.042.1.1v3.506zm2.427-.814c0 .569-.308.913-.955.913h-.929a.096.096 0 0 1-.099-.099v-3.506c0-.058.042-.1.1-.1h.375c.057 0 .099.042.099.1v1.106c.157-.094.35-.162.564-.162.579 0 .845.355.845.913v.835zm-.27-7.352l-2.953 2.957c-.383.38-.924.38-.924.38-.54 0-.924-.38-.924-.38-.383-.383-.383-.924-.383-.924 0-.541.383-.924.383-.924l.72-.72H13.9c-.547 0-.93-.382-.93-.382-.387-.387-.387-.93-.387-.93 0-.545.387-.928.387-.928.383-.387.93-.387.93-.387h2.758l-.719-.715c-.383-.383-.383-.924-.383-.924 0-.541.383-.924.383-.924.384-.383.924-.383.924-.383.541 0 .924.383.924.383l2.957 2.953c.38.383.38.924.38.924 0 .541-.383.924-.383.924zm2.696 8.166c0 .058-.041.1-.099.1h-.35a.096.096 0 0 1-.099-.1v-.078c-.15.115-.375.23-.673.23-.568 0-.762-.345-.762-.887V18.94c0-.058.042-.1.1-.1h.375c.058 0 .1.042.1.1v1.622c0 .246.073.402.35.402.16 0 .338-.073.484-.151V18.94c0-.058.042-.1.1-.1h.375c.058 0 .1.042.1.1v2.41zm1.399.997c-.021.052-.052.094-.11.094h-.423c-.057 0-.099-.047-.078-.1l.298-.87-.83-2.531c-.016-.052.016-.1.078-.1h.413c.057 0 .099.037.114.094l.533 1.654.558-1.654c.02-.052.057-.094.115-.094h.412c.062 0 .099.053.078.105l-1.158 3.402z"/></g><metadata><rdf:RDF xmlns:rdf="http://www.w3.org/1999/02/22-rdf-syntax-ns#" xmlns:rdfs="http://www.w3.org/2000/01/rdf-schema#" xmlns:dc="http://purl.org/dc/elements/1.1/"><rdf:Description about="https://iconscout.com/legal#licenses" dc:title="clickandbuy,payments,pay,online,send,money,credit,card,ecommerce" dc:description="clickandbuy,payments,pay,online,send,money,credit,card,ecommerce" dc:publisher="Iconscout" dc:date="2017-11-29" dc:format="image/svg+xml" dc:language="en"><dc:creator><rdf:Bag><rdf:li>Those Icons</rdf:li></rdf:Bag></dc:creator></rdf:Description></rdf:RDF></metadata></svg>