<?xml version="1.0" encoding="UTF-8"?><svg xmlns="http://www.w3.org/2000/svg" xmlns:xlink="http://www.w3.org/1999/xlink" version="1.1" id="Layer_1" x="0px" y="0px" viewBox="0 0 30 30" xml:space="preserve"><g fill="#000000"><path d="M10.185 14.179l.31.037-.53 1.715-.462-1.935h-.501l-.549 1.94-.534-1.72.305-.037v-.251h-.958l-.058.25.205.043c.058.014.081.024.1.081l.673 2.07h.525l.524-1.893.459 1.893h.51l.644-2.07c.019-.062.038-.081.12-.096l.171-.027v-.251h-.902l-.052.25z"/><path d="M12.365 13.874c-.81 0-1.192.512-1.192 1.26 0 .758.32 1.29 1.145 1.29.81 0 1.173-.518 1.173-1.319 0-.714-.315-1.231-1.126-1.231zm-.033 2.203c-.47 0-.71-.304-.71-.938 0-.63.27-.906.733-.906.46 0 .688.276.688.901 0 .653-.252.943-.711.943z"/><path d="M14.388 14.254l-.014-.005-.046-.326h-.617l-.043.254.272.09c.047.015.062.048.062.101v1.623c0 .071-.01.086-.076.095l-.239.029v.255h1.266v-.25l-.45-.039c-.072-.005-.077-.019-.077-.095v-1.44c.112-.105.36-.301.58-.301.044 0 .054.009.06.047l.058.333.333.015v-.722a1.313 1.313 0 0 0-.339-.046c-.331 0-.57.206-.73.382z"/><path d="M16.288 15.99v-3.224h-.73l-.042.253.286.091c.048.015.062.048.062.1v2.78c0 .072-.01.091-.076.096l-.296.029v.255h1.158v-.25l-.285-.034c-.072-.01-.077-.019-.077-.096z"/><path d="M18.937 15.988v-3.222h-.72l-.043.253.287.092c.043.014.062.047.062.095v.895a1.266 1.266 0 0 0-.73-.229c-.572 0-.994.387-.994 1.328 0 .874.355 1.223.899 1.223.372 0 .62-.165.838-.373l.02.004.036.318h.665v-.255l-.244-.033c-.07-.01-.076-.02-.076-.096zm-.424-.32c-.21.21-.439.396-.72.396-.334 0-.558-.214-.558-.877 0-.566.177-.957.625-.957.253 0 .51.138.653.257v1.182z"/><path d="M20.962 13.876c-.324 0-.591.131-.853.322l-.014-.004-.043-.27h-.625l-.043.253.272.09c.048.015.062.048.062.1v2.63c0 .071-.014.085-.08.095l-.196.028v.255h1.224v-.25l-.448-.038c-.071-.005-.076-.019-.076-.096v-.828c.224.195.453.262.725.262.748 0 .99-.658.99-1.374 0-.839-.361-1.175-.895-1.175zm-.167 2.191c-.253 0-.49-.152-.653-.31v-1.226c.138-.11.425-.296.73-.296.295 0 .548.206.548.855 0 .6-.172.977-.625.977z"/><path d="M24.042 15.989v-1.264c0-.662-.227-.854-.9-.854-.374 0-.917.067-.917.657l.41.044c.006-.36.214-.37.504-.37.412 0 .479.173.479.523v.254l-.64.053c-.573.047-.868.27-.868.744 0 .242.076.646.671.646.366 0 .632-.154.86-.366l.014.004.043.312h.663v-.255l-.243-.033c-.071-.01-.076-.02-.076-.095zm-.424-.265c-.147.138-.447.365-.727.365-.223 0-.333-.104-.333-.36 0-.246.114-.365.523-.403l.537-.047v.445z"/><path d="M26.006 14.179l.323.037-.661 1.608-.633-1.608.314-.037v-.251h-.985l-.057.25.195.048c.057.014.076.023.1.08l.856 2.04-.276.636c-.028.067-.047.096-.104.1l-.343.043v.25h1.29v-.246l-.462-.047 1.156-2.8c.024-.052.062-.07.12-.08l.161-.023v-.251h-.942l-.052.25z"/><path d="M6.644 14.75c-.015-.03-.02-.066-.036-.091a.778.778 0 0 0-.143-.229c-.051-.066-.123-.116-.163-.177-.026-.036-.026-.092-.041-.127a.821.821 0 0 0-.184-.279 1.59 1.59 0 0 0-.813-.421c-.097-.02-.199-.03-.286-.03-.077 0-.118 0-.2.02-.056.01-.143.056-.153.056-.015 0-.03-.01-.24-.006-.015 0-.225.006-.225.097 0 .03.051.076.087.076.015 0 .092-.05.138-.076-.005 0-.01 0-.015-.006a.343.343 0 0 1 .086-.015c.01 0 .031 0 .042.005-.333.209-.67.391-.997.528-.031.01-.066.03-.097.04-.041.016-.097.046-.097.092 0 .061.071.066.107.07l.664-.014c.154.01.307.015.455.035.082.01.246.041.256.041.02 0 .112-.097.122-.101a6.014 6.014 0 0 0-.725-.092l-.527-.005c.154-.076.312-.162.465-.254.057-.035.297-.203.327-.203.082 0 .583.117.624.132.005-.01 0-.015 0-.015-.143-.203-.332-.167-.496-.203.026-.04.062-.056.087-.056.015 0 .143.026.21.046.102.03.265.147.28.259v.102a.75.75 0 0 1-.219.355c-.46.42-.96.603-1.426.715-.092.02-.26.046-.27.046-.016 0-.011-.005-.011-.005.02-.01.04-.026.061-.031.113-.036.235-.055.353-.086.123-.03.276-.087.404-.137h-.18c-.055 0-.868.056-.868.284 0 .117.143.122.215.122.214 0 .444-.076.654-.137.072-.02.368-.147.393-.147.302 0 .798.121 1.058.248.057.026.154.097.164.097a.369.369 0 0 0 .097-.077c-.373-.243-.746-.324-1.12-.375.139-.081.277-.168.415-.279.056-.045.158-.147.173-.147.067 0 .496.157.527.172.128.061.266.132.394.223a.633.633 0 0 0 .06-.11 2.773 2.773 0 0 0-.899-.397c.097-.137.154-.274.143-.41h.016c.265.085.531.187.797.385a.528.528 0 0 0-.066-.163c-.016-.025-.03-.055-.051-.07-.062-.036-.134-.067-.19-.097a4.046 4.046 0 0 0-.434-.162c-.04-.016-.092-.01-.118-.036-.036-.025-.056-.07-.092-.102a.596.596 0 0 0-.158-.09c-.026-.01-.051-.02-.072-.026-.025-.01-.056-.01-.082-.02a.794.794 0 0 1 .118-.016c.388 0 1.186.33 1.232.843v.126c-.087.787-1.57 1.543-2.535 1.543-.102 0-.194.005-.297-.045-.02-.01-.05-.031-.05-.041 0-.071.188-.152.214-.158.071-.03.153-.05.235-.066.102-.02.235-.03.343-.03.24 0 .506.076.52.076.01 0 .098-.035.144-.05a1.653 1.653 0 0 0-.7-.133c-.107 0-.895.031-.895.371 0 .228.424.239.522.239.25 0 .496-.046.756-.122.087-.026.174-.05.256-.082.071-.025.2-.08.214-.08.01 0 .046.035.072.05a.435.435 0 0 1 .163.31c0 .05-.036.167-.076.218a.354.354 0 0 0 .102-.04c.025-.016.056-.138.056-.194 0-.116-.077-.279-.21-.39.22-.107.45-.239.67-.401.189.172.26.355.266.527 0-.004.102-.07.102-.101 0-.01-.015-.071-.025-.102-.062-.212-.246-.395-.246-.395 0-.016.153-.147.22-.223.03-.036.061-.071.087-.107.02-.026.04-.056.061-.076.143.137.215.274.266.41 0-.004.056-.161.056-.197 0-.061-.255-.34-.255-.34 0-.01.04-.091.056-.137a1.11 1.11 0 0 0 .05-.208c.154.152.231.39.231.558 0 .898-1.41 1.649-2.32 1.649-.01 0-.139-.01-.2-.02-.03-.005-.173-.036-.173-.086 0-.071.178-.117.189-.117.102-.026.117-.02.204-.02.148 0 .312.03.455.08.02.006.04.021.056.021.01 0 .077-.02.113-.03a1.596 1.596 0 0 0-.66-.163c-.076 0-.475.015-.475.239 0 .238.445.243.541.243.128 0 .348-.04.46-.056a.536.536 0 0 0-.02.097c0 .142.205.152.276.152.593 0 1.539-.563 1.595-1.344v-.127c0-.015-.005-.015-.005-.02.066-.142.117-.325.117-.472a1.24 1.24 0 0 0-.056-.305zm-.859 1.604a.733.733 0 0 1-.47.243c.149-.066.312-.147.47-.243zm-.833.548c-.015 0-.143 0-.143-.046 0-.025.041-.107.077-.117.076-.03.24-.071.25-.071.015 0 .149.015.164.015a.816.816 0 0 0 .388-.112.832.832 0 0 0 .24-.223c.03-.045.046-.106.082-.147.046-.06.133-.112.205-.177a3.03 3.03 0 0 0 .21-.229c-.139.64-.977 1.107-1.473 1.107z"/><path d="M28 4H2C.897 4 0 4.897 0 6v18c0 1.103.897 2 2 2h26c1.103 0 2-.897 2-2V6c0-1.103-.897-2-2-2zm1 20c0 .551-.448 1-1 1H2c-.552 0-1-.449-1-1V6c0-.551.448-1 1-1h26c.552 0 1 .449 1 1v18z"/></g><metadata><rdf:RDF xmlns:rdf="http://www.w3.org/1999/02/22-rdf-syntax-ns#" xmlns:rdfs="http://www.w3.org/2000/01/rdf-schema#" xmlns:dc="http://purl.org/dc/elements/1.1/"><rdf:Description about="https://iconscout.com/legal#licenses" dc:title="worldpay,payments,pay,online,send,money,credit,card,ecommerce" dc:description="worldpay,payments,pay,online,send,money,credit,card,ecommerce" dc:publisher="Iconscout" dc:date="2017-11-27" dc:format="image/svg+xml" dc:language="en"><dc:creator><rdf:Bag><rdf:li>Those Icons</rdf:li></rdf:Bag></dc:creator></rdf:Description></rdf:RDF></metadata></svg>