<?xml version="1.0" encoding="UTF-8"?><svg xmlns="http://www.w3.org/2000/svg" xmlns:xlink="http://www.w3.org/1999/xlink" version="1.1" id="Layer_1" x="0px" y="0px" viewBox="0 0 30 30" xml:space="preserve"><g fill="#000000"><path d="M9.286 13.152c.256 0 .499-.027.66-.285.183-.293.196-.616.011-.91-.158-.251-.394-.307-.651-.307-.084 0-.17.006-.257.013v1.488h.033l.204.001z"/><path d="M26.036 12.83h.542c-.089-.293-.172-.57-.262-.873l-.28.874z"/><path d="M28 4H2C.897 4 0 4.897 0 6v18c0 1.103.897 2 2 2h26c1.103 0 2-.897 2-2V6c0-1.103-.897-2-2-2zm-7.24 6.787h2.824v.86h-.898v2.342h-1.052l.001-2.33h-.876v-.872zm-3.436.002h1.034v2.365h1.425l.001.833h-2.46v-3.198zM8 10.777h.158l.833-.002c.198 0 .397.001.595.006.252.006.504.035.741.14.405.178.62.504.724.914.122.472.108.941-.098 1.389-.181.394-.51.618-.925.712a2.516 2.516 0 0 1-.516.06C9.334 14 9.157 14 8.98 14l-.811-.002H8v-3.22zM2 25c-.552 0-1-.449-1-1v-.742L5.064 25H2zm-1-3v-2.663L5.945 22H1zm7 3v-1.893L11.516 25H8zm-7-7v-6.617L12.029 18H1zm11.834-7.21h2.686v.86h-1.637v.353h1.497v.788h-1.498v.353h1.7l-.001.843h-2.747V10.79zM14 25v-5.817L23.695 25H14zm13.538-11.002c-.187 0-.371-.001-.555-.004-.03 0-.073-.041-.085-.073-.036-.096-.054-.199-.092-.294-.014-.036-.064-.082-.101-.083a23.4 23.4 0 0 0-.512-.004h-.38c-.043.128-.082.253-.132.372-.017.037-.07.081-.108.082-.172.004-.343.004-.519.004h-.447c.082-.23.156-.444.235-.656.244-.654.492-1.306.738-1.959.06-.158.12-.316.177-.473.033-.089.081-.135.182-.135a22.615 22.615 0 0 0 .775.002h.004c.078 0 .11.028.139.1.367.993.737 1.984 1.104 2.976.015.038.023.08.039.144h-.462z"/></g><metadata><rdf:RDF xmlns:rdf="http://www.w3.org/1999/02/22-rdf-syntax-ns#" xmlns:rdfs="http://www.w3.org/2000/01/rdf-schema#" xmlns:dc="http://purl.org/dc/elements/1.1/"><rdf:Description about="https://iconscout.com/legal#licenses" dc:title="delta,payments,pay,online,send,money,credit,card,ecommerce" dc:description="delta,payments,pay,online,send,money,credit,card,ecommerce" dc:publisher="Iconscout" dc:date="2017-11-29" dc:format="image/svg+xml" dc:language="en"><dc:creator><rdf:Bag><rdf:li>Those Icons</rdf:li></rdf:Bag></dc:creator></rdf:Description></rdf:RDF></metadata></svg>