<?xml version="1.0" encoding="UTF-8"?><svg xmlns="http://www.w3.org/2000/svg" xmlns:xlink="http://www.w3.org/1999/xlink" version="1.1" id="Layer_1" x="0px" y="0px" viewBox="0 0 16 16" xml:space="preserve"><path d="M10.654 11.956l-1.93.971a.482.482 0 0 1-.224.053V16H14L7.5 0 1 16h5.5v-3.271a.494.494 0 0 1-.345-.147l-1.29-1.301a.5.5 0 0 1 .71-.703l.925.933V9h2v1.319l.683-.455a.5.5 0 0 1 .554.832l-.96.64a.494.494 0 0 1-.277.084v.501l1.705-.858a.5.5 0 1 1 .449.893z"/><metadata><rdf:RDF xmlns:rdf="http://www.w3.org/1999/02/22-rdf-syntax-ns#" xmlns:rdfs="http://www.w3.org/2000/01/rdf-schema#" xmlns:dc="http://purl.org/dc/elements/1.1/"><rdf:Description about="https://iconscout.com/legal#licenses" dc:title="forrst,social,solid,e" dc:description="forrst,social,solid,e" dc:publisher="Iconscout" dc:date="2018-03-05" dc:format="image/svg+xml" dc:language="en"><dc:creator><rdf:Bag><rdf:li>Pixel Icons</rdf:li></rdf:Bag></dc:creator></rdf:Description></rdf:RDF></metadata></svg>