<?xml version="1.0" encoding="UTF-8"?><svg xmlns="http://www.w3.org/2000/svg" xmlns:xlink="http://www.w3.org/1999/xlink" version="1.1" id="Layer_1" x="0px" y="0px" viewBox="0 0 16 16" xml:space="preserve"><path d="M8 0C3.589 0 0 3.589 0 8s3.589 8 8 8 8-3.589 8-8-3.589-8-8-8zm3.67 11.548a.499.499 0 0 1-.696.122c-1.875-1.318-4.994-1.391-7.1-.9a.5.5 0 0 1-.226-.975c2.315-.536 5.775-.438 7.9 1.057a.5.5 0 0 1 .122.696zm.976-1.951a.5.5 0 0 1-.698.114C9.773 8.15 7.101 7.762 3.535 8.49a.5.5 0 1 1-.201-.98c3.857-.787 6.779-.347 9.197 1.388a.502.502 0 0 1 .115.699zm.986-2.62a.5.5 0 0 1-.695.133c-2.757-1.871-6.948-1.88-9.661-.92a.5.5 0 1 1-.333-.944C5.894 4.203 10.467 4.225 13.5 6.282a.502.502 0 0 1 .132.695z"/><metadata><rdf:RDF xmlns:rdf="http://www.w3.org/1999/02/22-rdf-syntax-ns#" xmlns:rdfs="http://www.w3.org/2000/01/rdf-schema#" xmlns:dc="http://purl.org/dc/elements/1.1/"><rdf:Description about="https://iconscout.com/legal#licenses" dc:title="spotify,social,solid,e" dc:description="spotify,social,solid,e" dc:publisher="Iconscout" dc:date="2018-03-05" dc:format="image/svg+xml" dc:language="en"><dc:creator><rdf:Bag><rdf:li>Pixel Icons</rdf:li></rdf:Bag></dc:creator></rdf:Description></rdf:RDF></metadata></svg>