<?xml version="1.0" encoding="UTF-8"?><svg xmlns="http://www.w3.org/2000/svg" xmlns:xlink="http://www.w3.org/1999/xlink" version="1.1" id="Layer_1" x="0px" y="0px" viewBox="0 0 16 16" xml:space="preserve"><path d="M8 13a5.01 5.01 0 0 0 4.899-4H3.101A5.01 5.01 0 0 0 8 13z"/><path d="M8 0a8 8 0 1 0 0 16A8 8 0 0 0 8 0zm2.5 3.5a1 1 0 1 1 0 2 1 1 0 0 1 0-2zm-5 0a1 1 0 1 1 0 2 1 1 0 0 1 0-2zM8 14c-3.309 0-6-2.691-6-6V7h12v1c0 3.309-2.691 6-6 6z"/><metadata><rdf:RDF xmlns:rdf="http://www.w3.org/1999/02/22-rdf-syntax-ns#" xmlns:rdfs="http://www.w3.org/2000/01/rdf-schema#" xmlns:dc="http://purl.org/dc/elements/1.1/"><rdf:Description about="https://iconscout.com/legal#licenses" dc:title="yahoo,messenger,social,solid,e" dc:description="yahoo,messenger,social,solid,e" dc:publisher="Iconscout" dc:date="2018-03-05" dc:format="image/svg+xml" dc:language="en"><dc:creator><rdf:Bag><rdf:li>Pixel Icons</rdf:li></rdf:Bag></dc:creator></rdf:Description></rdf:RDF></metadata></svg>