<?xml version="1.0" encoding="UTF-8"?><svg xmlns="http://www.w3.org/2000/svg" xmlns:xlink="http://www.w3.org/1999/xlink" version="1.1" id="Layer_1" x="0px" y="0px" viewBox="0 0 16 16" xml:space="preserve"><path d="M8 0C3.589 0 0 3.589 0 8s3.589 8 8 8 8-3.589 8-8-3.589-8-8-8zm0 15c-3.86 0-7-3.141-7-7 0-3.86 3.14-7 7-7 3.859 0 7 3.14 7 7 0 3.859-3.141 7-7 7z"/><path d="M11.828 3.38A5.974 5.974 0 0 0 8 2c-.42 0-.83.044-1.226.126a28.5 28.5 0 0 1 1.971 3.219 14.119 14.119 0 0 0 3.083-1.965z"/><path d="M9.911 7.901a11.18 11.18 0 0 1 4.08-.071 5.966 5.966 0 0 0-1.45-3.744 15.224 15.224 0 0 1-3.363 2.148c.263.548.507 1.103.733 1.667z"/><path d="M5.77 2.433a6.003 6.003 0 0 0-3.611 4.215 14.156 14.156 0 0 0 5.653-.924A27.345 27.345 0 0 0 5.77 2.433z"/><path d="M8.26 6.629a15.052 15.052 0 0 1-5.463 1.043c-.259 0-.519-.016-.779-.03C2.011 7.761 2 7.879 2 8c0 1.473.533 2.821 1.414 3.865A11.25 11.25 0 0 1 8.936 8.15a26.757 26.757 0 0 0-.676-1.521z"/><path d="M10.278 8.848c.477 1.33.851 2.697 1.125 4.091a5.993 5.993 0 0 0 2.533-4.108 10.193 10.193 0 0 0-3.658.017z"/><path d="M4.124 12.576a5.97 5.97 0 0 0 6.363.879A27.216 27.216 0 0 0 9.296 9.08a10.241 10.241 0 0 0-5.172 3.496z"/><metadata><rdf:RDF xmlns:rdf="http://www.w3.org/1999/02/22-rdf-syntax-ns#" xmlns:rdfs="http://www.w3.org/2000/01/rdf-schema#" xmlns:dc="http://purl.org/dc/elements/1.1/"><rdf:Description about="https://iconscout.com/legal#licenses" dc:title="dribbble,social,solid,e" dc:description="dribbble,social,solid,e" dc:publisher="Iconscout" dc:date="2018-03-05" dc:format="image/svg+xml" dc:language="en"><dc:creator><rdf:Bag><rdf:li>Pixel Icons</rdf:li></rdf:Bag></dc:creator></rdf:Description></rdf:RDF></metadata></svg>