<?xml version="1.0" encoding="UTF-8"?><!DOCTYPE svg PUBLIC "-//W3C//DTD SVG 1.1//EN" "http://www.w3.org/Graphics/SVG/1.1/DTD/svg11.dtd"><svg xmlns="http://www.w3.org/2000/svg" xmlns:xlink="http://www.w3.org/1999/xlink" version="1.1" x="0px" y="0px" width="512px" height="512px" viewBox="0 0 512 512" xml:space="preserve"><path d="M477.564 231.561c-.62-.972-2.023-1.592-4.434-1.997-1.592-.287-4.641-.845-8.509-1.456-17.035-2.987-48.586-8.526-56.825-9.624a39.529 39.529 0 0 0-5.415-.342c-3.543 0-5.459.611-7.204 1.24-1.034.343-1.942.621-3.103.757-.685.144-1.476.144-2.357.144-3.66 0-7.969-.701-8.382-.765-.621-.136-10.38-2.42-13.626-3.247-1.035-.216-1.943-.359-2.708-.359-1.376 0-1.942.422-2.141.701l-.144.207-.072.207v.071c-2.636-.414-6.493-1.043-6.493-1.043l-2.51-.899c-.126-4.426-5.459-7.951-6.988-8.302.071-.207.152-.423.152-.62 0-1.602-4.083-7.682-9.345-7.682H234.101v-.216l-1.233-.899h-1.816v-.216h5.261v-3.598c0-.972-.054-1.169-1.034-1.169-1.448 0-2.482 2.347-2.482 2.347h-2.932c-.189-1.033-.954-1.727-1.862-1.727-.89 0-1.655.693-1.844 1.727h-.567c-2.635-2.212-6.916-.62-6.916-.62h-2.24l-.54-.558h-3.193c-1.799-2.626-3.391 0-3.391 0h-2.905v.899h-.81c-.369-.413-.765-.611-1.403-.611-2.905 0-3.391 1.52-3.391 3.598v.971a1.595 1.595 0 0 0-.621-.144c-.342 0-.612.072-.765.216v-.846c0-.827-.144-1.241-1.295-1.241h-.989c-.072-.071-.072-.135-.144-.207-.467-.485-1.232-.692-2.563-.692-1.646 0-11.63.207-22.126.414-10.334.144-20.983.351-22.656.351-1.178 0-2.06.342-2.699.972h-1.304c-1.035 0-3.247 0-3.247 2.698v-.485H106.04c-.27 0-.558.063-.756.063h-.225c-.198 0-.342.072-.468.072h-.297c-.117.071-.27.071-.342.144h-.27c-.144.063-.27.063-.342.144-.072 0-.153 0-.198.063a.894.894 0 0 0-.422.135c-.072 0-.144 0-.216.071a2.27 2.27 0 0 1-.468.199c-.153.144-.369.215-.494.287-.072.072-.072.072-.144.072-.072.126-.198.207-.351.27 0 0-.072.072-.144.072-.045.144-.197.206-.27.27-.072.072-.072.072-.126.145-.072.071-.216.144-.297.278-.045 0-.045.063-.117.063-.072.145-.225.217-.341.352v.063c-2.167 2.356-3.346 5.819-5.685 8.311-.566.558-1.178 1.115-1.871 1.529H91.782c-1.376.756-3.049 1.17-4.992 1.17h-.198v.144c-.072 0-.153.063-.225.144H58.209v-2.213l-7.546-14.688c.494-.342.908-1.385.908-2.563 0-1.521-.639-2.762-1.331-2.762H43.332c-.71 0-1.25 1.241-1.25 2.762 0 1.178.342 2.148.836 2.563h-.225v.207c.072.072 1.034 5.612.072 9.696h-.072c-.27 0-.684.071-.684.071l-.153.072v3.589c0 .207-1.151 2.978-2.977 2.978v.287H36.2c-1.25 0-2.212 1.655-2.212 3.732s.962 3.805 2.212 3.805h4.623s2.779.342 4.308 3.741c.198 0 2.482.756 5.189.145h48.713c.639.962 1.673 1.871 3.346 1.871h1.646s.225-1.602 1.332-1.602v-.27h39.862c.495 2.761 2.833 2.761 6.44 2.761 1.457 0 3.741.279 6.719.692 5.531.756 13.923 1.943 23.808 1.943 13.995 0 23.043 1.025 28.521 3.255 1.232.549 2.563.685 3.67.685.54 0 1.106-.072 1.718-.072.639 0 1.259-.063 1.943-.063.566 0 .989-.144 1.331-.484a1.68 1.68 0 0 0 .27-.424c1.25-.125 1.943-.611 2.357-1.313l.396.144h.153c.215 0 9.488.486 20.408 1.044l3.273 2.626c-.072 1.654-.836 8.859-5.343 18.618-4.623 10.18-14.454 25.268-34.816 39.246l-.125.072c-.423.484-.225.898.468 2.086.414.684 1.034 1.727 1.798 2.969 1.323 2.141 3.193 5.055 5.55 8.725 4.011 6.223 8.167 12.52 8.167 12.592l.423.557.54-.27c.144-.072 12.322-6.854 25.4-20.848 11.09-11.838 24.869-31.139 30.4-58.009.837-.063 2.141-.063 2.779.63h.27c0 2.77.27 5.54 1.799 6.224 0 0 .756 4.442 1.718 5.819h1.106v-2.284s-.881-1.179 0-2.078h.495v-1.457c.413-.27.684-.899 1.592.144h.692c.765 1.313 2.779 3.184 7.744 3.454 2.015.072 3.957.216 5.756.287 3.391.198 6.566.414 9.84.414h1.79c3.4-.071 5.118-1.385 6.152-2.626 1.034 1.025 2.356 3.112 4.227 7.682 4.507 11.201 8.393 18.883 9.543 24.836 1.106 5.973.567 7.971 9.84 7.07 9.273-.973 12.322-7.609 12.125-10.738-.226-3.113-6.521-16.186-8.464-21.799-1.916-5.603-2.411-8.238-1.034-11 1.105-2.077 2.141-5.747 1.87-7.474h.567l1.304-2.428c1.673.342 5.189 1.24 7.204 1.663.495.063.963.207 1.305.279.494 2.482 4.92 4.218 11.782 6.781 2.06.828 4.497 1.727 6.979 2.698 10.253 4.156 72.745 32.806 80.444 37.231 2.015 1.188 3.886 1.816 5.388 1.816 3.463 0 5.63-2.914 6.026-8.113.413-8.85 7.348-39.587 8.04-42.636.412-1.792.753-3.177-.003-4.364zM231.339 207.33h-8.877 8.877zm-9.984 4.371h-.342.342zm-75.371-1.6h5.261c3.175-.899 6.098-1.377 8.932-1.377 3.049 0 5.333.478 7.205.963 1.106.217 1.987.414 2.752.414h7.357c2.824-.899 5.532-1.313 7.942-1.313 2.698 0 4.641.559 6.018.899a8.3 8.3 0 0 0 1.529.414c-.684.144-.836.629-.962.972-.144.413-.27.898-2.356.898h-9.489c-.738 0-.819-.063-.891-.27-.225-.629-.612-1.043-1.943-1.043h-11.144c-1.322 0-1.664.414-1.861 1.043-.081.207-.153.27-.99.27h-9.048c-.765 0-.836-.063-.909-.27-.198-.629-.611-1.043-1.871-1.043h-6.44v2.914h-1.925V210.1h2.833zm-39.863.485v-1.034H135.263l.468.477-1.035 3.544h-28.458v-1.457h-.117v-1.53zm-61.898-2.896c0-1.602 1.322-2.915 2.896-2.915h5.612l2.923 5.811h-8.535c-1.574 0-2.896-1.314-2.896-2.896zm7.969 15.498c.836-1.035 1.646-2.078 1.646-2.078H86.37c.072 0 .153.071.225.071v.073h2.482c-.27.197-.495.476-.495.827 0 .62.495 1.034 1.062 1.034h8.508v.072h-45.96zm53.165-.073h.54c.611 0 1.034-.414 1.034-1.034 0-.414-.27-.756-.692-.972h34.754v2.078h-35.635v-.072zm208.836 27.073c-3.732.063-7.474-.135-11.432-.423-1.798-.063-3.714-.206-5.729-.27-4.92-.278-5.954-2.285-6.026-2.572v-9.543c.144-.063.27-.144.414-.278.152-.207.27-.342.351-.486.144-.207.342-.485 2.554-.485 2.356 0 7.816.278 10.865.414 1.26.071 2.141.144 2.563.216.765.557 1.521 1.583 1.521 3.256 0 3.31.494 5.117-5.388 7.681-.145-.144-.288.899 1.573.684 1.943-.27 4.039-2.141 4.776-3.247.765-1.178 2.581-5.189 2.627-5.747l2.023-.558s1.942-.756 2.554-1.997h.297v4.911s-.765 2.968 0 5.811c.117.62.342.899.611 1.106-.681.762-1.941 1.455-4.154 1.527z" fill="#010101" id="army_x2C__military_x2C__war_x2C__weapon__x2C_navy_x2C__aviation_x2C___ak47__x2C__gun__x2C_"/><metadata><rdf:RDF xmlns:rdf="http://www.w3.org/1999/02/22-rdf-syntax-ns#" xmlns:rdfs="http://www.w3.org/2000/01/rdf-schema#" xmlns:dc="http://purl.org/dc/elements/1.1/"><rdf:Description about="https://iconscout.com/legal#licenses" dc:title="army,military,war,weapon,navy,aviation,ak,gun" dc:description="army,military,war,weapon,navy,aviation,ak,gun" dc:publisher="Iconscout" dc:date="2018-06-25" dc:format="image/svg+xml" dc:language="en"><dc:creator><rdf:Bag><rdf:li>Ibrandify Icons</rdf:li></rdf:Bag></dc:creator></rdf:Description></rdf:RDF></metadata></svg>