<?xml version="1.0" encoding="UTF-8"?><!DOCTYPE svg PUBLIC "-//W3C//DTD SVG 1.1//EN" "http://www.w3.org/Graphics/SVG/1.1/DTD/svg11.dtd"><svg xmlns="http://www.w3.org/2000/svg" xmlns:xlink="http://www.w3.org/1999/xlink" version="1.1" x="0px" y="0px" width="512px" height="512px" viewBox="0 0 512 512" xml:space="preserve"><path d="M93.499 302.682c-1.376-.072-2.833-.144-4.218-.216-4.371-1.025-9.273-1.178-13.222-2.213-1.106-.125-2.212-.279-3.318-.413-1.809-.684-3.742-2.348-5.469-2.905H44.975c-.414-.352-.836-.765-1.313-1.106v-19.176c0-2.771-.341-6.584.702-8.383h22.692c2.977-.684 6.377-.756 9.695-1.52 2.078-.477 4.569-1.034 7.052-1.106-.891-.558-3.318-.216-4.632-.216-4.084 0-8.581-.055-12.395.216-.558-.558-1.447-1.313-2.141-1.735v-11.487c-1.106-3.391-3.679-6.854-5.055-10.109-3.732-8.438-8.104-16.478-11.701-24.716-2.563-5.738-5.459-11.136-7.96-16.748-1.313-2.968-2.284-6.494-4.155-8.994v-.216H72.11c.765.288 1.394 1.395 2.006 1.943 1.529 1.511 3.318 3.327 5.055 4.641 4.982 3.796 9.075 8.508 14.058 12.322 1.448 1.106 2.555 2.896 4.003 4.011 10.667 8.023 19.319 18.547 29.978 26.659 3.184 2.42 5.747 5.666 9.003 8.086.558.621 1.034 1.179 1.583 1.808 1.529 1.035 3.813.9 5.685 1.529 4.362 1.448 8.932 2.482 13.5 3.939 9.21 3.113 19.032 6.017 28.377 8.653 56.835 1.727 143.912-25.543 187.805 1.521 2.77 1.735 5.539 3.534 8.363 5.262.9.629 2.033 1.87 3.059 2.212 2.627.288 5.271.63 7.951.899 6.529 1.602 12.951 1.809 19.193 3.526 4.838 1.313 9.678 2.635 14.535 3.948 2.338.701 4.496.701 6.836 1.601 4.154 1.521 8.58 3.185 12.754 5.055 1.852.765 4.01 2.213 5.936 2.833l24.445 2.906-142.107 1.033c.971.766 5.18 1.673 6.637 1.809-.143.351-.072.206-.27.422-.846.747-5.199 2.069-6.584 2.213v.207h-.215c0 2.42 0 4.974-.414 7.061-.27 1.241.287 2.896-.27 3.732-.072 1.106-.289 1.241-.631 2.006h-4.424c-.072.485-.072.63-.199.899 0 .702-.07 1.106-.215 1.528-2.627.127-3.238-.558-3.525-2.635h-5.326v6.305h-45.617v-5.891c.27-.342 1.24-.765 1.582-1.106h.217v-.207c-88.274-.278-51.848-1.79-111.731-3.948-2.212 2.356-5.333 4.021-7.969 5.954-2.482 1.871-4.767 4.497-7.681 5.954-.558.279-5.189-1.241-6.161-1.592a1356.933 1356.933 0 0 1-18.96-4.848v-8.788c-10.937-.072-20.085-.422-28.873-2.419z" fill="#010101" id="army_x2C__military_x2C__war_x2C__weapon__x2C_navy_x2C__aviation_x2C___plane__x2C__jet__x2C_"/><metadata><rdf:RDF xmlns:rdf="http://www.w3.org/1999/02/22-rdf-syntax-ns#" xmlns:rdfs="http://www.w3.org/2000/01/rdf-schema#" xmlns:dc="http://purl.org/dc/elements/1.1/"><rdf:Description about="https://iconscout.com/legal#licenses" dc:title="army,military,war,weapon,navy,aviation,plane,jet" dc:description="army,military,war,weapon,navy,aviation,plane,jet" dc:publisher="Iconscout" dc:date="2018-06-25" dc:format="image/svg+xml" dc:language="en"><dc:creator><rdf:Bag><rdf:li>Ibrandify Icons</rdf:li></rdf:Bag></dc:creator></rdf:Description></rdf:RDF></metadata></svg>