<?xml version="1.0" encoding="UTF-8"?><!DOCTYPE svg PUBLIC "-//W3C//DTD SVG 1.1//EN" "http://www.w3.org/Graphics/SVG/1.1/DTD/svg11.dtd"><svg xmlns="http://www.w3.org/2000/svg" xmlns:xlink="http://www.w3.org/1999/xlink" version="1.1" x="0px" y="0px" width="512px" height="512px" viewBox="0 0 512 512" xml:space="preserve"><path d="M395.194 311.836l-.081-.143c-3.518-12.674-15.488-31.363-21.245-40.367-1.52-2.348-2.824-4.496-3.049-4.91a3.88 3.88 0 0 0-.836-1.25h.071c2.294 0 3.967-.693 4.65-1.791.494-.764.494-1.734.072-2.635h-.072c-9.759-17.449-11.782-21.452-9.219-30.249 2.158-7.411 14.679-8.921 19.4-9.551.81-.072 1.448-.145 1.799-.216 1.178-.342 2.141-1.376 2.481-2.762.486-1.87-.269-3.877-2.14-5.478-2.285-1.996-5.064-2.42-6.989-2.42-.836 0-1.475.081-1.673.081-.27.054-.558.054-.755.127-.963-.756-2.905-1.584-7.133-2.069-6.719-.827-8.509-7.348-8.58-8.239 0-.278-.081-.422-.198-.558-.225-3.605-.765-7.06-1.601-10.244.881-4.784 7.896-8.661 11.827-10.802 1.601-.827 2.365-1.313 2.636-1.655.342-.359.342-.836.144-1.259-.494-1.098-2.356-1.996-4.155-1.996a4.877 4.877 0 0 0-3.661 1.654c-2.932 3.13-7.015 3.606-9.156 3.606-.683 0-1.178-.081-1.52-.081-.27-.611-.54-1.16-.837-1.708l-.197-.424h-.908c-1.646-3.265-2.978-5.207-2.978-5.207h-10.649c0-.198.072-.891-.566-1.718-.198-.279-.54-.621-1.106-.972-1.987-1.241-1.987-2.284-1.987-2.284h-2.015c-.153 1.313-1.26 2.212-1.26 2.212a3.98 3.98 0 0 0-1.304 1.044c-.566.765-.908 1.52-.963 1.718h-51.933v1.053h-93.873-48.227c-2.086-.352-2.923-1.8-4.452-2.771a4.878 4.878 0 0 0-1.565-.621c-1.115-.27-2.222.072-3.202.621-1.646.971-2.905 2.419-3.094 2.771h-1.826c-1.106 0-1.79 1.52-2.212 3.184-1.718 0-2.626 1.395-3.049 2.555h-.27c-.962.278-1.646 3.12-1.646 6.574 0 3.265.612 5.954 1.52 6.449v.549s2.069 5.675 1.574 12.249h.081v.486c-.62 6.781 1.178 8.167 1.178 8.167h1.179c.126 2.697.611 4.435 2.41 4.435h49.577v1.447s.962 2.429 3.399 2.429h46.995c1.646 0 3.121.144 4.425.414 1.79.342 3.463 1.043 4.992 1.942.198.135.414.27.612.413 3.472 2.285 5.882 6.09 5.882 11.495 0 11.621 6.583 19.374 16.396 19.374h24.716c7.771 0 15.794.701 21.325 8.798 5.954 8.65 23.115 69.219 23.34 69.848l.144.684h1.035c-.909.27-2.285.693-4.228.9-.962.287-1.304 2.086.485 2.086 1.574 0 5.046-.846 7.061-1.115l.423.898 58.283-9.137.342-.477c1.798-.072 3.741-.424 5.036-2.016 1.829-2.076 2.098-5.745.92-13.138zM121.625 208.061v.27l-.072-4.426h-.072l-.081-3.741h.081v.972h.144v6.925zm148.486 41.535h-13.5c-2.851 0-6.242-1.727-8.581-4.362-2.581-2.978-3.741-6.791-3.274-10.658v-.071c.423-6.225 6.719-11.693 10.254-11.693h15.919c1.179 1.584 4.227 6.575 4.029 13.842-.296 7.958-3.317 11.34-4.847 12.942zm17.98 50.125h-12.098c-.837-.764-1.673-1.467-2.438-2.023-.126-.055-.197-.125-.342-.125H140.171c.072 0 .072-.072.072-.145 1.718-3.041 3.66-6.574 4.155-8.445.198-.766.072-1.449-.342-2.006-1.034-1.385-3.813-1.457-4.353-1.457h-.225l-.072.207c-.072.07-4.282 11.701-6.224 19.031L123 343.946c-.072.424-.198.9.072 1.188.351.477 1.106.549 2.635.549.342 0 .612-.152.954-.342 10.181 0 149.673.063 150.978.063.638 0 1.105-.215 1.447-.557h.765c1.106 0 1.476-.342 1.817-1.656 0 0 3.939-14.822 5.271-19.877 1.376-5.055 1.106-7.402.27-8.166l-.081-.207c1.188-4.498 2.707-10.244 3.131-11.693.682-2.492-.765-3.527-2.168-3.527zm-98.299 19.931v.621c0 .07-.045.145-.045.197 0 .215-.072.342-.153.559v.07c-.072.217-.144.414-.189.559 0 .072-.081.125-.081.125-.072.217-.216.361-.288.559-.126.215-.279.359-.423.557 0 0-.045 0-.045.072-.297.289-.639.631-1.061.836-.198.137-.396.271-.612.342a4.72 4.72 0 0 1-1.376.424h-.621c-2.779 0-4.991-2.23-4.991-4.92a4.96 4.96 0 0 1 4.991-4.982c.198 0 .396.063.621.063a4.436 4.436 0 0 1 1.861.629c.198.135.351.207.495.342h.054c.288.271.639.559.828.9 0 0 .081 0 .081.072.072.135.198.27.27.414l.072.07c.225.342.342.684.495 1.098v.145c.072.143.072.277.072.486.045 0 .045.07.045.135v.627zm12.206 14.401v.135c-.081.135-.081.342-.153.477v.143c-.072.217-.126.352-.198.559-.072.207-.216.342-.296.557l-.045.055c-.073.152-.225.359-.297.494h-.045a6.074 6.074 0 0 1-.908.9h-.081c-.117.135-.27.279-.486.342a4.275 4.275 0 0 1-1.799.629h-.611a4.933 4.933 0 0 1-4.92-4.92c0-2.77 2.212-4.982 4.92-4.982.188 0 .414.063.611.063 1.034.154 1.943.549 2.707 1.25.145.145.27.27.414.424.27.27.495.621.621.961h.072c.072.145.144.279.216.486v.145c.054.125.054.197.126.342 0 .072 0 .143.072.207 0 .135 0 .207.081.342v.207c0 .143.072.35.072.557s-.073.41-.073.627zm19.913-14.401c0 .207 0 .422-.045.621v.145c0 .205-.072.34-.072.475-.081.072-.081.072-.081.137-.072.205-.144.412-.198.557 0 .072 0 .072-.072.072 0 .207-.144.342-.216.486 0 .063-.081.063-.081.143-.045.127-.189.27-.27.414 0 0-.072 0-.072.055-.117.143-.27.287-.396.422 0 .082-.072.082-.072.082-.144.125-.27.197-.341.342-.073 0-.145.053-.145.053-.692.494-1.457.773-2.293.918h-.54c-2.779 0-4.992-2.23-4.992-4.92a4.94 4.94 0 0 1 3.247-4.633c.144-.08.297-.152.414-.152h.081c.072-.063.198-.063.342-.063 0-.072.072-.072.144-.072h.27c.153-.063.279-.063.495-.063.198 0 .342.063.54.063.495.072.989.207 1.376.342.152.072.225.145.351.215.072 0 .144.072.144.072.072.055.144.055.225.135.045 0 .117.072.198.072.072.064.072.135.145.135.072.072.125.135.197.135.072.072.144.137.216.279.054 0 .126.072.126.145.072 0 .153.072.225.125 0 .082.045.154.045.154a.889.889 0 0 1 .224.27l.072.072c.045.133.126.207.198.35 0 .055.072.055.072.127.072.08.072.215.144.287 0 0 0 .063.054.135 0 .063.072.207.144.352v.072c0 .125.081.27.081.395.072 0 .072.08.072.154v.27c.045.08.045.135.045.135l-.001.49zm7.897 18.69H229.196c-2.779 0-5.001-2.213-5.001-4.92 0-2.285 1.601-4.217 3.697-4.766h.045c.144-.072.224-.072.341-.072.081-.082.153-.082.153-.082h.27c.144 0 .296-.063.495-.063.189 0 .414.063.558.063 2.492.279 4.354 2.365 4.354 4.92-.001 2.5-1.862 4.57-4.3 4.92zm23.115-14.957c-.396.422-.962.693-1.448.898-.396.145-.765.217-1.16.289h-.639a5.598 5.598 0 0 1-1.52-.217 3.39 3.39 0 0 1-.468-.207l-.072-.07c-.152-.072-.297-.135-.422-.207-.072 0-.072 0-.072-.064-.153-.08-.342-.152-.495-.277-1.106-.9-1.871-2.295-1.871-3.877 0-2.77 2.212-4.982 4.92-4.982.225 0 .422.063.639.063.81.072 1.502.342 2.14.836h.072c.126.064.27.207.396.27 0 .072.072.072.072.137.153.07.225.143.296.287.055 0 .055.072.126.072.072.135.144.207.27.342v.063c.639.836.98 1.807.98 2.914.001 1.517-.683 2.831-1.744 3.73zm13.924 10.037v.486s0 .072-.072.145v.27c0 .072-.055.143-.055.143 0 .137 0 .199-.071.342v.145c-.072.125-.153.279-.153.342-.072.072-.072.135-.072.207-.045.072-.116.135-.116.207-.081.072-.081.145-.153.215 0 .055-.071.055-.071.127-.072.08-.072.143-.126.217-.072.07-.072.07-.072.135-.225.277-.494.494-.692.701 0 .063 0 .063-.072.063-.071.072-.144.125-.216.207h-.054c-.684.549-1.448.836-2.356.971h-.567c-2.752 0-4.974-2.213-4.974-4.92a4.963 4.963 0 0 1 4.974-4.982c.217 0 .369.063.567.063 1.034.154 1.942.549 2.626 1.18.153.143.271.215.423.34v.082c.117.072.198.207.27.342.072 0 .072 0 .072.08.072.055.126.199.198.342.071 0 .071 0 .071.055.072.072.153.215.225.359 0 0 0 .064.045.135 0 .064.072.207.153.27v.207c.072.072.072.217.144.359v.137a.763.763 0 0 1 .055.35c0 .055.072.127.072.127-.003.209-.003.344-.003.551z" fill="#010101" id="army_x2C__military_x2C__war_x2C__weapon__x2C_navy_x2C__aviation_x2C___pistol__x2C__magzine__x2C_"/><metadata><rdf:RDF xmlns:rdf="http://www.w3.org/1999/02/22-rdf-syntax-ns#" xmlns:rdfs="http://www.w3.org/2000/01/rdf-schema#" xmlns:dc="http://purl.org/dc/elements/1.1/"><rdf:Description about="https://iconscout.com/legal#licenses" dc:title="army,military,war,weapon,navy,aviation,pistol,magzine" dc:description="army,military,war,weapon,navy,aviation,pistol,magzine" dc:publisher="Iconscout" dc:date="2018-06-25" dc:format="image/svg+xml" dc:language="en"><dc:creator><rdf:Bag><rdf:li>Ibrandify Icons</rdf:li></rdf:Bag></dc:creator></rdf:Description></rdf:RDF></metadata></svg>