<?xml version="1.0" encoding="UTF-8"?><!DOCTYPE svg PUBLIC "-//W3C//DTD SVG 1.1//EN" "http://www.w3.org/Graphics/SVG/1.1/DTD/svg11.dtd"><svg xmlns="http://www.w3.org/2000/svg" xmlns:xlink="http://www.w3.org/1999/xlink" version="1.1" x="0px" y="0px" width="512px" height="512px" viewBox="0 0 512 512" xml:space="preserve"><path d="M395.194 316.217l-.081-.055c-3.518-12.682-15.488-31.371-21.245-40.365-1.52-2.43-2.824-4.506-3.049-4.912-.197-.494-.494-.971-.836-1.313h.071c2.294 0 3.967-.629 4.65-1.816.494-.756.494-1.656.072-2.555h-.072c-9.759-17.502-11.782-21.46-9.219-30.247 2.158-7.402 14.679-9.004 19.4-9.552.81-.081 1.448-.135 1.799-.271 1.178-.278 2.141-1.321 2.481-2.707.486-1.87-.269-3.867-2.14-5.531-2.285-1.942-5.064-2.419-6.989-2.419-.836 0-1.475.125-1.673.125-.27.072-.558.072-.755.145-.963-.827-2.905-1.583-7.133-2.087-6.719-.891-8.509-7.339-8.58-8.239a.747.747 0 0 0-.198-.548c-.152-3.661-.765-7.061-1.601-10.244.881-4.768 7.896-8.653 11.827-10.794 1.601-.898 2.365-1.313 2.636-1.654.342-.351.342-.846.144-1.322-.494-1.043-2.356-1.943-4.155-1.943-1.034 0-2.482.279-3.661 1.602-2.932 3.184-7.015 3.66-9.156 3.66-.683 0-1.178-.071-1.52-.071-.27-.611-.54-1.169-.837-1.727l-.197-.414h-.908c-1.646-3.256-2.978-5.189-2.978-5.189h-10.649c0-.207.072-.972-.566-1.736-.198-.342-.54-.62-1.106-.972-1.987-1.241-1.987-2.338-1.987-2.338h-2.015c-.153 1.367-1.26 2.213-1.26 2.213-.54.27-.962.683-1.304 1.097-.566.765-.908 1.529-.963 1.736h-51.933v.971h-93.873-48.227c-2.086-.278-2.923-1.735-4.452-2.707a5.117 5.117 0 0 0-1.565-.62c-1.115-.279-2.222.071-3.202.62-1.646.972-2.905 2.429-3.094 2.707h-1.826c-1.106 0-1.79 1.592-2.212 3.247-1.718 0-2.626 1.386-3.049 2.555h-.27c-.962.287-1.646 3.13-1.646 6.521 0 3.319.612 5.954 1.52 6.432v.629s2.069 5.667 1.574 12.25h.081v.485c-.62 6.782 1.178 8.096 1.178 8.096h1.179c.126 2.77.611 4.496 2.41 4.496h49.577v1.457s.962 2.357 3.399 2.357h46.995c1.646 0 3.121.207 4.425.477 1.79.351 3.463 1.052 4.992 1.943.198.134.414.278.612.422 3.472 2.267 5.882 6.08 5.882 11.477 0 11.566 6.583 19.383 16.396 19.383h24.716c7.771 0 15.794.701 21.325 8.787 5.954 8.662 23.115 69.238 23.34 69.857l.144.621h1.035c-.909.342-2.285.756-4.228.971-.962.279-1.304 2.068.485 2.068 1.574 0 5.046-.889 7.061-1.096l.423.818 58.283-9.121.342-.422c1.798-.072 3.741-.486 5.036-2.016 1.829-2.07 2.098-5.74.92-13.222zM121.329 198.41v1.305-1.305zm123.427 40.628v-.073c.423-6.224 6.719-11.701 10.254-11.701h15.919c1.179 1.602 4.3 6.584 4.029 13.779-.297 8.022-3.318 11.423-4.848 13.023h-13.5c-2.851 0-6.242-1.735-8.581-4.443-2.58-2.895-3.74-6.709-3.273-10.585zm-123.275-30.662l-.081-3.741h.081v.971h.144v7.205l-.072-4.435h-.072z" fill="#010101" id="army_x2C__military_x2C__war_x2C__weapon__x2C_navy_x2C__aviation_x2C___pistol__x2C__gun__x2C__bullet__x2C_"/><metadata><rdf:RDF xmlns:rdf="http://www.w3.org/1999/02/22-rdf-syntax-ns#" xmlns:rdfs="http://www.w3.org/2000/01/rdf-schema#" xmlns:dc="http://purl.org/dc/elements/1.1/"><rdf:Description about="https://iconscout.com/legal#licenses" dc:title="army,military,war,weapon,navy,aviation,pistol,gun,bullet" dc:description="army,military,war,weapon,navy,aviation,pistol,gun,bullet" dc:publisher="Iconscout" dc:date="2018-06-25" dc:format="image/svg+xml" dc:language="en"><dc:creator><rdf:Bag><rdf:li>Ibrandify Icons</rdf:li></rdf:Bag></dc:creator></rdf:Description></rdf:RDF></metadata></svg>