<?xml version="1.0" encoding="UTF-8"?><!DOCTYPE svg PUBLIC "-//W3C//DTD SVG 1.1//EN" "http://www.w3.org/Graphics/SVG/1.1/DTD/svg11.dtd"><svg xmlns="http://www.w3.org/2000/svg" xmlns:xlink="http://www.w3.org/1999/xlink" version="1.1" x="0px" y="0px" width="512px" height="512px" viewBox="0 0 512 512" xml:space="preserve"><path d="M431.98 316.225l-.082-.07c-3.588-12.664-15.488-31.363-21.244-40.35-1.52-2.428-2.824-4.506-3.049-5a3.187 3.187 0 0 0-.908-1.24h.145c2.293 0 3.957-.621 4.648-1.791.469-.764.469-1.664.072-2.572h-.072c-9.758-17.513-11.781-21.452-9.219-30.248 2.16-7.475 14.68-8.994 19.4-9.552.811-.063 1.449-.135 1.719-.271 1.26-.288 2.213-1.313 2.563-2.707.486-1.87-.35-3.876-2.141-5.531-2.283-2.006-5.063-2.429-7.006-2.429-.818 0-1.457.144-1.656.144-.27 0-.557.073-.836.127-.881-.818-2.824-1.583-7.051-2.141-6.719-.828-8.51-7.268-8.59-8.167 0-.27-.072-.486-.189-.558-.225-3.67-.764-7.061-1.6-10.244.881-4.776 7.896-8.644 11.826-10.794 1.602-.898 2.367-1.321 2.637-1.663.342-.342.342-.828.143-1.313-.494-1.043-2.355-1.943-4.154-1.943-1.035 0-2.555.288-3.66 1.602-2.934 3.184-7.016 3.66-9.229 3.66a7.278 7.278 0 0 1-1.449-.134c-.27-.558-.539-1.179-.836-1.655l-.197-.423h-.908c-1.646-3.265-2.979-5.189-2.979-5.189H377.43c0-.207.072-.972-.566-1.728-.197-.351-.539-.692-1.107-.972-1.986-1.25-1.986-2.355-1.986-2.355h-2.023c-.145 1.385-1.252 2.212-1.252 2.212-.539.288-.961.692-1.303 1.115-.566.684-.908 1.439-.953 1.728H316.244v.971H222.421h-48.227c-2.087-.288-2.923-1.727-4.453-2.698a5.203 5.203 0 0 0-1.574-.629c-1.106-.271-2.213.071-3.265.629-1.574.891-2.833 2.41-3.103 2.698h-1.745c-1.106 0-1.79 1.583-2.212 3.247-1.718 0-2.627 1.395-3.049 2.563h-.27c-.962.278-1.646 3.112-1.646 6.512 0 3.319.611 5.954 1.52 6.432v.62s.27.773.539 1.942a.155.155 0 0 0-.144-.144h-3.661c-.126-5.325-.422-5.325-.54-5.325H81.506c-1.332 0-2.168 5.19-2.168 10.245 0 5.054.836 10.244 2.168 10.244h69.084c.117 0 .414 0 .54-5.396h3.661c.144 0 .297-.144.342-1.188h.908c0 .63 0 1.26-.072 1.871h.072c0 .145 0 .359-.072.494-.54 6.791 1.259 8.086 1.259 8.086h1.178c.126 2.788.612 4.506 2.41 4.506h49.577v1.467s.962 2.348 3.391 2.348h47.003c1.674 0 3.121.207 4.43.413a17.929 17.929 0 0 1 4.992 2.007c.197.134.414.287.611.413v-.072c3.473 2.365 5.883 6.161 5.883 11.567 0 11.548 6.584 19.392 16.396 19.392h24.717c7.771 0 15.793.611 21.324 8.787 5.955 8.645 23.115 69.211 23.34 69.84l.117.631h1.063c-.908.342-2.285.684-4.229.953-.961.287-1.303 2.086.486 2.086 1.529 0 5.045-.898 7.061-1.115l.424.846 58.281-9.139.342-.422c1.799-.072 3.742-.496 5.047-2.006 1.817-2.07 2.014-5.758.908-13.224zM158.137 198.409v.765-.765zm-3.004.765c-.045-.342-.045-.558-.045-.701 0 .207.045.414.125.701h-.08zm3.274 13.636l-.072-4.443h-.072l-.081-1.871h.225v6.314zm148.489 41.247h-13.5c-2.852 0-6.242-1.727-8.58-4.425-2.582-2.914-3.742-6.71-3.273-10.595v-.063c.422-6.233 6.719-11.701 10.262-11.701h15.91c1.178 1.601 4.229 6.502 4.029 13.778-.295 7.951-3.346 11.423-4.848 13.006z" fill="#010101" id="army_x2C__military_x2C__war_x2C__weapon__x2C_navy_x2C__aviation_x2C___pistol__x2C__gun__x2C_"/><metadata><rdf:RDF xmlns:rdf="http://www.w3.org/1999/02/22-rdf-syntax-ns#" xmlns:rdfs="http://www.w3.org/2000/01/rdf-schema#" xmlns:dc="http://purl.org/dc/elements/1.1/"><rdf:Description about="https://iconscout.com/legal#licenses" dc:title="army,military,war,weapon,navy,aviation,pistol,gun" dc:description="army,military,war,weapon,navy,aviation,pistol,gun" dc:publisher="Iconscout" dc:date="2018-06-25" dc:format="image/svg+xml" dc:language="en"><dc:creator><rdf:Bag><rdf:li>Ibrandify Icons</rdf:li></rdf:Bag></dc:creator></rdf:Description></rdf:RDF></metadata></svg>