<?xml version="1.0" encoding="UTF-8"?><!DOCTYPE svg PUBLIC "-//W3C//DTD SVG 1.1//EN" "http://www.w3.org/Graphics/SVG/1.1/DTD/svg11.dtd"><svg xmlns="http://www.w3.org/2000/svg" xmlns:xlink="http://www.w3.org/1999/xlink" version="1.1" x="0px" y="0px" width="512px" height="512px" viewBox="0 0 512 512" xml:space="preserve"><path d="M96.637 178.236c0 5.055.972 9.759 2.636 12.664 1.034 3.256 2.77 5.253 5.468 6.512 1.034 4.012 2.563 6.009 4.353 6.009h3.472c1.583 0 4.083.917 5.054 1.816.549.899 1.79 1.79 4.291 1.925.899 1.313 2.141 2.077 3.661 2.23 13.086.549 25.688 5.252 29.699 8.509.144.071.279.134.414.134 1.322.279 3.265.549 5.684.837a2.382 2.382 0 0 0 1.583 1.179c10.316 1.87 17.872 4.632 21.397 24.087 3.319 18.194 15.092 27.405 36.885 28.862 12.115.412 20.92-.486 31.983-1.664a689.475 689.475 0 0 1 17.516-1.664c8.932-.414 11.278.557 13.222 1.322.692.342 1.376.619 2.348.764 4.371 2.141 6.655 3.939 7.555 8.166 1.035 4.498 17.719 70.336 17.926 71.02.072.342.414.629.828.629H315.525l.414 1.729c-2.914-.703-5.685-1.314-7.267-1.314-1.386 0-2.15.611-2.573 1.17-1.447 1.941-.477 5.396-.404 5.756.135.342.404.611.765.611.135 0 13.978 1.385 22.485 1.385h44.998c.701 0 1.179-.277 1.592-.754.765-.973.63-2.555.423-3.32l-1.043-3.885h5.468l3.185 6.16c.135.279.423.414.765.414h5.055a.829.829 0 0 0 .818-.828l.081-3.256c0-.125 0-.342-.081-.412l-1.727-3.4c5.675.152 21.046.152 23.951-2.969 2.419-1.51 3.328-5.539 2.779-12.322-1.736-13.779-5.55-20.902-15.659-39.861-2.617-5.002-5.604-10.523-9.129-17.322-5.954-11.549-9.695-21.174-10.938-28.513-.135-.827-.206-1.601-.278-2.284-.271-2.842-.135-5.262.485-7.339a12 12 0 0 1 .899-2.348c.136-.208.351-.423.405-.558.152-.135.152-.207.216-.279.278-.342.207-.827-.135-1.169l-.765-.63c-.135-.072-.271-.135-.342-.135l-.765-.135c3.525-5.127 7.618-8.526 17.232-11.567 5.325-2.086 7.618-5.396 6.854-10.036-.683-4.363-1.933-5.325-4.56-7.556-.288-.27-.63-.549-1.043-.891-3.193-2.689-8.932-7.96-9.345-8.374-.063 0-.136-.135-.271-.216a6.25 6.25 0 0 0-.63-1.52l-8.931-15.155c0-.072 0-.072-.072-.144a.813.813 0 0 1-.207-.271c.279-1.25 1.179-2.627 1.521-3.184 2.078-2.078 3.265-4.839 3.265-7.753 0-1.529-.288-3.059-.899-4.426a.924.924 0 0 0-.63-.494v-.693c0-.27-.206-.558-.494-.683-.135-.145-.342-.145-.54-.145l-.144-.701c-.063-.27-.271-.468-.558-.611h-.549l-.271-.63c-.071-.278-.359-.468-.701-.468-.135-.081-.342 0-.485.054l-.342-.558c-.207-.27-.485-.413-.756-.413-.215 0-.422.071-.558.144l-.413-.486a.802.802 0 0 0-.828-.269c-.207 0-.359.134-.494.269l-.549-.485c-.271-.197-.558-.278-.828-.126-.207.055-.359.198-.494.343l-.611-.343c-.279-.216-.63-.216-.837 0-.144.055-.206.126-.279.198l-.764-.198c-.27-.152-.612-.071-.827.126-.072.072-.136.217-.207.351l-.692-.134c-.352-.073-.621.054-.828.269-.063.145-.144.289-.144.414h-.756a.767.767 0 0 0-.692.423c-.144.135-.144.342-.144.549l-.621.144c-.342 0-.549.198-.684.549-.071.135-.071.342 0 .549l-.629.216c-.279.126-.478.342-.549.63-.081.197 0 .396.071.611l-.629.359a.887.887 0 0 0-.414.747c0 .206.054.351.207.566l-.495.404c-.135.136-.27.279-.342.414-.207.765-.422 1.601-.477 2.348-2.356-2.267-5.271-7.321-5.954-9.191v-.073a10.258 10.258 0 0 0-.837-1.24c-.422-1.529-2.842-4.372-4.29-6.027a.893.893 0 0 0-.692-.287h-1.448a.896.896 0 0 0-.836.566l-.972 2.482a2.551 2.551 0 0 1-1.87 1.053H123.089l-1.808-2.572c-.135-.271-.414-.423-.764-.342l-3.939.342c-.144 0-2.698.278-7.061 2.572h-2.078c-.197 0-.422.125-.62.27-.414.414-.755.972-1.178 1.593 0 .063-.207.404-.342.764l-.207.27a4.413 4.413 0 0 1-.288.631c-2.842 1.313-4.56 3.525-5.604 7.051-1.591 2.902-2.563 7.551-2.563 12.462zm278.619-7.141c-.692 1.124-1.871 1.817-3.185 1.817-2.141 0-3.804-1.664-3.876-3.813.765-.899 1.942-1.457 3.111-1.457 2.079 0 3.743 1.528 3.95 3.453zm-116.768 85.841a4.827 4.827 0 0 0-1.116 1.664c-11.34 8.58-27.818 8.104-42.569 6.439-8.229-.891-15.848-5.334-20.417-11.845-4.848-11.207-3.319-22.145 4.218-29.268 6.44-6.098 15.578-6.925 26.029-7.267a.75.75 0 0 0 .548-.216c9.138 9.695 16.972 31.911-10.658 45.763-1.583.684-1.169 1.941-.063 1.941 15.092 0 29.492-10.253 27.621-30.328 6.575-3.669 9.615-9.21 10.793-11.979 1.664 1.115 3.184 2.355 4.496 3.813 5.748 6.089 6.72 14.876 6.927 21.946-1.24 2.835-3.183 5.883-5.809 9.337zm49.616-99.117h33.998-33.998z" fill="#010101" id="army_x2C__military_x2C__war_x2C__weapon__x2C_navy_x2C__aviation_x2C___pistol__x2C__gun__x2C__gunshot__x2C_"/><metadata><rdf:RDF xmlns:rdf="http://www.w3.org/1999/02/22-rdf-syntax-ns#" xmlns:rdfs="http://www.w3.org/2000/01/rdf-schema#" xmlns:dc="http://purl.org/dc/elements/1.1/"><rdf:Description about="https://iconscout.com/legal#licenses" dc:title="army,military,war,weapon,navy,aviation,pistol,gun,gunshot" dc:description="army,military,war,weapon,navy,aviation,pistol,gun,gunshot" dc:publisher="Iconscout" dc:date="2018-06-25" dc:format="image/svg+xml" dc:language="en"><dc:creator><rdf:Bag><rdf:li>Ibrandify Icons</rdf:li></rdf:Bag></dc:creator></rdf:Description></rdf:RDF></metadata></svg>