<?xml version="1.0" encoding="UTF-8"?><!DOCTYPE svg PUBLIC "-//W3C//DTD SVG 1.1//EN" "http://www.w3.org/Graphics/SVG/1.1/DTD/svg11.dtd"><svg xmlns="http://www.w3.org/2000/svg" xmlns:xlink="http://www.w3.org/1999/xlink" version="1.1" x="0px" y="0px" width="512px" height="512px" viewBox="0 0 512 512" xml:space="preserve"><path d="M96.546 178.348c0 3.337.422 9.705 2.024 9.705h14.112v5.189c0 2.627 0 3.742 1.529 4.425.144.072.342.136.639.288v18.897c0 5.324 2.482 6.215 8.284 6.215h60.027c13.968 0 13.968 1.871 16.55 4.713 3.103 6.026 6.646 20.633 8.517 27.621 1.862 6.917 2.483 15.304 7.942 16.275 21.389 4.011 64.375-.145 64.375-.145l9.912-3.039c.684-.145 1.304-.271 1.987-.271.72-.081 1.458-.144 2.168-.081.413 0 .882.081 1.305.135 4.38.701 7.896 3.05 9.416 3.679 2.069.972 14.679 39.593 18.124 53.507 3.544 13.986 2.365 25.886 2.365 25.886s.216.216.756.629c-.271 1.106-.953 3.796-2.06 5.955-.639.898.836 5.261 13.203 5.882 12.394.62 59.389 0 63.077 0 .692 0 1.231-.145 1.727-.413l.071.269c7.204-1.178 8.365-.269 9.688-7.267.423-17.862-7.816-43.955-15.857-64.992-4.775-12.682-9.542-23.538-12.25-29.775-.198-.486-.414-1.044-.611-1.529-5.9-15.434 3.588-23.188 15.074-27.685 11.854-4.641 14.903-2.554 13.303-10.451-1.673-7.96-4.012-16.333-4.012-16.333v-1.106l-1.322-4.362c-.764-2.555-1.87-6.026-2.977-9.768 0 0 10.864-7.402 11.755-11.136.837-5-6.422-7.267-8.437-5.27a73.083 73.083 0 0 0-2.365 2.5l-5.379-1.736-.494-1.52c-1.034-3.184-1.719-5.541-1.997-6.242-.144-.477-.216-.972-.359-1.367-.396-1.601-.738-2.788-2.636-3.337h-.126c-.072-.063-.144-.063-.27-.063-.144-.072-.297-.072-.494-.072-.414-.063-.828-.135-1.377-.135h-10.595v-1.241h10.028l3.472-1.106v-11.765h-2.087l-5.459 2.141h-2.636c-1.799 0-3.318 3.104-3.318 3.104H354.54c-3.247 0-3.247.971-3.247 3.265v-.899h-2.779c-.953 0-1.79.477-1.79 1.799v4.704h-72.816l-39.857.972.54-.972h-94.413l-5.333-13.365s-8.661.62-12.394 1.106c-3.742.413-3.517 12.259-3.517 12.259h-1.871l-.495.207h-.072v.063l-3.813 2.149v4.219H98.57c-1.601-.002-2.024 6.303-2.024 9.685zm121.216 48.191c.567.341 1.106.765 1.673 1.241H254.261v-3.526h4.695v3.526c0 2.636 1.727 4.299 1.727 4.299 2.086 2.213 3.265 5.676 3.049 13.563-.692 12.735-15.712 15.155-15.712 15.155-2.141.549-.963 2.222 4.641 2.015 1.799.063 4.353-.072 7.753-.765 15.016-3.462 15.016-21.945 13.226-23.816-1.744-1.871-2.096-9.552-2.096-9.552-3.391-3.04 1.529-3.112 1.529-3.112v-1.313h5.405c0 2.15 1.188 3.526 3.049 3.526h3.742c1.52.837 3.318 1.87 5.262 3.13 2.635 3.454 4.551 9.75 4.011 18.474-.225 3.112-1.034 5.667-2.293 7.825-7.321 12.669-29.974 9.35-36.953 8.243-8.095-1.263-9.614 1.655-13.356 1.655h-12.889c-5.405 0-9.345-.701-11.063-6.103-2.438-7.537-5.829-16.954-7.546-24.771-1.755-7.76 7.32-9.631 7.32-9.694z" fill="#010101" id="army_x2C__military_x2C__war_x2C__weapon__x2C_navy_x2C__aviation_x2C___fire__x2C__gun__x2C_pistol__x2C_"/><metadata><rdf:RDF xmlns:rdf="http://www.w3.org/1999/02/22-rdf-syntax-ns#" xmlns:rdfs="http://www.w3.org/2000/01/rdf-schema#" xmlns:dc="http://purl.org/dc/elements/1.1/"><rdf:Description about="https://iconscout.com/legal#licenses" dc:title="army,military,war,weapon,navy,aviation,fire,gun,pistol" dc:description="army,military,war,weapon,navy,aviation,fire,gun,pistol" dc:publisher="Iconscout" dc:date="2018-06-25" dc:format="image/svg+xml" dc:language="en"><dc:creator><rdf:Bag><rdf:li>Ibrandify Icons</rdf:li></rdf:Bag></dc:creator></rdf:Description></rdf:RDF></metadata></svg>