<?xml version="1.0" encoding="UTF-8"?><!DOCTYPE svg PUBLIC "-//W3C//DTD SVG 1.1//EN" "http://www.w3.org/Graphics/SVG/1.1/DTD/svg11.dtd"><svg xmlns="http://www.w3.org/2000/svg" xmlns:xlink="http://www.w3.org/1999/xlink" version="1.1" x="0px" y="0px" width="512px" height="512px" viewBox="0 0 512 512" xml:space="preserve"><path d="M130.047 278.807l233.287.756.055-19.999h-8.238l-9.066-15.848-14.391-.072-.072 15.849-8.994-.063v7.739c0 .702-.486 1.188-1.115 1.188l-166.956-.558 1.521-1.87a.986.986 0 0 1 .827-.414l161.208.485v-5.671l-4.264-9.902-11.979-.072c-.631 0-1.115-.477-1.115-1.034l-.828-9.552-29.916-.072c-.629 0-1.096-.558-1.096-1.178V218.237l-1.457-7.34-1.729-.063c-.07 0-.215 0-.287-.072-.053-.071-.145-.215-.145-.342v-2.635h-13.899l-1.521-.072h-1.259v7.547c0 .215-.207.422-.414.422h-1.997l-15.578-.08h-6.862v2.914c0 .071 0 .071-.063.144h-43.326v19.238c0 .621-.494 1.179-1.178 1.106h-8.932l-27.828-.072-27.477-.135-5.478 28.444a1.116 1.116 0 0 1-1.106.972l-4.569-.072c-.27 0-.558-.072-.765-.342a1.088 1.088 0 0 1-.342-.755l.072-20.485-12.322-.071-.072 20.898c0 .27-.135.558-.351.755-.207.216-.62.342-.827.342l-15.992-.072-10.73 10.109 67.566.287zm-10.865-57.181v1.935h-4.021v6.521l-.063 6.422 12.241.081.08-13.023h-4.299l.081-7.745H112.67l-.072 4.633h5.478c.62-.002 1.106.556 1.106 1.176zm38.828-2.968l-14.4-.072-.063 18.061 24.779.072-10.316-18.061zm312.752 62.488v26.73l-21.244 22.432H57.787c-5.478-30.472-17.449-49.162-17.449-49.162 244.549 0 139.834-.197 430.424-.197v.197zm-257.24-85.054l-.27 2.761 2.14-1.457-1.87-1.304zm-1.025 9.686l-.288 2.698 2.914-1.385-2.626-1.313zm-.495 4.083l-.423 4.012 3.544-2.275-3.121-1.737zm1.044-9.344l-.478 4.291 2.824-2.42-2.346-1.871zm-1.593 14.813l-.278 2.563 3.741-1.322-3.463-1.241zm15.848-8.517h-1.511v3.813h1.511v-3.813zm18.555 1.664H235.405v6.305l10.389.063.062-6.368zm-26.649-4.012l-.279-3.948-2.213 1.871 2.492 2.077zm.27 3.741l-.136-2.158-2.284 1.044 2.42 1.114zm-3.589 2.843l3.175-2.087-2.977-1.385-3.454 1.601 3.256 1.871zm2.905-12.268l-.216-2.627-1.728 1.241 1.944 1.386zm-.351-4.426l-.207-2.968-1.448 1.367 1.655 1.601zm-.89-3.39h-2.779l1.385 1.241 1.394-1.241zm-2.159-4.704c.216.072.288.198.288.414v3.454h.612v-3.454c0-.145.071-.216.144-.288l.144-.126a.402.402 0 0 1-.216-.351v-2.914c0-.135 0-.198.072-.271.063-.08.144-.08.144-.08 0-.055-.081-.055-.144-.126-.072-.072-.072-.145-.072-.27v-.558h-.684v.558c0 .125 0 .197-.135.27 0 .071-.081.071-.081.126 0 0 .081 0 .081.08.135.072.135.136.135.271v2.914c0 .135-.073.27-.288.351zm.764 7.052l-2.14 2.015 2.068 1.528 2.222-1.528-2.15-2.015zm1.944 23.06l-.63.198.63.27v-.468zm0-4.083l.063-1.322c0-.072 0-.207.072-.278.072-.063.207-.063.342-.144h1.052l-.081-.891-2.833 1.861 1.385.774zm-4.921 5.811h4.921v-.342l-1.871-.702-3.05 1.044zm5.748-5.127V218.101h4.021v-2.914a.39.39 0 0 1 .414-.405h6.854v-3.337h-4.848l-6.369-.054-.072 1.583zm-2.842-6.368l2.842-1.314-2.905-2.355-2.707 2.355 2.77 1.314zm-.064-4.767l2.555-2.159-2.491-1.799-2.617 1.871 2.553 2.087zm2.079 12.313v-.892l-2.15-1.259-3.948 2.627 4.228 1.529 1.871-.685v-1.32zm-4.021-22.764l-.343 3.031 1.809-1.664-1.466-1.367zm161.703 72.601c-2.068-1.241-4.209-2.555-6.297-3.814l.611-1.645h.09l4.211 2.067-4.301-10.874 2.375-.746c2.34 4.219 4.713 8.437 7.051 12.664 3.527-.352 7.053-.692 10.596-1.044 7.412-.692 14.805-1.376 22.217-2.067-.145-.774-.27-1.593-.414-2.366 1.799-1.997 6.295-1.385 9.551-1.942 1.387-.189 3.328.152 4.012-.819-14.391-.62-27.756-.549-42.146-.62-.145-.351-.217-.692-.287-1.043 8.652.071 17.305.144 25.902.216 4.281 0 8.51.054 12.719.054.359-.198.773-.414 1.133-.611.738-.145 1.439-.279 2.123-.343a13.77 13.77 0 0 1 1.188-.907c.215 0 .414 0 .557.071h1.314c.412.27.898.477 1.313.692.557 0 1.188 0 1.727-.063.559.27 1.115.549 1.674.818h38.908c0 .423.055.765.055 1.115-12.736-.081-25.545-.216-38.352-.27-.27.126-.559.27-.828.468l-3.328.144.701 3.525c22.432-1.925 25.742 18.487 8.023 18.758.145.63.27 1.188.414 1.816h8.166c4.588-2.374 5.758-.432-.197 1.439l-24.859-.198c-.342-.971-.486-1.528-.756-2.356-4.84-1.673-8.168-3.256-12.736-5.612-.215-.216-.27-2.771-.27-3.184a335.895 335.895 0 0 1-7.213-3.593c-7.053 0-14.121.063-21.174.063a800.109 800.109 0 0 1 6.98 4.088c-.27.413-.467.899-.684 1.313-2.158-1.17-4.299-2.429-6.439-3.67a181.947 181.947 0 0 1-1.926 5.811c-.557.071-1.115.071-1.672.144.071-2.5.196-4.983.268-7.479z" fill="#010101" id="army_x2C__military_x2C__war_x2C__weapon__x2C_navy_x2C__aviation_x2C__ship__x2C__carrier__x2C_"/><metadata><rdf:RDF xmlns:rdf="http://www.w3.org/1999/02/22-rdf-syntax-ns#" xmlns:rdfs="http://www.w3.org/2000/01/rdf-schema#" xmlns:dc="http://purl.org/dc/elements/1.1/"><rdf:Description about="https://iconscout.com/legal#licenses" dc:title="army,military,war,weapon,navy,aviation,ship,carrier" dc:description="army,military,war,weapon,navy,aviation,ship,carrier" dc:publisher="Iconscout" dc:date="2018-06-25" dc:format="image/svg+xml" dc:language="en"><dc:creator><rdf:Bag><rdf:li>Ibrandify Icons</rdf:li></rdf:Bag></dc:creator></rdf:Description></rdf:RDF></metadata></svg>