<?xml version="1.0" encoding="UTF-8"?><!DOCTYPE svg PUBLIC "-//W3C//DTD SVG 1.1//EN" "http://www.w3.org/Graphics/SVG/1.1/DTD/svg11.dtd"><svg xmlns="http://www.w3.org/2000/svg" xmlns:xlink="http://www.w3.org/1999/xlink" version="1.1" x="0px" y="0px" width="512px" height="512px" viewBox="0 0 512 512" xml:space="preserve"><path d="M341.93 232.905h-19.122v33.094h-4.155v-23.254H299.62v23.183h-4.425v-72.822h-49.501v10.522h-2.023v-10.522h-18.393v72.75h-5.828v-19.244h-46.384v-9.416h6.791v-13.635h-25.553v-17.926h-31.355v17.925h-11.215v-32.389h-4.156v32.389h-7.896v13.635h6.862v28.66H16.567V295.842l23.601 24.986h436.314C482.635 286.83 496 266.071 496 266.071c-84.384 0-126.045 0-154.07-.072v-33.094zm39.7 19.608c-1.511-.918-3.04-1.871-4.569-2.789l.485-1.169h.091l3.039 1.529-3.13-7.896 1.764-.549c1.636 3.049 3.382 6.089 5.036 9.129 2.555-.198 5.109-.486 7.627-.755 5.379-.486 10.722-.972 16.046-1.458-.144-.549-.216-1.098-.342-1.727 1.313-1.386 4.551-.972 6.907-1.386 1.044-.144 2.375.073 2.915-.558-10.38-.413-20.004-.413-30.383-.485a10.376 10.376 0 0 1-.216-.756c6.242.072 12.466.072 18.69.126 3.058.082 6.098.082 9.155.082.271-.136.54-.271.81-.423a13.4 13.4 0 0 1 1.511-.271c.306-.207.576-.413.846-.63h.414c.342 0 .611.081.989.081.27.136.611.342.881.477.414 0 .846-.071 1.26-.071.414.206.827.414 1.224.629h27.989c.054.279.054.549.127.756-9.211-.072-18.475-.126-27.703-.207-.107.135-.342.279-.539.352l-2.501.144.558 2.482c16.208-1.376 18.546 13.365 5.811 13.581.072.396.216.818.288 1.313 1.996 0 3.939 0 5.882-.072 3.256-1.664 4.155-.216-.144 1.098l-17.935-.126a25.87 25.87 0 0 0-.54-1.745c-3.543-1.169-5.9-2.339-9.21-4.012-.054-.144-.126-2.015-.126-2.284-1.745-.891-3.472-1.727-5.198-2.627-5.145 0-10.182.063-15.29.063 1.637.972 3.363 1.943 5.036 2.914a6.979 6.979 0 0 0-.485.971c-1.583-.907-3.094-1.735-4.623-2.635-.504 1.385-.918 2.771-1.385 4.146-.414.081-.828.081-1.26.152.089-1.815.126-3.604.198-5.394zm-360.988.953c-1.592-.953-3.121-1.871-4.642-2.771l.567-1.169 3.049 1.457-3.049-7.825 1.663-.549a492.776 492.776 0 0 0 5.118 9.13c2.482-.198 5.046-.486 7.601-.756 5.333-.495 10.676-.971 16.01-1.457-.072-.62-.217-1.178-.298-1.727 1.26-1.395 4.507-.972 6.863-1.395 1.034-.135 2.365.081 2.905-.611-10.38-.423-19.994-.423-30.374-.423-.072-.279-.144-.486-.225-.756 6.224.072 12.475.072 18.69.126 3.049 0 6.106.081 9.155.081a4.27 4.27 0 0 0 .81-.495 38.362 38.362 0 0 0 1.521-.206c.297-.198.566-.405.837-.621h.422c.342 0 .612 0 .953.081.297.135.648.271.99.477.342-.071.755-.071 1.178-.071.423.206.81.413 1.232.629h28.035c0 .207 0 .477.072.756-9.202-.072-18.421-.144-27.622-.207-.197.135-.413.207-.611.352l-2.438.125.495 2.501c16.207-1.386 18.617 13.365 5.801 13.563.153.414.225.837.297 1.26h5.954c3.247-1.674 4.084-.288-.225 1.025l-17.926-.136c-.197-.691-.27-1.105-.539-1.663-3.473-1.17-5.9-2.356-9.147-4.084-.153-.144-.198-1.942-.198-2.284-1.745-.828-3.472-1.727-5.189-2.555H23.051c1.754 1.035 3.4 2.006 5.073 2.977-.153.343-.352.622-.495.963-1.52-.898-3.104-1.727-4.623-2.626-.495 1.385-.908 2.77-1.403 4.146-.396.081-.81.081-1.178.081.072-1.746.144-3.536.217-5.343z" fill="#010101" id="army_x2C__military_x2C__war_x2C__weapon__x2C_navy_x2C__aviation_x2C___ship__x2C_"/><metadata><rdf:RDF xmlns:rdf="http://www.w3.org/1999/02/22-rdf-syntax-ns#" xmlns:rdfs="http://www.w3.org/2000/01/rdf-schema#" xmlns:dc="http://purl.org/dc/elements/1.1/"><rdf:Description about="https://iconscout.com/legal#licenses" dc:title="army,military,war,weapon,navy,aviation,ship" dc:description="army,military,war,weapon,navy,aviation,ship" dc:publisher="Iconscout" dc:date="2018-06-25" dc:format="image/svg+xml" dc:language="en"><dc:creator><rdf:Bag><rdf:li>Ibrandify Icons</rdf:li></rdf:Bag></dc:creator></rdf:Description></rdf:RDF></metadata></svg>