<?xml version="1.0" encoding="UTF-8"?><!DOCTYPE svg PUBLIC "-//W3C//DTD SVG 1.1//EN" "http://www.w3.org/Graphics/SVG/1.1/DTD/svg11.dtd"><svg xmlns="http://www.w3.org/2000/svg" xmlns:xlink="http://www.w3.org/1999/xlink" version="1.1" x="0px" y="0px" width="512px" height="512px" viewBox="0 0 512 512" xml:space="preserve"><path d="M351.215 255.613l.504.692-6.728 4.712-2.572 1.791-.055.566-1.798 1.169-.145.899.27.414-5.811 3.948c.145.692.217 1.447.217 2.149v.136h7.95v16.054h7.555c.899 0 1.799 0 2.698-.071l.072.071c.054 0 .054-.071.125-.071h.846l.054-4.012c0-2.068 1.044-3.939 2.717-4.983v-.962H362.006c.216-.071.342-.278.432-.494l1.044-9.822c0-.207-.072-.342-.216-.485-.072-.072-.216-.145-.414-.198h.126c.288 0 .558-.216.558-.495l.701-6.025a.696.696 0 0 0-.215-.477c-.073-.072-.198-.144-.414-.144h.144c.342-.073.54-.279.54-.549l.557-5.262c.072-.216 0-.342-.125-.495-.072-.135-.216-.207-.432-.207h.161c.271 0 .54-.197.54-.485l.198-1.996h1.601l.216 1.996c0 .288.27.485.558.485l5.325.072-5.199-.072c-.126 0-.342.072-.414.207-.144.153-.216.279-.216.495l.558 5.262c0 .27.288.549.558.549h7.196-7.052a.909.909 0 0 0-.486.144 1.18 1.18 0 0 0-.144.477l.558 6.025c.072.279.342.549.63.549h8.706-8.58a.578.578 0 0 0-.468.217.717.717 0 0 0-.162.413l.917 9.696c.054.342.271.549.612.549h12.609c.126 0 .342 0 .396-.136.162-.144.216-.287.216-.413v-3.399a.548.548 0 0 0-.558-.558h-1.528l.09-10.164h6.152l-.054 10.164h-2.375c-.197 0-.271.071-.414.144-.054.144-.126.278-.126.414v3.399c0 .342.27.62.54.62h6.458c.126 0 .27-.071.414-.207.125.136.269.207.396.207h1.402a.6.6 0 0 0 .469-.207c.071.136.287.207.431.207h2.969v.765h-.684a5.91 5.91 0 0 1 3.111 3.867c10.596-1.942 20.004-4.154 26.372-5.81 12.25-3.256 42.093-8.869 50.871-10.523l-32.325 41.535h.071a3.854 3.854 0 0 0-.611 2.761c.342 3.193 3.868 5.604 5.108 6.449l.899 4.983-266.089-.828H40.136v-.764l-2.914-13.915h.072c-1.106-5.684-2.078-16.135-2.356-19.463h3.813l.072-14.319h2.762l-.072 14.319h4.919v-8.994h.828v8.994h5.198V282.2h3.949l-.072 5.055h14.949l8.032-7.547h13.708c.134 0 .476-.081.692-.27.207-.216.27-.423.27-.701l.072-17.791h10.523l-.072 17.521c0 .271.144.468.279.685.216.206.414.287.693.287h3.876c.486 0 .908-.36.972-.773 1.943-10.037 4.776-19.859 4.839-29.896v-7.412h1.871c.072-1.115.414-2.141.899-3.112l-8.796-5.954.287-.414-.135-.899-1.808-1.188-.063-.558-2.572-1.789-6.709-4.704.485-.701 6.926 4.496 2.563 1.673.477-.071 3.598 2.491 1.529-.207.414-.558.279.216.342-.494 3.049 2.077.279-.342.404.278s.558-.908.972-1.466c.423-.611.765-.198.765-.198l.495.352c.548.342.135.62.135.62l-.764 1.098.764.558.063.558-.351.549 1.259.837c1.035-.558 2.276-.837 3.526-.837 4.425 0 8.032 3.391 8.374 7.69h1.529l-.081 13.077h4.236l.063-17.305h15.785l9.902 17.377h4.704c.558.071.962-.414.962-.972l.072-12.592h-.072v-51.087h26.101v54.756c0 .478.423.972.971.972h.342l.063-7.213h10.739l-.072 7.213h1.106l.072-10.667h9.417l-.072 10.721h1.241l.207-27.27h5.819l-.206 27.27h1.591l.27-36.336h5.891l-.279 36.336h1.592l.216-27.198h5.873l-.207 27.271h4.982v8.455c0 .477.414.971.972.971l25.476.055.685 8.113c.071.548.503.898.971.898l10.253.072 3.671 8.508v4.786l-137.689-.424c-.279 0-.558.136-.764.352l-7.96 9.965 2.5.063 6.709-8.446 155.946.486a.945.945 0 0 0 .972-.971v-6.639l5.685.063v-.135c0-5.892 4.767-10.739 10.595-10.739 3.256 0 6.098 1.466 8.023 3.741l2.572-1.727.341.485.271-.216.414.558 1.528.216 3.598-2.5.486.072 2.554-1.655 6.924-4.506z" fill="#010101" id="army_x2C__military_x2C__war_x2C__weapon__x2C_navy_x2C__aviation_x2C____x2C_ship__x2C_"/><metadata><rdf:RDF xmlns:rdf="http://www.w3.org/1999/02/22-rdf-syntax-ns#" xmlns:rdfs="http://www.w3.org/2000/01/rdf-schema#" xmlns:dc="http://purl.org/dc/elements/1.1/"><rdf:Description about="https://iconscout.com/legal#licenses" dc:title="army,military,war,weapon,navy,aviation,ship" dc:description="army,military,war,weapon,navy,aviation,ship" dc:publisher="Iconscout" dc:date="2018-06-25" dc:format="image/svg+xml" dc:language="en"><dc:creator><rdf:Bag><rdf:li>Ibrandify Icons</rdf:li></rdf:Bag></dc:creator></rdf:Description></rdf:RDF></metadata></svg>