<?xml version="1.0" encoding="UTF-8"?><!DOCTYPE svg PUBLIC "-//W3C//DTD SVG 1.1//EN" "http://www.w3.org/Graphics/SVG/1.1/DTD/svg11.dtd"><svg xmlns="http://www.w3.org/2000/svg" xmlns:xlink="http://www.w3.org/1999/xlink" version="1.1" x="0px" y="0px" width="512px" height="512px" viewBox="0 0 512 512" xml:space="preserve"><path d="M223.754 279.088l233.359.756.071-20.004-8.311-.053-9.084-15.857h-14.372l-.091 15.775h-8.922v7.762c0 .613-.558 1.17-1.169 1.17l-166.992-.557 1.529-1.871c.217-.27.567-.477.909-.477l161.153.549v-5.676l-4.299-9.957h-11.98c-.54 0-1.044-.495-1.115-1.044l-.81-9.561-29.843-.063c-.63 0-1.188-.558-1.188-1.178v-2.762l.072-7.069h-.072V222.396l.072-1.664h-.072v-.827h.072v-1.386l-1.457-7.411h-1.709c-.162 0-.233 0-.342-.135-.09-.072-.09-.135-.09-.279v-2.635l-13.905-.063h-2.841v7.536c0 .216-.216.423-.414.423h-2.356v-7.132h-.414l-7.555-.063h-2.482v7.133h-1.188l.072-7.069h-.414l-7.591-.063h-2.447v7.133h-.071v2.976h-1.602l.072-37.245H314.3l-30.257-.135-9.75-.081-.09 37.461h-.071v4.29l-.072 15.012c0 .63-.468 1.106-1.098 1.106h-8.927l-27.891-.135-27.495-.063-5.388 28.439c-.144.559-.566.9-1.106.9h-4.569c-.27 0-.62-.127-.836-.342-.198-.207-.271-.477-.271-.756v-20.49l-12.321-.071-.072 20.903c0 .279-.081.557-.278.756-.216.215-.612.359-.837.359l-16.055-.072-10.721 10.109 67.627.207-.068.066zm-166.906-15.02a296.33 296.33 0 0 1-6.35-3.814l.692-1.582.045-.072 4.228 2.078-4.272-10.875 2.329-.756c2.365 4.228 4.722 8.445 7.088 12.664 3.517-.342 7.061-.684 10.577-1.033 7.402-.693 14.805-1.395 22.225-2.078a63.578 63.578 0 0 1-.414-2.349c1.718-1.942 6.296-1.395 9.471-1.942 1.476-.207 3.338.135 4.075-.836-14.382-.558-27.738-.558-42.22-.558-.054-.396-.126-.747-.27-1.098 8.652.071 17.314.144 25.967.197 4.227 0 8.437.082 12.664.082.422-.208.764-.424 1.178-.63.692-.136 1.457-.207 2.141-.342.423-.271.765-.549 1.188-.837h.54c.413 0 .836 0 1.321.072.423.216.837.413 1.305.701.566-.071 1.106-.071 1.744-.144.549.278 1.106.549 1.655.827h38.828c.072.423.072.773.145 1.17-12.809-.126-25.553-.207-38.334-.342-.297.135-.566.342-.836.494l-3.4.207.765 3.454c22.432-1.943 25.75 18.555 8.014 18.762.153.621.297 1.242.423 1.871 2.707-.072 5.486-.072 8.167-.072 4.569-2.348 5.756-.342-.198 1.457l-24.914-.215c-.297-.9-.413-1.512-.765-2.348-4.839-1.664-8.112-3.184-12.735-5.604-.145-.217-.225-2.707-.225-3.184-2.411-1.188-4.839-2.357-7.178-3.535H60.313a304.92 304.92 0 0 0 6.935 4.084c-.216.477-.414.898-.639 1.322-2.141-1.188-4.281-2.43-6.494-3.607-.639 1.943-1.25 3.885-1.871 5.738-.558.08-1.106.152-1.672.152.077-2.496.15-4.996.276-7.479zm414.368 17.377v26.721l-21.172 22.424H58.322c-5.558-30.527-17.538-49.145-17.538-49.145 244.575 0 139.833-.207 430.432-.207v.207zm-219.428-62.51l-14.391-.063-.071 17.989 24.761.152-10.299-18.078zm-38.909 2.914v1.997h-3.931l-.071 1.664V236.797l12.241.063v-13.015h-4.228v-7.753h-10.523v4.641h5.405c.622 0 1.107.486 1.107 1.116z" fill="#010101" id="army_x2C__military_x2C__war_x2C__weapon__x2C_navy_x2C__aviation_x2C___ship__x2C__helicopter__x2C_"/><metadata><rdf:RDF xmlns:rdf="http://www.w3.org/1999/02/22-rdf-syntax-ns#" xmlns:rdfs="http://www.w3.org/2000/01/rdf-schema#" xmlns:dc="http://purl.org/dc/elements/1.1/"><rdf:Description about="https://iconscout.com/legal#licenses" dc:title="army,military,war,weapon,navy,aviation,ship,helicopter" dc:description="army,military,war,weapon,navy,aviation,ship,helicopter" dc:publisher="Iconscout" dc:date="2018-06-25" dc:format="image/svg+xml" dc:language="en"><dc:creator><rdf:Bag><rdf:li>Ibrandify Icons</rdf:li></rdf:Bag></dc:creator></rdf:Description></rdf:RDF></metadata></svg>