<?xml version="1.0" encoding="UTF-8"?><!DOCTYPE svg PUBLIC "-//W3C//DTD SVG 1.1//EN" "http://www.w3.org/Graphics/SVG/1.1/DTD/svg11.dtd"><svg xmlns="http://www.w3.org/2000/svg" xmlns:xlink="http://www.w3.org/1999/xlink" version="1.1" x="0px" y="0px" width="512px" height="512px" viewBox="0 0 512 512" xml:space="preserve"><path d="M118.442 383.754h28.521v-2.977h-28.521v2.977zm42.787.135h37.874v-2.977h-37.874v2.977zm-5.119 6.988h48.11v-5.943h-48.11v5.943zm2.492-129.508h43.128v-1.322h-43.128v1.322zm43.127-3.39s-2.779-58.426-17.116-81.479a5.297 5.297 0 0 0-4.497-2.49c-1.799 0-3.445.971-4.426 2.49-14.318 23.053-17.089 81.479-17.089 81.479h43.128zm1.304 121.98c.153 0 .198-.082.198-.152V262.063h-46.158v117.896h45.96zm114.164 4.9h34.061v-2.418h-34.061v2.418zm-4.65 6.018h43.334v-4.838h-43.334v4.838zm34.402-128.4h-25.48v1.258h25.48v-1.258zm0-2.141s-1.304-45.214-9.758-62.933c-.549-1.106-1.655-1.79-2.978-1.79-1.259 0-2.41.684-2.905 1.79-8.508 17.719-9.84 62.933-9.84 62.933h25.481zm1.448 4.082h-28.376v28.17h28.376v-28.17zm4.651 38.406l-4.65-8.365H320.022l-4.569 8.365h37.595zm-36.544 78.789h35.438c1.646 0 3.05-1.385 2.978-3.049l-1.871-74.283h-37.596l-1.952 74.283c-.046 1.665 1.331 3.049 3.003 3.049zm-59.541 1.799h44.297v-3.184h-44.297v3.184zm-5.945 7.465h56.268v-6.295h-56.268v6.295zm45.546-165.025h-34.97v1.241h34.97v-1.241zm.072-2.141s-2.213-47.417-13.923-66.171c-.765-1.321-2.141-2.023-3.615-2.023-1.448 0-2.824.702-3.589 2.023-11.63 18.754-13.914 66.171-13.914 66.171h35.041zm.963 4.084h-36.895v36.623h36.895v-36.623zm5.945 49.557l-5.945-10.855H260.704l-6.026 10.855h48.866zm-47.22 102.103h45.573a4.123 4.123 0 0 0 4.128-4.281l-2.481-96.221h-48.866l-2.428 96.221c-.054 2.357 1.816 4.281 4.074 4.281zm108.704 4.299h28.503v-2.977h-28.503v2.977zm-3.813 7.123h36.129v-5.943h-36.129v5.943zm28.646-192.08h-21.173v1.367h21.173v-1.367zm0-2.086s-1.106-53.642-8.311-73.996a2.364 2.364 0 0 0-2.258-1.592c-1.062 0-1.942.62-2.293 1.592-7.205 20.354-8.312 73.996-8.312 73.996h21.174zm1.259 4.083h-23.682v43.622h23.682v-43.622zm3.859 57.671l-3.858-12.259h-23.682l-3.867 12.259h31.407zm-30.023 121.494h28.647c1.673 0 2.978-1.395 2.978-3.059l-1.602-117.195h-31.407L361.979 376.9c-.072 1.664 1.304 3.059 2.977 3.059zm-151.615 3.795h28.458v-2.977h-28.458v2.977zm-3.859 7.123h36.201v-5.943h-36.201v5.943zM238.201 245.1h-21.173v1.187h21.173V245.1zm0-2.213s-1.106-40.491-8.167-56.357a2.657 2.657 0 0 0-2.429-1.583c-1.106 0-2.068.63-2.482 1.583-7.061 15.866-8.095 56.357-8.095 56.357H238.201zm1.259 4.084h-23.763v31.289h23.763v-31.289zm3.858 43.334l-3.858-10.326h-23.762l-3.805 10.326H243.318zm-30.031 89.654h28.655c1.673 0 2.978-1.395 2.978-3.059l-1.602-85.346h-31.426l-1.574 85.346c-.081 1.664 1.305 3.059 2.969 3.059zm-98.631 4.975v5.943h36.121v-5.943h-36.121zm34.789-76.157h-33.566v1.26h33.566v-1.26zm0-9.685a16.717 16.717 0 0 0-16.747-16.748c-9.264 0-16.819 7.475-16.819 16.748v7.475h33.566v-7.475zm-31.281 80.867H147.116a2.973 2.973 0 0 0 2.977-2.996v-66.314H115.34v66.469c0 1.581 1.304 2.841 2.824 2.841z" fill="#010101" id="army_x2C__military_x2C__war_x2C__weapon__x2C_navy_x2C__aviation_x2C___bullets__x2C_"/><metadata><rdf:RDF xmlns:rdf="http://www.w3.org/1999/02/22-rdf-syntax-ns#" xmlns:rdfs="http://www.w3.org/2000/01/rdf-schema#" xmlns:dc="http://purl.org/dc/elements/1.1/"><rdf:Description about="https://iconscout.com/legal#licenses" dc:title="army,military,war,weapon,navy,aviation,bullets" dc:description="army,military,war,weapon,navy,aviation,bullets" dc:publisher="Iconscout" dc:date="2018-06-25" dc:format="image/svg+xml" dc:language="en"><dc:creator><rdf:Bag><rdf:li>Ibrandify Icons</rdf:li></rdf:Bag></dc:creator></rdf:Description></rdf:RDF></metadata></svg>