<?xml version="1.0" encoding="UTF-8"?><!DOCTYPE svg PUBLIC "-//W3C//DTD SVG 1.1//EN" "http://www.w3.org/Graphics/SVG/1.1/DTD/svg11.dtd"><svg xmlns="http://www.w3.org/2000/svg" xmlns:xlink="http://www.w3.org/1999/xlink" version="1.1" x="0px" y="0px" width="512px" height="512px" viewBox="0 0 512 512" xml:space="preserve"><path d="M198.635 262.118h-.342c-.27-.054-.692-.054-.963-.126-.071-.08-.144-.08-.225-.08-.117-.064-.27-.136-.387-.208h-1.673c-.072 0-.072-.063-.152-.063v-1.467c0-.197 0-.476.08-.611h1.674c.27-.071.458-.071.755-.135.126 0 .342-.072.54-.072h-1.295s-.081-.08-.153-.135v-.836c-.072-.279-.27-.549-.414-.765-.278-.611-.549-1.241-.836-1.87a26.618 26.618 0 0 0-.621-1.242c-.071-.206-.144-.477-.27-.684h2.707c.045.054.045.126.126.126.144.145.27.271.414.352.342.278.611.691 1.034.971.071.063.144.207.297.279.81.611 1.448 1.385 2.213 2.006.27.135.468.404.683.62.082 0 .082.072.127.072.144.135.296.054.422.135.343.145.684.207 1.053.278.611.271 1.376.486 2.068.692 4.3.136 10.794-1.942 14.04.072.226.135.423.271.639.405.071.071.126.144.198.144.225.072.413.072.638.072.469.125.963.125 1.448.278a5.69 5.69 0 0 0 1.035.27c.197.072.351.072.539.153.297.126.639.27.918.396.144.072.341.144.485.217l1.799.206-10.604.072c.081.063.351.135.495.135-.072.071-.414.216-.495.216h-.072V262.81c0 .072-.045.072-.045.153h-.368v.126c-.198.072-.27 0-.27-.126h-.423v.413h-3.391v-.413s.071-.081.144-.081c-6.565-.072-3.886-.135-8.356-.342-.152.207-.422.342-.565.477-.226.145-.423.359-.621.414 0 .08-.342-.055-.414-.055-.494-.144-.98-.287-1.447-.413v-.63c-.838.001-1.531-.071-2.169-.215zm-124.238 3.737v-28.66h-6.791V223.56h7.897v-32.389h4.155v32.389h11.216v-17.925h31.282v17.926H147.753v13.635h-6.764v9.416h46.384v19.244c118.706.072 102.841.216 308.313.216 0 0-13.384 20.759-19.455 54.757H39.914l-23.602-24.986V265.856h58.085zm354.346-3.737h-.297c-.342-.054-.684-.054-.953-.126-.072-.08-.198-.08-.27-.08-.153-.064-.271-.136-.423-.208h-1.673l-.045-.063v-1.467c0-.197-.072-.476 0-.611h1.718c.197-.071.494-.071.692-.135.216 0 .342-.072.566-.072h-1.259c-.072 0-.145-.08-.198-.135v-.836c-.071-.279-.288-.549-.342-.765-.297-.611-.638-1.241-.908-1.87-.144-.414-.423-.828-.567-1.242-.125-.206-.197-.477-.341-.684h2.707c.072.054.144.126.189.126.08.145.224.271.368.352.351.278.692.691 1.034.971.126.063.198.207.351.279.756.611 1.377 1.385 2.213 2.006.188.135.414.404.684.62l.072.072c.152.135.27.054.494.135.271.145.611.207.963.278.684.271 1.447.486 2.141.692 4.227.136 10.739-1.942 13.986.072.197.135.422.271.62.405.072.071.216.144.27.144.216.072.369.072.567.072.485.125.953.125 1.447.278.342.135.765.207 1.106.27.144.072.342.072.494.153.343.126.612.27.954.396a5.9 5.9 0 0 1 .423.217l1.871.206-10.649.072c.072.063.414.135.468.135-.054.071-.351.216-.468.216 0 .198 0 .342-.081.549 0 .072.081.207 0 .27 0 .072 0 .072-.072.153h-.27l-.072.054v.072c-.225.072-.225 0-.27-.126h-.342v.413h-3.472v-.413c.071 0 .144-.081.144-.081-6.584-.072-3.885-.135-8.311-.342a3.337 3.337 0 0 1-.639.477c-.198.145-.342.359-.539.414-.072.08-.414-.055-.495-.055-.486-.144-.953-.287-1.376-.413v-.63a10.414 10.414 0 0 1-2.21-.215zm-38.36 0h-.27c-.351-.054-.693-.054-.963-.126-.144-.08-.225-.08-.297-.08-.116-.064-.27-.136-.387-.208h-1.673l-.081-.063v-1.467c0-.197-.071-.476 0-.611h1.754c.189-.071.459-.071.684-.135.198 0 .342-.072.54-.072h-1.224c-.08 0-.152-.08-.225-.135v-.836c-.072-.279-.27-.549-.342-.765-.27-.611-.62-1.241-.917-1.87-.189-.414-.388-.828-.54-1.242-.144-.206-.216-.477-.342-.684h2.707a3.146 3.146 0 0 0 .54.478c.342.278.692.691 1.034.971.144.063.216.207.297.279.81.611 1.448 1.385 2.284 2.006.198.135.396.404.684.62l.055.072c.144.135.297.054.413.135.351.145.693.207 1.062.278.692.271 1.448.486 2.141.692 4.228.136 10.721-1.942 13.968.072.217.135.414.271.639.405.072.071.198.144.271.144.197.072.341.072.566.072.468.125.962.125 1.448.278.351.135.692.207 1.105.27.127.072.352.072.469.153.368.126.638.27.988.396.117.072.271.144.414.217l1.871.206-10.676.072c.081.063.422.135.494.135-.072.071-.413.216-.494.216 0 .198 0 .342-.072.549 0 .072.072.207 0 .27 0 .072 0 .072-.045.153h-.297l-.054.054v.072c-.216.072-.216 0-.297-.126h-.342v.413h-3.463v-.413c.072 0 .144-.081.144-.081-6.565-.072-3.858-.135-8.311-.342-.197.207-.423.342-.611.477-.225.145-.351.359-.567.414-.054.08-.396-.055-.467-.055-.495-.144-.99-.287-1.376-.413v-.63a10.806 10.806 0 0 1-2.239-.215zm-38.343 0h-.27c-.342-.054-.692-.054-.98-.126-.126-.08-.197-.08-.27-.08-.153-.064-.27-.136-.423-.208h-1.646l-.071-.063v-1.467c0-.197-.072-.476 0-.611h1.718c.225-.071.495-.071.692-.135.217 0 .342-.072.567-.072h-1.26c-.072 0-.126-.08-.197-.135v-.836c-.072-.279-.297-.549-.343-.765-.297-.611-.638-1.241-.908-1.87-.198-.414-.422-.828-.539-1.242-.153-.206-.226-.477-.369-.684h2.698c.081.054.153.126.153.126.126.145.27.271.414.352.351.278.692.691 1.033.971.153.063.198.207.271.279.836.611 1.447 1.385 2.293 2.006.216.135.414.404.611.62.072 0 .145.072.145.072.152.135.27.054.423.135.342.145.684.207 1.034.278.684.271 1.376.486 2.159.692 4.209.136 10.721-1.942 13.968.072.197.135.423.271.62.405.072.071.145.144.288.144.126.072.351.072.549.072.485.125.98.125 1.447.278.343.135.685.207 1.106.27.145.072.297.072.495.153.27.126.611.27.953.396.153.072.297.144.423.217l1.862.206-10.641.072c.072.063.414.135.486.135-.072.071-.414.216-.486.216 0 .198 0 .342-.081.549 0 .072.081.207 0 .27 0 .072 0 .072-.072.153h-.342v.126c-.197.072-.197 0-.27-.126h-.422v.413h-3.392v-.413l.144-.081c-6.583-.072-3.885-.135-8.382-.342-.145.207-.342.342-.54.477-.225.145-.342.359-.566.414-.072.08-.414-.055-.495-.055a30.88 30.88 0 0 0-1.447-.413v-.63a10.218 10.218 0 0 1-2.14-.215zm-38.342 0h-.288c-.351-.054-.692-.054-1.034-.126-.072-.08-.126-.08-.198-.08a3.86 3.86 0 0 1-.422-.208h-1.673c-.073 0-.073-.063-.118-.063v-1.467c0-.197 0-.476.045-.611h1.746c.197-.071.494-.071.692-.135.144 0 .341-.072.539-.072h-1.304s-.072-.08-.145-.135v-.836c-.071-.279-.27-.549-.341-.765-.271-.611-.621-1.241-.892-1.87-.224-.414-.413-.828-.638-1.242-.045-.206-.126-.477-.271-.684h2.708c.071.054.144.126.144.126.126.145.27.271.396.352.342.278.711.691 1.053.971.126.063.197.207.279.279.836.611 1.447 1.385 2.284 2.006.197.135.413.404.611.62.072 0 .152.072.152.072.117.135.271.054.414.135.342.145.692.207 1.035.278.683.271 1.375.486 2.068.692 4.299.136 10.793-1.942 14.067.072.188.135.413.271.611.405.071.071.144.144.27.144.144.072.342.072.566.072.468.125.953.125 1.448.278.351.135.692.207 1.106.27.152.072.27.072.495.153.269.126.611.27.962.396.144.072.27.144.413.217l1.871.206-10.676.072c.071.063.423.135.494.135-.071.071-.423.216-.494.216 0 .198 0 .342-.045.549v.27c0 .072 0 .072-.072.153h-.351v.126c-.216.072-.297 0-.297-.126h-.387v.413h-3.4v-.413s.055-.081.126-.081c-6.565-.072-3.858-.135-8.364-.342-.144.207-.342.342-.566.477-.189.145-.342.359-.54.414-.071.08-.414-.055-.485-.055-.494-.144-.963-.287-1.457-.413v-.63a10.265 10.265 0 0 1-2.137-.215zm-38.36 0h-.27c-.342-.054-.693-.054-1.035-.126-.071-.08-.144-.08-.215-.08-.127-.064-.279-.136-.424-.208h-1.646c-.072 0-.072-.063-.152-.063v-1.467c0-.197 0-.476.08-.611h1.718c.226-.071.495-.071.711-.135.126 0 .351-.072.539-.072h-1.295s-.08-.08-.152-.135v-.836c-.072-.279-.271-.549-.342-.765-.271-.611-.639-1.241-.908-1.87-.198-.414-.423-.828-.621-1.242-.072-.206-.144-.477-.27-.684h2.68c.082.054.153.126.153.126.144.145.27.271.414.352.341.278.692.691 1.034.971.071.063.225.207.27.279.837.611 1.476 1.385 2.285 2.006.225.135.422.404.638.62.081 0 .081.072.127.072.152.135.296.054.422.135.342.145.684.207 1.034.278.711.271 1.395.486 2.087.692 4.281.136 10.793-1.942 14.04.072.226.135.423.271.639.405.054.071.126.144.198.144.197.072.422.072.611.072.495.125.989.125 1.457.278a6.23 6.23 0 0 0 1.053.27c.197.072.351.072.548.153.271.126.639.27.98.396.126.072.27.144.414.217l1.799.206-10.604.072c.081.063.423.135.495.135-.072.071-.414.216-.495.216h-.072V262.81c0 .072-.071.072-.071.153h-.342v.126c-.198.072-.27 0-.27-.126h-.424v.413h-3.391v-.413s.072-.081.145-.081c-6.584-.072-3.886-.135-8.383-.342-.126.207-.342.342-.54.477-.225.145-.342.359-.639.414 0 .08-.351-.055-.396-.055-.494-.144-.98-.287-1.475-.413v-.63a10.201 10.201 0 0 1-2.139-.215zm-38.343 0h-.288c-.351-.054-.692-.054-1.034-.126-.081-.08-.126-.08-.198-.08-.152-.064-.27-.136-.422-.208h-1.674c-.044 0-.044-.063-.116-.063v-1.467c0-.197 0-.476.072-.611h1.718c.197-.071.422-.071.692-.135.144 0 .342-.072.566-.072h-1.331s-.072-.08-.126-.135v-.836c-.072-.279-.288-.549-.414-.765-.296-.611-.566-1.241-.836-1.87-.226-.414-.414-.828-.611-1.242-.082-.206-.153-.477-.297-.684h2.707c.071.054.071.126.144.126.126.145.271.271.423.352.342.278.611.691 1.025.971.081.063.197.207.27.279.837.611 1.457 1.385 2.213 2.006.279.135.494.404.692.62.072 0 .072.072.152.072.145.135.271.054.414.135.342.145.684.207 1.035.278.683.271 1.375.486 2.06.692 4.308.136 10.828-1.942 14.066.072.198.135.423.271.621.405.072.071.144.144.216.144.198.072.423.072.62.072.486.125.954.125 1.448.278.342.135.693.207 1.034.27.226.072.342.072.567.153.27.126.611.27.962.396.145.072.271.144.414.217l1.799.206-10.578.072c.046.063.343.135.468.135-.054.071-.422.216-.468.216h-.071V262.81c0 .072-.081.072-.081.153h-.342v.126c-.216.072-.27 0-.27-.126h-.414v.413h-3.4v-.413s.073-.081.127-.081c-6.566-.072-3.859-.135-8.365-.342-.144.207-.342.342-.566.477-.198.145-.414.359-.611.414 0 .08-.342-.055-.414-.055-.494-.144-.963-.287-1.457-.413v-.63a9.738 9.738 0 0 1-2.141-.215z" fill="#010101" id="army_x2C__military_x2C__war_x2C__weapon__x2C_navy_x2C__aviation_x2C___ship__x2C__aircraft__x2C__carrier"/><metadata><rdf:RDF xmlns:rdf="http://www.w3.org/1999/02/22-rdf-syntax-ns#" xmlns:rdfs="http://www.w3.org/2000/01/rdf-schema#" xmlns:dc="http://purl.org/dc/elements/1.1/"><rdf:Description about="https://iconscout.com/legal#licenses" dc:title="army,military,war,weapon,navy,aviation,ship,aircraft,carrier" dc:description="army,military,war,weapon,navy,aviation,ship,aircraft,carrier" dc:publisher="Iconscout" dc:date="2018-06-25" dc:format="image/svg+xml" dc:language="en"><dc:creator><rdf:Bag><rdf:li>Ibrandify Icons</rdf:li></rdf:Bag></dc:creator></rdf:Description></rdf:RDF></metadata></svg>