<?xml version="1.0" encoding="UTF-8"?><!DOCTYPE svg PUBLIC "-//W3C//DTD SVG 1.1//EN" "http://www.w3.org/Graphics/SVG/1.1/DTD/svg11.dtd"><svg xmlns="http://www.w3.org/2000/svg" xmlns:xlink="http://www.w3.org/1999/xlink" version="1.1" x="0px" y="0px" width="512px" height="512px" viewBox="0 0 512 512" xml:space="preserve"><path d="M481.214 255.343l.144-.692-.684.063H392.333c-.899-.485-2.087-1.52-2.087-3.525v-.972h-.197v-.341h-.414l-.072-1.872c0-.071-.684-4.838-5.324-4.838h-19.393c-.341-.423-.826-.701-1.438-.701-.558 0-1.062.278-1.403.701H351.5v-8.455h-22.02l-.071-.125h24.985v-1.674l1.655-.971s9.696-.063 11.44 0c1.17.071 5.397.413 8.239.701v1.943h1.241v-.486c0 .611.539 1.098 1.241 1.098h20.273a4.447 4.447 0 0 0 3.328-1.457c.145-.126.216-.271.288-.342.342.144.972.216 1.654.216 1.044 0 1.871-.216 1.871-.558 0 .342.684.558 1.529.558.81 0 1.511-.216 1.511-.558v-11.495c0-.342-.701-.558-1.511-.558-.846 0-1.529.216-1.529.558 0-.342-.827-.558-1.871-.558-.683 0-1.24.072-1.583.216-.845-1.188-2.158-1.942-3.688-1.942h-20.273c-.702 0-1.241.558-1.241 1.178v-.351h-1.241v1.799c-2.842.216-7.069.63-8.239.702-1.744.063-11.44 0-11.44 0l-1.655-1.251v-1.25h-9.551c-.217-.755-.899-1.385-1.728-1.385h-1.241v-3.939h.27a.769.769 0 0 0 .773-.756c0-.486-.341-.773-.773-.773h-8.508c-.432 0-.774.287-.774.773 0 .405.343.756.774.756h.27v3.939h-1.241c-.827 0-1.583.63-1.728 1.385h-1.87l-1.313 1.529h-12.466v.692h-2.914v-.692h-11.278v-.899h-4.983v1.241l-.288.071v-.071h-1.241v.278l-1.24.207v-1.727h-5.253v-.63h-1.241v14.481h1.241v-.702h5.253v-1.871l1.24.217v.484h1.241v-.216h.288v1.386h4.983v-.972h11.278v-.683h2.914v.683h2.015v10.254h-36.696v.611h-.63v-.972h.846V240.527h1.996l.558-2.293-.827.216-.557.899h-15.65s-4.286.071-4.349 0c-2.213-2.914-3.814 0-3.814 0h-6.439v.206c-.404 0-.693-.063-.693-.063h-72.609c-.279 0-.756.135-1.106.549h-1.943c-1.385 0-2.284 2.842-2.284 2.842h-5.604v-.765h-2.905v-.413h-14.472-2.689c-1.673 0-2.5.413-3.058 1.871-.477 1.52-1.942 4.641-4.911 4.641h-.485l-1.655.468v.216H74.391v-1.942c0-.486-.342-1.098-.827-2.069-.837-1.601-2.078-4.083-2.078-7.061v-2.149c0-1.385-.413-1.457-1.735-1.457h-4.704c-.558 0-1.106.072-1.106 1.115v13.563H60.2c-.207-.972-.414-1.592-.765-1.592h-1.448c-.278 0-.549.62-.765 1.592H35.005c-.764 0-1.528.342-2.006.899-.135-.485-.548-.899-1.178-.899s-1.179.558-1.179 1.178v3.256c0 .693.549 1.179 1.179 1.179s1.043-.351 1.178-.899a2.722 2.722 0 0 0 2.006.899h22.297c.135.972.405 1.521.684 1.521h1.448c.288 0 .558-.549.765-1.521h9.633l.891 1.457v2.969h2.635l.972-.693-.63-2.42v-1.313h63.625v1.583h2.896v-1.034h6.854v1.034h3.049v-.899h19.455v2.016h.548l.899.826h.972l.765-.691h1.034c0 .898.702 1.385 1.386 1.385h1.735c.342.971 1.106 1.25 1.521 1.25h31.633s12.528-.072 20.839-.072c5.604 0 6.926.072 7.133.072 14.049 3.111 37.241 4.291 37.456 4.291l.612.063v-.971h4.839v-.611h13.581c0 .34.054.826.684.826l.216 3.039s.126.9.972.9c0 0 1.025 7.826.27 15.578-.072.207-.072.414-.144.631h.071c-.197 1.996-.539 3.939-1.115 5.736-.054.217-.125.414-.197.621a10.984 10.984 0 0 1-.558 1.602c-.198 0 26.784 6.359 26.784 6.359h3.328s2.843-9.543 2.626-23.746l1.242.766h1.043v.693l1.942 3.533 1.169.621s-1.438-2.213-1.366-3.184c.054-.971 1.924-1.664 1.924-1.664h.486v-6.432h.071l.559-.557h12.178v.484c.145 0 1.601.072 1.601 1.52v5.047c0 1.602 1.457 5.611 8.023 5.611h7.268c2.986 0 6.241-2.967 6.241-5.738v-2.977c0-1.178-1.187-2.006-2.158-2.697-.63-.352-1.313-.836-1.313-1.18v-.07h1.997v.898c0 .486.359.828.773 1.105.342.352.756.693.756 1.045v4.219c0 .205 0 .971.558 1.592.414.422.972.619 1.654.619h2.572c.954 0 3.382.279 4.3 2.502 1.169 2.625 1.997 11 2.339 14.605.071.477.144.963.144 1.313.198 2.006.972 2.771 2.914 2.771.63 0 1.313-.072 2.212-.145a11.839 11.839 0 0 1 1.728-.135c4.911-.352 11.135-2.635 13.779-4.156 1.241-.764 1.654-1.807 1.996-2.77.504-1.25.846-2.148 2.717-2.563a13.816 13.816 0 0 1 2.068-.135c5.612.063 18.205 1.727 35.581 4.631a444.319 444.319 0 0 0 31.894 4.363l1.871.143h.432v-.619c-.216-13.852.486-25.338 1.241-33.027.608-5.537 1.237-8.649 1.309-8.991zM55.35 251.467H40.537c-.342 0-.54-.279-.54-.621 0-.351.198-.63.54-.63H55.35c.352 0 .558.279.558.63-.001.342-.207.621-.558.621zm114.227-2.006h-19.455v-1.871h14.472v-.278h2.905v-.207h2.419l-.341.485v1.871zm197.697 20.488c.828.621 1.8 1.242 1.8 2.078v2.977c0 2.357-2.915 5.057-5.469 5.057h-7.268c-5.954 0-7.268-3.535-7.268-4.93v-5.047c0-.691-.27-1.178-.629-1.52h11.565c.631.559 1.655 1.727 1.655 3.67 0 2.699.288 4.084-1.655 5.541.072-.072.972.484 1.655-.414.773-.971 1.457-1.385 1.457-4.371 0-2.141-.899-3.742-1.313-4.426h3.885c.201.487.831.971 1.585 1.385zm105.089-2.5v7.898c0 2.141-1.744 3.947-3.886 3.947h-2.771V263.51h2.771c2.142 0 3.886 1.799 3.886 3.939zm-8.94 11.846h-3.256c-2.41 0-3.867-2.078-3.867-3.947v-7.898c0-2.141 1.727-3.939 3.867-3.939h3.256v15.784zm-33.081-17.44h.899v.197c0 .559.414.973.899.973h-1.799v-1.17zm5.253.198c0-.072 0-.135-.071-.197h1.043v1.17h-1.943a.947.947 0 0 0 .971-.973zm-12.664.217c.558.756 1.313 1.654 3.813 1.654h3.598v-.072c3.257 2.572 5.613.217 6.225-.611v11.764c0 1.521 0 3.393-.611 4.84-.702 1.664-2.087 2.428-4.156 2.428h-.629c-2.015-.143-4.155-.414-6.565-.764-4.785-.621-10.668-1.385-18.637-1.385-7.896-.404-8.022-.766-8.508-2.42-.072-.279-.127-.486-.288-.764-.126-.486-.342-1.035-.54-1.592-.827-2.43-1.799-5.189-2.986-7.475-.684-1.385-.629-1.934-.413-3.318v-.361c.144-1.375 1.654-2.967 4.443-2.967h23.313c1.167 0 1.528.414 1.941 1.043zm-98.991-24.439c0-1.664.414-2.221 1.997-2.221h16.567s1.583-.073 1.583 1.528v6.026H323.94v-5.333zm-63.413 2.698l-.271.063c-.135 0-.342-.063-.477-.063h.748z" fill="#010101" id="army_x2C__military_x2C__war_x2C__weapon__x2C_navy_x2C__aviation_x2C___sniper__x2C__gun__x2C_"/><metadata><rdf:RDF xmlns:rdf="http://www.w3.org/1999/02/22-rdf-syntax-ns#" xmlns:rdfs="http://www.w3.org/2000/01/rdf-schema#" xmlns:dc="http://purl.org/dc/elements/1.1/"><rdf:Description about="https://iconscout.com/legal#licenses" dc:title="army,military,war,weapon,navy,aviation,sniper,gun" dc:description="army,military,war,weapon,navy,aviation,sniper,gun" dc:publisher="Iconscout" dc:date="2018-06-25" dc:format="image/svg+xml" dc:language="en"><dc:creator><rdf:Bag><rdf:li>Ibrandify Icons</rdf:li></rdf:Bag></dc:creator></rdf:Description></rdf:RDF></metadata></svg>