<?xml version="1.0" encoding="UTF-8"?><!DOCTYPE svg PUBLIC "-//W3C//DTD SVG 1.1//EN" "http://www.w3.org/Graphics/SVG/1.1/DTD/svg11.dtd"><svg xmlns="http://www.w3.org/2000/svg" xmlns:xlink="http://www.w3.org/1999/xlink" version="1.1" x="0px" y="0px" width="512px" height="512px" viewBox="0 0 512 512" xml:space="preserve"><path d="M478.374 268.743c-.071-3.111-.152-6.089-.197-8.715 0-.145.197-5.126-.144-9.551 0-.63-.081-1.25-.271-1.808-.423-2.006-1.259-2.42-1.673-2.492h-.198c-1.673.207-3.399.414-5.145.558h-.539c-6.026.342-11.63 0-11.63 0v.828c.145.215.27.62.413 1.169h-.413s-2.555-4.012-5.459-4.012h-42.795s-2.978-.126-2.978 2.015v4.29h-14.948v1.035h-7.896s.08.898-.756.773c-.837-.145-1.034-.773-1.034-.773h-.621c-.144-.198-.288-.343-.485-.343h-17.809v.828l-1.916-.414-.071-2.356s.071-.962-.918-.962h.081v-6.926h-11.558c.072.072.271.413.414.621-.342-.621-.963-.972-.963-.972h-.216v-1.17h-.495v-1.87h-4.199v1.592h-2.023v-1.52h-1.673v1.52h-1.224v-8.032h4.271l3.742 1.386h2.779s0-.145.072-.271h.071v-.216h5.189c.271.558.765.486.765.486h17.926s.054-.145.126-.486h2.284c.423.63 1.106.972 1.871.972.989 0 1.799-.558 2.141-1.385.639-1.313 1.062-3.939 1.062-6.988 0-4.021-.765-7.34-1.745-7.763-.423-.342-.891-.477-1.457-.477-.953 0-1.79.549-2.068 1.386h-2.159c0-.145-.054-.352-.126-.549l-6.439.063h-11.414c-.494 0-.765.207-.908.549h-5.046c-.071-.127-.071-.271-.071-.342v-.207h-.072v-.28H347.05l-3.742 1.943h-5.036l-1.179-1.115h-5.261v1.115h-12.395c-.081-.145-.279-.351-.495-.558v-5.054c1.179-1.106 0-2.284 0-2.284h-11.261a1.814 1.814 0 0 0 0 2.284h.072v2.077h-6.521v2.42h-6.224v1.188h-4.227l-15.785-4.029-23.191.08v20.138l23.191-.071 15.785-4.012v.072h4.227v7.475h-.908v-1.106h-1.178v1.106h-2.555v-1.386h-17.018l.045 2.771h7.277l-27.123.072-195.777.134H56.25l-2.068-1.654h-5.756l-2.977 1.934v-.135l-12.736.063c-1.718 4.434 0 9.345 0 9.345h12.736v.071l1.529 1.8h7.474l1.798-1.529 143.908-.063v.063c-.414 2.779 0 14.191 0 14.191l14.688-.071a1.71 1.71 0 0 0-.197.836c0 1.251 1.232 2.222 2.752 2.222 1.529 0 2.707-.971 2.707-2.222 0-.278-.072-.549-.144-.836H275.067l23.043 6.719v11l33.989 3.75v-11.504h1.87l.828 5.964h1.385l-.692-5.964h1.331s2.213 5.137 5.604 5.271l10.038.071s7.321.486 8.778-4.021c0 0 2.212-.692 2.697 2.006.567 2.771 3.328 9.84 3.328 19.464-.081 3.525 13.374 1.438 13.374 1.438s3.445-3.795 11.343-4.074c6.638-.278 8.112-.072 8.157-1.664.297-.071.765-.206 1.529-.144 0 0-.126.972 2.086.486 2.213-.414 14.041-12.251 18.124-12.323h17.512s.423 0 .494.289v3.661s1.179-.207 1.305.414h9.219l2.905 1.735v4.839s-.081.837 1.942.837c2.015-.063 3.814-.279 3.814.692l.539.071 3.661-.144h8.112s5.954 2.698 7.951 2.563c.414 0 .639-.135.711-.351.004.003-1.103-12.94-1.67-27.547zM40.118 249.092h-2.905c-.953-2.428 0-5.612 0-5.612h2.905c1.061 2.905 0 5.612 0 5.612zm267.142-29.564a.501.501 0 0 0-.145.351h-4.623l-.351-.351h5.119zm-47.36 28.799h-5.954l31.916-.054-25.962.054zm71.932-14.057h-28.998v-2.141h4.209v.27s-.054 1.044.756 1.044h11.09s.692.071.692-.899v-.414l12.251-.072v2.212zm18.141 8.58h-.071c0-.063-.072-.197-.072-.27.071.072.071.207.143.27zm9.696 30.112c0 3.058-2.51 5.54-5.486 5.54h-9.615c-3.049 0-5.459-2.482-5.459-5.54v-.828c0-2.968 2.41-5.469 5.459-5.469h6.44c4.425 6.44-1.871 9.283-1.943 9.697-.071.341.962.27.962.27 3.274-1.17 3.958-4.561 3.732-6.917-.188-2.284-1.294-2.977-1.376-3.05h1.728c3.049 0 5.559 2.43 5.559 5.469v.828zm38.414 3.058c-.351 1.025-1.034 2.141-2.096 3.319-1.034.972-1.916 1.447-1.916 1.447s-.368.288-.297.837l-.341.207s-10.38 3.247-15.569-4.641c-5.19-7.96-1.673-12.251 3.67-12.736.683-.216.826-.414.826-1.17h1.602s-.072 1.728 1.106 1.728c1.106 0 6.917.063 6.917.063v.692s5.945 2.636 6.367 7.617c.073.964-.071 1.873-.269 2.637z" fill="#010101" id="army_x2C__military_x2C__war_x2C__weapon__x2C_navy_x2C__aviation_x2C____x2C_sniper__x2C__gun__x2C__rifle__x2C_"/><metadata><rdf:RDF xmlns:rdf="http://www.w3.org/1999/02/22-rdf-syntax-ns#" xmlns:rdfs="http://www.w3.org/2000/01/rdf-schema#" xmlns:dc="http://purl.org/dc/elements/1.1/"><rdf:Description about="https://iconscout.com/legal#licenses" dc:title="army,military,war,weapon,navy,aviation,sniper,gun,rifle" dc:description="army,military,war,weapon,navy,aviation,sniper,gun,rifle" dc:publisher="Iconscout" dc:date="2018-06-25" dc:format="image/svg+xml" dc:language="en"><dc:creator><rdf:Bag><rdf:li>Ibrandify Icons</rdf:li></rdf:Bag></dc:creator></rdf:Description></rdf:RDF></metadata></svg>