<?xml version="1.0" encoding="UTF-8"?><!DOCTYPE svg PUBLIC "-//W3C//DTD SVG 1.1//EN" "http://www.w3.org/Graphics/SVG/1.1/DTD/svg11.dtd"><svg xmlns="http://www.w3.org/2000/svg" xmlns:xlink="http://www.w3.org/1999/xlink" version="1.1" x="0px" y="0px" width="512px" height="512px" viewBox="0 0 512 512" xml:space="preserve"><path d="M474.532 276.049a21.191 21.191 0 0 0-5.81-10.803c-4.084-4.084-9.489-6.377-15.245-6.377l-153.945-.477c-1.034-1.314-2.905-2.707-6.026-3.948l-1.916-22.494-7.087-.072v-13.294h-1.502v13.294h-3.049v-20.759h-1.52v20.759h-3.201V214.43h-1.521v17.448l-12.79-.071h-4.992l-8.463-.072-16.865-.063-2.365 24.374c-3.049.692-5.675 1.376-7.744 2.077l-47.562-.145c-21.253 0-69.912 11.766-89.168 16.604h-4.083l-39.251-.125c-1.727 0-3.103 1.654-3.103 3.732 0 2.076 1.376 3.813 3.103 3.813h11.09l-.072 16.748 25.256.072 4.794-12.125c.126-.342.467-.621.81-.621.072 0 .153.082.225.082.54.135 51.645 12.799 93.153 12.934l277.382.898.072.891v-.891c11.854 0 21.541-9.615 21.541-21.451-.001-.898-.073-1.672-.146-2.49zm-373.241-6.719l-7.205-22.989-20.219-.055-.144 27.685h9.147c.963-.287 8.167-2.151 18.421-4.641z" fill="#010101" id="army_x2C__military_x2C__war_x2C__weapon__x2C_navy_x2C__aviation_x2C___submariine__x2C_"/><metadata><rdf:RDF xmlns:rdf="http://www.w3.org/1999/02/22-rdf-syntax-ns#" xmlns:rdfs="http://www.w3.org/2000/01/rdf-schema#" xmlns:dc="http://purl.org/dc/elements/1.1/"><rdf:Description about="https://iconscout.com/legal#licenses" dc:title="army,military,war,weapon,navy,aviation,submariine" dc:description="army,military,war,weapon,navy,aviation,submariine" dc:publisher="Iconscout" dc:date="2018-06-25" dc:format="image/svg+xml" dc:language="en"><dc:creator><rdf:Bag><rdf:li>Ibrandify Icons</rdf:li></rdf:Bag></dc:creator></rdf:Description></rdf:RDF></metadata></svg>