<?xml version="1.0" encoding="UTF-8"?><!DOCTYPE svg PUBLIC "-//W3C//DTD SVG 1.1//EN" "http://www.w3.org/Graphics/SVG/1.1/DTD/svg11.dtd"><svg xmlns="http://www.w3.org/2000/svg" xmlns:xlink="http://www.w3.org/1999/xlink" version="1.1" x="0px" y="0px" width="512px" height="512px" viewBox="0 0 512 512" xml:space="preserve"><path d="M445.151 203.447v6.791l-110.918 3.319-1.097 1.528h-7.825v3.318s8.167 2.986 8.167 7.133l3.399 2.977s5.937-1.87 6.71 2.978l6.71 3.732s-.342-3.373 4.083-4.146c4.497-.702 4.497 4.146 4.497 4.146h8.239v3.337h3.741l-3.741 7.123s3.327 1.115 4.425 4.084H383.9s15.686 3.741 18.258 13.438H396.6s3.616 6.15 2.789 13.213h11.009c1.582 0 8.58 2.977 9.624 5.404 0-.422.539-1.799 1.798-1.799 1.17 0 4.768 1.178 4.768 0 0-.846 2.554 0 2.554 0v.973l2.627.404c.432 1.178-1.979 3.605-1.979 3.605l-3.543 4.426c1.366 2.068 3.651 5.406 3.957 5.953.342.828-1.062 1.799-2.015 0-.611-1.043-2.015-3.039-3.058-4.496l-7.321 9.273s-.342.279-.846.764l-.954 5.738-2.229-.342v5.189l-1.925.973-2.285 2.555-1.043-.891-2.23 1.096.216.361-5.522 2.904-.306-.494-1.151.629.126.342-5.541 2.914-.197-.486-2.213 1.098.198.424-5.522 2.914-.306-.549-1.907.971.107.27-5.521 2.896-.198-.414-4.228 2.088-2.914 1.51-.072-.053-2.212 1.098v.063l-5.522 2.914-.504-.891h-2.968v1.313h-6.225v-1.313h-2.015v1.313h-6.224v-1.313h-2.015v1.313h-6.297v-1.313h-2.015v1.313h-6.224v-1.313h-2.015v1.313h-6.296v-1.313H318.8v1.313h-6.224v-1.313h-1.997v1.313h-6.242v-1.313h-1.997v1.313h-6.313v-1.313h-1.997v1.313h-6.241v-1.313h-1.997v1.313h-6.296v-1.313h-2.015v1.313h-6.225v-1.313h-2.015v1.313h-6.22v-1.313h-2.015v1.313h-6.295v-1.313h-2.015v1.313h-6.224v-1.313h-2.015v1.313h-6.296v-1.313h-1.997v1.313h-6.242v-1.313h-1.997v1.313h-6.242v-1.313h-2.069v1.313h-6.224v-1.313h-2.015v1.313h-6.224v-1.313h-2.015v1.313h-6.296v-1.313h-2.015v1.313h-6.224v-1.313h-2.015v1.313h-6.296v-1.313h-2.015v1.313h-6.224v-1.313h-1.997v1.313h-6.242v-1.313h-1.997v1.313h-6.314v-2.842l-1.799-1.188-.953 1.25-4.92-3.805.684-.898-1.79-1.098-.962 1.242-4.919-3.877.692-.836-1.799-1.189-1.403 1.674-4.92-3.805 1.062-1.322-1.601-1.043-1.106 1.395-4.92-3.814.764-1.033-.144-.135c-1.304-.342-2.41-.766-3.175-1.18-1.718-.971-4.919-3.453-7.969-6.088l-4.623-3.121c-2.708 0-6.935-.135-8.536-.828-.611 1.115-1.718 1.934-3.319 2.006-.117.082-.27.082-.414.082-1.304 0-2.482-.504-3.247-1.322-.765-.766-1.106-1.809-1.106-2.779 0-1.584.908-3.32 2.779-3.867.611-.217 1.151-.27 1.718-.27 1.259 0 2.365.467 3.049 1.168.692-.898 1.871-1.672 3.669-1.871-.917-1.115-1.529-1.871-1.529-1.871H92.797v-3.184H72.803V273.44h-5.955v-11.629h3.931s.836-2.348 3.049-2.348h25.336v3.795h4.353l1.942-1.924h7.817l-5.19-9.695 3.742-4.497-6.368-3.319 4.839-5.604-4.497-2.636v-8.175h8.58v-2.636h41.463v-2.977h5.217v2.572h7.816v2.275h10.11s1.106-4.146 7.474-4.146 5.613 4.497 5.613 4.497v-5.604h8.922v-33.233h22.135v-2.555h-.045c-.765 0-2.591.271-5.001.684a59.74 59.74 0 0 1-4.497.558l-.27.072h-.072v-.135c.072-1.943-.072-3.535-.153-4.633-.117-.772-.189-1.187-.189-1.259v-.063H225.416c.072-.072.296-.207.296-.549v-.153h.054v-.27s.144-.701.755-.701h2.779c0-.063.072-.063.198-.063.072 0 .153 0 .153.063h1.52v-1.16h3.121-3.535v-.288l-.279-.135h-1.592c-.126 0-.765.071-1.178.135v.288h-.126v-.082c0 .082-.072.136-.225.136h-2.824a.73.73 0 0 1-.495-.198v-.072c-.072.072-.144.072-.198.072-.216 0-.297-.072-.297-.072s-.117.072-.188.072c-.153 0-.225-.072-.225-.072v-1.654s.072-.072.225-.072c.072 0 .188.072.188.072s.081-.072.297-.072c.054 0 .126 0 .198.072.072-.216.27-.288.495-.288h2.824c.153 0 .225.072.225.145v-.072h.126v.27c.413 0 1.052.071 1.178.071h1.592l.279-.125v-.216H232.079c.055-.072.126-.207.27-.207h.126v-.549c-.054 0-.126 0-.126-.072 0-.071.072-.144.126-.144h1.178c.072 0 .153.072.153.144s-.081.072-.153.072v.549h.153c.144 0 .198.135.27.207h.216l.198.216h1.745v.125h.396v-.125h1.601v-.144h.684v.197h.297v.071h.126v-.269h.765v-.072h.144v2.087h-.144v-.145h-.765v-.207h-.126v.063h-.216v-.063l-.081.063v.144h-.684v-.144h-1.601v-.063h-.396v.063h-.288v1.448h5.181v.08h.082v-.144h-.082V178.81h-.342l-.072-.352.144.081.082.063h2.212s.612.071.612 0c.297-.342.566 0 .566 0h.881v.071h10.334s.072 0 .117.072h.297c.197 0 .341.405.341.405h.764v-.136h.424v-.054h2.41c.216 0 .341.054.413.27.072.198.271.621.692.621h.072l.198.063v.072h8.882v-.27c0-.072.072-.145.107-.288.162-.278.306-.62.306-1.043v-.271c0-.207.055-.207.271-.207h.611c.145 0 .216 0 .216.136v1.942h.468c.072-.135.072-.207.162-.207h.198s.071.072.071.207h3.184c.072 0 .198.072.271.135 0-.063.072-.135.162-.135.035 0 .107.072.107.135v.495c0 .054-.072.135-.107.135-.09 0-.162 0-.162-.135-.072.135-.198.135-.271.135h-3.184c0 .135-.071.207-.071.207h-.194c-.09 0-.09-.072-.162-.207h-1.295l-.144.207v.414h-.343l-.125-.073.035-.341v-.207h-8.989v.207h-.342v-.135h-.962v.135h-.495v-.072h-2.708v.288h-.044l-.145.054h-.152l-.126-.054h-.144c0 .125-.072.198-.197.198h-.216c-.081.144-.125.144-.198.144h-4.434-3.957c-1.988.477-5.262.629-5.333.629h-.045v-.152h-.72v-.063h-1.844c0 .063 0 .135-.144.135v.423s0 .125-.152.125c-.118.828-.073 3.257 0 5.541h43.833v-2.555h17.161v2.555l11.549 6.368v-4.084h1.528s2.986-4.155 6.296-3.741c3.4.351 5.271 4.083 1.871 8.166l7.483 6.026h5.253v2.213l111.258.346zm-218.205-15.29h7.771c-.072-1.583-.225-3.112-.153-4.642l-.216.145h-.125v.072l-.27.558-.144.071s.198-.351.144-.495c0-.134-.225-.206-.225-.206h-.072v-.9h-.045l-.072-.063h-1.754v.063s-.189 0-.189.206v.693c0 .206-.225.827-1.115.827h-1.025c-.422 0-.917-.414-.917-.827v-.414c0-.206.225-.279.351-.414.072 0 .216-.071.216-.135h-.342v.135c0 .063 0 .063-.072.135-.072.073-.153.073-.153.136v.63s0 .134-.072.206c-.072.072-.117.072-.198.072h-.342c-.144 0-.495.063-.639.351-.125.396-.269 1.583-.341 2.068v1.728zm45.911-7.825h2.068c.072 0 .072 0 .072-.054 0-.072 0-.072-.072-.072h-2.068s-.072 0-.072.072c0 .054.072.054.072.054zm-16.086-.269h2.708V179.784h-2.411v-.063h-.341l.044.063v.279zm-27.81 2.904c-.144.073-.27.136-.27.279v.414c0 .351.414.701.765.701h1.025c.836 0 1.034-.495 1.034-.701v-.693c0-.071 0-.206.081-.206h-1.673c-.081.071-.198.206-.198.485 0 .414 0 .62.27.827-.072-.063-.152.072-.27-.063-.072-.145-.225-.207-.225-.62 0-.351.153-.559.225-.63h-.567c.001.072-.125.136-.197.207zm-14.805-.351v1.116c0 .278.198.558.54.558h.341v-2.222h-.341c-.342 0-.54.206-.54.548zm1.233 1.674h.486c.351 0 .54-.352.54-.558v-1.116a.537.537 0 0 0-.54-.548h-.486v2.222zm4.641-2.501h-.072v.072c0 .072-.072.135-.144.135h.216v-.207zm-.684.072v-.072h-.144v.207h.27c-.081 0-.126-.062-.126-.135zm1.718 0c-.072.135-.144.207-.485.207h-.549c-.414.351-.756.08-.828-.072v1.664c0 .206 0 .485.072.701.072.198.27.342.54.342h.144c.27-.072.539-.072.908-.144.692-.072 1.502-.198 2.635-.198 1.106-.071 1.106-.071 1.151-.351l.081-.072c0-.072.072-.135.072-.206.144-.342.27-.766.414-1.116.081-.125.081-.197.081-.413v-.055c0-.215-.225-.422-.647-.422h-3.319c-.117.001-.189.063-.27.135zm13.995-3.471c0-.198-.072-.271-.297-.271h-2.338s-.216 0-.216.216v.819h2.851v-.764zm8.932.423h.072-.072zm-117.627 84.041c.342-.279.755-.494 1.106-.764h-13.131v.764h12.025zm89.511 66.728v.963h1.187c-.423-.342-.837-.613-1.187-.963zm17.736.691a1.486 1.486 0 0 0-.369.271h.369v-.271zm136.78-4.775l.126.199 1.025-.549-.468-.963c-.216.487-.414.899-.683 1.313zm28.853-10.307l-.81-1.602v-.828c-.378.064-.72.145-.989.199-.773.07-1.457 0-2.069-.055l.612.549 1.188.693.827 1.654 1.241-.61zm-22.216 5.666l.882 1.654 1.061-.549-.827-1.664 1.025-.547 1.457 1.25 1.169.764.918 1.664 1.87-.971-.772-1.457v-1.521l-.145-1.734.972-.486.827 1.664 1.115-.549-.899-1.664 1.115-.549 1.457 1.242 1.169.756.774 1.527 2.212-1.105-.773-1.602-.071-1.447-.072-1.736.917-.549.882 1.656 1.062-.559-.846-1.654.342-.135c-2.896-.891-4.767-2.762-4.767-2.762s-5.181 2.338-10.056 3.939c-1.151.414-3.742.898-7.178 1.457.27 1.098.414 2.213.414 3.318 0 1.664-.288 3.184-.756 4.561l.27-.135 1.439 1.25 1.188.756 1.097 2.014 1.602-.764-.827-1.592-.072-1.529-.072-1.727.897-.485zm-7.123 8.94l-1.043-2.014v-.072c-.631.621-1.242 1.25-1.943 1.799l.701 1.395 2.285-1.108zm-8.472 2.689l-.198-.27c-.342.063-.684.135-1.097.135v.135h1.295zm-7.52 0v-.691a11.886 11.886 0 0 1-2.626-1.17l.611 1.043v.818h2.015zm-24.788 0v-.891l.684-1.322.702-1.592h1.025v1.863h1.259v-1.863h1.169l.702 1.799.683 1.188v.818h2.015v-.891l.685-1.322.701-1.592h1.098v1.863h1.187v-1.863h1.241l.702 1.799.684 1.188v.818h2.015v-.891l.684-1.322.701-1.592h1.025v1.863h1.26v-1.305a14.004 14.004 0 0 1-5.001-10.73v-.422c-4.012.287-7.663.422-10.793.422 0 5.189-2.824 9.758-7.052 12.115l.611 1.043v.818h2.013zm-8.311-.07c-.414.07-.846.07-1.224.07h1.224v-.07zm-1.223.07h-.791.791zm-23.565 0v-.891l.72-1.322.684-1.592h1.097v1.863h1.188v-1.863h1.188l.737 1.799.701 1.188v.818h1.997v-.891l.684-1.322.72-1.592h1.025v1.863h1.187v-1.863h1.224l.702 1.799.701 1.188v.818h1.997v-.891l.342-.773c-4.354-2.338-7.321-6.998-7.321-12.313h-4.785c0 5.314-2.914 9.902-7.268 12.313l.485.846v.818h1.995zm-8.238 0h-.953.953zm-.953 0h-1.044 1.044zm-15.579 0v-.891l.684-1.322.702-1.592h1.097v1.863h1.188v-1.863h1.17l.701 1.799.684 1.188v.818h2.015v-.891l.468-.898a13.97 13.97 0 0 1-7.105-12.188h-3.202c0 4.002-1.673 7.609-4.354 10.172h.126v1.863h1.188v-1.863h1.26l.683 1.799.684 1.188v.818h2.011zm-8.235 0v-.891l.685-1.322.152-.422c-.908.693-1.87 1.26-2.977 1.664l.125.152v.818h2.015zm-8.31 0a22.266 22.266 0 0 1-2.015-.27v.27h2.015zm-16.549 0v-.891l.683-1.322.711-1.592h1.106v1.863h1.16v-1.863h1.25l.693 1.799.692 1.188v.818h2.015v-.891l.684-1.322.225-.547c-3.472-2.5-5.684-6.584-5.684-11.217h-2.626c0 .207.072.342.072.477 0 3.949-1.601 7.555-4.155 10.109l.467 1.385.711 1.188v.818h1.996zm-8.239-.207c-.27.072-.549.137-.765.207h.765v-.207zm-8.778.207c-.495-.135-.99-.27-1.529-.477v.477h1.529zm-15.992 0v-.891l.693-1.322.683-1.592h1.035v1.863h1.259v-1.863h1.178l.684 1.799.692 1.188v.818h2.015v-.891l.693-1.322.684-1.592h.126a14.164 14.164 0 0 1-3.715-9.408v-.764h-2.851c0 .207.072.342.072.477 0 4.785-2.357 9.004-5.954 11.559l.692 1.123v.818h2.014zm-16.549 0v-.611c-1.035-.494-2.015-1.053-2.851-1.734l.144.34.692 1.188v.818h2.015zm-8.311 0v-.891l.765-1.322.684-1.592h1.034v1.863h1.178v-1.863h.225c-2.285-2.49-3.742-5.746-3.742-9.408v-.764h-2.428v.477c.072 3.742-1.385 7.133-3.742 9.695h.27v1.863h1.178v-1.863h1.188l.684 1.799.692 1.188v.818h2.014zm-8.238 0v-.891l.683-1.322.153-.342c-.836.766-1.798 1.314-2.833 1.791v.764h1.997z" fill="#010101" id="army_x2C__military_x2C__war_x2C__weapon__x2C_navy_x2C__aviation_x2C___tank__x2C_"/><metadata><rdf:RDF xmlns:rdf="http://www.w3.org/1999/02/22-rdf-syntax-ns#" xmlns:rdfs="http://www.w3.org/2000/01/rdf-schema#" xmlns:dc="http://purl.org/dc/elements/1.1/"><rdf:Description about="https://iconscout.com/legal#licenses" dc:title="army,military,war,weapon,navy,aviation,tank" dc:description="army,military,war,weapon,navy,aviation,tank" dc:publisher="Iconscout" dc:date="2018-06-25" dc:format="image/svg+xml" dc:language="en"><dc:creator><rdf:Bag><rdf:li>Ibrandify Icons</rdf:li></rdf:Bag></dc:creator></rdf:Description></rdf:RDF></metadata></svg>