<?xml version="1.0" encoding="UTF-8"?><!DOCTYPE svg PUBLIC "-//W3C//DTD SVG 1.1//EN" "http://www.w3.org/Graphics/SVG/1.1/DTD/svg11.dtd"><svg xmlns="http://www.w3.org/2000/svg" xmlns:xlink="http://www.w3.org/1999/xlink" version="1.1" x="0px" y="0px" width="512px" height="512px" viewBox="0 0 512 512" xml:space="preserve"><path d="M60.861 206.152c0 3.04.98 5.469 2.167 5.469h15.218v.072c0 5.18 9.687 3.939 9.687 3.939v-4.011h5.118c.144.62.342 1.169.566 1.727h10.452v-1.654h4.011l11.359-.072-.144.755 2.131 3.526c.72 4.991 7.825 4.299 13.582 4.991l47.831 4.291c19.455 1.943 38.9 3.885 58.849 5.81 0 .072.072.072.072.145.054.27.198.485.27.827 0 0 .072-.063.198-.063.072.063.072.063.144.135l-.612 6.584-1.601 1.241-.341 1.385 2.751.972c-.197 1.169-.341 1.87-.341 1.87s-8.095 48.443-37.92 100.16c0 0-.765 1.313 1.305 2.563 2.086 1.178 13.5 8.509 15.928 9.687 2.411 1.251 4.012-.827 4.012-.827 29.762-51.717 37.92-100.16 37.92-100.16l2.168-4.506 3.318.549c1.178.216 2.212.351 2.636.413.611 4.228 1.789 11.981 2.481 12.809.954 1.043 1.376-.478 1.376-.478l-.692-12.043H283.566c1.106 1.106 2.284 2.771 3.104 5.118 2.158 6.296 5.063 14.472 6.862 18.483 1.789 4.011 5.181 5.675 15.02 5.675h15.983c5.54 0 4.848-4.362 11.144-4.704 6.297-.351 7.402 2.141 7.825 3.04.342.827-6.224-14.256-6.224-14.256l-.693 4.982-11.09 6.791h-19.841c-5.981 0-8.319-1.259-10.335-6.791-1.987-5.604-3.462-9.687-5.036-15.785-.297-1.042-.351-1.87-.225-2.554h20.776c13.015 11.009-1.592 22.288 1.304 22.432 2.86.126 6.251-2.572 8.167-6.728 1.943-4.209 1.179-12.106 1.179-13.42 0-1.321 1.187-2.284 1.187-2.284h14.266c8.238 0 11.288-.216 13.968-2.428l25.967 57.454.683 10.73c7.133 1.448 20.714-7.816 24.303-11.423 4.992-2.905 8.581-4.991 12.889-8.58v-3.599l-28.602-45.698c-4.506-8.995-1.457-13.636.414-16.532h12.124c3.589.136 6.565-3.327 6.565-1.25 0 2.078 1.602 1.52 2.636 0 .684-1.034 5.531-8.58 8.58-13.501.072 0 .072-.071.072-.134h.198c3.049 0 0 3.876-2.824 6.439-2.86 2.491-4.354 7.475 2.141 8.373 6.439.9 7.052-2.148 7.052-6.161v-12.673h-8.654v-1.313h7.771c.197.413.27.692.27.692 15.371 0 14.948 38.973 19.374 46.797 4.434 7.825 11.71 3.463 8.463-2.986-7.618-24.212-2.438-57.445-2.438-57.445s1.602-3.67-12.511-3.67c-3.049 0-6.593.485-10.819.485-2.069 0-3.328.692-4.084 1.861v-.683h-2.294v-4.641s-5.729-8.374-7.941-12.106c-2.213-3.742-3.534-3.958-7.402-3.958h-23.412l-.116.144h-5.217v-2.212-4.642c0-4.011-3.247-7.267-7.331-7.267h-6.098a.946.946 0 0 0 0-.63c0-1.583-.963-2.141-.963-2.141-7.275 1.179-14.336 5.954-14.336 5.954l1.403 3.256h1.375v.063l1.728 5.406v.072l-2.141 2.14H233.155l-15.002 1.655h-47.706c-.621-2.626-3.517-4.56-7.132-4.56-3.517 0-6.494 1.934-7.132 4.56h-28.035l-1.871.972H106.012v-6.854c2.339-8.023 0-16.819 0-16.819-4.794-.693-8.239 0-8.239 0-5.333 6.854-4.155 16.819-4.155 16.819v6.854h.27s-3.175 6.026-.27 13.365v5.883s-.342.827-.692 2.356h-4.992v-3.257s-8.724-1.105-9.615 3.257h-15.29c-1.187.004-2.168 2.431-2.168 5.471zm296.018-40.357c0 .892-.764 1.728-1.744 1.728-.963 0-1.728-.836-1.728-1.728 0-.971.765-1.735 1.728-1.735.98 0 1.744.764 1.744 1.735zm-249.832 25.751H108c-.117 1.241-.189 4.425.989 6.782h-1.942v-6.782z" fill="#010101" id="army_x2C__military_x2C__war_x2C__weapon__x2C_navy_x2C__aviation_x2C__mp3__x2C__gun__x2C_"/><metadata><rdf:RDF xmlns:rdf="http://www.w3.org/1999/02/22-rdf-syntax-ns#" xmlns:rdfs="http://www.w3.org/2000/01/rdf-schema#" xmlns:dc="http://purl.org/dc/elements/1.1/"><rdf:Description about="https://iconscout.com/legal#licenses" dc:title="army,military,war,weapon,navy,aviation,mp,gun" dc:description="army,military,war,weapon,navy,aviation,mp,gun" dc:publisher="Iconscout" dc:date="2018-06-25" dc:format="image/svg+xml" dc:language="en"><dc:creator><rdf:Bag><rdf:li>Ibrandify Icons</rdf:li></rdf:Bag></dc:creator></rdf:Description></rdf:RDF></metadata></svg>