<?xml version="1.0" encoding="UTF-8"?><!DOCTYPE svg PUBLIC "-//W3C//DTD SVG 1.1//EN" "http://www.w3.org/Graphics/SVG/1.1/DTD/svg11.dtd"><svg xmlns="http://www.w3.org/2000/svg" xmlns:xlink="http://www.w3.org/1999/xlink" version="1.1" x="0px" y="0px" width="512px" height="512px" viewBox="0 0 512 512" xml:space="preserve"><g fill="#010101" id="army_x2C__military_x2C__war_x2C__weapon__x2C_navy_x2C__aviation_x2C__gun_x2C__machine__x2C_"><path d="M165.057 247.768h9.354v-2.284h.135c.063-.135.063-.206.063-.278 0-1.034-.692-1.871-1.448-1.871h.414v-1.169h.477c.288 0 .558-.549.558-1.179 0-.684-.27-1.241-.558-1.241h-7.259c-.279 0-.485.558-.485 1.241 0 .63.207 1.179.485 1.179h.486v1.169h-59.326v-1.169h.341c.289 0 .558-.549.558-1.179 0-.684-.269-1.241-.558-1.241h-7.267c-.27 0-.477.558-.477 1.241 0 .63.207 1.179.477 1.179h.558v1.169h-.63c-.692 0-1.304.702-1.375 1.601-.072.136-.072.207-.072.271 0 .072 0 .144.072.278.207 1.313.764 2.284 1.375 2.284h9.552v-2.284h.423v5.325l6.017 2.636c-.621-.622-1.313-1.323-1.313-1.323l1.313 1.323c2.698 2.706 1.385 8.104 1.385 12.812-1.385 16.747-2.006 26.155.621 42.903l1.187.287v3.04c0 .756 3.103 1.385 6.845 1.385 3.813 0 6.854-.629 6.854-1.385v-3.184c.207-.063.414-.063.558-.144 2.698-9.337 2.006-22.145 2.006-32.875-1.313-16.742-4.632-23.462 6.089-25.476v-5.325h1.664v2.284h9.417v-2.284h1.655v2.284h7.618v-2.284h2.212v2.284z"/><path d="M462.995 207.474h-97.604v-2.761c0-1.79-1.098-3.391-2.699-4.012v-6.17c0-.818-.27-1.305-1.115-1.592v-.827a2.625 2.625 0 0 0-2.626-2.636c-1.439 0-2.555 1.178-2.555 2.636v.485h-2.158c0-.485-.414-.972-.972-.972-.396 0-.756.342-.899.692-.342-1.664-1.583-5.873-5.036-5.873h-12.179c-4.659 0-6.098 2.627-6.098 6.638h-1.116v-2.086-4.426c-.071-3.813-3.111-6.925-6.979-6.925h-5.756v-.549c0-1.521-.899-2.078-.899-2.078-6.926 1.106-13.635 5.685-13.635 5.685l1.385 3.111h1.241l1.673 5.182-2.015 2.086h-9.481V190.943l-3.382-2.213v-1.26h-10.883v1.188h-2.626v-1.188h-10.937v1.188h-2.641v-1.188h-10.927v1.188h-2.563v-1.188h-10.937v1.188h-.836v-5.685H264.668l5.887-2.698h4.155c.271.423.63.692.899.692h3.328c1.385 0 2.555-5.055 2.555-11.27 0-6.18-1.17-11.233-2.555-11.233h-3.328c-.27 0-.629.206-.899.701h-4.839v-10.793l-1.385-2.995h-7.901v3.185l-1.241-3.185h-25.202l-1.52 3.185v.08c0-1.799-1.178-3.265-2.555-3.265-1.394 0-2.572 1.466-2.572 3.265v2.285h-15.227v5.478h-.891v2.761h-1.394c-.414-1.592-.899-2.555-1.448-2.555h-3.319c-.494 0-.917.692-1.322 1.854h-2.15c-.765-2.482-1.655-4.002-2.761-4.002h-5.342c-2.276 0-4.083 6.916-4.083 15.505 0 8.581 1.808 15.578 4.083 15.578h5.342c.836 0 1.592-.971 2.285-2.572h2.626v-1.529c.405 1.26.828 1.943 1.322 1.943h3.319c.413 0 .765-.549 1.106-1.448h1.736v1.034h.891v4.497h-.828v1.188h-3.462v-1.043h-10.029v1.043h-3.957v4.497l-13.915 1.448h-45.196c-.629-2.42-3.399-4.29-6.79-4.29-3.382 0-6.161 1.87-6.71 4.29h-26.65l-1.736.972H73.757v-6.503c2.213-7.682 0-15.92 0-15.92-4.578-.693-7.825 0-7.825 0-5.055 6.439-3.939 15.92-3.939 15.92v6.503h.279s-3.049 5.684-.279 12.601v5.612s-.216.558-.486 1.583H39.633c-.909 0-1.601 2.284-1.601 5.189 0 2.915.692 5.19 1.601 5.19h21.73c.144.764.341 1.528.629 2.284h6.638c.414 6.313 2.015 11.566 5.963 11.566H194.478v-.773c2.078.288 5.262.971 7.69 2.995l-1.053 10.172-1.511 1.17-.351 1.321 1.52.549c-.477 2.771-.818 4.641-.818 4.641s-7.762 45.957-36.004 94.976c0 0-.755 1.241 1.25 2.419 1.934 1.106 12.799 8.032 15.092 9.211 2.285 1.106 3.805-.837 3.805-.837 28.251-49.019 35.995-94.907 35.995-94.907l2.554-5.464-1.313-.477.558-2.572 2.969.971v-.063c.081.063.152.063.152.135l-.152.621 3.399.549c1.106.206 2.078.359 2.492.422.558 4.007 1.736 11.355 2.365 12.102.899.972 1.304-.404 1.304-.404l-.621-11.418h8.239c1.106 1.029 2.212 2.631 2.977 4.843 2.078 5.954 4.776 13.708 6.503 17.503 1.736 3.814 4.983 5.396 14.25 5.396h15.165c5.27 0 4.568-4.137 10.595-4.497 2.141-.135 3.67.145 4.713.558 6.926 15.443 14.318 34.682 18.744 45.276 5.685-3.453 10.253-5.054 16.063-9.407 5.127-3.399 10.325-6.584 15.452-10.047v-3.391c-7.339-9.201-36.408-50.74-25.903-60.706 3.399-1.241 6.655-1.736 8.526-1.871 3.526-.271 4.768-2.842 4.983-3.391h13.49c.612 0 1.242-.063 1.8-.135h1.043v-.217c.899-.341 1.583-.89 1.871-1.924v.684h4.083c0 .846 1.115 1.457 2.555 1.457 1.457 0 2.626-.611 2.626-1.457h7.411c3.13 0 2.843-2.843 2.843-2.843v-8.095h-4.642v-1.583h4.371c5.954 0 7.321 3.454 11.765 6.152 4.426 2.636 61.736 44.094 69.417 49.14 7.771 4.983 16.622 7.556 19.122 2.087 2.555-5.396-5.396-33.921 1.583-67.488 2.071-13.708-2.139-13.51-10.45-13.51zm-386.531.422h-1.736v-.477l1.736-.072v.549zm215.892 74.415l-10.522 6.431h-18.83c-5.666 0-7.878-1.169-9.749-6.431-1.871-5.333-3.256-9.21-4.785-14.957-.279-.972-.342-1.8-.207-2.415h19.665c12.321 10.375-1.458 21.104 1.241 21.249 2.698.126 5.882-2.429 7.753-6.368 1.87-3.957 1.115-11.495 1.115-12.745 0-1.241 1.097-2.136 1.097-2.136h2.015c1.583.688 3.04 1.371 4.282 2.631 2.015 2.761 4.442 7.474 7.141 13.077l-.216 1.664zm17.576-97.736c-.882 0-1.655-.765-1.655-1.664s.773-1.593 1.655-1.593c.918 0 1.673.693 1.673 1.593s-.755 1.664-1.673 1.664zM446.32 254.91c0 .899 0 2.761-.288 3.525-.342-.072-1.169-.359-2.627-1.313-10.108-7.213-30.67-21.478-30.886-21.604l-.054-.072c-4.228-2.771-5.001-4.704-4.839-5.325.197-.629 1.655-1.385 3.454-1.385h29.969c1.24 0 3.885 0 4.568.486.216.27.702 1.097.702 4.361v21.327z"/></g><metadata><rdf:RDF xmlns:rdf="http://www.w3.org/1999/02/22-rdf-syntax-ns#" xmlns:rdfs="http://www.w3.org/2000/01/rdf-schema#" xmlns:dc="http://purl.org/dc/elements/1.1/"><rdf:Description about="https://iconscout.com/legal#licenses" dc:title="army,military,war,weapon,navy,aviation,gun,machine" dc:description="army,military,war,weapon,navy,aviation,gun,machine" dc:publisher="Iconscout" dc:date="2018-06-25" dc:format="image/svg+xml" dc:language="en"><dc:creator><rdf:Bag><rdf:li>Ibrandify Icons</rdf:li></rdf:Bag></dc:creator></rdf:Description></rdf:RDF></metadata></svg>