<?xml version="1.0" encoding="UTF-8"?><!DOCTYPE svg PUBLIC "-//W3C//DTD SVG 1.1//EN" "http://www.w3.org/Graphics/SVG/1.1/DTD/svg11.dtd"><svg xmlns="http://www.w3.org/2000/svg" xmlns:xlink="http://www.w3.org/1999/xlink" version="1.1" x="0px" y="0px" width="512px" height="512px" viewBox="0 0 512 512" xml:space="preserve"><path d="M37.672 233.825v12.53l2.086 2.347h9.885l2.491-2.006h48.938c-.468 3.742 0 18.906 0 18.906l19.599-.072c-.144.352-.27.756-.27 1.098 0 1.673 1.646 2.986 3.661 2.986 2.024 0 3.67-1.313 3.67-2.986 0-.342-.081-.746-.27-1.098h73.501l30.742 8.94v14.732l45.416 4.929v-15.308h2.482l1.044 7.96h1.87l-.881-7.96h1.78s2.915 6.854 7.483 6.988l13.348.081s9.768.684 11.71-5.343c0 0 2.896-.899 3.598 2.771.685 3.598 4.426 13.023 4.426 25.813-.072 4.785 17.845 2.015 17.845 2.015s4.587-5.055 15.183-5.469c8.778-.351 10.721-.072 10.864-2.149.342-.207.954-.342 1.943-.27 0 0-.145 1.321 2.824.692 2.913-.559 18.689-16.343 24.158-16.406 5.415-.071 23.402 0 23.402 0s.54-.071.612.271v.342c0 1.188.09 4.578.09 4.578s1.511-.207 1.637.621h12.34l3.796 2.284v6.367s0 1.179 2.698 1.179c2.717-.081 5.001-.352 5.073.891l.684.081 4.929-.136h10.793s7.933 3.589 10.649 3.382c.485 0 .827-.135.827-.413 0 0-1.367-17.305-2.141-36.76-.144-4.146-.216-8.167-.342-11.692 0-.135.27-6.791-.145-12.664 0-.908-.144-1.664-.342-2.365-.611-2.689-1.727-3.238-2.212-3.392H468.804c-2.177.352-4.516.549-6.8.702-.216 0-.27.063-.413.063h-.27c-8.112.485-15.596 0-15.596 0v1.106c.233.278.432.836.647 1.52h-.647s-3.364-5.324-7.249-5.324H381.418s-4.012-.207-4.012 2.698V246.641h-19.859v1.367H346.97s.071 1.188-1.025.972c-1.133-.198-1.331-.972-1.331-.972h-.917c-.127-.27-.271-.549-.612-.549l-23.69.081v1.098l-2.681-.549v-3.185s.054-1.25-1.169-1.25h.071v-.351c.81-1.511 2.267-5.324-.413-10.028h-35.167v-2.563h-2.788v-.764h-7.196v.764h-2.41v-.837h-.575v-3.184h.647v-.756h1.169c.27.621.54 1.044.81 1.044h2.374c.343 0 .611-.495.899-1.322v1.034h1.925c.414 1.106.99 1.808 1.602 1.808h3.741c1.673 0 2.969-4.92 2.969-11.018 0-6.08-1.296-11.063-2.969-11.063h-3.741c-.773 0-1.457 1.097-1.997 2.842h-1.529v.054c-.288-.899-.557-1.376-.899-1.376h-2.374c-.414 0-.756.692-1.025 1.871h-.953v-2.016h-.647V203.917h-10.87v-1.583c0-1.26-.738-2.284-1.791-2.284-.962 0-1.798 1.024-1.798 2.284v-.071l-1.106-2.213H233.65l-.908 2.213v-2.213h-5.613l-1.025 2.068V209.809H222.704c-.198-.352-.414-.549-.611-.549h-2.365c-1.026 0-1.791 3.579-1.791 8.022 0 4.426.765 7.96 1.791 7.96h2.365c.198 0 .414-.135.611-.477h2.978l4.155 1.925H248.951v4.021h-.567v-.837h-7.744v.837h-1.871v-.837h-7.753v.837h-1.862v-.837h-7.753v.837h-1.862v-.837h-7.771v.899l-2.338 1.529v.972h-37.182c.072.072.072.072.072.126l-118.167.072h-2.068l-2.779-2.213h-7.672l-3.962 2.566zm305.34 30.662c.899-.198 1.098-.549 1.098-1.521h2.177s-.162 2.294 1.367 2.294 9.282.072 9.282.072v.953s8.041 3.472 8.509 10.182a11.145 11.145 0 0 1-.343 3.453 14.502 14.502 0 0 1-2.77 4.443c-1.403 1.313-2.627 1.997-2.627 1.997s-.485.288-.342 1.043l-.485.279s-13.852 4.361-20.794-6.233c-6.908-10.585-2.213-16.269 4.928-16.962zm-56.61 10.326c0-4.083 3.238-7.339 7.321-7.339h8.581c5.882 8.58-2.555 12.394-2.627 12.871-.071.548 1.26.422 1.26.422 4.425-1.592 5.324-6.098 5.036-9.282-.27-3.039-1.727-3.939-1.799-4.011h2.285a7.301 7.301 0 0 1 7.339 7.339v1.098c0 4.011-3.256 7.348-7.339 7.348h-12.736c-4.083 0-7.321-3.337-7.321-7.348v-1.098z" fill="#010101" id="army_x2C__military_x2C__war_x2C__weapon__x2C_navy_x2C__aviation_x2C___gun__x2C_"/><metadata><rdf:RDF xmlns:rdf="http://www.w3.org/1999/02/22-rdf-syntax-ns#" xmlns:rdfs="http://www.w3.org/2000/01/rdf-schema#" xmlns:dc="http://purl.org/dc/elements/1.1/"><rdf:Description about="https://iconscout.com/legal#licenses" dc:title="army,military,war,weapon,navy,aviation,gun" dc:description="army,military,war,weapon,navy,aviation,gun" dc:publisher="Iconscout" dc:date="2018-06-25" dc:format="image/svg+xml" dc:language="en"><dc:creator><rdf:Bag><rdf:li>Ibrandify Icons</rdf:li></rdf:Bag></dc:creator></rdf:Description></rdf:RDF></metadata></svg>