<?xml version="1.0" encoding="UTF-8"?><!DOCTYPE svg PUBLIC "-//W3C//DTD SVG 1.1//EN" "http://www.w3.org/Graphics/SVG/1.1/DTD/svg11.dtd"><svg xmlns="http://www.w3.org/2000/svg" xmlns:xlink="http://www.w3.org/1999/xlink" version="1.1" x="0px" y="0px" width="512px" height="512px" viewBox="0 0 512 512" xml:space="preserve"><path d="M37.222 217.836c0 2.068 1.043 3.741 2.212 3.741h4.578s2.761.342 4.29 3.732c.135 0 2.419.765 5.055.135H101.395c.611.9 1.664 1.871 3.256 1.871h1.646s.216-1.602 1.332-1.602v-.27h39.25c.477 2.698 2.771 2.698 6.359 2.698 1.385 0 3.679.279 6.575.702 5.478.755 13.716 1.861 23.475 1.861 13.77 0 22.701 1.034 28.098 3.247 1.25.558 2.492.63 3.598.63h1.736c.621-.072 1.241-.072 1.871-.072.611 0 1.034-.144 1.313-.485.135-.136.27-.279.351-.414 1.178-.144 1.861-.63 2.285-1.241l.404.071h.072c.288 0 9.345.478 20.219 1.026l3.184 2.644c-.135 1.584-.836 8.707-5.262 18.268-4.569 10.028-14.327 24.919-34.331 38.698l-.135.071c-.423.468-.153.899.477 2.069.423.701 1.043 1.673 1.799 2.914 1.313 2.068 3.121 4.965 5.469 8.58 3.948 6.152 8.031 12.395 8.031 12.395l.414.611.558-.342c.135-.071 12.106-6.781 24.986-20.489 10.937-11.639 24.5-30.742 29.978-57.181.818-.071 2.077-.071 2.688.63h.288c0 2.698.27 5.469 1.79 6.089 0 0 .701 4.434 1.663 5.819h1.116v-2.284s-.909-1.188 0-2.016l.485-.071v-1.367c.414-.288.684-.918 1.583.054 0 .072.279.072.63.072.756 1.241 2.761 3.112 7.681 3.399 2.006.055 3.877.207 5.685.27 3.318.207 6.431.414 9.614.414h1.791c3.336-.071 5.055-1.385 6.098-2.554.972.953 2.356 3.04 4.155 7.537 4.435 11.004 8.229 18.632 9.354 24.495 1.16 5.828.612 7.825 9.75 6.926 9.129-.972 12.179-7.537 11.972-10.577-.207-3.058-6.503-16.005-8.374-21.527-1.942-5.478-2.348-8.112-.971-10.802 1.043-2.007 2.077-5.676 1.735-7.34h.63l1.313-2.42c1.583.414 5.056 1.242 6.979 1.655.558.071.98.216 1.395.288.414 2.482 4.848 4.137 11.558 6.638 2.078.836 4.425 1.727 6.845 2.698 10.109 4.083 71.729 32.32 79.338 36.674 1.942 1.188 3.741 1.745 5.262 1.745 3.454 0 5.54-2.771 5.954-7.951.414-8.742 7.195-39.049 7.951-42.017.422-1.745.701-3.058-.054-4.235-.63-1.035-1.943-1.584-4.29-2.007-1.602-.279-4.579-.827-8.455-1.448-16.748-2.985-47.903-8.391-55.989-9.488-2.024-.198-3.76-.342-5.271-.342-3.535 0-5.405.62-7.133 1.241-1.043.351-1.942.62-3.12.756-.612.071-1.377.144-2.276.144-3.598 0-7.834-.701-8.238-.755-.621-.145-10.245-2.43-13.429-3.185a9.847 9.847 0 0 0-2.698-.342c-1.394 0-1.942.396-2.158.684l-.136.135v.278c-2.626-.413-6.367-.972-6.367-.972l-2.482-.898c-.207-4.354-5.396-7.816-6.926-8.239.063-.126.135-.341.135-.549 0-1.52-4.021-7.617-9.21-7.617H234.438v-.198l-1.241-.918h-1.736v-.125h5.126v-3.607c0-.899 0-1.169-.971-1.169-1.448 0-2.491 2.348-2.491 2.348h-2.842c-.207-.972-.971-1.728-1.871-1.728-.89 0-1.654.756-1.861 1.728h-.486c-2.626-2.141-6.863-.612-6.863-.612h-2.132l-.558-.566H213.4c-1.808-2.563-3.391 0-3.391 0h-2.842v.908h-.836c-.27-.342-.684-.629-1.376-.629-2.77 0-3.255 1.528-3.255 3.606v.963a1.15 1.15 0 0 0-.692-.198c-.279 0-.549.054-.765.27v-.827c0-.899-.072-1.313-1.242-1.313h-.971c-.072 0-.072-.071-.135-.144-.414-.485-1.178-.692-2.491-.692-1.664 0-11.504.207-21.875.342-10.109.207-20.642.423-22.296.423-1.106 0-2.006.342-2.635.899h-1.241c-1.034 0-3.256.071-3.256 2.697v-.413h-36.814c-.144 0-.288.072-.423.072-.072 0-.207 0-.279.063-.135 0-.288 0-.342.072h-.288c-.135.071-.198.071-.342.135-.063 0-.135.071-.207.071-.135 0-.27.063-.405.145-.081 0-.081 0-.153.072a1.843 1.843 0 0 0-.477.206h-.072c-.135.135-.27.189-.485.271 0 .072-.072.072-.072.072-.135.063-.27.206-.342.27-.072 0-.072.08-.135.08-.135.055-.207.198-.342.271l-.081.072c-.135.125-.207.206-.342.279 0 .063 0 .063-.072.134-.135.063-.207.216-.342.342-2.141 2.356-3.265 5.819-5.541 8.167-.548.63-1.178 1.106-1.943 1.528h-.342v.073c-1.448.755-3.049 1.106-4.982 1.106h-.144v.135c-.063 0-.135.071-.207.135H61.174v-2.213l-7.475-14.399c.558-.342.9-1.377.9-2.555 0-1.529-.558-2.708-1.313-2.708h-6.782c-.702 0-1.25 1.179-1.25 2.708 0 1.178.342 2.141.837 2.555h-.216v.207c.081 0 .971 5.531.081 9.561h-.081c-.207 0-.621.071-.684.071h-.144v3.589c0 .207-1.169 2.915-2.905 2.915v.27h-2.707c-1.17-.002-2.213 1.661-2.213 3.677zm13.006-6.584c-1.583 0-2.896-1.313-2.896-2.914 0-1.583 1.313-2.824 2.896-2.824h5.55l2.905 5.738h-8.455zm86.812-1.044l.495.495-.972 3.454h-28.035v-1.449h-.207v-2.5h28.719zm94.709-2.212h-8.733 8.733zm-10.181 4.29h.341v.081c-.072-.081-.206-.081-.341-.081zm-73.942-1.511h5.207c3.112-.909 5.945-1.395 8.787-1.395 2.978 0 5.262.558 7.061.899 1.106.288 2.006.495 2.77.495h7.205c2.824-.909 5.459-1.322 7.816-1.322 2.699 0 4.56.549 5.954.899a9.569 9.569 0 0 0 1.521.423c-.702.135-.836.62-.972.962-.135.413-.279.899-2.285.899h-9.345c-.765 0-.828-.144-.899-.27-.207-.692-.629-1.115-1.871-1.115h-11c-1.313 0-1.664.423-1.871 1.115-.072.126-.135.27-.971.27h-8.869c-.818 0-.818-.144-.89-.27-.216-.692-.621-1.115-1.943-1.115h-4.704l-1.592.063v2.843h-1.871v-3.382h2.762zm142.882 36.255v-9.398c.135-.081.271-.153.423-.279.136-.215.27-.351.342-.485.135-.207.342-.485 2.555-.485 2.293 0 7.689.278 10.667.485 1.178.063 2.149.063 2.491.135.765.549 1.529 1.592 1.529 3.185 0 3.318.477 5.126-5.334 7.546-.144-.072-.278.962 1.592.692 1.871-.207 3.949-2.078 4.714-3.184.746-1.106 2.554-5.127 2.626-5.604l1.934-.558s1.871-.756 2.501-1.997l.27.055v4.784s-.765 2.896 0 5.738c.206.63.413.899.701 1.115-.765.756-1.942 1.439-4.164 1.439-3.67.152-7.34-.126-11.207-.342-1.808-.126-3.679-.207-5.684-.342-4.903-.206-5.875-2.212-5.956-2.5zm-182.879-23.384h.558c.549 0 1.025-.485 1.025-1.043a1 1 0 0 0-.684-.972v-.054h34.196v2.068h-35.095zm-7.132 0H55.229c.828-1.043 1.655-2.068 1.655-2.068H88.93c.072.054.144.054.207.126v.072h2.419c-.27.144-.477.485-.477.827 0 .558.477 1.043 1.043 1.043h8.375z" fill="#010101" id="army_x2C__military_x2C__war_x2C__weapon__x2C_navy_x2C__aviation_x2C__gun__x2C__machine__x2C_"/><metadata><rdf:RDF xmlns:rdf="http://www.w3.org/1999/02/22-rdf-syntax-ns#" xmlns:rdfs="http://www.w3.org/2000/01/rdf-schema#" xmlns:dc="http://purl.org/dc/elements/1.1/"><rdf:Description about="https://iconscout.com/legal#licenses" dc:title="army,military,war,weapon,navy,aviation,gun,machine" dc:description="army,military,war,weapon,navy,aviation,gun,machine" dc:publisher="Iconscout" dc:date="2018-06-25" dc:format="image/svg+xml" dc:language="en"><dc:creator><rdf:Bag><rdf:li>Ibrandify Icons</rdf:li></rdf:Bag></dc:creator></rdf:Description></rdf:RDF></metadata></svg>