<?xml version="1.0" encoding="UTF-8"?><!DOCTYPE svg PUBLIC "-//W3C//DTD SVG 1.1//EN" "http://www.w3.org/Graphics/SVG/1.1/DTD/svg11.dtd"><svg xmlns="http://www.w3.org/2000/svg" xmlns:xlink="http://www.w3.org/1999/xlink" version="1.1" x="0px" y="0px" width="512px" height="512px" viewBox="0 0 512 512" xml:space="preserve"><path d="M289.833 194.738c1.997 1.034 3.509 2.239 5.523 3.292 2.554-.135 5.18-.278 7.753-.423 2.554 1.241 5.036 2.5 7.608 3.741h175.208c.144 1.727.27 3.391.486 5.055-57.6-.485-115.253-.898-172.852-1.385-1.26.692-2.501 1.458-3.742 2.213l-15.236.773 3.328 15.775c101.005-8.859 116.079 83.417 36.211 84.587.611 2.698 1.241 5.414 1.87 8.167a6191.6 6191.6 0 0 1 36.823-.127c20.417-10.595 25.957-1.654-.899 6.494l-112.289-.827c-1.313-4.299-1.861-6.979-3.39-10.595-21.875-7.538-36.751-14.607-57.384-25.4-.756-.756-1.169-12.25-1.169-14.192a8765.638 8765.638 0 0 1-32.325-16.204c-31.921.082-63.761.153-95.609.153 10.461 6.152 20.912 12.327 31.436 18.479-1.034 1.997-2.006 4.012-2.978 5.954a12038.647 12038.647 0 0 0-29.142-16.41 25797.96 25797.96 0 0 1-8.517 26.106c-2.563.197-5.056.342-7.618.54.422-11.207.836-22.433 1.241-33.644a4444.9 4444.9 0 0 0-28.584-17.161l3.121-7.402.27-.152 19.032 9.426-19.302-49.145 10.514-3.328c10.658 19.032 21.263 38.145 31.921 57.186 15.848-1.601 31.776-3.193 47.625-4.785 33.431-3.111 66.862-6.224 100.24-9.354-.63-3.525-1.322-7.052-1.943-10.577 8.023-8.932 28.449-6.296 42.983-8.662 6.363-1.034 14.872.495 18.057-3.732-64.853-2.697-125.007-2.635-190.008-2.771-.414-1.582-.837-3.255-1.313-4.919 38.981.351 78.016.62 116.988.908 19.032.198 38.082.342 57.176.558 1.736-.971 3.463-2.015 5.122-2.986 3.257-.549 6.512-1.043 9.769-1.592 1.727-1.241 3.382-2.563 5.108-3.877" fill="#010101" id="army_x2C__military_x2C__war_x2C__weapon__x2C_navy_x2C__aviation_x2C___helicopter__x2C_"/><metadata><rdf:RDF xmlns:rdf="http://www.w3.org/1999/02/22-rdf-syntax-ns#" xmlns:rdfs="http://www.w3.org/2000/01/rdf-schema#" xmlns:dc="http://purl.org/dc/elements/1.1/"><rdf:Description about="https://iconscout.com/legal#licenses" dc:title="army,military,war,weapon,navy,aviation,helicopter" dc:description="army,military,war,weapon,navy,aviation,helicopter" dc:publisher="Iconscout" dc:date="2018-06-25" dc:format="image/svg+xml" dc:language="en"><dc:creator><rdf:Bag><rdf:li>Ibrandify Icons</rdf:li></rdf:Bag></dc:creator></rdf:Description></rdf:RDF></metadata></svg>