<?xml version="1.0" encoding="UTF-8"?><!DOCTYPE svg PUBLIC "-//W3C//DTD SVG 1.1//EN" "http://www.w3.org/Graphics/SVG/1.1/DTD/svg11.dtd"><svg xmlns="http://www.w3.org/2000/svg" xmlns:xlink="http://www.w3.org/1999/xlink" version="1.1" x="0px" y="0px" width="512px" height="512px" viewBox="0 0 512 512" xml:space="preserve"><path d="M337.437 294.793l-1.367 10.586h-4.66c0 .566 0 .63-.197.909 0 .764-.072 1.24-.216 1.663-2.752.135-3.399-.549-3.742-2.77h-5.522v6.916h-2.284c0 2.644.27 6.025-.701 7.618-1.098.135-2.555-.207-4.155-.207 0 .342.071.63.233.972 2.32 1.241 3.85 3.669 3.85 6.503 0 4.083-3.311 7.474-7.394 7.474s-7.411-3.391-7.411-7.474c0-2.491 1.188-4.704 3.13-6.026v-1.448l-30.059-.288-3.04-3.867v-9.768l1.583-1.584-28.174-.484v3.039l-34.601 1.799-6.296 5.811a10.968 10.968 0 0 1 2.554 6.998c0 6.089-4.92 11.009-10.937 11.009a10.994 10.994 0 0 1-11.018-11.009c0-5.945 4.866-10.865 10.865-10.929v-8.787c-13.078-.423-26.209-.917-39.296-1.395-3.049 3.319-12.196 9.211-16.433 12.458l-26.281-6.638v-9.283l-57.824-8.58H34.73l-.684-29.969h18.339l-.216-8.58h3.121v-8.112c-1.376-4.21-27.765-60.226-30.247-63.545 0-.423 34.673-.207 38.072-.207 3.319 1.385 63.616 56.286 68.878 62.366 1.304.908 26.785 7.969 30.94 9.282 49.703-.485 124.656 1.799 164.896-6.297 29.681-5.684 57.941-15.649 86.74-1.25 10.523 3.877 100.573 23.269 46.788 41.257 2.896 0 25.598 1.673 25.598 3.04l-149.518 8.797zM202.94 311.405l.765.422 3.4-3.472h-4.165v3.05z" fill="#010101" id="army_x2C__military_x2C__war_x2C__weapon__x2C_navy_x2C__aviation_x2C___jet__x2C_"/><metadata><rdf:RDF xmlns:rdf="http://www.w3.org/1999/02/22-rdf-syntax-ns#" xmlns:rdfs="http://www.w3.org/2000/01/rdf-schema#" xmlns:dc="http://purl.org/dc/elements/1.1/"><rdf:Description about="https://iconscout.com/legal#licenses" dc:title="army,military,war,weapon,navy,aviation,jet" dc:description="army,military,war,weapon,navy,aviation,jet" dc:publisher="Iconscout" dc:date="2018-06-25" dc:format="image/svg+xml" dc:language="en"><dc:creator><rdf:Bag><rdf:li>Ibrandify Icons</rdf:li></rdf:Bag></dc:creator></rdf:Description></rdf:RDF></metadata></svg>