<svg xmlns="http://www.w3.org/2000/svg" data-name="Layer 1" viewBox="0 0 512 512"><path fill="#fcfafa" d="M498.13407,422.021a24.23636,24.23636,0,0,0-5.33149-15.30459,27.30244,27.30244,0,0,0-10.04677-7.73755,37.78978,37.78978,0,0,0-9.4097-2.81981c-1.342-.2261-2.72343-.39568-4.13055-.51522l-3.39688-7.86172a30.89258,30.89258,0,0,0,6.72819-4.0958,41.89,41.89,0,0,0,6.9865-7.23809,75.72318,75.72318,0,0,0,5.7156-8.72165c1.14812-1.96543,2.32126-4.16067,3.48467-6.52086,1.16573-2.363,2.31061-4.89643,3.4036-7.53276,1.03183-2.48806,2.03586-5.06694,2.98521-7.669,1.00171-2.7466,1.88991-5.46354,2.64143-8.0767.777-2.7049,1.4187-5.32918,1.91029-7.81817a45.50253,45.50253,0,0,0,.935-8.82729c0-8.47424-3.82985-15.83372-10.51565-20.1964a27.25538,27.25538,0,0,0-15.15587-4.3182,32.67464,32.67464,0,0,0-14.40065,3.2646,27.82638,27.82638,0,0,0-13.44944-3.2646,29.50314,29.50314,0,0,0-9.35386,1.49562,32.35284,32.35284,0,0,0-11.05751-1.82644,50.4518,50.4518,0,0,0-7.70651.59677,54.70174,54.70174,0,0,0-7.10882,1.59106c-1.2614.37344-2.49246.79136-3.68993,1.24079a30.63167,30.63167,0,0,0-14.6337-3.42862,50.4519,50.4519,0,0,0-7.70651.59677,54.702,54.702,0,0,0-7.10881,1.59106,52.72978,52.72978,0,0,0-6.51669,2.3954c-.98109.43784-1.914.92155-2.82305,1.42565a39.44715,39.44715,0,0,0-7.3516-3.60329,41.94809,41.94809,0,0,0-14.52435-2.48806,43.7323,43.7323,0,0,0-13.42256,2.11277c-.7404.23861-1.46643.505-2.185.78487a31.43856,31.43856,0,0,0-7.58095-6.55792c-6.93924-4.32191-15.54645-6.42263-26.31323-6.42263a54.17154,54.17154,0,0,0-8.81826.4953c.30279-.3651.6-.73669.8875-1.11893,8.69108-2.70212,8.73278-8.098,13.11168-17.056a35.37412,35.37412,0,0,0,3.55417-13.7469,28.27365,28.27365,0,0,1,12.74241-.52448,28.88217,28.88217,0,0,1,10.41372,4.17735,18.43848,18.43848,0,0,0,18.78093,2.98567,19.00158,19.00158,0,0,0,11.74625-15.539c2.61455-20.54574,10.67967-35.994,23.97112-45.91471a52.045,52.045,0,0,1,20.0245-9.28136,18.55383,18.55383,0,0,0,14.02257-9.45463,18.90049,18.90049,0,0,0,.543-17.17551c-19.07607-42.01907-11.34454-58.15117-10.40955-59.8349a18.9783,18.9783,0,0,0-27.75742-25.80357c-13.41654,12.91847-21.36352,9.53155-22.62052,8.85973a18.9783,18.9783,0,0,0-29.36238,12.66549c-2.7554,16.89381-3.66955,10.94469-5.28748,5.60532a18.97759,18.97759,0,0,0-10.62269-11.913c-7.08843-3.06907-11.92694-14.95154-13.18719-20.30481a18.83837,18.83837,0,0,0-18.41444-15.01733c-.04865-.00093-.09591-.00093-.14456-.00093A19.06262,19.06262,0,0,0,262.667,73.404c-3.6663,16.68809-16.57364,21.28706-18.78417,21.95889a18.25979,18.25979,0,0,0-12.32217,9.30637,18.75735,18.75735,0,0,0-.81267,15.77719,28.57707,28.57707,0,0,1,2.06365,13.63106,18.99578,18.99578,0,0,0-4.81025-2.44636c-.24093-.08155-24.09019-8.49-23.54532-32.72289.23213-10.33867-7.01013-18.90094-17.30848-19.33924-2.62243-.39846-25.0048-4.66292-51.34027-36.83445a19.23212,19.23212,0,0,0-26.68945-3.06444,18.71616,18.71616,0,0,0-3.43371,26.12975c1.72589,2.62243,12.53436,20.84413-2.90877,44.67393-3.28915,5.07528-4.41457,11.27737-2.26474,16.93087A18.10852,18.10852,0,0,0,112.54832,138.759c1.326.56062,7.54944,3.474,15.51772,11.65358-17.15419,4.60917-31.51314-2.45655-33.47857-3.48977l-.01135-.00556c-.30186-.16494-.60395-.33128-.906-.48279a18.98037,18.98037,0,0,0-17.96826,33.4151s.30024.17421.85021.46981c1.14163.71121,3.537,3.24653,6.76364,8.566A18.978,18.978,0,0,0,56.9978,202.36257c-.03614.17421-4.79126,17.69721-31.11468,24.09946a18.97793,18.97793,0,0,0,.49947,36.99475c.28031.06024,28.55712,7.10465,47.50577,45.84615a18.97809,18.97809,0,0,0,27.55356,7.467,97.43465,97.43465,0,0,1,25.76743-11.05218c17.934-4.687,32.03392-2.34721,43.106,7.15932a18.95426,18.95426,0,0,0,18.01923,3.93549A18.56226,18.56226,0,0,0,200.919,303.72633c1.04758-3.27942,6.61259-17.80841,23.297-17.48779a18.672,18.672,0,0,0,4.7074-.51151q1.1787.26409,2.36806.43923a34.30007,34.30007,0,0,0,7.36318,6.74974,33.36273,33.36273,0,0,0,25.20125,5.23837,22.863,22.863,0,0,0-4.08469,13.21036V349.958a24.6994,24.6994,0,0,0,7.15121,17.56285c-3.32969,4.207-6.85514,9.31981-10.17951,14.45347a27.06838,27.06838,0,0,0-14.02025-3.80623,26.514,26.514,0,0,0-19.1326,7.84411,26.203,26.203,0,0,0-6.04131,9.7192c-1.42473.09869-2.85039.25159-4.26678.4712a54.70363,54.70363,0,0,0-7.10881,1.59107,52.73138,52.73138,0,0,0-6.51669,2.39539c-.92549.41329-1.8079.86735-2.66945,1.339a36.07779,36.07779,0,0,0-13.15222-5.231,23.78574,23.78574,0,0,0-7.24318-8.96258,24.36685,24.36685,0,0,0-10.62407-4.51465,41.08163,41.08163,0,0,0-13.11723.01853q-1.9856.32387-2.99865.5078a18.92717,18.92717,0,0,0-7.65,3.22615,50.40417,50.40417,0,0,0-11.8695-1.29685,47.9561,47.9561,0,0,0-16.64129,2.905,42.25516,42.25516,0,0,0-14.84173,9.2758,43.08681,43.08681,0,0,0-9.90592,14.73285,48.59028,48.59028,0,0,0-3.45549,18.59236,49.52121,49.52121,0,0,0,3.59634,19.30959,41.70943,41.70943,0,0,0,10.55272,15.0164,42.159,42.159,0,0,0,15.37688,8.77911,52.86948,52.86948,0,0,0,16.22754,2.4825,43.762,43.762,0,0,0,17.38655-3.10845,25.16617,25.16617,0,0,0,5.897,1.762,43.35117,43.35117,0,0,0,12.76232.09081,36.16517,36.16517,0,0,0,5.42463-1.11013q.86734-.25992,1.69485-.59491a25.248,25.248,0,0,0,5.57149,1.61423,38.50683,38.50683,0,0,0,6.46711.51985,45.91189,45.91189,0,0,0,6.29707-.429,36.26515,36.26515,0,0,0,5.42277-1.11013c.09035-.02687.17561-.063.26549-.09127a25.61981,25.61981,0,0,0,4.27326,1.11059,38.50683,38.50683,0,0,0,6.46711.51985,45.84965,45.84965,0,0,0,6.29521-.429,36.18465,36.18465,0,0,0,5.42509-1.11013,18.91815,18.91815,0,0,0,6.05336-3.09687,24.4015,24.4015,0,0,0,10.05465,4.11619,38.51232,38.51232,0,0,0,6.46757.51985,41.50629,41.50629,0,0,0,6.65893-.53838q1.97655-.32249,2.98891-.506a18.987,18.987,0,0,0,3.60005-1.03553,39.29184,39.29184,0,0,0,7.67824,2.06968,58.42766,58.42766,0,0,0,9.56769.75429c8.40428,0,15.61827-1.65315,21.515-4.9196a37.2449,37.2449,0,0,0,19.14372,4.75466,35.9745,35.9745,0,0,0,14.05222-2.49918,25.32653,25.32653,0,0,0,5.01643,1.40017,43.35124,43.35124,0,0,0,12.76233.09081,36.18492,36.18492,0,0,0,5.42509-1.11013c.25483-.07691.50734-.15753.75707-.24371a25.49384,25.49384,0,0,0,4.69072,1.263,42.78877,42.78877,0,0,0,12.67985.09081,40.324,40.324,0,0,0,5.04516-.97854q.61924-.1682,1.21994-.3753a25.49353,25.49353,0,0,0,4.69164,1.263,38.50365,38.50365,0,0,0,6.46619.51985,45.84965,45.84965,0,0,0,6.29521-.429,36.18465,36.18465,0,0,0,5.42509-1.11013,19.01763,19.01763,0,0,0,2.40976-.91739,40.66251,40.66251,0,0,0,5.69845,1.78752A53.61951,53.61951,0,0,0,419.49,476.2042c8.73556,0,16.001-1.45762,22.11411-4.435.35027.189.69962.379,1.061.556a37.39262,37.39262,0,0,0,10.31226,3.20715,58.42757,58.42757,0,0,0,9.56769.75429c10.30252,0,18.81846-2.4825,25.30874-7.378a31.53549,31.53549,0,0,0,9.06544-38.79987A26.67615,26.67615,0,0,0,498.13407,422.021Z"/><path fill="#26a526" d="M120.6304,231.086S104.81888,173.30993,85.16676,163.4c0,0,33.78008,19.50837,68.2013-4.14006,0,0,3.7147,26.61427,41.28742,33.78614l59.05821,48.15378Z"/><path fill="#1b8d25" d="M208.10034,220.53516c-9.72095-1.90235-18.98633-5.57715-28.15625-9.23194-9.16186-3.72851-18.17285-7.80615-27.15527-11.93506-8.94678-4.207-17.85694-8.48974-26.69361-12.91943l-13.21459-6.72266c-4.3794-2.29052-8.76612-4.5664-13.11646-6.91162h.00024l-.06762-.03613.06836.0332h.00048l26.66968,12.9458c8.90186,4.28663,17.80347,8.57178,26.77466,12.70557q13.40955,6.30176,27.02783,12.13379l6.83814,2.84228c2.30127.88868,4.58886,1.81983,6.90332,2.67432,2.32471.82276,4.62012,1.74463,6.98706,2.44238,1.18091.354,2.343.78516,3.541,1.07666Z"/><path fill="#26a526" d="M30.36837,244.90233s37.03947,7.95676,60.56806,56.06257c0,0,53.3424-35.45766,91.74192-2.48637,0,0,8.96332-31.76695,41.85668-31.21569l13.86436-20.407-22.7617-15.4641s-36.62608,4.94295-46.61987-25.93727c0,0-34.79271,36.01489-93.43751.76082C75.58031,206.21524,69.53485,235.37588,30.36837,244.90233Z"/><path fill="#1b8d25" d="M168.79614,200.71514S149.72379,220.4452,116.027,216.394c.59616,1.74579,1.13929,3.38638,1.62775,4.8967,32.821,3.34673,51.36309-15.83632,51.36309-15.83632,9.99379,30.88022,46.61987,25.93727,46.61987,25.93727l11.45932,7.78536,7.60476.57794L215.416,226.65241S178.78993,231.59536,168.79614,200.71514Z"/><path fill="#26a526" d="M118.70126,120.7944s32.80347,10.81471,54.13916,68.90236c0,0,37.00951,11.37791,43.89372,36.704l23.63648,5.73389,6.01549-25.73949s-31.39546-21.32979-24.50519-56.79949c0,0-37.26115-12.696-36.39833-51.11356,0,0-30.50874-2.37267-64.36069-43.72607C121.1219,54.75605,142.44563,84.15638,118.70126,120.7944Z"/><path fill="#1b8d25" d="M163.16794,177.29795c2.06016,4.46531,4.06137,9.27628,5.96972,14.47187,0,0,37.00951,11.37791,43.89372,36.704l23.63648,5.7339.65718-2.81186-20.5909-4.99509c-6.88421-25.3261-43.89372-36.704-43.89372-36.704-.78454-2.13592-1.58623-4.20031-2.39958-6.21024A45.60654,45.60654,0,0,1,163.16794,177.29795Z"/><path fill="#26a526" d="M238.19572,210.008s8.0586-18.6156-8.58578-41.39532c0,0,32.79153-17.87262,18.90326-54.84022,0,0,26.111-6.351,32.68969-36.29649,0,0,5.56608,25.57773,24.18167,33.63633,0,0-22.67788,35.06825-9.7063,56.49987,0,0-17.44727,8.79551-25.434,49.25613L246.458,228.24019Z"/><path fill="#1b8d25" d="M238.02558,199.06149a31.44865,31.44865,0,0,1-1.93287,10.66494l6.27746,13.85236.67213-2.87592L238.19572,210.008a30.08476,30.08476,0,0,0,1.84422-8.9391C239.39447,200.451,238.72044,199.78227,238.02558,199.06149Z"/><path fill="#26a526" d="M284.62993,166.98908s50.97571,9.39474,62.93483-63.92928c0,0,19.8738,14.64925,46.4162-10.91048,0,0-19.38853,20.09549,7.723,79.81284,0,0-51.9104,7.17777-60.10685,71.58643,0,0-29.01084-23.1512-63.74362,6.02139l-24.13976-8.37016,2.87595-27.87247S275.85832,206.91646,284.62993,166.98908Z"/><path fill="#1b8d25" d="M284.62993 166.98908a41.37675 41.37675 0 0 0 10.755.11191 26.15 26.15 0 0 1-2.1857-4.94339 42.5234 42.5234 0 0 1-12.21212.06224c-8.77161 39.92738-28.04029 46.33827-28.04029 46.33827l-1.79951 17.4402 4.34948-2.07941 1.09286-10.59155S275.85832 206.91646 284.62993 166.98908zM39.0542 245.13623q10.12866 2.18409 20.30737 4.10938 10.16969 1.96507 20.387 3.65625c13.62036 2.249 27.30053 4.16308 41.04614 5.38085a296.2496 296.2496 0 0 0 41.325 1.28272 144.68339 144.68339 0 0 0 20.53223-2.29736 76.32914 76.32914 0 0 0 19.65478-6.2544 76.58169 76.58169 0 0 1-19.55933 6.73438 144.24028 144.24028 0 0 1-20.58642 2.58545 285.30307 285.30307 0 0 1-41.457-1.05567c-13.76905-1.3042-27.47461-3.207-41.08448-5.62109q-10.20629-1.81788-20.35351-3.93408Q49.12878 247.56128 39.0542 245.13623zM230.00537 213.62109q-6.86682-8.72094-13.603-17.54492-6.717-8.8374-13.3291-17.75488-13.21436-17.84106-25.96264-36.02393c-2.13379-3.02392-4.21094-6.08691-6.30616-9.13769-2.08813-3.05567-4.19946-6.09473-6.24414-9.18018l-6.17822-9.2251-6.03931-9.31738c-2.02856-3.0957-3.95776-6.25537-5.92187-9.39209-1.95874-3.14062-3.93286-6.271-5.8-9.46777-1.8645-3.19776-3.79858-6.353-5.60474-9.5835l-5.40039-9.69873 5.61182 9.5752c1.87549 3.1875 3.87866 6.2998 5.811 9.45215 1.9126 3.16552 3.91871 6.27294 5.91651 9.38525 2.00122 3.11035 3.96728 6.24219 6.033 9.311 8.08447 12.38819 16.46533 24.582 24.9414 36.70655 8.42237 12.16308 17.08789 24.15674 25.76123 36.14355q6.494 8.99855 13.10083 17.916Q223.34412 204.74219 230.00537 213.62109zM255.39136 199.89453c1.45459-4.73437 2.87719-9.47656 4.22265-14.24072l2.03077-7.14209 1.9541-7.1626c2.5664-9.55957 5.009-19.15234 7.21753-28.79932 2.31152-9.62353 4.30371-19.31933 6.17285-29.0371l1.36767-7.29639 1.22412-7.32178c.90284-4.86963 1.47974-9.78711 2.27344-14.67773-1.04785 9.84814-2.355 19.6792-4.1084 29.43408q-2.57262 14.64111-5.95678 29.12549c-2.29322 9.64111-4.72461 19.251-7.4524 28.77783C261.60645 181.07861 258.69214 190.55371 255.39136 199.89453zM379.198 113.46924s.00049.01221-.00537.0083h.00024l-7.90381 15.77783c-2.88843 5.12354-5.85864 10.20752-8.8247 15.293l-4.86353 7.37305c-1.65063 2.438-3.18652 4.957-5.022 7.26513l-5.31348 7.06153-1.33105 1.76367L344.5 169.69336l-2.86865 3.36328c-3.73584 4.56494-7.98072 8.67383-12.12256 12.86279l-6.57837 5.91211c-2.25806 1.89356-4.62329 3.66162-6.93848 5.48438-2.37915 1.73926-4.8601 3.34082-7.2915 5.00342l-3.814 2.23925-1.90625 1.11866c-.6477.35009-1.313.66992-1.97045 1.00244a61.89856 61.89856 0 0 1-16.51758 6.10254 63.96087 63.96087 0 0 0 16.28979-6.53662c.64527-.34766 1.30371-.67041 1.9419-1.03028l1.87915-1.14306 3.75708-2.28467c2.39355-1.69336 4.83374-3.32227 7.17138-5.08789 2.27051-1.855 4.5962-3.64112 6.83814-5.52637l6.5105-5.91211c4.09936-4.189 8.29663-8.29639 11.99487-12.85693l2.87183-3.332 1.43628-1.666 1.334-1.74951 5.32812-7.00586c1.84034-2.28906 3.38331-4.79248 5.04078-7.21338l4.93017-7.29736c3.03711-5.02246 6.07349-10.05323 9.04566-15.12012l8.33056-15.54248.00049-.00049C379.198 113.481 379.198 113.46924 379.198 113.46924z"/><ellipse cx="234.778" cy="254.72" fill="#e6786e" rx="12.336" ry="13.759" transform="rotate(-55.808 234.778 254.72)"/><ellipse cx="256.251" cy="267.014" fill="#d64142" rx="12.336" ry="13.759" transform="rotate(-55.808 256.251 267.014)"/><path fill="#b8303c" d="M244.08532,258.74893a11.42232,11.42232,0,0,0-1.90808,7.26955q.39147-.2117.76486-.45284a11.29845,11.29845,0,0,1,1.92811-6.28347,11.1517,11.1517,0,0,1,3.21946-3.11732c.00372-.32733-.00063-.65453-.02321-.98272A11.219,11.219,0,0,0,244.08532,258.74893Z"/><ellipse cx="274.471" cy="230.065" fill="#d64142" rx="12.336" ry="13.759" transform="rotate(-55.808 274.471 230.065)"/><ellipse cx="274.17" cy="254.412" fill="#e6786e" rx="14.963" ry="13.316" transform="rotate(-63.953 274.17 254.412)"/><path fill="#b8303c" d="M268.83532 241.05408c.14709.08011.2976.14673.44611.22144a12.7427 12.7427 0 0 1 11.45933-.30636c.31554.15423.61254.33172.9088.50989.32137-.16509.63473-.343.93918-.53711a11.958 11.958 0 0 0-1.31473-.75766A12.88406 12.88406 0 0 0 268.83532 241.05408zM259.25222 254.9027c-.38837 5.568 2.18888 10.83824 7.02982 13.20429a11.82836 11.82836 0 0 0 3.26035 1.037c.01243-.18123.01646-.36278.02063-.54473a11.76533 11.76533 0 0 1-1.96285-.74392c-4.63015-2.263-7.19052-7.18294-7.06581-12.47886Q259.89857 255.10775 259.25222 254.9027z"/><ellipse cx="250.487" cy="221.672" fill="#e6786e" rx="16.659" ry="16.705" transform="rotate(-22.228 250.487 221.672)"/><path fill="#b8303c" d="M262.13057,233.634a14.01838,14.01838,0,0,0,.83376,1.73812,16.69494,16.69494,0,0,0,5.13321-17.10086,11.86974,11.86974,0,0,0-1.19622.58338A16.71,16.71,0,0,1,262.13057,233.634Z"/><ellipse cx="231.929" cy="234.429" fill="#d64142" rx="12.336" ry="13.284" transform="rotate(-55.808 231.929 234.43)"/><path fill="#b8303c" d="M239.394 223.441a14.04513 14.04513 0 0 0-5.56111-2.23561c-.00787.29468.00079.59008.00873.88612a14.06 14.06 0 0 1 5.01913 2.13438 13.30553 13.30553 0 0 1 5.869 13.08606c.11816.04394.23583.08881.35494.13A13.23573 13.23573 0 0 0 239.394 223.441zM225.32773 244.836c-.23828.20655-.46634.42536-.688.65324.20272.154.39494.31685.60826.46178 5.48812 3.72858 12.56416 3.06963 16.70138-1.2557-.082-.058-.15622-.12252-.23972-.17925-.23871-.16218-.485-.3017-.72887-.44842A13.07913 13.07913 0 0 1 225.32773 244.836z"/><path fill="#d64142" d="M260.58085,256.90843A16.70555,16.70555,0,0,1,247.942,225.98025c8.5169-3.48045,22.45656,1.1848,25.94669,9.72538C277.64681,244.90206,272.34476,252.10108,260.58085,256.90843Z"/><path fill="#b8303c" d="M247.69033,224.66213a16.529,16.529,0,0,0-8.96218,8.82632c.194.19361.404.36692.60656.55a16.51429,16.51429,0,0,1,8.60726-8.05821c5.20474-2.12691,12.42632-1.20057,18.059,1.782.12719-.32655.25222-.65394.35882-.98811C260.64753,223.52823,253.0846,222.45772,247.69033,224.66213Z"/><path fill="#b8303c" d="M273.88865,235.70559a13.95762,13.95762,0,0,1,1.0796,7.1314,13.74909,13.74909,0,0,0,1.672-.00488c.5594-2.51077-.23627-4.44861-1.43344-7.37816a17.59484,17.59484,0,0,0-12.47793-10.4171c-.18325.46338-1.11236.404-1.23191.88346C267.01272,227.58893,271.99355,231.06823,273.88865,235.70559Z"/><path fill="#b8303c" d="M277.04158 239.86171a12.35348 12.35348 0 0 0-2.08047-.08682c.889 7.26588-4.41426 13.06092-14.38028 17.13351l-.01085.0037c.02411.31738.06652.62969.11011.94211.67258-.18014 2.66046-.64557 3.32189-.91585C272.26 253.56374 277.75511 245.06283 277.04158 239.86171zM243.214 228.9385c-.153-.27139-.3208-.53646-.49367-.799a16.691 16.691 0 0 0-5.05074 17.97491c.1821-.07479.3668-.14353.54491-.227A16.69187 16.69187 0 0 1 243.214 228.9385z"/><path fill="#b8303c" d="M238.84019,247.74628a16.661,16.661,0,0,1-1.20117-5.1783c-.18979-.05837-.37986-.11356-.57044-.16385A16.67843,16.67843,0,0,0,247.963,257.8658c.049-.31253.0747-.62834.09829-.9442A16.66753,16.66753,0,0,1,238.84019,247.74628Z"/><path fill="#b8303c" d="M247.40017,256.63156a11.23773,11.23773,0,0,0-.90025.75022,16.603,16.603,0,0,0,14.33255.84475c.93018-.38008,1.80428-.78068,2.652-1.19058-.10251-.07336-.19633-.154-.30124-.22525-.32125-.21826-.65046-.41307-.98089-.60339-.52772.23837-1.06445.47342-1.62152.70109A16.57411,16.57411,0,0,1,247.40017,256.63156Z"/><path fill="#fce6d9" d="M224.938 258.68968l1.73636-.76593a4.5826 4.5826 0 0 0 1.53186 3.47272S225.321 259.55786 224.938 258.68968zM243.1702 250.42741l1.73636-.76592a4.58263 4.58263 0 0 0 1.53185 3.47272S243.55316 251.29559 243.1702 250.42741zM222.73319 239.9842l1.73636-.76593a4.58262 4.58262 0 0 0 1.53185 3.47272S223.11615 240.85238 222.73319 239.9842zM266.21351 263.78849l1.73636-.76592a4.58263 4.58263 0 0 0 1.53185 3.47272S266.59648 264.65667 266.21351 263.78849z"/><path fill="#d64142" d="M298.16937 358.05691q-1.406 0-3.30537-.08248-1.90219-.0834-3.92531-.33081-2.02657-.24742-4.00823-.61993a19.26561 19.26561 0 0 1-3.63619-1.03322q-4.54591-1.73469-4.54523-6.03251V311.36473a3.63364 3.63364 0 0 1 .95028-2.68637 6.7948 6.7948 0 0 1 2.603-1.52805 31.58776 31.58776 0 0 1 7.02449-1.4465 81.15507 81.15507 0 0 1 8.67764-.455q10.57706 0 16.28036 3.55371 5.7017 3.55418 5.70216 10.991a9.93663 9.93663 0 0 1-2.14891 6.405 12.27091 12.27091 0 0 1-5.78463 3.9253 14.32705 14.32705 0 0 1 6.90032 4.21534 11.02064 11.02064 0 0 1 2.76838 7.68566q0 8.1814-6.07375 12.10671Q309.57415 358.05553 298.16937 358.05691zM292.798 326.24028h6.03251q3.55279 0 5.16516-1.32233a4.73154 4.73154 0 0 0 1.61145-3.88453 4.14644 4.14644 0 0 0-1.85932-3.55371 9.64526 9.64526 0 0 0-5.57845-1.32233q-1.23917 0-2.85085.08339a21.15078 21.15078 0 0 0-2.5205.24742zm0 20.164a14.73567 14.73567 0 0 0 2.975.455q1.81671.12372 3.47078.12325a10.22687 10.22687 0 0 0 5.49551-1.36311 4.65366 4.65366 0 0 0 2.19015-4.25611 4.24788 4.24788 0 0 0-1.8181-3.8836 10.50059 10.50059 0 0 0-5.53675-1.15739H292.798zM349.82053 358.05691a28.97068 28.97068 0 0 1-9.04923-1.364 20.49939 20.49939 0 0 1-7.27237-4.09024 18.94206 18.94206 0 0 1-4.876-6.85909 24.31617 24.31617 0 0 1-1.77686-9.66962 22.60673 22.60673 0 0 1 1.77686-9.37958 18.153 18.153 0 0 1 11.28061-10.16445 24.66872 24.66872 0 0 1 7.60272-1.19816 22.96473 22.96473 0 0 1 7.97524 1.32233 19.19391 19.19391 0 0 1 6.19791 3.63619 16.18726 16.18726 0 0 1 4.04948 5.53675 16.97538 16.97538 0 0 1 1.446 7.024 5.641 5.641 0 0 1-1.57022 4.29782 7.85381 7.85381 0 0 1-4.37982 1.90056l-20.41231 3.058a6.86086 6.86086 0 0 0 3.71866 4.09024 14.58262 14.58262 0 0 0 6.44626 1.364 23.04364 23.04364 0 0 0 6.40456-.86828 20.31524 20.31524 0 0 0 4.91728-2.02473 6.94515 6.94515 0 0 1 2.23138 2.31385 6.06652 6.06652 0 0 1-2.56219 8.6781 18.4117 18.4117 0 0 1-5.95 1.90057A41.87757 41.87757 0 0 1 349.82053 358.05691zm-2.31432-32.47826a8.19831 8.19831 0 0 0-3.42954.66163 6.90519 6.90519 0 0 0-2.35509 1.69393 7.01535 7.01535 0 0 0-1.36357 2.31385 9.495 9.495 0 0 0-.537 2.603l14.13145-2.31385a6.25947 6.25947 0 0 0-1.81809-3.30537A6.09062 6.09062 0 0 0 347.50621 325.57865zM388.00047 356.6521a19.18634 19.18634 0 0 1-2.60343.49576 26.65646 26.65646 0 0 1-3.67742.24742 19.4635 19.4635 0 0 1-3.26414-.24742 5.55587 5.55587 0 0 1-2.438-.99152 4.76379 4.76379 0 0 1-1.529-2.02474 8.75435 8.75435 0 0 1-.537-3.34706v-24.7926a7.04408 7.04408 0 0 1 .7024-3.2646 7.652 7.652 0 0 1 2.02474-2.43709 14.60275 14.60275 0 0 1 3.26413-1.94227 33.72241 33.72241 0 0 1 4.17365-1.529 35.47958 35.47958 0 0 1 4.6277-1.03322 31.26766 31.26766 0 0 1 4.79311-.37159 11.27 11.27 0 0 1 6.28085 1.529 5.548 5.548 0 0 1 2.31385 4.99929 7.98248 7.98248 0 0 1-.33035 2.27308 10.40607 10.40607 0 0 1-.82657 2.02473q-1.7354 0-3.55325.165-1.81879.1668-3.55371.49576-1.73539.33081-3.2646.7024a14.33727 14.33727 0 0 0-2.603.86827zM421.13943 356.6521a19.18623 19.18623 0 0 1-2.60344.49576 26.65625 26.65625 0 0 1-3.67742.24742 19.46338 19.46338 0 0 1-3.26413-.24742 5.55577 5.55577 0 0 1-2.438-.99152 4.76379 4.76379 0 0 1-1.529-2.02474 8.75414 8.75414 0 0 1-.537-3.34706v-24.7926a7.044 7.044 0 0 1 .70241-3.2646 7.65187 7.65187 0 0 1 2.02473-2.43709 14.60306 14.60306 0 0 1 3.26414-1.94227 33.72284 33.72284 0 0 1 4.17364-1.529 35.48031 35.48031 0 0 1 4.6277-1.03322 31.26779 31.26779 0 0 1 4.79312-.37159 11.27 11.27 0 0 1 6.28085 1.529 5.548 5.548 0 0 1 2.31385 4.99929 7.98283 7.98283 0 0 1-.33035 2.27308 10.40608 10.40608 0 0 1-.82658 2.02473q-1.73538 0-3.55325.165-1.81878.1668-3.55371.49576-1.73539.33081-3.2646.7024a14.33688 14.33688 0 0 0-2.603.86827zM448.65777 346.48672q-.91044-2.06412-1.94227-4.6277-1.03415-2.56035-2.14844-5.86757-1.11615-3.304-2.31432-7.56149-1.19885-4.25472-2.52049-9.79286a10.71648 10.71648 0 0 1 7.3553-2.89208 8.84781 8.84781 0 0 1 4.79312 1.19816 7.35777 7.35777 0 0 1 2.80961 4.50353l6.52873 22.72616h.33081q.99175-2.80776 1.9418-6.115.94936-3.304 1.85933-6.81831.90836-3.5111 1.69439-7.024.78463-3.51247 1.36357-6.90078a13.77626 13.77626 0 0 1 6.52873-1.56975 8.60887 8.60887 0 0 1 4.79311 1.23893q1.9001 1.23985 1.90056 4.29782a27.19311 27.19311 0 0 1-.57823 5.16516q-.57961 2.93424-1.529 6.23915-.95074 3.30676-2.23138 6.81738-1.28226 3.51387-2.68591 6.90079-1.406 3.39015-2.89254 6.405-1.48728 3.01764-2.89209 5.41258a58.05129 58.05129 0 0 1-4.29735 6.61167 23.56423 23.56423 0 0 1-3.80159 4.00777 10.86716 10.86716 0 0 1-3.63619 1.984 13.36383 13.36383 0 0 1-3.80159.53654 7.77362 7.77362 0 0 1-5.61968-2.06551 8.68744 8.68744 0 0 1-2.56174-5.37181q2.64375-2.06689 5.28887-4.58693a55.54859 55.54859 0 0 0 4.79358-5.16516 7.77869 7.77869 0 0 1-3.01672-1.94134A19.1252 19.1252 0 0 1 448.65777 346.48672zM132.48062 415.906q-6.364 0-9.75163 3.8836-3.38947 3.88638-3.38831 10.992 0 7.189 3.76036 11.0735 3.75919 3.885 10.12368 3.88453a16.00444 16.00444 0 0 0 5.74339-.90905 39.43275 39.43275 0 0 0 4.504-2.06644 8.23086 8.23086 0 0 1 2.19014 2.76884 8.49963 8.49963 0 0 1 .78488 3.75943q0 3.39016-3.76036 5.74432-3.76128 2.35462-11.44555 2.35463a33.78641 33.78641 0 0 1-10.4128-1.56975 23.21 23.21 0 0 1-8.51223-4.83435 22.79742 22.79742 0 0 1-5.74339-8.26482 30.64689 30.64689 0 0 1-2.10721-11.94084 29.65182 29.65182 0 0 1 2.02473-11.36354 24.13415 24.13415 0 0 1 5.53675-8.30559 23.30043 23.30043 0 0 1 8.22266-5.12347 28.92243 28.92243 0 0 1 10.08244-1.73562q7.6025 0 11.77637 2.4788 4.172 2.47972 4.17318 6.36425a6.42791 6.42791 0 0 1-1.074 3.71866 8.841 8.841 0 0 1-2.47926 2.47879 26.92466 26.92466 0 0 0-4.58693-2.39632A14.93634 14.93634 0 0 0 132.48062 415.906zM192.726 455.82155a19.19273 19.19273 0 0 1-2.603.49576 26.66815 26.66815 0 0 1-3.67789.24741 19.46353 19.46353 0 0 1-3.26413-.24741 5.55589 5.55589 0 0 1-2.438-.99152 4.76379 4.76379 0 0 1-1.529-2.02474 8.75439 8.75439 0 0 1-.537-3.34707V431.60719q0-3.38739-1.69392-4.75188a6.44512 6.44512 0 0 0-4.17364-1.36311 11.69082 11.69082 0 0 0-3.14043.41329 9.021 9.021 0 0 0-2.39632.99152v28.92454a19.18792 19.18792 0 0 1-2.60343.49576 26.65648 26.65648 0 0 1-3.67742.24741 19.46357 19.46357 0 0 1-3.26414-.24741 5.556 5.556 0 0 1-2.438-.99152 4.76379 4.76379 0 0 1-1.529-2.02474 8.74533 8.74533 0 0 1-.537-3.34707v-47.932q.90834-.164 2.6859-.45406a22.33177 22.33177 0 0 1 3.59449-.29 19.4827 19.4827 0 0 1 3.26459.24834 5.56288 5.56288 0 0 1 2.438.99152 4.776 4.776 0 0 1 1.52851 2.02474 8.78443 8.78443 0 0 1 .53746 3.34707v8.09894a29.46867 29.46867 0 0 1 3.26413-.95074 20.30588 20.30588 0 0 1 4.83435-.53653q8.18211 0 12.76835 4.09024 4.58623 4.09071 4.58647 12.19012zM215.45171 455.82155a19.18792 19.18792 0 0 1-2.60343.49576 26.65648 26.65648 0 0 1-3.67742.24741 19.46357 19.46357 0 0 1-3.26414-.24741 5.556 5.556 0 0 1-2.438-.99152 4.76379 4.76379 0 0 1-1.529-2.02474 8.75441 8.75441 0 0 1-.537-3.34707V425.16139a7.04406 7.04406 0 0 1 .7024-3.2646 7.65218 7.65218 0 0 1 2.02474-2.4371 14.60312 14.60312 0 0 1 3.26413-1.94226 33.72462 33.72462 0 0 1 4.17365-1.529 35.47957 35.47957 0 0 1 4.6277-1.03321 31.26766 31.26766 0 0 1 4.79311-.37159 11.27 11.27 0 0 1 6.28085 1.529 5.548 5.548 0 0 1 2.31385 4.99929 7.98258 7.98258 0 0 1-.33035 2.27308 10.40607 10.40607 0 0 1-.82657 2.02473q-1.7354 0-3.55325.16495-1.81879.16679-3.55371.49576-1.73539.33081-3.2646.7024a14.33727 14.33727 0 0 0-2.603.86827zM235.03744 404.58414a7.26448 7.26448 0 0 1 2.10721-5.28934 8.31456 8.31456 0 0 1 11.15644 0 7.69089 7.69089 0 0 1 0 10.57775 8.31456 8.31456 0 0 1-11.15644 0A7.25786 7.25786 0 0 1 235.03744 404.58414zm14.70969 51.23741q-.90975.164-2.68544.45406a22.36686 22.36686 0 0 1-3.595.28911 19.46929 19.46929 0 0 1-3.2646-.24741 5.5518 5.5518 0 0 1-2.43756-.99152 4.76387 4.76387 0 0 1-1.529-2.02474 8.74471 8.74471 0 0 1-.53745-3.34707V416.31927q.909-.16541 2.6859-.455a22.44785 22.44785 0 0 1 3.595-.28911 19.389 19.389 0 0 1 3.2646.24834 5.56086 5.56086 0 0 1 2.43756.99152 4.78067 4.78067 0 0 1 1.529 2.02473 8.77878 8.77878 0 0 1 .537 3.34707zM292.55524 443.92147a11.62688 11.62688 0 0 1-4.71064 9.83364q-4.71063 3.5528-13.884 3.55372a39.24248 39.24248 0 0 1-6.44579-.49576 18.4588 18.4588 0 0 1-5.08223-1.529 9.08008 9.08008 0 0 1-3.30583-2.603 5.9487 5.9487 0 0 1-1.19817-3.71866 6.344 6.344 0 0 1 .82612-3.34707 8.35758 8.35758 0 0 1 1.9835-2.27307 32.87265 32.87265 0 0 0 5.49551 2.35555 22.57294 22.57294 0 0 0 7.14866 1.03321 8.35194 8.35194 0 0 0 3.9253-.7441 2.22718 2.22718 0 0 0 1.36357-1.983 2.07426 2.07426 0 0 0-.99152-1.8181 9.236 9.236 0 0 0-3.30583-1.07491l-2.47926-.49576q-7.18966-1.40388-10.70191-4.42106-3.51318-3.01626-3.512-8.63641a11.403 11.403 0 0 1 5.041-9.66869 18.6564 18.6564 0 0 1 5.74339-2.5622 28.22288 28.22288 0 0 1 7.39654-.909 34.5392 34.5392 0 0 1 5.7434.455 18.75551 18.75551 0 0 1 4.6694 1.36311 8.45746 8.45746 0 0 1 3.14042 2.35555 5.32779 5.32779 0 0 1 1.15693 3.42954 7.05615 7.05615 0 0 1-.7024 3.2646 7.33905 7.33905 0 0 1-1.77686 2.27215 10.25262 10.25262 0 0 0-1.9835-.86734q-1.32256-.45313-2.89255-.82658-1.57066-.37112-3.18166-.61993a19.48137 19.48137 0 0 0-2.93378-.24742 11.32938 11.32938 0 0 0-4.21442.61994 2.05435 2.05435 0 0 0-1.48774 1.94133 1.74758 1.74758 0 0 0 .82658 1.48821 9.48875 9.48875 0 0 0 3.14042 1.074l2.56173.57823q7.9333 1.81948 11.28061 5.00022A10.83818 10.83818 0 0 1 292.55524 443.92147zM313.37991 442.10338a3.39772 3.39772 0 0 0 1.36357 3.057 6.88515 6.88515 0 0 0 3.84283.909 16.54957 16.54957 0 0 0 2.56173-.20664 14.23338 14.23338 0 0 0 2.31385-.53653 10.14665 10.14665 0 0 1 1.2811 2.02474 6.149 6.149 0 0 1 .53745 2.68543 6.38774 6.38774 0 0 1-2.35555 5.12347q-2.35532 1.9835-8.30558 1.984-7.27308 0-11.19768-3.3063-3.926-3.304-3.9253-10.74268V407.72456q.90835-.2488 2.603-.53745a21.35 21.35 0 0 1 3.59495-.28912 10.57838 10.57838 0 0 1 5.66092 1.28063q2.02382 1.283 2.02474 5.41351v5.28841H324.206a14.24916 14.24916 0 0 1 .95028 2.27308 9.52126 9.52126 0 0 1 .45453 3.01625 5.734 5.734 0 0 1-1.2811 4.17364 4.63467 4.63467 0 0 1-3.42954 1.28064h-7.52025zM351.64232 414.50118a23.70957 23.70957 0 0 1 6.65244.94982 16.37643 16.37643 0 0 1 5.66093 2.85131 24.44244 24.44244 0 0 1 5.57845-2.72714 22.96967 22.96967 0 0 1 7.479-1.074 23.25979 23.25979 0 0 1 6.15668.82564 15.73847 15.73847 0 0 1 5.37181 2.6039 12.59236 12.59236 0 0 1 3.75989 4.71017 16.45872 16.45872 0 0 1 1.40527 7.1482v26.03246a19.18792 19.18792 0 0 1-2.60343.49576 26.65648 26.65648 0 0 1-3.67742.24741 19.47319 19.47319 0 0 1-3.2646-.24741 5.55636 5.55636 0 0 1-2.43756-.99152 4.76379 4.76379 0 0 1-1.529-2.02474 8.74533 8.74533 0 0 1-.537-3.34707v-19.7516a4.31679 4.31679 0 0 0-1.40527-3.59449 5.94714 5.94714 0 0 0-3.80113-1.11569 6.609 6.609 0 0 0-2.47926.53746 7.12793 7.12793 0 0 0-1.9835 1.11569 2.60753 2.60753 0 0 1 .08247.619v28.05719a23.1762 23.1762 0 0 1-2.6859.49576 26.04623 26.04623 0 0 1-3.59449.24741 19.46938 19.46938 0 0 1-3.2646-.24741 5.556 5.556 0 0 1-2.438-.99152 4.7629 4.7629 0 0 1-1.52851-2.02474 8.7445 8.7445 0 0 1-.53746-3.34707v-19.7516a4.15126 4.15126 0 0 0-1.52852-3.59449 6.06988 6.06988 0 0 0-3.67788-1.11569 6.5669 6.5669 0 0 0-2.56173.45406 19.41173 19.41173 0 0 0-1.81809.86828v29.007a19.18792 19.18792 0 0 1-2.60343.49576 26.65652 26.65652 0 0 1-3.67743.24741 19.46353 19.46353 0 0 1-3.26413-.24741 5.55589 5.55589 0 0 1-2.438-.99152 4.76379 4.76379 0 0 1-1.529-2.02474 8.7542 8.7542 0 0 1-.537-3.34707V424.99644a5.97142 5.97142 0 0 1 .95029-3.55371 10.76516 10.76516 0 0 1 2.60343-2.47972 23.80587 23.80587 0 0 1 6.98279-3.2229A30.48226 30.48226 0 0 1 351.64232 414.50118zM418.82882 414.50118a33.9346 33.9346 0 0 1 8.14018.909 18.24928 18.24928 0 0 1 6.28085 2.76791 12.49861 12.49861 0 0 1 4.00777 4.71111 15.08115 15.08115 0 0 1 1.40481 6.73491v18.51174a5.12527 5.12527 0 0 1-1.19816 3.512 11.96679 11.96679 0 0 1-2.85085 2.35555q-5.373 3.22337-15.12344 3.2229a34.56608 34.56608 0 0 1-7.8923-.82657 18.69717 18.69717 0 0 1-6.033-2.4788 11.36962 11.36962 0 0 1-3.88407-4.21534 12.471 12.471 0 0 1-1.36356-5.95q0-5.7017 3.3883-8.75965 3.38808-3.05656 10.49527-3.80205l10.82608-1.15646v-.57824a3.54287 3.54287 0 0 0-2.1072-3.42954 14.18535 14.18535 0 0 0-6.07421-1.03322 28.13942 28.13942 0 0 0-6.11545.66071 32.564 32.564 0 0 0-5.3718 1.65315 5.721 5.721 0 0 1-1.8181-2.27308 7.18161 7.18161 0 0 1-.74364-3.1812 5.297 5.297 0 0 1 1.03322-3.42954 8.00019 8.00019 0 0 1 3.18166-2.19061 24.8954 24.8954 0 0 1 5.66093-1.32141A49.17505 49.17505 0 0 1 418.82882 414.50118zM419.49 446.9785a18.45946 18.45946 0 0 0 3.09919-.28912 7.53522 7.53522 0 0 0 2.5205-.78487v-6.61167l-5.9505.49576a9.165 9.165 0 0 0-3.80113.99245 2.66953 2.66953 0 0 0-1.48774 2.47879 3.28645 3.28645 0 0 0 1.2811 2.68637Q416.43156 446.98036 419.49 446.9785zM481.13973 443.92147a11.6269 11.6269 0 0 1-4.71064 9.83364q-4.71064 3.5528-13.884 3.55372a39.2426 39.2426 0 0 1-6.4458-.49576 18.45862 18.45862 0 0 1-5.08222-1.529 9.0802 9.0802 0 0 1-3.30584-2.603 5.94869 5.94869 0 0 1-1.19816-3.71866 6.344 6.344 0 0 1 .82611-3.34707 8.35775 8.35775 0 0 1 1.9835-2.27307 32.87241 32.87241 0 0 0 5.49552 2.35555 22.5729 22.5729 0 0 0 7.14866 1.03321 8.352 8.352 0 0 0 3.9253-.7441 2.2272 2.2272 0 0 0 1.36357-1.983 2.07426 2.07426 0 0 0-.99152-1.8181 9.23609 9.23609 0 0 0-3.30583-1.07491l-2.47926-.49576q-7.18967-1.40388-10.70192-4.42106-3.51316-3.01626-3.512-8.63641a11.403 11.403 0 0 1 5.041-9.66869 18.65661 18.65661 0 0 1 5.74339-2.5622 28.2229 28.2229 0 0 1 7.39655-.909 34.53907 34.53907 0 0 1 5.74339.455 18.75539 18.75539 0 0 1 4.6694 1.36311 8.4575 8.4575 0 0 1 3.14043 2.35555 5.32784 5.32784 0 0 1 1.15693 3.42954 7.056 7.056 0 0 1-.70241 3.2646 7.339 7.339 0 0 1-1.77685 2.27215 10.25262 10.25262 0 0 0-1.9835-.86734q-1.32256-.45313-2.89255-.82658-1.57068-.37112-3.18166-.61993a19.48139 19.48139 0 0 0-2.93379-.24742 11.32932 11.32932 0 0 0-4.21441.61994 2.05435 2.05435 0 0 0-1.48774 1.94133 1.74757 1.74757 0 0 0 .82657 1.48821 9.48892 9.48892 0 0 0 3.14043 1.074l2.56173.57823q7.93331 1.81948 11.28061 5.00022A10.83818 10.83818 0 0 1 481.13973 443.92147z"/></svg>