<svg xmlns="http://www.w3.org/2000/svg" data-name="Layer 1" viewBox="0 0 512 512"><path fill="#fcfafa" d="M505.69773,192.1482a18.9101,18.9101,0,0,0-22.67894-11.62343c-1.9083.14406-19.73821.48666-49.9437-34.18508a18.8338,18.8338,0,0,0-15.79464-6.611,18.49063,18.49063,0,0,0-14.38037,8.81338c-1.20926,1.75455-14.49858,20.09236-41.979,20.98995,2.29246-13.25054,13.58575-25.88976,33.34567-37.10225a18.91214,18.91214,0,0,0,1.68068-31.822c-1.06243-.94192-6.978-7.19643.45618-24.20539A18.9125,18.9125,0,0,0,362.6872,59.38608c-1.25128,1.45812-13.65871,14.26264-59.52078,10.96685A18.69825,18.69825,0,0,0,282.91893,86.8263a85.30123,85.30123,0,0,0-14.98986-7.479c-16.17232-6.02549-32.328-5.15284-48.08157,2.58288-.06556-.01385-.133-.0277-.20316-.04248-11.42765-2.424-22.00066-1.315-31.15386,3.09632a97.0992,97.0992,0,0,0-26.94434-35.86391c-11.3427-9.5743-28.34843-14.80747-46.66316-14.3125-18.58391.48481-35.08636,6.74762-45.2766,17.18165-11.34455,11.616-17.10593,26.24159-16.22312,41.182.76416,12.92733,6.48676,25.46774,16.35286,36.176C25.04037,156.65828,2.79684,196.9926,5.28738,246.53368c1.79287,35.66906,24.15506,69.0923,58.36,87.22787a100.19929,100.19929,0,0,0,46.78643,12.147,81.78787,81.78787,0,0,0,31.86377-6.29883,18.90979,18.90979,0,0,0-3.97244,14.4972c.39293,2.75741.941,5.94053,1.6285,9.45886.664,3.39736,1.37317,6.76887,2.10685,10.01386.77061,3.414,1.56986,6.60819,2.37187,9.481a57.74725,57.74725,0,0,0,2.949,8.53357c.03555.07757.072.15514.1085.23271a23.64139,23.64139,0,0,0,13.33319,11.98819c.39016.14914.78747.28627,1.18663.42017-.05656.02955-.1152.05494-.17176.085a33.64033,33.64033,0,0,0-15.14591.13759,26.645,26.645,0,0,0-13.7095-3.64115,28.65226,28.65226,0,0,0-20.05819,8.16235,18.91191,18.91191,0,0,0-5.35922,16.04858c.39292,2.75741.941,5.94053,1.6285,9.45887.66395,3.39736,1.37316,6.76886,2.10684,10.01386.77062,3.414,1.56986,6.60818,2.37187,9.481a57.74841,57.74841,0,0,0,2.949,8.53357c.03555.07757.072.15514.10851.23271a23.64143,23.64143,0,0,0,13.33318,11.98819,33.75972,33.75972,0,0,0,12.09485,2.11192,33.32227,33.32227,0,0,0,9.93906-1.42765q1.3353-.41832,2.58935-.941a31.2502,31.2502,0,0,0,12.51732,2.36864,37.62537,37.62537,0,0,0,9.409-1.16816,30.13147,30.13147,0,0,0,5.48389-1.9808,24.26517,24.26517,0,0,0,7.063,2.34925,36.59836,36.59836,0,0,0,6.17232.49959,39.57287,39.57287,0,0,0,6.32654-.51159q1.81941-.29781,2.751-.46634a18.97313,18.97313,0,0,0,3.00212-.81033,37.70761,37.70761,0,0,0,6.69638,1.75594,54.7629,54.7629,0,0,0,8.97729.7092,43.79393,43.79393,0,0,0,17.54-3.28885,24.36423,24.36423,0,0,0,6.5971,2.11238,41.02613,41.02613,0,0,0,12.135.09142,34.19664,34.19664,0,0,0,5.16022-1.05827q.543-.16206,1.07027-.35368a24.8272,24.8272,0,0,0,4.80239,1.32146,36.67469,36.67469,0,0,0,6.16909.49866,43.343,43.343,0,0,0,5.96362-.40817,34.116,34.116,0,0,0,5.1593-1.05827,18.87084,18.87084,0,0,0,3.80921-1.62157,39.24531,39.24531,0,0,0,3.89834,1.51168,45.32967,45.32967,0,0,0,14.11165,2.17749,57.16759,57.16759,0,0,0,8.4403-.66026,36.12889,36.12889,0,0,0,9.36791-2.70755,36.07816,36.07816,0,0,0,9.09041,2.73433,54.76308,54.76308,0,0,0,8.97729.7092c9.7396,0,17.8216-2.37141,24.02255-7.04682a30.36369,30.36369,0,0,0,9.017-36.7615,26.07835,26.07835,0,0,0,.98947-7.21951,23.67832,23.67832,0,0,0-5.21055-14.95245,26.45929,26.45929,0,0,0-9.735-7.50577,35.34614,35.34614,0,0,0-7.7034-2.44021,18.90343,18.90343,0,0,0,7.75649-15.26043V362.34593a33.737,33.737,0,0,0-3.137-14.68281A30.28691,30.28691,0,0,0,352.28,336.446c-.55407-.41739-1.12522-.8094-1.70353-1.18986a18.13732,18.13732,0,0,0,11.35032-3.87063,30.83609,30.83609,0,0,1,11.66313-4.48887c7.74726-1.18386,14.49535,1.4138,21.22774,8.17158a18.9123,18.9123,0,0,0,28.263-1.653c.09189-.11912,9.75484-11.66221,27.59075-7.83083a18.99623,18.99623,0,0,0,21.34178-10.699,18.77475,18.77475,0,0,0-5.99963-22.90611c-4.33143-3.3558-13.1051-12.65768-12.956-20.35277a18.87389,18.87389,0,0,0-21.60543-19.08672,83.255,83.255,0,0,1-18.118.33059c10.42849-3.32164,24.0932-2.7768,40.585,1.72038a18.91131,18.91131,0,0,0,23.48372-22.13686c-.00092-.00555.796-2.82483.85142-2.96612,1.94109-4.98107,7.865-9.64171,16.67976-13.125A18.91242,18.91242,0,0,0,505.69773,192.1482Zm-61.87464,21.84136c-50.6169-6.68483-73.09452,20.42757-80.85424,33.55807a18.91082,18.91082,0,0,0,.91236,20.6418,45.04505,45.04505,0,0,0,6.16632,6.94525c13.86278,12.71032,34.28112,15.645,48.98193,15.86851.073.18377.14637.36476.22117.54668a67.48773,67.48773,0,0,0-11.48445,5.82972c-18.28286-11.05828-36.98174-9.96307-51.17189-5.18608a61.36336,61.36336,0,0,0-30.06143-18.38859,18.91238,18.91238,0,0,0-24.92429-2.25229,18.91878,18.91878,0,0,0-15.006.36384,18.91853,18.91853,0,0,0-17.89317-7.85392c-.14221.01847-.284.03786-.434.06a18.91623,18.91623,0,0,0-14.22986,9.61309,37.78063,37.78063,0,0,0-4.25478,12.17841c-7.943-.11266-13.77136-2.04543-19.12782-5.99409a18.92564,18.92564,0,0,0-13.559-3.54327c-1.49506.18654-2.78465.44141-3.82076.64642-.11682.02308-.2461.04894-.37584.07387-32.13134-4.32173-55.5181,9.96954-76.19038,22.60968q-2.014,1.23141-4.05024,2.47022c-13.96759,8.47816-33.1462,7.792-51.30117-1.833-22.15672-11.74717-37.1909-33.6144-38.30181-55.70879-1.88706-37.54365,16.00842-66.78737,53.18962-86.92036.79094-.42848,1.556-.8311,2.28738-1.21711,6.40734-3.37981,17.13179-9.03685,18.37752-21.85614,1.32838-13.66794-9.63848-22.521-14.90859-26.77534-6.68206-5.39478-10.54161-11.40549-10.868-16.92678-.25348-4.29588,1.60542-8.50864,5.52545-12.52287,2.5561-2.61705,9.656-5.54807,19.20354-5.7974q.64619-.018,1.28959-.01754c8.28563,0,16.0315,2.08237,19.98663,5.42155a59.27289,59.27289,0,0,1,17.5501,24.2488c2.43652,6.38471,7.5067,19.67034,22.05931,26.97758a18.91,18.91,0,0,0,24.07564-6.19541c2.744-3.99483,4.87534-5.45572,10.9664-4.16474,6.50522,1.3824,14.98615,2.39542,22.88717-2.04175,13.78891-7.74033,22.94026-3.3438,45.24428,14.7456,2.7274,2.21258,5.58085,4.307,8.72334,6.40134a18.91241,18.91241,0,0,0,28.48557-9.9169,92.371,92.371,0,0,0,4.03361-19.40716,145.50277,145.50277,0,0,0,35.24243-4.58214,51.65978,51.65978,0,0,0,2.0676,6.66267c-40.7651,31.04721-37.44439,66.23608-33.6167,81.06479A18.91168,18.91168,0,0,0,339.86744,205.709c.18607.03324.3703.06371.494.08218a18.16419,18.16419,0,0,0,3.26254.27057,18.89722,18.89722,0,0,0,3.19928.64364,109.20569,109.20569,0,0,0,12.32525.70736,91.88685,91.88685,0,0,0,59.65882-21.22635,145.5032,145.5032,0,0,0,28.24686,21.61974A51.70115,51.70115,0,0,0,443.82309,213.98956Z"/><path fill="#26a526" d="M258.74969,279.65261s-19.23583-6.21468-40.24147,12.47264c0,0-20.86247-30.81945-56.20514-13.51016,0,0-8.79515-25.29379-39.12825-28.95774,0,0,24.83984-7.96563,31.05452-27.20145,0,0,36.95311,19.14393,56.97251,4.22866,0,0,10.392,16.46622,51.29013,20.522l13.55345,22.508Z"/><path fill="#26a526" d="M211.6396,237.70347s4.44752-51.46305-69.429-56.31856c0,0,12.632-21.11375-15.25845-44.99976,0,0,21.78656,17.31195,78.4321-15.28819,0,0,12.08085,50.80644,76.75417,52.78159,0,0-20.19232,30.9897,12.06465,62.65489l-5.99581,24.74528-27.92288-.18912S252.08373,242.58874,211.6396,237.70347Z"/><path fill="#1b8d25" d="M211.6396 237.70347a41.23385 41.23385 0 0 0-.91681-10.67908 26.05976 26.05976 0 0 1-4.69471 2.64053 42.37621 42.37621 0 0 1 1.22881 12.10783c40.44413 4.88526 48.64484 23.38612 48.64484 23.38612l17.47173.11832-2.47833-4.11573-10.6107-.07186S252.08373 242.58874 211.6396 237.70347zM247.07422 263.562c-4.83545-.99023-9.675-1.94775-14.52979-2.82715l-7.27832-1.33154-7.29174-1.25342c-9.72828-1.63183-19.47706-3.13818-29.25733-4.40674-9.76684-1.37353-19.57519-2.42285-29.39331-3.34863l-7.36816-.65967-7.37964-.51465c-4.91675-.43066-9.84961-.5332-14.7771-.85351 9.86914.09766 19.74585.45459 29.58984 1.26123q14.76929 1.15211 29.4607 3.125c9.78271 1.35352 19.54736 2.84668 29.25781 4.64258C227.81616 259.19385 237.49341 261.17969 247.07422 263.562zM149.51343 149.01172s.012-.00147.00854.00439l16.40625 6.33155c5.35865 2.375 10.68555 4.83545 16.01343 7.2915l7.77881 4.11963c2.57593 1.4043 5.22143 2.687 7.68652 4.28711l7.5127 4.59619 1.87671 1.15137 1.80517 1.2622 3.61035 2.52393c4.885 3.26953 9.3667 7.08789 13.91773 10.7959l6.49292 5.96094c2.09448 2.05859 4.07446 4.23584 6.10351 6.35839 1.95264 2.19385 3.77832 4.502 5.65992 6.75489l2.5852 3.56933 1.292 1.78418c.40943.60889.79029 1.23828 1.18262 1.85889a61.66844 61.66844 0 0 1 7.63135 15.80176 63.73491 63.73491 0 0 0-8.04151-15.53369c-.40625-.60645-.78955-1.229-1.20752-1.82764l-1.31347-1.75488-2.62549-3.50782c-1.9082-2.21289-3.75757-4.47754-5.73218-6.62744-2.05713-2.07519-4.051-4.21094-6.1355-6.25488l-6.48657-5.89307c-4.54712-3.66552-9.02246-7.437-13.8999-10.66894l-3.57959-2.53076-1.79-1.26514-1.86255-1.15625-7.45849-4.61572c-2.44678-1.60645-5.07715-2.898-7.63721-4.311l-7.70923-4.19336c-5.2727-2.53222-10.55273-5.064-15.86279-7.52783l-16.21338-6.77881-.00025-.00049C149.5249 149.01025 149.51343 149.01172 149.51343 149.01172z"/><path fill="#26a526" d="M316.69587,291.2748s20.211.39266,33.98074,24.90485c0,0,29.76652-22.3391,57.53978,5.5421,0,0,16.55728-21.04726,46.42869-14.627,0,0-20.8884-15.6251-20.49574-35.83611,0,0-41.17436,6.05758-55.24083-14.56707,0,0-15.19048,12.18115-55.17789,2.68858l-20.14808,16.863Z"/><path fill="#26a526" d="M374.90407,266.96647s12.56484-50.1034,83.99126-30.62071c0,0-5.06248-24.07757,29.08913-37.57154,0,0-26.23865,9.26773-69.16942-40.01143,0,0-27.97712,44.09674-89.76412,24.8898,0,0,8.992,35.87808-31.8227,55.30377l-2.39488,25.34844,26.46044,8.92007S335.07552,258.40607,374.90407,266.96647Z"/><path fill="#1b8d25" d="M374.90407 266.96647a41.23407 41.23407 0 0 1 4.34663-9.79746 26.05874 26.05874 0 0 0 3.578 4.02621 42.37646 42.37646 0 0 0-5.10717 11.04655c-39.82855-8.5604-53.61029 6.25841-53.61029 6.25841l-16.55666-5.58143 3.6842-3.08351 10.055 3.38963S335.07552 258.40607 374.90407 266.96647zM346.93807 196.99123A41.234 41.234 0 0 1 343.48 186.846a26.05892 26.05892 0 0 0 5.36039.52809 42.37634 42.37634 0 0 0 3.7474 11.57871c-35.05908 20.74742-35.12154 40.98425-35.12154 40.98425l-15.94705 7.13913.6126-4.76509 9.68474-4.33565S311.879 217.73864 346.93807 196.99123zM332.97729 279.86719c9.83423.86963 19.63038 2.14551 29.39527 3.60888 9.76587 1.4668 19.48413 3.23633 29.17383 5.145q14.51843 2.94507 28.87085 6.64551c9.56982 2.44483 19.02368 5.32569 28.38574 8.44971-4.7627-1.30274-9.45972-2.81348-14.24829-4.00879l-7.14478-1.918-7.18091-1.77734c-9.584-2.32422-19.19873-4.52783-28.88012-6.41211-9.65967-1.9878-19.36743-3.74024-29.09644-5.36768l-7.30224-1.19092-7.315-1.11279C342.759 281.17822 337.87134 280.50635 332.97729 279.86719zM462.54028 203.35986s-.01049-.00488-.00927.00147l-.00025.00049-17.53735 1.12548c-5.82324.59913-11.63989 1.272-17.44995 1.94825l-8.655 1.45215c-2.88062.50146-5.78833.86523-8.62525 1.58691L401.708 211.4082l-2.1377.48584-2.10473.61328-4.20874 1.22608c-5.66431 1.46631-11.12452 3.57324-16.61768 5.55713l-8.053 3.458c-2.63672 1.25292-5.21777 2.62255-7.83887 3.91406-2.56738 1.38916-5.05371 2.92773-7.57885 4.39746l-3.62525 2.46142-1.81347 1.231c-.59034.42969-1.15552.89307-1.73731 1.33447a63.72435 63.72435 0 0 0-12.66431 12.06543 61.66971 61.66971 0 0 1 12.36377-12.45263c.57325-.459 1.13843-.92969 1.72388-1.37256l1.80274-1.26563 3.60742-2.53222c2.51294-1.5166 4.99121-3.104 7.552-4.54151 2.61011-1.3457 5.19116-2.75879 7.84228-4.02295l8.08106-3.519c5.51074-2.02295 10.99219-4.17236 16.676-5.67139l4.23584-1.21 2.11768-.605 2.14966-.47754 8.6001-1.897c2.852-.70947 5.77124-1.06006 8.66406-1.54834l8.69653-1.36035c5.8374-.58545 11.67554-1.17578 17.51563-1.67529l17.574-.63965C462.52954 203.35449 462.54028 203.35986 462.54028 203.35986z"/><path fill="#26a526" d="M346.95351,196.91219s-26.41205-44.39178,37.97921-80.93045c0,0-20.56511-13.50684-5.858-47.15382,0,0-12.07476,25.07105-77.26341,20.38843,0,0,11.24688,50.99754-46.11366,80.936,0,0,31.67132,19.10549,16.42057,61.65676l16.17228,19.66561,25.05453-12.32856S312.67184,218.92039,346.95351,196.91219Z"/><path fill="#1b8d25" d="M364.26245,90.01807s-.011.0039-.00537.00781v.00049l-11.644,13.16211c-3.70728,4.53027-7.3584,9.1084-11.0022,13.68408l-5.114,7.13183c-1.6897,2.38623-3.49512,4.69434-4.99829,7.20606l-4.70435,7.40283-1.17358,1.85156-1.06031,1.91846-2.1206,3.83691c-2.98316,5.0337-5.37036,10.377-7.86743,15.65674l-3.2732,8.12989c-.98681,2.74707-1.85156,5.53857-2.8,8.30224-.84155,2.79492-1.52,5.63916-2.27465,8.46192l-.8357,4.30127-.41846,2.15185c-.11572.7207-.18969,1.44776-.29125,2.1709a63.73484,63.73484,0,0,0-.47535,17.48535,61.6746,61.6746,0,0,1-.01074-17.54834c.083-.72949.15186-1.46142.25513-2.18848l.38623-2.16845.77319-4.33887c.71289-2.84766,1.35156-5.72021,2.154-8.54541.90235-2.79443,1.73682-5.61621,2.72559-8.38184l3.25-8.19287c2.48218-5.31982,4.85425-10.70849,7.82837-15.77881l2.15088-3.84472,1.07544-1.92188,1.188-1.854,4.762-7.40869c1.52246-2.51367,3.34546-4.82031,5.053-7.20606l5.20874-7.0957c3.7268-4.53076,7.45117-9.06494,11.24072-13.53662l12.0127-12.84375C364.251,90.022,364.26245,90.01807,364.26245,90.01807Z"/><ellipse cx="303.428" cy="278.77" fill="#e6786e" rx="13.711" ry="12.293" transform="rotate(-61.311 303.428 278.77)"/><ellipse cx="313.571" cy="256.295" fill="#d64142" rx="13.711" ry="12.293" transform="rotate(-61.311 313.571 256.295)"/><path fill="#b8303c" d="M306.53525,269.15245a11.38286,11.38286,0,0,0,7.39336,1.198q-.24741-.3681-.52228-.71543a11.25949,11.25949,0,0,1-6.41714-1.31209,11.1132,11.1132,0,0,1-3.39989-2.89564c-.325.0276-.6492.06318-.97259.11695A11.18032,11.18032,0,0,0,306.53525,269.15245Z"/><ellipse cx="275.178" cy="241.752" fill="#d64142" rx="13.711" ry="12.293" transform="rotate(-61.311 275.178 241.752)"/><ellipse cx="299.358" cy="239.724" fill="#e6786e" rx="13.27" ry="14.911" transform="rotate(-69.456 299.358 239.724)"/><path fill="#b8303c" d="M286.61762 246.29277c.06541-.15355.11711-.30921.177-.46367a12.69858 12.69858 0 0 1-1.399-11.33778c.12283-.32773.2705-.63931.41893-.95021-.19447-.303-.40092-.59684-.62254-.88029a11.91858 11.91858 0 0 0-.62592 1.37656A12.83948 12.83948 0 0 0 286.61762 246.29277zM301.27055 254.47525c5.56033-.14688 10.54178-3.207 12.42615-8.2351a11.78725 11.78725 0 0 0 .71708-3.3332c-.181.005-.36144.01834-.54232.0316a11.7234 11.7234 0 0 1-.55035 2.01814c-1.80233 4.80913-6.43792 7.81906-11.70311 8.20147Q301.41219 253.81452 301.27055 254.47525z"/><ellipse cx="269.145" cy="266.346" fill="#e6786e" rx="16.648" ry="16.602" transform="rotate(-27.731 269.146 266.346)"/><path fill="#b8303c" d="M279.89806,253.65264a13.97149,13.97149,0,0,0,1.64445-.99314,16.63715,16.63715,0,0,0-17.45372-3.45761,11.82936,11.82936,0,0,0,.693,1.13084A16.65222,16.65222,0,0,1,279.89806,253.65264Z"/><ellipse cx="283.573" cy="283.535" fill="#d64142" rx="13.239" ry="12.293" transform="rotate(-61.311 283.573 283.535)"/><path fill="#b8303c" d="M271.96 277.18023a13.99649 13.99649 0 0 0-1.68616 5.73c.29306-.02036.58526-.05718.87816-.09335a14.01145 14.01145 0 0 1 1.63752-5.18269 13.25952 13.25952 0 0 1 12.41982-7.07234c.03229-.12141.06555-.24243.09506-.36451A13.18992 13.18992 0 0 0 271.96 277.18023zM294.527 289.0886c.22765.21662.4665.42193.71372.62.13343-.21582.27655-.42205.39993-.6475 3.17408-5.80026 1.8442-12.75634-2.84168-16.44689-.04971.08687-.1066.16667-.15489.25492-.13806.25229-.25292.50991-.37516.76586A13.03387 13.03387 0 0 1 294.527 289.0886z"/><path fill="#d64142" d="M303.13315,252.96564a16.64776,16.64776,0,0,1-29.47128,15.49279c-4.26635-8.11571-.97083-22.389,7.16744-26.66718C289.59253,237.1845,297.24028,241.75588,303.13315,252.96564Z"/><path fill="#b8303c" d="M271.4328,240.46573a16.47188,16.47188,0,0,0,9.61173,8.04652c.17351-.21092.32536-.43586.48763-.65424a16.4572,16.4572,0,0,1-8.81589-7.76787c-2.60717-4.95956-2.37843-12.21152.04181-18.08382-.33607-.095-.67278-.1877-1.01444-.2615C269.06977,227.72123,268.73064,235.32556,271.4328,240.46573Z"/><path fill="#b8303c" d="M280.82927,241.79128a13.90924,13.90924,0,0,1,6.9708-1.75243,13.69966,13.69966,0,0,0-.16462-1.658c-2.544-.315-4.39021.65951-7.18176,2.127a17.534,17.534,0,0,0-9.14074,13.373c.47715.13749.507,1.06479.99407,1.13756C273.43508,249.38752,276.41036,244.11429,280.82927,241.79128Z"/><path fill="#b8303c" d="M284.65062 238.26655a12.30887 12.30887 0 0 0 .11269 2.072c7.12241-1.57624 13.37761 3.13053 18.36982 12.6271l.0047.0104c.31253-.05425.61827-.12616.924-.19925-.243-.65-.89462-2.57735-1.22593-3.20762C298.69926 241.70019 289.74166 237.06172 284.65062 238.26655zM277.04813 272.86561c-.25457.17774-.50148.36948-.74544.56606a16.63323 16.63323 0 0 0 18.31285 3.29226c-.09158-.17348-.17742-.35013-.27722-.51882A16.63416 16.63416 0 0 1 277.04813 272.86561z"/><path fill="#b8303c" d="M296.12245,275.40683a16.60367,16.60367,0,0,1-5.02181,1.68637c-.03975.19384-.07633.38765-.108.58151a16.62079,16.62079,0,0,0,14.296-12.28436c-.31471-.01872-.63043-.014-.946-.00726A16.60986,16.60986,0,0,1,296.12245,275.40683Z"/><path fill="#b8303c" d="M304.11814,266.06664a11.19625,11.19625,0,0,0,.83022.82131,16.54557,16.54557,0,0,0-.53176-14.29787c-.46592-.88637-.94683-1.71515-1.43445-2.51688-.063.1087-.134.20946-.19464.32034-.1858.33953-.34758.6847-.50479,1.03066.28688.50069.57133,1.01064.85041,1.54147A16.51673,16.51673,0,0,1,304.11814,266.06664Z"/><path fill="#fce6d9" d="M308.30631 288.15121l-.9257-1.64918a4.56678 4.56678 0 0 0 3.29837-1.8514S309.1309 287.68836 308.30631 288.15121zM320.18716 264.47052l-.92569-1.64918a4.56672 4.56672 0 0 0 3.29836-1.85139S321.01175 264.00768 320.18716 264.47052zM298.3682 270.85546l-.9257-1.64918a4.56675 4.56675 0 0 0 3.29836-1.8514S299.19279 270.39261 298.3682 270.85546zM289.96217 292.12592l-.9257-1.64918a4.56677 4.56677 0 0 0 3.29836-1.85139S290.78676 291.66307 289.96217 292.12592zM309.41952 246.72083l-.92569-1.64918a4.56672 4.56672 0 0 0 3.29836-1.85139S310.24412 246.258 309.41952 246.72083z"/><path fill="#ece4f6" d="M219.44236,295.14372c-4.93793-14.88565-2.185-29.817-3.208-44.486-1.98663-28.48958-7.85772-56.47789-1.94448-85.09083,2.18284-10.56217-11.78865-18.12215-20.66614-25.13156-10.0941-7.97008-15.71642-16.44142-8.38134-28.08793,7.12529-10.3753,16.96208-14.82334,30.48039-11.95817,3.16492.67084,7.30993,1.31169,9.7062-.03328,26.70717-14.99,46.8856.71077,66.41664,16.55118a110.04867,110.04867,0,0,0,24.02006,14.56565c-16.31828,6.45826-18.208,17.8905-9.88939,32.209,6.87655,11.83634,3.92691,22.113,1.10242,34.311-6.8184,29.4455-14.99734,57.78267-34.271,81.60905-5.82441,7.20027-5.55055,14.87878-2.719,23.20371C252.58412,305.96718,235.32749,306.85273,219.44236,295.14372Z"/><path fill="#d64142" d="M219.44236 295.14372c-2.60132.324-5.27047 1.26284-7.79362.87791-27.89419-4.25724-47.41292 9.11617-69.16855 22.322-45.81307 27.809-115.40334-15.03862-118.30484-72.7592-2.38055-47.35874 21.50761-81.99361 63.07249-104.5 10.449-5.65775 16.72784-7.3258 2.8821-18.503-21.68244-17.50367-23.29386-40.68721-6.9932-57.378 14.19529-14.53511 49.70767-15.56149 66.21008-1.6307a78.142 78.142 0 0 1 23.02 31.95647c2.65141 6.94844 5.64348 13.18767 12.87544 16.81807 2.723 13.10695 9.78774 23.6357 20.31106 32.86453 14.68109 12.87553 18.83837 28.30484 11.5806 45.56876-2.98532 7.101-5.90142 15.314-2.00626 22.26308 14.76183 26.33581.4331 52.958 6.52352 79.22586C221.88914 293.29586 220.52257 294.356 219.44236 295.14372zM180.06356 384.98423a8.0494 8.0494 0 0 1-2.85807 1.46736 14.46007 14.46007 0 0 1-4.28756.5633 14.92743 14.92743 0 0 1-5.33937-.86435 5.14323 5.14323 0 0 1-3.00859-2.44436 41.71566 41.71566 0 0 1-1.918-5.71614q-1.09152-3.91034-2.14332-8.5742-1.05411-4.66248-1.99372-9.47641-.94053-4.81209-1.46644-8.49941a9.75489 9.75489 0 0 1 6.69407-2.63182 7.46479 7.46479 0 0 1 4.3245 1.16539 5.46393 5.46393 0 0 1 2.06852 4.02346q.75077 5.718 1.27805 9.43947.52636 3.72334.86527 6.092.338 2.36864.52637 3.61068c.12466.82648.23732 1.49229.3389 1.9928h.30105q.22438-1.20234.78954-3.4971.56378-2.29384 1.31592-5.22763.75075-2.93241 1.57909-6.35516.827-3.42138 1.65482-6.80673a15.90434 15.90434 0 0 1 2.97073-1.279 12.60587 12.60587 0 0 1 3.64761-.45065 11.16758 11.16758 0 0 1 4.51289.82741 4.04367 4.04367 0 0 1 2.40742 2.557q.90175 3.31056 1.72962 6.43.827 3.12218 1.50429 5.79186.676 2.6706 1.20325 4.7382.525 2.06944.75169 3.27178h.37677q.82556-5.79141 1.617-12.03436.78956-6.24159 1.46644-12.71033a10.20207 10.20207 0 0 1 2.85806-1.20325 12.37473 12.37473 0 0 1 3.00859-.37584 7.83533 7.83533 0 0 1 4.36144 1.12753 4.313 4.313 0 0 1 1.73054 3.91172 25.73253 25.73253 0 0 1-.37584 3.60975q-.37815 2.40742-.97793 5.41509-.60393 3.00859-1.39163 6.31823-.78956 3.31056-1.5791 6.393-.79093 3.08478-1.50429 5.56562-.71615 2.48084-1.24112 3.83507a8.12908 8.12908 0 0 1-3.23391 1.46736 18.58741 18.58741 0 0 1-4.6634.5633q-6.31777 0-7.44576-3.15819-.45156-1.35469-1.12845-3.42229-.67734-2.06806-1.42857-4.55075-.75354-2.48084-1.4295-5.15191-.67734-2.66784-1.12845-5.15191-.52636 2.6332-1.27805 5.453-.75354 2.8202-1.54216 5.49081-.78954 2.67061-1.46643 4.88873Q180.43894 383.63138 180.06356 384.98423zM233.76292 348.43143a30.94768 30.94768 0 0 1 7.40882.82741 16.61076 16.61076 0 0 1 5.71613 2.52009 11.3825 11.3825 0 0 1 3.64762 4.28664 13.72965 13.72965 0 0 1 1.279 6.12984v16.84736a4.66976 4.66976 0 0 1-1.09059 3.197 10.92284 10.92284 0 0 1-2.59488 2.14332q-4.891 2.9324-13.764 2.93287a31.47843 31.47843 0 0 1-7.18257-.75169 17.00394 17.00394 0 0 1-5.49082-2.25691 10.34333 10.34333 0 0 1-3.535-3.83507 11.35561 11.35561 0 0 1-1.24111-5.416q0-5.18885 3.08431-7.97211 3.08339-2.78143 9.55121-3.45924l9.85318-1.05365v-.52636a3.22475 3.22475 0 0 0-1.918-3.12125 12.919 12.919 0 0 0-5.52775-.94007 25.593 25.593 0 0 0-5.56562.60208 29.5688 29.5688 0 0 0-4.88873 1.5043 5.20349 5.20349 0 0 1-1.65481-2.06852 6.53429 6.53429 0 0 1-.67689-2.89593 4.82367 4.82367 0 0 1 .94007-3.12125 7.27869 7.27869 0 0 1 2.89593-1.9928 22.61179 22.61179 0 0 1 5.15191-1.20325A44.79071 44.79071 0 0 1 233.76292 348.43143zM234.365 377.99a16.77329 16.77329 0 0 0 2.82021-.26318 6.87368 6.87368 0 0 0 2.29384-.71475v-6.01718l-5.41509.45157a8.3366 8.3366 0 0 0-3.45924.90221 2.4306 2.4306 0 0 0-1.35377 2.2569 2.99112 2.99112 0 0 0 1.16539 2.44437A6.3796 6.3796 0 0 0 234.365 377.99zM272.42118 386.03788a17.62553 17.62553 0 0 1-2.36956.45065 24.18465 24.18465 0 0 1-3.34658.22624 17.66153 17.66153 0 0 1-2.97072-.22624 5.05807 5.05807 0 0 1-2.21905-.90221 4.33318 4.33318 0 0 1-1.39071-1.8432 7.95213 7.95213 0 0 1-.48942-3.04553v-22.5635a6.4233 6.4233 0 0 1 .639-2.97073 6.98146 6.98146 0 0 1 1.8432-2.219 13.3006 13.3006 0 0 1 2.97073-1.76748 30.70275 30.70275 0 0 1 3.79814-1.39071 32.3192 32.3192 0 0 1 4.21184-.941 28.42934 28.42934 0 0 1 4.36236-.338 10.26292 10.26292 0 0 1 5.71614 1.39164 5.05026 5.05026 0 0 1 2.10546 4.54982 7.279 7.279 0 0 1-.30012 2.06852 9.436 9.436 0 0 1-.75261 1.84228q-1.57909 0-3.23391.15052-1.65528.15237-3.23391.45157-1.58049.302-2.97073.639a13.12639 13.12639 0 0 0-2.36957.78955zM307.31916 348.43143a21.611 21.611 0 0 1 6.055.86527 14.92388 14.92388 0 0 1 5.15191 2.59489 22.27223 22.27223 0 0 1 5.07618-2.48223 20.90727 20.90727 0 0 1 6.80673-.97793 21.157 21.157 0 0 1 5.60348.75261 14.33974 14.33974 0 0 1 4.88873 2.36864 11.47761 11.47761 0 0 1 3.42229 4.28757 14.99153 14.99153 0 0 1 1.27805 6.50568v23.69195a17.60529 17.60529 0 0 1-2.36864.45065 24.20786 24.20786 0 0 1-3.3475.22624 17.66944 17.66944 0 0 1-2.97073-.22624 5.05418 5.05418 0 0 1-2.21811-.90221 4.3275 4.3275 0 0 1-1.39164-1.8432 7.95211 7.95211 0 0 1-.48943-3.04553V362.72177a3.93141 3.93141 0 0 0-1.27805-3.27177 5.41688 5.41688 0 0 0-3.46015-1.01487 6.02287 6.02287 0 0 0-2.256.48851 6.53106 6.53106 0 0 0-1.80534 1.01579 2.348 2.348 0 0 1 .07572.56422v25.53423a21.31368 21.31368 0 0 1-2.44436.45065 23.66348 23.66348 0 0 1-3.27178.22624 17.66153 17.66153 0 0 1-2.97072-.22624 5.05807 5.05807 0 0 1-2.21905-.90221 4.33485 4.33485 0 0 1-1.39163-1.8432 7.95373 7.95373 0 0 1-.48851-3.04553V362.72177A3.77832 3.77832 0 0 0 309.914 359.45a5.52384 5.52384 0 0 0-3.34657-1.01487 5.97006 5.97006 0 0 0-2.3317.41371 17.70206 17.70206 0 0 0-1.65482.78954v26.3995a17.62542 17.62542 0 0 1-2.36957.45065 24.1844 24.1844 0 0 1-3.34657.22624 17.66157 17.66157 0 0 1-2.97073-.22624 5.058 5.058 0 0 1-2.219-.90221 4.3331 4.3331 0 0 1-1.39071-1.8432 7.95211 7.95211 0 0 1-.48943-3.04553v-22.714a5.43012 5.43012 0 0 1 .86527-3.23391 9.773 9.773 0 0 1 2.36864-2.256 21.64026 21.64026 0 0 1 6.35609-2.93379A27.72423 27.72423 0 0 1 307.31916 348.43143zM149.30354 455.905a8.04931 8.04931 0 0 1-2.85807 1.46735 14.45967 14.45967 0 0 1-4.28756.56331 14.92747 14.92747 0 0 1-5.33937-.86435 5.1433 5.1433 0 0 1-3.00859-2.44436 41.71663 41.71663 0 0 1-1.918-5.71614q-1.09151-3.91034-2.14332-8.57421-1.05411-4.66248-1.99372-9.47641-.94053-4.81207-1.46643-8.4994a9.75478 9.75478 0 0 1 6.69406-2.63183 7.46479 7.46479 0 0 1 4.3245 1.16539 5.46392 5.46392 0 0 1 2.06853 4.02346q.75075 5.718 1.278 9.43948.52636 3.72333.86527 6.092.338 2.36865.52636 3.61068c.12467.82649.23733 1.49229.33891 1.9928h.301q.2244-1.20233.78955-3.49709.56376-2.29384 1.31591-5.22764.75077-2.93239 1.57909-6.35516.827-3.42137 1.65482-6.80673a15.905 15.905 0 0 1 2.97073-1.279 12.6059 12.6059 0 0 1 3.64761-.45064 11.16738 11.16738 0 0 1 4.51289.82741 4.04366 4.04366 0 0 1 2.40742 2.557q.90175 3.31056 1.72962 6.43.827 3.12218 1.5043 5.79186.676 2.67062 1.20325 4.73821.525 2.06944.75168 3.27177h.37677q.82556-5.7914 1.617-12.03436.78956-6.24158 1.46644-12.71032a10.20183 10.20183 0 0 1 2.85807-1.20325 12.37419 12.37419 0 0 1 3.00859-.37585 7.83544 7.83544 0 0 1 4.36144 1.12753 4.31308 4.31308 0 0 1 1.73054 3.91172 25.73132 25.73132 0 0 1-.37585 3.60976q-.37815 2.40743-.97793 5.41509-.60393 3.00859-1.39163 6.31822-.78955 3.31056-1.5791 6.393-.79092 3.08477-1.50429 5.56561-.71613 2.48083-1.24111 3.83508a8.12922 8.12922 0 0 1-3.23391 1.46735 18.587 18.587 0 0 1-4.66341.56331q-6.31776 0-7.44575-3.15819-.45158-1.35469-1.12846-3.4223-.67734-2.068-1.42857-4.55074-.75352-2.48085-1.42949-5.15191-.67736-2.66784-1.12846-5.15191-.52636 2.63321-1.27805 5.453-.75352 2.82021-1.54215 5.49081-.78956 2.67062-1.46644 4.88873Q149.67893 454.5521 149.30354 455.905zM187.65983 410.32731a6.614 6.614 0 0 1 1.918-4.81393 7.57028 7.57028 0 0 1 10.15423 0 7.00147 7.00147 0 0 1 0 9.62693 7.56761 7.56761 0 0 1-10.15423 0A6.6074 6.6074 0 0 1 187.65983 410.32731zm13.38814 46.6313q-.82833.14959-2.44437.4137a20.45 20.45 0 0 1-3.27177.26319 17.6615 17.6615 0 0 1-2.97073-.22625 5.05785 5.05785 0 0 1-2.219-.90221 4.342 4.342 0 0 1-1.39163-1.8432 7.97145 7.97145 0 0 1-.48851-3.04552V421.007q.82695-.1496 2.44437-.4137a20.43286 20.43286 0 0 1 3.27177-.26318 17.68512 17.68512 0 0 1 2.97073.22624 5.067 5.067 0 0 1 2.219.90221 4.34881 4.34881 0 0 1 1.39071 1.84227 7.98472 7.98472 0 0 1 .48943 3.04646zM240.00727 446.1275a10.58288 10.58288 0 0 1-4.28664 8.95q-4.2871 3.233-12.63552 3.23483a35.71717 35.71717 0 0 1-5.86666-.45156 16.82039 16.82039 0 0 1-4.62555-1.39164 8.26258 8.26258 0 0 1-3.00859-2.36864 5.41222 5.41222 0 0 1-1.09059-3.38443 5.768 5.768 0 0 1 .75261-3.04645 7.595 7.595 0 0 1 1.80442-2.06853 29.90534 29.90534 0 0 0 5.00231 2.14333 20.52848 20.52848 0 0 0 6.50568.94006 7.59538 7.59538 0 0 0 3.57189-.67688 2.02655 2.02655 0 0 0 1.24112-1.80442 1.88922 1.88922 0 0 0-.90221-1.65481 8.3901 8.3901 0 0 0-3.00859-.97793l-2.256-.45157q-6.54355-1.27713-9.74052-4.02346-3.197-2.744-3.196-7.85946a10.37885 10.37885 0 0 1 4.58768-8.79952 16.97692 16.97692 0 0 1 5.22764-2.3317 25.65624 25.65624 0 0 1 6.731-.82741 31.42493 31.42493 0 0 1 5.22764.4137 17.05958 17.05958 0 0 1 4.24877 1.24111 7.69312 7.69312 0 0 1 2.85807 2.14332 4.84646 4.84646 0 0 1 1.05273 3.12125 6.418 6.418 0 0 1-.639 2.97073 6.68662 6.68662 0 0 1-1.617 2.06852 9.31151 9.31151 0 0 0-1.80534-.78954q-1.2037-.41278-2.63182-.75261-1.4295-.338-2.89593-.56423a17.8 17.8 0 0 0-2.66969-.22532 10.31808 10.31808 0 0 0-3.836.56423 1.87037 1.87037 0 0 0-1.35378 1.76747 1.58884 1.58884 0 0 0 .75169 1.35378 8.61761 8.61761 0 0 0 2.85807.97793l2.3317.52636q7.22089 1.65528 10.26688 4.54983A9.86465 9.86465 0 0 1 240.00727 446.1275zM282.27528 456.95861a17.604 17.604 0 0 1-2.36864.45064 24.1979 24.1979 0 0 1-3.34749.22625 17.66929 17.66929 0 0 1-2.97073-.22625 5.05394 5.05394 0 0 1-2.21812-.90221 4.32746 4.32746 0 0 1-1.39164-1.8432 7.95369 7.95369 0 0 1-.4885-3.04552V434.92147q0-3.08339-1.54216-4.3245a5.86489 5.86489 0 0 0-3.79813-1.24111 10.644 10.644 0 0 0-2.85807.37584 8.21292 8.21292 0 0 0-2.18118.90221v26.3247a17.62416 17.62416 0 0 1-2.36957.45064 24.19428 24.19428 0 0 1-3.34657.22625 17.6615 17.6615 0 0 1-2.97073-.22625 5.0578 5.0578 0 0 1-2.219-.90221 4.34215 4.34215 0 0 1-1.39164-1.8432 7.97166 7.97166 0 0 1-.4885-3.04552V407.99561q.827-.14961 2.44437-.41371a20.43286 20.43286 0 0 1 3.27177-.26318 17.78847 17.78847 0 0 1 2.97073.22532 5.06793 5.06793 0 0 1 2.219.90313 4.35225 4.35225 0 0 1 1.39163 1.84228 8.00417 8.00417 0 0 1 .48851 3.04645v7.37095a26.61047 26.61047 0 0 1 2.97073-.86527 18.457 18.457 0 0 1 4.40022-.48942q7.4453 0 11.61973 3.72333 4.17491 3.72335 4.174 11.09337zM309.50127 458.23666a26.35935 26.35935 0 0 1-8.2353-1.24111 18.65329 18.65329 0 0 1-6.61927-3.72242 17.24009 17.24009 0 0 1-4.43716-6.2425 22.12962 22.12962 0 0 1-1.617-8.80045 20.57717 20.57717 0 0 1 1.617-8.53634 16.529 16.529 0 0 1 10.266-9.25109 22.46577 22.46577 0 0 1 6.91939-1.09059 20.90938 20.90938 0 0 1 7.25829 1.20417 17.47652 17.47652 0 0 1 5.64041 3.30871 14.73016 14.73016 0 0 1 3.68548 5.03925 15.442 15.442 0 0 1 1.31684 6.393 5.132 5.132 0 0 1-1.4295 3.9108 7.14733 7.14733 0 0 1-3.98652 1.73054l-18.577 2.78235a6.24628 6.24628 0 0 0 3.38443 3.72333 13.272 13.272 0 0 0 5.86666 1.24019 20.99913 20.99913 0 0 0 5.8288-.78954 18.49419 18.49419 0 0 0 4.475-1.84228 6.31226 6.31226 0 0 1 2.03066 2.10546 5.52035 5.52035 0 0 1-2.3317 7.89732 16.71682 16.71682 0 0 1-5.4151 1.72961A38.1129 38.1129 0 0 1 309.50127 458.23666zM307.39489 428.679a7.46016 7.46016 0 0 0-3.12125.60116 6.31178 6.31178 0 0 0-2.14332 1.54216 6.39141 6.39141 0 0 0-1.24112 2.10638 8.61844 8.61844 0 0 0-.4885 2.36864l12.86085-2.10546a5.69281 5.69281 0 0 0-1.65482-3.00859A5.54091 5.54091 0 0 0 307.39489 428.679zM362.29935 446.1275a10.58288 10.58288 0 0 1-4.28664 8.95q-4.28711 3.233-12.63553 3.23483a35.71726 35.71726 0 0 1-5.86666-.45156 16.82031 16.82031 0 0 1-4.62554-1.39164 8.2625 8.2625 0 0 1-3.00859-2.36864 5.41216 5.41216 0 0 1-1.09059-3.38443 5.76792 5.76792 0 0 1 .75261-3.04645 7.59516 7.59516 0 0 1 1.80441-2.06853 29.90569 29.90569 0 0 0 5.00231 2.14333 20.52854 20.52854 0 0 0 6.50569.94006 7.59541 7.59541 0 0 0 3.57189-.67688 2.02654 2.02654 0 0 0 1.24111-1.80442 1.88921 1.88921 0 0 0-.9022-1.65481 8.3901 8.3901 0 0 0-3.00859-.97793l-2.256-.45157q-6.54354-1.27713-9.74051-4.02346-3.197-2.744-3.19605-7.85946a10.37885 10.37885 0 0 1 4.58768-8.79952 16.97686 16.97686 0 0 1 5.22763-2.3317 25.65632 25.65632 0 0 1 6.731-.82741 31.42481 31.42481 0 0 1 5.22763.4137 17.05953 17.05953 0 0 1 4.24878 1.24111 7.6932 7.6932 0 0 1 2.85807 2.14332 4.84646 4.84646 0 0 1 1.05273 3.12125 6.418 6.418 0 0 1-.639 2.97073 6.68644 6.68644 0 0 1-1.617 2.06852 9.31151 9.31151 0 0 0-1.80534-.78954q-1.20372-.41278-2.63182-.75261-1.4295-.338-2.89593-.56423a17.80008 17.80008 0 0 0-2.66969-.22532 10.31814 10.31814 0 0 0-3.836.56423 1.87036 1.87036 0 0 0-1.35377 1.76747 1.58883 1.58883 0 0 0 .75168 1.35378 8.61761 8.61761 0 0 0 2.85807.97793l2.33171.52636q7.22089 1.65528 10.26688 4.54983A9.86465 9.86465 0 0 1 362.29935 446.1275z"/><path fill="#f9f9f9" d="M100.44653,198.28564c5.7295,3.04395,11.40454,6.18262,17.07129,9.33545,5.668,3.15137,11.29126,6.38037,16.93921,9.56641l16.824,9.76709,8.37133,4.95508c2.77222,1.6831,5.56153,3.33691,8.31885,5.04638-2.86987-1.51269-5.70752-3.082-8.5625-4.62109l-8.50976-4.7124-16.93824-9.56836c-5.60644-3.25879-11.2373-6.47461-16.82324-9.76856C111.55005,204.99365,105.971,201.6875,100.44653,198.28564Z"/><path fill="#f9f9f9" d="M153.544,183.8584c-3.04346,5.73-6.18213,11.40478-9.33545,17.07178-3.15088,5.668-6.38013,11.291-9.56641,16.939L124.875,234.69336l-4.95483,8.37109c-1.68335,2.77246-3.33692,5.56153-5.04663,8.31885,1.51293-2.86963,3.082-5.70752,4.62109-8.5625l4.71289-8.50976,9.56787-16.938c3.25879-5.60645,6.47485-11.23731,9.7688-16.82373C146.83618,194.9624,150.14258,189.3833,153.544,183.8584Z"/><path fill="#f9f9f9" d="M171.75439,207.41943c-6.20361,1.89942-12.43579,3.69287-18.67236,5.47022-6.23608,1.77978-12.4956,3.47265-18.74219,5.21338l-18.803,4.98974-9.4231,2.416c-3.15039.77-6.292,1.57324-9.45068,2.314,3.09912-.95947,6.21508-1.85693,9.32226-2.78711l9.34986-2.685,18.74267-5.21143c6.26856-1.66016,12.52417-3.36768,18.80322-4.98828C159.15991,210.52783,165.44263,208.9209,171.75439,207.41943Z"/><path fill="#f9f9f9" d="M144.4104 255.1665c-1.89917-6.20361-3.69287-12.43554-5.47021-18.67236-1.77979-6.23584-3.47266-12.4956-5.21338-18.74219l-4.99-18.80273-2.41578-9.42334c-.77-3.15039-1.573-6.292-2.31372-9.45068.95948 3.09912 1.85645 6.21533 2.78687 9.32226l2.68506 9.3501 5.21142 18.74267c1.65992 6.26856 3.36768 12.52393 4.98829 18.80323C141.302 242.57178 142.90918 248.855 144.4104 255.1665zM163.01733 245.60645c-.688-2.14893-1.26928-4.32129-1.834-6.49707-.57617-2.17334-1.07544-4.36377-1.57446-6.55469a.49927.49927 0 0 1 .33423-.584c2.1416-.6792 4.28369-1.35644 6.44946-1.96045l3.25-.90234c1.09448-.26611 2.17846-.56494 3.28247-.80176-1.03418.45264-2.08838.84424-3.13184 1.26807l-3.1643 1.168c-2.11011.77636-4.24414 1.479-6.37867 2.17969l.33423-.5835c.47461 2.1958.94873 4.39209 1.34619 6.605C162.33936 241.1543 162.73193 243.36816 163.01733 245.60645zM106.209 189.91846c.6106 2.17187 1.11329 4.36377 1.59986 6.55859.49756 2.19287.918 4.3999 1.33789 6.60693a.49925.49925 0 0 1-.355.57178c-2.16455.60205-4.32959 1.20215-6.51587 1.72754l-3.28027.78516c-1.10328.22656-2.19727.48633-3.30884.68359 1.0498-.41553 2.11719-.769 3.17529-1.15527l3.2041-1.05323c2.13672-.70019 4.29444-1.32568 6.45288-1.9497l-.355.57129c-.39551-2.21143-.79052-4.42285-1.1084-6.64893C106.72656 194.39209 106.41406 192.16553 106.209 189.91846z"/><path fill="#f9f9f9" d="M160.55664 220.86182l-11.17017-7.54688a.119.119 0 0 1-.03588-.1543l6.467-11.82763.175.34814-.83985-.10254.07544-.00195-13.24341 2.51416a.31488.31488 0 0 1-.35717-.22168l-3.741-12.95068.59473.19677-.66846.519.082-.08643-7.604 11.13037a.43358.43358 0 0 1-.565.13184l-11.781-6.55078.66943-.33643-.10864.83887-.00366-.14111L120.97 209.87256a.47848.47848 0 0 1-.33838.54443l-12.9624 3.69824.35181-.37939-.17383.85889-.221-.521 11.35913 7.25781a.48078.48078 0 0 1 .169.62158l-6.16284 11.98877-.02662-.46142.47876.71973-.4768-.19141 13.1643-2.89941a.43524.43524 0 0 1 .50586.29l4.09839 12.84131-.29394-.26172.84692.17334-.39941.17041 7.29614-11.33447a.32017.32017 0 0 1 .41308-.1123l11.96827 6.20214-.25391.01465.72266-.47412-.103.25635-2.80493-13.18555a.12707.12707 0 0 1 .08447-.147l12.8645-4.02783-.00342.01172zm0 0l.52759.65527-.00122.01025-.00244.00147-12.79151 4.25342.08423-.147 3.03638 13.13379a.2472.2472 0 0 1-.103.25635l-.71509.48535a.25276.25276 0 0 1-.25415.01465l-12.02905-6.0835.41309-.1123-7.18384 11.40625a.3885.3885 0 0 1-.39966.1709l-.84839-.165a.39078.39078 0 0 1-.29419-.26172L125.813 231.665l.50561.29L113.16382 234.897a.45739.45739 0 0 1-.47705-.1914l-.4812-.71827a.4582.4582 0 0 1-.02661-.46142l6.12353-12.00879.16895.62158L107.0896 214.9165a.50046.50046 0 0 1-.22119-.52148l.17676-.8584a.49957.49957 0 0 1 .35229-.37939l12.97437-3.65625-.33814.54443-2.4248-13.25977a.47207.47207 0 0 1-.00367-.14209l.11158-.83837a.45207.45207 0 0 1 .50659-.39063.46876.46876 0 0 1 .16308.05371l11.75953 6.58936-.5647.13183 7.6831-11.07568a.39876.39876 0 0 1 .08228-.08691l.67358-.51221a.37782.37782 0 0 1 .52954.06689.40442.40442 0 0 1 .06543.13037l3.61353 12.98682-.35718-.22217 13.26856-2.37793a.24847.24847 0 0 1 .07592-.002l.8379.11719a.23436.23436 0 0 1 .2041.26123.26343.26343 0 0 1-.02881.0874l-6.6731 11.71289-.03589-.1543zM106.281 246.29932c2.14843-.688 4.3208-1.269 6.49682-1.834 2.17334-.57617 4.364-1.07568 6.55445-1.57471a.49926.49926 0 0 1 .584.33448c.67944 2.1416 1.35693 4.28369 1.96069 6.4497l.90235 3.24952c.26611 1.09472.56469 2.17871.80175 3.28271-.45288-1.03418-.84423-2.08838-1.26831-3.13183l-1.16772-3.16407c-.77637-2.11035-1.479-4.24463-2.17993-6.3789l.58374.334c-2.196.47461-4.39209.94873-6.60523 1.34668C110.73315 245.62158 108.5188 246.01367 106.281 246.29932zM161.96851 189.49121c-2.17188.61035-4.36377 1.11328-6.5586 1.59961-2.19262.49756-4.39966.918-6.60669 1.33789a.499.499 0 0 1-.57153-.355c-.602-2.16455-1.20215-4.32959-1.72778-6.51562l-.78516-3.28028c-.22656-1.10351-.48608-2.19775-.68359-3.30908.41552 1.0498.7688 2.11719 1.15527 3.17529l1.05347 3.2041c.7 2.13672 1.32568 4.29444 1.94922 6.45264l-.57129-.355c2.21167-.395 4.42334-.79053 6.64917-1.10791C157.49487 190.00879 159.72192 189.6958 161.96851 189.49121zM94.18384 218.07471c2.00586 1.03271 3.95288 2.15771 5.89087 3.29687 1.94433 1.12988 3.84619 2.32569 5.748 3.52149a.499.499 0 0 1 .17652.64941c-1.03394 1.99463-2.06958 3.98828-3.17407 5.94678l-1.65992 2.936c-.58593.96241-1.14111 1.93994-1.7539 2.88819.41089-1.05176.87964-2.07373 1.31762-3.11133l1.41162-3.06348c.94312-2.041 1.95508-4.04687 2.969-6.05176l.17651.64942c-1.88842-1.21729-3.77661-2.43506-5.62256-3.71875C97.81152 220.74365 95.96826 219.45508 94.18384 218.07471zM173.73047 217.28223c-1.96729-1.104-3.8728-2.29834-5.76856-3.50635-1.90234-1.19873-3.76025-2.46192-5.61792-3.72559a.49894.49894 0 0 1-.15307-.65527c1.10473-1.95654 2.21142-3.91162 3.3855-5.8291l1.7644-2.87451c.62012-.94043 1.21-1.89795 1.85645-2.82325-.44849 1.03614-.95337 2.04053-1.42847 3.062l-1.52075 3.01074c-1.01587 2.00586-2.09912 3.97412-3.18457 5.94092l-.15284-.65479c1.84351 1.28418 3.68677 2.56885 5.48536 3.918C170.20117 214.48486 171.99707 215.83838 173.73047 217.28223z"/><path fill="#f9f9f9" d="M94.18384 218.07471c2.00586 1.03271 3.95288 2.15771 5.89087 3.29687 1.94433 1.12988 3.84619 2.32569 5.748 3.52149a.499.499 0 0 1 .17652.64941c-1.03394 1.99463-2.06958 3.98828-3.17407 5.94678l-1.65992 2.936c-.58593.96241-1.14111 1.93994-1.7539 2.88819.41089-1.05176.87964-2.07373 1.31762-3.11133l1.41162-3.06348c.94312-2.041 1.95508-4.04687 2.969-6.05176l.17651.64942c-1.88842-1.21729-3.77661-2.43506-5.62256-3.71875C97.81152 220.74365 95.96826 219.45508 94.18384 218.07471zM173.73047 217.28223c-1.96729-1.104-3.8728-2.29834-5.76856-3.50635-1.90234-1.19873-3.76025-2.46192-5.61792-3.72559a.49894.49894 0 0 1-.15307-.65527c1.10473-1.95654 2.21142-3.91162 3.3855-5.8291l1.7644-2.87451c.62012-.94043 1.21-1.89795 1.85645-2.82325-.44849 1.03614-.95337 2.04053-1.42847 3.062l-1.52075 3.01074c-1.01587 2.00586-2.09912 3.97412-3.18457 5.94092l-.15284-.65479c1.84351 1.28418 3.68677 2.56885 5.48536 3.918C170.20117 214.48486 171.99707 215.83838 173.73047 217.28223zM133.46875 177.56592c-1.03271 2.00586-2.15771 3.95263-3.29687 5.89111-1.12964 1.94385-2.32544 3.84619-3.52149 5.74756a.49882.49882 0 0 1-.64941.17676c-1.99463-1.03369-3.98853-2.06983-5.94678-3.17432l-2.93628-1.65967c-.96191-.58593-1.9397-1.14111-2.88794-1.7539 1.05151.41064 2.07373.87939 3.11133 1.31738l3.06323 1.41162c2.04126.94336 4.04712 1.95557 6.052 2.96924l-.64917.17627c1.21729-1.88818 2.43482-3.77637 3.71851-5.62256C130.80005 181.19336 132.08813 179.3501 133.46875 177.56592zM134.26123 257.11279c1.10425-1.96777 2.29858-3.873 3.50659-5.769 1.19849-1.90234 2.46192-3.76025 3.72559-5.61768a.49922.49922 0 0 1 .65527-.15332c1.95606 1.105 3.91138 2.21143 5.8291 3.38575l2.87451 1.76416c.94043.62011 1.89747 1.21 2.823 1.85644-1.03613-.44824-2.04052-.95312-3.062-1.42822l-3.0105-1.521c-2.00586-1.01562-3.97412-2.09912-5.9414-3.18408l.655-.15332c-1.28418 1.84375-2.56885 3.687-3.918 5.48535C137.05859 253.583 135.70508 255.37891 134.26123 257.11279z"/></svg>