<svg xmlns="http://www.w3.org/2000/svg" enable-background="new 0 0 512 512" viewBox="0 0 512 512"><text fill="#d64142" font-family="Baloo-Regular" font-size="32" transform="rotate(-14.961 1328.338 -691.968)">wish</text><text fill="none" stroke="#fff" stroke-linecap="round" stroke-linejoin="round" stroke-width="40" font-family="Baloo-Regular" font-size="32" transform="rotate(-14.961 1328.338 -691.968)">wish</text><text fill="#d64142" font-family="Baloo-Regular" font-size="32" transform="rotate(-14.961 1290.718 -978.27)">y</text><text fill="none" stroke="#fff" stroke-linecap="round" stroke-linejoin="round" stroke-width="40" font-family="Baloo-Regular" font-size="32" transform="rotate(-14.961 1290.718 -978.27)">y</text><text fill="#d64142" font-family="Baloo-Regular" font-size="32" transform="rotate(-14.961 1281.976 -1044.792)">ou a</text><text fill="none" stroke="#fff" stroke-linecap="round" stroke-linejoin="round" stroke-width="40" font-family="Baloo-Regular" font-size="32" transform="rotate(-14.961 1281.976 -1044.792)">ou a</text><text fill="#d64142" font-family="Baloo-Regular" font-size="32" transform="rotate(-14.961 1494.838 -556.696)">M</text><text fill="none" stroke="#fff" stroke-linecap="round" stroke-linejoin="round" stroke-width="40" font-family="Baloo-Regular" font-size="32" transform="rotate(-14.961 1494.838 -556.696)">M</text><text fill="#d64142" font-family="Baloo-Regular" font-size="32" transform="rotate(-14.961 1482.144 -653.309)">e</text><text fill="none" stroke="#fff" stroke-linecap="round" stroke-linejoin="round" stroke-width="40" font-family="Baloo-Regular" font-size="32" transform="rotate(-14.961 1482.144 -653.309)">e</text><text fill="#d64142" font-family="Baloo-Regular" font-size="32" transform="rotate(-14.961 1473.354 -720.195)">r</text><text fill="none" stroke="#fff" stroke-linecap="round" stroke-linejoin="round" stroke-width="40" font-family="Baloo-Regular" font-size="32" transform="rotate(-14.961 1473.354 -720.195)">r</text><text fill="#d64142" font-family="Baloo-Regular" font-size="32" transform="rotate(-14.961 1466.935 -769.05)">r</text><text fill="none" stroke="#fff" stroke-linecap="round" stroke-linejoin="round" stroke-width="40" font-family="Baloo-Regular" font-size="32" transform="rotate(-14.961 1466.935 -769.05)">r</text><text fill="#d64142" font-family="Baloo-Regular" font-size="32" transform="rotate(-14.961 1460.099 -821.071)">y Christmas</text><text fill="none" stroke="#fff" stroke-linecap="round" stroke-linejoin="round" stroke-width="40" font-family="Baloo-Regular" font-size="32" transform="rotate(-14.961 1460.099 -821.071)">y Christmas</text><text fill="#d64142" font-family="Baloo-Regular" font-size="32" transform="rotate(-14.961 1618.463 -747.689)">and a</text><text fill="none" stroke="#fff" stroke-linecap="round" stroke-linejoin="round" stroke-width="40" font-family="Baloo-Regular" font-size="32" transform="rotate(-14.961 1618.463 -747.689)">and a</text><text fill="#d64142" font-family="Baloo-Regular" font-size="32" transform="rotate(-14.961 1575.928 -1071.395)">v</text><text fill="none" stroke="#fff" stroke-linecap="round" stroke-linejoin="round" stroke-width="40" font-family="Baloo-Regular" font-size="32" transform="rotate(-14.961 1575.928 -1071.395)">v</text><text fill="#d64142" font-family="Baloo-Regular" font-size="32" transform="rotate(-14.961 1567.283 -1137.186)">e</text><text fill="none" stroke="#fff" stroke-linecap="round" stroke-linejoin="round" stroke-width="40" font-family="Baloo-Regular" font-size="32" transform="rotate(-14.961 1567.283 -1137.186)">e</text><text fill="#d64142" font-family="Baloo-Regular" font-size="32" transform="rotate(-14.961 1558.494 -1204.071)">r</text><text fill="none" stroke="#fff" stroke-linecap="round" stroke-linejoin="round" stroke-width="40" font-family="Baloo-Regular" font-size="32" transform="rotate(-14.961 1558.494 -1204.071)">r</text><text fill="#d64142" font-family="Baloo-Regular" font-size="32" transform="rotate(-14.961 1551.658 -1256.093)">y</text><text fill="none" stroke="#fff" stroke-linecap="round" stroke-linejoin="round" stroke-width="40" font-family="Baloo-Regular" font-size="32" transform="rotate(-14.961 1551.658 -1256.093)">y</text><text fill="#d64142" font-family="Baloo-Regular" font-size="32" transform="rotate(-14.961 1787.853 -590.427)">Hap</text><text fill="none" stroke="#fff" stroke-linecap="round" stroke-linejoin="round" stroke-width="40" font-family="Baloo-Regular" font-size="32" transform="rotate(-14.961 1787.853 -590.427)">Hap</text><text fill="#d64142" font-family="Baloo-Regular" font-size="32" transform="rotate(-14.961 1759.022 -809.846)">p</text><text fill="none" stroke="#fff" stroke-linecap="round" stroke-linejoin="round" stroke-width="40" font-family="Baloo-Regular" font-size="32" transform="rotate(-14.961 1759.022 -809.846)">p</text><text fill="#d64142" font-family="Baloo-Regular" font-size="32" transform="rotate(-14.961 1749.864 -879.535)">y New Y ear</text><text fill="none" stroke="#fff" stroke-linecap="round" stroke-linejoin="round" stroke-width="40" font-family="Baloo-Regular" font-size="32" transform="rotate(-14.961 1749.864 -879.535)">y New Y ear</text><path fill="#26a526" stroke="#fff" stroke-linecap="round" stroke-linejoin="round" stroke-width="40" d="M480.7,406.4l-48.7-182.1h0l-1.8-6.8l0,0l-0.3-1l0,0l-1.6-6.1h0l-3.9-14.6l0,0l-2.2-8.4h0l-3.5-13.1h0l-1.8-6.7
	h0l-0.9-3.4h0l-1.8-6.8h0L380.1,29.8c-0.9-3.4-4.4-5.4-7.8-4.5c0,0,0,0,0,0L100.9,97.8c-3.4,0.9-5.4,4.4-4.5,7.8c0,0,0,0,0,0
	l19.3,72l-84.5,76.1h0l0,0H31V415h148l18,67.2c0.9,3.4,4.4,5.4,7.8,4.5l271.4-72.5C479.6,413.3,481.6,409.8,480.7,406.4z"/><rect width="250.6" height="161.3" x="31" y="253.7" fill="#8298e7"/><polygon fill="#758ccc" points="281.6 253.7 156.4 366.4 31.1 253.7 156.4 141"/><polygon fill="#8298e7" points="281.6 253.7 156.4 141 31.1 253.7"/><polygon fill="#8298e7" points="31.1 415 281.6 415 156.4 302.3"/><path fill="#4c63b7" d="M281.6,415l-8-6.8l-8-6.9l-16-13.8c-10.6-9.2-21.2-18.5-31.7-27.7c-10.6-9.3-21-18.6-31.5-27.9L155,303.8h2.7
	l-31.4,28.1c-10.5,9.3-21,18.7-31.5,27.9c-10.5,9.3-21.1,18.5-31.7,27.7l-16,13.8l-8,6.9l-8,6.8l7.6-7.3l7.7-7.2l15.4-14.4
	c10.3-9.6,20.6-19.1,30.9-28.6c10.3-9.5,20.7-18.9,31.1-28.4l31.2-28.3l1.3-1.2l1.3,1.2l31.2,28.3c10.4,9.5,20.8,18.9,31.1,28.4
	c10.3,9.5,20.7,19,30.9,28.6l15.4,14.4l7.7,7.2L281.6,415z"/><path fill="#ece4f6" d="M100.9,97.8l271.4-72.5c3.4-0.9,6.9,1.1,7.8,4.5l100.7,376.6c0.9,3.4-1.1,6.9-4.5,7.8l-271.4,72.5
	c-3.4,0.9-6.9-1.1-7.8-4.5L96.4,105.6C95.5,102.2,97.5,98.7,100.9,97.8z"/><path fill="#d9caed" d="M430.3 217.5c-2.7 4.7-5.3 9.4-7.9 14.1-.2 0-.4 0-.7.1l0 0c-2.2.4-4.4.8-6.6 1.3-2.2.5-4.3 1.1-6.5 1.7-2.2.7-4.3 1.4-6.4 2.2-2.2.8-4.3 1.8-6.3 2.8 2.3.3 4.6.5 6.9.5 2.3 0 4.5 0 6.8-.1 2.2-.1 4.5-.3 6.7-.6.7-.1 1.3-.2 2-.3-2 3.8-3.9 7.5-5.8 11.4 2.6-3.3 5.2-6.6 7.8-10 .2.6.4 1.2.6 1.9.7 2.1 1.5 4.2 2.3 6.3.8 2.1 1.8 4.2 2.8 6.2 1 2.1 2.2 4.1 3.4 6 .1-2.3.1-4.6-.1-6.9-.2-2.3-.4-4.5-.8-6.7-.3-2.2-.8-4.4-1.2-6.6-.2-1.1-.5-2.2-.8-3.3l-.8-3.2c-.1-.2-.1-.4-.2-.6 2.2-3.1 4.5-6.2 6.7-9.3L430.3 217.5zM399.8 141.4c0 2.2.2 4.5.4 6.7 0 .6.1 1.2.2 1.8-3.9-2.1-7.9-4.1-11.9-6 3.5 2.8 7 5.5 10.6 8.2-.7.2-1.3.4-2 .6-2.1.6-4.3 1.3-6.4 2.1-2.1.8-4.2 1.6-6.3 2.5-2.1.9-4.2 2-6.1 3.2 2.3.2 4.6.2 6.9.1 2.3-.1 4.5-.3 6.8-.5 2.2-.3 4.4-.6 6.7-1 1.1-.2 2.2-.4 3.3-.6l3.3-.7c.4-.1.7-.2 1-.4 3.3 2.4 6.6 4.7 9.9 7l-1.8-6.8c-2.1-1.2-4.3-2.4-6.4-3.6 0 0 0-.1 0-.1l0 0c-.3-2.2-.7-4.4-1.1-6.6-.4-2.2-.9-4.4-1.5-6.6-.6-2.2-1.2-4.3-1.9-6.5-.7-2.2-1.6-4.3-2.6-6.4-.4 2.3-.7 4.6-.8 6.9C399.7 136.9 399.7 139.2 399.8 141.4zM424.5 195.9l-2.2-8.4-14.8-10.4 11.3-2.7-1.8-6.7-16.6 3.9c-1.3.3-2.3 1.3-2.6 2.5l0 0-.4 1.7c-.4 1.4.2 2.9 1.4 3.7l16.6 11.6c-5.5 1.5-11 3-16.5 4.6-.2-.2-.4-.4-.6-.5l0 0c-1.8-1.3-3.7-2.5-5.6-3.7-1.9-1.2-3.8-2.3-5.8-3.4-2-1.1-4-2.1-6.1-3-2.1-1-4.3-1.8-6.5-2.4 1.4 1.8 2.9 3.6 4.5 5.2 1.6 1.6 3.2 3.2 4.9 4.7 1.7 1.5 3.4 2.9 5.2 4.3.6.5 1.2.9 1.7 1.3-4.1 1.3-8.2 2.6-12.2 4 4.2-.5 8.3-1 12.5-1.6-.3.5-.5 1-.8 1.6-1 2-2 4-2.8 6.1-.9 2.1-1.7 4.2-2.4 6.3-.8 2.2-1.4 4.4-1.8 6.7 1.7-1.6 3.3-3.2 4.8-5 1.5-1.7 2.9-3.5 4.2-5.3 1.3-1.8 2.6-3.7 3.8-5.5.6-.9 1.2-1.9 1.8-2.8l1.7-2.9c.1-.1.1-.3.2-.4 5.6-.9 11.3-1.9 16.9-2.9l-9.7 17.3 0 0c-.6 1-.6 2.3.1 3.3l.9 1.5 0 .1c.7 1.1 2.1 1.7 3.4 1.5l19.1-3.5-1.6-6.1-13.6 2.3L424.5 195.9zM132.9 242.7c2.7-4.7 5.3-9.4 7.9-14.1.2 0 .4 0 .7-.1l0 0c2.2-.4 4.4-.8 6.6-1.3 2.2-.5 4.3-1.1 6.5-1.7 2.2-.7 4.3-1.4 6.4-2.2 2.2-.8 4.3-1.8 6.3-2.8-2.3-.3-4.6-.5-6.9-.5-2.3 0-4.5 0-6.8.1-2.2.1-4.5.3-6.7.6-.7.1-1.3.2-2 .3 2-3.8 3.9-7.5 5.8-11.4-2.6 3.3-5.2 6.6-7.8 10-.2-.6-.4-1.2-.6-1.9-.7-2.1-1.5-4.2-2.3-6.3-.8-2.1-1.8-4.2-2.8-6.2-1-2.1-2.2-4.1-3.4-6-.1 2.3-.1 4.6.1 6.9.2 2.3.4 4.5.8 6.7.3 2.2.8 4.4 1.2 6.6.2 1.1.5 2.2.8 3.3l.8 3.2c.1.2.1.4.2.6-2.2 3.1-4.5 6.2-6.7 9.3L132.9 242.7zM163.4 318.8c0-2.2-.2-4.5-.4-6.7 0-.6-.1-1.2-.2-1.8 3.9 2.1 7.9 4.1 11.9 6-3.5-2.8-7-5.5-10.6-8.2.7-.2 1.3-.4 2-.6 2.1-.6 4.3-1.3 6.4-2.1 2.1-.8 4.2-1.6 6.3-2.5 2.1-.9 4.2-2 6.1-3.2-2.3-.2-4.6-.2-6.9-.1-2.3.1-4.5.3-6.8.5-2.2.3-4.4.6-6.7 1-1.1.2-2.2.4-3.3.6l-3.3.7c-.4.1-.7.2-1 .4-3.3-2.4-6.6-4.7-9.9-7l1.8 6.8c2.1 1.2 4.3 2.4 6.4 3.6 0 0 0 .1 0 .1l0 0c.3 2.2.7 4.4 1.1 6.6.4 2.2.9 4.4 1.5 6.6.6 2.2 1.2 4.3 1.9 6.5.7 2.2 1.6 4.3 2.6 6.4.4-2.3.7-4.6.8-6.9C163.4 323.4 163.4 321.1 163.4 318.8zM138.7 264.3l2.2 8.4 14.8 10.4-11.3 2.7 1.8 6.7 16.6-3.9c1.3-.3 2.3-1.3 2.6-2.5l0 0 .4-1.7c.4-1.4-.2-2.9-1.4-3.7l-16.6-11.6c5.5-1.5 11-3 16.5-4.6.2.2.4.4.6.5l0 0c1.8 1.3 3.7 2.5 5.6 3.7 1.9 1.2 3.8 2.3 5.8 3.4 2 1.1 4 2.1 6.1 3 2.1 1 4.3 1.8 6.5 2.4-1.4-1.8-2.9-3.6-4.5-5.2-1.6-1.6-3.2-3.2-4.9-4.7-1.7-1.5-3.4-2.9-5.2-4.3-.6-.5-1.2-.9-1.7-1.3 4.1-1.3 8.2-2.6 12.2-4-4.2.5-8.3 1-12.5 1.6.3-.5.5-1 .8-1.6 1-2 2-4 2.8-6.1.9-2.1 1.7-4.2 2.4-6.3.8-2.2 1.4-4.4 1.8-6.7-1.7 1.6-3.3 3.2-4.8 5-1.5 1.7-2.9 3.5-4.2 5.3-1.3 1.8-2.6 3.7-3.8 5.5-.6.9-1.2 1.9-1.8 2.8l-1.7 2.9c-.1.1-.1.3-.2.4-5.6.9-11.3 1.9-16.9 2.9l9.7-17.3 0 0c.6-1 .6-2.3-.1-3.3l-.9-1.5 0-.1c-.7-1.1-2.1-1.7-3.4-1.5l-19.1 3.5 1.6 6.1 13.6-2.3L138.7 264.3z"/><path fill="#26a526" d="M368.4 165.8c-.5-.8-1.3-.6-2.1-.2-3.6 2.3-6.8 0-7.8-3.4-.6-2-1.1-4.1-1.7-6.1-1.2-4.5-2.9-5.4-7.4-4-3.2 1-3.2 1-3.9-2.4-.1-.3-.1-.5-.2-.8-.8-2.8-2.5-3.6-5.1-2.3-1.2.6-2.4 1.3-3.8 2-.1-1.9-.1-3.5-.2-5.1-.2-2.5-.9-4.8-3.4-5.9-1.2-.5-1.3-1.1-1.3-2.2.2-3.3-.8-6.5-2.8-9-.9-1-2-1.8-.8-3.4.5-.6 0-1.5-.3-2.2-1-2.3-.7-3.5 1.2-5.1 1.2-1 2.7-1.7 3.6-3.2-.9-.8-2-.6-3-.5-4.2.3-8.4.9-12.5 1.7-5.9 1.1-11.5 3.1-16.8 5.9-1.4.7-2.7 1.8-4.1 2.5-.5.3-1.1.7-1.5.2-.5-.7.2-1.2.7-1.5 2-1.5 4.1-2.7 6.3-3.8 9-4 18.7-6.2 28.6-6.6.9 0 1.9.2 2.6-.6-.8-1.2-2-1.1-3.2-1.3-1.9-.2-3.9-.4-5.9-.6-2-.2-3.7-1.5-4.4-3.4-1.9-4.2-4.4-5.1-8.6-3.5-2.3.9-4.3 2.4-6.9 3.5.2-.6.3-1 .5-1.3.5-.9.4-2-.2-2.8-.8-.9-1.8-.4-2.7-.2-1.9.5-3.4 1.7-4.9 2.9-1.9 1.5-3.7 3.2-5.8 4.6-1.1.7-1.5.6-1.8-.7-.5-2.1-1.4-2.5-3.4-1.5-1.8.9-3.2 2.4-4.1 4.2-1.7 3.2-3.1 6.6-3.9 10.2.9.3 1.4-.3 2.1-.7 3.5-1.8 7.8-.8 10 2.5.1.2.2.3.3.5.9 1.6 1.1 3.5.7 5.2-.3 1.1 0 2.3.9 3 2.6 2.9 3.3 6.1 1.7 9.7-.4.5-.4 1.2-.1 1.8 3.2.9 6.4.5 9.6 0 1.3-.2 2.4-1 1.8-2.5-1-2.2.3-2.4 1.8-2.5 2.5-.2 5.1-.2 7.6-.6 2.3-.3 2.9-2.2 1.2-3.8-1.1-1-.8-1.5.2-2.3 2.2-1.7 4.8-3 7.5-3.8 1.2-.4 2.6-.1 3.4.8 2.2 2 2.8 4.6 3 7.4.1 1.6-.2 2.4-2 3-5 1.5-9.4 7.5-9.4 12.2 0 1.7.3 3.4 2 4.1 1.6.7 3 0 4.3-1 2.1-1.7 3.7-3.9 4.8-6.3 1-2.1 1.9-4.4 2.6-6.6 2.1 1 2 2.9 2.2 4.6 0 1.5.1 3.1.4 4.6.7 2.3 2.2 3 4.4 1.8 1.1-.6 2-1.3 3.1-1.8.8-.5 1.3-.2 1.4.8.1.6.1 1.3.2 1.9.8 4.2 2 4.9 6.1 3.5.3-.1.5-.2.8-.3 2.3-1.5 3.7-1.2 4.6 2.5.2.8.2 1.5.4 2.3.4 2.6 1.6 5.1 3.2 7.2 2.4 2.7 7.6 3.2 9.8 1C368.4 167.4 369 166.7 368.4 165.8zM322.1 150.6c-.4.3-.8 1-1.4.5-.5-.3-.3-.9-.3-1.4.1-3.9 4.5-8.8 7.7-9.2C326.9 144.3 325.2 147.8 322.1 150.6zM233.5 146.2c.9-3.2.3-4.8-2.6-6.5-1.8-1-3.8-1.6-5.8-1.7-2.2-.1-4.5-.2-6.7-.3-1.8 0-2.2-.6-1.5-2.2.8-2.2.9-4.6.1-6.8-2.4.6-4.8 1-7 2.2-1.1.6-1.9 1.4-1.6 2.6.2 1.1-.2 1.2-1 1.2-.6 0-1.3.1-1.9.1-3.5.2-7 .5-10.2 2.2-1.3.7-2.4 1.5-2.3 3.2.1 1.5 1.2 2.1 2.5 2.4.3.1.6.2.9.4-1.1 2-2.9 3.2-4.4 4.8-2.2 2.1-4.2 4.5-5.8 7.2-.8 1.4-1.8 3-.3 4.6.6-.8 1.2-1.5 1.9-2.2 3.5-2.8 7.2-5.2 11-7.4 7-3.9 14.4-5.1 22.2-3 .9.2 2.4.3 2.1 1.5-.2 1-1.6.3-2.4.2-5.5-1.3-11-1.4-16.4.7-6.5 2.5-12.1 6.5-17.4 10.9 1.6.5 2.9-.3 4.2-.9 2.1-1.2 4.4-1.9 6.8-2.1.8 0 1.1.1 1.3 1.1.8 4.2 2.5 8 6.1 10.7 1.4 1 .9 1.6-.1 2.4-.8.5-1.7.7-2.6.5-1.3-.2-2.5-.4-3.8-.5-4.2-.2-7.4 1.8-8.8 5.5-.4 1.1-.4 2.2 0 3.3.2.7 1 1.1 1.7.9 0 0 0 0 0 0 .7-.2.9-.7.9-1.4.1-3.5 2.1-5.4 5.6-5.3 1.5 0 2.9.4 4.4.5 2.1.2 4-.2 5.2-2 .9-1.4 1.9-1.5 3.5-1.3 2.6.4 5.1-1 6.3-3.3 1.1-2 .8-3.6-1.1-5.7 3.1-.3 5.5-2 7.7-4.1.8-.8 1.5-1.9 2.7-2.2 2.3-1.2 4.2-3 6.3-4.5.2-.2.3-.5.1-.8-1.1-.3-1.5-1-1-2.1C232.9 147.9 233.2 147 233.5 146.2zM215.3 165.6c.2 1.5-1.1 2.4-2.4 2.8-.7.2-2.3.5-2.3-.5.1-1.5 1.1-2.7 2.6-3C213.9 164.9 215.2 164.3 215.3 165.6L215.3 165.6zM208.2 165.9c-.5 1.1-1 1-1.6.3-.3-.4-.7-.7-1-1-1.8-2.1-1.8-2.2.4-3.7 1.8-1.5 3.9-2.7 6.2-3.5 1.2-.3 1.8-.1 2.2 1.2.4 1 .8 2 1.4 3C211.9 161.5 209.5 162.8 208.2 165.9L208.2 165.9z"/><path fill="#fbb641" d="M292.2 142.7c5.4.6 10.5 2.7 14.8 5.9 1.9 1.4 3.6 3.1 5.1 5 3.3 4.4 6.6 8.8 9.9 13.2-.4.5-1 .8-1.6 1-7.3 2.3-13.6 6.3-20.1 10.2-8.7 5.2-16.9 11.2-24.4 18-.3.5-.9.7-1.5.7l-4.5-7.6c-.2-1-.2-2.1.2-3.1 1.2-4.2 1.7-8.6 2.5-13 .7-4.2-.1-8.2-1.4-12.2.2-.5.6-1 1.1-1.2 1.9-1 3.6-2.5 4.7-4.3.4-.5 1.1-.6 1.7-.4 6.5.9 10.4-1.9 11.7-8.3 0-.2.1-.4.1-.6C291 144.8 290.4 143.2 292.2 142.7zM325.6 211.1c2.4 4.2 1.6 8.7-2 11.2-3.8 2.7-9.8 2.1-12.6-1.3-.3-.4-.6-.7-1-1.1-1.4-1-1-2.5-1-3.9 0-1.1.2-2.1.6-3.1.9-2.3.3-4.2-.9-6.1-.9-1.5-1.7-1.5-3-.6-4.6 3.1-9 6.4-13.2 10.1-3.6 3.2-7.4 6-10.3 9.9-.5 1-1.8 1.3-2.7.8 0 0 0 0 0 0-.9-.4-1.3-1.5-.9-2.5 0 0 0 0 0 0 .1-.3-.1-.7.1-1 .8-4.1.6-8.2.3-12.3.2-.8.7-1.5 1.4-2 2.2-2 4.5-3.8 7-5.4 12.3-8.3 24.7-16.7 38-23.5 2.7-1.4 5.6-2.5 8.4-3.8 3 1.5 5.8 3.3 9 4.3.8.3 1.6.5 2.4.6 1.5-.1 2 .6 2.1 1.9-.1 1.5-1.3 1.9-2.3 2.5-5.1 3-10.6 5.2-15.9 7.8-4.4 2.1-8.7 4.3-13 6.5-1.5.7-1.8 1.5-.9 2.9 1.1 1.9 2.3 3.4 4.7 3.8 1.6.4 3.1 1.1 4.3 2.1C325.1 209.4 325.9 209.9 325.6 211.1zM237.2 223.7c-.3 4.4-2.1 6.6-5.8 7.8-6.1 1.9-8.9.2-11.5-2.9-1.8-2.1-1.5-6.2.2-9 .4-.6.8-1.2 1.2-1.7.9-2.2 2.9-2.8 4.8-3.5 2.6-.9 2.8-3.4 3.7-5.3.4-.9-.8-1.1-1.5-1.4-5.4-2.2-11.1-3.7-16.9-4.4-4.9-.8-9.9-1.3-14.9-.1-1 .4-2.1-.1-2.4-1.1-.1-.9.4-1.8 1.3-2.2 5-2.3 9-6.1 13.2-9.6.3-.3.6-.6.9-.9 1.4-.7 2.8-.2 4.1.1 11.2 2.5 22.2 6.3 32.5 11.4 4.7 2.2 9.2 4.8 14 6.9 1.4.6 2.9 1.1 3.6 2.7.5 2.3.7 4.7 1.2 7.1.3 1.7 1.2 3.2 2.6 4.1 1.3.9 2.1 2.1 1.1 3.8-1.2.9-2.3.2-3.3-.5-8.4-5.8-17.7-9.7-27-13.5-1.9-.8-2.2-.6-2.6 1.6-.5 2.6-.6 5.1 1.2 7.4C237.9 221.1 238 222.6 237.2 223.7z"/><path fill="#d64142" d="M333.8 176.4c-1.3 2-3.6 2.3-5.6 3.1-5.2 2.3-10.2 5-15 8.1-7.4 4.7-14.9 9.2-22.2 14.2-4.3 2.8-8.3 6-12.2 9.4-.8-5-2.3-9.9-4.4-14.5 8.7-8.5 18.8-15.1 29.1-21.3 5.4-3.4 11.1-6.2 17.1-8.3.4-.1.8-.1 1.2-.2C325.6 170.5 329.5 173.7 333.8 176.4zM263.3 210.1c-3.2-2.4-7-3.5-10.4-5.4-7.7-4.1-15.7-7.7-24-10.5-5.9-2-11.8-4-18.1-4.7-.3 0-.7 0-1 0-1.1.6-2.1.8-2.8-.6 3.7-3.5 6.9-7.4 9.5-11.8 1-.4 2-.6 3.1-.4 12.9 1.2 24.5 6.3 36.2 11.3 3 1.3 6.1 2.5 9.1 3.9.9.6 2 1.1 2.2 2.4-1 5.2-1.3 10.6-1.1 15.9C265 211.4 264.1 210.6 263.3 210.1z"/><path fill="#26a526" d="M212.6,112.2c2.3-0.3,4.6,0.5,6.9,0.7c2.7,0.3,5.4,0.7,8-0.6c1.7-0.7,3-2.2,3.5-3.9c0.3-0.9,0.6-1.8,1.7-1.9
	c1.1-0.1,1.5,0.8,2,1.6c1.3,2.4,2.6,4.8,4,7.1c1.9,3.1,4.7,4.1,8.1,3.5c1.6-0.3,3-1.3,3.7-2.8c0.4-0.8,0.8-1.6,1.8-1.5
	c1.1,0.1,1.3,1.1,1.5,2c0.4,2.1,1.1,4.1,2.1,5.9c0.6,1.5-0.6,2.9-0.3,4.4c0,0.8,0.2,1.6,0.4,2.4c0.2,0.9,0.2,1.8-0.9,2.3
	c-1.8,0.4-3.3,1.6-4.2,3.2c-0.2,0.4-0.6,0.8-1.1,1c-8.4-2.6-16.6-5.8-23.1-12.1c-2.6-2.5-5.5-4.8-8.4-7c-1.4-1.2-2.9-2.2-4.6-2.9
	C213.3,113.3,212.6,113.1,212.6,112.2z"/><path fill="#b8303c" d="M254.8,131.1c0.8-0.2,1.1-0.6,0.8-1.5c-0.3-1-0.8-2-0.4-3c1.8,2,3.5,4.2,6,5.5c1.3,0.7,2.2,1,3.2-0.4
	c1-1.5,2.7-2.2,4.3-2.9c1.9-0.9,2.2-1.6,1.2-3.4c-0.8-1.4-1.7-2.8-2.7-4c-0.4-0.5-0.9-0.9-0.7-1.6c1.3-0.8,2.6,0.3,4,0
	c1.8,0.9,2.3,2.6,3,4.1c0.9-1.1,1-3.2,2.9-3.8c0.3,0,0.6-0.1,0.8-0.1c3.5-2.6,7.1-2.9,10.9-0.4c0.9,0.5,1.5,1.3,1.8,2.2
	c-0.9,0.4-1.2-0.4-1.7-0.8c-3.5-2.6-7.4-1.9-9.8,1.8c-0.5,0.8-1,1.7-1.4,2.6c-1.1,2.6-1.1,3.4,1.2,4.4c0.4,0.2,0.8,0.6,1.1,1
	c2,2.2,4.6,2.5,6.8,0.4c2.4-2.2,4.4-4.8,3.7-8.4c-0.1-0.3,0-0.7,0.2-1c1.3,1.6,1.7,3.8,1,5.7c-0.3,0.9-0.1,1.9,0.7,2.6
	c-0.9,2.6-3,4.7-5.6,5.5c-1.4,0.5-2.8,0.8-4.3,1.3c4.2,2,9.2,3.1,9.4,9.1c0.3,5.5-6.1,11.7-12.4,9.5c-0.5-0.2-0.9-0.3-1.3,0.2
	c-0.9,0.4-1.3-0.3-1.8-0.8c-0.7-0.5-1.2-1.2-1.4-2.1c-0.6-3.8-3.6-3.6-6.3-3.8c-1.2-0.1-1.2,0.7-1.2,1.5c0,2.5-0.5,4.9-1.4,7.2
	c-0.3,1.1-1.1,2-2.2,2.4c-1.9,0.4-3.7,1.5-5.8,0.9c-0.8-0.9,0.1-1.1,0.6-1.5c4.2-2.8,6-8,4.4-12.8c-1.1-3.1-5.4-4.5-9-3.1
	c-1.8,0.7-3,2.2-4.8,2.9c-0.7-0.6-0.4-1.2-0.1-1.8c0.4-0.9,0.7-1.9,0.9-2.9c2.9-2.3,6.2-2.7,9.7-2.2c0.8,0.1,1.8,0.7,2.1-0.8
	c0.2-1.2,0.8-2.4-0.9-3.2c-1.9-0.8-3.6-2-4.9-3.5C254.9,131.8,254.8,131.5,254.8,131.1z"/><path fill="#d7932e" d="M325.6,211.1c-1.4-2.2-3.8-3.7-6.4-4c-1.6-0.3-3.1-1.4-3.7-2.9c-2-3.4-2.1-3.5,1.5-5.3
	c8.2-4.1,16.4-7.9,24.6-12c2-1,4.3-1.8,5.8-3.7c2.3,0.3,3.2,1.8,2,4.2c-1.8,3.6-4.2,7-7,9.9C337.3,202.6,331.5,206.8,325.6,211.1z"/><path fill="#26a526" d="M249.4,141.7c1,1.9-1.3,3-1.1,4.7c0.1,0.6-0.2,1.2-0.7,1.4c-4.7,0.1-9.3,1.1-13.5,3c-0.6-0.2-0.5-0.6-0.4-1
	c0.2-0.6,0.5-1.2,0.7-1.7c2.4-5.5,0.5-9.4-5.4-11.1c-2.4-0.6-4.8-0.9-7.3-1c-2.3-0.1-2.4-0.4-2.4-2.7c0-2.4-0.2-4.9-2.4-6.5
	c-1.1-5.5-4.6-8.7-9.8-10.4c-0.9-0.3-1.7-0.7-1.8-1.8c-0.1-0.8,0.4-1.5,1.1-1.6c0,0,0.1,0,0.1,0c6.9,1,11.8,5.3,16.6,9.8
	c6.4,5.9,13.3,10.8,21.8,13.1c1.6,0.3,3.1,1,4.3,2.1C249.9,139.2,249.9,140.5,249.4,141.7z"/><path fill="#d7932e" d="M237.2 223.7c.2-1.6-.3-3.3-1.4-4.5-.9-1.1-1.3-2.6-.9-4 .6-5.6.6-5.6 5.8-3.5 7.7 3 15.2 6.7 22.4 10.9 1.7 1 2.9 2.7 5.1 2.8.5-.4.7-1.2 1.6-.9 1.4 1.3 2.7 2.7 1.9 4.7-.8 2.1-2.8 2.3-4.8 2.3-4.5-.1-8.9-.9-13.2-2.3C248.2 227.5 242.7 225.6 237.2 223.7zM278.6 223.4c.1.5.1 1 .1 1.5-.1.8.3 1.6 1.1 1.8.9.4 1.5-.2 2-.8 3.1-4.4 7.5-7.5 11.5-11 4.1-3.6 8.5-6.8 13.1-9.8 1-.7 1.4-.7 2.2.5 1.8 2.6 2.8 5.2 1.4 8.4-.7 1.9-.7 4.1.1 6-7.4 3.6-15 7-23.1 8.9-1.4.3-2.8 1-4.2 1.4-1.5.5-3.1.7-4.3-.5-1.2-1.2-1.1-2.8-.6-4.3C278 224.7 278.4 224.1 278.6 223.4zM194.2 201.9c.4.7 1.3 1 2 .8 5.2-1.5 10.5-.8 15.6.1 6.1.8 12.1 2.5 17.8 4.9 1.1.5 1.2.9.7 1.8-.7 1.1-1.3 2.3-1.8 3.6-.2.8-.8 1.4-1.6 1.5-2.2.6-4.2 1.7-5.8 3.3-7.6-3.1-15.2-6.1-22.4-10.2-1.7-.8-3.3-1.9-4.7-3.1-1.3-1.3-1.9-2.8-.4-4.4C194.4 200.6 194.3 201.3 194.2 201.9z"/><path fill="#d64142" d="M266.6,119.5c1.2,1.6,2.4,3.2,3.5,4.9c1.7,2.7,1.5,3.5-1.3,4.8c-1.8,0.7-3.3,1.9-4.5,3.3
	c-0.4,0.6-0.9,1.2-1.7,0.8c-3.1-1.6-6.1-3.2-7.3-6.7c-0.3-1.5,0.4-2.8,0.7-4.2c0.7-1.1,1.6-2.1,2.7-2.8c1.6-0.8,3.4-1.2,5.2-1.3
	C265,118.3,266.1,118.3,266.6,119.5z"/><path fill="#1b8d25" d="M249.2,137.9c-5.3-2.1-10.9-3.4-15.9-6.5c-3.5-2.4-6.9-5-10-7.9c-3.6-3.2-7.2-6.4-11.6-8.5
	c-1.6-0.7-3.6-0.5-5-1.9c1.9-0.8,3.9-1.1,5.9-0.8c7.3,3.6,12.7,9.7,19.1,14.6c4.5,3.4,9.7,5.5,15.1,7.1c1.2,0.2,2.3,0.8,3.1,1.6
	c0.5,0.7,0.4,1.6-0.3,2.1C249.5,137.7,249.4,137.8,249.2,137.9z"/><path fill="#26a526" d="M213.4,84.9c3.7-0.9,7.3,1.8,6.9,5.4c-0.1,0.6-0.2,1.1-0.5,1.6c-0.4,0.8-1.1,1.4-2.1,0.9
	c-0.7-0.3-1-1.1-0.7-1.7c0-0.1,0.1-0.2,0.1-0.2c0.5-0.9,0.2-2-0.6-2.6c-0.8-0.7-2-0.9-3-0.4c-1.8,0.7-2.9,2.4-2.7,4.3
	c0.4,2,2,2.3,3.7,2.4c1.3,0.1,2.5-0.1,3.8,0c3.1,0.3,4.6,2.3,4,5.4c0,0.2-0.1,0.4-0.2,0.6c-1,2.7-1.1,3.1,2.6,2.6c1-0.1,2-0.5,3.1,0
	c0.8,0.2,1.2,1.1,1,1.8c-0.2,0.8-0.9,0.9-1.7,0.7c-1.4-0.5-2.8,0.2-4.1,0.3c-3.1,0.1-4.6-1.5-3.8-4.6c1-4.1,0.9-4.2-3.4-4.1
	c-4,0.2-6.4-1.1-7.3-3.6c-1.2-3.6,0.8-7.5,4.4-8.7C213.1,85,213.2,84.9,213.4,84.9z"/><path fill="#fbb641" d="M233.8,150.7c4.2-2.4,9.1-3.5,13.9-3.2c0.6,0.4,0.4,0.9,0.3,1.4c-0.3,1.1-1.4,1.7-2.5,1.5
	c-7.7-0.5-12.6,3.7-16.7,9.5c-3.2,4.5-5.2,9.6-7.5,14.5c-0.3,1.1-1,2-1.9,2.7c-1.1,0-2.1,0-3.2-0.1c3.3-6.8,6-13.9,10.4-20.2
	c0.1-0.3,0.2-0.6,0.3-1c1.7-2.3,4.4-3.4,6.5-5.2C233.5,150.7,233.6,150.6,233.8,150.7C233.8,150.6,233.8,150.6,233.8,150.7z"/><path fill="#1b8d25" d="M185.9 159.6c-.4-1 .3-1.5 1-2.1 4.9-4.1 10.3-7.5 16.2-10 6.1-2.6 12.1-2.5 18.3-1 1.3.3 3.3.4 2.9 2.3-.5 1.8-2.2.8-3.4.4-8.3-2.2-16-.4-23.1 4.1-3 1.7-5.8 3.7-8.4 5.9-.7.5-1.4.9-2.3 1C186.5 160.2 186.1 160 185.9 159.6zM332.4 112.5c-5 .2-9.9.7-14.8 1.7-7.8 1.4-15.2 4.3-21.8 8.8-.8.5-1.7 1-2.4 0-.7-1 0-1.7.7-2.3 2.9-2.1 6-3.9 9.3-5.2 3.5-1.4 7.1-2.5 10.8-3.3 6-1.5 12.1-2.3 18.2-2.3C333.2 110.7 333.2 111.8 332.4 112.5zM233.8 150.7c-.1.1-.2.2-.3.2-2.1.3-2.2 0-1.7-1.9.4-1.3 1.1-2.4 1.4-3.7.7-2.4-.4-3.7-2.1-4.9-3.4-2.2-7.2-1.9-11-2.1-.6 0-1.3 0-1.9 0-2.3 0-2.9-.9-2-2.9.9-1.6 1-3.5.3-5.2-.3-.7.2-1 .4-1.5 0-.6 0-1.2.1-1.9.1-.3.2-.6.3-1.1 2 2.3 2.9 5.3 2.5 8.4-.2 1 .1 1.3 1.2 1.4 2.4.1 4.9.3 7.3.8 1.9.4 3.7 1.3 5.2 2.5 3 2.4 3.4 5.6 1.3 9.8C234.5 149.3 234.2 150 233.8 150.7z"/><path fill="#26a526" d="M318.3,91.8c-0.1-0.8-0.2-1.7-0.1-2.5c0-0.8,0.6-1.4,1.4-1.4c0,0,0.1,0,0.1,0c1,0.1,1.3,0.7,1.1,1.6
	c-0.1,0.4-0.1,0.8,0,1.2c0.2,0.9,0.4,2.1,1.4,2c0.8,0,0.5-1.3,0.7-2c0.2-1.4,0.6-2.7,1.3-4c0.9-1.3,2-2.3,3.7-2
	c2.1,0.4,2.9-0.6,3.6-2.5c1-2.9,3.2-4.2,5.8-3.9c0.6,0.1,1.2,0.3,1.8,0.6c0.8,0.3,1.3,1.2,1,2c0,0,0,0,0,0c-0.4,1-1.3,0.9-2.1,0.5
	c-2-0.9-3.2,0.1-3.7,1.8c-1,3-2.4,4.9-5.9,4.1c-1-0.2-1.5,0.5-1.9,1.4c-0.4,1.2-0.7,2.4-0.9,3.7c-0.3,1.4-0.4,2.9-2.2,3.2
	c-1.7,0.3-2.8-0.6-3.8-1.8C319,93.3,318.6,92.5,318.3,91.8z"/><path fill="#fbb641" d="M267,194.4l-2.4-2.1c-0.5-2.3,0.8-4.3,1.1-6.5c0.9-5.2,2.3-10.2,2.3-15.5c0.2-2.6-0.2-5.2-1.1-7.6
	c-0.3-0.6-0.6-1.3,0.1-1.9c0.6-0.3,1.3-0.4,2-0.2c1.8,0.6,2.1,2.2,2.5,3.8c1.1,5,0.6,9.9-0.4,14.8c-0.6,2.9-0.7,5.8-2.1,8.5
	C268.3,189.9,267.7,192.2,267,194.4z"/><path fill="#d64142" d="M291.1,145.9c-1-4.3-4-6.5-8-7.6c-0.5-0.1-1.1-0.2-1.6-0.4c-0.6-0.2-0.7-0.9-0.6-1.4c0-0.4,0.4-0.6,0.7-0.6
	c4.5,0,7.6-2.2,10-5.8c3,3,3.6,6.3,2,10.1c-0.2,0.6-0.5,1.2-0.7,1.7c-0.2,0.3-0.5,0.6-0.7,0.8C291.2,143.6,291.3,144.8,291.1,145.9z
	"/><path fill="#d7932e" d="M269,187.7c0.7-3.9,1.4-7.9,2-11.8c0.7-3.9,0.6-8-0.2-11.9c-0.3-1.1-0.5-2.5-1.9-3c0.7-1,1.6-0.8,2.6-0.3
	c2.3,4.1,2.4,8.6,1.7,13.1c-0.7,5.1-1.7,10.2-3.1,15.2L269,187.7z"/><path fill="#fbb641" d="M194.2 201.9c-.2-.6-.3-1.2-.5-1.8 1.8-2.4 4.2-4.1 6.4-5.9 2.2-1.8 4.5-3.5 6.7-5.3.8.8 1.9.5 2.8.6-2 3-5.1 4.7-7.9 6.8-2 1.5-3.8 3.6-6.5 4C194.5 200.5 194.6 201.4 194.2 201.9zM269.8 224.5c-.5.3-1 .6-1.6.9.6-1.2.6-2.5-.6-3.1-2.5-1.2-3.1-3.5-3.5-5.8-.4-2.1-.6-4.3-.8-6.4.9-.1 1.7.7 2.7.2C266.6 215.2 267.9 220 269.8 224.5z"/><path fill="#d64142" d="M270.6 119.9c1-.3 2.1-.6 3.1-.8.8.2 1.7.4 2.5.6.1.1.2.2.2.3-1.2 1.5-2.2 3.3-2.9 5.1C272.9 123.3 271.9 121.5 270.6 119.9zM271.5 160.8c-.9.1-1.7.2-2.6.3-.6 0-1.2 0-1.8 0-1.5-.1-2.9-.2-3.9-1.6 2.5-2.3 2.6-5.5 2.9-8.6.1-.5.1-1 0-1.5-.2-1 .1-1.3 1.1-1.1 1.7.5 3.4.6 5.2.4.8-.1.8.2 1 .9.8 2.3 1.6 4.8 4 6.1C276.2 158.2 274 159.6 271.5 160.8z"/><path fill="#fbb641" d="M263.3,159.4c1.3,0.5,2.6,1.1,3.9,1.6c-0.7,1.1,0.5,1.8,0.8,2.7c1.2,3.7,0.8,7.5,0.3,11.3
	c-0.7,5.9-2,11.7-3.7,17.4c-5-2.1-9.9-4.2-14.9-6.2c-9.7-4.1-19.6-7.7-30.2-8.9c2.3-4.8,4.3-9.8,6.9-14.4c2.9-5.1,6.5-9.6,12.2-12
	c2.1-0.8,4.3-1.1,6.6-0.9c1.2,0.1,2.1,0,2.6-1.2c0.6,0.3,0.7,0.8,0.8,1.4c0.3,4.5,3.3,8.3,7.5,9.7c0.4,0.2,0.7,0.4,1,0.7
	C259.3,161,261.2,159.9,263.3,159.4z"/><path fill="#d64142" d="M249.2 137.9c.2-.8.5-1.5.7-2.3 1.3-1.9 2.2-4.2 4.9-4.4 1.8 1.9 4.1 3.4 6.5 4.4.8.3.9.7.6 1.4-.4 1.1-.3 2.6-1 3.3-.5.5-2-.2-3.1-.4-3-.5-5.8.6-8.5 1.8C249 140.5 249.3 139.1 249.2 137.9zM257.1 160.5c-4.8-.9-8.5-4.8-9.1-9.7-.1-.7-.2-1.4-.3-2.1 0-.4.1-.8.1-1.2.2-.4.3-.8.5-1.1 2.6-2.5 5.4-4.4 9.3-3.7 3.5.6 4.9 1.7 5.6 5.2.5 2.9.1 5.9-1.1 8.6C261.1 158.6 259.1 159.6 257.1 160.5zM270.3 131.8c4.4-1.2 7.9 1.7 7.7 6-.2 5-3.6 8.5-7.8 8.2-2.8-.2-5.1-2-5.9-4.7-1-2.6.5-5.1 2.2-7.1C267.5 133 268.7 131.9 270.3 131.8zM289.9 121.7c.9 4.3-1.1 8.6-4.8 10.8-2.1 1.1-4.6.5-6-1.3-.4-.6-.9-1.1-1.5-1.4-2.2-.8-2.2-2.2-1.4-4 .6-1.6 1.5-3.2 2.6-4.6 2.8-3.3 7.3-3.3 10.4-.3C289.4 121.3 289.6 121.5 289.9 121.7L289.9 121.7zM276.2 149c-.4-.9 0-2 .8-2.5 1.7-1.2 2.9-2.9 3.4-4.9.1-.7.6-1 1.4-.9 3.9.4 6.8 3.8 6.7 7.7-.3 3-4.1 5.6-6.2 5.7C279.3 154.2 277 152.3 276.2 149z"/><path fill="#26a526" d="M269.2,78.8c-5.1,1.5-8.1,6.8-6.6,12c0.5,1.6,1.4,3.1,2.6,4.3c1.8,1.9,4.7,2.4,6.9,1c2.2-1.6,3-4.4,2-6.9
	c-0.6-1.7-2.4-2.7-4.2-2.5c-0.7,0.2-1.3,0.5-1.4,1.4c-0.1,0.7,0.3,1.3,1,1.5c0.1,0,0.1,0,0.2,0c1.2,0,1.8,0.5,1.9,1.7
	c0.1,1-0.3,2-1.2,2.5c-1,0.5-2.2,0.4-2.9-0.4c-3.2-2.5-3.1-8.4,0.4-10.6c2.5-1.6,5.3-2.2,8-0.8c3.4,1.7,4.7,5,4.9,8.5
	c0.4,7.4-3.4,13.2-7.1,19.4c-2-3.9-6.3-4.4-8.9-7.1c-0.7-0.7-1.8-0.5-2.8-0.3c-1,0.3-2,0.5-3.1,0.8c-1.1,0.3-1.8-0.1-1.9-1.2
	c-0.1-0.6-0.2-1.1-0.2-1.7c-0.1-3.5-1.6-5.7-5.1-6.8c-5.2-1.6-6.8-6.3-4.1-11.1c0.5-0.9,1-1.7-0.1-2.4c-0.9-0.6-1.8,0-2.3,0.8
	c-0.3,0.5-0.6,0.9-0.8,1.5c-2.3,5-0.2,11,4.8,13.3c0.4,0.2,0.9,0.4,1.3,0.5c2.3,0.8,3.4,2,3.5,4.3c0,0.6,0.1,1.1,0.2,1.7
	c0.4,3.4,2.5,4.7,5.8,3.7c1.1-0.3,2.2-1,3.5-0.5c-2.9,1.3-4.9,4-5.1,7.2c-0.3,2.7,0.6,4.2,3,5.4c2.9,0.1,4.3-1.8,5.4-4.2
	c0.8-1.7,1.2-3.6,1.3-5.5c3.1,0.9,4.8,4.1,5.6,10.7c0,0-0.1,0.1-0.1,0.1c0.6,0.8,1.7,1,2.6,0.5c0.1-1.8-0.1-3.5-0.6-5.2
	c-0.4-1.1-0.2-2.4,0.5-3.3c1.8-3.1,3.5-6.2,5.2-9.4c2-4,2.8-8.5,2.3-12.9C282.8,81.1,276.2,76.6,269.2,78.8z M265.1,108.7
	c0,2.2-0.8,4.3-2.2,5.9c-0.2,0.1-0.3,0.3-0.5,0.4c-0.7,0.1-1-0.3-1.2-0.9c-0.5-1.8,1.1-5.1,2.9-5.8
	C264.6,108,265.2,107.8,265.1,108.7z"/><g enable-background="new"><path fill="#d64142" d="M233.7 316.3c-.2.3-.6.6-1 .9-.5.3-1 .5-1.7.7-.8.2-1.6.3-2.3.2-.7-.1-1.2-.3-1.5-.7-.4-.4-.8-1.1-1.4-2.1-.6-1-1.2-2.1-1.8-3.3-.6-1.2-1.2-2.4-1.9-3.7s-1.1-2.4-1.5-3.3c.2-.4.5-.7 1-1.1.4-.3.9-.6 1.5-.8.7-.2 1.4-.2 1.9 0 .5.2 1 .7 1.3 1.4.6 1.5 1.1 2.8 1.6 3.7.4 1 .8 1.8 1 2.4.3.6.5 1.1.6 1.4.1.3.3.6.4.8l.1 0c0-.3 0-.9-.1-1.5 0-.7 0-1.4 0-2.3 0-.9 0-1.8 0-2.8 0-1 0-2-.1-3 .4-.3.7-.6 1.1-.9.4-.2.9-.4 1.5-.6.7-.2 1.4-.2 1.9-.2.6.1 1 .4 1.3.8.5.8 1 1.7 1.4 2.5.5.8.9 1.5 1.3 2.2.4.7.7 1.3 1 1.8.3.5.5.9.7 1.3l.2 0c-.2-1.6-.4-3.4-.7-5.1-.2-1.8-.5-3.6-.8-5.4.3-.3.7-.6 1-.8.4-.2.8-.4 1.2-.5.7-.2 1.4-.2 1.9 0 .6.2.9.7 1.1 1.4.1.3.2.8.2 1.5.1.7.1 1.5.2 2.3.1.9.1 1.8.1 2.8s0 1.9.1 2.8c0 .9 0 1.7 0 2.5s0 1.3-.1 1.7c-.2.3-.6.6-1.2 1-.6.3-1.2.6-1.9.7-1.7.5-2.9.3-3.4-.5-.2-.3-.5-.8-.8-1.3s-.7-1.1-1.1-1.7c-.4-.6-.8-1.3-1.2-2-.4-.7-.7-1.3-1-2 0 .8.1 1.6.1 2.4 0 .8 0 1.6 0 2.4 0 .8 0 1.5-.1 2.2C233.8 315.4 233.7 315.9 233.7 316.3zM244.5 293.4c-.2-.8-.1-1.5.3-2.2.4-.7 1-1.1 1.9-1.4.9-.2 1.6-.2 2.3.2.7.4 1.1 1 1.3 1.8.2.8.1 1.5-.3 2.2-.4.7-1 1.1-1.9 1.4-.9.2-1.6.2-2.3-.2C245.2 294.8 244.7 294.2 244.5 293.4zM255.1 311.1c-.2.1-.5.2-1 .4-.4.2-.9.3-1.3.5-.5.1-.9.2-1.2.2-.4 0-.7 0-1-.1-.3-.1-.6-.3-.8-.6-.2-.3-.4-.7-.5-1.2l-3.4-12.6c.2-.1.5-.2 1-.4.4-.2.9-.3 1.3-.5s.9-.2 1.2-.2c.4 0 .7 0 1 .1s.6.3.8.6c.2.3.4.7.5 1.2L255.1 311.1zM270 302.4c.4 1.6.2 3-.8 4.2-.9 1.2-2.6 2.1-4.8 2.7-.9.2-1.7.4-2.5.5-.8.1-1.5.1-2.1-.1-.6-.1-1.1-.3-1.5-.6s-.7-.7-.8-1.3c-.1-.5-.1-.9 0-1.3.1-.4.3-.7.5-1 .7.2 1.4.3 2.3.3.8.1 1.8-.1 2.8-.3.6-.2 1.1-.4 1.4-.7.3-.3.4-.6.3-.9-.1-.3-.3-.5-.6-.6s-.7-.1-1.3-.1l-1 .1c-1.9.1-3.4-.1-4.4-.6-1.1-.5-1.8-1.5-2.2-2.9-.2-.8-.2-1.5-.1-2.2.2-.7.5-1.3 1-1.9s1.1-1.1 1.9-1.5c.8-.4 1.7-.8 2.7-1.1.8-.2 1.5-.3 2.2-.4.7-.1 1.3-.1 1.9 0 .6.1 1 .3 1.4.6.4.3.6.7.8 1.2.1.5.1.9.1 1.3-.1.4-.2.7-.4 1-.2-.1-.5-.1-.8-.1-.4 0-.7 0-1.2 0-.4 0-.8 0-1.3.1-.4 0-.8.1-1.1.2-.7.2-1.2.4-1.5.7-.3.3-.5.5-.4.9.1.2.2.4.5.5s.7.1 1.3.1l1 0c2.1-.1 3.7.2 4.7.7C268.9 300.2 269.6 301.1 270 302.4zM288.5 302.2c-.2.1-.5.3-.9.4-.4.2-.9.3-1.4.5-.5.1-.9.2-1.2.2-.4 0-.7 0-1-.1-.3-.1-.6-.3-.8-.6-.2-.3-.4-.7-.5-1.2l-1.8-6.9c-.2-.8-.6-1.4-1.1-1.6-.5-.2-1.1-.3-1.7-.1-.4.1-.8.3-1.1.5-.3.2-.6.4-.8.6l2.9 10.8c-.2.1-.5.3-.9.4-.4.2-.9.3-1.4.5-.5.1-.9.2-1.2.2s-.7 0-1-.1c-.3-.1-.6-.3-.8-.6-.2-.3-.4-.7-.5-1.2l-4.8-17.9c.2-.1.5-.2 1-.4s.9-.3 1.3-.5c.5-.1.9-.2 1.2-.2.4 0 .7 0 1 .1.3.1.6.3.8.6.2.3.4.7.5 1.2l.8 3c.2-.2.6-.4 1.1-.7.5-.3 1.1-.5 1.8-.7 2-.5 3.8-.5 5.2.3s2.4 2.1 2.9 4.1L288.5 302.2z"/></g><path fill="#d64142" d="M299.3,295.2c-0.4-0.5-0.8-1-1.2-1.5c-0.4-0.6-0.9-1.2-1.4-2c-0.5-0.7-1-1.6-1.6-2.6c-0.6-1-1.2-2.1-1.9-3.4
		c0.2-0.4,0.5-0.7,1-1.1c0.4-0.3,0.9-0.6,1.5-0.7c0.7-0.2,1.4-0.2,1.9,0c0.6,0.2,1.1,0.6,1.5,1.4l4.7,7.8l0.1,0
		c0.1-0.8,0.1-1.6,0.1-2.5c0-0.9,0-1.8,0-2.7c0-0.9,0-1.9-0.1-2.8c0-0.9-0.1-1.8-0.2-2.7c0.6-0.6,1.4-1,2.3-1.2
		c0.7-0.2,1.4-0.2,1.9,0c0.6,0.2,0.9,0.7,1.1,1.4c0.1,0.6,0.2,1.2,0.3,2c0.1,0.8,0.1,1.6,0.1,2.5s-0.1,1.8-0.2,2.8
		c-0.1,1-0.2,1.9-0.3,2.8c-0.1,0.9-0.3,1.8-0.4,2.7s-0.4,1.6-0.5,2.3c-0.3,1.2-0.6,2.1-0.9,2.9c-0.3,0.8-0.7,1.4-1,1.9
		c-0.4,0.5-0.7,0.9-1.2,1.1c-0.4,0.3-0.9,0.4-1.4,0.6c-0.9,0.2-1.6,0.2-2.3-0.2c-0.7-0.4-1.2-1-1.5-1.8c0.5-0.7,1-1.4,1.5-2.2
		c0.5-0.8,0.9-1.6,1.3-2.4c-0.4,0-0.8-0.1-1.3-0.4C300.7,296.7,300,296.1,299.3,295.2z" enable-background="new"/><g enable-background="new"><path fill="#d64142" d="M328.4 283.5c.3 1.3.5 2.5.3 3.6s-.5 2.1-1 3c-.5.9-1.2 1.6-2.1 2.2-.9.6-2 1.1-3.2 1.4s-2.4.4-3.5.3c-1.1-.1-2.1-.4-3-.9-.9-.5-1.7-1.2-2.3-2.1s-1.1-1.9-1.5-3.2c-.3-1.2-.4-2.4-.3-3.5.1-1.1.5-2.1 1-3 .5-.9 1.2-1.6 2.1-2.3.9-.6 1.9-1.1 3.2-1.4 1.2-.3 2.4-.4 3.5-.3 1.1.1 2.1.4 3 .9.9.5 1.7 1.2 2.3 2.1S328.1 282.3 328.4 283.5zM317.6 286.4c.3 1.3.8 2.2 1.5 2.7.7.5 1.4.7 2.3.5.9-.2 1.4-.7 1.7-1.6.3-.8.3-1.8-.1-3.1-.3-1.2-.8-2.1-1.5-2.7-.7-.5-1.4-.7-2.3-.5-.9.2-1.4.7-1.7 1.5C317.2 284.1 317.2 285.1 317.6 286.4zM329 275.5c.2-.1.5-.3.9-.4.4-.2.9-.3 1.4-.5.5-.1.9-.2 1.2-.2.4 0 .7 0 1 .1.3.1.6.3.8.6.2.3.4.7.5 1.2l1.8 6.6c.2.8.6 1.4 1.1 1.6s1.2.3 1.9.1c.5-.1.8-.3 1.1-.4.3-.2.5-.3.6-.4l-2.9-10.8c.2-.1.5-.3.9-.4.4-.2.9-.3 1.4-.5.5-.1.9-.2 1.2-.2.4 0 .7 0 1 .1.3.1.6.3.8.6.2.3.4.7.5 1.2l2.5 9.4c.3 1 0 1.9-.7 2.7-.6.6-1.4 1.2-2.3 1.7-.9.5-2 .9-3.2 1.2-1.1.3-2.2.4-3.2.5-1 0-1.9-.2-2.7-.5-.8-.3-1.5-.9-2.1-1.6-.6-.7-1-1.6-1.3-2.8L329 275.5zM359.2 266.7c1.1-.3 2.2-.5 3.1-.5 1 0 1.9.1 2.6.4.8.3 1.4.7 2 1.4.5.6.9 1.4 1.2 2.4l1.9 6.9c.1.5.1 1-.1 1.4s-.5.8-.8 1.2c-1.1 1.2-2.9 2.1-5.3 2.7-1.1.3-2.1.5-3 .5-.9 0-1.8-.1-2.5-.3-.7-.2-1.4-.6-1.9-1.2-.5-.5-.9-1.2-1.1-2.1-.4-1.4-.2-2.6.4-3.6.6-1 1.8-1.8 3.5-2.5l3.9-1.5-.1-.2c-.2-.6-.5-1-1.1-1.1-.6-.1-1.4 0-2.4.2-.8.2-1.5.5-2.2.9-.7.4-1.3.7-1.8 1.2-.3-.1-.6-.3-.9-.7-.3-.3-.5-.7-.6-1.1-.1-.5-.1-1 0-1.4s.5-.8 1-1.1c.5-.4 1.2-.7 2-1.1C357.7 267.2 358.4 266.9 359.2 266.7zM362.7 278.8c.3-.1.7-.2 1.1-.4.4-.2.7-.4.9-.5l-.7-2.5-2.2.8c-.6.2-1 .4-1.3.8-.3.3-.4.7-.3 1.1.1.4.4.7.7.9C361.3 279 361.9 279 362.7 278.8z"/></g><path fill="#d64142" d="M208.1 358.5c-.2.3-.5.6-.9.8-.4.2-.9.4-1.4.6-.7.2-1.4.3-1.9.2-.5-.1-.9-.3-1.2-.7-1.1-1.7-1.9-3-2.6-4s-1.2-1.9-1.7-2.7l-.2 0c.3 1.2.5 2.4.7 3.4.2 1 .5 2 .7 2.9s.5 1.9.7 2.9c.2 1 .5 2.1.7 3.3-.2.2-.6.4-1 .5-.4.2-.8.3-1.3.5-.9.2-1.7.3-2.2.1-.6-.2-1-.6-1.2-1.4l-3.3-16c.1-.3.4-.7.8-1.2.5-.5 1.2-.8 2.2-1.1 1.1-.3 2-.4 2.7-.2.7.2 1.3.6 1.8 1.3.3.4.7 1 1.1 1.5.4.6.8 1.2 1.2 1.8.4.6.8 1.2 1.2 1.9.4.6.7 1.2 1 1.7l.2 0c0-1.9.1-3.7.1-5.4s.2-3.2.3-4.4c.3-.2.6-.5 1.1-.7s1-.4 1.6-.6c1-.3 1.9-.3 2.6-.2.7.1 1.2.5 1.5 1 .2.4.5 1 .8 1.8.3.8.7 1.8 1.1 2.8.4 1 .8 2.2 1.2 3.3s.8 2.3 1.2 3.4c.4 1.1.7 2.1 1 3s.5 1.6.7 2.1c-.3.3-.6.5-1 .7s-.8.4-1.4.5c-.8.2-1.5.3-2.1.1-.6-.1-1-.6-1.3-1.3-.7-2.2-1.3-4.2-1.9-6-.5-1.8-1-3.3-1.3-4.5l-.2 0c0 .9 0 1.9-.1 3.3C208.3 354.8 208.2 356.4 208.1 358.5zM228.6 358.5c-1.2.3-2.4.5-3.5.4-1.1-.1-2.2-.3-3.1-.8-1-.5-1.8-1.2-2.5-2.1s-1.3-2.1-1.6-3.4c-.4-1.4-.5-2.6-.3-3.7.2-1.1.5-2.1 1.1-2.9.6-.8 1.3-1.5 2.1-2.1.8-.5 1.8-.9 2.7-1.2 1.1-.3 2.1-.4 3.1-.3 1 .1 1.9.3 2.7.7.8.4 1.5 1 2.1 1.7.6.7 1 1.5 1.2 2.5.2.7.1 1.3-.2 1.8s-.8.9-1.4 1.1l-7.3 3.2c.4.6 1 1 1.8 1.2.8.2 1.6.1 2.5-.1.8-.2 1.6-.5 2.3-1 .7-.4 1.2-.8 1.6-1.2.4.1.7.3 1.1.6.3.3.5.7.7 1.1.2.9 0 1.7-.7 2.4-.6.5-1.2 1-2 1.3S229.3 358.3 228.6 358.5zM224.5 346.6c-.5.1-.9.3-1.2.6-.3.3-.6.5-.7.9-.2.3-.3.7-.3 1 0 .4 0 .7.1 1l5.1-2.3c-.2-.4-.5-.7-1-1.1C225.9 346.4 225.3 346.4 224.5 346.6zM242.8 354.1c-.2.1-.5.3-.9.4-.4.2-.9.3-1.4.5-.5.1-.9.2-1.2.2-.4 0-.7 0-1-.1-.3-.1-.6-.3-.8-.6-.2-.3-.4-.7-.5-1.2l-2.5-9.3c-.1-.5-.1-.9-.1-1.3.1-.4.3-.8.5-1.1.3-.4.6-.7 1-1.1.4-.3.9-.7 1.4-1 .5-.3 1.1-.6 1.6-.8s1.2-.5 1.8-.6c1-.3 1.8-.3 2.5-.1.7.2 1.1.8 1.4 1.6.1.3.1.6.1.9 0 .3 0 .6-.1.8-.4.1-.9.3-1.3.4-.4.2-.9.3-1.3.5-.4.2-.8.4-1.2.6s-.7.4-.9.6L242.8 354.1zM255.2 350.8c-.2.1-.5.3-.9.4-.4.2-.9.3-1.4.5-.5.1-.9.2-1.2.2-.4 0-.7 0-1-.1-.3-.1-.6-.3-.8-.6-.2-.3-.4-.7-.5-1.2l-2.5-9.3c-.1-.5-.1-.9-.1-1.3.1-.4.3-.8.5-1.1.3-.4.6-.7 1-1.1.4-.3.9-.7 1.4-1 .5-.3 1.1-.6 1.6-.8s1.2-.5 1.8-.6c1-.3 1.8-.3 2.5-.1.7.2 1.1.8 1.4 1.6.1.3.1.6.1.9 0 .3 0 .6-.1.8-.4.1-.9.3-1.3.4-.4.2-.9.3-1.3.5-.4.2-.8.4-1.2.6-.4.2-.7.4-.9.6L255.2 350.8z" enable-background="new"/><g enable-background="new"><path fill="#d64142" d="M264.4 344.3c-.4-.5-.8-1-1.2-1.5-.4-.6-.9-1.2-1.4-2-.5-.7-1-1.6-1.6-2.6-.6-1-1.2-2.1-1.9-3.4.2-.4.5-.7 1-1.1.4-.3.9-.6 1.5-.7.7-.2 1.4-.2 1.9 0 .6.2 1.1.6 1.5 1.4l4.7 7.8.1 0c.1-.8.1-1.6.1-2.5 0-.9 0-1.8 0-2.7 0-.9 0-1.9-.1-2.8 0-.9-.1-1.8-.2-2.7.6-.6 1.4-1 2.3-1.2.7-.2 1.4-.2 1.9 0 .6.2.9.7 1.1 1.4.1.6.2 1.2.3 2 .1.8.1 1.6.1 2.5 0 .9-.1 1.8-.2 2.8-.1 1-.2 1.9-.3 2.8-.1.9-.3 1.8-.4 2.7s-.3 1.6-.5 2.3c-.3 1.2-.6 2.1-.9 2.9-.3.8-.7 1.4-1 1.9-.4.5-.7.9-1.2 1.1-.4.3-.9.4-1.4.6-.9.2-1.6.2-2.3-.2-.7-.4-1.2-1-1.5-1.8.5-.7 1-1.4 1.5-2.2.5-.8.9-1.6 1.3-2.4-.4 0-.8-.2-1.3-.4C265.8 345.8 265.2 345.2 264.4 344.3zM292.3 324.9c-1.6.4-2.7 1.2-3.3 2.4-.6 1.2-.6 2.7-.2 4.5.5 1.8 1.3 3 2.5 3.8 1.2.7 2.6.9 4.2.4.8-.2 1.5-.5 2.1-.9.5-.4 1-.8 1.5-1.2.4.2.8.5 1.1.8.3.3.5.8.7 1.3.2.8-.1 1.7-.8 2.5s-2.1 1.5-4 2c-1.4.4-2.7.5-4.1.5-1.3-.1-2.5-.4-3.7-1-1.1-.6-2.1-1.4-3-2.5-.9-1.1-1.5-2.5-2-4.3-.4-1.6-.6-3.1-.4-4.5.2-1.4.6-2.6 1.2-3.7.7-1.1 1.5-2 2.6-2.7 1.1-.7 2.3-1.3 3.6-1.7 1.9-.5 3.4-.6 4.7-.2s1.9 1 2.2 2c.1.5.1 1 0 1.5-.2.5-.4.9-.7 1.2-.6-.2-1.3-.4-2-.4S293.1 324.7 292.3 324.9zM318.8 333.8c-.2.1-.5.3-.9.4-.4.2-.9.3-1.4.5-.5.1-.9.2-1.2.2s-.7 0-1-.1-.6-.3-.8-.6-.4-.7-.5-1.2l-1.8-6.9c-.2-.8-.6-1.4-1.1-1.6-.5-.2-1.1-.3-1.7-.1-.4.1-.8.3-1.1.5-.3.2-.6.4-.8.6l2.9 10.8c-.2.1-.5.3-.9.4-.4.2-.9.3-1.4.5-.5.1-.9.2-1.2.2-.4 0-.7 0-1-.1-.3-.1-.6-.3-.8-.6-.2-.3-.4-.7-.5-1.2l-4.8-17.9c.2-.1.5-.2 1-.4.4-.2.9-.3 1.3-.5.5-.1.9-.2 1.2-.2s.7 0 1 .1.6.3.8.6c.2.3.4.7.5 1.2l.8 3c.2-.2.6-.4 1.1-.7.5-.3 1.1-.5 1.8-.7 2-.5 3.8-.5 5.2.3 1.4.7 2.4 2.1 2.9 4.1L318.8 333.8zM327.3 331.5c-.2.1-.5.3-.9.4-.4.2-.9.3-1.3.5-.5.1-.9.2-1.2.2-.4 0-.7 0-1-.1-.3-.1-.6-.3-.8-.6-.2-.3-.4-.7-.5-1.2l-2.5-9.3c-.1-.5-.1-.9-.1-1.3.1-.4.3-.8.5-1.1.3-.4.6-.7 1-1.1.4-.3.9-.7 1.4-1 .5-.3 1.1-.6 1.6-.8.6-.3 1.2-.5 1.8-.6 1-.3 1.8-.3 2.5-.1.7.2 1.1.8 1.4 1.6.1.3.1.6.1.9 0 .3 0 .6-.1.8-.4.1-.9.3-1.3.4-.4.2-.9.3-1.3.5-.4.2-.8.4-1.2.6-.4.2-.7.4-.9.6L327.3 331.5zM329.5 310.4c-.2-.8-.1-1.5.3-2.2.4-.7 1-1.1 1.9-1.4.9-.2 1.6-.2 2.3.2.7.4 1.1 1 1.3 1.8.2.8.1 1.5-.3 2.2-.4.7-1 1.1-1.9 1.4-.9.2-1.6.2-2.3-.2C330.2 311.8 329.7 311.2 329.5 310.4zM340.1 328.1c-.2.1-.5.2-1 .4-.4.2-.9.3-1.3.5-.5.1-.9.2-1.2.2-.4 0-.7 0-1-.1-.3-.1-.6-.3-.8-.6-.2-.3-.4-.7-.5-1.2l-3.4-12.6c.2-.1.5-.2 1-.4.4-.2.9-.3 1.3-.5s.9-.2 1.2-.2.7 0 1 .1.6.3.8.6c.2.3.4.7.5 1.2L340.1 328.1zM355 319.4c.4 1.6.2 3-.8 4.2-.9 1.2-2.5 2.1-4.8 2.7-.9.2-1.7.4-2.5.5-.8.1-1.5.1-2.1-.1-.6-.1-1.1-.3-1.5-.6s-.7-.7-.8-1.3c-.1-.5-.1-.9 0-1.3.1-.4.3-.7.5-1 .7.2 1.4.3 2.3.3.8.1 1.8-.1 2.8-.3.6-.2 1.1-.4 1.4-.7.3-.3.4-.6.3-.9-.1-.3-.3-.5-.6-.6-.3-.1-.7-.1-1.3-.1l-1 .1c-1.9.1-3.4-.1-4.4-.6-1.1-.5-1.8-1.5-2.2-2.9-.2-.8-.2-1.5-.1-2.2.2-.7.5-1.3 1-1.9.5-.6 1.1-1.1 1.9-1.5.8-.4 1.7-.8 2.7-1.1.8-.2 1.5-.3 2.2-.4.7-.1 1.3-.1 1.9 0 .6.1 1 .3 1.4.6.4.3.6.7.8 1.2.1.5.1.9.1 1.3-.1.4-.2.7-.4 1-.2-.1-.5-.1-.8-.1-.4 0-.8 0-1.2 0s-.8 0-1.3.1c-.4 0-.8.1-1.1.2-.7.2-1.2.4-1.5.7-.3.3-.5.5-.4.9.1.2.2.4.5.5.2.1.7.1 1.3.1l1 0c2.1-.1 3.7.2 4.7.7S354.6 318.1 355 319.4zM362.6 316.6c.1.5.4.9.8 1 .4.1.9.1 1.5 0 .3-.1.6-.2.9-.3.3-.1.6-.3.8-.4.2.2.5.4.7.6s.4.6.5 1c.2.8.1 1.5-.4 2.2-.5.7-1.4 1.2-2.9 1.6-1.8.5-3.3.4-4.5-.1s-2-1.8-2.5-3.6l-3.5-13.2c.2-.1.5-.3.9-.5.4-.2.8-.3 1.3-.5.9-.2 1.7-.3 2.2-.1.6.2 1 .8 1.3 1.8l.5 2 4-1.1c.2.2.4.4.6.8.2.3.4.7.5 1.1.2.7.2 1.3-.1 1.7-.2.4-.6.7-1.2.8l-2.8.8L362.6 316.6zM374.1 302.5c.8-.2 1.7-.3 2.6-.3.9 0 1.7.2 2.4.5.5-.6 1.1-1.1 1.8-1.6.7-.5 1.6-.9 2.7-1.2.8-.2 1.6-.3 2.4-.3.8 0 1.6.2 2.3.4.7.3 1.3.7 1.9 1.4.5.6 1 1.5 1.2 2.5l2.6 9.7c-.2.1-.5.3-.9.4-.4.2-.9.3-1.4.5-.5.1-.9.2-1.2.2-.4 0-.7 0-1-.1-.3-.1-.6-.3-.8-.6-.2-.3-.4-.7-.5-1.2l-2-7.4c-.2-.6-.5-1-.9-1.2-.4-.2-.9-.2-1.5 0-.3.1-.6.2-.9.4-.3.2-.5.4-.6.6 0 .1.1.2.1.2s0 .1.1.2l2.8 10.3c-.2.1-.5.3-1 .5-.4.2-.9.3-1.3.5s-.9.2-1.2.2c-.4 0-.7 0-1-.1-.3-.1-.6-.3-.8-.6-.2-.3-.4-.7-.5-1.2l-2-7.4c-.2-.6-.5-1-.9-1.2-.5-.2-1-.2-1.5 0-.4.1-.7.2-.9.4-.2.2-.4.4-.6.5l2.9 10.8c-.2.1-.5.3-.9.4-.4.2-.9.3-1.4.5-.5.1-.9.2-1.2.2-.4 0-.7 0-1-.1-.3-.1-.6-.3-.8-.6-.2-.3-.4-.7-.5-1.2l-2.5-9.3c-.1-.6-.2-1 0-1.4.1-.4.4-.8.7-1.2.6-.7 1.3-1.3 2.3-1.9S373 302.8 374.1 302.5zM399.3 295.7c1.1-.3 2.2-.5 3.1-.5 1 0 1.9.1 2.6.4.8.3 1.4.7 2 1.4.5.6.9 1.4 1.2 2.4l1.9 6.9c.1.5.1 1-.1 1.4-.2.4-.5.8-.8 1.2-1.1 1.2-2.9 2.1-5.3 2.7-1.1.3-2.1.5-3 .5-.9 0-1.8-.1-2.5-.3s-1.4-.6-1.9-1.2c-.5-.5-.9-1.2-1.1-2.1-.4-1.4-.3-2.6.4-3.6.6-1 1.8-1.8 3.5-2.5l3.9-1.5-.1-.2c-.2-.6-.5-1-1.1-1.1s-1.4 0-2.4.2c-.8.2-1.5.5-2.2.9-.7.4-1.3.7-1.8 1.2-.3-.1-.6-.3-.9-.7-.3-.3-.5-.7-.6-1.1-.1-.5-.1-1 0-1.4s.5-.8 1-1.1c.5-.4 1.2-.7 2-1.1S398.5 295.9 399.3 295.7zM402.8 307.8c.3-.1.7-.2 1.1-.4.4-.2.7-.4.9-.5l-.7-2.5-2.2.8c-.6.2-1 .4-1.3.8-.3.3-.4.7-.3 1.1.1.4.4.7.7.9C401.4 308 402 308 402.8 307.8zM425.5 300.5c.4 1.6.2 3-.8 4.2s-2.6 2.1-4.8 2.7c-.9.2-1.7.4-2.5.5s-1.5.1-2.1-.1c-.6-.1-1.1-.3-1.5-.6-.4-.3-.7-.7-.8-1.3-.1-.5-.1-.9 0-1.3s.3-.7.5-1c.7.2 1.5.3 2.3.3.8.1 1.8-.1 2.8-.3.6-.2 1.1-.4 1.4-.7.3-.3.4-.6.3-.9-.1-.3-.3-.5-.6-.6-.3-.1-.7-.1-1.3-.1l-1 .1c-1.9.1-3.4-.1-4.4-.6-1.1-.5-1.8-1.5-2.2-2.9-.2-.8-.2-1.5-.1-2.2s.5-1.3 1-1.9c.5-.6 1.1-1.1 1.9-1.5.8-.4 1.7-.8 2.7-1.1.8-.2 1.5-.3 2.2-.4.7-.1 1.3-.1 1.9 0 .6.1 1 .3 1.4.6.4.3.6.7.8 1.2.1.5.1.9.1 1.3-.1.4-.2.7-.4 1-.2-.1-.5-.1-.8-.1s-.7 0-1.2 0-.8 0-1.3.1c-.4 0-.8.1-1.1.2-.7.2-1.2.4-1.5.7-.3.3-.5.5-.4.9.1.2.2.4.5.5.2.1.7.1 1.3.1l1 0c2.1-.1 3.7.2 4.7.7C424.5 298.3 425.2 299.3 425.5 300.5z"/></g><g enable-background="new"><path fill="#d64142" d="M251.6 375c1.1-.3 2.2-.5 3.1-.5 1 0 1.9.1 2.6.4.8.3 1.4.7 2 1.4.5.6.9 1.4 1.2 2.4l1.9 6.9c.1.5.1 1-.1 1.4-.2.4-.5.8-.8 1.2-1.1 1.2-2.9 2.1-5.3 2.7-1.1.3-2.1.5-3 .5-.9 0-1.8-.1-2.5-.3s-1.4-.6-1.9-1.2c-.5-.5-.9-1.2-1.1-2.1-.4-1.4-.2-2.6.4-3.6s1.8-1.8 3.5-2.5l3.9-1.5-.1-.2c-.2-.6-.5-1-1.1-1.1-.6-.1-1.4 0-2.4.2-.8.2-1.5.5-2.2.9-.7.4-1.3.7-1.8 1.2-.3-.1-.6-.3-.9-.7-.3-.3-.5-.7-.6-1.1-.1-.5-.1-1 0-1.4.2-.4.5-.8 1-1.1.5-.4 1.2-.7 2-1.1C250.1 375.4 250.8 375.2 251.6 375zM255.1 387.1c.4-.1.7-.2 1.1-.4.4-.2.7-.4.9-.5l-.7-2.5-2.2.8c-.6.2-1 .4-1.3.8-.3.3-.4.7-.3 1.1.1.4.4.7.7.9C253.7 387.3 254.3 387.3 255.1 387.1zM273.3 375.5c-.2-.6-.5-1.1-.9-1.3-.4-.2-1-.2-1.6-.1-.4.1-.8.3-1.2.5s-.7.5-.9.7l2.9 10.7c-.2.1-.5.3-.9.4-.4.2-.9.3-1.4.5-.5.1-.9.2-1.2.2-.4 0-.7 0-1-.1-.3-.1-.6-.3-.8-.6-.2-.3-.4-.7-.5-1.2l-2.5-9.3c-.1-.6-.2-1 0-1.5s.4-.8.7-1.2c.6-.7 1.3-1.3 2.3-1.9 1-.6 2.1-1.1 3.4-1.4 2.3-.6 4.3-.6 5.8.1 1.5.7 2.5 1.9 3 3.7l2.6 9.7c-.2.1-.5.3-.9.4-.4.2-.9.3-1.4.5-.5.1-.9.2-1.2.2s-.7 0-1-.1c-.3-.1-.6-.3-.8-.6-.2-.3-.4-.7-.5-1.2L273.3 375.5zM281.7 375.5c-.4-1.4-.5-2.6-.3-3.7.1-1.1.5-2.1 1.1-2.9.6-.9 1.3-1.6 2.2-2.2.9-.6 1.9-1 3-1.3.4-.1.8-.2 1.2-.2.4 0 .8 0 1 0l-1.3-5c.2-.1.5-.3.9-.5.4-.2.9-.4 1.4-.5.5-.1.9-.2 1.2-.2.4 0 .7 0 1 .1.3.1.6.3.8.6s.4.7.5 1.2l3.9 14.7c.3 1 0 1.9-.7 2.7-.5.6-1.2 1.1-2 1.7-.9.6-1.9 1-3.2 1.3-1.3.4-2.6.5-3.8.4-1.2-.1-2.2-.4-3.1-.9-.9-.5-1.7-1.2-2.3-2.1C282.5 377.8 282 376.7 281.7 375.5zM289.5 369.2c-1.1.3-1.9.8-2.3 1.6-.4.8-.5 1.8-.1 3.1.3 1.3.9 2.2 1.6 2.7.7.5 1.6.6 2.7.3.4-.1.7-.2 1-.4.3-.2.5-.4.6-.6l-1.8-6.8C290.6 369.1 290 369.1 289.5 369.2zM310.7 359.2c1.1-.3 2.2-.5 3.1-.5 1 0 1.9.1 2.6.4.8.3 1.4.7 2 1.4.5.6.9 1.4 1.2 2.4l1.9 6.9c.1.5.1 1-.1 1.4-.2.4-.5.8-.8 1.2-1.1 1.2-2.9 2.1-5.3 2.7-1.1.3-2.1.5-3 .5s-1.8-.1-2.5-.3c-.7-.2-1.4-.6-1.9-1.2-.5-.5-.9-1.2-1.1-2.1-.4-1.4-.2-2.6.4-3.6.6-1 1.8-1.8 3.5-2.5l3.9-1.5-.1-.2c-.2-.6-.5-1-1.1-1.1-.6-.1-1.4 0-2.4.2-.8.2-1.5.5-2.2.9-.7.4-1.3.7-1.8 1.2-.3-.1-.6-.3-.9-.7-.3-.3-.5-.7-.6-1.1-.1-.5-.1-1 0-1.4.2-.4.5-.8 1-1.1.5-.4 1.2-.7 2-1.1C309.2 359.6 310 359.4 310.7 359.2zM314.2 371.2c.4-.1.7-.2 1.1-.4.4-.2.7-.4.9-.5l-.7-2.5-2.2.8c-.6.2-1 .4-1.3.8-.3.3-.4.7-.3 1.1.1.4.4.7.7.9C312.9 371.5 313.4 371.4 314.2 371.2z"/></g><path fill="#d64142" d="M341.6 367.1c-.2.3-.6.6-1.1.9-.5.3-1.1.5-1.8.7-.8.2-1.5.3-2.2.2-.6 0-1.1-.3-1.5-.7-.3-.3-.6-.7-1.1-1.3-.4-.6-.9-1.2-1.4-1.9s-1-1.4-1.6-2.2c-.5-.8-1.1-1.6-1.6-2.4-.5-.8-1-1.6-1.4-2.3-.4-.7-.8-1.4-1.1-2 .2-.4.5-.7 1-1.1.4-.3.9-.6 1.5-.7.7-.2 1.4-.2 1.9 0 .5.2 1 .6 1.5 1.4l2.5 4.4c.5.9.9 1.6 1.3 2.3.4.7.7 1.2.9 1.6l.2 0c0-1.6-.1-3.4-.1-5.4-.1-2-.2-3.9-.3-5.8.3-.3.7-.5 1.1-.8s.8-.4 1.2-.5c.7-.2 1.4-.2 1.9 0 .6.2 1 .6 1.2 1.4.1.3.1.8.2 1.5 0 .7 0 1.4 0 2.3 0 .9-.1 1.8-.2 2.7-.1 1-.2 1.9-.3 2.9-.1.9-.2 1.8-.3 2.6C341.8 365.8 341.7 366.5 341.6 367.1zM356.4 364.1c-1.2.3-2.4.5-3.5.4-1.1-.1-2.2-.3-3.1-.8-1-.5-1.8-1.2-2.5-2.1-.7-.9-1.3-2.1-1.6-3.4-.4-1.4-.5-2.6-.3-3.7.2-1.1.5-2.1 1.1-2.9.6-.8 1.3-1.5 2.1-2.1.8-.5 1.8-.9 2.7-1.2 1.1-.3 2.1-.4 3.1-.3 1 .1 1.9.3 2.7.7.8.4 1.5 1 2.1 1.7.6.7 1 1.5 1.2 2.5.2.7.1 1.3-.2 1.8-.3.5-.8.9-1.4 1.1l-7.3 3.2c.4.6 1 1 1.8 1.2.8.2 1.6.1 2.5-.1.8-.2 1.6-.5 2.3-1 .7-.4 1.2-.8 1.6-1.2.4.1.7.3 1.1.6.3.3.5.7.7 1.1.2.9 0 1.7-.7 2.4-.6.5-1.2 1-2 1.3S357.2 363.9 356.4 364.1zM352.3 352.1c-.5.1-.9.3-1.2.6-.3.3-.6.6-.7.9s-.3.7-.3 1c0 .4 0 .7.1 1l5.1-2.3c-.2-.4-.5-.7-1-1.1C353.7 352 353.1 351.9 352.3 352.1zM370.6 359.7c-.2.1-.5.3-.9.4-.4.2-.9.3-1.4.5-.5.1-.9.2-1.2.2-.4 0-.7 0-1-.1s-.6-.3-.8-.6-.4-.7-.5-1.2l-2.5-9.3c-.1-.5-.1-.9-.1-1.3.1-.4.3-.8.5-1.1.3-.4.6-.7 1-1.1.4-.3.9-.7 1.4-1 .5-.3 1.1-.6 1.6-.8.6-.3 1.2-.5 1.8-.6 1-.3 1.8-.3 2.5-.1.7.2 1.1.8 1.4 1.6.1.3.1.6.1.9 0 .3 0 .6-.1.8-.4.1-.9.3-1.3.4-.4.2-.9.3-1.3.5-.4.2-.8.4-1.2.6-.4.2-.7.4-.9.6L370.6 359.7zM379.9 353.2c-.4-.5-.8-1-1.2-1.5-.4-.6-.9-1.2-1.4-2-.5-.7-1-1.6-1.6-2.6-.6-1-1.2-2.1-1.9-3.4.2-.4.5-.7 1-1.1.4-.3.9-.6 1.5-.8.7-.2 1.4-.2 1.9 0 .6.2 1.1.6 1.5 1.4l4.7 7.8.1 0c.1-.8.1-1.6.1-2.5 0-.9 0-1.8 0-2.7 0-.9 0-1.9-.1-2.8 0-.9-.1-1.8-.2-2.7.6-.6 1.4-1 2.3-1.2.7-.2 1.4-.2 1.9 0 .6.2.9.7 1.1 1.4.1.6.2 1.2.3 2 .1.8.1 1.6.1 2.5s-.1 1.8-.2 2.8c-.1 1-.2 1.9-.3 2.8-.1.9-.3 1.8-.4 2.7-.2.9-.4 1.6-.5 2.3-.3 1.2-.6 2.1-.9 2.9-.3.8-.7 1.4-1 1.9-.4.5-.7.9-1.2 1.1-.4.3-.9.4-1.4.6-.9.2-1.6.2-2.3-.2-.7-.4-1.2-1-1.5-1.8.5-.7 1-1.4 1.5-2.2.5-.8.9-1.6 1.3-2.4-.4 0-.8-.2-1.3-.4C381.2 354.7 380.6 354.1 379.9 353.2z" enable-background="new"/><g enable-background="new"><path fill="#d64142" d="M231.8 436.5c-.2.1-.5.3-1 .5-.5.2-.9.3-1.4.5-.5.1-.9.2-1.3.2-.4 0-.7 0-1-.1-.3-.1-.6-.3-.8-.6-.2-.3-.4-.7-.5-1.2l-1.3-4.8-5.9 1.6 1.9 7.1c-.2.1-.5.3-1 .5-.5.2-.9.3-1.4.5-.5.1-.9.2-1.3.2-.4 0-.7 0-1-.1-.3-.1-.6-.3-.8-.6-.2-.3-.4-.7-.5-1.2l-4.4-16.3c.2-.1.6-.3 1-.5.5-.2.9-.4 1.4-.5.5-.1.9-.2 1.3-.2.4 0 .7 0 1 .1.3.1.6.3.8.6s.4.7.5 1.2l1.3 4.9 5.9-1.6-1.9-7.2c.2-.1.6-.3 1-.5.5-.2.9-.4 1.4-.5.5-.1.9-.2 1.3-.2.4 0 .7 0 1 .1.3.1.6.3.8.6.2.3.4.7.5 1.2L231.8 436.5zM237.5 418.5c1.1-.3 2.2-.5 3.1-.5s1.9.1 2.6.4c.8.3 1.4.7 2 1.4.5.6.9 1.4 1.2 2.4l1.9 6.9c.1.5.1 1-.1 1.4-.2.4-.5.8-.8 1.2-1.1 1.2-2.9 2.1-5.3 2.7-1.1.3-2.1.5-3 .5-.9 0-1.8-.1-2.5-.3-.7-.2-1.4-.6-1.9-1.2-.5-.5-.9-1.2-1.1-2.1-.4-1.4-.2-2.6.4-3.6.6-1 1.8-1.8 3.5-2.5l3.9-1.5-.1-.2c-.2-.6-.5-1-1.1-1.1-.6-.1-1.4 0-2.4.2-.8.2-1.5.5-2.2.9-.7.4-1.3.7-1.8 1.2-.3-.1-.6-.3-.9-.7-.3-.3-.5-.7-.6-1.1-.1-.5-.1-1 0-1.4.2-.4.5-.8 1-1.1.5-.4 1.2-.7 2-1.1C236 418.9 236.8 418.7 237.5 418.5zM241 430.6c.4-.1.7-.2 1.1-.4.4-.2.7-.4.9-.5l-.7-2.5-2.2.8c-.6.2-1 .4-1.3.8-.3.3-.4.7-.3 1.1.1.4.4.7.7.9C239.6 430.8 240.2 430.8 241 430.6zM255 413.8c1.2-.3 2.4-.5 3.6-.4 1.1 0 2.2.3 3.1.7.9.5 1.8 1.1 2.5 2 .7.9 1.2 2 1.6 3.4.4 1.3.5 2.5.4 3.6-.1 1.1-.4 2.1-.9 2.9s-1.2 1.6-2.1 2.2c-.9.6-1.9 1-3.1 1.4-.9.2-1.7.3-2.6.3l1.4 5.1c-.2.1-.5.3-.9.5-.4.2-.9.4-1.4.5-.5.1-.9.2-1.2.2-.4 0-.7 0-1-.1s-.5-.3-.8-.6-.4-.7-.5-1.2l-4-14.8c-.1-.6-.2-1 0-1.5.1-.4.4-.8.7-1.2.5-.6 1.2-1.1 2.1-1.6C252.8 414.5 253.8 414.1 255 413.8zM258.2 425.6c2.1-.6 2.8-2.1 2.2-4.7-.4-1.3-.9-2.2-1.6-2.7-.7-.5-1.5-.6-2.5-.4-.4.1-.7.2-1 .4s-.5.4-.7.5l1.8 6.8c.3.1.6.1.9.1C257.6 425.7 257.9 425.7 258.2 425.6z"/></g><path fill="#d64142" d="M273.1,409c1.2-0.3,2.4-0.5,3.6-0.4c1.1,0,2.2,0.3,3.1,0.7c0.9,0.5,1.8,1.1,2.5,2c0.7,0.9,1.2,2,1.6,3.4
		c0.4,1.3,0.5,2.5,0.4,3.6c-0.1,1.1-0.4,2.1-0.9,2.9s-1.2,1.6-2.1,2.2c-0.9,0.6-1.9,1-3.1,1.4c-0.9,0.2-1.7,0.3-2.6,0.3l1.4,5.1
		c-0.2,0.1-0.5,0.3-0.9,0.5c-0.4,0.2-0.9,0.4-1.4,0.5c-0.5,0.1-0.9,0.2-1.2,0.2c-0.4,0-0.7,0-1-0.1s-0.5-0.3-0.8-0.6
		s-0.4-0.7-0.5-1.2l-4-14.8c-0.1-0.6-0.2-1,0-1.5c0.1-0.4,0.4-0.8,0.7-1.2c0.5-0.6,1.2-1.1,2.1-1.6
		C270.9,409.7,271.9,409.3,273.1,409z M276.3,420.8c2.1-0.6,2.8-2.1,2.2-4.7c-0.4-1.3-0.9-2.2-1.6-2.7c-0.7-0.5-1.5-0.6-2.5-0.3
		c-0.4,0.1-0.7,0.2-1,0.4s-0.5,0.4-0.7,0.5l1.8,6.8c0.3,0.1,0.6,0.1,0.9,0.1C275.7,420.9,276,420.8,276.3,420.8z" enable-background="new"/><g enable-background="new"><path fill="#d64142" d="M289.3 417.1c-.4-.5-.8-1-1.2-1.5-.4-.6-.9-1.2-1.4-2-.5-.7-1-1.6-1.6-2.6-.6-1-1.2-2.1-1.9-3.4.2-.4.5-.7 1-1.1.4-.3.9-.6 1.5-.7.7-.2 1.4-.2 1.9 0 .6.2 1.1.6 1.5 1.4l4.7 7.8.1 0c.1-.8.1-1.6.1-2.5 0-.9 0-1.8 0-2.7 0-.9 0-1.9-.1-2.8 0-.9-.1-1.8-.2-2.7.6-.6 1.4-1 2.3-1.2.7-.2 1.4-.2 1.9 0s.9.7 1.1 1.4c.1.6.2 1.2.3 2 .1.8.1 1.6.1 2.5s-.1 1.8-.2 2.8c-.1 1-.2 1.9-.3 2.8-.1.9-.3 1.8-.4 2.7-.2.9-.4 1.6-.5 2.3-.3 1.2-.6 2.1-.9 2.9-.3.8-.7 1.4-1 1.9-.4.5-.7.9-1.2 1.1-.4.3-.9.4-1.4.6-.9.2-1.6.2-2.3-.2-.7-.4-1.2-1-1.5-1.8.5-.7 1-1.4 1.5-2.2.5-.8.9-1.6 1.3-2.4-.4 0-.8-.2-1.3-.4C290.7 418.6 290.1 418 289.3 417.1zM328.4 410.1c-.2.4-.6.7-1.1 1-.5.3-1.1.6-1.9.8-.8.2-1.5.3-2.3.2-.7 0-1.4-.4-2.1-1.2l-4.7-5.4c-.5-.6-.9-1.1-1.3-1.6-.4-.5-.8-1.1-1.3-1.7l-.2.1c.4 1.1.7 2.2 1 3.4.3 1.2.6 2.3.9 3.4l1.3 4.8c-.2.1-.5.3-1 .5-.4.2-.9.3-1.4.5s-.9.2-1.2.2c-.4 0-.7 0-1-.1-.3-.1-.5-.3-.7-.6s-.4-.7-.5-1.2l-4.1-15.5c.2-.5.5-.9 1.1-1.3.5-.4 1.2-.6 1.8-.8.8-.2 1.5-.3 2.3-.2.8.1 1.4.4 2.1 1.2l4.8 5.4c.5.6.9 1.1 1.3 1.6.4.5.8 1.1 1.3 1.7l.1-.1c-.4-1.1-.7-2.2-1-3.3-.3-1.1-.6-2.2-.9-3.3l-1.3-5c.2-.1.5-.3 1-.5.4-.2.9-.3 1.4-.5.9-.2 1.6-.3 2.2-.1.6.2 1 .8 1.2 1.8L328.4 410.1zM340.3 408.1c-1.2.3-2.4.5-3.5.4-1.1-.1-2.2-.3-3.1-.8-1-.5-1.8-1.2-2.5-2.1s-1.3-2.1-1.6-3.4c-.4-1.4-.5-2.6-.3-3.7.2-1.1.5-2.1 1.1-2.9s1.3-1.5 2.1-2.1 1.8-.9 2.7-1.2c1.1-.3 2.1-.4 3.1-.3 1 .1 1.9.3 2.7.7.8.4 1.5 1 2.1 1.7.6.7 1 1.5 1.2 2.5.2.7.1 1.3-.2 1.8-.3.5-.8.9-1.4 1.2l-7.3 3.2c.4.6 1 1 1.8 1.2.8.2 1.6.1 2.5-.1.8-.2 1.6-.5 2.3-1 .7-.4 1.2-.8 1.6-1.2.4.1.7.3 1.1.6.3.3.5.7.7 1.1.2.9 0 1.7-.7 2.4-.6.5-1.2 1-2 1.3C341.8 407.7 341 407.9 340.3 408.1zM336.2 396.2c-.5.1-.9.3-1.2.6-.3.3-.6.6-.7.9-.2.3-.3.7-.3 1 0 .3 0 .7.1 1l5.1-2.3c-.2-.4-.5-.7-1-1.1C337.6 396.1 337 396 336.2 396.2zM357.6 402.5c-.2.3-.6.6-1 .9-.5.3-1 .5-1.7.7-.8.2-1.6.3-2.3.2-.7-.1-1.2-.3-1.5-.7-.4-.4-.8-1.1-1.4-2.1-.6-1-1.2-2.1-1.8-3.3-.6-1.2-1.2-2.4-1.9-3.7-.6-1.2-1.1-2.4-1.5-3.3.2-.4.5-.7 1-1.1.4-.3.9-.6 1.5-.8.7-.2 1.4-.2 1.9 0 .6.2 1 .7 1.3 1.4.6 1.5 1.1 2.8 1.6 3.7.4 1 .8 1.8 1 2.4.3.6.5 1.1.6 1.4.1.3.3.6.4.8l.1 0c0-.3 0-.9-.1-1.5 0-.7 0-1.4 0-2.3 0-.9 0-1.8 0-2.8 0-1 0-2-.1-3 .4-.3.7-.6 1.1-.9.4-.2.9-.4 1.5-.6.7-.2 1.4-.2 1.9-.2.6.1 1 .4 1.3.8.5.8 1 1.7 1.4 2.5.5.8.9 1.5 1.3 2.2.4.7.7 1.3 1 1.8.3.5.5 1 .7 1.3l.2 0c-.2-1.6-.4-3.4-.7-5.1s-.5-3.6-.8-5.4c.3-.3.7-.6 1-.8.4-.2.8-.4 1.2-.5.7-.2 1.4-.2 1.9 0 .6.2.9.7 1.1 1.4.1.3.2.8.2 1.5.1.7.1 1.5.2 2.3.1.9.1 1.8.1 2.7 0 1 0 1.9.1 2.8 0 .9 0 1.7 0 2.5 0 .7 0 1.3-.1 1.7-.2.3-.6.6-1.2 1-.6.3-1.2.6-1.9.7-1.7.5-2.9.3-3.4-.5-.2-.3-.5-.8-.8-1.3-.3-.5-.7-1.1-1.1-1.7-.4-.6-.8-1.3-1.2-2-.4-.7-.7-1.3-1-2 0 .8.1 1.6.1 2.4 0 .8 0 1.6 0 2.4 0 .8 0 1.5-.1 2.2C357.7 401.5 357.6 402.1 357.6 402.5zM390 394.2c-.2.1-.5.3-1 .5-.5.2-.9.3-1.4.5-.9.3-1.7.3-2.3.1-.6-.2-1-.8-1.3-1.8l-1.1-4.2c-.7-.6-1.5-1.3-2.3-2.1-.8-.8-1.7-1.6-2.5-2.4-.8-.8-1.6-1.6-2.4-2.4-.7-.8-1.4-1.6-1.9-2.3.2-.4.4-.9.8-1.3.4-.4.9-.7 1.6-.9.8-.2 1.5-.2 2.1 0 .6.2 1.2.7 1.9 1.5l3.9 4.5.2 0c.1-.7.2-1.4.3-1.9s.1-1.2.2-1.7.1-1.2.2-1.8c.1-.6.2-1.4.2-2.2.3-.3.7-.5 1.1-.8.4-.2.8-.4 1.3-.5.7-.2 1.4-.2 2 .1.6.2 1 .8 1.2 1.5.1.2.1.6.1.9 0 .4-.1 1-.3 1.8-.2.8-.5 1.9-.8 3.3-.4 1.4-.9 3.2-1.6 5.5L390 394.2zM404.3 391c-1.2.3-2.4.5-3.5.4-1.1-.1-2.2-.3-3.1-.8-1-.5-1.8-1.2-2.5-2.1s-1.3-2.1-1.6-3.4c-.4-1.4-.5-2.6-.3-3.7.2-1.1.5-2.1 1.1-2.9.6-.8 1.3-1.5 2.1-2.1.8-.5 1.8-.9 2.7-1.2 1.1-.3 2.1-.4 3.1-.3 1 .1 1.9.3 2.7.7.8.4 1.5 1 2.1 1.7.6.7 1 1.5 1.2 2.5.2.7.1 1.3-.2 1.8s-.8.9-1.4 1.1l-7.3 3.2c.4.6 1 1 1.8 1.2.8.2 1.6.1 2.5-.1.8-.2 1.6-.5 2.3-1 .7-.4 1.2-.8 1.6-1.2.4.1.7.3 1.1.6.3.3.5.7.7 1.1.2.9 0 1.7-.7 2.4-.6.5-1.2 1-2 1.3S405 390.8 404.3 391zM400.2 379.1c-.5.1-.9.3-1.2.6-.3.3-.6.6-.7.9-.2.3-.3.7-.3 1 0 .4 0 .7.1 1l5.1-2.3c-.2-.4-.5-.7-1-1.1C401.6 379 400.9 378.9 400.2 379.1zM415.2 371c1.1-.3 2.2-.5 3.1-.5 1 0 1.9.1 2.6.4.8.3 1.4.7 2 1.4.5.6.9 1.4 1.2 2.4l1.9 6.9c.1.5.1 1-.1 1.4-.2.4-.5.8-.8 1.2-1.1 1.2-2.9 2.1-5.3 2.7-1.1.3-2.1.5-3 .5-.9 0-1.8-.1-2.5-.3-.7-.2-1.4-.6-1.9-1.2-.5-.5-.9-1.2-1.1-2.1-.4-1.4-.2-2.6.4-3.6.6-1 1.8-1.8 3.5-2.5l3.9-1.5L419 376c-.2-.6-.5-1-1.1-1.1-.6-.1-1.4 0-2.4.2-.8.2-1.5.5-2.2.9-.7.4-1.3.7-1.8 1.2-.3-.1-.6-.3-.9-.7s-.5-.7-.6-1.1c-.1-.5-.1-1 0-1.4.2-.4.5-.8 1-1.1.5-.4 1.2-.7 2-1.1C413.7 371.4 414.5 371.2 415.2 371zM418.7 383.1c.3-.1.7-.2 1.1-.4s.7-.4.9-.5l-.7-2.5-2.2.8c-.6.2-1 .4-1.3.8-.3.3-.4.7-.3 1.1.1.4.4.7.7.9C417.4 383.3 417.9 383.3 418.7 383.1zM435.2 382.2c-.2.1-.5.3-.9.4-.4.2-.9.3-1.4.5-.5.1-.9.2-1.2.2-.4 0-.7 0-1-.1-.3-.1-.6-.3-.8-.6-.2-.3-.4-.7-.5-1.2l-2.5-9.3c-.1-.5-.1-.9-.1-1.3.1-.4.3-.8.5-1.1s.6-.7 1-1.1c.4-.3.9-.7 1.4-1 .5-.3 1.1-.6 1.6-.8.6-.3 1.2-.5 1.8-.6 1-.3 1.8-.3 2.5-.1.7.2 1.1.8 1.4 1.6.1.3.1.6.1.9 0 .3 0 .6-.1.8-.4.1-.9.3-1.3.4-.4.2-.9.3-1.3.5-.4.2-.8.4-1.2.6-.4.2-.7.4-.9.6L435.2 382.2z"/></g></svg>