<svg xmlns="http://www.w3.org/2000/svg" data-name="Layer 1" viewBox="0 0 512 512"><path fill="#f9f9f9" d="M507.61826,420.22865a25.19083,25.19083,0,0,0,.77688-6.28971,22.8731,22.8731,0,0,0-5.0356-14.44922,25.34937,25.34937,0,0,0-9.3321-7.205,33.91722,33.91722,0,0,0-8.46233-2.54649,46.89673,46.89673,0,0,0-7.77471-.62933A41.581,41.581,0,0,0,466.89,390.50052c-1.12593.306-2.21064.6726-3.27248,1.0706-.40978-.1735-.81991-.34655-1.2404-.49864a66.89275,66.89275,0,0,0,7.48469-6.37259,66.14618,66.14618,0,0,0,18.73627-35.90126c11.39225-3.36663,17.95155-14.12772,15.98965-26.4922a115.01456,115.01456,0,0,0-14.72881-41.25107,68.29333,68.29333,0,0,0-12.25656-15.84814c-5.981-7.16131-13.34264-10.97648-19.84729-13.76978-16.2006-6.96186-32.766-9.51654-48.25436-11.24061-5.05927-.56376-5.65218-1.73409-6.1285-2.674q-3.43586-6.78289-7.18044-13.04664a27.27126,27.27126,0,0,0,4.66993-4.18677,24.64309,24.64309,0,0,0,6.44408-9.1249l.0888-.204c8.16178-18.17057,7.01012-36.23733,5.43405-48.2457-1.58427-12.07668-11.63314-20.40468-24.52176-20.40468-.17077,0-.34291.00183-.51458.00456-4.62211.07832-9.24422.133-13.86679.18761l-5.659.06922-1.281.00182c.26-13.44373-.43443-26.68163-1.10931-39.55432q-.18443-3.51918-.36339-7.03744c-.55829-11.18141-1.57106-24.41749-4.84934-37.81386l-.04235-.173c-3.18766-13.13135-12.39682-16.71064-17.60136-17.676-5.83751-1.07743-14.40822-.46358-22.06863,8.63219-2.80378,3.32974-5.76466,6.72778-8.62763,10.01289q-.73771.847-1.475,1.694a21.68528,21.68528,0,0,0-3.09066,2.79057q-2.03487,1.45084-4.0374,2.85432a28.7315,28.7315,0,0,0-16.90417-11.08122c-.18215-.04463-.36522-.08561-.54919-.12477-14.56807-3.08384-25.075,4.49915-30.72086,8.57207-.44035.317-.87934.6348-1.32105.94719q-1.64962,1.16669-3.28922,2.34521c-5.11118,3.66126-9.93912,7.1185-14.7748,9.52564-4.6335,2.307-9.39677,4.61938-14.0503,6.8726-6.87943-9.96736-16.712-12.83352-24.66613-13.25794-14.50294-.84245-24.86284,6.52014-31.7195,11.39544-.62888.44718-1.25731.89436-1.88937,1.33517l-8.39357,5.20682q-7.53086,4.64214-15.07673,9.26061l-.949.57924c-4.82293,2.94176-9.54932,5.82522-14.25613,8.54749a23.19639,23.19639,0,0,0-3.86527-3.82337c-4.36618-3.39441-13.57078-8.04293-26.15794-1.06833l-.12159.0674c-1.64939.91258-3.31016,1.80513-4.97093,2.69858-1.49911.806-3.01735,1.623-4.54925,2.46361-4.4017-3.96909-8.84348-7.79884-13.18462-11.543q-1.94538-1.67762-3.89031-3.35888c-.15529-.13479-.31194-.27778-.47132-.42168C53.51589,78.40937,40.82081,85.82205,37.272,88.40678c-3.70088,2.69494-15.07035,12.88089-5.986,30.78644.09745.19308.19581.38343.28689.57286q1.23294,2.57382,2.4595,5.15035,1.49457,3.1353,3.02509,6.32979l-.84882.44354c-13.84128,7.20958-14.64275,18.2999-13.88819,24.27176.73681,5.8234,4.16536,16.13139,18.84728,19.73709l.352.08743c2.71134.68216,5.41766,1.38527,8.12444,2.08928,3.55607.92352,7.19546,1.8698,10.884,2.77782,3.06016,6.12031,6.1827,12.21057,9.22145,18.1378l3.24367,6.33433c5.17176,10.15225,12.3572,13.36632,18.17969,14.06943a253.04879,253.04879,0,0,0-20.96069,21.50943c-.06558.07559-.13115.153-.19582.22951-10.01608,11.89088-17.60727,24.74627-24.94891,37.17814q-1.09632,1.8566-2.19448,3.71135c-22.25625,9.11671-29.0742,30.14708-31.52095,38.384A141.86638,141.86638,0,0,0,2.95,350.72579c-.4777,3.23047-1.74775,11.80983,4.02419,19.4921,5.21456,6.94,12.87,8.58573,16.13776,9.28793,4.87986,1.04829,1.55194,1.81332-2.8229,2.44721-1.35976.19946-2.35158.35884-2.97409.47178A18.65289,18.65289,0,0,0,1.99327,400.77754v35.45408a26.23076,26.23076,0,0,0,1.58609,9.35806,22.3,22.3,0,0,0,7.48827,10.06481,23.35132,23.35132,0,0,0,9.53111,4.20954,37.80929,37.80929,0,0,0,11.83852.24226,34.901,34.901,0,0,0,4.87712-.9135,18.71644,18.71644,0,0,0,2.7341-.98,24.1618,24.1618,0,0,0,5.19179,1.65121,32.68522,32.68522,0,0,0,6.36121.59381,43.44748,43.44748,0,0,0,5.47913-.35155,34.89172,34.89172,0,0,0,4.87348-.91167c.57253-.1562,1.12911-.34473,1.67568-.551a36.40039,36.40039,0,0,0,4.5521,1.38526,46.78171,46.78171,0,0,0,10.68139,1.1676,56.96568,56.96568,0,0,0,7.147-.44263,22.23772,22.23772,0,0,0,5.84275,6.58935,22.973,22.973,0,0,0,9.99879,4.25871,34.47055,34.47055,0,0,0,5.81793.47269,38.14434,38.14434,0,0,0,5.97049-.46995,34.477,34.477,0,0,0,4.57293-.99273,18.622,18.622,0,0,0,9.43935-6.53152,22.10579,22.10579,0,0,0,3.48206,3.2628,22.96292,22.96292,0,0,0,9.997,4.25871,34.48318,34.48318,0,0,0,5.81931.47269,38.17177,38.17177,0,0,0,5.97094-.46995,34.50093,34.50093,0,0,0,4.57247-.99273,18.63373,18.63373,0,0,0,10.57587-8.19958,25.397,25.397,0,0,0,2.41431,2.7086,25.04943,25.04943,0,0,0,17.49434,6.88626,29.60921,29.60921,0,0,0,8.40358-1.20949,27.40737,27.40737,0,0,0,9.25925-4.89989,37.152,37.152,0,0,0,6.21776-6.42905,64.52339,64.52339,0,0,0,4.88987-7.45185c.04258-.07286.08538-.15073.128-.2245a21.92043,21.92043,0,0,0,3.96727,3.86663,23.36465,23.36465,0,0,0,9.52474,4.205,37.79865,37.79865,0,0,0,11.83578.24226,34.68254,34.68254,0,0,0,4.87985-.9135,18.69731,18.69731,0,0,0,2.73411-.98,24.19573,24.19573,0,0,0,5.19361,1.65121,32.66824,32.66824,0,0,0,6.35893.59381,43.42952,43.42952,0,0,0,5.47868-.35155,34.80221,34.80221,0,0,0,4.88213-.91441,18.60388,18.60388,0,0,0,3.29467-1.25867c.686.30738,1.3806.60156,2.09293.86887a39.00038,39.00038,0,0,0,13.72971,2.39439,40.10321,40.10321,0,0,0,13.40776-2.21042c1.09519-.38753,2.15782-.82742,3.19187-1.31058a23.39936,23.39936,0,0,0,7.28142,2.51552,34.559,34.559,0,0,0,5.79835.46813,37.18045,37.18045,0,0,0,5.93543-.48q1.64688-.27049,2.48956-.42259c.50206-.09108.99387-.2072,1.47976-.33653a24.39,24.39,0,0,0,3.166.771,34.563,34.563,0,0,0,5.79836.46813,37.17473,37.17473,0,0,0,5.935-.48q1.64893-.27049,2.49276-.42351a18.61882,18.61882,0,0,0,4.93928-1.63982c.70037.29372,1.40985.57469,2.13778.82925a44.73358,44.73358,0,0,0,26.69438.41622,43.9608,43.9608,0,0,0,5.25412-2.01552,35.11427,35.11427,0,0,0,7.53615,2.6831,46.78171,46.78171,0,0,0,10.68139,1.1676,54.45706,54.45706,0,0,0,9.31936-.75138,25.32582,25.32582,0,0,0,3.81062,4.68131,25.05729,25.05729,0,0,0,17.49024,6.88079,29.62981,29.62981,0,0,0,8.39812-1.20767,27.41242,27.41242,0,0,0,9.25743-4.89624,37.193,37.193,0,0,0,6.2296-6.44c.25091-.32423.50188-.67442.75285-1.01686a34.63552,34.63552,0,0,0,7.61385,2.15986,50.64483,50.64483,0,0,0,8.30522.65666c9.08939,0,16.66373-2.23682,22.51126-6.64673a27.98842,27.98842,0,0,0,11.24926-22.88376A28.35548,28.35548,0,0,0,507.61826,420.22865Zm-216.93582,4.33613c.08652-.08288.17395-.15848.26093-.2286.05783.04918.117.10291.17623.16029a4.08672,4.08672,0,0,1,.41166.46631l-.95174.98a3.88884,3.88884,0,0,1-.52779-.63116A4.45156,4.45156,0,0,1,290.68244,424.56478Z"/><path fill="#4c63b7" d="M464.02189,278.09324a102.76693,102.76693,0,0,0-28.46878-3.91627q-27.92254.14712-55.84611.08391c-21.36086-.04548-42.70248-.73254-64.03323-1.91863-15.2151-.846-30.464-1.14136-45.66273-2.191-5.28548-.3651-10.5573-.68381-15.84882-.78689-1.43337-.0279-2.65595-.37273-2.5063-2.12891.16115-1.89034,1.63988-1.86535,2.87931-1.4653,3.32319,1.07265,6.70849.52033,10.06555.61915,28.13481.82828,56.21111-1.10481,84.31336-1.81554,5.34553-.13525,9.03531-2.75739,10.71754-8.07691a37.8841,37.8841,0,0,0,1.10862-17.99691c-2.45751-14.52805-7.44262-27.48014-20.30688-36.2412-10.56032-7.19193-22.71226-7.33356-34.62079-8.11613-12.01913-.78985-24.04578.70152-35.99757,1.91539-16.04413,1.62952-24.55239,9.49866-27.0156,25.782-1.96639,12.999-2.55423,26.17024,2.35676,38.93483,2.39257,6.21862.65751,8.54242-5.70773,8.551q-25.83235.03492-51.66465.07451a12.75866,12.75866,0,0,1-7.01934.16177A20.82456,20.82456,0,0,0,168.34,271.22992c-9.07015,1.01374-18.18976,1.70711-27.20122,3.10052-28.54232,4.41349-56.95713,9.45255-84.03352,20.04834-1.28395,1.11739-1.79488,2.94454-3.725,3.50745-14.25636,4.15768-20.49888,15.24692-24.36227,28.35914,1.27046,1.71462,2.79279.95909,4.34752.51048,10.365-2.99105,14.89133-11.18009,17.7448-20.51738a6.79614,6.79614,0,0,1,4.9148-5.084,390.451,390.451,0,0,1,49.438-13.90282A616.64184,616.64184,0,0,1,179.551,276.94939c7.37972-.62393,14.75426-.39209,22.09675-1.00389a238.9122,238.9122,0,0,1,40.8443.03467c2.53874.223,3.15322,1.15541,3.32206,3.50836,1.10219,15.36009,1.68752,30.73349,1.85857,46.13234.10861,9.78174.5846,19.55921.86084,29.33958a5.54562,5.54562,0,0,0,1.03337,3.1436q2.40254-.00127,4.80381-.00262c2.21872-3.58908-.02266-7.20815.08311-10.80759.6566-22.34522-1.8382-44.58986-2.17934-66.90713-.05852-3.82781.88321-4.40711,4.33556-4.34558,17.64467.31472,35.21392,1.83256,52.81676,2.8352,19.38337,1.10407,38.80835,1.59514,58.22257,2.00543,16.07879.33983,32.16828.17407,48.253.23213q1.31492.00069,2.62982.00194c6.85962.24727,13.70136,1.132,20.54943,1.15513,11.14042.03768,21.66226,1.85533,31.08345,8.22883,1.00206.67795,2.40355,2.44528,3.65983.0855C471.09753,285.99728,468.1486,281.58311,464.02189,278.09324ZM251.17231,220.68449c2.42142-12.74757,7.7533-17.607,20.63236-18.76621a257.65883,257.65883,0,0,1,26.5017-1.25594c7.71625.04872,15.43517-.07093,23.08977,1.28867,15.8149,2.80912,23.95021,13.8464,29.69215,27.49562a57.92964,57.92964,0,0,1,3.58185,12.99012c2.04568,12.25172-3.99636,17.77571-15.23429,17.52457-26.70463-.59672-53.39935.15625-80.09271-.36442-7.15425-.13952-7.47547-.3318-7.85133-7.64686C250.95646,241.53254,249.19083,231.11588,251.17231,220.68449Z"/><path fill="#8298e7" d="M249.56641 358.104c-17.466-.666-34.9506-.8736-52.3135-3.38231-4.88838-.70634-9.949-.33784-14.92809-.27128-7.14448.09549-9.45519-1.98489-10.0788-9.18183a82.70368 82.70368 0 0 0-5.96389-25.63123c-6.47267-15.22394-18.49932-21.89659-33.92868-25.1764-21.98113-4.67251-53.52947 10.48652-64.225 39.42778-2.56149 6.93116-5.181 13.80693-5.19856 21.39482-.00663 2.86837-1.35232 5.69092-4.69092 5.74624-10.39744.17222-20.77158 2.48329-31.20721.24052-5.391-1.15856-6.453-2.25357-5.63043-7.81305a124.63685 124.63685 0 0 1 7.61649-27.21151c10.82867-1.71733 16.95584-8.74926 20.07264-18.57789 1.5586-4.915 4.60556-7.072 9.20912-8.744 30.91645-11.229 63.00335-17.105 95.502-20.89277 14.51013-1.69117 29.07281-3.01706 43.72927-3.5558 11.89786-.4373 23.79249-.94128 35.67676-.6455 14.10564.3511 14.33355.65606 14.84313 14.95152.57845 16.22747 1.14713 32.45306 1.14766 48.70194C249.19861 344.34329 250.73364 351.19875 249.56641 358.104zM415.90233 281.11409c-18.03377 2.05313-30.26292 12.92832-40.20863 26.9242-5.51492 7.76085-6.35929 17.35766-9.04866 26.2142-1.0846 3.57164-1.01787 7.27772-1.13529 10.97-.25179 7.91847-1.86189 9.61209-9.59517 10.19339-8.31366.62486-16.62676 1.51887-24.952 1.67985-25.52745.49363-51.06056.69227-76.59149 1.0056a38.1522 38.1522 0 0 1-1.34859-10.96464c.39929-21.90325-2.01275-43.70592-2.118-65.5842-.03045-6.33105.42958-6.88023 6.81109-6.92709 16.58235-.12182 33.08529 1.47823 49.61327 2.48757 8.50729.51949 17.04309 1.00866 25.53293 1.16991 25.09318.47667 50.17926 1.75924 75.29134 1.184C410.79885 279.4062 413.69668 278.81744 415.90233 281.11409z"/><path fill="#8298e7" d="M57.10517,294.37863c8.49011-14.18275,16.46073-28.70629,27.17728-41.42848,8.347,5.73536,15.53913,5.32271,23.04526-2.34684A204.91659,204.91659,0,0,1,131.52656,229.211c3.35048-2.48536,2.96332-6.22987,2.63008-9.76455-.30651-3.25121-.54305-6.42192,1.33336-9.32989,4.17808-3.14142,9.15929-4.81327,13.61751-7.4421,3.44441-3.52537,8.30185-4.10466,12.52242-6.02036,5.58231-2.04385,11.4494-3.05719,17.123-4.78692a242.42184,242.42184,0,0,1,40.98751-5.09082c6.08008-.24539,12.10606-1.49892,18.22312-.96477a16.77626,16.77626,0,0,0,2.48813-.05527,19.72515,19.72515,0,0,1,4.94512-.81257c3.76176-.18885,7.52358-.1317,11.28817-.08928,19.11348.23626,38.18567-1.94208,57.3005-.935a16.34357,16.34357,0,0,1,1.65325.2604c9.41684,1.422,18.80024,2.99977,27.29146,7.71726a62.53383,62.53383,0,0,1,8.37895,5.20309c2.19922,2.52827,5.30755,4.27522,6.58964,7.60133a169.32034,169.32034,0,0,1,28.83468,41.25107c4.26624,8.42068,11.67858,11.77743,20.70362,12.782,14.67853,1.6339,29.24527,3.94949,42.954,9.83907,5.17355,2.22263,10.13359,4.84972,13.6308,9.51949-1.85287,1.25181-3.74283.41829-5.59289.04282a110.36276,110.36276,0,0,0-24.43695-2.495c-15.92462.34934-31.87226.43326-47.77933.3504-23.29225-.12135-46.60833-.85794-69.90082-2.01945-14.28838-.71253-28.54892-2.01963-42.86591-2.206-6.11-.0795-12.16433-1.16094-18.29731-1.10713-2.11334.01855-4.484-.501-4.27129-3.40416.21981-3.001,2.66916-2.72175,4.76216-2.62626,24.29723,1.10872,48.58092.2225,72.85052-.75618,6.41889-.25886,12.83413-.74661,19.27048-.86112,5.85965-.10428,9.30339-2.91965,10.84806-8.43873,5.97776-21.35844-7.72157-48.76943-28.53309-55.50482-11.52927-3.73131-23.77771-4.24174-35.85632-3.37007-7.368.53173-14.75673,1.05128-22.12448,1.58678-18.68849,1.35833-26.86622,11.04287-28.53935,29.6022-1.01822,11.29477-1.06932,22.76258,2.84791,33.91725,2.57229,7.3249.1194,9.99018-7.79076,10.00563q-25.35324.0495-50.70654.01168c-2.41071-.51162-5.29508.73049-7.13858-1.89922,2.303-2.89657,5.72552-2.4012,8.79336-2.76342,9.57327-1.13037,19.25812-1.17947,28.76971-2.94643,1.58257-.294,3.16976-.55585,4.72249-.98672,10.671-2.961,13.50288-6.67829,12.69616-17.6756-.71043-9.6849,1.42441-19.24467.88465-28.90634-.14421-2.58155-.13151-5.14466-1.42873-7.49927-1.23857-2.24816-2.92478-3.83857-5.61825-4.00219-13.1498-.79893-26.303-2.2047-39.44834.02653-19.57135,3.322-36.8632,11.07373-50.59573,25.86848a37.99879,37.99879,0,0,0-8.96911,16.85088c-3.49512,13.70714,7.21346,21.77607,16.98966,22.06227,3.86077.11306,7.72267-.02389,11.58784.01374,3.15709.596,6.8531-1.37289,9.428,1.97516-2.0338,2.66568-5.09656,2.373-7.90859,2.66223-30.46812,3.13369-60.556,8.22166-89.86639,17.34752-2.76866.86205-5.41138,2.07021-8.159,2.9779C60.86356,294.5151,59.0545,295.53474,57.10517,294.37863Z"/><path fill="#26a526" d="M244.81973,186.22032q-1.91271.24488-3.82542.48978c-2.55365-4.44247-2.26187-9.546-3.10411-14.34033a438.20584,438.20584,0,0,0-15.13358-61.08112c-.73375-2.23361-2.07178-4.43066-1.13833-6.96248,7.62126-3.709,15.26879-7.3652,22.85629-11.142,7.34718-3.65722,13.84868-8.62014,20.52263-13.34095,5.16151-3.651,10.24331-8.01268,17.41163-6.49769,5.42061,7.5034,6.53169,16.29655,7.10337,25.11052a134.79706,134.79706,0,0,1-3.63527,39.26356c-.40867,1.76505-1.76051,4.60853.30017,5.17429,2.50588.688,2.89544-2.50306,3.2459-4.35321,2.60149-13.73425,5.58758-27.4556,3.34743-41.58671-.19859-1.25278-.55125-2.55043.41262-3.6855,1.80423.87049,3.05-.48615,4.39888-1.19039,8.23386-4.299,15.76387-9.69546,23.29838-15.08093,2.69639,3.60566,2.10937,8.01231,2.30382,11.98021.58018,11.8412,1.60335,23.677,1.18516,35.56426A305.38488,305.38488,0,0,1,317.55822,181.21a7.492,7.492,0,0,1-2.22682,4.14205c-19.62141-1.19116-39.20389,1.53069-58.82285.58475C252.52845,182.57633,248.64789,183.31827,244.81973,186.22032Z"/><path fill="#26a526" d="M238.96973,186.86409c-20.32425,1.21779-40.65674,2.35558-60.70417,6.25841-1.43445-.66733-1.8154-2.17446-2.60565-3.33825-2.2441-3.30478-5.4086-3.87295-8.88064-2.77013-3.28673,1.044-4.67865,3.66388-4.67967,7.04481-.00037,1.2521.51777,2.5462-.33036,3.72194q-6.33079,2.44689-12.66166,4.8937-2.96345-3.34245-5.92675-6.68471a3.00134,3.00134,0,0,1,.48354-2.72451c5.6033-9.01944,9.05031-19.00874,13.05249-28.75494.65624-1.59813.827-4.69549,4.11814-2.9116,1.377,1.49241,2.24153,3.46141,4.33729,4.29347a5.2966,5.2966,0,0,0,6.09749-1.34691,4.18447,4.18447,0,0,0,.93931-5.22648c-1.05441-2.15093-2.69184-3.51733-5.2595-3.37674-1.71222.09376-3.27417,1.41224-5.10011.62292-1.50478-1.30935-1.135-2.92761-.60043-4.45426,2.81369-8.03644,4.89522-16.29657,7.50493-24.39154,2.00335-1.58955,2.75272.60221,3.86878,1.38889,3.09634,2.18244,6.22111,2.53518,9.2118.09294a5.76113,5.76113,0,0,0,1.75168-7.28667c-1.61135-3.74181-4.17293-5.14916-8.37346-4.49788-1.3156.204-2.77414,1.29418-3.76189-.60824a46.82317,46.82317,0,0,1,2.735-18.45524c6.76449-4.68831,13.18621-10.16751,22.21629-9.62809,2.89231,1.47416,4.39153,4.1526,5.8625,6.83715,4.96453,9.06031,6.82293,18.98048,7.99367,29.08534a99.66162,99.66162,0,0,1,1.08578,13.91566c-.04,1.647-.3275,4.35745,1.84667,4.304,2.44686-.06009,2.21145-2.88493,2.03274-4.65783-.80471-7.98375-1.44728-15.99214-2.94864-23.89383-.411-2.16337-1.25719-4.41538.50641-6.431l6.8587-2.6496c2.89,1.66506,2.83651,4.86761,3.68845,7.48338a463.4547,463.4547,0,0,1,16.29782,68.624C239.93307,183.21133,240.38557,185.16785,238.96973,186.86409Z"/><path fill="#fbb641" d="M118.70357,175.39324c-6.196,1.48255-11.65859-1.63449-17.33728-3.02509-3.26156-.79869-3.98546.149-4.16459,2.91778a119.7271,119.7271,0,0,0,.453,18.78183c.2307,2.49731.79165,5.58713-2.5325,6.49155-3.20884.873-4.45035-1.83205-5.63655-4.15231-4.82455-9.43707-9.70072-18.849-14.38942-28.35334a7.10849,7.10849,0,0,0-5.214-4.34121c-7.974-1.84247-15.87082-4.01679-23.80954-6.01483-2.38008-.599-4.85877-1.004-5.24731-4.07741-.38368-3.035,1.86743-4.27746,4.00036-5.38854,4.41322-2.29888,8.82034-4.65441,13.40753-6.559,3.1937-1.326,3.43777-2.78,1.94707-5.69921C56.09128,127.966,52.28021,119.816,48.394,111.70573c-1.30228-2.71776-3.45946-5.80508-.14137-8.22125,3.242-2.36081,5.71221.53458,7.96066,2.48131,7.65873,6.631,15.40579,13.17843,22.74364,20.1528,3.0168,2.86738,5.28554,3.02094,8.66628.94394,5.33241-3.276,10.93879-6.10547,16.42118-9.13845,1.86337-1.03085,3.78631-2.1625,5.80425-.59441,2.25856,1.75508,1.36393,3.97477.62441,6.16-1.43638,4.24452-3.43529,8.31279-4.07138,12.81171.95371,2.88108-.60958,5.34915-1.5195,7.81953-1.46962,3.99-.60953,6.98915,2.43891,9.90911,4.2716,4.09159,8.73257,8.04289,12.36482,12.74391C122.80121,170.80593,122.5039,172.52605,118.70357,175.39324Z"/><path fill="#26a526" d="M118.70357 175.39324c3.11483-3.33777 1.98911-6.23112-.85-9.05267-4.07246-4.04728-7.92453-8.32885-12.15235-12.203-2.99074-2.74059-3.87339-5.52978-2.27135-9.29472 1.1778-2.76792 1.99519-5.68921 2.97248-8.54178 15.54008-5.83248 29.59123-14.48732 43.67475-23.0763 7.38432-4.50338 14.73707-9.05854 22.10407-13.59033 1.92726 3.24081.0318 6.51309-.23138 9.67571a79.0722 79.0722 0 0 1-1.60421 10.78606 334.29962 334.29962 0 0 1-16.62135 52.18456c-2.6666 6.52138-5.173 13.12864-8.96347 19.12792-.83259 1.31779-1.33837 3.05615-3.46942 2.71777C133.8406 187.7874 126.77364 180.98557 118.70357 175.39324zM343.35028 193.05767a91.67669 91.67669 0 0 0-27.29387-7.57189c1.59261-4.148.91429-8.92788 3.55282-12.7827 2.05879-.87767 3.25041.87119 4.75022 1.621 2.61561 1.30766 5.0102 1.10481 7.0674-.98378a5.85186 5.85186 0 0 0 1.35635-6.68251c-1.11409-2.69282-3.32071-3.74048-6.21468-3.537-1.88232.13232-4.16733 1.83769-5.37027-1.19908 1.6976-14.91274 3.09977-29.83459 2.86737-44.84815 1.25991-2.96664 2.29016-.91359 3.2021.22685 1.54119 1.92741 3.16209 3.79971 5.88525 3.48108 2.90939-.34046 5.18378-1.78843 5.74889-4.90472a5.914 5.914 0 0 0-2.94773-6.5466c-2.70479-1.60086-5.19808-1.08273-7.33844 1.20807a28.74919 28.74919 0 0 1-2.43227 2.95226c-1.10171.90208-1.69032.20874-2.08074-.84322.23622-6.43148-1.15575-12.82895-.31117-19.26013a3.66145 3.66145 0 0 1 1.15479-1.97088c1.77318-.89221 3.008.46159 4.42359 1.08055 2.45858 1.075 4.75577.89319 6.54369-1.22605 1.5838-1.87736 1.19265-3.87516-.18136-5.73046a5.13816 5.13816 0 0 0-6.37708-1.89165 20.4553 20.4553 0 0 0-3.31254 1.947c-.9485.39712-1.90653.87139-2.683-.29465-.81961-3.36138-1.68206-6.721-.38552-10.16112 4.09033-4.71777 8.22348-9.39947 12.24486-14.17529 1.2041-1.43005 2.37156-2.682 4.39951-2.306 2.14681.39808 2.4965 2.18254 2.92735 3.943 2.75807 11.27139 3.763 22.80156 4.338 34.31006.88059 17.62534 2.088 35.26154 1.18811 52.93969-.18723 3.67828-1.20707 7.31428-.59737 11.03308 2.12992 3.70458.28454 7.48243.15632 11.21638a150.03169 150.03169 0 0 1-1.93962 16.56253C345.43833 190.38852 345.249 192.19 343.35028 193.05767z"/><path fill="#8b4646" d="M357.89879,204.7016q-3.45514-3.38181-6.91028-6.7636c-1.08678-1.7957-.41359-3.38193.57915-4.92707,1.75469-1.00939,3.57848-.07513,4.35211-.40358-1.72936.01837-4.47891-.19562-4.25677-4.07034,1.00427-7.53462.661-15.14867,1.418-22.68933.81574-2.28777,2.66359-3.04935,4.5742-1.98971,4.54544,2.5209,7.88821,1.19809,10.74314-2.63412,6.56982-.08389,13.14-.14872,19.70931-.26,3.087-.0523,5.8363,1.19955,6.227,4.17663,1.70571,12.99776,1.55782,25.904-3.95492,38.17829-.56,1.24695-1.05478,2.72858-2.53284,3.369-.9966-1.32279-2.69429-1.48547-3.97334-2.34024,1.25169.90825,2.95424,1.05849,3.9975,2.31706-2.66537,3.97675-6.19162,4.695-10.47989,2.87545C371.156,206.89436,364.80527,204.66519,357.89879,204.7016Z"/><path fill="#4c63b7" d="M135.49,210.11658c.13481,3.63821-.58264,7.24747.03689,10.92707.7621,4.52637-1.25916,7.58256-4.93926,10.57048-9.0661,7.36094-17.62691,15.34742-26.337,23.14256-6.37971,5.70946-15.03746,4.96912-19.96789-1.80689C99.07566,235.95138,115.57979,220.998,135.49,210.11658Z"/><path fill="#8399e7" d="M418.53219,281.11586c14.6614.3302,29.49543-1.982,43.8038,3.52175,4.10679,1.5797,7.228,4.82146,11.48876,5.94741a96.02164,96.02164,0,0,1,12.341,34.64582c.40766,2.56849-.11707,4.99534-3.04478,5.75812-2.81815.7342-4.13194-1.33308-4.99911-3.48305a137.01049,137.01049,0,0,0-11.70713-23.19912c-9.43524-14.626-23.96986-20.1199-40.29633-22.35115C423.59718,281.61108,420.95892,282.31969,418.53219,281.11586Z"/><path fill="#1b8d25" d="M293.18306 93.26845c3.45161 9.776 1.56731 19.69826.44623 29.502-.70309 6.14852-1.263 12.42267-3.44987 18.32573a13.09652 13.09652 0 0 1-1.96979 3.78378 2.5994 2.5994 0 0 1-3.532.298c-1.66781-1.05387-1.52057-2.79863-1.106-4.34434a153.55631 153.55631 0 0 0 3.76291-20.24209c2.01951-15.66661 1.445-31.01106-4.61973-45.8367a8.0964 8.0964 0 0 1-.30584-1.40936c6.70424 1.62972 8.39329 7.15025 9.98526 12.78892A22.83315 22.83315 0 0 1 293.18306 93.26845zM212.78126 107.88455c1.13121 8.6915 2.14595 17.40077 3.46875 26.063a26.32981 26.32981 0 0 1 .319 7.16209c-.24461 2.00073-.7848 4.57094-3.52388 4.30736-2.45122-.23587-3.20164-2.37281-3.09883-4.6919.292-6.58563-.75943-13.0514-1.523-19.56312-1.38682-11.82631-4.87415-22.78716-12.02092-32.437 7.11447.36427 10.83464 3.69921 13.27636 11.55138C210.48844 102.88032 209.89225 106.1146 212.78126 107.88455z"/><path fill="#6d3232" d="M353.92792,165.01886c.51407,8.08209-.25219,16.11121-.99881,24.14113-1.0928,1.11092.17145,2.78278-.92636,3.89251q-.507,2.4427-1.01415,4.88546-3.81987-2.44026-7.63891-4.88045c2.397-10.594,2.70237-21.45606,4.124-32.17418q3.21855.18245,6.43556.36283C355.00238,162.49835,354.76163,163.75713,353.92792,165.01886Z"/><path fill="#1f261b" d="M324.887,92.53569q.07335,10.61307.14662,21.22612a1.50242,1.50242,0,0,1-.00177,1.98865,292.60775,292.60775,0,0,1-2.97541,47.43439,19.74877,19.74877,0,0,1-1.879,9.48888c-2.292,3.97511-1.02872,9.09408-4.12151,12.81172l-.37791.0154-.34739-.14893a388.99688,388.99688,0,0,0,6.985-48.32335c1.1838-16.26589.01306-32.38626-.45924-48.559-.11074-3.79093-.7844-7.63372-.975-11.47333a3.35742,3.35742,0,0,1,2.09279-1.85654,41.80646,41.80646,0,0,1,1.05311,10.54654C326.03614,87.7532,324.70227,90.23975,324.887,92.53569Z"/><path fill="#1e281b" d="M238.96973,186.86409c-1.99511-17.85436-5.86965-35.34242-10.57869-52.641-2.65016-9.73535-5.81714-19.33-8.7512-28.9881q.98861-.45421,1.97771-.9086a386.61767,386.61767,0,0,1,17.36628,67.21069c.86033,5.03469,2.08338,10.01735,2.00886,15.17368Q239.98285,186.78675,238.96973,186.86409Z"/><path fill="#1e2a1b" d="M141.29137,194.12645c5.9119-6.82138,8.40315-15.36343,11.78719-23.45424,6.80593-16.27207,11.76608-33.14142,16.20081-50.17977.2.19475.4.3895.603.58268.90349,2.1795,1.17883,4.31859-.42208,6.33174-1.24029,8.30375-4.19553,16.12638-6.67348,24.08791-.476,1.52939-2.07523,3.14824-.38643,4.91342a5.21738,5.21738,0,0,1-2.10175,5.64156c-1.99731-1.00912-1.555.89741-1.88847,1.67305-4.70094,10.93377-8.22932,22.41806-15.22895,32.26739Q142.2359,195.058,141.29137,194.12645Z"/><path fill="#763737" d="M353.92792,165.01886q-.00928-1.88637-.01863-3.7727l14.48909-.02231c-2.03143,5.81692-4.19777,6.8-9.59741,4.2701C357.2059,164.74661,355.70075,163.68088,353.92792,165.01886Z"/><path fill="#1d2c1b" d="M169.27937,120.49244Q170.7311,110.0629,172.182,99.6339l2.00386-1.28084c.31184,6.40984-1.91647,12.55389-1.98011,18.92442-.227,1.72113-.57522,3.33719-2.8477,3.28534Z"/><path fill="#4c63b8" d="M262.70492,292.62311c-1.35735,0-2.96333-.00788-4.56916.002-1.97958.01215-3.48012-.56175-3.69673-2.851-.20376-2.15342.4693-4.12539,2.57391-4.62566,4.1834-.9945,8.46141-1.622,12.72384-2.23858,1.89229-.27379,3.58615.30386,3.94389,2.55639.37561,2.36531-.01068,4.4389-2.28218,5.85293C268.74106,292.9735,265.80487,292.42674,262.70492,292.62311Z"/><path fill="#fbb641" d="M161.76924,197.78087c-1.88083-6.23126.076-11.01045,5.08406-12.41661,5.6-1.57235,9.46229,1.05357,11.41142,7.75807Q170.01782,195.45178,161.76924,197.78087Z"/><path fill="#7e94e3" d="M158.65735,270.303c1.32849-1.31385,3.04168-.98374,4.58172-.86569,5.97072.45776,11.8277-.93282,17.76295-.94417,2.07228,1.712,4.53729.47894,6.78112.90692-6.404,1.41954-12.94609,1.38035-19.44259,1.83036C165.25818,269.39883,161.86921,270.77588,158.65735,270.303Z"/><path fill="#d64142" d="M244.81973,186.22032c3.90207-5.53087,8.09154-5.63241,11.68779-.28341Q250.66466,186.07847,244.81973,186.22032Z"/><path fill="#fbb641" d="M239.13822,130.23586c-3.78545.01753-7.73108-3.87625-7.79944-7.697a8.51075,8.51075,0,0,1,7.83475-8.236,7.79011,7.79011,0,0,1,7.92016,7.39628A8.26311,8.26311,0,0,1,239.13822,130.23586Z"/><path fill="#d64142" d="M242.53241,143.1621c.17028-3.208,1.70394-5.16226,4.98183-5.279,3.28252-.11691,5.08593,1.60711,5.15028,4.89673a4.85516,4.85516,0,0,1-4.9192,5.36654C244.70236,148.28283,242.73706,146.41042,242.53241,143.1621Z"/><path fill="#fbb641" d="M246.57986 169.35177c-2.60032-.17611-4.06789-1.56555-4.3076-3.84751a3.60513 3.60513 0 0 1 3.56082-4.19817 3.90256 3.90256 0 0 1 4.41871 3.96337C250.4139 167.71356 248.58343 168.82214 246.57986 169.35177zM169.35806 120.56282q1.424-1.64128 2.84782-3.28394c5.64248-2.51183 9.479-1.6137 12.00783 2.80958 2.18648 3.82451 1.57267 7.69466-1.64358 10.36307a8.16384 8.16384 0 0 1-10.59459-.17783 27.34578 27.34578 0 0 1-2.5161-2.86837Q169.40958 123.9856 169.35806 120.56282z"/><path fill="#d64142" d="M194.26511 113.8219a7.31323 7.31323 0 0 1-7.01159-7.155 6.63555 6.63555 0 0 1 6.86152-6.52786 6.84529 6.84529 0 0 1 .15007 13.68285zM160.29862 162.04975a9.99643 9.99643 0 0 1 2.10387-5.64292c1.9996-.96919 3.90926-2.36927 6.32186-1.72912a6.88769 6.88769 0 0 1 5.33761 6.1351c.40414 2.91751-1.23145 4.85137-3.64827 6.20319-2.98271 1.66836-5.67084.70159-7.95706-1.3037C161.44486 164.82487 161.00054 163.29047 160.29862 162.04975z"/><path fill="#3d3351" d="M422.305 288.61452c-26.87875-.01913-49.25107 22.09624-49.18908 48.62413a48.19049 48.19049 0 0 0 48.63153 48.24513c27.69366.00416 49.2484-21.28025 49.24213-48.62458A48.35138 48.35138 0 0 0 422.305 288.61452zm-.79287 74.94982a26.23252 26.23252 0 0 1-25.90026-26.32125c.04787-14.22756 12.13509-26.27618 26.22068-26.13689 14.17837.14014 25.92052 12.14533 25.8825 26.46214A26.16333 26.16333 0 0 1 421.51215 363.56434zM119.67753 300.20975c-26.71437.10007-48.95 22.01421-49.02065 48.31185-.07281 27.1295 21.465 48.559 48.80372 48.558 27.15352-.00085 49.05713-21.34947 49.0721-47.82875C168.54824 321.7091 147.02846 300.1074 119.67753 300.20975zm-.62518 74.95034a26.23293 26.23293 0 0 1-25.8977-26.32388c.04861-14.22653 12.13964-26.2764 26.22358-26.13421 14.17974.1431 25.91881 12.14766 25.87965 26.46487A26.16357 26.16357 0 0 1 119.05235 375.16009z"/><path fill="#fbb641" d="M325.03184,115.75046q.00032-.9932.00121-1.98751c1.44-3.0596,2.88621-6.2419,6.75753-6.69542,3.99906-.4685,6.85926,1.43252,8.1796,5.181,1.17283,3.32972.42512,6.32116-2.63525,8.428-3.30562,2.27568-6.475,2.28071-9.5924-.49566C326.35115,118.94171,326.05614,117.14843,325.03184,115.75046Z"/><path fill="#d64142" d="M320.17747 172.67373c-.37287-3.36109-.27281-6.62856 1.87875-9.48944 2.10733-.623 4.07329-2.03986 6.38973-1.53954 3.22245.696 5.47039 2.60261 6.0815 5.961a7.02537 7.02537 0 0 1-2.99674 7.52583 6.807 6.807 0 0 1-8.44663-.02045C322.06008 174.37535 321.14322 173.49052 320.17747 172.67373zM325.8017 84.82247a6.89512 6.89512 0 0 1 6.19277-3.05564c3.15306.17138 4.924 2.0983 5.91129 4.8678a5.56759 5.56759 0 0 1-2.22479 6.78075 6.03143 6.03143 0 0 1-7.21116.28852 22.79633 22.79633 0 0 1-2.55546-2.18252C323.72218 89.32465 324.27532 87.08174 325.8017 84.82247z"/><path fill="#1e4e18" d="M325.8017,84.82247a9.81839,9.81839,0,0,0,.11271,6.69921q-.51339.50678-1.027,1.01406c-1.72166-2.10233-.63225-4.558-.86068-6.84872Q324.91481,85.25393,325.8017,84.82247Z"/><path fill="#733636" d="M378.25042,170.72364c-6.48453,2.5244-6.48453,2.5244-12.69325.27265C369.82261,172.129,373.94688,169.84405,378.25042,170.72364Z"/><path fill="#743636" d="M381.61118,182.979c1.52152-1.29335,2.70818-3.14044,4.91015-2.08822,1.81918.8693,3.5801.19962,5.6764-.27456-1.29837,2.60338-3.09046,3.38686-4.96933,2.35329C385.2605,181.8869,383.58109,183.67461,381.61118,182.979Z"/><path fill="#773838" d="M362.70729,183.806c3.35952.37378,6.85239-2.48166,9.99914.8063C369.36584,183.605,365.94262,185.86725,362.70729,183.806Z"/><path fill="#763737" d="M365.81549,196.09471c3.885-.18454,7.2595.35676,10.46028-1.04941C373.22548,198.13759,369.946,198.66179,365.81549,196.09471Z"/><path fill="#773838" d="M352.00275,193.0525c.10416-1.34628-.46343-2.85249.92657-3.89255.44753,1.36015.44753,1.36015,6.02618,3.89255Z"/><path fill="#753737" d="M387.8711,206.66456l-6.07847-2.32593c2.49406-.32615,5.0547-.79216,6.05423,2.349Z"/><path fill="#7b3b3b" d="M384.36728,194.35716c1.54632-.45324,2.59769-.58712,3.8295.21806C386.98983,196.26361,385.896,195.60673,384.36728,194.35716Z"/><path fill="#4c63b7" d="M238.03852,213.49108c-.39-7.46078-3.64259-10.86389-10.93585-10.83532a37.57777,37.57777,0,0,1-4.8219-.07326c-24.1549-3.04478-47.04772.32019-67.96953,13.46377-11.39367,7.15773-20.88721,15.86556-24.86148,29.464-4.27676,14.63336,6.33155,24.75065,18.58924,24.84862,3.5391.02829,7.07889-.03478,10.61833-.056,2.61035-.96273,5.383-.71694,7.95862-.36442a32.54686,32.54686,0,0,0,14.38677-1.44469c8.28792-.81792,16.58386-1.5549,24.879-2.26683,7.577-.65034,15.36277-1.09871,22.50836-4.44707,5.09668-2.38812,8.85186-5.32629,8.86455-11.81888.00586-3.0227-.24181-6.03583-.28547-9.04749C236.83626,231.74892,238.51866,222.67433,238.03852,213.49108Zm-6.90391,19.45048c-.28615,4.4847-.03091,8.96757-.51059,13.47516-.49187,4.62193-2.85211,7.16791-6.97529,8.02914-13.97676,2.91933-27.95493,5.88221-42.21471,7.15386-9.73665.86824-19.4687,1.791-29.21087,2.59128a26.03376,26.03376,0,0,1-6.70564-.13047c-7.48924-1.36079-10.34829-5.48357-9.2416-13.04994,1.56531-10.70166,8.25877-18.27867,15.81524-25.16419,11.48542-10.46561,25.812-13.82227,40.68867-15.36055,6.8578-.70908,13.779-.80488,23.11418-1.31126,2.58451-.3478,7.45862.94531,12.40382,1.319,2.98843.22581,3.99847,1.489,3.85582,4.17987C231.83077,220.76378,231.52294,226.85529,231.13461,232.94156Z"/><path fill="#3d3351" d="M406.73742 336.65354a13.1422 13.1422 0 0 1 13.45327-13.28639c8.74778-.04 15.97091 6.70135 15.77534 14.72321-.18213 7.47138-6.506 13.17556-14.43557 13.02107C413.052 350.94623 406.67859 344.71719 406.73742 336.65354zM104.28239 348.38756c.00246-7.79833 5.88431-13.52192 13.7941-13.423 8.52652.10672 15.53073 6.72505 15.43337 14.58319-.09251 7.46607-6.36159 13.23737-14.29828 13.163C110.74652 362.63141 104.27986 356.42723 104.28239 348.38756z"/><path fill="#d64142" d="M57.04054 441.20072a18.572 18.572 0 0 1-2.317.40256 24.5541 24.5541 0 0 1-3.12208.20219 14.045 14.045 0 0 1-2.71953-.235 4.82923 4.82923 0 0 1-1.98091-.83972 3.62228 3.62228 0 0 1-1.209-1.67853 8.19338 8.19338 0 0 1-.403-2.82062V425.757H32.39673v15.44376a18.545 18.545 0 0 1-2.31652.40256 24.56124 24.56124 0 0 1-3.12254.20219 14.04837 14.04837 0 0 1-2.71953-.235 4.83191 4.83191 0 0 1-1.98091-.83972 3.62159 3.62159 0 0 1-1.20858-1.67853 8.1825 8.1825 0 0 1-.403-2.82062V400.77754q.73772-.13389 2.35022-.36977a21.54732 21.54732 0 0 1 3.08884-.235 14.065 14.065 0 0 1 2.71953.235 4.85211 4.85211 0 0 1 1.98091.83972 3.62631 3.62631 0 0 1 1.20858 1.67853 8.18964 8.18964 0 0 1 .403 2.82063V416.49H45.289V400.77754q.73839-.13389 2.35067-.36977a21.54113 21.54113 0 0 1 3.08839-.235 14.06175 14.06175 0 0 1 2.71953.235 4.85206 4.85206 0 0 1 1.9809.83972 3.62624 3.62624 0 0 1 1.20858 1.67853 8.18846 8.18846 0 0 1 .40347 2.82063zM78.32592 407.82773a27.60187 27.60187 0 0 1 6.61439.73863 14.82419 14.82419 0 0 1 5.10345 2.24958 10.15964 10.15964 0 0 1 3.25642 3.82792 12.25122 12.25122 0 0 1 1.14164 5.47185v15.04212a4.16633 4.16633 0 0 1-.9736 2.85341 9.71017 9.71017 0 0 1-2.317 1.91351q-4.3655 2.61889-12.288 2.61935a28.08448 28.08448 0 0 1-6.41266-.67215 15.181 15.181 0 0 1-4.90171-2.01369 9.23929 9.23929 0 0 1-3.15579-3.42537 10.13351 10.13351 0 0 1-1.10839-4.83431q0-4.634 2.75323-7.11759 2.75277-2.48365 8.5279-3.0893l8.79658-.93991v-.46995a2.87973 2.87973 0 0 0-1.71223-2.78693 11.53368 11.53368 0 0 0-4.93541-.83881 22.84036 22.84036 0 0 0-4.96911.53735 26.451 26.451 0 0 0-4.36482 1.34246 4.63976 4.63976 0 0 1-1.47725-1.84611 5.8369 5.8369 0 0 1-.60429-2.58565 4.30885 4.30885 0 0 1 .83927-2.78692 6.50192 6.50192 0 0 1 2.58519-1.77872 20.15342 20.15342 0 0 1 4.5998-1.0747A40.05006 40.05006 0 0 1 78.32592 407.82773zm.53734 26.38928a14.97868 14.97868 0 0 0 2.51826-.235 6.11643 6.11643 0 0 0 2.04784-.63753v-5.37167l-4.83477.40256a7.44189 7.44189 0 0 0-3.08839.806 2.17 2.17 0 0 0-1.209 2.0146 2.67117 2.67117 0 0 0 1.04054 2.18218A5.69512 5.69512 0 0 0 78.86326 434.217zM116.39889 407.82773a25.89844 25.89844 0 0 1 7.4869 1.041 16.03258 16.03258 0 0 1 5.94271 3.18949 14.8101 14.8101 0 0 1 3.89441 5.40536 19.43319 19.43319 0 0 1 1.41032 7.756 21.37378 21.37378 0 0 1-1.20858 7.52015 14.6896 14.6896 0 0 1-3.42492 5.40536 13.93979 13.93979 0 0 1-5.338 3.25688 21.26992 21.26992 0 0 1-6.95 1.0747 16.0896 16.0896 0 0 1-5.37166-.87342v11.1468a18.35713 18.35713 0 0 1-2.14894.43716 19.3199 19.3199 0 0 1-3.02145.235 15.73 15.73 0 0 1-2.65259-.20219 4.51621 4.51621 0 0 1-1.9809-.80511 3.65055 3.65055 0 0 1-1.20858-1.64575 7.66163 7.66163 0 0 1-.403-2.71953V415.81875a5.16869 5.16869 0 0 1 .77232-2.95451 8.14568 8.14568 0 0 1 2.11525-2.082 17.80907 17.80907 0 0 1 5.17038-2.14848A27.4102 27.4102 0 0 1 116.39889 407.82773zm.13433 25.65066q6.9154 0 6.91632-8.25878 0-4.29651-1.71223-6.379a6.02713 6.02713 0 0 0-4.93541-2.082 7.94666 7.94666 0 0 0-2.28328.30237 9.12182 9.12182 0 0 0-1.74593.70493v14.77253a9.954 9.954 0 0 0 1.74593.67123A7.28734 7.28734 0 0 0 116.53322 433.47839zM155.68043 407.82773a25.89528 25.89528 0 0 1 7.48645 1.041 16.0325 16.0325 0 0 1 5.94271 3.18949 14.81634 14.81634 0 0 1 3.89487 5.40536 19.4332 19.4332 0 0 1 1.41031 7.756 21.37355 21.37355 0 0 1-1.20858 7.52015 14.69549 14.69549 0 0 1-3.42491 5.40536 13.93813 13.93813 0 0 1-5.33842 3.25688 21.26789 21.26789 0 0 1-6.95 1.0747 16.09152 16.09152 0 0 1-5.37167-.87342v11.1468a18.34455 18.34455 0 0 1-2.14848.43716 19.33 19.33 0 0 1-3.0219.235 15.72044 15.72044 0 0 1-2.65214-.20219 4.514 4.514 0 0 1-1.9809-.80511 3.64715 3.64715 0 0 1-1.20858-1.64575 7.66035 7.66035 0 0 1-.40347-2.71953V415.81875a5.17218 5.17218 0 0 1 .77233-2.95451 8.155 8.155 0 0 1 2.11569-2.082 17.80384 17.80384 0 0 1 5.17039-2.14848A27.405 27.405 0 0 1 155.68043 407.82773zm.13389 25.65066q6.91539 0 6.91631-8.25878 0-4.29651-1.71223-6.379a6.02652 6.02652 0 0 0-4.93541-2.082 7.95115 7.95115 0 0 0-2.28328.30237 9.11679 9.11679 0 0 0-1.74547.70493v14.77253a9.9487 9.9487 0 0 0 1.74547.67123A7.28747 7.28747 0 0 0 155.81432 433.47839zM184.21865 433.14323q-.73975-1.67763-1.57789-3.76053-.84018-2.08064-1.74593-4.76783-.90711-2.68448-1.88026-6.144-.97406-3.45771-2.04785-7.95731a8.7085 8.7085 0 0 1 5.976-2.34977 7.18886 7.18886 0 0 1 3.89486.97361 5.9805 5.9805 0 0 1 2.28282 3.65943l5.30473 18.46567h.26867q.806-2.28146 1.57789-4.96911.7712-2.68446 1.511-5.53924.73839-2.85387 1.37661-5.70774.6373-2.85387 1.10794-5.60664a11.19713 11.19713 0 0 1 5.30472-1.276 6.997 6.997 0 0 1 3.89442 1.00731 3.85069 3.85069 0 0 1 1.54464 3.49185 22.098 22.098 0 0 1-.47 4.19678q-.47132 2.38392-1.24227 5.0693-.77325 2.68719-1.81333 5.54015-1.04167 2.85387-2.18218 5.60664-1.1421 2.75414-2.35022 5.20409-1.20834 2.45222-2.35021 4.39806a47.05348 47.05348 0 0 1-3.49186 5.37166 19.13264 19.13264 0 0 1-3.08839 3.25688 8.8369 8.8369 0 0 1-2.9545 1.61205 10.865 10.865 0 0 1-3.0893.43625 6.31335 6.31335 0 0 1-4.56564-1.67853 7.05757 7.05757 0 0 1-2.082-4.36527q2.14826-1.679 4.29788-3.72684a45.17078 45.17078 0 0 0 3.89441-4.19678 6.31337 6.31337 0 0 1-2.45086-1.57744A15.54561 15.54561 0 0 1 184.21865 433.14323zM266.8105 441.20072a18.51324 18.51324 0 0 1-2.31652.40256 24.56136 24.56136 0 0 1-3.12254.20219 14.05166 14.05166 0 0 1-2.71953-.235 4.83717 4.83717 0 0 1-1.98091-.83972 3.62479 3.62479 0 0 1-1.20858-1.67853 8.18369 8.18369 0 0 1-.40255-2.82062V425.757H242.16714v15.44376a18.52353 18.52353 0 0 1-2.317.40256 24.54893 24.54893 0 0 1-3.12209.20219 14.05173 14.05173 0 0 1-2.71953-.235 4.83449 4.83449 0 0 1-1.9809-.83972 3.62159 3.62159 0 0 1-1.20858-1.67853 8.1825 8.1825 0 0 1-.403-2.82062V400.77754q.73841-.13389 2.35022-.36977a21.557 21.557 0 0 1 3.08884-.235 14.06175 14.06175 0 0 1 2.71953.235 4.84936 4.84936 0 0 1 1.9809.83972 3.62624 3.62624 0 0 1 1.20858 1.67853 8.1894 8.1894 0 0 1 .403 2.82063V416.49h12.89273V400.77754q.73772-.13389 2.34976-.36977a21.55847 21.55847 0 0 1 3.0893-.235 14.06842 14.06842 0 0 1 2.71953.235 4.85477 4.85477 0 0 1 1.9809.83972 3.62938 3.62938 0 0 1 1.20858 1.67853 8.19056 8.19056 0 0 1 .40256 2.82063zM308.44226 425.15222a20.23494 20.23494 0 0 1-1.27552 7.42 15.036 15.036 0 0 1-3.59249 5.47276 15.27029 15.27029 0 0 1-5.5397 3.35706 21.42624 21.42624 0 0 1-7.185 1.1421 20.3405 20.3405 0 0 1-7.18453-1.20858 15.808 15.808 0 0 1-5.54016-3.45816 15.41937 15.41937 0 0 1-3.592-5.47276 19.55685 19.55685 0 0 1-1.276-7.25238 19.36189 19.36189 0 0 1 1.276-7.185 15.42745 15.42745 0 0 1 3.592-5.47276 15.8211 15.8211 0 0 1 5.54016-3.45816 20.3405 20.3405 0 0 1 7.18453-1.20858 19.84558 19.84558 0 0 1 7.185 1.24228 16.23482 16.23482 0 0 1 5.5397 3.49186 15.4386 15.4386 0 0 1 3.59249 5.47275A19.19665 19.19665 0 0 1 308.44226 425.15222zm-23.50171 0a10.61351 10.61351 0 0 0 1.57789 6.27878 5.12065 5.12065 0 0 0 4.39806 2.18218 4.92679 4.92679 0 0 0 4.33158-2.21588 11.00561 11.00561 0 0 0 1.51049-6.24508 10.659 10.659 0 0 0-1.54419-6.21139 5.45637 5.45637 0 0 0-8.72964 0A10.65212 10.65212 0 0 0 284.94055 425.15222zM325.63241 441.402q-.73977.13389-2.18218.36977a18.27037 18.27037 0 0 1-2.92127.235 15.82581 15.82581 0 0 1-2.65213-.20128 4.52786 4.52786 0 0 1-1.98091-.806 3.86748 3.86748 0 0 1-1.24227-1.64484 7.11456 7.11456 0 0 1-.43626-2.71953V397.68824q.73771-.13389 2.18219-.36886a18.14315 18.14315 0 0 1 2.9208-.235 15.83757 15.83757 0 0 1 2.65214.20127 4.50616 4.50616 0 0 1 1.9809.806 3.88014 3.88014 0 0 1 1.24228 1.64483 7.12909 7.12909 0 0 1 .43671 2.71953zM332.54918 399.77024a5.90307 5.90307 0 0 1 1.71223-4.29788 6.756 6.756 0 0 1 9.06479 0 6.25018 6.25018 0 0 1 0 8.59576 6.7586 6.7586 0 0 1-9.06479 0A5.90014 5.90014 0 0 1 332.54918 399.77024zM344.50109 441.402q-.7391.13389-2.18219.36977a18.26882 18.26882 0 0 1-2.9208.235 15.82194 15.82194 0 0 1-2.65214-.20128 4.52328 4.52328 0 0 1-1.9809-.806 3.86742 3.86742 0 0 1-1.24228-1.64484 7.10507 7.10507 0 0 1-.43671-2.71953V409.305q.73841-.13389 2.18264-.36886a18.139 18.139 0 0 1 2.92081-.235 15.74945 15.74945 0 0 1 2.65213.20128 4.51072 4.51072 0 0 1 1.9809.806 3.88023 3.88023 0 0 1 1.24228 1.64484 7.13879 7.13879 0 0 1 .43626 2.71953zM350.3427 425.15222a20.08022 20.08022 0 0 1 1.34337-7.68864 14.68667 14.68667 0 0 1 3.72683-5.40536 15.32322 15.32322 0 0 1 5.573-3.18949 22.08069 22.08069 0 0 1 6.88261-1.041 14.52235 14.52235 0 0 1 2.61935.235 10.55476 10.55476 0 0 1 2.08109.57105V397.75564a18.50954 18.50954 0 0 1 2.14894-.43626 19.19315 19.19315 0 0 1 3.02144-.235 15.847 15.847 0 0 1 2.65259.20127 4.50847 4.50847 0 0 1 1.98091.806 3.64522 3.64522 0 0 1 1.209 1.64483 7.67636 7.67636 0 0 1 .40256 2.71953v31.82834a5.73163 5.73163 0 0 1-2.95451 5.03651 20.45573 20.45573 0 0 1-5.036 2.24957 26.19552 26.19552 0 0 1-14.94057-.235 15.88988 15.88988 0 0 1-5.84207-3.49186 15.005 15.005 0 0 1-3.62619-5.47276A19.75136 19.75136 0 0 1 350.3427 425.15222zm19.07041-8.39357a7.2612 7.2612 0 0 0-5.57294 2.082q-1.9488 2.082-1.94766 6.31157 0 4.164 1.81287 6.27878a6.51962 6.51962 0 0 0 5.23778 2.11478 6.1206 6.1206 0 0 0 2.18218-.36885 4.98253 4.98253 0 0 0 1.51095-.83973V417.56467A6.154 6.154 0 0 0 369.41311 416.75865zM404.532 407.82773a27.60336 27.60336 0 0 1 6.61394.73863 14.81793 14.81793 0 0 1 5.103 2.24958 10.15273 10.15273 0 0 1 3.25688 3.82792 12.25732 12.25732 0 0 1 1.14164 5.47185v15.04212a4.16659 4.16659 0 0 1-.97406 2.85341 9.71429 9.71429 0 0 1-2.31606 1.91351q-4.36619 2.61889-12.28844 2.61935a28.08734 28.08734 0 0 1-6.41266-.67215 15.19226 15.19226 0 0 1-4.90217-2.01369 9.243 9.243 0 0 1-3.15578-3.42537 10.13314 10.13314 0 0 1-1.10749-4.83431q0-4.634 2.75278-7.11759 2.75208-2.48365 8.5279-3.0893l8.79612-.93991v-.46995a2.879 2.879 0 0 0-1.71223-2.78693 11.52947 11.52947 0 0 0-4.93541-.83881 22.85245 22.85245 0 0 0-4.9691.53735 26.45868 26.45868 0 0 0-4.36437 1.34246 4.64367 4.64367 0 0 1-1.47725-1.84611 5.843 5.843 0 0 1-.60429-2.58565 4.30885 4.30885 0 0 1 .83927-2.78692 6.50192 6.50192 0 0 1 2.58519-1.77872 20.16518 20.16518 0 0 1 4.59979-1.0747A40.05167 40.05167 0 0 1 404.532 407.82773zm.53689 26.38928a14.96937 14.96937 0 0 0 2.5178-.235 6.123 6.123 0 0 0 2.0483-.63753v-5.37167l-4.83477.40256a7.448 7.448 0 0 0-3.08884.806 2.17039 2.17039 0 0 0-1.20858 2.0146 2.66905 2.66905 0 0 0 1.041 2.18218A5.69172 5.69172 0 0 0 405.06892 434.217zM431.92861 433.14323q-.73977-1.67763-1.57835-3.76053-.84017-2.08064-1.74547-4.76783-.90643-2.68448-1.88026-6.144-.97406-3.45771-2.0483-7.95731a8.71087 8.71087 0 0 1 5.97641-2.34977 7.18619 7.18619 0 0 1 3.89441.97361 5.97694 5.97694 0 0 1 2.28327 3.65943l5.30473 18.46567h.26867q.80533-2.28146 1.57789-4.96911.7712-2.68446 1.511-5.53924.73771-2.85387 1.37661-5.70774.63731-2.85387 1.10794-5.60664a11.19713 11.19713 0 0 1 5.30472-1.276 7.00064 7.00064 0 0 1 3.89487 1.00731 3.85043 3.85043 0 0 1 1.54419 3.49185 22.06541 22.06541 0 0 1-.4704 4.19678q-.47 2.38392-1.24228 5.0693-.77187 2.68719-1.81241 5.54015-1.04236 2.85387-2.18264 5.60664-1.14277 2.75414-2.35022 5.20409-1.209 2.45222-2.35022 4.39806a47.17986 47.17986 0 0 1-3.4914 5.37166 19.11607 19.11607 0 0 1-3.08929 3.25688 8.82406 8.82406 0 0 1-2.95451 1.61205 10.86089 10.86089 0 0 1-3.08839.43625 6.31556 6.31556 0 0 1-4.56655-1.67853 7.0567 7.0567 0 0 1-2.08109-4.36527q2.14758-1.679 4.297-3.72684a44.99069 44.99069 0 0 0 3.89487-4.19678A6.321 6.321 0 0 1 434.782 437.81 15.55591 15.55591 0 0 1 431.92861 433.14323zM491.35436 431.73246a9.44886 9.44886 0 0 1-3.82747 7.991q-3.82725 2.88666-11.28068 2.88711a31.90283 31.90283 0 0 1-5.23778-.40255 14.9989 14.9989 0 0 1-4.12939-1.24228 7.37706 7.37706 0 0 1-2.68629-2.11479 4.83437 4.83437 0 0 1-.9736-3.0219 5.153 5.153 0 0 1 .67168-2.71953 6.79637 6.79637 0 0 1 1.61114-1.847 26.6917 26.6917 0 0 0 4.46546 1.91442 18.3477 18.3477 0 0 0 5.80883.83881 6.79025 6.79025 0 0 0 3.18948-.60384 1.81124 1.81124 0 0 0 1.10748-1.612 1.68635 1.68635 0 0 0-.80556-1.47726 7.47705 7.47705 0 0 0-2.68584-.87251l-2.0146-.40346q-5.84229-1.14074-8.69548-3.592a8.74124 8.74124 0 0 1-2.85432-7.01741 9.27 9.27 0 0 1 4.0966-7.85622 15.14565 15.14565 0 0 1 4.66673-2.08108 22.88649 22.88649 0 0 1 6.00965-.73863 28.02608 28.02608 0 0 1 4.66719.36886 15.21971 15.21971 0 0 1 3.79332 1.10839 6.85455 6.85455 0 0 1 2.552 1.91351 4.32522 4.32522 0 0 1 .93991 2.78693 5.73414 5.73414 0 0 1-.5706 2.65213 5.964 5.964 0 0 1-1.444 1.84611 8.35236 8.35236 0 0 0-1.61113-.70493q-1.07515-.36749-2.35067-.67123-1.276-.30192-2.58474-.50365a15.74376 15.74376 0 0 0-2.38392-.20128 9.205 9.205 0 0 0-3.42491.50365 1.66931 1.66931 0 0 0-1.20858 1.57744 1.41719 1.41719 0 0 0 .67169 1.20858 7.68075 7.68075 0 0 0 2.55149.87342l2.082.46995q6.44546 1.47816 9.16544 4.0629A8.805 8.805 0 0 1 491.35436 431.73246z"/></svg>