<svg xmlns="http://www.w3.org/2000/svg" data-name="Layer 1" viewBox="0 0 512 512"><path fill="#d64142" stroke="#fff" stroke-linecap="round" stroke-linejoin="round" stroke-width="40" d="M93.81785 413.708a3.2531 3.2531 0 0 0-1.33-.56325 9.38331 9.38331 0 0 0-1.82573-.15792 14.36665 14.36665 0 0 0-2.07358.15792q-1.08176.15792-1.57745.24741v10.54908H78.35614v-7.21257a5.49471 5.49471 0 0 0-.27066-1.89329A2.43569 2.43569 0 0 0 77.274 413.708a3.24869 3.24869 0 0 0-1.3296-.56325 9.38653 9.38653 0 0 0-1.82574-.15792 14.362 14.362 0 0 0-2.07358.15792q-1.08176.15792-1.57788.24741v23.80122a5.49158 5.49158 0 0 0 .27065 1.89329 2.43122 2.43122 0 0 0 .81154 1.12737 3.24606 3.24606 0 0 0 1.3296.56325 9.37383 9.37383 0 0 0 1.82573.15792 16.50133 16.50133 0 0 0 2.096-.13511 12.53641 12.53641 0 0 0 1.55551-.27109V430.16154h8.65491v7.03184a5.49269 5.49269 0 0 0 .27022 1.89329 2.4312 2.4312 0 0 0 .81153 1.12737 3.24612 3.24612 0 0 0 1.3296.56325 9.37393 9.37393 0 0 0 1.82574.15792 16.51321 16.51321 0 0 0 2.09639-.13511 12.54176 12.54176 0 0 0 1.55508-.27109V416.72867a5.495 5.495 0 0 0-.27066-1.89329A2.43489 2.43489 0 0 0 93.81785 413.708zM188.02519 473.83044a19.68355 19.68355 0 0 1-2.26615 1.03921 8.04962 8.04962 0 0 1-2.88951.45709 6.75612 6.75612 0 0 1-5.09314-1.95427 7.6822 7.6822 0 0 1-1.89154-5.57107 8.14654 8.14654 0 0 1 1.70466-5.5294 6.15834 6.15834 0 0 1 4.90606-1.95427 7.52493 7.52493 0 0 1 2.84805.49833 13.58665 13.58665 0 0 1 2.30739 1.2059 4.44494 4.44494 0 0 0 1.24757-1.24714 3.23539 3.23539 0 0 0 .54044-1.87091 3.6707 3.6707 0 0 0-2.0999-3.201 11.663 11.663 0 0 0-5.92465-1.248 14.55387 14.55387 0 0 0-5.07231.87339 11.73112 11.73112 0 0 0-4.13707 2.57805 12.14024 12.14024 0 0 0-2.78576 4.17874 14.9198 14.9198 0 0 0-1.01836 5.71628 15.41657 15.41657 0 0 0 1.06 6.008 11.46685 11.46685 0 0 0 2.88972 4.15769 11.68023 11.68023 0 0 0 4.28227 2.43241 16.99865 16.99865 0 0 0 5.23878.79 11.05965 11.05965 0 0 0 5.75817-1.18484 3.40647 3.40647 0 0 0 1.892-2.8895 4.27577 4.27577 0 0 0-.39481-1.892A4.14324 4.14324 0 0 0 188.02519 473.83044zM178.52607 366.27972a44.424 44.424 0 0 0 15.59287 4.48406c13.05694 1.26336 39.516 3.4545 65.7512 3.4295l-.11668 2.93512h0l-.49285 12.3928.00483-.00044c-22.56637 2.15385-39.831 5.84392-39.60882 8.6299.24149 3.03032 21.06986 3.84141 46.52156 1.81258 25.45149-2.02884 45.88834-6.13038 45.64686-9.16026-.21956-2.75176-17.4208-3.673-39.643-2.299l-.45511-11.551h0l-.11559-2.93162-.0068.00044c17.67654-.51982 34.295-2.29423 45.50341-6.32909a238.28546 238.28546 0 0 0 52.88991-26.79074 8.66381 8.66381 0 0 0 2.5616-11.54222l-10.68879-18.17092s8.07192 3.669 2.93534-4.4029c-4.00964-6.30058-20.53687-21.5434-28.64476-38.74794-.08181-.17371-.15595-.34874-.23622-.52289-.21912-.47639-.436-.95322-.64155-1.43225-.11187-.26013-.21517-.52245-.32264-.78346-.13862-.33645-.27505-.67291-.40621-1.01025a9.67107 9.67107 0 0 0 .89861-2.26571s-.73367-2.93557 2.93534-2.20168c0 0 6.60436 6.60458 8.80581.73389s4.40291-5.13679-9.5397-18.34551c-8.83344-8.36846-20.01815-21.45-27.59262-34.392h0q-.80079-1.36865-1.5452-2.7329l-.04694-.0851c-.21473-.3948-.424-.78829-.631-1.18221q-.11516-.21846-.22811-.43691c-.19609-.3777-.39064-.75539-.57926-1.13176-.04277-.086-.08335-.17109-.1259-.25663q-.3267-.65733-.63782-1.312c.04321.0329.08795.06668.12655.09651a5.046 5.046 0 0 0 1.26709.71415c1.54346.58518 4.85649 1.28485 6.51115-2.5763 2.20145-5.13635 2.93534-5.13635 5.87046-5.13635H328.115s5.87069 0 0-8.80581c-3.93857-5.908-24.7222-21.39557-38.197-41.36415l.002-.00131-.00241.00087a77.57383 77.57383 0 0 1-8.402-15.864h0q-.45633-1.21-.85584-2.43372c-.01228-.03729-.02391-.07458-.03619-.11186q-.787-2.42473-1.33552-4.89509c-.01009-.04606-.02062-.09212-.03049-.13774q-.26978-1.24165-.47508-2.493h0c3.76465 2.95048 11.53608 8.25309 12.642 2.72412a2.58975 2.58975 0 0 0-.73389-2.93556l-.04321-.04343a1.1709 1.1709 0 0 1 1.14163-1.93013c1.35505.32022 3.54049.97822 4.03837 1.97356.73368 1.46778 8.80581 2.20167 6.60414-4.4029-2.20123-6.60414-32.28768-24.21576-39.62592-44.76251 0 0-.49789-1.491-1.29824-3.29351l2.00186.99051a3.44932 3.44932 0 0 0 4.914-3.75806l-1.22322-6.2111a4.89705 4.89705 0 0 1 1.30109-4.36825l4.42308-4.5288a3.44962 3.44962 0 0 0-2.05582-5.83515l-6.28522-.75583a4.89749 4.89749 0 0 1-3.75214-2.58726l-2.94039-5.60617a3.4495 3.4495 0 0 0-6.18477.15222l-2.661 5.74391a4.89654 4.89654 0 0 1-3.62032 2.76887l-6.24049 1.06421a3.44955 3.44955 0 0 0-1.76629 5.929l4.64066 4.306a4.89667 4.89667 0 0 1 1.5145 4.2985l-.91616 6.26373a3.44967 3.44967 0 0 0 5.09293 3.51241l1.4294-.79706c-.45928.90541-.932 1.92268-1.41668 3.07857-3.91554 9.33748-22.63831 30.3764-30.73764 39.23617l-.002.00088.00154-.00044c-.89883.98305-1.67264 1.8231-2.27493 2.47364a14.26221 14.26221 0 0 0-3.12265 5.19514c-.73587 2.23063-.96814 4.78367 1.45791 5.41535a4.35538 4.35538 0 0 0 2.15934-.0443 19.55642 19.55642 0 0 0 7.20182-3.47776c2.7136-2.171 6.23017 2.48242 7.87759 5.05257.05483.08554.11625.16626.17371.2496-.05264.37989-.12239.77952-.20354 1.19143-.01075.05483-.02084.10922-.03224.16493-.086.42112-.186.85716-.304 1.3125l-.01689.0636c-.25267.96551-.57816 2.00691-.99095 3.13165-3.70169 10.09023-14.40715 26.88373-41.36 54.51057 0 0-2.65372 2.6535-1.69414 5.78076a5.16486 5.16486 0 0 0 5.21993 3.49442c2.65-.10966 6.97656.5808 7.48147 6.13477.38295 4.21252 5.46141 3.32685 10.23126 1.51866l-.01557.0465c-.02589.07458-.05045.14783-.07787.22372q-.14114.39151-.30772.80935l-.02172.05614q-.18588.46126-.406.95718c-.0272.06141-.05835.12677-.08642.1895q-.17766.39414-.37682.81022c-.04891.10221-.10089.20705-.152.31145q-.18555.37836-.38975.77513c-.05812.11318-.11647.22635-.177.34216-.15112.28733-.3108.58343-.4764.88523-.0511.093-.09892.18293-.15134.27724-.22635.40664-.46389.82382-.71766 1.25634-5.47917 9.34055-17.4776 24.76717-42.09825 50.24629 0 0-8.07192 14.67649 11.00726 8.80581 0 0 7.33825-5.1368 8.07214 1.46778a5.12812 5.12812 0 0 0 .85979 2.37056c-.3834.52113-.77359 1.05192-1.1776 1.60069l-.00944.01272q-.456.61984-.92844 1.26117c-8.14561 11.05574-19.55754 26.40822-24.06112 31.8126-7.338 8.80581-4.40291 13.20872 2.93534 10.27316 0 0-21.28063 32.28811-15.41017 38.89225 3.96248 4.45818 15.28076 7.24415 22.219 8.58428a44.90843 44.90843 0 0 1 11.57314 3.909zm83.51548 22.98661c.11317-.01009.22591-.02062.33953-.03027C262.26746 389.24571 262.15494 389.25624 262.04155 389.26633zm6.40081-.51149q.34512-.025.68849-.04869Q268.78705 388.72984 268.44236 388.75484zm-2.809-14.605c.08071-.00132.16186-.00263.2428-.00351C265.79522 374.14722 265.71429 374.14853 265.63336 374.14985zM114.00335 422.03a8.79947 8.79947 0 0 0-3.02746-1.33355 16.32858 16.32858 0 0 0-3.92344-.4391 23.731 23.731 0 0 0-2.96759.19915 12.033 12.033 0 0 0-2.72873.63739 3.87324 3.87324 0 0 0-1.5338 1.05587 2.55852 2.55852 0 0 0-.49767 1.65334 3.46565 3.46565 0 0 0 .35818 1.53314 2.7512 2.7512 0 0 0 .87645 1.09579 15.79082 15.79082 0 0 1 2.58946-.79706 13.60553 13.60553 0 0 1 2.94784-.31847 6.83972 6.83972 0 0 1 2.92745.49789 1.70917 1.70917 0 0 1 1.01573 1.65377v.27812l-5.21838.55842a8.80741 8.80741 0 0 0-5.05872 1.83188 5.39222 5.39222 0 0 0-1.63316 4.22261 6.01529 6.01529 0 0 0 .65713 2.868 5.48376 5.48376 0 0 0 1.87245 2.03146 9.02246 9.02246 0 0 0 2.90793 1.1945 16.67861 16.67861 0 0 0 3.80412.39874 14.23293 14.23293 0 0 0 7.28912-1.55376 5.75233 5.75233 0 0 0 1.37434-1.13483 2.47163 2.47163 0 0 0 .57773-1.69282v-8.92337a7.26589 7.26589 0 0 0-.6773-3.24614A6.02688 6.02688 0 0 0 114.00335 422.03zm-3.92366 13.364a3.63 3.63 0 0 1-1.21489.379 8.93132 8.93132 0 0 1-1.49366.13906 3.38272 3.38272 0 0 1-2.09157-.497 1.5843 1.5843 0 0 1-.61742-1.29538 1.28826 1.28826 0 0 1 .71722-1.19493 4.42806 4.42806 0 0 1 1.83231-.47771l2.868-.23952zM138.00329 421.05437a4.34792 4.34792 0 0 0-2.34994-.59791 7.31237 7.31237 0 0 0-1.65356.19916 6.34989 6.34989 0 0 0-1.53358.55842q-.67741 3.46437-1.51341 7.05026-.83664 3.58545-1.59324 6.53308h-.19915q-.19971-.79684-.59747-2.25037-.39908-1.45417-.83653-3.247l-1.554-6.09485a3.58957 3.58957 0 0 0-1.33421-2.17052 4.1634 4.1634 0 0 0-2.29028-.57817 4.98338 4.98338 0 0 0-2.05165.41849 4.93336 4.93336 0 0 0-1.49366.97647q.27833 1.19428.71722 2.74869.4379 1.55223.97581 3.226.53791 1.674 1.13506 3.38608.59779 1.71277 1.15523 3.20622.55765 1.495 1.05565 2.70921.49745 1.21533.85628 1.892a2.62282 2.62282 0 0 0 1.5735 1.27477 8.15016 8.15016 0 0 0 2.689.39875 9.73884 9.73884 0 0 0 2.42978-.27943 4.48475 4.48475 0 0 0 1.63316-.71723q.478-.91527 1.09513-2.3302.61754-1.41273 1.255-3.04742.63662-1.6325 1.25481-3.34572.61687-1.71278 1.07539-3.24657.45764-1.53249.7567-2.74869a8.44569 8.44569 0 0 0 .29895-1.85162A2.24905 2.24905 0 0 0 138.00329 421.05437zM157.74135 422.64761a9.24684 9.24684 0 0 0-2.98777-1.752 11.06016 11.06016 0 0 0-3.844-.63826 11.88772 11.88772 0 0 0-3.66463.57816 8.74905 8.74905 0 0 0-5.43684 4.899 10.89229 10.89229 0 0 0-.85694 4.52178 11.71191 11.71191 0 0 0 .85694 4.6604 9.11611 9.11611 0 0 0 2.34994 3.3058 9.88782 9.88782 0 0 0 3.50517 1.97225 13.97867 13.97867 0 0 0 4.36211.65712 20.21629 20.21629 0 0 0 2.98733-.23907 8.86537 8.86537 0 0 0 2.868-.91638 2.92245 2.92245 0 0 0 1.23463-4.18181 3.34542 3.34542 0 0 0-1.07539-1.116 9.76447 9.76447 0 0 1-2.37012.97559 11.09694 11.09694 0 0 1-3.08712.41849 7.02886 7.02886 0 0 1-3.10708-.65712 3.30785 3.30785 0 0 1-1.79262-1.97225l9.83909-1.47392a3.78434 3.78434 0 0 0 2.11109-.9155 2.71865 2.71865 0 0 0 .75736-2.07183 8.18275 8.18275 0 0 0-.69748-3.38563A7.81663 7.81663 0 0 0 157.74135 422.64761zM147.205 428.70209a4.58816 4.58816 0 0 1 .259-1.25459 3.38179 3.38179 0 0 1 .65734-1.11509 3.3442 3.3442 0 0 1 1.13527-.8168 3.948 3.948 0 0 1 1.6529-.31847 2.9361 2.9361 0 0 1 2.23106.79706 3.01107 3.01107 0 0 1 .876 1.59324zM177.35877 428.30466a8.80675 8.80675 0 0 0-5.05871 1.83188 5.39222 5.39222 0 0 0-1.63316 4.22261 6.01785 6.01785 0 0 0 .65713 2.868 5.4855 5.4855 0 0 0 1.87245 2.03146 9.02034 9.02034 0 0 0 2.90792 1.1945 16.67739 16.67739 0 0 0 3.80413.39874 14.23348 14.23348 0 0 0 7.28912-1.55376 5.75233 5.75233 0 0 0 1.37434-1.13483 2.4715 2.4715 0 0 0 .57751-1.69282v-8.92337a7.26576 7.26576 0 0 0-.67709-3.24614 6.0248 6.0248 0 0 0-1.93167-2.271 8.80212 8.80212 0 0 0-3.02724-1.33355 16.33176 16.33176 0 0 0-3.92366-.4391 23.731 23.731 0 0 0-2.96759.19915 12.033 12.033 0 0 0-2.72873.63739 3.86908 3.86908 0 0 0-1.53358 1.05587 2.55606 2.55606 0 0 0-.49789 1.65334 3.46279 3.46279 0 0 0 .35817 1.53314 2.74794 2.74794 0 0 0 .87668 1.09579 15.79185 15.79185 0 0 1 2.589-.79706 13.61 13.61 0 0 1 2.94784-.31847 6.84085 6.84085 0 0 1 2.92767.49789 1.70917 1.70917 0 0 1 1.01573 1.65377v.27812zm5.25831 3.90282V435.394a3.63 3.63 0 0 1-1.21489.379 8.93132 8.93132 0 0 1-1.49366.13906 3.3827 3.3827 0 0 1-2.09157-.497 1.58447 1.58447 0 0 1-.61764-1.29538 1.28864 1.28864 0 0 1 .71722-1.19493 4.43023 4.43023 0 0 1 1.83275-.47771zM211.65511 427.54708a2.23384 2.23384 0 0 0 1.6529-.61676 2.76449 2.76449 0 0 0 .6172-2.01173 4.59211 4.59211 0 0 0-.21911-1.45419 6.86609 6.86609 0 0 0-.45775-1.09579H208.03v-2.54953q0-1.99045-.97581-2.60832a5.09472 5.09472 0 0 0-2.72873-.61764 10.382 10.382 0 0 0-1.733.13906q-.81625.1408-1.25437.25969v17.04881q0 3.58413 1.89175 5.17846a8.16063 8.16063 0 0 0 5.39737 1.59324q2.86822 0 4.00372-.95629a3.07956 3.07956 0 0 0 1.13483-2.47014 2.97218 2.97218 0 0 0-.25838-1.2945 4.93089 4.93089 0 0 0-.61764-.9756 6.901 6.901 0 0 1-1.11531.25837 7.9127 7.9127 0 0 1-1.23507.09958 3.32286 3.32286 0 0 1-1.85227-.43779 1.63791 1.63791 0 0 1-.65713-1.47392v-6.015zM229.65978 421.03463a5.42977 5.42977 0 0 0-3.02769-.737 14.95031 14.95031 0 0 0-2.31.17942 17.06386 17.06386 0 0 0-2.23062.49745 16.42485 16.42485 0 0 0-2.01151.737 7.03922 7.03922 0 0 0-1.57372.93612 3.68924 3.68924 0 0 0-.9756 1.17519 3.39094 3.39094 0 0 0-.33887 1.5735v11.95017a4.22032 4.22032 0 0 0 .25881 1.613 2.2959 2.2959 0 0 0 .737.9756 2.67094 2.67094 0 0 0 1.17519.47859 9.34464 9.34464 0 0 0 1.5735.11931 12.79085 12.79085 0 0 0 1.77221-.11931 9.38858 9.38858 0 0 0 1.255-.23864V426.59079a7.0096 7.0096 0 0 1 1.25481-.41805q.73664-.179 1.57328-.33822.83664-.15792 1.713-.23907.87581-.079 1.71278-.07984a5.02889 5.02889 0 0 0 .39853-.97559 3.84961 3.84961 0 0 0 .15924-1.09536A2.67481 2.67481 0 0 0 229.65978 421.03463zM248.89929 439.69641a2.92195 2.92195 0 0 0 1.23463-4.18181 3.34542 3.34542 0 0 0-1.07539-1.116 9.76108 9.76108 0 0 1-2.37012.97559 11.09588 11.09588 0 0 1-3.08713.41849 7.02959 7.02959 0 0 1-3.10708-.65712 3.30683 3.30683 0 0 1-1.79239-1.97225l9.83887-1.47392a3.78575 3.78575 0 0 0 2.11131-.9155 2.71941 2.71941 0 0 0 .75714-2.07183 8.18275 8.18275 0 0 0-.69749-3.38563 7.81362 7.81362 0 0 0-1.95163-2.66885 9.24679 9.24679 0 0 0-2.98776-1.752 11.06016 11.06016 0 0 0-3.844-.63826 11.88979 11.88979 0 0 0-3.66463.57816 8.74905 8.74905 0 0 0-5.43684 4.899 10.89213 10.89213 0 0 0-.85694 4.52178 11.71174 11.71174 0 0 0 .85694 4.6604 9.11588 9.11588 0 0 0 2.34994 3.3058 9.88862 9.88862 0 0 0 3.50539 1.97225 13.97622 13.97622 0 0 0 4.36189.65712 20.21616 20.21616 0 0 0 2.98732-.23907A8.86543 8.86543 0 0 0 248.89929 439.69641zm-10.67563-10.99432a4.58851 4.58851 0 0 1 .259-1.25459 3.37864 3.37864 0 0 1 .65757-1.11509 3.34109 3.34109 0 0 1 1.135-.8168 3.948 3.948 0 0 1 1.6529-.31847 2.9358 2.9358 0 0 1 2.23106.79706 3.01107 3.01107 0 0 1 .876 1.59324zM267.9 440.61279a8.86716 8.86716 0 0 0 2.868-.91638 2.92245 2.92245 0 0 0 1.23463-4.18181 3.34535 3.34535 0 0 0-1.0754-1.116 9.76819 9.76819 0 0 1-2.37012.97559 11.09689 11.09689 0 0 1-3.08712.41849 7.02889 7.02889 0 0 1-3.10708-.65712 3.30717 3.30717 0 0 1-1.79261-1.97225l9.83887-1.47392a3.78429 3.78429 0 0 0 2.1113-.9155 2.71855 2.71855 0 0 0 .75714-2.07183 8.17925 8.17925 0 0 0-.69748-3.38563 7.81015 7.81015 0 0 0-1.95141-2.66885 9.24912 9.24912 0 0 0-2.98776-1.752 11.06106 11.06106 0 0 0-3.844-.63826 11.8877 11.8877 0 0 0-3.66462.57816 8.74874 8.74874 0 0 0-5.43707 4.899 10.8959 10.8959 0 0 0-.85671 4.52178 11.71584 11.71584 0 0 0 .85671 4.6604 9.11921 9.11921 0 0 0 2.35016 3.3058 9.88778 9.88778 0 0 0 3.50518 1.97225 13.97863 13.97863 0 0 0 4.36211.65712A20.21847 20.21847 0 0 0 267.9 440.61279zm-7.80762-11.9107a4.58851 4.58851 0 0 1 .259-1.25459 3.27453 3.27453 0 0 1 1.7924-1.93189 3.94974 3.94974 0 0 1 1.65311-.31847 2.93581 2.93581 0 0 1 2.23107.79706 3.01107 3.01107 0 0 1 .876 1.59324zM282.06014 440.41364a9.39109 9.39109 0 0 0 1.2548-.23864V426.19335a9.32464 9.32464 0 0 1 .87668-.41848 3.16223 3.16223 0 0 1 1.23463-.2189 2.9204 2.9204 0 0 1 1.77244.53781 1.99884 1.99884 0 0 1 .737 1.73229v9.5204a4.22032 4.22032 0 0 0 .25881 1.613 2.29247 2.29247 0 0 0 .737.9756 2.67111 2.67111 0 0 0 1.175.47859 9.353 9.353 0 0 0 1.57372.11931 12.51086 12.51086 0 0 0 1.73274-.11931 11.37258 11.37258 0 0 0 1.29451-.23864V426.65132a1.27059 1.27059 0 0 0-.03948-.29917 3.45651 3.45651 0 0 1 .95585-.5378 3.19186 3.19186 0 0 1 1.19471-.25838 2.86446 2.86446 0 0 1 1.83254.53781 2.07878 2.07878 0 0 1 .6773 1.73229v9.5204a4.21646 4.21646 0 0 0 .25859 1.613 2.29247 2.29247 0 0 0 .737.9756 2.66977 2.66977 0 0 0 1.17541.47859 9.34116 9.34116 0 0 0 1.57307.11931 12.80512 12.80512 0 0 0 1.77287-.11931 9.3885 9.3885 0 0 0 1.25437-.23864V427.62692a7.93161 7.93161 0 0 0-.67686-3.44529 6.07269 6.07269 0 0 0-1.81258-2.271 7.59775 7.59775 0 0 0-2.58879-1.255 11.21386 11.21386 0 0 0-2.968-.39831 11.08524 11.08524 0 0 0-3.605.51806 11.80783 11.80783 0 0 0-2.68837 1.31469 7.89361 7.89361 0 0 0-2.72895-1.37391 11.40337 11.40337 0 0 0-3.20666-.45884 14.66565 14.66565 0 0 0-4.20243.5979 11.4636 11.4636 0 0 0-3.3659 1.55376 5.20078 5.20078 0 0 0-1.25459 1.19449 2.87921 2.87921 0 0 0-.45819 1.713v12.03a4.21547 4.21547 0 0 0 .259 1.613 2.29239 2.29239 0 0 0 .737.9756 2.67 2.67 0 0 0 1.175.47859 9.34658 9.34658 0 0 0 1.5735.11931A12.79653 12.79653 0 0 0 282.06014 440.41364zM316.11762 440.19474a13.97763 13.97763 0 0 0 4.36211.65712 20.21847 20.21847 0 0 0 2.98732-.23907 8.86241 8.86241 0 0 0 2.86779-.91638 2.92234 2.92234 0 0 0 1.23485-4.18181 3.34535 3.34535 0 0 0-1.0754-1.116 9.76644 9.76644 0 0 1-2.37034.97559 11.09419 11.09419 0 0 1-3.0869.41849 7.02889 7.02889 0 0 1-3.10708-.65712 3.30783 3.30783 0 0 1-1.79261-1.97225l9.83909-1.47392a3.78428 3.78428 0 0 0 2.11108-.9155 2.71947 2.71947 0 0 0 .75736-2.07183 8.18625 8.18625 0 0 0-.69748-3.38563 7.8165 7.8165 0 0 0-1.95163-2.66885 9.24912 9.24912 0 0 0-2.98776-1.752 11.06018 11.06018 0 0 0-3.844-.63826 11.8877 11.8877 0 0 0-3.66462.57816 8.7491 8.7491 0 0 0-5.43685 4.899 10.8923 10.8923 0 0 0-.85693 4.52178 11.71192 11.71192 0 0 0 .85693 4.6604 9.11611 9.11611 0 0 0 2.34994 3.3058A9.88778 9.88778 0 0 0 316.11762 440.19474zm-.19938-12.74724a3.38617 3.38617 0 0 1 .65756-1.11509 3.34434 3.34434 0 0 1 1.13528-.8168 3.94727 3.94727 0 0 1 1.65289-.31847 2.93614 2.93614 0 0 1 2.23107.79706 3.01107 3.01107 0 0 1 .876 1.59324l-6.81163 1.11465A4.5963 4.5963 0 0 1 315.91824 427.4475zM337.62767 440.41364a9.3837 9.3837 0 0 0 1.25481-.23864V426.35215a3.99741 3.99741 0 0 1 1.33443-.5979 6.32079 6.32079 0 0 1 1.5735-.19828 2.87787 2.87787 0 0 1 1.89219.57729 2.223 2.223 0 0 1 .697 1.81213v9.40108a4.21547 4.21547 0 0 0 .259 1.613 2.29239 2.29239 0 0 0 .737.9756 2.67 2.67 0 0 0 1.175.47859 9.34834 9.34834 0 0 0 1.5735.11931 12.79871 12.79871 0 0 0 1.77243-.11931 9.42021 9.42021 0 0 0 1.25481-.23864V427.70676a6.6649 6.6649 0 0 0-2.42978-5.4772q-2.43033-1.97138-6.93116-1.97225a16.26409 16.26409 0 0 0-4.56083.5979 11.40547 11.40547 0 0 0-3.406 1.55376 4.84155 4.84155 0 0 0-1.25459 1.234 3.07132 3.07132 0 0 0-.45819 1.75336v11.95017a4.21547 4.21547 0 0 0 .259 1.613 2.29239 2.29239 0 0 0 .737.9756 2.67111 2.67111 0 0 0 1.175.47859 9.34649 9.34649 0 0 0 1.5735.11931A12.79406 12.79406 0 0 0 337.62767 440.41364zM373.49751 414.48181a2.68855 2.68855 0 0 0-1.175-.47815 9.445 9.445 0 0 0-1.5735-.11975 11.3828 11.3828 0 0 0-1.79262.14037 10.81208 10.81208 0 0 0-1.27454.25838v6.45323a6.19335 6.19335 0 0 0-1.23485-.33865 8.55674 8.55674 0 0 0-1.55332-.13993 13.10152 13.10152 0 0 0-4.0829.61764 9.086 9.086 0 0 0-3.30646 1.892 8.73081 8.73081 0 0 0-2.21088 3.20666 11.9175 11.9175 0 0 0-.79662 4.5617 11.7163 11.7163 0 0 0 .737 4.28184 8.90224 8.90224 0 0 0 2.15123 3.24657 9.42538 9.42538 0 0 0 3.46525 2.07095 15.541 15.541 0 0 0 8.86327.13994 12.15855 12.15855 0 0 0 2.98733-1.33487 3.39915 3.39915 0 0 0 1.7527-2.98732V417.07083a4.54349 4.54349 0 0 0-.23886-1.613A2.16018 2.16018 0 0 0 373.49751 414.48181zm-5.77572 20.31557a2.9464 2.9464 0 0 1-.89641.49788 3.62467 3.62467 0 0 1-1.29429.21934 3.86732 3.86732 0 0 1-3.10708-1.255 5.59029 5.59029 0 0 1-1.07561-3.72429 5.3119 5.3119 0 0 1 1.15545-3.7449 4.30811 4.30811 0 0 1 3.30579-1.23441 3.64972 3.64972 0 0 1 1.91215.47771zM395.82437 423.06609a9.645 9.645 0 0 0-3.28628-2.07182 11.77582 11.77582 0 0 0-4.26231-.737 12.06322 12.06322 0 0 0-4.26188.71722 9.38325 9.38325 0 0 0-3.28649 2.05208 9.13691 9.13691 0 0 0-2.13083 3.2457 12.4883 12.4883 0 0 0 0 8.56455 9.14421 9.14421 0 0 0 2.13083 3.24657 9.36864 9.36864 0 0 0 3.28649 2.05121 12.05333 12.05333 0 0 0 4.26188.71722 12.713 12.713 0 0 0 4.26231-.67686 9.06472 9.06472 0 0 0 3.28628-1.992 8.91445 8.91445 0 0 0 2.131-3.24658 11.999 11.999 0 0 0 .75714-4.40115 11.38407 11.38407 0 0 0-.75714-4.22261A9.15771 9.15771 0 0 0 395.82437 423.06609zm-4.93918 11.17374a2.92384 2.92384 0 0 1-2.56949 1.31425 3.03735 3.03735 0 0 1-2.609-1.29451 7.87154 7.87154 0 0 1-.01974-7.40909 3.23626 3.23626 0 0 1 5.178 0 6.32314 6.32314 0 0 1 .91638 3.6848A6.53023 6.53023 0 0 1 390.88519 434.23983zM420.06315 421.37328a2.6713 2.6713 0 0 0-1.175-.47771 9.35259 9.35259 0 0 0-1.5735-.1202 12.78139 12.78139 0 0 0-1.77243.1202 9.07271 9.07271 0 0 0-1.25481.23863v13.94129a5.03532 5.03532 0 0 1-.89642.31847 5.70793 5.70793 0 0 1-1.49366.16012 3.40638 3.40638 0 0 1-2.31046-.69748 2.95685 2.95685 0 0 1-.79662-2.33064v-8.56411a4.23019 4.23019 0 0 0-.259-1.613 2.30109 2.30109 0 0 0-.737-.97559 2.67238 2.67238 0 0 0-1.175-.47771 9.35259 9.35259 0 0 0-1.5735-.1202 12.779 12.779 0 0 0-1.77243.1202 9.07953 9.07953 0 0 0-1.25481.23863V432.526a9.12564 9.12564 0 0 0 .71722 3.80456 6.58118 6.58118 0 0 0 2.03125 2.56971 8.8736 8.8736 0 0 0 3.127 1.47393 15.50484 15.50484 0 0 0 3.96336.4777 18.25313 18.25313 0 0 0 4.20243-.458 10.95081 10.95081 0 0 0 3.326-1.33487 3.254 3.254 0 0 0 1.6733-2.98732V423.96185a4.23019 4.23019 0 0 0-.259-1.613A2.30109 2.30109 0 0 0 420.06315 421.37328zM439.91922 430.47519a11.76479 11.76479 0 0 0-5.43729-2.41048l-1.23463-.27812a4.57423 4.57423 0 0 1-1.5134-.51762.8428.8428 0 0 1-.39875-.71766.99072.99072 0 0 1 .71722-.93612 5.46244 5.46244 0 0 1 2.03147-.29873 9.47 9.47 0 0 1 1.41427.11932q.7761.11974 1.53358.29873.75572.179 1.39386.39875a4.96155 4.96155 0 0 1 .95608.418 3.53677 3.53677 0 0 0 .85628-1.09492 3.4002 3.4002 0 0 0 .33887-1.5735 2.568 2.568 0 0 0-.55777-1.65333 4.08154 4.08154 0 0 0-1.51384-1.13571 9.09594 9.09594 0 0 0-2.25036-.65713 16.6537 16.6537 0 0 0-2.76843-.21889 13.62547 13.62547 0 0 0-3.56549.43779 9.004 9.004 0 0 0-2.76821 1.23528 5.49855 5.49855 0 0 0-2.43 4.66041 5.18535 5.18535 0 0 0 1.693 4.16251 11.17832 11.17832 0 0 0 5.15872 2.13105l1.19472.23951a4.43455 4.43455 0 0 1 1.59324.51807.99972.99972 0 0 1 .47814.876 1.073 1.073 0 0 1-.65712.95585 4.02433 4.02433 0 0 1-1.89219.35839 10.88627 10.88627 0 0 1-3.44552-.49745A15.86393 15.86393 0 0 1 426.1966 434.16a4.01943 4.01943 0 0 0-.95585 1.09492 3.05506 3.05506 0 0 0-.39853 1.613 2.86912 2.86912 0 0 0 .5775 1.79283 4.38506 4.38506 0 0 0 1.59324 1.25459 8.8755 8.8755 0 0 0 2.45018.737 18.84013 18.84013 0 0 0 3.10686.23907q4.42178 0 6.69231-1.713a5.60445 5.60445 0 0 0 2.27054-4.74024A5.22491 5.22491 0 0 0 439.91922 430.47519zM204.06682 460.87089a9.81189 9.81189 0 0 0-2.3302.25969 14.16956 14.16956 0 0 0-1.57306.45753v-3.9037a4.24031 4.24031 0 0 0-.25882-1.613 2.30331 2.30331 0 0 0-.737-.976 2.69265 2.69265 0 0 0-1.17519-.47815 9.4534 9.4534 0 0 0-1.5735-.11932 10.75591 10.75591 0 0 0-1.733.13994q-.85706.13948-1.29429.21889v23.1033a4.20724 4.20724 0 0 0 .259 1.613 2.29339 2.29339 0 0 0 .73631.976 2.67526 2.67526 0 0 0 1.17562.47815 9.29506 9.29506 0 0 0 1.57307.11976 12.73492 12.73492 0 0 0 1.77287-.11976 9.42057 9.42057 0 0 0 1.25481-.23863V466.84642a4.36284 4.36284 0 0 1 1.15479-.47815 5.64219 5.64219 0 0 1 1.51384-.19828 3.10831 3.10831 0 0 1 2.01173.65669 2.791 2.791 0 0 1 .81636 2.28984v8.84354a4.21572 4.21572 0 0 0 .259 1.613 2.29646 2.29646 0 0 0 .737.976 2.6737 2.6737 0 0 0 1.175.47815 9.30036 9.30036 0 0 0 1.5735.11976 12.73723 12.73723 0 0 0 1.77287-.11976 9.39615 9.39615 0 0 0 1.25437-.23863v-12.0695a7.46864 7.46864 0 0 0-2.21045-5.87595A8.92707 8.92707 0 0 0 204.06682 460.87089zM229.08227 461.64821a5.43342 5.43342 0 0 0-3.02768-.737 14.89853 14.89853 0 0 0-2.31024.17985 17.00188 17.00188 0 0 0-2.23063.497 16.51358 16.51358 0 0 0-2.01151.737 7.03885 7.03885 0 0 0-1.5735.93656 3.68851 3.68851 0 0 0-.97581 1.17475 3.3921 3.3921 0 0 0-.33887 1.5735v11.95018a4.21552 4.21552 0 0 0 .259 1.613 2.29646 2.29646 0 0 0 .737.976 2.67579 2.67579 0 0 0 1.175.47815 9.29677 9.29677 0 0 0 1.5735.11976 12.72408 12.72408 0 0 0 1.77244-.11976 9.38416 9.38416 0 0 0 1.2548-.23863V467.20481a7.041 7.041 0 0 1 1.255-.41849q.73663-.179 1.57306-.33821.837-.15792 1.713-.23864.87581-.079 1.71278-.08027a4.99182 4.99182 0 0 0 .39853-.9756 3.84675 3.84675 0 0 0 .15945-1.09491A2.67514 2.67514 0 0 0 229.08227 461.64821zM236.53084 452.50594a3.6 3.6 0 0 0-2.689 1.0357 3.70763 3.70763 0 0 0 0 5.09863 4.00715 4.00715 0 0 0 5.37784 0 3.707 3.707 0 0 0 0-5.09863A3.6002 3.6002 0 0 0 236.53084 452.50594zM238.9207 461.98686a2.6777 2.6777 0 0 0-1.175-.47771 9.35456 9.35456 0 0 0-1.57372-.12019 10.755 10.755 0 0 0-1.73229.13993q-.85738.1395-1.29495.21934v16.21183a4.21572 4.21572 0 0 0 .259 1.613 2.29821 2.29821 0 0 0 .737.976 2.67589 2.67589 0 0 0 1.175.47815 9.30044 9.30044 0 0 0 1.5735.11976 10.8713 10.8713 0 0 0 1.733-.1395q.85607-.14081 1.29451-.21889V464.57544a4.236 4.236 0 0 0-.259-1.613A2.30573 2.30573 0 0 0 238.9207 461.98686zM253.4996 468.67873l-1.23463-.27855a4.57417 4.57417 0 0 1-1.51341-.51763.84234.84234 0 0 1-.39853-.71722.99121.99121 0 0 1 .71723-.93655 5.46083 5.46083 0 0 1 2.03124-.29874 9.46989 9.46989 0 0 1 1.41427.11932q.77611.11976 1.53358.29917.75572.179 1.39409.39831a4.97665 4.97665 0 0 1 .95585.41849 3.54351 3.54351 0 0 0 .85628-1.09535 3.399 3.399 0 0 0 .33909-1.5735 2.56782 2.56782 0 0 0-.558-1.65334 4.078 4.078 0 0 0-1.51385-1.13571 9.07758 9.07758 0 0 0-2.25036-.65668 16.60142 16.60142 0 0 0-2.76843-.21934 13.605 13.605 0 0 0-3.56527.43823 8.99069 8.99069 0 0 0-2.76821 1.23485 5.49724 5.49724 0 0 0-2.43 4.66084 5.18435 5.18435 0 0 0 1.693 4.16208 11.167 11.167 0 0 0 5.15873 2.131l1.19449.23995a4.43021 4.43021 0 0 1 1.59346.51763 1.00006 1.00006 0 0 1 .47793.876 1.07366 1.07366 0 0 1-.65713.9563 4.03053 4.03053 0 0 1-1.89219.35795 10.90146 10.90146 0 0 1-3.44551-.497 15.86111 15.86111 0 0 1-2.6489-1.13571 4.02363 4.02363 0 0 0-.95607 1.09491 3.05776 3.05776 0 0 0-.39853 1.61342 2.868 2.868 0 0 0 .57772 1.7924 4.38417 4.38417 0 0 0 1.59324 1.255 8.888 8.888 0 0 0 2.45018.737 18.88736 18.88736 0 0 0 3.10664.23863q4.42177 0 6.69231-1.71256a5.60577 5.60577 0 0 0 2.27055-4.74068 5.22556 5.22556 0 0 0-1.61342-3.96292A11.76616 11.76616 0 0 0 253.4996 468.67873zM274.21347 468.16067a2.23379 2.23379 0 0 0 1.6529-.61677 2.764 2.764 0 0 0 .61721-2.01129 4.58814 4.58814 0 0 0-.21912-1.45418 6.87265 6.87265 0 0 0-.45775-1.09623h-5.21839v-2.5491q0-1.99112-.97581-2.60875a5.09877 5.09877 0 0 0-2.72873-.61765 10.38113 10.38113 0 0 0-1.733.13906c-.54417.09431-.96243.17985-1.25437.25969v17.04881q0 3.58413 1.89176 5.17847a8.1602 8.1602 0 0 0 5.39736 1.59324q2.86822 0 4.0035-.95586a3.0806 3.0806 0 0 0 1.135-2.47057 2.9702 2.9702 0 0 0-.25838-1.29407 4.93441 4.93441 0 0 0-.61764-.976 6.89836 6.89836 0 0 1-1.11531.25882 7.9665 7.9665 0 0 1-1.23507.09958 3.319 3.319 0 0 1-1.85227-.43823 1.63792 1.63792 0 0 1-.65713-1.47393v-6.015zM306.81633 462.52467a7.58759 7.58759 0 0 0-2.58879-1.255 12.04939 12.04939 0 0 0-6.57278.11932 11.81085 11.81085 0 0 0-2.68859 1.31512 7.88564 7.88564 0 0 0-2.72873-1.37434 11.422 11.422 0 0 0-3.20688-.45885 14.66414 14.66414 0 0 0-4.20221.59791 11.47576 11.47576 0 0 0-3.36612 1.55376 5.192 5.192 0 0 0-1.25437 1.19493 2.87683 2.87683 0 0 0-.45819 1.71255v12.03a4.22014 4.22014 0 0 0 .25882 1.613 2.29638 2.29638 0 0 0 .737.976 2.67579 2.67579 0 0 0 1.175.47815 9.29948 9.29948 0 0 0 1.57372.11976 12.721 12.721 0 0 0 1.77222-.11976 9.389 9.389 0 0 0 1.255-.23863V466.80694a9.21692 9.21692 0 0 1 .87646-.418 3.163 3.163 0 0 1 1.23463-.2189 2.923 2.923 0 0 1 1.77244.53737 1.99938 1.99938 0 0 1 .737 1.7323v9.5204a4.21572 4.21572 0 0 0 .259 1.613 2.29646 2.29646 0 0 0 .737.976 2.6747 2.6747 0 0 0 1.175.47815 9.30044 9.30044 0 0 0 1.5735.11976 12.44262 12.44262 0 0 0 1.733-.11976 11.37687 11.37687 0 0 0 1.29429-.23863V467.26491a1.27338 1.27338 0 0 0-.03948-.29917 3.45078 3.45078 0 0 1 .95607-.53737 3.19186 3.19186 0 0 1 1.19471-.25838 2.867 2.867 0 0 1 1.83254.53737 2.08 2.08 0 0 1 .6773 1.7323v9.5204a4.22113 4.22113 0 0 0 .25837 1.613 2.29821 2.29821 0 0 0 .737.976 2.67553 2.67553 0 0 0 1.17541.47815 9.29589 9.29589 0 0 0 1.57328.11976 12.73727 12.73727 0 0 0 1.77288-.11976 9.39615 9.39615 0 0 0 1.25437-.23863V468.2405a7.93132 7.93132 0 0 0-.67687-3.44485A6.066 6.066 0 0 0 306.81633 462.52467zM328.36631 462.644a8.79033 8.79033 0 0 0-3.02725-1.334 16.33162 16.33162 0 0 0-3.92366-.43911 23.72752 23.72752 0 0 0-2.96736.19916 12.05586 12.05586 0 0 0-2.72895.63738 3.87079 3.87079 0 0 0-1.53358 1.05587 2.55734 2.55734 0 0 0-.49789 1.65334 3.46161 3.46161 0 0 0 .35839 1.53314 2.752 2.752 0 0 0 .87646 1.09623 15.70434 15.70434 0 0 1 2.58923-.79706 13.582 13.582 0 0 1 2.94785-.31891 6.83227 6.83227 0 0 1 2.92744.49833 1.70818 1.70818 0 0 1 1.01574 1.65334v.27811l-5.21839.55843a8.80592 8.80592 0 0 0-5.05849 1.83231 5.39062 5.39062 0 0 0-1.63338 4.22217 6.01659 6.01659 0 0 0 .65712 2.868 5.48569 5.48569 0 0 0 1.87245 2.03147A9.02223 9.02223 0 0 0 317.93 481.0667a16.65329 16.65329 0 0 0 3.80412.39875 14.23442 14.23442 0 0 0 7.28934-1.55376 5.76083 5.76083 0 0 0 1.37435-1.13483 2.47183 2.47183 0 0 0 .5775-1.69282v-8.92337a7.26248 7.26248 0 0 0-.6773-3.2457A6.02141 6.02141 0 0 0 328.36631 462.644zm-3.92344 13.364a3.64336 3.64336 0 0 1-1.21511.37857 8.93153 8.93153 0 0 1-1.49367.13906 3.38356 3.38356 0 0 1-2.09156-.497 1.58432 1.58432 0 0 1-.61743-1.29539 1.28865 1.28865 0 0 1 .71723-1.19493 4.42286 4.42286 0 0 1 1.83253-.47727l2.868-.23995zM344.39894 468.67873l-1.23463-.27855a4.57419 4.57419 0 0 1-1.5134-.51763.84257.84257 0 0 1-.39875-.71722.99121.99121 0 0 1 .71722-.93655 5.463 5.463 0 0 1 2.03147-.29874 9.47 9.47 0 0 1 1.41427.11932q.77612.11976 1.53358.29917.75572.179 1.39408.39831a4.98282 4.98282 0 0 1 .95586.41849 3.54351 3.54351 0 0 0 .85628-1.09535 3.399 3.399 0 0 0 .33909-1.5735 2.56782 2.56782 0 0 0-.558-1.65334 4.07806 4.07806 0 0 0-1.51384-1.13571 9.07758 9.07758 0 0 0-2.25036-.65668 16.60333 16.60333 0 0 0-2.76843-.21934 13.605 13.605 0 0 0-3.56527.43823 8.992 8.992 0 0 0-2.76843 1.23485 5.49769 5.49769 0 0 0-2.42978 4.66084 5.18491 5.18491 0 0 0 1.69282 4.16208 11.16914 11.16914 0 0 0 5.15873 2.131l1.19471.23995a4.43028 4.43028 0 0 1 1.59346.51763 1 1 0 0 1 .47792.876 1.074 1.074 0 0 1-.65712.9563 4.03053 4.03053 0 0 1-1.89219.35795 10.9005 10.9005 0 0 1-3.44551-.497 15.86075 15.86075 0 0 1-2.6489-1.13571 4.02363 4.02363 0 0 0-.95607 1.09491 3.05572 3.05572 0 0 0-.39853 1.61342 2.86922 2.86922 0 0 0 .5775 1.7924 4.38688 4.38688 0 0 0 1.59346 1.255 8.88793 8.88793 0 0 0 2.45018.737 18.88736 18.88736 0 0 0 3.10664.23863q4.42178 0 6.69231-1.71256a5.60577 5.60577 0 0 0 2.27055-4.74068 5.22556 5.22556 0 0 0-1.61342-3.96292A11.76615 11.76615 0 0 0 344.39894 468.67873z"/><path fill="#d64142" d="M94.89961 440.529a12.54176 12.54176 0 0 1-1.55508.27109 16.51321 16.51321 0 0 1-2.09639.13511 9.37393 9.37393 0 0 1-1.82574-.15792 3.24612 3.24612 0 0 1-1.3296-.56325 2.4312 2.4312 0 0 1-.81153-1.12737 5.49273 5.49273 0 0 1-.27022-1.89329v-7.03184H78.35614V440.529a12.53641 12.53641 0 0 1-1.55551.27109 16.50133 16.50133 0 0 1-2.096.13511 9.37383 9.37383 0 0 1-1.82573-.15792 3.24606 3.24606 0 0 1-1.3296-.56325 2.43122 2.43122 0 0 1-.81154-1.12737 5.49161 5.49161 0 0 1-.27065-1.89329V413.3921q.49546-.08949 1.57788-.24741a14.362 14.362 0 0 1 2.07358-.15792 9.38653 9.38653 0 0 1 1.82574.15792 3.24869 3.24869 0 0 1 1.3296.56325 2.43569 2.43569 0 0 1 .81153 1.12738 5.49471 5.49471 0 0 1 .27066 1.89329v7.21257h8.65491V413.3921q.49548-.08949 1.57745-.24741a14.36665 14.36665 0 0 1 2.07358-.15792 9.38331 9.38331 0 0 1 1.82573.15792 3.2531 3.2531 0 0 1 1.33.56325 2.43489 2.43489 0 0 1 .8111 1.12738 5.495 5.495 0 0 1 .27066 1.89329zM182.49563 460.31777a6.15886 6.15886 0 0 0-4.90619 1.95422 8.147 8.147 0 0 0-1.70458 5.52927 7.68315 7.68315 0 0 0 1.89151 5.57135 6.75649 6.75649 0 0 0 5.09311 1.95423 8.04682 8.04682 0 0 0 2.88966-.4572 19.71808 19.71808 0 0 0 2.26617-1.039 4.14038 4.14038 0 0 1 1.10173 1.39264 4.27628 4.27628 0 0 1 .39489 1.89191 3.40692 3.40692 0 0 1-1.89192 2.88966 11.06245 11.06245 0 0 1-5.75827 1.18467 17.01119 17.01119 0 0 1-5.23877-.78978 11.68647 11.68647 0 0 1-4.28229-2.43246 11.46968 11.46968 0 0 1-2.88966-4.15768 15.42 15.42 0 0 1-1.06-6.00832 14.91872 14.91872 0 0 1 1.01838-5.71619 12.14334 12.14334 0 0 1 2.78567-4.17872 11.73337 11.73337 0 0 1 4.137-2.57811 14.56166 14.56166 0 0 1 5.07248-.87313 11.66671 11.66671 0 0 1 5.92457 1.24779 3.67137 3.67137 0 0 1 2.09987 3.2012 3.23426 3.23426 0 0 1-.54054 1.87087 4.44308 4.44308 0 0 1-1.24739 1.247 13.59846 13.59846 0 0 0-2.30743-1.20571A7.523 7.523 0 0 0 182.49563 460.31777z"/><path fill="#26a526" d="M190.15771,260.55562s-25.68355,35.22315-33.0217,44.02894-4.4029,13.20868,2.93526,10.27342c0,0-21.28065,32.28789-15.41013,38.89223,3.96261,4.45793,15.2808,7.24414,22.21907,8.58431a44.90509,44.90509,0,0,1,11.573,3.90884l.07285.03642a44.42333,44.42333,0,0,0,15.59288,4.484c23.93821,2.31645,92.9247,7.752,122.98888-3.07107a238.27454,238.27454,0,0,0,52.89-26.79095,8.66346,8.66346,0,0,0,2.56153-11.5419l-10.6888-18.171s8.072,3.66908,2.93527-4.40289-30.82026-30.82026-33.02171-53.56855S190.15771,260.55562,190.15771,260.55562Z"/><path fill="#1b8d25" d="M325.91362,280.36864a9.1682,9.1682,0,0,0,1.46763-8.072s5.87052,5.87053,8.072-2.20144c0,0-.35714-1.45129.7086-2.05625a45.37708,45.37708,0,0,1-4.37768-14.82152c-2.20145-22.74828-141.62643,7.33816-141.62643,7.33816s-3.83954,5.26566-8.97249,12.23243a3.92968,3.92968,0,0,1,1.26743,2.81079c.73381,6.60434,11.37414,5.50362,11.37414,5.50362s11.74105-8.80579,19.07921-1.46763,12.47487,9.5396,12.47487,9.5396,4.40289,5.13671,17.61157,1.46763,13.20869-6.60434,22.74829-5.87052,10.27342,6.60434,10.27342,6.60434,4.40289,6.60434,8.072,0c0,0,.73382-5.87053,4.4029-6.60434,0,0,2.93526,0,4.40289,6.60434,0,0,2.93526,2.20145,6.60434-.73382,0,0,2.20145-4.40289,3.66908-3.66907l1.46763.73381c1.46763.73382,4.40289-4.40289,4.40289-4.40289s.73382-4.4029,4.4029-2.93527S322.97835,284.03772,325.91362,280.36864Z"/><path fill="#26a526" d="M206.66857,192.67767s19.813-.73382-43.29513,64.57578c0,0-8.072,14.67631,11.00724,8.80579,0,0,7.33815-5.13671,8.072,1.46763s11.37414,5.50362,11.37414,5.50362,11.74105-8.80579,19.07921-1.46763,12.47487,9.5396,12.47487,9.5396,4.40289,5.13671,17.61157,1.46763,13.20869-6.60434,22.74829-5.87052,10.27342,6.60434,10.27342,6.60434,4.40289,6.60434,8.072,0c0,0,.73382-5.87053,4.4029-6.60434,0,0,2.93526,0,4.40289,6.60434,0,0,2.93526,2.20144,6.60434-.73382,0,0,2.20145-4.40289,3.66908-3.66908l1.46763.73382c1.46763.73381,4.40289-4.4029,4.40289-4.4029s.73382-4.40289,4.4029-2.93526,9.5396,3.66908,12.47487,0a9.1682,9.1682,0,0,0,1.46763-8.072s5.87052,5.87053,8.072-2.20145c0,0-.73382-2.93526,2.93526-2.20144,0,0,6.60434,6.60434,8.80579.73381s4.40289-5.13671-9.5396-18.34539-33.75553-38.15842-35.957-55.77S206.66857,192.67767,206.66857,192.67767Z"/><path fill="#1b8d25" d="M310.062,207.818c-4.38081-7.48538-7.55758-14.92431-8.36426-21.3778-2.20145-17.61158-95.02913,6.23743-95.02913,6.23743s7.36839-.272-1.197,14.3297a52.0677,52.0677,0,0,0,11.37459-4.8906,5.232,5.232,0,0,1,1.3003-.52277c2.12666-.54015,7.98271-1.345,13.83873,3.92544,7.33815,6.60435,11.00723,6.60435,16.87776,3.66908,4.71055-2.35525,7.53119-.93079,8.462-.27589a5.287,5.287,0,0,0,1.404.71845,7.41527,7.41527,0,0,0,7.3902-1.54189,5.21429,5.21429,0,0,0,1.25108-1.54928c.4942-.97335,2.40645-2.88564,9.37769,1.181,7.363,4.29505,15.239.38138,17.62229-1.01643a5.678,5.678,0,0,1,1.33734-.55027c.81672-.23111,2.10089-1.00165,1.58721-3.57-.64208-3.21044,7.14324,2.56836,9.0996,4.06322a5.03687,5.03687,0,0,0,1.26694.71424A6.68786,6.68786,0,0,0,310.062,207.818Z"/><path fill="none" d="M278.2156,111.591c.73381,34.48933,44.02894,64.57578,49.89946,73.38157s0,8.80578,0,8.80578h-8.072c-2.93526,0-3.66908,0-5.87053,5.13671-1.65467,3.86092-4.96763,3.16157-6.51122,2.576a5.0356,5.0356,0,0,1-1.26694-.71424c-1.95636-1.49486-9.74168-7.27366-9.0996-4.06321.51367,2.56835-.7705,3.33886-1.58724,3.57a5.68107,5.68107,0,0,0-1.33733.55028c-2.38328,1.39781-10.2593,5.31148-17.62227,1.01642-6.97124-4.06657-8.8835-2.15431-9.3777-1.181a5.21353,5.21353,0,0,1-1.2511,1.54934,7.41523,7.41523,0,0,1-7.39016,1.54189,5.28755,5.28755,0,0,1-1.40406-.71844c-.93078-.65491-3.75144-2.07939-8.462.27588-5.87053,2.93526-9.53961,2.93526-16.87776-3.66908-5.856-5.27044-11.71209-4.46562-13.83874-3.92551a5.22991,5.22991,0,0,0-1.30028.52283c-2.81907,1.598-17.586,9.60178-18.2496,2.302-.50492-5.55415-4.83152-6.24433-7.48152-6.13451a5.16528,5.16528,0,0,1-5.21977-3.4945c-.95957-3.12749,1.69406-5.78112,1.69406-5.78112,58.70525-60.17289,40.35986-68.97868,40.35986-68.97868Z"/><path fill="#26a526" d="M278.2156,111.591c.73381,34.48933,44.02894,64.57578,49.89946,73.38157s0,8.80578,0,8.80578h-8.072c-2.93526,0-3.66908,0-5.87053,5.13671-1.65467,3.86092-4.96763,3.16157-6.51122,2.576a5.0356,5.0356,0,0,1-1.26694-.71424c-1.95636-1.49486-9.74168-7.27366-9.0996-4.06321.51367,2.56835-.7705,3.33886-1.58724,3.57a5.68107,5.68107,0,0,0-1.33733.55028c-2.38328,1.39781-10.2593,5.31148-17.62227,1.01642-6.97124-4.06657-8.8835-2.15431-9.3777-1.181a5.21353,5.21353,0,0,1-1.2511,1.54934,7.41523,7.41523,0,0,1-7.39016,1.54189,5.28755,5.28755,0,0,1-1.40406-.71844c-.93078-.65491-3.75144-2.07939-8.462.27588-5.87053,2.93526-9.53961,2.93526-16.87776-3.66908-5.856-5.27044-11.71209-4.46562-13.83874-3.92551a5.22991,5.22991,0,0,0-1.30028.52283c-2.81907,1.598-17.586,9.60178-18.2496,2.302-.50492-5.55415-4.83152-6.24433-7.48152-6.13451a5.16528,5.16528,0,0,1-5.21977-3.4945c-.95957-3.12749,1.69406-5.78112,1.69406-5.78112,58.70525-60.17289,40.35986-68.97868,40.35986-68.97868Z"/><path fill="#26a526" d="M278.2156,111.591c.73381,34.48933,44.02894,64.57578,49.89946,73.38157s0,8.80578,0,8.80578h-8.072c-2.93526,0-3.66908,0-5.87053,5.13671-1.65467,3.86092-4.96763,3.16157-6.51122,2.576a5.0356,5.0356,0,0,1-1.26694-.71424c-1.95636-1.49486-9.74168-7.27366-9.0996-4.06321.51367,2.56835-.7705,3.33886-1.58724,3.57a5.68107,5.68107,0,0,0-1.33733.55028c-2.38328,1.39781-10.2593,5.31148-17.62227,1.01642-6.97124-4.06657-8.8835-2.15431-9.3777-1.181a5.21353,5.21353,0,0,1-1.2511,1.54934,7.41523,7.41523,0,0,1-7.39016,1.54189,5.28755,5.28755,0,0,1-1.40406-.71844c-.93078-.65491-3.75144-2.07939-8.462.27588-5.87053,2.93526-9.53961,2.93526-16.87776-3.66908-5.856-5.27044-11.71209-4.46562-13.83874-3.92551a5.22991,5.22991,0,0,0-1.30028.52283c-2.81907,1.598-17.586,9.60178-18.2496,2.302-.50492-5.55415-4.83152-6.24433-7.48152-6.13451a5.16528,5.16528,0,0,1-5.21977-3.4945c-.95957-3.12749,1.69406-5.78112,1.69406-5.78112,58.70525-60.17289,40.35986-68.97868,40.35986-68.97868Z"/><path fill="#353535" d="M202.75 166.84717c3.80322-.01074 7.602-.11572 11.38672-.42529q5.67883-.40724 11.312-1.23877a174.71333 174.71333 0 0 0 22.23462-4.73877 197.94026 197.94026 0 0 0 21.53052-7.33252q5.28588-2.11231 10.45312-4.51856c3.47168-1.54541 6.8147-3.35351 10.25293-4.98584l-4.99463 2.75781c-1.66333.92432-3.34131 1.82325-5.04638 2.66993q-5.11451 2.5393-10.37085 4.78759a182.04732 182.04732 0 0 1-21.5564 7.584 162.40912 162.40912 0 0 1-22.3999 4.53515A127.91224 127.91224 0 0 1 202.75 166.84717zM175.019 244.94727c5.98023.21093 11.96314.24218 17.93824.03222q8.96264-.26733 17.89086-1.12011a267.87776 267.87776 0 0 0 35.35987-5.66553q8.73412-1.98486 17.31347-4.58447c5.71241-1.74268 11.34424-3.73829 16.91529-5.89014q8.3496-3.24756 16.41211-7.18994c5.3833-2.59766 10.63379-5.46924 15.77539-8.53028-5.02271 3.2544-10.23535 6.2168-15.55591 8.96827q-8.00391 4.08545-16.34692 7.46679a227.64312 227.64312 0 0 1-34.29078 10.7334 255.78971 255.78971 0 0 1-35.51513 5.45459A237.72894 237.72894 0 0 1 175.019 244.94727zM166.00049 293.18848A216.877 216.877 0 0 0 188.5 301.30713a237.67181 237.67181 0 0 0 70.68042 10.30859 226.532 226.532 0 0 0 47.39966-5.34375c3.906-.79248 7.75-1.84765 11.61352-2.82422 3.82154-1.12793 7.66895-2.17822 11.43726-3.48291a224.99924 224.99924 0 0 0 22.36255-8.49365 225.21073 225.21073 0 0 1-22.20679 8.95752c-3.75854 1.35938-7.60376 2.4502-11.42285 3.62744-3.86182 1.02344-7.7063 2.12647-11.61548 2.96631a205.97817 205.97817 0 0 1-23.62622 4.0752 230.07271 230.07271 0 0 1-23.93384 1.5166 227.52634 227.52634 0 0 1-47.65552-4.75147 230.60909 230.60909 0 0 1-23.17773-6.09131A217.14944 217.14944 0 0 1 166.00049 293.18848z"/><ellipse cx="265.741" cy="394.477" fill="#681904" rx="46.23" ry="5.504" transform="rotate(-4.558 265.74 394.477)"/><path fill="#7c2804" d="M265.30337,388.99074q3.50439-.27935,6.87863-.48694l-.57075-14.48238c-3.87824.114-7.80677.168-11.741.17177l-.60966,15.32812Q262.22713,389.23814,265.30337,388.99074Z"/><path fill="#681904" d="M271.72681,376.953l-.11556-2.93159c-3.87824.114-7.80677.168-11.741.17177l-.11676,2.93517C263.76587,377.12554,267.7727,377.07054,271.72681,376.953Z"/><path fill="#353535" d="M216.5752 166.62744a10.1523 10.1523 0 0 1 .86352 3.24658 10.03779 10.03779 0 0 1-.12988 3.35743 10.02963 10.02963 0 0 1-.86353-3.24707A10.14432 10.14432 0 0 1 216.5752 166.62744zM243.739 162.00977a18.81912 18.81912 0 0 1 1.22071 4.43066 18.60725 18.60725 0 0 1 .23413 4.58984 18.62216 18.62216 0 0 1-1.22071-4.43066A18.83911 18.83911 0 0 1 243.739 162.00977zM265.80566 154.89746a7.98122 7.98122 0 0 1 .46729 2.93506 7.89656 7.89656 0 0 1-.53223 2.92432 8.83774 8.83774 0 0 1 .06494-5.85938zM282.48633 147.4873a14.56534 14.56534 0 0 1 1.99536 3.50782 14.39654 14.39654 0 0 1 1.072 3.89111 14.411 14.411 0 0 1-1.99536-3.5083A14.55981 14.55981 0 0 1 282.48633 147.4873zM297.03931 220.71289a19.02421 19.02421 0 0 1 1.35229 4.41748 18.80248 18.80248 0 0 1 .37085 4.605 18.802 18.802 0 0 1-1.35254-4.41748A19.02383 19.02383 0 0 1 297.03931 220.71289zM272.32007 231.187a1.62393 1.62393 0 1 1-.09326 1.27051A1.61032 1.61032 0 0 1 272.32007 231.187zM238.45 240.35742a7.29481 7.29481 0 0 1 .93018 2.68262 7.2196 7.2196 0 0 1-.05664 2.83935 7.21526 7.21526 0 0 1-.93042-2.6831A7.30058 7.30058 0 0 1 238.45 240.35742zM208.69629 244.42725a8.0279 8.0279 0 0 1 .76782 2.88183 7.93894 7.93894 0 0 1-.22729 2.97315 7.94631 7.94631 0 0 1-.76783-2.88135A8.03753 8.03753 0 0 1 208.69629 244.42725zM182.64526 299.65674a52.08227 52.08227 0 0 1 1.31787 7.54687 51.48409 51.48409 0 0 1 .324 7.6543 51.4685 51.4685 0 0 1-1.31763-7.54687A52.08555 52.08555 0 0 1 182.64526 299.65674zM222.5625 309.45312a6.85158 6.85158 0 0 1 .44116 2.71338 6.77372 6.77372 0 0 1-.5581 2.69141 6.77846 6.77846 0 0 1-.44117-2.71338A6.855 6.855 0 0 1 222.5625 309.45312zM306.79028 307.25732a23.56183 23.56183 0 0 1 1.96778 4.75586 23.3085 23.3085 0 0 1 1.01172 5.04639 23.302 23.302 0 0 1-1.96778-4.75586A23.57645 23.57645 0 0 1 306.79028 307.25732zM333.69849 298.85059a8.33745 8.33745 0 0 1 1.35522 2.7207 8.24248 8.24248 0 0 1 .39941 3.01318 8.24649 8.24649 0 0 1-1.355-2.7207A8.34173 8.34173 0 0 1 333.69849 298.85059z"/><circle cx="186.489" cy="323.664" r="9.54" fill="#d64142"/><circle cx="222.813" cy="320.362" r="6.237" fill="#fbb641"/><circle cx="311.421" cy="322.38" r="7.522" fill="#fbb641"/><ellipse cx="335.82" cy="310.822" fill="#d64142" rx="5.504" ry="6.971"/><ellipse cx="299.496" cy="239.275" fill="#fbb641" rx="8.806" ry="9.54"/><circle cx="274.18" cy="238.908" r="5.504" fill="#d64142"/><ellipse cx="240.424" cy="256.887" fill="#fbb641" rx="9.907" ry="11.007"/><circle cx="209.971" cy="257.62" r="8.072" fill="#d64142"/><ellipse cx="218.41" cy="179.102" fill="#fbb641" rx="6.237" ry="6.604"/><ellipse cx="245.928" cy="180.57" fill="#d64142" rx="10.273" ry="9.54"/><ellipse cx="265.374" cy="166.26" fill="#fbb641" rx="6.237" ry="5.504"/><ellipse cx="286.654" cy="162.224" fill="#d64142" rx="8.439" ry="7.338"/><path fill="#26a526" d="M256.20113,58.75631s-3.66908-1.46763-8.43888,9.90651c-4.35026,10.37367-26.98465,35.2-33.01294,41.71a14.26322,14.26322,0,0,0-3.12267,5.19534c-.736,2.23033-.96825,4.78359,1.45791,5.4154a4.35575,4.35575,0,0,0,2.15933-.04444,19.56144,19.56144,0,0,0,7.20172-3.47759c2.71368-2.17094,6.23017,2.4821,7.87752,5.05254a9.00579,9.00579,0,0,0,4.57211,3.69291c2.37925.82785,5.39782.71553,7.3634-3.60874,2.62312-5.77087,7.49666-4.79051,10.06211-3.76258a11.97927,11.97927,0,0,1,2.19634,1.18849c1.60937,1.07752,6.71393,4.1523,11.624,3.44912a7.479,7.479,0,0,0,6.11485-6.35131c.21574-1.24822.97484-2.35262,3.17222-1.67247a5.85976,5.85976,0,0,1,2.01188,1.13669c2.73717,2.29058,12.71963,10.13382,13.98427,3.81062a2.58908,2.58908,0,0,0-.73382-2.93527l-.04315-.04381A1.17067,1.17067,0,0,1,291.789,115.488c1.35488.32027,3.5405.97812,4.03821,1.97355.73382,1.46763,8.80579,2.20145,6.60434-4.40289s-32.28789-24.21592-39.626-44.76276C262.80547,68.29591,259.5033,58.3894,256.20113,58.75631Z"/><path fill="#1b8d25" d="M281.51548,127.74439a52.29007,52.29007,0,0,1-2.733-10.07152c-.54055-.42369-.99879-.799-1.34249-1.08665a5.86,5.86,0,0,0-2.0119-1.13674c-2.19738-.68007-2.9565.42424-3.1722,1.6725a7.47893,7.47893,0,0,1-6.11485,6.35128c-4.91008.70318-10.01463-2.37155-11.624-3.44908a11.979,11.979,0,0,0-2.19635-1.1885c-2.56544-1.0279-7.439-2.00832-10.0621,3.76259-1.96555,4.32425-4.98412,4.43658-7.36338,3.60871a8.9526,8.9526,0,0,1-4.39828-3.44335,28.58658,28.58658,0,0,1-1.548,5.86551c.53164.68992,1.00228,1.37662,1.37416,1.9569a9.00521,9.00521,0,0,0,4.5721,3.69291c2.37926.82787,5.39783.71554,7.36338-3.60871,2.62313-5.77091,7.49666-4.79049,10.0621-3.76259a11.97847,11.97847,0,0,1,2.19635,1.18851c1.60938,1.07752,6.71393,4.15225,11.624,3.44907a7.47892,7.47892,0,0,0,6.11485-6.35128c.2157-1.24826.97482-2.35257,3.1722-1.6725a5.86037,5.86037,0,0,1,2.0119,1.13674C278.27494,125.35689,279.78535,126.57209,281.51548,127.74439Z"/><path fill="#353535" d="M217.02271,107.8999c4.52661-2.01172,9.03369-4.04931,13.488-6.19287,4.45191-2.147,8.87915-4.34326,13.20459-6.72705q6.53687-3.48486,12.79444-7.458c2.092-1.31152,4.156-2.66992,6.175-4.09375,2.04151-1.39355,4.02393-2.87109,5.99854-4.36718a104.61156,104.61156,0,0,1-11.75293,9.10449c-4.10864,2.78613-8.39941,5.29052-12.7395,7.69287-4.38477,2.3208-8.82373,4.53955-13.35913,6.54346C226.29736,104.40674,221.70215,106.271,217.02271,107.8999Z"/><path fill="#353535" d="M238.24 98.40186a7.98921 7.98921 0 0 1 .3064 2.958 7.89956 7.89956 0 0 1-.69068 2.89307 7.90175 7.90175 0 0 1-.30639-2.9585A7.98837 7.98837 0 0 1 238.24 98.40186zM263.77075 82.9375a15.77515 15.77515 0 0 1 1.47046 3.93555 15.58482 15.58482 0 0 1 .49951 4.17138 15.59216 15.59216 0 0 1-1.4707-3.93554A15.76961 15.76961 0 0 1 263.77075 82.9375z"/><circle cx="238.223" cy="108.289" r="4.036" fill="#d64142"/><ellipse cx="267.208" cy="98.015" fill="#fbb641" rx="8.072" ry="7.705"/><path fill="#353535" d="M267.16626,311.92383a17.96993,17.96993,0,0,1-.21948,4.48242,17.76411,17.76411,0,0,1-1.20606,4.32227,17.76192,17.76192,0,0,1,.21949-4.48243A17.95783,17.95783,0,0,1,267.16626,311.92383Z"/><ellipse cx="265.374" cy="327.7" fill="#d64142" rx="8.072" ry="8.806"/><path fill="#fbb641" d="M239.184,42.07174l6.24038-1.06421a4.89731,4.89731,0,0,0,3.62032-2.769l2.6611-5.744a3.4494,3.4494,0,0,1,6.18453-.15224l2.9405,5.6061a4.89732,4.89732,0,0,0,3.75217,2.58747l6.28519.75586a3.4494,3.4494,0,0,1,2.05592,5.83479l-4.423,4.529a4.89731,4.89731,0,0,0-1.30135,4.3681l1.22336,6.21114a3.4494,3.4494,0,0,1-4.9139,3.75835l-5.6741-2.80705a4.89729,4.89729,0,0,0-4.55645.11217l-5.52911,3.08283a3.44939,3.44939,0,0,1-5.09287-3.512l.91626-6.26382a4.89728,4.89728,0,0,0-1.5147-4.29878l-4.64053-4.30585A3.4494,3.4494,0,0,1,239.184,42.07174Z"/><path fill="#d64142" d="M107.05244 420.25731a16.343 16.343 0 0 1 3.92356.439 8.79667 8.79667 0 0 1 3.02726 1.33385 6.02364 6.02364 0 0 1 1.9317 2.271 7.263 7.263 0 0 1 .67727 3.24582v8.92341a2.47169 2.47169 0 0 1-.57763 1.69294 5.752 5.752 0 0 1-1.37428 1.13458 14.23167 14.23167 0 0 1-7.28922 1.55382 16.67233 16.67233 0 0 1-3.80418-.39856 9.01822 9.01822 0 0 1-2.90788-1.19474 5.48388 5.48388 0 0 1-1.87248-2.03134 6.01683 6.01683 0 0 1-.65706-2.86794 5.39167 5.39167 0 0 1 1.63325-4.22247 8.80674 8.80674 0 0 1 5.0586-1.83206l5.21841-.55836V427.468a1.70857 1.70857 0 0 0-1.01567-1.65346 6.83757 6.83757 0 0 0-2.92763-.4982 13.60443 13.60443 0 0 0-2.94784.31866 15.74844 15.74844 0 0 0-2.58922.79712 2.75117 2.75117 0 0 1-.87655-1.096 3.46376 3.46376 0 0 1-.35814-1.53314 2.55834 2.55834 0 0 1 .49773-1.65346 3.871 3.871 0 0 1 1.53361-1.05562 12.03453 12.03453 0 0 1 2.72881-.63731A23.72059 23.72059 0 0 1 107.05244 420.25731zm.31866 15.65474a8.92436 8.92436 0 0 0 1.49366-.13912 3.63924 3.63924 0 0 0 1.215-.37882v-3.1866l-2.86794.2397a4.42184 4.42184 0 0 0-1.83253.47752 1.2882 1.2882 0 0 0-.71722 1.19474 1.58389 1.58389 0 0 0 .61758 1.29532A3.38113 3.38113 0 0 0 107.3711 435.91205zM133.22342 439.69649a4.48468 4.48468 0 0 1-1.63324.71722 9.73676 9.73676 0 0 1-2.4299.27918 8.14706 8.14706 0 0 1-2.68887-.39856 2.62346 2.62346 0 0 1-1.57356-1.27464q-.35814-.6768-.85634-1.89222-.49844-1.21542-1.05562-2.70908-.55836-1.49319-1.15525-3.20634-.59713-1.71173-1.13505-3.38587-.53791-1.67367-.97572-3.22608-.43922-1.55382-.71722-2.74856a5.16209 5.16209 0 0 1 3.5452-1.39495 4.1616 4.1616 0 0 1 2.29031.57809 3.58863 3.58863 0 0 1 1.33433 2.17046l1.55382 6.095q.43781 1.79211.8366 3.24675.39762 1.45371.59737 2.25036h.19928q.75576-2.94831 1.5933-6.533.83613-3.58422 1.5134-7.05a6.32407 6.32407 0 0 1 1.5336-.55835 7.30706 7.30706 0 0 1 1.65346-.19928 4.35 4.35 0 0 1 2.35.59783 2.24869 2.24869 0 0 1 .956 2.07176 8.45044 8.45044 0 0 1-.29892 1.8518q-.29821 1.21542-.7567 2.74856-.45825 1.53408-1.07536 3.24675-.61828 1.71315-1.2549 3.34546-.63732 1.63419-1.2549 3.04748Q133.70094 438.78046 133.22342 439.69649zM152.02529 440.85175a13.97026 13.97026 0 0 1-4.36207-.65706 9.884 9.884 0 0 1-3.50526-1.97212 9.11981 9.11981 0 0 1-2.35-3.306 11.71257 11.71257 0 0 1-.85681-4.66051 10.89185 10.89185 0 0 1 .85681-4.5214 8.74959 8.74959 0 0 1 5.43695-4.89927 11.89577 11.89577 0 0 1 3.66459-.5781 11.06529 11.06529 0 0 1 3.84412.63826 9.24641 9.24641 0 0 1 2.98779 1.75215 7.81176 7.81176 0 0 1 1.95144 2.66866 8.18324 8.18324 0 0 1 .69748 3.38588 2.71994 2.71994 0 0 1-.75717 2.07176 3.78665 3.78665 0 0 1-2.11124.91555l-9.839 1.47392a3.30755 3.30755 0 0 0 1.79258 1.97212 7.032 7.032 0 0 0 3.10716.65706 11.10531 11.10531 0 0 0 3.087-.4183 9.77851 9.77851 0 0 0 2.37021-.97572 3.34327 3.34327 0 0 1 1.07536 1.11578 2.92256 2.92256 0 0 1-1.23469 4.18206 8.871 8.871 0 0 1-2.86794.9165A20.26673 20.26673 0 0 1 152.02529 440.85175zM150.90951 425.197a3.94665 3.94665 0 0 0-1.653.31866 3.33847 3.33847 0 0 0-1.13505.81686 3.37846 3.37846 0 0 0-.65753 1.11484 4.59593 4.59593 0 0 0-.259 1.2549l6.8117-1.11484a3.01291 3.01291 0 0 0-.87608-1.5933A2.9363 2.9363 0 0 0 150.90951 425.197zM179.58982 420.25731a16.34285 16.34285 0 0 1 3.92355.439 8.79673 8.79673 0 0 1 3.02727 1.33385 6.02364 6.02364 0 0 1 1.9317 2.271 7.263 7.263 0 0 1 .67727 3.24582v8.92341a2.47169 2.47169 0 0 1-.57763 1.69294 5.752 5.752 0 0 1-1.37428 1.13458 14.2317 14.2317 0 0 1-7.28922 1.55382 16.67233 16.67233 0 0 1-3.80418-.39856 9.01818 9.01818 0 0 1-2.90789-1.19474 5.48394 5.48394 0 0 1-1.87247-2.03134 6.01683 6.01683 0 0 1-.65706-2.86794 5.39167 5.39167 0 0 1 1.63325-4.22247 8.80671 8.80671 0 0 1 5.0586-1.83206l5.21841-.55836V427.468a1.70857 1.70857 0 0 0-1.01567-1.65346 6.83757 6.83757 0 0 0-2.92763-.4982 13.60443 13.60443 0 0 0-2.94784.31866 15.74827 15.74827 0 0 0-2.58923.79712 2.75115 2.75115 0 0 1-.87654-1.096 3.46376 3.46376 0 0 1-.35814-1.53314 2.55834 2.55834 0 0 1 .49773-1.65346 3.87092 3.87092 0 0 1 1.5336-1.05562 12.03463 12.03463 0 0 1 2.72882-.63731A23.72059 23.72059 0 0 1 179.58982 420.25731zm.31866 15.65474a8.92436 8.92436 0 0 0 1.49366-.13912 3.63924 3.63924 0 0 0 1.21495-.37882v-3.1866l-2.86794.2397a4.42184 4.42184 0 0 0-1.83253.47752 1.2882 1.2882 0 0 0-.71722 1.19474 1.58389 1.58389 0 0 0 .61758 1.29532A3.38113 3.38113 0 0 0 179.90848 435.91205z"/><path fill="#26a526" d="M208.03 433.56205a1.638 1.638 0 0 0 .65706 1.47392 3.32126 3.32126 0 0 0 1.85227.438 7.96079 7.96079 0 0 0 1.23516-.09964 6.89277 6.89277 0 0 0 1.1153-.2585 4.93326 4.93326 0 0 1 .61758.97572 2.97055 2.97055 0 0 1 .2585 1.29438 3.08039 3.08039 0 0 1-1.135 2.47032q-1.135.956-4.00346.956a8.1599 8.1599 0 0 1-5.39748-1.5933q-1.8922-1.5933-1.89174-5.17846V416.99175c.29187-.0799.71017-.16544 1.25443-.25944a10.37938 10.37938 0 0 1 1.73288-.13912 5.09677 5.09677 0 0 1 2.72882.61758q.975.61758.97572 2.6085v2.54927h5.2184a6.89 6.89 0 0 1 .45778 1.096 4.58817 4.58817 0 0 1 .219 1.45418 2.765 2.765 0 0 1-.61711 2.0116 2.23451 2.23451 0 0 1-1.653.61664H208.03zM223.96341 440.175a9.39255 9.39255 0 0 1-1.2549.23876 12.782 12.782 0 0 1-1.77236.11938 9.34029 9.34029 0 0 1-1.57356-.11938 2.67433 2.67433 0 0 1-1.175-.47846 2.29569 2.29569 0 0 1-.737-.97572 4.219 4.219 0 0 1-.259-1.613V425.39628a3.39286 3.39286 0 0 1 .33887-1.57356 3.68954 3.68954 0 0 1 .97572-1.175 7.03931 7.03931 0 0 1 1.57356-.93624 16.44579 16.44579 0 0 1 2.0116-.737 16.98851 16.98851 0 0 1 2.23061-.49725 14.93572 14.93572 0 0 1 2.31-.17954 5.43091 5.43091 0 0 1 3.02774.73695 2.67469 2.67469 0 0 1 1.11531 2.41016 3.84655 3.84655 0 0 1-.15933 1.0951 5.01552 5.01552 0 0 1-.39856.97572q-.83613 0-1.71268.0799-.877.08037-1.71315.23876-.83613.15933-1.57309.3384a7.012 7.012 0 0 0-1.2549.4183zM243.044 440.85175a13.97024 13.97024 0 0 1-4.36206-.65706 9.884 9.884 0 0 1-3.50526-1.97212 9.11983 9.11983 0 0 1-2.35-3.306 11.71275 11.71275 0 0 1-.8568-4.66051 10.892 10.892 0 0 1 .8568-4.5214 8.74964 8.74964 0 0 1 5.437-4.89927 11.89577 11.89577 0 0 1 3.66459-.5781 11.06533 11.06533 0 0 1 3.84412.63826 9.24641 9.24641 0 0 1 2.98779 1.75215 7.81176 7.81176 0 0 1 1.95144 2.66866 8.18324 8.18324 0 0 1 .69748 3.38588 2.71994 2.71994 0 0 1-.75717 2.07176 3.78665 3.78665 0 0 1-2.11124.91555l-9.839 1.47392a3.30755 3.30755 0 0 0 1.79258 1.97212 7.032 7.032 0 0 0 3.10716.65706 11.10531 11.10531 0 0 0 3.087-.4183 9.77851 9.77851 0 0 0 2.37021-.97572 3.34327 3.34327 0 0 1 1.07536 1.11578 2.92256 2.92256 0 0 1-1.23469 4.18206 8.871 8.871 0 0 1-2.86794.9165A20.26675 20.26675 0 0 1 243.044 440.85175zM241.92821 425.197a3.94665 3.94665 0 0 0-1.653.31866 3.33847 3.33847 0 0 0-1.135.81686 3.37846 3.37846 0 0 0-.65753 1.11484 4.59593 4.59593 0 0 0-.259 1.2549l6.8117-1.11484a3.01291 3.01291 0 0 0-.87608-1.5933A2.93632 2.93632 0 0 0 241.92821 425.197zM264.91259 440.85175a13.97019 13.97019 0 0 1-4.36206-.65706 9.884 9.884 0 0 1-3.50526-1.97212 9.11983 9.11983 0 0 1-2.35-3.306 11.71257 11.71257 0 0 1-.85681-4.66051 10.89185 10.89185 0 0 1 .85681-4.5214 8.74964 8.74964 0 0 1 5.437-4.89927 11.89575 11.89575 0 0 1 3.66458-.5781 11.06535 11.06535 0 0 1 3.84413.63826 9.24641 9.24641 0 0 1 2.98779 1.75215 7.81176 7.81176 0 0 1 1.95144 2.66866 8.18339 8.18339 0 0 1 .69747 3.38588 2.72 2.72 0 0 1-.75716 2.07176 3.78665 3.78665 0 0 1-2.11124.91555l-9.839 1.47392a3.30755 3.30755 0 0 0 1.79258 1.97212 7.03192 7.03192 0 0 0 3.10716.65706 11.10531 11.10531 0 0 0 3.087-.4183 9.77851 9.77851 0 0 0 2.37021-.97572 3.34327 3.34327 0 0 1 1.07536 1.11578 2.92256 2.92256 0 0 1-1.23469 4.18206 8.871 8.871 0 0 1-2.86794.9165A20.26675 20.26675 0 0 1 264.91259 440.85175zM263.79681 425.197a3.94661 3.94661 0 0 0-1.653.31866 3.33847 3.33847 0 0 0-1.135.81686 3.37846 3.37846 0 0 0-.65753 1.11484 4.59593 4.59593 0 0 0-.259 1.2549l6.8117-1.11484a3.01291 3.01291 0 0 0-.87608-1.5933A2.93632 2.93632 0 0 0 263.79681 425.197z"/><path fill="#d64142" d="M285.82428 420.25731a11.4145 11.4145 0 0 1 3.20681.45872 7.89118 7.89118 0 0 1 2.72882 1.37427 11.8083 11.8083 0 0 1 2.68839-1.315 11.09323 11.09323 0 0 1 3.6049-.51794 11.20826 11.20826 0 0 1 2.96805.39856 7.594 7.594 0 0 1 2.58875 1.25489 6.07242 6.07242 0 0 1 1.81279 2.271 7.93263 7.93263 0 0 1 .6768 3.4451V440.175a9.3977 9.3977 0 0 1-1.25443.23876 12.794 12.794 0 0 1-1.77284.11938 9.33443 9.33443 0 0 1-1.57308-.11938 2.674 2.674 0 0 1-1.17547-.47846 2.29569 2.29569 0 0 1-.737-.97572 4.2198 4.2198 0 0 1-.2585-1.613v-9.52031a2.07973 2.07973 0 0 0-.67727-1.73242 2.8657 2.8657 0 0 0-1.83253-.53768 3.191 3.191 0 0 0-1.19474.2585 3.44883 3.44883 0 0 0-.956.53768 1.2701 1.2701 0 0 1 .03948.29892V440.175a11.381 11.381 0 0 1-1.29438.23876 12.50037 12.50037 0 0 1-1.73288.11938 9.34424 9.34424 0 0 1-1.57356-.11938 2.67433 2.67433 0 0 1-1.175-.47846 2.29569 2.29569 0 0 1-.737-.97572 4.219 4.219 0 0 1-.259-1.613v-9.52031a1.99906 1.99906 0 0 0-.737-1.73242 2.92115 2.92115 0 0 0-1.77237-.53768 3.16172 3.16172 0 0 0-1.23469.219 9.23293 9.23293 0 0 0-.87655.4183V440.175a9.39233 9.39233 0 0 1-1.25489.23876 12.78222 12.78222 0 0 1-1.77237.11938 9.34029 9.34029 0 0 1-1.57356-.11938 2.67433 2.67433 0 0 1-1.175-.47846 2.29569 2.29569 0 0 1-.737-.97572 4.219 4.219 0 0 1-.259-1.613V425.31638a2.87812 2.87812 0 0 1 .45825-1.71268 5.19425 5.19425 0 0 1 1.25443-1.19474 11.47212 11.47212 0 0 1 3.36614-1.55381A14.67058 14.67058 0 0 1 285.82428 420.25731zM320.4797 440.85175a13.97026 13.97026 0 0 1-4.36207-.65706 9.88391 9.88391 0 0 1-3.50525-1.97212 9.11983 9.11983 0 0 1-2.35-3.306 11.71257 11.71257 0 0 1-.85681-4.66051 10.89185 10.89185 0 0 1 .85681-4.5214 8.74965 8.74965 0 0 1 5.43695-4.89927 11.89577 11.89577 0 0 1 3.66459-.5781 11.06525 11.06525 0 0 1 3.84412.63826 9.24641 9.24641 0 0 1 2.98779 1.75215 7.81176 7.81176 0 0 1 1.95144 2.66866 8.18324 8.18324 0 0 1 .69748 3.38588 2.71994 2.71994 0 0 1-.75717 2.07176 3.78665 3.78665 0 0 1-2.11124.91555l-9.839 1.47392a3.30755 3.30755 0 0 0 1.79258 1.97212 7.032 7.032 0 0 0 3.10717.65706 11.10524 11.10524 0 0 0 3.087-.4183 9.77851 9.77851 0 0 0 2.37021-.97572 3.34327 3.34327 0 0 1 1.07536 1.11578 2.92256 2.92256 0 0 1-1.23469 4.18206 8.871 8.871 0 0 1-2.86794.9165A20.26652 20.26652 0 0 1 320.4797 440.85175zM319.36392 425.197a3.94665 3.94665 0 0 0-1.653.31866 3.33847 3.33847 0 0 0-1.13505.81686 3.37846 3.37846 0 0 0-.65753 1.11484 4.59593 4.59593 0 0 0-.259 1.2549l6.81171-1.11484a3.01291 3.01291 0 0 0-.87608-1.5933A2.93632 2.93632 0 0 0 319.36392 425.197zM344.37964 427.94556a2.223 2.223 0 0 0-.697-1.81232 2.87932 2.87932 0 0 0-1.89221-.57716 6.31964 6.31964 0 0 0-1.57356.19834 3.98924 3.98924 0 0 0-1.33433.59784V440.175a9.39255 9.39255 0 0 1-1.2549.23876 12.78222 12.78222 0 0 1-1.77237.11938 9.34029 9.34029 0 0 1-1.57356-.11938 2.67433 2.67433 0 0 1-1.175-.47846 2.29575 2.29575 0 0 1-.73695-.97572 4.219 4.219 0 0 1-.259-1.613V425.39628a3.0704 3.0704 0 0 1 .45825-1.7531 4.83551 4.83551 0 0 1 1.25442-1.23422 11.41473 11.41473 0 0 1 3.40609-1.55381 16.27038 16.27038 0 0 1 4.56088-.59784q4.5007 0 6.93108 1.97211a6.665 6.665 0 0 1 2.4299 5.47738V440.175a9.4238 9.4238 0 0 1-1.2549.23876 12.78719 12.78719 0 0 1-1.77237.11938 9.34029 9.34029 0 0 1-1.57356-.11938 2.67433 2.67433 0 0 1-1.175-.47846 2.29569 2.29569 0 0 1-.737-.97572 4.219 4.219 0 0 1-.259-1.613zM354.49685 430.53526a11.91648 11.91648 0 0 1 .79665-4.56182 8.72539 8.72539 0 0 1 2.21088-3.20634 9.0896 9.0896 0 0 1 3.30645-1.89221 13.109 13.109 0 0 1 4.08288-.61758 8.55187 8.55187 0 0 1 1.55335.14006 6.22439 6.22439 0 0 1 1.23469.3384v-6.4531a10.82032 10.82032 0 0 1 1.27464-.2585 11.377 11.377 0 0 1 1.79258-.14006 9.44765 9.44765 0 0 1 1.57356.11938 2.68777 2.68777 0 0 1 1.175.47846 2.15944 2.15944 0 0 1 .71722.97572 4.54846 4.54846 0 0 1 .23876 1.613v18.88176a3.39917 3.39917 0 0 1-1.75262 2.98732 12.1563 12.1563 0 0 1-2.98732 1.3348 15.54242 15.54242 0 0 1-8.86325-.14006 9.42161 9.42161 0 0 1-3.46531-2.07082 8.90288 8.90288 0 0 1-2.15119-3.24676A11.71268 11.71268 0 0 1 354.49685 430.53526zm11.31289-4.97918a4.30813 4.30813 0 0 0-3.306 1.23422 5.31164 5.31164 0 0 0-1.15526 3.745 5.5903 5.5903 0 0 0 1.07536 3.72427 3.86731 3.86731 0 0 0 3.10716 1.2549 3.63338 3.63338 0 0 0 1.29438-.219 2.94365 2.94365 0 0 0 .89629-.4982V426.0336A3.6512 3.6512 0 0 0 365.80974 425.55608zM398.71253 430.53526a11.99641 11.99641 0 0 1-.75717 4.40107 8.91882 8.91882 0 0 1-2.131 3.24676 9.06273 9.06273 0 0 1-3.28623 1.99186 12.7076 12.7076 0 0 1-4.26243.6768 12.04781 12.04781 0 0 1-4.262-.71722 9.36288 9.36288 0 0 1-3.28623-2.05108 9.14239 9.14239 0 0 1-2.131-3.24676 12.48722 12.48722 0 0 1 0-8.56433 9.13853 9.13853 0 0 1 2.131-3.24582 9.37849 9.37849 0 0 1 3.28623-2.052 12.06916 12.06916 0 0 1 4.262-.71721 11.78086 11.78086 0 0 1 4.26243.73695 9.64494 9.64494 0 0 1 3.28623 2.07176 9.16337 9.16337 0 0 1 2.131 3.24676A11.38146 11.38146 0 0 1 398.71253 430.53526zm-13.94207 0a6.2953 6.2953 0 0 0 .93624 3.72427 3.037 3.037 0 0 0 2.609 1.29438 2.92353 2.92353 0 0 0 2.56949-1.31412 6.531 6.531 0 0 0 .89629-3.70453 6.3222 6.3222 0 0 0-.9165-3.6848 3.23642 3.23642 0 0 0-5.178 0A6.31511 6.31511 0 0 0 384.77046 430.53526zM402.01851 421.13432a9.06474 9.06474 0 0 1 1.25489-.23875 12.77037 12.77037 0 0 1 1.77237-.12032 9.346 9.346 0 0 1 1.57356.12032 2.67569 2.67569 0 0 1 1.175.47751 2.3052 2.3052 0 0 1 .737.97572 4.23468 4.23468 0 0 1 .259 1.613v8.56433a2.9563 2.9563 0 0 0 .79665 2.33026 3.40435 3.40435 0 0 0 2.31052.69748 5.72392 5.72392 0 0 0 1.49365-.1598 5.02111 5.02111 0 0 0 .89629-.31866V421.13432a9.06464 9.06464 0 0 1 1.2549-.23875 12.77037 12.77037 0 0 1 1.77237-.12032 9.346 9.346 0 0 1 1.57356.12032 2.67569 2.67569 0 0 1 1.175.47751 2.3052 2.3052 0 0 1 .737.97572 4.23468 4.23468 0 0 1 .259 1.613v12.11a3.25428 3.25428 0 0 1-1.6732 2.98732 10.95851 10.95851 0 0 1-3.32619 1.3348 18.24406 18.24406 0 0 1-4.20226.45778 15.51784 15.51784 0 0 1-3.96351-.47752 8.87086 8.87086 0 0 1-3.12691-1.47392 6.57958 6.57958 0 0 1-2.03133-2.57 9.12652 9.12652 0 0 1-.71722-3.80418zM441.53278 434.43813a5.60511 5.60511 0 0 1-2.27057 4.74042q-2.2708 1.71315-6.69232 1.71268a18.87439 18.87439 0 0 1-3.1067-.23876 8.884 8.884 0 0 1-2.45011-.737 4.3833 4.3833 0 0 1-1.5933-1.2549 2.86811 2.86811 0 0 1-.57763-1.79258 3.05428 3.05428 0 0 1 .39856-1.613 4.0213 4.0213 0 0 1 .956-1.0951 15.85864 15.85864 0 0 0 2.64892 1.13552 10.89534 10.89534 0 0 0 3.44557.49726 4.02877 4.02877 0 0 0 1.89221-.35814 1.07335 1.07335 0 0 0 .65706-.956.99969.99969 0 0 0-.478-.87608 4.42693 4.42693 0 0 0-1.59329-.51794l-1.19474-.2397a11.17422 11.17422 0 0 1-5.15872-2.131 5.18532 5.18532 0 0 1-1.69294-4.16232 5.498 5.498 0 0 1 2.4299-4.66052 8.9888 8.9888 0 0 1 2.7683-1.23515 13.61886 13.61886 0 0 1 3.56541-.438 16.64327 16.64327 0 0 1 2.7683.219 9.07648 9.07648 0 0 1 2.25036.65705 4.07829 4.07829 0 0 1 1.51387 1.13552 2.568 2.568 0 0 1 .55789 1.65346 3.40144 3.40144 0 0 1-.33887 1.57356 3.54471 3.54471 0 0 1-.85634 1.0951 4.96079 4.96079 0 0 0-.956-.4183q-.638-.21855-1.394-.39856-.75717-.17907-1.53361-.29892a9.46873 9.46873 0 0 0-1.41423-.11938 5.45825 5.45825 0 0 0-2.03133.29892.99067.99067 0 0 0-.71722.93624.84237.84237 0 0 0 .39856.71722 4.57386 4.57386 0 0 0 1.51339.51794l1.23469.27824a11.76354 11.76354 0 0 1 5.43743 2.41016A5.22544 5.22544 0 0 1 441.53278 434.43813zM212.432 480.78865a9.3977 9.3977 0 0 1-1.25443.23876 12.794 12.794 0 0 1-1.77284.11938 9.34424 9.34424 0 0 1-1.57356-.11938 2.67433 2.67433 0 0 1-1.175-.47846 2.29569 2.29569 0 0 1-.737-.97572 4.219 4.219 0 0 1-.259-1.613v-8.84351a2.79034 2.79034 0 0 0-.81639-2.28984 3.107 3.107 0 0 0-2.0116-.65705 5.63962 5.63962 0 0 0-1.51386.19834 4.363 4.363 0 0 0-1.15479.47845v13.94207a9.4238 9.4238 0 0 1-1.2549.23876 12.794 12.794 0 0 1-1.77284.11938 9.33842 9.33842 0 0 1-1.57309-.11938 2.674 2.674 0 0 1-1.17547-.47846 2.29107 2.29107 0 0 1-.73649-.97572 4.20991 4.20991 0 0 1-.259-1.613V454.8569q.43781-.08037 1.29438-.219a10.74786 10.74786 0 0 1 1.73289-.14006 9.45573 9.45573 0 0 1 1.57356.11938 2.69016 2.69016 0 0 1 1.175.47846 2.29943 2.29943 0 0 1 .737.97572 4.24049 4.24049 0 0 1 .259 1.613v3.90382a14.16878 14.16878 0 0 1 1.57309-.45778 9.80844 9.80844 0 0 1 2.33025-.25944 8.9278 8.9278 0 0 1 6.15465 1.97212 7.4689 7.4689 0 0 1 2.21041 5.87593zM223.38578 480.78865a9.39266 9.39266 0 0 1-1.25489.23876 12.78222 12.78222 0 0 1-1.77237.11938 9.34029 9.34029 0 0 1-1.57356-.11938 2.67433 2.67433 0 0 1-1.175-.47846 2.29569 2.29569 0 0 1-.737-.97572 4.219 4.219 0 0 1-.259-1.613V466.01a3.39286 3.39286 0 0 1 .33887-1.57356 3.68954 3.68954 0 0 1 .97572-1.175 7.03931 7.03931 0 0 1 1.57356-.93624 16.44579 16.44579 0 0 1 2.0116-.737 16.98727 16.98727 0 0 1 2.23061-.49726 14.93572 14.93572 0 0 1 2.31-.17954 5.43083 5.43083 0 0 1 3.02774.737 2.67469 2.67469 0 0 1 1.11531 2.41016 3.84655 3.84655 0 0 1-.15933 1.0951 5.01552 5.01552 0 0 1-.39856.97572q-.83613 0-1.71268.0799-.877.08037-1.71315.23876-.83613.15933-1.57309.33839a7.012 7.012 0 0 0-1.2549.4183zM232.82619 456.09112a3.50278 3.50278 0 0 1 1.01567-2.54928 4.00774 4.00774 0 0 1 5.37774 0 3.7071 3.7071 0 0 1 0 5.09855 4.00774 4.00774 0 0 1-5.37774 0A3.49974 3.49974 0 0 1 232.82619 456.09112zm7.09042 24.69753q-.43851.079-1.29438.219a10.87289 10.87289 0 0 1-1.73289.13912 9.34029 9.34029 0 0 1-1.57356-.11938 2.67433 2.67433 0 0 1-1.175-.47846 2.29569 2.29569 0 0 1-.737-.97572 4.219 4.219 0 0 1-.259-1.613V461.748q.43781-.08037 1.29485-.219a10.74639 10.74639 0 0 1 1.73242-.14006 9.346 9.346 0 0 1 1.57356.12032 2.67582 2.67582 0 0 1 1.175.47752 2.3052 2.3052 0 0 1 .737.97572 4.23468 4.23468 0 0 1 .259 1.613zM260.55053 475.05184a5.6051 5.6051 0 0 1-2.27057 4.74041q-2.2708 1.71315-6.69232 1.71268a18.87439 18.87439 0 0 1-3.1067-.23876 8.884 8.884 0 0 1-2.45011-.737 4.3833 4.3833 0 0 1-1.5933-1.2549 2.86811 2.86811 0 0 1-.57763-1.79258 3.05425 3.05425 0 0 1 .39856-1.613 4.0213 4.0213 0 0 1 .956-1.0951 15.85864 15.85864 0 0 0 2.64892 1.13552 10.89534 10.89534 0 0 0 3.44557.49726 4.02874 4.02874 0 0 0 1.89221-.35814 1.07335 1.07335 0 0 0 .65706-.956.99969.99969 0 0 0-.478-.87608 4.42685 4.42685 0 0 0-1.59329-.51794l-1.19474-.2397a11.17412 11.17412 0 0 1-5.15872-2.131 5.18532 5.18532 0 0 1-1.69294-4.16232 5.498 5.498 0 0 1 2.4299-4.66051 8.989 8.989 0 0 1 2.7683-1.23516 13.61888 13.61888 0 0 1 3.56542-.438 16.64324 16.64324 0 0 1 2.76829.219 9.076 9.076 0 0 1 2.25036.65706 4.07829 4.07829 0 0 1 1.51387 1.13552 2.568 2.568 0 0 1 .55789 1.65346 3.40144 3.40144 0 0 1-.33887 1.57356 3.54467 3.54467 0 0 1-.85634 1.09509 4.96079 4.96079 0 0 0-.956-.4183q-.638-.21853-1.394-.39855-.75717-.17907-1.53361-.29892a9.46873 9.46873 0 0 0-1.41423-.11938 5.45828 5.45828 0 0 0-2.03133.29892.99066.99066 0 0 0-.71722.93623.84237.84237 0 0 0 .39856.71722 4.57385 4.57385 0 0 0 1.5134.51794l1.23468.27824a11.76354 11.76354 0 0 1 5.43743 2.41016A5.22548 5.22548 0 0 1 260.55053 475.05184zM270.58831 474.17576a1.638 1.638 0 0 0 .65706 1.47392 3.32124 3.32124 0 0 0 1.85226.438 7.96079 7.96079 0 0 0 1.23516-.09964 6.89316 6.89316 0 0 0 1.11531-.2585 4.93347 4.93347 0 0 1 .61758.97571 2.97055 2.97055 0 0 1 .2585 1.29438 3.08037 3.08037 0 0 1-1.13505 2.47032q-1.135.956-4.00345.956a8.1599 8.1599 0 0 1-5.39748-1.5933q-1.89222-1.5933-1.89175-5.17845V457.60545c.29187-.0799.71017-.16544 1.25443-.25944a10.37959 10.37959 0 0 1 1.73289-.13912 5.09677 5.09677 0 0 1 2.72882.61758q.975.61758.97572 2.6085v2.54928h5.2184a6.89 6.89 0 0 1 .45778 1.096 4.58817 4.58817 0 0 1 .219 1.45418 2.765 2.765 0 0 1-.61711 2.01159 2.23454 2.23454 0 0 1-1.653.61664h-3.6251zM289.03062 460.871a11.4145 11.4145 0 0 1 3.20681.45872 7.89141 7.89141 0 0 1 2.72881 1.37428 11.80881 11.80881 0 0 1 2.6884-1.31506 11.09323 11.09323 0 0 1 3.6049-.51794 11.20819 11.20819 0 0 1 2.968.39856 7.5941 7.5941 0 0 1 2.58876 1.2549 6.07242 6.07242 0 0 1 1.81279 2.271 7.93258 7.93258 0 0 1 .6768 3.44509v12.54805a9.3977 9.3977 0 0 1-1.25443.23876 12.794 12.794 0 0 1-1.77284.11938 9.33447 9.33447 0 0 1-1.57309-.11938 2.674 2.674 0 0 1-1.17547-.47846 2.29569 2.29569 0 0 1-.737-.97572 4.22 4.22 0 0 1-.25849-1.613v-9.52031a2.07973 2.07973 0 0 0-.67727-1.73242 2.86575 2.86575 0 0 0-1.83253-.53767 3.191 3.191 0 0 0-1.19474.2585 3.44884 3.44884 0 0 0-.956.53767 1.2701 1.2701 0 0 1 .03948.29892v13.52377a11.381 11.381 0 0 1-1.29438.23876 12.50051 12.50051 0 0 1-1.73289.11938 9.34424 9.34424 0 0 1-1.57356-.11938 2.67429 2.67429 0 0 1-1.175-.47846 2.29569 2.29569 0 0 1-.737-.97572 4.219 4.219 0 0 1-.259-1.613v-9.52031a1.99906 1.99906 0 0 0-.737-1.73242 2.92121 2.92121 0 0 0-1.77237-.53767 3.16172 3.16172 0 0 0-1.23469.219 9.23311 9.23311 0 0 0-.87655.41829v13.98155a9.39255 9.39255 0 0 1-1.2549.23876 12.78222 12.78222 0 0 1-1.77237.11938 9.34017 9.34017 0 0 1-1.57355-.11938 2.67433 2.67433 0 0 1-1.175-.47846 2.29569 2.29569 0 0 1-.737-.97572 4.219 4.219 0 0 1-.259-1.613v-12.0301a2.87812 2.87812 0 0 1 .45825-1.71268 5.19425 5.19425 0 0 1 1.25443-1.19474 11.47232 11.47232 0 0 1 3.36613-1.55382A14.6707 14.6707 0 0 1 289.03062 460.871zM321.41547 460.871a16.343 16.343 0 0 1 3.92355.439 8.79692 8.79692 0 0 1 3.02727 1.33386 6.02364 6.02364 0 0 1 1.9317 2.271 7.26291 7.26291 0 0 1 .67727 3.24581v8.92341a2.47169 2.47169 0 0 1-.57763 1.69294 5.752 5.752 0 0 1-1.37428 1.13458 14.2317 14.2317 0 0 1-7.28922 1.55382 16.67233 16.67233 0 0 1-3.80418-.39856 9.01818 9.01818 0 0 1-2.90789-1.19474 5.48388 5.48388 0 0 1-1.87248-2.03134 6.01691 6.01691 0 0 1-.65705-2.86793 5.3917 5.3917 0 0 1 1.63324-4.22248 8.80677 8.80677 0 0 1 5.05861-1.83206l5.2184-.55836v-.27824a1.70855 1.70855 0 0 0-1.01567-1.65345 6.83749 6.83749 0 0 0-2.92762-.4982 13.60443 13.60443 0 0 0-2.94784.31866 15.74828 15.74828 0 0 0-2.58923.79711 2.75113 2.75113 0 0 1-.87655-1.096 3.46376 3.46376 0 0 1-.35814-1.53314 2.55834 2.55834 0 0 1 .49773-1.65346 3.871 3.871 0 0 1 1.53361-1.05562 12.03407 12.03407 0 0 1 2.72882-.63732A23.72059 23.72059 0 0 1 321.41547 460.871zm.31866 15.65475a8.92415 8.92415 0 0 0 1.49365-.13912 3.63924 3.63924 0 0 0 1.21495-.37882v-3.1866l-2.86793.2397a4.42184 4.42184 0 0 0-1.83253.47752 1.2882 1.2882 0 0 0-.71722 1.19474 1.58389 1.58389 0 0 0 .61758 1.29532A3.38113 3.38113 0 0 0 321.73413 476.52576zM351.44985 475.05184a5.6051 5.6051 0 0 1-2.27057 4.74041q-2.2708 1.71315-6.69232 1.71268a18.87439 18.87439 0 0 1-3.1067-.23876 8.884 8.884 0 0 1-2.45011-.737 4.3833 4.3833 0 0 1-1.5933-1.2549 2.86811 2.86811 0 0 1-.57763-1.79258 3.05425 3.05425 0 0 1 .39856-1.613 4.0213 4.0213 0 0 1 .956-1.0951 15.85864 15.85864 0 0 0 2.64892 1.13552 10.89534 10.89534 0 0 0 3.44557.49726 4.02877 4.02877 0 0 0 1.89221-.35814 1.07335 1.07335 0 0 0 .65706-.956.99969.99969 0 0 0-.478-.87608 4.42693 4.42693 0 0 0-1.59329-.51794l-1.19474-.2397a11.17412 11.17412 0 0 1-5.15872-2.131 5.18532 5.18532 0 0 1-1.69294-4.16232 5.498 5.498 0 0 1 2.4299-4.66051 8.989 8.989 0 0 1 2.7683-1.23516 13.61886 13.61886 0 0 1 3.56541-.438 16.64327 16.64327 0 0 1 2.7683.219 9.076 9.076 0 0 1 2.25036.65706 4.07829 4.07829 0 0 1 1.51387 1.13552 2.568 2.568 0 0 1 .55789 1.65346 3.40144 3.40144 0 0 1-.33887 1.57356 3.54467 3.54467 0 0 1-.85634 1.09509 4.96079 4.96079 0 0 0-.956-.4183q-.638-.21853-1.394-.39855-.75717-.17907-1.53361-.29892a9.46873 9.46873 0 0 0-1.41423-.11938 5.45825 5.45825 0 0 0-2.03133.29892.99066.99066 0 0 0-.71722.93623.84237.84237 0 0 0 .39856.71722 4.57386 4.57386 0 0 0 1.51339.51794l1.23469.27824a11.76354 11.76354 0 0 1 5.43743 2.41016A5.22548 5.22548 0 0 1 351.44985 475.05184z"/></svg>