<svg xmlns="http://www.w3.org/2000/svg" data-name="Layer 1" viewBox="0 0 512 512"><path fill="#fff" d="M504.10173,141.80746a21.37165,21.37165,0,0,0-5.47584-5.71028,22.15692,22.15692,0,0,0-3.6725-5.8895,19.88969,19.88969,0,0,0-9.21739-5.9701c-.257-.24317-.50417-.49443-.77615-.72319a49.27964,49.27964,0,0,0-18.01973-9.38519,21.36462,21.36462,0,0,0-4.37108-.93663q-.8315-.14994-1.66162-.3053a76.419,76.419,0,0,0-16.15728-1.73907c-.13014-.0009-.26027-.0009-.39041-.0018a75.76863,75.76863,0,0,0,3.8118-37.82716,68.20015,68.20015,0,0,0-27.79128-46.12081,70.41855,70.41855,0,0,0-54.32216-11.86906c-34.01175,6.20966-60.594,35.43516-63.20662,69.49329a74.91235,74.91235,0,0,0,3.5781,30.4395q-1.02737.11617-2.10111.28909a72.78413,72.78413,0,0,0-13.17178,1.38513,62.80242,62.80242,0,0,0-19.32155,5.998,35.5168,35.5168,0,0,0-15.32755,15.04549,37.1945,37.1945,0,0,0-9.65025-13.23167,50.675,50.675,0,0,0-20.17262-10.683,21.54752,21.54752,0,0,0-4.32515-.88529q-.899-.1567-1.79715-.317A81.61878,81.61878,0,0,0,203.971,111.1482l-1.1064-.0054a73.57057,73.57057,0,0,0,3.90457-37.93253A67.97683,67.97683,0,0,0,179.0027,27.81354c-16.164-11.64841-36.32946-16.08929-56.77676-12.50758-35.15822,6.15652-62.65455,35.3676-65.38113,69.45636a72.71648,72.71648,0,0,0,3.76542,30.42509c-.92852.08826-1.88631.20534-2.868.36114a77.50071,77.50071,0,0,0-13.60677,1.36532A66.25127,66.25127,0,0,0,24.36,122.79211c-13.68557,6.83648-21.14122,19.96548-19.45754,34.26347,1.66522,14.14488,12.71788,26.77224,26.88122,30.70878A75.73765,75.73765,0,0,0,42.273,189.78081a22.718,22.718,0,0,0,6.768.99427l1.01228-.0072a102.563,102.563,0,0,1,12.64988.40167c.081.0099.16256.01981.24361.02791,4.55165.49263,8.82051.60881,12.94933.72139q.64169.01757,1.28426.036c-1.47924,4.84165-2.96839,9.677-4.42737,14.41506l-2.75494,8.95741q-.17495.56738-.31206,1.14647l-2.72433,11.45748a18.43742,18.43742,0,0,0-.43409,2.70541c-.03242.38006-.07115.761-.109,1.142-.11933,1.1969-.26838,2.6865-.31792,4.35442-.44489,14.95,5.93543,27.43509,17.96345,35.15236.0184.01171.03743.02162.05583.03332v23.44992a23.83964,23.83964,0,0,0,1.90613,9.59774,21.71092,21.71092,0,0,0,7.181,8.94749,22.18361,22.18361,0,0,0,9.47391,3.90142,36.02856,36.02856,0,0,0,10.27814.08556,31.3207,31.3207,0,0,0,4.25625-.82856,23.15288,23.15288,0,0,0,3.15076.743,32.41307,32.41307,0,0,0,5.27844.41338,37.96594,37.96594,0,0,0,3.84777-.21345,32.35128,32.35128,0,0,0-3.71718,19.47016c1.66521,14.14758,12.71877,26.77584,26.87671,30.70968a75.79085,75.79085,0,0,0,10.47763,2.01645,22.961,22.961,0,0,0,6.77794.99427l1.04785-.0072a103.67546,103.67546,0,0,1,12.62016.40347c.08241.0099.16481.01981.24722.02881,4.55345.49083,8.825.607,12.95563.71959l1.27481.03512c-1.46844,4.80562-2.94633,9.60584-4.394,14.30879l-2.78827,9.06368q-.17425.56872-.31161,1.14647l-2.72477,11.45838a18.462,18.462,0,0,0-.43454,2.71172c-.03242.38275-.07115.76551-.10943,1.14827-.11888,1.19149-.267,2.67479-.317,4.34181-.4449,14.94822,5.93453,27.43239,17.96524,35.15416.01785.01126.0362.02072.054.032v23.44947a23.83947,23.83947,0,0,0,1.90613,9.59774,21.71092,21.71092,0,0,0,7.181,8.94749,22.18357,22.18357,0,0,0,9.4739,3.90142,36.06109,36.06109,0,0,0,10.27814.08556,31.32056,31.32056,0,0,0,4.25626-.82856,23.15252,23.15252,0,0,0,3.15076.743,32.41307,32.41307,0,0,0,5.27844.41338,37.63793,37.63793,0,0,0,4.9961-.32782,30.78361,30.78361,0,0,0,4.45078-.88259c.43234-.12384.85405-.26883,1.2712-.42194a36.456,36.456,0,0,0,12.36124,2.07454,37.465,37.465,0,0,0,12.0915-1.92369,31.537,31.537,0,0,0,11.27016-6.64015,30.70351,30.70351,0,0,0,7.674-11.12606,34.455,34.455,0,0,0,2.451-13.05155,33.66429,33.66429,0,0,0-2.46911-12.84486,34.59436,34.59436,0,0,0,12.19293-5.98136,33.78377,33.78377,0,0,0,13.36586-26.45883,47.936,47.936,0,0,0-2.27087-14.19352c-.12518-.444-.25037-.88889-.3715-1.33469a18.58816,18.58816,0,0,0-.60565-1.83813l-5.09292-13.10649-.00945-.02432c-1.76969-4.54985-3.68167-9.16634-5.75351-13.8855.09141.009.18237.01891.27333.02792a51.81175,51.81175,0,0,0,7.57.14859c.476-.01711.95193-.03512,1.427-.04322a56.70916,56.70916,0,0,0,17.16731-1.56705,104.90565,104.90565,0,0,0,18.796-6.578c9.78866-4.36343,21.67618-13.8621,22.71908-34.33192a34.66755,34.66755,0,0,0-3.0249-16.20861c.41557.095.8352.18012,1.25972.25262a34.72494,34.72494,0,0,0,10.30786.09276,31.50114,31.50114,0,0,0,3.85548-.752,22.77189,22.77189,0,0,0,2.79818.65925,31.27928,31.27928,0,0,0,5.31266.435,36.1303,36.1303,0,0,0,4.9934-.34223,29.75634,29.75634,0,0,0,4.476-.92672,18.44456,18.44456,0,0,0,13.16052-17.67165v-16.726c0-1.17709-.066-2.29429-.16819-3.37637a22.52668,22.52668,0,0,0,4.58272-3.40022,20.59063,20.59063,0,0,0,13.14786-12.27568,19.27831,19.27831,0,0,0,6.03174-22.93478,49.30534,49.30534,0,0,0-2.15436-13.93414c-.12023-.4458-.24091-.8916-.35754-1.3392a18.45348,18.45348,0,0,0-.56288-1.78139l-4.79256-12.85972q-.104-.29449-.21795-.58449c-1.68277-4.49762-3.50109-9.06368-5.46891-13.73061a51.28085,51.28085,0,0,0,6.84819.09186c.43454-.01621.86908-.03332,1.30272-.04142a53.48848,53.48848,0,0,0,16.84715-1.61569,98.90114,98.90114,0,0,0,18.23407-6.65095,40.95756,40.95756,0,0,0,5.28114-2.94228,18.43633,18.43633,0,0,0,3.8923-3.45021,22.62955,22.62955,0,0,0,15.71744-14.55421,19.25546,19.25546,0,0,0,5.2816-8.7282A19.641,19.641,0,0,0,504.10173,141.80746Z"/><path fill="#913808" d="M87.63031 220.73944c3.38593-11.03069 6.80748-22.05144 10.13426-33.09857a21.91792 21.91792 0 0 0 .55244-9.17137 3.7357 3.7357 0 0 0-3.13881-3.48878c-4.65495-1.32664-9.46757-1.16608-14.20648-1.3555-5.35047-.21385-10.71017-.18864-16.04288-.76456-.72993-.76512-.29246-1.58357-.11256-2.38659a14.57637 14.57637 0 0 0-4.42164-14.65846 33.37214 33.37214 0 0 1-3.14917-3.31515 12.85356 12.85356 0 0 1 2.26326-18.53009c5.0864-1.06475 10.30545-.2553 15.42462-1.05923 6.3808-1.00209 12.844-.39759 19.30008-.60175.23243-1.02908-.76171-1.20224-1.25062-1.63675-13.51747-12.01347-19.15965-26.843-17.75232-44.43995 1.90071-23.7661 21.47857-47.73328 50.17658-52.759 30.8619-5.40469 58.80645 13.64793 63.1208 42.46773 3.09115 20.649-4.04576 37.9649-19.70755 52.19259-.67562.61376-1.64171.99345-1.99087 2.155 12.51191-1.02457 24.933-.74452 37.35048-.6961a9.4166 9.4166 0 0 0 3.17222.21346c2.08958.12149 2.426.62315 1.33127 2.38687-.9463 1.52463-2.01887 2.97863-2.96013 4.51047-3.39391 5.52325-4.45261 11.3685-2.22641 17.50088a10.24058 10.24058 0 0 1-.4554 8.91842 18.55573 18.55573 0 0 0-2.07852 9.7966c.06485 1.464.44115 2.98922-.26493 4.42744a66.43264 66.43264 0 0 1-7.28821.00148c-10.40743-1.09739-20.72517.59275-31.18592.56236a395.19027 395.19027 0 0 1 17.53542 38.32161c.4001 3.74445-5.311 11.21488-9.06728 11.83641a9.26671 9.26671 0 0 1-5.61385-1.16516c-5.18667-2.50888-9.92933-1.83324-14.422 1.58724a56.21574 56.21574 0 0 1-5.00863 3.85415c-1.02568.61335-2.0316 1.54986-3.40824.71488-3.6844-4.56331-6.30153-9.82372-10.15267-14.2883-1.23555-1.43233-1.81835-1.51553-2.72442.23913a112.84388 112.84388 0 0 0-5.32652 12.97506c-1.36034.26762-1.86162-.824-2.50453-1.55976-3.99665-4.57381-8.88378-6.093-14.8472-4.17218a25.11485 25.11485 0 0 0-2.79854.75647c-5.47111 2.50587-10.16308.98184-14.52333-2.48067C88.10689 223.533 87.05993 222.48842 87.63031 220.73944zM221.28086 131.7027c4.88957 1.40332 9.45116 3.35553 13.25508 6.77091 4.214 3.78349 6.48208 8.22817 6.19282 13.90537-.42207 8.283-3.52828 14.73363-11.8089 18.4246a86.66848 86.66848 0 0 1-15.8376 5.546c-1.83915.58-2.73449-.37624-3.26432-1.87931a7.602 7.602 0 0 1 .00576-4.96746 31.59973 31.59973 0 0 1 1.68118-4.18646c2.00291-4.11007 2.4284-8.2035.34429-12.4327-2.42631-4.92366-1.09109-9.48925 1.70214-13.83881 1.2775-1.98926 2.63991-3.92941 4.04937-5.83553C218.49413 132.00109 219.5679 131.10533 221.28086 131.7027zM47.31228 171.83225a74.17956 74.17956 0 0 1-10.59245-1.83951c-6.90808-1.91951-12.7147-8.42732-13.49969-15.09455-.7825-6.6461 2.62787-12.23118 9.3815-15.60461A48.05067 48.05067 0 0 1 47.31483 135.088c1.72125 1.05339.46908 2.30426.05833 3.28851-2.40048 5.752-1.7507 11.20643 1.50178 16.43575a38.39642 38.39642 0 0 0 5.22349 6.40718c1.87363 1.92455 3.08037 4.12054 2.20277 6.89263-.93087 2.94027-2.28046 3.92236-5.51371 3.90211A10.45089 10.45089 0 0 1 47.31228 171.83225zM184.86038 229.36c.93034 3.41862 2.05357 6.75932 1.9978 10.402-.15545 10.15108-9.95205 17.51079-20.23181 14.88467-8.17512-2.08843-13.743-7.36823-17.93643-14.18445 2.37221-3.21068 5.77908-5.137 9.34423-6.81462 1.22645-.57714 2.48349.001 3.60379.609 6.3663 3.45508 14.45347 3.49148 20.27878-3.76366C182.5681 229.68169 183.25408 228.20675 184.86038 229.36zM119.49317 242.15136a49.85633 49.85633 0 0 1-9.27282 12.2092A12.65178 12.65178 0 0 1 94.02621 255.763c-7.10528-4.55964-9.72482-11.16715-9.48913-19.08142.04457-1.4965.24191-2.9888.36875-4.483 1.3149-.603 2.25053.24935 3.173.859a18.372 18.372 0 0 0 17.195 2.02222c.72814-.26049 1.47293-.47925 2.22-.687 4.5751-1.27239 5.78529-.9597 8.1279 3.01377C116.69022 239.21874 118.89435 240.0643 119.49317 242.15136z"/><path fill="#e3d8cb" d="M221.28086 131.7027a2.607 2.607 0 0 0-2.47851 1.13229 75.61985 75.61985 0 0 0-5.92945 9.01182c-1.7299 3.35828-2.14043 6.83949-.43174 10.29246 2.364 4.77721 1.97567 9.36227-.39618 14.02661-1.31734 2.59056-2.51683 5.28835-1.42867 8.35475.44113 1.243 1.06259 1.93988 2.466 1.829a39.49283 39.49283 0 0 1-12.38425.99743 19.30154 19.30154 0 0 1 1.83935-14.97851 7.93265 7.93265 0 0 0 .38236-7.2432c-2.51112-6.362-1.64693-12.52457 1.84627-18.36456 1.25786-2.103 2.68164-4.11425 4.15271-6.35469-1.54941-.73094-3.33594.05607-4.73864-.81327C209.99422 129.44222 215.60669 130.80357 221.28086 131.7027zM47.31228 171.83225a10.8825 10.8825 0 0 1 2.04091-.02523A5.07578 5.07578 0 0 0 55.1663 169.074c1.35035-2.40163.71428-4.57032-.87149-6.53814-1.37094-1.70122-3.04726-3.17691-4.39677-4.89183-4.74644-6.03153-6.32214-12.55547-3.14715-19.7937.366-.83428 1.36771-1.664.56394-2.76231a62.217 62.217 0 0 1 12.19392-1.1176c-.82733 1.37-1.69728 2.71807-2.47462 4.11378-3.52349 6.32648-2.94187 10.52318 2.44416 15.59365 4.13046 3.88847 6.88136 8.25305 6.66074 14.0252-.06944 1.81715-.81537 3.43811-1.21019 5.15766a125.75887 125.75887 0 0 0-16.00592-.53022A2.03182 2.03182 0 0 1 47.31228 171.83225zM184.86038 229.36c-1.50419-.47743-1.76063.90527-2.35074 1.58732-5.85386 6.76611-12.65348 8.23855-20.69931 4.114-2.33117-1.19506-4.0859-1.10039-6.07966.43668-2.26841 1.74885-4.68729 3.31732-7.04074 4.9642q-3.22533-3.701-6.45064-7.40215c2.16238-.043 3.37124-1.6717 4.85686-2.78223 2.52678-1.88881 4.91751-3.975 7.9613-5.08086 3.83083-1.3918 7.3862-.46541 10.90583 1.22356 4.14418 1.98868 5.91454 1.5412 8.7541-1.96185 1.43031-1.76449 2.73971-3.61932 4.16068-5.39112a3.41577 3.41577 0 0 0 .88125-2.835Q182.30987 222.79624 184.86038 229.36zM119.49316 242.15136a12.12965 12.12965 0 0 1-4.80733-5.03532c-1.11047-2.32255-2.98076-3.36865-5.70351-2.32464-.80655.30926-1.70291.40221-2.50909.71214-7.191 2.76459-13.86114 2.00057-20.005-2.624a7.31115 7.31115 0 0 0-1.56237-.68106q1.36225-5.72949 2.72449-11.45907c1.23756 4.37893 8.60229 7.8474 13.588 6.3775 1.95325-.57586 3.86021-1.31213 5.83436-1.80438 6.72587-1.67706 11.4096-.05387 15.62123 5.29609.39773.5052.59489 1.20542 1.3618 1.37724zM132.18986 124.18263c-9.54063-.09511-17.68648-4.2584-24.99465-10.22847a69.61432 69.61432 0 0 1-12.05773-12.97488c-1.25739-1.7185-1.79657-3.53716.1658-4.97 2.16268-1.579 3.80617-.351 5.129 1.43417a59.8831 59.8831 0 0 0 15.51118 15.14875c13.9627 9.01287 28.37635 6.657 38.50623-6.33483a54.81868 54.81868 0 0 0 6.41891-10.69062c.88144-1.895 2.20335-3.35166 4.51039-2.40554 2.265.92887 2.27118 2.83616 1.38164 4.77533-4.04448 8.81719-9.41252 16.6153-18.13724 21.854A31.12532 31.12532 0 0 1 132.18986 124.18263z"/><path fill="#26a526" d="M111.6861,147.6694c0-.46867-.00471-.93739.00074-1.406.05189-4.4637,2.46376-6.11,6.88563-4.48133a56.89228,56.89228,0,0,0,8.87982,2.66753,6.07928,6.07928,0,0,0,4.42193-.70338c2.44771-1.35288,4.92693-2.6632,7.45911-3.86219,3.24437-1.53622,6.00026-.532,7.28224,2.71549a28.70564,28.70564,0,0,1,2.00615,8.73169c.25118,4.00643-2.27038,5.97479-6.38248,5.56441a103.02028,103.02028,0,0,1-11.71512-2.20481,3.73638,3.73638,0,0,0-3.41669.733c-2.31567,1.67225-4.55534,3.53246-7.59661,3.99965-3.84112.59008-6.27086-.85479-7.005-4.51591-.4767-2.37724-.63677-4.81315-.9387-7.22279Z"/><path fill="#e3d8cb" d="M151.84977 83.49172c-.01943 3.89068-3.64705 7.1926-7.81909 7.11705a7.66045 7.66045 0 0 1-7.4761-7.51257c-.05064-4.33794 4.05715-8.22324 8.53092-8.2979C149.54146 74.72393 151.2069 78.95012 151.84977 83.49172zM115.94772 89.644a7.433 7.433 0 0 1-7.143-7.49238c.00856-4.12562 3.87816-8.193 7.74453-8.14047 4.0588.05519 6.87754 3.68464 6.73271 8.66913A7.2547 7.2547 0 0 1 115.94772 89.644z"/><path fill="#d64142" d="M124.00718 165.09065a4.4274 4.4274 0 0 1 4.71-4.58818 4.48683 4.48683 0 0 1 4.70514 4.38873c.07354 2.76244-2.00454 4.68087-5.02981 4.64339C125.46485 169.49831 124.02666 168.04089 124.00718 165.09065zM134.40263 177.953a5.09607 5.09607 0 0 1-4.77208 5.33551 4.77038 4.77038 0 0 1-4.906-4.53136 5.24657 5.24657 0 0 1 4.85774-4.74126C131.949 173.99078 134.36211 175.96177 134.40263 177.953zM130.00805 298.68812a13.83909 13.83909 0 0 1-1.80886.33052 19.14192 19.14192 0 0 1-2.55456.16571 13.98874 13.98874 0 0 1-2.26817-.16571 3.938 3.938 0 0 1-1.69359-.66194 3.20032 3.20032 0 0 1-1.06226-1.35271 5.64539 5.64539 0 0 1-.37285-2.2353V282.51418a3.78662 3.78662 0 0 0-1.17709-3.17373 4.59684 4.59684 0 0 0-2.89949-.91051 8.43217 8.43217 0 0 0-2.18171.27558 6.38334 6.38334 0 0 0-1.66477.66285v19.31975a13.84429 13.84429 0 0 1-1.80841.33052 19.15367 19.15367 0 0 1-2.555.16571 13.97893 13.97893 0 0 1-2.26772-.16571 3.94 3.94 0 0 1-1.694-.66194 3.19927 3.19927 0 0 1-1.06181-1.35271 5.63664 5.63664 0 0 1-.3733-2.2353V262.75313q.63087-.11077 1.86605-.3035a16.12023 16.12023 0 0 1 2.49737-.19363 13.99477 13.99477 0 0 1 2.26772.16571 3.96539 3.96539 0 0 1 1.69359.66194 3.21272 3.21272 0 0 1 1.06226 1.35271 5.66189 5.66189 0 0 1 .3733 2.2353v5.40992a20.97369 20.97369 0 0 1 2.26772-.63492 14.66249 14.66249 0 0 1 3.3588-.35844q5.68393 0 8.87 2.73243 3.18678 2.73153 3.18678 8.14146zM163.76628 285.32947a16.0693 16.0693 0 0 1-1.09063 6.09978 12.33283 12.33283 0 0 1-3.072 4.49852 13.16224 13.16224 0 0 1-4.73627 2.76035 18.99273 18.99273 0 0 1-6.14347.93843 17.99741 17.99741 0 0 1-6.143-.99427 13.60239 13.60239 0 0 1-4.73672-2.8423 12.65262 12.65262 0 0 1-3.07151-4.49852 15.526 15.526 0 0 1-1.09108-5.962 15.37074 15.37074 0 0 1 1.09108-5.90616 12.65262 12.65262 0 0 1 3.07151-4.49852 13.6179 13.6179 0 0 1 4.73672-2.84321 18.01973 18.01973 0 0 1 6.143-.99336 17.57077 17.57077 0 0 1 6.14347 1.02128 13.94714 13.94714 0 0 1 4.73627 2.87023 12.6593 12.6593 0 0 1 3.072 4.49851A15.24717 15.24717 0 0 1 163.76628 285.32947zm-20.09472 0a8.46314 8.46314 0 0 0 1.34956 5.16136 4.43684 4.43684 0 0 0 3.76047 1.794 4.26267 4.26267 0 0 0 3.70283-1.82192 8.7721 8.7721 0 0 0 1.29192-5.13344 8.50078 8.50078 0 0 0-1.32029-5.10553 4.77852 4.77852 0 0 0-7.46375 0A8.4944 8.4944 0 0 0 143.67156 285.32947z"/><path fill="#913808" d="M208.5032 400.57109c3.38592-11.03069 6.80748-22.05144 10.13426-33.09857a21.91792 21.91792 0 0 0 .55243-9.17137 3.73569 3.73569 0 0 0-3.1388-3.48878c-4.65495-1.32664-9.46757-1.16609-14.20648-1.3555-5.35047-.21385-10.71017-.18864-16.04289-.76456-.72993-.76512-.29245-1.58357-.11255-2.38659a14.57635 14.57635 0 0 0-4.42165-14.65846 33.372 33.372 0 0 1-3.14916-3.31515 12.85356 12.85356 0 0 1 2.26326-18.53009c5.08639-1.06475 10.30545-.2553 15.42462-1.05923 6.3808-1.00209 12.844-.39759 19.30008-.60175.23242-1.02908-.76171-1.20224-1.25062-1.63675-13.51747-12.01347-19.15966-26.843-17.75232-44.44 1.9007-23.76611 21.47856-47.73328 50.17658-52.759 30.86189-5.40469 58.80644 13.64793 63.12079 42.46773 3.09116 20.649-4.04575 37.9649-19.70754 52.19259-.67563.61376-1.64172.99345-1.99087 2.155 12.5119-1.02457 24.933-.74452 37.35048-.6961a9.41654 9.41654 0 0 0 3.17221.21346c2.08959.12149 2.426.62315 1.33128 2.38687-.9463 1.52463-2.01887 2.97863-2.96014 4.51046-3.3939 5.52326-4.4526 11.36851-2.22641 17.50089a10.24061 10.24061 0 0 1-.45539 8.91842 18.55563 18.55563 0 0 0-2.07852 9.7966c.06485 1.464.44115 2.98922-.26493 4.42744a66.43264 66.43264 0 0 1-7.28821.00148c-10.40743-1.09739-20.72517.59274-31.18592.56236a395.19027 395.19027 0 0 1 17.53542 38.32161c.40009 3.74445-5.31106 11.21488-9.06729 11.83641a9.2667 9.2667 0 0 1-5.61384-1.16516c-5.18667-2.50888-9.92934-1.83324-14.422 1.58724a56.2156 56.2156 0 0 1-5.00862 3.85415c-1.02569.61335-2.0316 1.54986-3.40824.71488-3.6844-4.56331-6.30154-9.82372-10.15268-14.2883-1.23554-1.43233-1.81834-1.51553-2.72441.23912a112.84118 112.84118 0 0 0-5.32652 12.97507c-1.36034.26762-1.86162-.824-2.50453-1.55976-3.99665-4.57381-8.88378-6.093-14.8472-4.17218a25.11426 25.11426 0 0 0-2.79854.75647c-5.47111 2.50587-10.16308.98184-14.52333-2.48067C208.97977 403.36462 207.93281 402.32007 208.5032 400.57109zM342.15374 311.53435c4.88957 1.40332 9.45117 3.35553 13.25509 6.77091 4.214 3.78349 6.48208 8.22817 6.19282 13.90537-.42208 8.283-3.52828 14.73363-11.8089 18.4246a86.66875 86.66875 0 0 1-15.8376 5.546c-1.83915.58-2.7345-.37624-3.26432-1.87931a7.602 7.602 0 0 1 .00576-4.96746 31.601 31.601 0 0 1 1.68117-4.18646c2.00292-4.11007 2.42841-8.2035.34429-12.4327-2.42631-4.92366-1.09108-9.48925 1.70215-13.83881 1.27749-1.98926 2.63991-3.92941 4.04936-5.83553C339.367 311.83274 340.44078 310.937 342.15374 311.53435zM168.18516 351.6639a74.18 74.18 0 0 1-10.59245-1.83951c-6.90807-1.91951-12.71469-8.42733-13.49968-15.09455-.7825-6.6461 2.62786-12.23118 9.3815-15.60461a48.05059 48.05059 0 0 1 14.71319-4.20561c1.72125 1.05339.46908 2.30426.05832 3.28851-2.40048 5.752-1.75069 11.20642 1.50178 16.43575a38.39642 38.39642 0 0 0 5.22349 6.40718c1.87364 1.92454 3.08038 4.12054 2.20277 6.89263-.93086 2.94027-2.28046 3.92236-5.51371 3.90211A10.45089 10.45089 0 0 1 168.18516 351.6639zM305.73327 409.19164c.93034 3.41862 2.05356 6.75932 1.9978 10.402-.15545 10.15108-9.95206 17.51079-20.23181 14.88467-8.17513-2.08843-13.743-7.36823-17.93643-14.18445 2.37221-3.21068 5.77907-5.137 9.34423-6.81462 1.22644-.57714 2.48349.00105 3.60378.60905 6.36631 3.45508 14.45347 3.49148 20.27879-3.76366C303.441 409.51334 304.127 408.03839 305.73327 409.19164zM240.36605 421.983a49.85629 49.85629 0 0 1-9.27281 12.2092 12.65178 12.65178 0 0 1-16.19414 1.40246c-7.10529-4.55964-9.72483-11.16715-9.48913-19.08142.04457-1.4965.24191-2.9888.36875-4.483 1.3149-.603 2.25053.24935 3.173.85895a18.372 18.372 0 0 0 17.195 2.02222c.72813-.26049 1.47293-.47925 2.22-.687 4.57509-1.2724 5.78529-.9597 8.1279 3.01377C237.56311 419.05039 239.76724 419.896 240.36605 421.983z"/><path fill="#e3d8cb" d="M342.15374 311.53435a2.607 2.607 0 0 0-2.4785 1.13229 75.61862 75.61862 0 0 0-5.92945 9.01182c-1.7299 3.35828-2.14043 6.83949-.43175 10.29246 2.364 4.77721 1.97567 9.36227-.39618 14.02661-1.31733 2.59056-2.51682 5.28835-1.42867 8.35475.44113 1.243 1.0626 1.93988 2.466 1.829a39.49285 39.49285 0 0 1-12.38425.99743 19.30154 19.30154 0 0 1 1.83935-14.97851 7.93265 7.93265 0 0 0 .38236-7.2432c-2.51113-6.362-1.64693-12.52457 1.84626-18.36456 1.25787-2.103 2.68165-4.11425 4.15272-6.35469-1.54942-.73094-3.33595.05607-4.73865-.81327C330.8671 309.27387 336.47957 310.63522 342.15374 311.53435zM168.18516 351.6639a10.88261 10.88261 0 0 1 2.04092-.02523 5.07578 5.07578 0 0 0 5.81311-2.73307c1.35035-2.40163.71428-4.57032-.8715-6.53814-1.37093-1.70122-3.04725-3.17691-4.39676-4.89183-4.74644-6.03153-6.32214-12.55547-3.14715-19.7937.36595-.83428 1.36771-1.664.56393-2.76231a62.217 62.217 0 0 1 12.19392-1.1176c-.82732 1.37-1.69727 2.71807-2.47461 4.11378-3.5235 6.32648-2.94187 10.52318 2.44416 15.59365 4.13046 3.88847 6.88136 8.253 6.66074 14.0252-.06945 1.81715-.81538 3.4381-1.2102 5.15766a125.75871 125.75871 0 0 0-16.00591-.53022A2.03184 2.03184 0 0 1 168.18516 351.6639zM305.73327 409.19164c-1.50419-.47743-1.76063.90527-2.35074 1.58732-5.85386 6.76611-12.65349 8.23855-20.69931 4.114-2.33117-1.19506-4.0859-1.10039-6.07966.43668-2.26841 1.74885-4.68729 3.31732-7.04075 4.9642q-3.22532-3.701-6.45063-7.40215c2.16238-.043 3.37124-1.6717 4.85686-2.78223 2.52678-1.88881 4.9175-3.975 7.96129-5.08086 3.83084-1.3918 7.3862-.46541 10.90583 1.22356 4.14419 1.98868 5.91454 1.5412 8.7541-1.96185 1.43032-1.7645 2.73972-3.61932 4.16069-5.39112a3.41576 3.41576 0 0 0 .88124-2.835Q303.18276 402.62789 305.73327 409.19164zM240.366 421.983a12.12971 12.12971 0 0 1-4.80733-5.03532c-1.11046-2.32255-2.98075-3.36865-5.70351-2.32464-.80655.30926-1.7029.40221-2.50908.71214-7.191 2.76459-13.86114 2.00057-20.005-2.624a7.311 7.311 0 0 0-1.56238-.68106q1.36226-5.72949 2.7245-11.45907c1.23755 4.37893 8.60228 7.8474 13.588 6.3775 1.95325-.57586 3.8602-1.31213 5.83436-1.80438 6.72586-1.67706 11.4096-.05387 15.62122 5.29609.39774.5052.5949 1.20542 1.36181 1.37724zM253.06275 304.01427c-9.54063-.0951-17.68648-4.25839-24.99466-10.22846a69.61427 69.61427 0 0 1-12.05772-12.97488c-1.2574-1.7185-1.79657-3.53716.1658-4.97 2.16268-1.579 3.80617-.351 5.129 1.43417a59.88314 59.88314 0 0 0 15.51119 15.14875c13.96269 9.01287 28.37634 6.657 38.50622-6.33483a54.8177 54.8177 0 0 0 6.41891-10.69062c.88144-1.895 2.20336-3.35166 4.51039-2.40554 2.265.92887 2.27119 2.83616 1.38165 4.77533-4.04449 8.81719-9.41253 16.6153-18.13724 21.854A31.12522 31.12522 0 0 1 253.06275 304.01427z"/><path fill="#26a526" d="M232.559,327.50105c0-.46867-.00472-.93739.00073-1.406.0519-4.4637,2.46376-6.11,6.88564-4.48133a56.892,56.892,0,0,0,8.87982,2.66753,6.07929,6.07929,0,0,0,4.42193-.70338c2.44771-1.35288,4.92692-2.6632,7.4591-3.86219,3.24438-1.53622,6.00027-.532,7.28225,2.71549a28.70564,28.70564,0,0,1,2.00615,8.73169c.25118,4.00643-2.27038,5.97479-6.38249,5.56441a103.02011,103.02011,0,0,1-11.71511-2.20481,3.7364,3.7364,0,0,0-3.4167.733c-2.31567,1.67225-4.55533,3.53246-7.59661,3.99965-3.84111.59008-6.27086-.85479-7.005-4.51591-.4767-2.37724-.63677-4.81316-.9387-7.22279Z"/><path fill="#e3d8cb" d="M272.72266 263.32337c-.01943 3.89068-3.64706 7.1926-7.81909 7.11705a7.66046 7.66046 0 0 1-7.47611-7.51257c-.05063-4.33794 4.05716-8.22324 8.53093-8.2979C270.41435 254.55558 272.07978 258.78177 272.72266 263.32337zM236.82061 269.47566a7.433 7.433 0 0 1-7.143-7.49238c.00857-4.12562 3.87816-8.193 7.74453-8.14047 4.0588.05519 6.87754 3.68464 6.73272 8.66913A7.2547 7.2547 0 0 1 236.82061 269.47566z"/><path fill="#d64142" d="M244.88007 344.9223a4.4274 4.4274 0 0 1 4.71-4.58818 4.48684 4.48684 0 0 1 4.70515 4.38873c.07353 2.76244-2.00454 4.68087-5.02981 4.64339C246.33773 349.33 244.89954 347.87254 244.88007 344.9223zM255.27552 357.78461a5.09607 5.09607 0 0 1-4.77209 5.33551 4.77036 4.77036 0 0 1-4.90594-4.53136 5.24657 5.24657 0 0 1 4.85774-4.74126C252.82188 353.82243 255.235 355.79342 255.27552 357.78461zM250.88078 478.51977a13.83943 13.83943 0 0 1-1.80886.33052 19.14192 19.14192 0 0 1-2.55456.16571 13.98866 13.98866 0 0 1-2.26817-.16571 3.938 3.938 0 0 1-1.69359-.66194 3.20017 3.20017 0 0 1-1.06226-1.35271 5.64539 5.64539 0 0 1-.37285-2.2353V462.34583a3.78665 3.78665 0 0 0-1.17709-3.17373 4.59686 4.59686 0 0 0-2.89949-.91051 8.43219 8.43219 0 0 0-2.18172.27558 6.38341 6.38341 0 0 0-1.66476.66285v19.31975a13.84418 13.84418 0 0 1-1.80842.33052 19.15367 19.15367 0 0 1-2.555.16571 13.9791 13.9791 0 0 1-2.26772-.16571 3.93988 3.93988 0 0 1-1.694-.66194 3.19936 3.19936 0 0 1-1.06182-1.35271 5.63682 5.63682 0 0 1-.3733-2.2353V442.58478q.63089-.11078 1.86606-.3035a16.12013 16.12013 0 0 1 2.49737-.19363 13.99486 13.99486 0 0 1 2.26772.16571 3.9653 3.9653 0 0 1 1.69358.66194 3.21274 3.21274 0 0 1 1.06227 1.35271 5.66207 5.66207 0 0 1 .3733 2.2353v5.40992a20.97369 20.97369 0 0 1 2.26772-.63492 14.66249 14.66249 0 0 1 3.3588-.35844q5.68393 0 8.87 2.73243 3.18679 2.73153 3.18679 8.14146zM284.639 465.16111a16.06935 16.06935 0 0 1-1.09063 6.09979 12.333 12.333 0 0 1-3.072 4.49852 13.16224 13.16224 0 0 1-4.73627 2.76035 18.99277 18.99277 0 0 1-6.14347.93843 17.99737 17.99737 0 0 1-6.143-.99427 13.60253 13.60253 0 0 1-4.73673-2.8423 12.65275 12.65275 0 0 1-3.07151-4.49852 15.5262 15.5262 0 0 1-1.09108-5.962 15.37092 15.37092 0 0 1 1.09108-5.90615 12.65275 12.65275 0 0 1 3.07151-4.49852 13.618 13.618 0 0 1 4.73673-2.84321 18.01969 18.01969 0 0 1 6.143-.99336 17.57081 17.57081 0 0 1 6.14347 1.02128 13.94714 13.94714 0 0 1 4.73627 2.87023 12.65943 12.65943 0 0 1 3.072 4.49851A15.24712 15.24712 0 0 1 284.639 465.16111zm-20.09472 0a8.4631 8.4631 0 0 0 1.34956 5.16136 4.43683 4.43683 0 0 0 3.76047 1.794 4.26269 4.26269 0 0 0 3.70283-1.82192 8.77212 8.77212 0 0 0 1.29191-5.13345 8.50077 8.50077 0 0 0-1.32028-5.10552 4.77852 4.77852 0 0 0-7.46375 0A8.49439 8.49439 0 0 0 264.54429 465.16111z"/><path fill="#913808" d="M333.13561 220.73966c3.24771-11.0307 6.5296-22.05147 9.72059-33.09861a22.82074 22.82074 0 0 0 .52988-9.17138 3.68323 3.68323 0 0 0-3.01068-3.48879c-4.46494-1.32664-9.08111-1.16608-13.62658-1.35549-5.13206-.21385-10.273-.18864-15.388-.76456-.70013-.76513-.28051-1.58358-.108-2.3866a14.9696 14.9696 0 0 0-4.24115-14.65848 32.83083 32.83083 0 0 1-3.02062-3.31515 13.21468 13.21468 0 0 1 2.17087-18.53011c4.87878-1.06475 9.88479-.2553 14.795-1.05923 6.12034-1.00209 12.3197-.39759 18.51225-.60175.22294-1.02909-.73061-1.20224-1.19957-1.63676-12.96569-12.01348-18.37756-26.843-17.02768-44.44 1.82313-23.76613 20.60183-47.73333 48.1284-52.75909 29.60212-5.4047 56.406 13.64794 60.54422 42.46778 2.965 20.649-3.88061 37.96494-18.90309 52.19265-.648.61376-1.5747.99345-1.9096 2.155 12.00117-1.02458 23.91524-.74452 35.82585-.69611a8.67372 8.67372 0 0 0 3.04273.21346c2.00428.1215 2.32692.62315 1.27693 2.38688-.90768 1.52463-1.93646 2.97863-2.83931 4.51047-3.25536 5.52326-4.27085 11.36852-2.13552 17.5009a10.63065 10.63065 0 0 1-.43681 8.91843 19.21893 19.21893 0 0 0-1.99368 9.79661c.0622 1.464.42315 2.98923-.25411 4.42745a61.12386 61.12386 0 0 1-6.99071.00148c-9.9826-1.0974-19.87918.59274-29.91292.56236A403.46926 403.46926 0 0 1 421.504 216.2327c.38376 3.74445-5.09426 11.21489-8.69716 11.83641a8.58826 8.58826 0 0 1-5.38469-1.16515c-4.975-2.50889-9.524-1.83324-13.83332 1.58723a54.246 54.246 0 0 1-4.80417 3.85416c-.98382.61335-1.94867 1.54986-3.26912.71488-3.534-4.56331-6.04431-9.82373-9.73824-14.28832-1.18511-1.43233-1.74413-1.51552-2.61321.23913a115.60819 115.60819 0 0 0-5.10909 12.97508c-1.30481.26762-1.78563-.824-2.4023-1.55976-3.83351-4.57381-8.52115-6.093-14.24114-4.17218a23.31507 23.31507 0 0 0-2.68431.75646c-5.24778 2.50588-9.74823.98185-13.93049-2.48067C333.59273 223.53319 332.58851 222.48864 333.13561 220.73966zM294.46334 171.83241a68.51557 68.51557 0 0 1-10.16007-1.83951c-6.62608-1.91951-12.19568-8.42734-12.94863-15.09457-.75056-6.64611 2.5206-12.23119 8.99855-15.60463a44.6647 44.6647 0 0 1 14.11261-4.20561c1.651 1.05339.44993 2.30427.05594 3.28852a17.67888 17.67888 0 0 0 1.44048 16.43576 38.12662 38.12662 0 0 0 5.01026 6.40719c1.79716 1.92455 2.95464 4.12054 2.11286 6.89263-.89287 2.94028-2.18737 3.92237-5.28864 3.90212A9.62436 9.62436 0 0 1 294.46334 171.83241zM363.69783 242.15161a49.70684 49.70684 0 0 1-8.8943 12.20921c-4.52793 4.37615-10.33881 4.87762-15.5331 1.40246-6.81525-4.55965-9.32786-11.16717-9.10178-19.08144.04275-1.4965.232-2.98881.3537-4.483 1.26122-.603 2.15866.24935 3.04344.85895A17.01714 17.01714 0 0 0 350.059 235.08c.69841-.26049 1.4128-.47926 2.1294-.687 4.38834-1.27239 5.54914-.9597 7.79612 3.01378C361.0093 239.219 363.12346 240.06454 363.69783 242.15161z"/><path fill="#e3d8cb" d="M461.33059 131.70281a2.46242 2.46242 0 0 0-2.37734 1.1323 75.99357 75.99357 0 0 0-5.6874 9.01183c-1.65929 3.35828-2.05307 6.83949-.41413 10.29247 2.26749 4.77721 1.895 9.36228-.38 14.02662-1.26357 2.59056-2.41409 5.28836-1.37036 8.35476.42313 1.243 1.01922 1.93989 2.36532 1.829a36.38443 36.38443 0 0 1-11.87873.99743 20.02486 20.02486 0 0 1 1.76427-14.97853 8.23109 8.23109 0 0 0 .36675-7.2432c-2.40862-6.362-1.57971-12.52459 1.7709-18.36459 1.20652-2.103 2.57218-4.11425 3.9832-6.3547-1.48617-.73094-3.19977.05607-4.54521-.81327C450.50467 129.44233 455.888 130.80368 461.33059 131.70281zM294.46334 171.83241a10.0144 10.0144 0 0 1 1.95761-.02523 4.80973 4.80973 0 0 0 5.57582-2.73308c1.29523-2.40163.68513-4.57032-.83592-6.53814-1.315-1.70122-2.92287-3.17691-4.21729-4.89183-4.5527-6.03155-6.06408-12.55549-3.01868-19.79373.351-.83427 1.31187-1.664.54091-2.76231a57.31542 57.31542 0 0 1 11.69617-1.1176c-.79356 1.37-1.628 2.71807-2.3736 4.11378-3.37967 6.32649-2.82179 10.5232 2.34438 15.59367 3.96186 3.88848 6.60047 8.25306 6.38886 14.02522a28.64618 28.64618 0 0 1-1.1608 5.15767 115.72639 115.72639 0 0 0-15.35255-.53023A1.89674 1.89674 0 0 1 294.46334 171.83241zM426.39678 229.36022c-1.44279-.47743-1.68876.90527-2.25478 1.58732-5.61491 6.76612-12.137 8.23856-19.85437 4.114-2.236-1.19506-3.91911-1.10038-5.83149.43669-2.17582 1.74884-4.496 3.31732-6.75335 4.9642q-3.09366-3.701-6.18732-7.40216c2.07412-.043 3.23363-1.6717 4.65861-2.78223 2.42364-1.88882 4.71677-3.975 7.63632-5.08087 3.67446-1.39179 7.08469-.4654 10.46065 1.22357 3.975 1.98868 5.67311 1.5412 8.39676-1.96185 1.37194-1.7645 2.62789-3.61933 3.99085-5.39113a3.51212 3.51212 0 0 0 .84527-2.835Q423.95039 222.79646 426.39678 229.36022zM363.69783 242.15161a11.9278 11.9278 0 0 1-4.6111-5.03534c-1.06513-2.32254-2.85908-3.36864-5.4707-2.32464-.77362.30926-1.63339.40221-2.40666.71214-6.89748 2.7646-13.29533 2.00057-19.18843-2.624a6.86818 6.86818 0 0 0-1.4986-.681q1.30665-5.7295 2.61328-11.45909c1.187 4.37893 8.25114 7.84741 13.03334 6.37751 1.87351-.57587 3.70263-1.31214 5.5962-1.80439 6.45132-1.67706 10.94386-.05387 14.98357 5.2961.3815.5052.57061 1.20542 1.30622 1.37724z"/><path fill="#26a526" d="M356.20946,147.66953c0-.46867-.00453-.93739.0007-1.406.04978-4.4637,2.36319-6.11,6.60457-4.48133a52.91422,52.91422,0,0,0,8.51734,2.66753,5.6277,5.6277,0,0,0,4.24143-.70338c2.34779-1.35289,4.72581-2.6632,7.15463-3.8622,3.11194-1.53621,5.75533-.532,6.985,2.7155a29.734,29.734,0,0,1,1.92426,8.7317c.24093,4.00643-2.1777,5.97479-6.12195,5.56442a95.211,95.211,0,0,1-11.23691-2.20482,3.47339,3.47339,0,0,0-3.27722.733c-2.22115,1.67225-4.36939,3.53247-7.28652,3.99966-3.68433.59008-6.01489-.8548-6.71906-4.51591-.45724-2.37725-.61078-4.81317-.90039-7.22281Z"/><path fill="#e3d8cb" d="M394.73366 83.49178a7.39483 7.39483 0 0 1-7.49992 7.11706 7.51112 7.51112 0 0 1-7.17094-7.51258 8.58223 8.58223 0 0 1 8.1827-8.29791C392.51957 74.724 394.117 78.95018 394.73366 83.49178zM360.29712 89.64408c-3.72037-.01507-6.85947-3.44785-6.85142-7.4924.00822-4.12562 3.71986-8.193 7.4284-8.14047 3.89313.05519 6.5968 3.68465 6.45789 8.66913A7.09385 7.09385 0 0 1 360.29712 89.64408z"/><path fill="#d64142" d="M368.02759 165.0908a4.33537 4.33537 0 0 1 4.51771-4.58818 4.52122 4.52122 0 1 1-.31141 9.03213C369.42576 169.49847 368.04627 168.04105 368.02759 165.0908zM377.9987 177.95313a5.02053 5.02053 0 0 1-4.57729 5.33551 4.65988 4.65988 0 0 1-4.70568-4.53136 5.13759 5.13759 0 0 1 4.65944-4.74126C375.64522 173.99094 377.95983 175.96194 377.9987 177.95313z"/><path fill="#913808" d="M461.33064 131.70284c-1.643-.59735-2.673.29835-3.53 1.50654-1.35179 1.90609-2.65859 3.84624-3.884 5.8356-2.67928 4.34946-3.96014 8.91516-1.63285 13.83877 1.99928 4.22933 1.59115 8.32274-.33 12.43277a32.37661 32.37661 0 0 0-1.61282 4.18655 7.90548 7.90548 0 0 0-.00525 4.96738c.50794 1.50309 1.36689 2.45934 3.13107 1.87927a80.88593 80.88593 0 0 0 15.19107-5.546 22.27033 22.27033 0 0 0 2.894-1.60873 6.58842 6.58842 0 0 0-.43669-3.15724c-.93808-2.36718-2.41791-2.50228-2.7305-4.56207-.285-1.8768 1.029-2.345 2.27541-6.38671 1.47886-4.79525 1.41549-6.23021 1.36525-6.843-.21966-2.68857-1.28874-3.11675-1.36525-5.01807a8.3 8.3 0 0 1 2.42711-5.5983A32.06332 32.06332 0 0 0 461.33064 131.70284zM480.21754 148.7023c.88389.00461 1.65451-1.52908 1.82065-2.73728.261-1.90049-.82118-4.10805-1.82065-4.10575-.93939.0023-1.89224 1.95743-1.82033 3.64959C478.458 146.94086 479.27421 148.69736 480.21754 148.7023zM480.673 158.28244c-2.02719-.806-1.97892-4.07564-3.18591-4.10575-.61071-.01547-1.15674.80765-1.36557 1.36847-.45443 1.222.43735 1.88536.91049 4.56191.26793 1.51773.06567 1.781.45508 2.28112.86157 1.10617 3.03684 1.33737 4.55115.45616 1.88436-1.09679 2.57224-3.8158 1.82033-4.56191C483.23894 157.66715 482.10222 158.85083 480.673 158.28244zM486.58934 150.5271c-.73318-.10532-1.91981.07174-2.27541.91231a1.77872 1.77872 0 0 0 .45509 1.8248c1.13015 1.1473 3.81172.54436 4.09606-.45616C489.0877 152.0236 487.91618 150.71765 486.58934 150.5271zM422.11779 257.52405c.8839.0046 1.65452-1.52909 1.82066-2.73728.261-1.90049-.82119-4.108-1.82066-4.10575-.93939.0023-1.89224 1.95743-1.82033 3.64959C420.35821 255.76261 421.17446 257.51911 422.11779 257.52405zM412.10863 257.65379c-2.16214.29026-3.7216-2.58391-4.78863-2.019-.54.28566-.61287 1.27074-.52023 1.862.2024 1.288 1.30479 1.42946 3.02833 3.53118.977 1.19195.92964 1.52057 1.51409 1.76582 1.293.54236 3.30266-.32157 4.19123-1.83158 1.10559-1.8792.37345-4.58663-.64753-4.86881C414.04434 255.86048 413.63311 257.44923 412.10863 257.65379zM427.56738 245.51557c-.73319-.10532-1.91982.07175-2.27541.91232a1.77872 1.77872 0 0 0 .45508 1.82479c1.13015 1.14731 3.81172.54436 4.09607-.45615C430.06573 247.01207 428.89421 245.70613 427.56738 245.51557z"/><rect width="50.518" height="5.931" x="350.053" y="107.645" fill="#e3d8cb" rx="2.046"/><path fill="#d64142" d="M373.71232 285.32947a16.66925 16.66925 0 0 1-1.046 6.09978 12.36442 12.36442 0 0 1-2.94633 4.49852 12.52437 12.52437 0 0 1-4.54309 2.76035 17.53825 17.53825 0 0 1-5.89265.93843 16.62423 16.62423 0 0 1-5.8922-.99427 12.95349 12.95349 0 0 1-4.54355-2.8423 12.68546 12.68546 0 0 1-2.94587-4.49852 16.11083 16.11083 0 0 1-1.0465-5.962 15.94875 15.94875 0 0 1 1.0465-5.90616 12.67746 12.67746 0 0 1 2.94587-4.49852 12.96844 12.96844 0 0 1 4.54355-2.84321 16.64472 16.64472 0 0 1 5.8922-.99336 16.23542 16.23542 0 0 1 5.89265 1.02128 13.29616 13.29616 0 0 1 4.54309 2.87023 12.69251 12.69251 0 0 1 2.94633 4.49851A15.81162 15.81162 0 0 1 373.71232 285.32947zm-19.27427 0a8.73868 8.73868 0 0 0 1.29417 5.16136 4.19562 4.19562 0 0 0 3.60737 1.794 4.037 4.037 0 0 0 3.552-1.82192 9.063 9.063 0 0 0 1.23878-5.13344 8.7723 8.7723 0 0 0-1.2667-5.10553 4.46792 4.46792 0 0 0-7.1589 0A8.76882 8.76882 0 0 0 354.438 285.32947zM404.7165 298.68812a12.777 12.777 0 0 1-1.735.33052 17.62562 17.62562 0 0 1-2.45054.16571 12.87091 12.87091 0 0 1-2.175-.16571 3.68864 3.68864 0 0 1-1.62469-.66194 3.18182 3.18182 0 0 1-1.01858-1.35271 5.84613 5.84613 0 0 1-.358-2.2353V282.51418a3.87228 3.87228 0 0 0-1.12891-3.17373 4.28837 4.28837 0 0 0-2.78106-.91051 7.77356 7.77356 0 0 0-2.09255.27558 5.98333 5.98333 0 0 0-1.59723.66285v19.31975a12.78166 12.78166 0 0 1-1.73456.33052 17.63037 17.63037 0 0 1-2.45054.16571 12.87269 12.87269 0 0 1-2.17541-.16571 3.69307 3.69307 0 0 1-1.62469-.66194 3.18182 3.18182 0 0 1-1.01858-1.35271 5.85484 5.85484 0 0 1-.358-2.2353V262.75313q.6052-.11077 1.7895-.3035a14.85165 14.85165 0 0 1 2.3956-.19363 12.88772 12.88772 0 0 1 2.17541.16571 3.71882 3.71882 0 0 1 1.62469.66194 3.19446 3.19446 0 0 1 1.01858 1.35271 5.88186 5.88186 0 0 1 .358 2.2353v5.40992a19.49469 19.49469 0 0 1 2.17541-.63492 13.51412 13.51412 0 0 1 3.22146-.35844q5.45158 0 8.508 2.73243 3.05642 2.73153 3.05664 8.14146z"/><path fill="#913808" d="M402.11,251.71173c3.51708-1.07622,7.06074,2.33211,11.16051.33322.47439-.23123,1.85974-1.69448,4.61109-4.61109,4.607-4.884,4.68989-5.16451,5.53331-5.53331a7.30855,7.30855,0,0,1,4.75293-.20016,16.34016,16.34016,0,0,0,.14523-1.93832c.05336-3.64249-1.024-6.98328-1.91626-10.402-1.54071-1.15323-2.19883.32174-2.8234,1.133-5.58757,7.25526-13.34469,7.21878-19.45123,3.76384-1.07442-.60813-2.28033-1.18632-3.45652-.609-3.41959,1.6776-6.68743,3.60377-8.96281,6.81442A31.951,31.951,0,0,0,402.11,251.71173Z"/></svg>