<svg xmlns="http://www.w3.org/2000/svg" data-name="Layer 1" viewBox="0 0 512 512"><path fill="#fcfafa" d="M480.35373,291.10576l-.00217-.00695A20.3442,20.3442,0,0,0,461.57525,277.048c.003-1.16714.01694-2.36294.0317-3.58479.01911-1.61958.03734-3.23916.0343-4.857-.013-6.65635-.90271-16.33824-8.44223-23.54083a26.30651,26.30651,0,0,0-13.532-6.75275,24.04541,24.04541,0,0,0-8.1079-13.03134,23.51509,23.51509,0,0,0-7.332-4.07631,29.52314,29.52314,0,0,0-4.99292-14.67,46.18052,46.18052,0,0,0-1.70034-22.71324,21.92667,21.92667,0,0,0,1.02906-5.90778,31.55825,31.55825,0,0,0,8.32023-5.07585c7.84433-5.74366,10.91546-15.58534,7.6763-25.30023-3.49187-10.71616-12.47253-14.07951-15.8654-15.35-.21015-.07816-.42031-.15545-.62569-.23794-.25422-.10161-.50389-.195-.75768-.29526a26.27218,26.27218,0,0,0,9.7709-10.711c5.67679-.01563,12.20809-1.8445,18.36771-7.787a20.24088,20.24088,0,0,0,5.43494.13547,20.47909,20.47909,0,0,0,13.84808-7.8c7.00285-8.85,5.92689-21.08757-2.5631-29.10212a29.4246,29.4246,0,0,0-41.15781.74076,24.53814,24.53814,0,0,0-13.74127,3.04116,20.8422,20.8422,0,0,0-25.63109,12.90022,34.89832,34.89832,0,0,0-1.8458,7.49523c-.053.34389-.1016.68865-.168,1.0282-.09769.49847-.16152,1.00128-.21623,1.50452a45.929,45.929,0,0,0-6.32983.12027c-3.28432-3.81057-8.8391-7.48134-18.02383-7.319l-.36169.00608c-7.74708-.20755-13.79815,2.34818-18.2253,4.21352q-.64674.27225-1.29523.54189-.57576.23708-1.13631.47762a73.44179,73.44179,0,0,0,6.22909-20.049C342.5203,67.30637,338.83,53.787,330.14027,43.99827a42.353,42.353,0,0,0-33.7607-13.9588,40.00855,40.00855,0,0,0-29.403,14.45119c2.00863-8.04755-1.70686-15.1025-5.253-18.81582-7.9238-8.29591-20.08239-8.7909-29.5589-1.20969a34.16988,34.16988,0,0,0-5.56867,5.682,41.18544,41.18544,0,0,0-8.55253,32.28831,40.10982,40.10982,0,0,0,14.85414,25.03883c-.01737.12419-.03387.2449-.05037.36213a32.73059,32.73059,0,0,0,.195,10.77522,21.51592,21.51592,0,0,0-7.662,3.79234c-.86755-3.17577-1.66431-6.44446-2.498-9.86339-.41076-1.68471-.82152-3.36942-1.26093-5.12448-2.2583-9.03232-7.08687-13.64314-11.88049-15.97047a23.16733,23.16733,0,0,0-5.74257-7.59294,23.82975,23.82975,0,0,0-2.67817-2.046,25.96744,25.96744,0,0,0-1.83712-10.18817q.19995-.47807.3821-.9648a29.09446,29.09446,0,0,0-3.31211-26.575A30.9644,30.9644,0,0,0,171.4025,10.66787,33.73085,33.73085,0,0,0,146.41534,21.318a32.99863,32.99863,0,0,0-8.9064,25.04665,29.22354,29.22354,0,0,0,13.31075,22.34025,43.00809,43.00809,0,0,0-11.71331-.29135,20.77348,20.77348,0,0,0-20.303,17.2657c-.82759,4.37852-1.42462,15.40818,10.87639,23.23949q.95025.60441,1.74811,1.201a25.97188,25.97188,0,0,0-9.10136,4.52875c-7.09273-1.21577-16.05949-2.08244-25.45133.13808-14.95226,3.53616-19.12757,13.72607-20.28647,19.4897a24.1026,24.1026,0,0,0-.44375,5.66637c-6.00245,3.66469-12.66314,7.86952-18.54227,14.04825l-.42682.44376a31.60678,31.60678,0,0,0-6.56908,9.14782,23.12251,23.12251,0,0,0,0,19.05984,19.79089,19.79089,0,0,0,11.3336,11.75651c.40816.205.81631.396,1.22142.57229a37.29284,37.29284,0,0,0-11.44867,10.58156,27.30243,27.30243,0,0,0-4.959,20.02551A20.79016,20.79016,0,0,0,67.1257,243.83045a21.24376,21.24376,0,0,0,7.08622-1.06294q-1.69731.749-3.39244,1.5093c-1.07856.48457-2.16625.95264-3.25349,1.42071-5.45318,2.34992-11.61193,5.00464-17.54707,9.60374-10.99015,7.74794-13.61188,20.99552-6.47443,33.24008A54.98,54.98,0,0,0,53.83384,300.752c.41292.39513.82585.78852,1.23444,1.18538a357.29917,357.29917,0,0,0,30.49591,25.9003c-3.669,8.361-4.58867,18.15148-.40989,26.96843A44.69654,44.69654,0,0,0,94.257,368.05851c-.2247-.16674-.43508-.33868-.66477-.50325-1.05729-.75551-1.83191-1.30782-2.326-1.64737A17.78546,17.78546,0,0,0,68.24595,368.362l-8.63937,9.16518a17.79,17.79,0,0,0-4.65771-1.05772,22.17086,22.17086,0,0,0-8.95156,1.06641,22.54094,22.54094,0,0,0-8.68018,5.29555,22.02113,22.02113,0,0,0-6.48745,12.43041,23.4245,23.4245,0,0,0,2.06942,13.59841,37.01211,37.01211,0,0,0,8.12136,10.94717c5.73367,5.494,11.72808,9.0245,17.858,10.53553.10313.28267.20017.56707.31524.84583a24.05775,24.05775,0,0,0,5.34288,7.88342,40.933,40.933,0,0,0,4.33987,3.72287,44.13029,44.13029,0,0,0,4.99857,3.24c1.17669.653,2.072,1.13414,2.68208,1.45545a17.80692,17.80692,0,0,0,3.56112,1.40335,24.85532,24.85532,0,0,0,3.86464,4.10324,40.43854,40.43854,0,0,0,4.61863,3.359,47.8254,47.8254,0,0,0,4.98771,2.745,37.43155,37.43155,0,0,0,4.4875,1.84277,17.8158,17.8158,0,0,0,3.43022.75117,24.39637,24.39637,0,0,0,5.01853,4.70677,39.97881,39.97881,0,0,0,4.8974,2.93957c.84517.4329,1.70034.83888,2.557,1.21577a24.58661,24.58661,0,0,0,7.57078,12.7274c4.02638,3.70116,9.27895,6.74841,16.06036,9.31629a55.26632,55.26632,0,0,0,11.70658,3.05941,41.496,41.496,0,0,0,5.85612.42465,36.01059,36.01059,0,0,0,7.19867-.70862,30.473,30.473,0,0,0,9.40379-3.57828c.27941.12244.54384.26269.83041.37645a39.66684,39.66684,0,0,0,5.41106,1.67951,42.5197,42.5197,0,0,0,5.8331.96306c1.313.12245,2.30563.20234,2.98168.2501q.63177.0443,1.25659.04429a17.67967,17.67967,0,0,0,6.38671-1.204,39.50041,39.50041,0,0,0,6.45445,3.37768,48.62091,48.62091,0,0,0,13.25019,3.31645,59.30278,59.30278,0,0,0,6.4488.34042q.9483,0,1.91093-.02779a37.4094,37.4094,0,0,0,10.91243-1.90355,23.69628,23.69628,0,0,0,9.85731-6.289,24.44852,24.44852,0,0,0,12.28929,7.24861,38.62776,38.62776,0,0,0,6.38628,1.0777c1.63261.14068,3.30169.23186,4.9851.27007q.779.01694,1.5488.01737c1.20188,0,2.38422-.03126,3.52922-.09205,1.3951-.07382,2.71638-.17195,3.94692-.29179,10.24592-1.01,18.5948-3.81492,24.81521-8.33759q.86885-.63177,1.67451-1.31217a38.28681,38.28681,0,0,0,11.60868,1.80716h.195a49.29789,49.29789,0,0,0,13.39651-1.92613,61.99356,61.99356,0,0,0,7.92076-2.86314,37.975,37.975,0,0,0,9.43309-5.84179c.03669-.03126.069-.06513.10552-.09639.741.07294,1.48541.12244,2.23658.12244a24.74148,24.74148,0,0,0,6.01981-.76072,40.28892,40.28892,0,0,0,5.40628-1.79327,43.50757,43.50757,0,0,0,5.3494-2.62259c1.15108-.66694,2.01688-1.18278,2.60089-1.538a17.77518,17.77518,0,0,0,3.06418-2.37726,25.03232,25.03232,0,0,0,5.6325-1.22229,40.68625,40.68625,0,0,0,5.24605-2.23528,43.98376,43.98376,0,0,0,5.12318-3.04638c1.109-.76681,1.94133-1.35819,2.50189-1.76461a17.76439,17.76439,0,0,0,3.53269-3.392,38.96736,38.96736,0,0,0,8.98238-2.93957,62.016,62.016,0,0,0,7.9238-4.39936c7.899-5.14011,13.42083-11.02966,16.41119-17.50278,4.26172-9.2225,3.34859-18.99036-2.50623-26.80257a25.02632,25.02632,0,0,0-8.54471-7.28682,22.93215,22.93215,0,0,0-2.63605-4.58694,21.36707,21.36707,0,0,0-13.73519-8.41227,25.6192,25.6192,0,0,0-10.80691.58444,38.39193,38.39193,0,0,0-7.42186,2.86314,60.8153,60.8153,0,0,0-6.28207,3.65166,53.48627,53.48627,0,0,0-5.76276,4.37114,21.48712,21.48712,0,0,0-8.05276-2.49451,22.15631,22.15631,0,0,0-4.66118.02432,36.00647,36.00647,0,0,0,6.6659-15.9822c11.9771-4.73717,24.091-9.9702,35.71679-17.01387a109.15348,109.15348,0,0,0,25.31846-21.01375c7.95159-8.99759,7.43532-17.69123,6.41972-22.07235a22.49734,22.49734,0,0,0-5.3646-10.11784,21.56537,21.56537,0,0,0-13.96445-12.33227l-.05992-.03995c-.42465-.28049-.848-.55925-1.26788-.82412a68.13307,68.13307,0,0,1-9.41615-7.939c-1.52927-1.44243-3.10283-2.92654-4.7819-4.42281-7.33414-8.31935-12.62449-15.6218-16.55057-22.8461l-1.617-4.02334a36.87968,36.87968,0,0,0,4.30209-1.49019,46.433,46.433,0,0,0,5.10321-2.49667,22.58086,22.58086,0,0,0,3.84835,3.74458,22.93058,22.93058,0,0,0,10.3688,4.4228,22.88815,22.88815,0,0,0,5.56911,8.96806,24.21736,24.21736,0,0,0,14.34394,6.69543,47.62924,47.62924,0,0,0,4.867,21.36547c4.14665,8.09444,12.21244,14.604,21.57605,17.41333,8.49782,2.54792,16.95482,1.81758,23.81178-2.05986C481.61075,310.0006,482.89078,298.71562,480.35373,291.10576ZM260.61458,55.36835c-.01867.04863-.03734.09726-.05644.14589-.01694-.01129-.03387-.02258-.05081-.03473C260.54337,55.44216,260.579,55.40569,260.61458,55.36835Z"/><path fill="#26a526" d="M463.48115 296.72948c-.70645-2.11849-2.56441-2.211-4.37548-1.65367-9.22207 2.83861-14.79335-3.99577-15.19716-12.08044-.23881-4.77386-.043-9.56921-.05254-14.3548-.0204-10.57657-3.23916-13.63532-13.849-13.17072-7.60335.33282-7.60161.333-7.23732-7.54517.02953-.63676.01824-1.27591.0165-1.914-.01693-6.5287-3.32513-9.31608-9.72487-8.0495-3.02163.5979-5.9955 1.43765-9.44655 2.27914.93875-4.21418 1.86447-7.74035 2.48886-11.31928.96653-5.54392.878-11.10434-3.97992-14.88453-2.30693-1.795-2.16625-3.20247-1.51321-5.53545 2.02209-7.22213 2.36555-14.48593-.947-21.46251-1.30478-2.74852-3.31949-5.10842.23187-7.80939 1.45285-1.10461.8784-3.27889.62308-5.01354-.83454-5.66788.42031-8.01281 5.64292-10.501 3.26131-1.55359 6.99808-2.16538 9.67625-4.87634-1.49149-2.28522-4.01509-2.46259-6.30986-2.93565-9.38576-1.93482-18.887-2.7546-28.44343-3.55136-13.70393-1.14283-27.04529.28636-40.36278 3.0492-3.59955.74661-6.98938 2.24266-10.546 3.14928-1.19146.30373-2.88355.94809-3.47581-.42031-.75595-1.74767 1.09376-2.4361 2.31605-2.91177a80.18271 80.18271 0 0 1 16.09986-4.51942c22.33374-3.65991 44.50249-2.33862 66.5605 2.28283 1.96217.411 3.96907 1.4852 5.99159.12332-.96089-3.02706-3.75543-3.66035-6.21216-4.64447-4.13232-1.65519-8.325-3.15775-12.4786-4.76-4.59389-1.772-6.95639-5.19439-7.77139-10.01623-1.74637-10.33623-6.58558-13.7024-16.9101-12.71567-5.613.53646-10.86683 2.727-17.06206 3.55743.89012-1.272 1.33431-1.92027 1.7924-2.55855 1.36687-1.90485 2.24527-3.99077 1.15541-6.24646-1.22271-2.5312-3.72156-1.97086-5.91343-2.03381-4.45927-.12831-8.3606 1.78892-12.32055 3.42044-5.14358 2.11914-9.99538 4.88893-15.33566 6.60186-2.79585.89663-3.55136.39209-3.52748-2.6024.03951-4.93278-1.69166-6.23995-6.53825-5.28167-4.53092.89577-8.19778 3.45171-11.34489 6.71867a95.02137 95.02137 0 0 0-14.56235 20.03462c1.72987 1.22924 3.356.08858 4.99248-.25922a17.84583 17.84583 0 0 1 20.57651 11.28585c.129.44419.25879.88881.41727 1.325.80632 4.11952.60963 8.17412-1.452 11.89178a6.79928 6.79928 0 0 0 .10551 7.12377c4.016 7.82089 3.6712 15.24383-2.01558 22.19371-.904 1.10505-1.8102 2.26242-1.27917 3.86681 6.48137 3.84205 13.75039 4.82987 21.029 5.62859 3.0238.332 5.90431-.83563 5.30164-4.402-.90662-5.367 2.11153-5.07606 5.51048-4.47729 5.64379.99411 11.21941 2.50818 16.89794 3.13061 5.19265.569 7.553-3.10565 4.89869-7.56949-1.70295-2.86488-.83063-3.79755 1.67082-4.854a53.49266 53.49266 0 0 1 18.57614-3.9873c3.38462-.1587 5.41583 1.21968 7.06059 3.81948 3.57959 5.659 3.42761 11.69139 2.17233 17.99018-.71818 3.60585-1.95826 5.187-6.10882 5.35569-11.80863.48-25.00931 10.95672-27.631 21.20242-.94222 3.68336-1.41464 7.49437 1.99213 10.12869 3.06592 2.37054 6.63769 1.699 9.99365.30611 5.7302-2.37857 10.14432-6.48332 14.29184-10.96474 3.65948-3.95344 6.50308-8.51606 9.56726-13.01333 3.9682 3.47147 2.689 7.56211 2.07289 11.40807-.55187 3.443-1.87011 6.73712-1.73464 10.32755.20277 5.364 3.18879 7.79571 8.49477 6.56843 2.63389-.60919 5.18571-1.56617 7.81047-2.22009 2.05943-.513 3.05854.36647 2.68643 2.5503-.24055 1.41225-.60442 2.815-.70993 4.237-.72252 9.73552 1.60265 11.99577 11.38788 11.16253a8.92144 8.92144 0 0 0 1.90095-.19105c5.94165-1.87359 8.846-.52257 8.59985 8.1841-.04906 1.749-.42248 3.48818-.4837 5.23759-.21363 6.09363.01476 12.16641 2.86444 17.73052 3.74241 7.30615 14.68176 11.44259 20.80925 7.97873C462.6262 300.30037 464.24014 299.00644 463.48115 296.72948zm-92.407-60.57109c-.97262.49521-2.30649 1.61611-3.45236.274-.83628-.97956-.1485-2.10611.15154-3.166 2.425-8.55947 15.142-16.72664 22.22171-15.69454C385.01693 225.30132 379.27718 231.98221 371.07419 236.15839zM179.42373 174.57561c3.91783-6.4106 3.48232-10.42655-1.84971-15.78116a29.64339 29.64339 0 0 0-11.75174-7.15005q-7.25817-2.44564-14.62835-4.52332c-3.88135-1.09137-4.40066-2.60023-1.96695-5.80575 3.382-4.45429 4.29342-9.4815 4.2196-14.85088-5.55868-.127-11.12388-.72143-16.64175.62743-2.70379.66086-4.98944 1.86968-5.075 4.84811-.06991 2.44956-1.07987 2.55008-2.92089 2.09634-1.386-.34172-2.80149-.563-4.2018-.846-7.8248-1.58224-15.673-2.98038-23.63853-1.09637-3.16882.74944-6.19609 1.96977-6.94292 5.68374-.69082 3.438 1.52015 5.25322 4.11712 6.79009a14.28558 14.28558 0 0 1 1.65779 1.39336c-3.57 3.67619-8.259 5.42191-12.40044 7.94942-5.99159 3.65643-12.05265 7.23145-16.9166 12.34269-2.514 2.64148-5.68765 5.436-3.27912 9.876 1.86665-1.20036 3.45106-2.77456 5.54523-3.69334a180.08832 180.08832 0 0 1 28.49249-9.71424c17.64434-4.44148 34.48713-2.8017 50.38161 6.3294 1.78936 1.028 5.15575 2.03142 3.82969 4.48055-1.15282 2.12869-3.70681-.17867-5.405-1.07617-11.39135-6.02068-23.36367-9.50539-36.34725-8.04212-15.67739 1.767-30.317 7.078-44.54677 13.65074 3.1445 2.03121 6.44446.97435 9.66539.37537 5.342-.99325 10.64973-1.89053 16.09509-.698 1.83929.40273 2.4628.89056 2.28739 3.11889-.76594 9.74247.87144 19.054 7.05712 26.94717 2.37987 3.03726.96307 4.07522-1.62479 5.12187-2.09374.84692-4.07848.25423-6.02025-.54232-2.64821-1.0866-5.21349-2.41548-7.926-3.298-9.14738-2.976-17.38033-.37428-22.5009 6.79769a9.56928 9.56928 0 0 0-1.82453 7.19694 3.041 3.041 0 0 0 3.14668 2.96626c1.73074.03778 2.35252-.97565 2.82884-2.58178 2.22921-7.52042 7.85433-10.62368 15.39819-8.3847 3.18359.94483 6.18394 2.49581 9.29675 3.69378 4.42107 1.70143 8.95721 1.95782 12.65923-1.257 2.87487-2.49689 5.12362-2.13433 8.4214-.91573 5.74062 2.12174 11.33881 1.18147 15.78681-3.51749 3.491-3.68814 3.76238-7.4338.99867-13.16291 7.08534 1.17061 13.24193-1.09658 19.24263-4.39111 2.3-1.26288 4.40892-3.17838 7.2916-3.18511 5.778-1.21012 10.97538-3.99685 16.43116-6.08081a1.39333 1.39333 0 0 0 .74466-1.60461c-2.15322-1.37621-2.61781-2.98884-.94526-5.1349A54.55173 54.55173 0 0 0 179.42373 174.57561zm-51.37984 32.0013c-.5141 3.44867-3.77541 4.60582-6.85045 4.63947-1.7607.01933-5.2695-.20451-4.79969-2.36077.6678-3.065 3.65209-4.96556 7.37453-5.12925C125.42477 204.21093 128.47722 203.66774 128.04389 206.57691zM112.251 203.03966c-1.71163 2.11892-2.67556 1.64151-3.76194-.36017-.53147-.97913-1.165-1.90485-1.66692-2.89766-2.81928-5.57627-2.67252-5.77275 3.006-7.97916 5.0498-1.96217 10.01884-4.04136 15.58577-4.1015 2.76849-.03 4.06676.7972 4.04331 3.82122-.0178 2.305.71731 4.61581 1.19754 7.383C123.09222 195.57482 117.05417 197.09345 112.251 203.03966z"/><path fill="#fbb641" d="M309.97957 201.44139c11.42486 4.883 21.43387 11.63972 29.09832 21.61842a59.74812 59.74812 0 0 1 8.23788 13.86954c4.70751 11.59754 9.35662 23.21875 14.02941 34.83037a6.182 6.182 0 0 1-4.05691 1.17063c-17.24314.68794-33.55018 5.82886-49.936 10.5274a348.16136 348.16136 0 0 0-63.99584 25.11552c-1.1289.58284-2.264 1.23734-3.61129.64312q-2.72172-9.6-5.44341-19.20007a12.47642 12.47642 0 0 1 2.26071-6.64562c5.18606-8.57453 8.82073-17.91035 13.04048-26.95387 4.05876-8.69837 4.58-18.03056 4.09112-27.46169a4.10817 4.10817 0 0 1 3.074-1.99157c5.0226-.831 9.06488-3.49461 12.84924-6.67745 1.33964-.98618 2.62135-.55966 4.00248.02321 13.63075 5.75283 23.91226 1.95889 30.58936-11.24586.21371-.42269.407-.85581.60407-1.28608C306.11973 205.32913 305.77322 201.52156 309.97957 201.44139zM343.28444 370.8042c2.8222 10.57-1.55707 19.96678-10.89888 23.38625-9.97648 3.65176-22.78153-1.19452-26.97364-10.19706-.46115-.9903-.99886-1.945-1.50106-2.91616-2.41218-3.03784-.68182-6.09369.06329-9.08407a17.53633 17.53633 0 0 1 3.08771-6.428c3.40847-4.41566 3.11774-8.95957 1.5573-13.99141-1.15569-3.72671-2.86921-4.233-6.29673-3.05418a280.06555 280.06555 0 0 0-34.84593 14.34657c-9.64806 4.85031-19.74368 8.92137-28.34514 15.70315-1.99737 1.57481-4.367 2.10869-6.513.06053-1.90979-1.82269-1.93275-3.87132-.46728-6.013.44861-.6556.28951-1.5632.82392-2.20173 4.236-8.45358 6.04235-17.61959 7.85375-26.78411.80233-1.9576 2.63379-2.67274 4.31055-3.58006a123.49506 123.49506 0 0 1 18.50372-7.8082c31.95227-11.05989 63.93834-22.056 97.0601-29.214 6.83554-1.47723 13.835-2.179 20.74037-3.35465 5.71351 4.988 10.81322 10.69773 17.28851 14.78753 1.59518 1.00755 3.205 2.26391 4.9755 2.66254 3.23592.72859 4.08559 2.5645 3.56241 5.50586-.97677 3.20791-3.92835 3.45164-6.46064 4.135-12.93572 3.49038-26.23818 5.14365-39.36335 7.68719q-16.178 3.13526-32.29179 6.56029c-3.61786.77206-4.72769 2.22048-3.65484 5.95149 1.375 4.78176 3.12148 8.83587 8.10655 11.03655 3.35611 1.4816 5.85052 4.37177 8.19269 7.2047C343.113 366.79512 344.44668 368.50159 343.28444 370.8042zM142.08125 346.7521c-3.25448 9.35089-8.53188 13.21906-17.31388 13.626-14.48317.67106-19.58348-4.83882-23.54205-13.19012-2.68392-5.6623.23467-14.42392 5.73766-19.52144 1.162-1.07642 2.38857-2.08318 3.58539-3.122 3.12818-4.22386 7.96213-4.55736 12.47063-4.89378 6.219-.46414 8.01714-5.82468 11.26513-9.43523 1.47089-1.63509-1.19378-2.91236-2.47162-3.92259-10.47478-8.28118-22.285-14.28361-34.41242-19.64138-10.37249-4.58243-20.93886-8.66755-32.54728-8.92534-2.37931-.0528-4.33385-1.13339-4.71026-3.87817a4.662 4.662 0 0 1 4.18652-3.96091c12.39838-2.112 23.29952-8.09678 34.49186-13.327.86263-.4031 1.64239-.9697 2.5073-1.37391 3.42317-.70144 6.23061 1.1369 8.99278 2.5332 23.44231 11.85041 44.63228 27.0247 64.625 43.97419 8.98672 7.6187 17.43949 15.84053 26.603 23.25812 2.67688 2.16686 5.75293 4.14361 6.421 7.99172-.2412 5.4129-1.27738 10.74617-1.48463 16.16547-.15205 3.97571.61159 7.45571 3.31356 10.61551 2.31366 2.70563 3.41934 5.86978.10266 8.85188-3.25781 1.25374-5.15128-1.02012-6.84448-3.00654-14.97816-17.57185-33.05727-31.619-51.37418-45.39717-3.81043-2.86623-4.47511-2.51046-6.53249 1.92775-2.526 5.44914-4.24183 10.76219-1.63161 16.832C144.58324 341.40743 144.99932 344.60312 142.08125 346.7521z"/><path fill="#d64142" d="M381.44348 299.674c-4.06835 3.53308-9.33529 2.9016-14.05426 3.5973a238.3382 238.3382 0 0 0-37.51239 8.91681C310.9186 318.216 291.76611 323.624 272.9835 330.2163c-10.98415 3.85515-21.841 7.97319-32.15478 13.415 1.413-11.52758.51953-22.98223-1.08355-34.41472 24.08828-13.41129 49.98579-22.16116 76.37238-29.65478 13.91713-3.95238 27.93459-7.38368 42.45492-8.18895a14.21848 14.21848 0 0 1 2.77324.38808C366.76591 281.98516 373.77923 291.06392 381.44348 299.674zM207.15539 332.11616c-5.60879-7.02878-13.25829-11.8184-19.74943-17.89778a359.59014 359.59014 0 0 0-46.54417-37.03746c-11.7871-7.84454-23.5744-15.69405-36.86494-20.88362a21.48827 21.48827 0 0 0-2.27738-.62108c-2.811.75344-5.13.52073-5.84968-2.91814 10.02553-5.66277 19.55369-12.00549 27.68821-20.25343 2.47555-.78545 4.70473.27112 6.99.92059 27.47437 10.25329 50.07859 28.22009 72.7999 46.00089 5.89431 4.61266 11.933 9.0418 17.66043 13.86993 1.64613 1.95979 3.8049 3.65357 3.50815 6.63959-5.56891 10.8391-8.80516 22.47168-11.64687 34.23849C210.09258 335.9102 208.67339 333.876 207.15539 332.11616z"/><path fill="#26a526" d="M153.48334,87.83816c5.29382.7865,9.72358,3.80777,14.61286,5.637,5.77874,2.162,11.42086,4.76735,17.97147,3.30937,4.29049-.95494,7.71087-2.762,10.0427-6.55731,1.0881-1.771,2.349-3.6612,4.85006-3.12443,2.4086.51693,2.9137,2.6565,3.42709,4.707,1.50608,6.01541,2.87679,12.07148,4.60853,18.022,2.26609,7.78657,7.83606,11.69941,15.751,12.42242a11.04576,11.04576,0,0,0,9.72368-4.08876c1.27237-1.45572,2.68364-3.01193,4.86421-2.13969,2.41646.96658,2.1762,3.20152,2.12437,5.31431-.11725,4.78077-.12814,9.56076,1.222,14.219.34812,3.65263-2.94933,6.09252-3.16351,9.5596-.62606,1.81161-.38863,3.69972-.4998,5.55375-.13034,2.174-.688,4.01658-3.20094,4.47141a14.42146,14.42146,0,0,0-11.12466,4.49562,4.351,4.351,0,0,1-2.89651,1.49735c-16.995-10.6258-32.90354-22.39235-43.51748-40.01736-4.27781-7.10354-9.34515-13.70195-14.2788-20.3721a43.04119,43.04119,0,0,0-8.4298-9.08773C154.3653,90.749,152.77144,89.87324,153.48334,87.83816Z"/><path fill="#b8303c" d="M234.90015,154.10864c1.911-.01293,2.74789-.78749,2.71775-2.8789-.03322-2.30687-.49327-4.76579,1.0012-6.88451,2.74646,5.53054,5.20026,11.19447,9.933,15.52136,2.39749,2.19192,4.21169,3.4403,7.26753.938,3.15065-2.58,7.25167-3.196,11.17932-3.93034,4.67878-.87475,5.67911-2.13622,4.584-6.74606a49.38806,49.38806,0,0,0-3.67041-10.35534c-.6226-1.26941-1.50887-2.51776-.62137-4.03112,3.38409-1.00071,5.61976,2.17216,8.671,2.37621,3.35769,2.9611,3.52753,7.06064,4.23224,10.8589,2.7182-1.94819,3.994-6.39171,8.54425-6.56466q.94986.08328,1.8999.16639c9.2784-3.66311,17.39027-2.24058,24.01694,5.54506,1.4526,1.70664,2.71849,3.52835,2.65319,5.92917-2.17683.38933-2.4612-1.62373-3.35922-2.74847-6.13155-7.67932-15.23637-8.45594-22.46326-1.82062a43.26957,43.26957,0,0,0-4.65,4.77862c-4.045,5.06717-4.41056,6.8405-.04452,10.41241a8.34176,8.34176,0,0,1,1.81623,2.77264c3.16243,6.071,8.61356,8.18142,14.65467,4.96861,6.56222-3.48995,12.41774-7.90729,12.97329-16.34343a2.9501,2.9501,0,0,1,1.058-2.06454c2.16011,4.591,1.19477,9.08392-1.06473,13.17539a5.57116,5.57116,0,0,0-.10143,6.10169c-3.67626,5.58719-9.012,8.31445-15.53892,8.79629-3.26694.24116-6.56342.00742-10.114.27609,8.12595,6.878,18.44943,12.12728,15.33772,25.38891-2.61954,12.15092-20.24436,22.06449-32.70782,13.514-1.02336-.70208-1.88768-1.15812-2.94553-.2102-2.08631.28886-2.68009-1.37943-3.44425-2.71856-.95105-1.66659-2.09955-3.53869-1.92168-5.34382.86172-8.7462-5.80413-9.89722-11.62966-12.05379-2.59345-.96009-3.02416.74253-3.48732,2.51808a41.91927,41.91927,0,0,1-7.38213,14.88638c-1.59484,2.09744-3.42784,3.7802-6.22024,4.02089-4.46416-.15589-9.09449,1.20232-13.27169-1.46622-1.22851-2.49592.90153-2.45561,2.25374-2.861,10.52061-3.1543,18.151-14.50641,17.1157-25.52665-.70188-7.4711-9.214-12.989-17.9088-12.007-4.34467.49068-7.98367,3.08728-12.29029,3.47414-1.30406-1.65094-.23239-2.96488.79152-4.05725,1.62032-1.72861,2.48657-3.86256,3.59968-5.868,7.67128-3.4003,15.16517-2.19449,22.58746.89107,1.769.73541,3.62856,2.65788,5.06255-.51007,1.14454-2.5285,3.27294-4.82843-.11767-7.47006a32.59476,32.59476,0,0,1-8.73074-10.5919A2.38486,2.38486,0,0,1,234.90015,154.10864Z"/><path fill="#d7932e" d="M343.28444,370.8042c-1.75675-6.17247-6.46743-10.0649-11.73884-12.44553-4.19486-1.89443-5.49072-4.90188-6.53185-8.50047-2.47424-8.55229-2.461-8.87653,6.42115-10.66447,20.31536-4.08941,40.71132-7.77745,61.04019-11.802,5.07814-1.00532,10.39469-1.53634,14.7951-4.76159,4.96808,2.05152,5.923,5.81769,1.87017,10.40407a91.21149,91.21149,0,0,1-21.20874,17.58051C373.86409,359.13789,358.55083,364.92308,343.28444,370.8042Z"/><path fill="#26a526" d="M216.85339,174.1663c.99406,4.68051-4.49417,5.79925-5.23455,9.52676a2.96708,2.96708,0,0,1-2.37678,2.745,78.38031,78.38031,0,0,0-31.36977-1.257c-1.169-.71675-.64874-1.63317-.20508-2.44933a25.772,25.772,0,0,1,2.65811-3.36289c8.42315-10.76419,6.58841-20.38675-5.29784-27.44792a78.02529,78.02529,0,0,0-15.334-6.52711c-4.93578-1.65057-4.96539-2.21651-3.70571-7.29992,1.3182-5.31962,2.496-10.763-1.3287-15.70782.69523-12.65263-5.01023-21.83622-15.42617-28.46884-1.80888-1.15185-3.4116-2.513-2.95409-4.93422a3.1264,3.1264,0,0,1,3.75017-2.758c14.4361,6.24245,22.82732,18.57448,30.73765,31.15157,10.50725,16.70612,22.87673,31.40887,40.191,41.4841,3.09821,1.80286,6.42382,3.62129,8.24447,7.05456A12.57267,12.57267,0,0,1,216.85339,174.1663Z"/><path fill="#d7932e" d="M142.08125 346.7521a12.21165 12.21165 0 0 0-.41511-10.637c-1.699-3.51256-.90412-6.23682.33476-9.40685 4.68438-11.98628 4.55113-11.90578 14.74-4.22408 15.099 11.38371 29.58072 23.45114 42.74966 37.06029 3.04024 3.14185 4.87114 7.60777 9.55677 9.01327 1.26619-.52517 2.25607-2.1633 3.94646-.97972 2.24414 3.608 4.28745 7.5501 1.42325 11.44048-2.96246 4.02385-7.41807 3.50437-11.7949 2.34932-9.95584-2.62726-18.957-7.35111-27.54444-12.81835C163.95959 361.47105 153.0695 354.03446 142.08125 346.7521zM232.975 370.41508a22.97579 22.97579 0 0 1-.59711 3.24746 3.89343 3.89343 0 0 0 1.274 4.68445c1.80418 1.47622 3.472.4822 4.75222-.59615 9.3916-7.91043 20.88157-12.03483 31.60751-17.48351 11.04-5.60825 22.70658-9.81079 34.44969-13.76265 2.62635-.88384 3.52232-.69106 4.59787 2.30332 2.45909 6.84644 3.03992 12.92991-1.84465 19.13468-2.86448 3.63873-3.64876 8.38693-3.30432 13.13452-18.44383 3.623-36.96082 6.49368-55.85874 5.96742-3.31607-.09231-6.649.49834-9.97693.73473-3.667.26046-7.19075-.244-9.18062-3.73291-1.95938-3.43548-.72374-6.79238 1.21071-9.8734C230.93925 372.84368 232.011 371.6632 232.975 370.41508zM60.60608 273.77447c.80205 1.71284 2.03021 2.9089 4.02311 2.864 12.32259-.27758 23.36837 4.44388 34.22454 9.28457 12.78982 5.70288 25.17341 12.252 36.17552 21.14882 2.1411 1.7314 2.20061 2.688.39374 4.40315a41.20005 41.20005 0 0 0-5.96705 6.81022 4.82385 4.82385 0 0 1-4.36838 2.466c-5.23269-.26592-9.94186 1.5716-14.53921 3.79327-14.792-11.2702-29.71119-22.38527-43.095-35.3715-3.08209-2.99055-6.36084-5.84371-8.54363-9.58822-2.12764-3.65-2.4711-7.22464 1.64735-9.94617C61.708 271.00383 61.14677 272.38928 60.60608 273.77447z"/><path fill="#d64142" d="M267.541,135.469c1.60352,4.25339,3.35313,8.45856,4.77708,12.77124,2.26082,6.84719,1.15263,8.45935-5.56879,9.828-4.16167.84744-8.36695,1.80267-11.81668,4.62137-1.21861.9957-2.61342,2.12492-4.18966.70037-5.78367-5.2271-11.53612-10.49953-12.12346-19.04456.242-3.44289,2.51149-5.94834,4.0618-8.78635a21.42965,21.42965,0,0,1,7.55924-4.64271c4.062-.39379,8.14858-.99473,12.14437.304C264.61083,131.94388,266.98664,132.64529,267.541,135.469Z"/><path fill="#1b8d25" d="M218.64966,165.5901c-10.46594-7.67671-21.98354-13.90905-30.95713-23.629-6.61517-7.1654-11.96141-15.19153-17.37762-23.20367-6.1165-9.04808-11.91037-18.31468-20.48753-25.42068-3.13166-2.59452-7.63842-3.2376-9.79784-7.11175a24.87294,24.87294,0,0,1,13.454,1.61329c13.89083,12.26859,22.22029,28.80214,33.28009,43.24236,7.8018,10.18638,18.04692,17.75422,28.89537,24.505,2.26423,1.409,4.72445,2.74029,5.94458,5.36816C222.1726,163.48911,221.28419,165.09585,218.64966,165.5901Z"/><path fill="#26a526" d="M171.15521,28.45148c8.68474.12123,14.915,8.33059,12.05569,15.96137a10.4588,10.4588,0,0,1-1.92511,3.23777c-1.38839,1.55527-3.205,2.36017-5.05269.85273-1.652-1.34781-1.45311-3.16558-.15984-4.658,1.77708-2.05075,1.57468-4.07337.22356-6.11837-1.47564-2.23347-3.69049-2.88029-6.26053-2.60154-4.14835.44992-8.24538,4.05622-8.47843,7.89562-.27834,4.58547,3.05652,6.29324,6.71362,7.43956,2.73025.85581,5.602,1.29,8.28587,2.25807,6.66542,2.40423,8.69536,7.80046,5.516,14.19a10.13258,10.13258,0,0,1-.73466,1.232c-3.73649,5.4168-4.23091,6.11986,4.18058,7.17056,2.382.29755,4.75532.15353,6.72352,1.8876,1.50689,1.32762,2.15478,2.91588,1.12466,4.64556-1.0192,1.71134-2.58445,1.5111-4.12.4632-2.81572-1.92153-6.18673-1.06794-9.26162-1.77868-6.94482-1.60525-9.09742-6.05859-5.70754-12.34765,4.57673-8.491,4.4574-8.74792-5.06754-10.911-8.80082-1.99859-13.49244-6.123-13.97006-12.281C154.55194,36.10857,162.04282,28.32429,171.15521,28.45148Z"/><path fill="#fbb641" d="M177.42989,184.625c10.92685-2.67748,21.7469-2.581,32.42324,1.24831,1.11965,1.20387.30922,2.251-.25924,3.32218-1.577,2.368-3.84317,2.74342-6.31009,1.89984-16.49693-5.64117-29.79729.76474-42.07669,11.07549-9.56525,8.03176-17.02386,17.99-25.03431,27.44134-1.645,1.94091-3.08064,4.08942-5.68826,4.8967q-3.463-1.0023-6.92625-2.00442c11.31055-12.94508,21.39918-26.99932,34.656-38.18357a7.55407,7.55407,0,0,0,1.2192-1.97356c5.08618-3.97934,11.55763-4.79309,17.19083-7.52237A.49294.49294,0,0,1,177.42989,184.625Z"/><path fill="#1b8d25" d="M67.20456 176.12927c-.24989-2.46139 1.52762-3.23084 3.31782-4.03951A153.55413 153.55413 0 0 1 111.875 159.62534c14.812-2.15406 28.00364 1.64161 40.71419 8.44385 2.59275 1.38754 7.07563 2.91467 4.91344 6.68673-2.09389 3.6529-5.36675.33057-7.81192-1.06277-16.9817-9.67664-34.769-10.22736-53.01272-4.60525-7.43988 2.29272-15.03531 4.27159-21.9319 8.06312-1.79756.98823-3.69848.80281-5.59205.91269A2.292 2.292 0 0 1 67.20456 176.12927zM415.83748 158.83833a211.47765 211.47765 0 0 0-33.31323-4.9871A127.6051 127.6051 0 0 0 329.61 160.30836c-1.99189.69663-4.31628 1.22622-5.35578-1.32228-1.04838-2.5703.92146-3.76768 2.93738-4.60867a99.12894 99.12894 0 0 1 23.42871-6.05776c8.53876-1.30354 17.13692-1.017 25.71938-.94682a166.85273 166.85273 0 0 1 41.32822 5.73182C418.4755 155.46834 418.18967 157.48316 415.83748 158.83833zM177.42989 184.625a1.04463 1.04463 0 0 1-.80556.1997c-4.66478-.64831-4.86742-1.20655-2.54047-5.15764 1.53488-2.60621 3.74386-4.64828 5.32678-7.26051 2.88991-4.76908 1.359-8.376-1.84534-11.98421-6.06866-6.83359-14.70215-8.38418-22.77157-11.08835-1.34333-.45018-2.76743-.65409-4.14391-1.01148-5.14407-1.33559-5.89321-3.60231-2.60792-7.55173 2.69708-3.24229 4.57422-6.85885 3.70112-11.23871-.343-1.72046.95781-2.154 1.70431-3.06781q.60524-2.03814 1.21173-4.07752c.39605-.6348.79208-1.269 1.333-2.13518 2.81386 6.66547 3.45066 13.20205.574 19.78032-.95229 2.17765-.51222 3.00779 1.7501 3.70186a99.06248 99.06248 0 0 1 15.49022 6.03357 28.48531 28.48531 0 0 1 9.98937 8.62511c5.21017 6.91567 4.14114 14.22253-2.89286 22.33463C179.76294 182.04177 178.58842 183.32648 177.42989 184.625z"/><path fill="#26a526" d="M397.0786,105.01463a33.41647,33.41647,0,0,1,1.16069-5.5605A3.21427,3.21427,0,0,1,402.462,97.302c2.0954.72925,2.38052,2.24978,1.40855,4.20345a6.36935,6.36935,0,0,0-.61991,2.75516c.00213,2.02255-.26794,4.83543,1.9279,5.31274,1.83728.39937,1.87709-2.47773,2.59469-3.94111,1.408-2.87136,2.81981-5.72752,5.25821-7.87949,2.65138-2.34,5.76078-3.831,9.17913-2.22833,4.414,2.06937,6.7215.403,9.264-3.28733,3.95694-5.74345,9.42129-7.35234,14.942-5.2106a11.27511,11.27511,0,0,1,3.54785,2.30044c1.50539,1.4208,2.22573,3.35356.82119,5.12852-1.5307,1.93446-3.3377,1.1873-5.001-.16158-3.7967-3.07919-7.05708-1.62774-9.28732,1.82053-3.83727,5.933-8.20286,9.232-15.41671,5.48832-2.003-1.03949-3.61911.28619-4.9105,1.88167-1.83,2.261-2.79735,4.97131-4.02364,7.54844-1.37686,2.89354-2.60154,6.05147-6.64758,5.77193-3.8638-.26692-5.82512-3.03185-7.155-6.19656A31.72393,31.72393,0,0,1,397.0786,105.01463Z"/><path fill="#fbb641" d="M224.5165,299.93565q-2.03629-2.95521-4.07257-5.91045c.1886-5.38755,4.2082-9.02406,6.31513-13.52695,5.03514-10.76105,11.01931-21.05948,14.11832-32.69639,1.52855-5.73979,2.92194-11.35395,2.003-17.32148-.24173-1.56982-.49811-3.2154,1.31187-4.1782,1.64371-.49351,3.08026.11059,4.49749.8338,3.555,2.466,3.34456,6.16111,3.18722,9.834-.49284,11.505-4.57789,22.00357-9.50509,32.15178-2.87763,5.92685-4.97278,12.34969-9.55109,17.36373Q228.66867,293.21058,224.5165,299.93565Z"/><path fill="#d64142" d="M305.81254,207.74634c.427-10.076-4.84236-16.66445-13.116-21.40758a33.31685,33.31685,0,0,1-3.31955-1.86068c-1.22175-.90239-.95458-2.27416-.57828-3.494.28407-.92079,1.14353-1.01884,1.96271-.79262,9.82485,2.7133,18.0499-.42285,25.36661-6.90642,4.75291,8.36157,4.23526,15.928-1.58136,23.32047-.87706,1.11468-1.70694,2.26652-2.56085,3.40078-.6665.47461-1.33076.94959-2.00065,1.42983C307.35306,202.72516,306.9212,205.45941,305.81254,207.74634Z"/><path fill="#d7932e" d="M232.8208,286.48549c3.80763-8.21529,7.76514-16.36524,11.38077-24.66419,3.62487-8.32013,6.308-16.98134,6.606-26.12192.08566-2.62761.30184-5.79188-2.49378-7.71393,2.23185-1.79663,4.05739-.814,5.784.84554,2.69189,10.41223.21136,20.24837-3.986,29.62364-4.806,10.7348-9.56456,21.53093-15.81023,31.56122Q233.56138,288.25115,232.8208,286.48549Z"/><path fill="#fbb641" d="M60.60608 273.77447q-.02536-2.06666-.04985-4.13455c5.25436-4.19106 11.52757-6.43416 17.55052-9.13964 5.89243-2.64685 11.84159-5.16744 17.76445-7.74282 1.30316 2.26772 3.83033 2.08251 5.84862 2.918-6.17542 5.33239-13.9604 7.38493-21.277 10.35941-5.394 2.19288-10.39542 5.70758-16.71289 5.02754C62.09394 270.88632 61.75807 272.974 60.60608 273.77447zM212.99379 367.578q-1.97355.49051-3.94679.98039c2.0937-2.27268 2.87518-5.12841.49142-7.1716-4.81979-4.13131-4.70057-9.4233-4.28535-14.79706.37426-4.84388 1.24794-9.64915 1.90184-14.4725 2.04.31055 3.37653 2.57464 5.71478 2.05663A127.95214 127.95214 0 0 0 212.99379 367.578z"/><path fill="#d64142" d="M276.08209 138.80851q3.61764-.01107 7.23454-.02125 2.60307 1.41972 5.20766 2.83774a1.16721 1.16721 0 0 1 .21494.78761c-3.51385 2.43185-6.268 5.61853-9.29416 9.58431A39.75867 39.75867 0 0 0 276.08209 138.80851zM254.09781 228.831q-2.89272-.42351-5.78472-.8463-1.917-.56537-3.83557-1.1322c-3.09972-1.16536-6.33807-2.14675-7.61109-5.736 6.93049-3.64153 8.905-10.58583 11.4086-17.16615a12.22214 12.22214 0 0 0 .84748-3.193c.19516-2.20031 1.05443-2.82225 3.03757-1.66381a27.31731 27.31731 0 0 0 11.12113 3.801c1.76143.17509 1.57747.96447 1.69189 2.47616.42409 5.60295.71906 11.37 5.18682 15.67972C265.95024 226.007 260.187 227.75548 254.09781 228.831z"/><path fill="#fbb641" d="M236.86643,221.11653q3.80551,2.868,7.61106,5.736c-2.13864,2.08517.02243,4.21576.117,6.263.41115,8.89813-2.76544,16.9731-5.836,24.884a228.71152,228.71152,0,0,1-18.31381,36.02456q-14.53281-11.19513-29.06046-22.397c-18.91172-14.65374-38.35809-28.42314-60.89976-37.118,7.77538-9.20342,15.07057-18.87417,23.4547-27.48466,9.25763-9.50755,19.92992-17.29055,33.7312-19.20072a31.54817,31.54817,0,0,1,14.9312,1.87868c2.49975.87887,4.57194,1.27946,6.30516-1.1579,1.21154.91633,1.11545,2.21273.93894,3.47946-1.496,10.73588,1.93108,19.39089,10.82492,25.755a6.97948,6.97948,0,0,1,1.89682,2.11737C227.17679,222.14267,232.07033,221.05862,236.86643,221.11653Z"/><path fill="#d64142" d="M218.64966 165.5901q1.4764-2.31816 2.95337-4.63631c3.85383-3.40606 7.1806-7.83472 13.29693-6.84525 3.25118 5.08191 6.59283 10.09384 11.75657 13.49807 1.57081 1.03558 1.5268 1.99421.516 3.511-1.48427 2.22717-2.13623 5.57544-4.12758 6.696-1.29325.72772-4.33591-1.66636-6.60028-2.64911-6.40464-2.7796-12.99228-2.013-19.59139-.99837C216.61416 171.13205 218.12129 168.46358 218.64966 165.5901zM222.56743 219.89632C212.7525 215.539 206.59 204.01 208.30432 193.249c.24861-1.56061.40438-3.136.60278-4.70452q.47338-1.33587.94676-2.6714.88323-1.08985 1.76645-2.18017c7.14121-3.88337 14.36924-6.40445 22.52669-2.77 7.308 3.25591 9.84208 6.60822 9.29989 14.63088-.45995 6.8058-3.32012 12.86758-7.49485 18.188C232.61485 217.99464 227.5928 219.062 222.56743 219.89632zM268.3851 164.58889c10.231-.00386 16.39859 8.45076 13.43464 17.7579-3.48035 10.92866-12.79409 16.55449-21.98424 13.36947-6.56339-2.27467-9.74174-7.71863-10.28426-13.73842-.56453-6.264 4.151-10.8066 9.05131-14.265C261.5466 165.63512 264.90785 163.84808 268.3851 164.58889zM317.29394 154.008c-.13985 9.417-7.75276 18.78485-16.96855 20.88006-5.00941 1.13888-10.68621-1.59146-12.5201-6.29964a7.92879 7.92879 0 0 0-2.58432-3.89947c-4.287-2.97953-3.50628-6.02254-.64353-9.56047 2.52384-3.119 5.10938-6.21946 8.38295-8.45042 8.08781-5.51189 17.86478-3.01808 22.91574 5.52871a17.90263 17.90263 0 0 0 1.43239 1.846zM271.30018 205.87691c-.3-2.44676 1.03043-4.03541 3.27582-5.06408 4.24586-1.94513 8.14089-4.28138 10.30448-8.72244.73958-1.5181 1.97549-1.70736 3.62405-1.185 8.15814 2.58479 12.97591 12.916 10.11308 20.73927-2.34466 6.40717-12.37933 9.90629-16.86931 8.91628C274.993 219.0713 271.12149 213.55881 271.30018 205.87691z"/><path fill="#26a526" d="M297.14871,47.80788a21.898,21.898,0,0,0-18.19142,33.34061c3.2257,5.494,9.22337,8.0343,14.61749,6.19154a13.11047,13.11047,0,0,0,8.43442-14.02654c-.51627-4.18638-4.01683-7.8769-7.65676-8.01585-1.70252-.06491-3.24829.389-3.854,2.16885-.59616,1.74984.0026,3.41241,1.73248,3.91956,2.65125.7768,3.71982,2.19816,3.14754,4.89392-.50194,2.36446-1.75071,4.18313-4.10323,4.84095-2.646.73988-4.66987-.59226-6.21346-2.60783-5.62469-7.34327-1.74551-20.31209,7.02412-23.08448,6.42319-2.03034,12.84594-1.70838,18.0451,2.92523,6.49744,5.79012,7.44835,13.64857,5.79967,21.61774-3.38723,16.37363-15.14765,27.00751-26.92458,38.44707-1.99517-9.77091-11.13561-13.28861-15.36867-20.68225-1.08985-1.90355-3.72851-2.27414-6.06279-2.24527-2.3929.03-4.78841-.056-7.18.01628-2.69858.08163-3.81752-1.1654-3.47928-3.80319.16239-1.264.22014-2.55226.50672-3.78757,1.78371-7.698-.27051-13.48617-7.2586-17.95218-10.37271-6.629-11.23243-17.856-2.518-26.76849,1.5805-1.61676,3.13235-3.23156,1.21664-5.23737-1.71728-1.79783-3.85921-.988-5.596.401a16.46846,16.46846,0,0,0-2.65125,2.73244c-8.691,11.1317-6.57559,26.059,5.26907,33.848,4.55915,2.99818,6.27556,6.41884,5.21,11.54506-.25965,1.24682-.45331,2.50948-.627,3.77193-1.06944,7.78008,2.60436,11.7867,10.49168,11.51663,2.65516-.091,5.41583-.94527,8.04364,1.00757a19.44,19.44,0,0,0-15.502,12.82466c-2.25786,5.81226-1.18755,9.61437,3.39244,13.6084,6.385,1.87793,10.56984-1.5195,14.31529-5.97075a31.58968,31.58968,0,0,0,6.04369-11.22157c6.365,3.78517,8.16478,11.8464,6.0641,26.76609-.08771.07056-.175.1307-.26269.19453,1.23835,2.0514,2.94564,3.16209,5.471,2.64257a32.82766,32.82766,0,0,0,1.78849-11.74133c-.12679-3.01837.98825-4.98336,3.03987-7.03541,5.74973-5.75191,11.43216-11.59,16.82933-17.67082a52.73454,52.73454,0,0,0,12.532-26.95693C325.54525,60.91152,313.77353,47.08776,297.14871,47.80788Zm-26.5199,63.096c-1.60048,4.7337-4.06242,8.89533-8.36451,11.71332a8.239,8.239,0,0,1-1.29263.56663c-1.63218-.21623-1.957-1.335-1.98345-2.71464-.07989-4.20137,5.4636-10.49668,9.77264-11.07461C269.92149,109.23891,271.258,109.04157,270.62881,110.90387Z"/><path fill="#d64142" d="M81.18741 380.56142c.43812.30134 1.12459.792 2.06247 1.46284a29.52964 29.52964 0 0 1 2.56984 2.052 18.38029 18.38029 0 0 1 2.01189 2.07636 5.69877 5.69877 0 0 1 1.07943 1.96087 3.4518 3.4518 0 0 1-.0267 2.00733 6.58442 6.58442 0 0 1-1.34864 2.25178c-5.90475 6.95248-8.85734 10.42873-14.7623 17.38164-2.36815 2.78846-5.18353 4.00814-8.477 3.55049-3.2941-.45722-7.005-2.53792-10.9704-6.33808a19.59275 19.59275 0 0 1-4.301-5.60645 5.73124 5.73124 0 0 1-.63481-3.28259 4.30171 4.30171 0 0 1 1.29806-2.46845 4.90723 4.90723 0 0 1 1.86208-1.178 4.53826 4.53826 0 0 1 1.825-.24663c.5992.84843 1.138 1.55228 1.60851 2.1111q.708.83889 1.6287 1.74854c1.49757 1.47543 2.86379 2.22834 4.07544 2.27567a4.44208 4.44208 0 0 0 3.42066-1.64043C70.94041 391.43173 74.35607 387.8083 81.18741 380.56142zM97.08082 393.1273a5.17222 5.17222 0 0 1 3.83923-1.99343 7.74152 7.74152 0 0 1 7.43792 5.60123 5.19 5.19 0 0 1-.85929 4.23741 5.00659 5.00659 0 0 1-3.75652 2.1606 7.83855 7.83855 0 0 1-7.68607-5.78795A5.00469 5.00469 0 0 1 97.08082 393.1273zM84.84341 431.75413c-.531-.2792-1.31021-.69907-2.33428-1.26745a26.09832 26.09832 0 0 1-2.973-1.9283 23.1121 23.1121 0 0 1-2.45195-2.09026 6.39313 6.39313 0 0 1-1.44677-2.05552 3.8178 3.8178 0 0 1-.2501-2.11588 5.1414 5.1414 0 0 1 1.13588-2.28522q7.78344-9.836 15.5671-19.67163c.47046.26877 1.15932.66911 2.07159 1.19536a25.58682 25.58682 0 0 1 2.638 1.75245 21.76376 21.76376 0 0 1 2.183 1.86274 5.51043 5.51043 0 0 1 1.2898 1.8623 3.75239 3.75239 0 0 1 .20885 2.01341 5.6542 5.6542 0 0 1-1.06466 2.3078Q92.13 421.54382 84.84341 431.75413zM122.22169 432.903a3.19557 3.19557 0 0 0 .21493-3.082 6.17955 6.17955 0 0 0-2.60957-2.491 14.56147 14.56147 0 0 0-2.67014-1.188 8.43689 8.43689 0 0 0-2.5998-.46633c-4.395 7.34066-6.59231 11.011-10.98733 18.35208a21.67608 21.67608 0 0 1-2.354-.99259 30.0027 30.0027 0 0 1-3.13951-1.7303 22.58181 22.58181 0 0 1-2.5846-1.86708 6.27456 6.27456 0 0 1-1.58615-1.91658 3.78931 3.78931 0 0 1-.40642-2.079 5.19371 5.19371 0 0 1 .95352-2.36555c4.106-6.15267 6.15919-9.22858 10.26524-15.38082a4.21208 4.21208 0 0 1 2.20663-1.78979 8.63088 8.63088 0 0 1 2.96692-.33738 24.88984 24.88984 0 0 1 6.49526 1.26571 38.91642 38.91642 0 0 1 7.50349 3.37507c4.65445 2.65646 7.81286 5.441 9.49475 8.57206a9.97062 9.97062 0 0 1 .21883 9.56553c-3.3653 6.9451-5.04806 10.41743-8.41357 17.36253a21.33287 21.33287 0 0 1-2.4131-.77028 29.48421 29.48421 0 0 1-3.252-1.43027 22.17311 22.17311 0 0 1-2.71291-1.61567 6.169 6.169 0 0 1-1.731-1.75766 3.77052 3.77052 0 0 1-.57618-2.0273 5.23826 5.23826 0 0 1 .74444-2.43806C118.03834 440.56327 119.43279 438.01014 122.22169 432.903zM160.78794 437.40052a31.01121 31.01121 0 0 1 6.56213 3.26 22.51416 22.51416 0 0 1 4.56241 3.90523 8.485 8.485 0 0 1 1.58311 2.48365 4.28922 4.28922 0 0 1 .01 2.83492c-2.4704 8.26726-3.70593 12.40132-6.17634 20.66857a9.771 9.771 0 0 1-3.14407 4.94255 12.2464 12.2464 0 0 1-5.36612 2.455 20.507 20.507 0 0 1-6.99134.10291 37.32045 37.32045 0 0 1-7.92076-2.08592 32.3236 32.3236 0 0 1-10.32125-5.77666c-2.21944-2.04076-2.839-4.11452-1.92223-6.17916a4.24465 4.24465 0 0 1 1.70773-1.9752 5.5803 5.5803 0 0 1 2.224-.81066 28.332 28.332 0 0 0 4.15643 3.56 24.26257 24.26257 0 0 0 5.34744 2.86053 16.44048 16.44048 0 0 0 6.80681 1.35 3.68524 3.68524 0 0 0 3.5735-2.52924c.13-.37255.195-.55883.325-.93137a22.2021 22.2021 0 0 1-7.74013-1.63739 24.15127 24.15127 0 0 1-5.938-3.23526 15.2715 15.2715 0 0 1-4.10844-4.53483 12.36844 12.36844 0 0 1-1.63457-5.67027 14.16745 14.16745 0 0 1 1.44352-6.586 14.32731 14.32731 0 0 1 4.00445-5.35981 13.431 13.431 0 0 1 5.41626-2.63606 18.28572 18.28572 0 0 1 6.421-.264A31.84106 31.84106 0 0 1 160.78794 437.40052zm1.14413 9.90594a8.48491 8.48491 0 0 0-1.24009-.95916 10.5707 10.5707 0 0 0-2.20141-1.05685 7.73043 7.73043 0 0 0-5.60515-.30872 6.40149 6.40149 0 0 0-3.45931 3.83707c-.88317 2.21444-.94895 4.03679-.17563 5.46316a6.95031 6.95031 0 0 0 3.88656 3.15883 8.78194 8.78194 0 0 0 5.05067.57055C159.6855 453.72921 160.43428 451.58859 161.93207 447.30646zM188.07661 477.32562c-.5814-.04125-1.4357-.11072-2.56615-.21623a24.615 24.615 0 0 1-3.38137-.55839 21.69187 21.69187 0 0 1-2.97539-.91313 6.01691 6.01691 0 0 1-2.06485-1.28655 3.74027 3.74027 0 0 1-1.01973-1.8254 5.30532 5.30532 0 0 1 .15153-2.54226q4.593-17.27331 9.18625-34.54618c.4976.04646 1.23162.12332 2.199.22188a21.49653 21.49653 0 0 1 2.88572.4963 18.49124 18.49124 0 0 1 2.53554.79025 4.8433 4.8433 0 0 1 1.769 1.15889 3.659 3.659 0 0 1 .89554 1.7416 6.03933 6.03933 0 0 1-.09422 2.53314Q191.83714 459.85215 188.07661 477.32562zM216.118 482.92208a30.75 30.75 0 0 1-8.40229-2.07723 19.60226 19.60226 0 0 1-6.31615-4.05634 13.91106 13.91106 0 0 1-3.58284-5.81921 15.27978 15.27978 0 0 1 7.37323-18.0095 17.85677 17.85677 0 0 1 5.98833-1.87619 25.82219 25.82219 0 0 1 6.48441-.05254 23.78954 23.78954 0 0 1 6.59773 1.67776 18.294 18.294 0 0 1 5.0422 3.12324 12.96924 12.96924 0 0 1 3.229 4.339 11.24686 11.24686 0 0 1 .99173 5.29816 3.81273 3.81273 0 0 1-1.57009 3.12584 7.62049 7.62049 0 0 1-4.02681 1.16454c-7.42121.38861-11.15667.45418-18.65255.31957a5.55393 5.55393 0 0 0 2.971 3.47755 15.32421 15.32421 0 0 0 5.79185 1.70121 23.833 23.833 0 0 0 5.95208-.086 19.67694 19.67694 0 0 0 4.62406-1.16411 6.00576 6.00576 0 0 1 1.94046 1.85232 3.844 3.844 0 0 1 .70645 2.38682c-.10421 1.84581-1.27287 3.161-3.50794 3.91739a19.65082 19.65082 0 0 1-5.73237.97262A42.7978 42.7978 0 0 1 216.118 482.92208zm.64936-24.30155a8.42893 8.42893 0 0 0-3.02163.12331 6.252 6.252 0 0 0-2.20641.97957 5.24092 5.24092 0 0 0-1.42571 1.54272 6.16286 6.16286 0 0 0-.746 1.85406c5.06565.03343 7.59077-.01216 12.61733-.22449a4.57516 4.57516 0 0 0-1.34473-2.61043A5.97092 5.97092 0 0 0 216.76732 458.62053zM274.24969 483.25208c-.89056.08771-1.94.16673-3.14668.231s-2.45847.0825-3.74979.05384-2.57027-.09813-3.83576-.20754a20.59766 20.59766 0 0 1-3.48862-.584c-2.91091-.72469-4.37982-2.18926-4.44929-4.32468q-.46829-14.38346-.93636-28.76691a2.56338 2.56338 0 0 1 .72034-2.02773 5.906 5.906 0 0 1 2.10068-1.22489 32.12914 32.12914 0 0 1 5.70393-1.40031q3.42522-.57315 7.06342-.92616c5.75538-.5636 10.27219-.3161 13.66441.947a8.9691 8.9691 0 0 1 6.09211 7.30592 6.66239 6.66239 0 0 1-1.03145 5.02158 10.575 10.575 0 0 1-4.57717 3.68075 14.1195 14.1195 0 0 1 6.56691 2.14106 7.55982 7.55982 0 0 1 3.46777 5.21045 9.33885 9.33885 0 0 1-4.06263 9.84863C286.87331 480.75887 281.47116 482.54085 274.24969 483.25208zm-7.01154-23.1952c2.1-.168 3.14929-.26313 5.24693-.47459a7.7588 7.7588 0 0 0 4.369-1.47152 3.29255 3.29255 0 0 0 1.03471-3.0429 3.02767 3.02767 0 0 0-1.90008-2.44023 9.4558 9.4558 0 0 0-4.81989-.47025q-1.045.10291-2.4005.28658c-.9038.12114-1.60916.24055-2.11436.363C266.88753 455.707 267.00455 457.15682 267.23815 460.05688zm1.20818 14.98917a15.6671 15.6671 0 0 0 2.77087.10377q1.68331-.05862 3.20877-.21493a10.838 10.838 0 0 0 4.938-1.57486 3.31563 3.31563 0 0 0 1.60048-3.399 3.0375 3.0375 0 0 0-2.00038-2.66862 11.60845 11.60845 0 0 0-5.05522-.297c-2.42482.25054-3.63842.36169-6.06649.55578C268.084 470.54943 268.20469 472.04787 268.44633 475.04605zM322.84 474.07082a31.35862 31.35862 0 0 1-8.66737 1.25312 19.8293 19.8293 0 0 1-7.442-1.379 13.94912 13.94912 0 0 1-5.54023-4.04635 15.20922 15.20922 0 0 1 .10725-19.46538 18.06813 18.06813 0 0 1 4.89869-3.99512 26.41 26.41 0 0 1 6.06171-2.49928 24.5262 24.5262 0 0 1 6.83416-.94917 18.77428 18.77428 0 0 1 5.92733.97219 13.05837 13.05837 0 0 1 4.68333 2.78455 11.0905 11.0905 0 0 1 2.93674 4.52745 3.784 3.784 0 0 1-.30091 3.49621 7.83179 7.83179 0 0 1-3.35705 2.61739c-6.84653 3.1914-10.33233 4.66769-17.40769 7.37235a5.59476 5.59476 0 0 0 4.09694 2.09982 15.65371 15.65371 0 0 0 6.07995-.61744 24.443 24.443 0 0 0 5.56563-2.3408 20.25492 20.25492 0 0 0 3.91652-2.841 6.09023 6.09023 0 0 1 2.52881.97392 3.8044 3.8044 0 0 1 1.56791 1.94046c.59877 1.74941-.00651 3.415-1.82865 4.969a20.19884 20.19884 0 0 1-5.03113 3.085A43.94163 43.94163 0 0 1 322.84 474.07082zM314.28073 451.309a8.63993 8.63993 0 0 0-2.78911 1.25745 6.32443 6.32443 0 0 0-1.69926 1.7416 5.23272 5.23272 0 0 0-.75465 1.96781 6.11212 6.11212 0 0 0 0 1.99951c4.75867-1.88053 7.11184-2.8779 11.75913-4.98423a4.57451 4.57451 0 0 0-2.24961-1.90746A6.11279 6.11279 0 0 0 314.28073 451.309zM357.51013 460.59746c-.50911.31-1.26462.75942-2.26916 1.34126a25.59031 25.59031 0 0 1-3.14733 1.54186 22.52707 22.52707 0 0 1-3.01359 1.01083 6.20422 6.20422 0 0 1-2.46954.1689 3.76489 3.76489 0 0 1-1.91593-.884 5.21631 5.21631 0 0 1-1.364-2.15409q-6.29976-16.72815-12.6-33.45588c.44137-.25445 1.09506-.62265 1.95783-1.11157a22.44777 22.44777 0 0 1 2.69076-1.29393 19.37336 19.37336 0 0 1 2.57592-.85321 5.04252 5.04252 0 0 1 2.15669-.10421 3.68563 3.68563 0 0 1 1.76982.88361 5.91763 5.91763 0 0 1 1.4066 2.11067Q350.3995 444.19755 357.51013 460.59746zM377.88778 450.74362q-.73175.53082-2.17754 1.53492a26.14562 26.14562 0 0 1-3.044 1.80976 22.88827 22.88827 0 0 1-2.9502 1.267 6.29393 6.29393 0 0 1-2.46824.37863 3.77473 3.77473 0 0 1-1.99386-.71948 5.17438 5.17438 0 0 1-1.53774-2.03468q-7.62876-16.16413-15.25751-32.32913c.42357-.29135 1.05143-.71427 1.88032-1.27613a22.85061 22.85061 0 0 1 2.60349-1.52145 19.75384 19.75384 0 0 1 2.52295-1.07248 5.1332 5.1332 0 0 1 2.15995-.28962 3.69643 3.69643 0 0 1 1.84775.7299 5.85818 5.85818 0 0 1 1.57747 1.98735Q369.46943 434.97571 377.88778 450.74362zM408.43927 420.77614c1.87316 2.49884 2.10567 5.39672.5916 8.6728-1.513 3.27563-4.83161 6.715-9.96673 10.057a44.02344 44.02344 0 0 1-5.63641 3.13973 21.18723 21.18723 0 0 1-4.90585 1.64043 8.67772 8.67772 0 0 1-3.79017-.03 3.75893 3.75893 0 0 1-2.394-1.82193 3.95306 3.95306 0 0 1-.54927-2.564 7.24668 7.24668 0 0 1 .795-2.42156 32.19067 32.19067 0 0 0 5.43407-1.208 25.36982 25.36982 0 0 0 6.27621-3.04247 9.94411 9.94411 0 0 0 2.88811-2.564c.53125-.7998.62047-1.45675.27637-1.96694a1.50942 1.50942 0 0 0-1.55207-.59139 11.177 11.177 0 0 0-3.09153 1.08464c-.87709.396-1.31586.59182-2.194.97827-4.23631 1.88358-7.708 2.67122-10.36055 2.49146a7.21353 7.21353 0 0 1-6.038-3.94475 7.54073 7.54073 0 0 1-1.01495-4.17921 9.80342 9.80342 0 0 1 1.315-4.34292 19.70238 19.70238 0 0 1 3.36574-4.28733A33.44658 33.44658 0 0 1 383.047 411.759a42.89 42.89 0 0 1 4.4291-2.58221 21.17987 21.17987 0 0 1 4.00923-1.57443 7.9492 7.9492 0 0 1 3.32926-.241 3.56257 3.56257 0 0 1 2.36555 1.43461 4.40727 4.40727 0 0 1 .92225 2.34427 5.71455 5.71455 0 0 1-.33434 2.34253 11.34794 11.34794 0 0 0-1.874.55188q-1.19516.437-2.54271 1.04165-1.34754.60312-2.67556 1.28568a23.98252 23.98252 0 0 0-2.33863 1.35429 13.23464 13.23464 0 0 0-2.97821 2.50623c-.59638.752-.72143 1.40378-.36864 1.95782a1.26136 1.26136 0 0 0 1.239.52365 9.85241 9.85241 0 0 0 2.87942-.91573c.89121-.3795 1.33648-.57185 2.22682-.96133 4.60213-1.99995 8.20429-3.07547 10.85468-3.05506A7.435 7.435 0 0 1 408.43927 420.77614z"/></svg>