<svg xmlns="http://www.w3.org/2000/svg" data-name="Layer 1" viewBox="0 0 512 512"><path fill="#fcfafa" d="M485.02064,77.54743a19.42384,19.42384,0,0,0,0-38.84768H345.07608a19.505,19.505,0,0,0-8.30648,0H26.97936a19.42384,19.42384,0,0,0,0,38.84768H49.56522v41.42918a21.69833,21.69833,0,0,0-19.88041,23.19373,21.68848,21.68848,0,0,0,0,32.52365A21.68557,21.68557,0,0,0,52.6646,197.9089a21.56156,21.56156,0,0,0,16.24815,7.33687h.03176A21.61919,21.61919,0,0,0,85.194,197.89743a21.47839,21.47839,0,0,0,2.47474.03794l-7.91829,29.34574A18.51863,18.51863,0,0,0,81.575,241.27552a18.23284,18.23284,0,0,0,11.13809,8.5641l5.92173,1.59777a18.2648,18.2648,0,0,0,11.7709-.76712l18.34858,27.34036a21.95888,21.95888,0,0,0-3.42052,4.22382,18.06866,18.06866,0,0,0-2.65163,8.44411l-2.664,46.84978q-.02911.51216-.02911,1.02607a23.54385,23.54385,0,0,0,5.30944,15.33589l-6.7859,22.1884c-.4998-.116-1.00556-.22012-1.51881-.3079a42.63522,42.63522,0,0,0-13.58637.02293q-2.19219.35865-3.31068.562a18.01025,18.01025,0,0,0-8.35589,3.92342,51.19964,51.19964,0,0,0-13.85148-1.73629,50.337,50.337,0,0,0-17.45508,3.04291,43.98325,43.98325,0,0,0-15.43691,9.64575,44.89151,44.89151,0,0,0-10.31671,15.3531,51.01886,51.01886,0,0,0-3.61285,19.51471,52.057,52.057,0,0,0,3.76063,20.2911,43.35129,43.35129,0,0,0,10.96032,15.61072,43.84747,43.84747,0,0,0,16.00067,9.13227,55.764,55.764,0,0,0,17.11055,2.61414c7.72838,0,14.0822-1.24752,19.3418-3.76725a24.76539,24.76539,0,0,0,7.04837,2.31417,45.12479,45.12479,0,0,0,13.27449.08469,36.95211,36.95211,0,0,0,5.56794-1.13547,18.11981,18.11981,0,0,0,2.76192-1.079,24.89536,24.89536,0,0,0,6.68841,2.12978,39.78386,39.78386,0,0,0,6.68092.53465,47.94806,47.94806,0,0,0,6.59445-.45,36.95253,36.95253,0,0,0,5.56795-1.13547c.418-.12528.82535-.27,1.22855-.423a25.23423,25.23423,0,0,0,5.18945,1.47382,39.7854,39.7854,0,0,0,6.68136.53465,47.94651,47.94651,0,0,0,6.594-.45,37.07335,37.07335,0,0,0,5.57147-1.13635,18.0219,18.0219,0,0,0,7.49855-4.4435c.41334.36.83749.70713,1.276,1.03621a24.11432,24.11432,0,0,0,10.5011,4.459,39.7854,39.7854,0,0,0,6.68136.53465,43.19268,43.19268,0,0,0,6.91207-.55848q2.16837-.35466,3.27892-.55582a18.065,18.065,0,0,0,4.5293-1.45308,39.65145,39.65145,0,0,0,9.03721,2.59649,61.89074,61.89074,0,0,0,10.13938.79756c9.55929,0,17.59933-2.01331,23.95778-5.98216,5.79336,3.84577,12.91607,5.79865,21.23777,5.79865a35.84194,35.84194,0,0,0,15.57917-3.05394,24.98742,24.98742,0,0,0,6.12575,1.87613,45.15315,45.15315,0,0,0,13.274.08469,36.95211,36.95211,0,0,0,5.56794-1.13547,18.01989,18.01989,0,0,0,1.74379-.62022,25.14877,25.14877,0,0,0,5.687,1.671,44.40181,44.40181,0,0,0,13.18229.08469,42.24343,42.24343,0,0,0,5.21989-1.0093,18.20233,18.20233,0,0,0,2.1836-.74639,25.11308,25.11308,0,0,0,5.6844,1.67011,39.69775,39.69775,0,0,0,6.68268.53554,47.96561,47.96561,0,0,0,6.594-.45,36.95253,36.95253,0,0,0,5.568-1.13547,18.03954,18.03954,0,0,0,3.43375-1.442,41.51832,41.51832,0,0,0,7.14058,2.3649,56.63425,56.63425,0,0,0,12.90526,1.3975c9.925,0,17.99215-1.7707,24.63755-5.35709.791.48084,1.60572.93829,2.45842,1.356a38.544,38.544,0,0,0,10.6233,3.29524,61.89225,61.89225,0,0,0,10.13981.79756c10.78034,0,19.63338-2.555,26.31165-7.59185a32.069,32.069,0,0,0,8.62321-40.49574,26.3536,26.3536,0,0,0,1.59778-9.20639,23.92846,23.92846,0,0,0-5.25519-15.11223,27.33239,27.33239,0,0,0-10.06659-7.74625,38.99661,38.99661,0,0,0-9.7128-2.90616,56.74365,56.74365,0,0,0-9.385-.75522,49.54424,49.54424,0,0,0-12.96482,1.64366,38.82134,38.82134,0,0,0-11.90036,5.40913l-.01809.01324a38.62162,38.62162,0,0,0-12.44384-5.43737,61.34709,61.34709,0,0,0-22.49763-.93343,45.0624,45.0624,0,0,0-10.423,2.49856c-.21615.08116-.431.16763-.64361.25762a29.97263,29.97263,0,0,0-4.81537,2.56914c-.35908-.22939-.73581-.43143-1.10327-.648l-11.34212-19.21872a30.82677,30.82677,0,0,0,7.91366-4.61157,43.52945,43.52945,0,0,0,7.25924-7.53009,81.21093,81.21093,0,0,0,6.12773-9.359c1.23958-2.12007,2.5118-4.50041,3.78269-7.07749,1.26649-2.56826,2.51092-5.32268,3.702-8.19443,1.13635-2.743,2.2352-5.5653,3.26921-8.39912,1.087-2.982,2.0517-5.93232,2.87088-8.77849.843-2.937,1.53557-5.77175,2.05919-8.42735l.00089-.00441a47.55834,47.55834,0,0,0,.98372-9.232,24.37761,24.37761,0,0,0-3.93488-13.57755l18.57069-24.96046c.39658.21748.79183.43716,1.21.62817l5.58691,2.54885a18.43,18.43,0,0,0,24.37112-9.097l28.92446-63.39834c.14646-.30085.29159-.60787.43892-.9299.34938-.76756.68155-1.57307,1.01857-2.47121.079-.21.15528-.41731.21219-.57876.31276-.87432.57611-1.69394.8055-2.50474l.0225-.08028.00353-.01236.00309-.01058c.01191-.04412.02382-.08735.03529-.13058a38.52467,38.52467,0,0,0,1.36485-9.03875c.00706-.14646.01191-.29291.015-.44025q.00662-.32027.00221-.63787c.004-.90785-.02118-1.76894-.07544-2.61767-.00353-.05647-.007-.11293-.011-.16939-.06706-.967-.17425-1.94362-.32821-2.98557-.01941-.1394-.04014-.28056-.06528-.43937-.14866-.93431-.341-1.89951-.58759-2.937l-.1019-.41731c-.21042-.8355-.45039-1.67189-.71507-2.49062-.05691-.18351-.11558-.36526-.17469-.5373-.05205-.15263-.10631-.3035-.16233-.45436a38.84716,38.84716,0,0,0-2.7059-5.98173V77.54743Z"/><path fill="#3d3351" d="M68.98906 137.62582a1.35522 1.35522 0 0 1-1.35515-1.35515V58.57531a1.35516 1.35516 0 1 1 2.71031 0v77.69536A1.35522 1.35522 0 0 1 68.98906 137.62582zM119.58139 159.30825a1.35523 1.35523 0 0 1-1.35515-1.35515V58.57531a1.35516 1.35516 0 1 1 2.71031 0V157.9531A1.35523 1.35523 0 0 1 119.58139 159.30825zM174.23918 213.966a1.35521 1.35521 0 0 1-1.35515-1.35515V58.12359a1.35515 1.35515 0 0 1 2.7103 0V212.61088A1.35521 1.35521 0 0 1 174.23918 213.966zM231.60727 139.43269a1.35521 1.35521 0 0 1-1.35515-1.35515V58.57531a1.35515 1.35515 0 1 1 2.7103 0v79.50223A1.35521 1.35521 0 0 1 231.60727 139.43269zM288.07192 188.66987a1.35523 1.35523 0 0 1-1.35515-1.35515V58.12359a1.35516 1.35516 0 0 1 2.71031 0V187.31472A1.35523 1.35523 0 0 1 288.07192 188.66987zM340.92284 133.10865a1.35522 1.35522 0 0 1-1.35515-1.35515V57.67187a1.35515 1.35515 0 1 1 2.7103 0V131.7535A1.35522 1.35522 0 0 1 340.92284 133.10865zM400.0978 158.85653a1.35521 1.35521 0 0 1-1.35515-1.35515V58.12359a1.35515 1.35515 0 1 1 2.7103 0v99.37779A1.35521 1.35521 0 0 1 400.0978 158.85653zM453.40043 194.09048a1.35522 1.35522 0 0 1-1.35515-1.35516V58.12359a1.35515 1.35515 0 0 1 2.7103 0V192.73532A1.35522 1.35522 0 0 1 453.40043 194.09048z"/><path fill="#3d3351" d="M485.02064,59.47874H26.97936a1.35515,1.35515,0,1,1,0-2.7103H485.02064a1.35515,1.35515,0,0,1,0,2.7103Z"/><circle cx="175.143" cy="231.131" r="23.489" fill="#4c0e93"/><circle cx="289.879" cy="192.284" r="14.455" fill="#fbb641"/><path fill="#fce6d9" d="M283.58148,182.34219l1.40428,2.53563a6.999,6.999,0,0,0-5.07125,2.80856S282.31367,183.04433,283.58148,182.34219Z"/><circle cx="399.944" cy="148.662" r="14.455" fill="#4c0e93"/><path fill="#fce6d9" d="M160.81863,219.383l1.40428,2.53563a6.9991,6.9991,0,0,0-5.07125,2.80856S159.55082,220.08514,160.81863,219.383Z"/><path fill="#d64142" d="M319.13916,136.86056l8.49533-1.44876a6.66694,6.66694,0,0,0,4.92851-3.76951l3.62268-7.81957a4.69583,4.69583,0,0,1,8.41929-.20726l4.00305,7.63185a6.66693,6.66693,0,0,0,5.108,3.52244l8.55632,1.029a4.69582,4.69582,0,0,1,2.79882,7.94317l-6.02131,6.1655a6.66693,6.66693,0,0,0-1.77158,5.9465l1.66542,8.45553a4.69583,4.69583,0,0,1-6.68953,5.11641l-7.72442-3.82137a6.667,6.667,0,0,0-6.20291.1527l-7.527,4.19681a4.69583,4.69583,0,0,1-6.93317-4.78106l1.24735-8.52723a6.66693,6.66693,0,0,0-2.062-5.85213l-6.31739-5.86176A4.69583,4.69583,0,0,1,319.13916,136.86056Z"/><path fill="#fce6d9" d="M322.5334,138.0739l1.40428,2.53563a6.99906,6.99906,0,0,0-5.07125,2.80856S321.26559,138.776,322.5334,138.0739Z"/><path fill="#26a526" d="M209.82359,146.79833l8.49533-1.44875a6.66694,6.66694,0,0,0,4.92851-3.76951l3.62268-7.81957a4.69583,4.69583,0,0,1,8.41929-.20726l4.00305,7.63185a6.66693,6.66693,0,0,0,5.108,3.52244l8.55632,1.029a4.69582,4.69582,0,0,1,2.79882,7.94317l-6.02131,6.1655a6.66693,6.66693,0,0,0-1.77158,5.9465l1.66542,8.45553a4.69583,4.69583,0,0,1-6.68953,5.11641l-7.72442-3.82137a6.667,6.667,0,0,0-6.20291.1527l-7.527,4.19681a4.69583,4.69583,0,0,1-6.93317-4.78106l1.24735-8.52723a6.66693,6.66693,0,0,0-2.062-5.85213L207.419,154.8696A4.69583,4.69583,0,0,1,209.82359,146.79833Z"/><path fill="#fce6d9" d="M213.21783,148.01168l1.40428,2.53563a6.99906,6.99906,0,0,0-5.07125,2.80856S211.95,148.71382,213.21783,148.01168Z"/><path fill="#fff" d="M447.619,160.7855c-10.26443-4.68305-23.26671,1.732-28.10861,11.92409a.32417.32417,0,0,0,.15964.43262l5.614,2.56132a.32367.32367,0,0,0,.42593-.15623c3.28317-6.78938,12.23768-11.68121,19.07943-8.55972a13.8088,13.8088,0,0,1,6.83125,18.29477l-.01891-.00863-.312.68465-.0002.00038h0l-29.00064,63.64649a.3237.3237,0,0,0,.1602.42871l5.58865,2.54977a.3237.3237,0,0,0,.42886-.16013l29.03678-63.64354q.16475-.32979.31927-.66807A20.62583,20.62583,0,0,0,447.619,160.7855Z"/><path fill="#d64142" d="M432.10905 168.55143l-9.08535-1.12929a22.8031 22.8031 0 0 0-3.51329 5.28743.3242.3242 0 0 0 .15964.43265l2.15671.984 4.3469.54031A17.8142 17.8142 0 0 1 432.10905 168.55143zM458.60058 172.956l-8.005-.995a13.87122 13.87122 0 0 1 2.26631 7.13453l6.82281.84806A20.65089 20.65089 0 0 0 458.60058 172.956zM457.50343 188.78006q.16475-.32979.31927-.66807a20.78281 20.78281 0 0 0 1.101-3.00475l-6.8817-.85539q-.18857.519-.42137 1.0305l-.01891-.00863-.312.68465-.0002.00038h0l-2.17874 4.78159 7.09582.882z"/><polygon fill="#d64142" points="450.669 203.76 453.628 197.275 446.535 196.393 443.58 202.879 450.669 203.76"/><polygon fill="#d64142" points="445.075 216.021 448.034 209.536 440.948 208.655 437.993 215.14 445.075 216.021"/><polygon fill="#d64142" points="439.237 228.817 442.196 222.332 435.117 221.452 432.162 227.937 439.237 228.817"/><polygon fill="#d64142" points="426.462 240.447 433.53 241.326 436.489 234.841 429.417 233.962 426.462 240.447"/><path fill="#d64142" d="M423.46852 247.01646l-1.17958 2.58879a.3237.3237 0 0 0 .1602.42871l5.58865 2.54977a.3237.3237 0 0 0 .42886-.16013l2.06633-4.529zM447.619 160.7855c-7.00775-3.19722-15.29142-1.22122-21.38337 3.59768l13.34461 1.6587a11.32662 11.32662 0 0 1 4.07459.50646l12.56843 1.56223A20.52924 20.52924 0 0 0 447.619 160.7855z"/><path fill="#fff" d="M140.8833,149.20027c10.89271,2.93911,16.81634,16.17251,14.04573,27.11079a.32417.32417,0,0,1-.39886.23142l-5.9576-1.6075a.32366.32366,0,0,1-.22843-.392c1.80113-7.32332-1.97621-16.802-9.23674-18.761a13.80882,13.80882,0,0,0-16.92928,9.73471l.02008.00541-.19636.7263-.00009.00041h0l-18.25338,67.51834a.32369.32369,0,0,1-.3968.228l-5.93073-1.60025a.32369.32369,0,0,1-.2282-.39684L115.41627,164.459q.08345-.3591.18016-.71819A20.62582,20.62582,0,0,1,140.8833,149.20027Z"/><path fill="#d64142" d="M147.87694 165.07344l7.71811 4.92439a22.803 22.803 0 0 1-.666 6.31322.32419.32419 0 0 1-.39889.23142l-2.28872-.61755-3.69273-2.35608A17.81432 17.81432 0 0 0 147.87694 165.07344zM124.663 151.571l6.80034 4.33883a13.87121 13.87121 0 0 0-6.29568 4.05l-5.796-3.69807A20.6511 20.6511 0 0 1 124.663 151.571zM115.41627 164.459q.08345-.3591.18016-.71819a20.78082 20.78082 0 0 1 1.06826-3.01655l5.84609 3.73q-.18577.52-.33266 1.06247l.02008.00541-.19636.7263-.00009.00041h0l-1.37133 5.07247-6.028-3.846z"/><polygon fill="#d64142" points="111.127 180.356 112.984 173.474 119.009 177.318 117.149 184.198 111.127 180.356"/><polygon fill="#d64142" points="107.616 193.367 109.473 186.485 115.493 190.326 113.633 197.206 107.616 193.367"/><polygon fill="#d64142" points="103.952 206.946 105.809 200.064 111.823 203.901 109.963 210.781 103.952 206.946"/><polygon fill="#d64142" points="106.375 224.052 100.37 220.221 102.227 213.339 108.235 217.172 106.375 224.052"/><path fill="#d64142" d="M104.4908 231.02087l-.74245 2.74627a.32369.32369 0 0 1-.3968.228l-5.93073-1.60025a.32369.32369 0 0 1-.2282-.39684l1.29684-4.80626zM140.8833 149.20027c7.43668 2.00659 12.5569 8.81153 14.17589 16.40841l-11.3364-7.233a11.32672 11.32672 0 0 0-3.4614-2.2085l-10.677-6.81227A20.52915 20.52915 0 0 1 140.8833 149.20027z"/><path fill="#fce6d9" d="M395.35477,141.63465l1.21456,2.19307a6.05353,6.05353,0,0,0-4.38614,2.42913S394.25823,142.24193,395.35477,141.63465Z"/><path fill="#fbb641" d="M88.84721,150.21762a80.77606,80.77606,0,0,1,1.40216-8.83392,3.61014,3.61014,0,0,0-4.26582-4.3207c-2.94118.62705-6.3976,1.2966-8.7531,1.53786-1.52094-1.86809-3.53421-4.85542-5.18691-7.408a3.60766,3.60766,0,0,0-6.05468,0c-1.6527,2.55259-3.666,5.53992-5.1869,7.408-2.35549-.24126-5.81186-.91079-8.753-1.53785a3.61014,3.61014,0,0,0-4.26581,4.3207,80.78286,80.78286,0,0,1,1.40208,8.83391,80.77421,80.77421,0,0,1-7.10278,5.16776,3.61809,3.61809,0,0,0,0,6.093,80.77421,80.77421,0,0,1,7.10278,5.16776,80.78324,80.78324,0,0,1-1.40208,8.83391,3.61013,3.61013,0,0,0,4.26581,4.32069c2.94117-.627,6.39754-1.29658,8.753-1.53784,1.49495,1.83617,3.46554,4.75364,5.10186,7.27676a3.61014,3.61014,0,0,0,6.0716-.03881,80.77315,80.77315,0,0,1,5.255-7.23795c2.3555.24126,5.81192.91081,8.7531,1.53786a3.61014,3.61014,0,0,0,4.26582-4.3207,80.77606,80.77606,0,0,1-1.40216-8.83392A80.77272,80.77272,0,0,1,95.95,161.4784a3.61809,3.61809,0,0,0,0-6.093A80.77272,80.77272,0,0,1,88.84721,150.21762Z"/><path fill="#fce6d9" d="M58.73054,145.30138l1.40428,2.53562a6.99909,6.99909,0,0,0-5.07125,2.80856S57.46273,146.00352,58.73054,145.30138Z"/><path fill="#d64142" d="M177.74219 330.10324a8.851 8.851 0 0 1-3.07732 1.60748 14.43574 14.43574 0 0 1-4.36366.59729 15.45161 15.45161 0 0 1-5.4656-.82668 4.39394 4.39394 0 0 1-2.80206-2.84793q-2.57266-8.08328-4.22558-13.0901-1.65359-5.00638-2.57223-8.77319h-.45922q-.27527 5.4206-.41334 9.87513-.13762 4.45719-.184 8.68145-.047 4.22557-.18351 8.54292-.13764 4.31823-.41334 9.554a16.49115 16.49115 0 0 1-3.1232.7808 23.52678 23.52678 0 0 1-3.85857.32114 12.76964 12.76964 0 0 1-6.29228-1.28634q-2.2524-1.285-2.25064-4.6848l2.664-46.84978a8.80371 8.80371 0 0 1 3.215-2.57267 14.54158 14.54158 0 0 1 6.98177-1.37721 15.94444 15.94444 0 0 1 7.62449 1.51572 8.968 8.968 0 0 1 4.04207 4.91419q.82647 2.20478 1.79143 5.05271.9641 2.84793 1.92907 5.87938.96408 3.03057 1.88318 6.017.91711 2.98557 1.65336 5.37385h.45921q2.20478-7.71669 4.40954-14.92784t4.04207-12.07991a14.77166 14.77166 0 0 1 3.53654-1.24046 21.28308 21.28308 0 0 1 4.82288-.50465 17.45011 17.45011 0 0 1 7.34879 1.33133 5.2843 5.2843 0 0 1 3.30715 3.81225q.36591 1.83951.7808 5.65.41355 3.81268.873 8.58881.45855 4.77744.91843 10.1054.45855 5.328.87255 10.24216.41357 4.9164.689 9.00259.27593 4.08927.36746 6.29316a12.00536 12.00536 0 0 1-3.26127 1.33133 18.9385 18.9385 0 0 1-4.36322.41378 13.06169 13.06169 0 0 1-5.87939-1.19458q-2.38938-1.19238-2.57222-4.6848-.55121-10.01145-.68861-18.00517-.1383-7.992-.41334-13.41212h-.45966q-.9191 3.58374-2.664 9.00258Q180.22157 321.65339 177.74219 330.10324zM234.513 345.26047a32.21 32.21 0 0 1-10.05865-1.51572 22.781 22.781 0 0 1-8.08415-4.54717 21.049 21.049 0 0 1-5.41972-7.62449 27.01924 27.01924 0 0 1-1.97494-10.7477 25.12209 25.12209 0 0 1 1.97494-10.42655 20.17577 20.17577 0 0 1 12.53912-11.2991 27.40073 27.40073 0 0 1 8.45161-1.33222 25.5316 25.5316 0 0 1 8.86451 1.46985 21.35266 21.35266 0 0 1 6.88957 4.04163 17.997 17.997 0 0 1 4.5013 6.15465 18.87129 18.87129 0 0 1 1.60792 7.80888 6.27124 6.27124 0 0 1-1.74556 4.77656 8.72848 8.72848 0 0 1-4.86875 2.113l-22.69 3.39847a7.62391 7.62391 0 0 0 4.13383 4.54717 16.20018 16.20018 0 0 0 7.16528 1.51572 25.63953 25.63953 0 0 0 7.1194-.96431 22.61559 22.61559 0 0 0 5.4656-2.25064 7.7182 7.7182 0 0 1 2.48047 2.57267 6.74249 6.74249 0 0 1-2.84793 9.64487 20.41652 20.41652 0 0 1-6.61387 2.113A46.54094 46.54094 0 0 1 234.513 345.26047zm-2.57179-36.10209a9.109 9.109 0 0 0-3.81268.73493 7.67329 7.67329 0 0 0-2.61811 1.88362 7.80319 7.80319 0 0 0-1.51572 2.57179 10.54947 10.54947 0 0 0-.59685 2.89381l15.70864-2.57267a6.95943 6.95943 0 0 0-2.02126-3.67461A6.77323 6.77323 0 0 0 231.9412 309.15838zM276.95368 343.69887a21.46516 21.46516 0 0 1-2.89381.55141 29.6033 29.6033 0 0 1-4.08751.27527 21.61758 21.61758 0 0 1-3.62874-.27527 6.18333 6.18333 0 0 1-2.70986-1.10282 5.297 5.297 0 0 1-1.69968-2.25065 9.72747 9.72747 0 0 1-.59685-3.72049V309.618a7.83142 7.83142 0 0 1 .7808-3.62873 8.50128 8.50128 0 0 1 2.25065-2.71031 16.25635 16.25635 0 0 1 3.62829-2.15889 37.746 37.746 0 0 1 4.63937-1.69923 39.24977 39.24977 0 0 1 5.144-1.14782 34.61878 34.61878 0 0 1 5.328-.41378 12.536 12.536 0 0 1 6.98132 1.69923q2.57134 1.70189 2.57267 5.55824a8.86 8.86 0 0 1-.3679 2.52591 11.50431 11.50431 0 0 1-.91843 2.25065q-1.92951 0-3.94988.18351-2.02214.18527-3.94988.55141-1.92951.36791-3.62874.7808a15.92844 15.92844 0 0 0-2.89381.96431zM313.79069 343.69887a21.46516 21.46516 0 0 1-2.89381.55141 29.59862 29.59862 0 0 1-4.08751.27527 21.62131 21.62131 0 0 1-3.62874-.27527 6.18735 6.18735 0 0 1-2.7103-1.10282 5.29618 5.29618 0 0 1-1.69924-2.25065 9.72669 9.72669 0 0 1-.59729-3.72049V309.618a7.83692 7.83692 0 0 1 .7808-3.62873 8.507 8.507 0 0 1 2.25065-2.71031 16.25985 16.25985 0 0 1 3.62874-2.15889 37.73809 37.73809 0 0 1 4.63892-1.69923 39.2883 39.2883 0 0 1 5.14446-1.14782 34.61878 34.61878 0 0 1 5.328-.41378 12.536 12.536 0 0 1 6.98132 1.69923q2.57136 1.70189 2.57267 5.55824a8.86 8.86 0 0 1-.3679 2.52591 11.50431 11.50431 0 0 1-.91843 2.25065q-1.92951 0-3.94988.18351-2.02213.18527-3.94988.55141-1.9295.36791-3.62873.7808a15.9283 15.9283 0 0 0-2.89382.96431zM344.38042 332.39977q-1.0124-2.29476-2.15889-5.14446-1.15-2.84663-2.38828-6.52255-1.24134-3.67242-2.57267-8.4053-1.33266-4.7298-2.80206-10.88532a11.91477 11.91477 0 0 1 8.17591-3.215 9.83534 9.83534 0 0 1 5.328 1.33133q2.11213 1.33266 3.12321 5.00683l7.25747 25.26175h.3679q1.10238-3.12188 2.158-6.79781 1.05606-3.67241 2.06714-7.57862 1.00974-3.90267 1.88362-7.808.87211-3.904 1.51572-7.67037a15.31316 15.31316 0 0 1 7.25659-1.74511 9.57117 9.57117 0 0 1 5.328 1.37721q2.11213 1.379 2.113 4.77744a30.18547 30.18547 0 0 1-.64317 5.74086q-.64317 3.26217-1.69923 6.93633-1.05739 3.67506-2.48 7.57862-1.42529 3.90533-2.98557 7.67037-1.56293 3.7677-3.21495 7.119-1.65425 3.3548-3.21584 6.017a64.47721 64.47721 0 0 1-4.77656 7.34923 26.16717 26.16717 0 0 1-4.226 4.45541 12.058 12.058 0 0 1-4.04164 2.20477 14.87928 14.87928 0 0 1-4.226.59729 8.63951 8.63951 0 0 1-6.24641-2.29652 9.65622 9.65622 0 0 1-2.84793-5.97114q2.93925-2.2974 5.87938-5.09858a61.75577 61.75577 0 0 0 5.328-5.74175 8.6334 8.6334 0 0 1-3.35259-2.15889A21.24209 21.24209 0 0 1 344.38042 332.39977zM80.27758 409.564q-7.07484 0-10.83989 4.31778Q65.67 418.2 65.67132 426.09933q0 7.992 4.18015 12.3093 4.17861 4.31953 11.25279 4.31778a17.78116 17.78116 0 0 0 6.38448-1.01019 43.66546 43.66546 0 0 0 5.00682-2.29652 9.14616 9.14616 0 0 1 2.43416 3.07732 9.44231 9.44231 0 0 1 .87256 4.17927q0 3.76769-4.17971 6.38491-4.18125 2.61766-12.72264 2.61767a37.55971 37.55971 0 0 1-11.57481-1.74511 25.78818 25.78818 0 0 1-9.4618-5.37385 25.34173 25.34173 0 0 1-6.38447-9.18609 34.07276 34.07276 0 0 1-2.34241-13.27449A32.95744 32.95744 0 0 1 51.38709 413.468a26.81878 26.81878 0 0 1 6.15465-9.232 25.89965 25.89965 0 0 1 9.14021-5.69587 32.173 32.173 0 0 1 11.20736-1.92862q8.45051 0 13.09053 2.7553 4.63716 2.75661 4.63893 7.074a7.14259 7.14259 0 0 1-1.19414 4.13339 9.82635 9.82635 0 0 1-2.75618 2.75618A29.89526 29.89526 0 0 0 86.5703 410.666 16.61626 16.61626 0 0 0 80.27758 409.564zM147.24555 453.93376a21.46505 21.46505 0 0 1-2.89382.55141 29.60951 29.60951 0 0 1-4.088.27527 21.616 21.616 0 0 1-3.6283-.27527 6.18521 6.18521 0 0 1-2.7103-1.10282 5.29287 5.29287 0 0 1-1.69923-2.25065 9.71823 9.71823 0 0 1-.59729-3.72049V427.01776q0-3.765-1.88319-5.28209a7.16416 7.16416 0 0 0-4.63892-1.51572 12.98237 12.98237 0 0 0-3.49066.45966 10.01527 10.01527 0 0 0-2.664 1.10194v32.15221a21.46516 21.46516 0 0 1-2.89381.55141 29.60972 29.60972 0 0 1-4.088.27527 21.625 21.625 0 0 1-3.62874-.27527 6.18552 6.18552 0 0 1-2.70986-1.10282 5.29281 5.29281 0 0 1-1.69924-2.25065 9.71823 9.71823 0 0 1-.59729-3.72049v-53.2797q1.00975-.18395 2.98557-.50553a24.81638 24.81638 0 0 1 3.9962-.322 21.63257 21.63257 0 0 1 3.6283.27615 6.191 6.191 0 0 1 2.7103 1.10194 5.32123 5.32123 0 0 1 1.69923 2.25065 9.76466 9.76466 0 0 1 .59729 3.72049v9.00258a32.72056 32.72056 0 0 1 3.6283-1.05606 22.55836 22.55836 0 0 1 5.37384-.59729q9.095 0 14.19292 4.54717 5.09837 4.54716 5.09859 13.54975zM172.50686 453.93376a21.45082 21.45082 0 0 1-2.89381.55141 29.6033 29.6033 0 0 1-4.08751.27527 21.61758 21.61758 0 0 1-3.62874-.27527 6.18333 6.18333 0 0 1-2.70986-1.10282 5.29723 5.29723 0 0 1-1.69968-2.25065 9.72752 9.72752 0 0 1-.59684-3.72049V419.85293a7.83136 7.83136 0 0 1 .7808-3.62874 8.50121 8.50121 0 0 1 2.25064-2.7103 16.25583 16.25583 0 0 1 3.6283-2.15889 37.74416 37.74416 0 0 1 4.63936-1.69924 39.253 39.253 0 0 1 5.144-1.14782 34.61577 34.61577 0 0 1 5.328-.41378 12.5376 12.5376 0 0 1 6.98177 1.69924q2.57068 1.70187 2.57223 5.55824a8.87505 8.87505 0 0 1-.36747 2.52591 11.559 11.559 0 0 1-.91887 2.25064q-1.92883 0-3.94988.18351-2.02147.18528-3.95032.55142-1.92883.36789-3.62829.7808a15.92753 15.92753 0 0 0-2.89382.96431zM194.278 396.97857a8.07494 8.07494 0 0 1 2.3424-5.87938 9.24371 9.24371 0 0 1 12.40149 0 8.54977 8.54977 0 0 1 0 11.75876 9.24371 9.24371 0 0 1-12.40149 0A8.06925 8.06925 0 0 1 194.278 396.97857zm16.35137 56.95519q-1.01174.18263-2.98557.50553a24.9398 24.9398 0 0 1-3.99576.32115 21.61754 21.61754 0 0 1-3.62873-.27527 6.18342 6.18342 0 0 1-2.70987-1.10282 5.29721 5.29721 0 0 1-1.69967-2.25065 9.7275 9.7275 0 0 1-.59685-3.72049V410.02367q1.00974-.184 2.98557-.50554a24.911 24.911 0 0 1 3.99575-.32114 21.64766 21.64766 0 0 1 3.62874.27526 6.19137 6.19137 0 0 1 2.70986 1.102 5.31847 5.31847 0 0 1 1.69968 2.25064 9.76551 9.76551 0 0 1 .59685 3.72049zM258.214 440.70515a12.928 12.928 0 0 1-5.23621 10.93209q-5.23667 3.949-15.43294 3.94987a43.60137 43.60137 0 0 1-7.16528-.55141 20.511 20.511 0 0 1-5.64955-1.69923 10.089 10.089 0 0 1-3.67461-2.89382 6.61 6.61 0 0 1-1.33222-4.13338 7.05253 7.05253 0 0 1 .91888-3.7205 9.27963 9.27963 0 0 1 2.20477-2.52679 36.458 36.458 0 0 0 6.10877 2.61855 25.08227 25.08227 0 0 0 7.94607 1.14782 9.28137 9.28137 0 0 0 4.36366-.82668 2.47568 2.47568 0 0 0 1.51573-2.20477 2.30565 2.30565 0 0 0-1.10239-2.02037 10.24149 10.24149 0 0 0-3.67461-1.19458l-2.75574-.55142q-7.992-1.56027-11.8964-4.91418-3.90532-3.35216-3.904-9.59988a12.67813 12.67813 0 0 1 5.60367-10.74769 20.75032 20.75032 0 0 1 6.38448-2.84794 31.3467 31.3467 0 0 1 8.22134-1.01019 38.45675 38.45675 0 0 1 6.38448.50466 20.86946 20.86946 0 0 1 5.19034 1.51572 9.39029 9.39029 0 0 1 3.49066 2.61855 5.91854 5.91854 0 0 1 1.28633 3.81224 7.84547 7.84547 0 0 1-.7808 3.62874 8.16352 8.16352 0 0 1-1.97538 2.52591 11.37534 11.37534 0 0 0-2.20432-.96431q-1.471-.50421-3.2154-.91843-1.74621-.41423-3.53654-.68905a21.652 21.652 0 0 0-3.26128-.27614 12.609 12.609 0 0 0-4.6848.689 2.28541 2.28541 0 0 0-1.6538 2.15889 1.93841 1.93841 0 0 0 .91888 1.65336 10.524 10.524 0 0 0 3.49066 1.19458l2.8475.64317q8.81907 2.02081 12.53956 5.55735A12.049 12.049 0 0 1 258.214 440.70515zM281.36233 438.68477a3.77772 3.77772 0 0 0 1.51573 3.39847 7.6504 7.6504 0 0 0 4.2719 1.01019 18.4086 18.4086 0 0 0 2.84794-.22939 15.77141 15.77141 0 0 0 2.57179-.59729 11.29 11.29 0 0 1 1.424 2.25065 6.85038 6.85038 0 0 1 .59729 2.98556 7.10243 7.10243 0 0 1-2.61854 5.69588q-2.61766 2.20476-9.232 2.20476-8.08459 0-12.44737-3.67461-4.36455-3.67373-4.36366-11.94227v-39.317q1.00974-.27527 2.89381-.59729a23.80883 23.80883 0 0 1 3.99576-.32114 11.75406 11.75406 0 0 1 6.29272 1.424q2.24976 1.42529 2.25064 6.017v5.8785h12.034a15.73482 15.73482 0 0 1 1.05607 2.52679 10.57192 10.57192 0 0 1 .50553 3.35259q0 3.21717-1.424 4.63893a5.15078 5.15078 0 0 1-3.81225 1.424h-8.35942zM323.89434 408.00241a26.375 26.375 0 0 1 7.3951 1.05606 18.21235 18.21235 0 0 1 6.29228 3.17 27.14023 27.14023 0 0 1 6.20053-3.03145 25.51539 25.51539 0 0 1 8.31353-1.19458 25.83084 25.83084 0 0 1 6.8437.91843 17.496 17.496 0 0 1 5.97113 2.89382 14.0055 14.0055 0 0 1 4.18015 5.23621 18.30508 18.30508 0 0 1 1.5616 7.94564v28.93725a21.46516 21.46516 0 0 1-2.89381.55141 29.60788 29.60788 0 0 1-4.08751.27527 21.61386 21.61386 0 0 1-3.62874-.27527 6.183 6.183 0 0 1-2.7103-1.10282 5.29629 5.29629 0 0 1-1.69923-2.25065 9.72651 9.72651 0 0 1-.5973-3.72049v-21.955a4.801 4.801 0 0 0-1.5616-3.99575 6.61444 6.61444 0 0 0-4.226-1.24046 7.33743 7.33743 0 0 0-2.7553.59729 7.95349 7.95349 0 0 0-2.20477 1.24046 2.91212 2.91212 0 0 1 .09176.68816v31.1879a25.95064 25.95064 0 0 1-2.98557.55141 28.93618 28.93618 0 0 1-3.99576.27527 21.62148 21.62148 0 0 1-3.62874-.27527 6.18739 6.18739 0 0 1-2.7103-1.10282 5.29637 5.29637 0 0 1-1.69923-2.25065 9.72673 9.72673 0 0 1-.59729-3.72049v-21.955a4.61322 4.61322 0 0 0-1.69924-3.99575A6.74792 6.74792 0 0 0 322.9759 420.22a7.29125 7.29125 0 0 0-2.84793.50553 21.60937 21.60937 0 0 0-2.02126.96431v32.244a21.46516 21.46516 0 0 1-2.89381.55141 29.59866 29.59866 0 0 1-4.08752.27527 21.62127 21.62127 0 0 1-3.62873-.27527 6.18744 6.18744 0 0 1-2.71031-1.10282 5.29637 5.29637 0 0 1-1.69923-2.25065 9.72673 9.72673 0 0 1-.59729-3.72049V419.66854a6.63273 6.63273 0 0 1 1.05695-3.94988 11.91916 11.91916 0 0 1 2.89381-2.7553 26.4234 26.4234 0 0 1 7.76213-3.58286A33.85353 33.85353 0 0 1 323.89434 408.00241zM398.57766 408.00241a37.74832 37.74832 0 0 1 9.04846 1.01019 20.28617 20.28617 0 0 1 6.98133 3.07732 13.89063 13.89063 0 0 1 4.45541 5.23621 16.77653 16.77653 0 0 1 1.5616 7.48687v20.57783a5.69964 5.69964 0 0 1-1.33221 3.904 13.28746 13.28746 0 0 1-3.16908 2.61767q-5.97246 3.58242-16.81058 3.58286a38.45312 38.45312 0 0 1-8.7732-.91843 20.7873 20.7873 0 0 1-6.70606-2.75618 12.64541 12.64541 0 0 1-4.31778-4.68481 13.86978 13.86978 0 0 1-1.51572-6.6143q0-6.339 3.76637-9.73751 3.76636-3.39714 11.667-4.22514l12.034-1.28634v-.64316a3.93916 3.93916 0 0 0-2.3424-3.81225 15.77406 15.77406 0 0 0-6.75193-1.1487 31.30775 31.30775 0 0 0-6.79782.73492 36.23636 36.23636 0 0 0-5.97114 1.83775 6.35361 6.35361 0 0 1-2.02125-2.5268 7.97879 7.97879 0 0 1-.82668-3.5361 5.89186 5.89186 0 0 1 1.1487-3.81224 8.88824 8.88824 0 0 1 3.5361-2.435 27.66231 27.66231 0 0 1 6.29316-1.469A54.61521 54.61521 0 0 1 398.57766 408.00241zm.73493 36.10209a20.51456 20.51456 0 0 0 3.44434-.322 8.3792 8.3792 0 0 0 2.80206-.87255v-7.34835l-6.61431.55053a10.19126 10.19126 0 0 0-4.22514 1.10283 2.96789 2.96789 0 0 0-1.65424 2.7553 3.65083 3.65083 0 0 0 1.424 2.98556Q395.91324 444.10583 399.31259 444.1045zM467.84039 440.70515a12.92686 12.92686 0 0 1-5.23622 10.93209q-5.23533 3.949-15.4325 3.94987a43.60288 43.60288 0 0 1-7.16571-.55141 20.50762 20.50762 0 0 1-5.64911-1.69923 10.0852 10.0852 0 0 1-3.67462-2.89382 6.61 6.61 0 0 1-1.33221-4.13338 7.05655 7.05655 0 0 1 .91843-3.7205 9.29464 9.29464 0 0 1 2.20477-2.52679 36.47406 36.47406 0 0 0 6.10877 2.61855 25.089 25.089 0 0 0 7.94652 1.14782 9.28258 9.28258 0 0 0 4.36366-.82668 2.47569 2.47569 0 0 0 1.51572-2.20477 2.306 2.306 0 0 0-1.10283-2.02037 10.23834 10.23834 0 0 0-3.67461-1.19458l-2.7553-.55142q-7.992-1.56027-11.8964-4.91418-3.90532-3.35216-3.904-9.59988a12.67919 12.67919 0 0 1 5.60324-10.74769 20.75286 20.75286 0 0 1 6.38492-2.84794 31.34774 31.34774 0 0 1 8.22178-1.01019 38.45131 38.45131 0 0 1 6.384.50466 20.86946 20.86946 0 0 1 5.19034 1.51572 9.39548 9.39548 0 0 1 3.4911 2.61855 5.92028 5.92028 0 0 1 1.28546 3.81224 7.84547 7.84547 0 0 1-.7808 3.62874 8.16147 8.16147 0 0 1-1.9745 2.52591 11.41894 11.41894 0 0 0-2.20477-.96431q-1.47028-.50421-3.215-.91843-1.74687-.41423-3.537-.68905a21.65563 21.65563 0 0 0-3.26083-.27614 12.61421 12.61421 0 0 0-4.68569.689 2.28551 2.28551 0 0 0-1.65335 2.15889 1.94 1.94 0 0 0 .91843 1.65336 10.5275 10.5275 0 0 0 3.49111 1.19458l2.84793.64317q8.81907 2.02081 12.53868 5.55735A12.04578 12.04578 0 0 1 467.84039 440.70515z"/></svg>