<svg xmlns="http://www.w3.org/2000/svg" data-name="Layer 1" viewBox="0 0 512 512"><path fill="#fbb641" d="M92.415 195.5h0a43.00472 43.00472 0 0 0 12.753 20.53873h0a43.00484 43.00484 0 0 0-20.53873 12.753h0a43.00474 43.00474 0 0 0-12.753-20.53873h0A43.00476 43.00476 0 0 0 92.41494 195.5zM110.5537 231.19659h0A21.17864 21.17864 0 0 0 117.61 240.7862h0a21.17847 21.17847 0 0 0-9.5896 7.05626h0a21.1785 21.1785 0 0 0-7.05626-9.58961h0a21.17855 21.17855 0 0 0 9.58961-7.05626zM80.7097 244.45083h0a26.83111 26.83111 0 0 0 8.93956 12.14906h0a26.831 26.831 0 0 0-12.14905 8.93956h0a26.83117 26.83117 0 0 0-8.93956-12.14906h0a26.831 26.831 0 0 0 12.149-8.93957z"/><path fill="#f9f9f9" d="M492.57205,295.002h.00044a23.33721,23.33721,0,0,0-10.33019-1.75183,22.13965,22.13965,0,0,0-3.33658-1.76152,20.885,20.885,0,0,0-17.88454.80406,27.11864,27.11864,0,0,0-7.94492,6.43334,46.1894,46.1894,0,0,0-4.41,6.13976c-1.16641,1.9114-2.3196,4.01676-3.42827,6.26142a63.99029,63.99029,0,0,0-3.71788,9.09766,42.3384,42.3384,0,0,0-1.95063,9.68395c-.01113.15076-.01268.29844-.0216.44876a40.91787,40.91787,0,0,0-8.13139,6.4545,70.3697,70.3697,0,0,0-6.45229,7.561c-1.266,1.69275-2.5237,3.50541-3.84969,5.54729a48.58893,48.58893,0,0,0-3.94711,7.14835,28.76355,28.76355,0,0,0-1.35178,3.83691,36.83885,36.83885,0,0,0-6.691,3.52833,49.09013,49.09013,0,0,0-6.682,5.33658,47.65684,47.65684,0,0,0-6.77189,7.82545q-.363.17721-.72471.36147a48.59954,48.59954,0,0,0-6.39984,3.933,18.82114,18.82114,0,0,0,2.16619-3.97621l1.56183-3.90038.03571-.08993.04408-.11549q.31938-.80936.55984-1.64779c.60172-1.97312,2.20675-4.93808,3.382-5.81972,7.88585-5.90788,10.23542-12.924,10.81775-17.76949a24.03867,24.03867,0,0,0-.69474-9.17525q.41129-.68371.76615-1.40357l6.11727-12.22485a18.32847,18.32847,0,0,0,.85167-1.98722c.15869-.432.305-.87635.43244-1.31717h.00088c.10712-.37382.4038-1.371.83889-2.56029.302-.82522.56116-1.44413.76218-1.88848l1.54507-1.162a19.2558,19.2558,0,0,0,2.46816-2.183c.05069-.0529.10139-.10668.1512-.16046a18.99933,18.99933,0,0,0,2.39851-3.20212l7.80429-12.75471c.01675-.02645.03306-.05378.04937-.08023a28.93723,28.93723,0,0,0,1.82941-3.56624,29.48525,29.48525,0,0,0,1.62795-4.99186c.2019-.10844.40247-.21865.60172-.33326.287-.164.57571-.33855.89487-.53868.44038-.27684.87062-.56514,1.25678-.842.25832-.18338.51179-.37294.76086-.56513.3262-.24774.66652-.52105.95481-.76968q.14944-.1296.2958-.261c.24377-.21248.53118-.47168.838-.76968l.07978-.07758a28.63471,28.63471,0,0,0,8.33725-21.10739q.32532-.34385.63522-.70531c5.944-6.94293,5.963-15.87573,4.075-27.98243a44.64971,44.64971,0,0,0-2.01808-7.95329,14.58291,14.58291,0,0,1,.24951-1.67777c.201-1.00683.39057-1.78092.574-2.52943,2.20851-9.02449.75072-13.095-2.77056-22.928-.7807-2.1803-1.75888-4.91074-2.96849-8.38882l-1.12145-3.23122c-2.14151-6.18119-3.181-9.266-3.68041-10.78248-.04805-.231-.10139-.46286-.1587-.69385L437.3319,163.4769q-.15473-.62023-.3531-1.22813c-.11329-.34737-.24994-.72383-.39277-1.0853a18.312,18.312,0,0,0-.77584-1.74212L428.899,145.591l.053-.23011a27.11212,27.11212,0,0,1,2.50376,3.38639,18.05552,18.05552,0,0,0,15.32646,8.51578c.33767,0,.67754-.0097,1.01741-.02822a18.05649,18.05649,0,0,0,15.289-10.2676,27.00316,27.00316,0,0,1,10.13359-11.34144,18.056,18.056,0,0,0-1.77871-31.63331,27.0001,27.0001,0,0,1-11.07332-9.73377c.20675-.43288.40225-.87282.57561-1.32554a10.0651,10.0651,0,0,1,3.434-4.51313,18.056,18.056,0,0,0-4.25921-31.39527,10.07568,10.07568,0,0,1-4.51489-3.43664A18.05655,18.05655,0,0,0,424.21,57.85a10.06507,10.06507,0,0,1-3.434,4.51312,18.05066,18.05066,0,0,0-6.95307,10.82348c-.21931.0216-.43829.03659-.6577.06657a18.05749,18.05749,0,0,0-14.43513,11.43665,4.15,4.15,0,0,1-1.41591,1.862,18.02664,18.02664,0,0,0-2.74632,2.50122l-.03879-.04408c.28168-17.65135-5.75139-26.93328-8.89621-30.55066-7.8303-9.35245-24.92269-21.92731-56.02481-11.05314a32.8393,32.8393,0,0,0-4.71943-1.80825,12.04541,12.04541,0,0,1-3.0809-1.31717,25.83143,25.83143,0,0,0-32.10719-12.95132,23.07822,23.07822,0,0,0-3.30616-.73,20.37616,20.37616,0,0,0-9.12014-6.55324,20.74128,20.74128,0,0,0-19.136,3.02315,40.94413,40.94413,0,0,0-8.88034,6.95791,25.42607,25.42607,0,0,0-4.4686-.11108,26.6984,26.6984,0,0,0-12.85963,4.11109,18.05938,18.05938,0,0,0-1.8995,1.45207L226.0116,42.997a24.54,24.54,0,0,0-21.83739-1.43884l-.06921.02909a28.96243,28.96243,0,0,0-20.99189,2.6414A41.74,41.74,0,0,0,153.40266,59.288a32.60543,32.60543,0,0,0-5.96783,10.48184,19.27913,19.27913,0,0,0-9.50763,7.72847l-13.32337,21.028a25.11858,25.11858,0,0,0-10.57353,4.663,23.89969,23.89969,0,0,0-9.19156,16.23985c-.32885,2.62288-1.17258,8.3659-3.32511,20.82967l-.097.56161a18.78715,18.78715,0,0,0-.29844,2.72427c-.11241.276-.26934.63831-.48446,1.08971l-.03791.07935q-.166.34649-.358.7203l-.05819.112c-.13224.25567-.27639.52281-.44567.83227l-.09477.17456c-.17853.32268-.36588.65418-.56117.98744l-.12519.21159c-.17677.30064-.36412.611-.58409.96981l-.21291.3456c-.24025.38793-.48976.78466-.72031,1.14l-.23451.35794c-.2332.35707-.47653.72207-.71634,1.07825l-.34825.514c-.31739.4655-.644.93983-.98788,1.42649l-.21732.305c-.32885.462-.67137.93719-1.05488,1.46088l-.3509.47873c-.43994.59511-.89046,1.2008-1.36875,1.82941q-.49526.64933-.92925,1.34186c-.05069.08111-.10095.16134-.15032.24333-.10668.171-.242.39057-.40247.65683-.17236.28741-.38263.64448-.62111,1.06238-.21865.38351-.46551.82609-.74058,1.33392-.7851,1.45295-1.53847,2.972-2.246,4.52988-.324.71413-.652,1.46705-.97333,2.24377a64.4482,64.4482,0,0,0-3.86379,12.7459,19.30932,19.30932,0,0,0-9.87748,14.45893,19.16055,19.16055,0,0,0-2.21027,2.47829L68.158,201.399a19.32767,19.32767,0,0,0-1.82941,20.23456l.31982.63963a20.72094,20.72094,0,0,1-5.23321-9.02757,18.05537,18.05537,0,0,0-30.84953-7.21712,20.74077,20.74077,0,0,1-9.92155,6.16,18.056,18.056,0,0,0-7.21272,30.8513,20.71789,20.71789,0,0,1,5.63347,8.30815,6.15009,6.15009,0,0,1-2.76549,2.02469,18.05545,18.05545,0,0,0-4.767,31.32209,6.15774,6.15774,0,0,1,2.05466,2.793,18.04862,18.04862,0,0,0,7.68836,9.30088l-.01631.00573A20.72641,20.72641,0,0,0,8.50526,317.915a35.77331,35.77331,0,0,0,3.32159,11.9965,51.66653,51.66653,0,0,0,2.68283,5.15937l.26449.45052c1.56977,2.68548,4.83713,8.27332,12.20634,10.27112q.39408.10845.78289.19573.52238,1.0606,1.12895,2.1512.7452,1.337,1.55124,2.56735a21.72142,21.72142,0,0,0,.14019,11.41461,35.03747,35.03747,0,0,0,4.86886,10.19707,41.48574,41.48574,0,0,0,4.38485,5.5279,32.07422,32.07422,0,0,0,5.39388,4.51929,18.07362,18.07362,0,0,0,2.56029,1.40975,42.99078,42.99078,0,0,0,3.42254,8.23365,54.9961,54.9961,0,0,0,7.83074,10.91826,67.98127,67.98127,0,0,0,6.01456,5.79062,40.81764,40.81764,0,0,0,8.91869,5.85763c.3045.145.61032.27507.916.40732a24.87349,24.87349,0,0,0,4.57131,7.05578,42.77622,42.77622,0,0,0,3.94006,3.769,50.94273,50.94273,0,0,0,4.38837,3.33789,39.75547,39.75547,0,0,0,3.93873,2.40071,17.98217,17.98217,0,0,0,7.79085,2.01808,22.038,22.038,0,0,0,1.12255,2.39542,24.54482,24.54482,0,0,0,5.7245,6.90855,42.17511,42.17511,0,0,0,4.36722,3.2127,49.90888,49.90888,0,0,0,4.74852,2.7181,39.365,39.365,0,0,0,4.18956,1.85409,18.00517,18.00517,0,0,0,5.63336,1.06282,23.55179,23.55179,0,0,0,3.47577,10.67977,27.22531,27.22531,0,0,0,12.28523,10.51358,36.062,36.062,0,0,0,7.07518,2.37779,29.70586,29.70586,0,0,0,6.44877.69738q1.39651,0,2.81288-.12519a36.876,36.876,0,0,0,8.61673-1.89553,52.22905,52.22905,0,0,0,8.16224-3.68439c1.71126-.92219,3.475-1.99427,5.24268-3.18537,1.54772-1.04342,3.09633-2.20631,4.62686-3.43487a32.84989,32.84989,0,0,0,7.32732,10.87769,40.61075,40.61075,0,0,0,12.64495,8.373,56.05524,56.05524,0,0,0,13.82988,3.86159,57.24975,57.24975,0,0,0,8.42937.67445,35.4355,35.4355,0,0,0,9.03132-1.09984,24.876,24.876,0,0,0,6.67381,2.1393,41.68272,41.68272,0,0,0,5.3573.55543q1.05863.045,2.1155.04409,1.657,0,3.29866-.10933a39.15221,39.15221,0,0,0,4.47786-.52193,18.019,18.019,0,0,0,3.40975-.98568,24.94017,24.94017,0,0,0,6.56911,1.42033,41.5878,41.5878,0,0,0,5.39962.07053,49.39246,49.39246,0,0,0,5.36082-.55014,38.82525,38.82525,0,0,0,4.46023-.93366,18.09364,18.09364,0,0,0,2.011-.715,25.37244,25.37244,0,0,0,5.26649.56513h.03262a41.67512,41.67512,0,0,0,5.341-.36588,49.37934,49.37934,0,0,0,5.31542-.983,39.01516,39.01516,0,0,0,4.34826-1.28367,17.99053,17.99053,0,0,0,6.84914-4.55413,21.87846,21.87846,0,0,0,2.71843.88121,23.59739,23.59739,0,0,0,5.77255.70266,26.08946,26.08946,0,0,0,3.17876-.19748,41.31763,41.31763,0,0,0,5.29118-1.02094,44.81778,44.81778,0,0,0,5.37228-1.74742c1.196-.47609,2.09478-.84549,2.70312-1.10293a18.03266,18.03266,0,0,0,4.01687-2.36677l.02016.00044h.15958a39.47849,39.47849,0,0,0,8.78292-1.0659,61.95527,61.95527,0,0,0,8.16091-2.50387c7.97225-3.03593,14.09966-7.09369,18.27347-12.05248.028,0,.05565.0022.08364.0022,5.96651,0,12.24116-1.84792,18.67274-5.50233a35.4328,35.4328,0,0,0,11.06791-9.11,25.2681,25.2681,0,0,0,6.06591-2.29139,42.39242,42.39242,0,0,0,4.622-2.86269,50.47983,50.47983,0,0,0,4.30682-3.40226,39.88451,39.88451,0,0,0,3.28059-3.18978,18.07581,18.07581,0,0,0,1.77739-2.33282,25.56121,25.56121,0,0,0,5.50674-2.75337,43.01384,43.01384,0,0,0,4.346-3.29205,50.87538,50.87538,0,0,0,3.92816-3.74521c1.16861-1.24312,2.09874-2.31343,2.84285-3.27266a18.09233,18.09233,0,0,0,1.82808-2.87944,25.77614,25.77614,0,0,0,5.36-3.34054,43.56467,43.56467,0,0,0,4.02513-3.70113,51.88036,51.88036,0,0,0,3.63589-4.17722,41.07253,41.07253,0,0,0,2.65992-3.75315,18.04353,18.04353,0,0,0,1.9136-4.27685,42.57533,42.57533,0,0,0,6.82479-5.22284,62.18415,62.18415,0,0,0,7.46089-8.43026c5.35069-7.19949,8.7957-14.16623,10.23851-20.7036.12211-.55323.2181-1.10426.31034-1.65484a30.22928,30.22928,0,0,0,4.05247-3.27706,43.34557,43.34557,0,0,0,5.91317-7.15276,72.554,72.554,0,0,0,4.59644-7.90833c4.18383-8.313,6.26935-15.98593,6.19838-22.80808C507.45681,307.67472,501.84913,298.84331,492.57205,295.002ZM143.7024,100.9826l.0119.00969c-.03-.0238-.06-.04849-.08993-.07229C143.65038,100.94116,143.67639,100.96232,143.7024,100.9826Z"/><path fill="#26a526" d="M434.94355,238.68868a29.2821,29.2821,0,0,0-1.56183-5.69668c-.60491-1.6431-1.14657-4.78483-.06325-10.20164,1.8056-9.028,2.7084-3.6112-4.514-24.37563-6.95153-19.979-5.54321-16.5574-5.42584-16.2685l-3.566-14.30034a1.38334,1.38334,0,0,0-.0994-.24378L412.554,153.27466l-2.50982-5.02861a1.20961,1.20961,0,0,1-.09929-.81248l2.4557-10.6531a1.20426,1.20426,0,0,0-.3251-1.13754l-4.866-4.86606a1.29628,1.29628,0,0,0-.16255-.13544l-8.80231-6.16615a.89424.89424,0,0,1-.23474-.21666c-.6771-.82153-4.49593-5.53418-5.31751-7.99881-.83051-2.50078-10.14748-13.47882-11.5559-15.14a1.17,1.17,0,0,0-.43333-.316l-7.21337-3.214a2.99785,2.99785,0,0,0-.92991-.23474,2.87957,2.87957,0,0,1-1.18262-.37012l-15.30254-8.73917a11.815,11.815,0,0,1-4.70356-4.98343A14.787,14.787,0,0,0,339.039,75.13722,14.81231,14.81231,0,0,1,328.09693,69.26l-.80339-1.08337a14.65614,14.65614,0,0,0-7.52041-5.26335c-4.36953-1.291-10.8788-4.11677-13.74964-9.84954-4.514-9.028-12.63922-3.6112-12.63922-3.6112s-5.41681,5.4168-6.31961,1.8056-5.41681-2.70841-5.41681-2.70841l-3.6112,1.80561s-3.61121,3.6112-4.514-4.514-5.41681-3.6112-5.41681-3.6112-4.514,1.8056-9.028,8.12521c-3.19595,4.47791-6.85223,3.52094-8.703,2.573a8.90564,8.90564,0,0,0-8.4502.13544l-5.21822,4.56817a34.22371,34.22371,0,0,0-3.7105,3.79178l-1.79657,2.16669a4.85091,4.85091,0,0,1-6.40083.92087l-3.47587-2.31116c-.10822-.07224-.20763-.15347-.30681-.23474l-3.1057-2.66328a6.59157,6.59157,0,0,0-6.79812-1.07433l-5.76891,2.40148a2.80422,2.80422,0,0,1-2.56393-.20763,10.918,10.918,0,0,0-11.87185.17154,20.87378,20.87378,0,0,0-4.04454,3.52089l-2.74455,3.08756a40.538,40.538,0,0,1-5.90435,5.43489l-1.78753,1.33612a23.14213,23.14213,0,0,1-4.75778,2.75359,15.61163,15.61163,0,0,0-6.27443,4.8751l-6.52723,8.47731-.52359-.47851c-.16255-.14442-.325-.28885-.49658-.43332l-2.88892-2.30214a1.207,1.207,0,0,0-1.77861.29794l-16.33164,25.775a1.56151,1.56151,0,0,0-.14448.334c-.23474.91184-1.49857,5.11887-3.77365,3.214a1.14719,1.14719,0,0,0-.58684-.27987c-1.66112-.24377-8.79327-.9028-9.58774,5.471-.84858,6.762-3.27718,20.64706-3.57506,22.38946a.65949.65949,0,0,0,0,.325c.16244.975.43333,7.01479-12.65729,24.2041a.39475.39475,0,0,0-.03615.06321c-.47851.7403-9.15431,14.60731-6.63557,27.41807a1.19826,1.19826,0,0,1-1.18261,1.43548H91.46381A1.20988,1.20988,0,0,0,90.254,198.7217v2.2299a1.354,1.354,0,0,0,.04518.334l1.31806,4.6133a1.12023,1.12023,0,0,1,.04518.34307,1.20792,1.20792,0,0,1-1.20983,1.20074,1.12934,1.12934,0,0,0-.38814.0632l-4.86612,1.625a1.15467,1.15467,0,0,0-.58684.42435l-2.0313,2.7084a1.18867,1.18867,0,0,0-.11737,1.26389l1.42639,2.85288a.68738.68738,0,0,0,.10844.17154l7.02382,9.65993a1.23764,1.23764,0,0,1,.18955.41531l.81244,3.24108a1.12017,1.12017,0,0,1,.03614.29788v14.90526a1.22582,1.22582,0,0,0,.12641.54171l2.49174,4.98343a1.33713,1.33713,0,0,0,.2257.316l3.11473,3.11462a1.211,1.211,0,0,1-.37933,1.96816l-4.45075,1.9049a1.193,1.193,0,0,1-.47851.09929H90.29916a1.207,1.207,0,0,0-1.17368.92088l-.5507,2.16669a1.21357,1.21357,0,0,0,.17159.966l3.19584,4.79387a1.17144,1.17144,0,0,0,.28885.307l9.51556,6.92447a1.16891,1.16891,0,0,1,.37922.43333l2.44655,4.9022a1.23366,1.23366,0,0,0,.35211.42435l3.2591,2.43757a1.41811,1.41811,0,0,0,.27992.1625l4.22516,1.68823a1.31262,1.31262,0,0,1,.28885.1625c.77639.60486,4.26119,3.99037,3.45769,15.23929a24.46882,24.46882,0,0,0,8.08906,19.83452c.02711.01807.04519.03615.0723.05422l6.121,4.36953a1.37291,1.37291,0,0,1,.27982.27986l4.27927,5.99462a1.06473,1.06473,0,0,1,.17158.3521l2.63611,8.76617c.009.04513.01808.09935.02711.14448l.8757,5.24527a1.16325,1.16325,0,0,0,.07229.25276c.26185.65,1.65209,3.232,7.79107,5.48a1.19006,1.19006,0,0,1,.38825,2.01322c-2.22085,1.94105-5.6154,5.72379-3.71953,9.50653,0,0,1.76041,6.17518,9.65089,9.80441a1.0764,1.0764,0,0,1,.46044.3882c.5508.81254,2.0313,3.30428.966,4.85707a1.106,1.106,0,0,0-.16244.82158c.352,1.82362,1.94094,7.737,8.04388,8.50437,7.22241.9028,7.22241,0,7.22241,0l7.11408-1.77849a1.89871,1.89871,0,0,0,.20763-.07224,8.79346,8.79346,0,0,1,9.83152,1.85073,36.29219,36.29219,0,0,0,8.06195,6.2925c.04518.01808.08133.03615.12652.05422l11.67316,4.4869h7.22241l3.50287-4.3876a1.007,1.007,0,0,1,.25281-.2257c.6771-.47851,3.57506-2.39245,4.36953-.80351.74036,1.48965,6.40094,1.75144,8.35995,1.79657a1.22949,1.22949,0,0,0,1.03824-.54166l4.60426-6.90645a1.19223,1.19223,0,0,1,1.2278-.51461c6.13006,1.13754,47.045,8.16136,80.34028-.11737a1.80633,1.80633,0,0,0,.23473-.09025c.89377-.42435,7.14119-3.29525,11.33913-1.85977a1.14841,1.14841,0,0,1,.46044.30692,12.30173,12.30173,0,0,0,10.66213,3.41261s5.02867,0,6.20225-4.04453a1.27025,1.27025,0,0,1,.53262-.72228c1.42649-.86666,6.0668-3.61121,7.421-3.47577a1.33049,1.33049,0,0,0,.70421-.0632l12.15178-5.20912a.8832.8832,0,0,1,.14448-.04519l5.67854-1.625a1.19143,1.19143,0,0,0,.78544-.71319l1.56182-3.90011c.01808-.04513.02711-.07224.04519-.11737.21666-.76736,2.98832-10.10235,9.91274-15.29346,6.1932-4.64041,3.09655-9.2898,2.08552-10.51765a1.2124,1.2124,0,0,1-.27088-.81249c.07229-1.76951.51466-7.76412,3.40358-10.18363a1.13786,1.13786,0,0,0,.30692-.37916l6.15705-12.30518a1.05811,1.05811,0,0,0,.08134-.21667c.316-1.10144,2.907-9.994,6.29249-12.53088l3.42166-2.573a.98846.98846,0,0,0,.30692-.334l7.89951-12.9101a11.6166,11.6166,0,0,0,1.616-5.6786c.09026-2.573,1.34516-6.51825,7.5474-8.89257a7.90631,7.90631,0,0,0,2.77167-1.67925c1.52568-1.49863,3.33128-4.37857,2.87084-9.46134a16.80817,16.80817,0,0,1,.80351-6.81614c.69506-2.07643,1.78753-4.01748,3.45769-4.01748C436.704,252.5828,435.77406,244.01523,434.94355,238.68868Zm-101.836-6.87031s-5.4168,1.80561-3.6112,9.028c0,0,.9028,2.7084-4.514,6.31961-4.18,2.78064-.83954,10.40028.91184,13.74061a6.8777,6.8777,0,0,1,.5507,5.21821,4.843,4.843,0,0,1-5.07374,3.61121,10.63977,10.63977,0,0,0-9.028,4.514s-1.8056,4.514-8.12521,3.61121a7.18813,7.18813,0,0,0-8.12521,4.514s-4.514,8.12521-10.83361,5.4168-12.63922.90281-12.63922.90281-8.12521,7.22241-13.542-1.80561-16.25042-6.31961-16.25042-6.31961-1.80561,2.70841-9.028-7.22241c0,0-6.31961-7.22241-10.83361-4.514s-9.93082-.9028-9.028-9.93082c.55973-5.64251-1.33613-9.17243-2.84374-11.02322a28.94577,28.94577,0,0,1-4.28831-6.88838c-1.48071-3.46672-2.60018-7.36683-.09036-7.36683,4.514,0-5.41681-11.73642-5.41681-11.73642l-3.61121-8.12521s-2.7084-9.028,1.8056-7.22241a3.42294,3.42294,0,0,0,3.98139-.92088,5.71453,5.71453,0,0,0,.9028-6.56332,7.20415,7.20415,0,0,1-.37018-6.05782,6.14755,6.14755,0,0,1,2.555-2.96122,32.57167,32.57167,0,0,0,11.08632-11.00509l.8035-1.38131.9028-8.12521,7.22241-4.514,8.12521-6.31961,10.5267-2.33828a14.56978,14.56978,0,0,1,12.57607,2.95218c.95691.81254,1.53472,1.57086,1.27287,2.0945l2.7084,1.80561s-.9028-10.83362,3.61121-10.83362,8.12521,5.41681,8.12521,5.41681l10.83362-1.8056,5.4168-3.61121,22.57,1.8056,2.70841,6.31961,7.22241,5.41681,3.6112,8.12521,2.70841,4.514v3.6112l-2.70841,5.41681,2.70841,4.514.9028,1.8056v4.514l-1.8056,3.6112,1.8056,1.8056v4.514l4.514,2.7084s8.12521,1.80561,6.3196,4.514C340.32993,215.568,342.13554,221.88756,333.10752,231.81837Z"/><path fill="#d64142" d="M284.53682,97.38224S346.64954,39.5217,371.928,70.21694c0,0,8.12521,8.12522,2.7084,33.40365s-4.514,30.69525-20.76443,42.43166a10.09468,10.09468,0,0,1-1.19169.7403c-17.50532,9.28982-68.324-26.01873-68.324-26.01873S291.26269,118.01124,284.53682,97.38224Z"/><path fill="#d64142" d="M284.53682 97.38224S346.64954 39.5217 371.928 70.21694c0 0 8.12521 8.12522 2.7084 33.40365s-4.514 30.69525-20.76443 42.43166a10.09468 10.09468 0 0 1-1.19169.7403c-17.50532 9.28982-68.324-26.01873-68.324-26.01873S291.26269 118.01124 284.53682 97.38224zM254.58187 121.7037c-1.49865 1.03822-51.04439 35.137-68.28789 25.99165a10.0948 10.0948 0 0 1-1.1917-.7403c-16.25042-11.73641-15.34762-17.15322-20.76443-42.43166s2.70841-33.40364 2.70841-33.40364c22.16377-26.91251 72.63939 14.2462 84.746 24.8.009.44237.03612.9028.0632 1.38128C252.46029 107.05124 251.43109 116.3862 254.58187 121.7037z"/><path fill="#d64142" d="M254.58187,121.7037c1.50768,2.564,3.99941,4.189,8.10715,4.48692a36.65516,36.65516,0,0,0,15.79-2.44659.00884.00884,0,0,0,.009-.009.00884.00884,0,0,1-.009.009c-41.97123,56.21744-33.846,102.65754-33.846,102.65754-13.542-.9028-23.47283-40.62606-23.47283-40.62606-13.542,0-28.88965,9.028-28.88965,9.028.83961-10.90584,25.07982-48.32695,28.51047-53.57223A265.4577,265.4577,0,0,0,254.58187,121.7037Z"/><path fill="#d64142" d="M278.479,123.744q-4.997,6.7033-9.08218,13.199c5.87723,7.84534,16.53029,27.58058,20.37622,70.49975,0,0,15.34762.9028,16.25043-37.91765,0,0,31.598,5.4168,27.98684,11.73641,0,0,9.28079-11.42946-19.15745-42.54a272.13655,272.13655,0,0,1-30.49662-17.94769s-.20765.14444-.61391.39723c-.13542.08125-.2889.17153-.46946.27987a34.39864,34.39864,0,0,1-4.78484,2.28408.00884.00884,0,0,1-.009.009.00884.00884,0,0,0,.009-.009,34.39864,34.39864,0,0,0,4.78484-2.28408c.18056-.10834.334-.19862.46946-.27987.40626-.25279.61391-.39723.61391-.39723Z"/><path fill="#d64142" d="M278.479,123.744q-4.997,6.7033-9.08218,13.199c5.87723,7.84534,16.53029,27.58058,20.37622,70.49975,0,0,15.34762.9028,16.25043-37.91765,0,0,31.598,5.4168,27.98684,11.73641,0,0,9.28079-11.42946-19.15745-42.54a272.13655,272.13655,0,0,1-30.49662-17.94769s-.20765.14444-.61391.39723c-.13542.08125-.2889.17153-.46946.27987a34.39864,34.39864,0,0,1-4.78484,2.28408.00884.00884,0,0,1-.009.009.00884.00884,0,0,0,.009-.009,34.39864,34.39864,0,0,0,4.78484-2.28408c.18056-.10834.334-.19862.46946-.27987.40626-.25279.61391-.39723.61391-.39723Z"/><path fill="#d64142" d="M278.479,123.744q-4.997,6.7033-9.08218,13.199c5.87723,7.84534,16.53029,27.58058,20.37622,70.49975,0,0,15.34762.9028,16.25043-37.91765,0,0,31.598,5.4168,27.98684,11.73641,0,0,9.28079-11.42946-19.15745-42.54a272.13655,272.13655,0,0,1-30.49662-17.94769s-.20765.14444-.61391.39723c-.13542.08125-.2889.17153-.46946.27987a34.39864,34.39864,0,0,1-4.78484,2.28408.00884.00884,0,0,1-.009.009.00884.00884,0,0,0,.009-.009,34.39864,34.39864,0,0,0,4.78484-2.28408c.18056-.10834.334-.19862.46946-.27987.40626-.25279.61391-.39723.61391-.39723Z"/><path fill="#d64142" d="M278.479,123.744q-4.997,6.7033-9.08218,13.199c5.87723,7.84534,16.53029,27.58058,20.37622,70.49975,0,0,15.34762.9028,16.25043-37.91765,0,0,31.598,5.4168,27.98684,11.73641,0,0,9.28079-11.42946-19.15745-42.54a272.13655,272.13655,0,0,1-30.49662-17.94769s-.20765.14444-.61391.39723c-.13542.08125-.2889.17153-.46946.27987a34.39864,34.39864,0,0,1-4.78484,2.28408.00884.00884,0,0,1-.009.009.00884.00884,0,0,0,.009-.009,34.39864,34.39864,0,0,0,4.78484-2.28408c.18056-.10834.334-.19862.46946-.27987.40626-.25279.61391-.39723.61391-.39723Z"/><path fill="#b8303c" d="M306.02349 169.52509c-.66906 28.76858-9.26959 35.72021-13.67934 37.39225.04519.47834.0939.944.13732 1.4282 0 0 15.34762.9028 16.25042-37.91765a157.34362 157.34362 0 0 1 17.296 4.08238A144.68963 144.68963 0 0 0 306.02349 169.52509zM317.56131 139.62431a272.12987 272.12987 0 0 1-30.49665-17.94769l-.78731.39789a271.72869 271.72869 0 0 0 28.57556 16.647c20.5957 22.53108 21.40715 34.73708 20.28856 39.757 1.5971 1.16685 2.30748 2.40782 1.57726 3.68581C336.71873 182.1643 345.99955 170.73486 317.56131 139.62431z"/><path fill="#d64142" d="M409.99008 148.09258a.44462.44462 0 0 0 .05417.15348l2.50979 5.0286 7.15921 14.32746a1.38309 1.38309 0 0 1 .09931.24376l3.56606 14.30037.009.018-.009-.018c-.10833-.27084-1.36323-3.32231 4.29739 13.01794-52.58813 40.08393-91.89166 32.13626-91.89166 32.13626l.808.13934c3.50287-5.146 3.93621-8.89259 3.882-10.68014-.02708-.65.09028-1.282.11737-1.932.06319-1.63407-3.29523-2.85285-5.23625-3.42161l-1.34517.55071s62.29328-24.37564 76.7381-65.9045M390.38124 330.65706c.09931-.09931.19861-.18959.307-.27987a1.13841 1.13841 0 0 0 .30695-.37918l6.15711-12.30518a1.05884 1.05884 0 0 0 .08125-.21667c.316-1.10142 2.907-9.994 6.29252-12.53088l3.42162-2.573a.98717.98717 0 0 0 .307-.334l7.89951-12.91006a11.61728 11.61728 0 0 0 1.616-5.67862c.09028-2.573 1.34517-6.51823 7.54742-8.89259a8.29024 8.29024 0 0 0 2.41951-1.36323C370.23974 292.99219 323.583 252.81753 323.00518 252.321l-.009-.009.009.009a24.80765 24.80765 0 0 0 2.889 8.58564 6.87722 6.87722 0 0 1 .55071 5.21819 4.7088 4.7088 0 0 1-3.4487 3.42162l.00393.00079s18.68406 43.97466 67.43533 61.12788M317.74185 385.28556a.55181.55181 0 0 1-.10834.04514c-33.29531 8.27869-74.21026 1.2549-80.34029.11737a.74045.74045 0 0 0-.19861-.01806c26.47916-34.45089 25.143-95.09206 25.143-95.09206 4.93833 3.19592 10.38222-1.64309 10.38222-1.64309s6.31961-3.61121 12.63922-.90281a6.65374 6.65374 0 0 0 1.87782.5146l.00443-.008s11.65977 88.87073 30.61859 96.99594M214.028 256.66347a17.44772 17.44772 0 0 1-.09028 2.23894c-.90281 9.028 4.514 12.63922 9.028 9.93082-40.04827 68.88373-69.44348 80.20486-75.55544 81.88407a1.19109 1.19109 0 0 0-.55974-.41529c-6.139-2.248-7.52936-4.83-7.79117-5.48a1.16445 1.16445 0 0 1-.07223-.25278l-.87571-5.24528c-.009-.04514-.01806-.09931-.02709-.14445l-2.63618-8.7662a1.06358 1.06358 0 0 0-.17153-.35209l-4.27928-5.9946a1.37019 1.37019 0 0 0-.27987-.27987l-6.121-4.36956c-.02708-.018-.04514-.03611-.07222-.05417a24.46858 24.46858 0 0 1-8.0891-19.83454c.80349-11.2489-2.68132-14.63441-3.45773-15.23929a1.31166 1.31166 0 0 0-.2889-.1625l-2.42853-.975h-.009l-.03611-.009.00342-.00405s63.28353 10.08111 103.8145-26.48775M198.80681 216.29019l2.49173 5.59737s1.52573 1.79657 3.10563 3.99038l-.002-.00176c-55.5785 19.33625-106.02294-28.36425-106.02294-28.36425h.2889a1.1983 1.1983 0 0 0 1.18267-1.43546c-2.51882-12.81075 6.1571-26.67778 6.63559-27.41807a.39176.39176 0 0 1 .03611-.0632c9.70511-12.73853 12.06142-19.35606 12.567-22.32628v-.009l.00323-.00072s8.61769 57.21161 79.71822 70.0312"/><path fill="#fbb641" d="M185.04811,170.42789c-3.59026,7.67834-7.07346,15.34762-15.799,15.34762s-19.41023-7.77417-19.41023-16.25042,9.82353-19.01,18.50743-19.86163C179.90777,148.52958,189.92281,160.00261,185.04811,170.42789Z"/><ellipse cx="215.292" cy="332.481" fill="#fbb641" rx="19.862" ry="21.667"/><ellipse cx="386.373" cy="246.715" fill="#fbb641" rx="17.153" ry="20.313"/><polygon fill="#4c0e93" points="163.298 238.837 170.77 245.628 180.6 243.323 176.45 252.527 181.681 261.164 171.644 260.062 165.047 267.705 162.993 257.819 153.686 253.906 162.453 248.898 163.298 238.837"/><polygon fill="#4c0e93" points="331.504 319.643 322.892 314.368 313.665 318.472 316.02 308.652 309.266 301.145 319.333 300.35 324.386 291.606 328.253 300.935 338.13 303.039 330.452 309.599 331.504 319.643"/><polygon fill="#4c0e93" points="361.093 187.993 354.229 180.66 344.296 182.158 349.149 173.363 344.655 164.38 354.519 166.277 361.674 159.227 362.918 169.195 371.834 173.821 362.738 178.084 361.093 187.993"/><path fill="#1b8d25" d="M137.19971 144.24658a14.67972 14.67972 0 0 1 .19189-3.85254 21.57818 21.57818 0 0 1 1.04151-3.77 4.15466 4.15466 0 0 1 1.3468-1.8667 2.613 2.613 0 0 1 .60009-.32959 1.8026 1.8026 0 0 1 .851-.14648 4.77478 4.77478 0 0 1 1.16919.28076 34.29584 34.29584 0 0 1 3.53308 1.6543l1.66784.94385.79944.4624a2.24656 2.24656 0 0 0 .60511.25732 5.41191 5.41191 0 0 0 3.15686-.36133 8.82385 8.82385 0 0 0 4.8988-5.0083 7.54929 7.54929 0 0 1-1.22852 3.69532 8.493 8.493 0 0 1-2.99511 2.71972 6.59269 6.59269 0 0 1-4.19348.81348 3.61438 3.61438 0 0 1-1.15491-.41406l-.851-.46387-1.64808-.88184c-1.08667-.59863-2.20776-1.19238-3.27124-1.65576a3.86188 3.86188 0 0 0-.64746-.231c.06775-.03809-.16113.021-.30883.11035a3.06759 3.06759 0 0 0-.93165 1.10156 36.29612 36.29612 0 0 0-1.499 3.354A28.28094 28.28094 0 0 0 137.19971 144.24658zM181.43689 341.96a15.63036 15.63036 0 0 0-4.18591 2.40918 11.58208 11.58208 0 0 0-1.66126 1.65186 8.66557 8.66557 0 0 0-1.285 1.85009c-.27075.60205-.26136 1.20215.0177 1.41016a13.14826 13.14826 0 0 0 1.73315 1.44434c.64795.47461 1.29383.96337 1.95325 1.41015l1.00745.667a6.17621 6.17621 0 0 1 1.13635.88672 8.87227 8.87227 0 0 1 1.54809 2.29981 6.96626 6.96626 0 0 1 .67554 2.7456 5.30255 5.30255 0 0 1-.71533 2.81934 10.7666 10.7666 0 0 0-1.08118 2.00781 5.35322 5.35322 0 0 0-.23059 1.05274 10.364 10.364 0 0 0-.08057 1.13525 3.24024 3.24024 0 0 0 .56531 1.98633c.81531 1.1709 2.60816 1.46972 4.21424 1.30762a6.04563 6.04563 0 0 1-2.48658.397 3.83025 3.83025 0 0 1-2.46728-1.0586 4.33011 4.33011 0 0 1-1.13318-2.53955 8.22491 8.22491 0 0 1-.05237-1.32324 6.88145 6.88145 0 0 1 .16638-1.37207 9.49083 9.49083 0 0 1 1.03931-2.417 3.42442 3.42442 0 0 0 .36975-1.91553 6.22194 6.22194 0 0 0-1.76819-3.73535 15.71152 15.71152 0 0 0-1.825-1.34326c-.68555-.49365-1.35425-.98828-1.99951-1.52393a14.019 14.019 0 0 1-1.92883-1.833 2.41468 2.41468 0 0 1-.44373-.83984 2.831 2.831 0 0 1-.07983-.88281 3.62055 3.62055 0 0 1 .48169-1.49414A11.89561 11.89561 0 0 1 181.43689 341.96zM342.58691 238.58936a4.73137 4.73137 0 0 0-.595 1.96875 2.14409 2.14409 0 0 0 .12073.90625 1.11258 1.11258 0 0 0 .53442.55273 8.98435 8.98435 0 0 0 1.86536.67383 11.63056 11.63056 0 0 1 2.09766.82763 6.55508 6.55508 0 0 1 3.09973 3.60791 12.112 12.112 0 0 1 .55261 2.22217 11.20361 11.20361 0 0 1 .21253 2.3003l-.12891 2.12841-.04443 2.09668a11.68394 11.68394 0 0 0 .30114 3.87354 3.98435 3.98435 0 0 0 2.74732 2.19531 15.1914 15.1914 0 0 0 4.13305.5708 11.12236 11.12236 0 0 1-4.34057.38916 6.30842 6.30842 0 0 1-2.2218-.70752 4.33842 4.33842 0 0 1-1.73816-1.80078 6.57443 6.57443 0 0 1-.62915-2.31494c-.08765-.75293-.11719-1.478-.14563-2.19775-.02112-.72461-.02271-1.41407-.01526-2.16114.0094-.73388.06982-1.48047.08435-2.12451a9.18006 9.18006 0 0 0-.14124-1.93408 13.05453 13.05453 0 0 0-.411-1.91992 5.2002 5.2002 0 0 0-2.11084-2.88819 12.85941 12.85941 0 0 0-1.76758-.94433 9.12077 9.12077 0 0 1-1.98461-1.11084 1.97642 1.97642 0 0 1-.6919-1.12744 2.52807 2.52807 0 0 1 .07849-1.20459A4.2959 4.2959 0 0 1 342.58691 238.58936z"/><path fill="#b8303c" d="M357.03174 210.60254a36.01984 36.01984 0 0 1 3.41577-2.62305q1.73767-1.21142 3.48621-2.34082c1.16333-.76074 2.32055-1.50635 3.45459-2.28418a16.02943 16.02943 0 0 0 3.18542-2.68261 7.25745 7.25745 0 0 1-2.16125 3.86035 18.81949 18.81949 0 0 1-3.38733 2.78173 25.29912 25.29912 0 0 1-3.82727 2.02686A17.8902 17.8902 0 0 1 357.03174 210.60254zM358.386 212.85938a31.10141 31.10141 0 0 1 5.31909-2.98682c.88843-.42383 1.78247-.81738 2.68835-1.21436.90686-.3999 1.80176-.80517 2.82617-1.21533a7.36821 7.36821 0 0 1-1.98327 2.54346 12.38484 12.38484 0 0 1-2.68482 1.69726 13.916 13.916 0 0 1-2.984.99317A9.797 9.797 0 0 1 358.386 212.85938zM333.559 277.40967a61.292 61.292 0 0 0 6.77466 6.79736c1.21631.999 2.41955 2.02588 3.72082 2.95117 1.27576.96826 2.61829 1.84912 3.94934 2.89063a16.46024 16.46024 0 0 1-4.76013-1.55713 19.92543 19.92543 0 0 1-4.21069-2.76611 19.41283 19.41283 0 0 1-3.37647-3.75147A12.92873 12.92873 0 0 1 333.559 277.40967zM336.71875 275.15283a37.29253 37.29253 0 0 1 4.08313 2.835c.62646.45655 1.23547.90674 1.88025 1.33887.65185.42188 1.32336.7998 2.16186 1.24316a4.35622 4.35622 0 0 1-2.75793.21192 7.01383 7.01383 0 0 1-2.4812-1.19287 8.12742 8.12742 0 0 1-1.84851-1.94629A6.25972 6.25972 0 0 1 336.71875 275.15283zM278.488 296.36865a23.47274 23.47274 0 0 1 2.60949 6.98487 33.46223 33.46223 0 0 1 .78553 7.45507 33.97473 33.97473 0 0 1-.86939 7.44239 29.05292 29.05292 0 0 1-2.52563 7.00732c.32824-2.47217.76489-4.854.9862-7.26465l.18189-1.79834.11352-1.80078c.07849-1.19726.12-2.39892.11463-3.59717l.00793-1.7998c-.024-.59912-.06409-1.19727-.07434-1.79834-.04431-1.20068-.14941-2.39844-.25549-3.6001A69.97983 69.97983 0 0 0 278.488 296.36865zM274.42542 297.72266a18.5323 18.5323 0 0 1 1.68164 5.47607 23.582 23.582 0 0 1 .20434 5.76807 19.40212 19.40212 0 0 1-1.37671 5.6455 14.03615 14.03615 0 0 1-3.21765 4.77784 42.01977 42.01977 0 0 0 1.73621-5.269 38.59669 38.59669 0 0 0 .86743-5.34033q.23474-2.70117.23682-5.45605C274.54907 301.48535 274.49438 299.63525 274.42542 297.72266zM209.42371 272.44434a20.18779 20.18779 0 0 1-1.46375 4.96435 27.19933 27.19933 0 0 1-2.45373 4.562 22.66346 22.66346 0 0 1-3.38636 3.97071 13.27481 13.27481 0 0 1-4.43249 2.75341c1.19763-1.27392 2.2633-2.5205 3.28821-3.81494 1.0072-1.3081 1.93518-2.66552 2.87207-4.02588C205.71033 278.11426 207.41541 275.272 209.42371 272.44434zM192.27051 286.88916a42.98391 42.98391 0 0 1 3.21985-3.02393l3.27978-2.78808c1.094-.91358 2.17749-1.82129 3.21521-2.77393a20.49646 20.49646 0 0 0 2.92444-3.15039 8.17267 8.17267 0 0 1-1.75415 4.18262 17.88833 17.88833 0 0 1-3.10071 3.27344 23.96 23.96 0 0 1-3.67053 2.52832A17.84954 17.84954 0 0 1 192.27051 286.88916zM166.99207 215.56787c2.733.65527 5.19555 1.60059 7.69763 2.418 1.24646.40137 2.4768.8501 3.7351 1.19287 1.262.34522 2.51807.65967 3.91492.90332a8.90413 8.90413 0 0 1-4.17151.63574 15.7677 15.7677 0 0 1-4.11877-.8374 19.47071 19.47071 0 0 1-3.77222-1.74805A14.55563 14.55563 0 0 1 166.99207 215.56787zM161.57532 216.4707a10.49923 10.49923 0 0 0 2.28979 1.32764c.783.37988 1.60828.67725 2.41736.99121 1.63525.60107 3.30444 1.11084 4.97693 1.63428l5.0697 1.52246c1.70032.521 3.40967 1.03809 5.10779 1.74707a27.7994 27.7994 0 0 1-5.43823-.22168 34.10352 34.10352 0 0 1-5.322-1.13525 25.64545 25.64545 0 0 1-5.05652-2.14014 14.82527 14.82527 0 0 1-2.28662-1.57861A6.484 6.484 0 0 1 161.57532 216.4707z"/><path fill="#d64142" d="M262.08493,85.02307a34.21224,34.21224,0,0,1-4.59688.34146c-2.31623.05264-6.2775,1.61872-5.63264,11.93645.9028,14.44482-1.8056,27.98684,10.83361,28.88964a36.308,36.308,0,0,0,21.66724-5.4168s8.25565-3.30227-2.07475-29.64334a10.49219,10.49219,0,0,0-8.41869-6.58226A41.86938,41.86938,0,0,0,262.08493,85.02307Z"/><path fill="#b8303c" d="M284.35626,120.77382a36.308,36.308,0,0,1-21.66724,5.4168c-12.63921-.9028-9.93081-14.44482-10.83361-28.88964-.02623-.41971-.0421-.8197-.05356-1.21093-.02887.913-.01543,1.91173.05356,3.01654.9028,14.44482-1.8056,27.98684,10.83361,28.88964a36.308,36.308,0,0,0,21.66724-5.41681s3.37183-1.363,3.102-9.23239C287.20186,119.62724,284.35626,120.77382,284.35626,120.77382Z"/><path fill="#b8303c" d="M254.54927 121.64108q-.265-.45461-.4924-.94573c-.00827-.018-.01741-.03527-.02557-.05339a14.83346 14.83346 0 0 1-.79844-2.26147c-.01432-.05279-.0281-.10613-.042-.15936q-.14681-.5618-.26758-1.15247c-.00485-.02441-.01058-.0481-.01543-.07262q-.12927-.64924-.23033-1.3315l-.0086-.06282c-.05951-.40859-.11152-.827-.158-1.25215q-.0162-.14613-.03119-.2937-.05967-.58419-.10635-1.18674c-.00551-.07015-.012-.13875-.01719-.20928q-.04992-.6843-.08574-1.3909c-.00793-.15275-.0141-.30891-.02127-.46314-.01421-.31078-.02733-.62354-.03868-.93994q-.01189-.336-.02259-.67606c-.00639-.21335-.012-.42914-.01752-.64481-.062-2.42225-.07461-4.9783-.15319-7.60454l-.00066-.02508q-.02414-.79966-.05863-1.60745c-.00419-.09726-.008-.19424-.01234-.2916-.02557-.57-.05455-1.14178-.09015-1.71535-.02436-.38979-.04012-.76306-.05158-1.12828-.00286-.08227-.00992-.172-.01168-.253-.52722-.45961-1.13159-.98055-1.79888-1.54811-.02524.88952-.01025 1.85994.05654 2.92942.64315 10.28992-.54155 20.11725 3.28984 25.2483.69264-.46639 1.12244-.76257 1.24224-.84555C254.57 121.68378 254.561 121.66113 254.54927 121.64108zM284.63507 97.69486c.08751.27182.16862.53488.25149.80042.12167.39018.24135.7775.353 1.1544.07946.2678.15418.52926.22868.79044.10183.35712.20057.70978.29358 1.05472q.10381.38493.2.75932.12877.49989.24465.98171c.05841.24228.11583.483.16972.71875.07152.3137.13753.619.20134.92132.04728.22443.09544.4498.13864.66812.05907.29926.11153.58822.1631.87608.03659.20509.0756.41332.10856.61274.0486.29375.08937.57527.13015.85684.02535.176.05444.35729.07692.52855.04155.31689.07428.61957.10624.92082.013.12266.0302.25209.04166.37222q.05884.61783.09158 1.19164c.00628.11021.0076.21143.01245.31927.01245.27.02414.53868.02843.79408.00221.1409-.00033.27243-.00033.409 0 .2095.00033.41961-.005.619-.00385.14216-.01146.27639-.01785.41354-.00826.1809-.01675.36137-.02931.53362-.0097.13494-.02227.26388-.03461.3937-.01521.162-.03108.32224-.05.47637-.01521.12513-.03218.24608-.04959.3661-.02138.14674-.04387.29039-.06833.42974q-.03009.171-.0626.33475c-.02689.13423-.05532.264-.08486.39112-.0238.10238-.04749.20393-.07295.3018-.032.1231-.06546.24058-.09963.35668-.02645.08992-.05245.18084-.08012.26669-.03714.11533-.07615.22372-.11516.33183-.02766.07637-.05444.15517-.083.228-.043.11009-.08761.21214-.13224.31447-.02667.06111-.05257.12591-.07968.18431-.05709.12266-.11527.23628-.1739.34737-.01587.03-.03108.06392-.04706.09307-.07483.13715-.15043.26482-.22625.38451-.02535.04-.05048.07438-.07582.11252-.051.07686-.10194.15362-.15275.22311-.031.04248-.06127.07973-.092.11957-.04463.05791-.08927.11593-.13324.16839-.032.0383-.063.07257-.09455.10806-.04144.04678-.08244.093-.12277.13517-.0313.03273-.06128.06248-.09169.09251-.0388.03819-.0766.07522-.11363.10922-.02942.02694-.05741.0519-.08562.07631-.03549.03092-.06965.0599-.10316.087-.02634.02127-.05157.04139-.07637.0604-.03229.02468-.06238.04683-.092.06788-.022.01576-.04364.03125-.06414.045-.02854.01929-.05389.03554-.07913.05125-.01719.01085-.03438.022-.05.03119-.0248.01471-.045.02595-.065.03686l-.03141.01736c-.02237.01168-.0389.01972-.05235.02606l-.00881.0043-.022.0097s.30218.20988.86356.59015c.60812-.35955.942-.59015.942-.59015s7.17623-2.8811-.24069-24.64333c-.89432.79618-1.3844 1.25177-1.3844 1.25177C284.57182 97.48932 284.60091 97.58873 284.63507 97.69486z"/><path fill="#b8303c" d="M287.3355 114.90561c14.16495 2.248 73.67761 12.87394 65.34476 31.88694-17.50532 9.28982-68.324-26.01873-68.324-26.01873S286.72159 119.82588 287.3355 114.90561zM252.677 115.64591c-11.96212 1.84171-74.94154 12.52185-66.383 32.04944 17.2435 9.14538 66.78924-24.95343 68.28789-25.99165A16.43771 16.43771 0 0 1 252.677 115.64591zM210.32654 98.20361a26.65968 26.65968 0 0 1 7.60718-3.98388 30.997 30.997 0 0 1 8.517-1.64356 33.85085 33.85085 0 0 1 4.36573.10694c.72277.09277 1.44006.23584 2.15759.35205.35767.0664.71875.11084 1.07226.1958l1.04749.31152a23.58992 23.58992 0 0 1 7.73364 3.7583A47.13279 47.13279 0 0 0 234.747 95.064a34.63339 34.63339 0 0 0-8.20081-.49121 45.37344 45.37344 0 0 0-8.18115 1.14112A61.42934 61.42934 0 0 0 210.32654 98.20361zM220.25732 105.42627a11.94554 11.94554 0 0 1 4.5022-3.35693 15.93026 15.93026 0 0 1 5.5304-1.40284 16.81774 16.81774 0 0 1 5.65844.58692 17.30031 17.30031 0 0 1 2.65259.957 20.7569 20.7569 0 0 1 2.4209 1.41016c-.94336-.10694-1.8208-.333-2.71411-.47266l-1.33289-.19531-.65661-.10938-.66309-.05664c-.44153-.03418-.879-.07568-1.31262-.13428l-1.31128-.03808a9.67181 9.67181 0 0 0-1.3031-.00049c-.433.02-.86865-.00342-1.29883.04736a26.28643 26.28643 0 0 0-5.13476.86817A28.28835 28.28835 0 0 0 220.25732 105.42627zM292.48145 101.81494a28.94877 28.94877 0 0 1 6.60229-4.34033 36.42876 36.42876 0 0 1 7.48291-2.69336 30.0936 30.0936 0 0 1 7.93774-.82568 23.14752 23.14752 0 0 1 7.76954 1.54 55.57485 55.57485 0 0 0-7.73365.02 48.3305 48.3305 0 0 0-7.51465 1.21094 68.67707 68.67707 0 0 0-7.33459 2.1792C297.27637 99.77979 294.88562 100.74609 292.48145 101.81494zM293.38428 104.52344a25.39311 25.39311 0 0 1 6.17724-1.50147 29.29016 29.29016 0 0 1 6.40125-.11718 26.8034 26.8034 0 0 1 3.19824.54931 17.05313 17.05313 0 0 1 3.08386 1.11328 9.14563 9.14563 0 0 1 4.61219 4.47022 12.87829 12.87829 0 0 0-5.19849-3.02393 28.68169 28.68169 0 0 0-5.894-1.11963c-2.01258-.21582-4.05689-.27588-6.11744-.31982zM277.00755 125.74666C236.70682 181.0595 244.633 226.40157 244.633 226.40157a7.69206 7.69206 0 0 1-2.19375-.49218 8.63635 8.63635 0 0 0 3.99935 1.395s-8.12521-46.4401 33.846-102.65756C279.2985 125.02879 278.19975 125.40464 277.00755 125.74666zM221.16017 185.77551c-10.47413 0-22.0221 5.39813-26.7197 7.84523a13.49729 13.49729 0 0 0-.36434 2.08558s14.19741-8.34755 27.3309-8.98536C221.24458 186.11263 221.16017 185.77551 221.16017 185.77551z"/><path fill="#fce6d9" d="M377.63044 236.91954l1.85395 2.22541a6.99419 6.99419 0 0 0-4.45083 3.70791S376.51773 237.84651 377.63044 236.91954zM205.1954 322.68566l1.85395 2.22542a6.99417 6.99417 0 0 0-4.45084 3.7079S204.08269 323.61263 205.1954 322.68566zM157.34693 161.08423l1.854 2.22542a6.99416 6.99416 0 0 0-4.45083 3.7079S156.23422 162.01121 157.34693 161.08423zM174.50015 77.12371l1.854 2.22542a6.99417 6.99417 0 0 0-4.45084 3.7079S173.38744 78.05069 174.50015 77.12371zM259.36347 93.37413l1.854 2.22542a6.99416 6.99416 0 0 0-4.45084 3.70791S258.25076 94.30111 259.36347 93.37413z"/><path fill="#26a526" d="M434.94355,238.68868a29.2821,29.2821,0,0,0-1.56183-5.69668c-.60491-1.6431-1.14657-4.78483-.06325-10.20164,1.8056-9.028,2.7084-3.6112-4.514-24.37563-6.95153-19.979-5.54321-16.5574-5.42584-16.2685l-3.566-14.30034a1.38334,1.38334,0,0,0-.0994-.24378L412.554,153.27466l-2.50982-5.02861a1.20961,1.20961,0,0,1-.09929-.81248l2.4557-10.6531a1.20426,1.20426,0,0,0-.3251-1.13754l-4.866-4.86606a1.29628,1.29628,0,0,0-.16255-.13544l-8.80231-6.16615a.89424.89424,0,0,1-.23474-.21666c-.6771-.82153-4.49593-5.53418-5.31751-7.99881-.83051-2.50078-10.14748-13.47882-11.5559-15.14a1.17,1.17,0,0,0-.43333-.316l-7.21337-3.214a2.99785,2.99785,0,0,0-.92991-.23474,2.87957,2.87957,0,0,1-1.18262-.37012l-15.30254-8.73917a11.815,11.815,0,0,1-4.70356-4.98343A14.787,14.787,0,0,0,339.039,75.13722,14.81231,14.81231,0,0,1,328.09693,69.26l-.80339-1.08337a14.65614,14.65614,0,0,0-7.52041-5.26335c-4.36953-1.291-10.8788-4.11677-13.74964-9.84954-4.514-9.028-12.63922-3.6112-12.63922-3.6112s-5.41681,5.4168-6.31961,1.8056-5.41681-2.70841-5.41681-2.70841l-3.6112,1.80561s-3.61121,3.6112-4.514-4.514-5.41681-3.6112-5.41681-3.6112-4.514,1.8056-9.028,8.12521c-3.19595,4.47791-6.85223,3.52094-8.703,2.573a8.90564,8.90564,0,0,0-8.4502.13544l-5.21822,4.56817a34.22371,34.22371,0,0,0-3.7105,3.79178l-1.79657,2.16669a4.85091,4.85091,0,0,1-6.40083.92087l-3.47587-2.31116c-.10822-.07224-.20763-.15347-.30681-.23474l-3.1057-2.66328a6.59157,6.59157,0,0,0-6.79812-1.07433l-5.76891,2.40148a2.80422,2.80422,0,0,1-2.56393-.20763,10.918,10.918,0,0,0-11.87185.17154,20.87378,20.87378,0,0,0-4.04454,3.52089l-2.74455,3.08756a40.538,40.538,0,0,1-5.90435,5.43489l-1.78753,1.33612a23.14213,23.14213,0,0,1-4.75778,2.75359,15.61163,15.61163,0,0,0-6.27443,4.8751l-6.52723,8.47731-.52359-.47851c-.16255-.14442-.325-.28885-.49658-.43332l-2.88892-2.30214a1.207,1.207,0,0,0-1.77861.29794l-16.33164,25.775a1.56151,1.56151,0,0,0-.14448.334c-.23474.91184-1.49857,5.11887-3.77365,3.214a1.14719,1.14719,0,0,0-.58684-.27987c-1.66112-.24377-8.79327-.9028-9.58774,5.471-.84858,6.762-3.27718,20.64706-3.57506,22.38946a.65949.65949,0,0,0,0,.325c.16244.975.43333,7.01479-12.65729,24.2041a.39475.39475,0,0,0-.03615.06321c-.47851.7403-9.15431,14.60731-6.63557,27.41807a1.19826,1.19826,0,0,1-1.18261,1.43548H91.46381A1.20988,1.20988,0,0,0,90.254,198.7217v2.2299a1.354,1.354,0,0,0,.04518.334l1.31806,4.6133a1.12023,1.12023,0,0,1,.04518.34307,1.20792,1.20792,0,0,1-1.20983,1.20074,1.12934,1.12934,0,0,0-.38814.0632l-4.86612,1.625a1.15467,1.15467,0,0,0-.58684.42435l-2.0313,2.7084a1.18867,1.18867,0,0,0-.11737,1.26389l1.42639,2.85288a.68738.68738,0,0,0,.10844.17154l7.02382,9.65993a1.23764,1.23764,0,0,1,.18955.41531l.81244,3.24108a1.12017,1.12017,0,0,1,.03614.29788v14.90526a1.22582,1.22582,0,0,0,.12641.54171l2.49174,4.98343a1.33713,1.33713,0,0,0,.2257.316l3.11473,3.11462a1.211,1.211,0,0,1-.37933,1.96816l-4.45075,1.9049a1.193,1.193,0,0,1-.47851.09929H90.29916a1.207,1.207,0,0,0-1.17368.92088l-.5507,2.16669a1.21357,1.21357,0,0,0,.17159.966l3.19584,4.79387a1.17144,1.17144,0,0,0,.28885.307l9.51556,6.92447a1.16891,1.16891,0,0,1,.37922.43333l2.44655,4.9022a1.23366,1.23366,0,0,0,.35211.42435l3.2591,2.43757a1.41811,1.41811,0,0,0,.27992.1625l4.22516,1.68823a1.31262,1.31262,0,0,1,.28885.1625c.77639.60486,4.26119,3.99037,3.45769,15.23929a24.46882,24.46882,0,0,0,8.08906,19.83452c.02711.01807.04519.03615.0723.05422l6.121,4.36953a1.37291,1.37291,0,0,1,.27982.27986l4.27927,5.99462a1.06473,1.06473,0,0,1,.17158.3521l2.63611,8.76617c.009.04513.01808.09935.02711.14448l.8757,5.24527a1.16325,1.16325,0,0,0,.07229.25276c.26185.65,1.65209,3.232,7.79107,5.48a1.19006,1.19006,0,0,1,.38825,2.01322c-2.22085,1.94105-5.6154,5.72379-3.71953,9.50653,0,0,1.76041,6.17518,9.65089,9.80441a1.0764,1.0764,0,0,1,.46044.3882c.5508.81254,2.0313,3.30428.966,4.85707a1.106,1.106,0,0,0-.16244.82158c.352,1.82362,1.94094,7.737,8.04388,8.50437,7.22241.9028,7.22241,0,7.22241,0l7.11408-1.77849a1.89871,1.89871,0,0,0,.20763-.07224,8.79346,8.79346,0,0,1,9.83152,1.85073,36.29219,36.29219,0,0,0,8.06195,6.2925c.04518.01808.08133.03615.12652.05422l11.67316,4.4869h7.22241l3.50287-4.3876a1.007,1.007,0,0,1,.25281-.2257c.6771-.47851,3.57506-2.39245,4.36953-.80351.74036,1.48965,6.40094,1.75144,8.35995,1.79657a1.22949,1.22949,0,0,0,1.03824-.54166l4.60426-6.90645a1.19223,1.19223,0,0,1,1.2278-.51461c6.13006,1.13754,47.045,8.16136,80.34028-.11737a1.80633,1.80633,0,0,0,.23473-.09025c.89377-.42435,7.14119-3.29525,11.33913-1.85977a1.14841,1.14841,0,0,1,.46044.30692,12.30173,12.30173,0,0,0,10.66213,3.41261s5.02867,0,6.20225-4.04453a1.27025,1.27025,0,0,1,.53262-.72228c1.42649-.86666,6.0668-3.61121,7.421-3.47577a1.33049,1.33049,0,0,0,.70421-.0632l12.15178-5.20912a.8832.8832,0,0,1,.14448-.04519l5.67854-1.625a1.19143,1.19143,0,0,0,.78544-.71319l1.56182-3.90011c.01808-.04513.02711-.07224.04519-.11737.21666-.76736,2.98832-10.10235,9.91274-15.29346,6.1932-4.64041,3.09655-9.2898,2.08552-10.51765a1.2124,1.2124,0,0,1-.27088-.81249c.07229-1.76951.51466-7.76412,3.40358-10.18363a1.13786,1.13786,0,0,0,.30692-.37916l6.15705-12.30518a1.05811,1.05811,0,0,0,.08134-.21667c.316-1.10144,2.907-9.994,6.29249-12.53088l3.42166-2.573a.98846.98846,0,0,0,.30692-.334l7.89951-12.9101a11.6166,11.6166,0,0,0,1.616-5.6786c.09026-2.573,1.34516-6.51825,7.5474-8.89257a7.90631,7.90631,0,0,0,2.77167-1.67925c1.52568-1.49863,3.33128-4.37857,2.87084-9.46134a16.80817,16.80817,0,0,1,.80351-6.81614c.69506-2.07643,1.78753-4.01748,3.45769-4.01748C436.704,252.5828,435.77406,244.01523,434.94355,238.68868Zm-101.836-6.87031s-5.4168,1.80561-3.6112,9.028c0,0,.9028,2.7084-4.514,6.31961-4.18,2.78064-.83954,10.40028.91184,13.74061a6.8777,6.8777,0,0,1,.5507,5.21821,4.843,4.843,0,0,1-5.07374,3.61121,10.63977,10.63977,0,0,0-9.028,4.514s-1.8056,4.514-8.12521,3.61121a7.18813,7.18813,0,0,0-8.12521,4.514s-4.514,8.12521-10.83361,5.4168-12.63922.90281-12.63922.90281-8.12521,7.22241-13.542-1.80561-16.25042-6.31961-16.25042-6.31961-1.80561,2.70841-9.028-7.22241c0,0-6.31961-7.22241-10.83361-4.514s-9.93082-.9028-9.028-9.93082c.55973-5.64251-1.33613-9.17243-2.84374-11.02322a28.94577,28.94577,0,0,1-4.28831-6.88838c-1.48071-3.46672-2.60018-7.36683-.09036-7.36683,4.514,0-5.41681-11.73642-5.41681-11.73642l-3.61121-8.12521s-2.7084-9.028,1.8056-7.22241a3.42294,3.42294,0,0,0,3.98139-.92088,5.71453,5.71453,0,0,0,.9028-6.56332,7.20415,7.20415,0,0,1-.37018-6.05782,6.14755,6.14755,0,0,1,2.555-2.96122,32.57167,32.57167,0,0,0,11.08632-11.00509l.8035-1.38131.9028-8.12521,7.22241-4.514,8.12521-6.31961,10.5267-2.33828a14.56978,14.56978,0,0,1,12.57607,2.95218c.95691.81254,1.53472,1.57086,1.27287,2.0945l2.7084,1.80561s-.9028-10.83362,3.61121-10.83362,8.12521,5.41681,8.12521,5.41681l10.83362-1.8056,5.4168-3.61121,22.57,1.8056,2.70841,6.31961,7.22241,5.41681,3.6112,8.12521,2.70841,4.514v3.6112l-2.70841,5.41681,2.70841,4.514.9028,1.8056v4.514l-1.8056,3.6112,1.8056,1.8056v4.514l4.514,2.7084s8.12521,1.80561,6.3196,4.514C340.32993,215.568,342.13554,221.88756,333.10752,231.81837Z"/><path fill="#d64142" d="M284.53682,97.38224S346.64954,39.5217,371.928,70.21694c0,0,8.12521,8.12522,2.7084,33.40365s-4.514,30.69525-20.76443,42.43166a10.09468,10.09468,0,0,1-1.19169.7403c-17.50532,9.28982-68.324-26.01873-68.324-26.01873S291.26269,118.01124,284.53682,97.38224Z"/><path fill="#d64142" d="M284.53682 97.38224S346.64954 39.5217 371.928 70.21694c0 0 8.12521 8.12522 2.7084 33.40365s-4.514 30.69525-20.76443 42.43166a10.09468 10.09468 0 0 1-1.19169.7403c-17.50532 9.28982-68.324-26.01873-68.324-26.01873S291.26269 118.01124 284.53682 97.38224zM254.58187 121.7037c-1.49865 1.03822-51.04439 35.137-68.28789 25.99165a10.0948 10.0948 0 0 1-1.1917-.7403c-16.25042-11.73641-15.34762-17.15322-20.76443-42.43166s2.70841-33.40364 2.70841-33.40364c22.16377-26.91251 72.63939 14.2462 84.746 24.8.009.44237.03612.9028.0632 1.38128C252.46029 107.05124 251.43109 116.3862 254.58187 121.7037z"/><path fill="#d64142" d="M254.58187,121.7037c1.50768,2.564,3.99941,4.189,8.10715,4.48692a36.65516,36.65516,0,0,0,15.79-2.44659.00884.00884,0,0,0,.009-.009.00884.00884,0,0,1-.009.009c-41.97123,56.21744-33.846,102.65754-33.846,102.65754-13.542-.9028-23.47283-40.62606-23.47283-40.62606-13.542,0-28.88965,9.028-28.88965,9.028.83961-10.90584,25.07982-48.32695,28.51047-53.57223A265.4577,265.4577,0,0,0,254.58187,121.7037Z"/><path fill="#d64142" d="M278.479,123.744q-4.997,6.7033-9.08218,13.199c5.87723,7.84534,16.53029,27.58058,20.37622,70.49975,0,0,15.34762.9028,16.25043-37.91765,0,0,31.598,5.4168,27.98684,11.73641,0,0,9.28079-11.42946-19.15745-42.54a272.13655,272.13655,0,0,1-30.49662-17.94769s-.20765.14444-.61391.39723c-.13542.08125-.2889.17153-.46946.27987a34.39864,34.39864,0,0,1-4.78484,2.28408.00884.00884,0,0,1-.009.009.00884.00884,0,0,0,.009-.009,34.39864,34.39864,0,0,0,4.78484-2.28408c.18056-.10834.334-.19862.46946-.27987.40626-.25279.61391-.39723.61391-.39723Z"/><path fill="#d64142" d="M278.479,123.744q-4.997,6.7033-9.08218,13.199c5.87723,7.84534,16.53029,27.58058,20.37622,70.49975,0,0,15.34762.9028,16.25043-37.91765,0,0,31.598,5.4168,27.98684,11.73641,0,0,9.28079-11.42946-19.15745-42.54a272.13655,272.13655,0,0,1-30.49662-17.94769s-.20765.14444-.61391.39723c-.13542.08125-.2889.17153-.46946.27987a34.39864,34.39864,0,0,1-4.78484,2.28408.00884.00884,0,0,1-.009.009.00884.00884,0,0,0,.009-.009,34.39864,34.39864,0,0,0,4.78484-2.28408c.18056-.10834.334-.19862.46946-.27987.40626-.25279.61391-.39723.61391-.39723Z"/><path fill="#d64142" d="M278.479,123.744q-4.997,6.7033-9.08218,13.199c5.87723,7.84534,16.53029,27.58058,20.37622,70.49975,0,0,15.34762.9028,16.25043-37.91765,0,0,31.598,5.4168,27.98684,11.73641,0,0,9.28079-11.42946-19.15745-42.54a272.13655,272.13655,0,0,1-30.49662-17.94769s-.20765.14444-.61391.39723c-.13542.08125-.2889.17153-.46946.27987a34.39864,34.39864,0,0,1-4.78484,2.28408.00884.00884,0,0,1-.009.009.00884.00884,0,0,0,.009-.009,34.39864,34.39864,0,0,0,4.78484-2.28408c.18056-.10834.334-.19862.46946-.27987.40626-.25279.61391-.39723.61391-.39723Z"/><path fill="#d64142" d="M278.479,123.744q-4.997,6.7033-9.08218,13.199c5.87723,7.84534,16.53029,27.58058,20.37622,70.49975,0,0,15.34762.9028,16.25043-37.91765,0,0,31.598,5.4168,27.98684,11.73641,0,0,9.28079-11.42946-19.15745-42.54a272.13655,272.13655,0,0,1-30.49662-17.94769s-.20765.14444-.61391.39723c-.13542.08125-.2889.17153-.46946.27987a34.39864,34.39864,0,0,1-4.78484,2.28408.00884.00884,0,0,1-.009.009.00884.00884,0,0,0,.009-.009,34.39864,34.39864,0,0,0,4.78484-2.28408c.18056-.10834.334-.19862.46946-.27987.40626-.25279.61391-.39723.61391-.39723Z"/><path fill="#b8303c" d="M306.02349 169.52509c-.66906 28.76858-9.26959 35.72021-13.67934 37.39225.04519.47834.0939.944.13732 1.4282 0 0 15.34762.9028 16.25042-37.91765a157.34362 157.34362 0 0 1 17.296 4.08238A144.68963 144.68963 0 0 0 306.02349 169.52509zM317.56131 139.62431a272.12987 272.12987 0 0 1-30.49665-17.94769l-.78731.39789a271.72869 271.72869 0 0 0 28.57556 16.647c20.5957 22.53108 21.40715 34.73708 20.28856 39.757 1.5971 1.16685 2.30748 2.40782 1.57726 3.68581C336.71873 182.1643 345.99955 170.73486 317.56131 139.62431z"/><path fill="#d64142" d="M409.99008 148.09258a.44462.44462 0 0 0 .05417.15348l2.50979 5.0286 7.15921 14.32746a1.38309 1.38309 0 0 1 .09931.24376l3.56606 14.30037.009.018-.009-.018c-.10833-.27084-1.36323-3.32231 4.29739 13.01794-52.58813 40.08393-91.89166 32.13626-91.89166 32.13626l.808.13934c3.50287-5.146 3.93621-8.89259 3.882-10.68014-.02708-.65.09028-1.282.11737-1.932.06319-1.63407-3.29523-2.85285-5.23625-3.42161l-1.34517.55071s62.29328-24.37564 76.7381-65.9045M390.38124 330.65706c.09931-.09931.19861-.18959.307-.27987a1.13841 1.13841 0 0 0 .30695-.37918l6.15711-12.30518a1.05884 1.05884 0 0 0 .08125-.21667c.316-1.10142 2.907-9.994 6.29252-12.53088l3.42162-2.573a.98717.98717 0 0 0 .307-.334l7.89951-12.91006a11.61728 11.61728 0 0 0 1.616-5.67862c.09028-2.573 1.34517-6.51823 7.54742-8.89259a8.29024 8.29024 0 0 0 2.41951-1.36323C370.23974 292.99219 323.583 252.81753 323.00518 252.321l-.009-.009.009.009a24.80765 24.80765 0 0 0 2.889 8.58564 6.87722 6.87722 0 0 1 .55071 5.21819 4.7088 4.7088 0 0 1-3.4487 3.42162l.00393.00079s18.68406 43.97466 67.43533 61.12788M317.74185 385.28556a.55181.55181 0 0 1-.10834.04514c-33.29531 8.27869-74.21026 1.2549-80.34029.11737a.74045.74045 0 0 0-.19861-.01806c26.47916-34.45089 25.143-95.09206 25.143-95.09206 4.93833 3.19592 10.38222-1.64309 10.38222-1.64309s6.31961-3.61121 12.63922-.90281a6.65374 6.65374 0 0 0 1.87782.5146l.00443-.008s11.65977 88.87073 30.61859 96.99594M214.028 256.66347a17.44772 17.44772 0 0 1-.09028 2.23894c-.90281 9.028 4.514 12.63922 9.028 9.93082-40.04827 68.88373-69.44348 80.20486-75.55544 81.88407a1.19109 1.19109 0 0 0-.55974-.41529c-6.139-2.248-7.52936-4.83-7.79117-5.48a1.16445 1.16445 0 0 1-.07223-.25278l-.87571-5.24528c-.009-.04514-.01806-.09931-.02709-.14445l-2.63618-8.7662a1.06358 1.06358 0 0 0-.17153-.35209l-4.27928-5.9946a1.37019 1.37019 0 0 0-.27987-.27987l-6.121-4.36956c-.02708-.018-.04514-.03611-.07222-.05417a24.46858 24.46858 0 0 1-8.0891-19.83454c.80349-11.2489-2.68132-14.63441-3.45773-15.23929a1.31166 1.31166 0 0 0-.2889-.1625l-2.42853-.975h-.009l-.03611-.009.00342-.00405s63.28353 10.08111 103.8145-26.48775M198.80681 216.29019l2.49173 5.59737s1.52573 1.79657 3.10563 3.99038l-.002-.00176c-55.5785 19.33625-106.02294-28.36425-106.02294-28.36425h.2889a1.1983 1.1983 0 0 0 1.18267-1.43546c-2.51882-12.81075 6.1571-26.67778 6.63559-27.41807a.39176.39176 0 0 1 .03611-.0632c9.70511-12.73853 12.06142-19.35606 12.567-22.32628v-.009l.00323-.00072s8.61769 57.21161 79.71822 70.0312"/><path fill="#fbb641" d="M185.04811,170.42789c-3.59026,7.67834-7.07346,15.34762-15.799,15.34762s-19.41023-7.77417-19.41023-16.25042,9.82353-19.01,18.50743-19.86163C179.90777,148.52958,189.92281,160.00261,185.04811,170.42789Z"/><ellipse cx="215.292" cy="332.481" fill="#fbb641" rx="19.862" ry="21.667"/><ellipse cx="386.373" cy="246.715" fill="#fbb641" rx="17.153" ry="20.313"/><polygon fill="#4c0e93" points="163.298 238.837 170.77 245.628 180.6 243.323 176.45 252.527 181.681 261.164 171.644 260.062 165.047 267.705 162.993 257.819 153.686 253.906 162.453 248.898 163.298 238.837"/><polygon fill="#4c0e93" points="331.504 319.643 322.892 314.368 313.665 318.472 316.02 308.652 309.266 301.145 319.333 300.35 324.386 291.606 328.253 300.935 338.13 303.039 330.452 309.599 331.504 319.643"/><polygon fill="#4c0e93" points="361.093 187.993 354.229 180.66 344.296 182.158 349.149 173.363 344.655 164.38 354.519 166.277 361.674 159.227 362.918 169.195 371.834 173.821 362.738 178.084 361.093 187.993"/><path fill="#1b8d25" d="M137.19971 144.24658a14.67972 14.67972 0 0 1 .19189-3.85254 21.57818 21.57818 0 0 1 1.04151-3.77 4.15466 4.15466 0 0 1 1.3468-1.8667 2.613 2.613 0 0 1 .60009-.32959 1.8026 1.8026 0 0 1 .851-.14648 4.77478 4.77478 0 0 1 1.16919.28076 34.29584 34.29584 0 0 1 3.53308 1.6543l1.66784.94385.79944.4624a2.24656 2.24656 0 0 0 .60511.25732 5.41191 5.41191 0 0 0 3.15686-.36133 8.82385 8.82385 0 0 0 4.8988-5.0083 7.54929 7.54929 0 0 1-1.22852 3.69532 8.493 8.493 0 0 1-2.99511 2.71972 6.59269 6.59269 0 0 1-4.19348.81348 3.61438 3.61438 0 0 1-1.15491-.41406l-.851-.46387-1.64808-.88184c-1.08667-.59863-2.20776-1.19238-3.27124-1.65576a3.86188 3.86188 0 0 0-.64746-.231c.06775-.03809-.16113.021-.30883.11035a3.06759 3.06759 0 0 0-.93165 1.10156 36.29612 36.29612 0 0 0-1.499 3.354A28.28094 28.28094 0 0 0 137.19971 144.24658zM181.43689 341.96a15.63036 15.63036 0 0 0-4.18591 2.40918 11.58208 11.58208 0 0 0-1.66126 1.65186 8.66557 8.66557 0 0 0-1.285 1.85009c-.27075.60205-.26136 1.20215.0177 1.41016a13.14826 13.14826 0 0 0 1.73315 1.44434c.64795.47461 1.29383.96337 1.95325 1.41015l1.00745.667a6.17621 6.17621 0 0 1 1.13635.88672 8.87227 8.87227 0 0 1 1.54809 2.29981 6.96626 6.96626 0 0 1 .67554 2.7456 5.30255 5.30255 0 0 1-.71533 2.81934 10.7666 10.7666 0 0 0-1.08118 2.00781 5.35322 5.35322 0 0 0-.23059 1.05274 10.364 10.364 0 0 0-.08057 1.13525 3.24024 3.24024 0 0 0 .56531 1.98633c.81531 1.1709 2.60816 1.46972 4.21424 1.30762a6.04563 6.04563 0 0 1-2.48658.397 3.83025 3.83025 0 0 1-2.46728-1.0586 4.33011 4.33011 0 0 1-1.13318-2.53955 8.22491 8.22491 0 0 1-.05237-1.32324 6.88145 6.88145 0 0 1 .16638-1.37207 9.49083 9.49083 0 0 1 1.03931-2.417 3.42442 3.42442 0 0 0 .36975-1.91553 6.22194 6.22194 0 0 0-1.76819-3.73535 15.71152 15.71152 0 0 0-1.825-1.34326c-.68555-.49365-1.35425-.98828-1.99951-1.52393a14.019 14.019 0 0 1-1.92883-1.833 2.41468 2.41468 0 0 1-.44373-.83984 2.831 2.831 0 0 1-.07983-.88281 3.62055 3.62055 0 0 1 .48169-1.49414A11.89561 11.89561 0 0 1 181.43689 341.96zM342.58691 238.58936a4.73137 4.73137 0 0 0-.595 1.96875 2.14409 2.14409 0 0 0 .12073.90625 1.11258 1.11258 0 0 0 .53442.55273 8.98435 8.98435 0 0 0 1.86536.67383 11.63056 11.63056 0 0 1 2.09766.82763 6.55508 6.55508 0 0 1 3.09973 3.60791 12.112 12.112 0 0 1 .55261 2.22217 11.20361 11.20361 0 0 1 .21253 2.3003l-.12891 2.12841-.04443 2.09668a11.68394 11.68394 0 0 0 .30114 3.87354 3.98435 3.98435 0 0 0 2.74732 2.19531 15.1914 15.1914 0 0 0 4.13305.5708 11.12236 11.12236 0 0 1-4.34057.38916 6.30842 6.30842 0 0 1-2.2218-.70752 4.33842 4.33842 0 0 1-1.73816-1.80078 6.57443 6.57443 0 0 1-.62915-2.31494c-.08765-.75293-.11719-1.478-.14563-2.19775-.02112-.72461-.02271-1.41407-.01526-2.16114.0094-.73388.06982-1.48047.08435-2.12451a9.18006 9.18006 0 0 0-.14124-1.93408 13.05453 13.05453 0 0 0-.411-1.91992 5.2002 5.2002 0 0 0-2.11084-2.88819 12.85941 12.85941 0 0 0-1.76758-.94433 9.12077 9.12077 0 0 1-1.98461-1.11084 1.97642 1.97642 0 0 1-.6919-1.12744 2.52807 2.52807 0 0 1 .07849-1.20459A4.2959 4.2959 0 0 1 342.58691 238.58936z"/><path fill="#b8303c" d="M357.03174 210.60254a36.01984 36.01984 0 0 1 3.41577-2.62305q1.73767-1.21142 3.48621-2.34082c1.16333-.76074 2.32055-1.50635 3.45459-2.28418a16.02943 16.02943 0 0 0 3.18542-2.68261 7.25745 7.25745 0 0 1-2.16125 3.86035 18.81949 18.81949 0 0 1-3.38733 2.78173 25.29912 25.29912 0 0 1-3.82727 2.02686A17.8902 17.8902 0 0 1 357.03174 210.60254zM358.386 212.85938a31.10141 31.10141 0 0 1 5.31909-2.98682c.88843-.42383 1.78247-.81738 2.68835-1.21436.90686-.3999 1.80176-.80517 2.82617-1.21533a7.36821 7.36821 0 0 1-1.98327 2.54346 12.38484 12.38484 0 0 1-2.68482 1.69726 13.916 13.916 0 0 1-2.984.99317A9.797 9.797 0 0 1 358.386 212.85938zM333.559 277.40967a61.292 61.292 0 0 0 6.77466 6.79736c1.21631.999 2.41955 2.02588 3.72082 2.95117 1.27576.96826 2.61829 1.84912 3.94934 2.89063a16.46024 16.46024 0 0 1-4.76013-1.55713 19.92543 19.92543 0 0 1-4.21069-2.76611 19.41283 19.41283 0 0 1-3.37647-3.75147A12.92873 12.92873 0 0 1 333.559 277.40967zM336.71875 275.15283a37.29253 37.29253 0 0 1 4.08313 2.835c.62646.45655 1.23547.90674 1.88025 1.33887.65185.42188 1.32336.7998 2.16186 1.24316a4.35622 4.35622 0 0 1-2.75793.21192 7.01383 7.01383 0 0 1-2.4812-1.19287 8.12742 8.12742 0 0 1-1.84851-1.94629A6.25972 6.25972 0 0 1 336.71875 275.15283zM278.488 296.36865a23.47274 23.47274 0 0 1 2.60949 6.98487 33.46223 33.46223 0 0 1 .78553 7.45507 33.97473 33.97473 0 0 1-.86939 7.44239 29.05292 29.05292 0 0 1-2.52563 7.00732c.32824-2.47217.76489-4.854.9862-7.26465l.18189-1.79834.11352-1.80078c.07849-1.19726.12-2.39892.11463-3.59717l.00793-1.7998c-.024-.59912-.06409-1.19727-.07434-1.79834-.04431-1.20068-.14941-2.39844-.25549-3.6001A69.97983 69.97983 0 0 0 278.488 296.36865zM274.42542 297.72266a18.5323 18.5323 0 0 1 1.68164 5.47607 23.582 23.582 0 0 1 .20434 5.76807 19.40212 19.40212 0 0 1-1.37671 5.6455 14.03615 14.03615 0 0 1-3.21765 4.77784 42.01977 42.01977 0 0 0 1.73621-5.269 38.59669 38.59669 0 0 0 .86743-5.34033q.23474-2.70117.23682-5.45605C274.54907 301.48535 274.49438 299.63525 274.42542 297.72266zM209.42371 272.44434a20.18779 20.18779 0 0 1-1.46375 4.96435 27.19933 27.19933 0 0 1-2.45373 4.562 22.66346 22.66346 0 0 1-3.38636 3.97071 13.27481 13.27481 0 0 1-4.43249 2.75341c1.19763-1.27392 2.2633-2.5205 3.28821-3.81494 1.0072-1.3081 1.93518-2.66552 2.87207-4.02588C205.71033 278.11426 207.41541 275.272 209.42371 272.44434zM192.27051 286.88916a42.98391 42.98391 0 0 1 3.21985-3.02393l3.27978-2.78808c1.094-.91358 2.17749-1.82129 3.21521-2.77393a20.49646 20.49646 0 0 0 2.92444-3.15039 8.17267 8.17267 0 0 1-1.75415 4.18262 17.88833 17.88833 0 0 1-3.10071 3.27344 23.96 23.96 0 0 1-3.67053 2.52832A17.84954 17.84954 0 0 1 192.27051 286.88916zM166.99207 215.56787c2.733.65527 5.19555 1.60059 7.69763 2.418 1.24646.40137 2.4768.8501 3.7351 1.19287 1.262.34522 2.51807.65967 3.91492.90332a8.90413 8.90413 0 0 1-4.17151.63574 15.7677 15.7677 0 0 1-4.11877-.8374 19.47071 19.47071 0 0 1-3.77222-1.74805A14.55563 14.55563 0 0 1 166.99207 215.56787zM161.57532 216.4707a10.49923 10.49923 0 0 0 2.28979 1.32764c.783.37988 1.60828.67725 2.41736.99121 1.63525.60107 3.30444 1.11084 4.97693 1.63428l5.0697 1.52246c1.70032.521 3.40967 1.03809 5.10779 1.74707a27.7994 27.7994 0 0 1-5.43823-.22168 34.10352 34.10352 0 0 1-5.322-1.13525 25.64545 25.64545 0 0 1-5.05652-2.14014 14.82527 14.82527 0 0 1-2.28662-1.57861A6.484 6.484 0 0 1 161.57532 216.4707z"/><path fill="#d64142" d="M262.08493,85.02307a34.21224,34.21224,0,0,1-4.59688.34146c-2.31623.05264-6.2775,1.61872-5.63264,11.93645.9028,14.44482-1.8056,27.98684,10.83361,28.88964a36.308,36.308,0,0,0,21.66724-5.4168s8.25565-3.30227-2.07475-29.64334a10.49219,10.49219,0,0,0-8.41869-6.58226A41.86938,41.86938,0,0,0,262.08493,85.02307Z"/><path fill="#b8303c" d="M284.35626,120.77382a36.308,36.308,0,0,1-21.66724,5.4168c-12.63921-.9028-9.93081-14.44482-10.83361-28.88964-.02623-.41971-.0421-.8197-.05356-1.21093-.02887.913-.01543,1.91173.05356,3.01654.9028,14.44482-1.8056,27.98684,10.83361,28.88964a36.308,36.308,0,0,0,21.66724-5.41681s3.37183-1.363,3.102-9.23239C287.20186,119.62724,284.35626,120.77382,284.35626,120.77382Z"/><path fill="#b8303c" d="M254.54927 121.64108q-.265-.45461-.4924-.94573c-.00827-.018-.01741-.03527-.02557-.05339a14.83346 14.83346 0 0 1-.79844-2.26147c-.01432-.05279-.0281-.10613-.042-.15936q-.14681-.5618-.26758-1.15247c-.00485-.02441-.01058-.0481-.01543-.07262q-.12927-.64924-.23033-1.3315l-.0086-.06282c-.05951-.40859-.11152-.827-.158-1.25215q-.0162-.14613-.03119-.2937-.05967-.58419-.10635-1.18674c-.00551-.07015-.012-.13875-.01719-.20928q-.04992-.6843-.08574-1.3909c-.00793-.15275-.0141-.30891-.02127-.46314-.01421-.31078-.02733-.62354-.03868-.93994q-.01189-.336-.02259-.67606c-.00639-.21335-.012-.42914-.01752-.64481-.062-2.42225-.07461-4.9783-.15319-7.60454l-.00066-.02508q-.02414-.79966-.05863-1.60745c-.00419-.09726-.008-.19424-.01234-.2916-.02557-.57-.05455-1.14178-.09015-1.71535-.02436-.38979-.04012-.76306-.05158-1.12828-.00286-.08227-.00992-.172-.01168-.253-.52722-.45961-1.13159-.98055-1.79888-1.54811-.02524.88952-.01025 1.85994.05654 2.92942.64315 10.28992-.54155 20.11725 3.28984 25.2483.69264-.46639 1.12244-.76257 1.24224-.84555C254.57 121.68378 254.561 121.66113 254.54927 121.64108zM284.63507 97.69486c.08751.27182.16862.53488.25149.80042.12167.39018.24135.7775.353 1.1544.07946.2678.15418.52926.22868.79044.10183.35712.20057.70978.29358 1.05472q.10381.38493.2.75932.12877.49989.24465.98171c.05841.24228.11583.483.16972.71875.07152.3137.13753.619.20134.92132.04728.22443.09544.4498.13864.66812.05907.29926.11153.58822.1631.87608.03659.20509.0756.41332.10856.61274.0486.29375.08937.57527.13015.85684.02535.176.05444.35729.07692.52855.04155.31689.07428.61957.10624.92082.013.12266.0302.25209.04166.37222q.05884.61783.09158 1.19164c.00628.11021.0076.21143.01245.31927.01245.27.02414.53868.02843.79408.00221.1409-.00033.27243-.00033.409 0 .2095.00033.41961-.005.619-.00385.14216-.01146.27639-.01785.41354-.00826.1809-.01675.36137-.02931.53362-.0097.13494-.02227.26388-.03461.3937-.01521.162-.03108.32224-.05.47637-.01521.12513-.03218.24608-.04959.3661-.02138.14674-.04387.29039-.06833.42974q-.03009.171-.0626.33475c-.02689.13423-.05532.264-.08486.39112-.0238.10238-.04749.20393-.07295.3018-.032.1231-.06546.24058-.09963.35668-.02645.08992-.05245.18084-.08012.26669-.03714.11533-.07615.22372-.11516.33183-.02766.07637-.05444.15517-.083.228-.043.11009-.08761.21214-.13224.31447-.02667.06111-.05257.12591-.07968.18431-.05709.12266-.11527.23628-.1739.34737-.01587.03-.03108.06392-.04706.09307-.07483.13715-.15043.26482-.22625.38451-.02535.04-.05048.07438-.07582.11252-.051.07686-.10194.15362-.15275.22311-.031.04248-.06127.07973-.092.11957-.04463.05791-.08927.11593-.13324.16839-.032.0383-.063.07257-.09455.10806-.04144.04678-.08244.093-.12277.13517-.0313.03273-.06128.06248-.09169.09251-.0388.03819-.0766.07522-.11363.10922-.02942.02694-.05741.0519-.08562.07631-.03549.03092-.06965.0599-.10316.087-.02634.02127-.05157.04139-.07637.0604-.03229.02468-.06238.04683-.092.06788-.022.01576-.04364.03125-.06414.045-.02854.01929-.05389.03554-.07913.05125-.01719.01085-.03438.022-.05.03119-.0248.01471-.045.02595-.065.03686l-.03141.01736c-.02237.01168-.0389.01972-.05235.02606l-.00881.0043-.022.0097s.30218.20988.86356.59015c.60812-.35955.942-.59015.942-.59015s7.17623-2.8811-.24069-24.64333c-.89432.79618-1.3844 1.25177-1.3844 1.25177C284.57182 97.48932 284.60091 97.58873 284.63507 97.69486z"/><path fill="#b8303c" d="M287.3355 114.90561c14.16495 2.248 73.67761 12.87394 65.34476 31.88694-17.50532 9.28982-68.324-26.01873-68.324-26.01873S286.72159 119.82588 287.3355 114.90561zM252.677 115.64591c-11.96212 1.84171-74.94154 12.52185-66.383 32.04944 17.2435 9.14538 66.78924-24.95343 68.28789-25.99165A16.43771 16.43771 0 0 1 252.677 115.64591zM210.32654 98.20361a26.65968 26.65968 0 0 1 7.60718-3.98388 30.997 30.997 0 0 1 8.517-1.64356 33.85085 33.85085 0 0 1 4.36573.10694c.72277.09277 1.44006.23584 2.15759.35205.35767.0664.71875.11084 1.07226.1958l1.04749.31152a23.58992 23.58992 0 0 1 7.73364 3.7583A47.13279 47.13279 0 0 0 234.747 95.064a34.63339 34.63339 0 0 0-8.20081-.49121 45.37344 45.37344 0 0 0-8.18115 1.14112A61.42934 61.42934 0 0 0 210.32654 98.20361zM220.25732 105.42627a11.94554 11.94554 0 0 1 4.5022-3.35693 15.93026 15.93026 0 0 1 5.5304-1.40284 16.81774 16.81774 0 0 1 5.65844.58692 17.30031 17.30031 0 0 1 2.65259.957 20.7569 20.7569 0 0 1 2.4209 1.41016c-.94336-.10694-1.8208-.333-2.71411-.47266l-1.33289-.19531-.65661-.10938-.66309-.05664c-.44153-.03418-.879-.07568-1.31262-.13428l-1.31128-.03808a9.67181 9.67181 0 0 0-1.3031-.00049c-.433.02-.86865-.00342-1.29883.04736a26.28643 26.28643 0 0 0-5.13476.86817A28.28835 28.28835 0 0 0 220.25732 105.42627zM292.48145 101.81494a28.94877 28.94877 0 0 1 6.60229-4.34033 36.42876 36.42876 0 0 1 7.48291-2.69336 30.0936 30.0936 0 0 1 7.93774-.82568 23.14752 23.14752 0 0 1 7.76954 1.54 55.57485 55.57485 0 0 0-7.73365.02 48.3305 48.3305 0 0 0-7.51465 1.21094 68.67707 68.67707 0 0 0-7.33459 2.1792C297.27637 99.77979 294.88562 100.74609 292.48145 101.81494zM293.38428 104.52344a25.39311 25.39311 0 0 1 6.17724-1.50147 29.29016 29.29016 0 0 1 6.40125-.11718 26.8034 26.8034 0 0 1 3.19824.54931 17.05313 17.05313 0 0 1 3.08386 1.11328 9.14563 9.14563 0 0 1 4.61219 4.47022 12.87829 12.87829 0 0 0-5.19849-3.02393 28.68169 28.68169 0 0 0-5.894-1.11963c-2.01258-.21582-4.05689-.27588-6.11744-.31982zM277.00755 125.74666C236.70682 181.0595 244.633 226.40157 244.633 226.40157a7.69206 7.69206 0 0 1-2.19375-.49218 8.63635 8.63635 0 0 0 3.99935 1.395s-8.12521-46.4401 33.846-102.65756C279.2985 125.02879 278.19975 125.40464 277.00755 125.74666zM221.16017 185.77551c-10.47413 0-22.0221 5.39813-26.7197 7.84523a13.49729 13.49729 0 0 0-.36434 2.08558s14.19741-8.34755 27.3309-8.98536C221.24458 186.11263 221.16017 185.77551 221.16017 185.77551z"/><path fill="#fce6d9" d="M377.63044 236.91954l1.85395 2.22541a6.99419 6.99419 0 0 0-4.45083 3.70791S376.51773 237.84651 377.63044 236.91954zM205.1954 322.68566l1.85395 2.22542a6.99417 6.99417 0 0 0-4.45084 3.7079S204.08269 323.61263 205.1954 322.68566zM157.34693 161.08423l1.854 2.22542a6.99416 6.99416 0 0 0-4.45083 3.7079S156.23422 162.01121 157.34693 161.08423zM174.50015 77.12371l1.854 2.22542a6.99417 6.99417 0 0 0-4.45084 3.7079S173.38744 78.05069 174.50015 77.12371zM259.36347 93.37413l1.854 2.22542a6.99416 6.99416 0 0 0-4.45084 3.70791S258.25076 94.30111 259.36347 93.37413z"/><path fill="#d64142" d="M49.15534 344.60273a9.67511 9.67511 0 0 1-2.21468-1.9405 18.88421 18.88421 0 0 1-2.27254-3.307 20.3968 20.3968 0 0 1-1.98723-4.66036 3.61775 3.61775 0 0 1 .25634-3.06724c2.03792-2.85872 3.71778-5.14834 5.00365-6.90854a44.53123 44.53123 0 0 1 3.53858-4.32754c-.07108-.14591-.10657-.21865-.17743-.36456q-2.9271 1.16971-5.302 2.19176-2.37531 1.0249-4.59435 2.0626-2.21859 1.03747-4.52624 2.02029c-1.53846.65461-4.40755 2.27331-5.15154 2.071a10.46771 10.46771 0 0 1-1.70146-2.53472 33.2434 33.2434 0 0 1-1.73353-3.33525 18.73673 18.73673 0 0 1-1.783-5.944 2.74777 2.74777 0 0 1 1.65517-3.0809q13.03932-3.98061 25.991-8.26627a8.00394 8.00394 0 0 1 2.4653 1.9449 18.80748 18.80748 0 0 1 3.17765 5.07165 20.2866 20.2866 0 0 1 2.013 6.16047 6.44306 6.44306 0 0 1-.97928 4.34473c-.53516.81067-1.166 1.72052-1.87845 2.7278q-1.07 1.51158-2.21766 3.08971-1.14723 1.57969-2.27442 3.12807-1.12573 1.54662-2.01686 2.80053l.19782.35619q4.84318-.50189 9.3843-1.006c3.02789-.335 5.59744-.57659 7.72087-.69473a16.59624 16.59624 0 0 1 2.10691 2.08993 26.61918 26.61918 0 0 1 2.32268 3.1532 20.67643 20.67643 0 0 1 2.61187 5.37845c.43123 1.55566.32422 2.71149-.30538 3.4697-.46893.56469-1.23827 1.38021-2.30991 2.42231q-1.6086 1.56382-3.64151 3.49439-2.03328 1.93212-4.31244 4.06613-2.28025 2.13313-4.376 4.10934-2.09742 1.97443-3.86831 3.57858-1.77325 1.60217-2.75447 2.428a13.94871 13.94871 0 0 1-2.35-1.97311 24.42468 24.42468 0 0 1-2.47113-3.16069 17.16414 17.16414 0 0 1-2.4211-4.90854 3.01326 3.01326 0 0 1 .999-3.48116q4.607-3.568 8.45076-6.18957 3.836-2.61318 6.35906-4.51092c-.0832-.13225-.12475-.19837-.20773-.33106-1.44513.30461-3.31817.59335-5.6262.83977C55.645 343.85554 52.71828 344.20378 49.15534 344.60273zM72.3747 390.7483a36.88851 36.88851 0 0 1-5.27288-7.3185 22.82754 22.82754 0 0 1-2.56271-7.26429 13.40972 13.40972 0 0 1 .50276-6.53782A11.12527 11.12527 0 0 1 68.933 364.4335a10.91925 10.91925 0 0 1 5.79746-2.38484 13.98328 13.98328 0 0 1 5.89863.78025 21.24381 21.24381 0 0 1 5.61892 3.06238 34.08029 34.08029 0 0 1 5.01191 4.58454 30.799 30.799 0 0 1 4.15893 5.747 20.97843 20.97843 0 0 1 2.16443 5.56537 12.09705 12.09705 0 0 1 .0886 5.09368 8.5547 8.5547 0 0 1-2.18063 4.1997 3.09169 3.09169 0 0 1-2.95537 1.01433 8.69185 8.69185 0 0 1-3.76142-1.96914A190.86569 190.86569 0 0 1 74.26274 377.305a5.60663 5.60663 0 0 0 .344 4.44612 18.58282 18.58282 0 0 0 3.497 5.20962 28.2672 28.2672 0 0 0 4.62443 4.06966 22.334 22.334 0 0 0 4.21392 2.39586 6.09992 6.09992 0 0 1 .4676 2.55456 3.03665 3.03665 0 0 1-.78279 2.06833c-1.10767 1.1576-2.74091 1.2462-4.88694.22394a22.75675 22.75675 0 0 1-4.95328-3.28456A49.69974 49.69974 0 0 1 72.3747 390.7483zm13.98725-15.818a10.67138 10.67138 0 0 0-2.38936-2.05731 6.89892 6.89892 0 0 0-2.23518-.9125 4.54574 4.54574 0 0 0-3.54607.73176c3.85663 3.64956 5.822 5.39961 9.8141 8.75426a3.98889 3.98889 0 0 0 .41316-2.68239A7.21454 7.21454 0 0 0 86.36195 374.93033zM100.05451 415.52288a24.10982 24.10982 0 0 1-2.14228-1.33172 32.78517 32.78517 0 0 1-2.8228-2.149 25.0013 25.0013 0 0 1-2.28874-2.17633 6.83977 6.83977 0 0 1-1.34726-2.037 3.55687 3.55687 0 0 1-.23066-1.96033 4.03186 4.03186 0 0 1 1.061-1.95636c4.27916-4.77365 6.41879-7.16026 10.69806-11.93391a3.57281 3.57281 0 0 1 1.86974-1.15627 5.80888 5.80888 0 0 1 2.37592.00485 15.28986 15.28986 0 0 1 2.97345.92484q1.646.67512 3.40137 1.58079 1.75524.9039 3.51224 2.00441 1.75788 1.10029 3.38264 2.35178a12.90033 12.90033 0 0 1 3.71017 4.02249 3.384 3.384 0 0 1-.28356 3.78709 3.92625 3.92625 0 0 1-1.093 1.02315 5.76725 5.76725 0 0 1-1.3552.63566q-1.23633-.89662-2.58431-1.76857-1.34874-.87284-2.6954-1.63853-1.34742-.7657-2.56073-1.419a17.676 17.676 0 0 0-2.16046-1.00419C106.90652 407.0049 104.62252 409.84423 100.05451 415.52288zM125.83692 433.6803a23.4159 23.4159 0 0 1-2.26472-1.02491 31.90617 31.90617 0 0 1-3.03043-1.73684 24.18974 24.18974 0 0 1-2.50628-1.832 6.62689 6.62689 0 0 1-1.564-1.82059 3.49558 3.49558 0 0 1-.45647-1.89509 4.08165 4.08165 0 0 1 .81387-2.06657c3.64945-5.27133 5.47422-7.907 9.12378-13.17834a3.64128 3.64128 0 0 1 1.70388-1.389 5.7857 5.7857 0 0 1 2.33735-.31695 14.93683 14.93683 0 0 1 3.03284.50783q1.69837.44237 3.532 1.09853 1.83393.65461 3.69243 1.50452 1.85889.849 3.60658 1.86731a12.53147 12.53147 0 0 1 4.12729 3.47676 3.36845 3.36845 0 0 1 .16828 3.7721 3.968 3.968 0 0 1-.95547 1.15231 5.78969 5.78969 0 0 1-1.25954.8045q-1.32345-.72207-2.7537-1.40446-1.4304-.68238-2.8466-1.259-1.41669-.5766-2.68846-1.05885a17.17936 17.17936 0 0 0-2.24388-.70135C131.57806 424.37986 129.66423 427.48015 125.83692 433.6803zM151.464 440.1057q-.17027-1.55785-.27739-3.4503-.10711-1.8898-.03857-4.24026.07109-2.348.39244-5.26693.325-2.91669.9881-6.60394a9.78437 9.78437 0 0 1 2.93741.03174 11.57015 11.57015 0 0 1 3.46342 1.08354 9.60228 9.60228 0 0 1 3.31057 2.41967 4.88808 4.88808 0 0 1 .944 3.62531c-.40964 6.25216-.5453 9.39521-.67567 15.70777.11042.04629.16586.06965.27639.1155q1.53967-1.32248 3.14835-2.97114 1.604-1.64646 3.20421-3.45119 1.598-1.80251 3.07065-3.66057 1.47289-1.85609 2.73232-3.7148a15.43043 15.43043 0 0 1 5.48469.97289 9.2058 9.2058 0 0 1 3.51379 2.08156 2.842 2.842 0 0 1 .61164 3.13379 13.26574 13.26574 0 0 1-1.55015 2.99715 35.6693 35.6693 0 0 1-2.57792 3.37845 47.16062 47.16062 0 0 1-3.33481 3.50144q-1.84681 1.75623-3.80539 3.37272-1.96236 1.61606-3.94535 2.95262a43.96242 43.96242 0 0 1-3.78356 2.29976 34.4894 34.4894 0 0 1-5.37945 2.462 18.79969 18.79969 0 0 1-4.37526.99184 12.22765 12.22765 0 0 1-3.74466-.21512 17.83931 17.83931 0 0 1-3.51389-1.18845 9.56992 9.56992 0 0 1-4.36325-3.51555 5.05561 5.05561 0 0 1-.67776-4.18956 52.48411 52.48411 0 0 0 5.82875-.48755 38.48171 38.48171 0 0 0 5.4923-1.15715 7.8295 7.8295 0 0 1-2.02469-2.29536A11.973 11.973 0 0 1 151.464 440.1057zM225.601 442.62543c-3.50034-.50518-6.30308-.14326-8.48173 1.16113a9.118 9.118 0 0 0-4.18934 6.42981 8.18476 8.18476 0 0 0 1.91933 7.61871c1.90589 2.03615 4.78655 3.37272 8.58444 3.91008a18.35582 18.35582 0 0 0 5.22.093 36.91371 36.91371 0 0 0 4.17766-.86974 6.17961 6.17961 0 0 1 1.77629 1.97224 4.20725 4.20725 0 0 1 .47212 2.48006c-.14051 1.44986-1.40214 2.57968-3.82005 3.33745-2.419.75865-6.019.85784-10.74071.15517a37.917 37.917 0 0 1-9.37747-2.59952 22.58059 22.58059 0 0 1-7.06107-4.615 14.02461 14.02461 0 0 1-3.78357-14.2685 15.53247 15.53247 0 0 1 3.47654-6.69607 17.37073 17.37073 0 0 1 5.73254-4.175 22.63134 22.63134 0 0 1 7.26209-1.88716 33.04463 33.04463 0 0 1 8.22649.268c4.03891.61451 7.10482 1.51334 9.22946 2.81729 2.12388 1.30351 3.13259 2.76527 2.97048 4.42628a3.484 3.484 0 0 1-1.12586 2.29932 6.6733 6.6733 0 0 1-2.2354 1.37757 28.66683 28.66683 0 0 0-3.63744-1.97488A16.86925 16.86925 0 0 0 225.601 442.62543zM277.52891 470.0996a22.69352 22.69352 0 0 1-2.388.47785 31.13449 31.13449 0 0 1-3.40016.34648 23.48745 23.48745 0 0 1-3.03615-.03041 6.38167 6.38167 0 0 1-2.28-.56558 3.4486 3.4486 0 0 1-1.44611-1.26868 4.14243 4.14243 0 0 1-.54089-2.14591c-.10183-4.72913-.15274-7.09325-.25457-11.82194a3.30883 3.30883 0 0 0-1.52017-3.03593 6.97945 6.97945 0 0 0-3.58322-.85255 13.86363 13.86363 0 0 0-2.68945.25127 9.67938 9.67938 0 0 0-2.065.60745c-.15131 7.4556-.2268 11.18318-.378 18.63923a22.90671 22.90671 0 0 1-2.422.26052 31.14856 31.14856 0 0 1-3.41845.0388 23.49129 23.49129 0 0 1-3.02-.30373 6.36746 6.36746 0 0 1-2.218-.76879 3.42959 3.42959 0 0 1-1.32224-1.39344 4.13728 4.13728 0 0 1-.33877-2.186q1.10772-15.40735 2.2159-30.81558.73232-.05488 2.16255-.15429a24.43616 24.43616 0 0 1 2.877-.03218 20.97975 20.97975 0 0 1 2.59765.26758 5.21673 5.21673 0 0 1 1.92892.69958 3.30475 3.30475 0 0 1 1.19518 1.33436 4.66363 4.66363 0 0 1 .3888 2.16576c-.04243 2.08773-.06359 3.13115-.106 5.21888.59941-.16575 1.50937-.35354 2.724-.57527a23.62822 23.62822 0 0 1 4.01279-.34737c4.52381-.04144 8.07165.68019 10.73223 2.29624a9.09576 9.09576 0 0 1 4.41471 7.59622C276.82238 460.44121 277.05789 463.66053 277.52891 470.0996zM298.47264 467.765a22.85237 22.85237 0 0 1-2.34274.66917 31.102 31.102 0 0 1-3.36291.62023 23.57873 23.57873 0 0 1-3.03087.21468 6.4105 6.4105 0 0 1-2.321-.37954 3.46357 3.46357 0 0 1-1.54772-1.1479 4.15229 4.15229 0 0 1-.71722-2.09566c-.669-6.358-1.00353-9.53672-1.67247-15.89424a3.66712 3.66712 0 0 1 .37128-2.15341 5.623 5.623 0 0 1 1.52535-1.74521 14.2583 14.2583 0 0 1 2.57087-1.56271q1.54182-.75381 3.32456-1.42959 1.78136-.6771 3.71149-1.21843a38.962 38.962 0 0 1 3.89036-.88208 12.23853 12.23853 0 0 1 5.32743.0194 3.41252 3.41252 0 0 1 2.56 2.775 3.97073 3.97073 0 0 1 .02722 1.49 5.72385 5.72385 0 0 1-.42551 1.41768q-1.458.29292-2.96815.6846-1.51092.3921-2.93951.857-1.42941.46551-2.68669.91074a16.40617 16.40617 0 0 0-2.123.90148C296.775 456.99532 297.341 460.58492 298.47264 467.765zM308.86246 432.19826a4.281 4.281 0 0 1 .86126-3.69849 6.87375 6.87375 0 0 1 3.96033-2.39366 6.96037 6.96037 0 0 1 4.64306.20057 4.34684 4.34684 0 0 1 2.57395 2.82258 4.14293 4.14293 0 0 1-.70829 3.743 8.03393 8.03393 0 0 1-8.87427 2.26185A4.20375 4.20375 0 0 1 308.86246 432.19826zm20.73192 28.83145c-.52424.22129-1.29888.53912-2.32974.94909a26.66025 26.66025 0 0 1-3.18768 1.03637 23.50068 23.50068 0 0 1-2.98723.58673 6.46412 6.46412 0 0 1-2.35707-.09125 3.49045 3.49045 0 0 1-1.68272-.94865 4.16155 4.16155 0 0 1-.9773-1.99119c-1.9838-8.44921-2.97587-12.67316-4.95946-21.12149.4773-.18206 1.18394-.44523 2.116-.79524a26.78329 26.78329 0 0 1 2.86865-.89487 22.93241 22.93241 0 0 1 2.67887-.52678 5.66363 5.66363 0 0 1 2.13952.0864 3.40342 3.40342 0 0 1 1.596.91294 4.52782 4.52782 0 0 1 1.03758 1.952C325.96764 448.52186 327.17659 452.6907 329.59438 461.02971zM363.75944 440.24588c1.152 2.44744.75424 4.97952-1.294 7.55479-2.04773 2.57528-5.75217 5.00244-11.10792 7.04212a43.93335 43.93335 0 0 1-5.7753 1.78047 21.34779 21.34779 0 0 1-4.81168.60834 8.42515 8.42515 0 0 1-3.44633-.64316 3.15489 3.15489 0 0 1-1.79282-1.94975 3.2099 3.2099 0 0 1 .0508-2.28213 6.58043 6.58043 0 0 1 1.248-1.94226 32.20517 32.20517 0 0 0 5.21006-.15252 25.53272 25.53272 0 0 0 6.34661-1.5971 9.88607 9.88607 0 0 0 3.15925-1.73683c.65076-.60084.87084-1.151.66873-1.64471a1.32569 1.32569 0 0 0-1.27552-.75512 11.24477 11.24477 0 0 0-3.02888.436c-.87911.19881-1.3186.29623-2.198.48667-4.24456.935-7.58025 1.04783-9.96311.46242a6.16342 6.16342 0 0 1-4.66708-4.35664 6.08165 6.08165 0 0 1-.022-3.74124 8.90572 8.90572 0 0 1 2.14625-3.50585 19.676 19.676 0 0 1 4.00254-3.13424 34.69187 34.69187 0 0 1 5.58234-2.71061 44.65162 44.65162 0 0 1 4.569-1.5173 21.41779 21.41779 0 0 1 3.957-.72075 7.60381 7.60381 0 0 1 3.05026.317 2.99762 2.99762 0 0 1 1.82279 1.60811 3.59545 3.59545 0 0 1 .3315 2.16487 5.08307 5.08307 0 0 1-.798 1.963 11.24711 11.24711 0 0 0-1.80428.17853q-1.16856.18646-2.51389.49372-1.34593.30615-2.69209.68063a24.61914 24.61914 0 0 0-2.40655.79083 13.4293 13.4293 0 0 0-3.23949 1.67732c-.70388.55015-.9579 1.08927-.75689 1.62046a1.10639 1.10639 0 0 0 1.01356.648 9.84261 9.84261 0 0 0 2.80836-.32577c.88881-.18338 1.33315-.27772 2.22185-.47035 4.59247-.98348 8.05876-1.33966 10.43511-.90237A6.37015 6.37015 0 0 1 363.75944 440.24588zM380.06794 430.59146a2.02876 2.02876 0 0 0 2.06535 1.10206 8.24168 8.24168 0 0 0 3.35234-1.26119 19.79416 19.79416 0 0 0 1.95823-1.32114 16.74855 16.74855 0 0 0 1.63942-1.40225 7.01313 7.01313 0 0 1 1.69738.49019 3.00176 3.00176 0 0 1 1.3466 1.20608 3.72431 3.72431 0 0 1-.12927 3.97268c-.816 1.50012-2.84209 3.233-6.10449 5.08708-3.98756 2.26582-7.45506 3.27794-10.28821 3.13247-2.8347-.14591-4.95417-1.69011-6.39213-4.55236-4.10415-8.16885-6.15639-12.25306-10.26032-20.42191.39971-.31607.98688-.73705 1.75909-1.26824a24.75962 24.75962 0 0 1 2.5431-1.52171 11.32176 11.32176 0 0 1 4.51037-1.48557c1.24708-.05731 2.313.67754 3.19319 2.2257.67589 1.18846 1.014 1.78268 1.68989 2.97158 3.22273-1.81134 4.81861-2.75161 7.97511-4.70224a8.33647 8.33647 0 0 1 1.47356.81376 4.79276 4.79276 0 0 1 1.37293 1.44148 3.09587 3.09587 0 0 1 .48138 2.87768 4.87665 4.87665 0 0 1-2.14481 2.27772c-2.274 1.36566-3.41923 2.03086-5.72572 3.32732C377.67582 426.38515 378.47316 427.787 380.06794 430.59146zM398.30106 397.127a30.47124 30.47124 0 0 1 4.85234-3.08663 17.84075 17.84075 0 0 1 4.94348-1.73859 28.14333 28.14333 0 0 1 2.4903-4.52988 29.95826 29.95826 0 0 1 4.30594-4.92441 30.87125 30.87125 0 0 1 4.21866-3.371 17.74057 17.74057 0 0 1 4.50651-2.20058 9.6391 9.6391 0 0 1 4.50729-.34163 8.16476 8.16476 0 0 1 4.24036 2.21733c4.92507 4.58454 7.38739 6.8768 12.31235 11.46178a25.38124 25.38124 0 0 1-1.511 2.09787 34.16761 34.16761 0 0 1-2.378 2.72956 25.65666 25.65666 0 0 1-2.35288 2.175 6.94133 6.94133 0 0 1-2.13567 1.22637 3.53983 3.53983 0 0 1-1.97256.104 3.98847 3.98847 0 0 1-1.87415-1.19462c-3.54332-3.67733-5.3152-5.516-8.85863-9.19288a2.47385 2.47385 0 0 0-2.52271-.7926 7.10042 7.10042 0 0 0-2.97367 1.8228 8.17885 8.17885 0 0 0-1.39608 1.7624 7.61592 7.61592 0 0 0-.83436 1.73022 1.27165 1.27165 0 0 1 .322.24906c.08376.09346.16035.17942.23176.25921 4.74676 5.30175 7.12025 7.95285 11.86679 13.255-.36555.47212-.93961 1.13115-1.72835 1.96915a32.45807 32.45807 0 0 1-2.51863 2.40115 24.9641 24.9641 0 0 1-2.50827 1.911 6.75706 6.75706 0 0 1-2.2149.99846 3.51839 3.51839 0 0 1-1.96012-.09346 4.05217 4.05217 0 0 1-1.75446-1.36522c-3.199-3.98193-4.79878-5.97268-7.99782-9.95462a2.45538 2.45538 0 0 0-2.51532-.96451 7.0577 7.0577 0 0 0-3.00893 1.43972 7.97252 7.97252 0 0 0-1.62024 1.60635q-.58006.80736-.94821 1.41327c4.48392 6.01412 6.72583 9.021 11.20964 15.03552a23.77962 23.77962 0 0 1-1.81167 1.732 32.2706 32.2706 0 0 1-2.7581 2.17677 24.3791 24.3791 0 0 1-2.6435 1.64867 6.63863 6.63863 0 0 1-2.27662.775 3.50248 3.50248 0 0 1-1.933-.2808 4.09217 4.09217 0 0 1-1.6219-1.52039c-3.57968-5.37052-5.36941-8.05556-8.9491-13.42608a3.1786 3.1786 0 0 1-.58883-2.36677 9.03205 9.03205 0 0 1 .96276-2.58453 26.84326 26.84326 0 0 1 3.70476-5.14967A40.1753 40.1753 0 0 1 398.30106 397.127zM439.42536 355.18419a53.03282 53.03282 0 0 1 4.79734-5.64295 23.06511 23.06511 0 0 1 4.71337-3.76328 10.17265 10.17265 0 0 1 4.57462-1.46617 7.2538 7.2538 0 0 1 4.36622 1.22812c4.01963 2.58189 6.02933 3.87306 10.04885 6.45494a2.69681 2.69681 0 0 1 1.25314 2.25789 12.18143 12.18143 0 0 1-.30725 3.281c-.84627 3.83426-3.171 8.54179-7.0992 13.82723a43.939 43.939 0 0 1-5.26649 5.97929 22.47608 22.47608 0 0 1-5.02944 3.64383 9.258 9.258 0 0 1-4.533 1.13776 5.86257 5.86257 0 0 1-3.75161-1.53979 6.436 6.436 0 0 1-2.166-6.16356c.37591-2.48094 1.84351-5.51158 4.329-9.23211 2.26527-3.40314 3.36611-5.136 5.50046-8.66257-.12112-.08773-.18162-.13137-.30274-.21909-.83568-.60437-1.81442-.49372-2.9427.309a20.11561 20.11561 0 0 0-3.90248 4.1468 43.95585 43.95585 0 0 0-3.14525 4.73045 48.70057 48.70057 0 0 0-2.31839 4.52238 4.18423 4.18423 0 0 1-2.19187.32444 3.52942 3.52942 0 0 1-1.99417-.82786 2.85785 2.85785 0 0 1-1.07351-2.15914 7.73824 7.73824 0 0 1 .75282-3.10823 31.98545 31.98545 0 0 1 2.52568-4.49593Q437.86744 357.27633 439.42536 355.18419zm17.07255 12.18209a24.99422 24.99422 0 0 0 1.66168-2.58057 10.18391 10.18391 0 0 0 1.04342-2.32709c-1.38374-1.00022-2.07582-1.50011-3.45956-2.50034-1.23474 1.96474-1.86236 2.93675-3.13677 4.86182a13.20877 13.20877 0 0 0-1.71314 3.32291c-.30439.9795-.18272 1.68878.37436 2.13092a1.93744 1.93744 0 0 0 2.12752.08685A9.35645 9.35645 0 0 0 456.49791 367.36628zM485.66439 311.684c2.49328 1.03285 3.81453 3.40667 3.854 7.13425.03912 3.728-1.332 8.65816-4.27178 14.50036a54.38354 54.38354 0 0 1-3.44292 5.93654 25.93589 25.93589 0 0 1-3.4351 4.20808 9.5608 9.5608 0 0 1-3.15782 2.145 2.96709 2.96709 0 0 1-2.68339-.16 3.04561 3.04561 0 0 1-1.42991-1.83249 7.47457 7.47457 0 0 1-.25843-2.48535 37.90188 37.90188 0 0 0 4.04718-4.14724 31.79145 31.79145 0 0 0 4.01577-6.22836 12.82858 12.82858 0 0 0 1.38968-3.87878c.1285-.99362-.05135-1.60856-.53041-1.84131-.44644-.21689-.9459-.07759-1.4999.4126a14.53278 14.53278 0 0 0-2.12442 2.74411c-.57009.85167-.85652 1.27486-1.43267 2.11639-2.77078 4.07539-5.352 6.7375-7.62554 8.11022a5.91885 5.91885 0 0 1-6.52239.15208 5.72273 5.72273 0 0 1-2.42826-2.92352 10.00167 10.00167 0 0 1-.55136-4.40953 24.812 24.812 0 0 1 1.16333-5.58036 46.44143 46.44143 0 0 1 2.68868-6.536q1.293-2.61913 2.64834-4.84506a28.65033 28.65033 0 0 1 2.67424-3.75932 9.24351 9.24351 0 0 1 2.62255-2.216 2.79826 2.79826 0 0 1 2.48271-.18823 3.24264 3.24264 0 0 1 1.66068 1.47322 5.71 5.71 0 0 1 .63533 2.22659 14.68252 14.68252 0 0 0-1.31519 1.60283q-.80653 1.09433-1.67534 2.41922-.86985 1.32446-1.69694 2.69827-.8277 1.37469-1.40027 2.544a17.73369 17.73369 0 0 0-1.49162 3.89333c-.20476.99009-.05907 1.616.44313 1.87967.34682.18161.75414.08948 1.22361-.28169a12.25429 12.25429 0 0 0 2.02116-2.47212c.58773-.849.87988-1.27618 1.46144-2.13578 3.01179-4.43157 5.5291-7.52525 7.6953-9.10516C481.58492 311.2749 483.66306 310.85524 485.66439 311.684z"/><path fill="#fbb641" d="M448.41136 147.728h0a49.96985 49.96985 0 0 0-20.94792-18.71682h0a49.96992 49.96992 0 0 0 18.71681-20.94793h0A49.96991 49.96991 0 0 0 467.12818 126.78h0a49.96992 49.96992 0 0 0-18.71681 20.94793zM416.49181 113.87841h0a24.60862 24.60862 0 0 0-11.009-8.37784h0a24.60867 24.60867 0 0 0 8.37784-11.009h0a24.60866 24.60866 0 0 0 11.009 8.37785h0a24.60865 24.60865 0 0 0-8.37784 11.009zM445.41774 89.32209h0a31.17668 31.17668 0 0 0-13.94728-10.61388h0a31.1766 31.1766 0 0 0 10.61388-13.94727h0A31.17658 31.17658 0 0 0 456.03162 75.3748h0a31.17666 31.17666 0 0 0-10.61387 13.94728zM50.27947 225.08488h0a43.00484 43.00484 0 0 0 12.753 20.53873h0a43.00474 43.00474 0 0 0-20.53873 12.753h0a43.00484 43.00484 0 0 0-12.753-20.53873h0a43.0048 43.0048 0 0 0 20.53873-12.753zM68.41822 260.78146h0a21.17863 21.17863 0 0 0 7.05626 9.58961h0a21.17863 21.17863 0 0 0-9.58961 7.05626h0a21.17854 21.17854 0 0 0-7.05626-9.5896h0a21.17855 21.17855 0 0 0 9.58961-7.05626zM38.57421 274.0357h0a26.831 26.831 0 0 0 8.93956 12.149h0a26.83112 26.83112 0 0 0-12.14906 8.93957h0a26.83109 26.83109 0 0 0-8.93957-12.149h0a26.831 26.831 0 0 0 12.14906-8.93956z"/></svg>