<svg xmlns="http://www.w3.org/2000/svg" data-name="Layer 1" viewBox="0 0 512 512"><path fill="none" stroke="#fff" stroke-linecap="round" stroke-linejoin="round" stroke-width="40" d="M458.0344,106.561c-5.5212-5.626-10.00934-4.7729-13.6876-10.75455-2.79128-4.539-.93019-6.206-3.91075-10.75455-4.2208-6.44089-11.4742-8.47312-12.70992-8.79917-6.58267-1.73769-7.80717,1.288-17.59835.97768a44.24561,44.24561,0,0,1-17.59835-3.91074c-.56737-.26495-.263-.13987-11.73224-6.8438-4.66692-2.72779-6.30722-3.67826-8.79917-4.88843-6.06662-2.94691-9.09969-4.42012-11.73224-3.91075-4.43037.85643-4.11721,4.919-9.77686,8.79918-6.92376,4.74664-15.23887,4.04727-16.62066,3.91074-6.27357-.62012-7.33551-3.25291-15.643-3.91074-5.952-.47166-8.20388.65831-8.79918.97768-3.18679,1.70809-4.55712,4.66263-6.8438,9.77686-3.85083,8.612-2.69031,11.325-5.86612,13.68761-3.74366,2.78459-6.90658.16852-9.77686,2.93306-3.89786,3.75368.07853,10.364-3.4219,13.19876-1.40328,1.13618-2.89941.485-12.70992-.97768-8.47551-1.26364-9.9091-2.71776-13.56015-1.97877l-.68528-15.11069.00047-.00048-.93878-20.688h0l-.26948-5.943c3.59018-.70414,7.6069-2.63708,9.09826-7.60762,2.93306-9.77686-7.82149-13.68761-7.82149-13.68761-5.86612,0-6.84381-8.79917-6.84381-8.79917s0-2.93306-5.86611-7.82149-10.75455,1.95537-10.75455,1.95537-3.91075,8.79918-9.77686,5.86612-6.84381,1.95537-6.84381,1.95537l-1.17723,1.76537a34.8727,34.8727,0,0,1-8.8894,8.91662,8.26741,8.26741,0,0,0-2.64329,3.00562c-1.95537,3.91074,3.91075,7.82149,3.91075,7.82149l1.49278,1.8661a8.04366,8.04366,0,0,0,4.941,2.89582l2.11147,62.08164c-2.60748-.16183-4.96314-.51892-7.07867-.84974-12.35188-1.93246-12.20175-5.34672-20.53141-5.86612-7.8129-.48741-19.50718,1.79592-25.41984,9.77686-4.9166,6.63614-1.70642,11.63771-6.84381,15.643-1.193.93-3.67778,2.46236-19.55372,1.95537-10.77675-.34419-11.09063-1.097-16.62067-.97768-2.34181.05012-6.07139.26686-23.46447,4.88843-12.26094,3.25768-18.53212,4.94524-25.41984,7.82149C60.61618,159.442,56.48393,162.861,53.76116,165.711c-3.04142,3.18273-8.12511,8.50271-6.8438,13.6876.99248,4.01768,5.30638,5.9277,13.19876,9.288a91.9953,91.9953,0,0,0,10.6975,4.02914l14.2335,84.45146L220.22489,238.1925l.69388,20.39774-.00287.00095.72372,21.27423.00286-.001,1.4355,42.20759h-.00119l.72348,21.2747.00143-.00047,1.53432,45.11057-.001.00048.72372,21.27422.001-.00048,1.63313,48.014-.00143.00048.72348,21.26467.00119-.00047.35088,10.31535h45.95125l-1.93365-42.63438-.68672-15.24484-.00453.0043-9.32072-205.52511L352.93314,199.93l10.75455,26.39753,78.836-94.79116c9.542,1.27509,20.16215-2.35447,22.35455-8.35473C466.71877,118.14333,461.95207,110.55337,458.0344,106.561Z"/><polygon fill="#8b4646" points="274.718 489.325 228.767 489.325 214.102 58.165 255.164 58.165 274.718 489.325"/><path fill="#ece4f6" d="M209.23963,57.58751l-1.49305-1.86631s-5.86612-3.91075-3.91074-7.82149a8.27068,8.27068,0,0,1,2.64337-3.00548,34.876,34.876,0,0,0,8.88945-8.91648l1.1771-1.76565s.97768-4.88843,6.8438-1.95537,9.77686-5.86612,9.77686-5.86612,4.88843-6.8438,10.75455-1.95537,5.86612,7.82149,5.86612,7.82149.97768,8.79917,6.8438,8.79917c0,0,10.75455,3.91075,7.82149,13.68761-1.88455,6.28184-7.80532,7.72022-11.79759,7.94584a27.6813,27.6813,0,0,0-9.67394,2.41792c-1.233.54908-2.34891,1.05762-2.97062,1.36848a14.72609,14.72609,0,0,1-4.72394.43372,23.42078,23.42078,0,0,1-15.09283-5.68729h0a2.5444,2.5444,0,0,0-1.65587-.61254h-3.01A8.05245,8.05245,0,0,1,209.23963,57.58751Z"/><path fill="#d8d2d0" d="M217.39917,54.625a5.02209,5.02209,0,0,1-1.80981-2.43115,2.50914,2.50914,0,0,1,.07617-1.647,3.56706,3.56706,0,0,1,1.021-1.28126c.39576-.33935.80249-.63671,1.208-.9248a9.5152,9.5152,0,0,1,1.32764-.82422,10.26023,10.26023,0,0,0,1.28442-.62744,5.93963,5.93963,0,0,0,1.06079-.86572,7.1361,7.1361,0,0,0,.85254-1.104,6.64212,6.64212,0,0,1,.9961-1.23974,7.66975,7.66975,0,0,1,1.27856-.93115,5.48418,5.48418,0,0,1,1.45337-.66163,2.99575,2.99575,0,0,1,1.666-.0122,3.07431,3.07431,0,0,1,1.36158.89111,4.999,4.999,0,0,1,1.11938,2.81348,5.26888,5.26888,0,0,0-1.46509-2.46582,2.32746,2.32746,0,0,0-2.45068-.481,7.4915,7.4915,0,0,0-2.30151,1.52441c-.637.60108-1.01343,1.5542-1.79273,2.36231a6.93489,6.93489,0,0,1-1.259.99658,9.12756,9.12756,0,0,1-1.40234.65527,17.61346,17.61346,0,0,0-2.45142,1.50147,3.09592,3.09592,0,0,0-.91577.95068,1.97111,1.97111,0,0,0-.19092,1.26709A5.31118,5.31118,0,0,0,217.39917,54.625Z"/><polygon fill="#fbb641" points="70.382 190.153 85.047 277.167 352.933 199.93 363.688 226.327 445.813 127.581 325.558 71.853 333.379 105.094 70.382 190.153"/><path fill="#ece4f6" d="M46.9172,179.3985c-1.281-5.18477,3.80259-10.50489,6.84381-13.68761,2.72294-2.84963,6.85514-6.26871,17.59835-10.75454,6.888-2.87607,13.159-4.56368,25.41984-7.82149,17.39322-4.62153,21.12285-4.838,23.46447-4.88843,5.53027-.11911,5.844.63355,16.62066.97768,15.876.507,18.36078-1.02542,19.55373-1.95537,5.13746-4.00489,1.92738-9.00682,6.8438-15.643,5.91278-7.98106,17.607-10.264,25.41984-9.77686,8.32983.51936,8.17978,3.93391,20.53141,5.86612,4.86972.76178,11.00689,1.66372,18.576,0a45.23905,45.23905,0,0,0,15.643-6.84381c8.09694-5.57815,8.06142-9.55275,13.68761-10.75455,3.74946-.80091,5.11138.67678,13.6876,1.95538,9.81061,1.46262,11.30683,2.11388,12.70992.97768,3.50061-2.83468-.47583-9.44489,3.4219-13.19876,2.8705-2.76454,6.03336-.1485,9.77687-2.93306,3.176-2.36244,2.01543-5.0756,5.86611-13.68761,2.28668-5.11413,3.65708-8.06841,6.84381-9.77686.59533-.31916,2.84728-1.449,8.79917-.97768,8.30759.65785,9.36957,3.29055,15.643,3.91074,1.38191.13662,9.697.836,16.62067-3.91074,5.65982-3.8803,5.3466-7.94243,9.77686-8.79918,2.63272-.50914,5.66588.96415,11.73223,3.91074,2.492,1.21042,4.13246,2.16061,8.79918,4.88844,11.46931,6.70414,11.165,6.579,11.73223,6.8438a44.2406,44.2406,0,0,0,17.59836,3.91074c9.79139.31061,11.01588-2.715,17.59835-.97768,1.23592.3262,8.48932,2.35866,12.70992,8.79917,2.98077,4.54857,1.11971,6.21559,3.91074,10.75455,3.67838,5.982,8.16661,5.12859,13.68761,10.75455,3.91788,3.99236,8.68445,11.58241,6.8438,16.62066-2.842,7.77917-19.8503,11.58159-30.30827,5.86612-5.93006-3.24087-7.52811-8.32816-11.73223-7.82149-5.55955.67-6.0958,9.96778-11.73224,10.75455-4.31458.60226-5.67158-4.61256-13.6876-8.79918-7.7998-4.07367-15.75711-3.96337-19.55373-3.91074-11.129.15427-15.41145,4.26155-20.53141.97769-3.81619-2.44766-3.27236-5.90665-6.8438-6.84381-3.17769-.83383-5.10242,1.51245-12.70992,4.88843-5.6129,2.49084-5.73266,1.73171-10.75455,3.91075-7.82212,3.39409-8.5686,5.68582-14.66529,8.79917a47.596,47.596,0,0,1-20.53141,4.88844c-9.52991.315-9.70586-2.45137-20.53141-2.93306-5.28708-.23525-14.80222-.65863-24.44216,3.91074-8.08607,3.83283-8.38176,7.44427-15.643,10.75455-8.17783,3.72814-10.51042-.00685-22.48678,1.95537-8.40945,1.37781-14.44116,4.19415-26.39753,9.77686-11.69533,5.46082-11.73784,6.89614-18.576,8.79918-8.44971,2.35151-9.87814.57558-20.53141,2.93306a78.326,78.326,0,0,0-19.55372,6.8438c-9.89018,5.1032-9.12317,7.71829-17.59835,11.73224a52.15607,52.15607,0,0,1-23.46447,4.88843c-9.32841-.26379-15.764-3.0038-22.48678-5.86612C52.22381,185.32634,47.90988,183.41627,46.9172,179.3985Z"/><path fill="#763737" d="M255.62388 68.29424l.93857 20.68784a122.19361 122.19361 0 0 1-40.59353 23.94354l-.72348-21.2549A122.16377 122.16377 0 0 0 255.62388 68.29424zM263.17161 234.74532l.93858 20.68784a122.28414 122.28414 0 0 1-42.47069 24.43238l-.72348-21.27446A122.18818 122.18818 0 0 0 263.17161 234.74532zM266.01668 297.52255l.93858 20.66828a122.20935 122.20935 0 0 1-43.15507 25.15587l-.72349-21.27445A122.14442 122.14442 0 0 0 266.01668 297.52255zM268.98885 363.08619l.93857 20.64873a122.1603 122.1603 0 0 1-43.86878 25.99667l-.72348-21.27445A121.91191 121.91191 0 0 0 268.98885 363.08619zM272.09789 431.446l.9288 20.61941a121.89344 121.89344 0 0 1-44.61182 26.945l-.72349-21.26468A122.1354 122.1354 0 0 0 272.09789 431.446z"/><text fill="#fff" font-family="Baloo-Regular, Baloo" font-size="44.974" transform="matrix(1.14954 -.3082 .25896 .96589 115.753 240.823)">North <tspan x="128.668" y="0" letter-spacing="-.015em">P</tspan><tspan x="154.123" y="0" letter-spacing="0em">ole</tspan></text><path fill="#d8d2d0" d="M74.49561 185.26465a15.79453 15.79453 0 0 1-3.58277-4.61279 5.73778 5.73778 0 0 1-.541-2.97071 6.4734 6.4734 0 0 1 1.16479-2.83008 5.92472 5.92472 0 0 1 2.42774-1.89013 7.12707 7.12707 0 0 1 1.47729-.45508c.24439-.05371.5271-.08057.74707-.11035a3.58655 3.58655 0 0 0 .63159-.13623 2.27411 2.27411 0 0 0 1.62085-1.666 6.30276 6.30276 0 0 0-.04614-2.67041 9.26086 9.26086 0 0 0-.76025-2.65185c-.1941-.41846-.44458-.81739-.66309-1.31348a3.22557 3.22557 0 0 1-.26514-1.644 4.94084 4.94084 0 0 1 1.36133-2.82959 6.513 6.513 0 0 1 2.55518-1.69825 7.01718 7.01718 0 0 1 3.02832-.31835 5.4567 5.4567 0 0 1 2.80639 1.12207 5.67467 5.67467 0 0 1 1.89014 5.36425A5.57684 5.57684 0 0 0 86.16162 158.98a5.704 5.704 0 0 0-5.25879-.478A5.19488 5.19488 0 0 0 77.613 162.395a2.27615 2.27615 0 0 0 .21289 1.1875c.176.38965.44482.81348.668 1.27a10.1449 10.1449 0 0 1 .88525 2.89941 7.19719 7.19719 0 0 1-.019 3.09571 3.24294 3.24294 0 0 1-.834 1.45459 3.40876 3.40876 0 0 1-1.4414.82617 4.46926 4.46926 0 0 1-.78955.15771c-.2605.03076-.46167.04444-.69165.09033a6.25417 6.25417 0 0 0-1.30054.37842 5.65247 5.65247 0 0 0-2.16577 1.5708 5.8063 5.8063 0 0 0-1.14209 2.43994 5.26638 5.26638 0 0 0 .36792 2.7002A16.99541 16.99541 0 0 0 74.49561 185.26465zM163.75073 155.44531a31.59357 31.59357 0 0 1 1.03321-5.9209 28.30856 28.30856 0 0 1 .97827-2.86425 6.98216 6.98216 0 0 1 .73291-1.39063 3.19385 3.19385 0 0 1 1.2854-1.064 3.317 3.317 0 0 1 1.66015-.2461c.533.04346 1.01685.14307 1.5.19971a11.87764 11.87764 0 0 0 2.8816.00146 9.09827 9.09827 0 0 0 2.7395-.72753 4.22059 4.22059 0 0 0 1.98462-1.71094 12.68922 12.68922 0 0 0 .61889-2.77051 29.318 29.318 0 0 1 .70557-2.9585c.28369-.96435.56592-1.92089.906-2.8833a7.25263 7.25263 0 0 1 1.53979-2.73632 5.13822 5.13822 0 0 1 2.81445-1.44043 16.4424 16.4424 0 0 1 3.04493-.13038 16.80605 16.80605 0 0 1 5.883 1.22266 18.06432 18.06432 0 0 0-5.87915-.73242 16.53873 16.53873 0 0 0-2.92431.25928 4.43318 4.43318 0 0 0-2.37745 1.34716 7.33907 7.33907 0 0 0-1.2854 2.49659c-.31152.9248-.58081 1.88916-.84594 2.84472a28.33574 28.33574 0 0 0-.64038 2.87647 12.49439 12.49439 0 0 1-.66968 3.0581 5.13947 5.13947 0 0 1-2.47876 2.125 9.99808 9.99808 0 0 1-3.03736.76319 12.79513 12.79513 0 0 1-3.09423-.04834 5.61607 5.61607 0 0 0-2.7439-.106 3.48183 3.48183 0 0 0-1.74487 2.00439c-.4104.88965-.76514 1.82129-1.08863 2.75635A37.24953 37.24953 0 0 0 163.75073 155.44531zM331.85913 96.25049a31.6387 31.6387 0 0 1 4.676-3.77588 28.3051 28.3051 0 0 1 2.62231-1.51123 7.00364 7.00364 0 0 1 1.46729-.56445 3.19994 3.19994 0 0 1 1.668.04589 3.31571 3.31571 0 0 1 1.41138.90772c.37256.38379.67114.77734.99732 1.13818a11.87941 11.87941 0 0 0 2.168 1.89844 9.10074 9.10074 0 0 0 2.54078 1.25635 4.225 4.225 0 0 0 2.62036.019 12.7011 12.7011 0 0 0 2.29-1.67773 29.15214 29.15214 0 0 1 2.47924-1.76172c.84815-.53906 1.69043-1.07324 2.58033-1.57373a7.24352 7.24352 0 0 1 2.96045-1.04541 5.1407 5.1407 0 0 1 3.06665.76855 16.44433 16.44433 0 0 1 2.37768 1.90723 16.80237 16.80237 0 0 1 3.62256 4.79346 18.07892 18.07892 0 0 0-3.94238-4.42237 16.5555 16.5555 0 0 0-2.37158-1.73 4.43707 4.43707 0 0 0-2.67652-.55176 7.34212 7.34212 0 0 0-2.61108 1.03272c-.84375.49121-1.6814 1.03955-2.51 1.584a28.37675 28.37675 0 0 0-2.37622 1.74366 12.49435 12.49435 0 0 1-2.51734 1.86035 5.14269 5.14269 0 0 1-3.26489-.03272 10.01653 10.01653 0 0 1-2.78857-1.42529 12.7735 12.7735 0 0 1-2.29663-2.07422c-.68457-.77-1.19117-1.62451-1.99561-1.88623a3.48046 3.48046 0 0 0-2.63306.35986c-.89477.39893-1.77514.8667-2.634 1.35742A37.2841 37.2841 0 0 0 331.85913 96.25049zM253.45679 117.62891a9.395 9.395 0 0 0 1.52026 4.27929 8.65982 8.65982 0 0 0 3.25147 3.01221 7.48815 7.48815 0 0 0 8.16772-1.01709 4.66383 4.66383 0 0 0 1.21606-1.68848 5.87454 5.87454 0 0 0 .35816-2.11132 7.644 7.644 0 0 1 .12036-1.23194 2.35835 2.35835 0 0 1 1.87769-1.8833 4.4286 4.4286 0 0 1 1.271-.04 35.66282 35.66282 0 0 1 9 2.52637c-1.49487-.41846-2.99023-.80908-4.50952-1.07764a37.62877 37.62877 0 0 0-4.53638-.68115 2.28977 2.28977 0 0 0-1.82739.53564 2.60278 2.60278 0 0 0-.44922 1.88038 6.59507 6.59507 0 0 1-.39721 2.44531 5.623 5.623 0 0 1-1.45191 2.06592 8.07931 8.07931 0 0 1-9.20727.94873 9.203 9.203 0 0 1-3.29981-3.43018A8.958 8.958 0 0 1 253.45679 117.62891zM416.80469 98.8877a9.39269 9.39269 0 0 0 .07348 4.54052 8.65815 8.65815 0 0 0 2.1189 3.89307 7.48847 7.48847 0 0 0 8.0647 1.64551 4.6725 4.6725 0 0 0 1.69189-1.21143 5.88089 5.88089 0 0 0 1.01367-1.88623 7.69054 7.69054 0 0 1 .50757-1.12939 2.35848 2.35848 0 0 1 2.38111-1.18457 4.42555 4.42555 0 0 1 1.217.36816 35.65505 35.65505 0 0 1 7.72143 5.269c-1.283-.874-2.57519-1.72217-3.92895-2.46191a37.58522 37.58522 0 0 0-4.0813-2.09424 2.28571 2.28571 0 0 0-1.90259-.07617c-.53247.25488-.771.89941-1.02661 1.63818a6.59948 6.59948 0 0 1-1.15723 2.19043 5.62833 5.62833 0 0 1-2.03589 1.49365 8.07917 8.07917 0 0 1-9.02807-2.042 9.20438 9.20438 0 0 1-2.031-4.30469A8.95544 8.95544 0 0 1 416.80469 98.8877z"/></svg>