<svg xmlns="http://www.w3.org/2000/svg" data-name="Layer 1" viewBox="0 0 512 512"><path fill="#fff" stroke="#f9f9f9" stroke-linecap="round" stroke-linejoin="round" stroke-width="40" d="M412.16039,433.84814c-6.33588-5.45557-14.28149-7.20752-21.81079-9.95313a17.482,17.482,0,0,0,6.77179-9.7539c.91534-3.65479.89184-7.51465,2.284-11.12842,4.22991-10.98047,3.32031-13.84912-6.36207-21.01172,2.5365-10.24707,5.19953-20.47021,5.80359-31.07812h-.00006c.57294-3.45215,2.655-6.2085,4.926-8.51124,6.897-6.99267,9.62469-15.42675,8.05072-24.793-1.88721-11.23047-2.1543-23.74659-15.79267-28.66065q-1.28-.87891-2.56006-1.75683c1.808-4.38526,2.56971-8.70118-.84375-12.73877l-.0039.001.00287-.002c8.81964-3.90381,10.15545-6.89746,6.485-15.97412a73.17879,73.17879,0,0,0-5.87976-11.37305c-3.577-5.70068-6.44263-11.60058-7.67328-18.28027-2.22-12.04834-8.10626-22.09424-16.36346-31.106-9.99768-10.91064-13.42444-23.15625-8.47266-38.06494,5.45618-16.42773,10.2154-33.35693,3.69324-50.85742l-.00006-.00049.00024.00049c.22052-3.74658,3.35938-5.48291,5.45728-7.94043,4.9469-5.79444,4.57648-12.78028-.91217-17.52149-5.70783-4.93066-5.70783-4.93066,1.3905-7.84375h-.00018c1.37591-.3789,2.74334-.79248,4.129-1.13183,16.32623-3.99512,25.24652-15.54248,29.93695-30.6128C408.57409,30.397,395.011,17.769,379.02276,19.604c-7.152.82031-13.71613,3.48926-20.28168,6.42578-8.37634,3.74658-16.6117,6.34668-24.1676-2.852-4.24591-5.16895-10.98938-5.83838-16.93366-2.06836-5.85181,3.71191-6.58136,9.501-4.63354,15.77978a15.72462,15.72462,0,0,0,1.75982,4.64063c3.64484,4.99072,4.30927,10.38135,2.76636,16.20264a34.35289,34.35289,0,0,1-3.05908,3.87841c-8.36322,8.01123-12.80084,16.9419-6.9917,28.41944l-3.01471,1.04c-5.68848-1.957-10.47284-3.84913-8.84491-12.00342,1.58008-7.91406-3.31683-13.23731-10.17883-16.897-4.48987-2.395-9.69043-2.03418-14.20423-4.15186,1.77527-4.8374,3.06488-9.01758-2.39441-13.13916-24.83337-18.749-59.67456-17.64648-82.02282,3.96338-29.60016,28.62207-35.27442,63.33789-24.05652,101.82715-.53827,4.01513-3.05383,6.79492-5.62537,9.70117-4.284,4.84131-5.17291,11.02392-1.137,15.69971,3.49029,4.04345,6.91449,8.39355,11.05615,11.89453a9.38319,9.38319,0,0,0,15.3822-4.67285c.73487-2.57569,1.3722-5.08545,3.19886-7.03467,3.69787-3.9458,2.60888-7.56592.87829-12.30225-2.38379-6.52441-7.97882-10.96191-9.88635-17.55127l-.00128.00342.001-.00488c1.34552-5.68164,3.976-10.5127,9.07757-13.707l.00012-.00049-.00006.00049c5.0177,2.4375,9.62195,5.18945,9.9607,11.6748a4.9318,4.9318,0,0,0,1.27563,2.5127c3.32172,4.07519,3.40491,8.50683,2.05365,13.37255-1.22412,4.40772-1.31238,8.92823,1.08179,13.09766,1.39569,2.43066,1.08551,5.03662,1.11456,7.62793h.00006a163.96083,163.96083,0,0,1-27.37475,20.40576l.00006-.00049a36.32111,36.32111,0,0,1-9.87091-1.03418c-8.63709-2.20556-17.45887-4.25732-23.66755,5.23877-.55706.852-1.97418,1.313-3.084,1.603-4.7403,1.23779-7.1911,4.36963-7.873,9.07959h-.00006c-2.8565-.05371-4.76245-1.69287-6.66827-3.63037a27.094,27.094,0,0,0-12.21076-7.13574c-7.38134-2.0503-18.52661,4.12256-20.82281,11.41211-2.63672,8.37109,1.41962,16.02148,10.99561,18.44238,6.11492,1.54541,4.37158,3.14453,1.91082,6.78906-9.78845,14.49854-12.09735,30.23926-4.10113,46.01709,9.74573,19.23,38.44262,22.44824,48.77258,5.44336,4.90552-8.07568,9.07355-15.84131,18.60181-18.96142a10.36861,10.36861,0,0,0,2.34625-1.57764c6.84528,1.39307,12.202-1.73877,17.28979-5.688,3.07117.4458,6.217.82471,9.15809-.26172,3.514-1.29834,5.16217-.84619,5.26007,3.3794a22.32956,22.32956,0,0,0,5.777,14.16406,9.93061,9.93061,0,0,0-1.52014,7.5918h.00128l-.001.002q-2.71317,1.96654-5.42639,3.9331v.00049l-.00007-.00049c-12.31616,3.7793-16.93,15.51709-24.45355,24.12256-5.47333,6.26026-4.32257,12.09619,1.54523,18.41455,8.09619,8.71778,16.07672,17.543,24.10681,26.32227l.00018.00049-.00024-.00049q-.09458,1.33961-.18909,2.67822c-14.49627.31641-21.757,8.34033-20.12225,22.18115.13653,1.15577.38165,2.59717-.14026,3.48438-3.957,6.72656-2.57922,13.63672-1.00714,20.58643-10.64691,8.832-15.03565,21.23681-18.63013,33.84179-4.47516,15.69336,2.227,28.42822,12.33972,39.72022,4.00324,4.46972,9.45942,6.18847,15.55957,5.646,15.89325-1.41455,27.11426-11.4541,30.73737-27.3374,2.00909-8.8081,2.43317-17.97266,5.93512-26.44336,2.52222-1.73926,5.39746-1.40869,8.22333-1.42871,15.09747-.10693,25.88775-10.75,25.9906-25.61621,9.85657-1.38965,19.6745-3.09131,28.0086-8.99707,5.27716-3.73975,9.955-8.15186,9.24909-15.58936l-.00025-.00048h.00019c9.02429-2.94776,18.2315-1.106,27.363-.91407.85187.01807,1.67188,1.55664,2.50666,2.38916h0a1.3392,1.3392,0,0,1,.33215,1.21973h0c-17.65106,11.50391-18.13171,25.46777-5.7193,37.72217-.11865,1.89941-.30194,3.79736-.3457,5.69824-.35858,15.564,9.81744,31.20264,28.45678,28.27051,3.66034-.57617,7.03247.61767,10.37427,1.96484,13.20648,5.32276,26.46094,9.83838,41.181,7.17969,8.89819-1.60693,18.21527-2.917,21.64227-12.4292C425.23736,448.87255,422.63756,442.86962,412.16039,433.84814Z"/><path fill="#d64142" d="M304.467,91.07006q1.50733-.51984,3.01471-1.03965c5.954-5.85624,13.87731-4.58981,20.87645-4.7253,11.79565-.2284,22.22853,4.407,30.75664,12.92034a17.25539,17.25539,0,0,1,5.30033,10.58013c6.52213,17.50042,1.76294,34.42965-3.69327,50.85731-4.95178,14.90893-1.525,27.15437,8.47268,38.06529,8.25716,9.01141,14.14343,19.05752,16.36343,31.106,1.23068,6.67932,4.09634,12.57942,7.67328,18.27993a73.17025,73.17025,0,0,1,5.8798,11.37338c3.67048,9.07633,2.33466,12.07-6.485,15.97375-7.27494,5.56739-15.0432,9.74059-24.64969,8.73824a46.7042,46.7042,0,0,1-18.98528-15.39809c-2.01472-9.553-7.14342-18.04146-9.403-27.546-1.59455-6.70746-8.31631-10.80765-9.18308-18.23864-3.94462,5.99779-6.35466,12.18187-11.05449,17.01119-2.26558,2.328-.1736,4.89863.90387,7.23307,4.14871,8.98853,6.38586,18.3359,5.32059,28.3154a15.5955,15.5955,0,0,1-5.49908,7.29826,16.13009,16.13009,0,0,0-6.93938,10.34582,6.31407,6.31407,0,0,1-5.11833,5.31525c-14.41154-3.34366-28.32149-1.55941-42.8375,1.30156-19.25193,3.79429-37.81348-2.56164-55.5621-10.2882a6.70517,6.70517,0,0,1-3.9839-3.88337,22.32829,22.32829,0,0,1-5.777-14.16382c-.09789-4.22575-1.746-4.67751-5.26006-3.37928-2.94113,1.08657-6.087.70752-9.15817.26149-4.18478-1.55189-5.02812-4.98275-4.28851-8.72682,2.37012-11.99808-.17316-23.61348-2.28173-35.29284-.77216-4.277-3.88647-6.95525-6.3864-10.10266-4.05226-5.10193-3.74384-7.32737,1.33826-11.87536a163.93718,163.93718,0,0,0,27.37474-20.40565c4.26068-3.26133,6.92485-.519,8.22035,2.96453,1.5515,4.17187,4.287,6.55368,7.94794,8.64113,6.1622,3.5137,10.1031,8.67167,10.0938,16.14313-.00551,4.44625,2.27127,6.373,6.59229,6.67587a37.14451,37.14451,0,0,1,16.876,5.40136c.61125.37148,1.28259.92574,1.92618.89892,11.362-.474,22.101,5.4035,33.55063,3.43056,5.54021-.95471,10.302.79384,15.162,2.89348,7.18026,3.102,9.79283,2.053,12.57015-5.23725,2.59087-6.80086,3.73571-14.1993,12.05045-17.41419,3.294-1.27365,1.80735-7.00831,4.44857-9.381,7.69607-6.91387,5.40126-15.07122,3.33916-23.14687-1.59818-6.259-3.274-12.16752-1.07244-18.86209,1.5648-4.75823-.39839-10.47668-2.47283-14.48556-4.83177-9.33709-8.79318-19.56592-17.47686-26.41445-4.31794-3.40542-8.75727-6.67813-11.88586-11.26785C297.4628,96.53548,298.42118,93.77163,304.467,91.07006Z"/><path fill="#ece4f6" d="M304.467 91.07006c-5.20041 3.27682-5.03853 6.99076-.90409 11.03449 1.194 1.16784 2.18237 2.70927 3.59387 3.46571 12.03142 6.44738 17.04755 18.84938 23.82352 29.36583 3.96085 6.14731 6.41368 14.46353 2.78262 22.52116-1.394 3.09352-.65555 6.10622.51874 9.02083 2.53255 6.2858 2.76311 13.01909 3.97655 19.56168.32043 1.72764.4095 3.75467-.82394 4.7619a21.34626 21.34626 0 0 0-8.22282 15.925c-.08531 1.3697-1.10612 1.98114-2.51032 1.86529-6.12532-.50553-7.42552 3.82921-8.65283 8.44a52.69019 52.69019 0 0 1-3.0509 8.73877c-2.60092 5.56851-6.38515 7.98556-12.57938 4.60777-6.43406-3.5086-13.18028-5.78434-20.39572-1.85784-.39786.21652-1.08565.4312-1.37326.24251-10.12531-6.64337-23.07376-1.1574-33.21083-7.76743-4.56991-2.97984-9.81287-3.46647-15.09544-3.69209-4.38218-.187-7.542-1.67772-6.77925-6.89011 1.19021-8.13379-2.9203-13.08782-9.70692-16.52719-3.84754-1.94987-7.27288-3.83616-7.4595-9.26645-.13477-3.92115-3.85164-4.22737-7.2013-3.639-.029-2.591.28113-5.19715-1.11457-7.62789-2.39415-4.16953-2.30588-8.69-1.08176-13.09773 1.35123-4.86546 1.268-9.29738-2.05364-13.37261a4.93079 4.93079 0 0 1-1.27566-2.51237c-.33875-6.4853-4.943-9.23771-9.96067-11.67514a21.6311 21.6311 0 0 0 1.3919-14.61907c-.65016-2.56116 1.13787-5.01974 2.70462-7.15016a40.274 40.274 0 0 0 5.11325-8.54852c2.63589-6.48221 6.75185-11.19958 13.59867-13.62723a18.22486 18.22486 0 0 0 9.6227-8.1491 13.7062 13.7062 0 0 1 11.665-7.087c3.144-.17482 6.36341-.6429 8.73638-2.682 9.43928-8.11147 22.076-7.85917 32.697-12.81388 4.51382 2.1178 9.71438 1.75684 14.20421 4.15153 6.862 3.65991 11.7589 8.98306 10.17883 16.89731C293.9941 87.22128 298.77849 89.113 304.467 91.07006zM199.88682 365.05232c-8.03008-8.77932-16.0106-17.60462-24.10683-26.32251-5.86779-6.31826-7.01852-12.15414-1.54522-18.41447 7.52355-8.60541 12.1374-20.34318 24.45356-24.12229 7.14487 11.97878 18.52579 18.33992 31.08962 22.76127 23.58078 8.29838 47.68062 13.56791 72.96742 12.58971 7.76126-.30025 15.06669-2.28536 22.58186-3.46476 5.07957-.79717 5.44982-5.39751 6.61379-9.23222a4.80729 4.80729 0 0 1 3.85812-2.81276 158.13315 158.13315 0 0 0 20.11795-4.52478 6.60835 6.60835 0 0 1 5.47223.68735c6.67837 8.11108 7.769 8.07289 14.70081-.57688.74235-.92636 1.3254-2.33463 2.351-2.61007 10.36787-2.78455 12.21823-12.95257 17.5897-20.05212 13.63839 4.914 13.90548 17.4305 15.79267 28.66085 1.57394 9.36622-1.15368 17.80009-8.05071 24.79311-2.271 2.30255-4.35306 5.05922-4.926 8.511-15.33019 22.70558-35.33269 37.41309-63.96222 37.2702a47.06689 47.06689 0 0 0-9.17372 1.05993c-.83479-.83256-1.65479-2.37116-2.50669-2.38909-9.13146-.19189-18.33865-2.03363-27.363.91415A157.95258 157.95258 0 0 1 222.8944 377.7559C214.717 374.58238 206.22415 371.68846 199.88682 365.05232z"/><path fill="#d64142" d="M271.239,58.01813c-.87933.78918-1.63486,2.00838-2.65668,2.30249-13.34969,3.84257-25.439,10.9642-38.68389,14.92271-4.07591,1.21819-7.73936,2.00295-9.85784,5.94315a20.43762,20.43762,0,0,1-12.47307,10.01713c-4.96153,1.54087-7.87836,4.90324-9.89028,9.53625a36.88208,36.88208,0,0,1-5.24074,9.25184c-3.60735,4.24819-5.223,8.44988-2.40414,13.63808,2.72438,5.01441-1.85147,6.53542-4.323,9.06534-5.10157,3.1945-7.73207,8.02548-9.07758,13.70747-.99719,3.50884.66,8.51686-5.21064,9.27769-4.15311.53825-7.4863-.377-8.65592-5.01064C151.54735,112.18,157.22161,77.46451,186.82172,48.84222c22.3483-21.61,57.18947-22.71214,82.02284-3.96327C274.30384,49.0006,273.01427,53.18078,271.239,58.01813Z"/><path fill="#3d3351" d="M390.34959 423.89493c7.5293 2.74557 15.47492 4.49766 21.81077 9.9533 10.47716 9.02148 13.077 15.02439 9.47192 25.03067-3.427 9.512-12.74406 10.82235-21.64224 12.42932-14.72006 2.65833-27.9745-1.857-41.181-7.18-3.34178-1.34693-6.71393-2.54073-10.37426-1.96485-18.63934 2.93229-28.81537-12.70608-28.4568-28.27012.0438-1.9011.22706-3.799.34571-5.69837 1.64053-1.97333 3.83669-1.534 5.92517-1.26808a41.99447 41.99447 0 0 0 13.43093-.48878 21.31134 21.31134 0 0 1 10.52012.71054c8.4456 2.60968 16.72534 2.07186 25.06418-.908C380.0592 424.52707 384.95892 422.29308 390.34959 423.89493zM224.36965 439.40953c-3.50194 8.47071-3.926 17.63542-5.9351 26.44331-3.6231 15.88367-14.84412 25.92325-30.73735 27.33746-6.10019.5428-11.55634-1.176-15.55962-5.64605-10.11264-11.29173-16.81482-24.02669-12.3397-39.71988 3.59451-12.60511 7.98323-25.00993 18.63016-33.84174 3.75962-.11572 3.5245 3.26653 4.33442 5.36574 2.36475 6.12939 6.7852 9.56655 13.03029 10.81092 2.82919.56372 5.53569 1.08723 7.56327 3.43887 4.17942 4.84739 9.3223 5.98865 15.42581 4.13549C220.68913 437.15454 223.54315 435.49008 224.36965 439.40953z"/><path fill="#ece4f6" d="M224.36965,439.40953c-2.16424-3.29348-4.26751-.06348-6.09477.38421-3.88472.95183-8.36354,1.90019-10.95167-.70677-5.20863-5.24652-11.67761-6.83105-18.1773-9.13068-7.15314-2.53083-7.14916-10.61177-10.71787-15.97366-1.57209-6.95-2.94994-13.86,1.00714-20.58683.52187-.88715.27674-2.32862.14024-3.48423-1.6348-13.84095,5.62594-21.86462,20.12227-22.18128,2.29152,1.94481,1.87664,4.76627,2.29174,7.28618,1.64635,9.99412,6.46872,18.38979,13.14354,25.76163,7.94181,8.77118,17.99591,11.03169,29.32525,8.92155,5.04261-.93922,9.949-1.04129,14.12537,2.66515-.10283,14.8661-10.89315,25.50912-25.9906,25.61617C229.76715,438.00105,226.89189,437.67039,224.36965,439.40953Z"/><path fill="#d64142" d="M332.81864 318.73549c1.20045 7.4544-.7605 10.36962-7.488 11.76537-37.15907 7.70951-72.32672.672-106.49784-14.14042-6.49256-2.81447-11.65757-7.371-16.8813-11.90883a8.744 8.744 0 0 1-3.2631-8.25865q2.71316-1.96664 5.4264-3.93346c1.57488-2.565 3.75277-1.2186 5.6815-.75888a24.72 24.72 0 0 1 6.6141 2.55914c16.63337 9.6303 35.324 11.78874 53.73992 14.95894 4.5577 1.35843 9.20288.83829 13.83093.63227 8.84228-1.368 17.78014-2.06866 26.55566-3.87873C319.18174 307.98507 326.36165 312.73975 332.81864 318.73549zM258.58359 412.3648a41.61918 41.61918 0 0 0-16.94152-.18878c-11.649 2.46828-20.95541-2.30211-28.59422-10.83083-8.55492-9.55133-13.76857-20.47684-13.35016-33.6149q.09453-1.33889.18908-2.67784c7.60914 2.28 13.96131 7.153 21.34195 10.06923 21.67052 8.5625 44.08561 11.91758 67.22026 11.5122 2.51658-.0441 5.2348-1.20181 7.39228 1.14432.7059 7.43738-3.97187 11.84976-9.24906 15.58945C278.25808 409.27366 268.44016 410.97522 258.58359 412.3648z"/><path fill="#ece4f6" d="M390.34959 423.89493c-7.02849 2.15337-13.97544 4.64724-21.11046 6.35549-6.0184 1.44077-12.22479 1.65383-18.23545-.71636-2.86325-1.129-5.80135-2.42977-8.96809-1.46574-7.24213 2.20485-14.4643 1.90687-21.7119.12656-12.41239-12.25454-11.93175-26.21816 5.71929-37.722 2.93635-.36522 4.02222 2.14969 5.71744 3.69524 10.96812 9.99994 24.00788 12.48856 38.04676 9.6016 8.8267-1.8151 13.6292-9.11856 18.43057-16.05177 1.41268-2.04 1.5273-5.23169 4.80556-5.71687 9.68236 7.16263 10.592 10.03109 6.36206 21.01168-1.39212 3.61377-1.36863 7.47364-2.284 11.12833A17.48152 17.48152 0 0 1 390.34959 423.89493zM168.14974 273.07228c-3.84674-4.2723-5.2528-9.82117-7.82045-14.66139-4.98676-9.40052-11.13317-17.993-13.62457-28.73089-.91966-3.96378-6.52174-4.254-10.41844-5.19149-4.43074-1.066-7.51491-3.03623-6.96055-8.21494.68188-4.71032 3.13268-7.84167 7.873-9.07992 1.1098-.28989 2.52694-.75071 3.084-1.60276 6.20869-9.49633 15.03047-7.44453 23.66755-5.2389a36.32 36.32 0 0 0 9.87092 1.03442c-4.20635 4.88031-3.06041 9.09307 1.77559 12.61746 3.99766 2.91343 4.62965 6.90547 5.59512 11.53289 2.33057 11.17051 4.05873 22.1857 1.56644 33.48-.75316 3.41309.50763 5.98961 2.68123 8.36745C180.35176 271.33358 174.995 274.46523 168.14974 273.07228zM317.53246 57.73218c6.42627.26556 12.78977.13773 18.8454-2.49113 5.512-2.39283 10.37623-1.58521 13.8452 3.57046a14.733 14.733 0 0 0 8.5092 6.08731c3.32245.965 5.78631 3.20519 5.842 6.47442.07858 4.6048 2.96108 4.03034 5.7766 4.1267-7.09832 2.91335-7.09832 2.91337-1.3905 7.84377 5.48867 4.74113 5.85906 11.72705.91218 17.52165-2.09793 2.45743-5.23676 4.19377-5.45726 7.94009C350.8909 88.2571 336.09869 83.379 307.48168 90.03039c-5.80914-11.47783-1.37151-20.40839 6.9917-28.41948A34.36022 34.36022 0 0 0 317.53246 57.73218z"/><path fill="#d64142" d="M393.04331,382.00108c-14.85546,30.37182-43.87909,34.04164-67.00033,8.47176a1.33919,1.33919,0,0,0-.33211-1.21984c.127-4.43185,3.69826-3.09337,5.7909-2.96978,23.62835,1.39527,42.31595-7.64724,57.2944-25.73814,2.80624-3.38934,6.64634-5.77169,7.80028-10.46294.19688-.80032,1.4962.44366,2.25045.84065C398.24285,361.53068,395.5798,371.75409,393.04331,382.00108Z"/><path fill="#3d3351" d="M311.7031,307.35857c-8.83138,2.87091-18.23838,2.15958-27.17642,4.36684-4.71067-1.60527-9.68091.22339-14.41368-1.08946-19.60586-2.44233-39.00722-5.6092-56.49861-15.68491a19.37824,19.37824,0,0,0-9.49983-2.693,9.9318,9.9318,0,0,1,1.52013-7.59226c17.134,7.33986,34.432,13.89284,53.58879,13.12976,4.571-.18218,9.31466-.13825,13.35152-1.9827,10.774-4.92268,21.30727-3.26846,31.99216-.18309a28.54648,28.54648,0,0,0,4.23878.57916C312.77921,299.144,313.59966,302.89828,311.7031,307.35857Z"/><path fill="#ece4f6" d="M162.76524,150.66964c6.3722,6.56792,10.52045,5.29208,13.86682-4.266,1.90752,6.58979,7.50257,11.027,9.88632,17.5513,1.73059,4.7366,2.81959,8.35657-.8783,12.30254-1.82662,1.94912-2.464,4.45878-3.19883,7.03455a9.383,9.383,0,0,1-15.38221,4.67266c-4.14167-3.50073-7.56583-7.851-11.05615-11.89457-4.036-4.67574-3.147-10.85835,1.137-15.69964C159.71141,157.46446,162.227,154.68447,162.76524,150.66964Z"/><path fill="#d64142" d="M396.03086,288.95779c2.29489,5.85482-4.7319,7.69349-5.30007,12.27563-.70473,5.68284-4.33631,6.95591-9.42739,7.45129-3.24085.31535-4.12945,4.24019-5.64272,6.79282-1.81347,3.05912-3.7893,5.65908-7.705,5.00664-3.92812-.6545-6.255-3.11324-6.55473-7.233-.97151-1.58164-1.18361-3.45378.08273-4.672,4.59465-4.42009,6.09483-10.73148,9.87516-15.62393,4.69864-2.03,9.16182-4.63507,14.14563-5.98091,2.65824-.7178,5.37217-1.92512,7.96631.22711Z"/><path fill="#3d3351" d="M393.47079,287.20137c-5.69058.32174-10.808,2.43586-15.79346,4.9996-1.73748.8935-3.21194,2.98828-5.58611,1.40476-3.11-3.44635-5.24669-7.28894-4.93742-12.12736,9.65829,1.899,16.95729-4.76947,25.47323-7.01607C396.04048,278.50023,395.27875,282.81611,393.47079,287.20137Z"/><path fill="#fbb641" d="M367.1538,281.47837c1.93588,3.92033,4.54451,7.56675,4.93567,12.12207-1.86037,7.48038-7.74354,12.76877-10.68685,19.65377-2.603-1.09944-4.987-.4368-7.43922.67409-6.70745,3.03851-14.19427,2.76245-21.144,4.8099q-10.55988-5.691-21.11725-11.3781-1.44826-5.57836-2.89733-11.15244c.55711-.41663,1.582-.815,1.60024-1.25514.4081-9.84908,8.9257-13.99574,14.2266-20.38924,7.82361-5.68306,16.21451-9.20956,26.14642-6.878C355.14023,273.58468,361.31442,277.33277,367.1538,281.47837Z"/><path fill="#ece4f6" d="M350.77811,267.68524c-9.23138.33149-17.44808,4.52066-26.14659,6.87773-1.06264-10.85835-1.59451-21.8634-8.129-31.28724-1.12354-1.62023-2.374-2.89449.10259-4.5327,5.73385-3.79271,8.16831-9.75284,10.04653-16.01619.63044-2.10218,1.203-4.18279,4.15763-3.87461,2.98729.31158,2.00436,2.68427,2.41828,4.35336.34295,1.383.29443,3.174,1.15963,4.06729,6.949,7.1741,6.85642,17.4903,11.62769,25.54993C348.78688,257.50523,347.87675,263.16851,350.77811,267.68524Z"/><path fill="#f5c092" d="M235.45029,96.8742c3.78615-3.3295,8.30122-4.42554,13.21115-4.31183,3.65851,1.7986,7.31661,2.69774,10.973-.00521,4.51575-.06755,9.08421.25865,13.52937-.3363,3.14252-.42057,3.97779.81234,4.94718,3.30464,3.37462,8.67593,3.519,8.77827-5.3627,12.152-6.14932,2.3358-11.64642,4.4852-8.70017,13.07474,1.06835,3.11472-1.94746,5.13723-4.64293,6.34317-7.5,3.35552-15.17784,4.28766-22.56961-.00278-4.17815-2.42509-8.37093-2.70317-12.12635-.3531-5.33654,3.33951-8.18119-.76715-10.94038-3.39-3.01533-2.86642,1.17608-5.00192,2.39738-7.16147a46.41,46.41,0,0,1,9.51247-12.27266c1.85532-1.22829,3.63839-2.56538,5.554-3.70335C232.99868,99.55512,234.78114,98.92116,235.45029,96.8742Z"/><path fill="#d65f6f" d="M268.79158,151.37755a13.36745,13.36745,0,0,1-12.90617-.2604c-2.299-1.19082-3.86588-3.00167-3.74437-5.59035a5.26326,5.26326,0,0,1,5.0409-5.18866c4.77244-.13088,7.80857-2.788,11.11989-5.5497,2.52607-2.1068,4.93025-6.44829,8.94611-3.37963,3.84867,2.9409,3.91917,7.24534,1.55517,11.46807-2.82772-.776-4.99585-4.86459-8.61024-1.694C266.77251,144.18331,267.51153,147.73947,268.79158,151.37755Z"/><path fill="#d13c50" d="M268.79158,151.37755c-4.67051-1.08722-3.13907-4.68713-2.71809-7.45772.51032-3.35852,3.33748-5.52995,6.19141-6.27587,3.70165-.9675,5.13656,2.46524,6.53813,5.23283C277.65112,148.284,273.60225,150.27937,268.79158,151.37755Z"/><path fill="#5e4c3c" d="M259.63442,92.55714c.43726,1.24595,1.713,3.7001.77267,3.60717a79.01352,79.01352,0,0,0-12.72494-.557c-.54771.0338.67366-1.96095.9791-3.04486A17.66738,17.66738,0,0,1,259.63442,92.55714Z"/><path fill="#3e352c" d="M235.45029,96.8742c3.23681,4.927-.74738,4.29741-3.53249,4.59049-1.70981.53786-2.25559-.2231-2.04272-1.83065A9.20494,9.20494,0,0,1,235.45029,96.8742Z"/><path fill="#52473c" d="M229.87508,99.634q1.02083.91477,2.04215,1.8301c-1.96653,1.1044-3.7639,2.64052-6.23881,2.45071C226.30529,101.73136,227.95155,100.54682,229.87508,99.634Z"/><path fill="#3d3351" d="M270.113 310.636c4.81071.28517 9.7946-1.71989 14.414 1.08986C279.72 311.38963 274.76564 313.009 270.113 310.636zM341.17827 282.877c3.75058.63306 7.59737.93222 11.22869 1.97894 5.19476 1.49738 8.72152 5.01141 9.3226 10.587.60708 5.63065-2.93351 8.81-7.54509 10.91965-5.772 2.64052-11.946 3.04967-18.19458 2.7684-2.00042-.09008-4.25524-.70787-5.01229-2.32067-2.60162-5.54231-4.19613-12.02743-2.95718-17.56165C329.2298 283.84642 335.49468 282.62444 341.17827 282.877z"/><path fill="#0a0806" d="M253.02485,109.0257c-2.70236-.30134-4.67714-1.50018-4.41081-4.43857.25823-2.84931,2.37122-3.88664,5.021-3.80013,2.47672.08087,4.00158,1.30856,3.96144,3.939C257.551,107.70772,255.58706,108.71617,253.02485,109.0257Z"/><path fill="#110d0a" d="M238.50628,111.4494c-.21658,2.39491-1.44226,4.00372-4.00473,4.02308-2.58342.01951-3.97335-1.58383-3.96644-4.07551a3.50205,3.50205,0,0,1,3.57156-3.71458C236.63838,107.51778,238.1119,108.83839,238.50628,111.4494Z"/><path fill="#d64142" d="M168.14974 273.07228a10.36906 10.36906 0 0 1-2.34621 1.57753c-9.52832 3.12-13.6963 10.88587-18.60181 18.96126-10.33 17.00524-39.02688 13.787-48.77262-5.44292-7.99619-15.7778-5.6873-31.51863 4.10116-46.01705 2.46073-3.64471 4.20409-5.24363-1.91084-6.7894-9.576-2.42072-13.63235-10.0713-10.99561-18.44208 2.29618-7.28963 13.44149-13.46251 20.8228-11.41227a27.09561 27.09561 0 0 1 12.21075 7.13555c1.90587 1.93746 3.81177 3.57694 6.6683 3.63062a20.735 20.735 0 0 0 11.48739 7.88971c6.64036 1.98861 10.32176 6.57451 10.6506 13.6583.13526 2.91374.46248 6.19572 2.76429 7.92948 8.72341 6.57065 8.23221 18.00864 14.18546 25.97785C168.646 272.04027 168.37313 272.62625 168.14974 273.07228zM317.53246 57.73218c1.54292-5.821.87845-11.21148-2.76635-16.20259a15.72212 15.72212 0 0 1-1.75988-4.64063c-1.94778-6.27851-1.21825-12.0679 4.63359-15.77941 5.94429-3.77022 12.68771-3.10082 16.93362 2.0682 7.55595 9.19875 15.79128 6.59848 24.16762 2.852 6.56553-2.93654 13.12966-5.60528 20.28166-6.42595 15.98824-1.83458 29.55134 10.79338 25.39392 24.15142-4.69041 15.07054-13.61069 26.618-29.93694 30.613-1.38569.33908-2.75313.75269-4.129 1.13169-3.69016 1.22139-6.51789.64862-7.787-3.54808-.89447-2.9581-3.10711-4.69355-5.85775-5.855-.87653-.37006-1.98992-.628-2.50424-1.324-7.26474-9.83036-16.65691-8.60653-26.72777-5.68894C324.33262 59.99409 320.4129 61.21917 317.53246 57.73218z"/><path fill="#fff" d="M170.19312 454.96582c.13153 1.27246.28662 2.53516.51562 3.78613.19934 1.25342.4422 2.498.74548 3.72608a39.31662 39.31662 0 0 0 2.39942 7.14453 22.704 22.704 0 0 0 4.07916 6.23535 16.87337 16.87337 0 0 0 6.26032 4.10791 15.17271 15.17271 0 0 1-3.63233-1.2915 17.05319 17.05319 0 0 1-3.1676-2.26807 19.953 19.953 0 0 1-4.44861-6.36865 30.54438 30.54438 0 0 1-2.24011-7.4043A33.54467 33.54467 0 0 1 170.19312 454.96582zM106.19312 261.96582c.13153 1.27246.28662 2.53516.51562 3.78613.19934 1.25342.4422 2.498.74548 3.72608a39.31662 39.31662 0 0 0 2.39942 7.14453 22.704 22.704 0 0 0 4.07916 6.23535 16.87337 16.87337 0 0 0 6.26032 4.10791 15.17271 15.17271 0 0 1-3.63233-1.2915 17.05319 17.05319 0 0 1-3.1676-2.26807 19.953 19.953 0 0 1-4.44861-6.36865 30.54438 30.54438 0 0 1-2.24011-7.4043A33.54467 33.54467 0 0 1 106.19312 261.96582zM172.78363 84.37549c-.71082 1.06347-1.3974 2.13428-2.01953 3.24365-.64673 1.0918-1.2544 2.20508-1.80463 3.34375a39.304 39.304 0 0 0-2.71356 7.03174 22.70372 22.70372 0 0 0-.84021 7.40381 16.87905 16.87905 0 0 0 2.19684 7.1582 15.17941 15.17941 0 0 1-1.97144-3.31348 17.02933 17.02933 0 0 1-.99072-3.76757 19.95559 19.95559 0 0 1 .64075-7.7417A30.55219 30.55219 0 0 1 168.283 90.604 33.54743 33.54743 0 0 1 172.78363 84.37549zM385.44666 57.9834c.86724-.93994 1.71179-1.8916 2.49853-2.89063.80841-.97851 1.58154-1.98388 2.30182-3.02343a39.28331 39.28331 0 0 0 3.77216-6.52491 22.70306 22.70306 0 0 0 1.97937-7.18359 16.87623 16.87623 0 0 0-1.059-7.41211 15.16522 15.16522 0 0 1 1.43323 3.57861 17.03647 17.03647 0 0 1 .39386 3.876 19.95884 19.95884 0 0 1-1.83478 7.54883 30.5414 30.5414 0 0 1-4.0722 6.57666A33.54667 33.54667 0 0 1 385.44666 57.9834zM375.96619 454.7793c1.10638.6416 2.219 1.2583 3.36548 1.80859 1.13116.57568 2.28088 1.11133 3.45233 1.5874a39.3033 39.3033 0 0 0 7.19012 2.25977 22.6944 22.6944 0 0 0 7.44232.3667 16.87683 16.87683 0 0 0 7.00354-2.64893 15.16149 15.16149 0 0 1-3.18054 2.17871 17.05406 17.05406 0 0 1-3.69684 1.229 19.95282 19.95282 0 0 1-7.76709-.146 30.55477 30.55477 0 0 1-7.30639-2.541A33.55772 33.55772 0 0 1 375.96619 454.7793zM333.40192 287.36328a47.013 47.013 0 0 0 .45617 4.83447 25.72778 25.72778 0 0 0 1.08087 4.64746 15.93532 15.93532 0 0 0 2.1139 4.19434 12.72134 12.72134 0 0 0 3.59271 3.11377 9.38179 9.38179 0 0 1-4.19458-2.61719 13.1411 13.1411 0 0 1-2.45886-4.37109 18.38268 18.38268 0 0 1-.90741-4.88867A19.08183 19.08183 0 0 1 333.40192 287.36328z"/><circle cx="235.193" cy="111.966" r="1.5" fill="#fff"/><circle cx="253.693" cy="105.466" r="1.5" fill="#fff"/></svg>