<svg xmlns="http://www.w3.org/2000/svg" enable-background="new 0 0 512 512" viewBox="0 0 512 512"><path fill="#d64142" stroke="#fff" stroke-linecap="round" stroke-linejoin="round" stroke-width="40" d="M198.1 393.7c-.8.6-1.6 1.1-2.6 1.3-1.3.4-2.5.5-3.9.5-1.6 0-3.3-.2-4.8-.8-1.2-.4-2.1-1.1-2.7-2.2-.7-1.7-1.3-3.4-1.7-5.1-.7-2.3-1.3-4.9-1.9-7.7-.6-2.8-1.2-5.6-1.8-8.5-.6-2.9-1-5.4-1.3-7.6 1.6-1.5 3.8-2.4 6-2.4 1.4-.1 2.7.3 3.9 1 1.1.9 1.8 2.2 1.9 3.6.4 3.4.8 6.2 1.1 8.5.3 2.2.6 4.1.8 5.5.2 1.4.4 2.5.5 3.2.1.7.2 1.3.3 1.8h.3c.1-.7.4-1.8.7-3.1.3-1.4.7-2.9 1.2-4.7.4-1.8.9-3.7 1.4-5.7.5-2 1-4.1 1.5-6.1.8-.5 1.7-.9 2.7-1.1 1.1-.3 2.2-.4 3.3-.4 1.4 0 2.8.2 4.1.7 1 .4 1.8 1.2 2.2 2.3.5 2 1.1 3.9 1.6 5.8.5 1.9.9 3.6 1.4 5.2.4 1.6.8 3 1.1 4.3.3 1.2.5 2.2.7 2.9h.3c.5-3.5 1-7.1 1.5-10.8.5-3.7.9-7.5 1.3-11.4.8-.5 1.7-.9 2.6-1.1.9-.2 1.8-.3 2.7-.3 1.4-.1 2.7.3 3.9 1 1.1.8 1.7 2.1 1.6 3.5 0 1.1-.1 2.2-.3 3.2-.2 1.4-.5 3.1-.9 4.9-.4 1.8-.8 3.7-1.2 5.7-.5 2-.9 3.9-1.4 5.7-.5 1.8-.9 3.5-1.4 5-.4 1.5-.8 2.6-1.1 3.4-.9.6-1.9 1.1-2.9 1.3-1.4.3-2.8.5-4.2.5-3.8 0-6-.9-6.7-2.8-.3-.8-.6-1.8-1-3.1-.4-1.2-.8-2.6-1.3-4.1-.5-1.5-.9-3-1.3-4.6-.4-1.6-.7-3.1-1-4.6-.3 1.6-.7 3.2-1.1 4.9-.5 1.7-.9 3.3-1.4 4.9-.5 1.6-.9 3.1-1.3 4.4C198.6 391.8 198.3 392.9 198.1 393.7zM246.3 360.8c2.2 0 4.5.2 6.7.7 1.8.4 3.6 1.2 5.1 2.3 1.4 1 2.5 2.3 3.3 3.8.8 1.7 1.2 3.6 1.1 5.5v15.1c0 1-.3 2.1-1 2.9-.7.8-1.5 1.4-2.3 1.9-2.9 1.8-7 2.6-12.4 2.6-2.2 0-4.3-.2-6.4-.7-1.7-.4-3.4-1.1-4.9-2-1.3-.9-2.4-2-3.2-3.4-.8-1.5-1.2-3.2-1.1-4.9 0-3.1.9-5.5 2.8-7.2 1.8-1.7 4.7-2.7 8.6-3.1l8.8-.9v-.5c.1-1.2-.6-2.3-1.7-2.8-1.6-.6-3.3-.9-5-.8-1.7 0-3.4.2-5 .5-1.5.3-3 .8-4.4 1.4-.6-.5-1.2-1.1-1.5-1.9-.4-.8-.6-1.7-.6-2.6-.1-1 .2-2 .8-2.8.7-.8 1.6-1.4 2.6-1.8 1.5-.5 3-.9 4.6-1.1C242.9 361 244.6 360.8 246.3 360.8zM246.8 387.4c.8 0 1.7-.1 2.5-.2.7-.1 1.4-.3 2.1-.6v-5.4l-4.9.4c-1.1 0-2.1.3-3.1.8-.8.4-1.2 1.2-1.2 2 0 .9.4 1.7 1 2.2C244.4 387.2 245.6 387.5 246.8 387.4L246.8 387.4zM281 394.6c-.7.2-1.4.3-2.1.4-1 .1-2 .2-3 .2-.9 0-1.8-.1-2.7-.2-.7-.1-1.4-.4-2-.8-.6-.4-1-1-1.2-1.7-.3-.9-.5-1.8-.4-2.7v-20.3c0-.9.2-1.8.6-2.7.4-.8 1-1.5 1.7-2 .8-.6 1.7-1.2 2.7-1.6 1.1-.5 2.2-.9 3.4-1.2 1.2-.4 2.5-.6 3.8-.8 1.3-.2 2.6-.3 3.9-.3 1.8-.1 3.6.3 5.1 1.2 1.3.9 2 2.5 1.9 4.1 0 .6-.1 1.3-.3 1.9-.2.6-.4 1.1-.7 1.7-.9 0-1.9 0-2.9.1-1 .1-2 .2-2.9.4-.9.2-1.8.4-2.7.6-.7.2-1.4.4-2.1.7L281 394.6zM312.4 360.8c1.8 0 3.7.3 5.4.8 1.7.5 3.3 1.3 4.6 2.3 1.4-.9 3-1.7 4.6-2.2 2-.6 4-.9 6.1-.9 1.7 0 3.4.2 5 .7 1.6.4 3.1 1.1 4.4 2.1 1.3 1 2.4 2.3 3.1 3.9.8 1.8 1.2 3.8 1.1 5.8v21.3c-.7.2-1.4.3-2.1.4-1 .1-2 .2-3 .2-.9 0-1.8-.1-2.7-.2-.7-.1-1.4-.4-2-.8-.6-.4-1-1-1.2-1.7-.3-.9-.5-1.8-.4-2.7v-16.1c.1-1.1-.3-2.2-1.1-2.9-.9-.6-2-1-3.1-.9-.7 0-1.4.2-2 .4-.6.2-1.1.5-1.6.9 0 .2.1.3.1.5v22.9c-.7.2-1.5.3-2.2.4-1 .1-2 .2-2.9.2-.9 0-1.8-.1-2.7-.2-.7-.1-1.4-.4-2-.8-.6-.4-1-1-1.2-1.7-.3-.9-.5-1.8-.4-2.7v-16.1c.1-1.1-.4-2.2-1.2-2.9-.9-.6-1.9-.9-3-.9-.7 0-1.4.1-2.1.4-.5.2-1 .4-1.5.7v23.7c-.7.2-1.4.3-2.1.4-1 .1-2 .2-3 .2-.9 0-1.8-.1-2.7-.2-.7-.1-1.4-.4-2-.8-.6-.4-1-1-1.2-1.7-.3-.9-.5-1.8-.4-2.7v-20.4c-.1-1 .2-2 .8-2.9.6-.8 1.3-1.5 2.1-2 1.7-1.2 3.7-2.1 5.7-2.6C307.5 361.2 309.9 360.8 312.4 360.8zM170.5 457.3c-.8.6-1.6 1.1-2.6 1.3-1.3.4-2.5.5-3.9.5-1.6 0-3.3-.2-4.8-.8-1.2-.4-2.1-1.1-2.7-2.2-.7-1.7-1.3-3.4-1.7-5.1-.7-2.3-1.3-4.9-1.9-7.7-.6-2.8-1.2-5.6-1.8-8.5-.6-2.9-1-5.4-1.3-7.6 1.6-1.5 3.8-2.4 6-2.4 1.4-.1 2.7.3 3.9 1 1.1.9 1.8 2.2 1.9 3.6.4 3.4.8 6.2 1.1 8.5.3 2.2.6 4.1.8 5.5.2 1.4.4 2.5.5 3.2.1.7.2 1.3.3 1.8h.3c.1-.7.4-1.8.7-3.1.3-1.4.7-2.9 1.2-4.7.4-1.8.9-3.7 1.4-5.7.5-2 1-4.1 1.5-6.1.8-.5 1.7-.9 2.7-1.1 1.1-.3 2.2-.4 3.3-.4 1.4 0 2.8.2 4.1.7 1 .4 1.8 1.2 2.2 2.3.5 2 1.1 3.9 1.6 5.8.5 1.9.9 3.6 1.4 5.2.4 1.6.8 3 1.1 4.3.3 1.2.5 2.2.7 2.9h.3c.5-3.5 1-7.1 1.5-10.8.5-3.7.9-7.5 1.3-11.4.8-.5 1.7-.9 2.6-1.1.9-.2 1.8-.3 2.7-.3 1.4-.1 2.7.3 3.9 1 1.1.8 1.7 2.1 1.6 3.5 0 1.1-.1 2.2-.3 3.2-.2 1.4-.5 3.1-.9 4.9-.4 1.8-.8 3.7-1.2 5.7-.5 2-.9 3.9-1.4 5.7-.5 1.8-.9 3.5-1.4 5-.4 1.5-.8 2.6-1.1 3.4-.9.6-1.9 1.1-2.9 1.3-1.4.3-2.8.5-4.2.5-3.8 0-6-.9-6.7-2.8-.3-.8-.6-1.8-1-3.1-.4-1.2-.8-2.6-1.3-4.1-.5-1.5-.9-3-1.3-4.6-.4-1.6-.7-3.1-1-4.6-.3 1.6-.7 3.2-1.1 4.9-.5 1.7-.9 3.3-1.4 4.9-.5 1.6-.9 3.1-1.3 4.4C171 455.5 170.7 456.5 170.5 457.3zM204.9 416.4c0-1.6.6-3.2 1.7-4.3 2.6-2.3 6.5-2.3 9.1 0 2.3 2.4 2.3 6.2 0 8.6-2.6 2.3-6.5 2.3-9.1 0C205.5 419.6 204.9 418 204.9 416.4zM216.9 458.3c-.5.1-1.2.2-2.2.4-1 .2-2 .2-2.9.2-.9 0-1.8-.1-2.7-.2-.7-.1-1.4-.4-2-.8-.6-.4-1-1-1.2-1.7-.3-.9-.5-1.8-.4-2.7V426c.5-.1 1.2-.2 2.2-.4 1-.2 2-.2 2.9-.2.9 0 1.8.1 2.7.2.7.1 1.4.4 2 .8.6.4 1 1 1.2 1.7.3.9.5 1.8.4 2.7L216.9 458.3zM251.9 448.6c.1 3.2-1.3 6.2-3.8 8-2.6 1.9-6.3 2.9-11.3 2.9-1.8 0-3.5-.1-5.3-.4-1.4-.2-2.8-.6-4.2-1.2-1.1-.5-2-1.2-2.7-2.1-.7-.9-1-1.9-1-3 0-1 .2-1.9.7-2.7.4-.7 1-1.3 1.6-1.9 1.4.8 2.9 1.4 4.5 1.9 1.9.6 3.9.9 5.8.8 1.1.1 2.2-.1 3.2-.6.7-.3 1.1-.9 1.1-1.6 0-.6-.3-1.2-.8-1.5-.8-.5-1.8-.8-2.7-.9l-2-.4c-3.9-.8-6.8-2-8.7-3.6-2-1.8-3-4.4-2.9-7.1-.1-3.2 1.5-6.1 4.1-7.9 1.4-1 3-1.7 4.7-2.1 2-.5 4-.8 6-.7 1.6 0 3.1.1 4.7.4 1.3.2 2.6.6 3.8 1.1 1 .4 1.9 1.1 2.6 1.9.6.8 1 1.8.9 2.8 0 .9-.2 1.8-.6 2.7-.4.7-.8 1.3-1.5 1.9-.5-.3-1.1-.5-1.6-.7-.7-.2-1.5-.5-2.4-.7-.9-.2-1.7-.4-2.6-.5-.8-.1-1.6-.2-2.4-.2-1.2-.1-2.3.1-3.4.5-.7.2-1.2.8-1.2 1.6 0 .5.3 1 .7 1.2.8.4 1.7.7 2.6.9l2.1.5c4.3 1 7.4 2.4 9.2 4.1C251 443.6 252 446 251.9 448.6zM289.9 458.3c-.7.2-1.4.3-2.1.4-1 .1-2 .2-3 .2-.9 0-1.8-.1-2.7-.2-.7-.1-1.4-.4-2-.8-.6-.4-1-1-1.2-1.7-.3-.9-.5-1.8-.4-2.7v-15c0-1.8-.5-3.1-1.4-3.9-1-.8-2.2-1.2-3.4-1.1-.9 0-1.7.1-2.6.3-.7.2-1.3.4-2 .8v23.6c-.7.2-1.4.3-2.1.4-1 .1-2 .2-3 .2-.9 0-1.8-.1-2.7-.2-.7-.1-1.4-.4-2-.8-.6-.4-1-1-1.2-1.7-.3-.9-.5-1.8-.4-2.7v-39.2c.5-.1 1.2-.2 2.2-.4 1-.2 2-.2 2.9-.2.9 0 1.8.1 2.7.2.7.1 1.4.4 2 .8.6.4 1 1 1.2 1.7.3.9.5 1.8.4 2.7v6.6c.9-.3 1.8-.6 2.7-.8 1.3-.3 2.6-.5 4-.4 4.5 0 7.9 1.1 10.4 3.3 2.5 2.2 3.7 5.5 3.7 10V458.3zM314.3 459.4c-2.5 0-5-.4-7.4-1.1-2.2-.7-4.2-1.8-5.9-3.3-1.7-1.5-3.1-3.5-4-5.6-1-2.5-1.5-5.2-1.5-7.9-.1-2.6.4-5.2 1.5-7.7 1.7-4 5.1-7 9.2-8.3 2-.6 4.1-1 6.2-1 2.2 0 4.4.3 6.5 1.1 1.9.7 3.6 1.7 5.1 3 1.4 1.3 2.5 2.8 3.3 4.5.8 1.8 1.2 3.8 1.2 5.7.1 1.3-.4 2.6-1.3 3.5-1 .9-2.3 1.4-3.6 1.6l-16.7 2.5c.5 1.5 1.6 2.7 3 3.3 1.6.8 3.5 1.1 5.3 1.1 1.8 0 3.5-.2 5.2-.7 1.4-.4 2.8-.9 4-1.7.7.5 1.4 1.1 1.8 1.9 1.4 2.3.7 5.4-1.6 6.8-.2.1-.3.2-.5.3-1.5.8-3.2 1.3-4.9 1.6C317.7 459.3 316 459.4 314.3 459.4zM312.4 432.9c-1 0-1.9.2-2.8.5-.7.3-1.4.8-1.9 1.4-.5.6-.9 1.2-1.1 1.9-.2.7-.4 1.4-.4 2.1l11.5-1.9c-.2-1-.7-2-1.5-2.7C315.2 433.3 313.8 432.8 312.4 432.9zM361.7 448.6c.1 3.2-1.3 6.2-3.8 8-2.6 1.9-6.3 2.9-11.3 2.9-1.8 0-3.5-.1-5.3-.4-1.4-.2-2.8-.6-4.2-1.2-1.1-.5-2-1.2-2.7-2.1-.7-.9-1-1.9-1-3 0-1 .2-1.9.7-2.7.4-.7 1-1.3 1.6-1.9 1.4.8 2.9 1.4 4.5 1.9 1.9.6 3.9.9 5.8.8 1.1.1 2.2-.1 3.2-.6.7-.3 1.1-.9 1.1-1.6 0-.6-.3-1.2-.8-1.5-.8-.5-1.8-.8-2.7-.9l-2-.4c-3.9-.8-6.8-2-8.7-3.6-2-1.8-3-4.4-2.9-7.1-.1-3.2 1.5-6.1 4.1-7.9 1.4-1 3-1.7 4.7-2.1 2-.5 4-.8 6-.7 1.6 0 3.1.1 4.7.4 1.3.2 2.6.6 3.8 1.1 1 .4 1.9 1.1 2.6 1.9.6.8 1 1.8.9 2.8 0 .9-.2 1.8-.6 2.7-.4.7-.8 1.3-1.5 1.9-.5-.3-1.1-.5-1.6-.7-.7-.2-1.5-.5-2.4-.7-.9-.2-1.7-.4-2.6-.5-.8-.1-1.6-.2-2.4-.2-1.2-.1-2.3.1-3.4.5-.7.2-1.2.8-1.2 1.6 0 .5.3 1 .7 1.2.8.4 1.7.7 2.6.9l2.1.5c4.3 1 7.4 2.4 9.2 4.1C360.8 443.6 361.8 446 361.7 448.6z"/><path fill="#ea6f4a" d="M443,237.5c-2.6-4-8.2-4-9.1-4c-7.1,0-12.8,5.9-14.7,7.9c-2.5,2.6-5.1,5-7.6,7.6c-2.1,2.7-5.8,3.7-9,2.4
	c-1.5-0.5-1.9-1-3.8-2.2c-2.4-1.5-4.2-2.7-6.4-3.1c-0.8-0.2-4.2-0.8-6.9,1c-2.5,1.7-3.1,4.8-3.6,7.4c-0.9,4.5,0.4,5.7-1,8.3
	c-1.2,2.3-3.9,4.5-6.1,4c-1.7-0.4-1.7-2-4.4-4.4c-1.8-1.7-3.6-3.3-5.4-3.3l0,0c-0.1,0-0.2,0-0.3,0c-0.2,0-0.4,0.1-0.6,0.1
	c-0.1,0-0.1,0-0.2,0.1c-0.1,0.1-0.2,0.1-0.3,0.2c-0.1,0-0.1,0.1-0.2,0.1c-0.1,0.1-0.2,0.2-0.3,0.3c0,0-0.1,0.1-0.1,0.1
	c-0.3,0.3-0.6,0.7-0.8,1.1l0,0c-1.1,1.8-2.1,4.5-4.2,7.4v0c-1,1.3-2.1,2.6-3.3,3.7c-1.9,1.6-3.2,2.3-4.3,1.9
	c-0.6-0.2-1.1-0.6-1.4-1.2c-0.3-0.5-0.6-1.1-0.9-1.8c10.3-5.9,17.2-16.6,17.2-28.8c0-1.1-0.1-2.1-0.2-3.1c0.8,0,1.6,0,2.5,0.1
	c0.2,0,0.5,0,0.7,0.1c0.2,0,0.5,0,0.8,0.1l0,0l0,0c3.6,0.3,8.2,0.6,12.8-2c0.3-0.2,5.9-3.5,5.4-7c-0.3-2-2.5-2.2-3.1-4.6
	c-0.8-3.2,1.9-6.4,2.3-7c2.3-2.8,4-1.9,7.7-4.6c1.1-0.8,6.5-4.7,6.2-9.3c-0.2-2.7-2.1-2.7-3.1-6.2c-1.5-5.1,1.1-10.1,1.5-10.8
	c2.1-4,4.6-4.3,4.6-7c0-2.3-1.8-2.7-3.1-6.2c-0.9-2.5-1.2-5.1-0.8-7.7c0.7-4,2.8-4.4,5.4-10.8c1-2.4,1.5-3.7,1.5-5.4
	c0.1-2.3-0.7-3.2-3.1-8.5c-1.7-3.9-4.2-7.5-5.4-11.6c-0.2-0.6-0.5-1.9-1.5-2.3c-0.3-0.1-1.3-0.4-3.9,1.5c-1.5,1.1-2.8,2.4-3.9,3.9
	c-2.7,3.4-4,5.1-6.2,6.2c-3.1,1.6-8.3,2.2-11.6,0c-1-0.6-1.7-1.5-3.1-1.5c-1.6-0.1-3.2,0.8-3.9,2.3c-0.4,1-0.4,2.1,0,3.1
	c0.9,3.7,0.2,9.2-2.3,11.6c-1.9,1.8-5.1,2-9.3,2.3c-2.7,0.2-3.7-0.1-4.6,0.8c-1.3,1.2-0.7,3-0.8,7.7c-0.1,5-0.1,7.5-1.5,8.5
	c-1.6,1.1-3.2-0.8-7.7-0.8c-1.9,0-5.7,0-7.7,2.3c-1.5,1.7-0.6,2.9-2.3,7.7c-1.1,3.2-1.7,4.8-3.1,5.4c-1.5,0.7-3.3,0.2-7-0.8
	c-2.3-0.6-2.4-0.9-3.1-0.8c-0.6,0.1-3.4,0.7-5.4,10.1c0,0.1,0,0.2-0.1,0.3v-25.7c0.8,0.7,1.7,1.2,2.7,1.5c1.6,0.4,3.3,0.1,4.6-0.8
	c2.1-1.4,2.4-4.5,2.3-7.7c-0.1-7.3-0.2-14.9-5.4-23.2c-2.2-3.6-5.1-6.8-8.4-9.5c-0.1-0.8-0.3-1.6-0.7-2.4c-3-6.4-19.8-11-42.7-9
	c-19.6,1.7-35.6,7.3-39.5,13.3c-2.4-0.8-4.3-1.3-6.1-0.2c-2,1.2-2.9,6-4.6,15.5c-0.1,0.8-0.6,4.1-1.5,10.8c-0.8,5.7-1.2,8.6,0,11.6
	c0.5,1.2,1.7,4.3,3.9,4.6c1,0.1,1.9-0.2,2.7-0.8v42.9c-0.4-1.9-0.8-3.8-1.2-5.7c-2-9.4-4.8-10-5.4-10.1c-0.7-0.1-0.8,0.2-3.1,0.8
	c-3.7,1-5.5,1.4-7,0.8c-1.4-0.7-2-2.2-3.1-5.4c-1.7-4.9-0.8-6.1-2.3-7.7c-2.1-2.3-5.8-2.3-7.7-2.3c-4.6,0-6.1,1.9-7.7,0.8
	c-1.5-1-1.5-3.5-1.5-8.5c-0.1-4.7,0.5-6.5-0.8-7.7c-0.9-0.9-2-0.6-4.6-0.8c-4.2-0.3-7.4-0.5-9.3-2.3c-2.5-2.4-3.2-7.9-2.3-11.6
	c0.4-1,0.4-2.1,0-3.1c-0.7-1.5-2.2-2.4-3.9-2.3c-1.4,0.1-2.1,0.9-3.1,1.5c-3.3,2.2-8.5,1.6-11.6,0c-2.1-1.1-3.5-2.8-6.2-6.2
	c-1.1-1.5-2.4-2.8-3.9-3.9c-2.5-1.9-3.5-1.7-3.9-1.5c-1,0.4-1.4,1.7-1.5,2.3c-1.2,4.1-3.7,7.7-5.4,11.6c-2.4,5.4-3.2,6.2-3.1,8.5
	c0,1.7,0.5,3,1.5,5.4c2.6,6.4,4.7,6.8,5.4,10.8c0.4,2.6,0.1,5.3-0.8,7.7c-1.3,3.5-3.1,3.9-3.1,6.2c0,2.7,2.5,3,4.6,7
	c0.4,0.8,3,5.8,1.5,10.8c-1,3.5-2.9,3.5-3.1,6.2c-0.3,4.5,5.1,8.5,6.2,9.3c3.7,2.7,5.4,1.9,7.7,4.6c0.4,0.5,3.2,3.8,2.3,7
	c-0.6,2.5-2.8,2.6-3.1,4.6c-0.5,3.4,5.1,6.8,5.4,7c5.2,3.1,10.6,2.2,14.3,1.9c1.7-0.1,3.4-0.1,5.1,0.1c0.3,0,0.6,0.1,0.9,0.1
	c0.1,0,0.1,0,0.2,0c0.3,0,0.6,0.1,0.8,0.1c0.1,0,0.1,0,0.2,0c0.3,0.1,0.5,0.1,0.8,0.2c0.1,0,0.1,0,0.2,0c0.3,0.1,0.5,0.1,0.8,0.2
	c0,0,0.1,0,0.1,0c0.3,0.1,0.5,0.1,0.8,0.2c-1.9,8-0.7,16.5,3.5,23.6c-0.1,0.2-0.2,0.3-0.2,0.5c-0.1,0.3-0.2,0.5-0.3,0.7
	c-0.1,0.4-0.3,0.7-0.4,1c0,0.1,0,0.1-0.1,0.2c-0.1,0.3-0.2,0.6-0.3,0.9c0,0,0,0.1,0,0.1c-0.1,0.4-0.2,0.8-0.2,1.1
	c0,0.1-0.1,0.2-0.1,0.4c0,0.1,0,0.2-0.1,0.3c-0.1,0.9-0.5,1.6-1.2,2.1c-1,0.6-2.4,0.3-4.6-0.8c-8-4-9.7-10.5-13.1-10.1
	c-1.8,0.3-3.2,2.4-4.6,4.6c-1.9,3-1.5,4.6-3.1,5.4c-2,1-5.2-0.4-7-2.3c-2-2.2-1.1-3.7-3.1-7.7c-1.2-2.4-2.6-5.1-5.4-6.2
	c-3.1-1.1-6.2,0.4-7,0.8c-2,1-3.5,2.5-5.4,4.6c-1.5,1.6-1.8,2.2-3.1,3.1c-2.7,2.1-6.5,2.1-9.3,0c-3.1-1.9-6.2-3.5-9.3-5.4
	c-2.4-1.5-9.4-5.7-16.2-3.9c-0.8,0.2-6.3,1.7-7.7,6.2c-1.3,4.1,1.5,8.1,2.3,9.3c1.6,2.2,2.4,2,6.2,5.4c3.1,2.7,5.2,4.7,7,7.7
	c1.7,3.1,2.7,6.5,3.1,10.1c0.8,4.9-0.1,5.1,0.8,7c2.5,5.2,10.7,6.6,13.1,7c4.9,0.8,6.7-0.2,8.5,1.5c2.3,2.3,0.6,5.2,3.1,7.7
	c1.9,1.9,4.7,2.1,7,2.3c2,0.2,2.4-0.2,7.7-0.8c5.4-0.6,6.3-0.4,7,0c2.7,1.4,3.7,4.7,3.9,5.4c0.9,3-0.2,4.5,0.8,5.4
	c0.5,0.5,1.8,0.9,9.3-2.3c5.1-2.2,7.7-3.3,10.1-4.6c3.3-1.8,4.7-3,6.2-2.3c1.8,0.8,2.2,3.6,2.3,4.6c0.5,3.8-1.4,5-0.8,8.5
	c0.2,1.1,0.6,3.5,2.3,4.6c0.6,0.4,2.1,1.1,11.6-2.3c3.1-1.1,6.2-2,9.3-3.1c2.5-0.9,3.9-1.4,4.6-0.8c0.9,0.8-0.4,2.7-0.8,7
	c-0.2,2.7-0.5,5,0.8,6.2c1.8,1.7,5.8,0,7.7-0.8c4.5-1.9,9.3-5.1,18.6-15.5c3.6-4,8-9.3,9.3-8.5c0.5,0.3,0.6,1.4,0.8,2.3
	c0.2,1.4-0.3,2.1,0,2.3c0.4,0.3,2-0.9,3.1-2.3c1.2-1.6,2-3.4,2.3-5.4c0.3-1.4,0.9-2.7,1.8-3.9l0,0c0.8-1.2,1.8-2.3,2.8-3.3
	c8.4,15.8,28.1,21.8,43.9,13.4c3.3-1.7,6.2-4,8.7-6.8c1.1,0.8,2.1,1.8,2.9,2.9l0,0c0.2,0.3,0.4,0.6,0.6,1c0.8,1.8,2.1,3.4,3.6,4.6
	c1.5,1.1,3.2,1.8,3.6,1.4c0.2-0.3-0.4-0.9-0.6-2.2c-0.1-0.9-0.2-2.1,0.2-2.4c1-1.1,6.7,2.9,11.2,5.8c11.6,7.6,17.1,9.5,21.9,10.2
	c2,0.3,6.4,0.8,7.7-1.2c0.9-1.4,0.1-3.7-0.8-6.2c-1.5-4-3.2-5.5-2.5-6.5c0.5-0.8,2.1-0.7,4.7-0.4c3.2,0.3,6.5,0.3,9.8,0.6
	c10.1,0.9,11.3-0.2,11.8-0.7c1.4-1.6,1.2-4,1-5.1c-0.3-3.5-2.5-4.2-2.9-8c-0.1-1-0.5-3.9,1-5.1c1.2-1,2.9-0.3,6.6,0.6
	c2.6,0.7,5.4,1.1,10.9,1.9c8.1,1.2,9.2,0.5,9.6-0.1c0.7-1.1-0.7-2.3-0.6-5.4c0-0.7,0.1-4.2,2.3-6.2c0.6-0.5,1.3-1,6.7-1.8
	c5.3-0.8,5.7-0.6,7.7-1.2c2.1-0.7,4.8-1.7,6.1-4c1.8-3.1-0.6-5.5,1-8.3c1.3-2.2,3.3-1.6,7.8-3.7c2.2-1,9.8-4.4,10.9-10.1
	c0.4-2.1-0.5-2-1-6.9c-0.5-3.5-0.4-7.1,0.4-10.5c0.9-3.4,2.5-5.8,4.7-9.3c2.8-4.2,3.6-4.3,4.6-6.8
	C443.6,245.8,445.3,241.2,443,237.5z M309.1,274.6V270c5.7,3.8,12.4,5.9,19.3,6.1l0,0c-0.1,0.2-0.3,0.4-0.4,0.6
	c-0.1,0.2-0.3,0.4-0.4,0.6c0,0-0.1,0.1-0.1,0.1c-0.1,0.2-0.3,0.4-0.4,0.5c0,0.1-0.1,0.1-0.1,0.2c-0.2,0.2-0.4,0.4-0.6,0.7
	c-0.1,0.1-0.1,0.1-0.2,0.2c-1.2,1.3-2.5,2.5-3.9,3.6c-2.1,1.5-3.8,2.7-5.8,2.3c-1.6-0.3-2-1.4-4-2.9c-1-0.8-2.1-1.4-3.3-1.9
	L309.1,274.6z"/><path fill="#fff" d="M195.4,376.5c-5,0.1-9.9-1.8-13.6-5.3c-1.1-1.1-2.2-2.3-3-3.6c-7.1,2-13.9,2.6-20.3-1.6c-3-2-5.5-4.8-7.2-8.1
	c-6.8,2.7-16.9,5.4-24.9-2.6c-1.5-1.5-2.8-3.3-3.6-5.2c-1.6,0.2-3.3,0.2-5,0.1c-3.4-0.3-11.4-0.9-17.8-7.3c-1.4-1.4-2.6-3-3.5-4.7
	c-12.2-2.3-20.4-7.7-24.4-16.1c-1.5-3.1-2.3-6.6-2.1-10.1c0-0.5,0-1.1-0.1-1.6c-0.1-1.5-0.5-2.9-1.1-4.3c-0.4-0.6-1.3-1.5-3.5-3.5
	c-0.7-0.6-1.5-1.2-2.2-1.8c-2.5-1.8-4.7-4-6.5-6.5c-7.4-10.5-6.1-19.7-4.6-24.3c2.7-8.4,9.8-14.8,19.5-17.4
	c9.2-2.5,19.2-0.5,29.5,5.8c1.1,0.7,2.3,1.4,3.5,2.1c2.1-2.1,4.6-3.8,7.2-5.1c2.9-1.4,6-2.4,9.2-2.7c-1-3-1.2-6.1-0.8-9.2
	c-0.1,0-0.1-0.1-0.2-0.1c-12.2-8.9-13.4-18.9-13.1-24.1c0.2-3.1,1-6.1,2.5-8.8c-6.5-6.9-7.5-17.3-2.3-25.3c-1.4-2.3-2.6-4.7-3.6-7.1
	c-1.7-3.6-2.6-7.4-2.8-11.4c-0.2-5.8,1.6-9.6,3.2-12.9c0.4-0.8,0.8-1.7,1.4-2.9c0.9-2,1.8-3.7,2.6-5.2c0.8-1.3,1.4-2.7,2-4.2
	c2.5-8.8,8.5-12.2,11.8-13.5c4.5-1.7,11.7-2.5,20.1,3.9c2.5,1.9,4.8,4.2,6.8,6.7c2.2-0.9,4.6-1.5,7.1-1.6
	c8.6-0.3,16.5,4.6,20.1,12.5c1,2.3,1.6,4.7,1.7,7.2c6.2,0.8,11.6,4.6,14.6,10.2c0.2-2.8,0.4-5.5,0.9-8.3l0-0.2
	c1.2-8.3,1.4-10.3,1.6-11.3c2.4-13.1,3.9-21.7,12.5-26.9c2.9-1.8,6.2-2.8,9.6-3.1c13.3-8.7,33.7-11.6,43.4-12.4
	c11.4-1,49.4-2.7,59.5,18.5c3.1,3,5.8,6.5,8.1,10.2c3,4.7,5.1,9.8,6.4,15.2c0.7-0.8,1.4-1.6,2.1-2.3c2.9-2.7,6.6-4.5,10.6-5
	c0.1-2.5,0.7-4.9,1.7-7.2c3.5-7.8,11.5-12.8,20.1-12.5c2.4,0.1,4.8,0.6,7.1,1.6c2-2.5,4.2-4.7,6.8-6.7c8.4-6.3,15.6-5.6,20.1-3.9
	c3.3,1.3,9.3,4.7,11.8,13.4c0.6,1.4,1.2,2.9,2,4.2c0.8,1.5,1.7,3.3,2.6,5.2c0.5,1.2,1,2.2,1.4,2.9c1.6,3.4,3.4,7.2,3.2,12.9
	c-0.2,3.9-1.1,7.8-2.8,11.4c-1,2.5-2.2,4.9-3.6,7.1c5.2,8,4.2,18.4-2.3,25.3c1.5,2.7,2.3,5.7,2.5,8.8c0.3,5.2-0.9,15.1-13.1,24
	c-0.1,0-0.1,0.1-0.2,0.1c0.2,1.5,0.3,2.9,0.2,4.4c1-1,1.9-1.9,2.7-2.8c8.4-8.7,17.4-13.2,26.9-13.2h0.1c10,0,18.5,4.3,23.3,11.8l0,0
	c2.6,4,6.3,12.6,1.8,24.6c-1.1,2.9-2.6,5.6-4.6,7.9c-0.6,0.7-1.2,1.5-1.7,2.3c-1.6,2.5-2.3,3.6-2.5,4.3c-0.2,1.5-0.2,3,0.1,4.4
	c0,0.5,0.1,1,0.3,1.6c1,3.3,1.2,6.9,0.6,10.3c-1.7,9.2-8.3,16.6-19.5,21.9c-0.5,1.9-1.2,3.7-2.2,5.4c-4.5,7.9-12,10.5-15.3,11.7
	c-1.6,0.6-3.2,1-4.8,1.2c-0.4,2.1-1.1,4.1-2.2,6c-5.7,9.8-16.1,9.8-23.4,8.9c-0.7,3.6-2.4,6.9-4.8,9.6c-5.1,5.7-11.8,6.9-19.2,6.8
	c-0.5,1.5-1.2,2.9-2,4.2c-3.3,5.2-10.1,11-24.4,9.1c-8.1-1.1-15.8-4.4-26.9-11.5c-4.9,1.1-10.6,0.1-16.5-4
	c-15.2,7.4-33.1,6.5-47.5-2.3c-3.3,2.9-7.4,4.7-11.8,5c-8.9,9.7-15.5,14.9-23,18C203.9,375.5,199.7,376.4,195.4,376.5z M296.5,334.2
	L296.5,334.2l14.9-6.7c0,0,0-0.1,0-0.1L296.5,334.2z M192.9,328.5c4.6,0,9,1.7,12.3,4.9l0,0c0.6-0.7,1.2-1.4,1.9-2.1l1.2-1.3
	c1.9-2.1,3.8-4.3,5.8-6.2c2.4-2.4,5.3-4.3,8.5-5.6c0.2-0.3,0.4-0.5,0.6-0.8c1.4-1.9,2.9-3.7,4.5-5.4c6.6-6.7,17.3-6.8,24-0.3
	c1.2,1.2,2.3,2.6,3.1,4.1c2.7,5.1,8,8.2,13.7,8.2c4.4,0,8.5-1.8,11.5-5.1c5.9-6.5,15.8-7.4,22.8-2.1c0.8,0.6,1.5,1.2,2.2,1.8
	c3.4,0.4,6.7,1.5,9.6,3.2c2.4,1.3,4.8,2.9,7.2,4.5l1.5,1c0.8,0.6,1.6,1.1,2.4,1.5l0,0c6-9.7,16.3-8.8,20.2-8.5l0.3,0
	c0.4,0,0.8,0.1,1.3,0.1c0.3-5.8,3-11.2,7.5-14.8c7.7-6.1,15.9-3.9,19.8-2.9c0.4,0.1,0.9,0.2,1.4,0.4c0.5,0.1,1,0.2,1.7,0.4
	c1.3-2.4,2.9-4.6,4.9-6.4c4.4-4,9.2-5,15.5-6c0.2,0,0.4-0.1,0.5-0.1c0.5-1.8,1.2-3.6,2.2-5.2c3-5,7.8-8.6,13.5-9.9
	c0.7-0.2,1.3-0.4,2-0.7c-0.3-2.9-0.5-5.8-0.3-8.7c-1.4,0.7-2.8,1.2-4.3,1.6c-4.8,1.2-9.8,1-14.5-0.6l0,0c-0.4,1.1-0.9,2.2-1.4,3.2
	c-5,9.5-15.2,14.7-24.6,12.7c-1-0.2-2-0.5-3-0.9c-0.8,0.8-1.6,1.6-2.5,2.4c-7.9,7-15.3,6.9-20,5.5c-1.9-0.5-3.7-1.3-5.3-2.4
	c-0.1,0.1-0.2,0.3-0.4,0.4l-0.2,0.2c-0.3,0.4-0.6,0.8-1,1.1l-0.3,0.3h0c-2,2.2-4.2,4.2-6.7,6c-3.1,2.2-9.6,6.9-18.7,5.3
	c-4.3-0.8-8.3-2.9-11.3-6.1l0,0c0,0,0,0-0.1,0c-6-2.8-9.9-8.8-9.9-15.4v-10c0-9.4,7.6-17,17-17c3.4,0,6.6,1,9.4,2.9
	c3.1,2,6.7,3.2,10.4,3.3c2.1,0.1,4.1,0.5,6,1.3c1.3-1.6,2.9-2.9,4.6-3.9c5.4-3.1,8.6-8.3,8.6-14.1c0-0.5,0-0.9-0.1-1.5
	c-0.9-9.3,5.9-17.6,15.2-18.6c0.4,0,0.9-0.1,1.3-0.1c0.8,0,1.6,0,2.5,0c0.6-5.3,2.8-10.3,6.3-14.4c2-2.4,4.4-4.4,7.2-5.9
	c-2.4-10.1,1.4-18.8,3.3-22.2c0.1-0.1,0.1-0.2,0.2-0.4c-1.6-5-2-10.3-1.2-15.4c0.4-2.4,1.2-4.8,2.2-7c-1.8,0.5-3.7,0.9-5.6,1.1
	c-1.3,3.6-3.3,6.9-6.1,9.5c-2.7,2.6-6.1,4.5-9.7,5.5c-0.6,5.5-2.5,11.4-8.7,15.6c-3.6,2.4-7.9,3.6-12.2,3.2
	c-1.7,4.4-4.5,9.8-11.1,12.8c-2.5,1.2-5.2,1.8-7.9,1.9c-4.7,8.1-15.1,10.9-23.2,6.2c-5.2-3-8.5-8.6-8.5-14.7v-25.7
	c0-6.4,3.5-12.2,9.2-15.1c-0.3-2.2-1.1-4.2-2.3-6c-1.1-1.9-2.6-3.6-4.4-5c-2.1-1.6-3.8-3.7-5-6.1c-3.7-1.3-12.4-3.1-26.6-1.8
	c-15.4,1.4-25.1,5.1-27.7,6.9c-1.8,2.3-4.2,4.1-6.9,5.2c-0.2,0.9-0.3,1.8-0.5,2.6c-0.1,0.7-0.6,4.5-1.4,9.7
	c4.2,3.2,6.7,8.2,6.7,13.5v42.9c0,9.4-7.6,17-17,17c-8.2,0-15.2-5.8-16.7-13.8c0,0,0-0.1,0-0.1c-2.4-0.2-4.8-0.8-7-1.8
	c-6.7-3.1-9.5-8.5-11.1-12.8c-4.3,0.4-8.6-0.8-12.2-3.2c-6.1-4.2-8-10.1-8.7-15.6c-3.6-1-7-2.9-9.7-5.5c-2.7-2.7-4.8-5.9-6.1-9.5
	c-1.9-0.2-3.8-0.6-5.6-1.1c1.1,2.2,1.8,4.5,2.2,7c0.9,5.2,0.4,10.5-1.2,15.4c0.1,0.1,0.1,0.2,0.2,0.4c1.8,3.4,5.6,12.1,3.3,22.2
	c2.7,1.5,5.2,3.5,7.2,5.9c3.5,4.1,5.7,9.1,6.3,14.4c2.2-0.1,4.3,0,6.5,0.2c0.5,0.1,1,0.1,1.5,0.2c0.1,0,0.3,0,0.4,0.1
	c0.4,0.1,0.8,0.1,1.3,0.2l0.4,0.1l0,0c0.5,0.1,0.9,0.2,1.4,0.3l0.3,0.1c0.4,0.1,0.8,0.2,1.3,0.3c0.1,0,0.2,0.1,0.3,0.1
	c0.4,0.1,0.8,0.2,1.2,0.3c8.5,2.7,13.5,11.5,11.4,20.1c-0.9,3.8-0.3,7.8,1.7,11.1c2.7,4.7,3,10.4,0.8,15.4l-0.3,0.6
	c-0.1,0.2-0.1,0.4-0.1,0.6l-0.2,0.8c-1.3,5.9-4.4,10.3-9.2,13.1c-4.3,2.5-11.3,4.5-20.8-0.2c-1.1-0.5-2.1-1.1-3-1.7
	c-0.8,0.6-1.7,1.1-2.7,1.6c-8.6,4.4-19.8,1.9-27.1-5.9c-0.8-0.9-1.5-1.8-2.2-2.8l0,0c-4.1,2.8-8.9,4.3-13.9,4.3
	c-1.5,0-3.1-0.1-4.6-0.4c0.9,2.8,1.5,5.6,1.9,8.5c0.7,0.1,1.4,0.1,2.1,0.1c5.8-0.1,11.4,2.1,15.6,6.1c1.3,1.3,2.5,2.8,3.4,4.5
	c0.2,0,0.3,0,0.5-0.1c6.3-0.7,11.2-1,16.6,1.8c2.4,1.2,4.6,2.9,6.4,4.9c0.6-0.3,1.1-0.5,1.5-0.8c0.5-0.3,0.9-0.5,1.3-0.7
	c3.5-2,10.9-6.2,19.9-2.3c5.3,2.4,9.3,6.9,11.1,12.4c0.4-0.1,0.8-0.3,1.2-0.4l0.3-0.1C186.5,329.2,189.6,328.6,192.9,328.5
	L192.9,328.5z M302.3,295.6L302.3,295.6z M428.7,246.8L428.7,246.8z M197.7,214.3L197.7,214.3z M235,145.5L235,145.5L235,145.5z
	 M236.2,144.2L236.2,144.2L236.2,144.2z"/><path fill="#ea6f4a" d="M257,37.6c-0.1-0.8-0.3-1.6-0.5-2.4C256.6,36,256.7,36.8,257,37.6z"/><path fill="#fff" d="M257,54.6c-7.5,0-14.2-5-16.3-12.2c-0.6-2-1-4.1-1.2-6.2c-0.5-9.4,6.7-17.4,16.1-17.8
	c7.7-0.4,14.8,4.5,17.1,11.9c0.5,1.7,0.9,3.4,1.1,5.2c1.2,9.3-5.3,17.8-14.6,19.1C258.5,54.5,257.7,54.6,257,54.6z M243.1,39.4
	l-2.9,0.4c0,0.2,0.1,0.3,0.1,0.5L243.1,39.4z M273.3,32.8l-6.4,1.9l6.6-0.3C273.4,33.8,273.4,33.3,273.3,32.8z"/><path fill="#ea6f4a" d="M262.7,119.5l12.8-8.9c15.5-13.9,13.9-20.9-2.3-44.1c-11.4-16.3-15-25.1-16.1-29c1.6,11.9-11.3,25.5-11.3,25.5
	C215.5,92.5,262.7,119.5,262.7,119.5z"/><path fill="#fff" d="M262.7,136.5c-3,0-5.9-0.8-8.4-2.3c-3.3-1.9-31.9-19-35.3-45.5c-1.2-9.4,0.4-23.5,14.5-37.5
	c3.3-3.6,6.6-9.3,6.7-11.5c-1.2-9.3,5.4-17.8,14.7-19c8.3-1,16.1,4.1,18.4,12.1c0.4,1.3,2.8,8.4,13.7,24c9.8,14,15.3,23.6,16.1,34
	c1.1,14.7-7.6,24.6-16.3,32.5c-0.5,0.5-1.1,0.9-1.7,1.3l-12.8,8.9C269.5,135.4,266.1,136.5,262.7,136.5z M258.1,74.7
	c0,0-0.1,0.1-0.1,0.1c-0.2,0.2-0.3,0.3-0.5,0.5c-5.4,5.2-5,8.2-4.9,9.2c0.5,4.5,5.1,9.9,10.2,14.3l2-1.4c1.6-1.4,3-2.9,4.3-4.6
	c-0.6-1.9-2.8-6.4-9.9-16.5C258.8,75.7,258.4,75.2,258.1,74.7z M240.2,39.8L240.2,39.8L240.2,39.8z"/><rect width="92.8" height="143.8" x="216.3" y="159.7" fill="#7c1e66"/><rect width="92.8" height="143.8" x="216.3" y="159.7" fill="#7c1e66"/><path fill="#66135b" d="M232.3 303.6h72.4c-2.8-20-21.2-33.9-41.2-31.2C247.3 274.7 234.5 287.4 232.3 303.6L232.3 303.6zM216.3 184c1.5-1.2 2.8-2.8 3.5-4.6 1.3-3.3-.2-4.9 1.5-7.7 1.1-1.8 3.2-3.6 4.6-3.1.6.2.9.8 2.3 4.6 1.3 3.4 1.6 4.2 2.3 5.4 1.1 1.7 2 3.1 3.1 3.1 1 0 1.6-1.4 4.6-7 1.5-2.8 2.1-3.7 3.1-3.9 1.8-.3 3.6 2 3.9 2.3.9 1.2 1.4 2.7 1.5 7 .1 3.3 0 4.4 0 8.5 0 5.3.3 6.6.8 7.7.4 1.1 1.8 4.5 3.9 4.6 2.2.2 4.6-3.2 5.4-6.2 1.2-4.1-.9-5.9.8-10.1.6-1.6 1.7-3 3.1-3.9 1.2-.7 2.5-.9 3.9-.8 2.2.3 2.5 1.7 3.9 1.5 2.2-.3 3.8-4.5 3.9-4.6.2-1.6 1.5-2.9 3.1-3.1 1.2-.1 2.4.5 3.1 1.5.5.9.2 1.6 0 3.9-.1 1.8-.1 3.6 0 5.4.1 2.6.2 3.9.8 4.6 1.1 1.5 3.4 2.5 4.6 1.5.5-.4.6-1.1.8-2.3.4-2.1.9-4.2 1.5-6.2.5-1.9 1.3-3.7 2.3-5.4 1.3-2.1 2-2.3 2.3-2.3.4 0 1 0 3.1 2.3 1.1 1.2 2.1 2.5 3.1 3.9 2.1 2.9 2.2 3.7 3.1 3.9 1.2.2 2.4-.9 3.9-2.3 2-1.9 2-2.9 3.1-3.1.8-.1 1.3.3 1.9.8v-20.5h-92.8V184z"/><path fill="#26a526" d="M187.7,263.4c-12.6,0.7-15.4-9.4-30.9-8.5c-3.7,0.2-9.1,1.1-14.3-1.9c-0.3-0.2-5.9-3.5-5.4-7
	c0.3-2,2.5-2.2,3.1-4.6c0.8-3.2-1.9-6.4-2.3-7c-2.3-2.8-4-1.9-7.7-4.6c-1.1-0.8-6.5-4.7-6.2-9.3c0.2-2.7,2.1-2.7,3.1-6.2
	c1.5-5.1-1.1-10.1-1.5-10.8c-2.1-4-4.6-4.3-4.6-7c0-2.3,1.8-2.7,3.1-6.2c0.9-2.5,1.2-5.1,0.8-7.7c-0.7-4-2.8-4.4-5.4-10.8
	c-1-2.4-1.5-3.7-1.5-5.4c-0.1-2.3,0.7-3.2,3.1-8.5c1.7-3.9,4.2-7.5,5.4-11.6c0.2-0.6,0.5-1.9,1.5-2.3c0.3-0.1,1.3-0.4,3.9,1.5
	c1.5,1.1,2.8,2.4,3.9,3.9c2.7,3.4,4,5.1,6.2,6.2c3.1,1.6,8.3,2.2,11.6,0c1-0.6,1.7-1.5,3.1-1.5c1.6-0.1,3.2,0.8,3.9,2.3
	c0.4,1,0.4,2.1,0,3.1c-0.9,3.7-0.2,9.2,2.3,11.6c1.9,1.8,5.1,2,9.3,2.3c2.7,0.2,3.7-0.1,4.6,0.8c1.3,1.2,0.7,3,0.8,7.7
	c0.1,5,0.1,7.5,1.5,8.5c1.6,1.1,3.2-0.8,7.7-0.8c1.9,0,5.7,0,7.7,2.3c1.5,1.7,0.6,2.9,2.3,7.7c1.1,3.2,1.7,4.8,3.1,5.4
	c1.5,0.7,3.3,0.2,7-0.8c2.3-0.6,2.4-0.9,3.1-0.8c0.6,0.1,3.4,0.7,5.4,10.1c2.3,11,4.4,20.9-1.5,31.7
	C208.6,254.2,198.7,262.7,187.7,263.4z"/><path fill="#1b8d25" d="M149.4,186.4c3.2,5.6,6.7,11,10.3,16.3c3.6,5.3,7.5,10.3,11.8,15.1c2.1,2.4,4.4,4.6,6.8,6.6
	c0.6,0.5,1.2,1,1.9,1.5c0.6,0.5,1.3,0.9,1.9,1.3c1.3,0.8,2.7,1.6,4.1,2.3c5.8,2.8,11.5,5.7,17.2,8.8c-6-2.3-12-4.8-17.9-7.3
	c-3-1.3-5.9-3-8.5-5c-2.5-2.1-4.9-4.3-7.1-6.7c-4.3-4.8-8.2-10.1-11.6-15.6C155,198.1,151.9,192.3,149.4,186.4z"/><path fill="#26a526" d="M237.5 295.5c-6.6-6.5-8.2-11.2-15.5-14.7-4.6-2.2-7.2-1.9-8.5-1.5-4.3 1-7.6 5.2-7.7 5.4-1.5 2-1.6 3.2-3.1 3.9-1.8.9-3.8.1-6.2-.8-2.8-1.1-5.4-2.7-7.7-4.6-6.4-5-12-9.3-15.5-7.7-2 .9-3.1 3.6-3.9 5.4-1.3 3.2-.8 5.3-2.3 6.2-1 .6-2.4.3-4.6-.8-8-4-9.7-10.5-13.1-10.1-1.8.3-3.2 2.4-4.6 4.6-1.9 3-1.5 4.6-3.1 5.4-2 1-5.2-.4-7-2.3-2-2.2-1.1-3.7-3.1-7.7-1.2-2.4-2.6-5.1-5.4-6.2-3.1-1.1-6.2.4-7 .8-2 1-3.5 2.5-5.4 4.6-1.5 1.6-1.8 2.2-3.1 3.1-2.7 2.1-6.5 2.1-9.3 0-3.1-1.9-6.2-3.5-9.3-5.4-2.4-1.5-9.4-5.7-16.2-3.9-.8.2-6.3 1.7-7.7 6.2-1.3 4.1 1.5 8.1 2.3 9.3 1.6 2.2 2.4 2 6.2 5.4 3.1 2.7 5.2 4.7 7 7.7 1.7 3.1 2.7 6.5 3.1 10.1.8 4.9-.1 5.1.8 7 2.5 5.2 10.7 6.6 13.1 7 4.9.8 6.7-.2 8.5 1.5 2.3 2.3.6 5.2 3.1 7.7 1.9 1.9 4.7 2.1 7 2.3 2 .2 2.4-.2 7.7-.8 5.4-.6 6.3-.4 7 0 2.7 1.4 3.7 4.7 3.9 5.4.9 3-.2 4.5.8 5.4.5.5 1.8.9 9.3-2.3 5.1-2.2 7.7-3.3 10.1-4.6 3.3-1.8 4.7-3 6.2-2.3 1.8.8 2.2 3.6 2.3 4.6.5 3.8-1.4 5-.8 8.5.2 1.1.6 3.5 2.3 4.6.6.4 2.1 1.1 11.6-2.3 3.1-1.1 6.2-2 9.3-3.1 2.5-.9 3.9-1.4 4.6-.8.9.8-.4 2.7-.8 7-.2 2.7-.5 5 .8 6.2 1.8 1.7 5.8 0 7.7-.8 4.5-1.9 9.3-5.1 18.6-15.5 3.6-4 8-9.3 9.3-8.5.5.3.6 1.4.8 2.3.2 1.4-.3 2.1 0 2.3.4.3 2-.9 3.1-2.3 1.2-1.6 2-3.4 2.3-5.4 1.3-7.7 17.7-15.4 17-23.2C251.9 303.6 246.9 304.8 237.5 295.5zM336.6 247.9c12.6.7 15.4-9.4 30.9-8.5 3.7.2 9.1 1.1 14.3-1.9.3-.2 5.9-3.5 5.4-7-.3-2-2.5-2.2-3.1-4.6-.8-3.2 1.9-6.4 2.3-7 2.3-2.8 4-1.9 7.7-4.6 1.1-.8 6.5-4.7 6.2-9.3-.2-2.7-2.1-2.7-3.1-6.2-1.5-5.1 1.1-10.1 1.5-10.8 2.1-4 4.6-4.3 4.6-7 0-2.3-1.8-2.7-3.1-6.2-.9-2.5-1.2-5.1-.8-7.7.7-4 2.8-4.4 5.4-10.8 1-2.4 1.5-3.7 1.5-5.4.1-2.3-.7-3.2-3.1-8.5-1.7-3.9-4.2-7.5-5.4-11.6-.2-.6-.5-1.9-1.5-2.3-.3-.1-1.3-.4-3.9 1.5-1.5 1.1-2.8 2.4-3.9 3.9-2.7 3.4-4 5.1-6.2 6.2-3.1 1.6-8.3 2.2-11.6 0-1-.6-1.7-1.5-3.1-1.5-1.6-.1-3.2.8-3.9 2.3-.4 1-.4 2.1 0 3.1.9 3.7.2 9.2-2.3 11.6-1.9 1.8-5.1 2-9.3 2.3-2.7.2-3.7-.1-4.6.8-1.3 1.2-.7 3-.8 7.7-.1 5-.1 7.5-1.5 8.5-1.6 1.1-3.2-.8-7.7-.8-1.9 0-5.7 0-7.7 2.3-1.5 1.7-.6 2.9-2.3 7.7-1.1 3.2-1.7 4.8-3.1 5.4-1.5.7-3.3.2-7-.8-2.3-.6-2.4-.9-3.1-.8-.6.1-3.4.7-5.4 10.1-2.3 11-4.4 20.9 1.5 31.7C315.6 238.7 325.5 247.3 336.6 247.9zM284.5 300.6c4.6-8 5-13 11.2-18.2 3.9-3.3 6.5-3.7 7.8-3.7 4.5-.1 8.7 3.1 8.9 3.2 2 1.6 2.4 2.6 4 2.9 2 .4 3.7-.9 5.8-2.3 2.4-1.8 4.5-4 6.3-6.5 4.9-6.4 9.2-12 13-11.5 2.2.3 3.9 2.7 5.1 4.2 2.1 2.8 2.2 4.9 3.8 5.4 1.1.3 2.4-.3 4.3-1.9 6.7-5.9 6.7-12.7 10.1-13.1 1.8-.2 3.7 1.5 5.7 3.3 2.6 2.4 2.7 4.1 4.4 4.4 2.2.5 4.9-1.7 6.1-4 1.4-2.6.1-3.8 1-8.3.5-2.6 1.1-5.6 3.6-7.4 2.7-1.9 6.1-1.2 6.9-1 2.2.4 4 1.6 6.4 3.1 1.9 1.2 2.3 1.7 3.8 2.2 3.2 1.3 6.8.3 9-2.4 2.5-2.6 5.1-5 7.6-7.6 1.9-2 7.6-7.9 14.7-7.9.9 0 6.5 0 9.1 4 2.3 3.6.6 8.3.1 9.6-.9 2.6-1.8 2.6-4.6 6.8-2.2 3.4-3.8 5.8-4.7 9.3-.8 3.4-.9 7-.4 10.5.5 4.9 1.4 4.9 1 6.9-1.1 5.7-8.7 9.1-10.9 10.1-4.5 2-6.6 1.5-7.8 3.7-1.6 2.8.8 5.1-1 8.3-1.3 2.4-4 3.3-6.1 4-1.9.7-2.4.4-7.7 1.2-5.4.8-6.1 1.3-6.7 1.8-2.2 2-2.3 5.5-2.3 6.2-.1 3.1 1.3 4.3.6 5.4-.4.6-1.5 1.4-9.6.1-5.5-.8-8.3-1.2-10.9-1.9-3.6-.9-5.3-1.6-6.6-.6-1.5 1.2-1.2 4-1 5.1.5 3.8 2.6 4.5 2.9 8 .1 1.1.3 3.5-1 5.1-.5.5-1.7 1.6-11.8.7-3.2-.3-6.5-.3-9.8-.6-2.6-.2-4.2-.4-4.7.4-.6 1.1 1.1 2.5 2.5 6.5.9 2.5 1.7 4.7.8 6.2-1.3 2.1-5.6 1.5-7.7 1.2-4.8-.7-10.3-2.6-21.9-10.2-4.5-2.9-10.1-6.9-11.2-5.8-.4.4-.2 1.5-.2 2.4.1 1.4.8 2 .6 2.2-.3.4-2.1-.3-3.6-1.4-1.6-1.2-2.8-2.8-3.6-4.6-3.2-7.1-21-10.4-22.4-18C272.7 312.1 277.9 312 284.5 300.6z"/><path fill="#fbb641" d="M215.9,134.6c-2,1.2-2.9,6-4.6,15.5c-0.1,0.8-0.6,4.1-1.5,10.8c-0.8,5.7-1.2,8.6,0,11.6
	c0.5,1.2,1.7,4.3,3.9,4.6c2.4,0.4,5.1-2.7,6.2-5.4c1.3-3.3-0.2-4.9,1.5-7.7c1.1-1.8,3.2-3.6,4.6-3.1c0.6,0.2,0.9,0.8,2.3,4.6
	c1.3,3.4,1.6,4.2,2.3,5.4c1.1,1.7,2,3.1,3.1,3.1c1,0,1.6-1.4,4.6-7c1.5-2.8,2.1-3.7,3.1-3.9c1.8-0.3,3.6,2,3.9,2.3
	c0.9,1.2,1.4,2.7,1.5,7c0.1,3.3,0,4.4,0,8.5c0,5.3,0.3,6.6,0.8,7.7c0.4,1.1,1.8,4.5,3.9,4.6c2.2,0.2,4.6-3.2,5.4-6.2
	c1.2-4.1-0.9-5.9,0.8-10.1c0.6-1.6,1.7-3,3.1-3.9c1.2-0.7,2.5-0.9,3.9-0.8c2.2,0.3,2.5,1.7,3.9,1.5c2.2-0.3,3.8-4.5,3.9-4.6
	c0.2-1.6,1.5-2.9,3.1-3.1c1.2-0.1,2.4,0.5,3.1,1.5c0.5,0.9,0.2,1.6,0,3.9c-0.1,1.8-0.1,3.6,0,5.4c0.1,2.6,0.2,3.9,0.8,4.6
	c1.1,1.5,3.4,2.5,4.6,1.5c0.5-0.4,0.6-1.1,0.8-2.3c0.4-2.1,0.9-4.2,1.5-6.2c0.5-1.9,1.3-3.7,2.3-5.4c1.3-2.1,2-2.3,2.3-2.3
	c0.4,0,1,0,3.1,2.3c1.1,1.2,2.1,2.5,3.1,3.9c2.1,2.9,2.2,3.7,3.1,3.9c1.2,0.2,2.4-0.9,3.9-2.3c2-1.9,2-2.9,3.1-3.1
	c1.6-0.3,2.1,1.7,4.6,2.3c1.6,0.4,3.3,0.1,4.6-0.8c2.1-1.4,2.4-4.5,2.3-7.7c-0.1-7.3-0.2-14.9-5.4-23.2c-2.9-4.8-6.8-8.7-11.6-11.6
	c-15-8.6-36.1-2.1-50.3,2.3c-8.7,2.7-14.3,5.4-22.4,3.9C222.5,135.7,219.1,132.6,215.9,134.6z"/><path fill="#1b8d25" d="M294.7 283.2c-5.3 4.9-5.8 9.8-10.2 17.3-6.6 11.4-11.8 11.5-11 15.7 1.3 7.3 17.5 10.6 21.8 17.1C308.5 319.1 308.2 297.1 294.7 283.2L294.7 283.2zM237.5 295.5c-.8-.8-1.5-1.6-2.2-2.3-5.1 10.9-4.5 23.6 1.6 34 4.5-6.4 15.8-12.9 15.2-19.3C251.9 303.6 246.9 304.8 237.5 295.5z"/><ellipse cx="201.2" cy="263.4" fill="#d64142" rx="35.6" ry="33.6"/><path fill="#1b8d25" d="M99.1 291.6c4.9 3.3 9.9 6.2 15.1 8.8 5.2 2.6 10.5 5 16 7.1 5.4 2.1 11 3.9 16.6 5.3 5.6 1.5 11.3 2.6 17.1 3.4 5.8.8 11.6 1.2 17.4 1.2 5.8 0 11.6-.5 17.4-1.3 5.8-.8 11.5-2.1 17-3.8 5.6-1.7 11.1-3.7 16.4-6-10.4 5.5-21.6 9.3-33.2 11.4l-4.4.7c-1.5.2-2.9.3-4.4.5l-2.2.2-2.2.1c-1.5.1-2.9.2-4.4.2-5.9.1-11.8-.3-17.6-1.1-11.7-1.6-23.1-4.7-34-9.3C118.7 304.5 108.5 298.7 99.1 291.6zM382.9 162.4c-1.4 4.9-3.3 9.7-5.7 14.3-2.4 4.6-5.2 8.9-8.3 13-3.2 4.1-6.8 7.8-10.7 11.1l-3 2.4c-1.1.7-2.2 1.4-3.2 2.1l-1.6 1c-.6.3-1.1.6-1.7.9-1.1.6-2.3 1.1-3.5 1.7 1.1-.7 2.1-1.4 3.2-2.1l1.6-1.1 1.5-1.2c1-.8 2-1.5 3-2.3l2.8-2.5c1-.8 1.8-1.8 2.7-2.6.9-.9 1.8-1.8 2.6-2.7l2.5-2.8 2.4-3c3.1-4 6-8.2 8.5-12.5C378.4 171.6 380.8 167.1 382.9 162.4zM304.9 311.6c5 .5 10 .5 15 0 1.2-.1 2.5-.2 3.7-.4l3.7-.6c2.5-.3 4.9-.9 7.3-1.4 9.7-2.3 19.2-5.5 28.2-9.7l6.7-3.2c2.2-1.1 4.4-2.4 6.6-3.6 4.4-2.3 8.5-5.2 12.8-7.8l1.6-1c.5-.3 1-.7 1.5-1.1l3-2.2 6.1-4.4c3.9-3.1 7.8-6.3 11.7-9.4-1.8 1.7-3.7 3.4-5.5 5.1-1.9 1.7-3.7 3.4-5.6 5.1l-5.9 4.7-3 2.3c-.5.4-1 .8-1.5 1.1l-1.6 1.1-6.3 4.2c-2.1 1.5-4.3 2.7-6.5 3.9l-3.3 1.9c-1.1.6-2.2 1.3-3.3 1.8l-6.8 3.3c-9.2 4.2-18.8 7.4-28.7 9.4l-3.7.7c-.6.1-1.2.2-1.9.3l-1.9.2-3.8.4c-1.3.1-2.5.1-3.8.2C314.9 312.8 309.9 312.5 304.9 311.6z"/><path fill="#fbb641" d="M262.7,119.5c0,0-47.2-27.1-17-56.5c0,0,14.7-15.5,10.8-27.8c0,0,0.4,8.1,16.6,31.3s17.8,30.2,2.3,44.1"/><path fill="#7c1e66" d="M304.3,130.5c4.7,10-15.1,16.1-40.5,16.4c-23.1,0.3-42.1-2-42.7-9s17.5-14.4,40.5-16.4S301.3,124.1,304.3,130.5
	z"/><path fill="#66135b" d="M265.8,124.9c0.2,2.2,0.3,4.4,0.5,6.6l0.1,1.6c0,0.3,0,0.5,0,0.9c0,0.3,0,0.7-0.1,1c-0.3,1.3-1.3,2.4-2.6,2.8
	c-0.6,0.2-1.2,0.3-1.8,0.3c-0.6,0.1-1.1,0.1-1.7,0.1c-1.2,0-2.3,0-3.5-0.2c-2.4-0.4-4.6-1.5-6.3-3.1l1.4-1.4c1.5,1.6,3.1,3,5,4.1
	c1.7,1.2,3.7,2,5.8,2.4c2.1,0.3,4.2-0.3,5.9-1.6c1.7-1.4,3.2-3.1,4.3-5c-0.7,2.2-2,4.2-3.6,5.8c-0.9,0.8-1.9,1.4-3,1.9
	c-1.2,0.4-2.4,0.6-3.6,0.5c-2.4-0.2-4.7-1-6.7-2.3c-2-1.2-3.8-2.7-5.4-4.4c-0.4-0.4-0.4-1,0-1.4c0.4-0.4,1-0.4,1.4,0l0,0
	c1.4,1.4,3.3,2.3,5.3,2.7c1,0.2,2.1,0.3,3.1,0.3c0.5,0,1,0,1.6-0.1c0.5,0,1-0.1,1.5-0.2c1.1-0.3,1.9-1.2,2-2.4c0-0.2,0-0.5,0-0.8
	l0.1-1.6C265.4,129.3,265.5,127.1,265.8,124.9z"/><ellipse cx="268.5" cy="308.6" fill="#d64142" rx="32.5" ry="32.5" transform="matrix(.07089 -.9975 .9975 .07089 -58.393 554.516)"/><path fill="#fce6d9" d="M247.1,296.7l1.6,1.9c-1.7,0.5-3.1,1.6-3.8,3.2C244.8,301.8,246.1,297.5,247.1,296.7z"/><path fill="#66135b" d="M216.3,227.9v70.9c14.8-5.7,25.3-19.4,25.3-35.4S231.1,233.6,216.3,227.9z"/><path fill="#1b8d25" d="M231.5 288.6c-2.6-3.2-5-5.7-9.4-7.9-4.6-2.2-7.2-1.9-8.5-1.5-4.3 1-7.6 5.2-7.7 5.4-1.5 2-1.6 3.2-3.1 3.9-1.8.9-3.8.1-6.2-.8-2.8-1.1-5.4-2.7-7.7-4.6-6.4-5-12-9.3-15.5-7.7-2 .9-3.1 3.6-3.9 5.4-.5 1.5-1 3.1-1.3 4.7 14.2 18.2 40.5 21.5 58.7 7.3C228.5 291.5 230.1 290.1 231.5 288.6L231.5 288.6zM161.8 255c11.3 1.2 14.8 9 25.9 8.4 11.1-.6 20.9-9.2 25.9-18.2 2.9-5.1 4.2-11 3.9-16.8-5.1-2.1-10.7-3.2-16.2-3.2C181.9 225.2 165.8 237.9 161.8 255z"/><ellipse cx="201.2" cy="263.4" fill="#d64142" rx="35.6" ry="33.6"/><path fill="#fce6d9" d="M176.1,248.2l3.2,3.8c-3.4,0.9-6.2,3.3-7.7,6.4C171.6,258.5,174.1,249.8,176.1,248.2z"/><path fill="#66135b" d="M309.1,210.4c-11.5,6.6-19.1,18.5-19.1,32.1s7.7,25.5,19.1,32.1V210.4z"/><path fill="#1b8d25" d="M350.3 274.2c-1.7-.5-1.7-2.6-3.8-5.4-1.2-1.6-3-3.9-5.1-4.2-3.8-.6-8 5-13 11.5-.9 1.3-1.9 2.5-3 3.7 1.4.1 2.8.2 4.2.2 7.4 0 14.6-1.9 21-5.7C350.5 274.3 350.4 274.3 350.3 274.2zM364.7 259.2c-2.7.3-3.3 4.7-6.8 9.4 2.9-2.8 5.3-6 7.1-9.5C364.9 259.2 364.8 259.2 364.7 259.2zM329.6 205c-8.1 0-16 2.3-22.7 6.8-.6 6.2.8 12.5 3.8 18 5 9 14.8 17.5 25.9 18.2 12.6.7 15.4-9.4 30.9-8.5.5 0 1 .1 1.5.1C367.4 220.2 350.4 205 329.6 205z"/><ellipse cx="329.6" cy="242.5" fill="#d64142" rx="35.6" ry="33.6"/><path fill="#fce6d9" d="M305.1,230.2l1.6,1.9c-1.7,0.5-3.1,1.6-3.8,3.2C302.8,235.3,304.1,231,305.1,230.2z"/><path fill="#ea6f4a" d="M261.9,111c0,0-21.6-12.4-7.8-25.9c0,0,6.7-7.1,5-12.8c0,0,0.2,3.7,7.6,14.4s8.2,13.8,1.1,20.2"/><g enable-background="new"><path fill="#d64142" d="M198.1 393.7c-.6.5-1.5 1-2.6 1.3s-2.4.5-3.8.5c-1.8 0-3.4-.3-4.8-.8-1.4-.5-2.3-1.2-2.7-2.2-.5-1.1-1.1-2.8-1.7-5.1-.7-2.3-1.3-4.9-1.9-7.7-.6-2.8-1.2-5.6-1.8-8.5-.6-2.9-1-5.4-1.3-7.6.6-.6 1.5-1.2 2.5-1.7 1.1-.5 2.2-.7 3.5-.7 1.6 0 2.9.3 3.9 1 1 .7 1.6 1.9 1.9 3.6.4 3.4.8 6.2 1.1 8.5.3 2.2.6 4.1.8 5.5s.4 2.5.5 3.2c.1.7.2 1.3.3 1.8h.3c.1-.7.4-1.8.7-3.1.3-1.4.7-2.9 1.2-4.7.4-1.8.9-3.7 1.4-5.7.5-2 1-4.1 1.5-6.1.9-.5 1.8-.9 2.7-1.1s2-.4 3.3-.4c1.6 0 2.9.2 4.1.7 1.1.5 1.8 1.3 2.2 2.3.5 2 1.1 3.9 1.6 5.8.5 1.9.9 3.6 1.4 5.2.4 1.6.8 3 1.1 4.3.3 1.2.5 2.2.7 2.9h.3c.5-3.5 1-7.1 1.5-10.8.5-3.7.9-7.5 1.3-11.4.8-.5 1.7-.9 2.6-1.1.9-.2 1.8-.3 2.7-.3 1.6 0 2.9.3 3.9 1 1 .7 1.6 1.8 1.6 3.5 0 .7-.1 1.8-.3 3.2-.2 1.4-.5 3.1-.9 4.9-.4 1.8-.8 3.7-1.2 5.7-.5 2-.9 3.9-1.4 5.7-.5 1.8-.9 3.5-1.4 5-.4 1.5-.8 2.6-1.1 3.4-.6.5-1.6 1-2.9 1.3-1.3.3-2.7.5-4.2.5-3.8 0-6-.9-6.7-2.8-.3-.8-.6-1.8-1-3.1s-.8-2.6-1.3-4.1c-.5-1.5-.9-3-1.3-4.6-.4-1.6-.7-3.1-1-4.6-.3 1.6-.7 3.2-1.1 4.9-.5 1.7-.9 3.3-1.4 4.9-.5 1.6-.9 3.1-1.3 4.4S198.3 392.9 198.1 393.7zM246.3 360.8c2.4 0 4.6.2 6.7.7 2 .5 3.7 1.2 5.1 2.3 1.4 1 2.5 2.3 3.3 3.8s1.1 3.4 1.1 5.5v15.1c0 1.2-.3 2.1-1 2.9-.7.7-1.4 1.4-2.3 1.9-2.9 1.8-7 2.6-12.4 2.6-2.4 0-4.5-.2-6.5-.7-1.9-.4-3.6-1.1-4.9-2-1.4-.9-2.4-2-3.2-3.4-.7-1.4-1.1-3-1.1-4.9 0-3.1.9-5.5 2.8-7.2 1.8-1.7 4.7-2.7 8.6-3.1l8.8-.9v-.5c0-1.3-.6-2.2-1.7-2.8-1.1-.6-2.8-.8-5-.8-1.7 0-3.4.2-5 .5-1.6.4-3.1.8-4.4 1.4-.6-.4-1.1-1-1.5-1.9-.4-.8-.6-1.7-.6-2.6 0-1.2.3-2.1.8-2.8.6-.7 1.4-1.3 2.6-1.8 1.3-.5 2.8-.9 4.6-1.1C243.1 361 244.7 360.8 246.3 360.8zM246.8 387.4c.8 0 1.6-.1 2.5-.2.9-.2 1.6-.4 2.1-.6v-5.4l-4.9.4c-1.3.1-2.3.4-3.1.8-.8.5-1.2 1.1-1.2 2 0 .9.3 1.6 1 2.2C244 387.1 245.2 387.4 246.8 387.4z"/></g><path fill="#d64142" d="M281 394.6c-.5.1-1.2.3-2.1.4-1 .1-2 .2-3 .2-1 0-1.9-.1-2.7-.2-.8-.1-1.5-.4-2-.8-.5-.4-1-1-1.2-1.7-.3-.7-.4-1.6-.4-2.7v-20.3c0-1 .2-1.9.6-2.7.4-.7.9-1.4 1.7-2 .7-.6 1.6-1.1 2.7-1.6 1.1-.5 2.2-.9 3.4-1.2 1.2-.4 2.5-.6 3.8-.8 1.3-.2 2.6-.3 3.9-.3 2.2 0 3.9.4 5.1 1.2 1.3.8 1.9 2.2 1.9 4.1 0 .6-.1 1.2-.3 1.9-.2.6-.4 1.2-.7 1.7-.9 0-1.9 0-2.9.1-1 .1-2 .2-2.9.4s-1.8.4-2.7.6c-.8.2-1.5.4-2.1.7V394.6zM312.4 360.8c1.8 0 3.7.3 5.4.8s3.3 1.3 4.6 2.3c1.4-.9 2.9-1.6 4.6-2.2s3.7-.9 6.1-.9c1.7 0 3.4.2 5 .7 1.6.5 3.1 1.2 4.4 2.1 1.3 1 2.3 2.3 3.1 3.8.8 1.6 1.1 3.5 1.1 5.8v21.3c-.5.1-1.2.3-2.1.4-1 .1-2 .2-3 .2-1 0-1.9-.1-2.7-.2-.8-.1-1.5-.4-2-.8-.5-.4-1-1-1.2-1.7-.3-.7-.4-1.6-.4-2.7v-16.1c0-1.4-.4-2.3-1.1-2.9-.8-.6-1.8-.9-3.1-.9-.6 0-1.3.1-2 .4-.7.3-1.3.6-1.6.9 0 .2.1.3.1.5 0 .2 0 .3 0 .4v22.5c-.5.1-1.2.3-2.2.4-1 .1-1.9.2-2.9.2s-1.9-.1-2.7-.2c-.8-.1-1.5-.4-2-.8-.5-.4-1-1-1.2-1.7-.3-.7-.4-1.6-.4-2.7v-16.1c0-1.4-.4-2.3-1.2-2.9s-1.8-.9-3-.9c-.8 0-1.5.1-2.1.4-.6.2-1.1.5-1.5.7v23.7c-.5.1-1.2.3-2.1.4-1 .1-2 .2-3 .2-1 0-1.9-.1-2.7-.2-.8-.1-1.5-.4-2-.8s-1-1-1.2-1.7-.4-1.6-.4-2.7v-20.4c0-1.2.3-2.2.8-2.9.5-.7 1.2-1.4 2.1-2 1.5-1.1 3.4-2 5.7-2.6S309.9 360.8 312.4 360.8z" enable-background="new"/><g enable-background="new"><path fill="#d64142" d="M170.5 457.3c-.6.5-1.5 1-2.6 1.3s-2.4.5-3.8.5c-1.8 0-3.4-.3-4.8-.8-1.4-.5-2.3-1.2-2.7-2.2-.5-1.1-1.1-2.8-1.7-5.1-.7-2.3-1.3-4.9-1.9-7.7-.6-2.8-1.2-5.6-1.8-8.5-.6-2.9-1-5.4-1.3-7.6.6-.6 1.5-1.2 2.5-1.7 1.1-.5 2.2-.7 3.5-.7 1.6 0 2.9.3 3.9 1 1 .7 1.6 1.9 1.9 3.6.4 3.4.8 6.2 1.1 8.5.3 2.2.6 4.1.8 5.5s.4 2.5.5 3.2c.1.7.2 1.3.3 1.8h.3c.1-.7.4-1.8.7-3.1.3-1.4.7-2.9 1.2-4.7.4-1.8.9-3.7 1.4-5.7.5-2 1-4.1 1.5-6.1.9-.5 1.8-.9 2.7-1.1s2-.4 3.3-.4c1.6 0 2.9.2 4.1.7 1.1.5 1.8 1.3 2.2 2.3.5 2 1.1 3.9 1.6 5.8.5 1.9.9 3.6 1.4 5.2.4 1.6.8 3 1.1 4.3.3 1.2.5 2.2.7 2.9h.3c.5-3.5 1-7.1 1.5-10.8.5-3.7.9-7.5 1.3-11.4.8-.5 1.7-.9 2.6-1.1.9-.2 1.8-.3 2.7-.3 1.6 0 2.9.3 3.9 1 1 .7 1.6 1.8 1.6 3.5 0 .7-.1 1.8-.3 3.2-.2 1.4-.5 3.1-.9 4.9-.4 1.8-.8 3.7-1.2 5.7-.5 2-.9 3.9-1.4 5.7-.5 1.8-.9 3.5-1.4 5-.4 1.5-.8 2.6-1.1 3.4-.6.5-1.6 1-2.9 1.3-1.3.3-2.7.5-4.2.5-3.8 0-6-.9-6.7-2.8-.3-.8-.6-1.8-1-3.1s-.8-2.6-1.3-4.1c-.5-1.5-.9-3-1.3-4.6-.4-1.6-.7-3.1-1-4.6-.3 1.6-.7 3.2-1.1 4.9-.5 1.7-.9 3.3-1.4 4.9-.5 1.6-.9 3.1-1.3 4.4S170.7 456.5 170.5 457.3zM204.9 416.4c0-1.7.6-3.2 1.7-4.3s2.7-1.8 4.6-1.8c1.9 0 3.4.6 4.6 1.8s1.7 2.6 1.7 4.3c0 1.7-.6 3.2-1.7 4.3s-2.7 1.8-4.6 1.8c-1.9 0-3.4-.6-4.6-1.8S204.9 418.1 204.9 416.4zM216.9 458.3c-.5.1-1.2.2-2.2.4-1 .2-1.9.2-2.9.2-1 0-1.9-.1-2.7-.2-.8-.1-1.5-.4-2-.8-.5-.4-1-1-1.2-1.7-.3-.7-.4-1.6-.4-2.7V426c.5-.1 1.2-.2 2.2-.4 1-.2 1.9-.2 2.9-.2 1 0 1.9.1 2.7.2.8.1 1.5.4 2 .8.5.4 1 1 1.2 1.7.3.7.4 1.6.4 2.7V458.3zM251.9 448.6c0 3.4-1.3 6.1-3.8 8s-6.3 2.9-11.3 2.9c-1.9 0-3.6-.1-5.3-.4-1.6-.3-3-.7-4.2-1.2-1.1-.6-2-1.3-2.7-2.1-.7-.9-1-1.9-1-3 0-1.1.2-2 .7-2.7s1-1.4 1.6-1.9c1.3.7 2.8 1.4 4.5 1.9 1.7.6 3.6.8 5.8.8 1.4 0 2.5-.2 3.2-.6s1.1-.9 1.1-1.6c0-.6-.3-1.1-.8-1.5-.5-.4-1.4-.7-2.7-.9l-2-.4c-3.9-.8-6.8-2-8.7-3.6-1.9-1.6-2.9-4-2.9-7.1 0-1.7.4-3.2 1.1-4.5.7-1.4 1.7-2.5 3-3.4 1.3-.9 2.9-1.6 4.7-2.1 1.8-.5 3.8-.7 6-.7 1.7 0 3.2.1 4.7.4 1.5.2 2.7.6 3.8 1.1 1.1.5 1.9 1.1 2.6 1.9.6.8.9 1.7.9 2.8 0 1-.2 1.9-.6 2.7-.4.7-.9 1.4-1.5 1.9-.4-.2-.9-.5-1.6-.7-.7-.2-1.5-.5-2.4-.7-.9-.2-1.7-.4-2.6-.5s-1.7-.2-2.4-.2c-1.5 0-2.6.2-3.4.5s-1.2.9-1.2 1.6c0 .5.2.9.7 1.2.4.3 1.3.6 2.6.9l2.1.5c4.3 1 7.4 2.4 9.2 4.1C251 443.6 251.9 445.8 251.9 448.6zM289.9 458.3c-.5.1-1.2.3-2.1.4-1 .1-2 .2-3 .2-1 0-1.9-.1-2.7-.2-.8-.1-1.5-.4-2-.8-.5-.4-1-1-1.2-1.7-.3-.7-.4-1.6-.4-2.7v-15c0-1.8-.5-3.1-1.4-3.9-.9-.7-2.1-1.1-3.4-1.1-.9 0-1.8.1-2.6.3-.8.2-1.5.5-2 .8v23.6c-.5.1-1.2.3-2.1.4-1 .1-2 .2-3 .2-1 0-1.9-.1-2.7-.2-.8-.1-1.5-.4-2-.8-.5-.4-1-1-1.2-1.7-.3-.7-.4-1.6-.4-2.7v-39.2c.5-.1 1.2-.2 2.2-.4 1-.2 1.9-.2 2.9-.2s1.9.1 2.7.2c.8.1 1.5.4 2 .8s1 1 1.2 1.7c.3.7.4 1.6.4 2.7v6.6c.6-.2 1.5-.5 2.7-.8 1.2-.3 2.5-.4 4-.4 4.5 0 7.9 1.1 10.4 3.3s3.7 5.5 3.7 10V458.3zM314.3 459.4c-2.7 0-5.1-.4-7.4-1.1-2.3-.7-4.3-1.9-5.9-3.3-1.7-1.5-3-3.4-4-5.6-1-2.3-1.5-4.9-1.5-7.9 0-3 .5-5.5 1.5-7.7 1-2.1 2.2-3.9 3.8-5.3 1.6-1.4 3.4-2.4 5.4-3 2-.7 4.1-1 6.2-1 2.4 0 4.6.4 6.5 1.1 2 .7 3.6 1.7 5.1 3 1.4 1.3 2.5 2.8 3.3 4.5.8 1.8 1.2 3.7 1.2 5.7 0 1.5-.4 2.7-1.3 3.5s-2 1.3-3.6 1.6l-16.7 2.5c.5 1.5 1.5 2.6 3 3.3 1.5.7 3.3 1.1 5.3 1.1 1.8 0 3.6-.2 5.2-.7 1.6-.5 3-1 4-1.7.7.5 1.3 1.1 1.8 1.9.5.8.7 1.7.7 2.6 0 2-.9 3.5-2.8 4.5-1.4.8-3.1 1.3-4.9 1.6C317.6 459.3 315.9 459.4 314.3 459.4zM312.4 432.9c-1.1 0-2 .2-2.8.5-.8.4-1.4.8-1.9 1.4-.5.6-.9 1.2-1.1 1.9-.2.7-.4 1.4-.4 2.1l11.5-1.9c-.1-.9-.6-1.8-1.5-2.7C315.4 433.4 314.1 432.9 312.4 432.9zM361.7 448.6c0 3.4-1.3 6.1-3.8 8s-6.3 2.9-11.3 2.9c-1.9 0-3.6-.1-5.3-.4-1.6-.3-3-.7-4.2-1.2-1.1-.6-2-1.3-2.7-2.1-.7-.9-1-1.9-1-3 0-1.1.2-2 .7-2.7s1-1.4 1.6-1.9c1.3.7 2.8 1.4 4.5 1.9 1.7.6 3.6.8 5.8.8 1.4 0 2.5-.2 3.2-.6s1.1-.9 1.1-1.6c0-.6-.3-1.1-.8-1.5-.5-.4-1.4-.7-2.7-.9l-2-.4c-3.9-.8-6.8-2-8.7-3.6-1.9-1.6-2.9-4-2.9-7.1 0-1.7.4-3.2 1.1-4.5.7-1.4 1.7-2.5 3-3.4 1.3-.9 2.9-1.6 4.7-2.1 1.8-.5 3.8-.7 6-.7 1.7 0 3.2.1 4.7.4 1.5.2 2.7.6 3.8 1.1 1.1.5 1.9 1.1 2.6 1.9.6.8.9 1.7.9 2.8 0 1-.2 1.9-.6 2.7-.4.7-.9 1.4-1.5 1.9-.4-.2-.9-.5-1.6-.7-.7-.2-1.5-.5-2.4-.7-.9-.2-1.7-.4-2.6-.5s-1.7-.2-2.4-.2c-1.5 0-2.6.2-3.4.5s-1.2.9-1.2 1.6c0 .5.2.9.7 1.2.4.3 1.3.6 2.6.9l2.1.5c4.3 1 7.4 2.4 9.2 4.1C360.8 443.6 361.7 445.8 361.7 448.6z"/></g></svg>