<svg xmlns="http://www.w3.org/2000/svg" data-name="Layer 1" viewBox="0 0 512 512"><path stroke="#fff" stroke-linecap="round" stroke-linejoin="round" stroke-width="40" d="M434.29116,349.0917c-3.98308-19.81746-4.08817-41.26029-18.69019-58.516-1.713-2.0243-2.28946-4.92626-3.41335-7.413-3.89182-8.61111-1.85432-14.16367,8.19173-15.59942-7.576-6.55764-13.79652-12.43364-6.26132-23.3393a19.71588,19.71588,0,0,0,2.4738-18.55973c1.174-1.89732,1.22186-2.467,2.60539-3.94093,3.56585-3.79936,6.12052-3.07527,6.995-5.59631.9848-2.83848-2.13894-4.09064-2.09846-9.09327a18.96429,18.96429,0,0,1,2.09846-7.6944c1.702-3.72859,2.88679-3.9036,2.798-5.59631-.19111-3.64366-5.78281-4.73581-5.59594-7.6944.13576-2.15,3.122-2.08736,4.197-4.89624.73235-1.91363-.04655-3.52912-3.49749-11.19221-3.31849-7.36881-3.18766-7.18392-3.49748-7.6944a30.60174,30.60174,0,0,0-9.09348-9.79291c-.309-.20848-.68587-.42982-1.13789-.67476C410.07157,120.18278,372.703,19.09,261.8102,37.05565,142.08941,56.45186,134.92253,199.2669,134.52418,211.75244c-.54651.57868-.93767,1.0587-1.07188,1.22728-3.65277,4.58567-1.92135,7.70212-5.596,11.89142a13.16022,13.16022,0,0,1-6.29548,4.1966c-4.73066,1.30492-6.85384-1.582-11.19194,0a11.22592,11.22592,0,0,0-5.596,4.89667c-.8914,1.70986-.47846,2.26881-1.399,6.99518-.7427,3.81309-1.11408,5.71986-2.09845,6.99475-1.10857,1.43619-1.64992,1.10459-5.596,4.197-3.16337,2.479-3.40472,3.15421-3.49748,3.49738-.69107,2.55922,2.16886,4.12453,1.399,6.29553-.75525,2.12983-4.24582,2.70551-4.89646,2.79816-2.98154.42425-3.81722-1.10673-6.29548-.69964-3.20144.52591-6.11156,3.78735-5.596,5.59588.4258,1.4941,2.87746.90555,6.29548,3.49781,1.28519.97461,2.924,2.21733,3.49748,4.197.88175,3.0431-1.24465,6.1351-2.798,8.39362-3.42809,4.985-6.4136,5.38612-6.29548,7.69483.13711,2.67933,4.29617,4.81,6.995,5.59589,4.6905,1.36583,6.50514-.88282,9.09348.69921,1.38776.8485,2.02725,2.2049,4.197,11.89185,1.76049,7.85956,1.87524,9.35837,3.49749,10.49213,2.96052,2.06934,5.63776-.78458,9.09347,1.3993,2.67371,1.68927,1.84693,3.88816,5.596,7.6944,1.87078,1.899,3.51137,3.64022,5.59594,3.49737,2.87307-.19689,3.36306-3.60633,6.995-4.89667.90373-.32087,2.03883-.52377,9.793,1.3993,8.08545,2.005,8.6881,2.68105,10.49245,2.09851,3.79636-1.22642,3.18889-4.88509,7.6945-6.99518,2.80116-1.31179,5.49589-1.04969,9.09343-.69922,6.38846.62157,7.24982,2.66947,11.192,2.09851,2.93837-.426,7.0133-2.2242,8.394-5.59632,1.05617-2.57938.23776-5.45046-1.399-11.19177-1.16121-4.07348-1.85684-4.72337-1.399-6.29554.75659-2.59826,3.21876-2.75612,6.995-6.29553a20.032,20.032,0,0,0,4.89651-6.29554c2.56351-5.56671,1.07649-11.28014.69948-12.59064-1.09226-3.79722-2.52168-4.20131-2.798-6.99518-.39181-3.96152,2.05652-7.45418,4.197-9.79291.01324-.06048,2.07459-4.61484.69954-6.99518-.37112-.64217-1.09972-1.31178-4.89651-2.09851-6.83432-1.416-8.23866-.02617-9.793-1.39887-2.6581-2.34731.95151-6.85062-2.09851-12.59107a11.22387,11.22387,0,0,0-4.89645-4.89624,11.3594,11.3594,0,0,0-7.69451-.69964c-.03373.00943-6.2188,3.31335-9.09348,1.39886-.90035-.59927-.96963-1.37613-1.29521-2.65188.0912.35519.16467.67563.239.95917,6.44235-28.32947,28.59549-94.56514,99.7904-136.61173a84.27076,84.27076,0,0,0-2.49021,8.82731l.00493-.00086c-15.79251,14.7209-23.03386,36.08093-26.26592,50.36085a8.17738,8.17738,0,0,0-4.57988,1.12346c-2.18146,1.35425-1.60085,2.27525-4.89651,5.59589-2.79376,2.81489-3.41785,2.3619-5.596,4.89624a13.338,13.338,0,0,0-3.49749,6.29554c-.48966,2.585.51487,2.90368,0,4.89667-1.04652,4.05074-5.68591,4.6247-5.596,6.99475.09169,2.41638,4.94214,2.58024,5.596,5.59632.58072,2.678-2.46871,6.12909-5.596,7.69439-4.02474,2.01444-6.60107.1154-8.39394,2.09852-2.08677,2.30784-.91981,7.44945,1.399,10.49255,1.50638,1.97669,3.45931,3.01522,6.995,4.89624,4.34775,2.313,5.51417,2.00672,6.29548,3.49738,1.45838,2.78315-1.9199,5.1592-.69949,9.09369a7.44818,7.44818,0,0,0,4.89651,4.89625c3.09656.77771,4.50454-1.89476,7.33729-1.46064a32.94929,32.94929,0,0,1-10.864,18.79051c6.2446,6.82746,11.65694,13.84924,8.18562,23.58123-.46178,1.29506-.04037,3.07656.42189,4.51232,2.61778,8.13066.01663,14.68529-5.06589,20.94608-4.60433,5.67181-7.52469,12.24532-6.39688,19.91312.6575,4.47028-1.42643,8.09205-2.97736,11.91116,5.53326,1.30792,11.08239,4.16656,8.87545,10.00525-3.05639,8.08647,1.06953,13.07323,5.80807,18.42718,8.35823,9.44416,11.65243,19.37477,4.80557,30.53437-4.38765,7.1509-.428,11.38567,6.22159,14.5004,8.01575,3.75519,15.80956,7.86728,21.02887,15.20006,11.57752,16.26646,34.94475,16.61221,46.48356,32.91986.32779.46329,1.52177.59412,2.2693.5345,13.55673-1.08272,22.56924,6.628,30.34058,15.94517,7.48169,8.96929,14.81205,7.87671,22.25669,1.39457a81.0672,81.0672,0,0,0,10.09179-10.84045c4.73431-5.96737,9.41113-11.483,18.55544-6.77126,2.09632,1.08014,4.04871.84507,5.024-1.10888,4.65436-9.32534,12.06205-15.22536,22.50163-18.0291,2.52437-.67777,3.63529-3.70886,4.20469-6.45082,2.15637-10.38317,5.94742-20.409,5.9093-31.27091-.01764-5.03609.69782-9.934,4.75506-13.56826C435.284,374.4643,436.61944,360.676,434.29116,349.0917Zm-278.45494-120.024a11.01088,11.01088,0,0,0-2.89778-3.71058A10.97715,10.97715,0,0,1,155.83622,229.06774Zm.40833.749c.023.04505.04209.08666.06413.13084C156.28664,229.90337,156.26755,229.86176,156.24455,229.81671Zm.33084.68979c.02252.05018.04268.09823.06408.14756C156.61812,230.60473,156.59786,230.55668,156.57539,230.5065Zm.26569.63615c.01823.04719.03566.09309.05287.139Q156.8683,231.21279,156.84108,231.14265Zm-14.153-13.88869a6.76438,6.76438,0,0,0,.55718-2.87538A6.7462,6.7462,0,0,1,142.68808,217.254Zm-2.874-8.59095a2.83235,2.83235,0,0,0-.34682-.00214A2.751,2.751,0,0,1,139.81405,208.663Zm-.50586.00644a3.45726,3.45726,0,0,0-.4628.0815A3.5269,3.5269,0,0,1,139.30819,208.66945Zm-.65289.13727c-.101.03-.202.06263-.303.10038C138.45337,208.86935,138.55423,208.83675,138.6553,208.80672Zm-.52661.18874c-.09571.04119-.19094.08666-.28612.13341C137.9378,209.08212,138.033,209.03665,138.12869,208.99546Zm-.63128.31487c-.09335.05276-.18665.10509-.27894.16215C137.31081,209.41585,137.40406,209.36309,137.49741,209.31033Zm-.53358.3273c-.06982.04676-.13909.09394-.208.14242C136.82479,209.73157,136.894,209.68439,136.96383,209.63763Zm-.46441.32644c-.055.04119-.10832.08408-.16258.12612C136.3911,210.04815,136.4444,210.00526,136.49942,209.96407Zm-.64989.52292c-.04279.03646-.0859.07249-.12794.10938C135.76363,210.55948,135.80674,210.52345,135.84953,210.487Zm-.40419.3569-.07717.07164C135.394,210.8915,135.41917,210.86791,135.44534,210.84389Zm4.52775-2.16672a2.42907,2.42907,0,0,1,.47417.10553c1.54531.53063,2.42716,2.60126,2.70293,4.49558-.27593-1.89432-1.15886-3.96366-2.70293-4.49558A2.43,2.43,0,0,0,139.97309,208.67717ZM157.217,232.26183c.01067.03689.02236.0755.03255.11153C157.23948,232.33733,157.22747,232.29872,157.217,232.26183Zm-.16531-.53363c.01378.04118.0281.08279.04113.12354C157.07985,231.81142,157.06532,231.76938,157.05165,231.7282Z"/><path fill="#ece4f6" d="M420.37932,267.5633c-10.046,1.4357-12.08353,6.98828-8.19169,15.59952,1.12387,2.4869,1.7003,5.38855,3.41335,7.413,14.602,17.25557,14.70709,38.69831,18.69015,58.516,2.32827,11.58427.99281,25.37247-9.57507,34.83793-4.05726,3.634-4.77274,8.53178-4.75508,13.56812.03812,10.86162-3.75295,20.88754-5.90928,31.27081-.5694,2.74181-1.68033,5.77283-4.20473,6.45076-10.43957,2.8036-17.84723,8.704-22.50161,18.02913-.97528,1.95379-2.9277,2.189-5.024,1.10891-9.1443-4.7118-13.82114.80368-18.55547,6.77127a81.06169,81.06169,0,0,1-10.09178,10.84062c-7.44465,6.48211-14.775,7.57463-22.25666-1.39491-7.77134-9.31686-16.78386-17.02766-30.34062-15.94509-.74753.05971-1.94149-.0712-2.26926-.5344-11.53882-16.30754-34.90609-16.65352-46.4836-32.91979-5.2193-7.333-13.01313-11.44512-21.02887-15.20009-6.64957-3.11475-10.60922-7.3494-6.22155-14.50064,6.84686-11.15928,3.55261-21.09024-4.8056-30.53407-4.73853-5.354-8.86448-10.341-5.80808-18.42721,2.207-5.83893-3.34218-8.69729-8.87544-10.00537,1.55094-3.81928,3.63487-7.441,2.97739-11.91112-1.12785-7.66774,1.79252-14.24121,6.39688-19.91308,5.08249-6.26088,7.68365-12.8156,5.06588-20.94623-.46227-1.4357-.88367-3.21734-.42188-4.512,3.47131-9.73229-1.941-16.7539-8.18565-23.5815,6.13215-5.565,9.99778-12.13252,11.15244-20.54123.57373-4.17816,4.84814-6.62549,8.57883-8.73489a63.49712,63.49712,0,0,0,13.15829-9.22478c8.06135-7.79968,17.32053-12.05131,29.38513-11.17428a30.16468,30.16468,0,0,0,19.87352-5.716c6.733-4.79846,14.26051-5.7472,22.372-2.83436,4.96109,1.78144,10.21915,3.18158,15.13818,1.72865,19.5672-5.7797,38.91905,2.78117,58.36635,2.39785,5.66364,6.03216,13.91405,8.87358,19.37011,15.29633,8.33879,9.8162,12.6196,20.79829,5.30613,31.38285C406.5828,255.12961,412.80334,261.00556,420.37932,267.5633Z"/><path fill="#f5c092" d="M306.43932,229.73621c7.60418-2.55188,14.902-1.37878,22.0339,1.812,4.25861,4.89146,9.07057,8.46333,16.09851,6.75053,6.66535,2.68213,13.16553,5.97428,20.05217,7.83933,4.86852,1.31857,5.33436,3.64145,5.22129,7.89422-.39351,14.80437-.24473,15.04341-15.35037,14.52182-10.4585-.36113-19.84552-.594-20.81415,13.81983-.35127,5.2267-6.02054,6.33593-10.717,6.4447-13.06777.30272-24.90377-3.05871-33.10367-13.90451-4.635-6.13045-10.61373-9.12063-17.56961-7.98646-9.88447,1.61171-11.52779-6.164-13.95959-11.71064-2.65751-6.06162,4.80573-6.61254,7.9272-9.028,6.51087-5.03833,13.56312-9.47911,21.51164-12.143,3.47791-.659,6.91683-1.52207,10.4276-2.01144C301.19211,232.15869,304.19709,232.3266,306.43932,229.73621Z"/><path fill="#d64142" d="M314.972,90.91711c-81.84127-14.68946-88.83625,80.44227-88.83625,80.44227s172.776.6995,182.569-11.192S387.02031,16.77033,261.81017,37.05577s-127.30863,175.574-127.30863,175.574l.021-.87437c1.413-1.49692,3.9032-3.66537,5.92475-2.97286,1.85367.63654,2.756,3.49049,2.798,5.596.077,3.7633-2.61612,4.82654-2.09849,7.69448.46167,2.58114,3.23168,4.95944,5.596,4.89648,2.27337-.056,2.87494-2.32233,4.89649-2.09849,1.88165.20985,3.13375,2.3643,4.197,4.197a15.004,15.004,0,0,1,1.74175,4.60269v0c6.44237-28.32967,28.59547-94.56513,99.79038-136.61195h0a84.26764,84.26764,0,0,0-2.49021,8.82766"/><path fill="#ece4f6" d="M121.56082 229.068a13.16255 13.16255 0 0 0 6.29549-4.197c3.6746-4.189 1.94322-7.30567 5.596-11.89147.4811-.604 4.187-5.16462 6.995-4.197 1.85218.63825 2.7563 3.48971 2.798 5.596.07455 3.76554-2.61369 4.82849-2.09849 7.69448.46432 2.58294 3.22966 4.95628 5.596 4.89648 2.27077-.05738 2.87545-2.32253 4.89649-2.09849 1.87963.20837 3.13232 2.36448 4.197 4.197 2.16333 3.72353 1.25116 5.26534 2.798 6.29548 2.87464 1.91442 9.05972-1.38956 9.09347-1.399a11.35846 11.35846 0 0 1 7.69448.6995 11.22458 11.22458 0 0 1 4.89649 4.89649c3.05 5.74033-.55959 10.24356 2.09849 12.591 1.55432 1.37263 2.95864-.017 9.793 1.399 3.7968.78663 4.52542 1.45627 4.89649 2.09849 1.3751 2.38-.6863 6.93472-.6995 6.995-2.14048 2.339-4.58879 5.83159-4.197 9.793.27631 2.79368 1.70575 3.19793 2.798 6.995.377 1.31066 1.86405 7.02408-.69949 12.591a20.03449 20.03449 0 0 1-4.89649 6.29548c-3.77622 3.53937-6.23839 3.69721-6.995 6.29548-.45784 1.57229.23774 2.22205 1.399 6.29548 1.63679 5.74151 2.45519 8.61225 1.399 11.192-1.38066 3.3722-5.45561 5.17011-8.394 5.596-3.94219.57138-4.80356-1.47687-11.192-2.09849-3.59758-.35007-6.29231-.61227-9.09348.6995-4.5056 2.11-3.8981 5.7687-7.69447 6.995-1.80437.58283-2.407-.09335-10.49247-2.0985-7.7541-1.923-8.88923-1.72-9.793-1.399-3.63194 1.29021-4.12194 4.69945-6.995 4.89648-2.08458.143-3.72515-1.59822-5.596-3.49749-3.749-3.806-2.92226-6.00488-5.596-7.69447-3.45568-2.18371-6.13294.67029-9.09348-1.399-1.62222-1.13387-1.737-2.63283-3.49749-10.49247-2.16976-9.68671-2.80924-11.043-4.197-11.89147-2.58835-1.58247-4.403.66633-9.09347-.69949-2.6988-.78587-6.85788-2.91641-6.995-5.596-.11811-2.3085 2.86738-2.7097 6.29548-7.69448 1.55333-2.25868 3.67971-5.35062 2.798-8.394-.57352-1.97959-2.21227-3.22235-3.49749-4.197-3.418-2.59206-5.86966-2.00363-6.29548-3.49749-.51555-1.80869 2.39455-5.07025 5.596-5.596 2.47827-.407 3.31395 1.12392 6.29548.69949.65065-.09262 4.14122-.668 4.89648-2.798.76988-2.17114-2.09005-3.73623-1.399-6.29548.09275-.34347.33411-1.01836 3.49749-3.49749 3.94609-3.09256 4.48745-2.761 5.596-4.197.98436-1.27514 1.35574-3.18174 2.0985-6.995.92055-4.726.50761-5.28521 1.399-6.995a11.22367 11.22367 0 0 1 5.596-4.89648C114.707 227.48564 116.83017 230.37263 121.56082 229.068zM197.45636 211.93027c-2.31881-3.04274-3.48574-8.18442-1.399-10.49247 1.79291-1.98307 4.36922-.08418 8.394-2.0985 3.12728-1.56514 6.17666-5.01622 5.596-7.69448-.65385-3.01571-5.50429-3.17959-5.596-5.596-.08995-2.3703 4.54943-2.944 5.596-6.995.51484-1.99283-.48969-2.31162 0-4.89649a13.3381 13.3381 0 0 1 3.49749-6.29548c2.17811-2.53472 2.80223-2.08154 5.596-4.89648 3.29564-3.32064 2.715-4.24135 4.89649-5.596 3.086-1.91635 4.54551-.25857 7.69448-2.09849 3.38736-1.97921 2.72008-4.4944 5.596-5.596 2.98565-1.14362 4.33281 1.32664 8.394.6995 3.14616-.48584 2.96933-2.06592 7.69448-4.197 3.80437-1.71579 4.25761-.84424 9.793-2.798 5.382-1.89961 5.44679-2.89765 7.69448-2.798 4.43889.19682 4.98983 4.12494 9.09347 4.197 3.35993.059 3.93361-2.55781 9.09347-3.49749a27.75566 27.75566 0 0 1 6.29549 0c8.68527.49929 9.71326 1.88524 12.591.6995 3.24592-1.33747 6.29561-4.89632 6.29548-4.89649h0c0 .0002 4.81682.20789 9.09348.6995 6.76588.77775 6.58189 1.62268 9.793 1.399 4.51356-.31442 5.0188-1.99365 7.69448-1.399 4.14084.92029 3.99205 5.178 7.69447 6.29548 4.86122 1.46726 7.70366-5.09213 13.29047-4.197 4.783.76635 4.45782 5.85572 10.49247 7.69448 3.25483.99176 6.27037.40124 11.89146-.6995 6.00632-1.17617 5.95421-2.24424 9.09348-2.09849 2.382.11059 5.35109 1.47422 11.192 4.197a63.54421 63.54421 0 0 1 6.995 3.49749 30.60148 30.60148 0 0 1 9.09348 9.793c.30985.51029.179.32543 3.49749 7.69448 3.451 7.66318 4.22986 9.27842 3.49749 11.192-1.075 2.8088-4.0612 2.74632-4.197 4.89649-.18683 2.95844 5.40489 4.05044 5.596 7.69448.08876 1.69249-1.09595 1.86767-2.798 5.596a18.96632 18.96632 0 0 0-2.09849 7.69448c-.0405 5.0025 3.08325 6.25492 2.09849 9.09347-.87446 2.52063-3.42914 1.79674-6.995 5.596-1.83454 1.95461-1.31792 2.31625-4.197 6.29548-2.44993 3.38612-3.6749 5.07919-5.596 6.29548-3.02692 1.91643-4.03151.534-9.09347 2.0985-5.59671 1.72981-6.31374 4.021-10.49247 4.197-1.53359.0646-1.92444-.22346-6.29549-1.399-8.319-2.23727-12.47844-3.35592-15.389-2.798-4.08259.7826-3.93963 2.65693-9.09348 3.49749-2.21921.36193-5.40776.882-8.394-.6995-2.84628-1.50736-2.48885-3.32456-4.89649-4.197-1.21515-.44032-2.62158-.45407-9.09347 2.09849-7.22331 2.84893-7.05456 3.49047-9.09348 3.49749a24.79582 24.79582 0 0 1-4.7851-1.50474 21.08346 21.08346 0 0 0-13.2807-.62888l-.12114.03513c-4.37163 1.279-5.30148 2.79163-6.995 2.09849-2.10183-.86026-1.61431-3.57688-3.49749-4.197-2.186-.71982-3.51359 2.71977-7.69448 3.49749-2.7873.51847-5.24756-.44287-7.69448-1.399-4.3893-1.71512-4.50584-3.36426-6.995-3.49749-3.14917-.16856-3.6482 2.43447-8.394 4.197-1.04918.38964-6.88922 2.55856-11.192 0-2.90866-1.7296-2.30894-3.95107-4.89649-4.89649-3.12859-1.14311-6.85787 1.06227-9.793 2.798-4.08278 2.41443-4.51651 4.08518-6.995 4.197-2.31485.10443-4.17514-1.252-6.29548-2.798-4.06529-2.96416-3.82889-5.0077-6.29549-5.596-3.08024-.73466-4.469 2.20888-7.69447 1.399a7.44883 7.44883 0 0 1-4.89649-4.89648c-1.22045-3.93462 2.15785-6.31043.6995-9.09348-.78132-1.491-1.94776-1.18461-6.29548-3.49749C200.91567 214.94585 198.96274 213.90693 197.45636 211.93027z"/><path fill="#d8d2d0" d="M116.31458 286.07715a19.12207 19.12207 0 0 1-5.08558-5.89844 7.95183 7.95183 0 0 1-.88916-4.13428 8.8631 8.8631 0 0 1 .53009-2.11084 7.814 7.814 0 0 1 1.03888-1.93994 8.43963 8.43963 0 0 1 3.41608-2.75537 10.13173 10.13173 0 0 1 2.08856-.68164c.33283-.08057.77667-.13037 1.02887-.17139a3.834 3.834 0 0 0 .68543-.168 2.18249 2.18249 0 0 0 1.55914-1.62647 7.55494 7.55494 0 0 0-.0838-3.13818 11.33364 11.33364 0 0 0-.9209-3.25928c-.23474-.5127-.55145-1.01074-.882-1.75488a4.94249 4.94249 0 0 1-.40252-2.56885 7.2422 7.2422 0 0 1 2.05468-4.144 9.19156 9.19156 0 0 1 3.66461-2.34668 8.87416 8.87416 0 0 1 2.14258-.4253 9.07871 9.07871 0 0 1 2.12726.06055 7.66186 7.66186 0 0 1 3.88379 1.70947 7.22265 7.22265 0 0 1 2.17847 3.47266 7.82947 7.82947 0 0 1 .05243 3.90088 7.29838 7.29838 0 0 0-3.121-6.19971 6.01287 6.01287 0 0 0-3.171-.9248 8.02174 8.02174 0 0 0-3.24047.58642 7.80591 7.80591 0 0 0-2.57319 1.936 4.52061 4.52061 0 0 0-1.16894 2.6289 2.29589 2.29589 0 0 0 .22516 1.14991c.18756.41845.55267 1.001.86566 1.63623a14.19733 14.19733 0 0 1 1.23938 4.02978 10.25311 10.25311 0 0 1-.0481 4.43164 4.97277 4.97277 0 0 1-3.55645 3.55567 6.67352 6.67352 0 0 1-1.18049.21777c-.37854.03857-.56988.04248-.8601.09277a7.4621 7.4621 0 0 0-1.5586.41211 6.78244 6.78244 0 0 0-2.6148 1.78955 5.578 5.578 0 0 0-.883 1.33838 9.453 9.453 0 0 0-.57648 1.5293 6.35657 6.35657 0 0 0 .304 3.312A24.292 24.292 0 0 0 116.31458 286.07715zM143.595 301.46582a12.004 12.004 0 0 1-1.07684-3.10352 8.62689 8.62689 0 0 1-.05029-3.43115 5.64235 5.64235 0 0 1 1.87628-3.20849 7.96919 7.96919 0 0 1 3.36169-1.48c1.11823-.25684 2.19928-.418 3.2655-.5542a20.77683 20.77683 0 0 1 3.42768-.22657c.58972.00928 1.16845.084 1.64563.11963a8.722 8.722 0 0 0 1.38788 0 12.45289 12.45289 0 0 0 2.80474-.541 15.15792 15.15792 0 0 0 2.67853-1.1919 14.85249 14.85249 0 0 1 3.26013-1.33252 16.82278 16.82278 0 0 1 3.46662-.43408 11.9089 11.9089 0 0 1 3.52911.28809 6.74107 6.74107 0 0 1 3.29614 1.81152 6.85974 6.85974 0 0 1 1.67682 3.23731 10.40761 10.40761 0 0 1-.97375 6.5498 11.807 11.807 0 0 0-.43775-6.12842 5.21509 5.21509 0 0 0-1.59961-2.21435 4.94006 4.94006 0 0 0-2.41918-.95948 12.73556 12.73556 0 0 0-2.8816.03711 14.09253 14.09253 0 0 0-2.88226.54541 13.35178 13.35178 0 0 0-2.63513 1.21143 17.48589 17.48589 0 0 1-3.18225 1.44141 15.38688 15.38688 0 0 1-3.51459.60205 11.735 11.735 0 0 1-1.82629-.04l-1.5586-.17432a18.12866 18.12866 0 0 0-2.99676.00684c-1.06732.083-2.1236.13037-3.11963.2417a6.60586 6.60586 0 0 0-2.61072.75879 3.98683 3.98683 0 0 0-1.63208 2.04443A11.888 11.888 0 0 0 143.595 301.46582zM229.983 217.17627c.20154-1.82373.5282-3.59668.84528-5.3667.16754-.88379.3692-1.749.51483-2.64307a14.83976 14.83976 0 0 1 .73224-2.792 7.69883 7.69883 0 0 1 1.75665-2.6206 7.08962 7.08962 0 0 1 2.77252-1.76416 6.75387 6.75387 0 0 1 .831-.22168 4.79345 4.79345 0 0 1 .9967-.06836 4.38142 4.38142 0 0 1 1.91718.54883c1.04962.60937 1.61786 1.18261 2.13629 1.36328a2.07977 2.07977 0 0 0 .76068.17724.81813.81813 0 0 0 .25445-.00976 2.44393 2.44393 0 0 0 .36158-.13965c.70392-.32471 1.5415-.78858 2.34112-1.18262 1.636-.80713 3.22992-1.58057 4.93353-2.29492a9.0696 9.0696 0 0 1 1.45752-.51563 6.68425 6.68425 0 0 1 1.54468-.18212 9.40576 9.40576 0 0 1 2.92414.49169 14.36472 14.36472 0 0 1 4.74676 2.88086 21.33428 21.33428 0 0 0-5.08331-1.44677 6.528 6.528 0 0 0-4.55066.87011c-1.50458.90821-3.08893 1.81543-4.6236 2.70215-.78747.44971-1.51007.88135-2.41766 1.353a4.8961 4.8961 0 0 1-.89435.34424 3.68541 3.68541 0 0 1-1.08227.11133 5.043 5.043 0 0 1-1.85425-.40284 18.116 18.116 0 0 1-2.39691-1.53662 1.5859 1.5859 0 0 0-1.45936-.13134 4.78953 4.78953 0 0 0-1.8153.981 6.22277 6.22277 0 0 0-1.44245 1.67676 17.09355 17.09355 0 0 0-.95861 2.32227c-.30347.84668-.65595 1.69238-.99469 2.5332C231.52087 213.88672 230.81451 215.55713 229.983 217.17627zM294.33685 187.09814a10.62807 10.62807 0 0 1-2.04931-4.2124 16.693 16.693 0 0 1-.32068-2.3667 8.48178 8.48178 0 0 1 .16711-2.54687 4.27716 4.27716 0 0 1 1.66205-2.59766 3.08842 3.08842 0 0 1 .9021-.40967 6.13749 6.13749 0 0 1 .69891-.15088c.41993-.06982.79889-.11718 1.18079-.1665 1.50812-.18457 3.00146-.32129 4.47168-.47754l1.063-.11767c.34045-.0337.64667-.13428.478-.06641a1.57035 1.57035 0 0 0 .69964-.99805 9.58686 9.58686 0 0 1 .99439-2.38379 5.5827 5.5827 0 0 1 2.14032-1.88183 7.267 7.267 0 0 1 5.07605-.50147 6.4742 6.4742 0 0 1 3.8208 2.78907 7.33746 7.33746 0 0 0-4.04047-1.33252 6.30657 6.30657 0 0 0-3.65735 1.05517 3.752 3.752 0 0 0-1.07129 1.23291 9.6332 9.6332 0 0 0-.54022 1.85059 4.99088 4.99088 0 0 1-.59613 1.41748 4.51135 4.51135 0 0 1-1.1991 1.229 2.55254 2.55254 0 0 1-.54211.27979 3.60731 3.60731 0 0 1-.45837.1372c-.25592.0586-.47254.09522-.67743.12549-.4112.06055-.79743.10791-1.18073.14844-1.52722.14893-3.03784.24658-4.53131.32178l-1.06683.06494-.55133.061a2.07 2.07 0 0 0-.84467 1.05225 7.9143 7.9143 0 0 0-.44134 1.91748 17.03239 17.03239 0 0 0-.18018 2.14649A15.70625 15.70625 0 0 0 294.33685 187.09814zM329.63263 329.38623a10.632 10.632 0 0 1 2.25824 4.10449 16.69982 16.69982 0 0 1 .43909 2.34766 8.4819 8.4819 0 0 1-.03907 2.55176 4.27545 4.27545 0 0 1-1.52954 2.67773 3.07591 3.07591 0 0 1-.88037.45459 6.19033 6.19033 0 0 1-.69049.186c-.41583.09082-.79193.15673-1.1709.22558-1.49695.25977-2.9815.47168-4.442.70117l-1.05579.1709c-.33844.05078-.63916.167-.47412.09082a1.56689 1.56689 0 0 0-.64868 1.03174 9.58706 9.58706 0 0 1-.87342 2.43018 5.5843 5.5843 0 0 1-2.04315 1.9873 7.266 7.266 0 0 1-5.04449.75537 6.47254 6.47254 0 0 1-3.956-2.59326 7.33637 7.33637 0 0 0 4.1023 1.12744 6.30014 6.30014 0 0 0 3.59973-1.2373 3.75225 3.75225 0 0 0 1.00806-1.28516 9.62424 9.62424 0 0 0 .44659-1.87549 4.99334 4.99334 0 0 1 .52423-1.44531 4.51037 4.51037 0 0 1 1.13587-1.2876 2.55844 2.55844 0 0 1 .5274-.30664 3.55451 3.55451 0 0 1 .45087-.16015c.25268-.07129.46716-.11866.67029-.15918.40765-.08106.791-.148 1.17175-.20752 1.51782-.22559 3.02167-.39942 4.50946-.54883l1.06219-.11865.54761-.08887a2.06728 2.06728 0 0 0 .79077-1.09277 7.91637 7.91637 0 0 0 .34449-1.9375 17.03036 17.03036 0 0 0 .0722-2.15284A15.70663 15.70663 0 0 0 329.63263 329.38623zM359.39014 195.49219a24.02477 24.02477 0 0 1 5.613-2.28418 27.25759 27.25759 0 0 1 3.00611-.70752 8.36784 8.36784 0 0 1 3.37549.11035 7.61821 7.61821 0 0 1 1.65918.63477 9.04849 9.04849 0 0 1 1.42883.95947 8.859 8.859 0 0 1 2.243 2.69629 8.23067 8.23067 0 0 1 .87177 3.39892 2.42023 2.42023 0 0 0 .17926.91065.96131.96131 0 0 0 .35223.36279 4.92492 4.92492 0 0 0 1.01111.18994 9.0801 9.0801 0 0 1 1.71033.43408 11.28337 11.28337 0 0 1 2.97045 1.65674 10.841 10.841 0 0 1 2.32862 2.47754l.23749.36572c.089.146.16754.291.23529.43067a7.40492 7.40492 0 0 1 .33563.80176c.178.51562.31866 1.00439.45782 1.49072.26783.96631.55347 1.93115.77948 2.91846.23175.9707.41706 2.00976.65534 2.85156a4.03 4.03 0 0 0 1.52228 2.07519 9.21523 9.21523 0 0 0 2.60314 1.30957 7.58269 7.58269 0 0 1-3.02117-.59033 4.99423 4.99423 0 0 1-2.46259-2.22412c-.48737-1.01221-.78033-1.91064-1.17175-2.8291l-1.11524-2.74072c-.189-.45264-.37964-.90235-.57654-1.30811-.0982-.20215-.18933-.39551-.28491-.55469a2.5384 2.5384 0 0 0-.1394-.21435l-.18848-.24707a8.11258 8.11258 0 0 0-1.8761-1.72266 9.21373 9.21373 0 0 0-2.27209-1.15137 6.2968 6.2968 0 0 0-1.182-.28125 6.014 6.014 0 0 1-1.88952-.45263 3.83662 3.83662 0 0 1-1.68317-1.75049 5.17338 5.17338 0 0 1-.43555-1.98877 5.988 5.988 0 0 0-.49151-2.36475 6.71258 6.71258 0 0 0-3.472-3.314c-1.49389-.584-3.45819-.395-5.42572-.19434A46.10824 46.10824 0 0 0 359.39014 195.49219zM272.78064 376.98535a24.045 24.045 0 0 1-5.28912 2.95752 27.28357 27.28357 0 0 1-2.89612 1.07227 8.36564 8.36564 0 0 1-3.36347.30566 7.58089 7.58089 0 0 1-1.72473-.42578 8.97129 8.97129 0 0 1-1.53607-.77637 8.84949 8.84949 0 0 1-2.55786-2.39941 8.23017 8.23017 0 0 1-1.28351-3.26563 2.4176 2.4176 0 0 0-.29-.88134.95893.95893 0 0 0-.39422-.3169 4.9142 4.9142 0 0 0-1.02686-.064 9.086 9.086 0 0 1-1.75073-.22022 11.267 11.267 0 0 1-3.1518-1.27881 10.83381 10.83381 0 0 1-2.6159-2.17187l-.2807-.3335c-.10633-.13428-.20209-.26855-.2865-.39844a7.45066 7.45066 0 0 1-.43176-.75439c-.24012-.48975-.43995-.95752-.63788-1.42285-.38477-.92627-.787-1.84863-1.13288-2.80078-.34942-.93457-.66125-1.94336-1.00134-2.749a4.03051 4.03051 0 0 0-1.76617-1.87207 9.21126 9.21126 0 0 0-2.74451-.979 7.57579 7.57579 0 0 1 3.07086.21387 4.99149 4.99149 0 0 1 2.71765 1.90429c.60822.94434 1.00952 1.79981 1.51111 2.66309l1.44415 2.58252c.24329.42578.4878.84912.73316 1.22754.12231.18847.23657.36865.351.51513a2.48013 2.48013 0 0 0 .16474.19532l.21746.22217a8.12265 8.12265 0 0 0 2.07386 1.479 9.24528 9.24528 0 0 0 2.3966.86279 6.28242 6.28242 0 0 0 1.20752.1333 6.01729 6.01729 0 0 1 1.93091.2168 3.832 3.832 0 0 1 1.8858 1.52978 5.175 5.175 0 0 1 .67713 1.91993 5.98268 5.98268 0 0 0 .77887 2.28613 6.70957 6.70957 0 0 0 3.85351 2.86133c1.55445.396 3.48047-.03369 5.40839-.47461A46.11585 46.11585 0 0 0 272.78064 376.98535z"/><path fill="#b8303c" d="M334.558 58.54443a11.94892 11.94892 0 0 1-4.17724 3.42383 29.05274 29.05274 0 0 1-5.062 2.0376 62.1637 62.1637 0 0 1-10.69178 2.0249c-3.60486.40137-7.22577.57617-10.84582.62158a40.16451 40.16451 0 0 0-20.05329 5.60938 39.84927 39.84927 0 0 0-8.231 6.51758 40.63394 40.63394 0 0 0-6.23383 8.51513 74.60349 74.60349 0 0 0-4.5274 9.69336l-.01142.0293a.36638.36638 0 0 1-.354.23193l-.00678-.00048.36481-.26026c-1.10089 2.84131-2.01428 5.75733-2.85516 8.70215a73.06145 73.06145 0 0 1 2.12524-8.95264.3645.3645 0 0 1 .33484-.25976l.03027-.001.00678-.00049-.36517.26074a61.86421 61.86421 0 0 1 4.01666-10.10644 39.4181 39.4181 0 0 1 35.75873-21.78565c3.57483.01954 7.15362-.03173 10.717-.27392A73.64426 73.64426 0 0 0 325.09174 63.147a28.41671 28.41671 0 0 0 5.07684-1.61377A12.77989 12.77989 0 0 0 334.558 58.54443zM292.58807 125.89209c7.1977-.77148 14.34381-1.81738 21.442-3.05615a200.58741 200.58741 0 0 0 21.02338-4.79395c3.45062-.9834 6.84173-2.14795 10.16967-3.45556a67.81156 67.81156 0 0 0 9.6424-4.62256 39.257 39.257 0 0 0 8.45044-6.45166 22.35018 22.35018 0 0 0 5.51745-9.09766 21.41424 21.41424 0 0 1-4.78649 9.751 36.87654 36.87654 0 0 1-8.36359 7.12744c-6.18872 3.98535-13.10431 6.57861-20.07 8.668-3.50616.98877-7.03882 1.86914-10.59936 2.60449-3.56708.69971-7.14454 1.334-10.74378 1.80615A159.46948 159.46948 0 0 1 292.58807 125.89209z"/><path fill="#d65f6f" d="M314.30406,322.52647c-7.84874-.16169-13.63011-3.95693-17.86395-10.59255a9.04139,9.04139,0,0,1-.20269-9.79594,8.05767,8.05767,0,0,1,10.35967-2.99322c6.55857,3.28835,12.60006,1.89441,19.09016.55871,4.95106-1.019,11.3598-5.153,14.57029,1.91921,3.07682,6.77778.04657,12.65865-6.22151,16.661-3.26623-3.10433-3.2336-10.21615-10.43114-8.54668C316.79377,311.31681,315.21229,316.66972,314.30406,322.52647Z"/><path fill="#d13c50" d="M314.30406,322.52647c-5.536-4.86406-.84773-8.62748,1.73434-12.07411,3.13-4.178,8.53576-5.06588,12.94262-4.00367,5.71588,1.37769,5.16648,7.06878,5.055,11.83483C328.54934,324.77026,321.61682,324.5325,314.30406,322.52647Z"/><path fill="#d8d2d0" d="M413.90491 354.5708c.8825 1.60889 1.63311 3.24756 2.39 4.87891.37042.81982.70215 1.644 1.09644 2.46a14.82257 14.82257 0 0 1 1.0036 2.70556 7.6936 7.6936 0 0 1 .06683 3.1543 7.09115 7.09115 0 0 1-1.25659 3.03662 6.76584 6.76584 0 0 1-.55316.65869 4.821 4.821 0 0 1-.77661.62842 4.38814 4.38814 0 0 1-1.88483.65137c-1.20917.104-2.00366-.03906-2.53174.11084a2.07916 2.07916 0 0 0-.72455.2915.82308.82308 0 0 0-.20263.1543 2.43738 2.43738 0 0 0-.21595.32178c-.38977.67041-.8092 1.53076-1.23761 2.3125-.87567 1.60058-1.73639 3.14892-2.72113 4.71191a9.08253 9.08253 0 0 1-.89691 1.25928 6.65846 6.65846 0 0 1-1.16015 1.03613 9.40955 9.40955 0 0 1-2.67615 1.27686 14.37058 14.37058 0 0 1-5.54041.36718 21.34218 21.34218 0 0 0 4.99243-1.73437 6.53129 6.53129 0 0 0 3.22583-3.32568c.71021-1.60743 1.48621-3.26026 2.23334-4.86768.3866-.82031.73035-1.58838 1.20233-2.49609a4.95312 4.95312 0 0 1 .53449-.79541 3.70121 3.70121 0 0 1 .82233-.71241 5.04567 5.04567 0 0 1 1.74914-.73535 18.18653 18.18653 0 0 1 2.84491-.11816 1.58576 1.58576 0 0 0 1.27014-.73047 4.78717 4.78717 0 0 0 .92285-1.84522 6.22579 6.22579 0 0 0 .218-2.20117 17.09623 17.09623 0 0 0-.54864-2.45166c-.2378-.86719-.43494-1.7622-.64039-2.645C414.53522 358.147 414.15417 356.374 413.90491 354.5708zM338.65375 435.34668a10.63088 10.63088 0 0 1-1.80731 4.32178 16.75552 16.75552 0 0 1-1.56434 1.80468 8.48057 8.48057 0 0 1-2.02179 1.55713 4.2754 4.2754 0 0 1-3.04809.46924 3.07268 3.07268 0 0 1-.90344-.40625 6.044 6.044 0 0 1-.57544-.4248c-.32978-.269-.61573-.522-.90522-.77588-1.135-1.01026-2.22467-2.04053-3.31323-3.041l-.79077-.71972c-.25037-.2334-.52844-.39649-.36609-.315a1.56747 1.56747 0 0 0-1.21142.13477 9.60741 9.60741 0 0 1-2.44593.82861 5.58082 5.58082 0 0 1-2.827-.36279 7.26506 7.26506 0 0 1-3.73053-3.47852 6.47358 6.47358 0 0 1-.43189-4.71044 7.33575 7.33575 0 0 0 1.67029 3.91259 6.30327 6.30327 0 0 0 3.2088 2.04785 3.75231 3.75231 0 0 0 1.63318-.01074 9.62793 9.62793 0 0 0 1.74609-.81738 4.98913 4.98913 0 0 1 1.45746-.48926 4.51568 4.51568 0 0 1 1.71479.08789 2.54682 2.54682 0 0 1 .56848.22168 3.63385 3.63385 0 0 1 .40588.25342c.21307.15332.38348.292.54175.42578.31714.26856.60809.52686.8916.78809 1.12122 1.04736 2.19287 2.1167 3.236 3.188l.7536.7583.41047.373a2.06983 2.06983 0 0 0 1.34771-.061 7.93217 7.93217 0 0 0 1.73078-.936 17.077 17.077 0 0 0 1.7301-1.2832A15.70979 15.70979 0 0 0 338.65375 435.34668z"/><circle cx="294.933" cy="248.729" r="3.641"/><circle cx="333.765" cy="248.729" r="3.641"/></svg>