<svg xmlns="http://www.w3.org/2000/svg" data-name="Layer 1" viewBox="0 0 512 512"><path fill="#fff" d="M488.44358,282.23269l.001-.002a4.76277,4.76277,0,0,1,.61475-1.043,23.63845,23.63845,0,0,0,4.62255-15.22753,24.03939,24.03939,0,0,0-2.36279-9.28907c2.76074-9.10058-.4043-16.126-5.04053-26.416l-.38525-.85449c-1.50293-3.3379-2.42871-5.41114-3.01758-6.73047a37.54152,37.54152,0,0,0-2.44726-4.95118,58.827,58.827,0,0,0-10.48584-13.01074c-3.80957-30.30664-22.56543-80.79883-64.28223-115.96777-37.833-31.89551-86.86621-44.05274-141.79687-35.15137C195.6887,64.63405,144.09788,107.2073,114.66868,176.70534,95.80247,221.2571,91.18186,264.70339,90.05735,282.19362a36.17392,36.17392,0,0,0-3.61425,8.05469,29.50486,29.50486,0,0,0-13.44922,1.64258A33.78414,33.78414,0,0,0,55.217,307.47976a28.0629,28.0629,0,0,0-3.04736,10.3789c-.11817.96289-.24073,1.958-.57862,3.69141q-.02563.1333-.05224.26953c-.65479.48047-1.37158,1.02344-2.16358,1.64453-3.82226,2.99512-7.67627,6.3252-9.9917,11.27832a29.72506,29.72506,0,0,0-17.22363,12.6416,23.14855,23.14855,0,0,0-3.02734,18.916,21.06165,21.06165,0,0,0,5.38916,9.2168A22.59661,22.59661,0,0,0,19.258,391.24343c.70654,13.7666,12.36084,21.99023,23.0249,25.09277.85254.249,1.68066.45606,2.48242.62793.0083.03516.01611.07129.02441.10742.28711,1.28223.53809,2.42481.76221,3.44532,1.87012,8.50976,3.48535,15.85839,11.61719,21.543a25.07522,25.07522,0,0,0,11.54,4.4082,40.78265,40.78265,0,0,0,3.82861,4.47558l.2085.21192c3.28125,3.335,9.92627,10.09082,20.564,10.08984q.86133,0,1.75928-.06054a23.97687,23.97687,0,0,0,13.34912-5.16407q.57276.13917,1.22217.29981c2.92529.72558,4.94238,1.28515,6.563,1.73535,4.75244,1.31738,10.13965,2.8125,17.3667.47851a26.51019,26.51019,0,0,0,12.59863-8.64355c.02295.00195.0459.00391.06836.00684a10.95836,10.95836,0,0,1,3.1792.751,30.96646,30.96646,0,0,0,15.46679,1.72949c9.34229-1.35644,21.08155-7.09472,26.00977-19.13085,3.24756-7.93067,2.17334-15.04786.27051-22.30372l.085-.0791a44.29042,44.29042,0,0,0,10.543-14.00976c5.772-12.53516,3.26513-24.77442,1.91894-29.458-.38476-1.33691-.80078-2.53223-1.21875-3.59473a20.00629,20.00629,0,0,0,2.26709-4.126c3.42383-8.28418,3.84619-16.06348,1.27442-22.73926a25.0433,25.0433,0,0,0,6.92431.2793q.78955.63573,1.68213,1.28808c3.70264,2.70117,10.59229,7.7334,20.46436,7.27832a25.42812,25.42812,0,0,0,15.03662-5.77832q.31641.19922.64551.39453c8.7373,5.19629,19.75732,5.748,31.01806,1.56055,1.28272-.47656,2.45264-.98438,3.51709-1.502q.61158.26073,1.269.51757c4.25781,1.66407,11.38379,4.44239,20.44238,2.7627q1.11548-.208,2.14941-.47949c.14991.06445.30127.1289.45459.1914,9.34668,3.82227,16.93506.25586,19.79248-1.08593a12.24539,12.24539,0,0,1,2.07129-.83106l.02735-.00879a6.13383,6.13383,0,0,1,3.80517.25586c5.51953,2.09278,9.05713,3.15918,12.99268,3.15918h.08105a26.68737,26.68737,0,0,0,12.2749-3.03418c1.07081-.5039,2.4795-1.165,4.88624-2.14453q.91186.57569,1.9414,1.12305c9.63477,5.10254,18.96777,3.58105,22.95606,2.93066a35.11361,35.11361,0,0,0,11.66162-3.90723c2.43213.53028,6.35742,1.58692,10.18652,2.61622,1.30762.35156,2.30322.63476,3.0918.85742a30.62749,30.62749,0,0,0,10.72656,1.541,31.83836,31.83836,0,0,0,15.58838-4.88769,9.64223,9.64223,0,0,1,2.44629-1.17481,4.67755,4.67755,0,0,1,1.59277-.25879,28.59214,28.59214,0,0,0,14.44092-4.54589c5.623-3.56153,8.77246-7.915,12.418-12.95313a62.002,62.002,0,0,0,3.7832-5.8125,24.538,24.538,0,0,0,12.74365-14.05566,24.15487,24.15487,0,0,0-1.00293-18.335C488.24729,282.66237,488.35276,282.43191,488.44358,282.23269ZM165.42747,380.14187a19.358,19.358,0,0,1-1.53271,1.53711,15.64469,15.64469,0,0,1-2.28858,1.709c-3.01416,1.998-9.28613,6.15625-11.88183,15.07324a23.64631,23.64631,0,0,0-.47657,11.541c-5.49707-.52344-12.79394-1.00391-20.79541,2.74121a30.70392,30.70392,0,0,0-7.71582,5.12109q-.70092-.17724-1.46728-.36816c-6.06494-1.50391-10.86182-2.57422-15.34326-2.57422a24.129,24.129,0,0,0-7.125,1.03418,26.30056,26.30056,0,0,0-6.24756-5.46582,26.7242,26.7242,0,0,0-6.94629-3.124c-2.80127-12.48633-4.86231-20.80762-14.05615-26.42969l-.189-.11426a27.23956,27.23956,0,0,0,1.12207-12.35547A23.53254,23.53254,0,0,0,77.969,357.99343a22.4597,22.4597,0,0,0,1.29786-6.65918,25.405,25.405,0,0,0,5.19384-5.09473c3.69043-4.78027,4.91993-9.64551,6.01905-15.1416.0415.001.083.001.12451.001a31.52434,31.52434,0,0,0,8.41357-1.14551,35.77941,35.77941,0,0,0,17.50293-11.28027c.07324-.083.14649-.167.21826-.251a19.84352,19.84352,0,0,0,1.90967,2.10742,23.40056,23.40056,0,0,0,9.79492,14.57129c5.50782,3.668,12.145,4.87109,19.35254,3.61328a23.26376,23.26376,0,0,0,7.88965,15.48047,22.98169,22.98169,0,0,0,5.752,3.74512,30.8992,30.8992,0,0,0-.30908,8.30664,28.73557,28.73557,0,0,0,3.99951,12.00781c.05225.09082.10743.18359.16358.2832A5.1726,5.1726,0,0,1,165.42747,380.14187Zm282.40967-93.07911q-.4065.4087-.81592.84375a32.02622,32.02622,0,0,0-5.07617,7.04688,21.67418,21.67418,0,0,1-1.73242,2.69824c-.34131.47168-.69678.96289-1.0376,1.43067a44.85,44.85,0,0,0-6.8208,1.56054,47.0116,47.0116,0,0,0-8.52539,3.5586c-.35205-.09668-.72657-.19825-1.12647-.30567-9.71875-2.61426-16.12451-4.33691-22.19433-4.33691a30.39391,30.39391,0,0,0-5.78907.55078,32.0111,32.0111,0,0,0-9.56347,3.4082,25.071,25.071,0,0,0-7.52735-4.30078c-8.83838-3.20117-16.40771-.74707-25.38916,2.793-1.70849.67481-3.14257,1.26856-4.34863,1.78711a46.48054,46.48054,0,0,0-24.87109-1.36133,22.81111,22.81111,0,0,0-3.877-1.68164c-6.41406-2.11328-12.77588-1.32031-18.95654,2.34863a25.50667,25.50667,0,0,0-30.48-.07421,24.571,24.571,0,0,0-7.88428-4.65625c-11.32129-4.1377-21.31152.54882-27.13916,3.85742a24.06614,24.06614,0,0,0-10.94629-6.14356,23.79076,23.79076,0,0,0-2.07763-5.50586,22.80324,22.80324,0,0,0-5.76514-7.1123c5.376-6.13184,8.67969-14.30762,6.73193-23.292a23.94213,23.94213,0,0,0-1.05664-3.54,27.86111,27.86111,0,0,0,.87452-2.78028,25.48339,25.48339,0,0,0,.81884-6.22754,44.06118,44.06118,0,0,0,5.2544-4.57617c1.12793-1.13574,2.06689-2.17968,2.852-3.11621a20.00319,20.00319,0,0,0,14.17187-14.86133c2.918-12.8955,10.25391-36.80175,26.59668-52.03515a19.96433,19.96433,0,0,0,5.95362-10.61133,83.82505,83.82505,0,0,1,2.396-8.43066,20.00012,20.00012,0,0,0-29.08545-23.71875c-68.69092,40.56835-103.06445,98.42675-119.9541,140.99707-.06494-.05762-.12988-.11426-.19531-.1709,2.20557-18.749,7.51807-48.73438,20.25049-78.80176,24.13086-56.98633,64.0874-90.37109,118.7583-99.22949,43.68408-7.07325,80.56347,1.7539,109.61767,26.249,37.64307,31.73535,50.65332,79.23047,50.80957,96.02441a19.99937,19.99937,0,0,0,10.45752,17.39161,17.54115,17.54115,0,0,1,4.69776,5.10058c.126.28125.28906.64844.50732,1.13672.59912,1.3418,1.54053,3.45117,3.07031,6.84863l.30372.67481a21.848,21.848,0,0,0-2.89209,9.73535,22.27166,22.27166,0,0,0,3.45166,13.57617,39.23514,39.23514,0,0,0-2.627,13.46485A33.69607,33.69607,0,0,0,447.83714,287.06276Z"/><path fill="#d64142" d="M332.7741,139.90786c-101.16185-18.15725-109.80816,99.43259-109.80816,99.43259s213.5639.86463,225.66873-13.8341S421.83111,48.257,267.06213,73.33126,109.69925,290.35369,109.69925,290.35369l.02594-1.08079c1.74656-1.85031,4.82464-4.53067,7.32343-3.67469,2.29127.78682,3.40664,4.31451,3.45852,6.91705.09511,4.65172-3.23372,5.966-2.59389,9.51095.57065,3.19049,3.99459,6.13023,6.917,6.05242,2.81005-.06918,3.55363-2.87058,6.05242-2.5939,2.32585.25939,3.87354,2.92246,5.18778,5.18779a18.546,18.546,0,0,1,2.15293,5.68927v0c7.96326-35.01756,35.34613-116.88949,123.34829-168.86247h0a104.16111,104.16111,0,0,0-3.07809,10.91165"/><path fill="#ece4f6" d="M93.70357 310.67252a16.26977 16.26977 0 0 0 7.78168-5.18779c4.54209-5.17792 2.402-9.03034 6.91705-14.69873.59468-.74658 5.17544-6.38386 8.64632-5.18779 2.28942.78893 3.407 4.31356 3.45852 6.91705.09214 4.65449-3.23072 5.96838-2.59389 9.51095.57393 3.1927 3.9921 6.12632 6.917 6.05242 2.80683-.07093 3.55426-2.87082 6.05242-2.5939 2.32336.25756 3.87177 2.92267 5.18778 5.18779 2.674 4.60256 1.54654 6.50835 3.45853 7.78168 3.55327 2.36636 11.19849-1.7176 11.2402-1.72926a14.03984 14.03984 0 0 1 9.511.86463 13.87436 13.87436 0 0 1 6.05241 6.05242c3.77 7.09547-.69169 12.6618 2.5939 15.56336 1.92125 1.69667 3.65709-.021 12.10483 1.72926 4.69312.97234 5.59376 1.80006 6.05242 2.59389 1.69972 2.94183-.84831 8.57183-.86463 8.64632-2.64579 2.89113-5.67208 7.20827-5.18779 12.10483.34154 3.4532 2.10844 3.95288 3.45853 8.64631.466 1.62008 2.3041 8.68228-.86463 15.56337a24.76426 24.76426 0 0 1-6.05242 7.78168c-4.66768 4.37492-7.71111 4.57-8.64631 7.78168-.56593 1.94346.29386 2.74662 1.72926 7.78168 2.02319 7.09692 3.0348 10.64537 1.72926 13.8341-1.70659 4.16829-6.74354 6.39064-10.37557 6.917-4.87284.70626-5.93755-1.82552-13.8341-2.5939-4.44687-.43271-7.77776-.75681-11.24021.86463-5.56925 2.60807-4.81834 7.13055-9.51094 8.64632-2.23033.72042-2.97524-.11539-12.96947-2.5939-9.58464-2.37694-10.98774-2.12609-12.10483-1.72926-4.48936 1.5948-5.095 5.80887-8.64632 6.05242-2.57669.17671-4.60456-1.97553-6.91705-4.32316-4.63408-4.70454-3.61212-7.42248-6.917-9.51094-4.27148-2.69923-7.58076.82853-11.24021-1.72926-2.00518-1.40155-2.147-3.25438-4.32316-12.96947-2.682-11.97349-3.47243-13.65-5.18778-14.69873-3.1994-1.95606-5.44247.82363-11.24021-.86463-3.33591-.97139-8.47684-3.60489-8.64631-6.91705-.146-2.85349 3.54429-3.34939 7.78168-9.51095 1.92-2.79189 4.54839-6.61376 3.45853-10.37557-.70893-2.44692-2.73454-3.98306-4.32316-5.18779-4.22494-3.204-7.25534-2.47663-7.78168-4.32315-.63727-2.23567 2.95984-6.26721 6.91705-6.917 3.06332-.50306 4.09629 1.38924 7.78168.86463.80425-.11449 5.11885-.82576 6.05242-3.45853.95162-2.68368-2.58347-4.61826-1.72927-7.78168.11465-.42455.413-1.25876 4.32316-4.32315 4.87766-3.82263 5.54682-3.4128 6.91705-5.18779 1.21674-1.57617 1.67579-3.93287 2.59389-8.64631 1.13787-5.84167.62745-6.53292 1.72927-8.64631a13.87323 13.87323 0 0 1 6.917-6.05242C85.23168 308.71665 87.85614 312.28518 93.70357 310.67252zM187.51606 289.48906c-2.86622-3.76105-4.30863-10.11654-1.72926-12.96947 2.21617-2.45122 5.40067-.104 10.37557-2.5939 3.86555-1.93462 7.63481-6.20042 6.917-9.51094-.8082-3.72764-6.80371-3.93021-6.917-6.91705-.11118-2.92987 5.62344-3.639 6.917-8.64631.63637-2.46328-.60529-2.85734 0-6.05242.65511-3.45808 2.64649-5.83051 4.32315-7.78168 2.69231-3.1331 3.46377-2.57294 6.917-6.05242 4.07365-4.10456 3.356-5.24262 6.05242-6.917 3.81453-2.36875 5.61859-.31962 9.511-2.59389 4.187-2.44645 3.36222-5.5554 6.917-6.91705 3.69047-1.4136 5.35567 1.63983 10.37557.86463 3.88889-.60054 3.67031-2.55363 9.51094-5.18779 4.70249-2.12085 5.26273-1.04354 12.10484-3.45852 6.65252-2.34807 6.73263-3.58171 9.51094-3.45853 5.4868.24329 6.16781 5.09874 11.24021 5.18779 4.15312.07292 4.86223-3.16164 11.2402-4.32315 1.86708-.34 3.8386-.22668 7.78168 0 10.73565.61716 12.00631 2.33029 15.56336.86463 4.0122-1.65321 7.78184-6.05221 7.78169-6.05242h0c0 .00025 5.95394.257 11.2402.86463 8.36313.96136 8.13571 2.00575 12.10484 1.72926 5.5791-.38864 6.20361-2.46431 9.51094-1.72926 5.11839 1.13755 4.93448 6.40036 9.51094 7.78168 6.00883 1.81365 9.52229-6.29425 16.428-5.18779 5.91209.94726 5.5102 7.2381 12.96946 9.511 4.02322 1.22588 7.75065.496 14.69873-.86464 7.42425-1.45384 7.35984-2.774 11.24021-2.59389 2.94436.1367 6.61434 1.82225 13.8341 5.18779a78.54582 78.54582 0 0 1 8.64631 4.32315 37.82589 37.82589 0 0 1 11.24021 12.10484c.383.63076.22125.40226 4.32315 9.51094 4.26566 9.47226 5.22842 11.46882 4.32316 13.8341-1.32877 3.47188-5.01995 3.39465-5.18779 6.05242-.23093 3.65685 6.68084 5.00665 6.91705 9.51094.10971 2.092-1.35468 2.30858-3.45853 6.917a23.44377 23.44377 0 0 0-2.59389 9.511c-.05 6.18345 3.81113 7.73154 2.59389 11.2402-1.08089 3.11569-4.23866 2.2209-8.64631 6.917-2.26762 2.416-1.629 2.86306-5.18778 7.78168-3.0283 4.1855-4.54246 6.27826-6.91705 7.78168-3.7415 2.36885-4.98324.66-11.24021 2.5939-6.91795 2.13817-7.80424 4.97023-12.96947 5.18778-1.89563.07985-2.37874-.27621-7.78168-1.72926-10.28285-2.76543-15.42428-4.14816-19.02188-3.45852-5.04639.96735-4.86968 3.28416-11.24021 4.32315-2.74311.44738-6.6844 1.09018-10.37557-.86463-3.51821-1.8632-3.0764-4.1094-6.05242-5.18779-1.502-.54427-3.24047-.56126-11.24021 2.5939-8.92854 3.52148-8.71995 4.31447-11.2402 4.32315a30.64855 30.64855 0 0 1-5.91475-1.86 26.06075 26.06075 0 0 0-16.41592-.77733l-.14974.04342c-5.40366 1.581-6.553 3.45066-8.64631 2.59389-2.598-1.06334-1.9954-4.42128-4.32316-5.18778-2.702-.88975-4.34305 3.36184-9.51094 4.32315-3.44531.64088-6.48637-.54741-9.511-1.72926-5.4255-2.12-5.56954-4.15848-8.64631-4.32316-3.89261-.20834-4.50944 3.00919-10.37557 5.18779-1.29687.48163-8.5156 3.16258-13.8341 0-3.59531-2.13791-2.854-4.88381-6.05242-6.05242-3.86717-1.413-8.47683 1.31305-12.10484 3.45853-5.04662 2.98441-5.58274 5.04957-8.64631 5.18778-2.86132.12909-5.16078-1.54753-7.78168-3.45852-5.025-3.66392-4.73279-6.18989-7.78168-6.917-3.80741-.90809-5.524 2.73034-9.51094 1.72926a9.20731 9.20731 0 0 1-6.05242-6.05242c-1.50857-4.86347 2.66726-7.80015.86463-11.2402-.96577-1.843-2.40758-1.46426-7.78168-4.32316C191.792 293.21654 189.37806 291.93236 187.51606 289.48906z"/><path fill="#d8d2d0" d="M87.21887 381.14014a24.152 24.152 0 0 1-6.12634-7.35743 9.66826 9.66826 0 0 1-1.03-5.01269 10.88129 10.88129 0 0 1 .66077-2.54053 9.408 9.408 0 0 1 1.26574-2.32715 10.22529 10.22529 0 0 1 4.12793-3.2915 12.17046 12.17046 0 0 1 2.51905-.811c.40637-.0957.92517-.15185 1.25183-.20263a5.061 5.061 0 0 0 .90564-.21338 3.03549 3.03549 0 0 0 2.163-2.23828 9.62017 9.62017 0 0 0-.088-4.03125 14.31719 14.31719 0 0 0-1.17591-4.11963c-.29943-.64893-.69653-1.27393-1.08825-2.15576a5.79481 5.79481 0 0 1-.47656-3.00782 8.643 8.643 0 0 1 2.43518-4.94335 11.18834 11.18834 0 0 1 4.40088-2.85206 10.78968 10.78968 0 0 1 2.57971-.52929 11.12905 11.12905 0 0 1 2.57666.05273 9.26519 9.26519 0 0 1 4.71643 2.02 8.83532 8.83532 0 0 1 2.70593 4.18848 9.75916 9.75916 0 0 1 .15674 4.78711 9.05225 9.05225 0 0 0-3.75269-7.80176 7.62541 7.62541 0 0 0-4.00378-1.23584 10.10532 10.10532 0 0 0-4.127.69873 9.80009 9.80009 0 0 0-3.30945 2.44189 5.92572 5.92572 0 0 0-1.54944 3.42823 3.14836 3.14836 0 0 0 .29919 1.58886c.24878.55567.69434 1.26514 1.072 2.03614a17.19747 17.19747 0 0 1 1.49439 4.89062 12.33093 12.33093 0 0 1-.04395 5.3252 5.95626 5.95626 0 0 1-1.53051 2.66553 6.01687 6.01687 0 0 1-2.62976 1.50146 7.93438 7.93438 0 0 1-1.40076.26367c-.453.04737-.71924.05762-1.083.12354a9.49852 9.49852 0 0 0-1.98913.5415 8.56378 8.56378 0 0 0-3.32666 2.32568 7.163 7.163 0 0 0-1.10987 1.72559 11.38689 11.38689 0 0 0-.70715 1.9585 8.08639 8.08639 0 0 0 .44482 4.19091A29.3603 29.3603 0 0 0 87.21887 381.14014zM120.93945 400.16162a15.41422 15.41422 0 0 1-1.23376-3.84473 10.65217 10.65217 0 0 1 .00659-4.18457 6.795 6.795 0 0 1 2.29041-3.82812 9.62356 9.62356 0 0 1 4.06665-1.74414c1.36779-.30078 2.70117-.48584 4.01916-.64844a25.51162 25.51162 0 0 1 4.186-.25391c.71618.01612 1.42053.10743 2.0238.1543a11.06766 11.06766 0 0 0 1.76721.0044 15.73832 15.73832 0 0 0 3.55078-.6753 18.99521 18.99521 0 0 0 3.37781-1.48877 17.86056 17.86056 0 0 1 3.94849-1.64746 20.63421 20.63421 0 0 1 4.21594-.54931 14.66747 14.66747 0 0 1 4.28589.31787 8.1021 8.1021 0 0 1 3.9707 2.13867 8.30645 8.30645 0 0 1 2.0636 3.88037 13.02569 13.02569 0 0 1-1.037 8.04639 14.44638 14.44638 0 0 0-.37451-7.625 6.672 6.672 0 0 0-1.98633-2.85742 6.3 6.3 0 0 0-3.09387-1.28711 15.40053 15.40053 0 0 0-3.63831.00781 17.9237 17.9237 0 0 0-3.63159.66064 16.84786 16.84786 0 0 0-3.3385 1.498 21.397 21.397 0 0 1-3.86658 1.7666 18.66772 18.66772 0 0 1-4.26049.73633 14.137 14.137 0 0 1-2.20569-.04443l-1.93677-.209a22.82464 22.82464 0 0 0-3.75513.03467c-1.31909.1084-2.62768.18018-3.87329.33545a8.21791 8.21791 0 0 0-3.31567 1.02295 5.14546 5.14546 0 0 0-2.04627 2.66406 10.17446 10.17446 0 0 0-.58972 3.69922A19.70951 19.70951 0 0 0 120.93945 400.16162zM227.72144 295.97363c.32348-2.23047.77209-4.40967 1.21106-6.58593.22729-1.0879.49438-2.15479.693-3.2544a18.81342 18.81342 0 0 1 .93188-3.39551 8.58963 8.58963 0 0 1 .91675-1.69287 10.95214 10.95214 0 0 1 1.22278-1.4292 8.717 8.717 0 0 1 3.30969-2.09131 7.59144 7.59144 0 0 1 .98487-.26074 5.61542 5.61542 0 0 1 1.15466-.07226 5.04544 5.04544 0 0 1 2.21142.64843 30.1468 30.1468 0 0 0 2.67847 1.69287 2.94083 2.94083 0 0 0 1.06946.24512 1.30378 1.30378 0 0 0 .41223-.02392 3.30847 3.30847 0 0 0 .50989-.19678c.89465-.418 1.91467-.99024 2.904-1.47949 2.02185-.98535 3.97449-1.98828 6.06043-2.88721a10.64621 10.64621 0 0 1 1.75-.63965 8.21548 8.21548 0 0 1 1.85717-.23877 11.49464 11.49464 0 0 1 3.55579.54492 18.35011 18.35011 0 0 1 5.9071 3.39209 25.37015 25.37015 0 0 0-6.24365-1.958 8.24039 8.24039 0 0 0-5.78723.99755l-5.75293 3.29c-.97253.55323-1.88086 1.08741-2.97815 1.6543a5.79513 5.79513 0 0 1-1.0426.40137 4.202 4.202 0 0 1-1.24011.12549 5.871 5.871 0 0 1-2.16272-.4712 23.54509 23.54509 0 0 1-2.92493-1.89209 2.36034 2.36034 0 0 0-2.08179-.16748 5.98284 5.98284 0 0 0-2.3612 1.30225 8.02294 8.02294 0 0 0-1.81482 2.18994 21.28833 21.28833 0 0 0-1.15821 2.92578c-.35644 1.05225-.77441 2.1001-1.17285 3.144C229.50317 291.87109 228.6748 293.94775 227.72144 295.97363zM307.26746 258.79443a13.53122 13.53122 0 0 1-2.36133-5.22656 20.348 20.348 0 0 1-.33716-2.89941 10.51875 10.51875 0 0 1 .23889-3.07373 5.0536 5.0536 0 0 1 1.958-3.02832 3.46229 3.46229 0 0 1 1.02478-.46 7.36416 7.36416 0 0 1 .8302-.17432c.50818-.08106.97571-.13623 1.44617-.19385l5.5343-.57129c.45447-.04492.90515-.09228 1.32788-.14941a4.25507 4.25507 0 0 0 .73254-.13867 2.30034 2.30034 0 0 0 .99414-1.42823 11.49432 11.49432 0 0 1 1.17554-2.8833 6.698 6.698 0 0 1 2.51941-2.24951 8.878 8.878 0 0 1 6.10693-.68506 8.09 8.09 0 0 1 4.74866 3.27539 8.98369 8.98369 0 0 0-4.96838-1.81884 7.9337 7.9337 0 0 0-4.68824 1.23925 4.88367 4.88367 0 0 0-1.45031 1.6001 11.19644 11.19644 0 0 0-.72144 2.35059 5.92858 5.92858 0 0 1-.70239 1.66064 5.21642 5.21642 0 0 1-1.38733 1.41553 2.81866 2.81866 0 0 1-.60132.31055 4.1642 4.1642 0 0 1-.52234.15576c-.29931.06787-.55981.11181-.80871.14843-.49915.07276-.97376.13038-1.44556.17969-1.881.18506-3.74622.31055-5.594.416-.45679.02637-.917.05273-1.33216.09228a3.326 3.326 0 0 0-.80542.13477 2.88572 2.88572 0 0 0-1.1405 1.48291 10.04273 10.04273 0 0 0-.51318 2.44433 20.623 20.623 0 0 0-.16358 2.6792A18.63685 18.63685 0 0 0 307.26746 258.79443zM387.67822 269.17041a31.04471 31.04471 0 0 1 6.97058-2.65381 34.26471 34.26471 0 0 1 3.70215-.814 10.22816 10.22816 0 0 1 4.07312.16943 9.08541 9.08541 0 0 1 1.98084.77637A10.97492 10.97492 0 0 1 406.119 267.814a10.63832 10.63832 0 0 1 2.67517 3.2461 9.8874 9.8874 0 0 1 1.03271 4.07959 3.34634 3.34634 0 0 0 .25184 1.25244 1.52 1.52 0 0 0 .59252.6123 5.72521 5.72521 0 0 0 1.35218.27393 11.02631 11.02631 0 0 1 2.04773.52539 13.56057 13.56057 0 0 1 3.59448 1.97363 13.0662 13.0662 0 0 1 2.82495 2.97315l.28772.438c.105.1709.19824.34082.27954.50634a9.23539 9.23539 0 0 1 .40894.96241c.22216.624.402 1.22363.57995 1.8208.34473 1.18847.7063 2.37549 1.00305 3.58691.3053 1.19336.54712 2.46143.871 3.522a5.133 5.133 0 0 0 1.99267 2.583 11.11952 11.11952 0 0 0 3.267 1.5332 9.61861 9.61861 0 0 1-3.68506-.81445 6.081 6.081 0 0 1-2.93286-2.73193c-.573-1.231-.92249-2.35791-1.38745-3.499l-1.33887-3.40917c-.22778-.56348-.4574-1.124-.69861-1.63868-.12036-.25634-.23523-.50293-.35815-.71435-.06055-.10742-.12232-.20264-.18372-.29053l-.23864-.31934a10.35091 10.35091 0 0 0-2.37244-2.21875 11.81237 11.81237 0 0 0-2.88574-1.49755 7.97059 7.97059 0 0 0-1.52722-.35889 7.13683 7.13683 0 0 1-2.23316-.52051 4.39818 4.39818 0 0 1-1.92346-1.99951 6.09135 6.09135 0 0 1-.50818-2.33105 7.63086 7.63086 0 0 0-.65247-3.04542 8.52031 8.52031 0 0 0-4.511-4.21142c-1.95081-.72217-4.39527-.43066-6.81946-.147A52.32075 52.32075 0 0 0 387.67822 269.17041z"/><path fill="#b8303c" d="M356.98376 99.89258a14.84794 14.84794 0 0 1-5.18847 4.18066 35.83369 35.83369 0 0 1-6.25867 2.46924 77.94826 77.94826 0 0 1-13.20434 2.43164c-4.45093.47705-8.92176.6792-13.391.72754a49.59117 49.59117 0 0 0-24.90588 6.94922 49.03743 49.03743 0 0 0-10.20837 8.11035 50.06392 50.06392 0 0 0-7.6991 10.59033 90.386 90.386 0 0 0-5.53589 12.03076l-.00915.02393a.37064.37064 0 0 1-.35633.2373l-.00842-.00048.36487-.26026c-1.33521 3.52393-2.44336 7.13672-3.44312 10.78614a92.6892 92.6892 0 0 1 2.71314-11.03711.36881.36881 0 0 1 .34045-.25977l.02466-.001h.00842l-.36511.26075A77.72 77.72 0 0 1 274.8866 134.688a48.75576 48.75576 0 0 1 44.05395-26.79346c4.42407.0166 8.85278-.06152 13.26233-.37988a89.38639 89.38639 0 0 0 13.10669-1.83154 35.11241 35.11241 0 0 0 6.27356-2.04493A15.68314 15.68314 0 0 0 356.98376 99.89258zM305.106 183.13965c4.45154-.44385 8.89074-.93018 13.31091-1.56348q6.63592-.88623 13.22437-2.03076a238.43635 238.43635 0 0 0 26.02722-5.88037 132.42673 132.42673 0 0 0 12.59228-4.28662 86.72828 86.72828 0 0 0 11.94287-5.74951 48.30082 48.30082 0 0 0 10.42224-8.07471 27.5618 27.5618 0 0 0 6.72486-11.32324 26.61643 26.61643 0 0 1-5.994 11.97656 45.9395 45.9395 0 0 1-10.33679 8.752c-7.66846 4.83985-16.18262 8.07324-24.79163 10.624a188.02518 188.02518 0 0 1-26.34692 5.498A207.57348 207.57348 0 0 1 305.106 183.13965z"/></svg>