<svg xmlns="http://www.w3.org/2000/svg" data-name="Layer 1" viewBox="0 0 512 512"><path fill="#fff" d="M474.19541,359.45806a26.02742,26.02742,0,0,0-8.93688-4.05151,36.58293,36.58293,0,0,0-13.44284-.61113c-1.00324.12756-1.97265.30679-2.91846.51638a18.65641,18.65641,0,0,0-1.9989-1.48271,21.81886,21.81886,0,0,0-11.86784-3.25581,28.01145,28.01145,0,0,0-4.68521.39129c-1.146.19769-2.07047.39621-2.90882.62589a16.76435,16.76435,0,0,0-6.07174,3.09422,35.35065,35.35065,0,0,0-3.90981-.23379,34.0706,34.0706,0,0,0-9.52422,1.30265c-1.01308.29531-1.979.646-2.92112,1.02129a27.5878,27.5878,0,0,0-4.10976-1.36828c-3.41413-.84492-6.44949-1.5024-4.07571-1.867,50.93884-7.82248,66.76223-18.27,74.23321-25.4485A49.91309,49.91309,0,0,0,486.391,285.74a53.79549,53.79549,0,0,0-26.69825-39.7777,47.48952,47.48952,0,0,0-43.18116-2.04339,96.72508,96.72508,0,0,0,3.39362-14.57447,17.6433,17.6433,0,0,0-30.37611-14.61958c-2.16029,2.328-9.44055,9.36549-23.675,15.86317v-18.8934q.18271-.20179.37365-.42574l.01682.01395a17.17563,17.17563,0,0,0,1.99294-2.86207,19.694,19.694,0,0,0,1.07379-2.13937c6.57479-3.93667,9.01932-8.79947,11.2399-14.21681.2182-.53238.45814-1.1189.733-1.76941,4.67946-11.07009,2.16849-18.7482.1214-22.48554l.00164-.00082c-1.57746-2.88585-9.34662-14.89849-27.55137-11.107a16.80782,16.80782,0,0,0-4.80169-.69644h-8.174c-16.99028-13.43095-29.993-4.16308-32.64427-1.96137l.00164.00246a19.61183,19.61183,0,0,0-2.03068,1.95891H282.69424V130.80543a16.79975,16.79975,0,0,0-16.8-16.8h-10.55a19.88021,19.88021,0,0,0-2.141-3.28124l.00123-.00082a22.50521,22.50521,0,0,0-15.69377-8.345c-6.93286-.61359-13.66515,1.85062-19.44219,5.2582a25.47068,25.47068,0,0,0-4.41984-.00575c-6.72039-4.11878-13.18485-5.95381-19.29617-5.48542a22.51071,22.51071,0,0,0-15.59985,7.98327l.00082.00082a20.08635,20.08635,0,0,0-2.55117,3.876H163.41447a16.79975,16.79975,0,0,0-16.8,16.8V160.2792a26.154,26.154,0,0,0-6.88528,10.84615H113.46246a208.10461,208.10461,0,0,1-18.69488-24.49367c-17.93118-27.53127-31.38961-39.96144-45.001-41.56433A23.60234,23.60234,0,0,0,30.472,111.47726a16.80118,16.80118,0,0,0-4.59374,16.79341l49.5599,173.87966a16.79967,16.79967,0,0,0,16.15643,12.19474h8.4a95.05591,95.05591,0,0,1-5.04,11.76l-26.75321.42246a18.50677,18.50677,0,0,0-18.18465,18.76544,18.25683,18.25683,0,0,0,.60826,4.39317,29.744,29.744,0,0,0-5.77868.28424c-.93024.13535-1.60822.24527-2.03437.32238a16.8,16.8,0,0,0-13.814,16.53255v22.25421a21.746,21.746,0,0,0,1.31906,7.66006,19.08191,19.08191,0,0,0,6.41811,8.60835,19.69724,19.69724,0,0,0,8.01772,3.55522,28.79706,28.79706,0,0,0,9.10053.21246,27.216,27.216,0,0,0,3.74308-.70956c.11361-.03118.22682-.06317.3392-.0968a20.53427,20.53427,0,0,0,2.28538.5939,25.58686,25.58686,0,0,0,5.00718.475,32.32648,32.32648,0,0,0,4.095-.2625,27.18854,27.18854,0,0,0,3.74144-.70956c.316-.08614.6218-.19237.92921-.29573.193.06768.38288.1411.57811.20467a31.59989,31.59989,0,0,0,9.83348,1.5266,38.3384,38.3384,0,0,0,5.66014-.43969,27.14773,27.14773,0,0,0,3.68238-.83589,20.43349,20.43349,0,0,0,2.41459.56929,26.69777,26.69777,0,0,0,4.51171.36914,30.409,30.409,0,0,0,4.20409-.28875,25.33369,25.33369,0,0,0,3.78778-.7875,16.79411,16.79411,0,0,0,2.8592-1.155,28.31987,28.31987,0,0,0,2.70743,1.04179,31.59989,31.59989,0,0,0,9.83348,1.5266,38.33843,38.33843,0,0,0,5.66015-.43969,26.173,26.173,0,0,0,8.37127-2.72179,21.21615,21.21615,0,0,0,2.4595-1.51839,29.00012,29.00012,0,0,0,6.73044,3.15655A34.07292,34.07292,0,0,0,157.742,409.926a29.9768,29.9768,0,0,0,10.70752-1.78089,29.61212,29.61212,0,0,0,10.02994,1.6964,30.24569,30.24569,0,0,0,10.11485-1.67836c.04552-.016.08941-.03527.13473-.05168a20.09943,20.09943,0,0,0,3.74165,1.02375,29.17531,29.17531,0,0,0,8.7158.08039c.73705-.10254,1.40765-.21738,2.03355-.34781q.64292.15381,1.30265.2666a28.83576,28.83576,0,0,0,8.676.08121c.75551-.10582,1.43432-.22066,2.06513-.35027q.64908.155,1.31537.26988a26.69786,26.69786,0,0,0,4.51171.36914,30.409,30.409,0,0,0,4.2041-.28875,25.323,25.323,0,0,0,3.78778-.7875c.15791-.04675.30844-.10746.46389-.15873.04347.01436.08572.03118.1292.04553a31.59982,31.59982,0,0,0,9.83347,1.5266,38.33843,38.33843,0,0,0,5.66015-.43969,27.05059,27.05059,0,0,0,4.30007-1.00816,27.66682,27.66682,0,0,0,4.088,1.00734,36.908,36.908,0,0,0,6.05594.48235c6.82971,0,12.611-1.74686,17.18388-5.19011.26619.22312.53279.44584.81169.65461a19.69724,19.69724,0,0,0,8.01772,3.55522,25.58686,25.58686,0,0,0,5.00718.475,32.41443,32.41443,0,0,0,4.09335-.2625,27.12105,27.12105,0,0,0,3.748-.7112q.69707-.19073,1.36561-.43723a20.01229,20.01229,0,0,0,4.10751,1.1673,29.23255,29.23255,0,0,0,8.71621.082c.93556-.13125,1.76367-.28054,2.52984-.45691q.85332.224,1.73783.3757a26.69777,26.69777,0,0,0,4.51171.36914,30.409,30.409,0,0,0,4.20409-.28875,25.3341,25.3341,0,0,0,3.78779-.7875c.16508-.04921.32258-.11238.48521-.16611.05045.01682.09926.03651.14971.05291a31.59978,31.59978,0,0,0,9.83347,1.5266,38.33843,38.33843,0,0,0,5.66015-.43969,26.173,26.173,0,0,0,8.37127-2.72179c.17227-.09064.3351-.19195.50408-.2867.30024.16366.60149.32649.91178.47865a28.19915,28.19915,0,0,0,7.19043,2.3584,36.24471,36.24471,0,0,0,6.73927.61113,33.35451,33.35451,0,0,0,12.06062-2.08441,27.80748,27.80748,0,0,0,3.84233,1.21734,34.5,34.5,0,0,0,7.868.86707,35.696,35.696,0,0,0,10.55514-1.48435,20.27713,20.27713,0,0,0,3.05586.77806,29.22954,29.22954,0,0,0,8.71581.08039c.93515-.13043,1.76244-.27972,2.5282-.45609q.85271.224,1.73741.3757a26.784,26.784,0,0,0,4.51171.36914,30.49567,30.49567,0,0,0,4.20246-.28793,27.43,27.43,0,0,0,3.03638-.582,28.09139,28.09139,0,0,0,8.18711,1.16525,26.51635,26.51635,0,0,0,8.38788-1.26368c.51988.1538,1.03688.31253,1.57275.43845a34.49729,34.49729,0,0,0,7.868.86707c6.38694,0,11.88958-1.35843,16.35659-4.03839a22.91114,22.91114,0,0,0,5.43-4.51663,19.475,19.475,0,0,0,4.79144-12.88134v-9.441a24.34124,24.34124,0,0,0-2.447-10.86092A23.02522,23.02522,0,0,0,474.19541,359.45806Z"/><path fill="#3d3351" d="M469.71651,287.79078A36.91751,36.91751,0,0,0,451.33539,260.536c-13.55563-7.77326-30.904-4.11057-39.49427,8.33846a26.89886,26.89886,0,0,0-4.74755,12.979,23.89519,23.89519,0,0,0,10.4405,22.23945c4.9916,3.29191,12.65863,5.702,20.83139-1.50773,8.44141-7.44842,8.10221-15.7393,4.96944-21.0139-3.21275-5.41077-9.18953-8.01444-14.21516-6.18515a1.68026,1.68026,0,0,0,1.14843,3.1582c3.45064-1.25508,7.82659.78258,10.178,4.74222,1.18658,1.99827,4.38333,9.11365-4.30376,16.77864-5.28281,4.66182-10.92,5.07444-16.75854,1.22226a20.54012,20.54012,0,0,1-8.94426-19.12965,23.58975,23.58975,0,0,1,4.16676-11.37525c7.60675-11.0217,23.0048-14.24224,35.05763-7.33112a33.53968,33.53968,0,0,1,16.71753,24.7496,29.53944,29.53944,0,0,1-9.29166,25.35253c-20.72926,19.91633-113.91371,25.51987-114.7816,25.57155l-4.04864.06193c-9.11447-15.68639-12.28723-32.89077-13.36779-41.84283a1.67976,1.67976,0,1,0-3.33538.402c1.0742,8.90324,4.16554,25.74791,12.87478,41.49952l-204.41163,3.13523c10.03568-16.49317,13.50908-34.85747,14.69259-44.63393a1.67986,1.67986,0,0,0-3.33539-.4036c-1.19417,9.86178-4.77831,28.706-15.36114,45.09906l-57.54686.88265a1.68009,1.68009,0,0,0,.02543,3.36h.02625l273.91042-4.20245c3.88417-.22476,95.36811-5.73479,116.987-26.50588A32.82787,32.82787,0,0,0,469.71651,287.79078Z"/><polygon fill="#4c0e93" points="181.054 209.765 265.894 209.765 265.894 130.805 163.414 130.805 163.414 187.925 181.054 187.925 181.054 209.765"/><rect width="121.8" height="1.68" x="181.054" y="208.085" fill="#36087a"/><path fill="#fbb641" d="M265.89427,172.80534v36.95993H302.8542v50.21887c-.25465.00379-.51715.00221-.773.00523a198.75666,198.75666,0,0,0,46.9729-5.78452V172.80534Z"/><path fill="#26a526" d="M181.05444,209.76527v30.04512c-4.55473-1.917-9.03142-4.001-13.44-6.21529v.0366a219.48085,219.48085,0,0,0,77.93179,22.415q.58293.055,1.139.10484c6.91891.62113,13.84023,1.26231,20.74433,2.031a281.94981,281.94981,0,0,0,35.42466,1.80161V209.76527Z"/><path fill="#d64142" d="M42.03471,123.66544,91.59461,297.5451H362.49408s35.18317-33.18412,40.79615-70.68642a.8436.8436,0,0,0-1.44753-.70509c-8.19736,8.83206-45.35676,41.94476-134.41314,32.029-6.9041-.76872-13.82542-1.40989-20.74436-2.031q-.55591-.0499-1.139-.10485c-67.38642-6.356-127.91648-43.52931-164.85609-100.24608C67.49122,135.53505,50.95979,115.19806,42.03471,123.66544Z"/><path fill="#7a135c" d="M181.05444,239.81039V187.92531h-74.972A222.49151,222.49151,0,0,0,181.05444,239.81039Z"/><path fill="#137624" d="M182.73444,209.76527h-1.68v29.31217c.5613.24179,1.11665.49588,1.68.733Z"/><polygon fill="#36087a" points="181.054 209.765 182.734 209.765 182.734 186.245 163.414 186.245 163.414 187.925 181.054 187.925 181.054 209.765"/><path fill="#7c1e66" d="M285.91209 198.54686h0a9.699 9.699 0 0 0-8.97375.97615h0a9.699 9.699 0 0 0-3.70141-8.2329h0a9.699 9.699 0 0 0 6.68615-6.06436h0a9.699 9.699 0 0 0 7.83368 4.48492h0a9.699 9.699 0 0 0-1.84467 8.8362zM336.66357 250.57543h0a9.699 9.699 0 0 0-6.18154-6.578h0a9.699 9.699 0 0 0 4.34582-7.91169h0a9.699 9.699 0 0 0 8.8674 1.68827h0a9.699 9.699 0 0 0 1.13453 8.9551h0a9.699 9.699 0 0 0-8.16622 3.84628zM306.45409 222.88982h0a9.699 9.699 0 0 0-1.43422-8.912h0a9.699 9.699 0 0 0 8.03264-4.118h0a9.699 9.699 0 0 0 6.39867 6.367h0a9.699 9.699 0 0 0-4.07805 8.053h0a9.699 9.699 0 0 0-8.919-1.38994z"/><path fill="#fbb641" d="M116.37457 188.76531a5.88016 5.88016 0 1 0 11.69317-.84H116.44137A5.892 5.892 0 0 0 116.37457 188.76531zM138.21452 210.60527a5.86039 5.86039 0 0 0-4.4164 2.00679q4.67454 3.51675 9.52325 6.78038a5.8742 5.8742 0 0 0-5.10685-8.78717zM181.05444 239.81039v-8.47171a5.86834 5.86834 0 0 0-8.3705 4.72243C175.449 237.36268 178.23436 238.6235 181.05444 239.81039z"/><rect width="23.52" height="78.96" x="202.894" y="130.805" fill="#db4f89"/><rect width="102.48" height="23.52" x="163.414" y="158.525" fill="#db4f89"/><path fill="#094190" d="M277.65425,259.14778q7.39772.5774,14.28.75669v-50.1392h-14.28Z"/><path fill="#094190" d="M245.54626,256.04665q.58293.055,1.139.10484.86485.07768,1.72978.15709H302.8542v-14.28H186.49971A219.1253,219.1253,0,0,0,245.54626,256.04665Z"/><path fill="#d7932e" d="M265.89427 209.76527H302.8542v50.20949q1.05575-.01584 2.1-.03968v-52.2698H265.89427zM302.08126 259.98942c.25573-.00307.51823-.00143.77294-.00533h0c-.25348.00379-.51474.00226-.76925.00523z"/><rect width="23.52" height="1.68" x="202.894" y="208.085" fill="#b73678"/><rect width="1.68" height="36.96" x="265.894" y="172.805" fill="#d7932e"/><path fill="#7c1e66" d="M342.5492,184.16142q-1.46025,1.33707-2.69918,2.66637c1.01833,2.08605,2.619,7.15,1.60589,17.30385,0,0,3.52971.89216,5.4652-8.0973,0,0,7.1089,2.66443,5.988,3.97385,0,0,2.66673-2.246-2.56516-10.74627a64.44371,64.44371,0,0,1-6.29573-5.53014s-.05472.02437-.16045.06511l-.12163.04423a8.1471,8.1471,0,0,1-1.21448.3186l-.0025.0017.0025-.0017a8.1471,8.1471,0,0,0,1.21448-.3186l.12163-.04423c.10573-.04074.16045-.06511.16045-.06511Z"/><path fill="#7c1e66" d="M345.13 178.299s17.01915-10.69747 21.53453-2.43421c0 0 1.52876 2.25107-.85477 7.89s-2.41431 6.939-6.7158 8.94661a2.39125 2.39125 0 0 1-.31009.11922c-4.48464 1.38272-14.73559-9.08882-14.73559-9.08882S345.77748 183.39619 345.13 178.299zM337.08144 182.62465c-.39473.17487-13.43464 5.904-17.039 3.01033a2.38967 2.38967 0 0 1-.24429-.22516c-3.25816-3.45218-2.8074-4.672-2.94376-10.7925s2.11471-7.64926 2.11471-7.64926c6.35149-5.27467 16.26262 6.54236 18.60949 9.53526-.01756.1033-.03173.2116-.0467.3241C337.23924 179.1222 336.58493 181.24776 337.08144 182.62465z"/><path fill="#7c1e66" d="M337.08144,182.62465a2.21811,2.21811,0,0,0,1.68628,1.404,8.68022,8.68022,0,0,0,3.78148.13277l.0025-.0017-.0025.0017C330.288,195.372,330.11369,206.535,330.11369,206.535c-3.10973-.81191-3.654-10.4929-3.654-10.4929-3.14985-.60192-7.121.8158-7.121.8158.68-2.49936,7.98159-10.126,9.0127-11.19358A62.86387,62.86387,0,0,0,337.08144,182.62465Z"/><path fill="#66135b" d="M346.92111 196.03434c-1.43434 6.6618-3.7438 7.89646-4.84382 8.08937-.01075.11327-.02012.22375-.03154.3383 0 0 3.52971.89217 5.46521-8.09729a37.26019 37.26019 0 0 1 3.84158 1.71834A34.26289 34.26289 0 0 0 346.92111 196.03434zM350.93384 189.5923a64.44325 64.44325 0 0 1-6.29574-5.53014l-.20081.05755a64.34663 64.34663 0 0 0 5.90671 5.14221c3.78906 6.15615 3.43527 9.03132 2.952 10.14922.31962.3424.42969.66262.203.92742C353.499 200.33856 356.16573 198.09261 350.93384 189.5923z"/><path fill="#7c1e66" d="M340.457,174.42628a8.10129,8.10129,0,0,1-1.0844-.1249c-.54109-.09071-1.53209.09748-1.84071,2.526-.43205,3.4-1.66395,6.42945,1.23579,7.20123a8.598,8.598,0,0,0,5.28054-.29687s2.067-.40115.835-6.98722a2.48465,2.48465,0,0,0-1.66561-1.90523A9.91508,9.91508,0,0,0,340.457,174.42628Z"/><path fill="#66135b" d="M344.04826,183.73178a8.598,8.598,0,0,1-5.28054.29687c-2.89974-.77178-1.66784-3.80126-1.23579-7.20123.01256-.09879.02665-.19254.04137-.284-.0473.21107-.08856.444-.12162.704-.43206,3.4-1.66395,6.42945,1.23578,7.20123a8.59794,8.59794,0,0,0,5.28054-.29687s.84487-.16715,1.1319-2.00956C344.76111,183.59157,344.04826,183.73178,344.04826,183.73178Z"/><path fill="#66135b" d="M337.07664 182.60863c-.02762-.07834-.052-.15882-.07249-.24186l-.00358-.01355a3.51313 3.51313 0 0 1-.08519-.56151l-.00269-.03893c-.00611-.09147-.01-.18464-.011-.28l-.00036-.01758q-.00122-.15675.00561-.31994l.00079-.015c.00432-.09768.01082-.19731.0189-.29828l.0058-.0697q.01209-.13853.028-.28076l.00531-.04944q.0188-.16139.04188-.32733c.00494-.03588.01045-.07248.01564-.10867q.01575-.10938.03278-.22035.01216-.07869.02479-.15826c.008-.04991.01628-.10035.02459-.15076.09323-.56617.20392-1.16126.30238-1.77561l.001-.00586q.02993-.18708.05781-.3765l.01009-.06838q.02909-.20057.05527-.403c.01167-.09175.02459-.17927.03816-.26473.003-.01926.00534-.04044.00853-.05937-.1022-.13034-.21962-.27838-.34961-.44005-.04541.20578-.08505.43216-.11706.68389-.30777 2.422-1.02014 4.65518-.357 6.01895.18184-.07769.295-.12748.32653-.14146zM345.13894 178.376c.00827.06711.01544.13191.02292.19735.011.09617.02158.19158.03079.2842.00658.06583.01234.13.018.194.00782.08759.01511.174.02141.25837q.007.09416.01278.18551.00772.122.01327.23922c.00281.05895.00547.1175.00753.17472.00269.07615.00447.15009.00588.22325.001.0543.0022.10886.00255.16156.00044.07224-.00021.14178-.001.211-.00061.04933-.00079.0995-.002.14735-.00175.07048-.00478.13778-.00781.20508-.00193.042-.00322.08553-.0056.12636-.00443.07556-.01027.14741-.01622.2189-.00243.02911-.00418.06-.00686.08843q-.01377.14632-.03166.28125c-.00344.02591-.00763.04952-.0113.07481-.0091.06336-.01833.12637-.02868.186-.00575.03287-.01218.06335-.01825.09511-.00932.04873-.01858.09762-.02867.14377-.00722.03289-.01495.06378-.02254.09539-.01.04171-.01995.08331-.03053.12282-.00826.031-.01691.06039-.02555.09-.01074.037-.02155.07357-.03281.10857-.0091.02843-.01843.05581-.02781.083-.0115.03318-.02311.0656-.035.09692q-.01459.03844-.02943.07508c-.01222.03-.02461.059-.03713.08721-.01008.02275-.02011.04532-.03038.06695-.01291.02721-.02592.05305-.039.07854-.01015.01974-.02024.03973-.03049.05847-.01376.02517-.02765.04865-.04153.07206-.00983.01654-.01956.03367-.02944.04935-.01489.0237-.02981.04545-.04474.06727l-.02672.03933c-.01873.026-.03732.04983-.05589.07307l-.01509.01955c-.0235.02858-.04676.05491-.06971.07938l-.02264.0228c-.01528.01561-.03054.0312-.04544.04511l-.02672.02372c-.013.01149-.02592.023-.03848.03325l-.0268.02093-.03456.026-.02544.01744-.03128.02036-.02331.01394-.02786.01564-.02045.01065-.02442.0117-.01692.00762-.02068.00841-.013.005-.01676.00568-.00808.00264-.01333.00374-.00224.00061-.00556.00127s.061.06225.17463.17565c.15743-.0566.24535-.09539.24535-.09539s1.79725-.35117 1.03938-5.74271c-.24341.14544-.37765.22963-.37765.22963C345.13336 178.32542 345.13571 178.34983 345.13894 178.376z"/><path fill="#66135b" d="M345.00206 182.49927c3.19483 1.15248 16.5651 6.26932 13.78179 10.32133-4.48464 1.38272-14.73559-9.08882-14.73559-9.08882S344.64057 183.61643 345.00206 182.49927zM336.90762 181.13094c-2.86423-.10332-17.98788-.41846-16.86514 4.504 3.60432 2.89365 16.64423-2.83546 17.039-3.01033A3.8928 3.8928 0 0 1 336.90762 181.13094zM327.83226 175.19163a5.2786 5.2786 0 0 1 1.93347-.73049 6.641 6.641 0 0 1 2.09282-.04306 5.69163 5.69163 0 0 1 1.9991.65912 4.76023 4.76023 0 0 1 1.57438 1.349 17.84789 17.84789 0 0 0-1.8375-.74854 9.685 9.685 0 0 0-1.8539-.42861A17.74087 17.74087 0 0 0 327.83226 175.19163zM329.8211 177.313a2.41639 2.41639 0 0 1 1.17346-.72146 3.45075 3.45075 0 0 1 1.3935-.12141 3.38412 3.38412 0 0 1 2.343 1.34572c-.46142-.08654-.86091-.21205-1.26389-.29982a10.45866 10.45866 0 0 0-1.179-.21246 8.73807 8.73807 0 0 0-1.188-.06768C330.69309 177.24077 330.28068 177.26414 329.8211 177.313zM346.78082 179.68324a5.47026 5.47026 0 0 1 1.69866-.85558 7.444 7.444 0 0 1 1.88241-.33756 6.3243 6.3243 0 0 1 1.9144.203 4.57279 4.57279 0 0 1 1.71507.8441c-.64128-.07014-1.22514-.1735-1.82335-.1977a15.64009 15.64009 0 0 0-1.77023-.01066C349.21366 179.37234 348.04164 179.53805 346.78082 179.68324zM346.87044 180.35343a4.51566 4.51566 0 0 1 1.52209-.21574 5.68523 5.68523 0 0 1 1.52639.22559 3.90383 3.90383 0 0 1 1.41114.72351 2.0332 2.0332 0 0 1 .7996 1.35967 3.76982 3.76982 0 0 0-1.15725-.81047 8.17582 8.17582 0 0 0-1.293-.4684C348.78382 180.89074 347.84825 180.7 346.87044 180.35343zM342.11793 184.56182c-11.83247 11.07439-12.00424 21.97321-12.00424 21.97321a1.82119 1.82119 0 0 1-.48838-.212 2.04512 2.04512 0 0 0 .86823.50224s.17428-11.16307 12.43551-22.37362C342.68271 184.49667 342.41043 184.53526 342.11793 184.56182zM326.4597 196.04213a15.31788 15.31788 0 0 0-6.56367.63714 3.19644 3.19644 0 0 0-.17745.46891 16.84157 16.84157 0 0 1 6.75652-.87517C326.46436 196.12429 326.4597 196.04213 326.4597 196.04213z"/><path fill="#fce6d9" d="M320.43605 168.69589l.33231.6a1.65629 1.65629 0 0 0-1.20007.66463A5.02736 5.02736 0 0 1 320.43605 168.69589zM339.45284 176.24776l.33231.6a1.65629 1.65629 0 0 0-1.20007.66463A5.02764 5.02764 0 0 1 339.45284 176.24776z"/><path fill="#d64142" d="M181.47856,189.37446s19.10446-6.25359,21.48244,2.85768c0,0,.93759,2.55448-2.74158,7.44762s-4.02414,6.147-8.684,7.05214a2.391,2.391,0,0,1-.32974.04052c-4.686.25455-12.09338-12.38929-12.09338-12.38929S180.87135,194.47666,181.47856,189.37446Z"/><path fill="#fbb641" d="M181.47856 189.37446s19.10446-6.25359 21.48244 2.85768c0 0 .93759 2.55448-2.74158 7.44762s-4.02414 6.147-8.684 7.05214a2.391 2.391 0 0 1-.32974.04052c-4.686.25455-12.09338-12.38929-12.09338-12.38929S180.87135 194.47666 181.47856 189.37446zM172.62159 191.62046c-.42535.074-14.465 2.4718-17.26055-1.20915a2.39153 2.39153 0 0 1-.18243-.27765c-2.32431-4.13893-1.59134-5.21313-.24021-11.18419s3.90561-6.90865 3.90561-6.90865c7.44052-3.578 14.192 10.28885 15.74357 13.76133-.04208.096-.08207.1976-.12386.30312C173.62357 188.26069 172.4736 190.16428 172.62159 191.62046z"/><path fill="#fbb641" d="M172.62159,191.62046a2.21809,2.21809,0,0,0,1.29571,1.77084,8.68026,8.68026,0,0,0,3.63655,1.04533l.00284-.001-.00284.001c-14.61275,7.90455-17.48741,18.69253-17.48741,18.69253-2.82023-1.54141-1.00188-11.06566-1.00188-11.06566-2.91005-1.3474-7.10638-.93443-7.10638-.93443,1.26553-2.26,10.19785-7.88961,11.457-8.67543A62.86292,62.86292,0,0,0,172.62159,191.62046Z"/><path fill="#d64142" d="M177.55385,194.43663q-1.74077.94327-3.26494,1.93267c.48237,2.27067.808,7.57154-2.63593,17.17713,0,0,3.20824,1.72107,7.2648-6.53126,0,0,6.25116,4.308,4.84636,5.30668,0,0,3.13157-1.53266.11589-11.04758a64.44336,64.44336,0,0,1-4.76768-6.89114s-.059.01038-.17145.02428l-.12873.01343a8.14648,8.14648,0,0,1-1.25548.01475l-.00284.001.00284-.001a8.14648,8.14648,0,0,0,1.25548-.01475l.12873-.01343c.11245-.0139.17145-.02428.17145-.02428Z"/><path fill="#d64142" d="M177.55385,194.43663q-1.74077.94327-3.26494,1.93267c.48237,2.27067.808,7.57154-2.63593,17.17713,0,0,3.20824,1.72107,7.2648-6.53126,0,0,6.25116,4.308,4.84636,5.30668,0,0,3.13157-1.53266.11589-11.04758a64.44336,64.44336,0,0,1-4.76768-6.89114s-.059.01038-.17145.02428l-.12873.01343a8.14648,8.14648,0,0,1-1.25548.01475l-.00284.001.00284-.001a8.14648,8.14648,0,0,0,1.25548-.01475l.12873-.01343c.11245-.0139.17145-.02428.17145-.02428Z"/><path fill="#d64142" d="M177.55385,194.43663q-1.74077.94327-3.26494,1.93267c.48237,2.27067.808,7.57154-2.63593,17.17713,0,0,3.20824,1.72107,7.2648-6.53126,0,0,6.25116,4.308,4.84636,5.30668,0,0,3.13157-1.53266.11589-11.04758a64.44336,64.44336,0,0,1-4.76768-6.89114s-.059.01038-.17145.02428l-.12873.01343a8.14648,8.14648,0,0,1-1.25548.01475l-.00284.001.00284-.001a8.14648,8.14648,0,0,0,1.25548-.01475l.12873-.01343c.11245-.0139.17145-.02428.17145-.02428Z"/><path fill="#fbb641" d="M177.55385,194.43663q-1.74077.94327-3.26494,1.93267c.48237,2.27067.808,7.57154-2.63593,17.17713,0,0,3.20824,1.72107,7.2648-6.53126,0,0,6.25116,4.308,4.84636,5.30668,0,0,3.13157-1.53266.11589-11.04758a64.44336,64.44336,0,0,1-4.76768-6.89114s-.059.01038-.17145.02428l-.12873.01343a8.14648,8.14648,0,0,1-1.25548.01475l-.00284.001.00284-.001a8.14648,8.14648,0,0,0,1.25548-.01475l.12873-.01343c.11245-.0139.17145-.02428.17145-.02428Z"/><path fill="#d7932e" d="M178.91778 207.01517c-3.00619 6.11553-5.546 6.75363-6.66 6.67418-.03788.10729-.07375.2122-.11259.32057 0 0 3.20823 1.72106 7.26479-6.53127a37.2587 37.2587 0 0 1 3.31057 2.59819A34.26274 34.26274 0 0 0 178.91778 207.01517zM184.37222 201.73776a64.44156 64.44156 0 0 1-4.76769-6.89115l-.20877.00717a64.34722 64.34722 0 0 0 4.48427 6.4205c2.184 6.891 1.14393 9.59464.40409 10.56207.2271.40966.25628.747-.0278.949C184.25632 212.78533 187.38789 211.25268 184.37222 201.73776z"/><path fill="#fbb641" d="M177.88358,184.48468a8.1023,8.1023,0,0,1-1.02181-.384c-.503-.21915-1.51-.27675-2.39805,2.0046-1.24323,3.19388-3.17264,5.83445-.54642,7.286a8.598,8.598,0,0,0,5.195.99183s2.10263.1118,2.50361-6.57651a2.48463,2.48463,0,0,0-1.15418-2.25211A9.91494,9.91494,0,0,0,177.88358,184.48468Z"/><path fill="#d7932e" d="M179.11235,194.38313a8.598,8.598,0,0,1-5.195-.99183c-2.62622-1.45158-.69681-4.09215.54642-7.286.03612-.09281.07251-.18034.109-.26555-.097.19332-.19353.40928-.28863.65355-1.24323,3.19389-3.17265,5.83446-.54642,7.286a8.598,8.598,0,0,0,5.195.99183s.86019.0426,1.58521-1.67531C179.83792,194.41987,179.11235,194.38313,179.11235,194.38313Z"/><path fill="#d7932e" d="M172.62081 191.60376c-.0078-.0827-.01191-.16668-.01171-.25222 0-.0047-.00023-.00931-.00018-.014a3.5118 3.5118 0 0 1 .05343-.56541l.00684-.03842c.01623-.09022.03508-.18155.05716-.27428l.00392-.01714q.03681-.15239.083-.30905l.0044-.01435c.02787-.09372.05832-.18881.09063-.2848l.02252-.06622q.0453-.13147.09523-.2656l.01713-.04668q.05734-.152.12-.30742c.01349-.03362.02771-.06779.04151-.10164q.0418-.1023.08521-.20584.03087-.07338.06241-.14752c.01986-.04649.04012-.09342.0604-.14031.22767-.52669.47929-1.07721.72372-1.64939l.00235-.00545q.07437-.17424.14734-.35126l.02636-.06389q.07683-.18755.1513-.37758c.03355-.08619.0673-.168.10118-.24759.00757-.018.015-.03794.02266-.05554-.06756-.15122-.1456-.3233-.23252-.51166-.09393.18864-.18727.39867-.27933.63513-.88561 2.2752-2.118 4.26913-1.80519 5.753.19524-.03131.31707-.05219.35107-.0581zM181.46857 189.45142c-.00824.06712-.017.13172-.02559.197-.01268.096-.0255.1911-.039.2832-.00957.06545-.01953.12907-.02951.19261-.01365.08687-.02752.17248-.04185.25586q-.016.093-.03257.18307-.02207.12024-.0451.2353c-.01156.05788-.02317.11533-.03505.17134-.01584.07453-.032.1467-.0484.218-.01217.05293-.02424.10615-.03668.15737-.01709.07018-.03456.1375-.05212.20449-.01255.04771-.02488.09634-.03764.14247-.01879.068-.038.13251-.05729.19708-.01206.04033-.02385.08219-.03606.12123-.0226.07223-.04568.14053-.06879.20845-.00941.02765-.01859.05717-.02808.08413q-.04882.13861-.09889.26518c-.00961.02431-.0194.04619-.02909.06985-.02419.05926-.04841.11816-.0729.17347-.01354.0305-.02717.05851-.04076.08785-.02084.045-.04168.0902-.06266.13253-.015.03017-.03.05825-.045.08709-.01978.038-.03955.076-.05939.11175-.01551.028-.031.05449-.04661.08116-.01938.03329-.03874.06616-.05815.09739-.01572.02538-.0314.04968-.04708.07374-.0192.0294-.03832.058-.05745.08555q-.02348.03375-.04675.0657c-.01914.02617-.03817.05124-.05716.07561-.0153.01963-.03049.0391-.0457.05759-.01912.02328-.038.04519-.0569.06674-.01463.01669-.02926.03364-.04375.04934-.01946.02108-.03862.04049-.05776.05984-.01355.01366-.02714.02793-.04052.04075-.02019.01938-.03994.03687-.05971.05441l-.03546.03168c-.02448.02068-.04828.03931-.07194.05735l-.01937.01531c-.02972.022-.05867.04195-.08688.06012l-.02748.01664c-.01862.01144-.0372.02287-.055.03274l-.03167.01654c-.01535.008-.03072.016-.04538.02293l-.03108.01381-.03983.01683-.0289.01076-.03529.01217-.026.00787-.03082.00843-.02242.00538-.02653.00543-.01826.00329-.0221.00314-.01386.00172-.01764.00146-.00848.0006-.01384.00039-.00232 0-.0057-.00011s.044.07517.12685.21274c.16645-.01676.26116-.03309.26116-.03309s1.82876.0949 2.40024-5.31956c-.2714.0821-.422.13124-.422.13124C181.47543 189.401 181.47179 189.42521 181.46857 189.45142z"/><path fill="#d7932e" d="M180.33643 193.41854c2.82025 1.89245 14.5517 10.09726 10.8693 13.35388-4.686.25455-12.09338-12.38929-12.09338-12.38929S179.715 194.41477 180.33643 193.41854zM172.815 190.12916c-2.75379-.79444-17.35014-4.7657-17.45394.28215 2.79552 3.681 16.8352 1.28314 17.26055 1.20915A3.89266 3.89266 0 0 1 172.815 190.12916zM165.44973 182.16723s4.48016-.51715 7.074 3.03977M166.86515 184.70736a4.69087 4.69087 0 0 1 4.64174 1.678M182.74475 191.1175s4.09215-.69681 7.0309 1.60626M182.66927 191.78934s4.23938 1.02052 4.595 3.30551M177.03839 194.72057c-14.16377 7.87637-16.97195 18.40859-16.97195 18.40859a1.82149 1.82149 0 0 1-.42245-.324 2.04506 2.04506 0 0 0 .72063.6977s2.87467-10.788 17.48741-18.69254C177.60212 194.79425 177.32861 194.76569 177.03839 194.72057zM159.06456 202.0635a15.31794 15.31794 0 0 0-6.5224-.97269 3.19565 3.19565 0 0 0-.2858.41192 16.84172 16.84172 0 0 1 6.76718.7885C159.04916 202.14434 159.06456 202.0635 159.06456 202.0635z"/><path fill="#fce6d9" d="M159.8484 174.07266l.177.66269a1.65626 1.65626 0 0 0-1.32537.35395S159.51705 174.16115 159.8484 174.07266zM176.46785 186.00846l.177.66269a1.65628 1.65628 0 0 0-1.32537.35394S176.1365 186.097 176.46785 186.00846z"/><path fill="#fbb641" d="M217.855,133.69655q-1.20052,1.57443-2.18459,3.102c1.37149,1.87286,3.84324,6.57347,4.64341,16.74636,0,0,3.6319.25331,3.94564-8.93681,0,0,7.46827,1.364,6.59688,2.85118,0,0,2.22707-2.68252-4.42681-10.12253a64.445,64.445,0,0,1-7.17519-4.32843s-.04954.03367-.14639.09248l-.11188.06506a8.14678,8.14678,0,0,1-1.13891.52854l-.00216.00211.00216-.00211a8.14678,8.14678,0,0,0,1.13891-.52854l.11188-.06506c.09685-.05881.14639-.09248.14639-.09248Z"/><path fill="#fbb641" d="M219.35735 127.46984s14.8569-13.541 20.76363-6.20752c0 0 1.90307 1.94493.55531 7.91675s-1.14793 7.25681-5.02615 9.99407a2.38927 2.38927 0 0 1-.28409.17223c-4.16907 2.15469-16.11169-6.337-16.11169-6.337S220.89687 132.372 219.35735 127.46984zM212.20158 133.15187c-.35754.242-12.17747 8.18878-16.23707 5.97881a2.39109 2.39109 0 0 1-.28028-.17837c-3.81777-2.821-3.59-4.10129-4.80761-10.101s.72735-7.90279.72735-7.90279c5.31754-6.31564 17.16386 3.56047 20.00344 6.0907.001.10478.00622.21387.01141.32724C211.73694 129.6768 211.46919 131.88461 212.20158 133.15187z"/><path fill="#fbb641" d="M212.20158,133.15187a2.21809,2.21809,0,0,0,1.90817,1.08336,8.68027,8.68027,0,0,0,3.74527-.53868l.00216-.00211-.00216.00211c-10.08329,13.20385-8.27888,24.22149-8.27888,24.22149-3.20434-.24865-5.4536-9.68044-5.4536-9.68044-3.20666-.03487-6.86413,2.06338-6.86413,2.06338.2269-2.58027,6.06319-11.37893,6.889-12.61214A62.86059,62.86059,0,0,0,212.20158,133.15187Z"/><path fill="#d7932e" d="M224.25948 144.60814c-.23251 6.8105-2.287 8.43445-3.33547 8.819.00947.11339.0198.22378.02884.33855 0 0 3.63189.2533 3.94564-8.93681a37.25888 37.25888 0 0 1 4.08508 1.01122A34.26354 34.26354 0 0 0 224.25948 144.60814zM227.06856 137.55754a64.4421 64.4421 0 0 1-7.17519-4.32843l-.18745.09219a64.34765 64.34765 0 0 0 6.72364 4.01549c4.81891 5.38825 4.97962 8.28065 4.70182 9.46645.37518.28041.54019.57609.364.87683C231.49537 147.68007 233.72244 144.99756 227.06856 137.55754z"/><path fill="#fbb641" d="M214.07272,124.48546a8.10208,8.10208,0,0,1-1.08939.069c-.54861.0065-1.49064.36714-1.36451,2.812.17657,3.42277-.49963,6.62246,2.49093,6.86879a8.598,8.598,0,0,0,5.14461-1.22687s1.96339-.7607-.415-7.0247a2.48463,2.48463,0,0,0-1.97654-1.58032A9.91532,9.91532,0,0,0,214.07272,124.48546Z"/><path fill="#d7932e" d="M219.25436,133.00836a8.598,8.598,0,0,1-5.14461,1.22687c-2.99056-.24633-2.31436-3.446-2.49093-6.86879-.00513-.09945-.00786-.1942-.00957-.28687-.00919.21611-.00858.45264.00492.71443.17658,3.42277-.49963,6.62246,2.49093,6.86878a8.598,8.598,0,0,0,5.14461-1.22687s.80194-.31406.75832-2.17818C219.93114,132.74418,219.25436,133.00836,219.25436,133.00836Z"/><path fill="#d7932e" d="M212.194 133.137q-.06157-.10833-.11416-.22521l-.00591-.01271a3.51276 3.51276 0 0 1-.18325-.53756l-.00953-.03784q-.03332-.13341-.06039-.27358l-.00347-.01724q-.02893-.15408-.05111-.31589l-.00187-.01489c-.013-.09691-.02428-.19611-.0342-.29691l-.00663-.06963q-.01263-.13848-.02212-.28128l-.00354-.0496q-.01005-.16216-.01672-.32958c-.00148-.03619-.00254-.07318-.00384-.10972q-.00385-.11044-.00674-.22268-.00195-.07959-.00361-.16014c-.001-.05054-.00174-.10165-.00249-.15273-.00845-.57374-.00485-1.179-.01669-1.8011l-.00009-.00594q-.00366-.18942-.00974-.38079l-.00218-.06908c-.00458-.135-.01-.27051-.01692-.40642-.00477-.09236-.00754-.18079-.00931-.2673-.00047-.01949-.00191-.04075-.00212-.05994-.12366-.11019-.26542-.23511-.422-.37122-.00827.21057-.00722.4404.00584.69382.1258 2.43824-.18 4.76224.714 5.9871.16521-.10865.26775-.17768.29633-.197zM219.37982 127.54412c.02.0646.03855.1271.05749.19019.0278.0927.05514.18472.08061.27426.01812.06362.03514.12572.05211.18776.0232.08483.04567.16859.06681.25051q.02358.09141.0454.18031.0292.11871.05541.2331c.01321.05752.02618.11467.03834.17063.01612.07447.031.14692.0453.21868.01062.05327.02144.10676.03111.15856.01322.071.02489.13958.03636.20787.00814.04866.01684.09807.02413.14538.01075.06968.01968.13645.02861.20323.00555.04173.012.08474.01686.12535.009.07515.016.1469.02278.21832.00277.02908.0065.05977.00891.08825q.01234.14644.01862.28241c.0012.02611.00125.05008.00212.07563.00226.064.00433.12762.00469.18811.00016.03336-.00078.0645-.00113.09684-.00054.0496-.001.09936-.00277.14656-.00128.03366-.00343.06542-.00529.09788-.00243.04282-.0049.08553-.00832.12628-.00264.03193-.006.06243-.00921.09314-.004.03831-.00818.07623-.01307.11267-.00392.0296-.00825.05819-.01269.08657-.00544.03469-.01113.06865-.01728.10158q-.00757.04042-.01569.07911c-.00671.03171-.01378.06238-.0211.09239-.0059.02418-.01177.04817-.018.07128-.00789.02906-.01612.0568-.02451.0842-.00649.02123-.01289.04269-.01966.063-.00909.02721-.01861.05278-.02812.07827-.00675.018-.01329.03661-.02024.05378-.01046.026-.02129.05-.03213.07413l-.01934.04344c-.01383.0289-.0279.05565-.04207.0818l-.01138.02192c-.01808.03228-.03631.06232-.05457.09047l-.01824.02645c-.01228.01807-.02454.03611-.03675.05243l-.02209.02808c-.01072.0136-.02144.02722-.032.03953l-.02267.02535-.02941.03169-.022.02167-.02719.02557-.02047.01785-.02465.02032-.01824.0141-.022.01584-.0153.0105-.01887.01193-.01193.00725-.01549.00857-.00748.004-.01247.006-.00209.001-.00525.00224s.071.05047.203.142c.14492-.08357.22459-.13731.22459-.13731s1.7067-.66375.00646-5.836c-.21381.18622-.331.29284-.331.29284C219.36537 127.49529 219.372 127.51891 219.37982 127.54412z"/><path fill="#d7932e" d="M219.97494 131.62647c3.34838.56879 17.41324 3.2382 15.39111 7.7189-4.16907 2.15469-16.11169-6.337-16.11169-6.337S219.8169 132.79 219.97494 131.62647zM211.76611 131.71252c-2.83729.4053-17.77792 2.77211-15.8016 7.41816 4.0596 2.21 15.87953-5.73682 16.23707-5.97881A3.89258 3.89258 0 0 1 211.76611 131.71252zM201.78272 127.47328s3.87357-2.30971 7.69832-.13008M204.11568 129.20907a4.69087 4.69087 0 0 1 4.92153-.37408M221.22718 128.54s3.446-2.31435 7.07094-1.41972M221.434 129.18361s4.28485-.80861 5.54659 1.12933M217.50143 134.167c-9.6854 12.994-7.92529 23.75107-7.92529 23.75107a1.82156 1.82156 0 0 1-.5182-.12219 2.0452 2.0452 0 0 0 .94343.34062s-1.80441-11.01764 8.27888-24.2215C218.04576 134.00288 217.78462 134.089 217.50143 134.167zM204.12254 148.2376a15.318 15.318 0 0 0-6.34726 1.7889 3.19693 3.19693 0 0 0-.09164.49291 16.84162 16.84162 0 0 1 6.49492-2.05729C204.14166 148.31765 204.12254 148.2376 204.12254 148.2376z"/><path fill="#fce6d9" d="M193.35354 122.38939l.43328.53174a1.65629 1.65629 0 0 0-1.06348.86655A5.02751 5.02751 0 0 1 193.35354 122.38939zM213.40679 126.45593l.43327.53173a1.65631 1.65631 0 0 0-1.06348.86655A5.02744 5.02744 0 0 1 213.40679 126.45593z"/><path fill="#d64142" d="M68.64232 392.19831a11.72436 11.72436 0 0 1-1.454.25348 15.441 15.441 0 0 1-1.96013.12633 8.76441 8.76441 0 0 1-1.70707-.14766 3.03513 3.03513 0 0 1-1.24318-.52664 2.27314 2.27314 0 0 1-.75878-1.0541 5.13544 5.13544 0 0 1-.25266-1.77023V382.5047H53.17412v9.69361a11.719 11.719 0 0 1-1.45441.25348 15.4299 15.4299 0 0 1-1.95972.12633 8.76434 8.76434 0 0 1-1.70707-.14766 3.03513 3.03513 0 0 1-1.24318-.52664 2.27316 2.27316 0 0 1-.75879-1.0541 5.13464 5.13464 0 0 1-.25306-1.77023V366.82528q.46326-.08367 1.47533-.23133a13.428 13.428 0 0 1 1.9388-.14766 8.77621 8.77621 0 0 1 1.70707.14766 3.03752 3.03752 0 0 1 1.24318.52664 2.27736 2.27736 0 0 1 .75879 1.0541 5.13785 5.13785 0 0 1 .25306 1.77023v6.74378h8.09237v-9.86342q.46328-.08367 1.47492-.23133a13.43238 13.43238 0 0 1 1.9388-.14766 8.77324 8.77324 0 0 1 1.70707.14766 3.04169 3.04169 0 0 1 1.24359.52664 2.2766 2.2766 0 0 1 .75838 1.0541 5.13782 5.13782 0 0 1 .25307 1.77023zM84.40541 393.04159a14.77862 14.77862 0 0 1-4.61507-.69562 10.45844 10.45844 0 0 1-3.709-2.086 9.64838 9.64838 0 0 1-2.48677-3.49863 12.3945 12.3945 0 0 1-.906-4.93089 11.53019 11.53019 0 0 1 .906-4.784 9.2629 9.2629 0 0 1 5.75325-5.18436 12.58263 12.58263 0 0 1 3.87761-.61114 11.70874 11.70874 0 0 1 4.0671.67512 9.79749 9.79749 0 0 1 3.16107 1.8539 8.2681 8.2681 0 0 1 2.06554 2.82433 8.66265 8.66265 0 0 1 .73746 3.5823 2.87735 2.87735 0 0 1-.801 2.19187 4.00762 4.00762 0 0 1-2.23371.96961l-10.41056 1.55941a3.49987 3.49987 0 0 0 1.89656 2.08605 7.4403 7.4403 0 0 0 3.2878.69562 11.75669 11.75669 0 0 0 3.26648-.443 10.32593 10.32593 0 0 0 2.50769-1.03278 3.54343 3.54343 0 0 1 1.13777 1.18043 3.09323 3.09323 0 0 1-1.30634 4.42558 9.38787 9.38787 0 0 1-3.03474.96961A21.43581 21.43581 0 0 1 84.40541 393.04159zm-1.18-16.56371a4.178 4.178 0 0 0-1.74931.33714 3.51856 3.51856 0 0 0-1.20094.86379 3.58044 3.58044 0 0 0-.69562 1.18043 4.83751 4.83751 0 0 0-.274 1.32726l7.20725-1.18043a3.1912 3.1912 0 0 0-.92736-1.68574A3.10563 3.10563 0 0 0 83.22539 376.47788zM103.87754 392.32546a9.93444 9.93444 0 0 1-1.32767.25266 13.541 13.541 0 0 1-1.87564.12633 9.88777 9.88777 0 0 1-1.66483-.12633 2.83067 2.83067 0 0 1-1.24318-.50613 2.42182 2.42182 0 0 1-.7797-1.032 4.45927 4.45927 0 0 1-.274-1.70706V376.6887a3.59239 3.59239 0 0 1 .35807-1.66524 3.90754 3.90754 0 0 1 1.03277-1.24359 7.41648 7.41648 0 0 1 1.66482-.99011 17.22664 17.22664 0 0 1 2.1283-.78012 18.13906 18.13906 0 0 1 2.36044-.52664 15.92534 15.92534 0 0 1 2.44453-.18949 5.75394 5.75394 0 0 1 3.20331.7793 2.83124 2.83124 0 0 1 1.18 2.55034 4.07487 4.07487 0 0 1-.16857 1.1591 5.32852 5.32852 0 0 1-.42164 1.03277q-.88471 0-1.81207.08367-.92777.08492-1.81248.25348-.88532.16857-1.66482.35766a7.31435 7.31435 0 0 0-1.32767.443zM124.06621 393.04159a14.77862 14.77862 0 0 1-4.61507-.69562 10.45839 10.45839 0 0 1-3.709-2.086 9.64828 9.64828 0 0 1-2.48678-3.49863 12.3945 12.3945 0 0 1-.906-4.93089 11.53019 11.53019 0 0 1 .906-4.784 9.263 9.263 0 0 1 5.75325-5.18436 12.58263 12.58263 0 0 1 3.87761-.61114 11.70884 11.70884 0 0 1 4.06711.67512 9.79755 9.79755 0 0 1 3.16106 1.8539 8.26826 8.26826 0 0 1 2.06555 2.82433 8.66281 8.66281 0 0 1 .73746 3.5823 2.87735 2.87735 0 0 1-.801 2.19187 4.00762 4.00762 0 0 1-2.2337.96961l-10.41057 1.55941a3.49987 3.49987 0 0 0 1.89656 2.08605 7.44033 7.44033 0 0 0 3.2878.69562 11.75669 11.75669 0 0 0 3.26648-.443 10.32593 10.32593 0 0 0 2.50769-1.03278 3.54343 3.54343 0 0 1 1.13777 1.18043 3.09323 3.09323 0 0 1-1.30634 4.42558 9.38787 9.38787 0 0 1-3.03474.96961A21.43581 21.43581 0 0 1 124.06621 393.04159zm-1.18-16.56371a4.178 4.178 0 0 0-1.74931.33714 3.51842 3.51842 0 0 0-1.20093.86379 3.58029 3.58029 0 0 0-.69563 1.18043 4.83751 4.83751 0 0 0-.274 1.32726l7.20725-1.18043a3.1912 3.1912 0 0 0-.92736-1.68574A3.10562 3.10562 0 0 0 122.88619 376.47788zM158.37448 371.96781a6.2434 6.2434 0 0 0-4.97354 1.98105 8.25875 8.25875 0 0 0-1.728 5.60518 7.78864 7.78864 0 0 0 1.91748 5.64784 6.84929 6.84929 0 0 0 5.163 1.981 8.15755 8.15755 0 0 0 2.92933-.46347 19.9892 19.9892 0 0 0 2.29728-1.05328 4.19708 4.19708 0 0 1 1.11685 1.41175 4.335 4.335 0 0 1 .40031 1.91789 3.45368 3.45368 0 0 1-1.91788 2.92933 11.21444 11.21444 0 0 1-5.83734 1.20093 17.24482 17.24482 0 0 1-5.31069-.80062 11.84685 11.84685 0 0 1-4.34108-2.46585 11.62713 11.62713 0 0 1-2.92933-4.21476 15.63158 15.63158 0 0 1-1.07461-6.09081 15.12374 15.12374 0 0 1 1.03236-5.79468 12.31012 12.31012 0 0 1 2.82392-4.23608 11.89438 11.89438 0 0 1 4.19384-2.61351 14.76175 14.76175 0 0 1 5.14212-.88512 11.82682 11.82682 0 0 1 6.0059 1.26492 3.72178 3.72178 0 0 1 2.12871 3.24515 3.27867 3.27867 0 0 1-.548 1.89656 4.504 4.504 0 0 1-1.26451 1.2641 13.78547 13.78547 0 0 0-2.33911-1.22226A7.62623 7.62623 0 0 0 158.37448 371.96781zM189.5221 382.12572a12.70331 12.70331 0 0 1-.80062 4.6569 9.44106 9.44106 0 0 1-2.255 3.43546 9.58683 9.58683 0 0 1-3.4773 2.10738 13.44525 13.44525 0 0 1-4.50966.71613 12.75375 12.75375 0 0 1-4.51007-.75878 9.91 9.91 0 0 1-3.47688-2.17055 9.67368 9.67368 0 0 1-2.255-3.43464 12.27949 12.27949 0 0 1-.80062-4.5519 12.15607 12.15607 0 0 1 .80062-4.51007 9.68446 9.68446 0 0 1 2.255-3.43547 9.93365 9.93365 0 0 1 3.47688-2.17054 12.77219 12.77219 0 0 1 4.51007-.75879 12.46308 12.46308 0 0 1 4.50966.78012 10.18532 10.18532 0 0 1 3.4773 2.19187 9.68669 9.68669 0 0 1 2.255 3.43464A12.05367 12.05367 0 0 1 189.5221 382.12572zm-14.75165 0a6.65911 6.65911 0 0 0 .99052 3.94077 3.21313 3.21313 0 0 0 2.76076 1.3691 3.09293 3.09293 0 0 0 2.71851-1.39043 6.90757 6.90757 0 0 0 .94828-3.91944 6.68815 6.68815 0 0 0-.96961-3.89894 3.42438 3.42438 0 0 0-5.47926 0A6.68518 6.68518 0 0 0 174.77045 382.12572zM202.84108 371.25085a12.10834 12.10834 0 0 1 3.3928.48481 8.34454 8.34454 0 0 1 2.88709 1.45441 12.47731 12.47731 0 0 1 2.84524-1.39125 11.72925 11.72925 0 0 1 3.814-.548 11.85364 11.85364 0 0 1 3.14015.42164 8.03054 8.03054 0 0 1 2.73943 1.32809 6.42658 6.42658 0 0 1 1.91789 2.40187 8.40071 8.40071 0 0 1 .71654 3.64628v13.27673a9.93466 9.93466 0 0 1-1.32768.25266 13.54084 13.54084 0 0 1-1.87564.12633 9.89118 9.89118 0 0 1-1.66482-.12633 2.83067 2.83067 0 0 1-1.24318-.50613 2.4249 2.4249 0 0 1-.7797-1.032 4.45927 4.45927 0 0 1-.274-1.70706V379.25955a2.20146 2.20146 0 0 0-.71654-1.8334 3.03226 3.03226 0 0 0-1.9388-.56929 3.378 3.378 0 0 0-1.26451.274 3.62539 3.62539 0 0 0-1.01145.5693 1.33388 1.33388 0 0 1 .04184.31582v14.3095a11.99623 11.99623 0 0 1-1.36951.25266 13.23027 13.23027 0 0 1-1.8334.12633 9.88428 9.88428 0 0 1-1.66482-.12633 2.83034 2.83034 0 0 1-1.24359-.50613 2.42823 2.42823 0 0 1-.7797-1.032 4.46719 4.46719 0 0 1-.274-1.70706V379.25955a2.11611 2.11611 0 0 0-.7797-1.8334 3.09285 3.09285 0 0 0-1.87564-.56929 3.34424 3.34424 0 0 0-1.30635.23215 9.68532 9.68532 0 0 0-.92736.44214v14.79431a9.93444 9.93444 0 0 1-1.32767.25266 13.541 13.541 0 0 1-1.87564.12633 9.88777 9.88777 0 0 1-1.66483-.12633 2.83067 2.83067 0 0 1-1.24318-.50613 2.42182 2.42182 0 0 1-.7797-1.032 4.45927 4.45927 0 0 1-.274-1.70706V376.6042a3.04774 3.04774 0 0 1 .4844-1.81288 5.48705 5.48705 0 0 1 1.32767-1.2641 12.12989 12.12989 0 0 1 3.56179-1.64391A15.52246 15.52246 0 0 1 202.84108 371.25085zM239.50938 393.04159a14.77866 14.77866 0 0 1-4.61507-.69562 10.45848 10.45848 0 0 1-3.709-2.086 9.64826 9.64826 0 0 1-2.48677-3.49863 12.39449 12.39449 0 0 1-.906-4.93089 11.53019 11.53019 0 0 1 .906-4.784 9.2629 9.2629 0 0 1 5.75325-5.18436 12.58263 12.58263 0 0 1 3.87761-.61114 11.70882 11.70882 0 0 1 4.0671.67512 9.7977 9.7977 0 0 1 3.16107 1.8539 8.26836 8.26836 0 0 1 2.06554 2.82433 8.66281 8.66281 0 0 1 .73746 3.5823 2.87732 2.87732 0 0 1-.801 2.19187 4.00762 4.00762 0 0 1-2.2337.96961l-10.41057 1.55941a3.49987 3.49987 0 0 0 1.89656 2.08605 7.44034 7.44034 0 0 0 3.28781.69562 11.75674 11.75674 0 0 0 3.26648-.443 10.32627 10.32627 0 0 0 2.50769-1.03278 3.54353 3.54353 0 0 1 1.13777 1.18043 3.09324 3.09324 0 0 1-1.30635 4.42558 9.38779 9.38779 0 0 1-3.03474.96961A21.4356 21.4356 0 0 1 239.50938 393.04159zm-1.18-16.56371a4.178 4.178 0 0 0-1.74932.33714 3.51861 3.51861 0 0 0-1.20093.86379 3.58029 3.58029 0 0 0-.69563 1.18043 4.83788 4.83788 0 0 0-.274 1.32726l7.20725-1.18043a3.1912 3.1912 0 0 0-.92736-1.68574A3.10561 3.10561 0 0 0 238.32937 376.47788zM269.09677 386.256a5.93043 5.93043 0 0 1-2.40228 5.01538q-2.40249 1.81125-7.08093 1.81207a19.98372 19.98372 0 0 1-3.28739-.25266 9.40123 9.40123 0 0 1-2.59219-.77929 4.63172 4.63172 0 0 1-1.68573-1.32809 3.03222 3.03222 0 0 1-.61114-1.89655 3.23777 3.23777 0 0 1 .42123-1.70707 4.26527 4.26527 0 0 1 1.01186-1.1591 16.71452 16.71452 0 0 0 2.80259 1.20175 11.52869 11.52869 0 0 0 3.64587.52664 4.25038 4.25038 0 0 0 2.002-.3798 1.13615 1.13615 0 0 0 .69562-1.01144 1.05764 1.05764 0 0 0-.50572-.92695 4.70579 4.70579 0 0 0-1.68615-.548l-1.26451-.25266a11.82436 11.82436 0 0 1-5.45793-2.255 5.48627 5.48627 0 0 1-1.79156-4.40425 5.81856 5.81856 0 0 1 2.57126-4.93171 9.52734 9.52734 0 0 1 2.92933-1.30676 14.39862 14.39862 0 0 1 3.7722-.46347 17.60391 17.60391 0 0 1 2.92933.23215 9.56484 9.56484 0 0 1 2.38136.6948 4.31908 4.31908 0 0 1 1.60166 1.20176 2.71572 2.71572 0 0 1 .5898 1.7489 3.605 3.605 0 0 1-.35806 1.66523 3.7512 3.7512 0 0 1-.90645 1.1591 5.231 5.231 0 0 0-1.01144-.443q-.67491-.23133-1.47533-.42164-.801-.1895-1.62257-.31582a9.8923 9.8923 0 0 0-1.49625-.12633 5.78081 5.78081 0 0 0-2.14962.31582 1.04809 1.04809 0 0 0-.75838.99094.8895.8895 0 0 0 .42123.758 4.81987 4.81987 0 0 0 1.60165.548l1.30676.29532a12.4417 12.4417 0 0 1 5.75325 2.55034A5.52758 5.52758 0 0 1 269.09677 386.256zM280.34979 372.72659a5.45352 5.45352 0 0 1-.548-1.26492 5.56306 5.56306 0 0 1-.25265-1.68573 3.1884 3.1884 0 0 1 .73746-2.36 2.63683 2.63683 0 0 1 1.91788-.71695h18.3762a5.48743 5.48743 0 0 1 .548 1.26492 5.56712 5.56712 0 0 1 .25306 1.68574 3.18885 3.18885 0 0 1-.73787 2.36 2.63445 2.63445 0 0 1-1.91747.71695h-4.67865v19.47172a11.69468 11.69468 0 0 1-1.454.25348 15.4299 15.4299 0 0 1-1.95972.12633 8.76434 8.76434 0 0 1-1.70707-.14766 3.03513 3.03513 0 0 1-1.24318-.52664 2.27031 2.27031 0 0 1-.75879-1.0541 5.13464 5.13464 0 0 1-.25306-1.77023v-16.3529zM324.6474 392.32546a9.93444 9.93444 0 0 1-1.32767.25266 13.541 13.541 0 0 1-1.87564.12633 9.88756 9.88756 0 0 1-1.66482-.12633 2.83033 2.83033 0 0 1-1.2436-.50613 2.42831 2.42831 0 0 1-.7797-1.032 4.46719 4.46719 0 0 1-.274-1.70706v-9.35729a2.953 2.953 0 0 0-.86378-2.4232 3.28764 3.28764 0 0 0-2.12871-.69562 5.96767 5.96767 0 0 0-1.60166.21082 4.6129 4.6129 0 0 0-1.22226.50531v14.75247a9.90735 9.90735 0 0 1-1.32767.25266 13.535 13.535 0 0 1-1.87523.12633 9.88411 9.88411 0 0 1-1.66482-.12633 2.83033 2.83033 0 0 1-1.2436-.50613 2.42831 2.42831 0 0 1-.7797-1.032 4.46719 4.46719 0 0 1-.274-1.70706V364.88688q.46328-.08367 1.36992-.23215a11.46908 11.46908 0 0 1 1.8334-.14683 9.897 9.897 0 0 1 1.66482.12633 2.83181 2.83181 0 0 1 1.24318.50531 2.43907 2.43907 0 0 1 .77971 1.03277 4.47805 4.47805 0 0 1 .274 1.70707v4.13026a15.15187 15.15187 0 0 1 1.66482-.4848 10.37692 10.37692 0 0 1 2.46586-.274 9.44129 9.44129 0 0 1 6.51162 2.08688q2.33973 2.08563 2.33953 6.21631zM339.90436 393.04159a14.77862 14.77862 0 0 1-4.61507-.69562 10.45848 10.45848 0 0 1-3.709-2.086 9.64814 9.64814 0 0 1-2.48677-3.49863 12.39449 12.39449 0 0 1-.906-4.93089 11.53019 11.53019 0 0 1 .906-4.784 9.2629 9.2629 0 0 1 5.75325-5.18436 12.58258 12.58258 0 0 1 3.87761-.61114 11.70882 11.70882 0 0 1 4.0671.67512 9.79755 9.79755 0 0 1 3.16106 1.8539 8.26826 8.26826 0 0 1 2.06555 2.82433 8.66281 8.66281 0 0 1 .73746 3.5823 2.87732 2.87732 0 0 1-.801 2.19187 4.00762 4.00762 0 0 1-2.2337.96961l-10.41057 1.55941a3.49987 3.49987 0 0 0 1.89656 2.08605 7.44034 7.44034 0 0 0 3.28781.69562 11.75662 11.75662 0 0 0 3.26647-.443 10.32593 10.32593 0 0 0 2.50769-1.03278 3.54346 3.54346 0 0 1 1.13778 1.18043 3.09324 3.09324 0 0 1-1.30635 4.42558 9.38779 9.38779 0 0 1-3.03474.96961A21.4357 21.4357 0 0 1 339.90436 393.04159zm-1.18-16.56371a4.178 4.178 0 0 0-1.74932.33714 3.51852 3.51852 0 0 0-1.20093.86379 3.58029 3.58029 0 0 0-.69563 1.18043 4.83788 4.83788 0 0 0-.274 1.32726l7.20725-1.18043a3.1912 3.1912 0 0 0-.92736-1.68574A3.10561 3.10561 0 0 0 338.72435 376.47788zM368.43806 382.20939q-1.85493-.63123-3.37189-1.28543a10.31651 10.31651 0 0 1-2.6131-1.58074 6.54165 6.54165 0 0 1-1.70707-2.21238 7.2746 7.2746 0 0 1-.61113-3.14015 6.89944 6.89944 0 0 1 2.76076-5.73233q2.75993-2.14962 7.7343-2.14921a21.15575 21.15575 0 0 1 3.37189.25265 10.08345 10.08345 0 0 1 2.67626.78012 4.67518 4.67518 0 0 1 1.74931 1.34859 3.05893 3.05893 0 0 1 .632 1.91788 3.36852 3.36852 0 0 1-.50572 1.87524 5.25449 5.25449 0 0 1-1.22226 1.32808 9.53571 9.53571 0 0 0-2.48677-1.03277 12.46417 12.46417 0 0 0-3.41414-.443 5.62883 5.62883 0 0 0-2.78167.52746 1.53545 1.53545 0 0 0-.88512 1.32726 1.22572 1.22572 0 0 0 .548 1.03277 5.667 5.667 0 0 0 1.6439.73746l2.23371.717a16.16433 16.16433 0 0 1 6.0904 3.22382 6.89442 6.89442 0 0 1 2.12829 5.332 7.01478 7.01478 0 0 1-2.82392 5.79549q-2.82391 2.21238-8.30277 2.21238a19.32665 19.32665 0 0 1-3.604-.31582 11.38916 11.38916 0 0 1-2.908-.92777 5.35766 5.35766 0 0 1-1.93881-1.51675 3.335 3.335 0 0 1-.69562-2.08687 3.16049 3.16049 0 0 1 .71654-2.086 5.45278 5.45278 0 0 1 1.55982-1.32727 11.46357 11.46357 0 0 0 2.88709 1.60125 10.06379 10.06379 0 0 0 3.73.67429 5.0031 5.0031 0 0 0 2.908-.63246 1.821 1.821 0 0 0 .84328-1.47491 1.44361 1.44361 0 0 0-.6747-1.28543 8.69865 8.69865 0 0 0-1.89656-.86379zM392.71516 371.25085a17.2965 17.2965 0 0 1 4.15159.4643 9.28857 9.28857 0 0 1 3.20291 1.41176 6.37367 6.37367 0 0 1 2.04421 2.40269 7.6902 7.6902 0 0 1 .71654 3.43464v9.441a2.61448 2.61448 0 0 1-.61113 1.79155 6.09551 6.09551 0 0 1-1.454 1.20094q-2.74025 1.64391-7.713 1.6439A17.639 17.639 0 0 1 389.027 392.62a9.54386 9.54386 0 0 1-3.07658-1.2641 5.79155 5.79155 0 0 1-1.98105-2.15 6.35624 6.35624 0 0 1-.69562-3.03433 5.70768 5.70768 0 0 1 1.728-4.46741 9.32678 9.32678 0 0 1 5.35294-1.93922l5.52152-.5898v-.29531a1.80725 1.80725 0 0 0-1.075-1.74891 7.23567 7.23567 0 0 0-3.09791-.52664 14.33267 14.33267 0 0 0-3.11882.33715 16.56962 16.56962 0 0 0-2.73943.84246 2.91089 2.91089 0 0 1-.92736-1.1591 3.659 3.659 0 0 1-.37939-1.62257 2.70146 2.70146 0 0 1 .52705-1.74891 4.08187 4.08187 0 0 1 1.62257-1.11726 12.72 12.72 0 0 1 2.88709-.6743A25.10246 25.10246 0 0 1 392.71516 371.25085zm.33715 16.56454a9.3621 9.3621 0 0 0 1.58032-.14765 3.87017 3.87017 0 0 0 1.28584-.40032V383.896l-3.03474.25265a4.67588 4.67588 0 0 0-1.9388.50531 1.36307 1.36307 0 0 0-.75879 1.26492 1.67634 1.67634 0 0 0 .65338 1.36992A3.57592 3.57592 0 0 0 393.05231 387.81539zM420.19475 379.38588a2.35374 2.35374 0 0 0-.73746-1.91789 3.047 3.047 0 0 0-2.00238-.61113 6.68561 6.68561 0 0 0-1.66482.21082 4.21275 4.21275 0 0 0-1.41175.63246v14.62532a9.93466 9.93466 0 0 1-1.32768.25266 13.54074 13.54074 0 0 1-1.87564.12633 9.88773 9.88773 0 0 1-1.66482-.12633 2.83067 2.83067 0 0 1-1.24318-.50613 2.42174 2.42174 0 0 1-.7797-1.032 4.45927 4.45927 0 0 1-.274-1.70706V376.6887a3.24813 3.24813 0 0 1 .4844-1.85473 5.11376 5.11376 0 0 1 1.32767-1.30675 12.072 12.072 0 0 1 3.60363-1.64391 17.22141 17.22141 0 0 1 4.82588-.63246q4.76253 0 7.334 2.08688a7.051 7.051 0 0 1 2.57086 5.79549v13.19224a9.90757 9.90757 0 0 1-1.32768.25266 13.5364 13.5364 0 0 1-1.87564.12633 9.89118 9.89118 0 0 1-1.66482-.12633 2.83067 2.83067 0 0 1-1.24318-.50613 2.42823 2.42823 0 0 1-.7797-1.032 4.45927 4.45927 0 0 1-.274-1.70706zM438.95034 385.32821a1.73468 1.73468 0 0 0 .69521 1.56023 3.51562 3.51562 0 0 0 1.96014.46348 8.42674 8.42674 0 0 0 1.30634-.10582 7.219 7.219 0 0 0 1.18043-.274 5.21416 5.21416 0 0 1 .653 1.03277 3.13969 3.13969 0 0 1 .274 1.36992 3.26 3.26 0 0 1-1.20093 2.61351q-1.20156 1.01145-4.23609 1.01145a8.62843 8.62843 0 0 1-5.711-1.68656q-2.002-1.68452-2.002-5.47886V367.79488c.30884-.08449.7514-.17472 1.32767-.274a10.95713 10.95713 0 0 1 1.8334-.14766 5.391 5.391 0 0 1 2.88708.65379q1.03236.65339 1.03277 2.76035v2.698h5.52151a7.20545 7.20545 0 0 1 .4844 1.1591 4.84963 4.84963 0 0 1 .23173 1.53808 2.92628 2.92628 0 0 1-.653 2.12871 2.36465 2.36465 0 0 1-1.74932.653h-3.83536zM457.07388 371.25085a17.2965 17.2965 0 0 1 4.15159.4643 9.28848 9.28848 0 0 1 3.20291 1.41176 6.37367 6.37367 0 0 1 2.04421 2.40269 7.6902 7.6902 0 0 1 .71654 3.43464v9.441a2.61443 2.61443 0 0 1-.61113 1.79155 6.09551 6.09551 0 0 1-1.454 1.20094q-2.74025 1.64391-7.713 1.6439a17.639 17.639 0 0 1-4.02527-.42164 9.54371 9.54371 0 0 1-3.07657-1.2641 5.7915 5.7915 0 0 1-1.98106-2.15 6.35624 6.35624 0 0 1-.69562-3.03433 5.70765 5.70765 0 0 1 1.728-4.46741 9.32672 9.32672 0 0 1 5.35293-1.93922l5.52152-.5898v-.29531a1.80725 1.80725 0 0 0-1.075-1.74891 7.23565 7.23565 0 0 0-3.0979-.52664 14.33269 14.33269 0 0 0-3.11883.33715 16.5692 16.5692 0 0 0-2.73942.84246 2.91082 2.91082 0 0 1-.92737-1.1591 3.659 3.659 0 0 1-.37939-1.62257 2.70146 2.70146 0 0 1 .527-1.74891 4.08184 4.08184 0 0 1 1.62258-1.11726 12.71978 12.71978 0 0 1 2.88708-.6743A25.10259 25.10259 0 0 1 457.07388 371.25085zm.33715 16.56454a9.36231 9.36231 0 0 0 1.58033-.14765 3.87018 3.87018 0 0 0 1.28583-.40032V383.896l-3.03474.25265a4.67592 4.67592 0 0 0-1.9388.50531 1.36307 1.36307 0 0 0-.75879 1.26492 1.67634 1.67634 0 0 0 .65338 1.36992A3.57592 3.57592 0 0 0 457.411 387.81539z"/></svg>