<svg xmlns="http://www.w3.org/2000/svg" data-name="Layer 1" viewBox="0 0 512 512"><path fill="#fcfafa" d="M482.95535,327.71191,480.9465,319.111a19.1808,19.1808,0,0,0-5.89926-9.94017,19.1599,19.1599,0,0,0-5.86877-5.71708l-7.50273-4.66295a19.1668,19.1668,0,0,0-10.46894-2.87808l-.03219-.03157-.08241-57.0681,13.12378-.79417a19.676,19.676,0,0,0,14.8315-7.90568,19.21731,19.21731,0,0,0-.175-22.81817l-21.84654-29.12841a19.21151,19.21151,0,0,0-19.52538-7.227c-.33814.075-15.15807-.75982-27.8549-1.4517a13.12424,13.12424,0,0,1-11.55183-17.77163l17.114-45.01737,2.26846-.52941a19.17,19.17,0,0,0,9.07789-5.001,19.17373,19.17373,0,0,0,7.362-7.24811l4.39-7.665a19.16881,19.16881,0,0,0,2.49952-10.59526A19.16318,19.16318,0,0,0,440.7,67.45727l-2.00885-8.60094a19.18073,19.18073,0,0,0-5.89926-9.94017,19.1599,19.1599,0,0,0-5.86877-5.71708l-7.50273-4.663A19.16259,19.16259,0,0,0,409.05154,35.657a19.15782,19.15782,0,0,0-9.93121.03657L390.59583,38.01a19.1757,19.1757,0,0,0-9.40338,5.88261,19.158,19.158,0,0,0-5.42811,5.67159l-4.662,7.50273a19.17009,19.17009,0,0,0-2.88069,10.06351c-.04643.17043-.77009,5.32961-1.61779,11.41712a22.76926,22.76926,0,0,1-22.9286,19.62589l-23.8583-.39764a19.9548,19.9548,0,0,1-18.36908-12.99187L284.0055,37.91716a24.77744,24.77744,0,0,0-1.19574-7.378c-2.34461-7.29547-7.94445-13.15228-15.76277-16.48818-14.33021-6.11848-34.87315-3.50565-49.58037-.2354-5.48121,1.21732-11.05621,2.73193-16.574,4.50257-16.41643,5.27348-31.26809,12.44422-41.816,20.19078-6.69021,4.911-11.14226,9.755-14.03667,14.31568-.45731-.34466-.92706-.67619-1.41989-.98239l-7.50273-4.66295a19.16971,19.16971,0,0,0-10.36947-2.88011,19.16221,19.16221,0,0,0-9.931.03752l-8.524,2.31646a19.17464,19.17464,0,0,0-9.404,5.884,19.15653,19.15653,0,0,0-5.42752,5.67019l-4.662,7.50272a19.17022,19.17022,0,0,0-2.8807,10.06351,19.17629,19.17629,0,0,0-.006,10.08226l10.0091,27.05859c.47181,1.73625,11.84085,6.88025,22.81206,11.69145a37.08769,37.08769,0,0,1,22.15776,32.11061c.48182,9.65442.99766,20.70747,1.62,29.61508a14.993,14.993,0,0,1-15.63088,16.03678l-45.36413-2.06214L49.78533,218.55284l.71557,11.21752-6.25821,11.3a19.20771,19.20771,0,0,0,1.7608,21.2496c.40257.5069.831.98473,1.2757,1.4424a19.15777,19.15777,0,0,0-6.93768,4.69436,19.16715,19.16715,0,0,0-4.97126,5.36117l-3.44516,5.54545a19.17444,19.17444,0,0,0-2.87847,9.4872,19.15885,19.15885,0,0,0,.16576,9.35966l1.71156,6.29948a19.16151,19.16151,0,0,0,4.481,8.03729,19.16444,19.16444,0,0,0,6.76089,6.53863l5.665,3.24306a19.178,19.178,0,0,0,9.53972,2.53779c.03939,0,.07866-.00469.118-.00516a19.09,19.09,0,0,0,7.75-.20116l6.35668-1.4846a19.16536,19.16536,0,0,0,8.58477-4.53259,19.213,19.213,0,0,0,5.527-5.01417l28.38247,21.81372c-.25954,3.673-.40069,7.36064-.40069,11.05808a155.79091,155.79091,0,0,0,8.40892,50.62231,19.14488,19.14488,0,0,0-6.281.62226l-8.524,2.31647a19.17386,19.17386,0,0,0-9.40467,5.885,19.14836,19.14836,0,0,0-5.42682,5.66925l-4.662,7.50273a19.17019,19.17019,0,0,0-2.8807,10.0635,19.17629,19.17629,0,0,0-.006,10.08226l2.316,8.524a19.17221,19.17221,0,0,0,4.923,8.50622,19.17411,19.17411,0,0,0,7.10907,7.10508l7.66544,4.391a19.17452,19.17452,0,0,0,9.54394,2.54062c.24313,0,.48557-.02157.72847-.03048a18.99623,18.99623,0,0,0,8.37281-.07175l8.60188-2.00792a19.16945,19.16945,0,0,0,9.07783-5.001,19.17388,19.17388,0,0,0,7.36205-7.24811l3.00988-5.25519A152.69084,152.69084,0,0,0,267.37336,501.642c80.79981,0,147.235-63.27192,153.24118-143.31243a19.15948,19.15948,0,0,0,4.20451,3.27306l7.66545,4.391a19.17445,19.17445,0,0,0,9.54394,2.54061c.24319,0,.48551-.02157.72841-.03048a18.9965,18.9965,0,0,0,8.37287-.07175l8.60187-2.00791A37.87479,37.87479,0,0,0,476.17148,354.175l4.39-7.665a19.16881,19.16881,0,0,0,2.49952-10.59526A19.16318,19.16318,0,0,0,482.95535,327.71191Z"/><path fill="#ea6f4a" d="M470.10706,196.41016c-8.13636,6.73193-16.3844,13.30566-24.6233,19.89257l-12.41284,9.80372-12.49951,9.68115c-4.17322,3.21728-8.23974,6.58545-12.34058,9.90527a133.93693,133.93693,0,0,1-12.86083,9.1709q-6.69855,4.207-13.73719,7.93359a122.25858,122.25858,0,0,1-14.64319,6.65479l-.578-.81592a122.32839,122.32839,0,0,1,11.13611-11.60547q5.84215-5.41626,12.04211-10.32715a134.037,134.037,0,0,1,12.91858-9.08935c4.49231-2.76709,9.01892-5.48584,13.43885-8.355l13.27978-8.57959,13.36658-8.457c8.94739-5.58643,17.8855-11.18653,26.93542-16.62842Z"/><path fill="#ece4f6" d="M313.62568,218.82058a77.18676,77.18676,0,0,1-109.25456,7.56712,136.1045,136.1045,0,0,0-71.47538,120.113c0,75.07428,60.20768,135.93408,134.47765,135.93408S401.851,421.575,401.851,346.50069A135.92143,135.92143,0,0,0,313.62568,218.82058Z"/><path fill="#ece4f6" d="M324.168,133.56132c-12.21069,11.43056-40.98859,25.77245-71.84471,34.01587-28.79283,7.69217-56.31317,11.55146-73.73755,9.88642A77.19367,77.19367,0,1,0,324.168,133.56132Z"/><path fill="#3d3351" d="M328.566,119.99019c-21.33547-18.85011-49.55393-9.57944-89.81715-3.2227-46.88356,7.402-82.41473,37.53174-78.6663,51.56246s46.38448,11.49811,92.24065-.75275S339.44946,129.6059,328.566,119.99019Z"/><path fill="#d64142" d="M276.61853,286.07932s22.311,73.04382,7.26114,105.57091c0,0,20.39011,9.70957,58.74294-4.36931,0,0,5.58761-59.58852-26.09219-129.31743Z"/><path fill="#b8303c" d="M318.708,262.88739c-.70784-1.63589-1.42894-3.276-2.17755-4.92389l-39.91191,28.11581s.60495,1.983,1.54533,5.42525C295.9633,287.63543,310.723,277.00242,318.708,262.88739Z"/><path fill="#ea6f4a" d="M52.56824,221.30664c10.609,5.59766,21.11682,11.36035,31.63293,17.10889L99.926,247.11914l15.64624,8.83106c5.20922,2.95361,10.51538,5.75,15.79028,8.59668a173.295,173.295,0,0,1,15.31872,9.36376q7.41633,5.07716,14.5243,10.65528a156.08877,156.08877,0,0,1,13.70337,11.99023l-.52393.85156a156.16617,156.16617,0,0,1-16.882-6.82226q-8.19269-3.81445-16.06079-8.15723a173.06284,173.06284,0,0,1-15.26648-9.44873c-4.92016-3.42334-9.80908-6.89795-14.7948-10.21533l-14.939-9.981L81.58167,242.67432c-9.874-6.793-19.75635-13.57178-29.53736-20.51563Z"/><path fill="#ea6f4a" d="M60.90808 249.895q3.07124-1.489 6.16748-2.88965l6.20667-2.75244 6.238-2.64209 6.27466-2.5127-2.7345 5.25293c-.90344-1.94531-2.01684-3.81836-2.983-5.74218a22.67232 22.67232 0 0 1-2.03918-6.06934 38.37121 38.37121 0 0 1-.71082-6.5293 27.01707 27.01707 0 0 1 .72229-7.02685l.94483-.32764a27.015 27.015 0 0 1 4.91626 5.07227 38.37938 38.37938 0 0 1 3.483 5.56836 22.6738 22.6738 0 0 1 2.15478 6.02929c.43189 2.10889.71643 4.269 1.21106 6.35645l1.08606 4.584-3.8208.66944-6.65783 1.1665-6.69446 1.0376-6.726.92724q-3.36988.43873-6.765.79zM442.14966 189.794q-.214 3.98-.52222 7.94043l-.67224 7.90869c-.26648 2.62744-.48926 5.26416-.79163 7.88379-.2998 2.6206-.63293 5.23388-.90527 7.85986l-4.32214-5.00635c2.34485-.39355 4.67883-.96582 7.02466-1.34277a29.51028 29.51028 0 0 1 7.09082-.24707 48.30526 48.30526 0 0 1 7.1687 1.04 32.61482 32.61482 0 0 1 7.25634 2.49023l.06031.99805a32.58539 32.58539 0 0 1-6.90332 3.34619 48.24131 48.24131 0 0 1-6.99109 1.89648 29.48583 29.48583 0 0 1-7.069.60938c-2.374-.09131-4.76-.37793-7.13513-.48633l-5.8429-.26611 1.52063-4.74024c.80652-2.51416 1.55212-5.041 2.33118-7.561.77649-2.52 1.63257-5.02393 2.44494-7.53662l2.56434-7.51172q1.31378-3.74926 2.71435-7.48047zM252.4342 183.25058c-1.97117 2.78827-4.74475 7.79454-4.10459 13.22471a4.7782 4.7782 0 0 0 4.29388 4.19936l47.15312 4.44841a2.63248 2.63248 0 0 0 2.55125-1.23179c.48548-.84958.48548-2.06328-1.45643-3.51972 0 0-29.608-16.26356-43.60441-19.03074A4.7711 4.7711 0 0 0 252.4342 183.25058z"/><path fill="#7c6c96" d="M264.56536,39.97791l20.74488,68.75985a15.05832,15.05832,0,0,1-3.62381,14.848c-35.24442,36.2215-71.82683,27.93574-86.40172,22.4323a15.04306,15.04306,0,0,1-8.75991-8.76432L162.48648,73.56723l-.0008.0021a6.807,6.807,0,0,1-2.7818-3.4906c-2.95171-9.19011,18.11807-24.17684,47.06232-33.47376,28.94911-9.29207,54.80571-9.37946,57.75742-.18934a6.41074,6.41074,0,0,1,.04855,3.57312"/><ellipse cx="212.112" cy="53.247" fill="#3d3351" rx="55.046" ry="17.477" transform="rotate(-17.805 212.112 53.247)"/><path fill="#c94d36" d="M256.97144 201.085a26.78142 26.78142 0 0 0 2.9436-4.17432 19.47641 19.47641 0 0 0 1.9137-4.624 14.37949 14.37949 0 0 0 .49316-4.93945 20.04909 20.04909 0 0 0-1.017-4.978 13.04288 13.04288 0 0 1 1.79309 4.89551 6.0513 6.0513 0 0 1 .13184 1.32031c.00183.44287.02539.88916.00744 1.33252a14.867 14.867 0 0 1-2.66369 7.40625A15.48053 15.48053 0 0 1 256.97144 201.085zM271.00964 185.89941a12.225 12.225 0 0 1 1.36963 4.20264 12.35219 12.35219 0 0 1-.25049 4.47315 14.681 14.681 0 0 1-4.54174 7.51025 24.705 24.705 0 0 0 3.56933-7.74121 15.64494 15.64494 0 0 0 .44776-4.18262A22.71009 22.71009 0 0 0 271.00964 185.89941zM277.17041 202.98828a31.02664 31.02664 0 0 0 2.61426-6.24463 18.65764 18.65764 0 0 0 .59143-3.28076 28.07023 28.07023 0 0 0 .05664-3.4126 10.956 10.956 0 0 1 .31628 6.95557A12.96913 12.96913 0 0 1 277.17041 202.98828zM288.95776 194.17188a9.10276 9.10276 0 0 1 .06556 5.18115 10.12426 10.12426 0 0 1-2.53174 4.519c.55847-1.65039 1.15539-3.17969 1.566-4.77588A35.82413 35.82413 0 0 0 288.95776 194.17188zM294.91943 204.668a27.5571 27.5571 0 0 1 .80982-3.28174c.32251-1.05322.59875-2.0957 1.05444-3.2041a6.31326 6.31326 0 0 1-.09534 3.48486A6.68825 6.68825 0 0 1 294.91943 204.668z"/><path fill="#d64142" d="M255.23641,245.52109a76.94888,76.94888,0,0,1-54.66093-22.68938,48.22168,48.22168,0,0,0-1.16914,10.55241c0,30.02976,27.71284,54.37363,61.89856,54.37363s61.89856-24.34387,61.89856-54.37363a48.55,48.55,0,0,0-4.70427-20.8206A77.09687,77.09687,0,0,1,255.23641,245.52109Z"/><path fill="#fff" d="M170.76306 159.106a7.64624 7.64624 0 0 0 2.83972 4.896 13.58054 13.58054 0 0 0 2.36975 1.62159c.42774.21679.88562.38134 1.32532.57421a9.25725 9.25725 0 0 0 1.347.51465c.94006.23242 1.85278.54639 2.80053.73731l2.86646.48193c.96484.10156 1.93909.14307 2.90723.21777l1.45446.09424 1.462-.021 2.92407.00293c.97486-.0083 1.94885-.11817 2.92371-.17237l2.9248-.20215 2.916-.335c3.9032-.36621 7.75683-1.10058 11.661-1.61377-1.90625.47754-3.82861.89258-5.74646 1.34131-1.916.46143-3.87207.7041-5.81531 1.03516-.97363.15283-1.94458.33105-2.92529.43213l-2.9502.25c-.98462.06982-1.96557.1958-2.954.21972l-2.96826.041-1.48413-.00244-1.48364-.11817c-.98816-.0913-1.97876-.14941-2.9635-.26855l-2.93665-.54c-.97473-.20068-1.91589-.56787-2.86743-.85791a9.905 9.905 0 0 1-1.37537-.59912c-.449-.22217-.91174-.41455-1.34643-.66162a13.62347 13.62347 0 0 1-2.39649-1.814l-.54028-.52246-.45007-.606-.44592-.60352-.3451-.66748A5.92169 5.92169 0 0 1 170.76306 159.106zM166.3938 62.01025A6.34409 6.34409 0 0 0 168.777 66.04a11.28731 11.28731 0 0 0 1.963 1.32812 23.06055 23.06055 0 0 0 2.21191.88868c.77845.18847 1.53333.44384 2.318.5957l2.37243.38232c.79847.07764 1.60364.12061 2.40467.18262l1.20312.08154 1.21045-.01367 2.42078-.00439c.80713-.00733 1.61352-.106 2.42114-.14649l2.42419-.15088 2.4181-.26367c3.23645-.29 6.43408-.88232 9.67907-1.27344-1.57678.415-3.1698.76758-4.7583 1.15381-1.58789.39063-3.21.59961-4.82153.88233-.8075.12988-1.61267.28222-2.42615.37256l-2.44824.22363c-.81738.0625-1.6322.15967-2.45313.17871l-2.46582.02734-1.23291.00147-1.23339-.09473c-.82154-.07519-1.64588-.11523-2.46412-.22021l-2.44018-.46582c-.80957-.17237-1.59229-.48194-2.38257-.72657A23.58917 23.58917 0 0 1 170.436 67.919a11.30683 11.30683 0 0 1-1.98975-1.521l-.44666-.439-.37146-.50781-.36743-.50488-.28332-.55811A4.88053 4.88053 0 0 1 166.3938 62.01025z"/><path fill="#b3abab" d="M173.75781,289.73145a13.90132,13.90132,0,0,1,2.29834,3.17822c.15027.27881.29822.5581.43177.84228.06774.1416.14062.28174.20141.42578a5.28581,5.28581,0,0,1,.20923.58838,4.44844,4.44844,0,0,1-.079,2.64258,4.11056,4.11056,0,0,1-1.73242,2.12451,4.50132,4.50132,0,0,1-2.39563.627,5.90206,5.90206,0,0,1-3.84912-1.58106,23.9002,23.9002,0,0,0,3.53821-.75732,2.42012,2.42012,0,0,0,1.61254-1.416,2.52607,2.52607,0,0,0,.12952-1.0459,2.04739,2.04739,0,0,0-.04236-.3125c-.03784-.15136-.06347-.30761-.09436-.46142-.06372-.30762-.11291-.61963-.15991-.93262A13.90515,13.90515,0,0,1,173.75781,289.73145Z"/><path fill="#adacac" d="M389.52539,63.40869c2.5957,1.24854,5.137,2.59277,7.67,3.95117,2.53858,1.34815,5.03821,2.76514,7.53772,4.18213,2.48768,1.4375,4.97425,2.877,7.42249,4.3833l3.67053,2.2627c1.20532.78613,2.42774,1.542,3.618,2.35449-1.303-.61572-2.57373-1.28711-3.86169-1.9292l-3.8092-2.02051c-2.53821-1.34912-5.03809-2.76562-7.53687-4.18359-2.48694-1.439-4.97375-2.87793-7.42163-4.38477C394.36145,66.52686,391.91614,65.01514,389.52539,63.40869Z"/><path fill="#adacac" d="M413.05176,57.01611c-1.24878,2.59571-2.59278,5.13672-3.95117,7.66993-1.34851,2.53857-2.76526,5.03808-4.18213,7.53759-1.43763,2.4878-2.877,4.97461-4.38343,7.42285l-2.26281,3.67041c-.78589,1.20508-1.54212,2.42774-2.35437,3.61817.61548-1.30322,1.28723-2.57373,1.92907-3.86182l2.02063-3.80908c1.34925-2.53857,2.76551-5.03809,4.1836-7.53711,1.43872-2.48682,2.87781-4.97363,4.38489-7.42139C409.93335,61.85205,411.445,59.40674,413.05176,57.01611Z"/><path fill="#adacac" d="M421.12048,67.45557c-2.7185.95214-5.46582,1.79882-8.2174,2.62939-2.74866.84131-5.51795,1.60742-8.28724,2.37256-2.77551.74268-5.55163,1.4834-8.348,2.14893l-4.19543.9956c-1.40808.29639-2.80725.62647-4.22327.89356,1.35657-.48633,2.7301-.90967,4.09473-1.3667l4.12231-1.26465c2.74878-.84082,5.51795-1.60694,8.2876-2.3711,2.77588-.74121,5.55188-1.48193,8.34851-2.147C415.49585,68.66992,418.29382,68.00977,421.12048,67.45557Z"/><path fill="#adacac" d="M409.00488 88.61133c-.95239-2.71875-1.79895-5.46582-2.62951-8.21778-.84156-2.74853-1.6073-5.51757-2.37281-8.2871-.74255-2.7754-1.483-5.55176-2.14892-8.34815l-.99549-4.19531c-.2965-1.4082-.62622-2.80713-.89343-4.22315.48609 1.35645.90967 2.73 1.36658 4.09473l1.26465 4.12207c.84082 2.749 1.60693 5.51807 2.37109 8.2876.74121 2.77588 1.48218 5.55224 2.14734 8.34863C407.79053 82.98633 408.45056 85.78467 409.00488 88.61133zM417.24927 84.375a31.90032 31.90032 0 0 1-1.782-5.72217.49752.49752 0 0 1 .33447-.584A31.50608 31.50608 0 0 1 421.639 76.71 31.54461 31.54461 0 0 1 416.10876 79.02l.33423-.584A31.90244 31.90244 0 0 1 417.24927 84.375zM392.07874 59.70117a31.894 31.894 0 0 1 1.57531 5.78272.49782.49782 0 0 1-.35522.57177 31.55023 31.55023 0 0 1-5.88233 1.14844 31.51686 31.51686 0 0 1 5.60975-2.11035l-.355.57129A31.89619 31.89619 0 0 1 392.07874 59.70117z"/><path fill="#adacac" d="M416.15894 73.41113l-4.99231-3.28076a.1254.1254 0 0 1-.042-.16357l.00269-.00489 2.81628-5.26806.17591.3501-.37256-.042L413.82275 65l-5.86084 1.15186a.309.309 0 0 1-.355-.21436l-.00232-.00781-1.693-5.728.59473.19727-.2948.23144.082-.08642-3.34692 4.94677a.42746.42746 0 0 1-.55909.13526l-.006-.00342-5.22571-2.89209.66944-.33594-.04737.37158-.00366-.14111 1.10547 5.86914a.47949.47949 0 0 1-.33838.54443l-5.74 1.65039.35193-.37939-.07629.38086-.22095-.521 5.02661 3.2251a.48231.48231 0 0 1 .16907.62207l-2.74158 5.30615-.02661-.46142.21143.31933-.47693-.1914 5.83532-1.273a.43664.43664 0 0 1 .50611.29l1.79248 5.69726-.29395-.26172.37451.07911-.39941.17041 3.264-5.002.0039-.00634a.3154.3154 0 0 1 .40931-.106l5.28588 2.78125-.2539.01465.3219-.20752-.103.25683-1.18762-5.85449-.0011-.00537a.13331.13331 0 0 1 .092-.15332l5.72278-1.71387-.0044.01416zm0 0l.2384.28711-.00122.0127-.00318.00146-5.64489 1.95508.09082-.1582 1.40063 5.80664a.23869.23869 0 0 1-.0957.25195l-.00745.00488-.31494.21778a.24368.24368 0 0 1-.24768.01806l-.00647-.00341-5.34656-2.66211.41284-.11231-3.15161 5.07373a.37791.37791 0 0 1-.39038.17237l-.00927-.002-.37635-.07031a.38116.38116 0 0 1-.29175-.25488l-.00231-.00733-1.87659-5.66992.50574.28955-5.82581 1.31543a.45808.45808 0 0 1-.47717-.1914l-.21375-.31788a.45969.45969 0 0 1-.02673-.46142l2.70227-5.32617.16882.62158-5.04907-3.19043a.49816.49816 0 0 1-.22119-.521l.0791-.38037a.50093.50093 0 0 1 .35217-.37939l5.752-1.6084-.33826.54443-1.06226-5.87744a.47683.47683 0 0 1-.00378-.1416l.05017-.37158a.45136.45136 0 0 1 .50525-.39063.47654.47654 0 0 1 .16443.0542l5.20447 2.93018-.56482.13183 3.42627-4.89209.00415-.00586a.36821.36821 0 0 1 .07812-.081l.29981-.22461.00671-.00537a.37586.37586 0 0 1 .52612.07519.3862.3862 0 0 1 .06214.127l1.56543 5.76416-.35706-.22217 5.88574-1.01611.007-.001a.21969.21969 0 0 1 .06921-.001l.37073.05567.00843.001a.234.234 0 0 1 .16748.34912l-3.00562 5.16211-.03931-.168zM392.1106 84.68213a31.88853 31.88853 0 0 1 5.72241-1.78174.49734.49734 0 0 1 .584.33447 31.52939 31.52939 0 0 1 1.35889 5.83741 31.55309 31.55309 0 0 1-2.31006-5.53077l.58374.33448A31.88965 31.88965 0 0 1 392.1106 84.68213zM416.78455 59.51172a31.91137 31.91137 0 0 1-5.78272 1.57519.49732.49732 0 0 1-.57153-.355 31.5444 31.5444 0 0 1-1.14856-5.88232 31.534 31.534 0 0 1 2.11 5.60937l-.57129-.355A31.91288 31.91288 0 0 1 416.78455 59.51172zM386.75061 72.17627a31.90629 31.90629 0 0 1 5.3064 2.78662.49747.49747 0 0 1 .17651.64941 31.53889 31.53889 0 0 1-3.16675 5.08838 31.54713 31.54713 0 0 1 2.2771-5.54394l.17639.64892A31.872 31.872 0 0 1 386.75061 72.17627zM421.99609 71.8252a31.85679 31.85679 0 0 1-5.203-2.9751.49756.49756 0 0 1-.153-.65528 31.55937 31.55937 0 0 1 3.34729-4.97168 31.54687 31.54687 0 0 1-2.47461 5.459l-.153-.65527A31.92876 31.92876 0 0 1 421.99609 71.8252z"/><path fill="#adacac" d="M386.75061 72.17627a31.90629 31.90629 0 0 1 5.3064 2.78662.49747.49747 0 0 1 .17651.64941 31.53889 31.53889 0 0 1-3.16675 5.08838 31.54713 31.54713 0 0 1 2.2771-5.54394l.17639.64892A31.872 31.872 0 0 1 386.75061 72.17627zM421.99609 71.8252a31.85679 31.85679 0 0 1-5.203-2.9751.49756.49756 0 0 1-.153-.65528 31.55937 31.55937 0 0 1 3.34729-4.97168 31.54687 31.54687 0 0 1-2.47461 5.459l-.153-.65527A31.92876 31.92876 0 0 1 421.99609 71.8252zM404.157 54.228a31.90747 31.90747 0 0 1-2.78637 5.30615.49765.49765 0 0 1-.64942.17676 31.54567 31.54567 0 0 1-5.0885-3.167 31.53948 31.53948 0 0 1 5.54395 2.27734l-.64905.17627A31.87583 31.87583 0 0 1 404.157 54.228zM404.50806 89.47314a31.90649 31.90649 0 0 1 2.97509-5.20263.49761.49761 0 0 1 .65528-.15332A31.5612 31.5612 0 0 1 413.11 87.46484a31.5335 31.5335 0 0 1-5.45862-2.47461l.655-.15332A31.88621 31.88621 0 0 1 404.50806 89.47314zM106.22241 72.05176c2.59571 1.24853 5.137 2.59277 7.66992 3.95117 2.5387 1.34863 5.03833 2.76514 7.53785 4.18213 2.48754 1.4375 4.97424 2.877 7.42248 4.3833l3.67041 2.26269c1.20545.78614 2.42786 1.54249 3.618 2.3545-1.30285-.61573-2.57373-1.28711-3.86157-1.9292l-3.8092-2.02051c-2.53821-1.34912-5.03809-2.76563-7.53687-4.18359-2.48694-1.439-4.97388-2.87793-7.42163-4.38477C111.05835 75.16992 108.61316 73.6582 106.22241 72.05176z"/><path fill="#adacac" d="M129.74878,65.65918c-1.2489,2.5957-2.5929,5.13721-3.95129,7.66992-1.34852,2.53858-2.76514,5.03858-4.18213,7.53809-1.4375,2.4873-2.87683,4.97412-4.3833,7.42236L114.96924,91.96c-.786,1.20557-1.54212,2.42774-2.35449,3.61816.6156-1.30322,1.28723-2.57373,1.92907-3.86181l2.02076-3.80908c1.34912-2.53809,2.7655-5.03809,4.18359-7.53711,1.43872-2.48682,2.87768-4.97364,4.38489-7.42139C126.63025,70.49512,128.142,68.0498,129.74878,65.65918Z"/><path fill="#adacac" d="M137.81738,76.09863c-2.7185.95215-5.4657,1.79883-8.2174,2.6294-2.74866.84179-5.51783,1.60742-8.28711,2.373-2.77564.74219-5.55164,1.48291-8.348,2.14893l-4.19555.99512c-1.40808.29638-2.80713.62646-4.22315.89355,1.35657-.48584,2.73011-.90967,4.09461-1.3667l4.12231-1.26465c2.7489-.84082,5.51807-1.60693,8.28772-2.37109,2.77588-.74121,5.55188-1.48193,8.34839-2.147C132.19287,77.313,134.99072,76.65283,137.81738,76.09863Z"/><path fill="#adacac" d="M125.7019 97.25439c-.95239-2.71875-1.79895-5.46582-2.62951-8.21777-.84156-2.74853-1.6073-5.51758-2.37281-8.28711-.74255-2.77539-1.48315-5.55127-2.149-8.34765l-.99536-4.19581c-.29651-1.4082-.62622-2.80712-.89344-4.22314.48609 1.35645.90967 2.73 1.36646 4.09473l1.26465 4.12207c.84082 2.749 1.60693 5.51806 2.37121 8.28808.74121 2.77588 1.48206 5.55176 2.14722 8.34815C124.48743 91.62939 125.14758 94.42773 125.7019 97.25439zM133.94629 93.01807a31.881 31.881 0 0 1-1.782-5.72217.49742.49742 0 0 1 .33447-.584 31.50606 31.50606 0 0 1 5.83728-1.35888 31.54575 31.54575 0 0 1-5.5304 2.31006l.33435-.584A31.90266 31.90266 0 0 1 133.94629 93.01807zM108.77576 68.34424a31.91431 31.91431 0 0 1 1.57531 5.78271.49783.49783 0 0 1-.35522.57178 31.55219 31.55219 0 0 1-5.88232 1.14844 31.51026 31.51026 0 0 1 5.60974-2.10987l-.355.57129A31.89439 31.89439 0 0 1 108.77576 68.34424z"/><path fill="#adacac" d="M132.856 82.05469l-4.99231-3.28125a.12542.12542 0 0 1-.042-.16358l.00268-.00488 2.81628-5.26758.17579.3501L130.444 73.645l.07568-.002-5.86084 1.15185a.3085.3085 0 0 1-.35485-.21387l-.00245-.0083-1.69287-5.728.59461.19726-.29468.23145.082-.08643-3.347 4.94678a.42729.42729 0 0 1-.559.13525l-.006-.00342-5.22583-2.8916.66956-.33642-.04749.37158-.00366-.14111 1.10547 5.86914a.47928.47928 0 0 1-.33838.54443l-5.74 1.65039.35205-.37939-.07629.38086-.22107-.521 5.02673 3.2251a.48214.48214 0 0 1 .16895.62207l-2.74146 5.30615-.02661-.46143.2113.31934-.47692-.19141 5.83545-1.27246a.43574.43574 0 0 1 .506.28955l1.79248 5.69727-.29395-.26172.37464.0791-.39942.17041 3.264-5.00195.00391-.00586a.315.315 0 0 1 .4093-.10645l5.28576 2.78125-.25378.01465.3219-.20752-.10315.25684-1.1875-5.85449-.0011-.00537a.13319.13319 0 0 1 .092-.15332l5.72266-1.71387-.00427.01416zm0 0l.23828.28662-.0011.01269-.0033.00147-5.64477 1.95508.09082-.15821 1.40063 5.80664a.23845.23845 0 0 1-.09582.252l-.00745.00537-.31494.21777a.24467.24467 0 0 1-.24768.01758l-.00635-.00293-5.34668-2.6626.413-.1123L120.179 92.74756a.37791.37791 0 0 1-.39039.17236l-.00927-.00146-.37635-.0708a.381.381 0 0 1-.29174-.25489l-.00245-.00732-1.87646-5.66992.50574.28955-5.82581 1.31543a.45826.45826 0 0 1-.47729-.19141l-.21363-.31787a.45943.45943 0 0 1-.02673-.46143l2.70215-5.32617.16894.62158-5.04907-3.19042a.49765.49765 0 0 1-.22119-.521l.0791-.38037a.501.501 0 0 1 .35217-.3794l5.752-1.6084-.33826.54444L113.578 71.43262a.48072.48072 0 0 1-.00366-.1416l.05017-.37159a.45157.45157 0 0 1 .50525-.39062.47717.47717 0 0 1 .16443.0542l5.20435 2.93017-.5647.13184 3.42627-4.89209.00415-.00586a.36821.36821 0 0 1 .07812-.081l.29981-.22461.00671-.00537a.37586.37586 0 0 1 .52612.07519.38347.38347 0 0 1 .062.127l1.56555 5.76416-.35706-.22168 5.88574-1.0166.007-.001a.23534.23534 0 0 1 .06922-.001l.3706.05566.00855.00147a.23361.23361 0 0 1 .16748.34863L128.04846 78.73l-.0393-.168zM108.80762 93.3252A31.88553 31.88553 0 0 1 114.53 91.54346a.49714.49714 0 0 1 .58386.33447 31.5297 31.5297 0 0 1 1.359 5.8374 31.54385 31.54385 0 0 1-2.31006-5.53076l.58374.33447A31.89092 31.89092 0 0 1 108.80762 93.3252zM133.48157 68.15479A31.91137 31.91137 0 0 1 127.69885 69.73a.49733.49733 0 0 1-.57153-.355 31.53484 31.53484 0 0 1-1.14856-5.88232 31.52424 31.52424 0 0 1 2.11 5.60986l-.57129-.355A31.869 31.869 0 0 1 133.48157 68.15479zM103.44763 80.81982A31.86713 31.86713 0 0 1 108.754 83.606a.49755.49755 0 0 1 .17639.64941 31.52568 31.52568 0 0 1-3.16663 5.08838 31.54768 31.54768 0 0 1 2.2771-5.54395l.1764.64893A31.86836 31.86836 0 0 1 103.44763 80.81982zM138.693 80.46826a31.89309 31.89309 0 0 1-5.20288-2.97461.49819.49819 0 0 1-.15307-.65576 31.54114 31.54114 0 0 1 3.34741-4.97119 31.5339 31.5339 0 0 1-2.47473 5.4585l-.153-.65479A31.88815 31.88815 0 0 1 138.693 80.46826z"/><path fill="#adacac" d="M103.44763 80.81982A31.86713 31.86713 0 0 1 108.754 83.606a.49755.49755 0 0 1 .17639.64941 31.52568 31.52568 0 0 1-3.16663 5.08838 31.54768 31.54768 0 0 1 2.2771-5.54395l.1764.64893A31.86836 31.86836 0 0 1 103.44763 80.81982zM138.693 80.46826a31.89309 31.89309 0 0 1-5.20288-2.97461.49819.49819 0 0 1-.15307-.65576 31.54114 31.54114 0 0 1 3.34741-4.97119 31.5339 31.5339 0 0 1-2.47473 5.4585l-.153-.65479A31.88815 31.88815 0 0 1 138.693 80.46826zM120.85388 62.87109a31.87842 31.87842 0 0 1-2.78625 5.30616.49767.49767 0 0 1-.64942.17675 31.54078 31.54078 0 0 1-5.08862-3.167 31.5407 31.5407 0 0 1 5.54407 2.27735l-.64905.17626A31.88492 31.88492 0 0 1 120.85388 62.87109zM121.20508 98.1167a31.88234 31.88234 0 0 1 2.9751-5.20313.49745.49745 0 0 1 .65527-.15283 31.535 31.535 0 0 1 4.97156 3.34717 31.53467 31.53467 0 0 1-5.45874-2.47461l.655-.15283A31.93769 31.93769 0 0 1 121.20508 98.1167zM431.78076 323.66309c2.5957 1.249 5.137 2.59277 7.67005 3.95117 2.53857 1.34863 5.0382 2.76513 7.53772 4.18213 2.48767 1.4375 4.97424 2.877 7.42248 4.3833l3.67053 2.26318c1.20533.78565 2.42774 1.542 3.618 2.354-1.303-.61524-2.57385-1.28711-3.86169-1.92872l-3.8092-2.021c-2.53821-1.34912-5.03809-2.76514-7.53687-4.1836-2.48694-1.43847-4.97375-2.87744-7.42163-4.38476C436.6167 326.78174 434.17151 325.27 431.78076 323.66309z"/><path fill="#adacac" d="M455.30713,317.27051c-1.24878,2.5957-2.59277,5.1372-3.95117,7.67041-1.34851,2.53857-2.76526,5.03808-4.18213,7.5376-1.43762,2.48779-2.877,4.97412-4.38342,7.42236l-2.26282,3.67041c-.78589,1.20557-1.54212,2.42773-2.35437,3.61816.61548-1.30273,1.28723-2.57373,1.92907-3.86181l2.02063-3.80909c1.34925-2.53808,2.76551-5.03808,4.1836-7.53662,1.43872-2.4873,2.87781-4.97412,4.38489-7.42187C452.18872,322.10645,453.70032,319.66162,455.30713,317.27051Z"/><path fill="#adacac" d="M463.37585,327.71c-2.7185.95264-5.46582,1.79883-8.2174,2.6294-2.74866.84179-5.518,1.60742-8.28723,2.373-2.77552.74268-5.55164,1.48291-8.348,2.14893l-4.19543.9956c-1.40808.29639-2.80725.626-4.22327.89307,1.35657-.48584,2.7301-.90967,4.09473-1.36621l4.12231-1.26465c2.74878-.84082,5.51795-1.60693,8.2876-2.37109,2.77588-.74121,5.55188-1.48243,8.34851-2.14746C457.75122,328.92432,460.54919,328.26416,463.37585,327.71Z"/><path fill="#adacac" d="M451.26025 348.86572c-.95239-2.71826-1.79895-5.46582-2.62951-8.21728-.84156-2.74854-1.6073-5.51807-2.37281-8.28711-.74255-2.77588-1.483-5.55176-2.14892-8.34815l-.99548-4.19531c-.29651-1.4082-.62623-2.80762-.89344-4.22363.48609 1.35693.90967 2.73047 1.36658 4.09472l1.26465 4.12256c.8407 2.74854 1.60693 5.51807 2.37109 8.2876.74121 2.77588 1.48218 5.55176 2.14722 8.34863C450.04578 343.24121 450.70593 346.03906 451.26025 348.86572zM459.50464 344.62988a31.91742 31.91742 0 0 1-1.782-5.72265.498.498 0 0 1 .33447-.584 31.5454 31.5454 0 0 1 5.83728-1.35888 31.54479 31.54479 0 0 1-5.53027 2.31l.33422-.58349A31.897 31.897 0 0 1 459.50464 344.62988zM434.33411 319.95557a31.90372 31.90372 0 0 1 1.57531 5.78271.49756.49756 0 0 1-.35522.57178 31.55029 31.55029 0 0 1-5.88232 1.14844 31.55186 31.55186 0 0 1 5.60974-2.10987l-.355.57129A31.90053 31.90053 0 0 1 434.33411 319.95557z"/><path fill="#adacac" d="M458.41431 333.666l-4.99231-3.28077a.12554.12554 0 0 1-.042-.16357l.00269-.00488 2.81628-5.26807.17591.3501-.37256-.042.0758-.002-5.86083 1.15137a.30867.30867 0 0 1-.355-.21387l-.00231-.0083-1.693-5.72754.59473.19678-.2948.23145.082-.08643-3.34692 4.94678a.427.427 0 0 1-.55909.13525l-.006-.00342-5.22571-2.8916.66944-.33642-.04736.37207-.00367-.14161 1.10547 5.86915a.48.48 0 0 1-.33838.54492l-5.74 1.6499.35193-.37891-.07629.38037-.221-.521 5.02661 3.22558a.48171.48171 0 0 1 .16907.62159l-2.74158 5.30615-.02661-.46094.21143.31885-.47693-.19141 5.83532-1.27246a.43587.43587 0 0 1 .50611.28955l1.79236 5.69727-.29383-.26172.37452.0791-.39942.17041 3.264-5.002.00391-.00586a.31555.31555 0 0 1 .4093-.10645l5.28589 2.78125-.25391.01465.3219-.20752-.103.25684-1.18762-5.854-.0011-.00537a.13359.13359 0 0 1 .092-.15381l5.72278-1.71386-.00439.01416zm0 0l.2384.28662-.00122.01269-.00317.002-5.6449 1.95507.09082-.15869 1.40063 5.80713a.239.239 0 0 1-.0957.25195l-.00745.00489-.31494.21777a.24482.24482 0 0 1-.24768.01807l-.00647-.00342-5.34668-2.6626.413-.1123-3.15162 5.07373a.379.379 0 0 1-.39038.17285l-.00927-.002-.37635-.07081a.38121.38121 0 0 1-.29174-.25439l-.00245-.00732-1.87646-5.67041.50574.28955-5.82581 1.31591a.45917.45917 0 0 1-.47717-.19189l-.21375-.31738a.46027.46027 0 0 1-.02673-.46192l2.70227-5.32617.16882.62158L434.575 331.2666a.49888.49888 0 0 1-.22119-.52148l.0791-.37989a.50161.50161 0 0 1 .35217-.37988l5.752-1.60791-.33826.54395-1.06226-5.877a.48043.48043 0 0 1-.00378-.14209l.05017-.37109a.45172.45172 0 0 1 .50525-.39111.4671.4671 0 0 1 .16443.05468L445.057 325.125l-.56482.13184 3.42627-4.89258.00415-.00586a.36581.36581 0 0 1 .07812-.08057l.29981-.2251.00671-.00488a.37577.37577 0 0 1 .52612.07471.38381.38381 0 0 1 .06214.12744l1.56543 5.76367-.35706-.22168 5.88574-1.01611.007-.00147a.21977.21977 0 0 1 .06922-.00048l.37072.05517.00843.00147a.23382.23382 0 0 1 .19665.26611.23772.23772 0 0 1-.02917.083l-3.00562 5.16211-.03931-.168zM434.366 344.937a31.89106 31.89106 0 0 1 5.72241-1.78222.49822.49822 0 0 1 .584.33447 31.53846 31.53846 0 0 1 1.35889 5.8374 31.54865 31.54865 0 0 1-2.31006-5.53027l.58374.334A31.89 31.89 0 0 1 434.366 344.937zM459.03992 319.76611a31.87308 31.87308 0 0 1-5.78272 1.57569.49767.49767 0 0 1-.57153-.35547 31.54466 31.54466 0 0 1-1.14856-5.88233 31.52382 31.52382 0 0 1 2.11 5.60987l-.57128-.355A31.913 31.913 0 0 1 459.03992 319.76611zM429.006 332.43115a31.94078 31.94078 0 0 1 5.3064 2.78614.4976.4976 0 0 1 .17651.64941 31.544 31.544 0 0 1-3.16675 5.08887 31.53714 31.53714 0 0 1 2.2771-5.54444l.17639.64942A31.905 31.905 0 0 1 429.006 332.43115zM464.25146 332.08008a31.92752 31.92752 0 0 1-5.203-2.9751.49766.49766 0 0 1-.15295-.65527 31.51378 31.51378 0 0 1 3.34729-4.97168 31.5253 31.5253 0 0 1-2.47461 5.45849l-.153-.65478A31.89684 31.89684 0 0 1 464.25146 332.08008z"/><path fill="#adacac" d="M429.006 332.43115a31.94078 31.94078 0 0 1 5.3064 2.78614.4976.4976 0 0 1 .17651.64941 31.544 31.544 0 0 1-3.16675 5.08887 31.53714 31.53714 0 0 1 2.2771-5.54444l.17639.64942A31.905 31.905 0 0 1 429.006 332.43115zM464.25146 332.08008a31.92752 31.92752 0 0 1-5.203-2.9751.49766.49766 0 0 1-.15295-.65527 31.51378 31.51378 0 0 1 3.34729-4.97168 31.5253 31.5253 0 0 1-2.47461 5.45849l-.153-.65478A31.89684 31.89684 0 0 1 464.25146 332.08008zM446.41235 314.48242a31.91139 31.91139 0 0 1-2.78637 5.30664.49746.49746 0 0 1-.64942.17627 31.54277 31.54277 0 0 1-5.0885-3.1665 31.53849 31.53849 0 0 1 5.54395 2.27685l-.649.17627A31.92777 31.92777 0 0 1 446.41235 314.48242zM446.76343 349.728a31.89113 31.89113 0 0 1 2.9751-5.20313.49745.49745 0 0 1 .65527-.15283 31.5295 31.5295 0 0 1 4.97156 3.34717 31.53425 31.53425 0 0 1-5.45862-2.47461l.655-.15283A31.91283 31.91283 0 0 1 446.76343 349.728zM106.22241 425.46c2.59571 1.249 5.137 2.59326 7.66992 3.95166 2.5387 1.34815 5.03833 2.76514 7.53785 4.18164 2.48754 1.438 4.97424 2.877 7.42248 4.38379l3.67041 2.2627c1.20545.78613 2.42786 1.542 3.618 2.35449-1.30285-.61572-2.57373-1.28711-3.86157-1.9292l-3.8092-2.02051c-2.53821-1.34912-5.03809-2.76562-7.53687-4.18359-2.48694-1.439-4.97388-2.87793-7.42163-4.38526C111.05835 428.57861 108.61316 427.06689 106.22241 425.46z"/><path fill="#adacac" d="M129.74878,419.06787c-1.2489,2.5957-2.5929,5.13672-3.95129,7.66992-1.34852,2.53858-2.76514,5.03809-4.18213,7.5376-1.4375,2.48779-2.87683,4.97412-4.3833,7.42236l-2.26282,3.6709c-.786,1.20508-1.54212,2.42774-2.35449,3.61768.6156-1.30274,1.28723-2.57373,1.92907-3.86133l2.02076-3.80908c1.34912-2.53858,2.7655-5.03809,4.18359-7.53711,1.43872-2.48682,2.87768-4.97363,4.38489-7.42139C126.63025,423.90381,128.142,421.4585,129.74878,419.06787Z"/><path fill="#adacac" d="M137.81738,429.50684c-2.7185.95263-5.4657,1.79931-8.2174,2.62988-2.74866.84131-5.51783,1.60693-8.28711,2.37256-2.77564.74267-5.55164,1.48291-8.348,2.14892l-4.19555.99561c-1.40808.29639-2.80713.626-4.22315.89355,1.35657-.48632,2.73011-.90966,4.09461-1.3667l4.12231-1.26464c2.7489-.84082,5.51807-1.60694,8.28772-2.3711,2.77588-.74121,5.55188-1.48193,8.34839-2.14746C132.19287,430.72168,134.99072,430.06152,137.81738,429.50684Z"/><path fill="#adacac" d="M125.7019 450.6626c-.95239-2.71826-1.79895-5.46582-2.62951-8.21729-.84156-2.74853-1.6073-5.51806-2.37281-8.28711-.74255-2.77539-1.48315-5.55175-2.149-8.34814l-.99536-4.19531c-.29651-1.40821-.62622-2.80713-.89344-4.22315.48609 1.35645.90967 2.73 1.36646 4.09473l1.26465 4.12207c.84082 2.749 1.60693 5.51806 2.37121 8.2876.74121 2.77588 1.48206 5.55175 2.14722 8.34863C124.48743 445.03809 125.14758 447.83594 125.7019 450.6626zM133.94629 446.42676a31.89326 31.89326 0 0 1-1.782-5.72217.4974.4974 0 0 1 .33447-.584 31.54638 31.54638 0 0 1 5.83728-1.35938 31.50847 31.50847 0 0 1-5.5304 2.31006l.33435-.5835A31.90266 31.90266 0 0 1 133.94629 446.42676zM108.77576 421.75293a31.90367 31.90367 0 0 1 1.57531 5.78271.49729.49729 0 0 1-.35522.57129 31.51253 31.51253 0 0 1-5.88232 1.14844 31.548 31.548 0 0 1 5.60974-2.10986l-.355.57129A31.88938 31.88938 0 0 1 108.77576 421.75293z"/><path fill="#adacac" d="M132.856 435.46289l-4.99231-3.28076a.12554.12554 0 0 1-.042-.16358l.00268-.00488 2.81628-5.26806.17579.35009-.37244-.042.07568-.002-5.86084 1.15136a.308.308 0 0 1-.35485-.21386l-.00245-.00781-1.69287-5.728.59461.19678-.29468.23193.082-.08643-3.347 4.94678a.42729.42729 0 0 1-.559.13525l-.006-.00341-5.22583-2.89209.66956-.33643-.04749.37207-.00366-.1416 1.10547 5.86963a.47955.47955 0 0 1-.33838.54443l-5.74 1.65039.35205-.37939-.07629.38037-.22107-.521 5.02673 3.22559a.48214.48214 0 0 1 .16895.62207l-2.74146 5.30615-.02661-.46142.2113.31933-.47692-.19189 5.83545-1.27246a.436.436 0 0 1 .506.29l1.79248 5.69726-.29395-.26172.37464.07862-.39942.17089 3.264-5.00244.00391-.00586a.31606.31606 0 0 1 .4093-.10644l5.28576 2.78125-.25378.01465.3219-.207-.10315.25634-1.1875-5.854-.0011-.00537a.13292.13292 0 0 1 .092-.15332l5.72266-1.71436-.00427.01465zm0 0l.23828.28662-.0011.01319-.0033.00146-5.64477 1.95508.09082-.15869 1.40063 5.80713a.23876.23876 0 0 1-.09582.25195l-.00745.00488-.31494.21778a.24478.24478 0 0 1-.24768.01806l-.00635-.00342-5.34668-2.66259.413-.11182-3.15161 5.07373a.3787.3787 0 0 1-.39039.17236l-.00927-.002-.37635-.07031a.38179.38179 0 0 1-.29174-.25489l-.00245-.00732-1.87646-5.67041.50574.29-5.82581 1.31543a.45907.45907 0 0 1-.47729-.19141l-.21363-.31787a.45941.45941 0 0 1-.02673-.46142l2.70215-5.32666.16894.62158-5.04907-3.18994a.49869.49869 0 0 1-.22119-.52149l.0791-.37988a.50159.50159 0 0 1 .35217-.37988l5.752-1.60791-.33826.54443-1.06238-5.87744a.48153.48153 0 0 1-.00366-.1416l.05017-.37159a.45194.45194 0 0 1 .50525-.39111.4884.4884 0 0 1 .16443.05469l5.20435 2.93018-.5647.13183 3.42627-4.89209.00415-.00635a.36576.36576 0 0 1 .07812-.08056l.29981-.2251.00671-.00488a.37583.37583 0 0 1 .58814.20215l1.56555 5.76416-.35706-.22217 5.88574-1.01612.007-.00146a.21948.21948 0 0 1 .06922-.00049l.3706.05566.00855.001a.23382.23382 0 0 1 .19665.26611.24009.24009 0 0 1-.02917.083l-3.00562 5.16211-.0393-.168zM108.80762 446.73389a31.88553 31.88553 0 0 1 5.72241-1.78174.49727.49727 0 0 1 .58386.334 31.548 31.548 0 0 1 1.359 5.83741 31.524 31.524 0 0 1-2.31006-5.53028l.58374.33447A31.9311 31.9311 0 0 1 108.80762 446.73389zM133.48157 421.56348a31.91137 31.91137 0 0 1-5.78272 1.57519.49776.49776 0 0 1-.57153-.355 31.53217 31.53217 0 0 1-1.14856-5.88281 31.553 31.553 0 0 1 2.11 5.60986l-.57129-.355A31.86954 31.86954 0 0 1 133.48157 421.56348zM103.44763 434.228a31.90515 31.90515 0 0 1 5.3064 2.78662.49755.49755 0 0 1 .17639.64941 31.547 31.547 0 0 1-3.16663 5.08838 31.54727 31.54727 0 0 1 2.2771-5.54394l.1764.64892A31.90452 31.90452 0 0 1 103.44763 434.228zM138.693 433.877a31.89617 31.89617 0 0 1-5.20288-2.97509.49747.49747 0 0 1-.15307-.65528 31.54575 31.54575 0 0 1 3.34741-4.97168 31.53867 31.53867 0 0 1-2.47473 5.459l-.153-.65528A31.92364 31.92364 0 0 1 138.693 433.877z"/><path fill="#adacac" d="M103.44763 434.228a31.90515 31.90515 0 0 1 5.3064 2.78662.49755.49755 0 0 1 .17639.64941 31.547 31.547 0 0 1-3.16663 5.08838 31.54727 31.54727 0 0 1 2.2771-5.54394l.1764.64892A31.90452 31.90452 0 0 1 103.44763 434.228zM138.693 433.877a31.89617 31.89617 0 0 1-5.20288-2.97509.49747.49747 0 0 1-.15307-.65528 31.54575 31.54575 0 0 1 3.34741-4.97168 31.53867 31.53867 0 0 1-2.47473 5.459l-.153-.65528A31.92364 31.92364 0 0 1 138.693 433.877zM120.85388 416.27979a31.898 31.898 0 0 1-2.78625 5.30615.49751.49751 0 0 1-.64942.17627 31.50365 31.50365 0 0 1-5.08862-3.16651 31.50411 31.50411 0 0 1 5.54407 2.27735l-.64905.17627A31.88441 31.88441 0 0 1 120.85388 416.27979zM121.20508 451.5249a31.89774 31.89774 0 0 1 2.9751-5.20263.49758.49758 0 0 1 .65527-.15332 31.538 31.538 0 0 1 4.97156 3.34765 31.5366 31.5366 0 0 1-5.45874-2.4751l.655-.15283A31.88524 31.88524 0 0 1 121.20508 451.5249zM356.14941 187.77832c1.945.87647 3.83545 1.84766 5.71778 2.8335 1.88794.97607 3.73681 2.02 5.58569 3.064 1.83691 1.06494 3.67285 2.13184 5.47034 3.26563l2.69446 1.70361c.88.6001 1.777 1.16992 2.642 1.7959-.97766-.4292-1.92309-.91455-2.88562-1.37012l-2.83313-1.46191c-1.88757-.97657-3.73669-2.02-5.58471-3.06543-1.83631-1.06641-3.67237-2.13282-5.46949-3.26709C359.684 190.15186 357.8894 189.0127 356.14941 187.77832z"/><path fill="#adacac" d="M373.53552,183.05469c-.87622,1.94482-1.84753,3.83545-2.83325,5.71777-.97583,1.8877-2.0199,3.73682-3.06421,5.58545-1.06482,1.83691-2.13159,3.67285-3.26538,5.47021l-1.70386,2.69483c-.59961.87988-1.16943,1.77685-1.79541,2.6416.4292-.97754.91455-1.92285,1.37012-2.88525l1.46167-2.833c.97656-1.8877,2.02026-3.73682,3.06567-5.585,1.066-1.83643,2.13245-3.67237,3.267-5.46973C371.16235,186.58887,372.30139,184.79443,373.53552,183.05469Z"/><path fill="#adacac" d="M379.49841,190.769c-1.99487.75586-4.01855,1.40576-6.04663,2.04-2.025.64453-4.07055,1.21387-6.11621,1.78272-2.052.5459-4.10449,1.08984-6.17712,1.55908l-3.11011.70068c-1.04626.19824-2.0835.42969-3.1377.59864.99476-.38819,2.00647-.71338,3.00916-1.07178l3.03687-.96973c2.02526-.644,4.0708-1.21387,6.11682-1.78125,2.05224-.54443,4.10461-1.08887,6.17761-1.55762C375.321,191.59033,377.39539,191.127,379.49841,190.769Z"/><path fill="#adacac" d="M370.54492 206.40332c-.75574-1.99463-1.40576-4.01855-2.03967-6.04639-.645-2.0249-1.21411-4.0708-1.783-6.11621-.5459-2.05176-1.08984-4.10449-1.5592-6.17724l-.70044-3.10987c-.19825-1.04638-.42957-2.08349-.59851-3.13769.38769.99463.713 2.00635 1.07153 3.00879l.96973 3.03711c.64428 2.02539 1.21374 4.0708 1.78137 6.1167.54455 2.05224 1.08886 4.10449 1.55737 6.17773C369.72363 202.22607 370.18713 204.30029 370.54492 206.40332zM376.63757 203.273l-1.44445-4.2002a.44739.44739 0 0 1 .27771-.56884l.05688-.01563 4.354-.87988-4.04687 1.83154.33447-.584zM358.03625 185.03857l1.29273 4.25a.44792.44792 0 0 1-.298.5586l-.05738.01318-4.38281.72315 4.11-1.68506-.35523.57177z"/><path fill="#adacac" d="M375.83179 195.1709l-3.70838-2.397a.12471.12471 0 0 1-.04272-.16211l.00342-.00635 2.05651-3.90674.17591.3501-.27539-.02979.07568-.00195-4.32788.86865a.30689.30689 0 0 1-.35425-.21142l-.003-.01026-1.26782-4.22851.59472.19726-.217.17188.082-.08643-2.46314 3.6626a.42564.42564 0 0 1-.55749.13623l-.00757-.00439-3.86463-2.13184.66956-.33643-.03467.27491-.00366-.14161.82251 4.33643a.47989.47989 0 0 1-.33838.54443l-4.24024 1.2251.35193-.3789-.056.28125-.22094-.521 3.71179 2.38818a.48216.48216 0 0 1 .16894.62158l-2.03112 3.91895-.02662-.46143.15589.23584-.47693-.1914 4.3136-.93457a.43651.43651 0 0 1 .506.28955q.67437 2.10132 1.31372 4.21387l-.29395-.26172.27662.05957-.39942.17041 2.42676-3.687.00537-.00831a.31368.31368 0 0 1 .40784-.104l3.89831 2.0708L372.38379 201l.23865-.15186-.103.25635-.84985-4.33252-.00135-.00683a.13224.13224 0 0 1 .09229-.15186l4.23926-1.23486-.00428.01416zm0 0l.178.21045-.001.01269-.00342.00147-4.16138 1.47656.09082-.15869 1.06287 4.28516a.23591.23591 0 0 1-.09338.25l-.00977.00683-.23181.16211a.24091.24091 0 0 1-.24548.019l-.00867-.0039-3.95911-1.95215.413-.11231L366.5481 203.127a.37614.37614 0 0 1-.38746.17285l-.01232-.00195-.2782-.05127a.37827.37827 0 0 1-.2898-.249l-.00439-.01318q-.71669-2.08741-1.39771-4.18653l.50574.28955-4.304.978a.45962.45962 0 0 1-.47729-.19189l-.1582-.23438a.46031.46031 0 0 1-.02674-.46143l1.99182-3.939.16895.62158-3.73425-2.353a.497.497 0 0 1-.22119-.521l.05883-.28076a.502.502 0 0 1 .35218-.37989l4.25219-1.1831-.33813.54443-.77954-4.34424a.48489.48489 0 0 1-.00366-.1416l.03747-.27441a.45164.45164 0 0 1 .50427-.3916.4845.4845 0 0 1 .16541.05517l3.84326 2.17041-.56482.13184 2.54236-3.6084.00562-.00781a.36048.36048 0 0 1 .07666-.0791l.22216-.165.00916-.00684a.37483.37483 0 0 1 .52441.07666.38409.38409 0 0 1 .0614.127l1.14026 4.26465-.35705-.22217 4.3529-.73339.00928-.00147a.2188.2188 0 0 1 .06677-.00049l.27368.043.01148.00195a.23232.23232 0 0 1 .19409.26563.23722.23722 0 0 1-.02954.08252l-2.246 3.80127-.03919-.168zM358.05981 203.5l4.20057-1.44434a.44746.44746 0 0 1 .56884.27784l.01551.05664.87988 4.354-1.83154-4.04687.584.33447zM376.29407 184.89893l-4.24964 1.29248a.44775.44775 0 0 1-.55847-.29786l-.01343-.05761-.723-4.38282 1.68506 4.11036-.57165-.35547zM354.09875 194.2583l3.9917 1.94873a.44762.44762 0 0 1 .20581.59863l-.02929.05127-2.45655 3.70069 1.56641-4.15674.17651.6499zM380.14551 193.99854l-3.91919-2.09083a.44758.44758 0 0 1-.18421-.60546l.03113-.0503 2.58789-3.61035-1.71472 4.09766-.15308-.65528z"/><path fill="#adacac" d="M354.09875 194.2583l3.9917 1.94873a.44762.44762 0 0 1 .20581.59863l-.02929.05127-2.45655 3.70069 1.56641-4.15674.17651.6499zM380.14551 193.99854l-3.91919-2.09083a.44758.44758 0 0 1-.18421-.60546l.03113-.0503 2.58789-3.61035-1.71472 4.09766-.15308-.65528zM366.96216 180.99414l-1.94885 3.9917a.44744.44744 0 0 1-.59852.20557l-.05126-.0293-3.70081-2.45654 4.15662 1.5664-.64954.17676zM367.22168 207.04053l2.09094-3.91895a.44709.44709 0 0 1 .60559-.18408l.05.03125 3.61035 2.5874L369.481 203.8418l.65539-.15332zM49.798 286.69434c1.94495.87646 3.83557 1.84765 5.71778 2.83349 1.88794.97608 3.73694 2.02 5.58569 3.064 1.83691 1.06494 3.67285 2.13183 5.47034 3.26562l2.69446 1.70362c.88.5996 1.77709 1.16943 2.642 1.79541-.97754-.4292-1.92309-.91456-2.88562-1.36963l-2.833-1.46192c-1.88758-.97656-3.7367-2.02-5.58484-3.06592-1.83631-1.06591-3.67237-2.13232-5.46949-3.2666C53.33252 289.06787 51.538 287.92871 49.798 286.69434z"/><path fill="#adacac" d="M67.1842,281.9707c-.87622,1.94483-1.84753,3.83545-2.83337,5.71778-.97583,1.88769-2.01978,3.73681-3.06409,5.58545-1.06494,1.83691-2.13159,3.67285-3.2655,5.47021L56.3175,301.439c-.59973.87989-1.16955,1.77686-1.79553,2.64161.4292-.97754.91455-1.92286,1.37012-2.88526l1.46167-2.83349c.97656-1.88721,2.02026-3.73633,3.06567-5.58448,1.06617-1.83642,2.13245-3.67236,3.267-5.46972C64.811,285.50488,65.95007,283.71045,67.1842,281.9707Z"/><path fill="#adacac" d="M73.147,289.68506c-1.99487.75586-4.01855,1.40576-6.04651,2.04-2.025.64453-4.07067,1.21386-6.11633,1.78271-2.052.5459-4.10437,1.08985-6.17712,1.55908l-3.11011.70069c-1.04627.19824-2.0835.42969-3.1377.59863.99476-.38818,2.00647-.71338,3.00916-1.07178l3.037-.96972c2.02514-.644,4.07068-1.21387,6.1167-1.78125,2.05224-.54492,4.10461-1.08887,6.17761-1.55762C68.9696,290.50635,71.044,290.043,73.147,289.68506Z"/><path fill="#adacac" d="M64.19348 305.31934c-.75574-1.99463-1.40576-4.01856-2.03967-6.04639-.6449-2.0249-1.21411-4.0708-1.783-6.11621-.5459-2.05225-1.08984-4.10449-1.55908-6.17725l-.70056-3.10986c-.19812-1.04639-.42957-2.0835-.59851-3.1377.38781.99463.71313 2.00635 1.07165 3.00879l.96973 3.03711c.64416 2.02539 1.21362 4.0708 1.78125 6.1167.54455 2.05225 1.08886 4.10449 1.55737 6.17774C63.37231 301.14209 63.83582 303.21631 64.19348 305.31934zM70.28613 302.189l-1.44446-4.20068a.4479.4479 0 0 1 .27771-.56885l.05689-.01513 4.354-.87989L69.4834 298.356l.33447-.584zM51.68494 283.95459l1.2926 4.25a.4478.4478 0 0 1-.298.55859l-.05738.01319-4.38269.72314 4.11-1.68506-.35523.57129z"/><path fill="#adacac" d="M69.48047 294.08691l-3.70838-2.39746a.124.124 0 0 1-.04284-.16162l.00342-.00635 2.05664-3.90722.17578.3501-.27539-.0293.07568-.002-4.32788.86865a.30689.30689 0 0 1-.35425-.21143l-.00305-.01025-1.2677-4.22852.59473.19727-.21717.17187.082-.08642-2.46313 3.6626a.42613.42613 0 0 1-.5575.13623l-.00744-.0044-3.86463-2.13183.66944-.33643-.03467.2749-.00366-.1416.82251 4.33643a.47977.47977 0 0 1-.33838.54443l-4.24024 1.2251.35193-.3794-.056.28174-.22094-.521 3.71179 2.38819a.482.482 0 0 1 .16894.62158l-2.031 3.91895-.02674-.46143.15589.23584-.47693-.19141 4.3136-.93506a.43738.43738 0 0 1 .5061.29q.67419 2.10132 1.3136 4.21387l-.29382-.26172.27649.05957-.39942.17041 2.42688-3.6875.00525-.00781a.31371.31371 0 0 1 .40784-.104l3.89831 2.0708-.25378.01465.23865-.15186-.103.25635-.84973-4.33252-.00147-.00684a.13232.13232 0 0 1 .09241-.15185l4.23926-1.23487-.0044.01416zm0 0l.178.21045-.0011.01221-.0033.00195-4.1615 1.47657.09082-.1587 1.063 4.28516a.2363.2363 0 0 1-.09338.25l-.00989.00684-.23181.16211a.24091.24091 0 0 1-.24548.019l-.00867-.0044-3.959-1.95166.41285-.1123L60.19666 302.043a.37615.37615 0 0 1-.38746.17285l-.0122-.00244-.27832-.05078a.38.38 0 0 1-.2898-.249l-.00439-.01318q-.71669-2.0874-1.39771-4.18652l.50586.28955-4.30408.978a.45962.45962 0 0 1-.47729-.1919l-.1582-.23437a.46141.46141 0 0 1-.02661-.46192l1.99169-3.93847.16895.62158-3.73425-2.353a.49749.49749 0 0 1-.22107-.52148l.05871-.28077a.50207.50207 0 0 1 .35218-.37939l4.25232-1.18311-.33826.54444-.77942-4.34424a.47674.47674 0 0 1-.00366-.1416l.03735-.27442a.45136.45136 0 0 1 .50427-.3916.4728.4728 0 0 1 .16541.05518l3.84326 2.16992-.5647.13232 2.54236-3.60839.00562-.00831a.36648.36648 0 0 1 .07666-.07861l.22216-.165.009-.00683a.37479.37479 0 0 1 .52441.07666.384.384 0 0 1 .0614.12695l1.14026 4.26465-.35705-.22217 4.3529-.7334.0094-.00146a.218.218 0 0 1 .06665-.00049l.27368.043.01148.00146a.233.233 0 0 1 .16455.34863l-2.24585 3.80127-.03931-.16845zM51.70837 302.416l4.20057-1.44434a.44749.44749 0 0 1 .56884.27734l.01551.05713.87988 4.354-1.83154-4.04688.584.33447zM69.94275 283.81494L65.693 285.10742a.44779.44779 0 0 1-.55847-.29785l-.01343-.05762-.723-4.38281 1.68506 4.11035-.57166-.35547zM47.74731 293.17432l3.9917 1.94873a.44752.44752 0 0 1 .20581.59863l-.02929.05127L49.459 299.47363l1.56653-4.15674.17639.64942zM73.79407 292.91455L69.875 290.82373a.44737.44737 0 0 1-.1842-.60547l.031-.05029 2.58789-3.61035L70.595 290.65527 70.442 290z"/><path fill="#adacac" d="M47.74731 293.17432l3.9917 1.94873a.44752.44752 0 0 1 .20581.59863l-.02929.05127L49.459 299.47363l1.56653-4.15674.17639.64942zM73.79407 292.91455L69.875 290.82373a.44737.44737 0 0 1-.1842-.60547l.031-.05029 2.58789-3.61035L70.595 290.65527 70.442 290zM60.61084 279.91016l-1.94885 3.9917a.44758.44758 0 0 1-.59864.20556l-.05114-.0293-3.70093-2.45654L58.4679 283.188l-.64942.17676zM60.87024 305.95654l2.09094-3.91894a.44716.44716 0 0 1 .60559-.18408l.05017.03076 3.61023 2.58789-4.09765-1.71436.65539-.15332z"/></svg>