<svg xmlns="http://www.w3.org/2000/svg" data-name="Layer 1" viewBox="0 0 512 512"><path fill="#fff" d="M423.8064,121.24707c14.3667-15.19531,26.9082-40.44043,20.53857-59.57129-4.19482-12.59863-15.52978-20.0791-29.57519-19.5664-16.48682.62207-31.835,10.63964-43.708,28.08105A51.17648,51.17648,0,0,0,360.596,72.40137c-.66992.19531-1.21.36718-1.67237.52343l-.12451-.123a25.05783,25.05783,0,0,0-8.00879-5.62207c-8.12549-3.6211-15.311-2.56934-21.09082-1.72657-2.30957.33887-4.38183.833-7.84082,1.6875a22.98063,22.98063,0,0,0-14.43945-7.59277c-10.02783-1.18945-16.85645,4.10059-21.37305,7.60547a43.7508,43.7508,0,0,0-3.6416,3.1377c-.13672.12988-.28076.26757-.4624.43359a25.481,25.481,0,0,0-7.13526.10742c-10.15527,1.56348-16.04736,8.19043-18.563,11.01953a33.574,33.574,0,0,0-5.377,8.02246,21.92,21.92,0,0,0-14.102,3.208c-6.373,3.94922-8.66015,9.77539-10.67822,14.918-.49292,1.25635-.97461,2.49365-1.40576,3.74707-.16455-.11035-.31714-.2334-.48535-.33984A26.21877,26.21877,0,0,0,209.95,107.50977a33.64492,33.64492,0,0,0-5.64453.46972c-1.37061.23535-2.48145.47266-3.49561.74805a19.9436,19.9436,0,0,0-7.49108,3.88672,47.44251,47.44251,0,0,0-11.65784.09961,35.8718,35.8718,0,0,0-7.82007,1.86328c-.64966-.25586-1.31811-.501-2.02222-.72363a22.75635,22.75635,0,0,0-4.94531-5.09864,23.27856,23.27856,0,0,0-10.144-4.33593,33.85487,33.85487,0,0,0-10.93994-.002q-1.34987.21974-2.03858.34571a19.95189,19.95189,0,0,0-5.48877,1.86523c-.02929,0-.0581-.00293-.0874-.00293a28.37084,28.37084,0,0,0-13.98877,3.70312,20.07023,20.07023,0,0,0-2.48682,1.6709q-.728-.58008-1.50878-1.10644a25.679,25.679,0,0,0-14.41944-4.26758,26.81506,26.81506,0,0,0-10.86816,2.26855,27.13924,27.13924,0,0,0-7.56983,4.88868A19.99965,19.99965,0,0,0,81.02319,130.334c.17676,1.86426.43994,3.90235.78077,6.05176.29833,1.88184.624,3.81153.977,5.77735.36865,2.05957.78369,4.15722,1.23339,6.22753.43116,1.98829.86084,3.87012,1.27588,5.583.45655,1.88965.92041,3.63477,1.37989,5.18848a36.83388,36.83388,0,0,0,2.23974,5.9248,22.37268,22.37268,0,0,0,2.16113,3.50586,20.0245,20.0245,0,0,0-5.49609,6.38868,31.61651,31.61651,0,0,0-9.09082,5.73925,31.25383,31.25383,0,0,0-7.978,11.40821,37.04429,37.04429,0,0,0-.22851,26.42871,31.51421,31.51421,0,0,0,7.61181,11.42871A32.18632,32.18632,0,0,0,87.64185,237.125a40.17916,40.17916,0,0,0,24.185.38281c1.29419-.40722,2.49781-.86816,3.6587-1.35937.65173.293,1.31152.57324,1.98828.82715a35.70422,35.70422,0,0,0,12.58593,2.209q.81044,0,1.61121-.03223c-.40332.354-.81189.70264-1.18933,1.08008a20.00058,20.00058,0,0,0-5.65772,16.96485c.28956,2.0332.689,4.35351,1.18409,6.88476.46875,2.40235.97363,4.80176,1.50048,7.13281.55567,2.46289,1.13672,4.78223,1.72266,6.88282.53931,1.93847,1.063,3.56347,1.60449,4.98291-.59692-.02393-1.19714-.04444-1.81543-.04444a37.22276,37.22276,0,0,0-9.74658,1.27246,30.15554,30.15554,0,0,0-10.75049,5.34864,28.48854,28.48854,0,0,0-8.17578,10.22363,30.26716,30.26716,0,0,0-2.874,13.19336v21.5332a25.24449,25.24449,0,0,0,1.88769,9.8252,23.04091,23.04091,0,0,0,17.54834,13.88867,32.20057,32.20057,0,0,0,5.45313.44726,36.61062,36.61062,0,0,0,5.06494-.34667,30.53494,30.53494,0,0,0,4.603-.95508,19.94311,19.94311,0,0,0,3.86059-1.624c.85913.40869,1.73584.79053,2.63892,1.12891a35.69241,35.69241,0,0,0,12.5957,2.21289,36.591,36.591,0,0,0,12.24512-2.03223c.13647-.04834.26831-.105.40381-.15478a23.494,23.494,0,0,0,2.44116.81055,135.26634,135.26634,0,0,0-20.44653,21.51318,60.5295,60.5295,0,0,0-9.814,54.07715,50.36893,50.36893,0,0,0,14.35889,22.93945q.22632.20361.46387.40723c.41162.3623.82519.71972,1.18017,1.00976,9.80274,8.084,22.5044,12.16114,37.84278,12.16016q3.9104,0,8.05029-.35352a98.01526,98.01526,0,0,0,29.978-7.582l64.31738-27.32519A286.31281,286.31281,0,0,1,320.67065,424.29l1.99952-.6084c.1455-.04.29052-.082.43554-.125l.53467-.16016c5.48731-1.6621,11.37842-3.23925,18.02441-4.82714,15.62891-3.74414,43.63233-13.81934,55.5625-39.2002,7.03711-14.91016,7.13819-31.84375.29932-50.33008a75.53514,75.53514,0,0,1-2.86963-9.31347c-.8042-3.51954-1.53125-7.376-2.15674-11.44141l-.29052-1.96191c-.09326-.65723-.187-1.31739-.28321-2.05176-.0039-.02735-.0166-.12793-.02-.1543q-.17943-1.37109-.34716-2.81055c-.01612-.14062-.03418-.28125-.05323-.42089-2.5083-21.61817-3.06836-55.77442,7.79639-97.9668,1.40039-1.75488,2.46191-3.36621,3.25586-4.57031a38.91142,38.91142,0,0,0,2.29639-3.9375,34.75481,34.75481,0,0,0,5.77148-4.39258c7.65283-7.1709,11.55274-15.22949,11.59131-23.94629a25.08059,25.08059,0,0,0-2.82471-11.66113c-.22119-.46973-.478-1.01563-.79248-1.72461a24.73444,24.73444,0,0,0,1.28223-3.81153,24.02988,24.02988,0,0,0-.82324-14.19433,30.24442,30.24442,0,0,0,1.93359-3.584A33.67536,33.67536,0,0,0,423.8064,121.24707ZM379.07349,140.0625a24.85949,24.85949,0,0,0-1.42823,3.81543c-2.23584,7.8623.08008,14.30176,1.94483,19.09473a31.32628,31.32628,0,0,0-5.53076,5.2041,28.90375,28.90375,0,0,0-4.90137,8.15429l-.00879.02051c-.30469.46192-.7793,1.18164-1.05615,1.54395a20.00286,20.00286,0,0,0-6.12549,9.77344c-13.918,50.8125-13.19678,92.37011-10.14111,118.28515.01513.12988.03173.25879.04931.3877q.17871,1.51464.36768,2.95508l.03125.24414c.1084.82128.21972,1.6123.335,2.42285l.353,2.38574c.77441,5.0293,1.68261,9.83594,2.69873,14.2832a114.59819,114.59819,0,0,0,4.35107,14.28711c2.96973,8.02832,3.32031,14.54785,1.02783,19.40528-5.14648,10.94921-23.26416,16.04394-28.68066,17.34179-7.38818,1.76465-14.0127,3.54-20.17725,5.40625q-.31421.085-.62695.17969l-2.5293.76953a326.637,326.637,0,0,0-32.51953,11.81641l-64.31933,27.32519a58.111,58.111,0,0,1-17.74463,4.543c-7.90528.67481-13.93067-.30469-17.04883-2.82324l-.24268-.21289c-.05517-.04981-.11133-.09863-.168-.14746a11.06558,11.06558,0,0,1-2.81543-4.94922,20.445,20.445,0,0,1,3.55909-18.19629c7.291-9.68652,17.45654-18.61816,32.86328-28.85254q.605-.34131,1.19189-.72754c7.86231-5.17578,16.40528-10.26269,24.667-15.18262,5.40284-3.21679,10.98926-6.54394,16.44825-9.92871,19.64111-12.17773,30.01416-40.18359,32.64453-88.13769.876-15.97168.69775-31.74219.23047-44.31738a20.02508,20.02508,0,0,0,4.17724-2.41407c.731.56446,1.62256,1.21192,2.67823,1.89063l.02343.01465a42.047,42.047,0,0,0,9.40284,4.5625,20.04679,20.04679,0,0,0,21.87207-6.32911q.22264.12745.45654.25782a20.00025,20.00025,0,0,0,19.51318-34.918c-.1499-.08594-.28222-.17188-.40722-.249-.5376-.333-1.34961-.83594-2.34131-1.35547a20.00805,20.00805,0,0,0-24.897,5.22949q-.67236-.28417-1.375-.52344a3.36339,3.36339,0,0,1-.42724-.24121c-.07031-.05957-.13574-.11719-.19971-.17187a28.15969,28.15969,0,0,0-9.27148-5.49219,31.07079,31.07079,0,0,0-2.99073-.90528,19.95239,19.95239,0,0,0-16.98388,3.52149,20.05759,20.05759,0,0,0-4.99463-1.17578c-.44922-.12793-1.42578-.541-2.09326-.82227-.2251-.09473-.50537-.21289-.80371-.34277a25.8726,25.8726,0,0,0-3.47022-8.06641,27.56136,27.56136,0,0,0-1.82861-2.51269c-.10694-.69434-.24951-1.40821-.43213-2.13868a23.1957,23.1957,0,0,0-4.332-8.85546,22.73636,22.73636,0,0,0-4.17334-18.84766,21.69811,21.69811,0,0,0,1.40625-2.99219,21.38179,21.38179,0,0,0,1.05566-3.84375c6.76758-2.64746,12.833-7.98828,18.10645-15.96289q.51563-.78077.94287-1.49121c.66211-.00293,1.353-.01953,2.0625-.07226,7.57959-.55469,12.96582-3.89454,17.53271-7.53418a26.0427,26.0427,0,0,0,8.22071,3.51757c6.062,1.43262,10.53418.25782,14.47949-.77832.96924-.25488,2.20605-.581,3.82812-.98242,1.77149-.43848,3.46582-.8584,4.39991-1.06152q.665.56982,1.44384,1.21582c5.17774,4.28418,8.98291,6.79883,14.27735,7.82226,6.61328,1.27149,11.97461-.40918,17.63916-2.18457.2705-.084.5205-.16308.75293-.23828,1.36865.98047,3.04834,2.0625,5.291,3.42383.0293.01855.05908.03613.08887.05469l.00977.00586q.28857.17431.58154.33984.28418.18458.57617.36231l.00488.00293c1.84424,1.11621,3.54444,2.14453,5.271,3.02148.01123.02051.022.042.0332.06348a26.583,26.583,0,0,0-1.75244,4.40625C377.16138,130.01074,378.06274,135.5166,379.07349,140.0625Z"/><path fill="#d64142" d="M117.57785 134.53142a13.25459 13.25459 0 0 1 1.79444-.59863 9.25165 9.25165 0 0 1 2.47021-.33789 8.94189 8.94189 0 0 1 3.64112.65039 2.852 2.852 0 0 1 1.76855 1.89844q.57129 2.1328 1.06592 3.97851.49365 1.84717.9624 3.53711.468 1.69044.91016 3.35449.44164 1.66554.8584 3.48536h.25976q.468-3.17286.83252-6.05957.36328-2.88721.67578-5.66993.312-2.78173.62451-5.51269.312-2.73047.624-5.53906a8.18691 8.18691 0 0 1 4.10888-1.09278 6.42211 6.42211 0 0 1 3.32862.832 3.001 3.001 0 0 1 1.40429 2.8086 31.52813 31.52813 0 0 1-.23388 3.251q-.23437 2.10645-.624 4.707-.39038 2.60156-.91015 5.46191-.52075 2.86084-1.09229 5.46094-.57348 2.60156-1.17041 4.707a24.37774 24.37774 0 0 1-1.11816 3.251 6.02365 6.02365 0 0 1-2.54883 1.19629 14.19221 14.19221 0 0 1-3.64062.46778 11.55723 11.55723 0 0 1-4.13526-.65039 3.07414 3.07414 0 0 1-2.0542-1.84571q-.67675-2.08008-1.45654-4.9414-.78-2.85937-1.66406-6.29395-.7295 3.38232-1.50879 6.60547-.78 3.22558-1.4043 5.46191a5.89946 5.89946 0 0 1-2.34033 1.19629 11.92776 11.92776 0 0 1-3.43262.46778 13.02357 13.02357 0 0 1-4.23926-.65039 3.9599 3.9599 0 0 1-2.4707-1.84571 18.07218 18.07218 0 0 1-1.01416-2.7832q-.54566-1.8457-1.11816-4.21289-.57276-2.36573-1.17041-5.12305-.5984-2.75684-1.09229-5.51367-.49438-2.75536-.91015-5.38281-.41676-2.62647-.624-4.81152a7.30678 7.30678 0 0 1 2.02832-1.24805 6.9033 6.9033 0 0 1 2.8086-.57227 5.70425 5.70425 0 0 1 3.251.8584 4.00728 4.00728 0 0 1 1.58643 2.88672q.8313 5.30566 1.37842 8.8418.54566 3.5376.88427 5.7998.33765 2.26172.49414 3.51074.156 1.248.312 1.97657h.25976q.468-2.08008.88428-3.84961.416-1.76661.8584-3.5625.44091-1.79443.91015-3.84864Q117.0576 137.18474 117.57785 134.53142zM172.19016 158.301a12.09715 12.09715 0 0 1-1.63818.31153 16.67576 16.67576 0 0 1-2.31446.15625 12.18 12.18 0 0 1-2.05468-.15625 3.48693 3.48693 0 0 1-1.53418-.624 2.99022 2.99022 0 0 1-.96241-1.27441 5.50226 5.50226 0 0 1-.33789-2.10645V143.06072a3.64391 3.64391 0 0 0-1.0664-2.99023 4.05474 4.05474 0 0 0-2.62647-.8584 7.36939 7.36939 0 0 0-1.97656.25976 5.70211 5.70211 0 0 0-1.5083.625V158.301a12.092 12.092 0 0 1-1.63867.31153 16.67059 16.67059 0 0 1-2.31446.15625 12.17006 12.17006 0 0 1-2.0542-.15625 3.48655 3.48655 0 0 1-1.53466-.624 2.99316 2.99316 0 0 1-.96192-1.27441 5.50139 5.50139 0 0 1-.33838-2.10645v-30.167q.572-.104 1.69043-.28613a14.08448 14.08448 0 0 1 2.2627-.18164 12.18645 12.18645 0 0 1 2.0542.15625 3.49377 3.49377 0 0 1 1.53467.624 3.00319 3.00319 0 0 1 .96191 1.27442 5.527 5.527 0 0 1 .33838 2.10644v5.09668a18.50583 18.50583 0 0 1 2.0542-.59765 12.7583 12.7583 0 0 1 3.043-.3379q5.14892 0 8.03564 2.57422 2.88648 2.5752 2.88672 7.67188zM188.053 132.29509a21.38926 21.38926 0 0 1 5.12354.57129 11.488 11.488 0 0 1 3.95263 1.74317 7.86332 7.86332 0 0 1 2.52247 2.96386 9.49584 9.49584 0 0 1 .88427 4.23926V153.464a3.22863 3.22863 0 0 1-.7539 2.21 7.53275 7.53275 0 0 1-1.79444 1.48242q-3.38159 2.02881-9.51855 2.02832a21.79443 21.79443 0 0 1-4.9668-.51953 11.78308 11.78308 0 0 1-3.79687-1.56055 7.15834 7.15834 0 0 1-2.44483-2.65332 7.846 7.846 0 0 1-.85791-3.74414 7.04315 7.04315 0 0 1 2.13233-5.51367q2.13207-1.92333 6.60546-2.39258l6.81348-.72851v-.36328a2.23077 2.23077 0 0 0-1.32617-2.15918 8.941 8.941 0 0 0-3.82275-.64942 17.69206 17.69206 0 0 0-3.84913.416 20.45876 20.45876 0 0 0-3.38085 1.04 3.59919 3.59919 0 0 1-1.144-1.43067 4.52045 4.52045 0 0 1-.46826-2.00195 3.33785 3.33785 0 0 1 .65039-2.15918 5.03254 5.03254 0 0 1 2.00244-1.37793 15.669 15.669 0 0 1 3.5625-.832A31.025 31.025 0 0 1 188.053 132.29509zm.416 20.44043a11.601 11.601 0 0 0 1.95068-.18261 4.73186 4.73186 0 0 0 1.58643-.49414v-4.16016l-3.74512.31152a5.78719 5.78719 0 0 0-2.39258.624 1.68175 1.68175 0 0 0-.936 1.56054 2.06613 2.06613 0 0 0 .80615 1.69043A4.404 4.404 0 0 0 188.469 152.73552zM214.78733 149.66716a2.138 2.138 0 0 0 .85791 1.92383 4.33479 4.33479 0 0 0 2.41845.57227 10.41975 10.41975 0 0 0 1.6128-.12988 8.99743 8.99743 0 0 0 1.45605-.33789 6.36384 6.36384 0 0 1 .80615 1.27441 3.86939 3.86939 0 0 1 .33838 1.69043 4.02216 4.02216 0 0 1-1.48242 3.22461q-1.48242 1.248-5.22754 1.24805-4.57691 0-7.04736-2.08106-2.47119-2.07861-2.4707-6.76074V128.02947q.572-.15528 1.63867-.33789a13.45571 13.45571 0 0 1 2.26221-.18164 6.65883 6.65883 0 0 1 3.563.80566q1.27368.80714 1.27442 3.40723V135.051h6.81347a8.94036 8.94036 0 0 1 .59815 1.43067 5.99925 5.99925 0 0 1 .28613 1.89844 3.61 3.61 0 0 1-.80615 2.627 2.916 2.916 0 0 1-2.15869.80566h-4.73291zM85.95334 205.714a15.55185 15.55185 0 0 1 1.04053-5.95605 11.37882 11.37882 0 0 1 2.88623-4.18653 11.86363 11.86363 0 0 1 4.31738-2.4707 17.095 17.095 0 0 1 5.33106-.80567 11.19656 11.19656 0 0 1 2.02832.18165 8.12135 8.12135 0 0 1 1.61279.44238v-8.42676a14.353 14.353 0 0 1 1.66406-.33789 14.89776 14.89776 0 0 1 2.34082-.18164 12.18637 12.18637 0 0 1 2.0542.15625 3.49367 3.49367 0 0 1 1.53467.624 2.82162 2.82162 0 0 1 .936 1.27442 5.93933 5.93933 0 0 1 .312 2.10644v24.65332a4.43892 4.43892 0 0 1-2.28858 3.90137 15.81987 15.81987 0 0 1-3.90087 1.74219 20.28962 20.28962 0 0 1-11.57276-.18262 12.302 12.302 0 0 1-4.5249-2.7041 11.61722 11.61722 0 0 1-2.80859-4.23926A15.29388 15.29388 0 0 1 85.95334 205.714zm14.77149-6.502a5.62511 5.62511 0 0 0-4.3169 1.6123 6.93572 6.93572 0 0 0-1.5083 4.88965 7.29776 7.29776 0 0 0 1.4043 4.86328 5.05015 5.05015 0 0 0 4.05664 1.6377 4.72008 4.72008 0 0 0 1.69043-.28614 3.84494 3.84494 0 0 0 1.17041-.64941V199.83611A4.768 4.768 0 0 0 100.72483 199.21209zM143.68674 205.714a15.67317 15.67317 0 0 1-.98828 5.74707 11.65018 11.65018 0 0 1-2.78271 4.23926 11.84783 11.84783 0 0 1-4.291 2.60058 16.59728 16.59728 0 0 1-5.56494.88379 15.72746 15.72746 0 0 1-5.56543-.93652 12.23528 12.23528 0 0 1-4.291-2.67773 11.95039 11.95039 0 0 1-2.78271-4.23926 16.31057 16.31057 0 0 1 0-11.18262 11.95039 11.95039 0 0 1 2.78271-4.23926 12.25143 12.25143 0 0 1 4.291-2.67871 15.74961 15.74961 0 0 1 5.56543-.93555 15.36094 15.36094 0 0 1 5.56494.96192 12.56767 12.56767 0 0 1 4.291 2.7041 11.9637 11.9637 0 0 1 2.78271 4.23926A14.87084 14.87084 0 0 1 143.68674 205.714zm-18.2041 0a8.22117 8.22117 0 0 0 1.22217 4.86328 3.96584 3.96584 0 0 0 3.40674 1.69043 3.81591 3.81591 0 0 0 3.355-1.7168 8.52433 8.52433 0 0 0 1.16992-4.83691 8.25357 8.25357 0 0 0-1.19629-4.81152 4.22559 4.22559 0 0 0-6.76123 0A8.24618 8.24618 0 0 0 125.48264 205.714zM162.3591 211.90349q-.57348-1.29932-1.22265-2.91308-.6504-1.61133-1.352-3.69239-.70239-2.08007-1.45655-4.75976-.75438-2.67774-1.58642-6.16309a6.745 6.745 0 0 1 4.62939-1.82031 5.56936 5.56936 0 0 1 3.01661.75391 4.63271 4.63271 0 0 1 1.76855 2.835l4.10889 14.30273h.208q.624-1.76659 1.22217-3.84863.59766-2.08008 1.17041-4.291.57129-2.21045 1.06641-4.4209.49365-2.21044.85791-4.34277a8.67373 8.67373 0 0 1 4.10889-.98828 5.418 5.418 0 0 1 3.01709.78027 2.98174 2.98174 0 0 1 1.1958 2.70411 17.09771 17.09771 0 0 1-.36377 3.251q-.36475 1.84717-.96241 3.92676-.59838 2.08153-1.40429 4.291-.80714 2.2119-1.69043 4.34277-.88478 2.13427-1.82031 4.03125-.936 1.8999-1.82032 3.40723a36.58084 36.58084 0 0 1-2.70459 4.16113 14.85722 14.85722 0 0 1-2.39258 2.52246 6.845 6.845 0 0 1-2.28857 1.24805 8.43011 8.43011 0 0 1-2.39258.33789 4.892 4.892 0 0 1-3.53711-1.29981 5.47 5.47 0 0 1-1.6123-3.38086q1.66406-1.30078 3.3291-2.88672a35.15677 35.15677 0 0 0 3.0166-3.251 4.88816 4.88816 0 0 1-1.89844-1.22266A12.012 12.012 0 0 1 162.3591 211.90349zM212.967 205.714a15.673 15.673 0 0 1-.98829 5.74707 11.65006 11.65006 0 0 1-2.78271 4.23926 11.84783 11.84783 0 0 1-4.291 2.60058 16.59728 16.59728 0 0 1-5.56494.88379 15.7275 15.7275 0 0 1-5.56543-.93652 12.23524 12.23524 0 0 1-4.291-2.67773 11.95042 11.95042 0 0 1-2.78272-4.23926 16.31057 16.31057 0 0 1 0-11.18262 11.95042 11.95042 0 0 1 2.78272-4.23926 12.25139 12.25139 0 0 1 4.291-2.67871 15.74965 15.74965 0 0 1 5.56543-.93555 15.36094 15.36094 0 0 1 5.56494.96192 12.56767 12.56767 0 0 1 4.291 2.7041 11.96357 11.96357 0 0 1 2.78271 4.23926A14.87064 14.87064 0 0 1 212.967 205.714zm-18.20411 0a8.22117 8.22117 0 0 0 1.22217 4.86328 3.96585 3.96585 0 0 0 3.40674 1.69043 3.8159 3.8159 0 0 0 3.355-1.7168 8.52433 8.52433 0 0 0 1.16992-4.83691 8.25349 8.25349 0 0 0-1.19629-4.81152 4.22559 4.22559 0 0 0-6.76123 0A8.24618 8.24618 0 0 0 194.76291 205.714zM217.28391 193.43865a12.04867 12.04867 0 0 1 1.63818-.31152 16.66062 16.66062 0 0 1 2.31494-.15625 12.18532 12.18532 0 0 1 2.0542.15625 3.49367 3.49367 0 0 1 1.53467.624 3.003 3.003 0 0 1 .96192 1.27441 5.52726 5.52726 0 0 1 .33837 2.10645v11.18262a3.859 3.859 0 0 0 1.04 3.042 4.44544 4.44544 0 0 0 3.01661.91113 7.485 7.485 0 0 0 1.95068-.209 6.60942 6.60942 0 0 0 1.17041-.416v-18.2041a12.033 12.033 0 0 1 1.63818-.31152 16.65355 16.65355 0 0 1 2.31446-.15625 12.19547 12.19547 0 0 1 2.05468.15625 3.49164 3.49164 0 0 1 1.53418.624 3.00789 3.00789 0 0 1 .96241 1.27441 5.5281 5.5281 0 0 1 .33789 2.10645v15.81152a4.24781 4.24781 0 0 1-2.18457 3.90039 14.293 14.293 0 0 1-4.34278 1.74317 23.84 23.84 0 0 1-5.4873.59765 20.25993 20.25993 0 0 1-5.1753-.624 11.54856 11.54856 0 0 1-4.083-1.92481 8.60044 8.60044 0 0 1-2.65284-3.35449 11.92034 11.92034 0 0 1-.936-4.96679zM160.53928 277.57244a5.57278 5.57278 0 0 1-1.97607 1.01465 10.00663 10.00663 0 0 1-2.96485.38965 10.33269 10.33269 0 0 1-3.69287-.59766 3.55776 3.55776 0 0 1-2.08056-1.69043 28.89616 28.89616 0 0 1-1.32618-3.95313q-.75439-2.70409-1.48242-5.92968-.72876-3.22413-1.37842-6.55371-.65112-3.32812-1.01416-5.877a6.745 6.745 0 0 1 4.62891-1.82031 5.162 5.162 0 0 1 2.99072.80566 3.78132 3.78132 0 0 1 1.43067 2.78321q.51928 3.95361.88379 6.52734.36327 2.5752.59814 4.21289.23438 1.63917.36426 2.49707.12963.85693.23388 1.37793h.2085q.156-.832.5459-2.41894.39037-1.585.91016-3.61426.51929-2.02881 1.09228-4.39551.572-2.36572 1.14453-4.707a10.971 10.971 0 0 1 2.0542-.88379 8.69821 8.69821 0 0 1 2.52246-.3125 7.73026 7.73026 0 0 1 3.1211.57227 2.79645 2.79645 0 0 1 1.66406 1.76855q.624 2.28956 1.19629 4.44727.572 2.15918 1.04052 4.00488.468 1.84716.832 3.27637.36327 1.43115.52 2.26269h.26025q.57129-4.00488 1.11816-8.32226.54639-4.31544 1.01416-8.79a7.07578 7.07578 0 0 1 1.97657-.832 8.569 8.569 0 0 1 2.08056-.25977 5.41514 5.41514 0 0 1 3.0166.78027 2.98088 2.98088 0 0 1 1.19629 2.70411 17.76423 17.76423 0 0 1-.26025 2.49707q-.26075 1.66552-.67578 3.74511-.41748 2.08008-.9624 4.36817-.54639 2.28954-1.09229 4.42187-.54639 2.13282-1.04 3.84863-.49512 1.71681-.8584 2.65235a5.63 5.63 0 0 1-2.23633 1.01465 12.86056 12.86056 0 0 1-3.22509.38965q-4.3689 0-5.14893-2.18458-.312-.936-.78027-2.36621-.468-1.42968-.98828-3.14648-.52076-1.7168-.98828-3.56348-.468-1.8457-.78028-3.5625-.364 1.82081-.88428 3.77051-.52 1.95117-1.06591 3.79688-.54639 1.84716-1.01416 3.38086Q160.79977 276.63689 160.53928 277.57244zM187.06467 246.05291a4.56834 4.56834 0 0 1 1.32617-3.32813 5.23327 5.23327 0 0 1 7.022 0 4.84041 4.84041 0 0 1 0 6.65723 5.23327 5.23327 0 0 1-7.022 0A4.569 4.569 0 0 1 187.06467 246.05291zm9.2583 32.248q-.57348.10254-1.69043.28614a14.10245 14.10245 0 0 1-2.26269.18164 12.16989 12.16989 0 0 1-2.0542-.15625 3.48664 3.48664 0 0 1-1.53467-.624 2.99307 2.99307 0 0 1-.96191-1.27441 5.5012 5.5012 0 0 1-.33838-2.10645V253.43865q.572-.10254 1.69043-.28613a14.08321 14.08321 0 0 1 2.26269-.18164 12.18532 12.18532 0 0 1 2.0542.15625 3.49129 3.49129 0 0 1 1.53467.624 3.003 3.003 0 0 1 .96191 1.27441 5.527 5.527 0 0 1 .33838 2.10645zM223.26535 270.81072a7.31824 7.31824 0 0 1-2.96484 6.18945q-2.96484 2.23536-8.73828 2.23633a24.71861 24.71861 0 0 1-4.05664-.31152 11.63543 11.63543 0 0 1-3.19873-.96192 5.7206 5.7206 0 0 1-2.08057-1.63867 3.744 3.744 0 0 1-.75439-2.34082 3.99174 3.99174 0 0 1 .52051-2.10644 5.26977 5.26977 0 0 1 1.248-1.43067 20.59124 20.59124 0 0 0 3.459 1.48242 14.18806 14.18806 0 0 0 4.499.65039 5.265 5.265 0 0 0 2.4707-.46777 1.40347 1.40347 0 0 0 .85791-1.249 1.30523 1.30523 0 0 0-.624-1.14356 5.796 5.796 0 0 0-2.08057-.67676l-1.56054-.31152a14.59815 14.59815 0 0 1-6.73535-2.7832 6.76794 6.76794 0 0 1-2.21045-5.43457 7.17708 7.17708 0 0 1 3.17285-6.08594 11.73716 11.73716 0 0 1 3.61474-1.6123 17.75935 17.75935 0 0 1 4.65479-.57227 21.71306 21.71306 0 0 1 3.61523.28613 11.83308 11.83308 0 0 1 2.93848.8584 5.31562 5.31562 0 0 1 1.97656 1.48242 3.3538 3.3538 0 0 1 .728 2.15821 4.44667 4.44667 0 0 1-.44189 2.05468 4.62955 4.62955 0 0 1-1.11817 1.43067 6.43228 6.43228 0 0 0-1.24853-.54688q-.83277-.28417-1.82032-.51953-.98877-.23437-2.00244-.39062a12.3023 12.3023 0 0 0-1.84668-.15528 7.13936 7.13936 0 0 0-2.65234.38965 1.293 1.293 0 0 0-.93652 1.22266 1.09771 1.09771 0 0 0 .5205.93554 5.94919 5.94919 0 0 0 1.97608.67676l1.6123.36426q4.99365 1.144 7.1001 3.14648A6.8208 6.8208 0 0 1 223.26535 270.81072zM252.49534 278.301a12.097 12.097 0 0 1-1.63819.31153 16.67562 16.67562 0 0 1-2.31445.15625 12.18024 12.18024 0 0 1-2.05469-.15625 3.487 3.487 0 0 1-1.53418-.624 2.99028 2.99028 0 0 1-.9624-1.27441 5.50207 5.50207 0 0 1-.33789-2.10645V263.06072a3.64391 3.64391 0 0 0-1.06641-2.99023 4.05471 4.05471 0 0 0-2.62646-.8584 7.36946 7.36946 0 0 0-1.97657.25976 5.70211 5.70211 0 0 0-1.5083.625V278.301a12.09138 12.09138 0 0 1-1.63867.31153 16.67045 16.67045 0 0 1-2.31445.15625 12.17006 12.17006 0 0 1-2.0542-.15625 3.48664 3.48664 0 0 1-1.53467-.624 2.99322 2.99322 0 0 1-.96191-1.27441 5.5012 5.5012 0 0 1-.33838-2.10645v-30.167q.572-.104 1.69043-.28613a14.08445 14.08445 0 0 1 2.26269-.18164 12.18637 12.18637 0 0 1 2.0542.15625 3.49367 3.49367 0 0 1 1.53467.624 3.00313 3.00313 0 0 1 .96192 1.27442 5.52716 5.52716 0 0 1 .33837 2.10644v5.09668a18.50715 18.50715 0 0 1 2.0542-.59765 12.75842 12.75842 0 0 1 3.043-.3379q5.14893 0 8.03565 2.57422 2.88646 2.5752 2.88672 7.67188zM117.47336 313.07439a10.44737 10.44737 0 0 1 .91016-4.55078 8.62989 8.62989 0 0 1 2.4707-3.12012 10.22273 10.22273 0 0 1 3.667-1.79492 17.12545 17.12545 0 0 1 4.499-.57226 12.10315 12.10315 0 0 1 5.66943 1.01464 3.63206 3.63206 0 0 1 1.82031 3.459 4.15294 4.15294 0 0 1-1.40429 3.12012q-.98877-.25929-2.05469-.44239a14.86191 14.86191 0 0 0-2.4707-.18164 6.76265 6.76265 0 0 0-3.48487.75391 2.81778 2.81778 0 0 0-1.248 2.627V315.051h8.52978a8.94036 8.94036 0 0 1 .59815 1.43067 5.98536 5.98536 0 0 1 .28613 1.89844 3.61 3.61 0 0 1-.80615 2.62695 2.91558 2.91558 0 0 1-2.15821.80566h-5.98144V338.301a12.092 12.092 0 0 1-1.63867.31153 16.67059 16.67059 0 0 1-2.31446.15625 12.17006 12.17006 0 0 1-2.0542-.15625 3.48655 3.48655 0 0 1-1.53466-.624 2.99316 2.99316 0 0 1-.96192-1.27441 5.50139 5.50139 0 0 1-.33838-2.10645zM164.75266 325.714a15.67317 15.67317 0 0 1-.98828 5.74707 11.65008 11.65008 0 0 1-2.78272 4.23926 11.84779 11.84779 0 0 1-4.291 2.60058 16.59728 16.59728 0 0 1-5.56494.88379 15.72746 15.72746 0 0 1-5.56543-.93652 12.23528 12.23528 0 0 1-4.291-2.67773 11.95039 11.95039 0 0 1-2.78271-4.23926 16.31057 16.31057 0 0 1 0-11.18262 11.95039 11.95039 0 0 1 2.78271-4.23926 12.25143 12.25143 0 0 1 4.291-2.67871 15.74961 15.74961 0 0 1 5.56543-.93555 15.36094 15.36094 0 0 1 5.56494.96192 12.56763 12.56763 0 0 1 4.291 2.7041 11.96359 11.96359 0 0 1 2.78272 4.23926A14.87084 14.87084 0 0 1 164.75266 325.714zm-18.2041 0a8.2211 8.2211 0 0 0 1.22217 4.86328 3.96583 3.96583 0 0 0 3.40673 1.69043 3.81588 3.81588 0 0 0 3.355-1.7168 8.52425 8.52425 0 0 0 1.16993-4.83691 8.25357 8.25357 0 0 0-1.19629-4.81152 4.22559 4.22559 0 0 0-6.76123 0A8.24618 8.24618 0 0 0 146.54856 325.714zM177.91184 338.301a12.10783 12.10783 0 0 1-1.63867.31153 16.67059 16.67059 0 0 1-2.31446.15625 12.18 12.18 0 0 1-2.05468-.15625 3.48693 3.48693 0 0 1-1.53418-.624 2.998 2.998 0 0 1-.96241-1.27441 5.51172 5.51172 0 0 1-.33789-2.10645V319.00408a4.43109 4.43109 0 0 1 .44239-2.05469 4.811 4.811 0 0 1 1.27392-1.53418 9.15835 9.15835 0 0 1 2.05469-1.22168 21.29886 21.29886 0 0 1 2.62647-.96289 22.29514 22.29514 0 0 1 2.91259-.65039 19.7369 19.7369 0 0 1 3.01709-.2334 7.10062 7.10062 0 0 1 3.95264.96192 3.49338 3.49338 0 0 1 1.45654 3.14648 5.02307 5.02307 0 0 1-.208 1.43066 6.552 6.552 0 0 1-.5205 1.27442q-1.092 0-2.23633.10351-1.14478.10548-2.23633.3125-1.09278.208-2.05469.44239a8.95253 8.95253 0 0 0-1.63818.5459zM194.81565 327.53435a4.68822 4.68822 0 0 1-1.66455-1.69043 5.24764 5.24764 0 0 1-.78028-2.88672 3.16718 3.16718 0 0 1 .8584-2.41894 5.628 5.628 0 0 1 2.52246-1.22168l4.05713-.98828q2.6001-.6753 2.60059-2.49707a2.118 2.118 0 0 0-.9624-1.71582 5.63433 5.63433 0 0 0-3.30274-.72852 14.2315 14.2315 0 0 0-4.00488.5459 11.84833 11.84833 0 0 0-3.0166 1.27441 6.45161 6.45161 0 0 1-1.5083-1.63867 4.157 4.157 0 0 1-.624-2.31445 3.77022 3.77022 0 0 1 .77979-2.36621 5.76162 5.76162 0 0 1 2.15869-1.66406 12.38128 12.38128 0 0 1 3.27685-.9629 25.90057 25.90057 0 0 1 4.187-.31152q6.13623 0 9.28418 2.73047a9.01693 9.01693 0 0 1 3.14648 7.15137q0 8.32325-11.75488 10.66308zm-1.71631 6.81348a4.64993 4.64993 0 1 1 1.32617 3.51074A4.85566 4.85566 0 0 1 193.09934 334.34783zM380.06427 95.04024a49.678 49.678 0 0 0 4.721 3.10551c.79045.47884 1.47567.89583 2.09711 1.26774 4.30485-8.05663 14.25011-24.6573 22.69433-23.804 8.49485.85926-4.83355 21.59114-11.6121 31.3392a5.60238 5.60238 0 0 0 .81034 3.12559c1.24625 2.04765 2.6994 1.6512 3.96661 3.20564 18.50373-12.79719 34.64587-52.01029 12.78253-51.18445C396.56118 62.811 384.35465 85.54022 380.06427 95.04024z"/><path fill="#ece4f6" d="M256.83567,179.5453c1.42056,2.20127.67481,3.35056,1.47251,5.90184,1.83726,5.876,8.58971,8.7237,11.83742,10.09334,3.06776,1.29376,7.29765,3.07763,12.20006,2.03925,3.31137-.70138,4.25013-2.12288,8.81312-2.70719a14.42371,14.42371,0,0,1,7.05725.44191c2.455.88011,2.7076,1.92224,5.30137,3.591,1.20465.77506,6.073,3.90729,11.28248,3.11538,1.77917-.27047,3.76511-1.38857,7.737-3.62477,4.60943-2.59516,4.895-3.42689,6.74014-3.54549,2.9598-.19026,3.44847,1.87122,8.29192,3.3532,2.26137.69192,5.85864,1.79258,9.051.28337,2.5826-1.221,2.00715-2.78232,4.66716-4.3838,3.15743-1.90094,6.82044-1.41825,10.96538-.872,3.18518.41974,3.193.87237,7.13652,1.43877,4.14137.59482,6.212.89224,8.0541.36264,4.13029-1.18748,6.61075-4.95117,8.41674-7.69145,2.20835-3.35081,1.544-3.9562,3.51175-6.29822,2.6839-3.19428,4.40313-2.64332,7.57844-5.61848,1.39732-1.30921,5.24724-4.91647,5.26763-9.44733.00888-1.97174-.71754-1.88421-3.78332-9.7307-1.70878-4.37347-1.93386-5.55431-1.55178-6.89869.753-2.64945,2.93491-2.66484,3.591-5.30137.48419-1.94558-.54954-2.55781-1.55179-6.89869-.83951-3.6361-1.31559-5.698-.63421-7.97482.93084-3.1105,2.87909-2.80361,4.50861-6.3775.2485-.545,2.47335-5.59315.28337-9.05095-1.33865-2.11363-2.939-1.44166-4.30452-3.67031-1.73958-2.8391.13771-5.10436-1.55179-6.89869-1.25373-1.33153-2.49637-.3059-6.13966-1.51805-1.12549-.37445-2.84974-1.42021-6.29823-3.51175-4.063-2.46425-4.90208-3.217-5.30136-3.591-2.39519-2.24367-1.82462-2.90482-3.30767-3.74958-2.46229-1.40256-5.61559-.48033-9.96852.79276-1.62327.47475-1.32278.50413-3.90814,1.314-4.154,1.30119-6.26427,1.94536-7.89554,1.63106-.46993-.09055-1.34051-.3127-5.30137-3.591-5.1516-4.26389-4.67125-4.70945-6.45678-5.50546-2.82793-1.26073-5.62248-.85174-10.0478-.20409-1.54734.22645-3.3311.66823-6.89869,1.55179-6.6628,1.65012-7.26686,2.09528-8.8924,1.71034-1.89258-.44819-3.38754-1.80167-6.3775-4.50861-3.5388-3.20385-3.71734-4.38889-5.38064-4.58788-1.882-.22516-3.54522,1.06574-6.74014,3.54549-1.817,1.41027-1.98908,1.79949-3.74958,3.30766-4.0943,3.50744-6.47921,5.55052-9.57215,5.777-3.37381.24707-3.8897-1.9383-7.13652-1.43878-3.03718.46728-5.07872,2.76311-6.66086,4.54235-2.57933,2.90063-2.27562,4.11775-4.42933,7.37435-1.37544,2.07976-5.71038,8.63459-11.328,8.92613-3.898.20231-5.90428-2.7413-8.13337-1.35949-.70593.4376-1.345,2.03839-2.59418,5.22209-1.10712,2.82154-1.65941,4.25052-1.59732,5.14282.21974,3.15833,3.03969,4.31732,2.46936,5.82256-.56675,1.4958-3.38553.44134-5.82256,2.46936a8.11432,8.11432,0,0,0-2.43563,7.2158c.18377,1.181.91921,2.39589,2.39009,4.82571a22.97291,22.97291,0,0,0,3.38694,4.74644c2.4821,2.518,3.66528,2.09275,4.30451,3.6703.69011,1.70308-.50162,2.66084-1.43877,7.13652-.66264,3.16468-.994,4.747-.52119,6.0604,1.28212,3.56171,5.71332,3.21025,6.536,6.50231.53892,2.15643-1.22445,2.85933-.60048,5.06354C252.11889,176.58579,254.88424,176.52139,256.83567,179.5453Z"/><path fill="#d64142" d="M375.15906,324.18062c-4.22276-18.4809-11.58981-66.791,6.1434-131.3995a10.56129,10.56129,0,0,1-3.93659,2.18327c-1.84172.53075-3.91259.23464-8.05433-.35759-3.94384-.564-3.95195-1.01659-7.13742-1.4343-4.14525-.54363-7.80857-1.024-10.96483.87892-2.659,1.60314-2.08258,3.16412-4.66441,4.38671-3.19133,1.51123-6.78932.41282-9.05112-.27769-4.84435-1.47892-5.33434-3.54011-8.294-3.348-1.84509.11973-2.13011.95168-6.73792,3.54972-3.97047,2.23871-5.95569,3.358-7.73472,3.62962-5.209.79515-10.07931-2.334-11.28443-3.1083-2.59482-1.6672-2.84807-2.70914-5.30362-3.58771a14.42355,14.42355,0,0,0-7.05752-.43749c-4.56265.58714-5.50048,2.00927-8.81142,2.71272-4.90176,1.04147-9.13274-.73975-12.20134-2.0316a37.198,37.198,0,0,1-5.73611-2.88133c1.08064,12.2898,9.54861,119.48663-21.974,139.0307-29.00592,17.98369-61.19021,33.95912-80.5619,59.72714a40.43137,40.43137,0,0,0-6.6694,36.13763c3.814,12.30026,14.2488,24.37088,41.02043,22.08074a78.16635,78.16635,0,0,0,23.86121-6.06277c14.60381-6.20434,45.706-19.41785,64.31793-27.325a305.31861,305.31861,0,0,1,30.51882-11.08955l3.04969-.92779c6.33-1.92588,12.72879-3.61264,19.16277-5.1562,16.54628-3.96952,58.17419-18.59478,41.71122-63.0923A95.14256,95.14256,0,0,1,375.15906,324.18062Z"/><path fill="#ece4f6" d="M317.38131 404.39314l.4606-.137c6.32789-1.91768 12.73461-3.60088 19.1632-5.13534 16.5478-3.96433 58.19165-18.56164 41.75158-63.06841a95.958 95.958 0 0 1-3.59694-11.802 194.32383 194.32383 0 0 1-3.46718-20.6401C316.25829 337.04019 313.16929 379.55889 317.38131 404.39314zM226.12921 440.9122c-2.29.9746-4.37689 1.85281-6.201 2.62987a78.32519 78.32519 0 0 1-23.86541 6.051c-26.77434 2.26971-37.19494-9.81221-41.00178-22.10912a40.44226 40.44226 0 0 1 6.6865-36.1338c10.21616-13.57262 23.99886-24.42943 38.9944-34.28925C222.2995 373.83469 249.46108 404.43774 226.12921 440.9122z"/><path fill="#d8d2d0" d="M288.33862 172.02441a32.37554 32.37554 0 0 1 .57874-6.11962 28.99349 28.99349 0 0 1 .7666-2.99854 7.14253 7.14253 0 0 1 .6344-1.47559 3.2635 3.2635 0 0 1 1.2218-1.18554 3.38 3.38 0 0 1 1.66846-.38379c.546.00146 1.04773.064 1.54516.08252a12.16416 12.16416 0 0 0 2.94068-.23194 9.31911 9.31911 0 0 0 2.73755-.96435 4.33063 4.33063 0 0 0 1.89026-1.91065 12.982 12.982 0 0 0 .40649-2.87841 29.93377 29.93377 0 0 1 .479-3.07276c.2107-1.00586.42078-2.0039.68933-3.01318a7.41682 7.41682 0 0 1 1.34534-2.91162 5.24994 5.24994 0 0 1 2.7478-1.69532 16.82772 16.82772 0 0 1 3.09278-.38134 17.198 17.198 0 0 1 6.0968.76416 18.472 18.472 0 0 0-6.05408-.27588 16.94647 16.94647 0 0 0-2.962.50049 4.54223 4.54223 0 0 0-2.31983 1.56787 7.4988 7.4988 0 0 0-1.11084 2.65234c-.24292.96924-.43957 1.97363-.63257 2.96973a29.06159 29.06159 0 0 0-.42041 2.98584 12.775 12.775 0 0 1-.43444 3.16894 5.2484 5.2484 0 0 1-2.34986 2.3628 10.222 10.222 0 0 1-3.03161 1.02343 13.05568 13.05568 0 0 1-3.15638.20166 5.74575 5.74575 0 0 0-2.81079.11719 3.56885 3.56885 0 0 0-1.61914 2.19043c-.34619.94092-.63183 1.91992-.88537 2.89942A38.05393 38.05393 0 0 0 288.33862 172.02441zM356.51587 140.01855a9.60339 9.60339 0 0 0 4.62756.41553 8.86444 8.86444 0 0 0 4.19092-1.73828 7.66529 7.66529 0 0 0 2.54053-8.03809 4.791 4.791 0 0 0-1.05445-1.855 6.02679 6.02679 0 0 0-1.81372-1.23437 7.8101 7.8101 0 0 1-1.09314-.63574 2.4021 2.4021 0 0 1-.94775-2.53809 4.54386 4.54386 0 0 1 .50281-1.19678 36.60488 36.60488 0 0 1 6.17663-7.29589c-1.028 1.21-2.02942 2.4331-2.92822 3.73046a38.39186 38.39186 0 0 0-2.56946 3.92725 2.34766 2.34766 0 0 0-.28235 1.93506c.20435.57324.838.88623 1.56141 1.2251a6.74 6.74 0 0 1 2.10131 1.40918 5.74905 5.74905 0 0 1 1.29944 2.22607 8.25644 8.25644 0 0 1-3.03576 8.95508 9.4067 9.4067 0 0 1-4.591 1.60791A9.16275 9.16275 0 0 1 356.51587 140.01855zM316.14172 231.50732c.58216 4.71875 1.05494 9.44629 1.51123 14.17481.45874 4.72851.82776 9.46435 1.246 14.1958.33752 4.73828.718 9.47314 1.01525 14.21436l.42579 7.11376c.10546 2.374.24524 4.74512.32043 7.12207-.30127-2.35888-.53809-4.72265-.8092-7.08349l-.70386-7.09131c-.45593-4.729-.82861-9.46436-1.24414-14.19629-.33484-4.73828-.719-9.47265-1.01343-14.21435C316.5929 241.00146 316.31262 236.25879 316.14172 231.50732z"/><path fill="#d8d2d0" d="M346.8114,257.6582c-4.71875.582-9.44617,1.05518-14.1748,1.51123-4.72852.459-9.46424.82764-14.19593,1.2461-4.73816.3374-9.4729.71777-14.21423,1.01513l-7.11365.42579c-2.37414.10546-4.74548.24511-7.12207.32031,2.35852-.30127,4.72229-.53809,7.08313-.80908l7.09156-.70362c4.72876-.45605,9.46411-.82861,14.196-1.24414,4.7384-.335,9.47278-.71924,14.21436-1.01367C337.31726,258.10938,342.05994,257.8291,346.8114,257.6582Z"/><path fill="#d8d2d0" d="M340.08777,278.40918c-3.74829-2.92529-7.42542-5.93359-11.0918-8.95459-3.66785-3.019-7.27734-6.10693-10.91894-9.15674-3.58911-3.11181-7.20618-6.19092-10.76892-9.33349l-5.33118-4.729c-1.7533-1.604-3.52893-3.18213-5.26257-4.80908,1.88073,1.45459,3.7196,2.9585,5.58068,4.436l5.51221,4.51709c3.66614,3.021,7.278,6.106,10.91785,9.15821,3.58728,3.11377,7.20666,6.18994,10.7677,9.33447C333.05542,272.01465,336.60718,275.17041,340.08777,278.40918Z"/><path fill="#d8d2d0" d="M299.90955 281.60449c2.925-3.74853 5.93335-7.42578 8.95446-11.09179 3.01917-3.668 6.10694-7.27735 9.157-10.91895 3.11169-3.58936 6.19055-7.20654 9.33313-10.769l4.729-5.33106c1.60425-1.75342 3.18213-3.52929 4.80945-5.26269-1.45471 1.88086-2.95862 3.71972-4.4364 5.58056l-4.51673 5.51221c-3.02124 3.666-6.1062 7.27783-9.15832 10.918-3.11377 3.5874-6.18994 7.20654-9.33447 10.76758C306.30383 274.57178 303.14844 278.12354 299.90955 281.60449zM313.38159 288.90674a86.64851 86.64851 0 0 1 6.38721-7.54688.49942.49942 0 0 1 .67078-.05322 85.57931 85.57931 0 0 1 7.49975 6.44238 85.54223 85.54223 0 0 1-8.11182-5.65234l.67054-.05322A86.61362 86.61362 0 0 1 313.38159 288.90674zM323.58374 231.53467a86.67911 86.67911 0 0 1-6.654 7.3125.49976.49976 0 0 1-.67237.02929 85.60482 85.60482 0 0 1-7.26355-6.70751 85.49856 85.49856 0 0 1 7.90369 5.93994l-.672.02929A86.51925 86.51925 0 0 1 323.58374 231.53467z"/><path fill="#d8d2d0" d="M327.33008 277.19189l-.08374-9.87451a.11932.11932 0 0 1 .1073-.1167l9.82324-1.0083-.18884.34082-.28675-.54931.04432.061-7.00708-6.957a.31563.31563 0 0 1-.01832-.42041l6.27283-7.626.17285.602-.59021-.189.11756.019-9.87427.01416a.433.433 0 0 1-.42761-.39209l-.91272-9.832.65539.36328-.55224.28125.11462-.083-6.9906 6.97363a.47885.47885 0 0 1-.6405.02783L309.46777 242.52l.51172.07617-.59118.25049.30542-.47656.29968 9.86963a.48152.48152 0 0 1-.41821.49023l-9.79822 1.22168.36584-.28223-.23767.58643-.111-.50147L306.984 260.522a.43589.43589 0 0 1 .04626.58155l-6.08215 7.77832.05029-.39014.24414.584-.36609-.23339 9.8711-.25391a.32122.32122 0 0 1 .3258.27783l1.17725 9.80371-.1554-.20117.58484.24268-.26965.05957 6.83826-7.124a.12766.12766 0 0 1 .16931-.01318l7.733 6.14062-.01147.00391zm0 0l-.17639.59082-.00928.00489-.00244-.00147-7.8783-5.95361.16883-.01318-6.66517 7.28613a.24091.24091 0 0 1-.2644.062l-.00562-.00244-.58972-.23a.25513.25513 0 0 1-.15551-.20166l-1.30945-9.78711.32556.27734-9.86682.38721a.38062.38062 0 0 1-.364-.228l-.00232-.00586-.25207-.58056a.39215.39215 0 0 1 .05029-.39063l6.01245-7.83252.04615.58057-7.22-6.73535a.45828.45828 0 0 1-.11109-.50244l.23511-.58741a.45871.45871 0 0 1 .36609-.28271l9.79272-1.26514-.418.49024-.34131-9.86866a.49986.49986 0 0 1 .30567-.47656l.59241-.24756a.50018.50018 0 0 1 .51208.07666l7.56946 6.34033-.64026.02784 7.02161-6.94239a.49482.49482 0 0 1 .115-.083l.55346-.27881a.45259.45259 0 0 1 .60816.19775.47256.47256 0 0 1 .04748.16553l.869 9.83594-.42749-.39209 9.8739.08252a.3935.3935 0 0 1 .11792.019l.58777.19678.00476.00146a.37692.37692 0 0 1 .16821.60059l-6.37463 7.541-.01819-.41992 6.90869 7.05518a.25906.25906 0 0 1 .04444.06152l.27356.55615.00244.00489a.23422.23422 0 0 1-.19153.33642l-9.84448.77344.10718-.1167zM289.5144 254.87891a86.63567 86.63567 0 0 1 7.54676 6.3872.49962.49962 0 0 1 .05334.6709 85.563 85.563 0 0 1-6.44238 7.49951 85.69534 85.69534 0 0 1 5.65234-8.11181l.05335.6709A86.62075 86.62075 0 0 1 289.5144 254.87891zM346.8866 265.08105a86.61575 86.61575 0 0 1-7.3125-6.6538.49953.49953 0 0 1-.0293-.67237 85.54864 85.54864 0 0 1 6.70752-7.26367 85.60017 85.60017 0 0 1-5.93994 7.90381l-.02918-.67236A86.6768 86.6768 0 0 1 346.8866 265.08105zM301.58521 235.898a86.57012 86.57012 0 0 1 .81994 9.853.49929.49929 0 0 1-.43664.51172 85.59991 85.59991 0 0 1-9.85852.748 85.49487 85.49487 0 0 1 9.73266-1.73926l-.4364.51172A86.60016 86.60016 0 0 1 301.58521 235.898zM334.93945 283.68018a86.58717 86.58717 0 0 1-.46557-9.87549.49925.49925 0 0 1 .45471-.4961 85.60335 85.60335 0 0 1 9.879-.39355 85.60058 85.60058 0 0 1-9.78882 1.38867l.45447-.4956A86.59009 86.59009 0 0 1 334.93945 283.68018z"/><path fill="#d8d2d0" d="M301.58521 235.898a86.57012 86.57012 0 0 1 .81994 9.853.49929.49929 0 0 1-.43664.51172 85.59991 85.59991 0 0 1-9.85852.748 85.49487 85.49487 0 0 1 9.73266-1.73926l-.4364.51172A86.60016 86.60016 0 0 1 301.58521 235.898zM334.93945 283.68018a86.58717 86.58717 0 0 1-.46557-9.87549.49925.49925 0 0 1 .45471-.4961 85.60335 85.60335 0 0 1 9.879-.39355 85.60058 85.60058 0 0 1-9.78882 1.38867l.45447-.4956A86.59009 86.59009 0 0 1 334.93945 283.68018zM342.32056 242.916a86.46085 86.46085 0 0 1-9.85279.81982.49927.49927 0 0 1-.51208-.43652 85.59936 85.59936 0 0 1-.74768-9.8584 85.57485 85.57485 0 0 1 1.73913 9.73242l-.51184-.436A86.57207 86.57207 0 0 1 342.32056 242.916zM294.53821 276.27051a86.6184 86.6184 0 0 1 9.876-.46582.49912.49912 0 0 1 .496.45459 85.57812 85.57812 0 0 1 .39318 9.87939 85.61633 85.61633 0 0 1-1.38855-9.78906l.49585.45459A86.62061 86.62061 0 0 1 294.53821 276.27051zM220.49194 391.09229a24.21985 24.21985 0 0 1 6.73-4.354 16.10332 16.10332 0 0 1 3.886-1.17773 6.92285 6.92285 0 0 1 4.01965.355 9.65129 9.65129 0 0 0-3.85681.4082 26.53368 26.53368 0 0 0-3.65283 1.332C225.21716 388.68408 222.89685 389.9165 220.49194 391.09229zM223.79956 394.8418a20.781 20.781 0 0 1 6.18713-4.33985 13.666 13.666 0 0 1 3.66236-1.14453 6.49454 6.49454 0 0 1 3.78943.38721 9.26948 9.26948 0 0 0-3.62757.376 21.58409 21.58409 0 0 0-3.40954 1.291c-1.11646.50147-2.21253 1.064-3.30518 1.64746zM330.65723 325.17871a24.23217 24.23217 0 0 1 6.60681 4.53906 16.09734 16.09734 0 0 1 2.58093 3.13477 6.92057 6.92057 0 0 1 1.21741 3.84717 9.65116 9.65116 0 0 0-1.85938-3.40332 26.57967 26.57967 0 0 0-2.63379-2.86035C334.69678 328.61523 332.66711 326.94727 330.65723 325.17871zM328.46741 329.67383a20.76865 20.76865 0 0 1 6.38464 4.04346 13.664 13.664 0 0 1 2.465 2.94042 6.50005 6.50005 0 0 1 1.09912 3.64747 9.27124 9.27124 0 0 0-1.74158-3.20411 21.57635 21.57635 0 0 0-2.50256-2.65136c-.89209-.83789-1.833-1.6333-2.79138-2.418z"/></svg>