<svg xmlns="http://www.w3.org/2000/svg" data-name="Layer 1" viewBox="0 0 512 512"><path fill="#fff" d="M422.00416,351.71418a58.42885,58.42885,0,0,0,15.00315-1.93468c21.85154-5.808,36.07271-24.55615,35.38743-46.652-.73142-23.60205-10.08943-43.346-27.06978-57.12623-.07422-.06419-.14684-.12518-.21585-.183-.04654-.03852-.09309-.07624-.14043-.11475-.061-.04975-.122-.0987-.18376-.14685-.03892-.0321-.07824-.06339-.11635-.09469q-.13542-.10833-.27243-.21344a102.36218,102.36218,0,0,0-15.08379-9.82664l1.03434-7.47148c.079-.57053.14363-1.1515.19258-1.72925.006-.06419.01124-.12919.01645-.19339.22549-2.85667.47986-5.71013.73423-8.5652l.012-.134c.94086-10.54882,1.91341-21.45634,1.69916-33.14944-.02809-1.54308-.03932-3.08617-.05056-4.62925l-.0016-.20141c-.057-7.89838-.12679-17.48268-2.17942-27.72658a569.87618,569.87618,0,0,0,51.76275-25.75739A32.692,32.692,0,0,0,499.1279,94.15224,32.87148,32.87148,0,0,0,450.201,61.02687a498.99349,498.99349,0,0,1-55.68545,27.388q-.08065-.04815-.16169-.09629c-8.19889-8.75378-20.154-13.03879-32.78112-11.56632-12.29734,1.438-21.88805,6.41949-28.50735,14.80495a38.21377,38.21377,0,0,0-8.11183,22.41926,362.53867,362.53867,0,0,1-35.7409,8.49459,37.10151,37.10151,0,0,0-3.51869-2.72106q-.43331-.57294-.88589-1.12261c-9.27054-11.26138-21.53016-12.76756-27.42927-13.49135-21.00256-2.56941-38.25293,8.50742-44.05134,27.45214-7.1148.63874-14.01093,1.12742-20.76343,1.47086a35.81027,35.81027,0,0,0-8.30321-12.51961,36.845,36.845,0,0,0-9.29582-10.44531,37.47891,37.47891,0,0,0-31.0294-6.53423c-.12278.02086-.25718.04253-.37554.06178a43.77049,43.77049,0,0,0-16.99239,6.08247,38.57788,38.57788,0,0,0-16.342,22.03088,348.77943,348.77943,0,0,1-46.03857-9.23844q-2.98266-.7884-5.97133-1.55914-2.21773-.57534-4.43948-1.15711a32.871,32.871,0,0,0-41.05584,34.93727,32.96579,32.96579,0,0,0,23.71921,35.10818c14.37083,4.07477,29.28531,7.59827,44.44413,10.50309-.08065,1.35612-.10633,2.61032-.11234,3.79311-.09068.40443-.17574.8209-.25638,1.255l-.01806.0971-.07623.43813c-.13842.81688-.24073,1.576-.31255,2.31744-.008.077-.01524.15326-.02166.22949-.061.68528-.09911,1.3842-.116,2.112-.008.19339-.01284.386-.01444.56091-.075,9.56423-.67926,19.70542-1.90057,31.89282a64.91977,64.91977,0,0,1-2.1421,8.97846l-7.234,16.90171c-.10993.25758-.21344.51677-.31977.79361-.0674.16931-.1344.33943-.20743.532-.31094.8241-.56852,1.588-.79842,2.37119l-.0341.11957c-.01966.0674-.03932.13481-.05818.20141-.254.90194-.56291,1.87369-.89191,2.91846a88.36052,88.36052,0,0,0-3.35217,13.314c-5.02526,32.02041,8.90985,50.56792,21.48442,60.48764,1.56716,1.23655,3.13813,2.35755,4.70228,3.38587a16.42519,16.42519,0,0,0-10.008,15.11028v40.28711a25.17124,25.17124,0,0,0,1.50337,8.97364,20.57548,20.57548,0,0,0,6.89493,9.281,21.7966,21.7966,0,0,0,8.90343,3.92792,31.90575,31.90575,0,0,0,6.30474.58417,44.59425,44.59425,0,0,0,5.62869-.36109,35.27935,35.27935,0,0,0,4.86517-.90114,16.401,16.401,0,0,0,4.3492-1.89054,22.19934,22.19934,0,0,0,6.856,2.5694,31.96418,31.96418,0,0,0,6.30353.58337,44.58309,44.58309,0,0,0,5.62829-.36109,35.1795,35.1795,0,0,0,4.86838-.90194,16.38583,16.38583,0,0,0,6.15669-3.20132,39.16962,39.16962,0,0,0,5.94084,2.79128,43.94661,43.94661,0,0,0,15.32733,2.66569,44.54665,44.54665,0,0,0,15.209-2.58385,38.1223,38.1223,0,0,0,13.41353-8.25064,36.027,36.027,0,0,0,3.53473-3.92512,20.57115,20.57115,0,0,0,6.8841,9.2549,21.7966,21.7966,0,0,0,8.90343,3.92792,31.90575,31.90575,0,0,0,6.30474.58417,44.59425,44.59425,0,0,0,5.62869-.36109,35.27964,35.27964,0,0,0,4.86517-.90114,16.401,16.401,0,0,0,4.3492-1.89054,22.19937,22.19937,0,0,0,6.856,2.5694,31.96435,31.96435,0,0,0,6.30354.58337,44.58309,44.58309,0,0,0,5.62829-.36109,35.1795,35.1795,0,0,0,4.86838-.90194,16.38583,16.38583,0,0,0,6.15669-3.20132,39.16962,39.16962,0,0,0,5.94084,2.79128,43.94661,43.94661,0,0,0,15.32733,2.66569,44.54665,44.54665,0,0,0,15.209-2.58385A38.12226,38.12226,0,0,0,317.523,422.351a36.02713,36.02713,0,0,0,3.53474-3.92512,20.57115,20.57115,0,0,0,6.8841,9.2549,21.7966,21.7966,0,0,0,8.90343,3.92792,31.90568,31.90568,0,0,0,6.30474.58417,44.59409,44.59409,0,0,0,5.62868-.36109,35.27906,35.27906,0,0,0,4.86517-.90114,16.40117,16.40117,0,0,0,4.34921-1.89054,22.19928,22.19928,0,0,0,6.856,2.5694,31.96421,31.96421,0,0,0,6.30354.58337,44.58321,44.58321,0,0,0,5.62829-.36109,35.1795,35.1795,0,0,0,4.86838-.90194,16.3859,16.3859,0,0,0,6.15669-3.20132,39.17,39.17,0,0,0,5.94083,2.79128,43.94671,43.94671,0,0,0,15.32734,2.66569,44.54669,44.54669,0,0,0,15.209-2.58385,37.32115,37.32115,0,0,0,22.42408-21.79336,44.924,44.924,0,0,0,2.98867-16.62648,44.11569,44.11569,0,0,0-3.091-16.74764,38.0011,38.0011,0,0,0-9.09281-13.41112l-.00441-.004a38.57577,38.57577,0,0,0-13.29837-8.16479"/><path fill="#3d3351" d="M45.43887,152.57376c3.4505.905,6.90733,1.79,10.355,2.70077,27.81657,7.34843,55.95393,12.52,84.88692,12.03375,2.6804,5.38971,1.28187,8.06276-4.48234,8.14049-5.61994.07582-11.15673-1.03794-16.73637-1.563-8.11866-2.06692-16.53054-1.98641-24.74661-3.4323a495.29275,495.29275,0,0,1-49.31062-11.24866"/><path fill="#d64142" d="M347.52377 216.67741c-2.13774-11.15248-4.20774-22.3185-6.4369-33.45267a76.5137 76.5137 0 0 1-1.3319-22.459c1.65636-1.59 3.34488-.50078 4.95541.02573 16.38556 5.35639 32.12375 3.61534 47.34755-4.18023 1.79371-.91849 3.38849-2.67086 5.75793-1.69389 2.59468 9.81369 2.14028 19.85393 2.32322 29.862.23685 12.957-1.33185 25.788-2.34942 38.65967-.89439 1.36235-2.24089.86194-3.48214.86975-5.25782.0331-7.7402 2.082-7.73931 6.352.00085 4.33684 1.76582 5.80334 7.1944 5.9445.808.021 1.60455-.01344 2.0933.80207-.23913 2.54486-.57934 5.08509-.69688 7.63554-.268 5.81546 2.19956 10.11192 7.22834 13.10881 7.2757 4.336 15.19141 7.60362 21.81521 13.02886.28567 2.01937-1.30962 2.78562-2.54877 3.74786-11.57489 8.98835-17.57174 20.73434-17.6764 35.45246-.01317 1.85316.4759 3.96108-1.53317 5.28171-7.06506-1.20416-14.19024-.48564-21.28727-.65309a65.23886 65.23886 0 0 1-19.99438-3.1488c-.20941-4.43061 2.21261-8.24206 2.87366-12.53322 1.91859-12.454-1.94574-22.84392-10.094-31.98353-3.31877-3.72257-7.35751-6.76159-10.33412-10.81448 1.04778-6.755 3.79357-13.17939 3.91549-20.11456.345-3.13888.28123-6.13 5.10573-6.06847 3.19661.04083 4.86828-2.94575 4.97279-6.13855.11023-3.36578-2.26072-4.68688-5.13776-5.39524C350.70253 218.37875 348.4236 219.11335 347.52377 216.67741zM223.318 288.53528q3.36543-13.0501 6.73084-26.10025c3.18211-6.94 6.04622-7.537 11.41311-2.37586.5807.55844 1.12524 1.15528 1.71795 1.70007 1.53712 1.41285 2.73581 3.94894 4.59206 4.07625 2.62232.17977 1.92126-3.127 2.99476-4.74231 2.61342-3.93236 5.50118-4.35553 9.1368-.98874 4.09437 3.79162 4.0944 3.79165 6.95119-.643 4.793-7.44029 8.84665-7.443 13.67585-.00924.11813 8.88938 3.45736 16.01791 10.79778 21.4001A64.529 64.529 0 0 1 305.52842 294.382c-2.6541 3.50126-6.7768 2.6393-10.262 3.05643-3.843.46-6.01044 1.41054-5.72708 5.7637.27271 4.18964-2.035 6.59339-6.15744 7.30359a22.19135 22.19135 0 0 1-4.29054.69457c-3.69157-.101-4.95077 1.57634-5.08669 5.26057-.28268 7.66115-3.32836 9.87678-11.03842 8.17849-3.26527-.71926-4.53326.0596-4.39109 3.40279a33.46865 33.46865 0 0 1-.18433 7.24305c-.28167 1.59384-.27075 3.88316-3.10794 2.83577-4.51562-2.045-9.54048-2.88482-13.69414-5.78644-2.47726-1.71528-2.1753-4.1508-1.48908-6.51242 4.12692-14.20243-1.00359-24.73468-12.80109-32.67741C225.55484 291.97067 223.84382 290.76338 223.318 288.53528zM98.89835 282.83316q3.96146-9.25646 7.92291-18.51287c1.74751-1.36353 3.63123-.91407 5.5181-.41343 13.81047 3.66446 27.74079 5.17729 41.9301 2.44058 2.04774-.39495 4.17658-.69075 5.85521 1.10948-.51269 6.778 2.24157 12.0414 7.28237 16.41916A140.60971 140.60971 0 0 0 181.661 294.42937c.385 2.16036-1.20808 3.19564-2.5396 4.31275-11.48081 9.63244-19.24121 21.52894-22.546 36.27691-.48184 2.15026-.012 5.67471-4.1141 5.25571q-15.48693-3.53092-30.9739-7.06179c-2.036-.95224-1.9281-2.67252-1.73368-4.52574 1.78737-17.03744-5.18332-30.22653-17.99676-40.84454C100.19446 286.54792 98.11638 285.49058 98.89835 282.83316z"/><path fill="#ece4f6" d="M280.53054 259.45218c-8.70247-6.50368-8.73871-6.52379-14.41184 3.69776-1.3007 2.34356-2.00226 4.59614-4.54321.76388-1.55588-2.34652-2.948-6.05388-6.80306-5.07372-3.5295.89737-3.64552 4.50738-4.46265 7.40887-.25725.91345-.65785 1.78652-1.06087 2.8591-2.654-2.616-5.14879-5.0922-7.66241-7.54918-5.58066-5.455-6.98177-5.34471-11.53771.87614 2.53256-12.15233 1.93915-24.47091 1.89384-36.75473a33.13193 33.13193 0 0 0-.81776-5.1676c1.07158-1.62894 1.23284-3.64595 2.32392-5.28519 2.05122-3.08172 3.71142-3.26373 5.91354-.314 1.63453 2.18939 2.78671 4.73071 4.55236 6.83182 2.65313 3.15718 4.72974 2.83207 6.4698-.90652 3.77532-8.11142 3.77533-8.11143 9.63711-.96446 3.87335 4.72259 5.96538 4.39082 8.43527-1.35594.50876-1.18369.94622-2.39622 1.53578-3.547 1.45388-2.83779 3.51432-3.41367 5.70523-1.05652 2.64918 2.85014 5.899 3.66783 9.54365 3.70286-1.549 12.17744-3.12168 24.35195-4.62013 36.53561A48.44071 48.44071 0 0 0 280.53054 259.45218zM255.2829 338.12093c2.32547.07079 1.88792-1.62157 1.892-2.99964.01282-4.34158.00474-8.68322.00474-13.4041 2.83148.76388 5.37814 1.58268 7.98235 2.12527 4.98929 1.03961 6.91223-.427 7.42039-5.4239.77673-7.63711.77673-7.63708 8.07911-8.80565 7.54228-1.20691 7.7429-1.30257 7.69094-8.75878-.02014-2.88474.41845-4.2509 3.84274-4.39677 4.46581-.19023 8.89074-1.33908 13.33325-2.07539 4.70722 6.10048 9.81046 11.92555 12.33015 19.44086 5.44955 16.254-3.5814 28.87035-20.70766 29.19117A167.326 167.326 0 0 1 255.2829 338.12093z"/><path fill="#d64142" d="M285.24153 217.61775c-4.12549 3.34115-6.92612.45058-9.42407-2.2878-2.81084-3.08137-3.93625-2.38055-5.28864 1.23717-4.014 10.73757-5.92677 10.94183-13.19848 1.898-.98184-1.22109-2.05434-2.36925-3.446-3.96543-.88108 2.54377-1.61144 4.58221-2.292 6.63713-.67272 2.03127-1.38871 4.096-3.856 4.44918-2.70349.387-3.96844-1.617-5.266-3.5089-2.05408-2.995-3.37051-6.52212-6.25025-9.04359-2.545 2.08972-2.006 6.02747-5.09525 7.47921-.9807-8.40311-2.02773-16.79937-2.89966-25.21379a61.70925 61.70925 0 0 1 .05813-7.1739c2.50108-7.3737 6.51047-8.36738 12.25993-3.03845 5.635 5.22286 5.635 5.22288 9.66847-1.1077 4.215-6.61545 8.06772-6.92451 13.11139-.61281 2.39088 2.992 3.73907 2.98769 5.24435-.46812a17.36234 17.36234 0 0 1 2.323-3.66425c3.33707-4.27837 6.74134-4.27264 10.25723-.02007a26.51142 26.51142 0 0 1 5.10507 8.66909C287.0686 197.83357 285.95421 207.71883 285.24153 217.61775zM172.002 212.9466q-4.00609 18.33431-8.01217 36.66859c-2.28337 2.69665-5.52242 3.03535-8.7041 3.62046a88.242 88.242 0 0 1-36.41641-.6753c-3.14779-.73524-6.32511-1.50913-8.17617-4.59418 1.19915-11.82915 2.03607-23.68 2.12978-35.57533 1.66117-2.06265 3.52872-.63479 5.2254-.18769 11.28009 2.9724 22.61867 4.9011 34.3639 3.309a77.93925 77.93925 0 0 0 13.98255-3.70392C168.30742 211.17669 170.75041 209.61032 172.002 212.9466z"/><path fill="#ece4f6" d="M152.46124 340.27474c1.78125.2108 2.04177-1.01144 2.282-2.34326 3.16566-17.55138 12.19157-31.47379 26.20795-42.31163.3401-.263.47771-.7878.70978-1.19051 8.93346 6.35287 15.27471 14.53874 17.86313 25.35482 2.27578 9.50957.11252 17.33927-6.43836 21.60426-6.27272 4.08392-13.53426 4.25416-20.57094 3.31463C165.75372 343.80034 159.13981 341.79533 152.46124 340.27474zM402.44424 315.66249c-.5831-12.82885 2.56164-24.459 10.68969-34.65093 3.15492-3.9561 7.34235-6.59981 11.06859-9.83115 10.63491 8.41818 14.93419 19.855 15.34054 32.9664.21621 6.97635-4.155 12.05369-10.97844 13.86732-7.5006 1.99361-14.641-.03481-21.83985-1.67646C405.31968 316.01723 403.87219 315.88276 402.44424 315.66249z"/><path fill="#d64142" d="M113.81153,201.90384a95.272,95.272,0,0,1,2.71919-19.07436,6.16382,6.16382,0,0,1,5.13648-.56731c5.18234,1.32124,10.48188,1.79834,15.77436,2.47047a73.57184,73.57184,0,0,0,30.62159-2.85492c1.81988-.5412,3.60635-1.60026,5.6014-.605a47.19449,47.19449,0,0,1-.02819,17.77744c-3.77215,3.35221-8.58894,4.24813-13.23376,5.28649a97.68172,97.68172,0,0,1-38.35355.91343C119.13868,204.74377,115.85471,204.72917,113.81153,201.90384Z"/><path fill="#ece4f6" d="M343.6081,256.52937c19.93434,12.87755,28.24841,35.25478,17.55449,55.33123-14.02143-3.2181-26.85424-17.05-22.71383-34.82536Q340.8504,266.725,343.6081,256.52937Z"/><path fill="#3d3351" d="M466.39461,97.23118a572.9191,572.9191,0,0,1-77.745,36.08909c-.90252.34347-1.78494.73982-2.67672,1.11153-3.06149,3.703-7.99822,3.54246-11.79733,5.73971-5.03268.3169-5.97826-1.96981-3.24173-7.80892a10.352,10.352,0,0,1,8.4208-2.64364c30.16109-11.15142,59.409-24.20272,87.22882-40.1978"/><path fill="#ece4f6" d="M286.25279 187.88267q-2.91415-3.824-5.82685-7.64909c-3.46464-4.57722-6.0264-4.49021-9.12951.474-1.60746 2.57153-2.971 5.29551-4.51295 8.07354-2.50216-1.6242-3.577-4.21256-5.28313-6.25467-3.347-4.00619-6.41972-3.89993-9.1762.44744a52.62745 52.62745 0 0 0-4.0734 7.11867c-1.237 2.861-2.31817 2.38621-3.91631.4033a43.72365 43.72365 0 0 0-3.36787-3.46745c-6.316-6.26439-7.86525-6.12814-12.6833 1.09629-.53936-4.21783-.63311-8.61152 1.21256-12.35407 2.32331-4.71113-.2531-4.62469-3.46052-4.58891.18055-1.69477 1.55418-2.03549 2.79233-2.07077 4.0072-.1142 7.923-1.40167 11.96292-.9064a4.27886 4.27886 0 0 1 2.81568 2.35808c2.01528 3.39222 3.51486 3.49432 5.814.30782 1.31741-1.82592 2.28793-3.901 4.738-4.50553 6.27673-1.31262 12.67028-1.76583 18.992-2.72276 1.57157-.23789 3.20893-.50837 4.4508.94094C284.40268 170.89484 286.54744 178.93584 286.25279 187.88267zM110.69319 247.96617c9.75865 5.10134 20.43575 5.54482 31.01647 5.38a70.2015 70.2015 0 0 0 22.28026-3.73107 108.61364 108.61364 0 0 0-3.86525 17.84179c-3.19242.26382-6.42148.3069-9.571.82951-13.96527 2.31754-27.503.32869-40.878-3.71191a13.81986 13.81986 0 0 0-2.85453-.2542A97.91336 97.91336 0 0 0 110.69319 247.96617zM98.89835 282.83316c-.13842 2.34273 2.06086 2.59661 3.31659 3.66943 13.448 11.48894 21.60463 25.21025 18.436 43.69094a2.88076 2.88076 0 0 0 .83651 3.01948c-5.8102-2.26135-11.67306-4.46484-16.6274-8.37322-9.77887-7.71444-11.15024-18.25879-9.372-29.58786C96.14954 291.03771 97.73451 286.96851 98.89835 282.83316z"/><path fill="#3d3351" d="M277.601,164.58306l-24.34518,2.96741c-3.479-3.074-.93929-5.28267,1.0828-7.57209,3.228-.66883,6.42473-2.07414,9.767-.48127,32.00979-3.79582,63.32682-10.57175,93.62083-21.7535.75212-.2776,1.53172-.48075,2.29853-.71859,3.56468.65418,3.21745,3.14572,2.69653,5.722-5.56635,4.25693-11.73578,6.87025-18.86706,6.823C322.20279,156.48435,299.96939,160.83156,277.601,164.58306Z"/><path fill="#ece4f6" d="M113.81153 201.90384c19.22314 4.79459 38.24207 4.69534 56.98686-2.3298a16.05432 16.05432 0 0 1 2.838-.52388c.27078 4.72809-1.0617 9.26767-1.63434 13.89651-.94157-1.99981-2.559-1.09693-3.707-.58082-17.86272 8.03064-35.71855 5.7239-53.60193.14056a7.77166 7.77166 0 0 0-1.87016-.11563C114.12933 208.98725 113.34393 205.38649 113.81153 201.90384zM397.81586 154.91734c-15.30919 9.5711-31.732 12.6041-49.421 8.57049-2.9722-.67775-5.49816-2.66155-8.63991-2.722 1.02681-3.38343 1.72357-6.89227 3.76046-9.89165 2.46753-.4753 4.78113.51014 7.17052.77135 14.19068 1.55155 28.01407.98972 40.61817-6.84512a4.778 4.778 0 0 1 2.76338-.72068A40.48244 40.48244 0 0 1 397.81586 154.91734z"/><path fill="#3d3351" d="M241.75875,169.1931l-15.72344,1.98858c-18.3571,1.41719-36.70865,2.9324-55.1352,3.12412-1.48276,1.35074-3.319,1.23764-5.12785,1.24773-3.53342-.09722-7.06993.03983-10.60089-.07743-2.1715-.07211-4.91985.60141-5.96872-1.9735-.971-2.38369-.02437-4.72173,1.92855-6.51329a4.3238,4.3238,0,0,1,5.19751.37757c28.89366.811,57.62373-1.23881,86.25982-4.93245C244.42409,164.94663,244.55367,167.24939,241.75875,169.1931Z"/><path fill="#ece4f6" d="M223.318,288.53528c3.985,3.44267,8.702,5.91171,12.26537,9.96673,6.562,7.46735,8.74018,15.83284,6.20113,25.41719-.7435,2.80661-1.57773,5.57538-.1957,8.41526-13.82482-4.19817-23.02874-20.70532-19.88817-37.3291C222.10687,292.85475,221.936,290.47238,223.318,288.53528Z"/><path fill="#8c4646" d="M151.51256,167.44586a6.56517,6.56517,0,0,0-.42294.85786c-1.96254,5.99027-1.96057,5.99441,4.12613,5.99,3.66119-.00266,7.32238-.01826,10.98357-.02806-1.95264,3.434-5.51226,2.77948-8.50795,3.04357-3.88761.34274-7.48742.30055-10.20656,4.06844-1.88481,2.61175-5.12575,2.23231-6.82184-.60511-1.54775-2.58931-3.61327-3.14327-6.27037-3.63917-4.67767-.873-9.72248-.12009-13.98646-2.94378q-.47307-.15135-.94511-.30323c4.656-1.572,9.27543-.0666,13.9093.16219,7.34238.36247,7.34224.36516,7.31159-6.74067a198.4377,198.4377,0,0,1,.82565-23.96783c.7201-6.26787,5.594-5.7599,9.53139-6.68861,3.49981-.8255,5.64137,1.15,5.77427,4.62205.09465,2.47251,2.662,1.38151,3.27208,2.84-2.61931,2.1887-3.13214,5.34922-4.1042,8.38278C154.39281,157.453,154.6555,162.96446,151.51256,167.44586Z"/><path fill="#ece4f6" d="M120.40614,174.18961c6.1927.626,12.37918,1.32757,18.58141,1.838,2.25676.18575,1.69671,1.86983,2.10366,3.09984.45453,1.37383.85271,2.78852,2.643,3.04131a3.09677,3.09677,0,0,0,3.48651-2.00282c1.42026-3.86,4.55509-3.7477,7.75765-3.85929a30.43039,30.43039,0,0,0,11.22012-2.04088q2.35169.01987,4.70165.04,1.38223,3.48345,2.76445,6.96689c-17.19318,7.36812-34.76717,6.25575-52.45629,2.31927-1.55145-.34524-3.01052-1.15584-4.67759-.76237Q118.46843,178.50949,120.40614,174.18961Z"/><path fill="#d64142" d="M394.06747,144.07968c-8.44232,8.05918-19.31341,8.75178-29.99554,9.457-6.92262.457-14.054.87225-20.55653-2.66263.1105-.4335.221-.86706.33524-1.30235q9.15559-3.199,18.30353-6.39455c2.83168.25923,2.20994,4.84026,4.88726,4.45491,2.98605-.42976,1.93389-3.97335,3.10521-5.9317,1.01038-1.68923,3.34252-1.06768,4.38008-2.63887,3.52779-2.25752,7.60188-3.16473,11.44785-4.63075C389.26962,137.14561,392.48832,139.92487,394.06747,144.07968Z"/><path fill="#8c4646" d="M241.75875 169.1931c1.3412-2.12221.60493-4.49986.83046-6.75891.54646-6.07167.82259-12.1839 1.71876-18.20384.85545-5.74631 3.241-7.18814 9.06993-6.47167 6.83451.84009 7.05579 1.10885 6.76464 8.21741-.42367 5.49772-2.95437 10.17247-5.75744 14.74085-.78966 2.20949-2.97132 4.19-1.12679 6.8334-2.01548.91648-1.69681 3.32451-2.97143 4.66939-1.38779 1.46427-2.68591 3.3823-5.07784 3.01872-2.86334-.43526-2.33278-2.93988-2.705-4.88334C242.42367 169.93559 242.01578 169.57878 241.75875 169.1931zM374.52672 139.06153c-1.23616 2.32279-4.72893 3.02734-4.31657 6.69767.15381 1.36928-.38074 3.8069-2.69031 3.95189-2.31153.14511-3.14128-1.82773-3.99238-3.5541-.48347-.98073-.91777-1.98571-1.37374-2.97979-.25094-2.20944.21649-4.6681-2.13042-6.15125 1.29413-2.58006-.32579-4.9003-.64989-7.33583-.48519-3.64609-1.01-7.28749-1.44379-10.9397-.77966-6.56308.82433-8.57719 7.46065-9.35306 3.58144-.41873 5.90463.96128 6.41875 4.757.14282 1.0547-.30986 2.29743.88313 3.05342.60492 5.12454 1.41472 10.263-1.02746 15.18127-.27671 1.241-.58512 2.47587-.82389 3.72409C370.21279 139.39662 371.70332 140.07195 374.52672 139.06153z"/><path fill="#ece4f6" d="M395.85591,237.40725c-3.55832,1.06749-7.07121,1.53708-9.5144-2.073-1.95409-2.88729-2.29554-6.22181-.23967-9.05553,2.52526-3.48072,6.1358-4.42244,10.26969-2.72791.39164.16055.9417-.0654,1.41816-.11186Q396.82275,230.42315,395.85591,237.40725Z"/><path fill="#6e3333" d="M254.3851,160.717c1.06087-5.24886,3.4505-9.97871,5.75744-14.74087a33.35642,33.35642,0,0,1,4.33294-.01657c3.68882.44628,5.33358,3.14185,3.78243,6.54014a71.44644,71.44644,0,0,1-4.15177,6.99766Q259.24514,160.10692,254.3851,160.717Z"/><path fill="#ece4f6" d="M347.52377,216.67741c1.15749,1.46464,2.67189.52066,4.03761.607,4.44947.28121,7.62639,3.32679,7.49349,7.1584-.16073,4.6341-3.42926,7.97708-8.18024,7.34712-4.78764-.63489-1.36406,3.76973-3.35113,4.62488-.82871-4.00824,1.22118-7.76634.97231-11.77515A59.0488,59.0488,0,0,0,347.52377,216.67741Z"/><path fill="#6f3434" d="M151.51256 167.44586c.91641-7.14773 3.178-13.99223 4.68126-21.00391.56306-2.6262 2.16084-2.29451 3.89162-2.32834 2.81451 1.53989 2.25676 4.07372 1.58959 6.355-1.658 5.66908-3.549 11.27-5.34638 16.8983Q153.92066 167.40637 151.51256 167.44586zM371.66466 132.389c.36738-5.05879-.81048-10.22217 1.02755-15.18135 4.45625-2.09045 6.34568-.86409 6.78051 3.91876.26352 2.89845-2.25433 5.71774-.11627 8.592Q375.5088 131.0543 371.66466 132.389z"/><path fill="#ece4f6" d="M395.00605 275.631c.1634-4.83441 2.96335-7.66121 7.528-7.60016 4.00288.05356 6.26422 2.61253 6.16954 6.98156-.10306 4.7577-3.428 8.135-7.85229 7.9759C397.09592 282.85332 394.85719 280.0355 395.00605 275.631zM352.79849 185.27642a6.11061 6.11061 0 0 1-6.3174-6.3566c.05539-3.66688 3.14945-6.91362 6.68-6.746 3.80559.18065 5.80989 2.42582 6.02148 6.15442A6.45979 6.45979 0 0 1 352.79849 185.27642zM387.54093 171.99279c4.50818.01247 6.86408 2.45762 6.62013 6.21175-.22193 3.41477-1.5923 5.98-5.58589 5.78714-3.74128-.18069-6.23154-2.08587-6.21-5.943C382.386 174.33521 384.51529 172.12648 387.54093 171.99279zM378.831 205.65044c.349-3.15979 1.7212-5.95282 5.44649-6.00262 3.972-.05307 5.54272 2.84338 5.79509 6.39632.24517 3.45193-1.58525 5.52149-4.987 5.87007C381.90356 212.24028 378.95126 209.2379 378.831 205.65044zM371.94773 247.026c-.06644 4.11912-1.88437 6.60612-5.70621 6.68763-3.66647.07822-5.43649-2.28509-5.48211-5.88853-.04287-3.38526 3.00073-6.8459 6.16457-6.75291C370.92941 241.19 371.75952 244.08135 371.94773 247.026zM390.26345 305.16154c-.08236 2.965-1.69094 5.44357-5.3082 5.64247-3.63746.2-5.6735-2.087-5.81259-5.61674-.13992-3.55112 1.29236-6.35284 5.22774-6.82133C387.46265 297.99781 390.16107 301.012 390.26345 305.16154zM367.90813 271.68913c.48729-2.98948 1.642-5.482 5.34036-5.48738 3.75679-.00539 5.72675 2.196 5.733 5.69279.00574 3.21935-1.86936 5.7052-5.25293 5.773C370.128 277.73969 368.36578 275.27291 367.90813 271.68913zM366.774 200.31265c-.13675 3.82914-2.89119 6.40766-6.29306 6.19162-3.459-.21968-4.64781-2.42653-4.664-5.52673-.01871-3.59066 2.71983-6.59517 5.82919-6.23316C365.0426 195.13984 366.59 197.35988 366.774 200.31265zM124.56746 297.5236c-3.09735.055-3.61294-1.59623-3.41169-3.53957.22082-2.13232.4948-3.9159-2.6918-3.36549a3.12233 3.12233 0 0 1-3.73369-2.36556 3.41907 3.41907 0 0 1 1.866-4.099c3.65554-1.81746 6.12738-3.9279 6.17675-8.6363a3.16754 3.16754 0 0 1 5.38864-2.311c2.30374 1.96715 3.67028 1.4008 5.68807.03837 1.76666-1.19284 3.94112-2.107 5.65.02991 1.545 1.93185.91565 4.0583-.56505 5.756-2.00587 2.29977-3.322 4.32036-1.37567 7.56925a2.62742 2.62742 0 0 1-2.65406 3.96132c-4.40731-.8723-5.82172 2.50187-8.07574 4.70335C125.93349 296.13971 125.53987 297.54083 124.56746 297.5236zM138.02682 228.54562c3.27586-.63743 5.92241-4.92726 8.61752-1.39346 2.98057 3.90811-2.07536 5.52016-3.74411 8.19534 2.30714 1.62081 6.73026 1.71475 5.37186 5.59708-1.41026 4.0305-5.11025 2.23582-7.9072 1.47126-2.75169-.75221-4.33844-.57428-4.29523 2.81149.03092 2.42341-.027 5.42367-3.29908 5.43418-3.57858.01152-3.05692-3.225-2.87832-5.47444.21122-2.66062-.45925-3.51142-3.13276-2.82721-1.784.4565-3.721.31228-4.36083-1.85532-.66-2.23592.53776-3.651 2.61282-4.463 4.02855-1.57639 7.50619-3.5044 7.15152-8.8015a3.03634 3.03634 0 0 1 3.28614-3.409C138.047 224.03238 138.15182 226.42784 138.02682 228.54562z"/><text fill="#d64142" font-family="Baloo-Regular, Baloo" font-size="76.302" transform="translate(90.67 415.377)">HO HO HO</text></svg>