<svg xmlns="http://www.w3.org/2000/svg" data-name="Layer 1" viewBox="0 0 512 512"><path fill="#fce6d9" stroke="#fff" stroke-linecap="round" stroke-linejoin="round" stroke-width="40" d="M426.57087,186.35643q.735-2.11231,1.37988-4.23291c.05176-.16993.10449-.33936.15576-.50977q.64784-2.15186,1.208-4.30957c.02978-.11524.05884-.231.08838-.34619q.57678-2.24926,1.0625-4.501l.00073-.00342h-.00024a111.68183,111.68183,0,0,0-.87525-51.13574c-.0415-.16162-.0852-.32275-.12744-.48389q-.2926-1.11474-.60791-2.2207-.0846-.29589-.1709-.59131-.31713-1.08618-.65674-2.16113c-.05468-.17383-.10815-.34766-.16381-.52051q-.39661-1.23412-.82178-2.45459c-.01807-.05224-.03516-.105-.05347-.15722q-.93969-2.67774-2.02-5.2837c-.05371-.12988-.10986-.2583-.16406-.3872q-.44677-1.06641-.9165-2.12012c-.08667-.19434-.175-.38721-.2627-.58057q-.44091-.97119-.90161-1.93115c-.09473-.19726-.189-.39453-.28516-.59131q-.49035-1.00488-1.00317-1.9956c-.07471-.14453-.14746-.29-.2229-.43457q-1.28247-2.45289-2.69531-4.81885c-.05323-.08887-.1084-.17627-.16187-.26514q-.609-1.01147-1.24194-2.00586c-.1211-.19043-.24488-.3789-.36743-.56836q-.54712-.84668-1.1106-1.67968-.21423-.31641-.43066-.63037-.56507-.81959-1.14722-1.62549c-.13794-.19141-.27466-.3833-.41382-.57373q-.67089-.91481-1.36377-1.81153c-.08008-.104-.158-.21-.23852-.31347q-.84192-1.08106-1.71412-2.13623c-.021-.02588-.043-.0503-.0642-.07618q-.80823-.97338-1.6438-1.92236c-.15845-.18066-.32007-.35742-.48-.53662q-.64234-.71923-1.29883-1.42529-.29077-.312-.58545-.62012-.62805-.66064-1.26978-1.30762c-.20312-.20508-.406-.41015-.61132-.61328q-.68005-.6731-1.37647-1.3291c-.17725-.168-.35229-.33838-.531-.5044q-1.93727-1.80321-3.98414-3.4873c-.18286-.1499-.36987-.2959-.55395-.44482q-.74634-.60279-1.50513-1.19092c-.24292-.1875-.489-.37207-.73413-.55664q-.6936-.523-1.39795-1.03272-.38892-.28052-.781-.55761-.71814-.50612-1.44873-.99659c-.24976-.16845-.4983-.33838-.75025-.50439q-.84228-.55445-1.70166-1.0874c-.17871-.11182-.35449-.22705-.53418-.33741q-1.12975-.69287-2.28467-1.35253c-.16748-.09571-.33813-.186-.5061-.27979q-.906-.509-1.82544-.998c-.2749-.1455-.55322-.28564-.83008-.42773q-.77563-.39916-1.56079-.78467-.45923-.22411-.92261-.44189-.77013-.36476-1.55053-.71338c-.30738-.1377-.61475-.27588-.92456-.41016-.55957-.24267-1.12476-.47656-1.6919-.70752-.27026-.11035-.53808-.22412-.81006-.33154-.832-.32861-1.67041-.648-2.51782-.95166l-.01977-.00733c-.02539-.00927-.05079-.01709-.07618-.02587q-1.103-.39405-2.21167-.75586c-.178-.0586-.35717-.11036-.5354-.167-.59375-.18945-1.1875-.37646-1.7832-.55224-.15967-.04737-.32031-.08936-.48022-.13526-.62085-.1792-1.242-.35449-1.86451-.51855-.12036-.03174-.24121-.06006-.36181-.09131-.66651-.17285-1.3335-.33936-2.002-.49512-.08007-.01855-.1604-.03515-.24072-.05371q-1.06824-.24535-2.13916-.46435c-.042-.0083-.08423-.01563-.12622-.02442q-1.13049-.22778-2.26392-.42383l-.031-.00537c-19.01831-3.28662-38.542.04053-56.13306,8.76807l-.09912.0498q-4.15978,2.06984-8.16455,4.53663c-.05469.03369-.10937.06787-.16406.10156q-1.29822.80346-2.57813,1.646l-.02368.01563q-2.61145,1.72339-5.13843,3.61572c-.07568.05615-.15063.11328-.22583.16992q-1.2019.90381-2.38354,1.84375l-.06616.05225q-2.45363,1.95849-4.81177,4.07568c-.09326.084-.18652.16846-.27979.25244q-1.10082.99463-2.18066,2.022c-.03272.03125-.06592.06152-.09863.09277q-2.28369,2.18262-4.46021,4.51611-.15344.16407-.30542.32862-1.00854,1.08837-1.99365,2.207c-.03467.03955-.06982.07812-.10449.11767q-1.08216,1.23488-2.13379,2.50684l-.00513.00586.00025.00049a117.51148,117.51148,0,0,0-18.21875,30.61377l-.37256.93017h-.00025l-19.08838,47.63575c-.35205-.50733-.70337-1.01465-1.06616-1.51368-.17041-.23437-.34863-.4624-.52148-.69482q-.769-1.03491-1.56909-2.044-.38233-.48265-.77027-.96-.9331-1.14111-1.90234-2.25146c-.23438-.26709-.47412-.5293-.71192-.79346q-.8496-.94335-1.727-1.86133-.43872-.45849-.8833-.91064-.98034-.9939-1.99218-1.95557c-.28834-.27392-.58057-.543-.873-.8125-.44922-.41406-.89746-.82959-1.356-1.23388l-.01709.00586a82.90025,82.90025,0,0,0-35.17578-18.39356l-.00317-.00928c-.06543-.01611-.13282-.02734-.19825-.043-1.01709-.2456-2.04516-.46093-3.07641-.66894-.33032-.06641-.65674-.14453-.98853-.207-1.041-.19629-2.09277-.36084-3.14721-.51807-.33594-.05029-.66748-.11328-1.00464-.15967-1.06543-.1455-2.14136-.25683-3.21924-.36181-.332-.03223-.65991-.0791-.99292-.10791q-2.11011-.17945-4.24805-.25586c-.80029-.02735-1.5979-.04053-2.3938-.04492-.25757-.00147-.51391.00293-.771.0039-.541.00195-1.0813.00733-1.62036.02-.29639.00684-.5918.01758-.8877.02735q-.7577.02635-1.51221.06542-.44678.02418-.89209.05127-.77416.04981-1.54419.11475c-.27221.02246-.54467.043-.81616.06836-.613.05664-1.22363.12256-1.83325.19287-.16479.019-.33032.03418-.49487.0542q-1.16382.14136-2.31836.31641c-.18384.02783-.36621.06005-.54956.08935-.58423.0918-1.167.188-1.74756.29248-.26343.04785-.52588.09912-.78882.14942q-.75476.14355-1.50586.29931-.41418.08716-.82666.17871-.74487.16407-1.48413.34229c-.26123.0625-.52271.12451-.783.18994q-.81738.20508-1.62793.42773c-.19849.05372-.39819.105-.59619.16065q-2.23023.62548-4.41064,1.37256c-.20166.06885-.40137.1416-.60254.2124q-.78589.27539-1.56543.56494c-.23389.0874-.46631.17676-.69922.2666q-.73975.28346-1.47266.58106c-.22754.09277-.45508.18506-.68213.27929q-.77343.32228-1.53906.66065c-.187.08252-.375.16309-.56128.24658q-1.00158.44971-1.99.92383c-.02246.01074-.04541.021-.06811.03223q-1.06385.51269-2.11109,1.05566c-.09521.04932-.18872.10107-.28369.15039q-.86938.45409-1.72754.92773c-.1748.09668-.34814.19581-.52222.29395q-.74378.41748-1.47876.8501-.279.16406-.55712.33105-.73828.44238-1.46656.90039c-.16186.10157-.32422.20215-.4851.30469q-.84669.53979-1.67969,1.09863c-.07227.04883-.14575.09571-.21778.14453q-1.93689,1.30812-3.79589,2.72168c-.10743.08155-.21314.165-.31983.24707q-.74926.57423-1.48559,1.165c-.14136.11329-.2815.228-.42212.34229q-.69507.56542-1.37769,1.145c-.1355.11523-.27124.23-.40576.3457q-.73351.63062-1.45215,1.27881c-.08545.07666-.17212.15234-.25708.23q-1.74279,1.582-3.396,3.2583c-.031.03125-.06127.064-.09228.09522q-.75257.76611-1.48486,1.55127c-.10157.10839-.20142.21826-.30225.32763q-.63465.68628-1.25415,1.38672-.16553.1875-.33008.37549-.62329.71338-1.23047,1.44092c-.08813.106-.17724.21045-.26489.3164A82.92975,82.92975,0,0,0,80.4986,201.09422h-.00024l-.00025.00244q-.3468,1.782-.61279,3.59082c-.01367.09229-.02808.18408-.0415.27588q-.252,1.73585-.43018,3.49316c-.01416.13965-.0271.28028-.04053.42041-.11132,1.15528-.20166,2.3169-.26416,3.48535-.00708.12989-.011.26124-.01733.39161-.05835,1.19921-.09668,2.40429-.10254,3.61621l-.00049.01758a83.42572,83.42572,0,0,0,1.84082,17.87109q.30836,1.43921.666,2.85986.35742,1.42017.76343,2.8208a4.3927,4.3927,0,0,0,.27.69825c.01367.02783.03222.05175.04638.07959a4.40757,4.40757,0,0,0,.33472.55712l.01684.02a4.46384,4.46384,0,0,0,3.61182,1.84278h35.42774a4.46018,4.46018,0,0,0,3.88354-6.63037,40.98836,40.98836,0,0,1-3.18994-7.59229c-.05518-.17969-.1023-.36279-.155-.54346q-.27759-.95141-.50952-1.92138c-.05371-.22364-.10987-.4458-.15991-.6709q-.25746-1.15942-.44971-2.3418c-.03369-.207-.06079-.416-.09131-.62353q-.15673-1.0708-.25977-2.15772c-.01391-.14941-.03271-.29785-.04516-.44824-.06885-.83887-.10791-1.68652-.126-2.53906-.00415-.20264-.00537-.40576-.00683-.60889-.00586-.88037.00561-1.76514.05542-2.6582.03442-.61475.08618-1.2251.1477-1.83252.01953-.19336.04468-.38526.0669-.57764.04834-.418.10131-.834.1621-1.248q.048-.32519.10157-.64941.09814-.59911.21411-1.19189c.03955-.20362.07764-.40772.12036-.61036.0979-.46582.20532-.92773.31909-1.38769.02979-.1211.05591-.24414.08692-.36475q.22192-.86278.48071-1.71c.04858-.16015.10278-.31738.15332-.47607.12988-.40869.26392-.81592.40625-1.21875.071-.20117.145-.40039.219-.59961q.20289-.54786.4209-1.08838c.07984-.19727.15943-.395.24219-.59131.16235-.38477.33227-.76611.5061-1.145.072-.15723.14087-.31641.2146-.47266q.37317-.78808.77735-1.55761c.05615-.10694.11694-.21094.17431-.31739q.32959-.613.67774-1.21435c.104-.17871.21191-.35449.31836-.53125q.29626-.49146.605-.9751.17688-.27686.35791-.5498c.21484-.32422.43554-.644.65918-.96143.11377-.16162.22558-.32471.34155-.48486q.46288-.63722.94849-1.25635c.03759-.04785.07324-.09668.11108-.14453.35229-.44483.71582-.88037,1.08569-1.31006.13013-.15137.26441-.29883.39673-.44775.25464-.28711.51148-.57227.77393-.852.15234-.16309.30664-.32373.46142-.48389q.38783-.40137.78638-.791c.15381-.15088.30664-.30224.46289-.45068.30786-.293.62207-.5791.93848-.86279.11645-.104.22973-.21143.34717-.314q.64086-.5603,1.30493-1.09424c.1416-.11425.28735-.22314.43042-.33545.31372-.24609.62939-.48974.95019-.72656.18115-.13379.36475-.26465.5481-.39551q.44385-.31713.896-.623c.18848-.127.3772-.2544.56812-.37891.32519-.21191.65478-.41748.98608-.6206.16577-.10157.32984-.20655.49732-.30567q.73352-.43579,1.4851-.84277c.125-.06738.25318-.1294.37891-.1958.39038-.20508.783-.40674,1.18042-.59961.19824-.09668.39917-.18848.59912-.28174q.50171-.23364,1.00977-.45557.31969-.13842.64184-.27246.51892-.21459,1.04541-.41406c.20264-.07764.40406-.15723.60816-.23145q.68517-.24975,1.38135-.47412c.09668-.03125.19165-.06689.28857-.09716h0c.72241-.22852,1.45532-.43116,2.19336-.62012.70459-.18018,1.417-.33838,2.13428-.48242.12353-.02442.2478-.04688.37158-.07032q.89025-.16992,1.79346-.29882c.18212-.02637.364-.05323.54687-.07715.56348-.07373,1.13135-.13233,1.70117-.18262.19287-.01709.38428-.03906.57788-.05322.74366-.05518,1.4917-.09424,2.24512-.10791.655-.01221,1.30542-.0044,1.95337.01367.20068.00537.3999.0166.6001.0249.45654.01953.91113.04492,1.36377.0791.21631.01612.43237.03321.6477.05274.47193.043.94141.09521,1.40869.15381.16895.02148.33911.03906.50733.062q.9364.12963,1.85937.29931c.13233.02442.26294.05469.39478.08008q.72912.14283,1.449.30908c.20972.04883.418.10108.62622.15332q.61671.15381,1.22608.32618c.207.05859.41455.1167.62011.17822q.69728.20947,1.38355.44336c.12915.04394.26.083.38867.12842q.85363.29883,1.68872.63525c.18653.07471.36963.15527.55469.23242q.57276.23877,1.13721.49317.32262.14647.64209.29834.5321.25267,1.05468.5205c.20093.10254.40308.20264.602.3086q.70386.37353,1.39112.773c.16894.09814.33545.20019.50293.30078.39209.23535.781.4751,1.16455.72314.20972.13574.416.27588.62305.41553q.44238.29736.87695.60547c.21533.15283.42969.30664.64209.46387.28711.2124.56982.43066.85132.65039.19482.15234.39209.30175.58423.457q.64782.52515,1.27441,1.0747c.19434.1709.38281.34864.57422.52344.24878.227.49682.45459.74.6875.20972.20117.416.40528.62134.61084q.32666.32594.645.65918c.20483.21436.40966.42822.60986.64649.21606.23535.42627.47656.63721.71728q.44457.5083.87353,1.03076c.23071.28125.46143.5625.68482.8501.19018.24463.37329.49463.55786.74414.16894.22754.33716.45606.50146.6875q.27759.39185.54639.78955c.1543.22852.30469.45947.45434.69092.17554.27148.35205.542.52124.81787.1482.24121.28882.48731.43213.73193q.43361.74049.83692,1.49952c.12646.23779.25464.47461.37646.71484.15064.29785.29444.59912.43823.90088q.171.35962.33619.72314c.13818.30469.27392.61133.40478.91993.104.24609.20288.49511.30225.74414.12451.311.25195.6206.36914.93554a41.1649,41.1649,0,0,1,2.58179,14.03321l-.00684,20.56543-7.72241,19.27148h0L183.53937,286.584c-19.02124-7.42382-52.85254-16.99755-62.032,4.23243,0,0-4.56836,8.272,5.47315,27.01074s10.56274,23.22461,26.07788,28.79443a8.25747,8.25747,0,0,0,1.11035.313,12.10413,12.10413,0,0,0,5.27368-.21582l-16.18066,40.37891h-.00025l-3.30591,8.25-3.27246,8.1665a5.72415,5.72415,0,0,0,.91382,5.99463,4.56311,4.56311,0,0,0,1.52173,1.07324c.04687.02051.08545.05274.1333.07227h0l34.34814,13.81689a4.50254,4.50254,0,0,0,.88941.25147c.02026.0039.04.00976.0603.01318a4.58546,4.58546,0,0,0,.86792.05615c.0315-.001.0625.00049.09375-.001a4.8428,4.8428,0,0,0,.84351-.11622c.03466-.00781.06933-.01416.10376-.02294a5.169,5.169,0,0,0,.81274-.27637c.03247-.01416.0647-.02783.09692-.04248a5.47848,5.47848,0,0,0,.77076-.43018c.02636-.01758.05224-.03564.07861-.05371a5.84351,5.84351,0,0,0,.71289-.58057c.01856-.01806.03613-.03662.05469-.05468a6.03666,6.03666,0,0,0,.63672-.731c.009-.01221.01709-.0249.02588-.0376a6.2284,6.2284,0,0,0,.53881-.88525l.00049-.00049h-.00024c.07617-.15283.14917-.30859.21411-.47021l16.59936-41.3003h0l.17432-.43359a95.0708,95.0708,0,0,0,6.19312,7.709l-.00367,11.24317-.00781,22.21484h.00025l-.01172,34.94629c0,.13672.02807.26514.04.39844l-.01978.00683c.00733.082.03272.15821.04443.23877.02149.146.04517.28907.08033.43018.03393.13672.07763.26855.124.40039.04761.13476.095.26758.15479.39648.05908.127.12866.24659.199.3667.07007.11963.13794.23926.21851.35157.08325.11621.17773.22168.27148.3291.08789.10058.17163.20312.26831.2959a4.44225,4.44225,0,0,0,.34522.28466c.10009.07813.19482.16114.30127.231a4.50179,4.50179,0,0,0,.42626.231c.1045.05322.20313.11426.31226.15918a4.484,4.484,0,0,0,.532.165c.09522.02588.18506.06347.28272.083a4.47621,4.47621,0,0,0,.87378.08789h32.67163a4.453,4.453,0,0,0,4.45459-4.44775l.0083-5.56836.01269-8.31738h-.00024l.053-35.37256h.00024l.04346-29.26953.02563-17.14893c1.4878,3.33155,2.98438,6.9043,4.48023,10.7583a5.90761,5.90761,0,0,0,2.094-1.14453c-.061.04883-.12256.09864-.18213.14356.14454.36767.28931.72461.43384,1.09717,0,0,12.33252-2.78467,4.198-33.66407a129.6822,129.6822,0,0,1,14.53931-.71728c4.72534.292,8.4602,1.22412,7.90332,3.51611a5.97227,5.97227,0,0,0,.25659-2.4917l.00293.03467c1.52783.5581,2.37207,1.37646,2.08642,2.55273,0,0,4.63623-10.97656-24.166-28.82763,11.82959,1.8706,23.66479,2.127,28.71582-2.75879a8.27473,8.27473,0,0,0,.77295-.85645c10.165-12.97705,8.21728-17.05127,6.73584-38.25976-1.48145-21.208-9.75342-25.77588-9.75342-25.77588-10.90747-7.479-23.27344-2.1377-34.13477,6.875l3.83887-9.55176h0L293.952,138.56639a58.23673,58.23673,0,0,1,9.38477-15.49073h0c.2749-.3247.5581-.63964.83911-.957.22021-.24853.43921-.49756.66284-.74121.28589-.31152.57568-.61719.86719-.9209q.345-.35887.69531-.71c.29419-.2959.58887-.59082.88843-.87842.2417-.23193.48779-.457.73266-.68359q.79212-.73316,1.60767-1.43066c.26294-.22461.52393-.45313.79028-.67237.30933-.25439.62378-.5.93775-.74658.26733-.21.53491-.41943.80542-.624q.472-.3567.95-.70166c.282-.20362.56689-.40186.852-.59912.31348-.21729.62622-.436.94336-.646.36792-.24268.74072-.4751,1.113-.70752q.70313-.43945,1.41675-.854c.33692-.1958.6731-.39209,1.01319-.57959.31347-.17285.62939-.33838.94531-.50391q.49586-.26.99512-.5083c.3125-.15527.62573-.30957.94067-.45752.36768-.17334.738-.33789,1.10864-.50146.28321-.125.56446-.25489.84912-.374q.91994-.38525,1.85132-.73144c.27539-.102.55322-.19483.83008-.292.40112-.14111.803-.27978,1.20679-.40966.29712-.09571.595-.18653.89355-.27637.40308-.12109.80762-.23535,1.21289-.3457.28247-.07618.56446-.15479.8479-.22559.52613-.13232,1.05445-.25293,1.58374-.36621.21338-.0459.42627-.09375.64014-.13623q.92284-.18384,1.85059-.3291c.25781-.04.51635-.07324.77465-.10889.45215-.063.90479-.1206,1.35816-.16943q.40833-.044.81714-.08106c.4768-.04248.95434-.07519,1.43213-.102.23046-.01318.46045-.03027.69091-.03955.69263-.02832,1.386-.042,2.07959-.03662.1543.001.3086.00977.46265.01221.55713.01025,1.11426.02978,1.67114.06152.24512.01416.49.03369.73487.05176q.724.05419,1.447.1333c.24292.02637.48584.05224.72851.083.55909.0708,1.11768.15478,1.67554.24853.14917.02539.29883.04444.448.07129q1.051.18824,2.09692.43311c.18921.04394.37769.0957.56665.14209.51807.12841,1.03516.26464,1.55078.41308.2356.06787.47071.13916.70581.21143q.739.227,1.47388.48388c.21362.07471.42774.146.64063.22364.68994.25293,1.37744.519,2.06054.81006h.00049c.7854.335,1.553.69775,2.30835,1.07714.197.09864.38818.20557.58325.30762.57447.30029,1.14307.60889,1.69971.93457.1814.10547.35986.21436.53931.32227q.88768.5376,1.74536,1.11328c.11792.0791.23657.15771.35376.23828.68652.47363,1.36059.9624,2.01587,1.47363h0c.68652.53516,1.36059,1.085,2.01147,1.66016.08374.07422.16333.15234.24634.22705q.63025.56616,1.23877,1.15527c.17822.17334.35107.35157.52637.52735.30542.30761.60766.61767.904.93408q.27465.293.5437.5918.43214.47826.84888.96972c.16455.19336.33081.38526.49218.58155.32813.39843.64722.80517.96192,1.21533.09888.1289.20239.25439.2998.38427q.59839.79834,1.16138,1.625c.12842.188.25073.38038.37647.56983.25244.38135.50219.76514.74414,1.1543.14062.22656.27758.45507.41455.68408q.33105.55445.64819,1.11865c.12988.231.26.46191.38623.6958.22583.41748.44287.84082.65674,1.26611.09619.19141.19653.38038.29028.57325q.44421.91332.85279,1.84765c.07324.168.13989.33936.21142.50782.19971.47167.395.94628.58081,1.42578.09326.24121.18213.48486.272.728q.23292.62916.45044,1.26612.13.38232.25489.76611c.14331.44385.279.8916.41064,1.34131.06738.22949.1377.45752.20191.68848.185.665.3601,1.33447.51953,2.01025.01684.07178.031.14453.0476.2168q.21681.93677.39991,1.88623c.04614.23828.08618.478.12915.71777.08423.46973.16406.94092.23584,1.41455q.06078.39917.11474.79981.096.70239.17285,1.41064c.02784.25342.05738.50635.08179.76074.05469.57031.09839,1.14356.13526,1.71778.00952.15185.02417.30224.03271.45361q.06042,1.081.07666,2.1709c.00342.21289,0,.42676.00122.64013.00244.52393-.00024,1.04834-.01245,1.57471-.00635.26611-.0166.5332-.02661.80029q-.02784.731-.07471,1.46485c-.01709.26611-.03393.53271-.05469.79931-.04223.5376-.09472,1.07666-.15258,1.61622-.02247.20751-.04.415-.0647.623q-.13184,1.11181-.30762,2.22608c-.02441.15381-.05517.30713-.08105.46045-.09912.59375-.2063,1.188-.3252,1.78173-.05127.25635-.10815.5127-.16308.769q-.16115.75219-.34253,1.50439c-.06519.26856-.1316.53711-.20093.80567-.13281.51513-.27539,1.03027-.4231,1.54492-.06811.23681-.13305.47461-.20434.71142-.22412.74366-.46,1.48682-.71607,2.228-.37182,1.07568-.78051,2.126-1.20508,3.16406-.09814.23975-.196.4795-.29687.71729-.42407.999-.86768,1.9834-1.33862,2.94531-.08521.17432-.17676.34326-.26343.51611q-.62183,1.23853-1.29492,2.43262c-.13135.23389-.26.47022-.394.70166q-.76281,1.31471-1.58447,2.57471c-.1604.2456-.32617.48633-.48974.729q-.70423,1.04591-1.447,2.05176c-.1416.19189-.27856.38867-.42236.57813a55.92405,55.92405,0,0,1-6.96191,7.62255c-3.13282,2.84278-2.64722,8.0376.93115,9.477l37.24512,14.98243a4.90869,4.90869,0,0,0,4.67334-.64991c.00878-.00634.01855-.01074.02734-.01709a5.77284,5.77284,0,0,0,.61792-.51806c.02759-.02588.0581-.04639.0852-.07276a6.02286,6.02286,0,0,0,.61548-.71093q3.27723-4.44947,6.176-9.29248a119.38475,119.38475,0,0,0,8.45752-17.15528l.00732-.01953c.57007-1.43506,1.10254-2.875,1.61157-4.31787C426.45807,186.6699,426.51618,186.51365,426.57087,186.35643Zm-174.771,182.93115c.10059-.08448.20288-.17383.3064-.269C252.00275,369.11375,251.90046,369.2031,251.79987,369.28758Zm.4502-.40576q.12231-.11793.24633-.2461C252.41364,368.72117,252.33185,368.8032,252.25007,368.88182Zm2.50439-3.71c.0874-.19726.17261-.40283.25586-.61474C254.92707,364.769,254.84186,364.97459,254.75446,365.17185Zm-2.1145,3.313c.11426-.12353.22876-.25341.3435-.39111C252.86872,368.23143,252.75422,368.36131,252.64,368.48484Zm.42578-.49218q.16882-.20874.33667-.43946Q253.23468,367.78392,253.06574,367.99266Zm.46362-.61963c.09229-.13184.18384-.27.27491-.4126Q253.66731,367.1743,253.52936,367.373Zm.39209-.59766c.12476-.2041.24829-.4165.36914-.64258C254.16974,366.35887,254.04621,366.57127,253.92145,366.77537Zm.41846-.73975c.10547-.20068.2085-.41162.30981-.62988Q254.49776,365.73387,254.33991,366.03562Zm2.145-9.25732q.03186-.72144.03564-1.49414Q256.51655,356.05614,256.48493,356.7783Zm-1.3877,7.55859c.10694-.28515.21045-.58154.30884-.89257C255.30768,363.75584,255.20417,364.05174,255.09723,364.33689Zm.35743-1.05664q.12158-.397.23193-.82226Q255.576,362.88353,255.45466,363.28025Zm.30883-1.13037q.10035-.41161.18946-.85058Q255.8636,361.738,255.76349,362.14988Zm.242-1.104q.10876-.56689.19726-1.17871Q256.11482,360.47947,256.00544,361.04588Zm.229-1.42529q.06811-.50538.1211-1.04151Q256.30242,359.11521,256.23444,359.62059Zm.157-1.43116q.04725-.55077.07764-1.13379Q256.43867,357.63866,256.39142,358.18943Zm-.24975-9.126q-.08643-.73828-.19483-1.51172Q256.05525,348.32517,256.14167,349.06346Zm.37646,5.84961q-.00219-.613-.0227-1.25782Q256.51594,354.30052,256.51813,354.91307Zm-.04077-1.75245q-.03039-.717-.08447-1.47363Q256.44746,352.44359,256.47736,353.16062Zm-.10229-1.749c-.0459-.59619-.105-1.21435-.17432-1.84814C256.27009,350.19725,256.32917,350.81541,256.37507,351.4116Zm-2.62793-14.51709c.22876.86865.436,1.70752.6333,2.53223C254.18317,338.602,253.9759,337.76316,253.74714,336.89451Zm.80029,3.24854q.21167.91332.39819,1.7915Q254.75923,341.05711,254.54743,340.14305Zm.53686,2.44531c.1565.76465.3025,1.51318.4314,2.23682C255.38679,344.10154,255.24079,343.35252,255.08429,342.58836Zm.46583,2.44287c.115.65576.217,1.293.31005,1.91553C255.76716,346.3242,255.66511,345.687,255.55012,345.03123Zm-.15137-8.30029c.24658-.02246.51489-.04639.80688-.07178Q255.768,336.69725,255.39875,336.73094Zm-1.46509.14355c.05029-.00537.10425-.01074.17578-.01806C254.04011,336.86326,253.98273,336.86961,253.93366,336.87449Zm.30835-.03174c.10132-.01025.2168-.022.34741-.03466C254.461,336.82078,254.34235,336.8325,254.242,336.84275Zm.49829-.04931c.15649-.01514.33008-.03174.5188-.04932C255.07233,336.7617,254.89557,336.7783,254.7403,336.79344ZM265.24518,318.542c.55274.44287,1.07984.87793,1.58936,1.3086C266.325,319.4199,265.79792,318.98484,265.24518,318.542ZM269.201,336.2031c-.884-.03076-1.78881-.04345-2.69677-.041C267.41266,336.15965,268.317,336.17234,269.201,336.2031Zm-12.95752.45313c.26856-.02344.55616-.04688.85816-.07129C256.80036,336.60935,256.51154,336.63279,256.24347,336.65623Zm1.10889-.09082c.25-.01953.50757-.03906.77612-.05859Q257.72639,336.53612,257.35236,336.56541Zm1.083-.08057q.4065-.0293.83642-.05713C258.98591,336.44627,258.70563,336.46531,258.43537,336.48484Zm1.15234-.07763q.55261-.03516,1.13355-.06739Q260.13971,336.37206,259.58771,336.40721Zm1.19825-.0708c.42211-.02344.85473-.04444,1.29516-.06446C261.64118,336.292,261.20783,336.313,260.786,336.33641Zm1.5227-.07373q.52808-.02271,1.06714-.041Q262.83637,336.24,262.30866,336.26268Zm1.4646-.05323c.31616-.00976.6333-.01806.95312-.0249Q264.24739,336.19481,263.77326,336.20945Zm1.37256-.0332q.51342-.00879,1.02783-.01172Q265.65912,336.16819,265.14582,336.17625Zm4.39575.0415q.48158.01978.9519.04688C270.18024,336.24607,269.86237,336.23094,269.54157,336.21775Zm8.95166-.81591c.04419.18261.0835.36084.11719.53271C278.57673,335.76268,278.53742,335.58445,278.49323,335.40184Zm-.80737-2.39844q.13184.30981.24487.60644Q277.81757,333.31321,277.68586,333.0034Zm.312.77978c.0896.24268.16943.47754.24145.70655C278.1673,334.26072,278.08747,334.02586,277.99787,333.78318Zm.30273.91162q.07434.24829.13623.48536Q278.37532,334.94358,278.3006,334.6948Zm.44214,2.08252c.01343.11328.02442.22364.03369.33057C278.76716,337.001,278.75617,336.8906,278.74274,336.77732Zm-.103-.6875q.045.24611.07667.47657Q278.68451,336.33568,278.63971,336.08982Zm-6.23779-10.91406q-.41162-.45557-.85815-.92383Q271.99019,324.72068,272.40192,325.17576Zm5.17676,7.58057q-.14942-.33839-.32251-.6919Q277.42939,332.41819,277.57868,332.75633Zm-.38892-.83057c-.13989-.27978-.2937-.56836-.457-.8623C276.89606,331.3574,277.04987,331.646,277.18976,331.92576Zm-.59253-1.09863q-.19958-.3501-.4226-.71143Q276.39765,330.47752,276.59723,330.82713Zm-.58081-.96729c-.2-.31591-.40991-.6372-.63818-.96728C275.60651,329.22264,275.81647,329.54393,276.01642,329.85984Zm-.69458-1.04638c-.21191-.3042-.43847-.61524-.67578-.93067C274.88337,328.19822,275.10993,328.50926,275.32184,328.81346Zm-.89746-1.22168q-.32079-.41748-.67236-.84815Q274.10357,327.17356,274.42438,327.59178Zm-.86181-1.08155q-.44715-.53905-.9441-1.09716Q273.1158,325.97118,273.56257,326.51023Zm-2.33057-2.58252c-.353-.36328-.71875-.731-1.10449-1.105C270.51325,323.19676,270.879,323.56443,271.232,323.92771Zm-4.01123-3.74609q.58483.50171,1.13232.9917Q267.806,320.68333,267.22077,320.18162Zm1.50366,1.32471c.45581.415.897.82519,1.31323,1.22754C269.6214,322.33152,269.18024,321.92137,268.72443,321.50633Zm-12.625-9.45948c-.77148-.49365-1.56006-.99121-2.384-1.4956h.00024C254.53962,311.05564,255.328,311.5532,256.09943,312.04685Zm8.9043,6.30567q-.72474-.57642-1.50171-1.166Q264.27766,317.7761,265.00373,318.35252Zm-2.021-1.55713q-.75622-.56616-1.56054-1.145Q262.22674,316.229,262.98273,316.79539Zm-1.92969-1.41211q-.98217-.69947-2.03857-1.4165Q260.06917,314.68309,261.053,315.38328Zm-2.57153-1.77393q-.84266-.56616-1.73169-1.14257Q257.639,313.04319,258.48151,313.60935Z"/><path fill="#ece4f6" d="M245.28322,216.41015A83.1403,83.1403,0,0,0,165.041,133.67971c-46.50584-1.59486-85.83656,36.17508-86.05233,82.70776a83.109,83.109,0,0,0,3.27023,23.55217,4.451,4.451,0,0,0,4.27974,3.19773h35.42753a4.46022,4.46022,0,0,0,3.88369-6.63039,41.29575,41.29575,0,1,1,77.57526-20.09683l-.08007,239.05861a4.45453,4.45453,0,0,0,4.45453,4.456h32.67176a4.45453,4.45453,0,0,0,4.45453-4.44787Z"/><path fill="#d64142" d="M149.79745 177.38756l-.02973-.08651L80.49838 201.09424a82.02648 82.02648 0 0 0-1.50986 15.29321 83.105 83.105 0 0 0 3.27058 23.55216 4.40413 4.40413 0 0 0 1.68459 2.36117l38.739-13.30646a41.30419 41.30419 0 0 1 27.11474-51.60676zM217.11249 154.39905l-65.12185 22.36861a40.80352 40.80352 0 0 1 9.37055-1.27268 41.298 41.298 0 0 1 39.48216 26.88223l39.60651-13.60427A83.25254 83.25254 0 0 0 217.11249 154.39905z"/><polygon fill="#d64142" points="245.219 259.608 245.282 217.197 203.42 231.576 203.406 273.971 245.219 259.608"/><polygon fill="#d64142" points="245.112 330.918 245.176 288.506 203.396 302.857 203.382 345.251 245.112 330.918"/><polygon fill="#d64142" points="245 406.219 245.063 363.807 203.371 378.128 203.357 420.522 245 406.219"/><path fill="#d64142" d="M207.79958 459.92478h32.67167a4.45436 4.45436 0 0 0 4.45454-4.44787l.021-13.88549-41.58147 14.28267A4.4537 4.4537 0 0 0 207.79958 459.92478zM96.62686 165.87779l85.46778-29.35715-.17835-.51884a82.87863 82.87863 0 0 0-85.28943 29.876z"/><path fill="#ece4f6" d="M249.94639,120.86437c21.48717-52.84148,76.22166-80.82526,123.68451-63.82582,49.65,17.7828,73.04493,79.04756,51.15275,134.12525a118.1492,118.1492,0,0,1-14.63339,26.448,5.16028,5.16028,0,0,1-6.01934,1.96876l-37.24518-14.98236c-3.57827-1.43941-4.06393-6.63423-.93124-9.47737a57.86774,57.86774,0,0,0,15.69868-24.03318c8.921-25.81688-1.66869-53.54377-24.03012-63.08082-24.01678-10.24305-52.58308,3.58775-63.671,30.55939L180.40123,421.08931c-1.16884,2.90815-4.21422,4.42239-6.80122,3.38174L139.252,410.6541c-2.58366-1.03931-3.73314-4.23417-2.56881-7.13977Z"/><path fill="#d64142" d="M368.88034 115.1335l.07237-.08965 61.51335 57.40991a118.47342 118.47342 0 0 1-20.316 45.15793 5.63481 5.63481 0 0 1-2.89339 2.07772l-34.40143-32.1067a58.99483 58.99483 0 0 0 8.79789-16.49506C388.906 150.09776 383.26162 127.84623 368.88034 115.1335zM309.039 59.501l57.83023 53.97253a41.46747 41.46747 0 0 0-9.24635-5.46672c-18.84179-8.03592-40.48066-1.2505-54.28615 15.069L268.16491 90.25024A107.43435 107.43435 0 0 1 309.039 59.501z"/><polygon fill="#d64142" points="229.48 171.938 249.574 121.794 286.748 156.489 266.611 206.592 229.48 171.938"/><polygon fill="#d64142" points="195.696 256.247 215.789 206.104 252.891 240.73 232.754 290.833 195.696 256.247"/><polygon fill="#d64142" points="160.02 345.276 180.114 295.132 217.137 329.686 197.001 379.789 160.02 345.276"/><path fill="#d64142" d="M173.60005 424.47106l-34.34794-13.8169c-2.58392-1.03942-3.73318-4.23421-2.56881-7.13977l6.57827-16.417 36.92569 34.46233A5.32016 5.32016 0 0 1 173.60005 424.47106zM430.25 124.01864l-75.89809-70.835.43413-.53768a84.51355 84.51355 0 0 1 18.84486 4.3926C403.01887 67.56418 423.2058 93.32508 430.25 124.01864zM220.3269 284.789s35.89021-59.87453 62.85971-41.38244c0 0 8.27194 4.56816 9.75333 25.77623s3.42933 25.28234-6.73582 38.25952a8.30147 8.30147 0 0 1-.77288.85655c-11.71431 11.33-59.91563-4.98611-59.91563-4.98611S230.343 299.55586 220.3269 284.789z"/><path fill="#fbb641" d="M220.3269 284.789s35.89021-59.87453 62.85971-41.38244c0 0 8.27194 4.56816 9.75333 25.77623s3.42933 25.28234-6.73582 38.25952a8.30147 8.30147 0 0 1-.77288.85655c-11.71431 11.33-59.91563-4.98611-59.91563-4.98611S230.343 299.55586 220.3269 284.789zM202.20164 310.83366c-.94751 1.16191-32.32378 39.39711-48.03295 36.10111a8.30208 8.30208 0 0 1-1.11034-.31333c-15.515-5.56963-16.03629-10.05543-26.07775-28.79432s-5.4733-27.01082-5.4733-27.01082c11.3786-26.31617 60.6422-5.29939 72.61347.28022.108.34748.2343.70511.36476 1.077C197.18573 299.73972 198.50013 307.35022 202.20164 310.83366z"/><path fill="#fbb641" d="M202.20164,310.83366c1.77565,1.68226,4.11484,2.39835,7.42844,1.69752a30.14362,30.14362,0,0,0,11.91867-5.532.00727.00727,0,0,0,.00507-.00919.00727.00727,0,0,1-.00507.00919c-20.35011,53.98563-3.3455,88.82788-3.3455,88.82788-10.90585,2.37314-27.80624-26.75034-27.80624-26.75034-10.70008,3.08648-20.76919,13.71787-20.76919,13.71787-1.82224-8.80849,8.80194-43.90118,10.31713-48.82758A218.29957,218.29957,0,0,0,202.20164,310.83366Z"/><path fill="#d64142" d="M221.54875,306.9992q-2.42052,6.43545-4.1679,12.499c6.43193,4.85938,19.34736,18.02493,32.16826,51.0605,0,0,12.33253-2.78468,4.198-33.664,0,0,26.20144-2.92176,24.78844,2.89468,0,0,4.72814-11.14614-24.8327-29.24618a223.7935,223.7935,0,0,1-28.1872-7.23043s-.13114.16146-.39453.45379c-.08848.09507-.18917.20138-.30715.32814a28.28706,28.28706,0,0,1-3.26011,2.8953.00727.00727,0,0,1-.00507.00919.00727.00727,0,0,0,.00507-.00919,28.28706,28.28706,0,0,0,3.26011-2.8953c.118-.12676.21867-.23307.30715-.32814.26339-.29233.39453-.45379.39453-.45379Z"/><path fill="#d64142" d="M221.54875,306.9992q-2.42052,6.43545-4.1679,12.499c6.43193,4.85938,19.34736,18.02493,32.16826,51.0605,0,0,12.33253-2.78468,4.198-33.664,0,0,26.20144-2.92176,24.78844,2.89468,0,0,4.72814-11.14614-24.8327-29.24618a223.7935,223.7935,0,0,1-28.1872-7.23043s-.13114.16146-.39453.45379c-.08848.09507-.18917.20138-.30715.32814a28.28706,28.28706,0,0,1-3.26011,2.8953.00727.00727,0,0,1-.00507.00919.00727.00727,0,0,0,.00507-.00919,28.28706,28.28706,0,0,0,3.26011-2.8953c.118-.12676.21867-.23307.30715-.32814.26339-.29233.39453-.45379.39453-.45379Z"/><path fill="#d64142" d="M221.54875,306.9992q-2.42052,6.43545-4.1679,12.499c6.43193,4.85938,19.34736,18.02493,32.16826,51.0605,0,0,12.33253-2.78468,4.198-33.664,0,0,26.20144-2.92176,24.78844,2.89468,0,0,4.72814-11.14614-24.8327-29.24618a223.7935,223.7935,0,0,1-28.1872-7.23043s-.13114.16146-.39453.45379c-.08848.09507-.18917.20138-.30715.32814a28.28706,28.28706,0,0,1-3.26011,2.8953.00727.00727,0,0,1-.00507.00919.00727.00727,0,0,0,.00507-.00919,28.28706,28.28706,0,0,0,3.26011-2.8953c.118-.12676.21867-.23307.30715-.32814.26339-.29233.39453-.45379.39453-.45379Z"/><path fill="#fbb641" d="M221.54875,306.9992q-2.42052,6.43545-4.1679,12.499c6.43193,4.85938,19.34736,18.02493,32.16826,51.0605,0,0,12.33253-2.78468,4.198-33.664,0,0,26.20144-2.92176,24.78844,2.89468,0,0,4.72814-11.14614-24.8327-29.24618a223.7935,223.7935,0,0,1-28.1872-7.23043s-.13114.16146-.39453.45379c-.08848.09507-.18917.20138-.30715.32814a28.28706,28.28706,0,0,1-3.26011,2.8953.00727.00727,0,0,1-.00507.00919.00727.00727,0,0,0,.00507-.00919,28.28706,28.28706,0,0,0,3.26011-2.8953c.118-.12676.21867-.23307.30715-.32814.26339-.29233.39453-.45379.39453-.45379Z"/><path fill="#d7932e" d="M253.74707 336.89471c6.02825 22.88367.817 30.33665-2.28619 32.66285.14473.36767.28935.72451.434 1.09719 0 0 12.33253-2.78467 4.198-33.664a129.39087 129.39087 0 0 1 14.59674-.71644A118.98662 118.98662 0 0 0 253.74707 336.89471zM256.04861 310.63925a223.78612 223.78612 0 0 1-28.18721-7.23042l-.5314.49383a223.45726 223.45726 0 0 0 26.37283 6.64054c21.40873 13.10854 24.83185 22.568 25.09215 26.78941 1.52787.558 2.372 1.37659 2.08632 2.55282C280.8813 339.88543 285.60946 328.73931 256.04861 310.63925z"/><path fill="#fbb641" d="M199.76991,280.14077a28.133,28.133,0,0,1-3.55436,1.31751c-1.81814.56951-4.59116,2.70978-1.73,10.71525,4.00558,11.20765,4.952,22.525,15.14455,20.35765a29.858,29.858,0,0,0,15.88553-9.2184s5.77047-4.49086-8.3956-22.94949a8.62833,8.62833,0,0,0-8.15216-3.28212A34.431,34.431,0,0,0,199.76991,280.14077Z"/><path fill="#d7932e" d="M225.51561,303.31278a29.858,29.858,0,0,1-15.88553,9.2184c-10.19251,2.16738-11.139-9.15-15.14455-20.35765-.11639-.32566-.22009-.63809-.31832-.9446.18528.728.42353,1.514.72985,2.37128,4.00558,11.20765,4.952,22.525,15.14455,20.35765a29.85792,29.85792,0,0,0,15.88553-9.2184s2.35358-1.84543.34683-8.00189C227.50272,301.75826,225.51561,303.31278,225.51561,303.31278Z"/><path fill="#d7932e" d="M202.16161 310.79161c-.20866-.1992-.41053-.41017-.60461-.635l-.03237-.03636a12.19753 12.19753 0 0 1-1.14631-1.6049c-.02335-.03844-.04639-.07745-.0695-.11634-.16269-.27363-.321-.5561-.47409-.84963l-.02874-.05386q-.25013-.48354-.48547-.99958l-.02111-.04767c-.14015-.30928-.27661-.628-.41026-.95336q-.04611-.11177-.09158-.225-.1803-.448-.35451-.91346c-.02034-.05416-.04112-.10689-.06128-.16144q-.19542-.52931-.38476-1.07946c-.04108-.11888-.08155-.24086-.12237-.3611q-.12309-.36347-.24479-.73386-.086-.26277-.17194-.529c-.05367-.16713-.1073-.33634-.16081-.5055-.6011-1.89978-1.19359-3.91654-1.85425-5.97373l-.00624-.01966q-.20133-.62635-.41269-1.25675c-.02548-.07589-.05063-.15164-.07622-.2276q-.22517-.66679-.46218-1.33481c-.10809-.30244-.20562-.59378-.29791-.87975-.021-.06435-.047-.13362-.0669-.19726-.52134-.243-1.1176-.51686-1.77421-.81323.1828.7086.41581 1.47195.71234 2.30177 2.85345 7.98388 4.1572 16.01886 8.354 19.19985.441-.52638.71308-.85836.78882-.95123C202.18771 310.82063 202.17541 310.8048 202.16161 310.79161zM220.47579 285.01365c.1311.19483.25514.3842.38115.57512.18506.28057.3679.55932.542.83168.12382.19349.24245.383.36085.57245.16185.259.32025.51511.47236.76646q.16975.28048.33111.55437.21569.36564.41706.71993c.10137.17813.20161.35526.29792.52924.128.23156.24975.45772.36907.68207.08851.16656.17793.33366.26183.49631.11488.223.22218.43936.32854.655.07566.15371.15394.30935.22543.45941.10535.221.20174.43417.29813.64736.06013.13325.12445.2699.18125.4001.10505.24092.1999.47262.29381.70336.03823.094.08132.1923.11775.28461q.18732.47476.344.92069c.03008.08565.0542.16533.08261.24943.07138.2105.14184.42013.20345.62095.03385.11083.06183.21534.093.32322.04775.16554.0959.33148.13717.49025.02935.11321.05394.221.08015.33083.0347.14482.06912.28934.09846.42831.02309.10883.04255.21358.06239.319.02489.13142.04889.2617.069.38779.0165.10235.03066.20178.04425.30058.01655.12081.03153.23944.044.35513q.01521.142.02684.27876c.00934.11219.01647.22125.02209.32838.00453.08632.00895.172.01114.25509.0028.10455.00311.205.00258.30454-.00041.07708-.00024.15485-.00252.229-.00306.0996-.00919.19413-.01537.28844-.00445.06665-.00765.135-.0136.19908-.00887.09679-.02088.18759-.03282.27862-.00715.05436-.01284.11146-.02095.16379-.01715.10993-.03723.213-.05823.31411-.0057.02734-.01.05759-.016.08426-.02786.12542-.0585.24353-.09113.35538-.01091.03739-.02293.07028-.03426.10619-.0228.07236-.04554.14462-.06984.2111-.01479.04063-.03024.077-.04546.11545-.02207.05593-.04411.112-.06689.16342-.01653.03755-.03327.07171-.05009.10693-.02208.04641-.04393.09229-.0662.13479-.01727.033-.03417.06333-.05136.094-.022.039-.04337.07688-.06488.11219-.01711.028-.03354.0541-.05027.07981-.021.03252-.04138.0632-.06169.09222-.016.02281-.03132.04445-.04658.06512-.01988.02687-.03861.05123-.05723.07462-.01383.01747-.02736.03463-.04042.05019-.01816.02174-.03448.04036-.05084.05852l-.03243.036c-.01624.01727-.02961.03075-.043.04394l-.02086.02088-.03542.03252-.006.00541-.01521.01268s.28661.097.81685.26948c.39855-.42269.60983-.681.60983-.681s5.01357-3.91206-5.80685-19.41679c-.52517.83292-.80857 1.3046-.80857 1.3046C220.379 284.86566 220.42461 284.93758 220.47579 285.01365z"/><path fill="#d7932e" d="M226.53216 297.99706c11.70464-1.45225 61.14978-6.6203 58.89908 10.30183-11.71431 11.33-59.91563-4.98611-59.91563-4.98611S227.16851 302.02467 226.53216 297.99706zM199.31581 306.48132c-9.032 4.1816-56.36028 26.97459-45.14712 40.45345 15.70917 3.296 47.08544-34.9392 48.033-36.10111A13.51765 13.51765 0 0 1 199.31581 306.48132zM161.87771 302.35207s10.57668-11.5505 25.47443-8.12089M171.37056 305.79536s4.77392-7.5586 15.99526-6.15928M227.61459 286.48078s9.15-11.139 22.09982-11.78362M228.94523 288.415s13.44371-6.96866 19.57563-1.78321M220.84252 308.91693c-19.23636 52.89013-2.63927 86.91015-2.63927 86.91015a6.32523 6.32523 0 0 1-1.84554.11111 7.10207 7.10207 0 0 0 3.478.1907s-17.00461-34.84226 3.34549-88.8279C222.48907 307.82756 221.70657 308.375 220.84252 308.91693zM190.397 369.07674c-8.276 2.38725-16.17019 9.28452-19.32421 12.28874a11.10192 11.10192 0 0 0 .18746 1.73094s9.31537-9.83158 19.54729-13.32891C190.54054 369.32387 190.397 369.07674 190.397 369.07674z"/><path fill="#fce6d9" d="M128.76533 293.86138l1.97209 1.33584a5.75173 5.75173 0 0 0-2.67168 3.94419S128.09741 294.84743 128.76533 293.86138zM199.52294 287.35954l1.97209 1.33584a5.75173 5.75173 0 0 0-2.67168 3.94419S198.855 288.34559 199.52294 287.35954z"/></svg>