<svg xmlns="http://www.w3.org/2000/svg" data-name="Layer 1" viewBox="0 0 512 512"><path fill="#fff" d="M429.48673,128.1092A38.02208,38.02208,0,0,0,451.496,59.09845a22.87952,22.87952,0,0,0-4.19336-20.292c-2.4458-2.98828-9.1748-9.39453-21.00244-7.95508A21.79646,21.79646,0,0,0,412.122,36.7049c-1.5874-4.01953-4.9165-10.38184-12.28809-13.97754a23.63136,23.63136,0,0,0-33.21875,28.12793,24.39228,24.39228,0,0,0-2.87939.5293c-7.75732,1.92285-20.12939,9.97168-17.29688,27.94531l.05616.36035a27.0539,27.0539,0,0,0,1.42676,5.4375q1.18212,4.33594,2.373,8.6709c1.03418,3.76953,2.08594,7.60547,3.1294,11.45215a23.17674,23.17674,0,0,0-14.57813,2.43066,24.29216,24.29216,0,0,0-3.728,2.39893c-.6228-.03076-1.24707-.05908-1.88476-.05908a50.305,50.305,0,0,0-7.69629.5957c-.8916.13769-1.77686.30469-2.65747.48535a31.33683,31.33683,0,0,0,2.51245-2.82422,38.84283,38.84283,0,0,0,4.09814-6.376,61.25456,61.25456,0,0,0,2.6836-5.90429,50.09556,50.09556,0,0,0,2.12744-6.79688,36.36975,36.36975,0,0,0,1.01172-8.2998,24.28861,24.28861,0,0,0-11.65283-21.1875,28.14535,28.14535,0,0,0-11.21411-3.729,32.67369,32.67369,0,0,0-10.02027-17.01025,35.31417,35.31417,0,0,0-16.36914-8.09473,24.57524,24.57524,0,0,0-7.13672-8.5332,25.16107,25.16107,0,0,0-10.98437-4.67676,41.41751,41.41751,0,0,0-13.24659.01367q-1.95117.31935-2.94677.499a19.93484,19.93484,0,0,0-10.40967,5.39209c-.55444-.228-1.1106-.45264-1.67725-.65967a50.33531,50.33531,0,0,0-33.64062,0,42.23863,42.23863,0,0,0-25.01514,24.18359A48.98243,48.98243,0,0,0,177.5546,65.701a49.29341,49.29341,0,0,0,3.3501,18.38672,43.05753,43.05753,0,0,0,9.88378,14.96875c.397.3877.80811.75781,1.219,1.12842-.07129,0-.14136-.00342-.21265-.00342-2.66943,0-5.52881.14551-8.74853.44727a53.74159,53.74159,0,0,0-11.60059,2.374c-.14111.0459-.28174.09375-.42187.14258a26.3494,26.3494,0,0,0-10.04541,6.209c-.02979.02979-.05494.06348-.08448.09375a24.09765,24.09765,0,0,0-9.25781-3.93554,23.77136,23.77136,0,0,0-8.271-.07618c1.915-7.29589,3.9834-14.74609,6.2334-22.46.92334-3.165,3.377-11.57129-1.46045-20.27734A23.4122,23.4122,0,0,0,133.77384,51.578a24.46913,24.46913,0,0,0-3.53907-.71094c3.749-13.6836-3.7334-24.15625-12.58056-28.21778a23.76164,23.76164,0,0,0-18.3877-.79589A24.45633,24.45633,0,0,0,85.60977,34.96466l-.31787.70313c-.17334.38184-.35595.7832-.54394,1.20605C73.4838,27.13166,61.24161,29.69611,53.974,35.06818c-7.66357,5.666-13.72656,17.34766-5.59131,31.62305L66.873,99.38459l.01709,4.11621c.02392,5.69336.04785,11.50488.084,17.332A30.96382,30.96382,0,0,0,78.47257,172.45c.00683.13574.01416.2705.02148.40625A23.70878,23.70878,0,0,0,53.79923,205.866a31.17933,31.17933,0,0,0,15.38964,16.03223q2.05884.99609,4.02149,1.87305l-.80811,8.63085a32.51831,32.51831,0,1,0,53.08448,25.207,32.67431,32.67431,0,0,0-2.15723-11.72657q.68262.561,1.36426,1.12305c17.05761,14.03711,34.69531,28.55273,53.88867,41.26758,6.49756,4.30566,9.19873,9.72461,9.32373,18.70605.06348,4.55274.25635,18.40723,10.68164,27.90918a32.6154,32.6154,0,0,0,18.39111,7.979l3.312,12.98779a29.54623,29.54623,0,0,0-10.20313,6.45312,28.79355,28.79355,0,0,0-8.77685,20.78711,29.61023,29.61023,0,0,0,16.92871,26.58741c-.26221.25586-.53125.50341-.78858.76513-9.80371,9.96582-15.04053,22.73731-14.7456,35.96289.60351,27.043,21.67822,48.32227,47.979,48.44532h.22119c26.56641,0,48.2544-22.23829,48.38916-49.67579a50.44337,50.44337,0,0,0-16.79346-38.01757,29.14138,29.14138,0,0,0,14.95508-25.75782v-.00195c-.04931-16.43164-13.11084-29.83789-29.11914-29.88476h-.07617l-.03931.001,2.6316-8.49267q1.689.137,3.36035.1372a38.5938,38.5938,0,0,0,21.96777-6.76465,29.45158,29.45158,0,0,0,3.19141-2.51269,38.98686,38.98686,0,0,0,44.38525-64.05566c8.72559-6.70606,17.06885-13.42774,24.88184-20.04786,13.36914-11.3291,22.31054-18.30175,33.72216-19.60742,10.03858-1.14746,18.46631-5.07617,24.61963-7.94531a30.93354,30.93354,0,0,0,14.46924-13.10742c7.083-12.835,2.6626-23.874-3.83349-29.92188a23.37433,23.37433,0,0,0-19.33594-6.24511c.35547-6.60059.2998-12.98438.24658-19.05176l-.02441-2.97461a103.61746,103.61746,0,0,1,2.97754-23.67188A37.90421,37.90421,0,0,0,429.48673,128.1092Z"/><path fill="#6e3232" d="M89.364 78.74449c3.34666.44405 3.42145-2.57386 4.02664-4.34934 2.9421-8.63137 5.53643-17.38074 8.31936-26.06735a49.87 49.87 0 0 1 2.142-5.16335c1.0907-2.42545 3.03254-3.45427 5.4513-2.34291 2.2972 1.05547 2.18053 3.18158 1.47348 5.31908-2.16426 6.54282-4.328 13.08612-6.434 19.64782-5.518 17.19232-.77092 33.80607 2.14254 50.5206l1.68448.34364c3.77367-9.6999 7.65159-19.36112 11.27067-29.11836 1.48632-4.00717 2.35748-8.23889 3.61747-12.33493.79466-2.58345 1.90777-5.31729 5.33108-4.36 3.60982 1.00939 2.71816 4.10707 2.01025 6.53419-4.22789 14.49593-8.10735 29.06737-11.53283 43.78527-5.03766 21.64472-5.702 42.82338 4.159 63.40577 1.83247 1.10365 1.92638 3.05348 2.40521 4.84206 2.77952 10.38233 7.17167 12.76246 17.61234 9.54814 1.13334-.34894 2.171-.57972 3.0298.50487 11.74485 22.43965 28.99482 39.59437 50.57379 52.56062a38.71906 38.71906 0 0 0 5.15293 2.1194c4.63675 1.93136 7.59373.76213 9.621-4.134 6.133-14.81252 12.19085-29.6842 20.2457-43.60031 1.94309-3.357 3.58-8.74089 8.83959-6.30265 4.478 2.07593 2.56446 6.84162 1.5659 10.51416-4.15974 15.29893-8.43446 30.587-14.13379 45.38737-5.16251 13.40626-4.14105 25.88489 3.81587 37.83274 4.42831 6.64938 4.85358 13.94778 3.28058 21.52245-1.01077 4.86735-4.13653 7.27681-9.00238 7.66037-13.1235 1.03433-17.9459-3.23105-18.12788-16.31942-.20575-14.79709-5.58488-26.69126-18.27485-35.09833-21.67261-14.3581-41.40927-31.2346-61.505-47.65788-8.85994-7.24078-18.85771-12.74739-30.90665-12.75677-.20021-.234-.40043-.468-.60359-.70094.11516-4.21209-.83336-8.55484 1.51613-12.49671 1.62505-.1114 3.25011-.22278 5.15441-.3533a103.18573 103.18573 0 0 1-4.95294-35.84756 11.18537 11.18537 0 0 1 1.01173-4.78331c2.83777-5.1841 2.57947-10.22143-.98026-15.023-1.60552-2.16565-1.504-4.89652-2.38619-7.307-2.09832-8.6097-3.98043-17.26718-6.00106-25.894-.0716-1.88372-1.4803-3.3549-1.626-5.22A53.98155 53.98155 0 0 0 88.07373 90.378C87.507 86.49437 86.42806 82.3326 89.364 78.74449zM372.64124 187.50216c12.91882-24.94145 9.83869-50.5425 3.08472-76.26948-2.78943-10.6254-5.74157-21.20811-8.62908-31.8077a23.96179 23.96179 0 0 1-.81838-2.66794c-.35393-2.38912-1.06591-5.13341 2.26774-5.95929 3.0967-.76718 4.40788 1.474 5.09738 3.94453 2.65243 9.50475 5.45369 18.9501 9.528 27.971 2.05726 4.555 3.23583 9.49721 6.11459 14.06693 2.26319-3.19357 2.09972-6.79648 2.94154-10.11573 5.05156-19.9174 2.74956-39.15224-5.13378-57.90693-.07222-.17173-.17568-.33219-.23244-.50828-.88667-2.752-2.97582-6.08048 1.22579-7.54646 3.95574-1.38022 5.07858 2.23335 6.0216 5.003 2.09907 6.1651 3.89081 12.43409 5.90411 18.62945 1.26267 3.88565 2.68374 7.7204 4.064 11.56712 1.34235 3.74129 3.07753 3.87557 5.06518.46342 2.71669-4.66374 5.31267-9.39972 8.11126-14.01321 2.30785-3.80439 4.53549-7.71084 8.18965-10.48024 2.97726 4.05044 1.17214 8.91184 2.2644 13.27782-1.17006 4.50585-4.88953 7.72449-6.18494 12.17718-7.12542 5.87337-10.24551 13.81756-11.68048 22.63239a2.232 2.232 0 0 0-2.2831 1.84725c-4.59519 16.13626-9.17424 32.26979-9.055 49.26262.10976 15.63641.65166 31.30671-5.11557 46.71681 6.35234 0 12.108-.01961 17.8635.00836 2.83291.01377 4.94372-1.32924 6.81886-3.29827 1.75582-1.84368 3.91737-2.52108 5.916-.65985 1.79755 1.674 1.02461 3.68278-.04653 5.62309a11.14535 11.14535 0 0 1-5.40813 4.64365c-5.91154 2.75542-11.84846 5.44819-18.442 6.20218-18.07271 2.06664-31.21012 13.05976-44.37951 24.2189-10.09053 8.5502-20.48107 16.76944-31.06221 24.7038-3.32958 2.49669-5.26423 4.90126-4.68223 9.036a.97016.97016 0 0 1-1.48492-.33c-1.56442-5.38093-.56927-11.0421-1.84832-16.49131-.6052-2.57823-1.22914-4.99612-2.95707-7.034-.11342-.26945-.22359-.54023-.33375-.811 10.82412-8.3558 19.88408-18.43622 28.39824-29.05017 2.111-1.32395 3.47653.37352 4.97831 1.2926 7.29683 4.46561 14.39245 3.8396 21.57127-1.96487 6.28853-5.08465 8.10381-12.173 5.11321-20.06229C372.62646 191.76456 371.17323 189.81477 372.64124 187.50216z"/><path fill="#6e3232" d="M316.5298,265.26606c-4.41705,3.10014-8.93533,6.06686-13.23126,9.32661-10.9478,8.30724-14.16715,20.04859-14.3156,33.06724-.05173,4.53994.0298,9.4167-4.081,12.22347-5.51522,3.76577-12.06747,4.00721-18.174,2.03359-5.0182-1.6219-5.08512-6.87162-5.56654-11.30885a25.07958,25.07958,0,0,1,4.09069-17.02066c7.78176-11.755,8.82622-24.06147,3.7765-37.25662-5.72541-14.9608-10.07723-30.38942-14.27269-45.84253-.98827-3.64-2.8868-8.34866,1.698-10.44435,4.94789-2.26165,6.65417,2.72528,8.5249,5.94779,8.05917,13.88228,13.9642,28.78732,20.34508,43.46541,2.64337,6.08048,4.001,6.55549,10.26573,4.53542,6.70292-2.16134,11.82356-6.95268,17.75251-10.39455q.27157.26666.54193.53453C316.38254,250.97468,318.32858,257.886,316.5298,265.26606Z"/><path fill="#d64142" d="M279.29477,445.08267c-.08129,16.65588-12.71641,29.84755-28.5175,29.77365-15.70374-.07346-27.71624-12.74406-28.07659-28.89143-.388-17.38592,16.02367-30.866,28.77849-30.79019C266.77748,415.26568,279.37469,428.71192,279.29477,445.08267Z"/><path fill="#6e3232" d="M368.53058,183.15968c-.36728.7719-.52018,1.94251-1.8289,1.08346-3.26632-2.1441-6.96205-2.31289-10.68758-2.361a4.33621,4.33621,0,0,1-.92618-1.85c.33009-13.4277-2.27322-26.64944-2.79254-40.0143-.09805-2.52366-.61142-5.28145,1.53949-7.40228C360.62647,148.91321,366.06207,165.60509,368.53058,183.15968Z"/><path fill="#6e3333" d="M85.87559 92.35781Q75.897 74.71334 65.918 57.069c-1.11605-1.9732-2.50411-4.10717-.054-5.91847 2.45457-1.81453 4.568-.36881 6.39765 1.39652 5.02365 4.84706 8.067 11.04307 11.52933 16.95983 1.38431 2.36566 2.97853 4.60849 4.4772 6.90723-1.207 3.18369-.57957 6.5128-.77674 9.77667C87.36092 88.3522 87.67327 90.63223 85.87559 92.35781zM142.04223 175.22244q-2.30527-.05649-4.61057-.113c-1.04661-7.34934-.30939-14.7199-.22456-22.08058.023-1.99582.7836-4.0335-.67446-5.84358 3.359-5.54521 5.18764-11.68769 7.00918-17.83958.637-2.15155 1.317-4.78208 4.24327-4.20683 3.09887.60916 3.13048 3.08146 2.5162 5.75581-2.82759 12.31053-6.65569 24.41732-7.66321 37.10409C142.44681 170.40724 142.24123 172.81457 142.04223 175.22244z"/><path fill="#020202" d="M231.57491 392.72265c-5.583.00014-10.26368-4.39042-10.264-9.62779a9.34451 9.34451 0 0 1 9.85042-9.18313 9.40774 9.40774 0 0 1 .4136 18.81092zM267.93154 390.85192a8.93368 8.93368 0 0 1-8.89112-9.36877c.08033-5.29068 4.4271-9.97831 9.24009-9.96469 4.98067.01409 9.1598 4.54346 9.17571 9.94471A9.16256 9.16256 0 0 1 267.93154 390.85192z"/><path fill="#6f3434" d="M94.57437,210.13018a81.63384,81.63384,0,0,1-16.67669-6.23559,11.17111,11.17111,0,0,1-5.69006-5.84783,3.57041,3.57041,0,0,1,.96853-4.53672c1.272-1.022,3.20171-1.28895,4.14525-.14089,5.15339,6.27072,12.26471,4.00717,18.71825,4.61645,2.22634,3.69573.15157,7.28251-.2697,10.91483A2.37752,2.37752,0,0,1,94.57437,210.13018Z"/><path fill="#3d3351" d="M430.28427 74.39126l-3.64376 1.13242c-2.31263-2.90579-1.35053-5.85687-.12184-8.81164a80.20043 80.20043 0 0 1-1.07521-14.84015c.43423-1.07935 1.3198-1.12993 2.28424-1.00045 4.04244 3.07363.84434 7.50066 2.07481 11.0999Q430.04341 68.18131 430.28427 74.39126zM136.53264 147.18527c.67283-.13384 1.89417-.6502 1.88088.19377-.14566 9.24827 1.43868 18.56663-.98258 27.73048q-1.05213.00072-2.10568.00162c-2.63916-2.99788-1.99146-6.60871-1.55462-10.00494.58277-4.53075 1.71058-8.9881 2.37286-13.5188Q136.33808 149.38633 136.53264 147.18527z"/><path fill="#6f3737" d="M136.1435,151.5874c.488,7.86772-1.74581,15.64078-.81827,23.52378q-2.95488.65186-5.90985,1.30368A156.77874,156.77874,0,0,1,136.1435,151.5874Z"/><path fill="#713a3a" d="M352.4412,127.20656c-3.24823.71108-2.62373,2.99992-2.035,5.17435,1.46018,5.39369,1.14952,10.87592.93905,16.35829q-2.48619-9.26453-4.96853-18.5304c-.52452-1.96814-.21715-3.7893,1.69228-4.78127C350.04834,124.39922,351.60315,125.08791,352.4412,127.20656Z"/><path fill="#3d3351" d="M96.72281,211.02765c2.2898-4.14941,1.34863-8.64746,1.40747-13.03808q-1.04517-.0022-2.09082-.00391c.26343,4.08252-2.17261,7.97119-.87207,12.12842a.45262.45262,0,0,1-.59277.0166q-1.61389,17.24268-3.228,34.48486a32.66787,32.66787,0,0,0,.0415,11.686l.12818,4.04736c3.2185-.85986.65942-3.898,2.053-5.4458.31347-14.64746,3.96948-29.01562,3.64819-43.71533Z"/><path fill="#6f3737" d="M429.80251,61.97134q-1.03639-5.55-2.07382-11.09991c4.483-.95146,5.40628,1.29,3.87309,4.83052A21.55,21.55,0,0,0,429.80251,61.97134Z"/><path fill="#3d3351" d="M353.83487,132.61554c-.17187-1.87841-.02-3.84033-1.39355-5.40918-3.56543.71045-4.31519,1.62159-3.41114,5.835,1.115,5.19532,1.63843,10.45215,2.31519,15.69776q1.1466,9.394,2.293,18.78662.09631,7.25757.19287,14.51514,1.09131-.07911,2.18262-.15772a9.40209,9.40209,0,0,0-.03687-1.00488l-.00049-.00049c.04053-2.042.05469-4.08447.126-6.12549C356.59586,160.639,353.09415,146.74152,353.83487,132.61554Z"/><path fill="#2e2e2e" d="M318.07322,281.80865c2.09076,3.91141.64953,8.13334,1.07223,12.191a2.02281,2.02281,0,0,1-1.06324.161Q318.0778,287.98574,318.07322,281.80865Z"/><path fill="#494646" d="M91.34662 244.61563q.02059 5.84069.04128 11.68359l-.35641-.08142s-.35475.09076-.35445.0947C90.461 252.391 89.62858 248.43039 91.34662 244.61563zM91.51633 260.34906c2.14974-1.263.2163-4.06506 2.05281-5.44611q.08362 3.2705.16658 6.53908C92.82072 261.43183 91.695 261.85347 91.51633 260.34906z"/><path fill="#3d3351" d="M320.34805 277.29963q-.1516-1.65748-.303-3.31495-.03955-2.8601-.07886-5.71875a2.04055 2.04055 0 0 1-.856-.0288l-.001-.00147c.05566-6.24853.13574-12.51123-1.21363-18.65234-.50781-2.311-.21924-5.45508-4.01245-5.45166-.03174 7.15869 1.89478 14.07324 2.647 21.13476q.20289.98732.40479 1.97266a19.13462 19.13462 0 0 0 .90283 9.17431l.00049.002q.11755 2.69678.23486 5.39306c1.3418 3.97706-.56006 8.23926 1.07276 12.19092C321.61807 288.58185 319.30118 282.81964 320.34805 277.29963zM89.442 131.62172q.03224-13.43628.06519-26.874l.00122.001-.00024-.00147c2.20776-8.68017-1.09644-17.32959-.14429-26.00293Q88.816 77.579 88.2691 76.41518c-2.58642.42432-2.37988 2.40772-2.38232 4.27246q-.00732 5.83521-.01123 11.66992.05346.56176.10693 1.12207c.97754 1.06446.87573 2.38233.88135 3.68457.05029 11.52393.08374 23.04786.19653 34.57129.01294 1.31885-.75024 3 1.07837 3.89112 1.69263-.96924.77881-2.71875 1.30347-4.00489H89.442z"/><circle cx="88.486" cy="143.11" r="11" fill="#fbb641"/><circle cx="136.986" cy="188.61" r="15.5" fill="#26a526"/><circle cx="92.986" cy="257.61" r="12.5" fill="#d64142"/><circle cx="354.986" cy="200.61" r="20.5" fill="#fbb641"/><circle cx="429.486" cy="90.11" r="18" fill="#26a526"/><circle cx="320.486" cy="301.11" r="19" fill="#d64142"/><path fill="#d64142" d="M197.5546 65.701a29.01444 29.01444 0 0 1 1.96-11.04 22.25739 22.25739 0 0 1 13.36035-12.96 30.36951 30.36951 0 0 1 19.91992 0 23.20712 23.20712 0 0 1 8.04 4.91992 22.632 22.632 0 0 1 5.3999 8.04 29.03311 29.03311 0 0 1 1.96 11.04 29.87479 29.87479 0 0 1-1.91992 11.08008 22.36154 22.36154 0 0 1-5.31982 8.08008 22.72095 22.72095 0 0 1-8.04 4.91992 29.39958 29.39958 0 0 1-10.08008 1.68066 28.77809 28.77809 0 0 1-10.08008-1.7207 22.45262 22.45262 0 0 1-8-5A23.091 23.091 0 0 1 199.475 76.661 29.31479 29.31479 0 0 1 197.5546 65.701zm14.40039 0q0 7.28173 2.96 10.87989a10.59886 10.59886 0 0 0 15.91992 0q2.959-3.59913 2.96-10.87989 0-7.1997-2.91992-10.7998a9.70379 9.70379 0 0 0-7.96-3.59961 9.89225 9.89225 0 0 0-7.96 3.55957Q211.955 58.42218 211.955 65.701zM293.55411 89.94123a18.5629 18.5629 0 0 1-2.52.48047 25.88736 25.88736 0 0 1-3.56006.23925 18.89994 18.89994 0 0 1-3.16016-.23925 5.38978 5.38978 0 0 1-2.35986-.96 4.61258 4.61258 0 0 1-1.48-1.96 8.46823 8.46823 0 0 1-.52-3.24023V66.50177q0-3.27978-1.64014-4.60058a6.23887 6.23887 0 0 0-4.04-1.32031 11.30431 11.30431 0 0 0-3.03955.40039 8.74659 8.74659 0 0 0-2.32032.96v28a18.54715 18.54715 0 0 1-2.52.48047 25.88211 25.88211 0 0 1-3.56006.23925 18.88961 18.88961 0 0 1-3.15966-.23925 5.38936 5.38936 0 0 1-2.36036-.96 4.61664 4.61664 0 0 1-1.48-1.96 8.47789 8.47789 0 0 1-.52-3.24023V37.86115q.87964-.15968 2.6001-.43945a21.63239 21.63239 0 0 1 3.48-.28028 18.81051 18.81051 0 0 1 3.16016.24024 5.37144 5.37144 0 0 1 2.35986.96 4.62037 4.62037 0 0 1 1.48 1.96 8.49822 8.49822 0 0 1 .52 3.23926v7.84082a28.18574 28.18574 0 0 1 3.16016-.91993 19.63645 19.63645 0 0 1 4.67969-.5205q7.9204 0 12.36035 3.96 4.43994 3.95948 4.43994 11.7998zM309.7128 95.86115a8.92816 8.92816 0 0 1-2.91992 2.56055 8.26885 8.26885 0 0 1-3.79981.7998 9.25888 9.25888 0 0 1-6-2 92.06308 92.06308 0 0 0 2.96-10.20019q1.1997-5.23828 2-9.48047a16.02681 16.02681 0 0 1 3.27978-1.23926 14.63527 14.63527 0 0 1 3.83984-.52051 8.365 8.365 0 0 1 4.36036 1.12012q1.87866 1.12206 1.87988 4a16.36545 16.36545 0 0 1-.48 3.71972 29.99892 29.99892 0 0 1-1.28028 4.08008 40.86336 40.86336 0 0 1-1.7998 3.96A19.13106 19.13106 0 0 1 309.7128 95.86115zM192.59512 171.30158q-1.36157 0-3.12011-.08008-1.76075-.08056-3.64014-.32031-1.88013-.24024-3.75976-.59961a18.933 18.933 0 0 1-3.48-1q-4.40112-1.68018-4.3999-5.83985V126.10138a3.51311 3.51311 0 0 1 .91992-2.59961 6.56615 6.56615 0 0 1 2.52-1.48046 33.59884 33.59884 0 0 1 7.27979-1.48047q3.84009-.35889 6.87988-.35938a39.47683 39.47683 0 0 1 11.32031 1.51953 23.30142 23.30142 0 0 1 8.71973 4.68067 21.10188 21.10188 0 0 1 5.64014 7.96 33.32661 33.32661 0 0 1 .08008 22.51953 21.5349 21.5349 0 0 1-5.48 8 22.93075 22.93075 0 0 1-8.52 4.83984A35.56942 35.56942 0 0 1 192.59512 171.30158zm-4.48-11.68067q.87891.16115 2.15967.28028 1.27881.12012 2.40039.12012a15.017 15.017 0 0 0 5-.79981 10.03275 10.03275 0 0 0 3.91992-2.48047 11.467 11.467 0 0 0 2.56006-4.35937 19.95132 19.95132 0 0 0 .91993-6.44043q0-7.19971-3.35987-10.83985a11.60885 11.60885 0 0 0-8.96045-3.63965q-1.12061 0-2.27978.07911-1.1609.082-2.35987.24023zM246.99405 171.30158a28.04823 28.04823 0 0 1-8.76025-1.32031 19.8476 19.8476 0 0 1-7.04-3.96 18.32649 18.32649 0 0 1-4.71973-6.63965 23.53422 23.53422 0 0 1-1.72021-9.36035 21.88464 21.88464 0 0 1 1.72021-9.08008 17.57013 17.57013 0 0 1 10.91992-9.83985 23.8771 23.8771 0 0 1 7.35987-1.16015 22.2445 22.2445 0 0 1 7.72021 1.28027 18.596 18.596 0 0 1 6 3.51953 15.68812 15.68812 0 0 1 3.91992 5.36035 16.43238 16.43238 0 0 1 1.39991 6.79981 5.46094 5.46094 0 0 1-1.52 4.16015 7.60443 7.60443 0 0 1-4.24024 1.83985l-19.75976 2.96a6.64193 6.64193 0 0 0 3.60009 3.96 14.11725 14.11725 0 0 0 6.23975 1.32031 22.34893 22.34893 0 0 0 6.20019-.83984 19.73391 19.73391 0 0 0 4.75977-1.96 6.71011 6.71011 0 0 1 2.16016 2.23926 5.87268 5.87268 0 0 1-2.48 8.40039 17.79627 17.79627 0 0 1-5.75977 1.83984A40.53859 40.53859 0 0 1 246.99405 171.30158zm-2.24023-31.44043a7.92385 7.92385 0 0 0-3.31983.64062 6.68466 6.68466 0 0 0-2.28027 1.63965 6.79159 6.79159 0 0 0-1.31983 2.24024 9.16752 9.16752 0 0 0-.52 2.51953l13.68018-2.24024a6.0569 6.0569 0 0 0-1.76025-3.19922A5.896 5.896 0 0 0 244.75382 139.86115zM290.91348 171.30158a28.04828 28.04828 0 0 1-8.76025-1.32031 19.8476 19.8476 0 0 1-7.04-3.96 18.32649 18.32649 0 0 1-4.71973-6.63965 23.53422 23.53422 0 0 1-1.72021-9.36035 21.88464 21.88464 0 0 1 1.72021-9.08008 17.57011 17.57011 0 0 1 10.91993-9.83985 23.877 23.877 0 0 1 7.35986-1.16015 22.2445 22.2445 0 0 1 7.72021 1.28027 18.596 18.596 0 0 1 6 3.51953 15.68828 15.68828 0 0 1 3.91993 5.36035 16.43254 16.43254 0 0 1 1.3999 6.79981 5.46094 5.46094 0 0 1-1.52 4.16015 7.60436 7.60436 0 0 1-4.24023 1.83985l-19.75977 2.96a6.64194 6.64194 0 0 0 3.6001 3.96 14.11724 14.11724 0 0 0 6.23974 1.32031 22.349 22.349 0 0 0 6.2002-.83984 19.73365 19.73365 0 0 0 4.75976-1.96 6.71 6.71 0 0 1 2.16016 2.23926 5.87268 5.87268 0 0 1-2.48 8.40039 17.79619 17.79619 0 0 1-5.75977 1.83984A40.53838 40.53838 0 0 1 290.91348 171.30158zm-2.24023-31.44043a7.92377 7.92377 0 0 0-3.31982.64062 6.6847 6.6847 0 0 0-2.28028 1.63965 6.79157 6.79157 0 0 0-1.31982 2.24024 9.16678 9.16678 0 0 0-.52 2.51953l13.68017-2.24024a6.05677 6.05677 0 0 0-1.76025-3.19922A5.896 5.896 0 0 0 288.67325 139.86115zM327.873 169.94123a18.55258 18.55258 0 0 1-2.51953.48047 25.89271 25.89271 0 0 1-3.56006.23925 18.89994 18.89994 0 0 1-3.16016-.23925 5.38734 5.38734 0 0 1-2.35986-.96 4.61258 4.61258 0 0 1-1.48-1.96 8.46823 8.46823 0 0 1-.52-3.24023v-24a6.82075 6.82075 0 0 1 .67969-3.16016 7.4233 7.4233 0 0 1 1.96-2.36035 14.16518 14.16518 0 0 1 3.16015-1.87988 32.6317 32.6317 0 0 1 4.04-1.47949 34.06178 34.06178 0 0 1 4.48-1 30.1753 30.1753 0 0 1 4.64014-.36035 10.91462 10.91462 0 0 1 6.08008 1.48046 5.37157 5.37157 0 0 1 2.23974 4.83985 7.72862 7.72862 0 0 1-.31982 2.19922 10.04743 10.04743 0 0 1-.80029 1.96093q-1.67944 0-3.44.15918-1.76073.16114-3.43994.48047-1.68016.3208-3.16015.67969a13.94808 13.94808 0 0 0-2.52.83984z"/><path fill="#fcfbfa" d="M236.49463,431.11572c-.655,1.07666-1.27515,2.16553-1.81983,3.29248a35.09435,35.09435,0,0,0-1.53613,3.40576,27.20241,27.20241,0,0,0-1.82886,7.144,15.23634,15.23634,0,0,0,.88111,7.1831,12.68711,12.68711,0,0,0,1.79272,3.20264,18.784,18.784,0,0,0,2.511,2.772,13.71825,13.71825,0,0,1-5.01025-5.67138,13.03691,13.03691,0,0,1-1.10669-3.71436,17.28445,17.28445,0,0,1-.06226-3.87109,22.94241,22.94241,0,0,1,2.11963-7.34717A28.19885,28.19885,0,0,1,236.49463,431.11572Z"/><path fill="none" stroke="#fcfbfa" stroke-miterlimit="10" d="M84.49454,136.11567s-6,7,0,12"/><path fill="#fcfbfa" d="M87.49463 251.11572a10.15654 10.15654 0 0 0-2.04028 5.793 14.67606 14.67606 0 0 0 .26464 3.08692c.094.51562.24146 1.02441.34742 1.55078.14795.51318.30883 1.02636.42822 1.56933-.31836-.44433-.60449-.91455-.886-1.3916a15.38139 15.38139 0 0 1-.64428-1.53027 9.82764 9.82764 0 0 1-.50879-3.32178 8.0779 8.0779 0 0 1 .83984-3.27832A6.02066 6.02066 0 0 1 87.49463 251.11572zM130.49463 180.11572a22.485 22.485 0 0 0-1.533 3.94727 16.1903 16.1903 0 0 0-.61426 4.08594 12.68733 12.68733 0 0 0 .52246 4.07128 19.73432 19.73432 0 0 0 1.62476 3.89551 11.12943 11.12943 0 0 1-2.36353-3.64453 11.63181 11.63181 0 0 1-.62866-2.12549 13.62927 13.62927 0 0 1-.1543-2.21728A12.51839 12.51839 0 0 1 130.49463 180.11572zM347.49463 187.11572a17.95381 17.95381 0 0 0-2.19775 2.30811c-.33814.40429-.64649.83349-.96094 1.25244-.27661.44775-.582.87451-.83252 1.3335a16.44853 16.44853 0 0 0-2.06177 5.83837 11.37547 11.37547 0 0 0-.15576 1.543l-.05689.77539.0398.77735c.03125.51806.0271 1.0415.08594 1.55859.09472.51318.17675 1.02881.25366 1.54834.04541.2583.06714.52246.13183.77686l.21631.75879.43189 1.52587c.32934 1.00684.76391 1.97852 1.1062 3.00342-.543-.91992-1.07227-1.86181-1.56323-2.82568l-.57862-1.51758-.28882-.76269c-.08911-.25684-.13574-.52637-.20581-.78956-.13134-.52929-.25781-1.06152-.37133-1.59716-.08545-.53955-.10767-1.08985-.16382-1.63623l-.05933-.82227.04639-.82471a11.99365 11.99365 0 0 1 .144-1.645 14.62392 14.62392 0 0 1 2.40015-6.09082A14.92436 14.92436 0 0 1 347.49463 187.11572zM311.49463 291.11572a18.73623 18.73623 0 0 0-2.36475 4.47071 15.39928 15.39928 0 0 0-.9768 4.854 8.24067 8.24067 0 0 0-.00245 1.2373 7.87415 7.87415 0 0 0 .09327 1.23584l.16552 1.23438.29859 1.21387.14624.61132.20923.59327.41626 1.19629c.29223.79589.70166 1.54248 1.01489 2.353-.50562-.69043-1.00708-1.40039-1.45752-2.14258a15.3187 15.3187 0 0 1-1.075-2.38183 13.41014 13.41014 0 0 1-.80737-5.19483 13.13158 13.13158 0 0 1 1.25781-5.10986A12.49837 12.49837 0 0 1 311.49463 291.11572zM421.49463 81.11572a16.9092 16.9092 0 0 0-2.05274 4.00977 14.32573 14.32573 0 0 0-.85058 4.31885 8.18689 8.18689 0 0 0-.00708 1.10009 6.93221 6.93221 0 0 0 .07446 1.09912l.12891 1.10059c.08886.35889.16894.7207.2456 1.08545a6.5078 6.5078 0 0 0 .29151 1.07959l.33984 1.07617c.23755.71777.57861 1.395.83008 2.13037-.44678-.62011-.88062-1.26269-1.27734-1.92968a13.95926 13.95926 0 0 1-.9336-2.13916 12.33579 12.33579 0 0 1-.69067-4.64942A11.73352 11.73352 0 0 1 421.49463 81.11572z"/></svg>