<svg xmlns="http://www.w3.org/2000/svg" data-name="Layer 1" viewBox="0 0 512 512"><path fill="#f9f9f9" d="M460.64037,355.28556h-.04164l-.14812.00035a23.63751,23.63751,0,0,1-21.55748-13.15215l-4.40092-9.077a23.4935,23.4935,0,0,1,1.9376-24.14611,24.2686,24.2686,0,0,0-.40684-29.33262,23.63945,23.63945,0,0,1-3.29035-23.93137l6.41545-14.87218a23.77228,23.77228,0,0,1,20.65637-14.19918q.16065-.00888.32168-.01967a26.8808,26.8808,0,1,0-6.6351-53.26633,23.85018,23.85018,0,0,1-23.54637-8.96546l-6.96909-9.34011c.429-.09233.86082-.17651,1.284-.28514a23.72933,23.72933,0,0,0,13.46946-8.53806,12.32086,12.32086,0,0,0,1.311-2.23439,46.6179,46.6179,0,0,0,2.38209-6.72731c.47341-1.63475.97307-3.47406,1.48676-5.46726q.74066-2.87982,1.48086-5.9633c.51414-2.13983.98121-4.248,1.39081-6.27558.40325-2.00406.74314-3.876,1.01289-5.58041a39.35587,39.35587,0,0,0,.563-6.05925,22.163,22.163,0,0,0-9.9153-19.00869l-.01946-.01176a25.50856,25.50856,0,0,0-13.9655-4.02079h-.05839a29.44255,29.44255,0,0,0-7.11061.8753,27.542,27.542,0,0,0-5.7284,2.11992,30.31214,30.31214,0,0,0-6.13754-.61823,31.67491,31.67491,0,0,0-6.78792.70513q-.26006-.14476-.52391-.283A11.74961,11.74961,0,0,1,390.986,75.90781a24.30015,24.30015,0,0,0-.19723-6.38623l0,0A24.60144,24.60144,0,0,1,419.371,61.49411a23.63739,23.63739,0,1,0-11.84524-34.37736A23.86739,23.86739,0,0,1,386.5363,38.83767l-43.80118-1.26789a21.81723,21.81723,0,0,0-9.701-15.60976,25.53881,25.53881,0,0,0-13.98542-4.02169h-.03032a29.65338,29.65338,0,0,0-11.5247,2.27833,24.89126,24.89126,0,0,0-6.53492-1.96424,22.18605,22.18605,0,0,0-5.85829-6.63493,22.83294,22.83294,0,0,0-9.98273-4.26972,34.30909,34.30909,0,0,0-5.76235-.4725h-.0344a36.68386,36.68386,0,0,0-5.84563.468q-1.66665.26883-2.51729.42362c-.47454.086-.93855.19778-1.39855.31817a24.107,24.107,0,0,0-3.12823-.76171,34.253,34.253,0,0,0-5.74515-.4725,38.72346,38.72346,0,0,0-5.89722.468q-1.66666.26883-2.5173.42362A18.53033,18.53033,0,0,0,238.841,18.01708a40.64513,40.64513,0,0,0-6.47325-.52591h-.06064a39.87415,39.87415,0,0,0-10.14889,1.2772,21.84368,21.84368,0,0,0-4.16375-4.13212,23.24737,23.24737,0,0,0-9.46905-4.19549,32.54481,32.54481,0,0,0-6.32084-.59742h-.033a40.19173,40.19173,0,0,0-5.71437.42181c-1.34871.19552-2.33264.35212-2.95087.46345a18.52,18.52,0,0,0-4.31181,1.32971,24.23168,24.23168,0,0,0-5.16357-1.65014,32.46095,32.46095,0,0,0-6.30138-.59651,38.95142,38.95142,0,0,0-5.77865.42272c-1.34418.19642-2.32449.353-2.94.46345A18.53727,18.53727,0,0,0,153.7505,28.919h0a8.07974,8.07974,0,0,1-6.88436,7.98023L135.93076,38.5351a24.29582,24.29582,0,0,1-23.63033-10.23022c-2.97388-4.33057-7.36665-6.99658-14.09107-6.99658A25.02631,25.02631,0,1,0,113.709,65.96152L129.34,96.10976a31.445,31.445,0,0,0-3.93237,3.31882,30.84486,30.84486,0,0,0-9.12372,21.94418l.0001.127a19.33743,19.33743,0,0,1-11.80962,17.826l-1.33858.56571a18.59574,18.59574,0,0,1-20.61508-4.06992c-3.84768-3.98817-9.43836-6.06589-16.28941-6.06589a23.63647,23.63647,0,1,0,8.61236,45.64317,6.05557,6.05557,0,0,1,7.25563,2.11185l24.43437,35.43493a6.02633,6.02633,0,0,1-.3323,7.26234,26.73544,26.73544,0,0,0-6.13822,17.06811l.00005.048a6.194,6.194,0,0,1-4.58651,5.98755L72.43342,249.5041a5.98348,5.98348,0,0,1-6.47552-2.34536,25.01282,25.01282,0,1,0-15.96918,38.81609A17.87376,17.87376,0,0,1,70.24536,297.165l4.66539,12.65484a17.80333,17.80333,0,0,1-.734,13.97953,23.58931,23.58931,0,0,0,.59873,21.8155,18.10959,18.10959,0,0,1,.33713,17.48839l-.03352.062a17.554,17.554,0,0,1-17.50245,9.21561,30.90573,30.90573,0,0,0-3.81773-.24092h-.04254a30.72736,30.72736,0,0,0-24.37019,11.94023,30.3,30.3,0,0,0-6.20325,14.93332A30.83333,30.83333,0,0,0,53.677,433.77878h.04209A30.86338,30.86338,0,0,0,82.3162,414.4292a6.01563,6.01563,0,0,1,6.8195-3.70107l15.69854,3.34117a6.0048,6.0048,0,0,1,4.45769,4.00794l.0081.0248.11043.33854q.98645,3.07215,1.97706,6.143a5.95131,5.95131,0,0,1-3.9197,7.53757c-2.76951.83014-5.55054,1.74516-8.3311,2.76463a54.80984,54.80984,0,0,0-16.60636,9.07439c-11.0798,9.23731-12.91821,24.03875-4.27514,34.43016a34.58741,34.58741,0,0,0,10.44618,8.63719,91.955,91.955,0,0,0,21.19243,7.66231c13.00873,3.26316,25.63186,4.91782,39.60234,6.596,5.53243.6644,11.288,1.19936,17.59843,1.63565,2.29507.15841,4.59195.28513,6.88929.41095,3.226.17651,6.27332.34306,9.26809.601,2.83094.24259,5.54828.30685,7.94609.36388,1.42746.0344,2.77617.06608,4.033.13034,5.14909.26432,10.21717.3322,15.1187.39828,2.778.03711,5.55642.07332,8.33621.14845,3.44963.09142,7.15406.1747,11.006.1747,4.74856,0,9.72069-.12582,14.71228-.516,2.57477-.20095,5.46409-.181,8.524-.16746a123.03484,123.03484,0,0,0,13.32328-.42815c.90518-.09051,2.215-.09866,3.60169-.10681a66.07585,66.07585,0,0,0,8.60415-.46435c.84046-.11224,2.1765-.1403,3.59038-.17017,1.43561-.02988,3.06312-.06427,4.8273-.19281,5.327-.3856,10.53761-.75763,15.72472-1.07173,5.24911-.31771,10.343-.81284,15.11191-1.29259,5.86056-.59017,11.6401-1.28716,16.519-1.89091,5.15814-.63815,11.264-1.42112,17.44364-2.3969,10.004-1.57954,18.74031-3.34282,26.71038-5.39123a134.94014,134.94014,0,0,0,21.01637-6.98434,43.84968,43.84968,0,0,0,12.8983-8.4833,26.60623,26.60623,0,0,0,5.98072-8.47426c.35376.0181.70944.02851,1.06743.029h.034a21.29231,21.29231,0,0,0,11.31522-3.135,21.79932,21.79932,0,0,0,6.69721-30.87272,11.56963,11.56963,0,0,1-.07778-13.09094v0a11.4576,11.4576,0,0,1,13.18626-4.34923,30.86886,30.86886,0,0,0,10.056,1.68858h.04164a30.949,30.949,0,0,0,24.43331-11.87718,30.61811,30.61811,0,0,0,6.35739-15.1144A31.08876,31.08876,0,0,0,460.64037,355.28556Z"/><path fill="#4c63b7" d="M389.30988,191.47046c-1.18825-.98833-2.32768-2.04341-3.57266-2.95423-8.26595-6.04728-17.11053-6.21443-26.06211-1.99172-4.61727,2.17812-7.33927,6.37339-9.18353,11.076-2.3396,5.96564-2.83545,12.18916-2.569,18.51819.03247.77137.02934,1.54418.04272,2.31633a2.42555,2.42555,0,0,0-2.48677.928c-1.30291,1.78428-2.53034,1.30421-3.71373-.20013a4.74483,4.74483,0,0,0-2.13524-1.98188c-.286,1.05191.39065,1.82194.63255,2.66619.23545.8217,1.07777,1.79579.71786,2.40478-1.47822,2.50093.34913,3.30464,1.85027,4.56926,1.34051,1.12928,1.17077,3.37782,2.68171,4.52117,1.20242-.53816.49582-2.46179,1.99187-2.49607a3.4636,3.4636,0,0,1,3.04921,2.04721,3.93827,3.93827,0,0,1,.48485.87239c3.18543,12.337,7.3866,24.37519,10.77738,36.6509a219.12735,219.12735,0,0,1,5.82888,30.92849,181.86779,181.86779,0,0,1,1.61612,18.25865,32.81791,32.81791,0,0,1-1.3,10.46427c-.64561,2.117-1.68113,4.03673-4.39054,3.994a3.27708,3.27708,0,0,1-2.31415-1.00226,7.4429,7.4429,0,0,0-1.56063-.94047,3.81233,3.81233,0,0,1-.51646-.30789c-.24478-.17335-.48149-.359-.73724-.51795-.3755-.1908-.77952-.31071-1.16435-.48342a3.14036,3.14036,0,0,1-1.76471-2.04c.33939-1.81561,2.66078-.84779,3.16349-2.15291.48017-1.2465-1.14009-2.52453-.24544-3.94232a1.83823,1.83823,0,0,0,.25964-1.6317c-1.09576-.37171-2.1925.611-3.37.23652-.56257-.17888-.9332.38948-1.00751.93377-.31115,2.27883-1.96319,3.28716-3.82077,4.12183-2.37818.0394-3.98582-1.731-6.00235-2.54856a2.74914,2.74914,0,0,1-.59388-.53632c-2.14536-3.83746-5.79135-5.30645-9.81126-5.98292-7.36725-1.2397-14.61276-1.07951-21.47,2.42046-1.15745.59075-2.1334,1.47266-3.33216,1.98634a25.77162,25.77162,0,0,1-3.08089.75359,21.181,21.181,0,0,0-3.3591.80953c-.96.15728-1.9722.90265-2.82679-.22789-.36158-1.25406.51441-1.68366,1.41533-2.04145.95356-.37867,1.61577-1.07309.81961-1.89884-1.03347-1.07186,1.36862-3.12634-.75817-3.25323a18.91517,18.91517,0,0,1-3.65871-.17364c-.93291-.231-1.09466.71047-1.04267,1.38077A6.60865,6.60865,0,0,1,294.75,320.332c-1.19916,1.26462.02593,1.4786.9695,1.70406,1.15208,1.39768-.25641,1.74288-1.00564,2.10608-1.50781.731-3.06063,1.37488-4.55013,2.149a34.86,34.86,0,0,0-3.298,1.65612,18.82719,18.82719,0,0,1-5.75859,2.66306,5.39746,5.39746,0,0,1-1.5543.06729c-1.70115-.39258-2.89531-1.2828-3.07739-3.15714-.60652-4.51079.72419-8.67853,2.324-12.78025,1.71547-4.39813,3.6459-8.7094,5.24-13.15879,1.27954-3.57159,1.77773-7.34018,2.921-10.94121,1.22967-2.16607,2.24474-4.55968,5.539-3.9043.822.16354,1.30367-.6612.85314-1.39617-.90051-1.46888-.47739-2.72127.18134-4.11215.49566-1.04649.12-1.83521-1.16545-1.188-2.14476,1.08-2.9873-.04371-3.52748-1.864a94.76913,94.76913,0,0,1,1.19967-12.8575c1.1628-9.14761,2.35529-18.28863,2.79985-27.50558a37.771,37.771,0,0,1,4.181-14.55514c2.08616-4.34928,4.27787-8.64834,6.45352-12.95414,3.38057-6.69043,6.72756-13.3989,10.2009-20.04109a80.32788,80.32788,0,0,1,10.08773-15.299c6.87238-7.99693,15.22484-13.64971,25.62242-16.03007a40.0576,40.0576,0,0,1,25.53306,2.43881,47.99811,47.99811,0,0,1,7.22328,3.38895c.54653,1.60853.51147,3.03313-1.18225,3.99207-.35994.2038-.79631.511-.64908.99818.17894.59217.77711.60475,1.27888.61248,1.89036.02916,3.72827-.02056,5.11918,1.72464.72447.909,1.35458.05076,1.75734-.628.71577-1.20646,1.6447-1.70645,2.99589-1.04444a50.2674,50.2674,0,0,1,17.764,20.33574,63.16554,63.16554,0,0,1,6.412,22.1672,29.42025,29.42025,0,0,1-1.10335,11.73553c-2.261.6482-2.31725-1.89078-3.87765-2.67928a2.356,2.356,0,0,1-2.36756,2.64424c3.45282,1.66345,2.29992,5.22,3.66807,7.6679-2.38634,6.35945-5.38721,12.351-10.2976,17.19922a.96708.96708,0,0,1-.96017-.127,14.44967,14.44967,0,0,0-7.08506-4.3046,91.93615,91.93615,0,0,0,3.66048-14.71523c1.3824-10.09576,1.28577-20.03873-2.49661-29.68808a4.08067,4.08067,0,0,1-.144-.75082,6.65191,6.65191,0,0,1,2.218-1.73163c1.24122-.4983,1.124-1.22346,1.06759-2.4113-.11991-2.52405-1.06547-3.30917-3.51338-2.77233C392.51325,193.40054,391.12281,191.62016,389.30988,191.47046Z"/><path fill="#d64142" d="M236.61624,266.74406a36.72783,36.72783,0,0,1,.66063,13.04543c-.35868,3.42189-1.20266,6.78573-1.24429,10.25076a18.07813,18.07813,0,0,0,.44586,4.09678,7.30775,7.30775,0,0,0,3.39619,4.9613c.95541.58227,1.90869,1.17523,2.81227,1.833a11.36457,11.36457,0,0,1,1.93987,1.69488c1.59084,1.84234.8999,3.77052-1.49091,4.10238a17.459,17.459,0,0,1-4.64181-.12126c-1.02466-.133-2.04573-.29383-3.06842-.44216a21.92461,21.92461,0,0,1-7.61841-.25828c-.7276-.04854-1.40462-.35337-2.13182-.40567a104.89832,104.89832,0,0,0-10.52122-1.11388,2.66508,2.66508,0,0,1-2.78725-1.86551c-1.5337-6.23632-5.31387-10.286-11.61334-11.83368-5.0987-1.25263-10.183-2.46751-15.51778-1.28577-3.75841.83255-6.72136,2.55349-8.33044,6.18592a7.25119,7.25119,0,0,0-.49969,5.02726c.24552.88381.6989,1.81036-.04011,2.69923a3.3369,3.3369,0,0,1-2.03437.55185c-3.41551.09037-6.8557-.62278-10.245.32437a12.09883,12.09883,0,0,1-2.16875.25739c-3.58921.77317-7.2687.988-10.85712,1.76686a2.88858,2.88858,0,0,1-2.21855-.34708c-3.04478.58465-6.07773,1.23269-9.16427,1.58279a9.24977,9.24977,0,0,1-2.82936-.0664,4.18692,4.18692,0,0,1-3.532-5.31271,10.91508,10.91508,0,0,1,3.13921-5.55549c9.18226-9.11633,15.54761-20.14424,21.525-31.45073,2.0157-3.81277,3.82067-7.71575,5.47492-11.6943a5.20538,5.20538,0,0,1,1.05848-2.03671c4.06436-6.36046,10.22176-10.26774,16.47988-14.05581.44058-.26669.92643-.46116,1.34446-.76089.47258-.33889,1.18968-.69427.77965-1.38915-.40276-.68253-1.10425-.25638-1.61193-.01619-1.86586.883-3.53533,2.11931-5.36285,3.068-.76855.399-1.456,1.34269-2.532.67805a41.21488,41.21488,0,0,0,6.58783-11.61306,9.93773,9.93773,0,0,1,.65686-1.40116c2.45315-4.32151,5.42452-8.34016,7.38-12.95986a9.91546,9.91546,0,0,1,2.41036-3.00232,95.60841,95.60841,0,0,0,15.23675-18.78592c2.11139-1.3202,4.02717-2.963,6.41634-3.82828.46014-.16665,1.055-.50047.7813-1.11716-.2567-.57836-.88123-.35483-1.38292-.27532-1.90207.30152-3.126,2.14374-5.1137,2.25062-1.10125-3.13451-3.16024-5.698-5.02924-8.3678a62.32361,62.32361,0,0,1-9.70073-21.22283,13.67875,13.67875,0,0,1,1.45688-10.22107,44.56579,44.56579,0,0,1,9.14715-11.43361,2.79911,2.79911,0,0,1,1.87067-.65771c2.03517-.13721,1.4821-.99859.5549-1.968a88.1638,88.1638,0,0,1,7.28016-8.69293q7.24523-7.72494,14.59207-15.35434c.81051-.84517,1.77056-2.02695,3.06112-1.0246,1.23228.95707.47544,2.18506-.1083,3.25533-3.872,7.09906-7.808,14.164-11.60434,21.3032a102.462,102.462,0,0,0-7.03895,16.0459c-1.68713.6156-3.46005-1.16234-5.30638.28437,1.36873,1.40414,3.70771.70813,4.82642,2.33614-.002,1.03023.03149,2.06194-.01178,3.09044-.26758,6.362,2.04736,11.74978,6.14032,16.49109a79.52758,79.52758,0,0,0,9.50721,9.07532c2.04948,1.70393,4.10713,3.40523,6.06027,5.21647,4.96619,4.60528,6.5947,10.286,5.23176,16.87414-1.06468.02963-1.124-.92073-1.41735-1.55435a10.285,10.285,0,0,0-2.64495-3.42642c-.54246-.47452-1.178-1.4698-1.88286-.85455-.75639.66021.137,1.41126.65627,1.881,3.20843,2.90227,3.92367,6.66618,3.83135,10.73107a50.51341,50.51341,0,0,1-2.35141,8.42115,68.059,68.059,0,0,0-3.12552,12.491,32.97568,32.97568,0,0,0,1.25631,13.52455,31.70614,31.70614,0,0,1,1.76215,10.11252c-.03481,1.36628.17537,2.73879.274,4.10848-1.48073-.11956-1.74586-1.504-2.42761-2.4105a62.84444,62.84444,0,0,0-4.05186-5.01527c-.42483-.45841-1.0052-1.2392-1.68943-.50483-.4956.53189.08409,1.12716.46824,1.57646,2.63472,3.0814,4.86222,6.45821,7.21139,9.75084C234.49764,263.55094,234.92755,265.58126,236.61624,266.74406Z"/><path fill="#ece4f6" d="M238.49586,434.74717c9.3356.00007,18.67124-.01226,28.00678.01525,1.22582.0036,2.26675-.03855,2.2173-1.6522,1.127.188,1.11713,1.19613,1.33418,1.966,1.09478,3.88341,2.089,7.79979,4.70014,11.03911a1.04362,1.04362,0,0,1,.1151,1.204c-2.16135.89936-4.5359.78954-6.76221,1.45855a35.5338,35.5338,0,0,0-7.64864,3.04861,13.96713,13.96713,0,0,0-3.29811,2.4597c-4.9355,5.25452-3.34212,11.32619,3.67413,12.82838,10.93541,2.34131,21.1808.69218,30.16694-6.46115a3.08467,3.08467,0,0,1,2.72213.32677,26.22587,26.22587,0,0,0,16.88984,1.76635c3.03163-.63852,6.05526-1.32169,9.10564-1.878a23.35182,23.35182,0,0,1,9.23611.01281c3.40463.73917,6.85357.57439,10.29257.57758,1.77289.00162,3.00124.6151,3.39543,2.45265,1.29263,3.661,3.126,5.15252,6.71108,5.35141a56.1604,56.1604,0,0,0,20.8363-2.87624,16.20545,16.20545,0,0,0,5.03852-2.56244c2.60114-2.04875,2.64566-4.81214.16022-7.02141a7.49031,7.49031,0,0,0-2.41021-1.476c-4.35721-1.57529-8.66557-3.41058-13.47551-2.87776-1.19764-.19959-1.77128-.95726-1.069-1.96389,2.2392-3.20931,4.07319-6.65438,6.07862-9.99941.06827-.11386.30138-.0922.47884-.06713.2111,1.35907,1.29814,1.4091,2.32623,1.57694a128.03557,128.03557,0,0,1,21.50287,5.29987,30.50155,30.50155,0,0,1,9.8389,5.05268c3.78171,3.16637,4.13489,6.66476.7874,9.88545a25.77723,25.77723,0,0,1-7.55732,4.89341,115.21107,115.21107,0,0,1-18.12281,5.97855c-8.24078,2.11905-16.59324,3.71022-24.98434,5.03463-5.58671.88178-11.20629,1.61526-16.82743,2.31054-5.3613.6631-10.7327,1.30361-16.10093,1.8437-4.77742.48051-9.57053.94243-14.3767,1.23315-5.31552.32171-10.63158.702-15.942,1.08682-3.18294.23058-6.38864.05767-9.52722.47633-3.87467.51675-7.76219.11675-11.60423.50139-7.1478.71558-14.32461.00284-21.443.55906a227.04872,227.04872,0,0,1-23.78181.29122c-7.668-.2049-15.346-.13565-22.99819-.52788-3.78344-.1939-7.579-.12806-11.34474-.45173-5.48411-.47147-10.981-.65652-16.46674-1.03546-5.56355-.38433-11.12554-.88217-16.66216-1.54747-12.52331-1.50478-25.04219-3.09608-37.3035-6.17185a73.78141,73.78141,0,0,1-16.98655-6.04154,16.41607,16.41607,0,0,1-4.91056-4.13011c-1.99515-2.39829-1.25741-5.71,1.89371-8.33715a36.6193,36.6193,0,0,1,11.11882-5.90832c9.64021-3.53491,19.62892-5.734,29.68247-7.66932a11.17673,11.17673,0,0,0,1.97972-.5516c1.58007.7109,2.32109,1.60043.6421,3.00927-2.7023.502-5.48439.61987-8.04338,1.813a13.43851,13.43851,0,0,0-3.88825,2.52007c-3.78919,3.74718-3.09858,8.73242,1.63428,11.15765a36.15478,36.15478,0,0,0,11.92061,3.28735,84.94376,84.94376,0,0,0,22.17882.31061,23.15042,23.15042,0,0,0,2.79657-.52421c5.7748-1.48293,7.02571-3.05272,7.06-8.86595.47982-1.22155,1.59246-1.50352,2.6865-1.734,7.16136-1.509,14.17468-1.25131,20.93948,1.82829a3.86807,3.86807,0,0,1,2.33007,1.89558c.13659,4.97487,1.283,6.4904,6.17193,8.149a31.16485,31.16485,0,0,0,8.88138,1.649c6.9675.24433,13.96116.72064,20.90848-.41449a21.16243,21.16243,0,0,0,7.0443-2.47757c3.50261-1.97852,3.882-4.63355,1.14432-7.522a21.62155,21.62155,0,0,0-7.071-4.68287A7.677,7.677,0,0,1,231.795,452.031a1.74506,1.74506,0,0,1,.1563-1.9382c2.51064-4.06807,3.67437-8.65514,5.13134-13.13327C237.35222,436.13107,237.27456,434.99983,238.49586,434.74717Z"/><path fill="#4c0e93" d="M197.27872,459.02083c-3.45369-2.50937-7.47528-3.50575-11.58439-3.97738a38.28394,38.28394,0,0,0-12.83837,1.00662,2.52988,2.52988,0,0,0-1.31746.76643A19.45384,19.45384,0,0,1,161.461,458.029c-4.672-.64039-9.34239-1.19831-13.81716-2.85221a17.19452,17.19452,0,0,1-9.3779-8.66412c.20163-1.06408-.53066-1.7137-1.084-2.44272q-5.06767-15.64628-10.12123-31.29716a11.38684,11.38684,0,0,1-.86152-4.25362,1.60639,1.60639,0,0,1,1.1219-.96985,91.6363,91.6363,0,0,0,18.75514-9.54489,2.65489,2.65489,0,0,1,1.45915-.44984c1.34293.10144,1.54864,1.18838,1.7875,2.16509a69.16786,69.16786,0,0,0,3.61219,9.80694c.63032,1.48887,1.379,2.922,2.12417,4.356a81.8669,81.8669,0,0,0,9.18435,14.22125,30.83961,30.83961,0,0,0,2.22313,2.27883c3.47639,3.42727,7.57746,6.01687,11.62849,8.67335a12.74972,12.74972,0,0,0,1.85144,1.11859c2.33651,1.21969,4.67123,2.43593,7.43851,2.18113.75634.01075,1.51262.00136,2.26773.00449,4.44965-.48732,7.80929-3.10458,11.16864-5.71619.16267-.17778.33768-.34306.51242-.50746.08382-.08449.174-.16341.258-.248,2.4099-2.73648,5.62763-4.65609,7.75185-7.68175a100.7245,100.7245,0,0,0,12.143-17.58038c.21271-.41793.43409-.83185.64089-1.25377.09327-.2173.203-.42568.31384-.63394a52.768,52.768,0,0,0,3.33443-7.87913c.59951-1.05285.48338-2.524,1.8267-3.14375a3.4113,3.4113,0,0,1,2.50072,1.134,38.53291,38.53291,0,0,0,11.72836,7.21337,1.85492,1.85492,0,0,1,1.2757,1.16306,63.73918,63.73918,0,0,1-1.69016,15.5418c-.8448,4.02008-1.93833,7.98794-2.92143,11.979-.86413,2.77775-1.70114,5.56432-2.59956,8.33093a47.5002,47.5002,0,0,1-3.98361,8.63089c-1.178,3.05711-3.74256,4.79962-6.51286,5.88808-7.83592,3.07871-16.069,3.65756-24.39368,3.001A5.294,5.294,0,0,1,197.27872,459.02083Z"/><path fill="#7c1e66" d="M364.99208,440.41868a47.64614,47.64614,0,0,1-5.96078,10.13374c-.40784.50106-.99141,1.18167.30338,1.3707a33.52343,33.52343,0,0,1-13.21843,9.468,8.20069,8.20069,0,0,0-4.03221,2.94521c-.61266-2.1421-.6138-2.1673-2.84561-2.06725a43.10714,43.10714,0,0,1-10.77573-.68931,25.10966,25.10966,0,0,0-10.72293.3995,107.34873,107.34873,0,0,1-10.8601,2.0818,25.62888,25.62888,0,0,1-13.28844-2.2947c-.823-.35492-1.5535-1.19-2.61442-.69412a32.32691,32.32691,0,0,1-9.63295-8.81887,2.81418,2.81418,0,0,1-.86749-2.58536,4.16973,4.16973,0,0,0,1.48479-3.88141c-.02277-1.52-.05657-3.04188,1.18664-4.20111,1.1523-1.35072,1.13576-3.09129,1.20723-4.64891a64.38127,64.38127,0,0,1,6.71661-24.925c.33183-.69582.54938-1.44315.86275-2.14957.5134-1.08675.85987-2.25056,1.45937-3.29459.27444-.47792.5011-1.18664,1.32792-.75438a31.16705,31.16705,0,0,1,1.07572,8.88148,25.8832,25.8832,0,0,0,.42524,6.67007c.2819,1.02762.5434,2.12544,2.04559,1.46879.91125-.38558,1.18923.22983,1.50462.8963.207.43732.07071,1.40084,1.08292.89038.41557-.45948.6243-1.06173,1.086-1.48365,1.93011-.775,1.48271.91843,1.55954,1.67825.25961,2.56756.01708,5.15466.07251,7.73358a14.9352,14.9352,0,0,0,.221,3.84451c.99157,4.239.92406,8.69321,2.41667,12.82006.65006,1.79734.613,4.079,2.80725,5.03751.80121-.66436.13315-2.20825,1.50863-2.521.77544.38223.939,1.17826,1.27253,1.864,1.372,2.82075,3.40276,3.10072,5.59394.61224a65.7246,65.7246,0,0,0,9.0515-13.112c.67372-1.2952,1.28995-2.61914,1.913-3.94055,1.77156-3.29427,2.41243-6.98713,3.69384-10.4568a.75582.75582,0,0,1,.67748-.38006,1.09291,1.09291,0,0,1,.57856.55732c.788,5.34072.1989,10.62314-.695,15.89138a15.21578,15.21578,0,0,0-.47008,3.829c.0351.41651.0549.922.52728,1.08634.51694.17976.74667-.28953.98114-.62816.29338-.42365.48067-.91631.79046-1.32982.74344-.99233,1.25813-.67137,1.56419.32823a14.38239,14.38239,0,0,1,.21345,3.32988c.36506,1.8989,1.33465.76327,2.1476.41357a17.33064,17.33064,0,0,0,6.67841-10.39477c1.26978-6.29185,1.10443-12.65835,1.11429-19.02081.002-1.3075-.26953-2.737,1.326-4.19743,1.66231,5.6033,1.80679,11.038,2.18023,16.43153.42948,1.44021-1.13886,3.359,1.048,4.37277,1.30487-1.402,1.68179-3.19341,2.10023-4.95033,1.58156-6.64079,4.55384-12.814,6.46706-19.34069.80656-.74328,2.23852-.53958,2.713-1.79275.96182-1.647,1.19531-4.30223,4.23905-3.08178,1.352,2.64332,2.60671,5.34473,4.73828,7.50169a1.2173,1.2173,0,0,1,.365,1.3888A152.21667,152.21667,0,0,1,364.99208,440.41868Z"/><path fill="#913808" d="M283.67594 441.98506c-1.54953 1.08763-.86465 2.74018-1.05469 4.17153-1.26585-.00727-1.42038-1.09927-1.78646-1.91348a29.39419 29.39419 0 0 1-2.20193-6.62013c-1.9168-10.259-4.68363-20.35228-5.99451-30.72883a7.348 7.348 0 0 0-.48355-2.00481c-5.67679-13.24078-4.63934-26.25047 1.43663-39.04458 3.65229-7.6905 8.90371-14.31924 14.17076-20.92212 1.03486-1.548 2.31339-2.91827 3.35078-4.46263.00224-.21357.36152-.24086.27694-.48428-.02995-.0861-.06179.02726-.10954.236-.07621.33293.00848-.11817-.14242.19877-.96131 1.44014-2.17356 2.6837-3.12045 4.13036-8.98441 11.72718-18.53123 23.07026-25.14444 36.4227-2.053 4.14522-4.32463 8.24887-4.59885 13.04141a.99767.99767 0 0 1-.7285.96c-.85781-.41809-.51564-1.10392-.39044-1.7413a110.71307 110.71307 0 0 1 1.66893-11.80826 7.60489 7.60489 0 0 1 .45643-1.15913c1.96768-1.78216 2.61238-4.3698 3.90813-6.55531a132.35639 132.35639 0 0 1 10.81966-15.9692c-3.5653 4.268-8.39142 8.58424-11.44661 14.32a3.26343 3.26343 0 0 0-1.34267.64621c-.22582.19058-.56033.20443-.74254.46483a.35455.35455 0 0 0-.20329.29376.77328.77328 0 0 1-.52078.62723c-1.80107 1.71288-2.81143 4.04069-4.52664 5.82032-.93213-1.01567-.25926-1.9316.21594-2.82075a87.23747 87.23747 0 0 1 14.10816-19.011c8.54219-8.96031 17.60144-17.48207 24.3154-28.035a44.81429 44.81429 0 0 0 4.01365-7.78954 2.38341 2.38341 0 0 1 2.244-1.556c.88571 1.11123 1.82956-.26894 2.73345.06378.73458-.44459 1.12643-.12557 1.20393.61727a24.32836 24.32836 0 0 0 .27112 2.80833c.66034-1.30525-.13727-3.31575 1.6164-4.38166 1.0718.00784 2.01941-.69048 3.11492-.54764-.29926 2.16951-1.6718 4.10987-1.3634 6.41033a18.25169 18.25169 0 0 0-1.22187 10.6361 12.11054 12.11054 0 0 1-.05419 4.6325c1.36049-3.68748 2.789-7.911 5.65914-11.43766 1.07271-.1987 1.99092-.07949 2.367 1.15205a19.70289 19.70289 0 0 1-2.41676 5.40931 59.16647 59.16647 0 0 0-4.82539 12.81187 215.35184 215.35184 0 0 1-7.77855 24.67066 68.59494 68.59494 0 0 0-4.67456 29.42131 4.80559 4.80559 0 0 1-.209 2.79267c-.97684 1.24251-1.08909 2.90043-2.00464 4.17239-1.43911-2.05932-.94993-4.517-1.10645-6.7398a60.79612 60.79612 0 0 1 2.34779-22.45693c.21392-.68931.24117-1.522.63166-1.80819-2.98179 9.17056-8.50943 17.6-11.3482 27.15683-3.28362 11.05438-4.30842 22.129.2616 33.13785A4.78676 4.78676 0 0 1 283.67594 441.98506zM362.41475 411.44115c-.57481 1.01307-1.337 1.57507-2.54739 1.05823a2.80222 2.80222 0 0 1-.74069-2.38375c.08781-10.01266-2.18482-19.67942-4.3759-29.34383-2.8419-12.53532-6.63-24.82178-10.05633-37.20257-1.4803-5.3491-1.79955-10.8698-2.70451-16.30182a49.87669 49.87669 0 0 1 2.37932-5.99189 3.27575 3.27575 0 0 1 .445.09313c1.07455 2.72769 1.10282 5.71151 2.16525 8.467a10.07745 10.07745 0 0 0 3.39619 4.70953c6.05621 4.57819 12.42619 8.71968 18.40408 13.41027a74.628 74.628 0 0 1 8.81144 8.69625 106.56993 106.56993 0 0 1 14.5 19.14353 7.96084 7.96084 0 0 1 1.4607 3.54892c.03412.7849-.25993 1.37751-1.08574 1.4798-.89162.11052-1.20321-.6007-1.36849-1.26481-1.594-6.40413-6.07462-10.8244-10.46633-15.30914-1.2-.36317-1.73577-1.44056-2.47266-2.29951a4.79137 4.79137 0 0 0-.63426-.69029 1.365 1.365 0 0 1-.26369-.41053 1.08119 1.08119 0 0 1-.071-.11757s.03662.05616.0469.06878a1.37521 1.37521 0 0 0 .37641.54894 4.32241 4.32241 0 0 1 .59261.67877c.63928.92742 1.55819 1.67484 1.78393 2.85541 3.01076 4.90666 5.83183 9.90869 7.45161 15.48.54955 1.8903.98187 3.81545 1.43449 5.73257.11687.495.34268 1.18775.11735 1.50266-1.18788 1.6601.08189 2.83836.62062 4.19806.43849 1.107 1.51528 2.22552.27238 3.486a78.34139 78.34139 0 0 0-10.04933-16.22336 68.19113 68.19113 0 0 0-9.11181-9.165 54.20279 54.20279 0 0 1-4.08784-3.952c7.06736 8.91107 15.02943 17.1287 20.7144 27.0889.41025.71881 1.236 1.2706.95777 2.281-1.0279.41025-.40484 1.86384-1.43588 2.27213a1.75941 1.75941 0 0 1-1.0027-.76441c-4.46864-7.35586-9.119-14.58065-14.95324-20.548.79356 3.37618.88677 3.62709 3.55524 7.15814a93.9096 93.9096 0 0 1 6.447 9.01309 4.88323 4.88323 0 0 1 1.0372 2.59042c.083.68839-.80542 1.17586-.39941 1.9335l.1404 1.50215c-1.40856.1631-1.567-1.0833-2.0252-1.89106a75.15262 75.15262 0 0 0-6.54039-9.59213c.661 3.84062.11267 7.70135.45952 11.53872-.38473 1.23208-.88175 2.32379-2.508 1.98377-.98243-3.07583-.77607-6.30683-.952-9.44563-.55277-9.86265-3.57811-18.87055-8.11246-27.56822-3.04722-5.8451-7.9929-10.07745-11.9718-15.63268.95973 6.29921 3.41339 11.61524 6.205 16.78533 5.20908 9.64728 10.61428 19.19906 12.94781 30.085.52481 2.44847.9836 4.90321 1.2914 7.39-.4592 1.24134-.60839 2.81534-2.59042 2.44253-1.16021-3.445-1.361-7.09319-2.27494-10.60192a96.76048 96.76048 0 0 0-8.92841-21.44845 16.266 16.266 0 0 1-1.70917-3.97817c.90761 3.08434 1.94446 6.64208 2.77961 10.25582a198.31013 198.31013 0 0 1 4.77426 27.76952C362.68334 408.21176 362.33876 409.81333 362.41475 411.44115z"/><path fill="#7c2804" d="M288.344 344.60564c-4.81407 6.68405-9.95463 13.16262-13.62763 20.58865a52.3219 52.3219 0 0 0-5.14612 16.3476 41.28194 41.28194 0 0 0 1.874 19.51256 60.10168 60.10168 0 0 1 2.81929 11.603c.64773 4.50245 1.82877 8.88581 2.70044 13.33666.80595 4.11525 1.63863 8.22781 2.58979 12.31119a24.4078 24.4078 0 0 0 3.06777 7.85126c.07829 1.629.18081 3.271-1.99212 3.68208a5.4838 5.4838 0 0 1-5.93118-2.74941c-3.21823-3.48223-4.21141-7.946-5.41585-12.313-.15691-.56879-.091-1.20507-.56238-1.666-1.14408-5.28459-2.31523-10.5635-3.42073-15.85612a66.99291 66.99291 0 0 1-1.37937-7.86376 10.01057 10.01057 0 0 1 .31757-6.02962c.83751-2.23086.22723-4.38519-.50394-6.5272-.79361-2.32493-1.95934-4.55684-1.85086-7.1225-.01458-.33585-.49156.034-.15864-.058.12237-.03384.1596.03633.146.21319a9.52818 9.52818 0 0 1-2.21842 4.82618c-.41854.57424-1.153 1.35094-1.88567.16876-.47049-4.46257 1.6868-8.20805 3.46735-11.9865a131.72649 131.72649 0 0 1 15.91375-25.25q5.33125-6.77307 10.68634-13.52736C288.29662 343.97234 288.54854 344.05968 288.344 344.60564zM298.18143 322.3095c.59786.64883-.06024 1.11521-.27419 1.6072-2.28683 5.25812-5.71138 9.79744-9.16638 14.3052a84.412 84.412 0 0 1-8.19012 9.27378c-4.51519 4.38089-8.68164 9.10077-13.02152 13.64932a75.54458 75.54458 0 0 0-11.77537 16.5417 3.31247 3.31247 0 0 0-.528 2.21748c-2.20008 4.29037-4.68234 8.446-6.23148 13.04739-.237.70382-.6408 1.34756-1.459 1.1511-.84774-.20355-.7786-1.03426-.77191-1.723a37.29069 37.29069 0 0 1 .64462-6.432c1.47844-7.98493 3.1705-15.9149 6.85953-23.24063a48.328 48.328 0 0 1 7.49642-11.41828 103.21853 103.21853 0 0 1 10.8532-8.64122c6.51333-4.8124 12.599-10.0316 17.26762-16.73183a19.528 19.528 0 0 1 4.80238-2.39912c.49022-.21923 1.53994-.24927.8969-1.31761C296.50912 320.8432 297.29152 322.84016 298.18143 322.3095z"/><path fill="#7c1e66" d="M134.31382,398.42794c-3.75688-8.62038-4.5623-17.581-3.31682-26.84318a266.86913,266.86913,0,0,1,6.061-29.61469,58.60494,58.60494,0,0,1,3.57959-10.2335,10.79206,10.79206,0,0,1,2.29762-3.70684c1.30918.60826.88885,1.74156.70088,2.68206a136.564,136.564,0,0,0-2.053,17.9409,53.00624,53.00624,0,0,0,1.15883,14.10956c.88484,4.29464,1.83585,8.576,2.62385,12.89068.57567,4.82457,1.3856,9.61575,2.10447,14.42018a3.96953,3.96953,0,0,1-.56315,3.18556,78.38467,78.38467,0,0,1-7.63475,5.507C137.6578,399.72864,135.83378,400.42108,134.31382,398.42794Z"/><path fill="#7c2804" d="M393.55184,379.34414c-1.7329-2.759-3.4083-5.55628-5.21218-8.268-2.66749-4.01008-5.87907-7.6-8.87478-11.35845-2.80424-3.51828-6.30845-6.33612-9.13932-9.82432-1.062-1.30864-2.84924-2.148-4.29827-3.2138q-8.50992-6.25924-17.08773-12.42582a4.39612,4.39612,0,0,1-1.79047-2.13308c-1.15844-3.49963-2.68478-6.92481-2.33483-10.75272,2.06877.59672,3.62237,2.33255,5.82461,2.63327,1.79661.73572,3.76192,1.18778,4.95144,2.94439q1.06033.79077,2.12066,1.58152c.35349.25243.72077.4856,1.06088.75663a1.65308,1.65308,0,0,1,.56226.31681l-.03536-.02824c.61351.42094,1.19815.88181,1.80967,1.30566a5.77174,5.77174,0,0,1,1.84272,1.75484c2.29871,1.51,4.58788,3.0347,6.8978,4.5274,9.72687,6.28546,17.25307,14.43194,21.42853,25.39212a37.16872,37.16872,0,0,1,2.83985,12.77438A7.50445,7.50445,0,0,1,393.55184,379.34414Z"/><path fill="#7c1e66" d="M237.11785,330.10486a6.83432,6.83432,0,0,1,3.49256,4.58058c3.02692,10.5099,5.68979,21.08115,5.41957,32.16215a89.91668,89.91668,0,0,1-3.50612,22.09614,93.3139,93.3139,0,0,0-2.54305,9.4536c-.46837,2.123-1.97309,2.57439-3.68291,1.859a16.42462,16.42462,0,0,1-7.69061-6.16988c-.32163-1.43781.291-2.71672.69647-4.02444,2.94071-9.48392,5.79948-18.99441,6.70319-28.94022.7725-8.50187,1.29041-17.01547.44617-25.55649C236.27225,333.73533,235.74815,331.78156,237.11785,330.10486Z"/><path fill="#913808" d="M144.82068 375.73758c-.90665-1.88319-.9064-3.98007-1.30522-5.971-.62394-3.11467-1.7165-6.13245-1.9574-9.32471-.354-4.69145-1.07908-9.32083-.52455-14.10593.45313-3.91007.62855-7.86886 1.21455-11.77759.22867-1.52527.51158-3.04377.82011-4.55506.14-.68577.35069-1.3433-.13351-1.973a8.37358 8.37358 0 0 0 .69394-1.65726 135.78537 135.78537 0 0 1 5.17193-19.73469 2.78526 2.78526 0 0 0 .04092-.77041c4.34776-.80365 8.706-1.53849 13.10057-2.03965.53534.77339.15847 1.50677-.161 2.19437-5.20026 11.19339-7.77029 23.17369-10.46056 35.10976-2.36863 10.509-4.51381 21.06261-5.32769 31.83664A3.53382 3.53382 0 0 1 144.82068 375.73758zM237.11785 330.10486c-.409 3.54481.53181 7.03143.44386 10.56814-.07724 3.10582.142 6.22387-.03611 9.32121-.29559 5.13958-.64615 10.26815-1.32645 15.39271-1.19774 9.02226-4.03236 17.5844-6.59535 26.23628-.26532.89557-.77772 1.75076-.39743 2.73822a8.16572 8.16572 0 0 1-1.38987 3.51373c-1.00635.84295-.70374 2.34852-1.6348 3.22957-.91856-.95388-.599-2.08894-.44537-3.18619 1.51933-10.849 2.97018-21.70929 4.13342-32.60013.39181-3.66848.65661-7.38252.69634-11.09109.06368-5.94766.08994-11.88677.44288-17.83753.5353-9.02538-1.11364-17.86661-3.17449-26.62812-.34371-1.46127-1.08957-2.97712-.11246-4.49859 2.54854.472 5.17953.23991 7.70469.90218-.91546.0423-1.62091.06336-1.32035 1.44081A186.80276 186.80276 0 0 1 237.11785 330.10486z"/><path fill="#c68e8a" d="M368.195,404.78857a10.4025,10.4025,0,0,0,1.97606-2.69427c.07877-.70606.29471-1.3136,1.084-1.50939a5.668,5.668,0,0,0,1.98924-2.14517,2.19263,2.19263,0,0,1,2.22634-1.7383c1.28748.09575,1.8307,1.16216,2.08259,2.27617.48314,2.13695,1.61134,3.499,3.92293,3.61649a43.44845,43.44845,0,0,1,2.06122,10.57178,11.60682,11.60682,0,0,1-.58809,4.31178,3.64721,3.64721,0,0,1-4.43785,2.59567,14.42843,14.42843,0,0,1-5.17256-2.225,6.93846,6.93846,0,0,0-2.00214-1.138c-1.67143-2.04626-3.54351-3.94481-4.60219-6.43506a5.07119,5.07119,0,0,1-.71959-2.42647C365.92439,406.24652,367.13981,405.5746,368.195,404.78857Z"/><path fill="#fbb641" d="M393.61508,245.05459c3.13171-.54732,5.11046,1.26061,6.91,3.40574a3.45988,3.45988,0,0,0,1.1356,1.02519c.37408,1.22281.39122,2.50564.83087,3.74142.6274,1.76369-1.16624,4.7078-2.46725,5.96818-2.2708,2.19984-4.86764,1.834-7.52542,1.70918a1.82665,1.82665,0,0,1-1.59952-.68311,3.52757,3.52757,0,0,0-2.63554-1.75807c-.98613-.17638-1.11584-1.21921-1.0446-2.11041.08977-1.12277.21344-2.14141-.736-3.10085a1.91692,1.91692,0,0,1,.15855-2.59991c.36355-.47852.98145-.8717,1.11676-1.39793C388.54905,246.17954,391.06652,245.61625,393.61508,245.05459Z"/><path fill="#c68e8a" d="M257.76586,394.86122c1.18205.54012,1.48965-.40215,1.87349-1.13971.79105-1.52009,1.54508-3.0594,2.51406-4.6025.24535,3.64093,2.27512,6.69435,2.99509,10.16368a7.25766,7.25766,0,0,1-.15171,4.05308,19.7095,19.7095,0,0,0-1.07692,6.05492c-.58129-.49358-.1193-1.35794-.78195-1.99358a8.17478,8.17478,0,0,1-3.66685.21211c-4.19032-1.04216-6.29658-5.17079-5.03484-9.77256.49653-1.8109,1.73675-3.12168,2.71909-4.613C257.33694,393.77767,257.05911,394.503,257.76586,394.86122Z"/><path fill="#d64142" d="M134.31382,398.42794c1.79337,1.09156,3.42185.62136,5.04231-.45423,2.35809-1.56511,4.46591-3.49159,6.985-4.82157a1.262,1.262,0,0,1,1.23793.109c.46828,1.56236,1.80537,3.16263-.19426,4.62178a86.91014,86.91014,0,0,1-17.75726,9.49528c-1.11236.45458-2.28459.7627-3.42879,1.13971-1.18521-4.22238-.17515-6.37007,3.69823-8.01519C131.39311,399.86727,132.84292,399.12275,134.31382,398.42794Z"/><path fill="#7c2804" d="M281.09753 330.0973c2.02877-.58919 3.768-1.81431 5.70793-2.5987.17161 2.62593-1.9918 3.97795-3.45535 5.39371a101.31364 101.31364 0 0 1-15.11587 11.95255 6.29975 6.29975 0 0 1-.92874.43649c-.29449.15216-.58923.30859-.87157.48551a1.357 1.357 0 0 1-.90961.27441c-4.60868 2.45429-9.18215 4.95877-12.73573 8.9198a5.65435 5.65435 0 0 1-.5282.55732c-.32909.27877-.69281.53886-1.14735.30062a1.00044 1.00044 0 0 1-.5066-1.30629 15.49779 15.49779 0 0 1 2.455-4.74128c3.57742-4.25612 8.552-6.23772 13.4743-8.328a37.41613 37.41613 0 0 0 10.24906-5.90727C278.58641 333.96923 279.50127 331.78 281.09753 330.0973zM388.30914 395.31264c-2.373-3.473-4.81012-6.90441-7.10226-10.43-2.63975-4.06029-6.00663-7.50821-9.10628-11.18365-2.35813-2.79611-4.9138-5.459-6.55088-9.01435.90869-.02574 1.19783.56823 1.56609.95024 3.11154 3.22743 6.65451 5.98744 9.79273 9.19659a75.04642 75.04642 0 0 1 12.35388 17.71768 5.22564 5.22564 0 0 1 .62341 2.73417C389.37189 395.91041 388.84347 395.77029 388.30914 395.31264z"/><path fill="#fbb641" d="M350.553,230.89358c-1.21956-.37025-2.01479-1.59623-3.35584-1.73726-.5767.72535-.242,1.52938-.36468,2.26131-.09082.54173-.26869,1.01548-.85089,1.14054a1.14881,1.14881,0,0,1-1.2533-.706,19.72219,19.72219,0,0,1-1.23344-2.54246c-.62369-1.65343-1.33029-3.01591-3.34721-3.48871-1.64495-.38562-1.7493-1.26111-.3472-2.21492.86813-.59055.91942-1.04789.55087-1.86972-.52626-1.17336-.98474-2.37711-1.47091-3.56846-.29442-.72146-.71264-1.57766.04079-2.12474.8993-.65294,1.34165.33193,1.8226.86629.57313.63675,1.0784,1.33434,1.61786,2.0017,1.40362,1.73644,1.41946,1.73606,2.67713-.003.15086-.2086.27491-.43782.43646-.63719,1.01105-1.2479,1.12881-1.23838,2.49.1631l-.03351-.01717c.30985,2.49856-.43789,5.14179,1.02521,7.48168a10.4356,10.4356,0,0,1,.98639,1.64018A7.032,7.032,0,0,1,350.553,230.89358Z"/><path fill="#7c2804" d="M381.60692 395.347a15.15107 15.15107 0 0 0-2.87-5.12971c-1.69153-2.37743-3.49959-4.67229-5.27115-6.99229a16.47692 16.47692 0 0 1-3.56922-9.01236 106.69133 106.69133 0 0 1 16.97658 23.37231c-2.00831 1.32074-3.2933-.21626-4.71966-1.19487C381.79114 396.13675 381.21551 395.99521 381.60692 395.347zM276.47539 327.52038c.89734 1.0187 1.46586 2.41759 3.05206 2.63991-.17746 2.34593-1.73586 3.81865-3.3689 5.20475-3.32732 2.82426-7.32326 4.44484-11.27455 6.13394-1.65884.70907-3.31423 1.42244-4.95048 2.1845-.64111.2986-1.43323 1.06816-2.109-.03608a16.10885 16.10885 0 0 1 3.48068-3.02742A105.80343 105.80343 0 0 0 276.47539 327.52038zM381.47616 402.5941c-2.01738.8267-2.89755.60068-3.74563-1.15087a23.40187 23.40187 0 0 1-.8569-2.69c-.60519-1.77732-1.19252-1.95614-2.77768-.88432-.2831.19137-.56744.38091-.85146.57108-.10378-.13556-.28648-.26378-.29938-.40728-.37588-4.17419.23266-8.38778-.95145-12.9714 1.90589.96656 2.52029 2.36038 3.29219 3.492a58.49932 58.49932 0 0 1 5.58392 8.97562 1.55544 1.55544 0 0 0 .82787.94066A4.50454 4.50454 0 0 1 381.47616 402.5941z"/><path fill="#d64142" d="M227.8165,397.87515a4.064,4.064,0,0,1,1.39042-3.51354,41.585,41.585,0,0,0,5.5194,4.49736c2.63186,1.67246,2.98825,1.63114,5.25549-.46113,1.96888.3534,2.82957,1.71443,3.09242,3.53042a16.71015,16.71015,0,0,1,.03331,5.298C237.25352,405.34709,232.43079,401.78154,227.8165,397.87515Z"/><path fill="#913808" d="M266.57556,345.02763c3.6656-1.77144,6.61394-4.56873,9.855-6.94208a44.90711,44.90711,0,0,0,5.72371-4.78343,22.58964,22.58964,0,0,0,4.65094-5.8034,6.56343,6.56343,0,0,1,3.07976-1.58256c-.35194,1.761-1.57545,3.04636-2.59744,4.37994a56.62449,56.62449,0,0,1-10.63582,10.0421c-4.27405,3.30838-8.57127,6.58675-12.84817,9.89146a5.08083,5.08083,0,0,1-2.0394,1.05911c.91127-1.84695,2.678-3.00965,3.77005-4.71213.262-.14134.33755-.4437.54435-.632C266.33571,345.68888,266.65132,345.46453,266.57556,345.02763Z"/><path fill="#b8303c" d="M173.611,238.85859c2.07725-1.19781,4.1695-2.37063,6.2238-3.60653a9.51041,9.51041,0,0,1,2.32791-1.07809c.673-.18992,1.3646-.56029,1.80326.27906a1.55491,1.55491,0,0,1-.56548,2.24629c-1.39831.84263-2.852,1.59294-4.25686,2.42517a73.5258,73.5258,0,0,0-9.56242,6.95908,28.84276,28.84276,0,0,0-4.11212,4.93063c-.24061.31536-.427.84178-.95532.32035a21.97848,21.97848,0,0,1,4.51641-7.65642C170.48756,242.01082,172.07916,240.46082,173.611,238.85859Z"/><path fill="#913808" d="M257.82456,343.6474c.15487.04911.34812.18432.459.13483q5.64995-2.51766,11.28372-5.0714c4.14117-1.8879,7.76184-4.39494,9.96029-8.55108q.78476-.03067,1.56986-.06242c-1.25536,4.48876-4.71182,6.97411-8.45723,9.12516a49.18743,49.18743,0,0,1-7.67419,3.58794,38.99336,38.99336,0,0,0-10.40692,5.98819c-.47041.36171-.997.65035-1.49767.97279A16.47644,16.47644,0,0,1,257.82456,343.6474Z"/><path fill="#7c2804" d="M262.0897,372.08959c2.68893-5.21958,9.897-13.7882,14.16577-16.6475a152.67753,152.67753,0,0,0-16.678,26.46715l-.29686-1.65293c.015-1.73318.94844-3.24523,1.18546-4.92493.01029-.26983.2225-.449.30765-.68523a.64842.64842,0,0,0,.13348-.47688c.3253-.34451.18729-.81269.32144-1.20871C261.44279,372.59815,261.57048,372.15,262.0897,372.08959Z"/><path fill="#fbb641" d="M288.84094,278.17555a3.70657,3.70657,0,0,1,.73459.707c.70932,1.21656,1.49086,1.48069,2.60955.43593a1.432,1.432,0,0,1,2.0855-.18871c.6284.62435.34467,1.44419.04771,2.17755a2.30763,2.30763,0,0,1-.36607.67963c-.88419.98723-.71723,1.86111-.05056,2.97,1.03081,1.71465.36541,2.91011-1.4707,2.47636-2.17413-.51362-3.19.45111-4.13589,2.037a2.54589,2.54589,0,0,1-1.33476,1.16991Q287.90069,284.40774,288.84094,278.17555Z"/><path fill="#b8303c" d="M236.61624,266.74406c-.13937.3317.00362.9793-.69038.70518-.19882-.07852-.32337-.388-.44544-.61165a80.86891,80.86891,0,0,0-10.14576-14.53632,2.96753,2.96753,0,0,1-.63537-1.08985,1.418,1.418,0,0,1,.51041-1.618,1.17906,1.17906,0,0,1,1.63989.15263,24.15669,24.15669,0,0,1,2.30122,2.43356c1.61612,2.104,3.15189,4.26968,4.7201,6.41045C234.38845,261.44192,236.15337,263.87379,236.61624,266.74406Z"/><path fill="#fbb641" d="M391.46235 170.41569a2.5566 2.5566 0 0 0-2.69268 1.82344c-.74746 1.92621-1.692 1.9683-2.72143.1456a2.43208 2.43208 0 0 0-2.68857-1.38822 22.1763 22.1763 0 0 1-3.06986.045 1.28043 1.28043 0 0 1-1.20887-1.13923 1.23576 1.23576 0 0 1 .69126-1.26413 3.6717 3.6717 0 0 1 .67154-.3704c1.10765-.45169 2.01482-.951 1.20109-2.40864-.20623-.36944.17708-.796.49775-1.09816A36.79015 36.79015 0 0 1 391.46235 170.41569zM389.30988 191.47048a1.49836 1.49836 0 0 1 2.11042-.04767 5.44343 5.44343 0 0 0 4.5968.80068c2.12686-.39607 2.56308.10335 2.175 2.2993a2.24583 2.24583 0 0 0 .53459 1.83927c.83814 1.24907.593 1.93442-.82079 2.135a2.22036 2.22036 0 0 0-1.87889 1.04634c-.30334.50932-.86458.47589-1.39183.35791A39.30343 39.30343 0 0 0 389.30988 191.47048zM411.95791 232.287c-1.08571-.26745-1.948-.61478-1.539-2.08057a3.69669 3.69669 0 0 0-1.78525-4.4067 6.4378 6.4378 0 0 1-1.22013-.94524c-.58932-.62569-.29651-1.1843.40984-1.32027a7.47792 7.47792 0 0 1 1.94254.1181c.44785-.66474-.06242-1.20583-.08848-1.77963a.919.919 0 0 1 .55875-1.03755.94319.94319 0 0 1 1.14022.35527 15.34318 15.34318 0 0 1 1.22209 1.96625 2.43333 2.43333 0 0 0 1.93684 1.49643A31.829 31.829 0 0 1 411.95791 232.287z"/><path fill="#b8303c" d="M236.05541 209.93234c-1.13745-1.18028-.525-2.765-.88537-4.14181-.62777-2.39813-1.46086-4.5263-3.41556-6.11777a8.73958 8.73958 0 0 1-.7254-.7251c-.73511-.75918-1.0649-1.65479-.30356-2.50292.81919-.91258 1.60894-.08216 2.23322.37977a14.09493 14.09493 0 0 1 4.55421 6.33117A21.466 21.466 0 0 1 236.05541 209.93234zM206.58374 188.1261a13.29814 13.29814 0 0 1 4.8406-2.87863c.89031-.31423 2.19657-.74637 2.6936.52086.50312 1.28277-.626 1.9118-1.6312 2.17148-2.07762.53667-3.5557 2.0565-5.36317 3.02339-.39724.21251-.7438.8639-1.24084.133Q206.23322 189.61118 206.58374 188.1261zM210.58517 152.40814c-1.48328-.34818-2.95981-.73-4.45287-1.02948-.68744-.13792-1.49446-.1628-1.48919-1.04074a1.61241 1.61241 0 0 1 1.49752-1.49569 6.68881 6.68881 0 0 1 3.7521.44712c.39443.157.78178.33183 1.17238.49839A6.96332 6.96332 0 0 1 210.58517 152.40814z"/><path fill="#533977" d="M348.9697,226.54576a3.66467,3.66467,0,0,1-1.64088-3.77972,41.90849,41.90849,0,0,1,.60285-4.349,63.10838,63.10838,0,0,1,1.618,7.5135C349.69454,226.4544,349.449,226.61026,348.9697,226.54576Z"/><path fill="#b8303c" d="M204.88337,134.25509a6.15658,6.15658,0,0,1,1.25461.17412,1.12229,1.12229,0,0,1,.78973,1.18762,1.19134,1.19134,0,0,1-1.14759,1.17127c-1.1036.08291-2.21462.06714-3.32242.09278A10.411,10.411,0,0,1,204.88337,134.25509Z"/><path fill="#796471" d="M348.9697,226.54576q.28985-.30818.57983-.61579a1.81652,1.81652,0,0,1,.39378,1.60868A1.76262,1.76262,0,0,1,348.9697,226.54576Z"/><path fill="#fbb641" d="M310.87292 262.61667c-.91236.95517-1.60331 1.71151-2.33265 2.42887a1.02959 1.02959 0 0 1-1.39609.20221 1.0582 1.0582 0 0 1-.36491-1.36375c.42793-1.12384.79-2.27892 1.30288-3.36254a2.832 2.832 0 0 0-.13777-3.14056 6.69764 6.69764 0 0 1-.50022-.90111c-.391-.76538-.92959-1.60195-.17069-2.358.666-.6635 1.43632-.14918 2.14663.14568a3.28257 3.28257 0 0 0 .74654.12408c.73689-.80984.83966-1.894 1.35024-2.77926.30765-.53332.58857-1.12729 1.29523-1.0864.87663.05069 1.01377.8218 1.17029 1.48106a5.17123 5.17123 0 0 1 .17262 1.53017c-.11219 1.581.17632 2.858 1.92857 3.40919a1.35541 1.35541 0 0 1 .95157 1.40681c-.07112.76874-.75277.85083-1.36119.88024-1.13014.05461-1.41.70243-1.387 1.71986a8.53733 8.53733 0 0 1-.2407 3.32125c-.43384 1.14114-1.0403 1.2515-1.839.287C311.77539 264.03993 311.43416 263.44327 310.87292 262.61667zM350.58853 177.79674c-2.04129-.0976-2.0541-.10164-2.71425 1.99129-.18808.59631-.36949 1.20335-1.04738 1.33873-.70157.14015-1.0563-.44481-1.44106-.89716a5.41419 5.41419 0 0 1-.6267-.8194 3.914 3.914 0 0 0-3.97188-2.21944c-1.7008.08239-1.963-.53569-.84036-1.90553.67511-.82374.02568-1.02767-.30128-1.41434-.477-.56423-.86379-1.16734-.36994-1.84159.4981-.68 1.22494-.43065 1.88853-.21049a9.87282 9.87282 0 0 1 1.45817.51213 3.08029 3.08029 0 0 0 3.38408-.35837c.85639-.57324 1.76132-1.07564 2.6573-1.58742.5374-.307 1.11929-.54524 1.64594-.00335a1.58709 1.58709 0 0 1 .23184 1.46084c-.14394.99179-1.37693 1.83715-.75454 2.82483.49253.78156 1.71987.63714 2.58919.99829.61481.25542 1.11537.57653.93434 1.30375a1.1337 1.1337 0 0 1-1.17491.82469C351.6202 177.80626 351.10424 177.79674 350.58853 177.79674zM312.02563 220.9742c-.482.17246-.87153.33193-1.2728.452-1.84771.553-2.56823-.11734-2.15187-2.03645a7.01643 7.01643 0 0 1 .58353-1.701 6.07888 6.07888 0 0 0 .45183-5.40535c-.5977-1.48733.13-2.10052 1.62017-1.4035 1.06.49582 1.14025-.20683 1.503-.714.37353-.52225.80946-.92612 1.50076-.60564.55979.25951.56541.81355.57835 1.32723a4.07332 4.07332 0 0 1-.07352 1.02626c-.38957 1.65226.2893 2.741 1.62706 3.69425.85525.60943 2.128 1.20558 1.91613 2.51978-.23023 1.42784-1.72748 1.20716-2.71826 1.50905-.8927.272-1.33558.643-1.26949 1.58768a5.60423 5.60423 0 0 1-.07055 1.28009.82169.82169 0 0 1-.85462.77888.79224.79224 0 0 1-.76523-.57151C312.41407 222.16356 312.24012 221.59856 312.02563 220.9742zM298.18143 322.3095c-.6882.05126-1.426.48522-1.98953-.35375-.10416-.15507-.45768.01414-.60848.244a4.47888 4.47888 0 0 1-1.21921.40659c-1.00542.03329-1.46807-.634-.98952-1.47819a7.18464 7.18464 0 0 1 1.45659-1.79206 3.18552 3.18552 0 0 0 1.21437-3.19324 5.068 5.068 0 0 1-.03876-1.03221c.03481-2.72689.70385-3.118 3.02034-1.77507.29692.17211.60348.32759.964.52228.46248-.38331.90024-.79033 1.38326-1.13364a1.14594 1.14594 0 0 1 1.43941-.02065 1.22428 1.22428 0 0 1 .39416 1.39781 3.86543 3.86543 0 0 1-.3822.95836c-.543.88868-.308 1.47.437 2.2038.98136.96656.75309 1.469-.54711 2.01663-.909.38283-2.12689.21141-2.59235 1.41171Q299.152 321.5006 298.18143 322.3095zM345.00136 274.30388c-1.54371.93822-1.59329 2.75409-2.01255 4.43519a.70768.70768 0 0 1-1.10459.24683c-.89987-.81876-1.47274-.35687-2.1021.33971a1.01939 1.01939 0 0 1-1.37472.30482 1.23009 1.23009 0 0 1-.54318-1.33918 7.48575 7.48575 0 0 1 .28436-1.25472c.611-1.70848 1.09251-3.30477-.006-5.1237-.68751-1.13845-.13958-1.8086 1.36934-1.71023 1.05937.06906 1.00166-.68215 1.40375-1.14113.84255-.96176 1.673-.80665 2.09157.39039a3.27212 3.27212 0 0 1 .19836 1.2594 2.05131 2.05131 0 0 0 1.187 2.30549C344.78181 273.1943 345.03766 273.57043 345.00136 274.30388zM355.59031 326.94558c-1.63187-1.01292-3.66627-1.34911-4.95141-2.94471a16.75934 16.75934 0 0 1 1.34975-1.18044 3.38 3.38 0 0 0 1.70272-2.94825c-.00936-1.043.55378-2.04942 1.74058-1.45614a1.84547 1.84547 0 0 0 2.26419-.20937c.478-.35734 1.05225-.64057 1.62728-.10937a1.20136 1.20136 0 0 1 .21806 1.63158 3.22963 3.22963 0 0 0 .04509 4.16486c.76545 1.008.15007 1.84657-1.24034 2.09676C357.37319 326.16561 356.23386 325.82866 355.59031 326.94558zM328.05 297.46793c1.05285-.3171 1.74908-.01891 1.99184 1.20741a2.63476 2.63476 0 0 0 .72405 1.02566c.81342.9197 1.03461 1.862-.14839 2.57382-.91926.55315-.8039 1.42911-1.0206 2.228-.13338.49167-.28959 1.01591-.87534 1.16055a.98982.98982 0 0 1-1.22793-.676c-.34312-1.06642-.94278-1.07682-1.91171-.86452a.73243.73243 0 0 1-.74825-1.17994 5.68376 5.68376 0 0 0 .95555-4.3088C325.50923 296.99035 327.05781 297.51978 328.05 297.46793z"/><path fill="#7c2804" d="M305.94792,319.79955c-.79555,2.03664-.74094,4.25963-1.4003,6.91662-.80912-1.911-1.31537-3.33668-1.07916-4.903.0935-.62015.081-.98344-.61215-1.05734A7.29349,7.29349,0,0,1,305.94792,319.79955Z"/><path fill="#913808" d="M222.04645 410.457c-.93644 2.90533-2.732 5.32959-4.4372 7.791-2.05073 2.96017-4.18419 5.86354-6.31184 8.76951a4.95944 4.95944 0 0 1-1.69 1.56723c-.90991-1.15214-.07764-2.11668.35863-3.10306a150.07445 150.07445 0 0 0 11.70691-46.462c.86934-8.88711-.85318-17.69384-2.37255-26.4605-2.45977-14.19267-4.79811-28.40627-7.60169-42.53718-.20237-1.02-.22275-2.05676-.36433-3.08144.39441-1.63708.2689-3.4403 1.51165-4.81224.39868.8415.708 1.60616 1.97276 1.55142 3.83518-.166 7.5856.6759 11.36276 1.1838 1.30465 2.22719 1.21362 4.815 1.84129 7.21768 3.11393 11.92 2.98891 24.048 2.162 36.21086a16.85942 16.85942 0 0 0-.101 1.80607c.45678 11.52047-1.37181 22.85356-2.82157 34.21548-.65421 5.12716-1.21871 10.2649-2.17663 15.3549a54.065 54.065 0 0 1-2.52511 9.72162l.01435-.02337C222.21971 409.64346 222.32605 410.14377 222.04645 410.457zM147.38483 397.88292a1.83258 1.83258 0 0 0 .36965-1.856 6.91657 6.91657 0 0 1-.36276-2.69834 26.18187 26.18187 0 0 0-.83185-6.60114c-1.17376-5.96065-.50456-11.83608.23651-17.71227A308.94062 308.94062 0 0 1 159.18372 313.584c1.11951-3.50436 2.23515-7.08382 4.80582-9.91887a11.01158 11.01158 0 0 1 5.85849-.70549 43.46956 43.46956 0 0 0 4.54023.239c.88346 1.259.168 2.49758-.06835 3.7303-2.346 12.23384-6.39532 23.962-10.2569 35.77475-4.88616 14.94708-7.78118 30.39526-9.69341 46.00154a154.65992 154.65992 0 0 0-1.03378 18.04913c-.00544 1.096.18316 2.272-.74491 3.16574a47.32393 47.32393 0 0 1-3.69835-9.11621C148.5731 399.79764 149.03032 398.24761 147.38483 397.88292z"/><path fill="#7c2804" d="M152.59091 409.92015a71.72266 71.72266 0 0 1 .08232-8.01526c.41862-3.60523.15641-7.23235.54417-10.80685a192.68837 192.68837 0 0 1 3.0414-19.533c1.45191-6.78912 2.8773-13.58536 4.45389-20.34592a134.85848 134.85848 0 0 1 5.41808-16.93706c3.22607-8.545 5.28038-17.41146 7.18594-26.31814.34062-1.59212.71324-3.1774 1.07132-4.76551q.9878-.02892 1.97482-.05881l.10256.01021c.62777 1.19882.09944 2.3551-.12975 3.5223-2.49841 12.72305-6.53341 24.98744-10.61243 37.27719-4.92725 14.84526-7.63325 30.25382-9.66787 45.74525-.89838 6.84025-.68016 13.76411-.646 20.66055.00622 1.2588.28662 2.61553-.72767 3.69178A10.7536 10.7536 0 0 1 152.59091 409.92015zM222.56048 409.39018c-.05109-2.35232.80892-4.55273 1.16491-6.83968.65845-4.23 1.45449-8.43177 2.01689-12.68536.78549-5.94089 1.3914-11.9071 2.33859-17.832.3749-2.34514.52881-4.77756.76453-7.1627.53585-5.42243.01472-10.87546.54132-16.25252a181.27349 181.27349 0 0 0 .31513-21.18239 71.46473 71.46473 0 0 0-2.31731-14.70708c-.60089-2.58419-1.42082-5.15128-1.20311-7.86607q.77047.20136 1.54068.40048c.77717 3.77833 1.50469 7.56757 2.34693 11.3311a85.71273 85.71273 0 0 1 1.3758 9.66249 51.4085 51.4085 0 0 1 .36161 10.29788c-.64605 6.80056-.07211 13.61878-.5355 20.39515a182.64606 182.64606 0 0 1-1.86918 18.92466c-.80646 4.63544-1.0254 9.37031-1.72094 14.02884a78.2312 78.2312 0 0 1-1.33516 8.89058 11.78886 11.78886 0 0 0-.164 2.3109A24.23334 24.23334 0 0 1 222.56048 409.39018zM163.98954 303.66516c-.43937 2.144-1.78623 3.89049-2.57491 5.88831a184.32541 184.32541 0 0 0-6.23147 20.43221c-2.14028 8.03692-3.70425 16.20051-5.477 24.31512-.87226 3.99275-1.28085 8.107-1.84243 12.1748-.574 4.15756-.78905 8.34374-1.35439 12.49845a20.04123 20.04123 0 0 0 .14182 6.16461 74.28793 74.28793 0 0 0 1.20617 7.33417c.1037.37056-.192.6328-.46537.85553q-.52555-.08712-1.05072-.17546a3.325 3.325 0 0 0 .46074-2.94543c-.63054-3.96594-1.30331-7.92533-1.91132-11.89465a19.87649 19.87649 0 0 1-.0698-2.57572c.53082-4.49565.96689-9.00559 1.61764-13.48432.76184-5.24346 1.85066-10.43094 2.96309-15.6141 1.473-6.86343 2.9118-13.73271 4.74452-20.5118 1.97124-7.29133 3.94241-14.58309 7.47272-21.3294a6.23757 6.23757 0 0 0 .3231-.97035Q162.96583 303.74735 163.98954 303.66516z"/><path fill="#b8303c" d="M202.45894 265.38353c.29308.00861.98679.58942 1.78911.87676a21.27838 21.27838 0 0 1 9.07848 5.66692 3.46606 3.46606 0 0 0 2.70317 1.21153c3.49989.09537 5.49671 2.44658 7.24275 5.09246a1.93865 1.93865 0 0 1 .2466 1.49157 1.26286 1.26286 0 0 1-.98928 1.05911 1.11283 1.11283 0 0 1-1.15315-.39672 3.5347 3.5347 0 0 1-.53538-.87406c-1.08392-2.516-3.23149-3.54544-5.72939-3.74734a5.47517 5.47517 0 0 1-4.02769-1.95684c-1.84085-2.202-4.3661-3.28232-6.92224-4.31332a9.50741 9.50741 0 0 1-3.36019-1.84173 1.267 1.267 0 0 1-.38766-1.40606C200.6603 265.61332 201.18591 265.35909 202.45894 265.38353zM170.335 279.17449c-.66532.07194-1.23611-.71267-1.11414-1.63294.21414-1.61533 2.58761-4.19471 4.33439-4.34188a13.461 13.461 0 0 0 4.91347-1.351 1.28138 1.28138 0 0 1 1.82287.33587c.56224.83919.072 1.48859-.5611 1.99156A6.62584 6.62584 0 0 1 175.691 275.651a3.83761 3.83761 0 0 0-3.56411 2.07368A2.74094 2.74094 0 0 1 170.335 279.17449zM200.68557 225.3981c-.99949.04788-1.56064-.17657-1.80186-.80877a1.27471 1.27471 0 0 1 .7994-1.675 3.14135 3.14135 0 0 1 1.43467-.51378c2.05329.12766 3.85975-.725 5.7397-1.29386a6.35638 6.35638 0 0 1 .73161-.24162c.833-.14318 1.596-.01809 1.87745.90313.2484.81285-.2631 1.32583-.94621 1.60324-1.03155.419-2.1337.67767-3.13607 1.15192C203.77127 225.28654 201.90782 224.47088 200.68557 225.3981z"/><path fill="#d64142" d="M138.2659,446.51271c.94054.23264,1.34676,1.04182,1.80281,1.75168,2.79922,4.35693,7.03986,6.45767,11.88408,7.55716a107.29849,107.29849,0,0,0,11.21182,1.68758,19.4911,19.4911,0,0,0,6.38593-.6869,2.7991,2.7991,0,0,1,1.99-.00339c1.63666,3.294,1.05678,5.52359-1.99539,7.46262a21.54474,21.54474,0,0,1-10.33265,2.9196,86.92762,86.92762,0,0,1-26.68177-1.94179,21.40015,21.40015,0,0,1-6.19268-2.5212c-3.81425-2.35187-4.71525-6.14525-2.397-10.00074a11.9494,11.9494,0,0,1,5.75717-4.59364A23.35531,23.35531,0,0,1,138.2659,446.51271Z"/><path fill="#4c63b7" d="M274.69817,447.08926a16.19048,16.19048,0,0,0,5.93061,2.74884c1.79753,3.64723,4.777,6.24157,7.79852,8.80733.89295.75827,2.10659,1.19356,2.54894,2.42767a9.09983,9.09983,0,0,1-4.10017,3.455c-8.25617,3.91114-16.86451,5.33892-25.90288,3.434-.08441-.0178-.17086-.027-.25428-.04844-7.50072-1.92474-9.3717-8.06977-4.22556-13.86834a14.0523,14.0523,0,0,1,4.7791-3.47786A34.77341,34.77341,0,0,1,274.69817,447.08926Z"/><path fill="#d64142" d="M197.27872,459.02083A30.64062,30.64062,0,0,0,208.457,460.095a109.52564,109.52564,0,0,0,12.47029-1.652,17.20715,17.20715,0,0,0,9.49651-5.32295c.45638-.50638.991-.94228,1.48924-1.41087a34.2199,34.2199,0,0,1,6.12294,2.70932,16.76336,16.76336,0,0,1,4.63,3.67509c2.41314,2.82018,2.06985,5.51533-.98123,7.68921a15.73779,15.73779,0,0,1-4.64524,2.19057,41.21621,41.21621,0,0,1-11.467,1.58285c-6.3749.08557-12.74633.11128-19.03814-1.13677a19.16358,19.16358,0,0,1-7.191-2.72592C196.78642,463.95538,196.19125,461.8985,197.27872,459.02083Z"/><path fill="#4c63b7" d="M342.084,464.33629c-.0789-1.72527.80535-2.4997,2.42634-3.03511a28.71656,28.71656,0,0,0,11.904-7.3933,11.87745,11.87745,0,0,1,2.92026-1.98479,14.70306,14.70306,0,0,1,7.391.52052q2.34445.7166,4.68661,1.44052a12.47169,12.47169,0,0,1,4.54593,2.38071c2.973,2.56314,2.89683,5.662-.17863,8.06952a14.67635,14.67635,0,0,1-4.30026,2.33474,56.1363,56.1363,0,0,1-22.0797,3.296C345.18058,469.6834,342.97787,467.9462,342.084,464.33629Z"/><path fill="#913808" d="M187.83215 309.90692c3.92661.99069 7.83779 2.06865 11.93224 2.11052 1.33077 3.99524 1.10249 8.19464 1.17808 12.26948.2316 12.485-.6296 24.95174-1.36164 37.414-.13662 2.32588-.02019 4.65439-.07722 6.98049-.283 11.5403-.38959 23.08534-.64716 34.62324-.20338 9.10966-.93078 18.24781-3.6646 27.07148a32.3387 32.3387 0 0 1-4.9911 10.152 8.03453 8.03453 0 0 1-2.88379 2.51852 11.89925 11.89925 0 0 1-7.78385-2.55732 3.66545 3.66545 0 0 1 .27162-2.02361c3.38463-9.37638 3.71488-19.24551 4.6141-29.011 1.25517-13.63083 1.396-27.33277 2.47988-40.97944.33321-4.19519.4216-8.42408.66075-12.63527.8114-14.28946-.35178-28.57927.03175-42.86816A7.83526 7.83526 0 0 1 187.83215 309.90692zM154.68165 414.04684q-.00176-5.56632-.00431-11.13264a134.08019 134.08019 0 0 1 1.4661-19.23378c1.44806-10.11846 3.79925-20.04283 5.95025-30.01363 1.78418-8.2704 4.9663-16.09742 7.71021-24.058a154.7571 154.7571 0 0 0 4.48748-17.4508c.66208-3.02151 1.48157-5.99809 2.17389-9.00822 1.84532 2.26277 4.33222 3.66538 6.80982 5.08045a111.30144 111.30144 0 0 1-1.40562 25.72892c-3.25645 17.45874-7.067 34.76832-12.935 51.59539-4.57506 13.11949-5.6138 26.742-4.39857 40.55012a2.67629 2.67629 0 0 1-.52965 2.41841A53.62589 53.62589 0 0 1 154.68165 414.04684z"/><path fill="#913808" d="M184.7143 308.88576a6.63422 6.63422 0 0 1 2.68464.92782 30.137 30.137 0 0 1 .17911 3.35271c-.05459 12.50635.27291 25.0184-.07064 37.51735-.28384 10.327-1.00045 20.64525-1.77237 30.95479-.37923 5.06474-.37452 10.1573-.70749 15.23126-.75063 11.43864-1.36118 22.89037-3.44518 34.19361a33.96237 33.96237 0 0 1-1.731 6.224c-.35523.90838-.55244 2.06947-1.89127 2.16891a45.4991 45.4991 0 0 1-11.87754-8.84132c-1.91286-3.77867-1.4527-7.951-1.70367-11.933-.78291-12.42148 1.9405-24.3701 5.91723-36.02538a273.62924 273.62924 0 0 0 8.99159-33.72978c1.48275-7.265 3.22618-14.49383 3.86343-21.90361.41315-4.8037.586-9.62675.83-14.44326C184.04511 311.31858 183.705 309.96429 184.7143 308.88576zM200.77988 312.01266q2.08032-.25827 4.16063-.51656c-1.52257 8.378-.70351 16.81588-.58841 25.22931.16895 12.34837 2.73556 24.47644 3.51659 36.77947.50739 7.99259 1.39727 15.964 2.24923 23.93311a95.06122 95.06122 0 0 1 .14286 22.17646c-.68385 5.38508-2.439 10.18584-6.28568 14.13761a11.783 11.783 0 0 0-2.14163 2.57812l.01529-.02276a3.63625 3.63625 0 0 0-.54057.56178c-3.28373 3.01082-6.87165 5.45762-11.405 6.15154a2.767 2.767 0 0 1 .70622-2.39823c4.55129-6.40214 6.23912-13.77875 7.23243-21.36892.78414-5.99174.89955-12.03321 1.24478-18.0609.57839-10.09914.0516-20.19755.48408-30.28155.72807-16.97614 1.76044-33.9395 1.49272-50.94609C201.02156 317.30914 199.97321 314.69178 200.77988 312.01266z"/><path fill="#7c2804" d="M201.83347 436.33018c.298-1.51376 1.50588-2.45249 2.327-3.62866 2.02237-2.89705 4.09841-5.761 4.6566-9.37278.31367-2.02959.66241-4.04714.84493-6.10652a74.33834 74.33834 0 0 0 .45024-8.48406c-.10364-4.03209-.60192-8.03275-.90636-12.047-.18816-2.4812-.65177-4.92845-.70312-7.43349a64.45747 64.45747 0 0 0-.83748-7.65152c-.32477-2.29692-.30107-4.62324-.50254-6.9244-.25346-2.89464-.5734-5.80634-.72823-8.72271-.18127-3.41431-.73157-6.81021-1.15273-10.21026-.53683-4.33381-1.18115-8.64441-1.43562-13.02161-.53043-9.12433-.4346-18.24945-.47575-27.3771-.007-1.54352.17593-2.92286 1.57014-3.85416a1.175 1.175 0 0 1 .50008-.02286c.90536.89658.76477 2.06469.77565 3.16833.03578 3.625.10027 7.253-.00231 10.87531a202.948 202.948 0 0 0 2.13067 33.79587c1.49841 10.76341 1.79879 21.65655 3.08523 32.44772a135.55171 135.55171 0 0 1 .92366 22.659c1.56571-5.40118 2.87977-11.20025 4.41921-16.93449 4.03412-15.02649 3.49755-30.02875.60015-45.14513-2.55038-13.30579-4.40806-26.73959-7.19895-40.00462a4.80239 4.80239 0 0 1 .46529-3.98769q.53619-.76141 1.07254-1.52258c.97909 2.21764.94066 4.65078 1.426 6.97185 1.48927 7.12257 2.92685 14.26357 4.0765 21.44672.73033 4.56322 1.44639 9.13 2.21571 13.68787.59835 3.54484 1.24566 7.08224 1.78489 10.636a40.08989 40.08989 0 0 1 .82664 6.88085c-.05 2.321.54111 4.58078.55615 6.92124a94.87377 94.87377 0 0 1-2.61787 21.91365c-1.78643 7.78225-3.51842 15.57429-6.21446 23.11317a61.57291 61.57291 0 0 1-3.76993 8.46051 3.32794 3.32794 0 0 0-.388 1.72755 7.3704 7.3704 0 0 1-2.63574 3.0939C205.03711 432.97668 203.81034 435.06955 201.83347 436.33018zM200.77988 312.01266a23.49514 23.49514 0 0 1 1.00694 7.0782c.09883 7.33262.29219 14.67985-.06124 21.99676-.21167 4.38229-.03764 8.7955-.53262 13.13235-.40369 3.53719-.161 7.051-.42416 10.56021-.78065 10.41219-.17322 20.84876-.61355 31.25507-.189 4.46782-.06371 8.95446-.45872 13.39835-.66722 7.50647-1.33814 15.038-3.66766 22.27913a41.87151 41.87151 0 0 1-6.12566 11.3082q-1.29315.01261-2.58622.02568c6.02818-6.79039 8.28-15.04739 9.38092-23.79862.49277-3.917.70317-7.8495 1.07548-11.76607.78557-8.264-.01319-16.534.49169-24.77327.42693-6.96718.15012-13.94252.56731-20.88683.227-3.7789.024-7.58458.48766-11.31567.524-4.21691.02654-8.45026.52692-12.61171a86.25815 86.25815 0 0 0 .37213-12.10376c-.08479-4.19164-.52151-8.37646-.81981-12.56314a2.48266 2.48266 0 0 1 .365-1.21033Q200.27217 312.01513 200.77988 312.01266zM177.96012 439.45623c1.88287-3.06249 2.44415-6.55329 3.106-9.98265.86033-4.45761 1.13674-8.999 1.67544-13.5014.61109-5.10761.53623-10.27078 1.436-15.34332a2.34152 2.34152 0 0 0 .02035-.5164c-.2638-5.5129.4983-10.99158.66541-16.49133.11348-3.73387-.02684-7.55792.83818-11.26545a1.75919 1.75919 0 0 0 .042-.514c-.30562-4.39747.37617-8.75961.61557-13.12761.85436-15.58892.20092-31.18085.43785-46.76819.01151-.75815-.15959-1.57966.6017-2.13186a1.95717 1.95717 0 0 1 .43354.0929 5.09027 5.09027 0 0 1 .52814 3.00166c-.0029 5.17268.14033 10.35005-.03374 15.51679-.18592 5.51847.81651 11.00512.46328 16.48747-.299 4.64-.12 9.295-.54423 13.90065-.27711 3.00861-.02663 6.04391-.48644 8.98709-.58605 3.75107.02283 7.56817-.89908 11.26953a1.7026 1.7026 0 0 0-.03806.51416c.30728 4.73957-.63427 9.42359-.588 14.16307a112.13865 112.13865 0 0 1-.88855 12.81232c-.27769 2.63586-.3318 5.29948-.56225 7.95217a125.74953 125.74953 0 0 1-2.74842 19.56c-.54881 2.20747-.98287 4.54821-2.50166 6.41707A1.86677 1.86677 0 0 1 177.96012 439.45623zM184.7143 308.88576c.36824 5.60254-.39442 11.17432-.62361 16.75336a98.45008 98.45008 0 0 1-2.58995 16.4796c-1.76211 8.21418-3.31326 16.47712-5.55759 24.58266-1.60528 5.79751-3.33137 11.54947-5.351 17.22663a122.9727 122.9727 0 0 0-3.96282 15.1869 70.83692 70.83692 0 0 0-1.48965 19.97678c.20636 2.97092.11725 6.0016.82365 8.94731a13.28827 13.28827 0 0 1 .11918 2.57582 5.614 5.614 0 0 1-2.07629-2.09167c-.91292-6.59626-.45056-13.22965-.50267-19.84707-.03327-4.224 1.01748-8.31375 1.85373-12.425 1.44165-7.0874 3.79751-13.90466 6.01654-20.767a222.75821 222.75821 0 0 0 6.64153-26.16364c1.07612-5.54774 2.27831-11.07142 3.313-16.6266.42181-2.2646.63667-4.57.86453-6.87307.52665-5.32292.43571-10.64752.46807-15.97546a1.78921 1.78921 0 0 1 .61376-1.61454Q183.99487 308.55764 184.7143 308.88576z"/><path fill="#6e3232" d="M222.04645 410.457c0-.44864.05812-.86914.52827-1.0901A1.1984 1.1984 0 0 1 222.04645 410.457zM201.30819 436.8692q.27017-.2808.54045-.56172Q201.57854 436.58828 201.30819 436.8692z"/><path fill="#913808" d="M325.07229,332.11959c1.34567-.71394,2.794-.37765,4.2062-.4112-3.773,6.75665-6.56367,14.02442-10.72309,20.58179a14.52036,14.52036,0,0,0-1.51774,4.6541c-2.452,10.51723-4.13236,21.17452-5.85823,31.82567-1.72645,10.65478-4.47355,21.11184-6.23155,31.762a18.36814,18.36814,0,0,0-.37964,3.02179,78.74372,78.74372,0,0,1,4.2097-6.7876,37.5165,37.5165,0,0,0,6.27142-21.27093c.0142-4.23032,1.41191-8.13317,2.57553-12.096.26527-.90331.8155-1.89052,1.99335-1.63306,1.26684.277,1.16268,1.39436.91391,2.32164-2.14048,7.97845-1.21766,16.12863-1.40055,24.21579a21.2142,21.2142,0,0,1-.73557,6.89c4.2104-3.77878,7.075-7.70765,8.35066-12.7246a79.07682,79.07682,0,0,0,2.364-18.17157c.16114-8.89587-.66461-17.75753-.5923-26.64584a47.30667,47.30667,0,0,1,1.9759-13.00545,9.664,9.664,0,0,1,.83919-2.16911c.40241-.693.90186-1.36985,1.82112-1.126,1.03736.27516,1.22237,1.12966,1.0507,2.0614-.28165,1.529-.75653,3.01272-1.12185,4.52278a29.58676,29.58676,0,0,0,.32184,16.57095c4.99542,15.27932,6.632,31.18847,8.56944,47.03953.38692,3.16558.39761,6.33641.64982,9.50129.28262-4.49954.72646-8.98738,1.43293-13.43794,1.51556-9.54777-.30919-18.71994-2.89749-27.83314-.921-3.24261-1.95706-6.4399-3.19024-9.57556a14.09953,14.09953,0,0,1-.68577-1.95358c-.23592-1.01924-.54451-2.18349.7843-2.63263,1.104-.37313,1.74159.474,2.20724,1.354a22.78614,22.78614,0,0,1,1.28033,3.11049c1.03239,2.92718,1.88012,5.91059,2.71419,8.896.32073,2.18.918,4.3114,1.08669,5.60865-.42977-1.76938-.7-4.48705-1.52584-7.09331-2.37085-14.18679-5.45959-28.24605-7.40567-42.504a22.249,22.249,0,0,1,.07178-4.90154,6.76749,6.76749,0,0,1,2.60272-1.05937c.98051.97251.82076,2.24124.77181,3.41517-.18868,4.52878.72994,8.90042,1.601,13.30547,3.79524,19.19372,7.07949,38.48126,9.63327,57.87605a165.88427,165.88427,0,0,1,1.2409,23.19877c-.026,2.76655-.60687,5.47748-.62657,8.2416a4.19968,4.19968,0,0,1-1.20422,2.79456c-1.32046.22271-1.45691-.75422-1.53356-1.63075-.08784-1.00425-.01451-2.02261-.01119-3.03483.75258-3.07637-.08465-6.14686-.06226-9.22384.05951-8.18041-1.1141-16.30953-1.202-24.48647-.014-1.30519-.89544-2.459-.59634-3.41029-.12648,1.22693.55479,2.72848.5952,4.33116.17253,6.84781-1.17883,13.5415-1.873,20.2976-.37851,3.68416-.097,7.39394-.81687,11.07023a78.85349,78.85349,0,0,1-4.80218,15.79639,26.91976,26.91976,0,0,1-2.12775,3.22265c-1.00659.59912-1.95076.86638-2.59023-.487,2.202-6.23575,5.12481-12.23109,6.16274-18.855.31371-2.00227.65462-3.83594-1.15771-5.44722-.97832-.86983-.99631-2.33236-1.07448-3.639a344.98633,344.98633,0,0,0-5.6919-43.53776c-.61781-3.26493-1.67908-6.43174-1.911-9.02646,1.251,5.899,1.04463,12.57525.45968,19.235-.602,6.8528-1.36638,13.60056-.02508,20.54314,1.06569,5.51615,1.6884,11.27481.14157,16.92592a30.73758,30.73758,0,0,1-3.61311,10.874c-1.03609-1.38092-.30122-2.86085-.10884-4.23908a92.82377,92.82377,0,0,0,.36083-23.98c-.05847-.48813.08531-1.04318-.38654-1.47932-2.8,4.93524-6.13355,9.344-11.30456,12.034a3.85815,3.85815,0,0,0-1.72025,2.77987c-2.18181,8.693-4.83456,17.30809-4.30383,26.44766a3.40479,3.40479,0,0,1-.70212,2.91811c-.57382.37936-.50919.97548-.52373,1.54434-.01458.57.04309,1.16375-.518,1.551-1.09466-.43716-1.055-1.45263-1.2238-2.37252-1.24169-6.76616-.12692-13.391,1.33185-19.96151a98.04278,98.04278,0,0,1,4.72876-16.36452,42.64,42.64,0,0,0,1.84119-7.28358c-.4615,2.59757-2.66495,5.85845-4.533,9.24418-1.2027,2.17995-2.5841,4.27284-3.97975,6.34617-2.1244,3.156-4.304,6.29144-3.72325,10.43391a1.92551,1.92551,0,0,1-.69351,1.85815c-.73487-.80846-.44269-1.807-.45218-2.72361-.03709-3.59224-.01515-7.18508-.01515-10.97694-.50245.35611-.76551.54258-1.02856.729-.73329-.72159-.44924-1.5765-.35223-2.42922a198.123,198.123,0,0,1,3.78854-19.80991c2.44914-11.21518,3.89331-22.60417,6.03553-33.87079a35.44227,35.44227,0,0,1,1.338-5.16636c-2.66217,8.74576-6.40846,18.15721-8.39581,28.10947-1.607,8.04738-2.91163,16.12044-2.71849,24.35967.08086,3.44937-.22915,6.88278-.277,10.32564-1.07233.98443-1.63515.38568-1.9709-.67836-.1951-.61835.14084-1.394-.556-1.86839-1.03673-1.06743-.72428-2.42622-.73981-3.68394-.22337-18.08689,3.47692-35.44377,9.78344-52.31155a89.89535,89.89535,0,0,1,5.62477-12.479c2.141-3.83054,2.24538-8.28533,3.12106-12.49a67.8201,67.8201,0,0,0,1.27559-7.38907,4.59439,4.59439,0,0,1,1.11732-2.83845c1.58931.09862,3.22977-.33661,4.75258.45559-2.39106.68118-2.82616,2.58891-3.02714,4.7059-.26708,2.8136-.94452,5.55543-1.36967,7.78885C321.19041,340.85536,323.11281,336.47883,325.07229,332.11959Z"/><path fill="#7c2804" d="M350.5159 437.85662a14.32188 14.32188 0 0 0 .54328-4.07057c.11412-3.34708.6205-6.666.516-10.03792-.17037-5.49576-.632-10.9679-.9768-16.45047-.61026-9.70344-2.60984-19.17974-4.16882-28.732-1.68369-10.31647-3.2236-20.65723-5.27033-30.91122-.45329-2.27089-.986-4.52654-1.51316-6.782a38.90609 38.90609 0 0 1-.53269-8.73979q-.00877-1.55361-.01356-3.10749 1.52421-1.05051 3.04829-2.101a2.7 2.7 0 0 1 1.09143 2.23993c.16538 8.79883 2.9018 17.064 5.31426 25.38543 3.42116 11.80069 6.62529 23.661 9.07632 35.69772 1.48964 7.31513 2.61677 14.72219 2.237 22.2519-1.11866 3.31543-1.85982 6.75127-3.24093 9.98408a72.48551 72.48551 0 0 0-3.60755 11.49147C352.65715 435.46608 352.3195 437.19473 350.5159 437.85662zM318.906 331.65913c-.482 4.69078-1.46193 9.29922-2.3064 13.93-.15374.84286-.36184 1.677-.48665 2.52373a25.99614 25.99614 0 0 1-3.52586 9.31036c-2.201 3.79518-3.54721 8.01124-5.02372 12.141A154.01573 154.01573 0 0 0 300.482 396.16c-.62986 3.79031-1.031 7.63-1.33456 11.48234-.39982 5.07343-.4482 10.13478-.42388 15.20871-.11131.84783-.462 1.53017-1.43348 1.44423a1.7879 1.7879 0 0 1-1.56675-1.497 15.7145 15.7145 0 0 1-.58493-3.769c.09945-4.44363-.45056-8.85074-.59292-13.27838a4.80672 4.80672 0 0 1-.45361-1.46316c.13221-4.63055-.17378-9.247.334-13.90128a73.0796 73.0796 0 0 1 4.20673-16.66009c1.58478-4.44458 3.32254-8.83373 4.61619-13.37931 1.57276-5.52637 3.12168-11.0603 4.77385-16.563a55.46838 55.46838 0 0 1 6.27126-13.20385Q316.60018 331.11947 318.906 331.65913zM310.62109 451.85523c-.58625-8.763.94022-17.25636 3.26636-25.64879.4806-1.73394.95565-3.4698 1.40122-5.21291a2.8188 2.8188 0 0 1 2.20518-2.26365 7.13033 7.13033 0 0 0 3.209-2.05682A29.40346 29.40346 0 0 0 328.884 405.028a32.38241 32.38241 0 0 1 1.38165 8.77675 105.79781 105.79781 0 0 1-.01474 11.36177c-.271 4.08344-.95893 8.13921-1.46471 12.20731a50.557 50.557 0 0 1-6.9446 12.26091 39.77723 39.77723 0 0 1-4.70555 5.76577c-2.211 2.10482-4.80083 1.51885-5.89226-1.32318C310.96918 453.36235 310.82514 452.59728 310.62109 451.85523zM332.39951 426.5a1.48414 1.48414 0 0 1-.43425-1.63853c.67628-3.49665.29863-6.96759.056-10.49033-.3016-4.37935-1.07132-8.66529-1.70162-12.98335-.30581-2.095.36288-4.10242.60039-6.13356a95.40292 95.40292 0 0 0 .9338-13.84537c-.09657-3.34383.30242-6.70182-.449-10.03214a17.97563 17.97563 0 0 1-.03753-3.62648 3.88337 3.88337 0 0 1 1.00289 2.10276 212.83353 212.83353 0 0 1 4.58374 22.65163c.72884 4.47222.97481 9.023 1.69941 13.49612.64434 3.97763.71859 8.00884 1.40935 11.97958a47.87154 47.87154 0 0 1 .11611 4.90337c.12465 1.84455.36253 3.70389 2.81139 3.78921-.544 8.18-3.30477 15.54025-6.59291 22.74718a1.799 1.799 0 0 1-.90164.88122c.00006-1.54706.00006-3.09421.00006-5.18145-.71713 1.39313-1.17693 2.355-1.70168 3.28a1.27424 1.27424 0 0 1-1.49583.74246 1.32282 1.32282 0 0 1-.96444-1.36656 17.42574 17.42574 0 0 1 .46685-4.59655 66.30915 66.30915 0 0 0 1.04415-16.67647.97643.97643 0 0 1-.13337-.89045c-.09515.29247-.06486.62847-.30258.87142zM283.67594 441.98506a46.00986 46.00986 0 0 1-3.29475-9.76361 42.64456 42.64456 0 0 1-.49661-13.5716c.46265-3.04605.67628-6.13311 1.41232-9.14223a70.26559 70.26559 0 0 1 4.17005-11.92307c2.77189-6.213 5.645-12.38085 8.48094-18.56519a4.65315 4.65315 0 0 1 .84358-1.2963 22.67812 22.67812 0 0 1-1.04308 5.29787 80.87769 80.87769 0 0 0-1.33523 8.89183 64.78778 64.78778 0 0 0-.40946 9.52667c.0899 2.82942.67131 5.63442.53645 8.48372-1.54664 3.898-3.13269 7.78088-4.62817 11.69831a39.12694 39.12694 0 0 0-2.14931 9.21919c-.37607 3.05086-.70218 6.10779-1.06626 9.16016A2.52355 2.52355 0 0 1 283.67594 441.98506z"/><path fill="#7c2804" d="M303.32787 436.85089a7.07065 7.07065 0 0 0 .03279-1.2915c-.62388-4.03813.97352-7.346 3.207-10.55126a88.41158 88.41158 0 0 0 8.2829-14.28108c.58647-1.3067 1.12229-2.63611 1.87591-4.41394a18.77782 18.77782 0 0 1-1.15745 8.71955 123.391 123.391 0 0 0-5.96957 21.5706 49.91872 49.91872 0 0 0-1.02866 11.77439 25.37586 25.37586 0 0 0 1.00862 6.573c-1.27566 1.17245-1.74861.09272-2.228-.82334a31.07947 31.07947 0 0 1-2.84276-8.70823C303.97275 442.59 303.71052 439.709 303.32787 436.85089zM301.25056 425.39789c-.70445-.60835-.46837-1.43581-.47064-2.18406-.014-4.57537-.19062-9.16123.05764-13.72341a120.56261 120.56261 0 0 1 1.69463-14.02935 160.67554 160.67554 0 0 1 5.16216-20.464c1.43619-4.59444 3.25146-9.07077 4.91735-13.59247a2.52 2.52 0 0 1 1.024-1.43588c-.54581 2.80238-.96318 5.44087-1.58535 8.03015-1.10376 4.59333-1.68243 9.275-2.40579 13.92705-.97532 6.27262-2.18159 12.49617-3.45614 18.71-1.51578 7.39-3.13048 14.76058-4.34539 22.20922a6.65626 6.65626 0 0 0-.01116 1.03423A3.06733 3.06733 0 0 1 301.25056 425.39789zM368.195 404.78857c-.35839 1.28185-1.47376 2.0245-2.17951 3.05977-2.536-.14043-2.73822 2.05685-3.60061 3.59278-.15887-.29335-.47375-.59881-.45215-.87824.22087-2.858-.45674-5.6495-.63015-8.47743a90.03555 90.03555 0 0 0-1.748-11.42138c-1.49036-7.75552-3.35521-15.41927-5.385-23.04663-.01692-.06359.0671-.154.11393-.25281.641.16673.89259.762 1.1467 1.23059 5.21866 9.6248 10.105 19.3954 12.00257 30.32253A26.52093 26.52093 0 0 1 368.195 404.78857zM338.08594 450.78847c.62942-1.59209 1.1911-3.21507 1.90036-4.77079 2.51482-5.51571 3.7634-11.37672 4.76247-17.302a17.26032 17.26032 0 0 0 .06131-3.35422c-.09274-3.10427.64744-6.12764.86749-9.18726.29525-4.10443 1.28947-8.13184 1.22487-12.266a7.70952 7.70952 0 0 1 .23276-2.8149 4.80557 4.80557 0 0 0-.03668-3.28574 3.9463 3.9463 0 0 1 .13307-2.829c.40038 2.4924.90243 4.97341 1.183 7.47922a211.49887 211.49887 0 0 1 1.04839 28.04395c-.01919.90762.33282 1.91646-.49195 2.68937a77.74605 77.74605 0 0 0-2.09556-15.99946c0 4.00887-.00813 8.01775.0024 12.02656a50.0584 50.0584 0 0 1-1.159 10.72271A16.30565 16.30565 0 0 1 338.08594 450.78847z"/><path fill="#8c4646" d="M332.40881,426.48373c.05116-.20488.10485-.58759.1531-.58692.44738.00639.24813.368.28339.60563A3.15874,3.15874,0,0,0,332.40881,426.48373Z"/><path fill="#7c2804" d="M302.078,326.344a12.63206,12.63206,0,0,1,.20468,9.10981c-3.45358,9.0959-6.81416,18.2251-11.39522,26.83208a148.59594,148.59594,0,0,1-10.35588,16.32639,40.32008,40.32008,0,0,0-6.98064,15.67705c-.254,1.28217.092,2.68962-.709,4.29676a15.49092,15.49092,0,0,1-1.50763-6.4762,46.0228,46.0228,0,0,1,2.67188-20.80933,83.26755,83.26755,0,0,1,9.97468-17.42256c4.52234-6.37609,9.49436-12.4426,13.42286-19.22749,1.29418-2.23519,2.33622-4.6154,3.53339-6.90852C301.1976,327.24278,301.25834,326.54405,302.078,326.344Z"/><path fill="#7c2804" d="M303.80083 337.85905a36.52835 36.52835 0 0 1-.13528 10.11075c-.84731 7.09916-4.0029 13.47639-6.79269 19.93909-2.831 6.55813-5.8077 13.05361-8.74893 19.56377-1.27669 2.82581-2.67178 5.59657-3.97551 8.41128a72.50726 72.50726 0 0 0-5.41671 16.36816 20.55426 20.55426 0 0 0-.66249 7.18173c-1.36508-1.27038-1.11119-2.73234-1.38168-3.96512-1.08583-4.94874-2.03962-9.9319-1.80148-15.04083.2968-6.36623 1.74617-12.37605 5.31931-17.79168 3.55076-5.38173 7.2685-10.64881 10.55389-16.21439a121.252 121.252 0 0 0 7.43352-15.30167c1.74757-4.21179 3.54579-8.40113 4.96051-12.742A.61424.61424 0 0 1 303.80083 337.85905zM307.50431 325.44317a12.192 12.192 0 0 0 4.64047 4.213c-.62451 2.34292-2.274 4.18886-3.06357 6.48376-.74423 2.16328-2.10459 4.09634-3.12453 6.33719 0-.69117.01227-1.38257-.0024-2.07342a31.08456 31.08456 0 0 0-.39944-5.37487c-.622-3.19239.433-6.26842 1.25324-9.324C306.84548 325.56538 307.26355 325.52807 307.50431 325.44317z"/><path fill="#7c3b3b" d="M291.45486,339.94544c.03933-.07245.09378-.2117.1157-.20674.17394.03927.13189.11934-.11811.20427Z"/><path fill="#7c2804" d="M386.90106 384.19837c-1.48552-1.96957-2.92042-3.98-4.46691-5.90047a110.06335 110.06335 0 0 0-11.59427-11.712c-4.99565-4.59225-9.95179-9.24639-13.3913-15.265-2.17227-3.80122-4.59089-7.46471-6.64095-11.34062a5.65805 5.65805 0 0 1-.97806-2.61609c1.47843.99485 2.811 1.83332 4.08132 2.75741 3.53917 2.57474 7.02254 5.227 10.5849 7.76883a27.08532 27.08532 0 0 1 7.98316 8.55677c4.34956 7.51672 8.72268 15.01674 12.6728 22.753.79723 1.56141 1.39082 3.22676 2.07829 4.84418zM371.25506 400.58491a3.39131 3.39131 0 0 1-1.08387 1.50949 1.58493 1.58493 0 0 1-.49509-1.1394 81.88252 81.88252 0 0 0-9.03017-26.73779c-1.79-3.3368-3.74462-6.58849-5.44772-9.96791a63.8022 63.8022 0 0 1-5.54136-14.1466 7.27364 7.27364 0 0 1 .21215-3.59287c1.24109 1.59031 2.47608 3.18546 3.72637 4.76847a9.44586 9.44586 0 0 0 1.5044 1.75481c2.82236 2.14789 4.47529 5.17711 6.26478 8.10794a65.1233 65.1233 0 0 1 8.69419 22.75958 47.983 47.983 0 0 1 .725 6.64929C370.90236 393.89324 371.38094 397.22458 371.25506 400.58491zM351.27047 345.19585c-1.439-1.71028-3.04637-3.35394-3.15255-5.78519A21.81148 21.81148 0 0 1 351.27047 345.19585zM336.497 330.08437c.4045.10827.9417.14925.85762.73184-.63393 4.3912.24124 8.65728 1.0533 12.92492 1.53039 8.04279 3.24469 16.05125 4.3661 24.169.45458 3.291 1.0163 6.56717 1.52925 9.85009.16734.63226.76883 1.41005-.5208 1.55405a120.732 120.732 0 0 0-4.01169-11.71545c-.10061-.23637-.12616-.50461-.22624-.74132-.25357-.6-.65434-1.08808-1.3685-.87167-.79852.242-.67077.96906-.48658 1.515.52235 1.54788 1.15815 3.057 1.71136 4.595a106.89958 106.89958 0 0 1 5.50221 21.66622c.75027 5.45386.21334 10.76344-.45389 16.142a47.81648 47.81648 0 0 0-.7 6.65514 18.94011 18.94011 0 0 1-1.18743 6.03509 21.40792 21.40792 0 0 1-.89548-6.21042c-.13812-2.64475-.60677-5.27046-.85471-7.9117-.28854-3.07391-.81127-6.1216-1.1106-9.18539-.40089-4.1033-1.17683-8.14367-1.76707-12.21076a116.12229 116.12229 0 0 0-3.4521-16.34859c-.65891-2.22371-1.18132-4.49539-1.96834-6.67206-1.8293-5.05939-1.44663-10.14818-.39257-15.25345.38147-1.84762.93184-3.66266 1.4618-5.476.18353-.6279.38164-1.2558-.34941-1.54247-.91533-.359-1.15239.38777-1.3874 1.06231A42.44684 42.44684 0 0 0 329.2985 355.676a80.49267 80.49267 0 0 0 .05724 11.12455c.81278 7.23538.48383 14.47238.34732 21.69275a48.76155 48.76155 0 0 1-3.50936 17.8313 26.283 26.283 0 0 1-7.35672 9.50552 1.603 1.603 0 0 1-1.34243.3792c1.551-4.96595.7109-10.05851.89193-15.1001a57.51255 57.51255 0 0 0-.01872-5.95293c-.26138-3.84448.752-7.49155 1.51847-11.18261a7.27222 7.27222 0 0 1 .19567-.75068c.14732-.457.12807-.88166-.36772-1.07758-.62821-.24822-1.00033.16813-1.18265.67014a18.251 18.251 0 0 0-1.079 3.44138 26.71524 26.71524 0 0 1-.88472 3.492 16.7764 16.7764 0 0 0-.782 5.3326c.14284 3.79641-.87128 7.48873-1.14746 11.25175a4.7941 4.7941 0 0 1-.45872 1.47686 108.1199 108.1199 0 0 1-10.568 18.202c.43144-6.70586 1.93954-12.7234 3.16611-18.78214 1.56452-7.728 3.27455-15.42411 4.40247-23.23769 1.37178-9.503 3.38079-18.8905 5.28228-28.29816.56972-2.81863 2.17107-5.0578 3.531-7.41357a121.03669 121.03669 0 0 0 6.90969-14.15409 4.59712 4.59712 0 0 1 2.37525-2.41834A64.43571 64.43571 0 0 0 336.497 330.08437zM325.07229 332.11959c.611.56428.1393 1.1818-.05558 1.65017a148.02424 148.02424 0 0 1-6.44759 13.45416c-.42119-2.20148.24507-3.81519.55315-5.33212.52655-2.5926.75508-5.22571 1.30531-7.81019.37885-1.77947.28367-1.79873 2.204-1.89587.3423-.01733.684-.04654 1.02648-.07064Q324.36569 332.11695 325.07229 332.11959z"/><path fill="#913808" d="M210.63919,308.34738c-.16985,3.83749,1.13488,7.44921,1.7507,11.16372,1.09272,6.591,2.5003,13.12568,3.46825,19.74336.79328,5.42353,1.88256,10.80321,2.78655,16.21135.52233,3.12481.89907,6.2773,1.38723,9.40307.60507,3.87426.30739,7.735.45582,11.59924.20628,5.36972-.74933,10.599-1.82488,15.8213-1.54238,7.4889-3.36209,14.9081-5.53767,22.23724a5.37465,5.37465,0,0,1-1.21725,2.7165,3.39574,3.39574,0,0,1-.22633-1.91975q-.02322-5.43788-.00381-10.87587c.01048-3.61507-.58673-7.17421-.90242-10.7586-.21061-2.3915-.45754-4.78628-.70007-7.17332a81.63968,81.63968,0,0,0-.87886-8.69,7.51831,7.51831,0,0,1-.105-1.54529c.00187-3.78658-.70612-7.51782-.92931-11.273-.29605-4.98157-1.05617-9.8967-1.7441-14.81009-1.27341-9.09483-.87426-18.21432-.963-27.33075-.037-3.79755-.01138-7.59577-.01432-11.39355A20.5667,20.5667,0,0,0,210.63919,308.34738Z"/><path fill="#f9eceb" d="M128.64172,455.046a.825.825,0,0,1,.75645,1.09263,2.70253,2.70253,0,0,0,1.539,3.38149.85147.85147,0,0,1,.39613,1.28081c-.33659.52721-.88483.37695-1.37784.19481a4.42088,4.42088,0,0,1-2.5121-4.81521C127.62019,455.58822,127.9005,455.0647,128.64172,455.046Z"/><path fill="#ecebe5" d="M259.7416,464.49658a4.53329,4.53329,0,0,1-4.02524-3.42965c-.0849-.50587-.16481-1.0956.42946-1.33421.62431-.25069.97369.17964,1.09132.73212.33857,1.59012,1.62864,2.073,2.90225,2.62343.37718.163.759.50369.47621,1.01557A.81192.81192,0,0,1,259.7416,464.49658Z"/><path fill="#f9f3f3" d="M204.78115,465.01434a3.66839,3.66839,0,0,1-3.19917-1.44688c-.2958-.4464-.43715-.94395.06482-1.3722a.76167.76167,0,0,1,1.13766.13594,2.681,2.681,0,0,0,2.54938.878c.496-.05736,1.11582-.14767,1.22936.54439.12479.76058-.449,1.02212-1.07567,1.15575C205.23659,464.96286,204.9791,464.98572,204.78115,465.01434Z"/><path fill="#eeebe5" d="M349.60787,466.93873a5.04,5.04,0,0,1-3.60972-1.3961.80871.80871,0,0,1-.06935-1.13861.67294.67294,0,0,1,.92267-.08323,7.38416,7.38416,0,0,0,3.35593,1.06721.86128.86128,0,0,1,.83755.81842c.00142.68915-.57433.71394-1.09314.73139C349.78251,466.9435,349.61284,466.93873,349.60787,466.93873Z"/><path fill="#c68e8a" d="M344.36925,321.27552a6.52246,6.52246,0,0,1-2.2214,5.64836c-.487,1.46219-1.91579,1.814-3.01064,2.56314-.90455.4623-1.88476.7454-2.7951,1.1985a31.38859,31.38859,0,0,1-7.07747,1.651,17.77364,17.77364,0,0,0-4.07709.288,4.61142,4.61142,0,0,1-1.67155.00759c-1.49175-.46183-3.03928-.17961-4.55506-.32861-1.61862-.40241-3.40115-.366-4.66685-1.7235-.59817-.58325-1.43951-.60058-2.1495-.92359a5.12522,5.12522,0,0,1-4.64028-4.21327c-1.03262-2.45474.19-4.34166,1.55869-6.19152,3.81137-3.28842,8.447-4.56145,13.26826-5.16854a38.19889,38.19889,0,0,1,12.05168.46786,20.0624,20.0624,0,0,1,6.267,2.30663A7.21171,7.21171,0,0,1,344.36925,321.27552Z"/><path fill="#f5eeee" d="M316.914,320.72728c-.23934,1.3856.56231,2.31731,1.22768,3.31451.36187.54236.97744,1.08552.41534,1.8258-.4813.63384-1.21409.56753-1.894.51485a5.80909,5.80909,0,0,1-4.93806-4.57515c-.09315-.51959-.15371-1.1344.3263-1.41678a8.80008,8.80008,0,0,1,4.328-1.41978C317.47791,318.96909,317.15092,320.03589,316.914,320.72728Z"/><path fill="#c68e8a" d="M212.846,302.12835a8.90557,8.90557,0,0,1-1.13413,4.6967c.1649.8482-.40086,1.359-.87628,1.91436a13.25234,13.25234,0,0,1-5.37223,3.22411,5.44417,5.44417,0,0,1-.75734.16209,19.6714,19.6714,0,0,1-3.92023.53952,12.20118,12.20118,0,0,1-1.2224.00721,40.27689,40.27689,0,0,1-11.362-2.02925,4.27237,4.27237,0,0,1-.741-.22912c-.899-.39827-1.83728-.69921-2.77055-1.01213a16.43923,16.43923,0,0,1-1.65264-.70736c-2.41249-1.47022-5.22455-2.43526-6.62242-5.19937-.01872-.1182-.03548-.237-.05224-.3559-.48192-2.07307-1.29574-4.06965-.65028-6.3074,1.37828-4.77835,4.65949-7.27976,9.38155-8.11069,7.02817-1.2367,13.73491.09571,20.1146,2.98809C209.59553,293.69823,211.88833,297.48921,212.846,302.12835Z"/><path fill="#fdfcfc" d="M182.004,295.331c2.07855-.00787,2.436.30208,1.93483,2.15159a4.25448,4.25448,0,0,0,.76237,4.09805c.37859.4683.7296,1.01822.21962,1.61592-.51779.60687-1.11015.33006-1.62273.00842-2.0312-1.27461-3.72035-2.80181-3.7181-5.46433C179.58166,295.78578,180.03707,295.3385,182.004,295.331Z"/><path fill="#d64142" d="M208.40727 69.16584a18.23109 18.23109 0 0 1-2.30277.39738 24.41136 24.41136 0 0 1-3.10385.19732 14.00454 14.00454 0 0 1-2.7024-.23715 4.80094 4.80094 0 0 1-1.96785-.83729 3.60251 3.60251 0 0 1-1.1989-1.67 8.136 8.136 0 0 1-.39692-2.80423l.01357-10.41043-12.81366-.01629-.01992 15.34906a18.54 18.54 0 0 1-2.30277.39737 24.40166 24.40166 0 0 1-3.10339.19643 13.93 13.93 0 0 1-2.7024-.23716 4.7953 4.7953 0 0 1-1.96785-.83729 3.59582 3.59582 0 0 1-1.19936-1.66914 8.15182 8.15182 0 0 1-.39647-2.80423l.04616-35.23669q.7332-.1317 2.33626-.36478a21.39966 21.39966 0 0 1 3.07036-.229 13.95181 13.95181 0 0 1 2.7024.23716 4.81628 4.81628 0 0 1 1.9674.83728 3.60057 3.60057 0 0 1 1.19936 1.66915 8.14823 8.14823 0 0 1 .39647 2.80423l-.014 10.67745 12.81366.0163.02037-15.61609q.73387-.13172 2.33626-.36389a21.4061 21.4061 0 0 1 3.07035-.22991 14.0214 14.0214 0 0 1 2.70241.23716 4.81834 4.81834 0 0 1 1.96785.83728 3.60571 3.60571 0 0 1 1.1989 1.67 8.13751 8.13751 0 0 1 .39692 2.80333zM249.80412 53.27005a20.10025 20.10025 0 0 1-1.27765 7.37266 14.94936 14.94936 0 0 1-3.57726 5.43467 15.17721 15.17721 0 0 1-5.51071 3.32924 21.28242 21.28242 0 0 1-7.14183 1.126 20.22434 20.22434 0 0 1-7.13958-1.21022 15.71486 15.71486 0 0 1-5.5012-3.44419 15.334 15.334 0 0 1-3.56323-5.44464 19.42788 19.42788 0 0 1-1.25864-7.20882 19.25327 19.25327 0 0 1 1.27765-7.14 15.33087 15.33087 0 0 1 3.57726-5.43377 15.72449 15.72449 0 0 1 5.51025-3.42971 20.21319 20.21319 0 0 1 7.14275-1.19212 19.72313 19.72313 0 0 1 7.13866 1.24371 16.1347 16.1347 0 0 1 5.50166 3.47769 15.3351 15.3351 0 0 1 3.56277 5.44372A19.07577 19.07577 0 0 1 249.80412 53.27005zm-23.35806-.03077a10.54708 10.54708 0 0 0 1.56053 6.243 5.09 5.09 0 0 0 4.36838 2.17424 4.89458 4.89458 0 0 0 4.30727-2.19687 10.93926 10.93926 0 0 0 1.50984-6.205 10.5923 10.5923 0 0 0-1.527-6.1751 5.42246 5.42246 0 0 0-8.67566-.01087A10.58135 10.58135 0 0 0 226.44606 53.23928zM266.86714 69.44283q-.73523.1317-2.16971.36478a18.25967 18.25967 0 0 1-2.9029.22992 15.80545 15.80545 0 0 1-2.63632-.20367 4.49644 4.49644 0 0 1-1.96785-.80379 3.84793 3.84793 0 0 1-1.232-1.63656 7.05941 7.05941 0 0 1-.43041-2.70286l.05069-38.708q.73388-.13305 2.16926-.36388a17.94288 17.94288 0 0 1 2.9038-.22991 15.71457 15.71457 0 0 1 2.63542.20366 4.47729 4.47729 0 0 1 1.96785.8038 3.85138 3.85138 0 0 1 1.2324 1.63565 7.09133 7.09133 0 0 1 .43041 2.70376zM285.55359 69.46727q-.73524.1317-2.16971.36478a18.155 18.155 0 0 1-2.9029.22992 15.80545 15.80545 0 0 1-2.63632-.20367 4.49639 4.49639 0 0 1-1.96785-.80379 3.84793 3.84793 0 0 1-1.23195-1.63656 7.05922 7.05922 0 0 1-.43041-2.70286l.05069-38.708q.73388-.13305 2.16925-.36388a18.0453 18.0453 0 0 1 2.90381-.22991 15.71457 15.71457 0 0 1 2.63542.20366 4.47729 4.47729 0 0 1 1.96785.8038 3.85138 3.85138 0 0 1 1.2324 1.63565 7.09133 7.09133 0 0 1 .43041 2.70376zM297.77663 61.27543q-.7332-1.66869-1.56324-3.74019-.83231-2.06787-1.72889-4.7404-.89748-2.66937-1.86058-6.109-.964-3.43785-2.02534-7.91123a8.65992 8.65992 0 0 1 5.94294-2.32721 7.14339 7.14339 0 0 1 3.86917.97216 5.949 5.949 0 0 1 2.2643 3.64062l5.24775 18.35877.267.00091q.80379-2.26611 1.575-4.93683.76985-2.66666 1.50847-5.50347.73727-2.835 1.37542-5.67093.63747-2.835 1.10838-5.57045a11.1363 11.1363 0 0 1 5.274-1.26181 6.96566 6.96566 0 0 1 3.86963 1.00655 3.82585 3.82585 0 0 1 1.5302 3.47226 21.97584 21.97584 0 0 1-.47251 4.17105q-.47113 2.36793-1.24144 5.03639-.77121 2.66937-1.809 5.50347-1.03869 2.835-2.176 5.56955-1.13916 2.7359-2.3426 5.16946-1.20433 2.43447-2.34123 4.36747a46.90735 46.90735 0 0 1-3.47769 5.3342 19.00285 19.00285 0 0 1-3.074 3.23329 8.79421 8.79421 0 0 1-2.93866 1.59854 10.80081 10.80081 0 0 1-3.07035.42905 6.27794 6.27794 0 0 1-4.53539-1.67367 7.01546 7.01546 0 0 1-2.06335-4.34122q2.13712-1.666 4.276-3.69855a44.74532 44.74532 0 0 0 3.87551-4.16652 6.27969 6.27969 0 0 1-2.43356-1.57048A15.46373 15.46373 0 0 1 297.77663 61.27543zM279.3124 120.17883q-2.93616-1.0061-5.336-2.043a16.34634 16.34634 0 0 1-4.13439-2.50824 10.3452 10.3452 0 0 1-2.69833-3.50756 11.50334 11.50334 0 0 1-.9613-4.97213 10.92181 10.92181 0 0 1 4.38332-9.07076Q274.9404 94.68 282.81634 94.69a33.46717 33.46717 0 0 1 5.33827.40733 15.93334 15.93334 0 0 1 4.23667 1.24009 7.39684 7.39684 0 0 1 2.76622 2.13893 4.83849 4.83849 0 0 1 .99751 3.03777 5.34423 5.34423 0 0 1-.80471 2.969 8.285 8.285 0 0 1-1.93843 2.0991 15.10481 15.10481 0 0 0-3.93525-1.63928 19.74069 19.74069 0 0 0-5.40481-.70784 8.91472 8.91472 0 0 0-4.40594.82823 2.43314 2.43314 0 0 0-1.40393 2.10092 1.94118 1.94118 0 0 0 .86535 1.63565 8.96838 8.96838 0 0 0 2.601 1.1713l3.53607 1.13961a25.58836 25.58836 0 0 1 9.6365 5.11787 10.91344 10.91344 0 0 1 3.35956 8.44619 11.1059 11.1059 0 0 1-4.48378 9.17034q-4.47656 3.49759-13.15175 3.48673a30.69511 30.69511 0 0 1-5.70533-.5078 18.06093 18.06093 0 0 1-4.60282-1.47453 8.49464 8.49464 0 0 1-3.06718-2.40686 5.27354 5.27354 0 0 1-1.09662-3.3048 5.00372 5.00372 0 0 1 1.13916-3.30208 8.65315 8.65315 0 0 1 2.472-2.0991 18.10592 18.10592 0 0 0 4.568 2.54263 15.93267 15.93267 0 0 0 5.90447 1.07445q3.26949.00543 4.60643-.99479a2.886 2.886 0 0 0 1.33785-2.33354 2.28967 2.28967 0 0 0-1.06494-2.03755 13.88641 13.88641 0 0 0-3.00156-1.37135zM324.09869 115.7661a3.72631 3.72631 0 0 0-1.16361-3.03867 4.82214 4.82214 0 0 0-3.16857-.97126 10.51979 10.51979 0 0 0-2.63677.33039 6.64571 6.64571 0 0 0-2.23714.99841l-.03033 23.15711a15.57634 15.57634 0 0 1-2.10272.39828 21.56143 21.56143 0 0 1-2.96988.19552 15.61026 15.61026 0 0 1-2.63587-.20367 4.5064 4.5064 0 0 1-1.96786-.80289 3.847 3.847 0 0 1-1.23239-1.63656 7.07686 7.07686 0 0 1-.43-2.70376l.02625-20.02158a5.14321 5.14321 0 0 1 .77076-2.93548 8.09108 8.09108 0 0 1 2.105-2.06561 19.07613 19.07613 0 0 1 5.70985-2.59514 27.27792 27.27792 0 0 1 7.64285-.99117q7.54035.00951 11.60752 3.31837a11.16589 11.16589 0 0 1 4.05926 9.1812l-.0276 20.88874a15.29227 15.29227 0 0 1-2.10273.39828 21.5662 21.5662 0 0 1-2.97033.19642 15.699 15.699 0 0 1-2.63542-.20366 4.49191 4.49191 0 0 1-1.96785-.8038 3.83874 3.83874 0 0 1-1.2324-1.63565 7.06736 7.06736 0 0 1-.43041-2.70376zM376.01368 120.17159a20.1039 20.1039 0 0 1-1.27765 7.37266 14.94948 14.94948 0 0 1-3.57726 5.43467 15.17729 15.17729 0 0 1-5.51071 3.32924 21.28242 21.28242 0 0 1-7.14183 1.126 20.2242 20.2242 0 0 1-7.13958-1.21113 15.70163 15.70163 0 0 1-5.5012-3.44419 15.33514 15.33514 0 0 1-3.56277-5.44373 19.43255 19.43255 0 0 1-1.25865-7.20972 19.23021 19.23021 0 0 1 1.27765-7.13912 15.33964 15.33964 0 0 1 3.57681-5.43468 15.73769 15.73769 0 0 1 5.51025-3.42971 20.21332 20.21332 0 0 1 7.14274-1.19121 19.72488 19.72488 0 0 1 7.13867 1.24371 16.13912 16.13912 0 0 1 5.50166 3.47769 15.3351 15.3351 0 0 1 3.56277 5.44372A19.07242 19.07242 0 0 1 376.01368 120.17159zm-23.35806-.03077a10.54708 10.54708 0 0 0 1.56053 6.243 5.09 5.09 0 0 0 4.36837 2.17423 4.89455 4.89455 0 0 0 4.30728-2.19686 10.93934 10.93934 0 0 0 1.50984-6.205 10.59033 10.59033 0 0 0-1.527-6.17511 5.42313 5.42313 0 0 0-8.67565-.01176A10.5864 10.5864 0 0 0 352.65562 120.14082zM399.6184 135.41837a7.15254 7.15254 0 0 1-2.53766 1.29893 12.85853 12.85853 0 0 1-3.80445.49513 13.25127 13.25127 0 0 1-4.73724-.77393 4.56314 4.56314 0 0 1-2.66665-2.17242 37.00215 37.00215 0 0 1-1.69494-5.07441q-.964-3.47044-1.89227-7.61072-.92939-4.13847-1.7574-8.41-.82959-4.27152-1.29168-7.54373a8.65481 8.65481 0 0 1 5.94293-2.32811 6.62082 6.62082 0 0 1 3.83613 1.04A4.843 4.843 0 0 1 390.845 107.911q.65987 5.074 1.12377 8.3774.46164 3.3048.76035 5.40661.29735 2.10318.463 3.20432.16428 1.10115.2978 1.76872l.267.0009q.20163-1.06721.70468-3.10294.503-2.03393 1.17446-4.63721.66938-2.60148 1.40846-5.63744.73794-3.0346 1.47588-6.03662a14.12438 14.12438 0 0 1 2.63814-1.13237 11.20638 11.20638 0 0 1 3.23691-.39556 9.90749 9.90749 0 0 1 4.00359.73953 3.58979 3.58979 0 0 1 2.13214 2.272q.797 2.9382 1.52794 5.708.72912 2.77121 1.32789 5.1405.59742 2.37065 1.06222 4.20635.46368 1.8357.6635 2.9038h.33356q.74066-5.13777 1.44873-10.67654.70875-5.537 1.31658-11.27668a9.03365 9.03365 0 0 1 2.53721-1.06359 10.908 10.908 0 0 1 2.66981-.33038 6.95806 6.95806 0 0 1 3.86963 1.00565 3.82683 3.82683 0 0 1 1.5302 3.47225 22.82668 22.82668 0 0 1-.33763 3.20342q-.33809 2.13576-.87395 4.80376-.539 2.66937-1.24235 5.60395-.704 2.93684-1.40846 5.67092-.70467 2.7359-1.34147 4.93683-.63815 2.20093-1.10567 3.40165a7.20917 7.20917 0 0 1-2.87122 1.298 16.51642 16.51642 0 0 1-4.138.49514q-5.6062-.00679-6.60371-2.81148-.39851-1.203-.99705-3.03777-.5981-1.8357-1.26272-4.0398-.66531-2.20229-1.26227-4.572-.59673-2.37066-.99479-4.57386-.47046 2.33671-1.14052 4.83726-.67142 2.50236-1.37451 4.86985-.704 2.36929-1.30752 4.3367Q399.95377 134.21766 399.6184 135.41837z"/><circle cx="147.335" cy="121.413" r="12.513" fill="#ece4f6"/><circle cx="366.779" cy="73.446" r="5.793" fill="#ece4f6"/><circle cx="458.31" cy="199.737" r="8.342" fill="#ece4f6"/><circle cx="126.943" cy="237.276" r="8.342" fill="#ece4f6"/><circle cx="416.831" cy="294.512" r="5.793" fill="#ece4f6"/><circle cx="45.376" cy="261.375" r="6.488" fill="#ece4f6"/><circle cx="95.429" cy="334.137" r="5.098" fill="#ece4f6"/><circle cx="427.722" cy="39.383" r="5.098" fill="#ece4f6"/><circle cx="244.196" cy="163.587" r="5.098" fill="#ece4f6"/><circle cx="268.759" cy="232.641" r="6.488" fill="#ece4f6"/><circle cx="66.231" cy="153.392" r="5.098" fill="#ece4f6"/><circle cx="98.209" cy="46.335" r="6.488" fill="#ece4f6"/><circle cx="460.599" cy="386.337" r="12.513" fill="#ece4f6"/><circle cx="419.38" cy="445.365" r="3.244" fill="#ece4f6"/><circle cx="53.718" cy="402.959" r="12.281" fill="#ece4f6"/></svg>