<svg xmlns="http://www.w3.org/2000/svg" data-name="Layer 1" viewBox="0 0 512 512"><path fill="#fbb641" stroke="#fff" stroke-linecap="round" stroke-linejoin="round" stroke-width="40" d="M384.96539,395.45454l-10.805-18.36864s8.15977,3.709,2.96713-4.45059c-4.053-6.36894-20.75954-21.77716-28.95568-39.16866h0c-.08508-.18054-.16257-.3628-.2458-.54421-.21918-.47623-.43608-.95332-.64172-1.43215-.11322-.26366-.21766-.52862-.32655-.79314-.13994-.33986-.27783-.68014-.41053-1.0213a9.77219,9.77219,0,0,0,.9083-2.29023s-.74183-2.96735,2.96724-2.22573c0,0,6.67621,6.67632,8.90151.74205,2.22551-5.93426,4.45081-5.19264-9.64334-18.54485-8.93182-8.46175-20.24142-21.6897-27.89834-34.77608q-.80073-1.3683-1.54526-2.7327c-.02014-.0368-.041-.074-.061-.11083-.21549-.39614-.42547-.79141-.63328-1.18625q-.11852-.22534-.23486-.44982c-.197-.37968-.39246-.75894-.58187-1.13689-.04827-.09655-.09384-.19222-.14157-.28834q-.3234-.652-.63209-1.30054c.04362.0329.08886.06754.12793.097a5.08158,5.08158,0,0,0,1.28085.72214c1.5603.59226,4.90928,1.29881,6.58193-2.60368,2.22552-5.19265,2.96725-5.19265,5.93449-5.19265h8.15977s5.93438,0,0-8.90161c-3.9815-5.97237-24.99128-21.62823-38.61266-41.81434l.00206-.00087-.00238.00044a78.40389,78.40389,0,0,1-8.49357-16.03642v.00044q-.46173-1.22478-.86588-2.46255c-.01169-.03593-.02305-.0723-.03474-.1078q-.79633-2.4528-1.351-4.9515c-.01028-.04632-.02089-.09308-.03106-.1394q-.27276-1.25531-.48-2.52013c3.8054,2.9825,11.66148,8.34313,12.77932,2.75348a2.61669,2.61669,0,0,0-.74184-2.96692l-.04362-.04416a1.18345,1.18345,0,0,1,1.1541-1.95081c1.3696.32384,3.579.98883,4.08217,1.995.74183,1.48368,8.90161,2.2253,6.6761-4.451-1.94843-5.84508-25.50453-20.22031-36.31669-37.64819,6.13028-.89791,7.81321-2.93617,8.85291-9.75709a5.59669,5.59669,0,0,1,.22318-.75418c.06667-.79877.1814-1.61052-.59789-2.17637l-.00022-.00044q-.5023-.99033-1.00452-1.98112c-.29515-.96371-.34992-2.05861-1.421-2.59718h0l-.00033-.00044q-.23444-.21041-.46876-.42124h0c.12772-2.02182-1.24426-3.44488-2.15592-4.99393-.74194-1.26114-.53327-1.93306.4337-2.88855,2.25776-2.23093,4.3943-4.58524,6.55639-6.91184.87248-.93861,1.59018-2.02008.86977-3.32452-.63068-1.14166-1.82732-.89142-2.86442-.794a85.95514,85.95514,0,0,1-10.30476.26409,3.46728,3.46728,0,0,1-3.47118-2.17161A126.0112,126.0112,0,0,0,265.25489,87.685c-.76478-1.1646-1.324-2.65477-3.13933-2.31448-1.87538.35154-1.71725,1.95471-1.91109,3.32885-.60319,4.27482-1.29784,8.53838-1.79756,12.82488a3.37379,3.37379,0,0,1-.82994,2.10494,4.95322,4.95322,0,0,1-1.12964.3364l-1.54959.26409c-2.37368-.16062-4.7688-.0775-7.15287-.02858-1.1935.02425-2.5973-.18616-3.09582,1.39146-.4771,1.50965.71174,2.22486,1.58011,3.06693.44062.42731.88589.85028,1.32846,1.27543a3.48386,3.48386,0,0,0,.79585,1.09966l2.33093,2.16295a23.102,23.102,0,0,1-4.87422,4.52939c-3.99038,3.00414-8.73959,4.0722-13.35935,5.494h-.00021c-.39809-.15975-.9516-.203-1.17066-.49657-2.44934-3.2795-5.99185-5.08009-9.40512-7.06034h-.00022l.0013.00043c.31128-1.4486,1.2382-1.814,2.57013-1.456,1.10539.297,2.20148.63165,3.31413.89791,7.85932,1.87938,12.63818-.859,14.7415-8.6215,2.048-7.55822,1.92722-14.9662-2.07583-21.97977h0a17.13924,17.13924,0,0,0,3.13263-7.21663c.90624-5.19654-2.40583-10.56669-6.906-10.681-2.859-.07274-5.70265.69053-8.19853-1.45294a2.623,2.623,0,0,0-2.05818-.09525c-3.3899,1.01654-6.36991-.09784-10.304.65114a15.63367,15.63367,0,0,0-1.77612.349,9.18666,9.18666,0,0,0-6.00591,5.56194c-.64421,1.60922-1.07694,2.18676-3.12332,1.701-5.66314-1.3447-10.46668.49874-13.99306,5.18268-3.68094,4.88916-2.78541,12.04344,1.66064,14.86273,1.578,1.00051,4.388.55459,4.82216,1.97635.462,1.514-.18,3.61546.12219,5.43855.95117,5.73945,8.16714,10.68272,13.29874,9.17567.91025,1.05073.41454,2.34651.61434,3.52151l-.00044.00043c-3.64489.55243-3.988.91739-3.85681,4.10554-.99641,1.78716-1.67742.01169-2.08806-.36973-1.88587-1.753-2.98336-4.09645-4.33954-6.25507-3.184-5.068-4.78146-11.02214-8.802-15.6169-4.28044-4.89132-8.84966-9.41291-15.42153-11.04422-4.29441-1.06632-8.74663-.47536-13.10965-.93817-5.627-.597-10.91791-1.91228-15.1029-6.097a45.94794,45.94794,0,0,1-5.50035-6.73477c-.92659-1.36288-2.12659-2.89245-4.10652-2.15-1.84766.69227-2.03642,2.42531-2.02776,4.19905A20.39534,20.39534,0,0,0,139.663,81.4394a94.12794,94.12794,0,0,0,6.71972,11.46287,18.73614,18.73614,0,0,1-7.29553-3.94319c-2.63853-2.46514-5.18366-5.02986-7.81494-7.5028-.88774-.8347-1.84323-1.71269-3.2677-1.03775a3.71741,3.71741,0,0,0-2.16912,3.38038,9.42747,9.42747,0,0,0,.56411,3.62541c1.63012,4.793,4.6951,8.64661,7.96626,12.35472,1.05777,1.1988.96372,1.90146-.40317,2.63658-1.86477,1.00225-3.75887,1.97549-5.51573,3.14789-2.53344,1.69061-2.53517,4.68654.02143,6.26373a17.62247,17.62247,0,0,0,13.44486,2.13827c1.92094-.41519,3.68732-1.51961,5.81358-1.446a3.81349,3.81349,0,0,1-.16863.91956c-.95625,1.88327-1.96651,3.73927-2.90154,5.63251-1.9112,3.87-.346,6.42348,3.99092,6.51267a20.90871,20.90871,0,0,0,9.46324-2.05039c2.946-1.3841,5.9597-2.63875,8.99827-3.80855,3.92544-1.51138,6.56072-.11559,7.52812,3.9722.60524,2.55822.99586,5.16667,1.50965,7.747.87994,4.42028,2.49869,8.46045,6.25345,11.26372,5.35532,3.99774,11.02333,3.85833,16.93411,1.28668,1.25605-.54636,2.30874-1.9954,3.99286-1.28712-4.84629,9.71121-10.62621,18.74357-19.75588,25.0086C172.924,175.02259,160.638,178.235,148.318,181.31316c-3.0561.7637-6.3488.35025-9.22447,1.96857-1.92906,1.08537-2.34273,2.23785-.91621,4.20944a86.375,86.375,0,0,1,6.61982,10.46841,6.1718,6.1718,0,0,1-4.29343,1.74,20.25477,20.25477,0,0,0-4.90388.95419c-4.311,1.20919-6.12854,5.558-3.2388,8.75745,2.94376,3.25871,3.62628,6.81572,3.53926,10.88316-.08009,3.74361,1.63867,6.7772,4.22309,9.34927,2.10883,2.09845,5.83458,2.91323,8.04461,1.746,2.681-1.41614,2.65715-3.89817,2.35334-6.43-.32092-2.67382-.29353-5.32209,1.15248-7.68246a9.5578,9.5578,0,0,0,1.46094-5.5035l-.00054-.00086.00195.00086c3.33437,4.97748,6.31655,10.168,9.281,15.36883-1.74874,2.61017-4.33618,4.35967-6.64818,6.375-4.77864,4.16572-5.12618,7.59458-.92572,12.36728a16.51227,16.51227,0,0,1,3.77564,6.85815,17.38787,17.38787,0,0,0,3.12429,6.64038c1.96759,2.46471,4.34127,3.47216,6.9469,2.4409,2.57966-1.02086,3.20027-3.36219,3.12581-5.87149-.09428-3.17213-.31085-6.34122-.50654-9.50946a4.11545,4.11545,0,0,1,.89228-3.45223l-.00086-.00174.00075.00044c.57246.88059,1.1751,1.74257,1.7127,2.64394,4.74055,7.94612,9.16214,16.08664,14.28659,23.79854,3.03327,4.56489,3.11206,4.50947,7.95024,2.29456.8005-.36669,1.62827-.67494,2.42077-1.05723a52.96945,52.96945,0,0,0,10.62989-6.8785c.78968,3.59511,5.65979,2.70456,10.25108.96415l-.0145.04373c-.02684.07706-.05228.15239-.08064.23119q-.14043.38964-.30619.80526c-.00953.02381-.01743.04589-.02706.07014q-.18687.46367-.40826.962c-.02944.06667-.06277.13681-.09319.20435q-.17729.39354-.375.807c-.05065.10564-.10434.21387-.15716.32167q-.18556.37861-.38953.775c-.06007.11689-.12025.23379-.1827.35284-.1512.28791-.31139.58447-.47721.88666-.05281.09611-.10249.18963-.15683.28747-.22826.41-.46789.83124-.72376,1.26721-5.53834,9.44191-17.66761,25.03673-42.55682,50.79431,0,0-8.15978,14.83588,11.12691,8.90118,0,0,7.41794-5.19221,8.15977,1.48367a5.18434,5.18434,0,0,0,.86934,2.39631c-.088.11992-.17252.23465-.2616.35587l-.017.02338q-.44.59811-.89727,1.21958l-.04156.05629q-.45881.62343-.93319,1.2672h0c-8.23338,11.175-19.76043,26.6819-24.3107,32.1421-7.418,8.902-4.45081,13.35264,2.96713,10.38529,0,0-21.5122,32.6391-15.57772,39.31542,4.00564,4.50644,15.447,7.32313,22.46076,8.67779a45.76605,45.76605,0,0,1,8.83127,2.64524l-.18519,34.6198a6.84188,6.84188,0,0,0,6.81377,6.8785l28.45423.116v.22773h20.81128v-.14287l28.06318.11473a6.83713,6.83713,0,0,0,6.8456-6.36417c.2485-.01949.49441-.03724.74389-.05715,7.15807-.57061,13.92141-1.30357,19.95384-2.13005a1.76945,1.76945,0,0,0,1.74441,1.48627H356.7576a1.77339,1.77339,0,0,0,1.77331-1.77331V423.62271h5.76326a1.7734,1.7734,0,0,0,1.77331-1.77331v-4.63329c6.92471-3.89167,12.432-7.43829,16.30851-10.09392A8.758,8.758,0,0,0,384.96539,395.45454Zm-87.61365,59.20584c-4.29624.087-8.95584.27838-13.86209.58187l.00638-.00043-.57688-14.63976c4.92335-.145,9.7638-.38661,14.43259-.74552Zm-20.48-13.92887c.08409-.00087.1683-.00217.25251-.00347C277.04008,440.72934,276.95609,440.73064,276.87178,440.73151Zm3.54521,14.71465q-.35426.02469-.70959.05022Q280.063,455.47042,280.417,455.44616Z"/><path fill="#fbb641" stroke="#fff" stroke-linecap="round" stroke-linejoin="round" stroke-width="40" d="M184.55438,64.67652c4.59887,2.00017,9.43586,1.83565,14.08062,1.40791,8.38588-.13161,16.2241-2.08676,23.88372-4.7294,6.01241-2.07464,11.86518-4.651,16.44478-9.24623,4.6045-4.61987,3.13371-10.00344-3.0824-11.99755a33.35633,33.35633,0,0,0-11.98077-1.32392,81.83974,81.83974,0,0,0-18.92107,3.15438c-7.96073,2.34695-15.7431,5.126-22.13714,10.755C178.20277,56.78105,178.94092,62.23519,184.55438,64.67652Zm1.15876-9.43023c4.36952-4.4428,10.158-6.61614,15.92049-8.57691a77.96108,77.96108,0,0,1,22.02079-4.24019,29.17219,29.17219,0,0,1,10.59721,1.19058c4.28824,1.37847,4.72248,3.715,1.19978,6.75814-4.12859,3.56654-8.99946,5.826-14.08419,7.66385a79.20784,79.20784,0,0,1-23.66487,4.83547,26.03127,26.03127,0,0,1-10.90925-1.39535C182.80792,59.88131,182.34511,58.67039,185.71314,55.24629Z"/><path fill="#26a526" d="M200.57945,325.90192s-25.96294,35.60632-33.38093,44.5079-4.45079,13.35237,2.9672,10.38518c0,0-21.51216,32.63913-15.57777,39.31532,4.00571,4.50642,15.447,7.32294,22.46077,8.67768a45.39386,45.39386,0,0,1,11.69891,3.95136l.07365.03683a44.90683,44.90683,0,0,0,15.76249,4.53278c24.19863,2.34164,93.93558,7.83636,124.32681-3.10448a240.86629,240.86629,0,0,0,53.46537-27.0824,8.75769,8.75769,0,0,0,2.5894-11.66745L374.16028,377.086s8.15978,3.709,2.96719-4.45079-31.15553-31.15554-33.38093-54.15129S200.57945,325.90192,200.57945,325.90192Z"/><path fill="#1b8d25" d="M337.81216,345.93047a9.26793,9.26793,0,0,0,1.48359-8.15978s5.93439,5.93439,8.15979-2.22539c0,0-.361-1.46707.7163-2.07861a45.87086,45.87086,0,0,1-4.4253-14.98276c-2.22539-22.99575-143.16709,7.418-143.16709,7.418s-3.88131,5.32294-9.0701,12.36549a3.97248,3.97248,0,0,1,1.28122,2.84138c.7418,6.67618,11.49787,5.56348,11.49787,5.56348s11.86878-8.90158,19.28676-1.48359,12.61057,9.64338,12.61057,9.64338,4.4508,5.19258,17.80317,1.48359,13.35237-6.67618,22.99575-5.93438,10.38518,6.67618,10.38518,6.67618,4.45079,6.67619,8.15978,0c0,0,.7418-5.93439,4.45079-6.67618,0,0,2.96719,0,4.45079,6.67618,0,0,2.96719,2.2254,6.67618-.7418,0,0,2.2254-4.45079,3.709-3.709l1.48359.7418c1.4836.7418,4.45079-4.45079,4.45079-4.45079s.7418-4.45079,4.45079-2.9672S334.845,349.63947,337.81216,345.93047Z"/><path fill="#26a526" d="M217.26992,257.28556s20.02855-.74179-43.76611,65.27826c0,0-8.15978,14.836,11.127,8.90159,0,0,7.418-5.19259,8.15978,1.48359s11.49787,5.56349,11.49787,5.56349,11.86878-8.90158,19.28676-1.4836,12.61057,9.64338,12.61057,9.64338,4.4508,5.19259,17.80317,1.4836,13.35237-6.67619,22.99575-5.93439,10.38518,6.67619,10.38518,6.67619,4.45079,6.67618,8.15978,0c0,0,.7418-5.93439,4.45079-6.67619,0,0,2.96719,0,4.45079,6.67619,0,0,2.96719,2.22539,6.67618-.7418,0,0,2.2254-4.45079,3.709-3.709l1.48359.7418c1.4836.74179,4.45079-4.45079,4.45079-4.45079s.7418-4.45079,4.45079-2.9672,9.64338,3.709,12.61058,0a9.26793,9.26793,0,0,0,1.48359-8.15978s5.93439,5.93439,8.15979-2.2254c0,0-.7418-2.96719,2.96719-2.22539,0,0,6.67619,6.67619,8.90158.7418s4.45079-5.19259-9.64338-18.545-34.12273-38.57352-36.34812-56.37668S217.26992,257.28556,217.26992,257.28556Z"/><path fill="#1b8d25" d="M321.78806,272.59064c-4.42847-7.56681-7.63979-15.08666-8.45525-21.61036-2.2254-17.80316-96.06289,6.30528-96.06289,6.30528s7.44854-.27491-1.21,14.48558a52.63418,52.63418,0,0,0,11.49833-4.94379,5.28825,5.28825,0,0,1,1.31444-.52846c2.14979-.546,8.06955-1.35964,13.98927,3.96815,7.418,6.67618,11.127,6.67618,17.06136,3.709,4.76179-2.38087,7.61313-.94092,8.55405-.2789a5.34427,5.34427,0,0,0,1.4193.72627,7.496,7.496,0,0,0,7.4706-1.55867,5.271,5.271,0,0,0,1.26469-1.56613c.49957-.98393,2.43262-2.917,9.4797,1.19383,7.44307,4.34177,15.40477.38553,17.814-1.02749a5.74,5.74,0,0,1,1.35189-.55625c.8256-.23363,2.12375-1.01255,1.60448-3.60885-.64907-3.24536,7.22094,2.5963,9.19859,4.10742a5.09151,5.09151,0,0,0,1.28072.722A6.76078,6.76078,0,0,0,321.78806,272.59064Z"/><path fill="none" d="M289.59526,175.31684c.7418,34.86453,44.50791,65.27826,50.44229,74.17984s0,8.90158,0,8.90158h-8.15978c-2.96719,0-3.709,0-5.93439,5.19259-1.67268,3.90292-5.02167,3.196-6.58206,2.604a5.09032,5.09032,0,0,1-1.28071-.722c-1.97765-1.51112-9.84766-7.35278-9.19859-4.10741.51926,2.59629-.77889,3.37518-1.60451,3.60885a5.7425,5.7425,0,0,0-1.35188.55626c-2.40921,1.413-10.3709,5.36926-17.814,1.02747-7.04708-4.11079-8.98014-2.17774-9.47971-1.19388a5.27041,5.27041,0,0,1-1.26472,1.5662,7.4959,7.4959,0,0,1-7.47055,1.55866,5.345,5.345,0,0,1-1.41933-.72626c-.94091-.662-3.79225-2.102-8.554.27888-5.93438,2.9672-9.64338,2.9672-17.06136-3.709-5.91975-5.32777-11.8395-4.5142-13.98928-3.96822a5.28736,5.28736,0,0,0-1.31442.52852c-2.84975,1.61543-17.77729,9.70624-18.44813,2.327-.51041-5.61456-4.88408-6.31225-7.56291-6.20123a5.22147,5.22147,0,0,1-5.27655-3.53252c-.97-3.16152,1.71249-5.844,1.71249-5.844,59.34387-60.82747,40.79891-69.72906,40.79891-69.72906Z"/><path fill="#26a526" d="M289.59526,175.31684c.7418,34.86453,44.50791,65.27826,50.44229,74.17984s0,8.90158,0,8.90158h-8.15978c-2.96719,0-3.709,0-5.93439,5.19259-1.67268,3.90292-5.02167,3.196-6.58206,2.604a5.09032,5.09032,0,0,1-1.28071-.722c-1.97765-1.51112-9.84766-7.35278-9.19859-4.10741.51926,2.59629-.77889,3.37518-1.60451,3.60885a5.7425,5.7425,0,0,0-1.35188.55626c-2.40921,1.413-10.3709,5.36926-17.814,1.02747-7.04708-4.11079-8.98014-2.17774-9.47971-1.19388a5.27041,5.27041,0,0,1-1.26472,1.5662,7.4959,7.4959,0,0,1-7.47055,1.55866,5.345,5.345,0,0,1-1.41933-.72626c-.94091-.662-3.79225-2.102-8.554.27888-5.93438,2.9672-9.64338,2.9672-17.06136-3.709-5.91975-5.32777-11.8395-4.5142-13.98928-3.96822a5.28736,5.28736,0,0,0-1.31442.52852c-2.84975,1.61543-17.77729,9.70624-18.44813,2.327-.51041-5.61456-4.88408-6.31225-7.56291-6.20123a5.22147,5.22147,0,0,1-5.27655-3.53252c-.97-3.16152,1.71249-5.844,1.71249-5.844,59.34387-60.82747,40.79891-69.72906,40.79891-69.72906Z"/><path fill="#26a526" d="M289.59526,175.31684c.7418,34.86453,44.50791,65.27826,50.44229,74.17984s0,8.90158,0,8.90158h-8.15978c-2.96719,0-3.709,0-5.93439,5.19259-1.67268,3.90292-5.02167,3.196-6.58206,2.604a5.09032,5.09032,0,0,1-1.28071-.722c-1.97765-1.51112-9.84766-7.35278-9.19859-4.10741.51926,2.59629-.77889,3.37518-1.60451,3.60885a5.7425,5.7425,0,0,0-1.35188.55626c-2.40921,1.413-10.3709,5.36926-17.814,1.02747-7.04708-4.11079-8.98014-2.17774-9.47971-1.19388a5.27041,5.27041,0,0,1-1.26472,1.5662,7.4959,7.4959,0,0,1-7.47055,1.55866,5.345,5.345,0,0,1-1.41933-.72626c-.94091-.662-3.79225-2.102-8.554.27888-5.93438,2.9672-9.64338,2.9672-17.06136-3.709-5.91975-5.32777-11.8395-4.5142-13.98928-3.96822a5.28736,5.28736,0,0,0-1.31442.52852c-2.84975,1.61543-17.77729,9.70624-18.44813,2.327-.51041-5.61456-4.88408-6.31225-7.56291-6.20123a5.22147,5.22147,0,0,1-5.27655-3.53252c-.97-3.16152,1.71249-5.844,1.71249-5.844,59.34387-60.82747,40.79891-69.72906,40.79891-69.72906Z"/><path fill="#353535" d="M213.30872 231.17432c3.8446-.00977 7.68469-.11573 11.51062-.42725q5.7409-.4109 11.43554-1.251a176.5762 176.5762 0 0 0 22.4773-4.78906 200.01008 200.01008 0 0 0 21.76489-7.41357q5.34357-2.13648 10.56641-4.56934c3.50927-1.563 6.88842-3.3916 10.36352-5.04248l-5.04968 2.78613c-1.68164.93457-3.378 1.84278-5.10169 2.69825q-5.17053 2.56566-10.48425 4.83789a184.03258 184.03258 0 0 1-21.79077 7.665 164.13053 164.13053 0 0 1-22.6427 4.58593A129.4025 129.4025 0 0 1 213.30872 231.17432zM185.27612 310.124c6.04529.21387 12.09326.2461 18.13343.03467q9.06-.2688 18.08569-1.13037a270.64694 270.64694 0 0 0 35.74548-5.72607q8.82916-2.00684 17.50208-4.63477c5.77453-1.76221 11.46777-3.7793 17.09949-5.95508q8.44024-3.28418 16.59008-7.27c5.44165-2.627 10.749-5.52978 15.9458-8.62549-5.078 3.28907-10.34765 6.28272-15.72631 9.064q-8.09107 4.12866-16.525 7.5459a230.13447 230.13447 0 0 1-34.66333 10.84912 258.65 258.65 0 0 1-35.90088 5.51514A240.585 240.585 0 0 1 185.27612 310.124zM176.15942 358.88965a219.17109 219.17109 0 0 0 22.74341 8.20947A240.237 240.237 0 0 0 270.35315 377.523a228.98252 228.98252 0 0 0 47.916-5.40332c3.94848-.80127 7.83435-1.86817 11.74-2.85547 3.863-1.14062 7.75219-2.20264 11.5614-3.522a227.3988 227.3988 0 0 0 22.6051-8.58838 227.61542 227.61542 0 0 1-22.4491 9.05224c-3.79956 1.374-7.68664 2.47657-11.54724 3.666-3.90381 1.03467-7.79016 2.14893-11.74194 2.998a208.353 208.353 0 0 1-23.88294 4.11865 232.63011 232.63011 0 0 1-24.1936 1.53271 230.04945 230.04945 0 0 1-48.1731-4.80175 232.98912 232.98912 0 0 1-23.42993-6.15625A219.54779 219.54779 0 0 1 176.15942 358.88965z"/><ellipse cx="276.985" cy="461.28" fill="#681904" rx="46.733" ry="5.563" transform="rotate(-4.558 276.985 461.28)"/><path fill="#7c2804" d="M276.54257,455.73421q3.54251-.28239,6.95345-.49224l-.577-14.63993c-3.92043.11528-7.8917.16983-11.86877.17364l-.61629,15.49486Q273.43287,455.9843,276.54257,455.73421Z"/><path fill="#681904" d="M283.03589,443.56553l-.11682-2.96349c-3.92043.11528-7.8917.16983-11.86877.17364l-.118,2.9671C274.98834,443.73993,279.03876,443.68433,283.03589,443.56553Z"/><path fill="#353535" d="M227.28418 230.95166a10.36337 10.36337 0 0 1 .86755 3.2832 10.24412 10.24412 0 0 1-.12573 3.39307 10.24521 10.24521 0 0 1-.86755-3.28272A10.36155 10.36155 0 0 1 227.28418 230.95166zM254.74377 226.28369a19.24245 19.24245 0 0 1 1.22864 4.48 19.02279 19.02279 0 0 1 .242 4.63867 19.01213 19.01213 0 0 1-1.22864-4.47949A19.22922 19.22922 0 0 1 254.74377 226.28369zM277.05029 219.09424a8.14886 8.14886 0 0 1 .46692 2.96728 8.05451 8.05451 0 0 1-.53247 2.95557 8.05 8.05 0 0 1-.46692-2.9668A8.14595 8.14595 0 0 1 277.05029 219.09424zM293.91235 211.60352a14.87242 14.87242 0 0 1 2.01209 3.54834 14.70125 14.70125 0 0 1 1.08874 3.93115 14.71212 14.71212 0 0 1-2.012-3.54834A14.87729 14.87729 0 0 1 293.91235 211.60352zM308.62366 285.626a19.42869 19.42869 0 0 1 1.36181 4.46631 19.21344 19.21344 0 0 1 .38013 4.65429 19.21777 19.21777 0 0 1-1.36182-4.46679A19.43183 19.43183 0 0 1 308.62366 285.626zM283.63574 296.21387a1.65426 1.65426 0 1 1-.08935 1.28222A1.63737 1.63737 0 0 1 283.63574 296.21387zM249.39709 305.48389a7.44894 7.44894 0 0 1 .93494 2.71289 7.36541 7.36541 0 0 1-.05212 2.86914 7.3644 7.3644 0 0 1-.93494-2.71289A7.44807 7.44807 0 0 1 249.39709 305.48389zM219.3197 309.59814a8.20206 8.20206 0 0 1 .77088 2.91358 8.10587 8.10587 0 0 1-.22437 3.00488 8.1084 8.1084 0 0 1-.77087-2.91308A8.20482 8.20482 0 0 1 219.3197 309.59814zM192.98535 365.42871a53.19853 53.19853 0 0 1 1.32666 7.6294 52.56335 52.56335 0 0 1 .333 7.73681 52.57888 52.57888 0 0 1-1.32666-7.62939A53.19848 53.19848 0 0 1 192.98535 365.42871zM233.33679 375.33154a6.99226 6.99226 0 0 1 .44055 2.74268 6.91476 6.91476 0 0 1-.55871 2.7207 6.9131 6.9131 0 0 1-.44055-2.74267A6.99337 6.99337 0 0 1 233.33679 375.33154zM318.48083 373.11182a24.07376 24.07376 0 0 1 1.984 4.80908 23.79189 23.79189 0 0 1 1.02771 5.09961 23.80949 23.80949 0 0 1-1.98388-4.80908A24.08254 24.08254 0 0 1 318.48083 373.11182zM345.68176 364.61328a8.51384 8.51384 0 0 1 1.36475 2.752 8.419 8.419 0 0 1 .40906 3.04444 8.41405 8.41405 0 0 1-1.36475-2.752A8.51307 8.51307 0 0 1 345.68176 364.61328z"/><circle cx="196.87" cy="389.697" r="9.643" fill="#fbb641"/><circle cx="233.589" cy="386.358" r="6.305" fill="#d64142"/><circle cx="323.162" cy="388.398" r="7.603" fill="#d64142"/><ellipse cx="311.107" cy="304.39" fill="#fbb641" rx="8.902" ry="9.643"/><circle cx="285.515" cy="304.019" r="5.563" fill="#d64142"/><ellipse cx="251.393" cy="322.193" fill="#fbb641" rx="10.014" ry="11.127"/><circle cx="220.608" cy="322.935" r="8.16" fill="#d64142"/><ellipse cx="229.139" cy="243.562" fill="#fbb641" rx="6.305" ry="6.676"/><ellipse cx="256.956" cy="245.046" fill="#d64142" rx="10.385" ry="9.643"/><ellipse cx="276.614" cy="230.581" fill="#fbb641" rx="6.305" ry="5.563"/><ellipse cx="298.126" cy="226.501" fill="#d64142" rx="8.531" ry="7.418"/><path fill="#26a526" d="M267.34131,121.90735s-3.709-1.48359-8.53068,10.01428c-4.39758,10.48653-27.27819,35.58287-33.37206,42.16378a14.41842,14.41842,0,0,0-3.15665,5.25185c-.744,2.25459-.97877,4.83563,1.47377,5.47431a4.403,4.403,0,0,0,2.18282-.04493,19.7743,19.7743,0,0,0,7.28007-3.51541c2.7432-2.19456,6.29794,2.50909,7.96321,5.10749a9.1037,9.1037,0,0,0,4.62185,3.73309c2.40514.83686,5.45654.72332,7.4435-3.648,2.65166-5.83366,7.57822-4.84263,10.17157-3.80352a12.1097,12.1097,0,0,1,2.22023,1.20143c1.62688,1.08924,6.787,4.19746,11.75044,3.48663a7.56033,7.56033,0,0,0,6.18136-6.4204c.21809-1.2618.98544-2.37821,3.20673-1.69067a5.92363,5.92363,0,0,1,2.03376,1.14906c2.76695,2.3155,12.858,10.24406,14.1364,3.85207a2.61721,2.61721,0,0,0-.7418-2.96719l-.04362-.04429a1.18341,1.18341,0,0,1,1.15407-1.95074c1.36962.32376,3.579.98877,4.08214,1.995.7418,1.48359,8.90158,2.22539,6.67619-4.45079s-32.63913-24.47935-40.05712-45.24971C274.01749,131.55073,270.6794,121.53646,267.34131,121.90735Z"/><path fill="#1b8d25" d="M292.931,191.64591a52.8588,52.8588,0,0,1-2.76268-10.18107c-.54643-.42831-1.00965-.80772-1.3571-1.09848a5.92389,5.92389,0,0,0-2.03378-1.1491c-2.22128-.68747-2.98866.42885-3.20671,1.69069a7.56027,7.56027,0,0,1-6.18136,6.42037c-4.9635.71083-10.12358-2.39735-11.75047-3.48659a12.1088,12.1088,0,0,0-2.22024-1.20144c-2.59335-1.03908-7.5199-2.03017-10.17156,3.80353-1.98693,4.37128-5.03834,4.48483-7.44348,3.648a9.05,9.05,0,0,1-4.44612-3.48081,28.89881,28.89881,0,0,1-1.56482,5.92932c.53742.69743,1.01318,1.3916,1.3891,1.97819a9.10324,9.10324,0,0,0,4.62184,3.73308c2.40514.83688,5.45655.72333,7.44348-3.648,2.65166-5.8337,7.57821-4.84261,10.17156-3.80353a12.1088,12.1088,0,0,1,2.22024,1.20144c1.62689,1.08924,6.787,4.19743,11.75047,3.4866a7.56029,7.56029,0,0,0,6.18136-6.42038c.21805-1.26184.98543-2.37816,3.20671-1.69069a5.92389,5.92389,0,0,1,2.03378,1.1491C289.65525,189.23244,291.18209,190.46086,292.931,191.64591Z"/><path fill="#353535" d="M227.73669,171.58545c4.57666-2.03174,9.13331-4.09033,13.63648-6.25635,4.50073-2.16992,8.97632-4.38965,13.34912-6.79931q6.60791-3.5237,12.93335-7.54053c2.11462-1.32617,4.20068-2.69971,6.24158-4.13916,2.06311-1.40967,4.06689-2.90381,6.06213-4.417a106.03509,106.03509,0,0,1-11.88306,9.20019c-4.1538,2.81494-8.49108,5.34668-12.87854,7.7749-4.43213,2.34668-8.91931,4.58936-13.50354,6.61573C237.11108,168.05127,232.46619,169.937,227.73669,171.58545Z"/><path fill="#353535" d="M249.18481 161.98389a8.1601 8.1601 0 0 1 .30445 2.99023 8.06846 8.06846 0 0 1-.69287 2.92481 8.06437 8.06437 0 0 1-.30445-2.99024A8.15691 8.15691 0 0 1 249.18481 161.98389zM274.99316 146.35156a16.10141 16.10141 0 0 1 1.48133 3.97949 15.916 15.916 0 0 1 .51025 4.21534 15.90912 15.90912 0 0 1-1.48132-3.9795A16.09963 16.09963 0 0 1 274.99316 146.35156z"/><circle cx="249.167" cy="171.979" r="4.08" fill="#d64142"/><ellipse cx="278.468" cy="161.594" fill="#fbb641" rx="8.16" ry="7.789"/><path fill="#353535" d="M278.42578,377.8291a18.34834,18.34834,0,0,1-.22729,4.52979,18.13474,18.13474,0,0,1-1.21375,4.3706,18.14116,18.14116,0,0,1,.22717-4.53027A18.34744,18.34744,0,0,1,278.42578,377.8291Z"/><ellipse cx="276.614" cy="393.776" fill="#fbb641" rx="8.16" ry="8.902"/><path fill="#fbb641" d="M250.13905,105.04129l6.30827-1.07579a4.95056,4.95056,0,0,0,3.6597-2.79908l2.69005-5.80648a3.48692,3.48692,0,0,1,6.2518-.1539l2.9725,5.66709a4.95056,4.95056,0,0,0,3.793,2.61561l6.35356.76409a3.48693,3.48693,0,0,1,2.07828,5.89827l-4.47117,4.57823a4.95062,4.95062,0,0,0-1.3155,4.41562l1.23667,6.27871a3.48693,3.48693,0,0,1-4.96736,3.79923l-5.73582-2.83758a4.95059,4.95059,0,0,0-4.606.11338l-5.58926,3.11637a3.48692,3.48692,0,0,1-5.14827-3.55021l.92623-6.332a4.95057,4.95057,0,0,0-1.53118-4.34554l-4.691-4.3527A3.48692,3.48692,0,0,1,250.13905,105.04129Z"/><path fill="#d64142" d="M276.70707,466.40548V410.251a6.84182,6.84182,0,0,0-6.84182-6.84182H192.83516a6.84182,6.84182,0,0,0-6.84173,6.80523l-.2986,55.83883a6.84182,6.84182,0,0,0,6.8138,6.87835l77.3287.31563A6.84182,6.84182,0,0,0,276.70707,466.40548Z"/><path fill="#fbb641" d="M276.70707,427.93665H245.9844a4.21035,4.21035,0,0,1-4.21035-4.21036V403.4092H220.96282v20.31709a4.21036,4.21036,0,0,1-4.21036,4.21036H186.02979v20.81116h30.72267a4.21036,4.21036,0,0,1,4.21036,4.21036v20.31712h20.81123V452.95817a4.21035,4.21035,0,0,1,4.21035-4.21036h30.72267Z"/><path fill="#fbb641" d="M234.20048,405.96736q-1.06225,1.39311-1.933,2.74478c1.21353,1.65717,3.40061,5.81641,4.10863,14.8177,0,0,3.21361.22412,3.49122-7.90757,0,0,6.60815,1.20694,5.83712,2.52281,0,0,1.97058-2.37358-3.917-8.95672a57.02374,57.02374,0,0,1-6.34882-3.82993s-.04384.02979-.12953.08183l-.099.05757a7.2088,7.2088,0,0,1-1.00774.46766l-.00191.00187.00191-.00187a7.2088,7.2088,0,0,0,1.00774-.46766l.099-.05757c.08569-.052.12953-.08183.12953-.08183Z"/><path fill="#fbb641" d="M235.52979 400.45778s13.14584-11.98154 18.37229-5.4926c0 0 1.6839 1.72092.49136 7.005s-1.01573 6.421-4.4473 8.84306a2.1148 2.1148 0 0 1-.25137.15239c-3.68892 1.90654-14.25611-5.60718-14.25611-5.60718S236.892 404.79534 235.52979 400.45778zM229.19814 405.48542c-.31636.21411-10.775 7.24567-14.36705 5.29022a2.11478 2.11478 0 0 1-.248-.15782c-3.37808-2.49607-3.17658-3.62895-4.25393-8.93769s.64359-6.99263.64359-6.99263c4.70512-5.58827 15.1871 3.15041 17.69965 5.38924.00088.0927.00551.18924.01009.28955C228.787 402.41056 228.5501 404.3641 229.19814 405.48542z"/><path fill="#fbb641" d="M229.19814,405.48542a1.96263,1.96263,0,0,0,1.68841.95858,7.68043,7.68043,0,0,0,3.31393-.47664l.00191-.00187-.00191.00187c-8.922,11.68317-7.32541,21.43192-7.32541,21.43192-2.83529-.22-4.82551-8.56555-4.82551-8.56555a14.41056,14.41056,0,0,0-6.07359,1.82574c.20076-2.2831,5.3649-10.06842,6.09564-11.15961A55.62258,55.62258,0,0,0,229.19814,405.48542Z"/><path fill="#d7932e" d="M239.86734 415.62227c-.20573 6.02613-2.02357 7.46306-2.95132 7.80334.00837.10033.01752.198.02551.29955 0 0 3.21361.22413 3.49123-7.90756a32.9684 32.9684 0 0 1 3.6146.89476A30.31756 30.31756 0 0 0 239.86734 415.62227zM242.3529 409.38369a57.02221 57.02221 0 0 1-6.34883-3.82993l-.16586.08157a56.93612 56.93612 0 0 0 5.94928 3.553c4.26392 4.76769 4.40612 7.327 4.16032 8.3762.332.24812.478.50975.32207.77585C246.26988 418.34041 248.24046 415.96684 242.3529 409.38369z"/><path fill="#fbb641" d="M230.85378,397.8171a7.16636,7.16636,0,0,1-.96393.06107c-.48542.00575-1.319.32486-1.20736,2.48812.15625,3.02857-.44208,5.85975,2.20406,6.07771a7.60784,7.60784,0,0,0,4.55211-1.08557s1.73727-.67309-.36716-6.21567a2.19849,2.19849,0,0,0-1.74891-1.39831A8.77318,8.77318,0,0,0,230.85378,397.8171Z"/><path fill="#d7932e" d="M235.43866,405.35843a7.60784,7.60784,0,0,1-4.55211,1.08557c-2.64614-.218-2.04781-3.04914-2.20406-6.07771-.00454-.088-.00695-.17184-.00846-.25384-.00813.19123-.00759.40052.00435.63216.15624,3.02856-.44208,5.85975,2.20406,6.0777a7.60771,7.60771,0,0,0,4.5521-1.08557s.70959-.27789.671-1.92732C236.03749,405.12468,235.43866,405.35843,235.43866,405.35843Z"/><path fill="#d7932e" d="M229.19146 405.47222q-.05449-.09585-.101-.19927l-.00523-.01125a3.10735 3.10735 0 0 1-.16214-.47565l-.00843-.03348q-.02949-.118-.05344-.24208l-.00307-.01525q-.0256-.13632-.04522-.2795l-.00166-.01318c-.01154-.08575-.02149-.17353-.03026-.26272l-.00587-.06161q-.01116-.12253-.01957-.24889l-.00313-.04388q-.0089-.14349-.01479-.29162l-.00341-.09709c-.00227-.06515-.0043-.13071-.006-.197q-.00172-.07043-.00319-.1417l-.0022-.13514c-.00748-.50766-.00429-1.04323-.01477-1.59367l-.00008-.00525q-.00324-.16761-.00862-.33694l-.00193-.06112c-.00405-.11948-.00882-.23935-.015-.35961-.00421-.08173-.00666-.16-.00823-.23652-.00041-.01724-.00169-.036-.00187-.053-.10942-.0975-.23486-.208-.37338-.32846-.00731.18632-.00639.38967.00517.61391.11131 2.15743-.15931 4.21377.63177 5.29757.14618-.09614.23691-.15721.2622-.17433zM235.54966 400.52351c.01772.05715.03411.11245.05087.16828.02461.082.0488.16345.07133.24267.016.05629.0311.11125.04611.16614.02053.07506.04041.14917.05911.22166q.02088.08088.04018.15955.02584.105.049.20624c.01168.0509.02316.10147.03392.151.01427.06589.0274.13.04008.19349.0094.04713.019.09446.02753.1403.01169.06284.022.1235.03218.18393.0072.04306.0149.08677.02135.12863.00951.06166.01741.12074.02531.17983.00491.03692.0106.075.01492.11091.008.06649.01415.13.02016.19318.00244.02573.00575.05289.00788.07808q.01092.12958.01647.24989c.00106.0231.00111.04431.00188.06692.002.0566.00383.11292.00415.16644.00014.02953-.00069.05708-.001.08569-.00048.04389-.00089.08792-.00245.12969-.00113.02977-.003.05788-.00468.0866-.00215.03789-.00434.07568-.00736.11174-.00234.02825-.00527.05524-.00815.08241-.00356.0339-.00725.06745-.01157.0997-.00347.02618-.0073.05148-.01122.07659-.00482.0307-.00985.06074-.0153.08988q-.00669.03578-.01388.07c-.00594.02806-.01219.0552-.01867.08175-.00522.0214-.01041.04262-.016.06307-.007.02572-.01426.05026-.02169.07451-.00574.01878-.0114.03777-.01739.05569-.00805.02408-.01647.0467-.02489.06927-.006.01593-.01176.03238-.0179.04758-.00926.023-.01884.04425-.02843.06559l-.01711.03843c-.01224.02557-.02469.04925-.03723.07239l-.01007.01939c-.016.02857-.03213.05515-.04828.08005l-.01615.0234c-.01086.016-.02171.032-.03251.0464l-.01955.02484-.0283.035-.02006.02243-.026.028-.01942.01917-.02406.02263-.01811.01579-.02181.018-.01614.01247-.01944.014-.01354.00929-.01669.01055-.01056.00642-.01371.00758-.00662.00356-.011.00534-.00186.00089-.00464.002s.06283.04466.17959.12561c.12823-.07394.19872-.1215.19872-.1215s1.51015-.5873.00572-5.16387c-.18919.16478-.29291.25912-.29291.25912z"/><path fill="#d7932e" d="M236.07625 404.1357c2.96275.50327 15.40776 2.86525 13.61852 6.82991-3.68892 1.90654-14.25611-5.60718-14.25611-5.60718S235.93641 405.1652 236.07625 404.1357zM228.81283 404.21183c-2.51053.35863-15.73045 2.45285-13.98174 6.56381 3.59206 1.95545 14.05069-5.07611 14.36705-5.29022A3.44447 3.44447 0 0 1 228.81283 404.21183zM219.97922 400.46082a7.214 7.214 0 0 1 6.8117-.1151M222.04349 401.9967a4.15062 4.15062 0 0 1 4.35472-.331M237.18427 401.40465a8.78982 8.78982 0 0 1 6.25658-1.25622M237.36726 401.97417s3.79136-.71548 4.90779.99927M233.88761 406.3836c-8.56993 11.49744-7.01254 21.01568-7.01254 21.01568a1.61181 1.61181 0 0 1-.45851-.10813 1.80958 1.80958 0 0 0 .83477.3014s-1.5966-9.74875 7.3254-21.43192C234.36925 406.23841 234.13818 406.31466 233.88761 406.3836zM222.04956 418.83373a13.5536 13.5536 0 0 0-5.61624 1.58287 2.82791 2.82791 0 0 0-.08109.43614 14.90191 14.90191 0 0 1 5.7469-1.82036C222.06648 418.90455 222.04956 418.83373 222.04956 418.83373z"/><path fill="#fce6d9" d="M212.52082 395.96244l.38338.4705a1.46554 1.46554 0 0 0-.941.76675A4.4485 4.4485 0 0 1 212.52082 395.96244zM230.26455 399.56064l.38337.4705a1.46553 1.46553 0 0 0-.941.76674A4.44842 4.44842 0 0 1 230.26455 399.56064z"/><path fill="#d3cbcb" d="M235.88111,40.11121a33.35491,33.35491,0,0,0-11.98078-1.324,81.84427,81.84427,0,0,0-18.92106,3.15463c-7.96078,2.34663-15.7432,5.1259-22.13724,10.755-4.63931,4.08433-3.90119,9.53844,1.71232,11.97986,4.59883,2.00007,9.4358,1.83535,14.08058,1.408,8.386-.13192,16.22413-2.08719,23.88376-4.7298,6.01242-2.07442,11.86527-4.65069,16.44486-9.24591C243.568,47.48874,242.0972,42.10526,235.88111,40.11121ZM235.45142,50.378c-4.12864,3.5664-8.99947,5.82587-14.08427,7.66379A79.19881,79.19881,0,0,1,197.70236,62.877,26.0282,26.0282,0,0,1,186.793,61.4819c-3.98508-1.6006-4.44791-2.8116-1.07989-6.23583,4.36948-4.44254,10.1579-6.61567,15.92046-8.57652a77.96251,77.96251,0,0,1,22.02084-4.24049,29.17,29.17,0,0,1,10.5972,1.19076C238.53982,44.99808,238.97416,47.33506,235.45142,50.378Z"/><path fill="#8298e7" d="M162.4171,227.14267c-2.96438-5.201-5.9466-10.3913-9.281-15.36887-1.40869-.49133-1.79819-1.89234-2.45886-2.96423-2.15912-3.503-4.59653-6.86874-5.88007-10.85a86.37624,86.37624,0,0,0-6.61982-10.46835c-1.42655-1.97147-1.01282-3.12434.91622-4.20969,2.87572-1.618,6.16839-1.20474,9.22453-1.96836,12.31991-3.07829,24.60591-6.29076,35.25321-13.59708,9.13-6.26509,14.90978-15.29746,19.75624-25.00917.12717-3.19564,1.6256-6.06192,2.18982-9.15342a22.686,22.686,0,0,0,.85753-3.92646c1.10927-3.939.57539-8.079,1.47924-12.04134-.13108-3.188.212-3.55317,3.85692-4.10563,3.82224-1.29328,7.14578-.26564,10.16379,2.18391,3.41327,1.98,6.95575,3.78081,9.40509,7.06025.21911.29336.77259.337,1.17076.49661.79863,1.22484,2.49234,2.54756,1.69439,3.8654-.9388,1.55043-2.89623.345-4.39373.187a31.03578,31.03578,0,0,1-3.33425-.81891c-3.32942-.73469-4.49877-.20553-6.03094,3.05255a94.99158,94.99158,0,0,0-3.43715,9.15282,69.09823,69.09823,0,0,1-4.35844,9.61865c-1.89246,3.55676-1.48806,4.99658,1.71678,7.70673,7.28559,6.161,15.79129,9.85149,24.83938,12.49538,1.4994.43813,3.16657.51531,4.33627,1.77665.88311,12.4393-.295,24.76663-1.83591,37.09464-2.1644,17.31664-9.97789,31.91423-21.10769,45.00254-6.27283,7.37667-13.11653,14.04461-21.96751,18.31505-.7925.38238-1.62034.69081-2.42088,1.05733-4.83816,2.21513-4.917,2.27047-7.95026-2.29451-5.12441-7.712-9.546-15.85236-14.28654-23.79856-.53759-.90112-1.14022-1.76342-1.7127-2.64372-2.074-1.53638-2.7893-4.02183-4.10481-6.06746C166.06144,233.75768,163.598,230.812,162.4171,227.14267Z"/><path fill="#d3cbcb" d="M207.8541,117.58573c.32781,4.13478.41738,8.25029-.99077,12.2446-4.61223,2.87542-12.16375,1.342-15.77618-3.18931a19.56214,19.56214,0,0,1-3.65646-8.42188c-.97922-4.67334-1.99724-9.3164-4.70521-13.40314-2.92791-4.41868-5.95682-5.85612-11.03385-4.42573-4.02681,1.1345-8.01911,2.08736-12.229,1.84619-.611-.035-1.39325-.026-1.49454.74545-.09788.7454.6342,1.00834,1.22885,1.14919a17.18187,17.18187,0,0,0,8.12289-.26774c1.80014-.4387,3.56927-1.01434,5.31739-1.62549,2.80716-.9814,4.98844-.074,6.86925,2.021,2.55226,2.84294,3.829,6.31676,4.87467,9.88973.76824,2.62513,1.18665,5.34238,2.00529,7.95852,2.27419,7.26774,7.97841,11.281,15.55962,10.99644,1.37188-.0515,2.82487-.52317,4.09286.4623a33.95042,33.95042,0,0,1-2.71159,9.1418c-1.68436-.7083-2.73682.741-3.993,1.28742-5.91073,2.57121-11.57888,2.711-16.93413-1.28689-3.75477-2.8031-5.37343-6.84334-6.25345-11.26354-.51378-2.58059-.90433-5.18907-1.50969-7.74728-.96728-4.0876-3.60272-5.48356-7.5281-3.97223-3.03852,1.16988-6.05214,2.42451-8.99825,3.80872a20.91374,20.91374,0,0,1-9.46327,2.0505c-4.337-.0892-5.90209-2.64268-3.9909-6.51267.93506-1.89339,1.94533-3.74952,2.90158-5.63268a3.814,3.814,0,0,0,.16858-.91933c-2.12629-.07355-3.89256,1.0306-5.8135,1.446a17.6235,17.6235,0,0,1-13.445-2.13843c-2.55653-1.57714-2.5548-4.57333-.02136-6.26386,1.75692-1.17237,3.65092-2.14546,5.51576-3.14792,1.3668-.73474,1.46089-1.43748.40312-2.63654-3.27114-3.7081-6.33609-7.56146-7.96618-12.35472a9.42524,9.42524,0,0,1-.56414-3.62531,3.71774,3.71774,0,0,1,2.1691-3.38056c1.42446-.67467,2.38.20348,3.2677,1.0378,2.63128,2.473,5.1764,5.03783,7.815,7.50277a18.73085,18.73085,0,0,0,7.29547,3.94317A94.0927,94.0927,0,0,1,139.663,81.43932a20.39476,20.39476,0,0,1-2.3071-8.86022c-.00876-1.77391.18009-3.50689,2.02773-4.19941,1.97994-.74212,3.17993.78718,4.10649,2.15039a45.95654,45.95654,0,0,0,5.50038,6.73449c4.185,4.185,9.4759,5.49995,15.10288,6.097,4.363.46295,8.81525-.128,13.10966.93812,6.57194,1.6315,11.14109,6.15308,15.4215,11.04442,4.02064,4.59451,5.618,10.54881,8.80211,15.61679,1.3562,2.15862,2.45362,4.50225,4.33951,6.25486C206.17675,117.59738,206.85774,119.37267,207.8541,117.58573Z"/><path fill="#8298e7" d="M273.73563,139.87743q3.60339,11.57274,7.20712,23.1454c.90608,2.9086.68222,3.8011-2.27728,4.34258a115.21767,115.21767,0,0,1-23.33389,2.02384c-4.06015-.09064-7.98447-1.10141-11.95921-1.77037-1.47947.538-2.77227-.27412-4.08257-.65988a84.02158,84.02158,0,0,1-22.1602-9.8981,19.06943,19.06943,0,0,1-2.49759-1.95756c-1.5574-1.42458-1.752-2.882-.97382-4.95874,2.352-6.2766,4.88264-12.48491,7.17648-18.78117,1.23539-3.391,2.45359-4.41677,5.91214-3.42713,9.138,2.61477,18.1804,1.5233,27.2399-.29807,4.15016-.52129,8.081-2.10632,12.251-2.532a3.59579,3.59579,0,0,1,2.3318,1.98414c1.70116,3.64661,3.48112,7.25872,5.00117,10.98776A2.80126,2.80126,0,0,1,273.73563,139.87743Z"/><path fill="#8b4646" d="M211.0971,109.95812c-5.13157,1.50735-12.34762-3.43626-13.29875-9.1753-.30217-1.82322.33992-3.92488-.12222-5.43867-.43409-1.4219-3.24411-.976-4.82213-1.9766-4.446-2.81925-5.34163-9.97347-1.66068-14.86269,3.52645-4.684,8.32993-6.52743,13.99306-5.18264,2.04638.48594,2.47914-.09192,3.12334-1.701a9.18668,9.18668,0,0,1,6.00594-5.562,15.65711,15.65711,0,0,1,1.77609-.34869c3.93411-.74931,6.91413.36538,10.304-.6515a2.62326,2.62326,0,0,1,2.05827.09564c2.49579,2.14338,5.33948,1.37991,8.19844,1.45265,4.50018.1145,7.81227,5.48465,6.90609,10.68095a17.13859,17.13859,0,0,1-3.13273,7.21681c-.98968.32671-1.40982-.48523-1.95116-1.00541-2.4875-2.3903-5.72363-3.75685-8.26112-6.09907-.98481-.909-1.7694-.03668-2.30765.85294-.82382,1.36165-1.08522,2.98245-1.91983,4.33324a19.33921,19.33921,0,0,1-7.04526,6.9686,7.42363,7.42363,0,0,0-4.05236,4.594,2.61548,2.61548,0,0,1-2.4719,2.00227c-3.49357.45913-4.71189,2.34068-3.93428,5.8173a19.74089,19.74089,0,0,0,2.36526,4.97794C211.33965,107.857,212.40617,108.84743,211.0971,109.95812Z"/><path fill="#f5c092" d="M211.0971,109.95812c.519-1.74176-.84945-2.76106-1.6001-3.971-1.38579-2.23365-2.35055-4.52-1.71609-7.207.52832-2.23746,1.72909-3.7273,4.25052-3.26307,1.53624.28285,2.05893-.38988,2.28163-1.71785.36655-2.18565,1.75352-3.47388,3.67368-4.48984a16.68873,16.68873,0,0,0,8.59574-9.855A10.54391,10.54391,0,0,1,227.909,76.8907a1.51882,1.51882,0,0,1,2.48628-.40546c3.00529,3.1101,7.24362,4.65713,10.03058,8.01978,4.00305,7.01346,4.12381,14.42163,2.07584,21.97981-2.10332,7.76245-6.88222,10.50066-14.74152,8.62143-1.11262-.26605-2.20874-.6008-3.31408-.89785-1.33189-.35793-2.2589.00746-2.57024,1.45593-3.26809-1.28941-6.57049-2.41389-10.1644-2.18363C211.51122,112.30526,212.00751,111.00909,211.0971,109.95812Z"/><path fill="#fbb641" d="M266.46272,125.52127c-4.09945.88848-8.089,2.27537-12.28865,2.70942-.907-2.25951.30845-4.32921.84539-6.34448.78837-2.95894.35059-5.07477-2.329-6.69279a4.19647,4.19647,0,0,1-1.8861-2.14186c-1.52581-1.4632-3.05755-2.92028-4.57514-4.39195-.86846-.84218-2.05729-1.55761-1.58022-3.067.49861-1.57747,1.90245-1.36707,3.0959-1.39161,2.4677-.05074,4.94772-.14349,7.40309.04113,2.13192.16029,3.01409-.618,3.25891-2.71792.49975-4.28646,1.19441-8.55008,1.79756-12.8247.19389-1.37416.03582-2.97751,1.91111-3.329,1.81533-.34028,2.37452,1.15006,3.13937,2.31455a125.97614,125.97614,0,0,1,7.14987,12.95876,3.46714,3.46714,0,0,0,3.47125,2.17126,85.99218,85.99218,0,0,0,10.30475-.264c1.03712-.09746,2.23377-.34735,2.86438.79417.72045,1.30425.00277,2.38592-.86965,3.32463-2.16213,2.32634-4.29875,4.68078-6.55654,6.91168-.967.95546-1.17563,1.62748-.43363,2.88841.91159,1.54915,2.2836,2.97238,2.15589,4.99425-2.55022.29513-5.15136-.4669-7.69543.61863-1.02.4352-1.64607-.7119-2.11689-1.589-.65283-1.21611-1.50317-2.31731-3.03677-2.092-1.70378.25028-2.04569,1.72591-2.32276,3.143C267.886,122.99422,267.87524,124.55764,266.46272,125.52127Z"/><path fill="#f5c092" d="M144.79713,197.9596q4.16815,6.9071,8.33762,13.81419a9.55692,9.55692,0,0,1-1.46093,5.50346c-1.44606,2.36046-1.47348,5.00854-1.15252,7.68264.30384,2.53146.32769,5.01384-2.35332,6.42988-2.21,1.16728-5.93576.35244-8.04462-1.74634-2.58438-2.572-4.30325-5.6056-4.2231-9.34922.08707-4.06712-.59556-7.62437-3.53922-10.88316-2.88979-3.19916-1.07213-7.54833,3.23884-8.75744a20.25344,20.25344,0,0,1,4.90374-.95392A6.17249,6.17249,0,0,0,144.79713,197.9596Z"/><path fill="#7286cb" d="M250.80431,113.05156c5.93862,4.04036,5.94419,4.04161,4.42546,10.85411-.32286,1.44818-.70258,2.88369-1.05589,4.325-8.8031,1.967-17.62,3.09244-26.52933.59465-4.45718-1.2496-4.77412-.80794-6.38431,3.52382-2.26436,6.0916-4.62848,12.15194-7.01785,18.19477-.75377,1.90639-.4666,2.88986.83694,4.04065,2.99863,2.64727,6.538,4.39518,10.07289,6.17356,5.83381,2.93495,12.05759,4.81149,18.22016,6.86073q.05538,1.31916.11069,2.63831a75.40924,75.40924,0,0,1-24.34342-9.835,67.34541,67.34541,0,0,1-6.84358-5.35185,4.0638,4.0638,0,0,1-1.09-5.47661c3.61362-6.20987,5.64063-13.06467,8.27735-19.675,1.83932-4.61122,3.11321-5.16854,7.82062-3.91731a37.793,37.793,0,0,0,6.42493,1.21579c.45424-1.67338-1.89686-2.35273-1.27815-3.99652,4.61978-1.42172,9.369-2.48988,13.35927-5.494A22.55008,22.55008,0,0,0,250.80431,113.05156Z"/><path fill="#f5c092" d="M162.4171 227.14267a142.55014 142.55014 0 0 1 9.78444 15.84818 4.11631 4.11631 0 0 0-.89224 3.45235c.19572 3.16838.41231 6.33741.50648 9.50955.07449 2.50918-.54613 4.8507-3.1257 5.8715-2.60561 1.0311-4.97935.02368-6.947-2.441a17.38572 17.38572 0 0 1-3.12425-6.64027 16.51163 16.51163 0 0 0-3.77554-6.85822c-4.20054-4.77243-3.85306-8.20159.92567-12.36715C158.08087 231.50239 160.66835 229.75286 162.4171 227.14267zM266.46272 125.52127a23.21013 23.21013 0 0 0 1.15592-4.83492 3.06259 3.06259 0 0 1 2.66842-3.1485 3.19549 3.19549 0 0 1 3.71433 2.30017c.54818 2.02923 1.53929 2.08385 3.0227 1.27782 2.19673-1.19361 4.24406-.33993 6.31713.34826q.23439.21075.46879.42127c.61815.78676.57363 1.93617 1.42134 2.59731l1.00458 1.98128c.30067.69772.04983 1.547.59807 2.17668a5.59656 5.59656 0 0 0-.22326.75437c-1.13164 7.424-3.01008 9.1864-10.57407 9.97416a20.053 20.053 0 0 0-2.3011.509c-1.7165-3.71405-3.48369-7.40523-5.12068-11.15329A8.84393 8.84393 0 0 0 266.46272 125.52127z"/><path fill="#edcc36" d="M285.23135,124.48268c-1.2059-.46511-1.36847-1.501-1.42106-2.59723C284.88149,122.42405,284.93617,123.51917,285.23135,124.48268Z"/><path fill="#ecc92d" d="M286.834,128.64064c-.98174-.51021-.896-1.31389-.59813-2.17627C287.01547,127.03011,286.90066,127.842,286.834,128.64064Z"/><path fill="#b3abab" d="M206.03887,133.56587c-3.85114.2324-7.65255.69316-11.42421-.95746-5.4468-2.38373-8.16546-6.71036-9.49351-12.18464-.909-3.74683-1.61764-7.53807-3.20965-11.09736a18.27236,18.27236,0,0,0-3.1276-4.85407,4.92648,4.92648,0,0,0-5.885-1.57138c-4.45571,1.589-8.99136,3.10359-13.88581,2.01181-1.30658-.29144-2.61292-.62217-2.27234-2.22564.27308-1.28569,1.34846-1.40412,2.718-1.26925a23.40557,23.40557,0,0,0,10.11562-1.22136c3.70448-1.28967,7.6321-2.13387,10.97337.87493,3.22283,2.90215,5.01735,6.75312,6.17744,10.86849.78274,2.77677,1.38871,5.605,2.02288,8.42172,1.80349,8.01027,9.39294,11.86016,16.80117,9.5884a6.3044,6.3044,0,0,1,1.31381-.11969A6.30871,6.30871,0,0,1,206.03887,133.56587Z"/><path fill="#d64142" d="M297.35166,417.416h61.17917a0,0,0,0,1,0,0v46.766a2,2,0,0,1-2,2H299.35166a2,2,0,0,1-2-2V417.416A0,0,0,0,1,297.35166,417.416Z"/><rect width="61.179" height="12.413" x="297.352" y="417.416" fill="#b8303c"/><rect width="76.252" height="14.186" x="289.815" y="409.436" fill="#d64142" rx="2"/><path fill="#fbb641" d="M329.95918,409.514q-1.06225,1.39311-1.933,2.74478c1.21354,1.65717,3.40062,5.81641,4.10864,14.81769,0,0,3.21361.22413,3.49122-7.90756,0,0,6.60815,1.20694,5.83712,2.52281,0,0,1.97058-2.37358-3.917-8.95673a57.0228,57.0228,0,0,1-6.34882-3.82992s-.04384.02979-.12953.08183l-.099.05756a7.20743,7.20743,0,0,1-1.00774.46767l-.00191.00187.00191-.00187a7.20743,7.20743,0,0,0,1.00774-.46767l.099-.05756c.08569-.052.12953-.08183.12953-.08183Z"/><path fill="#fbb641" d="M331.28849 404.0044s13.14584-11.98154 18.37229-5.4926c0 0 1.6839 1.72092.49136 7.005s-1.01573 6.421-4.4473 8.84307a2.1156 2.1156 0 0 1-.25137.15239c-3.68892 1.90654-14.25611-5.60718-14.25611-5.60718S332.6507 408.342 331.28849 404.0044zM324.95684 409.032c-.31636.21412-10.775 7.24568-14.36705 5.29023a2.11478 2.11478 0 0 1-.248-.15782c-3.37808-2.49607-3.17658-3.629-4.25393-8.93769s.64359-6.99264.64359-6.99264c4.70512-5.58826 15.1871 3.15042 17.69965 5.38925.00088.0927.00551.18923.01009.28955C324.54571 405.95718 324.3088 407.91072 324.95684 409.032z"/><path fill="#fbb641" d="M324.95684,409.032a1.96264,1.96264,0,0,0,1.68841.95859,7.68059,7.68059,0,0,0,3.31393-.47664l.00191-.00187-.00191.00187c-8.922,11.68317-7.32541,21.43191-7.32541,21.43191-2.8353-.22-4.82551-8.56554-4.82551-8.56554a14.41056,14.41056,0,0,0-6.07359,1.82574c.20076-2.2831,5.36489-10.06842,6.09564-11.15961A55.6207,55.6207,0,0,0,324.95684,409.032Z"/><path fill="#d7932e" d="M335.626 419.16889c-.20573 6.02613-2.02357 7.46306-2.95133 7.80334.00838.10033.01753.198.02552.29955 0 0 3.21361.22413 3.49122-7.90756a32.96829 32.96829 0 0 1 3.61461.89476A30.31756 30.31756 0 0 0 335.626 419.16889zM338.1116 412.9303a57.02047 57.02047 0 0 1-6.34883-3.82993l-.16586.08158a56.93612 56.93612 0 0 0 5.94928 3.553c4.26392 4.76769 4.40612 7.327 4.16031 8.3762.332.24812.478.50974.32208.77585C342.02858 421.887 343.99916 419.51345 338.1116 412.9303z"/><path fill="#fbb641" d="M326.61248,401.36372a7.16636,7.16636,0,0,1-.96393.06107c-.48542.00575-1.319.32486-1.20736,2.48812.15625,3.02857-.44208,5.85975,2.20406,6.07771a7.60784,7.60784,0,0,0,4.55211-1.08557s1.73727-.67309-.36716-6.21567a2.19849,2.19849,0,0,0-1.74891-1.39831A8.7728,8.7728,0,0,0,326.61248,401.36372Z"/><path fill="#d7932e" d="M331.19736,408.90505a7.60784,7.60784,0,0,1-4.55211,1.08557c-2.64614-.218-2.04781-3.04914-2.20406-6.07771-.00454-.088-.007-.17184-.00846-.25384-.00813.19123-.00759.40051.00435.63215.15624,3.02857-.44209,5.85975,2.204,6.07771a7.60775,7.60775,0,0,0,4.55211-1.08557s.70958-.27789.671-1.92732C331.79619,408.6713,331.19736,408.90505,331.19736,408.90505Z"/><path fill="#d7932e" d="M324.95016 409.01884q-.05449-.09585-.101-.19927l-.00523-.01125a3.10735 3.10735 0 0 1-.16214-.47565l-.00844-.03348q-.02947-.11805-.05343-.24208l-.00307-.01525q-.0256-.13633-.04523-.2795l-.00165-.01319c-.01154-.08574-.02149-.17352-.03026-.26271l-.00587-.06161q-.01117-.12253-.01958-.24889l-.00312-.04389q-.00889-.14349-.0148-.29162l-.0034-.09708c-.00227-.06515-.0043-.13071-.006-.197q-.00173-.07043-.00319-.1417l-.0022-.13514c-.00749-.50766-.00429-1.04324-.01477-1.59367l-.00008-.00526q-.00324-.1676-.00863-.33693l-.00192-.06112c-.00406-.11948-.00883-.23936-.015-.35961-.00421-.08173-.00666-.16-.00823-.23652-.00042-.01724-.00169-.03605-.00187-.053-.10942-.0975-.23486-.208-.37338-.32846-.00732.18631-.00639.38967.00517.61391.11131 2.15743-.15931 4.21377.63176 5.29757.14619-.09614.23692-.15722.26221-.17433zM331.30836 404.07013c.01772.05715.03411.11245.05087.16827.02461.082.0488.16346.07133.24268.016.05629.0311.11124.04611.16614.02052.07506.04041.14917.05911.22166q.02088.08088.04018.15954.02585.105.049.20625c.01169.0509.02317.10147.03393.151.01427.06589.0274.13.04008.1935.0094.04713.019.09446.02753.1403.01169.06284.022.1235.03218.18393.0072.043.01489.08677.02134.12863.00952.06166.01742.12074.02532.17982.00491.03693.01059.075.01491.11092.008.06649.01416.13.02017.19318.00244.02573.00575.05288.00788.07808q.01092.12959.01647.24988c.00106.02311.00111.04432.00188.06693.002.0566.00383.11292.00415.16644.00014.02952-.00069.05708-.001.08569-.00048.04389-.00089.08791-.00245.12968-.00113.02978-.003.05789-.00469.08661-.00214.03788-.00433.07568-.00735.11174-.00234.02825-.00527.05524-.00815.08241-.00356.0339-.00725.06745-.01157.09969-.00347.02619-.0073.05149-.01122.0766-.00482.03069-.00986.06074-.0153.08988q-.00669.03576-.01388.07c-.00594.02806-.01219.0552-.01867.08175-.00522.0214-.01042.04262-.016.06307-.007.02572-.01427.05026-.02169.0745-.00575.01879-.0114.03778-.01739.0557-.00805.02408-.01647.0467-.02489.06926-.006.01594-.01176.03239-.01791.04759-.00925.023-.01884.04425-.02842.06559l-.01711.03843c-.01224.02557-.0247.04925-.03723.07239l-.01007.01939c-.016.02857-.03213.05514-.04829.08l-.01614.0234c-.01086.016-.02171.032-.03251.0464l-.01955.02484-.0283.035-.02006.02243-.026.028-.01942.01917-.02406.02263-.01811.01579-.02181.018-.01614.01248-.01944.014-.01354.00928-.0167.01056-.01055.00642-.01371.00758-.00662.00356-.011.00534-.00186.00088-.00464.002s.06283.04466.17959.12561c.12823-.07394.19872-.1215.19872-.1215s1.51015-.5873.00572-5.16387c-.18919.16478-.29291.25912-.29291.25912z"/><path fill="#d7932e" d="M331.835 407.68231c2.96275.50328 15.40776 2.86526 13.61852 6.82992-3.68892 1.90654-14.25611-5.60718-14.25611-5.60718S331.69511 408.71182 331.835 407.68231zM324.57153 407.75845c-2.51053.35862-15.73045 2.45285-13.98174 6.56381 3.59206 1.95545 14.05069-5.07611 14.36705-5.29023A3.44436 3.44436 0 0 1 324.57153 407.75845zM315.73792 404.00744a7.214 7.214 0 0 1 6.8117-.1151M317.80219 405.54332a4.15062 4.15062 0 0 1 4.35472-.331M332.943 404.95126a8.78983 8.78983 0 0 1 6.25658-1.25621M333.126 405.52079s3.79136-.71548 4.90779.99927M329.64631 409.93022c-8.56993 11.49744-7.01254 21.01567-7.01254 21.01567a1.6116 1.6116 0 0 1-.45852-.10812 1.80965 1.80965 0 0 0 .83478.3014s-1.5966-9.74875 7.3254-21.43192C330.128 409.785 329.89688 409.86128 329.64631 409.93022zM317.80826 422.38035a13.55369 13.55369 0 0 0-5.61625 1.58287 2.83009 2.83009 0 0 0-.08109.43614 14.902 14.902 0 0 1 5.74691-1.82036C317.82518 422.45117 317.80826 422.38035 317.80826 422.38035z"/><path fill="#fce6d9" d="M308.27952 399.50906l.38338.4705a1.46554 1.46554 0 0 0-.941.76675A4.4485 4.4485 0 0 1 308.27952 399.50906zM326.02325 403.10725l.38337.4705a1.46554 1.46554 0 0 0-.941.76675A4.44858 4.44858 0 0 1 326.02325 403.10725z"/><circle cx="350.108" cy="375.3" r="6.65" fill="#fbb641"/></svg>