<svg xmlns="http://www.w3.org/2000/svg" data-name="Layer 1" viewBox="0 0 512 512"><path fill="#b3abab" stroke="#fcfafa" stroke-linecap="round" stroke-linejoin="round" stroke-width="40" d="M217.22445,80.33655c8.4309,4.22781,17.531,4.4146,26.2972,4.08848,15.76132.61218,30.681-2.25541,45.33589-6.43228,11.50336-3.279,22.75854-7.51644,31.82976-15.676,9.12049-8.20395,6.91069-18.46433-4.55784-22.8467a62.73463,62.73463,0,0,0-22.36265-3.7149,153.92209,153.92209,0,0,0-35.855,3.98311c-15.19007,3.59037-30.08955,8.0115-42.67414,17.92616C206.10669,64.85868,206.93337,75.1761,217.22445,80.33655Zm3.14337-17.59046c8.661-7.89438,19.75384-11.38156,30.77635-14.473a146.63815,146.63815,0,0,1,41.78737-5.70428,54.85985,54.85985,0,0,1,19.77812,3.323c7.9113,3.02826,8.48723,7.46115,1.55985,12.81405-8.11889,6.27379-17.49746,10.01742-27.23459,12.94684a148.94036,148.94036,0,0,1-44.93553,6.653c-6.89419-.08708-13.91993-.7428-20.34328-3.73884C214.4368,71.1525,213.69188,68.83091,220.36782,62.74609Z"/><path fill="#b3abab" stroke="#fcfafa" stroke-linecap="round" stroke-linejoin="round" stroke-width="40" d="M409.47921,163.66921c-1.06713-2.20839-3.3399-1.8618-5.29749-1.78517a161.78127,161.78127,0,0,1-19.37814-.56124c-3.30126-.2669-5.01982-1.49084-6.29589-4.43375a236.91547,236.91547,0,0,0-12.09742-25.06816c-1.31683-2.265-2.21405-5.12127-5.658-4.66844-3.5576.46763-3.42524,3.495-3.93026,6.05565-1.57106,7.96534-3.31285,15.90065-4.691,23.89865-.67515,3.91823-2.41161,5.28933-6.39864,4.76945-4.592-.59825-9.25862-.67836-13.89788-.83641-2.24366-.0762-4.85834-.61524-5.95643,2.2959-1.0507,2.7853,1.10838,4.25088,2.65288,5.92154,2.69887,2.919,5.42583,5.81269,8.141,8.71686-2.74453,3.404-6.25245,5.84883-9.858,8.26709-7.80141,5.23185-16.82937,6.751-25.65057,8.94675l-.00016.00044h-.00016c-.73138-.34093-1.76623-.47939-2.1476-1.05282-4.26323-6.40963-10.73083-10.15457-16.93746-14.223h-.00033l.00218.00087c.73323-2.68821,2.51154-3.27949,4.976-2.4705,2.04522.67139,4.06926,1.41246,6.13135,2.02595,14.566,4.33492,23.8211-.31654,28.567-14.678,4.62109-13.98311,5.15414-27.907-1.64377-41.48825h0a32.2342,32.2342,0,0,0,6.623-13.23073c2.23468-9.66517-3.43422-20.08927-11.87324-20.76589-5.36133-.42975-10.77976.71233-15.24666-3.569-.74733-.71624-2.63912-.684-3.85537-.39056-6.47,1.56181-11.95178-.83685-19.41641.16676a29.40851,29.40851,0,0,0-3.371.47242,17.27743,17.27743,0,0,0-11.84891,9.82889c-1.37475,2.95555-2.2467,3.99617-6.0397,2.87369-10.49676-3.1062-19.70617-.13715-26.80887,8.29713-7.41379,8.80394-6.4658,22.33031,1.59414,28.08074,2.86068,2.04076,8.18332,1.49171,8.85265,4.20647.71255,2.89024-.70873,6.77059-.32835,10.22555,1.19748,10.87474,14.24131,20.89826,24.03232,18.59408,1.60154,2.06645.53746,4.449.79223,6.677h-.00055c-5.29107.50855-6.92211,1.01929-7.4336,3.92912-2.40982.394-3.58248,1.00666-4.14976,2.4348-3.33724-3.47891-5.15468-7.97275-7.47116-12.14962-5.45952-9.84369-7.8485-21.18867-14.92752-30.229-7.53636-9.62469-15.6529-18.58407-27.82689-22.322-7.955-2.4422-16.37634-1.78953-24.52211-3.1062-10.50551-1.69853-20.30632-4.71067-27.736-12.99866a86.44,86.44,0,0,1-9.63829-13.2107c-1.60013-2.65468-3.69672-5.64985-7.49092-4.45944-3.54068,1.11116-4.073,4.34623-4.23853,7.678-.295,5.93983,1.15753,11.43816,3.42366,16.87509a176.94581,176.94581,0,0,0,11.44306,22.21494c-5.54617-2.15963-9.82949-4.54131-13.29561-8.153-4.70207-4.89921-9.21839-9.97693-13.906-14.89094-1.58145-1.6576-3.28575-3.40445-6.0299-2.28371a6.9918,6.9918,0,0,0-4.42,6.12575,17.725,17.725,0,0,0,.68757,6.8655c2.56945,9.16838,7.9298,16.71922,13.69231,24.018,1.86339,2.36034,1.61461,3.67005-1.02745,4.90965-3.60474,1.69113-7.26129,3.32434-10.68082,5.3455-4.93088,2.91505-5.24144,8.54139-.60233,11.76515,7.54186,5.241,15.96683,6.84243,25.0287,5.3947,3.64991-.583,7.08-2.47529,11.06534-2.11913a7.16293,7.16293,0,0,1-.41086,1.709c-1.98884,3.43841-4.0764,6.82022-6.02654,10.28-3.98593,7.07145-1.30878,12.02726,6.82643,12.63945a39.32724,39.32724,0,0,0,17.98119-2.88023c5.6744-2.29677,11.46233-4.34406,17.28824-6.22937,7.52641-2.43524,12.33227.45631,13.72944,8.23181.87441,4.86612,1.34024,9.80451,2.04037,14.70328,1.19923,8.39074,3.82446,16.14361,10.588,21.793,9.6464,8.05679,20.30486,8.3755,31.66823,4.15336,1.28538-.47764,2.48972-1.43728,3.80008-2.0081a24.26564,24.26564,0,0,0-.62781,3.56555c-7.89268,13.8673-16.82855,26.8825-28.84336,37.08279q-3.05093,2.26434-6.363,4.28833c-20.74374,12.62813-44.14483,17.40063-67.59583,21.91755-5.81737,1.12074-11.95825.007-17.52445,2.75-1.83236.90347-2.97644,1.87573-3.37854,3.08529-.36215.1463-.7224.30566-1.08.48156-3.73384,1.84047-4.629,3.96308-2.15233,7.81165a165.59681,165.59681,0,0,1,10.86473,19.29161,13.402,13.402,0,0,1-3.28983.30609,38.09865,38.09865,0,0,0-9.30646,1.28837c-8.21946,1.82828-12.07892,9.80886-6.98035,16.11313,5.19355,6.42139,6.11062,13.17151,5.53,20.80029-.53452,7.02182,2.38217,12.8946,6.97153,17.98973,3.74489,4.15771,10.65774,6.07,14.92768,4.10459,5.17988-2.38429,5.38969-7.04838,5.07876-11.83307-.32847-5.05465-.00534-10.02482,2.95228-14.3088a19.95156,19.95156,0,0,0,1.36239-2.28415c4.73816,8.33806,9.05457,16.90078,13.3417,25.47875.07658.29172.16366.57822.24862.866-2.82433,2.46746-5.97646,4.55437-8.92831,6.8568-9.40115,7.33227-10.40537,13.73624-3.00676,23.12885a31.05485,31.05485,0,0,1,6.38656,13.26644,32.69933,32.69933,0,0,0,5.18587,12.7901c3.44222,4.83,7.79652,6.96521,12.79527,5.29629,4.94884-1.65237,6.35445-5.986,6.4719-10.70536.13682-5.49615.07864-10.998.03532-16.4976.16676.30131.34506.59651.50507.90173,8.08721,15.40821,15.55543,31.14819,24.3874,46.15582,5.228,8.88362,5.38158,8.78783,14.6943,5.12431,1.5409-.60609,3.12709-1.10027,4.65456-1.73727a105.306,105.306,0,0,0,26.99848-16.80587,176.15393,176.15393,0,0,0,20.59092-18.901c22.24285-23.43668,38.41285-50.04793,44.25346-82.34428,4.158-22.99257,7.63482-46.02085,7.25237-69.471h.00016q.03151-2.48247.06276-4.96582c7.3955,1.66413,14.66115,3.96482,22.27632,4.55131a216.66382,216.66382,0,0,0,44.02575-1.40723c5.61311-.7132,6.125-2.36644,4.72188-7.92137q-5.58246-22.1-11.15982-44.20215a37.81389,37.81389,0,0,1,4.37291-.71973c14.285-.70318,17.99327-3.82026,20.87981-17.64576a10.51938,10.51938,0,0,1,.49663-1.3933c.207-1.493.50573-3.00562-.89949-4.1477l-.00033-.0013q-.8417-1.91166-1.68329-3.82375c-.45549-1.8396-.44585-3.90169-2.40219-5.02286v.00043l-.00049-.00087q-.41857-.4193-.83713-.839c.447-3.78369-1.98334-6.59686-3.53627-9.59943-1.264-2.44394-.80327-3.68442,1.11056-5.3799,4.46864-3.95742,8.72247-8.15954,13.0213-12.30636C409.23974,168.14956,410.69835,166.192,409.47921,163.66921Z"/><path fill="#7286cb" d="M154.531,386.72429c-5.0333-10.071-10.10119-20.12354-15.8523-29.8128-2.595-1.06714-3.1827-3.738-4.31342-5.81867-3.69526-6.79968-7.9272-13.3701-9.92919-20.978a162.44656,162.44656,0,0,0-11.35748-20.33726c-2.47669-3.84849-1.58151-5.971,2.15232-7.8113,5.5662-2.74336,11.707-1.62967,17.52443-2.7502,23.451-4.517,46.85211-9.28951,67.59583-21.9178,17.78754-10.82864,29.56777-27.1975,39.66494-44.93781.56658-5.988,3.67444-11.2168,5.05106-16.96439a42.66474,42.66474,0,0,0,2.01307-7.28545c2.48709-7.28314,1.90915-15.11235,4.01288-22.46045.08084-6.00011.76251-6.65068,7.664-7.31426,7.31034-2.0366,13.44613.23408,18.86234,5.14359,6.20662,4.06838,12.67425,7.81333,16.93746,14.22293.38137.57337,1.41625.71209,2.1476,1.05267,1.37411,2.382,4.419,5.03963,2.7854,7.43253-1.922,2.81524-5.47415.35075-8.27007-.09946a58.36,58.36,0,0,1-6.17732-1.87979c-6.1769-1.72114-8.42707-.84739-11.63846,5.11373-2.91,5.40168-5.05829,11.173-7.39334,16.83533a129.95064,129.95064,0,0,1-9.17119,17.61561c-3.9186,6.48507-3.30688,9.23035,2.43344,14.6484,13.04954,12.31686,28.64366,20.11956,45.36369,26.0125,2.77075.97655,5.89358,1.29248,7.96077,3.7811.38248,23.45006-3.09432,46.47845-7.25234,69.4709-5.84062,32.29652-22.01065,58.9076-44.25347,82.34428-12.53624,13.20909-26.07178,25.02872-43.13084,32.14026-1.52744.63677-3.11365,1.13105-4.65456,1.73723-9.31268,3.6635-9.46632,3.75933-14.69429-5.12425-8.832-15.0078-16.30021-30.74791-24.38738-46.15613-.91711-1.74732-1.96034-3.42843-2.94509-5.14025-3.73721-3.09787-4.82545-7.8386-7.086-11.815C160.69617,399.52025,156.37217,393.7359,154.531,386.72429Z"/><path fill="#d3cbcb" d="M316.12946,39.47029a62.72993,62.72993,0,0,0-22.36264-3.71512,153.92238,153.92238,0,0,0-35.855,3.98333c-15.19006,3.59015-30.08955,8.01106-42.67413,17.926-9.131,7.194-8.30431,17.51187,1.98676,22.67232,8.43091,4.22759,17.531,4.41438,26.29721,4.08826,15.76132.6124,30.681-2.25541,45.33589-6.43228,11.50336-3.27883,22.75853-7.51644,31.82976-15.676C329.80779,54.11283,327.598,43.85245,316.12946,39.47029Zm-1.85995,19.23565c-8.11888,6.27379-17.49745,10.01721-27.23458,12.94706a148.947,148.947,0,0,1-44.93553,6.65281c-6.89419-.08686-13.91993-.74258-20.34328-3.73884-7.31931-3.41447-8.06424-5.73606-1.3883-11.82088,8.661-7.89438,19.75385-11.38156,30.77635-14.47273a146.62259,146.62259,0,0,1,41.78738-5.7045,54.85983,54.85983,0,0,1,19.77811,3.323C320.621,48.91994,321.1969,53.353,314.26951,58.70594Z"/><path fill="#8298e7" d="M158.98961,383.15743c-5.03329-10.071-10.10118-20.12353-15.8523-29.8128-2.595-1.06714-3.18269-3.738-4.31342-5.81867-3.69525-6.79968-7.9272-13.3701-9.92918-20.978a162.446,162.446,0,0,0-11.35749-20.33727c-2.47668-3.84849-1.58151-5.971,2.15233-7.8113,5.56619-2.74336,11.707-1.62967,17.52442-2.7502,23.451-4.517,46.85212-9.28951,67.59584-21.9178,17.78754-10.82864,29.56776-27.1975,39.66493-44.93781.56659-5.988,3.67445-11.2168,5.05106-16.96439a42.66382,42.66382,0,0,0,2.01307-7.28545c2.4871-7.28313,1.90916-15.11235,4.01288-22.46045.08084-6.00011.76252-6.65068,7.664-7.31426,7.31034-2.0366,13.44613.23408,18.86234,5.14359,6.20663,4.06838,12.67426,7.81333,16.93747,14.22293.38136.57337,1.41624.71209,2.14759,1.05267,1.37411,2.382,4.419,5.03963,2.7854,7.43253-1.922,2.81524-5.47415.35075-8.27007-.09946a58.36,58.36,0,0,1-6.17732-1.87979c-6.17689-1.72114-8.42707-.84739-11.63846,5.11373-2.91,5.40169-5.05828,11.173-7.39334,16.83533a129.95172,129.95172,0,0,1-9.17118,17.61561c-3.91861,6.48507-3.30689,9.23035,2.43343,14.6484,13.04954,12.31686,28.64367,20.11957,45.3637,26.01251,2.77074.97654,5.89358,1.29248,7.96076,3.78109.38249,23.45006-3.09431,46.47845-7.25233,69.4709-5.84062,32.29652-22.01065,58.9076-44.25348,82.34428-12.53623,13.20909-26.07178,25.02872-43.13084,32.14026-1.52744.63677-3.11365,1.13105-4.65456,1.73723-9.31268,3.6635-9.46631,3.75933-14.69429-5.12425-8.832-15.0078-16.30021-30.74791-24.38738-46.15613-.91711-1.74732-1.96034-3.42843-2.94509-5.14025-3.73721-3.09787-4.82545-7.8386-7.086-11.815C165.15474,395.95339,160.83074,390.169,158.98961,383.15743Z"/><path fill="#d3cbcb" d="M255.55175,182.08328c.19151,7.79823-.06241,15.53585-3.11644,22.89225-8.95613,4.92661-22.97967,1.27244-29.29862-7.60728-3.46063-4.8631-5.11261-10.37985-6.00255-16.19029-1.35953-8.8764-2.795-17.69991-7.46108-25.65205-5.045-8.59807-10.58553-11.60806-20.26629-9.44271-7.67822,1.71744-15.273,3.09731-23.154,2.21261-1.1437-.1284-2.61369-.1918-2.883,1.24658-.26026,1.38973,1.08752,1.95858,2.18976,2.28408a32.31361,32.31361,0,0,0,15.28126.33037c3.42544-.63919,6.80669-1.53873,10.15212-2.50709,5.37217-1.555,9.37528.37262,12.69233,4.49977,4.50123,5.60049,6.54259,12.25485,8.13967,19.07169,1.17341,5.00847,1.68042,10.154,2.94938,15.1508,3.52522,13.88119,13.82542,22.00273,28.09119,22.2459,2.58151.044,5.35843-.69271,7.63847,1.28793a63.84971,63.84971,0,0,1-6.02969,16.88906c-3.09036-1.50287-5.21542,1.11079-7.63035,2.00808-11.36336,4.22215-22.02179,3.90332-31.66822-4.15354-6.76351-5.649-9.38875-13.40209-10.588-21.79295-.70013-4.89872-1.166-9.83719-2.04039-14.70329-1.39717-7.77522-6.203-10.667-13.72942-8.23151-5.826,1.88525-11.61386,3.9322-17.28827,6.22939a39.332,39.332,0,0,1-17.98119,2.88c-8.13518-.61234-10.81234-5.568-6.82642-12.63934,1.95013-3.45964,4.03768-6.84161,6.02655-10.27987a7.173,7.173,0,0,0,.41086-1.70909c-3.98536-.35622-7.41545,1.53607-11.06535,2.11914-9.06188,1.44767-17.48685-.15358-25.02871-5.39473-4.63908-3.22389-4.32853-8.8502.60235-11.76495,3.41953-2.02136,7.076-3.65445,10.6808-5.34567,2.642-1.23957,2.89082-2.54957,1.02744-4.90975-5.76248-7.29888-11.12283-14.84938-13.69232-24.01774a17.72588,17.72588,0,0,1-.68754-6.86575,6.99184,6.99184,0,0,1,4.42-6.12578c2.74416-1.12086,4.44843.6262,6.0299,2.284,4.68758,4.91384,9.20392,9.99137,13.906,14.89086,3.46611,3.61158,7.74943,5.99346,13.29557,8.15307a176.95932,176.95932,0,0,1-11.443-22.21494c-2.26613-5.437-3.71867-10.93538-3.42367-16.875.1655-3.33208.69789-6.567,4.23855-7.678,3.7942-1.19052,5.89078,1.80438,7.49093,4.45936a86.42842,86.42842,0,0,0,9.6383,13.21071c7.42965,8.28807,17.23045,11.30016,27.736,12.99853,8.14572,1.31687,16.56707.66386,24.52211,3.10632,12.174,3.73782,20.2905,12.69743,27.82688,22.32182,7.079,9.04031,9.468,20.38559,14.9275,30.22922,2.32537,4.19274,4.14581,8.70634,7.50753,12.191C252.40071,181.93313,253.49743,185.33674,255.55175,182.08328Z"/><path fill="#8298e7" d="M376.98279,230.70169q5.57975,22.10181,11.16011,44.20345c1.40318,5.55493.89127,7.208-4.72185,7.92127a216.68854,216.68854,0,0,1-44.02577,1.40722c-7.61518-.58667-14.88089-2.88728-22.27636-4.55118-2.83343.85846-5.17785-.79911-7.59889-1.65791a158.01747,158.01747,0,0,1-40.59891-20.86036,35.86141,35.86141,0,0,1-4.48937-3.93222c-2.7785-2.83493-2.9945-5.59177-1.32012-9.41179,5.06057-11.54545,10.44957-22.94432,15.4029-34.53265,2.66772-6.24123,5.06057-8.0425,11.4538-5.82934,16.8919,5.84747,33.98432,4.72529,51.18376,2.2342,7.847-.55325,15.3911-3.12656,23.26549-3.49829a6.76252,6.76252,0,0,1,4.17532,3.96514c2.82055,7.02237,5.79262,13.988,8.2646,21.14664A5.26817,5.26817,0,0,1,376.98279,230.70169Z"/><path fill="#8b4646" d="M262.42406,168.09219c-9.791,2.30429-22.83486-7.71934-24.03232-18.59411-.38043-3.45478,1.04089-7.33558.32831-10.2257-.66933-2.71467-5.99192-2.16552-8.85263-4.20641-8.05993-5.75021-9.008-19.27682-1.59411-28.08063,7.10266-8.43429,16.31209-11.40333,26.80882-8.29713,3.793,1.12243,4.66495.08166,6.03972-2.87393a17.27716,17.27716,0,0,1,11.84891-9.82871,29.44727,29.44727,0,0,1,3.371-.47262c7.46464-1.00361,12.94642,1.39531,19.41639-.16659,1.21629-.29363,3.108-.32551,3.85537.39072,4.46693,4.281,9.88536,3.139,15.24666,3.56879,8.439.67659,14.108,11.1008,11.87328,20.76586a32.23229,32.23229,0,0,1-6.6231,13.231c-1.892.512-2.5977-1.05579-3.56093-2.08816-4.426-4.74382-10.36294-7.642-14.88779-12.30064-1.75611-1.808-3.319-.25036-4.421,1.365-1.6867,2.47251-2.34381,5.48936-4.04967,7.94038a36.37076,36.37076,0,0,1-13.94487,12.36356c-3.72674,1.80635-6.73894,4.09964-8.081,8.21135-.7394,2.2653-2.36655,3.31732-4.84729,3.50649-6.6076.50384-9.08843,3.9122-7.98478,10.52064.586,3.50852,2.4507,6.45577,3.9311,9.59055C263.09507,164.17138,264.99625,166.14072,262.42406,168.09219Z"/><path fill="#f5c092" d="M262.42406,168.09219c1.15333-3.21758-1.312-5.272-2.59748-7.62117-2.37324-4.33666-3.95044-8.72908-2.48342-13.70979,1.22161-4.1475,3.62933-6.82207,8.31665-5.69168,2.85587.68871,3.90641-.521,4.46082-2.9919.91252-4.06678,3.64921-6.34366,7.35923-8.05456,7.91458-3.64988,13.972-9.24544,17.15256-17.62479a19.82957,19.82957,0,0,1,2.75394-4.67832c1.30126-1.743,3.30624-2.128,4.71051-.50639,5.32458,6.14864,13.125,9.48849,18.01364,16.089,6.79788,13.581,6.26482,27.505,1.64374,41.48831-4.746,14.3612-14.001,19.01305-28.567,14.678-2.06207-.61372-4.08612-1.35477-6.13135-2.026-2.46442-.80877-4.24269-.21769-4.97592,2.47042-6.00482-2.75654-12.091-5.2069-18.86353-5.14313C262.961,172.54232,264.02591,170.15916,262.42406,168.09219Z"/><path fill="#fbb641" d="M364.79764,202.99662c-7.78939,1.248-15.42354,3.44319-23.35448,3.82755-1.47142-4.33612,1.02327-8.09811,2.23829-11.82746,1.784-5.47566,1.17887-9.49383-3.68722-12.80713a7.89223,7.89223,0,0,1-3.32217-4.2156c-2.71521-2.90421-5.44217-5.79752-8.14108-8.7168-1.54448-1.67059-3.70357-3.136-2.65288-5.92155,1.09812-2.91115,3.71278-2.37207,5.95645-2.29574,4.63925.15783,9.30593.238,13.89788.83655,3.987.51968,5.72348-.85131,6.39861-4.76964,1.37813-7.9982,3.11992-15.93351,4.691-23.89885.505-2.56063.37267-5.58773,3.93028-6.05548,3.44388-.4528,4.3411,2.40323,5.658,4.66844a236.9229,236.9229,0,0,1,12.09741,25.06832c1.276,2.94286,2.99463,4.16692,6.29589,4.4334a161.727,161.727,0,0,0,19.37814.56122c1.95758-.07666,4.23038-.42317,5.29749,1.78514,1.21915,2.52312-.23951,4.48075-1.9741,6.154-4.29881,4.14682-8.55262,8.349-13.02129,12.3068-1.91384,1.69505-2.37461,2.93562-1.11056,5.3796,1.553,3.00261,3.98345,5.816,3.53624,9.59972-4.81926.29264-9.62573-1.40515-14.51452.3724-1.96.71263-3.0181-1.50569-3.81229-3.20106-1.10119-2.35067-2.58508-4.50579-5.4881-4.24-3.22517.29523-4.01857,3.03123-4.68422,5.664C367.72952,198.39711,367.549,201.33192,364.79764,202.99662Z"/><path fill="#f5c092" d="M128.89471,326.548q7.11884,13.39819,14.24014,26.79653a17.97364,17.97364,0,0,1-3.30794,10.185c-2.95762,4.28434-3.28072,9.2543-2.95227,14.30885.31092,4.78494.1011,9.449-5.07876,11.83315-4.26992,1.96534-11.18277.053-14.92769-4.10454-4.58934-5.09495-7.506-10.968-6.97153-17.98983.58066-7.62862-.33638-14.37872-5.52995-20.80026-5.09855-6.304-1.23912-14.2848,6.98038-16.1132a38.09045,38.09045,0,0,1,9.30646-1.28838A11.60848,11.60848,0,0,0,128.89471,326.548Z"/><path fill="#7286cb" d="M336.67206,177.974c10.73758,8.19642,10.74792,8.19933,7.19718,20.8366-.75482,2.6864-1.61514,5.34317-2.42644,8.01359-16.7329,2.79079-33.40544,4-49.87982-1.60439-8.24186-2.80377-8.88234-2.00688-12.35039,5.96248-4.877,11.207-9.93811,22.34512-15.04485,33.44774-1.611,3.50265-1.17264,5.379,1.15722,7.67369,5.35954,5.27881,11.8268,8.9242,18.28245,12.62635,10.65414,6.10984,22.14916,10.2721,33.51154,14.75241q-.03132,2.4829-.06275,4.96577c-16.03453-4.57522-31.15207-11.176-44.70522-20.96568a126.65831,126.65831,0,0,1-12.30247-10.75205c-3.149-2.96425-3.86938-6.76963-1.48513-10.3962,7.42285-11.29074,11.93241-23.9553,17.56186-36.09828,3.927-8.47067,6.37636-9.38659,15.088-6.55409a71.07657,71.07657,0,0,0,11.94054,2.94209c1.02463-3.09581-3.32075-4.61268-1.9903-7.63607,8.8212-2.196,17.84916-3.71473,25.65059-8.94688C330.41958,183.82293,333.92752,181.37788,336.67206,177.974Z"/><path fill="#f5c092" d="M158.98961 383.15743c6.05682 9.99736 12.03367 20.03829 16.74846 30.76451-1.91706 1.7368-2.04656 4.01516-2.02962 6.39156.04257 5.96992.12425 11.94318-.02426 17.90972-.11748 4.71958-1.5231 9.053-6.47192 10.70537-4.99877 1.669-9.353-.46625-12.79527-5.29636a32.69725 32.69725 0 0 1-5.18588-12.79006 31.05309 31.05309 0 0 0-6.38656-13.26616c-7.3986-9.39287-6.39436-15.79678 3.00677-23.129C150.39953 390.89969 155.43794 387.87968 158.98961 383.15743zM364.79764 202.99662c.969-2.961 2.33095-5.78131 2.66659-8.96083.33-3.126 2.16647-5.3481 5.33391-5.63879a6.00969 6.00969 0 0 1 6.73912 4.70041c.82127 3.86687 2.67686 4.07108 5.5452 2.70962 4.24761-2.01614 8.00469-.203 11.82707 1.30192q.41854.41981.83712.83917c1.08012 1.54085.87862 3.69472 2.4027 5.02322q.84165 1.91181 1.68327 3.82364c.49306 1.34108-.06509 2.91014.89984 4.14888a10.525 10.525 0 0 0-.49662 1.39372c-2.88655 13.82522-6.5948 16.9422-20.87985 17.64568a37.71276 37.71276 0 0 0-4.37338.71983c-2.84244-7.15059-5.7824-14.26344-8.472-21.46973A16.63283 16.63283 0 0 0 364.79764 202.99662z"/><path fill="#edcc36" d="M400.14935,202.97134c-2.21682-.99711-2.41586-2.959-2.40218-5.023C399.70351,199.0696,399.69387,201.13171,400.14935,202.97134Z"/><path fill="#ecc92d" d="M402.73246,210.94386c-1.79126-1.05881-1.54783-2.55922-.9-4.14812C403.23844,207.93809,402.93955,209.45093,402.73246,210.94386Z"/><path fill="#b3abab" d="M250.50393,211.90584c-7.2558.04143-14.44165.51678-21.35506-2.96974-9.98392-5.035-14.64546-13.43876-16.5779-23.855-1.32266-7.12931-2.26456-14.3215-4.88909-21.16869a34.36473,34.36473,0,0,0-5.37539-9.43615c-2.81151-3.47022-6.063-4.98443-10.89013-3.55446-8.53027,2.527-17.203,4.90594-26.28219,2.35369-2.42371-.68129-4.84293-1.43635-4.0389-4.41254.64469-2.38636,2.67625-2.49847,5.23417-2.10472a44.01824,44.01824,0,0,0,19.12117-1.256c7.08885-2.04188,14.551-3.22434,20.51691,2.76853,5.75441,5.78044,8.72932,13.19615,10.48572,21.04329,1.18508,5.29472,2.03294,10.668,2.93492,16.02244,2.56513,15.2273,16.42232,23.23535,30.56707,19.72912a11.85552,11.85552,0,0,1,2.47947-.09A11.86473,11.86473,0,0,1,250.50393,211.90584Z"/></svg>