<svg xmlns="http://www.w3.org/2000/svg" data-name="Layer 1" viewBox="0 0 512 512"><path fill="#fff" d="M503.967,286.37142a27.59162,27.59162,0,0,0-14.38751-13.98675,27.84355,27.84355,0,0,0-22.19418-18.27909c-1.03468-1.42326-2.20853-2.89079-3.55-4.44056a24.56843,24.56843,0,0,0-23.1281-8.44373c-4.54267-21.77534-13.38988-40.57765-26.76034-57.00878-13.28234-16.32359-25.24807-27.3093-38.79835-35.6211-6.21578-3.81252-12.5775-7.97655-19.29074-12.63037q.07387-.41477.14278-.85033c.685-1.716,1.39253-3.44834,2.129-5.25113,3.75784-9.19467,7.6431-18.70291,9.84394-29.54856a31.69209,31.69209,0,0,0-3.4018-22.13047c-10.2664-18.66947-29.48124-25.2309-51.39889-17.54352l-.68678.24218c-.08042.028-.164.05783-.24986.08765-11.33226-4.42248-23.61743-3.35165-34.95466,3.13026-1.18786.67954-1.63336.93437-3.74881-.05513l-.666-.31628c-4.17669-1.99165-13.95828-6.66082-24.59789-1.15035-7.06522,3.65709-15.433,4.3285-26.4662,4.877a22.26423,22.26423,0,0,0-6.56775,1.35819A34.81165,34.81165,0,0,0,194.87335,88.925a31.54212,31.54212,0,0,0,.73331,25.90051q7.35485,14.46568,14.67082,28.95124l3.39547,6.70963c-1.079,1.19282-2.32329,2.45071-3.66657,3.808-.87157.88106-1.74405,1.763-2.60659,2.66036-5.01527,5.21588-10.1426,10.223-15.57175,15.52476-5.43548,5.30806-10.99385,10.7363-16.45011,16.413q-.33615-.21958-.67683-.43375a47.36954,47.36954,0,0,0-51.87828,1.04734,47.24507,47.24507,0,0,0-73.69338,10.92607A20.28358,20.28358,0,0,0,30.8883,215.24306c-2.40869,8.7311-3.1045,22.30126,7.25859,37.36968q1.60083,2.32735,3.50527,4.61767H32.30839A26.86549,26.86549,0,0,0,5.4735,284.0653v14.34549a26.76113,26.76113,0,0,0,8.03754,19.134V401.9071a37.05576,37.05576,0,0,0,37.01364,37.01364H182.30127a37.08158,37.08158,0,0,0,35.064-25.14957,162.56192,162.56192,0,0,0,29.27475,1.838c5.22041-.09308,10.07076-.61358,14.76163-1.116a94.84555,94.84555,0,0,1,14.90531-.85575,296.29636,296.29636,0,0,0,39.167-.24489,25.25989,25.25989,0,0,0,10.03642,9.50281c1.81319.96962,3.50979,1.79195,5.12779,2.48505a27.84575,27.84575,0,0,0,22.74,17.59594,27.59241,27.59241,0,0,0,16.82286,10.9333,28.13209,28.13209,0,0,0,5.79874.60725,27.84575,27.84575,0,0,0,27.57769-24.62907l1.98714-17.11971q1.36089-.52728,2.68746-1.1639.54016-.24128,1.06993-.52051.30431-.15994.605-.33254c.56478-.31086,1.02023-.58738,1.34464-.78347l.13238-.08043c.432-.25392.85892-.51689,1.26331-.78527.78392-.5205,1.402-.99131,1.81589-1.30668.40619-.2973.807-.60184,1.21316-.93619.75635-.62352,1.36361-1.19372,1.78607-1.594.35558-.3208.70033-.647,1.00531-.95787a36.54085,36.54085,0,0,0,2.565-2.88537L430.153,390.025c8.59329-.45635,20.35434-2.95224,30.11379-12.85086,8.80159-8.92809,10.56145-21.23495,4.7853-30.98265a36.44,36.44,0,0,0,5.40249-11.6987c.18254-.69762.34136-1.39931.48187-2.1037a18.5906,18.5906,0,0,0,2.91733-3.19171l14.07565-4.961A27.82789,27.82789,0,0,0,503.967,286.37142Zm-407.53451-65.354.02349.05512v.0009Z"/><path fill="#d64142" d="M338.12962 146.10342c8.91262 6.38966 17.98167 12.52205 27.34271 18.26386 13.41514 8.22858 24.1538 19.27833 34.11964 31.52585 17.12542 21.04629 24.361 45.1232 25.91622 71.65241.63366 10.809.71646 21.60053.756 32.398.0375 10.23172 2.22782 19.85053 7.54335 28.52594 5.26989 8.60091 8.4015 18.34317 14.78956 26.38591 2.122 2.67167 1.55878 6.21409-1.51036 9.32674-7.0733 7.17377-16.00934 7.79879-24.89877 7.24264a82.7696 82.7696 0 0 0-38.84176 6.84177c-33.87988 14.71909-69.47444 18.96283-105.99279 16.89365-10.4869-.59419-20.66264 1.75948-31.04378 1.94435-12.9549.23066-25.73828-.63195-38.1954-4.42613-11.91189-3.628-23.02478-.79876-33.67911 4.43325-6.50518 3.19446-12.48064 7.4894-19.04287 10.53958-6.03112 2.80338-12.24137 2.372-17.35731-2.57953-4.65988-4.5101-6.85238-10.4231-4.31763-16.23433 2.807-6.43538 4.54852-13.2202 7.44053-19.569 7.56638-16.61026 9.3567-34.13022 9.85755-52.19035.63791-23.0019 2.13664-46.03414 8.281-68.43992 4.01429-14.63842 11.44271-27.02189 21.60984-38.48259 12.59219-14.19427 26.73206-26.74859 39.834-40.37364 3.70186-3.84965 7.62718-7.42586 10.631-11.87623 4.34511-1.3842 8.62644.01682 12.864.53424a90.28971 90.28971 0 0 0 23.46016.0051c9.01055-1.2448 10.93518.61914 9.99051 9.45953a27.35344 27.35344 0 0 0 .49456 10.44047c.97851 3.66329-2.55384 5.34281-3.63715 8.12685-1.61557 4.15193-1.787 8.10354 1.22019 11.623 3.24183 3.79415 7.49669 4.96693 12.29174 3.77409 4.25133-1.05756 6.55759-4.07906 7.43539-8.23468.98131-4.64575-1.38175-9.28273-5.88857-11.86982-2.13422-1.22519-4.71351-1.5885-6.55627-3.40124-3.432-6.12226-1.73229-12.11945 1.10336-17.66437 2.69917-5.27807 8.98134-4.95888 13.75084.2091a3.8042 3.8042 0 0 1-.16324 3.52323c-2.74041 6.61619-2.32588 9.59608 1.549 11.938 4.02007 2.42968 6.63714 1.50966 11.37326-4.00951 1.2623-1.24743 1.38226-2.53842.12-3.88445-1.594-3.60668-5.23593-5.1053-7.85232-7.66559-1.79093-3.03979-.96768-5.6277 2.32462-6.1939C316.46227 152.68771 327.09631 148.64122 338.12962 146.10342zM232.98234 147.65724q-10.436-20.61131-20.87887-41.21912c-3.493-6.87 1.32763-17.31192 9.3917-20.21207a4.296 4.296 0 0 1 1.20933-.28838c11.70239-.58246 23.29852-1.34959 34.07221-6.9274 2.7191-1.40777 6.06753.46442 8.91881 1.79721 7.03009 3.2861 13.86162 3.30464 20.76849-.64288 6.65589-3.8041 13.67223-4.69312 20.83949-1.16526 4.1725 2.05382 8.0041.49979 11.98892-.89691 13.39878-4.69624 23.2926-1.49723 29.06268 8.99544a13.2407 13.2407 0 0 1 1.48119 9.534c-2.40852 11.86974-7.58088 22.73966-11.92782 33.91083-2.13062 3.85314-6.275 4.621-9.81893 6.034-25.03023 9.9801-50.87345 16.12084-78.0071 14.88923C244.31137 151.204 237.97971 152.00949 232.98234 147.65724z"/><path fill="#3d3351" d="M232.98234,147.65724c25.40763,4.26964,50.20524,1.40152,74.74685-5.8877a256.82411,256.82411,0,0,0,30.17887-11.22485c-.294,5.18993-3.56256,10.424.22133,15.55839-9.58854,5.653-20.32795,7.71477-31.05145,9.61892-3.611.64122-4.59,1.88694-3.21027,5.14032a5.70484,5.70484,0,0,1-6.39624,1.90091c-1.53926-4.33909-4.77158-4.547-8.73665-4.039-4.47163.5729-3.917,4.01769-4.63506,6.84582-1.07778,4.24466-1.49217,8.49546-.166,12.7702a5.41,5.41,0,0,1-6.48843,2.18867c-3.55719-4.65807-2.17933-9.86867-1.1319-14.74806,1.05509-4.915-.31523-6.22354-5.13066-5.72657-13.36151,1.37893-26.70956,1.68361-39.81028-2.15066C233.26878,154.70336,233.259,151.20128,232.98234,147.65724Z"/><path fill="#fbb641" d="M277.44527 180.529a12.2331 12.2331 0 0 1 6.4885-2.18869c9.88882 1.94134 14.9557 7.78459 13.29569 15.333-1.39086 6.3246-5.64253 10.2707-11.43637 10.61458-5.41731.32152-11.58831-3.53416-13.46492-8.41294C270.324 190.66449 272.2499 184.8888 277.44527 180.529zM297.47143 162.76323c1.86379-1.53672 4.12773-1.727 6.39639-1.901 3.95635 1.16775 7.16171 3.11509 7.90611 7.61689a3.17931 3.17931 0 0 1 .04637 3.89163c-1.12944 4.29376-4.24746 6.84261-8.31973 7.00724-3.71963.15039-7.46211-1.61993-8.83249-5.51845C293.23316 169.77751 293.79108 165.76636 297.47143 162.76323z"/><path fill="#f87004" d="M311.8203,172.37077q-.024-1.94544-.04721-3.89127c1.22146.25358,2.35862.61364,2.17757,2.21628C313.8098,171.94268,312.78631,172.1364,311.8203,172.37077Z"/><path fill="#b8303c" d="M319.98768,98.84955c-7.93843-1.62069-15.08483,1.22-21.95267,6.27763-5.18306,3.81687-11.34247,5.36234-17.49184,1.69957-13.46111-8.01792-26.78177-2.95787-40.26807-.06594-6.20047,1.32957-12.75752,2.1457-18.33985-2.51771-3.547-2.96318-3.58576-6.047.16488-8.6555,3.25283-2.26223,6.97286-4.2266,11.06316-2.81829,5.84581,2.0128,11.10048.57571,16.06573-2.2397,5.19419-2.94523,9.86729-3.58978,15.82318-1.17634a27.56162,27.56162,0,0,0,24.57485-1.4607c4.69921-2.64022,9.50351-3.64991,14.7284-1.03,5.31691,2.666,10.80067,2.34084,16.19881-.08543a22.06267,22.06267,0,0,1,12.76755-1.66241c3.34816.55033,6.40261,2.02016,6.98118,6.01679.55425,3.82834-2.649,4.89721-5.0243,6.25C330.66211,100.01081,325.4966,98.116,319.98768,98.84955Z"/><path fill="#26a526" d="M438.69671,304.86212l7.58324,6.05451a18.233,18.233,0,0,1,2.87494,25.64711l-42.56227,53.30908a18.24845,18.24845,0,0,1-25.64711,2.87494l-7.58325-6.05451a18.24845,18.24845,0,0,1-2.87494-25.64711l42.56228-53.30908a18.23478,18.23478,0,0,1,25.64711-2.87494Z"/><path fill="#26a526" d="M451.43988,317.47394,481.779,306.78132a9.32114,9.32114,0,0,0,5.60791-5.46169h0a9.32114,9.32114,0,0,0-5.56136-12.104l-4.18106-1.49852a6.72637,6.72637,0,0,1-4.21377-4.53965l-1.11244-4.02395A9.32114,9.32114,0,0,0,463.912,272.334l-.63108-.05979a13.48205,13.48205,0,0,1-10.0076-6.04681,42.53707,42.53707,0,0,0-3.43347-4.45391c-2.99913-3.46533-6.508-2.76156-9.48112-.91006a15.095,15.095,0,0,0-6.9987,11.68585l-2.20037,28.73286.00007-.00229a18.17769,18.17769,0,0,1,7.537,3.5823l7.58324,6.05451a18.17733,18.17733,0,0,1,5.16215,6.55674"/><polygon fill="#1b8d25" points="458.845 318.399 458.845 318.399 458.843 318.399 458.845 318.399"/><polygon fill="#1b8d25" points="438.562 302.207 438.563 302.205 438.562 302.205 438.562 302.207"/><path fill="#1b8d25" d="M448.13061,308.14081l-7.58323-6.05448a18.15333,18.15333,0,0,0-9.15474-3.8464l-.2328,3.03989a18.17046,18.17046,0,0,1,7.53686,3.58254l7.58323,6.05447a18.17335,18.17335,0,0,1,5.16207,6.55646l2.58687-.91179A18.1535,18.1535,0,0,0,448.13061,308.14081Z"/><path fill="#fbb641" d="M411.61188 309.5378l1.43772-1.80074a18.17509 18.17509 0 0 1 6.4706-5.12157 37.32451 37.32451 0 0 1 2.26034 3.05566 13.48423 13.48423 0 0 0 10.00732 6.04762l.63112.0591a9.32287 9.32287 0 0 1 8.40687 6.81958l1.1127 4.02419a6.72294 6.72294 0 0 0 4.21358 4.53915l4.181 1.49964a9.38346 9.38346 0 0 1 2.21755 1.14779 18.19024 18.19024 0 0 1-3.39578 6.75552l-2.09377 2.62244a9.02964 9.02964 0 0 0-.74187-.66088 9.32 9.32 0 0 0-2.6732-1.48935l-4.181-1.49964a6.72294 6.72294 0 0 1-4.21358-4.53914l-1.1127-4.02419a9.32286 9.32286 0 0 0-8.40686-6.81958l-.63113-.0591a13.4842 13.4842 0 0 1-10.00731-6.04763 42.66262 42.66262 0 0 0-3.43314-4.4535zM405.798 384.44053l-2.38814-3.74518a6.723 6.723 0 0 0-5.35943-3.104l-4.17067-.19409a9.32285 9.32285 0 0 1-8.5117-6.68828l-.19735-.6024a13.48418 13.48418 0 0 0-8.11326-8.41993 42.66391 42.66391 0 0 1-5.10309-2.36188l-.06474-.035-1.40228 1.75635q-.14061.17612-.27592.3547l-.01432.01847a18.15736 18.15736 0 0 0-3.282 7.12736 37.24507 37.24507 0 0 0 3.45528 1.51551 13.48418 13.48418 0 0 1 8.11325 8.41994l.19735.60239a9.32283 9.32283 0 0 0 8.5117 6.68828l4.17067.1941a6.72294 6.72294 0 0 1 5.35943 3.104l2.38814 3.74518a9.38242 9.38242 0 0 0 1.59153 1.89083 18.18379 18.18379 0 0 0 5.89018-4.83406l2.05834-2.57806a9.03059 9.03059 0 0 1-.80874-.57715A9.31958 9.31958 0 0 1 405.798 384.44053z"/><path fill="#26a526" d="M368.04348,379.7872l-26.95257,8.32851a15.0974,15.0974,0,0,0-9.84684,9.413c-1.14605,3.30868-1.05616,6.88692,2.98727,9.044a42.41686,42.41686,0,0,0,5.1031,2.36188c4.61888,1.71953,6.53883,3.63235,8.11234,8.42107l.19828.60124a9.32287,9.32287,0,0,0,8.51169,6.6883l4.17067.19408a6.723,6.723,0,0,1,5.35942,3.104l2.38813,3.74519a9.32086,9.32086,0,0,0,17.11919-3.93472l3.63942-31.35275a18.158,18.158,0,0,1-7.88807-3.6532l-7.58325-6.05451A18.158,18.158,0,0,1,368.04348,379.7872Z"/><path fill="#1b8d25" d="M373.36229,386.69313a18.15486,18.15486,0,0,1-5.31879-6.90617l-2.58242.79838a18.15731,18.15731,0,0,0,6.05053,8.88381l7.58323,6.05448a18.14256,18.14256,0,0,0,9.39212,3.86312l.34661-2.98567a18.16133,18.16133,0,0,1-7.88805-3.65347Z"/><path fill="#f1f1f1" d="M229.27455 250.461a6.51653 6.51653 0 0 1-2.31617 1.18923 11.70992 11.70992 0 0 1-3.47283.45587 12.106 12.106 0 0 1-4.32654-.69938 4.17361 4.17361 0 0 1-2.43792-1.98064 33.79941 33.79941 0 0 1-1.55308-4.63092q-.88344-3.16845-1.73713-6.94709-.8537-3.77793-1.61537-7.67762-.76239-3.899-1.18782-6.88621a7.90759 7.90759 0 0 1 5.42375-2.13213 6.04391 6.04391 0 0 1 3.504.94431 4.43047 4.43047 0 0 1 1.67483 3.26048q.60948 4.63162 1.03633 7.64647.42472 3.01767.7008 4.93672.27395 1.91764.42614 2.92353.15291 1.0066.27466 1.61537h.24351q.18263-.97475.63992-2.83292.45657-1.85817 1.06606-4.23592.60948-2.37634 1.27984-5.14909.66894-2.77134 1.34071-5.51435a12.86475 12.86475 0 0 1 2.40678-1.03492 10.15126 10.15126 0 0 1 2.95609-.36668 9.033 9.033 0 0 1 3.65547.67107 3.27324 3.27324 0 0 1 1.94949 2.07124q.73264 2.68215 1.40159 5.21.66894 2.52924 1.219 4.6918.5479 2.164.974 3.83952.42685 1.67553.61019 2.65028h.30439q.67106-4.69108 1.311-9.74886.63921-5.05848 1.18782-10.29818a8.25453 8.25453 0 0 1 2.31475-.97545 10.0527 10.0527 0 0 1 2.43793-.30439 6.35056 6.35056 0 0 1 3.53371.91316 3.49543 3.49543 0 0 1 1.40159 3.16987 20.89991 20.89991 0 0 1-.30438 2.92494q-.3058 1.94949-.79141 4.386-.48843 2.43792-1.12835 5.11936-.63921 2.68214-1.27842 5.17882-.64134 2.49951-1.219 4.50916-.57975 2.01108-1.0066 3.10758a6.57651 6.57651 0 0 1-2.61914 1.18923 15.06912 15.06912 0 0 1-3.77864.45587q-5.11794 0-6.03251-2.55826-.36527-1.09791-.91316-2.77346-.55-1.67342-1.15809-3.68661-.60948-2.009-1.15808-4.17364-.54791-2.16185-.91316-4.17363-.429 2.13424-1.03633 4.41714-.60948 2.285-1.24869 4.44829-.64134 2.164-1.18923 3.96127Q229.57894 249.366 229.27455 250.461zM289.84181 251.31474a14.15735 14.15735 0 0 1-1.91834.36526 19.65654 19.65654 0 0 1-2.71258.18263 14.34575 14.34575 0 0 1-2.40678-.18263 4.10971 4.10971 0 0 1-1.798-.73053 3.52124 3.52124 0 0 1-1.12694-1.49362 6.442 6.442 0 0 1-.39641-2.46765V233.4607a4.27073 4.27073 0 0 0-1.24869-3.504 4.755 4.755 0 0 0-3.07785-1.00518 8.63809 8.63809 0 0 0-2.31475.30438 6.60533 6.60533 0 0 0-1.76686.732v21.32688a14.14252 14.14252 0 0 1-1.91976.36526 19.62069 19.62069 0 0 1-2.71116.18263 14.3217 14.3217 0 0 1-2.40678-.18263 4.0957 4.0957 0 0 1-1.798-.73053 3.52124 3.52124 0 0 1-1.12694-1.49362 6.442 6.442 0 0 1-.39641-2.46765V211.6468c.446-.08211 1.10712-.19254 1.98064-.33553a16.53891 16.53891 0 0 1 2.65028-.21378 14.34575 14.34575 0 0 1 2.40678.18263 4.11109 4.11109 0 0 1 1.798.73194 3.528 3.528 0 0 1 1.12694 1.49221 6.48443 6.48443 0 0 1 .39641 2.46765v5.97164a21.76623 21.76623 0 0 1 2.40678-.7008 14.99527 14.99527 0 0 1 3.56486-.395q6.03323 0 9.41333 3.01555 3.38294 3.01767 3.38223 8.9886zM308.42638 220.84777a25.067 25.067 0 0 1 6.00279.66965 13.43675 13.43675 0 0 1 4.63092 2.04151 9.21245 9.21245 0 0 1 2.95467 3.47284 11.11863 11.11863 0 0 1 1.03633 4.96646v13.64925a3.775 3.775 0 0 1-.88343 2.58941 8.76977 8.76977 0 0 1-2.10239 1.73713q-3.96056 2.37634-11.15187 2.377a25.46136 25.46136 0 0 1-5.81874-.61019 13.77548 13.77548 0 0 1-4.44829-1.82774 8.38359 8.38359 0 0 1-2.86407-3.10757 9.20394 9.20394 0 0 1-1.00518-4.38742 8.24994 8.24994 0 0 1 2.4988-6.45865q2.4974-2.25316 7.7385-2.80319l7.982-.8537v-.42614a2.61276 2.61276 0 0 0-1.55307-2.52853 10.4571 10.4571 0 0 0-4.47944-.76168 20.76668 20.76668 0 0 0-4.50917.487 24.06954 24.06954 0 0 0-3.96127 1.219 4.204 4.204 0 0 1-1.3393-1.67624 5.29646 5.29646 0 0 1-.54931-2.3459 3.908 3.908 0 0 1 .76167-2.52854 5.91111 5.91111 0 0 1 2.34732-1.61395 18.28285 18.28285 0 0 1 4.17363-.97546A36.34639 36.34639 0 0 1 308.42638 220.84777zm.487 23.94743a13.58069 13.58069 0 0 0 2.285-.21378 5.56452 5.56452 0 0 0 1.85888-.579V239.128l-4.38741.36526a6.76169 6.76169 0 0 0-2.80319.73195 1.96838 1.96838 0 0 0-1.09579 1.82773 2.42494 2.42494 0 0 0 .94431 1.98064A5.16713 5.16713 0 0 0 308.9134 244.7952zM339.74705 241.19919a2.50877 2.50877 0 0 0 1.00518 2.25529 5.07719 5.07719 0 0 0 2.83292.66966 12.17047 12.17047 0 0 0 1.88861-.15149 10.63148 10.63148 0 0 0 1.7074-.39641 7.51961 7.51961 0 0 1 .9443 1.4922 4.54615 4.54615 0 0 1 .395 1.98064 4.70987 4.70987 0 0 1-1.73571 3.77864q-1.73713 1.461-6.12454 1.46247-5.36217 0-8.25667-2.43792-2.89449-2.43581-2.89379-7.92113v-26.081q.66894-.18264 1.91976-.395a15.65331 15.65331 0 0 1 2.65028-.21378 7.80412 7.80412 0 0 1 4.17364.94431q1.49291.945 1.49362 3.991v3.9004h7.982a10.50569 10.50569 0 0 1 .7008 1.67483 7.0031 7.0031 0 0 1 .33553 2.22415 4.2329 4.2329 0 0 1-.9443 3.07784 3.42041 3.42041 0 0 1-2.52854.94431h-5.54549zM235.31835 287.11825a14.50239 14.50239 0 0 1 .97118-5.55863 10.61486 10.61486 0 0 1 2.69471-3.9084 11.06559 11.06559 0 0 1 4.0291-2.30557 15.93606 15.93606 0 0 1 4.9766-.75235 10.47287 10.47287 0 0 1 1.89273.16919 7.62494 7.62494 0 0 1 1.50471.41284v-7.86419a13.08521 13.08521 0 0 1 1.55433-.31583 13.9163 13.9163 0 0 1 2.18375-.17033 11.44364 11.44364 0 0 1 1.91867.14551 3.27079 3.27079 0 0 1 1.43139.58316 2.62957 2.62957 0 0 1 .87418 1.18888 5.549 5.549 0 0 1 .291 1.966v23.01279a4.14266 4.14266 0 0 1-2.13524 3.64108 14.83722 14.83722 0 0 1-3.64108 1.62653 18.93792 18.93792 0 0 1-10.80254-.17032 11.49409 11.49409 0 0 1-4.22424-2.52439 10.86367 10.86367 0 0 1-2.6214-3.95691A14.286 14.286 0 0 1 235.31835 287.11825zm13.78827-6.06847a5.25133 5.25133 0 0 0-4.03022 1.50471 6.47181 6.47181 0 0 0-1.40771 4.56376 6.80661 6.80661 0 0 0 1.3107 4.53894 4.71353 4.71353 0 0 0 3.78659 1.52952 4.39025 4.39025 0 0 0 1.578-.26732 3.55867 3.55867 0 0 0 1.093-.60685v-10.6796A4.44786 4.44786 0 0 0 249.10662 281.04978zM289.207 287.11825a14.61837 14.61837 0 0 1-.92267 5.36461 10.86983 10.86983 0 0 1-2.59771 3.95691 11.03749 11.03749 0 0 1-4.00429 2.42739 15.48085 15.48085 0 0 1-5.19542.82567 14.70738 14.70738 0 0 1-5.19429-.87417 11.43332 11.43332 0 0 1-4.00541-2.50071 11.13054 11.13054 0 0 1-2.59658-3.95578 14.13071 14.13071 0 0 1-.92268-5.24392 13.98241 13.98241 0 0 1 .92268-5.19429 11.13518 11.13518 0 0 1 2.59658-3.95691 11.44963 11.44963 0 0 1 4.00541-2.50071 14.70756 14.70756 0 0 1 5.19429-.873 14.34471 14.34471 0 0 1 5.19542.89786 11.72036 11.72036 0 0 1 4.00429 2.52439 11.16316 11.16316 0 0 1 2.59771 3.95691A13.86877 13.86877 0 0 1 289.207 287.11825zm-16.9917 0a7.67244 7.67244 0 0 0 1.14037 4.53894 3.701 3.701 0 0 0 3.18087 1.578 3.563 3.563 0 0 0 3.13124-1.60172 7.96243 7.96243 0 0 0 1.09187-4.51525 7.70381 7.70381 0 0 0-1.11669-4.49044 3.94393 3.94393 0 0 0-6.311 0A7.6953 7.6953 0 0 0 272.2153 287.11825zM309.07019 292.83137q-.52855-1.19931-1.12738-2.68743-.60216-1.487-1.24782-3.4078-.649-1.91856-1.34372-4.39134-.6975-2.47221-1.46414-5.68821a6.22841 6.22841 0 0 1 4.272-1.67937 5.13434 5.13434 0 0 1 2.78333.69583 4.26983 4.26983 0 0 1 1.63142 2.61607l3.7914 13.19853h.19292q.5754-1.63086 1.12738-3.55165.55032-1.91856 1.08055-3.95978.52689-2.039.98353-4.0791.455-2.04066.79174-4.00773a7.99842 7.99842 0 0 1 3.7914-.91217 5.002 5.002 0 0 1 2.78333.71925 2.75319 2.75319 0 0 1 1.104 2.49675 15.73767 15.73767 0 0 1-.33565 2.99967q-.33621 1.70279-.88764 3.623-.552 1.92024-1.29576 3.95979-.74434 2.04066-1.56 4.00773-.81627 1.96874-1.67937 3.72-.86476 1.75129-1.68048 3.14352a33.62881 33.62881 0 0 1-2.49563 3.83935 13.66773 13.66773 0 0 1-2.20794 2.32725 6.29694 6.29694 0 0 1-2.112 1.15192 7.72786 7.72786 0 0 1-2.20682.31223 4.51065 4.51065 0 0 1-3.26395-1.19987 5.043 5.043 0 0 1-1.48868-3.119q1.53552-1.201 3.07215-2.664a32.55929 32.55929 0 0 0 2.78445-2.99966 4.52307 4.52307 0 0 1-1.753-1.1285A11.11907 11.11907 0 0 1 309.07019 292.83137zM355.77021 287.11974a14.45179 14.45179 0 0 1-.91217 5.3035 10.7435 10.7435 0 0 1-2.567 3.91183 10.92569 10.92569 0 0 1-3.95978 2.39973 15.29783 15.29783 0 0 1-5.13512.81627 14.5417 14.5417 0 0 1-5.13623-.86422 11.30309 11.30309 0 0 1-3.95979-2.47221 11.0214 11.0214 0 0 1-2.56811-3.91072 13.99247 13.99247 0 0 1-.911-5.18418 13.84567 13.84567 0 0 1 .911-5.13512 11.026 11.026 0 0 1 2.56811-3.91183 11.31927 11.31927 0 0 1 3.95979-2.47222 14.54188 14.54188 0 0 1 5.13623-.8631 14.17533 14.17533 0 0 1 5.13512.88763 11.60253 11.60253 0 0 1 3.95978 2.49564 11.03321 11.03321 0 0 1 2.567 3.91183A13.71073 13.71073 0 0 1 355.77021 287.11974zm-16.79814 0a7.585 7.585 0 0 0 1.12739 4.48723 3.65821 3.65821 0 0 0 3.14351 1.56 3.51856 3.51856 0 0 0 3.09557-1.58347 7.86236 7.86236 0 0 0 1.08055-4.46381 7.61607 7.61607 0 0 0-1.104-4.43929 3.899 3.899 0 0 0-6.23908 0A7.6077 7.6077 0 0 0 338.97207 287.11974zM359.75341 275.79349a10.8585 10.8585 0 0 1 1.5121-.28882 15.44178 15.44178 0 0 1 2.13545-.14385 11.299 11.299 0 0 1 1.8957.14385 3.2326 3.2326 0 0 1 1.4162.57652 2.77889 2.77889 0 0 1 .88763 1.17533 5.08583 5.08583 0 0 1 .31223 1.94365v10.3193a3.56456 3.56456 0 0 0 .96012 2.80787 4.10442 4.10442 0 0 0 2.78333.83968 6.93524 6.93524 0 0 0 1.7998-.1918 6.11674 6.11674 0 0 0 1.07944-.3836V275.79349a10.92764 10.92764 0 0 1 1.5121-.28882 15.45808 15.45808 0 0 1 2.13656-.14385 11.30843 11.30843 0 0 1 1.8957.14385 3.23813 3.23813 0 0 1 1.4162.57652 2.77891 2.77891 0 0 1 .88764 1.17533 5.10759 5.10759 0 0 1 .31223 1.94365v14.59132a3.92178 3.92178 0 0 1-2.01613 3.5996 13.234 13.234 0 0 1-4.00774 1.608 21.989 21.989 0 0 1-5.06375.552 18.72 18.72 0 0 1-4.776-.57652 10.65991 10.65991 0 0 1-3.76686-1.77526 7.933 7.933 0 0 1-2.44769-3.09557 10.99863 10.99863 0 0 1-.86421-4.58425zM246.25716 347.012a5.42244 5.42244 0 0 1-1.92835.99071 9.76061 9.76061 0 0 1-2.89311.37977 10.085 10.085 0 0 1-3.6043-.58263 3.47692 3.47692 0 0 1-2.03095-1.65 28.15838 28.15838 0 0 1-1.29382-3.85788q-.73773-2.63953-1.44715-5.7874-.71118-3.14727-1.34453-6.396-.63689-3.24811-.99071-5.73669a6.58767 6.58767 0 0 1 4.51834-1.7762 5.035 5.035 0 0 1 2.91906.78667 3.69085 3.69085 0 0 1 1.39525 2.7162q.50773 3.85846.86334 6.37.35382 2.51392.58381 4.11263.22821 1.59752.355 2.43549.12561.83858.22881 1.34572h.20286q.15215-.812.53309-2.36.38037-1.548.88811-3.52881.50774-1.97965 1.06619-4.28954.559-2.30871 1.11691-4.59383a10.71708 10.71708 0 0 1 2.005-.86216 8.44823 8.44823 0 0 1 2.46144-.30546 7.53093 7.53093 0 0 1 3.04643.559 2.72678 2.72678 0 0 1 1.62406 1.72549q.60858 2.2344 1.16762 4.34025.55905 2.107 1.01548 3.90859.45643 1.80274.81262 3.19858.35382 1.39584.50715 2.20787h.25357q.55905-3.908 1.091-8.12147.53427-4.21405.99071-8.57908a6.869 6.869 0 0 1 1.92952-.81262 8.35817 8.35817 0 0 1 2.02978-.25357 5.29723 5.29723 0 0 1 2.945.76072 2.914 2.914 0 0 1 1.16645 2.64072 17.22976 17.22976 0 0 1-.25358 2.43667q-.25474 1.62406-.66047 3.65384-.4069 2.031-.93882 4.26477-.5325 2.2344-1.06619 4.31431-.5325 2.08226-1.0143 3.75644-.483 1.67537-.83739 2.58882a5.49265 5.49265 0 0 1-2.1831.99071 12.55344 12.55344 0 0 1-3.14786.37977q-4.2636 0-5.0255-2.1312-.30429-.91464-.76072-2.31048-.45643-1.39407-.96476-3.0712-.50775-1.67359-.96477-3.47692-.45643-1.801-.7619-3.47693-.35382 1.778-.86215 3.67979-.50775 1.90357-1.04143 3.70572-.5325 1.80274-.98953 3.3Q246.51192 346.09973 246.25716 347.012zM282.50183 322.34213a20.87213 20.87213 0 0 1 4.99955.55787 11.18959 11.18959 0 0 1 3.85905 1.70072 7.67449 7.67449 0 0 1 2.46144 2.89311 9.27857 9.27857 0 0 1 .86334 4.13739V343.002a3.1506 3.1506 0 0 1-.736 2.15716 7.32913 7.32913 0 0 1-1.75143 1.44714q-3.3012 1.97965-9.29027 1.98024a21.20388 21.20388 0 0 1-4.84741-.50832 11.47611 11.47611 0 0 1-3.70573-1.52263 6.98427 6.98427 0 0 1-2.386-2.58882 7.6538 7.6538 0 0 1-.83738-3.655 6.87614 6.87614 0 0 1 2.08049-5.3805q2.08225-1.877 6.44787-2.33524l6.64956-.71119v-.355a2.17663 2.17663 0 0 0-1.29382-2.10644 8.7116 8.7116 0 0 0-3.73168-.63452 17.29944 17.29944 0 0 0-3.75644.40572 20.0496 20.0496 0 0 0-3.3 1.01548 3.5142 3.5142 0 0 1-1.11691-1.39643 4.41109 4.41109 0 0 1-.45644-1.9543 3.25559 3.25559 0 0 1 .63453-2.10644 4.928 4.928 0 0 1 1.9543-1.34453 15.24531 15.24531 0 0 1 3.47692-.81262A30.29607 30.29607 0 0 1 282.50183 322.34213zm.40572 19.94984a11.31373 11.31373 0 0 0 1.90358-.17809 4.63569 4.63569 0 0 0 1.54857-.48238v-4.06073l-3.655.30429a5.6327 5.6327 0 0 0-2.33525.60976 1.64085 1.64085 0 0 0-.914 1.52262 2.0179 2.0179 0 0 0 .78785 1.65A4.30227 4.30227 0 0 0 282.90755 342.292zM315.59863 332.13837a2.83026 2.83026 0 0 0-.8881-2.3093 3.67149 3.67149 0 0 0-2.41073-.736 8.07156 8.07156 0 0 0-2.00619.25357 5.05959 5.05959 0 0 0-1.69954.76191v17.61459a11.85779 11.85779 0 0 1-1.59929.30429 16.37442 16.37442 0 0 1-2.25976.15214 11.95059 11.95059 0 0 1-2.005-.15214 3.413 3.413 0 0 1-1.49668-.60858 2.93566 2.93566 0 0 1-.94-1.24428 5.38947 5.38947 0 0 1-.33024-2.05573V328.89026a3.91133 3.91133 0 0 1 .585-2.23382 6.154 6.154 0 0 1 1.59811-1.57334 14.5408 14.5408 0 0 1 4.34025-1.98024 20.77537 20.77537 0 0 1 5.81335-.76073q5.7355 0 8.83148 2.51216a8.49494 8.49494 0 0 1 3.09715 6.97979v15.88911a11.78185 11.78185 0 0 1-1.59929.30429 16.34478 16.34478 0 0 1-2.25859.15214 11.9406 11.9406 0 0 1-2.005-.15214 3.418 3.418 0 0 1-1.49786-.60858 2.9334 2.9334 0 0 1-.93881-1.24428 5.36684 5.36684 0 0 1-.33024-2.05573zM338.188 339.29626a2.08732 2.08732 0 0 0 .83738 1.87881 4.22975 4.22975 0 0 0 2.36.55786 10.16437 10.16437 0 0 0 1.57452-.1262 8.90057 8.90057 0 0 0 1.4212-.33023 6.26409 6.26409 0 0 1 .78667 1.2431 3.787 3.787 0 0 1 .33023 1.65 3.92467 3.92467 0 0 1-1.44714 3.14786q-1.44714 1.21716-5.10216 1.21834-4.467 0-6.87836-2.031-2.41131-2.02918-2.41073-6.59884V318.17879q.55728-.15214 1.59929-.32906a13.0203 13.0203 0 0 1 2.20787-.17809 6.5014 6.5014 0 0 1 3.47692.78667q1.2437.78726 1.24429 3.32478v3.24929h6.64955a8.75271 8.75271 0 0 1 .58381 1.39525 5.86753 5.86753 0 0 1 .27952 1.85287 3.52629 3.52629 0 0 1-.78667 2.56405 2.84852 2.84852 0 0 1-2.10762.78667H338.188zM354.49511 337.63335a4.39141 4.39141 0 0 1-1.55747-1.58236 4.90577 4.90577 0 0 1-.73066-2.7021 2.95988 2.95988 0 0 1 .803-2.26325 5.2699 5.2699 0 0 1 2.36165-1.14463l3.797-.9252q2.43289-.63114 2.434-2.33677a1.98363 1.98363 0 0 0-.90145-1.60611 5.28 5.28 0 0 0-3.09118-.68089 13.33668 13.33668 0 0 0-3.74833.5101 11.09554 11.09554 0 0 0-2.82313 1.19327 6.05762 6.05762 0 0 1-1.41156-1.53371 3.88491 3.88491 0 0 1-.58476-2.166 3.53067 3.53067 0 0 1 .73067-2.21462 5.384 5.384 0 0 1 2.02007-1.5586 11.617 11.617 0 0 1 3.06743-.90032 24.24664 24.24664 0 0 1 3.918-.29181q5.74466 0 8.68993 2.55506a8.43931 8.43931 0 0 1 2.94528 6.69361q0 7.79073-11.00182 9.98046zm-1.60724 6.37691a4.35429 4.35429 0 1 1 1.24191 3.28573A4.54389 4.54389 0 0 1 352.88787 344.01026z"/><rect width="184.866" height="31.002" x="23.98" y="275.737" fill="#26a526" rx="9"/><path fill="#7a1f65" d="M117.00738,282.792l-2.41869-1.728c-1.83224-1.3097-44.94147-32.238-50.82954-46.26912a28.705,28.705,0,1,1,52.93651-22.21788v-.00112c5.87012,13.984.82529,65.08939.60775,67.258ZM90.1932,198.42485a25.26085,25.26085,0,0,0-23.25846,35.03683c4.75328,11.3276,37.88723,36.18395,47.22,43.02738,1.00134-11.31078,4.1231-51.24555-.63467-62.57875v-.00112A25.304,25.304,0,0,0,90.1932,198.42485Z"/><path fill="#7a1f65" d="M113.59968,282.34909l.2994-3.08476c.19511-2.01165.87463-9.29352,1.42856-18.54443,1.80982-17.39731,4.99886-39.69817,9.945-47.56536a28.73424,28.73424,0,0,1,39.57819-9.02777h0a28.738,28.738,0,0,1,9.02776,39.57931c-7.80776,12.42313-52.43751,34.76211-57.5014,37.26827Zm36.01687-79.1732a25.26957,25.26957,0,0,0-21.42846,11.81089c-3.58375,5.70192-6.932,22.04295-9.42808,46.01457-.3891,6.5104-.84323,12.07665-1.14711,15.50453,18.38632-9.27109,47.70777-25.657,53.35027-34.632a25.29316,25.29316,0,0,0-7.94457-34.83163h0A25.1235,25.1235,0,0,0,149.61655,203.17589Z"/><path fill="#7a1f65" d="M115.839,280.9037a1.7236,1.7236,0,0,1-.5517-.09082,216.96883,216.96883,0,0,1-36.5024-16.94655c-23.64644-14.14884-34.04-29.2609-30.05592-43.70241a1.72255,1.72255,0,1,1,3.32136.915c-8.65325,31.369,63.61037,56.2231,64.34035,56.47091a1.72232,1.72232,0,0,1-.55169,3.35387Z"/><path fill="#26a526" d="M200.80828,306.739v95.16834a18.50683,18.50683,0,0,1-18.50682,18.50682H50.52471a18.50682,18.50682,0,0,1-18.50682-18.50682V306.739Z"/><rect width="29.854" height="113.675" x="101.486" y="306.739" fill="#7a1f65"/><rect width="45.929" height="31.002" x="93.448" y="275.737" fill="#7a1f65"/><path fill="#7a1f65" d="M149.0891,319.84635h0a21.78639,21.78639,0,0,0,8.6604,8.6604h0a21.78639,21.78639,0,0,0-8.6604,8.6604h0a21.78639,21.78639,0,0,0-8.6604-8.6604h0a21.78639,21.78639,0,0,0,8.6604-8.6604Z"/><path fill="none" d="M149.0891,319.84635h0a21.78639,21.78639,0,0,0,8.6604,8.6604h0a21.78639,21.78639,0,0,0-8.6604,8.6604h0a21.78639,21.78639,0,0,0-8.6604-8.6604h0a21.78639,21.78639,0,0,0,8.6604-8.6604Z"/><path fill="#7a1f65" d="M173.202,283.10286h0a21.78639,21.78639,0,0,0,8.6604,8.6604h0a21.78646,21.78646,0,0,0-8.6604,8.6604h0a21.78648,21.78648,0,0,0-8.66041-8.6604h0a21.78642,21.78642,0,0,0,8.66041-8.6604Z"/><path fill="none" d="M173.202,283.10286h0a21.78639,21.78639,0,0,0,8.6604,8.6604h0a21.78646,21.78646,0,0,0-8.6604,8.6604h0a21.78648,21.78648,0,0,0-8.66041-8.6604h0a21.78642,21.78642,0,0,0,8.66041-8.6604Z"/><path fill="#7a1f65" d="M59.52685,283.10286h0a21.78639,21.78639,0,0,0,8.6604,8.6604h0a21.78646,21.78646,0,0,0-8.6604,8.6604h0a21.78646,21.78646,0,0,0-8.6604-8.6604h0a21.78639,21.78639,0,0,0,8.6604-8.6604Z"/><path fill="none" d="M59.52685,283.10286h0a21.78639,21.78639,0,0,0,8.6604,8.6604h0a21.78646,21.78646,0,0,0-8.6604,8.6604h0a21.78646,21.78646,0,0,0-8.6604-8.6604h0a21.78639,21.78639,0,0,0,8.6604-8.6604Z"/><path fill="#7a1f65" d="M185.83258,343.95926h0a21.78639,21.78639,0,0,0,8.6604,8.6604h0a21.78646,21.78646,0,0,0-8.6604,8.6604h0a21.78646,21.78646,0,0,0-8.6604-8.6604h0a21.78639,21.78639,0,0,0,8.6604-8.6604Z"/><path fill="none" d="M185.83258,343.95926h0a21.78639,21.78639,0,0,0,8.6604,8.6604h0a21.78646,21.78646,0,0,0-8.6604,8.6604h0a21.78646,21.78646,0,0,0-8.6604-8.6604h0a21.78639,21.78639,0,0,0,8.6604-8.6604Z"/><path fill="#7a1f65" d="M149.0891,365.77571h0a21.78639,21.78639,0,0,0,8.6604,8.6604h0a21.78639,21.78639,0,0,0-8.6604,8.6604h0a21.78639,21.78639,0,0,0-8.6604-8.6604h0a21.78639,21.78639,0,0,0,8.6604-8.6604Z"/><path fill="none" d="M149.0891,365.77571h0a21.78639,21.78639,0,0,0,8.6604,8.6604h0a21.78639,21.78639,0,0,0-8.6604,8.6604h0a21.78639,21.78639,0,0,0-8.6604-8.6604h0a21.78639,21.78639,0,0,0,8.6604-8.6604Z"/><path fill="#7a1f65" d="M186.98082,392.18509h0a21.78639,21.78639,0,0,0,8.6604,8.6604h0a21.78639,21.78639,0,0,0-8.6604,8.6604h0a21.78639,21.78639,0,0,0-8.6604-8.6604h0a21.78639,21.78639,0,0,0,8.6604-8.6604Z"/><path fill="none" d="M186.98082,392.18509h0a21.78639,21.78639,0,0,0,8.6604,8.6604h0a21.78639,21.78639,0,0,0-8.6604,8.6604h0a21.78639,21.78639,0,0,0-8.6604-8.6604h0a21.78639,21.78639,0,0,0,8.6604-8.6604Z"/><path fill="#7a1f65" d="M48.04451,318.69811h0a21.78639,21.78639,0,0,0,8.6604,8.6604h0a21.78639,21.78639,0,0,0-8.6604,8.6604h0a21.78639,21.78639,0,0,0-8.6604-8.6604h0a21.78639,21.78639,0,0,0,8.6604-8.6604Z"/><path fill="none" d="M48.04451,318.69811h0a21.78639,21.78639,0,0,0,8.6604,8.6604h0a21.78639,21.78639,0,0,0-8.6604,8.6604h0a21.78639,21.78639,0,0,0-8.6604-8.6604h0a21.78639,21.78639,0,0,0,8.6604-8.6604Z"/><path fill="#7a1f65" d="M84.788,342.811h0a21.78639,21.78639,0,0,0,8.6604,8.6604h0a21.78639,21.78639,0,0,0-8.6604,8.6604h0a21.78639,21.78639,0,0,0-8.6604-8.6604h0a21.78639,21.78639,0,0,0,8.6604-8.6604Z"/><path fill="none" d="M84.788,342.811h0a21.78639,21.78639,0,0,0,8.6604,8.6604h0a21.78639,21.78639,0,0,0-8.6604,8.6604h0a21.78639,21.78639,0,0,0-8.6604-8.6604h0a21.78639,21.78639,0,0,0,8.6604-8.6604Z"/><path fill="#7a1f65" d="M48.04451,364.62747h0a21.78639,21.78639,0,0,0,8.6604,8.6604h0a21.78639,21.78639,0,0,0-8.6604,8.6604h0a21.78639,21.78639,0,0,0-8.6604-8.6604h0a21.78639,21.78639,0,0,0,8.6604-8.6604Z"/><path fill="none" d="M48.04451,364.62747h0a21.78639,21.78639,0,0,0,8.6604,8.6604h0a21.78639,21.78639,0,0,0-8.6604,8.6604h0a21.78639,21.78639,0,0,0-8.6604-8.6604h0a21.78639,21.78639,0,0,0,8.6604-8.6604Z"/><path fill="#7a1f65" d="M85.93623,391.03685h0a21.78639,21.78639,0,0,0,8.6604,8.6604h0a21.78639,21.78639,0,0,0-8.6604,8.6604h0a21.78639,21.78639,0,0,0-8.6604-8.6604h0a21.78639,21.78639,0,0,0,8.6604-8.6604Z"/><path fill="none" d="M85.93623,391.03685h0a21.78639,21.78639,0,0,0,8.6604,8.6604h0a21.78639,21.78639,0,0,0-8.6604,8.6604h0a21.78639,21.78639,0,0,0-8.6604-8.6604h0a21.78639,21.78639,0,0,0,8.6604-8.6604Z"/><path fill="#7a1f65" d="M81.34822,294.20819a8.4251,8.4251,0,0,1-6.05066-2.87395,8.10577,8.10577,0,0,1-1.63377-7.78085c1.51379-4.2913,7.64181-8.70707,13.65771-9.83961a33.71634,33.71634,0,0,1,13.34485-.499c2.98048.54272,7.32448,1.69656,14.58056,5.82527h.19959c7.25608-4.12871,11.60008-5.28255,14.58056-5.82527a33.80938,33.80938,0,0,1,13.35046.50011c6.01029,1.13141,12.13831,5.54718,13.65434,9.84184a8.10747,8.10747,0,0,1-1.63489,7.77637c-1.94549,2.23143-5.64137,3.79119-8.66446,2.26956a5.53507,5.53507,0,0,1-3.20922-5.05941c.09419-2.03408,1.46669-4.36643,3.82371-4.65573a4.45716,4.45716,0,0,1,4.78917,3.68242,1.14837,1.14837,0,0,1-2.25162.453,2.21615,2.21615,0,0,0-2.25834-1.85691c-1.16169.14353-1.76721,1.57433-1.80982,2.49718a3.27631,3.27631,0,0,0,1.93877,2.884c1.89728.95088,4.5436-.15362,5.90937-1.72235a5.83007,5.83007,0,0,0,1.20318-5.50008c-1.25364-3.549-6.71112-7.37382-11.91966-8.355a31.50428,31.50428,0,0,0-12.50835-.49675c-2.83694.51693-7.00378,1.63264-14.11744,5.71089a1.14493,1.14493,0,0,1-.57076.1525h-.80959a1.14493,1.14493,0,0,1-.57076-.1525c-7.11366-4.07825-11.2805-5.194-14.11744-5.71089a31.46343,31.46343,0,0,0-12.50275.49562c-5.21414.98228-10.67162,4.80711-11.923,8.35273a5.828,5.828,0,0,0,1.202,5.50457c1.36577,1.56873,4.01209,2.66987,5.90152,1.7246a3.27969,3.27969,0,0,0,1.94774-2.87507c-.04485-.93406-.65037-2.366-1.81318-2.50952a2.19728,2.19728,0,0,0-2.25722,1.85691,1.14837,1.14837,0,1,1-2.25162-.453,4.453,4.453,0,0,1,4.78805-3.68242c2.3559.2893,3.72952,2.62053,3.82707,4.66807a5.53857,5.53857,0,0,1-3.21819,5.05043A5.76037,5.76037,0,0,1,81.34822,294.20819Z"/><rect width="168.79" height="11.482" x="32.018" y="306.739" fill="#1b8d25"/><rect width="45.929" height="11.482" x="93.448" y="306.739" fill="#66135b"/><path fill="#7a1f65" d="M73.384,231.833a26.97969,26.97969,0,0,1,13.55791-34.92863,26.98081,26.98081,0,0,0-21.59554,37.2251c5.16065,12.29538,41.2194,40.13346,48.77022,45.626a1.028,1.028,0,0,0,1.474-.09307s.2994-2.9872.67784-7.71974C103.3822,262.26228,77.67532,242.05606,73.384,231.833Z"/><path fill="#7a1f65" d="M122.7878,267.713c1.71786-16.49633,4.85645-39.07416,9.68374-46.75353a26.98568,26.98568,0,0,1,40.41189-6.123,26.981,26.981,0,0,0-46.15306-.76643c-4.82729,7.67938-7.96587,30.2572-9.68374,46.75354a188.6078,188.6078,0,0,1-2.58128,19.75433c.65989-.32687,4.25093-2.69061,7.75786-4.506C122.41047,273.577,122.60615,270.74957,122.7878,267.713Z"/></svg>