<svg xmlns="http://www.w3.org/2000/svg" data-name="Layer 1" viewBox="0 0 512 512"><path fill="none" stroke="#fcfafa" stroke-linecap="round" stroke-linejoin="round" stroke-width="40" d="M392.28833,337.936c-13.17944-23.46583-26.616-44.57374-21.11889-73.90333.49707-2.65283-.39978-5.50781-.64917-8.26855,12.94348-16.37061,12.62463-34.64111,9.90893-53.25488-8.8999,2.69482-17.02527,2.71-24.427-3.70362a144.12672,144.12672,0,0,0-32.6156-21.04345l11.81445-13.88086a19.67517,19.67517,0,0,0,4.27649-16.86377l28.97205-9.19971a10.07329,10.07329,0,0,0,.64575-18.97217L364.63,117.08545a7.2699,7.2699,0,0,1-4.39758-5.04639l-1.06519-4.38427a10.07286,10.07286,0,0,0-8.84888-7.65088l-.67968-.08594a14.5719,14.5719,0,0,1-10.60474-6.87109,45.9668,45.9668,0,0,0-3.55762-4.92725c-3.12207-3.84473-6.936-3.20361-10.2102-1.3042a16.31232,16.31232,0,0,0-7.95581,12.38525l-2.76282,25.52881A19.65341,19.65341,0,0,0,297.17908,131.52L272.8042,160.15869q-.312-.08423-.62427-.168l.243-2.20654,3.99707-36.28369q.15765-1.08033.27893-2.17529c.104-.94532.17895-1.88721.23913-2.82666.01868-.29.03064-.57911.04505-.86866q.05016-1.00488.06787-2.00342c.00537-.30712.01135-.61376.01208-.91992q.00257-1.1543-.03833-2.2998c-.00573-.1626-.00525-.32666-.01233-.48877-.001-.022-.00073-.04395-.0017-.06592l-.00269.00049a60.63127,60.63127,0,0,0-2.6532-15.22949l.01026-.002c-.15223-.49316-.32361-.97754-.488-1.46533-.10608-.31445-.20374-.63232-.3147-.94482q-.46491-1.30737-.98559-2.58985c-.08509-.20849-.18079-.41162-.268-.61914-.2749-.65381-.55444-1.30517-.85132-1.94726-.15417-.334-.32043-.66065-.48047-.99121-.2467-.50928-.4934-1.01807-.75366-1.51953-.18457-.35547-.37854-.70557-.56994-1.05713-.25428-.46729-.51038-.9336-.77662-1.39356-.20642-.35693-.41894-.70947-.63244-1.06152q-.40467-.668-.82459-1.32617-.3371-.52588-.68408-1.04395-.43268-.64526-.88245-1.27881c-.239-.33789-.47827-.67529-.72387-1.0083-.09888-.13379-.19129-.27246-.29126-.40527l-.01587.00293A61.35035,61.35035,0,0,0,253.645,64.54492l.01392-.00293c-.09155-.07178-.18652-.13965-.27844-.21094-.18775-.146-.37879-.28759-.56824-.43115q-.80823-.61156-1.6377-1.19775c-.19189-.13574-.38208-.27344-.57592-.40674q-1.05945-.73023-2.15088-1.41846c-.1543-.09716-.31226-.189-.46753-.28466q-.9095-.56031-1.84058-1.08936c-.22119-.12549-.44238-.251-.66553-.374-.759-.41895-1.5249-.82813-2.30419-1.21534-.03248-.01611-.06543-.03173-.09791-.04736-.76928-.38086-1.551-.74121-2.33935-1.09033-.23059-.102-.4624-.20166-.69458-.30078q-1.01715-.43579-2.05371-.83545c-.1582-.061-.314-.126-.4729-.18555-.8291-.312-1.66858-.60351-2.51575-.88037-.21741-.0708-.43689-.13721-.65539-.20557q-1.03162-.32445-2.08033-.61279c-.218-.06006-.43481-.12256-.654-.18017q-1.31049-.34571-2.64478-.63672c-.16259-.03516-.32763-.06446-.49084-.09864q-1.13178-.2351-2.28015-.42773c-.24829-.042-.49634-.084-.74585-.123-.92-.14355-1.845-.27441-2.78-.37744-.92444-.102-1.84595-.168-2.76587-.21826-.23975-.01318-.47925-.02344-.71863-.0332-.82946-.03321-1.6571-.04981-2.48181-.04248-.09473.00048-.19018-.00293-.28491-.00147-.90613.01318-1.80811.05713-2.70764.11817-.23157.01562-.46253.03564-.69373.05419q-1.15283.09448-2.29712.23829c-.15136.019-.30383.03369-.45508.05419-.88378.12012-1.76232.26612-2.63708.43067-.21863.041-.43616.08691-.65418.13086q-1.09093.219-2.1715.48291c-.18482.04541-.37049.08642-.55481.1333q-1.28687.3296-2.55689.7207c-.19946.06153-.397.12793-.59582.19141q-1.04646.33545-2.08057.71045c-.20459.07422-.40979.146-.61365.22217q-1.24255.46728-2.46557.99023c-.17261.07373-.34278.15332-.51465.229q-1.01623.44679-2.01734.93262c-.21411.104-.42871.20654-.64184.313-.79553.397-1.585.8081-2.365,1.24072-.13306.07373-.26367.15235-.39612.227q-1.00414.56616-1.9895,1.1709c-.21558.13184-.43091.26367-.64514.39844-.75879.47705-1.51172.96484-2.25293,1.47412-.07764.05322-.15332.10986-.231.16357-.67578.46875-1.34229.95313-2.00232,1.44727q-.31677.2373-.631.47852-.98913.75878-1.95459,1.55273c-.06824.05615-.13843.10986-.20642.1665-.69263.57666-1.37146,1.17237-2.04334,1.77735-.19873.17871-.3955.35937-.59228.54052q-.84924.78224-1.67529,1.59131c-.11719.11524-.23731.22705-.35376.34326q-.95655.95142-1.87671,1.94385c-.18067.19385-.35865.39014-.53736.58545q-.7456.81738-1.46753,1.65674c-.13818.16113-.27929.31885-.416.481q-.86976,1.02978-1.70166,2.09375c-.15894.20263-.314.4082-.47071.6123q-.65936.85914-1.29394,1.73731c-.14233.19677-.28687.3916-.42725.59033-.47.66357-.93188,1.33349-1.38,2.01269l.01062-.00244a73.64184,73.64184,0,0,0-6.229,11.52832l-.001.00244-.00464.01123c-.37085.86573-.71875,1.74073-1.05469,2.61963-.1001.26221-.19531.52539-.29223.78858q-.36311.98511-.69593,1.97949c-.089.26563-.17956.53076-.26513.79687-.28894.89942-.56556,1.80225-.81665,2.71192l-.00135.00537c-.25036.90674-.47509,1.81934-.68676,2.73486-.06275.27149-.12012.54346-.17945.81543q-.22284,1.02246-.4126,2.05127c-.05053.27393-.103.54737-.15.82227-.15881.92773-.30408,1.85791-.42163,2.7915a.96039.96039,0,0,0,.8501,1.06934l5.5382.60986,1.44092.15869,11.18775,1.23242a.95821.95821,0,0,0,1.05334-.834c.14539-1.09424.34607-2.187.57581-3.27734.16919-.80225.35766-1.603.5708-2.40039.03174-.11914.05835-.23877.09106-.35743.24719-.89746.52613-1.79052.82666-2.67871.06934-.20508.14331-.40918.21558-.61377q.40356-1.1433.8623-2.273c.061-.14941.11756-.30078.18006-.45019q.54528-1.30371,1.16516-2.58106c.09009-.187.18518-.37109.27759-.55712q.53759-1.08033,1.12426-2.13916c.09253-.167.18116-.33545.27539-.501q.70277-1.23707,1.4701-2.4375c.10254-.16016.21008-.31738.31421-.477q.663-1.01441,1.37048-1.99805c.12256-.17041.24268-.34277.36719-.51172q.84411-1.147,1.74389-2.248A46.15,46.15,0,0,1,206.07715,73.729c.09107-.03222.18115-.06836.27246-.09961.56739-.19384,1.13941-.36962,1.71411-.53466.18872-.05371.37867-.10254.56824-.15381q.6264-.16773,1.25769-.3125c.19617-.04492.39209-.09033.589-.13184q.80218-.16845,1.611-.29883c.06336-.00976.12622-.02343.18946-.0332.59521-.09082,1.1936-.16016,1.7937-.21777.18823-.01807.37719-.03076.56579-.04541q.66193-.052,1.32715-.07569c.193-.00683.38574-.01513.5791-.01806a30.81627,30.81627,0,0,1,3.90857.17383,40.694,40.694,0,0,1,21.2312,8.854q.80183.64965,1.56885,1.3374c.13477.12061.27246.23877.40576.36133q.91956.84741,1.78614,1.74658c.10815.11279.21118.23.318.34326q.71649.76319,1.39245,1.561c.13819.16308.27686.32519.41236.49023.53039.64551,1.04712,1.30225,1.53735,1.979.023.03174.0437.06445.06641.09619.46509.646.90625,1.30908,1.33325,1.98144.11938.188.23633.37745.35278.5669q.564.92139,1.0813,1.87109c.06006.11035.12464.21826.1836.3291.38891.7334.75207,1.481,1.09643,2.2378.087.1914.16846.38525.25269.57812q.40429.92652.76342,1.875a40.64259,40.64259,0,0,1,2.5857,16.396c-.01026.21-.01807.41943-.0315.62988-.04028.63086-.09069,1.26367-.16064,1.89844l-.06128-.00684-.24292,2.21533-.00012.001h.00012l-1.69678,15.4707L252.62207,153.085l-.29284,2.6709a31.64265,31.64265,0,0,0-17.65845,3.84814c-15.43091,8.27979-27.44617,5.874-33.6886-11.604a116.37049,116.37049,0,0,1-16.25354,24.86621c-17.44031,20.07617-34.75622,40.8418-19.86829,69.605,1.33594,2.58057.51026,6.93848-.31188,10.25977-3.5116,14.18506.83776,24.74072,11.5487,32.64258h-.00012c-4.09558,7.51416-10.797,10.45312-18.23572,13.00683a82.64217,82.64217,0,0,0-34.59839,23.1875c-15.31384,16.94336-15.499,54.51367-.64428,70.03662,17.05786,17.8252,41.61853,16.95117,60.89379-5.33935,12.30848-14.23389,13.84693-7.53809,19.453,3.708,22.3009,44.73536,58.05285,71.22168,108.192,70.39893C372.26685,459.36963,420.04175,387.35107,392.28833,337.936Z"/><path fill="#db4f89" d="M335.31631,148.33887l33.13327-10.52114a10.0732,10.0732,0,0,0,6.24254-5.70934h0a10.0732,10.0732,0,0,0-5.59678-13.26274L364.63,117.08528a7.26906,7.26906,0,0,1-4.39761-5.04635l-1.0652-4.38419a10.07321,10.07321,0,0,0-8.8488-7.651l-.67965-.086A14.56983,14.56983,0,0,1,339.034,93.047a45.96894,45.96894,0,0,0-3.55768-4.92729c-3.122-3.84475-6.936-3.20353-10.21019-1.30442a16.31289,16.31289,0,0,0-7.95581,12.38522l-3.35078,30.96124.00015-.00247a19.644,19.644,0,0,1,8.01961,4.12493l7.9858,6.79685a19.64418,19.64418,0,0,1,5.35362,7.25727"/><path fill="#8298e7" d="M324.9793,129.2842l7.9858,6.79685a19.70409,19.70409,0,0,1,2.23592,27.80022l-47.78088,56.139a19.72079,19.72079,0,0,1-27.80021,2.23593l-7.9858-6.79686a19.72079,19.72079,0,0,1-2.23592-27.80021l47.78088-56.139a19.706,19.706,0,0,1,27.80021-2.23592Z"/><path fill="#fbb641" d="M295.56509 133.41645l1.614-1.89633a19.64151 19.64151 0 0 1 7.16285-5.31272 40.33551 40.33551 0 0 1 2.33792 3.3772 14.57214 14.57214 0 0 0 10.60439 6.8716l.67971.08523a10.075 10.075 0 0 1 8.8495 7.65118l1.06546 4.38445a7.26539 7.26539 0 0 0 4.39742 5.04581l4.46527 1.76157a10.13983 10.13983 0 0 1 2.35637 1.315 19.65782 19.65782 0 0 1-3.897 7.18186l-2.35049 2.76165a9.75805 9.75805 0 0 0-.77893-.739 10.072 10.072 0 0 0-2.837-1.69934l-4.46526-1.76158a7.26535 7.26535 0 0 1-4.39742-5.0458l-1.06546-4.38446a10.07506 10.07506 0 0 0-8.8495-7.65117l-.67971-.08523a14.57217 14.57217 0 0 1-10.60439-6.8716 46.10269 46.10269 0 0 0-3.55734-4.92684zM286.746 214.1256l-2.45259-4.12632a7.26539 7.26539 0 0 0-5.68377-3.53445l-4.49837-.351a10.075 10.075 0 0 1-8.96719-7.51291l-.19275-.65736a14.57213 14.57213 0 0 0-8.4781-9.36985 46.10479 46.10479 0 0 1-5.432-2.72418l-.06874-.04-1.57421 1.84959q-.15785.18546-.31006.37377l-.0161.01947a19.62265 19.62265 0 0 0-3.78667 7.58736 40.25223 40.25223 0 0 0 3.68085 1.75412 14.57211 14.57211 0 0 1 8.4781 9.36984l.19275.65737a10.075 10.075 0 0 0 8.96718 7.5129l4.49837.351a7.26539 7.26539 0 0 1 5.68377 3.53446l2.45259 4.12632a10.13968 10.13968 0 0 0 1.655 2.09634 19.65083 19.65083 0 0 0 6.52616-5.02185l2.31071-2.71491a9.75965 9.75965 0 0 1-.854-.65083A10.07131 10.07131 0 0 1 286.746 214.1256z"/><path fill="#db4f89" d="M246.12316,207.81942,216.728,215.90176a16.31546,16.31546,0,0,0-10.95516,9.83361c-1.35008,3.535-1.37429,7.40311,2.9201,9.87016a45.83926,45.83926,0,0,0,5.432,2.72419c4.93079,2.01392,6.93978,4.14515,8.47707,9.371l.19379.65616a10.07506,10.07506,0,0,0,8.96717,7.51291l4.49838.351a7.26538,7.26538,0,0,1,5.68375,3.53446l2.45259,4.12633a10.07289,10.07289,0,0,0,18.62469-3.66974l4.994-33.74232a19.62311,19.62311,0,0,1-8.39647-4.21342l-7.9858-6.79686A19.623,19.623,0,0,1,246.12316,207.81942Z"/><path fill="#fff" d="M222.66437,51.91168c-33.21582-3.65914-63.84591,26.43966-68.019,59.59915a.96018.96018,0,0,0,.85011,1.069l18.16687,2.00131a.95866.95866,0,0,0,1.05335-.8343c2.94237-22.14255,23.59773-44.2042,45.73771-41.7652a40.90007,40.90007,0,0,1,36.17549,45.1326l-.0612-.00674-.24292,2.21516-.00021.00124h.00007L233.741,325.24993a.95874.95874,0,0,0,.84805,1.0575l18.08494,1.99229a.95876.95876,0,0,0,1.058-.848L276.42,121.50053q.15774-1.08047.27885-2.1753A61.09128,61.09128,0,0,0,222.66437,51.91168Z"/><path fill="#d64142" d="M186.23209 88.13509L159.62735 93.38a67.54023 67.54023 0 0 0-4.982 18.13075.96023.96023 0 0 0 .85015 1.06908l6.97912.76884 12.72908-2.50947A52.76367 52.76367 0 0 1 186.23209 88.13509zM264.83817 75.96905L241.397 80.59032a41.08485 41.08485 0 0 1 12.98878 17.96933l19.97933-3.93881A61.16617 61.16617 0 0 0 264.83817 75.96905zM276.42 121.50053q.15774-1.08047.27885-2.1753a61.55286 61.55286 0 0 0 .31191-9.47324l-20.15177 3.9728q-.04934 1.63484-.23012 3.28948l-.0612-.00674-.24292 2.21516-.00021.00124h.00007L254.628 134.79459l20.7788-4.09641z"/><polygon fill="#d64142" points="271.08 169.976 273.392 148.991 252.622 153.085 250.321 174.069 271.08 169.976"/><polygon fill="#d64142" points="266.709 209.651 269.021 188.665 248.271 192.756 245.97 213.74 266.709 209.651"/><polygon fill="#d64142" points="262.147 251.06 264.459 230.074 243.731 234.161 241.429 255.144 262.147 251.06"/><polygon fill="#d64142" points="236.99 295.62 257.688 291.54 260 270.554 239.292 274.636 236.99 295.62"/><path fill="#d64142" d="M234.65953 316.874l-.91857 8.37592a.95874.95874 0 0 0 .84805 1.0575l18.08494 1.99229a.95876.95876 0 0 0 1.058-.848l1.61454-14.656zM222.66437 51.91168c-22.67715-2.49817-44.14823 10.73913-56.81853 29.94215L204.923 74.15a33.54792 33.54792 0 0 1 11.93167-2.35228L253.659 64.542A60.80484 60.80484 0 0 0 222.66437 51.91168z"/><path fill="#ece4f6" d="M370.52024,255.76408c-15.90943,4.68665-31.59218,1.24313-47.13262,1.79975-30.18208,1.08089-59.97327,6.28525-90.00323-.98774-11.08524-2.68478-19.57511,11.81153-27.30093,20.94361-8.78465,10.38358-17.93919,16.02295-29.98625,7.85392-10.711-7.90185-15.06042-18.45755-11.54875-32.64278.82219-3.32106,1.64774-7.67906.31192-10.25981-14.88806-28.76323,2.42788-49.52863,19.86827-69.60481A116.37813,116.37813,0,0,0,200.98226,148c6.24228,17.478,18.2576,19.88407,33.6885,11.60406,12.7559-6.84466,23.512-3.35964,36.30315.0618,30.87753,8.25945,60.535,17.91725,85.0282,39.13989,7.40179,6.41339,15.5271,6.39853,24.42709,3.70351C383.14487,221.12315,383.46372,239.39359,370.52024,255.76408Z"/><path fill="#d64142" d="M370.52024,255.76408c.24942,2.761,1.14623,5.6156.64918,8.26858-5.49706,29.32952,7.93949,50.43739,21.1189,73.90347,27.75346,49.41494-20.02141,121.43361-81.13086,122.43613-50.13925.82246-85.89107-25.66383-108.192-70.39918-5.6061-11.246-7.14454-17.94186-19.453-3.70781-19.27525,22.29054-43.83588,23.16462-60.89372,5.33934-14.85473-15.523-14.66958-53.09322.64419-70.03667a82.63677,82.63677,0,0,1,34.59845-23.1874c7.43873-2.55382,14.14005-5.49307,18.23569-13.00681,13.9503-2.40922,25.33092-9.49956,35.46132-20.29178,14.13333-15.05621,30.58945-18.89834,48.57639-10.61014,7.39845,3.40916,15.97453,6.78493,23.45842,2.91659,28.36257-14.66021,55.9875,1.43605,83.9682-4.06164C368.65471,253.112,369.72632,254.59423,370.52024,255.76408Z"/><path fill="#f9f9f9" d="M262.50061,317.80225c6.05322,3.229,12.052,6.55273,18.04248,9.8916l17.91,10.12207,17.79517,10.32324,8.85681,5.23291c2.93408,1.77637,5.88526,3.52246,8.8042,5.32471-3.03161-1.60547-6.03125-3.26709-9.04785-4.89893l-8.99536-4.99072-17.9093-10.124-17.79419-10.3252C274.25159,324.88086,268.34888,321.38916,262.50061,317.80225Z"/><path fill="#f9f9f9" d="M318.65222,302.54492c-3.22888,6.05322-6.55285,12.05225-9.89136,18.04248l-10.12243,17.91016L288.31506,356.293l-5.23278,8.85644c-1.77613,2.93409-3.52222,5.88526-5.32459,8.8042,1.60559-3.03125,3.26733-6.03125,4.89917-9.04785l4.99072-8.99512,10.124-17.90918L308.09644,320.207C311.57373,314.2959,315.06543,308.39355,318.65222,302.54492Z"/><path fill="#f9f9f9" d="M337.91016,327.46094c-6.56348,1.99707-13.15564,3.88867-19.7522,5.76367l-19.822,5.50684-19.88269,5.2832-9.96289,2.5625c-3.33057.81885-6.6521,1.6709-9.9906,2.46094,3.27905-1.00879,6.57507-1.95459,9.86206-2.93409l9.88977-2.83154,19.82251-5.50488,19.88305-5.28174C324.5957,330.76514,331.23865,329.06006,337.91016,327.46094Z"/><path fill="#f9f9f9" d="M308.99341 377.95459c-1.99707-6.56348-3.88843-13.15576-5.76367-19.752L297.723 338.38037l-5.28332-19.88281-2.5625-9.96289c-.81885-3.33057-1.671-6.65186-2.46057-9.99024 1.00842 3.27881 1.95446 6.57471 2.93359 9.86182l2.83179 9.88965 5.50488 19.82275 5.28174 19.88281C305.68945 364.64014 307.39429 371.2832 308.99341 377.95459zM328.67065 367.84424c-.71618-2.27442-1.32531-4.57324-1.91821-6.875-.604-2.29981-1.13135-4.61621-1.65845-6.93311a.49927.49927 0 0 1 .33448-.584c2.2644-.71924 4.52954-1.436 6.81836-2.07959l3.43444-.96192c1.156-.28613 2.3014-.60449 3.4668-.86132-1.0957.47265-2.2113.88379-3.31628 1.32763l-3.34864 1.22754c-2.23315.81592-4.49011 1.55811-6.74768 2.29883l.33423-.5835c.50257 2.32178 1.00476 4.644 1.4303 6.9834C327.93665 363.14014 328.35718 365.48047 328.67065 367.84424zM268.59473 308.95361c.634 2.29932 1.16015 4.61817 1.67 6.93994.52112 2.31983.96484 4.65381 1.40845 6.9878a.4994.4994 0 0 1-.35523.57177c-2.28882.63721-4.57812 1.27247-6.88867 1.8335l-3.46667.83789c-1.16553.24414-2.32166.52149-3.49549.73633 1.11194-.43311 2.24158-.80371 3.36182-1.208l3.3905-1.106c2.26111-.73536 4.54322-1.39649 6.82593-2.05518l-.355.57129c-.41882-2.33887-.8374-4.67774-1.17871-7.03076C269.1593 313.68164 268.82312 311.32764 268.59473 308.95361z"/><path fill="#f9f9f9" d="M326.06836 341.67676l-11.80872-7.98633a.11953.11953 0 0 1-.03613-.15479l6.84509-12.50439.175.34814-.88818-.10888.07556-.002-14.00586 2.65479a.31443.31443 0 0 1-.3573-.22168l-3.95239-13.69678.59473.19727-.70716.54834.082-.08643-8.04358 11.769a.43316.43316 0 0 1-.56506.13183l-12.458-6.92871.66956-.33643-.11511.88721-.00367-.14111 2.60865 14.01465a.47917.47917 0 0 1-.33838.54443l-13.7085 3.90967.35193-.3794-.18408.90821-.221-.521 12.01331 7.67432a.4809.4809 0 0 1 .16894.62158L275.744 355.49707l-.02673-.46143.50634.76124-.47693-.19141 13.92127-3.06738a.43572.43572 0 0 1 .5061.28955l4.33655 13.57959-.29395-.26172.89551.1831-.39941.17041 7.71265-11.98877a.3202.3202 0 0 1 .41308-.1123l12.65833 6.55615-.25379.01465.76392-.502-.10291.25586-2.973-13.9419a.12778.12778 0 0 1 .08435-.14746l13.60242-4.26562-.00342.01123zm0 0l.55762.69336-.0011.01025-.00244.00147-13.52967 4.49121.08423-.147 3.20447 13.89063a.24793.24793 0 0 1-.103.25684l-.75635.51269a.25165.25165 0 0 1-.25415.01465l-12.71911-6.437.41284-.11231-7.6001 12.06055a.38867.38867 0 0 1-.39978.1709l-.89709-.17481a.39058.39058 0 0 1-.29419-.26172l-4.42066-13.55273.50574.28955L275.944 356.49365a.45778.45778 0 0 1-.4773-.1914l-.50866-.75928a.4589.4589 0 0 1-.02661-.46192l6.4768-12.69873.16895.62159-12.03577-7.63868a.5.5 0 0 1-.22107-.52148l.18677-.90771a.50068.50068 0 0 1 .35217-.37989l13.72046-3.86719-.33825.54395-2.56543-14.022a.47209.47209 0 0 1-.00367-.14209l.1178-.88672a.45225.45225 0 0 1 .50684-.39063.46918.46918 0 0 1 .16284.0542l12.43664 6.9668-.56481.13184 8.1228-11.71436a.41337.41337 0 0 1 .08227-.08691l.71228-.54151a.37755.37755 0 0 1 .52967.0669.40415.40415 0 0 1 .0653.12988l3.82483 13.73291-.357-.22217 14.031-2.51855a.24823.24823 0 0 1 .07593-.002l.88623.12354a.23436.23436 0 0 1 .2041.26123.2545.2545 0 0 1-.02893.0874l-7.05078 12.38965-.03613-.1543zM268.67078 368.57715c2.27478-.71582 4.57324-1.3252 6.87536-1.918 2.29956-.604 4.61621-1.13135 6.93286-1.6582a.499.499 0 0 1 .584.334c.71911 2.26465 1.43628 4.52979 2.07983 6.81885l.96179 3.43408c.28589 1.15625.6045 2.30176.86145 3.4668-.47277-1.09571-.884-2.21094-1.32788-3.31592l-1.22741-3.34912c-.816-2.23291-1.55835-4.48975-2.29883-6.74756l.58362.33447c-2.32215.50244-4.64429 1.00489-6.98352 1.43018C273.37524 367.84326 271.03491 368.26416 268.67078 368.57715zM327.56152 308.50146c-2.29907.63379-4.61792 1.16016-6.93982 1.66993-2.31982.521-4.65393.96484-6.988 1.40869a.49926.49926 0 0 1-.57154-.35547c-.63733-2.28857-1.2727-4.57813-1.83361-6.88867l-.838-3.46631c-.24414-1.166-.52136-2.32178-.73633-3.49561.43311 1.11182.804 2.24121 1.208 3.36182l1.10633 3.39062c.73535 2.26075 1.39624 4.543 2.055 6.82569l-.57129-.355c2.33875-.41895 4.67749-.8374 7.03052-1.17871C322.83362 309.06592 325.18762 308.73 327.56152 308.50146zM255.87793 338.729c2.11487 1.10254 4.17078 2.29688 6.2179 3.50538 2.05322 1.19921 4.0642 2.46435 6.07507 3.73a.49893.49893 0 0 1 .17639.64941c-1.09277 2.10937-2.18726 4.21826-3.35071 6.2915l-1.74829 3.10889c-.61536 1.01953-1.2 2.05469-1.84228 3.06055.44043-1.10938.93847-2.189 1.40588-3.28418l1.5-3.23535c1.00207-2.15625 2.07312-4.27735 3.14587-6.397l.1764.64893c-1.99744-1.28662-3.99463-2.57373-5.94959-3.92676C259.72339 341.53662 257.77124 340.1792 255.87793 338.729zM340 337.89111c-2.074-1.17724-4.08569-2.44482-6.088-3.72607-2.00891-1.272-3.97315-2.6084-5.93726-3.94531a.49916.49916 0 0 1-.153-.65528c1.16772-2.06933 2.33728-4.1372 3.57446-6.168L333.255 320.353c.65149-.99707 1.27308-2.01074 1.95105-2.99268-.48 1.09277-1.01647 2.15381-1.52294 3.23145l-1.61524 3.17968c-1.07886 2.11866-2.22534 4.19971-3.37353 6.27979l-.153-.65479c1.95 1.35743 3.89966 2.71534 5.80481 4.1377C336.25781 334.94727 338.15991 336.374 340 337.89111z"/><path fill="#f9f9f9" d="M255.87793 338.729c2.11487 1.10254 4.17078 2.29688 6.2179 3.50538 2.05322 1.19921 4.0642 2.46435 6.07507 3.73a.49893.49893 0 0 1 .17639.64941c-1.09277 2.10937-2.18726 4.21826-3.35071 6.2915l-1.74829 3.10889c-.61536 1.01953-1.2 2.05469-1.84228 3.06055.44043-1.10938.93847-2.189 1.40588-3.28418l1.5-3.23535c1.00207-2.15625 2.07312-4.27735 3.14587-6.397l.1764.64893c-1.99744-1.28662-3.99463-2.57373-5.94959-3.92676C259.72339 341.53662 257.77124 340.1792 255.87793 338.729zM340 337.89111c-2.074-1.17724-4.08569-2.44482-6.088-3.72607-2.00891-1.272-3.97315-2.6084-5.93726-3.94531a.49916.49916 0 0 1-.153-.65528c1.16772-2.06933 2.33728-4.1372 3.57446-6.168L333.255 320.353c.65149-.99707 1.27308-2.01074 1.95105-2.99268-.48 1.09277-1.01647 2.15381-1.52294 3.23145l-1.61524 3.17968c-1.07886 2.11866-2.22534 4.19971-3.37353 6.27979l-.153-.65479c1.95 1.35743 3.89966 2.71534 5.80481 4.1377C336.25781 334.94727 338.15991 336.374 340 337.89111zM297.42249 295.89062c-1.10218 2.11475-2.29676 4.1709-3.50525 6.21778-1.199 2.05322-2.46424 4.064-3.72974 6.07519a.499.499 0 0 1-.64929.17627c-2.10974-1.09277-4.21851-2.1875-6.292-3.35058l-3.10865-1.74854c-1.01953-.61523-2.05481-1.1997-3.06054-1.84228 1.10913.44043 2.18872.93847 3.28393 1.40625l3.23584 1.49951c2.156 1.00244 4.27686 2.07324 6.39685 3.146l-.64917.17627c1.28675-1.99707 2.57361-3.99414 3.92688-5.94921C294.61487 299.73584 295.97241 297.78369 297.42249 295.89062zM298.2605 380.0127c1.17737-2.07422 2.44494-4.08594 3.72632-6.08838 1.27185-2.00879 2.60852-3.97315 3.94531-5.937a.49863.49863 0 0 1 .65527-.15283c2.06909 1.16748 4.13721 2.33741 6.1676 3.57422l3.04395 1.85889c.9967.65137 2.01025 1.27295 2.99231 1.95117-1.09253-.48-2.15356-1.0166-3.23132-1.52295l-3.17981-1.61523c-2.11878-1.07911-4.19971-2.22559-6.27979-3.37354l.655-.15283c-1.35754 1.94971-2.71533 3.89941-4.13794 5.80469C301.20435 376.27051 299.77759 378.17236 298.2605 380.0127z"/></svg>