<svg xmlns="http://www.w3.org/2000/svg" viewBox="0 0 64 64"><path d="M42.65 49.16a2.11 2.11 0 0 1 0 4.21 2.11 2.11 0 0 1 0-4.21zM32 49.16a2.11 2.11 0 1 1 0 4.21 2.11 2.11 0 0 1 0-4.21zM21.47 49.16a2.11 2.11 0 1 1-2.11 2.11 2.18 2.18 0 0 1 2.11-2.11zM33.61 12.36a19 19 0 0 1 6 3.84 17.38 17.38 0 0 1 4.33 7.44 6.91 6.91 0 0 1 2.23.37 7.7 7.7 0 0 1 2.23.74 10.12 10.12 0 0 1 5.46 6.07 10.52 10.52 0 0 1-.5 8.18 1.27 1.27 0 0 1-1.73.62A1.38 1.38 0 0 1 51 37.88a7.75 7.75 0 0 0 .37-6.19 8.18 8.18 0 0 0-4.09-4.58 9.31 9.31 0 0 0-1.74-.62 2.6 2.6 0 0 0-1-.13 12.9 12.9 0 0 1 .13 2.23 18.91 18.91 0 0 1-.25 2.6 18.46 18.46 0 0 1-.5 2.61 1.56 1.56 0 0 1-1.73.86 1.58 1.58 0 0 1-.87-1.73 10.7 10.7 0 0 0 .5-2.11A14 14 0 0 0 42 28.59 15.34 15.34 0 0 0 37.7 18.06a14.82 14.82 0 0 0-5.82-3.59L31 14.22l-1.86-.37c-.62 0-1.24-.12-2-.12a14.72 14.72 0 0 0-10 4.08 14.5 14.5 0 0 0-4.71 9.79v1.12l-1.23.12A7.3 7.3 0 0 0 6.11 31 7.53 7.53 0 0 0 4 36a7.62 7.62 0 0 0 2.11 5.2 7.31 7.31 0 0 0 5.2 2.11c14.62 0 29.36-.25 44 0a4.69 4.69 0 0 0 3.35-1.49A4.83 4.83 0 0 0 60 38.5a5.8 5.8 0 0 0-.62-2.6 4.51 4.51 0 0 0-2-1.73l-1.12-.62.62-1.12a16.57 16.57 0 0 0 .87-2.23A15.62 15.62 0 0 0 58 27.85a10 10 0 0 0-3-7.19 10.24 10.24 0 0 0-7.18-3H46.5l-1.37.25L45 16.58a6.87 6.87 0 0 0-2.36-4.22 6.27 6.27 0 0 0-4.46-1.73 6.13 6.13 0 0 0-3.34.87 7.12 7.12 0 0 0-1.24.86z"/></svg>