<svg xmlns="http://www.w3.org/2000/svg" viewBox="0 0 64 64"><path d="M44.49 13a1.24 1.24 0 0 1 1.16 2.19l-1.55.9a1.24 1.24 0 0 1-1.16-2.19zM37.54 7a1.23 1.23 0 0 1 1.67-.39 1.21 1.21 0 0 1 .39 1.68l-.91 1.54a1.18 1.18 0 0 1-1.67.39 1.2 1.2 0 0 1-.39-1.67zM28.52 5.29A1.19 1.19 0 0 1 29.68 4 1.29 1.29 0 0 1 31 5.29v1.8a1.27 1.27 0 0 1-1.29 1.16 1.16 1.16 0 0 1-1.16-1.16zM19.77 8.25a1.23 1.23 0 0 1 .52-1.68A1.26 1.26 0 0 1 22 7l.9 1.55a1.22 1.22 0 0 1-.52 1.67 1.24 1.24 0 0 1-1.67-.39zM13.72 15.2a1.25 1.25 0 0 1-.39-1.67A1.23 1.23 0 0 1 15 13l1.54.9a1.26 1.26 0 0 1 .39 1.68 1.24 1.24 0 0 1-1.68.51zM12.05 24.21a1.29 1.29 0 0 1-1.29-1.29 1.18 1.18 0 0 1 1.29-1.15h1.8A1.15 1.15 0 0 1 15 22.92a1.27 1.27 0 0 1-1.16 1.29zM15 32.84a1.2 1.2 0 0 1-1.68-.39 1.22 1.22 0 0 1 .39-1.67l1.54-.9a1.22 1.22 0 1 1 1.29 2.06zM47.45 21.77a1.15 1.15 0 0 1 1.16 1.15 1.27 1.27 0 0 1-1.16 1.29h-1.8a1.38 1.38 0 0 1-1.29-1.29 1.26 1.26 0 0 1 1.29-1.15zM41.14 25.76a11 11 0 0 0-1.29-8.11 11.57 11.57 0 0 0-7.08-5.41 11.17 11.17 0 0 0-8.88 1.16 11.26 11.26 0 0 0-5.41 7.08 11.21 11.21 0 0 0 1.16 8.88 11.56 11.56 0 0 0 1 1.55 7.67 7.67 0 0 1 1.16-1 21.31 21.31 0 0 1 19.31-4.12zM40.88 56a1.42 1.42 0 1 1 2.83 0A3.74 3.74 0 0 1 42 59a5.95 5.95 0 0 1-6.69 0 4 4 0 0 1-1.55-3V41.08a17.17 17.17 0 0 0-4.5.77 19.6 19.6 0 0 0-4.77 2.06 19.26 19.26 0 0 0-3.73-1.68 14.63 14.63 0 0 0-3.35-.9 19.22 19.22 0 0 1 6.05-9.39 18.63 18.63 0 0 1 23.69 0 19.22 19.22 0 0 1 6.05 9.39 14.63 14.63 0 0 0-3.35.9 19.54 19.54 0 0 0-3.73 1.68 19.7 19.7 0 0 0-4.76-2.06 20.41 20.41 0 0 0-4.89-.9V56c0 .26.25.51.51.77a2.36 2.36 0 0 0 1.67.52 2.72 2.72 0 0 0 1.81-.52 1.13 1.13 0 0 0 .38-.77z"/></svg>