<svg xmlns="http://www.w3.org/2000/svg" viewBox="0 0 64 64"><path d="M37 13.68a18.07 18.07 0 0 1 11.42 8.88A18.17 18.17 0 0 1 50.32 37 18.85 18.85 0 0 1 27.16 50.32 18.68 18.68 0 0 1 15.58 41.6a18.26 18.26 0 0 1-1.9-14.44 18.36 18.36 0 0 1 8.88-11.58A18.17 18.17 0 0 1 37 13.68zM30.33 5.75A1.76 1.76 0 0 1 32.08 4a1.74 1.74 0 0 1 1.59 1.75V8.44A1.71 1.71 0 0 1 32.08 10a1.74 1.74 0 0 1-1.75-1.59zM17.48 10A1.57 1.57 0 0 1 18 7.81a1.79 1.79 0 0 1 2.38.63l1.27 2.22A1.79 1.79 0 0 1 21 13a1.6 1.6 0 0 1-2.22-.63zm-9 10.31A1.79 1.79 0 0 1 7.81 18 1.57 1.57 0 0 1 10 17.48l2.38 1.27A1.6 1.6 0 0 1 13 21a1.79 1.79 0 0 1-2.38.64zM5.75 33.67A1.74 1.74 0 0 1 4 32.08a1.76 1.76 0 0 1 1.75-1.75H8.44A1.74 1.74 0 0 1 10 32.08a1.71 1.71 0 0 1-1.59 1.59zm4.28 13A1.6 1.6 0 0 1 7.81 46a1.79 1.79 0 0 1 .63-2.38l2.22-1.27A1.79 1.79 0 0 1 13 43a1.6 1.6 0 0 1-.63 2.22zm10.31 9a1.75 1.75 0 0 1-2.38.47A1.54 1.54 0 0 1 17.48 54l1.27-2.38a1.68 1.68 0 0 1 2.86 1.75zm13.33 2.69A1.71 1.71 0 0 1 32.08 60a1.74 1.74 0 0 1-1.75-1.59V55.72A1.76 1.76 0 0 1 32.08 54a1.74 1.74 0 0 1 1.59 1.75zm13-4.44A1.56 1.56 0 0 1 46 56.19a1.75 1.75 0 0 1-2.38-.47l-1.27-2.38a1.68 1.68 0 0 1 2.86-1.75zm9-10.31A1.75 1.75 0 0 1 56.19 46a1.56 1.56 0 0 1-2.22.63l-2.38-1.42a1.68 1.68 0 0 1 1.75-2.86zm2.69-13.33A1.74 1.74 0 0 1 60 32.08a1.71 1.71 0 0 1-1.59 1.59H55.72A1.74 1.74 0 0 1 54 32.08a1.76 1.76 0 0 1 1.75-1.75zM54 17.48a1.54 1.54 0 0 1 2.22.48 1.75 1.75 0 0 1-.47 2.38l-2.38 1.27a1.68 1.68 0 0 1-1.75-2.86zm-10.31-9A1.79 1.79 0 0 1 46 7.81 1.6 1.6 0 0 1 46.67 10l-1.42 2.38A1.6 1.6 0 0 1 43 13a1.79 1.79 0 0 1-.64-2.38z"/></svg>