<svg xmlns="http://www.w3.org/2000/svg" viewBox="0 0 64 64"><path fill-rule="evenodd" d="M50.84,43.45a8.54,8.54,0,0,1,.92.26c-.26,0-.53-.13-.92-.13ZM27,25.79a16,16,0,0,1,6.54,2.61,16.63,16.63,0,0,1,5.5,6.54l.91-.13a10.75,10.75,0,0,1,7.33,2.88,8.08,8.08,0,0,1,2,2.23c-.13-.27-.39-.66-.52-.92l.13.13a4.9,4.9,0,0,0,1-1.57,12.46,12.46,0,0,0,1.43-3.27,12.74,12.74,0,0,0-1.3-9.81,13,13,0,0,0-7.85-6,12.37,12.37,0,0,0-9.69,1.31,11.69,11.69,0,0,0-5.49,6ZM40,37.56c.13.39.13.79.26,1a23.48,23.48,0,0,1,.26,2.88,14.44,14.44,0,0,1-.26,2.35,15.36,15.36,0,0,1-.52,2.36,1.24,1.24,0,0,1-1.7.91,1.32,1.32,0,0,1-.92-1.7,5.28,5.28,0,0,0,.4-2,10.24,10.24,0,0,0,.26-2,14.57,14.57,0,0,0-.26-2.36A13.34,13.34,0,0,0,37,37c-.13-.13-.13-.13-.13-.26a12.16,12.16,0,0,0-4.84-6,12.86,12.86,0,0,0-7.33-2.36,13,13,0,0,0-9,3.53,13.78,13.78,0,0,0-4.05,8.64l-.13,1.31H10.28a6.12,6.12,0,0,0-4.45,2A5.81,5.81,0,0,0,4,48.29a6.87,6.87,0,0,0,1.83,4.45,6.31,6.31,0,0,0,4.58,1.83c12.82,0,26.56-.52,39.38,0a3.73,3.73,0,0,0,2.88-1.31,3.63,3.63,0,0,0,1.18-2.88,4.15,4.15,0,0,0-1.18-3,4.77,4.77,0,0,0-3-1.17H48.49L48.36,45a8.79,8.79,0,0,0-2.88-5.37A9,9,0,0,0,40,37.56Z"/><path d="M56.73,39.26a1.24,1.24,0,0,1-1.31,2.1l-1.7-.92a1.16,1.16,0,0,1-.39-1.7,1.25,1.25,0,0,1,1.7-.53ZM21.27,21.73a1.45,1.45,0,0,1-.52-1.83,1.27,1.27,0,0,1,1.7-.4l1.83,1.05A1.23,1.23,0,0,1,23,22.64ZM28.07,14a1.24,1.24,0,0,1,2.1-1.31l1,1.7A1.29,1.29,0,1,1,29,15.71Zm9.69-3.27a1.2,1.2,0,0,1,1.17-1.31,1.23,1.23,0,0,1,1.31,1.31v2A1.31,1.31,0,0,1,38.93,14a1.29,1.29,0,0,1-1.17-1.31Zm10.07,2A1.24,1.24,0,0,1,49.93,14L49,15.71a1.44,1.44,0,0,1-1.83.52,1.39,1.39,0,0,1-.39-1.83Zm7.59,6.8a1.21,1.21,0,0,1,1.7.4,1.29,1.29,0,0,1-.39,1.83l-1.7.91a1.2,1.2,0,0,1-1.7-.39,1.12,1.12,0,0,1,.39-1.7Zm3.27,9.69A1.23,1.23,0,0,1,60,30.5a1.2,1.2,0,0,1-1.31,1.17h-2a1.29,1.29,0,0,1-1.31-1.17,1.31,1.31,0,0,1,1.31-1.31Z"/></svg>