<svg xmlns="http://www.w3.org/2000/svg" viewBox="0 0 64 64"><path d="M15.15 46.33a1.34 1.34 0 1 1 2.48 1l-3 7.8a1.25 1.25 0 1 1-2.35-.87zM33 46.33a1.44 1.44 0 0 1 1.74-.75 1.38 1.38 0 0 1 .74 1.74l-2.85 7.8a1.33 1.33 0 0 1-1.74.75 1.31 1.31 0 0 1-.74-1.62zM41.54 46.33a1.28 1.28 0 1 1 2.35 1l-1.61 4.21a1.28 1.28 0 1 1-2.35-1zM49.35 46.33a1.28 1.28 0 1 1 2.35 1l-2.85 7.8a1.28 1.28 0 0 1-1.73.75 1.3 1.3 0 0 1-.75-1.62zM33.61 9.78a18.83 18.83 0 0 1 6 3.84 17.28 17.28 0 0 1 4.33 7.43 6.91 6.91 0 0 1 2.23.37 7.72 7.72 0 0 1 2.23.75 10.07 10.07 0 0 1 5.46 6.07 10.49 10.49 0 0 1-.5 8.17 1.27 1.27 0 0 1-1.73.62A1.37 1.37 0 0 1 51 35.3a7.77 7.77 0 0 0 .37-6.2 8.21 8.21 0 0 0-4.09-4.58 9.31 9.31 0 0 0-1.74-.62 2.8 2.8 0 0 0-1-.12A12.78 12.78 0 0 1 44.64 26a19.21 19.21 0 0 1-.25 2.6 18.33 18.33 0 0 1-.5 2.6 1.37 1.37 0 1 1-2.6-.87 10.76 10.76 0 0 0 .5-2.1A14.23 14.23 0 0 0 42 26 15.32 15.32 0 0 0 37.7 15.48a15 15 0 0 0-5.82-3.6L31 11.63l-1.86-.37c-.62 0-1.24-.12-2-.12a14.69 14.69 0 0 0-10 4.09A14.48 14.48 0 0 0 12.42 25v1.11l-1.23.12a7.3 7.3 0 0 0-5.08 2.11 7.31 7.31 0 0 0 0 10.28 7.27 7.27 0 0 0 5.2 2.11H23.2l1.74-4.34H19.73A7.33 7.33 0 0 1 18.12 36a3.89 3.89 0 0 1-1.85-5.2L23 16a3.93 3.93 0 1 1 7.18 3.22l-4.21 9.29h4.71a3.91 3.91 0 0 1 4 4 3.81 3.81 0 0 1-.37 1.61l-2.6 6.57c7.93 0 15.86 0 23.66.12a4.69 4.69 0 0 0 3.35-1.49A4.79 4.79 0 0 0 60 35.92a5.77 5.77 0 0 0-.62-2.6 4.47 4.47 0 0 0-2-1.74L56.28 31l.62-1.11a17.67 17.67 0 0 0 .87-2.23A15.75 15.75 0 0 0 58 25.26a10 10 0 0 0-3-7.18 10.2 10.2 0 0 0-7.18-3H46.5l-1.37.25L45 14a6.87 6.87 0 0 0-2.36-4.21A6.24 6.24 0 0 0 38.19 8a6.13 6.13 0 0 0-3.34.87 7.2 7.2 0 0 0-1.24.87z"/><path d="M25.31,17.09A1.32,1.32,0,0,1,27,16.34a1.3,1.3,0,0,1,.62,1.74l-5.82,13h8.8A1.37,1.37,0,0,1,32,32.45a5.26,5.26,0,0,0-.12.62L24.69,51.53a1.28,1.28,0,0,1-1.61.74,1.34,1.34,0,0,1-.87-1.73l6.57-16.85h-9a.9.9,0,0,1-.49-.13,1.23,1.23,0,0,1-.62-1.73Z"/></svg>