<svg xmlns="http://www.w3.org/2000/svg" viewBox="0 0 434.22 503.59"><g data-name="Layer 2"><g data-name="Layer 1"><path fill="#fffefd" d="M54.26,349.81s10.13,12.78-10.13,145.88c0,0,11.4,11.95,35.89-2.89s63.34,7.42,63.34,7.42,14.78,5.77,18.58,0c0,0,16-82.83-18.58-103s-38.43-77.06-38.43-77.06l-27-16.07Z"/><path fill="#f2adcc" d="M304.84,241.46c5.08-5.87,5.62-4,1.49-11.86-1.22-2.34-2.78-4.37-5.42-5.23-4.14-1.36-8.18-3-12.42-4.07-6.56-1.64-7.35-2.65-5.83-9.08.73-3.09.07-5.22-2.8-6.77a3.36,3.36,0,0,1-1.86-4.17,2,2,0,0,0-1.24-2.73c-1.76-.78-2.45-2.22-1.67-3.87,1.36-2.89,0-4.6-2.18-6.27a26.79,26.79,0,0,1-6.27-5.89c-2.22-3.25-2.27-5,0-8.2a18,18,0,0,0,1.32-1.83c.86-4,1.48-8,4.12-11.41,1.06-5.28.61-10.56.28-15.87a4.84,4.84,0,0,0-3.34-4.56,28.54,28.54,0,0,1-13.66-12.88c-3.8-6.9-4.05-13.68.76-20.32a12,12,0,0,1,6.91-4.91,32.16,32.16,0,0,1,6.81-1.11c9.41-.23,17.12-4.17,23.93-10.18.51-.45,1.08-.88.94-1.68-.59-.68-1.21-1.34-1.76-2a110.62,110.62,0,0,0-12.88-13.45c-1.43-1.29-2.25-2.48-2.07-4.32-1.25.33-1,1.4-1,2.2-.13,6.68-5.53,9.59-9.82,13.3.05-1.8,1.45-2.69,2.68-3.55a13.7,13.7,0,0,0,6-10.36c.09-1,.77-2-.22-3-.48.26-.19,1.06-.85,1.19a122.6,122.6,0,0,0-13.72-8.93,85.56,85.56,0,0,0-13.91-5.79,68.09,68.09,0,0,0-13.65-2.73,58.51,58.51,0,0,0-19.13.81,82.9,82.9,0,0,0-16.84,5.77,97,97,0,0,0-11.21,5.62c-1.86,1.17-3.89,2.09-5.83,3.14-1.16.64-1-.29-1.14-.88-.85.09-.86.77-.92,1.33a6.29,6.29,0,0,0,1.71,5.39c1.17,1.18,2.39,2.32,3.55,3.51A14.36,14.36,0,0,1,188,88.35a3.26,3.26,0,0,1-1,2.52,2.43,2.43,0,0,1-.29-2.14c1.1-4.77-.55-8.83-3.89-12.09-2.46-2.39-4.85-4.7-6.13-7.9L166,75.41a72.44,72.44,0,0,1-9.22,5c-4.82,2.13-10,3.19-15,4.64-3.52,1-7.19,1.34-10.75,2.16s-6.93,1.09-10.39,1.62c-3.85.59-7.73.9-11.57,1.55s-8,.89-12,1.79c-3.27.74-6.55,1.43-9.81,2.2A57.2,57.2,0,0,0,79.05,97c-2.47,1-4.85,2.15-7.28,3.21-.63,1.75.44,3.32.55,5,.24,3.59,2.14,5.7,5.81,6.49a13.07,13.07,0,0,1,9.12,7.23c.35.69,1,1.38.41,2.39-1-.35-1.27-1.25-1.63-2a11.3,11.3,0,0,0-7-6c-.94-.31-1.89-.62-2.85-.86a5.89,5.89,0,0,1-4.47-4.35c-.5-1.66-.7-3.37-1.11-5-.18-.71,0-1.75-1.17-1.88-.41.91-1.36,1.18-2.11,1.65a94.45,94.45,0,0,0-15.7,12.29,116.24,116.24,0,0,0-8.12,8.79,146,146,0,0,0-13.17,18,8.53,8.53,0,0,1-2.39,2.92c-.09,1.45,1.09,2.22,1.85,3.19a94.45,94.45,0,0,1,9.58,14.47c.42.82,1.06,1.64.53,2.8-1.11-.47-1.34-1.48-1.77-2.3a95.56,95.56,0,0,0-9.53-14.49c-.48-.61-.84-1.5-1.91-1.38a5.14,5.14,0,0,1-.64,1.65,159.08,159.08,0,0,0-11.4,23.54A173.82,173.82,0,0,0,9.12,189c-.19.66-.24,1.33-1,1.61.1,2,1.86,2.57,3.31,3.28s3.18,1.1,4.67,1.91c1.64.91,3,2.24,2.85,4.07-.22,3.54,1.64,5.46,4.55,7.08a16.41,16.41,0,0,1,5.38,4.43,1.56,1.56,0,0,1-2-.46,32.73,32.73,0,0,0-5.8-4,5.39,5.39,0,0,1-3.14-5.31,4,4,0,0,0-1.23-3.51,17.71,17.71,0,0,0-8.55-3.85c-.64.93-.41,2-.66,3A93.19,93.19,0,0,0,5.6,209.57,96.46,96.46,0,0,0,5,219.34a26.9,26.9,0,0,0,.06,3.11c.07.58.14,1.22-.68,1.44a1.06,1.06,0,0,0,.49,1.17,10.33,10.33,0,0,0,6,2.53A18.13,18.13,0,0,0,17,227a1.28,1.28,0,0,1,1.48.25c.41.5.08,1-.14,1.46a6.3,6.3,0,0,1-.55,1,13.9,13.9,0,0,0-2.14,10.91c.14.71.51,1.57-.17,2.11s-1.59-.08-2.32-.41A14,14,0,0,0,9.51,241c-.82-.14-1.68-.35-2.34.41,1.09,4.26,1.9,8.58,3.24,12.78.61,1.92,1.27,3.83,1.77,5.77q1.85,7.15,3.57,14.33c1.1,4.57,1.73,9.23,2.52,13.85.48,2.87.8,5.76,1.05,8.65.31,3.48.78,6.94,1.1,10.41s0,6.84.63,10.23c1.26-.29,1.23-1.42,1.49-2.3,1.74-5.83,3.58-11.62,5.46-17.4,4.06-12.44,6.54-25.08,6.08-38.2a92.84,92.84,0,0,1,.9-15.44c1.59-12.11,5.51-23,14.6-32a112.08,112.08,0,0,0,18.31-24.41c5.59-9.73,11.19-19.48,17.77-28.62,9.07-12.61,20.16-22.9,34.92-29a62.3,62.3,0,0,1,36.72-4c15.55,3.08,26.29,11.93,31.08,26.87,2.09,6.54,2.26,13.19-3.08,18.78a6,6,0,0,0-1.16,2.18c-3.08,8.63-5.62,17.43-8.41,26.14a14.16,14.16,0,0,0-.35,6.9,11,11,0,0,1-.89,6.36c-.92,2.15-.8,2.36,1.61,2.57.3,0,.61,0,.92.05,2.86.34,4.27,2.52,3.32,5.18a7.55,7.55,0,0,1-1.43,2.55c-4.91,5.45-7.15,12.16-9.29,18.89a57,57,0,0,0-3.08,16.3,56.37,56.37,0,0,0,2.63,17.48c3.49,11.32,7.28,22.59,8,34.53.27,1.31,1.25,1.91,2.38,2.5,2,1,2,2.56.15,3.78-.86.58-2.05.72-2.51,1.82a3.75,3.75,0,0,0,.15,2.77,1.82,1.82,0,0,0,.93.6c1.19.39,2.34.84,2.33,2.34s-1,2.1-2.21,2.52c-1.42.49-1.86,1.63-2.15,2.9a3.17,3.17,0,0,0,.16,2.06,2.1,2.1,0,0,0,1,.84c1,.4,2.23.52,2.17,1.93s-1.21,1.79-2.3,2.19-2,.82-2.17,2.05c-.24,11-.27,22,0,33,.12,4.62.36,9.26.82,13.87.11,1.19.09,2.42,1.19,3.26,1-.33,1.64-1.28,2.75-1.39,1.33-1.64,2.46-3.42,3.63-5.16a5.05,5.05,0,0,0,.13-5.36c-.45-.87-1-1.67-1.43-2.56-2.3-4.82-.65-10.26,4-12.25a3.84,3.84,0,0,0,2.66-4.11,174.56,174.56,0,0,1,1.87-21.88c.33-2.5.94-3,3.56-3.21,1.91-.15,3.82-.12,5.74-.3a169.52,169.52,0,0,1,20.66-.62c2.2.07,2.82.82,2.62,3a39.22,39.22,0,0,0-.36,4.47c.2,9.56-.36,19.14.4,28.71.23,3,1.48,4.75,4.28,5.63h.37l-.24-.19c.33-.56.89-.5,1.42-.49q8.24.18,16.42,1.13c4.93.58,9.75,1.62,14.62,2.42a1.84,1.84,0,0,1,1.23.52v.13c.87-.25.88-1.07,1-1.8.34-2.68.79-5.34,1.25-8,2.72-15.95,5.82-31.83,9.66-47.56,2.3-9.41,5.13-18.63,9.74-27.28a161.59,161.59,0,0,1,15.9-23.87,40.15,40.15,0,0,0,4.65-8,2.58,2.58,0,0,0-1.2-3.79,29.15,29.15,0,0,1-4.21-2.73c-1.71-1.4-1.93-2.28-.69-4A117.37,117.37,0,0,1,304.84,241.46Z"/><path fill="#c95489" d="M18,226.12a9.92,9.92,0,0,0-1.76.46c-4.43,1.19-8.44.6-11.8-2.69l-.76-.5a1.76,1.76,0,0,0-1.93-.26c-.75.42-.59,1.15-.47,1.81.16.88.38,1.75.58,2.63a17.06,17.06,0,0,1,.43,6.21,22.35,22.35,0,0,1-1.62,5.58c-.34.8-1.07,1.61-.3,2.49s1.67.37,2.53.07a9,9,0,0,1,4.3-.47c2.23-.23,4.17.62,6.1,1.56.84.4,1.65,1.3,2.72.59s.54-2,.33-2.88a13.11,13.11,0,0,1,1.95-10.67,12.63,12.63,0,0,0,1.17-1.92C20,227,19.3,226,18,226.12Zm-13.1,13c-.86.1-1.61.14-1.17-1.11,1.24-3.5.93-7.07.51-10.7.61-.32.87.22,1.2.58a69.31,69.31,0,0,0,1,8.62C6.73,238.37,6.76,238.36,4.87,239.09Z"/><path d="M21.05,317.47c1.45-4.48,2.94-9,4.33-13.45,1.88-6.08,3.8-12.16,5.41-18.32a80.07,80.07,0,0,0,2.48-19.78c0-4.65-.16-9.29.2-13.93a106.47,106.47,0,0,1,4.73-24.42,24.44,24.44,0,0,1,4.63-8.22c3.21-3.82,6.41-7.66,9.75-11.36a112.87,112.87,0,0,0,13.49-18.43c4.9-8.29,9.74-16.63,15-24.75a104.62,104.62,0,0,1,17.7-21.46C110.1,133,123.41,126.47,139,124.7a54.33,54.33,0,0,1,25.17,2.6c12.76,4.68,21.17,13.42,25.14,26.16a25.24,25.24,0,0,1,.83,9.79,13.56,13.56,0,0,1-4,8.39,5.61,5.61,0,0,0-1.39,2.25q-4,12.18-7.93,24.37a18.53,18.53,0,0,0-.77,9.08,9.93,9.93,0,0,1-2.12,8c1-.08,1.72-.18,2.44-.2,3.69-.06,5.94,3.16,4.51,6.46A18.36,18.36,0,0,1,178,226a30,30,0,0,0-5,8.81,90.09,90.09,0,0,0-5.18,17.88A49.37,49.37,0,0,0,169.17,274c2.23,7.93,4.89,15.75,6.75,23.78a84.65,84.65,0,0,1,1.78,13.34c.18.79.43,1.57.54,2.36.41,2.77-.48,3.71-3.44,3.77-1-.39-1-1.29-1-2.09.11-10.86-2.79-21.16-5.94-31.45A123.42,123.42,0,0,1,164,269.39,56.37,56.37,0,0,1,166,243c.82-2.73,1.83-5.41,2.74-8.11a39.2,39.2,0,0,1,7.15-12.73c.58-.69,1.7-1.61.86-2.51s-2-.1-2.91.45A36.53,36.53,0,0,0,161.91,233a54.87,54.87,0,0,0-6.73,18.3,17.94,17.94,0,0,1-2,5.25c-2.66,4.9-7,6.16-11.95,3.47a52.73,52.73,0,0,1-8.86-6.41,46.86,46.86,0,0,0-5.82-4.38c-.56-.34-1-.92-2-.65-.13,1.72.74,3.15,1.58,4.53,4,6.51,9,12.26,13.94,18.11,6,7.19,11.74,14.61,15.64,23.19a31.91,31.91,0,0,1,2.66,12.44c.05,1.72,0,3.44.05,5.17,0,1.41,0,2.82,0,4.22-.05,1.16-.44,2.08-1.83,2.06a2,2,0,0,1-2.1-1.94c-.3-2.06.08-4.15-.22-6.2-1.25-2.27-3.21-4-4.95-5.85-3.88-4.13-7.73-8.28-11.15-12.64a8.16,8.16,0,0,1-6.95,4.08c-2.46-1.75-2.4-2.85.19-4a7.82,7.82,0,0,0,2.32-1.43c1.48-1.31,2-2.75,1-4.6a29.64,29.64,0,0,1-3.08-9.14,13.12,13.12,0,0,1,0-5.58,4.08,4.08,0,0,0-1-3.9A98.45,98.45,0,0,1,122.53,256a22.53,22.53,0,0,1-2.84-6.84,4.6,4.6,0,0,1,1.11-4.41c3.8-3.81,8.1-6.36,13.93-5a27.65,27.65,0,0,0,5.47.67c1.84,0,2.7-.81,2.71-2.56a14.71,14.71,0,0,1,.52-4.22c.88-2.83,2.27-3.71,5.3-3.34.67.08,1.46.46,2-.15s-.18-1.25-.48-1.81a26.83,26.83,0,0,1-2.1-5c-.88-3.13,1-5,4.28-4.26,1.72.39,3.35,1.08,5.07,1.5,1.5.36,2.43.2,2.8-1.56.58-2.7,2.57-4.12,5.22-4.79,6.49-1.65,6.69-1.67,6.42-8.07-.19-4.71,1.07-9,2.51-13.38,1.18-3.58.2-5.75-3.28-7.51-.54-.27-1.13-.46-1.66-.76-.84-.47-1.64-1.08-1.21-2.13s1.49-1.17,2.54-.9a13.11,13.11,0,0,1,4.27,2.15c1.9,1.34,1.95,1.35,2.69-.89a36.91,36.91,0,0,0,1.84-6c-3.49,1.4-6.63,3-10,4A66.56,66.56,0,0,1,148.8,184a38.44,38.44,0,0,0-7.34.49,7.26,7.26,0,0,0-5.45,3.67c-1.53,2.71-2.24,2.85-4.81,1.15a2,2,0,0,0-2.71.11c-3.27,2.86-4.28,6.67-4.44,10.72,0,1.48,1.31,2.28,2.67,2.77.94.34,1.95.44,2.9.73s1.81.9,1.8,2.05a1.87,1.87,0,0,1-1.67,1.89c-1.75.22-2.14,1.21-2.33,2.74-.82,6.68-1.16,13.43-2.7,20-1.24,5.35-2.8,10.58-6.43,15-1.94,2.37-4.42,4.14-6.74,6.09-3.28,2.77-6.34,5.68-7.61,9.92a30.23,30.23,0,0,1-8.08,16.33c-.94,1-1.85,2-2.78,3-5,5.32-6.49,11.78-6.45,18.69a62,62,0,0,1-1.46,15.38c-.27,1.08-.38,2.24-1.42,3C80.53,328.12,73.69,336.25,66.26,344a44.59,44.59,0,0,1-9.15,7.49,2.38,2.38,0,0,0-1.22,2.57c.69,12.63,1.55,25.26,1.51,37.93,0,6.59-.54,13.17-1,19.74-.61,8.36-1.35,16.72-2.15,25.07-.91,9.54-2.28,19-3.94,28.47q-2.69,15.25-5.36,30.53a10.31,10.31,0,0,1-.44,1.74,1.36,1.36,0,0,1-1.42.94,1.45,1.45,0,0,1-1.41-1.24,8.76,8.76,0,0,1,.17-3.57c.79-4.5,1.66-9,2.45-13.48,2.53-14.31,5.06-28.62,6.55-43.07.42-4.09,1-8.18,1-12.3-.77-2.22-.12-4.45,0-6.65.36-6.34,1.12-12.65,1.2-19,0-3.51.61-7,.5-10.52-.32-9.7-1.08-19.39-1-29.11,0-4.27-.22-4.24-4.34-2.91-6.37,2.05-12.75,2.58-19.08-.1-3.3-1.4-6.24-3.24-7.44-6.84-3.87-7-3.93-14.41-2.7-21.95C19.48,324.29,20.34,320.89,21.05,317.47Z"/><path fill="#fffefd" d="M397,500.31c-1,.4-1.32,1.53-2.31,2.1-2.12,1.24-4.41,1.13-6.66,1.17-4.59.09-8.58-1.88-12.57-3.77A55.52,55.52,0,0,0,360.47,495c-4.66-.76-9.36-1.09-14.07-1.48A39.81,39.81,0,0,0,332.45,495c-5.88,1.62-11.66,3.56-17.6,5-1.55.37-3,1.14-4.58,1.4a69.42,69.42,0,0,1-7,.7c-3.9.21-7.82.09-11.73.05a22.62,22.62,0,0,1-6.05-1.13c-4.68-1.34-9.26-3-14-4.13a26.46,26.46,0,0,1-4.47-1.73,34.87,34.87,0,0,0-4.63-1.95,7.2,7.2,0,0,1-3.26-2.33,57.09,57.09,0,0,1-1.52-10.14c-.8-8.48-.42-17-.49-25.48q0-3,0-6a5.66,5.66,0,0,1,.48-2.84c.6-.88,1.45-.77,2.32-.53a5.89,5.89,0,0,1,.59.21,8.09,8.09,0,0,0,1.07.4c.17,0,.33.1.5.15a5.77,5.77,0,0,0,1,.09,2,2,0,0,1,.7.38,3.89,3.89,0,0,0,1.42.68l.5.16a6.38,6.38,0,0,0,1.07.13,2,2,0,0,1,.74.4,9.31,9.31,0,0,0,2.7,1.08,4.6,4.6,0,0,1,.52.19,9.58,9.58,0,0,0,1,.37,4,4,0,0,1,.49.17,8.57,8.57,0,0,0,1,.31l.5.17c.34.12.69.21,1,.3a3.09,3.09,0,0,1,.54.17,4.86,4.86,0,0,0,2.23.4,1.59,1.59,0,0,1,.79.24,2.2,2.2,0,0,0,1.29.23,2.34,2.34,0,0,1,.8.33,3.77,3.77,0,0,0,2.58.55,1.61,1.61,0,0,1,.83.22,2.11,2.11,0,0,0,1.31.24,2.51,2.51,0,0,1,.8.31,5.91,5.91,0,0,0,3.18.57,1.93,1.93,0,0,1,.87.27,6.19,6.19,0,0,0,3.74.62,2.2,2.2,0,0,1,.87.26,8.64,8.64,0,0,0,4.11.64,1.82,1.82,0,0,1,.86.24,3.36,3.36,0,0,0,2.51.14,1.21,1.21,0,0,1,1.05.4c1.31.53,2.58.14,3.86-.13a12.43,12.43,0,0,1,3.85,0,5.89,5.89,0,0,0,2.57.26.8.8,0,0,1,.84.65c0,.24-.46.56.1.74a.79.79,0,0,1,.36.83c-.35.65.52,0,.45.41a39,39,0,0,1,2.39,6.42c.14.28-.42.53,0,.83a.7.7,0,0,1,.33.61c-.35.46.09.36.31.42a1.7,1.7,0,0,1,.71,1.72c-.22.21-.46.42.1.45a3.2,3.2,0,0,1,1.19,1.82,1.18,1.18,0,0,1-.07.67,3.24,3.24,0,0,0,.2.36.64.64,0,0,0,.45-.11,3.53,3.53,0,0,1,.46.15,1.1,1.1,0,0,0,.44,0,1.68,1.68,0,0,1,.66-.19,2.68,2.68,0,0,0,1-.13l.53-.19a35.29,35.29,0,0,0,4.05-1.42,5.48,5.48,0,0,1,.56-.23,11.4,11.4,0,0,0,1.61-.57,4.44,4.44,0,0,1,.49-.24,6,6,0,0,0,.89-.6,1.2,1.2,0,0,1,.82-.21,3.12,3.12,0,0,0,1.46-.06,3,3,0,0,1,.74-.32,3.89,3.89,0,0,0,.47,0,.75.75,0,0,0,.26-.35,3.51,3.51,0,0,1-.16-.73c.05-.89-.48-1.85.36-2.64a10.64,10.64,0,0,1,6.51,0,14.34,14.34,0,0,0,7.77.07,7.3,7.3,0,0,1,4.16-.34,2.93,2.93,0,0,0,2.78-.29c3.89-.67,7.8-.35,11.7-.22,1,.21,2,.66,3.06,0a3.92,3.92,0,0,1,2.65-.34c.67.15,1.34.43,2-.06a2.48,2.48,0,0,1,1.7-.35,1.88,1.88,0,0,0,1.32-.06,2.56,2.56,0,0,1,1.58-.35,1.57,1.57,0,0,0,1-.15,1.63,1.63,0,0,1,1.25-.24c.2.07.42.55.59,0a.83.83,0,0,1,.86-.35c.18.05.39.3.52-.07a.91.91,0,0,1,.63-.36c.4-.13.53-.54.85-.77,4.61-2.61,6.43-6.85,7.17-11.71,1.28-8.37,1.74-16.81,2.42-25.24.73-9.1,1.75-18.17,2.85-27.24,1.27-10.4,2.5-20.79,3.22-31.26.79-11.35,1.55-22.69,1.25-34.07-.35-13.2-1.52-26.31-5.81-39C395,285.8,392,279.28,387.1,273.72a27.82,27.82,0,0,0-32.26-6.83C343.53,271.82,337.73,280.73,335,292a91.07,91.07,0,0,0-2.2,16.91,214,214,0,0,0,.1,25.58c.28,3.88.07,7.76.48,11.65,1.51,14.38,3.18,28.73,5.86,42.95.35,1.84.46,3.71.79,5.56a2.27,2.27,0,0,1-1.36,2.78c-6.27,2.67-12.21,5.95-18.29,9a1.66,1.66,0,0,1-1.12.14c-1-.56-.78-1.55-.84-2.41-.13-1.67-1-2.31-2.62-1.85a47,47,0,0,1-11.53,2,2,2,0,0,0-2.06,2,11.35,11.35,0,0,0,0,2.47c.32,2.76,0,3.09-2.89,3.14a7.87,7.87,0,0,1-1.61,0c-7.1-1.32-14.34-1.28-21.5-2-3.51-.36-7-.72-10.53-1-4.88-.43-5-.53-4.51-5.25,1.45-14.62,3.42-29.17,6.12-43.61,3.26-17.47,6.44-35,11.85-52,3.68-11.55,9.85-21.91,17.17-31.62,3.42-4.53,6.92-9,9.09-14.27a1.46,1.46,0,0,1,2.36-.81c.34.18.66.38,1,.58,4.46,2.75,4.77,2.67,8.3-1.3a102.61,102.61,0,0,1,22.3-19.34c5.63-3.5,11.34-6.87,17.1-10.18,2.3-1.31,3.15-1,5,.87a361,361,0,0,1,31.05,37.85,34.7,34.7,0,0,1,3,4.51c.27.28-.18.72.22,1a1.3,1.3,0,0,1,.83,1c-.05.16-.47.44.13.41a1.13,1.13,0,0,1,.79,1c-.07.15-.48.41.11.38a1.13,1.13,0,0,1,.8.9c0,.18-.26.42.14.5a1,1,0,0,1,.42.58,1.83,1.83,0,0,0,.44.6,1.12,1.12,0,0,1,.38.64c-.06.16-.44.4.11.41a.64.64,0,0,1,.34.62c-.06.13-.21.18-.29.29a1.9,1.9,0,0,1,.41,0,1.13,1.13,0,0,1,.82.89c0,.17-.3.42.12.5a.6.6,0,0,1,.32.58c-.05.14-.19.16-.29.24a1.74,1.74,0,0,0,.39,0,.64.64,0,0,1,.36.6c0,.14-.19.16-.29.23a1,1,0,0,0,.39.07.64.64,0,0,1,.36.61c-.05.14-.19.16-.3.22a1.07,1.07,0,0,0,.39.07.67.67,0,0,1,.39.59c-.29.48.18.4.4.5a3.74,3.74,0,0,1,1.12,2.21c.1.26-.43.52,0,.78a.67.67,0,0,1,.3.59c-.36.51.2.31.35.43a1.73,1.73,0,0,1,.65,1.75c-.37.46,0,.5.34.54a23.58,23.58,0,0,1,3,8.35c-.3.52.1.7.47.89,2.28,5.37,3.19,11.08,4.44,16.7,2.9,13.12,3.26,26.44,2.76,39.76-.35,9.5-1.91,18.91-3.29,28.31-3.07,20.89-6,41.8-9.07,62.69-2.08,14.3-4.43,28.56-6.65,42.85a31.8,31.8,0,0,0-.26,4.25A3.31,3.31,0,0,1,397,500.31Z"/><path d="M335.06,465.67a2.74,2.74,0,0,1,.24,2.76c0,.19,0,.3-.24.31l.11.12-.11-.11c0,.19-.13.27-.33.2s-.45,0-.54.28c-.64.6-1.42.18-2.14.28a.52.52,0,0,0-.59.25c-.25.27-.64.21-.93.39h0a10.77,10.77,0,0,1-2.3.9h0a32.54,32.54,0,0,1-5.09,1.75h0c-.15.37-.46.31-.76.27a.51.51,0,0,0-.57.23c-.29.32-.56.33-.81,0-.09-.25-.3-.29-.54-.27s-.3,0-.33-.2a.25.25,0,0,1-.24-.32c-.39-.77-.77-1.54-1.15-2.31-.14-.05-.21-.13-.21-.23s0-.17.06-.17a2.84,2.84,0,0,0-.8-1.84.29.29,0,0,1-.15-.41c.06-.23,0-.42-.23-.51s-.25-.1-.25-.21,0-.18.07-.18a48.74,48.74,0,0,0-2.75-7.18v0a.9.9,0,0,0-.36-.93c-.14-.06-.21-.14-.2-.24s0-.17.06-.17c0-.35.09-.73-.44-.79a8.37,8.37,0,0,1-2.18.08h-4.8c-1.18-.08-2.39.29-3.54-.23a1.18,1.18,0,0,0-1.07-.22c-.86-.1-1.79.33-2.6-.28a.48.48,0,0,0-.61-.18,15.68,15.68,0,0,1-4.46-.7.49.49,0,0,0-.62-.19,12.92,12.92,0,0,1-4-.68.54.54,0,0,0-.6-.21,11.51,11.51,0,0,1-3.53-.73.48.48,0,0,0-.59-.21c-.44,0-.9.19-1.27-.2a.51.51,0,0,0-.59-.22,7.64,7.64,0,0,1-3.09-.68.53.53,0,0,0-.59-.23c-.43,0-.91.19-1.24-.25a.46.46,0,0,0-.58-.23,5.4,5.4,0,0,1-2.61-.71h0c-.42-.26-1.06.13-1.37-.45h0c-.41-.26-1.06.13-1.37-.45h0c-.41-.27-1.06.13-1.36-.46h0a17.83,17.83,0,0,1-3.7-1.29.42.42,0,0,0-.56-.26c-.31.08-.61.14-.8-.22h0a10.57,10.57,0,0,1-2.32-.85.44.44,0,0,0-.55-.26c-.31.06-.62.11-.82-.22h0c-.38-.34-1.05.08-1.35-.49h0c-.82,0-1.5-.92-2.41-.35a13.92,13.92,0,0,0-.4,4.21c-.08,10.1,0,20.19.45,30.28a58,58,0,0,0,1,7.78,4.65,4.65,0,0,1-.15,2.64c-1.9.6-2.71.24-3.08-1.65-.42-2.21-.73-4.43-.95-6.66-.74-7.32-.46-14.66-.59-22a114.3,114.3,0,0,1,.53-14.8c.12-1,0-1.66-1.17-2C248,442,242.22,440,236.14,439a65.85,65.85,0,0,0-7.55-.61c-8.67-.33-17.32.52-26,.32a21.76,21.76,0,0,1-4.34-.38c-3-.67-4.81-2.62-4.57-5.56.25-3.16.11-6.49,2.36-9.19a.78.78,0,0,0,.07-.86c-.77-.31-1.48.15-2.23.23-2.12.24-3-.39-3.3-2.43-.23-1.85-.33-3.72-.46-5.59-.2-3-.3-6-.58-8.95-.19-1.92-1.79-3-3.17-4.09-.83-.66-1.84-1.09-2.68-1.74-2-1.57-3.4-3.64-2.88-6.21a9.5,9.5,0,0,0-.87-6.05,6.57,6.57,0,0,1,2.07-4.14c2.28-2.35,2.5-4.41.56-7a10.7,10.7,0,0,1-1.69-9,8,8,0,0,1,5.78-6.16c1.24-.4,1.66-.78,1.65-2.11a147.75,147.75,0,0,1,2.11-24.57c.27-1.8.38-1.89,2.1-2,9.42-.57,18.82-1.53,28.27-1,.39,0,.77,0,1.15,0,1.65.15,2.16.64,2.13,2.28,0,2.17-.22,4.34-.24,6.51-.05,6.88-.08,13.77-.05,20.66,0,2.62.31,5.23.33,7.85a3.77,3.77,0,0,0,1.88,3.56c.65.38,1.05,1.11,1.84,1.29a2.81,2.81,0,0,1,1.74.45c6.34,3.62,13.19,4.27,20.35,3.46a51.1,51.1,0,0,1,8.92,0,5.3,5.3,0,0,0,2.68-.31c.52-3.1,1.06-6.19,1.55-9.29,1.47-9.47,3.45-18.85,5.32-28.25,2-10,4.3-19.9,7.11-29.71,3.51-12.26,9.7-23.23,17.13-33.59,1.89-2.63,3.95-5.15,5.88-7.76a35.63,35.63,0,0,0,4.81-8.4c.6-1.56.56-1.63-.93-2.49a37.64,37.64,0,0,1-4.78-3.11c-1.9-1.52-2.08-2.45-.72-4.36a90.37,90.37,0,0,1,11-13.25,1.76,1.76,0,0,0,.53-2.32,57,57,0,0,0-3.24-6.44,9.15,9.15,0,0,0-5.67-4.28c-4.88-1.29-9.54-3.25-14.45-4.49-3-.76-4.06-2.58-3.64-5.58.23-1.63.57-3.24.94-4.85a3.3,3.3,0,0,0-1.84-4c-.33-.19-.67-.36-1-.56-2.24-1.41-2.78-2.64-2-5.11.28-.89.18-1.24-.74-1.67-2.73-1.28-3.35-2.73-2.08-5.43,1.12-2.39.51-2.69-1.06-4a69.92,69.92,0,0,1-5.74-4.84,13.72,13.72,0,0,1-3.19-4.88,5.25,5.25,0,0,1,.83-5.3c.64-.84,1.3-1.66,2-2.49,1.09-.55,1.25.34,1.52,1a4.65,4.65,0,0,1,.34,2.33c-1.49,2.74-.39,4.82,1.66,6.79,1.65,1.57,3.42,3,5.17,4.45,2.35,2,4.12,4.12,2.59,7.39-.44.92,0,1.56.86,2,2.08,1.1,3,2.63,2.12,5-.4,1,.3,1.71,1.12,2.22,3.4,2.13,4.06,5.16,3.24,8.81-1,4.66-1,4.67,3.69,6,4.13,1.15,8.14,2.68,12.24,3.93,3.28,1,5.47,3.49,7.11,6.4a41.57,41.57,0,0,1,1.95,3.82c.58,1.34,1.24,1.43,2.41.57,4-2.91,8.16-5.58,12.31-8.28a170.8,170.8,0,0,1,22.1-12c1.58-.72,2.31-1.4,1.67-3.19-.9-2.52-.78-5.17-.7-7.79a2.63,2.63,0,0,0-1.92-2.93,23.49,23.49,0,0,1-14.42-13c-.44-1-1-1.14-2-.78a2.1,2.1,0,0,1-3-1.22c-.54-1.39.44-2,1.54-2.58a9.73,9.73,0,0,0,4.36-5,79.17,79.17,0,0,0,3.62-10.41c.5-1-.07-2.45,1.18-3.22,1.45-.44,1.76-1.39,1.52-2.78a14.34,14.34,0,0,0-3-6.68,7.34,7.34,0,0,0-5.83-2.65A51.41,51.41,0,0,0,318,151.18c-7.66,1.8-15.35,3.49-22.79,6.09a4,4,0,0,1-2.24.33c-1.41-.67-1.71-2.07-2-3.33-1.79-7.21-7.71-9.22-14-10.76-1.18-.28-1.52.37-1.4,1.37a24.84,24.84,0,0,1,.42,4.22c0,2.09,0,4.18,0,6.26,0,2.71-1.26,4-4.2,4.58a69.35,69.35,0,0,0-.11-16.79,2.71,2.71,0,0,0-1.88-2.45,30.25,30.25,0,0,1-16.38-16.77c-2.89-6.83-1.46-13,3-18.74,2.45-3.16,5.91-4.38,9.73-4.91,2.28-.31,4.56-.59,6.85-.74,6.05-.37,11.21-2.86,16-6.21a51.75,51.75,0,0,0,5.79-4.76A29.18,29.18,0,0,1,298,87.11a8.08,8.08,0,0,1,9.07,3.2c.68,1,1.22,2.07,1.87,3.09a7,7,0,0,0,5.87,3.4,35.09,35.09,0,0,0,10-1.28c2.75-.68,5.51-1.31,8.23-2.07a12.4,12.4,0,0,1,10.1,1.69,26.88,26.88,0,0,1,7.21,5.88c3.58,4.43,8.33,6.38,13.91,6.92a26.82,26.82,0,0,1,6.06,1.28c5.52,1.86,8.56,6,8.56,11.72a16.72,16.72,0,0,1-.09,2.24,11.79,11.79,0,0,0,2.57,9,15.73,15.73,0,0,1,3.15,5.93,15.38,15.38,0,0,1-1.83,11.05,89.44,89.44,0,0,1-9.17,13.7c-4.72,5.9-9.45,11.79-13.87,17.91a40.91,40.91,0,0,0-6.14,12c-.89,2.93-1.71,5.91-.92,9,1.12,1.57.65,3.47,1.12,5.19s1,2.2,2.7,1.46a9.21,9.21,0,0,1,3.32-.77c1.29-.09,2.61-.32,3.57.87a12.27,12.27,0,0,1-.23,5.52,53.85,53.85,0,0,0-2,10.13,6.56,6.56,0,0,0,2.23,5.39c15.6,15.42,28.79,32.68,40.45,51.05,5,7.95,8.09,16.79,10.51,25.8,3.59,13.37,6.24,26.89,5.72,40.79-.16,4.25-.13,8.5-.47,12.75-.61,9.94-2.1,19.79-3.52,29.64q-2.4,16.54-4.84,33.1C409,438,407,453.29,404.46,468.51c-1.46,8.78-2.72,17.6-4,26.41a31.71,31.71,0,0,0-.26,4c0,.86-.12,1.64-1,2.08s-1.56-.23-2.21-.72c-.44-4.3.43-8.5,1.08-12.71,1.75-11.31,3.6-22.61,5.3-33.93,2.17-14.5,4.25-29,6.33-43.53,1.88-13.19,3.76-26.37,5.55-39.57,1.39-10.28,1.2-20.61.73-30.93-.55-12.26-3.16-24.15-6.59-35.9A5.19,5.19,0,0,0,409,303c-.14-.06-.2-.14-.19-.24s0-.17.07-.17a39.3,39.3,0,0,0-3.1-8.58c-.13-.06-.2-.13-.2-.24s0-.17.05-.17a3,3,0,0,0-.8-1.83.31.31,0,0,1-.14-.42.36.36,0,0,0-.23-.51q-.24,0-.24-.21t.06-.18a6.83,6.83,0,0,0-1.27-2.73.3.3,0,0,1-.17-.41.36.36,0,0,0-.27-.5.27.27,0,0,1-.17-.4c.05-.25,0-.43-.28-.5s-.27-.2-.19-.4a.37.37,0,0,0-.29-.5.29.29,0,0,1-.19-.4.37.37,0,0,0-.31-.48.38.38,0,0,1-.19-.41,1.46,1.46,0,0,0-.6-1c-.23,0-.32-.16-.24-.38a.38.38,0,0,0-.3-.5.29.29,0,0,1-.21-.39.38.38,0,0,0-.33-.48,2.35,2.35,0,0,1-.52-.87.41.41,0,0,0-.33-.5.33.33,0,0,1-.22-.39,1.38,1.38,0,0,0-.67-1,.29.29,0,0,1-.23-.39,1.38,1.38,0,0,0-.68-1,.3.3,0,0,1-.25-.38,1.41,1.41,0,0,0-.69-1,.3.3,0,0,1-.23-.38,109.32,109.32,0,0,0-7.57-10.7c-7.7-10.19-15.55-20.26-24.41-29.53-1.2-1.26-2.45-2.48-3.63-3.76a1.17,1.17,0,0,0-1.78-.23,5.92,5.92,0,0,1-.61.33c-6.26,3.62-12.51,7.27-18.63,11.13a87.43,87.43,0,0,0-16,13.15q-3.49,3.59-7,7.18c-2.35,2.43-2.94,2.5-5.87.66-1.09-.68-2.18-1.38-3.41-2.16-.56,1.21-1.07,2.35-1.61,3.46a62.89,62.89,0,0,1-7,10.55,118.45,118.45,0,0,0-16.93,29.22c-2.57,6.5-4.14,13.3-5.74,20.08-4,17.07-7.46,34.26-10,51.6-1.38,9.26-2.74,18.53-3.51,27.86-.39,4.74-.7,3.79,3.72,4.22,5.57.54,11.13,1.2,16.72,1.57a119.34,119.34,0,0,1,14.86,1.53,16.25,16.25,0,0,0,2.52.16c2.55.1,2.39.19,2.12-2.28a15.54,15.54,0,0,1,0-4,1.57,1.57,0,0,1,1.84-1.54,33.2,33.2,0,0,0,12.17-2c2.14-.74,3.15,0,3.29,2.3.05.82.09,1.64.13,2.46,1.14,3.21,1.15,6.62,1.72,9.92,2.78,16,6.88,31.62,13.41,46.58A6.12,6.12,0,0,1,335.06,465.67Z"/><path fill="#c95388" d="M83.75,317.69A54.65,54.65,0,0,0,86,302c0-2.16.2-4.32.22-6.49.07-6.32,2.81-11.51,7-16.09,1-1.05,1.91-2.14,2.89-3.18A24.8,24.8,0,0,0,103,261.9c0-.2.22-.37.33-.56a12.15,12.15,0,0,0,1.74.56c9.64.8,14.79,6.91,18.36,14.84,1.79,4,3.16,8.09,5.09,12a7.54,7.54,0,0,0,3,3.5c-.41.53-1.12.31-1.77.68.44.91.38,2.06,1.59,2.55a2.37,2.37,0,0,1,1.12,1.37c3.34,7.61,5.93,15.4,6.61,23.73.34,4.17,1.65,8.23,1.52,12.46-1.13,1.1-1.61,2.75-3.14,3.51a4.33,4.33,0,0,0-3.06,2.47c-1.14,2.32-2.85,3.82-5.73,3.72a5.23,5.23,0,0,0-3.93,2.07,8.68,8.68,0,0,1-5,3,2,2,0,0,0-1.06.42c-3.45,3.22-8.06,4.9-11.47,8.18-1,.67-2.07,1.4-3.36.54-1.12-.42-1.49-1.48-2-2.36-3.22-5.37-5.59-11.13-8.14-16.82-2.77-6.16-5.25-12.44-8.74-18.28A4.49,4.49,0,0,0,83.75,317.69Z"/><path fill="#f2adcc" d="M419.55 360c0-4.86-.09-9.72-.06-14.58.1-12-2-23.68-4.85-35.27a130.84 130.84 0 00-7.29-21.47C403.88 280.88 398.89 274 394 267c-5.73-8.06-12-15.7-18.21-23.42a166.92 166.92 0 00-13.56-14.35 5.19 5.19 0 01-1.71-4.16c.09-4 1.22-7.82 2.16-11.67.39-1.59 1-3.15.69-4.84.14.17.43.37.4.5-.35 1.86 1 2.59 2.23 3.53 3.8 3 7.82 5.7 11.8 8.43 2.69 1.84 5.53 3.47 8.29 5.19 2.25 1.4 4.27 3.15 6.68 4.33.52 1.59 2.43.92 3.31 1.94 1 1.65 2.79 2.55 4.25 3.72a102.68 102.68 0 0113.6 13.26 86.8 86.8 0 0112.44 18.77 74.37 74.37 0 016.12 18.92 101.74 101.74 0 011.75 21.6 75.81 75.81 0 01-1.54 13.08 67.55 67.55 0 01-2.83 10.59 73.36 73.36 0 01-8.44 16.1 7.1 7.1 0 00-1.43 4.6c.1 1.72 0 3.45 0 5.17C419.92 358.9 420.06 359.53 419.55 360zM21.63 349.69c4.59 6.49 11.18 8.39 18.84 7.86a32.86 32.86 0 0010.6-2.75c.48-.2.91-.6 1.63-.43a58.3 58.3 0 01.49 7.72c0 7 .47 13.9.78 20.85a198.85 198.85 0 01-.44 20.86c-.34 5.83-.82 11.64-1.27 17.46-.09 1.19-.29 2.37-.44 3.56a82.92 82.92 0 01-6.23-7.42 166.9 166.9 0 01-12.44-17.72 60.27 60.27 0 01-5.69-13.88 104.21 104.21 0 01-3-12.86c-.6-3.59-1.28-7.17-1.66-10.81C22.38 358 22 353.84 21.63 349.69z"/><path d="M103.94,357a8.3,8.3,0,0,0,3.21-.87c1,.32,1.07,1.21,1.31,2a236.41,236.41,0,0,0,14.4,34.73,261.36,261.36,0,0,0,15.36,26.58,36.8,36.8,0,0,0,12.18,12,27.39,27.39,0,0,0,9.67,3.4,6.39,6.39,0,0,0,6.48-2.46c3.56-4.44,5.2-9.67,6.16-15.08a83,83,0,0,0,.8-20.12c-.39-5.74-.84-11.48-1.13-17.22-.44-8.59-.82-17.18-.85-25.77,0-4.56.55-9.11.44-13.68a2.83,2.83,0,0,1,.45-1.71,2.37,2.37,0,0,1,3.35-.25c.07,11-.32,22.1.2,33.14.25,5.22.59,10.43.91,15.65a19.42,19.42,0,0,0,.32,2c.16,4.79.38,9.57.48,14.36.14,7.14-.35,14.21-2.73,21-1.5,4.29-3.29,8.4-6.63,11.66a2.5,2.5,0,0,0-.64,2.06q0,5.28.11,10.56a358.75,358.75,0,0,1-1.55,39.47c-.39,4-.71,8.06-1.05,12.09a6,6,0,0,1-.45,2.18,1.5,1.5,0,0,1-2.79-.24,7.54,7.54,0,0,1-.07-2.68q.76-9.18,1.55-18.35c.68-7.91.86-15.85,1-23.78.08-5.69.11-11.38.15-17.07a2.8,2.8,0,0,0-.32-1.95A20,20,0,0,1,154,437.38a33,33,0,0,1-12.14-7.48,59.87,59.87,0,0,1-9.2-11.74c-6.73-11.07-13.2-22.27-18.39-34.12C110.4,375.17,106.58,366.28,103.94,357Z"/><path fill="#c95489" d="M278,68.75c-.75,1-.37,2.17-.49,3.26-.45,4.07-2.67,7.08-5.9,9.48a11.53,11.53,0,0,0-3.41,3.26,1,1,0,0,1-1.36.51,1.25,1.25,0,0,1-.69-1.51,2.37,2.37,0,0,1,.86-1.3,29.29,29.29,0,0,1,2.9-2.54c2.68-1.92,4.61-4.33,5-7.69a31.46,31.46,0,0,0,.73-4.83,21.46,21.46,0,0,1,1.52-5.62A8.86,8.86,0,0,1,282,56.88l3-1.24c2.69-1.15,4.4-3.08,4.46-6a8.66,8.66,0,0,1,4.24-7.28,16.41,16.41,0,0,0,6.65-9.93,12.56,12.56,0,0,0,.25-3.34,1,1,0,0,1,.86-1.16,1.12,1.12,0,0,1,1.25.78,5.25,5.25,0,0,1,.2,3.32,18.5,18.5,0,0,1-6.53,11.3,17.34,17.34,0,0,1-1.44,1.12,6.67,6.67,0,0,0-3.11,5.67,8.11,8.11,0,0,1-5.2,7.35c-1,.48-2.09,1-3.15,1.37a6.87,6.87,0,0,0-4.24,4.43A20.56,20.56,0,0,0,278,68.75Z"/><path fill="#010101" d="M62.69,395.14c0-9.37-.67-18.7-1.36-28-.11-1.57-.16-3.14-.2-4.71,0-.82.21-1.56,1.23-1.52s1,.77,1,1.48c.44,6.05.85,12.1,1.37,18.14a203.36,203.36,0,0,1,0,29.62c-.21,3.66-.54,7.32-.82,11a3.74,3.74,0,0,1-.12.89,1.12,1.12,0,0,1-1.19.86,1.07,1.07,0,0,1-1-1,16.75,16.75,0,0,1,0-2.24c.52-6.72,1-13.44,1.15-20.18C62.72,398,62.69,396.56,62.69,395.14Z"/><path fill="#c95489" d="M71.77,100.19A40,40,0,0,1,73,105.64c.27,3.06,1.87,4.68,4.86,5.37a13.44,13.44,0,0,1,7.49,4.06A19.65,19.65,0,0,1,88.45,120a3.68,3.68,0,0,1,.29,1.08.91.91,0,0,1-.55,1.1,1.22,1.22,0,0,1-1.28-.22,4.13,4.13,0,0,1-1-1.72,10.67,10.67,0,0,0-8.24-6.8c-5.15-.92-6.81-4.21-7.33-8.66a9.08,9.08,0,0,0-.9-3.64c-.8-2-2.41-2.94-4.56-3.22a47.82,47.82,0,0,1-5.44-.78,9.38,9.38,0,0,1-6.2-4.59,18.69,18.69,0,0,1-2.34-9.91,3.82,3.82,0,0,1,.12-.89A1,1,0,0,1,52,81a.87.87,0,0,1,.9.85c.14,1.11.19,2.23.37,3.33A24.12,24.12,0,0,0,54,88.43c1.36,4.49,3.74,6.38,8.53,6.84.53,0,1.07.07,1.6.11C67.53,95.63,70.25,97,71.77,100.19Z"/><path fill="#c9548a" d="M396.23 128.08a1 1 0 01-1-1.42 2.59 2.59 0 01.79-.79c3.79-2.62 5.41-6.35 5.93-10.7.24-2 .57-4 1-6a9.93 9.93 0 016.08-7.65 20.06 20.06 0 002.64-1.38 7.33 7.33 0 003.57-4.76c.34-1.46.67-2.92 1.05-4.37a10.72 10.72 0 013.52-5.67c1.28-1.07 2.55-2.15 3.85-3.21a4.43 4.43 0 011.16-.7 1 1 0 011.29 1.43 4 4 0 01-1.51 1.66 14.56 14.56 0 00-6.9 10.88c-.46 3.38-2.59 5.66-5.57 7.26a14.75 14.75 0 01-1.64.82c-3.2 1.22-4.73 3.65-5.29 6.81-.46 2.58-.87 5.16-1.37 7.73a15.13 15.13 0 01-5.65 9A4.11 4.11 0 01396.23 128.08zM179.41 65.59A6 6 0 00181 72.33a31.24 31.24 0 015.88 6.53c2.28 3.8 2.24 7.8 1.32 11.9-.15.67-.59 1.32-1.41 1.21s-.87-.91-.85-1.59a11.1 11.1 0 01.18-2c1.15-5.12-1.18-9-4.72-12.36-.7-.68-1.49-1.28-2.2-2a7.45 7.45 0 01-2.53-5.33c.12-1.34.27-2.68.37-4a6.11 6.11 0 00-2.38-5.54c-1.35-1.1-2.82-2.06-4.14-3.2-4.11-3.55-4.65-7.67-2.82-12.38a3.4 3.4 0 011.13-1.66 1.08 1.08 0 011.29 0 .85.85 0 01.31 1.18 12.49 12.49 0 00-1.23 3.35 7.17 7.17 0 002.08 7 20.55 20.55 0 003.57 2.81C178.27 58.49 179.88 61.55 179.41 65.59z"/><path fill="#ca548a" d="M396,232.51c-.76,0-1.52,0-2.28-.1-1.25-.11-1.56-.76-1-1.84a3.32,3.32,0,0,1,2-.28,3,3,0,0,0,3-1.6,22.28,22.28,0,0,0,2-4.05,7.11,7.11,0,0,1,6-4.86A3.59,3.59,0,0,0,409,217a21.06,21.06,0,0,1,1.12-2.7,5.54,5.54,0,0,1,2.93-3c2.76-1.13,4.55-3.23,6.2-5.52a16.93,16.93,0,0,1,1.07-1.45,1.11,1.11,0,0,1,1.9.87,2.08,2.08,0,0,1-.46,1.24c-1.95,2.7-3.87,5.44-7.17,6.76a4.22,4.22,0,0,0-2.44,2.54,4,4,0,0,0-.23.63c-.92,3.45-3,5.64-6.79,6a3.41,3.41,0,0,0-2.72,2.18c-.76,1.55-1.48,3.12-2.33,4.63S398.08,232.23,396,232.51Z"/><path fill="#c9548a" d="M8.11,190.61a7.41,7.41,0,0,0,4.34,3.11,31.31,31.31,0,0,1,3.82,1.52c2.17,1.1,3.5,2.83,3.32,5.21-.21,2.73,1,4.34,3.39,5.49,2.22,1.07,3.95,2.82,5.9,4.27a3.24,3.24,0,0,1,.63.65,1,1,0,0,1,0,1.25,1,1,0,0,1-1.22.38,4.08,4.08,0,0,1-1.4-.74,40,40,0,0,0-7.07-5,5,5,0,0,1-2.52-4.49c-.07-3.65-.71-4.53-4.18-5.79-1.74-.62-3.34-1.52-5-2.28-2.42-2.2-3.31-5.07-3.66-8.16a8,8,0,0,1,0-1.55.92.92,0,0,1,.94-.8.81.81,0,0,1,.9.53A9.38,9.38,0,0,1,6.69,186,12.75,12.75,0,0,0,8.11,190.61Z"/><path fill="#030202" d="M399,171.32c0,.78-.62,1.14-1.18,1.54-2,1.39-4,2.78-6,4.19a91.13,91.13,0,0,0-10.42,8.45,40.71,40.71,0,0,0-5.76,6.68c-.41.61-.88,1.42-1.79.89s-.53-1.44,0-2.13c.92-1.28,1.84-2.58,2.86-3.78a64.23,64.23,0,0,1,10.68-9.82c2.8-2.09,5.67-4.08,8.53-6.1a6.1,6.1,0,0,1,1.58-.87A1.11,1.11,0,0,1,399,171.32Z"/><path fill="#030203" d="M27.91,144.75c2.71,3.51,5.55,6.93,8,10.67a75.84,75.84,0,0,1,4.29,7.41,13.39,13.39,0,0,1,.7,1.65c.23.69.24,1.39-.58,1.7s-1.15-.21-1.47-.76c-.42-.71-.79-1.45-1.18-2.18a85,85,0,0,0-11-16.21c-.38-.53-.75-1.07-1.13-1.61s-.61-1.23.06-1.75,1.23,0,1.7.46C27.49,144.34,27.7,144.54,27.91,144.75Z"/><path fill="#070606" d="M58.62,448.37c.37-3.74.71-7.07,1-10.4.07-.75.39-1.36,1.24-1.27s1.1.74,1,1.49c-.16,2.23-.33,4.45-.54,6.67-.13,1.34-.3,2.67-.52,4-.12.75-.37,1.57-1.39,1.39-.85-.15-.86-.92-.87-1.61Z"/><path fill="#f0aaca" d="M359.75,207.72c-1.5,1.09-3.37,1.22-5,1.87-.78.3-.9-.34-1.05-.8a18.69,18.69,0,0,1-1.06-6.95,69.6,69.6,0,0,1,5.36,4.49A8.29,8.29,0,0,0,359.75,207.72Z"/><path fill="#080707" d="M389.08,188.25a1.55,1.55,0,0,1-.86,1.37,74.47,74.47,0,0,0-6.44,5,3.12,3.12,0,0,1-1,.56,1,1,0,0,1-1.19-.42.87.87,0,0,1,0-1,3.79,3.79,0,0,1,.6-.67,55.68,55.68,0,0,1,6.18-5,2.76,2.76,0,0,1,1.65-.69C388.7,187.45,389.05,187.76,389.08,188.25Z"/><path fill="#cd5f91" d="M5.88,314.64a1,1,0,0,1-1.14-.84c-.15-.72,1-1.74,2-1.77a.86.86,0,0,1,1,.94A2,2,0,0,1,5.88,314.64Z"/><path fill="#ce6092" d="M145.87,1.1c-.05.93-.78,1.7-1.53,1.6a1,1,0,0,1-.87-1.11A1.51,1.51,0,0,1,145,0C145.68.07,145.87.51,145.87,1.1Z"/><path fill="#ce5f91" d="M374.68,83.08a1.83,1.83,0,0,1-1.78,1.46.85.85,0,0,1-.95-1,1.56,1.56,0,0,1,1.72-1.37A1,1,0,0,1,374.68,83.08Z"/><path fill="#d06a99" d="M427.25,243.77c.05-.68.18-1.33,1-1.48a1.11,1.11,0,0,1,1.27,1.19,1.37,1.37,0,0,1-1.19,1.4C427.62,245,427.31,244.45,427.25,243.77Z"/><path fill="#ce6595" d="M249.41,7.8a1.2,1.2,0,0,1,1.4-1.07c.6,0,1,.42.91,1a1.3,1.3,0,0,1-1.41,1.13C249.69,8.85,249.44,8.39,249.41,7.8Z"/><path fill="#d16797" d="M8.63,136.05c0,.59-.23,1-.89,1.09a.88.88,0,0,1-1.07-.88c-.06-.67.21-1.21,1-1.23S8.56,135.46,8.63,136.05Z"/><path fill="#c95389" d="M292.84,157.35c1.17-.35,2.34-.68,3.5-1a193.7,193.7,0,0,1,30.73-7.39c.38-.06.76-.09,1.14-.12,6.45-.63,10.77,2.52,12,8.75a18.46,18.46,0,0,1,.38,2.44c.08,1.37-.41,1.75-2.11,1.78-1.4-.53-1-1.77-1.15-2.8a7.26,7.26,0,0,0-.87-2.93c-2.34-4-3.91-4.7-8.66-4.06-11.29,1.52-22.21,4.53-33,8-2.06.32-1.45,1.28-.73,2.48a13.9,13.9,0,0,1-1.45,15.8,14.23,14.23,0,0,1-14.77,4.35c-4.07-1.27-7.54-3.37-8.81-7.75-.26-1.07-.5-2.14-.78-3.2-.09-.38-.45-.29-.74-.32.67-1,.42-2.18.56-3.27a16,16,0,0,1,3.67-8.08c3.61-2.49,3.61-2.49,3.61-6.76,0-1.41,0-2.82.05-4.23,1.45.31.89,1.48,1,2.32.19,1.4-.54,3.11.35,4.15,1,1.23,2.69-.13,4.11-.07,1.68.06,3.43-.09,5,.59A14.37,14.37,0,0,0,292.84,157.35Z"/><path fill="#010101" d="M225.55,146.52c1.31-2.41,1.15-5,1.22-7.64,0-1,0-1.89,1.22-2.36.87-.33,1.55-.28,1.95.49,2.05,3.92,5.52,4.86,9.64,4.51a4.82,4.82,0,0,1,1.14,0c1.26.23,1.65,1,1,2.11a11.14,11.14,0,0,1-.93,1.27,15.5,15.5,0,0,0-3.17,8.5c-.14,2.45-1,2.81-3.18,1.4a11.2,11.2,0,0,0-5.26-2,11.31,11.31,0,0,1-2.47.13,6.86,6.86,0,0,1-1.36-.09c-2.49-.51-3-1.62-1.8-4A9.35,9.35,0,0,1,225.55,146.52Z"/><path fill="#c95389" d="M227,152.42a2.71,2.71,0,0,1,2.26.43,28.71,28.71,0,0,0-1.78,8.27c-.06.63-.17,1.23-.81,1.5a1.63,1.63,0,0,1-1.88-.46c-.32-.33-.66-.63-1-1-2.53-2.67-5.7-3.32-9.23-2.75-1.22.19-2.6.62-3.44-.47s.25-2.28.87-3.22a21.79,21.79,0,0,0,3.45-12.36,16.43,16.43,0,0,1,.11-2.22,1,1,0,0,1,1-.79.89.89,0,0,1,.94.53c1.23,3.93,4.67,5.26,8.1,6.6a4.14,4.14,0,0,1-1.36,2.31c-1.74.1-3-.9-4.37-1.75-1.14-.73-1.89-1-2.07.8a23.54,23.54,0,0,1-2.53,7.38c2,.36,3.93,0,5.73.65,1.21.46,2.41,1.81,3.46,1.43s.71-2.27,1.29-3.4A2.72,2.72,0,0,1,227,152.42Z"/><path fill="#c95489" d="M177.58,321.84a5.14,5.14,0,0,1,.68,0c1.87.24,2.9,1,3.08,2.38a2.85,2.85,0,0,1-2.25,3.36,3,3,0,0,0-2.27,2.34c-1.48-.91-2.51-.78-2.92,1.1-.12.5-.41,1.27-1.2.46a2.41,2.41,0,0,0-2.75-1.79c-2.44.06-4.89.13-7.32,0-2-.12-3.57.24-4.46,2.15-1.12-.92-1.69-2.67-3.67-2.3a10.72,10.72,0,0,1-4-1.72c-2-1.46-2.58-3.39-1.46-5a4.39,4.39,0,0,1,5.67-1,2.26,2.26,0,0,1,.21,2.05c-.49,1-1.68.3-2.4.88.83,1.53,1.55-1,2.3,0,.52,1.77,2,1.51,3.34,1.47,3.51-.07,7,.05,10.54-.07,1.75-.05,3.55-.15,4.6-1.9.25-.15.62-.31.74,0,.58,1.52,1.68,1.34,2.88.92,1.8-.61-.91-.54-.16-1C176.66,323.26,176.28,322.28,177.58,321.84Z"/><path fill="#c95489" d="M154.77,309.44c.68,1.17.22,2.44.32,3.67s-.06,2.21,0,3.32.44,1.32,1.8,1.38c1,.05,1.07-.59,1.08-1.28,0-1.62,0-3.24,0-4.86,1.46.55.95,1.81,1,2.81.17,2.52.22,2.57,2.77,2.68a92.05,92.05,0,0,0,10.24-.54c.82-.05,1.67-.3,2.42.27,3.29-.47,3.29-.47,3.28-3.57,0-.73,0-1.47,0-2.2.44.54.5,1.41,1.52,1.44a2.85,2.85,0,0,1,1.23.54,2.42,2.42,0,0,1,.38,4.11c-.93.85-2.17,1-3.26,1.56-1.42.68-2.28,2.19-3.95,2.51a2.31,2.31,0,0,0-2.23-.8,42.38,42.38,0,0,1-7.72.2c-2.39-.06-4.69-.21-5.6,2.62a.81.81,0,0,1-.68-.79c-.1-1.73-1.4-1.89-2.73-2a11.51,11.51,0,0,1-2.56-1c-2.57-1.42-3.06-4.32-.78-6.11A13.87,13.87,0,0,0,154.77,309.44Z"/><path fill="#c9548a" d="M175.77,338.52a6.19,6.19,0,0,0-3.21.42c-1,.83-2.15.67-3.29.67a86,86,0,0,0-11.44.84c-1.27-.37-2.44-1.09-3.82-1.14a6.7,6.7,0,0,1-3.6-2.18c-1.15-1.46-1.32-3.27-.2-4.5s2.58-2.36,4.54-1.36a3.66,3.66,0,0,1,.49,2.14c.15,2.53.15,2.53,2.74,2.65,2.91-.06,5.82,0,8.73,0a17.63,17.63,0,0,0,5.64-.82c1.81.4,3.17.07,3.47-2a1.17,1.17,0,0,1,.87-1c.59.15,1.18.27,1.75.45,1,.31,1.86.68,2,1.86s-.28,1.93-1.58,2.65C177.87,337.75,176.65,337.74,175.77,338.52Z"/><path fill="#020102" d="M240.32 107.43c1.66 1.42 2.89 3 2.88 5.33a6.37 6.37 0 01-5.09 6.31 6.62 6.62 0 01-7.33-3.71c-.24-.55-.41-1.12-.61-1.68-.84-1-.45-2.11-.09-3.18a7.07 7.07 0 017.39-4.5A3.7 3.7 0 01240.32 107.43zM190.16 229.76a6.4 6.4 0 01-1.17-6.14 6.59 6.59 0 0111.67-1.43 6 6 0 010 6.8c-.27.44-.62.85-.94 1.27a4.13 4.13 0 01-2 1.73 6.33 6.33 0 01-5.15 0A4.34 4.34 0 01190.16 229.76z"/><path fill="#ca548a" d="M240.32,107.43l-2.83-.93c-2.54-3-5.15-3.33-7.14-.88-1.41,1.76-.62,3.35.24,5l-.42,3.09a7.17,7.17,0,0,1-3.31-4.09,6.44,6.44,0,0,1,2-6.89,6.58,6.58,0,0,1,7.47-1A6.17,6.17,0,0,1,240.32,107.43Z"/><path fill="#365aa7" d="M244.38,325a4.2,4.2,0,0,1,4.3-4.28,4.38,4.38,0,0,1,4.47,4.17,4.52,4.52,0,0,1-4.47,4.45A4.33,4.33,0,0,1,244.38,325Z"/><path fill="#365aa6" d="M219.22,284.72a4.29,4.29,0,0,1-4.39,4.26,4.44,4.44,0,0,1-4.26-4.22,4.29,4.29,0,0,1,4.58-4.31A4.08,4.08,0,0,1,219.22,284.72Z"/><path fill="#c9548a" d="M190.16,229.76l2.18,1.67a5.16,5.16,0,0,1-.05,1.11c-.16,1.8.73,3.09,2.29,3.21,1.84.14,2.56-.95,2.74-2.56a2.24,2.24,0,0,1,.59-1.63l1.81-1.3c.41,1.34,1,2.56.6,4.1a5.69,5.69,0,0,1-7,4.17c-2.78-.69-5.14-4.46-3.8-7.08A15.42,15.42,0,0,0,190.16,229.76Z"/><path fill="#ca548a" d="M62.22,126.3a3.84,3.84,0,1,1,0,7.68,3.94,3.94,0,0,1-3.9-3.89A3.65,3.65,0,0,1,62.22,126.3Z"/><path fill="#050304" d="M190.29,305.22a1.64,1.64,0,0,1,1.23.52,29,29,0,0,1,2,2.1,62,62,0,0,1,6.67,9.37c.43.77,1.11,1.73,0,2.35s-1.61-.42-2.07-1.19a71.78,71.78,0,0,0-6.48-9.22c-.68-.8-1.5-1.49-2.16-2.31A1,1,0,0,1,190.29,305.22Z"/><path fill="#060405" d="M39.9,147.09a1.51,1.51,0,0,1,1.14.75,51.89,51.89,0,0,1,6.05,11.81,1.13,1.13,0,0,1-.52,1.55c-.71.37-1.18-.09-1.5-.62a11.35,11.35,0,0,1-.87-1.83,53,53,0,0,0-4.59-9,3.2,3.2,0,0,1-.68-1.41A1,1,0,0,1,39.9,147.09Z"/><path fill="#070405" d="M244.17,315.21c0,.75-.6,1.17-1.07,1.65a46.84,46.84,0,0,0-5.11,5.71,12.42,12.42,0,0,0-1.9,3,1,1,0,0,1-1.44.65,1.15,1.15,0,0,1-.67-1.49,4.19,4.19,0,0,1,.46-1,39.41,39.41,0,0,1,7.35-8.79,3.69,3.69,0,0,1,1.14-.71A1,1,0,0,1,244.17,315.21Z"/><path fill="#070506" d="M176.69,332.24c-.57.59-.41,1.38-.58,2.08a2.21,2.21,0,0,1-2.92,1.73c-.14,0-.19-.38-.28-.58a2.86,2.86,0,0,1,.25-3.77c.36-.35.27-.82.32-1.26.18-1.6.28-1.57,1.9-1.86,1.3-.23,1.39.45,1.43,1.34Z"/><path fill="#090506" d="M199.23,305.74a1.44,1.44,0,0,1,1.12.69,63.69,63.69,0,0,1,4.48,6.47c.35.6.64,1.28-.15,1.76s-1.32,0-1.73-.58c-1.51-2.15-3-4.3-4.45-6.5C197.91,306.66,198.37,305.7,199.23,305.74Z"/><path fill="#070506" d="M174.05,321.33c.06-2.31,2-2.18,3.52-2.56,0,1,0,2.05,0,3.07a3.81,3.81,0,0,0-.33,2.69.74.74,0,0,1,0,1,1.72,1.72,0,0,1-1,.48c-2.23.55-2.23.55-2.36-1.74A2,2,0,0,1,174.05,321.33Z"/><path fill="#0b0809" d="M235.66,315.29c-.16.29-.4.75-.67,1.19a14.35,14.35,0,0,0-2.06,3.71c-.2.77-.65,1.21-1.49.89a1.19,1.19,0,0,1-.71-1.66,15.85,15.85,0,0,1,3-5,1.54,1.54,0,0,1,.57-.36C235.06,313.82,235.74,314.33,235.66,315.29Z"/><path fill="#d06395" d="M110.32,96.36a1.27,1.27,0,0,1-2.52-.19c0-.72.67-.88,1.31-.86A1.14,1.14,0,0,1,110.32,96.36Z"/><path fill="#cf5e91" d="M205.74,68.77a.89.89,0,0,1-1,.91c-.58,0-1.05-.24-1.13-.86a1.33,1.33,0,0,1,1.35-1.21A1.06,1.06,0,0,1,205.74,68.77Z"/><path fill="#d16496" d="M249.76,181.62c.69.11,1.1.49,1,1.2a.86.86,0,0,1-.86.87,1.17,1.17,0,0,1-1.2-1.11C248.68,182,249.15,181.69,249.76,181.62Z"/><path fill="#cd5c8f" d="M283.49,242.3c.63,0,1,.26,1,.9s-.21,1.08-.83,1.14a1,1,0,0,1-1.19-1A1,1,0,0,1,283.49,242.3Z"/><path fill="#d26596" d="M193.41,203.94a.9.9,0,0,1-.95-.78c-.13-.67.34-.94.91-1a.68.68,0,0,1,.8.62A.94.94,0,0,1,193.41,203.94Z"/><path fill="#cf5c90" d="M227.34,268.89c.5.11.87.37.82.9a.84.84,0,0,1-.94.78c-.58,0-.78-.39-.75-.89A.74.74,0,0,1,227.34,268.89Z"/><path fill="#fffefd" d="M131.58,292.23c-1.37.28-2-.44-2.62-1.56a117.69,117.69,0,0,1-5.18-11.73,41.19,41.19,0,0,0-5.32-9.39c-3.35-4.42-7.88-6.47-13.28-7.07-.8-.09-1.82.15-1.82-1.14.79-3.35,2.88-5.92,5.34-8.22,1.66-1.55,3.42-3,5.21-4.43a25.39,25.39,0,0,0,8.42-12.07A69.34,69.34,0,0,0,125.58,221c.43-4.25,1-8.48,1.41-12.73.09-.85.4-1.11,1.29-1.11,1.88,0,2.58-.47,2.7-1.45s-.59-1.49-2.61-1.84a15.05,15.05,0,0,1-2-.47c-2.58-.84-3.36-2.14-2.91-4.78a20.32,20.32,0,0,1,2.67-7.6,7.51,7.51,0,0,1,2.66-2.74c1.26-.69,1.8-.59,2.74.47,1.52,1.68,2.89,1.59,3.79-.5,1.26-2.92,3.48-4.16,6.56-4.5a54.18,54.18,0,0,1,6-.35A66,66,0,0,0,177,177.19c1-.5,2.09-.94,3.13-1.4a3.91,3.91,0,0,1,.54,0c-1.13,3.5-2.23,6.92-3.36,10.45-.79-.21-1-.8-1.44-1.17a13.42,13.42,0,0,0-5.47-3.19c-.81-.23-1.62-.21-1.93.65s.45,1.2,1.24,1.47a10.28,10.28,0,0,1,5.31,3.75,3.67,3.67,0,0,1,.51,3.76,65.78,65.78,0,0,0-2.58,8.14,18.79,18.79,0,0,0-.42,6.68,15.6,15.6,0,0,1,.09,4,3.83,3.83,0,0,1-2.87,3.42c-1.32.38-2.68.63-4,.93-3.22.74-4.57,2.13-5.11,5.27-.31,1.74-.32,1.79-2,1.4s-3.1-.82-4.65-1.26c-.73-.21-1.44-.53-2.19-.67-2.47-.47-3.86,1-3.24,3.38a12.39,12.39,0,0,0,.79,2.1c.72,1.49,1.48,3,2.25,4.42s.49,1.8-1.17,1.72a15.42,15.42,0,0,1-2-.37c-2.32-.43-3.68.36-4.31,2.61a16.12,16.12,0,0,0-.53,4.44c0,2.75-.58,3.23-3.41,3.19a38.83,38.83,0,0,1-5.48-.65,27.08,27.08,0,0,0-4.59-.27,8.08,8.08,0,0,0-4.68,1.63c-1.33,1-2.41,2.19-3.84,3.09a3.6,3.6,0,0,0-1.35,3.83,15.48,15.48,0,0,0,1.46,4.48,39.7,39.7,0,0,0,4.27,6.91c1.39,1.78,2.76,3.6,4.17,5.37,1.63,2,3.12,3.77,2.14,6.9s.23,6.37,1.37,9.43c.49,1.33,1.08,2.63,1.69,3.92,1,2.23.68,3.9-1.28,5.43A6.73,6.73,0,0,1,131.58,292.23Z"/><path fill="#fffefd" d="M174.38,316.89a82.29,82.29,0,0,1-14.8.94c-1,0-1.28-.39-1.27-1.33,0-1.62.27-3.26-.38-4.83-.1-2.54-.14-5.09-.31-7.63-.37-5.67-2.63-10.73-5.56-15.52a129.31,129.31,0,0,0-14.36-19.19c-3.62-4-6.72-8.37-10-12.62a26.09,26.09,0,0,1-3.24-5.67,7.93,7.93,0,0,1-.58-1.46c-.16-.77-.72-1.75,0-2.3s1.38.34,2,.73a70.49,70.49,0,0,1,8.17,6.2,38.82,38.82,0,0,0,7.85,5.46c4.48,2.32,7.95,1.31,10.46-3a24.63,24.63,0,0,0,2.66-7.61,50.25,50.25,0,0,1,12.8-25,26.9,26.9,0,0,1,5.39-4.52,6.42,6.42,0,0,1,3-1.12c1.38-.07,2,.76,1.44,2a11,11,0,0,1-1.87,2.81,35.66,35.66,0,0,0-6.28,11.15c-2.44,6.63-4.62,13.32-5.37,20.37a52.41,52.41,0,0,0,1.75,20c1.86,6.56,3.86,13.08,5.72,19.63A75.93,75.93,0,0,1,174.38,316.89Z"/><path fill="#fffefd" d="M154.5,331.35a14.12,14.12,0,0,0-1.58.17,3.31,3.31,0,0,0-1.13,6.2,25.72,25.72,0,0,0,2.39,1.24,2.89,2.89,0,0,1,.52,2.34c-.7,7.74-1.44,15.47-2.74,23.13-.21,1.23.12,3.22-1.55,3.32-1.43.08-1.46-1.87-1.88-3-3.16-8.52-5-17.39-7.44-26.12-.47-1.66-1.73-3.26-.87-5.15-.24-5.08-1.56-10-2.06-15.06a59.21,59.21,0,0,0-4.67-17.5c-.76-1.79-1.39-3.63-2.08-5.45a10.86,10.86,0,0,0,6.91-4.54c3.3,4.29,7,8.11,10.47,12,2,2.19,4.15,4.18,6,6.48a5.92,5.92,0,0,0,0,1.11c.13,1.18-.16,2-1.55,2.17a3.28,3.28,0,0,0-1.85,1.22c-1.51,1.62-1.33,3.54.54,4.74a30.71,30.71,0,0,0,2.81,1.41,1.17,1.17,0,0,1-.14,1.72,5.85,5.85,0,0,0-3.16,0c-2.54.77-3.15,3.24-1.26,5,1.26,1.19,3,1.49,4.46,2.21A1.47,1.47,0,0,1,154.5,331.35Z"/><path fill="#f2adcc" d="M162.41,225.15a58,58,0,0,0-11,24.9,15.33,15.33,0,0,1-2.14,5.41c-1.41,2.21-2.85,2.66-5.23,1.55a27.94,27.94,0,0,1-6.12-4,107.7,107.7,0,0,0-10.81-8.27,4.64,4.64,0,0,1,3.69-1.47,24.19,24.19,0,0,1,5,.54,33.34,33.34,0,0,0,5.27.42c3.5,0,5.59-1.9,5.83-5.31a32.16,32.16,0,0,1,.31-4c.13-.65.44-.89,1.1-.77s1.21.19,1.82.27a5.4,5.4,0,0,0,4.44-1.42,2.93,2.93,0,0,0,.62-4.21,32.1,32.1,0,0,1-2.83-5.59c3.31.81,6.31,2.13,9.6,1.54C162.36,224.6,162.52,224.72,162.41,225.15Z"/><path fill="#f1adcb" d="M154.6,304c-6.21-6.5-12.9-12.62-16.8-20.89-1.62-3.43-2.89-6.93-2.52-10.78.24-.15.45-.15.61,0,7.28,8.45,14.11,17.17,18,27.73a11,11,0,0,1,.81,2.79A.92.92,0,0,1,154.6,304Z"/><path fill="#c85288" d="M44.17,255c-.17-11.71,3.73-23.11,10.55-33.66a16.17,16.17,0,0,1,1.51-2c.46-.53,1.06-1,1.78-.43s.44,1.21.09,1.82-.67,1-1,1.51c-4.61,7.24-8.22,14.87-9.59,23.37a71.59,71.59,0,0,0-.46,19.23c.11,1,.16,2.08.21,3.13,0,.63-.07,1.25-.86,1.36s-1.27-.44-1.36-1.18c-.18-1.41-.36-2.82-.42-4.24C44.5,261.24,44,258.58,44.17,255Z"/><path fill="#c75288" d="M39.29,344.25c-.91-.12-2.12-.24-3.33-.46-.74-.13-1.3-.57-1.12-1.4s.82-.8,1.46-.75a22.55,22.55,0,0,0,4.57.27,16.29,16.29,0,0,0,9.61-4.84,41,41,0,0,0,8.27-12.3c.28-.62.54-1.24.86-1.83a1.1,1.1,0,0,1,1.34-.6,1,1,0,0,1,.71,1.24,8.57,8.57,0,0,1-.53,1.94,40.45,40.45,0,0,1-9.5,13.88A17.82,17.82,0,0,1,39.29,344.25Z"/><path fill="#c75287" d="M177.06,152.65a21.45,21.45,0,0,1-5.57,13.71,10.12,10.12,0,0,1-1.72,1.47,1.13,1.13,0,0,1-1.64-.14,1.07,1.07,0,0,1,.07-1.45c.19-.23.42-.43.62-.65a19.2,19.2,0,0,0,5-19.1,26.54,26.54,0,0,0-2.24-6.11,3.84,3.84,0,0,1-.44-1,1,1,0,0,1,1.74-.91,6.43,6.43,0,0,1,1.05,1.46A31.38,31.38,0,0,1,177.06,152.65Z"/><path fill="#c35185" d="M152.75,175.8c-.91,0-1.67,0-1.82-.87s.54-1.21,1.23-1.34a28.74,28.74,0,0,0,7.42-2.28,1.15,1.15,0,0,1,1.74.5c.29.69-.21,1.15-.75,1.45A22.63,22.63,0,0,1,152.75,175.8Z"/><path fill="#e6a5c3" d="M163.75,222.4c0-.29,0-.59.05-.88.32-2.85.59-3.14,3.47-3.74.52-.11,1-.17,1.56-.25s.95-.41.94.42a60.71,60.71,0,0,0-5.48,5C163.83,223,163.54,222.94,163.75,222.4Z"/><path fill="#c05083" d="M69.47,305.17a15.64,15.64,0,0,1-1,3.88,1,1,0,0,1-1.24.74,1,1,0,0,1-.85-1.32c.25-1.23.55-2.46.89-3.67a1.13,1.13,0,0,1,1.3-1C69.41,303.94,69.43,304.57,69.47,305.17Z"/><path fill="#d095b1" d="M163.75,222.4l.54.58a8,8,0,0,1-1.88,2.17l-.47-.41A7.48,7.48,0,0,0,163.75,222.4Z"/><path fill="#8c6d81" d="M169.77,218c-.21-.36-.62-.28-.94-.42a2.3,2.3,0,0,1,1.4-.5c.45-.09.59.07.43.48Z"/><path fill="#3b3038" d="M170.66,217.51l-.43-.48c.34-.32.81-.61,1.1-.15C171.52,217.18,171,217.41,170.66,217.51Z"/><path fill="#aa7d93" d="M154.6,304l.05-1.11a1.09,1.09,0,0,1,.36,1.19C154.92,304.34,154.69,304.3,154.6,304Z"/><path fill="#c95388" d="M335.06,465.67c-3.37-6.23-5.53-12.92-7.68-19.61a210.38,210.38,0,0,1-7.6-33,31.3,31.3,0,0,1-.59-6.69c1.63-.83,3.26-1.63,4.88-2.48,4.59-2.41,9.21-4.77,14-6.76a1.84,1.84,0,0,0,1.35-2.35c-.85-6-1.92-12-3-17.94-1-5.53-1.53-11.11-2.19-16.69-.58-4.9-1-9.82-1.61-14.72-.19-1.57-.21-3.14-.29-4.71q-.64-13.91-.39-27.84a95.5,95.5,0,0,1,2.75-22.46c1.57-6,4-11.73,8.47-16.24,8.56-8.63,18.89-12.43,31.11-9.36,6.37,1.6,11.26,5.67,15.19,10.73,4.14,5.32,6.66,11.42,8.71,17.73a121,121,0,0,1,5.21,30c.49,7.71.47,15.42.36,23.13-.08,6-.81,11.94-1.15,17.92-.27,4.78-.57,9.56-1.12,14.32q-1,8.93-2.08,17.83c-.74,6.24-1.48,12.48-2.12,18.74-1.05,10.27-1.45,20.6-2.75,30.85-.21,1.63-.55,3.24-.82,4.87a14.38,14.38,0,0,1-7.91,11.16.41.41,0,0,1-.43.13.42.42,0,0,0-.51.25.27.27,0,0,1-.42.13,1,1,0,0,0-1,.33.27.27,0,0,1-.43.11,1.68,1.68,0,0,0-1.4.37.67.67,0,0,1-.89.13,2.94,2.94,0,0,0-1.86.36.71.71,0,0,1-.9.08,2.62,2.62,0,0,0-1.88.29c-.56.54-1.19.3-1.81.16a5.26,5.26,0,0,0-2.8.31,3.73,3.73,0,0,1-2.73.13H357.66a2.13,2.13,0,0,0-1.31.29,2.53,2.53,0,0,1-2.27.15,11.77,11.77,0,0,0-4.18.31,24.89,24.89,0,0,1-8.26,0A13.1,13.1,0,0,0,335.06,465.67Z"/><path fill="#030303" d="M335.34,251.56a1.05,1.05,0,0,1-.88-1.5,4.76,4.76,0,0,1,1.42-1.44A129.72,129.72,0,0,1,355.34,236a4.51,4.51,0,0,1,1-.44,1.08,1.08,0,0,1,1.22.43,1.1,1.1,0,0,1-.1,1.44,6.13,6.13,0,0,1-1.89,1.24,141.61,141.61,0,0,0-17.3,10.93c-.6.46-1.19.94-1.78,1.41A2,2,0,0,1,335.34,251.56Z"/><path fill="#040404" d="M391.79,491.81c-.59-2.09,0-4.16.17-6.23.34-5,.94-9.95,1.77-14.89.19-1.1.49-2.18.79-3.26a1.1,1.1,0,0,1,1.34-.93c.85.19,1,.79.8,1.55a64,64,0,0,0-1.2,7.29c-.69,4.59-.8,9.22-1.3,13.82a14.68,14.68,0,0,1-.43,2.64C393.08,492.66,392.43,492.65,391.79,491.81Z"/><path fill="#100f0f" d="M298.89,283.43a1.65,1.65,0,0,1-1.78,1.63,1.55,1.55,0,0,1-1.55-1.61,1.59,1.59,0,0,1,1.61-1.76A1.78,1.78,0,0,1,298.89,283.43Z"/><path fill="#151313" d="M329.49,257a3.88,3.88,0,0,1-2.48,2.42,1,1,0,0,1-1.09-1.3,4.27,4.27,0,0,1,2.2-2.17C328.73,255.6,329.53,256.28,329.49,257Z"/><path fill="#181515" d="M266,398.88a1.56,1.56,0,0,1,1.59-1.57,1.62,1.62,0,0,1,1.64,1.54,1.72,1.72,0,0,1-1.61,1.61A1.7,1.7,0,0,1,266,398.88Z"/><path fill="#1b1919" d="M276.42,341.12a1.6,1.6,0,0,1-1.66-1.51,1.52,1.52,0,0,1,1.46-1.46A1.59,1.59,0,0,1,278,339.5,1.7,1.7,0,0,1,276.42,341.12Z"/><path fill="#181414" d="M284.64,312.15a1.41,1.41,0,0,1-1.45-1.41,1.49,1.49,0,0,1,1.54-1.36,1.33,1.33,0,0,1,1.29,1.33A1.3,1.3,0,0,1,284.64,312.15Z"/><path fill="#1c1818" d="M263.68,459.89a4.1,4.1,0,0,1,0-1.1,1.27,1.27,0,0,1,1.48-1.09,1.35,1.35,0,0,1,1.31,1.53,3.82,3.82,0,0,1-.39,1,1.56,1.56,0,0,1-2.18-.07l0,0C263.69,460.18,263.62,460.07,263.68,459.89Z"/><path fill="#1a1515" d="M270.79,370.49a1.49,1.49,0,0,1,1.34,1.54,1.37,1.37,0,0,1-1.61,1.22,1.29,1.29,0,0,1-1.23-1.37A1.48,1.48,0,0,1,270.79,370.49Z"/><path fill="#fefefe" d="M341.64 465.66l8.26 0a.87.87 0 01-.71.48c-2.28 0-4.55 0-6.82 0A.91.91 0 01341.64 465.66zM323.13 472.8a21.14 21.14 0 015.09-1.75A8.06 8.06 0 01323.13 472.8zM294.24 455.76a19.75 19.75 0 014.46.7A5.69 5.69 0 01294.24 455.76zM267.06 448.58a12.43 12.43 0 013.7 1.29A4.52 4.52 0 01267.06 448.58zM289.62 454.89a19.35 19.35 0 014 .68C292.14 456.16 290.87 455.57 289.62 454.89zM285.49 454a11.57 11.57 0 013.53.73A3.73 3.73 0 01285.49 454zM303 457.14a15 15 0 013.54.23 7.69 7.69 0 01-3.57.15s-.08-.12-.07-.18S302.94 457.21 303 457.14zM391.79 491.81a1.55 1.55 0 001.94 0c.31.85-.39.85-.85.85S391.58 492.77 391.79 491.81zM280 452.64a10.25 10.25 0 013.09.68C281.82 453.88 280.87 453.34 280 452.64zM274.93 451.22a7.91 7.91 0 012.61.71A2.09 2.09 0 01274.93 451.22zM263.86 460.19a2.84 2.84 0 002.18.07C265.12 461.4 265 461.4 263.86 460.19zM299.31 456.64a8.76 8.76 0 012.6.28C301 457.22 300.08 457.57 299.31 456.64zM263.36 447.25a4.71 4.71 0 012.32.85A2.19 2.19 0 01263.36 447.25zM258.21 445.94c0-.37.2-.57.56-.44a5 5 0 011.85.79C259.76 446.59 259 446 258.21 445.94zM368.82 464.88l2.73-.13A2.08 2.08 0 01368.82 464.88zM328.23 471.05a4.33 4.33 0 012.3-.9A2.22 2.22 0 01328.23 471.05zM354.08 465.33l2.27-.15C355.65 466 354.88 465.86 354.08 465.33zM332.05 469.51l2.15-.28C333.58 470.05 332.82 469.82 332.05 469.51zM311.32 457.37a4.24 4.24 0 012.18-.08A2 2 0 01311.32 457.37zM374.35 464.44l1.81-.16C375.62 465.06 375 465 374.35 464.44zM278.12 452.16a2.22 2.22 0 011.24.25C278.85 452.78 278.41 452.82 278.12 452.16zM398.72 280.07a1 1 0 01.52.87C398.93 280.73 398.22 280.74 398.72 280.07zM283.63 453.54a2.13 2.13 0 011.27.2C284.4 454.13 284 454.17 283.63 453.54zM270.78 449.87c.49 0 1 0 1.36.46C271.61 450.4 271 450.58 270.78 449.87zM272.15 450.32a1.75 1.75 0 011.37.45C273 450.85 272.42 451 272.15 450.32zM273.54 450.77a1.73 1.73 0 011.37.45C274.37 451.3 273.81 451.48 273.54 450.77zM260.63 446.28c.5.05 1 0 1.35.49C261.46 446.81 260.88 447 260.63 446.28zM309 457.87c-.11.05-.23.16-.35.15s-.22-.12-.33-.19a1 1 0 01.36-.16C308.82 457.68 308.93 457.8 309 457.87zM265.7 448.1l.8.22C266.12 448.67 265.84 448.62 265.7 448.1zM380.8 463.55l.89-.13C381.46 463.89 381.17 464 380.8 463.55zM378 464l.9-.08C378.68 464.35 378.38 464.41 378 464zM262 446.77l.82.22C262.42 447.35 262.15 447.27 262 446.77zM330.53 470.15a.88.88 0 01.93-.39A.81.81 0 01330.53 470.15zM322.34 473.08l.76-.27C323 473.35 322.75 473.41 322.34 473.08zM321 473.27l.81 0C321.47 473.83 321.2 473.82 321 473.27zM313.94 458.08l.14.41C313.78 458.43 313.63 458.33 313.94 458.08zM400.92 283.67l.19.41a2.31 2.31 0 01-.29-.24S400.88 283.73 400.92 283.67z"/><path fill="#fefefe" d="M263.68 459.89a.27.27 0 01.21.32C263.63 460.22 263.47 460.17 263.68 459.89zM402.81 287.26l.17.41a3.47 3.47 0 01-.29-.25S402.77 287.32 402.81 287.26zM385.41 462.23l.43-.13C385.76 462.33 385.63 462.44 385.41 462.23zM384.48 462.61a.57.57 0 01.42-.13C384.84 462.77 384.74 462.93 384.48 462.61zM383.09 463.05a.6.6 0 01.43-.11C383.45 463.24 383.33 463.37 383.09 463.05zM405.6 293.55l.15.41C405.46 293.91 405.29 293.81 405.6 293.55zM400.08 282.31l.24.38C400.06 282.67 399.76 282.68 400.08 282.31zM398.17 279.18l.22.39C398.14 279.53 398 279.45 398.17 279.18zM408.85 302.54l.12.41C408.66 302.89 408.53 302.77 408.85 302.54zM397.27 277.82l.23.39C397.23 278.19 397 278.15 397.27 277.82zM402.37 286.36l.17.4C402.26 286.72 402.07 286.64 402.37 286.36zM317.19 466.62l.18.39C317.07 467 316.85 466.92 317.19 466.62zM399.57 281.42l.21.39a2.27 2.27 0 01-.32-.22S399.53 281.48 399.57 281.42zM317.6 467.52l.15.41a3.33 3.33 0 01-.28-.25S317.55 467.58 317.6 467.52zM335.06 468.74a.26.26 0 01.24-.31C335.49 468.73 335.31 468.76 335.06 468.74zM334.73 469a.26.26 0 01.33-.2C335.07 469 335 469.16 334.73 469zM395.42 275.13l.23.38C395.4 275.48 395.21 275.42 395.42 275.13zM318.55 469.77l.15.4C318.4 470.13 318.23 470 318.55 469.77zM401.9 285.46l.19.4C401.81 285.82 401.6 285.76 401.9 285.46zM396.34 276.48l.25.38C396.33 276.84 396.08 276.81 396.34 276.48zM319.85 472.48a.26.26 0 01.24.32C319.84 472.81 319.67 472.77 319.85 472.48z"/><path fill="#fefefe" d="M320.09 472.8a.26.26 0 01.33.2C320.13 473.21 320.08 473.05 320.09 472.8zM401.42 284.56l.19.4a2.17 2.17 0 01-.3-.23A1.34 1.34 0 01401.42 284.56zM404.66 291.3l.14.42a2.2 2.2 0 01-.27-.26S404.61 291.36 404.66 291.3zM404.25 290.4l.18.39C404.14 290.76 403.91 290.71 404.25 290.4zM314.44 459.44c0 .06-.09.18-.1.17s-.12-.11.1-.19z"/><path fill="#fffefd" d="M312.22 453.91c-4.76.45-9.45-.25-14.15-1-13.39-2.06-26.19-6.09-38.82-10.78a161.26 161.26 0 00-19.08-5.76 51.07 51.07 0 00-10.48-1.26c-8.82-.24-17.64.32-26.46.27a29.82 29.82 0 01-3.9-.26c-1.8-.24-2.55-1-2.27-2.72.42-2.54.13-5.25 2.06-7.45.94-1.07.82-2.54.53-3.89a21.2 21.2 0 00-.6-2.17 4.37 4.37 0 01.4-3.88 7.72 7.72 0 00.93-6.26c-.31-1.31-.49-2.65-.84-3.95a7 7 0 01.71-5.6 1.71 1.71 0 012.19-1 29.26 29.26 0 016.05 2.09c3.13 1.41 6.25 2.83 9.35 4.31a35.58 35.58 0 0011 3c7.83 1 15.65 2 23.49 2.93 3.12.36 6.27.39 9.4.67 5.88.53 11.75 1.13 17.63 1.7 3.43.33 6.89.22 10.33.52 3.82.34 7.58 1.26 11.44 1.06.83 0 1.2.24 1.34 1.1a260.45 260.45 0 009.6 36.92A1.76 1.76 0 01312.22 453.91zM269 174.81a7.93 7.93 0 011.45 2 13.84 13.84 0 0015.43 5.13 13.27 13.27 0 007-20.33 3.12 3.12 0 01-.8-1.36 4 4 0 012.56-.74c1.13-.12 1.75.81 2.64 1.2 4.37 1.9 8.72 3.69 11.71 7.77a5.86 5.86 0 005.86 1.9c3.17-.6 4.09-1.47 4.07-4.66a13.94 13.94 0 013.27-9.14 11 11 0 016.37-4.19c3.54-.71 6.2.74 8.43 4.38.16 1 .66 1.84.74 2.83-.06 1.79.25 3.6-.21 5.38A65.14 65.14 0 01334 175.39c-1 2.59-2.5 4.62-5.2 5.64-.74.27-1.19.67-1 1.49a1.47 1.47 0 001.52 1.14 3.68 3.68 0 001.34-.24c.56-.18 1.08-.44 1.7-.7a24 24 0 004 7.1 23.65 23.65 0 0011.21 7.54c1.24.38 1.82.85 1.79 2.28A29.05 29.05 0 00351 211c-14.12 5.9-26.83 13.94-39 22.77-.75-.07-.71-.74-.91-1.17-.89-1.9-1.83-3.79-2.91-5.6a12.25 12.25 0 00-7.61-5.77c-4.74-1.24-9.21-3.28-14-4.33-1.7-.37-1.85-.71-1.63-2.38.2-1.41.53-2.8.8-4.19.68-3.56-.25-5.65-3.39-7.62-1.75-1.11-1.75-1.11-1-2.91s.29-3-1.44-3.92a5.11 5.11 0 00-1-.45c-1-.31-1.38-.75-.81-1.8 1.46-2.68 1.34-4.54-1.91-7.22-1.64-1.35-3.4-2.57-4.93-4.05a14.22 14.22 0 01-2.49-2.93C267.42 177.47 267.48 176.72 269 174.81z"/><path fill="#fffefd" d="M258.35 407.63a103.8 103.8 0 01-13.14-1.32c-5.7-.74-11.42-1.31-17.1-2.18-6.82-1-5.31-.21-5.8-5.9a74.66 74.66 0 01-.4-9.57c.79-.18 1.16.47 1.74.62a1.63 1.63 0 001.86-.51 1.52 1.52 0 000-1.89 4.12 4.12 0 00-2.66-1.62A12.74 12.74 0 00219 385c-4.51.4-7.58-1.78-10-5.22a15 15 0 01-.95-1.53c-1.73-3.29-4.58-4.68-8.26-4.67a11 11 0 01-3.18-.41 3 3 0 01-2-1.49 5.57 5.57 0 012.92-.72 30.06 30.06 0 0010.78-2c4.41-1.7 8-.34 11.12 2.57 1.39 1.28 2.83 2.5 4.28 3.73a29.5 29.5 0 0017.59 6.87 54.76 54.76 0 009.41-.22 46.34 46.34 0 017.81-.2c2.24.14 2.48.52 2.22 2.61-.82 6.46-1.63 12.92-2.38 19.38A37.23 37.23 0 00258.35 407.63zM299.44 252.43c3.79-5.26 7.67-10.33 12.68-14.32a164.93 164.93 0 0143.21-25.19c1.14-.44 2.32-.77 3.48-1.14a5 5 0 01.9 0c-.4 1.65-.73 3.23-1.18 4.78a29.28 29.28 0 00-1.37 9.95c.09 1.22-.71 1.49-1.49 1.95q-8.07 4.74-16.12 9.51c-9.42 5.56-17.19 13-24.56 20.82-2.27 2.42-2.27 2.46-5.08.69-3-1.85-5.75-4-8.83-5.66A3.93 3.93 0 01299.44 252.43zM315.49 405.11a205 205 0 0015.77 60.95 83.88 83.88 0 01-7.86 3c-1 .32-1.29.13-1.68-.76-2.17-4.88-4-9.89-5.74-14.91a255 255 0 01-10-37.3 74.44 74.44 0 01-.91-8c-.08-1.13.33-1.46 1.38-1.48A35.21 35.21 0 00315.49 405.11z"/><path fill="#fffefd" d="M200.75,367.17a13.58,13.58,0,0,1-4,.53,8,8,0,0,0-3.94,1.09,3.05,3.05,0,0,0-1.16,4.62,6.17,6.17,0,0,0,3.1,2.57,1.54,1.54,0,0,1,1,1.5c.27,1.95.46,3.83-.55,5.69a4.11,4.11,0,0,0,0,3.91c1.21,2.37,1.52,5,2.44,7.47.13.34.29.87.12,1.08-1.14,1.44-1.44,3.28-2.38,4.79a3.54,3.54,0,0,1-2.69,1.54,2.64,2.64,0,0,1-2.66-1.32,10.12,10.12,0,0,0-3.11-2.29c-2.76-1.71-3.1-2.45-2.55-5.52a5.05,5.05,0,0,0-.35-3.51c-.88-1.53-.39-2.63.79-3.74a8.11,8.11,0,0,0,2.38-5.46,6.45,6.45,0,0,0-1.56-4.81,7.69,7.69,0,0,1-1.65-5.88,5.31,5.31,0,0,1,4.29-4.91,13.19,13.19,0,0,1,7,.47A23.24,23.24,0,0,1,200.75,367.17Z"/><path fill="#3359a6" d="M219.85,401.6a5.29,5.29,0,0,1-2.56-.84c-2.5-1.13-5-2.32-7.47-3.47a30.28,30.28,0,0,0-7.37-2.46,1.72,1.72,0,0,1-1.53-1.35c-.86-2.56-1.35-5.22-2.48-7.69a2,2,0,0,1,.08-1.76,10.41,10.41,0,0,0,.78-5.7c-.12-1.54.11-1.63,1.67-1.43a5,5,0,0,1,4,2.68,23.39,23.39,0,0,0,3.21,4.37,13.32,13.32,0,0,0,9.71,4.39c1.64,0,1.73.1,1.69,1.63-.08,3.3.29,6.57.41,9.86A3.16,3.16,0,0,1,219.85,401.6Z"/><path fill="#fefdfc" d="M292.84,157.35a5.21,5.21,0,0,1-5.35,0,12.16,12.16,0,0,0-8.86-1,7.66,7.66,0,0,1-2.76.52c-.39-1.21,0-2.47-.16-3.7-.14-1.38.28-2.81-.34-4.16l-.67-6.27c.84-.36,1.54.06,2.23.22a29.94,29.94,0,0,1,8.52,3.11c2.71,1.6,4.77,3.67,5.56,6.78A23,23,0,0,0,292.84,157.35Z"/><path fill="#924847" d="M221.31,362.22a4.36,4.36,0,0,1-1.28-2.05c-1.4-2.8-2.5-3.06-5.21-1.08a4.25,4.25,0,0,1-1.17-2.28,66.16,66.16,0,0,1-1-9.32c0-1,.32-1.39,1.32-1.31,2.13.17,4.26.31,6.39.46,1,.07,1,.76,1,1.45,0,2.16-.05,4.33-.06,6.49C221.3,357,221.31,359.45,221.31,362.22Z"/><path fill="#c75288" d="M376.58,140.75c-.09-.55-.15-1-.24-1.43-.15-.78-.24-1.62.76-1.82,1.18-.22,1.29.73,1.5,1.55a9.24,9.24,0,0,1-.49,5.5,20.72,20.72,0,0,1-3.8,6.36c-2.4,2.83-5.1,5.38-7.71,8a41.09,41.09,0,0,0-7.45,9.91,8.76,8.76,0,0,1-.84,1.33,1.2,1.2,0,0,1-1.59.5,1.09,1.09,0,0,1-.47-1.54c.27-.62.56-1.23.88-1.82A47.69,47.69,0,0,1,366,156c2-2,4.07-4.08,6-6.18a16.83,16.83,0,0,0,4.18-7.13C376.41,142,376.48,141.32,376.58,140.75Z"/><path fill="#3358a5" d="M199.79,362.36c2.09-.9,2.6-2.8,3.11-4.69.18-.7-.1-1.51.79-2.31.25,1.18.46,2.21.69,3.23a14.8,14.8,0,0,0,.67,2.6,2.83,2.83,0,0,0,5.1.53,22.21,22.21,0,0,0,1.41-2.5c.78.44.8,1.2,1.19,1.73,1.25,1.72,2.34,1.82,3.87.28.2-.2.29-.55.74-.47.58.39.66,1.09.93,1.69a5.9,5.9,0,0,0,1.54,2.2c1.64,1.37,1.63,1.38,1.54,3.51-.66.32-.89-.34-1.3-.57-.87-.47-1.7-1-2.58-1.47a11.14,11.14,0,0,0-9.51-.54,4.53,4.53,0,0,1-5-.65,19.26,19.26,0,0,0-3.21-1.71A.53.53,0,0,1,199.79,362.36Z"/><path fill="#924948" d="M212.7,339c0-.37,0-.75,0-1.12.12-4-.54-3.46,3.78-3.46,1.38,0,2.76.05,4.14,0,.91,0,1.27.44,1.14,1.26a47.82,47.82,0,0,0-.33,7.38c0,1-.52,1.34-1.44,1.17a35.91,35.91,0,0,0-6-.39c-1.13,0-1.46-.51-1.42-1.52s0-2.24,0-3.36Z"/><path fill="#c75288" d="M294.58,97a1.21,1.21,0,0,1,1.31.75c.28.82-.24,1.33-.95,1.52a7.07,7.07,0,0,0-3.73,2.49c-3.23,4.12-7.71,5.68-12.78,6.13-1.9.16-3.8.33-5.71.45a6.93,6.93,0,0,0-2.83.83c-.54.28-1.08.57-1.63.83a1.09,1.09,0,0,1-1.56-.47,1,1,0,0,1,.43-1.36A11.46,11.46,0,0,1,272.6,106a64.69,64.69,0,0,0,9.09-1.13,12.81,12.81,0,0,0,6.82-3.88,17.84,17.84,0,0,1,2.93-2.83A6.21,6.21,0,0,1,294.58,97Z"/><path fill="#924948" d="M200.71 338.43v1.41c-.09 4.58.62 3.3-3.71 3.91a39.09 39.09 0 01-4.34.15c-.79 0-1-.28-.93-1.09q.42-3.09.67-6.2c.09-1.08.51-1.62 1.69-1.62 1.91 0 3.81-.08 5.72-.15.9 0 1.21.31 1.06 1.21A19.35 19.35 0 00200.71 338.43zM207.75 360.76a7.72 7.72 0 01-1-3.27c-.41-2-.65-4-2.43-5.41a1.39 1.39 0 01-.42-1c-.1-.81-.23-1.62-.34-2.44-.36-2.71-.33-2.74 2.39-2.62 1 .05 2 .07 3 .06s1.41.33 1.4 1.3a47.67 47.67 0 00.47 7.16c0 .29.14.69 0 .88C209.54 357 209 358.9 207.75 360.76z"/><path fill="#924847" d="M210.29 338.79c0 1.12 0 2.23 0 3.35 0 .92-.3 1.4-1.32 1.36-1.53-.05-3.06-.05-4.59 0-1 0-1.36-.41-1.34-1.34 0-2.09 0-4.18 0-6.27a1.22 1.22 0 011.39-1.38c1.6 0 3.21-.05 4.81-.11.95 0 1.43.2 1.24 1.28a29.36 29.36 0 00-.19 3.12zM199.21 360.15a14.27 14.27 0 01-1.27-4.91 16.48 16.48 0 00-1.29-4.27c-1.13-2.41-2.44-2.72-4.65-1.19-.18.13-.34.31-.61.21-.08-.11-.25-.23-.24-.33.33-3.51.33-3.51 3.94-3.57 1.38 0 2.75-.06 4.13 0 1.72 0 1.72 0 1.85 1.78a37.79 37.79 0 01.32 3.78A21.18 21.18 0 01199.21 360.15z"/><path fill="#3258a4" d="M195.84 404.65a23.22 23.22 0 011.43 6.3 3.18 3.18 0 01-.59 2.13 7.79 7.79 0 00-1.13 5.78c.22 1.16-.13 1.39-1.34 1.49-.89.07-1.25-.29-1.32-1.12-.1-1.42-.34-2.82-.38-4.24a80.08 80.08 0 00-.59-8c-.14-1.11.26-1.67 1.4-1.81C194.15 405 195 404.83 195.84 404.65zM196.5 362a20.1 20.1 0 00-4.48-1c-.75-.08-1-.42-1.15-1.11a8.12 8.12 0 013.1-8.73A10.69 10.69 0 01195.6 356c.33 1.83.39 3.73 1.43 5.39C197.13 361.84 197 362 196.5 362z"/><path fill="#c55186" d="M260.47,119.08c-.8,4,1.51,6.18,3.88,8.35.56.51,1.18.95,1.68,1.5a1,1,0,0,1-.06,1.42,1.12,1.12,0,0,1-1.25.23c-3.57-1.16-7.3-7.24-6.64-10.85,0-.22.07-.44.11-.66.15-.72.47-1.34,1.34-1.19A1.06,1.06,0,0,1,260.47,119.08Z"/><path fill="#c15085" d="M338,101.42c0,.61-.27,1.07-.89,1.1a12.08,12.08,0,0,0-6.31,2.4,1,1,0,0,1-1.44-.08,1.08,1.08,0,0,1,.13-1.61,10.87,10.87,0,0,1,7.25-2.88A1.19,1.19,0,0,1,338,101.42Z"/><path fill="#ba4d7f" d="M353.29,181.25a17.36,17.36,0,0,1-.11,1.78.88.88,0,0,1-.76.74,1,1,0,0,1-1-.43c-.74-.91-.6-3.66.23-4.44a1,1,0,0,1,1.74.59,7.51,7.51,0,0,1-.09,1.76Z"/><path fill="#281b21" d="M337.49,165l-.06-5.75c-.23-.46,0-.57.43-.53.32,1-.12,2.14.6,3.06-.57.42-.44,1-.49,1.61S338.06,164.55,337.49,165Z"/><path fill="#11223f" d="M199.79 362.36l0 .86a2.5 2.5 0 01-1.84-.9h0zM196.5 362l.53-.57a1.52 1.52 0 01.87.92h0C197.4 362.36 196.89 362.44 196.5 362z"/><path fill="#fffefd" d="M157.45,340.15a1.58,1.58,0,0,1,1.42-.89c4.56-.07,9.13-.21,13.69-.32l-.21,10.78a403.45,403.45,0,0,0,1.41,40.84,127.62,127.62,0,0,1,.18,22.88,44.13,44.13,0,0,1-4.5,15.69,22.89,22.89,0,0,1-2.61,3.95,6.53,6.53,0,0,1-6.52,2.42A28.72,28.72,0,0,1,144,427.35a52.25,52.25,0,0,1-8-10.12c-7-11.37-13.61-22.91-19-35.11a230.2,230.2,0,0,1-10-26,6.41,6.41,0,0,1,3-2.69,27.33,27.33,0,0,0,7.27-5.08,3.53,3.53,0,0,1,2.22-1.06,7,7,0,0,0,4.91-3,4.5,4.5,0,0,1,4.11-2,4.85,4.85,0,0,0,5.15-3.34,3.88,3.88,0,0,1,3.77-2.72l.33.15a2.2,2.2,0,0,1,.66.85c1.27,3.62,1.94,7.38,2.88,11.09,3,11.94,6.76,23.64,12.62,34.61a22.59,22.59,0,0,0,2.61,4c.45.52,1.08,1.06,1.76.5s.14-1.14-.17-1.63a77,77,0,0,1-4.66-8.26,8.33,8.33,0,0,1-.91-5.43c2.07-9.84,3.05-19.82,4.05-29.8C156.81,341.47,156.71,340.67,157.45,340.15Z"/><path d="M157.45,340.15a248.15,248.15,0,0,1-4.2,32.24,5.47,5.47,0,0,0,.42,3.67,67.16,67.16,0,0,0,5,9.06c1.14,1.63,1.19,2.52.27,3.14s-2,.21-3.13-1.41a68.16,68.16,0,0,1-6.72-13c-4.49-10.76-7.53-21.94-10.14-33.24-.32-1.39-.73-2.75-1.11-4.12l-.15-.23-.12-.14c.57-.9,1.53-1.51,1.9-2.56.14-.37.5-.11.75-.12,3.52,11.32,5.64,23,10.29,34.1,2.05-9.44,2.84-19,3.67-28.61.76.05,1.53.11,2.29.14S157.31,339.64,157.45,340.15Z"/><path fill="#f2accc" d="M5.41,227.86a14.87,14.87,0,0,0,10.32,1.45,17.52,17.52,0,0,0-2,10.83c-1.71.05-3-1-4.49-1l-4.35,0c1-1.28.8-2.64.64-4.14C5.25,232.61,4.36,230.23,5.41,227.86Z"/><path fill="#c9548a" d="M147.78 57.7a10.86 10.86 0 00-2.06-.12 28.87 28.87 0 01-5.25-.46c-2.49-.48-4.74-1.26-5.82-3.8a1.74 1.74 0 00-1.55-1.25c-1 0-1.17.71-1.09 1.53a14.31 14.31 0 01-1.22 7 15.66 15.66 0 01-3.44 5c-1.41 1.46-1 2.55 1 2.94 1 .19 2 .14 3 .26 3.81.47 7.35 1.49 9.68 4.83.4.57.88 1.09 1.7.85s.94-.9 1-1.61c.07-1.42.2-2.83.24-4.25a8.81 8.81 0 013-6.36c.6-.57 1.29-1.07 1.86-1.67C150 59.21 149.62 58 147.78 57.7zm-5.46 6.77c-.68 1.69-.68 3.51-1.17 5.52a19.27 19.27 0 00-11.09-3.69 22.09 22.09 0 004.21-9.12c3.36 2.26 7 2.7 11.07 2.72C144.42 61.67 143 62.84 142.32 64.47zM426.78 169.17a13.55 13.55 0 00-1.56-.35c-3.67-1-7.6-1.54-9.5-5.48a1.07 1.07 0 00-1.38-.52 1.15 1.15 0 00-.76 1.45c.47 2.67-.51 5-1.92 7.17a38.06 38.06 0 01-2.81 3.55c-.59.7-1.29 1.39-.79 2.38a2.18 2.18 0 002.2.95c3.51 0 6.66.65 8.9 3.68.79 1.06 2 .7 2.45-.55a4.39 4.39 0 00.2-.87c.63-3.57 1.88-6.79 5.16-8.9a1.46 1.46 0 00.74-1.32A1.41 1.41 0 00426.78 169.17zM419.66 179c-2.47-2.48-5.34-2.57-8.28-3.27a19.3 19.3 0 004.37-8 31.44 31.44 0 007.91 3.35A16.76 16.76 0 00419.66 179z"/><path fill="#ca548a" d="M375.73,52.61a7,7,0,1,0-.12,14,7,7,0,0,0,7.34-6.8A7.12,7.12,0,0,0,375.73,52.61Zm0,11.65a4.61,4.61,0,0,1-4.68-4.56A4.72,4.72,0,0,1,375.86,55a4.65,4.65,0,0,1,4.55,4.71A4.57,4.57,0,0,1,375.73,64.26Z"/><path fill="#fffefd" d="M274.9,161.29a3.35,3.35,0,0,1,1.68-1.7,10.89,10.89,0,0,1,11.87,1,10.06,10.06,0,0,1,4.1,10.92c-1.07,4.55-4.07,7.41-8.84,8.35a11.2,11.2,0,0,1-12.13-6,4.26,4.26,0,0,1-.46-1.94c.24-2.5,2-4.48,2.48-6.92C273.86,163.74,273.82,162.32,274.9,161.29Z"/><path d="M336.59,156.88a14.8,14.8,0,0,0-1.79-2.32,6.74,6.74,0,0,0-8.05-.95c-4.62,2.65-7.3,6.49-7.24,11.88.05,4.27-2.53,6.35-6.92,5.5a9.31,9.31,0,0,1-6.26-4.19,8.27,8.27,0,0,0-5.21-3.68,15.29,15.29,0,0,1-6.51-3.61,55.93,55.93,0,0,1,10.65-3.39c7.49-1.83,14.92-3.91,22.63-4.84,4.91-.6,6.87.25,9.14,4.74C337.3,156.51,337.41,156.92,336.59,156.88Z"/><path fill="#060505" d="M274.9,161.29a23.28,23.28,0,0,1-3.78,10.65,9.85,9.85,0,0,1,3.18-10.73A.43.43,0,0,1,274.9,161.29Z"/><path fill="#2c292c" d="M336.59,156.88c.37-.18.37-.54.44-.86a4.43,4.43,0,0,1,.83,2.68l-.43.53A7.35,7.35,0,0,1,336.59,156.88Z"/><path fill="#f2adcc" d="M227,152.42a15.54,15.54,0,0,0-1.47,4.89c-.13,1.39-.56,1.55-1.7.72a10.44,10.44,0,0,0-6.84-2.07,7.21,7.21,0,0,1-2.69-.16,22.78,22.78,0,0,0,3.2-10.88,55.23,55.23,0,0,0,6.74,3.91c-1.67,2.65-1.37,3.2,1.86,3.43C226.35,152.28,226.65,152.37,227,152.42Z"/><path fill="#f0abca" d="M228.28,146.59a22.28,22.28,0,0,0,.61-6.24c1.65,1,2.71,2.39,4.39,2.91a17.36,17.36,0,0,0,5.14.65,22.43,22.43,0,0,0-3.21,8.39l-4.08-1.73c-.52-1.15,1.48-1.77.76-2.76s-2,0-3-.44C228.52,147.21,228.17,147.07,228.28,146.59Z"/><path fill="#c75488" d="M228.28,146.59a3.06,3.06,0,0,0,2.79.18,1.4,1.4,0,0,1,1.72.67,1.35,1.35,0,0,1-.39,1.6,5.19,5.19,0,0,0-1.27,1.53c-1.37-.35-2.85-.25-4.16-.87a1.3,1.3,0,0,1,1.38-.1c-.35-.38-1,.11-1.33-.39Z"/><path fill="#e4a4c5" d="M227,149.21c.43.11.92-.13,1.37.23-.43.4-1,.1-1.42.26A.35.35,0,0,1,227,149.21Z"/><path fill="#fffdfc" d="M173.16,331.7c-.09,1.26-.17,2.51-.25,3.77-.34.71-1,.79-1.68.88a109.85,109.85,0,0,1-13.45.35,4.41,4.41,0,0,1,.14-5.07c.42-2.45.42-2.46,3.06-2.5l10.25-.09c1.81,0,1.8,0,1.83,1.79A8.58,8.58,0,0,0,173.16,331.7Z"/><path fill="#fefdfc" d="M174.05,321.33l-.18,2.89a2.34,2.34,0,0,0-.3.82c0,1.06-.47,1.34-1.51,1.45-4.73.52-9.46.2-14.2.3a2.66,2.66,0,0,1,.07-3.71c.71-.83-.34-2.31.84-2.79a9.19,9.19,0,0,1,2.94-.12c3.51-.12,7,.09,10.53-.47C173.76,319.46,173.77,319.54,174.05,321.33Z"/><path fill="#050304" d="M157.92,331.63c0,1.69-.09,3.38-.14,5.07l-.45,0c-2.82,0-2.81,0-2.69-2.78a6.9,6.9,0,0,0-.14-2.6c0-.76.05-1.51.08-2.26H155C157.66,329.23,157.66,329.23,157.92,331.63Z"/><path fill="#060304" d="M157.93,323.08c0,1.24,0,2.48-.07,3.71a9.08,9.08,0,0,1-.91,0c-2.17,0-2.17,0-2.44-2.15a.32.32,0,0,1-.12-.34c0-.11.08-.17.12-.17a4.47,4.47,0,0,0,0-2.38c.05-.57.09-1.15.14-1.72l.45,0c2.62.05,2.62.05,2.7,2.61A2.13,2.13,0,0,0,157.93,323.08Z"/><path fill="#f1ebed" d="M154.51,324.18v.5c-.45.43.07,1.42-.65,1.5a2.74,2.74,0,0,1-2.15-1c-.4-.41-.29-.77.2-1.06A3,3,0,0,1,154.51,324.18Z"/><path fill="#de97b8" d="M177.21,325.49l0-1,.4-.2c.49-.25.92-.17,1.08.35s-.29.62-.63.73A3.78,3.78,0,0,1,177.21,325.49Z"/><path fill="#e4dee0" d="M154.44,317.21c-.82-.06-1.44-.35-1.64-1.07-.13-.49.29-.82.65-1.09.67-.51,1.17-.33,1.24.47A2.71,2.71,0,0,1,154.44,317.21Z"/><path fill="#e597bb" d="M178.54,315.72c-.36,0-.43-.21-.42-.43a.4.4,0,0,1,.4-.43.35.35,0,0,1,.38.42C178.86,315.46,178.65,315.6,178.54,315.72Z"/><path fill="#e5d8dd" d="M154,336.09a1.58,1.58,0,0,1-1.42-.78.89.89,0,0,1,.1-1.21,1.18,1.18,0,0,1,1-.4c.59.1.6.58.6,1A2.2,2.2,0,0,1,154,336.09Z"/><path fill="#e496bb" d="M177.28,335.12c-.13.07-.25.19-.38.2s-.25-.12-.38-.19c.13-.07.25-.2.37-.2S177.15,335.05,177.28,335.12Z"/><path fill="#f1abca" d="M230.59,110.59c-1.48-.32-1.45-1.65-1.65-2.65-.34-1.71,1.54-4,3.46-4.46a4.28,4.28,0,0,1,5.09,2.36,1.83,1.83,0,0,1,0,.66A6.83,6.83,0,0,0,230.59,110.59Z"/><path fill="#eea9c8" d="M240.24,110.94c1,2.4.39,4.36-1.57,5.39s-4,.45-5.41-1.68c2.06-1.21,4.48-1.86,6.11-3.75C239.58,110.67,240,110.83,240.24,110.94Z"/><path fill="#c9568b" d="M240.24,110.94a1.37,1.37,0,0,0-1,.51c-1.37,2.2-3.59,2.86-6,3.2a2.56,2.56,0,0,1-.36-2.69,8.12,8.12,0,0,0,4.68-3A3.69,3.69,0,0,1,240.24,110.94Z"/><path fill="#e1a5c3" d="M237.58,109c-.77,2.41-2,3.16-4.68,3C233.73,109.53,234.91,108.78,237.58,109Z"/><path fill="#efabca" d="M192.37,228.32c-1.71-2.13-1.67-4.17.11-5.71a4.14,4.14,0,0,1,5.59.21c1.58,1.56,1.54,3.51-.11,5.56A15.91,15.91,0,0,1,192.37,228.32Z"/><path fill="#f0abca" d="M197.91,231.56c0,.45.05.9.05,1.34,0,1.86-.64,2.88-2.08,3.36a3.34,3.34,0,0,1-3.52-1c-1.06-1.19-1.06-2.09,0-3.83A9.21,9.21,0,0,0,197.91,231.56Z"/><path fill="#bc4b7a" d="M192.37,228.32c1.87-.81,3.73-.45,5.59.06C195.76,230.08,194.52,230.06,192.37,228.32Z"/><path fill="#eaaacb" d="M248.7 326.9a1.91 1.91 0 01-1.95-1.8 2 2 0 111.95 1.8zM214.85 282.77a1.92 1.92 0 11-1.81 1.92A1.82 1.82 0 01214.85 282.77z"/><path fill="#eda2c4" d="M62.31,131.64a1.57,1.57,0,0,1-1.44-1.54,1.55,1.55,0,0,1,1.54-1.39,1.5,1.5,0,0,1,1.37,1.5A1.68,1.68,0,0,1,62.31,131.64Z"/><path fill="#0d0a0a" d="M171.33,195.2a1,1,0,0,1-1.52.74,11.42,11.42,0,0,0-4.36-1.81.81.81,0,0,1-.58-.86,1.08,1.08,0,0,1,.57-.91c1.39-.82,5.41.83,5.84,2.4A2.12,2.12,0,0,1,171.33,195.2Z"/><path fill="#0c0b0b" d="M141.28,216.51a5,5,0,0,1,2-3.76,1.35,1.35,0,0,1,2,.17c.48.66.22,1.24-.52,1.65a2.29,2.29,0,0,0-1.09,2.09c0,.82-.16,1.58-1.24,1.44S141.45,217.11,141.28,216.51Z"/><path fill="#131111" d="M129.34,194.8c-.19.41-.43.95-.68,1.47-.33.71-.75,1.42-1.68,1s-.65-1.24-.43-1.94a2.75,2.75,0,0,1,1.11-1.61,1.08,1.08,0,0,1,1.27,0C129.28,193.94,129.35,194.28,129.34,194.8Z"/><path fill="#010001" d="M365.18,276.94a20.45,20.45,0,0,1,13,4.33c4.45,3.44,7.83,7.55,9.26,13,.78,3,1.58,5.93,2.37,8.9a6.22,6.22,0,0,1,.16.88,1.2,1.2,0,0,1-.78,1.45,1.14,1.14,0,0,1-1.44-.79,13,13,0,0,1-.56-1.7,81,81,0,0,0-2.81-9.94c-2.73-6.62-7.48-11.45-14.65-13.12-10.56-2.45-21.62,3.63-25.3,13.25-.05.14-.05.29-.1.44-.22.64-.63,1.05-1.37.86s-.87-.78-.81-1.42a7,7,0,0,1,.87-2.54,24.26,24.26,0,0,1,13-11.81A24.81,24.81,0,0,1,365.18,276.94Z"/><path fill="#040102" d="M393.24,330.05c0,1.27,0,2.55,0,3.82,0,.79-.2,1.57-1.23,1.53-.87,0-1.1-.72-1.14-1.43-.11-1.94-.21-3.89-.27-5.83-.1-3.58-.16-7.17-.24-10.76,0-.45,0-.9,0-1.35s.26-1.06.88-1.14,1.09.41,1.21,1.06a11.92,11.92,0,0,1,.21,1.56q.25,6.27.5,12.55Z"/><path fill="#040203" d="M385.75,442.48c-.06,4.55-1.64,8.33-5.72,10.83a16.48,16.48,0,0,1-1.62.83c-.69.31-1.38.34-1.8-.38s0-1.26.64-1.65l.6-.33c3.18-1.67,5.13-4.16,5.41-7.76.05-.59.17-1.18.25-1.77.13-.85.33-1.76,1.47-1.57C386,440.85,385.85,441.75,385.75,442.48Z"/><path fill="#080305" d="M335.09,408a1.06,1.06,0,0,1-.85-1.65,3.15,3.15,0,0,1,1-.87,33.61,33.61,0,0,1,5.09-2.55,1.17,1.17,0,0,1,1.59.46.94.94,0,0,1-.35,1.37c-2,1.09-4,2.13-6.05,3.17A1.27,1.27,0,0,1,335.09,408Z"/><path fill="#0b0a0a" d="M330.52,167.39a4.62,4.62,0,0,1-.69,2.8,1.07,1.07,0,0,1-1.18.49c-.57-.16-1-.59-.83-1.15a6.74,6.74,0,0,0-.21-4.58,1,1,0,0,1,.66-1.25,1.1,1.1,0,0,1,1.36.54A6.13,6.13,0,0,1,330.52,167.39Z"/><path fill="#0e0b0b" d="M326.53,172a1.06,1.06,0,0,1-1.4,1.16c-1.25-.27-2.69-2.45-2.4-3.65.17-.76,1.07-1.25,1.5-.74A36.88,36.88,0,0,1,326.53,172Z"/><path fill="#080707" d="M288.79,155.53c-.06.91-1,1.32-1.88.69s-1.61-1.14-2.47-1.63c-1.77-1-3.52-1.48-5.34-.08a1.13,1.13,0,0,1-1.79-.18c-.41-.62-.05-1.15.43-1.58a5.64,5.64,0,0,1,5.37-1.21A13.81,13.81,0,0,1,288,154,1.7,1.7,0,0,1,288.79,155.53Z"/><path fill="#080606" d="M155.09,424.91a5.41,5.41,0,0,1-4.3-2.12,1.2,1.2,0,0,1-.06-1.81c.63-.57,1.23-.3,1.77.29,1.28,1.42,2.66,1.94,4.34.5a1,1,0,0,1,1.44.18,1.09,1.09,0,0,1,0,1.45A3.5,3.5,0,0,1,155.09,424.91Z"/><polygon fill="#c95388" points="137.69 336.29 137.89 336.34 137.85 336.52 137.66 336.48 137.69 336.29"/><path fill="#040303" d="M281.52,164.84a2.61,2.61,0,0,1,2.3,2.6,2.14,2.14,0,0,1-2.39,2.11,2.28,2.28,0,0,1-2.09-2.65A2.07,2.07,0,0,1,281.52,164.84Z"/></g></g></svg>