<svg xmlns="http://www.w3.org/2000/svg" viewBox="0 0 465.94 500.63"><g data-name="Layer 2"><g data-name="Layer 1"><path fill="#fcfcfc" d="M306.66,485.31a4.82,4.82,0,0,1-4.82-5.15c.59-8.65,1.76-27.66,2.63-52.85,2.47-71.86,10.3-186.21,50-199l6.76,5.32s19.24-29.32,46.24-38.32c0,0,93,35,40,280,0,0-27,12-56,1-22.88-8.67-38.28-1.8-54.57,4.44a69.36,69.36,0,0,1-24.84,4.56Z"/><path fill="#f3dda4" d="M39.81,239.5a169.48,169.48,0,0,1-16-11.24,51,51,0,0,1-12.67-14.49A30.89,30.89,0,0,1,8,204.66a44.38,44.38,0,0,1-.42-13.11A47,47,0,0,1,11,178.23c3.12-7.52,7.7-14.18,12.25-20.85,2.85-4.18,5.92-8.23,9.13-12.15,4.87-6,9.88-11.81,16-16.58a58.54,58.54,0,0,1,7.55-4.87,190.2,190.2,0,0,1,31.8-14.12c7.27-2.5,14.72-4.35,22.1-6.48,11-3.19,21.88-6.68,32.56-10.82a221.29,221.29,0,0,0,23.3-10.61c4.89-2.58,9.69-5.36,14.42-8.22,9.71-5.88,19.78-10.94,30.68-14.24a115.63,115.63,0,0,1,18.9-3.87,133,133,0,0,1,20.9-1.29c5.52.16,11,.62,16.52,1.24a166.79,166.79,0,0,1,24.59,4.74c2.75.73,5.46,1.59,8.19,2.39a1.81,1.81,0,0,1-.33,1.08c-5.05,7.67-3.54,15.37.55,22.64s10.46,12.39,17.31,16.89c1.49,1,2.51,2,2.57,3.79.2,5.82,1.29,11.59,1.13,17.44a4.65,4.65,0,0,1-.29,1.81,2.05,2.05,0,0,1-.79.81c-2.88,1.72-2.88,1.72-2.09,5a7.9,7.9,0,0,1,.39,3.64,23.67,23.67,0,0,1-2,4.41,9,9,0,0,0,.21,9.26A78.25,78.25,0,0,1,326,174.72c1.17,5.89,4.34,9.86,10.48,11.21a63.35,63.35,0,0,1,10.35,3.25,13.49,13.49,0,0,1,8.2,8.2c.89,2.45,2,4.82,2.88,7.29a3.53,3.53,0,0,1-1.34,4.43,82.49,82.49,0,0,0-8.4,7.57c-2.52,2.63-2.5,3.46.12,6.09.81.82,1.88,1.38,2.44,2.43.35,1.3,1.26,2.35,1.64,3.63a16.77,16.77,0,0,1-5.09,10.39c-11.42,11.39-18.32,25.34-23.48,40.35a222.83,222.83,0,0,0-10.06,45c-1.08,8.64-2.92,17.15-4.37,25.73-.33,2-1.22,2.8-3.22,2.73-3.08-.11-6.1.95-9.19.58-8.8-1-16.78-4.34-24.27-8.95-2.3-1.41-4.48-3-6.83-4.33-3.42-1.92-7-2.76-10.88-1.65a4.12,4.12,0,0,1-4.08-.88c-.93-.81-2-1.44-2.9-2.28-.3-1.65,1.19-1.57,2-1.93,5-2.16,10-4.49,14.23-8a26,26,0,0,0,6.15-7.14,101.18,101.18,0,0,0,8.43-19.22,7,7,0,0,0,.35-1.57c.19-2-.36-2.49-2.35-2.13-.85.16-1.82.77-2.4-.48-.19-2.89-.55-3.18-3.37-2.64-12.19,2.35-22.41,7.79-29.3,18.54-.79,1.23-1.4,2.55-2.09,3.84-.22.4-.5.81-1,.75a1,1,0,0,1-.85-.95,102.09,102.09,0,0,1-1.22-12.34c0-.14.13-.27.23-.39,1-.66,2.07-.36,3.13-.22,1.65.21,2.29-.55,2.08-2.14-.09-.69-.18-1.37-.31-2-.8-4.23-1.75-8.42-2.14-12.72a14.76,14.76,0,0,0-4.36-9.18,11.44,11.44,0,0,1-2-2.81c-1.19-5.11-1.35-10.35-2-15.53-.42-3.12-.78-6.26-1-9.4a2.16,2.16,0,0,1,1.91-2.62,49.29,49.29,0,0,0,8.07-2.77c6.69-1.61,11.7-5.34,14.59-11.68,2.68-5.87,4.68-11.91,4.67-18.45a10.2,10.2,0,0,0-.14-2.07c-.47-2.24-1.63-2.92-3.85-2.4-1.42.33-2.57,1.46-4.12,1.38a2.94,2.94,0,0,1-1.11-1.4,8.21,8.21,0,0,1-.49-3.61,11.21,11.21,0,0,0-.39-3.41c-.61-1.92-1.46-2.4-3.24-1.54s-3.53.87-5-.67a4.66,4.66,0,0,1-.51-.48c-2.34-2.56-5.41-3.05-8.63-3-1.61,0-3.19.48-4.8.58-6.15-1.52-11.57-.3-16.1,4.29-.27.27-.64.52-.76.86-1.3,3.78-4.43,5.44-7.78,6.89a4.54,4.54,0,0,0-1.51,1.06c-1.11,1.2-.77,2.59.82,2.64,7.72.26,9.46,6.06,11.12,11.87.63,2.21.68,4.56,1.09,6.83a26.54,26.54,0,0,0,2.57,7.63,12.73,12.73,0,0,0,8.91,7.06,2.72,2.72,0,0,1,2.47,2.58c.69,6.8,1.9,13.55,2.15,20.4-.08.63-.19,1.25-.85,1.56-2.68-.14-4.93-1.9-7.61-2A61.75,61.75,0,0,0,205,263.4c-6.31-.57-7.23.61-5.52,6.1,1.17,3.75,2.12,7.57,4,11A34.46,34.46,0,0,0,220.63,296a6.21,6.21,0,0,1,1.62.88c2.64,1.68,5.28,3.35,8.65,2.75a5.52,5.52,0,0,1,2.39.8c1.3,1.3,1,3.06,1.14,4.6q1.44,12.39,2.86,24.78a2.92,2.92,0,0,1-1.88,3.29c-4.87,2.35-6.18,5.17-4.53,10.28,1.18,3.67,1.63,7.1-.59,10.6a6.13,6.13,0,0,0,0,6.22,9.13,9.13,0,0,1,.93,5.82,4.28,4.28,0,0,0,2.67,5.06,5.37,5.37,0,0,1,2.61,2.52,5.33,5.33,0,0,0,4.84,3.05c2.2.06,3.12,1.24,3.59,3.17a8.8,8.8,0,0,1-.36,5.44,12.72,12.72,0,0,0-.83,7.68,6.18,6.18,0,0,1-.61,4.05,22.06,22.06,0,0,0-1.89,5.93c-.7,4.28,1.33,7,5.63,7.57,2.45.34,2.8.67,3.27,3.63.18,1.16,1,2.65-.13,3.48s-2.56.05-3.71-.5c-2.77-1.34-5.46-2.84-8.33-4a25.33,25.33,0,0,0-16.94-1.21c-2.57.73-2.91,1.47-1.4,3.69a59.64,59.64,0,0,0,11.8,13.22c5.35,4.31,11.49,6.09,18.23,6.21,3.67.06,3.72.09,4.52,3.74a8.63,8.63,0,0,0,.29,1.11c.2.51.43,1.13,1.07,1s.84-.79.88-1.43c.05-.92-.37-1.82-.18-2.75.71-1.65,2.15-1.2,3.39-1.1,3.29.27,3.58-.13,2.86-3.39-1-4.44-3.75-7.66-6.91-10.63a14.9,14.9,0,0,1-2.28-2.28c-1-2.06-1.07-4.32-1.43-6.52-.31-1.8.93-2.19,2.39-2.33a89.64,89.64,0,0,1,20.7.75c9.24,1.26,18,4.22,26.75,7.19,1.85.62,2.91,1.69,2.76,3.7-.53,6.82-.31,13.7-1.55,20.47a3.24,3.24,0,0,1-1.42,1.83h0c-.27.25-.19.67-.45.93h0c-.45.36,0,1-.5,1.37h0l-.43.48a1.07,1.07,0,0,0-.05.4c-.23.29-.16.72-.45,1v0c-.26.26-.18.7-.47.94v0c-.26.27-.18.7-.47.94h0c-.14.16-.28.31-.41.47a1,1,0,0,0-.06.42c-.25.28-.16.72-.48,1l0,0c-.14.17-.28.33-.43.49a1.07,1.07,0,0,0,0,.4,13.57,13.57,0,0,1-.91,1.45h0c-.27.25-.18.69-.48.93v0c-.25.27-.17.7-.48.94l0,0a5.23,5.23,0,0,1-.45.49h0c-.28.23-.19.68-.49.91l0,0a5.33,5.33,0,0,1-.46.49h0c-.27.24-.19.68-.48.92v0c-.13.18-.3.32-.44.49h0c-.3.23-.2.67-.49.91v0c-.14.17-.3.32-.45.49h0c-.29.24-.2.68-.49.91h0c-.14.17-.31.32-.45.49h0c-.37.42-.59.95-.95,1.38h0c-.34.44-.57,1-.95,1.39l0,0a5.33,5.33,0,0,1-.46.49h0a16.09,16.09,0,0,1-1,1.38h0a2.67,2.67,0,0,1-.47.48h0a5.22,5.22,0,0,1-.46.48h0c-.28.25-.19.7-.5.92h0a2,2,0,0,1-.48.47h0a2.38,2.38,0,0,1-.47.48h0a3.55,3.55,0,0,1-.47.48h0c-.14.17-.3.32-.46.48h0l-.46.47h0a3.19,3.19,0,0,0-.44.46l0,0c-.3.21-.2.67-.51.88h0a2.1,2.1,0,0,1-.47.47h0a2.14,2.14,0,0,1-.47.48v0a1.83,1.83,0,0,1-.48.48h0a2.37,2.37,0,0,1-.48.47h0a2.73,2.73,0,0,1-.48.48v0a2.37,2.37,0,0,1-.47.48h0a3,3,0,0,1-.47.47h0a3.05,3.05,0,0,1-.47.48v0a2.37,2.37,0,0,1-.48.47h0a2.37,2.37,0,0,1-.47.48v0a1.83,1.83,0,0,1-.48.48l0,0c-.21.31-.67.2-.88.51l0,0a3.64,3.64,0,0,0-.45.43h0c-.17.14-.32.3-.47.45h0l-.47.46h0a5.33,5.33,0,0,1-.49.46l0,0a2.37,2.37,0,0,1-.48.47h0a1.42,1.42,0,0,1-.54.46,1,1,0,0,0-.38.06l-.46.43h0c-.16.15-.31.32-.49.46l0,0a2.31,2.31,0,0,1-.52.47,1.41,1.41,0,0,0-.41.07,3.44,3.44,0,0,0-.44.41h0c-.17.14-.31.3-.48.45h0a2.08,2.08,0,0,1-.53.45,1.09,1.09,0,0,0-.4.07,4.47,4.47,0,0,0-.45.42h0c-.16.15-.31.31-.48.45h0c-.23.29-.68.2-.91.49h0c-.16.14-.31.31-.49.44h0c-.23.3-.67.2-.91.49h0a4.33,4.33,0,0,1-.53.43,1.54,1.54,0,0,0-.42.07,4.38,4.38,0,0,0-.45.41h0c-.25.27-.68.18-.92.47h0a5.12,5.12,0,0,1-.49.44l0,0c-.24.32-.69.23-1,.48a2.26,2.26,0,0,0-.44.08,5.72,5.72,0,0,0-.46.4h0c-.25.28-.68.2-.93.47h0c-.24.28-.68.2-.92.48h0c-.25.26-.68.18-.93.46h0c-.26.27-.69.17-.93.46l-.48.06a6,6,0,0,0-.46.4v0c-.24.3-.68.2-.94.48l-.46.06c-.26.22-.67.12-.89.42h0c-.26.25-.69.17-.92.46h0c-.26.25-.68.18-.94.45h0c-.26.29-.69.21-1,.45a1.84,1.84,0,0,0-.41,0c-.26.26-.68.17-.93.44h0c-.27.29-.7.22-1,.45h-.2l-.2,0c-.27.28-.7.19-1,.43a1.13,1.13,0,0,0-.41.05c-.27.26-.69.16-1,.42a2.09,2.09,0,0,0-.43,0c-.26.26-.69.16-.94.43a1.71,1.71,0,0,0-.45,0c-.27.25-.69.16-.95.42h-.22l-.21,0c-.27.26-.7.18-1,.42a1.5,1.5,0,0,0-.42,0c-.38.39-1,0-1.39.44h0c-.39.41-1,.05-1.42.46h-.22l-.21,0c-.41.39-1,0-1.43.43h-.21l-.21,0c-.4.4-1,0-1.43.44l-.9.05c-.41.35-1,0-1.41.41h-.21l-.21,0c-.56.48-1.34,0-1.9.44l-.88,0c-.72.51-1.64-.08-2.36.43l-.88,0c-1,.55-2.24-.15-3.28.43h-1.8a47.36,47.36,0,0,1-10.17,0l-1.35,0c-.87-.55-1.93.09-2.8-.42l-.9,0c-.55-.49-1.33,0-1.89-.44l-.22,0h-.22c-.54-.5-1.33,0-1.87-.46l-.21,0-.2,0c-.41-.38-1-.06-1.43-.42l-.46,0c-.38-.43-1-.05-1.4-.44l-.21,0h-.21c-.4-.4-1,0-1.43-.44l-.21,0h-.22c-.26-.27-.68-.17-1-.42a1.3,1.3,0,0,0-.44,0c-.26-.25-.66-.17-.94-.4l-.46-.05c-.25-.28-.67-.18-.93-.42a1.73,1.73,0,0,0-.45-.05c-.39-.42-1,0-1.41-.46h0c-.25-.27-.67-.18-.93-.43a1.57,1.57,0,0,0-.43,0c-.27-.26-.69-.16-1-.43a1,1,0,0,0-.39,0,3.35,3.35,0,0,1-.53-.4,1.61,1.61,0,0,0-.44-.05c-.27-.26-.69-.18-1-.44h0c-.23-.29-.65-.18-.9-.44a1.15,1.15,0,0,0-.41,0,3.54,3.54,0,0,1-.52-.42.9.9,0,0,0-.4-.05,4.7,4.7,0,0,1-.52-.39,1.3,1.3,0,0,0-.44-.06c-.26-.26-.71-.17-1-.48l0,0-.48-.42a1.51,1.51,0,0,0-.42-.05c-.18-.13-.35-.28-.52-.43h0c-.22-.3-.65-.19-.9-.45l-.19,0h-.19a2.35,2.35,0,0,1-.54-.45h0c-.25-.28-.69-.19-.92-.49v0c-.17-.14-.32-.3-.49-.45h0c-.24-.29-.68-.2-.92-.48h0a6,6,0,0,0-.46-.42,1.4,1.4,0,0,0-.41-.06,3.64,3.64,0,0,1-.53-.44h0c-.24-.29-.68-.19-.91-.49h0c-.18-.13-.33-.3-.49-.44h0a2.85,2.85,0,0,0-.44-.41,1.18,1.18,0,0,0-.41-.07,2.87,2.87,0,0,1-.53-.45h0c-.15-.14-.3-.28-.46-.41a.93.93,0,0,0-.4-.06,2.34,2.34,0,0,1-.53-.46h0l-.47-.43a1,1,0,0,0-.39-.05,1.71,1.71,0,0,1-.53-.47v0a5.33,5.33,0,0,1-.49-.46h0l-.46-.43a1,1,0,0,0-.38,0,1.61,1.61,0,0,1-.54-.46h0a4.19,4.19,0,0,1-.48-.46h0c-.44-.35-1-.56-1.38-.95v0a3.48,3.48,0,0,1-.48-.46h0c-.17-.15-.32-.31-.48-.46h0a4.22,4.22,0,0,1-.92-.87,1.1,1.1,0,0,0-.4-.08,2.07,2.07,0,0,1-.52-.46h0a3.56,3.56,0,0,1-.49-.46h0c-.49-.34-1.21-.17-1.64-.69-4.3-13.29-10.44-25.82-15.75-38.69-.65-1.56-1.75-2.93-1.92-4.68a16.1,16.1,0,0,1,.69-2.67,3.63,3.63,0,0,1,3.54-3.05,9.8,9.8,0,0,0,4-1.17,3.54,3.54,0,0,0,2-3.58,2.82,2.82,0,0,0-2.59-2.58c-3.69-.58-3.77-1.1-2.62-5.09,2-7.11,4-14.24,5.93-21.37a3.76,3.76,0,0,1,3.34-3.21c4.39-.78,6.09-4.42,7.59-8,2.56-6.08,3.74-12.54,4.59-19,1-7.47,1.6-15,2-22.51.29-5.31.32-10.61.32-15.91,0-2.24.77-3.69,2.92-4.39a7,7,0,0,0,2-1.15c2.8-2,2.89-3.86.17-6a5.23,5.23,0,0,1-1.76-4.09,61.67,61.67,0,0,0-4.38-18.34,26.93,26.93,0,0,0-15.26-15.23c-4.49-1.9-9.26-2.87-13.91-4.24-3.55-1.05-3.85-1.68-2.24-5,1.84-3.82,4-7.48,5.44-11.48,1.89-5.24,3.47-10.54,2.5-16.22a10.76,10.76,0,0,0-2.34-5.21c-2.11-2.51-4.93-2.29-6.67.47a22.88,22.88,0,0,0-2.21,6.05c-.42,1.44-.42,3.08-1.73,4.16a1.14,1.14,0,0,1-.92-.57,5.17,5.17,0,0,1-.2-3.16,193,193,0,0,0,1.65-30.86,11.13,11.13,0,0,0-.09-1.15,23.13,23.13,0,0,1,.26-8.56c1.19-5.14.4-10.34-3.73-14.33-4.44-4.29-8.28-9.14-12.82-13.31-7.41-6.8-20.09-9.59-29.57-2.6a32.62,32.62,0,0,0-5.16,4.27,29.19,29.19,0,0,1-9.79,6.78c-5.19,2.43-10.18,5.19-13.51,10.13a36.1,36.1,0,0,0-5,10.13,49,49,0,0,1-9.16,18.22c-3.85,4.68-6.64,10-7.17,16.25A3.87,3.87,0,0,1,39.81,239.5Z"/><path d="M240.69,242.71a33.55,33.55,0,0,1-8.87,3.11c-1.16.23-1.26.67-1.14,1.69,1,8.47,1.95,16.94,2.92,25.41,1.77,3.62,1.44,7.62,1.94,11.45.64,4.85,1.18,9.72,1.69,14.58.11,1.08.33,2.13-.33,3.11.49,4.34,1,8.68,1.46,13,.5.21.61-.1.74-.37,5-10.63,13.37-17.4,24.44-21,2.63-.84,5.35-1.38,8-2.11,1.09-.3,2.14-.47,3,.45s.47,2,0,3a3.3,3.3,0,0,1-.07,1.59c-2.49,5.44-4,11.27-6.61,16.67a32.23,32.23,0,0,1-13.16,14.06,52.47,52.47,0,0,1-9.3,4.5c-.4.17-.83.3-1.22.51-.21.12-.66,0-.6.34s.51.23.78.34c1.32.43,2.68.79,3.55,2a14.12,14.12,0,0,1,4,2.76,1.69,1.69,0,0,0,1.88.44c5.31-1.95,10-.26,14.35,2.69,4.8,3.22,9.65,6.33,15.12,8.35,2.81,1,5.63,2.05,8.52,2.86a22.1,22.1,0,0,0,9.15.69,27.12,27.12,0,0,1,6.42-.51c.74.07,1.08-.16,1.21-1,1.42-9,3.45-18,4.57-27.08,2.53-20.5,7.25-40.42,15.79-59.31a84.48,84.48,0,0,1,16.67-24.78c3.23-3.28,5.72-7.05,6.35-11.77a6.16,6.16,0,0,0-1.4-2.85c-1.17-1.1-2.39-2.15-3.5-3.31-2-2.12-2-3.46.14-5.5a93.41,93.41,0,0,1,9.61-8.62c1.13-.82,1.22-1.52.72-2.82-1.08-2.79-2.15-5.58-3.29-8.35a12.07,12.07,0,0,0-6.9-7,120.07,120.07,0,0,0-12.95-4.09,11.29,11.29,0,0,1-7.86-7.46,37.93,37.93,0,0,1-1.34-4.65c-.6-2.54-1.15-5.09-1.86-7.6a63.42,63.42,0,0,0-5.17-12.8c-.84-1.56-1.69-3.11-2.5-4.68a8.55,8.55,0,0,1-.32-7.78c.82-1.82,1.71-3.6,2.57-5.4,2,1.31,1.88,3.31,1.75,5.32a7.77,7.77,0,0,0,.43,7.71c.93,1.59,1.9,3.17,2.69,4.84.42.9,1,1.34,2,.84,9.55-4.65,20-6.05,30.23-8.2,1.24-.26,2.81-.17,3.2-1.79a4.53,4.53,0,0,0-1.31-4.65,11.58,11.58,0,0,1-3.15-4.24c-1.23-3.17-2.4-6.38-6.29-7.25-1.45-3.21-.56-5.25,2.68-6,6.87-1.61,13.79-3,20.66-4.58a5.37,5.37,0,0,1,1.83-.15,1.42,1.42,0,0,1,1.23.77c0,.15,0,.35-.08.44-3.69,3.73-4.4,8.69-5.6,13.45a7.23,7.23,0,0,0,.09,4.32c1.89,5.21,3.65,10.47,6.56,15.25,1.33,2.18,3,3.9,5.6,4.48a6.9,6.9,0,0,1,5.1,4.59,40.84,40.84,0,0,1,2.5,19.07c-.55,5.42-4.71,8.29-8.93,10.78-5.58,3.28-11.52,5.87-17.33,8.73-.71.35-1.74.54-1.64,1.66a3,3,0,0,0,.92,2.3c.82.59,1.41-.27,2-.7a238.64,238.64,0,0,1,29.76-18.15c4.07-2.14,7.25-4.1,5.89-9.59-.63-2.54-.21-5.37-.06-8.06a1.89,1.89,0,0,0-1.35-2.26,16.78,16.78,0,0,1-8.94-8.6c-1.29-2.62-3-5-3.9-7.85-.37-1.19-1-1.24-1.79-.36a15.32,15.32,0,0,1-3.81,3c-1.33.74-2.71,1-3.68-.49s0-2.58,1.16-3.27c7-4.34,8-11,7.19-18.38a4.88,4.88,0,0,1,.05-2.28,1,1,0,0,1,.83-.6c1.11.16,1.7-.27,1.29-1.41a35.15,35.15,0,0,0-2.95-7c-1.43-2.28-3.65-2.6-6.11-2.12-6.8,1.33-13.54,3-20.33,4.39-3.16.66-6.31,1.41-9.47,2.09-1.1.24-2.27.66-3.32-.21a2.63,2.63,0,0,1-.6-1c-2.73-9-10.51-11.1-18.14-13.45-1.4-.43-1.44.41-1.41,1.52.13,4.07,1,8.07,1.08,12.15a32.62,32.62,0,0,1-.08,4.08c-.31,2.08-2,2.8-3.9,1.71.44-3.86-.16-7.67-.47-11.5-.24-3-.52-6-.73-9a2,2,0,0,0-1.17-1.76,56.3,56.3,0,0,1-17.94-16.6c-3.68-5.36-4.71-11.44-3.94-17.83a11.78,11.78,0,0,1,3.73-7.21c6.83-4,14.14-4.59,21.77-3.13A88.1,88.1,0,0,1,337.5,63.9h0c.32.16.73.08,1,.41h0c.28.22.68.15.93.43h0c.24.26.64.18.89.42l.07,0c.3.46,1,0,1.27.55h0c.31.15.72.09,1,.41h0c.28.22.69.15.93.43h0c.24.26.65.18.89.42l.07,0c.29.46,1,0,1.25.57.33.12.75,0,1,.43h0c.3.16.71.1.95.42h0c.28.22.68.15.93.42l.05,0c.23.28.64.17.89.41l.1.14.16,0c.37.14.83.08,1.07.49h0c.31.15.73.07.94.44h0c.3.18.71.11.94.44h0c.28.21.7.14.93.44h0c.26.24.67.16.91.42l.05,0c.23.29.64.18.9.41l.11.14.17,0c.36.13.79.1,1.08.44h0c.28.21.67.15.93.4l.06,0c.34.44,1,0,1.32.51h0c.28.21.68.14.95.38a.19.19,0,0,0,.32.09c.35.16.76.13,1.07.38l.12.13.17,0a3.88,3.88,0,0,1,1.1.38l.11.13.17,0a3.59,3.59,0,0,1,1.1.38l.12.13.16,0c.47.28,1.13,0,1.53.47h0c.42.31,1,0,1.41.41h0c.52.48,1.31-.08,1.82.47h0c.55.45,1.32-.06,1.86.44l.12.12.15-.08c.64.35,1.42,0,2,.4a.26.26,0,0,0,.4,0c.9.5,1.95-.11,2.84.41a.77.77,0,0,0,.79.06c1.4.52,2.9-.16,4.3.4a3.06,3.06,0,0,0,2.07,0,23.87,23.87,0,0,0,7,0,23.55,23.55,0,0,0,6,0c1.59.54,3.28-.13,4.86.41a.57.57,0,0,0,.68.06c.65.36,1.45,0,2.07.44h0c.52.48,1.33-.1,1.81.49h0c.29.2.68.14,1,.36a.22.22,0,0,0,.33.11c.34.16.75.12,1,.42h0c.33.41,1.05-.07,1.3.55.33.11.75,0,1,.42h0c.29.18.73.08.91.48h0a1.44,1.44,0,0,1,.53.35l.06,0c.19.3.67.17.82.54h0a1,1,0,0,1,.52.4h0a14.6,14.6,0,0,1,2.65,2.44l.09-.12-.11.1c.59.22.68.87,1,1.27h0a1,1,0,0,1,.41.53l0,0a3.6,3.6,0,0,1,.95,1.4v0c.37.18.26.64.52.89h0A11.24,11.24,0,0,1,420.83,93h0c.28.27.24.68.42,1l0,0c.54.32.1,1,.53,1.36h0c.28.28.26.68.38,1l0,0c.59.34.2,1,.49,1.44l0,0c.71.45,0,1.32.56,1.82h0c.4.46.17,1.1.42,1.61l-.06.13.11.09c.54.73,0,1.65.42,2.39l0-.05a32.65,32.65,0,0,1,0,9.67l0,0c-.58,1.19.21,2.56-.48,3.74v0c-.48.73.11,1.65-.43,2.37l-.11.1.06.14c-.38.63.12,1.47-.49,2l0,0c-.3.44,0,1-.41,1.46h0c-.53.5.15,1.37-.57,1.81l0,0c-.28.44.09,1.09-.47,1.44l0,0c-.31.42.09,1.09-.5,1.42l0,0c-.12.34-.1.74-.37,1h0c-.43.36,0,1-.5,1.37v0c-.39.37,0,1.06-.52,1.38l0,0a10.65,10.65,0,0,1-.91,2.37v0c-.38.37.07,1.08-.54,1.37l0,0c-.11.34-.09.74-.38,1h0c-.41.36,0,1-.52,1.37l0,0c-.35.41.07,1.09-.52,1.4l0,0a10.74,10.74,0,0,1-.86,2.4v0c-.4.39,0,1-.49,1.4v0c-.37.4,0,1-.47,1.41v0c-.37.41,0,1.05-.46,1.42v0c-.37.4,0,1-.45,1.41h0c-.4.39,0,1-.45,1.4h0c-.48,1-.4,2.22-1.05,3.18l0,0c-.26.45.1,1.1-.46,1.45l0-.05c-.3.43.08,1.09-.48,1.44l0,0c-.32.41.11,1.1-.52,1.39l0,0c-.09.35-.07.75-.39,1v0c-.41.36.07,1.08-.56,1.35l0,0c-.1.35-.07.75-.4,1v0a9.12,9.12,0,0,1-1.37,2.8h0A5.43,5.43,0,0,1,406,163.6c-.17.4-.61.3-.9.48h0c-2.13.49-2.75,1.79-2.53,3.94.3,3-.2,6.1.25,9.13v0c.57.5,0,1.32.5,1.82a.29.29,0,0,0,.47,0c.25-.25.66-.14.9-.42l0,0c.25-.27.66-.19.92-.42h0c.29-.31.71-.28,1.06-.43a.19.19,0,0,0,.31-.1c.27-.23.67-.15.93-.39h0a2.47,2.47,0,0,1,1.11-.42l.15,0,.1-.13a2.45,2.45,0,0,1,2.28.06h0a1.55,1.55,0,0,1,.48.44h0c.37.7,1.22,1.33.34,2.22l0,0c-.26.45.13,1.11-.48,1.44l0,0c-.26.44.1,1.09-.47,1.44l0,0c-.32.42.11,1.1-.52,1.41l0,0a2.14,2.14,0,0,1-.37,1h0c-.38.48-.18,1-.2,1.56,0,2.16-.74,4.24-.63,6.43a3.57,3.57,0,0,0,1.43,3c6.25,4.53,11,10.5,15.72,16.5,4,5.08,8.06,10.11,11.64,15.51a21.55,21.55,0,0,1,2.11,3.82c.16.29.26.61.42.9v0a3.94,3.94,0,0,1,.9,1.44v0c.38.16.26.64.54.86v0c.16.16.36.3.37.56l0,0c.42.14.3.62.55.86h0c.19.16.39.29.37.58l0,0c.47.11.34.61.57.87v0a4.63,4.63,0,0,1,.91,1.44l0,0c.38.17.26.64.54.88h0c.17.16.37.3.36.57l0,0c.46.13.34.61.56.88h0c.33.19.22.65.52.86v0c.14.18.35.3.36.56l0,0c.41.15.3.63.54.89h0a4.66,4.66,0,0,1,.88,1.45l0,0c.39.17.29.64.53.9h0a3.07,3.07,0,0,1,.83,1.49l0,0c.48.14.37.61.53.92l0,0c.41.18.31.64.51.93v0c.35.2.26.65.5.92h0c.31.23.22.66.48.91h0c.28.23.19.67.47.91h0c.27.24.18.67.47.9v0c.26.25.17.67.46.91h0c.25.26.18.68.44.93h0c.28.26.21.68.45.95h0c.3.25.24.66.44,1l0,0c.36.24.31.65.42,1l0,0c.63.26.15,1,.57,1.35v0c.31.27.28.67.4,1l0,0c.6.29.15,1,.54,1.37v0a9.42,9.42,0,0,1,.88,2.39l0,0c.6.32.19,1,.51,1.41l0,0c.55.34.16,1,.49,1.42l0,0c.54.36.17,1,.47,1.44l0,0c.68.46,0,1.31.55,1.82h0c.4.41.11,1,.41,1.46l0,0c.64.49.05,1.32.5,1.87v0c.58.52,0,1.33.48,1.89l0,0c.58.53.05,1.33.46,1.9v0c.58.59.12,1.43.48,2.07l-.06.12.1.09c.5.55,0,1.34.44,1.91v0c.53.61.1,1.44.46,2.09l-.06.11.09.09c.48.63.08,1.44.43,2.1l-.06.12.09.09c.56.72,0,1.65.44,2.38l0,0c.67.86,0,1.94.46,2.84l0-.06c.77,1.17-.06,2.55.49,3.75l0-.05c.78,1.64-.12,3.45.51,5.11l0,0c.7,2-.09,4.07.46,6.07l0-.05c.39.36.29.85.29,1.29q0,14.19,0,28.36c0,.45.1.93-.27,1.31l-.06.11.09.09c-.45,2.65-.08,5.33-.23,8,0,.82.28,1.68-.26,2.45l-.06.1.08.09c-.63,2.36.26,4.82-.5,7.17l0,0c-.61,2.31.28,4.71-.47,7l-.06.11.09.08c-.62,2.22.24,4.54-.47,6.75l-.09.11.08.11c-.6,2.21.26,4.52-.46,6.72l-.07.1.08.09c-.6,2.06.23,4.23-.48,6.28l-.07.1.09.1c-.62,2.05.26,4.21-.5,6.24l0,0c-.6,2.45.29,5-.49,7.44l0,0c-.61,1.82.28,3.78-.48,5.59l0,0c-.58,1.67.24,3.47-.47,5.14v0c-.62,1.66.28,3.47-.5,5.11l0-.05c-.55,1.2.27,2.58-.49,3.75l0-.05c-.52,1.05.23,2.27-.46,3.29l0,0c-.57,1,.24,2.27-.51,3.27l0,0c-.47.9.19,2-.43,2.84v0c-.58,1,.2,2.26-.5,3.26l0,0c-.51.89.17,2-.45,2.84l-.07.1.06.1c-.48.95.17,2.09-.51,3l0-.05c-.48.89.22,2-.46,2.84l0,0c-.52.88.18,2-.46,2.82v0c-.58,1,.24,2.26-.52,3.25l0,0c-.49.89.21,2-.46,2.83v0c-.51.89.18,2-.45,2.83v0c-.55.88.15,2-.46,2.82l-.09.1.07.11c-.46.95.14,2.07-.48,3l0,0c-.55,1,.2,2.26-.46,3.29v0c-.57,1,.18,2.26-.46,3.29l-.09.11.07.12c-.5,1.1.2,2.37-.48,3.44l0,0c-.55,1,.21,2.27-.48,3.28v0c-.54,1,.22,2.26-.47,3.28v0c-.53,1,.2,2.26-.45,3.29v0c-.59,1.19.21,2.56-.47,3.74v0c-.51.71.09,1.63-.44,2.34h0c-.29.21-.14.73-.6.81l0,0a1.66,1.66,0,0,1-2.15.06l0,0a.68.68,0,0,1-.48-.49l0,0a6.17,6.17,0,0,1-.06-4.09v0c.59-1.19-.22-2.56.48-3.74v0c.55-1-.2-2.26.46-3.28v0c.58-1-.19-2.25.47-3.27v0c.58-1-.19-2.25.47-3.27v0c.62-1.17-.24-2.55.52-3.71l0,.05c.51-1.05-.21-2.27.45-3.3v0c.56-1-.21-2.26.47-3.27v0c.59-1-.25-2.26.52-3.25l0,0c.48-.89-.24-2,.47-2.83l0,.05c.49-.9-.2-2,.45-2.84v0c.53-.89-.16-2,.45-2.84l.08-.09-.07-.1c.47-1-.14-2.09.49-3v.05c.51-.89-.19-2,.45-2.83v0c.54-.88-.16-2,.46-2.82v0c.61-1-.22-2.26.53-3.24l0,.05c.47-.9-.2-2,.44-2.84v0c.57-1-.21-2.26.49-3.26v0c.5-.89-.17-2,.43-2.85l.09-.09-.07-.12c.46-.95-.12-2.07.46-3v0c.61-1.18-.24-2.56.52-3.72l0,.05c.52-1.2-.25-2.57.46-3.76l0,.05c.58-1.68-.24-3.49.47-5.16l.06-.1-.08-.09c.59-1.59-.22-3.32.48-4.9l.06-.1-.08-.09c.58-1.91-.21-3.93.48-5.82l.07-.11-.08-.09c.6-2.36-.24-4.82.48-7.17v0c.58-2-.23-4.1.46-6.08l.07-.11-.08-.09c.63-2.2-.27-4.52.5-6.71l0,.05c.6-2.3-.29-4.7.49-7l0,0c.62-2.45-.31-5,.5-7.44l0,.05c.58-2.3-.29-4.7.49-7l0,.05c.58-2.47-.28-5,.47-7.48l.06-.11-.09-.08c.47-3.74.07-7.5.22-11.24,0-.82-.28-1.69.28-2.45a.44.44,0,0,0,0-.65c.48-3.51.18-7,.18-10.55s.3-7.2-.18-10.79l.09-.08-.06-.11c-.75-2.2.14-4.53-.49-6.74l.08-.09-.06-.11c-.71-1.66.13-3.47-.47-5.15v0c-.67-1.24.05-2.65-.47-3.91l.07-.12-.09-.11c-.6-.87.07-1.95-.44-2.84v0c-.68-.83.08-1.93-.49-2.79v0c-.59-.7.06-1.63-.47-2.34v0c-.52-.56-.06-1.33-.41-1.93l0,.05c-.74-.64,0-1.62-.53-2.31v0c-.53-.55,0-1.33-.43-1.92l0,.05c-.62-.52-.09-1.33-.47-1.91l0,.05c-.67-.51-.11-1.33-.49-1.9l0,0c-.68-.49-.09-1.33-.51-1.89l0,.05c-.64-.49,0-1.32-.51-1.86v0c-.46-.39-.14-1-.44-1.45l0,0c-.54-.36-.18-1-.47-1.44l0,0c-.58-.33-.19-1-.49-1.43l0,0c-.57-.32-.16-1-.51-1.4l0,0c-.53-.33-.12-1-.51-1.39v0a12.57,12.57,0,0,1-.9-2.37l0,0c-.55-.31-.1-1-.54-1.35h0c-.27-.27-.23-.67-.42-1l0,0c-.36-.24-.31-.65-.43-1l0,0c-.63-.61-.57-1.55-1-2.24a49.57,49.57,0,0,0-4-7.76,270.55,270.55,0,0,0-32.3-44.66c-1.92-2.15-4.38-3.64-6.4-5.65a1.13,1.13,0,0,0-1.47-.17c-.28.15-.55.29-.83.42a123.23,123.23,0,0,0-41.69,33.72c-.38.48-.77,1-1.18,1.42-1.41,1.56-2.5,1.59-3.79,0a15.78,15.78,0,0,0-3.44-2.91c-.76.29-.54.93-.67,1.41a26.76,26.76,0,0,1-5.87,10.62c-1.26,1.46-2.56,2.88-3.86,4.3-6.73,7.4-11.27,16.12-15,25.28a200.07,200.07,0,0,0-13.16,52c-.95,7.72-2.52,15.34-3.86,23a268.54,268.54,0,0,0-3.52,27.25c-.14,2-.29,4-.58,6-.14,1,.22,1.4,1.16,1.51,2.68.3,5.35.69,8,.95,8.58.84,17.22,1.09,25.78,2.21,2.05.27,4.15.2,6.23.3.77,0,1.07-.29,1.08-1.09a30.6,30.6,0,0,1,.24-3.45c.3-2.28,1-3,3.31-3.48,2.57-.49,5.16-.9,7.73-1.36.61-.1,1.21-.23,1.81-.37,2-.43,2.4-.13,2.8,1.91.26,1.36.53,2.72.8,4.08,1,.93,1,2.22,1.21,3.41a292.54,292.54,0,0,0,13.78,52.54,6,6,0,0,0,.62,2.7v0c.31.25.25.67.45,1v0a2.46,2.46,0,0,1,0,3.14l0,0a.61.61,0,0,1-.48.48h0a3.51,3.51,0,0,1-1.37.94h0c-.19.36-.64.26-.9.49h0c-.23.32-.64.26-1,.41h0c-.32.56-1,.17-1.37.46h0c-.64.73-1.6,0-2.28.52h0c-.85.65-1.92,0-2.79.45v0a6.24,6.24,0,0,1-4.07,0h0c-.27-.22-.72-.11-.9-.49l0,0a.72.72,0,0,1-.48-.48l0,0a3.13,3.13,0,0,1-.92-1.42l0,0c-.41-.16-.29-.64-.54-.89h0a5.44,5.44,0,0,1-.89-1.43l0,0c-.37-.18-.27-.64-.53-.89h0a4.71,4.71,0,0,1-.85-1.47l0,0c-.42-.17-.32-.63-.51-.93l0,0c-.38-.21-.29-.65-.49-.94v0c-.35-.22-.27-.65-.48-.94v0c-.34-.23-.27-.66-.46-1v0c-.36-.23-.3-.65-.46-1l0,0c-.4-.21-.33-.64-.45-1l0,0c-.36-1.22-1.57-1-2.39-1.38v0c-1-.54-2.23.21-3.24-.47h0c-.85-.54-1.94.23-2.76-.49h0c-.88-.49-1.94.2-2.79-.44h0A34.36,34.36,0,0,1,346,431h0c-.83-.57-1.93.24-2.73-.51h0c-.72-.44-1.64.19-2.32-.45h0a28,28,0,0,1-4.15-.94h0c-.69-.49-1.64.21-2.29-.49h0c-.71-.45-1.64.21-2.31-.47v0c-1.7-.29-3.46-.2-5.06-1h0c-.44-.25-1,.05-1.42-.38h0c-1.54-.42-3.08-.86-4.59-1.41h0a19.9,19.9,0,0,1-3.23-.93h0c-.54-.42-1.34.14-1.83-.48h0a13.78,13.78,0,0,1-3.21-1h0c-.42-.29-1.06.1-1.38-.46h0c-.41-.3-1.06.11-1.36-.48h0c-.42-.27-1.06.13-1.37-.46h0c-1.39-.45-1.73.21-1.71,1.48.05,3.74,0,7.48,0,11.21,0,.74.26,1.53-.26,2.21l-.06.11.08.08c-.64,2.21.28,4.53-.5,6.72l0,0c-.44,2.5-.07,5-.21,7.54,0,.74.27,1.53-.28,2.21l0,0c-.45,5.37-.06,10.74-.21,16.11,0,.82.28,1.69-.27,2.46a.45.45,0,0,0,0,.66c-.47,3.11-.07,6.24-.23,9.36,0,.81.31,1.68-.29,2.42l0,0a1.83,1.83,0,0,1-2.43,1.14c-.79-.21-1-.88-1-1.63,0-6.77,0-13.54,0-20.3,0-.13.16-.26.26-.38l0,.05c.43-3.52.06-7.05.21-10.58,0-.81-.29-1.69.27-2.45l.06-.11-.09-.08c.64-2.23-.24-4.55.39-6.78.8-7.27,1.16-14.57,1.36-21.88a1.4,1.4,0,0,0-1.11-1.66c-6.91-2.32-13.73-5-20.93-6.34a150.64,150.64,0,0,0-16.91-2.3c-4.15-.32-8.25.49-12.65.44.68,2.92.84,5.68,1.73,8.31,1.57,3.66,1.77,7.61,2.43,11.46.3,1.78,1,3.6.27,5.45.18,1.14.44,2.27.52,3.42s-.51,2-1.42,2a1.7,1.7,0,0,1-1.87-1.63c-.18-1-.38-2-.47-3-.12-1.21-.64-1.7-1.92-1.67a43.41,43.41,0,0,1-8.73-.77,26.26,26.26,0,0,1-12.08-5.94,53.92,53.92,0,0,1-10.38-11.42c-.65-1-1.37-1.86-2-2.82-.93-1.41-.56-2.58,1-3,5.76-1.62,11.51-2,17.25.18a67.81,67.81,0,0,1,8.78,4.07,11.23,11.23,0,0,0,4.59,1.52,23.83,23.83,0,0,0-.67-5.05,1.15,1.15,0,0,0-1.23-1.11,10.92,10.92,0,0,1-1.15-.07c-4.26-.42-6.34-2.73-6.3-7a13.58,13.58,0,0,1,1.45-6,9,9,0,0,0,.93-6.67c-.56-2.09.1-4.13.95-6.05a8.37,8.37,0,0,0-.1-7.15c-.34-.75-.65-1.12-1.51-1a5.8,5.8,0,0,1-6.54-3.95,2.82,2.82,0,0,0-1.66-1.48c-3.27-1.51-3.92-2.7-3.39-6.12a7.32,7.32,0,0,0-.9-5.32,6.45,6.45,0,0,1-.16-6.61,7.93,7.93,0,0,1,.67-1.21,7,7,0,0,0,.72-6.4,30.47,30.47,0,0,1-1.37-4.88,7.63,7.63,0,0,1,5.65-8.84c1.16-.32,1.62-.69,1.47-2-1.14-9.55-2.21-19.12-3.31-28.68a5.44,5.44,0,0,0-.35-1.08c-.79-1.27-2.07-1-3.26-1-2.18.13-4.09-.78-6-1.56-.33-.09-.64-.22-1-.33a2.2,2.2,0,0,1-.86-.47c-1.39-.63-2.82-1.2-4.16-1.91a34.27,34.27,0,0,1-16.08-17.2A69.85,69.85,0,0,1,198.19,267c-.69-2.92.43-4.37,3.37-4.28,6,.19,12,.81,17.61,3.25.77.34,1.58.57,2.38.86,3.29,1.15,5.63,3.6,8.07,5.94a7.37,7.37,0,0,1-.23-3.17,2.46,2.46,0,0,0,.09-1.92c-.77-6.89-1.57-13.77-2.28-20.66-.1-1-.44-1.26-1.35-1.42a13.47,13.47,0,0,1-9.48-6.71c-2.22-3.65-3.08-7.67-3.62-11.82a27.72,27.72,0,0,0-1.87-8.07,16.27,16.27,0,0,0-2.81-4.48,7.07,7.07,0,0,0-5.75-2.42c-.23,0-.46.06-.69.08a2.19,2.19,0,0,1-2.36-1.46c-.37-.94.21-1.61.87-2.19a17,17,0,0,1,5.39-3.07,4.15,4.15,0,0,0,2.66-2.49c2.1-4.87,6.24-7.2,11.23-8.26a14.49,14.49,0,0,1,7.75.5,8.09,8.09,0,0,1,5.23,2.53c1.49,1.57,2.73,1.83,4.46.36,1.19-1,2.68-1.59,4.08-.11l0,0c2.65,3.41,1.79,7.59,2.69,11.36a37.27,37.27,0,0,1,3.81-2.08,2.36,2.36,0,0,1,3.11.42l.78,1.32c1.54,3,1.46,6.3,1.28,9.43-.42,7.25-2.26,14.13-6.88,20A12.73,12.73,0,0,1,240.69,242.71Z"/><path fill="#e3ae27" d="M382.4 437c-2-4.09-3.16-8.48-4.52-12.79a298.13 298.13 0 01-9.72-40.83c-.15-.91-.28-1.82-.41-2.72 3.48-2 7-3.91 10.45-5.88A68.46 68.46 0 01388.39 370c1.7-.62 1.71-.65 1.22-2.49a173.58 173.58 0 01-3.7-17.13 133 133 0 01-1.59-14.22c-.37-7.68-.59-15.38-1-23.06s-1.17-15-1.62-22.56a108.67 108.67 0 01.13-14.77 87.16 87.16 0 011.55-12.58 47.31 47.31 0 0113.2-23.92c6.59-6.45 14.66-9.1 23.82-8.42a15.52 15.52 0 015.54 1.53c9.85 4.74 17.43 11.73 21.63 22 .31.78.72 1.52 1.09 2.28.25.27.17.68.42 1l0 0c.31.3.29.73.44 1.09a.22.22 0 00.08.29c.25.28.18.69.41 1l0 0c.48.35.09 1 .49 1.4v0c.45.38.09 1 .46 1.42v0c.63.68-.06 1.63.49 2.33v0c.43.41.11 1 .45 1.49a.33.33 0 00.07.36c.36.4 0 1 .41 1.41v0c.54.53 0 1.34.47 1.88l0 0c.54.56 0 1.37.47 2a.26.26 0 00.05.34c.46.56 0 1.33.43 1.89l0 0c.63.89-.05 2 .46 2.91a.2.2 0 000 .31 1.81 1.81 0 01.25 1.32q0 16 0 32.07c0 .45.1.94-.27 1.32a.19.19 0 000 .3c-.44 2.16-.06 4.35-.2 6.52-.06.81.25 1.66-.26 2.42a.22.22 0 000 .32c-.59 2 .22 4.14-.44 6.15a.23.23 0 000 .33c-.58 1.55.22 3.22-.46 4.76a.19.19 0 000 .3c-.55 1.4.21 2.93-.45 4.32a.21.21 0 000 .31c-.56 1.39.22 2.92-.46 4.3l0 0c-.62 1.51.22 3.16-.49 4.65l0 0c-.59 1.2.2 2.57-.47 3.75a.18.18 0 000 .29c-.5 1.09.16 2.33-.44 3.41a.2.2 0 000 .31c-.55 1.23.21 2.62-.46 3.84l0 0c-.6 1.19.17 2.55-.45 3.74a.24.24 0 000 .33c-.57 1.23.2 2.62-.46 3.84a.18.18 0 000 .29c-.54 1.24.21 2.64-.45 3.87a.17.17 0 000 .28c-.54 1.25.2 2.65-.45 3.88a.2.2 0 000 .3c-.53 1.24.19 2.62-.43 3.86a.22.22 0 000 .32c-.55 1.24.17 2.61-.43 3.84a.25.25 0 000 .34c-.57 1.23.2 2.61-.46 3.83a.18.18 0 000 .29c-.54 1.24.19 2.63-.45 3.87a.2.2 0 000 .3c-.55 1.4.2 2.93-.45 4.32a.2.2 0 000 .31c-.57 1.4.22 2.94-.46 4.32a.17.17 0 000 .28c-.56 1.4.23 2.94-.46 4.32l0 0c-.59 1.2.18 2.56-.45 3.75a.22.22 0 000 .32c-.52 1.07.17 2.3-.45 3.36v0c-.56.87.13 1.94-.45 2.81a.23.23 0 000 .32c-.47.76.13 1.71-.45 2.44v0c-.54.69.15 1.65-.5 2.33l0 0c-.46.55.08 1.35-.47 1.88v0c-.38.41 0 1-.43 1.43a.16.16 0 00-.06.26c-.14.38-.13.81-.44 1.12l0 0c-.25.26-.17.68-.43.94a.2.2 0 00-.08.27c-.15.38-.09.84-.5 1.1l.05-.06c-.05.23-.24.36-.36.54a.22.22 0 00-.11.28 1.42 1.42 0 01-.38.66v0c-.31.22-.21.67-.51.89v0c-.25.26-.15.74-.56.9l.06-.05a.87.87 0 01-.47.54l0 0a1.47 1.47 0 01-.47.52l0 0a2.18 2.18 0 01-.48.48l0 0a3.63 3.63 0 01-.47.49v0a2.73 2.73 0 01-.48.48l0 0a1.86 1.86 0 01-.51.46l0 0a.89.89 0 01-.64.47.23.23 0 00-.28.13c-.16.12-.33.24-.48.37l0 0c-.22.32-.67.22-.91.51h0c-.25.26-.68.17-.91.46h0c-.27.25-.68.19-1 .43h0c-.41.44-1.05.11-1.48.46l-.2 0-.18.09c-.4.35-1 0-1.39.42h0c-.45.4-1.08.14-1.57.42l-.14 0-.13.08c-.6.49-1.39 0-2 .43l-.16-.05-.14.08c-.9.6-2-.07-2.9.44l-.18 0-.16.07c-1.23.6-2.61-.1-3.86.43a2 2 0 00-1.23 0 1.07 1.07 0 01-1.39 0 13.12 13.12 0 00-3.54 0c-1.56-.55-3.23.19-4.78-.42l-.81 0c-2.79-.6-5.65.21-8.44-.43l-.82 0c-1.54-.58-3.2.18-4.73-.43l-.79 0a23.21 23.21 0 00-6.71 0l-.19-.05-.17.08A.75.75 0 01382.4 437zM144.76 434.77c2.47 4.37 4 9.15 6.14 13.68 3.09 6.63 5.78 13.43 8.55 20.2 1.28 3.12 2.18 6.37 3.27 9.57.6.29.11 1 .51 1.37l0 0c.58.52 0 1.33.48 1.88l0 0c.65.66 0 1.63.51 2.32v0c.57.7-.06 1.64.46 2.34l0 0a.57.57 0 010 .92.15.15 0 000 .24.93.93 0 01-.46.66l0 0a1.31 1.31 0 01-.51.48l.05 0c-1 .7-2.3-.05-3.37.49a3.27 3.27 0 00-1.7 0c-2.14.53-4.33.09-6.49.24a6.55 6.55 0 00-2.45.19 3.23 3.23 0 00-1.69 0c-2.15.54-4.33.09-6.5.24a7 7 0 00-2.45.19 5 5 0 00-2.15.05c-2.95.63-6-.17-8.91.42a2.08 2.08 0 00-1.26 0c-2.28.52-4.59.09-6.88.24a6.58 6.58 0 00-2.5.19 3.38 3.38 0 00-1.73 0c-2.95.63-6-.16-8.92.43a2 2 0 00-1.24 0c-2.3.52-4.64.1-7 .24a6.36 6.36 0 00-2.45.2 2 2 0 00-1.24 0c-2.3.53-4.63.1-6.94.24a6.33 6.33 0 00-2.45.2 2 2 0 00-1.25 0c-2.3.53-4.63.1-6.94.25a6.59 6.59 0 00-2.46.19 3.27 3.27 0 00-1.7 0c-2.15.53-4.33.09-6.49.24a6.52 6.52 0 00-2.45.19 3.23 3.23 0 00-1.69 0c-2.15.54-4.33.09-6.49.24a6.73 6.73 0 00-2.45.19 3.27 3.27 0 00-1.7 0c-2.15.54-4.33.09-6.5.24a7 7 0 00-2.45.19 5.28 5.28 0 00-2 0c-.33-.19-.8-.1-1-.52l.07.08a2 2 0 01-.06-2.28l0 0c.62-1.66-.24-3.46.47-5.11v0c.55-.87-.14-1.95.45-2.81a.19.19 0 000-.29c.38-.62-.07-1.42.44-2v0c.55-.69-.15-1.66.5-2.33l0 0c.51-.71-.16-1.67.49-2.35l0 0c.52-.71-.16-1.67.49-2.35l0 0c.44-.56-.08-1.36.46-1.9l0 0c.47-.55 0-1.34.45-1.89a.2.2 0 000-.29c.28-.48 0-1.1.4-1.55a.23.23 0 000-.32c.41-.6-.1-1.42.48-2l0 0c.36-.41 0-1 .41-1.43a.26.26 0 00.07-.33c.31-.46 0-1.09.43-1.52v0c.52-.53-.09-1.36.52-1.86l0 0c.35-.41 0-1.05.46-1.43l0 0c.39-.4 0-1 .44-1.42a.2.2 0 00.06-.28c.29-.48 0-1.13.45-1.56l0 0c.38-.4 0-1 .45-1.42h0c.41-.38 0-1 .46-1.4h0c.42-.37 0-1 .48-1.39v0c.4-.38 0-1.05.49-1.41l0 0c.39-.4 0-1.07.5-1.42l0 0c.37-.41 0-1.07.5-1.42l0 0c.36-.4 0-1.07.5-1.42l0 0c.35-.41 0-1.08.5-1.42l0 0c.34-.42-.05-1.08.49-1.43l0 0c.33-.42 0-1.06.45-1.44l0 0c.38-.41 0-1 .44-1.43a.17.17 0 00.06-.27.33.33 0 01.4-.35c1.27 1.19 2.67.27 4 .22 7.7 1.84 15.45 1.27 23.19.45 3.52-.37 7.08-.55 10.58-.61a196.84 196.84 0 0049.62-7.46 4.84 4.84 0 011.13-.18C142.58 433.28 143.4 434.54 144.76 434.77z"/><path fill="#f3dba7" d="M440.75,231.65c-1.21-1.77-2.39-3.56-3.64-5.3a247.5,247.5,0,0,0-20.87-26,43.33,43.33,0,0,0-5.49-4.55,3.51,3.51,0,0,1-1.54-3.32,23.82,23.82,0,0,1,1-6.55c.14-.22.29-.21.43,0h0c.15.15.32.3.46.47h0c.17.15.32.31.47.47h0a5.22,5.22,0,0,1,.46.48h0a4.25,4.25,0,0,1,.48.47h0c.16.15.32.3.47.47h0c.17.15.32.31.47.47h0c.16.15.32.31.46.47h0c.17.15.33.31.48.47h0c.16.16.32.31.47.48h0a5.21,5.21,0,0,1,.47.47h0a4.25,4.25,0,0,1,.47.48h0a3.48,3.48,0,0,1,.47.47h0a3.05,3.05,0,0,1,.47.48v0a3.11,3.11,0,0,1,.48.48v0a4.25,4.25,0,0,1,.47.48h0a3.05,3.05,0,0,1,.47.48v0a3.05,3.05,0,0,1,.47.48h0a2,2,0,0,1,.47.48v0a2.14,2.14,0,0,1,.47.48v0a1.63,1.63,0,0,1,.47.54l.4.4a18.27,18.27,0,0,1,1.47,1.82h0l.46.48h0a3.46,3.46,0,0,1,.46.48h0a2.37,2.37,0,0,1,.47.48h0a2.1,2.1,0,0,1,.47.47h0c.4.41.6.94,1,1.37h0c.16.16.32.31.46.48h0a3.05,3.05,0,0,1,.47.48h0c.3.21.19.67.51.88l0,0a3.2,3.2,0,0,0,.43.47c.15.16.31.31.45.49v0a3.12,3.12,0,0,1,.47.49l0,0c.3.22.19.67.51.88v0a3.81,3.81,0,0,0,.44.46h0c.15.17.31.32.45.48h0a4.25,4.25,0,0,1,.47.48h0c.38.42.61.94.95,1.39h0c.42.65,1,1.19,1.38,1.87h0c.3.23.21.67.5.91h0c.15.16.31.31.45.49l0,0c.3.24.21.68.48.93h0a2.53,2.53,0,0,1,.45.53,1.33,1.33,0,0,0,.05.4l.42.48h0c.31.23.22.67.49.92h0a2.13,2.13,0,0,1,.44.55,1.22,1.22,0,0,0,0,.38,4.22,4.22,0,0,1,.45.49l0,0c.31.26.24.69.46,1a1.23,1.23,0,0,0,.06.39,4.15,4.15,0,0,1,.42.52,1.15,1.15,0,0,0,0,.41,3,3,0,0,1,.42.52,1.15,1.15,0,0,0,.05.41c.15.16.29.33.42.5a1.19,1.19,0,0,0,0,.42c.26.25.16.68.44.92h0c.27.25.19.68.46.93h0c.43.37,0,1,.48,1.39h0c.27.27.2.69.44,1a1.14,1.14,0,0,0,0,.41c.27.26.18.68.44.94h0c.44.38.08,1,.47,1.43a1.41,1.41,0,0,0,0,.41c.42.38,0,1,.46,1.41a1.71,1.71,0,0,0,0,.45c.37.41,0,1,.42,1.43a.94.94,0,0,0,0,.41A.64.64,0,0,1,440.75,231.65Z"/><path fill="#e3ae28" d="M429.2,15.24a.23.23,0,0,0-.09.29c-.16.37-.11.82-.48,1.09l0,0c-.21.29-.13.74-.49,1l0,0c-.21.29-.12.76-.53.94l.06-.05a1.12,1.12,0,0,1-.43.55h0a2.64,2.64,0,0,0-.38.5l0,.06c-.36.16-.22.66-.58.81l.05,0a1.15,1.15,0,0,1-.48.52l0,0a1.67,1.67,0,0,1-.48.51l0,0a1.94,1.94,0,0,1-.5.49l0,0a1.31,1.31,0,0,1-.51.48l0,0a.93.93,0,0,1-.53.48l.05-.06c-.15.4-.65.28-.87.58h0a2.68,2.68,0,0,1-.53.41l0,0c-.2.34-.66.24-.9.53h0a1.14,1.14,0,0,1-.68.4h-.15l-.1.11a2.4,2.4,0,0,1-.53.37l0-.05c-.19.38-.66.28-.93.53h0a1,1,0,0,1-.66.44.26.26,0,0,0-.28.17.85.85,0,0,0-.39.36l0,0a1.47,1.47,0,0,0-.42.44l0,0c-.44.35-.55,1-1,1.29l.05,0a1.19,1.19,0,0,1-.45.54v0a13.2,13.2,0,0,1-.93,1.41v0c-.25.27-.17.71-.51.93l0,0c-.22.29-.15.73-.48,1l0,0c-.22.29-.17.7-.43,1h0c-.44.37-.05,1-.45,1.39a.21.21,0,0,0-.07.3c-.29.47,0,1.1-.43,1.54h0c-.49.53.06,1.34-.48,1.86v0c-.49.54.09,1.36-.49,1.87l0,0c-.37.41,0,1-.44,1.44h0c-.42.37,0,1-.46,1.39h0c-.44.35,0,1-.54,1.37l0,0c-.2.3-.13.74-.48,1l0,0c-.22.29-.14.74-.51,1l0,0c-.07.22-.27.35-.39.54v0c-.33.2-.22.66-.52.87l0,0a3.92,3.92,0,0,0-.39.52l0,0c-.35.17-.21.67-.58.83l.05,0a1.19,1.19,0,0,1-.47.52l0,0a2.47,2.47,0,0,1-.46.51h0c-.15.16-.31.31-.45.47h0c-.16.14-.31.3-.47.45h0a2.62,2.62,0,0,1-.49.45l0,0a1.64,1.64,0,0,1-.5.48l0,0a1.08,1.08,0,0,1-.52.49l.05,0c-.16.36-.66.23-.83.57l-.05,0a2.69,2.69,0,0,0-.5.39l0,0a1.09,1.09,0,0,1-.65.44.23.23,0,0,0-.28.11,1.6,1.6,0,0,1-.62.35h-.17l-.14.1c-.27.22-.67.15-.94.4h0c-.28.3-.71.26-1,.44h-.19l-.16.09a1.07,1.07,0,0,1-1.36-.1l0,0a1.72,1.72,0,0,1-.51-.46l0,0a1.85,1.85,0,0,1,.93-2.75h0c.26-.31.7-.24,1-.46a.39.39,0,0,0,.38-.1,1.42,1.42,0,0,1,.64-.34.22.22,0,0,0,.28-.1A1.64,1.64,0,0,1,401,50L401,50c.17-.37.66-.24.86-.57l0,0a4.81,4.81,0,0,0,.48-.42h0a3.64,3.64,0,0,1,.5-.46l0,0a1.9,1.9,0,0,1,.5-.48l0,0a1.31,1.31,0,0,1,.51-.48l0,0a1.38,1.38,0,0,1,.49-.5l0,0a2.22,2.22,0,0,1,.46-.51v0a3.81,3.81,0,0,0,.4-.5l0,0c.33-.19.21-.66.54-.85l0,0c.23-.28.13-.75.54-.93l-.05,0c0-.25.25-.38.38-.56v0c.31-.22.2-.65.44-.9a.2.2,0,0,0,.1-.27c.13-.37.11-.81.45-1.11l0,0c.37-.41,0-1.06.48-1.43l0,0c.37-.4,0-1,.43-1.42a.22.22,0,0,0,.06-.3c.29-.47,0-1.11.43-1.55v0c.49-.54-.06-1.34.47-1.87v0c.5-.53-.09-1.36.51-1.86l0,0c.37-.4,0-1,.48-1.42l0,0c.23-.28.16-.68.4-1a.22.22,0,0,0,.09-.3c.16-.35.11-.81.49-1.07l0,0c.2-.3.12-.75.51-.95l-.05.05c.06-.24.26-.37.39-.56h0c.31-.22.2-.69.53-.89l0,0c.1-.2.28-.34.4-.53l0,0c.32-.2.2-.69.57-.86l-.05,0a1.1,1.1,0,0,1,.47-.53l0,0a2.74,2.74,0,0,1,.45-.51h0a3.89,3.89,0,0,0,.43-.48l0,0a1.67,1.67,0,0,0,.43-.45l0,0a1.67,1.67,0,0,0,.45-.43l0,0a4.81,4.81,0,0,0,.48-.42h0a1.84,1.84,0,0,1,.52-.44l0,0c.19-.35.66-.23.87-.55h0a1.81,1.81,0,0,1,.62-.39.31.31,0,0,0,.33-.14c.17-.11.34-.22.5-.34l0,0c.22-.32.67-.23.93-.5h0a1.09,1.09,0,0,1,.66-.42.22.22,0,0,0,.27-.13,3.4,3.4,0,0,0,.47-.38h0a1.75,1.75,0,0,1,.52-.45l0,0a1,1,0,0,1,.52-.49l0,.05a.77.77,0,0,1,.51-.5l0,0a.77.77,0,0,1,.5-.51l-.05,0a1.08,1.08,0,0,1,.48-.53l0,0a2.66,2.66,0,0,1,.42-.52h0c.3-.23.19-.69.53-.9l0,0c.21-.29.14-.74.49-1l0,0c.2-.3.13-.73.46-1l0,0c.23-.29.17-.7.45-1h0c.44-.36,0-1.06.54-1.37l-.05.05a1.74,1.74,0,0,1,.43-.54h0a5.23,5.23,0,0,1,.49-.45l0,0a1.59,1.59,0,0,1,1.83,0l0,0a5.23,5.23,0,0,1,.49.45h0c.18.44.76.77.4,1.38l0,0c-.38.4,0,1-.46,1.42v0C429.37,14.56,429.44,15,429.2,15.24Z"/><path fill="#070606" d="M410.32,203.21a2,2,0,0,1,1.16.7c2.12,2.43,4.42,4.7,6.37,7.28a5.66,5.66,0,0,1,.4.56c.45.69.72,1.44-.07,2s-1.44,0-1.89-.66c-1.85-2.56-4.06-4.81-6.1-7.21a5,5,0,0,1-.9-1.31A1,1,0,0,1,410.32,203.21Z"/><path fill="#171515" d="M339.11,269.78a1.64,1.64,0,0,1-1.59,1.64,1.73,1.73,0,0,1-1.63-1.63,1.67,1.67,0,0,1,1.63-1.61A1.56,1.56,0,0,1,339.11,269.78Z"/><path fill="#131010" d="M325.61,320.15a1.61,1.61,0,0,1-1.71,1.48,1.63,1.63,0,0,1-1.51-1.7,1.61,1.61,0,0,1,1.73-1.46A1.56,1.56,0,0,1,325.61,320.15Z"/><path fill="#161717" d="M312.33,426.42h.14c.35.17.8.1,1,.49l0,0c.39.2.31.64.49.95l0-.05c.39.61-.18.92-.41,1.33h0a.71.71,0,0,1-.53.39v0c-.4.53-.82.47-1.24,0h0a1.21,1.21,0,0,1-.92-.94l0,.05c-.46-.44-.53-.86,0-1.27l-.05.06c0-.29.2-.43.41-.57l0,0C311.55,426.54,312,426.58,312.33,426.42Z"/><path fill="#211b1b" d="M318.58,366.37a1.41,1.41,0,0,1-1.51,1.35,1.27,1.27,0,0,1-1.3-1.3,1.4,1.4,0,0,1,1.36-1.5A1.51,1.51,0,0,1,318.58,366.37Z"/><path fill="#fefefe" d="M425.46 201.64l-.47-.48zM425 201.17l-.46-.48zM423.6 199.33l-.47-.47zM423.14 198.87l-.47-.48zM422.68 198.4l-.46-.48zM422.23 197.93l-.46-.48zM419.44 194.71l-.47-.48zM419 194.25l-.47-.48zM418.52 193.78l-.47-.48zM418.06 193.32l-.47-.48zM417.6 192.85l-.47-.48zM417.14 192.39l-.48-.48zM416.67 191.93l-.47-.48zM416.21 191.46c-.16-.15-.32-.31-.47-.47C415.89 191.15 416.05 191.31 416.21 191.46zM415.75 191l-.47-.48zM415.29 190.53c-.16-.15-.31-.31-.47-.47C415 190.22 415.13 190.38 415.29 190.53zM414.83 190.07l-.47-.48zM414.37 189.6l-.48-.47zM413.9 189.14l-.46-.47zM413.44 188.68c-.15-.16-.31-.31-.47-.47C413.13 188.37 413.29 188.52 413.44 188.68zM413 188.22c-.16-.16-.31-.32-.47-.47C412.67 187.9 412.82 188.06 413 188.22zM412.52 187.76l-.48-.47z"/><path d="M47.74,438.73a1.16,1.16,0,0,0-1-.41L45.4,437a2.4,2.4,0,0,0-.45-1.39l0-1.77a3.79,3.79,0,0,0,.52-1.79c1-.83.48-1.64,0-2.46a1.61,1.61,0,0,0-.47-1.38,1.61,1.61,0,0,0-.47-1.38A1.62,1.62,0,0,0,44,425.4a1.59,1.59,0,0,0-.47-1.38,1.57,1.57,0,0,0-.47-1.38,1.55,1.55,0,0,0-.47-1.38,1.61,1.61,0,0,0-.47-1.38,1.6,1.6,0,0,0-.47-1.39,1.61,1.61,0,0,0-.46-1.38,1.63,1.63,0,0,0-.47-1.39,1,1,0,0,0-.34-1,1.85,1.85,0,0,0-.48-1.38,1.76,1.76,0,0,0-.47-1.38,1.73,1.73,0,0,0-.47-1.38,1.72,1.72,0,0,0-.47-1.38A1.69,1.69,0,0,0,38,407.8a1.68,1.68,0,0,0-.47-1.38,1.65,1.65,0,0,0-.47-1.38,1.61,1.61,0,0,0-.47-1.38,1.62,1.62,0,0,0-.47-1.38,1.62,1.62,0,0,0-.47-1.38,1.61,1.61,0,0,0-.47-1.38,1.57,1.57,0,0,0-.47-1.39,1.61,1.61,0,0,0-.47-1.38,1.62,1.62,0,0,0-.47-1.38,1.62,1.62,0,0,0-.47-1.38,1.63,1.63,0,0,0-.46-1.39,1,1,0,0,0-.35-1A1.8,1.8,0,0,0,32,390.2a1.8,1.8,0,0,0-.47-1.38,1.76,1.76,0,0,0-.47-1.38,1.68,1.68,0,0,0-.47-1.38,1.69,1.69,0,0,0-.48-1.38,1.65,1.65,0,0,0-.47-1.38,1.64,1.64,0,0,0-.46-1.38,1.64,1.64,0,0,0-.47-1.38,1.59,1.59,0,0,0-.48-1.38,1.58,1.58,0,0,0-.47-1.38,1.6,1.6,0,0,0-.46-1.38,1.63,1.63,0,0,0-.47-1.39,39.15,39.15,0,0,0-1.73-5.48c-2-6-4.08-11.94-6.07-17.93a6.79,6.79,0,0,0-1.66-2.71c-1.92-1.89-3.82-3.81-5.65-5.79a2.16,2.16,0,0,0-2.62-.73,31.18,31.18,0,0,1-3.77,1.09c-1.64.37-3.29.37-4.39-1.19s-1.43-3.36-.26-4.76c1.78-2.12,1.33-4.39,1.25-6.75-.25-6.93-.7-13.86-.5-20.79a36.58,36.58,0,0,1,2.61-13.53A14.82,14.82,0,0,1,11,289a60.5,60.5,0,0,1,14.37-5.58A133.25,133.25,0,0,0,39.19,279a2.81,2.81,0,0,0,1.72-1.68A38.8,38.8,0,0,0,44,265.78a32.89,32.89,0,0,0-1.65-14.33,72.57,72.57,0,0,1-2.53-11.95c0-6.93,2.74-12.84,6.7-18.31.54-.75,1.07-1.51,1.68-2.2,3.93-4.43,6.12-9.75,7.74-15.32a41.54,41.54,0,0,1,4.65-10.51A25.31,25.31,0,0,1,68.9,185a72.46,72.46,0,0,1,8.75-4.64,19.93,19.93,0,0,0,6-4.25,40,40,0,0,1,7.79-6.47c7.07-4.14,14.34-4.09,21.71-1a27.34,27.34,0,0,1,9.8,7.16c3.28,3.67,6.67,7.24,10.12,10.76a13.84,13.84,0,0,1,4.34,10.79c-.07,1.22,0,2.46-.06,3.69,0,.54.08,1.2-.31,1.55-1.25,1.14-.83,2.44-.65,3.81a105,105,0,0,1,.36,20.06c-.33,6.22-1.14,12.4-1.74,18.6,0,.09,0,.18,0,.26s-.18.46.24.44a.44.44,0,0,1,.3-.18c1-1.93,1.19-4.11,1.82-6.15a18.62,18.62,0,0,1,1.9-4.69c1.69-2.67,4.52-3.07,6.85-.91a11,11,0,0,1,3.33,6.45,26.48,26.48,0,0,1-.79,10.29c-1.36,6-4,11.44-6.92,16.8a14.58,14.58,0,0,0-1.67,3.88,59.4,59.4,0,0,0,8.16,2.51,53.68,53.68,0,0,1,12.32,4.5A25.83,25.83,0,0,1,172,290.49a61,61,0,0,1,5.1,19.32,22.55,22.55,0,0,1,.2,2.3A2.34,2.34,0,0,0,179,314.5c2.53,1.19,2.82,3.9.83,5.9a12.11,12.11,0,0,1-4.77,2.73c-.71.25-1,.58-1,1.29,0,.23,0,.46,0,.69-.06,9-.34,18-1.1,27-.81,9.44-1.87,18.84-4.59,28a30.2,30.2,0,0,1-3.28,7.61c-1.75,2.77-3.9,5-7.52,4.94-1,0-1,.75-1.2,1.39q-2,7.11-4,14.22c-1.09,3.93-2.17,7.85-3.29,11.88,1.15.24,2.19.42,3.21.69,2.1.54,3,1.5,3.17,3.17a4.3,4.3,0,0,1-2.69,4.41,13.69,13.69,0,0,1-4.91,1.17,1.84,1.84,0,0,0-2,1.72,10.29,10.29,0,0,1-1.13,3.49c-1.89.41-1.94.38-2.8-1.49a2.88,2.88,0,0,1,0-2.45c.25-1.05.63-2.06.93-3.09.95-3.27.58-3.66-2.78-3.29-5.05.55-10.14.56-15.19.66a310.26,310.26,0,0,0-53.63,5.32c-3.55.69-7.14,1.18-10.73,1.52-2,.19-2.71,1.17-3,3-.37,2.07,0,4.37-1.57,6.15-1.79,1.24-1.79,1.24-3.23-.4,0-.59.26-1.17,0-1.87A22,22,0,0,1,47.74,438.73Z"/><path fill="#e3ae28" d="M244.65 44.4a17 17 0 00-2.91-11 20.73 20.73 0 01-2.87-14.86 6.49 6.49 0 00-.65-4.24c-.68-1.29-1.23-2.66-2-3.9-1.6-2.55-2.08-5.43-2.55-8.32a1.6 1.6 0 011.14-2 1.7 1.7 0 012 .85 3.34 3.34 0 01.52 1.74 14.21 14.21 0 002 6.1c.31.53.54 1.11.86 1.63a14.29 14.29 0 012 10.38c-.64 3.86.61 7.46 2.53 10.81a21.88 21.88 0 013 7.22 46.16 46.16 0 01.12 9.9c-.06 1.32-.7 1.89-1.65 1.79-1.21-.14-1.41-1-1.42-2zM86.55 62.66a9 9 0 010-1c.12-1.35.73-2.09 1.69-2.08s1.45.62 1.46 2.18c0 6.2 3 10.55 8.51 13.16 4.89 2.33 7.63 6.07 8.14 11.43a5.69 5.69 0 003.31 4.89 15.92 15.92 0 015.28 4 7.61 7.61 0 011.62 2.77c.23.88.15 1.75-.8 2.16a1.48 1.48 0 01-2-.65c-1.53-3-4.32-4.5-7-6.13a7.42 7.42 0 01-3.56-5.41c-.12-.68-.3-1.35-.37-2-.39-3.73-2.47-6.17-5.76-7.76a18.5 18.5 0 01-8.49-7.87A18.88 18.88 0 0186.55 62.66zM12.54 75a2 2 0 011.58 1.12q.75 1.3 1.44 2.64a39.26 39.26 0 002.88 4.73A8.1 8.1 0 0023.67 87c.91.16 1.8.41 2.7.63a11 11 0 018 7c.63 1.57 1.12 3.2 1.67 4.8a7.8 7.8 0 002.83 4.11 4.42 4.42 0 01.53.44 1.6 1.6 0 01.32 2.1 1.57 1.57 0 01-2.22.57 8.14 8.14 0 01-3.31-3.14 18.63 18.63 0 01-1.82-4.23c-.44-1.32-.87-2.64-1.43-3.9a7.29 7.29 0 00-5.1-4.32 14.4 14.4 0 00-1.57-.39A12.32 12.32 0 0114.86 84c-1.21-2.15-2.4-4.3-3.49-6.51A1.57 1.57 0 0112.54 75z"/><path fill="#030303" d="M247.81,17.52a13.22,13.22,0,0,1-.31,3.34c-.47,3-.16,5.81,1.84,8.28a13.81,13.81,0,0,1,2,3.88c.32.86.54,1.73-.53,2.13-.92.35-1.43-.3-1.72-1.09a28.89,28.89,0,0,0-2.76-5,10.61,10.61,0,0,1-1.42-7.31,19.69,19.69,0,0,0,.44-5.73,8.7,8.7,0,0,0-1.59-4,21.4,21.4,0,0,1-2.66-4.3,7.17,7.17,0,0,1-.43-1.31,1,1,0,0,1,.59-1.15.84.84,0,0,1,1.22.26c1.28,3.06,3.95,5.31,4.91,8.53A8.82,8.82,0,0,1,247.81,17.52Z"/><path fill="#050505" d="M25.1,82.76c2.72.76,6.06,1.1,8.88,3a9.84,9.84,0,0,1,3.32,4.34c.36.8.59,1.72-.45,2.17s-1.39-.32-1.73-1.06c-.13-.27-.28-.55-.41-.82a7,7,0,0,0-4.59-3.89c-1.55-.46-3.1-.88-4.65-1.32a11.79,11.79,0,0,1-1.32-.39c-.61-.25-1.08-.68-.83-1.41S24.06,82.64,25.1,82.76Z"/><path fill="#070606" d="M98.62,86.84c0-.64.19-1.13.81-1.29a1.05,1.05,0,0,1,1.31.69,13.12,13.12,0,0,1,.54,1.75c.29,1.2.57,2.4.83,3.6.34,1.63.86,3.11,2.61,3.8a1.13,1.13,0,0,1,.71,1.51c-.31.83-1.06.86-1.75.62a5,5,0,0,1-3-2.71C99.52,92.26,99.4,89.44,98.62,86.84Z"/><path fill="#040404" d="M328.76,17.37c-.22-.75-.53-1.55-1.46-1.52a1.09,1.09,0,0,0-1.1.86,2,2,0,0,0,0,1.16,8.85,8.85,0,0,1-.26,4.29,13.27,13.27,0,0,1-5.5,5.53c-.57,1.9,0,2.47,1.91,2a6.45,6.45,0,0,0,.62-.21C327,27.73,330,21.56,328.76,17.37Z"/><path fill="#e3ae27" d="M343.77,121.29c3-.06,5.73-1,8.58-1.62,8.06-1.7,16.09-3.52,24.13-5.29,3.62-.79,5.79.24,7.35,3.52a66.63,66.63,0,0,1,2.59,6.67c.25.71.3,1.39-.43,1.84s-1.29,0-1.74-.6c-.75-.37-.9-1.13-1.17-1.81-.17-.48-.31-1-.49-1.46a12.34,12.34,0,0,0-.54-1.43c-.27-.55-.44-1.15-.68-1.7-.91-2.07-1.68-2.43-4.19-2a15.21,15.21,0,0,0-1.79.31,3.92,3.92,0,0,1-.59.15c-.68.25-1.36-.42-2,0-7.95,1.72-15.89,3.45-23.84,5.14-.8.17-1.22.49-1.28,1.32-.08,1.21-.51,2.42,0,3.63a28.61,28.61,0,0,1-2.23,12.54c-.71,1.71-2.35,2.55-4.16,3-4.62,1.1-9.26,2.16-14,3-4.87.83-7.4-1.09-8-6a10.38,10.38,0,0,0-1.42-4.85,6.2,6.2,0,0,0-.34-2.7,22.51,22.51,0,0,1-.7-2.89c-.19-1.93-.19-2.54,1.85-3a16,16,0,0,0,1.73-.59c.92.4,1.75-.17,2.63-.27.64-.07.78-.61.79-1.19,0-1.43,0-2.86.07-4.3,1.25,0,.85,1,.91,1.64.28,2.69.27,2.73,2.85,2.13,4.23-1,8.51-1.82,12.75-2.79A6.09,6.09,0,0,1,343.77,121.29Z"/><path fill="#1c6a30" d="M245.1,331.52a82.11,82.11,0,0,0,10.64-5.46c6.15-3.78,10.2-9.22,12.92-15.79,2.08-5,3.5-10.31,5.89-15.22.34.54.76.31,1.2.16a13.48,13.48,0,0,1,2.2-.65c1.28-.21,1.9.32,2,1.59a7.33,7.33,0,0,1-.39,2.49,98.61,98.61,0,0,1-8.31,19.43,29.13,29.13,0,0,1-10.52,10.74,57.52,57.52,0,0,1-11.13,5.48,6.33,6.33,0,0,0-1.66.79l-3.6-1.53A7.36,7.36,0,0,1,245.1,331.52Z"/><path fill="#d2243f" d="M240.69,242.71c6.57-5.53,9.8-12.76,11-21.13.61-4.27-.16-8.43-.39-12.63,1.55-.65,3-1.64,4.66-2,1.95-.36,3.12.27,3.63,2.2a17.72,17.72,0,0,1,.18,6.65,45.59,45.59,0,0,1-5.8,17.39A19.24,19.24,0,0,1,240.69,242.71Z"/><path fill="#e3ae27" d="M191.94 147.15c0 .77.05 1.54 0 2.31a1.33 1.33 0 01-1.56 1.32 1.27 1.27 0 01-1.25-1.39 24.19 24.19 0 00-.38-3.9 9.33 9.33 0 00-2.84-5.67c-4.66-4.2-6.5-9.54-6.54-15.67a22.63 22.63 0 00-.49-4.34 8.46 8.46 0 00-3.76-5.36c-4.51-3.08-6.62-7.54-7.58-12.71a5.43 5.43 0 010-1.61 1.3 1.3 0 011.21-1.2 1.5 1.5 0 011.78.73 8.87 8.87 0 01.59 2c.74 4 2.31 7.44 5.8 9.85 4.22 2.91 5.92 7.11 5.81 12.14a25.93 25.93 0 001.46 8.13c.74 2.48 2.75 4.06 4.33 5.91A13 13 0 01191.94 147.15zM275.21 137.27c-.37 1.81-.87 3.59-1.09 5.42A14.34 14.34 0 01267.79 153a8.75 8.75 0 00-3.8 7.25 23 23 0 01-2.23 10 13.55 13.55 0 01-4.24 4.78c-1.1.77-1.93.74-2.44-.06a1.6 1.6 0 01.47-2.26c3.82-2.8 4.64-6.86 4.89-11.2a34.7 34.7 0 01.4-3.66 10 10 0 013.44-6.33l.88-.76c4.74-4.21 4.73-4.21 5.86-10.46a14.56 14.56 0 011-3.77 1.65 1.65 0 012.05-1C275.05 135.72 275.23 136.44 275.21 137.27z"/><path fill="#1c6a30" d="M236.9,302.06c-.62-5.15-1.26-10.31-1.85-15.47-.52-4.55-1-9.11-1.45-13.67,2.77,2.7,5.35,5.52,6.17,9.49a24.9,24.9,0,0,1,.46,2.72c.38,4.9,1.67,9.66,2.43,14.5.3,2-.62,3-2.57,2.71A12.68,12.68,0,0,0,236.9,302.06Z"/><path fill="#e3ae27" d="M265.44,103.16a12.78,12.78,0,0,0,.32-6.38c-.35-1.91.5-2.81,2.4-2.37a13.71,13.71,0,0,0,3.18.45,13.23,13.23,0,0,0,5.21-.76,2,2,0,0,1,2.38.22,2,2,0,0,1,.18,2.37,17.22,17.22,0,0,0-1.7,8.49c.11,2-1.22,2.82-3.19,2.06a5.71,5.71,0,0,0-4.05-.11c-.94-1-.08-2,0-3,.05-.6.38-1.27-.24-1.7s-1,.11-1.5.3C267.47,103.09,266.58,103.94,265.44,103.16Z"/><path fill="#020101" d="M184.21,92.87a6.67,6.67,0,0,0-.51,4.72c.18.77.45,1.54-.37,2.07s-1.5.06-2-.53c-2.11-2.33-5.08-2.33-7.84-2.9-1.12-.23-2.28-.3-3.41-.52-1.4-.28-1.74-1.2-.88-2.32.23-.31.55-.54.81-.83a10.19,10.19,0,0,0,3.14-7.21c0-1.15.18-2.3.28-3.45A1.94,1.94,0,0,1,174.77,80c.83-.24,1.23.38,1.68.93A4.79,4.79,0,0,0,179,82.79c2.26.26,4.39,1.21,6.76,1.07a1.81,1.81,0,0,1,1.82,2.55A19.15,19.15,0,0,1,184.21,92.87Z"/><path fill="#e3ae27" d="M184.21,92.87a20,20,0,0,1,1.9-4.37c.3-.62.64-1.22.88-1.86.63-1.67,0-2.54-1.75-2.33A9.11,9.11,0,0,1,179,82.79c.67-.81,0-1.61,0-2.41-.11-2.55,1-3.4,3.4-2.35,1.81.81,3.54,1.83,5.58,2a5.73,5.73,0,0,0,2.7,0,2,2,0,0,1,2.36.39c.65.78.27,1.59-.11,2.36a21.22,21.22,0,0,0-1.75,5.71,8.26,8.26,0,0,0,.2,3.42,2.17,2.17,0,0,1-.89,2.44,1.91,1.91,0,0,1-2.35-.2A8.14,8.14,0,0,0,184.21,92.87Z"/><path fill="#010101" d="M265.44,103.16a5.61,5.61,0,0,0,3.35-1.36c.52-.34,1-.7,1.7-.31s.67,1.15.52,1.84a22.53,22.53,0,0,0-.84,3.81,11,11,0,0,0,.27,4.56c.14.52.27,1,.37,1.57a1.41,1.41,0,0,1-.52,1.44,1.1,1.1,0,0,1-1.48-.06c-2.67-2.28-5.31-1.17-8,0-.87.39-1.69,1.34-2.72.5s-.26-1.87.08-2.73c1.1-2.7,1.11-5.22-.83-7.57-.47-.57-.72-1.25-.11-1.86a1.51,1.51,0,0,1,1.92-.11C261.23,104,263.33,103.77,265.44,103.16Z"/><path fill="#1d6a30" d="M256.61,436.45q-1.32-7.77-2.64-15.54a10.39,10.39,0,0,1-.06-1.37c4.89,3.39,8.32,7.79,9.48,13.76.52,2.66-.06,3.33-2.84,3l-2.73-.3A1.1,1.1,0,0,0,256.61,436.45Z"/><path fill="#d2243f" d="M250.51,207.63a3.11,3.11,0,0,0-3.24.23c-1.37.79-2.76,1.54-4.29,2.38-.53-4.29-.53-8.44-2.08-12.31,1.59,1.75,3.26,1.77,5.25.52,1.61-1,2.94-.33,3.53,1.48a15.13,15.13,0,0,1,.61,4.29A14.46,14.46,0,0,0,250.51,207.63Z"/><path fill="#030202" d="M187.64,180.13a4.7,4.7,0,0,1,4.11-3.52,4.84,4.84,0,0,1,5.25,3.22,4.93,4.93,0,0,1-2.31,5.93c-.46.26-1,.45-1.46.68a2.12,2.12,0,0,1-1.76.33,3.33,3.33,0,0,1-.6-.16c-.3-.1-.59-.2-.88-.32-1.65-.7-2.36-2.17-3-3.69A2.36,2.36,0,0,1,187.64,180.13Z"/><path fill="#d22641" d="M187.64,180.13c-.08.85-.16,1.7-.23,2.55-.27.73-1,.87-1.56,1.31a2.75,2.75,0,1,0,3.77,3.91c.45-.5.59-1.28,1.35-1.51l2.26.05a5.85,5.85,0,1,1-7.59-5.8C186.3,180.46,187,180.3,187.64,180.13Z"/><path fill="#030202" d="M283.59,242.33a15,15,0,0,1-.53,1.51,4.6,4.6,0,1,1-7.66-5,15.22,15.22,0,0,1,1.17-1.09,2.89,2.89,0,0,1,2.23-1.09c2.27,0,3.62,1.38,4.75,3.11A2.33,2.33,0,0,1,283.59,242.33Z"/><path fill="#d22640" d="M283.59,242.33l-.48-2.45a4.09,4.09,0,0,1,.36-.83c.89-1.28,1.18-2.6-.34-3.56s-2.61-.33-3.51,1c-.17.25-.4.45-.58.7l-2.47.62c.12-3.39,1.86-5.52,4.74-5.78a5.25,5.25,0,0,1,5.64,3.46,5.35,5.35,0,0,1-2.12,6.29A2.21,2.21,0,0,1,283.59,242.33Z"/><path fill="#050403" d="M263.25,174.19c-.67-.12-1.1-.47-1-1.23a2.16,2.16,0,0,1,.69-1.17,11,11,0,0,0,2.64-8.11,8.84,8.84,0,0,1,1.75-5.84,4.43,4.43,0,0,1,.74-.87,1.15,1.15,0,0,1,1.49-.11,1,1,0,0,1,.36,1.4c-2.13,2.51-1.8,5.58-2.14,8.53a11.71,11.71,0,0,1-3.16,6.54A2.4,2.4,0,0,1,263.25,174.19Z"/><path fill="#060504" d="M194.62,141.29a1.51,1.51,0,0,1-.05.38c-.18.64-.53,1.14-1.26,1.12a1,1,0,0,1-1.06-1c.05-3.8-2.45-6.13-4.82-8.56a8.77,8.77,0,0,1-2.15-3.77,7.79,7.79,0,0,1-.28-1.34c-.07-.66.07-1.26.84-1.41a1.08,1.08,0,0,1,1.33,1c.45,2.7,2.31,4.44,4.16,6.18A10.52,10.52,0,0,1,194.62,141.29Z"/><path fill="#d1253f" d="M240.94,198a3.4,3.4,0,0,0-4,.64c-.36.29-.75.54-1.09.84-.87.79-1.61.92-2.48-.11-1.66-2-3.95-3.05-6.21-4.15,2.63-.52,5.26-1.12,8-.55C237.44,195.13,239.59,195.85,240.94,198Z"/><path fill="#20662f" d="M229.81,269.61c.14,1.4.28,2.8.43,4.4-1.22-.55-1.68-1.6-2.42-2.31-1.93-1.86-4.25-3.17-6.27-4.89a17,17,0,0,1,7.32,2.4C229.18,269.37,229.6,269.24,229.81,269.61Z"/><path fill="#ecf6f1" d="M223.22,297.73a66.25,66.25,0,0,0,6.56,1.49c.38.32,1.17.08,1.2.89-3.55.81-6.28-1-9-2.81a1.59,1.59,0,0,1,1.13.38Z"/><path fill="#226d3c" d="M231,300.11l-1.2-.89c.73,0,1.47,0,2.2,0,1.06,0,1.18.63,1.12,1.45C232.32,300.77,231.73,300.14,231,300.11Z"/><path fill="#a09669" d="M229.81,269.61c-.37,0-.73,0-.94-.4.68-.33.36-1,.61-1.55A2.67,2.67,0,0,1,229.81,269.61Z"/><path fill="#f3e8cf" d="M135.56,245.56a.43.43,0,0,1-.09.43c-.85,0-.61-.49-.5-1h0Z"/><path fill="#fff" d="M359.83,429.62a61.56,61.56,0,0,1-8.15-1.23c-6.06-1.12-12.07-2.43-18.12-3.59-10.83-2.08-21.27-5.54-31.62-9.24-8.57-3.05-17.21-5.77-26.26-7-6.57-.9-13.14-1.58-19.8-.86a60.49,60.49,0,0,1-8.08.15c-3.12-.07-4.05-1.25-3.77-4.41a11.62,11.62,0,0,1,1.3-4.4,10.72,10.72,0,0,0,1-7.84,5.69,5.69,0,0,1,.48-3.82,12.52,12.52,0,0,0,.1-10.52,13.11,13.11,0,0,1-.8-3.35c-.28-2,.52-2.81,2.5-2.36a63,63,0,0,1,8.52,2.83c7.3,2.85,14.6,5.8,22.47,6.78,2.52.31,5.06.45,7.59.64,8,.61,15.89,1.88,23.8,3.18,3.11.51,6.27.73,9.41,1,7.75.7,15.53,1,23.27,1.82a44.45,44.45,0,0,0,6,.16c1.13,0,1.44.36,1.52,1.41.31,4.15.84,8.27,1.49,12.38a184.15,184.15,0,0,0,6.92,27.28C359.66,428.84,359.7,429.07,359.83,429.62Z"/><path fill="#fff" d="M307.86 355.67c-1.12 7.17-1.62 14.16-2.26 21.13-.1 1.06.11 2.39-.61 3.07s-1.88-.07-2.85-.2c-6.41-.87-12.82-1.61-19.28-2A60.8 60.8 0 01266.94 374c-5.59-1.9-10.94-4.48-16.67-6a3 3 0 01-1.85-3.5c.89-2.71 0-4.83-1.87-6.69a2.09 2.09 0 01-.36-2.88 8.43 8.43 0 001.15-6.12 7.09 7.09 0 016.58 3.58 26 26 0 006.28 7 10.47 10.47 0 006.18 2.26 1.63 1.63 0 001.88-1.33 1.58 1.58 0 00-1.52-1.93c-4.67-.53-7.26-3.85-9.57-7.3s-5.05-5.46-9.17-5.77a21.36 21.36 0 01-5-.79 5 5 0 01-2.48-1.25 3.55 3.55 0 012.91-1c1.39 0 2.77 0 4.16.05a21.45 21.45 0 007.52-.92c3.53-1.21 6.67-.29 9.68 1.52 1.51.91 3 1.88 4.45 2.88a71.54 71.54 0 0021.59 9.65 24.78 24.78 0 0012.1.36A9.74 9.74 0 01307.86 355.67zM383.78 126.3a32 32 0 01.14 10.34A14.65 14.65 0 01377 147.05a9.21 9.21 0 00-1.16.75 1.55 1.55 0 00-.46 2.23 1.67 1.67 0 002.25.58 13.69 13.69 0 003.8-2.59c.82-.79 1.54-1.69 2.56-2.84a59.85 59.85 0 004.5 10 20.91 20.91 0 004.49 6.11A11.17 11.17 0 00397.7 164c1.32.33 1.65.83 1.53 2.21a44.76 44.76 0 00.28 12.66c.39 2 .4 2-1.46 3.05-9.27 5.17-18.58 10.27-27.5 16-3.29 2.13-6.49 4.39-9.69 6.83A27 27 0 01359 200c2.41-1.47 5-2.49 7.45-3.73 3.71-1.86 7.44-3.69 11.16-5.53a27.12 27.12 0 007.75-6.13 8.32 8.32 0 002.07-5.27A45.63 45.63 0 00385.37 162c-1-2.91-2.58-5-5.82-5.55-2.47-.42-4-2.19-5.17-4.25a96 96 0 01-6.26-14.11 10.15 10.15 0 01-.28-7.39c.58-1.58.74-3.3 1.19-4.93a13.63 13.63 0 014.65-7.52c.29-.58 1-.46 1.42-.79h-.05c.51-.42 1.13-.18 1.69-.24 3-.24 4.37 1.67 5.46 4a4.88 4.88 0 01.49 1.21c.52.57.33 1.44.86 2C383.71 125.05 383.61 125.7 383.78 126.3zM360.48 229.67a146.08 146.08 0 01-11.32-10c2.57-2.6 5.09-5.06 7.78-7.33a187 187 0 0128.78-19.53c6.56-3.7 13-7.57 19.85-10.78a4.82 4.82 0 012.11-.78c.41.59-.08 1-.24 1.5a30.2 30.2 0 00-1.62 8.82 2.8 2.8 0 01-1.81 2.76 124.22 124.22 0 00-18.9 11.49 122.77 122.77 0 00-23.46 22.42C361.32 228.67 361 229.08 360.48 229.67zM354.42 385.59c0-2.16-.44-4.2.53-5.42s3-.84 4.56-1.09c1-.15 2-.33 3-.5 1.55-.27 1.57-.28 1.86 1.34.34 1.89.67 3.79.95 5.69 2.5 17.12 7.17 33.68 12.8 50 .58 1.67 1.25 3.31 1.95 4.93.36.83.17 1.27-.63 1.6a27.31 27.31 0 01-7.89 1.57c-.78.08-1-.52-1.37-1a67.2 67.2 0 01-7.4-15.34 175.84 175.84 0 01-6.87-27.5A118.8 118.8 0 01354.42 385.59z"/><path fill="#1c6a30" d="M201.57,266.75c-.32-.38-.27-.75.22-.84a4.1,4.1,0,0,1,1.6,0c2.77.57,5.61.69,8.39,1.27a28.94,28.94,0,0,1,14.34,7.43,17.54,17.54,0,0,1,5.54,11.11c.27,2.59.45,5.19.9,7.76a12.63,12.63,0,0,1,.07,1.38c0,.8-.39,1.16-1.13,1.08a24,24,0,0,1-4.08-.6,36.85,36.85,0,0,1-8.18-3.07,6,6,0,0,1-.67-.45,3.88,3.88,0,0,0-1.06-.91,6.34,6.34,0,0,1-.69-.59,34.29,34.29,0,0,1-6.39-9,86.45,86.45,0,0,1-5.78-12C204.1,267.71,203.27,266.78,201.57,266.75Z"/><path fill="#fff" d="M319.27,140.38c.81.8.93,1.93,1.42,2.88,1.19,2.35,2.66,3.25,5.23,2.76,5.21-1,10.39-2.14,15.58-3.27a5.05,5.05,0,0,0,4.05-4.21,92.51,92.51,0,0,0,1.68-9.3,2.18,2.18,0,0,1,.38-1.31,3.8,3.8,0,0,0,1.29.49c2.07-.06,3,1.3,3.65,2.93.52,1.2,1.06,2.39,1.56,3.59a10.44,10.44,0,0,0,3.26,4.4c1.37,1.06,2.09,4.44,1.33,5.9-.37.71-1.09.78-1.75,1-3.57,1-7.22,1.57-10.85,2.22a88.15,88.15,0,0,0-18.18,5.09,29.8,29.8,0,0,0-4.7,2.29c-1.64-3.16-3.28-6.18-4.79-9.26C317.36,144.36,318.28,142.34,319.27,140.38Z"/><path fill="#d2243f" d="M226.33,236.51a57.26,57.26,0,0,1,8.17-14.11,41.06,41.06,0,0,1,13.25-10.91c2.79,10-2.35,24.42-9.67,28.44,1.83-3.64,3.4-7.11,3.85-11a1.91,1.91,0,0,0,.08-1.5s.25-.69-.29-.28c-.11.08-.18.22-.3.31a66.6,66.6,0,0,1-6.54,11,9.09,9.09,0,0,1-4,3.25C228.51,240.75,227.5,238.57,226.33,236.51Z"/><path fill="#1c6a30" d="M269.54,297.8l-3.81,10.6a31.71,31.71,0,0,1-5.51,9.5,28.94,28.94,0,0,1-8.9,6.82c-2,1.09-4.11,2-6.18,3.06-1.14-1.95-.76-4.06-.34-6,2.22-10.3,8.29-17.5,17.92-21.71a49.25,49.25,0,0,1,4.65-2C268.07,297.76,268.76,297.24,269.54,297.8Z"/><path fill="#fff" d="M237.2,335.66c.27,2.23,1.14,4.39-.12,6.68-.68,1.24-.1,2.56,1.18,3.65a9.89,9.89,0,0,0,3.7,1.8c2.12.65,2.87,2.16,2.11,4.25a12.8,12.8,0,0,1-.91,1.86,4.4,4.4,0,0,0,.65,5.72c1.41,1.42,1.9,2.89,1.09,4.77-.53,1.26.19,2.37.75,3.56a4.74,4.74,0,0,0-3,4.12c0,.61.36,1.53-.69,1.69a2.37,2.37,0,0,1-2.51-.74,4,4,0,0,1-.57-1,5.44,5.44,0,0,0-3.33-3.28c-1.73-.72-1.78-.79-1.51-2.56a10.16,10.16,0,0,0-1.35-7.53,2.94,2.94,0,0,1-.14-3.08,5.28,5.28,0,0,1,.4-.83c2.48-3.49,2.32-7.18.89-11A10.36,10.36,0,0,1,233,340C233,337.39,234.37,336,237.2,335.66Z"/><path fill="#1c6a30" d="M235.35,414.87a77,77,0,0,1,12.92,6.5,7,7,0,0,1,3.34,5.46c.1,1.21.35,2.42.53,3.63.23,1.65,0,2.06-1.52,1.82-3-.48-6.13-.26-9.08-1.25-.49-.16-1.1.05-1.49-.45a4.14,4.14,0,0,0-1.12-.77,1.11,1.11,0,0,1-.52-.23c-.38-.34-.82-.6-1.21-.94a53.58,53.58,0,0,1-8.87-10.54c-1.28-2-1.11-2.81.56-4q.83,0,1.65,0c.41.11.82.21,1.24.29a4.27,4.27,0,0,0,1.22.2C233.79,414.72,234.52,415.28,235.35,414.87Z"/><path fill="#fff" d="M343.77,121.29c-3.63,1.24-7.44,1.73-11.16,2.62-2.73.65-5.49,1.19-8.29,1.8-.51-1.79.17-3.52-.44-5.12-.49-4.8-1-9.6-1.46-14.33.53-.61,1.07-.31,1.55-.19a54.75,54.75,0,0,1,11.58,4.38,14.35,14.35,0,0,1,6.9,7.4C343,119,343.33,120.14,343.77,121.29Z"/><path fill="#d2243f" d="M222.16,222.7c1.53-2.83,3-5.7,4.6-8.5a35.54,35.54,0,0,1,9.66-11,3,3,0,0,1,2.13-1,57.4,57.4,0,0,1,1,9.54c0,.92-.54,1.38-1.14,1.86a48.75,48.75,0,0,0-11.78,14.62c-.78,1.4-1.4,2.89-2.1,4.33-.68-.09-.75-.68-.87-1.17C223,228.5,222.11,225.69,222.16,222.7Z"/><path fill="#fefefe" d="M269.54,297.8c-4.89,1.84-9.66,3.88-13.86,7.07-5.73,4.36-8.77,10.35-10.37,17.17-.44,1.88-.13,3.83-.17,5.75a27.3,27.3,0,0,1-5,1.91A19.65,19.65,0,0,1,242,316c5.41-10.69,14.2-17.17,25.77-20a5.77,5.77,0,0,1,2.61-.44A5.07,5.07,0,0,1,269.54,297.8Z"/><path fill="#e1ad27" d="M394.15 86.74c-4-.06-8 .69-12 .75-.88 0-1.95.42-2.37-.79-.27-.76.44-1.33 2.17-1.44 6.36-.42 12.67-1.56 19.11-.73a20.65 20.65 0 0117.75 17.23 16.67 16.67 0 01-.58 6.63c-.65 2.45-1.46 4.86-2.23 7.27a5.89 5.89 0 01-.7 1.45 1.11 1.11 0 01-1.44.38 1.06 1.06 0 01-.62-1.14 7.22 7.22 0 01.4-1.55c.62-2 1.28-4 1.9-5.94 3.58-11.34-5.58-20.18-13.13-21.55A56 56 0 00394.15 86.74zM314 63.28c4 .07 7.93 1 11.88 1.66 2.66.42 5.27 1.11 7.9 1.68a7 7 0 01.89.26 1.07 1.07 0 01.7 1.29.94.94 0 01-1 .76 8.48 8.48 0 01-1.83-.2 165.34 165.34 0 00-16.38-2.82 17.3 17.3 0 00-6.65.39c-3.71.89-5.7 3.5-5.8 7.34a10.15 10.15 0 00.79 4.28c.18.43.39.84.56 1.27.29.75.49 1.56-.4 2s-1.44-.14-1.82-.89a13.15 13.15 0 01-1.66-7.56c.54-4.87 3.43-8 8.25-9A20.85 20.85 0 01314 63.28z"/><path fill="#fefefe" d="M221.11,217.25l-4.59,9c0,.05-.13.06-.37.15-1.09-7.28-3-14.09-11-17.38,2.62-1.12,5-2,7.68-1.76a10.44,10.44,0,0,0,2.79,1.5C218.54,210,221.18,214.17,221.11,217.25Z"/><path fill="#d1243f" d="M222.25,197.93c3.6-.24,6.35,1.48,8.84,3.8.55.52.66,1,.06,1.53a34.68,34.68,0,0,0-4.19,4.62c-.47.66-.93.63-1.52.13a22.21,22.21,0,0,0-8.22-4C218.76,201.85,219.53,199.08,222.25,197.93Z"/><path fill="#fdfdfd" d="M201.57,266.75c1.94-.86,2.38-.59,3.08,1.07,3.16,7.53,6.53,15,11.71,21.39.34.42.65.86,1,1.29.13.38,0,.51-.37.35a29.38,29.38,0,0,1-12.55-15.1C203.27,272.81,202.48,269.76,201.57,266.75Z"/><path fill="#fefdfd" d="M222.16,222.7a3.36,3.36,0,0,1,.69,1.65c.57,2.73,1.13,5.46,1.7,8.18a39,39,0,0,0-2.56,7.73,15,15,0,0,1-4.32-6.44,1.57,1.57,0,0,1,.12-1.29A73.73,73.73,0,0,1,222.16,222.7Z"/><path fill="#fcfcfc" d="M228.94,414.31c-1.35,1.34-1.4,1.53-.42,3.05a62.3,62.3,0,0,0,7.53,9.46l1.73,1.8c.06.47-.07.73-.6.57-4.41-2.24-7.73-5.75-10.92-9.41a38.36,38.36,0,0,1-3.86-5.26,14.74,14.74,0,0,1,6.52-.66c.15.09.21.19.16.29S229,414.31,228.94,414.31Z"/><path fill="#d02540" d="M221.11,217.25a18,18,0,0,0-3.48-6.38,5,5,0,0,0-3-1.92c-1-.14-1.79-.5-1.8-1.69,4-.4,7.37,1.05,10.52,3.32.83.6,1,1.17.4,2.1C222.72,214.11,222.2,215.85,221.11,217.25Z"/><path fill="#f9fbfb" d="M338.83,161.9a16.6,16.6,0,0,1-10.2,7.34c-.63.15-1-.05-1.18-.7-.65-1.91-.58-2.06,1.26-2.85,2.11-.9,4.18-1.89,6.29-2.78A7.76,7.76,0,0,1,338.83,161.9Z"/><path fill="#fafbfb" d="M222.25,197.93a21.84,21.84,0,0,0-3.17,4.12,5.49,5.49,0,0,1-1.86,1.94,24,24,0,0,0-5.74,0C212.33,200.48,217.41,197.7,222.25,197.93Z"/><path fill="#fbfafa" d="M226.33,236.51c.66.17.91.74,1.28,1.21,1.07,1.37,2.16,2.72,3.24,4.07a5.87,5.87,0,0,1-4.41.36,1.44,1.44,0,0,1-1.26-2A36.46,36.46,0,0,1,226.33,236.51Z"/><path fill="#daa826" d="M413.91,127.19c-.24,1.08-.53,2.51-.9,3.92a1,1,0,0,1-1.4.82,1.07,1.07,0,0,1-.74-1.28c.25-1.43.53-2.86.89-4.27a1.13,1.13,0,0,1,1.35-1C413.84,125.58,414,126.17,413.91,127.19Z"/><path fill="#f0f2f2" d="M240.82,335.81a16.36,16.36,0,0,1,6.84,3.17h-5.81a.74.74,0,0,1-.87-.79C240.94,337.51,240.89,336.83,240.82,335.81Z"/><path fill="#d6a525" d="M314.5,91a1,1,0,0,1-1.6.93,4.87,4.87,0,0,1-2.39-2.64,1,1,0,0,1,1.19-1.41A8,8,0,0,1,314.5,91Z"/><path fill="#b7b786" d="M245.1,331.52a1.56,1.56,0,0,1-.79,2l-1.9-.76A8.53,8.53,0,0,1,245.1,331.52Z"/><path fill="#2a060b" d="M241.42,227.51a2.51,2.51,0,0,1,.9-1.75c.09,1.3.21,2.29-.39,3.22C241.8,228.48,242,227.86,241.42,227.51Z"/><path fill="#80a388" d="M235.35,414.87a1.74,1.74,0,0,1-2.31,0c0-.28.31-.3.48-.44l.51,0a1,1,0,0,0,.47.26Z"/><path fill="#d4d2d0" d="M237.18,429.19l.6-.57a1.32,1.32,0,0,1,.89.75.38.38,0,0,1,0,.62A2.28,2.28,0,0,1,237.18,429.19Z"/><path fill="#9fdada" d="M231.73,414.64a1,1,0,0,1-.95-.27c-.16-.09-.21-.19-.16-.29s.09-.15.14-.15a1.59,1.59,0,0,1,1.52.34C232.22,414.57,232,414.59,231.73,414.64Z"/><path fill="#daf3ef" d="M230.76,413.93c0,.15,0,.3,0,.44l-1.84-.06c0-.15,0-.3,0-.45A3.59,3.59,0,0,1,230.76,413.93Z"/><path fill="#c0e1da" d="M231.73,414.64l.55-.37,1.24.14-.48.44Z"/><path fill="#82aa97" d="M217.84,290.86a1.12,1.12,0,0,1,.82.91c-.09.2-.21.21-.36.05s-.44-.1-.47-.39C217.6,291.24,217.61,291.05,217.84,290.86Z"/><path fill="#8aa79a" d="M239.11,429.62a1.19,1.19,0,0,1,.94,1c-.36-.05-.78,0-1-.44a.33.33,0,0,1-.12-.35C239,429.67,239.06,429.62,239.11,429.62Z"/><path fill="#dfe3e1" d="M217.84,290.86c0,.19,0,.38,0,.57a1.11,1.11,0,0,1-.86-.58l.37-.35Z"/><path fill="#587f6a" d="M218.3,291.82a.59.59,0,0,1,.37-.05.78.78,0,0,1,.57.47A1,1,0,0,1,218.3,291.82Z"/><polygon fill="#f3dda4" points="223.22 297.73 223.11 297.68 223.2 297.61 223.22 297.73"/><path fill="#1c6a30" d="M234.5,414.65c-.24.06-.37-.07-.47-.26A.41.41,0,0,1,234.5,414.65Z"/><path fill="#dfedec" d="M239.11,429.62c0,.17,0,.35,0,.52l-.43-.15c0-.21,0-.41,0-.62Z"/><path fill="#020200" d="M416.26 240.41c.77 0 1.54 0 2.3 0a1 1 0 01.9.91 1 1 0 01-.8 1.23 6.52 6.52 0 01-1.82.2c-4.57-.08-8.34 1.77-11.68 4.73-4.3 3.83-6.9 8.79-9.28 13.91a12.09 12.09 0 01-.67 1.46 1 1 0 01-1.16.51 1.06 1.06 0 01-.76-1.26 5.61 5.61 0 01.41-1.32 51.35 51.35 0 017.14-12.34 24.53 24.53 0 015.65-5.06A17 17 0 01416.26 240.41zM439.43 404.83c-.12.63-.3 1.61-.49 2.59a136.32 136.32 0 01-3.28 14.12 14.75 14.75 0 01-5.78 8.08 9 9 0 01-1.6.91c-.74.34-1.54.47-2-.44s.19-1.44.9-1.81c3.53-1.83 5.35-4.89 6.41-8.59 1.33-4.66 2.36-9.37 3.36-14.11.11-.52.21-1.05.36-1.56s.59-1.15 1.32-1S439.5 403.81 439.43 404.83z"/><path fill="#030200" d="M428.1,248.06a2.82,2.82,0,0,1,1.23.59c5,3.4,9,7.59,10.65,13.68.45,1.7,1.11,3.35,1.65,5a7.75,7.75,0,0,1,.39,1.56,1.21,1.21,0,0,1-1,1.37,1.08,1.08,0,0,1-1.3-.69,11.1,11.1,0,0,1-.46-1.3c-.56-1.67-1.22-3.32-1.65-5-1.28-5.11-4.34-8.9-8.52-11.92a6.84,6.84,0,0,1-1.9-1.65.93.93,0,0,1-.06-1.07A1.17,1.17,0,0,1,428.1,248.06Z"/><path fill="#080601" d="M415.91,434.26a11.8,11.8,0,0,1-1.48-.13,1.1,1.1,0,0,1-1-1.11,1,1,0,0,1,1-1.06,25.06,25.06,0,0,0,6.52-1.35,1,1,0,0,1,1.18.48,1.09,1.09,0,0,1-.21,1.46,2.4,2.4,0,0,1-1,.6C419.2,433.57,417.4,433.94,415.91,434.26Z"/><path fill="#fff" d="M55.94,441.13c.42-2.73.87-5.46,1.25-8.2.13-1,.44-1.46,1.55-1.53,8.45-.56,16.69-2.63,25.05-3.82,6.32-.91,12.66-1.58,19-2.09,11.35-.91,22.73-1.14,34.1-1.49,2.46-.07,4.89-.57,7.58-.23-.52,3.28-1.71,6.35-2.53,9.51a199.17,199.17,0,0,1-27.22,6c-8.08,1.28-16.23,1.6-24.37,2-6.38.31-12.75.88-19.13,1.29C66.07,442.93,60.93,442.79,55.94,441.13Z"/><path fill="#020200" d="M67.62,445.87c-.06.27-.18.8-.29,1.32-.54,2.55-1.14,5.1-1.62,7.66a11.58,11.58,0,0,1-5,7.72,90.54,90.54,0,0,1-12.06,6.73c-.86.41-1.85,1.11-2.65-.09-.52-.77,0-1.35,1.71-2.2a108.8,108.8,0,0,0,10.89-6,10.24,10.24,0,0,0,4.88-7.19c.42-2.49,1.12-4.93,1.7-7.4.11-.45.24-.89.37-1.33.21-.65.62-1.15,1.33-1S67.71,445,67.62,445.87Z"/><path fill="#060501" d="M103.47,459.57c0-4.62,0-8.46.36-12.29.08-.89-.14-2.36,1.34-2.2,1.25.14.89,1.43.86,2.3a225.5,225.5,0,0,0,.44,25.34c.07.95.46,2.12-.92,2.5-.85.23-1.33-.61-1.51-2.38C103.55,468.17,103.57,463.48,103.47,459.57Z"/><path fill="#0b0802" d="M67.55,463.81a1.77,1.77,0,0,1,0,.23c-.16,1.15-3.9,4.27-5.12,4.27a1.09,1.09,0,0,1-1-.52.94.94,0,0,1,.14-1.26c1.46-1.22,2.92-2.44,4.46-3.55A1,1,0,0,1,67.55,463.81Z"/><path fill="#0c0902" d="M58.28,470.14a1.59,1.59,0,0,1-.75,1.1,14,14,0,0,1-4.1,2,1.12,1.12,0,1,1-.83-2.08c1.38-.64,2.78-1.24,4.12-2A1,1,0,0,1,58.28,470.14Z"/><path fill="#100c03" d="M71.78,456.33a9.07,9.07,0,0,1-1.16,3.52,1.07,1.07,0,0,1-1.35.56,1.12,1.12,0,0,1-.65-1.51c.36-1.08.71-2.16,1.08-3.23a1.06,1.06,0,0,1,1.2-.84C71.66,455,71.81,455.53,71.78,456.33Z"/><path fill="#100b02" d="M70.37,450c.16-.78.29-1.61.51-2.41a1,1,0,0,1,1-.76,1.09,1.09,0,0,1,1.07,1,8.82,8.82,0,0,1-.36,2.69,1.09,1.09,0,0,1-1.24,1C70.52,451.4,70.33,450.74,70.37,450Z"/><path fill="#120d03" d="M113.34,459.2a1.36,1.36,0,0,1-1.38,1.42,1.9,1.9,0,0,1-1.76-1.81,1.49,1.49,0,0,1,1.41-1.52A1.84,1.84,0,0,1,113.34,459.2Z"/><path fill="#100a02" d="M112.94,451.77a1.39,1.39,0,0,1-1.37,1.47,1.71,1.71,0,0,1-1.84-1.65,1.68,1.68,0,0,1,1.65-1.6A1.78,1.78,0,0,1,112.94,451.77Z"/><path fill="#372d0a" d="M70.57,445.05a1.52,1.52,0,0,1-1.92,0C69.3,444.15,69.88,444.2,70.57,445.05Z"/><path fill="#050404" d="M420.89,26.4a.53.53,0,0,0,.54-.38,1,1,0,0,0,.84-.56,1,1,0,0,0,.89-.5.52.52,0,0,0,.58-.32,1,1,0,0,0,.88-.51,1,1,0,0,0,.88-.51,5,5,0,0,0,2.86-2.72.49.49,0,0,0,.36-.55c.62-.56,1.22-1.17,2.19-.82a3.08,3.08,0,0,1,.44,1.62,3.6,3.6,0,0,0-.86,1.44c-.91.93-1.83,1.86-2.75,2.78a2.69,2.69,0,0,0-1.45.85,1,1,0,0,0-.89.51,1,1,0,0,0-.9.49.93.93,0,0,0-.9.49,3.12,3.12,0,0,0-1.88,1.36.49.49,0,0,0-.46.46c-.86.51-1.27,1.88-2.65,1.36l-.43-1.23a1.26,1.26,0,0,0,.43-.93.5.5,0,0,0,.4-.52Z"/><path fill="#fff" d="M117.9,280.26c-3.2-5.3-6.71-10.4-9.38-16a49.47,49.47,0,0,1-4-12.87,6.69,6.69,0,0,0-.36-1.56c-.52-1.16-1.13-1.2-2.45-.27a3.94,3.94,0,0,1-.32.89c-.26.49-.49,1-1.21.63a7.67,7.67,0,0,1-1.33-3.85c-.13-.69-.34-1.47-1.28-1.24-.78.19-.7.92-.58,1.53a24.82,24.82,0,0,0,1.65,5.25,1.58,1.58,0,0,0,2.07.94,1,1,0,0,1,1,.66c1.82,8.83,6.07,16.54,10.94,24A49,49,0,0,1,120,294.69a28.47,28.47,0,0,1,.77,6.17c0,10.8-.48,21.58-1.51,32.32-.6,6.27-1.72,12.5-2.6,18.76-1.18,8.46-2.17,16.95-3.8,25.34A58.9,58.9,0,0,1,108,392.4c-3.34,6.76-8,7.94-14.24,6.88a46.42,46.42,0,0,1-12.17-4.19,142,142,0,0,1-24.35-15.42c-17.42-13.22-33.11-28.34-48.06-44.25a2.47,2.47,0,0,1-.28-.49,17.64,17.64,0,0,1,5.83-1.85c10.77-2.25,21.5-4.73,32.49-5.75a56.94,56.94,0,0,0,6.84-1.1,2.1,2.1,0,0,1,2.51.93c2.53,3.59,5.15,7.11,7.71,10.68,4.62,6.45,9.63,12.61,14.64,18.75a2.67,2.67,0,0,1,.51,2.32,15.86,15.86,0,0,0,2.8,11.39,4.77,4.77,0,0,0,1.6,1.62,1.51,1.51,0,0,0,1.91-.25,1.39,1.39,0,0,0,.12-1.9c-.48-.69-1.1-1.3-1.52-2-2.25-3.79-2.12-7.79-.82-11.82a70.39,70.39,0,0,1,3.76-8.42c6.1-12.78,12.12-25.59,17.86-38.53a25.86,25.86,0,0,0,1.61-18,13.6,13.6,0,0,0-4.71-7,29,29,0,0,0-3.55-2.58c-5.93-3.47-10.75-8.22-15.3-13.27a33.39,33.39,0,0,1-5.53-8.2c-.11-.5.11-.66.58-.54,1.83,1.65,3.62,3.34,5.49,4.94a24.45,24.45,0,0,0,3,2.15c1,.63,2.16,1,3.21.11a3.14,3.14,0,0,0,1-3.35,26,26,0,0,0-1.77-5,75.18,75.18,0,0,1-5.63-17.53c-.54-2.63-.86-5.33.37-8,1.19.38,1.13,1.31,1.16,2.21a56.3,56.3,0,0,0,5.46,22.26,10.3,10.3,0,0,0,.72,1.45,1.17,1.17,0,0,0,1.59.5c.7-.34,1.11-.86.82-1.66-.2-.58-.51-1.12-.76-1.68a51,51,0,0,1-4.64-19.61,3.44,3.44,0,0,1,.1-.6c.9,0,1.93.35,2.74-.41a4.07,4.07,0,0,0,.92-2.55,13.34,13.34,0,0,1,3.24-6.78c.57-.63,1.07-1.32,1.64-1.94a17,17,0,0,0,4.42-9.72c.14-1.07.35-2.13.59-3.18a6.14,6.14,0,0,1,4-4.67c1.08-.41,2.18-.77,3.25-1.2,5-2,9.78-4.48,13.69-8.58a12.67,12.67,0,0,0,8,6.06,2.87,2.87,0,0,1,2.27,3c0,.46.09.92.13,1.38.09,1.15.69,2.47.13,3.39s-2,.27-3,.51a10.57,10.57,0,0,0-4.36,2c-.51.42-.85,1-.37,1.6a1.08,1.08,0,0,0,1.63.19,8.59,8.59,0,0,1,4.74-1.63c1.55,0,1.69.1,1.7,1.71,0,5.17-.28,10.32-.67,15.47a166.74,166.74,0,0,1-2.61,20.15c-.35,1.73-.84,3.43-1.22,5.15a11.31,11.31,0,0,1-4.49,6.51,8,8,0,0,1-4.31,1.47c-1.54.15-3.08.18-4.61.36-1.36.16-2.05.83-2,1.79s.83,1.57,2.15,1.59,2.89,0,4.51,0a62.24,62.24,0,0,0-1.63,8.76c-.39,1-.09,2.1-.19,3.15C118.58,279.68,118.81,280.37,117.9,280.26Z"/><path fill="#fff" d="M146.7,415.39c-.23,1.6-.35,3.49-1.39,4.54s-2.79.31-4.24.39c-11.85.59-23.71.66-35.55,1.49a289.31,289.31,0,0,0-36.15,4.74c-5.45,1.07-11,1.38-16.49,2.06-1.26.16-2.74,1.14-3.74.24-.8-.73-.94-2.21-1.33-3.38q-11.3-33.2-22.56-66.4c-.13-.36-.2-.73-.3-1.11-.21-.55-.33-1,.56-1,6.94,6.44,13.91,12.85,21.26,18.84a2.15,2.15,0,0,1,.8,1.93A46.57,46.57,0,0,1,46,389.6c-1.22,5.14.34,9.42,4.44,12.75,1.13.93,2.33,1.77,3.48,2.68a21,21,0,0,1,5.24,5.79c.35.59.77,1.14,1.17,1.71,3.64,5.2,8.69,6.73,14.77,5.86,7.08-1,11.54-5,13.74-11.7.36-1.09.81-2.16,1.16-3.26s.92-1.24,1.94-1a20.24,20.24,0,0,0,8.24.43,12.11,12.11,0,0,0,7.14-3.91c3.79-4.24,6-9.28,7.4-14.69,2-7.46,3-15.09,4.06-22.71,1.34-9.61,2.73-19.21,3.93-28.84.49-3.88.57-7.83.83-11.74.18-.29.28-.74.79-.45,3.73,15.09,7.87,30.05,13.45,44.59a116.31,116.31,0,0,0,6.66,14.7c2.24,4.05,4.65,8,8.38,10.91a1.24,1.24,0,0,1,.42,1.58c-1.94,6.73-3.83,13.46-5.73,20.19a.94.94,0,0,1-.9.26c-1.7-.75-2,.58-2.33,1.65-.27.82-1.62,1.82-.78,2.34,1.09.7,1.34-1,2-1.62a1.43,1.43,0,0,1,.78-.44C146.7,414.79,146.89,415,146.7,415.39Z"/><path fill="#fff" d="M120.35 282c1.45-.32 1.59-1.31 1.58-2.62a32.35 32.35 0 011.86-11.1 5.58 5.58 0 012.31-3 14.62 14.62 0 006.66-9.6 4.8 4.8 0 012.13-3.36 10.54 10.54 0 003.84-5.63c.84-2.39 1.5-4.85 2.27-7.27a15.74 15.74 0 011-2.56c.63-1.16 1.19-1.21 2.1-.18a8.4 8.4 0 012.06 5.27 29.59 29.59 0 01-1.19 9.12c-1.37 5.26-3.88 10-6.34 14.82-2.59 5-4.6 10.25-4.77 16a36.7 36.7 0 003.18 15.26c2.63 6.32 5.31 12.62 8.49 18.69 1.18 2.25 2.55 4.39 3.77 6.62 3.85 7 6.87 14.45 10.46 21.6a20.56 20.56 0 012.14 10.07 13.36 13.36 0 00.1 2.53 1.53 1.53 0 001.58 1.41 1.5 1.5 0 001.64-1.31 9.64 9.64 0 00.15-1.61 26.25 26.25 0 00-2.5-12.56c-4-7.82-7.17-16-11.58-23.62a4.08 4.08 0 01-.27-.72c2.4-.76 4.88-.64 7.3-.86 3.53-.32 7.08-.39 10.62-.51 1.65-.06 1.7 0 1.69 1.6-.06 5.7-.07 11.4-.25 17.1-.24 7.93-.67 15.85-1.6 23.74-.83 7-1.85 14.05-4.12 20.8a24.28 24.28 0 01-3 6.46c-2.18 3.1-4.47 3.38-7.37.93a24.27 24.27 0 01-4.79-5.89c-4.17-6.71-7.13-14-9.83-21.35-6-16.44-10.37-33.34-14.35-50.36a44.36 44.36 0 01-1.23-9.81c0-5.82-2-11.17-4.41-16.37-.16-.35-.31-.7-.46-1.05C119.19 281.76 119.72 281.81 120.35 282zM5.64 332.34c-.12-1.1-.3-2.1-.32-3.09-.14-7.24-.78-14.47-.23-21.71a29.23 29.23 0 012.39-10.29 10.6 10.6 0 014.63-5 51.07 51.07 0 0112.1-5c4.19-1 8.26-2.46 12.33-3.86a1.52 1.52 0 011.27-.17c-.19.67-.38 1.38-.59 2.08a16.05 16.05 0 002.33 14.06c2.76 4.17 6.29 7.57 9.85 11A44.82 44.82 0 0153.81 315a11.07 11.07 0 012.37 6.39c.06 1-.21 1.37-1.2 1.49-4 .5-8.07 1.24-12.14 1.58A170.53 170.53 0 0022.37 328c-3.24.67-6.47 1.4-9.71 2.08A41.43 41.43 0 005.64 332.34z"/><path fill="#fff" d="M138.92,274.2c5.12,2.06,10.33,3.14,15.33,4.92a25.1,25.1,0,0,1,16.2,16.46,68.67,68.67,0,0,1,3.43,16.21c.15,1.66.1,1.71-1.51,1.69a152.92,152.92,0,0,0-21,1.36c-2.88.35-2.25.52-3.46-1.86-2.82-5.56-5.28-11.28-7.66-17a33.48,33.48,0,0,1-3-14.58A23,23,0,0,1,138.92,274.2Z"/><path fill="#e2ad27" d="M51.77 261.11a47.9 47.9 0 01-4.3 18.21 53.54 53.54 0 00-2.17 5.6 9.94 9.94 0 001.07 8.21 55.68 55.68 0 007 9.14c1.87 2.05 3.71 4.13 5.54 6.21a20.35 20.35 0 013.45 5.72 5.57 5.57 0 01.41 1.54 1 1 0 01-.76 1 1 1 0 01-1.08-.22 2.11 2.11 0 01-.53-.73c-1.89-5-5.81-8.47-9.24-12.3a58.19 58.19 0 01-7-9.19A12.56 12.56 0 0143 284.1a56.71 56.71 0 012.25-5.81 51.21 51.21 0 004-13.94 19.55 19.55 0 00-.1-6.43 7.26 7.26 0 01-.15-1.14 1 1 0 01.64-1.1 1 1 0 011.33.58 5.56 5.56 0 01.42 1.31A16.88 16.88 0 0151.77 261.11zM64.33 200.37a16.18 16.18 0 01.56-1.66 21.17 21.17 0 0112.89-12.1c1.16-.4 2.34-.76 3.5-1.17A17.82 17.82 0 0090 179.22a31.61 31.61 0 012.58-3c4.18-4.32 9.37-5.3 15.08-4.48a7.14 7.14 0 013.72 1.72c.51.45.8 1 .37 1.62a1.06 1.06 0 01-1.63.17c-2.6-1.94-5.56-1.57-8.45-1.21a12.52 12.52 0 00-7.4 4 13.16 13.16 0 00-1.53 1.73c-3.28 4.72-7.88 7.45-13.33 8.93a17.23 17.23 0 00-6.68 3.53 18.26 18.26 0 00-5.79 8.19c-.09.29-.19.58-.29.87-.26.7-.65 1.32-1.5 1.09S64.22 201.43 64.33 200.37z"/><path fill="#e1ad27" d="M52.61,393c0-.77,0-1.24,0-1.7s.3-1,1-1.07a1,1,0,0,1,1.07,1c.12.91.22,1.83.34,2.75a11.74,11.74,0,0,0,5.07,8.68,19.42,19.42,0,0,1,5.8,6.16c2.31,3.79,5.83,4.36,9.45,1.81.18-.13.35-.29.54-.43.66-.5,1.41-.85,2-.06s0,1.48-.54,2c-3.95,3.49-8.77,3.84-12.4-.58a72.84,72.84,0,0,0-8.22-8.62C53.74,400.21,52.79,396.52,52.61,393Z"/><path fill="#fcfcfc" d="M102.72,302.86a32.85,32.85,0,0,0-3-8.43,19.46,19.46,0,0,1-2-8.93,9.54,9.54,0,0,1,5.4,5.52c1.29,3.34,1.2,6.78.74,10.24-.07.54-.2,1.06-.3,1.59A.5.5,0,0,1,102.72,302.86Z"/><path fill="#dca926" d="M75.25,337.09a1.05,1.05,0,0,1-1.44,1.05,2.94,2.94,0,0,1-1.4-1.13,66.33,66.33,0,0,1-4.11-6.36c-.38-.62-.55-1.33.23-1.79a1.11,1.11,0,0,1,1.57.49c1.63,2.4,3.06,4.94,4.92,7.19A1.66,1.66,0,0,1,75.25,337.09Z"/><path fill="#dba826" d="M63,208.45A14.29,14.29,0,0,1,59.87,216c-.5.58-1.15,1.19-2,.59s-.42-1.34.09-2a12.87,12.87,0,0,0,2.64-5.79,5.42,5.42,0,0,1,.26-.87,1.08,1.08,0,0,1,1.2-.85C62.89,207.2,63,207.8,63,208.45Z"/><path fill="#cecdcd" d="M120.35,282c-.4.18-.91.18-1.12.68a5.65,5.65,0,0,1-1.33-2.42c.72-.47.39-1.21.46-1.85.09-.79-.19-1.66.46-2.35,0,1.13.06,2.27,0,3.39A2.47,2.47,0,0,0,120.35,282Z"/><path fill="#dbd6d6" d="M100.46,251.08l.78-.92c.62.74,0,1.71.46,2.48l0,1.7-.82-.46C100.13,253,99.72,252.15,100.46,251.08Z"/><path fill="#969e9e" d="M124.35,320.51l-.79.45a8.27,8.27,0,0,1,0-2.51C124.16,319.21,124.5,319.76,124.35,320.51Z"/><path fill="#8f8989" d="M102.72,302.86h.84c.19.75-.16,1.32-.7,2.06A3.58,3.58,0,0,1,102.72,302.86Z"/><path fill="#b5c0c0" d="M25.51,357c-.5.16-.41.64-.56,1a3.48,3.48,0,0,1-.75-2.1A1.69,1.69,0,0,1,25.51,357Z"/><path fill="#c4bdba" d="M135,245c.17.32.13.74.5,1a1.6,1.6,0,0,1-.81,1.37A2.9,2.9,0,0,1,135,245Z"/><path fill="#080808" d="M101.7,252.64c-.56-.75-.2-1.67-.46-2.48l.45-.63C101.69,250.57,101.7,251.61,101.7,252.64Z"/><path fill="#b3c2c2" d="M78.23,259.39l-.58.54c-.4-.17-.42-.57-.53-.92a.45.45,0,0,1,.13-.55A1.34,1.34,0,0,1,78.23,259.39Z"/><path fill="#535c5c" d="M77.25,258.46l-.13.55a.46.46,0,0,1-.18-.74C77.05,258.15,77.22,258.27,77.25,258.46Z"/><path fill="#171919" d="M174.51,317s-.1.09-.15.09-.21-.1-.11-.21a.21.21,0,0,1,.17,0S174.48,317,174.51,317Z"/><path fill="#e3ae28" d="M133.41 37a7.38 7.38 0 00-7.73 7.44 7.55 7.55 0 1015.09.15A7.44 7.44 0 00133.41 37zm-.3 11.73A4.08 4.08 0 01129 44.35a4.33 4.33 0 014.21-4.07 4.23 4.23 0 014.18 4.31A4 4 0 01133.11 48.69zM319.53 27.23a8.89 8.89 0 006-5.57h0a20.66 20.66 0 00.08-2.08 7.07 7.07 0 00-4.52-6.42 6.8 6.8 0 00-7.54 1.18 7 7 0 00-2.33 7.5 7.52 7.52 0 008.34 5.39zm-1.19-3.57A3.67 3.67 0 01314.47 20a3.71 3.71 0 013.7-3.86A3.66 3.66 0 01322 19.82 3.62 3.62 0 01318.34 23.66z"/><path fill="#fff" d="M323.43,129.22a2.12,2.12,0,0,1,1.62-1.11c6-1.28,12-2.59,18-3.88,1.7-.37,2-.19,1.92,1.45a65.15,65.15,0,0,1-2,12.72c-.37,1.47-1.54,1.82-2.75,2.09-3.74.83-7.5,1.62-11.25,2.4-1.2.25-2.42.43-3.63.63a1.93,1.93,0,0,1-2.29-1.12c-.83-1.88-1.81-3.73-1.86-5.86A15.92,15.92,0,0,1,323.43,129.22Z"/><path fill="#090805" d="M323.43,129.22a23.86,23.86,0,0,1-2.22,7.32,15.34,15.34,0,0,1-1.71-5.68c-.14-.37-.3-.75.23-1C321.24,128.77,322.26,128.58,323.43,129.22Z"/><path fill="#eacd83" d="M319.73,129.9l-.23,1a.81.81,0,0,1-.31-1C319.33,129.56,319.56,129.78,319.73,129.9Z"/><path fill="#fbfbfa" d="M181.46,92.7a10,10,0,0,1-.72,2.74c-2.55-1.19-5.33-1.2-8.29-2,2.62-2.78,3.24-6,3.26-9.75l3.22,2c.47,1.6-.62,2.75-1.17,4-.9,2.09-.53,2.67,1.67,2.55C180.15,92.19,181,91.78,181.46,92.7Z"/><path fill="#e1ae28" d="M181.46,92.7c-.78-.33-1.5.1-2.25.18-.93.11-1.86.2-2.46-.74a2,2,0,0,1,.28-2.35,19.22,19.22,0,0,0,1.9-4.15l5,1.43C183.09,89,182.27,90.84,181.46,92.7Z"/><path fill="#f7f7f6" d="M267.62,109.6c.11.8.26,1.55-1,1.33a10.36,10.36,0,0,0-4.73.6c-.88,0-.8-.48-.62-1.06a8.5,8.5,0,0,0-.51-4.43h3.65c.64.5,1.05,1.33,1.91,1.51C267.45,107.8,267.52,108.7,267.62,109.6Z"/><path fill="#d4a82b" d="M267.62,109.6c-.36-.6-.14-1.6-1.46-1.49s-1.83-.83-1.8-2.07l3.26-.64Z"/><path fill="#988585" d="M261.23,110.47c.16.38.06.91.62,1.06-.26.3-.6.56-.89.15S260.91,110.83,261.23,110.47Z"/><path fill="#fdfcfd" d="M191,186.39a13.09,13.09,0,0,1-.71,1.67,3.39,3.39,0,0,1-6.22-1.27,3.24,3.24,0,0,1,1.66-3.47,12.51,12.51,0,0,1,1.71-.64,7,7,0,0,0,3.44,3.57l.13.15Z"/><path fill="#f5f6f6" d="M190.14,181.13a2,2,0,0,1,2.22-2.06,2.16,2.16,0,0,1,2.23,1.61,2.27,2.27,0,0,1-1.38,3C191.53,183.61,191,182.16,190.14,181.13Z"/><path fill="#cf2f47" d="M190.14,181.13c1.45.32,1.8,2,3.07,2.51C191,184,190.34,183.4,190.14,181.13Z"/><polygon fill="#d22641" points="190.98 186.4 190.79 186.4 190.85 186.25 190.99 186.23 190.98 186.4"/><path fill="#fcf7f7" d="M279,237.18c.49-2,1.22-2.71,2.73-2.76a2.91,2.91,0,0,1,2.85,1.88c.55,1.37.14,2.33-1.51,3.58A5.58,5.58,0,0,0,279,237.18Z"/><path fill="#efe6e7" d="M280.71,242.44c-.79,1.54-1.81,2-3,1.23s-1.15-1.86-.13-3.2A5.24,5.24,0,0,1,280.71,242.44Z"/><path fill="#c42a43" d="M280.71,242.44a4.86,4.86,0,0,1-3.09-2C279.89,239.48,280.78,240.05,280.71,242.44Z"/><path fill="#0d0e0e" d="M255,358.39c0,1.08-1.92,3.63-2.91,3.93a1.11,1.11,0,0,1-1.22-.41.86.86,0,0,1-.07-1.07c.8-1.12,1.59-2.25,2.46-3.31a1,1,0,0,1,1.27-.13A1.1,1.1,0,0,1,255,358.39Z"/><path fill="#0e0b0b" d="M376,139.7a4.28,4.28,0,0,1-3.91-2,1.05,1.05,0,0,1,.09-1.47,1,1,0,0,1,1.46-.05,3.31,3.31,0,0,0,2.85,1.2c.85-.11,1.65.2,1.64,1.15s-.82,1.19-1.67,1.18Z"/><path fill="#070606" d="M378.54,133.42c0,.15-.08.53-.17.89a1,1,0,0,1-1,.78.86.86,0,0,1-1-.74,12.29,12.29,0,0,0-.89-3.53.94.94,0,0,1,.56-1.32,1.13,1.13,0,0,1,1.4.47A6.31,6.31,0,0,1,378.54,133.42Z"/><path fill="#070505" d="M330.44,117.43A7,7,0,0,1,336,120c.47.53.88,1.18.27,1.84s-1.35.47-2-.15a8.92,8.92,0,0,0-1-.93c-1.85-1.38-3.57-1.28-6.08.44-.62.43-1.22.83-1.81.18s-.22-1.46.38-2A7.12,7.12,0,0,1,330.44,117.43Z"/><path fill="#020101" d="M118.82,256.24a4,4,0,0,1-2.8-1.34,6.89,6.89,0,0,1-1.53-2.56,63.36,63.36,0,0,0-3.06-7.21,5.44,5.44,0,0,1-.56-1.5c-.2-1.06.62-1.78,1.49-1.21,3.87,2.53,8,2.1,12.28,1.52,1.78-.24,2.55.69,1.79,2.28-1.28,2.63-2.63,5.22-4.07,7.76A3.78,3.78,0,0,1,118.82,256.24Z"/><path fill="#030303" d="M90.55,241.87c0-.68,0-1.06.07-1.44A1.57,1.57,0,0,1,92.35,239a1.52,1.52,0,0,1,1.52,1.44c.15,1.14.19,2.29.32,3.43a35.07,35.07,0,0,0,2.74,10.4c.16.35.27.72.4,1.08.26.72-.1,1.16-.69,1.49a1.21,1.21,0,0,1-1.63-.36,2.49,2.49,0,0,1-.35-.59A41.37,41.37,0,0,1,90.55,241.87Z"/><path fill="#050505" d="M119.07,222.73a12.12,12.12,0,0,1-.2,1.59,2.79,2.79,0,0,1-2.11,2.2,2.67,2.67,0,0,1-2.68-1,5.24,5.24,0,0,1-.2-6.57,2.13,2.13,0,0,1,3.53-.17A5.07,5.07,0,0,1,119.07,222.73Z"/><path fill="#060505" d="M121.42,213.61a1.17,1.17,0,0,1-1.39,1.24,2.65,2.65,0,0,1-.8-.45c-2.77-2.11-5.46-1.43-8.11.23-.58.37-1.09.86-1.69,1.19a1,1,0,0,1-1.41-.35,1,1,0,0,1,.11-1.26c2.81-3.12,8.52-5,12.46-1.81A1.9,1.9,0,0,1,121.42,213.61Z"/><path fill="#070606" d="M123,234.24c1.21.46,1.32-.31,1.41-1.15.13-1.3.26-2.6.44-3.89.12-.84.5-1.55,1.5-1.3s.89,1,.72,1.69a38.22,38.22,0,0,0-.4,4.13c-.29,2.39-1,3-3.39,3a3.22,3.22,0,0,0-1.51.42,2.64,2.64,0,0,1-2,.22c-.64-.2-1.19-.49-1.18-1.21a1.07,1.07,0,0,1,1.2-1.13c1,.11,1.65-.82,2.58-.87A4.06,4.06,0,0,1,123,234.24Z"/><path fill="#070707" d="M129.7,217.66c1.65,0,2.81,1.56,2.89,3.78.07,1.88-1.24,3.59-2.82,3.61a2.58,2.58,0,0,1-2-.93,4.47,4.47,0,0,1,.1-5.72A2.31,2.31,0,0,1,129.7,217.66Z"/><path fill="#080808" d="M100.46,251.08a9.47,9.47,0,0,1,.44,2.8c-1.69,1.18-1.94,1.15-2.66-.51a26.69,26.69,0,0,1-2-6.52c-.15-1,.16-1.71,1.17-1.9a1.52,1.52,0,0,1,1.85,1.28,6,6,0,0,1,.21,1.12A12.78,12.78,0,0,0,100.46,251.08Z"/><path fill="#090909" d="M98.46,396.67a9.08,9.08,0,0,1-3.75-.91c-.63-.35-1.18-.84-.87-1.65s1.07-.76,1.72-.46a6.35,6.35,0,0,0,4.89.32c.7-.24,1.45-.21,1.7.63s-.34,1.3-1,1.56A6.75,6.75,0,0,1,98.46,396.67Z"/><path fill="#060606" d="M126.47,418.42c-2.91.11-6.9.27-10.89.41a9.42,9.42,0,0,1-1.84-.08,1,1,0,0,1-.89-1.14,1,1,0,0,1,.88-.93,5.59,5.59,0,0,1,.91-.08c6.83-.37,13.66-.76,20.51-.68a4.48,4.48,0,0,1,1.82.19,1.15,1.15,0,0,1,.76,1.05,1.19,1.19,0,0,1-.75,1.07,3.88,3.88,0,0,1-1.82.19Z"/><path fill="#100f0f" d="M146.67,412.48c-.17.77-.34,1.55-.5,2.32-.55.91-.8,2-1.73,2.67-.59.42-1.23.76-1.84.09a1.09,1.09,0,0,1,.11-1.64,7.71,7.71,0,0,0,1.63-3.24C144.9,411.17,145.46,411.14,146.67,412.48Z"/><path fill="#0a0909" d="M156.22,386.51a5.2,5.2,0,0,1-.64-.07c-.56-.14-1-.46-1-1.07a1,1,0,0,1,1-1.06,6.1,6.1,0,0,0,4.83-2.65,1.12,1.12,0,0,1,1.6-.42,1.22,1.22,0,0,1,.21,1.83A7.62,7.62,0,0,1,156.22,386.51Z"/><path fill="#131212" d="M164.28,376.51a5.82,5.82,0,0,1-.7,2.4,1,1,0,0,1-1.14.52,1,1,0,0,1-.86-1.16,12.73,12.73,0,0,1,.61-2.17,1,1,0,0,1,1.25-.72A1,1,0,0,1,164.28,376.51Z"/><path fill="#040404" d="M8.87,305.68c.13-1.19.23-2.5.43-3.79.78-5,4.28-7.57,8.62-9.32.67-.27,1.25-.18,1.54.5s-.08,1.19-.68,1.52c-.8.44-1.61.89-2.43,1.3a8.48,8.48,0,0,0-4.81,7.58c-.08,1.23-.18,2.46-.28,3.69,0,.74-.25,1.42-1.16,1.41s-1.14-.67-1.22-1.4A14.55,14.55,0,0,1,8.87,305.68Z"/><path fill="#121111" d="M11,318.2c-.05.92-.05,1.85-.17,2.76a1,1,0,0,1-1.14.88,1,1,0,0,1-.91-.89,24.94,24.94,0,0,1,.06-5.53,1.05,1.05,0,0,1,2.08,0,25.39,25.39,0,0,1,0,2.76Z"/><path fill="#221c1c" d="M134.34,44.44a1.08,1.08,0,0,1-1.37.93,1,1,0,0,1-.84-1.17,1,1,0,0,1,1.24-1A1.08,1.08,0,0,1,134.34,44.44Z"/><path fill="#2b2525" d="M319.25,19.77a1.08,1.08,0,0,1-1.19,1.09A1.06,1.06,0,0,1,317,19.69a1.1,1.1,0,0,1,1.19-1.12C318.85,18.59,319.2,19.07,319.25,19.77Z"/><path fill="#030202" d="M332.79,133.94a3.33,3.33,0,0,1-3.28,3.21c-1.55-.08-2.7-1.67-2.67-3.72,0-1.83,1.15-3.1,2.72-3A3.52,3.52,0,0,1,332.79,133.94Z"/><path fill="#f4f5f5" d="M116.4,250.69c-.67-1.65-1.21-3-1.82-4.52,2.91.29,5.66.9,8.47.4-.44,2.21-.44,2.25-2.4,2.24A5.85,5.85,0,0,0,116.4,250.69Z"/><path fill="#dadbdb" d="M116.4,224.11c-1.51-1.17-1.58-1.5-.71-3.48A2.87,2.87,0,0,1,116.4,224.11Z"/><path fill="#e7eeee" d="M129.51,220.1c.28.24.38.27.4.33.19.64.53,1.29,0,1.91a.39.39,0,0,1-.58-.1A1.72,1.72,0,0,1,129.51,220.1Z"/></g></g></svg>