<svg xmlns="http://www.w3.org/2000/svg" viewBox="0 0 463 506.05"><g data-name="Layer 2"><g data-name="Layer 1"><path fill="#030202" d="M327.39,36.89c-.89-.51-1.54,0-1.91.78a11,11,0,0,1-3.8,4.13,9.64,9.64,0,0,0-1.8,1.69,6.83,6.83,0,0,0-1.35,2.85c-.27,1.16-.65,2.53-.65,2.53a12.48,12.48,0,0,1-2.66,5.45c-.93,1.19-1.94,2.41-1.94,4,0,2,.24,4.08.4,6.12a1.13,1.13,0,1,0,2.26-.06,14.79,14.79,0,0,0-.15-3.53,5.51,5.51,0,0,1,1.5-5.2,14,14,0,0,0,3.29-6.73,8.26,8.26,0,0,1,3.75-6,9.13,9.13,0,0,0,3.41-4.15C328,38.12,328.17,37.34,327.39,36.89Z"/><path fill="#7f5fa5" d="M53.53,139c-.38,1.69-.38,1.71-2,1.41-1-.18-2,0-3-.62.45-1.54.89-3,1.32-4.5a2.29,2.29,0,0,1,2,.78h0a5.55,5.55,0,0,0,.86-2.82,11.63,11.63,0,0,1-3.32-1.17c-1.35-.55-2.12-.15-2,1.22a11.87,11.87,0,0,1-1.42,6.13c-.89,1.87-.52,2.53,1.53,2.88,2.23.38,4.51.44,6.38,2.13.88.79,2,0,1.93-1.37a12.57,12.57,0,0,1,.17-2.81c.14-.86.75-.88,1.39-1C56.11,138.48,54.8,139,53.53,139Z"/><path fill="#020101" d="M62.51,131.18a10.29,10.29,0,0,1-7.44-2.26c-1.27-.9-2-.49-2.1,1.08,0,1.09.29,2.2-.3,3.23-.88.76-1,1.92-1.48,2.88-.41,2.35-.12,2.75,2.42,3.37,1.26.34,2.44-.72,3.7-.19a11.21,11.21,0,0,1,2.53,1.24c1.58.87,2.47.42,2.37-1.37a9.83,9.83,0,0,1,1.3-5.17,6.06,6.06,0,0,0,.43-.84C64.36,131.88,63.84,131,62.51,131.18Zm-2.86,6.06c-.68.2-1.17-.29-1.75-.41a5.26,5.26,0,0,0-2-2.64c-1-.59-.77-1.12.48-1.55a16.28,16.28,0,0,0,4.2,1.15C60.24,135,60,136.13,59.65,137.24Z"/><path fill="#dcbbff" d="M153.69,104.29a5.49,5.49,0,0,0,2.7-.77A156.31,156.31,0,0,1,177,94.79a108.07,108.07,0,0,1,20.16-4.69,67.42,67.42,0,0,1,15.09-.47,71.33,71.33,0,0,1,17.07,3.31c3.64,1.24,7.38,2.18,11,3.56,5.59,2.13,11,4.53,16.6,6.73a13.1,13.1,0,0,1,2.18.89c1.07.68,1.26-.29,1.72-.77.75.62.47,1.43.38,2.2A20.83,20.83,0,0,0,266,121.43a4,4,0,0,1,.75,4.49,85,85,0,0,0-5.72,33.87c.34,7.83,3,15,7,21.65,1.79,3,1.59,3.42-1.78,3.6a29.36,29.36,0,0,0-16.16,6.18,94,94,0,0,0-24.32,26.26,170.11,170.11,0,0,0-11.72,22.73,87.44,87.44,0,0,1-9.86,16.69,60.88,60.88,0,0,0-5.59,9.34,15.67,15.67,0,0,0-1.6,8.28c.47,4.94,2.54,8.89,7.12,11.3a21.73,21.73,0,0,0,13.71,2.47c.54.14,1,.39,1.06,1-.1,1.16-1,1.7-1.76,2.41C202.67,305.59,190.43,321,184,340.38a145.1,145.1,0,0,1-5.73,15.56,45,45,0,0,1-19.69,21.42c-3.82,2.08-7.57,4.29-11.19,6.7-.64.43-1.33,1.07-2.15.55s-.7-1.38-.61-2.16c.13-1.18.36-2.35.41-3.53.15-3.41,1.26-5.95,4.86-7.25,2.72-1,3.07-2.13,2.73-5-1.23-10.75-1.92-21.54-2.54-32.34-.5-8.66-1.66-17.29-2.12-26-.38-7.41-1.08-14.8-1.63-22.2-.7-9.6-1-19.22-1.72-28.83-.27-3.61-.55-7.24-.61-10.87-.15-8.68-.82-17.34-1.31-26-.41-7.34-1-14.65-1.59-22s-.79-14.52-2.68-21.59a26.19,26.19,0,0,0-6.55-12.17,4.86,4.86,0,0,1-1.37-1.91,6.56,6.56,0,0,0-3-3.79,3.3,3.3,0,0,1-1.58-3.85,37.48,37.48,0,0,1,2.27-8,4.32,4.32,0,0,1,4.41-2.84c3.55,0,7.11.28,10.65-.28a18.1,18.1,0,0,0,5.13-1.75,3.84,3.84,0,0,0,2.3-3.79A16.83,16.83,0,0,0,148.2,130c-1.77-3.14-1.45-3.92,2-5.09,2.19-.74,2.84-1.58,2.37-3.89-.4-1.92.45-2.61,2.08-2.95a21.28,21.28,0,0,0,3.68-.91c2.6-1.06,3.26-3.19,1.72-5.53a20.45,20.45,0,0,0-3.52-3.5C155.38,107,153.72,106.24,153.69,104.29Z"/><path d="M217.67,288.76c-4,.93-7.79.1-11.56-1.32-9.61-3.62-10.94-12.74-9-19.12a27.34,27.34,0,0,1,2.68-5.78c2.09-3.54,4.45-6.9,6.84-10.24a62.24,62.24,0,0,0,6.49-11.53c3-7,6.47-13.69,10.15-20.31A94.06,94.06,0,0,1,244,195.4c3.63-3.18,7.31-6.22,11.79-8.22a28,28,0,0,1,11.87-2.81c.31,0,.63,0,.94-.06.05,0,.09-.1.15-.18.11-.52-.32-.84-.56-1.21a47.11,47.11,0,0,1-7.83-25.45,83.77,83.77,0,0,1,6.3-32.79c.45-1.09,0-1.54-.57-2.21a21.34,21.34,0,0,1-5.64-15.61c0-1.17.24-2.34.36-3.52a27.08,27.08,0,0,1,10.53-15.83c8.89-6.5,21.44-7.36,30.37-.86a2.36,2.36,0,0,0,2.79.09,59.08,59.08,0,0,1,18.8-5.41c17.49-1.87,32.41,3.4,44.56,16.19,1.12,1.18,2,1.56,3.6,1a24.58,24.58,0,0,1,14.7-.46A17.71,17.71,0,0,1,398.72,110c.65,1.93.64,1.83,2.74,1.58,12.83-1.52,24,1.88,32.71,11.71,3.62,4.05,5.48,9,6.49,14.28.06.31.12.62.15.94.69,6.59,4.11,11.65,8.93,15.93,1.18,1.05,2.26,2.21,3.4,3.31,5.16,5,6.2,11,4.36,17.64a44.89,44.89,0,0,1-4.3,9.72c-1.14,2.08-2.31,4.14-3.46,6.21-2.6,4.67-2.11,9.25.45,13.74a40.12,40.12,0,0,0,3.88,5.38,37.91,37.91,0,0,1,8.09,15.89,30.38,30.38,0,0,1-4.5,24.44,14.5,14.5,0,0,1-7.55,5.82,38.8,38.8,0,0,1-24.45.22c-.6-.18-1.19-.39-1.93-.63a6.94,6.94,0,0,0-.33,2.76c-.13,12.88.13,25.76.51,38.65.43,14.59,2.73,28.92,5.23,43.25a49.46,49.46,0,0,1,1,12,20.48,20.48,0,0,0,.11,3.32,83.46,83.46,0,0,1-.46,18.69c-.07.54-.08,1.1-.12,1.65-.22,8.16-3,15.88-4.19,23.88-.24,1.57-.83,3.11-2.91,3.1-1.85-.61-1.92-2-1.73-3.64a142.24,142.24,0,0,1,2.9-14.63,91.72,91.72,0,0,0,2.51-24.42c-.12-2.64-.31-2.86-2.72-1.86a35.43,35.43,0,0,1-8.93,2.23c-5.09.68-10,2.32-15.12,2.85-6.51.68-13,1.37-19.57,1.47a113.74,113.74,0,0,1-15.56-.57,26.56,26.56,0,0,1-9.31-2.64c4.62,14.44,6.8,28.77,2.21,43.42-3.12,11.4-3.45,22.59,2.24,33.4a70.07,70.07,0,0,0,6.44,9.37c7.88,10.36,7.75,21.35,3.15,32.93-2.82,7.11-8.61,10.24-15.3,12.26-10.5,3.17-20.63,2.27-30.13-3.45a40.8,40.8,0,0,1-12-11.29,100.06,100.06,0,0,1-12.73-24.54c-5.53-15.26-9.42-31-13-46.78-1.27-5.62-2.75-11.18-3.13-17a58.78,58.78,0,0,1-.15-8.28c.49-6.45.72-12.93,1.86-19.31.54-3,1.13-6.06,1.81-9.07.62-2.75.65-2.72-2.25-2.28a56.71,56.71,0,0,1-8,.86c-7.68.07-14.12-2.92-19.76-7.92-.29-.26-.56-.55-.84-.83-1.76-1.68-2-1.68-2.86.53-6.18,16.74-14.94,32.25-23.19,48a78.27,78.27,0,0,1-19.86,24.84,13.71,13.71,0,0,1-5,3,124.57,124.57,0,0,1-27.17,12.58c-9.87,3.18-19.91,4.14-30.1,1.77-10.48-2.45-17.28-9-20.67-19.13-.12-1.64-.52-3.25-.57-4.9a15.23,15.23,0,0,1,2.12-6c3.68-6,3.53-12.27,2.14-18.78-1.14-5.34-3.68-10.1-6.29-14.78-4.89-8.74-8.48-18-11.78-27.4-5.92-16.8-10.23-34.05-14.08-51.42-.55-2.5-1-2.94-3.56-2.57-7.27,1.06-14.57,1.93-21.71,3.77-3,.77-3.29,1.29-2.62,4.35a42.9,42.9,0,0,0,3.81,10.45c5.42,10.44,10.07,21.28,15.87,31.54,6.15,10.85,9.14,22.66,10.31,35,.76,8,.79,16.08,2.32,24a10.5,10.5,0,0,1,0,3.31c-.17,1.28-.72,2.37-2.15,2.42s-2.15-1-2.26-2.28c-.52-6.14-2-12.18-2-18.36,0-7.89-1.61-15.53-3-23.22-.34-1.91-1.4-2.37-3.23-2.09-7,1.07-13.53,3.72-19.94,6.65a51.46,51.46,0,0,0-10.15,6.07,5.11,5.11,0,0,0-2.16,5.54c2.14,10.77,3.87,21.62,6.16,32.37.3,1.45.88,2.89.42,4.42-1.69,1.95-3.2,1.81-4.23-.54a34.17,34.17,0,0,1-1.84-7.34q-2.48-12.93-4.52-25.93c-.26-1.69-.64-3.2-2.2-4.24a4.24,4.24,0,0,1-1.55-3.1,53,53,0,0,1-.81-7.54c-.08-8.14-.89-16.23-1.34-24.35-.26-4.73-.22-9.47-.45-14.21-.91-18.55-.6-37.13-.52-55.7,0-2.25.4-4.53.59-6.8.34-9.56,1.08-19.09.71-28.67-.19-5,.14-10,.42-14.93.44-7.57.84-15.15,1.76-22.69a78.41,78.41,0,0,1,5.34-20.8c3-7.22,7.93-13.08,13.63-18.31,3.66-3.36,7.43-6.63,11.3-9.76a17.39,17.39,0,0,0,5.95-8.9c.51-1.74,1-3.5,1.5-5.23.75-2.46,1.19-2.71,3.88-2.35a77.85,77.85,0,0,1,1.69-9.22c.17-.71.13-1.22-.55-1.59-6.34-3.45-8.6-9.66-10.61-15.94-2.51-7.78-3.45-15.73-1.74-23.84a34,34,0,0,1,7.1-15.06,20.89,20.89,0,0,1,12.64-7.3,30.36,30.36,0,0,1,13.6.73,59.61,59.61,0,0,0,14,2.22c6,.12,11.74-1.33,17.41-3.08A100.07,100.07,0,0,1,157,55.75c6.73-1.2,11,2,11.82,8.83a17.87,17.87,0,0,1-14.14,19.34,52.18,52.18,0,0,1-6.45.64c-.19,1,.59,1.76.77,2.64-1,1.59-2.2,1.56-3.6.63-1.3-3.4-4.29-3.31-7.11-3.25a27.41,27.41,0,0,0-5.35.94c-2,.45-3.1,1.46-2.82,3.62.06,1.68-1,2.25-2.43,2.63-6.66,1.72-13.49,2.41-20.23,3.6-1.16.21-2.32.42-3.48.65-1.9.37-3.53,1.2-4,3.22a7.35,7.35,0,0,0,1.48,6.9c.51-1.5-.23-2.45-.43-3.45-.57-2.88.42-4.78,2.86-5.33.78-.18,1.57-.32,2.09.54a1.67,1.67,0,0,1,.08,1.16c-1.6,4.5.11,8.56,1.76,12.58a8.49,8.49,0,0,0,4.35,4.81c2.55,1.11,4.08.32,4.74-2.35.8-3.19.51-6.43.47-9.66a3.34,3.34,0,0,0-1.52-2.57,22.42,22.42,0,0,0-4.72-3.14c-.69-.3-1.54-.48-1.73-1.42.41-1.21,1.51-1.22,2.5-1.43,3.45-.73,7-1.21,10.42-1.87s3.84-.26,4,3.18a45.34,45.34,0,0,0,1.3,14.76c1.33,4.6,7.36,9.16,12.11,9.13a2.3,2.3,0,0,0,1.95-.67c2.61-3.61,6.82-4,10.56-5.29.81-.28,1.69-.38,2.53-.6s2,0,2.17-1-.92-1.37-1.56-1.93c-2-1.74-4.47-3-5.34-5.81.49-1.51,1.41-2.35,3.09-2.06l.51.6a11.76,11.76,0,0,0,3.83,3.76,11.7,11.7,0,0,1,3.5,3.81c1.45,2.77.45,5.14-2.61,6.06-.9.28-1.86.39-2.78.59s-1.85.41-2.72.6c-.45.69.16,1.07.34,1.54.89,2.32.06,4.08-2.32,4.76-.53.16-1.1.16-1.63.3-1.76.49-2.18,1.45-1.12,2.92a17.55,17.55,0,0,1,3.18,9.52c.17,2.85-.31,3.46-2.78,4.85a17.2,17.2,0,0,1-7.72,2,55.58,55.58,0,0,1-9.48,0,1.76,1.76,0,0,0-2,1.15c-1.31,2.56-1.85,5.35-2.7,8s0,3.94,2.15,5a3.52,3.52,0,0,1,2.12,2.94,2.84,2.84,0,0,0,1.13,1.75c4.66,4.58,6.74,10.35,7.87,16.62,1.05,5.78,1.28,11.62,1.79,17.44.66,7.56,1.18,15.13,1.7,22.7.63,9.22.94,18.46,1.43,27.7.81,15.15,1.53,30.31,2.73,45.43.79,10,1.39,20,2.32,30,1,10.86,1.21,21.77,2.33,32.62.37,3.54.7,7.08,1.14,10.61.32,2.56,0,3.51-2.3,4.83a25.56,25.56,0,0,1-3.61,1.75,1.47,1.47,0,0,0-1.13,1.3c-.43,3.2-.87,6.39-1.31,9.53a1.12,1.12,0,0,0,1.23-.31,77.28,77.28,0,0,1,10.49-6.45c11.95-6,19.23-15.8,23.46-28.18,1.82-5.3,3.61-10.6,5.69-15.81a98.94,98.94,0,0,1,16.43-27,155.94,155.94,0,0,1,16.42-17.38,1.21,1.21,0,0,1,.34-.59s-.08-.21-.08-.21a2,2,0,0,1-.21.11A1.44,1.44,0,0,0,217.67,288.76Z"/><path fill="#dcbbff" d="M204.53 420.15a76 76 0 0012.95-11.74A99.33 99.33 0 00230 390c4.41-8.39 8.62-16.88 12.93-25.32a188.18 188.18 0 009-20.36 14.11 14.11 0 011.56-3.38c1.13 1.11 2.2 2.21 3.33 3.24a29.53 29.53 0 0014.87 7.36c3.85.71 7.72.11 11.56-.38 1.4-.19 2.79-.52 4.21-.79.49.6.09 1.21-.05 1.75a146.71 146.71 0 00-4 30 75.16 75.16 0 002.65 23c1.5 5.4 2.32 11 3.82 16.37 3.24 11.63 6 23.4 10.46 34.67a101.63 101.63 0 0010.92 21 45.9 45.9 0 008.05 9c9.57 8.08 20.46 10.48 32.56 7.44A39.6 39.6 0 00361 490a14.39 14.39 0 006.09-6.12c3.91-7.52 5.63-15.4 3.86-23.82a28.63 28.63 0 00-5.12-10.59c-1.36-1.94-2.77-3.85-4.18-5.75-5.85-7.88-7.75-16.82-7.07-26.42a38.63 38.63 0 012-11.36 5.57 5.57 0 002.56-.25c5.82-1.94 11.09-.69 15.81 2.95a34.73 34.73 0 0015.91 6.89c8.37 1.36 16 .1 22.22-6.32a28.45 28.45 0 019.5-6.08c1.45-.12 2-1.07 2.18-2.36 1.12-8 3.5-15.67 4.57-23.64a2.34 2.34 0 01.28-.63c-.12 3.68 1.67 6.83 2.81 10.15a104.85 104.85 0 013.44 13.48 106.69 106.69 0 011.82 14.23 64.14 64.14 0 01-.1 9.7 77.22 77.22 0 01-2.49 15.33 104.22 104.22 0 01-9.5 22.87 102.09 102.09 0 01-6.16 9.8 75.65 75.65 0 01-9.95 11.68 81.52 81.52 0 01-17.39 12.1 82.56 82.56 0 01-15.7 6.41 93.79 93.79 0 01-12 2.49c-3.11.43-6.25.65-9.34 1.24a9.9 9.9 0 01-1.89.08c-3.72 0-7.43 0-11.15 0a85.32 85.32 0 01-14.52-1.57 100.85 100.85 0 01-13.51-3.31c-4.12-1.3-8.15-2.94-12.17-4.54a90.67 90.67 0 01-16.8-9.12 137.7 137.7 0 01-11.27-8.58c-6.39-5.29-12.12-11.28-18-17.08-3.94-3.87-7.89-7.74-12-11.47-5.82-5.32-11.65-10.62-17.66-15.72A100.66 100.66 0 00211.72 424c-1.35-.79-2.6-1.76-3.95-2.57A6.22 6.22 0 00204.53 420.15zM126.56 410.27l0 5.1c-.1-.12-.26-.22-.29-.36-.58-2.59-.61-2.67-3.25-1.89-3.78 1.12-7.53 2.34-11.27 3.57C104.9 419 98 421 90.89 422.67A151.6 151.6 0 0174 425.75a63.72 63.72 0 01-9.19.6c-8.92-.24-17.16-2.49-24-8.44a55 55 0 01-7.9-8.43c-5.55-7.38-8.23-15.8-10.25-24.62-1.21-5.29-2.28-10.61-3-16-.45-3.26-1.05-6.51-1.25-9.82-.32-5-.77-10-.87-15.06a63.56 63.56 0 013.07-19.51 187.86 187.86 0 019.8-26.05c2.29-4.93 4.66-9.81 7.4-14.52s5.25-9.33 7.9-14A8.35 8.35 0 0047 265a1.41 1.41 0 01.37-1.31c0 3.87-.14 7.74-.1 11.6.15 12.25-.32 24.51.22 36.75.72 16.11 1 32.23 2.22 48.32.3 3.85.07 7.75.84 11.57.34 1.68.38 3.54 2.79 3.79.75.08.58 1 .68 1.61 1.24 7.64 2.39 15.29 3.89 22.89.72 3.64 1.48 7.27 2.24 10.9a8 8 0 00.46 1.59c.86 2 1.89 2.11 3.37.32 3.22 4.29 7.79 4.7 12.69 4.74 6.84.06 13-2.4 19.15-4.77a52.81 52.81 0 0112.79-3.31 24 24 0 018.69.53A16 16 0 00126.56 410.27z"/><path fill="#7e5da4" d="M105.94,98.1c-2.4-.82-4.35.35-4.47,2.69a8.31,8.31,0,0,0,.69,3.22,11.05,11.05,0,0,1,.56,1.55,1.19,1.19,0,0,1-.71,1.37,1.09,1.09,0,0,1-1.44-.48,13.42,13.42,0,0,1-.92-1.91,9.31,9.31,0,0,1-.65-4.18,4.61,4.61,0,0,1,3.83-4.75,96.1,96.1,0,0,1,10.26-1.79c5.22-.8,10.42-1.78,15.6-2.83,1.28-.26.52-1.29.87-1.88a4.42,4.42,0,0,0,3.26.43c4.27-.87,8.51-2,12.92-1.93A3,3,0,0,0,149,87.2a2.88,2.88,0,0,0,1.76.51,3.63,3.63,0,0,1,3.38,3.08,19.63,19.63,0,0,1-.47,10.42,4.54,4.54,0,0,0-.49,2.48,5.53,5.53,0,0,0-2.84,1.92c-.87,1-2.13,1-3.24,1.29a61.83,61.83,0,0,1-9.55,1.7,8,8,0,0,1-7.72-3.12,17.65,17.65,0,0,1-4.09-7.89c.08-3.46.08-3.46-3.28-2.88-3.86.67-7.72,1.34-11.58,2a1.58,1.58,0,0,0-1.33.81C108.42,98.15,107.15,97.94,105.94,98.1Z"/><path fill="#7f5ea4" d="M243.27,57.17a9.76,9.76,0,0,0-1.61-7,6,6,0,0,1-.5-5.66c.47-1.25.88-2.54,1.26-3.82a4,4,0,0,0-1-4.14A16.32,16.32,0,0,1,239.94,35c-1-1.32-1.71-2.83-1.07-4.43,2-5,.79-10,0-14.94q-.42-2.68-.72-5.39c-.09-.75.09-1.54,1-1.6s1.16.64,1.28,1.41c.63,4,1.33,7.94,1.87,11.92a15.25,15.25,0,0,1-.58,7.49A4.31,4.31,0,0,0,243,34.57a6.63,6.63,0,0,1,1.72,7.6c-.05.15-.11.29-.16.44-1.39,4.06-2,4.63.41,8.44,1.1,1.72,1,3.8.83,5.78a14.11,14.11,0,0,0,2.34,9.22c.46.7.92,1.46,0,2s-1.54,0-2.06-.64a14.44,14.44,0,0,1-2.8-7.43A24.25,24.25,0,0,1,243.27,57.17Z"/><path fill="#7f5ea5" d="M314.48 51.94a9.89 9.89 0 00-2.36 7.47 26.43 26.43 0 010 3.56 7.09 7.09 0 01-2.77 5 1.11 1.11 0 01-1.69 0 1 1 0 01.12-1.5c2.17-1.93 2.19-4.44 1.93-7a12.13 12.13 0 012.88-9.24 12.41 12.41 0 002.88-6.39 6 6 0 012.69-4.3 10.11 10.11 0 004.22-6.34 10.74 10.74 0 012.47-4.54c1.3-1.48 2.64-2.94 4-4.4.52-.58 1.14-1 1.86-.44a1.32 1.32 0 01.14 1.93 15.82 15.82 0 01-1.7 2c-2.23 2.29-4.12 4.73-4.87 8a9.54 9.54 0 01-4 5.43c-.95.7-2 1.39-2.05 2.74C317.79 45 316.59 50.36 314.48 51.94zM455 63a2.26 2.26 0 01-.75 1.81 19 19 0 01-2.47 2.21 6.83 6.83 0 00-2.9 4.17 12.72 12.72 0 01-3 6.06 5.62 5.62 0 00-1.39 3.93 8.78 8.78 0 01-3.32 6.8c-.42.36-.8.76-1.24 1.09A10.5 10.5 0 00436 95.4a20.4 20.4 0 01-2.09 5.76 6.65 6.65 0 01-3 3c-.29.13-.58.24-.88.35a1.15 1.15 0 01-1.58-.61 1 1 0 01.57-1.38c2.73-1.08 3.39-3.55 4.11-6 .27-.9.55-1.81.77-2.73a10.63 10.63 0 014.16-6.42 8.76 8.76 0 004-7.37 6.29 6.29 0 011.78-4.29 9.34 9.34 0 002.39-4.55 9.76 9.76 0 014.25-6.31 8.47 8.47 0 002.34-2.32 1.19 1.19 0 011.46-.47A1.1 1.1 0 01455 63zM106.12 14a2.79 2.79 0 01.26-1.71 1 1 0 011.72.09.68.68 0 01.09.22c.24 3 2.09 4.52 4.83 5.38a4.69 4.69 0 013.23 3.77c.13.62.32 1.22.42 1.84A2.87 2.87 0 00119 26.19 5.66 5.66 0 01122.69 29a16.65 16.65 0 004.38 4.59 13.09 13.09 0 014.28 5c.37.77.93 1.64-.19 2.24-.92.5-1.51-.17-1.89-.88a16.35 16.35 0 00-5-5.28 15.81 15.81 0 01-3.59-4.06 4.13 4.13 0 00-2.53-2 4.87 4.87 0 01-3.9-4.51 4.82 4.82 0 00-3.71-4.59A6.26 6.26 0 01106.12 14z"/><path fill="#020202" d="M439.35,101.45c-.76-.06-1.38-.86-1-1.53,1.23-1.94,1.31-4.21,2.07-6.27A8.43,8.43,0,0,1,443,90a8.69,8.69,0,0,0,3.6-7.34A6.79,6.79,0,0,1,449,77.18a5.67,5.67,0,0,0,1.57-3.62,8.58,8.58,0,0,1,3.5-5.45c.61-.46,1.28-.75,1.9-.1s.21,1.36-.37,1.8a7.79,7.79,0,0,0-3,5.48,5.85,5.85,0,0,1-1.8,3.52,5,5,0,0,0-1.69,4,10,10,0,0,1-3.83,8.52,8.19,8.19,0,0,0-3.06,5.44,8.68,8.68,0,0,1-1.37,3.75A1.62,1.62,0,0,1,439.35,101.45Z"/><path fill="#7f5ea5" d="M5.65,103.54c0-.11,0-.35.07-.58a1.15,1.15,0,0,1,1.1-1,1,1,0,0,1,1.11,1c.15,3.53,2.63,4.75,5.51,5.58.75.21,1.52.4,2.27.64a4.81,4.81,0,0,1,3.72,4.13c.07.46.23.91.34,1.38a1.61,1.61,0,0,0,1.81,1.47c3.11-.2,5.12,1.69,7.06,3.72a3.43,3.43,0,0,1,.55.76c.32.69.42,1.4-.32,1.89s-1.18.06-1.65-.42c-.67-.67-1.35-1.32-2-2a5.31,5.31,0,0,0-3.63-1.48c-2.76-.16-3.76-1-4.42-3.68a4.24,4.24,0,0,1-.11-.7,3.11,3.11,0,0,0-2.64-2.91,33.39,33.39,0,0,1-4-1.37A7.71,7.71,0,0,1,6,105.51,5.24,5.24,0,0,1,5.65,103.54Z"/><path fill="#030303" d="M247.31,24.3c.8.18,1.27.58,1.13,1.34a5.79,5.79,0,0,1-.63,1.76,5.15,5.15,0,0,0,.36,5.79,15.19,15.19,0,0,1,1.77,3.59,8.16,8.16,0,0,1-.18,6,7.7,7.7,0,0,0,.5,7,30.48,30.48,0,0,1,1.47,3.48,1.3,1.3,0,0,1-.82,1.9c-.85.25-1.27-.37-1.57-1.07-.65-1.52-1.35-3-2-4.55a8.51,8.51,0,0,1-.21-6.9c1.23-2.83.68-5.36-.83-7.85a18.25,18.25,0,0,1-1.25-2.55c-1.15-2.83.25-5.19,1.51-7.56C246.7,24.49,247.1,24.41,247.31,24.3Z"/><path fill="#050404" d="M25.87,114.62a4.19,4.19,0,0,1-4-3.2c-.59-2.51-2.19-3.45-4.51-3.75a17.87,17.87,0,0,1-3-.58,5.06,5.06,0,0,1-3.45-3.29,1.12,1.12,0,0,1,.62-1.57,1,1,0,0,1,1.37.58c.86,1.82,2.45,2.26,4.27,2.44a12.15,12.15,0,0,1,3.44.77,5.6,5.6,0,0,1,3.4,4,2.34,2.34,0,0,0,2.23,2,3.4,3.4,0,0,1,.46.09c.77.14,1.42.47,1.34,1.35C27.94,114.5,27.15,114.66,25.87,114.62Z"/><path fill="#030303" d="M117.05,18.82c0-.7-.44-1.83.81-2s1.53,1.11,1.47,1.95c-.16,2.59,1.36,3.42,3.52,3.82a4.59,4.59,0,0,1,3.86,3.66,5.38,5.38,0,0,0,2.07,3.32,2.58,2.58,0,0,1,.34.32c.58.63,1,1.37.25,2.07s-1.3.36-1.9-.17c-1.32-1.14-2.65-2.27-2.93-4.13a3.39,3.39,0,0,0-2.9-2.95C117.92,23.71,117.27,22.8,117.05,18.82Z"/><path fill="#3d3047" d="M319.88,8.79a1.1,1.1,0,0,1-1.39,1.11c-.8-.14-1.87-.14-2-1.2s.77-1.23,1.57-1.3A1.52,1.52,0,0,1,319.88,8.79Z"/><path fill="#0c0d0e" d="M443,2.81c-1-.05-1.07-.86-1.16-1.62S442-.1,442.82,0a1.65,1.65,0,0,1,1.38,1.64C444.26,2.36,443.84,2.8,443,2.81Z"/><path fill="#1b181d" d="M2.37,80.93c1,0,1.78.5,1.4,1.57-.46,1.29-1.44.8-2.3.35C.76,81.73,1,81.08,2.37,80.93Z"/><path fill="#262829" d="M77.33,115.55c.88.58,1.1,1.32.27,2s-1.4.28-1.83-.52C75.47,115.71,75.81,115,77.33,115.55Z"/><path fill="#906fad" d="M2.37,80.93a1.57,1.57,0,0,0-.9,1.92C.57,83,.18,82.5,0,81.73a1.26,1.26,0,0,1,.58-1.41C1.41,79.85,1.9,80.38,2.37,80.93Z"/><path fill="#916ca4" d="M423.08,74.87c-.72-1-.29-1.59.67-1.88a1.17,1.17,0,0,1,1.64,1.1c.07.56.39,1.22-.27,1.69C424.49,75.36,424,74.66,423.08,74.87Z"/><path fill="#8a68a7" d="M71.17,19.79c-.93-.12-1.09-.76-1-1.52s.59-.87,1.14-1c1-.23,1.47.23,1.66,1.13A12.71,12.71,0,0,1,71.17,19.79Z"/><path fill="#222528" d="M423.08,74.87c.37-.49.72-1.07,1.47-.71s.52,1,.57,1.62C423.79,76.53,423.61,76.45,423.08,74.87Z"/><path fill="#1f1b1f" d="M71.17,19.79c.06-1.15.67-1.61,1.8-1.39.38.51.79,1.05.2,1.64C72.43,20.78,71.78,20.33,71.17,19.79Z"/><path fill="#9878aa" d="M77.33,115.55c-1.2-.2-1.62.41-1.56,1.52-.1-.12-.25-.21-.31-.34-.29-.69-1-1.44-.11-2.08S76.85,114.85,77.33,115.55Z"/><path fill="#171618" d="M450.61,133.69c.21.79.41,1.74-.7,1.84-1.28.12-1.27-.86-1.08-1.79A1.14,1.14,0,0,1,450.61,133.69Z"/><path fill="#8b629d" d="M450.61,133.69a2.85,2.85,0,0,0-1.78.05c-.23-.72.05-1.27.74-1.34S450.79,132.83,450.61,133.69Z"/><path fill="#020102" d="M212,213.88l1.13.83a7.11,7.11,0,1,1-11,4.23,13.79,13.79,0,0,1,.42-1.34c.34-1.1.46-2.31,1.62-3a3.94,3.94,0,0,1,.55-.35,9.67,9.67,0,0,1,.9-.48,9.37,9.37,0,0,1,3.71-1A3.4,3.4,0,0,1,212,213.88Z"/><path fill="#7f5ea5" d="M197.38,151.34a6.19,6.19,0,0,0-2.43-6.06,5.7,5.7,0,0,1-1.69-2,1.4,1.4,0,0,1,.36-1.91c.77-.51,1.36-.11,1.7.63a6.24,6.24,0,0,0,1.68,2,7.73,7.73,0,0,1,2.81,6.71c0,.55,0,1.1,0,1.66a5.25,5.25,0,0,0,2.32,4.18,6.48,6.48,0,0,1,2.66,4.83,6.64,6.64,0,0,0,2.73,5,7.29,7.29,0,0,1,2.64,6.06,3.73,3.73,0,0,1-.17,1.15,1.05,1.05,0,0,1-1.06.78,1.12,1.12,0,0,1-1.06-.8.6.6,0,0,1-.06-.23c.18-2.94-1.61-4.77-3.59-6.56a5.71,5.71,0,0,1-1.73-3.79,7.22,7.22,0,0,0-2.73-5.28C197.72,156.1,197.16,153.84,197.38,151.34Z"/><path fill="#020202" d="M209.64,113.26c.48.26,1,.5,1.44.8a5.49,5.49,0,0,1,2.5,6.11,5.61,5.61,0,0,1-10.66.86,10.68,10.68,0,0,1-.44-1.59,3.79,3.79,0,0,1,.41-4,6.92,6.92,0,0,1,3.72-2.62A3.54,3.54,0,0,1,209.64,113.26Z"/><path fill="#040304" d="M209.17,158.77a2.45,2.45,0,0,0,1.32,2.94,7.41,7.41,0,0,1,2.69,3.22c.36.78.48,1.57-.4,2.06s-1.46-.1-1.83-.86a7.79,7.79,0,0,0-2.68-2.93,3.28,3.28,0,0,1-1.64-3.82,3.11,3.11,0,0,0-1.39-3.47,23.32,23.32,0,0,1-2.28-2c-1.58-1.64-1.69-3.65-1.24-5.74.14-.63.48-1.22,1.26-1.16,1,.08,1.14.81,1,1.55-.55,2.48.71,4,2.56,5.34C208.15,155,209.56,156.44,209.17,158.77Z"/><path fill="#805ea4" d="M212,213.88l-2.84-.61c-2.15-1.23-3.54-.23-4.67,1.57l-1.92,2.76c-.1-.54-.2-1.08-.31-1.62-.63-3,1-5.79,3.79-6.35A4.89,4.89,0,0,1,212,213.88Z"/><path fill="#815fa5" d="M203.36,115.55a6.79,6.79,0,0,0-.88,3.89c-.33-.53-.67-1.06-1-1.6-1.52-2.74-.94-5.38,1.45-6.75s5.08-.62,6.68,2.17l-3.23.06A2.57,2.57,0,0,0,203.36,115.55Z"/><path fill="#241c28" d="M160.28,194.41c.49.69.87,1.43-.14,1.94s-1.4-.26-1.76-1C158.5,194,159.18,193.79,160.28,194.41Z"/><path fill="#0b080c" d="M231,99.09c.27.68.49,1.4-.32,1.84a1.12,1.12,0,0,1-1.6-.47C228.68,98.63,229.34,98.19,231,99.09Z"/><path fill="#8b619f" d="M231,99.09c-1.61-.27-1.61-.27-1.92,1.37-.38-.26-.37-.65-.35-1,0-.73,0-1.53,1-1.66S230.79,98.37,231,99.09Z"/><path fill="#8865aa" d="M160.28,194.41a1.53,1.53,0,0,0-1.9.94c-.58-.21-.93-.62-.72-1.24a1.2,1.2,0,0,1,1.3-.76A1.26,1.26,0,0,1,160.28,194.41Z"/><path fill="#9f9dd6" d="M219.64,288.76l-.89.53c-.23-.43-.7-.39-1.08-.53a2.7,2.7,0,0,1,1.45-.53C219.59,288.11,219.73,288.33,219.64,288.76Z"/><path fill="#fff" d="M62.19 283.1c-.93.43-1.83.89-2.78 1.26A2 2 0 0058.05 287a57.9 57.9 0 002.07 7.78c.92 2.58 2.12 3.37 4.79 3.26.39 0 .78-.09 1.17-.13a4.4 4.4 0 01.74 2 58.74 58.74 0 004.45 11.71q9.3 18.65 18.59 37.29A18.41 18.41 0 0192 354.12c-7.21.51-13.79 2.93-20.26 5.68s-12.58 5.9-17.43 11c-.85-.34-.66-1-.69-1.48-.34-5.6-.6-11.21-1-16.81-.92-13.88-1.13-27.8-1.76-41.69-.45-9.8 0-19.6-.16-29.41-.16-12 .32-24 .89-36 .1-2 .13-4.12 0-6.17-.47-9.58.36-19.11.86-28.66A148.84 148.84 0 0154.54 192a69.35 69.35 0 013.55-12.51c2.95-7.73 8.13-13.84 14.16-19.31 3.74-3.4 7.56-6.72 11.36-10.06a12.19 12.19 0 003.07-3.58c.68-1.38 1.58-1.32 2.71-.88a40.53 40.53 0 017.83 3.89A93.75 93.75 0 01112.09 162a50.35 50.35 0 006.28 5.76 5.26 5.26 0 006 .54c1.25-.66 2.56-1.25 3.74-2 .88-.59 1.38-.61 2.14.23a22.39 22.39 0 015 8.77c1.73 6 2.29 12.25 2.76 18.48.59 7.72 1.32 15.44 1.81 23.16.61 9.71 1 19.42 1.56 29.13.43 8.12.93 16.25 1.32 24.38.52 10.74 1.57 21.44 2.21 32.16.89 15 2.61 29.92 3.22 44.93.24 5.91 1.1 11.8 1.63 17.7.11 1.21.66 2.51-.54 3.55a6.42 6.42 0 01-4.49 1.84 11.74 11.74 0 01-3.68-.85 27.87 27.87 0 01-8.13-4.77 33.24 33.24 0 00-8.8-5.49 4.23 4.23 0 01-2.47-2.61 305.79 305.79 0 01-11.92-34.93c-2.84-10.43-5.58-20.89-8-31.43a3 3 0 01-.11-1.71 8.51 8.51 0 013 0c2.22 0 3.27-.77 3.51-2.93a23.29 23.29 0 00-.58-7.3 3.11 3.11 0 00-2.74-2.6c-3.36-.41-4.12-1.52-2.94-4.87 1.69-4.76 3.56-9.46 5.3-14.21a325.08 325.08 0 0012.27-41.33c1.24-5.64 2.29-11.38 1.81-17.14-.93-11.07-5.51-20.37-14.76-26.9-4.71-3.33-9.56-3.31-14.6-.13C85 175.63 80.6 181.9 77 188.84c-7 13.68-11.31 28.26-13.79 43.42-1.86 11.3-3.2 22.67-5.06 34a20.26 20.26 0 003 14.06C61.74 281.15 62.53 281.94 62.19 283.1zM362.51 194.92a39 39 0 01-12.9 7.29 70.64 70.64 0 01-26.45 4.49 69 69 0 01-20.53-4.41A97.7 97.7 0 01285.36 194c-15.09-9-22.06-22.54-21.56-39.95a95 95 0 014.73-25.78 14.55 14.55 0 011.68-3.65 2.36 2.36 0 00-.35-3.21c-.16-.17-.34-.33-.51-.5-5.87-6.17-7-13.28-3.76-21 4.74-11.46 18.69-17.34 30-12.82a14.94 14.94 0 014.69 2.71c1.52 1.39 3 1.34 4.75.46a55.15 55.15 0 0119.43-5.65c14.54-1.43 27.32 2.59 38.18 12.43a39.36 39.36 0 014.09 4.28 2.91 2.91 0 003.72 1 28.48 28.48 0 017.84-1.7A18.43 18.43 0 01389 102.93a14.09 14.09 0 016.61 8.61c.21.73.32 1.26-.61 1.69-9.82 4.63-16.14 12.42-19.83 22.44a66.6 66.6 0 00-3.73 27.74c.49 7.29 4.1 12.46 10.82 15.4.24.1.42.3.7.32a.17.17 0 01.26.07.39.39 0 010 .61 1.85 1.85 0 01-1.36.21c-5.84-.85-10 1.76-13.3 6.31-1.86 2.55-3.09 5.48-4.9 8.06C363.4 194.74 362.88 194.65 362.51 194.92zM345.87 319.17a189.45 189.45 0 00-.62 20.36A50.92 50.92 0 00349.8 360 54.44 54.44 0 01354 374.2c.73 4.44 1.78 8.82 1.79 13.36a63.41 63.41 0 01-2.53 17c-2.77 10.16-3.32 20.39.08 30.57a38.66 38.66 0 005.36 10.24c1.56 2.18 3.13 4.36 4.73 6.52 4.87 6.55 5.8 13.82 4 21.61a34.63 34.63 0 01-3.34 8.82 10.34 10.34 0 01-4.24 4.35c-11.79 6.22-23.54 6.7-35.05-.59-5.09-3.21-8.86-7.83-12.11-12.84a108.91 108.91 0 01-11.88-25.71c-3.9-11.94-7-24.1-10-36.27-1.23-4.9-2.21-9.85-3.21-14.8a49.8 49.8 0 01-.87-9.9 149.9 149.9 0 012.89-29.43c.48-2.4 1.07-4.77 1.55-7.17a2.21 2.21 0 011.35-1.76 95.79 95.79 0 009.2-5.35A149.27 149.27 0 01329 330a32.49 32.49 0 0016.35-12.68C346.62 317.66 345.92 318.5 345.87 319.17zM226.28 287.25a27.52 27.52 0 013.25 5c3.23 6.5 6.92 12.76 10.25 19.21A95.67 95.67 0 01245 323.36a90.41 90.41 0 005.84 13.44 2.21 2.21 0 01.06 2.16c-6.67 16.48-15 32.17-23.11 48a89.57 89.57 0 01-17.61 24.22 51.43 51.43 0 01-7.77 6.2 105.61 105.61 0 01-30.89 13.45 48.3 48.3 0 01-25.53-.15c-7-2-11.81-6.78-15-13.19a10.72 10.72 0 01-.06-9.41 44.57 44.57 0 014-7 54.29 54.29 0 0118.4-17.45c2.68-1.52 5.31-3.11 8-4.6 8.46-4.68 14.4-11.68 18.74-20.17a92.67 92.67 0 005-12.77c3.16-9.45 6.74-18.72 12.39-27a142.17 142.17 0 0124-27.37C223 290.27 224.53 288.83 226.28 287.25z"/><path fill="#fff" d="M387 181.59c1.58-2.28 4.06-1.94 6.61-2.36a21.15 21.15 0 00-.5 7.63 24.58 24.58 0 008.12 16.37 18.72 18.72 0 016.3 14.5c.07 5.05 0 10.11.9 15.12a43.22 43.22 0 003.79 11.91 24.15 24.15 0 006.94 8.59 2.66 2.66 0 011.19 2.56c-.6 11.77-.28 23.54-.06 35.31a272.62 272.62 0 004 41.71c.9 5.13 1.94 10.24 2.39 15.44.29 3.43-.05 4-3.21 5.41-5.31 2.36-10.95 3.53-16.58 4.7a159 159 0 01-38 2.86 38.44 38.44 0 01-9.09-1.54 12.93 12.93 0 01-9.37-9.17 42.89 42.89 0 01-1.88-11.41 243.48 243.48 0 011.17-26 151.93 151.93 0 00.06-20.13 5 5 0 011.53-4.16c4.73-4.88 9-10.2 13.4-15.34a1 1 0 01.89-.22c2.64.9 4-.69 5.08-2.67 1.82-3.24 3.24-6.68 4.78-10.06 3.53-7.75 7.1-15.5 10.35-23.38a94.28 94.28 0 007.47-32.86A33.23 33.23 0 00388 184.31C387.45 183.5 386.5 182.8 387 181.59zM298.84 284.49a193.63 193.63 0 0018.8 11c2.25 1.15 4.51 2.28 6.69 3.55 5 2.92 9.94 2.44 14.88-.14a57 57 0 007.18-5c.62.45.36 1.05.36 1.55 0 3.79 0 7.59 0 11.38a6.87 6.87 0 01-1.18 3.74 50.28 50.28 0 01-7.08 9.75 21.16 21.16 0 01-6.92 4.87c-4.22 1.77-8.42 3.59-12.7 5.21a94.19 94.19 0 00-20.17 10.34 44.7 44.7 0 01-10.9 5.67C277 350.05 267 349.23 258.3 341a24.46 24.46 0 01-5-6.61 74.16 74.16 0 01-4.34-10 125.1 125.1 0 00-10.38-22.29c-3.36-5.79-6-12-10.29-17.39 2-1.23 4-2.41 5.88-3.62a58.52 58.52 0 0016.88-15.39c.79-1.12 1.38-1.25 2.68-.73a64.59 64.59 0 0017.66 4.22 31.41 31.41 0 013.74.64c.94.55.55 1.37.37 2.1a10.11 10.11 0 00-.27 3.5c.27 2.56 2.24 3.38 4.38 1.92 1.5-1 2.16-2.93 4-3.57a1.38 1.38 0 011.16.68c.4 1.18-.38 2.11-.67 3.14-.36 1.29-.44 2.56.76 3.41s2.51.42 3.61-.55c.81-.71 1.5-1.66 2.77-1.56a1.66 1.66 0 011.12.77c.36.9-.2 1.67-.36 2.5-.32 1.55-.32 3 1.23 4s2.69.21 3.84-.73C297.61 285 298 284.25 298.84 284.49zM126.56 410.27a3.87 3.87 0 01-3.08 1.41c-3 .24-5.73-.85-8.6-1.21a31 31 0 00-6.81 0c-6.61.61-12.53 3.49-18.66 5.64a39.09 39.09 0 01-12 2.3 28.84 28.84 0 01-7.88-.63 9.84 9.84 0 01-4.51-2.47A3.06 3.06 0 0164 413c-1.82-8.33-3.32-16.73-4.87-25.11-.82-4.43-1.5-8.88-2.37-13.29a2.11 2.11 0 01.76-2.23 31.87 31.87 0 016.39-4.89 80.69 80.69 0 0125.3-9.66c4-.71 3.91-.67 4.75 3.15 2.07 9.46 2.82 19.05 3.29 28.69.21 4.18 1.45 8.25 1.46 12.47a1.65 1.65 0 001.61 1.73c.88.1 1.61-.72 1.68-1.89a25.68 25.68 0 00-.51-6.61 83.71 83.71 0 01-1.32-13.67c-.27-8.74-2-17.25-3.9-25.73a36.28 36.28 0 00-3.08-8.18q-9.69-19.38-19.35-38.77a50.8 50.8 0 01-4.22-11.28c-.09-.39-.2-.77-.26-1.16-.44-2.9-.43-2.88 2.38-3.66a155.25 155.25 0 0124-4.13c2.66-.29 2.31-.53 2.88 2.13a425.58 425.58 0 0014.22 52.29A178.35 178.35 0 00125 371.47 52.92 52.92 0 01130.52 384a33.61 33.61 0 01.83 14.08 13.43 13.43 0 01-1.79 5A25.48 25.48 0 00126.56 410.27z"/><path fill="#7f5da4" d="M62.19,283.1a45.06,45.06,0,0,1-3.69-6.88c-1.82-4.36-1.32-8.86-.5-13.3,1.13-6.14,1.73-12.34,2.69-18.5,1.73-11.15,3.25-22.34,6.63-33.15a125,125,0,0,1,11.26-26.54c3.42-5.8,7.65-10.77,13.5-14.32,4.88-3,9.51-2.72,14.28.12a26.19,26.19,0,0,1,8.24,8c5.11,7.52,8.1,15.67,7.2,24.95a124.47,124.47,0,0,1-3.62,20c-2.67,10.07-5.67,20-9.09,29.88-2,5.66-4.22,11.23-6.34,16.84a9.77,9.77,0,0,0-.87,3.18c0,1.52.27,1.88,1.8,2.1a1.55,1.55,0,0,1,1.07.4c-7.18-.32-14.09,1.49-21.08,2.64-2.34.38-4.66.89-7,1.16a62.11,62.11,0,0,0-12.43,2.86A4.53,4.53,0,0,1,62.19,283.1Z"/><path fill="#fff" d="M285.06,250.91c-3.35-1.59-6.41-3.69-9.62-5.54-.21-.12-.4-.25-.6-.38-5.61-3.54-6.79-3.64-12.93-1,.14-1.46.24-2.82.41-4.17.65-5.18,1.53-10.28,3.76-15.08a42.46,42.46,0,0,1,5.23-8.14c4.45-5.73,8.74-11.62,14.43-16.25,1.58-1.28,1.57-1.31,3.43-.34a96.41,96.41,0,0,0,23.2,8.62,60.86,60.86,0,0,0,25.6.25,82.74,82.74,0,0,0,14.31-4,55.83,55.83,0,0,0,7.81-3.91c1.55.8.43,1.8.06,2.53-1.91,3.71-3.94,7.36-5.6,11.21-4,9.19-8.21,18.26-11.53,27.72-1.18,3.36-2,6.81-2.93,10.23a12.79,12.79,0,0,0,0,5.87,4.19,4.19,0,0,1-.05,3c-7.35,7.2-11.33,7.12-18.52,4.48-3.92-1.43-8.05-2.36-11.72-4.44-.93-1.27-.09-2.57,0-3.85s.15-2.49-1.16-3-2.22.36-3,1.24-1.26,2.19-2.47,2.76a3.34,3.34,0,0,1-2.9-1.1c-.34-1.23.1-2.48-.05-3.72-.11-.88-.22-1.76-1.17-2.12s-1.63.14-2.38.62c-1.12.7-1.29,2.4-2.81,2.66a2.54,2.54,0,0,1-.68-.09c-1.31-.52-1.32-1.55-1.16-2.73.19-1.43.18-3-1.26-3.75-1.62-.88-2.81.2-3.9,1.29A3.23,3.23,0,0,1,285.06,250.91Z"/><path fill="#fff" d="M284.06 197.28c-7.46 6.39-13.09 13.91-18.52 21.59a32.76 32.76 0 00-5.6 14.68c-.51 3.68-1 7.36-1.33 11-.11 1.12-.45 1.72-1.57 1.94a4.1 4.1 0 00-3.6 4.08 5.93 5.93 0 01-1.79 3.76 19.8 19.8 0 00-1.65 2 4 4 0 00-.79 3.8c.59 1.43 0 2.42-.73 3.46a49.53 49.53 0 01-8.23 8.82 70.59 70.59 0 01-17.38 10.92c-1.6.68-3.26 1.16-4.92 1.68-5.13 1.6-9.73.17-13.91-2.65-3.92-2.64-4.6-6.78-4.07-11.17a16.45 16.45 0 012.31-6.17 105.12 105.12 0 016.38-9.69 74.94 74.94 0 008.22-14.61 176.12 176.12 0 0110.92-21.26 91 91 0 0122.44-25.15c4.84-3.73 10.43-6.54 16.88-6.82 2.89-.13 5.35.31 7.47 2.6C277.21 193 280.52 195.06 284.06 197.28zM422.64 403.1a3.3 3.3 0 01-2 1.62c-3.89 1.62-6.74 4.62-9.88 7.22a19.69 19.69 0 01-11.42 4.5 36.61 36.61 0 01-17.24-2.86 29.82 29.82 0 01-6.71-3.93 29.93 29.93 0 00-5.05-3.06c-3.22-1.59-6.56-1.43-9.92-.68-.92.21-1.8.6-2.7.87s-.95-.31-1.11-.87c.23-2.61 1.13-5.07 1.62-7.63a52 52 0 00.21-18.61c-1.05-6.15-2.14-12.29-4.46-18.13 0-.12.06-.29.1-.51 5.21 2.82 10.87 3.6 16.65 3.78A184.41 184.41 0 00398 363.48c5.27-.61 10.4-1.89 15.58-2.94.92-.18 1.87-.23 2.8-.37a31.92 31.92 0 008.38-2.47c.54-.24 1-.75 1.87-.52.56 2.43.13 4.95.25 7.44.51 10.17-2.42 19.84-4.34 29.65-.38 1.94-.64 3.9-1.06 5.83A2.43 2.43 0 00422.64 403.1z"/><path fill="#7f5da4" d="M339.71,261.23c.4-.71,0-1.38-.15-2a13.81,13.81,0,0,1,0-6.79,139.76,139.76,0,0,1,9-25.37c3.62-8.22,7-16.55,11.4-24.43.25-.45,1-1,.21-1.64,1.82-1.23,2.37-3.16,2.85-5.13.37-.48-.06-1.16.4-1.61a68.18,68.18,0,0,1,4.31-7.58c2.43-3.81,5.68-6.47,10.27-7.27a18.31,18.31,0,0,1,5.38.3c.2-.21.35-.18.47.08.83,1,1.7,2,3.21,1.84,0,.31-.07.61.17.89,4.42,5,6.1,11.1,6.61,17.6.76,9.83-1.33,19.28-4.15,28.6-2.74,9.08-7,17.57-10.79,26.22-1.91,4.32-3.93,8.6-5.92,12.9-.53,1.14-1.06,2.29-1.69,3.38-1.7,3-2.89,4.13-6.43,2.37-1.42-2.31-2-2.45-3.78-1a3.18,3.18,0,0,1-3.84-1,3.68,3.68,0,0,0-3.24-1.51,5.06,5.06,0,0,1-4.39-2.41,4.2,4.2,0,0,0-4-2,7.77,7.77,0,0,1-4.28-1.2C340.54,263.47,340.37,262.23,339.71,261.23Z"/><path fill="#fff" d="M341.18 264.1a15.13 15.13 0 006.42 1.09c.88-.11 1.34.72 1.78 1.37 1.43 2.11 3.18 3.5 5.93 2.82a1.08 1.08 0 011.36.64c.82 1.93 2.5 2.37 4.33 2.57-5.37 6.51-10.64 13.12-17 18.72a27.74 27.74 0 01-8.5 5.48 10.34 10.34 0 01-8.9-.47c-8.78-4.64-17.65-9.1-25.89-14.68-.61-.92 0-1.68.36-2.43a133.06 133.06 0 006.11-13.09 2.69 2.69 0 011.66-1.89c3.76.58 7.16 2.28 10.72 3.47a59.88 59.88 0 006.12 1.73c4.91 1.08 8.91-.95 12.67-3.76C339.22 265 340 264.15 341.18 264.1zM377 141.35c1.16.5 2 1.17 3.06 1.14.79 0 1.68-.14 1.79-1.15s-.65-1-1.4-1.19c-2.4-.53-2.8-1.34-1.92-3.7.33-.88.72-1.74 1.12-2.69a4.41 4.41 0 012.63 1.88c.54.62 1.16 1.3 2 .63s.29-1.56-.26-2.27a10.13 10.13 0 00-3.2-2.57c1.84-3.26 3.64-6.4 6.38-8.87 2.1-1.88 2.52-1.76 3.4 1s1.06 5.74 1.64 8.6c.14.7.23 1.4.4 2.09.23.92.37 1.68-.93 1.9a1 1 0 00-.74 1.3 1.07 1.07 0 001.25.84c1.31-.22 1.77.54 2.24 1.57A17.6 17.6 0 00401.8 148a8.51 8.51 0 012.36 1.94 8.28 8.28 0 002.38 1.94c2.29 1.31 3.61 1 5.08-1.25a2.12 2.12 0 01.12-.2c.69-.87 1.37-2 2.65-1.56s1.1 1.6 1.18 2.62a12.26 12.26 0 01-1.48 7.31 6.75 6.75 0 01-2 2.3c-1.29.87-2.16.78-3.25-.4-.58-.62-1.16-1.12-2-.73a1.6 1.6 0 00-1 1.92 2.09 2.09 0 01-.3 1.57c-2.61 4.48-5.7 8.46-10.23 11.28-7 4.35-17.69.2-19.63-7.58a43 43 0 01-.71-13.43A59.1 59.1 0 01377 141.35zM126.92 144a32.84 32.84 0 00-3.64 10.48c-2.89-2.6-5.61-4.89-8.14-7.36a77.14 77.14 0 00-18.35-12.9 2.42 2.42 0 01-1.51-2.74 62.48 62.48 0 011.29-7.7 1.53 1.53 0 01.9-1.25 9.49 9.49 0 006.06-9.07c0-.21 0-.32.48-.32 2.51 4.64 5.68 8.64 11.94 7.81.49.57.22 1.21.21 1.8a44.08 44.08 0 00.48 8.74 15.09 15.09 0 007.88 11.21zM282.76 269.32a29.53 29.53 0 00-12.35-3.69A63.06 63.06 0 01256 262.22a9.79 9.79 0 01-1.73-.74c-1.93-1.07-2.23-2.37-.78-4 1.72-1.91 3.26-3.85 3.41-6.56 0-.75.58-1 1.27-1.17a16.16 16.16 0 005.72-2.73c2.63-1.81 5.12-1.8 7.88 0 5.23 3.35 10.48 6.72 16.27 9.09a1.51 1.51 0 01.68 2 94 94 0 01-4.59 10.5A1.13 1.13 0 01282.76 269.32zM125.74 97.59c.61.35.7 1 .93 1.58a23.59 23.59 0 003.55 5.81 7.82 7.82 0 007.89 3c4.12-.58 8.16-1.56 12.23-2.33a16.18 16.18 0 004.2 4.45c.5.38 1 .76 1.5 1.16.91.75 2.2 1.59 2 2.75s-1.83.88-2.84 1.14c-2 .49-3.92 1.28-5.86 1.68a13 13 0 00-7.33 4.29c-.9 1-2.34.91-3.58.49a35.61 35.61 0 01-7.32-3.28 8.57 8.57 0 01-3.52-4.6 36 36 0 01-1.85-11.4C125.68 100.73 125.21 99.15 125.74 97.59zM127.32 162.43a13.6 13.6 0 01-5.08 3c-.86.37-1.51-.23-2.14-.69a46.41 46.41 0 01-5.74-5.3 92.68 92.68 0 00-16.25-13.37 38.3 38.3 0 00-7.9-3.73c-.92-.31-1-.63-.74-1.52.5-1.49.83-3 1.21-4.57.19-.78.54-1 1.34-.72a26.83 26.83 0 013.64 1.71 91.53 91.53 0 0117.78 12.91C117.92 154.34 122.42 158.55 127.32 162.43z"/><path fill="#feffff" d="M63.1,292.65c-.21-.16-.3-.19-.32-.25-2-5.18-2-5.17,3.22-6.85a93.79,93.79,0,0,1,12.93-2.74q9.67-1.65,19.35-3.25a14.39,14.39,0,0,1,2.35-.23c1.16,0,2.81-.73,3.36.22a8.84,8.84,0,0,1,.7,5.05c-.06.79-.79.56-1.31.56a68,68,0,0,0-7.56.23c-9.5,1-18.93,2.34-28,5.33A31.64,31.64,0,0,0,63.1,292.65Z"/><path fill="#fff" d="M125.23,363.72a16.18,16.18,0,0,1,5.32,3.46,29,29,0,0,0,11.7,6.46c1,.25,1.06.7.93,1.5q-1,6.19-2,12.39a1.68,1.68,0,0,1-.45,1,65.39,65.39,0,0,0-5.53,6.24c-.13-2.58-.08-4.59-.37-6.58a40.32,40.32,0,0,0-3.8-12.39c-1.95-3.88-4-7.72-5.94-11.58A.37.37,0,0,1,125.23,363.72Z"/><path fill="#fefefe" d="M105.94,98.1c1.07-1,2.36-.72,3.61-.6,3.11.74,5.44,2.73,7.73,4.79a1.85,1.85,0,0,1,.64,1.44c.13,3.54.39,7.07-.3,10.6-.59,3-2.64,4.14-5.53,2.89a8,8,0,0,1-3.49-3.08,25.44,25.44,0,0,1-3.72-9.86A10,10,0,0,1,105.94,98.1Z"/><path fill="#7d5ca3" d="M434.34,254.29a22.09,22.09,0,0,1-13.61-4.74,17.18,17.18,0,0,1-5.42-6.75,31.46,31.46,0,0,1-2.63-11.93c0-1.74-.07-3.47-.08-5.21,0-.65.12-1.3.95-1.4s1.05.48,1.21,1.15a16.76,16.76,0,0,1,.26,4,30.36,30.36,0,0,0,2,10.87c2.31,6.22,7.12,9.44,13.26,11a15,15,0,0,0,7.26.25,10.09,10.09,0,0,0,4.46-2.06c.68-.6,1.51-1.19,2.24-.29s0,1.66-.62,2.26a12.13,12.13,0,0,1-6.66,2.76C436.08,254.28,435.2,254.25,434.34,254.29Z"/><path fill="#7f5ea4" d="M308.83 264.47a2.07 2.07 0 00-.9 1.33 106.38 106.38 0 01-6.79 14.51 2.65 2.65 0 00-.43 1.33 5.45 5.45 0 00-1.87 2.85c-.48.5-.94 1-1.45 1.51a3.59 3.59 0 01-6.09-3.63c.23-.82.58-1.61.87-2.41 1.45-.53 1.91.64 2.55 1.49a3.23 3.23 0 01-.13.69c-.13.55-.73 1.32.12 1.6s.82-.75 1.16-1.22a6.78 6.78 0 002-3.09 94.93 94.93 0 007.65-16.26c.45-1 .61-2.13 1.07-3.15.21-.65.44-1.29.6-2-1 .38-.26 1.61-1 2.09-1.39.1-2.74.14-3.09-1.67.46-.72.92-1.46 1.39-2.18a5.17 5.17 0 011.41-1.57c1-.65 2.05-1.31 3.27-.55a2.88 2.88 0 011.26 3.08c-.19 1.32-.43 2.63-.65 3.94A4.76 4.76 0 01308.83 264.47zM282.76 269.32a3 3 0 001.09-1.51c1.4-3.18 2.79-6.36 4.2-9.54.32-.74.68-1.46-.05-2.17 1.55-.78 1.84-1.84.93-3.31.09-.52.53-1 .35-1.58-.86-.1-1.11.83-1.79 1a3 3 0 01-2.43-1.26 10.34 10.34 0 012.31-2.62c2.19-1.76 4.51-.95 5.13 1.77a4.75 4.75 0 01-.11 2.77c-.32.85.18 1.27.71 1.72a8.72 8.72 0 00-1.39 3.11q-2.81 6.85-5.94 13.56c-.83.84-1.15 2.06-2.12 2.8-.86.38-1.1 1.29-1.64 1.94a8.07 8.07 0 01-2.77 2.49 3.08 3.08 0 01-4.59-2.39 8.61 8.61 0 01.31-4.18c.2-.64.66-1.29.21-2 1.29.29 2.64.37 3.7 1.31-.16.37-.51.59-.73.91-.63 1-1 2.4-.19 3s1.42-.82 2-1.5c.38-.5.68-1.06 1.3-1.31A5.91 5.91 0 00282.76 269.32z"/><path fill="#7d5ca3" d="M452,169.46a23,23,0,0,1-2.67,9.12,2.29,2.29,0,0,1-.92,1,1.05,1.05,0,0,1-1.64-1,4.84,4.84,0,0,1,.67-2,19.25,19.25,0,0,0,1.78-5.63,12.94,12.94,0,0,0-4.86-12,13.87,13.87,0,0,0-1.5-1.15,14.06,14.06,0,0,1-6.82-11.8,34.88,34.88,0,0,0-.95-7.74c-.21-.72-.15-1.53.7-1.78,1-.29,1.35.49,1.57,1.32a32.23,32.23,0,0,1,.92,5.6c.09,1,.25,2,.29,3.06.17,4.08,2.37,6.91,5.58,9.13a17.77,17.77,0,0,1,5.81,6.13A17,17,0,0,1,452,169.46Z"/><path fill="#7d5ca2" d="M84.93,90.41c.1-5.68,1-11.14,4.24-16a11.68,11.68,0,0,1,2.12-2.53A1.22,1.22,0,0,1,93,71.81a1.15,1.15,0,0,1,.08,1.69c-.18.26-.41.48-.6.73a22.14,22.14,0,0,0-4.79,12.86,47.12,47.12,0,0,0,2.43,19.32c.4,1.11,1,2.16,1.39,3.26.23.61.25,1.29-.51,1.6a1.13,1.13,0,0,1-1.41-.56,15.72,15.72,0,0,1-.92-1.65,37,37,0,0,1-3.25-12.28A37.65,37.65,0,0,1,84.93,90.41Z"/><path fill="#fdfefe" d="M145.74,87.61c-.72.85-1.76.49-2.65.66-3.78.7-7.61,1.15-11.31,2.22-1.52.44-1.86-.32-2.22-1.38-.36-2.82-.25-2.92,2.41-3.89a24.33,24.33,0,0,1,11.36-1,1.45,1.45,0,0,1,1.42,1C145.05,86,145.41,86.82,145.74,87.61Z"/><path fill="#7c5ca2" d="M160.9 69.35c0-.76-.05-1-.07-1.24-.36-3.84-2.41-5.11-6-3.72-.81.31-1.58.72-2.4 1a1.07 1.07 0 01-1.37-.64 1 1 0 01.44-1.23c2.24-1.44 4.61-2.5 7.35-1.87a4.67 4.67 0 013.32 2.45c1.09 2.24 1.75 4.59 1 7.07a17.55 17.55 0 01-3.76 6.23 3 3 0 01-1 .68 1.08 1.08 0 01-1.12-.09 1.18 1.18 0 01-.39-1.28c.16-.74.78-1.17 1.18-1.74C159.41 73.07 160.94 71.31 160.9 69.35zM395.29 122.9c-.06-.74 0-1.5.94-1.62 1.11-.16 1.26.67 1.35 1.51a49.94 49.94 0 001.75 9.77c1.12 3.6 2.86 6.66 6.44 8.36.7.34 1.48.85.93 1.83s-1.33.73-2.1.4a12 12 0 01-6.13-6 32.63 32.63 0 01-2.85-10.71C395.48 125.26 395.4 124.08 395.29 122.9z"/><path fill="#77589c" d="M146,78.34c.78-.06,1.56-.14,2.34-.18a1,1,0,0,1,1.17.89,1.06,1.06,0,0,1-.79,1.27,15.66,15.66,0,0,1-5.78.48,1,1,0,0,1-1-1.1,1.09,1.09,0,0,1,1.05-1.07c1-.13,2-.18,3-.27Z"/><path fill="#f6f7f9" d="M281.21,272.27a8.2,8.2,0,0,1-2.52,3.66c-1,.77-1.61.49-1.74-.74a7.38,7.38,0,0,1,.42-3.25c.29-.82.86-.79,1.5-.77Z"/><path fill="#76579a" d="M99.49,69.08c-.95,0-1.59-.06-1.78-.81s.34-1.31,1.13-1.48a20.29,20.29,0,0,1,4-.62c.59,0,1.15.16,1.31.78s-.32,1.14-1,1.39C101.89,68.84,100.48,68.6,99.49,69.08Z"/><path fill="#785a9e" d="M449.21,246.62a1,1,0,0,1-.75-1.69,21.86,21.86,0,0,1,3-3,1,1,0,0,1,1.7.72C453.17,243.86,450.37,246.66,449.21,246.62Z"/><path fill="#705596" d="M413.5,144.34c-.85,0-2.15-1-2.16-1.8a1.06,1.06,0,0,1,1.16-1.16,2.72,2.72,0,0,1,2.07,1.93A1.16,1.16,0,0,1,413.5,144.34Z"/><path fill="#ededf4" d="M287.49,252.17a3.71,3.71,0,0,1,1-1.55c.32-.3.67-.79,1.17-.47a1.29,1.29,0,0,1,.43,1.27c-.09.69-.16,1.44-1.16,1.37Z"/><path fill="#6a7878" d="M345.87,319.17c-.38-.56.31-1.4-.48-1.85a.66.66,0,0,1,.48-.68c.4-.08.44.29.43.59A3,3,0,0,1,345.87,319.17Z"/><path fill="#3f292f" d="M363.34,194.22a1.58,1.58,0,0,1-.4,1.61c-.09-.33-.1-.7-.43-.91C362.59,194.45,363,194.31,363.34,194.22Z"/><path fill="#3d3e54" d="M219.64,288.76c0-.31-.28-.42-.52-.53.33-.33.79-.65,1.11-.19C220.44,288.33,220,288.66,219.64,288.76Z"/><path fill="#c2e0e1" d="M383.77,179.75l-.47-.08c0-.16,0-.31-.05-.47C383.57,179.24,384.25,179,383.77,179.75Z"/><path fill="#808c8c" d="M125.23,363.72c0,.18-.06.36-.1.53a.45.45,0,0,1-.31-.7C125,363.27,125.16,363.48,125.23,363.72Z"/><path fill="#c2e0e1" d="M383,179.13a.56.56,0,0,1-.7-.32A.59.59,0,0,1,383,179.13Z"/><path fill="#fefefe" d="M149,102.78c-1.89,1.27-4.14,1.41-6.26,1.85s-4.21.59-6.31.9a3.51,3.51,0,0,1-3-1,16.27,16.27,0,0,1-5-8.63c-.35-1.66,0-2.32,1.71-2.71,2.84-.65,5.69-1.2,8.55-1.72,1.94-.36,3.89-.6,5.84-.87A2.9,2.9,0,0,1,147,91a1.28,1.28,0,0,1,.62.66A32,32,0,0,1,149,102.78Z"/><path fill="#030303" d="M149,102.78a30,30,0,0,1-1-6,33.51,33.51,0,0,0-1-5.8,2.44,2.44,0,0,1,3.33,0,7.58,7.58,0,0,1,1.11,6.65c0,1.2.2,2.42-.42,3.56C150.54,102,150.12,102.78,149,102.78Z"/><path fill="#ecebed" d="M151.41,97.58a45.46,45.46,0,0,0-1.11-6.65c.42-.7,1-.59,1.17,0C152,93.16,153,95.4,151.41,97.58Z"/><path fill="#7f5ea5" d="M211.09,29.83a8.27,8.27,0,0,0-2.85-.06,21.5,21.5,0,0,0-.62,5.12,17.47,17.47,0,0,0-9.31-1.7,49.48,49.48,0,0,0,1.31-4.85,47.12,47.12,0,0,0,.34-4.85c2,.73,3.83,1.38,5.65,2.06.38.14.18.55.28.83h0a4.84,4.84,0,0,0,1-3.23,24.51,24.51,0,0,1-6.17-2.39c-.78-.44-1.52-1.41-2.54-.71s-.71,1.68-.74,2.62a4.17,4.17,0,0,0,.05.71,14.5,14.5,0,0,1-1.67,8.69c-1.65,3.25-1.27,3.92,2.32,3.72s6.95.15,9.88,2.43a2.18,2.18,0,0,0,.42.24c1.31.57,2.14,0,2.15-1.45a8.5,8.5,0,0,0-.18-1.41A9.12,9.12,0,0,1,211.09,29.83Z"/><path fill="#020202" d="M222.58,19.05c-.39-.8-1.12-.74-1.84-.72-1.57.05-3.15.13-4.73.12-2.35,0-4.48-.49-6.12-2.47-1-1.23-2.38-.72-2.67.88a10.87,10.87,0,0,0,0,1.89c0,1.48.3,3-.38,4.4-1,.89-.83,2.33-1.68,3.27-1.24,2.62-.72,3.7,1.94,4a11.42,11.42,0,0,0,1.17,0,4.89,4.89,0,0,0,2.8-.59c2.07,0,4,.11,5.59,1.89.76.87,1.81.49,2.19-.62a3,3,0,0,0,.15-1.16,12.89,12.89,0,0,1,3.16-9.16A1.49,1.49,0,0,0,222.58,19.05Zm-13.21,7.82a.69.69,0,0,1-.73-.41,2,2,0,0,1,.2-.42,3.39,3.39,0,0,0,.45,0c.3,0,.66,0,.71.35S209.65,26.83,209.37,26.87Zm7.21.43c-.05.6-.45.72-1,.57-.83-.22-1.68-.38-2.52-.56.73-2.25,0-3.34-2.44-3.26-.74,0-1.39-.4-1-1.38a14.88,14.88,0,0,1,.25-3.13c2.72,1.46,5.7,1.51,8.81,1.63A18.8,18.8,0,0,0,216.58,27.3Z"/><path fill="#8261a3" d="M212.27,23.6c-.61,0-1.23,0-1.85,0s-.68-.5-.85-.9c-.25,1.12-.49,2.24-.73,3.37a3.39,3.39,0,0,0,.45,0c.3,0,.66,0,.71.35s-.35.42-.63.46a.69.69,0,0,1-.73-.41h0c-.53.62-.07.84.43.86,1.32,0,2.65,0,4,0,.22-.32.46-.63.66-1C214.69,24.71,214.2,23.75,212.27,23.6Z"/><path fill="#7f5ea5" d="M412.7,54.5c.08,1.08-.58,1.92-.79,3.2a11.55,11.55,0,0,0-8.07-2.65,20.53,20.53,0,0,0,4.38-7.64c1.24,1.28,2.71,1.93,3.63,3.24h0a4.89,4.89,0,0,0,1.85-2.29A9.88,9.88,0,0,1,409,43.57a1.32,1.32,0,0,0-1.44-1c-.74.1-1,.69-1.2,1.31a5,5,0,0,0-.21,1.15,11.58,11.58,0,0,1-2.77,6.65c-.73.92-1.57,1.76-2.38,2.62-.64.68-1.52,1.29-1.11,2.4s1.49.94,2.42.94,1.89,0,2.84,0a6.64,6.64,0,0,1,5.63,2.92c.19.25.35.52.53.78a1.52,1.52,0,0,0,1.6.77A1.46,1.46,0,0,0,414,60.78c0-.31.06-.63.09-.94a10.37,10.37,0,0,1,1.4-4.47A5.38,5.38,0,0,0,412.7,54.5Z"/><path fill="#020202" d="M427.12,48.91a1.55,1.55,0,0,0-1.46-1.32c-.78-.14-1.56-.25-2.32-.44-2-.5-4-1.16-4.8-3.38-.25-.69-.61-1.33-1.48-1.3-1,0-1.19.91-1.46,1.63-.54,1.46-.76,3.06-1.9,4.26a29.7,29.7,0,0,0-2.55,2.19c-.89.78-1.92,1.57-1.59,2.92s1.69,1.42,2.85,1.59,2,.55,3.12.31a5.18,5.18,0,0,1,3,2.16c.5.61,1,1.36,1.91,1.07s1.12-1,1.24-1.85a7.72,7.72,0,0,1,2.52-4.7,19.76,19.76,0,0,1,2.07-1.57A1.61,1.61,0,0,0,427.12,48.91Zm-7.44,5.45c-.9.19-1.25-.57-1.83-.88,1.16-2.09-.25-3-1.77-3.82.34-.87.68-1.73,1.08-2.78a14.09,14.09,0,0,0,5.61,2.78C421.52,51.25,420.21,52.57,419.68,54.36Z"/><path fill="#7f5fa4" d="M416.08,49.66a16.78,16.78,0,0,1,2,.47c1.52.52,1.67,1.3.5,2.49-.27.27-.62.46-.74.86l-3.61-1.42c.11-.17.46-.2.32-.52A8.59,8.59,0,0,1,416.08,49.66Z"/><path fill="#9ebbcc" d="M414.56,51.54l.28.31-.6.21C414.08,51.72,414.31,51.62,414.56,51.54Z"/><path fill="#8462a2" d="M56.38,132.64c-.72.09-1.33.25-.6,1.09.13.16.42.17.64.26,1.85.7,1.85.7,1.48,2.84a10.13,10.13,0,0,0-3.32-.39c.1-1.28.45-2.37.51-3.51C55.14,132.05,55.78,132,56.38,132.64Z"/><path fill="#dab9fd" d="M212,217.12c2.35,2.73,1.94,6.08-.91,7.53-3.24,1.65-6.48-.63-6.62-4.64.21-.29.13-.7.4-1h0c2.26-.11,4.48-.34,6.25-2C211.4,216.82,211.76,216.93,212,217.12Z"/><path fill="#7e60a6" d="M212,217.12a2,2,0,0,0-1.15.72,4.91,4.91,0,0,1-6,1.2,3.21,3.21,0,0,1,1.85-2.41,2.34,2.34,0,0,0,2-.49A3.7,3.7,0,0,1,212,217.12Z"/><path fill="#caacee" d="M204.46,214.84a3.11,3.11,0,0,1,.11-.69c1-2.51,2.54-2.8,4.56-.88a14.05,14.05,0,0,0-3.69,1.12,3,3,0,0,0-.54.32A.64.64,0,0,1,204.46,214.84Z"/><path fill="#ac99d8" d="M208.77,216.14c-.51.8-1,1.53-2,.49A2.12,2.12,0,0,1,208.77,216.14Z"/><path fill="#7e60a6" d="M204.91,219.05a1,1,0,0,1-.4,1C204.38,219.58,204.38,219.2,204.91,219.05Z"/><path fill="#805ea4" d="M204.9,214.71a.43.43,0,0,1,.54-.32A.43.43,0,0,1,204.9,214.71Z"/><path fill="#d6b6f9" d="M210.12,116.59c1.45,1.91,1.35,3.68-.27,4.8s-3.42.54-4.5-1.49C207.17,119.12,208.26,117.3,210.12,116.59Z"/><path fill="#795ca0" d="M210.12,116.59c-1.23,1.62-2.45,3.26-4.77,3.31-.78-1.08-.25-2,.39-2.86.45-.22.93-.39,1-1A2.59,2.59,0,0,1,210.12,116.59Z"/><path fill="#bfa1e1" d="M203.36,115.55c-.26-2.16,1-3.08,3-2.23A14.57,14.57,0,0,0,203.36,115.55Z"/><path fill="#b19fe0" d="M206.79,116.07c.23.82.13.91-1,1A1.35,1.35,0,0,1,206.79,116.07Z"/><path fill="#020202" d="M144.36,347.49c0,2.43,0,4.49,0,6.54,0,.71,0,1.52-.93,1.66s-1.35-.65-1.49-1.46a8.5,8.5,0,0,1-.09-1.89c.31-7.92-.92-15.74-1.66-23.59-.31-3.3-.54-6.61-.81-9.92,0-.23,0-.47,0-.71a1.11,1.11,0,0,1,.87-1.23,1,1,0,0,1,1.23.84,7.6,7.6,0,0,1,.31,1.62c.48,7.17,1.51,14.28,2.28,21.42C144.29,343.12,144.27,345.5,144.36,347.49Z"/><path fill="#030303" d="M69.91,171.63a1.05,1.05,0,0,1-.84-1.57,8.86,8.86,0,0,1,1.12-1.8,23.7,23.7,0,0,1,5.61-5,47.16,47.16,0,0,0,6.85-5.44,17,17,0,0,0,3.27-4.32,6.22,6.22,0,0,1,.74-1.21,1.11,1.11,0,0,1,1.47-.36,1.17,1.17,0,0,1,.59,1.41A8.5,8.5,0,0,1,88,155a20.39,20.39,0,0,1-5.21,6.07c-1.52,1.25-3.1,2.44-4.74,3.55a23.78,23.78,0,0,0-6.8,6.15A1.47,1.47,0,0,1,69.91,171.63Z"/><path fill="#040303" d="M76.52,351.45c0,.8-.67,1.14-1.38,1.27a21.79,21.79,0,0,0-4.26,1.36,30.38,30.38,0,0,0-9.81,6.44c-.28.27-.54.57-.84.82a1,1,0,0,1-1.48.14,1.13,1.13,0,0,1-.13-1.68,9.29,9.29,0,0,1,.92-1.07,33.72,33.72,0,0,1,12.95-8,8.29,8.29,0,0,1,2.77-.52A1.16,1.16,0,0,1,76.52,351.45Z"/><path fill="#090808" d="M141,308.44c0,.93,0,1.59-.86,1.73a1.17,1.17,0,0,1-1.38-1,27.08,27.08,0,0,1-.86-5.37c0-.56.15-1.14.85-1.23a1.1,1.1,0,0,1,1.32,1C140.38,305.29,140.69,307,141,308.44Z"/><path fill="#121010" d="M65.49,174.41a.91.91,0,0,1,.86,1.07,11.08,11.08,0,0,1-1.27,4,1,1,0,0,1-1.22.44,1,1,0,0,1-.75-1.06A12.21,12.21,0,0,1,64.23,175,1.16,1.16,0,0,1,65.49,174.41Z"/><path fill="#181616" d="M83.21,351.83c-1.18.15-1.78-.07-1.93-.78s.41-1.33,1.15-1.48a2.4,2.4,0,0,1,2.22.22.89.89,0,0,1,.24,1.06A1.74,1.74,0,0,1,83.21,351.83Z"/><path fill="#010000" d="M349.67,153.11a38.92,38.92,0,0,1,3.45,9c3.5,16.41-9.18,32.47-25.95,32.77a27.32,27.32,0,0,1-5.79-54.17c8.92-1.54,16.71.86,23.5,6.74A9.75,9.75,0,0,1,349.67,153.11Z"/><path fill="#030303" d="M306 135.27c3.43-1.07 6.22.32 6.73 3.39a4.68 4.68 0 01-1.76 4.84 4.5 4.5 0 01-5.51.1c-3.32-1.78-3.31-5.8 0-8l.08 0A.73.73 0 01306 135.27zM352.39 144.14a5.42 5.42 0 013-.36 4.75 4.75 0 013.63 5.49 4.7 4.7 0 01-5.47 3.63 11 11 0 01-1.12-.33c-2-.78-3.24-2.27-3.12-4.2S350.16 144.67 352.39 144.14z"/><path fill="#7e5da2" d="M352.39,144.14a4.73,4.73,0,0,0,0,8.43l-2.74.54a53.65,53.65,0,0,0-4.79-5.64c.39-.2.49-.6.68-.94,1.43-2.47,3.13-3.2,5.9-2.58Z"/><path fill="#805fa4" d="M305.43 135.55c-2.63 3.13-2.63 5.2 0 8-.47 0-.95.06-1.41.12a4.27 4.27 0 11.74-8.38A4.89 4.89 0 01305.43 135.55zM306 135.27c0 .31-.2.36-.45.25C305.59 135.31 305.72 135.19 306 135.27z"/><path fill="#020202" d="M353.13,331.64c.15-7.35.93-14.66,1.46-22,.11-1.5.15-3,.23-4.5,0-.87.34-1.64,1.36-1.52s1,.89,1,1.65c-.21,3.79-.35,7.58-.62,11.36a205.88,205.88,0,0,0-.79,21.07,17.74,17.74,0,0,0,1.7,8,2.79,2.79,0,0,1,.33,1.12,1.09,1.09,0,0,1-.7,1.12,1.2,1.2,0,0,1-1.13-.12,3.2,3.2,0,0,1-1-1.32,15.41,15.41,0,0,1-1.55-5.68A67.74,67.74,0,0,1,353.13,331.64Z"/><path fill="#040404" d="M415.59,321.42c0-.81,0-1.13,0-1.44.05-.68.27-1.28,1.05-1.34.94-.07,1.18.58,1.26,1.36.28,2.82.55,5.64.86,8.45.4,3.68.83,7.36,1.24,11a4.52,4.52,0,0,1,.05,1.16,1.07,1.07,0,0,1-.93.94,1.08,1.08,0,0,1-1.2-.54,3.73,3.73,0,0,1-.44-1.33C416.82,333.46,416.18,327.19,415.59,321.42Z"/><path fill="#100c0c" d="M365.9,354.25a4.15,4.15,0,0,1-2.47-1.26,1.17,1.17,0,0,1-.16-1.68,1,1,0,0,1,1.46-.21,5.12,5.12,0,0,0,2.13.87,1,1,0,0,1,.93,1.35C367.61,354,367.05,354.28,365.9,354.25Z"/><path fill="#1b1b1b" d="M421.19,348.47c0,1-.19,1.82-1.17,1.86s-1.17-.67-1.21-1.46c0-.24-.05-.47-.06-.71,0-.75,0-1.48,1-1.58s1.18.61,1.37,1.32A3.16,3.16,0,0,1,421.19,348.47Z"/><path fill="#7f5ea4" d="M293.67,254.72a1.48,1.48,0,0,0,1-.94,5.17,5.17,0,0,1,1.38-1.89,3,3,0,0,1,3.23-.84,2.74,2.74,0,0,1,1.59,2.89,7.84,7.84,0,0,1-.53,3.46c.69,1.26-.23,2.3-.44,3.44-1.59,5.4-4.27,10.35-6.48,15.49a10.88,10.88,0,0,0-2.23,2.94c-1-.08-1.28.76-1.81,1.3-1.56,1.58-3.27,2.09-4.6,1.34s-1.77-2.7-1-4.88a8.62,8.62,0,0,0,.91-2.4,2.15,2.15,0,0,1,2.55,1.71c-.06.78-.8,1.37-.62,2.25.91.06,1.06-.77,1.51-1.24a10.85,10.85,0,0,0,1.81-3.57c3.14-4.32,4.94-9.23,6.34-14.32a10.13,10.13,0,0,0,1.11-3.52c-.06-.14.33-.4,0-.38-.17,0-.23.54-.51.72C295.37,256.5,294.17,256.3,293.67,254.72Z"/><path fill="#040304" d="M291.15,279.27a2.49,2.49,0,0,1,1.9-2.86,7.42,7.42,0,0,1,4.9,3.38c.05,1.39-.39,2.45-1.86,2.84-.94.34-1.29-.26-1.54-1a7.6,7.6,0,0,0-2.38-1.67Z"/><path fill="#050304" d="M289.88,274.13c.54,1.51-.58,2.3-1.4,3.22-.75,0-1.32-.18-1.48-1a5.83,5.83,0,0,0-2.39-1.71l-1-.61c.27-1.19.56-2.37,1.88-2.88A5.81,5.81,0,0,1,289.88,274.13Z"/><path fill="#040404" d="M108.15,398.52a12.51,12.51,0,0,1-.29,4.22,3.06,3.06,0,0,1-.73,1.46,1.66,1.66,0,0,1-2,.35,1.33,1.33,0,0,1-.77-1.58c.93-3.76.51-7.5,0-11.26-.16-1.22.36-2.07,1.24-2.21a1.79,1.79,0,0,1,1.9,1.72A40.49,40.49,0,0,1,108.15,398.52Z"/><path fill="#050505" d="M122.8,401.58a17.48,17.48,0,0,1-.3,3.75c-.29,1.32-1.06,2-2,1.9s-1.45-1-1.25-2.38a24.36,24.36,0,0,0-.2-8.43,7.76,7.76,0,0,1-.16-1.86,1.26,1.26,0,0,1,1-1.2,1.33,1.33,0,0,1,1.62.62,4.57,4.57,0,0,1,.48,1.31A25.18,25.18,0,0,1,122.8,401.58Z"/><path fill="#040404" d="M114.76,399.92a7.78,7.78,0,0,1-.27,2.57,1.53,1.53,0,0,1-1.78,1.18,1.33,1.33,0,0,1-1.26-1.46,41.13,41.13,0,0,0-.64-8.44A1.39,1.39,0,0,1,112,392c1-.17,1.62.45,1.84,1.4A42.69,42.69,0,0,1,114.76,399.92Z"/><path fill="#070707" d="M128,400.93a7.19,7.19,0,0,1-.53,3.27c-.38.83-1,1.48-2,1.13a1.5,1.5,0,0,1-.93-1.92,16.9,16.9,0,0,0,0-6.1c-.16-.95.11-1.79,1.19-2s1.62.49,1.82,1.42A15.22,15.22,0,0,1,128,400.93Z"/><path fill="#090909" d="M63,380.59c-.07-.73-.21-1.59-.22-2.45a1.09,1.09,0,0,1,1.14-1.22,1.07,1.07,0,0,1,1.11,1c.34,2.64.67,5.29,1,7.93a1.06,1.06,0,0,1-1,1.33c-.76.06-1.14-.5-1.3-1.12A24.39,24.39,0,0,1,63,380.59Z"/><path fill="#080808" d="M73.84,300.56c0-.85.14-1.39.79-1.51a1.06,1.06,0,0,1,1.31.74,20,20,0,0,0,2.38,4.61,1,1,0,0,1-.24,1.47,1.12,1.12,0,0,1-1.52-.15A10.76,10.76,0,0,1,73.84,300.56Z"/><path fill="#151313" d="M67.78,396.73a1.07,1.07,0,0,1-1,1.15c-.81.14-1.46-.68-1.57-1.92-.06-.78.11-1.42,1-1.48C67.05,394.44,67.73,395.39,67.78,396.73Z"/><path fill="#010102" d="M100.82,175.43a12.69,12.69,0,0,1,5.25,1.25,1.88,1.88,0,0,1,1.17,1.1,1,1,0,0,1-1.08,1.39,3.52,3.52,0,0,1-.88-.3c-5.11-2.22-9.58-.61-13.7,2.45-3.32,2.46-5.36,5.94-7,9.65-.62,1.37-1.21,2.74-1.85,4.1a1.2,1.2,0,0,1-1.75.67,1.12,1.12,0,0,1-.51-1.61c2.39-6,5-11.82,10.6-15.59A18.67,18.67,0,0,1,100.82,175.43Z"/><path fill="#020102" d="M98.63,262.07c.06-.2.16-.58.27-1,1.87-6.44,4.67-12.53,7-18.78a3.93,3.93,0,0,1,.57-1,1,1,0,0,1,1-.36,1,1,0,0,1,.77,1.06,5.86,5.86,0,0,1-.38,1.59c-2.28,6.21-4.89,12.29-6.75,18.64a4.86,4.86,0,0,1-.25.67c-.28.6-.68,1.14-1.42,1C98.65,263.74,98.56,263,98.63,262.07Z"/><path fill="#030204" d="M73.07,216.22c.57-1.85,1.25-4.1,2-6.34.39-1.2.86-2.37,1.32-3.54.3-.75.69-1.64,1.65-1.3s.79,1.36.5,2.21c-.24.67-.51,1.32-.73,2-.7,2.25-1.38,4.51-2.07,6.76-.12.38-.21.76-.34,1.13-.24.72-.64,1.37-1.49,1.2S73,217.4,73.07,216.22Z"/><path fill="#040305" d="M95.23,273.15c.32-1.19.6-2.4,1-3.58a1.12,1.12,0,0,1,1.43-.87c.74.21.85.81.71,1.5-.24,1.14-.44,2.29-.72,3.42-.15.64-.52,1.21-1.27,1.13S95.3,274,95.23,273.15Z"/><path fill="#010101" d="M308.83,264.47a4.76,4.76,0,0,1,.95-3.3c4.15,1.48,8.35,2.82,12.42,4.48,5.92,2.42,11.07,1.27,15.73-2.86l1.78-1.55a2.44,2.44,0,0,1,1.47,2.86,33.17,33.17,0,0,1-4.65,3.6,14.33,14.33,0,0,1-13.26,1.82C318.43,267.92,313.64,266.16,308.83,264.47Z"/><path fill="#040304" d="M299.34,260.7l1-3.3,2.8,1.05a4.19,4.19,0,0,0,3.25,1.34.36.36,0,0,1,.54.15,4.32,4.32,0,0,1-1,3.28A8.87,8.87,0,0,1,299.34,260.7Z"/><path fill="#070507" d="M293.67,254.72a5,5,0,0,0,3.19,1.29.35.35,0,0,1,.57.17c.65,1.38.11,2.41-.95,3.29a5.69,5.69,0,0,1-5.22-2c.18-.76.38-1.5.56-2.26s.75-.65,1.28-.68Z"/><path fill="#060606" d="M420.4,385.66c-.72,3.86-1.41,7.72-2.16,11.58-.14.71-.56,1.35-1.46,1.21s-1-.95-.85-1.65c.23-1.56.55-3.09.83-4.64.4-2.24.81-4.48,1.2-6.72.15-.82.37-1.67,1.37-1.6S420.37,384.82,420.4,385.66Z"/><path fill="#151616" d="M421.84,376.06c0,.25-.06.64-.12,1-.09.7-.44,1.24-1.19,1.18s-1-.63-1.12-1.31a5.13,5.13,0,0,1,.24-1.86c.17-.7.55-1.12,1.31-1s.91.74.92,1.39A6,6,0,0,1,421.84,376.06Z"/><path fill="#020102" d="M366.65,199a2,2,0,0,1,.05-.24c2.27-5.38,4.26-10.94,9.38-14.49a6.92,6.92,0,0,1,6.25-1.26,3.62,3.62,0,0,1,2,1.26,1.07,1.07,0,0,1,0,1.5.93.93,0,0,1-1.27.25c-2.92-2-5-.37-7.11,1.53a18.46,18.46,0,0,0-4,5.81c-.77,1.64-1.5,3.3-2.25,5-.23.5-.43,1-.69,1.51a1.27,1.27,0,0,1-1.57.73C366.6,200.36,366.58,199.7,366.65,199Z"/><path fill="#040304" d="M371.72,257.8a1.14,1.14,0,0,1-1.2-1,2.31,2.31,0,0,1,.26-1.36c1-2.38,2.07-4.76,3.12-7.13a3.72,3.72,0,0,1,.49-.81,1.1,1.1,0,0,1,1.45-.41,1,1,0,0,1,.5,1.39q-1.79,4.25-3.59,8.47A1.6,1.6,0,0,1,371.72,257.8Z"/><path fill="#050306" d="M362,209c.34-1,.75-2.37,1.26-3.69a1.15,1.15,0,0,1,1.48-.85c.73.25.85.88.66,1.56-.37,1.29-.75,2.57-1.15,3.85-.23.75-.67,1.33-1.54,1.06S361.91,210,362,209Z"/><path fill="#0c080e" d="M366.65,266.77a1.13,1.13,0,0,1-.92-1.45c.17-1.07,1.47-2.64,2.15-2.55a1,1,0,0,1,1,1.31,4,4,0,0,1-1.65,2.5A2.18,2.18,0,0,1,366.65,266.77Z"/><path fill="#140f0f" d="M332.16,295a4.53,4.53,0,0,1-2.39-.71,1.14,1.14,0,0,1-.55-1.59,1.08,1.08,0,0,1,1.39-.54l2,.52c.72.19,1.41.48,1.22,1.39S333,295,332.16,295Z"/><path fill="#020101" d="M376.68,160.33c0-1.88.91-2.77,2.54-2.41,3.38.73,6.7,1.74,10.1,2.46,1.6.33,2.13,1.47,1.38,2.86a20.2,20.2,0,0,1-4.43,6.09c-3.19,2.68-6.56,1.81-8.14-2.05C377.18,165,377.13,162.51,376.68,160.33Z"/><path fill="#070606" d="M382.28,151.18a7.74,7.74,0,0,1,3.6,1.78,1.11,1.11,0,0,1,.34,1.47,1.06,1.06,0,0,1-1.39.57,26.62,26.62,0,0,1-4.14-2.06,2.53,2.53,0,0,1-.39-3.44,48,48,0,0,1,3.12-4.4,1.08,1.08,0,0,1,1.66-.24,1,1,0,0,1,.2,1.47c-.51.79-1,1.58-1.55,2.36A6.4,6.4,0,0,0,382.28,151.18Z"/><path fill="#100c0c" d="M394.07,147.17a4.4,4.4,0,0,1-3.72-1.79c-.42-.62-.7-1.3-.08-1.92s1.32-.37,1.8.28a2.35,2.35,0,0,0,2.48,1c.95-.14,1.87,0,1.89,1.13,0,1-.9,1.16-1.71,1.25Z"/><path fill="#100f0f" d="M396.28,163.14a3.61,3.61,0,0,1-1.41,2.82,1.11,1.11,0,0,1-1.72-1.32c.26-.64.81-1.15.84-1.9s.27-1.5,1.18-1.4S396.23,162.32,396.28,163.14Z"/><path fill="#353333" d="M411.64,155.17c.08-1.21.74-2.1,1.52-2s1.08.77,1,1.54c-.05,1.14-.74,2-1.56,2S411.57,156.13,411.64,155.17Z"/><path fill="#161313" d="M410.79,156c-.07.83,0,1.85-1.13,2-1,.1-1.26-.67-1.27-1.53,0-1.13.5-1.91,1.29-1.87S410.81,155.16,410.79,156Z"/><path fill="#0b0909" d="M109.13,107.08a3.72,3.72,0,0,1,1-2.71,1.65,1.65,0,0,1,2.49-.16c.62.81.61,1.61-.44,2.1-.84.39-.61,1-.34,1.57s.49,1,.69,1.49a1.09,1.09,0,0,1-.39,1.46,1.19,1.19,0,0,1-1.65-.41A6.73,6.73,0,0,1,109.13,107.08Z"/><path fill="#1b1616" d="M117.14,109.29a1.16,1.16,0,0,1-1.2,1.28c-.72,0-1.33-.92-1.3-1.92,0-.61.27-1.05.93-1.12C116.42,107.43,117.11,108.16,117.14,109.29Z"/><path fill="#fff" d="M299.34,260.7l6.59,2.52c-.16,1.77-1.08,3.27-1.7,4.88a96.92,96.92,0,0,1-5,10.43c-.29.54-.5,1.18-1.27,1.26l-4.9-3.38a1.38,1.38,0,0,1,.1-1.52A80.56,80.56,0,0,0,299.34,260.7Z"/><path fill="#f2f1f6" d="M294.55,281.63l1.54,1c0,1.27-.59,2.13-1.46,2.18a1,1,0,0,1-1.09-1A2,2,0,0,1,294.55,281.63Z"/><path fill="#e9e7ef" d="M306.89,259.94l-.54-.15c-.13-.34-.73-.51-.47-1a4.21,4.21,0,0,1,1.89-2.19C308,258,307.88,259.08,306.89,259.94Z"/><path fill="#fefefe" d="M291.26,257.49l5.22,2a1.75,1.75,0,0,1,0,1.56,69.41,69.41,0,0,1-5.1,11.85c-.35.61-.57,1.33-1.48,1.25l-4.35-3c0-.3-.16-.67,0-.89C287.68,266.11,289.28,261.71,291.26,257.49Z"/><path fill="#050505" d="M141.86,92.6a8.17,8.17,0,0,1,2.95.53,1.17,1.17,0,0,1,.75,1.33,1.08,1.08,0,0,1-1.22.88c-.63,0-1.25-.17-1.88-.2-3.24-.16-6.12.52-8,3.48a3,3,0,0,1-.59.73,1.05,1.05,0,0,1-1.73-1,3.61,3.61,0,0,1,.81-1.68C135.12,93.64,138.3,92.75,141.86,92.6Z"/><path fill="#0c0909" d="M141.53,98.54a5,5,0,0,1,3.53,1.12,1.15,1.15,0,0,1,.31,1.67,1,1,0,0,1-1.44.34c-1.6-1.16-2.89-.71-4.15.59a1.12,1.12,0,0,1-1.83,0c-.53-.64-.17-1.2.26-1.68A5.33,5.33,0,0,1,141.53,98.54Z"/><path fill="#fff" d="M351.1,167.65a24.77,24.77,0,1,1-49.53-.1c0-13.64,11.1-24.91,24.7-24.75A24.6,24.6,0,0,1,351.1,167.65Z"/><path fill="#eff1f4" d="M307.81,137.46c1.83.26,2.55,1,2.43,2.36s-.95,2-2.8,1.83A5,5,0,0,1,307.81,137.46Z"/><path fill="#745996" d="M307.81,137.46c-.07,1.4.31,2.84-.37,4.19C305.42,140,305.53,138.71,307.81,137.46Z"/><path fill="#eeeef2" d="M354.79,146.37a1.87,1.87,0,0,1,1.66,2.36,1.73,1.73,0,0,1-2.18,1.56C353.63,148.87,353,147.46,354.79,146.37Z"/><path fill="#7d5ea2" d="M354.79,146.37c-.9,1.21-.09,2.65-.52,3.92a1.8,1.8,0,0,1-1.82-2.15C352.5,147.06,353.25,146.54,354.79,146.37Z"/><path fill="#ededf4" d="M287,276.34l1.48,1a3.56,3.56,0,0,1-1.41,2.06.87.87,0,0,1-1.05.26.78.78,0,0,1-.34-1C286,277.8,286,276.78,287,276.34Z"/><path fill="#edeaef" d="M297.43,256.18l-.57-.17c-.37-1.11.25-1.72,1.3-2.51C298.35,254.71,298.78,255.65,297.43,256.18Z"/><path fill="#f5f7f7" d="M387.94,162.68c-.93,1.77-.94,1.8-2.67,1.2-1.91-.65-3.52.09-5.16,1.05-.95-1.3-.42-2.9-1.31-4.46a20.63,20.63,0,0,1,4.84,1Z"/><path fill="#010101" d="M317.34,148.48a2.29,2.29,0,0,1,1.78-.42c5.66.48,11.27,1.4,16.88,2.32,3.22.52,4.41,2.4,3.12,5.45-2,4.69-5.26,8.21-10.4,9.55-.74.19-1.33.25-1.4,1.21-.4,5.52-1.71,10.91-2.34,16.39,0,.39,0,.77-.08,1.36a13.74,13.74,0,0,0,7.79-3.16c2.7-2.31,5.34-4.69,7-8,.74-1.47,1.63-1.91,2.32-1.4,1.24.9.39,1.83-.12,2.66-3.3,5.38-7.43,9.78-13.63,11.83a8.7,8.7,0,0,1-8.32-1.14A30.61,30.61,0,0,1,308.61,169a1.9,1.9,0,0,1-.13-1.15,1.18,1.18,0,0,1,1-.9,1,1,0,0,1,1,.53,11,11,0,0,1,.68,1.76,30.3,30.3,0,0,0,7.68,11.8,10,10,0,0,0,3.4,2.41,44.48,44.48,0,0,0,1-5.74,102,102,0,0,0,1.75-11c.05-.64.45-1.46-.56-1.8-2.26-.36-3.48-2.06-4.54-3.79a29.75,29.75,0,0,1-3.69-9.91C315.93,150.06,316,149,317.34,148.48Z"/><path fill="#7e5ea4" d="M317.34,148.48a2.88,2.88,0,0,0-.72,2.14,29,29,0,0,0,4.52,11.3,10.36,10.36,0,0,0,3.25,3c-3.26.37-5.47-1.19-7.39-3.68-2.68-3.47-3.25-7.61-4.18-11.65-.22-.92.44-1.32,1.23-1.32C315.15,148.27,316.25,148.4,317.34,148.48Z"/><path fill="#7f5da4" d="M330.14,162.23c-2.69,1.29-4.48,1.05-6.28-1-2.54-2.93-3.67-6.51-4.58-10.28a7.92,7.92,0,0,1,4,0c4.19.58,8.37,1.28,12.55,1.94.14,0,.26.17.39.25C334.34,156.2,332.72,159.53,330.14,162.23Z"/><path fill="#f7f6f8" d="M330.14,162.23c-.51-.3-.3-.6,0-.92a22.55,22.55,0,0,0,4.69-7.34c.3-.81.84-.81,1.44-.91,1.27.67.6,1.64.28,2.43a14.49,14.49,0,0,1-3.87,5A8.46,8.46,0,0,1,330.14,162.23Z"/></g></g></svg>