<svg xmlns="http://www.w3.org/2000/svg" viewBox="0 0 493.8 507.77"><g data-name="Layer 2"><g data-name="Layer 1"><path fill="#fba0a9" d="M142.08,71.58c7.64-5.29,15-11,22.11-16.91C168.58,51,172.9,47.32,177.56,44a125.41,125.41,0,0,1,19.19-11.35,118.62,118.62,0,0,1,15.62-6.1A114.34,114.34,0,0,1,225,23.1a1.25,1.25,0,0,0,1-1c.66,0,.87.49,1,1a7.05,7.05,0,0,0,2.7,4.14,11.37,11.37,0,0,1,3.85,6.87c.56,2.89,1.3,5.75,3.23,8.11a10.71,10.71,0,0,0,4.39,3.56c.35-1-.31-1.43-.81-1.79a13.14,13.14,0,0,1-5.19-8.92c-.65-3.87-2-7.23-5.12-9.78-1-.8-2.13-1.87-.93-3.41,2.42-.84,4.84-1.61,7.46-1.19l1.52-.09c.64-.42,1.46,0,2.09-.41l.91,0a.31.31,0,0,1,.5,0l.54-.05c.78-.46,1.75.12,2.52-.42v0a.29.29,0,0,1,.49,0l1-.07c1.15-.52,2.44.17,3.58-.42l2.46-.06a1.43,1.43,0,0,1,1.48,0h.55c2.17-.53,4.41.21,6.56-.43h.95c.79.62,1.68-.1,2.5.17,1.05.48,17.45,0,17.89.42,1,1.48,2.68.06,3.82.93h0c1.29.68,2.77-.2,4.06.51a.67.67,0,0,0,.42,0c.45.39,1.09.08,1.56.41l2.46.1c.46.39,1.13,0,1.59.45l.92.06c.8.54,1.83-.13,2.62.48l.88,0c.35.21.78.17,1.11.41l1,.08c.46.41,1.15,0,1.59.48l.94,0c.31.25.74.18,1.06.42l1,.06c.41.46,1.07.08,1.51.45a.7.7,0,0,0,.45.08,1.44,1.44,0,0,1,.88.76,20.14,20.14,0,0,1-3.43,9.82c-.86,1.33-1.9,2.55-2.83,3.84a7.73,7.73,0,0,0-1.53,6.88c1,3.33.07,6-2.15,8.56a11.59,11.59,0,0,0-2.93,10c.37,2.24-.33,4.49-.76,6.71-.11.61-.62,1.2-.05,2a4.26,4.26,0,0,0,1.46-3.06,27.91,27.91,0,0,0,.65-6.75,10.65,10.65,0,0,1,3-8.5,8.47,8.47,0,0,0,2.22-8.09,8.74,8.74,0,0,1,2.08-8.19,23.12,23.12,0,0,0,5.09-9.71,5.9,5.9,0,0,1,1.63-3.34.65.65,0,0,1,.75,0h0c1.14.42,2.42.35,3.5,1a.68.68,0,0,0,.42.05c.32.23.76.18,1.08.42a.93.93,0,0,0,.47.07c.59.53,1.48-.08,2.06.53h0c1.16.55,2.47.69,3.55,1.42l.91.1c.35.22.82.16,1.12.49h0c.29.27.74.2,1,.48h0c.39.48,1.1.06,1.5.52h0c.4.46,1.13,0,1.51.54l0,0,.53.45a.67.67,0,0,0,.44.06c.32.26.79.18,1.08.5h0c.28.29.74.21,1,.5h0c.27.3.72.2,1,.46a.7.7,0,0,0,.43.06c.21.12.39.3.59.44l0,0c.36.53,1.11,0,1.46.58l0,0a6.33,6.33,0,0,1,.56.47h0c.24.33.71.21,1,.49a.82.82,0,0,0,.41.05,2.69,2.69,0,0,1,.6.45.62.62,0,0,0,.38.07,2,2,0,0,1,.64.45h0c.25.32.72.22,1,.51h0c.27.3.75.2,1,.54l0,0c.51.33,1,.62,1.54,1a.53.53,0,0,0,.37.06,1.35,1.35,0,0,1,.63.5h0a16.87,16.87,0,0,1,1.54,1h0c.28.29.77.19,1,.55l0,0a2.33,2.33,0,0,1,.54.5h0c.19.15.35.33.53.49h0a2.41,2.41,0,0,0,.48.42.82.82,0,0,0,.44.11,4.35,4.35,0,0,1,.6.46h0c.24.33.74.22,1,.56l0,0a2.18,2.18,0,0,1,.53.52h0a2.93,2.93,0,0,1,1.05,1h0c.44.44,1.05.63,1.47,1.07l0,0a2.86,2.86,0,0,1,.54.5h0c.93.57,1.63,1.42,2.51,2.06l0,0a6.75,6.75,0,0,0,1,1l0,0a5.63,5.63,0,0,0,1,1l0,0a3.2,3.2,0,0,1,.54.5h0a3.66,3.66,0,0,1,.51.53l0,0c.33.2.19.69.54.88a.91.91,0,0,0,.43.14,1.77,1.77,0,0,1,.57.52l0,0a1.38,1.38,0,0,1,.51.61l.41.41c.38.33.72.72,1.11,1l0,0a10.54,10.54,0,0,1,1,1.52v0A2.34,2.34,0,0,1,365,56l0,0c.35.24.25.73.54,1h0a17.58,17.58,0,0,1,1,1.53v0A2.61,2.61,0,0,1,367,59l0,0a13.43,13.43,0,0,0,1,1.12.7.7,0,0,0,.1.4,4,4,0,0,0,.44.48h0c.16.18.34.34.49.53h0a2.18,2.18,0,0,1,.52.53l0,0c.34.25.24.74.55,1h0a2.19,2.19,0,0,1,1,1.1,1,1,0,0,0,.09.42c.14.18.29.35.44.51h0a2.33,2.33,0,0,1,.5.54l0,0c.34.22.21.73.57.94l0,0A4.32,4.32,0,0,0,373,67h0c.3.27.22.74.51,1h0a2,2,0,0,1,.49.6.87.87,0,0,0,.1.42,4.18,4.18,0,0,0,.43.5h0a3.64,3.64,0,0,1,.5.54l0,0c.35.25.26.73.53,1v0c.33.24.21.73.55,1l0,0a3.8,3.8,0,0,0,.46.52h0c.3.28.22.75.51,1h0a1.62,1.62,0,0,1,.48.62.64.64,0,0,0,.11.4c.13.17.27.35.42.51l0,0c.41.46.66,1,1,1.52h0c.31.27.24.74.5,1l0,0c.34.23.23.73.56,1v0c.14.19.33.34.47.54l0,0c.34.25.24.73.54,1h0a2.11,2.11,0,0,1,.48.63.58.58,0,0,0,.1.4,4,4,0,0,0,.43.49h0a11.29,11.29,0,0,1,1,1.58,1,1,0,0,0,.14.46,2.69,2.69,0,0,0,.39.5l0,0a2.62,2.62,0,0,1,.51.54l0,0c.35.25.25.74.55,1h0c.3.26.19.74.52,1v0c.14.19.33.35.47.54l0,0c.34.26.25.73.53,1v0a2.62,2.62,0,0,1,.51.54l0,0c.35.25.26.74.54,1v0c.32.26.21.74.53,1h0c.77.48.95,1.39,1.49,2h0c.31.26.22.74.52,1h0a16.77,16.77,0,0,0,1,1.46l0,0a5.85,5.85,0,0,0,.45.54l0,0c.32.26.22.74.54,1h0c.15.18.33.34.49.51h0a1.83,1.83,0,0,1,.47.63.72.72,0,0,0,.12.4,3.14,3.14,0,0,0,.42.48h0a5,5,0,0,1,.49.54l0,0c.33.25.23.74.54,1s.34.34.5.53l0,0c.32.26.21.74.53,1h0c.15.18.33.34.49.53l0,0a5.09,5.09,0,0,1,.51.53l0,0a.42.42,0,0,1,0,.67c-1.26.7-2.46.07-3.67-.18a40.46,40.46,0,0,0-23.74,1.85c-11.34,4.51-16.44,13.57-18.3,25.11-.83,5.15.24,10.21.08,15.31a13,13,0,0,1-1.63,6.25c-1.93,3.37-1.23,5.29,2.44,6.51,1.51.5,1.82,1.44,2.53,2.78,1.44,2.74,1.48,6.09,3.75,8.41a7.49,7.49,0,0,1,1.57,2.84c.31.87.45,1.94,1.16,2.49,2.48,1.91,1.63,3.87.59,6.18-2.19,4.87-3.73,9.92-2.23,15.38a37.71,37.71,0,0,0,3.32,7.32,2.33,2.33,0,0,1-.58,3.31c-8.71,7.31-14.35,16.71-18.72,27.07-4.08,9.67-7.69,19.57-12.6,28.84-7.47,14.1-13.95,28.71-21.92,42.55-10.18,17.68-20.66,35.19-31.6,52.42a31.63,31.63,0,0,1-5.95,7.45c-3.62,3.06-8.1,3.94-12.5,5-1.13.28-2.33.34-3.46.66a3.46,3.46,0,0,1-3.48-.84A62.27,62.27,0,0,0,240,362.58c-9.81-5.52-16-13.71-19.44-24.37a236.71,236.71,0,0,0-12-29.36c-3.21-6.75-6.5-13.46-9.56-20.27-1-2.28-.86-4,1-5.9,2.72-2.78,2.17-8.05-.83-10.51a2.28,2.28,0,0,0-2.58-.18c-2.57,1.06-2.67,1.06-3.41-1.62-1.73-6.32-3.52-12.62-5.09-19a415,415,0,0,0-16.72-51.48A24.06,24.06,0,0,0,157,185.57c-9.39-3.67-18.69-7.56-27.15-13.17-2.11-1.39-4-2.65-4.91-5.39-.81-2.56-3.46-3.76-5.82-4.9a12.15,12.15,0,0,1-3.06-1.72c-2.65-2.4-2-5.75,1.37-6.88a22,22,0,0,1,7-1c6.73,0,7.9-.83,10.22-7,1-2.64,2.22-5.08,1.43-8.23-.44-1.74.61-3.88-.1-5.89-.25-.71.36-1.24.92-1.64.75-.55,1.56-1,2.34-1.49,3.2-2,3.94-3.83,2.7-7.43-2.18-6.31-1.18-12.81-1.24-19.24,0-1.86,1.64-2.13,3-2.49,4.84-1.26,7.65-4.57,9.35-9.07,2-5.34-1.06-14.31-8.15-16.67C143.86,73,142.47,73,142.08,71.58Z"/><path fill="#fba0a9" d="M302.45,499.9l-.5.11c-.3.19-.72.11-1,.4l-.52.12a6.61,6.61,0,0,0-.55.37.79.79,0,0,0-.45.11,4.92,4.92,0,0,0-.52.41c-.74-.11-1.3.48-2,.56-.3.25-.74.16-1,.44h0c-.27.32-.74.24-1,.5l0,0c-.57.62-1.45,0-2,.53h0c-1,.57-2.11.51-3.07,1a1.25,1.25,0,0,0-.47.07c-.46.36-1.12,0-1.57.43l-1,.11c-.32.2-.74.15-1.05.39h-.21l-.22,0c-.44.44-1.13.06-1.58.48l-1.48.14c-.19.11-.37.24-.55.36l-.93,0c-.78.57-1.79-.09-2.58.48l-1,.07a.37.37,0,0,1-.48,0h-.55c-1,.46-2.07-.18-3,.41h0a.31.31,0,0,1-.49,0l-2.05.05a18.1,18.1,0,0,1-6-.05l-2,0c-1-.57-2.1.08-3.07-.44l-1.05,0a.76.76,0,0,1-1,0l-.51,0a.29.29,0,0,1-.49,0l0,0c-.6-.5-1.42,0-2-.44l-1-.07c-.78-.56-1.8.11-2.58-.48l-.22,0-.22,0c-.3-.26-.73-.19-1-.42h-1a.34.34,0,0,1-.49,0l-.19-.06h-.2c-.48-.37-1.18,0-1.62-.49h0c-.59-.52-1.46.06-2-.5h0c-.41-.45-1.11-.05-1.52-.51h0c-.57-.56-1.47.07-2-.54h0c-.3-.26-.75-.17-1-.45l-.22-.06h-.21c-.45-.41-1.17,0-1.59-.52l0,0c-.3-.26-.76-.19-1-.5h0c-.28-.29-.74-.19-1-.48l-.19-.06h-.2c-.35-.22-.81-.16-1.12-.48h0a3.14,3.14,0,0,0-.5-.38l-1-.14c-.32-.26-.8-.17-1.07-.52l0,0c-.3-.27-.77-.18-1-.52h0c-.31-.26-.77-.18-1-.51l0,0c-.29-.28-.76-.18-1-.49l-.18,0-.19,0a1.4,1.4,0,0,1-.62-.51h0c-.3-.26-.76-.18-1-.49h0c-.28-.3-.75-.21-1-.52v0a2.79,2.79,0,0,0-.49-.42.88.88,0,0,0-.44-.12c-.33-.24-.81-.16-1.08-.51h0c-.3-.26-.77-.17-1-.52l0,0-.53-.45a.65.65,0,0,0-.38-.09,7,7,0,0,1-1.64-1h0c-.77-.62-1.76-.89-2.53-1.52h0c-.28-.3-.76-.2-1-.54l0,0c-.18-.16-.36-.3-.55-.45l0,0c-.22-.36-.72-.23-1-.55h0c-.19-.15-.35-.33-.53-.49h0c-.28-.31-.74-.22-1-.51h0c-.46-.4-1.05-.62-1.49-1.06l0,0a6.17,6.17,0,0,1-.54-.48h0c-.25-.31-.74-.2-1-.54l0,0a3.62,3.62,0,0,1-.54-.49h0c-.47-.38-1-.63-1.51-1h0a3.75,3.75,0,0,0-.53-.44l0,0c-.21-.36-.72-.23-.94-.58l0,0a2.06,2.06,0,0,1-.54-.52l0,0a5,5,0,0,1-.54-.49h0c-.46-.4-1.05-.61-1.49-1.05h0a4,4,0,0,1-1.56-1.46h0c-.24-.33-.74-.21-1-.56l0,0a1.78,1.78,0,0,1-.54-.52l0,0a2.13,2.13,0,0,1-1-1l0,0c-.2-.13-.35-.32-.55-.45l0,0a1.59,1.59,0,0,0-.47-.46l0,0a2.14,2.14,0,0,0-.46-.49l0,0a2.73,2.73,0,0,0-.48-.48l0,0a2.73,2.73,0,0,0-.48-.48l0,0a2.67,2.67,0,0,0-.48-.47l0,0a1.91,1.91,0,0,0-.47-.47l0,0c-.23-.34-.78-.22-.94-.66a.55.55,0,0,0-.11-.36,7.83,7.83,0,0,1-.95-1l0,0a4.65,4.65,0,0,1-1-1h0a3.86,3.86,0,0,0-.5-.49h0a4.56,4.56,0,0,0-.48-.5h0c-.16-.19-.33-.35-.48-.53h0a2.34,2.34,0,0,1-.51-.53l0,0a1.87,1.87,0,0,1-.52-.53l0,0a1.75,1.75,0,0,1-.53-.52l0,0c-.44-.42-.62-1-1.07-1.45l0,0a5.82,5.82,0,0,0-.46-.53h0a5,5,0,0,1-.51-.52h0a2.32,2.32,0,0,1-.51-.57.82.82,0,0,0-.12-.43,7,7,0,0,1-.91-1l0,0c-.14-.19-.32-.35-.47-.53h0a2.35,2.35,0,0,1-.5-.54l0,0c-.35-.22-.23-.72-.57-.95v0a5.79,5.79,0,0,0-.48-.51h0a3.15,3.15,0,0,1-.49-.54l0,0a1.56,1.56,0,0,1-.52-.59,1.06,1.06,0,0,0-.09-.42c-.14-.17-.28-.35-.43-.52l0,0a1.84,1.84,0,0,1-.51-.53l0,0c-.35-.25-.26-.73-.53-1h0a2.38,2.38,0,0,1-.52-.53l0,0c-.34-.24-.23-.73-.56-1h0a3.8,3.8,0,0,1-.47-.59,1.06,1.06,0,0,0-.11-.45,3.15,3.15,0,0,0-.41-.48h0a6.26,6.26,0,0,1-.5-.53l0,0c-.34-.24-.22-.74-.55-1h0c-.15-.19-.33-.35-.47-.55l0,0a1.55,1.55,0,0,1-.51-.6.61.61,0,0,0-.08-.4c-.3-.52-.61-1-1-1.52h0a2.57,2.57,0,0,1-.5-.54l0,0c-.36-.28-.29-.76-.51-1.11a.77.77,0,0,0-.11-.41,5.12,5.12,0,0,0-.44-.49h0a9.65,9.65,0,0,1-1-1.6.67.67,0,0,0-.07-.42l-.46-.52,0,0c-.34-.28-.25-.76-.51-1.08a.88.88,0,0,0-.11-.45,4.72,4.72,0,0,0-.41-.5v0a6.3,6.3,0,0,1-1-2.09,1,1,0,0,0-.1-.45l-.41-.52,0,0c-.35-.25-.26-.73-.54-1h0a11.39,11.39,0,0,0-1-2v0c-.49-.43-.12-1.13-.5-1.6a.62.62,0,0,0-.08-.42c-.26-.27-.15-.73-.47-1h0c-.33-.75-1.31-1.11-1.29-2.09.9-5.81,2.48-11.47,3.57-17.25a99.54,99.54,0,0,0,.93-27c-.78-9.21-2.91-18.22-3.45-27.44a3.08,3.08,0,0,0-2.39-2.86c-1.33-1.56,1.06-1.35,1.08-2.27,1-1.2.69-2.51.43-3.86q-2.1-10.87-4.65-21.66c-2.46-10.38-4-20.94-6.47-31.32-1.8-7.68-3.89-15.29-5.19-23.09a33.51,33.51,0,0,1-.81-8c.06-.73-.05-1.72.84-1.9.71-.13,1.07.71,1.35,1.31,4.31,9,9.26,17.69,14.06,26.45,1,1.8,1,3.29-.63,4.71s-1.34,2.76-.29,4.27c.53.76,1,1.56,1.5,2.33,1.38,2.09,1.95,2.28,4,1,1.47-.93,2.44-.74,3.28.77,6.11,11,13.2,21.44,19.88,32.11A157,157,0,0,0,207,355.73a149.39,149.39,0,0,1,13.91,21c2.62,4.62,5.56,9,10,12.09a9.77,9.77,0,0,0,2.34,1.47c3.42,1.16,6.22,2.69,7.24,6.68.5,2,2.52,2.23,4.37,1.14a10.91,10.91,0,0,0,3.21-2.8c2.74-3.58,6.36-6.18,9.87-8.9a4.51,4.51,0,0,1,.85-.54c.89-.45,1.91-1.24,2.72-.24.64.81-.12,1.75-.61,2.51-.95,1.49-2.44,2.54-3.42,4-.85,1.3-1.73,2.64-.64,4.16s2.75,1.74,4.52,1.23a13.31,13.31,0,0,0,7.62-5.09c5.36-8,12.19-14.72,18.34-22a113.5,113.5,0,0,0,8.43-11.92c6.45-10.08,14.53-18.88,21.69-28.4,7.76-10.33,16.16-20.21,22.54-31.52,3.64-6.44,6.2-13.4,9.15-20.16,2.81-6.47,5.41-13,8.05-19.56.83-2.05,1.85-4,4.24-4.6.8.17,1,.83,1.11,1.49.61,3.85,2.52,7.17,4.24,10.57a4.09,4.09,0,0,1,.31.75,21.6,21.6,0,0,1,1.29,11.56c-1.06,8-2.32,15.9-4,23.76a19,19,0,0,0-.26,4.75c.16,3.46,1.46,6.16,4.95,7.4a3.17,3.17,0,0,1,1.67,1.06,2.79,2.79,0,0,1-.62,3.46,7.19,7.19,0,0,0-2,4.23c-1.67,8.07-2.51,16.26-3.37,24.44-.92,8.77-1.76,17.54-2.78,26.3-.68,5.83-.91,11.71-1.24,17.56-.6,10.81-1.12,21.62-1.11,32.45a27.8,27.8,0,0,0,.58,6.5,1.58,1.58,0,0,1-.29.86.65.65,0,0,0-.07.41c-.39.46,0,1.17-.51,1.6l0,0c-.42.43,0,1.12-.49,1.54h0c-.56.58.05,1.45-.53,2h0c-.54.57.09,1.46-.54,2l0,0a4,4,0,0,1-.46.54.77.77,0,0,0-.06.42c-.23.33-.16.78-.44,1.09a.79.79,0,0,0-.06.43c-.4.45,0,1.16-.5,1.59v0c-.27.29-.18.74-.46,1a.68.68,0,0,0-.06.4c-.23.34-.16.81-.49,1.11v0c-.45.41,0,1.14-.54,1.52l0,0a6.06,6.06,0,0,1-.47.54h0c-.47.78-.58,1.71-1,2.51h0c-.29.28-.21.74-.5,1h0c-.47.39,0,1.12-.54,1.5l0,0a4,4,0,0,1-.46.54.65.65,0,0,0-.06.39,1.89,1.89,0,0,1-.47.62h0a10.43,10.43,0,0,1-1,2,.82.82,0,0,0,0,.41,2.59,2.59,0,0,1-.48.61.62.62,0,0,0,0,.38,1.68,1.68,0,0,1-.5.62v0c-.31.53-.33,1.23-1,1.55h0c-.33.25-.23.7-.48,1l0,0c-.39.44-.34,1.16-.94,1.47a.82.82,0,0,0-.13.4,6.38,6.38,0,0,1-1,1.61l0,0c-.13.19-.32.35-.46.54v0c-.34.24-.22.73-.55,1v0c-.27.3-.18.77-.53,1l0,0a2.18,2.18,0,0,1-.52.53v0a14.15,14.15,0,0,1-1,1.54l0,0c-.14.19-.32.34-.46.54l0,0c-.43.43-.62,1-1.06,1.47l0,0a4.2,4.2,0,0,1-.48.55h0a4.28,4.28,0,0,1-1,1l0,0c-.35.23-.23.73-.57,1l0,0a2.84,2.84,0,0,1-.51.53v0c-.15.19-.33.35-.48.53h0a4.56,4.56,0,0,0-.48.5l0,0a1.91,1.91,0,0,0-.45.49l0,0c-.35.21-.22.72-.57.94l0,0a1.87,1.87,0,0,1-.53.52l0,0a1.65,1.65,0,0,1-.53.52l0,0a1.79,1.79,0,0,1-.53.53l0,0a1.87,1.87,0,0,1-.52.53l0,0a5.58,5.58,0,0,0-1,1l0,0a2.66,2.66,0,0,1-.52.54l0,0a3.65,3.65,0,0,1-.52.52h0a3.2,3.2,0,0,1-.53.51l0,0a6,6,0,0,0-1,1l0,0c-.41.46-1,.61-1.44,1.08l0,0a1.55,1.55,0,0,0-.46.46l0,0a2.44,2.44,0,0,0-.5.46h0a3.8,3.8,0,0,1-.59.47l-.93.62c-.34.2-.23.75-.66.87a.57.57,0,0,0-.36.08l-.53.45,0,0c-.44.43-1,.63-1.48,1.06h0c-.28.64-1,.61-1.47,1l0,0a2.79,2.79,0,0,0-.51.46h0a1.81,1.81,0,0,1-.64.45.59.59,0,0,0-.37.07c-.18.15-.35.31-.51.47h0a2.58,2.58,0,0,1-.6.49.72.72,0,0,0-.43.1,4.11,4.11,0,0,0-.5.42h0a1.9,1.9,0,0,1-.6.49.72.72,0,0,0-.41.08l-.53.43,0,0a10.5,10.5,0,0,1-1.53,1h0c-.25.34-.73.24-1,.53h0a1.69,1.69,0,0,1-.64.48.6.6,0,0,0-.37.07c-.18.16-.35.31-.54.45l0,0c-.53.63-1.35.68-2,1h0c-.27.32-.74.24-1,.51h0c-.25.33-.73.22-1,.54h0a2.83,2.83,0,0,1-.63.46.63.63,0,0,0-.4.08,3.87,3.87,0,0,1-.57.43h-.22l-.21.06a2,2,0,0,1-.64.43.53.53,0,0,0-.37.07c-.28.28-.75.16-1,.47l-.53.14a1.68,1.68,0,0,0-.48.36h0A7.8,7.8,0,0,1,302.45,499.9Z"/><path d="M361.43,254.23a13.3,13.3,0,0,0-4.09,5.89c-4.29,10.93-8.87,21.75-13.63,32.48a94.87,94.87,0,0,1-9.93,16.91q-11,15.23-22.82,29.79a234,234,0,0,0-15.46,20.81A127.58,127.58,0,0,1,280,379.61a70.51,70.51,0,0,0-8.2,10.19,23.05,23.05,0,0,1-5.61,6.08,13,13,0,0,1-5.69,2.54,4,4,0,0,1-4.21-1.65,3.6,3.6,0,0,1,.3-4.45,27.82,27.82,0,0,1,2.17-2.44,9.87,9.87,0,0,0,2.73-4.28c-1.1-.34-1.78.4-2.49.88a51.75,51.75,0,0,0-9.39,8,32.9,32.9,0,0,1-3.91,3.92c-2.3,1.79-4.67,1.3-6.1-1.25a9.54,9.54,0,0,1-1.1-3.33c-.1-.77-.38-1-1.2-1.26A22.55,22.55,0,0,1,226.77,386a41.51,41.51,0,0,1-6.3-8.77,151.58,151.58,0,0,0-17.84-25.87c-5.08-5.87-8.89-12.62-13.11-19.08-5.34-8.14-10.6-16.33-15.2-24.92a6.55,6.55,0,0,0-.39-.56,7.53,7.53,0,0,0-2.13,1.56c-1.22.89-2.41.86-3.31-.35a49.11,49.11,0,0,1-3.38-5.31,2.47,2.47,0,0,1,.52-3,9.14,9.14,0,0,1,1.27-1.22c1-.72,1.07-1.46.44-2.54-1.6-2.75-3.06-5.59-4.64-8.36-3.53-6.21-6.89-12.49-10-18.92-.17-.35-.25-.79-.87-1a36.35,36.35,0,0,0,.74,8.93c1.24,7.89,3.44,15.56,5.21,23.33,2.09,9.16,3.64,18.44,5.63,27.62,1.92,8.85,4.09,17.65,5.7,26.57a3.48,3.48,0,0,1-.68,3.24c-1.57,1-2.52.15-3.25-1.17a9.63,9.63,0,0,1-.81-2.64c-4.94-23.06-9.32-46.25-14.93-69.17a80.73,80.73,0,0,1-1.86-22.51,6.91,6.91,0,0,1,.25-1.75c.38-1.32.88-2.68,2.44-2.88s2.29,1.12,2.87,2.37c4.93,10.59,10.69,20.74,16.31,31,1.54,2.8,1.66,2.73,3.9.62,4.83-4.54,9.5-9.25,14.54-13.56,1.94-1.65,2.47-3.21,1.67-5.88-2.91-9.72-5.17-19.64-7.94-29.41-3.86-13.58-8.4-26.93-13.5-40.09a22.1,22.1,0,0,0-13.63-13.55,117.25,117.25,0,0,1-25-12.29c-2.18-1.45-2.37-1.3-2.69,1.27-.22,1.84-.7,3.53-2.66,4.18s-3.26-.31-4.48-1.59c-1.68-1.77-3.68-3.18-5.44-4.87a2.15,2.15,0,0,0-3.33-.06c-3.81,3.79-7.87,7.33-11.19,11.59a4.61,4.61,0,0,0-.89,4.46,147.83,147.83,0,0,1,4.73,25.47c1.48,12.76,3.47,25.45,5.7,38.09a334,334,0,0,1,4.58,33.66c.67,9.2,1.25,18.39,1.5,27.62.27,10.39.71,20.78,1,31.18a110.58,110.58,0,0,0,.77,12,18.24,18.24,0,0,1,0,5.52,2.31,2.31,0,0,1-4.57.22,15.67,15.67,0,0,1-.64-3.72c-.36-11-.95-21.94-1.2-32.93-.26-11.89-.84-23.78-1.62-35.66-1.4-21.18-6.28-41.81-9.08-62.77-1.32-9.89-2.19-19.85-4.23-29.65a41.34,41.34,0,0,1-1-5.19,6.41,6.41,0,0,0-.23-1.5c-.08-.23-.15-.46-.23-.7a8.22,8.22,0,0,0-.68-1.36c-1.91-6.9-7.17-10.91-12.68-14.73-1.56-1.08-2.73-1-3.92.42-2.09,2.41-4.2,4.8-6.51,7a25.71,25.71,0,0,1-3.88,3.19c-2.73,1.71-5.06.46-5.12-2.78a28,28,0,0,1,.66-5.24,33,33,0,0,0,.24-6.28c-.06-2-.43-2.21-2-1.13-6.06,4.14-12.87,6.54-19.88,8.3-9.13,2.28-14.68,8-17.25,16.86a72.2,72.2,0,0,0-2.86,18.09c-.22,7.53-1,15-1.68,22.56-1,11.13-2.66,22.16-4.34,33.19-.32,2.14.3,3,2.43,3.41,5.61,1.06,11.18,2.29,16.76,3.5,3.13.68,3.15.64,3.9-2.37.93-3.75,1.83-7.5,2.93-11.21a24.36,24.36,0,0,1,.87-2.62A3.16,3.16,0,0,1,44,259.51c1.55-.14,2.49.77,3.21,2a11.53,11.53,0,0,1,1.35,3.25c2.53,10.44,5.07,20.86,5.76,31.65.84,13.21-.6,26.27-1.86,39.37-.85,8.75-1.8,17.53-.88,26.35-.61,1.65-1.54,2.68-3.45,1.69a5,5,0,0,1-1.07-2l0,0c-.78-1.46.12-3.1-.52-4.58l0,0a8.18,8.18,0,0,1,0-5l0,.05c.66-2.67-.33-5.45.54-8.11l0,0c.62-2.17-.3-4.46.52-6.61l0,0c.6-1.66-.24-3.45.5-5.1l0,0c.66-1.63-.27-3.45.57-5.06l0,.06c.59-1.49-.3-3.14.52-4.6l0,.05c.61-2.17-.29-4.45.51-6.61l0,.05c.49-6.61.09-13.23.2-19.84a6.78,6.78,0,0,0-.21-3l0,0c-.77-1.28.12-2.77-.53-4.06v0c-.62-.85,0-1.91-.5-2.78l.07-.12-.1-.1c-.51-.7-.09-1.59-.47-2.31l.07-.12-.1-.09c-.63-.76.08-1.79-.5-2.56v0c-.52-.69-.1-1.57-.47-2.29l.06-.12-.09-.09c-.62-.78,0-1.8-.48-2.6l0,.05c-.76-.92.07-2.11-.54-3.05v0c-.63-.84,0-1.89-.5-2.76l.07-.14-.1-.1c-.54-.63,0-1.47-.44-2.12l0,0a.77.77,0,0,0-1.23,0l0,0c-.28.5,0,1.15-.43,1.61h0c-.54.58,0,1.45-.51,2v0c-.63.73.21,1.81-.6,2.5l0-.06c-.4.65.12,1.5-.47,2.1v0c-.6.74.26,1.83-.6,2.51l0-.05c-.53,1.11.48,1.28,1,1.72h0c.32.19.83.05,1,.55l.08-.11-.1.1a.55.55,0,0,1,.56.47l0,0c1.32,1.34.95,2.91.61,4.47l-.13.1.06.15c-.3.53.06,1.28-.54,1.71l0,0c-.35.45.12,1.2-.56,1.53l0-.05c-.13.37,0,.86-.53,1l0,0a.55.55,0,0,1-.49.55l0,0c-.18.46-.67.34-1,.54h0a1,1,0,0,1-1.1.31c-1.93-.42-2.82.41-2.91,2.3l-.08.1.07.11c-.52,1,.17,2.27-.54,3.28l0-.05c-.55,1,.22,2.14-.5,3.08v0c-.62,1.3.26,2.79-.54,4.07l0-.06c-.65,2,.31,4.13-.52,6.11l0,0c-.64,2.68.29,5.47-.52,8.15l-.06.11.09.09c-.51,4.92-.07,9.84-.24,14.76,0,.89.3,1.84-.29,2.67l-.06.12.09.09c-.48,2-.09,4-.24,5.94-.06.8.3,1.66-.32,2.38l0-.05c-.62,2.69.28,5.47-.5,8.15l-.08.12.1.11c-.66,2.24.26,4.6-.52,6.83l-.08.12.09.1a76.36,76.36,0,0,0,0,12.92v0c.35.29.32.72.44,1.1l0,0c.47.19.37.68.55,1l0,0c.43.19.31.7.59,1h0a7.4,7.4,0,0,1,1,1.56l0,0c.49.39.68,1,1.07,1.47h0a1.32,1.32,0,0,1,.45.57l0,0c.26.12.47.27.44.6l.09-.1-.11.08c.51.07.34.65.66.86l0,0a2.36,2.36,0,0,1,.45.55v0a.82.82,0,0,1,.46.58l0,0c.56.33.71,1,1.11,1.43v0c.18.17.39.31.43.58l0,0a3.68,3.68,0,0,1,1,1.54l0,0c.43.2.33.69.56,1l0,0c.38.25.31.72.5,1.06l0,0c1.32,1.83.7,3.94.84,5.94a11.24,11.24,0,0,0,.19,3.17l0,0a3.37,3.37,0,0,1,1,1.56l0,0c.65.3.14,1.08.61,1.46h0a6.26,6.26,0,0,1,0,4v0a3.67,3.67,0,0,0,0,2.65l0,0c.46,2.2.91,4.4-.47,6.47l0,0a1.08,1.08,0,0,1-.49.54h0a.79.79,0,0,1-.56.46v0c-.19.45-.66.34-1,.5h0c-1.62.95-2.71-.24-3.92-.94h0a4.88,4.88,0,0,1-2-2h0c-.18-.17-.41-.3-.43-.59l-.08.11.08-.1a2,2,0,0,1-1.07-1.49c-.57-1.28-.41-2.7-.76-4a3.83,3.83,0,0,1-.27-1.77c.07-.64-.15-1.28,0-1.71a12.46,12.46,0,0,0,.27,3.63,3,3,0,0,1,.26,1.38c0,1.32.62,2.51.74,3.8a3.19,3.19,0,0,0,.19,1.37l0,0c.42.24.36.7.49,1.08l0,0c.47.17.35.68.57,1v0a.81.81,0,0,1,.5.55h0c.26,0,.4.24.57.41l.05,0c.25.31.71.19,1,.46l.13.15.19-.05c.39.15.84.13,1.16.46h0c.4.43,1.11,0,1.48.52h0c.75.57,1.78-.18,2.5.53h0c.31.22.8.11,1,.54l0,0c.45.56,1.24,1,.53,1.91l0-.05c-.2.34-.14.8-.49,1.07v0c-.37.48-.49,1.15-1.12,1.42l.12.1-.11-.12c-.27.63-.91.78-1.43,1.09h0a3,3,0,0,1-1.56.91l0,0c-.67.7-1.63.72-2.45,1.06h0a8.06,8.06,0,0,1-5.94.53h0c-.58-.49-1.46.13-2-.53h0c-.42-.38-1.15.1-1.47-.54h0c-.35-.14-.8-.06-1-.45h0c-.31-.21-.78-.11-1-.52h0c-.31-.2-.8-.08-1-.52h0c-.34-.16-.8-.07-1-.48h0c-.32-.19-.78-.1-1-.48h0c-.3-.23-.78-.11-1-.53h0a8.25,8.25,0,0,1-2.5-1.53l-.08.1.09-.09a.75.75,0,0,1-.56-.46h0a1.39,1.39,0,0,1-.53-.46l0,0a3.78,3.78,0,0,1-.49-.49h0a1.44,1.44,0,0,1-.47-.54v0a.84.84,0,0,1-.48-.56l0,0a.62.62,0,0,1-.5-.55l0,0c-.58-.3-.71-1-1.12-1.41v0c-.17-.17-.4-.31-.41-.6l0,0c-.46-.17-.34-.69-.59-1l0,0c-.37-.24-.27-.72-.54-1h0c-.32-.27-.25-.73-.48-1v0c-.54-.38-.1-1.11-.54-1.51h0c-.55-.61,0-1.45-.46-2.09v.06a7.93,7.93,0,0,1,0-5l0,.05c.56-1.14-.24-2.47.5-3.59l0,0c.6-1.13-.21-2.46.52-3.57l0,0c.69-2-.3-4.11.54-6.08l0,.05a14,14,0,0,0,0-5.4l.09-.1-.08-.12c-.73-1.12.1-2.46-.5-3.59v0c-.48-1-.47-2.09-1-3h0a5.9,5.9,0,0,1-.94-1.58l0,0c-.43-.17-.3-.69-.59-.95h0c-.56-.55-.63-1.35-1-2h0c-.43-.45-.11-1.11-.45-1.59l0,.06a2.31,2.31,0,0,1,0-2.5l.06-.11-.09-.09a41.39,41.39,0,0,0,0-9.44l0,.05c-.69-2.27-.14-4.59-.31-6.88a9.52,9.52,0,0,0-.23-3l.1-.09-.07-.12c-.58-.75-.29-1.62-.29-2.43,0-7.63,0-15.26,0-22.89a5.48,5.48,0,0,0-.2-2.48l0,.05c-.7-1.6-.32-3.29-.29-4.92.1-4.73-.42-9.47.28-14.18l0,.05c.65-1.82-.32-3.79.54-5.59l0,.06c.56-1.15-.22-2.47.49-3.6v0c.64-1.29-.25-2.79.53-4.06l0,0c.1-1.5,1-3.19-1-4.21h0c-1.49-.45-3.06-.51-4.55-1h0c-.3-.22-.81-.09-1-.57l0,0c-.48-.13-.34-.67-.62-.93h0a3.21,3.21,0,0,1,.06-3l0,.06c.51-.79-.23-1.84.53-2.58v0c.43-.47.33-1.1.49-1.65.75-2.65,1.77-3.35,4.75-3.08.49-3.25,1-6.52,1.47-9.79,1.05-7.46,2.25-14.9,2.85-22.42-.56-8.88,1.24-17.63,1.36-26.49a62.71,62.71,0,0,1,4.37-22.34c3.47-8.74,9.65-14.31,18.72-16.75a81.07,81.07,0,0,0,16.53-6A18,18,0,0,0,59,167c7-6.69,14.42-13,19-21.87a15.4,15.4,0,0,0,1.77-10.56c-1.17-6.12-4.27-11.44-6.52-17.11-1.1-2.77-2.8-5.39-2.48-8.58a49.92,49.92,0,0,1-1.09-10,30.43,30.43,0,0,1,5.43-16.73c3.73-5.47,9.17-7.81,15.52-8.64,6-.78,11.88,0,17.79.73,6.81.8,13.55.82,20.08-1.73a23,23,0,0,1,13.58-.94c1.47.59,2.93,1.2,4.42,1.76,6.36,2.37,10.74,13.31,5.38,20.66-2.22,3-4.92,5.25-8.72,5.86-1.23.2-1.83.66-1.79,2.1.08,3.11-.07,6.22-.18,9.32a24.41,24.41,0,0,0,1.3,9.17,12.88,12.88,0,0,1,.55,1.93,5.28,5.28,0,0,1-2.23,5.73c-.89.62-1.89,1.08-2.83,1.63-1.65,1-1.65,1-1,2.83.09.24.16.48.24.71.53,1.56-1.1,2.77-.92,3.95s1.37,2.32.81,3.74c-1,2.48-1.91,5-2.89,7.48-1.32,3.33-4.09,4.75-7.57,4.85a49.36,49.36,0,0,0-7.29.33,8.29,8.29,0,0,0-2.41.66c-2.36,1.17-2.74,3.45-.93,5.37a4.91,4.91,0,0,0,2.31,1.48c2.54.65,4.42,2.31,6.27,4a3.58,3.58,0,0,1,1.37,2.34c.05,1.62,1.08,2.34,2.23,3.08A132.29,132.29,0,0,0,151,182.43c3,1.2,6,2.51,9,3.83a20.85,20.85,0,0,1,9.78,9.1A79.58,79.58,0,0,1,175.54,209c4.44,12.84,9,25.65,12.29,38.84,1.84,7.32,3.84,14.6,5.77,21.9.23.87.5,1.72.74,2.57,1-.05,1.4-.78,2-1.14,1.47-.83,2.56-.71,3.49.68a23.23,23.23,0,0,1,2.82,6.16,3.38,3.38,0,0,1-.62,3.1,9.36,9.36,0,0,1-1.77,2.11c-1.88,1.36-1.71,2.79-.86,4.73,1.59,3.61,3.34,7.13,5,10.7,4.78,10.17,9.74,20.26,13.68,30.81,1.61,4.32,3.13,8.68,4.73,13,2.85,7.7,8,13.48,14.86,17.87,2.83,1.81,5.69,3.57,8.51,5.39a25.39,25.39,0,0,1,5.75,4.47c.39.45.77.83,1.5.6,3.43-1.09,7-1.55,10.47-2.65a18,18,0,0,0,9.44-6.76c3.1-4.28,6.09-8.66,8.75-13.22,6.33-10.88,13-21.55,19.43-32.38,5.18-8.73,10.1-17.61,14.54-26.75,5.28-10.86,11.27-21.38,16.25-32.39,4-8.79,7.54-17.75,11.45-26.57A67.76,67.76,0,0,1,357.1,210c1.11-1.14,2.37-2.13,3.57-3.17,1.62-1.4,1.64-1.4.57-3.19a30.1,30.1,0,0,1-3.29-7.59c-1.18-4.44-.13-8.66,1.32-12.82a35.18,35.18,0,0,1,2.82-6.08,7.32,7.32,0,0,1-3.7-5.2,3.87,3.87,0,0,0-1.5-2.26,3.33,3.33,0,0,1-1.54-3.9,1.59,1.59,0,0,0-.69-1.73c-2-1.78-2-1.81-1.59-4.61a13.13,13.13,0,0,1-3.73-1.3c-2.38-1.47-3.08-3.41-1.56-5.71,2.05-3.09,2.31-6.4,2.05-9.9a64.8,64.8,0,0,1-.11-11.82,35.33,35.33,0,0,1,5.45-15.19c5.91-9.46,14.92-12.68,25.19-13.77a39.91,39.91,0,0,1,15.91,1.69,1.42,1.42,0,0,1,1,.25.28.28,0,0,0,.4.11c.45.37,1.18-.06,1.56.54h0c.34.16.77.11,1.05.42h0c.27.29.71.18,1,.44l.12.15.19,0c.39.16.88.1,1.16.51h0c.32.2.78.11,1,.5h0c.31.21.8.1,1,.53h0a5.73,5.73,0,0,1,1.56.92h0c.25.29.76.16.93.58h0c.27,0,.4.25.58.4l0,0c.22.31.76.16.89.61h0a.77.77,0,0,1,.59.44h0a5.62,5.62,0,0,1,.53.44l.05,0c.19.32.77.15.83.65l.15-.14-.15.14c.33,0,.48.17.56.45h0a.84.84,0,0,1,.56.46h0a1.71,1.71,0,0,1,.53.47l0,0a4.58,4.58,0,0,1,1.52,1.45l0,0a7.61,7.61,0,0,1,2,2l0,0c.15.17.3.34.46.5l0,0a3.79,3.79,0,0,1,.47.51h0a1.2,1.2,0,0,1,.48.54v0a.7.7,0,0,1,.46.58l0,0c.58.31.73,1,1.11,1.44h0a.87.87,0,0,1,.43.59l0,0a3,3,0,0,1,1,1.52l0,0c.43.18.3.7.6,1h0c.18.18.4.33.38.62l0,0c.5.15.37.67.58,1l0,0c.41.21.31.7.55,1l0,0c.37.24.29.72.52,1v0c.36.26.3.72.5,1.06l0,0c.4.26.35.71.46,1.1l0,0c.71.27.17,1.07.63,1.44h0a2.62,2.62,0,0,1,.41.68,29.54,29.54,0,0,1,2.72,9.36c.65,3.72,1.41,7.42,2,11.15,1.13,7.45,5,13.21,10.74,17.91a78.92,78.92,0,0,1,8.22,7.4c5.58,6.06,9.59,12.9,10.42,21.28a5.65,5.65,0,0,0,1.78,3.51c7.14,7.24,10,16.2,10.86,26.12.39,4.69.3,9.37.53,14,.13,3.76-.28,7.52.23,11.27l-.1.09.06.11c.68,2.63.13,5.3.31,7.94.08,1.08-.22,2.17.22,3.22v0c.79,1.8-.16,3.77.52,5.58v0c.76,1.28-.14,2.77.52,4.06v0c.67.95-.05,2.12.48,3.09l0-.05c.76.93,0,2.12.51,3.09l0-.06c.81.91,0,2.11.55,3.06v0c.68.76,0,1.79.49,2.59l0-.06c.74.75,0,1.79.52,2.59l0-.06c.77.74,0,1.78.53,2.57l0-.05c.77.73,0,1.78.53,2.57l0-.05c.76.73,0,1.78.54,2.56l0-.05c.74.73,0,1.78.55,2.54v0c.59.61.06,1.46.47,2.1l0-.05c.79.71,0,1.77.56,2.54v0c.7.73,0,1.77.54,2.53v0c.57.61.06,1.45.46,2.1l0-.06c.78.71,0,1.78.56,2.54v0c.58.67.12,1.57.5,2.28l-.06.12.1.09c.55.62,0,1.47.46,2.11l0,0c.74.72,0,1.77.55,2.53v0c.67.75-.06,1.78.53,2.54v0c.63.76,0,1.78.49,2.57V321c.65.84,0,1.91.51,2.78l-.07.12.09.1c.58.87,0,1.93.48,2.81l-.07.11.09.11c.7,1.12-.11,2.45.5,3.59l0,0c.8,2-.14,4.11.51,6.1l0-.05c.84,2.32-.13,4.77.52,7.11l0-.05c.83,1.87-.12,3.92.54,5.81l-.08.1.07.1c.71,1.38-.07,2.93.51,4.32l-.08.11.09.11c.69,1.14-.08,2.46.47,3.62l0-.06c.79,1.1-.07,2.45.54,3.57v0c.69.75,0,1.78.51,2.57l0-.05c.63.6.1,1.45.47,2.11l0-.06c.86.67,0,1.77.61,2.5v0c.65.77,0,1.79.5,2.58l0-.05c.7,2.35.13,4.76.31,7.14a10.74,10.74,0,0,0,.23,3.2l-.1.09.06.12c.79,1.66-.08,3.47.49,5.15l0-.06c.79.92,0,2.11.53,3.08l0-.06c.76.75,0,1.79.52,2.58l0-.05c.84.88-.07,2.1.58,3v0c.61.78,0,1.79.47,2.59l0-.05c.76.92,0,2.11.53,3.07l0,0a34.4,34.4,0,0,1,0,10v0c-.55.56.19,1.52-.62,2l0,0c-.11.39-.08.82-.43,1.11v0c-.25.3-.17.77-.51,1h0c-.26.29-.15.78-.56,1l0,0a5,5,0,0,1-1,1.54h0a4.15,4.15,0,0,1-1.06,1.49l0,0c0,.27-.25.41-.43.58v0c-.3.23-.14.8-.65.88l.11.08-.09-.1c0,.33-.18.48-.44.6l0,0a1.32,1.32,0,0,1-.45.57v0a7.36,7.36,0,0,1-1.64,1.88l.13.11-.12-.12c0,.33-.18.49-.49.54l0,0a.53.53,0,0,1-.53.51l.12.11-.11-.12a.47.47,0,0,1-.53.49c0,.34-.17.5-.5.52l.12.11-.11-.12c0,.33-.18.51-.52.49a4.9,4.9,0,0,1-1.93,1.59h0c-.21.39-.69.29-1,.51h0a3.33,3.33,0,0,1-3,0h0a2.76,2.76,0,0,1-1.45-1.57l0,0c-1-1.18-2.31-.55-3.48-.71s-2.13.34-3.1-.35h0c-.34-.16-.79-.08-1-.47h0a3.69,3.69,0,0,1-1.48-1l0,0a.66.66,0,0,1-.53-.53l0,0a2.91,2.91,0,0,1-.61-3.44,4.59,4.59,0,0,1,3.36-1.9c1.23-.2,2.44-.49,3.67-.74a3.1,3.1,0,0,1,1.94-.66c.68-.43,1.54-.57,2.07-1.26,1.41-1.59.9-3.56,1.05-5.4a11.29,11.29,0,0,0-.24-2.84c0-.3-.1-.63.15-.89-.29.25-.12.59-.17.88,0,.52.21,1,.24,1.49,0,2.56.39,5.22-1.73,7.28-.47.26-1,.45-1.46.72-.79.07-1.61.39-2.35-.2a4.41,4.41,0,0,1-2.6-3.73c-1.39-9-2.11-18-.69-27a104.11,104.11,0,0,0,1.39-20.79,31.1,31.1,0,0,0-1.74-8.85C462.79,338.77,458,321.35,453,304c-1.53-5.34-2-10.86-2.82-16.33-.34-2.32-.76-4.62-1.14-6.94a3,3,0,0,1-.92-2c-.63-4.78-1.6-9.5-2.2-14.28a9.65,9.65,0,0,0-.78-3.06c-2.11,1.52-4.06,3.28-6.55,4.1-1.44.47-3.36,1.6-4.22-.32-1-2.13,1.34-2.49,2.7-3.11a14.21,14.21,0,0,0,5.52-4.25,7.15,7.15,0,0,0,1.6-6.07c-.56-3-.2-6-.22-9.05a11.05,11.05,0,0,0-1.09-4.85c-1.85-3.85-4.13-7.5-5.42-11.62-.55-1.77-1.91-1.2-3.13-1.06-6,.68-11.84.48-17.35-2.58a19.05,19.05,0,0,1-9.44-11.86c-1.44-5-1.83-10.23-3-15.3a61,61,0,0,0-3.73-11.19A34,34,0,0,0,396,176c-3.88-5.22-6.76-10.91-7.09-17.47-.49-9.79-5.93-16.31-13.53-21.46-6.44-4.35-12.55-9-16.86-15.61-.86-1.32-1.56-1-2.1.24a34,34,0,0,0-2.34,9.49c2.42-.68,4.52-1.56,6.81-1.31a14.84,14.84,0,0,1,2,.16c1.26.34,2.6.81,2.44,2.39-.19,1.75-1.62,1.62-2.92,1.43a13.83,13.83,0,0,0-3.52-.08c-3.39.42-4.7,2-4.83,5.43-.1,2.52.82,5,.39,7.51a19.1,19.1,0,0,1-1.69,6c-.67,1.26-.46,2.09,1.05,2.35a4.22,4.22,0,0,1,3.81,4.3,4.39,4.39,0,0,0,1.08,2.49c.37.46.88.93.92,1.49.16,2.62,1.79,4.58,2.86,6.8,1.62,3.38,2.88,4,6.19,2a13.63,13.63,0,0,1,8.43-1.92,7.2,7.2,0,0,1,2.21.46c1.71.71,2.47,2.11,1.5,3.59a3.05,3.05,0,0,0,.08,3.68c1.68,2.9,2.25,6.12,2.76,9.35,1.18,3,.09,5.65-1.38,8.1a24.3,24.3,0,0,1-13.25,11,8.87,8.87,0,0,0-3.67,2.07c-8.21,6.32-13.69,14.73-17.69,24.05-6.94,16.17-13.81,32.37-22.13,47.89-2.5,4.66-5,9.32-7.17,14.11-.18.87.8.9,1.06,1.45a1.8,1.8,0,0,1-.67,2.25c-4.59,3.15-6.52,8.21-9.21,12.73-10,16.82-19.76,33.76-30.44,50.16-2.59,4-5.58,7.63-10,9.75a43.86,43.86,0,0,1-10.56,3.28c-1.85.38-3.21.83-3.61,3.09-.37,2.07-2.39,2.81-5.12,2.4-3.39-.52-3.46-.55-4.89,2.59s-2.79,6.52-2.12,10.19c.1.56.06,1.3.67,1.53s1-.43,1.42-.82c3.69-3.67,7.23-7.5,11.69-10.3a13.26,13.26,0,0,1,4.08-1.92c3.55-.82,6,1.53,5.31,5.09a13.66,13.66,0,0,1-4.67,7.56,1.4,1.4,0,0,1-.34.21c.24.15.32-.16.51-.19a11.52,11.52,0,0,0,5.23-4.24c4.72-7.21,10.78-13.28,16.43-19.71a124.71,124.71,0,0,0,10.58-14.71c6-9.19,13.36-17.26,19.91-26,7.86-10.47,16.45-20.43,22.93-31.88,3.9-6.88,6.71-14.28,9.77-21.55,2.54-6,5.05-12.08,7.45-18.18a17.38,17.38,0,0,1,7.55-8.66C362.92,250.45,362.27,252.34,361.43,254.23Z"/><path fill="#f24758" d="M48.25,363.54c1.41.72,2.17-.11,2.82-1.2,1.24-1.06,2.77-1.12,4.27-1.21A78.45,78.45,0,0,1,81,364.06a127.38,127.38,0,0,0,27.29,4.17c16,.89,31.16-2.52,46.26-7,3.06-.91,6.16-1.65,9.22-2.55.87-.25,1.77-.61,2.64.06l1,.05c1.87.12,2.51.57,2.52,2.36.06,6.31,1.66,12.4,2.46,18.59.52,4.06.8,8.14,1.11,12.22.13,1.75.45,3.47.51,5.24a103.8,103.8,0,0,1-3.16,27.3c-.78,3.32-1.53,6.66-2.3,10,.17.32.24.64-.1.91a.18.18,0,0,0-.06.29c-.3.53,0,1.25-.5,1.72l0,0c-.43.42,0,1.18-.58,1.53l0-.06c-.18.36-.12.81-.44,1.11a.18.18,0,0,0,0,.29,1.51,1.51,0,0,1-.42.72v0c-.35.21-.2.78-.66.91l.07-.06a.7.7,0,0,1-.56.56l.06-.06c-.15.45-.7.32-.94.64h0a1.24,1.24,0,0,1-.74.44l-.16,0-.12.11c-.31.27-.76.19-1.08.45h-.23l-.21.11c-.34.21-.76.17-1.1.39l-.21,0-.19.11c-.53.34-1.18.12-1.72.4l-1.81.1a8.5,8.5,0,0,1-4,0,7.29,7.29,0,0,0-2.42-.09c-1-.54-2.14.09-3.13-.42l-.9-.08c-.65-.44-1.46,0-2.11-.4l-.95-.09c-.62-.48-1.45,0-2.08-.43l-.85-.11c-.52-.29-1.15-.08-1.67-.37l-.94-.1c-.8-.53-1.79.05-2.59-.43a2.37,2.37,0,0,0-1.37-.1,27.93,27.93,0,0,0-7.42,0l-.16-.06-.13.1c-.42.48-1.12.08-1.57.49l0,0c-.37.55-1.11.09-1.5.57h0c-.3.29-.74.23-1.06.46l0,0a2.29,2.29,0,0,1-2.49,0l0,.05a1.06,1.06,0,0,1-.52-.58l.06.06c-.43-.23-.35-.71-.54-1.06l0,.05c-.43-.19-.32-.72-.6-1h0a1,1,0,0,1-.46-.61l.06.06c-.46-.18-.35-.7-.59-1l0,.05c-.39-.23-.3-.73-.57-1l0,0c-.34-.25-.25-.73-.53-1h0c-.31-.27-.23-.74-.5-1v0c-.32-.28-.26-.74-.49-1.06l0,0c-.55-.36-.08-1.11-.56-1.5h0c-.45-.42-.05-1.11-.5-1.53h0c-.45-.47-.14-1.16-.47-1.67a.24.24,0,0,0-.07-.34c-.4-.49-.11-1.16-.44-1.67a.25.25,0,0,0-.06-.35c-.4-.49-.12-1.17-.43-1.68a.23.23,0,0,0-.07-.33c-.43-.44-.06-1.12-.46-1.56l0,0c-.51-.45-.17-1.16-.5-1.67a.24.24,0,0,0-.08-.33c-.41-.44,0-1.11-.46-1.55v0c-.49-.42-.11-1.11-.49-1.56l0,0c-.53-.46-.2-1.18-.51-1.71a.18.18,0,0,0-.06-.29c-.45-.43-.06-1.11-.48-1.55h0c-1.46.28-.76,1.45-.76,2.17-.06,6.88,0,13.75-.06,20.63,0,.8.3,1.67-.29,2.42l0-.06a1.92,1.92,0,0,1-.5.56h0a2.84,2.84,0,0,1-.53.51l0,0a3.14,3.14,0,0,1-.5.53h0a1.16,1.16,0,0,1-.73.47l-.79.11a3.73,3.73,0,0,1-2.49,0l-1.39-.1c-.66-.42-1.47,0-2.14-.4l-.84-.12c-.52-.32-1.21,0-1.7-.45l-.12-.1-.16,0a5.78,5.78,0,0,1-1.22-.39l-.19-.11-.22,0c-.47-.37-1.15,0-1.61-.45l-.15-.1-.19,0a9.82,9.82,0,0,1-1.16-.38l-.22-.1h-.25c-.44-.42-1.12-.05-1.56-.46l-.15-.11-.19,0a12.08,12.08,0,0,1-1.16-.38l-.23-.1-.24,0c-.44-.43-1.09-.08-1.55-.43l-.22-.1-.25,0c-.6-.53-1.44,0-2-.46l-.21-.1-.23,0c-.79-.54-1.78.07-2.58-.44l-.92-.07a18,18,0,0,0-6.26,0,2.42,2.42,0,0,0-1.41.09c-.67.4-1.49,0-2.16.4l-.87.1c-.49.34-1.13.06-1.62.41l-.21,0-.18.1c-.43.4-1.1,0-1.52.46h0c-.44.46-1.13.09-1.59.49h-.23l-.2.11c-.32.21-.74.16-1,.4h0c-.39.51-1.11.09-1.53.53h0c-.33.33-.8.31-1.2.47l-.17,0-.14.11c-.29.27-.74.19-1,.44l0,0c-.33.36-.81.34-1.22.49l-.16,0-.13.11c-.3.28-.74.21-1.06.44l0,0a1.07,1.07,0,0,1-1.49,0l-.13-.1-.15.05c-.41-.17-.92-.09-1.18-.57l.08.07c-.45-.16-.33-.7-.63-1h0c-.69-1.85.14-3.82-.48-5.68a.25.25,0,0,0,0-.36c-.68-1.33.12-2.83-.48-4.17a.26.26,0,0,0,0-.37c-.66-1.32.15-2.81-.47-4.14a.32.32,0,0,0,0-.4c-.57-1,0-2.2-.45-3.22a.17.17,0,0,0,0-.29c-.73-1.11.13-2.46-.52-3.58v0c-.71-1.13.12-2.48-.51-3.62a.32.32,0,0,0,0-.41c-.56-1,.06-2.19-.44-3.22l-.07-.81c-.61-1.33.15-2.81-.45-4.14a.29.29,0,0,0,0-.39c-.57-2.34-.1-4.72-.25-7.08a7.5,7.5,0,0,0-.21-2.67,16.84,16.84,0,0,0,0-4.86,16.2,16.2,0,0,1,0-6.58.86.86,0,0,0,0-.81,20.5,20.5,0,0,0,0-6.4,11.84,11.84,0,0,0,0-3.85,3.7,3.7,0,0,1,0-3,21.25,21.25,0,0,0,0-5.52C47.75,365.74,47.28,364.59,48.25,363.54Z"/><path fill="#fefefe" d="M461.7,418.68c-2.4,2.19-4.7,4.51-7.23,6.54a19.33,19.33,0,0,1-11.32,4.18c-5.72.34-11.08-1.16-16.49-2.58a137.17,137.17,0,0,0-16.34-3.61,73.49,73.49,0,0,0-14.29-.29A95.51,95.51,0,0,0,378.6,426a105,105,0,0,0-14,4.56,3.43,3.43,0,0,1-2.21.14A35,35,0,0,1,361.8,420c.81-6.43.41-12.9.77-19.34.69-12.14,1.39-24.27,2.77-36.36,1.36-11.91,2.44-23.86,3.9-35.77.87-7.08.78-7.22,7.79-8,8.67-.94,17.38-1.3,26.08-1.83,7-.42,13.92-.35,20.88-.48,5.71-.1,11.38.7,17.09.61,3.2-.05,4.07.77,4.4,3.92,1,9.6,2,19.19,3.62,28.71q5.36,31.14,9.92,62.41C459.31,415.84,459.81,417.62,461.7,418.68Z"/><path fill="#f24758" d="M401.21,183.91c2.45,4.55,3.62,9.52,4.58,14.54.68,3.54,1.27,7.09,2,10.62,2,10,10.44,14.91,18.58,15.67a35.17,35.17,0,0,0,9.76-.56c.77-.14,1.46-.32,1.72.77,1.05,4.47,3.51,8.32,5.59,12.32a9.75,9.75,0,0,1,1.15,5.52,38.54,38.54,0,0,0,.39,9.77,6,6,0,0,1-1,4.46,14.16,14.16,0,0,1-7.55,5.93c-.91.32-2.14.39-1.95,1.82.11.88,1,1,2.81.42a16.71,16.71,0,0,0,8.25-5.74,16.83,16.83,0,0,1,.91,4.56,103,103,0,0,0,1.2,14.24,8.33,8.33,0,0,1,0,3.48,8.68,8.68,0,0,0,.45,3.47c1,5,1.23,10.15,2,15.21.21,1.41.4,2.82.6,4.23.36,2.4-.35,3.54-2.59,4.4a12.1,12.1,0,0,1-3.71.6c-1.53.09-2.11.69-1.89,2.17a2.72,2.72,0,0,1-.09.74c-.37.83-.64,0-.68-.11-.45-1.9-1.71-1.93-3.22-1.43-11,1.69-22,1.28-33.1.78a82,82,0,0,0-21.19,2.29c-3.19.7-6.38,1.41-9.61,1.9-1.38-.1-2.84.45-4.13-.47-4.68-.5-6.84-4-7.08-8.3s1.05-8.25,1.77-12.35c.87-5,1.62-10,2.33-15.07a27,27,0,0,0,0-9.7c-.27-1.22-1.24-2.23-1-3.58,1.12-.29,1.91.45,2.74.95,2.57,1.57,5.36,1.68,8.23,1.38.72-.08,1.5-.18,1.88-1-.51-.76-1.2-.28-1.78-.22-2.87.29-5.68.37-8.16-1.44a2,2,0,0,0-2.89.38A25,25,0,0,1,362,255.88a3.69,3.69,0,0,0-.53-1.65c.29-1.64-.22-3.3.17-4.94,0-.11-.31-.32-.48-.48-.4-1.1.31-1.94.76-2.79,4.36-8.33,5-17.23,4.12-26.38a83.5,83.5,0,0,0-1.32-9.18,3.49,3.49,0,0,1,.24-2.44c.51-1.25,1.66-1.56,2.79-1.9a24.18,24.18,0,0,0,13.1-9.68,15.11,15.11,0,0,0,2.36-5,6.43,6.43,0,0,0,0-3.93,1.83,1.83,0,0,1,1.52-.72,65.08,65.08,0,0,0,14.41-3A2.18,2.18,0,0,1,401.21,183.91Z"/><path fill="#fba0a9" d="M471.77,240.46a27.37,27.37,0,0,1-.47-6c-.24-5.7-.54-11.39-2-17a35.07,35.07,0,0,0-9.66-16.78,3.92,3.92,0,0,1-1.29-2.59c-.86-9-5.06-16.4-11.38-22.67a75.86,75.86,0,0,0-6.77-6,29.85,29.85,0,0,1-11.69-20.12,122.54,122.54,0,0,0-4-19.41.27.27,0,0,1,.41-.06.78.78,0,0,0,.44.15,3.9,3.9,0,0,1,.61.46h0c.24.33.74.22,1,.56l0,0a3.28,3.28,0,0,1,1,.92.82.82,0,0,0,.43.09,8.2,8.2,0,0,1,1.58,1l0,0a5,5,0,0,1,.54.49h0c.27.3.76.2,1,.55l0,0a5,5,0,0,1,.55.47h0c.25.32.75.21,1,.55h0a9.26,9.26,0,0,1,1.53,1l0,0a4.19,4.19,0,0,1,.54.49h0c.17.16.33.34.51.48h0c.25.33.74.22,1,.56l0,0a4.28,4.28,0,0,1,.55.49h0c.48.39,1.06.62,1.51,1.05l0,0c.19.14.35.33.54.48h0c.46.4,1,.64,1.5,1h0a2.38,2.38,0,0,0,.52.43l.06.05c.19.37.71.23.92.58l0,0a1.88,1.88,0,0,1,.54.51l0,0a6.39,6.39,0,0,1,.54.5h0c.27.3.76.2,1,.55l0,0a1.65,1.65,0,0,1,.52.53h0a31.11,31.11,0,0,1,2.56,2l0,0a2.61,2.61,0,0,1,.52.53l0,0a4.1,4.1,0,0,1,.53.49h0c.26.3.76.2,1,.56l0,0a6.82,6.82,0,0,0,1.55,1.53l0,0a2.22,2.22,0,0,1,.54.52l0,0a2.56,2.56,0,0,1,.52.52h0a6.17,6.17,0,0,1,.54.48h0a3.29,3.29,0,0,0,.48.44l.6.57c.21.35.71.21.91.56l0,0c.35.19.21.69.56.89a.82.82,0,0,0,.41.12,1.58,1.58,0,0,1,.57.52l0,0a2.39,2.39,0,0,1,.54.51l0,0a3.73,3.73,0,0,1,.53.52l0,0a2.89,2.89,0,0,1,.51.54l0,0a2.18,2.18,0,0,1,.53.52l0,0a3.57,3.57,0,0,1,.53.5h0c.18.17.35.34.51.52h0a2.33,2.33,0,0,1,.5.54l0,0a1.87,1.87,0,0,1,.53.52l0,0a1.87,1.87,0,0,1,.52.53l0,0a1.35,1.35,0,0,1,.51.6.7.7,0,0,0,.1.4,1.68,1.68,0,0,0,.45.43l.05,0c.32.35.74.61.92,1.07v0a2.61,2.61,0,0,1,.53.52l0,0c.43.44.63,1,1.06,1.48h0a2.77,2.77,0,0,1,1,1.06v0c.35.23.23.73.56,1h0c.15.19.33.35.48.54l0,0c.31.22.18.7.53.9l.55.62c.25.27.13.73.48.95l0,0c.13.2.31.38.45.58a.74.74,0,0,0,.11.44c.68.51.83,1.4,1.43,2l0,0c.25.28.14.74.48,1l0,0c.25.3.18.74.46,1h0a1.86,1.86,0,0,1,.48.63.62.62,0,0,0,0,.38c.3.27.18.74.5,1h0c.27.29.19.75.49,1h0c.3.31.23.77.47,1.1a.72.72,0,0,0,.07.43c.27.28.17.73.46,1h0c.47.41.06,1.11.51,1.52h0c.31.27.22.75.51,1a1,1,0,0,0,.06.48c.25.32.17.76.43,1.07a.94.94,0,0,0,.05.44c.41.41,0,1.1.49,1.48v0c.27.3.21.74.45,1.05h0c.15.09.21.19.17.3s-.07.18-.12.18l.06.51c.25.32.18.76.42,1.09a.64.64,0,0,0,.05.41c.46.61.16,1.39.47,2v0c.47.44.11,1.14.49,1.61a.7.7,0,0,0,0,.35.43.43,0,0,0,0,.58v0c.63.76-.08,1.79.51,2.56,0,.33,0,.65,0,1,.49,1.14,0,2.39.43,3.53a.67.67,0,0,0,0,.42.38.38,0,0,0-.15.43c0,.12.1.18.16.18a.88.88,0,0,0,0,.48c.59,1.49-.17,3.12.44,4.61a.42.42,0,0,0,0,.31,3.63,3.63,0,0,0,0,2.71.44.44,0,0,0,0,.34c-.63,1.83.15,3.78-.46,5.61l0,.51q.19.17.12.33c0,.11-.09.17-.13.17v0c-.56.77.06,1.75-.44,2.53v.53a.73.73,0,0,1,0,1,.72.72,0,0,0,0,.41c-.47.63,0,1.46-.44,2.1a1.06,1.06,0,0,0,0,.47c-.64.94.17,2.13-.53,3.06l0,0c-.52.6,0,1.44-.47,2a.9.9,0,0,0,0,.46c-.43.43-.07,1.1-.45,1.54a.75.75,0,0,0-.07.44c-.39.46-.06,1.12-.44,1.58a.83.83,0,0,0-.06.44c-.4.46,0,1.15-.49,1.59h0c-.39,1.16-.33,2.45-1,3.54h0c-.56.57,0,1.44-.51,2h0c-.29.28-.2.75-.5,1h0C472.14,240.06,472.07,240.37,471.77,240.46Z"/><path d="M370.52,315.51c1.17,0,2.34-.49,3.52-.07a3.27,3.27,0,0,0,3.47,1.39c18.65-2.39,37.4-2.23,56.15-2.15,3.87,0,3.87,0,4.95-3.66a3,3,0,0,1,.36-.66,6.8,6.8,0,0,1,1.14-.35c2-.27,2-.26,2.14,1.88a2.71,2.71,0,0,0,.2.67l.06,1c.12,2.07.12,2.07,2.27,2.5a3.4,3.4,0,0,1,3.12,3.37c.59,4.57,1.15,9.14,1.64,13.72,1,9.25,2.73,18.38,4.24,27.55s3,18.53,4.41,27.79q2,12.66,3.88,25.33c.24,1.62.71,3.31-.37,4.86-2.21.15-2.65-.06-3-2-.71-4.21-1.27-8.46-1.93-12.68-1.26-7.95-2.67-15.88-3.79-23.85-2-14-4.85-27.94-6.66-42-.68-5.32-1.12-10.68-1.66-16-.24-2.34-.24-2.41-2.69-2.5q-9.19-.36-18.37-.58c-10.75-.25-21.48.43-32.2,1-6.28.35-12.54,1-18.81,1.49-1,.08-1.44.38-1.64,1.41-1,4.7-1.44,9.46-2,14.21-1.26,11.68-2.47,23.36-3.77,35-.53,4.76-.79,9.53-1.12,14.3-.76,11-1.1,22-1.44,32.95a58.24,58.24,0,0,0,.09,8.56,5.85,5.85,0,0,1-.43,2.69l0,0a.49.49,0,0,1-.48.38c-.45,0-.89.24-1.34,0a.94.94,0,0,1-.59-.3,7.55,7.55,0,0,1-1-4.08c-.14-6.88.23-13.76.47-20.63.39-11.49.89-23,2.16-34.41,1.64-14.76,2.77-29.57,5.06-44.25.33-2.15.82-4.28,1.33-6.4.28-1.12.59-2.32,2-2.64.65-.14.67-.64.65-1.16S370.53,316.09,370.52,315.51Z"/><path fill="#f2485a" d="M392,83.06l-1.19,0c-.33-.24-.8-.17-1.1-.48h0a1.61,1.61,0,0,1-.46-.6l.08.06c-.51-.69.14-1,.45-1.44l-.06,0c.54-.67,1.45,0,2-.56h0a1.31,1.31,0,0,1,.59-.48l0,0a.88.88,0,0,1,.55-.56l-.05,0a1.18,1.18,0,0,1,.5-.58l0,0c.27-.3.17-.8.57-1l0,0c.22-.34.14-.81.53-1.06l0,0c.23-.33.15-.79.51-1.06l0,0c.25-.3.17-.78.52-1l0,0c.26-.3.17-.79.54-1l0,0c.24-.31.14-.82.58-1l-.06.06a1.33,1.33,0,0,1,.46-.61h0c.3-.26.17-.8.63-1l-.06.06a.8.8,0,0,1,.52-.58l-.05,0a1.15,1.15,0,0,1,.53-.56l0,0a1.15,1.15,0,0,1,.56-.53l-.05,0a.91.91,0,0,1,.72-.53.19.19,0,0,0,.27-.13c.18-.14.37-.27.56-.39l-.05,0c.29-.39.78-.33,1.17-.51a.26.26,0,0,0,.33-.1c.32-.26.77-.2,1.11-.43a.38.38,0,0,0,.41-.13c.18-.13.37-.25.56-.37l0,0c.19-.38.72-.25.93-.61l0,0a1.62,1.62,0,0,0,.46-.48l0,0c.37-.21.23-.73.59-.94l0,0c.25-.32.16-.8.54-1l0,0c.23-.32.16-.8.53-1.05l0,0c.24-.32.16-.8.54-1.05l0,0c.24-.32.14-.81.56-1l-.05,0c.07-.25.29-.4.42-.6l0,0c.34-.22.21-.74.59-.95l0,0a1.76,1.76,0,0,1,.48-.57h0c.17-.18.34-.34.5-.52h0a6.28,6.28,0,0,1,.54-.49l0,0a1.26,1.26,0,0,1,.59-.48l-.06.06c.25-.45.76-.37,1.14-.56a.28.28,0,0,0,.34-.1c.34-.25.78-.22,1.15-.41a.32.32,0,0,0,.37-.11,1.39,1.39,0,0,1,.71-.39.23.23,0,0,0,.3-.15,1.91,1.91,0,0,0,.48-.42h0c.19-.16.35-.33.52-.49h0l.5-.51h0A10.21,10.21,0,0,1,418,52.46l-.07,0a.82.82,0,0,1,.52-.59l0,0a1.25,1.25,0,0,1,.51-.58l0,0a4.15,4.15,0,0,1,.46-.56h0c.86-1.13,1.75-2,3-.46v0a1,1,0,0,1-.06,1.47l0,0a4.2,4.2,0,0,1-1.07,1.53l.06-.05a1,1,0,0,1-.51.58l0,0a1.79,1.79,0,0,1-.5.56v0a13.28,13.28,0,0,1-2.14,2.47l.06-.05a.67.67,0,0,1-.55.56l.06-.06c-.33.57-1,.72-1.46,1.13h0a1.21,1.21,0,0,1-.74.46l-.16,0-.11.11c-.3.26-.74.19-1.05.44l0,0c-.38.52-1.11.07-1.51.55h0c-.19.18-.35.39-.62.43l0,0a11.76,11.76,0,0,1-1,1.1l0,0a8,8,0,0,1-1,1.58h0c-.29.28-.2.76-.53,1v0c-.27.3-.18.77-.51,1v0c-.27.29-.19.77-.52,1l0,0c-.28.29-.18.78-.56,1l0,0a5.56,5.56,0,0,1-1.93,2.1l0,0c-.21.13-.36.33-.58.44l0,0c-.23.36-.73.26-1,.55h0c-.29.31-.74.25-1.06.49l0,0c-.38.54-1.11.11-1.53.55l0,0c-.26.34-.73.26-1,.52l0,0a1.13,1.13,0,0,1-.59.49l0,0a.83.83,0,0,1-.56.56l.05,0a1,1,0,0,1-.52.58l0,0a2,2,0,0,1-.47.58h0c-.31.26-.2.77-.6,1l.05-.06c-.07.25-.29.39-.42.6l0,0c-.35.22-.23.7-.51,1h0a16.29,16.29,0,0,1-1,2v0c-.34.24-.24.7-.5,1v0c-.34.24-.22.73-.56,1l0,0a6,6,0,0,1-2,2.07h0a2.61,2.61,0,0,1-.58.46l.05,0C392.88,82.94,392.38,82.91,392,83.06Z"/><path fill="#f39aa4" d="M447.7,281.73c-.81-1.08-.57-2.41-.8-3.61a54.33,54.33,0,0,1-.79-12.92,5.13,5.13,0,0,1,.35-1.18c.89,5.55,2,11.07,2.56,16.67Z"/><path fill="#f4606f" d="M384.14,24.66a.24.24,0,0,0,0-.31,1,1,0,0,1,.52-.67l-.05,0a1.21,1.21,0,0,1,1.51-.11l0,0a1.49,1.49,0,0,1,.47,2.05l0,0c-.2.13-.35.31-.54.46l0,0a.68.68,0,0,1-1,.05l-.13-.09-.16,0c-.53-.12-.42-.7-.72-1h0a.3.3,0,0,1-.13-.33C384.06,24.72,384.1,24.66,384.14,24.66Z"/><path fill="#b4c3c3" d="M472.31,416.27l2.51-.17c.14.12.19.24.14.36s-.1.18-.15.18c-.68.14-1.26.63-2,.52Z"/><path fill="#fefefe" d="M394.21 100.26a1.1 1.1 0 01-.54-1A1 1 0 01394.21 100.26zM393.2 98.75l-.42-.48zM393.69 99.29l-.49-.54zM394.71 100.79l-.5-.53z"/><path fill="#fba0a9" d="M70.77,108.87A117.43,117.43,0,0,0,76.9,124a45.6,45.6,0,0,1,4,14.2,4.82,4.82,0,0,1-.22,2.72c-3.24,6.66-6.89,13.06-12.31,18.23-2.24,2.13-4.72,3.95-6.74,6.36a22.73,22.73,0,0,1-8.42,5.83A89.9,89.9,0,0,1,40,175.91a36.38,36.38,0,0,0-7.56,2.68A25.27,25.27,0,0,0,20.63,191.5c-3.37,7.93-4.6,16.24-4.85,24.77-.25,8.22-1.31,16.38-1.77,24.59,0,.15-.15.29-.22.44a4.06,4.06,0,0,0-1.49-2.76A35.63,35.63,0,0,1,1,218.09a59.11,59.11,0,0,1-.85-15.47,57.09,57.09,0,0,1,4-16.25c1.38-3.59,2.89-7.12,4.46-10.62s3.31-7.12,5.24-10.55c1.73-3,3.16-6.28,4.93-9.3,2.19-3.74,4.58-7.36,6.91-11a64.88,64.88,0,0,1,6.58-8.54,2.09,2.09,0,0,0,.6-1.34c2.06.6,4.05,1.43,6.18,1.83a2.89,2.89,0,0,1,2.18,2.25,11.37,11.37,0,0,0,6.61,8,6,6,0,0,1,2.32,2.59c.41.7.68,1.54,1.57,1.89a6,6,0,0,0-3.21-5.86,10.7,10.7,0,0,1-5.9-7c-.59-2.06-2.28-3.16-4.44-3.64-1.27-.28-3-.17-3.35-2,1,.07,1.48-.7,2.11-1.22a193.33,193.33,0,0,1,27.11-19C66.31,111.52,68.76,110.56,70.77,108.87Z"/><path fill="#f2485a" d="M225.39 8a.68.68 0 00.42.57 1.15 1.15 0 00.56 1 1.21 1.21 0 00.53 1 1.17 1.17 0 00.48 1 27.15 27.15 0 011.06 7.91 5.1 5.1 0 00.44 2.69 3.3 3.3 0 001.67 2.92c3.11 2.41 4.45 5.64 5 9.45s2 7.07 5.46 9.18a2.82 2.82 0 01.7.72c.5.64.79 1.35.11 2s-1.19.15-1.76-.24a15.23 15.23 0 01-6.74-9.88c-.09-.49-.33-1-.39-1.45a10.46 10.46 0 00-4.26-7.64C227 26 226.45 24.05 226 22.11c-.07-1.33-.16-2.66-.19-4a15.13 15.13 0 00-2.4-8c-1.14-1.74-2.25-3.5-3.38-5.26-.45-.69-.67-1.45 0-2s1.57-.23 2.15.48c.37.45.69.95 1 1.43C223.92 5.81 224.66 6.92 225.39 8zM34.86 133c.93 1.17 2.34 1.26 3.62 1.45a5.94 5.94 0 014.91 4.14 8 8 0 01.47 1.43 5.44 5.44 0 003.56 4.23c2.76 1 4.1 3.32 5.27 5.78a2.77 2.77 0 01.28.7c.11.66.29 1.39-.49 1.77a1.23 1.23 0 01-1.73-.57c-1.25-3.18-3.76-5-6.64-6.51a5.39 5.39 0 01-2.56-3.6c-.18-.74-.45-1.44-.66-2.17a3.26 3.26 0 00-3.28-2.6A7.11 7.11 0 0132.9 135c-1.31-1.65-1.51-3.68-1.92-5.63-.16-.73-.26-1.48-.41-2.22a5.58 5.58 0 00-4.59-4.7 17.83 17.83 0 01-2.85-.91 3.73 3.73 0 01-2.1-2.06 1.26 1.26 0 01.47-1.74 1 1 0 011.5.37c.77 1.34 2.08 1.61 3.39 1.85 4.07.77 6.11 3.43 6.93 7.29C33.74 129.21 33.78 131.27 34.86 133z"/><path fill="#f2495b" d="M115.89,32.68c0-1,0-1.73.79-1.94s1.34.43,1.52,1.24c.32,1.39.64,2.78,1,4.16a3.38,3.38,0,0,0,3.1,2.84c.42.05.82.2,1.24.22A4.72,4.72,0,0,1,128,42.7,4.55,4.55,0,0,0,131.4,46a5.14,5.14,0,0,1,3.53,3,4,4,0,0,0,1.94,2.21,1.24,1.24,0,0,1,.68,1.86c-.46.8-1.22.7-2,.45a3.73,3.73,0,0,1-2.39-2.09,5.26,5.26,0,0,0-3.81-3.29,4.8,4.8,0,0,1-3.42-3.4,3.84,3.84,0,0,0-3.72-3.08c-3.14-.26-4.95-2.23-5.59-5.27C116.34,35,116.1,33.71,115.89,32.68Z"/><path fill="#f46070" d="M98.75 44.39c-.84-.06-1.34-.47-1.32-1.24A1.19 1.19 0 0198.76 42a1.1 1.1 0 011.12 1.11A1.16 1.16 0 0198.75 44.39zM1.55 246.94c-.76 0-1.28-.31-1.32-1a1.27 1.27 0 011.33-1.43 1 1 0 011.07 1.09A1.24 1.24 0 011.55 246.94z"/><path fill="#f2485a" d="M313 24.12a1.16 1.16 0 00-.41 1A26.6 26.6 0 00311.56 28a24.6 24.6 0 01-5.72 11c-2.12 2.24-2.3 4.86-1.62 7.51a7.83 7.83 0 01-2 7.87 11.52 11.52 0 00-3.35 9.37 18.85 18.85 0 01-1.2 8.39c-.66 1.67-1.52 2.32-2.24 1.76-1.07-.83-.31-1.79-.05-2.73a18 18 0 00.89-7.91 11.23 11.23 0 012.34-8.71 2.83 2.83 0 01.33-.37c2.41-2.5 3.68-5.28 2.47-8.83-.82-2.42-.07-4.62 1.34-6.64a20.16 20.16 0 011.34-1.81c3.1-3.51 4.55-7.75 5.48-12.23h0c.16-.17.29-.37.45-.56l.15-.88c1.38-1.5 1.38-1.5 2.92-.58zM319.6 149.83a9.71 9.71 0 01-.42 1.12 18.25 18.25 0 01-1.39 2.67 20 20 0 00-3.49 7.72c-.64 3.18-2.88 5.33-5.33 7.09a9.92 9.92 0 00-4 6.69 35.87 35.87 0 01-2.05 7.75 18.77 18.77 0 01-2.51 4A5.83 5.83 0 01299.1 188c-.75.52-1.62.74-2.24-.08s.16-1.35.73-1.83c2.86-2.36 3.57-5.75 4.35-9.09.23-1 .41-2 .57-3a11.21 11.21 0 015.11-8 9.84 9.84 0 004.43-6.72 14.72 14.72 0 012.13-5.07c1-1.63 1.92-3.34 2.88-5a1.31 1.31 0 011.44-.78C319.13 148.62 319.41 149.15 319.6 149.83zM254.63 121.35a1.94 1.94 0 01-.6 1.35 8 8 0 00-1.93 6 9.54 9.54 0 010 2c-.26 1.48-1.41 2.07-2.46 1-2.06-2-4.48-1.95-7-1.79a13 13 0 01-1.76 0c-1.64-.09-2.12-.8-1.43-2.29a29.66 29.66 0 002.2-5.59 6.63 6.63 0 00-.08-3.67 1.33 1.33 0 01.69-1.7 1.26 1.26 0 011.78.35c1.38 2 3.53 2 5.57 2.28 1.16.17 2.35-.11 3.5.25C253.89 119.93 254.62 120.31 254.63 121.35zM231.41 244.49a1.54 1.54 0 01-1.29 1.43 9.91 9.91 0 00-6.38 5.27c-.94 1.7-1.89 1.66-3 .11a8 8 0 00-4.93-3.62c-.84-.17-1.66-.48-1.85-1.46s.54-1.39 1.13-1.8a12.22 12.22 0 005.15-6.28c.45-1.39 1.42-1.48 2.53-.51a2.06 2.06 0 01.49.57c1.43 2.61 3.8 3.91 6.53 4.72C230.62 243.17 231.42 243.47 231.41 244.49zM167.89 96.56c0-.27-.11-1.06.75-1.26 1-.24 1.4.51 1.47 1.29.33 3.55 2.63 5.31 5.64 6.66a13.86 13.86 0 017.82 9 5.69 5.69 0 003.54 4 15.81 15.81 0 012.88 1.51 1.39 1.39 0 01.46 2c-.42.76-1.07.64-1.74.3-1.42-.72-2.87-1.37-4.25-2.16a7.12 7.12 0 01-3.29-4.29 12.9 12.9 0 00-7.6-8.47A8.65 8.65 0 01167.89 96.56zM216.26 190.52a4.6 4.6 0 110-9.17 4.59 4.59 0 110 9.17zM331.72 72.86a4.62 4.62 0 01-4.37-4.34A4.83 4.83 0 01331.62 64a5 5 0 014.54 4.25A4.76 4.76 0 01331.72 72.86z"/><path fill="#f35464" d="M163.86,160.63a1.31,1.31,0,0,1-1.37,1.42c-.8,0-1.12-.57-1.12-1.31s.41-1.46,1.31-1.43S163.79,159.9,163.86,160.63Z"/><path fill="#f35364" d="M316.07 90.9a1.25 1.25 0 01-1.32-1.23 1.12 1.12 0 011.09-1.17 1.1 1.1 0 011.27 1.2C317.13 90.43 316.64 90.7 316.07 90.9zM186.09 66.52a1 1 0 01-1-1.16 1.07 1.07 0 011.16-1.07 1.14 1.14 0 011.16 1.34C187.31 66.32 186.74 66.53 186.09 66.52z"/><path fill="#f35061" d="M270.24,204.62a.89.89,0,0,1-.91,1c-.56,0-1-.19-1-.81a1,1,0,0,1,1.06-1.12C270,203.64,270.21,204.07,270.24,204.62Z"/><path fill="#f35162" d="M325.2,229.85a.82.82,0,0,1,1,.88c0,.56-.2,1-.83,1a.93.93,0,0,1-1-.87C324.25,230.27,324.65,230,325.2,229.85Z"/><path fill="#fffefd" d="M166.38 358.74c-7 1.94-14 4-21.09 5.8-9.11 2.36-18.27 4.43-27.75 4.54A135.85 135.85 0 0194 367.68a142.61 142.61 0 01-14.47-3.23 70.66 70.66 0 00-28.42-2.11c-1.32-7.38-.28-14.73.26-22.09.75-10.38 2.18-20.69 2.46-31.12a120.31 120.31 0 00-2.94-31c-.71-3-1.27-6.07-1.85-9.12a36.58 36.58 0 00-2.31-7.17A2.88 2.88 0 0043.74 260c-1.26.12-1.58 1.09-1.88 2.07-1.77 5.68-3.29 11.42-4.62 17.35-3.77-.54-7.4-1.49-11.07-2.25s-7.39-1.49-11.09-2.26c-1.92-.4-1.93-.42-1.65-2.2 1.57-9.94 3.08-19.91 4.1-29.92 1-9.69 1.85-19.39 2.19-29.13a61.22 61.22 0 014-19.64c2.84-7.5 8.2-12.08 15.87-14.08a89.14 89.14 0 0014-4.76 32.75 32.75 0 009-5.76 30.83 30.83 0 01.3 9.81c-.16 1.41-.44 2.82-.65 4.23-.06.33-.09.66-.12 1-.13 1.31 0 2.56 1.32 3.24s2.29 0 3.19-.84a72.17 72.17 0 007.91-7.73c1-1.23 2.18-2.34 3.24-3.52.76-.87 1.43-.83 2.35-.13 2.47 1.88 5 3.69 7.41 5.64a18.24 18.24 0 016.24 9.23c.16.56.41 1.1.61 1.64.29.33.23.77.41 1.13a.36.36 0 00.11.38 4.11 4.11 0 01.38 1.17c1.26 6.42 2.68 12.81 3.39 19.33 1.36 12.43 3.27 24.79 5.33 37.12 1.42 8.44 3 16.85 4.16 25.34.88 6.66 1.35 13.36 1.83 20.06 1 14.24 1.25 28.52 1.6 42.79.19 8.15.64 16.28 1.24 24.41.16 2.13.76 3 2 2.9s1.86-1 1.71-3.08c-1.21-17-1.35-34.06-1.94-51.1a384.21 384.21 0 00-6.38-59.27c-1.77-9.23-3.1-18.54-4.32-27.86-1.27-9.73-2.26-19.51-4.47-29.1a28.3 28.3 0 00-1.49-5.06 3.42 3.42 0 01.41-3.52 25.25 25.25 0 013.23-4.17c3-3 6-5.93 9-8.82 1.9-1.81 2-1.78 3.84-.08s3.57 3.31 5.35 5c.37.34.72.71 1.11 1 2.37 1.93 4.52 1.18 5.14-1.85.2-1 .2-2 .31-3a2.89 2.89 0 01.43-1.78c1.78 1.06 3.62 2.06 5.35 3.22 5.83 3.89 12.2 6.66 18.66 9.28 2.56 1 5.11 2.11 7.63 3.24a17.34 17.34 0 018 7.4 57.65 57.65 0 014.26 9.65c5 14.06 10 28.13 13.64 42.63 1.82 7.23 3.81 14.43 5.72 21.64a3.21 3.21 0 00.25 1c1.72 2.55.4 4.07-1.53 5.8-5.32 4.76-10.46 9.72-15.67 14.6-.67.62-1.37 1.21-2.22 2-.69-1.18-1.33-2.22-1.92-3.29-4.79-8.75-9.71-17.44-14.17-26.38a48.36 48.36 0 01-2.47-5.5c-.33-.93-.87-1.69-2-1.58s-1.5.92-1.66 1.92a54.46 54.46 0 00-.45 9.8 85.11 85.11 0 003 19.35c3.12 12.54 5.66 25.21 8.13 37.89 1.59 8.15 3.83 16.16 5.29 24.34.24 1.32.46 2.65.76 3.95.49 2.13.78 2.34 3 2.5C168.36 358.66 166.88 358 166.38 358.74zM487.52 412.18c-.49-2.45-.94-4.9-1.47-7.34-.42-1.93-.9-2.16-3-1.62-.85.81-.21 1.85-.41 2.76-.1.49.25 1.25-.74 1.2-.82-2.52-1-5.2-2-7.69-.3-.77-.55-1.56-.92-2.29a2.73 2.73 0 00-2.55-1.68 2.55 2.55 0 00-2.37 1.88 7.71 7.71 0 00-.32 1.19c-.5 2.74-.05 5.5-.25 8.24 0 .6.56 1.55-.63 1.79-.09-2.6-.47-5.18-.72-7.76-.72-7.29.69-14.39 1.42-21.55s1.48-14.09-.34-21c-1.17-4.45-2.85-8.76-4.21-13.17-4.57-14.81-9.12-29.64-13-44.65-1.5-5.77-1.82-11.76-2.77-17.64-1.33-8.28-2.58-16.58-3.82-24.87-.85-5.73-1.61-11.48-.87-17.29a5.37 5.37 0 00-.81-3.12c-1.49-2.91-3-5.81-4.45-8.74a23.7 23.7 0 01-1.8-4.68c-.28-1.08-.08-1.64 1.05-2.08a36.28 36.28 0 006.8-3.79 21.09 21.09 0 008.35-11.32c.21-.64.42-1.27.69-2.07a24 24 0 014.89 7c2.79 5.87 3.69 12.16 4 18.56.54 11.32.92 22.65 1.58 34A173.86 173.86 0 00472.57 289c.7 3.45 1.39 6.9 2.19 10.33.43 1.82-.1 3.49-.43 5.21-.16.82-.4 1.63-.52 2.46s-.26 1.55.56 2c1 .61 1.42-.35 2.18-1.31 1 4.79 1.9 9.18 2.83 13.57 1.56 7.33 2 14.79 2.53 22.24.62 8.37 1.41 16.72 3.46 24.89a28.69 28.69 0 011 8c-.27 6.86 1 13.54 2.29 20.21a61.63 61.63 0 011.25 8.46 14.79 14.79 0 01-1.61 8C487.37 413.41 487.9 412.4 487.52 412.18zM364.92 208A82.83 82.83 0 01367 228.9a40.13 40.13 0 01-5.88 19.91A31.73 31.73 0 00353 260.67c-4 10.74-8.62 21.27-13.35 31.73a85.84 85.84 0 01-8.76 14.66c-7.31 10.14-14.88 20.09-22.8 29.76a252.47 252.47 0 00-16.16 21.82 111.16 111.16 0 01-13 16.6 100.34 100.34 0 00-10.95 13.45 13.23 13.23 0 01-6.66 5.51c-.58.11-.77-.15-.66-.7a27 27 0 003.49-4.26 9.19 9.19 0 001.37-4.27c.1-2.6-1.61-4.06-4.18-3.65a10.28 10.28 0 00-4.11 1.81 57.63 57.63 0 00-10.52 8.94 16 16 0 01-3.55 3.34 11.19 11.19 0 01-.88-7.41 26.67 26.67 0 013.77-9c.45-.76.89-1 1.81-.66a11.45 11.45 0 003.16.79c2.28.25 3.85-1 3.78-3.26 0-1.53.58-1.83 1.81-2a72 72 0 009-2.27 20.56 20.56 0 0010.64-7.64 143.48 143.48 0 008.92-13.39c6.8-11.67 14-23.1 20.84-34.72 2.13-3.61 4.22-7.25 6.18-10.95a18.81 18.81 0 015.86-6.78c.79-.55 1.56-1.07 1.05-2.22-.26-.72-1.73.18-1.54-1.14 3.34-6.58 6.63-13.19 10.05-19.72 5.83-11.16 11-22.6 15.75-34.27 1.29-3.19 2.64-6.35 4.09-9.47a73.49 73.49 0 0112-18.48A27.71 27.71 0 01364.92 208z"/><path fill="#fffefd" d="M95.73 185.07c-2.45-4.54-6.24-7.4-10.17-9.94-3.29-2.11-5.82-4.49-7-8.37-.73-2.47-2.15-4.72-3-7.16a3.31 3.31 0 01.44-3.47 69.27 69.27 0 007.75-13.5 7.06 7.06 0 012.34-2.86 30.87 30.87 0 008.61-10.06 15.1 15.1 0 001.67-5.24A3.11 3.11 0 0094.55 121a15.84 15.84 0 01-1.76-1c-3.73-2.51-4.11-6.19-3.3-10a2.25 2.25 0 012.23-2 2.38 2.38 0 012.34 1.91c.41 1.19.81 2.38 1.18 3.58a7.56 7.56 0 002 3.42 4.23 4.23 0 006.6-.37 10.19 10.19 0 002-4.3 17.16 17.16 0 00.42-2.23 6.26 6.26 0 012.91-4.74 11.37 11.37 0 004.34-5.42 11.55 11.55 0 011-2c1.2-1.94 1.71-2.13 3.9-1.5 2.74.78 5.48 1.55 8.21 2.38a41.72 41.72 0 009.41 1.52c1.76.12 2.07-.32 2 2.21-.08 2.94-.22 5.87-.4 8.8a26.54 26.54 0 001.28 10.16c1 3.11.91 3.29-2.07 4.88a16.36 16.36 0 00-1.54.85c-2.15 1.45-2.83 3.22-2 5.64a2.09 2.09 0 01-.36 2.45c-1.24 1.48-1.26 2.26-.09 3.81a1.87 1.87 0 01.26 2.24 30.74 30.74 0 00-1.95 4.87c-.71 2.76-2.87 3.49-5.4 3.55-1.76 0-3.53 0-5.29.06a13.55 13.55 0 00-4.9 1c-3.56 1.54-6.72 6.09-2.94 10.72a2.91 2.91 0 01.39 3.78 9.76 9.76 0 00-.8 2.11 6.18 6.18 0 01-2.41 3.06 88.29 88.29 0 00-12.89 13C96.63 183.84 96.3 184.32 95.73 185.07zM14.84 287.11c4.16 1 8.06 1.93 12 2.81 1.79.4 3.62.7 5.44 1 1.14.17 1.5.61 1.32 1.84-.7 4.82-1.62 9.6-2 14.46-.35 5.2-.84 10.38-.83 15.59 0 9.32-.81 18.61-1.29 27.91-.33 6.37-1.06 12.71-1.15 19.1a14.92 14.92 0 002.12 7.9 68 68 0 005.26 7.37 37.16 37.16 0 012.45 3.5 7.34 7.34 0 011.07 5.54 6.9 6.9 0 001.27 5.94 2.51 2.51 0 01.64 1.86 18.38 18.38 0 00.52 8.78 4.78 4.78 0 01-3.24-4.48 30.31 30.31 0 00-2-8.55 7.84 7.84 0 00-1.33-2.4c-1.44-1.59-3.28-1.38-4.34.49a7.19 7.19 0 00-.86 3.13c-.35 6.17-.13 12.25 3.21 17.77.77 1.29.49 2.68.55 4.31-3.88-2.33-5.8-5.38-5.67-9.63 0-1 .13-2 .08-3s-.43-1.65-1.48-1.73a1.58 1.58 0 00-1.82 1.63c-.33 3.36-.56 6.71 1.07 9.86.15.29.27.59.58 1.27a11.41 11.41 0 01-4.1-2.11c-.63-.48-.48-1.21-.48-1.87a46.9 46.9 0 01.42-8 9.64 9.64 0 00.2-1.5c0-.91-.27-1.71-1.26-1.91s-1.7.41-2 1.42a50.64 50.64 0 00-.94 5.53 5.05 5.05 0 01-1.08-3.1 26.53 26.53 0 01.28-5.77 83.48 83.48 0 001.29-15.78c-.09-4.28-.86-8.34-3.43-11.89a6.32 6.32 0 01-1.14-4.52c.45-4.53 0-9.05-.22-13.58q-.23-4.14-.32-8.3Q13.3 329 13 310.17C12.86 302.51 13.88 295 14.84 287.11zM176.54 304.72L195.4 288c.26.22.53.34.61.53 3.2 8.3 7.21 16.24 10.93 24.3a266.34 266.34 0 0110.88 27c2.43 7.28 6 13.84 11.79 19a52.21 52.21 0 006.83 5.12c3.48 2.2 6.94 4.41 10.37 6.67a10.69 10.69 0 014 4.48 14.34 14.34 0 01-4.68-1.59 34.26 34.26 0 00-3.67-1.64 1.78 1.78 0 00-2.51 1 1.92 1.92 0 001.15 2.47 6.62 6.62 0 012.25 1.3c-2.25 3.78-4.44 7.63-5 12.2-4.53-1.27-7.79-4.08-10.61-7.51A50.26 50.26 0 01223 374a136.13 136.13 0 00-15.62-22.8c-6.48-7.45-11.39-16-16.73-24.19-4.39-6.75-8.8-13.49-12.87-20.44C177.39 305.91 176.93 305.31 176.54 304.72zM401.21 183.91a82.27 82.27 0 01-13.82 3.4 37.69 37.69 0 01-4.25.22c-.1-.14-.26-.27-.27-.42a30.35 30.35 0 00-4-11.78c.17-.18.25-.36.36-.38a1.73 1.73 0 001.52-2c-.11-1.22-1-1.62-2.09-1.82-3.32-.63-6.54-.54-9.43 1.44a6.46 6.46 0 01-4.24 1.26 2.53 2.53 0 01-2.62-1.9 9.23 9.23 0 00-2.81-4.95 1.07 1.07 0 01-.34-1.14 2.75 2.75 0 00.09-.5c.07-.59.17-1.35-.25-1.69-2.17-1.79-1.61-4.73-3-6.82a3 3 0 00-2.18-1.13 5.33 5.33 0 01-2.77-1 .31.31 0 010-.46 16.94 16.94 0 002.52-11.55c-.2-2-.18-4-.28-6a1.73 1.73 0 011-1.73c2.76-1.79 5.57-2.69 8.8-1.55a1.22 1.22 0 001.69-.65c.36-.88-.16-1.45-.95-1.75a10.85 10.85 0 00-7.85.23 10 10 0 01-2.7 1.14c.3-4.78 1.09-9.32 3.75-13.37.87 0 1 .82 1.38 1.33a48 48 0 0014.4 14.2 60 60 0 019.24 7.37 20.76 20.76 0 017 14.08 36.65 36.65 0 007.53 19.93A25.9 25.9 0 01401.21 183.91z"/><path fill="#fefdfc" d="M170.66 304.24c-2-2.69-2-2.73.09-4.71q11.69-10.89 23.43-21.72c1-.91 2.07-1.68 3.13-2.53 2.19 4.05 2.09 3.46-.62 6.23-5.35 5.46-11.44 10.1-17 15.37A92.38 92.38 0 01170.66 304.24zM37.75 287.72c-6.69-.45-13-2.11-19.37-3.68-3.17-.78-6.34-1.56-9.53-2.26-1-.21-1.32-.59-1-1.53a1.09 1.09 0 00.07-.24c.51-2.91.5-2.88 3.31-2.3 8.62 1.78 17.13 4 25.78 5.59.5.09 1 .25 1.47.38 2.46.62 2.65 1.14 1.54 3.43C39.41 288.36 38.41 287.49 37.75 287.72zM66.84 181.43a2.15 2.15 0 01-.2-1.8 43.34 43.34 0 00-.35-11.49 3.43 3.43 0 011.47-3.88 51.59 51.59 0 004.08-3.37c1.36 3 2.65 5.92 3.93 8.8 1 2.14.55 2.11-.78 3.37-1.81 1.72-3.4 3.68-5.09 5.53A16.88 16.88 0 0166.84 181.43z"/><path fill="#f04658" d="M432.54 218.68c-6.47 0-11.4-3-15.15-8.07a31 31 0 01-3.81-7.63 4.52 4.52 0 01-.28-1.22 1.21 1.21 0 01.71-1.45c.81-.3 1.25.22 1.53.89.49 1.16.92 2.34 1.43 3.49a19.85 19.85 0 006.78 8.57A15.4 15.4 0 00445 209.57c.52-.74.94-1.73 2.12-1.26.89.35.89 1.46.07 2.86C444.72 215.37 438.17 218.73 432.54 218.68zM74.23 101.13c0-5.68 1.37-10.93 5-15.47S87.69 79.31 93 78.18c.77-.17 1.57 0 1.78.92s-.43 1.36-1.2 1.61c-.56.18-1.13.33-1.7.47-10.28 2.41-14.46 9.72-15.1 18.54a22 22 0 00.23 6 12.49 12.49 0 01.15 1.5c.06.78.08 1.63-.94 1.75s-1.41-.71-1.52-1.6c-.19-1.58-.36-3.16-.5-4.74C74.19 102.14 74.23 101.63 74.23 101.13z"/><path fill="#ef4658" d="M421.18 137.18c1 .16 1.31 1 1.57 1.77a33.24 33.24 0 011.16 6.93 42.41 42.41 0 001.93 8.81 25.86 25.86 0 007.37 11.21 13.43 13.43 0 011.12 1c.49.5.88 1.08.35 1.77a1.33 1.33 0 01-2 .17 17.09 17.09 0 01-1.95-1.56 29.33 29.33 0 01-8.79-17.12c-.39-2.31-.66-4.64-.89-7a21.92 21.92 0 00-.87-4.17C419.85 138 420.39 137.15 421.18 137.18zM368.41 116.52c.69.13 1 .72 1.42 1.27a34.83 34.83 0 005 6 51.09 51.09 0 006.82 5.16 63.54 63.54 0 0110.3 8 7 7 0 011.72 2.15 1.29 1.29 0 01-.27 1.61 1.17 1.17 0 01-1.6-.08 3.85 3.85 0 01-.57-.5c-3.47-3.83-7.69-6.73-11.95-9.58a37.5 37.5 0 01-11.22-11 7.22 7.22 0 01-.86-1.53A1.16 1.16 0 01368.41 116.52z"/><path fill="#ee4658" d="M132.83,92.21c6.84.47,10.83-4.23,11.43-10.5.08-.78,0-1.62,1.06-1.67s1.37.73,1.46,1.65c.53,5.38-4.77,12.17-10.23,13a14.75,14.75,0,0,1-5.26.17c-.89-.19-1.71-.48-1.57-1.57s.92-1.06,1.73-1.05C132,92.22,132.62,92.21,132.83,92.21Z"/><path fill="#fcfbfa" d="M117.23,164.73a7.25,7.25,0,0,1,2.71,1.38,5,5,0,0,1,2.68,4.95c-.15,1.71,0,3.44,0,5.69l-7.08-6.13a.89.89,0,0,1-.28-1.11C115.94,167.93,116.22,166.17,117.23,164.73Z"/><path fill="#ea4556" d="M363.41,193.76a12.78,12.78,0,0,1,.6-4.21,7.23,7.23,0,0,1,.91-1.77c.41-.56,1-1,1.72-.5a1.19,1.19,0,0,1,.45,1.54c-.11.32-.28.62-.39.93a10.44,10.44,0,0,0-.31,7.12c.26.77.45,1.57-.45,1.95s-1.53-.34-1.92-1.12A8.55,8.55,0,0,1,363.41,193.76Z"/><path fill="#ededec" d="M481.91,407.18c.76-.65.36-1.53.43-2.31s-.09-1.35.72-1.65c-.68,1.83-.24,3.64.2,5.39a27.42,27.42,0,0,1,.56,9.16,4.2,4.2,0,0,1-1.83,3.59c-.56.07-.88-.09-.72-.73A46.67,46.67,0,0,0,481.91,407.18Z"/><path fill="#eb4557" d="M121.16,80.78c-.56,0-1.48,0-2.4-.16-.72-.09-1.29-.46-1.24-1.29a1.13,1.13,0,0,1,1.38-1.12,18.08,18.08,0,0,0,6.47-.48c.71-.15,1.41,0,1.67.72s-.3,1.38-1.06,1.7C124.54,80.75,123,80.66,121.16,80.78Z"/><path fill="#e44354" d="M451.09,194a7.17,7.17,0,0,1-.7,3.43,1.22,1.22,0,0,1-1.64.71,1.14,1.14,0,0,1-.61-1.47,9.24,9.24,0,0,0,.08-4.67,1.14,1.14,0,0,1,1-1.48c.81-.14,1.25.4,1.42,1.09C450.84,192.52,451,193.43,451.09,194Z"/><path fill="#e24354" d="M388.88,111.15a11.21,11.21,0,0,0-3.63-.33c-.83,0-1.58-.2-1.58-1.17s.73-1.28,1.54-1.31a9.21,9.21,0,0,1,4.2.4c.65.29,1.25.7,1.09,1.48A1.21,1.21,0,0,1,388.88,111.15Z"/><path fill="#e4e6e6" d="M475.64,415.69c1.24-1.16,1.42-2.73,1.59-4.28.11-1.06.12-2.13.18-3.19,1.3-.1.32,1.17.91,1.5,0,1.21,0,2.43.11,3.64a2.12,2.12,0,0,1-1.56,2.41A.91.91,0,0,1,475.64,415.69Z"/><path fill="#d33d4d" d="M123,95.18a1.54,1.54,0,0,1-1.46-1.5c.08-.85.67-1.06,1.41-1.06,1.18,0,2,.61,1.92,1.45S124.19,95.18,123,95.18Z"/><path fill="#878181" d="M472.92,408.62c.77-1.58.35-3.26.44-4.89s-.36-3.48.44-5.14c.08,3.85.16,7.7,0,11.54-.29.37-.58.37-.89,0A3,3,0,0,1,472.92,408.62Z"/><path fill="#d0d1d1" d="M472.84,420.84l4.59-1.44c0,2-1.28,1.87-2.41,2C474.25,421.39,473.3,422.14,472.84,420.84Z"/><path fill="#bfc1c0" d="M472.84,420.84c.59.74,1.47.31,2.18.53a8,8,0,0,1-4.1.37A1.83,1.83,0,0,1,472.84,420.84Z"/><path fill="#9da5a5" d="M478.32,409.72l-.91-1.5v-1.51c.13-.25.27-.26.41,0C478,407.7,478.58,408.65,478.32,409.72Z"/><path fill="#aba7a7" d="M475.64,415.69l1.23.08c-.54.65-1.35.63-2.06.87,0-.18,0-.36,0-.54C475,415.71,475.28,415.66,475.64,415.69Z"/><path fill="#352f2f" d="M472.88,410.14h.89c0,.43.35,1.12-.34,1.16S472.85,410.64,472.88,410.14Z"/><path fill="#918f8f" d="M317.51,294.73c.24.74,1.41.25,1.54,1.14a8.81,8.81,0,0,1-1.45-.16C316.85,295.5,317,295.11,317.51,294.73Z"/><path fill="#b9b9b9" d="M260.6,393.5l.66.7c-.42.5-1,.71-1.38.13C259.7,394.07,260.17,393.63,260.6,393.5Z"/><path fill="#beb9b8" d="M481.27,420.63a1.39,1.39,0,0,0,.72.73c-.21.43-.6,1.05-1,.76S480.86,421.08,481.27,420.63Z"/><path fill="#2e2e2e" d="M95.26 194.66a1.08 1.08 0 01-.38-1.17A.92.92 0 0195.26 194.66zM94.77 193.11a1 1 0 01-.41-1.13A.89.89 0 0194.77 193.11z"/><path fill="#040101" d="M166.76,406.91c-.28,4.35-.67,8.68-1.37,13a21,21,0,0,1-.77,3.15,1.08,1.08,0,0,1-1.41.73,1.11,1.11,0,0,1-.84-1.12,9.2,9.2,0,0,1,.12-1.74A111.48,111.48,0,0,0,164.32,402c0-1-.21-2.29,1.21-2.33s1.19,1.33,1.22,2.27C166.79,403.57,166.76,405.24,166.76,406.91Z"/><path fill="#050102" d="M59.48,382.94a66.2,66.2,0,0,0,1,11.76,19,19,0,0,1,.2,2.51,1.08,1.08,0,0,1-.81,1.14,1.12,1.12,0,0,1-1.38-.8,8.17,8.17,0,0,1-.42-1.44,72.19,72.19,0,0,1-1-16.54,6.43,6.43,0,0,1,.43-2.21c.3-.69.79-1.12,1.57-.88s.8.84.68,1.44A29,29,0,0,0,59.48,382.94Z"/><path fill="#090303" d="M112.82,405.88a1.55,1.55,0,0,1-1,1.09,2.3,2.3,0,0,1-2.17-.26,16.51,16.51,0,0,1-5.37-5.18c-.44-.68-.7-1.42.08-2s1.4,0,1.87.61c1.61,2.06,3.25,4.05,6,4.74C112.64,405,112.81,405.43,112.82,405.88Z"/><path fill="#080203" d="M62,415a1.15,1.15,0,0,1-1,1.29c-.82.12-1.2-.47-1.35-1.16a27.85,27.85,0,0,1-.7-6.43c0-.69.14-1.4,1-1.49,1-.1,1.19.63,1.29,1.44C61.45,410.58,61.71,412.56,62,415Z"/><path fill="#040102" d="M165.34,391.45c0-.83-.05-1.67,0-2.5a1,1,0,0,1,1.19-1,1,1,0,0,1,1,1,28.08,28.08,0,0,1,0,5.5,1,1,0,0,1-2.07,0c-.12-1-.12-2-.17-3Z"/><path fill="#030303" d="M376.31 346.72q0 8 0 16.08a15.4 15.4 0 01-.18 2.25.94.94 0 01-1 .88 1 1 0 01-1.1-.82 13.49 13.49 0 01-.33-2.74q.25-11.55.6-23.11c.08-2.85.22-5.69.33-8.54a5.83 5.83 0 01.28-2.23c.26-.58.62-1 1.33-.89a1.09 1.09 0 01.91 1.28c-.05 2.43-.08 4.86-.16 7.29-.11 3.52-.26 7-.4 10.55zM452.69 405.88c0 .06 0 .4 0 .73a1.13 1.13 0 01-.85 1.11 1.17 1.17 0 01-1.43-.73 3.53 3.53 0 01-.28-1c-1-7.8-2.38-15.55-2.68-23.43a8.83 8.83 0 010-1.26c.08-.71.29-1.37 1.18-1.31s1.07.69 1.1 1.41c.34 7.88 2 15.6 2.86 23.42C452.64 405.11 452.65 405.36 452.69 405.88z"/><path fill="#0a0909" d="M376.44,381.74c0,.92.06,1.85,0,2.76a1.11,1.11,0,0,1-2.17.15,5.63,5.63,0,0,1-.27-1.73c0-2.69-.23-5.36-.44-8a5.79,5.79,0,0,1,0-1.5,1,1,0,0,1,1-.94,1.08,1.08,0,0,1,1.14.8,5.68,5.68,0,0,1,.28,1.22c.21,2.42.41,4.85.61,7.27Z"/><path fill="#100e0e" d="M453.65,415.43c.06,1.14-.06,1.8-.87,2a1.18,1.18,0,0,1-1.43-1,12.43,12.43,0,0,1-.3-2.44,1,1,0,0,1,1-1.18,1.1,1.1,0,0,1,1.24.95C453.45,414.41,453.59,415.13,453.65,415.43Z"/><path fill="#fffdfc" d="M439,310.36c0,1.34,0,2.69.06,4,.05.84-.16,1.3-1.08,1.21-.42,0-.84,0-1.26-.05a416.93,416.93,0,0,0-43.3.59c-5.61.33-11.2,1-16.79,1.6-2.48.28-2.72.6-2.56-2.3,6.66-1.31,13.24-3.07,20-3.8a93.32,93.32,0,0,1,13.8-.48c9.29.36,18.61,1,27.87-.62A25.25,25.25,0,0,1,439,310.36Z"/><path fill="#050102" d="M374.42,217.74a43.55,43.55,0,0,0-.7-8.75c-.15-1-.61-2.24.77-2.52s1.44,1,1.61,2a51.16,51.16,0,0,1,.88,11.25,21.16,21.16,0,0,1-.35,2.74,1,1,0,0,1-1.06.88,1,1,0,0,1-1.14-1.08C374.38,220.75,374.42,219.25,374.42,217.74Z"/><path fill="#060202" d="M366.57,266.53c.35-2.09.92-2.49,2.48-1.34,2.89,2.14,6,2.29,9.34,1.58.24,0,.48-.14.73-.17.72-.1,1.4,0,1.59.82a1.33,1.33,0,0,1-.94,1.58,7,7,0,0,1-1.68.49c-3.78.52-7.37.19-10.47-2.35a8.12,8.12,0,0,0-1.07-.63Z"/><path fill="#070203" d="M431.39,301.8a25.46,25.46,0,0,0,6.92-1.55c.94-.3,2.09-.95,2.57.39s-.8,1.66-1.72,2a34,34,0,0,1-6.82,1.61,4.86,4.86,0,0,1-2.47-.32,1.24,1.24,0,0,1-.91-1.33c.08-.76.65-.9,1.27-.9C430.56,301.69,430.9,301.75,431.39,301.8Z"/><path fill="#0a0303" d="M374.08,296.2a26.3,26.3,0,0,1,.46-5c.1-.8.42-1.54,1.39-1.41s1.16.93,1,1.72a27.91,27.91,0,0,0-.06,8.75,1.18,1.18,0,0,1-1,1.51c-.82.14-1.2-.4-1.43-1.1A14.32,14.32,0,0,1,374.08,296.2Z"/><path fill="#0b0304" d="M379.14,301.34a16.83,16.83,0,0,1,0-1.74,1.07,1.07,0,0,1,1-1c.71-.12,1.06.35,1.3.92a2.28,2.28,0,0,1,.12.73,22.89,22.89,0,0,0,.54,5c.16.68.1,1.41-.71,1.64a1.28,1.28,0,0,1-1.67-1.08A14.14,14.14,0,0,1,379.14,301.34Z"/><path fill="#100406" d="M378.49,215.33c0-.1,0-.76,0-1.43a1.08,1.08,0,0,1,.88-1.07,1,1,0,0,1,1.19.68,10.25,10.25,0,0,1,.37,5.18,1.1,1.1,0,0,1-1,.95,1.09,1.09,0,0,1-1.22-1C378.55,217.74,378.56,216.81,378.49,215.33Z"/><path fill="#20090b" d="M438.91,294.75c.8,0,1.56.19,1.52,1.14s-.89,1.31-1.76,1.37-1.55-.28-1.54-1.19S438,294.82,438.91,294.75Z"/><path fill="#f2485a" d="M440,80.62l0,0a1.28,1.28,0,0,0-.53-.5c-.55-.63-1.45,0-2-.54a.48.48,0,0,1-.47-.1,3.77,3.77,0,0,0-.54-.34c-.21-.39-.71-.29-1-.58h0a1.79,1.79,0,0,0-.55-.47.87.87,0,0,0-.53-.48.73.73,0,0,0-.51-.5.75.75,0,0,0-.49-.52,1.31,1.31,0,0,0-.46-.56v0c-.27-.27-.19-.75-.55-1-.08-.23-.28-.37-.41-.57v0c-.35-.23-.23-.72-.55-1a2,2,0,0,0-1-1,.57.57,0,0,0-.94,0,1.6,1.6,0,0,0-1,1.16.53.53,0,0,1,0,.62,1,1,0,0,1,0,.89.21.21,0,0,1-.06.32c-.29.28-.24.71-.43,1-.37.23-.28.72-.56,1v0a1.5,1.5,0,0,0-.47.56.78.78,0,0,0-.48.52.7.7,0,0,0-.5.51.77.77,0,0,0-.53.48,1.35,1.35,0,0,0-.55.48l-.51.39a.21.21,0,0,1-.27.14,1.06,1.06,0,0,0-.74.47h0c-1.13.73-2,1.56-1,3l0,0a1,1,0,0,0,.69.5l.17,0,.14.11c.51.37,1.17.11,1.69.41l.17,0,.14.09c.57.58,1.45-.05,2,.53h0c.29.28.74.2,1,.49h0a1.35,1.35,0,0,0,.6.45l0,0c.54.51,1,1,1.59,1.55l-.06,0a.78.78,0,0,0,.48.56.87.87,0,0,0,.7.51l.15,0,.11.1a.67.67,0,0,0,1,0h0c.25-.28.76-.18.94-.58.38-.19.32-.65.52-1,.36-.24.31-.69.5-1,.37-.22.27-.72.58-1h0a3.51,3.51,0,0,0,.47-.55,1.59,1.59,0,0,0,.5-.5,4.6,4.6,0,0,0,.54-.45h0c.24-.33.74-.21,1-.56l0,0c.31-.25.77-.18,1.05-.5h0c.28-.29.81-.17,1-.61l-.07.08A1.48,1.48,0,0,0,440,80.62Zm-7.78,4.62a15.8,15.8,0,0,0-5.68-2.84,17.52,17.52,0,0,0,4-4.54,20.38,20.38,0,0,0,4.55,3.89Z"/><path fill="#f2495b" d="M439.11 124s0 0 0 0v0zM445.1 129.45h0l0 0zM439.12 127v0a0 0 0 010 0z"/><polygon fill="#f2495b" points="441.59 121.44 441.6 121.44 441.6 121.44 441.59 121.44"/><path fill="#f2495b" d="M447.08,123.46l0,0a4.46,4.46,0,0,0-1.44-1.58l0,0c-.21-.12-.36-.34-.6-.42l.06,0a4.66,4.66,0,0,0-3.5-.08c-.26.29-.74.2-1,.53a2,2,0,0,0-.51.49,1.29,1.29,0,0,0-.47.54c-.35.23-.3.67-.51,1a3.28,3.28,0,0,0,0,3c.23.3.17.75.5,1a2.45,2.45,0,0,0,.48.54,3.2,3.2,0,0,0,.5.47,1,1,0,0,0,.73.48l.16,0,.11.11a5.32,5.32,0,0,0,3.5-.07c.28-.24.75-.16,1-.54a.77.77,0,0,0,.51-.5c.38-.2.28-.7.57-1h0c.46-.42.09-1.11.49-1.55l0,0C448.16,125,447.34,124.27,447.08,123.46Zm-4,3.5a1.42,1.42,0,0,1-1.38-1.47,1.62,1.62,0,0,1,1.7-1.51,1.5,1.5,0,0,1-.32,3Z"/><path fill="#f35767" d="M478.88,134l-.58.41h-.86l-.58-.41a3.06,3.06,0,0,1,.06-2,3.6,3.6,0,0,1,1.9,0A3.06,3.06,0,0,1,478.88,134Z"/><path fill="#f46373" d="M245.48,1.94l-.45.55a3.52,3.52,0,0,1-1.9-.12A3.49,3.49,0,0,1,243,.5l.57-.42.9-.08,1,1Z"/><path fill="#f2485a" d="M23 162.7c3.33 0 5.25 2 5.43 5.23A5.23 5.23 0 0123 173.55a5.69 5.69 0 01-5.63-5.61A5.47 5.47 0 0123 162.7zM51.78 103.21l-1.19-.38a10.19 10.19 0 01-5.22-3.71 12.74 12.74 0 01-1.74-3c-.23-.56-.52-1-1.24-1.13a1.34 1.34 0 00-1.27 1c-1 3.45-3.4 5.85-6.09 8.06-2 1.68-1.73 3 .84 3.88a10 10 0 016 4.59 3 3 0 00.44.61c1 1 1.87 1 2.65-.19a9.34 9.34 0 00.63-1.36 8.49 8.49 0 014.93-4.72l1.4-.56a1.52 1.52 0 001.18-1.44A1.62 1.62 0 0051.78 103.21zM45.46 107c-.7.71-1.28 1.52-2.06 2.46a17.17 17.17 0 00-5.93-3.82c1.63-1.92 3.46-3.49 4.74-5.87 1.8 1.86 3.32 3.84 5.86 5C47 105.67 46.16 106.27 45.46 107z"/><path fill="#f2495b" d="M159.8,34.88a5.08,5.08,0,0,0-5,4.9,4.87,4.87,0,0,0,4.75,5.07,5.07,5.07,0,0,0,5.19-4.71A5.15,5.15,0,0,0,159.8,34.88Zm-.1,7.33A2.5,2.5,0,0,1,157.44,40a2.22,2.22,0,0,1,2.43-2.25A2.16,2.16,0,0,1,162,40,2.28,2.28,0,0,1,159.7,42.21Z"/><path fill="#fb9fa8" d="M249.41,128a11.82,11.82,0,0,0-5-.95c-1.05.11-1.6-.27-1.18-1.46a13.34,13.34,0,0,0,.85-3.37c.06-.88.6-1.11,1.4-.81.07,0,.17,0,.24.06,1.47.74,3.9,0,4.47,1.49C250.69,124.21,249.45,126,249.41,128Z"/><path fill="#fb9ea7" d="M225.91,244.64a15.41,15.41,0,0,0-3.67,3.77,19.24,19.24,0,0,0-4-2.87c1.05-1.32,2-2.54,3-3.75a.7.7,0,0,1,1.09-.06C223.49,242.62,224.57,243.53,225.91,244.64Z"/><path fill="#fa9ba5" d="M218.16,185.81a2.11,2.11,0,0,1-1.77,2.1,2,2,0,1,1-.23-4A2,2,0,0,1,218.16,185.81Z"/><path fill="#fb9da6" d="M331.68,67a1.46,1.46,0,0,1,1.55,1.65A1.51,1.51,0,1,1,331.68,67Z"/><path fill="#010101" d="M46.58 244.07v1.18a1.78 1.78 0 01-3.54.45c-.3-1.22-.42-2.48-.6-3.72-1.39-9.8-2.43-19.66-5.56-29.12-2.29-6.93-4.84-13.76-7.72-20.46-.8-1.86-.74-2.82.24-3.31s2 .07 2.93 2C38.48 204.48 43.43 218.24 45 233 45.44 236.77 46.07 240.5 46.58 244.07zM148 237.72c-.47-8.27 1.38-16.16 4.18-23.86 1.17-3.22 2.51-6.39 3.79-9.57a8.41 8.41 0 01.92-1.79 1.66 1.66 0 012.18-.7 1.79 1.79 0 011 2.29 19.85 19.85 0 01-.82 2.1c-2.7 6.5-5.29 13-6.66 20a63.35 63.35 0 00-.51 19c.09.83.24 1.66.32 2.5.1 1-.28 1.91-1.36 2.06s-1.68-.55-1.94-1.57a33.52 33.52 0 01-.85-5.46C148.17 241.08 148.1 239.4 148 237.72z"/><path fill="#030303" d="M63.5,286.73c0,.63-.1,1.42-1.06,1.56s-1.34-.55-1.48-1.35c-.46-2.47-.88-4.95-1.35-7.42A91.25,91.25,0,0,0,54.45,262c-.38-.92-1.14-2,.13-2.62s1.66.7,2,1.59A93.76,93.76,0,0,1,63.5,286.73Z"/><path fill="#040404" d="M149.85,313.42c.05,1,0,1.78-1,1.92s-1.37-.62-1.51-1.37c-.51-2.71-1-5.43-1.39-8.17-.51-3.64-1.19-7.27-1.34-11,0-1.06-.72-2.75.9-3,1.81-.23,1.26,1.58,1.39,2.61.78,5.81,1.64,11.61,2.69,17.37C149.71,312.44,149.79,313,149.85,313.42Z"/><path fill="#080707" d="M164.68,273.24a1.32,1.32,0,0,1,1.24.69c1.65,2.7,3.3,5.4,4.91,8.12a1.12,1.12,0,0,1-.21,1.58,1.24,1.24,0,0,1-1.76-.34,12.27,12.27,0,0,1-1.2-1.59c-1.23-2.07-2.48-4.14-3.63-6.26C163.43,274.33,163.81,273.32,164.68,273.24Z"/><path fill="#090707" d="M135.85,183.47a1.49,1.49,0,0,1,1.09.45,42.21,42.21,0,0,0,5.75,3.5,5.86,5.86,0,0,1,1.39,1,1.13,1.13,0,0,1-1.23,1.8,30.45,30.45,0,0,1-7.63-4.66,1.15,1.15,0,0,1-.32-1.37A1.11,1.11,0,0,1,135.85,183.47Z"/><path fill="#0b0b0b" d="M65.7,306.64c0,.74-.15,1.41-.94,1.58a1.19,1.19,0,0,1-1.42-1.09c-.5-2.79-.92-5.59-1.34-8.39a1,1,0,0,1,.76-1.16,1.13,1.13,0,0,1,1.41.71,2.28,2.28,0,0,1,.28.69C64.88,301.53,65.29,304.08,65.7,306.64Z"/><path fill="#0a0a0a" d="M153.62,330.9c-.06.8-.27,1.22-.83,1.39a1,1,0,0,1-1.12-.37,12.79,12.79,0,0,1-1.7-5.45,1,1,0,0,1,.93-1,1,1,0,0,1,1.23.65C152.69,327.76,153.18,329.45,153.62,330.9Z"/><path fill="#100f0f" d="M143.94,195c-.15.56-.61,1-1.09.85a7.92,7.92,0,0,1-4.35-2.73.92.92,0,0,1,0-1.16c.26-.39.66-.66,1.05-.5a15.19,15.19,0,0,1,4.19,2.61A.83.83,0,0,1,143.94,195Z"/><path fill="#0d0b0b" d="M108.86,328.68a1.83,1.83,0,0,1-2-1.75,1.78,1.78,0,0,1,1.49-2,2,2,0,0,1,2.15,1.89A1.75,1.75,0,0,1,108.86,328.68Z"/><path fill="#2e2e2e" d="M94.33,195.57a1.79,1.79,0,1,1-3.58,0,1.79,1.79,0,1,1,3.58,0Z"/><path fill="#131110" d="M104.3,269.8a1.92,1.92,0,0,1-1.65,1.86,1.84,1.84,0,0,1-1.87-1.89,1.48,1.48,0,0,1,1.44-1.68A2,2,0,0,1,104.3,269.8Z"/><path fill="#0f0b0b" d="M94.49,217.81a1.84,1.84,0,0,1-1.81-1.95,1.67,1.67,0,0,1,1.72-1.72,2,2,0,0,1,1.87,1.93A1.93,1.93,0,0,1,94.49,217.81Z"/><path fill="#201c1c" d="M99.85,244c-.24.82-.43,1.69-1.5,1.72a2.15,2.15,0,0,1-1.8-2.06,1.54,1.54,0,0,1,1.82-1.3A1.49,1.49,0,0,1,99.85,244Z"/><path fill="#131313" d="M106,301.82a1.58,1.58,0,0,1-1.62-1.56,1.37,1.37,0,0,1,1.55-1.51c1,0,1.61.48,1.63,1.49S106.9,301.68,106,301.82Z"/><path fill="#060505" d="M124.67,102.51c1.7-.07,3.69.78,5.63,1.8a1.34,1.34,0,0,1,.76,1.87c-.44.88-1.22.77-1.94.38a9.94,9.94,0,0,0-7.72-1.23c-.88.24-1.71.64-2.59.91a1.22,1.22,0,0,1-1.66-.7c-.24-.64.15-1.13.7-1.45A13.78,13.78,0,0,1,124.67,102.51Z"/><path fill="#120e0e" d="M128.75,111.11a1.11,1.11,0,0,1-1.57,1.13,9.64,9.64,0,0,0-4.12-.85,1,1,0,0,1-1-.91,1.11,1.11,0,0,1,.45-1.1c1.24-.93,5.22-.21,6,1.11A3.93,3.93,0,0,1,128.75,111.11Z"/><path fill="#0c0a0a" d="M20.55,370.28c-.12.76-.09,1.53-1,1.68s-1.29-.51-1.44-1.33c-.1-.58-.28-1.14-.36-1.72-.11-.73.05-1.37.88-1.55s1.26.39,1.48,1.06A14.53,14.53,0,0,1,20.55,370.28Z"/><path fill="#0f0f0e" d="M234,378a7.3,7.3,0,0,1,.46-3c.3-.77.81-1.35,1.69-1.14s1,1,.71,1.8a10.87,10.87,0,0,0-.33,4c0,.72-.15,1.39-1,1.48s-1.31-.59-1.43-1.39C234,379.14,234,378.55,234,378Z"/><path fill="#0c0b0b" d="M362.5,138.5a1.07,1.07,0,0,1-1.14.9,5,5,0,0,0-3.47,1.15,1,1,0,0,1-1.39-.08,1.09,1.09,0,0,1-.24-1.36c.7-1.66,4.25-2.82,5.7-1.84A1.23,1.23,0,0,1,362.5,138.5Z"/><path fill="#fb9ea7" d="M22.8,170.85c-1.75,0-2.63-1-2.58-2.91a2.6,2.6,0,0,1,2.88-2.68,2.87,2.87,0,0,1,2.71,3A2.72,2.72,0,0,1,22.8,170.85Z"/></g></g></svg>