<svg xmlns="http://www.w3.org/2000/svg" data-name="Layer 1" viewBox="0 0 700 550"><path fill="#f4eff1" d="M286.98066,504.28014a184.70259,184.70259,0,0,1-29.397,3.73C215.37707,509.96529,174.14,494.929,142.509,466.91657l-.00008-.00008c-35.262-33.91351-49.645-87.96906-35.9-134.92229,7.89621-26.97342,23.99122-50.78679,34.09654-77.0127,9.55669-24.80207,13.59745-51.31673,19.94943-77.126,9.52075-38.68522,25.20095-77.34274,54.22312-104.63568S288.61555,32.578,324.92959,48.96344c14.695,6.63061,27.04713,17.47724,41.00052,25.55272,28.38565,16.428,61.94581,20.69044,93.18313,30.68328s63.20183,29.07524,72.54465,60.5131c4.78741,16.1096,2.95913,33.45993,6.25842,49.93873,5.6806,28.37317,25.72477,51.32027,39.76333,76.62293,14.54825,26.22128,22.9157,56.391,20.42381,86.27413s-16.5496,59.2872-40.42222,77.43394L546.0943,466.39094c-8.8894,7.98538-17.4267,16.34695-26.08094,24.58662-10.05384,9.5724-25.39567,12.93244-39.61185,14.04923a207.01809,207.01809,0,0,1-53.22759-2.70961c-18.61679-3.39-37.94767-9.29643-56.21952-6.43636a200.37042,200.37042,0,0,1-28.78358,2.60037l-4.54575.04968A260.36816,260.36816,0,0,0,286.98066,504.28014Z"/><path fill="#f4dfe5" d="M261.455,427.46806c9.48911-.72985,19.21369-1.52258,27.87084-5.47057a93.43749,93.43749,0,0,0,.14128-.07856,8.62593,8.62593,0,0,0,1.34323-1.10738l-3.11092-7.54193s-12.50311,2.5528-28.52355-8.90587-11.681-53.91655-11.82019-92.89139,9.01348-48.6539,9.01348-48.6539h-.00007c-7.51305,5.16611-14.375,10.89208-18.93122,18.726-3.97146,6.82832-5.80806,14.65351-6.93828,22.49439q-.15306,1.02438-.28256,2.0486c-1.5305,11.7417-1.868,23.60121-2.20549,35.437q-.85944,30.37458-1.71887,60.74125c-.03925,1.27158-.05494,2.57462-.03925,3.89313.00785.66706.02355,1.35.05494,2.02482.0314.67507.07064,1.35013.13343,2.02505a24.35462,24.35462,0,0,0,2.8177,10.219,13.08884,13.08884,0,0,0,3.02961,3.5791C240.96983,428.84944,251.54207,428.22939,261.455,427.46806Z"/><path fill="#f7d0d9" d="M254.64451 392.10662a43.0189 43.0189 0 0121.48512-9.98139 143.1647 143.1647 0 0127.79048-2.094 132.13751 132.13751 0 0120.45379 2.72351 294.10816 294.10816 0 0185.559 31.38707l2.15055 1.45987c9.97574-2.8177 20.05351-5.23511 30.26471-7.04816 7.94292-1.39708 16.035-2.43311 24.05637-1.62469a69.36516 69.36516 0 0111.66321 2.29968l.21192-.23546q27.69031-18.01284 55.38065-36.04138c3.6732-2.386 7.4406-4.81912 11.69461-5.83161 4.73278-1.13022 9.69318-.43168 14.48876.361a392.35674 392.35674 0 0138.46663 8.39815c-.05494.89475-.11773 1.78166-.19622 2.66856-2.488 29.888-16.54512 59.28933-40.421 77.43559l-11.58473 10.40742c-8.89262 7.99-17.432 16.34891-26.08134 24.59008-10.05422 9.5676-25.3985 12.92686-39.61255 14.04923a207.17924 207.17924 0 01-53.2301-2.71566c-18.60934-3.39065-37.93292-9.2929-56.19692-6.436a201.49092 201.49092 0 01-28.80484 2.60578l-4.54442.04709a260.57828 260.57828 0 00-50.64787 5.75312 185.95484 185.95484 0 01-29.3935 3.72815 162.21453 162.21453 0 01-107.38635-34.69925c7.472-8.406 19.89654-22.28255 31.79522-35.13877a52.706 52.706 0 0117.09454.66714c2.83339.60436 5.76881 1.47556 8.563.72994a15.35786 15.35786 0 005.35284-3.1395c5.43917-4.27756 16.239-16.00356 16.239-16.00356C230.27444 414.19931 244.71909 400.72594 254.64451 392.10662zM479.10263 199.46389l-31.45215-14.68647c-3.32786-4.95255-9.59115-7.111-15.54049-7.55841-5.94934-.44722-11.93007.4867-17.88726.17283-13.45272-.69861-25.6575-7.582-38.09774-12.75419-2.59008-1.07535-5.92579-1.95449-7.90367.03148a6.50559 6.50559 0 00-1.45987 4.35589c-.47092 9.03389 1.65907 15.7524 1.7454 24.79414.04709 5.47057 2.59322 11.95362 2.59322 11.95362 6.63218-5.4234 13.908-11.11373 22.46307-11.49847 9.35569-.42368 17.72244 5.61192 24.50374 12.06358a132.86464 132.86464 0 0113.594 15.05379c2.959 3.82249 5.73742 7.87235 7.30717 12.44032a45.18635 45.18635 0 011.97176 11.14559c12.238 4.56725 24.43145 9.33724 36.787 13.44456l5.15662 6.37309 6.16926-47.20384A17.50313 17.50313 0 00479.10263 199.46389z"/><path fill="#f4648a" d="M444.74221,346.33666c-1.02826,2.57438-1.37353,5.63539.04694,8.01355l.0157.23547c.00816,3.10025.75912,12.4856.00565,11.07283-.60436-1.13022-4.99737-7.84708-5.39766-9.06356l1.31066-9.63824a53.90035,53.90035,0,0,1,2.04075-12.27542c1.94649-6.483,1.60884-10.1641,1.036-13.70388-.55726-3.4299.97324-6.91474,3.27284-10.04638l.18052-.12558c2.386,8.11559,4.57581,21.07385,1.303,28.16125C447.39493,341.48614,445.77024,343.77012,444.74221,346.33666Z"/><path fill="#f4dfe5" d="M313.66478,220.17512a18.51408,18.51408,0,0,0-6.56939,6.9776c-.50232.94185-1.35783,2.11131-2.33107,1.766a44.53925,44.53925,0,0,1-15.02247,20.63439,42.87192,42.87192,0,0,1-7.629,4.764c-.26686-.76109-.55726-1.51473-.89476-2.25251a10.63972,10.63972,0,0,1-1.21655-3.44552,3.123,3.123,0,0,1,.934-2.53514c-14.5594,11.977-34.01641,19.15876-43.49767,35.46057-3.97146,6.82832-5.80806,14.65351-6.93828,22.49439-8.95541,3.14734-18.005,5.8944-27.25865,6.71067a6.88349,6.88349,0,0,1-3.86942-.44738c-2.22119-1.18516-2.58224-4.18345-2.47235-6.7029.87905-21.2542,14.66928-39.61247,28.97751-55.35694s30.20977-31.191,37.101-51.31509c1.09882-3.2336,2.08776-6.74975,4.72494-8.93194,3.11594-2.57422,7.79379-2.47227,11.48269-.80826,3.68106,1.656,6.60863,4.60713,9.442,7.49538.8869.90276,1.766,1.79744,2.645,2.70012Q302.48034,208.77881,313.66478,220.17512Z"/><path fill="#f7d0d9" d="M241.20168,136.59571a2.6802,2.6802,0,0,0-4.084,2.38852q-2.87346,12.888-5.74692,25.77618a80.30054,80.30054,0,0,0-2.09954,12.47155c-.21607,3.50321.02732,7.03553-.42658,10.51605-.60921,4.66992-2.44849,9.07753-4.26986,13.42047-5.84087,13.92655-10.53528,55.71085-16.37615,69.6374,5.63814-5.559,22.2302-29.61193,28.47622-34.32156,16.98489-12.8067,22.6651-26.79573,33.177-45.289,1.68756-2.96863,1.38429-2.1055,4.375-3.75421,3.54158-1.95268,5.55,1.88166,8.86443,4.19931,3.31437,2.31742,5.69135,6.13386,7.93892,9.4961,7.07453,10.583,4.92249,21.53873,11.997,32.122,1.87208-8.55637,17.41641-24.86141,19.28841-33.41786,2.53051-11.56574,5.0673-23.15486,8.75267-34.406q.65213-1.99071,1.36874-3.9709Q286.8193,149.02978,241.20168,136.59571Z"/><path fill="#f4648a" d="M413.84945 321.06374a9.261 9.261 0 00-.57288-3.4142 14.51865 14.51865 0 014.05771-.70638C416.20407 318.2068 415.01106 319.63527 413.84945 321.06374zM405.04325 332.64847a24.13933 24.13933 0 00-5.557-14.2533l.81627-.04709a22.96666 22.96666 0 003.76747 3.03746c.13335.08634.28247.19622.44745.3218.08618.06279.16475.12558.251.19622a21.83912 21.83912 0 011.7188 1.56974c.19622.20407.40813.416.61228.63575.11.11773.22761.23546.33741.361.10212.10988.19622.21192.29833.3218.32172.35319.63583.71424.94185 1.07528.10211.11773.20407.24331.30618.36889.1412.17267.28248.34534.41583.52586-.934 1.2558-1.64816 2.24474-1.98557 2.7706A29.23211 29.23211 0 01405.04325 332.64847zM406.84061 364.38089a16.27648 16.27648 0 01-3.79887-10.28968c-.02354-3.50054 1.0909-6.94613 1.58545-10.39957 2.06413-2.63718 4.47377-5.66679 6.54592-8.00571a21.7532 21.7532 0 013.6732-3.51623s-.25908 3.03746-.66722 7.1031c-.54941 1.70318-1.0595 3.4142-1.499 5.14092v.0157c-.04717.18837-.10219.36889-.14912.54941a42.76816 42.76816 0 00-1.37353 14.59864 64.29567 64.29567 0 00-1.09105 7.87228A23.84724 23.84724 0 01406.84061 364.38089zM435.00178 355.32346a3.90342 3.90342 0 00-.18052.72993c-.11765-.18837-.22761-.38459-.33742-.58081a32.02053 32.02053 0 01.17267-3.995.12378.12378 0 01.00785-.0314C434.95461 350.46509 435.52 353.98132 435.00178 355.32346z"/><path fill="#f4648a" d="M463.77539,352.19966c-.74579,16.137-.67515,28.34177-3.179,48.55226l-1.12237,2.00142h-.00785l-3.19428,5.68249H444.26328c-1.65616-3.53193-5.79244-5.21941-9.66963-5.6197s-7.9193.6279-11.68669-.40028c-15.17168-4.14413-30.1-17.80093-30.62575-19.89654-5.1253-20.36746-10.46244-47.893-11.40429-59.89367a12.1301,12.1301,0,0,0,1.75812,4.73279c1.507,2.30752,3.83795,3.92436,5.95727,5.69033a22.33909,22.33909,0,0,1,6.10615,7.20513,11.176,11.176,0,0,1,.53387,9.21441,14.41757,14.41757,0,0,0,2.12693-4.54441c.03147-.08634.05486-.16483.07857-.25116a16.5358,16.5358,0,0,0,.42367-2.15055,10.78677,10.78677,0,0,1,.12574,1.66393c0,.416-.02355.82411-.055,1.2401-.16475,2.03282-.66722,4.08134-.79272,6.12986A16.51742,16.51742,0,0,0,409.98779,368.682c-.2353,4.27756.08642,7.80949,1.41277,7.72315,1.13038-.07064,2.24482-2.51944,3.28077-5.8787a47.73869,47.73869,0,0,0,3.65759,5.40778c.43961.5808-.36544,1.21632.08971,1.78919l.54463,2.46615c.40821.51009,1.53976-1.50829,1.95582-1.006.0157.02355,6.50731-23.33428,6.531-23.31073,1.59314,1.93079-1.22252,13.8078-.64061,17.38886a18.0163,18.0163,0,0,0,1.448,3.37888c-.24331-.43953,2.35085-.86336,2.08392-1.295-.47085-.78487,3.80263-9.05351,3.28469-9.81484.40813.37674,1.28711.84979,1.75812,1.2029.69861.54156,1.84256-1.21569,1.80348-2.079-.02355-.41606,1.27149-1.40226,1.13979-4.05685.361-1.27935.7377-2.65288,1.07535-4.00286,1.47549,2.543,5.40017,5.7178,5.40017,5.7178.20406,2.59008,2.03258,5.67856,3.147,8.01748,1.11444,2.34677,2.18194,4.81912,2.1113,7.41705-.055,2.37817-1.36568,4.88976-3.53985,5.75312a18.41328,18.41328,0,0,0,11.98509-13.74312c.99679-5.27435-.40029-10.66643-1.47548-15.92508-1.06751-5.25865-1.78167-10.93329.43152-15.823.14143,4.11273.96539,8.38244,3.485,11.63182A11.09808,11.09808,0,0,0,463.77539,352.19966Z"/><path fill="#f25787" d="M405.04325 332.64847a24.13933 24.13933 0 00-5.557-14.2533l.81627-.04709a22.96666 22.96666 0 003.76747 3.03746c.13335.08634.28247.19622.44745.3218.08618.06279.16475.12558.251.19622a21.83912 21.83912 0 011.7188 1.56974c.19622.20407.40813.416.61228.63575.11.11773.22761.23546.33741.361.10212.10988.19622.21192.29833.3218.32172.35319.63583.71424.94185 1.07528.10211.11773.20407.24331.30618.36889.149.17267.28248.34534.42383.518.05487.07064.10981.14913.16483.21977-.055-.07064-.11-.14128-.17283-.21192-.934 1.2558-1.64816 2.24474-1.98557 2.7706A29.23211 29.23211 0 01405.04325 332.64847zM406.84061 364.38089a16.27648 16.27648 0 01-3.79887-10.28968c-.02354-3.50054 1.0909-6.94613 1.58545-10.39957 2.06413-2.63718 4.47377-5.66679 6.54592-8.00571.43945 2.73136 1.56182 3.75169 2.11908 6.8127 0 .00785.21309 3.14247.16615 3.323-1.193 4.75633-.77828 6.91959-2.30093 13.75584a64.29567 64.29567 0 00-1.09105 7.87228A23.84724 23.84724 0 01406.84061 364.38089z"/><path fill="#f25787" d="M459.47405,402.75334l-3.20213,5.68249H444.26328c-1.65616-3.53193-5.79244-5.21941-9.66963-5.6197s-7.9193.6279-11.68669-.40028c-15.17168-4.14413-30.1-17.80093-30.62575-19.89654-5.1253-20.36746-10.46244-47.893-11.40429-59.89367a12.1301,12.1301,0,0,0,1.75812,4.73279c1.507,2.30752,3.83795,3.92436,5.95727,5.69033a22.33909,22.33909,0,0,1,6.10615,7.20513,11.176,11.176,0,0,1,.53387,9.21441,14.41757,14.41757,0,0,0,2.12693-4.54441c.03147-.08634.05486-.16483.07857-.25116a16.5358,16.5358,0,0,0,.42367-2.15055,10.78677,10.78677,0,0,1,.12574,1.66393c0,.416-.02355.82411-.055,1.2401-.16475,2.03282-.66722,4.08134-.79272,6.12986A16.51742,16.51742,0,0,0,409.98779,368.682c-.2353,4.27756.08642,7.80949,1.41277,7.72315,1.13038-.07064,2.24482-2.51944,3.28077-5.8787,1.719-2.45665,3.53986-21.6625,4.87414-19.92793.09537.12605,1.09231.03665.94531,2.02458-.5214,7.05193-2.29325,16.22568-1.93691,16.67432l-.214,7.05577c.21192.87906.41143,2.98087.62335,3.83638.18837.76133,1.72813,1.592,1.90865,2.32974.52579,2.09561,15.45415,15.75241,30.62575,19.89654,2.57446.69854,5.2665.44738,7.95854.33749Z"/><path fill="#f4648a" d="M374.78285,184.71463a4.12054,4.12054,0,0,0-3.57117-2.89618c.32965,9.42633-7.01676,18.52309-16.294,20.17909-2.77845.49455-5.69033.416-8.28826,1.507-5.29789,2.229-7.47984,8.42169-9.08883,13.94728a21.78412,21.78412,0,0,0-.11773-10.14072,12.71033,12.71033,0,0,0-5.64324-7.5818c-2.543-1.45209-5.98858-1.67185-8.24117.18837-2.53514,2.09554-2.73135,5.97273-1.8209,9.128a10.53487,10.53487,0,0,1,.76917,4.18337c-.43952,3.35149-4.42668,4.67-7.44844,6.185-.47093.23531-.92615.48647-1.37353.76109a18.51408,18.51408,0,0,0-6.56939,6.9776c-.50232.94185-1.35783,2.11131-2.33107,1.766a.38258.38258,0,0,1-.08634-.0314,2.06578,2.06578,0,0,1-.9026-1.09874q-3.08455-6.3105-6.16126-12.62084c-2.60578-5.32929-5.243-10.75268-6.177-16.60784q-.09418-.58864-.16482-1.17731c-.81627-6.71859.54941-13.54691,2.32322-20.09283,2.15056-7.91945,5.58045-16.46664,13.00535-19.96709,3.30432-1.5619,7.04031-1.90725,10.68213-2.22912a122.302,122.302,0,0,1,16.51373-.72209,72.45706,72.45706,0,0,1,12.77773,1.82884c7.14235,1.656,14.24545,4.309,19.76311,9.128C371.86313,170.14746,375.607,177.43093,374.78285,184.71463Z"/><path fill="#f25787" d="M315.28743,204.51447c-2.60578-5.32937-5.24288-10.75276-6.17688-16.60784q-.09419-.58865-.16482-1.17731c-.81627-6.71859.54933-13.547,2.32322-20.09283a50.083,50.083,0,0,1,4.38988-11.39275,27.12462,27.12462,0,0,0-9.05791,2.0789c-7.4249,3.50045-10.85479,12.04764-13.00535,19.96709-1.77381,6.54592-3.13949,13.37424-2.32322,20.09283q.07063.58866.16482,1.17731c.934,5.85516,3.57117,11.27855,6.177,16.60784q3.07278,6.3105,6.16126,12.62084a2.06578,2.06578,0,0,0,.9026,1.09874.38258.38258,0,0,0,.08634.0314c.97324.34534,1.82875-.82412,2.33107-1.766a18.51408,18.51408,0,0,1,6.56939-6.9776c.44738-.27462.9026-.52578,1.37353-.76109,1.97317-.98917,4.35212-1.89837,5.892-3.34073Q318.1054,210.29365,315.28743,204.51447Z"/><path fill="#f2195c" d="M289.71626 249.528a18.00082 18.00082 0 00-5.65768-3.48515 3.63631 3.63631 0 00-2.37942-.37093 2.776 2.776 0 00-1.67437 2.94853 10.607 10.607 0 001.21114 3.44442c.33608.73887.63119 1.4918.89491 2.25549a39.97994 39.97994 0 007.70235-4.70493zM385.47565 262.55514a12.96456 12.96456 0 01-2.02732.14433c-.67405-.08241-1.38036-.5998-1.3295-1.277.04882-.6498.72373-1.04082 1.31819-1.3076a64.72915 64.72915 0 018.53581-3.12968 3.4079 3.4079 0 01-.5217 2.94327 25.33675 25.33675 0 01-2.85129 4.13879 4.13665 4.13665 0 01-1.26145 1.10722 1.57556 1.57556 0 01-1.60593-.05235C384.965 264.551 385.16524 263.35178 385.47565 262.55514zM450.10415 306.52161a15.61661 15.61661 0 0012.18092 4.482 3.41635 3.41635 0 002.51811-1.15353c.71384-1.02606.28059-2.43491-.26662-3.55877a25.93524 25.93524 0 00-4.78545-6.69183c-3.12615 2.01053-6.36266 4.35267-9.45357 6.77032z"/><path fill="#f4dfe5" d="M226.29458,402.26759q.48765-17.23852.97513-34.47729-13.37965-13.62358-26.75939-27.247c-2.83386-2.88543-5.75822-5.83521-9.44587-7.49554-3.68773-1.66063-8.36549-1.76408-11.482.81337-2.63176,2.17622-3.62023,5.69779-4.72611,8.92856-6.888,20.12595-22.7917,35.57312-37.09766,51.316-14.30589,15.74306-28.0987,34.10211-28.98019,55.35577-.10439,2.51717.25344,5.5208,2.4762,6.70651a6.89684,6.89684,0,0,0,3.869.44361c28.81521-2.54378,55.68667-23.789,83.9812-17.77118,2.831.60223,5.76473,1.47658,8.56218.73315a15.44461,15.44461,0,0,0,5.35409-3.14546q8.15358-6.41481,16.307-12.82985l-.07409-3.21311C226.3281,415.37128,226.1205,408.42319,226.29458,402.26759Z"/><path fill="#f7d0d9" d="M136.5492,294.473a2.68028,2.68028,0,0,0-3.56851,3.10661q-.4256,13.19752-.85135,26.39536a80.30284,80.30284,0,0,0,.25721,12.64439c.43937,3.48233,1.33569,6.90767,1.53717,10.41181.27023,4.70179-.717,9.37461-1.6987,13.98056-3.14813,14.77-6.27341,36.76872-9.42154,51.53877a180.72073,180.72073,0,0,1,14.95521-18.44475c14.306-15.74291,30.20961-31.19008,37.09766-51.316,1.10588-3.23077,2.09435-6.75234,4.72611-8.92856,3.1165-2.57745,7.79426-2.474,11.482-.81337,3.68765,1.66033,6.612,4.61011,9.44587,7.49554q13.37965,13.62324,26.75939,27.247.37155-13.13289.74288-26.266c.33475-11.83463.67138-23.69336,2.19937-35.43373q.27031-2.07724.60608-4.15622Q183.68362,298.20381,136.5492,294.473Z"/><path fill="#f2195c" d="M330.97736 323.90789a3.33195 3.33195 0 11-3.30879-3.72438A3.535 3.535 0 01330.97736 323.90789zM298.86035 271.81593a.88351.88351 0 000-1.766.88351.88351 0 000 1.766z"/><path fill="#f4dfe5" d="M554.47094,284.81869a6.51478,6.51478,0,0,0-4.54575-.689c-8.97919,1.09411-16.90578,6.5409-25.80177,8.17948-5.37324.98972-10.90667.55333-16.33721,1.15392s-11.11867,2.50979-14.3153,6.94079l-.03885.13a62.44955,62.44955,0,0,1,.68095,7.74905c1.44762,33.83965-8.16629,67.039-13.15353,100.54045l-5.391,6.17852,50.52652-10.3265L548.332,366.52768c4.30378-4.13165,5.35307-10.67742,4.77054-16.6149s-2.53114-11.66769-3.25094-17.59011c-1.62532-13.37079,3.05668-26.57761,6.01181-39.71866C556.479,289.86668,556.76983,286.427,554.47094,284.81869Z"/><path fill="#f2195c" d="M322.79585 213.57959a23.62589 23.62589 0 011.65259 2.95624 11.54558 11.54558 0 001.428 2.26758 11.00328 11.00328 0 001.98706 1.76663 30.17332 30.17332 0 012.676 2.04666 7.02421 7.02421 0 01-3.61255.11838 6.148 6.148 0 01-3.344-1.99915 6.27828 6.27828 0 01-1.41113-3.61328A7.54 7.54 0 01322.79585 213.57959zM329.0583 204.88541a2.70077 2.70077 0 00-1.02368 2.73233 2.15175 2.15175 0 00.52759.91836 1.94108 1.94108 0 00.3872.29843l.73487.47095a4.719 4.719 0 011.01269.90808 2.88855 2.88855 0 01.61841 1.70838 3.52113 3.52113 0 01-.272 1.34195c-.12256.31756-.23657.54657-.304.69555-.06543.175-.12158.16513-.14843.29093a.66216.66216 0 00.16479.46615 1.37764 1.37764 0 001.4292.52143 1.75288 1.75288 0 01-2.09473.79263 2.23384 2.23384 0 01-1.19946-.78137 2.51092 2.51092 0 01-.49951-1.51545 7.60628 7.60628 0 01.092-1.135 1.05124 1.05124 0 00-.0083-.50665c-.03784-.02087-.01782.04151-.07031-.00088a2.729 2.729 0 00-.40747-.30606c-.21607-.15741-.49439-.32553-.81788-.58036a4.12162 4.12162 0 01-.93042-1.02346 3.878 3.878 0 01-.56494-2.60419A3.00362 3.00362 0 01329.0583 204.88541zM361.01069 180.98711a9.647 9.647 0 01-.033 4.2006 12.76534 12.76534 0 01-4.34668 7.16138 9.60518 9.60518 0 01-3.71459 1.96359c.93237-1.05682 1.80175-2.03851 2.60278-3.05893a33.19687 33.19687 0 002.18042-3.15673 32.72287 32.72287 0 001.79907-3.38913C360.0356 183.52652 360.50508 182.30173 361.01069 180.98711zM355.51289 184.7406a10.02934 10.02934 0 01-.95483 1.84061 16.87445 16.87445 0 01-1.10523 1.51349 16.22943 16.22943 0 01-1.26587 1.38153 9.81981 9.81981 0 01-1.62036 1.2951 4.631 4.631 0 01.29517-2.1416 6.3212 6.3212 0 011.04516-1.80295 6.39043 6.39043 0 011.56543-1.37576A4.67 4.67 0 01355.51289 184.7406zM334.489 225.035a11.01237 11.01237 0 01.98682 1.15042 9.89508 9.89508 0 01.66309 1.01392 9.39384 9.39384 0 01.52563 1.09055 10.68266 10.68266 0 01.47046 1.442 2.46632 2.46632 0 01-1.6333-.38321 3.30847 3.30847 0 01-1.52881-2.71914A2.48189 2.48189 0 01334.489 225.035zM353.92695 207.6629a5.81589 5.81589 0 011.27027-3.48788 8.13447 8.13447 0 016.5852-3.15067 5.7881 5.7881 0 013.51245 1.2071c-1.2063.41912-2.20776.75216-3.16455 1.126-.95239.36536-1.84228.75232-2.72094 1.16815-.87745.41858-1.738.86844-2.6211 1.38C355.89546 206.41452 355.00728 206.98584 353.92695 207.6629zM365.103 207.39966a3.1354 3.1354 0 01.65015 1.31164 3.816 3.816 0 01.10034.72156 2.65009 2.65009 0 01-.06421.79395 2.09925 2.09925 0 01-.62134 1.03976 2.8253 2.8253 0 01-.97485.57752 5.5046 5.5046 0 01-1.47535.29049 5.30712 5.30712 0 01-2.74218-.57541 3.98427 3.98427 0 01-1.92749-2.053c1.00561-.13065 1.76758-.17844 2.49121-.23758l2.01367-.12861c.16235-.00067.32373-.01391.48511-.02471.16772-.0008.32763-.01731.41137-.01075.09327.00675.11451.01136.105.07581-.02587.06583-.00341.15106.08765.08926a1.68758 1.68758 0 00.31445-.34225l.35035-.45029C364.56587 208.16135 364.78657 207.80991 365.103 207.39966z"/><path fill="#f2195c" d="M368.68062,192.07391a29.36213,29.36213,0,0,0,2.467,11.616c.81787,1.79144,1.719,3.58054,2.64428,5.42911.459.92581.87061,1.88965,1.26685,2.87561a11.32754,11.32754,0,0,1,.90063,3.37811,5.2394,5.2394,0,0,1-1.32226,3.94415,4.3735,4.3735,0,0,1-1.95337,1.14164,10.538,10.538,0,0,1-1.69922.3031c-.23877.02911-.45679.059-.65137.0953-.16259.02631-.4353.1128-.38525.08631a.7227.7227,0,0,0,.19922-.21472.58359.58359,0,0,0,.08887-.293c-.01294-.09876-.01636.038.04516.20843.04785.15589.18115.48291.26026.75836a8.0387,8.0387,0,0,1,.218.86243,9.44048,9.44048,0,0,1,.14771,1.75632,9.25249,9.25249,0,0,1-.19116,1.73675,5.71255,5.71255,0,0,1-.626,1.75583,2.84518,2.84518,0,0,1-.76685.83939,3.82449,3.82449,0,0,1-.86767.45794,11.24746,11.24746,0,0,1-1.58643.47052,6.58281,6.58281,0,0,1-3.30713-.16766,14.34277,14.34277,0,0,1-2.85058-1.286c2.012.402,4.07641.82315,5.741.04089a11.21778,11.21778,0,0,0,1.269-.61609,1.20288,1.20288,0,0,0,.63379-.66473,5.50156,5.50156,0,0,0,.22192-1.16867,6.72835,6.72835,0,0,0-.26807-2.58041c-.06591-.20411-.12524-.40891-.20532-.60593-.07715-.21011-.15332-.34879-.28491-.66974a3.06723,3.06723,0,0,1-.26-1.27859,2.08,2.08,0,0,1,.30786-1.01633,2.1466,2.1466,0,0,1,.762-.72016,4.77166,4.77166,0,0,1,1.05909-.403c.302-.0798.58618-.13751.85058-.18884a11.63292,11.63292,0,0,0,1.29956-.28137,1.386,1.386,0,0,0,.6482-.39566,2.35051,2.35051,0,0,0,.48071-1.72382,8.59609,8.59609,0,0,0-.64258-2.51379c-.333-.91782-.73389-1.8245-1.11377-2.75644-.75317-1.86551-1.63428-3.74945-2.24707-5.77814A21.08321,21.08321,0,0,1,368.68062,192.07391Z"/><path fill="#f2195c" d="M364.70015 229.01978c.71069.64578 1.59741.8991 2.41992 1.55056a2.9144 2.9144 0 01.94409 1.384 1.99948 1.99948 0 01-.36035 1.95791c-.52319.53247-1.04712.7125-1.07593.85968-.01294.053.02222-.00006.00708.16626l.00073.62876a17.76509 17.76509 0 00.22437 2.63021 13.67148 13.67148 0 01.41162 3.0138 4.29166 4.29166 0 01-.551 1.95437 3.40622 3.40622 0 01-.75781.90287 3.53991 3.53991 0 01-1.01367.579 8.53114 8.53114 0 01-1.60718.38571c-.48926.09833-.9834.16119-1.478.22253a27.54476 27.54476 0 01-2.98193.19129 23.832 23.832 0 01-11.394-2.99662 21.21377 21.21377 0 01-4.69385-3.53424 11.687 11.687 0 01-3.0061-4.9407c2.1914 3.12546 5.4519 4.9393 8.72583 6.37067a28.10988 28.10988 0 0010.38818 2.10275 24.60033 24.60033 0 002.64649-.10437c.43945-.04364.87939-.08725 1.314-.16458.42773-.065.92627-.14194 1.14648-.20435a.5743.5743 0 00.3877-.23685 1.5973 1.5973 0 00.26025-.71856 20.74622 20.74622 0 00-.11718-2.59076 15.68729 15.68729 0 01.144-3.00168c.04224-.26032.073-.46057.13769-.77411a2.00747 2.00747 0 01.58887-1.08871 2.77648 2.77648 0 01.8169-.48734 4.78728 4.78728 0 00.44677-.20724c.16162-.07544.28687-.307.261-.66559a2.19055 2.19055 0 00-.40283-1.05274A17.70507 17.70507 0 01364.70015 229.01978zM282.113 254.3172c2.34131-1.8288 4.58154-3.6058 6.68652-5.5224a82.00471 82.00471 0 005.99878-5.98615 74.70694 74.70694 0 005.29736-6.59759c1.67456-2.2991 3.14966-4.73492 4.66871-7.29236a25.11722 25.11722 0 01-2.64747 8.50845 33.842 33.842 0 01-5.09057 7.38886 35.45774 35.45774 0 01-6.79566 5.84366A26.68843 26.68843 0 01282.113 254.3172z"/><path fill="#f2195c" d="M348.122 241.82a24.45025 24.45025 0 00-6.62256 5.85449c-1.83252 2.27628-3.44555 4.74554-5.09985 7.25937-1.66553 2.51923-3.36572 5.01474-5.15552 7.46265a91.516 91.516 0 01-5.6582 7.20666 56.7972 56.7972 0 013.666-8.436 84.69054 84.69054 0 014.645-7.886A37.54946 37.54946 0 01339.81 246.0668 15.37374 15.37374 0 01348.122 241.82zM312.58491 244.5827c.147 1.68851.16138 3.24173.20972 4.77591.0376 1.52994.0852 3.02667.15259 4.52332l.24975 4.5184c.08765 1.53207.20874 3.08032.207 4.77667a12.3034 12.3034 0 01-2.51489-4.28961 16.99634 16.99634 0 01-.42822-9.81A12.38626 12.38626 0 01312.58491 244.5827zM350.63667 257.47253a27.643 27.643 0 012.10181 3.55732c.59594 1.17559 1.14062 2.34271 1.65747 3.52258.51782 1.17944 1.00317 2.37213 1.46045 3.60809a27.08358 27.08358 0 011.177 3.96158 11.12194 11.12194 0 01-3.22168-2.78525 15.90312 15.90312 0 01-3.31812-7.60931A11.20638 11.20638 0 01350.63667 257.47253z"/><path fill="#f2195c" d="M333.31587 258.17548c.65869 4.51663 1.687 8.88122 2.18921 13.47274a36.36519 36.36519 0 01.167 7.0069 23.69167 23.69167 0 01-1.67822 6.99048c-.93262 2.20389-2.09668 4.18463-3.1211 6.13483a39.8625 39.8625 0 00-2.57666 6.01748 45.93133 45.93133 0 00-2.23779 13.14481 29.72156 29.72156 0 01-.01758-13.77268 33.01611 33.01611 0 012.28467-6.64672c.97974-2.1095 2.08106-4.06315 2.904-6.0383 1.70508-3.8787 1.99195-8.24573 1.94776-12.69516C333.12886 267.34216 332.73237 262.72763 333.31587 258.17548zM248.76313 289.07968a14.38638 14.38638 0 016.9939-.53918 11.123 11.123 0 013.44531 1.38577 18.5238 18.5238 0 012.87037 2.1492 18.306 18.306 0 014.20751 5.69839 14.97338 14.97338 0 011.492 6.79194 50.3664 50.3664 0 00-3.52344-5.593 32.99779 32.99779 0 00-4.20166-4.6857 18.98621 18.98621 0 00-4.97534-3.4979A42.58421 42.58421 0 00248.76313 289.07968zM238.07124 404.36374a11.48213 11.48213 0 012.415-3.33521 16.43075 16.43075 0 013.19629-2.44122 16.2389 16.2389 0 013.6897-1.59994 11.38309 11.38309 0 014.09179-.47446 21.26392 21.26392 0 01-3.07153 2.60132c-1.04712.74618-2.10645 1.42621-3.19336 2.06042-1.08643.635-2.19727 1.22739-3.36011 1.77646A21.64587 21.64587 0 01238.07124 404.36374zM238.41426 397.80188a11.75072 11.75072 0 013.18725-2.625 16.89028 16.89028 0 013.70484-1.5834 16.68935 16.68935 0 013.9729-.66986 11.64313 11.64313 0 014.10058.49432 20.75607 20.75607 0 01-3.61328 1.81372c-1.20166.47833-2.40112.88635-3.61694 1.24-1.21582.35443-2.446.65842-3.71582.90378A21.10886 21.10886 0 01238.41426 397.80188zM238.54561 389.03345a13.52975 13.52975 0 014.38208-1.54615 19.19326 19.19326 0 014.57153-.2647 18.99155 18.99155 0 014.5061.81552 13.41789 13.41789 0 014.1604 2.07232 30.8379 30.8379 0 01-4.53.25742c-1.459-.00882-2.88989-.06186-4.31933-.15177-1.42969-.089-2.85669-.21032-4.30591-.37945A31.47984 31.47984 0 01238.54561 389.03345zM318.91572 376.05753a22.21451 22.21451 0 016.28-5.4264l6.80664-4.26638c2.24561-1.4328 4.47583-2.88794 6.71656-4.364 2.25122-1.46606 4.47851-2.98361 6.87329-4.40335a34.68958 34.68958 0 01-5.417 6.259 46.51 46.51 0 01-6.56225 5.03815 48.89412 48.89412 0 01-7.3169 3.81388C323.79292 373.76828 321.35688 374.73 318.91572 376.05753zM344.8332 374.12375a18.4488 18.4488 0 012.51758-2.74048 34.58218 34.58218 0 012.69531-2.20541 33.454 33.454 0 012.90039-1.92655 18.13944 18.13944 0 013.36475-1.5928 9.92629 9.92629 0 01-1.80713 3.36447 14.05131 14.05131 0 01-2.678 2.56854 14.20876 14.20876 0 01-3.24707 1.79611A10.00888 10.00888 0 01344.8332 374.12375zM359.30659 373.42224a6.65558 6.65558 0 01-.84009 2.70889 8.983 8.983 0 01-1.60205 2.09488 8.84626 8.84626 0 01-2.13867 1.5427 6.59409 6.59409 0 01-2.73511.75671 8.56074 8.56074 0 011.1753-2.52624 11.72565 11.72565 0 011.60913-1.92487 11.99646 11.99646 0 011.97461-1.549A8.67172 8.67172 0 01359.30659 373.42224zM362.82344 389.93738a6.741 6.741 0 01-2.31592-2.79288 9.31844 9.31844 0 01-.30469-7.06534 6.69877 6.69877 0 012.074-2.97894c.15844 1.25616.197 2.32965.25122 3.37683l.12719 3.03729.12745 3.03812C362.8166 387.601 362.8708 388.67413 362.82344 389.93738zM366.166 282.21927a27.61544 27.61544 0 00-6.91138 3.5679 18.30983 18.30983 0 00-5.15356 5.53867 16.43387 16.43387 0 00-2.16529 7.096 33.86136 33.86136 0 00.31446 7.59147c.35937 2.54022.88818 5.10177 1.3562 7.67633.46606 2.5722.99633 5.13256 1.49756 7.69751 1.0371 5.12329 2.075 10.24591 3.23828 15.3413q1.67358 7.6582 3.55 15.271c.59326 2.54572 1.25292 5.07437 1.88256 7.61163l1.98438 7.5875c2.68384 10.11059 5.62988 20.151 8.658 30.2062a286.26388 286.26388 0 01-10.907-29.5559c-3.16138-10.02658-5.78833-20.21628-8.09522-30.47263-2.21582-10.29654-4.19751-20.56329-5.4812-31.09241a33.69113 33.69113 0 01.05884-8.09362 17.98336 17.98336 0 012.873-7.65189 18.91454 18.91454 0 015.93457-5.44193A25.23837 25.23837 0 01366.166 282.21927zM444.26606 408.43488a9.667 9.667 0 00-5.8291-4.34354 18.7365 18.7365 0 00-7.31543-.6286 30.788 30.788 0 01-7.79443.03833c-1.34131-.28324-2.52539-.66257-3.78369-1.03366-1.20654-.45413-2.45606-.82395-3.63013-1.35587a70.74954 70.74954 0 01-13.49145-7.46829 68.96448 68.96448 0 01-6.11914-4.7168c-.49537-.41366-.9795-.845-1.45581-1.28924q-.72548-.64627-1.4209-1.35367c-.47193-.447-.92456-.96509-1.38062-1.46582-.22876-.274-.45679-.58536-.6814-.87937a4.529 4.529 0 01-.594-1.32733c-1.24707-4.92257-2.35107-9.8764-3.4331-14.83218-1.03711-4.96591-2.02051-9.942-2.907-14.93625-.87329-4.99664-1.68823-10.00415-2.34668-15.037-.66186-5.0296-1.21655-10.08664-1.39087-15.16607l-.00048-.01471v0a.03955.03955 0 00.0144.03552l-.019-.06842.04321-3.193.32568 3.16428-.0188-.068a.446.446 0 01.03.1293l-.00048-.01431c1.47387 10.0021 3.658 19.87845 5.76709 29.75888 1.07348 4.93692 2.16528 9.86926 3.3142 14.78723 1.10743 4.92718 2.2959 9.83429 3.51612 14.72931l.05566.22989c.01929.07916.03638.03293.04761.05639.04321.0308-.01685-.00225.06641.108l.47753.62329c.39454.436.76734.87841 1.21143 1.30584q.63061.65227 1.31592 1.276.6676.63483 1.37451 1.23938c1.86157 1.63166 3.82446 3.16813 5.83228 4.638A76.80371 76.80371 0 00416.83 399.00662c1.10937.56534 2.27954.96457 3.41968 1.45554.57812.21988 1.16894.39746 1.752.60342.58154.1976 1.18042.42667 1.72852.559a30.64594 30.64594 0 007.34057.40589 19.15916 19.15916 0 017.6416 1.30169 11.90872 11.90872 0 013.32007 2.00931A8.34489 8.34489 0 01444.26606 408.43488z"/><path fill="#f2195c" d="M444.26606 408.43488a9.667 9.667 0 00-5.8291-4.34354 18.7365 18.7365 0 00-7.31543-.6286 30.788 30.788 0 01-7.79443.03833c-1.34131-.28324-2.52539-.66257-3.78369-1.03366-1.20654-.45413-2.45606-.82395-3.63013-1.35587a70.74954 70.74954 0 01-13.49145-7.46829 68.96448 68.96448 0 01-6.11914-4.7168c-.49537-.41366-.9795-.845-1.45581-1.28924q-.72548-.64627-1.4209-1.35367c-.47193-.447-.92456-.96509-1.38062-1.46582-.22876-.274-.45679-.58536-.6814-.87937a4.529 4.529 0 01-.594-1.32733c-1.24707-4.92257-2.35107-9.8764-3.4331-14.83218-1.03711-4.96591-2.02051-9.942-2.907-14.93625-.87329-4.99664-1.68823-10.00415-2.34668-15.037-.66186-5.0296-1.21655-10.08664-1.39087-15.16607l-.00048-.01471v0a.03955.03955 0 00.0144.03552l-.019-.06842.04321-3.193.32568 3.16428-.0188-.068a.446.446 0 01.03.1293l-.00048-.01431c1.47387 10.0021 3.658 19.87845 5.76709 29.75888 1.07348 4.93692 2.16528 9.86926 3.3142 14.78723 1.10743 4.92718 2.2959 9.83429 3.51612 14.72931l.05566.22989c.01929.07916.03638.03293.04761.05639.04321.0308-.01685-.00225.06641.108l.47753.62329c.39454.436.76734.87841 1.21143 1.30584q.63061.65227 1.31592 1.276.6676.63483 1.37451 1.23938c1.86157 1.63166 3.82446 3.16813 5.83228 4.638A76.80371 76.80371 0 00416.83 399.00662c1.10937.56534 2.27954.96457 3.41968 1.45554.57812.21988 1.16894.39746 1.752.60342.58154.1976 1.18042.42667 1.72852.559a30.64594 30.64594 0 007.34057.40589 19.15916 19.15916 0 017.6416 1.30169 11.90872 11.90872 0 013.32007 2.00931A8.34489 8.34489 0 01444.26606 408.43488zM363.218 245.1731a27.42765 27.42765 0 01.87378 18.77233c-.43213 1.52567-.91651 2.99149-1.19629 4.44162a11.27716 11.27716 0 00-.08716 4.25361 17.85392 17.85392 0 003.77 7.79748c1.855 2.36472 4.0415 4.57626 6.15161 6.99985a41.09363 41.09363 0 015.498 8.00387 32.286 32.286 0 013.28345 9.21994 25.5033 25.5033 0 01.46118 4.95957 9.763 9.763 0 01-1.41748 5.12948l-1.72754-1.64794a19.40882 19.40882 0 004.772-4.37159 19.74806 19.74806 0 003.1814-5.72467 20.42177 20.42177 0 001.18286-6.54379 21.54749 21.54749 0 00-.93579-6.72144 19.60368 19.60368 0 011.81982 6.68915 20.64118 20.64118 0 01-.58789 7.03195 21.33289 21.33289 0 01-2.9978 6.49238 21.65957 21.65957 0 01-5.05493 5.16082 1.21308 1.21308 0 01-1.76392-1.58566l.03613-.06235c1.28125-2.23056.906-5.35733.29981-8.25546a32.34963 32.34963 0 00-3.15332-8.38834 45.113 45.113 0 00-5.13989-7.46939c-1.9629-2.34326-4.22706-4.57931-6.14771-7.232a19.96744 19.96744 0 01-3.97461-9.13245 13.66329 13.66329 0 01.37109-5.08642 42.3355 42.3355 0 011.53-4.558A29.51429 29.51429 0 00363.218 245.1731z"/><path fill="#f2195c" d="M375.665 275.74234l1.01465 3.15948c.31592.95966.64233 1.8639.99145 2.76081.35157.89593.72046 1.78305 1.135 2.704l1.38037 3.01855a5.91215 5.91215 0 01-3.26782-1.60363 8.27068 8.27068 0 01-2.57861-6.65073A5.94244 5.94244 0 01375.665 275.74234zM382.78682 311.37747a32.601 32.601 0 00-1.261 5.5697 16.69591 16.69591 0 00.15137 5.5083l-.07642-.24139a1.03956 1.03956 0 01.0957.40976l-.01-.12723a11.64749 11.64749 0 001.32959 3.49665 11.52235 11.52235 0 002.36792 2.83041c1.89673 1.67621 4.22266 3.16791 6.28687 5.12964a18.66217 18.66217 0 014.96387 7.107 13.59811 13.59811 0 01.85815 4.4404 11.13047 11.13047 0 01-.91064 4.5549l-2.54663-1.43844a14.6635 14.6635 0 002.46142-6.2764l-.012.18042.00024-.00766.00122-.06436a.95246.95246 0 01.011-.1189 20.568 20.568 0 00-.10669-6.48611 33.22306 33.22306 0 00-1.84912-6.44053c-.80762-2.13-1.84937-4.14242-2.80371-6.31536a13.22153 13.22153 0 01-1.01392-3.42911 7.0386 7.0386 0 01.34326-3.50177c-.40844 2.33343.5232 4.51019 1.65625 6.43786.57056.98011 1.21924 1.94172 1.82349 2.95017.5979 1.00925 1.1709 2.03912 1.7041 3.09671a30.6278 30.6278 0 012.50586 6.72324 21.22633 21.22633 0 01.47412 7.331l.01221-.18283v.00766a.91212.91212 0 01-.00391.1069l-.00781.07388a16.28859 16.28859 0 01-2.79736 7.61548 1.46928 1.46928 0 01-2.55884-1.41027l.01221-.02817a9.6587 9.6587 0 00-.0232-6.81937 17.40932 17.40932 0 00-4.11377-6.13928c-1.77148-1.85175-3.98193-3.36633-5.98388-5.43173a12.32983 12.32983 0 01-3.69409-7.7356l-.01-.12762a.62783.62783 0 00.08007.31594l-.07641-.24179a16.6229 16.6229 0 01.52954-5.935A25.99424 25.99424 0 01382.78682 311.37747z"/><path fill="#f2195c" d="M397.79878 342.169l.104.33975.00049.0057.001.00763-.00049-.00631c.68384 2.3869.29224 4.956.15723 7.31085a17.08341 17.08341 0 00.75732 6.78137 16.40881 16.40881 0 003.3 5.76746c.81616.87838 1.582 1.779 2.38184 2.50161a8.08659 8.08659 0 002.59326 1.62723 12.095 12.095 0 001.4768.46967.68383.68383 0 00-.7041.2492.67112.67112 0 00-.114.35239.823.823 0 00.145.51245.51922.51922 0 00.12012.12393l-.21216-.183c-.1416-.12753-.28247-.26193-.41919-.40826a5.99257 5.99257 0 01-.7146-.93372 14.98518 14.98518 0 00-.87622-1.3851 16.70519 16.70519 0 01-3.33325-6.99948 17.03948 17.03948 0 01.13623-7.58588c.56054-2.4183 1.3706-4.67963 2.02807-7.02487v-.00006l.001-.00775.001.00775v.00033c-.03516 2.44269-.47046 4.86777-.62647 7.23328a17.53256 17.53256 0 00.66577 6.80286 16.02538 16.02538 0 003.26172 5.78466 11.19283 11.19283 0 011.16553 1.60679 3.04331 3.04331 0 00.39648.4952c.07154.07273.15161.14484.23609.21781l.13379.10959a2.372 2.372 0 01.42749.45495 2.1379 2.1379 0 01.39526 1.36408 2.27749 2.27749 0 01-.43042 1.18908 2.36167 2.36167 0 01-.92676.767 2.17844 2.17844 0 01-1.35107.16071 13.60721 13.60721 0 01-1.98828-.58734 11.09989 11.09989 0 01-3.47193-2.269 27.02412 27.02412 0 01-2.52563-2.83273 17.09422 17.09422 0 01-3.39258-6.97159 16.88086 16.88086 0 01.009-7.594c.53418-2.40656 1.26489-4.657 1.21338-7.09439l-.00049-.00675.001-.00763.00024.00531zM405.04316 332.64847a30.20017 30.20017 0 01-1.68554-3.61057l-1.33618-3.44565-1.28956-3.43753c-.42553-1.17657-.875-2.36724-1.2456-3.75955a9.09334 9.09334 0 013.27783 2.56195 12.47647 12.47647 0 012.06323 3.57581 13.1278 13.1278 0 01.83106 4.02206A10.05223 10.05223 0 01405.04316 332.64847zM401.64473 270.06268a53.28784 53.28784 0 015.88134 12.25095 29.74285 29.74285 0 011.3064 6.85892 29.17621 29.17621 0 01-.51343 6.98074 22.11065 22.11065 0 00-.50488 6.232 19.261 19.261 0 001.81519 5.96122c.90576 1.97509 1.96435 3.96566 2.887 6.04739a30.89539 30.89539 0 011.19385 3.22025 8.678 8.678 0 01.1394 3.44961 10.39736 10.39736 0 00-.91357-3.14554c-.53931-.95269-1.09449-1.91156-1.717-2.82672-1.19556-1.86188-2.52051-3.66733-3.66944-5.67056a19.11227 19.11227 0 01-2.55127-6.66208 21.45485 21.45485 0 01.36524-7.1091 28.42985 28.42985 0 00.63842-6.367 34.95841 34.95841 0 00-.73413-6.387C404.39082 278.62744 402.9001 274.40283 401.64473 270.06268z"/><path fill="#f2195c" d="M398.65425 289.20575a12.5442 12.5442 0 011.03052 5.41962 31.70038 31.70038 0 01-.65259 5.47818c-.66138 3.54895-1.56739 6.96377-1.218 10.13726.24072 3.15616 2.053 5.983 4.481 8.36216.603.60067 1.26269 1.15112 1.93091 1.7044.30786.25357.74975.594 1.082.92606.344.33435.66821.67.97192 1.02038a25.91119 25.91119 0 013.11914 4.50812c-1.37671-1.19064-2.71533-2.38324-4.1272-3.434-.34814-.26517-.69653-.52347-1.0476-.75561-.35694-.24283-.66626-.395-1.104-.639a21.31325 21.31325 0 01-2.3479-1.55206 16.25749 16.25749 0 01-3.97314-4.19251 13.32712 13.32712 0 01-1.32764-2.68777 9.09453 9.09453 0 01-.395-1.46384 9.28707 9.28707 0 01-.24536-1.4852 18.36246 18.36246 0 01.42188-5.76929 52.95054 52.95054 0 011.519-5.25406C397.841 296.13763 398.96382 292.85779 398.65425 289.20575zM372.81221 219.15488a5.04361 5.04361 0 013.21972.62579 11.47923 11.47923 0 012.63575 2.06943 39.982 39.982 0 014.11254 5.19763c2.4502 3.67355 4.4712 7.5676 6.75513 11.18585a44.16763 44.16763 0 003.74683 5.10526 32.15261 32.15261 0 004.582 4.28161c1.67358 1.32306 3.42309 2.63117 5.147 4.05789a36.335 36.335 0 0111.42969 16.56812 33.58619 33.58619 0 011.675 13.376 47.30158 47.30158 0 01-3.00952 12.94815 112.91638 112.91638 0 01-5.42994 11.951c1.39307-4.13977 2.89136-8.23569 4.02857-12.40448a51.54894 51.54894 0 002.07251-12.60929 33.11837 33.11837 0 00-2.01978-12.32849 35.43135 35.43135 0 00-6.22265-10.80792 34.45134 34.45134 0 00-4.40943-4.45273c-1.6101-1.37811-3.35937-2.66974-5.05615-4.10675a34.89726 34.89726 0 01-4.7959-4.78809 38.33139 38.33139 0 01-3.738-5.59042c-2.19141-3.8594-3.90332-7.86072-6.00464-11.6203a42.80726 42.80726 0 00-3.48438-5.4172 11.02878 11.02878 0 00-2.25073-2.23182A4.81957 4.81957 0 00372.81221 219.15488zM391.02827 218.28931a41.17694 41.17694 0 005.84912 12.83621 62.58073 62.58073 0 004.38648 5.49429l4.77563 5.36173c1.57349 1.839 3.12866 3.74868 4.53906 5.75607a47.08841 47.08841 0 013.752 6.34946 30.28294 30.28294 0 013.37109 14.1821 44.28454 44.28454 0 00-5.42724-13.063 63.76357 63.76357 0 00-3.99146-5.79544c-1.42114-1.87525-2.91919-3.68149-4.50537-5.46137-3.094-3.60818-6.43677-7.23944-8.87744-11.58728A29.01848 29.01848 0 01391.02827 218.28931zM379.42158 209.54111a9.26742 9.26742 0 004.374-.31522 29.48774 29.48774 0 004.07836-1.6384 23.23144 23.23144 0 014.45411-1.67019 17.53256 17.53256 0 014.88794-.48627 17.08217 17.08217 0 019.19091 3.08026 15.17707 15.17707 0 015.7439 7.42056 23.967 23.967 0 00-6.95459-5.4168 20.00169 20.00169 0 00-8.10278-2.08744 19.20984 19.20984 0 00-4.17823.267 39.8463 39.8463 0 00-4.23266 1.08029 19.47456 19.47456 0 01-4.666.89935A7.61857 7.61857 0 01379.42158 209.54111zM400.26 218.94736c2.11426 5.028 5.57446 9.0636 9.25366 12.91906l5.60987 5.82264c1.85962 2.00274 3.615 4.09109 5.31128 6.24447a62.23206 62.23206 0 018.33764 14.18439 43.93073 43.93073 0 012.386 7.90088 33.72973 33.72973 0 01.51367 8.16989 53.57774 53.57774 0 00-1.93872-7.79681 59.07019 59.07019 0 00-3.09229-7.30558 70.31373 70.31373 0 00-3.98071-6.84848q-2.14782-3.33279-4.60132-6.47509c-3.18725-4.261-6.842-8.11393-10.29834-12.35831a48.62562 48.62562 0 01-4.6936-6.75888A24.68069 24.68069 0 01400.26 218.94736zM420.54487 266.19971c.7815 3.80566 1.45826 7.62085 2.51367 11.29736a40.05014 40.05014 0 004.38038 10.38266 22.72053 22.72053 0 007.58471 7.73962 16.32054 16.32054 0 0010.15039 2.40091l-.55688 2.74964c-.98584-.61835-2.6521-.71778-4.47388-1.3468a13.87531 13.87531 0 01-4.67871-2.833 18.64768 18.64768 0 01-3.39795-4.10459 26.32171 26.32171 0 01-2.20288-4.70135 42.79657 42.79657 0 01-1.42993-4.8642c-.38623-1.62909-.75342-3.2576-1.04224-4.89959-.59765-3.27958-1.05591-6.56772-1.41675-9.87241l2.75489 9.55075a86.83761 86.83761 0 003.20678 9.2579 20.22963 20.22963 0 005.31958 7.55823 12.25616 12.25616 0 003.832 2.17383 20.12019 20.12019 0 002.25683.55606 9.71633 9.71633 0 012.7478.96152 1.47419 1.47419 0 01-.51782 2.74454l-.03906.00521a18.44636 18.44636 0 01-12.02246-2.87161 23.99668 23.99668 0 01-8.1853-8.97934 35.37116 35.37116 0 01-2.3628-5.51059 45.86875 45.86875 0 01-1.41577-5.75253A76.83378 76.83378 0 01420.54487 266.19971zM367.13105 242.62579a5.68347 5.68347 0 012.38843-3.03811 3.48609 3.48609 0 012.3042-.34207 3.61987 3.61987 0 012.03247 1.39828 19.33093 19.33093 0 013.13233 6.89035c.3164 1.16946.59033 2.32169.87231 3.44354a20.22756 20.22756 0 00.95728 3.12436 4.259 4.259 0 00.75805 1.16269 2.56742 2.56742 0 001.12159.72543 1.92914 1.92914 0 002.43383-1.26156c.33911 1.28433-.99682 2.7381-2.57885 2.72742a4.69532 4.69532 0 01-3.751-2.12983 14.21693 14.21693 0 01-1.66626-3.53061c-.40527-1.168-.72315-2.33264-1.03931-3.46847a32.79179 32.79179 0 00-2.18676-6.36569 1.9845 1.9845 0 00-.668-.8476 1.795 1.795 0 00-1.21241-.15252A7.08918 7.08918 0 00367.13105 242.62579z"/><path fill="#f2195c" d="M380.945 239.167a3.3686 3.3686 0 012.26636 1.07868c.27856.26352.58593.7926.59619.67135.02734-.03659-.19971-.30734-.541-.37017-.34179-.0467-.43676.04846-.39184.00875.03637-.01211.23266-.11981.35425-.18405l.42919-.19766a8.83641 8.83641 0 01.91822-.33731 8.20065 8.20065 0 012.27636-.37164 4.28117 4.28117 0 01-.87768 2.27105 5.18911 5.18911 0 01-.77686.83057c-.14135.125-.29467.23242-.44482.34576-.17383.11051-.27075.18192-.53931.32676a2.3068 2.3068 0 01-1.37964.23422 1.99215 1.99215 0 01-1.36108-.94089 2.576 2.576 0 01-.32837-1.166C381.07368 240.75211 380.99482 240.08884 380.945 239.167zM370.56343 246.57474a4.48989 4.48989 0 011.72363 1.13949 4.05915 4.05915 0 01.291.341 1.86346 1.86346 0 01.27929.44653 1.96987 1.96987 0 01.1167 1.23123 2.31173 2.31173 0 01-.5686 1.01227 4.79105 4.79105 0 01-1.56836.98251 4.02211 4.02211 0 01-2.05518.24985 5.014 5.014 0 01.48413-2.00952 4.224 4.224 0 01.96216-1.28552c.06055-.04432-.04468.01876-.11645.30377-.04883.29117.03027.43332.04712.39627.0271-.02011-.022-.205-.02832-.3454a4.0133 4.0133 0 01-.02539-.4476A4.48869 4.48869 0 01370.56343 246.57474z"/><path fill="#f2195c" d="M364.072,243.897a20.15554,20.15554,0,0,1,4.519,6.76465,22.884,22.884,0,0,1,1.1936,3.98187c.28516,1.339.45557,2.6438.82251,3.80667a8.57973,8.57973,0,0,0,1.65356,3.064,28.27714,28.27714,0,0,0,2.688,2.70706c1.92822,1.81174,3.86182,3.58338,5.9187,5.1807a63.51457,63.51457,0,0,0,6.37549,4.50372,7.40367,7.40367,0,0,0,3.12427,1.2084,6.98522,6.98522,0,0,0,3.28467-.57638,27.12533,27.12533,0,0,0,6.27807-4.39221,34.46408,34.46408,0,0,1,3.23853-2.45389,7.3579,7.3579,0,0,0,2.7832-2.72076,6.96805,6.96805,0,0,1-2.25879,3.36615c-.98559.91845-1.84448,1.86065-2.74536,2.8735a24.32915,24.32915,0,0,1-6.293,5.44266,10.43344,10.43344,0,0,1-2.11279.838,8.967,8.967,0,0,1-2.354.2453,10.06024,10.06024,0,0,1-4.38477-1.38217,59.7762,59.7762,0,0,1-6.80249-4.60629,75.0675,75.0675,0,0,1-6.0293-5.49863,30.51932,30.51932,0,0,1-2.78857-3.13684,10.02138,10.02138,0,0,1-1.83472-4.08414,33.6354,33.6354,0,0,1-.49878-4.09524,22.2686,22.2686,0,0,0-.64795-3.80857A25.22594,25.22594,0,0,0,364.072,243.897Z"/><path fill="#f4648a" d="M391.80366,256.94534a6.91582,6.91582,0,0,1-.81762,2.24121,8.26666,8.26666,0,0,1-1.42066,1.84674,6.96761,6.96761,0,0,1-1.9602,1.35981,4.50663,4.50663,0,0,1-2.40821.42544c.53369-.66534,1.0271-1.18689,1.50806-1.71484.48413-.51737.96143-1.01605,1.46777-1.50507a20.74539,20.74539,0,0,1,1.62134-1.42953A8.84626,8.84626,0,0,1,391.80366,256.94534Z"/><path fill="#f2195c" d="M391.52217 254.97028a1.65984 1.65984 0 011.01-.33554 1.29512 1.29512 0 01.75659.263 1.27494 1.27494 0 01.44727.664 1.6505 1.6505 0 01-.07154 1.0639 3.07659 3.07659 0 01-1.011.07681 1.15252 1.15252 0 01-.58716-.22256 1.18309 1.18309 0 01-.36206-.51438A3.11321 3.11321 0 01391.52217 254.97028zM376.57734 235.36133a2.907 2.907 0 01.24366-2.57331 4.4426 4.4426 0 011.83252-1.73608 4.90245 4.90245 0 012.30175-.54391 4.75283 4.75283 0 012.34888.64755 6.98584 6.98584 0 01-1.69922 1.62015 13.272 13.272 0 01-1.58008.94348c-.4895.25137-.98022.47113-1.51733.70657A17.85585 17.85585 0 00376.57734 235.36133zM420.17939 226.6358c1.90284 3.0192 3.7981 5.9336 5.72413 8.85233 1.94091 2.90582 3.87231 5.82886 5.70117 8.85361a68.91188 68.91188 0 014.89038 9.48233 33.684 33.684 0 012.65576 10.37136c-1.46826-3.25412-3.04907-6.32968-4.761-9.34719-1.72754-3.00583-3.54638-5.96012-5.354-8.959-1.80054-3.00061-3.59766-6.044-5.15552-9.24148A43.60132 43.60132 0 01420.17939 226.6358zM421.007 219.04178c1.82739 2.74023 3.66455 5.34473 5.56641 7.92361 1.91577 2.5651 3.85571 5.1178 5.74707 7.74646a76.81655 76.81655 0 015.27832 8.24161 33.79288 33.79288 0 013.58545 9.1824c-1.82666-2.74139-3.66211-5.34643-5.561-7.92672-1.91308-2.56665-3.85254-5.11917-5.74023-7.75006a77.81653 77.81653 0 01-5.2771-8.24143A34.04186 34.04186 0 01421.007 219.04178z"/><path fill="#f2195c" d="M371.10005 205.77277c1.177-1.0578 2.35937-2.11039 3.56445-3.14136 1.22-1.012 2.459-2.0054 3.74585-2.944a37.84541 37.84541 0 018.34717-4.7667 22.44518 22.44518 0 019.65137-1.54495 23.195 23.195 0 012.46289.27872c.80176.18451 1.625.31238 2.40722.56757a29.93908 29.93908 0 014.60791 1.7294c5.94336 2.80725 10.87622 7.15341 15.43506 11.58029a131.03646 131.03646 0 0112.63916 14.40759 48.74392 48.74392 0 015.12281 8.31259 32.02281 32.02281 0 012.71679 9.48822c.44165 3.22479.56958 6.41641.7815 9.54688.19506 3.12655.57666 6.192 1.02685 9.32284.4419 3.12155.94727 6.26721 1.20655 9.46527a29.24451 29.24451 0 01-.96827 9.68113 50.45628 50.45628 0 01-3.40942 8.95858 70.69221 70.69221 0 01-4.71924 8.25879c2.88062-5.61593 5.529-11.42309 6.69531-17.54623a27.86779 27.86779 0 00.44629-9.14487c-.41284-3.09091-.991-6.17917-1.562-9.29776a92.28282 92.28282 0 01-1.33642-9.49145c-.28443-3.17093-.48462-6.30292-.97095-9.33634a30.088 30.088 0 00-2.55835-8.65478 46.27685 46.27685 0 00-4.87451-7.76987 133.94335 133.94335 0 00-12.23535-14.19418c-4.36915-4.47089-9.04566-8.641-14.46534-11.49421a24.87642 24.87642 0 00-8.61865-2.71865 20.97211 20.97211 0 00-8.99268.97348 36.73086 36.73086 0 00-8.3916 4.04293C376.20161 202.0257 373.64912 203.89676 371.10005 205.77277zM464.03682 310.52194a45.45228 45.45228 0 012.66381 5.26175 12.44011 12.44011 0 01.92017 5.8826 45.98245 45.98245 0 01-.98828 5.85254c-.4043 1.921-.85205 3.83673-1.22583 5.74045a37.3836 37.3836 0 00-.73706 5.702 20.3691 20.3691 0 00.0835 2.82331 13.57017 13.57017 0 00.50122 2.71441 12.28867 12.28867 0 007.03662 7.75434 1.11585 1.11585 0 01.02 2.06424l-.032.01333a9.52955 9.52955 0 01-6.856.0275 12.24742 12.24742 0 01-5.49243-3.95508 16.85584 16.85584 0 01-2.90552-5.96066 28.57325 28.57325 0 01-.93433-6.38678l2.64673.52371c-1.56372 3.564-1.46753 7.73618-.83545 11.80978.627 4.08686 1.86816 8.24842 2.30274 12.69178a24.07682 24.07682 0 01-.19385 6.793 19.15815 19.15815 0 01-2.47534 6.45254 19.92956 19.92956 0 01-10.54224 8.53537l.18286-.076a1.7017 1.7017 0 01-.6958.16678l.54321-.107-.71533.23153a1.43521 1.43521 0 11-.884-2.73089l.01-.00327.09326-.02939.481-.15179.46972-.07956a1.20353 1.20353 0 00-.58349.13553l.11108-.04965a4.35976 4.35976 0 002.32568-2.613 5.94432 5.94432 0 00.37134-1.89932 9.10305 9.10305 0 00-.19433-2.07038 20.32283 20.32283 0 00-1.50977-4.22717 40.00723 40.00723 0 01-1.75708-4.6203 58.64414 58.64414 0 01-2.22144-9.532c-.13012-.8089-.18212-1.637-.2727-2.45413-.02051-.83179-.116-1.65015-.07178-2.49064a17.22451 17.22451 0 01.7041-5.02838l.45362-1.23285c.16919-.38586.35327-.75372.54028-1.12176.37549-.73312.77393-1.44364 1.17529-2.14246.80225-1.3967 1.61621-2.74991 2.28931-4.14673a24.3918 24.3918 0 002.14087-9.004c.35571-6.30613-.939-12.65811-2.7229-18.7808a53.14779 53.14779 0 013.874 18.81815 24.55346 24.55346 0 01-1.81836 9.64258c-.65893 1.51248-1.44311 2.93466-2.17895 4.34067-.36817.70291-.72486 1.40246-1.05152 2.106-.16162.3512-.322.70588-.45971 1.05774l-.33179 1.03354a15.99279 15.99279 0 00-.47046 4.45456c-.02246.7598.09253 1.53485.13013 2.30023.10888.76883.176 1.53843.32226 2.305a57.24871 57.24871 0 002.38013 9.07321 37.43071 37.43071 0 001.72192 4.3139 22.82623 22.82623 0 011.77588 4.76532c.87867 3.33142-.062 8.03528-4.08691 9.815l.1106-.0495a1.69638 1.69638 0 01-.69312.16681l.46948-.07943-.58618.19342-.78052-2.76358c.11621-.042.23291-.07972.35157-.11365l.54345-.10709a1.2098 1.2098 0 00-.58618.1355l.18335-.07617a17.03078 17.03078 0 008.93628-7.33249 16.19067 16.19067 0 002.06323-5.45956 22.60912 22.60912 0 00.1626-5.98087c-.366-4.0835-1.55444-8.174-2.21167-12.53662a32.98081 32.98081 0 01-.3977-6.6792 18.561 18.561 0 011.5852-6.711l.00537-.01211a1.38261 1.38261 0 012.64111.53582 25.901 25.901 0 00.74146 5.79071 14.24552 14.24552 0 002.36035 5.08674 10.05331 10.05331 0 004.29981 3.256 7.20576 7.20576 0 005.18359.1543l-.012 2.07745a14.11191 14.11191 0 01-7.97486-9.32788 25.16115 25.16115 0 01.605-12.03855c.48536-1.92105 1.03174-3.79788 1.53662-5.68978a45.21245 45.21245 0 001.27662-5.677 12.07242 12.07242 0 00-.57276-5.66662A45.29175 45.29175 0 00464.03682 310.52194z"/><path fill="#f2195c" d="M458.75435 315.09778a7.18327 7.18327 0 011.69067 3.559 9.914 9.914 0 01-1.71 7.55215 7.14519 7.14519 0 01-3.06519 2.47861c.32178-1.31876.66162-2.43237.95508-3.53336.29981-1.093.56372-2.149.80811-3.21136.24218-1.06284.46-2.1301.66137-3.24564C458.3061 317.577 458.4792 316.42523 458.75435 315.09778zM439.54561 287.46616a63.0215 63.0215 0 0112.28222 4.64126 38.56747 38.56747 0 015.66773 3.5502 32.52 32.52 0 014.92236 4.66349 23.90344 23.90344 0 013.63428 5.87442 6.7441 6.7441 0 01.47485 1.999 3.69644 3.69644 0 01-.65308 2.41693 3.74911 3.74911 0 01-1.99682 1.34027 7.1924 7.1924 0 01-1.90259.24979 14.83352 14.83352 0 01-6.7168-1.49955 13.32529 13.32529 0 01-5.15356-4.18032 16.35378 16.35378 0 005.67944 2.80432 15.19551 15.19551 0 006.011.54144c.98364-.09671 1.80786-.46112 1.928-.76584a1.08438 1.08438 0 00.07934-.67938 4.15176 4.15176 0 00-.36792-1.12506 25.85218 25.85218 0 00-3.32007-5.05731 32.61424 32.61424 0 00-4.38867-4.37088 52.05009 52.05009 0 00-5.07153-3.74656C447.09834 291.79761 443.27021 289.7662 439.54561 287.46616zM445.60908 260.50732a3.57007 3.57007 0 01.47705-1.93811 3.80626 3.80626 0 011.15576-1.24319 3.74877 3.74877 0 011.582-.61343 3.54442 3.54442 0 011.97851.28219 4.99228 4.99228 0 01-.79736 1.75974 4.2678 4.2678 0 01-1.083 1.05575 4.362 4.362 0 01-1.3855.60889A5.04761 5.04761 0 01445.60908 260.50732z"/><path fill="#f2195c" d="M440.97456 245.41562a215.10922 215.10922 0 0123.25342 6.27664c1.9126.61878 3.81738 1.26532 5.7063 1.95914a54.15006 54.15006 0 015.71045 2.315 15.91478 15.91478 0 015.20141 3.95874 10.43949 10.43949 0 012.57788 6.36939 17.89064 17.89064 0 01-1.52 6.33136c-.70337 1.89346-1.42065 3.77316-2.17187 5.63131-1.52149 3.70941-2.99219 7.40345-4.33569 11.12653-.67872 1.85318-1.19776 3.75351-1.92237 5.69806a51.30826 51.30826 0 01-2.47607 5.57889 55.11288 55.11288 0 01-3.09741 5.22122q-.84742 1.2561-1.77955 2.45108c-.31665.39349-.64038.78113-.97753 1.15695a5.80484 5.80484 0 01-1.10645 1.02808 5.71536 5.71536 0 00.92725-1.16694c.27368-.41738.53222-.84378.7832-1.27484.50537-.85946.98926-1.72989 1.438-2.61871.90478-1.77228 1.74463-3.57288 2.47461-5.41312a51.55265 51.55265 0 001.94751-5.58117c.52612-1.859.98535-3.84632 1.5603-5.79642 1.10815-3.90216 2.55249-7.67194 3.91382-11.432l2.06616-5.60757a15.57284 15.57284 0 001.27856-5.2768 7.497 7.497 0 00-1.83593-4.558 13.775 13.775 0 00-4.2544-3.3139 51.8211 51.8211 0 00-5.33862-2.3786l-5.55737-2.2128C456.00215 250.98782 448.49189 248.23947 440.97456 245.41562zM444.8105 399.31866a5.05514 5.05514 0 01.26367-2.63885 6.63217 6.63217 0 011.28442-2.12738 6.54911 6.54911 0 011.97364-1.50971 5.01508 5.01508 0 012.59765-.54412 9.36616 9.36616 0 01-1.03442 2.31082 11.82534 11.82534 0 01-1.30444 1.74591 12.18575 12.18575 0 01-1.59815 1.483A9.51881 9.51881 0 01444.8105 399.31866z"/><path fill="#f2195c" d="M475.56855,285.2554c2.40479,1.48731,5.179,2.017,7.87452,2.8197a22.732,22.732,0,0,1,4.03149,1.48633,11.027,11.027,0,0,1,3.479,2.75885,17.75969,17.75969,0,0,1,3.44043,8.03421,60.69744,60.69744,0,0,1,.89844,8.50028c.11133,2.822.29981,5.649.23828,8.47455-.01123,1.41256.01416,2.82757-.02783,4.23934l-.15112,4.23508c-.27344,5.64288-.79639,11.26862-1.49365,16.863-.70411,5.59637-1.62256,11.15262-2.58667,16.6954-1.043,5.527-2.08277,11.0499-3.27076,16.53665l-7.04126,32.9245c1.05616-11.1914,2.866-22.30234,4.741-33.35965,1.85156-11.06466,3.81958-22.09009,5.18311-33.17233.396-2.765.65625-5.54089.97-8.313.24414-2.776.50049-5.55359.67041-8.33319.41943-5.55945.47339-11.12872.43823-16.69952a65.71909,65.71909,0,0,0-.49683-8.25989,16.2493,16.2493,0,0,0-2.66357-7.45975,9.698,9.698,0,0,0-2.884-2.65076,24.48014,24.48014,0,0,0-3.73829-1.7163C480.59541,287.85236,477.79951,287.012,475.56855,285.2554Z"/><path fill="#f4becd" d="M530.979,418.64491c-10.66886,3.47118-22.338,1.14811-33.012-2.307-10.67419-3.45509-21.1382-8.05084-32.30161-9.17085-8.0236-.805-16.075.49149-24.05825,1.62892-45.2393,6.44554-48.181,23.62225-74.73648,33.0394-11.07323,3.927-41.12375,8.28928-51.42489,13.93935-20.95667,11.49486-24.91054,19.81231-44.65811,33.27893,18.86364-6.99958,50.03135-8.46266,72.33038-13.91643a132.82019,132.82019,0,0,1,20.80173-3.47934c28.20112-2.287,47.4156-20.1101,90.12189-32.773C481.27767,430.80911,511.219,428.42937,530.979,418.64491Z"/><path fill="#f2195c" d="M197.7502 451.40167a10.08375 10.08375 0 00-.78565 5.98242 9.93859 9.93859 0 002.68091 5.15778 8.92926 8.92926 0 004.94238 2.66119 11.01018 11.01018 0 005.60059-.66943 40.98737 40.98737 0 0010.51758-5.86847c3.30859-2.40668 6.49975-5.08484 9.90087-7.5871q5.11194-3.70732 10.50318-6.97277c3.61035-2.1402 7.25854-4.20527 10.9978-6.08539 7.45142-3.81266 15.08862-7.184 22.8457-10.27817-7.21191 4.21753-14.54711 8.16891-21.72509 12.33359-3.57422 2.108-7.1521 4.19464-10.62159 6.44427-3.49 2.21442-6.91821 4.51679-10.22558 6.97522-3.345 2.3866-6.54859 5.06446-10.03565 7.48a39.90414 39.90414 0 01-11.47216 5.78791 12.747 12.747 0 01-6.70166.35254 10.56319 10.56319 0 01-5.62061-3.59913 10.82613 10.82613 0 01-2.408-6.03509A9.89715 9.89715 0 01197.7502 451.40167zM391.54268 480.80005a37.129 37.129 0 01-8.4148 2.72357 49.52687 49.52687 0 01-17.62817.35535 36.85651 36.85651 0 01-8.51612-2.39014c2.96729-.05762 5.84766.02936 8.71973.04 2.86865.02783 5.71777.019 8.56665-.03528 2.84912-.05524 5.69653-.16015 8.562-.30206C385.70161 481.06805 388.57612 480.86414 391.54268 480.80005zM184.061 401.48c1.59057 1.32211 3.0664 2.54977 4.60742 3.659a45.67882 45.67882 0 004.72485 3.01684 46.47256 46.47256 0 005.05908 2.41291c1.75611.721 3.5774 1.32626 5.54 1.98172a13.89663 13.89663 0 01-6.165.29284 18.44214 18.44214 0 01-10.7539-5.97754A13.966 13.966 0 01184.061 401.48zM163.41353 402.40814a15.34051 15.34051 0 005.073 3.73871c1.89917 1.02048 3.769 2.09732 5.61255 3.11966 1.8523 1.01364 3.68946 2.00464 5.60449 2.83374a40.61135 40.61135 0 006.08082 2.12393 13.67493 13.67493 0 01-6.79493.12433 23.10553 23.10553 0 01-6.34326-2.45837 35.84336 35.84336 0 01-5.49048-3.80539 15.3161 15.3161 0 01-2.40405-2.4863A6.70025 6.70025 0 01163.41353 402.40814zM144.48921 417.39084a27.03992 27.03992 0 01-.363 4.043c-.18554 1.26385-.36694 2.46576-.488 3.64694a27.38974 27.38974 0 00-.14428 3.53635 22.875 22.875 0 00.43432 3.85025 6.26559 6.26559 0 01-2.73925-3.34912 9.48034 9.48034 0 01-.53394-4.34778 11.52225 11.52225 0 011.23877-4.07349A10.8718 10.8718 0 01144.48921 417.39084zM179.15522 310.13791a14.87 14.87 0 01.31666 4.62155 21.69092 21.69092 0 01-.82325 4.46631 21.43978 21.43978 0 01-1.72558 4.20084 14.73136 14.73136 0 01-2.77539 3.71041 25.40543 25.40543 0 01.56128-4.52386c.29541-1.44171.65136-2.84622 1.063-4.2348.41065-1.38886.87281-2.76227 1.40625-4.13391A25.86078 25.86078 0 01179.15522 310.13791zM191.52 309.535a8.31612 8.31612 0 011.04688 3.48484 11.56067 11.56067 0 01-.25122 3.54281 11.434 11.434 0 01-1.30616 3.30271 8.2522 8.2522 0 01-2.45825 2.68481 19.855 19.855 0 01.24146-3.49142c.16064-1.08518.3601-2.12815.59887-3.16309.2378-1.03519.51-2.06186.83594-3.1095A20.29775 20.29775 0 01191.52 309.535zM229.26216 270.57709a13.193 13.193 0 01-.87061 4.60321c-.50439 1.436-1.10522 2.77344-1.6643 4.0683-.553 1.28537-1.07349 2.55291-1.49219 3.864a19.37724 19.37724 0 00-.88867 4.26764 6.99757 6.99757 0 01-1.44458-4.61389 12.31059 12.31059 0 011.074-4.71112 20.98063 20.98063 0 012.3335-3.966A36.05788 36.05788 0 01229.26216 270.57709zM229.65083 278.77853a14.82651 14.82651 0 01-.12207 3.79944 34.78012 34.78012 0 01-.70679 3.4715c-.282 1.12472-.60278 2.22119-.94922 3.33609-.35742 1.11777-.71826 2.24374-1.2434 3.49966a8.03275 8.03275 0 01-1.10083-3.76254 12.48269 12.48269 0 01.386-3.80908 14.756 14.756 0 011.38867-3.49262A11.98077 11.98077 0 01229.65083 278.77853z"/><path fill="#f4becd" d="M549.06716,394.753a24.56331,24.56331,0,0,1,23.26686.63583"/><path fill="#f2195c" d="M522.45356 336.965a20.49364 20.49364 0 01.542 6.70309 27.28916 27.28916 0 01-4.269 12.68341 20.3546 20.3546 0 01-4.4917 5.00647c.783-2.12573 1.63184-4.09833 2.39673-6.09106.77881-1.98243 1.50293-3.95667 2.177-5.949.67286-1.99273 1.291-4.0032 1.8711-6.0527C521.27827 341.216 521.7939 339.13107 522.45356 336.965zM530.17183 339.20154a14.46675 14.46675 0 01.26367 4.99081 20.38244 20.38244 0 01-3.41821 9.21991 14.3494 14.3494 0 01-3.46 3.6081 43.05892 43.05892 0 011.356-4.67475c.5061-1.48434 1.0271-2.9339 1.56568-4.37778.53784-1.44427 1.08862-2.88308 1.67407-4.33807A44.164 44.164 0 01530.17183 339.20154zM504.98213 260.97165a19.2824 19.2824 0 011.99072 4.78558 21.28623 21.28623 0 01.75879 5.12448 16.18455 16.18455 0 01-.70947 5.23871 10.24475 10.24475 0 01-2.75464 4.51969c.2124-1.76923.37353-3.36051.43579-4.95212.07056-1.58527.05835-3.15289.02979-4.7464-.03028-1.5925-.08374-3.20837-.08912-4.86374A30.06557 30.06557 0 01504.98213 260.97165zM511.1313 266.377a8.04191 8.04191 0 01.97436 3.05063 11.27063 11.27063 0 01-.04712 3.03775 11.11952 11.11952 0 01-.84985 2.91648 7.96932 7.96932 0 01-1.8374 2.62487 11.0967 11.0967 0 01-.47168-3.10723 16.74653 16.74653 0 01.1936-2.88291 17.17 17.17 0 01.67212-2.8107A11.26086 11.26086 0 01511.1313 266.377zM290.43208 153.99124c-.61523 1.55586-1.21118 2.93968-1.72412 4.33336-.51978 1.385-.969 2.7547-1.35767 4.1425-.38672 1.38831-.71655 2.79093-.99365 4.24379-.28638 1.45668-.49927 2.94779-.78784 4.59732a10.15883 10.15883 0 01-1.56909-4.68887 13.83473 13.83473 0 012.655-9.43979A10.21752 10.21752 0 01290.43208 153.99124zM341.56758 133.42348a7.28183 7.28183 0 012.55713 2.11508 10.05321 10.05321 0 011.543 2.81189 9.93757 9.93757 0 01.58789 3.153 7.22369 7.22369 0 01-.64649 3.25672 15.28428 15.28428 0 01-1.65259-2.729 26.28351 26.28351 0 01-1.11377-2.67352 27.28915 27.28915 0 01-.82519-2.77683A15.55431 15.55431 0 01341.56758 133.42348zM349.22578 134.65378a7.42309 7.42309 0 011.62793 2.26729 10.06286 10.06286 0 01.792 2.42649 9.88876 9.88876 0 01.15894 2.547 7.34862 7.34862 0 01-.68506 2.70768 7.34061 7.34061 0 01-1.63208-2.26654 9.88915 9.88915 0 01-.78809-2.42726 10.07352 10.07352 0 01-.15478-2.54771A7.41809 7.41809 0 01349.22578 134.65378zM325.153 162.64973a24.79318 24.79318 0 01-2.50074 3.60573c-.86767 1.08866-1.7041 2.11859-2.45581 3.16591a22.71286 22.71286 0 00-1.97265 3.2695 16.59688 16.59688 0 00-1.3501 3.9095 6.36359 6.36359 0 01-.91724-4.56083 9.935 9.935 0 011.80616-4.37069 12.96 12.96 0 013.3059-3.15059A13.743 13.743 0 01325.153 162.64973zM287.37959 223.47812a7.16155 7.16155 0 011.53052 2.26672 9.59714 9.59714 0 01.689 2.39371 9.43188 9.43188 0 01.05176 2.48978 7.09107 7.09107 0 01-.7981 2.61792 7.08639 7.08639 0 01-1.53442-2.26615 9.42122 9.42122 0 01-.68481-2.39432 9.59617 9.59617 0 01-.04786-2.49035A7.16637 7.16637 0 01287.37959 223.47812zM291.74336 226.28778a6.56953 6.56953 0 011.49219 2.13391 8.51669 8.51669 0 01.64941 2.25424 8.36168 8.36168 0 01.01172 2.3454 6.501 6.501 0 01-.83887 2.46689 6.5058 6.5058 0 01-1.49634-2.1333 8.37922 8.37922 0 01-.64526-2.25482 8.52635 8.52635 0 01-.00781-2.346A6.57339 6.57339 0 01291.74336 226.28778zM450.153 201.89017a9.00721 9.00721 0 011.64428 3.14233 12.74132 12.74132 0 01.54786 3.376 12.58566 12.58566 0 01-.36109 3.40079 8.93191 8.93191 0 01-1.47632 3.22619 14.9086 14.9086 0 01-.87963-3.34707 25.24408 25.24408 0 01-.281-3.19907 26.0121 26.0121 0 01.1123-3.21A15.16419 15.16419 0 01450.153 201.89017zM456.34346 204.32712a7.12746 7.12746 0 011.35888 2.873 9.82244 9.82244 0 01.22266 3.0344 9.704 9.704 0 01-.7085 2.95868 7.07029 7.07029 0 01-1.81152 2.61343 12.6859 12.6859 0 01-.51025-3.03116 19.9267 19.9267 0 01.04126-2.78531 20.52128 20.52128 0 01.41577-2.755A12.888 12.888 0 01456.34346 204.32712zM229.32808 423.59833a1.5525 1.5525 0 01-.15723-.76074c-.01147-.262-.01392-.52442-.011-.78626-.001-.51752.03614-1.0614.00513-1.5498a18.84063 18.84063 0 01-1.41235-2.77643 27.371 27.371 0 01-1.562-6.13162 88.1233 88.1233 0 01-.53345-12.59388q.09192-12.54166.27466-25.08044c.09838-8.35989.304-16.71661.45922-25.07477.20118-8.35446.366-16.71524.77979-25.1026a192.43781 192.43781 0 012.79883-25.1044 64.89984 64.89984 0 013.64013-12.2597 42.13516 42.13516 0 016.68531-10.97928c5.52783-6.60446 12.604-11.44541 19.68554-15.875 7.15577-4.36228 14.39283-8.50638 21.084-13.54065-6.26685 5.56839-13.436 10.01892-20.28027 14.77234-6.86207 4.69674-13.58179 9.71795-18.67042 16.11725l-1.81127 2.45465L238.6999 281.912a40.64029 40.64029 0 00-2.65893 5.46493 62.18477 62.18477 0 00-3.28247 11.801 196.48114 196.48114 0 00-2.59375 24.72448c-.46827 8.30924-.64307 16.66666-.94239 25.02286-.31762 8.354-.58471 16.70935-.95947 25.06159q-.50574 12.53-1.14429 25.0559-.189 3.13752-.28979 6.24509a50.78944 50.78944 0 00.14673 6.21173 27.18492 27.18492 0 001.2 6.07044 21.65285 21.65285 0 001.21313 2.905c-.00366.5563-.08081 1.055-.11621 1.58129-.02148.26008-.03784.52015-.04516.78052A1.53168 1.53168 0 00229.32808 423.59833z"/><path fill="#f4dfe5" d="M264.85077,335.24546s6.68579,38.18675,42.26346,44.97245c0,0-4.365-3.63271-43.165,4.07427,0,0,2.56732-13.45759,2.38264-17.46468S264.85077,335.24546,264.85077,335.24546Z"/><path fill="#f2195c" d="M263.87593,384.85825c.07641.2658.1062.65472.16406.97165l.022.1138c-.00464-.04749-.10156-.17148-.2312-.0243-.01489.051-.00683-.001-.00683-.001l.001-.06366.0044-.25461.009-.509.05981-2.03019.09864-4.0498c.073-2.69516.08862-5.38782.11377-8.07559.00659-5.37674-.02759-10.74335-.2461-16.09861-.10376-2.68112-.23462-5.337-.40893-8.04806a73.17345,73.17345,0,0,1-.02515-8.2265,38.08957,38.08957,0,0,1,.49561-4.13812,31.4282,31.4282,0,0,1,1.054-4.04078,19.24957,19.24957,0,0,1,4.17822-7.08285c-2.72192,4.7449-3.41088,10.08365-3.33642,15.32519.05493,2.637.24707,5.28849.50366,7.969.2063,2.67874.43994,5.415.51978,8.13479a136.86234,136.86234,0,0,1-.44385,16.31263c-.22168,2.71005-.56665,5.41021-.97974,8.09665-.22827,1.34115-.44287,2.68209-.72265,4.01342l-.42627,1.99311-.11744.49621-.05883.248-.0149.062-.01562.06165c-.13525.183-.23731.0418-.24732-.03257l.00293-.13873C263.83613,385.51508,263.87959,385.12909,263.87593,384.85825Z"/><path fill="#f4dfe5" d="M340.98041,294.05712s-11.6881,21.80229-3.27834,39.46546c0,0-5.21415-12.0496-7.7664-15.12835a14.93375,14.93375,0,0,1-3.77178-10.42264c.28-3.60116.226-3.37025,7.39154-8.38833S340.98041,294.05712,340.98041,294.05712Z"/><path fill="#f2195c" d="M337.37471,251.29706a68.43251,68.43251,0,0,0,2.51977,16.8638c.75537,2.735,1.54663,5.46344,2.45679,8.16727.88013,2.71789,1.78516,5.41436,2.72436,8.157a12.62264,12.62264,0,0,1,.76685,4.79632,6.37753,6.37753,0,0,1-.80127,2.64087A7.80788,7.80788,0,0,1,343.392,293.925a30.89912,30.89912,0,0,1-3.69531,2.62472c-1.22827.7872-2.46655,1.51178-3.67774,2.249a27.56653,27.56653,0,0,0-6.51733,5.13965,12.212,12.212,0,0,0-3.311,7.53393,11.59778,11.59778,0,0,1,2.13989-8.4274,25.36825,25.36825,0,0,1,6.38086-6.188c1.175-.8663,2.36255-1.68429,3.52539-2.49289a28.88617,28.88617,0,0,0,3.21777-2.51635,4.09811,4.09811,0,0,0,1.46533-2.79322,10.06782,10.06782,0,0,0-.69653-3.64575c-.8689-2.7146-1.78442-5.4722-2.58105-8.25378-.76807-2.7944-1.51978-5.60861-2.02344-8.48389A45.17275,45.17275,0,0,1,337.37471,251.29706Z"/><path fill="#f2195c" d="M289.81245,249.61578l-.07373-.058-.00073-.00061a19.69728,19.69728,0,0,0-6.5586-3.39764,2.21306,2.21306,0,0,0-1.5205.05764,1.87131,1.87131,0,0,0-.886,1.10727,4.03534,4.03534,0,0,0,.51074,3.12647c.56421,1.05456,1.0918,2.29254,1.59717,3.47162.47534,1.20578.84961,2.43252,1.197,3.66.69043,2.45566,1.175,4.92227,1.8291,7.29269a50.26439,50.26439,0,0,0,5.87891,13.36988,69.274,69.274,0,0,0,9.02051,11.60968c6.72607,7.27685,14.67163,13.26126,22.352,19.86053a39.09134,39.09134,0,0,1,9.6521,11.87189c2.22314,4.631,3.11206,9.63309,6.22143,13.65823a22.68624,22.68624,0,0,1-4.20507-6.2738c-1.12061-2.263-2.07691-4.58618-3.31714-6.69568-2.44214-4.24579-6.04029-7.66284-9.86792-10.77869-3.87134-3.0755-7.93482-6.08017-11.83765-9.27829a121.33008,121.33008,0,0,1-11.17969-10.30728,69.72716,69.72716,0,0,1-9.26806-12.2073,49.21122,49.21122,0,0,1-5.71656-14.268c-1.11377-5.00989-1.56494-9.87366-3.70556-14.39755a8.15731,8.15731,0,0,1-.54126-1.97943,4.06679,4.06679,0,0,1,.29858-2.16474,2.92691,2.92691,0,0,1,1.57373-1.60717,3.04915,3.04915,0,0,1,2.16089.0736,21.973,21.973,0,0,1,3.40088,1.77561,17.84152,17.84152,0,0,1,2.91846,2.412l-.00049-.00037Z"/><path fill="#f4dfe5" d="M296.782,311.96008s16.88278,15.67211,25.69133,21.5625c0,0-11.68268-21.37782-12.16467-21.5625Z"/><path fill="#f2195c" d="M292.646,281.70181a46.84833,46.84833,0,0,1,4.95654,15.1702,52.79076,52.79076,0,0,1,.60742,8.05264c-.00659.67465-.01465,1.3501-.05395,2.024-.031.64926-.093,1.4212-.09742,1.90027a1.80693,1.80693,0,0,0,.11353.76364c-.01416-.03809-.11157-.04236.05176-.0199.13013.01785.47827.01264.80615.01151,2.60254.03933,5.23731-.02,7.90088.0307a56.29344,56.29344,0,0,1,8.03149.68493,29.93426,29.93426,0,0,1,7.77857,2.35654,19.0399,19.0399,0,0,1,6.43481,4.78836c-4.31811-3.12588-9.43066-4.38043-14.508-4.82248a76.88752,76.88752,0,0,0-7.74537-.16672c-2.60668.03507-5.24145.11728-7.90918.12684a10.36149,10.36149,0,0,1-1.16772-.05307,3.02536,3.02536,0,0,1-1.72559-.79926,3.20491,3.20491,0,0,1-.86059-1.583,5.43543,5.43543,0,0,1-.12891-1.33828l.24781-3.96976a70.37108,70.37108,0,0,0-.09351-7.73A81.72041,81.72041,0,0,0,292.646,281.70181Z"/><path fill="#f2195c" d="M309.54854 311.0994a33.95755 33.95755 0 014.44531 4.48571 54.88815 54.88815 0 013.675 5.14679c1.14868 1.76514 2.14428 3.6073 3.1726 5.42072l2.9292 5.47772c.95826 1.82227 1.9458 3.61151 2.95459 5.38162.5127.86664 1.01538 1.81723 1.53223 2.50769a2.96379 2.96379 0 001.6709 1.28208 3.595 3.595 0 002.27734-.53958 26.93189 26.93189 0 002.54077-1.62284l2.62915-1.70111a11.771 11.771 0 001.25684-.82986 1.6566 1.6566 0 00.4043-.57871.43234.43234 0 00-.19507-.59976.46352.46352 0 01.34521.21628.75807.75807 0 01.07935.42987 1.98071 1.98071 0 01-.27417.809 10.57586 10.57586 0 01-1.09546 1.20148l-2.22754 2.20105a26.29227 26.29227 0 01-2.41919 2.14062 5.49993 5.49993 0 01-3.57934 1.20035 4.34156 4.34156 0 01-2.02076-.66974 6.51874 6.51874 0 01-1.43383-1.28354 31.14408 31.14408 0 01-1.91236-2.6784c-1.14844-1.77884-2.19848-3.61087-3.18091-5.46054-1.93628-3.71778-3.68872-7.4647-5.48657-11.16156-.92407-1.83371-1.84253-3.6695-2.85156-5.4625C311.78779 314.61047 310.68721 312.86935 309.54854 311.0994zM531.72358 418.40506a35.67587 35.67587 0 01-8.66455 1.842 47.70648 47.70648 0 01-8.8955-.129 88.43129 88.43129 0 01-17.355-3.87829c-5.64306-1.79673-11.17749-3.84906-16.80761-5.46689A66.29515 66.29515 0 00462.873 407.8551a107.46741 107.46741 0 00-17.40259 1.5784c-5.83789.87241-11.57837 1.87046-17.26221 3.2446a104.88 104.88 0 00-16.52978 5.52344 96.18376 96.18376 0 00-15.17334 8.54407c-4.8606 3.24813-9.63257 6.80062-14.8125 9.84167a74.94955 74.94955 0 01-16.48877 7.25983c-5.77857 1.61078-11.56177 2.78253-17.333 4.032-5.76587 1.24963-11.532 2.45087-17.23 3.85461-2.83325.73761-5.68042 1.46277-8.426 2.40546-.698.21375-1.37548.46387-2.04443.72931-.6665.26746-1.36645.48944-1.99267.81293-1.28565.5617-2.56983 1.287-3.85254 2.00085a116.8368 116.8368 0 00-14.71119 9.59869c-4.69921 3.51514-9.12182 7.43433-13.73632 11.13178-2.29273 1.86536-4.64624 3.65826-7.0271 5.40778-1.19678.86663-2.41992 1.69665-3.62744 2.54583l-3.69068 2.44763c4.79-3.45245 9.38721-7.14825 13.83472-11.01062 4.45337-3.85565 8.72192-7.94134 13.33911-11.6795a116.245 116.245 0 0114.67749-10.08612c1.2793-.75012 2.54614-1.51 3.95117-2.168.68042-.36713 1.38672-.60968 2.08228-.90759.69629-.29468 1.39673-.57129 2.10473-.8067 2.81543-1.03931 5.67652-1.83844 8.53418-2.65412 5.7251-1.5683 11.49121-2.89355 17.249-4.18915 5.74682-1.31494 11.52563-2.56372 17.09961-4.191a73.79386 73.79386 0 0015.79712-7.05792c4.99585-2.95523 9.69409-6.484 14.63281-9.80731a99.15649 99.15649 0 0115.66846-8.73636l4.1621-1.70822L418.914 412.354c1.40747-.51767 2.85474-.88968 4.29493-1.28677 1.44287-.38394 2.87573-.82022 4.33129-1.14178 5.80811-1.33365 11.7146-2.28537 17.55957-3.08735a99.37166 99.37166 0 0117.84278-1.279 68.34871 68.34871 0 0117.60229 3.40695c5.67578 1.78232 11.17578 3.94669 16.72705 5.88706a87.33385 87.33385 0 0016.98706 4.48007A41.45771 41.45771 0 00531.72358 418.40506zM549.06709 393.96811a14.1975 14.1975 0 015.43823-3.19254 18.69652 18.69652 0 0112.574.33966 14.126 14.126 0 015.25464 3.48868c-2.0564-.48218-3.969-.92071-5.88721-1.21618a44.574 44.574 0 00-5.707-.53351 43.87589 43.87589 0 00-5.72852.21707C553.0793 393.26062 551.14521 393.5954 549.06709 393.96811zM434.72285 297.12729q-2.70483 4.07578-5.6167 8.011c-.97094 1.31216-1.96362 2.60952-2.99878 3.87933a27.60151 27.60151 0 01-3.38232 3.643c-.36206.26838-.75025.53156-1.02734.714a9.98993 9.98993 0 00-.89551.73957c-.584.53314-1.14405 1.11-1.69165 1.69931-1.10474 1.1705-2.11914 2.4447-3.15186 3.6918l-1.54712 1.87448-1.47778 1.93366L409.986 327.184l-.57251.29129a.70811.70811 0 00.707-.70685l-.14258.424-1.553 2.21579c-.52.71274-1.03809 1.56345-1.6145 2.28556-1.15625 1.5-2.37915 2.81552-3.56348 4.21341a4.74151 4.74151 0 00-.70825.98208c-.18823.36856-.36768.75543-.53027 1.17084l-.98267 2.5585a17.25549 17.25549 0 01-1.24829 2.59375 7.7918 7.7918 0 01-2.02173 2.269l.14209-1.21551a6.41641 6.41641 0 00.9707.77582 3.53856 3.53856 0 001.12647.45422 2.79392 2.79392 0 002.21-.52548 9.08707 9.08707 0 001.88037-2.01969l1.92651-2.37 3.88526-4.713c.63012-.79511 1.33594-1.54926 2.05664-2.29249a15.4477 15.4477 0 012.43725-2.12243.84116.84116 0 011.30249.77768l-.001.01153c-.55615 6.013-1.21216 12.012-2.11011 17.99231a80.23609 80.23609 0 01-1.74634 8.91556 60.32316 60.32316 0 00-1.353 8.8522 38.22863 38.22863 0 00-.13672 4.46625 13.46435 13.46435 0 00.241 2.17914 4.20516 4.20516 0 00.31714.97214c.15772.28232.31885.44568.4939.40667.448-.06.94263-.74053 1.27319-1.34484a15.58409 15.58409 0 00.91162-2.00913c.53516-1.38873.96265-2.82754 1.36451-4.27206.80273-2.892 1.4602-5.83069 2.05419-8.7808l.88184-4.43081.447-2.21881a19.46883 19.46883 0 01.55933-2.25663l-.02808.13584a.46409.46409 0 01.04712-.18228l.02637-.04325.05615-.085a.468.468 0 01.16357-.164.58849.58849 0 01.52466-.07672 1.1365 1.1365 0 01.53809.4332 3.4022 3.4022 0 01.45605.96942 5.731 5.731 0 01.21119 2.02414 6.6665 6.6665 0 01-.155 1.00354c-.06812.31622-.13282.60071-.1858.919-.11254.61972-.20849 1.24933-.29492 1.87879-.34912 2.5198-.62549 5.05447-.8584 7.58945-.22558 2.53564-.40258 5.07605-.47363 7.61087-.03491 1.26684-.032 2.53253.02417 3.78659.0315.62463.08081 1.24661.16968 1.84793a4.62285 4.62285 0 00.44653 1.57821c.051.08518.1023.12049.09595.11112.00073-.00784-.08911-.00916-.05713-.01105a1.19068 1.19068 0 00.39087-.40155 9.23276 9.23276 0 00.80029-1.58169 34.93052 34.93052 0 001.19556-3.54978c.68726-2.42847 1.27832-4.90018 1.814-7.38376q.79908-3.7278 1.46387-7.48733.33472-1.87779.63306-3.75849l.27417-1.86926.11011-.958a5.45235 5.45235 0 01.106-.56558 2.66 2.66 0 01.10913-.34445 1.36554 1.36554 0 01.385-.55689l-.32568.6922a.96416.96416 0 01.27051-.65017l.04956-.04669.01416-.01178a1.07815 1.07815 0 01.46582-.22492 1.02655 1.02655 0 01.57544.042 1.17539 1.17539 0 01.33935.196 1.84767 1.84767 0 01.16968.1705 2.09412 2.09412 0 01.29614.49084 4.30155 4.30155 0 01.252.78165 6.58923 6.58923 0 01.13183 1.47171c.00342.8815-.01928 1.73907-.0459 2.601-.05322 1.72132-.134 3.436-.23144 5.15293-.09912 1.71212-.21436 3.44333-.397 5.1578a44.37537 44.37537 0 00-.20972 5.00782 14.61162 14.61162 0 00.207 2.38635 2.829 2.829 0 00.24927.93075c.04931.10019.05591.00333-.18726-.08114a.56435.56435 0 00-.27954.00879c-.03833.01385-.01733.00927.01758-.01886a2.68676 2.68676 0 00.5459-.70914c.19629-.31519.37671-.67078.55542-1.03052.34253-.7362.66846-1.49679.95825-2.2832.596-1.56268 1.10449-3.1778 1.59863-4.79459.48365-1.60965.95874-3.27362 1.30225-4.85794l-.02.20389v-.02335l.00293-.05349.01758-.15293c.085-.74826.10791-1.67331.16821-2.50128.05664-.84717.0354-1.76227.05688-2.6401l.03956-2.6746.03955-1.35678.03833-.69894a5.52923 5.52923 0 01.1101-.83884l-.03076.24939a1.31371 1.31371 0 01.0647-.36761l.03467-.09641a1.41528 1.41528 0 01.17236-.318 1.14907 1.14907 0 01.40332-.338 1.13725 1.13725 0 01.4834-.112 1.00953 1.00953 0 01.3916.0758 1.13945 1.13945 0 01.29126.16751 1.38572 1.38572 0 01.1189.11173 1.315 1.315 0 01.10034.11929l.04419.06662a2.19849 2.19849 0 01.25513.62875 6.93426 6.93426 0 01.15747.83082 11.42392 11.42392 0 01.09985 1.57733 5.86042 5.86042 0 01-.23462 1.73571l-.04639.13224-.01538.06888-.02783.1285-.062.255c-.04688.16428-.064.44211-.09766.65759-.10547.92325-.26855 1.83579-.33032 2.76782l-.1875 2.80872a25.66181 25.66181 0 00.00684 2.75821 4.16457 4.16457 0 00.07373.5618c.00049.05487.06762.14279-.04712-.03983a.4672.4672 0 00-.06006-.06412l.01514.01291.02954.02713a.36112.36112 0 00.05591.04459.27942.27942 0 00.09863.05142c-.0083-.00747-.01026.02368.06323-.03711a2.0724 2.0724 0 00.53052-.75772 8.49718 8.49718 0 00.43945-1.19028l.77857-2.74975c.96753-3.67627 2.25878-7.34613 2.45483-10.98511l.17822-2.8522c.0625-.98932.14331-1.948.24463-2.91205a55.7579 55.7579 0 01.8999-5.75137c.37769-1.89289.98169-3.80539 1.49439-5.5831a30.2231 30.2231 0 001.032-5.50739 24.8281 24.8281 0 00-.18921-5.58893c-.06567-.45864-.1355-.93957-.18335-1.45861a10.47774 10.47774 0 01.01245-1.51908 11.92545 11.92545 0 01.6399-2.92636c1.35156-3.75922 3.97754-6.76831 6.74829-9.40906a57.01043 57.01043 0 019.13818-6.98654.10012.10012 0 01.13867.02829.10293.10293 0 01-.02759.13812 56.60207 56.60207 0 00-8.80322 7.27283 25.2365 25.2365 0 00-6.22754 9.27991 10.87162 10.87162 0 00-.51489 2.67871 10.51056 10.51056 0 00.23633 2.73059 26.0941 26.0941 0 01.34839 5.85272 31.58665 31.58665 0 01-.926 5.78586c-.49463 1.91193-1.03564 3.65735-1.37524 5.52719a54.14819 54.14819 0 00-.78394 5.59778c-.08374.94006-.14746 1.88953-.19165 2.81027l-.1333 2.87869a29.16255 29.16255 0 01-.8999 5.83033c-.45484 1.87188-.96 3.737-1.439 5.58593l-.74072 2.78486a9.293 9.293 0 01-.54248 1.5021 3.88226 3.88226 0 01-1.16333 1.52188 2.07754 2.07754 0 01-1.26758.41806 2.19282 2.19282 0 01-1.23047-.41876 2.22585 2.22585 0 01-.22509-.17764l-.10254-.09455-.05054-.04788c-.03833-.04236-.0769-.08932-.1123-.13705a1.84108 1.84108 0 01-.30127-.70517 5.9516 5.9516 0 01-.12305-.85813 27.25008 27.25008 0 01-.02246-2.978l.18335-2.9184c.062-.97723.22925-1.95379.34033-2.93069a7.636 7.636 0 01.1145-.76007l.11011-.44144.09888-.362a4.10586 4.10586 0 00.124-1.10068 9.38608 9.38608 0 00-.08594-1.284 4.9876 4.9876 0 00-.10913-.5781c-.00806-.05948-.07324-.18143.00391-.04047l.02075.02829a.80584.80584 0 00.07031.08616.73.73 0 00.08814.079 1.0026 1.0026 0 00.25244.1466 1.01766 1.01766 0 00.34985.06482.9437.9437 0 00.4397-.10184.87184.87184 0 00.3374-.279.76573.76573 0 00.093-.1578l.00488-.01187a.94944.94944 0 00.04053-.28129l-.03076.24976c-.012.0528-.04029.29419-.05152.48541l-.03222.63437-.03369 1.31281-.03028 2.66613c-.019.90174.00708 1.76926-.04931 2.69916-.06788.94638-.07081 1.80847-.198 2.824l.02051-.206v.04694a.848.848 0 01-.02.18069 72.70954 72.70954 0 01-3.01441 9.99341c-.30957.81641-.66357 1.62775-1.051 2.43872-.20508.40509-.4148.81086-.67432 1.22089a4.35392 4.35392 0 01-1.07471 1.2605 2.13 2.13 0 01-.54028.29345 1.55335 1.55335 0 01-.90942.04453 1.59412 1.59412 0 01-.74781-.43967 2.16245 2.16245 0 01-.35058-.48932 4.46538 4.46538 0 01-.44727-1.52529 16.54075 16.54075 0 01-.21777-2.72315 46.21953 46.21953 0 01.26611-5.24219c.19507-1.68713.32178-3.37079.436-5.07391.11157-1.69888.207-3.40219.2749-5.101.03393-.848.06372-1.70105.06787-2.53076a4.82352 4.82352 0 00-.0769-1.0803 2.56639 2.56639 0 00-.13355-.44027c-.019-.04721-.05444-.10169-.02539-.06217a.2613.2613 0 00.05762.05588.60173.60173 0 00.2019.1156.7821.7821 0 00.4187.02927.69924.69924 0 00.32276-.157l.06372-.05816a.87485.87485 0 00.25488-.61914l-.32593.69253c.16431-.15493.12818-.17132.13208-.15558a.94275.94275 0 00-.03491.11164 3.71431 3.71431 0 00-.07227.37457l-.12036.94272-.31128 1.915q-.33 1.89889-.69824 3.78357-.73425 3.773-1.5935 7.52121c-.5857 2.49688-1.20215 4.98977-1.97413 7.45468a36.16 36.16 0 01-1.33764 3.67273 10.303 10.303 0 01-.977 1.80221 2.275 2.275 0 01-1.02027.8512 1.19368 1.19368 0 01-.98-.07547 1.51307 1.51307 0 01-.564-.56378 5.55464 5.55464 0 01-.58252-2.08411c-.08179-.66388-.1167-1.3172-.134-1.9678-.02832-1.29773.00268-2.58622.06469-3.87033.12525-2.56751.35669-5.11908.636-7.66391.28711-2.5441.61694-5.08069 1.02075-7.611l.32422-1.9c.05347-.31122.13232-.64868.20093-.956a5.939 5.939 0 00.144-.88529 5.01942 5.01942 0 00-.16846-1.76489 2.74611 2.74611 0 00-.344-.76034c-.06543-.08957-.17383-.19294-.17725-.1793a.18714.18714 0 00.07618-.01489c.01342-.02127.0061-.00961.00122.00479l-.01026.01447-.00683.00653a.29233.29233 0 00.02563-.12677l-.02808.13623c-.417 1.32736-.6831 2.883-.9978 4.333l-.916 4.42746c-.63916 2.94735-1.2605 5.90081-2.03638 8.8251-.39038 1.4614-.80689 2.91916-1.34082 4.34866a16.23079 16.23079 0 01-.93408 2.11188 5.833 5.833 0 01-.6648 1.00137 1.90733 1.90733 0 01-1.16137.73557 1.53231 1.53231 0 01-.429-.03308 1.48871 1.48871 0 01-.36938-.20081 1.87789 1.87789 0 01-.44629-.55954 4.88768 4.88768 0 01-.39966-1.164 14.1773 14.1773 0 01-.281-2.30493 41.8139 41.8139 0 01.02954-4.566 61.31834 61.31834 0 011.14478-9.03476 79.88385 79.88385 0 001.50488-8.85733c.74658-5.96063 1.218-11.96408 1.76709-17.95135l1.30127.78915a14.1876 14.1876 0 00-2.11133 1.88815 29.871 29.871 0 00-1.98022 2.24485l-3.80689 4.69461-1.91943 2.33374a10.69133 10.69133 0 01-2.28882 2.36261 4.546 4.546 0 01-3.54834.76712 5.24643 5.24643 0 01-1.67187-.68689 7.42793 7.42793 0 01-1.37329-1.14435.78392.78392 0 01.10449-1.18958l.0376-.02621a9.01469 9.01469 0 002.76757-4.12543l1.01075-2.55624a14.36351 14.36351 0 01.61669-1.32147 6.32118 6.32118 0 01.89649-1.2349c1.19482-1.382 2.47632-2.74243 3.56738-4.1329.57154-.706 1.00977-1.42032 1.57324-2.18213l1.64527-2.24619-.14258.42371a.735.735 0 01.72241-.72226l-.572.291 3.06567-3.8324 1.53589-1.91245 1.60816-1.85638c1.0747-1.23609 2.12109-2.48828 3.28174-3.66144.57543-.58984 1.16455-1.16925 1.79687-1.71973a10.9372 10.9372 0 011.00757-.79062c.40967-.25494.696-.44671.9956-.65386a28.99712 28.99712 0 003.37378-3.39957c1.06983-1.2161 2.10523-2.46906 3.12036-3.73886 2.02857-2.54114 4.0022-5.1326 5.94458-7.74564a.10023.10023 0 01.1399-.02191A.10136.10136 0 01434.72285 297.12729z"/></svg>