<svg xmlns="http://www.w3.org/2000/svg" data-name="Layer 1" viewBox="0 0 700 550"><path fill="#e6f6df" d="M222.21038,506.37352c-32.66264-7.88933-58.87924-37.54745-62.70059-70.93136-3.70539-32.37023,11.78011-65.22474,5.19905-97.13478-4.87472-23.636-21.089-43.0283-32.5996-64.2399-21.90291-40.36213-26.71505-89.44411-14.0916-133.59716s74.05079-147.64009,318.184-68.239c14.29011,4.64767,15.67783,26.07089,27.11349,35.81935,16.57531,14.12978,40.81,18.40876,54.38678,35.43988,13.59074,17.0486,12.16552,41.03957,14.403,62.72726a165.16519,165.16519,0,0,0,22.02814,66.844c9.27675,15.69326,21.20958,29.9418,28.11738,46.81237,15.81819,38.63154,1.63382,84.60524-25.74467,116.11767-8.53868,9.828-18.34287,18.70448-25.14,29.80835s-10.20925,25.38215-4.70762,37.18177a1171.38932,1171.38932,0,0,1-174.44839,1.21858C308.264,501.22612,263.54883,495.82562,222.21038,506.37352Z"/><path fill="#d5efc8" d="M132.10932,274.06739q1.22013,2.24853,2.50708,4.47131c.07343.12744.14759.25458.22132.382q1.20648,2.08419,2.4533,4.15259c.07374.12243.147.24505.22089.36743,1.79492,2.97418,3.63593,5.93,5.47864,8.88446a52.30193,52.30193,0,0,0,15.62079,3.47113c15.72058,1.05639,25.98388-19.55506,30.94378-34.51,2.46137-7.422,2.83222-15.39154,2.33991-23.19544-1.05164-16.6665-5.90717-32.84295-8.36432-49.361-2.457-16.518-2.27936-34.28418,5.98505-48.79547,6.47027-11.36066,17.18225-19.53565,27.12048-28.03046,13.71136-11.72009,26.65344-24.9176,34.59155-41.1148a71.22653,71.22653,0,0,0,7.24457-26.93091c-97.16095,7.011-130.0752,63.1615-139.7522,94.26281-.23474.78-.47613,1.55787-.70013,2.34119l-.00238.00812q-2.36691,8.27865-3.91718,16.76178-1.55062,8.46981-2.28662,17.0639C108.86848,208.61927,115.68214,243.79578,132.10932,274.06739Z"/><path fill="#c1e9af" d="M241.06 456.98587c-8.12766-5.311-18.95953-5.47889-26.64923-11.4066-11.71956-9.03344-11.958-27.96986-23.80511-36.83506-7.50768-5.61813-17.85881-5.64682-27.01364-3.61781 0 0-1.39141 1.01338-3.56742 2.88057a118.67833 118.67833 0 00-.51478 27.43519c3.82127 33.38383 30.03795 63.042 62.70059 70.93136a196.99338 196.99338 0 0132.218-5.25863 21.22052 21.22052 0 00-.46162-3.57186C255.83843 482.686 253.59562 465.17732 241.06 456.98587zM463.31519 108.05072l-.00012-.00012C451.8794 98.302 450.49177 76.879 436.20167 72.23133q-8.16339-2.655-16.05176-5.036c-4.80157 12.15881-9.22327 24.85522-7.79785 37.77117 1.859 16.84748 13.34418 31.00629 25.65472 42.65741 12.31067 11.65094 26.14539 22.14161 35.197 36.47217 11.46044 18.14362 13.9743 40.34314 21.01629 60.61518 2.22638 6.40942 5.40589 13.18536 11.53375 16.09869 5.02546 2.38892 11.09986 1.59082 16.13013-.7876 5.0304-2.37866 9.23151-6.17187 13.35236-9.91083a13.69913 13.69913 0 006.22729-3.75109l-.001-.003a165.67316 165.67316 0 01-5.8565-19.45135c-.07361-.31238-.14258-.62573-.21442-.93854q-.43129-1.88324-.81964-3.77563-.138-.67338-.27-1.34766-.33554-1.71387-.63318-3.43457c-.08758-.503-.1773-1.00525-.26025-1.509-.18945-1.15363-.36176-2.30982-.52637-3.46723-.06622-.46466-.1394-.92816-.2016-1.39337-.21417-1.60467-.40954-3.21179-.57568-4.8222-2.23749-21.68775-.81226-45.67865-14.403-62.7273-11.29052-14.16321-29.94861-19.51159-45.446-29.03607-1.391-.85486-2.75965-1.73926-4.092-2.6709q-1.47967-1.03464-2.89838-2.14862C464.60591 109.11908 463.95307 108.59449 463.31519 108.05072z"/><path fill="#ade194" d="M588.82582,352.16282c-23.50857-1.68736-47.64306,10.35941-60.15868,30.38752-4.60121,7.3628-7.70829,15.61065-12.64868,22.75032-5.60284,8.09679-13.34721,14.4618-19.54789,22.11015-16.96735,20.92974-20.76347,51.68965-9.39362,76.11633,0,0,.63316.70636,1.81259,1.91463q18.90219-.93078,37.76869-2.45969c-5.50171-11.79969-2.08964-26.078,4.70747-37.18184s16.60143-19.98052,25.14-29.80835C576.532,412.94186,589.49618,382.15469,588.82582,352.16282Z"/><path fill="#d5efc8" d="M366.807 389.54166s20.45622 105.7999-26.44056 112.74739l107.031 1.173s9.705-42.27095-2.4392-58.9129S366.807 389.54166 366.807 389.54166zM436.72968 414.4652c-11.627 1.81478-24.78257-1.18989-24.64694-17.69667.22576-28.96983-6.74-68.98683-11.28837-88.6943-4.11166-17.81708-34.30128-39.94177-40.03229-44.01569a56.09512 56.09512 0 006.16748 3.51667q6.86793 3.4566 13.7281 6.92821c13.75084 6.93559 27.88559 14.16471 37.87864 25.88225 11.40125 13.3591 16.19788 31.2289 17.65141 48.72978C437.47543 364.6133 436.65468 395.428 436.72968 414.4652z"/><path fill="#47a920" d="M340.19365 249.72355a33.45045 33.45045 0 018.55021-.73377 6.26638 6.26638 0 012.66391.54935c2.27414 1.19313 2.46029 4.58216 1.12491 6.7758s-3.66856 3.53511-5.78478 4.99q-1.44552.99379-2.79992 2.09513l-.08713.00008a37.30869 37.30869 0 01-3.96691-13.5537zM370.05539 375.97524c-1.85717-2.23505-4.40007 3.45311-5.12058 6.26831-.1583.61833-.22479 1.38923.27682 1.784a1.72811 1.72811 0 001.41543.14014 29.01193 29.01193 0 007.56431-2.82506l-1.30631-1.915C371.76256 378.052 371.19009 377.34082 370.05539 375.97524z"/><path fill="#68ca44" d="M288.32892,264.69208q3.561,5.66459,7.12159,11.32918c.61208.9737,1.24818,2.12993.86142,3.213a4.55662,4.55662,0,0,0-4.29555-2.89585,11.79358,11.79358,0,0,0-5.28935,1.441c-3.97241,1.85551-7.85777,4.19065-10.53,7.6665s-3.76872,9.06183-2.12963,13.1283a86.10223,86.10223,0,0,1-17.29221-5.74261,32.303,32.303,0,0,1-9.945-6.41606c-2.77461-2.83682-4.7022-6.70079-4.47176-10.66229a14.15743,14.15743,0,0,1,4.16331-8.78726,28.37984,28.37984,0,0,1,8.16058-5.56813,57.767,57.767,0,0,1,13.08718-4.52485l.21853-.00015a15.78233,15.78233,0,0,1,.36787,2.84984c.12,2.51632.026,5.38062,1.85077,7.11753,1.3088,1.24584,3.24692,1.51687,5.0507,1.62418a12.67646,12.67646,0,0,0,3.75644-.19964,21.81523,21.81523,0,0,0,4.45-2.02209,37.097,37.097,0,0,1,4.65648-1.86666Z"/><path fill="#4fc123" d="M271.96108 298.08585q1.05016.25653 2.1065.48836a11.398 11.398 0 01-.77029-4.13259A15.27785 15.27785 0 00271.96108 298.08585zM295.45044 276.02126q-3.56076-5.6647-7.1216-11.32918l-.20844-.31606a37.072 37.072 0 00-4.65656 1.86666 21.80356 21.80356 0 01-4.44992 2.02194 12.674 12.674 0 01-3.75644.19971c-1.80393-.10723-3.74206-.37841-5.05071-1.62418-1.82494-1.73683-1.73081-4.60121-1.85062-7.11752a15.82033 15.82033 0 00-.36809-2.84969h-.21846a57.76365 57.76365 0 00-13.08718 4.52492 28.383 28.383 0 00-8.16073 5.56805 14.15958 14.15958 0 00-4.16308 8.78734 11.28557 11.28557 0 00.02063 1.56175 16.47047 16.47047 0 012.42053-3.22177 28.38085 28.38085 0 018.16035-5.56805 57.77725 57.77725 0 0113.08718-4.52493h.21884a15.782 15.782 0 01.36764 2.84984c.11988 2.51617.02613 5.38055 1.85107 7.11738 1.30857 1.246 3.24677 1.51694 5.05033 1.62433a12.68873 12.68873 0 003.75681-.19963 21.824 21.824 0 004.44985-2.02217 37.0586 37.0586 0 014.65656-1.86666l.20852.31606q1.51837 2.41526 3.03645 4.83066a7.934 7.934 0 012.37316-.31161 4.55641 4.55641 0 014.29547 2.89578C296.69884 278.15119 296.06267 276.995 295.45044 276.02126z"/><ellipse cx="384.716" cy="243.576" fill="#47a920" rx="2.353" ry="3.954"/><ellipse cx="270.501" cy="215.576" fill="#47a920" rx="2.165" ry="3.765"/><path fill="#68ca44" d="M447.39746,503.462q-1.56152-20.68093-4.99031-41.16412l-.70192-5.61391,14.3682-11.65722c14.36819-11.65721,9.56878-1.15615,9.56878-1.15615a440.042,440.042,0,0,0,5.03007,59.48492Z"/><path fill="#47a920" d="M465.64221,443.8706s4.79941-10.50121-9.56886,1.15623l-14.368,11.65714.70177,5.61391q.85215,5.08861,1.58916,10.19577A29.55253,29.55253,0,0,0,457.07,467.10256a44.98651,44.98651,0,0,0,9.03367-8.83229C465.85457,453.31934,465.6968,448.47971,465.64221,443.8706Z"/><path fill="#68ca44" d="M484.04389,399.08792l-.77549,1.80725c-4.458,14.36827-9.02922,28.9623-17.12451,41.606a.00738.00738,0,0,1-.00738.0076c-.44415.70779-.90381,1.39322-1.37816,2.086a49.8917,49.8917,0,0,1-11.79283,12.58339,30.48153,30.48153,0,0,1-10.58021,4.925,24.04521,24.04521,0,0,1-5.535.67767c-7.77908.03765-15.07606-3.84048-21.22848-8.59975-6.54392-5.0605-12.18442-11.19048-17.52347-17.50842A295.75891,295.75891,0,0,1,375.251,405.73728c-.82843-1.29525-1.65686-2.60555-2.45517-3.92339-.38383-.64747-.77549-1.30278-1.14464-1.95778-.63979-1.10721-1.25752-2.22165-1.83736-3.3586q-.51962-1.01673-.994-2.03339a44.01826,44.01826,0,0,1-3.38873-9.91006l-.21838-.52714a1.73389,1.73389,0,0,0,1.41566.14308q.35016-.06789.70048-.15814a1.30879,1.30879,0,0,0,.16545-.03765c.05294-.01506.1055-.02267.15844-.03773.28608-.07538.57955-.15053.86593-.24082a.14673.14673,0,0,0,.07538-.02282c.256-.07515.51185-.15054.76781-.24083.06025-.02259.12832-.04525.18826-.06785.12057-.03765.24121-.07515.36177-.12041.18826-.06032.36884-.12794.54935-.20332.49716-.18826.98657-.39159,1.47635-.61005.24083-.10535.48165-.21838.72286-.33126.4894-.226.97151-.467,1.44585-.7154a.15754.15754,0,0,0,.07538-.04518c.00731.00753.00731,0,.00731,0,.35408-.18074.70048-.36147,1.04689-.55726.33126-.18073.66253-.369.99387-.55726.70049-.39912,1.39322-.81337,2.07857-1.22755q6.09958-3.70477,11.84548-7.96719a10.89456,10.89456,0,0,0,1.97306-1.73954.58848.58848,0,0,0,.05994-.08291,3.27321,3.27321,0,0,0,.33135-.85841,2.12693,2.12693,0,0,0,.06024-.32381c2.11615,1.31784,4.2396,2.70338,6.34836,4.14178.62511.42178,1.25022.8584,1.86757,1.29524q1.9205,1.34419,3.79537,2.75609c.60229.45191,1.20495.90366,1.79218,1.3631,2.71844,2.101,5.33167,4.29231,7.78646,6.559,6.484,5.98674,14.067,14.549,22.32823,17.644-.39934-17.561,1.14464-35.16744-.3089-52.66832q-.24873-2.982-.63241-5.96408c-.053-.42931-.11326-.86608-.1732-1.30277-.00776-.09044-.02282-.18827-.03788-.27871-.0677-.47434-.13532-.94131-.2107-1.40813s-.15076-.9337-.22614-1.40827q-.15769-.96026-.33865-1.92028c-.08276-.45929-.16582-.91119-.25626-1.36287-.0677-.36922-.14308-.73069-.21846-1.09945-.13532-.64017-.271-1.28787-.42133-1.92789-.053-.241-.10558-.482-.1659-.72285-.12794-.56479-.26364-1.12227-.40665-1.6793-.00738-.03765-.02244-.08291-.03012-.12064-.06032-.21838-.11288-.43677-.1732-.65523-.18058-.71532-.37653-1.42319-.58723-2.131-.12064-.42931-.2412-.8584-.37652-1.28018-.03013-.113-.06032-.22592-.0982-.339,5.56519,9.579,16.40165,14.13483,24.836,21.32645,7.01828,5.97937,12.23706,14.7448,11.84548,23.9546-.181,4.17942-1.48366,8.22323-2.46248,12.28977-.97919,4.0664-1.64955,8.36631-.56478,12.41026,1.08431,4.04381,4.3149,7.75627,8.47181,8.2459-3.78807-3.41892-4.53344-9.22486-3.40386-14.2026a37.32468,37.32468,0,0,1,2.54523-7.17641c1.0542-2.31947,2.22127-4.59368,3.306-6.89809,0,0,.00731,0,0-.00753l.00731-.00753c-.01507.12064-.03013.24858-.03751.369-.04518.42179-.09044.8435-.12794,1.265q-.04518.53114-.09044,1.062a33.15846,33.15846,0,0,0-.09782,3.56946,21.92748,21.92748,0,0,0,.1805,2.21389c.03788.28624.07538.56479.128.851.03012.15814.05294.31628.09044.47435a.20459.20459,0,0,0,.00769.06785c.01475.10535.04488.21085.06769.32374.03013.16567.06763.32381.10513.4894,0,.00776,0,.00776.00776.01514.04518.23344.09782.467.16582.70041a.10948.10948,0,0,0,.01468.04526c.04526.1732.09044.33887.14346.512a1.49318,1.49318,0,0,0,.08268.28608c.03751.15061.09044.30137.14308.45944.09044.30867.19557.61735.30883.91872.08276.241.18058.49694.28608.738a.36185.36185,0,0,0,.03012.08291c.04526.11288.09783.23329.15076.34633a.39483.39483,0,0,0,.04489.12048c.07538.18066.15076.36139.2412.53459a.13333.13333,0,0,0,.0302.07538q.15768.35.33864.70027a.79827.79827,0,0,0,.068.14307c.06.1357.13533.26365.203.39159.15852.324.339.6477.52729.9639.12063.226.256.44438.39158.66284q.23721.38384.49716.76811.16933.2598.36147.51953a.31662.31662,0,0,0,.06762.10535c.09782.14323.20333.29384.31621.43685.25634.36146.52728.71532.81337,1.05419.1732.21838.36146.43684.54972.65523C482.93713,397.966,483.4791,398.53827,484.04389,399.08792Z"/><path fill="#47a920" d="M282.24081,368.233a2.50514,2.50514,0,1,1-2.5051-2.50509A2.50514,2.50514,0,0,1,282.24081,368.233Z"/><path fill="#d5efc8" d="M286.8128,389.99861q-.93754,11.26175-2.71873,22.43336c-1.0917,6.8-2.5,13.78819-6.39325,19.47379-2.55291,3.73528-6.05452,6.70975-9.51087,9.639a13.76028,13.76028,0,0,1-3.68256,2.49267,8.38268,8.38268,0,0,1-5.15847.20333c-5.33167-1.38569-8.67513-6.52157-11.39357-11.31081q-5.08308-8.94612-9.64657-18.18608c-2.94458-5.94172-5.75345-12.06386-6.76239-18.61555,0,0,28.90966,29.19575,40.43118,6.48384l11.52927-22.71191a12.262,12.262,0,0,0,1.93519,2.31924C287.14414,384.32054,287.03857,387.30262,286.8128,389.99861Z"/><path fill="#47a920" d="M304.95125,215.83292a3.689,3.689,0,0,1,2.0913,3.54083,3.65021,3.65021,0,0,1-.8479,2.18783,4.25375,4.25375,0,0,1-1.9945,1.31586,4.145,4.145,0,0,1-2.46863.04022c-.87268-.29663-1.39819-.69583-1.66565-.64462a1.34935,1.34935,0,0,0-.9812.50613,2.477,2.477,0,0,0-.5188,1.32129,8.40753,8.40753,0,0,0-.04083,1.78336,3.43983,3.43983,0,0,0,.39837,1.49,1.354,1.354,0,0,0,.91657.66736.71456.71456,0,0,0,.46692-.09805c.20892-.10227.47046-.31345.83319-.53217a2.26441,2.26441,0,0,1,1.42688-.346,2.8142,2.8142,0,0,1,1.2055.45267,4.68325,4.68325,0,0,0,1.54309.83468c.41986.08713.92432-.289,1.16669-.83383a4.97421,4.97421,0,0,0,.266-1.92541,4.37134,4.37134,0,0,1,.26483,2.08529,2.18252,2.18252,0,0,1-.513,1.0579,1.774,1.774,0,0,1-1.16479.59787,4.93809,4.93809,0,0,1-2.16681-.65308,1.73379,1.73379,0,0,0-.69965-.17575.77658.77658,0,0,0-.47442.21176c-.2013.15094-.43958.3988-.8042.65244a2.44325,2.44325,0,0,1-1.45191.42108,3.12967,3.12967,0,0,1-2.40374-1.38617,5.01669,5.01669,0,0,1-.7558-2.343,10.02431,10.02431,0,0,1,.00946-2.25131c.1618-1.53247,1.43481-3.56763,3.63592-3.4187a3.27831,3.27831,0,0,1,1.293.45913,6.08787,6.08787,0,0,0,.76514.40845,2.90551,2.90551,0,0,0,1.51764.11618,2.81456,2.81456,0,0,0,2.27307-2.12021A3.53845,3.53845,0,0,0,304.95125,215.83292Z"/><path fill="#47a920" d="M299.7975 234.82529a12.78728 12.78728 0 002.70056.26678 4.14181 4.14181 0 002.21655-.84976 19.6961 19.6961 0 003.65906-3.68237 30.77835 30.77835 0 002.85553-4.47977c.848-1.59116 1.593-3.25845 2.4165-4.96655a17.5035 17.5035 0 01-.98333 5.58447 17.30268 17.30268 0 01-2.71 5.08881 13.73627 13.73627 0 01-4.45819 3.80056 4.72157 4.72157 0 01-3.07672.478A7.4275 7.4275 0 01299.7975 234.82529zM300.96211 239.3237a6.66737 6.66737 0 01.31732 2.19543 10.33534 10.33534 0 01-.2442 2.10611 7.38675 7.38675 0 01-.72266 2.03885 3.6684 3.6684 0 01-.77246.95951 1.714 1.714 0 01-1.15887.43859 4.32354 4.32354 0 00.44147-1.90142 14.93706 14.93706 0 01.26885-2.00425 9.87534 9.87534 0 01.65448-1.961A7.16276 7.16276 0 01300.96211 239.3237zM263.213 200.84674a21.58108 21.58108 0 011.99634 7.07224c.15369 1.20022.33387 2.39828.46216 3.61679a19.72437 19.72437 0 01.1192 3.84143 12.96085 12.96085 0 01-.86645 3.90121 10.53888 10.53888 0 01-2.18292 3.38864c-1.77906 1.9122-3.85437 3.22861-5.27314 5.00113a5.42333 5.42333 0 00-.83477 1.29709c-.10462.40622-.06861.351.13684.63184a12.565 12.565 0 001.22961 1 17.073 17.073 0 011.45392 1.23413 8.76612 8.76612 0 012.33472 3.41556 5.76458 5.76458 0 01-.16578 4.38449 4.65842 4.65842 0 01-.64349.9787 6.71666 6.71666 0 00-.463.53421c-.05219.13632-.02918-.13038-.12934-.15256-.06091-.00171.20069.161.47236.2836a14.85562 14.85562 0 003.29412 1.14749 14.39511 14.39511 0 006.92224-.10312l.00391-.00079 1.16705-.23825-.06341 1.2088a8.75149 8.75149 0 01-7.86817 8.03946l-.0036.00042.71857-.95645a5.92218 5.92218 0 001.68427 2.20682A8.09552 8.09552 0 01268.593 255.654c.80933 2.25879.69513 4.6261.88873 6.64942.17108 2.06961.856 3.81839 2.51166 4.47287a9.16753 9.16753 0 002.82245.59927 16.90473 16.90473 0 003.05163.05118c1.88294-.138 3.62525-1.31537 5.71314-2.25717a53.12 53.12 0 016.24982-2.14527 31.3296 31.3296 0 005.97729-2.2619 12.98534 12.98534 0 004.84082-4.05893l.17249.10135a12.62168 12.62168 0 01-4.53754 4.77124 32.45708 32.45708 0 01-5.98108 2.83649 63.22285 63.22285 0 00-5.94189 2.4129c-.92871.45526-1.83545 1.02383-2.856 1.54578a9.75009 9.75009 0 01-3.4082 1.09014 18.80172 18.80172 0 01-3.4505.01764 10.40234 10.40234 0 01-3.50776-.78808 5.602 5.602 0 01-2.80084-2.69489 9.61541 9.61541 0 01-.83319-3.51745c-.08966-1.13639-.07465-2.24027-.13739-3.267a12.17147 12.17147 0 00-.51337-2.9693 6.49568 6.49568 0 00-1.42077-2.47592c-.34223-.38388-.74036-.78318-1.11811-1.26917a4.18514 4.18514 0 01-.85144-1.80508l-.15332-.8284.87207-.1283.00287-.0004a7.01758 7.01758 0 006.10913-6.5224l1.10346.9704-.00446.00046a27.76842 27.76842 0 01-7.52417-.40936 24.44967 24.44967 0 01-3.6336-1.01041 2.71859 2.71859 0 01-1.10865-.58417 1.53241 1.53241 0 01-.4411-.95263 1.82486 1.82486 0 01.16535-.889 5.90164 5.90164 0 01.58239-.947 2.657 2.657 0 00.27558-.58258 4.07521 4.07521 0 00-.22363-2.71112 8.25694 8.25694 0 00-1.77771-2.5054c-.38666-.40073-.80628-.79688-1.23548-1.20835a11.83191 11.83191 0 01-1.43085-1.465 2.72873 2.72873 0 01-.52679-1.38016 2.69651 2.69651 0 01.301-1.39752 4.88973 4.88973 0 01.6117-.91794c.2005-.26346.40881-.51657.62768-.756 1.73169-1.92585 3.74256-3.36048 5.13092-5.131a9.41878 9.41878 0 001.86036-6.07858 28.10988 28.10988 0 00-.22382-3.40991l-.37787-3.60208a16.443 16.443 0 01.56922-7.39008zM343.4167 263.62988a37.81531 37.81531 0 01-4.18311-16.77246l1-.01172a36.80535 36.80535 0 004.07178 16.3252z"/><path fill="#47a920" d="M294.70784 262.40839a18.15468 18.15468 0 012.69128 4.63787 30.05432 30.05432 0 011.59363 5.10141 36.07033 36.07033 0 01.75043 5.26392 28.37658 28.37658 0 01-.07154 5.33005A46.89175 46.89175 0 01298.201 277.651q-.61569-2.54535-1.161-5.074l-1.12036-5.053zM340.17238 249.62585a24.16652 24.16652 0 017.87023-1.43322 15.24947 15.24947 0 012.08063.06814 4.952 4.952 0 012.2143.81656 4.81189 4.81189 0 011.85858 4.185 6.47332 6.47332 0 01-1.63428 3.997 15.75551 15.75551 0 01-3.13129 2.60714c-1.09411.75641-2.21594 1.43967-3.23584 2.25315a33.61283 33.61283 0 00-2.941 2.57632c-1.8518 1.836-3.56439 3.78968-5.27325 5.745-1.6889 1.97592-3.27515 4.04086-4.90009 6.087l-4.92944 6.09412a38.0383 38.0383 0 00-4.19385 6.55252l-.19091-.05948a23.779 23.779 0 013.08587-7.38388c1.43646-2.28745 2.96131-4.37833 4.546-6.51483a72.84937 72.84937 0 015.186-6.036 43.33272 43.33272 0 015.957-5.31568c2.11194-1.616 4.40814-2.99588 6.51056-4.52435a10.46306 10.46306 0 002.61688-2.74545 5.49356 5.49356 0 00.863-3.33127 3.66606 3.66606 0 00-1.2345-2.753 6.23937 6.23937 0 00-3.28784-.76822 56.05445 56.05445 0 00-7.79419.07895z"/><path fill="#47a920" d="M295.39473 277.01776a13.11592 13.11592 0 001.48724 2.246 12.31713 12.31713 0 001.71637 1.87424 2.50389 2.50389 0 00.44806.28229l.55212.29089c.3761.18668.77191.35532 1.17981.51987.80957.33063 1.67847.68805 2.52191 1.1275a22.21969 22.21969 0 014.57587 3.20807 16.55451 16.55451 0 013.52875 4.28482c-1.50971-1.07785-2.98334-2.07892-4.47778-3.04584-1.49378-.96109-3.01362-1.86355-4.55164-2.6744-.75946-.40732-1.56024-.75886-2.39508-1.1887-.4129-.21862-.83106-.4497-1.243-.71038-.2052-.13044-.41187-.26435-.60864-.41538a4.2184 4.2184 0 01-.61274-.56259 9.19339 9.19339 0 01-1.48053-2.503A7.375 7.375 0 01295.39473 277.01776zM271.80653 297.52731a35.6178 35.6178 0 015.96991.99857 57.07776 57.07776 0 015.76679 1.73276 54.14959 54.14959 0 015.55139 2.3425A31.95454 31.95454 0 01294.3 305.70151c-1.98291-.472-3.8902-1.04679-5.78735-1.65225-1.89588-.60544-3.77948-1.23182-5.64576-1.90909q-2.80362-1.00412-5.56884-2.135C275.45131 299.25388 273.61592 298.4657 271.80653 297.52731zM266.885 308.07693c-.20367 2.04853-.47107 4.03278-.69354 6.01465-.22266 1.98081-.39777 3.95316-.53961 5.92749-.13477 1.97473-.24195 3.95188-.3 5.94416-.05914 1.99328-.07575 3.9953-.166 6.05243a24.80916 24.80916 0 01-1.39325-5.9842 33.11954 33.11954 0 01.87085-12.22656A24.95112 24.95112 0 01266.885 308.07693zM235.73958 381.65948a4.44138 4.44138 0 011.31317-1.31076 5.91775 5.91775 0 011.55359-.72531 5.8265 5.8265 0 011.69561-.252 4.39577 4.39577 0 011.81848.37433 5.39948 5.39948 0 01-1.42437 1.1481 7.21978 7.21978 0 01-1.51532.64474 7.37531 7.37531 0 01-1.62091.29309A5.46883 5.46883 0 01235.73958 381.65948z"/><path fill="#47a920" d="M239.95961,386.34631a46.70566,46.70566,0,0,1,8.21466-14.31384c1.77466-2.13229,3.8233-4.01074,5.42914-6.21335a27.55585,27.55585,0,0,0,3.56158-7.33307l1.31769-3.91986a25.53436,25.53436,0,0,1,1.569-3.89746c1.34375-2.46249,2.89282-4.74573,4.44641-7.03659,3.14508-4.55588,6.34418-9.03448,9.7854-13.40814l.48328-.61426.48584.63727c1.92962,2.531,3.29791,5.35483,5.03088,7.83838a26.12033,26.12033,0,0,0,6.31818,6.4248c.62445.43021,1.23254.88156,1.88794,1.27l.96679.60385a1.59217,1.59217,0,0,1,.43115.4,1.67781,1.67781,0,0,1,.22358.41751,3.27158,3.27158,0,0,1,.1922.71264,20.79115,20.79115,0,0,1-.0738,4.84513c-.30926,3.11835-.89508,6.20413-1.42,9.24624a70.70655,70.70655,0,0,1-2.33295,9.104c-.48858,1.48828-1.02594,2.96585-1.60766,4.41611-.57013,1.39538-1.04126,2.82074-.62653,3.85073a4.67529,4.67529,0,0,0,1.19476,1.53373,7.32317,7.32317,0,0,1,1.5398,2.10324,11.02778,11.02778,0,0,1,.85443,4.94119c-.04425,1.621-.21228,3.14545-.34021,4.69635l-.45227,4.6384c-.66,6.183-1.47467,12.33294-2.54553,18.47641a60.29351,60.29351,0,0,1-2.27753,9.15362,31.00476,31.00476,0,0,1-4.37829,8.49253,43.61923,43.61923,0,0,1-6.59058,6.819c-1.1955,1.02807-2.334,2.01373-3.58984,3.02734a12.60965,12.60965,0,0,1-2.10413,1.37683,8.16242,8.16242,0,0,1-2.50232.78912,11.88907,11.88907,0,0,1-9.2887-3.16125,29.63359,29.63359,0,0,1-5.85644-7.5545c-3.10877-5.40488-6.02557-10.87232-8.82642-16.42087-2.76025-5.53806-5.62-11.13605-7.33081-17.23081a39.04567,39.04567,0,0,1-1.45685-9.35815,50.93833,50.93833,0,0,1,.65552-9.40857,110.24874,110.24874,0,0,1,4.84625-18.05069c4.04358-11.76376,9.13721-23.07867,13.64325-34.601,4.48706-11.50794,8.2782-23.40168,9.48334-35.76651-.83661,12.40222-4.46271,24.43185-8.71966,36.05508-4.24567,11.65884-9.29578,22.99683-13.13868,34.73874a108.90086,108.90086,0,0,0-4.56921,17.85968,42.08146,42.08146,0,0,0,.9129,18.06665c1.6662,5.85852,4.49372,11.36514,7.27552,16.88449,2.80395,5.50116,5.7445,10.95789,8.83471,16.28116a27.86977,27.86977,0,0,0,5.48938,7.059,12.12612,12.12612,0,0,0,3.6659,2.20392,8.43959,8.43959,0,0,0,4.09558.48041,7.53518,7.53518,0,0,0,3.67614-1.78443c1.15107-.93616,2.35273-1.98132,3.50122-2.9779a44.50171,44.50171,0,0,0,6.307-6.51331c3.6134-4.78735,5.272-10.79263,6.36615-16.8017,1.08118-6.0588,1.92023-12.19607,2.599-18.32989l.468-4.60864c.13379-1.53479.307-3.09278.35156-4.569a9.32483,9.32483,0,0,0-.6651-4.14127,5.48791,5.48791,0,0,0-1.1919-1.6221,6.2419,6.2419,0,0,1-1.57885-2.1463,4.87672,4.87672,0,0,1-.12592-2.78421,14.34793,14.34793,0,0,1,.7793-2.34415q.86563-2.13372,1.58795-4.30823a70.0503,70.0503,0,0,0,2.31635-8.87652c.56555-3.05429,1.17187-6.05533,1.51165-9.10181a19.87434,19.87434,0,0,0,.14246-4.42142c-.03284-.3229-.19379-.59274-.12756-.50045l-.99622-.63855c-.67291-.41065-1.30518-.88971-1.95-1.34659a27.54757,27.54757,0,0,1-6.56482-6.83875c-1.77686-2.62414-3.09717-5.43228-4.90711-7.8576l.96888.023c-3.43378,4.25775-6.70893,8.72394-9.88526,13.21054-1.56213,2.259-3.16607,4.51617-4.51129,6.874a24.77065,24.77065,0,0,0-1.588,3.74l-1.39655,3.89832a28.18057,28.18057,0,0,1-3.79376,7.42459c-1.69812,2.23108-3.78314,4.06357-5.57751,6.13809A47.604,47.604,0,0,0,239.95961,386.34631Z"/><path fill="#47a920" d="M257.4571 369.14386c2.64069 2.83929 5.95148 4.25665 9.38544 5.78122a52.27541 52.27541 0 005.07874 2.14438 7.86539 7.86539 0 005.30926-.05411 5.18 5.18 0 01-2.584 1.46249 8.111 8.111 0 01-3.05255.11759 22.00768 22.00768 0 01-5.56519-1.84406 23.28473 23.28473 0 01-5.051-2.93673A10.25784 10.25784 0 01257.4571 369.14386zM259.24928 365.49a18.05437 18.05437 0 01.58069-3.68933 27.159 27.159 0 012.77191-6.86514 17.89548 17.89548 0 012.14764-3.056 32.87262 32.87262 0 01-1.08441 3.54556c-.40057 1.15405-.84 2.28461-1.29388 3.40994-.4574 1.12393-.92639 2.24259-1.44061 3.35074A33.39237 33.39237 0 01259.24928 365.49zM261.21522 366.8793a24.13813 24.13813 0 01.89411-3.9573c.38244-1.29041.86053-2.54492 1.36749-3.78708a40.0672 40.0672 0 011.75214-3.62515 23.90876 23.90876 0 012.2088-3.40351 31.99944 31.99944 0 01-1.14008 3.88095c-.43439 1.26471-.93469 2.498-1.43927 3.72962-.53046 1.22079-1.06323 2.44037-1.665 3.63461A32.41491 32.41491 0 01261.21522 366.8793zM263.67488 368.12137a24.97563 24.97563 0 011.06421-4.31857 37.39163 37.39163 0 013.75494-8.0055 24.76811 24.76811 0 012.6441-3.57693c-.46655 1.42373-1.02813 2.77835-1.6073 4.12024-.57055 1.3457-1.18841 2.66241-1.79467 3.985-.63166 1.31064-1.24976 2.62729-1.92078 3.92591C265.15278 365.55429 264.47029 366.85214 263.67488 368.12137zM266.05061 370.81467a25.60142 25.60142 0 011.1441-4.37564 38.19421 38.19421 0 013.92542-8.09205 25.3891 25.3891 0 012.732-3.60473c-.50018 1.43835-1.09326 2.80655-1.70282 4.16232-.60095 1.35965-1.24786 2.69013-1.88226 4.0271-.65967 1.32474-1.30475 2.6561-2.00165 3.96927C267.57686 368.21844 266.86952 369.53122 266.05061 370.81467zM268.87062 371.36987a30.19421 30.19421 0 011.14874-3.71521c.43512-1.20886.93549-2.385 1.43793-3.56033.52813-1.16406 1.05993-2.32626 1.65948-3.46252a29.79344 29.79344 0 011.9729-3.35148 22.03558 22.03558 0 01-.89142 3.79926 36.75337 36.75337 0 01-1.3695 3.62009 37.16061 37.16061 0 01-1.75385 3.45037A22.24281 22.24281 0 01268.87062 371.36987zM271.74916 372.89459a17.84237 17.84237 0 01.7893-3.51483 26.54945 26.54945 0 011.30445-3.326 26.28008 26.28008 0 011.72381-3.12918 17.68186 17.68186 0 012.20209-2.85138 27.75121 27.75121 0 01-1.16168 3.3877c-.43237 1.09808-.9093 2.1687-1.4068 3.23016-.50085 1.05991-1.01953 2.111-1.58875 3.14484A28.15609 28.15609 0 01271.74916 372.89459zM266.11982 341.64035a41.96405 41.96405 0 015.98468-9.23337c2.339-2.83441 4.85285-5.48483 7.40485-8.06073 1.2876-1.27743 2.58435-2.54516 3.81415-3.87234.62848-.65341 1.2204-1.33573 1.82208-2.01377.57721-.696 1.14234-1.40316 1.68115-2.13052 2.13983-2.93 3.80414-6.1767 5.78907-9.2782a41.268 41.268 0 017.17462-8.42889c1.35144-1.25345 2.74194-2.45365 4.13891-3.63352 1.40607-1.17443 2.7876-2.32394 4.32007-3.44287a15.7811 15.7811 0 015.19983-2.52368 21.91687 21.91687 0 015.63239-.61426c.92718-.0072 1.84637.03983 2.7586.084a9.84372 9.84372 0 012.86157.42517c2.18445.41446 2.79218 4.16052.54114 4.64444l-.01709-.19925a1.05124 1.05124 0 00.77259-.82871 2.51043 2.51043 0 00.00311-1.21737 1.69884 1.69884 0 00-.55591-.94522 2.78335 2.78335 0 00-1.04443-.48786 8.89348 8.89348 0 00-2.55457-.08307l-2.70239.18164a23.41526 23.41526 0 00-5.15882.90314 14.73481 14.73481 0 00-4.48962 2.39218c-5.639 4.44034-11.56 8.75116-15.98675 14.40744-2.22992 2.84207-4.11872 5.97361-6.15064 9.01612a93.14055 93.14055 0 01-6.62921 8.77819c-2.405 2.759-4.99585 5.3082-7.45966 7.95029a84.89583 84.89583 0 00-6.97638 8.31076z"/><path fill="#47a920" d="M302.28181,306.534a103.584,103.584,0,0,1,7.87793-6.89527,39.41077,39.41077,0,0,1,9.11353-5.36123,34.17767,34.17767,0,0,1,10.39544-2.28208c1.7724-.13855,3.48371-.22577,5.30756-.20846a9.75772,9.75772,0,0,1,5.51434,1.5206,4.31934,4.31934,0,0,1,1.165,1.21206,3.15984,3.15984,0,0,1,.47461,1.799,4.208,4.208,0,0,1-1.52362,2.95423,5.81893,5.81893,0,0,1-2.83594,1.23019,19.0084,19.0084,0,0,1-2.72467.21137,40.80382,40.80382,0,0,0-10.04291,1.65536,43.32383,43.32383,0,0,0-17.65942,10.31748A38.24058,38.24058,0,0,1,324.528,300.88315a39.26857,39.26857,0,0,1,10.43017-2.06046,20.889,20.889,0,0,0,2.4704-.21991,3.91832,3.91832,0,0,0,1.89777-.80642,2.28213,2.28213,0,0,0,.82721-1.54276,1.57621,1.57621,0,0,0-.83295-1.32535,7.8639,7.8639,0,0,0-4.3999-1.18988c-1.65406-.0393-3.42053.05506-5.11774.14066a34.92642,34.92642,0,0,0-9.97754,1.85187C313.40614,298.02954,307.825,302.36011,302.28181,306.534Z"/><path fill="#47a920" d="M289.206,347.42093a25.61085,25.61085,0,0,0,4.45837-2.754,39.435,39.435,0,0,0,3.9856-3.38953c2.51068-2.43548,4.84588-5.05963,7.295-7.62649a50.00487,50.00487,0,0,1,8.0603-7.087,38.171,38.171,0,0,1,9.79077-4.42614,67.69722,67.69722,0,0,0,9.87244-3.70295c.39282-.19323.77325-.40783,1.15289-.62371a4.98287,4.98287,0,0,0,1.04187-.68888,1.13448,1.13448,0,0,0,.46607-.874.69767.69767,0,0,0-.61725-.57715,7.95093,7.95093,0,0,0-2.48883.17862c-.86823.13763-1.73578.27606-2.59924.43738a107.43054,107.43054,0,0,0-20.1316,5.89419l-3.40423,1.35975,2.27106-2.88135a40.96149,40.96149,0,0,1,3.79425-4.25858,37.49106,37.49106,0,0,1,4.40588-3.62195,35.5694,35.5694,0,0,1,4.8999-2.9096,36.23258,36.23258,0,0,1,5.26654-2.15515,38.56413,38.56413,0,0,1,5.51831-1.34336c.94031-.11358,1.87018-.291,2.8169-.33151.95129-.08679,1.88324-.086,2.71216-.21921a2.5057,2.5057,0,0,0,1.92157-1.05261,2.07624,2.07624,0,0,0-.291-2.12805,4.45932,4.45932,0,0,0-2.0332-1.54816c-.82715-.36883-1.72339-.66437-2.55628-1.10147l.08191-.18246c.8606.32013,1.76551.49325,2.66419.797a5.13012,5.13012,0,0,1,2.486,1.5495,3.4369,3.4369,0,0,1,.72522,1.39322,2.5561,2.5561,0,0,1-.14362,1.67709,2.8187,2.8187,0,0,1-1.14166,1.24576,5.07321,5.07321,0,0,1-1.45965.56986c-.98957.231-1.91761.2912-2.80249.44281-.90125.11172-1.78852.31366-2.67957.4743a44.01115,44.01115,0,0,0-5.208,1.52826,40.46742,40.46742,0,0,0-9.54333,5.04239,39.828,39.828,0,0,0-7.88483,7.34366l-1.13312-1.52155a85.86944,85.86944,0,0,1,20.70117-5.03573c.88031-.11139,1.76331-.1995,2.64551-.28656l1.32477-.11515a3.99808,3.99808,0,0,1,1.44653.07694,1.68729,1.68729,0,0,1,.7273.39935,1.28872,1.28872,0,0,1,.36767.803A1.7984,1.7984,0,0,1,335.289,317.59a5.53218,5.53218,0,0,1-1.1651.7597c-.39.21613-.7807.43057-1.18219.62271-3.17523,1.61688-6.53479,2.79041-9.78045,4.1518a41.94535,41.94535,0,0,0-9.17035,4.86541,65.07438,65.07438,0,0,0-7.84467,6.84794c-2.5108,2.45413-4.98681,5.00909-7.73559,7.288a33.9561,33.9561,0,0,1-4.34119,3.13767,21.87632,21.87632,0,0,1-4.7951,2.34561Z"/><path fill="#47a920" d="M329.23646 307.7059a6.92074 6.92074 0 011.53095 1.62021 10.16046 10.16046 0 011.00781 1.84012 9.97836 9.97836 0 01.61182 2.00653 6.83746 6.83746 0 01.08374 2.22849 6.83912 6.83912 0 01-1.53351-1.61918A9.97911 9.97911 0 01329.932 311.941a10.16346 10.16346 0 01-.60938-2.00757A6.923 6.923 0 01329.23646 307.7059zM337.49257 306.50412a28.32387 28.32387 0 012.28131 4.13287 43.38788 43.38788 0 011.74719 4.32367 21.14421 21.14421 0 01.64081 2.30527 21.62221 21.62221 0 01.33276 2.3623 16.37416 16.37416 0 01-.08234 4.74192c-.50073-1.50546-1.0321-2.95572-1.45031-4.44739-.41834-1.51855-.83557-2.86707-1.33734-4.32874-.48914-1.4548-.951-2.946-1.32166-4.45352A28.07275 28.07275 0 01337.49257 306.50412zM315.02546 326.2735a95.76055 95.76055 0 019.1084 6.23038 28.13322 28.13322 0 004.34943 2.943 2.46019 2.46019 0 002.07629.22064 2.31056 2.31056 0 00.82715-.82608c.1919-.33768.38959-.79861.0202-1.14215a.7469.7469 0 01.49762.54657 1.841 1.841 0 01.00318.78531 2.86794 2.86794 0 01-.73993 1.40732 2.64 2.64 0 01-1.60407.66629 4.67459 4.67459 0 01-1.60437-.18778 16.23026 16.23026 0 01-5.02508-2.81363 44.57516 44.57516 0 01-4.22577-3.62271A29.23133 29.23133 0 01315.02546 326.2735zM338.29982 300.96771A5.25972 5.25972 0 01342.784 299.737a10.50047 10.50047 0 014.41687 1.9447c2.59839 1.84714 4.71771 4.01 7.60583 4.435a8.55367 8.55367 0 011.24634.39325 3.25747 3.25747 0 011.32648.95611 2.41768 2.41768 0 01.47107 1.85218 2.82686 2.82686 0 01-.8382 1.54828 4.10811 4.10811 0 01-2.79413.99044 13.6378 13.6378 0 01-2.50091-.18911c-3.23511-.54837-6.02124-2.08652-8.851-2.17l.69415-.81775a22.405 22.405 0 001.30859 4.8877 17.22924 17.22924 0 01.67395 2.57834 7.35313 7.35313 0 01-.00055 2.65213 11.903 11.903 0 00-1.49286-4.90122 19.20992 19.20992 0 01-1.92584-5.02935l-.13263-.77015.827-.04779a15.09646 15.09646 0 014.81451.66407A44.91626 44.91626 0 00352.025 309.755c1.36438.20551 3.07159.24155 3.61279-.32663a.87786.87786 0 00.26959-.44143.448.448 0 00-.07666-.33093 3.03776 3.03776 0 00-1.49927-.68247 10.80818 10.80818 0 01-2.34631-.83273 13.3751 13.3751 0 01-2.08722-1.32968c-1.27869-.992-2.36316-2.10175-3.514-3.06321a10.366 10.366 0 00-3.763-2.23214A5.30078 5.30078 0 00338.29982 300.96771z"/><path fill="#47a920" d="M356.73225,333.08936a2.84009,2.84009,0,0,1-2.15967.78381,4.89119,4.89119,0,0,1-2.25354-.70456,17.73438,17.73438,0,0,1-1.85064-1.2645c-.58362-.43267-1.17133-.86047-1.74311-1.30743-2.30682-1.76425-4.58343-3.565-6.7456-5.50415l-3.1789-2.98654a14.47842,14.47842,0,0,0-3.30761-2.661,3.577,3.577,0,0,0-3.79346.17154,1.92255,1.92255,0,0,0-.81885,1.567,3.46052,3.46052,0,0,0,.794,1.73447c1.65277,2.3941,3.26806,4.80371,4.78882,7.26736a20.03693,20.03693,0,0,1,1.15924,1.97763,4.117,4.117,0,0,1,.3714,2.79429,3.20544,3.20544,0,0,1-.75782,1.39831,2.5981,2.5981,0,0,1-1.61523.81027A3.041,3.041,0,0,1,334,336.83359a6.8453,6.8453,0,0,1-1.06012-.66287,56.06793,56.06793,0,0,1-12.17651-12.65464l.14923-.13321a136.9716,136.9716,0,0,0,13.24652,11.03748,2.48855,2.48855,0,0,0,1.25824.62292c.13519.01465.4339-.22717.56854-.64349a2.10838,2.10838,0,0,0-.17633-1.43494,18.8915,18.8915,0,0,0-.96374-1.81952c-1.45057-2.52215-2.80652-5.09835-4.12506-7.69a4.28683,4.28683,0,0,1-.70038-2.28531,2.87648,2.87648,0,0,1,1.25921-2.08709,4.54631,4.54631,0,0,1,4.48224-.22812,22.22592,22.22592,0,0,1,3.7486,2.39315l3.53015,2.56177c2.31055,1.75974,4.50665,3.65787,6.67255,5.5925,1.08508.94278,2.14941,2.01529,3.19177,2.87756a4.51384,4.51384,0,0,0,1.75.89811,2.62382,2.62382,0,0,0,1.95093-.2435Z"/><path fill="#47a920" d="M335.80073 336.04529a55.49616 55.49616 0 00-8.78253 1.4646l-2.17328.51263a17.82551 17.82551 0 00-2.08435.55127 1.81447 1.81447 0 00-.70911.48624 1.02053 1.02053 0 00-.24749.66842.58355.58355 0 00.31378.47 3.19508 3.19508 0 00.872.32165 79.18087 79.18087 0 008.66656 1.76767c.72211.11029 1.46582.17545 2.27368.36255a4.60659 4.60659 0 012.36884 1.24463 2.5769 2.5769 0 01.71033 1.4866 1.92466 1.92466 0 01-.16358.98657 2.22155 2.22155 0 01-.55169.726 5.19114 5.19114 0 01-2.48139 1.01089c-.79.144-1.56073.211-2.3017.27579l-.53924.05072a3.37375 3.37375 0 00-.42481.0777 3.07318 3.07318 0 00-.789.31561c-.49481.289-.68243.62271-.64489.889a2.08394 2.08394 0 00.77447 1.17254 1.275 1.275 0 00.27734.1702.662.662 0 00.25361.06171 4.8741 4.8741 0 00.91693-.02253c.67852-.05828 1.44281-.21249 2.26342-.23608.64661-.02643 1.39-.18954 2.28876-.18249a4.83537 4.83537 0 011.37146.21115 4.55515 4.55515 0 011.29285.60931 2.47012 2.47012 0 011.03 1.49582 2.16626 2.16626 0 01.03711.57452 1.67382 1.67382 0 01-.23969.69736 1.88071 1.88071 0 01-.917.71921c-1.0531.35358-1.70752.27-2.26276.47586a3.0066 3.0066 0 00-1.40881.70788.391.391 0 00-.06879.14048c-.00757.03369-.00763.05032-.00677.02124a.42088.42088 0 00.01373.07065 2.46675 2.46675 0 00.339.6943 3.33116 3.33116 0 00.54944.6471 1.35541 1.35541 0 00.17755.12976 2.16806 2.16806 0 00.37164.10461 16.2029 16.2029 0 002.078.09128 19.0284 19.0284 0 014.62836.71664l.10321.02979.07923.04272c2.85522 1.53971 5.77667 2.9567 8.74115 4.28043q2.2208.99912 4.4826 1.90756c1.50446.60693 3.05365 1.18393 4.55689 1.91861a17.82617 17.82617 0 014.22357 2.75888 29.01477 29.01477 0 013.3341 3.691c2.0365 2.58759 3.86951 5.28531 5.798 7.92932-2.17987-2.4393-4.17938-5.04446-6.35724-7.4548a31.0983 31.0983 0 00-3.45081-3.37048 16.65339 16.65339 0 00-4.08-2.39054c-1.47077-.62378-3.00409-1.14358-4.55066-1.70526q-2.31793-.84141-4.60352-1.77322c-3.04516-1.24622-6.02808-2.64417-8.96167-4.139l.18207.07236a19.01979 19.01979 0 00-4.18732-.58567 16.25456 16.25456 0 01-2.37793-.10873 4.1189 4.1189 0 01-.70276-.19422 2.66886 2.66886 0 01-.75726-.47076 5.22231 5.22231 0 01-.90533-1.03827 4.293 4.293 0 01-.619-1.3107 2.27835 2.27835 0 01-.07209-.47934 2.0536 2.0536 0 01.05524-.53171 2.37045 2.37045 0 01.39838-.86419 4.58922 4.58922 0 012.42346-1.4404c.86249-.27237 1.74634-.27811 2.10181-.43131.07623-.0263.05017-.04733-.0329.07151a.5903.5903 0 00-.06323.19406c-.00721-.05078-.05164-.14643-.23157-.28a2.634 2.634 0 00-.72052-.3349 2.81691 2.81691 0 00-.82684-.1323c-.59345-.01858-1.3205.12452-2.16114.16474-.67022.00928-1.37347.14795-2.17785.21686a6.58314 6.58314 0 01-1.312.0119 2.599 2.599 0 01-.821-.21961 3.18415 3.18415 0 01-.67248-.41049 4.31146 4.31146 0 01-.96509-1.06451 3.28779 3.28779 0 01-.5332-1.47769 2.55307 2.55307 0 01.47839-1.67057 3.41782 3.41782 0 011.14673-.99447 4.92076 4.92076 0 011.28552-.489 5.21043 5.21043 0 01.675-.10876l.57324-.04321c.74268-.0503 1.45831-.10193 2.13574-.21274a3.75136 3.75136 0 001.64319-.5647c.15436-.15079.14429-.15039.1499-.24878a.90573.90573 0 00-.24456-.48889c-.67322-.79593-2.15845-.97073-3.643-1.22934a68.43882 68.43882 0 01-8.7511-2.15213 4.17469 4.17469 0 01-1.1831-.52707 1.70551 1.70551 0 01-.7544-1.38837 2.30073 2.30073 0 011.69861-2.07965 17.8327 17.8327 0 012.26361-.44928l2.20514-.368A46.37941 46.37941 0 01335.80073 336.04529zM352.39058 332.57291a26.27735 26.27735 0 01-7.1623-8.21 11.01441 11.01441 0 01-1.15924-2.60438 3.62921 3.62921 0 01.51538-3.10919 2.55845 2.55845 0 011.4914-.98657 2.82473 2.82473 0 011.76153.201 6.30487 6.30487 0 012.32233 1.994 42.72727 42.72727 0 003.2702 4.17895 16.32167 16.32167 0 004.30506 2.79148 23.32478 23.32478 0 014.72424 3.05178 28.68518 28.68518 0 013.90027 4.04081 85.01654 85.01654 0 015.99481 9.198 77.37985 77.37985 0 006.10284 8.82733c4.46888 5.63315 9.43531 10.92783 14.1214 16.46457a211.89316 211.89316 0 01-15.327-15.47342 69.06277 69.06277 0 01-6.51514-8.83419 88.17713 88.17713 0 00-5.94067-8.93729 26.72616 26.72616 0 00-3.59656-3.79471 22.77061 22.77061 0 00-4.348-2.87411 17.967 17.967 0 01-4.67145-3.2388 35.93791 35.93791 0 01-3.27167-4.47818 4.9318 4.9318 0 00-1.66821-1.60776 1.2659 1.2659 0 00-1.63031.28424 2.40134 2.40134 0 00-.4242 2.05563 10.62075 10.62075 0 00.90809 2.40186A27.99741 27.99741 0 00352.39058 332.57291z"/><path fill="#47a920" d="M365.95039 384.75a1.638 1.638 0 01-1.04834-.33008c-.39453-.31054-.79394-.96191-.45166-2.30078a14.13 14.13 0 014.8125-7.46777l.626.77929a13.12646 13.12646 0 00-4.46973 6.93653c-.09424.36914-.20654 1.02441.10156 1.26758a1.364 1.364 0 001.00684.043c3.875-.78613 7.40869-2.61132 11.52246-5.10937 4.0376-2.45215 8.00928-5.125 11.80566-7.94238a10.54337 10.54337 0 001.88868-1.6543 1.31685 1.31685 0 00.33691-.61719l.99414.11133a2.2074 2.2074 0 01-.563 1.14648 11.7266 11.7266 0 01-2.06054 1.81641c-3.82129 2.83594-7.81885 5.52539-11.88282 7.99512-4.20361 2.55176-7.82568 4.41894-11.84228 5.23437A3.92906 3.92906 0 01365.95039 384.75zM314.04921 327.3154a84.7791 84.7791 0 00-7.80548 20.60046 158.43485 158.43485 0 00-3.66248 21.74506c-1.55542 14.65463-2.50372 29.38141-3.10248 44.12445-.73944 14.73782-1.20459 29.50436-1.92218 44.25558l-1.08905 22.12793c-.43609 7.3733-.8034 14.74909-1.30011 22.12018.04346-7.38769.21631-14.77063.32038-22.15606l.53137-22.14832c.14868-7.38385.44665-14.76208.66949-22.14331.24036-7.38065.48242-14.7641.79456-22.1478.7669-14.75863 1.68707-29.53094 3.57763-44.21591a157.33439 157.33439 0 014.24091-21.81229A80.28724 80.28724 0 01314.04921 327.3154zM276.23353 434.86322q.31 8.19909-.00348 16.398c-.18121 5.46344-.55963 10.91791-1.04065 16.36267-.51818 5.44129-1.14154 10.87329-1.95983 16.2782q-1.18526 8.11212-2.992 16.12292.65149-8.17912 1.44269-16.31158l1.51874-16.27271 1.47925-16.27642Q275.38453 443.01969 276.23353 434.86322zM338.872 293.31912a29.8658 29.8658 0 012.98731-8.61352c1.34667-2.73764 2.955-5.28492 4.4-7.9126 1.51587-2.591 3.05328-5.16879 4.69373-7.692.79565-1.26968 1.68951-2.51123 2.45764-3.77313a10.33459 10.33459 0 001.66278-4.07816 8.67567 8.67567 0 01-.78638 4.52112c-.593 1.42444-1.28674 2.7446-1.97327 4.09433-1.36969 2.69068-2.8424 5.32678-4.33667 7.94971-1.49249 2.629-3.17236 5.13165-4.7619 7.65137A68.314 68.314 0 00338.872 293.31912zM371.041 342.78a95.01433 95.01433 0 011.58062-16.07065 67.72962 67.72962 0 011.965-7.89664 54.53942 54.53942 0 013.12756-7.55847A41.47793 41.47793 0 01387.734 298.36987a25.13146 25.13146 0 016.98822-4.305 13.69484 13.69484 0 018.0354-.787 14.71632 14.71632 0 00-7.63879 1.68531 26.8561 26.8561 0 00-6.34821 4.57333 45.83235 45.83235 0 00-9.27685 12.62793 65.995 65.995 0 00-5.35285 14.87473C372.87776 332.20984 371.94337 337.47983 371.041 342.78z"/><path fill="#47a920" d="M436.70521 421.20724c-.49377-8.05847-.56335-16.12927-.65582-24.18991q-.0541-12.09279-.00983-24.17224c.03949-8.04989.22357-16.111-.27453-24.13485a96.85155 96.85155 0 00-4.527-23.6142 71.90064 71.90064 0 00-10.99072-21.16266 70.44883 70.44883 0 00-17.599-15.936 229.95221 229.95221 0 00-20.89557-11.89161l-10.71594-5.60034A100.90132 100.90132 0 01360.48335 264.47l.05652.03308-.03705-.02337-.05078-.02927-.458-.334-.22858-.167c-.066-.04617-.16992-.12662-.26977-.213l.33264.13779-.00732-.00016-.1648-.00381-.11279-.08673a20.28056 20.28056 0 01-4.07135-4.075 11.98644 11.98644 0 01-2.24054-5.25461l.19623-.03861a12.188 12.188 0 002.51672 4.92789 20.31171 20.31171 0 004.15381 3.68l-.27728-.09042.00732-.00018.11969-.00275.21338.14066.83551.55084-.05042-.029.038.02157.04425.02518.01263.00812a107.00737 107.00737 0 0010.68518 5.49136l10.87195 5.29666a175.55494 175.55494 0 0121.23493 11.7962 65.43729 65.43729 0 0128.2323 38.60474c4.60962 15.57306 5.37512 31.90674 5.713 48.00168.16058 16.14069-.455 32.24747-.87354 48.36493zM438.08894 404.07492a14.63615 14.63615 0 013.10645 2.29349 21.79657 21.79657 0 012.54925 2.84286 21.56336 21.56336 0 012.0152 3.24329 14.51285 14.51285 0 011.32654 3.62707 26.25663 26.25663 0 01-2.62879-2.7669c-.80328-.95294-1.57757-1.91425-2.313-2.90445-.741-.98609-1.44775-1.998-2.13586-3.03736A26.66248 26.66248 0 01438.08894 404.07492zM441.1418 400.05078a22.933 22.933 0 012.69519.43723c.8479.182 1.67053.37548 2.49115.57892.82074.20269 1.63769.4179 2.4718.65487a22.28527 22.28527 0 012.585.88114 6.899 6.899 0 01-2.75268.68249 9.68615 9.68615 0 01-5.37879-1.34289A6.95352 6.95352 0 01441.1418 400.05078zM439.59376 396.76913a19.6338 19.6338 0 012.56647-1.608c.85968-.46084 1.72058-.88223 2.59283-1.27945.872-.39773 1.75586-.76831 2.66852-1.11233a19.24133 19.24133 0 012.90113-.87146 9.28417 9.28417 0 01-2.13154 2.24292 13.20386 13.20386 0 01-2.61151 1.5614 13.34915 13.34915 0 01-2.89526.93585A9.368 9.368 0 01439.59376 396.76913zM406.38192 377.58082c-8.84834 11.44628-22.034 18.55507-33.5861 24.23307-.38383-.64747-.77549-1.30278-1.14464-1.95778 11.37113-5.58025 24.35386-12.546 32.93856-23.63839C405.192 376.66963 405.79469 377.12138 406.38192 377.58082zM396.482 435.113a70.92437 70.92437 0 014.61755 16.79544l2.8786 17.12243 2.78241 17.13324q1.3917 8.56933 2.58051 17.19141-2.32837-8.38962-4.11493-16.90619c-1.21558-5.67035-2.26093-11.37482-3.22016-17.0932-.92846-5.72125-1.75909-11.468-2.44384-17.21631A109.01156 109.01156 0 00396.482 435.113zM444.9167 481.0752a37.52059 37.52059 0 01-8.52832-9.22754l.83789-.54688a36.53564 36.53564 0 008.30078 8.9834zM482.06172 327.76273a35.81517 35.81517 0 00-.70136-15.86374 77.31753 77.31753 0 00-5.72534-14.92527c-2.34411-4.82812-4.85809-9.62054-7.038-14.63342a99.3309 99.3309 0 01-5.18091-15.54718 92.954 92.954 0 01-2.41064-16.20923c-.31171-5.46158-.11774-10.87521-.1579-16.25082-.01154-2.68875-.06037-5.37164-.25653-8.03891a55.3394 55.3394 0 00-1.0412-7.93549 33.57838 33.57838 0 00-6.53467-14.40161 35.43076 35.43076 0 00-12.577-9.64181 45.049 45.049 0 00-15.36517-4.00113 63.74421 63.74421 0 00-15.89642.81024 106.39755 106.39755 0 00-15.52075 3.85757 72.30615 72.30615 0 00-14.577 6.21363 34.99924 34.99924 0 00-11.41009 10.285 13.90522 13.90522 0 00-2.49463 6.73358 14.17365 14.17365 0 001.53277 7.025 23.80143 23.80143 0 004.38861 6.16128 76.775 76.775 0 005.84143 5.36838l-2.27533 1.90939a12.78482 12.78482 0 01-1.30584-8.3602 25.72967 25.72967 0 012.57782-7.62561c1.17761-2.33331 2.481-4.51843 3.57629-6.75033a24.667 24.667 0 002.36218-6.88245l.00837-.05041a1.09 1.09 0 012.16485.14508 36.87592 36.87592 0 004.62531 16.58673 38.96288 38.96288 0 005.024 7.16818 38.14566 38.14566 0 006.57819 5.86414l-.16229.25229a35.306 35.306 0 01-7.06507-5.50419A38.49846 38.49846 0 01381.863 209.27023l2.17316.09467a25.6942 25.6942 0 01-2.34412 7.61239c-1.09076 2.37723-2.34418 4.61246-3.40289 6.86307a23.0643 23.0643 0 00-2.13428 6.86264 10.03644 10.03644 0 001.11041 6.457 1.50368 1.50368 0 01-2.25122 1.93018l-.02417-.02075a79.49785 79.49785 0 01-6.14105-5.51364 26.94473 26.94473 0 01-5.0362-6.922 17.32012 17.32012 0 01-1.83172-8.63126 16.85686 16.85686 0 013.04815-8.28174 37.96853 37.96853 0 0112.585-11.06271 74.12842 74.12842 0 0115.25061-6.23419 108.82274 108.82274 0 0115.98187-3.52826 65.50568 65.50568 0 0116.39124-.191 47.44975 47.44975 0 0115.67395 4.63351A38.18536 38.18536 0 01453.719 203.388a32.08 32.08 0 014.3078 6.96735 38.50233 38.50233 0 012.673 7.7416 59.52315 59.52315 0 011.40021 8.059c.316 2.70713.48285 5.42188.60968 8.12854.25079 5.41468.3269 10.80854.79443 16.11927a107.72545 107.72545 0 002.535 15.76208 100.02618 100.02618 0 004.86834 15.20465c2.00025 4.94553 4.44342 9.75617 6.61713 14.73236a72.34315 72.34315 0 015.2 15.49515 34.89618 34.89618 0 01-.37158 16.23673z"/><path fill="#47a920" d="M398.37806 226.28577a21.03373 21.03373 0 001.30292 8.8973 47.45749 47.45749 0 003.94739 8.10944c1.54016 2.61063 3.15454 5.21692 4.57062 7.97922a62.21032 62.21032 0 013.5722 8.57425 60.28287 60.28287 0 012.9859 18.26153 62.32012 62.32012 0 01-.64844 9.20664c-.40362 2.982-.65167 6.08529.64643 8.90436a10.14144 10.14144 0 01-1.4917-4.35151 28.68176 28.68176 0 01-.13184-4.63375 78.19666 78.19666 0 00.06555-9.07843 68.91079 68.91079 0 00-3.32537-17.68668 64.06931 64.06931 0 00-3.36322-8.35489c-1.273-2.72058-2.84113-5.33313-4.2417-8.07025a41.66906 41.66906 0 01-3.518-8.57526A19.772 19.772 0 01398.37806 226.28577zM430.91279 260.962a66.71348 66.71348 0 007.57917 40.50131c3.306 6.12173 7.75988 11.54669 12.42163 16.773 4.62445 5.26678 9.48449 10.40887 13.72082 16.11261a70.25886 70.25886 0 0110.05774 18.68521 49.83633 49.83633 0 012.34674 10.36609 44.30126 44.30126 0 01-.14715 10.60419 36.2941 36.2941 0 00-.221 10.42984 24.71581 24.71581 0 003.751 9.62072 27.096 27.096 0 007.2331 7.35483 24.40059 24.40059 0 009.47943 3.8392l-.43927 1.16809a18.1713 18.1713 0 01-3.89911-3.21133 19.91465 19.91465 0 01-2.82428-4.17709 27.23144 27.23144 0 01-2.61945-9.61893 36.14829 36.14829 0 01.461-9.92072c.56873-3.24874 1.40241-6.42025 2.26856-9.55258.86114-3.13339 1.7586-6.237 2.43756-9.36447.347-1.56247.63489-3.13086.83948-4.70386a30.43969 30.43969 0 00.32165-4.69256 16.3609 16.3609 0 00-.63165-4.511 16.92966 16.92966 0 00-1.9419-4.13473 82.13049 82.13049 0 00-5.90887-7.55365q-12.444-15.02949-23.396-31.20295a109.787 109.787 0 01-9.4519-17.11166 43.93924 43.93924 0 01-2.90125-9.35818 26.86214 26.86214 0 01-.10553-9.74936l.19727.033a26.45609 26.45609 0 00.5083 9.59378 46.58373 46.58373 0 003.20483 9.08215 111.90033 111.90033 0 009.81928 16.6506c7.41809 10.59263 15.47485 20.769 23.70325 30.75464a83.21828 83.21828 0 016.09582 7.74768 19.01337 19.01337 0 012.19324 4.64106 18.46707 18.46707 0 01.73974 5.09091c-.08349 6.77978-2.10357 13.09494-3.86468 19.31106-1.78021 6.20279-3.44373 12.4729-2.9068 18.80588a25.6454 25.6454 0 002.29932 9.09421 19.32216 19.32216 0 002.51562 3.92453 16.846 16.846 0 003.50617 3.04834l2.68585 1.78259L496.91536 406.5a25.82519 25.82519 0 01-9.834-4.26712 27.97637 27.97637 0 01-7.29822-7.76718 25.60845 25.60845 0 01-3.76727-9.93045c-.59332-3.5474-.09454-7.11594.24323-10.5987a43.57981 43.57981 0 00.02844-10.44815 44.04409 44.04409 0 00-2.5329-10.12 69.31163 69.31163 0 00-10.38892-18.06311c-4.26025-5.52777-9.12-10.6-13.7901-15.891-4.63171-5.30869-9.1231-10.89182-12.45019-17.21445a64.00776 64.00776 0 01-6.41016-41.26944z"/><path fill="#47a920" d="M498.8332 399.08588a22.05259 22.05259 0 01-7.49353-4.77683 10.89473 10.89473 0 01-3.18023-8.51965 11.21447 11.21447 0 011.593-4.43555 38.37776 38.37776 0 012.60175-3.68884 42.06407 42.06407 0 004.66363-7.23343 30.1354 30.1354 0 002.83167-8.02365 22.58625 22.58625 0 00.14764-8.43042 20.68292 20.68292 0 00-3.16754-7.86786 16.74626 16.74626 0 00-6.39459-5.747 16.03511 16.03511 0 017.18311 5.16434 20.42537 20.42537 0 012.40905 3.83526 22.14093 22.14093 0 011.498 4.29773 22.85718 22.85718 0 01.18677 9.09058 31.18289 31.18289 0 01-2.91077 8.58362 42.20259 42.20259 0 01-4.965 7.501c-1.85394 2.25375-3.67718 4.51236-4.13653 7.1658a10.03334 10.03334 0 002.37372 7.66641A23.99767 23.99767 0 00498.8332 399.08588zM376.63264 225.7193a34.4605 34.4605 0 012.05621 5.88748 22.732 22.732 0 01.775 6.25144 24.57454 24.57454 0 01-1.22607 6.20877 22.72105 22.72105 0 01-2.5564 5.76446c-.59082.90964-1.29785 1.72324-1.90576 2.48734a5.61759 5.61759 0 00-1.25574 2.26474 1.97474 1.97474 0 00.79224 1.853 15.78755 15.78755 0 012.33313 2.2558 5.80024 5.80024 0 01.91857 3.53849 17.662 17.662 0 01-.49945 3.18569 19.5412 19.5412 0 00-.51031 2.92264 3.75522 3.75522 0 00.75171 2.7099l-.133.14939a3.92681 3.92681 0 01-1.63958-2.795 14.00333 14.00333 0 01-.02717-3.21548c.15662-2.0343.35163-4.07712-.5957-5.25458a27.7942 27.7942 0 00-2.08307-2.03406 4.726 4.726 0 01-1.04809-1.64523 3.68764 3.68764 0 01-.09949-2.06149 6.39519 6.39519 0 011.90472-2.94977c.77283-.75839 1.57239-1.35724 2.23255-2.08359a11.58914 11.58914 0 002.79492-5.262 18.95694 18.95694 0 00.18768-6.00641c-.156-1.98877-.3584-3.97726-.63287-5.99133-.26-2.01447-.59509-4.04325-.728-6.13138zM380.63221 271.23645a6.11644 6.11644 0 011.2237-1.1554 7.711 7.711 0 011.25531-.73291 7.4889 7.4889 0 011.37085-.48184 6.01535 6.01535 0 011.6745-.179 3.396 3.396 0 01-.86847 1.52932 4.39913 4.39913 0 01-1.33917.94693 4.45446 4.45446 0 01-1.5904.40189A3.42412 3.42412 0 01380.63221 271.23645zM399.66835 284.85876c1.03119-.73016 1.97851-1.38943 2.877-2.10754.90161-.70651 1.75964-1.44311 2.61285-2.20373l2.577-2.33036a28.807 28.807 0 012.825-2.2912 12.851 12.851 0 01-1.6372 3.32181 14.91576 14.91576 0 01-2.43537 2.79309 12.30431 12.30431 0 01-3.14252 2.05814A8.13737 8.13737 0 01399.66835 284.85876zM381.69935 233.452a4.36315 4.36315 0 012.39606-1.83918 10.15821 10.15821 0 012.8689-.6795 9.67626 9.67626 0 012.95605.18134 6.89145 6.89145 0 012.72376 1.22335c-1.012.1818-1.92737.24936-2.83362.34543l-2.67114.24158-2.68842.21414A12.95706 12.95706 0 00381.69935 233.452z"/><rect width="1" height="13.073" x="225.09" y="122.059" fill="#47a920" transform="rotate(-67.381 225.59 128.595)"/><rect width="1" height="11.158" x="226.766" y="217.715" fill="#47a920" transform="rotate(-32.735 227.266 223.293)"/><path fill="#47a920" d="M196.76143 297.37662a17.22789 17.22789 0 012.58233 2.50284 28.399 28.399 0 012.1081 2.81445 27.894 27.894 0 011.74914 3.05035 17.00451 17.00451 0 011.27039 3.365 17.00253 17.00253 0 01-2.5846-2.50134 27.90243 27.90243 0 01-2.10583-2.816 28.39892 28.39892 0 01-1.74689-3.05182A17.22611 17.22611 0 01196.76143 297.37662zM192.06843 369.78345a12.69687 12.69687 0 013.07044.08627 20.391 20.391 0 012.91028.63074 20.0366 20.0366 0 012.78912 1.04278 12.53712 12.53712 0 012.62744 1.59241 12.53747 12.53747 0 01-3.07123-.08371 20.03271 20.03271 0 01-2.90948-.63333 20.38844 20.38844 0 01-2.78833-1.04538A12.69582 12.69582 0 01192.06843 369.78345zM230.54152 349.65433a30.972 30.972 0 01-.24421 4.937c-.19183 1.62244-.4508 3.23074-.78741 4.82275-.32977 1.59342-.74268 3.16935-1.2196 4.73181a30.624 30.624 0 01-1.76856 4.61634 30.62276 30.62276 0 01.24133-4.93762c.19306-1.6222.45014-3.2309.79029-4.82215.33337-1.59265.74438-3.169 1.22253-4.7312A30.96439 30.96439 0 01230.54152 349.65433zM249.72572 455.599a18.67232 18.67232 0 013.74689-.1 30.96348 30.96348 0 013.64306.458 30.418 30.418 0 013.56458.88025 18.43789 18.43789 0 013.45972 1.44342 18.43275 18.43275 0 01-3.74738.10266 30.42629 30.42629 0 01-3.64258-.46063 30.96226 30.96226 0 01-3.56408-.88288A18.67756 18.67756 0 01249.72572 455.599z"/><rect width="1" height="9.15" x="480.861" y="260.119" fill="#47a920" transform="rotate(-8.427 481.36 264.693)"/><rect width="1" height="12.619" x="462.256" y="186.479" fill="#47a920" transform="rotate(-16.991 462.756 192.789)"/><rect width="1" height="13.413" x="392.03" y="166.39" fill="#47a920" transform="rotate(-88.515 392.53 173.096)"/><rect width="1" height="12.879" x="367.222" y="120.982" fill="#47a920" transform="rotate(-38.66 367.722 127.422)"/><rect width="13.513" height="1" x="274.479" y="130.441" fill="#47a920" transform="rotate(-7.125 281.236 130.941)"/><rect width="1" height="24.136" x="346.718" y="61.384" fill="#47a920"/><rect width="1" height="15.478" x="407.783" y="141.137" fill="#47a920" transform="rotate(-17.649 408.29 148.877)"/><rect width="12.202" height="1.001" x="470.902" y="447.556" fill="#47a920" transform="rotate(-74.024 477.003 448.057)"/><rect width=".999" height="10.349" x="423.539" y="468.023" fill="#47a920" transform="rotate(-65.093 424.039 473.198)"/><rect width="7.166" height="1" x="440.066" y="449.4" fill="#47a920" transform="rotate(-10.75 443.649 449.9)"/><path fill="#47a920" d="M258.112 436.375c.95642-.36874 1.83832-.62173 2.69928-.90414l2.52594-.82206 2.50568-.88049c.85516-.29849 1.71026-.63064 2.69592-.91562a6.633 6.633 0 01-1.927 2.28742 9.14239 9.14239 0 01-5.58075 1.88244A6.67775 6.67775 0 01258.112 436.375zM400.79437 373.46163a92.97417 92.97417 0 01-30.98055 23.03588q-.51962-1.01673-.994-2.03339a90.59246 90.59246 0 0030.10693-22.29773C399.55191 372.58817 400.177 373.02479 400.79437 373.46163z"/><path fill="#68ca44" d="M253.87809,206.45157c5.96242-2.41307,18.87873-3.94139,24.8566-1.56679a13.38062,13.38062,0,0,1,6.36477,4.65723c2.07089,3.09745,2.02443,7.07867,2.51346,10.77246a34.26481,34.26481,0,0,0,3.02229,10.20586c2.19755-.96654,1.87457-4.08484,1.93127-6.48489.09888-4.19208,2.45291-7.95341,4.72961-11.47482,1.31926-2.04062,2.69983-4.14359,4.74368-5.45781a8.56783,8.56783,0,0,1,13.18531,7.7394c-.1772,2.84231-1.76116,5.57023-1.34028,8.38671.37276,2.4938,2.23219,4.47086,4.04011,6.2284a162.36913,162.36913,0,0,0,20.99827,17.2404,1.86854,1.86854,0,0,0,.7907.37638c1.14878.147,1.44262-1.52086,1.4192-2.67875-.06687-3.30837,1.19908-6.4864,2.549-9.50756,5.62069-12.57887,13.16866-24.63324,15.19881-38.26036a50.12757,50.12757,0,0,0-11.10651-39.15874,25.02369,25.02369,0,0,0-8.53251-6.96059c-4.48313-2.02609-9.57917-1.97006-14.468-2.52091-11.127-1.25376-22.2396-5.81084-33.18744-3.46019-4.65121.99862-8.93908,3.19775-13.33071,5.02653-7.532,3.13638-15.58113,5.26834-22.38645,9.76894s-12.31959,12.23119-11.19506,20.31224c.41267,2.96521,1.67523,5.73184,2.68778,8.54923C250.34493,196.48353,250.19605,207.94171,253.87809,206.45157Z"/><path fill="#4fc123" d="M254.00144 204.8847a14.78984 14.78984 0 00-2.818-.75727c.639 1.84347 1.44653 2.82929 2.69486 2.32407.60267-.244 1.29171-.47548 2.02232-.69831A20.09643 20.09643 0 00254.00144 204.8847zM347.7746 157.46869a25.02568 25.02568 0 00-8.5325-6.96059c-4.48336-2.02616-9.57933-1.97013-14.46828-2.52091-11.127-1.25368-22.23959-5.811-33.18713-3.46027a33.45916 33.45916 0 00-4.09177 1.18621c4.17453.86314 8.3593 1.80227 12.54558 2.27406 4.88895.55078 9.98484.49475 14.4679 2.52091a25.0225 25.0225 0 018.53281 6.96059 50.1273 50.1273 0 0111.10643 39.15874c-1.8632 12.50477-8.36925 23.686-13.77185 35.16284a162.3824 162.3824 0 0018.54754 14.90745 1.86975 1.86975 0 00.79055.37638c1.14863.14707 1.44247-1.52079 1.41928-2.67868-.06687-3.30844 1.19908-6.48647 2.54892-9.50763 5.62069-12.57887 13.16881-24.63339 15.19888-38.26036A50.12749 50.12749 0 00347.7746 157.46869zM289.1514 223.22892c-.42065-2.8164 1.163-5.5444 1.34028-8.38671a8.49732 8.49732 0 00-9.67127-8.98509 11.71056 11.71056 0 014.2789 3.68489c2.07089 3.0973 2.02458 7.0786 2.51361 10.77231a34.2688 34.2688 0 003.02214 10.20593 2.91416 2.91416 0 001.60979-2.01425A10.05308 10.05308 0 01289.1514 223.22892z"/></svg>