<svg xmlns="http://www.w3.org/2000/svg" data-name="Layer 1" viewBox="0 0 700 550"><path fill="#ffe2df" d="M229.69973,504.45809c42.939-16.55286,90.8847-10.91419,136.35539-3.83168s92.48786,15.307,136.93549,3.38405c18.43691-4.94564,36.66234-13.89725,47.8673-29.35133,6.04011-8.33058,9.75747-18.19025,11.7487-28.28564,4.95367-25.11448-.55676-51.2216-9.44417-75.2277s-21.104-46.65866-30.28706-70.55318c-17.16191-44.65568-23.37385-92.61053-33.448-139.37778-5.98983-27.80662-14.552-57.21455-36.53046-75.271-31.10431-25.55379-76.331-19.30168-116.029-25.97554-21.81679-3.66774-42.68892-11.57062-64.26411-16.46271-21.57542-4.89208-44.84007-6.60527-65.27885,1.86128-26.74956,11.08067-44.8414,40.24321-42.88737,69.131,1.3023,19.25266,10.54526,37.62865,9.642,56.90422-1.67116,35.66294-37.02466,63.04728-38.50481,98.71862-.975,23.49673,13.1468,44.87972,28.68888,62.52884,15.54192,17.64919,33.45741,34.0274,42.98994,55.52568a84.62825,84.62825,0,0,1,6.52,44.9338c-1.42644,10.98158-5.00641,21.5885-6.57113,32.55127S196.68825,502.14122,229.69973,504.45809Z"/><path fill="#fecec8" d="M502.98957,504.00815c-50.375,11.522-67.04157,5.37059-112.24366.44637-28.4812-3.10169,4.52218-16.12613,34.13407-25.80341a3.60626,3.60626,0,0,0,2.14974,2.0009,6.02323,6.02323,0,0,0,2.6034.01488c2.29828-.33465,3.7872-.87594,4.76169-2.98848.08934-.1934.64126.12369.69355-.08458a20.04627,20.04627,0,0,0,4.25157-1.04032,3.074,3.074,0,0,0,1.94891-2.04552,4.23058,4.23058,0,0,0,.09662-.77366c1.40591.61745,6.55447-.60815,6.7553-3.83351,0,0,2.59232.90128,3.88279-2.13021,1.79529-4.2174,9.14277-.03481,8.5155-.08346C456.124,467.34447,508.58918,502.72735,502.98957,504.00815Z"/><path fill="#fe8f83" d="M429.62985,480.66361a5.95816,5.95816,0,0,1-2.60162-.01048c-2.12832-.6574-2.79367-3.29479-3.05267-5.507-.35049-2.99436-.87274-9.86868-1.03482-13.02288-.049-.95448-5.01429,4.57626-6.79948,1.1272-1.23476-2.38568,1.03117-1.63338,1.02172-4.34032-.00625-1.79039,5.75709-6.64655,5.77776-8.42378.04642-3.98514,3.40324-8.76772,3.51-12.53834l-6.71513-.17109c-.58614-1.58681-.35116-5.40436-.207-6.98068.1446-1.5761,1.93656-9.68487,1.93656-9.68487l-.81174.48542c-3.774,3.34254-23.61656-1.2799-23.61656-1.2799s-7.64351-.61232-9.35193-6.40534c-1.70813-5.793-1.96163-17.304-1.96163-17.304-5.2097,2.74339-17.76,1.70411-17.76,1.70411,6.75366,14.89108,8.30886,18.02334,7.52182,18.55466-.78742.53139-2.42652-.21884-6.19758,2.26875s-4.35765,1.77091-4.35765,1.77091,1.30059,2.48067,2.74428,20.46436c1.4434,17.98414,4.42377,22.34357,6.46782,26.49889s2.73275,2.44541,3.34618,5.458c.61381,3.01251-4.59373,6.92073-4.59373,6.92073a185.23065,185.23065,0,0,0,1.75208,21.72225c19.65225,3.07447,39.54312,6.10847,59.34428,7.41181.39007-10.84019.62772-27.86271.76756-31.73984l-.36351.03623A8.17028,8.17028,0,0,1,429.62985,480.66361Z"/><path fill="#fecec8" d="M385.36029,204.73252s-2.99108-77.89284,32.85268-83.95578c19.953-3.37513,29.139,41.51567,40.24016,76.47985s-15.25407,50.71476-23.36477,47.65948S402.153,206.00848,385.36029,204.73252Z"/><path fill="#fec0b7" d="M522.87538,300.59261c-8.43383-21.94525-14.221-44.68781-19.12421-67.694-9.35394-30.16418-26.46043-62.36794-35.10454-67.29864-16.89845-9.63927-30.0509,81.16226-30.0509,81.16226l16.47008,73.26548s32.1621-1.04694,59.22244.02849c6.50233.25856,11.2-1.71088,14.59116-4.84708C526.78807,310.37388,524.76545,305.5105,522.87538,300.59261Z"/><path fill="#fecec8" d="M310.16689,295.96674s-63.91727-29.28461-69.70411,27.03824c0,0-.00766,0,0,.00751-.945,9.00018-21.48206-29.28468-21.48206-29.28468s11.56676-128.04257,29.64164-114.34125c4.277,3.24309,9.98211,11.4772,16.18556,22.15865a27.72524,27.72524,0,0,0-9.91494,1.4132,20.07936,20.07936,0,0,1,7.64641,12.2583c.54292,2.89357.46847,5.98782,1.81487,8.61361,1.24978,2.42488,3.54806,4.11337,5.274,6.22592.86262,1.04872,1.57669,2.6034.75112,3.67444-1.22725,1.58428-4.06131.06687-5.68293,1.24211-1.18261.863-1.05623,2.69281-.50558,4.04643a10.34541,10.34541,0,0,0,9.27532,6.29279,3.99606,3.99606,0,0,0,2.73015-.8107,2.88274,2.88274,0,0,0,.69154-2.74465c2.90085,10.19038,11.54422,17.50972,19.61483,24.3676.28258.2381.57275.48364.85533.72918C304.93762,283.58958,310.16689,295.96674,310.16689,295.96674Z"/><path fill="#fec0b7" d="M247.965,333.81088s-62.791-91.95016-77.25136-88.81656c-8.6209,1.86835-14.671,41.38752-18.15232,73.0009a180.4219,180.4219,0,0,0,11.70228,14.65432c15.54193,17.64926,33.45741,34.0274,42.98987,55.52561a83.9867,83.9867,0,0,1,5.75411,18.60062c6.60728,3.85393,11.99825,6.06816,14.99246,5.43672C241.85635,409.29058,247.965,333.81088,247.965,333.81088Z"/><path fill="#fecec8" d="M537.22458 488.26658a68.53206 68.53206 0 0013.63333-13.60752c6.04-8.33051 9.75732-18.19018 11.7487-28.28565 4.95367-25.1144-.55676-51.22159-9.44417-75.22762-7.73507-20.8937-17.99068-40.76277-26.57446-61.31721-20.86715-14.166-42.11751-20.02565-52.48135-13.34116-10.32218 6.65764-11.22028 26.641-9.02614 54.1284h1.03392a120.043 120.043 0 0015.41191 35.78255l-2.39014 1.463 44.86052 79.47623zM254.568 315.10381c.19339.98929 7.37015 50.30126 7.571 51.29055q1.95255 9.47267 4.55223 18.78911c2.767 9.93011 6.08452 19.704 8.39039 29.74571 3.92816 17.04416 2.93247 52.75879-.06605 79.38108l-.01667.14379c-15.222 1.345-30.91909 4.46059-45.29916 10.00412-33.01133-2.31688-24.06181-27.83511-22.49717-38.79788s5.14469-21.56976 6.571-32.5512a83.90571 83.90571 0 00.37012-17.97469 113.27544 113.27544 0 0011.46471-43.66906c1.71207-26.9205-5.351-47.82907 6.42675-55.69774z"/><path fill="#fe8f83" d="M382.03858 371.40814q1.21414 6.36621 2.15643 12.77756l-.0032-.02135c-5.97837 2.43611-12.36756 1.01912-18.68452 2.67265l9.22526-10.3863zM355.27079 349.77381a40.81887 40.81887 0 005.60661-3.69742c3.79948-2.8903 8.48946-6.78268 13.08826-8.06385l-.16283-.56546c-6.36717-22.00661-14.41056-43.646-22.64973-65.00883a27.19431 27.19431 0 01-2.19035-8.05023c-.20842-3.5201.95872-6.95971 2.11017-10.29266q5.48911-15.88828 10.97809-31.77643l-.15776.44548q.53411-3.91659 1.06828-7.83326l-.56769-1.513a51.5709 51.5709 0 01-22.06344 19.64816 2.01052 2.01052 0 01-1.03154.2651c-.72062-.07662-1.12579-.84328-1.42005-1.50559a56.08624 56.08624 0 00-2.67689-5.23558l-.03949.00067c-3.81822 5.43984-3.85437 14.52779-1.67949 20.80793s5.2875 11.3416 5.89915 17.95952a28.29969 28.29969 0 012.24882 3.15346 40.74621 40.74621 0 014.67823 12.29445 147.04493 147.04493 0 012.638 18.89376c.837 8.7446 1.6751 17.52825 1.20486 26.30022a88.46607 88.46607 0 01-1.27679 10.9592z"/><path fill="#ffd9d7" d="M454.904 288.98918c-7.86153-24.20574-15.127-49.53653-31.65921-68.88626-4.693-5.4928-10.40512-10.58788-17.43839-12.23933-7.348-1.72524-16.42448.02179-21.348-5.699l1.30185 3.01667c.63679.1022 1.26548.22069 1.88144.36537 7.03335 1.65137 12.74535 6.74667 17.43839 12.2394 16.53226 19.34959 23.79761 44.68044 31.65921 68.88611 6.16276 18.97529 13.04816 38.53657 10.84583 58.36548-1.09878 9.89277-4.444 19.45045-5.29122 29.36791-.51175 5.98946-.11968 12.138-1.8624 17.89109-1.05311 3.47665-2.85883 6.69847-3.79159 10.20942-2.30579 8.67832.95954 17.82987.56 26.80029a6.58607 6.58607 0 01-.80214 3.31257c-1.20642 1.87392-3.752 2.23141-5.97585 2.37988q-5.50139.36685-11.014.51978a17.37029 17.37029 0 00.3275 2.25849 285.11994 285.11994 0 0028.85125-.46147c2.22375-.14832 4.76936-.50573 5.97592-2.37966a6.58553 6.58553 0 00.80207-3.31256c.39951-8.9705-2.86582-18.12212-.56-26.80052.93283-3.51087 2.73847-6.73261 3.79159-10.20927 1.74279-5.75314 1.35072-11.90163 1.8624-17.89116.84722-9.91747 4.19244-19.475 5.29129-29.36784C467.95212 327.5256 461.06679 307.9644 454.904 288.98918zM376.6067 471.51973c-22.18082-7.49043-29.92423-54.15823-63.29974-69.89757-33.36815-15.74693-46.19176-89.07347-46.19176-89.07347-8.7623-2.20174-15.41956 11.40281-20.37346 29.97629A86.46327 86.46327 0 00262.139 366.39436q1.95255 9.47267 4.55223 18.78911c2.767 9.93019 6.08452 19.704 8.39039 29.74571 3.93522 17.07518 2.9286 52.8874-.08272 79.52487 26.12386-2.21036 42.86528-.853 69.19429 2.98736 13.6314-3.254 18.70557-9.63719 22.51814-12.13571C380.95437 475.97162 376.6067 471.51973 376.6067 471.51973z"/><path fill="#fd544d" d="M363.87146,210.71416a27.54773,27.54773,0,0,0,1.262-3.109,5.56753,5.56753,0,0,0-5.632-6.9092c-1.17822.04865-2.30884.46847-3.477.62943a3.66752,3.66752,0,0,1-3.27686-.88441l-.47687-.00007c3.15019,3.00291,6.4484,6.243,9.74669,9.48321a3.03081,3.03081,0,0,1,.99524,1.47293Z"/><path fill="#fe8f83" d="M537.22458,488.26658c-20.30816-29.23194-39.46688-71.93849-58.0884-100.40518-7.89954,5.2068-15.5757,10.48784-23.371,15.8434l-.95954,1.11575c-2.30595,8.68055.95954,17.82949.55787,26.80014a6.58265,6.58265,0,0,1-.80341,3.31747,5.08869,5.08869,0,0,1-2.99019,1.94891c.51317,7.74318.7587,16.64681,1.60644,24.36039a15.09,15.09,0,0,1-1.24762,6.90473c1.581,1.19273,19.7151,25.10511,30.57,39.9764a168.61379,168.61379,0,0,0,20.49195-4.11806C515.14945,500.74884,527.20253,495.72867,537.22458,488.26658Zm-45.48066-.50915c-.82557.1934-1.90427-.08918-2.08257-.91491a2.15028,2.15028,0,0,1,.11909-.98914q.59112-2.03076,1.18261-4.06145c-.91491-.13389-1.711.55036-2.55148.94466-.83316.38679-2.157.26041-2.29107-.6545-.1115-.7587.72166-1.33145.848-2.09023-.43871-.17852-.8702-.36447-1.30891-.55043A1.68078,1.68078,0,0,1,487.4,478.04318a117.99991,117.99991,0,0,1,10.74088-11.66338c.80334-.75871,1.81487-1.562,2.88591-1.31658q-.26745,2.0754-.56509,4.14313a35.99761,35.99761,0,0,1,4.51489-2.92317c.39445-.21572.89274-.42406,1.26466-.17109.3792.26027.357.81814.29746,1.272-.14892,1.11574-.29746,2.224-.45367,3.33979a17.81774,17.81774,0,0,1,6.21834-3.853c.729.90747-.15621,2.19429-.99666,2.9977q-8.2787,7.94387-16.55018,15.87316A6.96565,6.96565,0,0,1,491.74392,487.75743Z"/><path fill="#fe6c55" d="M295.64356,177.60323a18.9906,18.9906,0,0,0-.2866-3.67622c-.04582-1.23268.54724-2.69638,1.76823-2.871,1.51972-.21735,2.45925,1.6057,3.815,2.326,1.88144.99948,4.12215-.287,5.84441-1.54092q6.34411-4.61906,12.48182-9.513c.84774-.676,1.90152-1.3978,2.928-1.0485a3.019,3.019,0,0,1,1.43015,1.36388c2.145,3.3659,4.10735,7.98024,8.09807,8.04124.37079-1.79724-.87214-3.47093-1.75789-5.07812s-1.2933-3.961.21831-5.0015c.42964-.29567.95232-.42629,1.39981-.69422,1.93462-1.15844,1.50692-4.263-.07513-5.86985s-3.84983-2.29932-5.75336-3.50819a56.28222,56.28222,0,0,1-4.67147-3.81993c-6.64105-5.29621-15.70051-6.06659-24.17681-6.62089-3.99041-.26094-8.53692-.32007-11.31408,2.55735-2.26376,2.34567-2.80222,6.19148-5.5648,7.922-1.21817.76317-2.726.99859-3.88122,1.85407-2.489,1.8432-2.31733,5.55186-3.49667,8.41575-1.44533,3.51005-5.21037,6.56867-4.22018,10.23329.46065,1.70464,1.91037,3.01035,2.36091,4.71766.86753,3.28713-2.12668,7.18888-.1173,9.93138.96028,1.31062,2.82156,1.8345,3.53073,3.29635a9.28839,9.28839,0,0,1,.46489,2.88405,6.18843,6.18843,0,0,0,10.73694,3.31561c2.29568-2.555,2.15108-6.566,4.18084-9.337,1.17116-1.59879,2.95739-2.631,4.29948-4.08912C295.22791,180.33524,296.07394,178.02431,295.64356,177.60323Z"/><path fill="#fd544d" d="M286.75435,194.11432a56.99389,56.99389,0,0,1,9.1665,6.70166c1.425,1.25018,2.77661,2.61633,4.08032,3.96625a24.34534,24.34534,0,0,0,4.06177,3.6073,22.02861,22.02861,0,0,0,4.86938,2.30828,50.3323,50.3323,0,0,0,5.32276,1.57313,37.36453,37.36453,0,0,0,16.64795.295,8.45091,8.45091,0,0,0,2.53149-.92438,6.042,6.042,0,0,0,1.88721-1.78735,13.55923,13.55923,0,0,0,1.86352-5.03235c.36866-1.81641.68384-3.66138.92774-5.504a79.35883,79.35883,0,0,0,.76611-11.11578c.00366-3.67469-.24023-7.3935-1.98706-10.39142l-.40625-.69727.55908-.548c.7732-.75818,1.59717-1.35742,2.21778-1.98657a4.90219,4.90219,0,0,0,1.29248-2.17554,4.34108,4.34108,0,0,0-.08911-2.50909c-.22925-.94263-.5271-1.87629-.83863-2.81433a35.00528,35.00528,0,0,0-2.25659-5.46387,8.87506,8.87506,0,0,0-1.73437-2.2879,2.30708,2.30708,0,0,0-2.55152-.58149l-.114-.16418a1.9493,1.9493,0,0,1,1.54541-.34631,3.94038,3.94038,0,0,1,1.46948.62738,9.33644,9.33644,0,0,1,2.16162,2.26306,35.88814,35.88814,0,0,1,2.80249,5.44427,27.3595,27.3595,0,0,1,1.07691,2.8905,9.30727,9.30727,0,0,1,.3728,1.60541,4.50219,4.50219,0,0,1-.11548,1.80847,6.79948,6.79948,0,0,1-1.61963,3.01838c-.76.83087-1.54443,1.449-2.19067,2.11071l.15259-1.24493A15.40942,15.40942,0,0,1,340.653,182.415a32.04041,32.04041,0,0,1,.321,5.81116,77.01463,77.01463,0,0,1-1.12719,11.36523c-.34864,1.87378-.74512,3.72669-1.238,5.574a14.94512,14.94512,0,0,1-2.45069,5.31658,6.99966,6.99966,0,0,1-2.31323,1.91614,10.50279,10.50279,0,0,1-2.80151.86084,55.73931,55.73931,0,0,1-5.6499.65265,55.13081,55.13081,0,0,1-11.37452-.39746,42.77947,42.77947,0,0,1-5.60888-1.21875,19.53852,19.53852,0,0,1-5.34546-2.41547,24.566,24.566,0,0,1-4.27954-3.96191c-1.2461-1.41809-2.50733-2.76337-3.81494-4.10107a105.08844,105.08844,0,0,0-8.32959-7.53833Z"/><path fill="#fe6c55" d="M332.70474,347.172c-1.37615,2.00834-3.78594,3.6075-6.15146,3.04233-2.00811-.47612-3.3621-2.31338-4.49272-4.03913-6.6723-10.19782-12.18384-21.15441-19.47358-30.91352-7.29667-9.759-16.77319-18.47663-28.46595-21.89831-1.98632-.58019-4.39618-.9074-5.88384.52812-1.27194,1.22746-1.30928,3.22085-1.17532,4.9838.34216,4.567,1.24978,9.24571.052,13.67149-1.00424,3.71914-3.40643,6.89529-4.90175,10.44335-2.52894,5.96551-2.39528,12.68213-2.06041,19.15359q.63632,12.19507,2.06041,24.33063c-.02217-.02982-.05192-.05214-.07446-.08174a86.46845,86.46845,0,0,1-15.397-23.86954,101.499,101.499,0,0,1-6.27784-19.51055c-.00766-.00751,0-.00751,0-.00751-.46132-2.105-.84811-4.21014-1.17532-6.33-2.82677-18.32057-1.15316-37.13929,3.01965-55.20688a12.17576,12.17576,0,0,1-12.29534-8.42022,23.55054,23.55054,0,0,1-.48341-7.95145q.32357-6.35973.66208-12.72706c.20083-3.81569.409-7.69862,1.69578-11.29868,3.51831-9.84829,13.99907-15.21122,22.93952-18.16422.02254.01488.04471.03705.06724.05192a20.07936,20.07936,0,0,1,7.64641,12.2583c.54292,2.89357.46847,5.98782,1.81487,8.61361,1.24978,2.42488,3.54806,4.11337,5.274,6.22592.86262,1.04872,1.57669,2.6034.75112,3.67444-1.22725,1.58428-4.06131.06687-5.68293,1.24211-1.18261.863-1.05623,2.69281-.50558,4.04643a10.34541,10.34541,0,0,0,9.27532,6.29279,3.99606,3.99606,0,0,0,2.73015-.8107,2.88274,2.88274,0,0,0,.69154-2.74465c2.90085,10.19038,11.54422,17.50972,19.61483,24.3676.28258.2381.57275.48364.85533.72918,7.79532,6.6795,15.68,14.30375,17.6213,24.33055,1.04887,5.41508.24546,11.1128,1.75566,16.41638,2.075,7.2672,8.09278,12.59294,12.62983,18.64019C333.90223,332.28052,336.99671,340.94605,332.70474,347.172Z"/><path fill="#fd544d" d="M253.66792 215.72705a15.8752 15.8752 0 01.49341 6.84277 19.31474 19.31474 0 01-2.21338 6.60267 28.02642 28.02642 0 01-4.06665 5.55249 37.48419 37.48419 0 01-5.05176 4.5498c1.21314-1.93091 2.5603-3.72668 3.84033-5.53369a54.6759 54.6759 0 003.52222-5.5235 23.7963 23.7963 0 001.39453-2.90552 24.19086 24.19086 0 001.05054-3.04913A32.83558 32.83558 0 00253.66792 215.72705zM257.85249 258.57849l4.43189-1.035c1.43872-.35706 2.84521-.76514 4.23828-1.21277 1.39062-.45459 2.77075-.94361 4.14624-1.4961l4.20239-1.74829a13.56588 13.56588 0 01-3.48169 3.13257 18.07505 18.07505 0 01-8.88184 2.86316A13.63348 13.63348 0 01257.85249 258.57849zM241.96089 261.75525a6.67391 6.67391 0 011.41992-.99 8.74073 8.74073 0 011.38648-.582 8.47056 8.47056 0 011.46557-.334 6.5548 6.5548 0 011.73193-.01648 3.51088 3.51088 0 01-1.08666 1.45057 4.59655 4.59655 0 01-1.50123.80407 4.6554 4.6554 0 01-1.68945.21472A3.53756 3.53756 0 01241.96089 261.75525z"/><path fill="#fd544d" d="M246.25239 261.11035c1.84741 2.93665 3.76074 5.77173 5.84082 8.47046a82.631 82.631 0 0014.302 14.43872c2.67847 2.10584 5.4939 4.04761 8.41114 5.926a41.83954 41.83954 0 01-9.32227-4.65882 50.35007 50.35007 0 01-14.66186-14.81067A41.97173 41.97173 0 01246.25239 261.11035zM271.68086 266.36731a85.31771 85.31771 0 009.20605 8.63159c3.24878 2.66382 6.59107 5.23657 9.866 7.94629a69.74672 69.74672 0 019.1499 8.96631 32.28232 32.28232 0 016.24878 11.13806 46.16964 46.16964 0 00-7.41894-10.10535 107.30439 107.30439 0 00-9.26123-8.46508c-3.21656-2.7135-6.52906-5.37085-9.61524-8.31629A46.86232 46.86232 0 01271.68086 266.36731zM249.42329 284.92493a29.53867 29.53867 0 011.68189 11.151c-.04395 3.78564-.54029 7.5155-.94483 11.20239a74.9528 74.9528 0 00-.65039 10.99622 29.64514 29.64514 0 002.18945 10.75378 22.195 22.195 0 01-3.74585-10.64062 50.94146 50.94146 0 01.2212-11.33826c.4497-3.72339 1.02124-7.38757 1.37793-11.05664A45.62834 45.62834 0 00249.42329 284.92493zM243.53658 262.05849c-6.414-1.57781-13.86191-1.048-18.68029 3.47-.61611.57766-1.12712 1.70842-.39556 2.13047a1.33377 1.33377 0 00.85726.08242 18.60449 18.60449 0 003.66975-1.07617 74.56239 74.56239 0 0111.41256-3.513c-3.6551 1.48268-4.14312 2.49681-7.184 5.009a18.629 18.629 0 00-6.45361 9.67624 2.70051 2.70051 0 00.26845 2.43946c.87712.98513 2.51332.38025 3.55476-.42919C236.364 275.35681 237.93883 266.95281 243.53658 262.05849zM292.83906 233.56519a22.74407 22.74407 0 006.28638-6.08063l2.71118-3.548c.89111-1.16583 1.90308-2.36981 2.7168-3.48455a3.47125 3.47125 0 00.68677-3.39789 6.68 6.68 0 00-2.41529-3.14563c-2.33594-1.74225-4.85718-3.44208-7.37378-5.01007l.44141-.14923a6.00057 6.00057 0 01-4.18164 3.77508l-.67676.15174.23779-.68378a12.02161 12.02161 0 00.53174-5.78217l1.10547.42365a5.98424 5.98424 0 01-2.52026 1.629 2.58621 2.58621 0 01-1.85694-.1626 2.73519 2.73519 0 01-1.26-1.37225c-.44189-1.03229-.48315-1.93476-.78564-2.49085a1.61654 1.61654 0 00-1.40039-.85431c-1.34937-.19629-2.69531.77075-4.45142 1.57709a9.86763 9.86763 0 01-5.821.65289 23.58161 23.58161 0 01-5.12989-2.04242 16.593 16.593 0 00-4.87353-1.25848 30.89349 30.89349 0 00-10.38525.90558l-.06055-.19055a25.753 25.753 0 0110.54639-2.241 16.7427 16.7427 0 015.47851 1.03253 27.07354 27.07354 0 004.79834 1.73053 8.39319 8.39319 0 004.60693-.54285c.741-.31183 1.53174-.73816 2.437-1.10162a5.91438 5.91438 0 013.11352-.45117 4.05153 4.05153 0 011.62818.5968 3.23677 3.23677 0 011.186 1.39557 24.65389 24.65389 0 01.697 2.61114.942.942 0 001.17261.696 5.175 5.175 0 001.98926-1.10224l1.03637-.84631.06934 1.27a13.55664 13.55664 0 01-1.11963 6.208l-.43872-.53186a4.95552 4.95552 0 003.76221-3.21668l.1272-.34234.31445.193q1.90686 1.17068 3.85058 2.28216c1.3042.74115 2.615 1.40393 3.929 2.22779a7.8749 7.8749 0 013.26245 3.58777 4.82589 4.82589 0 01.29517 2.65734 6.09724 6.09724 0 01-1.0896 2.35608c-1.93824 2.41974-3.8147 4.61151-5.82935 6.8797a18.17628 18.17628 0 01-7.26611 5.37226z"/><path fill="#fd544d" d="M298.778 228.63434a29.58035 29.58035 0 011.81689 3.44195c.53418 1.15369 1.04 2.30616 1.51123 3.47242.47754 1.16357.91529 2.34362 1.33643 3.543a29.11608 29.11608 0 011.09033 3.73682 14.62573 14.62573 0 01-2.49438-3.055 21.72867 21.72867 0 01-2.92017-7.21057A14.73849 14.73849 0 01298.778 228.63434zM305.875 183.71149a23.02812 23.02812 0 012.12891 3.68115 39.59146 39.59146 0 011.60571 3.86645 9.117 9.117 0 001.61084 3.2959 2.69545 2.69545 0 001.44556.76752 2.03875 2.03875 0 001.79321-.42041 2.12079 2.12079 0 01-1.77368 1.40222 3.40145 3.40145 0 01-2.44165-.53192 7.31886 7.31886 0 01-2.5188-3.84564 39.52163 39.52163 0 01-1.18652-4.015A23.02792 23.02792 0 01305.875 183.71149zM322.17646 176.88141a3.84163 3.84163 0 01.67139 1.453 4.65048 4.65048 0 01.10547 1.40827 4.56283 4.56283 0 01-.32251 1.37451 3.79728 3.79728 0 01-.8938 1.3294 3.79722 3.79722 0 01-.67407-1.45318 4.56306 4.56306 0 01-.10278-1.40808 4.65041 4.65041 0 01.32519-1.37427A3.84127 3.84127 0 01322.17646 176.88141zM324.5373 177.39392a3.09885 3.09885 0 01.89942 1.38452 3.92626 3.92626 0 01.18091 1.51038 3.87632 3.87632 0 01-.40381 1.46643 3.07533 3.07533 0 01-1.1001 1.23279 5.31649 5.31649 0 01-.44678-1.51514 6.07566 6.07566 0 01-.04321-1.33508 6.26029 6.26029 0 01.24634-1.31342A5.41385 5.41385 0 01324.5373 177.39392zM301.13813 198.50458a3.16306 3.16306 0 01.87574-.865 2.49176 2.49176 0 01.87182-.3562 2.43271 2.43271 0 01.94092.00506 3.12306 3.12306 0 011.135.48132 2.232 2.232 0 01-1.69849 1.47706 2.247 2.247 0 01-2.125-.74219z"/><path fill="#fd544d" d="M301.91987 200.48987a2.57429 2.57429 0 01.74707-.9845 2.27918 2.27918 0 01.87915-.43256 2.23765 2.23765 0 01.97925-.01489 2.552 2.552 0 011.11255.5423 2.55141 2.55141 0 01-.74658.98718 2.23915 2.23915 0 01-.87988.42993 2.27966 2.27966 0 01-.97974.01221A2.57416 2.57416 0 01301.91987 200.48987zM284.67085 239.24805a7.37516 7.37516 0 012.30566-1.47888 7.23647 7.23647 0 012.69043-.51417 2.62183 2.62183 0 01-.6809 1.49305 3.36923 3.36923 0 01-1.2688.87817 3.40341 3.40341 0 01-1.52515.23352A2.64131 2.64131 0 01284.67085 239.24805zM275.53169 220.41852a2.745 2.745 0 01.51807-1.24463 3.14067 3.14067 0 01.85424-.78607 3.08331 3.08331 0 011.0813-.421 2.71559 2.71559 0 011.34693.088 3.21976 3.21976 0 01-.55347 1.26984 2.9092 2.9092 0 01-.81885.76086 2.96693 2.96693 0 01-1.0459.39575A3.25079 3.25079 0 01275.53169 220.41852zM277.48042 221.9165a2.37424 2.37424 0 01.1958-1.14288 1.86169 1.86169 0 01.54346-.69434 1.82582 1.82582 0 01.80639-.35479.78906.78906 0 11.96314 1.24322 1.82635 1.82635 0 01-.54492.69214 1.8627 1.8627 0 01-.80811.35266A2.373 2.373 0 01277.48042 221.9165zM268.68037 205.14008c-.07886 1.1427-.19238 2.17022-.23926 3.19006-.05835 1.0144-.07373 2.00574-.03491 2.99542.0376.98938.116 1.97522.2417 2.9823.06714.49378.13379 1.03308.21558 1.51721a2.29208 2.29208 0 00.19262.66626.72632.72632 0 00.533.45307.87143.87143 0 01-.917-.053 2.4839 2.4839 0 01-.69971-.65357 8.98793 8.98793 0 01-.83886-1.50647 9.44238 9.44238 0 01-.72559-3.33789 9.327 9.327 0 01.49756-3.376A7.21532 7.21532 0 01268.68037 205.14008zM272.00264 208.11584a8.66036 8.66036 0 012.616-.82086l.35962-.06268.37207.50482a6.08707 6.08707 0 011.16284 3.50568 5.42842 5.42842 0 01-.28222 1.83545 4.12712 4.12712 0 01-.94287 1.60058c-.13282-.62353-.22681-1.17779-.32544-1.71124l-.30908-1.53375c-.21436-.99115-.46094-1.936-.77393-2.91565l.73145.44195A8.6597 8.6597 0 01272.00264 208.11584zM314.49751 257.11694c1.68774 3.91968 4.25977 7.29444 6.78931 10.71057a85.32636 85.32636 0 016.76977 10.88868 86.35172 86.35172 0 015.07788 11.807c1.39649 4.05286 2.51465 8.17066 3.68824 12.244a240.8363 240.8363 0 008.08276 24.04321q4.69263 11.79621 10.47656 23.17481a167.22918 167.22918 0 01-11.91772-22.57568 184.62637 184.62637 0 01-8.5647-24.09766c-1.14014-4.09924-2.24463-8.18555-3.55493-12.18689a96.25586 96.25586 0 00-4.67871-11.71362 99.64827 99.64827 0 00-6.18433-11.03455C318.23726 264.79907 315.76338 261.20728 314.49751 257.11694z"/><path fill="#fd544d" d="M333.29634,353.86914a12.63952,12.63952,0,0,1,5.03882-2.692,16.31162,16.31162,0,0,1,5.79-.35974,20.553,20.553,0,0,0,5.383-.03222,17.0357,17.0357,0,0,0,5.00391-1.74671c3.23218-1.61572,6.11108-3.98974,9.23242-6.13611a45.25616,45.25616,0,0,1,4.85547-2.98608,18.7174,18.7174,0,0,1,5.36572-1.90369c-3.49,1.458-6.37866,3.80909-9.28418,6.13794-1.4397,1.19068-2.885,2.37561-4.397,3.54724a34.96381,34.96381,0,0,1-4.86719,3.12268,18.18857,18.18857,0,0,1-5.62622,1.83179,19.37765,19.37765,0,0,1-5.83984-.28992,17.63764,17.63764,0,0,0-5.4209-.22814A15.076,15.076,0,0,0,333.29634,353.86914Z"/><path fill="#fd544d" d="M361.43525 345.6499a39.41555 39.41555 0 012.65625 4.63635c.79688 1.58826 1.57227 3.18519 2.30689 4.79834 1.49267 3.21668 2.86108 6.48206 4.2207 9.74732l3.93775 9.81482c.16674.39258.344.8081.51928 1.13525.02149.0658.13452.18543.0166.085a.4041.4041 0 00-.11328-.06091.68132.68132 0 00-.31128-.05774.63291.63291 0 00-.34277.12866l.07031-.04406.14063-.08826.56787-.34668 2.28-1.374c1.53638-.89319 3.06909-1.79151 4.6543-2.61573-1.32813 1.1864-2.70874 2.29895-4.0857 3.41638l-2.08984 1.64209-.52466.40735-.13232.10022-.06617.05017a.809.809 0 01-.73584.06958 1.09024 1.09024 0 01-.17968-.11071 1.86663 1.86663 0 01-.37793-.445c-.2815-.43127-.48194-.81812-.69922-1.22217-1.65088-3.19372-3.00611-6.4552-4.37769-9.72632-1.3247-3.28564-2.614-6.582-3.80932-9.91479-.61011-1.66126-1.18555-3.3363-1.76807-5.00794C362.61323 348.99231 362.08467 347.30249 361.43525 345.6499zM275.01558 494.3103c.26977-3.9497.57006-7.892.783-11.84009l.29638-5.92163c.103-1.97314.2063-3.94567.27368-5.92.30567-7.89526.41138-15.79333.38843-23.68188a229.81819 229.81819 0 00-1.27222-23.57471 83.73435 83.73435 0 00-2.08911-11.54822c-.938-3.82251-2.00195-7.62085-3.10132-11.41467-2.12084-7.608-4.38232-15.22132-6.083-22.96436-.83521-3.87561-1.65113-7.74536-2.26978-11.66662l-1.488-11.77466-5.88549-47.09729 6.05859 47.07532 1.53076 11.76428c.80689 3.85669 1.84571 7.68554 2.88159 11.49353 2.05811 7.62951 4.48365 15.13672 6.87622 22.69006 1.144 3.79175 2.25635 7.60071 3.24585 11.45081a85.76759 85.76759 0 012.2605 11.76 195.097 195.097 0 011.12647 23.80163c.00659 7.93286-.384 15.85474-.96241 23.75525q-.40832 5.92731-1.0708 11.83252C276.08735 486.46606 275.60005 490.39563 275.01558 494.3103zM274.70039 364.53455c-.12036 2.47277-.33911 4.89392-.405 7.29187a37.99211 37.99211 0 00.3855 7.0791 23.54824 23.54824 0 002.05444 6.66125 19.15748 19.15748 0 004.23023 5.72595 12.86969 12.86969 0 01-5.58765-4.95581 18.55488 18.55488 0 01-2.67163-7.12072 25.09839 25.09839 0 01.04028-7.52759A31.399 31.399 0 01274.70039 364.53455zM271.41084 333.91919a14.7215 14.7215 0 01-.86768-3.90466 12.60843 12.60843 0 01.26514-4.07044 9.2092 9.2092 0 011.85889-3.75134 5.95031 5.95031 0 013.48266-2.165 12.04162 12.04162 0 00-2.18847 3.03687 15.78953 15.78953 0 00-1.21 3.35046c-.2815 1.16736-.478 2.38013-.65406 3.63647A31.85688 31.85688 0 01271.41084 333.91919z"/><path fill="#fd544d" d="M288.41548,398.08521a24.64658,24.64658,0,0,1,5.97436-.8169,39.43607,39.43607,0,0,1,6.04639.47473c3.99487.65857,7.8794,1.75916,11.738,2.76294,1.93164.49463,3.86377.94409,5.79712,1.332a46.07218,46.07218,0,0,0,5.83789.72071,46.95266,46.95266,0,0,0,11.70971-.79566,52.92422,52.92422,0,0,0,11.25513-3.43982,47.7019,47.7019,0,0,0,5.26636-2.63037c1.68628-1.01636,3.34961-2.08569,4.96411-3.2362a103.06415,103.06415,0,0,0,9.25049-7.52759c1.49023-1.32666,2.92822-2.71228,4.3479-4.11975,1.39746-1.4281,2.78052-2.87427,4.12964-4.35865a88.87837,88.87837,0,0,1-16.7981,17.25953,60.06625,60.06625,0,0,1-4.99048,3.48413,49.61374,49.61374,0,0,1-5.40966,2.8634,53.41658,53.41658,0,0,1-11.64454,3.66931,47.65753,47.65753,0,0,1-12.20678.7157,55.329,55.329,0,0,1-11.92481-2.43872c-3.85522-1.14282-7.63208-2.43079-11.50561-3.30383a38.6904,38.6904,0,0,0-5.876-.90491A29.32994,29.32994,0,0,0,288.41548,398.08521Z"/><path fill="#fd544d" d="M325.988 396.22729a10.20672 10.20672 0 012.43579-.821 16.55867 16.55867 0 012.42065-.32654 16.20355 16.20355 0 012.44214.02893 10.05607 10.05607 0 012.51734.52344 8.15317 8.15317 0 01-2.37476 1.04272 12.05893 12.05893 0 01-2.46362.40064 12.23245 12.23245 0 01-2.49414-.10278A8.2401 8.2401 0 01325.988 396.22729zM291.08491 434.88147c.77515 3.26294 1.62525 6.45605 2.65967 9.58179a84.72041 84.72041 0 008.30273 17.80066c1.72974 2.80114 3.62818 5.50549 5.6272 8.19873A40.99857 40.99857 0 01300.757 463.142a49.63578 49.63578 0 01-8.50879-18.25659A41.13676 41.13676 0 01291.08491 434.88147zM303.13423 449.02039l2.303 4.53515c.76513 1.47925 1.56762 2.92017 2.40185 4.342.84033 1.41809 1.70777 2.82093 2.6294 4.20752l2.84179 4.219a17.28516 17.28516 0 01-4.061-3.24488 23.04742 23.04742 0 01-5.25025-8.93371A17.36977 17.36977 0 01303.13423 449.02039zM344.62959 497.44141a65.95479 65.95479 0 0014.096-6.93323 86.69418 86.69418 0 0012.36792-9.60376q1.42968-1.33758 2.79712-2.7356c.46435-.45739.89477-.94751 1.34741-1.41577l.33594-.35437c.11743-.12536.229-.235.28515-.31335a3.936 3.936 0 00.41113-.689 2.981 2.981 0 00-.11206-2.94018c-.23217-.37342-.7517-.99341-1.13134-1.515-.3899-.55517-.78418-1.10815-1.13941-1.68554a44.20717 44.20717 0 01-5.61108-15.04737A146.7991 146.7991 0 01366.4665 438.416c-.2019-2.62146-.42089-5.23169-.7395-7.82288q-.50135-3.88092-1.21118-7.7522c-1.885-10.29761-4.52075-20.65857-4.68335-31.24023a114.87863 114.87863 0 002.667 15.53454c1.15235 5.12842 2.46826 10.22791 3.55884 15.4021a121.9548 121.9548 0 012.30518 15.715 152.77094 152.77094 0 001.87036 15.57434 43.30928 43.30928 0 005.24292 14.441c.3247.551.68628 1.07629 1.04321 1.60547.38159.55176.72778.93237 1.19312 1.6759a4.87481 4.87481 0 01.65258 2.2992 4.69826 4.69826 0 01-.54687 2.31726 5.5759 5.5759 0 01-.62354.989 5.47256 5.47256 0 01-.3833.41284l-.34936.3562c-.46973.4712-.928.95386-1.41358 1.40845q-1.43224 1.389-2.92895 2.7052C364.154 489.02148 354.8376 494.68628 344.62959 497.44141z"/><path fill="#fd544d" d="M364.85688,420.553a1.77577,1.77577,0,0,0,1.28443.23205,3.44243,3.44243,0,0,0,1.18384-.54626c.738-.4967,1.38745-1.13953,2.17456-1.67627a13.19071,13.19071,0,0,1,5.231-2.12769,1.213,1.213,0,0,0,.43433-.12915c.0415-.04663-.00561-.00036.00391-.05261a3.53342,3.53342,0,0,0-.34864-.97583c-.35351-.83081-.718-1.6571-1.10888-2.47461-.77539-1.6355-1.562-3.27136-2.38477-4.89929a108.51681,108.51681,0,0,1-4.59839-10.0365,42.4093,42.4093,0,0,1-1.59057-5.38843,26.66655,26.66655,0,0,1-.49439-5.65808l.01514-.663.63013-.15625a27.0091,27.0091,0,0,1,4.82348-.66235c1.60327-.103,3.19214-.08765,4.7666-.10083a30.98932,30.98932,0,0,0,9.31324-1.07361,18.45007,18.45007,0,0,1-4.519,1.53808,41.5704,41.5704,0,0,1-4.73828.65467c-1.57983.14379-3.14868.27075-4.69189.448a29.85692,29.85692,0,0,0-4.51636.8678l.645-.819a30.18,30.18,0,0,0,2.21338,10.31445c1.2771,3.35206,2.87329,6.61438,4.39282,9.9452.75562,1.66638,1.52979,3.33435,2.20093,5.05358.34741.8534.66992,1.71949.981,2.59021a3.6503,3.6503,0,0,1,.35156,1.64539,1.36255,1.36255,0,0,1-.72632,1.03894,2.41233,2.41233,0,0,1-.88281.219,13.34827,13.34827,0,0,0-5.01978,1.522c-.76977.42065-1.51514.97607-2.35571,1.40307a3.37417,3.37417,0,0,1-1.36182.40772A1.88416,1.88416,0,0,1,364.85688,420.553Z"/><path fill="#fd544d" d="M367.63838 397.46667a22.536 22.536 0 004.5415.38843c1.4917-.004 2.9812-.11255 4.47046-.24695 1.4917-.1466 2.97779-.30432 4.45874-.55358 1.48389-.24585 2.9895-.58033 4.58081-.7815a15.98715 15.98715 0 01-4.17651 2.28894 18.29338 18.29338 0 01-4.679 1.037 17.33375 17.33375 0 01-4.802-.19617A9.10886 9.10886 0 01367.63838 397.46667zM324.99263 213.69464a137.14725 137.14725 0 01-4.10572 17.53192 80.87588 80.87588 0 01-3.17822 8.47071q-.906 2.07934-1.99682 4.08068c-.34815.6742-.7378 1.32654-1.12427 1.98108-.37793.66834-.80371 1.28577-1.07105 1.87928a2.29388 2.29388 0 00.69776 3.05322 10.11647 10.11647 0 003.783 1.54993 45.2786 45.2786 0 018.72534 2.693 34.76371 34.76371 0 0114.47461 11.156 31.83981 31.83981 0 014.24707 8.20081 58.80972 58.80972 0 012.3247 8.82825 175.311 175.311 0 012.095 17.93737c.498 5.97376.93409 11.97974.90259 18.00086a86.985 86.985 0 01-1.89135 17.90173q.635-4.45239.87719-8.93274c.15088-2.98462.147-5.97229.02759-8.95471-.20166-5.96753-.84424-11.91162-1.47632-17.86658-.66821-5.95581-1.20508-11.91247-2.39917-17.72155-1.16162-5.78626-2.86889-11.55249-6.3208-16.21839a33.22219 33.22219 0 00-13.61157-10.60913 43.4611 43.4611 0 00-8.38355-2.7268 11.291 11.291 0 01-4.41723-1.957 4.064 4.064 0 01-1.4646-2.31884 4.15583 4.15583 0 01.42187-2.671c.37525-.76307.82886-1.36829 1.20044-1.99634.39112-.6261.78638-1.25025 1.14209-1.89929.37134-.63977.73145-1.28626 1.06763-1.9469q.531-.97669 1.00684-1.98352a84.78118 84.78118 0 003.43725-8.23572A161.10866 161.10866 0 00324.99263 213.69464z"/><path fill="#fd544d" d="M335.16255,226.59088a22.0485,22.0485,0,0,0-2.27759,9.60224,32.24451,32.24451,0,0,0,1.16748,9.70117c.44946,1.5321,1.04907,3.12451,1.6604,4.67151.57984,1.57275,1.23316,3.13366,1.78467,4.74829A27.28278,27.28278,0,0,1,339.382,265.3584a47.275,47.275,0,0,0-3.3562-9.45471,76.011,76.011,0,0,1-3.887-9.46314,27.00776,27.00776,0,0,1-.78247-10.36633A17.33708,17.33708,0,0,1,335.16255,226.59088Z"/><path fill="#fd544d" d="M324.99263,213.69464a48.66982,48.66982,0,0,1,7.44262,8.30951,58.6833,58.6833,0,0,1,5.63282,9.66309c.34472.82336.908,1.67724,1.699,1.34387.79273-.33264,1.65357-.79,2.46045-1.21a50.94912,50.94912,0,0,0,4.74268-2.87274,51.7546,51.7546,0,0,0,8.40722-7.18366,52.62638,52.62638,0,0,0,6.66895-8.78369,3.07766,3.07766,0,0,0,.44116-1.0882,1.19052,1.19052,0,0,0-.27148-.91412,8.44484,8.44484,0,0,0-.89991-.939l-1.00537-.96686-4.021-3.86737c-2.69971-2.57538-5.29541-5.21186-8.17115-7.538-2.84863-2.37652-5.78491-4.64294-8.68872-7.00592a.70752.70752,0,0,1,.78467-1.17029l.0188.01044a26.47947,26.47947,0,0,0,8.56616,2.68811,25.41321,25.41321,0,0,0,8.94287-.04944c1.43457-.33728,2.97657-.83423,4.57813-1.06933a8.25763,8.25763,0,0,1,5.04541.54834,5.71423,5.71423,0,0,1,2.05151,1.75378,6.34541,6.34541,0,0,1,1.03491,2.45319,12.35553,12.35553,0,0,1-.21142,4.95892,39.54549,39.54549,0,0,1-1.3855,4.53247l-1.50781,4.39117-3.01538,8.78241-6.03077,17.56476L352.2707,253.601a37.17067,37.17067,0,0,0-2.28784,8.72193c-.29565,2.89795.57276,5.7417,1.656,8.60351,4.42456,11.5509,8.80957,23.15308,12.89477,34.85315,4.08985,11.70056,7.90283,23.50769,11.21192,35.46375a351.40673,351.40673,0,0,1,8.03491,36.32434c1.019,6.11926,1.79785,12.27758,2.40625,18.45056.18481,1.53992.27807,3.08874.38989,4.6355l.32544,4.64062c.20459,3.078.25928,6.19544,1.35352,9.01184a8.22109,8.22109,0,0,0,2.55029,3.57324,9.89241,9.89241,0,0,0,4.09888,1.74964c3.00561.59009,6.09253,1.04382,9.135,1.57251l4.57934.76636c1.52588.25622,3.04859.51123,4.58521.641a17.97582,17.97582,0,0,0,4.60644-.12146,9.45028,9.45028,0,0,0,4.21851-1.78943,9.51222,9.51222,0,0,1-4.19654,1.90588,18.14256,18.14256,0,0,1-4.64526.24121c-1.55176-.09155-3.09228-.30566-4.62207-.537l-4.593-.6792c-3.06616-.47315-6.11548-.86011-9.19507-1.40406a10.53442,10.53442,0,0,1-4.3955-1.7915,8.963,8.963,0,0,1-2.855-3.833c-1.21827-2.98108-1.31812-6.183-1.58521-9.24414-.29687-3.07556-.4602-6.16186-.83423-9.22876-.67749-6.14014-1.52368-12.262-2.60937-18.343a362.6788,362.6788,0,0,0-8.39209-36.08374c-3.342-11.89672-7.18775-23.65161-11.31275-35.30847-4.12255-11.66272-8.53735-23.20947-13.01416-34.76416a32.03871,32.03871,0,0,1-1.43554-4.56152,15.92527,15.92527,0,0,1-.33033-4.91028,38.799,38.799,0,0,1,2.42261-9.18921l6.0979-17.54162,6.09766-17.54163,3.04907-8.77081,1.52442-4.38544a37.962,37.962,0,0,0,1.34814-4.33514,10.72263,10.72263,0,0,0,.22168-4.252,4.15081,4.15081,0,0,0-2.18189-3.03473,6.76362,6.76362,0,0,0-4.03393-.42108c-1.46851.19806-2.89063.63764-4.46948.99591a26.86968,26.86968,0,0,1-9.52515-.02185,27.85163,27.85163,0,0,1-9.03271-2.94678l.80346-1.15979c2.84766,2.36164,5.78369,4.67182,8.62891,7.09046,1.41846,1.2113,2.8435,2.44519,4.17529,3.76422l3.98145,3.91888,3.98144,3.91858.99512.97962a9.09392,9.09392,0,0,1,1.01,1.09155,2.30277,2.30277,0,0,1,.45312,1.70428,4.076,4.076,0,0,1-.59521,1.48377,50.71385,50.71385,0,0,1-6.93994,8.86383,52.55964,52.55964,0,0,1-8.67261,7.13245,51.59416,51.59416,0,0,1-4.8562,2.81762c-.85132.41944-1.64233.83252-2.57153,1.199a1.41833,1.41833,0,0,1-1.53565-.38672,4.18993,4.18993,0,0,1-.75635-1.26843,59.84,59.84,0,0,0-5.41552-9.70411A48.53232,48.53232,0,0,0,324.99263,213.69464Z"/><path fill="#fd544d" d="M365.89229,192.09546a34.595,34.595,0,0,1,11.77734,4.21362,32.742,32.742,0,0,1,5.16089,3.698A11.0703,11.0703,0,0,1,386.394,205.515a12.99051,12.99051,0,0,1-.28857,6.57325,53.99973,53.99973,0,0,1-2.16235,5.96283c-1.56836,3.85766-3.19751,7.68011-4.70288,11.53906-1.54493,3.8435-2.97193,7.72363-4.18775,11.662-.62427,1.96459-1.1604,3.95239-1.65234,5.95031l-.67822,3.0354a10.18924,10.18924,0,0,1-1.19825,3.15308,6.627,6.627,0,0,1-2.58862,2.318,9.748,9.748,0,0,1-3.19238.96765,27.066,27.066,0,0,1-6.35987-.22119,13.15941,13.15941,0,0,0-6.01391.382,7.218,7.218,0,0,0-2.5586,1.58655,4.72166,4.72166,0,0,0-1.42871,2.66247,4.87462,4.87462,0,0,1,1.20777-2.86865,7.562,7.562,0,0,1,2.57715-1.87012,13.85857,13.85857,0,0,1,6.28271-.87036,26.63391,26.63391,0,0,0,6.08472-.09485,6.55634,6.55634,0,0,0,4.65771-2.80493,8.65932,8.65932,0,0,0,.89038-2.694l.60938-3.069c.45556-2.05139.95752-4.09338,1.54736-6.10742,1.18286-4.02759,2.6167-7.96741,4.14331-11.85327,1.5542-3.87671,3.19287-7.70508,4.81763-11.52832a52.55221,52.55221,0,0,0,2.22314-5.71027,11.92129,11.92129,0,0,0,.457-5.74652,9.86374,9.86374,0,0,0-2.94824-4.91607,32.56173,32.56173,0,0,0-4.77637-3.81568A37.0418,37.0418,0,0,0,365.89229,192.09546Z"/><path fill="#fd544d" d="M392.93745,221.81171a18.73924,18.73924,0,0,0-2.72583,6.36645,27.53928,27.53928,0,0,0-.59888,6.91205,59.01964,59.01964,0,0,0,2.4104,13.67334c2.48462,8.95483,6.22583,17.488,10.01148,25.973,3.79956,8.48,7.637,17.00318,10.39331,25.94129a138.33768,138.33768,0,0,1,5.50024,55.42688c-.94775,9.30175-2.96728,18.43371-2.84594,27.62548a38.24954,38.24954,0,0,0,2.4021,13.35206,54.53664,54.53664,0,0,0,2.97851,6.2008,23.60939,23.60939,0,0,1,2.52344,6.74732,22.86034,22.86034,0,0,1,.0835,7.228c-.30689,2.36731-.83594,4.66309-1.345,6.92908-1.01611,4.499-2.01391,9.06116-1.06811,13.38977l-.88843-.74243q9.50025.31055,19.00684-.005,4.74975-.156,9.49194-.47778a10.84227,10.84227,0,0,0,4.23535-.87341,3.13017,3.13017,0,0,0,1.31031-1.21961,4.838,4.838,0,0,0,.50463-1.89209,52.93753,52.93753,0,0,0-.38232-9.309c-.34473-3.14209-.77686-6.31775-.90137-9.56262a29.41684,29.41684,0,0,1,1.07764-9.75452c.97217-3.16015,2.47046-5.99584,3.41968-8.91882,1.92431-5.86145,1.44262-12.28564,2.05688-18.69726.61206-6.43616,2.21631-12.65088,3.54151-18.83851.6687-3.09558,1.26709-6.194,1.64917-9.30932.18457-1.558.29638-3.12378.41015-4.68811.02979-1.5697.14624-3.1377.07935-4.70984a94.50251,94.50251,0,0,0-2.24658-18.73816c-2.59546-12.37866-6.89673-24.3761-10.67725-36.5188-3.84815-12.11194-7.69287-24.23767-12.87207-35.81689-5.18066-11.52381-11.68433-22.65454-20.62549-31.65833a34.184,34.184,0,0,0-7.551-5.66437,24.22208,24.22208,0,0,0-4.3523-1.83142,27.84741,27.84741,0,0,0-4.64331-.93084c-3.1438-.40247-6.3374-.49811-9.47974-1.04651a18.75861,18.75861,0,0,1-4.564-1.37726,11.25241,11.25241,0,0,1-3.79785-2.83179,11.21336,11.21336,0,0,0,3.82739,2.76758,18.6533,18.6533,0,0,0,4.55835,1.30219c3.13623.49975,6.32129.54772,9.4895.90515a28.15323,28.15323,0,0,1,4.70947.87268,24.60443,24.60443,0,0,1,4.4502,1.79522,34.67248,34.67248,0,0,1,7.74268,5.62964c1.167,1.093,2.28027,2.24134,3.35107,3.42633,1.07837,1.17945,2.05347,2.4419,3.07764,3.66626,2.00317,2.4831,3.87133,5.07624,5.62011,7.74561a125.02087,125.02087,0,0,1,9.165,16.78711c5.30957,11.6112,9.269,23.75317,13.21851,35.83313,1.95874,6.04785,4.00073,12.06286,5.93457,18.1344,1.92651,6.06982,3.74,12.19787,5.07593,18.45788a96.2084,96.2084,0,0,1,2.33618,19.06775c.07178,1.60669-.041,3.2157-.06836,4.82385-.11133,1.60462-.22266,3.21338-.40772,4.81177-.3833,3.198-.98462,6.35071-1.64941,9.47058-1.3208,6.23841-2.88355,12.39087-3.45728,18.63587-.29736,3.11438-.31372,6.28552-.50439,9.49255a38.57558,38.57558,0,0,1-1.58521,9.62c-1.01635,3.12927-2.50024,5.96154-3.384,8.89282a27.49669,27.49669,0,0,0-.969,9.11731c.23486,6.23,1.77881,12.50781,1.3081,19.14087a6.75865,6.75865,0,0,1-.75659,2.6709,5.12071,5.12071,0,0,1-2.11865,1.99621,12.55746,12.55746,0,0,1-5.02661,1.08338q-4.7754.30432-9.55835.45495-9.56507.29992-19.13477-.04748a.94422.94422,0,0,1-.88867-.74256,22.05,22.05,0,0,1-.21313-7.24988,66.84358,66.84358,0,0,1,1.32226-6.94738c1.02661-4.50611,2.103-9.05286,1.2854-13.41419-.727-4.36487-3.72119-8.1261-5.37573-12.64355a39.999,39.999,0,0,1-2.48316-13.96521c-.09619-9.47168,1.97071-18.64942,2.99488-27.82447a136.96122,136.96122,0,0,0-4.9978-54.92187c-2.66553-8.87549-6.40845-17.394-10.06519-25.94409-3.66162-8.54334-7.293-17.167-9.655-26.19556a59.29148,59.29148,0,0,1-2.21924-13.77539,27.67592,27.67592,0,0,1,.70435-6.94043A18.78942,18.78942,0,0,1,392.93745,221.81171Z"/><path fill="#fd544d" d="M398.4875 218.78381a25.14068 25.14068 0 019.66284 6.87146 76.29545 76.29545 0 017.1521 9.48413c2.15723 3.29725 4.22485 6.6543 6.11572 10.11182a106.38626 106.38626 0 015.17408 10.62683c-2.24048-3.25036-4.37207-6.54175-6.512-9.82336l-6.44506-9.81287c-2.15284-3.27392-4.27735-6.53845-6.6648-9.574A33.93247 33.93247 0 00398.4875 218.78381zM414.008 284.238a59.36372 59.36372 0 013.08471-8.44971c.59815-1.38318 1.32886-2.7074 2.05835-4.03589a41.16181 41.16181 0 012.52393-3.80395 26.56269 26.56269 0 016.67432-6.286 11.43033 11.43033 0 014.35937-1.72522 5.215 5.215 0 014.39673 1.11279 5.36594 5.36594 0 00-4.17773-.15552 12.16305 12.16305 0 00-3.67872 2.04321A31.91063 31.91063 0 00426.069 265.861a31.55662 31.55662 0 00-2.8042 3.29883 67.69722 67.69722 0 00-4.79 7.34094C416.98774 279.05005 415.58955 281.68066 414.008 284.238zM456.10273 343.76672a6.7323 6.7323 0 012.42969 2.7677 9.06694 9.06694 0 01.27173 7.33765 6.70438 6.70438 0 01-2.2229 2.9375 25.51023 25.51023 0 00.707-3.35693 18.96457 18.96457 0 00.158-3.20508 18.69571 18.69571 0 00-.38965-3.18567A24.95787 24.95787 0 00456.10273 343.76672zM398.4875 267.55188a214.5538 214.5538 0 00-20.64648 7.41443q-2.5232 1.06237-5.02344 2.172l-2.48364 1.12744c-.81031.37561-1.23316.72241-1.375 1.29089a3.95852 3.95852 0 00.21484 2.14026 24.73742 24.73742 0 001.02978 2.44629l2.26123 4.99744 2.21924 5.01611 1.10938 2.50842.55444 1.2544a5.43787 5.43787 0 00.2417.51245c.07056.097-.00586-.005-.09985-.01429-.08008-.00219.01123.01148.16235-.04858.14624-.05273.39331-.16309.59448-.24658l1.26563-.53626 2.53125-1.07226 5.07251-2.12158q10.1466-4.23908 20.44751-8.12183-9.83752 4.95409-19.82813 9.55432l-4.99634 2.29736-2.50317 1.13721-1.25146.56861c-.22.09716-.38745.18261-.66846.29565a2.153 2.153 0 01-1.1792.15454 1.77535 1.77535 0 01-1.16064-.82141 5.44843 5.44843 0 01-.36426-.71973l-.56787-1.25512-1.136-2.51026-2.27051-5.02136-2.22876-5.03992a25.4676 25.4676 0 01-1.07324-2.62988 5.539 5.539 0 01-.18677-3.2616 3.3371 3.3371 0 011.02051-1.57141 5.59936 5.59936 0 011.40674-.83447l2.55127-1.08069c1.69775-.71484 3.41748-1.37512 5.14453-2.01282A128.55068 128.55068 0 01398.4875 267.55188z"/><path fill="#fd544d" d="M376.73726,299.5083c2.22778,4.69373,4.32128,9.43,6.4021,14.16931l6.19458,14.2301a3.98749,3.98749,0,0,0,.323.67042c.10938.11853.00953.02832-.00341.04785a8.07469,8.07469,0,0,0,1.36377-.61975l3.48364-1.719c2.33813-1.11426,4.65942-2.26245,7.01416-3.34338,4.69214-2.19715,9.41626-4.33069,14.229-6.28662-4.44018,2.70044-8.96924,5.22314-13.53027,7.68225-2.27173,1.24731-4.57715,2.42724-6.86548,3.64123l-3.4563,1.77307-.86475.44178a3.10125,3.10125,0,0,1-1.33764.40771,1.8735,1.8735,0,0,1-.98-.24866,2.17247,2.17247,0,0,1-.656-.59838,5.16753,5.16753,0,0,1-.55517-1.05689c-2.03589-4.77038-3.99878-9.57239-5.79981-14.43738C379.88618,309.4021,378.1916,304.49658,376.73726,299.5083Z"/><path fill="#fd544d" d="M390.73286 301.82849a30.85813 30.85813 0 012.3291 3.76685c.69141 1.2821 1.3396 2.57666 1.93726 3.89416.60376 1.3147 1.1521 2.65467 1.66553 4.01758a30.4062 30.4062 0 011.30664 4.2323A20.98708 20.98708 0 01395.26631 314.2a32.65773 32.65773 0 01-2.08716-3.88245 33.03889 33.03889 0 01-1.55273-4.12536A21.14887 21.14887 0 01390.73286 301.82849zM399.3769 300.95972a14.706 14.706 0 011.76221 2.807 23.9242 23.9242 0 011.22412 2.98658 23.50364 23.50364 0 01.81665 3.12255 14.52142 14.52142 0 01.2732 3.30372 14.5086 14.5086 0 01-1.76514-2.80616 23.53912 23.53912 0 01-1.22144-2.98742 23.92311 23.92311 0 01-.814-3.12329A14.703 14.703 0 01399.3769 300.95972zM422.79634 412.21252a49.66522 49.66522 0 017.52392-1.80749 70.57831 70.57831 0 0115.40845-.87293 49.28782 49.28782 0 017.67944.95215c-2.57666.29114-5.12744.452-7.67334.60852l-7.62158.449-7.624.40881C427.9416 412.08118 425.38887 412.20947 422.79634 412.21252zM466.11445 350.61584c1.01953 3.10633 2.05274 6.19336 3.24439 9.219 1.16357 3.03369 2.40747 6.03052 3.76343 8.9729 1.32885 2.95471 2.801 5.839 4.32373 8.6925 1.53466 2.8479 3.18554 5.63038 4.90429 8.36976l.51075.814-.79737.53271q-6.44678 4.30683-13.012 8.43824-3.27723 2.07458-6.59863 4.0863c-2.22632 1.32373-4.42652 2.68665-6.686 3.96436 2.03369-1.60682 4.12647-3.12842 6.19336-4.68921q3.11755-2.31646 6.28125-4.56726 6.31934-4.51245 12.74731-8.8689l-.28686 1.34644c-1.801-2.75159-3.44385-5.605-4.96777-8.5177-1.53589-2.90711-2.88745-5.90809-4.13868-8.94373-1.22412-3.04785-2.31665-6.14624-3.23754-9.29272A92.46907 92.46907 0 01466.11445 350.61584zM398.75068 423.65186a18.72819 18.72819 0 006.98462 4.64929c1.29761.5592 2.64258 1.10473 3.98365 1.74182a14.73176 14.73176 0 013.7976 2.42651c-1.49292-.30066-2.90161-.59948-4.3269-.95825a26.71271 26.71271 0 01-4.25195-1.37671 13.26518 13.26518 0 01-3.88013-2.51306A7.37021 7.37021 0 01398.75068 423.65186zM464.43843 402.56641c1.18213 1.4563 2.30908 2.86413 3.49634 4.20678 1.18652 1.34131 2.42919 2.60791 3.72314 3.81873 1.29883 1.20544 2.64575 2.36023 4.06543 3.45117 1.4209 1.09229 2.90161 2.12122 4.43408 3.20349a17.14605 17.14605 0 01-5.28125-1.89282 22.23062 22.23062 0 01-8.18628-7.64929A17.23056 17.23056 0 01464.43843 402.56641zM471.79243 436.3158a4.14751 4.14751 0 01-.105 1.67273 5.21907 5.21907 0 01-.58911 1.37646 5.126 5.126 0 01-.95557 1.15234 4.10457 4.10457 0 01-1.44409.85315 4.11178 4.11178 0 01.10278-1.67419 5.1179 5.1179 0 01.59156-1.375 5.20964 5.20964 0 01.95776-1.15088A4.14978 4.14978 0 01471.79243 436.3158zM475.17012 435.61743a6.35632 6.35632 0 01-.134 2.12464 9.16776 9.16776 0 01-.64721 1.88293 9.00063 9.00063 0 01-1.03614 1.70007 6.2866 6.2866 0 01-1.55419 1.45606 6.28021 6.28021 0 01.13134-2.12573 8.99687 8.99687 0 01.64991-1.88184 9.15925 9.15925 0 011.03833-1.69885A6.35679 6.35679 0 01475.17012 435.61743zM390.74946 478.88428a13.2815 13.2815 0 012.63623-.56739 24.33561 24.33561 0 012.55176-.16943 23.62714 23.62714 0 012.55542.0957 13.04536 13.04536 0 012.65112.49659 8.07186 8.07186 0 01-2.52832 1.07129 11.625 11.625 0 01-2.65039.33569 11.77316 11.77316 0 01-2.65869-.26465A8.14791 8.14791 0 01390.74946 478.88428zM392.15425 482.53406a4.27494 4.27494 0 011.5647-.67639 5.43245 5.43245 0 011.52514-.11011 5.33123 5.33123 0 011.49512.31824 4.22937 4.22937 0 011.45532.88964 4.22719 4.22719 0 01-1.56494.67908 5.33474 5.33474 0 01-1.5249.10755 5.43742 5.43742 0 01-1.49488-.32093A4.27618 4.27618 0 01392.15425 482.53406zM440.069 462.12329a21.32 21.32 0 011.75977 5.68628c.1687.97217.3147 1.94421.406 2.91809a14.67209 14.67209 0 01.09717 3.15222l.01074-.11877a4.4909 4.4909 0 01-.31152 1.36633 3.21392 3.21392 0 01-.84668 1.17114 4.66729 4.66729 0 01-2.32178 1.0398 20.38225 20.38225 0 01-2.2268.3092 12.36835 12.36835 0 01-2.24121.03089c.71557-.19934 1.40014-.46863 2.09155-.71155.688-.24866 1.37622-.50623 2.0376-.76721a3.26965 3.26965 0 001.49316-1.04187 1.982 1.982 0 00.41138-1.45l.01074-.11914c.02051-.68738-.11694-1.72571-.1814-2.68567-.0813-.969-.11425-1.93933-.15576-2.90638-.03442-.96814-.064-1.934-.06909-2.90954C440.02 464.11279 440.01216 463.13159 440.069 462.12329z"/><path fill="#fd544d" d="M441.341 473.71948l.04443.00159.00561.0011a5.9456 5.9456 0 002.03345-.4624 18.74527 18.74527 0 001.88477-.78736 8.11192 8.11192 0 00.80053-.46081c.25318-.1941.179-.14539.27979-.38831a5.73666 5.73666 0 00.1687-1.72082c-.02515-1.31043-.17334-2.70594-.29663-4.11036a25.53143 25.53143 0 01-.14526-4.33837 22.78669 22.78669 0 011.67236 4.03869 16.21615 16.21615 0 01.769 4.38465 5.86506 5.86506 0 01-.427 2.49414 2.53793 2.53793 0 01-.47485.69177l-.18848.17468-.1604.10779a2.14121 2.14121 0 01-.31128.18079 4.88211 4.88211 0 01-1.15063.4176 9.581 9.581 0 01-2.25611.298 4.03546 4.03546 0 01-2.20874-.49512l.00513.001zM352.74751 200.441a2.94213 2.94213 0 001.85034.61835 5.88437 5.88437 0 001.91382-.31269c.6377-.18536 1.28857-.41974 2.00171-.597a6.16342 6.16342 0 012.29492-.13623 6.29167 6.29167 0 014.0686 2.25909 6.56643 6.56643 0 011.39454 4.5191 12.81774 12.81774 0 01-1.46973 4.145 17.8955 17.8955 0 00-1.021 3.76459c-.5166 2.70081-1.10351 5.39673-1.88745 8.06323-.04077-2.78021.11426-5.531.34155-8.27685a15.82842 15.82842 0 01.80835-4.25348 12.35173 12.35173 0 001.23536-3.5946 4.77321 4.77321 0 00-.89576-3.21228 4.97313 4.97313 0 00-2.84716-1.88318 10.20258 10.20258 0 00-3.83423.16076 6.0926 6.0926 0 01-2.18238-.09991A2.90719 2.90719 0 01352.74751 200.441zM304.94941 105.05951a70.67742 70.67742 0 015.9458 5.98816c1.88135 2.08563 3.64649 4.26868 5.36548 6.48639 1.68946 2.24042 3.3313 4.51745 4.84912 6.881a70.0597 70.0597 0 014.21094 7.31311c-1.92871-2.06879-3.717-4.22308-5.47436-6.39685-1.76734-2.166-3.4668-4.37781-5.17408-6.584-1.67749-2.229-3.36425-4.45032-4.98877-6.72553C308.049 109.75409 306.44014 107.46271 304.94941 105.05951zM315.1186 100.39807c1.698 2.17139 3.22412 4.43958 4.6897 6.74188 1.47632 2.29615 2.85083 4.64972 4.20581 7.01441 1.322 2.383 2.62256 4.77838 3.82129 7.23089 1.21 2.44635 2.35791 4.92762 3.33252 7.50635-1.7002-2.17016-3.227-4.43786-4.69214-6.74042-1.47607-2.29644-2.85058-4.65-4.20337-7.01587-1.32007-2.38427-2.62036-4.7796-3.81885-7.23236C317.24434 105.4563 316.09541 102.97559 315.1186 100.39807zM238.49434 135.26556a65.40759 65.40759 0 016.332 2.3537c2.06982.85785 4.093 1.80548 6.113 2.7594 2.00415.98755 4.00391 1.98352 5.96241 3.07141a64.52411 64.52411 0 015.77807 3.50037 50.88966 50.88966 0 01-6.437-2.08569c-2.09985-.8028-4.14526-1.7262-6.17285-2.68634-2.01123-.99384-4.00586-2.02234-5.9397-3.16889A51.39564 51.39564 0 01238.49434 135.26556zM249.729 128.997a23.49673 23.49673 0 014.10009 2.3714 36.42816 36.42816 0 013.66089 2.93878 35.97909 35.97909 0 013.25391 3.38391 23.26155 23.26155 0 012.72363 3.87555 35.19764 35.19764 0 01-3.81616-2.76111c-1.2041-.97742-2.3772-1.97882-3.511-3.02325-1.13843-1.03931-2.24121-2.11762-3.3208-3.23127A35.72008 35.72008 0 01249.729 128.997zM259.66353 122.88336a29.28245 29.28245 0 012.56567 3.69019q1.14734 1.90055 2.1394 3.86969c.665 1.3125 1.26783 2.65625 1.82813 4.02606a28.92484 28.92484 0 011.42407 4.26337 22.79321 22.79321 0 01-2.80395-3.53388 36.60139 36.60139 0 01-2.23511-3.85846 37.07865 37.07865 0 01-1.75635-4.09863A23.0004 23.0004 0 01259.66353 122.88336zM234.71406 195.97711a5.91258 5.91258 0 011.67383-1.7699 8.23994 8.23994 0 012.10864-1.07824 8.14944 8.14944 0 012.32715-.44025 5.86017 5.86017 0 012.40723.37842 12.105 12.105 0 01-2.05664 1.1546c-.677.30518-1.34864.56775-2.03125.7992-.68238.23211-1.37427.4356-2.09668.60839A12.34334 12.34334 0 01234.71406 195.97711zM233.81855 203.23A5.9766 5.9766 0 01234.841 200.915a8.2879 8.2879 0 011.72168-1.78211 8.19865 8.19865 0 012.168-1.1994 5.92917 5.92917 0 012.50293-.381 14.85481 14.85481 0 01-1.709 1.73853c-.57642.507-1.15381.97772-1.74658 1.42938-.59229.45221-1.19727.887-1.83716 1.31116A15.22211 15.22211 0 01233.81855 203.23zM224.93477 350.3468a7.53257 7.53257 0 012.176.84009 11.24734 11.24734 0 011.80591 1.27 11.03879 11.03879 0 011.52539 1.59546 7.44054 7.44054 0 011.15161 2.02954 7.43884 7.43884 0 01-2.178-.838 11.04826 11.04826 0 01-1.80395-1.272 11.25194 11.25194 0 01-1.52368-1.59753A7.53246 7.53246 0 01224.93477 350.3468zM228.0002 346.32581a7.88676 7.88676 0 012.135 1.07482 11.87986 11.87986 0 011.72778 1.46985 11.665 11.665 0 011.41968 1.76917 7.786 7.786 0 011.00854 2.16809 7.784 7.784 0 01-2.137-1.07288 11.64915 11.64915 0 01-1.72583-1.4718 11.84515 11.84515 0 01-1.41773-1.771A7.8718 7.8718 0 01228.0002 346.32581zM239.20649 386.4248a22.14824 22.14824 0 015.17164 2.923 29.10378 29.10378 0 017.886 8.85168 22.02149 22.02149 0 012.304 5.4762l-3.59522-4.59985c-1.19433-1.50171-2.42749-2.95313-3.68945-4.37842-1.26734-1.42053-2.56812-2.81165-3.92114-4.17249zM259.68989 464.33862a18.0559 18.0559 0 01-.5393 4.23853 27.17659 27.17659 0 01-1.28467 4.03332 26.86882 26.86882 0 01-1.89429 3.7854 17.92612 17.92612 0 01-2.57642 3.40931 31.46377 31.46377 0 011.16285-4.07105c.4541-1.312.93188-2.60413 1.45605-3.87732.51734-1.27588 1.07593-2.5354 1.66821-3.79114A31.98336 31.98336 0 01259.68989 464.33862zM500.4958 344.21814a36.449 36.449 0 013.64941 7.38489 45.99556 45.99556 0 012.84571 16.21875 36.25547 36.25547 0 01-.9231 8.18591c-.1914-2.74268-.3645-5.436-.63574-8.11316-.28418-2.67419-.62183-5.33154-1.10107-7.96545-.44263-2.64051-1.02906-5.2544-1.6709-7.866C502.00508 349.453 501.25068 346.86145 500.4958 344.21814zM519.89326 347.82507a24.63824 24.63824 0 012.07153 7.22388 30.49374 30.49374 0 01-1.70678 14.93091 24.53949 24.53949 0 01-3.65381 6.56775c.82837-2.36231 1.57593-4.684 2.16553-7.03723a55.57874 55.57874 0 001.645-14.34082C520.373 352.74365 520.16841 350.31287 519.89326 347.82507zM413.03047 177.25476a13.23711 13.23711 0 013.2395 1.39758 19.592 19.592 0 012.82471 2.02015 19.36614 19.36614 0 012.42846 2.48236 13.10219 13.10219 0 011.87232 2.99109 21.34537 21.34537 0 01-2.95679-1.85212c-.917-.67059-1.79468-1.37152-2.64575-2.10382-.85156-.73187-1.678-1.49261-2.48022-2.29687A21.7396 21.7396 0 01413.03047 177.25476zM422.7314 173.97314a10.80988 10.80988 0 012.95312 1.86274 15.24906 15.24906 0 014.03369 5.5697 10.71943 10.71943 0 01.844 3.38879 30.25757 30.25757 0 01-2.2063-2.60339c-.67334-.87439-1.32056-1.74695-1.9563-2.62842-.63623-.881-1.26294-1.76861-1.88306-2.6817A31.15939 31.15939 0 01422.7314 173.97314zM449.00605 200.33875a9.75166 9.75166 0 011.51758 2.20379 15.16942 15.16942 0 01.97657 2.37476 14.90089 14.90089 0 01.56689 2.504 9.62792 9.62792 0 01.02075 2.67657 9.637 9.637 0 01-1.52026-2.203 14.90436 14.90436 0 01-.97388-2.37555 15.16726 15.16726 0 01-.56445-2.50488A9.75231 9.75231 0 01449.00605 200.33875zM455.72627 200.84839a11.70061 11.70061 0 011.03955 2.75323 18.6383 18.6383 0 01.47437 2.80512 18.32571 18.32571 0 01.04663 2.8443 11.55535 11.55535 0 01-.52393 2.8966 11.54376 11.54376 0 01-1.04224-2.753 18.32607 18.32607 0 01-.47168-2.80529 18.6379 18.6379 0 01-.04394-2.84455A11.70029 11.70029 0 01455.72627 200.84839zM359.13911 172.5672a11.56632 11.56632 0 012.83228.73437 18.39184 18.39184 0 012.54809 1.22553 18.06933 18.06933 0 012.333 1.59723 11.41617 11.41617 0 012.04565 2.093 11.421 11.421 0 01-2.83374-.73206 18.0674 18.0674 0 01-2.54663-1.22784 18.39071 18.39071 0 01-2.33154-1.59955A11.56209 11.56209 0 01359.13911 172.5672zM363.466 169.59985a6.64778 6.64778 0 012.40234.34174 6.96531 6.96531 0 012.13721 1.14539 5.65482 5.65482 0 011.58593 1.95123 3.63746 3.63746 0 01.31836 2.499 21.374 21.374 0 00-1.59643-1.58234c-.51026-.45868-1.02564-.88025-1.55347-1.30395-.53271-.4259-1.08667-.85755-1.6521-1.33893A9.9223 9.9223 0 01363.466 169.59985zM287.624 257.97119a37.6632 37.6632 0 009.31568-6.782 35.07451 35.07451 0 006.65649-9.18433.938.938 0 011.5918-.14331l.01489.02075c1.90869 2.58631 3.83325 5.16089 5.70362 7.77491l2.81665 3.941a13.13564 13.13564 0 011.26049 2.25708 9.60746 9.60746 0 01.6626 2.57129 11.26263 11.26263 0 01-.64306 5.09961 14.22714 14.22714 0 01-2.48414 4.36206 32.50562 32.50562 0 01-7.44189 6.266 43.80148 43.80148 0 006.52319-6.95032 12.27434 12.27434 0 002.31128-8.54712 8.66746 8.66746 0 00-1.76611-3.96777l-2.83765-3.86963c-1.90967-2.58557-3.76465-5.2107-5.63623-7.824l1.60669-.12256a32.33437 32.33437 0 01-7.44946 9.27857A30.33971 30.33971 0 01287.624 257.97119z"/><path fill="#fd544d" d="M291.32856 256.56567a15.11232 15.11232 0 012.6355 2.08765 24.64133 24.64133 0 012.18921 2.43811 24.248 24.248 0 011.85132 2.70337 14.91844 14.91844 0 011.40088 3.05725 14.92075 14.92075 0 01-2.6377-2.08606 24.23429 24.23429 0 01-2.187-2.4397 24.67086 24.67086 0 01-1.84912-2.70507A15.11857 15.11857 0 01291.32856 256.56567zM294.604 255.44543a40.73771 40.73771 0 013.57934 3.66761q1.67579 1.90483 3.22949 3.89111c1.03955 1.32349 2.03052 2.68494 2.9917 4.07642a40.20954 40.20954 0 012.68506 4.36572 28.036 28.036 0 01-3.88843-3.37183 44.06746 44.06746 0 01-3.36474-3.84033 44.63555 44.63555 0 01-2.90479-4.199A28.31543 28.31543 0 01294.604 255.44543zM296.89644 253.78333a30.4174 30.4174 0 013.67065 3.24292q1.7047 1.72887 3.24194 3.59533c1.02735 1.24207 1.98926 2.53809 2.90039 3.87561a30.07633 30.07633 0 012.46729 4.23194 30.07949 30.07949 0 01-3.6731-3.24109c-1.13525-1.15345-2.22021-2.34839-3.2395-3.59717q-1.537-1.86676-2.89819-3.87756A30.41916 30.41916 0 01296.89644 253.78333zM298.85347 251.2063a31.82984 31.82984 0 013.69922 3.38318q1.71715 1.79736 3.26538 3.72986c1.03491 1.28613 2.00317 2.62536 2.92065 4.00549a31.4888 31.4888 0 012.48218 4.35571 31.4885 31.4885 0 01-3.70142-3.38135c-1.1438-1.199-2.23681-2.43884-3.26318-3.73169q-1.548-1.93268-2.91821-4.00732A31.8493 31.8493 0 01298.85347 251.2063zM301.66841 249.22205a26.11385 26.11385 0 013.13354 2.86291c.96387 1.00952 1.8833 2.04932 2.75269 3.12927.87475 1.07556 1.69507 2.19519 2.47925 3.34973a25.77147 25.77147 0 012.13379 3.66956 20.429 20.429 0 01-3.32691-2.66333 32.69116 32.69116 0 01-2.84228-3.10046 33.131 33.131 0 01-2.42749-3.43506A20.63074 20.63074 0 01301.66841 249.22205zM303.50654 246.76233a20.95236 20.95236 0 013.1062 2.60376 35.83944 35.83944 0 012.675 2.95276 35.25173 35.25173 0 012.3313 3.23059 20.74092 20.74092 0 011.89551 3.58337 20.72732 20.72732 0 01-3.10864-2.6018 35.25511 35.25511 0 01-2.67261-2.95459 35.85721 35.85721 0 01-2.3291-3.23255A20.9569 20.9569 0 01303.50654 246.76233zM317.52581 202.456a69.1166 69.1166 0 016.30945-6.36011.80025.80025 0 01.65635-.28377.70956.70956 0 01.42383.42957 8.24217 8.24217 0 01.51659 2.33666 11.75263 11.75263 0 001.10667 3.45783.89723.89723 0 01.14259.52016c-.05192.33547-.44919.47821-.78236.54352a31.51972 31.51972 0 01-6.9394.3194 1.81505 1.81505 0 01-1.02492-.23483A1.25459 1.25459 0 01317.52581 202.456zM313.0824 172.81669l-1.94355-.199c-.417.77246.10012 1.70872.65732 2.38709a4.69332 4.69332 0 002.97115 1.95076 1.39725 1.39725 0 001.27284-.44176 1.22015 1.22015 0 00.05638-1.20961 3.14059 3.14059 0 00-.80029-.97479 16.30156 16.30156 0 00-1.85763-1.44957C313.14584 172.68355 312.70706 172.51433 313.0824 172.81669zM296.585 187.62312a11.6979 11.6979 0 00-2.16461.31539 3.69231 3.69231 0 00.89333 2.82662 7.7328 7.7328 0 002.41916 1.82959 2.52151 2.52151 0 00.8885.32528.945.945 0 00.85466-.3136 1.18645 1.18645 0 00.17034-.81271 4.40254 4.40254 0 00-.94206-2.303A7.96129 7.96129 0 00296.585 187.62312zM321.93827 283.11665a1.79552 1.79552 0 000 3.5889A1.79552 1.79552 0 00321.93827 283.11665zM329.3018 301.8084a1.79556 1.79556 0 000 3.589A1.79556 1.79556 0 00329.3018 301.8084zM342.04619 333.811a1.7956 1.7956 0 000 3.589A1.7956 1.7956 0 00342.04619 333.811zM357.05628 271.22187a1.79556 1.79556 0 000 3.589A1.79556 1.79556 0 00357.05628 271.22187zM370.93344 306.90615a1.79556 1.79556 0 000 3.589A1.79556 1.79556 0 00370.93344 306.90615zM392.74056 283.68308a1.79556 1.79556 0 000 3.589A1.79556 1.79556 0 00392.74056 283.68308zM384.1027 352.36114a1.79556 1.79556 0 000 3.589A1.79556 1.79556 0 00384.1027 352.36114zM394.86456 392.01033a1.79556 1.79556 0 000 3.589A1.79556 1.79556 0 00394.86456 392.01033zM450.8811 413.6576a1.79556 1.79556 0 000 3.589A1.79556 1.79556 0 00450.8811 413.6576zM450.8811 421.002a1.79556 1.79556 0 000 3.589A1.79556 1.79556 0 00450.8811 421.002zM450.8811 428.43286a1.79557 1.79557 0 000 3.589A1.79557 1.79557 0 00450.8811 428.43286zM358.61385 416.6495a1.79557 1.79557 0 000 3.589A1.79557 1.79557 0 00358.61385 416.6495zM362.01241 446.95286a1.79556 1.79556 0 000 3.589A1.79556 1.79556 0 00362.01241 446.95286zM275.07127 241.4145a1.41391 1.41391 0 11-1.41395-1.41387A1.41393 1.41393 0 01275.07127 241.4145zM381.07034 391.41408c.66639 3.45248-.25127 6.5326-2.04962 6.87974s-3.79643-2.17034-4.46283-5.62282.25134-6.53268 2.0497-6.87975S380.40394 387.96152 381.07034 391.41408zM446.69648 469.208a4.31227 4.31227 0 002.2107.443 2.85185 2.85185 0 001.83886-.88537 5.886 5.886 0 001.11036-1.80286 9.08117 9.08117 0 00.59423-2.06641 8.57485 8.57485 0 00-.03125-2.141l-.22656-2.3418-.36816-4.689c-.19116-3.12976-.35742-6.261-.40747-9.40015-.0625-3.13818-.054-6.28125.15259-9.43738.62426 3.10084 1.0498 6.21485 1.40478 9.3335.36719 3.11792.61841 6.24365.84448 9.371l.25782 4.69641.08642 2.35108a11.84847 11.84847 0 01.00928 1.25366 8.13894 8.13894 0 01-.19385 1.29 9.24937 9.24937 0 01-.95337 2.359 6.79325 6.79325 0 01-1.64746 1.96875 3.511 3.511 0 01-2.48.69165A4.08232 4.08232 0 01446.69648 469.208z"/><path fill="#fec0b7" d="M312.17031,54.30851c-13.17937-3.61173-26.23885-7.78089-39.56677-10.80292a165.348,165.348,0,0,0-23.274-3.68046,32.67625,32.67625,0,1,0,62.84079,14.48338Z"/><path fill="#fd544d" d="M432.96675,463.9325c.80713,3.15625,1.43652,6.337,2.00683,9.5498l.18555,1.21838.07837.62586a3.19878,3.19878,0,0,1,.00366.87134c.02979-.11426.01734-.07752.023-.04737l.00806.11841.02417.28442.05151.62574c.00684.11242.01343.22461.0105.37378a1.3851,1.3851,0,0,1-.04785.36071,1.42669,1.42669,0,0,1-.05933.1681l-.01758.03967-.03515.07947a6.23282,6.23282,0,0,1-.30884.63256,5.08958,5.08958,0,0,1-2.10889,2.08472,9.40658,9.40658,0,0,1-2.62207.85144,9.59216,9.59216,0,0,1-2.77173.244,4.484,4.484,0,0,1-2.906-1.56689,7.40187,7.40187,0,0,1-1.37427-2.61524,15.8762,15.8762,0,0,1-.554-2.603c-.40235-3.28759-.614-6.51208-.84131-9.75891l-.12183-2.43335-.00366-.07043a.395.395,0,0,0,.00806.07763.79633.79633,0,0,0,.24682.45118.78205.78205,0,0,0,.63208.19592.82409.82409,0,0,0,.32422-.1189c.01123-.00488.06689-.05041.03687-.02795l-.065.04871-.13061.09716-.5315.37964a13.4214,13.4214,0,0,1-2.37548,1.34241,6.036,6.036,0,0,1-1.5354.43518,3.17812,3.17812,0,0,1-2.106-.40918,3.08754,3.08754,0,0,1-1.26807-1.76038,4.20415,4.20415,0,0,1-.09692-1.78161,9.48457,9.48457,0,0,1,.88086-2.68408,25.88411,25.88411,0,0,1,2.7102-4.29773,49.35019,49.35019,0,0,1,3.16114-3.80994l.42114-.453.19116-.19947a.21319.21319,0,0,0-.03027.09583.16.16,0,0,0,.00219.04248l.01587-.15991.03247-.33179a5.56854,5.56854,0,0,1,.08765-.65515,13.01061,13.01061,0,0,1,.68067-2.47681c1.1621-3.146,3.08837-5.77221,3.5725-9.01794a11.41077,11.41077,0,0,1-.17138,2.44983,24.197,24.197,0,0,1-.61035,2.38891c-.47535,1.56592-1.0564,3.08179-1.41993,4.60425a13.39306,13.39306,0,0,0-.37841,2.25574,4.294,4.294,0,0,0-.019.55322l-.00073.27454-.00049.14319a1.59484,1.59484,0,0,1-.32837.98046l-.20312.26233-.3606.47608c-.9458,1.28442-1.8938,2.568-2.74267,3.90027a30.21775,30.21775,0,0,0-2.228,4.05249,6.95183,6.95183,0,0,0-.56152,1.93444,1.48935,1.48935,0,0,0,.04321.62415c.07544.20129.14185.218.10181.18091-.03882-.03162.02441.0039.24414-.03113a3.295,3.295,0,0,0,.78686-.24853,10.678,10.678,0,0,0,1.82569-1.078l.45166-.33264.11181-.08594.05567-.043.16235-.11328a2.129,2.129,0,0,1,.88843-.32714,2.16707,2.16707,0,0,1,1.74975.55749,2.125,2.125,0,0,1,.541.78357,2.14677,2.14677,0,0,1,.12744.45459l.02686.22827.00512.08106.1565,2.41564c.175,3.21583.36841,6.4574.66943,9.608a7.80011,7.80011,0,0,0,1.12695,3.86706,1.91919,1.91919,0,0,0,1.22657.7555,7.49587,7.49587,0,0,0,2.05835-.06165,7.348,7.348,0,0,0,2.02954-.47864,3.24823,3.24823,0,0,0,1.39868-1.17456,4.36925,4.36925,0,0,0,.26977-.4342c.085-.21094-.04174.2196.00342.0719.00806-.053.01367-.14331.01709-.23328l.01026-.58777.00537-.32239.00708-.185a1.80919,1.80919,0,0,1,.04736-.34949c-.01611.0918.01-.17969.00488-.34107l-.0144-.58483-.05518-1.19812Z"/></svg>