<svg xmlns="http://www.w3.org/2000/svg" data-name="Layer 1" viewBox="0 0 700 550"><path fill="#e5eef9" d="M212.34707,497.26116c28.48113-24.18857,68.17079-30.82575,105.50225-29.20412,37.3313,1.62163,72.12852,10.6633,109.4599,12.28493,23.81454,1.03437,36.06505,1.19728,60.51208-5.08752,21.13054-5.432,39.57177-22.11825,44.317-43.85874,2.61726-11.99167,4.48436-24.06151,5.96511-36.24579,1.63059-13.41658,11.73343-31.43219,17.9906-41.60312,7.71568-12.54145,19.17736-27.67574,24.32624-41.471,5.42348-14.53114,6.67212-32.03557,4.59381-42.13946-5.65-27.46729-36.847-35.94313-46.16236-62.393-8.61462-24.46055-17.79164-64.1028-39.072-80.924-13.91156-10.99656-30.91639-4.15811-49.76951-14.6137C426.46134,98.94576,400.89758,74.129,367.29719,60.068c-26.8495-11.23584-56.92517-11.54754-83.46358,3.00137-50.807,27.85357-21.47112,44.0739-49.49775,71.09631-9.74844,9.3992-45.01861,30.86353-54.62976,40.40323s-17.44807,22.13931-16.82752,35.6669c.72642,15.83734,12.689,29.22219,14.7454,44.94239,1.72675,13.20037-3.819,26.40051-11.49318,37.279s-17.46487,20.0772-25.85948,30.40976c-24.724,30.43186-35.99994,75.6092-15.85645,109.24863,10.51719,17.56341,27.92129,29.68656,44.80323,41.26574q13.92735,9.55251,27.85447,19.105C202.532,496.231,209.32688,499.82609,212.34707,497.26116Z"/><path fill="#015a9a" d="M359.75276,329.78839c.6864-1.99536,1.47241-3.94513,2.27356-5.888.79065-1.9476,1.65283-3.86252,2.51538-5.77731.884-1.90488,1.7699-3.80893,2.7262-5.68079l1.43774-2.80627c.51245-.92023.99365-1.85474,1.53369-2.76233-.33386,1.002-.72656,1.977-1.088,2.96631l-1.184,2.92239c-.79151,1.94727-1.65332,3.86234-2.517,5.77658-.88525,1.90433-1.77087,3.80853-2.7279,5.68006C361.776,326.09531,360.81416,327.96466,359.75276,329.78839Z"/><path fill="#5f99d7" d="M351.83314,255.965c4.14781,2.66929,6.36132,5.50985,9.59025,9.23861l.18194.4681c2.95836,17.05186-.25533,34.94138,4.37864,51.616-2.7538,8.93565-3.70456,11.47146-7.04734,20.20389s-5.88254,18.01479-5.14254,27.33582a80.15129,80.15129,0,0,0,2.647,13.48616q1.89211,7.37708,3.78423,14.75406l.08772-.53529c1.00653,4.57418,3.44439,8.69324,6.0061,12.61416l.3753.28728a119.91376,119.91376,0,0,0-.17552,21.46068l-.00791-.00187c-1.18653,5.13261-2.16,10.31815-3.31792,15.45913-2.272,10.08679-5.27371,19.36549-5.37913,29.70447L350,471.00294c1.39153-31.16491,5.1948-59.95991,2.33266-91.02449-1.51121-16.40294-4.95171-32.55907-8.38527-48.66973q-10.43563-48.96637-20.87155-97.9329l-.00187-.51349a62.37351,62.37351,0,0,0,4.17558,10.745,84.35419,84.35419,0,0,0,17.34078,22.92306q1.84015,1.76927,3.75467,3.45932a3.19908,3.19908,0,0,0,1.85426,1.00339c1.37914.0601,2.17939-1.53563,2.45906-2.88744a18.20093,18.20093,0,0,0-1.22483-11.08877Z"/><path fill="#98bce5" d="M232.31661 334.86786s4.98934.88274 6.44523-.99832 7.87858-6.80366 7.87858-6.80366l-2.46712 15.89788-1.14413 13.82369-3.15815.43234s-2.06725 1.42909-1.95094-1.95438 1.08933-4.8298-1.49605-8.13958-3.09925-3.77922-3.9281-5.09566-2.28055-.79293-2.2091-2.79972S232.31661 334.86786 232.31661 334.86786zM246.4976 432.12526c-.446-.32961.6266-4.48526-.0171-5.74943-2.18126-1.42513-4.48861-2.7921-5.69074-5.00248-1.26029-2.32669-1.0567-5.19637-2.10377-7.62967-1.69659-3.92638-6.35-6.03014-7.83326-10.04371-.80466-2.20068-.52357-4.61464-.66893-6.951-.14543-2.32677-.95009-4.9055-3.04415-5.95257-2.10377-1.0567-4.62434-.15514-6.97045-.31991-4.44987-.30057-7.63945-4.285-10.131-7.9884q-2.77748-4.14448-5.38048-8.415c-1.2797-2.10377-2.52065-4.21716-3.74219-6.35968l-8.87443-17.03879 3.84485 81.169L210.08674 498.097a4.33563 4.33563 0 00.62048-.07757 3.53523 3.53523 0 00.57195-.15506 2.79019 2.79019 0 00.572-.26182 2.18988 2.18988 0 00.25211-.15507c.07757-.05815.16477-.11631.24234-.18418.50416-.42659 1.00825-.85318 1.522-1.26036.28116-.23263.56232-.46534.85318-.68826.59136-.47505 1.173-.93076 1.76445-1.38639.95972-.73679 1.93892-1.45417 2.92776-2.15222.63018-.44593 1.27-.89193 1.90988-1.31844.14536-.10669.28109-.2036.43622-.30057q.98885-.6689 2.00679-1.30875c.87252-.56231 1.75474-1.10522 2.64667-1.63842.75613-.45564 1.51234-.89193 2.28795-1.32816 2.42367-1.38631 4.9055-2.666 7.43579-3.86814a1.80692 1.80692 0 01.19388-.097c.82407-.38777 1.65776-.76591 2.50124-1.144l.00971-.00971q1.94855-.85791 3.9263-1.65776c.65929-.27145 1.31852-.5235 1.98745-.78532.65922-.26175 1.32815-.51379 1.99708-.75613.89193-.32 1.78378-.63988 2.68542-.95009s1.8032-.61077 2.71454-.90163l-2.68871-22.36776-3.846-5.68164-.81585-4.14362z"/><path fill="#d5e3f4" d="M307.79306 208.77954s-16.68963 25.84828 15.75925 60.26295c0 0-10.52406-9.90589-14.2243-11.47817s-9.83362-8.13652-9.83362-8.13652-13.1785-14.05908-21.671-12.70532-8.5723 2.34857-8.5723 2.34857S294.709 210.7381 307.79306 208.77954zM273.527 395.83259l-3.26544-6.28682c-12.47716-30.30553-3.16039-81.77461-3.00518-82.66646a16.4502 16.4502 0 01-3.70367 4.44024q-8.08537 7.51817-16.17038 15.0556a141.77694 141.77694 0 00-4.35312 30.4123 10.39787 10.39787 0 018.18221 7.6393 15.89233 15.89233 0 01.107 6.9541l-.18978 1.05841 3.2028 1.84971s6.08837 3.83522 7.11774 5.07221l3.56212 9.52321C266.36531 387.0346 274.50586 398.21744 273.527 395.83259z"/><path fill="#98bce5" d="M513.62942,227.84887,521,422.11955c-3.58721-1.00832-29.871-21.10441-33.55507-21.32733-4.78912-.30065-5.20615-1.19265-9.51051.12587l-15.05314-40.88492-12.89294-132.1843Z"/><path fill="#b3ceec" d="M518.79077 411.2511l-7.16732-2.96494a53.418 53.418 0 00-13.19432-5.61325 52.52142 52.52142 0 00-10.98417-1.88069 39.02261 39.02261 0 00-13.81488 1.44446c-.68826.2133-1.36712.44593-2.036.70768a28.17351 28.17351 0 00-10.6447 6.8445 16.65234 16.65234 0 00-4.64383 11.54626c.03882 1.03744.15529 2.20075-.50416 3.00548a4.31166 4.31166 0 01-1.37653.95c-5.32239 2.81137-8.3375 4.508-9.3553 10.44119-1.00824 5.933.04831 8.22111.99862 14.16383 0 0-3.10791-2.00545-4.5903-3.143a17.51036 17.51036 0 00-13.994-2.83877 28.45084 28.45084 0 00-12.86845 6.80232c-9.4743 8.28688-12.71644 18.26818-14.19331 27.33157 8.86151 1.06036 17.79829 1.89943 26.88706 2.29422 23.81469 1.0343 36.065 1.19742 60.51215-5.0876 21.13039-5.43191 39.57185-22.11832 44.31691-43.85866.04734-.21628.09-.43309.13655-.64944zM268.86 471.404c-.534-5.70605-5.6246-13.47242-9.07548-15.50534-5.065-2.98367-11.70461-2.38246-16.8435.47221-1.21728.67617-2.55484 1.49964-3.90181 1.14674a4.83426 4.83426 0 01-1.81514-1.12024c-3.516-2.98576-7.04712-6.18273-11.4177-7.65774-4.37066-1.47478-12.35928 3.04311-12.35928 3.04311a59.794 59.794 0 00-3.50345-11.42346c-1.86583-4.4374-4.34154-8.73489-7.99668-11.868-3.65492-3.13277-8.64023-4.96993-13.35835-4.01417-2.82652.57255-5.39883 2.08734-8.23267 2.62345-6.92021 1.30934-14.2994-3.357-20.87432-.83175-4.82509 1.85307-8.43216 9.01538-10.61536 13.70035 0 0-.45183 9.56329-.20732 18.51171 6.60067 5.28282 13.62054 10.14129 20.55926 14.90039q13.92746 9.55273 27.85439 19.105c5.45946 3.74466 12.25424 7.33993 15.27457 4.77493 16.07878-13.65563 35.73066-21.71525 56.51314-25.85485z"/><path fill="#d5e3f4" d="M243.30048,478.8807c-.63078-1.57922-1.87449-4.39246-3.4137-5.11507-1.519-.71312-3.3224-.22412-4.97068-.53842-1.84635-.352-3.33964-1.67053-5.04258-2.46586-4.88474-2.28137-10.6002-.02292-15.40992,2.41233a2.32116,2.32116,0,0,1-2.10437.311c-.79435-.4457-.75956-1.56474-.88969-2.466-.298-2.06346-1.94414-3.6765-3.70441-4.79337a48.91036,48.91036,0,0,1-5.334-3.24834c-1.20236-.99973-2.16469-2.2748-3.4305-3.19286-3.45044-2.50274-8.30084-1.78887-12.20923-.0878a5.74815,5.74815,0,0,1-2.6192.71454c-1.84522-.13-2.93537-2.03149-4.18886-3.39175a10.30012,10.30012,0,0,0-9.01516-2.86437l-.24876-.049c-.76539-4.71244-5.38391-9.39479-10.14577-9.73941-2.13042-.15432-4.36947.3155-6.348-.489-1.58437-.64377-2.74081-2.00515-4.06695-3.08469a13.40558,13.40558,0,0,0-10.01676-2.86579c-3.537.44757-6.45427,1.31882-8.57349,4.18222,10.37325,12.42864,24.1723,22.02814,37.64965,31.2722q13.92746,9.55273,27.85439,19.105c5.45946,3.74466,12.25424,7.33993,15.27457,4.77493a111.30437,111.30437,0,0,1,30.9505-18.3671Z"/><path fill="#98bce5" d="M243.0229,221.54735V252.2311c-.17447.19381-.34887.3974-.52357.60092-3.79057,4.48877-6.64068,10.43148-9.9271,14.94936a51.89067,51.89067,0,0,0-12.68068,11.934c-5.79743,7.70724-9.33611,16.78153-15.47271,23.90719a35.57831,35.57831,0,0,1-4.01372,4.0038,46.50765,46.50765,0,0,0-4.9344,3.12164,30.13279,30.13279,0,0,0-4.47906,3.98461l-.17447-11.62384-1.00825-67.91121Z"/><polygon fill="#b3ceec" points="432.383 188.346 472.427 188.346 469.808 307.631 416.418 276.164 432.383 188.346"/><polygon fill="#b3ceec" points="344.613 99.1 398.289 99.1 399.655 200.368 346.265 168.901 344.613 99.1"/><polygon fill="#d5e3f4" points="399.017 139.806 452.694 139.806 454.06 241.074 400.67 209.607 399.017 139.806"/><path fill="#98bce5" d="M323.07181,172.42453v34.53226a37.73191,37.73191,0,0,0-15.27882,1.82275,55.39065,55.39065,0,0,0-13.63077,6.92185V174.412Z"/><path fill="#b3ceec" d="M294.16222,134.78v80.92135a98.47188,98.47188,0,0,0-9.48117,7.40689,117.50743,117.50743,0,0,0-12.72921,12.79693c-2.08428,2.4722-4.10085,5.09939-6.85421,6.796-4.9055,3.01511-11.27474,2.53043-16.45177,5.08a19.5381,19.5381,0,0,0-6.14653,5.05086l-.54276-36.49059-1.00824-67.91121Z"/><path fill="#0078c8" d="M283.83376,63.06929c-2.18626,1.19863-4.214,2.374-6.11413,3.53114A36.80547,36.80547,0,0,0,345.402,53.51974C324.75817,49.71879,303.341,52.37509,283.83376,63.06929Z"/><path fill="#d5e3f4" d="M532.13821,431.39571c2.61726-11.99167,4.48451-24.06151,5.96519-36.24587,1.14838-9.45,6.49944-21.17159,11.75008-30.83642l-.44025-.25443a39.06058,39.06058,0,0,0-4.3626.33939c-7.814.97913-16.91718,4.08144-22.26861,8.78342a34.35108,34.35108,0,0,0-3.19929,3.19929,35.113,35.113,0,0,0-3.82939,5.18651,36.6359,36.6359,0,0,0-4.96351,13.56283,29.55377,29.55377,0,0,0,.83362,13.15573,22.18309,22.18309,0,0,0,.9306,2.46249v.00971c.09706.22293.20359.44593.31035.66885a17.3332,17.3332,0,0,0,11.9536,9.59764s-9.45661.1411-11.99384,9.6646A18.31094,18.31094,0,0,0,495.68405,451.138c-5.77966-1.25708-12.1368,3.27379-12.83455,9.14745-6.35318-1.68852-14.08476,1.43835-16.98086,7.33985-2.22344,4.53087-2.69557,5.679-2.67975,12.25275l.07436.128a176.5288,176.5288,0,0,0,24.558-4.75171C508.95169,469.82246,527.39315,453.13605,532.13821,431.39571Z"/><path fill="#015a9a" d="M390.0612 287.1955a1.28544 1.28544 0 111.2855 1.28538A1.28537 1.28537 0 01390.0612 287.1955zM320.97761 220.29013a43.09516 43.09516 0 005.11377-2.73 20.86609 20.86609 0 004.314-3.43674 38.98764 38.98764 0 003.21154-4.60885c1.00928-1.63721 1.98328-3.337 3.14014-4.96677a28.95045 28.95045 0 01-1.753 5.68216 20.13849 20.13849 0 01-3.11145 5.22986 14.78788 14.78788 0 01-5.07861 3.47693A15.01516 15.01516 0 01320.97761 220.29013z"/><path fill="#015a9a" d="M321.01986,220.28841q-.094-2.28037.02359-4.56649c.1797-3.4311,1.16212-6.6424,4.07494-8.41469l.8941.07734a25.69337,25.69337,0,0,1,8.062,2.94113l-.265.49042a27.94474,27.94474,0,0,1-2.16177,3.37637c-2.19732,2.91119-7.10058,5.34755-10.67017,6.09763Z"/><path fill="#d5e3f4" d="M233.548,335.023c-.67885.65915-1.40594,1.493-2.10414,2.21038l.8729-2.36544C232.72386,334.93565,233.14045,334.98417,233.548,335.023Z"/><path fill="#015a9a" d="M230.15938 339.27148l1.83105-4.96386.40771.06738c.396.06543.80127.1123 1.19776.15039l1.07617.10352-.77588.75293c-.395.38476-.80713.82812-1.22021 1.27343-.29248.31543-.58545.63086-.87354.92676zM184.6103 455.0802a33.073 33.073 0 01-1.87024-22.23584 32.07543 32.07543 0 003.65088 21.325 1.00108 1.00108 0 11-1.7384.99329C184.63777 455.1369 184.62251 455.10663 184.6103 455.0802z"/><path fill="#015a9a" d="M192.26179 435.31866a41.07547 41.07547 0 00-5.68823 8.71155 16.29273 16.29273 0 00-1.30042 4.949 11.24787 11.24787 0 00.59852 4.96332l-.9452.32641a12.12142 12.12142 0 01-.39831-5.37567 16.90928 16.90928 0 011.59143-5.07257A41.29381 41.29381 0 01192.26179 435.31866zM172.14009 442.11859a15.70689 15.70689 0 0111.33081 5.74109l-.79956.60065A15.20893 15.20893 0 00172.14009 442.11859zM190.70881 470.17419a51.09713 51.09713 0 018.59595 19.153 1.00117 1.00117 0 11-1.95544.43085c-.00684-.031-.01245-.06543-.01636-.09632A50.09836 50.09836 0 00190.70881 470.17419z"/><path fill="#015a9a" d="M187.01338 475.306a12.21319 12.21319 0 019.31262 5.85223l-.88013.47486A11.7156 11.7156 0 00187.01338 475.306zM204.47322 478.07562a26.92888 26.92888 0 00-4.01184 3.592 8.2228 8.2228 0 00-2.17737 4.6092l-.99072-.13575a8.96953 8.96953 0 012.80529-4.81744A27.15741 27.15741 0 01204.47322 478.07562zM229.1573 458.32935a15.81831 15.81831 0 013.51172 11.3601c-.551-1.95764-1.00952-3.85351-1.60266-5.72741C230.50068 462.07965 229.80891 460.25537 229.1573 458.32935zM156.59114 461.561a11.98535 11.98535 0 01-2.42871-12.695 23.85075 23.85075 0 002.42871 12.695zM265.0113 388.04306a18.83987 18.83987 0 012.5022 1.69647c.76563.60233 1.49439 1.22388 2.20349 1.86731.7096.643 1.3971 1.30957 2.06934 2.01465a18.47228 18.47228 0 011.92419 2.33243 9.395 9.395 0 01-2.88623-1.08838 13.4257 13.4257 0 01-2.45251-1.77948 13.57691 13.57691 0 01-2.00171-2.27475A9.48114 9.48114 0 01265.0113 388.04306zM251.52144 434.80515c1.37561-.78156 2.70044-1.4907 3.98584-2.24717 1.28393-.75583 2.51831-1.557 3.7246-2.39734 1.20191-.84628 2.38013-1.72775 3.53077-2.67379 1.15222-.94669 2.27465-1.9455 3.48413-2.96656a13.35373 13.35373 0 01-2.38 4.06968 17.71439 17.71439 0 01-7.7063 5.37887A13.41871 13.41871 0 01251.52144 434.80515zM249.69148 454.10577a18.93744 18.93744 0 00-4.44556-5.69067 4.98083 4.98083 0 01-1.61279-3.951 4.27041 4.27041 0 01.21155-1.12292l.28283-.87061c.1753-.55987.3202-1.13721.45618-1.71637.29773-1.15423.52344-2.33563.71411-3.51971a32.534 32.534 0 00.42322-3.55252 68.63588 68.63588 0 01.76245-7.3906 68.63893 68.63893 0 01.79822 7.38684 26.58127 26.58127 0 01-.7561 7.54962c-.161.61567-.33167 1.22962-.53968 1.84028l-.30993.87872a3.53216 3.53216 0 00-.16162.68139 3.16443 3.16443 0 00.13256 1.42029 4.04276 4.04276 0 00.76148 1.33411C247.93782 449.28076 249.49922 451.56555 249.69148 454.10577z"/><path fill="#015a9a" d="M279.14009 390.50677a10.55693 10.55693 0 00-4.65015 4.61716 20.77566 20.77566 0 00-2.01 6.25992c-.74206 4.41769-1.28308 8.91119-1.6 13.39188-.36963 4.491-.40064 8.97244-.443 13.52124a53.46966 53.46966 0 01-1.46606 13.5914 97.97487 97.97487 0 00-.09436-13.562c-.13684-2.2634-.207-4.54355-.23413-6.83463.00244-2.28909.09045-4.57819.24414-6.86282a87.35889 87.35889 0 012.07409-13.57514 19.51045 19.51045 0 012.69959-6.44528A9.96761 9.96761 0 01279.14009 390.50677zM283.54084 237.73654a10.10343 10.10343 0 00.94434 7.59 16.49836 16.49836 0 005.19836 5.69253 77.37065 77.37065 0 006.70472 4.15546c2.29614 1.34885 4.53759 2.79559 6.73071 4.3186a75.28136 75.28136 0 0112.17212 10.45148 68.81108 68.81108 0 019.34827 13.08313 128.34073 128.34073 0 016.7467 14.50952c1.93506 4.96 3.80225 9.895 5.67273 14.85813 3.74805 9.90908 7.40149 19.87732 10.47839 30.02658-3.81079-9.89218-7.93933-19.64112-11.93078-29.4553-4.10938-9.76986-7.57727-19.81765-12.71253-28.96511a68.35031 68.35031 0 00-8.99719-12.7836A78.89585 78.89585 0 00302.211 260.75522c-2.10925-1.56787-4.29272-3.03934-6.50622-4.46948a75.12778 75.12778 0 01-6.61646-4.49485 17.24508 17.24508 0 01-5.07751-6.23446A9.99587 9.99587 0 01283.54084 237.73654zM272.36189 294.19931a104.41416 104.41416 0 0111.15063-.51529c3.72156-.0032 7.44153.18866 11.15186.49164 3.707.34109 7.40417.79581 11.06921 1.44232a103.63182 103.63182 0 0110.89283 2.43982c-3.72474-.20575-7.41407-.55222-11.0979-.89264-3.68494-.32837-7.3584-.69458-11.03772-.99823-3.67615-.34-7.35767-.61487-11.04383-.92959C279.75984 294.93466 276.06611 294.63864 272.36189 294.19931zM253.95637 446.53485q11.18646 3.8433 22.51355 7.0708c7.56311 2.11646 15.18555 3.99768 22.86878 5.589q5.75737 1.21774 11.56311 2.19373c3.86377.6889 7.7489 1.2478 11.63708 1.79822 3.89221.50244 7.79273 1.0653 11.691 1.34442a39.06932 39.06932 0 0011.69068-.63007 35.94351 35.94351 0 01-11.729 1.60974c-3.97278-.04883-7.90271-.40295-11.835-.774a223.58733 223.58733 0 01-23.42541-3.58514 227.81732 227.81732 0 01-22.91077-6.05756A201.20329 201.20329 0 01253.95637 446.53485zM380.6999 343.631c.68848 1.2262 1.23706 2.39844 1.87952 3.5448.61841 1.15955 1.30688 2.25476 1.964 3.49875a8.20655 8.20655 0 01-3.84351-7.04355zM376.20552 357.50394c.56787.88095.9624 1.69619 1.4198 2.50619.43432.82257.90466 1.59574 1.3352 2.55228a4.83541 4.83541 0 01-2.755-5.05847z"/><path fill="#015a9a" d="M286.12837 294.49747c.05151 4.8905-.09375 9.76635-.30823 14.63708-.04931 1.218-.10181 2.43576-.17456 3.652-.03064 1.14966-.26074 2.70178.05884 3.02322a2.88836 2.88836 0 001.08935.69953l1.6427.78207 3.30433 1.52252c2.19787 1.02619 4.41748 2.00476 6.64392 2.96851 2.21484.95422 4.47729 1.9827 6.66845 2.74661a10.45069 10.45069 0 006.78028-.00628 36.14922 36.14922 0 006.53552-3.09729 27.3349 27.3349 0 01-6.1947 4.01828 12.17636 12.17636 0 01-3.698.95913 11.233 11.233 0 01-3.85169-.37314 31.46874 31.46874 0 01-3.54565-1.17868l-3.4248-1.32147c-2.26831-.91913-4.51453-1.89276-6.7461-2.89862l-3.31482-1.57889-1.64709-.81015a4.151 4.151 0 01-1.83252-1.4147 3.68961 3.68961 0 01-.38147-2.347l.17041-1.82312c.10791-1.21365.236-2.42581.36719-3.63772C284.77754 304.17041 285.35457 299.32663 286.12837 294.49747zM365.536 232.59671a17.85579 17.85579 0 013.60242 5.42661c.871 1.9634 1.56946 3.92038 2.99963 4.93133a3.14427 3.14427 0 002.24219.7496 6.19132 6.19132 0 002.48364-1.16711 8.05368 8.05368 0 016.459-1.12573 10.23913 10.23913 0 00-5.55 2.39441 6.7937 6.7937 0 01-3.11633 1.77194 4.95421 4.95421 0 01-3.72217-1.02734 7.45891 7.45891 0 01-2.19788-2.87049 22.21016 22.21016 0 01-1.058-3.12228A52.28353 52.28353 0 00365.536 232.59671z"/><path fill="#015a9a" d="M348.60688 261.32382a35.74907 35.74907 0 013.386-6.85861 46.38035 46.38035 0 0110.10669-11.46039 35.55183 35.55183 0 016.385-4.21225l-5.333 5.365c-1.7351 1.79892-3.44873 3.60343-5.08178 5.48069-1.66089 1.85269-3.2378 3.778-4.80689 5.72363zM376.32966 244.00626a1.38912 1.38912 0 00-.64795.88406 3.0116 3.0116 0 00-.04333 1.02521l.28918 2.32226c.09742.78754.19446 1.58976.21558 2.42383a3.64775 3.64775 0 01-.61328 2.5257 8.66408 8.66408 0 00-.54114-2.3324 13.24752 13.24752 0 01-.54907-2.431 8.57156 8.57156 0 01.03491-2.5802 2.75814 2.75814 0 01.57788-1.32843A1.37449 1.37449 0 01376.32966 244.00626z"/><path fill="#015a9a" d="M378.25227 251.677a9.45432 9.45432 0 01-2.5625 1.902 11.54009 11.54009 0 00-2.46289 1.72647 3.134 3.134 0 00-1.03845 2.34772 7.016 7.016 0 00.838 2.68158l.19019.40182-.27613.37659a1.44105 1.44105 0 01-.61267.47122 1.86245 1.86245 0 01-.59375.12064c-.32995.01333-.56616-.01523-.74585-.012-.18408.00006-.25976.03125-.25073.03994a.37288.37288 0 00-.08081.1409 1.14517 1.14517 0 00.04748.77967c.10755.35324.3418.7947.47815 1.351a6.45315 6.45315 0 01.006 3.17807 22.47706 22.47706 0 01-.86768 2.75812 8.95405 8.95405 0 00-.76172 5.03488 11.35276 11.35276 0 002.29212 4.75271c2.238 2.907 5.54943 4.83149 8.15564 7.58976a13.93448 13.93448 0 013.09741 4.83084 21.7183 21.7183 0 011.28283 5.59506c.1908 1.89926.33142 3.74.35035 5.645l-.04847 5.59415c-.01013 3.71954-.12732 7.48458-.25329 11.165a16.19246 16.19246 0 00.58264 5.21927 32.43192 32.43192 0 002.12964 4.99167c1.631 3.32337 3.44739 6.56015 5.333 9.77982l-.16394.11462a77.5579 77.5579 0 01-6.44837-9.194 29.53483 29.53483 0 01-2.58276-5.12076 16.68767 16.68767 0 01-.90125-5.79907c.01026-3.76654.11048-7.447.27295-11.17371l.22656-5.575c.02112-1.81714.017-3.70248-.07324-5.51581a23.61829 23.61829 0 00-.798-5.35156 12.61919 12.61919 0 00-2.55664-4.70981c-2.38489-2.80047-5.66358-4.72326-8.243-7.54727a12.34011 12.34011 0 01-2.96106-4.98837 8.32233 8.32233 0 01-.26282-3.03507 14.06642 14.06642 0 01.67529-2.86532c.57764-1.776 1.20838-3.46262.82581-4.92954-.066-.3554-.26526-.75082-.42737-1.28866a2.74067 2.74067 0 01.05481-1.95124 1.90778 1.90778 0 01.80786-.90356 2.03255 2.03255 0 011.10242-.22021c.28564.015.51306.04711.64892.04641.16077-.00863.06043-.0072.02991.05838l-.08582.77808a7.76535 7.76535 0 01-.76562-3.33716 3.88307 3.88307 0 01.50708-1.77646 4.88526 4.88526 0 011.15784-1.33252 10.58333 10.58333 0 012.871-1.54635 11.16482 11.16482 0 002.72192-1.44168zM396.87458 335.53635a138.03375 138.03375 0 00-23.43371 42.93591 136.289 136.289 0 00-5.61707 23.85 141.39946 141.39946 0 00-1.30493 24.57217 104.86757 104.86757 0 01-.24389-24.76413 116.11756 116.11756 0 0115.58618-46.89877A105.03675 105.03675 0 01396.87458 335.53635z"/><path fill="#015a9a" d="M399.59761 356.27014c-6.20423 8.35077-10.61768 17.74707-15.0542 27.1005-4.408 9.387-8.95764 18.69806-12.49866 28.37823-.88843 2.417-1.7168 4.85385-2.46741 7.31317-.77343 2.451-1.31738 4.97519-1.9956 7.45865l-3.447 15.16193c-2.34693 10.12848-5.85437 19.95068-6.3208 30.37359a71.47722 71.47722 0 011.49963-15.50909c.9967-5.112 2.26575-10.14191 3.29871-15.20789q1.51208-7.63842 3.12622-15.25317l.943-3.80142c.30029-1.27039.65051-2.52964 1.02393-3.78385q1.12389-3.75814 2.46325-7.44137c3.62976-9.80268 8.28614-19.12815 12.9784-28.37241C387.816 373.44785 392.77815 364.14365 399.59761 356.27014zM383.35713 301.89749c-.51672 9.0307-1.16809 18.12561-3.4043 27.005a71.08839 71.08839 0 01-4.57068 12.9252c-1.902 4.1456-4.02539 8.13794-5.82531 12.24362a125.956 125.956 0 00-8.26612 25.58313c-.85962 4.36987-1.33288 8.87476-.39087 13.2214.88758 4.37024 3.14356 8.37479 5.41932 12.27066a38.66534 38.66534 0 01-6.3722-12.03994 32.29865 32.29865 0 01-.19177-13.73136 111.62494 111.62494 0 017.97571-26.11712c1.87243-4.17066 4.00952-8.17435 5.94031-12.22937a75.96315 75.96315 0 004.77978-12.52829C380.89937 319.86237 382.07307 310.85938 383.35713 301.89749z"/><path fill="#015a9a" d="M368.5373 391.37076c-1.23889-2.267-2.36169-4.52567-3.59326-6.739-1.206-2.22729-2.50708-4.38778-3.75073-6.65261a27.31361 27.31361 0 017.344 13.39163zM384.69221 326.33469a51.43879 51.43879 0 01-2.66382 13.75955c-1.40381 4.4707-3.16784 8.78973-4.78381 13.123a100.76878 100.76878 0 00-4.17041 13.14222 44.99873 44.99873 0 00-1.15283 13.71838 33.5094 33.5094 0 01-.379-14.017 71.30513 71.30513 0 013.83252-13.55011c1.67151-4.36569 3.504-8.62848 5.187-12.93231A87.093 87.093 0 00384.69221 326.33469zM391.728 280.57785a12.4625 12.4625 0 001.30554-1.17242c.35071-.35944.65491-.70908.95081-1.06812.29345-.36093.578-.726.86328-1.13888a12.85033 12.85033 0 00.90271-1.50541 2.51588 2.51588 0 01.59692 1.97889 3.68644 3.68644 0 01-2.564 3.10971A2.526 2.526 0 01391.728 280.57785zM383.88472 245.89606c-.40943.25345-.84363.469-1.28138.68783l-.667.30973a.69727.69727 0 00-.37732.29159.62445.62445 0 00-.07946.39432c.02331.13272.07336.19562.24621.42157l.81616 1.157.77124 1.18726c.23963.40948.50025.809.75525 1.15982a2.40127 2.40127 0 00.93958.8082 1.36044 1.36044 0 001.27246-.05433 1.404 1.404 0 01-1.39429.53 2.58835 2.58835 0 01-1.39746-.7615 17.06974 17.06974 0 01-1.77637-2.31226l-.78479-1.21a1.69256 1.69256 0 01-.31994-.86691 1.32819 1.32819 0 01.34265-.93668 1.3765 1.3765 0 01.81921-.43878l.68762-.14508C382.92231 246.03348 383.39106 245.94583 383.88472 245.89606zM389.97224 285.3522a2.075 2.075 0 00-1.84619 1.326 2.051 2.051 0 00.32849 1.90872 3.04153 3.04153 0 003.67713.648 6.70047 6.70047 0 001.89575-1.287 12.13774 12.13774 0 012.21374-1.7714c1.80445-.96841 3.5575-.82434 4.71826-2.32348a3.63405 3.63405 0 01-1.6737 2.23724c-.78748.528-1.59778.921-2.19385 1.39468a18.03585 18.03585 0 00-1.73474 1.81138 7.2491 7.2491 0 01-2.44067 1.77752 5.059 5.059 0 01-3.2002.30069 3.88978 3.88978 0 01-2.6084-2.0108 3.06991 3.06991 0 01.1792-3.18564A2.29767 2.29767 0 01389.97224 285.3522zM399.43672 291.91455a21.64161 21.64161 0 00-7.20679 9.60751 35.57969 35.57969 0 00-2.255 11.80014c-.1084 2.02649-.08362 4.06934-.027 6.11942.03577 2.05627.1228 4.10529.30066 6.11954.38818 3.9949 1.452 8.0411 4.23962 11.17917a13.30827 13.30827 0 01-3.9259-4.89225 22.29992 22.29992 0 01-1.86035-6.07754 68.44521 68.44521 0 01-.724-12.53638 31.37306 31.37306 0 012.83069-12.34253A18.48151 18.48151 0 01399.43672 291.91455zM461.075 233.34775a51.57333 51.57333 0 0111.64258 19.15262 54.55086 54.55086 0 012.54615 11.06677 72.44487 72.44487 0 01.25463 11.32187 50.79812 50.79812 0 00.42688 10.96386c.59461 3.597 1.76917 7.12989 2.71778 10.76474A60.10145 60.10145 0 01480.6114 307.744a57.97407 57.97407 0 01-.26562 11.2362 68.84084 68.84084 0 00-3.18274-21.93154 101.81829 101.81829 0 01-3.0813-10.85859 51.11369 51.11369 0 01-.561-11.36645c.069-1.86948.148-3.72144.1449-5.55982.009-.91949-.05286-1.83249-.07764-2.74914-.04431-.91522-.14135-1.82742-.20141-2.74262a58.60721 58.60721 0 00-2.14881-10.79531 57.442 57.442 0 00-4.15588-10.246A59.93426 59.93426 0 00461.075 233.34775zM457.85054 228.14578c-.02246.91941-.07862 1.83032-.07215 2.744l.06018 2.74585c.01539 1.829.09778 3.65979.15137 5.48935.103 3.65906.28784 7.31845.4292 10.97662l.91077 21.95185 1.87768 43.89984.9187 21.94751.55579 10.96356q.14154 2.7415.33728 5.46872c.06592.90005.09155 1.843.19043 2.70825a17.69381 17.69381 0 00.37415 2.62216c1.616 7.04984 4.82666 13.67917 7.54663 20.49121a199.20178 199.20178 0 016.96411 20.86274q-3.46967-10.42755-7.86939-20.48606c-2.88171-6.69717-6.277-13.274-8.13635-20.50464a19.51412 19.51412 0 01-.47534-2.79751c-.13086-.95166-.174-1.84146-.26526-2.76548-.16211-1.83389-.27917-3.66491-.39233-5.49383l-.64771-10.97745-1.09656-21.9545c-.53662-14.64328-1.10022-29.28463-1.41235-43.93493q-.21534-10.98812-.35474-21.97815c.00782-3.66526-.02783-7.32788.01819-10.99353.02234-1.83258.01013-3.6637.07544-5.4971l.09-2.74762C457.6717 229.97 457.77888 229.05478 457.85054 228.14578zM400.48152 385.457q.31347 10.63056.24524 21.24674c-.0177 7.07864-.15247 14.15371-.30982 21.22827l-.30456 10.60745q-.18165 5.29679-.16529 10.575a89.47207 89.47207 0 002.27381 20.96637 59.50993 59.50993 0 01-2.729-10.29816 89.21218 89.21218 0 01-1.10485-10.62353c-.35059-7.11884-.10462-14.201.03173-21.27417.19715-7.07593.41712-14.15137.75379-21.22324Q399.636 396.05287 400.48152 385.457zM433.45845 403.75394a77.70537 77.70537 0 013.32788 20.06863c.03943 1.70483.01782 3.408-.03272 5.10483-.08545 1.69433-.15564 3.38309-.28308 5.0614-.22278 3.35934-.41015 6.70547-.57593 10.10312a57.85739 57.85739 0 01-.98449-10.13541c-.08179-3.39236-.00391-6.74286-.12195-10.08041-.06787-3.33957-.30469-6.67383-.55188-10.02323C433.993 410.50189 433.63093 407.15219 433.45845 403.75394zM372.62166 427.104a55.39618 55.39618 0 016.6062-.58883c2.19922-.09674 4.39514-.07657 6.59033-.03376a8.69062 8.69062 0 011.84167.20246 3.85278 3.85278 0 011.84143 1.083 11.26683 11.26683 0 011.77759 3.05154 13.83535 13.83535 0 004.02551 4.86908 9.86311 9.86311 0 01-5.37963-4.09329 13.29448 13.29448 0 00-1.75391-2.47974 2.09662 2.09662 0 00-.979-.53323 7.40238 7.40238 0 00-1.43079-.10184c-2.19409-.08267-4.38757-.188-6.57764-.41016A55.40677 55.40677 0 01372.62166 427.104zM402.76289 434.37042a10.86786 10.86786 0 015.13379 1.41611 6.25853 6.25853 0 012.06311 2.039 10.4638 10.4638 0 011.09338 2.55084c.51062 1.68091.80872 3.21277 1.7273 4.35608.91357 1.18225 2.49548 2.1026 3.63708 3.45679-1.598-.6767-3.27465-1.07806-4.76159-2.37451a6.76683 6.76683 0 01-1.65235-2.35822 22.32812 22.32812 0 01-.86242-2.4953 7.49914 7.49914 0 00-2.166-3.92254A27.0173 27.0173 0 00402.76289 434.37042zM361.02693 245.64169a15.63708 15.63708 0 013.65076 2.94413 21.23454 21.23454 0 014.74792 8.03195 15.54051 15.54051 0 01.81372 4.61953c-.81628-1.35372-1.52356-2.68853-2.24768-4.00344-.72266-1.31427-1.46509-2.59922-2.21484-3.87922-.75611-1.27645-1.52478-2.54589-2.32605-3.814C362.649 248.27139 361.82039 247.00818 361.02693 245.64169zM367.29719 206.05328a2.80275 2.80275 0 01-1.96448.251 4.71073 4.71073 0 01-1.8385-.93259 13.23749 13.23749 0 01-2.58752-3.02563 20.81355 20.81355 0 01-3.28052-7.19717 16.71933 16.71933 0 01.34461-7.956c.15991-.63995.38818-1.25461.59875-1.87292.21668-.56278.4176-1.20041.686-1.8118a5.00132 5.00132 0 01.52453-.923 4.81062 4.81062 0 01.74256-.71609 4.49471 4.49471 0 01.8507-.54276 1.18208 1.18208 0 01.98133-.07687 1.0418 1.0418 0 00-.82093.333 4.2533 4.2533 0 00-.61608.67578 5.93465 5.93465 0 00-.48511.74524 4.35922 4.35922 0 00-.24719.82062c-.14075.59607-.228 1.20147-.35791 1.8645-.09644.6178-.26355 1.21832-.33118 1.83337a21.67421 21.67421 0 00-.28662 3.64408 15.65347 15.65347 0 00.3717 3.568 26.96982 26.96982 0 002.6593 6.81357 16.31125 16.31125 0 001.92408 3.11392A3.32051 3.32051 0 00367.29719 206.05328z"/><path fill="#015a9a" d="M362.44465 190.43976a3.19938 3.19938 0 01-1.52209-2.15268 4.98449 4.98449 0 01.12463-2.69852 4.41636 4.41636 0 011.62671-2.23831 3.09663 3.09663 0 012.59705-.53583 7.17949 7.17949 0 00-1.50354 1.666 7.54634 7.54634 0 00-.82349 1.74045 11.54073 11.54073 0 00-.45825 1.95388A7.99687 7.99687 0 00362.44465 190.43976zM369.63191 188.34607a1.247 1.247 0 01.14233 1.55054 2.12889 2.12889 0 01-1.49292.93081 5.53476 5.53476 0 01-1.65576-.03457 4.34708 4.34708 0 00-1.22851-.08243c-.10572.03952-.06336.0491-.106.11117a1.78831 1.78831 0 00-.1521.38739 5.38274 5.38274 0 00-.19153 1.24958 5.94279 5.94279 0 00.40491 2.46817 3.1512 3.1512 0 001.31824 1.71481 1.27275 1.27275 0 00.82836.118.8439.8439 0 00.59778-.42242 6.15469 6.15469 0 00.38892-1.26142 2.73268 2.73268 0 01.92419-1.59042 1.63285 1.63285 0 011.82935-.02109 1.91807 1.91807 0 01.89075 1.301c-.5337-.84979-1.76038-1.08426-2.083-.53263a1.80158 1.80158 0 00-.26917 1.06406 6.06982 6.06982 0 01-.24035 1.64075 2.50623 2.50623 0 01-.58008.93283 2.53713 2.53713 0 01-.9552.5679 3.07852 3.07852 0 01-2.08447-.0589 4.65722 4.65722 0 01-2.4253-2.719 6.91911 6.91911 0 01-.42553-3.37226 7.16534 7.16534 0 01.42224-1.65582 2.77767 2.77767 0 01.54846-.91547 1.78642 1.78642 0 011.18591-.55123 4.66435 4.66435 0 011.702.35775 4.8405 4.8405 0 001.286.33 1.48735 1.48735 0 001.124-.29037A1.05206 1.05206 0 00369.63191 188.34607zM334.32734 210.418a29.87419 29.87419 0 00-15.10046-3.12384 40.34467 40.34467 0 00-14.93933 3.6542 66.24942 66.24942 0 00-13.1792 8.11386 131.98775 131.98775 0 00-11.708 10.28946q-2.785 2.72662-5.37109 5.63874c-1.73108 1.91736-3.29016 4.02887-5.239 5.94357a17.9182 17.9182 0 01-3.24682 2.56161 17.38337 17.38337 0 01-3.7909 1.64771c-2.60119.81067-5.22949 1.15552-7.75256 1.68512a19.14293 19.14293 0 00-7.02954 2.71176 24.20845 24.20845 0 00-5.46545 5.341c-3.22705 4.06757-5.687 8.7695-8.93287 12.90018 2.87305-4.38739 5.12037-9.12445 8.14612-13.48523a25.07532 25.07532 0 015.49988-5.82934 20.12069 20.12069 0 017.4364-3.16034c2.58472-.62674 5.16394-1.04364 7.5614-1.83124a15.61438 15.61438 0 003.376-1.53458 16.08469 16.08469 0 002.86536-2.35168c1.76831-1.78781 3.3435-3.90006 5.10412-5.88864q2.61438-2.98567 5.43653-5.77283a128.39438 128.39438 0 0111.968-10.36881 64.07074 64.07074 0 0113.70594-8.0379 39.71257 39.71257 0 0115.53845-3.20114A29.13 29.13 0 01334.32734 210.418z"/><path fill="#015a9a" d="M241.38459 263.07941A62.59047 62.59047 0 00228.72 271.60992a56.27091 56.27091 0 00-9.92749 11.39222c-2.83984 4.19857-5.24853 8.74395-8.082 13.08133-2.80371 4.32727-6.0791 8.53854-10.3053 11.54293a56.31773 56.31773 0 008.97315-12.35589c2.52368-4.436 4.86059-9.03543 7.7533-13.38037a52.81127 52.81127 0 014.83251-6.1753 48.93634 48.93634 0 015.76514-5.30313A44.795 44.795 0 01241.38459 263.07941zM268.52437 239.85623a9.39561 9.39561 0 012.79138-2.10748 13.2458 13.2458 0 013.36633-1.077 20.70879 20.70879 0 017.07727-.00189 20.97437 20.97437 0 013.46033.9122 22.313 22.313 0 013.24731 1.53134 36.63613 36.63613 0 015.72766 4.20261c1.78089 1.54263 3.45923 3.169 5.14283 4.757q2.52337 2.3751 5.19751 4.56405c3.53833 2.96082 7.35363 5.52628 11.17175 8.25843a46.10656 46.10656 0 0110.3407 9.72171 47.72487 47.72487 0 016.36194 12.65652c3.09521 8.90589 4.29089 18.16837 7.36462 26.97162-3.80432-8.538-5.55884-17.835-8.8313-26.43811a48.66286 48.66286 0 00-6.41321-12.05771 44.9913 44.9913 0 00-10-9.23871c-3.72473-2.71332-7.64172-5.35653-11.20495-8.42434q-2.68086-2.2842-5.19593-4.75122c-1.67663-1.63038-3.28894-3.29725-4.97253-4.86228-3.35352-3.106-7.08618-5.92471-11.58777-6.84729a19.96544 19.96544 0 00-6.80554-.433A10.88779 10.88779 0 00268.52437 239.85623z"/><path fill="#015a9a" d="M209.03962 303.45709c-3.129 1.528-6.27417 3.03836-9.24878 4.81711a35.36655 35.36655 0 00-8.07507 6.39331 20.882 20.882 0 00-5.04834 8.71945 22.07274 22.07274 0 00-.22 10.03861c1.33777 6.69061 4.51294 12.93228 7.52979 19.17483 3.083 6.2182 6.35693 12.34577 9.95715 18.27375 1.69861 3.02624 3.63538 5.90408 5.46912 8.84735 1.83154 2.95083 3.708 5.86731 6.25317 7.92828a8.39888 8.39888 0 004.25757 1.90228c1.52685.21784 3.2323-.21872 5.15625-.12951a5.93684 5.93684 0 012.89221.86047 5.79179 5.79179 0 011.99792 2.26532 11.78957 11.78957 0 011.03772 5.449 19.333 19.333 0 00.364 5.00333 10.124 10.124 0 002.57519 4.11075c1.16138 1.24441 2.48157 2.41336 3.61963 3.81918a10.24081 10.24081 0 012.26868 4.91495 23.07475 23.07475 0 001.12109 4.99576 9.75937 9.75937 0 003.3125 3.73981c1.3844 1.02191 2.88147 1.94378 4.2616 3.02572a7.72136 7.72136 0 012.95227 4.23673 7.573 7.573 0 00-3.13672-3.99732c-1.40991-1.00393-2.92212-1.85074-4.38476-2.83352a10.38245 10.38245 0 01-3.68873-3.85093 23.48964 23.48964 0 01-1.39636-5.1127 9.25709 9.25709 0 00-2.17663-4.40066c-1.088-1.27829-2.4148-2.3967-3.66431-3.66266a11.41831 11.41831 0 01-3.00842-4.59335 20.45044 20.45044 0 01-.55713-5.3678 10.24236 10.24236 0 00-.9845-4.699 3.80333 3.80333 0 00-3.4939-2.17614c-1.5592-.08552-3.317.38906-5.26855.16589a10.19342 10.19342 0 01-5.18152-2.23459c-2.91443-2.33029-4.87036-5.39883-6.72742-8.31244-1.87316-2.95178-3.85815-5.83707-5.58886-8.87616-3.57849-6.01-6.82166-12.2084-9.87073-18.49438-1.50659-3.15491-3.00928-6.29505-4.35474-9.55243a46.21667 46.21667 0 01-3.0509-10.15485 23.46243 23.46243 0 01.52-10.6539 21.81508 21.81508 0 015.55054-9.04111 36.11363 36.11363 0 018.51867-6.17843A96.49532 96.49532 0 01209.03962 303.45709zM267.896 304.31021a5.836 5.836 0 01-.45252 2.65061l.02112-.09113.00061.00952.00244.03565-.02392.0567c-.938 2.22622-2.72242 3.92389-4.324 5.56314-1.61841 1.66574-3.28186 3.283-4.92456 4.92251q-4.98339 4.85935-10.08288 9.59375c-1.71643 1.56342-3.40088 3.15052-5.14368 4.69434-1.73474 1.53061-3.68567 3.20615-6.2207 3.79022-5.21143 1.07077-9.2555-2.61926-13.91272-1.40454a7.64489 7.64489 0 011.67443-.53857 10.09648 10.09648 0 011.77332-.13483 23.39924 23.39924 0 013.50757.40207c2.27539.4007 4.56421.813 6.57373.20734a14.21174 14.21174 0 005.34656-3.68512c1.657-1.61255 3.36767-3.18695 5.04882-4.78238q5.08265-4.75329 10.28907-9.37372c1.75256-1.5217 3.48449-3.06567 5.26135-4.56122a21.43255 21.43255 0 004.75854-4.87732l-.02136.092.00073-.00952.00416-.06189.017-.0296A6.07614 6.07614 0 00267.896 304.31021z"/><path fill="#015a9a" d="M265.63411,293.825a12.18259,12.18259,0,0,1,.94873,4.64322,15.2,15.2,0,0,1-.65564,4.74637c-.458,1.52933-1.109,2.91873-1.66419,4.29205a19.73519,19.73519,0,0,0-1.25329,4.32264,8.55432,8.55432,0,0,1-.24488-4.76011,45.3582,45.3582,0,0,1,1.24854-4.43328,35.36959,35.36959,0,0,0,1.0188-4.27973C265.28682,296.89227,265.44807,295.40106,265.63411,293.825Z"/><path fill="#015a9a" d="M263.051 244.00253a218.38217 218.38217 0 0110.47961 19.54865 103.2767 103.2767 0 017.35181 21.03189 76.94394 76.94394 0 011.54944 11.10071 30.2644 30.2644 0 01-.19117 5.69479 19.41687 19.41687 0 01-1.648 5.50891 28.14225 28.14225 0 01-6.85644 8.92029 75.73813 75.73813 0 01-8.86731 6.69589 96.97011 96.97011 0 008.18274-7.39773 28.82159 28.82159 0 006.11133-8.84424 19.55671 19.55671 0 001.33972-5.10709 28.47849 28.47849 0 00.03882-5.35483 78.69677 78.69677 0 00-1.61182-10.78949 123.15262 123.15262 0 00-6.82288-20.83444C269.28413 257.393 266.11152 250.72821 263.051 244.00253zM243.02913 356.79715a50.22153 50.22153 0 01-.30262-7.78064 69.54149 69.54149 0 012.20533-15.37616 50.23578 50.23578 0 012.47937-7.38138c-.23023 2.59918-.59034 5.14624-.949 7.68762l-1.0852 7.60416-1.10181 7.60184C243.90474 351.69238 243.533 354.23758 243.02913 356.79715z"/><path fill="#015a9a" d="M249.66035 378.09634c.82605-4.139 1.82105-8.36975 1.05957-12.36462a10.418 10.418 0 00-2.55139-5.21613 8.03123 8.03123 0 00-4.83081-2.70846 4.78951 4.78951 0 00-1.33838-.00043 5.61909 5.61909 0 00-.66675.1315c-.25952.06574-.53357.13251-.81884.1901a4.9379 4.9379 0 01-1.986.05212 2.1809 2.1809 0 01-1.214-.72018 2.147 2.147 0 01-.48523-1.3364 4.2013 4.2013 0 01.12891-1.01654c.04944-.251.10461-.48636.14282-.73184a12.7591 12.7591 0 00.16346-1.46527 9.75495 9.75495 0 00-.2201-2.8671 5.27617 5.27617 0 00-1.25769-2.37854 5.58183 5.58183 0 00-1.11474-.89224 3.69456 3.69456 0 01-.74866-.667 2.615 2.615 0 01-.4867-.969 10.80626 10.80626 0 00-.37158-1.44259 2.987 2.987 0 00-.76294-1.05942 4.37225 4.37225 0 00-.55542-.42829c-.20569-.14154-.38611-.2185-.6947-.41546a2.63918 2.63918 0 01-1.07849-1.56015l.40967.31534a.4297.4297 0 01-.26294-.09607.452.452 0 01-.162-.26847.44159.44159 0 01.01538-.22165.41916.41916 0 01.10925-.17675l-.10607.44564a2.75948 2.75948 0 01.15625-1.8504 2.67155 2.67155 0 01.51916-.754c.22559-.219.41345-.36572.62183-.55175l-.07068.17059.00073-.00949.00781-.11228.06043-.05581c.74975-.69284 1.51452-1.368 2.27624-2.04239-.64062.7991-1.27832 1.5975-1.931 2.37823l.06812-.16775.00073.00949.00562.08081-.07642.09015c-.16919.19937-.3761.42169-.51343.60187a2.26311 2.26311 0 00-.3219.62021 1.96772 1.96772 0 00.03845 1.322l-.1062.446a.38589.38589 0 00.10132-.16568.434.434 0 00.015-.21829.44759.44759 0 00-.16016-.26563.41846.41846 0 00-.25647-.09408l.40991.31552a1.76475 1.76475 0 00.79151.92169c.14441.07715.45776.2.70337.33621a5.53974 5.53974 0 01.74816.4751 4.26819 4.26819 0 011.20911 1.39813 9.41954 9.41954 0 01.54907 1.58991 1.10682 1.10682 0 00.24378.42776 2.30489 2.30489 0 00.46545.34812 7.18048 7.18048 0 011.42005 1.00616 6.838 6.838 0 011.8258 3.08759 11.24186 11.24186 0 01.40173 3.42865 14.68754 14.68754 0 01-.16589 1.69149c-.079.54816-.24756 1.19007-.22656 1.38263.0022.10279.0293.11139.03931.12934 0 0 .01538.02331.13842.05066a3.30521 3.30521 0 001.1648-.08265c.23425-.044.47558-.09887.73-.15988a7.63719 7.63719 0 01.89258-.16272 6.75319 6.75319 0 011.82751.02063 9.407 9.407 0 015.94251 3.4718 11.36015 11.36015 0 012.63378 6.18 18.60909 18.60909 0 01-.49963 6.50476A45.1557 45.1557 0 01249.66035 378.09634zM266.434 392.44174c-1.58191-1.63785-2.19177-4.00335-2.70117-6.09173a14.82718 14.82718 0 00-2.20154-5.67023 18.89386 18.89386 0 00-4.659-4.03882 57.60869 57.60869 0 01-5.3108-3.92688 51.68627 51.68627 0 016.103 2.58222 15.08986 15.08986 0 015.47034 4.19021 10.39332 10.39332 0 011.55041 3.24393 20.30118 20.30118 0 01.57886 3.35071A22.6759 22.6759 0 00266.434 392.44174zM192.07222 342.96378a23.24478 23.24478 0 015.03076-2.43506 19.54777 19.54777 0 015.56579-1.11524 15.22376 15.22376 0 015.67456.81845 21.79564 21.79564 0 015.02173 2.48157c-1.86255-.24866-3.64636-.67987-5.4021-.968a24.10931 24.10931 0 00-5.20849-.3345 40.74922 40.74922 0 00-5.26013.62235C195.72261 342.34064 193.93452 342.724 192.07222 342.96378z"/><path fill="#015a9a" d="M207.13765 353.419a7.55352 7.55352 0 012.60681-2.60337 21.29115 21.29115 0 013.27514-1.69546 34.40481 34.40481 0 017.03846-2.01157c2.38891-.4165 4.7727-.70764 7.14917-.93518a21.73682 21.73682 0 006.92053-1.37958 9.155 9.155 0 01-3.14221 1.91843 25.91874 25.91874 0 01-3.52613 1.00131c-2.35254.5456-4.71545.92029-7.04174 1.36124-2.33057.41192-4.62842.88428-6.88294 1.51221-1.124.31887-2.25012.67321-3.34228 1.09652A9.82235 9.82235 0 00207.13765 353.419zM204.64106 374.08905a3.87417 3.87417 0 01.829-1.77451 5.20646 5.20646 0 011.422-1.2178 5.14833 5.14833 0 011.75879-.64117 3.844 3.844 0 011.95386.15384 8.29338 8.29338 0 01-1.34314 1.29534 12.03291 12.03291 0 01-1.36194.91895 12.482 12.482 0 01-1.47168.73129A8.45927 8.45927 0 01204.64106 374.08905zM237.88 356.50778a21.41815 21.41815 0 01-3.16333 2.37424 30.19842 30.19842 0 01-3.42542 1.86728 25.26041 25.26041 0 01-3.67541 1.37451 10.4028 10.4028 0 01-3.9729.49451c1.17773-.65345 2.24536-1.3274 3.38147-1.93879 1.12414-.61877 2.25988-1.21377 3.42919-1.74569q1.74848-.811 3.58875-1.4527A18.76836 18.76836 0 01237.88 356.50778zM223.43782 376.54913a24.0929 24.0929 0 003.89343-1.634 18.14285 18.14285 0 003.27039-2.30621 16.46884 16.46884 0 002.65026-2.97556c.38416-.55725.728-1.12631 1.10279-1.78052a4.11275 4.11275 0 011.5708-1.64022 6.12782 6.12782 0 00-.65918 2.005 10.55772 10.55772 0 01-.64136 2.15772 10.30277 10.30277 0 01-2.697 3.72976 10.8401 10.8401 0 01-4.00391 2.24732A8.53578 8.53578 0 01223.43782 376.54913zM315.54365 271.52689c.5553 7.82611 1.05 15.64227 1.66883 23.44857l1.85717 23.41831c.55933 7.81463 1.03931 15.64377 1.718 23.45361.69678 7.80847 1.52441 15.60425 2.42529 23.39261a22.1101 22.1101 0 00.40857 2.806 2.4847 2.4847 0 00.52588 1.01987.70207.70207 0 00.70166.19717 1.52554 1.52554 0 00.74219-.62561 4.91777 4.91777 0 00.55444-1.143 9.59281 9.59281 0 00.54993-2.65954 42.53736 42.53736 0 00-.19067-5.74835l-.37122-5.8682c-.48645-7.8248-.98755-15.64917-1.37769-23.47934-.73425-15.6625-1.33752-31.33185-1.53808-47.0151l.19983-.00882c1.46838 15.62661 2.53393 31.26715 3.46863 46.91455.44421 7.82473.77758 15.6553 1.12573 23.48547l.25451 5.873a43.65057 43.65057 0 01.00867 5.9963 11.12121 11.12121 0 01-.73486 3.05643 6.16829 6.16829 0 01-.802 1.45419 2.84761 2.84761 0 01-1.56848 1.09461 2.05037 2.05037 0 01-1.9701-.63754 3.68961 3.68961 0 01-.7666-1.58854 22.20978 22.20978 0 01-.31055-3.02182c-.5592-7.82067-1.16723-15.63626-1.98046-23.43206-.8252-7.795-1.88514-15.56736-2.7306-23.36689a386.69225 386.69225 0 01-2.068-47.0111zM296.89387 322.18106a291.7469 291.7469 0 00.60694 32.82745c.70459 10.92576 1.64709 21.84766 2.20861 32.82193.52576 10.97724.5752 21.98133.05652 32.95615a311.4658 311.4658 0 01-3.20556 32.76791q1.30737-16.40441 1.64563-32.81912c.19934-10.94156.06494-21.8833-.493-32.80737-.519-10.92813-1.37707-21.86588-1.765-32.84189A207.33532 207.33532 0 01296.89387 322.18106z"/><path fill="#015a9a" d="M318.02949 321.89563a119.93671 119.93671 0 01-1.4032 17.60455c-.81848 5.83335-1.81262 11.62223-2.36535 17.45255-1.26233 11.64877-1.5044 23.38925-1.65442 35.13675-.17334 11.74676-.23938 23.53918-1.146 35.304a154.36439 154.36439 0 01-6.29077 34.73322 160.23647 160.23647 0 003.1709-17.32086c.80383-5.8086 1.22693-11.66175 1.5625-17.51371.585-11.71585.56628-23.46011.70471-35.23037.08618-5.88327.23828-11.77555.52429-17.66477.35852-5.88568.756-11.7792 1.58509-17.62906C314.146 345.02524 317.37837 333.6698 318.02949 321.89563zM476.0146 421.16586c.61157 4.98709.093 10.126 1.40637 14.93357 1.27161 4.817 3.86365 9.13385 6.4397 13.42962a.7503.7503 0 11-1.285.77491l-.0194-.03418c-2.36036-4.42249-4.8042-8.98011-5.865-13.99741a34.29292 34.29292 0 01-.61243-7.56744C476.0948 426.18683 476.19648 423.6763 476.0146 421.16586z"/><path fill="#015a9a" d="M466.27266,438.52405a15.74789,15.74789,0,0,0,4.96447-.37085,9.97624,9.97624,0,0,1,2.59241-.10333,5.09508,5.09508,0,0,1,.66492.109,1.422,1.422,0,0,1,.37427.1131,2.50161,2.50161,0,0,1,.33764.19007,7.12468,7.12468,0,0,1,1.03028.87384,42.16232,42.16232,0,0,1,3.28015,3.889c1.02185,1.31568,2.02112,2.72779,3.01184,3.96247l-1.16419.946c-1.03369-1.42651-1.89575-2.795-2.85986-4.16925a41.28772,41.28772,0,0,0-2.99268-3.9295,6.29506,6.29506,0,0,0-.83837-.792,1.6256,1.6256,0,0,0-.20057-.12939,1.15824,1.15824,0,0,0-.21972-.08264,4.24821,4.24821,0,0,0-.55908-.15686,9.29629,9.29629,0,0,0-2.408-.16614A15.93786,15.93786,0,0,1,466.27266,438.52405Z"/><path fill="#015a9a" d="M489.50667 427.02826c-1.39014 1.528-2.78077 3.06085-4.016 4.70123a26.23026 26.23026 0 00-1.70629 2.545 7.32423 7.32423 0 00-.657 1.31513 8.55678 8.55678 0 00-.34326 1.43277 27.73922 27.73922 0 00-.08264 6.067 42.32935 42.32935 0 00.881 6.01947l-1.4668.314a43.546 43.546 0 01-.59631-6.27173 28.66876 28.66876 0 01.41187-6.28735 9.352 9.352 0 01.45935-1.55475 5.2425 5.2425 0 01.37463-.74884l.436-.65622a26.81576 26.81576 0 011.932-2.465C486.50581 429.87372 488.00715 428.4491 489.50667 427.02826zM507.85151 441.65222a47.26343 47.26343 0 002.60315 4.53717 48.34215 48.34215 0 003.17481 4.15741 10.81784 10.81784 0 01-5.778-8.69458zM491.61506 462.5741a29.62573 29.62573 0 018.46973-5.64685 18.30332 18.30332 0 014.98547-1.31372 12.74864 12.74864 0 015.0962.40594 21.91912 21.91912 0 00-9.69751 1.83038A82.34457 82.34457 0 00491.61506 462.5741zM517.0959 438.2796a23.71183 23.71183 0 00-1.17407 5.24372 23.96723 23.96723 0 00.1278 5.37207 9.42874 9.42874 0 011.04627-10.61579zM521.00007 388.26743a102.37808 102.37808 0 0111.74732 29.30386.75021.75021 0 11-1.462.33722l-.0072-.03516A101.631 101.631 0 00521.00007 388.26743z"/><path fill="#015a9a" d="M533.25288,383.886c.23584,5.03531.34241,10.07974.25293,15.131-.053,2.52566-.1571,5.05316-.37353,7.58243a39.50144,39.50144,0,0,1-1.26087,7.5917l-1.42-.48309a38.42752,38.42752,0,0,0,1.56274-7.23319c.33692-2.47961.56531-4.98309.74243-7.491C533.0948,393.96536,533.23884,388.92612,533.25288,383.886Z"/><path fill="#015a9a" d="M520.9228 406.49207a26.76 26.76 0 005.00049 3.87759 38.12394 38.12394 0 005.55933 2.90219l-.64246 1.35547a39.19333 39.19333 0 01-5.35156-3.64645A27.11506 27.11506 0 01520.9228 406.49207zM440.88008 458.89923a32.96419 32.96419 0 006.481 17.88257.75058.75058 0 11-1.20069.901c-.01135-.01514-.02356-.03308-.03357-.04871A33.71162 33.71162 0 01440.88008 458.89923z"/><path fill="#015a9a" d="M436.15266,470.96478a32.778,32.778,0,0,1,9.29773,2.89307l-.75354,1.29694A32.02848,32.02848,0,0,0,436.15266,470.96478Z"/><path fill="#015a9a" d="M449.24116 460.95551a4.98766 4.98766 0 00-2.32336 3.03949 16.36635 16.36635 0 00-.73426 3.8479 31.926 31.926 0 00.35669 7.812l-1.48669.19873a32.988 32.988 0 01.38647-8.10883 16.89231 16.89231 0 011.12964-3.889A5.16749 5.16749 0 01449.24116 460.95551zM176.51216 338.37323a13.59333 13.59333 0 01-4.56738-3.27625 17.34727 17.34727 0 01-4.6117-10.24679 13.54377 13.54377 0 01.58215-5.59143 41.69159 41.69159 0 00.95643 5.33008 31.04117 31.04117 0 004.28491 9.53412A41.17162 41.17162 0 00176.51216 338.37323zM162.3459 330.45435c.774 1.15725 1.45093 2.277 2.15405 3.36685.70227 1.0885 1.42859 2.13763 2.17542 3.17123.75268 1.02918 1.522 2.04712 2.3385 3.05246.81714 1.0069 1.66955 1.99936 2.52685 3.09723a11.227 11.227 0 01-3.62024-1.98361 15.20214 15.20214 0 01-4.814-6.64752A11.29282 11.29282 0 01162.3459 330.45435zM164.9582 393.08356a7.35317 7.35317 0 01.11255-3.03394A10.13823 10.13823 0 01168.111 384.911a7.30023 7.30023 0 012.60852-1.55517c-.44471.94451-.93335 1.75073-1.39771 2.55859l-1.39758 2.35586-1.39673 2.35688C166.04121 391.42242 165.57039 392.23917 164.9582 393.08356zM214.09858 423.36313a10.68232 10.68232 0 012.78516.34988 16.83159 16.83159 0 012.56006.87085 16.53286 16.53286 0 012.38977 1.26514 10.54756 10.54756 0 012.16235 1.791 10.55018 10.55018 0 01-2.78625-.34744 16.53076 16.53076 0 01-2.559-.87332 16.82744 16.82744 0 01-2.38867-1.26761A10.684 10.684 0 01214.09858 423.36313zM478.09468 355.90112a9.8298 9.8298 0 011.35974 2.7764 14.20564 14.20564 0 01.60351 2.97269 14.03987 14.03987 0 01-.03466 3.033 9.73535 9.73535 0 01-.81971 2.98166 17.56662 17.56662 0 01-.75244-2.94413c-.16967-.96569-.29492-1.92242-.38379-2.8829-.08935-.96045-.14538-1.92383-.15905-2.90427A17.8967 17.8967 0 01478.09468 355.90112zM449.98835 171.13057a10.57649 10.57649 0 013.28016 2.096 14.38813 14.38813 0 014.11633 6.53949 10.5158 10.5158 0 01.4657 3.86554c-.70056-1.11636-1.29309-2.19675-1.90186-3.25464-.6073-1.0569-1.23364-2.08-1.86731-3.09771-.63977-1.014-1.29236-2.0206-1.981-3.02677C451.41084 173.24512 450.6927 172.24364 449.98835 171.13057zM337.25813 155.30928a11.65168 11.65168 0 01.0907-3.94476 16.05092 16.05092 0 013.21289-7.13347 11.58065 11.58065 0 012.89868-2.67833c-.49451 1.24338-1.0426 2.3764-1.57471 3.50484l-1.54895 3.36326-1.49768 3.38683C338.34529 152.9536 337.85994 154.115 337.25813 155.30928zM315.49739 114.372a6.87131 6.87131 0 011.7926 1.30974 10.07554 10.07554 0 011.31751 1.62029 9.89569 9.89569 0 01.95813 1.8553 6.78555 6.78555 0 01.47851 2.16884 6.78791 6.78791 0 01-1.7948-1.30825 9.89507 9.89507 0 01-1.31531-1.62178 10.069 10.069 0 01-.95581-1.85681A6.87111 6.87111 0 01315.49739 114.372zM374.34028 104.20827a4.93625 4.93625 0 01.64734 1.73416 6.62583 6.62583 0 01.08179 1.68892 6.51318 6.51318 0 01-.34644 1.65468 4.88327 4.88327 0 01-.91748 1.609 4.88165 4.88165 0 01-.65014-1.73438 6.5131 6.5131 0 01-.079-1.6887 6.62591 6.62591 0 01.34912-1.65447A4.93856 4.93856 0 01374.34028 104.20827zM404.02925 120.25636a8.95153 8.95153 0 011.42212 2.12506 13.76058 13.76058 0 01.87646 2.281 13.52078 13.52078 0 01.4635 2.399 8.83907 8.83907 0 01-.0874 2.55635 8.8392 8.8392 0 01-1.4248-2.12432 13.50994 13.50994 0 01-.87378-2.2817 13.7602 13.7602 0 01-.46094-2.39971A8.94711 8.94711 0 01404.02925 120.25636zM421.16121 208.17722a18.28863 18.28863 0 01-2.10315 3.90832 25.18146 25.18146 0 01-2.79114 3.42148 19.73588 19.73588 0 01-3.4187 2.85535 9.90784 9.90784 0 01-4.15259 1.70541c1.17053-.94168 2.16113-1.93018 3.1731-2.92041 1.00549-.98923 1.97338-2.02026 2.96606-3.03552q1.48572-1.52472 3.03442-3.02829A38.83012 38.83012 0 01421.16121 208.17722z"/><path fill="#0078c8" d="M343.25458,177.21125q-3.99364,8.96078-7.98736,17.92162c-1.04706,2.34939-2.09622,5.07968-.97838,7.39622,1.16555,2.41494,4.36416,3.27716,6.95081,2.56985s4.66481-2.60113,6.518-4.53938a68.68486,68.68486,0,0,0,11.56389-16.316c.71805-1.41311,1.68553-3.05819,3.26931-3.12053,2.60106-.10243,3.09477,3.682,4.84466,5.60915,2.40247,2.64585,7.53023,1.75549,9.26362,4.88087,1.32009,2.38022-.35955,5.2372-1.84239,7.51985-1.48269,2.28264-2.75112,5.5147-.88223,7.4935.20382-4.868,5.48641-7.90957,10.29128-8.71669,2.8204-.4737,6.114-.35036,8.00811,1.79238,1.05416,1.19242,1.51995,2.86474,2.74417,3.882,1.24783,1.03692,3.0449,1.18817,4.32505,2.18477a4.1708,4.1708,0,0,1-.38546,6.532c6.50235.40531,12.21116-2.78808,18.72337-2.97771,5.49216-.15984,9.90313,4.74985,13.38574.5s6.46293-11.303,5.54024-16.71949c-1.232-7.23286-6.38782-13.07248-9.69163-19.6235-2.59456-5.14486-4.24232-11.0604-8.596-14.83484-3.02533-2.62286-6.98359-3.85523-10.444-5.86963-7.73718-4.50385-13.11751-12.97714-21.70973-15.4916a25.59771,25.59771,0,0,0-9.999-.57613,39.69325,39.69325,0,0,0-22.337,9.69126,30.83774,30.83774,0,0,0-10.26956,21.77811C343.49841,171.50714,344.1981,175.09435,343.25458,177.21125Z"/><path fill="#0268b4" d="M362.59073 181.12292a2.76975 2.76975 0 012.45256 1.56855 31.10653 31.10653 0 0110.19744-20.25989 39.69378 39.69378 0 0122.337-9.69133 25.59849 25.59849 0 019.99907.57606c5.69463 1.6668 9.97958 5.94913 14.4738 9.96024a18.373 18.373 0 00-3.73114-4.63121c-3.02527-2.62293-6.98367-3.85537-10.444-5.86962-7.73732-4.50385-13.11765-12.97722-21.70987-15.49153a25.59679 25.59679 0 00-9.999-.57636 39.69576 39.69576 0 00-22.33707 9.69134 30.83549 30.83549 0 00-10.26933 21.77826c-.06151 3.32964.6381 6.91692-.30579 9.03382q-3.9933 8.96089-7.98721 17.92162c-1.04706 2.34939-2.09607 5.07953-.97845 7.39622 1.16547 2.41494 4.36446 3.27716 6.951 2.56993 2.58657-.70745 4.66466-2.60114 6.51787-4.53961a68.68346 68.68346 0 0011.564-16.316C360.03976 182.83041 361.00687 181.18518 362.59073 181.12292zM384.0019 197.15534a2.99127 2.99127 0 00-2.20687 1.365 17.43572 17.43572 0 012.47049-.6107c.44734-.075.90745-.12729 1.37093-.16685A2.27109 2.27109 0 00384.0019 197.15534z"/><path fill="#0078c8" d="M414.38292,215.71714c-7.77249-.24114-15.90446.61578-22.48019,4.76694s-11.10176,12.30538-9.04667,19.8053c1.699,6.20066,7.38121,10.85031,8.5116,17.17953.659,3.68963-.25921,7.80914,1.7145,10.99536,1.624,2.62182,4.819,3.89174,6.63673,6.38305,1.98193,2.71648,1.98,6.45957.99765,9.67543s-2.81764,6.09009-4.32333,9.09676a48.21669,48.21669,0,0,0-2.635,36.28909c1.15935,3.50665,3.82835,7.50768,7.459,6.83032a23.0196,23.0196,0,0,0,3.64567-1.54115c1.23938-.46355,2.8908-.41487,3.59123.70775.34231.54865.38785,1.25767.79473,1.76034.79316.97995,2.38911.59838,3.4314-.11079s2.03411-1.6983,3.29447-1.7254a5.46663,5.46663,0,0,1,2.07025.56,17.59332,17.59332,0,0,0,11.42517.47684c1.0181-.30647,2.15595-.69812,3.095-.19949a15.3878,15.3878,0,0,1,1.483,1.27433,4.76519,4.76519,0,0,0,2.04725.66273q5.90635.94123,11.87431,1.41849a6.34485,6.34485,0,0,1,2.61009.58061c.63324.35163,1.126.915,1.74772,1.28641,1.60163.95674,3.65186.45683,5.39959-.19552,4.873-1.81888,9.60734-4.66989,14.80625-4.51639,1.72585.05091,3.48843.4351,5.15411-.01979,2.971-.81115,4.67071-4.11958,4.7214-7.199s-1.152-6.01939-2.17775-8.92333a96.7063,96.7063,0,0,1-5.04512-24.43883c-.79965-9.92112-.29549-19.96207-1.95206-29.77659a106.18918,106.18918,0,0,0-6.80269-22.21433c-3.71651-9.1273-8.28307-18.37651-16.12231-24.34849a31.81041,31.81041,0,0,0-24.054-6.02C421.99527,214.92719,417.77482,215.82234,414.38292,215.71714Z"/><path fill="#0268b4" d="M461.56256,338.60408a4.76635,4.76635,0,0,1-2.04688-.66273,15.43067,15.43067,0,0,0-1.48306-1.27433c-.93919-.49871-2.07674-.107-3.09492.19949a17.59336,17.59336,0,0,1-11.42532-.47691,5.47318,5.47318,0,0,0-2.07009-.56c-1.26059.02725-2.25226,1.01639-3.29463,1.72548s-2.63816,1.09089-3.43147.11072c-.40666-.50245-.45212-1.21154-.7948-1.7602-.70014-1.12262-2.3517-1.17137-3.591-.7079a22.99968,22.99968,0,0,1-3.646,1.5413c-3.63029.67714-6.29958-3.32381-7.45893-6.83031a48.2168,48.2168,0,0,1,2.63532-36.28925c1.50532-3.00659,3.34054-5.8809,4.32325-9.09676.98227-3.21586.98421-6.9588-.99787-9.67528-1.81775-2.49138-5.01248-3.76115-6.63665-6.38319-1.97349-3.1863-1.05565-7.30558-1.71458-10.99522-1.13038-6.32929-6.81225-10.97894-8.51167-17.17968-2.05494-7.49984,2.471-15.6542,9.04659-19.80522,6.57611-4.15124,14.7077-5.008,22.48049-4.76686.61062.019,1.25633-.00351,1.91667-.04256a31.69348,31.69348,0,0,0-15.512-1.43715c-4.25987.68968-8.48046,1.58483-11.87214,1.47971-7.77234-.24115-15.90438.61562-22.48,4.76686-6.57611,4.151-11.102,12.30538-9.04711,19.80522,1.69942,6.20074,7.38128,10.85039,8.51167,17.17968.659,3.68964-.25891,7.80892,1.71458,10.99522,1.62417,2.622,4.819,3.89181,6.63673,6.38319,1.982,2.71648,1.98006,6.45942.99787,9.67528-.98279,3.21586-2.818,6.09017-4.32333,9.09676a48.21637,48.21637,0,0,0-2.6348,36.28925c1.15883,3.5065,3.82812,7.50745,7.45893,6.83031a23.01152,23.01152,0,0,0,3.64544-1.5413c1.23931-.46347,2.89087-.41472,3.591.7079.34268.54866.38814,1.25775.79525,1.7602.79293.98017,2.38866.59837,3.431-.11072s2.034-1.69823,3.29462-1.72548a5.47062,5.47062,0,0,1,2.0701.56,17.59336,17.59336,0,0,0,11.42532.47691c1.01825-.30647,2.15573-.6982,3.09492-.19949a15.43067,15.43067,0,0,1,1.48306,1.27433,4.76627,4.76627,0,0,0,2.04733.66273q5.90625.94113,11.87408,1.41841a6.34025,6.34025,0,0,1,2.61017.58083c.63339.35149,1.12613.91478,1.74772,1.2862,1.6014.95688,3.652.45675,5.39974-.19553,2.17514-.81182,4.3228-1.8282,6.4966-2.69251C463.33582,338.876,462.44867,338.74533,461.56256,338.60408Z"/><path fill="#015a9a" d="M351.8332 255.965a19.235 19.235 0 015.15979 3.10992 36.49467 36.49467 0 014.30616 4.17679c1.322 1.48657 2.5415 3.03332 3.726 4.61829a44.45534 44.45534 0 013.2843 4.98486 44.45162 44.45162 0 01-4.46411-3.9632c-1.40259-1.39392-2.74951-2.84427-4.04175-4.313-1.302-1.46151-2.56213-2.9403-3.87537-4.371C354.61812 258.76886 353.26167 257.38651 351.8332 255.965zM325.53389 207.14725a6.23751 6.23751 0 00-3.41187 4.15844 17.229 17.229 0 00-.62744 5.5047 54.21417 54.21417 0 001.20654 11.11924 65.27177 65.27177 0 008.42334 20.58978 95.45166 95.45166 0 0014.02283 17.46332c1.34753 1.2847 2.72656 2.63922 4.05139 3.87057.64966.56626 1.24561.7125 1.8103.28308a3.95932 3.95932 0 001.16846-2.12637 18.39434 18.39434 0 00-.7439-10.99307 17.99393 17.99393 0 011.70386 11.19232 4.8819 4.8819 0 01-1.402 2.81653 2.31332 2.31332 0 01-1.7611.56378 3.31538 3.31538 0 01-1.58472-.70493c-1.52271-1.2539-2.87585-2.51666-4.32385-3.7767a84.09025 84.09025 0 01-14.645-17.54321 60.70365 60.70365 0 01-8.24634-21.34125 49.31532 49.31532 0 01-.65405-11.44232 17.95774 17.95774 0 011.10547-5.65347 8.08337 8.08337 0 011.498-2.47529A5.24545 5.24545 0 01325.53389 207.14725z"/></svg>