<svg xmlns="http://www.w3.org/2000/svg" data-name="Layer 1" viewBox="0 0 700 550"><path fill="#e6f6df" d="M207.76507,78.561c-7.06132,36.03082,26.393,71.44618,17.672,107.11179-4.01773,16.4296-16.44953,29.58529-21.94125,45.58265-6.17634,17.99161-3.08907,38.034-8.44019,56.28791-3.63758,12.40763-10.98034,26.161-4.29354,37.22745,2.38355,3.94433,6.2259,6.73236,9.69577,9.76542,15.969,13.95828,25.02689,34.49731,28.90092,55.35019,3.87444,20.85271,3.02122,42.26031,2.0483,63.44754-.72324,15.74416-1.28979,32.4499,6.45149,46.17851,9.23895,16.38437,30.39981,24.96932,48.44269,19.65282,8.72915-2.57216,16.53706-7.95023,25.47252-9.6743,18.69-3.6059,36.15607,9.26949,54.56817,14.0979,24.87208,6.5222,50.95067-1.88174,75.28167-10.1975,7.32961-2.50512,14.85837-5.1221,20.7122-10.19464,11.64683-10.0925,13.87181-27.31156,12.73315-42.68072-1.13842-15.36924-4.80588-30.89467-1.81332-46.01252,3.8217-19.30443,17.78855-34.73915,27.23408-52.00319,3.06726-5.60579,5.73944-11.77976,5.25575-18.15148-.568-7.48058-5.32336-13.86153-9.252-20.25285-9.63405-15.674-15.117-34.23244-13.45542-52.55546,1.85129-20.41084,12.16285-38.918,19.14064-58.18819,10.02457-27.68419,13.19219-58.37075,5.43874-86.77467-7.75345-28.40409-27.17243-54.14784-53.97712-66.33-26.20041-11.90729-56.35348-10.23138-84.44077-16.505-26.09729-5.82917-50.82967-18.62308-77.55115-19.6298C266.07491,23.14961,218.96879,27.54807,207.76507,78.561Z"/><path fill="#d5efc8" d="M397.68368 243.65362l-6.00757 18.4321-9.22915 2.51182V227.05623l14.14019-15.962s4.89643 2.92879 5.41922 3.89722 3.80994 4.14494 2.68148 6.89525S397.68368 243.65362 397.68368 243.65362zM437.58355 391.24465l44.172 1.62145c5.75789-10.285 13.06064-19.9959 18.734-30.36584 3.06727-5.60579 5.73944-11.77976 5.25584-18.15148-.5681-7.48058-5.32344-13.86145-9.252-20.25285-9.63413-15.674-15.117-34.23244-13.4555-52.55546 1.85137-20.41084 12.16285-38.918 19.14064-58.1881q2.28668-6.31392 4.08036-12.81824l-16.19111-38.292v-35.085H438.4967v27.79794h-7.462s1.53334 5.928 1.07081 9.909c0 0 3.246 1.89562 2.1324 25.41161s.39036 16.87385-1.94469 27.7042-4.818 9.49255-6.33359 9.62539a142.553 142.553 0 00-.73288 32.40639c1.66807 17.506.82938 13.99356-6.86912 28.69239 0 0 16.15413 18.54453 20.65505 35.72937z"/><path fill="#ade194" d="M441.62349,513.39133c7.3297-2.50512,14.85845-5.1221,20.7122-10.19464,11.64683-10.09242,13.87182-27.31156,12.73316-42.68064-1.13834-15.36932-4.8058-30.89475-1.81332-46.01252,3.1103-15.70947,12.93817-28.85641,21.58126-42.512h-7.567V352.69246H461.53767V323.93223H436.44154s4.42679,13.51273,2.57118,38.38309-3.77736,27.60451-9.51762,30.641c0,0,1.67974,19.77545,2.87948,27.10817,1.29885,7.9383,4.544,28.49,3.66771,35.56143l-5.85236,2.8331a188.087,188.087,0,0,1,1.9406,27.20574c-.18117,13.48325-.39346,25.21492,1.16781,30.53207Z"/><path fill="#68ca44" d="M396.70873,455.78758l-2.89842,9.905c-18.13115,2.35489-31.32031,1.26106-49.09416-3.034-2.22736-.54247-4.68439-1.31478-5.76288-3.33777a8.453,8.453,0,0,1-.55529-4.46745q1.00513-17.58549,2.01671-35.18388c.63816-11.13025,1.2764-22.29233.434-33.40331a92.17693,92.17693,0,0,0-9.36886-33.4545l-.63816-5.80754c.237-2.57852-2.76729-9.88617-2.76729-9.88617a26.99746,26.99746,0,0,0,3.93519-2.88421s5.76932-3.159,11.92794-14.902,10.70257-16.33784,11.99171-18.52053,3.42081-6.90529,3.42081-6.90529c0,.03184.01281,2.84633,4.21213,4.56943,4.2185,1.73591,7.79248,3.676,10.9387,1.6083,2.94847-1.94012,3.34422-3.98238,3.38251-4.23124l-.1468,1.321c-.52974,4.87593-.89993,9.91769-.93822,14.39787a4.00326,4.00326,0,0,0-1.69117,3.62493,1.06691,1.06691,0,0,0,.29989.67008,2.91662,2.91662,0,0,0,1.79976.39583l.00637.02547a3.661,3.661,0,0,0-2.66131,3.0952,1.95082,1.95082,0,0,0,.32553,1.64022c.485.54884.45657.75606,1.13311.48809.14035-.05748-.12762.07659,0,0a2.481,2.481,0,0,0-.20355,1.75184c.07022.6126,1.24448,1.34654,1.80613,1.58274-1.921,5.75014.07234,11.46215,1.67428,17.33361,5.97989,21.92214,9.33048,44.48253,14.86367,66.52583a2.58838,2.58838,0,0,0,.62543,1.34033c.85518.79134,2.21453.15954,3.22925-.40848a21.106,21.106,0,0,1,2.43148-1.15507l1.43259-.24919c.48957,4.62192,2.20246,10.79491,2.06088,15.46722-.04352,1.43708-2.08227-.34244-2.42478,5.1937A127.50362,127.50362,0,0,1,396.70873,455.78758Z"/><path fill="#a8a8a8" d="M382.687,525.91645c.81289-5.45319,3.00546-20.80969,3.38561-26.34811,2.25128,6.3509,4.80237,19.461,6.08718,26.07549"/><path fill="#47a920" d="M383.22931,525.9965l-1.08479-.16063c.81225-5.44966,3.00271-20.79629,3.38073-26.30485l.181-2.63541.88293,2.48978c2.27346,6.41236,4.86389,19.74684,6.10878,26.15385l-1.07623.20989c-1.09068-5.61564-3.219-16.57064-5.24458-23.43706C385.67624,509.08961,383.93447,521.26647,383.22931,525.9965Z"/><path fill="#d5efc8" d="M300.35667,392.8661H229.8701c-.1633-.99407-.32692-1.98813-.51136-2.97966-3.87411-20.85288-12.932-41.392-28.901-55.35027-3.46987-3.033-7.31214-5.82109-9.69577-9.76542-6.68672-11.06639.656-24.81982,4.29354-37.22745,5.35112-18.25394,2.26393-38.2963,8.44027-56.28791,5.49164-15.99736,17.92343-29.15305,21.94116-45.58257.01813-.07324.03242-.14631.04989-.21955v13.95984l17.93748,31.91V271.683h26.90658V203.29538h31.3933V251.503h31.40612s4.382,1.0829,4.39739,3.20713a16.28887,16.28887,0,0,1-2.35995,7.65523s-1.04134,1.45292,2.36019,3.76495c0,0-8.77437,11.29737-12.4509,16.91377a50.75039,50.75039,0,0,0-15.39332,10.36243c-7.62061,7.39257-10.93143,15.57312-10.42309,28.49357s2.05728,37.671,3.65521,41.82872S300.35667,392.8661,300.35667,392.8661Z"/><path fill="#e5e3e3" d="M225.48683,159.60444v-10.641h-2.64319C223.8898,152.51054,224.79568,156.05732,225.48683,159.60444Z"/><path fill="#ade194" d="M311.77366 509.49093c-8.93539 1.72407-16.74338 7.10222-25.47252 9.6743-18.0428 5.31658-39.20374-3.26845-48.44269-19.65282-7.74129-13.72861-7.17473-30.43426-6.45149-46.17843.97291-21.18731 1.82613-42.59483-2.04822-63.44754-3.87411-20.85288-12.932-41.392-28.901-55.35027-3.46987-3.033-7.31214-5.82109-9.69577-9.76542-2.68181-4.43854-3.104-9.30982-2.41662-14.35264H244.6518v41.35541h14.70414v33.0843h22.0562V328.79828h18.0304s1.26236 27.40317 3.4733 34.93053c0 0-.75753 27.42072-2.49018 38.38155 0 0-1.01709 3.10858 2.37457 2.90585 3.39141-.20257 9.95035-.00792 9.95035-.00792l-.25115 16.9955s-2.14269-.76741-2.96758 2.59363-3.34242 14.26642-5.2689 18.76465c-1.92673 4.49823-9.90422 19.23152-9.19062 21.66813s1.40671 5.9937 9.29162 6.54041c7.8849.54655 22.6221-24.03829 23.71064-25.6003 1.08812-1.56184 7.18281-9.66646 8.44892-10.58026a6.87792 6.87792 0 001.69338-8.45726 2.60834 2.60834 0 00-.4329-1.88165c-.60729-.60738-4.46957-7.69507-5.18031-8.07613a.94976.94976 0 00-1.15026.07194s-4.09-7.83208-4.06566-8.81414c0 0 1.9847-.83689 2.11779-2.5137l1.00745-20.86129h10.21367a327.60876 327.60876 0 01-.08476 34.18681c-1.08853 15.65631-3.83043 40.216-.39207 41.78128 0 0-2.52406 38.59252 1.91775 53.71225a52.18831 52.18831 0 00-30.39393-5.04723zM498.29768 366.3453c.751-1.27322 1.4855-2.5537 2.19192-3.845 3.06727-5.60579 5.73944-11.77976 5.25584-18.15148a25.35635 25.35635 0 00-2.607-9.01467l-4.84074 8.16831z"/><path fill="#68ca44" d="M418.35767,288.704a77.15956,77.15956,0,0,1,12.63249,15.84239,60.11453,60.11453,0,0,1,7.671,17.69914,69.63761,69.63761,0,0,1,1.43162,15.66677c.00326,8.24611-.58305,16.47982-1.169,24.70511a7.30744,7.30744,0,0,1-5.004-.50475l-1.40957-.42163s-16.76738-42.67385-26.348-47.9381c0,0,11.459-21.18584,11.96771-24.72218Z"/><path fill="#d5efc8" d="M405.745,173.75851s-22.17011,40.50251-44.67456,47.37066c0,0,20.82553,7.0841,23.17266,7.94467,0,0,19.19183-29.91931,21.10248-32.13328A198.75947,198.75947,0,0,1,405.745,173.75851Z"/><path fill="#68ca44" d="M418.71292,380.72407s6.89615,12.93622,10.78218,12.23225l.42212.48393c.49985,20.40185,7.42523,40.40347,6.42586,60.78687a2.28954,2.28954,0,0,1-1.70424,2.459c-2.86437,1.35479-15.99173,3.98418-19.05638,4.789a157.65723,157.65723,0,0,0,9.95827-21.2416c1.06061-2.79057,5.15827-6.768,6.05689-9.78722.49356-1.65819-.61922-5.31945-1.24775-6.05428,0,0-6.03525-9.86592-8.08134-8.293,0,0-5.007-6.20769-6.81589-11.00646-.27311-.72446,4.8138-1.955,5.31446-2.54554.83216-.98165.77909-2.41351.66347-3.69514a166.19281,166.19281,0,0,0-2.71765-18.1278Z"/><path fill="#47a920" d="M394.578 212.48159q3.08151.492 6.14923 1.06632l.06214-.34414A5.6896 5.6896 0 00398.213 211.347c-1.33176-.42016-2.7646-.41485-3.48114.78382zM327.21451 408.22456a11.17239 11.17239 0 01-.75247-3.132c1.03995.07993 3.0391.47927 3.04342 1.52224.00409.96679-1.17058 1.42337-2.11762 1.61794zM366.793 95.23762c.17105-.81941.65947-1.41071 1.09073-1.32065s.64216.82734.471 1.64676-.65947 1.41079-1.09082 1.32073C366.83277 96.79432 366.62179 96.057 366.793 95.23762zM393.18431 113.62041c.35868-.75631.97227-1.21639 1.3703-1.02762s.43.955.07128 1.71134-.97235 1.21647-1.37038 1.0277S392.82555 114.37671 393.18431 113.62041zM405.22015 339.30506a3.47386 3.47386 0 01.82056-1.32734 3.74815 3.74815 0 011.08211-.76286 3.68392 3.68392 0 011.28023-.33558 3.43978 3.43978 0 011.54419.23452 3.43963 3.43963 0 01-.819 1.33015 3.68114 3.68114 0 01-1.08345.76005 3.7473 3.7473 0 01-1.28129.33277A3.47451 3.47451 0 01405.22015 339.30506z"/><path fill="#47a920" d="M367.62646,90.299a12.29779,12.29779,0,0,1-1.5972,6.28949,23.09011,23.09011,0,0,1-1.81646,2.66506,10.33509,10.33509,0,0,0-1.4015,2.422,15.22692,15.22692,0,0,0-.66849,5.97063c.0763,2.11644.1957,4.23.18686,6.37355a9.44456,9.44456,0,0,0,.23586,2.8779,3.2805,3.2805,0,0,0,1.55892,1.78079,12.33365,12.33365,0,0,0,2.67932,1.0615c.98279.29576,1.95755.61133,2.94623.8838a56.78679,56.78679,0,0,0,5.92271,1.4861,7.67557,7.67557,0,0,0,5.7056-.97483l.15608.15421a5.76867,5.76867,0,0,1-2.65308,1.97723,9.12961,9.12961,0,0,1-3.33175.56615,28.5988,28.5988,0,0,1-6.41986-.95354,32.19059,32.19059,0,0,1-3.07019-.978,14.24779,14.24779,0,0,1-3.06054-1.49373,5.80451,5.80451,0,0,1-1.37205-1.30037,4.24971,4.24971,0,0,1-.77531-1.8087,9.40871,9.40871,0,0,1,.28244-3.39064,20.70869,20.70869,0,0,0,.29957-6.20877c-.20507-2.05955-.90247-4.18643-.37105-6.5467a7.71338,7.71338,0,0,1,1.60255-3.07179c.68509-.86285,1.349-1.59318,1.926-2.39754a22.57791,22.57791,0,0,0,2.8188-5.4184Z"/><path fill="#47a920" d="M364.93831,107.74705a11.43419,11.43419,0,0,0,1.92221.82939,13.63182,13.63182,0,0,0,1.69573.44247c.56916.1095,1.15921.197,1.80816.27917.65216.09363,1.34555.15474,2.17092.33625a4.04548,4.04548,0,0,1-1.95942,1.37513,4.76639,4.76639,0,0,1-2.44132.161,4.38163,4.38163,0,0,1-2.22928-1.16537A3.01521,3.01521,0,0,1,364.93831,107.74705Z"/><path fill="#47a920" d="M372.28475 107.61306a2.42236 2.42236 0 011.16912.7292 2.39431 2.39431 0 01.5266 1.01117 2.35577 2.35577 0 01-.00535 1.1396 2.40339 2.40339 0 01-.7116 1.18218 3.39446 3.39446 0 01-.98868-.89485 2.55612 2.55612 0 01-.42567-.91332 2.61246 2.61246 0 01-.03427-1.00775A3.42882 3.42882 0 01372.28475 107.61306zM370.3529 98.89685a4.50453 4.50453 0 01-.8235 2.04175 7.63608 7.63608 0 00-.7464 1.35739 3.01643 3.01643 0 00-.17482.803c-.00829.10729.15448.30774.4487.4659a3.62752 3.62752 0 01.9172.68509 9.88717 9.88717 0 01-1.06016.3823 1.86553 1.86553 0 01-1.40793-.207 2.40534 2.40534 0 01-.7729-2.90714 3.68424 3.68424 0 011.61862-1.83133A9.94518 9.94518 0 01370.3529 98.89685z"/><path fill="#47a920" d="M387.9058,77.69952a6.0829,6.0829,0,0,0-2.8595,1.22166c-.85589.61254-1.61647,1.367-2.45577,2.08177a9.7367,9.7367,0,0,1-2.87046,1.79351c-1.04946.42868-2.12006.70751-3.13551,1.02013a13.72135,13.72135,0,0,0-5.38166,2.88151,13.47762,13.47762,0,0,0-3.54458,4.86771l-1.43469,3.367-.35527-3.65594a12.38359,12.38359,0,0,1,1.55517-7.06621,16.249,16.249,0,0,1,4.794-5.27155,25.59716,25.59716,0,0,1,6.19686-3.21984,16.26382,16.26382,0,0,1,3.42839-.84766,16.70625,16.70625,0,0,1,3.50522-.03554c1.15038.09577,2.27667.26932,3.39386.43772,1.12013.15822,2.24213.32634,3.36065.52887a24.99324,24.99324,0,0,1,6.596,1.86633c2.15593,1.03647,3.57376,3.04528,4.84408,4.86563l3.94829,5.50126.00536.00743.01713.02784A39.8269,39.8269,0,0,1,411.56,97.72331c.9761,3.32271,1.83173,6.63618,3.01718,9.77263a57.67183,57.67183,0,0,0,4.69041,8.97984,28.103,28.103,0,0,1,3.98618,9.90354c.53316,3.71545-.32367,7.16887.113,10.31134.39877,3.1434,2.1993,6.04118,3.9819,8.9678a31.77472,31.77472,0,0,1,4.22244,9.59017,27.69926,27.69926,0,0,1,.53865,10.37452l-.21859-.019a29.89491,29.89491,0,0,0-1.39776-10.0542,27.87262,27.87262,0,0,0-1.93827-4.64978,46.76981,46.76981,0,0,0-2.67249-4.30289c-1.89772-2.813-4.01456-5.84735-4.63312-9.59245-.58014-3.69558.246-7.16051-.31965-10.277-.44736-3.17332-2.00507-6.156-3.63668-9.13351a59.51983,59.51983,0,0,1-4.63231-9.39c-2.36663-6.63873-2.89456-13.59831-6.13047-19.55589l.02222.03487L402.876,82.99048c-1.22293-1.88051-2.49646-3.76143-4.48453-4.72327a21.63748,21.63748,0,0,0-6.40755-1.73106,64.69533,64.69533,0,0,0-6.69241-.61923,14.168,14.168,0,0,0-6.33071,1.202,27.32737,27.32737,0,0,0-5.625,3.31194,15.65947,15.65947,0,0,0-4.18469,4.73184,10.52621,10.52621,0,0,0-1.41917,5.94614l-1.79-.28894a14.71666,14.71666,0,0,1,10.28865-8.3137c1.07033-.25105,2.11443-.45063,3.0932-.77618a9.72941,9.72941,0,0,0,2.73045-1.417c.86741-.60986,1.71661-1.31181,2.67825-1.87609a6.03967,6.03967,0,0,1,3.16522-.95656Z"/><path fill="#47a920" d="M386.825,98.95916a24.83,24.83,0,0,0-.67144-4.27,19.88637,19.88637,0,0,0-1.44487-3.90841c-.608-1.22875-1.41381-2.339-2.12112-3.74141a8.67439,8.67439,0,0,1-1.01545-4.58373l.14055-1.60015.60236,1.43544c.993,2.36742,3.12346,3.97467,4.79937,6.12624a8.80676,8.80676,0,0,1,1.74954,3.84751,14.75974,14.75974,0,0,1,.12984,4.18081c-.2811,2.7431-1.12334,5.20416-1.54125,7.63423a10.75906,10.75906,0,0,0,.86874,7.21706l-.167.14195a7.33466,7.33466,0,0,1-2.18833-3.44164,12.14932,12.14932,0,0,1-.47841-4.11883,64.21751,64.21751,0,0,1,1.25426-7.719,10.98315,10.98315,0,0,0-.81359-7.00208c-1.08881-2.26168-2.95882-4.196-4.31507-6.51765l.74264-.16472a6.45437,6.45437,0,0,0,1.639,3.69571c.43263.55759.884,1.12548,1.3244,1.74679a11.91522,11.91522,0,0,1,1.13164,2.04556,12.66773,12.66773,0,0,1,.59166,9.02482Z"/><path fill="#47a920" d="M381.85725,81.9927a26.53043,26.53043,0,0,0,4.05459,3.758,12.31832,12.31832,0,0,1,3.68084,4.51284c1.59373,3.74022,1.08667,7.70545,2.35324,10.77777a7.29821,7.29821,0,0,0,1.21008,2.06136,6.69384,6.69384,0,0,0,1.859,1.47245,7.79079,7.79079,0,0,0,1.164.50833,3.39978,3.39978,0,0,1,.86151.472,2.6265,2.6265,0,0,1,.69071.83775,5.27143,5.27143,0,0,1,.48752,1.61956,8.59983,8.59983,0,0,1,.07282,1.55162,8.38851,8.38851,0,0,1-2.31174,5.46338,4.41466,4.41466,0,0,1-2.62176,1.48583,1.725,1.725,0,0,1-.81118-.16143,1.36836,1.36836,0,0,1-.56248-.57927.98848.98848,0,0,1,.25-1.33852.8277.8277,0,0,0,.02918,1.16028.93306.93306,0,0,0,1.02215.31531,3.85054,3.85054,0,0,0,1.87348-1.5796,7.61747,7.61747,0,0,0,1.42078-4.768,6.79362,6.79362,0,0,0-.17-1.2125,3.73975,3.73975,0,0,0-.35473-1.017c-.15982-.226-.185-.23117-.5705-.3748a9.71167,9.71167,0,0,1-1.41007-.53142,8.304,8.304,0,0,1-2.51922-1.89892,9.34151,9.34151,0,0,1-1.64513-2.67363c-1.44353-3.90432-.79887-7.72753-1.90481-10.96751C387.04214,87.6388,383.42876,85.45389,381.85725,81.9927Z"/><path fill="#47a920" d="M387.6437 118.95953a4.656 4.656 0 01.91907-1.373 7.13352 7.13352 0 01.98039-.861 8.7797 8.7797 0 011.02241-.63764l1.363-.71374a2.18331 2.18331 0 01-.02142 1.79712 3.20458 3.20458 0 01-1.076 1.32842 3.51646 3.51646 0 01-1.49091.6195A3.39258 3.39258 0 01387.6437 118.95953zM400.2805 92.86651a5.10437 5.10437 0 012.32539 1.77116 12.917 12.917 0 011.47352 2.57042 22.90384 22.90384 0 011.68662 5.65c.64654 3.91865.42621 7.7691.7049 11.51333a51.61525 51.61525 0 001.68662 11.07915 30.6742 30.6742 0 004.91021 10.11831 22.54285 22.54285 0 01-6.53525-9.58114 34.22641 34.22641 0 01-1.56267-5.6746 52.81714 52.81714 0 01-.687-5.81315c-.09451-1.93955-.114-3.88659-.09558-5.79241.03641-1.90775.01687-3.78478-.11324-5.63906a27.44724 27.44724 0 00-1.0002-5.49116C402.562 95.79621 401.91545 93.95559 400.2805 92.86651z"/><path fill="#47a920" d="M410.73165 116.56252c1.7897 2.07615 2.51173 4.932 2.83754 7.59682.3558 2.69545.34777 5.35549.74827 7.85905a27.23 27.23 0 002.15084 7.3054 25.48619 25.48619 0 004.3053 6.50795 15.6896 15.6896 0 01-5.81308-5.6983 20.99243 20.99243 0 01-2.81077-7.78984 57.44141 57.44141 0 01-.28163-8.06974A21.28977 21.28977 0 00410.73165 116.56252zM398.07879 128.03656c2.11765 2.54378 3.02708 5.87927 4.66364 8.43912a18.40083 18.40083 0 006.85223 5.94112c2.71037 1.57217 5.72219 2.8281 8.515 4.63419 2.76271 1.75589 5.43507 4.14815 6.58746 7.25963a20.54018 20.54018 0 00-7.43987-5.77567c-2.81612-1.42319-5.83544-2.57792-8.7458-4.21274a24.08564 24.08564 0 01-4.12017-2.92983 14.06977 14.06977 0 01-3.13524-4.08142C399.72043 134.21461 399.40185 131.01746 398.07879 128.03656zM386.15064 81.19638A8.53962 8.53962 0 01388.84923 78.56a5.57233 5.57233 0 014.049-.71005 8.75484 8.75484 0 013.44071 1.76961c.95334.74184 1.76666 1.49032 2.80166 2.22393a7.58553 7.58553 0 01-3.66023-.72839 19.48577 19.48577 0 00-3.04208-1.12147 5.8981 5.8981 0 00-2.905.14289C388.48032 80.4048 387.38294 80.87672 386.15064 81.19638zM405.59924 66.01372a5.36828 5.36828 0 012.63836.982 7.38281 7.38281 0 013.01209 4.61786 5.33505 5.33505 0 01-.17027 2.8113c-.57077-.79177-.99778-1.5116-1.443-2.20231l-1.28263-2.01277-1.32092-1.98854C406.5815 67.53388 406.09425 66.85348 405.59924 66.01372zM367.22676 90.14751a2.00387 2.00387 0 01.83341-1.06538 2.09979 2.09979 0 011.10433-.31966 2.07156 2.07156 0 011.10594.31149 1.992 1.992 0 01.83823 1.06445 4.43807 4.43807 0 01-1.08319.64259 2.29758 2.29758 0 01-.85589.17394 2.36777 2.36777 0 01-.85723-.17287A4.51093 4.51093 0 01367.22676 90.14751zM378.091 92.43335a6.39733 6.39733 0 012.15191-.78448 6.7536 6.7536 0 012.23758-.09745A3.3237 3.3237 0 01384.79465 92.93a3.0529 3.0529 0 01.45994 2.40926 13.42219 13.42219 0 00-1.68609-1.19657 3.89533 3.89533 0 00-1.42131-.42433 16.769 16.769 0 01-1.98111-.35272A7.02976 7.02976 0 01378.091 92.43335zM366.77619 90.07328a5.093 5.093 0 01-1.28906 3.22981 21.88683 21.88683 0 00-1.7755 2.40719 11.28841 11.28841 0 00-1.103 2.6156 16.05338 16.05338 0 00-.533 3.12493 5.27676 5.27676 0 01-1.1809-3.31588 6.70786 6.70786 0 01.9255-3.53334 8.28639 8.28639 0 012.46032-2.52243A14.11642 14.11642 0 00366.77619 90.07328zM351.00576 88.104a3.73737 3.73737 0 01.47868 1.73153 4.65512 4.65512 0 01-.23131 1.61119 4.591 4.591 0 01-.76915 1.4341 3.7003 3.7003 0 01-1.417 1.10661 5.00627 5.00627 0 01-.18579-1.743 5.91179 5.91179 0 01.28967-1.48389 6.03591 6.03591 0 01.65216-1.36469A5.0784 5.0784 0 01351.00576 88.104zM366.91728 121.18165a7.6263 7.6263 0 01-1.08238 2.09195 14.5947 14.5947 0 01-1.57391 1.88814 35.39138 35.39138 0 01-3.66907 3.20833c-2.5136 1.98941-5.0023 3.96978-6.37462 6.67868a20.88359 20.88359 0 00-2.08284 8.89853c-.10147 3.11469.19918 6.292.33893 9.52371a40.09316 40.09316 0 01-.61013 9.76794 37.44188 37.44188 0 01-3.19976 9.20546 36.83836 36.83836 0 01-2.44212 4.20665q-.67947 1.01016-1.4264 1.97227a14.88045 14.88045 0 00-1.36589 1.91592 4.23962 4.23962 0 00-.4155 1.02168 1.81328 1.81328 0 00-.04792.93039c.07683.17763.29422.27166.64172.28813a6.709 6.709 0 001.11129-.10247 20.689 20.689 0 014.933.027c3.19574.30961 6.43967.85636 9.15379-.23466 2.716-1.044 4.48266-3.72823 5.36051-6.58036.90622-2.87321.865-6.02766.85777-9.23344a49.11468 49.11468 0 01.1617-4.91349 32.369 32.369 0 01.86526-4.91489c1.66119-6.402 4.696-12.12191 5.77359-18.29226a18.77491 18.77491 0 00-2.20037-13.526A37.33987 37.33987 0 00366.91728 121.18165zm-.03694-.21618a19.39345 19.39345 0 013.33736 3.65849 18.20757 18.20757 0 012.32754 4.33957 20.51619 20.51619 0 01.98788 9.82229c-.80664 6.6171-3.77107 12.53988-5.21273 18.607a32.68443 32.68443 0 00-.8069 4.56719c-.14564 1.5363-.16572 3.112-.20427 4.71424-.07389 3.18878-.07523 6.57782-1.1809 9.85153A14.28007 14.28007 0 01363.69 181.062a9.62971 9.62971 0 01-4.27813 3.03826 11.70381 11.70381 0 01-5.09225.50612c-1.66092-.141-3.24447-.4677-4.81731-.711a19.678 19.678 0 00-4.67515-.281 7.42759 7.42759 0 01-1.28986.04169 1.98359 1.98359 0 01-.73623-.20487 1.26673 1.26673 0 01-.59272-.652 2.41982 2.41982 0 01.0506-1.44065 5.00637 5.00637 0 01.52392-1.18947 18.91412 18.91412 0 011.469-1.97475q.7389-.93578 1.4165-1.91746a30.38736 30.38736 0 004.99079-13.23869 40.30889 40.30889 0 00-.00723-9.4515 72.01935 72.01935 0 01-.4578-9.72484 21.30818 21.30818 0 012.53689-9.6379 14.76781 14.76781 0 013.24393-3.87 39.06572 39.06572 0 013.92528-2.92408 46.24162 46.24162 0 003.84951-2.81076 13.95655 13.95655 0 001.67885-1.65858c.27308-.28746.48431-.6191.73355-.92865z"/><path fill="#47a920" d="M394.033,116.13451a22.63378,22.63378,0,0,0,2.44641,20.38187,26.58052,26.58052,0,0,0,7.69339,7.12269c2.977,1.96337,6.192,3.66237,9.3313,5.48379,3.15772,1.79618,6.3184,3.63921,9.33464,5.72908,2.98893,2.07609,6.04907,4.30242,8.26939,7.36538a20.48425,20.48425,0,0,1,3.447,10.461c.30052,3.66084.08862,7.30849.08313,10.93037-.04913,3.6257.0431,7.25494.13332,10.89055.07055,3.6356.12556,7.281-.00415,10.9378-.28726,7.32314-1.3161,14.65237-4.47235,21.64448a2.94184,2.94184,0,0,1-.6614.8227,2.5762,2.5762,0,0,1-1.03017.5171,7.48612,7.48612,0,0,1-1.59667.13894l-2.72362.06894-5.44712.13761a40.45011,40.45011,0,0,1-5.597-.11419,11.332,11.332,0,0,1-5.63064-2.03277,12.53174,12.53174,0,0,1-3.61927-4.70012c-.83662-1.7073-1.46093-3.41755-2.20519-5.00277a10.90234,10.90234,0,0,0-2.77837-4.03591,3.92453,3.92453,0,0,0-.93407-.53938,4.49261,4.49261,0,0,0-1.06846-.26952,1.391,1.391,0,0,0-1.484.52921l-.019.02971a.91666.91666,0,0,1-1.5624-.95876,96.71467,96.71467,0,0,1,8.35359-11.89489,97.75617,97.75617,0,0,1,9.96685-10.51112l.15474.15547a130.05705,130.05705,0,0,0-9.16745,11.09435,119.056,119.056,0,0,0-7.71936,12.07312l-1.58141-.929a2.98525,2.98525,0,0,1,1.46495-1.27132,3.908,3.908,0,0,1,1.76934-.23479,6.334,6.334,0,0,1,1.57954.33954,5.91036,5.91036,0,0,1,1.44513.76821,12.76518,12.76518,0,0,1,3.54914,4.70862c.82992,1.689,1.47405,3.39171,2.26355,4.93436a10.277,10.277,0,0,0,2.98772,3.83057,9.10344,9.10344,0,0,0,4.50515,1.59359,43.27957,43.27957,0,0,0,5.28876.12743l5.44872-.04243,2.72429-.02128a6.5167,6.5167,0,0,0,1.11505-.05194c.20119-.066.178-.03333.36757-.31028a10.8,10.8,0,0,0,.49836-1.12562l.50652-1.2295c.35473-.81319.59313-1.67289.89659-2.5075.54507-1.69171,1.00233-3.41554,1.39146-5.15945a80.19372,80.19372,0,0,0,1.49855-10.66072c.29435-3.59651.41723-7.21926.4835-10.84777l.16906-10.90353.14885-5.44471a52.5653,52.5653,0,0,0-.20159-5.40669,18.35724,18.35724,0,0,0-3.64444-9.84022c-2.21014-2.74872-5.22812-4.749-8.277-6.65211-3.06443-1.88888-6.224-3.63888-9.3847-5.42549-3.16764-1.77925-6.33259-3.57477-9.40947-5.63265a26.98013,26.98013,0,0,1-7.96459-7.81587,23.12367,23.12367,0,0,1-3.39573-10.57879,21.75315,21.75315,0,0,1,2.063-10.75267Z"/><path fill="#47a920" d="M377.23217 166.33783c2.95078-.42621 5.82285-.85744 8.65959-1.53168 1.41836-.32387 2.825-.70965 4.22458-1.12094a12.91419 12.91419 0 003.95874-1.78366 8.67142 8.67142 0 01-3.66639 2.58782 26.9809 26.9809 0 01-4.26849 1.38417A24.35179 24.35179 0 01377.23217 166.33783zM377.95715 146.757a16.71058 16.71058 0 013.96516-.99759c1.32038-.19141 2.61667-.31008 3.88431-.44708 1.26416-.13781 2.508-.29349 3.74724-.52982a27.74747 27.74747 0 003.79811-.99617 7.75272 7.75272 0 01-3.2608 2.63474 12.9826 12.9826 0 01-4.05137 1.07127 20.159 20.159 0 01-4.0776-.01486A25.50521 25.50521 0 01377.95715 146.757zM372.55166 138.05682a36.86423 36.86423 0 0011.62162.58517 32.81971 32.81971 0 005.67186-.65852 10.25513 10.25513 0 004.95492-2.68267l.06585-.06733-.01767.08079-.026.11759-.026-.11759.04819.01352a7.64991 7.64991 0 01-4.44759 4.29164 18.34724 18.34724 0 01-6.09138 1.21 24.63544 24.63544 0 01-6.12725-.32528A12.51444 12.51444 0 01372.55166 138.05682zM351.30239 148.23122a21.68694 21.68694 0 00-7.62968 6.54436 33.19815 33.19815 0 00-4.53808 8.92061 44.27513 44.27513 0 00-1.36616 4.84241q-.58509 2.45012-.9429 4.95491c-.48725 3.32626-.74506 6.70572-.95548 10.1046-.40506 6.78409-.52607 13.58425-.28566 20.37738l.05408 1.2732.023.637c.00723.16277-.0016.04551-.00749.06452a.07585.07585 0 00-.02249-.02343.07455.07455 0 00-.05542-.0085l.58952.00322 1.28129.00221 5.12492.02362c3.41714.02115 6.8359.09825 10.25625.187l-.27548.26223c.192-1.71961.41336-3.43722.64868-5.15376-.0091 1.7326-.03266 3.4642-.08513 5.19372l-.0075.24362-.26825.01888c-3.41393.24047-6.82947.4693-10.24662.64218l-5.12652.25112-1.28156.05917c-.2364.0081-.37668.02362-.692.02563a1.71564 1.71564 0 01-1.53751-1.10969 1.99556 1.99556 0 01-.113-.56475l-.053-.64252-.09183-1.28611a151.17666 151.17666 0 01.01553-20.61438c.43638-6.81689 1.30512-13.84073 3.89957-20.32759a31.05917 31.05917 0 015.28849-8.97724A20.62454 20.62454 0 01351.30239 148.23122z"/><path fill="#47a920" d="M353.1566 183.81931a13.22347 13.22347 0 01.90409 3.34453 20.35926 20.35926 0 01.19784 3.3725 20.03807 20.03807 0 01-.35714 3.35925 13.06692 13.06692 0 01-1.06712 3.29694 16.09711 16.09711 0 01-.6551-3.38154 27.53808 27.53808 0 01-.11244-3.32746 28.16026 28.16026 0 01.27548-3.31815A16.33264 16.33264 0 01353.1566 183.81931zM355.09916 168.05115a24.10973 24.10973 0 002.81-10.57711c.22462-3.65254-.02891-7.3544-.02356-11.14635.04766-3.76518.33412-7.73021 1.88447-11.35712a17.12268 17.12268 0 013.09936-4.93068 11.582 11.582 0 014.75627-3.16188 15.7138 15.7138 0 00-6.25174 8.689 35.37561 35.37561 0 00-1.29655 10.77523 80.11882 80.11882 0 01-.47333 11.31487C359.05014 161.41879 357.74314 165.29346 355.09916 168.05115zM376.24425 98.40467c.42424-1.37046 1.41642-2.28092 2.21608-2.03336s1.104 1.55923.6798 2.92977c-.42432 1.37062-1.41651 2.281-2.21617 2.03352S375.81992 99.77529 376.24425 98.40467zM369.63676 267.74151a14.07024 14.07024 0 011.92355.17294c.56327.08514 1.45236.31484 1.40872.15233a2.30515 2.30515 0 00.257-.29556 4.33256 4.33256 0 00.31885-.58831 7.96716 7.96716 0 00.4918-1.4968c.2787-1.08908.49153-2.2993.83608-3.51072a7.6225 7.6225 0 011.78032-3.45047c-.12636 1.29923-.05033 2.46286-.07442 3.70306a16.38335 16.38335 0 01-.41764 3.80066 6.76271 6.76271 0 01-.80476 1.96732 4.41294 4.41294 0 01-.74988.92121 2.42192 2.42192 0 01-1.31395.63744 2.00412 2.00412 0 01-1.32039-.33813l-.79967-.50371A14.07063 14.07063 0 01369.63676 267.74151z"/><path fill="#47a920" d="M370.31756 260.03486a1.9308 1.9308 0 011.8344 1.092 2.50433 2.50433 0 01.29422 1.18237 4.03531 4.03531 0 01-.14537 1.0283c-.15929.565-.27976.86915-.36356 1.12817-.03159.13144-.12556.23184-.03828.43156a.65849.65849 0 00.56943.47319.91855.91855 0 01-1.0615.4847 1.575 1.575 0 01-.63824-.28271 1.783 1.783 0 01-.4685-.56421 3.05182 3.05182 0 01-.11753-2.23638 10.07758 10.07758 0 00.32126-1.15815A3.325 3.325 0 00370.31756 260.03486zM369.02288 258.72492a1.69989 1.69989 0 01-.62967-1.97241 2.63062 2.63062 0 011.54687-1.64553 2.97623 2.97623 0 011.09229-.21712 2.07827 2.07827 0 011.30512.40934 1.64883 1.64883 0 01.41844 2.09155c-.54614-.42715-1.03767-.69058-1.24622-.57881a.98548.98548 0 01-.26826.14765c-.15206.05515-.32634.11284-.47386.17763a4.97793 4.97793 0 00-.8599.42781A2.294 2.294 0 00369.02288 258.72492zM337.418 253.53642a8.74252 8.74252 0 01-.57774 7.79044 9.14478 9.14478 0 00-.84812 1.47807.82641.82641 0 00.19623.87437 8.71026 8.71026 0 001.22829 1.08613 8.21959 8.21959 0 011.48021 1.47806 8.728 8.728 0 011.64352 3.77683 20.485 20.485 0 00.67036 3.70467c.42889 1.13312 1.22883 2.16182 1.67779 3.44834a17.93786 17.93786 0 01.54132 3.863c.11244 1.18036.57292 2.36675 1.25319 2.60957.67866.31818 1.86572.03922 3.11141-.22675a25.22469 25.22469 0 006.83242-2.28 11.519 11.519 0 001.44567-.92041c.45111-.33773.92363-.78308 1.522-1.194a8.48149 8.48149 0 011.90213-.96553 10.99681 10.99681 0 001.62076-.69994 9.53179 9.53179 0 004.43474-5.45662l.21632.0352a8.95157 8.95157 0 01-3.71887 6.87539 11.99508 11.99508 0 01-1.75944 1.03406 6.4 6.4 0 00-1.416.87463c-.41577.352-.85215.797-1.39321 1.2489a13.81387 13.81387 0 01-1.70429 1.20527 21.4448 21.4448 0 01-7.612 2.27252 19.43056 19.43056 0 01-1.99262.24148 4.08659 4.08659 0 01-2.35163-.50974 3.23715 3.23715 0 01-1.39963-2.00734 7.26367 7.26367 0 01-.19061-2.08766 13.20327 13.20327 0 00-.05408-3.6945 24.5183 24.5183 0 00-1.62237-3.39412c-.54694-1.22468-.76968-2.53315-1.19295-3.66091a8.24852 8.24852 0 00-1.85314-2.90821 10.13107 10.13107 0 00-1.28879-1.11933 7.25015 7.25015 0 01-1.58194-1.4608 2.963 2.963 0 01-.55284-1.27728 2.66183 2.66183 0 01.16652-1.42733 9.05689 9.05689 0 011.163-1.7399 10.115 10.115 0 001.7921-6.81113z"/><path fill="#47a920" d="M342.849 272.57648a8.67692 8.67692 0 012.01189-.89725l1.7739-.54387c.53677-.16946 1.066-.35151 1.60523-.57988a8.35667 8.35667 0 001.76-.97716 2.74274 2.74274 0 01-.67385 2.31669 4.31131 4.31131 0 01-2.04375 1.335 5.2947 5.2947 0 01-4.4334-.6535zM341.281 254.76305a.90638.90638 0 00-1.08714.40742 1.62294 1.62294 0 00-.146.65735 5.137 5.137 0 00.49087 2.85163 2.2791 2.2791 0 001.08935 1.03767.80476.80476 0 00.49119.0614c.37224-.09406.5183-.53855.57595-.91813a8.45972 8.45972 0 00.03347-2.29594 2.87159 2.87159 0 00-.40113-1.27249A1.02932 1.02932 0 00341.281 254.76305zM356.96167 281.33874a25.074 25.074 0 013.30578 8.35051 13.06834 13.06834 0 01.19543 2.33262c.00535.78616-.12583 1.6367-.076 2.10748a1.94756 1.94756 0 00.683 1.233 13.32751 13.32751 0 001.57685 1.24194 19.918 19.918 0 007.61737 3.24608 6.26606 6.26606 0 003.91162-.2024 14.96167 14.96167 0 003.5079-2.47866 10.95168 10.95168 0 01-2.98666 3.42116 5.8678 5.8678 0 01-2.2764.89993 9.63353 9.63353 0 01-2.38643.05582 17.66265 17.66265 0 01-4.522-.99524 19.14225 19.14225 0 01-4.12552-2.15338 15.05486 15.05486 0 01-1.84324-1.53456 4.9303 4.9303 0 01-.83581-1.1299 3.3759 3.3759 0 01-.38846-1.49641 7.231 7.231 0 01.11057-1.2667c.05354-.35339.08754-.67827.11833-1.02228a19.02337 19.02337 0 00.02516-2.07026A54.14755 54.14755 0 00356.96167 281.33874zM308.75 303.1272a13.616 13.616 0 005.01006.46569 22.24634 22.24634 0 012.62015.0419 19.90925 19.90925 0 012.595.44562 25.89566 25.89566 0 004.90806.85749 7.54836 7.54836 0 001.16565-.06733c.40345-.03614.76326-.15862.706-.17964a.48291.48291 0 00-.01151-.35325 1.89191 1.89191 0 00-.555-.657l.34616.18513-.1933-.04779a.85371.85371 0 01.04043-1.66654l.01124-.002a2.82457 2.82457 0 011.76105.31136 3.72735 3.72735 0 00.98841.37079 5.31942 5.31942 0 002.12166-.16813 8.92048 8.92048 0 001.07489-.29958 1.00649 1.00649 0 00.279-.15755c.04578-.04645-.00937.00067-.01633.06118-.00937.05809.02249.12315.0008.08486a.65948.65948 0 00-.18205-.1455 9.43384 9.43384 0 01-1.21169-.62833.97079.97079 0 01.90061-1.70349l.03239.01245a6.821 6.821 0 002.00654.41965 4.14877 4.14877 0 00.91533-.02932.71023.71023 0 00.20909-.07376.35449.35449 0 00-.07764.15367c-.01847.09263.0265.17322.00375.12516a1.14716 1.14716 0 00-.207-.22823c-.25728-.225-.55123-.47493-.84036-.69339a12.904 12.904 0 00-1.86466-1.18063l-.03989-.02075a.91161.91161 0 01.4993-1.71714c.71855.06251 1.16591-.04431 1.3335-.27829a.24582.24582 0 00.03935-.28177 1.57342 1.57342 0 00-.502-.56422 16.85463 16.85463 0 00-4.02058-1.86907c-2.95105-.94732-5.90719-1.91163-8.88527-2.80554l-.02463-.00736a.38209.38209 0 01-.05382-.71106 16.24949 16.24949 0 005.00739-3.82461c.35125-.3973.68937-.80677 1.0093-1.23017.32715-.41161.54427-.829.39381-1.13217a1.04407 1.04407 0 00-.994-.53129 3.04133 3.04133 0 00-1.33376.50237 80.18412 80.18412 0 00-10.51889 7.37562 40.53912 40.53912 0 00-8.352 9.44855 27.72212 27.72212 0 00-4.01978 11.7109 91.96114 91.96114 0 00-.34214 12.74376q.12046 6.4477.43905 12.89354c.207 4.29713.48618 8.59266.80476 12.88966q.52285 6.44067 1.16243 12.88724l-.21685.03334a224.39807 224.39807 0 01-3.71833-25.67652c-.37025-4.31373-.64091-8.63764-.77691-12.96689a73.75248 73.75248 0 01.40371-13.10745 32.77467 32.77467 0 011.58757-6.49175 28.91027 28.91027 0 013.00673-5.98161 38.96645 38.96645 0 019.13774-9.4851 94.95564 94.95564 0 0111.02326-6.94245 3.72761 3.72761 0 011.68983-.55605 1.76205 1.76205 0 011.65744.98641 1.35281 1.35281 0 01-.01981 1.04878 3.293 3.293 0 01-.47493.76273c-.33465.4341-.68776.85389-1.05507 1.26108a18.46572 18.46572 0 01-5.15544 4.07132l-.07817-.71816c3.01316.81761 6.056 1.53871 9.08981 2.32419a17.75338 17.75338 0 014.53781 1.81165 3.138 3.138 0 011.07248 1.13 1.95969 1.95969 0 01-.08326 1.9427 2.48641 2.48641 0 01-1.42988 1.03753 4.45394 4.45394 0 01-1.44434.132l.45941-1.73776a14.77911 14.77911 0 012.18109 1.28143 12.43641 12.43641 0 011.00876.7899 3.00689 3.00689 0 01.571.66046 1.76488 1.76488 0 01.25058 1.2548 1.718 1.718 0 01-.7389 1.09764 2.561 2.561 0 01-.88239.37012 5.72647 5.72647 0 01-1.44648.082 8.10838 8.10838 0 01-2.61051-.57l.93272-1.6909c.13841.12368.514.24068 1.03687.5357a2.50776 2.50776 0 01.75979.69 1.74957 1.74957 0 01-.30734 2.40718 2.84971 2.84971 0 01-.81494.472 10.06236 10.06236 0 01-1.36884.37025 6.71272 6.71272 0 01-2.90339.10334 5.45171 5.45171 0 01-1.36857-.54346 1.34567 1.34567 0 00-.67278-.21739l.05167-1.66855.19169.05421.03159.009a.7875.7875 0 01.31483.17629 3.45012 3.45012 0 01.98761 1.36322 1.968 1.968 0 01-.4 2.05527 1.91448 1.91448 0 01-.95227.49193 5.75435 5.75435 0 01-.73836.09678 9.05881 9.05881 0 01-1.39856.00964 23.58074 23.58074 0 01-5.13669-1.20031 18.80108 18.80108 0 00-4.93457-.87424 12.62668 12.62668 0 01-5.08422-1.01558z"/><path fill="#47a920" d="M318.71181 301.57925a12.31572 12.31572 0 014.2393-.27976 12.6389 12.6389 0 014.3049 1.15734l-1.1967 1.83788a10.99123 10.99123 0 00-3.35021-1.92556A11.77424 11.77424 0 00318.71181 301.57925zM318.98541 297.30608a9.47144 9.47144 0 013.30524.38926l3.24179.7294c2.161.49836 4.31882 1.01518 6.4793 1.61139l-.75443 2.05942c-1.98378-.91493-4.01924-1.771-6.06192-2.60878l-3.07393-1.24194A9.69447 9.69447 0 00318.98541 297.30608zM317.95363 293.90808a138.39554 138.39554 0 0115.05777 2.81l-.70678 2.076A137.44109 137.44109 0 00317.95363 293.90808zM325.318 283.044a53.59547 53.59547 0 0111.95412-16.55444c-1.88687 2.86886-3.91081 5.58431-5.88443 8.34421C329.38677 277.57383 327.44555 280.34913 325.318 283.044zM359.24343 294.92875a61.55623 61.55623 0 01-6.22042 11.75614c-2.40972 3.71847-4.88022 7.33011-7.07042 11.10774a71.55262 71.55262 0 01-7.48136 11.03156c-2.97113 3.4055-6.63779 5.98335-10.18879 8.5845l.12047-.43143a50.31533 50.31533 0 014.04575 17.15346 158.65782 158.65782 0 01-.15555 17.58435c-.26263 5.82085-.63235 11.64036-1.04061 17.46134-.43157 5.81951-.92925 11.63982-1.63763 17.4442l-.219-.01164c-.09236-5.84494-.07389-11.67878.00375-17.51354.1012-5.8333.23211-11.6686.55926-17.49829l.51911-8.71688c.14135-2.8963.204-5.78644.16384-8.67-.12261-5.74254-.69526-11.57637-2.8959-16.95133l-.11137-.272.23211-.15983c3.61927-2.49218 7.207-5.15129 9.7409-8.70108 2.60248-3.492 4.42778-7.48124 6.65466-11.31883a119.38775 119.38775 0 017.45031-11.02073 111.6964 111.6964 0 007.33171-10.94951z"/><path fill="#47a920" d="M327.36577,408.12532a2.80566,2.80566,0,0,0,1.7739-1.11357.79865.79865,0,0,0-.08808-.80623,1.56071,1.56071,0,0,0-.797-.47774,8.16293,8.16293,0,0,0-2.20036-.19022l-2.32941-.05368q-4.65789-.07911-9.30479.004c-3.098.07443-6.19391.16692-9.28391.36892l-2.32111.1364a4.86466,4.86466,0,0,1-1.44808-.07068,2.40959,2.40959,0,0,1-1.51876-1.09483,4.368,4.368,0,0,1-.30761-2.89523l.3732-2.3013c.95253-6.14144,1.8609-12.31259,2.19581-18.5294.385-6.21238.34563-12.44444.17241-18.6583l1.59453.10749-.13172,1.28585-1.66413-.15528c.15688-5.1565.43959-10.30833.794-15.45546.34134-5.14821.78307-10.29079,1.39642-15.4141.59085-5.12237,1.2671-10.24609,2.22392-15.34155.50492-2.54185,1.07489-5.07271,1.752-7.5744a14.81523,14.81523,0,0,1,1.416-3.69263,6.30476,6.30476,0,0,1,1.23872-1.58769,2.96308,2.96308,0,0,1,1.85073-.77893l.01607.21873a3.72665,3.72665,0,0,0-2.51655,2.44961,15.28267,15.28267,0,0,0-.98948,3.6249c-.48082,2.51708-.854,5.05236-1.16243,7.59594-.65537,5.07968-1.07194,10.20339-1.57739,15.32174l-1.454,15.35507c-.47065,5.12023-.8915,10.24555-1.318,15.373l-1.66413-.15514.20213-1.27661,1.59452.10748c-.2388,6.24545-.70516,12.47042-1.10647,18.69244-.45164,6.21774-.68938,12.45823-1.24141,18.68494l-.20882,2.3345a2.85294,2.85294,0,0,0,.13279,1.66828c-.02142.43892,2.1064.112,3.56546.05823,3.12935-.15354,6.26352-.23345,9.395-.159q4.69723.07911,9.37413.52928l2.33342.24309a8.82449,8.82449,0,0,1,2.403.48978,2.2336,2.2336,0,0,1,1.07355.85362,1.39575,1.39575,0,0,1,.00589,1.41583,1.98881,1.98881,0,0,1-1.02937.79043,5.15969,5.15969,0,0,1-1.17046.28726Z"/><path fill="#47a920" d="M312.49915 422.00379a21.91268 21.91268 0 01-.78949-4.26152 37.36742 37.36742 0 01-.18071-4.25243 36.69919 36.69919 0 01.30332-4.24533 21.64488 21.64488 0 01.91827-4.23623 21.64723 21.64723 0 01.793 4.26153 36.76041 36.76041 0 01.1775 4.25243 37.3117 37.3117 0 01-.30654 4.24533A21.89329 21.89329 0 01312.49915 422.00379zM326.462 405.09248c.53677 1.00635 1.01545 1.8751 1.52759 2.75.49957.87383 1.00582 1.74766 1.46951 2.68279a20.54243 20.54243 0 011.18759 2.92174 12.9243 12.9243 0 01.62512 3.2019 12.91855 12.91855 0 01-2.17012-2.4357 20.50139 20.50139 0 01-1.60791-2.716 13.3579 13.3579 0 01-1.11344-3.052A6.33952 6.33952 0 01326.462 405.09248z"/><path fill="#47a920" d="M295.33739,464.95518a.8589.8589,0,0,1-.16438-.38525l-.03962-.299a5.00241,5.00241,0,0,1-.02168-.60437,6.05507,6.05507,0,0,1,.15045-1.19777,16.54988,16.54988,0,0,1,.72739-2.26341c.55123-1.46576,1.14021-2.91812,1.77925-4.34372l3.85754-8.48972a107.43594,107.43594,0,0,0,5.71952-17.55651l1.18331-4.53781a9.31593,9.31593,0,0,1,.98975-2.329,4.17213,4.17213,0,0,1,2.10319-1.76493,1.50514,1.50514,0,0,1,.94665.00817,1.57232,1.57232,0,0,1,.72257.54534,4.38537,4.38537,0,0,1,.56622,1.20379,9.354,9.354,0,0,0,.98012,1.984,6.6456,6.6456,0,0,0,3.35557,2.73634,5.1085,5.1085,0,0,0,4.21521-.56368,10.67853,10.67853,0,0,0,3.22385-3.126c.87812-1.2489,1.61113-2.62162,2.45979-3.95767a17.56151,17.56151,0,0,1,1.4173-1.94148,11.702,11.702,0,0,1,.84625-.88883,4.14812,4.14812,0,0,1,1.09979-.80864,1.78,1.78,0,0,1,1.68876.18071,3.76134,3.76134,0,0,1,.98546,1.01144l1.27836,1.995q1.26135,1.96632,2.48468,3.95526a8.30076,8.30076,0,0,1,1.18733,2.3444,2.4816,2.4816,0,0,1-.26772,1.7846,5.352,5.352,0,0,1-.911,1.08868l-3.32291,3.27565a60.26659,60.26659,0,0,0-6.10771,6.83162,36.88149,36.88149,0,0,0-2.4547,3.78378c-.748,1.32092-1.43175,2.708-2.17895,4.09394a44.17487,44.17487,0,0,1-12.2205,14.48793,7.20469,7.20469,0,0,1-2.25793,1.362,2.53212,2.53212,0,0,1-1.62719-.09959,11.82246,11.82246,0,0,1-1.11129-.56461,11.50446,11.50446,0,0,0-4.17613-1.388,6.66634,6.66634,0,0,0-4.1879.94745,6.81563,6.81563,0,0,0-1.6976,1.44567,6.51351,6.51351,0,0,0-.6468.92363,4.6993,4.6993,0,0,0-.25835.50545A3.49014,3.49014,0,0,1,295.33739,464.95518Zm.0075-.21913c.01472-.22609-.0498-.29475.03855-.49648a4.97989,4.97989,0,0,1,.20855-.56341,5.92887,5.92887,0,0,1,.57961-1.05815,7.40882,7.40882,0,0,1,1.68769-1.7387,7.24045,7.24045,0,0,1,4.65079-1.46883,12.73782,12.73782,0,0,1,4.73378,1.20366c.37373.16371.73221.3491.99966.42969a.93.93,0,0,0,.66233-.00522,6.904,6.904,0,0,0,1.62692-1.17528,46.35836,46.35836,0,0,0,11.238-14.23976,49.33347,49.33347,0,0,1,4.87915-8.163,62.33362,62.33362,0,0,1,6.49215-6.9304l3.41687-3.18865a3.99019,3.99019,0,0,0,.62994-.6551.57678.57678,0,0,0,.08915-.46516,7.43165,7.43165,0,0,0-.88239-1.817q-1.15413-2.02977-2.27507-4.07921L333.005,418.3113a2.57531,2.57531,0,0,0-.5788-.70222.52807.52807,0,0,0-.52473-.11927,3.25115,3.25115,0,0,0-.79057.54306,10.56155,10.56155,0,0,0-.80609.75885,16.55208,16.55208,0,0,0-1.432,1.75274c-.90274,1.23753-1.69384,2.58776-2.63808,3.865a12.06584,12.06584,0,0,1-3.49184,3.26589,5.94112,5.94112,0,0,1-4.76029.66528,7.68187,7.68187,0,0,1-3.88136-2.8959,10.33463,10.33463,0,0,1-1.231-2.115,3.46583,3.46583,0,0,0-.469-.87892c-.193-.17576-.20748-.163-.40211-.10588a3.00343,3.00343,0,0,0-1.29442,1.3086,7.95357,7.95357,0,0,0-.69124,2.011c-.30279,1.46147-.56221,3.05292-.89043,4.56753a74.96059,74.96059,0,0,1-5.954,17.85314c-1.37526,2.82308-2.88358,5.55072-4.35041,8.28693-.72257,1.37352-1.45879,2.73861-2.14495,4.12941a16.00972,16.00972,0,0,0-.91666,2.10238,7.18119,7.18119,0,0,0-.27415,1.09443,4.58665,4.58665,0,0,0-.05354.56167v.28311C295.44957,464.618,295.37487,464.61451,295.34489,464.73605Z"/><path fill="#47a920" d="M295.07235 465.03014a5.84063 5.84063 0 002.09222 3.71926 8.98632 8.98632 0 003.7981 1.87764A9.51737 9.51737 0 00308.9 469.1981a21.86208 21.86208 0 003.147-2.89014l1.47111-1.62947 1.40632-1.69c1.847-2.28042 3.57483-4.66967 5.23039-7.12356 3.3612-4.87005 6.52294-9.96431 10.29508-14.66543.94986-1.169 1.91632-2.32486 2.94007-3.43254 1.031-1.09443 2.123-2.17106 3.14782-3.19414a7.03177 7.03177 0 002.17333-3.56961 10.47686 10.47686 0 00-.46342-4.3298 9.41656 9.41656 0 011.04009 4.40182 7.82449 7.82449 0 01-1.9431 4.20825c-1.97762 2.29393-3.81845 4.52188-5.53077 6.94981-3.4209 4.81235-6.47609 9.90983-9.8512 14.87077-1.71232 2.46152-3.48541 4.90338-5.447 7.20936l-1.5126 1.69492-1.58168 1.63549a20.17622 20.17622 0 01-3.577 2.9734 10.09568 10.09568 0 01-4.514 1.589 11.6031 11.6031 0 01-4.66524-.55271 9.802 9.802 0 01-3.90252-2.48856A5.70864 5.70864 0 01295.07235 465.03014zM306.29534 437.82844a6.54042 6.54042 0 012.50075-1.27782 7.06836 7.06836 0 012.84208-.1787 5.95472 5.95472 0 012.71975 1.10916 3.96093 3.96093 0 011.59693 2.41789 14.80862 14.80862 0 00-2.3958-.88963 18.49724 18.49724 0 00-2.23812-.468c-.75818-.11217-1.541-.19169-2.372-.2791A17.95727 17.95727 0 01306.29534 437.82844zM304.76292 442.67131a5.76877 5.76877 0 012.44185-1.36576 6.68479 6.68479 0 012.83353-.17669 5.93433 5.93433 0 012.67717 1.12 4.09507 4.09507 0 011.5972 2.37371 19.10882 19.10882 0 00-4.613-1.32747c-.74425-.11753-1.50832-.20119-2.31977-.28C306.56546 442.923 305.71653 442.86742 304.76292 442.67131zM302.634 446.694a6.85474 6.85474 0 012.55644-1.63589 7.18156 7.18156 0 013.08223-.427 6.00555 6.00555 0 013.01423 1.1046 4.02276 4.02276 0 011.70268 2.62417 10.39154 10.39154 0 00-2.50075-1.09537 12.55765 12.55765 0 00-2.40624-.44923 25.37682 25.37682 0 00-2.56259-.07041C304.61836 446.74276 303.67893 446.79256 302.634 446.694z"/><path fill="#47a920" d="M300.8687 451.25112a4.62824 4.62824 0 012.20064-1.86652 6.09 6.09 0 012.90768-.4673 5.32759 5.32759 0 012.85735 1.05253 21.54048 21.54048 0 011.768 2.15566c-1.03125.17576-1.98968-.50545-2.6405-.66809a11.86945 11.86945 0 00-2.16905-.3554 18.55958 18.55958 0 00-2.31227-.04872C302.67205 451.06921 301.8531 451.16773 300.8687 451.25112zM282.55977 457.78865c.82216 1.424 1.51582 2.82723 2.25981 4.17117a35.73907 35.73907 0 002.41026 3.81484 22.81812 22.81812 0 002.95051 3.31127 22.35634 22.35634 0 003.744 2.73366 8.852 8.852 0 01-4.75466-1.35251 12.57236 12.57236 0 01-3.70816-3.396 15.08114 15.08114 0 01-2.21188-4.44638A14.49234 14.49234 0 01282.55977 457.78865zM286.14826 473.32322c.9263.595 1.71607 1.14784 2.52859 1.639.80181.49755 1.5972.94611 2.41053 1.36134.81413.41349 1.643.79553 2.51574 1.15387.87383.36985 1.7838.6879 2.80836 1.093a6.03193 6.03193 0 01-3.181.59072 8.28327 8.28327 0 01-5.69623-2.91531A6.06707 6.06707 0 01286.14826 473.32322zM311.53323 473.715c1.194-.921 2.36609-1.72129 3.51165-2.53823 1.14449-.81614 2.25365-1.64606 3.35289-2.488 1.0939-.84827 2.183-1.70429 3.26535-2.60088 1.084-.89685 2.15995-1.82222 3.35959-2.73687a12.68551 12.68551 0 01-2.12568 3.92273 17.35509 17.35509 0 01-7.02731 5.39517A12.75932 12.75932 0 01311.53323 473.715zM293.94205 399.53386a10.76061 10.76061 0 01.42166 2.34561c.065.72471.11485 1.38678.19811 2.01083a10.79252 10.79252 0 00.39595 1.80615 6.35559 6.35559 0 00.959 1.93225 2.83 2.83 0 01-2.41481-1.00822 4.48 4.48 0 01-1.114-2.446 5.57623 5.57623 0 01.27227-2.52257A5.833 5.833 0 01293.94205 399.53386zM341.87419 514.42241a107.37165 107.37165 0 01-2.4282-13.37383c-.56542-4.49926-.87249-9.0273-1.028-13.55882-.11351-4.53286-.07282-9.0712.22676-13.596a106.75846 106.75846 0 011.64218-13.49309l.0688 13.54048c.0498 4.49979.10281 8.993.25326 13.48426.11084 4.49243.3218 8.98111.53544 13.47609z"/><path fill="#47a920" d="M353.42057 464.82614a13.01142 13.01142 0 01.17214 6.416 15.18655 15.18655 0 01-7.672 10.27272 12.97517 12.97517 0 01-6.20355 1.65048 27.49456 27.49456 0 005.28072-3.09187 20.85159 20.85159 0 006.95744-9.306A27.31 27.31 0 00353.42057 464.82614zM379.42879 481.7661a53.10975 53.10975 0 001.72035 6.01547 38.69971 38.69971 0 005.86783 10.60871 53.85574 53.85574 0 004.17613 4.65909 16.65215 16.65215 0 01-5.43708-3.50175 21.19111 21.19111 0 01-6.2512-11.31575A16.70632 16.70632 0 01379.42879 481.7661z"/><path fill="#47a920" d="M382.68691 525.91645c.11539-2.22111.28485-4.43273.46449-6.64233.18847-2.2084.374-4.41614.59728-6.61771l.65537-6.60058c.20347-2.196.44307-4.39779.5954-6.56108l.35527-5.04233 1.73186 4.75667a63.33136 63.33136 0 011.88741 6.52709c.54052 2.18337.9686 4.38642 1.39213 6.58625.79619 4.41078 1.4363 8.84231 1.79371 13.32135-1.34287-4.2887-2.44186-8.61862-3.56413-12.931l-1.67832-6.45359c-.56676-2.14107-1.17929-4.27077-1.85849-6.33139l2.08686-.28565c-.18071 2.25257-.45593 4.45026-.77665 6.6509-.30172 2.2-.6543 4.39017-1.03045 6.57608-.36516 2.18725-.78468 4.36594-1.2149 6.54221C383.68416 521.58626 383.22235 523.75758 382.68691 525.91645zM392.15983 479.33335c1.30539.88454 2.51734 1.72731 3.75982 2.49727a42.62948 42.62948 0 003.7949 2.081c1.29361.62031 2.61265 1.19041 3.9847 1.688 1.37393.49809 2.7856.929 4.2883 1.40887a11.41414 11.41414 0 01-4.69255.25406 15.16957 15.16957 0 01-8.42694-4.08992A11.466 11.466 0 01392.15983 479.33335zM393.37446 488.52516a21.06979 21.06979 0 013.56921.7567l3.30069.967c1.07756.30212 2.15138.57251 3.25464.78147a32.16654 32.16654 0 003.49773.46355 6.87389 6.87389 0 01-3.57162 1.25934 10.63918 10.63918 0 01-3.77749-.39461 13.77942 13.77942 0 01-3.39787-1.50444A13.55956 13.55956 0 01393.37446 488.52516zM421.10892 474.15168a61.46232 61.46232 0 013.81337 10.63467 79.37075 79.37075 0 012.618 22.43406 61.168 61.168 0 01-1.26858 11.22673c-.11606-3.76706-.22462-7.489-.44254-11.2001-.23238-3.70855-.5254-7.40439-.97289-11.0835-.408-3.68379-.97275-7.348-1.59907-11.011C422.61644 481.49061 421.865 477.8435 421.10892 474.15168zM430.1899 458.459a61.70342 61.70342 0 012.69578 14.311c.40894 4.85385.38511 9.7168.30934 14.5479-.11712 4.83256-.2894 9.64064-.35071 14.44376-.04832 4.80445.0656 9.60021.454 14.43519a68.69915 68.69915 0 01-2.165-14.395c-.28846-4.85452-.20815-9.70556-.12971-14.52835.1194-4.8236.23506-9.62552.17924-14.42168A124.28966 124.28966 0 00430.1899 458.459zM377.71674 324.88192a16.44611 16.44611 0 00-.533 4.17626 22.33108 22.33108 0 00.46663 4.154c.55819 2.74263 1.49788 5.41525 2.31335 8.16993 1.62 5.49985 3.06028 11.04776 4.14775 16.66889 1.0872 5.621 1.93533 11.281 3.037 16.88628 1.0781 5.61 2.37037 11.17654 3.74912 16.71856 1.398 5.53773 2.77409 11.07172 4.21494 16.58161a4.87891 4.87891 0 00.26.83528.41177.41177 0 00.20935.23479 1.86439 1.86439 0 001.15841-.26089c.51375-.24965 1.19028-.64306 1.86278-.98694.67652-.31966 1.35492-.64453 2.05179-.90315a48.041 48.041 0 018.469-2.19943 78.52207 78.52207 0 008.23258-1.823 17.89207 17.89207 0 001.87884-.66515 2.029 2.029 0 001.07757-.961c.44976-.89819.27668-2.35832.18071-3.77267-.18714-2.83393-.45472-5.67066-.78535-8.5003q-.46644-4.25028-1.10246-8.48812l.21457-.04578a132.4558 132.4558 0 013.31823 16.86982c.08219.71681.18726 1.4094.23478 2.19087a5.69582 5.69582 0 01-.33785 2.50583 3.8882 3.8882 0 01-1.91057 1.97562 18.94834 18.94834 0 01-2.12206.85723 65.19193 65.19193 0 01-8.43056 2.12287 55.14889 55.14889 0 00-8.09524 2.10225c-.64922.2206-1.26711.49983-1.889.7721l-.90783.4519c-.306.15448-.66768.35473-1.04168.51375a5.52748 5.52748 0 01-1.28451.39342 2.8621 2.8621 0 01-1.68957-.20307 2.585 2.585 0 01-1.22266-1.297 6.58265 6.58265 0 01-.36222-1.21075c-1.33083-5.57307-2.45417-11.188-3.43428-16.82363-.99966-5.63171-1.96532-11.26381-3.17754-16.84572-1.18894-5.58646-2.66379-11.11215-4.08644-16.6361-1.42051-5.52368-2.68146-11.07882-4.08671-16.5954a64.598 64.598 0 01-1.83012-8.44622 16.46291 16.46291 0 011.04517-8.58945zM376.79686 311.57087a16.88593 16.88593 0 01-.74533-3.97547 27.0135 27.0135 0 01-.00134-3.97145 27.41217 27.41217 0 01.56382-3.92662 17.79682 17.79682 0 011.26871-3.83545 21.50788 21.50788 0 01.44816 3.99809 38.64543 38.64543 0 01-.094 3.92233c-.09531 1.30057-.24871 2.59566-.4685 3.891A23.75765 23.75765 0 01376.79686 311.57087zM379.09923 286.74182a30.87681 30.87681 0 01-.19088-5.15986c.05889-1.70348.19249-3.39693.412-5.07806.212-1.68234.51643-3.35156.8915-5.00993a30.173 30.173 0 011.50029-4.91931 30.70009 30.70009 0 01.19356 5.1644c-.06024 1.70269-.19142 3.39466-.41469 5.07365-.21578 1.67993-.51777 3.34767-.89418 5.00538A30.63886 30.63886 0 01379.09923 286.74182zM425.22682 275.07911a80.23223 80.23223 0 01-3.8 10.13846c-1.42466 3.30791-2.98143 6.55024-4.56685 9.77744-1.62425 3.20779-3.27954 6.39952-5.05451 9.53021-1.76319 3.13631-3.59946 6.23621-5.64322 9.22768 1.23043-3.40643 2.6397-6.7193 4.11536-9.99871 1.4628-3.286 3.03323-6.51678 4.62133-9.73822 1.62291-3.20418 3.26067-6.39992 4.99628-9.54721C421.60326 281.30474 423.42642 278.21127 425.22682 275.07911z"/><path fill="#47a920" d="M439.122 362.32448c-.07054 4.3231-.07991 8.6458-.45927 12.98644a58.95964 58.95964 0 01-.89672 6.495 26.31372 26.31372 0 01-2.01738 6.37542 16.35728 16.35728 0 01-1.78983 2.9283 8.19278 8.19278 0 01-2.81317 2.338 4.86148 4.86148 0 01-1.94377.47667 3.86972 3.86972 0 01-2.03063-.51871 11.29569 11.29569 0 01-2.50744-2.46447 43.52719 43.52719 0 01-3.81444-5.36479c-1.12455-1.8775-2.10292-3.827-3.0299-5.79113a119.87754 119.87754 0 01-4.75439-12.1023c-1.41623-4.09541-2.68922-8.23325-3.97534-12.36-1.23391-4.14079-2.46327-8.27328-3.7534-12.37149q-1.95526-6.14191-4.40314-12.06121l.72444.66313a13.62712 13.62712 0 00-4.38173-.16611 13.03 13.03 0 01-2.644-.11954 8.98114 8.98114 0 01-2.591-.91185c-1.54794-.81921-2.79015-1.83721-4.09983-2.42525a7.12292 7.12292 0 00-4.19192-.45833 29.6555 29.6555 0 01-4.94019.55444 2.22009 2.22009 0 01-1.62129-.71587 1.45456 1.45456 0 01-.2969-1.10648 1.736 1.736 0 01.43-.874 3.89083 3.89083 0 011.1536-.8385c.36195-.196.72765-.38511 1.09791-.56381a24.65574 24.65574 0 014.59938-1.7158 8.64367 8.64367 0 014.87567-.2546l-.05541.21217a8.70965 8.70965 0 00-4.59216.75255 30.57553 30.57553 0 00-4.28134 2.03479 7.621 7.621 0 00-1.76426 1.22869c-.1534.23452-.06666.21189-.061.21819a1.19735 1.19735 0 00.57533.10574 37.258 37.258 0 004.59992-.82282 12.19056 12.19056 0 012.60435-.228 7.86546 7.86546 0 012.67129.60839c1.65422.69138 2.973 1.68609 4.295 2.32379a6.73905 6.73905 0 001.9538.65256 10.897 10.897 0 002.17092.04364 13.85637 13.85637 0 015.20523.234l.51215.15876.21257.50465a116.66891 116.66891 0 014.25777 12.34967c1.23043 4.16368 2.27694 8.3647 3.32 12.55568.998 4.2025 2.00493 8.39817 3.18825 12.54042a69.23506 69.23506 0 004.6461 12.01878 43.98372 43.98372 0 007.35835 10.41407 11.12078 11.12078 0 002.19582 1.95046 2.3668 2.3668 0 002.24186-.11659 6.28417 6.28417 0 002.10292-1.79572 16.54876 16.54876 0 001.61313-2.571c1.81165-3.68727 2.52458-7.97892 3.20391-12.189.625-4.24078 1.03379-8.5517 1.68167-12.83532zM386.148 318.24975a4.64476 4.64476 0 00-2.082.49555c-.68883.27642-1.3758.581-2.06169.8844l-2.02956.90823c-.29905.13975-.612.27241-.91212.44709-.314.15233-.59888.33759-1.01224.5598l-.18794.10093a.37457.37457 0 01-.24094.03935l-.008-.00133.4337-.14457-.42192.19985-.10789.051a.34167.34167 0 01-.20615.02811l-.008-.00134.32367-.08487a2.87143 2.87143 0 01-2.56741-.10494 1.857 1.857 0 01-.79244-1.05467 3.12169 3.12169 0 01-.09317-1.23659 5.25544 5.25544 0 01.72873-2.32928 4.771 4.771 0 011.97094-1.59787l-.08246.03641.32394-.143a.95462.95462 0 11.77049 1.74686l-.01928.0083-.07255.02971a2.37625 2.37625 0 01-.75871.17121 2.98084 2.98084 0 01-.566-.01566 4.13263 4.13263 0 01-1.05935-.25393 2.23725 2.23725 0 01-.6519-.38913 1.66624 1.66624 0 01-.491-.77571 3.5223 3.5223 0 01-.10682-1.15908 4.81715 4.81715 0 011.98218-3.3715 7.17676 7.17676 0 013.35182-1.30031 21.05656 21.05656 0 013.41126-.15608l.01446.21873a26.94806 26.94806 0 00-3.26.67719 6.08658 6.08658 0 00-2.68333 1.51046 3.32016 3.32016 0 00-.99082 2.4543 1.65684 1.65684 0 00.10869.50224c.027.03212-.00535-.04243-.0431-.07617-.04391-.03708.00268-.00508.07844.01914a2.88871 2.88871 0 00.57265.13694c.20962.02758.39327.02423.33893.0506l.67839 1.78487a.401.401 0 01-.08352.02022l-.083.03654a4.92593 4.92593 0 00-1.6486.70463 2.95079 2.95079 0 00-.98172 1.59694c-.17589.59513-.02945 1.326.48832 1.51648a1.50677 1.50677 0 001.56828-.40907.15823.15823 0 01.0846-.04337l.23934-.0415.008-.00134-.31376.079.18178-.19182a.3485.3485 0 01.19463-.10387l.23961-.04083.008-.00134-.42835.14015a9.73259 9.73259 0 01.83233-.86111 5.98739 5.98739 0 011.08667-.74292 14.40792 14.40792 0 012.28309-.84692 11.77286 11.77286 0 012.40277-.43116 6.37289 6.37289 0 011.26443.041 2.03047 2.03047 0 011.21142.5353zM390.78322 309.63581a1.4204 1.4204 0 011.023-.41684 1.40051 1.40051 0 011.01813.425 1.44765 1.44765 0 01-2.04108-.00817z"/><path fill="#47a920" d="M395.13845 309.682a22.45543 22.45543 0 0117.071 8.04344c2.08311 2.63487 3.28517 5.58191 4.63928 8.45171 1.31369 2.8813 2.6923 5.71376 4.1693 8.50618 1.48744 2.78734 2.93472 5.59262 4.27331 8.44716 1.36254 2.84356 2.73982 5.68043 4.00612 8.56736 2.50235 5.78765 4.83819 11.65026 6.79413 17.68381l-.2.09c-3.2177-5.46518-6.0555-11.10144-8.72679-16.81279-1.32051-2.86243-2.52993-5.7748-3.7542-8.68074-1.24837-2.895-2.38777-5.839-3.48715-8.80121a82.107 82.107 0 00-3.71271-8.68569 34.33962 34.33962 0 00-2.45417-3.99756 24.91843 24.91843 0 00-2.89938-3.5419 34.84608 34.84608 0 00-7.14082-5.64777 31.93681 31.93681 0 00-8.60123-3.40389zM387.803 309.7093a1.21132 1.21132 0 01-2.13906.08165 1.27957 1.27957 0 011.04356-.68442A1.29958 1.29958 0 01387.803 309.7093zM379.349 324.59037a2.37925 2.37925 0 01-1.23846.63289 3.66447 3.66447 0 01-.69821.087 1.99983 1.99983 0 01-.80021-.134l-.08085-.03547-.08031-.07616-.00643-.006.17161.11606a2.04262 2.04262 0 01-.33277-3.61379l.01365-.00816.00161.00053.00615.00268-.01392.0087.03293-.0249-.00482.039-.00053.00294-.01366.00589-.00615.00254.01472-.00736a3.25618 3.25618 0 00-.03694 1.63629 1.59216 1.59216 0 00.75068.97838l.12234.06291.04953.05341.00616.00656-.16063-.11137a3.46645 3.46645 0 001.03553.25312A7.32132 7.32132 0 00379.349 324.59037zM376.99176 315.68756a10.22775 10.22775 0 015.93744-1.81 27.12508 27.12508 0 015.9709.76928 26.817 26.817 0 00-5.92352-.09785 9.22881 9.22881 0 00-5.13054 2.17895z"/><path fill="#47a920" d="M408.20034 335.56363a5.80572 5.80572 0 114.73877 4.73933A5.80981 5.80981 0 01408.20034 335.56363zM405.15537 264.48861a20.33142 20.33142 0 014.488.59406 29.14152 29.14152 0 014.34506 1.368 18.7428 18.7428 0 012.096 1.02361 7.63794 7.63794 0 011.98392 1.539l.38056.48912.32474.40238c.22448.26664.45927.53048.70369.78816.474.52861.98106 1.03486 1.49547 1.52813.50372.50585 1.044.96887 1.57284 1.42559a6.49764 6.49764 0 001.64245 1.06887.92124.92124 0 00.47212.08767c.05957.02611.25206-.36878.34161-.6638a11.02494 11.02494 0 00.43584-2.10935 36.89671 36.89671 0 00-.18753-8.84886c-.32943-2.96832-.96526-5.78658-1.28438-8.83066a86.97585 86.97585 0 01-.49942-8.9854 85.28483 85.28483 0 01.52245-8.97162 39.207 39.207 0 011.86478-8.81567l.2123.05475a83.57414 83.57414 0 00-.32956 8.86332c.00643 2.95413.02021 5.90692.079 8.85744.03855 2.94823.00977 5.90464.17361 8.83534.06171 1.46187.22248 2.90835.2874 4.42979.06719 1.50109.06545 3.00218.07014 4.49872-.0498 2.99857-.02517 5.96769-.11686 8.9763a20.71982 20.71982 0 01-.18994 2.30144 4.00486 4.00486 0 01-.14738.61668 1.62633 1.62633 0 01-.42019.719 1.79305 1.79305 0 01-1.64833.33116 7.73021 7.73021 0 01-2.27185-1.02254 14.91619 14.91619 0 01-1.87751-1.39521 21.50054 21.50054 0 01-1.6561-1.62451q-.3849-.43692-.74893-.90315l-.35794-.47881-.28807-.40278a11.53 11.53 0 00-3.31728-2.312 45.22074 45.22074 0 00-8.17583-3.21622zM383.1597 264.59757a6.04472 6.04472 0 011.48851-1.53523 8.14173 8.14173 0 013.60026-1.47137 6.20325 6.20325 0 012.16477.04765 5.58779 5.58779 0 01-1.462 1.52719 8.11881 8.11881 0 01-1.73427.96044 8.34428 8.34428 0 01-1.919.527A5.84673 5.84673 0 01383.1597 264.59757z"/><path fill="#ade194" d="M393.90224 187.07831l-1.48632-1.44876a2.38876 2.38876 0 01-.68886-2.11909l.3519-2.0479a2.39326 2.39326 0 00-3.47052-2.52341l-1.842.96974a2.38416 2.38416 0 01-2.22393 0l-1.842-.96974a2.39327 2.39327 0 00-3.47053 2.52341l.3519 2.0479a2.38876 2.38876 0 01-.68886 2.11909l-1.48632 1.44876a2.39271 2.39271 0 001.32531 4.08093l2.0554.29948a2.39221 2.39221 0 011.80083 1.30661l.92091 1.86443a2.3921 2.3921 0 004.29051 0l.921-1.86443a2.39249 2.39249 0 011.80075-1.30661l2.05548-.29948A2.39271 2.39271 0 00393.90224 187.07831zm-8.24774 3.19733a2.96513 2.96513 0 112.9652-2.96512A2.96473 2.96473 0 01385.6545 190.27564zM357.14876 196.70721l-1.48632-1.44884a2.38877 2.38877 0 01-.68887-2.11909l.352-2.04789a2.39327 2.39327 0 00-3.47061-2.52333l-1.842.96965a2.38414 2.38414 0 01-2.22392 0l-1.8419-.96965a2.39326 2.39326 0 00-3.47061 2.52333l.35191 2.04789a2.38877 2.38877 0 01-.68887 2.11909l-1.48632 1.44884a2.39266 2.39266 0 001.32531 4.08085l2.05541.29948a2.3922 2.3922 0 011.80082 1.30661l.921 1.86443a2.392 2.392 0 004.29044 0l.921-1.86443a2.39249 2.39249 0 011.80082-1.30661l2.05541-.29948A2.39264 2.39264 0 00357.14876 196.70721zm-8.24775 3.19725a2.96513 2.96513 0 112.96521-2.96512A2.96474 2.96474 0 01348.901 199.90446zM410.57205 155.17545l-1.48632-1.44885a2.38852 2.38852 0 01-.68886-2.119l.352-2.04789a2.39331 2.39331 0 00-3.4706-2.52341l-1.842.96973a2.38457 2.38457 0 01-2.22393 0l-1.84189-.96973a2.3933 2.3933 0 00-3.47061 2.52341l.3519 2.04789a2.38852 2.38852 0 01-.68886 2.119l-1.48632 1.44885a2.3927 2.3927 0 001.32531 4.08092l2.0554.29949a2.39228 2.39228 0 011.80083 1.30653l.921 1.86451a2.392 2.392 0 004.29043 0l.921-1.86451a2.39255 2.39255 0 011.80083-1.30653l2.0554-.29949A2.3927 2.3927 0 00410.57205 155.17545zm-8.24774 3.19733a2.96517 2.96517 0 112.9652-2.96513A2.96474 2.96474 0 01402.32431 158.37278zM427.95187 209.85636l-1.48631-1.44884a2.38861 2.38861 0 01-.68887-2.119l.352-2.04789a2.39331 2.39331 0 00-3.47061-2.52341l-1.842.96973a2.38457 2.38457 0 01-2.22393 0l-1.84189-.96973a2.3933 2.3933 0 00-3.47061 2.52341l.3519 2.04789a2.3886 2.3886 0 01-.68886 2.119l-1.48632 1.44884a2.39265 2.39265 0 001.32531 4.08085l2.05541.29948a2.39258 2.39258 0 011.80082 1.30662l.921 1.86451a2.392 2.392 0 004.29044 0l.921-1.86451a2.39287 2.39287 0 011.80083-1.30662l2.05541-.29948A2.39263 2.39263 0 00427.95187 209.85636zm-8.24774 3.19726a2.96513 2.96513 0 112.96521-2.965A2.96467 2.96467 0 01419.70413 213.05362z"/><path fill="#47a920" d="M405.34571 196.94054a53.73574 53.73574 0 01-.98868-7.2267c-.19864-2.41521-.26075-4.8339-.26-7.25567a71.97531 71.97531 0 01.41416-7.26539 24.27415 24.27415 0 011.651-7.14163c-.1285 2.43583.03829 4.81463.05863 7.21981.06 2.39915.07363 4.80171.068 7.20467-.04444 2.40324-.07576 4.80968-.227 7.21921A70.53006 70.53006 0 01405.34571 196.94054zM357.74126 412.102a51.77238 51.77238 0 003.12935 11.2851 49.21135 49.21135 0 005.46037 10.18009 25.63946 25.63946 0 001.70857 2.32687 26.00634 26.00634 0 001.83628 2.23089l1.94041 2.15244c.68054.68509 1.41034 1.322 2.10319 2.00213 1.35947 1.39615 2.95533 2.51534 4.45241 3.78325.726.67184 1.594 1.13365 2.38 1.72972q1.20915.84813 2.40785 1.74686-1.36134-.5881-2.71653-1.22307l-1.35224-.64426-.676-.32675-.64011-.38632a40.35152 40.35152 0 01-4.96776-3.37886 39.48985 39.48985 0 01-8.28077-8.76882 38.81463 38.81463 0 01-5.2644-10.85929A32.19669 32.19669 0 01357.74126 412.102zM351.87049 424.27926a51.78279 51.78279 0 004.80928 10.67791 49.20433 49.20433 0 006.94512 9.23116 25.6304 25.6304 0 002.04269 2.04 26.03007 26.03007 0 002.15405 1.92569l2.24535 1.83226c.77691.57359 1.59506 1.092 2.38322 1.65891 1.556 1.17314 3.30336 2.03666 4.97606 3.06216.81975.5535 1.74793.878 2.61533 1.34755q1.324.65437 2.64532 1.36041-1.43482-.37426-2.87073-.79579l-1.43443-.43116-.718-.21993-.69152-.28458a40.33655 40.33655 0 01-5.42342-2.584 39.48352 39.48352 0 01-9.51842-7.40748 38.81275 38.81275 0 01-6.85437-9.93218A32.19557 32.19557 0 01351.87049 424.27926zM262.78972 49.21754c4.23355 0 4.24056-6.57942 0-6.57942-4.23354 0-4.24055 6.57942 0 6.57942z"/><path fill="#d5efc8" d="M276.94355,104.043c6.35032,0,6.36084-9.86914,0-9.86914-6.35031,0-6.36083,9.86914,0,9.86914Z"/><path fill="#ade194" d="M247.53536,195.21021c6.35032,0,6.36084-9.86914,0-9.86914-6.35032,0-6.36084,9.86914,0,9.86914Z"/><path fill="#47a920" d="M300.35667,152.25314c4.23354,0,4.24055-6.57943,0-6.57943-4.23355,0-4.24056,6.57943,0,6.57943Z"/><path fill="#d5efc8" d="M317.20806 210.8773c6.35032 0 6.36084-9.86913 0-9.86913-6.35032 0-6.36083 9.86913 0 9.86913zM444.20283 111.57751c6.35032 0 6.36084-9.86914 0-9.86914-6.35032 0-6.36084 9.86914 0 9.86914z"/><path fill="#47a920" d="M229.15519,116.76454c4.23354,0,4.24056-6.57942,0-6.57942-4.23355,0-4.24056,6.57942,0,6.57942Z"/><path fill="#ade194" d="M318.75839,60.512c6.35032,0,6.36084-9.86914,0-9.86914-6.35031,0-6.36083,9.86914,0,9.86914Z"/><path fill="#47a920" d="M404.24486 423.94287a21.88316 21.88316 0 01-1.43282-4.09032 37.26331 37.26331 0 01-.8302-4.17452 36.71132 36.71132 0 01-.35044-4.24171 21.6545 21.6545 0 01.25862-4.32685 21.63362 21.63362 0 011.4363 4.08978 36.76206 36.76206 0 01.827 4.17506 37.38177 37.38177 0 01.34723 4.24211A21.88485 21.88485 0 01404.24486 423.94287zM415.45258 405.09248c.68456.91225 1.29067 1.69746 1.93078 2.48362.6274.78695 1.26149 1.573 1.86305 2.426a20.54007 20.54007 0 011.62089 2.70542 12.91867 12.91867 0 011.10822 3.06831 12.92327 12.92327 0 01-2.51761-2.07468 20.47425 20.47425 0 01-2.00467-2.43756 13.36092 13.36092 0 01-1.568-2.84544A6.34212 6.34212 0 01415.45258 405.09248z"/><path fill="#47a920" d="M393.86438,469.01619a.855.855,0,0,1-.2214-.3554l-.08513-.28954a4.952,4.952,0,0,1-.11378-.59393,6.02532,6.02532,0,0,1-.03481-1.2066,16.54865,16.54865,0,0,1,.37186-2.34815c.32019-1.533.68-3.0584,1.09309-4.56512l2.51146-8.98031a107.41727,107.41727,0,0,0,2.9631-18.22541l.47413-4.66551a9.33019,9.33019,0,0,1,.62137-2.45309,4.173,4.173,0,0,1,1.80816-2.06625,1.5051,1.5051,0,0,1,.93674-.13707,1.57221,1.57221,0,0,1,.79754.42822,4.38768,4.38768,0,0,1,.744,1.10286,9.3593,9.3593,0,0,0,1.2722,1.81057,6.647,6.647,0,0,0,3.73519,2.19006,5.10841,5.10841,0,0,0,4.07921-1.20258,10.67957,10.67957,0,0,0,2.70716-3.583c.67625-1.36857,1.19027-2.8374,1.82463-4.28763a17.5269,17.5269,0,0,1,1.10313-2.13571,11.67724,11.67724,0,0,1,.7-1.008,4.1457,4.1457,0,0,1,.96284-.96753,1.77971,1.77971,0,0,1,1.69666-.08,3.76518,3.76518,0,0,1,1.12883.8484l1.56883,1.77563q1.54767,1.75008,3.06121,3.52812A8.302,8.302,0,0,1,431.103,423.684a2.48255,2.48255,0,0,1,.0087,1.80468,5.35117,5.35117,0,0,1-.73355,1.2153l-2.78185,3.746a60.26571,60.26571,0,0,0-4.98932,7.68644,36.86287,36.86287,0,0,0-1.846,4.11522c-.537,1.41984-1.00033,2.89523-1.52626,4.37932a44.17544,44.17544,0,0,1-9.85709,16.18874,7.2071,7.2071,0,0,1-2.02287,1.69184,2.53209,2.53209,0,0,1-1.62317.15073,11.82773,11.82773,0,0,1-1.18465-.38752,11.50306,11.50306,0,0,0-4.33944-.73208,6.66723,6.66723,0,0,0-3.99354,1.57779,6.8089,6.8089,0,0,0-1.45585,1.68863,6.49312,6.49312,0,0,0-.498,1.01184,4.72142,4.72142,0,0,0-.17777.539A3.49263,3.49263,0,0,1,393.86438,469.01619Zm-.02623-.21779c-.02008-.22555-.09424-.28352-.038-.49648a5.02473,5.02473,0,0,1,.11994-.58872,5.91268,5.91268,0,0,1,.41068-1.13431,7.40814,7.40814,0,0,1,1.40123-1.97683,7.24205,7.24205,0,0,1,4.371-2.16383,12.73836,12.73836,0,0,1,4.86229.46436c.39435.10454.77691.23278,1.05373.27146a.93021.93021,0,0,0,.65377-.10655,6.906,6.906,0,0,0,1.42774-1.4106,46.36,46.36,0,0,0,8.92436-15.79306,49.31344,49.31344,0,0,1,3.57122-8.81406,62.33976,62.33976,0,0,1,5.35381-7.84291l2.88827-3.67443a3.98868,3.98868,0,0,0,.522-.74385.57755.57755,0,0,0,.01713-.47332,7.43967,7.43967,0,0,0-1.15038-1.66039q-1.45149-1.82918-2.87328-3.68272l-1.41073-1.819a2.5745,2.5745,0,0,0-.67947-.60531.52743.52743,0,0,0-.53664-.03748,3.24726,3.24726,0,0,0-.69821.65779,10.59252,10.59252,0,0,0-.68054.87329,16.56916,16.56916,0,0,0-1.1465,1.95153c-.70262,1.36121-1.27754,2.81665-2.01484,4.22351a12.06765,12.06765,0,0,1-2.95051,3.7621,5.942,5.942,0,0,1-4.60233,1.38651,7.68334,7.68334,0,0,1-4.2792-2.26717,10.34208,10.34208,0,0,1-1.54044-1.9016,3.45673,3.45673,0,0,0-.59809-.79659c-.21738-.144-.2297-.12944-.41362-.043a3.00114,3.00114,0,0,0-1.07837,1.49146,7.96116,7.96116,0,0,0-.37533,2.09314c-.07523,1.49052-.08782,3.103-.18018,4.64986a74.95428,74.95428,0,0,1-3.14916,18.55456c-.92657,3.00044-1.99958,5.92686-3.02976,8.85555-.50357,1.4679-1.02241,2.92964-1.48717,4.40918a15.97019,15.97019,0,0,0-.58362,2.2179,7.17409,7.17409,0,0,0-.10361,1.12361,4.61105,4.61105,0,0,0,.0332.56328l.04337.27963C393.92355,468.66588,393.84939,468.67377,393.83815,468.7984Z"/><path fill="#47a920" d="M393.61407 469.1309a5.83982 5.83982 0 002.637 3.35477 8.986 8.986 0 004.04093 1.2738 9.51689 9.51689 0 007.6246-2.62778 21.86037 21.86037 0 002.66753-3.33817l1.20393-1.83547 1.1311-1.88554c1.47566-2.53635 2.81719-5.162 4.07734-7.84064 2.57558-5.32731 4.91984-10.84577 7.92752-16.0692.75938-1.30057 1.53736-2.591 2.3796-3.84242.85094-1.23926 1.7652-2.47049 2.62136-3.63841a7.03277 7.03277 0 001.60082-3.86049 10.47628 10.47628 0 00-1.12121-4.20771 9.41477 9.41477 0 011.70215 4.19058 7.8231 7.8231 0 01-1.27567 4.45616c-1.60269 2.56982-3.08076 5.05343-4.401 7.71494-2.64331 5.27953-4.88183 10.78487-7.45713 16.20427-1.31517 2.69471-2.69338 5.37925-4.27826 7.95844l-1.23525 1.90668-1.31262 1.85836a20.18147 20.18147 0 01-3.07929 3.48636 10.0932 10.0932 0 01-4.21735 2.26154 11.60095 11.60095 0 01-4.695.16853 9.80146 9.80146 0 01-4.23743-1.86158A5.70645 5.70645 0 01393.61407 469.1309zM400.538 440.53105a6.53819 6.53819 0 012.2756-1.6458 7.06779 7.06779 0 012.781-.61186 5.95682 5.95682 0 012.85762.67946 3.96213 3.96213 0 011.94845 2.14482 14.814 14.814 0 00-2.5037-.51228 18.49 18.49 0 00-2.28363-.11953c-.76621.00522-1.55222.04658-2.3867.08754A17.97632 17.97632 0 01400.538 440.53105zM399.76541 445.55142a5.77219 5.77219 0 012.20385-1.72357 6.683 6.683 0 012.773-.60852 5.93175 5.93175 0 012.81719.6966 4.09414 4.09414 0 011.94175 2.101 19.10372 19.10372 0 00-4.76189-.60518c-.75335-.00214-1.52117.03226-2.335.07858C401.58535 445.52411 400.73776 445.59921 399.76541 445.55142zM398.278 449.85283a6.85447 6.85447 0 012.2756-2.00814 7.18182 7.18182 0 012.9805-.89418 6.00394 6.00394 0 013.14755.62994 4.02134 4.02134 0 012.08472 2.33249 10.39589 10.39589 0 00-2.63889-.69955 12.56529 12.56529 0 00-2.44694-.07523 25.35349 25.35349 0 00-2.54305.32287C400.24623 449.59716 399.32555 449.79019 398.278 449.85283z"/><path fill="#47a920" d="M397.23147 454.62664a4.62582 4.62582 0 011.88847-2.1815 6.0908 6.0908 0 012.80194-.90729 5.32831 5.32831 0 012.98505.6025c.95762.57853 1.29682 1.27795 2.07722 1.85929-.99243.33171-2.04376-.19463-2.71171-.2558a11.90122 11.90122 0 00-2.198-.01887 18.57551 18.57551 0 00-2.29246.306C398.98555 454.17072 398.19123 454.39346 397.23147 454.62664zM335.98922 206.79977a40.53329 40.53329 0 01.88909 5.86315c.17268 1.95514.27013 3.91075.28084 5.8669.01793 1.95614-.057 3.91282-.20374 5.87a40.14067 40.14067 0 01-.81894 5.87385 40.10416 40.10416 0 01-.89258-5.86308c-.17133-1.95514-.27093-3.91075-.27735-5.867-.01392-1.95614.0589-3.91282.207-5.87A40.569 40.569 0 01335.98922 206.79977zM351.8662 206.41667a22.24756 22.24756 0 01.77746 4.30229 37.98725 37.98725 0 01.16893 4.29164 37.36586 37.36586 0 01-.31511 4.28315 22.0375 22.0375 0 01-.93058 4.27243 22.03634 22.03634 0 01-.78067-4.30228 37.36694 37.36694 0 01-.16571-4.29158 38.04976 38.04976 0 01.31858-4.28315A22.24983 22.24983 0 01351.8662 206.41667z"/><path fill="#68ca44" d="M375.72652,260.12462a19.87284,19.87284,0,0,1,5.56847,9.73505q3.00252-7.18984,6.0052-14.37975a45.49949,45.49949,0,0,0,2.52137-7.1246,22.61548,22.61548,0,0,0,.4805-7.37452,30.89979,30.89979,0,0,0-3.059-10.11381,6.72674,6.72674,0,0,0-2.09-2.84062,8.58711,8.58711,0,0,0-2.70605-.97014c-3.63342-.94189-6.95477-2.79031-10.42154-4.22895s-7.28439-2.48234-10.95495-1.69811c-3.22289.68845-6.22345,2.75716-9.50349,2.437-1.56127-.15251-3.07543-.85011-4.63638-.69425a7.85918,7.85918,0,0,0-3.0591,1.18169c-5.2992,3.04833-10.15619,7.58158-11.677,13.50285-1.03375,4.02459-.43274,8.26628.17383,12.37693a5.31429,5.31429,0,0,0,.762,2.40347,3.908,3.908,0,0,0,3.63545,1.26081,37.27835,37.27835,0,0,0,3.90857-.98321c4.51929-1.01929,9.21691.85477,13.8323.45184a8.10024,8.10024,0,0,1,2.60628-.026c1.90779.46212,2.9292,2.53165,3.41093,4.43454s.74356,3.99511,2.08,5.43285c.72266-2.89638,1.52926-5.94527,3.64239-8.05383s5.989-2.75284,7.97782-.52663C375.68773,255.96556,375.62144,258.41932,375.72652,260.12462Z"/><path fill="#47a920" d="M424.88052,227.68093c-1.366,3.71458-2.79778,7.40989-4.40971,11.03371-1.59773,3.63052-3.42343,7.1581-5.30816,10.64257-3.785,6.96334-7.775,13.79187-11.642,20.69189l-1.45076,2.58682a19.15143,19.15143,0,0,0-1.30565,2.56339,11.88442,11.88442,0,0,0-.76139,5.52114c.07951.89632.317,1.94751.32126,2.98706a18.29155,18.29155,0,0,1-.19222,3.06857c-.148,1.0267-.35071,1.95059-.44388,2.914-.10682.9595-.15983,1.92662-.1708,2.89656-.01044.98842.02141,1.91418.08192,2.91438l.08112,1.49573a12.6816,12.6816,0,0,1-.04123,1.56133c-.17964,2.02234-.55712,3.97614-.84572,5.91549a6.06219,6.06219,0,0,1-.41014,1.60175,1.7167,1.7167,0,0,1-.73783.84545,1.18911,1.18911,0,0,1-.73355.1178,1.438,1.438,0,0,1-.59085-.2538,1.006,1.006,0,0,1-.31162-.35807,1.93154,1.93154,0,0,1-.10227-.26758c-.04525-.1534-.07255-.28887-.09906-.42433-.049-.26705-.08192-.523-.1103-.77826-.05649-.52232-.09182-.9931-.10789-1.50377-.06291-1.01-.04953-2.02769-.01606-3.04622.01151-.14283.03775-.30707.06024-.4586.02784-.19276.03078-.15126.04042-.27843a3.35039,3.35039,0,0,0-.02811-.62378,5.08457,5.08457,0,0,0-.12583-.6547,2.74246,2.74246,0,0,0-.08834-.28137c-.00937-.034-.04471-.06359.03507.02262a.48969.48969,0,0,0,.39675.14242.49945.49945,0,0,0,.30493-.11445.59488.59488,0,0,0,.12771-.15862.173.173,0,0,0,.02489-.04966.41966.41966,0,0,0,.011-.18392l-.00161.13694a13.53077,13.53077,0,0,0,.07737,1.39507l.14189,1.51662c.04311.51295.1095,1.00541.13306,1.53509.01821.53838.06747,1.03058.05676,1.60631l-.00107-.10468.00133.01312.00188.01861a.41337.41337,0,0,1-.00054.0854,44.2096,44.2096,0,0,1-1.09925,5.84695c-.12368.48149-.2728.962-.44012,1.44326-.09022.24081-.18259.48189-.30172.72632a4.22382,4.22382,0,0,1-.51134.75791.88411.88411,0,0,1-.72685.25794.914.914,0,0,1-.61575-.41924,2.47685,2.47685,0,0,1-.33706-.81119,9.38847,9.38847,0,0,1-.29235-1.51662,26.3743,26.3743,0,0,1-.17937-2.9813c.00321-.97128-.02811-1.93774-.07523-2.91209-.0597-.97155-.12877-1.94417-.2131-2.91237-.0423-.48323-.08728-.969-.1451-1.44032a2.73523,2.73523,0,0,0-.12422-.61093,1.43014,1.43014,0,0,0-.1103-.24188c-.015-.02584-.03963-.05462-.02249-.03454a.30661.30661,0,0,0,.15313.07965.43615.43615,0,0,0,.40586-.11606l.02972-.03373a.49272.49272,0,0,0,.10682-.36209l-.13921.40466c.12368-.17589.041-.06948.05434-.02637-.00723.0613-.01178.13827-.01312.21778l.00134.54294-.03453,1.10835-.11459,2.19595c-.07817,1.46307-.23345,2.92-.39943,4.37678-.17268,1.45665-.37,2.91156-.64359,4.36553a20.7336,20.7336,0,0,1-.52045,2.18458l-.18767.55083c-.08272.18887-.18767.3827-.28431.5713a1.20292,1.20292,0,0,1-.5507.58711.80578.80578,0,0,1-.65965.02289.98641.98641,0,0,1-.40586-.321,3.284,3.284,0,0,1-.48966-1.19121c-.09183-.37748-.1542-.74948-.20694-1.12027-.1004-.73943-.16759-1.47539-.21471-2.21054-.09665-1.4699-.11807-2.93539-.14055-4.3998-.01232-1.46482,0-2.92736.05515-4.39459l.05782-1.10607.0498-.56649a3.218,3.218,0,0,0,.015-.47881,2.64579,2.64579,0,0,0-.20775-.90957,1.3357,1.3357,0,0,0-.20909-.3396c-.01874-.02744-.09075-.05408.01687-.01352a.32674.32674,0,0,0,.2463-.06546c.03962-.0427.04524-.05153.053-.05769l.00883-.01673.00214-.00911a.47877.47877,0,0,0,.02008-.19182l-.01552.18272c-.12128.701-.16974,1.64566-.23854,2.47425l-.1957,2.5737c-.14591,1.71781-.29128,3.438-.518,5.1644-.11592.86352-.24763,1.72812-.45137,2.599a9.838,9.838,0,0,1-.39381,1.32507,3.90672,3.90672,0,0,1-.34375.69807,1.564,1.564,0,0,1-.86794.70945,1.13962,1.13962,0,0,1-.84652-.09825,1.61109,1.61109,0,0,1-.46422-.42661,3.29,3.29,0,0,1-.37963-.7559,8.507,8.507,0,0,1-.35151-1.36991,23.07238,23.07238,0,0,1-.29717-2.652,35.70885,35.70885,0,0,1,.05033-5.27724c.08782-.92764.17777-1.66989.207-2.53274.038-.84.05381-1.69.061-2.54118.02811-3.40911-.09049-6.83871-.21712-10.25639l-.0008-.0589,1.88259.87156a5.96355,5.96355,0,0,0-1.05053,1.02027,12.89665,12.89665,0,0,0-1.02161,1.32748c-.657.93032-1.29013,1.87884-1.91525,2.83258l-.9445,1.42667a7.23317,7.23317,0,0,1-1.17287,1.59626,3.2216,3.2216,0,0,1-2.25713.89592,3.97518,3.97518,0,0,1-1.201-.23974,4.13,4.13,0,0,1-.521-.23131l-.52151-.30894a1.13792,1.13792,0,0,1-.10923-.08835l-.07684-.07617a1.08212,1.08212,0,0,1-.00615-1.53014,1.11865,1.11865,0,0,1,.08834-.07964,4.45077,4.45077,0,0,0,1.178-2.19073l.44039-1.5102c.07925-.2649.17964-.55029.30065-.84411a4.25728,4.25728,0,0,1,.4926-.85335c.6037-.85255,1.26818-1.717,1.74472-2.54452.51375-.795,1.06176-1.756,1.60309-2.68789l-.12047.5428a.9204.9204,0,0,1,.79806-.99323l-.67384.44588q4.06314-7.50525,8.08346-15.05027l.00321-.00576.02517-.044a64.44144,64.44144,0,0,0,5.36827-11.64745c1.48422-4.04776,2.79309-8.169,4.06582-12.302l3.79891-12.41768a118.49581,118.49581,0,0,1,4.423-12.2203.10957.10957,0,0,1,.14457-.05568.11187.11187,0,0,1,.05595.14457,118.18582,118.18582,0,0,0-4.14533,12.27665l-3.52879,12.4933c-1.18492,4.16542-2.40731,8.32521-3.815,12.43628a65.44122,65.44122,0,0,1-5.23147,12.00512l.02811-.04939q-3.88806,7.65022-7.69875,15.35507l-.67384.44628a.905.905,0,0,0,.7903-.98359l-.12074.54306c-.47922.89257-.93862,1.76359-1.519,2.75053-.54347,1.0006-1.13539,1.812-1.70991,2.68575a9.02958,9.02958,0,0,0-.835,2.67074,10.33622,10.33622,0,0,1-.55311,1.66079,5.12883,5.12883,0,0,1-1.12522,1.63428l.00536-1.68568-.0075-.00147.18393.18847a2.205,2.205,0,0,0,.23933.17562,1.18831,1.18831,0,0,0,.46262.18714,1.016,1.016,0,0,0,.89016-.27455,5.01241,5.01241,0,0,0,.88374-1.16336l.93085-1.47419c.62512-.98025,1.24248-1.96558,1.83574-2.96926.28672-.50344.63583-.98908.974-1.49024a9.5862,9.5862,0,0,1,1.26684-1.53269,1.113,1.113,0,0,1,1.88018.77786l.00215.09383.0016.05943c.0091,3.4557.00964,6.90216-.13787,10.36669-.03722.867-.08326,1.73508-.15287,2.61038-.05542.85523-.20106,1.81687-.30172,2.59753a34.00239,34.00239,0,0,0-.21979,5.022,22.15283,22.15283,0,0,0,.18847,2.47839,7.11922,7.11922,0,0,0,.23773,1.13673,2.13013,2.13013,0,0,0,.17027.40573c.02329.03038.03427.03627-.00428.01941a.29549.29549,0,0,0-.22462-.0261c-.0945.046.00911.00977.0846-.11526a2.52991,2.52991,0,0,0,.24095-.44816,8.50279,8.50279,0,0,0,.38524-1.1303c.22167-.79512.38471-1.62611.532-2.46046.2985-1.67136.50331-3.3727.68241-5.07659l.26129-2.56232c.10307-.88.1344-1.65932.33893-2.64652l-.01553.18231a.52492.52492,0,0,1,.02865-.22475l.01767-.03935.04042-.07751a.48748.48748,0,0,1,.1344-.16384.58356.58356,0,0,1,.49688-.1289.86018.86018,0,0,1,.46208.28873,2.15484,2.15484,0,0,1,.355.59152,3.4794,3.4794,0,0,1,.24844,1.21745,3.99826,3.99826,0,0,1-.03481.6124c-.02248.18566-.03962.33665-.05033.52258l-.05381,1.0785c-.05113,1.44769-.0605,2.9026-.04524,4.35429.01365,1.45184.08406,2.903.20025,4.34238.0597.71923.13921,1.435.24871,2.13893.05595.34991.12235.69674.208,1.0267a2.57672,2.57672,0,0,0,.32661.82269c.027.03668.045.03775.01125.02089a.20262.20262,0,0,0-.13145.00187.54327.54327,0,0,0,.143-.2289l.1949-.41135.15661-.48724a19.81781,19.81781,0,0,0,.45833-2.07682c.24363-1.41676.4163-2.85695.56382-4.29914l.3823-4.3381.1617-2.17025.05756-1.07716.01124-.55069a3.16645,3.16645,0,0,1,.02838-.32742.93857.93857,0,0,1,.22515-.53838l-.13894.40439a.54427.54427,0,0,1,.11351-.38057l.03-.03413a.60947.60947,0,0,1,.57265-.16639.675.675,0,0,1,.30707.17456,1.1749,1.1749,0,0,1,.19517.259,2.41731,2.41731,0,0,1,.18633.42728,3.6977,3.6977,0,0,1,.15635.82457c.05033.5001.08433.98881.11672,1.48008.064.98091.11217,1.96.151,2.94074.04873.978.09692,1.96545.102,2.94917a25.45093,25.45093,0,0,0,.20159,2.86753,8.467,8.467,0,0,0,.27334,1.35706,1.69152,1.69152,0,0,0,.21391.53918c.03962.061.05461.03146-.046.00589-.10976-.006-.13466.0423-.07389-.013.08835-.14135.19062-.28311.28593-.46649.0937-.19624.17428-.41215.25352-.62994.14859-.44361.28566-.8986.40024-1.365a43.39756,43.39756,0,0,0,1.0101-5.68163l.00134.1036-.00161-.01312-.0008-.01378-.00027-.0913c-.00241-.43919-.05194-.96324-.07389-1.44032-.02543-.4863-.099-1.003-.14617-1.503l-.158-1.51983-.0688-.7717a5.392,5.392,0,0,1-.019-.877l-.0016.13653a.64334.64334,0,0,1,.03239-.27387,1.17553,1.17553,0,0,1,.05194-.13841.57314.57314,0,0,1,.15608-.19262.64923.64923,0,0,1,.3416-.14256.65629.65629,0,0,1,.476.18258,1.10612,1.10612,0,0,1,.215.34495,3.66893,3.66893,0,0,1,.14109.4234,6.2139,6.2139,0,0,1,.1625.79954,4.43758,4.43758,0,0,1,.04311.85549c.00562.12141-.06693.40158-.06265.45539l-.03025.27722c-.01928.9595-.02383,1.91953.046,2.88506.01686.478.05836.99376.11163,1.45437.02731.236.05944.47065.10093.68991.02115.10709.04471.21391.06988.2977l.02864.079c.02785.00923-.13787-.15394-.06666-.08688.10736.06251.07978.03507.0664.04083a.661.661,0,0,0,.18847-.27776,5.02389,5.02389,0,0,0,.30252-1.26777c.28458-1.97388.64573-3.914.80583-5.835a11.42345,11.42345,0,0,0,.03132-1.403l-.087-1.46669c-.06425-.97369-.10842-2.02595-.10039-3.01584.00589-1.00782.05595-2.01846.1625-3.02574.09264-1.008.30547-2.02221.43371-2.95386a17.00577,17.00577,0,0,0,.16491-2.84785c-.007-.94638-.22488-1.8348-.332-2.90728a13.18879,13.18879,0,0,1,.90837-6.11747,20.31168,20.31168,0,0,1,1.40873-2.70676l1.4794-2.57357,11.93967-20.51144q2.93994-5.1452,5.53278-10.46775c1.71848-3.55462,3.264-7.19545,4.74623-10.862a.10969.10969,0,0,1,.2048.07857Z"/></svg>