<svg xmlns="http://www.w3.org/2000/svg" viewBox="0 0 387.52 497.68"><g data-name="Layer 2"><g data-name="Layer 1"><path fill="#21b5bc" d="M344,318.11c7.26,9.36,12.59,19.85,17.78,30.42a28.53,28.53,0,0,1,1.94,4.8,2.66,2.66,0,0,1-.53,2.59,6.94,6.94,0,0,1-2.47,2,85.79,85.79,0,0,1-8.39,3.7,43,43,0,0,0-15.44,10c-3.11,3.11-6.12,6.3-9.12,9.51-4.24,4.53-9,8.25-15.18,9.84a36.45,36.45,0,0,1-14.45.46c-7.32-1-14.39-3.22-21.6-4.74a50.6,50.6,0,0,0-7.21-1.46c-1.35.34-2.6-.24-3.89-.4-3.11-.37-6.17-1.45-9.36-.66a4.07,4.07,0,0,0-3.36.19,30.59,30.59,0,0,0-5,1.29,48.27,48.27,0,0,1-19.77,2.46,12.42,12.42,0,0,0-2.85-.35,11.39,11.39,0,0,1-3.7-.74c-8.5-2.93-17-2.48-25.53-.13-7.7,2.12-15.32,4.52-23.12,6.27a55.7,55.7,0,0,1-33.29-2.55,144.37,144.37,0,0,1-24.91-12.11,20,20,0,0,1-2.8-1.9c-1.79-1.65-3.16-3.32-2.82-6.18.77-6.51,2.52-12.78,4.09-19.1a114.91,114.91,0,0,1,9.22-24.85c6.32-12.26,13.46-24,22.32-34.68,7.67-9.23,16.26-17.55,24.92-25.83s18.18-15.17,26.57-23.56c3.15-3.14,6.51-6.07,9.38-9.5a3.09,3.09,0,0,1,1.51-1.25c4.47,1.16,8.9.47,13.14-.86,8.2-2.58,16.08-6,23-11.17a35.48,35.48,0,0,0,9-10,22.18,22.18,0,0,0,1-2.79c1.18-.43,1.06.65,1.25,1.18,1.3,3.57,2.82,7,4.4,10.49,4.52,9.82,10.81,18.47,17.65,26.76a329.78,329.78,0,0,0,27.94,29.84c4.88,4.62,9.74,9.28,14.36,14.14,8.29,8.72,16.77,17.28,24.16,26.82A4.13,4.13,0,0,1,344,318.11Z"/><path fill="#a9eef1" d="M207 231.8A83.57 83.57 0 01197 242.11a7.54 7.54 0 00-.58.55 153.93 153.93 0 01-12.76 11.45c-4.08 3.42-8 7-12 10.49-6.52 5.7-12.58 11.88-18.52 18.16a165.32 165.32 0 00-23 30.5A188.62 188.62 0 00119.75 333a142.18 142.18 0 00-7.42 22.92c-.93 3.8-1.67 7.65-2.59 11.46-.38 1.57 0 3.18-.51 4.74-.2.63.32 1.24.72 1.79a13.66 13.66 0 004.13 3.7q4.38 2.56 8.79 5.11c4.92 2.82 10.26 4.7 15.49 6.84a58.61 58.61 0 0015.12 4.2 51 51 0 0012.34 0c8.48-1 16.59-3.64 24.75-6a78.57 78.57 0 0114.76-3.23 38.33 38.33 0 0115 1.58 21.11 21.11 0 004.64 1.13c.52.74.06 1.41-.18 2.07A150.25 150.25 0 00216.92 421c-.72 5.4-1 10.84-1.43 16.26-.61 7.34-.66 14.71-1.18 22.06-.07 1-.17 1.95-1.54 2.14-3.89.55-5.7 3.28-6.81 6.69-.28.88-.24 1.87-1 2.56a75.78 75.78 0 01-9.63 2.42 89.07 89.07 0 01-13.45 1.22c-10 .1-19.41-2.48-28.43-6.64-5.89-2.72-11.08-6.52-16.17-10.49a95.93 95.93 0 01-11.45-10.8 76 76 0 01-10.33-14.34 106.37 106.37 0 01-9-20.12 95 95 0 01-3.06-13.56c-1.39-8.82-1.54-17.69-1.54-26.58 0-4.72.21-9.45-.17-14.16-.2-2.39 0-4.79-.27-7.16-.55-5.14-.43-10.31-1.06-15.46s-1.37-10.5-2.49-15.68A53.42 53.42 0 0096 312.46a3.23 3.23 0 00-.82-1.56c-.73-.75-.39-1.63-.26-2.46 2-12.48 3.58-25 5.43-37.51.76-5.13 1.31-10.28 1.76-15.45a4.11 4.11 0 012.52-3.68 32 32 0 008.22-5.93 17.56 17.56 0 004.9-9.61c1-5.75.76-11.53.32-17.28-.47-6-.81-11.93-1.4-17.88-.9-9.21-2.46-18.31-3.83-27.45-1.52-10.14-3.67-20.15-6-30.12a43.44 43.44 0 01-1.32-5 2.43 2.43 0 011-1.86c6.75-5.66 13-11.87 19.75-17.55 1-.86 1.89-1.86 2.84-2.78a4 4 0 012.12-1.4 144.51 144.51 0 0014.93-8A164.84 164.84 0 01167 96a99.37 99.37 0 0128.38-6.89 108.63 108.63 0 0113.11-.77c4.71.12 9.42.48 14.12.83a3.69 3.69 0 012 .7 4.31 4.31 0 01.83 3.41c-.37 2.71-.29 5.44-.39 8.16-.12 3.08-.69 3.51-3.77 3.19a21.34 21.34 0 00-9.24 1.14 53.31 53.31 0 00-18.81 11.39c-7.09 6.53-9.79 15.16-11.27 24.32a65 65 0 00-.41 10.15c0 10-1.77 19.55-6.23 28.58-2.81 5.69-4.05 11.68-2 18 1.48 4.63 4.41 8.31 7.63 11.8.91 1 1.82 1.93 2.7 2.93 1.77 2 2.56 4.08 1.63 6.77-.59 1.68.18 2.49 2.07 2.38 3.09-.18 5.73-1.64 8.22-3.33 2.16-1.46 2.49-1.49 3.93.67 2.25 3.37 4.56 6.71 6.84 10.07C206.74 230.15 207.51 230.8 207 231.8zM344 318.11c-7.12-8.88-14.79-17.25-22.69-25.44-5-5.17-10-10.34-15.18-15.29s-10.28-9.86-15.16-15c-9.2-9.79-18.17-19.79-25.59-31a114.83 114.83 0 01-11.48-23.19c-.16-.42 0-.94-.45-1.28-1-1-.9-2.35-1-3.55-.33-5.74-1.61-11.32-2.61-17a15.32 15.32 0 00-5.82-9.27c-3.64-3-7.5-5.73-11-9a10.85 10.85 0 01-1.15-1.1c-1-1.21-.82-1.64.75-2a9.22 9.22 0 003.2-1.06c.63-.4 1.33-.82 1.46-1.57.43-2.42 1.87-4.34 3-6.42a2.44 2.44 0 00.27-.74c.52-2.58.52-2.58 3.2-2.63a11.19 11.19 0 002.38-.25c1.55-.37 2.33-1.33 2-2.9a9.33 9.33 0 011.37-6.86 12.65 12.65 0 002-6.8 3.6 3.6 0 011-2.53c2-2.2 2.38-4.84 2.05-7.65-.7-5.84-3-10.89-7.67-14.61-1.69-1.33-2.42-2.84-1.68-5 1-2.89.6-5.93.66-8.92 0-.9-.24-1.89.58-2.62a143.78 143.78 0 0129.93 11.62 78.38 78.38 0 0115 10.35 50.46 50.46 0 016.43 6.48.75.75 0 00.77.36c.06-.8.12-1.62.18-2.45 1.12.37.82 1.36.87 2.15a48.34 48.34 0 01-.65 9.07 4.72 4.72 0 00-.11 2.37c1-.79.92-1.88 1.2-2.81.47-1.56.06-3.32 1.08-4.75 1.53 2.54 3.46 4.84 4.44 7.69.17.48.52.54.95.33a2.79 2.79 0 011.38 1.18c-.48.39-1.3.47-.64 1.54 2.62 4.18 4.26 8.84 6.16 13.36 3.67 8.74 7.16 17.57 11.88 25.81 2.17 3.79 4.16 7.73 7.1 11 1.32 1.48 2.61 3 4.05 4.38 3.82 3.67 7.73 7.27 11.66 10.83A123.26 123.26 0 01359 214.2c2.33 2.72 4.6 5.48 6.73 8.36a49.58 49.58 0 012.93 4.74 48.46 48.46 0 016.21 18.11 71.16 71.16 0 01.65 12.1 60.79 60.79 0 01-2.23 14.09 91.11 91.11 0 01-6.59 17 102.72 102.72 0 01-11.33 17.53 71.46 71.46 0 01-10.2 10.59A4 4 0 00344 318.11z"/><path d="M246.57 94.44c0 1.19.05 2.39.09 3.58a30.31 30.31 0 01-1.11 9.48 1.52 1.52 0 00.6 2c.6.41 1.1 1 1.66 1.44 5.16 4.39 7.4 10.09 7.45 16.74a7.22 7.22 0 01-2.37 5.91 1.78 1.78 0 00-.64 1.57 15.23 15.23 0 01-2.47 8.1 7.28 7.28 0 00-1 6.06c.57 2-.36 3.18-2.43 3.54a20.83 20.83 0 01-2.38.17 11 11 0 00-2.89.25 1 1 0 000 1 2.3 2.3 0 01.19 1.16c-.05 1.08-1.49 1.24-1.55 2.12s-.07 1.76-1 2.17a.94.94 0 00-.61 1.26c.38 1.49-.42 2.39-1.52 3.16-1.32.93-2.2 1.2-4.87 1.48-.12.6.4.79.72 1.08a92.79 92.79 0 0010 8.26 26.61 26.61 0 013.73 3.3 16.3 16.3 0 014.37 8.56 188.81 188.81 0 012.87 19.92 4.81 4.81 0 01-.75 2.8c-3.32 5.82-8.16 10-13.82 13.44a89.45 89.45 0 01-18.5 8.22 30.79 30.79 0 01-10.6 1.44 4.06 4.06 0 01-2.76-.91 12.78 12.78 0 00-1.86-3c-2.45-3.64-4.93-7.25-7.5-11a17.22 17.22 0 01-4.65 3.2 16.91 16.91 0 01-5.87 1.81c-2.2.15-3.28-1-2.46-3 1.06-2.56.29-4.48-1.37-6.37-1.93-2.2-4-4.24-5.85-6.55a25.48 25.48 0 01-5.21-10.43 23.3 23.3 0 011.42-13.5c.71-1.86 1.49-3.7 2.34-5.5a56.2 56.2 0 004.89-23.44 99.34 99.34 0 01.49-12 52.46 52.46 0 015-16.73 29.39 29.39 0 016-7.92 53.27 53.27 0 0118.41-11.65 21.42 21.42 0 0113.05-1.11 2 2 0 00.48-1.57 71.62 71.62 0 00.26-12.93c-.71-.71-.53-1.62-.52-2.46A133.8 133.8 0 00222 63.78a31.54 31.54 0 00-3-9.27 6.73 6.73 0 00-4.59-3.82 4.22 4.22 0 01-1.33-.42 3 3 0 00-3.94.34c-1.69 1.44-3.52.59-5.2-.34s-1.79-1-2.59.91a4.47 4.47 0 01-4.78 2.92c-3.9-.45-6.32 1.29-8.83 4-4.07 4.46-9.13 8-13.32 12.31-8 8.3-15.91 16.62-23.64 25.14-1.61 1.78-3.36 3.42-5.06 5.1a2.94 2.94 0 00-1.06 2.65 2.87 2.87 0 01-1.42 3.06 7.08 7.08 0 00-1.89 2.29c-1.5 2.1-3 2.25-5 .52a142 142 0 01-9.48-13.48c-.76-1.29-2-2.56-1.36-4.33l.14-.21 0-.07c.29-1.35 1.37-2.08 2.31-2.91a17.12 17.12 0 001.49-1.32 2.1 2.1 0 013-.46c1 .66 1.47.28 2.16-.4a319.77 319.77 0 0123.83-21.54c7-5.73 14.2-11.22 21.27-16.87 3.06-2.45 6-5 9-7.55a42.89 42.89 0 019.45-6.27 10.79 10.79 0 017.37-.91 6.29 6.29 0 014.91 4.21c.55 1.79 1.73 2 3.17 2A22 22 0 00224 36.22l.34-.2c4.63-2.92 9.81-.46 10.63 5a9 9 0 01-.14 3.77c-1 3.6-.57 7.1.37 10.62s2.29 7.22 3.53 10.8a209 209 0 017.17 24.67C246.14 92.09 246.35 93.27 246.57 94.44zM105.83 138a289.69 289.69 0 017.65 36.06c1 6.7 2.19 13.39 3 20.13.79 6.54 1.37 13.1 1.78 19.67.25 3.85.49 7.7.65 11.56a47.27 47.27 0 01-.94 12.5 17.06 17.06 0 01-5 8.67 35.5 35.5 0 01-9 6.22 1.86 1.86 0 00-1.26 1.77c-.39 6.31-1.27 12.57-2.11 18.83-1.08 8-2.28 16.07-3.45 24.1-.59 4-1.25 8-1.87 12-.07.46-.08.92-.11 1.38-.86 3.49-1.28 7.06-1.89 10.6-1.5 8.71-3.35 17.36-4.67 26.11-1.36 9-2.8 18-4.26 27-2.18 13.39-3.58 26.89-5.64 40.3C77 425.82 75 436.66 72.25 447.37c-.81 3.17-.86 6.45-1.32 9.68a46.68 46.68 0 01-1.36 6.63 1.44 1.44 0 00.64 2 34.11 34.11 0 014.5 3.64c5.87 5.43 12.62 9 20.71 9.74a10.49 10.49 0 013.07.82 6.47 6.47 0 012.27 10.69A16.62 16.62 0 0192.25 495a30.56 30.56 0 01-9.54.33c-9.09-.74-18.09-2.11-27.1-3.47a24.54 24.54 0 01-5-1.35 8.53 8.53 0 01-5.65-9.8 31 31 0 012-6.88c.52-1.29 1.07-2.58 1.66-3.84a.84.84 0 00-.28-1.19c-3.2-2.45-4.57-6-5.54-9.67a82.79 82.79 0 01-2.09-16.6c-.75-13.9-.83-27.8-.61-41.72.15-9.91.8-19.81 1.42-29.7.53-8.5.81-17 1.33-25.52 1-17 .88-34.05 1.3-51.08a154.76 154.76 0 011.53-21.29 2.44 2.44 0 000-1.34 37 37 0 01-1.73-9.39c-.07-3.78-.69-7.54-.45-11.32a7.1 7.1 0 00-2.14-5.55c-4.57-5-9.11-10-12.8-15.79a14.3 14.3 0 01-1.37-13 74.14 74.14 0 015.38-11.57c4.16-7.74 7.87-15.71 11.92-23.51 1.89-3.64 1.63-7.55 1.24-11.34-.49-4.82.26-9.56.34-14.33a48.22 48.22 0 01.94-7.92 3.26 3.26 0 01.61-1.86c.49-2.34 1-4.67 1.47-7 1.74-8.66 6.27-15.72 12.5-21.81.19-.18.35-.37.57-.62-.92-1.25-1.85-2.46-2.73-3.7C55 106.88 55 97.5 59.45 91.69a18.42 18.42 0 0112.43-7.23c4.29-.59 8.6-1 12.88-1.56a26 26 0 0011-3.76c4.07-2.64 9.35.55 9.71 5.63a9.08 9.08 0 01-3 7.52 3.36 3.36 0 00-1 4.25 26.44 26.44 0 011.38 8.63A2.69 2.69 0 0199.57 107c-.58-.56-.32-1.23-.26-1.87a22.78 22.78 0 00-.81-7.07c-.22-1-.71-1.35-1.71-.88-2 1-4.22 1.58-6.31 2.41A6.66 6.66 0 0086 104.7 27.67 27.67 0 0184.24 110a1.53 1.53 0 00.73 2.28A8.58 8.58 0 0187.62 114c-.69 1.88-1.66 2.37-3.76 1.91a8.07 8.07 0 00-6.13-1c-2.16.42-4.29.93-6.41 1.51a20.76 20.76 0 00-10.81 7.48 39.15 39.15 0 00-8.26 17.5 140.18 140.18 0 00-2.51 23.57c-.11 9.39.28 18.76.56 28.13s-.4 18.72-.86 28.07c-.43 8.76-1.33 17.49-1.75 26.25a119.23 119.23 0 00.1 17.73c.4 3.9.4 3.86 4.17 2.71 10.31-3.15 20.67-6.19 30.8-9.84 8.42-3 16.79-6.37 24.43-11.22 5.88-3.74 8-9.28 8.16-15.94a232.39 232.39 0 00-1.13-23.3 457.66 457.66 0 00-8-53.26c-1-4.69-2-9.38-3.06-14C103.33 138.61 104.09 137.71 105.83 138z"/><path fill="#a9eef1" d="M47.61,146.35a72.14,72.14,0,0,1-.8,7.32,127.92,127.92,0,0,0-.44,20.71,16.23,16.23,0,0,1-2,9c-4.18,7.85-7.85,16-12.12,23.78a75,75,0,0,0-4.52,9.75,13.74,13.74,0,0,0,1.72,13.42A129.33,129.33,0,0,0,39.66,243c1.2,1.33,2.37,2.69,3.59,4a2.73,2.73,0,0,1,.79,2.14c-.28,4.45-.16,8.9-.1,13.35-.65-1-.37-2.2-.33-3.29a2.32,2.32,0,0,0-1.51-2.44A176.9,176.9,0,0,1,20.35,244a72.87,72.87,0,0,1-11.17-9.26c-4.12-4.34-7.37-9.19-8.5-15.23a41,41,0,0,1,0-14.82A50.28,50.28,0,0,1,8,187a168.86,168.86,0,0,1,9.74-14.29c2.67-3.46,5.4-6.87,8.29-10.16,1.49-1.7,3-3.35,4.6-5a47.53,47.53,0,0,1,11.51-8.45C43.92,148.13,45.59,146.88,47.61,146.35Z"/><path fill="#21b5bc" d="M84.44,115.66c1.43.23,2.31-.73,3.27-1.52a1.72,1.72,0,0,1,1-1.17c3.33-2,6.75-4,10.14-5.92a1.21,1.21,0,0,1,.77-.13,7.87,7.87,0,0,0,3.19-1.75c3.64-2.16,7.25-4.37,10.79-6.7a114.56,114.56,0,0,1,11.94-7.07c.6,2.88,2.32,5.18,3.94,7.52,2.34,3.38,4.79,6.68,7.19,10-1.2,2.34-3.11,4.09-4.88,6a1.33,1.33,0,0,1-.5.26H131c-2.24,2-4.36,4.24-6.66,6.24-6,5.21-11.71,10.78-17.83,15.86a7.93,7.93,0,0,0-.68.73c-1,.36-2.1.67-2.34,2-.82,1.56-2.44,2.19-3.75,3.16A60,60,0,0,1,90.26,149a20,20,0,0,1-9.65,2c-5.68-.24-9.12-3.92-11.81-8.38-4.07-6.76-2.27-13,3-18A71.26,71.26,0,0,1,84.44,115.66Z"/><path fill="#a9eef1" d="M255.8,383.92a1.56,1.56,0,0,1,1.32-.69,50.72,50.72,0,0,1,12.17,2c-.83,2.6-2.17,5-3.24,7.49-3.41,8-6,16.34-8.73,24.58a93.74,93.74,0,0,1-10.66,22.22,84.58,84.58,0,0,1-12.78,15.22,28.5,28.5,0,0,1-3,2.57,7.94,7.94,0,0,0-1.83,1.78c-.64-.54-.38-1.23-.26-1.86,2.17-10.82,4.36-21.65,8.5-31.93,2.76-6.85,6.59-13.19,10.3-19.57a55.31,55.31,0,0,0,7-18.53C254.78,386,254.71,384.74,255.8,383.92Z"/><path d="M255.8,383.92l-1.44,6.81a48.6,48.6,0,0,1-5.63,14c-2.11,3.69-4.13,7.42-6.26,11.1a87.22,87.22,0,0,0-9.13,23.46c-1.54,6.39-3.16,12.75-4.32,19.22a2.9,2.9,0,0,0,0,.59c-.8,3.95-1.63,7.9-2.25,12,.42-.14.61-.18.78-.26,3.34-1.61,6.14-1,8.51,1.82a11.2,11.2,0,0,1,2.08,3.82,25.39,25.39,0,0,1,1.14,6.86,35.82,35.82,0,0,1-.7,7.73c-.47,2.58-1.84,4.37-4.56,4.88-1,.2-2.07.5-3.12.62a10.7,10.7,0,0,1-10.44-4.47,49.38,49.38,0,0,1-3.53-6,11.68,11.68,0,0,0-1.68-2.66,7.24,7.24,0,0,0-.33,2.87,54.41,54.41,0,0,1-.7,8.93c-.05.26-.05.54-.11.79-.27,1-1,1.72-1.74,1.65a1.67,1.67,0,0,1-1.54-1.58c-.18-1.11-.31-2.23-.47-3.35-.58-4.07-1.18-8.15-1.75-12.23a8.15,8.15,0,0,0-1-3.19A18.08,18.08,0,0,1,205,470.7c.22-2.27.58-4.5,2.08-6.34,1.68-2.05,3.55-3.82,6.66-3.45.16-3.73.29-7.43.47-11.12.52-10.83,1.06-21.65,2.69-32.38a145.75,145.75,0,0,1,8.06-30.15,5.62,5.62,0,0,1,2.78.4,3,3,0,0,1-.28,2.31,157.75,157.75,0,0,0-8.21,36.9c-.6,6.8-1.13,13.62-1.41,20.47-.21,5-.29,10-.29,14.94a10,10,0,0,0,2.85,7.63c.62.59,1.27,1.41,2.18,1.21,1.06-.24.83-1.39,1-2.19,2.18-12.17,4.52-24.31,7.9-36.23,2.15-7.56,5.65-14.47,9.44-21.28,2.68-4.82,5.68-9.47,7.9-14.54A70.22,70.22,0,0,0,252,386.2c.21-.82.2-1.74,1-2.33.65-.91,1.59-.75,2.5-.62C255.79,383.29,255.69,383.69,255.8,383.92Z"/><path fill="#010101" d="M387.52,345.26c-.07.26-.19.64-.29,1a64.5,64.5,0,0,1-8.29,18A142.94,142.94,0,0,1,359.8,388a35.2,35.2,0,0,1-8,6.21c-.67.36-1.5,1-2.08,0s.41-1.39,1.06-1.79a47.55,47.55,0,0,0,9.3-7.79,140.84,140.84,0,0,0,18.11-23.24,64.63,64.63,0,0,0,7.12-15.53,6.5,6.5,0,0,1,.5-1.29.88.88,0,0,1,1.17-.47C387.41,344.33,387.53,344.7,387.52,345.26Z"/><path fill="#22b5bc" d="M252.65 53.6a.91.91 0 01-.75-1.31 18.3 18.3 0 011.43-2.4 16 16 0 003.17-9.68A6.86 6.86 0 01258.11 36c.51-.69 1.06-1.37 1.63-2a9.75 9.75 0 002.58-5.51 13.18 13.18 0 012.13-5.54 34.36 34.36 0 003.69-7.28c.22-.66.55-1.31 1.41-1s.78 1 .6 1.66a11.35 11.35 0 01-.58 1.7 35.06 35.06 0 01-2.69 5.11 14.62 14.62 0 00-2.57 6.41 10.2 10.2 0 01-2.89 5.81 9.7 9.7 0 00-3 7.34 9.22 9.22 0 01-1.14 4.4 53.69 53.69 0 01-3.41 5.63C253.57 53.14 253.26 53.58 252.65 53.6zM340.66 78.76a4.44 4.44 0 01-.77 1.8c-2.8 3.8-5.4 7.76-9 10.92-.75.66-1.44 1.39-2.16 2.08a6.11 6.11 0 00-2 4.62 7.58 7.58 0 01-2.22 5.6 23.17 23.17 0 00-5 7.4 4.06 4.06 0 01-.61 1 .88.88 0 01-1.23.29.87.87 0 01-.38-1.2c1.09-2.12 1.85-4.43 3.39-6.3.59-.72 1.19-1.44 1.84-2.1a6.51 6.51 0 002.06-4.83A8.42 8.42 0 01328 91.33c3.66-3.16 6.51-7 9.36-10.85.56-.75 1-1.58 1.52-2.34a1 1 0 011.23-.37A1 1 0 01340.66 78.76z"/><path fill="#23b6bc" d="M136,47c0,.66,0,1.15-.55,1.36a1,1,0,0,1-1.31-.58,12,12,0,0,1-.64-1.67,9.11,9.11,0,0,0-3.39-4.8,10.15,10.15,0,0,1-4.21-7,8.64,8.64,0,0,0-2.81-5.13,22.18,22.18,0,0,1-3.81-4.34,7.64,7.64,0,0,1-1.48-4.06c0-.62.07-1.27.85-1.36s.87.47,1,1a10.81,10.81,0,0,0,4,6.29,13.17,13.17,0,0,1,4.73,8.28,6.48,6.48,0,0,0,2.9,4.36,11.6,11.6,0,0,1,4.41,6.23C135.78,46.17,135.9,46.68,136,47Z"/><path fill="#23b6bd" d="M13.79,96.5c0-.56.15-1.07.79-1.2s.87.24,1.06.71c.29.74.55,1.5.88,2.23a5.63,5.63,0,0,0,4.17,3.37c.52.1,1,.26,1.56.34a5.38,5.38,0,0,1,4.46,3.55,5.9,5.9,0,0,0,4.66,3.88,10.9,10.9,0,0,1,5.73,3.05,5.63,5.63,0,0,1,1.33,2,1,1,0,0,1-.32,1.25c-.47.34-.88.14-1.27-.17a1.48,1.48,0,0,1-.28-.28c-1.56-2.43-4-3.36-6.66-4a6.11,6.11,0,0,1-4.6-3.77,5.58,5.58,0,0,0-4.86-3.79c-3.69-.6-5.5-3.2-6.48-6.54C13.9,96.9,13.85,96.71,13.79,96.5Z"/><path fill="#030303" d="M301.29 126.83a33 33 0 01-.87 6.49 8.18 8.18 0 01-.65 1.66.84.84 0 01-1 .47.92.92 0 01-.71-1 9.15 9.15 0 01.23-1.16 46.3 46.3 0 00.81-11.69 3.47 3.47 0 00-.2-.75 51.09 51.09 0 00-.76-8.9 11.63 11.63 0 01-.14-1.77.82.82 0 01.73-.82.83.83 0 01.95.56 8.78 8.78 0 01.38 1.53A94.91 94.91 0 01301.29 126.83zM374.18 302.84a60.94 60.94 0 01-2.42 11.88 44.62 44.62 0 01-2.69 7.06 8.46 8.46 0 01-1.72 2.42 1.07 1.07 0 01-1.45.21.94.94 0 01-.13-1.41c3.36-5.18 4.74-11.06 6-17 .23-1.1.35-2.23.52-3.34.11-.67.41-1.17 1.17-1S374.21 302.26 374.18 302.84z"/><path fill="#040303" d="M194.64,12.57a7.67,7.67,0,0,1,2.46,1.09A46.73,46.73,0,0,1,206.51,22a2.34,2.34,0,0,1,.25.3c.32.49.46,1,0,1.44a.93.93,0,0,1-1.28,0,12.64,12.64,0,0,1-1.61-1.49,47.49,47.49,0,0,0-6.62-6.05,7.14,7.14,0,0,0-3.15-1.62c-.68-.09-1.21-.34-1.07-1.11S193.84,12.5,194.64,12.57Z"/><path fill="#050404" d="M352,403.52c-.74,0-1.28-.1-1.42-.72s.3-1.07,1-1.24a36.51,36.51,0,0,0,5.5-1.72,24.9,24.9,0,0,0,5.43-2.91c.55-.42,1.16-.87,1.71-.11s0,1.25-.54,1.69a10.55,10.55,0,0,1-1.3.92,30.73,30.73,0,0,1-9.52,3.91Z"/><path fill="#070606" d="M308.06 136a1.08 1.08 0 01-1.38-1.18 15.87 15.87 0 001.77-7.64c0-.93 0-1.85 0-2.78a.91.91 0 01.77-1 .9.9 0 011.12.84C310.49 128.36 310.85 132.5 308.06 136zM380 316.06a12 12 0 01-.27 1.17 21 21 0 01-3.39 6.49 6.11 6.11 0 01-2.1 1.81 1 1 0 01-1.26-.2.88.88 0 01.07-1.25 5.55 5.55 0 01.42-.42 16 16 0 004.46-7.41c.08-.25.15-.5.24-.75.18-.55.52-1 1.15-.87S380.08 315.29 380 316.06z"/><path fill="#090707" d="M208.49,16.18a.91.91,0,0,1-1.29.79,2.61,2.61,0,0,1-1-.9,36.47,36.47,0,0,0-3.88-4.27c-.46-.39-.7-.88-.35-1.39a1,1,0,0,1,1.42-.19,24.06,24.06,0,0,1,5.07,5.58A.92.92,0,0,1,208.49,16.18Z"/><path fill="#43c0c5" d="M364.89,150a1,1,0,0,1,.93,1.1.91.91,0,0,1-1.11.86.84.84,0,0,1-.82-.94A1,1,0,0,1,364.89,150Z"/><path fill="#30bbc1" d="M99.2,63.43c0,.58-.2,1.06-.88,1.07s-.93-.47-.95-1,.23-1.06.89-1.06S99.17,62.83,99.2,63.43Z"/><path fill="#46c2c8" d="M321.22,66.46c0,.73-.29,1.13-.9,1.15s-.92-.47-.95-1a.81.81,0,0,1,.8-.92A1,1,0,0,1,321.22,66.46Z"/><path fill="#2eb8bf" d="M157.93,41.76c-.05.61-.34,1-1,1a.88.88,0,0,1-.86-.92.87.87,0,0,1,1-1C157.65,40.89,157.89,41.24,157.93,41.76Z"/><path fill="#45c1c7" d="M257.13,2a1,1,0,0,1-1-1,.85.85,0,0,1,.8-.94A.91.91,0,0,1,258,.88C258.09,1.5,257.71,1.84,257.13,2Z"/><path fill="#51c5ca" d="M26.12,81.87c-.07.52-.32.92-.89.87a.8.8,0,0,1-.78-.95.78.78,0,0,1,.77-.77C25.78,81,26,81.35,26.12,81.87Z"/><path fill="#39bdc3" d="M162.73,12.58c0,.53-.32.84-.87.81a.74.74,0,0,1-.78-.71.8.8,0,0,1,.79-.92C162.44,11.71,162.68,12.05,162.73,12.58Z"/><polygon fill="#21b5bc" points="125.71 91.12 125.78 91.19 125.67 91.19 125.61 91.1 125.71 91.12"/><path fill="#fff" d="M253,383.87a56.68,56.68,0,0,1-6.39,18.56c-2.06,3.56-4,7.2-6.08,10.76a98.81,98.81,0,0,0-10.35,26.21c-2.62,10.46-4.54,21-6.41,31.64-.22,1.25-.26,1.29-1.52.88a5.85,5.85,0,0,1-2.72-1.94,11.26,11.26,0,0,1-2.46-5.79,55.39,55.39,0,0,1-.1-9.55c.32-10.44,1-20.86,2.08-31.25a157.16,157.16,0,0,1,6.09-28.2c.76-2.55,1.6-5.07,2.59-7.53A50,50,0,0,0,245,385.88c2.28-.68,4.52-1.5,6.84-2C252.24,383.77,252.61,383.6,253,383.87Z"/><path fill="#000001" d="M199.78,253.49a3.75,3.75,0,0,1-1.06,1.55c-3.49,4.12-7.26,8-11,11.84-7.16,7.34-14.32,14.67-20.93,22.52a171.57,171.57,0,0,0-21.7,32.69c-1.39,2.73-2.49,5.58-3.63,8.43-.31.78-.32,2-1.66,1.83-.76-.1-.82-.89-.24-2.63a81.47,81.47,0,0,1,5.83-12.88,183.71,183.71,0,0,1,26.55-36.59c6.79-7.42,13.94-14.48,20.91-21.72,1.57-1.63,3.06-3.33,4.59-5a3.06,3.06,0,0,1,1.19-1A.88.88,0,0,1,199.78,253.49Z"/><path fill="#000101" d="M322.51 359.72c0 6.93-2.75 12.77-7.21 17.91a27.64 27.64 0 01-5.45 5 12.85 12.85 0 01-4.93 2.06 5.67 5.67 0 01-3.33-.31.93.93 0 01-.65-1.1.87.87 0 011-.72c3.9.84 6.59-1.34 9.18-3.69a30.83 30.83 0 002.62-2.74c5.9-6.82 8-14.58 5.7-23.39a44.66 44.66 0 00-2.13-6.64A160.62 160.62 0 00300.58 316c-1-1.34-2.08-2.59-3.11-3.89a12.45 12.45 0 01-.83-1.12.8.8 0 01.11-1.09 1 1 0 011.11-.15 3.25 3.25 0 011.05.9 48.06 48.06 0 015 6.23A168.54 168.54 0 01319 344.45 38.26 38.26 0 01322.51 359.72zM260.92 352.17c.08 4.1-.2 8.4-2 12.45a31.6 31.6 0 01-8.9 11.61 18.42 18.42 0 01-9.53 3.74h-.19c-.8 0-1.83.16-1.92-.9s1-1 1.73-1.08a15.68 15.68 0 008.73-3.54c4.71-4.14 8.29-9 9.48-15.31a41 41 0 00.43-10.14 62.88 62.88 0 00-2.89-16.65 4 4 0 01-.15-.57c-.08-.54-.17-1.1.48-1.36s1.14.16 1.39.75a31.74 31.74 0 012.06 7.06A72.11 72.11 0 01260.92 352.17zM176.57 383.56c-.27 0-.8.07-1.33.07a.87.87 0 01-.92-.86 1 1 0 01.72-1.06 4.89 4.89 0 011.38-.11 12.79 12.79 0 008.4-2.61c8.47-6.43 14.18-14.63 15.76-25.36.13-.82 0-2 1.19-1.95s.85 1.27.84 2.05a18.21 18.21 0 01-1 5.86 43.18 43.18 0 01-14.11 20.12A16.26 16.26 0 01176.57 383.56z"/><path fill="#000202" d="M253.8 228.31c0-.6.12-1 .62-1.21a.92.92 0 011.24.67c.32.87.56 1.78.93 2.63a70.9 70.9 0 0010.26 17.23 15 15 0 01.95 1.27.84.84 0 01-.13 1.24 1 1 0 01-1.28 0 3.88 3.88 0 01-.73-.67A62.37 62.37 0 01254 229C253.92 228.74 253.85 228.48 253.8 228.31zM135.44 358.75c0-.74 0-1.47 0-2.2s0-1.78 1.18-1.7.87 1 .84 1.72a33.59 33.59 0 00.78 8.12 39.41 39.41 0 004.58 12.7 4.09 4.09 0 01.46.88.86.86 0 01-.39 1 .77.77 0 01-1.08-.11 8.28 8.28 0 01-1.06-1.43A42.44 42.44 0 01135.44 358.75z"/><path fill="#010303" d="M286.17,271.58a.86.86,0,0,1-1.27.77,5.52,5.52,0,0,1-1.24-1q-4.46-4.55-8.87-9.13a3.24,3.24,0,0,1-.6-.79.84.84,0,0,1,.15-1.09.89.89,0,0,1,1.11-.09,5.9,5.9,0,0,1,1,.9q4.29,4.29,8.57,8.6C285.57,270.29,286.15,270.76,286.17,271.58Z"/><path fill="#010404" d="M252.08,353.49a43,43,0,0,1-2.34,9.85,3.88,3.88,0,0,1-.15.36c-.28.55-.63,1.12-1.35.91s-.69-.88-.56-1.5a7.89,7.89,0,0,1,.3-.94,44.44,44.44,0,0,0,2.12-8.89,5.6,5.6,0,0,1,.07-.59c.12-.58.41-1,1.06-1s.83.57.85,1.16Z"/><path fill="#010505" d="M353.47,347.41c0,.73-.14,1.17-.62,1.34s-1-.16-1.24-.69c-.32-.8-.57-1.63-.87-2.44a25.48,25.48,0,0,0-2.39-4.57,12,12,0,0,1-.71-1.19.89.89,0,0,1,.38-1.21.8.8,0,0,1,1.08.16A22.09,22.09,0,0,1,353.47,347.41Z"/><path fill="#22b5bc" d="M139.52,171.2a3.17,3.17,0,0,1-.49,1.29,26.24,26.24,0,0,0-2.14,7.22,27.52,27.52,0,0,0,.15,2.76c0,.71.25,1.53-.47,2s-1.52.19-2.21-.26a8.62,8.62,0,0,0-2.57-1.06,7.81,7.81,0,0,0-5.24.38c-.65.28-1.25.43-1.82-.16s-.25-1.12,0-1.67a25.15,25.15,0,0,0,1.63-4.47,13.47,13.47,0,0,0,.06-5.14c-.13-.62-.32-1.33.37-1.82s1.25-.05,1.84.24a9.39,9.39,0,0,0,9.13-.1C138.81,169.84,139.55,170.18,139.52,171.2Z"/><path fill="#22b6bc" d="M151.38,117.89a4.32,4.32,0,0,1,4.65-4.35,4.5,4.5,0,0,1,4.5,4.6,4.81,4.81,0,0,1-4.66,4.56A4.49,4.49,0,0,1,151.38,117.89Z"/><path fill="#030404" d="M106,300.63a30.86,30.86,0,0,0,.69,10.62,28.89,28.89,0,0,0,1.84,5.67c.3.7.86,1.58-.19,2.05s-1.38-.51-1.73-1.2A29.32,29.32,0,0,1,104,307.41c-.18-1.71-.13-3.45-.15-5.17a4.24,4.24,0,0,1,.39-1.94,1,1,0,0,1,1.13-.59A.81.81,0,0,1,106,300.63Z"/><path fill="#040404" d="M121,406.17a1,1,0,0,1-1.29.87,12.72,12.72,0,0,1-2.23-.83,39,39,0,0,1-9.76-7.15,3.06,3.06,0,0,1-.57-.8.83.83,0,0,1,.12-.94.82.82,0,0,1,1.08-.2,8.17,8.17,0,0,1,1.09.85,36.53,36.53,0,0,0,10.35,7C120.32,405.19,120.89,405.43,121,406.17Z"/><path fill="#040506" d="M112.75,300.93a.89.89,0,0,1,.74.95,21.26,21.26,0,0,0,2.24,7.95,2.83,2.83,0,0,1,.24.95.81.81,0,0,1-.46.81.85.85,0,0,1-.93-.09,3.06,3.06,0,0,1-.82-1.1,22.52,22.52,0,0,1-2.2-7.57,2.28,2.28,0,0,1,.15-1.36A1,1,0,0,1,112.75,300.93Z"/><path fill="#070708" d="M130.27,405a6.33,6.33,0,0,1-4.54-2.5.9.9,0,0,1,0-1.27.82.82,0,0,1,1.24-.12,8.14,8.14,0,0,0,4,2.14.75.75,0,0,1,.59.92C131.35,404.94,130.7,404.94,130.27,405Z"/><path fill="#31bbc1" d="M141,218.37c-.05.68-.37,1.11-1.08,1.12a.77.77,0,0,1-.84-.85,1,1,0,0,1,.84-1.12C140.54,217.42,140.86,217.8,141,218.37Z"/><path fill="#35bec4" d="M129.22,266.16c.59.08,1,.39,1,1a1,1,0,0,1-1.09.89c-.63,0-.87-.51-.82-1.11S128.7,266.18,129.22,266.16Z"/><path fill="#33bdc4" d="M182.84,240.21a1.08,1.08,0,0,1-1,1c-.53.05-.83-.33-.87-.84a.81.81,0,0,1,.9-1A.86.86,0,0,1,182.84,240.21Z"/><path fill="#30bbc1" d="M171.38,141a.74.74,0,0,1-.85.62.73.73,0,0,1-.73-.92.66.66,0,0,1,.79-.64A.87.87,0,0,1,171.38,141Z"/><path fill="#22b5bc" d="M277.8 206.24a1.88 1.88 0 011.47.63q1.78 1.44 3.58 2.84a4.45 4.45 0 002.95 1 4.66 4.66 0 011 .05c.59.11 1.24.26 1.45.9s-.24 1.09-.73 1.48-1.21 1-1.81 1.57a8.89 8.89 0 00-3.19 5.35c-.1.61-.25 1.19-1 1.35a1.33 1.33 0 01-1.48-.76c-1.33-2.21-3.41-3-5.85-3.18a5.06 5.06 0 01-.79-.06c-1.4-.3-1.73-1.19-.85-2.28a3.33 3.33 0 01.42-.42 11 11 0 003.89-7.17C277 206.82 277.25 206.27 277.8 206.24zM302.4 212.65a.75.75 0 01-.72-.51.84.84 0 01.26-1.07c2-1 2.59-3.12 3.56-4.9a8.79 8.79 0 015-4.59 8.68 8.68 0 005-4.33 11 11 0 015.44-5.05c2.21-1 3.55-2.94 4.91-4.83a16.91 16.91 0 011.15-1.62 1 1 0 011.28-.13.93.93 0 01.37 1.22 3.88 3.88 0 01-.44.89c-1.89 2.83-3.86 5.6-7.23 6.88a5.85 5.85 0 00-3.13 2.94 11.91 11.91 0 01-7.15 6.24 4.86 4.86 0 00-2.58 2.09A33.42 33.42 0 00306 209.7a6.17 6.17 0 01-2 2.41A2.49 2.49 0 01302.4 212.65z"/><path fill="#23b6bd" d="M319.91,167.7a4.2,4.2,0,0,1-4.12,4.07,4.31,4.31,0,0,1-4.14-4.05,4.13,4.13,0,1,1,8.26,0Z"/><path fill="#31bcc3" d="M277.93,113.18a1.1,1.1,0,0,1,.94,1.28c0,.6-.29,1.1-.93,1a1.22,1.22,0,0,1-1-1.29A.94.94,0,0,1,277.93,113.18Z"/><path fill="#32bbc2" d="M339.58,228.52c-.09.51-.35.86-.89.88s-.79-.4-.75-.91.28-.92.84-.9S339.55,228,339.58,228.52Z"/><path fill="#33bcc2" d="M285.63,172a.68.68,0,0,1-.77.7c-.44,0-.76-.21-.75-.69s.31-.87.85-.81A.75.75,0,0,1,285.63,172Z"/><path fill="#fff" d="M224.38,162.46c2.7,3,5.36,5.74,8.13,8.32a73,73,0,0,0,7.71,6.32,26.54,26.54,0,0,1,3.35,2.83,13.47,13.47,0,0,1,4,7.39,189.13,189.13,0,0,1,2.78,18.94,3.59,3.59,0,0,1-.55,2.26,31.08,31.08,0,0,1-8.54,9.37c-6.7,4.85-14.25,8-22,10.69a32.18,32.18,0,0,1-8.23,1.47,2,2,0,0,1-2.08-.8c-6.17-8.92-12.27-17.88-16.7-27.84a75.91,75.91,0,0,1-3.55-9.73,24.36,24.36,0,0,1,2.16-18.91,59.83,59.83,0,0,1,5.67-8.67c2.43-3.14,5-6.2,7.67-9.57.23,1.77.38,3.2.62,4.62A38.77,38.77,0,0,0,216.06,181a17.61,17.61,0,0,0,8.37,4.77,3.71,3.71,0,0,0,2.35-.1,1.76,1.76,0,0,0,.81-3,5.44,5.44,0,0,0-2.87-1.72,1.48,1.48,0,0,1-1.28-1.47,65,65,0,0,1-.5-12.15A14.63,14.63,0,0,1,224.38,162.46Z"/><path fill="#fff" d="M220.55 180.73a9.78 9.78 0 01-2.33-1.82c-6.23-6.11-9.47-13.63-10.9-22.15a13.57 13.57 0 012-9.75 218.11 218.11 0 0014-27.1 58 58 0 004-17c.64-6.86.31-13.7.06-20.55A127.06 127.06 0 00225 61a28.07 28.07 0 00-3.26-8.74 9 9 0 00-6-4.56l-.19-.05c-4.4-1.22-4.4-1.22-3.75-5.88A23 23 0 00220 41a23.41 23.41 0 006.39-2.72c1.63-1.08 2.94-.85 4.23.59a5 5 0 011.36 4.8c-1.51 5.39-.46 10.54 1.21 15.67 2.35 7.2 5.05 14.28 7.07 21.59.85 3.08 1.67 6.15 2.41 9.26a35.41 35.41 0 01-.74 19.28c-5.33 16.88-11.25 33.52-19.21 49.36A27.09 27.09 0 00220 174.63C220.23 176.59 220.35 178.55 220.55 180.73zM140.49 100.89a55.29 55.29 0 01-7-10q6.14-5.66 12.25-11.33c9.85-9.17 20.46-17.42 31-25.7Q183.5 48.59 189.91 43a43.8 43.8 0 019.17-6.33 9.24 9.24 0 015-1.06 4.18 4.18 0 014 3.08 12.92 12.92 0 01-.16 8c-.36 1.14-.69 1.27-1.75.75-.71-.36-1.36-.83-2-1.24a7.7 7.7 0 00-2.34-1.09 2.05 2.05 0 00-2.51 1.08 7 7 0 00-.6 1.68c-.68 2.77-.5 2.6-3.46 2.68-1.19 0-2.39 0-3.59 0a3.14 3.14 0 00-2.69 1.06c-4.54 5.82-10.59 10.07-15.83 15.17-5.39 5.24-10.32 10.93-15.51 16.36S147.34 94 142.21 99.43A4.87 4.87 0 01140.49 100.89z"/><path fill="#fff" d="M243.29,138.7a1,1,0,0,0-.29,1.41c.36.51,1,.39,1.46.18a3.91,3.91,0,0,1,2.54-.19c1.36.35,1.71,1.13.94,2.32a8.26,8.26,0,0,0-1.26,7.21c.24.79-.09,1.13-.83,1.2s-1.2.06-1.8.1a30.73,30.73,0,0,0-3.18.25,2.18,2.18,0,0,0-2.08,2.78c.1.74.16,1.26-.69,1.56a1.44,1.44,0,0,0-1,1.88.83.83,0,0,1-.4,1,2.22,2.22,0,0,0-.75,2.52c.29.92-.19,1.36-.85,1.77-1.83,1.13-3.83,1-5.81.7-.83-.11-1.16-1-1.78-1.53-1.71-1.36-1.79-2.72-.75-4.71,2.06-3.94,3.76-8.07,5.61-12.12.22-.48.31-1,.78-1.37a29.93,29.93,0,0,1,10.18-5.26c.12.07.16.15.12.22S243.34,138.7,243.29,138.7Z"/><path fill="#21b4bb" d="M189,146.73c.46-4,.8-7.94,1.43-11.87.91-5.68,3.76-10.44,7.36-14.82a33.74,33.74,0,0,1,14.19-10.33,11,11,0,0,1,4.26-.92c.57,0,1.09.16,1.14.84s-.45.92-1,1c-8,1.53-13.66,6.48-18.46,12.68a30.16,30.16,0,0,0-6.08,17c-.15,2.18-.46,4.36-.7,6.54a5.75,5.75,0,0,1-.22,1.17.92.92,0,0,1-1.08.67.89.89,0,0,1-.77-.8,7.86,7.86,0,0,1,0-1.19Z"/><path fill="#fafbfb" d="M130.05,90.22a58.18,58.18,0,0,0,9.07,13.69c1,1.08.11,1.62-.38,2.35-.63,0-.75-.52-1-.86q-3.94-5.49-7.87-11c-.26-.38-.51-.78-.73-1.18C128.26,91.63,128.27,91.62,130.05,90.22Z"/><path fill="#20b0b7" d="M190.59 208.89c0 .5-.21.91-.77 1a1.08 1.08 0 01-1.22-.78 25.64 25.64 0 00-3.71-5.61c-.29-.37-.57-.74-.82-1.13a4.74 4.74 0 01-.52-1.06 1 1 0 01.63-1.46c.61-.2 1 .11 1.22.69.53 1.4 1.66 2.38 2.52 3.54a26.62 26.62 0 012.18 3.31A3 3 0 01190.59 208.89zM250.86 124.51a16.26 16.26 0 01-2.34 6.42 3.74 3.74 0 01-1.43 1.36.93.93 0 01-1.1-.16.87.87 0 01-.14-1.09 3 3 0 01.47-.65 10.92 10.92 0 002.27-4.81c.11-.45.21-.9.33-1.35s.44-1 1.09-1S250.9 124 250.86 124.51z"/><path fill="#20b0b6" d="M183.74,175a26.7,26.7,0,0,1-2.49,6.33,1,1,0,0,1-1.31.58c-.73-.31-.62-1-.42-1.53s.49-1.09.74-1.63a24.82,24.82,0,0,0,1.57-4.27c.17-.66.55-1.1,1.28-.89S183.8,174.28,183.74,175Z"/><path fill="#eef3f3" d="M245,137.63l5.4-2.35a9.22,9.22,0,0,1-.86,3.8,6.89,6.89,0,0,0-4.16-1.06C244.94,138.15,244.84,138,245,137.63Z"/><path fill="#9ca8a8" d="M245,137.63l.38.39a9.23,9.23,0,0,1-2,.68.21.21,0,0,1,0-.31C243.67,137.74,244.35,137.77,245,137.63Z"/><path fill="#fff" d="M99.63 255A51.42 51.42 0 0199 262.2c-1.85 15-4 29.92-6.31 44.84C91 317.82 88.91 328.52 87 339.25c-1.4 7.86-2.58 15.75-3.82 23.63-1.13 7.16-2.29 14.31-3.32 21.49-1.25 8.75-2.32 17.53-3.57 26.29A304.84 304.84 0 0170 443.75a94 94 0 00-2 12.79 43.2 43.2 0 01-1.52 7.21 3.15 3.15 0 01-2.37 2.39 43 43 0 01-8.39 1.66 7.79 7.79 0 01-8.17-4.49c-1.94-3.74-2.6-7.8-3.11-11.89-.83-6.61-1-13.27-1.18-19.92-.43-13.18-.33-26.35.11-39.53.33-9.84 1.27-19.65 1.68-29.49.55-13.56 1.49-27.1 1.64-40.68.15-13.78.34-27.55 1-41.32.08-1.92.49-3.83.57-5.75a2.59 2.59 0 012.16-2.62c3.41-1.1 6.77-2.36 10.23-3.31 5.71-1.56 11.32-3.41 16.89-5.39a46.55 46.55 0 014.75-1.47c4.23-1 8-3.28 12-4.77C96 256.51 97.69 255.51 99.63 255zM84.44 115.66c-.22 1.17-1.33 1.4-2.12 1.91a73.42 73.42 0 00-9.83 7.15c-3.39 3-5.62 6.72-5.34 11.52a11.06 11.06 0 00.59 2.92 19.57 19.57 0 006.58 9.08c3.05 2.42 6.57 2.66 10.24 2a25.72 25.72 0 009-3.62c2.89-1.78 5.69-3.7 8.42-5.72a5 5 0 011.5-.95c1.2 3.19 1.64 6.56 2.39 9.87 3.23 14.34 5.45 28.86 7.49 43.41 1.13 8.1 1.66 16.27 2.17 24.43.25 4.12.48 8.24.38 12.37a40.89 40.89 0 01-.71 6.53 14.52 14.52 0 01-4.77 8.32 32.58 32.58 0 01-8.64 5.66c-5.64 2.51-11.25 5.11-17 7.37-4.19 1.65-8.6 2.72-12.85 4.24-7.82 2.78-16 4.56-23.77 7.62a23.65 23.65 0 01-1.2-6.89 108.69 108.69 0 01.09-14.55q.38-6.68.85-13.34c.5-6.89.93-13.8 1.42-20.7.61-8.5.47-17 .32-25.53-.17-9.64-.91-19.28-.34-28.93a107.49 107.49 0 013.47-23c1.92-6.78 5.89-12.3 10.87-17.14 2.16-2.09 5-3 7.77-3.91a52.1 52.1 0 016.19-1.48A8.21 8.21 0 0184.44 115.66zM54.68 470.79a29.49 29.49 0 0012.61-2.89 1 1 0 011.23.16c1.16.89 2.35 1.75 3.42 2.74 1.87 1.71 3.89 3.22 5.9 4.75a31 31 0 0014.38 5.95c1.45.21 2.89.47 4.31.8a3.66 3.66 0 013 2.81 3.83 3.83 0 01-1.63 4 15.79 15.79 0 01-7.2 3.18c-3.67.67-7.31.17-10.94-.18-7.67-.73-15.29-1.91-22.92-3a26.58 26.58 0 01-4.82-1.21c-3.17-1.11-4.42-3-4.2-6.35a11.9 11.9 0 01.24-1.78 50.5 50.5 0 012.82-8.28c.28-.7.65-1.08 1.49-.88A17.93 17.93 0 0054.68 470.79zM44.32 243.73c-1.76-1.93-3.25-3.51-4.66-5.16a106.41 106.41 0 01-7.39-9.4 19.78 19.78 0 01-2-3.66 8.42 8.42 0 01-.38-5.27 34.45 34.45 0 013-7.8c4.43-8.47 8.76-17 12.9-25.62a2.1 2.1 0 01.62-.81C47.73 205.16 45.62 224.16 44.32 243.73zM99.61 106.92a6.26 6.26 0 01-2 1.35q-5 3-10 5.87c-1.76-.46-3.08-1.74-4.83-2.49A31 31 0 0085.62 104a6.2 6.2 0 013.53-4.31 34.5 34.5 0 013.67-1.51 22.91 22.91 0 004.59-1.87c.86-.52 1.12-.2 1.34.62A24.26 24.26 0 0199.61 106.92z"/><path fill="#21b3ba" d="M69.29,89.29a1,1,0,0,1,.92.41.87.87,0,0,1,0,1.11,10.11,10.11,0,0,1-1,.91c-.77.63-1.57,1.23-2.3,1.9-4.6,4.18-5.56,9.28-3.76,15.06.14.44.34.87.45,1.32a.85.85,0,0,1-.49,1,.86.86,0,0,1-1.07-.23,3.55,3.55,0,0,1-.75-1.39c-2-4.94-1.23-12.48,3.51-16.74A27.36,27.36,0,0,1,67.93,90,3.5,3.5,0,0,1,69.29,89.29Z"/><path fill="#20b2b8" d="M97.5,81.73a4.18,4.18,0,0,1,4.36,4c0,.58-.23,1-.87,1.16A1,1,0,0,1,99.83,86a5.4,5.4,0,0,0-.18-.57c-.65-1.72-1.33-2.06-3-1.31a28.19,28.19,0,0,1-4.25,1.67A2.64,2.64,0,0,1,91,86a.91.91,0,0,1-.76-.82c0-.36.1-.76.41-.83C93.2,83.76,95.37,82.2,97.5,81.73Z"/><path fill="#1da7ae" d="M83.16,86.16c.58,0,1.13.14,1.23.8s-.37,1.05-1,1.16-1.32.28-1.84-.32a.74.74,0,0,1-.08-.91C81.85,86.23,82.55,86.27,83.16,86.16Z"/><path fill="#3fc1c7" d="M22.14,196.31c.53,0,.9.23.95.76a.73.73,0,0,1-.66.81.8.8,0,0,1-1-.63C21.29,196.73,21.64,196.42,22.14,196.31Z"/><path fill="#3bc0c6" d="M39.81,156.71c-.54-.09-.85-.31-.86-.75a.74.74,0,0,1,.89-.78c.46,0,.62.39.6.82A.7.7,0,0,1,39.81,156.71Z"/><path fill="#000202" d="M71.58,134.8a10.43,10.43,0,0,1,3.15-7.9,55.49,55.49,0,0,1,5.59-4.8,10.57,10.57,0,0,1,1-.64.93.93,0,0,1,1.27.16,1,1,0,0,1-.08,1.44,9.18,9.18,0,0,1-1.07.89c-1.43,1.19-2.91,2.33-4.28,3.59-3.75,3.46-4.59,7.77-2.51,12.48.16.36.39.7.52,1.07a.89.89,0,0,1-1.42,1,3.33,3.33,0,0,1-1-1.47A14.11,14.11,0,0,1,71.58,134.8Z"/><path fill="#010404" d="M123.07,117.6a.93.93,0,0,1-.87-.36.85.85,0,0,1,.06-1.1,5.07,5.07,0,0,1,.69-.7l6.72-5.93a3.61,3.61,0,0,1,.61-.5.84.84,0,0,1,1.09.1.89.89,0,0,1,.17,1.1,3.78,3.78,0,0,1-.59.79c-2.14,2.08-4.34,4.1-6.66,6A2.07,2.07,0,0,1,123.07,117.6Z"/><path fill="#020b0c" d="M81.82,145.49a1.21,1.21,0,0,1-1.18,1.17,4.39,4.39,0,0,1-3.19-1.76.89.89,0,0,1,0-.94.72.72,0,0,1,.85-.38c1.09.43,2.08,1.1,3.22,1.44C81.67,145.06,81.73,145.34,81.82,145.49Z"/><path fill="#a9eef1" d="M131.42,114.73a.45.45,0,0,1-.4.42A.52.52,0,0,1,131.42,114.73Z"/><path fill="#fff" d="M236.29,484.18c-.12,2.21-.27,4-.51,5.78s-1,2.94-2.91,3.25c-1,.16-2,.36-3,.44a7.47,7.47,0,0,1-6.57-2.67,23.23,23.23,0,0,1-2.7-4.17,47.84,47.84,0,0,0-3.63-6.18,4,4,0,0,0-2.92-1.85,4.05,4.05,0,0,1-2.42-1.26,12.23,12.23,0,0,1-3.25-5.18,7,7,0,0,1,2.72-8.09,3.71,3.71,0,0,1,.86-.5c1.17-.45,2,.06,2.18,1.33a13.56,13.56,0,0,0,3.33,7.12,8.06,8.06,0,0,0,10.8,1.61c2.06-1.38,4.16-1.12,5.82,1.2a8.06,8.06,0,0,1,1.15,2.31A23.43,23.43,0,0,1,236.29,484.18Z"/><path fill="#22b5bc" d="M288.62,70.07a1.54,1.54,0,0,0-1.69-.77c-3,.13-5.72-1-8.44-2.09a2.83,2.83,0,0,1-1.63-1.39c-.29-.59-.54-1.37-1.39-1.08s-.78,1.13-.73,1.87c0,.13,0,.26.09.6s-.06,1-.15,1.58a20.86,20.86,0,0,1-3.1,8.75,1.52,1.52,0,0,0-.15,1.85,1.43,1.43,0,0,0,1.61.45,9.86,9.86,0,0,1,8.12,1.74,2.54,2.54,0,0,0,.71.37,1.24,1.24,0,0,0,1.77-.76,5.19,5.19,0,0,0,.29-1.16A14.07,14.07,0,0,1,288,71.79C288.45,71.32,289,70.85,288.62,70.07Zm-6.83,9.29a13,13,0,0,0-7.57-1.91,29.71,29.71,0,0,0,2.49-8.58,42.67,42.67,0,0,0,8.43,2.6A22.24,22.24,0,0,0,281.79,79.36Z"/><path fill="#23b6bd" d="M25.46,121.86a1.32,1.32,0,0,0-1.48-.29,10.25,10.25,0,0,1-8.11-.74c-.95-.5-1.63-.1-1.62.9A15.85,15.85,0,0,1,12,130.48c-.7,1.12-.12,1.94,1.23,1.89a18,18,0,0,0,2-.29,11.1,11.1,0,0,1,5.83,2.19c1.35.92,2.21.45,2.11-1.16a16.1,16.1,0,0,1,2.2-9.76A1.23,1.23,0,0,0,25.46,121.86Zm-4.56,9.65a13.36,13.36,0,0,0-6-1.6,24.28,24.28,0,0,0,1.24-5.53c0-.56.26-.93.88-.71a15.8,15.8,0,0,0,5.41.61A26.9,26.9,0,0,0,20.9,131.51Z"/><path fill="#24b6bd" d="M296.75 2.18a4.83 4.83 0 00-4.69 4.94 4.82 4.82 0 004.63 4.59 4.88 4.88 0 004.83-4.83A4.92 4.92 0 00296.75 2.18zm.13 7.31a2.59 2.59 0 01-2.73-2.56 2.51 2.51 0 012.59-2.46 2.37 2.37 0 012.57 2.43A2.43 2.43 0 01296.88 9.49zM70.07 42.55A4.58 4.58 0 0070 51.71a4.62 4.62 0 004.62-4.53A4.7 4.7 0 0070.07 42.55zm-.06 7a2.52 2.52 0 01-2.41-2.42A2.48 2.48 0 0170 44.73 2.33 2.33 0 0172.43 47 2.4 2.4 0 0170 49.59z"/><path fill="#080707" d="M248.52,393.54c-.67,2.21-1.46,4.73-3.57,6.54a2,2,0,0,1-.9.36.89.89,0,0,1-1-.47.73.73,0,0,1,.11-.91,13.13,13.13,0,0,0,3.51-6.1,1,1,0,0,1,1.19-.81C248.36,392.26,248.6,392.67,248.52,393.54Z"/><path fill="#3cbfc5" d="M209.75,66.76a.88.88,0,0,1-.85.89.8.8,0,0,1-.88-.84.77.77,0,0,1,.82-.89A.85.85,0,0,1,209.75,66.76Z"/><path fill="#a8eef1" d="M134.73,181.79c-2.43-.69-4.63-1.45-7.17-.85.23-1.68.88-3.13.88-4.69a7.63,7.63,0,0,0,0-2c-.21-.88,0-1.2,1-1,2.06.45,4.14,1,6.58,0C135.55,176.29,134.38,178.84,134.73,181.79Z"/><path fill="#a6edf0" d="M158.26,118a2.33,2.33,0,0,1-2.32,2.43,2.4,2.4,0,0,1-2.46-2.32,2.49,2.49,0,0,1,2.35-2.46A2.4,2.4,0,0,1,158.26,118Z"/><path fill="#a8edf1" d="M280.69,217.8a10.19,10.19,0,0,0-5.26-2.39,17.92,17.92,0,0,0,3.22-5.93c2.05.9,3.39,2.82,5.76,3.31A18.65,18.65,0,0,0,280.69,217.8Z"/><path fill="#a6ecf0" d="M315.84,165.73a1.85,1.85,0,0,1,1.8,2,1.8,1.8,0,0,1-1.86,1.87,1.93,1.93,0,0,1-1.92-2A1.89,1.89,0,0,1,315.84,165.73Z"/><path fill="#050404" d="M191.29,184.65c-.24-2.76.89-5.63,1.83-8.53.2-.6.59-1.15,1.32-.88s.69.93.53,1.54c-.26,1-.55,1.91-.85,2.86a17.21,17.21,0,0,0,.08,10.6c.22.72.8,1.53-.23,2.1-.67.35-1.29-.15-1.79-1.41A17.27,17.27,0,0,1,191.29,184.65Z"/><path fill="#0a0909" d="M203.3,208.79a1,1,0,0,1-.55,1,.85.85,0,0,1-1.07-.26,5.63,5.63,0,0,1-.57-.81q-1.29-2.13-2.57-4.26a9.56,9.56,0,0,1-.56-1.05.89.89,0,0,1,.39-1.19.76.76,0,0,1,1.08.15,29,29,0,0,1,3.82,6.25A1.2,1.2,0,0,1,203.3,208.79Z"/><path fill="#0b0a0a" d="M236.55,193a2.94,2.94,0,0,0,2.94-.73c.45-.48,1-.68,1.55-.14s.16,1.1-.21,1.58a4.79,4.79,0,0,1-5.62.9.93.93,0,0,1-.44-1,.85.85,0,0,1,.84-.71A5.33,5.33,0,0,1,236.55,193Z"/><path fill="#1c1313" d="M244.83,144c-.64,0-1.39.1-1.51-.83-.09-.69.72-1.22,1.72-1.13.67.07,1.33.24,1.42,1.08C246.52,143.8,246,144.07,244.83,144Z"/><path fill="#020202" d="M54.77,295.57v15.95a12,12,0,0,1-.06,1.59,1,1,0,0,1-1,.87.91.91,0,0,1-1-.83,8.07,8.07,0,0,1-.12-1.39q0-16,0-32.1a12.11,12.11,0,0,1,.09-1.59.82.82,0,0,1,1-.78.81.81,0,0,1,.8.74,6.62,6.62,0,0,1,.09,1Q54.82,287.3,54.77,295.57Z"/><path fill="#030303" d="M68,433.88q-.93,7.51-1.87,15c-.16,1.32-.36,2.63-.56,3.94-.1.65-.38,1.19-1.14,1.1s-.92-.71-.85-1.34c.27-2.51.54-5,.88-7.51.54-3.95,1.21-7.88,1.52-11.85,0-.2,0-.4.06-.6.12-.55.37-1.06,1-1s.93.62.92,1.28c0,.33,0,.66-.05,1Z"/><path fill="#050404" d="M53.73,333.92c0,1.19,0,2.38,0,3.57,0,.33,0,.67,0,1,0,.65.1,1.47-.82,1.56s-1-.83-1.16-1.51a5.45,5.45,0,0,1-.1-1c-.08-2.65-.15-5.29-.22-7.94a7.09,7.09,0,0,1,0-.8c.06-.63.21-1.23,1-1.18s.81.57.84,1.14c.1,1.72.2,3.43.29,5.15Z"/><path fill="#0c0c0c" d="M61.58,461.92c.11-.78.23-1.55.34-2.33.09-.58.38-1,1-1s1,.61.92,1.25a25.09,25.09,0,0,1-.39,2.72c-.12.61-.46,1.14-1.21,1s-.69-.7-.68-1.25Z"/><path fill="#020202" d="M53.07,156.13a47,47,0,0,1,2.09-14.52,25.73,25.73,0,0,1,3.21-6.81,5.63,5.63,0,0,1,.88-1.07.76.76,0,0,1,.93,0,.83.83,0,0,1,.45,1,3.51,3.51,0,0,1-.42.9c-2.92,4.37-4,9.35-4.64,14.44a85,85,0,0,0-.39,10.34c0,.53,0,1.06,0,1.59s-.16,1.25-.92,1.3-1-.49-1.09-1.15c-.06-.85-.1-1.72-.11-2.58C53.05,158.38,53.07,157.25,53.07,156.13Z"/><path fill="#090909" d="M56.07,176c.06,1,.14,2,.18,3a8.33,8.33,0,0,1,0,1.58.95.95,0,1,1-1.89,0c-.11-1.25-.21-2.51-.24-3.77,0-1.65,0-3.31,0-5,0-.66.21-1.27.93-1.31s1,.64,1,1.36c0,1.39,0,2.79,0,4.18Z"/><path fill="#181616" d="M109,218.13a1.53,1.53,0,0,1,1.28,1.69,1.3,1.3,0,0,1-1.43,1.27,1.52,1.52,0,0,1-1.29-1.68A1.37,1.37,0,0,1,109,218.13Z"/><path fill="#120d0d" d="M102.85 162.15a1.16 1.16 0 01-1.33 1.15 1.68 1.68 0 01-1.56-1.53 1.37 1.37 0 011.47-1.28A1.64 1.64 0 01102.85 162.15zM111.76 234.87a1.41 1.41 0 01-1.31 1.44 1.33 1.33 0 01-1.48-1.23 1.44 1.44 0 011.37-1.57A1.51 1.51 0 01111.76 234.87z"/><path fill="#110d0d" d="M106.84,202.8a1.33,1.33,0,0,1-1.37-1.38,1.5,1.5,0,0,1,1.33-1.49,1.36,1.36,0,0,1,1.49,1.26A1.63,1.63,0,0,1,106.84,202.8Z"/><path fill="#171414" d="M106,181.47a1.28,1.28,0,0,1-1.43,1.27,1.5,1.5,0,0,1-1.39-1.39,1.4,1.4,0,0,1,1.45-1.28A1.48,1.48,0,0,1,106,181.47Z"/><path fill="#070606" d="M52.46,480.37a6.69,6.69,0,0,1,.58-2.43,1,1,0,0,1,1.29-.59c.53.21.59.67.51,1.16a10,10,0,0,0-.33,1.75,3.56,3.56,0,0,0,1.55,3.25c.61.4,1.13.86.61,1.59s-1.18.47-1.8.13A4.61,4.61,0,0,1,53,482.76,6.37,6.37,0,0,1,52.46,480.37Z"/><path fill="#0c0a0a" d="M89.66,490.19c-.65,0-1.07-.21-1.23-.71a.85.85,0,0,1,.59-1.11,12.29,12.29,0,0,0,3.65-2,.85.85,0,0,1,1.11.05.89.89,0,0,1,.14,1.26A7.6,7.6,0,0,1,89.66,490.19Z"/></g></g></svg>