<svg xmlns="http://www.w3.org/2000/svg" data-name="Layer 1" viewBox="0 0 700 550"><path fill="#f4eff1" d="M636.09844,434.92236q-.09628-2.86526-.37626-5.69406c-2.81976-28.42438-15.11682-55.18637-18.65274-83.53738-3.848-30.94988,2.89286-61.8172,7.54-92.82227.08247-.60624.17441-1.2031.26634-1.80934.88166-5.98785,1.67139-11.98508,2.27762-17.98212.1103-.96431.20177-1.91954.2848-2.88385q.49566-5.29.7619-10.57994.1795-3.45776.20223-6.96144c.00937-.88157.01837-1.76333.00937-2.645a176.65856,176.65856,0,0,0-.983-17.72506c-.09193-.84492-.18387-1.68975-.29371-2.52559-4.32564-35.542-19.90156-69.81643-49.71318-88.47826a99.14843,99.14843,0,0,0-17.376-8.5871c-.42246-.1744-.84483-.33062-1.27621-.48675-17.16529-6.32766-35.81747-8.52272-54.746-10.2033h-.02737c-.27579-.02755-.56-.0551-.83583-.08275-.01846.00928-.03683,0-.0552,0-17.05444-1.497-34.32012-2.61733-50.91583-6.01549-.83546-.17441-1.67139-.3489-2.50722-.54186a143.98016,143.98016,0,0,1-15.08-4.13278c-21.36173-7.17259-40.6207-20.03015-62.40525-25.79768-18.63437-4.93179-38.34307-4.43595-57.38144-1.43279-49.59343,7.80637-99.86629,37.10323-114.87271,85.0069-15.319,48.89545,8.036,107.9942-21.059,150.17626-18.14771,26.312-51.375,37.14906-75.62062,57.9783-.01836.01837-.03682.02755-.05519.04592q-1.6392,1.40514-3.22376,2.89295a111.15275,111.15275,0,0,0-15.23611,17.51383,2.29327,2.29327,0,0,0-.12867.19295c-.5233.72544-1.02869,1.46934-1.51526,2.21334-.07356.09175-.12876.18368-.19286.27542a115.29778,115.29778,0,0,0-9.53287,17.50465c-.08293.18368-.1565.35827-.2296.53267-.2758.62451-.54213,1.249-.7901,1.8828q-.10965.23406-.19286.46839a114.05041,114.05041,0,0,0-5.57449,17.6975c-.1744.78055-.3399,1.56128-.50493,2.34192a110.39613,110.39613,0,0,0-2.039,15.33722c-1.84625,30.08668,8.95437,60.74268,26.89048,86.09052,60.00833-12.37089,121.84408,5.55621,183.11024,5.25323,33.21841-.15622,66.17031-5.69406,99.31516-7.94413,18.31274-1.23983,36.67177-1.47862,55.02125-1.57973,58.99809-.32135,121.20111,21.463,172.66807,2.88385a42.2818,42.2818,0,0,0,5.86818-2.63589,37.84662,37.84662,0,0,0,3.48082-2.08476,50.7229,50.7229,0,0,0,15.98938-17.72506c.13767-.22032.257-.44073.37673-.66115.28433-.5143.56013-1.0286.82646-1.55218.1193-.23879.248-.48675.36727-.73472a75.89035,75.89035,0,0,0,6.07051-17.50464,1.33423,1.33423,0,0,0,.0462-.202c.16494-.75308.32107-1.50626.45919-2.26853a1.0984,1.0984,0,0,0,.03674-.16531c.10093-.51431.19286-1.03779.28434-1.56119a91.54447,91.54447,0,0,0,1.295-16.12714Q636.15355,436.23122,636.09844,434.92236Z"/><path fill="#f2195c" d="M388.35029 368.86023c2.42487 1.91919 4.79462 3.74573 7.14185 5.68445 1.16736.96814 2.23059 2.07507 3.34308 3.13171a23.339 23.339 0 003.56152 2.87915l-.2641-.0487a16.70465 16.70465 0 016.11579-.27686 20.11409 20.11409 0 015.82818 1.96069 21.14619 21.14619 0 014.91162 3.62329 23.8319 23.8319 0 013.75287 4.71448l-.083-.064 2.8761 1.54663-.08642.18042-3.00708-1.27368-.01477-.00623-.06848-.058c-1.51325-1.28137-2.99036-2.5409-4.537-3.67908a43.38628 43.38628 0 00-4.75861-3.115 22.47511 22.47511 0 00-5.1676-2.23706 12.87778 12.87778 0 00-5.603-.69434l-.16723.02552-.09717-.07434a35.73127 35.73127 0 00-3.81769-2.58472 32.57777 32.57777 0 01-3.85236-2.57178 33.14824 33.14824 0 01-3.38885-3.16955 17.63825 17.63825 0 01-2.77313-3.76722zM417.241 413.87927q-5.69623-4.632-11.62738-8.84546c-3.96643-2.79712-8.00464-5.48132-12.19782-7.89245-1.05151-.59534-2.07965-1.2356-3.15332-1.78955-1.06128-.59986-2.1145-1.06873-3.26983-1.82129a11.16658 11.16658 0 01-1.54138-1.265 16.152 16.152 0 01-1.27179-1.45678 36.02 36.02 0 01-2.18165-3.02564 52.16306 52.16306 0 01-6.20245-13.35657 84.11917 84.11917 0 007.4809 12.46131q1.08426 1.43976 2.24957 2.79931a10.2185 10.2185 0 002.50635 2.2605c.90729.5542 2.08063 1.10437 3.15533 1.68274 1.1023.55286 2.15821 1.18665 3.23523 1.78442a98.66767 98.66767 0 0112.128 8.37854A84.05718 84.05718 0 01417.241 413.87927z"/><path fill="#f4dfe5" d="M205.58063,443.55336c-5.5563-.03673-4.78338,8.74323-10.31212,10.27687L182.91578,451.548c-13.61064,1.36842-23.71419-2.42906-37.3983-2.521-.78982-.00918-1.57964-.01837-2.37865-.03674,35.37665-82.4353,74.30749-144.2986,84.6119-160.14995-3.67358,6.56645-5.17976,14.30844-6.41041,21.8303-6.16244,37.81949-8.12781,76.22693-8.08189,114.54218a11.53281,11.53281,0,0,0,.62451,4.592,3.989,3.989,0,0,0,3.52664,2.60834s2.0664.81847,8.89927,1.15819C226.99765,433.60805,206.9057,442.60659,205.58063,443.55336Z"/><path fill="#f2195c" d="M440.69739,486.43726q-1.45915,2.62624-2.91848,5.25241c-.37434.67373-.84061,1.41708-1.59755,1.563-1.00794.19424-1.84653-.78165-2.28121-1.71162a9.67183,9.67183,0,0,1-.34082-7.2659l-.11847-.11939a66.7838,66.7838,0,0,0,7.06752,2.07934Z"/><path fill="#fff" d="M526.08332,428.11787c12.93892,8.79714,21.18163,22.96488,32.95979,33.26433.56482.49392,1.45493,1.64228,1.32157,2.38067-.06226.34449,1.32966,1.456,1.1131,1.731-4.82985,6.1313-9.73491,12.9583-14.56476,19.08961-2.7518-2.0101-6.25649-6.08805-7.898-8.0818q-13.48115-16.37313-26.9622-32.74627"/><path fill="#f25787" d="M513.12235,445.0543q12.94623,15.7236,25.89264,31.44729c1.64163,1.99374,5.14623,6.07179,7.89794,8.08189q7.24491-9.1971,14.48963-18.39393a5.28542,5.28542,0,0,0,.42532-1.56706c.13344-.73839-2.22-2.74647-2.78468-3.24038-11.1542-9.75374-19.14407-22.96892-30.94795-31.81428C527.06628,431.41647,523.642,435.60372,513.12235,445.0543Z"/><path fill="#f4648a" d="M514.16749,444.55377c-5.57128,3.15194-12.17152,3.85112-18.56723,4.11268-14.455.59117-29.56109-.90334-41.94585-8.38111-6.41289-3.87205-11.84484-9.20077-18.22421-13.12784-4.82443-2.96991-10.12615-5.09774-14.971-8.03423s-9.36737-6.9012-11.37976-12.197l-.1711-.51394a3.893,3.893,0,0,0,2.37874-1.7444q2.76414-3.46368,5.41165-7.01811a34.59987,34.59987,0,0,0,4.76364-7.84752c.65849-1.68012,17.32693.33448,26.37158.10993l.92528.15145c1.46723-7.86993,5.77488-14.86839,9.86891-21.74792q14.67111-24.65358,26.98627-50.61129l-.2927-1.18353c3.06653-1.40864,6.23463-2.8924,8.42538-5.45914a17.92543,17.92543,0,0,0,3.19565-6.2214c1.72962-5.356,2.25935-11.05778,4.19064-16.34434a33.29028,33.29028,0,0,1,29.01381-21.302l1.33076.00065a29.5742,29.5742,0,0,0,4.69025,4.92554c7.471,6.21057,17.47535,8.41977,25.66874,13.64031,7.87856,5.01986,13.99728,13.08238,15.69825,22.26809s-1.41773,19.35274-8.63872,25.2797a43.51908,43.51908,0,0,0,15.706-8.38515,37.651,37.651,0,0,0,4.36964-4.30177l.29242.25155c-4.9081,17.63359.93144,36.28742,1.18418,54.58951.19838,14.36309-3.07038,28.545-3.93156,42.88362-.58888,9.80646-.05281,19.70072-1.51747,29.415-.4378,2.9037-1.17435,5.99676-3.38613,7.92824-2.36322,2.06383-5.75467,2.26238-8.84058,2.829-4.28579.78689-8.59518,2.62276-11.21555,6.10422-.23539-.82858-.14878-.71387-.7136-1.20778-1.42912-1.24976-30.17742-36.18594-32.95979-33.26434C526.18379,431.93564,515.24027,443.94681,514.16749,444.55377Z"/><path fill="#f2195c" d="M362.59224,221.57639a1.5052,1.5052,0,0,0-1.88666.2633,3.90555,3.90555,0,0,0-.89434,3.86351,2.88488,2.88488,0,0,0,.49887,1.08794,1.451,1.451,0,0,0,1.02135.57142,1.8119,1.8119,0,0,0,1.26059-.56059,3.8887,3.8887,0,0,0,1.1041-3.9716,2.16141,2.16141,0,0,0-.42843-.787A2.947,2.947,0,0,0,362.59224,221.57639Z"/><path fill="#f25787" d="M528.35222,428.11778s.615.17091-.61928,2.04444c.052-.00652.1119-.03507.15108-.01185,6.15656,3.64972,31.53067,32.01449,32.95988,33.26424.56473.494.47812.37939.71351,1.20788,2.62037-3.48146,6.92985-5.31733,11.21555-6.10431,3.08591-.56665,6.47736-.765,8.84067-2.82894,2.21169-1.93148,2.94824-5.02454,3.386-7.92815,1.46466-9.71443.92859-19.60851,1.51747-29.41515.86109-14.33856,4.13-28.52054,3.93156-42.88353-.25265-18.302-6.09218-36.956-1.18409-54.58942l-.2926-.25154a37.65752,37.65752,0,0,1-4.36955,4.30158q-.85933.71939-1.75524,1.39349S568.7074,413.72007,528.35222,428.11778Z"/><path fill="#fe73c5" d="M512.99056,445.17314c.39666-.196.78982-.40042,1.17693-.61927a20.21413,20.21413,0,0,0,2.24915-2.50025C515.36462,443.0263,514.23076,444.06041,512.99056,445.17314Z"/><path fill="#f2195c" d="M240.50184,372.88416a12.219,12.219,0,0,1,2.49494-4.02234,17.72473,17.72473,0,0,1,3.72241-2.99012,36.42054,36.42054,0,0,1,8.78509-3.69458,131.75783,131.75783,0,0,1,18.58429-3.99194c12.5337-1.86426,25.18158-2.4574,37.51606-4.77148l4.61016-.90186c1.52009-.36511,3.04859-.70276,4.56281-1.08984,1.50208-.43262,3.00806-.83533,4.50824-1.29151,1.49988-.46985,3.00787-.95752,4.53967-1.405a31.47257,31.47257,0,0,1,9.579-1.56323,14.74839,14.74839,0,0,1,4.90686.9491,13.62491,13.62491,0,0,1,4.21845,2.68371,28.43853,28.43853,0,0,1,5.58478,7.892,46.13019,46.13019,0,0,1,3.65325,8.84278,28.98344,28.98344,0,0,1,.89216,4.72009,16.16026,16.16026,0,0,1-.26136,4.806,21.43532,21.43532,0,0,1-3.99975,8.57275,22.52284,22.52284,0,0,0,3.47192-8.666,19.40466,19.40466,0,0,0-1.05109-9.15027,45.46171,45.46171,0,0,0-3.81964-8.52,27.12849,27.12849,0,0,0-5.49719-7.34558,12.40458,12.40458,0,0,0-8.14343-3.05457,29.81813,29.81813,0,0,0-9.01575,1.57947c-1.49359.4519-2.98437.94971-4.4917,1.43787-1.51471.4768-3.05432.90539-4.581,1.3601-1.53894.40943-3.09015.76807-4.6352,1.1543l-4.67431.95422c-12.53711,2.177-25.18323,2.79651-37.66748,4.323a132.88112,132.88112,0,0,0-18.52234,3.412,35.70887,35.70887,0,0,0-8.78711,3.21338A14.45263,14.45263,0,0,0,240.50184,372.88416Z"/><path fill="#f2195c" d="M254.69636,277.6051a15.20959,15.20959,0,0,0-6.571-1.48388,18.87741,18.87741,0,0,0-6.60553,1.21948,24.069,24.069,0,0,0-10.66651,7.89966l.064-.10181a1.137,1.137,0,0,1-.15985.21484l.05066-.05749a29.00375,29.00375,0,0,0-2.43762,3.82471l-.114.15161c.03992-.0166.11756-.15943.084-.09912l-.03272.06335-.06549.12671-.13086.25342-.26178.50671c-.1817.33618-.32727.68-.4909,1.01978-.32727.677-.60889,1.37732-.89307,2.07434-.56238,1.39782-1.052,2.82812-1.4881,4.27636a80.7649,80.7649,0,0,0-2.05993,8.86976c-1.07123,6.00585-1.86261,12.09655-2.7475,18.14965-.84821,6.0647-1.58582,12.14405-2.29627,18.2284-.73675,6.08178-1.3341,12.18042-1.90338,18.283-.5451,6.10473-1.00769,12.2185-1.31537,18.3413-.181,3.05982-.3211,6.1222-.44793,9.18494l-.25971,9.19238c-.1535,6.12891-.188,12.26038-.15686,18.39075l.08014,9.19507a10.54375,10.54375,0,0,0,.64832,4.25024,3.28825,3.28825,0,0,0,2.86865,2.10181l.05829-.00366.10846.01782a100.47154,100.47154,0,0,0,18.65277,1.07654,127.32952,127.32952,0,0,0,54.071-13.50635l2.09674-1.04114,2.037-1.15344,4.06793-2.319,3.94776-2.51965c1.31817-.83777,2.64123-1.66956,3.88141-2.62171l3.78723-2.76294c.64233-.44677,1.25079-.93676,1.84625-1.44348l1.80634-1.49536c1.20037-1.00159,2.41857-1.98437,3.60577-3.00171l3.48535-3.1676a65.81955,65.81955,0,0,1,7.39594-6.01038,30.15729,30.15729,0,0,1,8.67529-4.05017,35.09741,35.09741,0,0,1,9.4436-1.16211c3.12812-.08154,6.31293-.17724,9.2237-1.3822l.08087.18286c-2.90271,1.34741-6.15436,1.58045-9.2768,1.79175-1.56988.10913-3.13476.20789-4.67016.44373a30.519,30.519,0,0,0-4.52631,1.04675,29.05123,29.05123,0,0,0-8.24957,4.1427,64.86487,64.86487,0,0,0-7.0741,6.0968l-3.446,3.24414c-1.184,1.05164-2.39807,2.06775-3.59644,3.10364l-1.80365,1.547c-.59478.52392-1.20288,1.03137-1.8454,1.49585l-3.79107,2.8695c-1.24243.9878-2.56928,1.856-3.89252,2.73035l-3.96606,2.62964-4.12567,2.37341-2.06684,1.17993-2.12744,1.06714A120.31094,120.31094,0,0,1,255.171,432.90283a127.70151,127.70151,0,0,1-18.93231,1.6687,100.54475,100.54475,0,0,1-18.97394-1.4403l.16632.01416a4.01063,4.01063,0,0,1-2.57934-.93433,5.39,5.39,0,0,1-1.56446-2.09229,11.70206,11.70206,0,0,1-.64111-4.78833l.14569-9.204c.114-6.13562.29968-12.26892.46912-18.402l.70569-18.39295q.1929-4.59814.46307-9.19262c.13715-3.06568.33514-6.12806.50171-9.19288.753-12.25292,1.83624-24.49646,3.48029-36.673.41717-3.043.84747-6.08435,1.352-9.11474.489-3.03235.95916-6.06531,1.54785-9.09534a82.29771,82.29771,0,0,1,2.19812-9.01953,45.323,45.323,0,0,1,1.59417-4.3877c.313-.71411.62366-1.4303.98175-2.12488.178-.34643.34223-.70495.534-1.03869l.27942-.50794.13971-.254.06988-.12695.03492-.06348a1.20659,1.20659,0,0,1,.15631-.22326l-.11377.15137a30.31325,30.31325,0,0,1,2.65008-3.9264l.05091-.05774a.25321.25321,0,0,0-.0683.105l.06433-.10206a24.42657,24.42657,0,0,1,11.36859-7.92114,19.55654,19.55654,0,0,1,6.88806-.98218,14.98419,14.98419,0,0,1,6.64868,1.84424Z"/><path fill="#f2195c" d="M320.48408 365.39136a32.03608 32.03608 0 012.77594 4.19385q1.23414 2.16741 2.2713 4.42492c.69458 1.50366 1.31189 3.04273 1.86975 4.60889a31.69581 31.69581 0 011.35975 4.84253 31.683 31.683 0 01-2.77869-4.19263c-.82153-1.44543-1.58368-2.91809-2.26856-4.42615q-1.03683-2.25768-1.86706-4.6101A32.0516 32.0516 0 01320.48408 365.39136zM309.7668 364.73108a77.24754 77.24754 0 013.49078 7.01941c1.07044 2.375 2.03156 4.7915 2.9715 7.21606a74.30109 74.30109 0 012.46356 7.45117 25.4746 25.4746 0 01.93378 7.84058 72.75292 72.75292 0 00-2.42072-7.36645l-2.84576-7.217c-.90265-2.43872-1.78412-4.88537-2.55622-7.37353A77.218 77.218 0 01309.7668 364.73108zM210.43123 498.56726c9.88995-6.61841 19.95562-12.88367 29.81268-19.45227 2.4751-1.62439 4.9209-3.29077 7.35943-4.96558 2.45936-1.6643 4.8155-3.3789 7.11426-5.23059 2.2876-1.85437 4.51862-3.78979 6.67206-5.81457 2.18085-2.00037 4.22583-4.13977 6.21259-6.35547a72.76682 72.76682 0 01-11.88453 13.34888 82.6952 82.6952 0 01-7.02728 5.58874c-2.41382 1.74744-4.87463 3.42542-7.34088 5.093q-3.73342 2.44995-7.51886 4.813c-2.54462 1.5415-5.07916 3.09741-7.66479 4.56738Q218.45012 494.6369 210.43123 498.56726zM354.39888 385.62866a16.92934 16.92934 0 018.73755-2.89184 24.39817 24.39817 0 019.19091 1.54162 47.151 47.151 0 018.298 3.98364c1.32385.76307 2.56384 1.65955 3.82806 2.5055 1.22028.91553 2.428 1.84363 3.587 2.833-1.40186-.61744-2.742-1.318-4.09339-1.99158-1.36859-.63977-2.69958-1.34131-4.0592-1.97144-1.36945-.61157-2.69665-1.2987-4.08417-1.84069-1.35351-.62366-2.74713-1.12562-4.13452-1.631a29.96905 29.96905 0 00-8.53644-1.87426A23.56911 23.56911 0 00354.39888 385.62866zM450.067 393.06763a43.15517 43.15517 0 01.566 8.356 39.43009 39.43009 0 01-1.09625 8.36939 30.46917 30.46917 0 01-3.15406 7.88074 21.48926 21.48926 0 01-5.47949 6.38794 40.64728 40.64728 0 004.09137-7.10132 45.618 45.618 0 002.60272-7.65076 71.72682 71.72682 0 001.4859-8.00977zM205.54976 443.33484a39.01133 39.01133 0 015.1502-3.5614 53.7972 53.7972 0 015.546-2.868 46.58761 46.58761 0 015.8722-2.16394 28.46486 28.46486 0 016.16992-1.17017c-1.88666.93811-3.75739 1.78491-5.62744 2.63354l-5.60334 2.528q-2.808 1.24969-5.663 2.43164C209.48848 441.95166 207.564 442.71448 205.54976 443.33484z"/><path fill="#f2195c" d="M179.00343,482.36035a61.41084,61.41084,0,0,0,17.837,10.82312c3.22076,1.338,6.5166,2.494,9.85077,3.53821,1.666.52576,3.34252,1.02161,5.02459,1.50366l2.52606.71533a23.00771,23.00771,0,0,0,2.5224.61963c.84028.1565,1.66388.359,2.51423.48011l2.58123.27026c1.71009.23242,3.46119.24975,5.194.35986,1.7331.12708,3.48139.08814,5.22364.11182l2.61474.01819,2.61743-.07935c6.98108-.13672,13.95234-.7583,20.901-1.48181a307.63348,307.63348,0,0,0,41.28473-7.25732c6.80146-1.63269,13.51325-3.62232,20.14661-5.85242,1.68115-.49561,3.30792-1.13892,4.95032-1.74353l4.92492-1.8291c1.64814-.59729,3.22168-1.36975,4.83924-2.04395l4.84088-2.0636c-3.14673,1.54175-6.26709,3.166-9.47473,4.59619l-4.85712,2.04456c-1.62176.67712-3.23041,1.3938-4.89343,1.96265-6.59754,2.42822-13.297,4.59485-20.091,6.41845l-5.09912,1.35974c-1.69891.45911-3.42993.77869-5.14355,1.17493l-5.15369,1.13428-5.18658.96948c-1.73157.30762-3.45343.67517-5.19342.93372l-5.2154.80481-2.608.40246-2.6184.32825-5.23871.64661c-7.00586.66882-14.027,1.234-21.0763,1.312l-2.64135.057-2.64545-.04077c-1.7638-.03906-3.52582-.01538-5.29169-.159-1.76477-.13282-3.52966-.14686-5.29358-.42615l-2.643-.34741c-.88037-.14869-1.75952-.385-2.63739-.57459a24.20821,24.20821,0,0,1-2.56574-.70227l-2.51636-.78369c-1.67633-.528-3.34991-1.07044-5.01434-1.6438-3.329-1.14294-6.63318-2.38367-9.84692-3.83948A58.98117,58.98117,0,0,1,179.00343,482.36035Z"/><path fill="#f2195c" d="M215.50648,467.97253c12.07935-2.53918,24.17676-4.95715,36.13886-7.8905q8.97811-2.168,17.829-4.79187c2.94519-.88769,5.8869-1.78491,8.81921-2.71374,2.92182-.958,5.8421-1.91858,8.73425-2.96973,11.61506-4.06787,23.07538-8.65906,34.46643-13.40247,11.41376-4.68847,22.81305-9.45361,34.55341-13.3601a85.38158,85.38158,0,0,1,8.95935-2.62378,15.71573,15.71573,0,0,1,4.82276-.2367,14.01119,14.01119,0,0,1,4.6314,1.50025,31.22272,31.22272,0,0,1,4.01465,2.53247q1.89285,1.37,3.71515,2.83264a86.52,86.52,0,0,1,6.95007,6.24621,82.72142,82.72142,0,0,1,6.266,6.97242,20.89133,20.89133,0,0,1,2.55352,4.12634,10.23928,10.23928,0,0,1,.98365,4.98706,9.05847,9.05847,0,0,1-1.87806,4.78626,22.99847,22.99847,0,0,1-3.38427,3.46008c-1.17444,1.02429-2.33264,1.99817-3.33179,3.057a21.71877,21.71877,0,0,0-2.62036,3.54235c-1.566,2.5564-2.82782,5.40577-4.61676,8.06726a23.57826,23.57826,0,0,1-6.85834,6.68775c-5.40979,3.47-11.60181,5.04-17.65167,6.27514-6.08685,1.16529-12.15851,2.15333-18.23853,3.23877a52.96991,52.96991,0,0,1-9.2395,1.11133,16.31574,16.31574,0,0,1-4.64538-.597,10.35335,10.35335,0,0,1-4.08143-2.23975l.13208-.15015a12.18353,12.18353,0,0,0,8.58161,2.35718,59.0471,59.0471,0,0,0,9.0625-1.47522l18.10693-3.77551c5.95856-1.33069,11.93976-3.01318,16.90912-6.35156A22.87708,22.87708,0,0,0,381.431,470.969c1.65332-2.46984,2.89594-5.29663,4.53546-8.0122a23.7661,23.7661,0,0,1,2.86121-3.8927c1.11578-1.19055,2.32288-2.20679,3.46667-3.21521,2.28284-1.98059,4.37452-4.14344,4.57215-6.83484.2326-2.67786-1.26-5.39246-3.03632-7.74426a81.06019,81.06019,0,0,0-6.02575-6.85071,91.21678,91.21678,0,0,0-6.73188-6.20532,50.5519,50.5519,0,0,0-7.34533-5.323,12.47719,12.47719,0,0,0-4.09833-1.42273,14.38676,14.38676,0,0,0-4.38788.09692,84.85448,84.85448,0,0,0-8.86291,2.32312,331.93365,331.93365,0,0,0-34.61622,12.95471l-8.50561,3.646-8.48956,3.69556c-5.67475,2.433-11.38355,4.80346-17.17432,6.98022-5.80811,2.12817-11.67163,4.13074-17.62555,5.81079q-8.92327,2.54938-17.97107,4.60059c-12.06781,2.69763-24.24628,4.77441-36.454,6.5935Z"/><path fill="#f2195c" d="M390.72114 458.92847a56.22816 56.22816 0 0011.06061 8.9508 132.98387 132.98387 0 0012.54511 6.751l6.45312 3.13367c2.14087 1.06811 4.30029 2.08142 6.45252 3.10705a117.88094 117.88094 0 0013.27587 5.36414 61.97925 61.97925 0 01-13.89215-3.9303c-4.49316-1.76941-8.82385-3.81177-13.16559-5.878a87.649 87.649 0 01-12.537-7.25781A39.92149 39.92149 0 01390.72114 458.92847zM453.17079 390.09583a41.68364 41.68364 0 0112.40417-4.51575 48.744 48.744 0 0126.27088 2.05786 41.59442 41.59442 0 0111.54736 6.39746 66.4212 66.4212 0 00-12.03888-4.91626A62.37446 62.37446 0 00465.8285 387.114 66.18774 66.18774 0 00453.17079 390.09583z"/><path fill="#f2195c" d="M499.85658 336.09814c-1.0846 4.28724-2.24085 8.53125-3.4295 12.76966-1.175 4.24158-2.42273 8.46167-3.69349 12.67822-1.30645 4.20544-2.63757 8.40723-4.11956 12.563-1.471 4.15771-3.04712 8.28845-4.91462 12.29956 1.08228-4.28809 2.23749-8.53235 3.4267-12.77051 1.17554-4.24145 2.42322-8.46155 3.69629-12.67737 1.30884-4.20471 2.63995-8.40649 4.12244-12.56213C496.41627 344.24109 497.99141 340.11011 499.85658 336.09814zM433.55934 484.27515a10.26664 10.26664 0 00-.24774 4.04419 8.31288 8.31288 0 001.38891 3.63317 1.59029 1.59029 0 001.26038.7522c.39142-.0332.73926-.42334 1.04266-.9779l1.88971-3.64307c2.53571-4.89185 5.17365-9.72693 7.83136-14.551 2.69049-4.8059 5.40283-9.5996 8.217-14.33679 2.78076-4.75549 5.76776-9.354 7.56842-14.59057-1.04663 5.45752-3.66376 10.49817-6.20416 15.34851-2.53619 4.89172-5.17413 9.7268-7.834 14.54968-2.69263 4.80469-5.405 9.59839-8.21961 14.33533-.71558 1.192-1.37646 2.35339-2.137 3.57055a4.26156 4.26156 0 01-.79224.92322 2.13615 2.13615 0 01-1.30554.51392 2.1135 2.1135 0 01-1.29694-.44043 3.37311 3.37311 0 01-.81378-.88782 8.97386 8.97386 0 01-1.1203-4.15271A9.19077 9.19077 0 01433.55934 484.27515zM455.24293 491.76526c2.32453-3.03443 4.5426-6.09326 6.58142-9.26074a103.677 103.677 0 0010.04077-20.13013c1.3042-3.53381 2.41535-7.14478 3.44452-10.82642a51.76921 51.76921 0 01-1.96051 11.30957 62.08721 62.08721 0 01-10.25122 20.5387A51.9542 51.9542 0 01455.24293 491.76526zM437.17756 494.57239a52.79286 52.79286 0 0114.23047-.46668c4.7475.40064 9.43537 1.00684 14.145 1.35218 9.421.72473 18.87817.96972 28.3526 1.21569l14.21237.45057a128.42181 128.42181 0 0014.10074.13757 23.85921 23.85921 0 006.716-1.476 15.38229 15.38229 0 005.64981-3.80042c1.639-1.6499 3.05512-3.56946 4.65448-5.34192a14.08812 14.08812 0 015.72751-4.18371 14.841 14.841 0 00-5.32327 4.52649c-1.46454 1.84326-2.74744 3.84167-4.34018 5.66613a16.43021 16.43021 0 01-5.86026 4.3418 24.43318 24.43318 0 01-7.061 1.81982 54.32853 54.32853 0 01-7.199.32325l-7.11783-.12012-14.21563-.34546c-9.474-.28589-18.98157-.61694-28.44165-1.66577-4.73633-.48291-9.42646-1.30322-14.10248-1.93091A57.73124 57.73124 0 00437.17756 494.57239z"/><path fill="#f2195c" d="M551.22169 294.74194a12.31934 12.31934 0 014.40119 5.04712 23.695 23.695 0 012.04834 6.43933 84.27762 84.27762 0 011.18408 13.35315c.04574 2.23584-.0253 4.4729-.15515 6.70569-.11652 2.23389-.33335 4.46253-.62989 6.67981a85.9384 85.9384 0 01-2.80087 13.10547l.014-.06567-.41309 2.21057-.19488 1.04309-.7977-.653a85.75 85.75 0 00-11.84473-8.33313 56.29719 56.29719 0 00-6.4993-3.1947 44.50007 44.50007 0 00-6.83978-2.28345c-4.6886-.88342-9.57992-.48217-14.35864-.00256-4.79248.52637-9.58591 1.27307-14.30093 2.20789l-1.416.28076.34546-1.41c1.4248-5.81555 2.82922-11.65222 4.53631-17.424a124.7187 124.7187 0 016.26139-16.96191c1.2875-2.734 2.66812-5.42761 4.21655-8.02661a41.99115 41.99115 0 015.31686-7.40442 22.15787 22.15787 0 017.3545-5.426 14.98369 14.98369 0 018.93557-1.09753l-.033.19727a14.92387 14.92387 0 00-8.53329 1.68566 21.32419 21.32419 0 00-6.72 5.52381 46.39813 46.39813 0 00-4.86109 7.35571c-1.4367 2.59253-2.70678 5.27515-3.88516 7.99512a153.10544 153.10544 0 00-6.01324 16.77051c-1.73719 5.69787-3.27582 11.47241-4.78986 17.26379l-1.07037-1.12927a136.33067 136.33067 0 0114.53711-1.78748c2.43689-.161 4.88406-.2146 7.33123-.17871a34.46253 34.46253 0 017.32013.82373 61.44541 61.44541 0 0113.47983 5.66052 109.62656 109.62656 0 0112.2919 7.91687l-.99243.39.30545-2.22815.00208-.01514.012-.051a128.07008 128.07008 0 002.33414-12.988 111.86152 111.86152 0 00.91372-13.15344c.04114-2.20044-.03134-4.40076-.12289-6.601-.09882-2.1991-.23642-4.40845-.53381-6.57056A26.55175 26.55175 0 00554.94883 300.1a12.56856 12.56856 0 00-3.84051-5.19324zM448.17689 200.93933a11.73484 11.73484 0 00-.56579 5.80274 21.15966 21.15966 0 001.64459 5.59185c1.572 3.58966 3.89691 6.95038 5.27112 10.89832a27.38635 27.38635 0 011.24011 6.06537c.19177 2.04211.20459 4.07788.19348 6.10193.00543 2.01562-.1134 4.06457-.09082 6.03906a6.50168 6.50168 0 00.61389 2.76709 2.3571 2.3571 0 002.005 1.334 22.95637 22.95637 0 002.91845-.34045 4.46434 4.46434 0 011.76545.15246 4.22286 4.22286 0 011.57251.93519 13.1729 13.1729 0 011.944 2.57055 8.14882 8.14882 0 001.76056 2.08423 23.50571 23.50571 0 002.38434 1.6488c.86273.55433 1.72089 1.14368 2.5459 1.76563a35.399 35.399 0 014.59729 4.16516q1.04608 1.14789 1.9997 2.3739c.64776.8086 1.222 1.70642 1.77685 2.36a2.25308 2.25308 0 001.83368.99487 3.49739 3.49739 0 002.085-1.1261c.63715-.61731 1.2099-1.459 1.91608-2.25195a5.58843 5.58843 0 012.73413-1.866 16.876 16.876 0 013.0899-.21973 2.9459 2.9459 0 002.41523-1.25708l.18383.07874a2.395 2.395 0 01-1.01153 1.22461 4.71767 4.71767 0 01-1.48609.59106 24.17959 24.17959 0 00-2.89459.54956 4.46013 4.46013 0 00-2.01336 1.721 28.8599 28.8599 0 01-1.793 2.516 5.08021 5.08021 0 01-3.05042 1.81531 3.491 3.491 0 01-1.97473-.34546 5.26814 5.26814 0 01-1.45935-1.1112c-.79657-.84388-1.31775-1.649-1.95325-2.39417q-.93458-1.1358-1.955-2.19531a42.25587 42.25587 0 00-4.3208-3.97852c-.76416-.61706-1.54907-1.19616-2.36309-1.759a25.02571 25.02571 0 01-2.51893-1.87866 9.4453 9.4453 0 01-2.03308-2.58435 12.03652 12.03652 0 00-1.53882-2.3479 2.75785 2.75785 0 00-2.17736-.86817 21.31122 21.31122 0 01-3.10089.06531 3.41187 3.41187 0 01-1.624-.67725 3.48448 3.48448 0 01-1.03552-1.3728 8.17554 8.17554 0 01-.51691-3.12488c.06446-2.054.18329-4.032.1214-6.04712A32.11638 32.11638 0 00452.96931 223.82c-1.48138-3.60877-3.68439-7.01935-5.15045-10.90448a18.93144 18.93144 0 01-1.26917-6.09217 10.88533 10.88533 0 011.44776-5.97229z"/><path fill="#f2195c" d="M497.19893,225.32831a22.45894,22.45894,0,0,0-.76722,6.48919,55.87007,55.87007,0,0,0,.626,6.52771c.62555,4.33741,1.5846,8.72742,1.35407,13.29383a26.937,26.937,0,0,1-4.17011,12.85315c-1.16,1.936-2.44507,3.72668-3.55194,5.57446a16.8131,16.8131,0,0,0-2.35449,5.8418c-.75171,4.17932.46216,8.53442,1.64691,12.7478.61835,2.11865,1.23773,4.25183,1.68725,6.436a21.98315,21.98315,0,0,1,.39246,6.68481,15.88546,15.88546,0,0,1-2.15546,6.35864,20.06114,20.06114,0,0,1-4.30523,5.18433,28.80725,28.80725,0,0,1-12.06348,5.87305l.12384-1.47388a8.76835,8.76835,0,0,0,4.76135.31775,23.15647,23.15647,0,0,0,4.80927-1.59412c3.15118-1.45239,6.44226-2.84058,8.82391-5.07983,2.38965-2.2096,3.53321-5.48633,4.44721-8.79944.88708-3.33594,1.4931-6.80823,2.40252-10.27454a33.06049,33.06049,0,0,1,11.47486-17.95764,34.9703,34.9703,0,0,1,9.32562-5.27722,30.8355,30.8355,0,0,1,10.43637-1.96008l.00922.1997a33.67263,33.67263,0,0,0-18.829,8.16773,32.13285,32.13285,0,0,0-6.6254,7.839,33.79442,33.79442,0,0,0-3.79742,9.498c-.82721,3.3639-1.38684,6.854-2.33741,10.32373a30.9982,30.9982,0,0,1-1.822,5.1504,14.49443,14.49443,0,0,1-3.31018,4.56823,20.68917,20.68917,0,0,1-4.60717,3.0647c-1.62305.81641-3.21582,1.52563-4.87281,2.229a22.91632,22.91632,0,0,1-5.24432,1.58728,10.39315,10.39315,0,0,1-5.63318-.56775l-2.28992-.96923,2.41376-.50476a27.8473,27.8473,0,0,0,11.76947-5.12635,18.85145,18.85145,0,0,0,4.30158-4.79809,15.19126,15.19126,0,0,0,2.15148-6.05725,18.82309,18.82309,0,0,0-.37121-6.47864,62.21653,62.21653,0,0,0-1.82221-6.3313,63.93866,63.93866,0,0,1-1.88244-6.40381,19.64866,19.64866,0,0,1-.41852-6.79529,17.20321,17.20321,0,0,1,2.294-6.47021c1.09912-1.97913,2.3811-3.79077,3.485-5.64612a26.47917,26.47917,0,0,0,4.091-12.02966c.30047-4.28223-.39808-8.65406-.83887-13.06263a42.05723,42.05723,0,0,1-.25177-6.67663,20.71534,20.71534,0,0,1,1.30517-6.54016Z"/><path fill="#f2195c" d="M524.64445,223.79907a36.157,36.157,0,0,1,3.563,10.91089,47.88035,47.88035,0,0,1,.47488,11.54224,57.45692,57.45692,0,0,1-2.09362,11.33166,59.61756,59.61756,0,0,1-4.18912,10.66382c.96075-3.69482,1.91424-7.35266,2.67395-11.03809a88.91773,88.91773,0,0,0,1.61609-11.11352,66.50494,66.50494,0,0,0-.0242-11.18774A63.02623,63.02623,0,0,0,524.64445,223.79907Z"/><path fill="#f2195c" d="M486.02919,228.77808a23.19375,23.19375,0,0,1-10.78827-5.80079,25.51473,25.51473,0,0,1-3.92206-4.8106c-1.13342-1.71888-2.16821-3.48-3.43347-5.03559a27.71226,27.71226,0,0,0-9.3681-7.42315,42.64391,42.64391,0,0,0-11.46363-3.73066l.52667-.10351a2.93163,2.93163,0,0,1-1.986.42761,3.79007,3.79007,0,0,1-1.7724-.73566,5.2437,5.2437,0,0,1-1.77545-3.09411,17.32624,17.32624,0,0,1-.02325-6.50623,18.08517,18.08517,0,0,1,2.29547-6.06146,29.52538,29.52538,0,0,1,3.92132-5.05743c1.45032-1.54236,2.96289-2.97278,4.468-4.41565,1.512-1.43726,3.04224-2.85956,4.61206-4.24262a89.18486,89.18486,0,0,1,9.93524-7.71185c6.98548-4.629,15.01123-8.10645,23.50464-8.74548a34.13229,34.13229,0,0,1,12.59119,1.27063,24.25263,24.25263,0,0,1,5.81134,2.6192,20.8597,20.8597,0,0,1,4.79849,4.19238c2.76581,3.23785,4.63516,7.03558,6.489,10.745q2.7698,5.58123,5.7963,11.02087a226.44061,226.44061,0,0,0,13.287,21.05286c4.77847,6.78735,9.92672,13.34326,14.29532,20.469,2.20941,3.54889,4.05526,7.31574,5.99563,10.963a39.25227,39.25227,0,0,0,7.019,9.99329l.05048.04834.04413.06518c4.94565,7.30494,10.54413,14.17273,15.69528,21.4292,5.12509,7.25183,9.80289,15.00574,12.62665,23.59583a30.1944,30.1944,0,0,1,1.52588,13.54285,27.90337,27.90337,0,0,1-5.40387,12.54907,39.98245,39.98245,0,0,1-9.91693,9.27832,44.55807,44.55807,0,0,1-12.28327,5.72l-4.77005,1.38452,3.83893-3.14941a23.71969,23.71969,0,0,0,7.12009-10.29,27.34443,27.34443,0,0,0,1.4866-12.54749,29.71353,29.71353,0,0,0-4.28592-11.98523,35.89619,35.89619,0,0,0-8.61267-9.53271c-6.83054-5.36768-15.57144-7.72241-23.20468-12.28992a31.2413,31.2413,0,0,1-9.81708-8.92126,30.33442,30.33442,0,0,1-5.09537-12.16443l.19648-.03748a29.93778,29.93778,0,0,0,5.37933,11.85193,28.97341,28.97341,0,0,0,4.46435,4.74194,37.1971,37.1971,0,0,0,5.35959,3.69886c7.55371,4.3363,16.35907,6.4768,23.629,11.92431a37.4801,37.4801,0,0,1,9.11948,9.846,31.46233,31.46233,0,0,1,4.69046,12.63843,29.19084,29.19084,0,0,1-1.42786,13.45727,25.7354,25.7354,0,0,1-7.70962,11.18421l-.9311-1.76477a42.50527,42.50527,0,0,0,11.70084-5.48755,37.89765,37.89765,0,0,0,9.37457-8.81043,26.65469,26.65469,0,0,0,5.04755-11.59607,28.19783,28.19783,0,0,0-1.36188-12.64331c-2.6607-8.30749-7.18652-15.94275-12.20093-23.17273-4.9934-7.26989-10.5-14.23986-15.37939-21.68786l.09433.11328a40.44683,40.44683,0,0,1-7.11047-10.42932c-1.90744-3.71924-3.66492-7.45752-5.7941-11.007-4.20566-7.13568-9.234-13.77167-14.01084-20.58283-4.76046-6.82922-9.18582-13.88781-13.32055-21.11224q-3.08231-5.42826-5.90021-11.00305A48.95274,48.95274,0,0,0,513.198,164.4798a19.77542,19.77542,0,0,0-4.633-3.8888,23.1329,23.1329,0,0,0-5.5738-2.37738,32.75287,32.75287,0,0,0-12.09936-.9804,44.89354,44.89354,0,0,0-11.84271,2.93853,57.70039,57.70039,0,0,0-10.82038,5.76758,131.97452,131.97452,0,0,0-18.78155,16.0484c-2.82892,2.92584-5.18787,6.3172-5.88526,10.26514a15.86274,15.86274,0,0,0-.03442,5.88849,3.82283,3.82283,0,0,0,1.20093,2.24054,1.88093,1.88093,0,0,0,2.06891.29248l.2434-.16132.2837.05774a43.94973,43.94973,0,0,1,11.74334,4.07,28.795,28.795,0,0,1,9.58289,7.89544,57.833,57.833,0,0,1,3.34161,5.2013,24.79287,24.79287,0,0,0,3.67987,4.79767,23.442,23.442,0,0,0,10.40491,6.0487Z"/><path fill="#f2195c" d="M466.46193,211.296a27.08987,27.08987,0,0,0,7.16528,3.27118,24.7738,24.7738,0,0,0,3.811.80231q.964.1191,1.92951.18188a9.60088,9.60088,0,0,0,1.82477-.01715c.54565-.10394.7788-.27386.9021-.61877a4.56724,4.56724,0,0,0,.13867-1.60682,33.62528,33.62528,0,0,0-.64783-3.823,8.91317,8.91317,0,0,1,.17975-4.41517,4.95047,4.95047,0,0,1,1.3244-2.0603,5.12916,5.12916,0,0,1,2.14594-1.16919,6.83,6.83,0,0,1,4.56134.44391,10.31465,10.31465,0,0,1,3.41247,2.70917,29.73106,29.73106,0,0,1,2.38819,3.354,26.00462,26.00462,0,0,1,1.93524,3.61383,17.93658,17.93658,0,0,1,1.239,3.95429,12.47364,12.47364,0,0,1,.03467,4.16272,5.26637,5.26637,0,0,1-2.03314,3.64074,2.79906,2.79906,0,0,1-2.0763.36884,2.01627,2.01627,0,0,1-1.53753-1.24512,1.866,1.866,0,0,0,1.58178.94623,2.38317,2.38317,0,0,0,1.70795-.51977,4.628,4.628,0,0,0,1.38324-3.31647,13.83847,13.83847,0,0,0-1.71222-7.32776,32.02656,32.02656,0,0,0-1.99042-3.32013,28.05372,28.05372,0,0,0-2.34094-3.059,8.77565,8.77565,0,0,0-2.80817-2.18591,4.89892,4.89892,0,0,0-3.22418-.28986,2.97354,2.97354,0,0,0-2.15014,1.94849,7.41278,7.41278,0,0,0-.15589,3.47046,33.94868,33.94868,0,0,1,.52948,4.05731,5.7331,5.7331,0,0,1-.34753,2.32226,2.44243,2.44243,0,0,1-.96887,1.10859,3.09348,3.09348,0,0,1-1.26545.39752,10.74851,10.74851,0,0,1-2.1546-.09088c-.67969-.08313-1.35626-.18427-2.02392-.3288a25.01514,25.01514,0,0,1-3.90815-1.16412A22.7847,22.7847,0,0,1,466.46193,211.296Z"/><path fill="#f2195c" d="M490.53584,213.02582a2.80258,2.80258,0,0,0-.01471,2.12811,2.01393,2.01393,0,0,0,1.10657,1.11108,9.97858,9.97858,0,0,1,2.23047,1.25055,2.97984,2.97984,0,0,1,.83484,1.2865,1.44011,1.44011,0,0,1-.26893,1.43262,1.45074,1.45074,0,0,0-.5819-.94238,3.16618,3.16618,0,0,0-.868-.47608,15.96919,15.96919,0,0,1-2.26721-.77649,3.39151,3.39151,0,0,1-1.25128-1.07061,2.881,2.881,0,0,1-.487-1.60089A2.35718,2.35718,0,0,1,490.53584,213.02582Z"/><path fill="#f2195c" d="M487.6172 214.66644a4.26892 4.26892 0 01.13434-7.147 3.85407 3.85407 0 012.23706-.601 2.8405 2.8405 0 012.15222 1.124 3.99348 3.99348 0 01.72479 1.9494c.06067.64252.0503 1.22876.04895 1.86316-.79425-1.00262-1.19354-2.243-1.93078-2.7475a1.354 1.354 0 00-1.01862-.29217 2.51972 2.51972 0 00-1.14953.39691 3.40914 3.40914 0 00-1.49994 2.17584A6.14932 6.14932 0 00487.6172 214.66644zM453.62465 217.73926a8.92108 8.92108 0 012.414-2.32465 12.2879 12.2879 0 016.28888-2.04321 8.857 8.857 0 013.31939.46728c-1.05676.44288-2.06372.753-3.05407 1.08283l-2.93274.94238-2.92859.95642C455.73555 217.13379 454.73872 217.47534 453.62465 217.73926zM467.49739 250.84778a20.16387 20.16387 0 012.18158-2.624c.76654-.79785 1.54645-1.5531 2.32477-2.297l2.339-2.22168c.79255-.74207 1.56366-1.50977 2.4552-2.29541a8.59841 8.59841 0 01-1.22479 3.27478 13.181 13.181 0 01-2.18945 2.68921 15.81594 15.81594 0 01-2.72858 2.07617A12.93988 12.93988 0 01467.49739 250.84778z"/><path fill="#f2195c" d="M474.52845 240.27271a1.84438 1.84438 0 011.3075-.55262 2.35037 2.35037 0 012.15527 1.34986 1.83527 1.83527 0 01.06867 1.41967 10.28446 10.28446 0 01-1.20825-.33593 3.98411 3.98411 0 01-.80268-.382 4.17014 4.17014 0 01-.692-.55945A10.73254 10.73254 0 01474.52845 240.27271zM519.4312 447.59119a19.28216 19.28216 0 012.183-3.21167 32.799 32.799 0 012.57031-2.814 32.27773 32.27773 0 012.87851-2.49768 19.067 19.067 0 013.27-2.09582 19.073 19.073 0 01-2.181 3.21374 32.272 32.272 0 01-2.57242 2.81189 32.81891 32.81891 0 01-2.88058 2.49561A19.28449 19.28449 0 01519.4312 447.59119zM522.49846 451.548a20.529 20.529 0 012.40744-3.20691 35.06334 35.06334 0 012.77829-2.79406 34.53337 34.53337 0 013.07342-2.46546 20.31128 20.31128 0 013.44827-2.048 20.31058 20.31058 0 01-2.40542 3.20923 34.517 34.517 0 01-2.78031 2.79175 35.07881 35.07881 0 01-3.07544 2.46325A20.52738 20.52738 0 01522.49846 451.548zM525.88392 456.01929A22.93845 22.93845 0 01528.559 452.725a39.41979 39.41979 0 013.03452-2.87146 38.7917 38.7917 0 013.32058-2.53492 22.69074 22.69074 0 013.684-2.10754 22.68833 22.68833 0 01-2.67309 3.29663 38.78885 38.78885 0 01-3.03647 2.86914 39.42245 39.42245 0 01-3.32251 2.53272A22.93824 22.93824 0 01525.88392 456.01929zM529.87556 460.33936a24.3139 24.3139 0 012.666-3.22278q1.42758-1.49011 2.972-2.83618c1.0282-.90052 2.10538-1.74476 3.221-2.54957a24.03124 24.03124 0 013.56516-2.18811 20.4917 20.4917 0 01-2.52375 3.35059 33.35822 33.35822 0 01-2.951 2.89636 33.85047 33.85047 0 01-3.28158 2.51575A20.69454 20.69454 0 01529.87556 460.33936zM534.20588 465.19861a24.585 24.585 0 012.73829-3.43909 42.39607 42.39607 0 013.10449-3.022 41.7092 41.7092 0 013.39593-2.69006 24.31128 24.31128 0 013.76609-2.26856 24.32182 24.32182 0 01-2.7363 3.44128A41.73376 41.73376 0 01541.3679 460.24a42.38858 42.38858 0 01-3.39789 2.68774A24.58268 24.58268 0 01534.20588 465.19861zM537.45381 469.35742a27.36427 27.36427 0 012.68527-3.24023c.94818-1.00586 1.92325-1.973 2.937-2.89771 1.00913-.92981 2.061-1.813 3.14673-2.66833a26.99878 26.99878 0 013.46933-2.38269A19.23107 19.23107 0 01547.312 461.669a30.01108 30.01108 0 01-2.88672 3.02612 30.38569 30.38569 0 01-3.27407 2.60229A19.41266 19.41266 0 01537.45381 469.35742zM542.0919 472.724a20.77684 20.77684 0 012.29544-3.29395 34.85071 34.85071 0 012.66611-2.88049 34.27278 34.27278 0 012.97284-2.5625 20.55 20.55 0 013.37677-2.17285 19.991 19.991 0 01-2.27881 3.282 34.5405 34.5405 0 01-2.68277 2.89246 35.126 35.126 0 01-2.98944 2.57446A20.21425 20.21425 0 01542.0919 472.724zM545.81141 478.36157a24.5293 24.5293 0 012.35028-3.339c.84653-1.04 1.727-2.04028 2.65268-2.997.92063-.96142 1.89063-1.87524 2.89917-2.75891a24.23273 24.23273 0 013.256-2.46472 18.75714 18.75714 0 01-2.10663 3.52051 29.774 29.774 0 01-2.61 3.0918 30.16724 30.16724 0 01-2.99969 2.71545A18.94405 18.94405 0 01545.81141 478.36157zM415.60432 407.3468c1.517 1.57654 2.99585 3.09876 4.5459 4.53223a60.788 60.788 0 0010.06671 7.52112c1.81372 1.08032 3.69159 2.0686 5.63245 3.07971a21.67006 21.67006 0 01-6.33643-1.68677 27.5643 27.5643 0 01-10.49493-7.84863A21.76682 21.76682 0 01415.60432 407.3468zM417.48622 404.32568c1.7793 1.04358 3.45129 2.17334 5.1134 3.3064l4.949 3.41577 4.905 3.4784c1.63373 1.17346 3.26685 2.35864 4.85523 3.67553a31.91122 31.91122 0 01-5.671-2.345 46.11126 46.11126 0 01-10.00537-7.00757A32.142 32.142 0 01417.48622 404.32568zM419.26851 401.355a57.10752 57.10752 0 015.40191 2.50977q2.62529 1.35773 5.17468 2.825c1.70282.97619 3.3772 2.00195 5.03748 3.06274a56.33019 56.33019 0 014.87555 3.42236 36.70951 36.70951 0 01-5.6167-2.04895 57.08485 57.08485 0 01-5.29535-2.70422 57.76619 57.76619 0 01-4.99042-3.23279A37.05179 37.05179 0 01419.26851 401.355zM422.436 399.05115a35.08078 35.08078 0 015.65417 1.59375 54.10575 54.10575 0 015.37842 2.28344 53.50483 53.50483 0 015.10174 2.84839 34.76525 34.76525 0 014.72272 3.49439 56.08578 56.08578 0 01-5.4541-2.1156c-1.77167-.77564-3.52283-1.57947-5.25012-2.43177q-2.59553-1.26909-5.13757-2.66149A56.92087 56.92087 0 01422.436 399.05115zM422.53425 395.07727a49.63734 49.63734 0 016.0647 1.61q2.96906.962 5.85693 2.12475c1.92658.772 3.82135 1.6228 5.69165 2.5343a49.07351 49.07351 0 015.48157 3.05445 49.09189 49.09189 0 01-6.06586-1.6073c-1.97882-.64246-3.93322-1.34558-5.85583-2.12744q-2.88775-1.16328-5.69043-2.53711A49.63223 49.63223 0 01422.53425 395.07727zM424.33705 391.47705c2.06531.29028 4.06482.72559 6.0517 1.18945q2.97948.69654 5.91955 1.4867c1.963.52417 3.914 1.09338 5.86462 1.68994 1.95063.598 3.8974 1.22876 5.828 2.01916a36.92525 36.92525 0 01-6.17713-.498 55.64227 55.64227 0 01-6.03631-1.28064 56.22948 56.22948 0 01-5.86029-1.9325A37.2384 37.2384 0 01424.33705 391.47705zM496.80336 438.00513c1.43976-.4043 2.79718-.77185 4.12048-1.208a39.82576 39.82576 0 003.84546-1.5022 40.54334 40.54334 0 003.67-1.88977c1.20246-.70349 2.377-1.47632 3.63513-2.286a11.11976 11.11976 0 01-2.71054 3.54334 14.70844 14.70844 0 01-8.11114 3.65417A11.16959 11.16959 0 01496.80336 438.00513zM218.74153 420.60083a18.58817 18.58817 0 001.48889 3.25452 6.26424 6.26424 0 002.45093 1.92346 23.73089 23.73089 0 003.21826 1.28747 35.3411 35.3411 0 013.52 1.29639 13.00529 13.00529 0 01-3.83417.24451 10.33059 10.33059 0 01-3.81256-1.04724 5.82121 5.82121 0 01-2.94171-2.99878A6.74144 6.74144 0 01218.74153 420.60083zM242.82234 303.60266c-1.22809 2.98084-2.39594 5.93421-3.41315 8.93225-1.00415 3.00037-1.89984 6.02588-2.6001 9.09888-.7362 3.06445-1.27868 6.17273-1.71221 9.30664-.42084 3.1377-.68848 6.30212-.91584 9.51831a42.12 42.12 0 01-.63891-9.65417 51.71532 51.71532 0 014.41949-18.8368A42.29161 42.29161 0 01242.82234 303.60266zM158.57063 424.71875c1.30957-3.465 2.83112-6.82947 4.44745-10.14526 1.60547-3.322 3.34778-6.57312 5.142-9.79456 1.82684-3.20312 3.708-6.37585 5.72021-9.46851 2.00122-3.09875 4.09467-6.14074 6.38489-9.05249-1.58185 3.34937-3.29736 6.60743-5.04126 9.84644-1.73291 3.24512-3.533 6.44775-5.32288 9.65649-1.82251 3.19043-3.63232 6.3877-5.51373 9.54908C162.51674 418.47754 160.61671 421.63147 158.57063 424.71875zM571.19377 390.9425a107.72381 107.72381 0 01.11813 11.44654c-.13141 3.81347-.45529 7.61645-.86712 11.40893-.44788 3.78833-1.00226 7.56482-1.73288 11.30982a49.39373 49.39373 0 01-1.30866 5.62073 10.57218 10.57218 0 01-1.30041 2.649 5.526 5.526 0 01-2.20047 1.88538 7.593 7.593 0 002.55307-4.79138c.35568-1.80481.47152-3.71741.71368-5.59961l1.28983-11.30139 1.30279-11.30017C570.19566 398.49963 570.63041 394.72546 571.19377 390.9425zM355.68977 220.07343a6.38157 6.38157 0 012.34174-2.3404 8.81372 8.81372 0 016.2818-1.04547 6.339 6.339 0 012.97168 1.46356 21.00487 21.00487 0 01-2.9889.89533c-.93243.21332-1.82867.38861-2.73089.5354-.902.14813-1.80725.27185-2.75891.37066A21.5708 21.5708 0 01355.68977 220.07343z"/><path fill="#f2195c" d="M327.83326 244.64233a5.13487 5.13487 0 00-1.11731 3.16053 6.84 6.84 0 00.78064 3.217 16.47338 16.47338 0 004.60682 4.98742 56.247 56.247 0 0012.05664 7.02942c2.13025.98755 4.30969 1.89514 6.5205 2.73706q1.658.63227 3.33411 1.2284a8.47444 8.47444 0 003.32849.73242A3.00112 3.00112 0 00360.04 266.2395a9.97825 9.97825 0 00.5575-3.38025c.17584-2.36206.28338-4.74475.40533-7.0957a6.6847 6.6847 0 00-.5094-3.16968 2.33478 2.33478 0 00-.95966-.97571c-.47637-.28637-.99816-.5664-1.51538-.84167-1.04675-.55884-2.0827-1.06921-3.17669-1.66846l-.11078-.06421a.71178.71178 0 01-.12177-.08252 1.2642 1.2642 0 01-.12335-.11023c-.03235-.05212-.0592-.00622-.20251-.32507a.94006.94006 0 01.03943-.726.9975.9975 0 01.34906-.37634.694.694 0 01.18-.08655l.10846-.03455a1.7492 1.7492 0 01.24719-.046 5.33309 5.33309 0 01.53686-.02868l.91321.00366 1.75446.00195a11.47186 11.47186 0 003.206-.38562 1.50671 1.50671 0 00.2619-.11707 1.0229 1.0229 0 00.20655-.15014 7.34627 7.34627 0 00.57354-.532 6.60172 6.60172 0 00.93634-1.21936 6.457 6.457 0 00.35053-.6814 8.156 8.156 0 01.47571-.89844 8.86872 8.86872 0 011.25165-1.58435 9.674 9.674 0 013.31842-2.1759c.64886-.24866 1.19317-.38623 1.72406-.57666a9.39647 9.39647 0 001.46576-.62073 2.70557 2.70557 0 00.5119-.36084.607.607 0 00.20056-.30273 3.5043 3.5043 0 00.10351-1.3733 15.10169 15.10169 0 00-.91272-3.20886c-.38824-1.131-.76074-2.27209-1.09429-3.42993a32.95723 32.95723 0 01-1.31537-7.1261 16.74272 16.74272 0 011.02966-7.12561l.19049.06085a18.42824 18.42824 0 00-.4483 3.48475 22.23135 22.23135 0 00.23474 3.47875 34.79278 34.79278 0 001.80768 6.74372c.38885 1.10388.82525 2.19568 1.26654 3.28894a16.53122 16.53122 0 011.164 3.58606 5.283 5.283 0 01-.09076 2.15771 2.66024 2.66024 0 01-.70361 1.20325 4.64153 4.64153 0 01-.91443.69592 11.29042 11.29042 0 01-1.78748.81617c-.5824.2218-1.18591.39819-1.64.58935a7.86269 7.86269 0 00-2.59809 1.69849 6.741 6.741 0 00-.95587 1.19983q-.19857.32666-.36981.66735a8.494 8.494 0 01-1.76251 2.45069 9.3918 9.3918 0 01-.75055.6571 3.117 3.117 0 01-.52863.348 3.45676 3.45676 0 01-.55584.23132 12.92376 12.92376 0 01-3.84571.392c-.60974-.00623-1.2135-.02979-1.80615-.05323l-.867-.02856-.3526.00073c.0144-.00244-.05152.007.02783-.01025l.055-.019.12921-.06616a.7975.7975 0 00.30658-.34021.87924.87924 0 00.04285-.67517c-.14288-.29834-.15283-.24231-.17078-.28271a.56535.56535 0 00-.08056-.07471c-.09253-.0636-.02967-.02051-.02967-.02051l.07941.05152 3.04523 1.79748c.516.309 1.027.61524 1.55157.96716a3.77223 3.77223 0 011.37628 1.64405 7.804 7.804 0 01.37116 3.82336c-.25971 2.38159-.59082 4.72717-.82233 7.0957a11.289 11.289 0 01-.68945 3.58851 3.13066 3.13066 0 01-1.3653 1.37768 4.85853 4.85853 0 01-1.8305.49121 6.64385 6.64385 0 01-1.872-.126c-.62274-.13672-1.16162-.32093-1.746-.46851q-1.72522-.46033-3.44428-.95776c-2.28991-.66956-4.57214-1.39685-6.81518-2.25977a42.139 42.139 0 01-12.40161-7.37292 24.4225 24.4225 0 01-2.59723-2.57532 11.40091 11.40091 0 01-1.98529-3.16248 7.15268 7.15268 0 01-.48829-3.712 5.17825 5.17825 0 011.65271-3.24524zM322.97139 212.15869a3.84018 3.84018 0 00-1.557 2.41028 7.32706 7.32706 0 00.00885 2.75006c.07111.48126.17212.97473.267 1.486.05627.27.09.50312.13537.66254.04389.17108.11426.28235.08484.27258-.0393-.02563-.16912-.00842-.14569.02a.82629.82629 0 00.39911-.21179 8.1948 8.1948 0 01.72827-.51849 1.486 1.486 0 011.303-.15l.21887.1015.04462.08509a2.46511 2.46511 0 01.0716 2.26312 2.78268 2.78268 0 00-.91724-1.62683l.26318.18634c-.07318.03967-.05859.07715-.185.21417l-.44037.56537a2.38816 2.38816 0 01-.88428.71484 1.613 1.613 0 01-1.644-.21533 2.3661 2.3661 0 01-.7345-1.07336 6.20045 6.20045 0 01-.24249-.88611 12.77559 12.77559 0 01-.27283-1.65723 6.046 6.046 0 01.6189-3.52954A3.327 3.327 0 01322.97139 212.15869zM316.72938 222.11426c.00269-.14032-.03924-.12848-.04663-.04877a1.3369 1.3369 0 00-.02606.26978c-.006.2146.00317.46148.02051.71521.03558.51538.09314 1.03228.16327 1.61529.05175.387.04358.575.06359.79389a4.71229 4.71229 0 00.09736.60138 2.19417 2.19417 0 00.50415.97869 3.16625 3.16625 0 002.50573.7912 12.57364 12.57364 0 003.192-.59778 13.07715 13.07715 0 01-3.01056 1.58118 6.06584 6.06584 0 01-1.814.34155 5.102 5.102 0 01-1.00861-.09 4.18489 4.18489 0 01-1.01074-.38715 4.39455 4.39455 0 01-1.599-1.5097 7.01026 7.01026 0 01-.495-.93488c-.13348-.30908-.24676-.661-.32678-.80725-.21435-.47833-.45233-1.02014-.66833-1.57458-.109-.281-.2146-.57178-.31226-.89887a5.08665 5.08665 0 01-.13519-.54687 3.07439 3.07439 0 01-.05133-.87128zM280.64082 250.06836c1.93958-2.898 3.95868-5.56848 6.08594-8.22046 1.06219-1.32068 2.16907-2.60754 3.30963-3.87415a44.94154 44.94154 0 013.63684-3.668 26.84043 26.84043 0 01-2.39227 4.60974 42.98219 42.98219 0 01-3.00092 4.19128 39.64336 39.64336 0 01-3.50323 3.79553A21.00564 21.00564 0 01280.64082 250.06836z"/><path fill="#f2195c" d="M308.32686,295.53845a53.25418,53.25418,0,0,1,5.06958-10.496A63.557,63.557,0,0,1,329.086,267.80115a53.06424,53.06424,0,0,1,9.97626-6.0293c-3.10834,2.32568-6.12024,4.70459-8.98853,7.23767a105.61788,105.61788,0,0,0-15.38653,16.89966C312.43367,289.00208,310.34852,292.22461,308.32686,295.53845Z"/><path fill="#f2195c" d="M259.805,257.97412c3.27967-2.86011,6.63831-5.61951,9.95527-8.432l2.512-2.07849a8.5427,8.5427,0,0,1,2.96606-1.83886,4.54985,4.54985,0,0,1,3.66059.6278,7.30913,7.30913,0,0,1,2.43054,2.63611,27.735,27.735,0,0,1,1.42529,3.03858l1.28583,2.97729q1.31241,2.96539,2.73566,5.87842c1.93219,3.85681,3.74164,7.84619,6.35821,11.08166a35.47485,35.47485,0,0,0,4.52954,4.43421,38.77125,38.77125,0,0,1,4.68244,4.7384,37.2834,37.2834,0,0,1,3.74182,5.52661,26.55055,26.55055,0,0,1,2.59039,6.193,11.58922,11.58922,0,0,1,.35462,3.45507,9.84405,9.84405,0,0,1-.84894,3.37085,32.8855,32.8855,0,0,1-1.52545,2.95154l-1.59,2.84644c-2.168,3.77-4.275,7.572-6.49664,11.31384,1.82013-3.95276,3.75482-7.84534,5.62866-11.76978.924-1.95349,2.01-3.89917,2.76739-5.83154a8.96387,8.96387,0,0,0,.62275-2.94568,10.098,10.098,0,0,0-.42133-2.99182,27.54275,27.54275,0,0,0-2.60577-5.72742,35.45824,35.45824,0,0,0-3.67066-5.17675,39.04617,39.04617,0,0,0-4.5144-4.48047,36.90777,36.90777,0,0,1-4.79724-4.64795,35.534,35.534,0,0,1-3.60047-5.64526c-1.02368-1.95044-1.99011-3.89856-2.91034-5.884q-1.37493-2.97528-2.63635-5.99975c-.41882-1.00855-.833-2.019-1.2276-3.03724a26.52347,26.52347,0,0,0-1.23358-2.90795,5.82091,5.82091,0,0,0-1.85339-2.18714,3.26582,3.26582,0,0,0-2.55127-.57483,7.49813,7.49813,0,0,0-2.59058,1.476l-2.61609,1.94592C266.8415,252.86206,263.36274,255.46838,259.805,257.97412Z"/><path fill="#f2195c" d="M269.16572 254.29529a54.48648 54.48648 0 018.92951 10.98059c2.57318 3.95557 4.98248 7.97583 7.40637 12.00452 2.38379 4.04846 4.746 8.10986 7.00806 12.23059 2.27282 4.11438 4.48455 8.26513 6.52539 12.51721-2.75678-3.827-5.34259-7.75549-7.86737-11.72034-2.53547-3.95837-4.97089-7.97632-7.38471-12.007-2.38611-4.04321-4.73395-8.12634-7.01526-12.21582A94.96882 94.96882 0 00269.16572 254.29529zM280.64637 284.45215c3.60132 5.1615 7.09192 10.40393 10.21991 15.88806a108.73313 108.73313 0 018.08826 17.16064 123.88348 123.88348 0 014.65039 18.37146c1.25336 6.14112 2.51563 12.26893 4.85694 18.12452-3.05262-5.52869-4.87226-11.68384-6.37922-17.7804-1.54052-6.10681-2.84784-12.21655-5.00988-18.04187a143.663 143.663 0 00-7.57331-17.09338C286.62941 295.51953 283.58943 290.01807 280.64637 284.45215zM377.65571 324.86292a19.48808 19.48808 0 011.8714 2.77551c.53784.94616 1.02484 1.90527 1.47473 2.88159.45044.9762.8609 1.97034 1.22889 2.99463a19.17244 19.17244 0 01.88513 3.22876 12.2976 12.2976 0 01-2.28009-2.50269 18.234 18.234 0 01-1.65064-2.88574 18.46048 18.46048 0 01-1.11242-3.13293A12.42724 12.42724 0 01377.65571 324.86292zM386.60865 317.01733a27.42432 27.42432 0 011.46729 4.9419 42.41279 42.41279 0 01.7475 5.06311 41.9196 41.9196 0 01.13373 5.11621 27.172 27.172 0 01-.60218 5.12024 42.43611 42.43611 0 01-.95642-5.03931c-.2323-1.67566-.42779-3.34814-.56714-5.02527-.1463-1.67663-.24212-3.35766-.299-5.04858A43.04594 43.04594 0 01386.60865 317.01733zM398.21815 323.88855a9.68682 9.68682 0 01.541 2.88147 14.32517 14.32517 0 01-.16168 2.85254 14.12794 14.12794 0 01-.719 2.76489 9.58376 9.58376 0 01-1.402 2.57581 13.90878 13.90878 0 01-.13824-2.89331 24.73327 24.73327 0 01.28412-2.75806 25.379 25.379 0 01.57879-2.71179A14.13284 14.13284 0 01398.21815 323.88855zM491.6703 132.84a19.49637 19.49637 0 011.13385 3.14953c.28943 1.0492.52643 2.09845.72327 3.15528.19732 1.05676.35156 2.12127.45715 3.20446a19.1753 19.1753 0 01.06653 3.34729 12.30065 12.30065 0 01-1.59693-2.98535 18.23871 18.23871 0 01-.89276-3.20233 18.4726 18.4726 0 01-.31042-3.31006A12.43079 12.43079 0 01491.6703 132.84zM502.27357 127.42889a27.42612 27.42612 0 01.21088 5.15076 42.40214 42.40214 0 01-.51666 5.0918 41.92407 41.92407 0 01-1.12464 4.99286 27.17438 27.17438 0 01-1.83911 4.81634 42.41606 42.41606 0 01.30823-5.11993c.18554-1.68152.40613-3.35083.68219-5.011q.40383-2.492.94787-4.96777A43.03581 43.03581 0 01502.27357 127.42889zM511.84407 136.93665a9.68566 9.68566 0 01-.18195 2.9262 14.31974 14.31974 0 01-.85608 2.72577 14.1295 14.1295 0 01-1.37494 2.50434 9.58467 9.58467 0 01-1.99072 2.15344 13.913 13.913 0 01.57538-2.839 24.74035 24.74035 0 01.9516-2.60413 25.38112 25.38112 0 011.226-2.48712A14.13356 14.13356 0 01511.84407 136.93665zM322.00642 323.00684a10.764 10.764 0 01.07916 2.81713 16.97394 16.97394 0 01-.47021 2.67469 16.67514 16.67514 0 01-.88593 2.56677 10.62939 10.62939 0 01-1.44055 2.4231 10.62984 10.62984 0 01-.08172-2.81775 16.66578 16.66578 0 01.47283-2.67395 16.96811 16.96811 0 01.88855-2.56617A10.76268 10.76268 0 01322.00642 323.00684zM221.64448 259.24512a15.274 15.274 0 011.76026-3.79041 12.596 12.596 0 012.8435-3.19067 9.14323 9.14323 0 013.9964-1.81116 5.93235 5.93235 0 014.22754.67432 10.74705 10.74705 0 00-3.80414.82776 14.17807 14.17807 0 00-3.19183 1.887 31.28261 31.28261 0 00-2.85718 2.58374A39.00788 39.00788 0 01221.64448 259.24512zM361.452 154.58783a15.27253 15.27253 0 014.1347.60791 12.59578 12.59578 0 013.86841 1.817 9.14451 9.14451 0 012.87433 3.31506 5.93312 5.93312 0 01.55762 4.24451 10.74925 10.74925 0 00-1.877-3.41083 14.1774 14.1774 0 00-2.71777-2.52228 31.30923 31.30923 0 00-3.29053-2.003A38.97958 38.97958 0 01361.452 154.58783zM373.63221 154.28418a15.27316 15.27316 0 013.45606 2.34967 12.59564 12.59564 0 012.68927 3.32178 9.14427 9.14427 0 011.14148 4.23651 5.933 5.933 0 01-1.34863 4.063 10.74821 10.74821 0 00-.20221-3.88788 14.17533 14.17533 0 00-1.34626-3.45484 31.28764 31.28764 0 00-2.08807-3.23718A38.97784 38.97784 0 01373.63221 154.28418zM109.85927 424.19385a15.27344 15.27344 0 01-3.04914-2.858 12.59566 12.59566 0 01-2.14068-3.69922 9.14488 9.14488 0 01-.46961-4.36231 5.93332 5.93332 0 011.96344-3.80432 10.74789 10.74789 0 00-.40417 3.87219 14.17425 14.17425 0 00.79327 3.622 31.286 31.286 0 001.55988 3.52222A38.994 38.994 0 01109.85927 424.19385zM99.6822 417.49487a15.2738 15.2738 0 01-1.49811-3.90149 12.59453 12.59453 0 01-.31378-4.26233 9.14466 9.14466 0 011.47925-4.13073 5.93277 5.93277 0 013.42554-2.56763 10.7455 10.7455 0 00-2.05188 3.30847 14.17485 14.17485 0 00-.86518 3.60559 31.291 31.291 0 00-.13177 3.84986A38.97209 38.97209 0 0199.6822 417.49487zM592.781 269.06165a15.27086 15.27086 0 013.78409 1.7738 12.59694 12.59694 0 013.18051 2.85486 9.14487 9.14487 0 011.79684 4.00281 5.93316 5.93316 0 01-.68945 4.22521 10.74765 10.74765 0 00-.81421-3.80712 14.17464 14.17464 0 00-1.87546-3.19861 31.30182 31.30182 0 00-2.57351-2.86634A38.99234 38.99234 0 01592.781 269.06165zM604.53181 272.28149a15.27217 15.27217 0 012.6322 3.2461 12.59552 12.59552 0 011.61771 3.95581 9.1445 9.1445 0 01-.128 4.38574 5.933 5.933 0 01-2.46253 3.50195 10.74773 10.74773 0 00.927-3.78125 14.17492 14.17492 0 00-.29334-3.69616 31.29346 31.29346 0 00-1.06643-3.70166A39.00008 39.00008 0 01604.53181 272.28149z"/><path fill="#f4648a" d="M298.8723,111.74769h-.0641c-4.65655-.14685-9.30373-.25715-13.95982-.303-4.64718-.07348-9.30326-.06429-13.95035,0l-13.95982.22041-6.97054.1745-6.97991.27551h-.0551a.72143.72143,0,0,0-.6978.753c.10093,3.389.257,6.76868.2937,10.15756.02783,1.62556.03683,3.25112.03683,4.87669q0,1.91472-.02737,3.82962c0,.48684-.00946.96441-.01836,1.442a.449.449,0,0,0,.44974.46839l.01836.00918c4.675.08257,9.3862.35808,14.14322.50512,3.57275.16531,7.14541.21114,10.69969.18368h.06411c.12876,0,.24806,0,.37672-.00919.47757,0,.94577-.00918,1.42334-.01836.12866.00918.248,0,.37672,0,.43137-.00919.8542-.00919,1.28567-.01837,1.6161-.01837,3.22329-.046,4.83049-.08275q4.62927-.11021,9.17506-.27543c4.61972-.1654,9.13823-.395,13.53735-.66133l.09147-1.54291.20223-3.37042c.10094-1.6623.20224-3.34306.2848-5.06037.165-3.42562.36727-6.91553.44974-10.43308A1.08833,1.08833,0,0,0,298.8723,111.74769Zm-.165,21.33436c-4.90452-.26633-9.67991-.49593-14.37328-.66124-2.93859-.11939-5.84082-.202-8.72477-.26634-1.7354-.03673-3.46236-.07347-5.17939-.10093-.9184-.01837-1.82779-.02755-2.74619-.03674-3.66468-.03673-7.30144.00919-10.92883.17441-4.40858.13785-8.83516.40409-13.30785.50521,0,.156.00946.32144.00946.47756l-.46866-.46838c.1565,0,.30317-.00918.4592-.00918-.00891-.32153-.00891-.65206-.00891-.97359-.04619-2.902-.03682-5.80427,0-8.69713.04574-3.13183.17441-6.25437.27534-9.37683l-.72563-.02755.75336-.75318c-.00936.25715-.01836.52358-.02773.78073l6.25428.248,6.97054.1745,13.95982.22032c4.64709.06438,9.30317.07357,13.95035,0,4.29828-.04592,8.57811-.13776,12.87593-.27552-.01837-.38563-.03674-.76226-.04574-1.148l1.12963,1.12044c-.35827.00919-.72553.01837-1.08389.02755.09193,2.87468.26642,5.77672.41346,8.72477l.496,8.99111Z"/><path fill="#f4648a" d="M269.40113,148.07957c-.00946.202-.02783.39481-.03683.58768l-.20223,3.49909c.09194.00918.18387.00918.2758.00918C269.41,150.8072,269.40113,149.43879,269.40113,148.07957Zm0,0c-.00946.202-.02783.39481-.03683.58768l-.20223,3.49909c.09194.00918.18387.00918.2758.00918C269.41,150.8072,269.40113,149.43879,269.40113,148.07957Zm0,0c-.00946.202-.02783.39481-.03683.58768l-.20223,3.49909c.09194.00918.18387.00918.2758.00918C269.41,150.8072,269.40113,149.43879,269.40113,148.07957Zm0,0c-.00946.202-.02783.39481-.03683.58768l-.20223,3.49909c.09194.00918.18387.00918.2758.00918C269.41,150.8072,269.40113,149.43879,269.40113,148.07957Zm0,0c-.00946.202-.02783.39481-.03683.58768l-.20223,3.49909c.09194.00918.18387.00918.2758.00918C269.41,150.8072,269.40113,149.43879,269.40113,148.07957Zm0,0c-.00946.202-.02783.39481-.03683.58768l-.20223,3.49909c.09194.00918.18387.00918.2758.00918C269.41,150.8072,269.40113,149.43879,269.40113,148.07957Zm0,0c-.00946.202-.02783.39481-.03683.58768l-.20223,3.49909c.09194.00918.18387.00918.2758.00918C269.41,150.8072,269.40113,149.43879,269.40113,148.07957Zm0,0c-.00946.202-.02783.39481-.03683.58768l-.20223,3.49909c.09194.00918.18387.00918.2758.00918C269.41,150.8072,269.40113,149.43879,269.40113,148.07957Zm55.46162-16.026h-.0641c-4.64718-.147-9.30327-.25715-13.95036-.30307q-5.93757-.0828-11.85669-.01846h-.3578c-.579.00918-1.15746.00918-1.74533.01846l-13.95044.22032-6.97991.1745-.3489.00918-5.81345.23879h-.009l-.8081.02755h-.0551a.74021.74021,0,0,0-.69826.75317c0,.12849.00946.25716.01837.38564,0,.25724.00946.50521.02782.76236v.00918c.09194,3.00316.22014,5.997.257,9.0002.01837,1.4327.03674,2.85622.03674,4.289v.35808c0,1.396-.00891,2.79193-.03674,4.17871,0,.40409-.009.80819-.01837,1.21237v.11012a.31294.31294,0,0,0,.01837.12866.46275.46275,0,0,0,.43183.3489h.01837c1.94709.03674,3.91219.1103,5.87765.193.22023,0,.44983.01828.67943.02746.50539.01837,1.01033.03673,1.52463.06429,2.01129.08274,4.03194.16531,6.06151.2296,4.76648.21123,9.52387.22041,14.23515.13785,4.71128-.07347,9.3952-.193,14.00555-.36745,4.61035-.16522,9.13778-.39482,13.537-.66116l.2847-4.91351c.10139-1.6623.21123-3.34287.2848-5.06037.16549-3.41644.36726-6.90625.45919-10.4329A1.10152,1.10152,0,0,0,324.86275,132.05354Zm-.73453,11.00239.5785,10.332c-4.90406-.26634-9.68891-.49593-14.37282-.66134-4.70229-.17449-9.31264-.29379-13.90462-.36736-4.601-.08265-9.13778-.07347-13.684.13776-1.97446.06429-3.94892.15622-5.94184.23879-2.443.1102-4.895.21132-7.35654.26642,0,.15613.00937.32135.00937.47748l-.34927-.33972-.1283-.12867h.13767c.1103-.00909.22023-.00909.33053-.00909-.009-.27561-.009-.551-.009-.82665-.02783-1.36832-.03674-2.73673-.03674-4.096v-.03683c0-1.57037.00891-3.14083.03674-4.71138.03683-3.01225.156-6.01541.257-9.01856.00946-.11949.00946-.23879.00946-.35827l-.72563-.02746.7529-.75309c-.00891.25716-.01837.52349-.02727.78055l.37617.01837,5.87765.2296.2296.00918,6.75031.17459,13.95044.22032c4.65655.05511,9.30364.06429,13.95982-.00918q6.43323-.06875,12.86646-.26625c-.0179-.38572-.02736-.77154-.03627-1.15718l1.12017,1.12963c-.35827.00919-.72554.01837-1.0839.02755C323.80669,137.20566,323.98118,140.09861,324.12822,143.05593Zm-54.72709,5.02364c-.00946.202-.02783.39481-.03683.58768l-.20223,3.49909c.09194.00918.18387.00918.2758.00918C269.41,150.8072,269.40113,149.43879,269.40113,148.07957Zm0,0c-.00946.202-.02783.39481-.03683.58768l-.20223,3.49909c.09194.00918.18387.00918.2758.00918C269.41,150.8072,269.40113,149.43879,269.40113,148.07957Zm0,0c-.00946.202-.02783.39481-.03683.58768l-.20223,3.49909c.09194.00918.18387.00918.2758.00918C269.41,150.8072,269.40113,149.43879,269.40113,148.07957Zm0,0c-.00946.202-.02783.39481-.03683.58768l-.20223,3.49909c.09194.00918.18387.00918.2758.00918C269.41,150.8072,269.40113,149.43879,269.40113,148.07957Zm0,0c-.00946.202-.02783.39481-.03683.58768l-.20223,3.49909c.09194.00918.18387.00918.2758.00918C269.41,150.8072,269.40113,149.43879,269.40113,148.07957Zm0,0c-.00946.202-.02783.39481-.03683.58768l-.20223,3.49909c.09194.00918.18387.00918.2758.00918C269.41,150.8072,269.40113,149.43879,269.40113,148.07957Zm0,0c-.00946.202-.02783.39481-.03683.58768l-.20223,3.49909c.09194.00918.18387.00918.2758.00918C269.41,150.8072,269.40113,149.43879,269.40113,148.07957Z"/><path fill="#f4648a" d="M276.80341,152.73575a1.06382,1.06382,0,0,0-.78073-.37655h-.0551q-3.265-.09628-6.52971-.18368c-.09193,0-.18386,0-.2758-.00918-.10984.00918-.2296,0-.33944,0-.10139,0-.19286,0-.29416-.00918-2.17669-.04592-4.344-.08257-6.52071-.101q-6.97077-.09628-13.95045,0l-13.95935.22042-2.71837.07347c-.22959.00918-.45919.00918-.67988.01837l-3.58166.09193-6.97045.26624-.05519.00919a.59306.59306,0,0,0-.2206.04592.71443.71443,0,0,0-.48657.698q.0135.3444.02737.6888c.10093,3.15928.2296,6.31866.27579,9.46867.02737,1.57046.03674,3.141.03674,4.71137,0,1.81852-.01883,3.62776-.05511,5.44619a.47439.47439,0,0,0,.4592.46838h.01837c4.67446.09184,9.38574.36727,14.14322.51421,4.757.21132,9.52341.22042,14.22569.13785,4.71129-.07356,9.40466-.18368,14.00555-.36745,4.61045-.16531,9.13824-.39491,13.53745-.66115l.2847-4.91343c.10993-1.6532.21123-3.343.2848-5.06036.156-3.16847.3489-6.40123.43137-9.67081.01837-.248.01837-.50512.02783-.76227A1.07425,1.07425,0,0,0,276.80341,152.73575Zm-.83583,1.87362c-.36727.00909-.72563.01827-1.09289.02746.09193,2.87467.27533,5.76753.42246,8.72477l.5695,10.332c-4.90452-.26624-9.67991-.49584-14.37328-.66124-4.70183-.17441-9.31218-.2938-13.90416-.35809-4.60145-.09193-9.13824-.08274-13.67512.12849-4.40812.14694-8.844.40418-13.30729.50521,0,.16522.009.32134.009.48675l-.4682-.47757c.156,0,.3027-.00918.4592-.00918q-.09684-4.83551-.00946-9.67081c.0462-3.11328.1745-6.2451.27579-9.36756l-.72553-.02764.04574-.04592.70716-.71635q-.014.37194-.02737.7439v.046l6.24492.23878,6.97991.18359,13.95935.22042q6.97077.09657,13.95045-.00919,6.43392-.05509,12.86693-.26633c-.00937-.16531-.00937-.32135-.01837-.48666-.00937-.22051-.00937-.45011-.01837-.67052l.6978.698Z"/><path fill="#f4648a" d="M268.52847 143.33136c-.03683-3.00316-.165-5.997-.257-9.0002-.12866.00919-.248.00919-.37672.00919.09193 2.86531.27579 5.76744.41346 8.71558l.257 4.56444C268.56521 146.18758 268.54684 144.76406 268.52847 143.33136zm0 0c-.03683-3.00316-.165-5.997-.257-9.0002-.12866.00919-.248.00919-.37672.00919.09193 2.86531.27579 5.76744.41346 8.71558l.257 4.56444C268.56521 146.18758 268.54684 144.76406 268.52847 143.33136zm0 0c-.03683-3.00316-.165-5.997-.257-9.0002-.12866.00919-.248.00919-.37672.00919.09193 2.86531.27579 5.76744.41346 8.71558l.257 4.56444C268.56521 146.18758 268.54684 144.76406 268.52847 143.33136zm0 0c-.03683-3.00316-.165-5.997-.257-9.0002-.12866.00919-.248.00919-.37672.00919.09193 2.86531.27579 5.76744.41346 8.71558l.257 4.56444C268.56521 146.18758 268.54684 144.76406 268.52847 143.33136zm0 0c-.03683-3.00316-.165-5.997-.257-9.0002-.12866.00919-.248.00919-.37672.00919.09193 2.86531.27579 5.76744.41346 8.71558l.257 4.56444C268.56521 146.18758 268.54684 144.76406 268.52847 143.33136zm0 0c-.03683-3.00316-.165-5.997-.257-9.0002-.12866.00919-.248.00919-.37672.00919.09193 2.86531.27579 5.76744.41346 8.71558l.257 4.56444C268.56521 146.18758 268.54684 144.76406 268.52847 143.33136zm0 0c-.03683-3.00316-.165-5.997-.257-9.0002-.12866.00919-.248.00919-.37672.00919.09193 2.86531.27579 5.76744.41346 8.71558l.257 4.56444C268.56521 146.18758 268.54684 144.76406 268.52847 143.33136zm0 0c-.03683-3.00316-.165-5.997-.257-9.0002-.12866.00919-.248.00919-.37672.00919.09193 2.86531.27579 5.76744.41346 8.71558l.257 4.56444C268.56521 146.18758 268.54684 144.76406 268.52847 143.33136zm1.2673-10.9381h-.009a1.04928 1.04928 0 00-.744-.33972h-.0641c-.43183-.00918-.8632-.02755-1.295-.03674q-6.323-.193-12.65533-.26633-5.80037-.0828-11.59026-.02764c-.29379.00918-.59686.00918-.9.00918-.487.00918-.983.00918-1.46952.01846l-13.95045.22032-6.97991.1745-6.97991.27552h-.0551a.73988.73988 0 00-.6978.75317c.1103 3.3888.257 6.7685.30316 10.15738.01837 1.55218.03674 3.095.03674 4.64709q0 2.75518-.0551 5.5012a.46835.46835 0 00.44974.47756h.01836c2.07586.03674 4.16062.11949 6.25438.21124.25742 0 .5233.01836.78073.02755.2296.00918.4502.01836.67979.02755 2.1395.09193 4.27946.18368 6.42878.248 4.76648.21123 9.5235.22041 14.23515.13785 4.71129-.07347 9.4042-.193 14.00556-.36745 4.41712-.156 8.76113-.37645 12.98585-.63361l.55113-.02755.02737-.44083.00937-.12867.04573-.84492.20223-3.49909c.009-.19287.02737-.38564.03683-.58768v-.03683c.09193-1.46025.18341-2.9296.248-4.43586.14667-3.04908.32153-6.15326.42246-9.29408.00891-.1103.00891-.22042.00891-.3399q.01419-.39938.02783-.79892A1.05242 1.05242 0 00269.79577 132.39326zm-.909 20.99464c-.12867-.00918-.248-.00918-.37664-.01837-4.77538-.25715-9.42256-.47756-13.99618-.643-4.70228-.17449-9.31264-.29379-13.90462-.36736-3.09509-.055-6.17181-.07347-9.22971-.00918-.22959.00918-.45919.00918-.67988.01837-1.2583.02755-2.51614.06438-3.77443.12857-2.34219.07347-4.69338.18377-7.05347.28471-2.0754.09193-4.15116.17449-6.24492.2205 0 .15613.009.32135.009.47748l-.47766-.46839c.15613 0 .31263-.00909.46866-.00909q-.09684-4.83535-.00946-9.67081c.03683-3.13173.1655-6.25419.26643-9.37683l-.72563-.02746.75346-.75309c-.00946.25716-.01846.52349-.02783.78055l6.25428.248 6.97991.18377 13.95045.22032c4.65609.05511 9.30327.06429 13.95981-.00918 4.261-.04583 8.54091-.13776 12.80236-.25706a.15537.15537 0 00.06411-.00919c-.01837-.38572-.02728-.77154-.03674-1.15718l.38564.38564.735.744c-.239.00919-.46857.01837-.70717.01837-.12866.00918-.248.00918-.37672.00918v.00919c.09193 2.86531.27579 5.76744.41346 8.71558l.257 4.56444.25742 4.546zm-.35827-10.05654c-.03683-3.00316-.165-5.997-.257-9.0002-.12866.00919-.248.00919-.37672.00919.09193 2.86531.27579 5.76744.41346 8.71558l.257 4.56444C268.56521 146.18758 268.54684 144.76406 268.52847 143.33136zm0 0c-.03683-3.00316-.165-5.997-.257-9.0002-.12866.00919-.248.00919-.37672.00919.09193 2.86531.27579 5.76744.41346 8.71558l.257 4.56444C268.56521 146.18758 268.54684 144.76406 268.52847 143.33136zm0 0c-.03683-3.00316-.165-5.997-.257-9.0002-.12866.00919-.248.00919-.37672.00919.09193 2.86531.27579 5.76744.41346 8.71558l.257 4.56444C268.56521 146.18758 268.54684 144.76406 268.52847 143.33136zm0 0c-.03683-3.00316-.165-5.997-.257-9.0002-.12866.00919-.248.00919-.37672.00919.09193 2.86531.27579 5.76744.41346 8.71558l.257 4.56444C268.56521 146.18758 268.54684 144.76406 268.52847 143.33136zm0 0c-.03683-3.00316-.165-5.997-.257-9.0002-.12866.00919-.248.00919-.37672.00919.09193 2.86531.27579 5.76744.41346 8.71558l.257 4.56444C268.56521 146.18758 268.54684 144.76406 268.52847 143.33136zm0 0c-.03683-3.00316-.165-5.997-.257-9.0002-.12866.00919-.248.00919-.37672.00919.09193 2.86531.27579 5.76744.41346 8.71558l.257 4.56444C268.56521 146.18758 268.54684 144.76406 268.52847 143.33136zm0 0c-.03683-3.00316-.165-5.997-.257-9.0002-.12866.00919-.248.00919-.37672.00919.09193 2.86531.27579 5.76744.41346 8.71558l.257 4.56444C268.56521 146.18758 268.54684 144.76406 268.52847 143.33136zM122.228 337.5081h-.06457c-4.64672-.14694-9.30326-.25715-13.95044-.30316-1.65294-.02755-3.29687-.04592-4.9498-.04592-.01836.01837-.03682.02755-.05519.04592q-1.6392 1.40514-3.22376 2.89295c2.74619.00927 5.483 0 8.22875-.04583q6.43392-.06888 12.867-.27552c-.01837-.38582-.02783-.76236-.03683-1.148l1.12026 1.12036c-.3579.00918-.72562.01846-1.08343.02764.09193 2.87458.26634 5.77672.413 8.72477l.49594 8.99111.07356 1.35c-4.904-.26643-9.6799-.496-14.36382-.66125-2.93859-.11948-5.84991-.202-8.73377-.26633-1.73586-.03683-3.453-.07357-5.17048-.10112-.9184-.01827-1.83679-.02746-2.74619-.03673-2.15832-.01837-4.29782-.01837-6.42878.02764-.5233.72544-1.02869 1.46934-1.51526 2.21334 2.70945.08265 5.40945.10093 8.09108.08265h.05519c.12867 0 .257 0 .37627-.00918.47756 0 .95513-.00918 1.4327-.01846.12876.00928.248 0 .36726 0 .43183-.00918.86376-.00918 1.29513-.01837 1.61656-.01827 3.22375-.055 4.831-.08256q4.62858-.11035 9.1746-.27561c4.61035-.17441 9.13823-.39482 13.53735-.66125l.09147-1.552.19333-3.36133c.10084-1.6623.21123-3.35224.2847-5.06037.165-3.42562.36727-6.91562.4592-10.433A1.10223 1.10223 0 00122.228 337.5081z"/><path fill="#f4648a" d="M92.75677,373.83979c-.00936.20214-.02773.395-.03673.58777l-.20223,3.49919c.09193.00918.18386.00918.27533.00918C92.76577,376.56752,92.75677,375.19911,92.75677,373.83979Zm0,0c-.00936.20214-.02773.395-.03673.58777l-.20223,3.49919c.09193.00918.18386.00918.27533.00918C92.76577,376.56752,92.75677,375.19911,92.75677,373.83979Zm0,0c-.00936.20214-.02773.395-.03673.58777l-.20223,3.49919c.09193.00918.18386.00918.27533.00918C92.76577,376.56752,92.75677,375.19911,92.75677,373.83979Zm0,0c-.00936.20214-.02773.395-.03673.58777l-.20223,3.49919c.09193.00918.18386.00918.27533.00918C92.76577,376.56752,92.75677,375.19911,92.75677,373.83979Zm0,0c-.00936.20214-.02773.395-.03673.58777l-.20223,3.49919c.09193.00918.18386.00918.27533.00918C92.76577,376.56752,92.75677,375.19911,92.75677,373.83979Zm0,0c-.00936.20214-.02773.395-.03673.58777l-.20223,3.49919c.09193.00918.18386.00918.27533.00918C92.76577,376.56752,92.75677,375.19911,92.75677,373.83979Zm0,0c-.00936.20214-.02773.395-.03673.58777l-.20223,3.49919c.09193.00918.18386.00918.27533.00918C92.76577,376.56752,92.75677,375.19911,92.75677,373.83979Zm0,0c-.00936.20214-.02773.395-.03673.58777l-.20223,3.49919c.09193.00918.18386.00918.27533.00918C92.76577,376.56752,92.75677,375.19911,92.75677,373.83979Zm55.46171-16.026h-.0641c-4.64718-.14694-9.30327-.25706-13.95045-.303-3.94938-.06428-7.8983-.06428-11.84769-.02755-.11929,0-.2475,0-.36726.00919-.5785,0-1.16637.00918-1.74486.01836l-13.95036.22042-6.97991.17449-.3489.00919-5.81354.23878H93.1425l-.79919.02755h-.0551a.74123.74123,0,0,0-.70717.75309c0,.12857.00891.248.00891.37654.00946.25715.01883.51421.03683.77146v.00918c.09193,3.00306.2206,5.997.25733,9.0002.02737,1.396.03683,2.79192.03683,4.18789v.52357c0,1.36842-.00946,2.746-.03683,4.11442,0,.404-.00936.8081-.01837,1.21219V379.24a.53333.53333,0,0,0,.01837.12867.48274.48274,0,0,0,.44083.349h.01837c1.94719.03674,3.91219.11021,5.86874.19277.2296,0,.4592.01837.67934.02755.51439.01846,1.01933.03683,1.52472.06438,2.0112.08257,4.0314.16522,6.06151.2296,4.76639.21123,9.53287.22042,14.23515.12849,4.71129-.0642,9.40411-.18359,14.00556-.35809,4.61035-.16531,9.13777-.39491,13.53689-.66133l.28479-4.91343c.1103-1.6623.21124-3.343.28471-5.06036.165-3.41635.37672-6.90635.4592-10.4329A1.1019,1.1019,0,0,0,148.21848,357.81376Zm-.72562,11.00249.56959,10.332c-4.90415-.26642-9.68-.496-14.37282-.66133-4.70238-.1745-9.31273-.29389-13.90471-.36727-4.6009-.08275-9.13823-.07356-13.675.13767-1.97446.06428-3.94893.147-5.94176.23878-2.44312.1103-4.9046.21123-7.36563.26634,0,.15621.009.32153.009.47756l-.4682-.46838h.12876c.10984-.00918.22014-.00918.33044-.00918-.00937-.27552-.00937-.551-.00937-.82647-.02737-1.36841-.03637-2.73682-.03637-4.09614v-.03665c0-1.57055.009-3.14091.03637-4.71146.03674-3.01235.1655-6.01541.26634-9.01866,0-.11939.00946-.23878.00946-.35818l-.72563-.02755.753-.753c-.009.25706-.01845.52339-.02736.78054l.36726.01837,5.87765.2296.239.00928,6.74094.1744,13.95036.21123c4.65654.06429,9.30326.07357,13.95981,0q6.43323-.06874,12.86656-.26624c-.01837-.38582-.02737-.77145-.03683-1.15718l1.12072,1.12954c-.35836.00918-.72563.01846-1.08389.02764C147.16242,362.96606,147.34628,365.85892,147.49286,368.81625Zm-54.73609,5.02354c-.00936.20214-.02773.395-.03673.58777l-.20223,3.49919c.09193.00918.18386.00918.27533.00918C92.76577,376.56752,92.75677,375.19911,92.75677,373.83979Zm0,0c-.00936.20214-.02773.395-.03673.58777l-.20223,3.49919c.09193.00918.18386.00918.27533.00918C92.76577,376.56752,92.75677,375.19911,92.75677,373.83979Zm0,0c-.00936.20214-.02773.395-.03673.58777l-.20223,3.49919c.09193.00918.18386.00918.27533.00918C92.76577,376.56752,92.75677,375.19911,92.75677,373.83979Zm0,0c-.00936.20214-.02773.395-.03673.58777l-.20223,3.49919c.09193.00918.18386.00918.27533.00918C92.76577,376.56752,92.75677,375.19911,92.75677,373.83979Zm0,0c-.00936.20214-.02773.395-.03673.58777l-.20223,3.49919c.09193.00918.18386.00918.27533.00918C92.76577,376.56752,92.75677,375.19911,92.75677,373.83979Zm0,0c-.00936.20214-.02773.395-.03673.58777l-.20223,3.49919c.09193.00918.18386.00918.27533.00918C92.76577,376.56752,92.75677,375.19911,92.75677,373.83979Zm0,0c-.00936.20214-.02773.395-.03673.58777l-.20223,3.49919c.09193.00918.18386.00918.27533.00918C92.76577,376.56752,92.75677,375.19911,92.75677,373.83979Z"/><path fill="#f4648a" d="M98.21205,379.91039c-1.95655-.08256-3.92155-.156-5.86874-.19277h-.01837a.48274.48274,0,0,1-.44083-.349c-4.22471.25706-8.56864.47757-12.98622.63369-2.15832.08257-4.344.156-6.53908.21123q-.10965.23406-.19286.46839,6.59882.08252,13.19745-.01837,6.43338-.05525,12.867-.26643C98.221,380.23192,98.221,380.07579,98.21205,379.91039Zm1.95609-1.41433a1.06383,1.06383,0,0,0-.78072-.37645h-.0642q-3.265-.09657-6.53008-.18368c-.09147,0-.1834,0-.27533-.00918-.1103.00918-.2296,0-.3399,0-.10093,0-.19287,0-.2938-.00919-2.17669-.046-4.34392-.08275-6.52071-.10111q-5.99267-.08253-11.98489-.01837c-.08293.18368-.1565.35827-.2296.53267-.2758.62451-.54213,1.249-.7901,1.8828q-.10965.23406-.19286.46839,6.59882.08252,13.19745-.01837,6.43338-.05525,12.867-.26643c-.00946-.16522-.00946-.32135-.01837-.48675-.00946-.22041-.00946-.45-.01837-.67043l1.12954,1.12963c-.36727.00918-.72553.01837-1.0928.02755.10093,2.87468.27533,5.76763.42246,8.72477l.569,10.332c-4.90415-.26634-9.67954-.49594-14.37282-.66116-4.69291-.17449-9.31227-.294-13.90425-.35817q-2.1766-.04147-4.35339-.05511c-.1744.78055-.3399,1.56128-.50493,2.34192q2.90658.01377,5.78572-.04592c4.72065-.07357,9.40456-.193,14.00555-.36745,4.61935-.16532,9.14723-.39492,13.53735-.66125l.2938-4.91342c.10084-1.653.20177-3.343.2847-5.06037.156-3.16838.3399-6.40113.42246-9.67063.01837-.248.01837-.50512.02737-.76236A1.02591,1.02591,0,0,0,100.16814,378.49606Z"/><path fill="#f4648a" d="M91.88411 369.09168c-.03673-3.00316-.1654-5.99714-.25733-9.0002-.1193.00918-.2476.00918-.37627.00918.09193 2.8654.27534 5.76744.42246 8.71559l.248 4.46332C91.92094 371.8836 91.91148 370.48764 91.88411 369.09168zm1.2673-10.938H93.1425a1.05 1.05 0 00-.744-.3399h-.0552c-.43183-.00909-.8632-.02746-1.295-.03673-2.10322-.0642-4.19689-.11939-6.30011-.16531a2.29327 2.29327 0 00-.12867.19295c-.5233.72544-1.02869 1.46934-1.51526 2.21334-.07356.09175-.12876.18368-.19286.27542 2.76419-.04582 5.51938-.11939 8.28394-.19277a.11671.11671 0 00.05519-.00918c-.01837-.38582-.02783-.77145-.03674-1.15718l1.12954 1.12954c-.239.00918-.47757.01846-.71653.01846-.1283.00918-.2476.00918-.37627.00918v.00918c.09193 2.8654.27534 5.76744.42246 8.71559l.248 4.46332.257 4.64718.06456 1.22146c-.12876-.00918-.248-.00918-.37673-.01846-4.77584-.25706-9.42293-.47756-13.99655-.64287-1.57936-.05511-3.15928-.11012-4.72028-.15613-.2758.62451-.54213 1.249-.7901 1.8828 2.19506-.05519 4.38076-.12866 6.53908-.21123 4.41758-.15612 8.76151-.37663 12.98622-.63369q.27581-.01392.55113-.02764l.02737-.45.00946-.11939.04574-.84483.20223-3.49919c.009-.19277.02737-.38563.03673-.58777v-.03665c.10094-1.46034.18341-2.92968.2476-4.43594.147-3.04908.3309-6.15317.42237-9.29418.00946-.11021.00946-.22032.00946-.33981.01837-.26633.01837-.53267.02737-.79891A1.05054 1.05054 0 0093.15141 358.15366zM580.8847 212.11019l6.24492.248 6.9799.1744 13.95936.22042q6.97077.09657 13.95045 0c2.13095-.02755 4.25254-.055 6.383-.101.00937-.88157.01837-1.76333.00937-2.645q-3.19644-.06888-6.39241-.101c-3.857-.0642-7.72344-.055-11.58089-.01828q-.06861-4.36712 0-8.71567c.03682-3.12255.16549-6.245.26642-9.36756l6.25429.23869 6.9799.18368 3.48973.0551c-.09193-.84492-.18387-1.68975-.29371-2.52559l-3.196.05511-6.9799.18368-6.97991.26633-.05511.00919a.72793.72793 0 00-.69779.75317c.10984 3.37961.257 6.7685.30316 10.1482.04573 2.91141.03628 5.81345 0 8.71567-.487.0091-.97359.0091-1.46062.0091l-13.95936.2205-6.9799.18368-6.97045.27552h-.0552a.72168.72168 0 00-.69816.753c.1013 3.37979.25742 6.76867.29416 10.14828.05474 3.389.05474 6.76868-.01837 10.15756a.46238.46238 0 00.4592.46838h.01837q3.11308.06888 6.24491.21124c.1103 3.15919.2386 6.31857.27534 9.47785.05519 3.3797.05519 6.76849-.009 10.14829v.01836a.45065.45065 0 00.44983.45l.01837.00918c4.67491.08257 9.3862.35818 14.14367.505 4.757.22041 9.52341.22041 14.23516.13776 3.04889-.04583 6.08888-.11021 9.092-.19277.08247-.60624.17441-1.2031.26634-1.80934-3.46236-.11011-6.888-.18368-10.29514-.23878-4.592-.08256-9.12886-.07338-13.67511.13785-4.39912.14685-8.83507.404-13.2983.505q-.09628-4.83537-.00946-9.67063c.03674-3.13182.1655-6.25428.26634-9.37692l6.25437.24806 6.97091.17449 13.95936.22042c4.03194.0551 8.0728.07347 12.10465.01836.1103-.96431.20177-1.91954.2848-2.88385-4.13279-.055-8.26557-.03674-12.38945.01836l-13.95936.22042-6.97091.17459-6.9799.27542h-.05474a.64809.64809 0 00-.2206.0552c-2.07539.09175-4.15115.16522-6.24491.21114q-.0828-4.83535-.00946-9.67072C580.6551 218.35529 580.7834 215.23265 580.8847 212.11019zM469.54708 284.50742h-.06419c-4.65609-.147-9.30318-.25715-13.95936-.29389q-5.92407-.09657-11.84769-.01846l.19287-3.37961c.1103-1.6623.21123-3.343.28479-5.06036.1654-3.41644.37664-6.90635.4592-10.43308a1.10162 1.10162 0 00-1.06506-1.12045h-.06457c-4.64718-.14685-9.30327-.25715-13.95045-.303q-6.98412-.09642-13.95935 0l-13.95082.22042-6.97945.17449-6.97991.27552h-.04619a.74134.74134 0 00-.70717.753c.1103 3.389.25743 6.76867.30317 10.15756.04619 2.902.03673 5.81345 0 8.71549-.48657.00928-.9736 0-1.46016.00928l-13.95982.22032-6.97045.18368-6.9799.26634-.0552.00918a.72206.72206 0 00-.69771.75318c.10084 3.3796.25688 6.76849.29371 10.14819.0551 3.389.0551 6.76858-.009 10.15747v.01837a.46281.46281 0 00.44983.45h.01837c2.07576.03674 67.934.45 69.96365.5143 4.75739.21123 9.52387.22042 14.22569.13785 4.72065-.07347 9.40457-.18377 14.00556-.36745 4.61981-.16522 9.13823-.39481 13.53735-.66115l.28479-4.91351c.10984-1.653.21123-3.34288.29371-5.06037.16549-3.41644.36726-6.90625.45029-10.42371A1.09634 1.09634 0 00469.54708 284.50742zm-81.42479-9.02784c.03674-3.12264.165-6.24519.27534-9.37683l6.24537.248 6.97945.18368 13.95082.22042c4.65618.0551 9.30327.06428 13.95935-.00928 4.28892-.03673 8.58711-.13776 12.876-.26633.10084 2.87467.26633 5.76753.41346 8.72477l.49594 8.9911c-.58787.00928-1.16637 0-1.74533.00928l-13.95935.22032-6.97091.18368-.32107.00918c-1.736-.03673-3.48082-.08265-5.20731-.11011-.86366-.00919-1.7175-.01837-2.57179-.02755-4.27982-.12867-8.55927-.2296-12.83909-.26634-3.85745-.06438-7.71445-.05519-11.5809-.02764C388.08556 281.28385 388.0761 278.38162 388.12229 275.47958zm25.08151 29.14064c-2.16778-.04592-4.344-.08257-6.5118-.10093-4.65609-.07348-9.30327-.06429-13.95935-.00928l-13.95036.22042-6.97991.18377-6.97991.27542h-.05519a.64643.64643 0 00-.22014.05511c-2.06639.08274-4.15116.16531-6.236.21132-.06456-3.22357-.06456-6.44715-.01837-9.67081.04574-3.12255.1745-6.245.27534-9.36765l6.25437.23878 6.97045.18378 13.95982.22032q6.97077.09643 13.95045-.00918 6.21253-.055 12.41672-.25706h.46857c.09147 2.87449.257 5.76744.40409 8.71558l.248 4.41749C413.24054 301.48858 413.23108 303.059 413.2038 304.62022zm41.80543.56022c-4.69338-.1745-9.31273-.2938-13.90471-.35818-4.592-.09183-9.13824-.08265-13.675.13776-1.97446.05511-6.41041-.12857-6.72248-.13776l-.06456-.00918q-3.26448-.0963-6.52025-.1744c-.02783-1.39606-.03683-2.78284-.03683-4.1788.08257-1.451.1745-2.91123.248-4.39912.14667-3.04908.31216-6.16244.413-9.29409.43192 0 .8633-.00918 1.29513-.00918 1.552-.02755 3.09509-.06438 4.63772-.10112l6.93417.18378 13.95935.22032q6.97077.09643 13.95082-.00918c4.29782-.03665 8.58664-.13776 12.87556-.26625.1013 2.87449.26633 5.76744.41346 8.72477l.5695 10.332C464.4779 305.57544 459.70205 305.34584 455.00923 305.18044zM616.20624 456.05477c0 .16531.009.32134.009.48665l-.46819-.47747c.156 0 .3027-.00918.45919-.00918-.00946-.33063-.00946-.65216-.00946-.9735-.04573-2.90223-.03673-5.79509.00946-8.69731.03674-3.11337.165-6.245.26634-9.36756l-.72553-.02764.7529-.76218c-.00937.26633-.01837.52339-.02737.78982l6.25391.23869 6.97091.18368 6.45615.101q0-1.30857-.05511-2.61743l-6.401.101-6.97091.18368-6.97944.26633-.0552.00918a.71969.71969 0 00-.69817.744c.1013 3.38879.25743 6.77768.29417 10.15738.02736 1.62556.03673 3.2604.03673 4.88587 0 1.26748-.00937 2.544-.02773 3.82062 0 .47747-.009.96432-.01846 1.451a.4606.4606 0 00.45029.46839h.01837c4.67445.09193 9.38574.36745 14.14321.5143q2.094.09657 4.188.13785c.16494-.75308.32107-1.50626.45919-2.26853-1.68075.02755-3.35251.08265-5.0239.15622C625.10542 455.6965 620.67847 455.95374 616.20624 456.05477zM620.81614 475.42366l-13.95936.21124-5.06055.13775-1.91936.046-6.97045.27542h-.05519a.54563.54563 0 00-.248.0552.71252.71252 0 00-.4502.698c.00937.2296.00937.45.01837.67961.1013 3.15.2296 6.31857.2758 9.47786.02736 1.57046.03673 3.14083.03673 4.71128 0 1.80925-.01837 3.62767-.0551 5.437a.46244.46244 0 00.4592.46838h.01836c4.62872.09175 9.30327.35817 14.01446.505a37.84662 37.84662 0 003.48082-2.08476c-1.23993.02756-2.48886.06429-3.72878.12867-4.40812.13767-8.83461.404-13.3073.505 0 .15622.00891.32144.00891.47766l-.46811-.46848c.156 0 .30317-.00918.4592-.00918-.06456-3.22358-.05519-6.44706-.00946-9.67063.0462-3.13182.1745-6.25428.2758-9.37692l-.72554-.02746.04574-.04592h.00937l.6978-.70717c-.009.248-.01837.48675-.02737.73472v.04583l6.24491.24806 6.97991.17449 13.95936.22042c1.85562.02746 3.71041.04582 5.57494.04582.13767-.22032.257-.44073.37673-.66115.28433-.5143.56013-1.0286.82646-1.55218.1193-.23879.248-.48675.36727-.73472Q624.37966 475.36856 620.81614 475.42366z"/><path fill="#f4648a" d="M627.78714 455.11791q-5.79967-.0963-11.59036-.03664c-.30307.00918-.60623.00918-.89993.00918-.48657.00918-.9826.00918-1.46953.01828l-13.95045.2205-6.97991.18368-6.9799.27552h-.04574a.72957.72957 0 00-.70717.753c.1103 3.3798.25743 6.76868.30317 10.14829.01837 1.62556.03673 3.25112.03673 4.886 0 1.75405-.01836 3.50819-.0551 5.2716a.461.461 0 00.4502.46838h.01791c2.07585.03674 4.16061.1193 6.25437.21123.25743 0 .52376.01837.78073.02756h.00937c.22023.00918.44983.01836.67043.02755 2.13995.09175 4.27945.18368 6.42878.248 4.76647.22041 9.52386.22041 14.23515.13766 4.188-.06428 8.3665-.156 12.47192-.31216.28433-.5143.56013-1.0286.82646-1.55218-.1103 0-.21123-.00919-.32153-.00919-4.70228-.18368-9.31263-.30307-13.90462-.36726-3.88482-.07357-7.7329-.08275-11.57189.04582-.6978.02765-1.405.05511-2.11213.09184-2.35119.07357-4.71128.18378-7.08084.2848-2.06639.09175-4.13279.1744-6.21755.22032 0 .15613.00937.32144.00937.47766l-.478-.46838c.15649 0 .31262-.00928.46865-.00928-.0641-3.23275-.0641-6.44714-.00946-9.6799.0462-3.12246.175-6.2451.26643-9.36756l-.72562-.02764.75336-.75309c-.00937.25716-.01837.52349-.02774.78073l6.25428.23879 6.97991.18358 13.95045.22042q6.98483.09657 13.95982 0 3.11295-.02756 6.24491-.101a1.33423 1.33423 0 00.0462-.202c.16494-.75308.32107-1.50626.45919-2.26853a1.0984 1.0984 0 00.03674-.16531C632.30556 455.1822 630.0463 455.13637 627.78714 455.11791zM530.02361 106.04454c-.01846-1.55209-.03683-3.10418-.03683-4.65636 0-1.35005.00946-2.7.02783-4.05922.009-.47757.01837-.96441.02737-1.442a.44914.44914 0 00-.44984-.46838h-.01836c-4.67492-.09184-9.3952-.36727-14.14368-.51421-3.444-.15622-6.87852-.20214-10.29514-.18377h-.4682c-.12867 0-.25742 0-.37672.00918-.47757 0-.95514.00918-1.42334.01837-.12866-.00919-.25733 0-.37663 0-.43137.00918-.86329.00918-1.29512.01837-1.53363.02764-3.06727.05519-4.592.09193h-.05464q-4.71138.09628-9.35893.27552c-4.60989.16531-9.13777.39491-13.53689.652l-.09193 1.55218-.19286 3.37042c-.10084 1.65321-.21124 3.343-.28471 5.06037-.165 3.41644-.36726 6.90635-.4592 10.4239a1.11655 1.11655 0 001.06544 1.12963h.0641c4.64718.13766 9.30327.248 13.95045.29379q6.98483.1102 13.95981.00928l13.95036-.22042 6.97991-.18377 6.97991-.27543h.05519a.72783.72783 0 00.69771-.75308C530.21638 112.81313 530.0698 109.42415 530.02361 106.04454zm-1.20319 10.14829c.00946-.25715.01836-.52358.02782-.78073l-6.25437-.23879-6.97991-.18358-13.95036-.22042q-6.98412-.09657-13.95981 0-6.43323.06888-12.86656.27552c.01837.38564.02737.77136.03683 1.148l-1.12072-1.12054c.35836-.00909.72563-.01828 1.08389-.02746-.09193-2.86549-.26633-5.76753-.41346-8.72477l-.49593-8.9911-.07311-1.34086c4.90406.26624 9.6799.48665 14.36336.65206 2.89332.11021 5.74944.202 8.5871.26633 1.78169.04583 3.55438.07347 5.31761.10093.73454.00919 1.46953.02756 2.20406.02756 3.848.046 7.65925.01836 11.48-.16522 4.39913-.13776 8.83507-.4041 13.30776-.50521 0-.156-.00937-.32135-.00937-.47757l.46857.46838c-.156 0-.30317.00919-.4592.00919.009.33071.009.65206.009.97359.04619 2.902.03673 5.80418-.009 8.7064-.03674 3.12246-.1655 6.2451-.26634 9.36756l.72554.02755z"/><path fill="#f4648a" d="M504.03316,85.7296c-.01846-1.23983-.02783-2.48894-.03683-3.72869-.27579-.02755-.56-.0551-.83583-.08275,0,1.26748-.01846,2.54406-.03683,3.81144-.03673,3.01225-.165,6.01541-.257,9.01857.4682-.00919.94577-.01837,1.42334-.01837C504.1892,91.73583,504.0699,88.73267,504.03316,85.7296Zm0,0c-.01846-1.23983-.02783-2.48894-.03683-3.72869-.27579-.02755-.56-.0551-.83583-.08275,0,1.26748-.01846,2.54406-.03683,3.81144-.03673,3.01225-.165,6.01541-.257,9.01857.4682-.00919.94577-.01837,1.42334-.01837C504.1892,91.73583,504.0699,88.73267,504.03316,85.7296Zm0,0c-.01846-1.23983-.02783-2.48894-.03683-3.72869-.27579-.02755-.56-.0551-.83583-.08275,0,1.26748-.01846,2.54406-.03683,3.81144-.03673,3.01225-.165,6.01541-.257,9.01857.4682-.00919.94577-.01837,1.42334-.01837C504.1892,91.73583,504.0699,88.73267,504.03316,85.7296Zm0,0c-.01846-1.23983-.02783-2.48894-.03683-3.72869-.27579-.02755-.56-.0551-.83583-.08275,0,1.26748-.01846,2.54406-.03683,3.81144-.03673,3.01225-.165,6.01541-.257,9.01857.4682-.00919.94577-.01837,1.42334-.01837C504.1892,91.73583,504.0699,88.73267,504.03316,85.7296Zm0,0c-.01846-1.23983-.02783-2.48894-.03683-3.72869-.27579-.02755-.56-.0551-.83583-.08275,0,1.26748-.01846,2.54406-.03683,3.81144-.03673,3.01225-.165,6.01541-.257,9.01857.4682-.00919.94577-.01837,1.42334-.01837C504.1892,91.73583,504.0699,88.73267,504.03316,85.7296Zm0,0c-.01846-1.23983-.02783-2.48894-.03683-3.72869-.27579-.02755-.56-.0551-.83583-.08275,0,1.26748-.01846,2.54406-.03683,3.81144-.03673,3.01225-.165,6.01541-.257,9.01857.4682-.00919.94577-.01837,1.42334-.01837C504.1892,91.73583,504.0699,88.73267,504.03316,85.7296Zm0,0c-.01846-1.23983-.02783-2.48894-.03683-3.72869-.27579-.02755-.56-.0551-.83583-.08275,0,1.26748-.01846,2.54406-.03683,3.81144-.03673,3.01225-.165,6.01541-.257,9.01857.4682-.00919.94577-.01837,1.42334-.01837C504.1892,91.73583,504.0699,88.73267,504.03316,85.7296Zm.2937,9.78093c-.009-.25715-.01836-.50521-.03682-.76236.00946-.00919.00946-.00919,0-.01837-.10084-2.994-.22014-5.99713-.25688-9.0002-.01846-1.23983-.02783-2.48894-.03683-3.72869-.27579-.02755-.56-.0551-.83583-.08275,0,1.26748-.01846,2.54406-.03683,3.81144-.03673,3.01225-.165,6.01541-.257,9.01857-.00936.11939-.01836.23878-.01836.35817l.72562.02765-.753.753c.009-.25715.018-.52339.02737-.78064l-.36727-.01827-5.87811-.2296h-.05464l-6.92481-.1745-13.95035-.2205c-4.65655-.0642-9.30373-.07338-13.95982,0q-6.43323.06888-12.867.27551c.01882.38582.02782.76237.03682,1.148l-1.12026-1.12044c.35836-.00919.72563-.01837,1.08344-.02756-.09148-2.87449-.27534-5.77671-.42237-8.72477l-.56914-10.34114c1.46016.08274,2.90186.15612,4.33465.2296-.83546-.17441-1.67139-.3489-2.50722-.54186-.67943.03683-1.34977.08266-2.0202.11939l-.28479,4.91352c-.1103,1.6623-.21123,3.352-.2847,5.06027-.1655,3.42571-.37673,6.91562-.4592,10.433a1.09565,1.09565,0,0,0,1.065,1.12044l.06456.00919c4.64718.13785,9.30327.248,13.95045.294,3.94892.06429,7.89831.06429,11.84723.02755.1193,0,.248,0,.36727-.00918.579,0,1.16636-.00919,1.74532-.01837l13.95035-.21123,6.97945-.18368.20223-.00919,5.96067-.23878.8081-.02755h.05511a.73542.73542,0,0,0,.70716-.75318C504.33623,95.7585,504.32686,95.639,504.32686,95.51053Zm-.2937-9.78093c-.01846-1.23983-.02783-2.48894-.03683-3.72869-.27579-.02755-.56-.0551-.83583-.08275,0,1.26748-.01846,2.54406-.03683,3.81144-.03673,3.01225-.165,6.01541-.257,9.01857.4682-.00919.94577-.01837,1.42334-.01837C504.1892,91.73583,504.0699,88.73267,504.03316,85.7296Zm0,0c-.01846-1.23983-.02783-2.48894-.03683-3.72869-.27579-.02755-.56-.0551-.83583-.08275,0,1.26748-.01846,2.54406-.03683,3.81144-.03673,3.01225-.165,6.01541-.257,9.01857.4682-.00919.94577-.01837,1.42334-.01837C504.1892,91.73583,504.0699,88.73267,504.03316,85.7296Zm0,0c-.01846-1.23983-.02783-2.48894-.03683-3.72869-.27579-.02755-.56-.0551-.83583-.08275,0,1.26748-.01846,2.54406-.03683,3.81144-.03673,3.01225-.165,6.01541-.257,9.01857.4682-.00919.94577-.01837,1.42334-.01837C504.1892,91.73583,504.0699,88.73267,504.03316,85.7296Zm0,0c-.01846-1.23983-.02783-2.48894-.03683-3.72869-.27579-.02755-.56-.0551-.83583-.08275,0,1.26748-.01846,2.54406-.03683,3.81144-.03673,3.01225-.165,6.01541-.257,9.01857.4682-.00919.94577-.01837,1.42334-.01837C504.1892,91.73583,504.0699,88.73267,504.03316,85.7296Zm0,0c-.01846-1.23983-.02783-2.48894-.03683-3.72869-.27579-.02755-.56-.0551-.83583-.08275,0,1.26748-.01846,2.54406-.03683,3.81144-.03673,3.01225-.165,6.01541-.257,9.01857.4682-.00919.94577-.01837,1.42334-.01837C504.1892,91.73583,504.0699,88.73267,504.03316,85.7296Zm0,0c-.01846-1.23983-.02783-2.48894-.03683-3.72869-.27579-.02755-.56-.0551-.83583-.08275,0,1.26748-.01846,2.54406-.03683,3.81144-.03673,3.01225-.165,6.01541-.257,9.01857.4682-.00919.94577-.01837,1.42334-.01837C504.1892,91.73583,504.0699,88.73267,504.03316,85.7296Z"/><path fill="#f4648a" d="M504.2443,86.01421l-.2206-4.0133-.02737-.4501v.4501c.009,1.23975.01837,2.48886.03683,3.72869.03674,3.00307.156,6.00623.25688,9.0002.1193-.00918.24805-.00918.37672-.00918C504.57483,91.85531,504.39143,88.96227,504.2443,86.01421Zm0,0-.2206-4.0133-.02737-.4501v.4501c.009,1.23975.01837,2.48886.03683,3.72869.03674,3.00307.156,6.00623.25688,9.0002.1193-.00918.24805-.00918.37672-.00918C504.57483,91.85531,504.39143,88.96227,504.2443,86.01421Zm0,0-.2206-4.0133-.02737-.4501v.4501c.009,1.23975.01837,2.48886.03683,3.72869.03674,3.00307.156,6.00623.25688,9.0002.1193-.00918.24805-.00918.37672-.00918C504.57483,91.85531,504.39143,88.96227,504.2443,86.01421Zm0,0-.2206-4.0133-.02737-.4501v.4501c.009,1.23975.01837,2.48886.03683,3.72869.03674,3.00307.156,6.00623.25688,9.0002.1193-.00918.24805-.00918.37672-.00918C504.57483,91.85531,504.39143,88.96227,504.2443,86.01421Zm0,0-.2206-4.0133-.02737-.4501v.4501c.009,1.23975.01837,2.48886.03683,3.72869.03674,3.00307.156,6.00623.25688,9.0002.1193-.00918.24805-.00918.37672-.00918C504.57483,91.85531,504.39143,88.96227,504.2443,86.01421Zm0,0-.2206-4.0133-.02737-.4501v.4501c.009,1.23975.01837,2.48886.03683,3.72869.03674,3.00307.156,6.00623.25688,9.0002.1193-.00918.24805-.00918.37672-.00918C504.57483,91.85531,504.39143,88.96227,504.2443,86.01421ZM560.04591,92.691c-.42246-.1744-.84483-.33062-1.27621-.48675-.03682.96432-.07356,1.93791-.10139,2.90213l.72554.02765-.7529.753.02736-.78064-6.24491-.24787-6.97991-.1745-13.95936-.2205c-4.64718-.0642-9.30372-.07338-13.95081,0q-6.19918.0551-12.39836.25715c-.15613,0-.31216.00918-.4682.01836.01837.38582.02737.76237.03674,1.148l-.37664-.37645-.7529-.744c.23851-.00919.47757-.01837.71608-.01837.12875-.00919.24805-.00919.37672-.00919v-.01836c-.09193-2.86531-.27533-5.75835-.42246-8.70641l-.2206-4.0133-.02737-.4501v.4501c-.27579-.02755-.56-.0551-.83583-.08275v-.89993c-.02737.29388-.04574.59686-.0552.89993-.07356,1.16646-.13766,2.35119-.19286,3.53583-.14658,3.05826-.33044,6.16254-.42237,9.29418-.009.1103-.009.2296-.009.3399-.01837.26633-.01837.53258-.02783.79891a1.08828,1.08828,0,0,0,.31262.78073,1.052,1.052,0,0,0,.75291.33971l.05519.00919c.248.00918.50494.01837.7529.01837,4.40858.12857,8.79834.2296,13.20646.27561,3.85745.06429,7.72381.06429,11.59026.02755.29416,0,.59686,0,.891-.00918.48656,0,.9825-.00919,1.46952-.01837l13.95936-.21123,6.97991-.18368,6.97045-.27552h.05519a.73517.73517,0,0,0,.70717-.75318Q560.1011,94.28911,560.04591,92.691ZM504.2443,86.01421l-.2206-4.0133-.02737-.4501v.4501c.009,1.23975.01837,2.48886.03683,3.72869.03674,3.00307.156,6.00623.25688,9.0002.1193-.00918.24805-.00918.37672-.00918C504.57483,91.85531,504.39143,88.96227,504.2443,86.01421Zm0,0-.2206-4.0133-.02737-.4501v.4501c.009,1.23975.01837,2.48886.03683,3.72869.03674,3.00307.156,6.00623.25688,9.0002.1193-.00918.24805-.00918.37672-.00918C504.57483,91.85531,504.39143,88.96227,504.2443,86.01421Zm0,0-.2206-4.0133-.02737-.4501v.4501c.009,1.23975.01837,2.48886.03683,3.72869.03674,3.00307.156,6.00623.25688,9.0002.1193-.00918.24805-.00918.37672-.00918C504.57483,91.85531,504.39143,88.96227,504.2443,86.01421Zm0,0-.2206-4.0133-.02737-.4501v.4501c.009,1.23975.01837,2.48886.03683,3.72869.03674,3.00307.156,6.00623.25688,9.0002.1193-.00918.24805-.00918.37672-.00918C504.57483,91.85531,504.39143,88.96227,504.2443,86.01421Zm0,0-.2206-4.0133-.02737-.4501v.4501c.009,1.23975.01837,2.48886.03683,3.72869.03674,3.00307.156,6.00623.25688,9.0002.1193-.00918.24805-.00918.37672-.00918C504.57483,91.85531,504.39143,88.96227,504.2443,86.01421Zm0,0-.2206-4.0133-.02737-.4501v.4501c.009,1.23975.01837,2.48886.03683,3.72869.03674,3.00307.156,6.00623.25688,9.0002.1193-.00918.24805-.00918.37672-.00918C504.57483,91.85531,504.39143,88.96227,504.2443,86.01421Z"/><path fill="#f2195c" d="M137.73921 448.1189a27.27938 27.27938 0 01-3.268-15.93775 51.04471 51.04471 0 014.25019-15.90259c2.17279-5.046 4.67621-9.87841 7.04419-14.77941 2.36609-4.90369 4.88214-9.73267 7.31707-14.60206 4.94385-9.708 10.18274-19.26647 15.3396-28.859l7.78-14.36658 7.8382-14.338q7.8827-14.31666 16.36737-28.29847 4.24814-6.984 8.62885-13.88671a75.04388 75.04388 0 0110.24481-12.9535 68.809 68.809 0 0112.90167-10.34021 50.106 50.106 0 0115.287-6.35266 29.34511 29.34511 0 018.327-.72937 21.19767 21.19767 0 018.02423 2.39136 26.35482 26.35482 0 016.60212 5.02271 28.35022 28.35022 0 014.68518 6.77294l.01037.021.00385.01355 1.20868 4.23792-.19086.05981-1.42627-4.16968.014.03406a26.75021 26.75021 0 00-11.42841-10.957 19.893 19.893 0 00-7.597-1.979 14.95267 14.95267 0 00-1.96869.02454c-.66034.05115-1.32263.05383-1.98.14282l-1.9693.29724c-.65808.084-1.29895.28724-1.94879.4242a48.498 48.498 0 00-14.59644 6.44519 66.76766 66.76766 0 00-12.47717 10.09827 82.14977 82.14977 0 00-10.00318 12.60192q-4.4382 6.84486-8.78021 13.75232-8.66619 13.8252-17.04224 27.8396c-2.75909 4.69031-5.51031 9.38733-8.1361 14.15467l-3.94348 7.14831-3.80317 7.224c-5.0581 9.64014-9.72729 19.47608-14.4779 29.26807-2.42047 4.87646-4.75983 9.79345-7.24915 14.63586-2.434 4.86939-5.00567 9.68079-7.20526 14.61a51.91131 51.91131 0 00-4.61529 15.39026 33.09746 33.09746 0 00.055 8.03674 25.20191 25.20191 0 002.35284 7.70862zM276.23622 302.0282c1.8642 4.37475 3.50189 8.83288 4.995 13.34143 1.50489 4.50525 2.81812 9.07568 3.97754 13.689 1.12409 4.62134 2.08777 9.28772 2.77411 13.99659a121.61369 121.61369 0 011.31323 14.19628L286.447 343.33228c-.99292-4.6167-2.02966-9.21717-3.17871-13.79432-1.11169-4.5863-2.3341-9.14868-3.52759-13.72619C278.5348 311.2373 277.314 306.66064 276.23622 302.0282zM527.96455 430.20959a67.07639 67.07639 0 01-6.85406 8.12745c-1.21958 1.28869-2.50388 2.51123-3.78434 3.73742-1.28854 1.22034-2.58645 2.42017-3.92495 3.59973l.08319-.90686c5.70041 6.5448 11.28332 13.18641 16.86935 19.82544q4.16839 4.99659 8.26407 10.0531c2.777 3.35035 5.19037 6.96521 8.61975 9.49317l-.75677.10388c3.89788-4.74231 7.78891-9.48987 11.58435-14.31274l2.8403-3.6222a5.1633 5.1633 0 00.61334-.87475.8833.8833 0 00-.05545-.822 7.869 7.869 0 00-1.52-1.55042c-2.31689-2.03589-4.47989-4.23352-6.61566-6.44922-4.24973-4.45666-8.21234-9.16089-12.39868-13.61194a80.39972 80.39972 0 00-13.57782-12.06543.94794.94794 0 01-.33109-1.17334l.0102-.02209c1.47876-3.276 3.016-6.5249 4.44625-9.8208l2.10291-4.96216c.72427-1.644 1.40308-3.30688 2.05991-4.97876 2.73245-6.646 5.18386-13.4 7.562-20.18115 2.32837-6.79932 4.38333-13.68848 6.28-20.62464.94821-3.46862 1.801-6.96325 2.59063-10.47277.80127-3.50672 1.518-7.03724 2.08713-10.59046l.19888.021a166.93638 166.93638 0 01-3.617 21.35425c-1.58017 7.05407-3.58328 14.00537-5.72135 20.912-1.13562 3.431-2.23727 6.87732-3.512 10.26062l-1.86859 5.09143-2.02249 5.032c-1.29862 3.37536-2.83161 6.65271-4.26959 9.9685-1.48493 3.29541-3.07639 6.54187-4.609 9.81409l-.32084-1.19531a64.74386 64.74386 0 017.22467 5.90979c2.26111 2.12817 4.35868 4.40271 6.41163 6.70227 4.07531 4.62817 7.82943 9.48425 11.9226 14.0343a79.78773 79.78773 0 006.427 6.53479 8.10172 8.10172 0 011.64715 1.75781 1.55061 1.55061 0 01.06049 1.39173 5.473 5.473 0 01-.70673 1.00329l-2.85632 3.6095c-3.80005 4.81933-7.50452 9.71387-11.20212 14.61389a.53839.53839 0 01-.73669.118l-.02036-.01416a28.51572 28.51572 0 01-4.92984-4.43457l-4.28125-4.9259q-4.25249-4.92736-8.41125-9.932c-5.53086-6.68445-11.06479-13.36633-16.48124-20.145l-.01117-.01391a.6394.6394 0 01.09439-.89331c2.71479-2.223 5.35331-4.57154 7.931-6.96778a77.74448 77.74448 0 007.30447-7.62427zM458.32448 223.79907a4.34623 4.34623 0 001.89605 1.35132 1.52588 1.52588 0 00.76233-.06164 5.54807 5.54807 0 00.94068-.4032c.67309-.34143 1.38116-.773 2.12268-1.1861a19.2016 19.2016 0 012.41571-1.186 6.93869 6.93869 0 01-1.41767 2.40124 7.5916 7.5916 0 01-2.21808 1.75488 4.54843 4.54843 0 01-1.521.48395 2.6696 2.6696 0 01-1.79425-.40582A2.9233 2.9233 0 01458.32448 223.79907zM349.9684 354.67871A85.18281 85.18281 0 01366.237 350.4342a61.14622 61.14622 0 0116.90808-.574c.70978.04932 1.40839.22583 2.11261.33643a15.061 15.061 0 012.14179.46105 36.64471 36.64471 0 013.96264 1.65552c2.53955 1.21106 5.02521 2.49268 7.50214 3.79407 4.94092 2.62415 9.86255 5.26489 14.849 7.78442 2.49566 1.25391 4.95691 2.58179 7.47717 3.76758 1.25519.60486 2.52124 1.1836 3.79071 1.75257l1.91852.83654c.32141.13806.6474.28455.98.44422a2.92577 2.92577 0 011.06049.79162 4.81266 4.81266 0 01.52221 1.10755l.3963.98559a1.94011 1.94011 0 01.1294.77478 1.5394 1.5394 0 01-.302.86927 2.396 2.396 0 01-1.23865.81665 12.91026 12.91026 0 01-4.46466.21948 44.09819 44.09819 0 01-8.41413-1.56311c-2.76586-.9104-5.25921-2.14527-7.83349-3.09448a29.38056 29.38056 0 00-7.81848-1.92249 109.1819 109.1819 0 00-16.51776.5061l.64556-.39648a12.54561 12.54561 0 01-2.27209 2.25952 17.31959 17.31959 0 01-2.58508 1.693 21.00928 21.00928 0 01-5.72827 2.0575l-1.48829.27637c-.49841.07006-1.00055.10876-1.49951.16406-.99664.13953-2.00207.098-2.99957.13794-.99835.003-1.99323-.10681-2.9848-.15857l-2.94861-.4104.10449-.00794-3.1723.77527-.05646-.19189 3.08685-1.0658.03486-.012.07006.004 2.9264.16906c.9754-.025 1.94879-.01013 2.91632-.06066.9646-.09705 1.93628-.1117 2.88379-.30371.47509-.08155.95294-.14588 1.42376-.24061l1.39722-.34606a22.37766 22.37766 0 005.249-2.175 15.67787 15.67787 0 002.2909-1.62012 11.19172 11.19172 0 001.84643-1.94666l.24121-.3435.40467-.053c2.79962-.36731 5.58587-.65356 8.40087-.81726a60.16916 60.16916 0 018.51612-.02136 28.69521 28.69521 0 018.3728 2.1394c2.644 1.04065 5.15241 2.33545 7.68012 3.21924a36.70621 36.70621 0 003.94549 1.0144c1.34277.28992 2.69611.53711 4.04535.69873a11.82221 11.82221 0 003.86249-.01379 1.15363 1.15363 0 00.52087-.24634c.04279-.04187.08136-.10888.01459-.34643-.06982-.24634-.23926-.65894-.33386-.97681a4.49177 4.49177 0 00-.30323-.80981 4.96765 4.96765 0 00-1.49932-.92847l-1.877-.93445c-1.2511-.6322-2.49707-1.27356-3.72827-1.93921l-7.38672-3.9613q-7.39142-3.93585-15.04138-7.35584c-2.54047-1.1499-5.08673-2.29333-7.65369-3.3435-1.27972-.50623-2.57611-1.06873-3.81677-1.43738a5.85116 5.85116 0 00-.9483-.2063l-1.00836-.17358c-.675-.10083-1.33735-.2677-2.02344-.3097a71.01817 71.01817 0 00-16.49475.19312q-4.13325.44751-8.23236 1.25708c-2.73908.48852-5.46088 1.09631-8.165 1.78015z"/><path fill="#f4648a" d="M328.17853,223.33062a58.33607,58.33607,0,0,1,6.978-12.8481,9.221,9.221,0,0,1,3.779-3.47292c2.2543-.89553,4.83371-.0337,6.90809,1.22349s3.92679,2.91582,6.17888,3.81667a10.41879,10.41879,0,0,0,8.37955-.33319,24.00516,24.00516,0,0,1,4.08925-2.0798c1.4788-.40538,3.37685.03637,3.9256,1.46815.47,1.22652-.18874,2.77356.57813,3.84,1.11484,1.55044,3.57081.29829,4.80835-1.15608a23.80627,23.80627,0,0,0,2.68935-26.16623c-3.1715-5.80252-8.64092-9.963-14.17638-13.5807-5.30576-3.46768-10.81908-6.60465-16.32827-9.73914a38.55311,38.55311,0,0,0-8.15536-3.83054c-4.82838-1.4023-9.97994-.86642-14.97713-.31161-4.08622.4535-8.239.92886-12.02282,2.53688-4.50951,1.91652-8.20092,5.3133-11.77128,8.66921a84.109,84.109,0,0,0-9.85449,10.427,24.55664,24.55664,0,0,0-4.32537,8.27338c-.84493,3.1557-.76365,6.47332-1.06938,9.72582-.45608,4.85336-1.7827,9.72885-.96606,14.53473,1.42443,8.38267,9.17983,15.4692,7.9264,23.87915a41.75458,41.75458,0,0,1,20.11143-9.34772c2.14932-.35717,4.64433-.74491,5.73088-2.63341a6.8505,6.8505,0,0,0,.53818-3.77654q-.21118-4.40363-.42255-8.80734a17.80366,17.80366,0,0,1,.48951-6.49912,6.04929,6.04929,0,0,1,4.523-4.27542c2.36965-.33328,4.66472,1.35372,5.75339,3.48468a15.16605,15.16605,0,0,1,1.20631,7.00535C328.69063,216.59142,328.47058,219.82482,328.17853,223.33062Z"/><path fill="#f25787" d="M356.248 206.35194c-1.08839-2.13105-3.38346-3.81787-5.75348-3.48477a6.05032 6.05032 0 00-4.52292 4.27542 9.63261 9.63261 0 00-.26863 1.01124c.0462.02728.09505.05152.14079.07926 2.07448 1.2571 3.92651 2.91582 6.17907 3.81667a10.382 10.382 0 005.42781.59053A14.03557 14.03557 0 00356.248 206.35194zM311.59807 214.32766c-.8171-4.80588.5098-9.68137.96588-14.53473.30582-3.2525.22427-6.57021 1.06956-9.72591a24.55949 24.55949 0 014.32519-8.27338 84.12091 84.12091 0 019.85431-10.427c3.57045-3.35591 7.262-6.7526 11.77146-8.66921.66685-.28323 1.348-.52082 2.03544-.73986a24.7861 24.7861 0 00-3.787-1.48532c-4.82829-1.40239-9.97994-.86642-14.97731-.31161-4.08613.4535-8.23912.92886-12.02254 2.53679-4.51 1.91661-8.201 5.3133-11.77146 8.66921a84.08661 84.08661 0 00-9.8544 10.427 24.554 24.554 0 00-4.32565 8.27338c-.84484 3.1557-.76365 6.47341-1.06948 9.72591-.45607 4.85336-1.78251 9.72885-.966 14.53473 1.42471 8.38258 9.17993 15.4693 7.9266 23.87915a41.755 41.755 0 0120.11142-9.34781c2.12691-.35331 4.58794-.74188 5.692-2.58042C314.61335 222.40065 312.31148 218.52685 311.59807 214.32766zM374.59523 208.23309c-2.07448-1.25729-4.65389-2.119-6.90818-1.22349a7.83051 7.83051 0 00-3.135 2.61523c1.47-.37774 3.3234.06732 3.8647 1.48009.4704 1.22652-.18836 2.77356.57841 3.84 1.11484 1.55053 3.57091.2982 4.80817-1.15608a21.84263 21.84263 0 002.80139-4.21709C375.94408 209.1097 375.28219 208.64912 374.59523 208.23309z"/><path fill="#f4648a" d="M205.93611,443.28978s-18.80959,8.45547-31.27941,3.72324c0,0-21.65839-16.72438-25.61607-20.44352s-10.03642-13.01763-14.22352-15.55038-15.53059-4.97248-16.47845,2.47493.62919,9.47543,10.20676,24.86584,4.5633,9.49774,11.69077,19.73749,14.32315,16.3081,17.38671,28.46964,12.46955,8.07281,17.55862,3.39544,15.5045-13.98624,42.09289-21.64454"/><path fill="#f2195c" d="M166.853 474.77313a32.03287 32.03287 0 00-14.03887.406 40.42136 40.42136 0 014.80877 11.38792c3.06356 12.16157 12.46953 8.07282 17.55862 3.39543a72.95952 72.95952 0 018.08973-6.56781A32.00853 32.00853 0 00166.853 474.77313zM141.50562 417.729c-2.36958-2.87351-4.735-5.52816-6.68852-6.70984-4.18709-2.5328-15.53057-4.97251-16.47843 2.475-.70941 5.574-.00353 8.11334 4.41152 15.49024A32.27673 32.27673 0 00141.50562 417.729z"/><polygon fill="#f2195c" points="198.575 446.116 208.123 471.226 221.06 467.072 209.817 441.092 198.575 446.116"/></svg>