<svg xmlns="http://www.w3.org/2000/svg" viewBox="0 0 1000 1000"><defs><clipPath id="a"><path fill="#ff747f" d="M355.17,880.72c-62.52-7.36-155.3-30.83-148.36-110.24L194.18,536.21C144.64,333.35,858,195.7,844.7,431.35c3.55,79.25,10.25,158.41,11.44,237.73C862.72,837.18,482.24,900.29,355.17,880.72Z"/></clipPath><clipPath id="b"><path fill="none" d="M187,951.87c739.33-55,732.75,226.91,710.78-459.42C158.43,547.41,165,265.51,187,951.87Z"/></clipPath><clipPath id="c"><path fill="#df1929" d="M849.79,471.48c-25.11,182.6-539.49,280-650.64,143.73a3.41,3.41,0,0,1-3.62-3.36l-2.82-63.59c-.21-5-.44-10-.66-15a80.78,80.78,0,0,1-2.8-16.62,95.5,95.5,0,0,1,1.3-17.46c0-2.09-.86-4.75,1.11-6.22C247.9,331.49,765.08,219.23,844.13,396c.13,3.53,3.67,9.68,0,11.93q2.1,30.39,4.2,60.79A3.43,3.43,0,0,1,849.79,471.48Z"/></clipPath><clipPath id="d"><path fill="#ffeee2" d="M279.46,862.5c-17.17-2.84-33.15-12.63-45.1-24.9a2,2,0,0,1-2-1.91q-2-31.32-3.91-62.65c-1.44-67.31-14.17-135.89-9-202.75h0c.94-2.39,3.25-4,5-5.82l0,0c192.36-81.8,393.75-143.93,591.37-213.12l-.11,0c7.59,1.29,36.38,32,27.93,37.92-30.38,13.06-61.89,21.51-93.39,31.77C587,471.5,426.81,522.94,267.91,583.52c-6.11,1.67-.53,11.48-1.56,16.55Q276.7,728.84,287,857.64C287.15,861.59,283.25,863.62,279.46,862.5Z"/></clipPath><clipPath id="e"><rect width="648.19" height="476.92" x="202.95" y="372.16" fill="none"/></clipPath><clipPath id="f"><path fill="#ffeee2" d="M819,360.55c2,21.61-4.53,42.91-8.21,64-6.81,38.13-37.5,44.73-71.18,46-28.43,1.47-57.49,2.1-84.62-7.83a83.72,83.72,0,0,1-21.13-10.86c-5.22-4.6-4.62-3.73-9.69.25,27.41,21.2,62.06,27.87,95.94,29.08H720c73.92-.35,26.06,16.71-11.51,18.89,6.45,3.52,12.63,7.51,19.19,10.84,7.83,2.63,14.8,9.65,2.21,11.61l.25,0C678.84,539,622.58,508,602.06,459.69c-9.34,47.78-43,88.3-82.26,115.56-4.88,1.9-32.29,25.49-30.5,11.57,6.81-14.18,13.93-28.29,19.2-43.16a1.34,1.34,0,0,1-.07.18c1.41-4,2.64-8,3.88-12-8,2.94-61.94,6.19-62.81-3.54,2.74-8.09,15.39-9,22.26-12.68,17.24-6.16,33.42-14.89,49.23-24.05C392.57,553,352.35,389,446.52,331.59c39.71-17.29,77.67,23.88,108.78,43.87,8.16,6,16.58,11.73,23.09,19.55,13.82,22.08,14.34-16,40.47,2.15C647.58,319.66,794.62,240.47,819,360.55Z"/></clipPath><clipPath id="g"><rect width="438.46" height="259.07" x="380.15" y="291.72" fill="none"/></clipPath><clipPath id="h"><rect width="714.87" height="195.21" x="132.82" y="336.46" fill="none"/></clipPath></defs><g data-name="Layer 8"><path fill="#ffeee2" d="M933.35,723.61c.26,46.56-30.53,76.46-68.11,98.67-47.5,27.34-102.31,37.62-156.11,44.12-31.23,3.78-62.53,7.47-93.35,13.92-40.58,8.34-80.12,21-120.67,29.42-46.27,9.08-91.05,25.1-138,30.6-21.81,3-43.89,2.82-65.79.85-30.71-2.3-61.53-7.82-89.82-20.35l.2.1C180.48,911,162.8,893,154,871.24c-7-17.7-6.85-37.83,1.11-55.17,9.24-22.42,25.6-41.19,45.1-55.38,17.26-12.49,37.83-25,59.26-27.74,2.78.34,2.58,4.71-.27,4.7-14.46,2.05-27.71,9-40.25,16.11,19.37-6.15,38.57-12.75,57.36-20.53,27.12-9.79,54.39-19.23,82-27.54,104.92-31.49,211.53-59.06,320.38-72.83,34.78-5,69.74-9.35,104.94-9.37,27-.38,54.54,2.69,79.54,13.52,14,5.94,28,13,39.32,23.32C920.2,676.46,932.53,699.45,933.35,723.61Z"/><path fill="#ff747f" d="M355.17,880.72c-62.52-7.36-155.3-30.83-148.36-110.24L194.18,536.21C144.64,333.35,858,195.7,844.7,431.35c3.55,79.25,10.25,158.41,11.44,237.73C862.72,837.18,482.24,900.29,355.17,880.72Z"/><g clip-path="url(#a)"><path fill="#fff" d="M164.27 764.21c-9.42-8.83 14.86-22.6 19.84-30.18 32.85-32.85 66.22-65.19 99.66-97.44q43.67-42.78 88.57-84.26c6.83-7 17.86 3.77 10.79 10.74-67 62.35-132.54 126.26-197.34 190.86C179.92 758.86 172.73 771.41 164.27 764.21zM203 899.09a7.65 7.65 0 01-.49-10.23l-.17.19c107.21-113.64 195-244.73 312.28-349.27 7.86-6.32 24.34-32.49 30.09-12-2.23 9.11-12.52 14.51-18.23 21.67-22.77 22.83-46.23 45-68.83 68-86 84.13-151.48 186.32-235.11 272.39C216.93 894.52 211.09 906.21 203 899.09zM397.34 926.82c-12.64-7.73 16-35.09 19.64-45.46 64.28-97.12 123.57-200.21 190.57-294.73 25.74-.14-10.16 36.06-13.66 46q-23.26 36.4-46.52 72.83Q489.67 795.83 432 886.19C423.68 894.51 409.57 933.71 397.34 926.82zM640.94 878.88c-14.29-6.2 15.87-43.72 18.64-55.46q20.08-40.3 40.22-80.6l-.43.87q33.63-67.53 67.37-135l-.07.13q13.38-26.85 26.8-53.69c-.15.29-.3.58-.44.87L824 494c6.69-8.3 12-38.13 24.88-33.93 14.26 6.31-15.79 43.53-18.57 55.33q-11.82 23.72-23.67 47.42l.44-.87q-13.39 26.87-26.81 53.72c.14-.29.29-.58.44-.87-1.76 3.51-3.5 7-5.26 10.53l.29-.57-.09.18.07-.15q-34.1 68.4-68.25 136.78l0-.08 0 0h0q-3 6.13-6.11 12.25c.08-.17.17-.33.25-.5l-.44.87c.06-.11.11-.21.16-.32q-14.88 29.88-29.8 59.72C664.09 842.73 653.85 884 640.94 878.88z"/><path fill="#df1929" d="M424.66 539.87c-.91 17.85-20.33 28.06-30 41.68l-51.62 56.67L189.68 806.58c-13.63 11.71-28.87 40.21-46.42 42.08-10.86.69-20.91-8.47-21.18-19.38.86-17.75 20.13-27.9 29.73-41.41 16.74-19.49 36.52-35.4 54.16-54.18 58.52-57.43 117-114.89 177.16-170.62 6.94-6.83-3.84-17.84-10.79-10.74-12.8 12.43-26.33 24.08-39.18 36.47l56.24-61.74C400.78 513.73 424.48 522.34 424.66 539.87zM559.42 537.31c-3.1 21.29-25.37 35.4-36.53 53.18l-62.08 76.68q-95.6 118.14-191.25 236.24c-12.65 12-20 34.45-38.73 37-14 1-25.24-14.28-19.93-27.34C314 780.3 419.71 648.54 542.47 533.11c7-6.78-3.89-17.94-10.79-10.75-10.2 10.78-20.83 21.14-31.36 31.59 10.29-10.93 17.58-25.7 30.09-34.08C542.94 513.46 559.21 523.24 559.42 537.31zM696.84 525.71a20.43 20.43 0 01-3.49 15.14L413 982.59C397.31 1004 364.73 981.1 379.91 959c7.36-9.51 12.71-24.17 21.27-31.18a7.71 7.71 0 006.57-3.77C475.9 812.92 553.23 704.92 616.91 592c-3.65-8.16 9.4-18 12.72-26.4 13.64-16.17 23.64-50.47 43.82-56.53C684.16 507.06 695.24 514.91 696.84 525.71zM887.73 452.71c3.63 11.27-4.85 21.23-8.64 31.32.15-.34.3-.67.46-1q-59.64 130.69-119.3 261.4l.73-1.6q-4.4 9.61-8.78 19.24l0-.09L701.4 873.38l1.08-2.37q-2.19 4.77-4.36 9.56l1.08-2.38c-5.08 21.52-32.91 27.68-41.27 5.21-3.74-12.44 6.21-23.46 10.17-34.67L667 851.11c33.83-76.54 70.87-151.52 108.6-226.19l-.2.39q27.44-55 54.86-109.93c2.42-11.45 36.83-54.18 15.48-55.92C851.12 437.19 878.15 429.06 887.73 452.71z"/><path fill="#301ca3" d="M468.06 902.14c-3.77-4.54 13.43-23.56 15.72-29.91L623.06 648c1.44-1.9 2.49-6 5.53-4.54 4.57 2.48-13.33 23.9-15 28.81q-26.14 42.06-52.28 84.14-45 72.42-90 144.84A2.4 2.4 0 01468.06 902.14zM267.15 909.12c-3-4.92 14.28-19.54 17.13-25.24l72.64-91 74-92.68c5.08-4.24 15.8-24.62 21.17-22.71 3 4.91-14.37 19.65-17.21 25.35q-37 46.33-74 92.66l-72.66 91C283 890.86 272.76 910.82 267.15 909.12zM176.54 818.69c-2.66-4.58 11.87-14.28 14.53-18.81l59-62.59 45-47.76c4.5-3.06 14.71-19.72 19.22-16.89a2.4 2.4 0 010 3.35l-73.66 78.17-44.2 46.91C191.93 804.16 181 821.6 176.54 818.69zM717.66 838.37c-4.34-4.51 12.22-29.12 14-36.62q59.46-130.47 118.87-261c1.07-2.77 5.63-1.11 4.4 1.77q-46.6 102.27-93.17 204.54l-31 68.15C727.13 820.12 723.09 838.7 717.66 838.37z"/></g><path fill="#df1929" d="M849.79,471.48c-25.11,182.6-539.49,280-650.64,143.73a3.41,3.41,0,0,1-3.62-3.36l-2.82-63.59c-.21-5-.44-10-.66-15a80.78,80.78,0,0,1-2.8-16.62,95.5,95.5,0,0,1,1.3-17.46c0-2.09-.86-4.75,1.11-6.22C247.9,331.49,765.08,219.23,844.13,396c.13,3.53,3.67,9.68,0,11.93q2.1,30.39,4.2,60.79A3.43,3.43,0,0,1,849.79,471.48Z"/><g clip-path="url(#c)"><path fill="#ff9ea7" d="M266.26 471c1.26 4.74 1.07 13.51-5.93 12.22-6.45-.86-12.92-2.61-18.49-6-9.75-5.8-6.61-16 4.87-13.78-.64-5.46 1.27-15.52 8.74-13.45C261.13 452.7 264.65 465.14 266.26 471zM356.61 416.24c.05 17.73-16.14 4.82-22.9-1.07-2.82-2.34-8.46-8.41-3-10.86 3.5-.48 6.93 1.69 10.17 2.81C341.91 379 357.2 402.36 356.61 416.24zM453.92 379.57c.23 7.9-4 9.27-10.36 5.6-5.67-2.67-12-5.57-15.3-11.19-3.4-7.8 6.81-7.9 11-4.07-1.44-4.83 3.95-14.83 9.87-12.5C453.48 360.18 453.54 374.41 453.92 379.57zM543.56 325.36c2.29 4.58.38 15.27.22 20.74-.61 8.45-3.79 13.16-12.38 8.42-4.87-2.31-9.45-5.94-11.83-10.88-1.68-2.95-.41-7.43 3.48-7.29s7.73 1.57 11.57 2.44c0-4.66 0-10.17 3.48-13.7A3.53 3.53 0 01543.56 325.36zM631.8 318.06c3 25.89-42.7-9.25-15.57-5.28a2.64 2.64 0 011.09-1.08c-.27-2 2.2-2.67 3.7-3.25C627.23 306.2 631.11 312.76 631.8 318.06zM605.82 370.11c.49 9.74-4.42 8.23-11.28 5.31-5.17-1.95-10.48-3.88-14.85-7.35-10.68-9.18-.06-13.34 8.65-5.57C595.81 340.16 605.74 354.14 605.82 370.11zM696.92 344c1.09 6.51-2.2 12.95-9.17 8.06-5.24-3-10.79-5.78-14.84-10.34-8-8.92.24-14.56 9.07-9C689 316.08 696.19 335.64 696.92 344zM512.74 391.57c4.88 32.4-14.6 17.73-27.36 3-4.9-9.77 2.92-12.65 10-5.92 7.19-20.8 16.5-18.08 17.35 3.07zM411.09 441.13c.48 4.69-.67 11.7-6.9 8.06-5.34-2.37-10.79-4.83-15.32-8.59-3.08-2.75-6.58-6.27-6.21-10.74.71-5.09 6.12-5.82 10.15-4.09C398.09 397.73 411.49 429.07 411.09 441.13zM339.62 480c1.55 14.85-20.26 6.21-26.55 1.26-3.44-2.51-7.33-7.86-3.75-11.75 4-2.44 9.24-.61 13.49.26-1-5-1.29-19.11 7.19-14.77C334.9 460.89 339 472.28 339.62 480zM307.47 544.62c2.25 9.59-3.62 8.77-10.46 6.15-6.75-2.27-13.68-5.14-18.75-10.3-3.39-2.82-4.52-9.84 1.27-10.26 3.92-.1 7.58 1.78 11.07 3.34.29-4.6 4.23-11.95 9.47-7.87C304.39 530.8 305.54 538.32 307.47 544.62zM412.47 499.84c-.25 16.59-25.14 5.52-30.93-1.93-2.71-2.76-2.77-8.47 1.94-8.84 5.33.09 10.29 2.92 15.27 4.63.29-3.89-.27-8.5 2.43-11.66a3.75 3.75 0 015.67.55A38.14 38.14 0 01412.47 499.84zM493.54 459.63c4 35.59-39.71-3.74-24.34-6.87 4 0 7.61 2.41 10.69 4.8C480.6 429.51 492.08 437.55 493.54 459.63zM596.25 429.56c1.68 24.66-18.45 4.6-24.51-4.92-2.1-2.69-4.53-9 .69-9.56 3.23.26 5.82 2.74 8.59 4.21.72-4.35.89-9.47 4.25-12.72 3.9-3 7 .52 7.52 4.5h0a138.36 138.36 0 013.4 17.94s0-.08 0-.12C596.19 429.11 596.23 429.34 596.25 429.56zM686.67 402.63c4.53 30.23-54.33-31.73-11.65-12.77-.14-3.5-1.27-18.63 5.52-14.15 2 3.13 2.09 7.09 3.08 10.59C684.8 391.71 686 397.13 686.67 402.63zM771 354.81c.69 10.78-.63 38.8-15.37 19.3-3.38-4.37-7.75-8.46-9.46-13.82.32-8.6 10.27 2 12.69 4.34.92-5.63 1.61-11.4 3.59-16.77.85-2.88 4.53-5.94 7-2.87C771.37 347.82 770.71 351.57 771 354.81zM347.3 594.17c.69 11.65-15.94 1.87-20.37-1.47-7.74-6.46-3.71-13.52 5.85-10.35.69-3.62 2.35-10.88 7.43-8.75C344.3 577.07 346.42 588.77 347.3 594.17zM432.78 554.68c1.24 9.37-.39 19.27-11.68 11.72-5.7-3.27-11.44-7.18-14.55-13.16-2.13-3.23-.57-7.9 3.82-7 4.2 1.13 7.6 4.29 10.78 7.12 1.18-3.54 1.47-11.7 6.29-11.81C432.4 542.52 431.89 550.72 432.78 554.68zM527.18 526.69c2.93 24.21-39.34-9.55-24.08-13 4.55.25 7.9 4.1 11.77 5.89.36-3.7 2.44-16.29 8.19-11.6C525.53 513.8 526.22 520.44 527.18 526.69zM597.51 495.76c.15 2.53.16 5.07.07 7.61v.11c0 7.19-1.91 14-10 8.2-5.82-3.68-11.36-8.14-15.22-13.92-2.53-3.33-4.45-9.93 1.19-11.13 5-.9 9.34 3 13 5.9.94-4 .58-10.26 5-12.18a3.58 3.58 0 013.83 2.07C597 486.62 597.09 491.3 597.51 495.76zM671.32 471.94c.42 5.44-2.4 12.19-8.76 8.37-4.5-2.16-9.35-4.7-11.81-9.27a4.81 4.81 0 017.39-6c-.07-4.36 1.93-13.58 8-10.15C670.82 458.93 670.78 466.24 671.32 471.94zM743.74 450.89c1.29 22.87-29.29-6.41-19.65-9.85 2.59-.47 4.68 1.83 6.43 3.42C737.44 427.29 743.68 438.76 743.74 450.89zM811 425.53c.48 18.49-19.72 8.87-24.61-1.46s6.24-9 12.35-5.66l-.17-.07a2.38 2.38 0 01.82.61C805.82 403.35 810.76 415.56 811 425.53zM841 425.45c-3.58-4.5-11.31-11.58-9.63-17.74 2.22-4.43 7.65-.56 9.75 2.08.59 6 1.28 12 2.11 18.06C842.51 427.06 841.77 426.25 841 425.45zM427.34 598.55a2.05 2.05 0 01-.88 3.47c3.83 1.53-3.74 9.76-4.75 12.25-2.92 3.71-9.43 19.56-14.08 9.54-1.52-3.87-2.21-8.21-4.63-11.65-1.34-1.11-3.13-1.51-4.58-2.48-2.7-1.2-4.69-5.4-1.59-7.28 2.91-1.57 5.84 1.12 8.72 1.21H407c-.88-4.6 2.08-10 6.63-11.41C418.91 591.25 423.35 595.75 427.34 598.55zm-25 8.58l0-.09-.68-.26zM493.35 579.84c.24 9.65-16.91.26-20.46-2.7-7.36-6.44.87-11.21 7.59-8 .13-4.07 1.42-15.9 7.72-10.86 2 3 2.28 6.75 3.25 10.13A71.44 71.44 0 01493.35 579.84zM591.17 563.37c1.15 9.18-21.3 2.73-24.59-1.06-3-2.53-6.59-6.2-5.53-10.44 1.42-3.77 6.65-4 9.54-1.83 5.15-17.59 9.92-9.54 15.6 1.86C588.12 555.57 590.67 559.16 591.17 563.37zM664.86 524.53c-.72 22.12-11.3 20.82-21.9 4.48-4.92-9.21 3.56-12 9.42-5.12C655 507.47 665.75 506.51 664.86 524.53zM740.48 502.37c.69 5.15-1.5 10.48-7.47 7.49-4.07-1.75-8.45-3.6-11.16-7.26-4-5.62 1.07-10.33 6.87-7.33.67-3.36 2.53-9.32 7-8.21C739.25 488.6 739.84 498.69 740.48 502.37zM801.73 467.38c.3 5.94-1.68 11.67-2.41 17.52-1 2.82-.32 12.61-3.84 12.56-2.08 0-3-2.26-4-3.72-.87-2.15-4.57-4.64-2.52-7-4.42-4.21-9-9.16-10.5-15.22-.53-7.28 6.51-4.17 10.21-1.91C789.71 461.39 800.67 456.22 801.73 467.38zM838.09 451.42c1 12.14-2.79 26.45-11.94 8.21-8.67 2.51-21.2-9.74-7.62-13.45C815.52 433.87 837.7 436.2 838.09 451.42zM306.67 610.68c1.88 6.81-6.84 34.48-15.5 20-2.08-4.26-4-8.79-4.32-13.56-.5-6.25 5-7.34 7.93-2.07C296.91 611.3 303.65 604.05 306.67 610.68zM308.19 660.71c.53 3.9-2.25 7.34-3.89 10.66-1.55 2-3.56 9.49-6.71 5.4-2.16 3.82-5.28-1.47-6.74-3.33-8.53-10.78-3.36-30.46 8.1-10.74C300.68 659.84 306.53 655.82 308.19 660.71zM347 639.93c-.83 14.65-12.32 23.84-19.47 6.19-3.06-9.43 5.67-11.49 9.38-2.89C339.16 640.7 344.77 634.18 347 639.93zM380.52 624.59c-.3 17.28-5.83 20.78-17.7 7-3.61-4.15-6-10.15-5.13-15.64 3.21-5.45 9 .5 11.6 3.53C373.42 607.35 381 615.76 380.52 624.59zM388.94 668c.05 4.46-1.8 8.77-2.82 13.07-4.32 19.46-13.77 7-17.55-4.58-2.5-8.41 3.64-16.39 9.69-6.52C380.28 666.59 387.37 662 388.94 668zM424.84 636.23c1.71 2.66.4 6 .21 8.94-.56 3.75-.67 7.56-1.31 11.29-2.44 13.79-14.61-3.69-16.22-9.32-2.66-6.92 2.22-10.09 7.8-5.39C416.73 638.3 421 631.94 424.84 636.23zM477.2 606.44c-.24 4.89-2.5 9.48-3.43 14.27-1.35 3.42-1.1 13.57-5.32 14-7-2.65-16.59-11.23-17-19.25s10.59-9 15-4.12C467.7 607.87 474.83 600 477.2 606.44zM480.77 659.83c.4 5.52-.75 11-1 16.46.4 2.23 1.21 6.56-2.41 5.93a64.18 64.18 0 01-12.81-11c-6-7-.89-15 7.22-8.57.62-2.57 1.44-5.52 3.69-7.13C478.51 653.3 481.15 656.86 480.77 659.83zM523.14 626.29c.26 5.69-1.46 11.4-1.82 17.1-.09 5-2.15 9.1-6.87 4.37-4.62-4.44-10.33-9.71-10.91-16.43.3-4.85 5.82-4.5 8-1.12C513.19 626 520.4 620 523.14 626.29zM554.21 598.23c.2 9-2.65 32.53-14.05 15.88-3-4.37-6.69-8.83-7.59-14.16.25-7.22 9-3.2 10.51 1.24C544.31 595.89 552.68 589.89 554.21 598.23zM565.42 645.47c.78 5.33-.71 10.85-1.06 16.2-2 21.54-17.76-2.94-19.1-11.62-.28-1.93.85-4.33 3.1-4 3.1.6 4.61 4 7 5.77C556.85 648.5 561.89 639.47 565.42 645.47zM217.09 610.21c4.43 2.08 0 13.68-.3 17.73-.79 3.27-.21 7.2-2.14 10-2.44 2.1-4.28-1.28-5.34-3.14-3.33-5.68-6.94-11.44-8.31-18-1-2.65 1.43-5.72 4.18-4.08 2.4 1.22 3.59 3.85 4.94 6C211.63 616.25 213.23 609.29 217.09 610.21zm-2.78 9.15c-.59 1.35-1.12 2.72-1.57 4.11l.58 1C213.66 622.79 214 621.08 214.31 619.36zM212.85 627a2 2 0 01-2.11.32 2 2 0 01-1.1 0q1.23 2.25 2.54 4.44C212.39 630.17 212.58 628.57 212.85 627zm-4.65-2.36c0-.22.09-.45.15-.67-.72-1.27-1.43-2.55-2.18-3.81A39.17 39.17 0 00208.2 624.62zM218.46 570c-.4 4.88-2.51 9.56-4.37 14-2.65 6.29-6.33 3-9.17-1-3.1-4.09-7-8.24-7.66-13.52-.39-6 7.17-5.2 9.07-.93C209.94 565.76 217.92 563.13 218.46 570z"/><path fill="#ff9ea7" d="M213.2 636.45c-.82-1-1.35-2.23-2.09-3.29-2.66-.88-3-4.5-4.49-6.62-.82-1.6-2.51-4.14-.13-5.23a23.93 23.93 0 01-1.8-4.4 2.07 2.07 0 013.33-1.8c1.58 2.4 2.38 5.44 3.76 8 .52-2.16 1.85-5.88 4.45-3.28 1.14 2.18-1.61 6.68-1.84 9.3.61 2.2 2.69 4.38 2.13 6.71A2 2 0 01213.2 636.45zM603 602.66c.59 5.76-2.39 11.26-2.63 17-.82 3.68.61 8.43-2 11.42-3.09 2.87-11.21-9-12.69-11.48-4-5.82-3.13-17.05 6.07-11.85 1.29-2.28 2.37-4.78 4.27-6.63C598.33 598.69 602.46 598.76 603 602.66zM640.06 576c-.11 4.39-2.7 27.28-8.53 26.27a32.09 32.09 0 01-13.31-15.1c-2.85-8.63 6.3-7.74 10.92-3.86 1.23-4 2-9.3 6.09-11.46C638 570.73 640.44 573.29 640.06 576zM653.58 624.23c-.35 5.53.87 24.4-6 25.48-14.07-2.94-30.8-33.11-5.81-21a21.63 21.63 0 015-10.9C651.64 614 654.15 619.89 653.58 624.23zM688.18 579.14c.4 12.7 1.19 34.52-15.88 17.75-7.22-8-6.84-22.29 6.26-12 .35-4 1.15-8.42 3.85-11.53 1.33-1.55 4.09-1.63 5.14.27C688.4 575.32 688.09 577.31 688.18 579.14zM716.6 543.47c-.34 6.75.08 29.44-11.49 18.6-3.32-3.23-7.2-7.87-6.24-12.8 1.23-3.64 5.48-2.18 7.66-.29 1-3.52 1.71-8.7 5.66-10C714.84 538.33 716.61 541.11 716.6 543.47zM729.18 593.7c0 6.49.18 13.1-1.33 19.47-1.35 5-6.27.46-8.68-1.18-10.28-5.88-14.27-24.46-.44-14.77.57-3.54 1.14-7.6 4-10C727.93 583.37 729.62 589.48 729.18 593.7zM757.83 559.83c2.5 23.6-31.24-5.94-20.6-13.29 3.9-1.33 7.31 2.34 10 4.65.63-4.05 1.83-14.27 8-10.83C758.42 544.35 757.35 554.58 757.83 559.83zM786.93 518.42c1.4 4.36-1.32 10.73-6.67 9s-9.13-7.09-10.89-12.32l0 .13c-2.08-5.88 2.21-6 6.52-4.29-.33-2.82-1-9.05 3.4-8.38C782.36 504.07 786.18 514.91 786.93 518.42zM813.41 562c.35 14.53-17.63-3.25-21.23-7.41-6.13-7.92.07-11.15 7.44-6.67a27.62 27.62 0 011.74-7.14c1.38-3.38 6.07-3.4 7.84-.35C812.2 547.06 812.69 554.76 813.41 562zM828.6 504c-.21 29.93-29.83 1.68-18-3.46 2.48-.21 4.56 1.59 6.89 2.15C818.2 481.92 827.53 487.29 828.6 504z"/></g><path fill="#ffeee2" d="M279.46,862.5c-17.17-2.84-33.15-12.63-45.1-24.9a2,2,0,0,1-2-1.91q-2-31.32-3.91-62.65c-1.44-67.31-14.17-135.89-9-202.75h0c.94-2.39,3.25-4,5-5.82l0,0c192.36-81.8,393.75-143.93,591.37-213.12l-.11,0c7.59,1.29,36.38,32,27.93,37.92-30.38,13.06-61.89,21.51-93.39,31.77C587,471.5,426.81,522.94,267.91,583.52c-6.11,1.67-.53,11.48-1.56,16.55Q276.7,728.84,287,857.64C287.15,861.59,283.25,863.62,279.46,862.5Z"/><g clip-path="url(#d)"><g clip-path="url(#e)"><path fill="#ff9ea7" d="M418.45 516.48c18.2 19.73-9.62 47-29 28.44C371.28 525.19 399.1 497.93 418.45 516.48zM351.44 513.66c18.2 19.73-9.62 47-29 28.44C304.27 522.37 332.09 495.11 351.44 513.66zM311.48 554.85c18.2 19.73-9.62 47-29 28.44C264.31 563.56 292.13 536.3 311.48 554.85zM237.9 569.44c18.2 19.73-9.62 47-29 28.44C190.73 578.15 218.55 550.89 237.9 569.44zM277.91 616.16c18.2 19.73-9.62 47-29 28.44C230.74 624.87 258.56 597.61 277.91 616.16zM239.28 666.84c18.2 19.73-9.62 47-29 28.44C192.11 675.55 219.93 648.29 239.28 666.84zM285.28 716.87c18.2 19.74-9.62 47-29 28.44C238.11 725.58 265.93 698.32 285.28 716.87zM246.37 759.94c18.2 19.73-9.62 47-29 28.44C199.2 768.65 227 741.39 246.37 759.94zM287.94 814.48c18.2 19.73-9.62 47-29 28.44C240.77 823.19 268.59 795.93 287.94 814.48zM845.15 378.32c18.2 19.74-9.62 47-29 28.45C798 387 825.8 359.78 845.15 378.32z"/></g></g><path fill="#ffeee2" d="M221.51 566.19h0a1.74 1.74 0 00.11-.18c0 .08-.09.16-.14.24zM283.3 865.5c-11-4.43-22.27-9.32-32.58-15.49-4.83-3.31-14.8-7.83-17.2-13-2.77-1.83.15-6 2.76-3.91 1.31 1.61 3.63 2.58 4.25 4.63 8.94 6.94 19.18 12 29.32 16.92a94.37 94.37 0 0013.3 5.47C286.06 860.88 287 865.31 283.3 865.5z"/><path fill="#ffeee2" d="M234.44 840.34a3.27 3.27 0 01-1.37-1.57l.06.14c-1.87-2.83 2.77-5.5 4.14-2.36C239.48 838.38 236.82 842 234.44 840.34zM200.7 752.92c.11-3.07 4.91-2.85 4.73.22S200.52 756 200.7 752.92zM819 360.55c2 21.61-4.53 42.91-8.21 64-6.81 38.13-37.5 44.73-71.18 46-28.43 1.47-57.49 2.1-84.62-7.83a83.72 83.72 0 01-21.13-10.86c-5.22-4.6-4.62-3.73-9.69.25 27.41 21.2 62.06 27.87 95.94 29.08H720c73.92-.35 26.06 16.71-11.51 18.89 6.45 3.52 12.63 7.51 19.19 10.84 7.83 2.63 14.8 9.65 2.21 11.61l.25 0C678.84 539 622.58 508 602.06 459.69c-9.34 47.78-43 88.3-82.26 115.56-4.88 1.9-32.29 25.49-30.5 11.57 6.81-14.18 13.93-28.29 19.2-43.16a1.34 1.34 0 01-.07.18c1.41-4 2.64-8 3.88-12-8 2.94-61.94 6.19-62.81-3.54 2.74-8.09 15.39-9 22.26-12.68 17.24-6.16 33.42-14.89 49.23-24.05C392.57 553 352.35 389 446.52 331.59c39.71-17.29 77.67 23.88 108.78 43.87 8.16 6 16.58 11.73 23.09 19.55 13.82 22.08 14.34-16 40.47 2.15C647.58 319.66 794.62 240.47 819 360.55z"/><g clip-path="url(#f)"><g clip-path="url(#g)"><path fill="#ff9ea7" d="M421.07 426.93c.51 26.9-38.08 29-40.54 2.24C380 402.27 418.62 400.16 421.07 426.93zM475.64 473.48c.51 26.91-38.08 29-40.54 2.25C434.59 448.82 473.18 446.71 475.64 473.48zM466.38 387.37c.51 26.91-38.08 29-40.54 2.24C425.33 362.71 463.92 360.6 466.38 387.37zM478.83 328c.5 26.9-38.08 29-40.54 2.24C437.78 303.33 476.37 301.22 478.83 328zM536.87 362.17c.5 26.91-38.09 29-40.54 2.25C495.82 337.51 534.4 335.4 536.87 362.17zM526.15 431.19c.51 26.9-38.08 29-40.54 2.24C485.1 406.53 523.69 404.42 526.15 431.19zM620.12 389.68c1 21.71-28 29.69-38.24 10.54-12 12.49-34 4.07-34.68-13.18-1-21.7 28-29.7 38.25-10.54C597.42 364 619.43 372.43 620.12 389.68zM577.65 461.77c.51 26.91-38.08 29-40.54 2.25C536.6 437.11 575.19 435 577.65 461.77zM626.75 441.36c.51 26.91-38.08 29-40.54 2.24C585.71 416.7 624.3 414.59 626.75 441.36zM579.43 516.18c18.19 19.74-9.62 47-29 28.45C532.26 524.89 560.07 497.64 579.43 516.18zM517.21 509.21c18.19 19.74-9.62 47-29 28.45C470 517.92 497.86 490.67 517.21 509.21zM656.25 481.64c18.2 19.74-9.62 47-29 28.45C609.08 490.35 636.9 463.1 656.25 481.64zM721.05 480.1c18.2 19.73-9.62 47-29 28.44C673.88 488.81 701.7 461.55 721.05 480.1zM705.73 439.35c.51 26.91-38.08 29-40.54 2.24C664.68 414.69 703.27 412.58 705.73 439.35z"/><path fill="#ff9ea7" d="M660.21 402.94c.51 26.91-38.08 29-40.54 2.25C619.16 378.28 657.75 376.17 660.21 402.94zM679.78 342.75c.5 26.91-38.08 29-40.54 2.25C638.73 318.09 677.32 316 679.78 342.75zM736.07 388.74c.5 26.9-38.08 29-40.54 2.24C695 364.08 733.61 362 736.07 388.74zM752.25 326.8c.5 26.9-38.08 29-40.54 2.24C711.2 302.14 749.79 300 752.25 326.8zM818.24 311c.5 26.9-38.09 29-40.54 2.24C777.19 286.29 815.78 284.18 818.24 311zM805.3 372.8c.51 26.91-38.08 29-40.54 2.25C764.25 348.14 802.84 346 805.3 372.8zM780.64 436.29c.51 26.9-38.08 29-40.54 2.24C739.6 411.63 778.19 409.52 780.64 436.29z"/></g></g><path fill="#301ca3" d="M586.52,451.8c4.73-1,9.27-3.27,14.21-1.81,11.13,2.3,21.46-1.31,22.18-14,.15-9.2-2.88-36.39-12.14-40.12-8.94-3.58-15.06,6.42-21.49,6.71-12,9.14-16.4,24.08-9.6,38.05a52.51,52.51,0,0,1,3.18,8.57A3.18,3.18,0,0,0,586.52,451.8Zm-1.59,4c-6.91-.83-6.17-9.29-9.19-14-5.19-10.81-4.27-24.78,3.12-34.37,2.34-2.49,5.41-7.83,9.22-7.32,1-1.92,3.78-2.27,5.37-3.72a38.78,38.78,0,0,1,8.67-4.49c12.06-3.59,17.56,4.93,20.49,15.24,2.95,9.9,6.18,25.26,3.15,35.21l0-.08c-4.92,14.1-17.72,12.93-29.91,11.32C592.15,453.9,588.77,456.43,584.93,455.78Z"/><path fill="#301ca3" d="M623.4 417.8c-8-3.19 14.45-16.21 17.67-17.46A116.32 116.32 0 01659.33 394c2.55-.21 8.74-3.67 9.59 0a2.06 2.06 0 01-1.74 2.29c-14.95 3.23-30.59 8.2-41.34 19.62A2.07 2.07 0 01623.4 417.8zM619.46 410.76c-6.82-3.27 21.08-26.15 24.78-28.35l-.21.15 7.29-4.92-.21.14a254.08 254.08 0 0135.18-18.49c10.29-3.9 20.87-7.62 31.74-9.44 2.57-.07 2.66 4 .05 4h0c-25.86 5.13-50 17.1-71.63 31.9l0 0h0l0 0A116.58 116.58 0 00626 404.26a38.73 38.73 0 00-3.67 5.05A2.13 2.13 0 01619.46 410.76zM715.54 471.54c-15.7 0-31.15-2.79-46.48-5.86-16-3-33.26-7.77-44.09-20.7-1.44-1.59-4-4.86-.54-5.75 2.41 0 3.12 3.12 4.76 4.49 12.79 13.4 32 16.4 49.46 19.65a204.26 204.26 0 0076.71 1.16c16.44-3.27 38-3.49 47-20.18v0c3.4-7.05 5.45-14.67 8-22.06.68-2.53 4.64-1.45 3.91 1.08-2.47 7.31-4.56 14.8-7.77 21.83l.05-.11-.12.24.06-.12c-8.26 17.89-30.09 19.75-47.24 22.8C744.76 470.49 730.19 472.14 715.54 471.54zM616.15 401.42c2-13.66 18.35-36.22 27.87-46.55q3.83-4.12 7.91-8c1.6-1.27 3.81-4.59 5.87-2.31 1.16 1.52-.25 2.9-1.47 3.77-2.24 2-4.37 4.15-6.48 6.3A121.78 121.78 0 00634.8 373l.15-.22c-4.52 7-9.15 14-12.61 21.57a26 26 0 00-2.13 7.05C620.24 404 616.13 404.05 616.15 401.42zM455.37 505.74c-17.4-1.77-36.26-9.4-43.66-26.38q-3.81-7.68-7.42-15.48a2 2 0 011.08-2.66A2.06 2.06 0 01408 462.3c8.28 17.6 11.77 29.21 31.83 35.93 11.81 4.32 24.5 4.16 36.86 3.17a150.87 150.87 0 0052.71-13c18.58-8.55 39-17.79 50.63-35.34l0 .08c1.51-3 6.88-.81 1.48 5.07a75.93 75.93 0 01-21.13 18.58 202 202 0 01-61 25.82C484.92 505.19 470.06 506.64 455.37 505.74zM574.63 429.48c-19.29-13-42.17-20-65.33-21.71 3.41-.13 4.31 4.15.71 4.27-5.84-1.48-12.26-1.8-17.68-4.44-2.44-1.68.08-4.85 2.49-4.52l-.28 0a166.64 166.64 0 0149.31 7.08l-.14-.05 6.21 2.17-.17-.06C552.2 412.9 587 427.74 574.63 429.48zM534.27 449c-2.7.19-5.92-2.55-3.48-5 6.6-4.18 14.71-5.82 22.22-7.8 7.73-1.51 15.94-2.49 23.7-.69 2.63 1.34.59 4.92-2 3.65-12.52-1.83-25.1 1.47-36.78 5.79 6.93-.78 13.8-2.11 20.66-3.34a2 2 0 01.55 4c-3.69.71-7.39 1.32-11.09 1.94C543.49 448.18 538.91 449.23 534.27 449zM572.81 417.92c-8.89-8.49-19.89-14.58-30.61-20.47-1.38-.95-3.43-1.22-4.3-2.73a2 2 0 012.66-2.66C553 398.63 565.9 405.52 576 415.43 577.64 417.49 574.42 420 572.81 417.92z"/><path fill="#301ca3" d="M661.68 441.07c-9.37-1.19-18.81-2.12-28.07-4l.26.06c-19.76-4.76-1.45-14.42 7.69-18a107.44 107.44 0 0116.3-4.84c2.4-.08 7.13-2.67 8 .73.13 3.17-4.14 2.3-6.19 3a119.7 119.7 0 00-12.36 3.3l.25-.09c-6.38 2.39-13.48 4.86-18.33 9.75 3.56 2.52 8.43 2.54 12.62 3.4 6.78 1 13.58 1.81 20.37 2.65C664.83 437.37 664.29 441.45 661.68 441.07zM489.77 591.88a2 2 0 010-3.74 45.56 45.56 0 004.62-1.94c3.09-1.56 6.06-3.34 9-5.09a226.15 226.15 0 0039.31-28.82l-.06.05c.14-.11.26-.24.4-.35l-.07.07c5.77-4.76 10.64-10.41 15.36-16.19a225 225 0 0018.94-24.33c5.63-8.46 9.22-18.05 13.32-27.31 3.46-8.32 6.68-16.78 8.41-25.66a30.3 30.3 0 00.65-4.34c.72-3.69 5.21-2.14 3.86 2.16-2.07 12.86-7.16 25-12.37 36.81-2.87 6.19-5.35 12.59-9 18.36A202.88 202.88 0 01563 536.69c-5.45 6.57-10.89 13.18-17.53 18.61l0 0a217.23 217.23 0 01-36.61 27.24C504 585.22 495 591.85 489.77 591.88zM474.78 536.46A100.74 100.74 0 01450.17 532l.13 0c-2.93-1.24-.62-5.24 2.06-3.56 6.62 2.12 13.59 3 20.47 3.84 10.61.51 21.36.53 31.83-1.44 2.35-.1 6.19-2.94 7.45.18.66 3.43-5.47 3.16-7.69 4C494.65 536.77 484.66 536.82 474.78 536.46z"/><path fill="#301ca3" d="M698.93 528.05c-11.7.25-23.07-3.2-34-7.09-11.56-3.75-22-10.08-31.62-17.38a86.81 86.81 0 01-16.27-14.65l.18.21a72.29 72.29 0 01-13.29-21.38c-1.19-4.08-3.31-8.38-3-12.67a2 2 0 013.9.92c2 11.45 7.85 21.94 15.51 30.57l-.18-.21c8 9.38 18.43 16.36 28.78 22.95 11.71 6.77 24.81 10.67 37.89 13.77 14.6 2.34 29.56.29 43.58-4.1l-.16 0 .25-.08h0a10.35 10.35 0 002.22-.94c3.69-1.19 4.08 3.49.47 4.29C722.16 525.94 710.56 528.38 698.93 528.05zM710.48 501.5a11.67 11.67 0 01-3.59-.44 2 2 0 011-3.85c4.79.63 9.66 0 14.43-.64a136.92 136.92 0 0031.17-9h0c.89-.38 1.76-.8 2.62-1.24 2.32-1.19 4.19 2.46 1.82 3.63s-4.68 2.11-7.07 3.07C738 497.8 724.3 501.51 710.48 501.5zM809.39 430.21c-2.72-1.26-.31-4.43 0-6.46 1.13-3.72 2.33-7.42 3.13-11.23a168 168 0 002-49.13l0 .27a76.82 76.82 0 00-1.72-9.75v0a149.26 149.26 0 00-4.49-14.36l.1.25c-2-5-3.8-10.1-7.09-14.37-2.87-3 0-6.34 2.46-3.68h0c3.8 5.1 6.29 10.91 8.5 16.84 2.85 7.93 5.36 16.07 6.26 24.48l0-.28a158 158 0 011 21.08v-.27c-.53 12.73-1.29 25.66-5.22 37.87C813.14 423.78 812.92 431.33 809.39 430.21z"/><path fill="#301ca3" d="M817.39 400.51a2.45 2.45 0 00.54 0h0c-2.55.54-3.39-3.46-.79-4 6.19-1.91 12.34-4.07 18.5-6.12 1-.36 2-.74 2.94-1.12 2.48-.87 3.8 3 1.3 3.85C832.45 395.69 825 398.56 817.39 400.51zM265.67 583.94a11.2 11.2 0 017.12-4.84l19.83-7.22 81.44-29.65 108.15-39.38c2.71-.47 7.61-4.39 9.08-1.1a2 2 0 01-1.27 2.57l-26.18 9.54-81.12 29.53L274.37 582.85C271.8 583.26 267.34 587 265.67 583.94z"/><path fill="#301ca3" d="M285.53 864.48L269.9 664.42q-2.76-35.31-5.51-70.61c-.35-4.16-.27-9 3.05-12 6.66 82 12.82 164.15 19.32 246.21l2.82 36.19C289.77 866.78 285.69 867.16 285.53 864.48zM390.87 606.85a2.05 2.05 0 011.29-3.53c6.92 0 13.83-.05 20.75-.22 56.85-1.42 113.41-9.85 168.58-23.49l-.26.07a734.74 734.74 0 0093-29.7l-.17.07a558.94 558.94 0 0065.08-30.69l-.17.1a377.67 377.67 0 0040.27-25.77l-.11.08c3.23-2.39 6.41-4.83 9.54-7.35s6.25-5.17 9.3-7.85a2 2 0 012.62 3.1c-2.66 2.33-5.34 4.64-8.08 6.87C687.88 569.85 521.78 608.66 390.87 606.85z"/><path fill="#301ca3" d="M358.62 679.32a444.55 444.55 0 01-58.68-8.38c-2.56-.57-1.65-4.57.91-4 7.1 1.57 14.28 2.85 21.46 4h-.06l.27 0h0A501.93 501.93 0 00389 676.79h.13a690.43 690.43 0 0091-4.23h-.07l.27 0h0a817.74 817.74 0 00106.35-19.12h0A738.15 738.15 0 00678.9 624l-.06 0a555.76 555.76 0 0065.77-30.93l-.23.13a386.81 386.81 0 0040.54-25.92l0 0c19.28-14.4 37.46-31 50.19-51.66l-.09.15a98.28 98.28 0 005.7-10.85c.7-1.19.82-2.88 2.11-3.59a2 2 0 012.78 2.54c-1.4 3.26-2.9 6.46-4.57 9.58C763.44 638.28 497.06 691.81 358.62 679.32zM212.85 561.76c-29.39-24.47-33.47-60-13.34-91.95C240 407.66 324.62 371.16 392.6 347.43c3.86-2.15 6.22 1.55 3.09 3.25-35.08 11.72-69.46 25.87-101.83 43.85l0 0A388.17 388.17 0 00252.41 421l.11-.08c-34.87 25.72-79.23 71.19-54.21 117.21a73.81 73.81 0 0011.05 14.72q3 3.09 6.24 5.89C217.55 560.49 214.78 563.57 212.85 561.76zM514.16 319.59a2 2 0 011.63-2.36c3.13-.54 6.27-1 9.41-1.46q16.18-2.41 32.47-4.2c38.13-4.17 76.6-5.63 114.9-3.14 2.58.21 2.27 4.3-.37 4q-12.18-.77-24.38-1.05h-.15a689.61 689.61 0 00-90.75 4.3c-10.51 1.19-21 2.54-31.47 4.11-3 .45-6 .89-8.93 1.39A2 2 0 01514.16 319.59zM846 476.5l-4.08-61.58q-.7-10.38-1.38-20.77a2.17 2.17 0 01.51-1.78 2 2 0 013.52 1.28c0 .65.09 1.3.13 2q2 30.08 4 60.15.67 10.29 1.36 20.57C850.19 478.92 846.1 479.15 846 476.5z"/><path fill="#301ca3" d="M192.32,611.65q-2.91-45.2-5.82-90.4c-.15-2.59,3.95-2.82,4.05-.17l4.17,64.7q.83,12.84,1.66,25.69C196.52,614.07,192.42,614.3,192.32,611.65Z"/><path fill="#df1929" d="M81.54,544.22c-6.21-2.42-15.46-24.87-15.24-31.61-.34-3.73,3.14-7.29,6.86-5.58,2.83,1.25,4.75,3.94,6.64,6.28,2.48-5.17,11.65-23.11,17.19-11.9,1,5.09-.35,10.4-.87,15.5C94.56,524.31,92.74,547.16,81.54,544.22Z"/><path fill="#301ca3" d="M540.81 205.81c-3 .07-3.11-4.71-.08-4.74 3.25-.39 6.53-.65 9.79-1a2.37 2.37 0 01.64 4.69C547.71 205.12 544.25 205.44 540.81 205.81zM564.88 203.73c-2.58-1-1.36-5.07 1.32-4.5l-.12 0h0l-.31 0a3 3 0 00.42 0l-.3 0c3.4-.31 6.79-.72 10.18-1.11a2.39 2.39 0 012.67 2c.07 4-5.46 2.62-8.07 3.36C568.75 203.51 566.77 204.21 564.88 203.73zM557.39 197c-3.89-.36-2.06-6.48-2.73-9.2a58.54 58.54 0 01-.18-6.62c.68-2.88 5.25-1.85 4.61 1.06a3.44 3.44 0 000-.45c.12 4.28.41 8.55.62 12.83A2.38 2.38 0 01557.39 197zM559.66 223.24c-3.27-.19-2.21-4.24-2.59-6.46.14-2.91-2.78-11.21 2.91-9.38 2 1.48 1.15 5.49 1.72 7.81C561.53 217.8 563.54 222.84 559.66 223.24zM241.92 335.68c-3 .07-3.12-4.71-.09-4.74 3.26-.39 6.53-.65 9.79-1a2.37 2.37 0 11.65 4.69C248.82 335 245.36 335.31 241.92 335.68zM266 333.6c-2.58-1-1.36-5.07 1.31-4.5l-.12 0h0l-.31 0a3 3 0 00.42 0l-.31 0c3.4-.31 6.8-.72 10.19-1.11a2.39 2.39 0 012.67 2c.07 4-5.46 2.61-8.07 3.35C269.86 333.38 267.88 334.08 266 333.6zM258.5 326.83c-3.89-.36-2.06-6.49-2.73-9.2a58.61 58.61 0 01-.18-6.62c.68-2.88 5.24-1.85 4.61 1.05a3.13 3.13 0 000-.44c.12 4.28.42 8.55.63 12.82A2.39 2.39 0 01258.5 326.83zM260.77 353.11c-3.28-.19-2.21-4.24-2.59-6.46.14-2.91-2.78-11.21 2.91-9.38 2 1.48 1.15 5.49 1.72 7.81C262.64 347.67 264.65 352.71 260.77 353.11zM116.13 662c-3 .06-3.12-4.72-.09-4.74 3.26-.4 6.54-.66 9.79-1a2.37 2.37 0 11.65 4.69C123 661.34 119.57 661.66 116.13 662zM140.2 660c-2.58-1-1.36-5.07 1.31-4.51l-.11 0h0l-.31 0a3 3 0 00.42 0l-.3 0c3.4-.31 6.79-.72 10.18-1.11a2.41 2.41 0 012.67 2c.07 4-5.46 2.62-8.07 3.35C144.07 659.73 142.09 660.43 140.2 660zM132.71 653.18c-3.89-.36-2.06-6.48-2.73-9.2a58.43 58.43 0 01-.18-6.61c.68-2.89 5.24-1.86 4.61 1a3.42 3.42 0 000-.44c.13 4.27.42 8.54.63 12.82A2.38 2.38 0 01132.71 653.18zM135 679.46c-3.28-.19-2.21-4.23-2.59-6.46.14-2.91-2.78-11.21 2.91-9.38 2 1.48 1.15 5.5 1.72 7.82C136.85 674 138.86 679.06 135 679.46zM910.06 437.31c-3 .07-3.11-4.71-.09-4.74 3.26-.4 6.54-.66 9.79-1.05a2.37 2.37 0 01.65 4.7C917 436.61 913.5 436.93 910.06 437.31zM934.13 435.23c-2.58-1-1.36-5.07 1.31-4.51l-.11 0h0l-.31 0a3 3 0 00.42 0l-.3 0c3.4-.3 6.79-.71 10.18-1.1a2.39 2.39 0 012.67 2c.07 4-5.46 2.62-8.07 3.35C938 435 936 435.7 934.13 435.23zM926.64 428.46c-3.89-.37-2.06-6.49-2.73-9.2a58.67 58.67 0 01-.18-6.62c.68-2.89 5.24-1.86 4.61 1.05a3.13 3.13 0 000-.44c.13 4.27.42 8.55.63 12.82A2.39 2.39 0 01926.64 428.46zM928.91 454.73c-3.27-.19-2.21-4.23-2.59-6.46.14-2.91-2.78-11.21 2.91-9.38 2 1.48 1.15 5.5 1.72 7.82C930.78 449.29 932.79 454.33 928.91 454.73zM894.24 583.92c-3 .07-3.12-4.71-.09-4.74 3.26-.39 6.53-.65 9.79-1a2.37 2.37 0 11.65 4.69C901.14 583.23 897.68 583.55 894.24 583.92zM918.31 581.85c-2.58-1-1.37-5.07 1.31-4.51l-.12 0h0l-.31 0a3 3 0 00.42 0l-.31 0c3.4-.31 6.8-.72 10.19-1.11a2.4 2.4 0 012.67 2c.07 4-5.47 2.62-8.07 3.35C922.18 581.62 920.2 582.32 918.31 581.85zM910.82 575.07c-3.89-.36-2.06-6.49-2.73-9.2a58.54 58.54 0 01-.18-6.62c.68-2.88 5.24-1.85 4.61 1a3.13 3.13 0 000-.44c.12 4.28.42 8.55.63 12.83A2.38 2.38 0 01910.82 575.07zM913.09 601.35c-3.28-.19-2.22-4.24-2.59-6.46.14-2.91-2.78-11.21 2.91-9.38 2 1.48 1.15 5.49 1.71 7.81C915 595.91 917 601 913.09 601.35zM157.49 308.55c-11.08 3.24-6.53 19.83 4.65 16.94C173.23 322.27 168.68 305.67 157.49 308.55zm-5.79 19.29c-13.95-11.13 1.63-31.88 16.16-21.7C181.92 317.28 166.38 338.15 151.7 327.84zM422.83 148.57c-10.4 4.83-3.63 20.44 7 16.12 10.63-4.75 3.68-20.68-7-16.11l.09 0zM420.93 169c-16.5-7.92-5.05-32.2 11.52-24.47C447.81 152.72 437.05 175.62 420.93 169zM657.38 236.25c-11.43 1.73-9.11 18.8 2.36 17.41C671.15 251.91 668.83 234.89 657.38 236.25zm-.79 22.09c-17.53-3-13.82-28.8 3.86-26.77C678.06 234.45 674.35 260.48 656.59 258.34z"/><path fill="#301ca3" d="M650.39 255.74a14.23 14.23 0 01-4.47-5.71s0 0 0 0c-1.09-2.69 3.12-4.5 4.34-1.87h0c2.69 6.93 13.05 7.38 16.21.61 2.58-3.42 6.2.72 3.43 3.62.05-.09.1-.18.16-.27C666.05 258.68 656.44 260.56 650.39 255.74zM80.23 743.32c-11.39 1.77-9.07 18.75 2.38 17.41C94.05 759 91.71 741.92 80.23 743.32zM73.7 763.11c-12-8.39-3.73-27.32 10.5-24.33C105 744.66 92.29 774.23 73.7 763.11zM95.25 367.74a12 12 0 00-4.88 2.08c1 2.48 2.64 4.78 5.25 5.73 2.27 1.12 5.34-.62 4.56-3.32C99.87 369.89 97.86 367.21 95.25 367.74zm17 46.39c-27.33-.62-46.84-20.8-27.46-45.69-6.27-20.93 1.76-43.86 13.6-61.32a2.39 2.39 0 014.14 1.4c-.21 2.22-2.46 3.75-3.33 5.78-8.38 15.32-15 33.42-10.42 50.94 6.89-4.77 15.48-1.58 16.2 7.08.26 11.62-14.61 9.82-18.11 1.08-19.4 29 20.66 42.59 43 32.91l-.24.1a27.5 27.5 0 007.23-4.65c1.2-1.34 2.15-3.82 4.39-2.69 4.46 3.47-4.21 8.66-7 10.31C127.57 413 119.76 414.19 112.23 414.13zM491.09 135.13c-2.49-.55-1.83-3.21-1.49-5a73.15 73.15 0 00.47-8.24c-.08-5.17-.14-10.48-1.86-15.41a26.11 26.11 0 00-2-4.33c-.67-1.16-2-2.21-1.41-3.7 2.29-4.2 5.53.72 6.54 3.25 2.5 5.06 3.23 10.75 3.39 16.33C494.52 121.19 496.06 136.22 491.09 135.13zM503.29 138.65c-3.66-1.66.47-7.05.21-10.05-.77-3.12 4.2-4.09 4.67-.9.27 3.24-1.11 6.38-1.86 9.49A2.4 2.4 0 01503.29 138.65zM880.61 374.45a2.37 2.37 0 01-1.05-3.17 73.35 73.35 0 003.91-8 37.9 37.9 0 002.82-8.67c-.54-4.62 3.94-5.64 4.82-1.95-.09 7.11-3.77 13.67-6.86 19.89C883.67 374 882.19 375.29 880.61 374.45zM895.51 376.32a2.39 2.39 0 01-1.41-4.14c1.86-1.32 4.46-4.85 6.61-2.07a2.39 2.39 0 01-.64 3.29C898.6 374.37 897.41 376.3 895.51 376.32zM45.47 638.8C33.8 630.57 32.73 608.68 36.23 596c1-2.89 5.51-1.35 4.48 1.55a21.69 21.69 0 00-1.07 4.57c-.65 8.74-.68 18.11 3.19 26.16a23.7 23.7 0 003.72 5.47c.7.79 1.89 1.08 2.22 2.18A2.38 2.38 0 0145.47 638.8zM48.58 605.81c-4.34 0-1.29-11.42.15-13.59 1.88-2.27 5.54.6 3.72 2.95a27.43 27.43 0 00-1.14 5C51 602.25 51.73 605.88 48.58 605.81z"/><path fill="#df1929" d="M680.25 156.78c-6.65-8.8-7.73-21.56-6.16-32.21.33-3.24 4-6.12 6.76-3.42 2.45 2.67 2.95 6.57 4 9.93 4.19-2.93 10.15-9 15.39-5.19 2.21 2.09 3.95 5.27 3 8.37C700.3 142.5 691.9 165 680.25 156.78zM804.13 231.73a77.62 77.62 0 01-7-9.24l.17.25c-4.54-7.17-8.65-15.4-8.43-24.08 0-4.9 3.74-11.78 9.47-10.36 3.64.93 5.87 4.36 8.08 7.14 1.59-3.45 3.48-7.35 7.31-8.71a5.44 5.44 0 017.53 5.21C822 201.47 819.6 237.71 804.13 231.73z"/><path fill="#301ca3" d="M892.58,254.1c-11.58,1.54-9.4,18.81,2.19,17.44C906.07,269.81,904,253,892.58,254.1Zm-3.26,21.58c-16.31-5.84-9.11-30,7.73-25.94C914.62,255,907,280.83,889.32,275.68Z"/><path fill="#301ca3" d="M893.06,276.43c-3.42.23-13.77-4.84-10.27-9,3.1-2.27,4.61,2.91,7.41,3.5a10.19,10.19,0,0,0,3.17.75C896.43,271.88,896.12,276.66,893.06,276.43Z"/><path fill="#301ca3" d="M888.6,275.49h0a1.38,1.38,0,0,1-.29-.12h0l.23.1c-1.53-.84-3.72-1.52-4.24-3.37a2.39,2.39,0,0,1,3.39-2.59A23.67,23.67,0,0,0,890.2,271C893.06,272.07,891.44,276.51,888.6,275.49Z"/><path fill="#301ca3" d="M890.55,276a13.84,13.84,0,0,1-8.54-6.14c-1-2-3.16-5.6-.16-6.85,3.76-1,3.1,4.43,5.5,6,3,3.73,8.71,1.23,9.08,4.84C896.51,277.08,892.66,276.59,890.55,276Z"/><path fill="#301ca3" d="M890.72,275.59c-2.07-2.28,1.58-5.47,3.55-3.13S892.69,277.92,890.72,275.59Z"/><path fill="#301ca3" d="M893.3 276.44c-2.31-.18-6.83-.56-5.93-3.91 1.1-2.89 4.1-.73 6.24-.82C896.67 271.88 896.35 276.66 893.3 276.44zM880.13 264.63a14.79 14.79 0 011.06-7.44c1.26-2.68 5.52-.73 4.3 2l.06-.14a10.18 10.18 0 00-.69 5.26C885.11 267.35 880.34 267.7 880.13 264.63zM773.23 133.4c-7-4.76 18.89-19.79 23.31-20.33 2.89-1 4.47 3.5 1.56 4.47-1.1.34-2.18.74-3.24 1.18-6.92 3.36-14.16 7.35-18.57 13.84l.09-.16A2.4 2.4 0 01773.23 133.4zM792.19 108c-2.91-.14-2.84-4.66.06-4.73h-.07l-.3 0h0l-.28.08a73.74 73.74 0 019-2.62c3-.65 4 4 1 4.64C798.37 106 795.33 107.33 792.19 108z"/><path fill="#df1929" d="M260 180.88c-7.39-3.45-14.52-26.4-15.77-34.5-1.18-4.76-1.48-17.94 6.61-13.63 3.48 3.3 5.94 7.58 8.55 11.58 3.82-5.76 7.73-12.64 14.63-15 3.4-1.22 7.35 1.2 7 5-1 6.43-4 12.42-5.76 18.67C272.52 159 268.56 183.45 260 180.88zM375.77 257.74c-10.31-2.79-23.89-12.08-29.83-21.05-3-4-2.28-10.93 3.83-10.62 4.36.46 8.08 3.3 11.61 5.7a47.1 47.1 0 013.81-9.37c5.86-9.07 12.49-2.89 14.44 5.15C382.11 234.76 387.66 256.94 375.77 257.74z"/><path fill="#301ca3" d="M282.93 249.13a51.65 51.65 0 01-7.68-18.48 12.66 12.66 0 01-.28-4 2.38 2.38 0 014.64 0 23.35 23.35 0 00.89 5.79 48.83 48.83 0 006.36 14.07C288.58 249 284.63 251.69 282.93 249.13zM290.37 243.52c-2.58-3.56 2.14-7.18 3.92-2.92C296.3 243.53 292.35 246.69 290.37 243.52z"/></g></svg>