<svg xmlns="http://www.w3.org/2000/svg" viewBox="0 0 473.64 494.48"><g data-name="Layer 2"><g data-name="Layer 1"><path fill="#fff" d="M102.56,446.83s42.76-14.56,95,9.86c0,0,31.05,10.33,28.35-11.74s20.71-119.27-42.31-185c0,0-50.57-9.82-63.31-14.54,0,0-37.95,28.15-33.45,84.5C90.3,373.68,102.56,446.83,102.56,446.83Z"/><path fill="#ffd49b" d="M413.31,131.84c.88.35,1.37,1.17,2,1.81,3.83,3.79,7.51,7.75,11.81,11,.8,1.42-.24,2.45-.77,3.51a63.62,63.62,0,0,0-5.61,17.11,3.65,3.65,0,0,0,.28,2.59c.79-.57.62-1.51.8-2.3a66.13,66.13,0,0,1,5.49-16.08c.46-.88.72-1.95,1.83-2.26a123.89,123.89,0,0,1,8.94,9.38c2.85,3.27,5.56,6.66,8.23,10.09a1.75,1.75,0,0,0,1,.62c-.4,2.24-2.65,3.6-2.63,6.2,1-.12.89-2.43,2.38-1.45a70.54,70.54,0,0,1,12.12,42.13,96.25,96.25,0,0,1-7.09,32.5A136.81,136.81,0,0,1,446,259.77a27.45,27.45,0,0,0-1.11,3.11c-1.28.82-2-.28-2.68-1-9.73-9.79-16.46-21.31-19.12-35.3-1.82-9.55-2.58-19.27-4.4-28.81-2.43-12.67-7.84-23.76-16.82-32.63A64,64,0,0,0,365,146.93c-14.23-2-26,3.71-36,13.77-3.56,3.57-5.76,8.28-8.48,12.52-3.41,5.32-7.41,9.74-13.22,12.13a11,11,0,0,0-1.94,1.1c-2.79,1.88-3.32,4.25-1.61,7.19,1.82,3.12,1.84,3.13-.54,5.8-1.4,1.57-2.15,3.25-1,5.3a2.84,2.84,0,0,1,.11,2.91,4,4,0,0,0,.47,4.53,5,5,0,0,1,.3,5.73,14.64,14.64,0,0,0-1.08,2.58c-1.3,4.15-.35,7.34,3,10a26,26,0,0,0,4,2.45c6.4,3.41,12.86,6.73,19.27,10.16,8.17,4.39,13.12,11.28,15.48,20.42,1,4,2.11,7.89,3.4,11.76a4,4,0,0,1,.22,2.51,3.6,3.6,0,0,1-1,1.48c-3.45,3.1-3.63,7.27-3.4,11.51.35,6.38.68,12.76.76,19.15-.83,3.92-3.16,7.1-4.91,10.55-2.29,4.52-4.69,9-7.27,13.36a9,9,0,0,1-1.1,1.68c-.41.42-.83.92-1.48.66s-.58-.78-.66-1.28a14.59,14.59,0,0,1-.11-2.56c0-8.36,0-16.73,0-25.09a252.68,252.68,0,0,0-1.44-28.85c-1.36-11.08-7.17-18.53-16.92-22.94a90.84,90.84,0,0,0-15.24-4.85c-9.86-2.53-17.89-8.19-25.25-15.17-2.61-2.47-5.32-4.81-8.68-6.14-1.71-.68-3.5-1.31-5.11.12s-1.82,3.53-1.29,5.64c1.08,4.34,3.87,7.48,6.93,10.34,8.05,7.5,16.17,14.94,25,21.48,3.4,2.52,6.82,5,10.22,7.54,6,4.49,9,10.57,9.12,18.32.2,10.38-1.52,20.56-2.74,30.79-1.46,12.36-3.53,24.64-4.58,37.06a159,159,0,0,0,.5,32.42,25.9,25.9,0,0,0,9.2,17.48,18.47,18.47,0,0,0,7.26,3.59c1,.26,2.17.14,2.83,1.25-.26,2.75-1.49,5.19-2.3,7.75a118,118,0,0,1-7.7,18.24,102.36,102.36,0,0,1-11.19,17.35A101,101,0,0,1,289.7,467a85.74,85.74,0,0,1-25.05,17.56,108.33,108.33,0,0,1-24.44,8.08A50.18,50.18,0,0,1,229.3,494c-1.72-.05-3.38.52-5.11.48A84.69,84.69,0,0,1,173.51,476a120.8,120.8,0,0,1-17.4-16.08,119,119,0,0,1-9.44-12.39c-.32-.48-4.45-4.07-4.5-4.89,1-.44,5.66.71,6.75.47,13.05,0,15.23.67,22.71,2.57,7,1.76,13.44,4.74,20,7.71,6.89,3.13,14,5.2,21.6,4.75a22.79,22.79,0,0,0,8.34-1.76,2.77,2.77,0,0,0,1.88-3.07c-.08-2.26-.42-4.58.38-6.8.92.74.72,1.83.77,2.82,0,1.28,0,2.56,0,3.84,0,.58,0,1.36.72,1.45s1-.72,1.16-1.37a9.66,9.66,0,0,0,.16-1.78c.52-10.74.52-21.49.5-32.23,0-12-.06-24.07,0-36.1.06-11.7-1.07-23.32-1.89-35a154.73,154.73,0,0,0-6.6-35.34A119.46,119.46,0,0,0,195,270.42c-2.78-3.25-5.63-6.42-8.64-9.43-2.69-2.68-3-4.94-.9-8.17a66.31,66.31,0,0,1,6.14-8,40.09,40.09,0,0,0,8.9-18.26A46.38,46.38,0,0,1,205,213.66c.25-.32.52-.62.8-.92,1-1.24,2.48-1.08,3.86-1.17A156.39,156.39,0,0,0,227.48,210a40.57,40.57,0,0,0,5.75-1.32,12.11,12.11,0,0,0,5.93-3.91c1.94-2.42,2.1-4.63.51-7.27a8.17,8.17,0,0,0-1-1.45c-2.18-2.32-2.59-4.71-.75-7.55a4.05,4.05,0,0,0-.64-5.55,2.19,2.19,0,0,1-.42-2.78,4.84,4.84,0,0,0-.19-4.64c-.9-1.58-.44-2.92.71-4.16a33,33,0,0,1,2.75-2.54,10.45,10.45,0,0,0,3.28-4.07c.93-2.37.07-4.32-2.35-4.47-4.77-.28-7.52-3.28-9.81-7.12a5.44,5.44,0,0,1-.61-2.71,19.16,19.16,0,0,0-5.37-14.07,8.94,8.94,0,0,1-.74-1.32c-.23-.45-.44-.9-.67-1.35-1.23-2.51-2.22-5.13-3.26-7.73a2.32,2.32,0,0,1,.82-3.1c7.65-5.64,8.89-13.19,6.55-22.18-3-11.64-12.59-14.89-20.92-13.57-7,1.11-12.86,4.8-17.92,9.91-3.58,3.61-6.92,7.5-10.67,10.93-8,7.31-17.66,10.45-27.91,12.19-5.48.93-11,1.6-16.32,3.49-13.84,5-21.7,15.49-24.47,30-2.24,11.74.92,22.65,6.79,32.75,4.94,8.5,11.06,16.05,17.36,23.46.33.38.69.73,1,1.09,3.76,3.81,3.82,3.84,1.38,8.63-2.15,4.21-4.27,8.33-8.14,11.34s-6.3,7.35-8.09,12a10.92,10.92,0,0,1-2.54,4,107.69,107.69,0,0,0-8.35,9,1.84,1.84,0,0,1-1.66.91c-2.53-2.21-4.25-5.14-6.34-7.74a120.27,120.27,0,0,0-33.28-28.29c-7-4.1-14.31-7.52-21.32-11.58-12.16-7.05-24.12-14.43-33.88-25.06a36.57,36.57,0,0,1-10-25.11,55.53,55.53,0,0,1,6.86-27.39C17.38,117.19,27,104.11,37.71,91.79c5.82-6.71,13.12-11.21,20.68-15.34a213.27,213.27,0,0,1,27-12.08c7.18-2.69,14.57-4.55,21.88-6.76,8.24-2.49,16.48-5,24.59-8a277.93,277.93,0,0,0,28.45-11.9c9.26-4.57,18.07-10,26.88-15.37a132.93,132.93,0,0,1,27.07-13.2,116.6,116.6,0,0,1,26.12-5.63,160.31,160.31,0,0,1,37.41.66A180.65,180.65,0,0,1,317.7,14.63c4.53,1.74,9,3.59,13.43,5.62a6.4,6.4,0,0,1,2.71,2.1c1.39,2,3.71,2.46,5.63,3.48,7.69,4.11,13.87,10.25,20.24,16.1a66.17,66.17,0,0,1,11.43,13.32c1.76,2.8,2.91,5.72,2.55,9.12-.21,2,.7,3.65,1.21,5.44-.67,4.53-3.15,8.17-5.66,11.71-2.1,3-4.1,5.92-4.81,9.63a14.09,14.09,0,0,1-3.49,6.38,11.46,11.46,0,0,0-2.9,7.66c0,2.59-1.33,4.47-3,6.22-2,2.14-3.56,4.51-3,7.8.28-3.6,2.43-6,4.66-8.42a10.83,10.83,0,0,0,2.46-6.82,9.94,9.94,0,0,1,2.41-5.73,20.24,20.24,0,0,0,4.23-8.55,10.65,10.65,0,0,1,1.48-3.77c2.5-3.68,5.21-7.22,7.14-11.29a1.3,1.3,0,0,1,1.15-.84c1.77.85,2.16,2.77,2.77,4.34a118.92,118.92,0,0,0,9.29,18.79c2.71,4.42,3.74,9.41,5.36,14.2.79,2.33,1.39,4.72,2.32,7,.21.51.44,1.25,1.19,1,.54-.19.47-.82.43-1.33s-.13-.84-.11-1.27.13-1,.7-1.21.92.23,1.22.65a17.39,17.39,0,0,1,1.3,2.45c1.08,2.1,1.91,4.34,3,6.41.5.9.65,2.42,2.29,1.67a6.18,6.18,0,0,1-.44,5.26c-1.85,1.34-3.42.15-5-.7-1.18-.64-1.81-.78-1.71,1a14.56,14.56,0,0,1-1.08,6c-.61,1.62-.31,2.47,1.49,2.41a8.31,8.31,0,0,1,4.69,1.24c1.19.72,1.83.29,2-1.08s.17-2.75,1.16-3.83c3.27.22,5.78-.64,6.16-4.62C412.7,131.89,413.06,131.84,413.31,131.84Z"/><path d="M347.24 277.37c-1.44-4.08-2.55-8.26-3.74-12.42-4-14.08-7.35-16.57-18.26-22.85-5.21-3-10.65-5.57-16-8.33a28.21 28.21 0 01-4.85-3 8.88 8.88 0 01-2.94-10.67c.44-1.19 1-2.31 1.57-3.46a3.11 3.11 0 00-.34-3.57c-1.71-2-2.38-4.09-.44-6.37.47-.56 0-.86-.27-1.27-1.51-2.1-1.5-3.5 0-5.49.3-.4.66-.75 1-1.12 2.06-2.17 2.06-2.17.32-4.71-2.05-3-1.52-6.15 1.46-8.15a24.88 24.88 0 014.12-2.24 20.75 20.75 0 009.22-8.14c2.37-3.68 4.8-7.31 7.15-11A29 29 0 01332.1 157a74 74 0 019.79-6.79A38 38 0 01359.37 146c16.33-.39 41.07 10.61 52.53 31.24a71.16 71.16 0 017.84 23c1.31 7.8 2.31 15.67 3.48 23.5 2.24 15 9 27.42 19.55 37.77a6.84 6.84 0 001.89 1.58l.26-.1a1.37 1.37 0 01.49.23l.21.18a2.86 2.86 0 01.35.43c0 .09.07.18.1.27a2 2 0 00.23.51c3.67 3.64 7.57 7 10.94 11 7.08 8.33 13.05 17.48 15.18 28.54 3.88 20.17-1.4 37.3-17 50.45A70.18 70.18 0 01442.9 363c-.72.38-1.38.89-2.06 1.33-2.07 1.32-4 .89-5.4-1.31a10.55 10.55 0 01-1.6-5.82c0-3.49-.15-7-.07-10.47.19-9.55.33-19.13 0-28.68-.44-12.28-3.75-23.74-10.82-33.73a53.08 53.08 0 00-10.31-10.54 12 12 0 00-4-1.89c-6.9-2.21-14-3.3-21.1-4.72-6.18-1.24-12.44-2.23-18.1-5.38a24.32 24.32 0 01-3.76-2.42c-7.63-7.23-11.69-16.72-15.28-26.47a153.32 153.32 0 01-8.58-34.6 51.22 51.22 0 01-.72-9.42c.26-4.1-.43-8.16-.51-12.25a171.22 171.22 0 01.87-20.55c-.81-.58-1.2 0-1.64.32a44.25 44.25 0 00-9.89 9.1c-1.12 1.41-1.3 2.33.48 3.34a11.34 11.34 0 014.45 4.3c.68 1.24 1.39 2.53-.07 3.61s-2.26-.19-3-1.22a17.13 17.13 0 00-3.1-3.26c-1.43-1.21-2.59-1.14-3.64.58s-2.39 3.46-3.51 5.25a22.71 22.71 0 01-10 9.11c-1.12.5-2.21 1.11-3.28 1.72-1.42.8-1.78 1.76-.8 3.31 2.06 3.25 2 5.25-.27 8.37-.78 1.08-1.21 1.89-.23 3.11 1.19 1.47.77 3-.18 4.48a2.47 2.47 0 00-.25 2.83c1.54 2.77 1.2 5.57-.08 8.32-2.22 4.77-1.82 6.57 2.56 9.22 3.25 2 6.79 3.36 10.12 5.18 3.91 2.14 7.86 4.2 11.72 6.43a33.3 33.3 0 0116 21c1.2 4.43 2.57 8.8 3.71 13.25C349.88 277.24 349 278 347.24 277.37zM107.52 256.82c1.82-2.06 3.63-4.14 5.47-6.18.67-.75 1.4-1.44 2.12-2.14a19 19 0 005-7.09 27.77 27.77 0 019.83-12.8 6.17 6.17 0 001.52-1.62c2.42-3.57 4.13-7.55 6.16-11.34a1.17 1.17 0 00-.27-1.73c-6.54-5.66-11.54-12.75-16.6-19.77a65.49 65.49 0 01-9.54-17.79c-2.82-8.57-4-17.37-1.4-26.15 4.45-15.19 13.78-25.3 29.09-28.56 5.36-1.14 10.77-2.08 16.16-3.06 11.39-2.06 20.79-7.82 28.6-16.61 1.89-2.13 3.83-4.21 5.86-6.19a32.91 32.91 0 0117.18-9.26A19.92 19.92 0 01220 88.62 14.9 14.9 0 01226.9 96c2.17 5 3.71 10.27 2.47 15.86-1.09 4.9-3.41 9.06-7.81 11.55-1.17.66-.95 1.23-.53 2.2 1.18 2.71 2.27 5.47 3.39 8.2.2.5-.09.7-.47.85a7.11 7.11 0 01-4.23-2.13 20.38 20.38 0 01-1.9-4.39c-.54-1.38-1.33-1.77-2.67-1.24a35.7 35.7 0 00-12.84 8.1 33.12 33.12 0 00-1.95 2.74c-.1.21-.22.4-.33.6s-.3.65-.44 1a28.17 28.17 0 00-2.35 6.16 4.68 4.68 0 01-3.14 3.58 72.76 72.76 0 01-9.16 2.82 82.08 82.08 0 00-14.22 4.73c-2.79 1.26-5.42 2.87-6.58 6.12a6.93 6.93 0 00.08 5.45c.65-6.79 2-9 5.6-9.33.57.91.09 1.81 0 2.72-.8 5.61-.08 10.87 3.18 15.59a8.47 8.47 0 003.84 3.08c1.37.57 2.25 1.54 1.8 3.15a2.36 2.36 0 01-3.17 1.64c-1.79-.51-2.4.34-3.08 1.86-3.72 8.3-8.52 15.79-15.72 21.25a51.71 51.71 0 01-12.42 7.18 6.5 6.5 0 00-3.52 3.29c-1.57 2.9-2.87 5.95-4.51 8.8-.8 1.4-.63 2.3.72 3.15 13.2 8.35 26.79 15.75 42.07 19.15 2.45.55 4.32.13 5.74-2.13a36.18 36.18 0 013.45-4 39.74 39.74 0 007.11-13.34c1.19-3.55 2.22-7.15 3.46-10.68.55-1.58.29-2.42-1.3-3.15C185.68 211 178 197.1 179.08 183.57A8.64 8.64 0 01181 179c3.49-4.51 3.11-9.66 2.18-14.87a3.55 3.55 0 00-1.75-2.06 48.71 48.71 0 00-5.21-3.37c-.85-.45-1.87-.77-2.09-2 .49-1.07 1.53-1.22 2.43-1.54 5.79-2.06 11.84-3.17 17.61-5.34 2.33-.88 2.27 1 2.37 2.58 0 1.24 0 2.49 0 3.72-.73 9.21 4.22 15.8 13 17.48 10.8 2.07 20.43-.22 28.64-8.09a7.82 7.82 0 00.7-.71 1.13 1.13 0 00.21-.67c-3.8-1.34-7.55-3-9.31-7.24.17-1.6-.27-3.51 1.88-4.13a19.56 19.56 0 002.85 3.83c1.57 1.74 3.38 2.94 5.79 2.83a5 5 0 011.22.12c2.56.55 3.66 2.66 2.71 5.19a8.9 8.9 0 01-2.45 3.47c-1.24 1.11-2.52 2.17-3.72 3.33-1.69 1.64-1.74 2-.56 4.07a4.46 4.46 0 01.05 4.61c-.53 1-.76 1.6.29 2.53 1.84 1.63 2.23 3.59.81 5.71-2 2.92-1.54 5 .7 7.54 3.28 3.76 2.6 7.92-1.3 11-2.34 1.86-5.11 2.61-7.92 3.22-6.68 1.44-13.46 1.6-20.23 2-1.27.07-2.65-.3-3.73.77a1.11 1.11 0 01-.68.8c-1.73 3.21-2.64 6.75-3.71 10.23a35.74 35.74 0 00-.93 3.7c-1.26 6.73-4.49 12.38-8.71 17.5q-2.56 3.11-5 6.3a17.45 17.45 0 00-1.89 3 4.41 4.41 0 001 5.55 136 136 0 0111.27 12.45 120.13 120.13 0 0123.78 47.11c2.72 10.58 4 21.38 5 32.27 1.85 20.69 1.4 41.43 1.44 62.16 0 12.46.09 24.92-.52 37.37-.05.85-.11 1.7-.22 2.54-.15 1.11-.61 2.06-1.84 2s-1.44-1-1.45-2c0-1.62 0-3.24 0-4.86 0-.85 0-1.7 0-2.55.21-5.54.44-11.08.44-16.62 0-15.37 0-30.73 0-46.1a372.49 372.49 0 00-2.85-44.92c-2.46-19.93-8.72-38.46-19.86-55a145.08 145.08 0 00-16.64-20.46 2.55 2.55 0 00-2.14-1c-6.78.43-13.34-1-19.83-2.78-9.87-2.74-19.7-5.57-29.54-8.4-3.78-1.08-7.53-2.25-11.28-3.45a1.76 1.76 0 00-2.13.53 142.5 142.5 0 00-12.64 15 62.3 62.3 0 00-6.3 10.35c-5.27 11.12-9.81 22.51-11.37 34.94-.24 1.95-.52 3.9-.6 5.85a227.78 227.78 0 002.12 43.9q4 26.54 7.86 53.09c1.31 9.11 2.38 18.26 3.59 27.38.18 1.35.52 2.67.79 4 .1.5.25 1 .35 1.49a1.92 1.92 0 01-1 2.37c-.83.4-1.75-.07-2.32-1.31a13.94 13.94 0 01-.83-2.66c-1-4.16-1.32-8.41-1.85-12.64q-1.93-15.48-4.27-30.89c-2.4-15.92-4.82-31.84-6.93-47.81a194.68 194.68 0 01-1-38.84c.75-10.8 3.76-21.07 7.93-31 3.28-7.83 6.92-15.42 12-22.17a.56.56 0 00.25-.65.83.83 0 01.15-.48 2.31 2.31 0 01.31-.39s.17-.17.16-.17.23-.24.34-.35l.18-.17a1.33 1.33 0 01.39-.28z"/><path fill="#de922e" d="M347.24 277.37c1.61-.11 2.47-1.17 3-2.61 1.92-2.66 4.41-4.77 6.59-7.18a87.4 87.4 0 006.37-7.07c.61-.83 1.25-1.85 2.53-1.73 6.61 4.92 14.37 6.28 22.08 7.76 7.39 1.42 14.81 2.66 22 5.07a12.94 12.94 0 014.06 2.28c12.36 9.93 18.28 23.44 20.16 39.23.84 7.06.43 14.14.4 21.22 0 7.59-.39 15.18 0 22.77a16.35 16.35 0 00.41 3c.92 3.77 2.35 4.8 5.95 4.23.26 5.12-.23 10.23-.32 15.35a273.35 273.35 0 001.74 34.21c.59 5.42 1 10.87 1.5 16.3.15 1.58-.14 2.83-1.6 3.66a2.17 2.17 0 01-2.53.07c-2.1-1.55-4.18-1.07-6.27-.07a22.3 22.3 0 01-13.16 2 54.83 54.83 0 01-15-4.59c-1.27-.59-2.54-1.17-3.79-1.8-5.66-2.85-11.48-2.91-17.45-1.32a39.6 39.6 0 00-14.95 8c-6 5-12 10.07-18 15.07a66.25 66.25 0 01-5.59 4.15c-1.93 1.28-3.39.7-4.28-1.5a6.88 6.88 0 01-.4-2.51c-.25-8.53 0-17.06.21-25.59.18-8.19.21-16.38.29-24.57a6.86 6.86 0 00-.19-1.26c-.24-1 .62-1.31 1.09-1.8q21.91-22.86 43.84-45.73A188.84 188.84 0 00400.67 335c2-2.67 2-2.83-.86-4.17a10.69 10.69 0 01-.3-4.06 61.42 61.42 0 00-5.81-28.49c-4-8.37-9.66-15.18-18-19.17-.43-2.1-1.7-2.61-3.69-2.73-8.3-.48-13.51 4-17.08 11.21-3.32 6.73-6.4 13.58-9.76 20.3-.46.92-.63 2.19-2 2.33l-.54-15.48a26.25 26.25 0 00-.28-3.54c-.44-2.63.11-5.24.49-7.82a5.65 5.65 0 011.69-3C345.47 279.36 346.35 278.36 347.24 277.37zM118.67 402.41c-2.71-6.12-4.92-12.45-7.43-18.65-4.19-10.35-6.61-21.22-8.53-32.22a197.06 197.06 0 01-3-35.63c.12-14.08 3.55-27.14 12.06-38.42a48.45 48.45 0 016.63-7.16 23.29 23.29 0 0113.89-5.75 43.45 43.45 0 0122.2 4.16c6.46 3 10.59 8.42 13.38 15a86 86 0 016.34 26.16 277 277 0 011.42 33.21c-.4 13.13-.31 26.27-1.2 39.39-.06.93 0 1.87 0 2.81A14.81 14.81 0 00173.4 390c0 2-1.55 2.4-3 2.83-5.72 1.74-11.49 3.32-17.23 5-8.89 2.57-17.53 6-26.38 8.69-4 1.24-4.36 1.12-6.23-2.15C120.13 403.51 119.26 403.11 118.67 402.41z"/><path d="M343.19,310.2c3-5.09,5.33-10.51,7.81-15.87a80.45,80.45,0,0,1,5.43-10.57c4.13-6.33,9.9-8.85,17.1-8,2.11.24,2.5.76,2.3,2.89-.47,1.41-1.58,1.26-2.64,1.14-5.77-.67-10.14,1.55-13.33,6.65-2.43,3.88-4.13,8.13-6.12,12.24-8.05,16.69-16,33.43-26.36,48.8a23,23,0,0,0-3.4,8.17,18.76,18.76,0,0,1-.49,2.25c-.47,1.42-1.3,2.49-2.89,2.09a2.54,2.54,0,0,1-1.82-3.18c.58-3.64,1.39-7.37,3.49-10.3,2.82-3.93,3.36-7.9,2.78-12.67-.66-5.31-.28-10.74-.15-16.12.24-9.13-.34-18.25-.63-27.36-.18-5.67-.48-11.4-2.18-16.94a21.63,21.63,0,0,0-10.52-12.89c-5.38-3.08-11.23-4.7-17.12-6.16-10.07-2.49-18.57-7.83-26.14-15a42.94,42.94,0,0,0-6.75-5.52,8.39,8.39,0,0,0-2-1c-1.31-.4-2,.09-1.61,1.53a11.59,11.59,0,0,0,3.16,5.39,237.62,237.62,0,0,0,28.1,24.73c3.9,3,8,5.7,11.68,8.92,5,4.34,7.47,9.94,8.06,16.64,1,11.7-1.38,23.09-2.68,34.57-1.43,12.7-3.55,25.31-4.64,38.06a131.11,131.11,0,0,0,1.05,31.85,20.92,20.92,0,0,0,6.77,12.42c4.77,4.4,10.68,4.95,16,1.41a45.77,45.77,0,0,0,7.6-6.45C338.76,396,344.22,390,350,384.33c7.58-7.42,14.6-15.4,22-23,3.25-3.37,6.83-6.37,10-9.85,5.28-5.82,10.49-11.71,15.38-17.9.78-1,1.45-2.1,2.77-2.4l.68-.29a1.44,1.44,0,0,1,1.93.59,1.64,1.64,0,0,1-.21,2.11c-1.78,2.33-3.54,4.68-5.37,7a287,287,0,0,1-20.62,22.61c-11.48,11.67-22.73,23.59-34.08,35.4-.45.48-.91.95-1.37,1.43-3.12,3.1-6.14,6.31-9.42,9.25-3.93,3.55-8.26,6-13.59,6.06-10.77-.94-18.06-10.66-19.48-19.46A137.38,137.38,0,0,1,297.25,366c.91-15.7,3.63-31.16,5.48-46.73.88-7.36,2-14.7,2.28-22.13a43.44,43.44,0,0,0-.75-10.18c-1-5.23-4.2-8.94-8.2-12-5.08-3.88-10.34-7.51-15.32-11.52-7.46-6-14.56-12.44-21.43-19.15a22,22,0,0,1-4.86-6.69,10.57,10.57,0,0,1-1.06-5.2c.27-3.25,2.51-5,5.59-4.44a15.56,15.56,0,0,1,6.56,3.33,58.61,58.61,0,0,1,5.7,4.85c8,8.07,17.67,12.7,28.46,15.11a51.72,51.72,0,0,1,14,5.42c8.26,4.59,12.59,11.9,13.82,21.37,1.3,10,1.38,20.08,1.48,30.15.07,7.59,0,15.19,0,22.78v4.6c.79.42.94,0,1.09-.22,4.47-7.95,8.85-15.94,12.84-24.16A7.72,7.72,0,0,0,343.19,310.2Z"/><path fill="#ffd29e" d="M374.61,69.84a7.48,7.48,0,0,1-1.51-5.43c.49-4-1.32-7.22-3.49-10.29a88,88,0,0,0-14.85-15.85c-3.14-2.69-6.13-5.59-9.48-8a63.31,63.31,0,0,0-9.57-5.6c-1-.48-2.16-.75-2.53-2.16-.19-.75-.94-1.06-1.65-1.38-6-2.64-12-5.15-18.24-7.28-5.24-1.8-10.52-3.4-15.81-5A102.57,102.57,0,0,0,284.64,6c-6.55-1.14-13.14-2.28-19.85-2.33a55.82,55.82,0,0,1-8.66-.41,19.44,19.44,0,0,0-5.34.24c-2,.22-4.07.08-6.09.27-2.43.24-4.84.65-7.26.81-4.4.3-8.64,1.53-13,2.29A39.79,39.79,0,0,0,220.23,8,119.89,119.89,0,0,0,193,19.78c-6.74,3.92-13.28,8.21-20.07,12-7,3.95-14.2,7.63-21.59,10.87-7.9,3.45-16,6.29-24,9.36-3.5,1.35-7.15,2.28-10.72,3.44-6.21,2-12.48,3.85-18.77,5.55-6,1.62-11.82,3.84-17.65,6-3.83,1.42-7.6,3-11.28,4.85A198.51,198.51,0,0,0,50.25,82,61.79,61.79,0,0,0,36.53,94.17c-4.49,5.16-8.7,10.56-12.7,16.13A166,166,0,0,0,12,128.71a83.14,83.14,0,0,0-4.46,8.78,65.27,65.27,0,0,0-3.73,13.66,48.55,48.55,0,0,0-.33,11A33.87,33.87,0,0,0,10,179.94a63.69,63.69,0,0,0,7.43,8.12c4.71,4.6,10.12,8.2,15.42,12,4,2.9,8.48,5.08,12.57,7.88a75.08,75.08,0,0,0,8.27,4.4c9.35,4.8,18.59,9.83,27.05,16.21a76.63,76.63,0,0,1,10.19,8.71c1.19,1.29,2.63,2.25,3.84,3.53,3.73,3.93,7,8.24,10.48,12.4a16.4,16.4,0,0,1,2.27,3.63h0a1.73,1.73,0,0,0-.46.55v0a1,1,0,0,0-.48.57l0,0a.68.68,0,0,0-.48.6l0,0c-.34.08-.42.52-.77.6-2.41-3-4.56-6.23-7.05-9.17a123.54,123.54,0,0,0-13.87-14C74.87,227.6,64,221.55,53,215.8a232.65,232.65,0,0,1-26.67-16.18,106.84,106.84,0,0,1-13.73-11.5,44.64,44.64,0,0,1-9.16-12.86A37.29,37.29,0,0,1,.53,165,53.46,53.46,0,0,1,3,140.37c1.93-6,5-11.45,8.21-16.82a231.12,231.12,0,0,1,16.3-23.61A133.69,133.69,0,0,1,39.89,85.82a59,59,0,0,1,10.93-8.17A190.5,190.5,0,0,1,78.51,64a194,194,0,0,1,20.73-7C106.9,55,114.46,52.6,122,50.22c8.6-2.71,17-6.08,25.31-9.52a213,213,0,0,0,26.22-13.2c8.55-5,16.76-10.62,25.66-15a112.86,112.86,0,0,1,27.54-9.65C232.12,1.83,237.53,1.1,243,.57A154.7,154.7,0,0,1,266.25.31a161.89,161.89,0,0,1,35.6,6.21A179.49,179.49,0,0,1,341,22.4a98.94,98.94,0,0,1,16.33,11.69,79.48,79.48,0,0,1,21.27,29.54l-.15.22-.24.07a2.09,2.09,0,0,0-.25,0h-.23a1.69,1.69,0,0,0-.23,0,1.18,1.18,0,0,0-.41.19,2,2,0,0,0-.31.34,1.39,1.39,0,0,1-.11.21c-.09.24-.15.49-.22.74s-.11.37-.17.54-.18.55-.26.83a3.5,3.5,0,0,1-.17.55,8.63,8.63,0,0,0-.35,1.09,3.65,3.65,0,0,1-.18.56,2.72,2.72,0,0,1-.48.73Z"/><path d="M118.67,402.41a2.14,2.14,0,0,1,2.39,1.35,8.66,8.66,0,0,0,.53.86c1.46,2.34,1.48,2.41,4.1,1.55q7.92-2.62,15.8-5.36c9.51-3.3,19.24-5.79,28.86-8.72a6.28,6.28,0,0,1,.94-.27,1.62,1.62,0,0,0,1.54-2.07,12.73,12.73,0,0,1,.1-2,2.6,2.6,0,0,1,1.56-2.39,6.46,6.46,0,0,1,3.3.81,4,4,0,0,1,2.18,2.64c.51,3.27,1.57,6.43,1.78,9.77a8.82,8.82,0,0,1-5.06,9.08c-1.67.87-1.66.88-1.29,2.65Q178.19,423.64,181,437c.4,2,.1,3-1,3.28s-2-.41-2.56-2.47c-1.1-4.19-1.85-8.47-2.64-12.74-.84-4.52-1.66-9-2.51-13.56-.11-.57-.3-1.13-.49-1.81-13.85,3.42-27.2,8.39-41,12.17a50.22,50.22,0,0,0,6.8,15c.32.49.69,1,1,1.47.64,1.17.55,2.24-.25,2.74a1.84,1.84,0,0,1-2.6-.63,19.9,19.9,0,0,1-1.45-2.05,51.43,51.43,0,0,1-6.26-14.1c-.39-1.49-.89-2.49-2.69-2.63-2-.17-3.53-1.69-4.76-3.34a35.21,35.21,0,0,1-4.61-8.7C114.94,406.9,115.92,404.5,118.67,402.41Z"/><path fill="#ffd29e" d="M405,126.19c-.65.36-.27,1.27-.89,1.87-2.48-4-3.93-8.54-6.3-12.54-.81.62-.52,1.11-.35,1.56a5.08,5.08,0,0,1,.17,2c0,.73-.53,1-1.08,1.23-.71.28-1.07-.22-1.32-.78A21.91,21.91,0,0,1,394.2,117c-1.24-4-2.54-7.87-3.63-11.86-1.16-4.23-3.43-7.82-5.64-11.46a13.57,13.57,0,0,1-.86-1.53c-1.94-4.56-4.62-8.75-6.12-13.54a31.74,31.74,0,0,0-2.37-4.69c-.65-1,0-1.79.28-2.61a51.16,51.16,0,0,0,2.24-7,3.47,3.47,0,0,1,.44-.64l.08-.07a86.88,86.88,0,0,1,5.78,12.64c3.07,8,6.35,15.84,9.72,23.67A201.88,201.88,0,0,0,406,122.51c.63,1.08,1.36,2.11,2,3.16a.72.72,0,0,1-.67.32,1.4,1.4,0,0,1-.48-.18,1.71,1.71,0,0,1-.36-.35s-.12-.22-.12-.21c-.18-.26-.17.11-.28.1a2.51,2.51,0,0,1-.37.27l-.33.32A.69.69,0,0,1,405,126.19Z"/><path fill="#ffd29f" d="M444.66,263.08a3.53,3.53,0,0,1,.4-3.13A115.08,115.08,0,0,0,453,242.48a90.41,90.41,0,0,0,4.89-19.36,80.71,80.71,0,0,0,.41-18.26,72.08,72.08,0,0,0-4.69-19.42,55.88,55.88,0,0,0-4.7-9.17c-.88-1.38-2.05-2.67-2.11-4.49v-.25a1.69,1.69,0,0,1,.13-.49,1.49,1.49,0,0,1,.23-.43,1.89,1.89,0,0,1,.32-.37l.17-.18a1.21,1.21,0,0,1,.39-.28l.23-.05a4.31,4.31,0,0,1,1.64,1.84,68.4,68.4,0,0,1,11.66,34.71,32,32,0,0,0,.25,3.8c.56,3.59-.2,7.14-.43,10.68a75.75,75.75,0,0,1-2.78,15,112.77,112.77,0,0,1-10,24.64c-.68,1.23-1,2.71-2.18,3.65a.61.61,0,0,1-.66,0l0,0a.68.68,0,0,0-.54-.53l0,0c-.08-.31-.23-.53-.57-.51Z"/><path fill="#de9330" d="M446.78,171.78c-.75.62-.82,1.61-1.21,2.42a.92.92,0,0,1-1.18.6c-.58-.21-.62-.76-.52-1.25a13.17,13.17,0,0,1,3.49-6.24,15,15,0,0,0,5.34-7.74,18.52,18.52,0,0,1,4.22-7.38,16.87,16.87,0,0,0,1.93-2.64,9.47,9.47,0,0,1,3.52-3.45c3.1-1.73,5-4.28,5-8.1,0-.65.14-1.3.82-1.36s1.09.61,1.18,1.34a7,7,0,0,1-.24,3,11,11,0,0,1-5.29,6.74,8.55,8.55,0,0,0-3.52,3.43,5.7,5.7,0,0,1-.84,1.25,25.49,25.49,0,0,0-5.7,10,14,14,0,0,1-3.57,5.11c-.69.71-1.61,1.19-2,2.2l0,0a2.73,2.73,0,0,1-.48.54v0c-.15.18-.3.36-.44.55l0,0c-.34.22-.23.72-.52,1Z"/><path fill="#030302" d="M429.16,147.22a63.46,63.46,0,0,0-6.92,20.06c-.06.33,0,.68-.07,1a1.12,1.12,0,0,1-1.16,1.08,1.2,1.2,0,0,1-1.18-1.09,7.79,7.79,0,0,1,.18-2.54,71.6,71.6,0,0,1,5.93-18.33c.43-.9.8-1.84,1.2-2.77a27.72,27.72,0,0,0,2.09-4c.41-.84,1-1.46,1.94-1,1.11.51.85,1.43.43,2.37A35.18,35.18,0,0,0,429.16,147.22Z"/><path fill="#030303" d="M110.91,426.72c.06,1-.08,1.6-.73,1.83a1.18,1.18,0,0,1-1.57-.81,8.22,8.22,0,0,1-.56-1.95q-1.93-12-3.85-23.91c-.32-2,0-3.05,1-2.95,1.49.16,1.27,1.51,1.45,2.55l4.05,23.88C110.75,425.94,110.87,426.52,110.91,426.72Z"/><path fill="#040303" d="M405,126.19a.27.27,0,0,0,.08-.36.84.84,0,0,1,.57-.6.25.25,0,0,0,.36-.08c.17-.15.32-.13.45.07v0l.53.42.06,0c.6.44,1.4.5,1.94,1.06a6.73,6.73,0,0,0,4.2.68c.66,0,1.34,0,1.66.71a1.77,1.77,0,0,1-.46,1.84c-.44.58-1.07,1-1.11,1.88-.83,1.15-.82,2.52-1,3.86-.19,1.8-.8,2.24-2.45,1.64a5.14,5.14,0,0,0-3.34-.31,3.23,3.23,0,0,1-2.76.46c-1.48-.5-1.76-1.53-1.2-2.93a7.62,7.62,0,0,1,1.85-2.78A12.47,12.47,0,0,0,405,126.19Z"/><path fill="#080707" d="M455.49,162.86c.44-2.09.95-4.42,2.57-6.25a15.24,15.24,0,0,0,3.44-4.9,3,3,0,0,1,.74-1,.92.92,0,0,1,1.32-.18,1,1,0,0,1,.27,1.35c-.94,1.39-1.32,3.14-2.6,4.29a11.88,11.88,0,0,0-3.83,6.94c0,.08-.06.16-.08.24-.15.6-.33,1.19-1.07,1.17C455.77,164.51,455.5,164,455.49,162.86Z"/><path fill="#060606" d="M114.68,428.09c0-1.26,0-2.11,1-2.22s1.18.68,1.32,1.48c.58,3.26,1.18,6.53,1.76,9.8.14.79.15,1.66-.73,1.93s-1.54-.5-1.7-1.39C115.73,434.35,115.18,431,114.68,428.09Z"/><path fill="#151313" d="M220,435.8a1.74,1.74,0,0,1-1.63,1.86,1.82,1.82,0,0,1-1.81-1.7,1.84,1.84,0,0,1,1.65-1.87A1.76,1.76,0,0,1,220,435.8Z"/><path fill="#181515" d="M217.56,350.87a1.81,1.81,0,0,1-1.72,1.78A1.5,1.5,0,0,1,214.3,351a1.87,1.87,0,0,1,1.84-1.93A1.68,1.68,0,0,1,217.56,350.87Z"/><path fill="#191818" d="M213.24,326.84a1.45,1.45,0,0,1,1.51,1.59,1.44,1.44,0,0,1-1.51,1.59,1.59,1.59,0,0,1,0-3.18Z"/><path fill="#171212" d="M218,411.1c-1.06-.07-1.59-.61-1.57-1.6a1.39,1.39,0,0,1,1.51-1.56,1.45,1.45,0,0,1,1.5,1.59A1.47,1.47,0,0,1,218,411.1Z"/><path fill="#141616" d="M194.86,280.68c.91.12,1.53.58,1.52,1.59a1.46,1.46,0,0,1-1.52,1.58,1.43,1.43,0,0,1-1.5-1.58A1.47,1.47,0,0,1,194.86,280.68Z"/><path fill="#312f2f" d="M218.91,382.93a1.51,1.51,0,0,1-1.45,1.42,1.47,1.47,0,0,1-1.43-1.66,1.4,1.4,0,0,1,1.54-1.3A1.5,1.5,0,0,1,218.91,382.93Z"/><path fill="#1c1616" d="M205.8,301.33a1.35,1.35,0,0,1,1.22,1.45,1.44,1.44,0,0,1-1.61,1.43,1.4,1.4,0,0,1-1.2-1.6A1.38,1.38,0,0,1,205.8,301.33Z"/><path fill="#160a07" d="M468.71,204.85a1.26,1.26,0,0,1-1.18-1.21.71.71,0,0,1,.67-.85c.68,0,1.32.23,1.42,1A.94.94,0,0,1,468.71,204.85Z"/><path fill="#d89d5c" d="M413.26,106.7c-.82-.13-1.24-.71-.81-1.39.67-1,1.36-.24,2,.25A1.49,1.49,0,0,1,413.26,106.7Z"/><path fill="#1f1e1c" d="M413.26,106.7c0-.8.48-1.1,1.17-1.14.59.38.76.93.25,1.45S413.65,107.21,413.26,106.7Z"/><path fill="#ffd49b" d="M409 126.73a2.59 2.59 0 01-1.94-1.06H408A2.28 2.28 0 01409 126.73zM105.4 259.05a1 1 0 01.77-.6 1.17 1.17 0 01-.67.89A.35.35 0 01105.4 259.05zM445.73 264.07l.66 0-.09.57A.66.66 0 01445.73 264.07z"/><path fill="#de922e" d="M196,152.22c-.22-.72.19-1.54-.38-2.27-6.08,2.55-12.6,3.64-18.79,5.89-.84.3-1.65.67-2.48,1a8.17,8.17,0,0,1-4.6,2.15c-3.84,1.91-4.91,3.87-4.52,8.27a6.83,6.83,0,0,1,.09.76,1.08,1.08,0,0,1-.82,1.12.93.93,0,0,1-1.11-.75,9.45,9.45,0,0,1-.09-5.27,8.34,8.34,0,0,1,3.15-4.72,27.22,27.22,0,0,1,6.5-3.5,138.57,138.57,0,0,1,15.25-4.61,61.93,61.93,0,0,0,6.05-2,3,3,0,0,0,2.26-2.58,17.38,17.38,0,0,1,2.78-7,3.57,3.57,0,0,1,.51-.81l0,0c.83-1.1,1.78-2.1,2.63-3.18,4.24-4.08,9.37-4.63,14.78-4A4.46,4.46,0,0,1,220,132.3l3.84,2.19a1.84,1.84,0,0,1,1,.67c.23.22.33.54.58.73a17.85,17.85,0,0,1,5.9,13.14c.05,1.25-.22,2.54.4,3.72-1.34,1.05-1,2.81-1.63,4.18a3.46,3.46,0,0,1-.61,2.4c-3.92,6.28-9.55,9.71-16.65,9.3a17.79,17.79,0,0,1-16.39-13.43A29.65,29.65,0,0,0,196,152.22Z"/><path fill="#de932f" d="M270.47 88.73c.13-4 .69-6.7-.24-9.37-.5-1.44-.82-2.94-1.29-4.39a7.59 7.59 0 01.12-5 12.36 12.36 0 01.49-1.45c1.61-3.38 1.48-6.84.76-10.45-1.11-5.58.11-10.82 2.59-15.8a2.63 2.63 0 01.24-.44c.41-.5.75-1.25 1.57-.69.59.41.53 1 .24 1.58a10 10 0 00-.53 1.15c-1.32 3.67-2.83 7.3-2.4 11.36a33.8 33.8 0 00.59 4.29 13.5 13.5 0 01-.8 9 10.21 10.21 0 00-.15 8.35 18.23 18.23 0 011 10 11.2 11.2 0 001 6.46 37.93 37.93 0 002.05 4.08c1.27 2.17 1.62 4.61 2.08 7a2.44 2.44 0 01-.09 1 .83.83 0 01-.68.65.75.75 0 01-.82-.42 1.68 1.68 0 01-.27-.7c-.2-3.63-2-6.61-3.59-9.69C271.09 92.81 270.35 90.24 270.47 88.73zM378.54 64.21c-.07 2.84-1.45 5.25-2.32 7.82-.21.63-.43 1.25-.64 1.87A85.47 85.47 0 01367.91 86a9.86 9.86 0 00-1.58 4 18.9 18.9 0 01-4.22 8.53 8.7 8.7 0 00-2.37 5.7 11.17 11.17 0 01-3.76 8.31 8.43 8.43 0 00-3 6.45 2.22 2.22 0 01-.24 1c-.22.45-.53.91-1.12.71s-.55-.58-.58-1a10.47 10.47 0 012.66-7.72c.65-.76 1.39-1.44 2-2.22a6.8 6.8 0 001.75-4.64 10.78 10.78 0 012.93-7.87 14.42 14.42 0 003.7-7.09c.63-3.31 2.36-5.92 4.3-8.49a39.68 39.68 0 006.21-11.8h0c.31-.25.2-.71.44-1a1.09 1.09 0 00.08-.47c.26-.31.17-.78.44-1.08a.75.75 0 00.06-.42c.23-.34.16-.8.43-1.12a.82.82 0 00.06-.44c.24-.32.16-.8.48-1.09h0a4.19 4.19 0 01.51-.52v0a.63.63 0 011 0h0A4.77 4.77 0 01378.54 64.21z"/><path fill="#e44498" d="M287.27 173.14c.31-.35.15-.67.14-1-.11-1.92.72-3.8 2-4.25a4.23 4.23 0 014.55 1 7.1 7.1 0 012 5.05c.08 2.47.07 4.95 0 7.42 0 2.08-.38 2.37-2.38 1.78a25.87 25.87 0 00-6.56-.6 5.45 5.45 0 01-5.36-3.67 3.9 3.9 0 012.91-5.54C285.55 173.19 286.46 173.49 287.27 173.14zM270.34 174.06c-2.5-1.21-5.27 0-8-.25-2-.17-3.73-.79-4.7-3a3.82 3.82 0 012.38-5.05c.68-.23 1.64.16 2-.68a5.34 5.34 0 00.14-2c0-1.74.32-3.41 2-4a4.16 4.16 0 014.66 1.47 10.34 10.34 0 012 4.58c.45 2.24.84 4.49 1.37 6.72C272.61 173.34 271.86 174.23 270.34 174.06zM263.13 200.43a1.26 1.26 0 01-1.66 1.42 17.42 17.42 0 00-7 0 4.39 4.39 0 01-3.61-1.24 3.44 3.44 0 011.28-5.45c1.58-.55 1.69-1.36 1.71-2.74 0-2.28 1.21-3.77 2.94-3.62a4.18 4.18 0 013.46 2.07 8.52 8.52 0 01.85 1.84C261.79 195.2 262.43 197.75 263.13 200.43z"/><path fill="#de932f" d="M152.72,105.05c0,.46-.05.89-.54,1.06a.69.69,0,0,1-.86-.29c-1.42-2.78-4.1-4.07-6.32-5.9a10.85,10.85,0,0,1-4.14-8.08,8.16,8.16,0,0,0-2.38-5.44,30.38,30.38,0,0,1-7.15-11.16,37.12,37.12,0,0,0-2.71-5.14c-.24-.45-.54-.86-.76-1.31s-.28-1,.24-1.35a1,1,0,0,1,1.34.24,15.39,15.39,0,0,1,1.72,2.47c1.12,2.18,2.24,4.37,3.16,6.64a17.19,17.19,0,0,0,3.48,5.51c.91,1,1.77,2,2.66,3a9.76,9.76,0,0,1,2.44,6.24,9.42,9.42,0,0,0,4.43,7.54,20.11,20.11,0,0,1,4.15,3.56A4.89,4.89,0,0,1,152.72,105.05Z"/><path fill="#e44498" d="M279.35,208.6a2.82,2.82,0,0,1,2.47-3c1.12-.21,1.56-.41,1.21-1.75a3.39,3.39,0,0,1,1.6-3.87c1.43-.9,2.68-.31,3.84.52a7.33,7.33,0,0,1,2.48,3.7c.65,1.82,1.16,3.69,1.89,5.5s-.16,2.76-2,2.29a9.19,9.19,0,0,0-4.8,0,9.76,9.76,0,0,1-3.65.15A3.22,3.22,0,0,1,279.35,208.6Z"/><path fill="#de932f" d="M96.3 228.68c-2.3-.79-4.8-1-7-2.14a8.6 8.6 0 01-4-4.34A13.91 13.91 0 0078 214.74a11.43 11.43 0 01-5-4.34 9.36 9.36 0 00-2.29-2.28 50.08 50.08 0 01-5.8-5.85c-.49-.53-1.17-1.21-.5-2s1.39-.24 1.87.37c2.81 3.57 6.75 5.93 9.37 9.69a6 6 0 002.1 1.72c1.15.65 2.26 1.36 3.42 2a11.05 11.05 0 015.16 5.6A9.52 9.52 0 0094 225.94a16.78 16.78 0 012.83.79 1 1 0 01.77 1.36C97.36 228.71 96.8 228.59 96.3 228.68zM106.8 77.23a8.39 8.39 0 00-1.26 5.34 14.59 14.59 0 010 2.29c-.15 1.18-.89 1.54-1.93 1a4.88 4.88 0 01-.81-.56c-2.42-1.89-5.14-1.93-7.94-1.4-1.11.21-2.41.86-3.26-.06-1-1.12 0-2.43.43-3.55a12.21 12.21 0 00.84-6.94 12.84 12.84 0 01-.07-3.56c.1-1.26 1-1.64 1.81-.68A8.86 8.86 0 0098 71.52a2.37 2.37 0 002.55 0c.74 1.33.12 2.27-.8 3.12-1.45.34-2.64-.62-4.17-.94A23 23 0 0195 79.59c-.28 1.08.28 1.41 1.16 1.35a14.2 14.2 0 015.54.49c.88.28 1.16-.27 1.25-1.05A6 6 0 01104 76.82C105 76.38 106 76.05 106.8 77.23z"/><path fill="#030302" d="M99.6,74.44a6.7,6.7,0,0,0,.94-3,41.68,41.68,0,0,0,.18-4.33c.12-1.29.64-1.6,1.81-1.14,1,.38,1.94.91,2.94,1.25a8.1,8.1,0,0,0,4.6-.1,11.86,11.86,0,0,1,1.41-.4c1.46-.18,2.1.64,1.38,2a13.45,13.45,0,0,0-1.69,5c-.1,1,0,2,0,3.06-.08,1.57-.66,2-2.05,1.39-.76-.31-1.51-.64-2.26-1a4.78,4.78,0,0,0-2.62-.19,4,4,0,0,1-3.46.59C98.88,77.26,98.58,76.35,99.6,74.44Z"/><path fill="#030202" d="M332.43,61.15c.59-1.15.22-2.32.06-3.48a2,2,0,0,1,.68-2c.66-.45,1.23,0,1.78.4a9.33,9.33,0,0,0,7.88,1.67c.64-.17,1.32-.24,1.76.45s.08,1.29-.31,1.86a10.37,10.37,0,0,0-1.64,5.76c-.05,2.2-.59,2.49-2.56,1.54a6.39,6.39,0,0,0-3.5-.91,10.4,10.4,0,0,1-2.56.73c-.32.11-.65.2-1,.3a3.53,3.53,0,0,1-1.06.19c-2.73-1.15-1-2.9-.57-4.48A4.78,4.78,0,0,1,332.43,61.15Z"/><path fill="#de9330" d="M333.89,66.76a3.53,3.53,0,0,1,2.69-.36,14.42,14.42,0,0,0-1.76,6.54,4.26,4.26,0,0,1-.07,1c-.33,1.26-1.25,1.54-2.18.68-.3-.28-.5-.68-.8-1a6.1,6.1,0,0,0-3.69-1.8,25.51,25.51,0,0,1-2.89-.44c-1.8-.4-2.07-1.11-1.14-2.85.28-.52.61-1,.86-1.54a8.1,8.1,0,0,0,.75-6.14c-.23-.72-.47-1.57.23-2.12s1.24.09,1.8.4a15.87,15.87,0,0,0,4.74,2,2.56,2.56,0,0,1-.58,2.08c-2.82-.34-3.88,1.34-4.21,3.94a3.65,3.65,0,0,1-.79,1.49c.25.27.51.24.73.32C330.24,69.93,332.8,70.61,333.89,66.76Z"/><path fill="#050403" d="M275.25,88.19a23,23,0,0,1,.48-4,9.44,9.44,0,0,0-.72-6.46,10.38,10.38,0,0,1,.24-10.87,9.89,9.89,0,0,0,1.1-3.63c.08-.55.38-1,1-1s1,.51,1,1.18a7.71,7.71,0,0,1-.63,3.22,10.24,10.24,0,0,1-.85,1.84,7.58,7.58,0,0,0-.16,7.75,12.81,12.81,0,0,1,.88,8.93,11.86,11.86,0,0,0,.16,6.78,3.61,3.61,0,0,1,.16.74,1,1,0,0,1-.53,1c-.58.27-1-.1-1.21-.54A11,11,0,0,1,275.25,88.19Z"/><path fill="#030302" d="M438.88,195.29a6,6,0,0,1,3.63,3.56,5.93,5.93,0,0,1-1.2,6.39,5.24,5.24,0,0,1-6.05,1.48c-.61-.23-1.18-.58-1.77-.87-1.67-.35-2-1.83-2.4-3.2a6.6,6.6,0,0,1,1.65-6.17C434.51,194.54,436.72,195.05,438.88,195.29Z"/><path fill="#de9330" d="M403.81,137.19l2.74-.16c-.27,1.49-.52,3-.65,4.5s-1,1.92-2.2,1.06a8.58,8.58,0,0,0-5.77-1.51c-2.09.1-2.43-.47-1.6-2.62a15.32,15.32,0,0,0,1.19-7.42,1.45,1.45,0,0,1,.5-1.57c.6-.38,1.08,0,1.51.44a6.85,6.85,0,0,0,4.91,1.87,5.86,5.86,0,0,1-1.21,2.64,4.49,4.49,0,0,1-1,0c-2.08-.35-3.22.93-2.71,3.05.31,1.31,1.47.74,2.22,1.09C403.14,139.21,403.42,138.12,403.81,137.19Z"/><path fill="#060403" d="M356.32,116.84a8.92,8.92,0,0,1,1.71-4.32,20.35,20.35,0,0,1,1.89-2.34,6,6,0,0,0,1.7-5.35A6.69,6.69,0,0,1,363.54,99c1.4-1.5,3.15-2.73,3.66-5a.82.82,0,0,1,1.2-.52,1.09,1.09,0,0,1,.64,1.24,5.88,5.88,0,0,1-1.58,3.39c-.77.77-1.51,1.56-2.28,2.32a4.63,4.63,0,0,0-1.49,4.12,8.26,8.26,0,0,1-2.42,7.18,10.44,10.44,0,0,0-3.12,5.38c-.12.62-.42,1.19-1.15,1S356.36,117.29,356.32,116.84Z"/><path fill="#050302" d="M87,151.39A5.28,5.28,0,0,1,92.56,155a5.35,5.35,0,0,1-5.13,7.26,7.43,7.43,0,0,1-3-.95c-1.59-.4-1.85-1.89-2.4-3.15a5.75,5.75,0,0,1,1-4.92C84,151.85,85.47,151.61,87,151.39Z"/><path fill="#060403" d="M137.71,74a1.06,1.06,0,0,1,1.08.88c.86,3.49,3.2,5.86,5.61,8.2a9.62,9.62,0,0,1,2.81,5.57A9.46,9.46,0,0,0,150.58,95c.72.59,1.91,1.41,1,2.46s-1.69-.24-2.39-.81a10,10,0,0,1-3.92-6.83,9.82,9.82,0,0,0-3.41-6.31,14.85,14.85,0,0,1-4.62-7.09A7,7,0,0,1,137,74.9.86.86,0,0,1,137.71,74Z"/><path fill="#e44498" d="M242.51,215a2.29,2.29,0,0,1,1.35-2.58,1.68,1.68,0,0,0,1.14-1.67c.24-2.12,2-2.85,3.65-1.56a4.77,4.77,0,0,1,1.64,2.49c.27.89.45,1.8.67,2.71.37,1.49-.07,2.33-1.53,2.4a18.21,18.21,0,0,0-3.82.76C243.71,218,242.55,217.09,242.51,215Z"/><path fill="#040302" d="M220.34,259.32a11.42,11.42,0,0,1,1.16-.92,4.9,4.9,0,0,1,5.74.14,5.33,5.33,0,0,1,2,5.39,5.13,5.13,0,0,1-4.12,4.16,14.15,14.15,0,0,1-1.46.14,2.57,2.57,0,0,1-2.47-.42,5.33,5.33,0,0,1-2.32-3.57C218.82,262.42,218.46,260.51,220.34,259.32Z"/><path fill="#050302" d="M316.18,111.38a7.69,7.69,0,0,1,2.44.12,5.19,5.19,0,0,1,3.6,5.9,4.87,4.87,0,0,1-4.93,4.37,16.37,16.37,0,0,1-2.19-.27,3.72,3.72,0,0,1-2.39-1.52c-1.25-2.24-1.53-4.46.06-6.67A4.51,4.51,0,0,1,316.18,111.38Z"/><path fill="#e44498" d="M280.81,195.32a3.49,3.49,0,0,1-3.33-2c-.36-1.17.07-2.18,1.41-3.11a2.45,2.45,0,0,0,.92-1.11c1-2.27,2.83-2.65,4.26-.8,1.2,1.56,1.38,3.6,2,5.44.18.54-.34,1-.84,1.05A15.65,15.65,0,0,0,280.81,195.32Z"/><path fill="#050403" d="M76.33,204.41a1.41,1.41,0,0,1,1.19.78,9.41,9.41,0,0,0,4.67,3.52,10.71,10.71,0,0,1,6.25,6.41c.7,1.89,1.74,3.48,3.86,3.87a1.55,1.55,0,0,1,.65.33c.41.3.75.69.52,1.27a1,1,0,0,1-1.19.67c-2.06-.46-4.08-1.25-4.85-3.43a13,13,0,0,0-8.06-8.23A7.39,7.39,0,0,1,75.72,206C75.31,205.19,75.67,204.42,76.33,204.41Z"/><path fill="#e44498" d="M265.62 222.52c-1.39-.08-2.23-.49-2.69-1.54a2 2 0 01.67-2.68 2.54 2.54 0 001-2.37c.08-2 1.79-3 3.37-1.78 1.87 1.42 2.35 3.76 2.95 5.95a1 1 0 01-.73 1.17A37.9 37.9 0 00265.62 222.52zM290.13 232.58c.05 1-.06 1.64-.94 1.67a12.38 12.38 0 00-3.06.83 2.85 2.85 0 01-3.07-.93 3.85 3.85 0 01.29-3.59 3 3 0 001-1.92 2.83 2.83 0 012.44-2.45 2.42 2.42 0 012.32 1.93A41.7 41.7 0 01290.13 232.58z"/><path fill="#df9330" d="M69.06,100.9a1,1,0,0,1-1.65,1A24.38,24.38,0,0,1,65,99.77a4,4,0,0,1-.58-.82,14.7,14.7,0,0,0-8.19-6.5,7,7,0,0,1-4.42-4.82c-.25-.74-.19-1.43.56-1.7s1.06.36,1.23.95c.74,2.51,2.62,3.57,4.83,4.24A11.43,11.43,0,0,1,64.75,96,31.73,31.73,0,0,0,68.3,99.9C68.64,100.26,69,100.6,69.06,100.9Z"/><path fill="#e44498" d="M284.18 156.34a3.1 3.1 0 01-2.75-2.37 2 2 0 011.4-2.59 2.58 2.58 0 001.59-1.69c.78-1.78 2-1.86 3.49-.53s1.62 3.08 2.14 4.75a1 1 0 01-.83 1.33A15.78 15.78 0 00284.18 156.34zM256.28 144.37c0 2.4-.06 2.5-2.07 2.37a3.23 3.23 0 00-1.44.23 5.1 5.1 0 01-2.42.2c-1.14-.08-1.67-.94-2.1-1.9a2 2 0 01.61-2.3 10.48 10.48 0 002-2.5A2 2 0 01254 140 5.64 5.64 0 01256.28 144.37zM247.65 176.92c-2.2 0-3.11-.7-3.15-2.22 0-.82 2.84-5 3.6-5.27a2.94 2.94 0 013.08 1.53 11.4 11.4 0 011.14 4.1 1 1 0 01-.83 1.31C250.13 176.58 248.78 176.76 247.65 176.92z"/><path fill="#de9331" d="M438.88,195.29c-2.09-.14-4.15-.14-5.83,1.49-2.53-.25-4,.6-4.26,2.51s.62,3.17,2.88,3.86a11.85,11.85,0,0,0,1.82,2.7,5.72,5.72,0,0,1-6.3-2.23,6.88,6.88,0,0,1-.28-7.18,5.4,5.4,0,0,1,6.4-2.48,17.19,17.19,0,0,0,5,.94C438.49,194.91,438.68,195.15,438.88,195.29Z"/><path fill="#df9431" d="M212.14,54.11a2.57,2.57,0,0,1-.3,1.63,1,1,0,0,1-1.07.44.85.85,0,0,1-.59-.74c-.1-.75-.1-1.53-.25-2.27a11.12,11.12,0,0,0-4.68-6.89,8.14,8.14,0,0,1-3.18-4.08,4.72,4.72,0,0,1,0-3.23c.19-.5.44-.95,1-.83a.81.81,0,0,1,.62,1c-.33,2.89,1.31,4.5,3.35,6A12,12,0,0,1,212.14,54.11Z"/><path fill="#de9330" d="M221.52,267.54l2.13.69c-1.69,2-3.64,3-6.24,2.15a5.8,5.8,0,0,1-3.8-6.07,5.46,5.46,0,0,1,5-5c.57,0,1.14,0,1.71,0-1.12,1.5-1,3.26-1,5-.26.12-.43,0-.6-.2-.39-.44-.11-1.61-1.07-1.36a2.12,2.12,0,0,0-1.31,2,3,3,0,0,0,3,3.15C220.1,267.85,220.79,267.5,221.52,267.54Z"/><path fill="#de9331" d="M313.27 120l1.84 1.47c-3.63 1.24-6.39-.34-7.41-3.88-.8-2.79 1.4-6.78 5.11-6.83 1.18 0 2.23.51 3.37.59a9 9 0 00-2.91 1.94c-1.51.38-2.84 1-3 2.86C310 118.45 311.84 119.11 313.27 120zM82.61 158.54a11.45 11.45 0 001.82 2.77c-3.8.51-6.21-1.44-6.47-4.9a5.13 5.13 0 016.16-5.55 24.67 24.67 0 002.85.53 8.59 8.59 0 00-3.42 2c-1.55.18-2.71.89-2.8 2.64A2.13 2.13 0 0082.61 158.54z"/><path fill="#070604" d="M434.6,160.19a2.14,2.14,0,0,1-.56,1.44c-2,2.59-4.06,5.11-5.1,8.34a1.07,1.07,0,0,1-1.38.74,1.24,1.24,0,0,1-.9-1.35,2.68,2.68,0,0,1,.18-1,29.45,29.45,0,0,1,5.59-8.63,2,2,0,0,1,.83-.51C434.07,159,434.46,159.47,434.6,160.19Z"/><path fill="#090605" d="M57.89,87.32a.92.92,0,0,1,.38-.89.76.76,0,0,1,1.1.14c1,1.51,2.65,1.94,4.14,2.61a5.25,5.25,0,0,1,2.78,2.74,6.12,6.12,0,0,0,2.4,3.14,1,1,0,0,1,.37,1.52c-.41.57-1,.48-1.55.19A4.82,4.82,0,0,1,65,94a5.56,5.56,0,0,0-3.83-3.61,6.23,6.23,0,0,1-2.5-1.58A2.32,2.32,0,0,1,57.89,87.32Z"/><path fill="#0d0a07" d="M208.57,41c0-.94.12-1.59.76-1.76s1.12.34,1.15,1c.07,1.71,1.19,2.73,2.15,3.89s1.8,2.2,2.63,3.36a4.78,4.78,0,0,1,.66,1.63.91.91,0,0,1-.6,1,.68.68,0,0,1-.88-.21c-1.57-2.7-4-4.7-5.48-7.49A5.25,5.25,0,0,1,208.57,41Z"/><path fill="#2b2217" d="M309.78,83c0,.62-.37,1-.9,1a1,1,0,0,1-1.1-1.07.79.79,0,0,1,.87-.93A1,1,0,0,1,309.78,83Z"/><path fill="#382415" d="M248.11,110c-.6,0-1.12-.25-1.21-1a.86.86,0,0,1,.84-1,1,1,0,0,1,1.2.94C249,109.56,248.65,109.84,248.11,110Z"/><path fill="#342618" d="M322.66,146.69c0,.58-.27,1-.83,1s-1-.41-1.13-1.05a.82.82,0,0,1,.82-1A1,1,0,0,1,322.66,146.69Z"/><path fill="#32281b" d="M114.33,109a1,1,0,0,1,1.1-.78.91.91,0,0,1,.95,1.15.86.86,0,0,1-1,.83A1.22,1.22,0,0,1,114.33,109Z"/><path fill="#2b2419" d="M248.38,16.06c.21.72.25,1.46-.64,1.58s-1.21-.63-1.18-1.49c.23-.77.58-1.2,1.34-.53l0,0A1.6,1.6,0,0,1,248.38,16.06Z"/><path fill="#362518" d="M115.4,227.65c.83,0,1.46.42,1.23,1.32s-1,.85-1.73.57C114.2,228.66,114.63,228.1,115.4,227.65Z"/><path fill="#f2adcc" d="M307.44 167.08c-.65.06-1-.17-1-.64a1 1 0 01.74-1.11.78.78 0 011 .8C308.2 166.74 307.7 166.92 307.44 167.08zM277.54 228.71a.83.83 0 01.68-.9.8.8 0 011 .8.81.81 0 01-.67.9C278 229.62 277.65 229.27 277.54 228.71z"/><path fill="#3a3021" d="M164.55,71.9c.71-.33,1.57-.51,1.67.5.13,1.21-.81,1.15-1.64.92C164,72.86,164.08,72.39,164.55,71.9Z"/><path fill="#f2adcc" d="M296,223.91c0,.67-.24,1-.7,1-.64,0-.77-.56-.71-1.1s.31-.78.82-.7S296,223.67,296,223.91Z"/><path fill="#ce8730" d="M51.51,160.33c-.86.08-1.56-.25-1.34-1.22s1.18-.54,1.85-.61A1.5,1.5,0,0,1,51.51,160.33Z"/><path fill="#d9973f" d="M115.4,227.65a1.62,1.62,0,0,0-.5,1.89c-.89.05-1.56-.35-1.35-1.29S114.7,227.62,115.4,227.65Z"/><path fill="#f2adcc" d="M273.4 179.74c-.09.63-.52.77-1 .72-.3 0-.66-.11-.64-.54a.88.88 0 01.91-.89C273.11 179 273.34 179.27 273.4 179.74zM249.42 180.72a.85.85 0 01.87.75c.1.44 0 .86-.53.95s-.76-.24-.8-.71S248.92 180.85 249.42 180.72z"/><path fill="#2a1e15" d="M51.51,160.33A1.56,1.56,0,0,1,52,158.5c.91,0,1.33.53,1,1.4S52.13,160.57,51.51,160.33Z"/><path fill="#d9983e" d="M164.55,71.9l0,1.42c-.64.45-1.34.56-1.49-.4C162.89,71.73,163.81,71.86,164.55,71.9Z"/><path fill="#e49d42" d="M251.39,278.29c-.88,0-1.19-.51-.94-1.28s.87-.82,1.46-.24C252.25,277.46,251.77,277.86,251.39,278.29Z"/><path fill="#f2adcc" d="M255.38 211.67c-.42-.1-.82-.29-.71-.82a.77.77 0 011-.58.64.64 0 01.58.7A.68.68 0 01255.38 211.67zM273.9 146.07c-.08.45-.27.85-.77.76s-.61-.53-.57-1a.63.63 0 01.65-.62C273.69 145.25 273.93 145.55 273.9 146.07z"/><path fill="#2d1f16" d="M222.49,225.59c.52,0,1.12-.26,1.39.49a.72.72,0,0,1-.22.87c-.57.41-1,.15-1.4-.35A.77.77,0,0,1,222.49,225.59Z"/><path fill="#f2adcc" d="M301.94,242.6c0,.35-.13.68-.52.71a.77.77,0,0,1-.83-.7.66.66,0,0,1,.65-.84C301.66,241.76,301.92,242.13,301.94,242.6Z"/><path fill="#dc9337" d="M222.49,225.59c-.08.34-.15.67-.23,1-.66,0-1.5,0-1.22-.94S222,225,222.49,225.59Z"/><path fill="#3a1f0f" d="M251.39,278.29a1.74,1.74,0,0,1,.52-1.52c.62.06,1.17.3,1,1.06C252.73,278.86,252,278.42,251.39,278.29Z"/><path fill="#d1883c" d="M247.9,15.62l-1.34.53c-.61-.45-.59-1,0-1.33C247.33,14.36,247.65,15,247.9,15.62Z"/><path fill="#4e3e1f" d="M224.84,135.37a1.59,1.59,0,0,1-1.05-.88l.63-.68a1.32,1.32,0,0,1,.55,1A.37.37,0,0,1,224.84,135.37Z"/><path fill="#a67d44" d="M224.84,135.37c0-.18.09-.36.13-.54a1.25,1.25,0,0,1,.42,1.06Z"/><path fill="#d1883c" d="M248.38,16.06c-.26,0-.47-.16-.51-.46A.53.53,0,0,1,248.38,16.06Z"/><path fill="#dfeee5" d="M205.52,213.8a1.12,1.12,0,0,1,.68-.8A1,1,0,0,1,205.52,213.8Z"/><path fill="#fff" d="M365.76,258.78c-3.6,3.87-7.18,7.77-10.82,11.6a27.26,27.26,0,0,1-4.67,4.38,84.44,84.44,0,0,1-3-10,81.17,81.17,0,0,0-2.69-8.21A28.44,28.44,0,0,0,333.81,243c-5.47-3.75-11.4-6.63-17.22-9.72-2-1.08-4.12-2.06-6.17-3.11a29.59,29.59,0,0,1-2.79-1.6c-3.47-2.34-4.05-4.57-2.24-8.44.33-.68.72-1.34,1-2,1-2.54,1-5-.8-7.2-.71-.85-.83-1.38.05-2.3,2.28-2.41,2-3.86-.85-5.87.33-1.11,1.33-1.67,2-2.48,1.78-2.14,2.47-5.38,0-7.77-1.61-1.56-1.34-2.59.64-3.74a33.93,33.93,0,0,1,3.29-1.68,23.8,23.8,0,0,0,10.3-9.16c1.37-2.13,2.78-4.22,4.18-6.32,1-1.45,1.08-1.52,2.54-.66a12.76,12.76,0,0,1,4.7,4.39,6.88,6.88,0,0,0,.65,1.08,1,1,0,0,0,1.32.34,1.29,1.29,0,0,0,.73-1.47,6.73,6.73,0,0,0-1.61-2.83,19.14,19.14,0,0,0-5.91-4.45c3.41-6.23,8.78-10,14.57-13.87-.26,3.61-.5,6.81-.72,10a109.62,109.62,0,0,0,.06,17.38,24.21,24.21,0,0,1,.14,2.55c-.38,11.55,1.73,22.75,4.64,33.8A133.79,133.79,0,0,0,357,246.56,49.39,49.39,0,0,0,365.76,258.78Z"/><path fill="#dc912e" d="M429.47,252.91c-.15.65-.53,1-1.07.86a2.32,2.32,0,0,1-1-.65c-5.73-5.65-11-11.69-14.44-19.23a58.51,58.51,0,0,1-5-19.14c-.56-6.2-.62-12.42-1.3-18.62a39.19,39.19,0,0,0-9.27-21.84c-.17-.19-.34-.38-.49-.58-.42-.54-.94-1.15-.2-1.74s1.23-.05,1.69.48c4.76,5.46,8.37,11.56,9.65,19a109.31,109.31,0,0,1,1.59,17c.24,16.07,5.68,29.77,17,40.83.78.75,1.51,1.56,2.25,2.36A2.38,2.38,0,0,1,429.47,252.91Z"/><path fill="#db902d" d="M350.43,178.33c0-3.07,0-6.14,0-9.21a13,13,0,0,1,.07-1.53c.07-.54.31-1,.93-1s.85.49.9,1a17.31,17.31,0,0,1,.06,2c-.09,5.46.11,10.91.22,16.36a93,93,0,0,0,7.88,34.83l.6,1.4a1,1,0,0,1-.32,1.34.87.87,0,0,1-1.28-.31,8.12,8.12,0,0,1-1-1.73c-3.75-9.48-7-19.08-7.54-29.47C350.7,187.52,350.4,182.93,350.43,178.33Z"/><path fill="#da902d" d="M458.56,318.31a26.53,26.53,0,0,1-1,6.05c-2.21,7.41-5.19,14.37-11.1,19.49a18.09,18.09,0,0,1-1.75,1.39.79.79,0,0,1-1.11-.14.94.94,0,0,1,.08-1.36,12.19,12.19,0,0,1,.9-.86c7.44-7,11.12-15.8,11.91-26.07a8.43,8.43,0,0,1,.11-1,.71.71,0,0,1,.68-.61.93.93,0,0,1,.85.41C458.65,316.35,458.52,317.22,458.56,318.31Z"/><path fill="#cf8a2b" d="M453.78,295.38a.83.83,0,0,1-.55.89.8.8,0,0,1-.89-.23,12.55,12.55,0,0,1-1.75-3.85.84.84,0,0,1,.34-.89.94.94,0,0,1,1.13.12A10,10,0,0,1,453.78,295.38Z"/><path fill="#ffd49b" d="M444.68,263.09a.56.56,0,0,1,.57.5A.61.61,0,0,1,444.68,263.09Z"/><path fill="#ffd49b" d="M445.21,263.56a.63.63,0,0,1,.54.53A.62.62,0,0,1,445.21,263.56Z"/><path fill="#fff" d="M169.75 159a9.36 9.36 0 014.6-2.15 70.9 70.9 0 018.16 5.16 3.26 3.26 0 011.48 2.45 31.44 31.44 0 01.18 8.93c-.23 1.62-.5 3.34-1.61 4.48-3.43 3.5-3.33 7.82-2.74 12.19A34.19 34.19 0 00191 211.59a30.77 30.77 0 008.82 5.28c.08.25.2.42.16.54-1.74 5.41-3.32 10.87-5.27 16.21a39.84 39.84 0 01-7.24 11.77c-1.13 1.35-2.33 2.64-3.37 4.07a2.61 2.61 0 01-2.7 1.24 53.54 53.54 0 01-11.91-2.9 142.67 142.67 0 01-29.4-14.49c-1.92-1.26-4.07-2.16-5.84-3.9a126.56 126.56 0 006.63-12.83 2.62 2.62 0 011.63-1.33c9.53-3.76 17.72-9.39 23.57-18.36A56.29 56.29 0 00173 183.57a26.23 26.23 0 002.56.94 2 2 0 002.66-1.16c.33-1-.15-1.84-1.57-2.41-3.83-1.53-5.49-5-6.72-8.62A21.31 21.31 0 01169.75 159zM181.17 256.49v.25c0 2.21 0 2.26-2.2 2a74.88 74.88 0 01-12.8-2.15c-13.77-3.91-27.52-7.89-41.28-11.85l-1.18-.34c-.72-.23-.78-.71-.51-1.37a29 29 0 017.36-10.69c.89-.81 1.42-.24 2.11.23a145.28 145.28 0 0017 10.59c9 4.54 18.2 8.83 28.16 10.78.48.1 1 .23 1.44.3C181.15 254.53 181.15 254.53 181.17 256.49zM196.8 154.86c2.57 7.82 7.83 12.35 15.66 13 6.59.59 11.93-2.29 15.8-7.93.67-1 1.21-2 1.8-3 .82.94 1.6 1.93 2.47 2.82 2.21 2.28 4.81 3.69 7.93 3.39a1.3 1.3 0 01-.48 1.56c-1.8 1.72-3.41 3.84-5.51 5-6.21 3.47-12.68 6.25-20 5.29-2.18-.29-4.36-.6-6.52-1.08-6.83-1.54-10.41-6.49-12.5-13-.5-1.57.59-3 .51-4.5C196.47 156.05 195.63 154.85 196.8 154.86z"/><path fill="#dd912e" d="M124.23,164.08a40.68,40.68,0,0,1,4.17-18.48c3.32-6.78,8.22-11.6,15.32-13.78,3.83-1.17,7.66-2.38,11.52-3.48a60,60,0,0,0,15-6.26c.69-.41,1.55-1.09,2.1,0s-.41,1.55-1.09,2a54.23,54.23,0,0,1-13.05,5.76c-4.16,1.26-8.35,2.38-12.48,3.71-4.5,1.45-8.73,3.41-11.78,7.41a36.47,36.47,0,0,0-7.26,17.89c-1.42,11.1,1.58,21.08,7,30.43,1.1,1.9,2.32,3.72,3.49,5.57.26.42.58.82.8,1.27a.92.92,0,0,1-.19,1.16.87.87,0,0,1-1.13,0,3.11,3.11,0,0,1-.68-.72c-4.65-6.66-8.66-13.68-10.58-21.75A42.89,42.89,0,0,1,124.23,164.08Z"/><path fill="#fcfdfd" d="M220,132.3c-6.42-2.11-12.34-1.2-17.67,3.2-.43.08-.63-.07-.5-.54a25,25,0,0,1,8.59-6.56c1.82-.93,3.73-1.66,5.58-2.53.92-.44,1.53-.28,1.9.76A59.21,59.21,0,0,1,220,132.3Z"/><path fill="#d98f2d" d="M211.75,94.75c3.41,0,5.9,1.83,7.74,4.58a19.81,19.81,0,0,1,3,11.89,3.19,3.19,0,0,1-.6,1.91c-.31.41-.67.8-1.22.57a1,1,0,0,1-.59-1.24c.92-2.95,0-5.73-.71-8.51a9.68,9.68,0,0,0-1.42-3.24c-1.83-2.65-4.14-4.31-7.46-3.82-.73.11-1.46.17-2.17.34s-1.22,0-1.38-.64.38-1,.93-1.28A12.13,12.13,0,0,1,211.75,94.75Z"/><path fill="#fafbfb" d="M233.18,180.5a3.62,3.62,0,0,0,1.53,4.38c.55.38,1.14.74.93,1.58s-.93.75-1.56.9a9.49,9.49,0,0,1-6.2-.37c-2-.86-2.11-2-.37-3.24s3.44-2.22,5.17-3.32A.31.31,0,0,1,233.18,180.5Z"/><path fill="#cc872a" d="M192.42,108.21a2.83,2.83,0,0,1-.19.62,7.14,7.14,0,0,1-3.87,3.25.87.87,0,0,1-1.18-.55.85.85,0,0,1,.32-1.1,15.66,15.66,0,0,0,3.54-3,.77.77,0,0,1,.91-.11A.91.91,0,0,1,192.42,108.21Z"/><path fill="#cdcebb" d="M201.78,135l.5.54a8.44,8.44,0,0,1-2.5,2.48A5.57,5.57,0,0,1,201.78,135Z"/><path fill="#c2bfb7" d="M196.8,154.86c-.61.33-.34,1.19-.86,1.57a14.84,14.84,0,0,1,.06-4.21A6,6,0,0,1,196.8,154.86Z"/><path fill="#3c5050" d="M233.18,180.5l-.5-.07c.08-.36.32-.56.63-.38S233.41,180.41,233.18,180.5Z"/><path fill="#9bac9d" d="M199.8,137.94l-.51.81C199.29,138.36,199.34,138,199.8,137.94Z"/><path fill="#ffd49b" d="M107.05,257.38l.46-.55A.55.55,0,0,1,107.05,257.38Z"/><path fill="#ffd49b" d="M106.58,257.93a.71.71,0,0,1,.48-.57A.58.58,0,0,1,106.58,257.93Z"/><path fill="#ffd49b" d="M106.13,258.49a.64.64,0,0,1,.48-.6A.63.63,0,0,1,106.13,258.49Z"/><path fill="#fff" d="M400.11,331.15c-8.5,11.08-18.06,21.12-27.8,31C359.7,374.93,347.38,388,334.92,401a78,78,0,0,1-8.74,7.81c-5.67,4.36-13.13,2.55-17.55-1.68-4.63-4.44-6.46-10.05-7.17-16.34a164.44,164.44,0,0,1,.32-35.76c1.2-11.36,3-22.64,4.39-34,1-7.87,2.11-15.73,2.5-23.66a43.54,43.54,0,0,0-1-11.93c-1.37-6-5-10.23-9.66-13.71-6.77-5.09-13.69-10-20.13-15.5-5.55-4.78-11-9.71-16.21-14.88a16.74,16.74,0,0,1-3-3.7,16.5,16.5,0,0,1-1.14-2.26c-.41-1.11-1-2.48-.16-3.4s2.15-.05,3.14.45c3.12,1.58,5.64,4.05,8.26,6.36,2.81,2.49,5.61,5,8.63,7.18,5.86,4.3,12.56,6.45,19.37,8.31a77.89,77.89,0,0,1,10.08,3.15,53.53,53.53,0,0,1,5.52,2.75c6.33,3.6,9.92,9.2,11.23,16.5,1.09,6.15,1.21,12.38,1.47,18.6.5,12,.22,24.06.48,36.09a59.15,59.15,0,0,0,.59,7.65,5.12,5.12,0,0,1-1,4,31.67,31.67,0,0,0-5.25,11.46c-.18.83-.38,1.66-.49,2.5-.18,1.45.36,2.39,1.4,2.59s1.78-.49,2.18-1.94c0-.16.05-.33.08-.5a29.5,29.5,0,0,1,4.81-11.64c9-13.38,16-28,23.11-42.44,1.94-3.94,3.68-8,5.54-12a41.76,41.76,0,0,1,3.39-5.92c3.3-4.87,7.86-6.72,13.42-6a2.84,2.84,0,0,0,2.53-.49c2.36.4,4.15,2,6,3.38,5.88,4.58,10,10.56,13.18,17.48,4.28,9.42,5.41,19.37,5.19,29.61C400.15,329.79,400.13,330.47,400.11,331.15Z"/><path fill="#050301" d="M436.88,396.73c0,4.77,0,9.54,0,14.3a7.18,7.18,0,0,1-.21,2.53c-.19.5-.46.94-1,1a1.13,1.13,0,0,1-1.23-1,10.35,10.35,0,0,1-.27-2c-.33-9.71.23-19.41.5-29.11a11.44,11.44,0,0,1,.29-2,1,1,0,0,1,1-.9c.69,0,1,.48,1.07,1.15,0,.42,0,.85,0,1.27v14.82Z"/><path fill="#020100" d="M428.14,315.57a8.58,8.58,0,0,1-.1,1.2,1.14,1.14,0,0,1-1,1,1,1,0,0,1-1.16-.73,21.17,21.17,0,0,1-.71-3.23c-.7-5.48-1.27-11-3.18-16.21a35.72,35.72,0,0,0-5.14-10.11,5.13,5.13,0,0,1-.44-.6c-.3-.55-.49-1.15,0-1.64a1.16,1.16,0,0,1,1.75.1,14.17,14.17,0,0,1,1.58,1.95c3,4.27,4.67,9.13,6.1,14.13C427.22,306.09,427.18,311,428.14,315.57Z"/><path fill="#050301" d="M347.87,447.32a1.11,1.11,0,0,1-1-1.25,2.55,2.55,0,0,1,.47-1.16,30.87,30.87,0,0,1,9.86-9.77c.82-.49,1.89-1.25,2.57,0s-.44,1.81-1.27,2.32a30,30,0,0,0-8.81,8.39C349.24,446.49,348.83,447.29,347.87,447.32Z"/><path fill="#060401" d="M348.16 412.29v5.36c0 .34 0 .68 0 1 0 .81-.16 1.6-1.12 1.66s-1.27-.6-1.36-1.46c0-.25 0-.51 0-.76 0-3.91-.06-7.82-.05-11.74 0-1 0-2.34 1.3-2.32s1.14 1.37 1.14 2.38c0 1.95 0 3.91 0 5.86zM421 319c0 .89-.12 1.54-.88 1.73s-1.25-.37-1.43-1.05c-.42-1.54-.74-3.11-1.11-4.67-.41-1.72-.86-3.44-1.23-5.17-.17-.76-.2-1.6.78-1.82.77-.17 1.24.35 1.45 1A94.31 94.31 0 01421 319z"/><path fill="#080501" d="M431,429.57c-2.67,0-4.34-1.3-6.1-2.31a1.11,1.11,0,0,1-.52-1.51,1.14,1.14,0,0,1,1.41-.71,11.42,11.42,0,0,1,2.21,1c1.49.89,3,1.31,4.6.36.68-.39,1.45-.6,1.88.32s-.1,1.44-.75,1.9A4.94,4.94,0,0,1,431,429.57Z"/><path fill="#070401" d="M351.92,419c0-1.4,0-2.41,0-3.42,0-.64.35-1.13,1.06-1.12a1.07,1.07,0,0,1,1.1,1.1,38.23,38.23,0,0,1,.33,6.05c0,.75-.42,1.36-1.16,1.37s-1.15-.59-1.21-1.34C352,420.67,352,419.65,351.92,419Z"/><path fill="#020100" d="M108,314.4a68.39,68.39,0,0,1,1-14.61A28.31,28.31,0,0,1,114.76,287a5.52,5.52,0,0,1,1.83-1.67,1.12,1.12,0,0,1,1.36.13,1.3,1.3,0,0,1,.25,1.63,3.05,3.05,0,0,1-.6.8c-4.29,4.65-6,10.41-6.64,16.66-.86,8-.16,16,.27,24a106.39,106.39,0,0,0,1.06,11.7c.14.82,0,1.66-.88,1.84-1.06.22-1.34-.61-1.51-1.53a110.91,110.91,0,0,1-1.26-12.19C108.33,323.58,107.82,318.83,108,314.4Z"/><path fill="#090502" d="M136.34,279.85c-2.32-.73-4.51-.14-6.67.73a4.71,4.71,0,0,1-1.16.35,1.09,1.09,0,0,1-1.16-.75,1.12,1.12,0,0,1,.29-1.16,2,2,0,0,1,.56-.48,12.37,12.37,0,0,1,8.05-1.4,3,3,0,0,1,.71.21,1.43,1.43,0,0,1,1,1.78C137.72,280,137,280,136.34,279.85Z"/><path fill="#ffd49b" d="M378.05 63.69l-1 0C377.38 63.17 377.71 63.17 378.05 63.69zM375.05 68.84a1.05 1.05 0 01-.44 1A1.07 1.07 0 01375.05 68.84zM375.57 67.29a1.2 1.2 0 01-.44 1.08A1.07 1.07 0 01375.57 67.29zM376.06 65.75a1.24 1.24 0 01-.43 1.12A1.07 1.07 0 01376.06 65.75zM376.6 64.22a1.39 1.39 0 01-.48 1.09A1 1 0 01376.6 64.22zM377.09 63.71l-.51.52zM378.54 64.21l-.48-.52h.48z"/><path fill="#fff" d="M120.26,410.49a23.84,23.84,0,0,0,9.32-1.71c14.3-5.11,28.84-9.36,43.38-13.6,1.33-.39,2.64-.88,4.24-1.42a16,16,0,0,1,.87,6.82,4.59,4.59,0,0,1-2.86,3.59,44.83,44.83,0,0,1-4.6,1.75c-8.5,2.74-17.18,4.82-25.64,7.73a116.74,116.74,0,0,1-14.61,4.26,16.18,16.18,0,0,1-3.17.28,4.34,4.34,0,0,1-3.29-1.44A19.18,19.18,0,0,1,120.26,410.49Z"/><path fill="#ffd49b" d="M405.68 125.23l-.57.6A.72.72 0 01405.68 125.23zM406.49 125.22l-.23 0-.22-.09C406.23 124.86 406.38 124.9 406.49 125.22z"/><path fill="#ffd49b" d="M407 125.62a.52.52 0 01-.53-.42zM446.78 171.78a1 1 0 01.52-1A1 1 0 01446.78 171.78zM447.75 170.24l.48-.54zM447.32 170.77a.62.62 0 01.44-.54z"/><path fill="#fcd197" d="M403.81,137.19a3.11,3.11,0,0,1-.07,2.63,14.55,14.55,0,0,0-4.36-.91c-.63,0-.79-.57-.65-1.09a18.24,18.24,0,0,0,.54-3.75c.05-.84.49-1.18,1.33-.81s1.92.37,2.63,1.16C402.84,135.48,402.24,136.58,403.81,137.19Z"/><path fill="#f3c894" d="M406.88,130.42c.08-.57.16-1.15.24-1.77l4.49,1.23a17.94,17.94,0,0,0-1.28,4.44c-.1.89-.81.55-1.34.44C409,132.92,406.53,132.42,406.88,130.42Z"/><path fill="#d2882d" d="M406.88,130.42c.15.64.23,1.19,1.09,1.38,1.48.32,1.47.44.9,2-.14.36,0,.63.12.94h-3.31Z"/><path fill="#fff" d="M228.43,154.42A15.24,15.24,0,0,1,199.88,157a16.92,16.92,0,0,1,2.19-18.15,15.08,15.08,0,0,1,17.18-4.44,3.92,3.92,0,0,1,2.46,1.9c1.76,1.4,2.08,3.62,2.72,5.56C225.8,146.05,227.31,150.17,228.43,154.42Z"/><path fill="#040302" d="M228.43,154.42a18.87,18.87,0,0,1-2.55-5.7,109.43,109.43,0,0,0-4.17-12.4.67.67,0,0,1,.87,0C228.46,140.25,230.74,149.5,228.43,154.42Z"/><path fill="#f2adcc" d="M289.67 180c-1.16-.1-2.48.2-3.73-.42s-2.32-2-2-2.85 2-1.24 3.51-.47a4.92 4.92 0 01.83.54c.61.49 1.33 1 2 .36a2.19 2.19 0 00.5-2.56 5.65 5.65 0 01-.62-2.71c0-.57-.11-1.27.61-1.5a1.52 1.52 0 011.54.57 4.92 4.92 0 011.14 2.77 10.93 10.93 0 01.11 2.29C293.48 180.71 294 179.9 289.67 180zM262.28 168.14a5.73 5.73 0 012.38.45 1.39 1.39 0 001.58-.38 1.53 1.53 0 000-1.88 9.42 9.42 0 01-1.5-2.9 1.47 1.47 0 01.47-1.61c.65-.43 1.06.11 1.47.5a4.51 4.51 0 011.19 1.9 19.23 19.23 0 01.68 2.44c.76 4 .75 4-3.19 4.16a11.54 11.54 0 00-1.93.29 4.26 4.26 0 01-2.15-.23 1.58 1.58 0 01-1.32-1.6c0-1 .86-1.1 1.62-1.14zM255.43 198.93c-.74 0-1.47 0-2.2 0a.59.59 0 01-.62-.63.83.83 0 01.56-.76 2.64 2.64 0 011-.16 6.44 6.44 0 011.45.22c.87.23 1.82.66 2.44-.36s-.23-1.74-.69-2.51c-.25-.43-.54-.85-.75-1.31s-.51-1.17.21-1.53c.52-.26 1 .08 1.25.53 1 1.6 1.22 3.49 1.58 5.32.09.48-.38.65-.79.79A9.77 9.77 0 01255.43 198.93zM289.46 208.89c-1.77.27-3.43.56-5.1.78a5.29 5.29 0 01-1.68-.11.81.81 0 01-.7-.89c0-.38.35-.52.65-.66a1.75 1.75 0 011.41-.18c.84.33 1.58.35 2.12-.55s.91-1.81.18-2.81a4 4 0 01-.5-.85.74.74 0 01.2-.91.83.83 0 01.91 0 2.41 2.41 0 01.93 1.14A16.87 16.87 0 01289.46 208.89z"/><path fill="#fed39a" d="M99.6,74.44c-.36,2.48-.14,2.75,2.23,2.63a6.93,6.93,0,0,1,2.36,0,17.23,17.23,0,0,0-.68,4.52c0,.71-.33,1.31-1,.93-2.47-1.34-5.07-1-7.67-.85a4.37,4.37,0,0,1-.88-.18c.65-2.88,1.51-5.7.65-8.92Z"/><path fill="#f7cf96" d="M102.51,72.45c.09-1.16.17-2.33.27-3.66,2.35.65,4.52,1.37,7.23.61-.4,1.38-.7,2.45-1,3.51a1.18,1.18,0,0,1-.73.29,19.15,19.15,0,0,0-3.38.24C104,73.54,102.9,73.82,102.51,72.45Z"/><path fill="#d68a2e" d="M102.51,72.45c1,.76,2,.46,3,.21s2-.69,3,.25A2.39,2.39,0,0,1,108,75.3a15.87,15.87,0,0,0-6-.39A3.91,3.91,0,0,1,102.51,72.45Z"/><path fill="#ebbb81" d="M108,75.3c-.21-.88.48-1.56.49-2.39H109c0,.64.06,1.29,0,1.94S108.5,75.49,108,75.3Z"/><path fill="#fed399" d="M333.89,66.76c-.38,1.46-.77,2.92-1.21,4.61-2-1.38-4.19-1.49-6.44-2.14.86-2.25,1.81-4.39,1.74-6.82,1.51-.24,2.58.9,3.87.82.08.72-.41,1.22-.65,1.82-.62,1.56-.5,1.74,1.36,2l.09,0A1.88,1.88,0,0,1,333.89,66.76Z"/><path fill="#f4cc95" d="M335.13,58.81a15.82,15.82,0,0,0,6.37,1.44c-.24.92-.48,1.72-.67,2.53-.48,2.14-.47,2.14-2.54,1.46-.57-.77-.84-1.77-2-2C334,61.88,334.36,60.38,335.13,58.81Z"/><path fill="#da8f2f" d="M335.13,58.81c-.1.5-.21,1-.28,1.48-.12,1,.32,1.43,1.25,1.36h.24c2.2.21,2.2.21,2,2.59l-3-.1c-.34-.32-.91,0-1.2-.48a17.28,17.28,0,0,0,.4-4.24C334.49,59,334.48,58.51,335.13,58.81Z"/><path fill="#d3a96d" d="M334.08,63.66c.43.08.93,0,1.2.48C334.83,64.1,334.12,64.79,334.08,63.66Z"/><polygon fill="#de9330" points="332.65 67.05 332.65 67.17 332.56 67.1 332.56 66.98 332.65 67.05"/><path fill="#fcd098" d="M431.67,203.15c-.15.29-.26.65-.68.57-2.05-.35-3.29-2.43-2.86-4.81a3.83,3.83,0,0,1,4.44-2.93c.39.1.38.5.48.8A7.09,7.09,0,0,0,431.67,203.15Z"/><path fill="#f7cc94" d="M437.35,197.42c2.51.42,3.89,2.18,3.44,4.39s-2.27,3.31-4.79,2.76A45.53,45.53,0,0,1,437.35,197.42Z"/><path fill="#db9232" d="M437.35,197.42a9.55,9.55,0,0,1-1.35,7.15,2.29,2.29,0,0,1-1.9-1.61c.69-1.6.52-3.46,1.37-5A1.67,1.67,0,0,1,437.35,197.42Z"/><path fill="#f4ca92" d="M435.47,198c0,1.82.49,3.76-1.37,5-1.13-1.77-.7-3.3.67-4.69l.11-.07Z"/><polygon fill="#db9232" points="434.88 198.2 434.88 198.31 434.77 198.27 434.78 198.15 434.88 198.2"/><path fill="#f4c990" d="M87.76,153.83c2.09.34,3.19,1.57,3,3.34S89.26,160,87,159.92C87,157.85,87.62,155.88,87.76,153.83Z"/><path fill="#fbd096" d="M82.61,158.54c-.14.19-.3.57-.41.56-1.48-.19-2.49-1.93-2.15-3.64a2.5,2.5,0,0,1,3.5-2.1A6.83,6.83,0,0,0,82.61,158.54Z"/><path fill="#da902f" d="M87.76,153.83c.87,2.19.22,4.17-.81,6.09A2.3,2.3,0,0,1,85,158.44c.57-1.28.42-2.73.89-4A1.67,1.67,0,0,1,87.76,153.83Z"/><path fill="#ddb67d" d="M85.91,154.41c.5,1.53.71,3-.89,4C84.25,156.26,84.32,155.93,85.91,154.41Z"/><path fill="#fad096" d="M221.52,267.54a3.11,3.11,0,0,1-3.82.67,3.5,3.5,0,0,1-2.09-3.2,3.81,3.81,0,0,1,2-3.3c.65-.41,1.27-.4,1.34.68,0,.65-.2,1.38.36,1.93C219.58,265.74,220.71,266.53,221.52,267.54Z"/><path fill="#f5cc94" d="M222.67,260.39c2.1-.92,3.42-.58,4.23,1.1s.32,2.78-1.49,4.11a.93.93,0,0,1-1.46-.71C223.67,263.33,222.69,262,222.67,260.39Z"/><path fill="#d98f32" d="M222.67,260.39c.9,1.29,1.89,2.52,1.78,4.28,0,.62.46.81,1,.93-1.17.79-2.15.38-3-.52-.51-.8-.33-1.86-.91-2.63A2.09,2.09,0,0,1,222.67,260.39Z"/><path fill="#e0b177" d="M221.45,262.45c1.09.58,1.06,1.58.91,2.63A2.27,2.27,0,0,1,221.45,262.45Z"/><path fill="#fbcf95" d="M313.27,120c-3.16-.52-4.58-2.73-3.36-5.24a2.63,2.63,0,0,1,3.35-1.47A6.16,6.16,0,0,0,313.27,120Z"/><path fill="#d79235" d="M315.64,114.25c.75-.57,1.51-1.07,2.47-.49.87,2,1.12,3.92-.39,5.73a2.19,2.19,0,0,1-2.55-.93A18.37,18.37,0,0,0,315.64,114.25Z"/><path fill="#f3c990" d="M317.72,119.49c.67-1.87.4-3.81.39-5.73,2.64,1.47,2.85,3.24.64,5.38a1.46,1.46,0,0,0-.59.31l-.22.08Z"/><path fill="#e5be89" d="M315.64,114.25c1,2.28.88,3.16-.47,4.31C314,116.35,314,116,315.64,114.25Z"/><path fill="#d79235" d="M318.16,119.45a.53.53,0,0,1,.59-.31A.44.44,0,0,1,318.16,119.45Z"/><path fill="#040303" d="M333.58,232.47a31.65,31.65,0,0,1-4-.81c-1.92-.4-3.85-.72-5.78-1.09a11.44,11.44,0,0,1-1.43-.34,1.13,1.13,0,0,1-.79-1.39,1,1,0,0,1,1.07-.84,25.9,25.9,0,0,1,3.41.33c2,.36,4,.84,6,1.24,4.15.84,6.18-.07,8.54-3.76.27-.42.53-.86.83-1.26a1.3,1.3,0,0,1,1.94-.39,1.37,1.37,0,0,1,.22,1.86C341.51,229.76,339.38,232.52,333.58,232.47Z"/><path fill="#050505" d="M324.48,185.37c-.1.83.87,2.13-.46,2.53s-1.9-.74-2.34-1.73a2.45,2.45,0,0,0-1.4-1.29,1.15,1.15,0,0,1-.65-1.47,1.21,1.21,0,0,1,1.36-.83,3.87,3.87,0,0,1,.49,0c3.31.61,6.27-.48,9.14-2l1.3-.7a1.21,1.21,0,0,1,1.57.2,1.16,1.16,0,0,1,.09,1.6c-.26.39-.61.61-.54,1.28.19,1.69-.29,2.06-1.81,1.63-.61-.17-1.12-.76-1.83-.49s-1.5.33-.93,1.47a1.05,1.05,0,0,1-.38,1.35,1.23,1.23,0,0,1-1.58-.2,8,8,0,0,1-.87-.88C325.37,185.52,325.12,185.19,324.48,185.37Z"/><path fill="#1d1919" d="M336.74,191.65c.64.09,1.08.4,1,1.12a1,1,0,0,1-1.09,1.06c-.69,0-1-.45-1-1.12A1,1,0,0,1,336.74,191.65Z"/><path fill="#0b0a0a" d="M173.17,167.31a2.31,2.31,0,0,1,1-2.2,1.31,1.31,0,0,1,1.6,0,1,1,0,0,1,.31,1.36c-.85,1.62,0,2.74,1,3.81.55.59,1,1.18.33,1.95s-1.36.37-2-.06A6.54,6.54,0,0,1,173.17,167.31Z"/><path fill="#1c1a1a" d="M179.31,166.41A1.79,1.79,0,0,1,181,168.2a1,1,0,0,1-1,1.14,1.83,1.83,0,0,1-1.67-1.77A1.17,1.17,0,0,1,179.31,166.41Z"/><path fill="#070606" d="M143.85 246.53a50.56 50.56 0 01-11.42-4 1.91 1.91 0 01-1-1.07 1.13 1.13 0 011.51-1.48c3.57 2 7.49 2.88 11.36 3.94.76.21 1.46.6 1.37 1.52S144.84 246.62 143.85 246.53zM318.48 406.4a11.73 11.73 0 01-6.12-2.47c-.62-.48-1.18-1-.69-1.9s1.21-.67 1.91-.25 1.1.72 1.68 1c2.08 1.09 4.16 1.45 6.23-.07.7-.52 1.52-.92 2.07.1s-.07 1.63-.77 2.16A7.35 7.35 0 01318.48 406.4z"/><path fill="#070505" d="M128.74,414.94c-.68-.05-1.36-.18-1.51-1-.18-1,.48-1.34,1.28-1.48a58.62,58.62,0,0,0,12.32-4.16A3.69,3.69,0,0,1,142,408a1.11,1.11,0,0,1,1.09.87,1.08,1.08,0,0,1-.29,1.16,3.32,3.32,0,0,1-1,.71,51.39,51.39,0,0,1-12.33,4.06C129.22,414.83,129,414.89,128.74,414.94Z"/><path fill="#0d0b0b" d="M165.78,404c-.89.06-1.53-.11-1.68-.93a1.24,1.24,0,0,1,.86-1.37c1.56-.72,3.12-1.44,4.68-2.18a1.09,1.09,0,0,1,1.5.4,1.11,1.11,0,0,1-.25,1.59A13.49,13.49,0,0,1,165.78,404Z"/><path fill="#010101" d="M211,145.3c.21-1.48,0-2.77.43-4,.85-2.39,2.64-3.49,5-2.87a7.58,7.58,0,0,1,5.35,5.46,18.42,18.42,0,0,1,.08,10.33c-.54,2.14-1.5,4.13-1.94,6.32a1.49,1.49,0,0,1-2.63.91c-2.83-2.43-6.17-3.76-9.52-5.11a13.53,13.53,0,0,1-5.36-3.93c-1.3-1.57-2.1-3.28-1.1-5.37a4.83,4.83,0,0,1,5-2.92A20.91,20.91,0,0,1,211,145.3Z"/><path fill="#e04395" d="M211.6,149.61a3.66,3.66,0,0,1,.68.25c.59.37,1.22.65,1.82.15s.52-1.36.29-2.12a12,12,0,0,1-.71-4.51c.21-2.32,1.48-2.94,3.35-1.69a6.18,6.18,0,0,1,2.42,3.72,15.24,15.24,0,0,1-.16,8.07c-.41,1.53-1,3-1.66,4.81-3.06-2.36-6.46-3.33-9.63-4.85a10.37,10.37,0,0,1-3.86-3.07,2,2,0,0,1-.54-2.09,2.16,2.16,0,0,1,2.08-1.51c2.14.1,4.24.38,5.58,2.48-1.62.89-3-1.12-4.81-.31.25,1.38,1.33,1.84,2.33,2.23a33.36,33.36,0,0,1,7.11,3.33c.48.34,1.21.68,1.31-.26.35-3.17,1.14-6.39-.48-9.46a.77.77,0,0,0-.93-.46c-.07,1.8.63,3.61.27,5.45a2.14,2.14,0,0,1-2.63,2C212.36,151.59,211,151.4,211.6,149.61Z"/><path fill="#f2abcc" d="M211.6,149.61c.22,1.6,1.35,1.8,2.55,1.66s1.41-1.22,1.42-2.3a8.88,8.88,0,0,0-.33-3,5.41,5.41,0,0,1-.17-2.53c.09-.71.55-.8,1-.42a4.86,4.86,0,0,1,1.82,2.94,10.48,10.48,0,0,1,.43,2.51,44.15,44.15,0,0,1-.82,7.71,10.42,10.42,0,0,1-2.61-1.55,27.49,27.49,0,0,0-6.09-2.67,6.12,6.12,0,0,1-2.88-1.84c-.4-.47-.91-1.1-.41-1.82s.95-.44,1.55-.37a22.12,22.12,0,0,1,4.15,1.35Z"/></g></g></svg>