<svg xmlns="http://www.w3.org/2000/svg" viewBox="0 0 381.09 501.47"><g data-name="Layer 2"><g data-name="Layer 1"><path fill="#fff" d="M138.73,230.46l-33.1-32.34s-21.95,11.16-30.42,35.8-13.08,68.53-13.08,68.53L54.81,366S37.49,483.76,41.72,501.47c0,0,19.64-15.78,48.51-8.85a389.78,389.78,0,0,0,44.8,7.79,45.57,45.57,0,0,0,18.89-1.79c10.46-3.27,28.53-7.73,40.25-4.08,17.32,5.39,50.81-1.92,50.81-1.92s32.72-13.48,57-6.55L285.4,432.18,271.93,421l10-9.62-37-36.57-40-96.24Z"/><path d="M281.2,404.35a6.2,6.2,0,0,0-.92,2.36c.42.18.8.33,1.17.51a3.39,3.39,0,0,1,2,3.95,9.56,9.56,0,0,1-2.89,5.24,19.87,19.87,0,0,1-5.07,3.69c-.36.17-.83.23-1,.8a10.41,10.41,0,0,0,2.6,1.53c5.33,2.71,9,6.75,10.43,12.69a8.8,8.8,0,0,0,2.43,4.34,5,5,0,0,1,.8,1,1.42,1.42,0,0,1-.11,1.75,1.44,1.44,0,0,1-1.9.33,5.44,5.44,0,0,1-1.27-1.08,11.88,11.88,0,0,1-3-5.46,15.59,15.59,0,0,0-8.73-10.67,27.62,27.62,0,0,1-3.79-2.22c-2.17-1.57-2.09-3.43.23-4.79,2-1.21,4.21-2.2,5.93-3.91a7.75,7.75,0,0,0,2.06-3.12c.3-.91,0-1.31-1-1.36A4.77,4.77,0,0,0,278,410a9.93,9.93,0,0,1-3.76.11c-4.48-.76-8.93-.06-13.38.28-6.57.51-13.14.51-19.72.52-9.79,0-18.6-3.32-27.32-7.24-11.62-5.23-22.6-11.63-33.63-18-6-3.45-12.1-6.71-17.84-10.6-.23-.15-.47-.29-.71-.43-1.77-1-1.77-1-2.75.77-.74,1.35-1.56,2.66-2.21,4-4.72,10-11.41,18.72-17.86,27.61a28.82,28.82,0,0,1-2.67,2.78,20.84,20.84,0,0,0,4.5,3.18A120.35,120.35,0,0,0,168,424.51c7.43,2,14.92,3.68,22.45,5.24,10.74,2.22,21.32,5.11,31.9,8a129.67,129.67,0,0,1,17.53,5.64,49.44,49.44,0,0,1,9.32,5.2c7.39,5.31,15.11,10.09,22.79,14.95a33.23,33.23,0,0,0,5,2.64,10.51,10.51,0,0,0,3,.82c1.06.1,2-.06,2.42-1.17a1.73,1.73,0,0,1,1.2-1.08c.57-.33,1-.1,1.24.42.74,1.66.67,2.19-.42,3.36a5.36,5.36,0,0,1-5.17,1.6,19.82,19.82,0,0,1-5.87-2.15c-3.24-1.68-6.23-3.75-9.3-5.69-5.79-3.66-11.54-7.39-17.12-11.38-5.36-3.83-11.42-6.17-17.69-7.94-15.06-4.25-30.14-8.42-45.52-11.38-2.6-.51-5.16-1.24-7.74-1.86-.46-.1-.94-.15-1.53-.24-1.36,9.45-4.94,18.27-6.57,27.57-1.29,7.3-2.77,14.57-3.4,22a46.23,46.23,0,0,0,.23,12.76,13.74,13.74,0,0,0,2.38,6,3.12,3.12,0,0,1,.47.69,1.55,1.55,0,0,1-.44,2.06,1.45,1.45,0,0,1-1.92-.17,6.8,6.8,0,0,1-.94-1.12,15.27,15.27,0,0,1-2.47-6,36.7,36.7,0,0,1-.72-11.06,201.57,201.57,0,0,1,8.13-43,82.06,82.06,0,0,0,2.14-8.75c.32-1.66.27-1.72-1.35-2.14a116.39,116.39,0,0,1-26.34-10.11c-2.33-1.26-4.63-2.57-6.85-4-.84.41-1.2,1.22-1.78,1.81a6.62,6.62,0,0,1-7.1,1.85c-4.07-1.23-7.23-3.86-10.2-6.77a4.14,4.14,0,0,1-1.37-2.52c-.55-1.21.32-2,.91-2.82,5.49-7.48,10.61-15.23,16.07-22.75a190.52,190.52,0,0,1,20.35-23.6,6,6,0,0,1,3.53-2.08,10.67,10.67,0,0,1,8.78,13.54A2.32,2.32,0,0,0,167.2,374c4.45,2.77,9.12,5.17,13.69,7.75,1.25.7,1.78.09,2.14-1a40.37,40.37,0,0,0,1.73-10.95c.43-10.43-.51-20.79-1.5-31.16a56.16,56.16,0,0,1,.1-11.52c.39-3.68,0-7.41.59-11.08a11.65,11.65,0,0,1,.13-1.46c1.82-6,.54-11.92-.57-17.81-1.35-7.14-3.23-14.18-4.39-21.36-.2-1.2-.76-2.49.46-3.52,1.73-.45,2.55.54,3.11,1.95a3.38,3.38,0,0,1,.18.62,8.11,8.11,0,0,0,.4,1.52c1.84,9.09,4.52,18,5.73,27.57,4.25-5.95,10.09-10.05,14.24-15.72a3.26,3.26,0,0,1,2-1.46,1.7,1.7,0,0,1,1.87,1.24,3.14,3.14,0,0,1-.8,2.71,38.46,38.46,0,0,1-4.56,5.47,84.77,84.77,0,0,0-9.5,10.62A22.54,22.54,0,0,0,188,318.92c-.35,5.73-.25,11.45-.36,17.18-.09,5,.63,9.9,1.08,14.84.85,9.36,1,18.69-.71,28a28.5,28.5,0,0,1-1.24,4.45,1.67,1.67,0,0,0,.79,2.3c12.48,7.22,25.09,14.18,38.73,19a46.63,46.63,0,0,0,15.25,2.47,222.6,222.6,0,0,0,27.2-1.21c1.95-.23,3.88.41,5.85.38a2.42,2.42,0,0,0,2.56-1.88,293.2,293.2,0,0,1,13.17-28.32q2.77-5.29,5.6-10.56c.42-.79.69-1.45-.32-2.13-4-2.71-5-6.83-5.36-11.3-.45-5.91,1-11.52,2.73-17.09,2.07-6.76,3.85-13.59,5.4-20.48,2.5-13.3.93-25.94-5.9-37.81-4.21-7.31-8.87-14.39-12.09-22.24a62.1,62.1,0,0,1-2.18-5.89A6.4,6.4,0,0,1,278,248c-.07-.31-.19-.61-.29-.92-2.19-7.06-2.95-14.34-3.49-21.68a85.16,85.16,0,0,0-5.37-25.35,26.43,26.43,0,0,1-2.15-7.65,2.27,2.27,0,0,0-1.33-2c-7.42-3.9-13.84-9.2-20.17-14.62-4.61-3.95-9.49-7.62-13.3-12.44-.83-1-1.6-1.58-2.34.09a2.27,2.27,0,0,1-.91.85c-.93.58-.85,1.2-.35,2.1,1.43,2.63,1.13,4.47-1.24,6.23-2.88,2.13-4,4.65-2.86,8.17,1.23,3.8-.54,7.29-1.5,10.81a26.74,26.74,0,0,1-3.87,8.57,10.88,10.88,0,0,0-1.25,2.42c-1,2.59-.24,4.37,2.3,5.39.9.37,1.86.62,2.76,1a5.6,5.6,0,0,1,3.9,5c.11,1.83,1.09,2.21,2.6,2.22a21.33,21.33,0,0,0,3.74-.44,9.92,9.92,0,0,1,2.72-.05c2.61.33,3.73,2.36,2.59,4.71-1.07,2.19-3,3.42-5,4.59s-2,1.12-.13,2.26c3,1.82,3.37,3.38,1.62,6.42-.45.79-.75,1.65-1.17,2.46-1.84.7-2.94.19-3.66-1.73,1.32-2.39.73-3.91-1.68-5.43-2.19-1.38-1.83-4.47.25-6.13,1.21-1,2.71-1.46,4.33-2.58a25.26,25.26,0,0,1-5,.2c-3.33-.25-4.78-1.59-5.16-4.87a3.09,3.09,0,0,0-2.28-2.93c-.33-.1-.66-.22-1-.34-6.16-2.15-8.11-7-5-12.81,1.19-2.21,2.73-4.22,3.68-6.58.52-1.31.37-1.61-1.18-1.57a210.13,210.13,0,0,1-21.59-.12,8.93,8.93,0,0,0-5.81,1.42,45.2,45.2,0,0,0-9.64,9c-.94,1.16-.95,2.19.19,3.08,3.93,3.07,4.65,6.91,2.83,11.39-.51,1.24,0,2,1.08,2.54,4.55,2.47,8.83,5.39,13.19,8.18,1.23,1.07,1.16,2.39.77,3.78-.89,1-1.64.2-2.36-.23-11.11-6.63-22.35-13-33.25-20-6.89-4.41-14-8.48-21.16-12.43a4.83,4.83,0,0,1-1.36-1,2.24,2.24,0,0,1,.92-3.34c1.23-.25,2.13.5,3.1,1,10.78,5.94,21.28,12.34,31.64,19,.59.38,1.22.69,1.8,1.08,1.07.73,1.63.4,1.91-.8a5.1,5.1,0,0,0-1.06-5.15c-7.76-9-17.13-16-27-22.36-7.06-4.54-13.86-9.46-21.52-13-2-.91-4-1.67-6-2.57-1.07-.49-1.72-.37-2,.87a9.19,9.19,0,0,1-.67,2.2c-1.6,3.24-1.39,6,2.07,7.82a7.18,7.18,0,0,0,2.3,1.75,1.84,1.84,0,0,1,.81.93,2.73,2.73,0,0,1-1.52,3,2.25,2.25,0,0,1-1.56-.53c-5.35-4-10.42-8.23-14.35-13.71-2.42-3.38-3.61-7.23-4.64-11.17-.16-.63-.08-1.72-.88-1.7-1,0-1.07,1.15-1.22,1.94-.21,1.18.13,2.37-.06,3.56-.55,3.33-3.41,5-6.35,3.33-2.75-1.58-5.39-2.92-8.67-2.3a20.72,20.72,0,0,0-10.53,5.34c-3.21,3-6.32,6.14-10.41,8a2.88,2.88,0,0,0-1.71,2.88c0,2,.4,2.4,2.32,1.87A10.42,10.42,0,0,1,74,186a25.56,25.56,0,0,0,14.22,2.51c6.36-.66,12,1.59,16.67,6a76.49,76.49,0,0,1,8.06,8.24c.06,1.67-.85,2.39-2.41,2.47a4,4,0,0,1-1.71-1.25,6.72,6.72,0,0,1-1.56-2,12.77,12.77,0,0,0-2.2-2.13c-1.39,1.11-2.81,2.21-4.18,3.37q-5.19,4.41-10.35,8.88a38.63,38.63,0,0,0-8.14,10.07,102.88,102.88,0,0,0-12,33.37c-2.42,13.27-4.41,26.62-6.22,40-1,7.62-1.76,15.28-2.66,22.92C60.78,324.6,60,330.77,59.25,337c-1,8.54-1.85,17.1-2.81,25.65-1.45,12.85-2.37,25.77-4.24,38.58C51,409.77,49.71,418.35,48.76,427c-.77,6.95-1.47,13.91-2.37,20.84-1,7.49-1.81,15-2.71,22.5q-1.07,8.85-1.35,17.78a38.29,38.29,0,0,0,1,10.61,7.56,7.56,0,0,1,.14.83,1.44,1.44,0,0,1-1,1.67,1.46,1.46,0,0,1-1.77-.75A5,5,0,0,1,40,498.5a45.53,45.53,0,0,1-.84-10c.1-6.58.77-13.12,1.45-19.66,1.48-14.12,3.71-28.15,5-42.3.24-2.78.7-5.55,1-8.32a6.33,6.33,0,0,0,.11-2.08,4.81,4.81,0,0,1,0-3.09c1.52-10.09,3-20.2,3.93-30.36,1-11.55,2.43-23.06,3.59-34.6,1.1-11,2.63-21.92,3.83-32.9,1.87-17.17,4.4-34.24,7-51.31,1.83-11.94,4.56-23.61,9.51-34.68,1.43-3.19,3.34-6.12,5-9.17,4.16-8.12,11.47-13.19,18.19-18.82.91-.77,1.86-1.49,2.81-2.2,1.19-.89,1.33-1.59,0-2.58a15.56,15.56,0,0,0-9.4-3.62,2.86,2.86,0,0,1-2-.47c-1,0-2.09,0-3.14,0a23.46,23.46,0,0,1-11.45-2.08c.14,1.65-.85,2.18-2.13,2.57a7.9,7.9,0,0,1-5.88-.58c-3.21-1.49-5.49-3.71-6.2-7.35-.66-3.34.58-6.46,3.63-7.9a27.05,27.05,0,0,0,7.85-5.83,26.28,26.28,0,0,1,15.25-8.07c.82-.12,1.66-.18,2.49-.26,1.85-.76,3.43.18,4.95.94,2.66,1.32,2.61,1.39,2.91-1.44a8.7,8.7,0,0,1,2.84-5.69c2.63-2.41,5.75-1.69,7,1.64.57,1.51.83,3.1,1.25,4.66A24.75,24.75,0,0,0,114.74,174c1.22,1.25,1.38,1.23,2-.46.56-1.51.92-3.08,1.35-4.63.71-2.59,1.9-3.29,4.49-2.64a20.38,20.38,0,0,1,3.72,1.42c1.45.68,2.35.26,3.11-1.05a45.49,45.49,0,0,0,5-12.2c2.87-12,2.07-23.84-1.55-35.6-1.89-6.15-3.51-12.37-3.47-18.91.06-9,3.93-16.2,10.71-21.85a38.6,38.6,0,0,1,15.11-7.49,104.45,104.45,0,0,1,24.89-3.25c2.93,0,5.86-.31,8.77-.64a18.65,18.65,0,0,1,3.95.12,28,28,0,0,0,6.47,0c4,.08,7.9-.91,11.82-1.57s8-1.43,12-2.07c7.06-1.15,12.61,1.73,16.18,9.13,2.11,4.38,1,8.76-1.49,12.78a38,38,0,0,1-2.39,3.16c-1.26,2.3-3.32,3.75-5.45,5.12A53.7,53.7,0,0,1,223,97.25c-1.21.54-1.53,1.26-.94,2.47,3.66,7.48,4.91,15.57,6.09,23.68a14.33,14.33,0,0,1,.25,3.13c-.33,4.62,1.27,8.65,3.72,12.44a9.93,9.93,0,0,0,1.79,2,1.44,1.44,0,0,0,2.07.09c9.72-7.82,21.47-9.75,33.27-11.55a42.07,42.07,0,0,1,23,3.06,46.32,46.32,0,0,1,13.87,9.31A93,93,0,0,1,332.38,187c1.77,6.78,3.4,13.59,3.77,20.6a120.3,120.3,0,0,1-.12,17,78,78,0,0,0-.12,10.48,92,92,0,0,0,4.48,25.53c1.91,5.64,3.61,11.33,5.22,17.06,1.77,6.29,3.41,12.66,3.5,19.15.14,8.9.9,17.92-1.8,26.67-3.34,10.77-8.57,20.29-17.3,27.73a80.78,80.78,0,0,1-10,7.56,29.67,29.67,0,0,1-11.56,4.19,29.34,29.34,0,0,1-3.3.6c-3.32.11-5,2-6.29,4.89-2.18,4.91-4.77,9.65-7.18,14.47-3.16,6.31-6.08,12.75-9,19.18A6.3,6.3,0,0,1,281.2,404.35Z"/><path fill="#7f5da4" d="M156.79,357.81a7.43,7.43,0,0,0-3,2.18,221.63,221.63,0,0,0-28.08,34.94c-2,3-4.21,5.75-6.29,8.65a19.86,19.86,0,0,0-3,5,17.65,17.65,0,0,1-10.24-5.69,41.52,41.52,0,0,1-7.73-13.82,125.27,125.27,0,0,1-7.24-32.84c-.73-9.34-1.23-18.69-1.17-28.06,0-4.61,0-9.23,0-13.84.14-9.23.23-18.46.53-27.68a133.54,133.54,0,0,1,.94-15.47,49.65,49.65,0,0,1,10.85-23.94c5.39-6.76,12.26-11.39,20-14.81a22.23,22.23,0,0,1,12.88-1.89c.7.4,1.27-.25,1.92-.25a47.05,47.05,0,0,1,5.12,4.54c4.42,4.36,8.79,8.75,13.16,13.16,1.87,1.87,4.16,3.27,5.83,5.35.18.38.34.76.53,1.13s.43.78.63,1.19c1.7,3.69,2.05,7.69,2.46,11.64,1,9.79,0,19.53-.66,29.29C162.88,317.16,160,337.49,156.79,357.81Z"/><path fill="#dcbbff" d="M281.2 404.35a74.11 74.11 0 013.63-8.45c4.61-10.35 10-20.29 15-30.48a3.08 3.08 0 012.64-2c2.49-.33 4.94-1 7.42-1.37a24.27 24.27 0 008.23-3c14.93-8.54 24.94-20.91 29.15-37.73 1.74-6.92 1.82-14 1.59-21.06-.31-9.66-2.61-18.94-5.31-28.16-1.71-5.83-3.87-11.51-5.38-17.42A87.6 87.6 0 01335.43 233c0-4.62.06-9.24.31-13.85.59-11.17-1.21-22-4.09-32.74a95.3 95.3 0 00-21.36-39.46C305 141 299 136 291.6 133a41.48 41.48 0 00-23.84-2.63c-5.56 1-11.18 1.74-16.6 3.47a43.47 43.47 0 00-15.94 8.59 5 5 0 01-.67.39c-3.88-4.22-6.53-8.87-6.8-14.85-.44-9.76-2.14-19.3-6.35-28.24a8.1 8.1 0 00-.45-.94c-.56-.84-.19-1.2.62-1.54 1.23-.5 2.41-1.12 3.59-1.72a43.62 43.62 0 0010.18-7.29c.07.57.51.8 1 1a123 123 0 0011.55 4.84c2.76 1 5.46 2.12 8.26 3a4.18 4.18 0 001.43.28 2.72 2.72 0 002.62 2.18 12.38 12.38 0 017.88 3.92c1.47 1.57 1.92 1.41 3-.55.4-.69.52-1.65 1.56-1.79.21 1.1 1.22 1 2 1.23 2.48.67 5 1.14 7.47 1.89 2.93.89 5.79 2 8.68 3A99.28 99.28 0 01305 113.73a96.29 96.29 0 0110.48 6.86 102.07 102.07 0 0115.33 13.21 2.46 2.46 0 002 1c-.6 1.33.56 1.41 1.27 1.81a2 2 0 00.73 1.21 143.07 143.07 0 0112.28 15.39c.58.82 5.08 8.12 5.39 8.35a85.55 85.55 0 014.52 7.75c2.52 4.88 5.06 9.76 7.2 14.83 1 2.37 1.86 4.79 2.8 7.19.24.63.25 1.4 1 1.78a2.48 2.48 0 01-1.71 3.1c-3.57 1.48-5.58 4.19-6.85 7.7a7.22 7.22 0 01-4.45 4.43 1.78 1.78 0 00-1.13.84 4 4 0 003.69-1 12.63 12.63 0 003.82-5.65c1.42-3.43 4.41-4.79 7.54-6 .41 2.69 1.43 5.23 1.92 7.91a80.1 80.1 0 011.81 15.31 71.65 71.65 0 01-2.87 20.16c-2.24 7.36-5.13 14.45-8 21.55-2.16 5.28-4.27 10.59-6.2 16a163.87 163.87 0 00-4.77 16.88c-1.62 6.64-1.2 13.3-.87 20 0 .35.11.69.12 1a207.17 207.17 0 01-.07 23.51 94.08 94.08 0 01-1.83 13.42 53.88 53.88 0 01-5.59 15.47 64.62 64.62 0 01-8.57 11.83 66.66 66.66 0 01-13 10.81A87.79 87.79 0 01305.41 398a111.66 111.66 0 01-22 5.89zM80 219.69c-1.67 3.37-3.56 6.63-5.07 10.09a118 118 0 00-8.37 28.9c-1.86 11.59-3.68 23.19-5.35 34.81-.91 6.29-1.47 12.64-2.22 18.95-.88 7.43-1.82 14.85-2.68 22.28q-1.23 10.51-2.34 21c-.8 7.51-1.63 15-2.31 22.53-1.11 12.26-3 24.42-4.61 36.61a9.09 9.09 0 01-.31 1.22 76.55 76.55 0 01-14-8.38 78.42 78.42 0 01-13.63-13.25A53.83 53.83 0 0114.92 388a78.4 78.4 0 01-7.47-16.57 80.48 80.48 0 01-2.36-10.81 98.54 98.54 0 01-1.5-18.07c.08-4.1.62-8.17 1.11-12.25A91.82 91.82 0 019 312.69a94.21 94.21 0 0110.57-22.25 138.29 138.29 0 018.59-11.3A155.44 155.44 0 0139.42 267c2.77-2.76 5.62-5.46 8.28-8.33 4.23-4.54 8.46-9.07 12.6-13.69 3.54-4 7-7.94 10.28-12.12a77.91 77.91 0 007.1-10.34c.66-1.21 1.5-2.3 2.27-3.45A.37.37 0 0180 219.69zM199.25 66.79a5 5 0 01-2.26.29c-8.82.11-17.61.87-26.4 1.41a71.36 71.36 0 00-17.47 3.32c-6.29 2-12 5.14-16.33 10.22a27.63 27.63 0 00-6.66 22.6c.82 6.2 2.73 12.13 4.3 18.15a60.73 60.73 0 012.24 19.71c-.62 8.66-2.16 17.06-6.83 24.6a8.16 8.16 0 00-.56.88c-.46 1-1.12 1.22-2.14.72-1.19-.58-2.43-1.05-3.67-1.54a10.11 10.11 0 00-1.79-.58c-1.7-.34-2.51.15-2.87 1.85a63.48 63.48 0 01-2.33 7.78c-.7.17-.91-.37-1.23-.69a27.94 27.94 0 01-7.8-14.8 20 20 0 00-.67-2.64 3.23 3.23 0 00-4.92-1.86A7.35 7.35 0 0098 162.56a16.58 16.58 0 01-.18 3.63c-2.73-1.25-5.16-3.14-8.21-3.35a53.1 53.1 0 00-1.84-10.25c-1.28-5.43-3-10.72-4.78-16a208.39 208.39 0 01-6-21.28 117.72 117.72 0 01-2.23-14c-.23-2.31-.3-4.59-.33-6.89a33.48 33.48 0 012.83-14.22 29.8 29.8 0 014.73-7.35 41.21 41.21 0 0111.6-9.48 44.38 44.38 0 017.6-3.44 1.51 1.51 0 001-.76c1.67.3 1.78 1.74 1.71 2.87-.25 3.73 1.5 5.72 4.86 7.07a11.92 11.92 0 016.27 6.19 3.64 3.64 0 00.6 1.09.57.57 0 00.48.14 3.21 3.21 0 00-.6-2.89 12.94 12.94 0 00-6.8-5.93 4.94 4.94 0 01-3.65-5.4c.07-1.25-.8-2.4-.23-3.64 2.22-.29 4.29-1.18 6.47-1.62 4.91-1 9.82-1.88 14.78-2.62 4.33-.65 8.67-1.15 13-1.54a65.29 65.29 0 0126.5 2.76 176 176 0 0124.13 9.45 13 13 0 007.61 1.58A10.69 10.69 0 01199.25 66.79z"/><path fill="#010000" d="M161,253.55c-6.1-5.19-11.54-11.09-17.34-16.6-2.22-2.11-4.39-4.26-6.58-6.39-.52.12-.7-.18-.78-.62l-12-12c.11-1.56,1.26-1.87,2.48-2.08a3.56,3.56,0,0,1,2.07,1.33c1.39,1.37,2.79,2.75,4.15,4.15,8.69,9,17.81,17.57,26.8,26.25,5,4.84,10.41,9.36,17,12.11a3.06,3.06,0,0,1,1.95,1.48,3.92,3.92,0,0,1-3,2.41c-4.46-1.3-8-4.18-11.63-6.86-.62-.45-1.21-1-1.8-1.44a4.24,4.24,0,0,1-.54-.65C161.57,254.27,161.26,253.94,161,253.55Z"/><path fill="#dcbbff" d="M80,219.69c0-.2,0-.39-.07-.59a40.27,40.27,0,0,1,2.91-6c2.93-5.83,4.66-12,6.24-18.3a12.89,12.89,0,0,0,.13-2.5c5.4-.52,9.73,1.62,13.57,5.33a6,6,0,0,1-1.72,1.6c-3.93,3-7.71,6.24-11.5,9.42A49.78,49.78,0,0,0,80,219.69Z"/><path fill="#010101" d="M291.74,458.09c-3.09,1.2-5.95.43-8.67-1.31a71.46,71.46,0,0,0-7.28-4.14,4.8,4.8,0,0,1-1.05-.67,1.28,1.28,0,0,1-.29-1.54,1.17,1.17,0,0,1,1.37-.73,6.35,6.35,0,0,1,1.57.54c2.54,1.18,4.95,2.59,7.36,4a9.42,9.42,0,0,0,2.87,1.25,3.48,3.48,0,0,0,2.45-.27,1,1,0,0,0,.61-1.35,19.19,19.19,0,0,1-.64-2.21,1.41,1.41,0,0,1,1-1.81,1.34,1.34,0,0,1,1.64,1c.36.9.62,1.85.92,2.78,1.95,6.19,4.53,12.18,6.1,18.49.94,3.8,1.83,7.61,2.73,11.41a9.47,9.47,0,0,1,.23,1.66c.06.9-.11,1.75-1.17,1.92s-1.51-.57-1.8-1.41a13,13,0,0,1-.41-1.63,182.29,182.29,0,0,0-6.88-24.59A2.68,2.68,0,0,0,291.74,458.09Z"/><path fill="#7e5ba2" d="M334.06,136.59c-.13,0-.26,0-.39.09-.74.23-1.56.47-1.94-.43s.68-1,1.06-1.47c3.28-1.49,5.45-3.88,5.81-7.57a8,8,0,0,1,4.25-6.56c2.14-1.23,3.54-2.86,3.58-5.49A7,7,0,0,1,350,109.3a11.71,11.71,0,0,0,3.65-4,18.61,18.61,0,0,1,3.9-4.63c.56-.49,1.19-.88,1.83-.19s.27,1.33-.29,1.82a26.2,26.2,0,0,0-4.56,5.72,11.77,11.77,0,0,1-3.32,3.16,5.15,5.15,0,0,0-2.51,4.34,7.73,7.73,0,0,1-4.41,6.89,6.39,6.39,0,0,0-3.51,5.34C340.26,132,337.56,134.6,334.06,136.59Z"/><path fill="#7e5ba1" d="M127,216.16a3.66,3.66,0,0,0-2.62,1.79c-.88.1-1.44.8-2.19,1.16-1,.49-2.14.92-3.13,0s-.86-2-.57-3.1a8.41,8.41,0,0,1,1.39-2.31c1.22-.21,1.59.6,1.85,1.54,0,.41-.59.77-.36,1.1s.54-.25.81-.41a12.85,12.85,0,0,0,2.58-2.19c4.92-5.62,9.46-11.49,12.14-18.58a11.89,11.89,0,0,0,1.17-2.66c0-.09.36-.49-.13-.15a.75.75,0,0,1-.36.13,1.81,1.81,0,0,1-1.65-1.63,1.53,1.53,0,0,1,.27-1c.86-1.09,1.66-2.47,3.32-2.06s1.91,2,1.9,3.54a4.8,4.8,0,0,1-.51,2.43,2.63,2.63,0,0,0-.92,3.06c-3.13,6.91-7.59,12.93-12.33,18.78A4.14,4.14,0,0,1,127,216.16Z"/><path fill="#7e5ba2" d="M278.37,26.05c-.27-.73-.13-1.31.67-1.46a1.34,1.34,0,0,1,1.6,1,4,4,0,0,1-.12,2.27,16.49,16.49,0,0,1-3.52,6.6,6.21,6.21,0,0,0-1.72,5.18A9.41,9.41,0,0,1,272.41,48a6.84,6.84,0,0,0-1.85,5,33.8,33.8,0,0,1-.22,5c-.42,2.64-2,4.53-3.73,6.41a1.94,1.94,0,0,1-.69.46,1,1,0,0,1-1.3-.3.85.85,0,0,1,.13-1.14l1.87-2.25a8.11,8.11,0,0,0,1.78-5.46c0-.55,0-1.12,0-1.67a10.17,10.17,0,0,1,2.92-8.22,6,6,0,0,0,1.81-5.15,9.6,9.6,0,0,1,2.6-8.28,11.27,11.27,0,0,0,2.51-4.79C278.37,27.13,278.67,26.6,278.37,26.05Z"/><path fill="#7e5ba1" d="M124.44,187.35a4.32,4.32,0,0,0,1.26-3c0-.55-.24-.72-.75-.57a3.75,3.75,0,0,1-2.1-1.56,3.63,3.63,0,0,1,2.55-1.91,2.68,2.68,0,0,1,3.34,2.47,16.42,16.42,0,0,1-.24,3.28,8.67,8.67,0,0,0-1.43,3.38c-2.08,2.87-3.84,5.95-6,8.73-1.87,2.33-3.74,4.66-5.83,6.79a12.92,12.92,0,0,1-2.82,1.87c-1,.45-2,1-3,1.35-2.68.91-4.37-.65-3.78-3.44a6.73,6.73,0,0,1,1.66-2.82,2.82,2.82,0,0,1,1.7,1.61c-.21.7-.75,1.29-.71,2.12.85,0,1.35-.7,2.08-.81a2.48,2.48,0,0,0,2.44-2A85.9,85.9,0,0,0,124.44,187.35Z"/><path fill="#7e5ba1" d="M118.54,212.43a3.19,3.19,0,0,0-1.72.58c-1.73.79-3.08.63-4-.44s-.76-2.54.21-4c.15-.23.31-.45.47-.67a2,2,0,0,1,2.32,1.83c-.07.34-.51.43-.56.79.49.19.74-.24,1.1-.4a7.36,7.36,0,0,0,2.47-1.78c4.21-5.36,8.67-10.54,12-16.51a9.21,9.21,0,0,0,1.2-2.79c.34-1.22-.47-.23-.7-.35-1.07-.35-2.34-.46-2.28-2a6.51,6.51,0,0,1,1.39-1.28,3.24,3.24,0,0,1,3.74-.23,2.93,2.93,0,0,1,1.43,3,13.06,13.06,0,0,1-.29,2.07,18.48,18.48,0,0,0-1.6,3.47c-3.78,5.85-8.16,11.26-12.46,16.73C120.37,211,119.75,212.13,118.54,212.43Z"/><path fill="#7e5ba2" d="M20.4 127.87c0-.94.07-1.51.75-1.64s1.12.4 1.25 1.08c.17 1 .26 1.93.46 2.89a5.09 5.09 0 003.85 4.24c1.42.37 2.83.75 4.26 1.1a5.27 5.27 0 014.1 4c.23.88.52 1.75.66 2.64a3.84 3.84 0 003 3.38c4 1.08 6.83 3.7 9.38 6.73 1.27 1.51 1.43 2.12.81 2.69s-1.26.32-2.48-1.18a17.65 17.65 0 00-8.9-6.32 5.3 5.3 0 01-3.85-4.3c-.2-1-.48-1.89-.7-2.84a3.36 3.36 0 00-2.63-2.68l-3.24-.84c-4.11-1.09-5.83-3-6.43-7.24C20.58 128.92 20.45 128.23 20.4 127.87zM27.68 267.54c-2.86-.79-6-1.74-7.5-5.16a19.24 19.24 0 01-.71-2A3.55 3.55 0 0017 258a5.57 5.57 0 00-.79-.25c-3-.57-4.54-2.42-5.21-5.31-.55-2.36-.85-2.48-3.31-2.61l-.63 0c-5-.3-7.6-3.33-7-8.36.08-.65.15-1.32 1-1.28s.86.63.85 1.21a11.65 11.65 0 00.31 2.7 3.9 3.9 0 003.31 3.33 18.88 18.88 0 002.91.29c2.77.11 3.84 1 4.63 3.65l.45 1.61A3.13 3.13 0 0016 255.32a20.21 20.21 0 012 .64 5.26 5.26 0 013.61 3.77c.73 3 2.75 4.57 5.57 5.34a8.35 8.35 0 011.39.45 1.15 1.15 0 01.85 1.28C29.32 267.28 28.82 267.54 27.68 267.54z"/><path fill="#020202" d="M78.4,249c.14-.73.25-1.56.47-2.37a102,102,0,0,1,5-14.43,49.53,49.53,0,0,1,10.29-14.91c1.13-1.15,2.22-2.33,3.36-3.46.4-.4.91-.75,1.47-.26s.42,1.12,0,1.64c-.65.73-1.28,1.48-2,2.16-8.82,8.44-13.21,19.19-16.1,30.73-.12.48-.21,1-.32,1.43a1.11,1.11,0,0,1-1.15,1C78.8,250.51,78.41,249.88,78.4,249Z"/><path fill="#7e5ba2" d="M183.74,19.53a10.24,10.24,0,0,1-.65,3.35,4.66,4.66,0,0,0,1,4.67,22.83,22.83,0,0,1,4.37,8,3.35,3.35,0,0,1,.24,1.84c-.19.73-.58,1.33-1.45,1.21s-.79-.68-.84-1.39c-.16-2.37-1.4-4.34-2.6-6.29-.62-1-1.39-1.93-2.09-2.89a5.07,5.07,0,0,1-1-4.53c.24-.87.31-1.79.59-2.65a4.44,4.44,0,0,0-1.11-4.63c-.56-.63-1.1-1.26-1.64-1.91a12.1,12.1,0,0,1-3-9.7c.13-1,.11-2.09.18-3.13,0-.72.15-1.55,1.06-1.52,1.08,0,1,1,1,1.73a15.48,15.48,0,0,1-.17,1.67,12,12,0,0,0,3.48,10.52C183.23,16.1,183.76,17.38,183.74,19.53Z"/><path fill="#805ea5" d="M368.86,196.45a10.66,10.66,0,0,1-3.13,2.05,7.12,7.12,0,0,0-3.85,3.92c-.5,1.15-1,2.29-1.64,3.39a8.3,8.3,0,0,1-3.86,3.68,3.75,3.75,0,0,1-1.18.4c-.78.05-1.87.51-2.17-.57s.91-1.2,1.63-1.41a6.29,6.29,0,0,0,3.74-3.13,12.07,12.07,0,0,0,.87-1.9c1.1-3.1,2.93-5.52,6.1-6.73a4.15,4.15,0,0,0,2.58-3.06,12.59,12.59,0,0,1,5.83-6.07c1.83-1,3.61-2.11,5.4-3.2.58-.36,1.15-.64,1.66,0a1.17,1.17,0,0,1-.27,1.68,8.56,8.56,0,0,1-1.36,1c-1.62,1-3.23,1.94-4.88,2.86a9.58,9.58,0,0,0-4.46,5.08C369.6,195.1,369.2,195.77,368.86,196.45Z"/><path fill="#7e5ba2" d="M104.87,58.7a8.66,8.66,0,0,1,.78,3.85c-.07,2.33.76,3.88,3.21,4.69a13.52,13.52,0,0,1,7.48,6.67,4.53,4.53,0,0,1,.63,2.81c-.06.45-.24.8-.74.88a1,1,0,0,1-1-.53,6.46,6.46,0,0,1-.33-.76,11.57,11.57,0,0,0-7.18-7.11c-2.84-1-4.32-2.89-4.2-6,0-1.45,0-2.95-1.25-4a23.51,23.51,0,0,0-3-2.2,13.8,13.8,0,0,1-5-5.8,9.51,9.51,0,0,1-.51-1.59c-.12-.58,0-1.14.65-1.33s.92.18,1.16.65a5.89,5.89,0,0,1,.24.58,12,12,0,0,0,5,6C102.22,56.46,103.8,57.26,104.87,58.7Z"/><path fill="#030303" d="M172.07 475.75c.13-6.81 1.71-12.88 3.49-18.92a20.59 20.59 0 01.75-2.17 1.07 1.07 0 011.52-.69c.65.31.55.92.35 1.46a88.56 88.56 0 00-2.65 10.12 45.54 45.54 0 00-1.1 12.48 15.28 15.28 0 001 4.91c.26.64.37 1.26-.36 1.61s-1.19-.08-1.55-.66a8.31 8.31 0 01-1.1-3.58C172.23 478.65 172.16 477 172.07 475.75zM52.61 477.8c.38-3.71 1.15-7.61 1.9-11.52a81.48 81.48 0 012.34-10c.2-.6.4-1.2.65-1.77a1.06 1.06 0 011.35-.7c.69.22.7.8.54 1.38-.41 1.41-.93 2.79-1.24 4.21a167.39 167.39 0 00-3.4 20 4.12 4.12 0 01-.21 1 .89.89 0 01-.82.57 1 1 0 01-1-.66A7.64 7.64 0 0152.61 477.8z"/><path fill="#030202" d="M283.63,464.42c-3.83-2-7.38-4.52-11.42-6.11-.88-.34-1.44-.9-1.13-1.92.23-.76,1.05-1.09,2.12-.73a22.43,22.43,0,0,1,3.26,1.41c2.42,1.25,4.79,2.58,7.19,3.87a2.69,2.69,0,0,0,3.13,0,1.36,1.36,0,0,1,2.17.34,1.66,1.66,0,0,1-.48,2.24,9.21,9.21,0,0,1-1.41.87A6.07,6.07,0,0,1,283.63,464.42Z"/><path fill="#040303" d="M288.21,449.29c-4.19-.13-7.53-2.1-10.68-4.5a1.78,1.78,0,0,1-.68-1,1.39,1.39,0,0,1,.55-1.65,1.17,1.17,0,0,1,1.54.11,16.77,16.77,0,0,0,3.85,2.51,9.91,9.91,0,0,0,7.06,1.21c.88-.21,1.71-.11,2.08.89.29.79-.24,1.6-1.32,2.07a2.82,2.82,0,0,1-.79.26C289.26,449.24,288.7,449.25,288.21,449.29Z"/><path fill="#050505" d="M74.44,279q.87-7.16,1.75-14.33a2.5,2.5,0,0,1,.36-.95.8.8,0,0,1,.89-.4.9.9,0,0,1,.73.67,3,3,0,0,1,0,1c-.72,5-1.1,10-1.54,15,0,.14,0,.28,0,.42-.08.68-.32,1.28-1.12,1.22s-1-.7-1-1.38c0-.42,0-.84,0-1.26Z"/><path fill="#050405" d="M115.68,209.78a4,4,0,0,0-2.14-1.91l-1.17-1a6,6,0,0,1,2.48-2,6.85,6.85,0,0,1,4.21,3.81,3.74,3.74,0,0,1-2.59,1.81A.65.65,0,0,1,115.68,209.78Z"/><path fill="#050404" d="M118.54,212.43a4.62,4.62,0,0,1,2.44-2.06,7.74,7.74,0,0,1,3.93,3.78,4.82,4.82,0,0,1-2.47,2,.91.91,0,0,1-.87-.86,3.92,3.92,0,0,0-1.71-1.59Z"/><path fill="#0e0d0d" d="M53.9,493.2c.07.85,0,1.4-.7,1.55A1,1,0,0,1,52,493.9a13.23,13.23,0,0,1-.52-3.7c0-.64.3-1.1,1-1.12s1,.47,1.05,1.07A20,20,0,0,0,53.9,493.2Z"/><path fill="#121010" d="M178.61,495.67a.88.88,0,0,1-1.2.71,3.1,3.1,0,0,1-1.71-2.83.89.89,0,0,1,1.26-.69A5.31,5.31,0,0,1,178.61,495.67Z"/><path fill="#9ec2c2" d="M283.63,464.42h3.43c-.55.75-1.53.23-2.16.75l-1.24-.42A.5.5,0,0,1,283.63,464.42Z"/><path fill="#fff" d="M298.87,314.47c-1.23,6.53-3.08,12.9-4.92,19.28a86.8,86.8,0,0,0-3,12,27,27,0,0,0,.28,10c.84,3.53,2.46,6.55,6.17,8.1-2.32,4.4-4.62,8.71-6.87,13q-6.78,13-12.48,26.54a9.92,9.92,0,0,0-.81,2.37c-.13.95-.49,1.39-1.46,1.26-.13,0-.28,0-.42,0-6.31-.95-12.55.27-18.83.52-7.48.3-15,.58-22.43-.32a49.66,49.66,0,0,1-13-3.84A280.47,280.47,0,0,1,186.6,385.8c-.57-.34-1.26-.52-.83-1.56,2.46-6,2.75-12.38,2.94-18.74a163.46,163.46,0,0,0-1.29-21.78,141.81,141.81,0,0,1-.32-17.61c.06-2.8.31-5.59.41-8.38a20.27,20.27,0,0,1,3.76-11,57.09,57.09,0,0,1,7.1-8.27,68,68,0,0,0,7.61-8.65,2.94,2.94,0,0,0,.86-2.27c1.33-.61,2.29.35,3.27.89,6.46,3.63,13,7.14,19.42,10.83,11.78,6.77,24.08,12.22,37.38,15.22,9.88,2.22,19.76,3.13,29.53-.72C297.19,313.52,298.59,312.37,298.87,314.47Z"/><path fill="#7f5da4" d="M298.87,314.47c-.12-.8-.55-.75-1.19-.52-2,.73-4.11,1.36-6.21,1.91a39.5,39.5,0,0,1-14.13.86c-16-1.55-30.48-7.31-44.39-14.9-7.91-4.31-15.76-8.77-23.64-13.15a6.37,6.37,0,0,0-2.47-1.08,2.1,2.1,0,0,0-1.71-.84c-3.48-1.33-6.55-3.45-9.8-5.2-4.36-2.36-8.9-4.39-12.91-7.37a2.94,2.94,0,0,0-2.55-2.19c-3.82-1.39-5.66-5.27-4.14-8.71,1.22-.34,1.91-1.42,2.91-2.06a4.83,4.83,0,0,1,2.28-6.52,4.26,4.26,0,0,0,2.58-3,5,5,0,0,1,3.43-3.4c.86-.31,1.76-.46,2.61-.75,2-.68,2.52-1.64,2-3.66-.1-.41-.24-.81-.31-1.22-.71-4,.59-5.93,4.57-6.71.41-.09.83-.12,1.24-.22,1.32-.31,1.73-1,1.09-2.29-.38-.77-1.2-1.46-.62-2.48-.23-1.28.45-2.75-.8-3.83,1.14-1.75,2.86-1.52,4.5-1.21,4.72.89,9.35,2.18,14,3.49,4.09,1.16,8.06,2.68,12,4.12a6.94,6.94,0,0,0,3,.72c.13.38-.11,1,.34,1.12.88.25,1.64,1.14,2.69.59,3,.18,5.82,1.38,8.65,2.27a340.44,340.44,0,0,0,34.7,9.12,3.67,3.67,0,0,1,1.92.76c2.52,8,6.61,15.24,10.88,22.38a91,91,0,0,1,7.63,14.9,49.58,49.58,0,0,1,2.7,21.86A40.62,40.62,0,0,1,298.87,314.47Z"/><path fill="#fff" d="M278.56 248.12a6 6 0 01-2.06-.21c-13.28-2.56-26.21-6.45-39.1-10.46a18.18 18.18 0 01-4.11-1.48 3.57 3.57 0 011-2.66c1.71-2.43 1.35-3.9-1.26-5.46-.88-.53-1.94-.81-2.57-1.72.39-.7 1.1-.86 1.72-1.15a17.92 17.92 0 004.29-3 5 5 0 001.63-2.63 2.48 2.48 0 00-2.2-3.16 9.17 9.17 0 00-3.34.2 12.13 12.13 0 01-4.37.38c-1.9-.19-1.95-.18-2-2.12a5.53 5.53 0 00-2.31-4.48 5.08 5.08 0 00-1.68-.83c-.61-.17-1.2-.36-1.8-.55-3.66-1.12-4.76-3.67-3-7.13a20.56 20.56 0 011.31-2.15 28.16 28.16 0 004.12-10.23 6.37 6.37 0 01.49-1.59 8.59 8.59 0 00.63-6.12c0-.2-.1-.4-.17-.6-1.32-3.79-.13-6.68 3.17-8.82a3.56 3.56 0 001.74-3.75 3.88 3.88 0 00-.71-1.73c-.37-.51-.79-1-1.31-1.6 1.44-1.13 3.58-1.74 3.42-4.13.83.14 1.05.72 1.41 1.12a78.47 78.47 0 008.9 8.87c4.21 3.48 8.24 7.16 12.54 10.52a72.59 72.59 0 0013.32 8.69c.54.26.95.51 1 1.19a23.72 23.72 0 002.17 8.27 85.89 85.89 0 015.46 26 99.52 99.52 0 003.53 21.68 2.72 2.72 0 00.19.47A1 1 0 01278.56 248.12zM175.73 263.28a7.4 7.4 0 003.55 8.13 4 4 0 01.59.58c-.9.83-.5 1.82-.33 2.76q1.94 10.29 4.28 20.51a84.49 84.49 0 011.66 11.2 14.56 14.56 0 01-.44 6.32 24.24 24.24 0 00-.82 6.86c-.3 7.61-.88 15.23-.09 22.85.33 3.2.56 6.41.89 9.61a118.93 118.93 0 01.35 17.4 42.75 42.75 0 01-2.12 12.57c-.14.39-.31.77-.43 1.06a.49.49 0 01-.65.08c-5.37-3.14-10.95-5.89-16.18-9.27-1.39-.89-1.39-.87-.78-2.38a18.55 18.55 0 00.78-2.16c.67-2.7.31-5.11-1.89-7.08a31.58 31.58 0 00-4.55-3.7 4 4 0 00-2.75-.81c-.59-.15-.68-.45-.58-1.06.89-5.31 1.78-10.61 2.54-15.93 1-6.85 1.84-13.71 2.72-20.57 1.08-8.46 1.66-17 2.36-25.46.57-7 1.24-13.93.89-20.94a80.2 80.2 0 00-1.54-14.15 35.42 35.42 0 00-1.37-4.39c-.06-.47.07-.72.59-.53 2.34 1.63 4.45 3.56 6.88 5.08A51.56 51.56 0 00175.73 263.28zM197.54 231a14.48 14.48 0 001.29 2.62c.7 1.5.42 2.17-1.19 2.62-.94.25-1.93.33-2.88.56-2.29.55-3.24 1.87-3.18 4.24a17.34 17.34 0 00.66 3.28c.44 2-.11 3.05-2.06 3.69a19.26 19.26 0 01-2.24.55 4.87 4.87 0 00-4.24 4.32 2 2 0 01-1.39 1.83c-3.16 1.22-4 2.72-3.65 6.13a2.88 2.88 0 010 .41 12.11 12.11 0 00-1.44-.82 44.93 44.93 0 01-11-6.73c-5.72-4.41-10.67-9.63-15.82-14.65q-11.72-11.4-23.36-22.86c-.09-.73.48-1.12.86-1.59 4.23-5.25 8.27-10.65 11.11-16.82.21-.46.44-.86 1-.88 10.57 5.69 20.83 11.89 30.94 18.36 3.57 2.29 7.2 4.51 10.92 6.59 5 2.78 9.86 5.79 14.78 8.69C196.91 230.69 197.23 230.82 197.54 231zM223.66 120.72c-.79-.41-1.28-.65-1.76-.91-5.55-2.94-11.4.32-13.74 5.36-.26.58-.48 1.27.25 1.67s1.18-.09 1.53-.67c.25-.42.46-.86.72-1.27 2.58-4 6.77-5 10.89-2.73.37.2.72.6 1.09.6 1.82 0 1.8 1.28 1.8 2.55 0 .42.05.84 0 1.25-.28 7 2.51 12.76 7.14 17.78 1.93 2.09 1.81 3.5-.47 5.2-1.34 1-2.93 1.65-4.13 2.85-.47.47-1.05.33-1.58.31a5.86 5.86 0 00-5.15 2.71 31 31 0 00-3.87 7.17 56 56 0 01-3.67 8.22 21.5 21.5 0 01-2.65 3.77 3.61 3.61 0 01-4.74.82c-2.39-1.26-3.59-3.47-4.46-5.87-1.15-3.17-1.5-6.52-2.09-9.83-1.38-7.76-1-15.61-1.25-23.43 0-.56 0-1.13 0-1.68a18.26 18.26 0 01.78-8c1.19-3.77.58-7.61-.53-11.36-.34-1.14-.75-2.25-1.07-3.39-1.22-4.37 0-7.55 4.93-8.55a97.31 97.31 0 0010.8-2.54 40.07 40.07 0 004.17-1.41c1-.44 1.31-.07 1.7.77a56.2 56.2 0 014.44 14.37A40.89 40.89 0 01223.66 120.72zM184.52 191.6a83.65 83.65 0 00-8.74 9.4c-12.29-12-27.05-20.42-41.68-29.6 6.78-.84 12.51-4 18.31-6.91s11.34-6.36 15.66-11.48l3 2.23A10.65 10.65 0 00176.4 157a2.73 2.73 0 001.64-.21 1.49 1.49 0 00.86-1.35 1.39 1.39 0 00-.81-1.36 2.6 2.6 0 00-1-.31c-3.75-.09-6.34-2.2-8.21-5.11-2.75-4.29-4.21-9-2.88-14.15 1-4 4-5.95 8.18-5.37a17.85 17.85 0 0110 4.31 1.83 1.83 0 00.5.39c2.27.84 2.4 2.69 2.44 4.75.13 6.68-.88 13.25-1.59 19.86-.63 5.85-2.42 11.48-3.38 17.27-.77 4.63-.94 9.19 1 13.6A10.13 10.13 0 00184.52 191.6z"/><path fill="#dcbbff" d="M230.26,234.26c-.49.82-1.17.51-1.82.28q-4.16-1.44-8.31-2.92a158.55,158.55,0,0,0-19.19-5.22,6.56,6.56,0,0,0-4.2.74c-4.78-2.75-9.25-6-14.17-8.52-.67-.34-.91-.69-.59-1.46a32.67,32.67,0,0,0,1.26-5.07,4.31,4.31,0,0,0-1.17-4.22c-1.17-1.21-2.24-2.51-3.4-3.71-.58-.61-.72-1.11-.14-1.79a51.93,51.93,0,0,1,11.1-10.45,8.19,8.19,0,0,1,5.23-1.17c4.89.42,9.78.19,14.67.2,3.2,0,6.42.31,10-.54a26.17,26.17,0,0,1-3.28,7.16,18.65,18.65,0,0,0-2,3.41c-2,4.63-.06,9.28,4.79,10.65,2.66.75,4.39,1.73,4.21,4.88-.09,1.6,1.15,2.64,2.7,3.08a13,13,0,0,0,6,.2,7,7,0,0,1,2.22-.25,7,7,0,0,1-3,2.42,21.87,21.87,0,0,0-2.38,1.31c-2.09,1.55-2.15,3.74-.23,5.5a24,24,0,0,0,3.5,2.18A10.82,10.82,0,0,0,230.26,234.26Z"/><path fill="#fff" d="M124.44 187.35a3.05 3.05 0 01-.68 1.91 72.61 72.61 0 01-9.46 12.66c-.41.46-.81 1-1.54.91-2.35-2.29-4.69-4.6-7.08-6.87-1-.91-2-1.76-3-2.59a18.47 18.47 0 00-11.79-4.28c-1.47 0-2.94 0-4.4.1a21.56 21.56 0 01-11.4-2.12 20.36 20.36 0 00-3.91-1.5 9.73 9.73 0 00-6.89.77 6.3 6.3 0 01-.8-2.69c-.13-1.67.36-3.15 2-3.83 3.76-1.61 6.63-4.36 9.48-7.16a22.8 22.8 0 0111.24-6.17 9.38 9.38 0 018 1.38 5.93 5.93 0 003.45 1.38 3.13 3.13 0 003.56-3 12.36 12.36 0 000-2.72 4.81 4.81 0 011.58-4.15c.52-.44 1-.49 1.2.36.33 1.43.72 2.84 1.07 4.27a30.18 30.18 0 008.44 14.25A83.6 83.6 0 00124.44 187.35zM135 190.5a9.37 9.37 0 01.18-2.48 2.45 2.45 0 00-1.27-2.63 3 3 0 00-3.29.45c-.44.38-.58 1.17-1.42 1-.57.22-.82-.07-.92-.59a1.31 1.31 0 01-.28-1.34 4.15 4.15 0 00.24-1.85c-.08-2-1.67-2.93-3.5-2-.67.34-1 1.18-1.89 1.2-1.09-.88-2.19-1.75-3.27-2.64-.43-.35-.87-.68-.6-1.39a84.29 84.29 0 002.6-8.69c5.12 2.11 10.12 4.09 14.7 6.91 10.23 6.31 20.44 12.66 29.87 20.16a115.61 115.61 0 0113.31 13.06 2.19 2.19 0 01.6 2.07 21.86 21.86 0 01-1.23 4.67c-2.09-1.28-4.18-2.5-6.21-3.81q-15.23-9.85-31.16-18.52a5.86 5.86 0 00-.57-.26c-.32-.61 0-1.2 0-1.8a10 10 0 000-2 1.82 1.82 0 00-3.21-1.12 4.31 4.31 0 00-1.46 2.2C135.56 191.4 135.19 191.15 135 190.5zM126.19 413.77a2.24 2.24 0 01-.44-.24 35.68 35.68 0 01-5.25-4.16 1 1 0 01-.12-1.6c.61-.85 1.13-1.77 1.78-2.59 3.42-4.26 6.36-8.84 9.44-13.34a216.82 216.82 0 0124.52-29.72c1.21-1.24 1.21-1.24 2.56-.29.4.28.76.61 1.16.89s.55.74.32 1.38a132.36 132.36 0 01-17.49 32.3c-1.28 1.76-2.63 3.46-3.76 5.3-2.2 3.56-5.26 6.33-8.24 9.17a40 40 0 01-3.64 2.81C126.87 413.81 126.73 414 126.19 413.77z"/><path fill="#dcbbff" d="M182.42,274.18c.42-.45.78-.07,1.09.14,5.38,3.6,11.34,6.2,16.9,9.49,1.6.94,3.42,1.52,4.72,2.94a4.6,4.6,0,0,0-1.63,1.59,62,62,0,0,1-7.36,8,63.4,63.4,0,0,0-7.6,8.7c-.88-10.23-4.11-19.54-5.72-29.18-.3-.38,0-.92-.34-1.28A1.13,1.13,0,0,1,182.42,274.18Z"/><path fill="#7c5aa0" d="M336.21,299.15a67.17,67.17,0,0,0-1.46-15.62,2.92,2.92,0,0,1-.13-.82.92.92,0,0,1,.72-.92.86.86,0,0,1,1.05.47,8.76,8.76,0,0,1,.54,1.59,46.54,46.54,0,0,1,1.1,7.24c1,9.27.76,18.47-2.39,27.34-2.39,6.73-6.86,12.14-11.85,17.12a41.58,41.58,0,0,1-7.15,5.81,12.07,12.07,0,0,1-1.86.95,1,1,0,0,1-1.26-.45,1,1,0,0,1,.3-1.31,14.43,14.43,0,0,1,1.22-.82,51.53,51.53,0,0,0,17.33-19.31c1.95-3.7,2.71-7.77,3.33-11.85A56.11,56.11,0,0,0,336.21,299.15Z"/><path fill="#7e5da3" d="M320.1,194.78c-.07.3-.12.65-.23,1a.89.89,0,0,1-.94.67.94.94,0,0,1-.82-.56,7.87,7.87,0,0,1-.43-2.26c-1.09-8.18-2.43-16.32-5.63-24a41.69,41.69,0,0,0-6.5-10.73,53.7,53.7,0,0,0-19.78-15.22,7.36,7.36,0,0,1-1.45-.81,1,1,0,0,1-.39-1.28.94.94,0,0,1,1.26-.41,5.86,5.86,0,0,1,.57.26,53,53,0,0,1,26.5,23.48c3,5.29,4.56,11.11,5.77,17a111.34,111.34,0,0,1,1.91,11.79C320,194,320,194.39,320.1,194.78Z"/><path fill="#7c59a0" d="M155.85,78.29a1.05,1.05,0,0,1,.86.48.9.9,0,0,1-.19,1.15A9.54,9.54,0,0,1,155,81a43.43,43.43,0,0,0-5.15,3.21,20.35,20.35,0,0,0-8.19,14.3,34.34,34.34,0,0,0,1,12.85,9.27,9.27,0,0,1,.27,1,.82.82,0,0,1-.57,1,.93.93,0,0,1-1.11-.34,4.63,4.63,0,0,1-.6-1.32A32.28,32.28,0,0,1,140,95.13a21.58,21.58,0,0,1,8.05-12.4,40.42,40.42,0,0,1,6.22-3.88A4.33,4.33,0,0,1,155.85,78.29Z"/><path fill="#7e5ca2" d="M284.64,227.89c.77.13,1,.72,1,1.37.08,1.47.21,2.94.15,4.4-.34,8,2,15.43,5.42,22.57.54,1.13,1.27,2.17,1.89,3.26.28.5.49,1.1,0,1.52s-1.19.19-1.66-.31a9.9,9.9,0,0,1-1.66-2.4c-3.73-7.45-6.38-15.18-6.06-23.67.07-1.82-.06-3.64-.1-5.45C283.61,228.48,283.8,227.93,284.64,227.89Z"/><path fill="#7c59a0" d="M209.65,91.08c-.87,0-1.35-.11-1.52-.65s.22-1.06.77-1.3,1.18-.42,1.77-.64c5.06-1.91,9.92-4.18,14.05-7.78,2.65-2.33,4.71-5,5.12-8.62a4.23,4.23,0,0,1,.11-.62c.18-.59.51-1,1.2-.89a1,1,0,0,1,.77,1.3,15.22,15.22,0,0,1-1.74,5.77,23.23,23.23,0,0,1-6.36,6.63,47,47,0,0,1-12.88,6.45C210.41,90.91,209.86,91,209.65,91.08Z"/><path fill="#7b599f" d="M259,172.9c-.38-.16-1-.38-1.53-.65a53.93,53.93,0,0,1-11-7.65,29.53,29.53,0,0,1-5.16-5.2,8.2,8.2,0,0,1-1-1.61,1.07,1.07,0,0,1,.41-1.47,1.06,1.06,0,0,1,1.44.5,17.94,17.94,0,0,0,1.23,1.93,33.1,33.1,0,0,0,4.88,4.59,60.64,60.64,0,0,0,10.38,7.09,6.61,6.61,0,0,1,1.23.79.88.88,0,0,1,.3,1.12C260.05,172.77,259.71,173,259,172.9Z"/><path fill="#78579c" d="M194,100.15c-.7-.07-1-.88-.58-1.62a8.48,8.48,0,0,1,2.16-2.23,11.06,11.06,0,0,1,2.82-1.77c.58-.22,1.28-.31,1.6.45s-.11,1.07-.66,1.34a14.66,14.66,0,0,0-4.1,3.16A1.62,1.62,0,0,1,194,100.15Z"/><path fill="#77569a" d="M146.44,127.53c0,.17,0,.45-.05.73a.86.86,0,0,1-.79.82.91.91,0,0,1-.94-.66,3.34,3.34,0,0,1-.24-.8,24.88,24.88,0,0,0-1.19-4.4c-.26-.73-.32-1.43.53-1.73s1.1.32,1.35.94A16.81,16.81,0,0,1,146.44,127.53Z"/><path fill="#dddfdf" d="M72.73,189.36c-2.44,1.22-4.23.45-6.29-.76C68.78,187.71,70.6,188.33,72.73,189.36Z"/><path fill="#eff0f4" d="M110.32,204.87a1,1,0,0,1-.53.83c-.67.31-1.45,1.05-2.05.34s0-1.47.51-2.08a2.51,2.51,0,0,1,.7-.4Z"/><path fill="#d8d4df" d="M125,183.81c.25-.3.49-.85.9-.6.57.35.16.8-.15,1.17Z"/><path fill="#7f5da4" d="M182.48 274.59a1.16 1.16 0 01.34 1.28A1.27 1.27 0 01182.48 274.59zM278.51 247.73c-.25-.08-.32-.24-.19-.47C278.57 247.34 278.63 247.5 278.51 247.73z"/><path fill="#010101" d="M106 270.43c-.33-5.93 1.27-11.5 3.43-16.9 1.95-4.87 5.65-8.23 10.38-10.46a65 65 0 016.93-2.36 1.89 1.89 0 01.41-.1c.6-.08 1.15 0 1.33.69a1 1 0 01-.69 1.16c-1 .4-2.1.75-3.17 1.07a21.82 21.82 0 00-8.29 4.32 17.42 17.42 0 00-5 6.89c-2.34 6.13-3.74 12.44-3.18 19.05.09 1 .31 2.07.44 3.11.07.55.14 1.18-.55 1.42s-1.19-.24-1.45-.85a6.64 6.64 0 01-.59-2.64C106 273.36 106 271.9 106 270.43zM107.32 351.41c.91 0 1.05.77 1.12 1.47.19 1.88.31 3.76.51 5.63.56 5.27.86 10.57 2.1 15.75a24 24 0 001.87 5.31 8.63 8.63 0 002.36 2.9.92.92 0 01.22 1.31 1 1 0 01-1.3.38 4.94 4.94 0 01-2.46-2.18 19.2 19.2 0 01-2.38-5.33 60.41 60.41 0 01-2-11.32c-.38-3.89-.66-7.79-1-11.68a7.91 7.91 0 010-1.46A.84.84 0 01107.32 351.41z"/><path fill="#030204" d="M157.32,273.4a47.69,47.69,0,0,1-.51,7.92,17.19,17.19,0,0,1-.44,2,1,1,0,0,1-1.24.85c-.68-.14-.81-.68-.8-1.28a3.83,3.83,0,0,1,.08-.83,54.5,54.5,0,0,0,.77-12.3c0-.62,0-1.25,0-1.88s.25-1.15.92-1.2,1.07.55,1.1,1.24c.07,1.53.09,3.07.13,4.6C157.33,272.84,157.32,273.12,157.32,273.4Z"/><path fill="#140f1a" d="M120.27,390.7c-.08.55-.39.92-.93.9a1,1,0,0,1-1.11-1,.89.89,0,0,1,1-1A1,1,0,0,1,120.27,390.7Z"/><path fill="#dadae7" d="M162.41,254.78l-.59.53a1.29,1.29,0,0,1-.51-.88.49.49,0,0,1,.68-.05A.47.47,0,0,1,162.41,254.78Z"/><path fill="#b4c6d3" d="M162,254.38l-.68.05a1,1,0,0,1-.29-.88A1.63,1.63,0,0,1,162,254.38Z"/><path fill="#7e5ba2" d="M359.17,232.51c-.18-.36-.32-.67-.48-1a.93.93,0,0,1,.06-1.16,1.15,1.15,0,0,1,1.35-.26,2.36,2.36,0,0,1,1.19.81c1.8,2.39,4.1,3.71,7.2,3.34.67-.08,1.49-.2,1.66.79s-.5,1.21-1.17,1.49a11.24,11.24,0,0,0-5.77,6.07,10.32,10.32,0,0,1-.42,1c-.66,1.09-1.53,1.07-2.24,0a1.81,1.81,0,0,1-.18-.37c-.83-2-2.51-2.7-4.47-3-.41-.06-.84,0-1.25-.07a1.24,1.24,0,0,1-1.24-.94c-.16-.65.2-1,.73-1.35s1.08-.64,1.61-1a8.64,8.64,0,0,0,2.92-3.23C358.87,233.29,359,232.89,359.17,232.51Z"/><path fill="#7f5ca3" d="M86.26,112.53c-2.13.24-3.79-2.17-3.75-3.7a3.77,3.77,0,1,1,7.53.06A3.67,3.67,0,0,1,86.26,112.53Z"/><path fill="#805ea4" d="M278.11,93.6a3.78,3.78,0,0,0-.83,0c-4.45,0-7.46-2.33-9.53-6.08-.43-.79-.81-1.62-1.21-2.44-.29-.57-.61-1.13-1.37-1.1s-1,.66-1.17,1.27c-.26.94-.49,1.89-.72,2.83a19.68,19.68,0,0,1-5.74,9.32c-.49,1.79-.2,2.3,1.52,2.53a22,22,0,0,1,3.86.77,12.5,12.5,0,0,1,5.36,3.82c1.2,1.31,2,1.15,2.85-.43a17.68,17.68,0,0,1,1.52-2.93,11.2,11.2,0,0,1,4.48-4.57,9.85,9.85,0,0,0,1.56-1A1.08,1.08,0,0,0,278.11,93.6ZM269.48,102a17.34,17.34,0,0,0-9.29-4.32,20.62,20.62,0,0,0,5.19-9.52c2.23,3.44,4.76,6.23,9.17,7.36A17.59,17.59,0,0,0,269.48,102Z"/><path fill="#7e5ba1" d="M34.39,179.65c-.41-.85-1.19-.84-2-.82a19.27,19.27,0,0,1-2.52,0c-4-.38-7.68-1.52-10-5.21a1.22,1.22,0,0,0-1.61-.57,1.19,1.19,0,0,0-.72,1.37c.1,1.12.2,2.23.29,3.34a13.65,13.65,0,0,1-2.19,8.59c-.15.24-.3.47-.43.72-.89,1.71-.3,2.64,1.93,2.66l1.6-.24a15.45,15.45,0,0,1,4.4-.09A8,8,0,0,1,27.61,192c1.24,1.24,2.25.84,2.57-.9a8,8,0,0,0,.14-1.46,11.86,11.86,0,0,1,1.53-5.4,14.9,14.9,0,0,1,1.89-2.77C34.18,181,34.77,180.46,34.39,179.65ZM28.15,189c-1.79-.8-3.27-1.7-5-1.85s-3.34.13-5.29,0c1.47-3,2.49-6,2-9.75,3.6,2.26,6.91,3.82,11.12,3.61C29.65,183.7,28.22,186,28.15,189Z"/><path fill="#fff" d="M124.91,214.15,121,210.37q2.94-3.93,5.89-7.84a85.46,85.46,0,0,0,5.82-8.19c.25-.43.49-.85,1.05-.94a3.59,3.59,0,0,1,3.38,1.86c.39.84-.18,1.48-.5,2.15a73.41,73.41,0,0,1-8.89,13.7C126.88,212.2,126.22,213.48,124.91,214.15Z"/><path fill="#060507" d="M137.12,195.26l-3.38-1.86a3.07,3.07,0,0,1,1.26-2.9l1.21.54a2,2,0,0,0,1.73,1.14.28.28,0,0,1,.39.16A3,3,0,0,1,137.12,195.26Z"/><path fill="#dfdee9" d="M121.57,215.33l.87.86c0,.06,0,.14-.09.18-.54.47-1.26,1.43-1.8.81S120.78,215.73,121.57,215.33Z"/><path fill="#c4bbd3" d="M138.33,192.34a1.32,1.32,0,0,1-.39-.15,1.72,1.72,0,0,1,.17-.57c.09-.15.32-.35.43-.32.32.08.29.39.18.62S138.46,192.2,138.33,192.34Z"/><path fill="#fff" d="M119.06,208.63l-4.21-3.81c2.15-2.64,4.49-5.11,6.49-7.86a64.33,64.33,0,0,0,4.39-6.58c.29-.54.47-1.2,1.28-1.18a5.79,5.79,0,0,1,4.21,2.68,6.58,6.58,0,0,1-1.48,2.93c-3,4.44-6.42,8.56-9.61,12.85A7.62,7.62,0,0,1,119.06,208.63Z"/><path fill="#040304" d="M131.22,191.88,127,189.2a2.26,2.26,0,0,1,1.27-2.95l.92.59a5.88,5.88,0,0,0,2.43,1.59c.46-.12.71.1.85.52A3.42,3.42,0,0,1,131.22,191.88Z"/><path fill="#e7eef2" d="M115.68,209.78l.79.66a1.3,1.3,0,0,1-.66.72c-.38.13-.75.36-1.15.09a.76.76,0,0,1-.24-.91C114.6,209.66,115.08,209.57,115.68,209.78Z"/><path fill="#e1dfe8" d="M132.48,189l-.85-.52a2.3,2.3,0,0,1,.16-.6c.18-.3.45-.61.84-.45s.33.56.29.9A.81.81,0,0,1,132.48,189Z"/><path fill="#7e5ba2" d="M158.43,21.76a7.86,7.86,0,0,0-.83-.11c-3-.41-5.73-1.27-7.76-3.69a1.74,1.74,0,0,0-1.1-.72c-.89,0-1.38.55-1.2,1.64a11.18,11.18,0,0,1-2.16,8.29c-1.37,2-.91,2.95,1.58,3.31a2.71,2.71,0,0,0,.41,0,6.92,6.92,0,0,1,5,2.21c.5.52,1,1,1.83.66s.86-1,.89-1.77a11,11,0,0,1,1.52-4.95A11.26,11.26,0,0,1,159,24.05C160.05,23.08,159.78,22.15,158.43,21.76ZM153,30.13a11.65,11.65,0,0,0-5.47-1.94c1.08-2.23,2.16-4.31,2.31-6.88A17.77,17.77,0,0,0,156,23.59,17.87,17.87,0,0,0,153,30.13Z"/><path fill="#7f5ca2" d="M321.38 93.93a4 4 0 00-4.15 4 4.23 4.23 0 004 4.25A4.3 4.3 0 00325.59 98 4.16 4.16 0 00321.38 93.93zm.11 6A1.92 1.92 0 01319.44 98a2.06 2.06 0 011.9-1.88 1.89 1.89 0 01.15 3.77zM52.29 231.42a3.84 3.84 0 00-3.88 3.81 3.92 3.92 0 107.83.21A4 4 0 0052.29 231.42zm0 5.66a1.7 1.7 0 01-1.67-1.74 1.8 1.8 0 011.84-1.58A1.52 1.52 0 0154 235.37 1.71 1.71 0 0152.28 237.08z"/><path fill="#7f5da3" d="M221,11.72a3.78,3.78,0,0,0,0,7.55,3.78,3.78,0,1,0,0-7.55Zm.06,5.27a1.63,1.63,0,0,1-1.54-1.44,1.5,1.5,0,0,1,3-.05A1.52,1.52,0,0,1,221.07,17Z"/><path fill="#020202" d="M209,372a18.61,18.61,0,0,1-4.16-.46,6.81,6.81,0,0,1-3.92-2.27,1.45,1.45,0,0,1-.15-2.07,1.29,1.29,0,0,1,1.9-.07c3,2.57,6.39,1.93,9.76,1.34a33.58,33.58,0,0,0,6.36-2c1.54-.59,2.4-.45,2.76.4s-.1,1.81-1.46,2.41A30.41,30.41,0,0,1,209,372Z"/><path fill="#040404" d="M289.91,366.93a3.16,3.16,0,0,1-.22.49c-2.74,4.25-4.31,9.05-6.48,13.58a23.34,23.34,0,0,1-1.19,2.2c-.37.61-.84,1.26-1.66.83s-.57-1.14-.25-1.81c2.15-4.54,4.27-9.09,6.44-13.62a7.17,7.17,0,0,1,1.78-2.55.89.89,0,0,1,1.16-.09A1,1,0,0,1,289.91,366.93Z"/><path fill="#050505" d="M200.53,310a.89.89,0,0,1-.9-1.09,3.36,3.36,0,0,1,.73-1.49,82.78,82.78,0,0,1,7.84-10.06,4.32,4.32,0,0,1,.76-.72.85.85,0,0,1,1.14.09.88.88,0,0,1,.21,1.14,6.47,6.47,0,0,1-.58.86A88.54,88.54,0,0,0,202,308.89,1.89,1.89,0,0,1,200.53,310Z"/><path fill="#1d1b1b" d="M275.83,395a1.06,1.06,0,0,1-1-1.11c0-.92.62-2.07,1.27-2.14a.94.94,0,0,1,1.11.94C277.35,393.63,276.52,395,275.83,395Z"/><path fill="#010101" d="M279.63,308.24c-6,.21-11.6-1.29-17.16-3a3.55,3.55,0,0,1-1.65-.86.94.94,0,0,1-.18-1.15.92.92,0,0,1,.85-.51,5.41,5.41,0,0,1,2,.5,55.13,55.13,0,0,0,18.33,2.87,26.31,26.31,0,0,0,8.39-1.62,10.49,10.49,0,0,1,1.59-.51.84.84,0,0,1,1,.54.88.88,0,0,1-.34,1.11,13,13,0,0,1-1.87.92A26,26,0,0,1,279.63,308.24Z"/><path fill="#050305" d="M246.15,297.25c.14.05.41.12.67.22l5.42,2.21c.61.25,1.25.55,1,1.33s-1,.81-1.75.57A50,50,0,0,1,246,299.4a2.52,2.52,0,0,1-.83-.61,1,1,0,0,1-.09-1.17C245.31,297.29,245.66,297.23,246.15,297.25Z"/><path fill="#060505" d="M231.64,175.15a8.45,8.45,0,0,1,6.52,3.13c.38.44.65,1,.18,1.5s-1.1.47-1.66.07a3.65,3.65,0,0,1-.61-.57c-2.28-2.4-5.06-2.46-7.85-1.09-.49.25-1,.57-1.43.86s-1.2.55-1.68-.08,0-1.19.5-1.58A10.62,10.62,0,0,1,231.64,175.15Z"/><path fill="#0b0b0b" d="M249.73,216.32a2.57,2.57,0,0,1-.66,2.1,1.07,1.07,0,0,1-1.15.27.91.91,0,0,1-.55-1c0-.34.18-.67.2-1,.06-.71.12-1.41-.95-1.42a.93.93,0,0,1-1-1.07c.09-.77.69-.92,1.37-1C248.76,213.14,249.7,214.19,249.73,216.32Z"/><path fill="#0e0d0d" d="M231.18,189.27a4.59,4.59,0,0,1-2.89-.86,1.1,1.1,0,0,1-.39-1.47.89.89,0,0,1,1.42-.29,3.4,3.4,0,0,0,3,.26,6.17,6.17,0,0,1,.62-.11c.67-.08,1.33,0,1.46.79s-.47,1.13-1.11,1.29S231.8,189.16,231.18,189.27Z"/><path fill="#0c0b0b" d="M217.81,135.09a9.76,9.76,0,0,1-4.46-1.2c-.46-.25-.8-.62-.62-1.19a1,1,0,0,1,1.33-.67,2.2,2.2,0,0,1,.6.19,5.94,5.94,0,0,0,4.26.53c.67-.19,1.31,0,1.48.74s-.31,1.16-1,1.31S218.16,135,217.81,135.09Z"/><path fill="#090808" d="M173.22,140.43a5.2,5.2,0,0,1,1.51-3.94,1.09,1.09,0,0,1,1.5-.3c.64.48.54,1.09.05,1.63-1.54,1.7-1,3.3.19,4.89l.27.32a1,1,0,0,1,0,1.33,1,1,0,0,1-1.5.08A6,6,0,0,1,173.22,140.43Z"/><path fill="#0e0d0d" d="M181.14,144.35a5.28,5.28,0,0,1-.56,2.77,1.12,1.12,0,0,1-1.39.64c-.7-.23-.71-.84-.51-1.38a7.16,7.16,0,0,0,.21-3.7c-.12-.68,0-1.33.72-1.5s1.08.39,1.25,1.06A6.53,6.53,0,0,1,181.14,144.35Z"/><path fill="#dab9fd" d="M361.54,240.53a10.32,10.32,0,0,0-3.75-2.34,21.23,21.23,0,0,0,2.7-3.49c.33-.58.78-.55,1.21-.18a10.48,10.48,0,0,0,3,1.75Z"/><path fill="#d4b3f7" d="M86.31,110.34a1.64,1.64,0,0,1-1.57-1.61,1.62,1.62,0,0,1,1.61-1.32,1.56,1.56,0,0,1,1.47,1.46A1.68,1.68,0,0,1,86.31,110.34Z"/></g></g></svg>