<svg xmlns="http://www.w3.org/2000/svg" viewBox="0 0 399.01 501.18"><g data-name="Layer 2"><g data-name="Layer 1"><path fill="#fefefe" d="M310.52,485.28c-4.77,3.63-3.31,7.24-13.45,9.1-14.92,2.75-21.79-3.32-49.49-7.92-14.39-2.38-23.05-3.75-34.83-2.37-9.24,1.08-11.54,2.82-30.88,8.31-21.83,6.21-32.74,9.31-37.61,8.71-19.78-2.43-22.84-19.5-44.33-26.52-15-4.89-29.52-1.84-39.59,1.58,0,0-8.71-130.63,23.35-238.7,0,0,7.92-18.21,31.67-32.46,0,0,35.24,14.64,58.2,34.83,0,0,11.87,31.67,16.62,78s112,123.11,112,123.11Z"/><path fill="#0887c4" d="M307.5,57.12a4,4,0,0,0-3.61,3,3.94,3.94,0,0,0,1.44,4.78l.83-2.69c-.33-2.3.76-3.13,3.06-2.32h0l2.65-.33A4,4,0,0,0,307.5,57.12Z"/><path fill="#020202" d="M65,30.22A11.51,11.51,0,0,1,64.69,29,19.16,19.16,0,0,1,64,23.45a16.65,16.65,0,0,1,.66-3.36c.3-1.16-.45-1.81-1.58-1.5a4.93,4.93,0,0,0-.77.37,9.45,9.45,0,0,1-8.3-.24c-.38-.18-.74-.43-1.14-.58a1.6,1.6,0,0,0-1.81.2c-.5.47-.27,1.05-.11,1.61.38,1.37.73,2.76,1.09,4.14.08,1.13-.61,2.08-.69,3.17s-.58,2-.69,3.09A1.83,1.83,0,0,0,53,32.52c.56-.1,1.09-.3,1.64-.43,1.9-.26,3.69-1.37,5.71-.73a8.25,8.25,0,0,1,2.66.79c.6.3,1.25.53,1.82.05S65.3,30.92,65,30.22Zm-8.1-1.42c-.76-1.18-.17-2.3.23-3.4.31-.86.53-1.74.83-2.6l.06-.09a1.4,1.4,0,0,0-2,.1,5.19,5.19,0,0,1-1.82,1c-.18-.8-.37-1.61-.62-2.7,2.39,1,4.65.87,6.9.89h0c.52,0,1.35-.76,1.28.54a23.56,23.56,0,0,0,.58,6.82A32,32,0,0,0,56.94,28.8Z"/><path d="M266.73,105.65a66.19,66.19,0,0,1,13.36,1.89c4.17.89,7.4,3.31,10.23,6.35a44.73,44.73,0,0,1,6.39,9.39,14.22,14.22,0,0,0,1.6,2.78c1.81,1.6,2.46,3.89,3.31,6a118,118,0,0,1,8.33,33.6c1.09,11.35.7,22.71.77,34.07.09,13,.28,25.91,0,38.86A170.41,170.41,0,0,0,318.43,293a161.37,161.37,0,0,1,6,30.23,108.8,108.8,0,0,1-.16,21.95c-.5,5.3-.93,10.59-1.63,15.87-1.41,10.65-5.5,20.21-11.27,29.15-1.83,2.84-3.57,5.75-5.61,8.45a6.24,6.24,0,0,0-.9,1.48c-.58,1.5-.05,2.2,1.56,1.95a9.62,9.62,0,0,1,3.21-.12c3.94.71,5.41,4,3.31,7.43A10,10,0,0,1,308.5,413c-.81.4-1.85.69-1.79,1.89s.91,1.73,1.88,2.14l.79.35c5.09,2.44,6.06,5.42,3.12,10.17a4.27,4.27,0,0,0-.12,4.83c.79,1.36,1.6,2.78.91,4.47a13.13,13.13,0,0,1-1.72,3.22,4.69,4.69,0,0,0-.65,3.9,9.67,9.67,0,0,1-2.23,9.24,2.21,2.21,0,0,0-.56,1.94q1.56,11.88,3.07,23.75c.56,4.49,1.07,9,1.6,13.49a6.36,6.36,0,0,1,.07.86c0,1-.26,1.79-1.31,1.92s-1.6-.64-1.77-1.54c-.36-2-.71-4-.89-6-.59-6.67-1.59-13.28-2.42-19.92-.49-3.84-.8-7.71-1.21-11.7-1,.14-1.89.19-2.76.4a15.77,15.77,0,0,1-8.5-.68q-4.74-1.42-9.45-3a37.92,37.92,0,0,1-9.09-4.38c-3.68-2.39-7.37-4.77-11.08-7.1a61.33,61.33,0,0,0-25.91-8.76c-6.06-.7-12.07-1.85-18.13-2.65-5.91-.79-11.84-1.49-17.66-2.84l-5.37-1.23c-.14,2.21.44,4.28.69,6.37.52,4.36.82,8.74,1.14,13.11,1,14.08.79,28.19,1.39,42.28a85.19,85.19,0,0,0,.73,9c0,.29.07.57.1.86a1.64,1.64,0,0,1-1.21,2c-.82.23-1.66-.46-1.88-1.63a68.4,68.4,0,0,1-.83-8.8c-.52-8.77-.33-17.56-.62-26.33-.33-9.63-.85-19.26-1.65-28.87-.22-2.65-.65-5.28-.88-7.93a1.57,1.57,0,0,0-1.41-1.57c-3.33-.9-6.64-1.87-9.95-2.81-1.38-.4-2.79-.72-4.13-1.22a1.33,1.33,0,0,0-1.92.7,30.66,30.66,0,0,1-5.73,7,4.78,4.78,0,0,1-4.9,1.32,26.41,26.41,0,0,1-7.76-3.11,49.45,49.45,0,0,0-9.95-5.1,8.35,8.35,0,0,1-2.57-1.56c-1.39-1.2-1.44-1.83-.34-3.28.3-.4.76-.69.87-1.22a1.33,1.33,0,0,1,.37-1c6.4-7.17,11-15.56,16-23.67a256.85,256.85,0,0,0,13.69-26.09,40.41,40.41,0,0,1,2.48-4.52c.46-.73.86-1.51,1.8-1.74a6,6,0,0,1,4.29,1c1.1.68,2.26,1.27,3.41,1.84.37.18.72.5,1.25.39s.22-.6.21-.91q-.41-15.32-.84-30.64a276.66,276.66,0,0,0-2.63-27.7c-1.5-11.62-3.18-23.22-5.55-34.7-1.44-7-3.36-13.82-5.41-20.63a6.47,6.47,0,0,1-.3-1c-.33-2.72-2.12-4.46-4.13-6A309.09,309.09,0,0,0,118.25,207c-2.68-1.28-2.75-1.3-4.81.86a81,81,0,0,1-10.72,9,49.22,49.22,0,0,0-18.5,27c-3.3,11.56-5.86,23.27-8.13,35.06-1.85,9.67-3.88,19.31-5.42,29-1.56,9.94-3,19.9-4.53,29.85-1.51,10.18-2.62,20.4-3.69,30.63-.85,8.16-1.37,16.34-1.83,24.53-.68,11.86-1.37,23.71-1.14,35.59.16,8.2.63,16.39,1.31,24.57s1.56,16,2.71,24a8.34,8.34,0,0,1,.09,1.5,1.49,1.49,0,0,1-2.94.34,21.29,21.29,0,0,1-.51-2.76,429.53,429.53,0,0,1-3.68-43c-.06-1.8-.21-3.59-.32-5.38a2.62,2.62,0,0,1-.54-1.61c0-4.6-.28-9.2.21-13.79.41-3.93.25-7.88.54-11.83.63-8.45,1-16.91,1.72-25.35,1.2-14.69,3.06-29.3,5.13-43.89,2.8-19.72,6.33-39.31,10.27-58.84,1.84-9.17,3.89-18.28,6.41-27.29a9,9,0,0,1,1.42-3.11,33.25,33.25,0,0,0,1.89-5c3.19-8.87,8.86-15.87,16.13-21.67,2.64-2.11,5.4-4.07,8.06-6.14a26.62,26.62,0,0,0,4.51-4.3c2-2.7,2.31-6.09,3.55-9.1.75-2.72,1-5.57,2.1-8.2a3.07,3.07,0,0,1,4.15-1.74c4.23,1.55,6.63-1.14,9.1-3.61a66.22,66.22,0,0,0,4.57-5.45c.82-1,1.1-2,.13-3.07a6.51,6.51,0,0,1-1.26-2.94,229.06,229.06,0,0,1-5-26.94c-1-8.63-1.93-17.34-.64-26,2.07-13.88,8.78-25.37,19.33-34.45,7.45-6.4,16.49-7.93,26.12-7.21,6.13.46,11.73,2.62,17.48,4.49,9.43,3.06,18.84,6.35,28.81,7.28a74.56,74.56,0,0,0,16.35-.49,14.37,14.37,0,0,1,6.83.33c.91.15,1.83.28,2.74.47A9.9,9.9,0,0,1,254,94.8c.25.66.55,1.31.83,2,1.9,3.82,1.21,7.61-.53,11.16a24.5,24.5,0,0,1-13.91,12.43,6.63,6.63,0,0,0-2.4.89,32.32,32.32,0,0,1-9.82,2.25c-1.68.2-2.22.89-2.17,2.47a19.15,19.15,0,0,0,1.91,7.7c3.23-4.81,5.66-9.89,10.7-12.72.77-.39,1.66-.46,2.44-.84a4.82,4.82,0,0,1,2.57-.16c2,.54,2.73-.52,3.71-2,3.86-5.74,8.71-10.32,15.57-12.32A5.66,5.66,0,0,1,266.73,105.65Z"/><path fill="#80afc1" d="M313.29,436.86a6.1,6.1,0,0,0-1.35-4,4.29,4.29,0,0,1,.17-5.87l.13-.18c2.57-3.3,2-6-2.19-8.39a15,15,0,0,0-2.54-1.17,2.25,2.25,0,0,1-1.55-1.86c-.4-1.76-.42-1.81,1.31-2.49a15.83,15.83,0,0,0,3.07-1.56,7.08,7.08,0,0,0,2.79-3.48c.84-2.34,0-4.1-2.33-5a6.88,6.88,0,0,0-5.05.12c-1.38.5-1.32.44-1.71-.85a3.08,3.08,0,0,1,.6-3c3.24-4.41,6.08-9.08,8.91-13.76a65.82,65.82,0,0,0,8.66-25.55c1.09-8,1.73-16,2.06-24.07.27-6.64-.53-13.21-1.35-19.79-1.21-9.68-4.12-18.95-6.54-28.34-1.44-5.63-3-11.24-4.11-17-1.69-8.87-2-17.86-2.08-26.86-.1-18.06-.2-36.12,0-54.18a217.39,217.39,0,0,0-1.38-28.87,106.58,106.58,0,0,0-9.27-32,11.63,11.63,0,0,1-1.19-2.76,3.84,3.84,0,0,1,1,.2c6.71,3.41,13.69,6.23,20.54,9.34.56.85-.28,1.27-.61,1.81a40,40,0,0,0-2.25,3.64c-.32.67-1,1.53-.12,2.09s1.32-.49,1.71-1.1a47.29,47.29,0,0,1,3-4.41c.35-.44.68-.94,1.35-.92a54.63,54.63,0,0,0,6.91,3.4c0,1.23-1.2,1.51-1.86,2.2a20.55,20.55,0,0,0-3.27,3.7c-.29.5-.67,1.07,0,1.52s1,0,1.32-.41a40,40,0,0,1,3.84-3.75c1-.84,1.93-2,3.49-1.8,0,.62.41.85.85,1.11a114.47,114.47,0,0,1,14.4,10,11.07,11.07,0,0,0,2.85,2.24c.3,2.35-1.37,3.21-3,4.06-.78.4-1.86.28-2.49,1.4a6.36,6.36,0,0,0,5.48-2c.54-.51.81-1.43,1.82-1.28a74.06,74.06,0,0,1,8.18,8.15,20.16,20.16,0,0,0,3.14,3.19,1.07,1.07,0,0,1,.08,1c-.71,2.3-.71,2.33,1.44,3a5.81,5.81,0,0,1,4.08,3.72A158.36,158.36,0,0,1,384.49,201a180,180,0,0,1,9.44,25.65,167.46,167.46,0,0,1,4.15,18.89c.28,1.77.45,3.56.56,5.35.18,2.85.44,5.72.36,8.57a91.58,91.58,0,0,1-.84,10.06,64.18,64.18,0,0,1-4.58,16.55,145.47,145.47,0,0,1-8.18,15.84c-5.57,9.39-11.56,18.53-16.27,28.4-1.95,4.08-3.85,8.19-5.49,12.4a48.58,48.58,0,0,0-2.54,11.08c-.75,5.4-1.12,10.84-1.84,16.23a164.26,164.26,0,0,1-4.36,22.13,83.3,83.3,0,0,1-4.58,12.74,51.06,51.06,0,0,1-9.16,13.46A67.9,67.9,0,0,1,322,432.77,67.17,67.17,0,0,1,314.7,436,3.83,3.83,0,0,0,313.29,436.86Z"/><path fill="#0385c4" d="M180.86,358.07c-2.57,3.41-4.19,7.35-6,11.15a266.08,266.08,0,0,1-17.6,31.35c-1.91,2.87-3.76,5.78-5.68,8.65a26.53,26.53,0,0,1-5,5.84c-6.36-3.19-11.49-7.77-14.52-14.23-6.13-13.07-12.07-26.24-16.36-40.07-3.77-12.15-7.34-24.35-9.57-36.89-1.07-6-1.73-12.1-2.29-18.18a125.55,125.55,0,0,1-.5-21.76c1.41-17.64,8.54-32.36,22.61-43.41a27.37,27.37,0,0,1,17-5.91,23.57,23.57,0,0,1,12.38,3.18,24.45,24.45,0,0,1,11,13.94c3.17,9.85,5.95,19.81,7.08,30.17C174,288,175,294,175.55,300.08c.4,4.73.8,9.46,1.1,14.19.36,5.68,1,11.32,1.5,17,.65,6.79,1.34,13.59,2,20.38C180.38,353.78,180.63,355.92,180.86,358.07Z"/><path fill="#80afc1" d="M81.3 242.21c-1 3.82-2 7.64-3 11.45-2.17 8-3.55 16.14-5.17 24.24-2.1 10.5-4.24 21-5.87 31.58-2.3 14.92-4.59 29.84-6.41 44.84-2 16.72-3.1 33.51-4.08 50.31-.41 7-.67 14.08-.52 21.14 0 .71 0 1.43-.08 2.15a85.9 85.9 0 01-20.78-11.17 81.17 81.17 0 01-13.9-12.2 65.15 65.15 0 01-12.14-18.4 93 93 0 01-5-15.08 80.91 80.91 0 01-1.69-16.86A102.59 102.59 0 015.7 327.39 98.56 98.56 0 0112 310.26 109.91 109.91 0 0118.68 298a76.7 76.7 0 018.18-11.06c1.6-1.75 3.14-3.56 4.8-5.24a161.58 161.58 0 0117.87-15.18c6.47-4.88 13-9.66 19.46-14.58 3.88-3 7.61-6.11 11.41-9.17A9.07 9.07 0 0181.3 242.21zM243.55 88c-5.27-.14-10.46.79-15.71 1a71.22 71.22 0 01-22.52-3.18c-6.47-1.92-12.94-3.83-19.27-6.18a46.07 46.07 0 00-23.15-2.19 31 31 0 00-18.36 10.07c-7.7 8.28-13 17.84-15.12 29.05a35.8 35.8 0 00-.71 7.72c.16 5.17.22 10.36.7 15.51a189.9 189.9 0 004.26 25.71c.3 1.32.55 2.67.81 4 .37 1.91.71 3.84 2.42 5.12a.76.76 0 01.13 1.26c-3.11 3.86-6.07 7.86-10.14 10.84a2.38 2.38 0 01-2.54.44 14.59 14.59 0 00-2.73-.6 3.94 3.94 0 00-4.08 1.28c0-2 .77-3.77 1-5.7.39-3.48 1.09-6.92 1.2-10.44a73.9 73.9 0 00.33-7.73c-.3-4.29-.5-8.57-1.09-12.84-.61-4.47-1.2-8.93-1.91-13.38-.94-5.87-1.64-11.76-2.24-17.67-.37-3.58-.37-7.16-.57-10.72a72.68 72.68 0 01.5-11.11 52.56 52.56 0 013.17-13.33 1.94 1.94 0 000-.64c1.33-.48 1.33-.48 2-3 1.36-1.66 2.66-3.38 4.11-5a34.28 34.28 0 017.19-5.79A48.16 48.16 0 01152 63.32a164.8 164.8 0 0122.75-1.13c5.71.16 11.43.41 17.12 1.06a58.86 58.86 0 0111.78 2.29A88.48 88.48 0 01213 69.33a152.12 152.12 0 0115.19 8.07c3.81 2.27 7.44 4.86 11.12 7.36A27.15 27.15 0 01243.55 88z"/><path fill="#0485c4" d="M1.08,192.05a1.18,1.18,0,0,1,1.07.95c.92,3.27,3.11,5.64,5.58,7.76a27.61,27.61,0,0,1,7.83,9.88,7.19,7.19,0,0,0,2.68,3c1.3.89,2.62,1.77,3.92,2.67A20.08,20.08,0,0,1,30,226.6c.49,1.42,1,2.84,1.47,4.27a8.3,8.3,0,0,0,5.33,5.53c1.48.54,3,1,4.48,1.55a25.61,25.61,0,0,1,6.78,3.23A5.62,5.62,0,0,1,49.88,243a1.12,1.12,0,0,1-.15,1.56c-.55.45-1.07.24-1.48-.27-1.61-2-3.92-2.86-6.2-3.72-1.82-.68-3.68-1.21-5.52-1.83a10.76,10.76,0,0,1-7.31-7.31c-.44-1.37-.93-2.72-1.39-4.08a17.73,17.73,0,0,0-6.59-8.84,12.6,12.6,0,0,0-1.06-.74A18.07,18.07,0,0,1,12,208.94c-1-2.4-3.15-4.07-5.09-5.79A25.38,25.38,0,0,1,.81,196,5.26,5.26,0,0,1,0,193.1C.07,192.43.4,192,1.08,192.05Z"/><path fill="#0486c4" d="M94.15 146.63c0 .67-.27 1-.73 1.15a.92.92 0 01-1-.29 1.06 1.06 0 01-.26-.34C91 143.76 88 142.63 85 141.57c-1.49-.53-3-1-4.46-1.63a7.78 7.78 0 01-4.7-5.28c-.27-1-.57-1.93-.85-2.89a12.73 12.73 0 00-6.2-7.69 33.12 33.12 0 00-5.88-2.68 17.42 17.42 0 01-11-10.26 36.59 36.59 0 00-4.61-8.52c-.53-.68-1.11-1.32-1.64-2a1.11 1.11 0 01-.08-1.56 1.06 1.06 0 011.55 0 10.4 10.4 0 011.51 1.53 30.57 30.57 0 013.74 6c.81 1.76 1.69 3.49 2.52 5.25a13.08 13.08 0 007.25 6.73c1.73.7 3.45 1.43 5.17 2.16 5.39 2.26 9 6.07 10.28 11.88.69 3.3 2.7 5.06 5.76 6a30.33 30.33 0 016.19 2.48 9.48 9.48 0 014.15 4.25A10.38 10.38 0 0194.15 146.63zM353.28 157.13c-.87.64-1.28 1.68-2.14 2.36a10.12 10.12 0 01-4.77 1.77.94.94 0 01-1.18-.64 1 1 0 01.58-1.23A4.49 4.49 0 01347 159a5.29 5.29 0 004.54-4 22.63 22.63 0 001.36-5.2c.55-2.66 1.81-4.59 4.58-5.43a8 8 0 005.46-5.66c0-.14.12-.27.15-.4a11.64 11.64 0 016.23-8.56 7.79 7.79 0 003.78-5.29 12.55 12.55 0 014.25-6.81 24.45 24.45 0 006.88-9.79c.22-.59.53-1.1 1.22-.95a1.27 1.27 0 011 1.66 7 7 0 01-.71 1.79 29.19 29.19 0 01-6.88 9.05 10 10 0 00-3.48 5.54 10.36 10.36 0 01-5.08 6.93 9.77 9.77 0 00-4.91 6.71 10.34 10.34 0 01-5 7 10.86 10.86 0 01-2.35 1.08 3.78 3.78 0 00-2.72 3C354.65 152.15 354 154.63 353.28 157.13zM307.56 7.57c-.15.39-.37 1.07-.67 1.72a20.05 20.05 0 01-4.21 6 10.64 10.64 0 00-2.94 4.68 14.66 14.66 0 01-5.13 7.78 6.13 6.13 0 00-2.07 3.69c-.23 1-.39 2-.59 3A9.54 9.54 0 01287.62 41a7.41 7.41 0 00-3.48 5.2c-.21 1.12-.56 2.23-.77 3.35-.63 3.23-2.71 5.66-4.48 8.26a.9.9 0 01-1.14.34 1 1 0 01-.57-1 3.1 3.1 0 01.89-1.93A15.67 15.67 0 00281.65 47c.11-.71.3-1.4.47-2.1a8.15 8.15 0 013.65-5.38 8.45 8.45 0 004.09-6.5c.11-.78.29-1.55.47-2.32a8.52 8.52 0 013.08-5.05 10.37 10.37 0 003.74-5.4A15.87 15.87 0 01301.59 13 15.21 15.21 0 00305 7.82c.17-.39.3-.81.49-1.19a1.12 1.12 0 011.38-.75C307.57 6.07 307.63 6.65 307.56 7.57z"/><path fill="#0586c4" d="M196.52,16.06a27.31,27.31,0,0,1-.58,2.7,4.57,4.57,0,0,0,.94,4.44,26.48,26.48,0,0,0,2.46,2.72,9.45,9.45,0,0,1,3.17,6.64,8.55,8.55,0,0,0,5.17,7.82,16.33,16.33,0,0,1,3.77,2.49,5.63,5.63,0,0,1,2,4.58c0,.62-.2,1.18-.92,1.25a1,1,0,0,1-1.1-1.07c-.05-2.6-1.92-3.69-3.81-4.79-1-.57-2-1.14-3-1.75a8.93,8.93,0,0,1-4.22-6.7c-.11-.78-.27-1.56-.34-2.34A6.72,6.72,0,0,0,198,27.9c-1-1-2-2.09-2.9-3.2a6.69,6.69,0,0,1-1.4-6.46,7.85,7.85,0,0,0-.58-5.84c-1.56-3.32-3.22-6.59-4.45-10-.29-.81-.87-1.75.24-2.23s1.55.52,1.85,1.32c1.4,3.71,3.24,7.21,4.8,10.84A10.39,10.39,0,0,1,196.52,16.06Z"/><path fill="#010101" d="M115.35,88.29a1.44,1.44,0,0,1-.85,1.39,1.4,1.4,0,0,1-1.62-.18A9.84,9.84,0,0,1,111.65,88,102.47,102.47,0,0,0,99.2,73.19a57.36,57.36,0,0,0-8.11-6.38c-1.65-1.1-2-1.81-1.39-2.63s1.42-.71,3.07.29a64.61,64.61,0,0,1,16.6,15.19c1.8,2.24,3.43,4.61,5.13,6.93A3.35,3.35,0,0,1,115.35,88.29Z"/><path fill="#80afc1" d="M266.73,105.65c-4.91.13-9,2.23-12.59,5.4a30.13,30.13,0,0,0-7.36,8.91c-.39.79-.8,1.13-1.65.77-1.32-.56-2.7-.22-4-.23-.45.12-1,.36-.89-.48A30.2,30.2,0,0,0,251.13,112c3.58-4.3,5-9.07,3.74-14.56a2.74,2.74,0,0,1,0-.64l9.68,7.28C265.25,104.58,266,105.11,266.73,105.65Z"/><path fill="#020202" d="M51.76 100.11c.68-.07 1 .41 1.38.87a39.45 39.45 0 013.77 6c.33.64.66 1.28.93 2a9.79 9.79 0 006.72 6.15 59.69 59.69 0 016.23 2.4 15.35 15.35 0 018.78 9.25c.65 1.74 1 3.62 2.14 5.15a1 1 0 01-.17 1.54 1.07 1.07 0 01-1.54-.16 5.3 5.3 0 01-1.36-2.18c-.45-1.21-.83-2.45-1.28-3.66a13 13 0 00-7.54-7.84c-2.26-.9-4.51-1.86-6.83-2.62a10.3 10.3 0 01-6.35-5.46 58.74 58.74 0 00-5.35-9.58C50.63 101.06 50.94 100.18 51.76 100.11zM285.05 51.51c.66-1.77.73-3.81 1.3-5.74a5.63 5.63 0 012.35-3.24c.54-.36 1.06-.75 1.62-1.07a6.51 6.51 0 003.22-4.84c.12-.71.18-1.43.23-2.14.21-3 1.29-5.42 4.11-6.84a4.82 4.82 0 002.72-4.15c.22-4.13 3.14-6.42 5.78-8.94a.87.87 0 011.17-.13 1 1 0 01.35 1.33 5.27 5.27 0 01-1.81 2.1 7.48 7.48 0 00-3.21 5.61 7.81 7.81 0 01-4.16 6.4 4.54 4.54 0 00-2.49 4c-.06.86-.23 1.71-.34 2.57-.38 2.92-1.53 5.43-4.22 6.87A6.46 6.46 0 00288 49a14.66 14.66 0 01-.84 3.33 1.12 1.12 0 01-1.53.79C285 52.84 285 52.25 285.05 51.51z"/><path fill="#010101" d="M323,136.71a42.36,42.36,0,0,0-3.85,5.37c-.11.18-.21.37-.32.56-.82,1.37-1.47,1.71-2.29,1.2s-.91-1.24-.17-2.64c.53-1,1.17-2,1.78-2.92s1.15-1.79,1.73-2.68a75.62,75.62,0,0,1,9.64-10.74,40.26,40.26,0,0,1,6.48-5,6.49,6.49,0,0,1,1.32-.71,1.47,1.47,0,0,1,1.88.6,1.42,1.42,0,0,1-.33,1.94,16.09,16.09,0,0,1-1.6,1.09A59.74,59.74,0,0,0,323,136.71Z"/><path fill="#020202" d="M46.36 236.64a.87.87 0 01-.91.89 1.41 1.41 0 01-.83-.16c-2-1.48-4.48-1.92-6.67-3a11 11 0 01-5.88-7.07 32.44 32.44 0 00-2.53-6.16 13.31 13.31 0 00-6.08-5.9c-1.1-.52-2.19-1.09-3.24-1.7a9.58 9.58 0 01-4.33-5.69c-.23-.71-.26-1.31.51-1.6s1.09.17 1.37.73c.18.39.33.79.49 1.19a7.14 7.14 0 003.45 3.71c.89.46 1.79.92 2.7 1.34a15.32 15.32 0 017.3 7.05 30.11 30.11 0 012.45 6 9.2 9.2 0 006.18 6.63 18.23 18.23 0 014.91 2.16C45.78 235.44 46.34 235.79 46.36 236.64zM358 152.53c-.82-.15-1-.7-.89-1.43a4.7 4.7 0 011.77-2.63 12.77 12.77 0 013-1.72 7.42 7.42 0 004.44-5.46 29.61 29.61 0 01.85-2.88 8.57 8.57 0 014.22-5.24A10.2 10.2 0 00377.2 125a7.87 7.87 0 012.63-5.06 3.57 3.57 0 011.45-.89 1 1 0 011.13.41.79.79 0 01-.15 1.16c-2.59 1.69-2.84 4.5-3.48 7.13a8.79 8.79 0 01-4.55 6.24c-3.4 1.66-5.11 4.42-5.82 8a9.2 9.2 0 01-5.48 6.76c-1.57.73-3.15 1.45-3.9 3.19A1 1 0 01358 152.53zM199.65 17.56a15 15 0 00-1.1-6.79 21 21 0 01-.8-2.67A.91.91 0 01198.48 7a1 1 0 011.08.55 1.69 1.69 0 01.19.38c1.18 3.16 2.53 6.29 2.13 9.78a4.51 4.51 0 002 4.45c.34.26.67.54 1 .79a8.08 8.08 0 013.83 7.69 5 5 0 002.39 4.93 10.85 10.85 0 013.46 4.07 5.32 5.32 0 01.5 1.4 1 1 0 01-1.85.78 7.08 7.08 0 01-.69-1.08A10.19 10.19 0 00209.32 37a6.24 6.24 0 01-2.82-5.49c0-.72 0-1.44-.05-2.16a5.06 5.06 0 00-2-3.89c-.84-.67-1.69-1.33-2.52-2A6.18 6.18 0 01199.65 17.56zM119.92 81.18a6.7 6.7 0 00.28.79 1.68 1.68 0 01-.15 2.13c-.66.69-1.38.5-2.11.13-.63-1.21-1.25-2.42-1.88-3.62a34.08 34.08 0 00-6-8.38c-.21-.21-.42-.4-.6-.62a1.4 1.4 0 112-2 39.55 39.55 0 012.85 2.94A50.23 50.23 0 01119.92 81.18z"/><path fill="#020203" d="M333.42,141.57a23.24,23.24,0,0,0-6.24,5.1c-.33.37-.62.78-1,1.14-.6.64-1.3.95-2.06.29a1.42,1.42,0,0,1-.08-2.11,25.7,25.7,0,0,1,3.9-4.24c.64-.55,1.3-1.1,1.95-1.64,1.38-.88,2.76-1.77,4.15-2.64a14.63,14.63,0,0,1,1.5-.83,1.52,1.52,0,0,1,1.46,2.67c-.88.6-1.84,1.09-2.76,1.64C334,141.13,333.71,141.36,333.42,141.57Z"/><polygon fill="#0686c4" points="49.42 167.35 49.42 167.49 49.26 167.47 49.28 167.29 49.42 167.35"/><path fill="#fff" d="M241 305.82c1.18 16.79 3 33.52 5.05 50.23 1 8.28 1.79 16.59 3.16 24.82 1.18 7.1 2.5 14.16 5.61 20.75a14.81 14.81 0 006.49 7.24 11.72 11.72 0 006.1 1.41 9.58 9.58 0 01-5 1.65 30.69 30.69 0 01-12.52-1.53A142.75 142.75 0 01223.1 397.2c-5.94-3.66-11.77-7.48-17.85-10.9-2.82-1.59-5.7-3-8.67-4.34-2.2-1-2.19-1-1.55-3.31a79.52 79.52 0 001.8-7.77 22.17 22.17 0 00.27-2.57 4 4 0 00-2.24-4.1c-1.49-.68-1.67-1.72-1.69-3.09-.14-7.12-.34-14.25-.5-21.37a320.14 320.14 0 00-2.84-37c-1.59-11.47-3.25-22.92-5.34-34.31a70.94 70.94 0 00-2-8.38 1.45 1.45 0 01.78-2.07c4.47-2.4 7.51-6.16 10-10.49A65.14 65.14 0 00200 228.27c.58-2.81 1.19-5.62 1.7-8.45.14-.82.41-1.1 1.23-1a25.71 25.71 0 007.25-.18c-.11 1.41-.21 2.68-.32 4a109 109 0 00-.3 17.89 25.5 25.5 0 003 10.27 13.46 13.46 0 0015.57 6.74c1.11-.29 2.22-.58 3.32-.9.84-.24 1.33-.17 1.44.89a44.26 44.26 0 004 14.26c1.82 3.94 2.22 8.15 2.63 12.37a1.49 1.49 0 01-1.22 1.92 9.34 9.34 0 00-3.05 1.54c-2.68 2.05-2.31 4.56.82 5.87 1.39.59 3 .57 4.27 1.42a1.63 1.63 0 01.27.93c-.14 1.26-1.11 1.58-2.11 1.79a6.61 6.61 0 00-3.54 1.89c-1.71 1.79-1.36 3.78.88 4.86a9.92 9.92 0 003.32.81C239.81 305.21 240.6 305.06 241 305.82zM236.18 205.59c.75-1.42.6-2.18-.6-3.05a2.7 2.7 0 00-3.55.24 7.52 7.52 0 00-1.79 4.08c-.18 1-.27 1.95-.43 3.15a7.28 7.28 0 01-2.17-4.79c-.76-4.58-.39-9.18-.18-13.77.1-2.15.4-4.29.56-6.44a1.57 1.57 0 011-1.61c3-1.31 3.78-3 3.18-6.2a12.47 12.47 0 00-.5-2.09 10 10 0 01.3-8.31c.14-.51 0-1.08.43-1.52.19-.3.37-.59.53-.9s.49-.91.71-1.37.37-.78.59-1.15.51-.69.74-1.05a2.29 2.29 0 01.79-.66c3-3.89 6.32-7.46 8.95-11.6 3.09-4.9 3.89-6.66 6.39-14.44 1 .93 2.08 1.81 3.06 2.73a25.86 25.86 0 007.38 4.78 78.52 78.52 0 0113.91 7.75c.71.5 1.4 1 2.1 1.51 5.31 3.79 7 9.08 6.35 15.32a80.65 80.65 0 01-3.35 15.36c-2.2 7.36-4.47 14.7-6.72 22.05a24.74 24.74 0 01-6.11 10.52c-.35.35-.64.8-1.28.87a16.36 16.36 0 01-.79-4.17c-.79-4.31-1.48-8.65-2.22-13a18.34 18.34 0 00-1.17-3.91 6.84 6.84 0 00-1.23-2c-2.23-2.46-5.44-2-6.8 1.08a10 10 0 00-.75 3.78 92.35 92.35 0 00.44 9.7c.36 5.17.28 10.36.87 15.51.22 1.93.54 3.85.81 5.77.12.87.5 1.52 1.5 1.5.85 0 1.4-.69 1.25-1.89-.37-3-.68-6-.82-9-.27-5.45-.16-10.93-.78-16.37-.44-2.64 1.06-4.13 3.13-5.29 1.22 4.89 1.91 9.88 2.66 14.86 1.19 7.89 2.44 15.76 5.17 23.32a21.53 21.53 0 002.76 5.81 7.07 7.07 0 008.66 2.15c3.63-1.53 7.1-3.49 11-4.23 1.13-.21 2.27-.35 3.41-.53a3.5 3.5 0 013.64 1.31l.1.14.19.55a31.3 31.3 0 00-3.45 3.16c-2.68-.59-4.74.45-6.51 2.38a27.07 27.07 0 00-3.85 5.42A41.52 41.52 0 01272.9 264.2a25.29 25.29 0 00-5.21 6 12.62 12.62 0 00-2 6.26c-.11 1.72-.12 3.44-.17 5.16a33.13 33.13 0 01.28 5.72 2.54 2.54 0 01-2.06 2.64 134.51 134.51 0 01-18.35 3.34 2.15 2.15 0 01-2.15-.65c-.21-4.81-.6-9.6-1.25-14.37a25.1 25.1 0 00-2.09-7.42c-2.82-6-3.89-12.4-4.53-18.94-1.16-11.87-1.65-23.78-2.25-35.68-.13-1 0-2-.08-3a3.07 3.07 0 011.41-3.25C236 209 235.66 207.09 236.18 205.59z"/><path fill="#fff" d="M179.34 417c4.78-11.06 10-21.86 14.3-33.21a80.73 80.73 0 019.14 4.63q9.28 5.67 18.55 11.39a140.05 140.05 0 0027.81 13.63c5.85 2 11.82 2.66 17.76.64a92 92 0 0011.49-4.87 25.11 25.11 0 0115.09-2.28c3 .4 6 .87 9 .35a25.17 25.17 0 004.53-1.36c1.05-.38 2.14-.62 3 .25.5.48-.36 1.86-1.68 2.69a18.4 18.4 0 01-5.81 2.22 29.61 29.61 0 00-3.55.85c-1.73.63-2.07 2.2-.9 3.61a7.82 7.82 0 002 1.58 54.59 54.59 0 006.18 3.06c.72.32 1.46.61 2.16 1 2.24 1.19 2.41 1.87 1.08 4-.12.18-.22.37-.35.54-2.06 2.75-2.2 5.59-.19 8.37a3.12 3.12 0 010 4.23 7.59 7.59 0 00-1.16 6.55 7.11 7.11 0 01-7.18 8.83 19 19 0 01-5.73-.91c-1.37-.43-2.7-1-4.09-1.33-6.84-1.59-12.85-4.84-18.57-8.81a94.78 94.78 0 00-14-8.09 63.74 63.74 0 00-17.81-4.88c-6.33-.93-12.65-1.94-19-2.78-6-.8-12-1.46-17.88-2.83-1.61-.37-3.24-.68-4.82-1.17-5.83-1.79-11.68-3.53-17.59-5.07A3.34 3.34 0 01179.34 417zM227.23 170.52a63.56 63.56 0 011.88 7.3c.38 1.92 0 2.39-1.94 2.85-1.18.29-2.42.21-3.61.58-3.24 1-4.5 3.61-3.13 6.73a21.68 21.68 0 001.31 2.23c.88 1.51.82 1.83-.61 2.8-.71.49-1.46.91-2.18 1.39-1.65 1.14-1.77 1.58-.88 3.36.48 1 1 1.89 1.5 2.86.76 1.63.61 2.13-1 2.78a4.11 4.11 0 00-2.51 2.74c-.57 1.7-1.16 3.4-1.78 5.08a6.43 6.43 0 01-5.16 4.33c-3.14.64-6.16 0-9.23-.32-4-.42-8-.88-12-.06a26.1 26.1 0 00-12.46 6.74c-13-14-28.89-24.17-45.74-33a.42.42 0 01.14-.5 56.51 56.51 0 008.74-9.8c1.3-1.7 1.33-1.67 3.22-.91 1.27.51 2.55 1 3.82 1.48 4.63 1.83 9.31 1.53 14 .23a15.82 15.82 0 006-3.46 13.91 13.91 0 001.39 1.69c1.89 1.7 3.5 1.87 5.7.62a12.42 12.42 0 001.93-1.36c1-.84 1.14-1.71.59-2.43s-1.43-.76-2.48-.06c-.36.24-.68.54-1 .78-1.42.92-2 .88-3.14-.45a10.69 10.69 0 01-2.56-6.07 30.79 30.79 0 011.88-13.57c1.72-4.52 4.41-5.1 8-1.85a18.35 18.35 0 014.51 6 24.42 24.42 0 003.1 4.92 6.37 6.37 0 002.29 1.93c2.43 1.15 4.67.24 5.48-2.33a10.34 10.34 0 00.46-4.69c-.13-.78-.26-1.56-.35-2.35-.22-2-.17-2 1.79-2.18s2.68-.81 3.05-2.7c.16-.78.27-1.56.4-2.34.6-.88 1.52-.71 2.35-.61 1.28.16 2.56.3 3.85.35 2.16.08 2.42.42 2.07 2.69a20.63 20.63 0 00.47 9.37c2.93 9.46 11.08 13.28 20.17 9.41C226 170.47 226.57 170 227.23 170.52z"/><path fill="#fff" d="M267.16 302.82A169.51 169.51 0 00281 348.89a131.24 131.24 0 017.31 20.47 8.52 8.52 0 010 4.85c-2.84 9.47-6.55 18.55-12.26 26.71a14.08 14.08 0 01-5.69 5.12c-4.25 1.89-8.28.89-11-2.92a27.52 27.52 0 01-3.26-6.78A90.22 90.22 0 01252.3 380c-1.85-11.79-3-23.68-4.39-35.53-1-8.71-2-17.42-2.72-26.17-.31-3.8-.58-7.6-.87-11.4-.25-1.6.86-1.71 2-1.79a110.17 110.17 0 0018.87-2.54C265.85 302.39 266.57 302.15 267.16 302.82zM148.66 417.35c.84-.91 1.73-1.83 2.57-2.79 3.75-4.29 6.69-9.17 9.8-13.92a289.47 289.47 0 0020.52-38.12c.66-1.42.69-1.49 2-.68 2.7 1.67 5.67 2.79 8.44 4.32 2.09 1.15 2.24 1.39 1.79 3.75a101.33 101.33 0 01-7.3 23.17c-3.28 7.19-6.39 14.45-9.7 21.62a32.62 32.62 0 01-7.48 10.72 2.58 2.58 0 01-2.71.73 21.3 21.3 0 01-5.8-2.23 57.33 57.33 0 00-11.08-5.74A1.48 1.48 0 01148.66 417.35zM174.84 238.58c-9-7-18.12-13.26-27.48-19.15a227.2 227.2 0 00-29-15.6c-1.53-.67-1.63-.7-1.2-2.16 1-3.38 1.68-6.83 2.5-10.25.47-2 .52-1.95 2.43-1.58a29.17 29.17 0 018.06 2.93c13.64 7.22 26.57 15.48 37.86 26.11a68.37 68.37 0 017.2 8 6.61 6.61 0 011.32 6.63C175.94 235.14 175.44 236.78 174.84 238.58zM213.44 217.16c2.5.69 4.85 1 7.17 1.42 3.24.57 6.29.33 8.94-1.86.64.32.44.88.46 1.32.48 9 .82 17.94 1.55 26.89.19 2.37.4 4.73.73 7.07.15 1.11-.22 1.55-1.24 1.75-1.27.26-2.51.63-3.77.91a10.71 10.71 0 01-12.22-5.85 24.08 24.08 0 01-2.52-10.16 116.72 116.72 0 01.71-18.5C213.36 219.23 213.37 218.31 213.44 217.16zM181.22 255.39c-1-4.41-2.46-8.47-3.78-12.57a3.51 3.51 0 01.09-2.47c.81-2.15 1.43-4.37 2.17-6.54 1-2.92.2-5.51-1.37-8-.93-1.45-1-1.52.29-2.61a21 21 0 0115.06-5.31c1 .05 2 .11 3 .18 2.37.16 2.43.18 1.9 2.57-1.21 5.48-2.48 10.94-4.15 16.29a46.55 46.55 0 01-4.5 10 25.39 25.39 0 01-5.23 6.27A10.45 10.45 0 01181.22 255.39z"/><path fill="#0385c4" d="M227.23,170.52c-2,.82-3.86,1.9-6,2.19a14.31,14.31,0,0,1-15-7.49,19.79,19.79,0,0,1-2.09-12.94c.1-.64.23-1.28.34-1.91a4.29,4.29,0,0,0,0-.61l-7.89-.26c-1.57-.14-3.15-.37-4.72-.4a172.26,172.26,0,0,0-18.32.18c-4.84.4-7.36,2.58-8.85,7.68a12,12,0,0,0-.46,4.27c.05.79-.13,1.53-1.08,1.52s-1.14-.75-1.17-1.52a14.72,14.72,0,0,1,4.42-11.72,9.43,9.43,0,0,1,5-2.27,31.06,31.06,0,0,1,5.36-.49c7.48-.15,15-.05,22.41.5,1.14.09,2.3,0,3.45,0,1.92,0,2.86-1.22,3.73-2.73,2.72-4.76,6.61-8.08,12.05-9.24,2.08-.44,4.25-.73,6.29.33,6.53,2.06,10.18,6.66,11.45,13.22a23.14,23.14,0,0,1-.75,10.83c-.16.32,0,.69-.21,1a4.72,4.72,0,0,1-.54.92,6.13,6.13,0,0,0-.72,1.45,4.42,4.42,0,0,0-.47.95,1.83,1.83,0,0,0-.45.9,10,10,0,0,1-1,1.12C230.51,167.68,228.79,169,227.23,170.52Z"/><path fill="#fff" d="M224.66 135.62c-2 0-4-.33-6 .11-5.8 1.3-9.73 4.9-12.46 10-1.11 2.08-1.1 2.09-3.64 1.52a7.18 7.18 0 001.48-5.25 22.94 22.94 0 00-.3-3.22 43.32 43.32 0 01-.32-13.3 10.09 10.09 0 01.4-1.89c.68-2.19 2-3 4.27-2.52 1.26.26 2.5.65 3.75 1a34.4 34.4 0 009.55 1.47c.91 0 1.32.24 1.21 1.22C222.21 128.56 223.29 132.12 224.66 135.62zM265.6 291.38l.24 2.21c.22 1 .57 1.85.78 2.8a7.14 7.14 0 01.31 3.55c-.58 1.41-1.95 1.58-3.17 1.87A77.8 77.8 0 01250 303.73c-1.21.07-2.4.28-3.61.37a3.34 3.34 0 01-2.46-.48 16 16 0 01-.84-7.77c.25-1.25 1.21-1.45 2.26-1.55a120.35 120.35 0 0017.37-3C263.67 291.09 264.65 290.67 265.6 291.38z"/><path fill="#0384c3" d="M318,341.59c0,8.06-1.13,14.66-4.44,20.75-.42.76-.85,1.51-1.33,2.22a4.45,4.45,0,0,1-1.05,1.07,1.06,1.06,0,0,1-1.39,0,1,1,0,0,1-.12-1.36c.67-1.11,1.4-2.18,2-3.32,3.58-6.93,4.47-14.33,3.85-22a193.31,193.31,0,0,0-4-25.1,63.16,63.16,0,0,1-.87-8.57,64.42,64.42,0,0,0-1-7.47,11.38,11.38,0,0,1-.21-1.28c-.06-.76,0-1.52.94-1.65s1,.58,1.12,1.25A61.11,61.11,0,0,1,313,306.33c.27,5.2,1.46,10.23,2.46,15.3A146.88,146.88,0,0,1,318,341.59Z"/><path fill="#feffff" d="M290.21,380.86a70.46,70.46,0,0,1,.51,9.63,54.46,54.46,0,0,0,1.36,12.34c-.05.94-.78.63-1.28.67a38.46,38.46,0,0,0-4.92.15,23.53,23.53,0,0,0-8.19,2.41,9.78,9.78,0,0,1-2.54,1.12c-.12-.1-.16-.19-.12-.28s.09-.14.13-.14c4.78-4.89,7.93-10.83,10.75-16.95,1.28-2.79,2.34-5.69,3.5-8.53C289.63,381.05,289.74,380.61,290.21,380.86Z"/><path fill="#0485c4" d="M266.16 296.13c-.74-.77-.39-1.68-.32-2.54.61.6 1.31.34 2 .21a7.63 7.63 0 015.22.85c2 1.15 2.17 3.06.39 4.55a21.46 21.46 0 01-4.52 2.51c-.63.3-1.39.41-1.77 1.11-1.82 0-3.46.82-5.21 1.14a124.12 124.12 0 01-16.07 1.74c-.89 0-1.55.15-1.56 1.2-.26-.75-.51-1.45-1.57-1.2a12.08 12.08 0 01-1.71.12 30.85 30.85 0 01-4-.48 8.31 8.31 0 01-2-.75c-2.09-1.2-2.49-3.17-1-5.06a6.86 6.86 0 014.54-2.61c.67-.1 1.5.08 1.81-.83 1.5.43 1.64 1.52.44 3.25-.79.39-1.7.1-2.51.45s-1.63.64-1.9 1.57a.79.79 0 00.64 1c1 .26 2 1 3 .14.27-.23.37-.62.73-.76a7.91 7.91 0 003.32 1.7 95 95 0 0019.74-2.29c1-.24 2.14-.33 2.88-1.25 1.17-1.17 3-1.35 4.27-2.63C269.48 296.05 267.47 297.44 266.16 296.13zM265.6 291.38c-3.58.75-7.16 1.54-10.75 2.23A68 68 0 01244.6 295a1.21 1.21 0 00-1.13.47c-1.19.57-2.21 0-3.25-.44a19.34 19.34 0 01-4.79-1.2c-3.25-1.44-3.62-4.35-.83-6.53a9.47 9.47 0 013.85-1.84c.87-.18 1-.68 1-1.32.17 1.11 1.09 2.17.22 3.35-.68.93-1.93.79-2.75 1.48-.48.4-1.15.71-1.05 1.46s.82.91 1.4 1.16c.9.39 2 .18 2.81.85a9.38 9.38 0 003.12.25c4.69 0 9.24-.95 13.8-1.83 2.31-.44 4.59-1.06 6.9-1.54 1.14-.23 1.45-.84 1.42-1.95a30.56 30.56 0 01.16-5.74c.22.24.08.77.62.73.71-.05 1.42-.13 2.13-.16a4.85 4.85 0 012.88.7 3 3 0 01.64 4.78 11.24 11.24 0 01-4.09 2.7A5.38 5.38 0 00265.6 291.38z"/><path fill="#0384c3" d="M273.36,113.05a12.65,12.65,0,0,1,4.49.84c6.89,2.42,12.89,6,16.51,12.68a48.89,48.89,0,0,1,3.91,10c.79,2.76,1.43,5.56,2.13,8.35a5.37,5.37,0,0,1,.18,1.05,1,1,0,0,1-.74,1.17,1,1,0,0,1-1.25-.58,13,13,0,0,1-.6-1.83,106,106,0,0,0-4.13-13.82,23,23,0,0,0-12.27-13c-.72-.32-1.44-.64-2.15-1-5.15-2.56-10.3-1.94-15.45,0a7.53,7.53,0,0,1-1,.39.95.95,0,0,1-.88-1.56,4.23,4.23,0,0,1,2.19-1.3A29.43,29.43,0,0,1,273.36,113.05Z"/><path fill="#0384c2" d="M136.8 118.31c-.34 1.51-.86 3.52-1.22 5.58a44.4 44.4 0 00-.19 12c.66 6.93 1.65 13.81 2.85 20.67a6.15 6.15 0 01.1.85c0 .46-.12.87-.62 1a1 1 0 01-1.23-.59 7.14 7.14 0 01-.43-1.43 218.42 218.42 0 01-3.31-24.29 43.94 43.94 0 011.7-14c.08-.27.19-.54.29-.81.26-.67.69-1.15 1.46-.89S137 117.16 136.8 118.31zM171.53 86.44c1.43 0 2.87 0 4.31 0 .65 0 1.33.25 1.34 1.1s-.65 1.07-1.3 1.17a6.19 6.19 0 01-1.72 0c-8.36-1.18-15.34 1.94-21.73 7a28.58 28.58 0 00-6.15 6.6c-.47.68-.9 1.78-1.95 1.06s-.28-1.57.2-2.25c5.51-7.79 12.8-12.89 22.26-14.68a4.89 4.89 0 01.85-.08h3.89z"/><path fill="#80afc1" d="M238.87,121.24a28.66,28.66,0,0,0-8.17,9c-.91,1.44-1.74,2.94-2.76,4.68a19.66,19.66,0,0,1-2.45-8c0-.22,0-.43,0-.65.07-3.48-.39-3,2.84-3.34a49.75,49.75,0,0,0,9.65-2.1C238.42,120.63,238.85,120.47,238.87,121.24Z"/><path fill="#0384c2" d="M302.29 178.63a76.07 76.07 0 00-.28-15.46c-.09-.81-.36-1.95.87-2.07s1.15 1 1.24 1.86a99.59 99.59 0 01.56 17.61 113.82 113.82 0 00-.12 11.83c0 .84.53 2-.86 2.29-.8.16-1.32-.63-1.37-2.28-.08-2.73 0-5.46 0-8.18zM239 94.49a10.18 10.18 0 014.64.91 7 7 0 013.95 9.08 12.53 12.53 0 01-5.11 6.19 2.84 2.84 0 01-.77.36 1.05 1.05 0 01-1.33-.4 1 1 0 01.21-1.36c.71-.61 1.44-1.18 2.16-1.78a8.22 8.22 0 002.6-3.63 4.75 4.75 0 00-2.69-6.39 9.54 9.54 0 00-5.89-.61c-1 .18-2 .42-3 .52a11 11 0 01-2.36 0 1 1 0 01-1-1.18 1 1 0 011.11-.8A17.22 17.22 0 00236 94.8 12.84 12.84 0 01239 94.49z"/><path fill="#0886c2" d="M236.18,205.59a4.23,4.23,0,0,1-2.5,5.45.88.88,0,0,0-.56,1c0,1.41,0,2.82,0,4.23a43,43,0,0,1-.2-9C233,205,234,204.57,236.18,205.59Z"/><path fill="#0381be" d="M268.8,139.36a11.52,11.52,0,0,1-7-4.53,1,1,0,0,1,.2-1.53.9.9,0,0,1,1.33.2,12.12,12.12,0,0,0,5.85,3.8,1.07,1.07,0,0,1,.82,1.32C269.87,139.2,269.41,139.38,268.8,139.36Z"/><path fill="#f8fafb" d="M240.12,292.4a6.81,6.81,0,0,1-4.32-.95c-1-.54-1.12-1.26-.3-2.07a6.34,6.34,0,0,1,4.21-1.93C239.85,289.1,240,290.75,240.12,292.4Z"/><path fill="#0685c2" d="M260,196.69c-1,.87-1.29,2.42-2.86,2.94-.68.23,0,1.57-.27,2.35a30.35,30.35,0,0,1-.24-6.6,2.12,2.12,0,0,1,.67-1.54,1.45,1.45,0,0,1,2.43.52A5.42,5.42,0,0,1,260,196.69Z"/><path fill="#037fbb" d="M303.18,265.62c0-.59,0-1.17,0-1.74,0-.37.12-.76.56-.79s.64.27.69.65.05.86.08,1.29a27.68,27.68,0,0,0,1.56,8.45,5,5,0,0,1,.24,1,.43.43,0,0,1-.33.48.77.77,0,0,1-.6-.1,3.48,3.48,0,0,1-1-1.86A31.65,31.65,0,0,1,303.18,265.62Z"/><path fill="#037fbc" d="M280.59,328c0,.68-.19,1.12-.74,1.29a.92.92,0,0,1-1.09-.47,13,13,0,0,1-1.39-4.43.88.88,0,0,1,.63-1,.9.9,0,0,1,1.25.49C279.76,325.3,280.17,326.72,280.59,328Z"/><path fill="#0d83be" d="M294.13,243.23c.36-1.91,1.72-2.74,3.45-3.16a2.26,2.26,0,0,1,.11,3.05C297.09,244.07,295.89,244,294.13,243.23Z"/><path fill="#037fbb" d="M186,89.42c-1.14-.11-1.78-.14-2.42-.24a.93.93,0,0,1-.81-.87,1,1,0,0,1,.82-1.09,6.74,6.74,0,0,1,3.58.36.92.92,0,0,1,.67,1c-.07.6-.51.82-1,.85A6.81,6.81,0,0,1,186,89.42Z"/><path fill="#037cb6" d="M231.12,115.3c-.72,0-1.19-.1-1.33-.69a.91.91,0,0,1,.46-1.09c.75-.39,1.52-.75,2.3-1.08a1,1,0,0,1,1.26.5.9.9,0,0,1-.21,1.16A4.44,4.44,0,0,1,231.12,115.3Z"/><path fill="#8d7c7c" d="M285.88,403.65c1.38-.72,2.86-.29,4.3-.41.64-.05,1.41.36,1.9-.41.55.63.26.9-.42.9C289.73,403.72,287.81,403.68,285.88,403.65Z"/><path fill="#61aecc" d="M238.87,121.24c-.21-.34-.59-.29-.9-.39a4.66,4.66,0,0,1,2.22-.83c.18.38.59.33.89.48A8.71,8.71,0,0,1,238.87,121.24Z"/><path fill="#112f39" d="M231.93,166a1.72,1.72,0,0,1,.87-1.22.36.36,0,0,1,0,.58,2.81,2.81,0,0,1-.8,1.42Z"/><path fill="#c1caca" d="M290.21,380.86l-.8.42c-.1-.63.29-1,.63-1.49A1.15,1.15,0,0,1,290.21,380.86Z"/><path fill="#112327" d="M234.91,160.58a1.29,1.29,0,0,1,.45-.91l.48.48c0,.39-.29.59-.49.86C235,161.11,234.8,161,234.91,160.58Z"/><path fill="#848b8b" d="M275.16,406.76a.85.85,0,0,1,0,.42c-.13.46-.51.44-.87.46-.12-.11-.16-.21-.11-.3s.1-.13.14-.13C274.62,407.1,274.77,406.7,275.16,406.76Z"/><path fill="#2e3232" d="M274.31,407.21l0,.43c-.13.27-.41.5-.55.18S274,407.31,274.31,407.21Z"/><path fill="#b6c9c9" d="M301.18,404.15a3.28,3.28,0,0,0-.31-.2c.11-.08.21-.19.33-.2s.18.12.27.18Z"/><path fill="#ceb9b9" d="M302.78,414.73c-.1,0-.21.15-.3.14s-.25-.16-.14-.31.18-.13.27-.19Z"/><polygon fill="#0d83be" points="297.39 239.52 297.26 239.51 297.29 239.38 297.43 239.39 297.39 239.52"/><path fill="#0485c4" d="M369.29,218.44a15.86,15.86,0,0,0-2.78,3.54,10.08,10.08,0,0,1-5.44,4.34,7,7,0,0,0-4.67,4.43,35.47,35.47,0,0,1-1.83,3.9,6.91,6.91,0,0,1-4.57,3.67c-3.34.73-5.1,2.91-6.18,6a25.58,25.58,0,0,1-3.4,6.94,7.34,7.34,0,0,1-4.77,2.66c-.58.11-1.21.08-1.37-.66a1,1,0,0,1,.82-1.33c3.53-.52,4.59-3.33,5.72-6.07.55-1.33,1.06-2.67,1.61-4a8.38,8.38,0,0,1,5.82-5.3,7.23,7.23,0,0,0,5.26-4.92c.27-.74.69-1.42,1-2.16a8.23,8.23,0,0,1,5.45-5.13,8.76,8.76,0,0,0,4.91-4,19.76,19.76,0,0,1,5.8-6,14.65,14.65,0,0,0,3.74-3.54c.7-1,1.5-1.94,1.41-3.29a1,1,0,0,1,1-1.12,1.16,1.16,0,0,1,1.13,1.1,4.17,4.17,0,0,1-.63,3.09C376.26,212.22,372.28,215.69,369.29,218.44Z"/><path fill="#010202" d="M332.53,277.67a8.94,8.94,0,0,1,4.2-.63,6.1,6.1,0,0,1,5,4.42,5.91,5.91,0,0,1-1.78,6.46,6,6,0,0,1-6.61,1.21c-.53-.2-1-.5-1.54-.75a3.83,3.83,0,0,1-2.31-2.26,6.91,6.91,0,0,1,.35-6.27C330.57,278.9,331.14,277.79,332.53,277.67Z"/><path fill="#0586c4" d="M332.53,277.67l-2,2c-2.91,1.43-3.69,3-2.4,4.82.51.72,1.33,1.09,1.9,1.73l1.85,2.13a5.85,5.85,0,0,1-4.69-.81,5.67,5.67,0,0,1-1.71-7.42C326.87,277.47,329.47,276.57,332.53,277.67Z"/><path fill="#010102" d="M375.3,215.94c-.77-.34-1.54.33-2.23.74a9.24,9.24,0,0,0-.8.53c-.45.34-.88.6-1.31.88a5.78,5.78,0,0,0-1.75,1.8c-.45.73-.9,1.46-1.28,2.22a11.08,11.08,0,0,1-6,5.61,8.26,8.26,0,0,0-4.73,5,21.27,21.27,0,0,0-.69,2,7.32,7.32,0,0,1-4.22,4.88c-.52.25-1,.53-1.57.73-3,1.06-3.76,3.76-4.79,6.28a1,1,0,0,0,.49,1.3,1,1,0,0,0,1.47-.44,6.69,6.69,0,0,0,.78-1.53,6.39,6.39,0,0,1,3.95-4,9.77,9.77,0,0,0,6.29-7.15c.08-.35.23-.68.34-1a6.35,6.35,0,0,1,3.8-4.14,12.35,12.35,0,0,0,6.69-6.41,11.4,11.4,0,0,1,4.73-5.44A1.44,1.44,0,0,0,375.3,215.94Z"/><path fill="#000101" d="M111.17,292.8c.36-7.28.54-14.25,2-21.1a28.25,28.25,0,0,1,7.85-14.82,16.05,16.05,0,0,1,3.45-2.57c.72-.4,1.4-.45,1.85.36s-.11,1.25-.66,1.59c-6.68,4.24-9.42,10.82-10.65,18.2a112.36,112.36,0,0,0-1.46,21.05c0,1.88.47,3.7.65,5.56a9.16,9.16,0,0,1,.15,1.27,1,1,0,0,1-.8.91.91.91,0,0,1-1-.55,4.35,4.35,0,0,1-.28-1A59.84,59.84,0,0,1,111.17,292.8Z"/><path fill="#000102" d="M168.87,332.27c-.06-.93-.09-1.87-.18-2.79s-.21-1.75.85-1.89,1.13.82,1.2,1.63c.22,2.65.5,5.29.67,7.93.32,4.9,1.58,9.62,2.5,14.41.14.7.3,1.4.42,2.11a1.2,1.2,0,0,1-.85,1.52c-.81.21-1.22-.4-1.37-1.05-.47-1.95-.86-3.92-1.28-5.88A85.24,85.24,0,0,1,168.87,332.27Z"/><path fill="#000203" d="M173.24,362.59c-.26.82-.57,1.85-.93,2.86-1.75,5-4.48,9.44-7,14a3.87,3.87,0,0,1-.63.87,1.05,1.05,0,0,1-1.35.3,1,1,0,0,1-.49-1.29,14.58,14.58,0,0,1,.85-1.73c2.28-4.22,4.88-8.27,6.52-12.82.37-1,.71-2,1.08-3a1.06,1.06,0,0,1,1.33-.8C173.36,361.17,173.34,361.78,173.24,362.59Z"/><path fill="#000305" d="M145.39,248.18a13.08,13.08,0,0,0-6-.51,13.91,13.91,0,0,0-4.09,1.23c-.59.32-1.29.57-1.7-.15s.07-1.38.75-1.75a14.92,14.92,0,0,1,8.75-1.62,18.4,18.4,0,0,1,2.73.57c.68.18,1.21.58,1,1.38S146,248.2,145.39,248.18Z"/><path fill="#000406" d="M152.8,398.54c-.75-.19-1.08-.62-.88-1.28a3.23,3.23,0,0,1,.66-1.07,30.77,30.77,0,0,0,3.11-4.35,3.82,3.82,0,0,1,.66-.84.9.9,0,0,1,1.18-.09.86.86,0,0,1,.39,1.1,18.93,18.93,0,0,1-4.42,6.24A1.83,1.83,0,0,1,152.8,398.54Z"/><path fill="#0586c4" d="M54.5,31.51c.41,1.79.82,3.57,1.33,5.77A16.68,16.68,0,0,0,45.42,37a21.93,21.93,0,0,0,.33-9.6,16,16,0,0,0,6.14-.05h0a5.26,5.26,0,0,0,.19-3.21c-.18.37-.2.81-.76.93a9.29,9.29,0,0,1-4.26.14,8.41,8.41,0,0,1-2.37-1A1.15,1.15,0,0,0,43,25.57c.1.34.23.68.32,1a16,16,0,0,1,.46,7.46,20.49,20.49,0,0,1-1.21,4.12,1.33,1.33,0,0,0,.18,1.6,1.45,1.45,0,0,0,1.61.26c.33-.12.65-.3,1-.44A12.33,12.33,0,0,1,52,38.7a8.74,8.74,0,0,1,4.89,2c.49.45,1,.84,1.71.31s.54-1.1.3-1.76a14.09,14.09,0,0,1-.44-1.44c-.45-1.74-.91-3.47-1.35-5.21-.22-.87,0-1.39,1.05-1.32.72.05,1.43,0,2.15,0C58.38,30.59,56.44,31.27,54.5,31.51Z"/><path fill="#0a88c5" d="M58.29,22.93a3.89,3.89,0,0,1-.5,2.43,9.51,9.51,0,0,0-.85,3.44l-2.34.27c-.46-.05-.29-.38-.27-.63,0-.72.5-1.41.12-2.15l-.2-2.46C55.73,22,56.82,21.74,58.29,22.93Z"/><path fill="#0a88c5" d="M54.51,28.63l.09.44c-.46.26-.65,0-.61-.4a4,4,0,0,1,.42-2A2.09,2.09,0,0,1,54.51,28.63Z"/><path fill="#0a88c5" d="M54.51,28.63c0-.65-.06-1.31-.1-2a.37.37,0,0,1,0-.38C55.4,27.05,54.78,27.84,54.51,28.63Z"/><path fill="#0686c4" d="M49.19,172.68l-.61,2.16a23.68,23.68,0,0,0-4.85-1.37,32.69,32.69,0,0,0,1.47-5.08,13.58,13.58,0,0,1,3,1.21h0a3.28,3.28,0,0,0,1.08-2.13c-1.26-.62-2.72-.83-3.51-2.29-.42-.76-1.63-.46-2.14.38a4.15,4.15,0,0,0-.45,1.66,16,16,0,0,1-1.35,5c-.28.57-.7,1.09-1,1.67-.5,1.13-.1,1.78,1.14,1.93.5.06,1,0,1.51,0a6.94,6.94,0,0,1,4.5,1.79c1.35,1.31,2.19,1,2.59-.89.32-1.46.44-3,1.59-4.13A8.53,8.53,0,0,0,49.19,172.68Z"/><path fill="#020202" d="M60.06,165.62c-.34-1-1.36-.89-2.19-1-1.84-.27-3.76-.28-4.86-2.22a1,1,0,0,0-1.52-.21c-.65.46-1.27.9-1.31,1.84a10.2,10.2,0,0,1-.76,3.34h.06l-.22.13h0a25.73,25.73,0,0,0-1.72,2.18c-1.12,2.25-.86,2.83,1.59,3.55a5.92,5.92,0,0,0,3-.61c1.33.15,2.13,1.09,3,2,.41.42.89.76,1.53.41a1.4,1.4,0,0,0,.72-1.45,6.6,6.6,0,0,1-.15-1.06c.13-1.72.15-3.47,1.59-4.76C59.47,167.13,60.42,166.68,60.06,165.62Zm-10.52,1.66a.11.11,0,0,0,0-.08l0,0S49.56,167.27,49.54,167.28Zm5.71,2.49c-.22,1.35-.3,1.34-1.79.68.49-1.61-1.38-1.88-1.72-3,.12-.63.23-1.25.39-2.13a13.11,13.11,0,0,0,4.16,1.44C56,167.82,55.42,168.72,55.25,169.77Z"/><path fill="#0a85c1" d="M51.74,167.43a1.26,1.26,0,0,0,.68.46c1.95.45,2,.64,1,2.56L50.74,170Z"/><path fill="#0786c4" d="M84.25,197.35a5.78,5.78,0,0,0-3,5.94,5.91,5.91,0,0,0,4.48,4.9,7.69,7.69,0,0,0,2.34.22,9.21,9.21,0,0,1-1.57-2.74,3.08,3.08,0,0,1-2.87-4.07c.72-2.32,2.57-3.13,5-2.22h0l2.2-1.23A5.5,5.5,0,0,0,84.25,197.35Z"/><path fill="#020202" d="M98.1,202.91a5.57,5.57,0,0,0-4.61-4.53,19.8,19.8,0,0,0-2.56-.23,4.07,4.07,0,0,0-2.7,1.13c-1.7,1.66-2.7,3.57-2.18,6,.44,1.21.6,2.59,2.07,3.1a10.45,10.45,0,0,0,1.21.89A5.68,5.68,0,0,0,95.8,209,5.6,5.6,0,0,0,98.1,202.91Zm-9,2.64c-.77-2.05-.44-3.09,1.43-4.4A3.58,3.58,0,0,1,89.12,205.55Zm6.63-.17c-.76,2.1-2.79,2.84-5,1.85A36.58,36.58,0,0,0,93,200.72C95.35,201.43,96.49,203.33,95.75,205.38Z"/><path fill="#0887c4" d="M93,200.72a2.25,2.25,0,0,0-2.4.43,3.58,3.58,0,0,1-1.43,4.4h0a2.26,2.26,0,0,0,1.58,1.68C92.84,205.54,93.22,203.24,93,200.72Z"/><path fill="#0887c5" d="M128.54,44.46c-1.31.55-2-.31-2.54-1.24a2.62,2.62,0,0,1,.2-3,2,2,0,0,1,2.18-1h0c.55-.72,1.11-1.43,1.67-2.15-2.54-.6-4.51.09-5.77,2a5.29,5.29,0,0,0,.27,6,4.85,4.85,0,0,0,5.72,1.53Z"/><path fill="#020202" d="M135.36,36.07c-2-.65-3.64,0-5.31.91-1.48.15-1.56,1.57-2.21,2.46a6,6,0,0,0,.1,4.91c.54,1,.94,2.13,2.33,2.23.46.19.92.4,1.39.57a5.85,5.85,0,1,0,3.7-11.08Zm-4.42,7.57a2.86,2.86,0,0,1-.36-3.64C131.87,41.32,131.9,41.65,130.94,43.64Zm6-.52c-.76,1.68-2.16,2.3-4.23,1.87a18.94,18.94,0,0,0-.09-6.59,3.4,3.4,0,0,1,3.08.37A3.48,3.48,0,0,1,137,43.12Z"/><path fill="#0b87c3" d="M132.65,38.4a2.81,2.81,0,0,0-2.07,1.6c1.29,1.32,1.32,1.65.36,3.64h0a2.31,2.31,0,0,0,1.8,1.35C134.21,42.77,133.87,40.58,132.65,38.4Z"/><path fill="#0686c5" d="M249.82,55.63c-.77,0-1.58.17-2.28-.36a10.61,10.61,0,0,0-.41,1.2c-.4,2-.39,2-2.35,1.51l-1-.24c.17-.68.34-1.33.48-2s.23-1.25.35-1.93a5,5,0,0,1,2.78.69h0c.08-.93,1-1.39,1.25-2.24A16.38,16.38,0,0,1,245,51.09c-1.75-1-2.43-.7-2.5,1.35a11.28,11.28,0,0,1-1.6,5.92,1.51,1.51,0,0,0-.16,1.8,1.34,1.34,0,0,0,1.74.32,4,4,0,0,1,4.2.73c.53.42,1.06.79,1.75.46s.8-1.1.79-1.84A8.89,8.89,0,0,1,249.82,55.63Z"/><path fill="#020202" d="M256.6 47.85c-1.89-.12-3.73-.26-5.1-1.81a1 1 0 00-1.37-.19 1.13 1.13 0 00-.47 1.13c0 .29.08.57.11.85a5.55 5.55 0 01-1.14 4.44c-1 .61-1.78 1.4-1.45 2.74a1.48 1.48 0 00.37.58 1.64 1.64 0 002.27 0 4.56 4.56 0 013.69.72c.42.27.73.69 1.14 1 1 .71 1.84.34 2-.85a5.48 5.48 0 000-1.07 7 7 0 011.37-4.85C259.16 48.84 258.73 48 256.6 47.85zM254.21 54c-1.05-.65-2.68-.13-3-1.34-.24-.88.52-2 .88-3.18l3.19.68A17 17 0 00254.21 54zM313.24 60.14c-.45-.21-.92-.4-1.37-.6a2.54 2.54 0 00-2.64-.13 8 8 0 00-3.4 2.62 3 3 0 00-.5 2.85 10.78 10.78 0 00.18 1.5 5.59 5.59 0 0010.94 0A5.66 5.66 0 00313.24 60.14zm-3.89 2.28c.41 1-.31 1-1 1C308.49 62.89 308.91 62.65 309.35 62.42zm2.06 6c-1.58.25-2.76-.58-3.47-2.44 1.84-.81 3.17-2.29 4.7-3.51a3 3 0 011.57 2.86A3.26 3.26 0 01311.41 68.46z"/><path fill="#0d87c1" d="M309.35,62.42c.41,1-.31,1-1,1h0a2.19,2.19,0,0,0-.45,2.58c2.36-.11,3.67-1.62,4.7-3.51A3.1,3.1,0,0,0,309.35,62.42Z"/><path fill="#0686c5" d="M370.06,170.49a3.28,3.28,0,0,1-.48,1.58,21.58,21.58,0,0,0-2.84-1.2.52.52,0,0,1-.41-.8,34.6,34.6,0,0,0,1.19-3.37,1.82,1.82,0,0,1,1.56,1.11h0c.47-.75,1.18-1.37,1.09-2.37a9.47,9.47,0,0,1-1.91-1.67c-.46-.54-.93-1.12-1.77-.82a1.66,1.66,0,0,0-1.08,1.85,6.54,6.54,0,0,1-.81,3.67,6.19,6.19,0,0,1-1,1.89c-.76,1.41-.44,2.16,1.15,2.37a5.74,5.74,0,0,1,4.6,2.76c.17.29.55.46.83.68,1.1-.21,1.38-1.06,1.55-2s.31-1.65.45-2.47.57-.9,1.21-.85C372.35,170.17,371.19,170.47,370.06,170.49Z"/><path fill="#030303" d="M378.42,164.68a8,8,0,0,1-3.59-1.31,15.44,15.44,0,0,1-1.26-1.17,1.89,1.89,0,0,0-2-.55c-.77.23-.78.92-.89,1.57s.11,1.6-.55,2.22a14.3,14.3,0,0,0-1.8,2.57c-.72,1.77.19,2.58,1.75,3,1.12.34,2.17-.5,3.28-.18a7.77,7.77,0,0,1,.93.54c2.1,1.61,2.38,1.54,3.16-.88a9.34,9.34,0,0,1,1.81-3.37C380.49,165.78,380.21,165,378.42,164.68Zm-2.64,3.83c-.33,1.05-.9.55-1.45.2a4.53,4.53,0,0,0-1.89-2.51l.07-.58.05-.11c.14-.31.24-.75.71-.42a15.66,15.66,0,0,0,3.18,1.63C376.45,167.45,376,167.92,375.78,168.51Z"/><path fill="#1a85bc" d="M372.44,166.2c2.27.59,2.27.59,1.89,2.52a7.3,7.3,0,0,0-.79-.26C371.73,168,371.73,168,372.44,166.2Z"/><polygon fill="#1a85bc" points="372.56 165.51 372.62 165.6 372.51 165.62 372.44 165.53 372.56 165.51"/><path fill="#040607" d="M240.22,295c1.1,0,2.28-.52,3.25.45q.28,4,.58,8a10.15,10.15,0,0,0-1.47.06c-1.17.21-1.64-.4-1.8-1.42-1.05-.89-.84-1.88-.27-2.91,1.29-1.11.48-2.08-.19-3.06C240.28,295.72,240.25,295.35,240.22,295Z"/><path fill="#010101" d="M248.38 196.3c-.11 10.2-.7 20.4.33 30.59a12.45 12.45 0 01.06 1.93 1.47 1.47 0 01-1.48 1.55 1.49 1.49 0 01-1.58-1.45c-.1-.78-.19-1.57-.25-2.36a272.52 272.52 0 01-.06-33 11.43 11.43 0 011.44-5.58 2.61 2.61 0 014.19-.79c.8.7 1.15 1.49.25 2.39-1.75.44-2.47 1.51-2.46 3.36A7.75 7.75 0 01248.38 196.3zM241 201.54l1.26 24.11a18.09 18.09 0 01.08 1.94c0 1.13-.59 1.75-1.49 1.74a1.5 1.5 0 01-1.56-1.46c-.15-1.07-.29-2.14-.34-3.22q-.54-11.52-1-23.05a19.2 19.2 0 01.59-6 3.9 3.9 0 012-2.68c1.47-.74 2.23-.31 2.57 1.49C240.68 196.3 241.29 199.05 241 201.54z"/><path fill="#040303" d="M245.67,154.49a11.14,11.14,0,0,1,5.72,2.61,1.3,1.3,0,0,1,.39,1.74,1.34,1.34,0,0,1-1.83.65,13,13,0,0,1-2.08-1.11,4.35,4.35,0,0,0-5.56.27l-.16.15c-1.3.93-2,1-2.59.2s-.31-1.45.76-2.38A7.82,7.82,0,0,1,245.67,154.49Z"/><path fill="#050404" d="M276.05,161.89a8.93,8.93,0,0,1,5.28,2.24,3.46,3.46,0,0,1,.95,1.42,1.43,1.43,0,0,1-.6,1.87,1.37,1.37,0,0,1-1.77-.29,9.06,9.06,0,0,0-.69-.82c-1.6-1.31-3.33-2-5.36-1-.19.09-.37.21-.57.29-.81.33-1.6.39-2-.52a1.51,1.51,0,0,1,.75-2A7.16,7.16,0,0,1,276.05,161.89Z"/><path fill="#0686c4" d="M248.38,196.3c-.61-1.91-.1-3.82.16-5.7.16-1.18.59-1.26,2.74-1a4.92,4.92,0,0,1-1,6A2,2,0,0,1,248.38,196.3Z"/><path fill="#0786c4" d="M241,201.54c-1.25-3.27-.51-5.83,2.06-7.13a2.1,2.1,0,0,1,1,2.41C243.59,198.76,243.42,200.88,241,201.54Z"/><path fill="#0a0808" d="M241.93 165.79a5.33 5.33 0 013.64 1.61 1 1 0 01.23 1.52c-.44.57-1 .44-1.53.17a3.16 3.16 0 01-.53-.37 2.44 2.44 0 00-3.47 0c-.52.44-1.14.78-1.68.1s-.12-1.33.45-1.84A4.59 4.59 0 01241.93 165.79zM277.36 174.27a1 1 0 01-.55 1.06 1 1 0 01-1.17-.23 3.1 3.1 0 01-.48-.7 2 2 0 00-2.48-1.13c-.63.19-1.18.08-1.4-.57s.24-1.17.89-1.46C274.26 170.34 277.26 172.09 277.36 174.27z"/><path fill="#0b0a0a" d="M250.37,183.21a4.79,4.79,0,0,1,.56-2.26c.29-.53.66-1,1.32-.81s.91.82.66,1.55a7.46,7.46,0,0,0-.37,1.22c-.12.81.52,1.08,1.07,1.41a.93.93,0,0,1,.34,1.3,1,1,0,0,1-1.08.53A2.81,2.81,0,0,1,250.37,183.21Z"/><path fill="#145773" d="M233.66,163.19a3.66,3.66,0,0,1,.84-1.8.53.53,0,0,1,.12.73,2,2,0,0,1-.54,1C233.94,163.36,233.8,163.36,233.66,163.19Z"/><path fill="#3a6d7d" d="M233.66,163.19l.42,0a2.92,2.92,0,0,1-.77,1.41.36.36,0,0,1-.07-.6A.9.9,0,0,1,233.66,163.19Z"/><path fill="#224e5e" d="M234.62,162.12l-.12-.73a1.11,1.11,0,0,1,.41-.81l.44.43A1.87,1.87,0,0,1,234.62,162.12Z"/><path fill="#35616e" d="M233.24,164l.07.6a1,1,0,0,1-.46.8c0-.19,0-.39,0-.58A.92.92,0,0,1,233.24,164Z"/><path fill="#0e0d0d" d="M203.91,189.27a3.79,3.79,0,0,1,1-2.44,1.17,1.17,0,0,1,1.54-.28.92.92,0,0,1,.21,1.46,2.76,2.76,0,0,0-.57,1.79c0,.64-.21,1.16-.91,1.19s-1.11-.51-1.21-1.21A3.39,3.39,0,0,1,203.91,189.27Z"/><path fill="#0a0808" d="M268,400.86l-.94-.07c-.64-.06-1.14-.35-1.17-1s.48-1,1.12-1c1.86-.08,3.18-1.18,4.46-2.35.36-.34.6-.81,1-1.16a1,1,0,0,1,1.36-.2,1,1,0,0,1,.32,1.5A10.24,10.24,0,0,1,268,400.86Z"/><path fill="#fff" d="M226.51,167.65c-.26.76-1,1-1.59,1.35a12,12,0,0,1-16.59-4.71c-4-7-2.41-16.78,3.75-22.55a14.44,14.44,0,0,1,6.74-3.66,10.87,10.87,0,0,1,7.92,1,9.46,9.46,0,0,1,2.51,8.32c-.36,2.32-.89,2.61-3.25,1.84a16.25,16.25,0,0,0-12.18.31,5.05,5.05,0,0,0-.59.26c-.71.42-2.07.76-1.71,1.59.48,1.15,1.64.22,2.39-.1a14.76,14.76,0,0,1,11.73-.11c1.53.62,2.45,1.61,1.8,3.32a18.76,18.76,0,0,0-.74,11.63A2.22,2.22,0,0,1,226.51,167.65Z"/><path d="M226.51,167.65a19.57,19.57,0,0,1,.4-13.49c.57-1.39.48-1.55-.85-2.12-3.78-1.61-7.6-2-11.48-.31-.78.35-1.55.76-2.35,1a1.3,1.3,0,0,1-1.68-.59,1.28,1.28,0,0,1,.37-1.73,7.13,7.13,0,0,1,1.27-.79,16.57,16.57,0,0,1,13.94-1,5.79,5.79,0,0,0,2.12.65,10.54,10.54,0,0,0-.36-7.69c-.37-.85-.77-1.7-1.15-2.54a9.82,9.82,0,0,1,4.74,4.18c5,7.68,2.53,18.16-3.67,23.64A3.25,3.25,0,0,1,226.51,167.65Z"/><path fill="#020405" d="M266.16,296.13c1,0,2-.05,3-.05a5.45,5.45,0,0,1,2.29.35c.68.31.93.76.21,1.21a12.34,12.34,0,0,1-5,2.23C266.5,298.63,266.33,297.38,266.16,296.13Z"/><path fill="#f7fbfc" d="M240.51,299.14l.27,2.9c.08,1.09-.35,1.59-1.5,1.39a9.71,9.71,0,0,1-3.1-.75c-.93-.5-1.09-1.08-.41-1.89A4.35,4.35,0,0,1,240.51,299.14Z"/><path fill="#000304" d="M265.68,288.53v-4c1.12,0,2.16,0,3.2,0,.58,0,1.17.14,1.39.76s-.31.91-.67,1.22A9,9,0,0,1,265.68,288.53Z"/><path fill="#89d8fd" d="M335.19,279.39c2.83-.06,4.75,1.63,4.6,4.07s-2.23,4-5.18,3.6a1.8,1.8,0,0,1,.17-1.45,6.1,6.1,0,0,0,.31-4.81A1.24,1.24,0,0,1,335.19,279.39Z"/><path fill="#0787c4" d="M335.19,279.39c.14,1,.79,1.81.89,2.85a7.94,7.94,0,0,1-1.47,4.82,3,3,0,0,1-2-1.55,7,7,0,0,0,.31-4.92A2.74,2.74,0,0,1,335.19,279.39Z"/><path fill="#84d3f8" d="M330,286.25c-2.21-.65-3.21-1.9-3-3.76a3,3,0,0,1,3.52-2.78A7.46,7.46,0,0,0,330,286.25Z"/><path fill="#7eccf1" d="M332.91,280.59c1.45,2,1.38,3-.31,4.92C331.35,283.33,331.4,282.48,332.91,280.59Z"/><path fill="#0b0909" d="M223.46,161.38c0,.74-.36,1.08-1,1.05a1.92,1.92,0,0,1-1-.33,2.39,2.39,0,0,0-3-.31,1,1,0,0,1-1.5-.36c-.37-.65,0-1.08.51-1.46a4.11,4.11,0,0,1,5.62.74A2.67,2.67,0,0,1,223.46,161.38Z"/></g></g></svg>