<svg xmlns="http://www.w3.org/2000/svg" viewBox="0 0 370.9 506.8"><g data-name="Layer 2"><g data-name="Layer 1"><path fill="#f3dda4" d="M.2,173.42a45.72,45.72,0,0,1,7-21.94c1.69-2.65,3.21-5.41,5-8a178.59,178.59,0,0,1,11.45-15,76.56,76.56,0,0,1,9.46-9.85,52.33,52.33,0,0,1,7.33-5,153.69,153.69,0,0,1,22.87-10.64c6.63-2.42,13.42-4.33,20.24-6.16C88,95.72,92.27,94.21,96.65,93c5.33-1.49,10.44-3.57,15.61-5.46a70.33,70.33,0,0,0,8.89-3.7c.65-.35,1.24-.67,1.21-1.53.88.06.85.85,1.07,1.4,1.23,3,2.48,5.94,5.1,8.06.92.74.66,1.69.38,2.65-.85,3-2.82,5.29-5,7.41-2.82,2.72-5.69,5.41-8.38,8.27-6.56,7-9.58,15.37-10.06,24.84-.54,10.6,2.13,20.62,4.92,30.71,4.42,15.93,9.33,31.74,12.33,48a169.1,169.1,0,0,1,2.08,17.23c.15,1.86.46,3.7.43,5.58,0,1.36.47,2.38,2.09,2.43,1,0,1.11.68.82,1.48a8.93,8.93,0,0,1-1,1.67,43,43,0,0,0-6.27,21.8c-.29,8.6,1,17.07,1.74,25.58.4,4.61.7,9.23,1,13.85.39,5.7.63,11.42,1,17.12.23,3.46.45,6.93.53,10.4s-.17,7.2.34,10.79c.35,2.51-.31,5-.33,7.51,0,4.05,0,8.11,0,12.16.08,9.26-.46,18.52-.5,27.78,0,4.17-.22,8.35-.29,12.53,0,.75.08,1.57-.64,2.12-1-.18-.11-1.2-.69-1.56v0a2.16,2.16,0,0,0-.37-.37v0a3.32,3.32,0,0,0-.38-.37h0a3.41,3.41,0,0,0-.37-.39h0l-.38-.39h0a4.75,4.75,0,0,1-.38-.4h0a2.52,2.52,0,0,1-.4-.4h0c-.39-.52-.82-1-1.19-1.54h0c-.12-.13-.26-.26-.38-.4h0a1.65,1.65,0,0,1-.38-.45.78.78,0,0,0-.07-.33,1.88,1.88,0,0,0-.34-.35v0c-.11-.14-.25-.26-.37-.4h0a2,2,0,0,1-.38-.44,1,1,0,0,0-.07-.34,1.67,1.67,0,0,0-.34-.36h0a4.73,4.73,0,0,0-.37-.4h0a1.77,1.77,0,0,1-.38-.44,1,1,0,0,0-.06-.34,3.06,3.06,0,0,0-.35-.37h0c-.12-.14-.26-.26-.37-.4h0c-.25-.2-.17-.57-.41-.77h0c-.12-.14-.26-.26-.37-.41v0c-.25-.2-.17-.57-.41-.76h0c-.12-.14-.25-.26-.37-.41l0,0c-.25-.2-.18-.57-.41-.77h0a2.67,2.67,0,0,1-.38-.44,1,1,0,0,0,0-.34L113,389h0a2,2,0,0,1-.37-.45.75.75,0,0,0,0-.33c-.26-.37-.47-.79-.75-1.16h0c-.24-.21-.17-.57-.4-.77h0a2.27,2.27,0,0,1-.37-.45.75.75,0,0,0,0-.33l-.36-.4h0c-.25-.21-.19-.57-.39-.81a1,1,0,0,0-.06-.35c-.11-.14-.22-.26-.34-.39h0c-.24-.21-.17-.58-.39-.8a1.16,1.16,0,0,0-.07-.37,3,3,0,0,0-.33-.38h0c-.23-.22-.17-.57-.39-.79h0c-.24-.2-.17-.56-.39-.78h0c-.24-.21-.17-.57-.39-.78h0c-.24-.21-.18-.57-.39-.79h0c-.26-.21-.19-.58-.39-.82a1.32,1.32,0,0,0,0-.34c-.21-.22-.13-.56-.36-.77h0a1.5,1.5,0,0,1-.37-.46.82.82,0,0,0,0-.31c-.23-.21-.14-.58-.37-.8a1.2,1.2,0,0,0,0-.37c-.2-.21-.12-.56-.36-.76h0c-.22-.21-.15-.57-.38-.78h0c-.24-.22-.17-.58-.38-.81a1.47,1.47,0,0,0,0-.36c-.21-.22-.14-.56-.36-.77h0c-.36-.3,0-.85-.4-1.15h0c-.23-.23-.17-.58-.37-.83l-.06-.73-.33-.43a.74.74,0,0,0,0-.33c-.34-.33,0-.86-.37-1.18a1.23,1.23,0,0,0,0-.38c-.2-.22-.13-.56-.35-.77h0a25.56,25.56,0,0,1-.78-3.1,1.2,1.2,0,0,0,0-.38c-.31-.34,0-.86-.35-1.19a1.1,1.1,0,0,0,0-.36c-.32-.33,0-.85-.36-1.19l0-.74c-.38-.46,0-1.1-.36-1.55h0c-.46-.59.07-1.37-.38-2l0-.75c-.42-.59.09-1.36-.36-2l0-.75c-.43-.74.1-1.62-.35-2.36l0-1.11c-.5-1.13.13-2.38-.38-3.5V343.4c-.4-2.08-.06-4.18-.19-6.27a5.25,5.25,0,0,0-.18-2.26,1.08,1.08,0,0,0,0-.31.63.63,0,0,0,0-.85.86.86,0,0,0,0-.32.62.62,0,0,0,0-.84v-1.09a.33.33,0,0,0,0-.45v-.71a.6.6,0,0,0,0-.83v-.72a.34.34,0,0,0,0-.45v-1.08a.26.26,0,0,0,.12-.32c0-.1-.07-.14-.12-.14V324.5a.29.29,0,0,0,.09-.29q0-.15-.09-.15l0-4.22c-.38-2.22-.07-4.45-.18-6.67a5.34,5.34,0,0,0-.18-2.25V309.8a.54.54,0,0,1,0-.78v-.39c-.5-1.79.16-3.65-.36-5.44a.81.81,0,0,0,0-.31.26.26,0,0,0,.12-.32q0-.15-.12-.15l0-1.5c-.5-1.14.14-2.39-.36-3.53a.71.71,0,0,0,0-.29.28.28,0,0,0,.11-.33c0-.09-.07-.14-.11-.14l0-1.13c-.47-1.13.13-2.37-.36-3.5l0-.75c-.44-.73.11-1.61-.36-2.33l0-.76c-.41-.6.08-1.36-.35-2a1,1,0,0,0,0-.35c-.44-.59.07-1.37-.37-2l0-.74c-.38-.46,0-1.11-.36-1.56a1.53,1.53,0,0,0,0-.37c-.33-.33,0-.85-.37-1.18a1.45,1.45,0,0,0,0-.36c-.4-.46,0-1.11-.37-1.56h0c-.43-.44,0-1.11-.39-1.55h0c-.43-.44,0-1.11-.39-1.55h0c-.42-.44,0-1.1-.39-1.54h0c-.23-.23-.17-.58-.37-.82a1,1,0,0,0,0-.34c-.34-.32,0-.85-.38-1.17h0c-.36-.31,0-.86-.39-1.18a1.18,1.18,0,0,0,0-.37c-.49-.56-.46-1.31-.72-1.95a1.5,1.5,0,0,0,0-.37c-.2-.21-.12-.56-.36-.76h0c-.22-.23-.16-.58-.38-.81a1.11,1.11,0,0,0,0-.36,7.93,7.93,0,0,1-.73-1.56v0c-.37-.3,0-.85-.41-1.15h0c-.2-.22-.14-.57-.37-.78h0c-.22-.21-.15-.57-.39-.77h0c-.22-.22-.16-.57-.38-.79h0c-.24-.2-.17-.57-.4-.77h0c-.24-.22-.17-.58-.39-.8l-.4-.75c-.23-.2-.14-.57-.38-.76h0a3,3,0,0,1-.36-.44,1,1,0,0,0,0-.34l-.35-.39h0c-.24-.2-.16-.57-.4-.76h0a4.59,4.59,0,0,1-.36-.41v0c-.25-.2-.18-.57-.4-.78h0c-.3-.37-.5-.79-.77-1.17h0c-.24-.2-.16-.57-.4-.76h0c-.12-.14-.25-.26-.37-.4h0a1.82,1.82,0,0,1-.38-.45.86.86,0,0,0,0-.32c-.11-.14-.23-.27-.35-.4h0a2.32,2.32,0,0,1-.38-.44.8.8,0,0,0-.07-.34,2.35,2.35,0,0,0-.33-.37h0c-.12-.14-.25-.26-.37-.41v0c-.24-.19-.14-.57-.42-.73l0,0A2.05,2.05,0,0,0,81,248h0c-.12-.14-.25-.26-.37-.4h0a2.32,2.32,0,0,1-.38-.44.78.78,0,0,0,0-.34,3,3,0,0,0-.35-.36h0c-.12-.14-.25-.27-.37-.4h0c-.13-.13-.27-.26-.39-.4h0a2.22,2.22,0,0,1-.4-.41l0,0c-.33-.34-.49-.8-.81-1.14h0c-.12-.14-.25-.26-.38-.4h0c-.13-.13-.27-.26-.39-.4h0a2.46,2.46,0,0,1-.39-.4h0a2.52,2.52,0,0,1-.4-.4h0a1.65,1.65,0,0,1-.39-.4h0c-.26-.16-.16-.55-.44-.71l0,0A7.6,7.6,0,0,1,74,239.89v0a2.16,2.16,0,0,0-.37-.37h0a3.32,3.32,0,0,0-.37-.38h0a3.86,3.86,0,0,1-.76-.75l0,0a1.54,1.54,0,0,0-.36-.36l0,0a5.36,5.36,0,0,1-1.12-1.11,1,1,0,0,0-.34-.08,1.77,1.77,0,0,1-.43-.39h0a1.69,1.69,0,0,1-.4-.4h0a2.11,2.11,0,0,1-.4-.39h0a3,3,0,0,1-.4-.39h0l-.39-.39h0l-.39-.36,0,0a2.32,2.32,0,0,0-.35-.35,1,1,0,0,0-.33-.06,1.3,1.3,0,0,1-.45-.39h0a2.13,2.13,0,0,1-.41-.38h0l-.4-.39h0l-.38-.36a.85.85,0,0,0-.32,0,1.41,1.41,0,0,1-.45-.39h0a2.89,2.89,0,0,1-.4-.38h0c-.36-.29-.81-.47-1.15-.8v0a2.52,2.52,0,0,1-.41-.39h0l-.4-.37h0a2.31,2.31,0,0,0-.36-.34,1,1,0,0,0-.35-.06,3.91,3.91,0,0,1-.44-.37h0a3.24,3.24,0,0,0-.38-.36.7.7,0,0,0-.32-.05,1.65,1.65,0,0,1-.45-.38h0l-.4-.36a.85.85,0,0,0-.32,0,1.53,1.53,0,0,1-.45-.39h0l-.4-.35a.69.69,0,0,0-.32,0,1.67,1.67,0,0,1-.45-.39h0l-.39-.35a1,1,0,0,0-.35,0,2.6,2.6,0,0,1-.43-.38h0c-.21-.24-.57-.17-.77-.4h0c-.22-.22-.58-.15-.78-.41l0,0a5,5,0,0,1-.42-.37h0c-.2-.24-.56-.16-.76-.41h0c-.22-.22-.58-.15-.78-.4h0a4.48,4.48,0,0,1-.4-.36.93.93,0,0,0-.33,0,2.63,2.63,0,0,1-.45-.36h0c-.19-.24-.56-.16-.76-.39h0c-.21-.23-.58-.15-.78-.41l0,0-.4-.35a1,1,0,0,0-.35,0c-.16-.11-.29-.24-.44-.36h0c-.2-.25-.56-.16-.76-.38l-.17,0h-.16a2.63,2.63,0,0,1-.45-.36h0c-.2-.25-.56-.16-.77-.38l-.16,0H47a1.82,1.82,0,0,1-.45-.38h0c-.21-.23-.57-.16-.77-.4h0l-.39-.35a1.49,1.49,0,0,0-.36-.05c-.23-.21-.6-.14-.81-.39v0a4.4,4.4,0,0,0-.39-.35,1.49,1.49,0,0,0-.36,0c-.23-.21-.59-.14-.8-.39h0l-.4-.34a.83.83,0,0,0-.35-.05c-.23-.21-.6-.14-.81-.4l0,0-.4-.35a1.11,1.11,0,0,0-.36,0c-.22-.22-.6-.14-.8-.4h0l-.41-.35a1.27,1.27,0,0,0-.34,0,3,3,0,0,1-.44-.36h0c-.19-.25-.55-.16-.75-.38a1.32,1.32,0,0,0-.34,0,13.39,13.39,0,0,1-1.21-.73.93.93,0,0,0-.33,0,2.27,2.27,0,0,1-.45-.37h0c-.2-.23-.57-.16-.77-.4h0c-.12-.11-.25-.23-.39-.34a1,1,0,0,0-.35-.05,4.58,4.58,0,0,1-.42-.35.93.93,0,0,0-.33,0,2.27,2.27,0,0,1-.45-.37h0c-.21-.24-.57-.16-.77-.39h0a4.17,4.17,0,0,0-.38-.34,1.49,1.49,0,0,0-.36,0l-.43-.36h0c-.19-.25-.55-.17-.76-.39h0c-.2-.24-.57-.16-.76-.41h0l-.4-.35a1,1,0,0,0-.34,0,3.91,3.91,0,0,1-.44-.37h0c-.2-.24-.56-.17-.77-.4h0c-.21-.22-.58-.15-.77-.41v0a3.69,3.69,0,0,1-.41-.38h0l-.39-.36a1.26,1.26,0,0,0-.33-.05,2.27,2.27,0,0,1-.45-.37h0a4,4,0,0,0-.37-.34.85.85,0,0,0-.35,0,5.28,5.28,0,0,1-.44-.36h0c-.19-.25-.56-.17-.76-.41h0c-.38-.28-.81-.48-1.17-.79v0c-.15-.12-.27-.26-.41-.38h0c-.2-.24-.57-.16-.76-.41h0c-.14-.11-.27-.25-.41-.37h0a2,2,0,0,0-.37-.34,1,1,0,0,0-.35-.06,3.16,3.16,0,0,1-.43-.38h0c-.36-.3-.8-.48-1.15-.79h0c-.15-.11-.27-.25-.41-.37h0a4.26,4.26,0,0,0-.38-.35.7.7,0,0,0-.32,0,1.41,1.41,0,0,1-.45-.39h0c-.14-.11-.27-.25-.41-.37h0a3.25,3.25,0,0,0-.39-.35l0,0c-.17-.27-.56-.17-.73-.42h0a2.46,2.46,0,0,1-.4-.39h0c-.15-.12-.27-.26-.41-.38h0a3.41,3.41,0,0,0-.39-.37h0c-.18-.25-.56-.17-.74-.42h0a1.65,1.65,0,0,1-.4-.39h0a2.46,2.46,0,0,1-.4-.39h0a3,3,0,0,1-.4-.4h0a4.89,4.89,0,0,1-.4-.39h0l-.4-.39h0l-.39-.38h0l-.38-.39h0c-.13-.13-.25-.25-.39-.37h0a3.41,3.41,0,0,0-.38-.38h0l-.38-.38h0a4.54,4.54,0,0,0-.38-.38h0c-.12-.14-.25-.26-.38-.4h0c-.13-.13-.26-.26-.38-.4H8c-.13-.13-.27-.26-.39-.4h0a2.16,2.16,0,0,1-.4-.4h0c-.26-.18-.17-.56-.43-.74v0a4.48,4.48,0,0,0-.36-.4h0c-.13-.13-.26-.26-.38-.4H6a1.9,1.9,0,0,1-.39-.41v0c-.25-.19-.17-.56-.41-.76h0a4.86,4.86,0,0,1-.38-.41h0a1.27,1.27,0,0,1-.38-.45.71.71,0,0,0,0-.32,4.64,4.64,0,0,1-.36-.4h0c-.25-.19-.18-.56-.4-.77h0c-.23-.21-.16-.57-.39-.78h0c-.23-.22-.16-.57-.39-.78h0c-.23-.21-.17-.57-.39-.78h0c-.24-.21-.18-.57-.39-.79h0c-.38-.3,0-.85-.4-1.17a1.64,1.64,0,0,0,0-.38c-.2-.23-.13-.57-.34-.8a1.37,1.37,0,0,0,0-.35c-.33-.33,0-.86-.37-1.19a1.45,1.45,0,0,0,0-.36c-.39-.46,0-1.11-.37-1.57a.82.82,0,0,0,0-.35c-.48-.73.1-1.62-.37-2.35a1.82,1.82,0,0,0,0-.33A.31.31,0,0,0,.31,177q0-.15-.09-.15v-1.13a2.36,2.36,0,0,1,0-1.93Z"/><path d="M123.53,403.69a56.87,56.87,0,0,0,.3-6.53c.62-16.91.7-33.84,1-50.76.14-9.14-.26-18.27-.82-27.39q-.47-7.51-.88-15-.74-12.92-2.19-25.77c-1-8.47-1.28-16.93.94-25.3a39.38,39.38,0,0,1,4.64-10.76c.53-.86,1-1.73,1.61-2.69-3,.14-3.31-.14-3.44-2.84a193.5,193.5,0,0,0-6.81-41.81c-3.52-13-7.16-25.89-10.68-38.85A65.41,65.41,0,0,1,105,133.21a38.75,38.75,0,0,1,12.31-25.86c2.57-2.42,5.09-4.91,7.68-7.31,2-1.83,2.85-4.23,3.77-6.63.17-.44.29-.86-.28-1.14-1.91-1-2.81-2.76-3.79-4.5a32.46,32.46,0,0,1-2.3-5.47,73.76,73.76,0,0,1-1.31-8.36c-.36-6.53-.09-13,2-19.26a20.55,20.55,0,0,1,19.84-14.6,56,56,0,0,1,11.25,1.41c4.52.83,9,1.34,13.58.2A46.18,46.18,0,0,0,175,38.84,21,21,0,0,1,181.27,37a8.23,8.23,0,0,1,8.92,5,14.54,14.54,0,0,1,.34,11.79c-.21.54-.46,1.06-.69,1.59a.18.18,0,0,0-.15.2l-.19.47c-.6,2.24-2.3,3.66-3.92,5.09a24.28,24.28,0,0,1-4.76,3.28,3.63,3.63,0,0,0-2,2.65c-.83,3.75-1.45,7.41.32,11.14.91,1.91-.27,4.42-2.18,5.68-.7.46-1.47.79-2.21,1.18a1.63,1.63,0,0,0-1,1.71A3.65,3.65,0,0,1,172.58,90c-.19.17-.45.41-.41.63.41,2.44-1.58,4.13-1.94,6.31-.49,2.9-2.35,4.46-5,5.29a12.71,12.71,0,0,1-6.3.39c-1.31-.25-1.77.28-1.75,1.53a11.5,11.5,0,0,0,.5,3A24.32,24.32,0,0,0,165,118.72c4.7,4.3,9.17,8.86,13.53,13.5,4.18,4.47,8.54,8.75,12.79,13.14,3.23,3.33,6.9,6.19,10,9.63a2.72,2.72,0,0,0,2.63.83,195.18,195.18,0,0,1,20.37-1.56c5.66-.23,11.32-.36,17-.19,3.12.1,5.23-1.17,7.24-3.19,4.08-4.1,4.7-9.25,4.59-14.65,0-1.36-1.07-1.51-2-1.59a22.75,22.75,0,0,1-5.66-1.08,6.51,6.51,0,0,1-4.89-6,4.26,4.26,0,0,0-.26-1.71c-1-1.7-1.4-3.33.32-4.86a.88.88,0,0,0,.18-.91,3.94,3.94,0,0,1,.75-4.14c.53-.61-.06-1.21-.32-1.77-1.33-2.86-.82-5.28,1.87-6.8a13.31,13.31,0,0,0,5.6-6.66c1.89-4.27,4.11-8.31,8-11.18a2.56,2.56,0,0,0,.83-1.7,35.79,35.79,0,0,1,1-3.92,4.85,4.85,0,0,1,5-3.67c3.09,0,6.18-.2,9.23.51a9.66,9.66,0,0,0,1.7.34,3.48,3.48,0,0,1,.56.12,42.77,42.77,0,0,1,11.37,4.61,13,13,0,0,0,1.21,1.14h0a4.26,4.26,0,0,1,1.16.77h0l.43.31.06,0c.14.27.54.16.67.45h0a2,2,0,0,1,.43.33l0,0c.16.24.6.12.65.5l.11-.1-.12.09c.26,0,.37.14.45.34h0a.74.74,0,0,1,.42.36h0a3.89,3.89,0,0,1,1.19,1.06l.07.06c.1.28.54.15.61.49l.06-.07-.07.06a.48.48,0,0,1,.42.37h0a.71.71,0,0,1,.42.36h0a1.15,1.15,0,0,1,.39.37h0a3.33,3.33,0,0,1,.39.36v0l.38.35,0,0a2.9,2.9,0,0,0,.36.34l0,0a5.24,5.24,0,0,1,1.51,1.53l0,0a4.48,4.48,0,0,1,.36.4h0a.85.85,0,0,1,.36.43l0,0a.5.5,0,0,1,.37.43h0A4.7,4.7,0,0,1,300,98.13h0c.18.1.34.22.34.45l0,0c.37.08.26.51.49.69h0c.13.14.3.25.33.46l0,0c.33.13.23.53.47.72h0c.13.14.3.26.29.48l0,0c.38.12.28.52.45.76l0,0c.31.17.24.54.42.77h0c.28.19.21.55.39.79v0c.28.2.22.55.38.81l0,0c.31.19.26.55.37.83l0,0c.51.22.11.83.48,1.11h0c.23.23.2.56.33.83v0c.46.26.1.84.44,1.15h0c.39.3.06.84.4,1.16h0c.36.33.07.85.37,1.19v0c.48.42,0,1.1.42,1.55v0c.43.46,0,1.12.38,1.58v0c.5.59,0,1.37.37,2v0c.62,1,0,2.13.4,3.13l0,0c.54.85.13,1.79.26,2.68-.25,2.48.49,4.93.29,7.41a2.61,2.61,0,0,1-.11.61,8.94,8.94,0,0,0-.33,2.57,3.35,3.35,0,0,1-.11.55,7.22,7.22,0,0,0-.31,1.59,4.88,4.88,0,0,1-.12.55c-.18.54-.19,1.12-.32,1.68a130.31,130.31,0,0,1-8.07,21.67,31.07,31.07,0,0,0-2,23.26A32.21,32.21,0,0,1,295.09,203a19.16,19.16,0,0,1-10,10c-2.6,1.22-5.07.26-5.5-2.55-1.07-6.92-4.92-12.18-9.42-17.15-4.45-5.21-8.27-10.79-10.3-17.46-.38-1.26-.13-3.2-1.26-3.62-.93-.36-2,1.33-3.1,2-5.06,2.88-10.61,3.81-16.3,4-10.47.28-20.92-.57-31.39-.41-3.61-.55-7.29-.61-10.82-1.76a20.63,20.63,0,0,1-10.74-7.51c-6.39-8.95-13-17.76-19.9-26.46.6,4,1.44,7.82,2.37,11.65,3.37,13.89,5.27,28.05,7.35,42.17a3.56,3.56,0,0,0,1.86,2.89c8.95,5.26,18.69,8.17,28.86,9.86a88,88,0,0,0,19.56,1.71c3.4-.14,6.75-1,10.18-.78a13,13,0,0,1,2.49.23c2.51.63,3.44,2,2.87,4.52-.4,1.78.6,3.42.29,5.16a2.89,2.89,0,0,1-.69,1.95c-1.86,1.88-2,4.32-2.47,6.72-.56,3-1.77,5.61-4.61,7.16-2.95.65-5.71-.3-8.44-1.17a93.47,93.47,0,0,1-12-5.09,37.08,37.08,0,0,0-13.55-3.29c-6-.43-11.92-1-17.85-1.77-3.63-.49-3.46-.49-3.69,3.17s0,7.58-.79,11.33a7.72,7.72,0,0,0,.2,2.87,96.21,96.21,0,0,1,1.44,17.28c0,7.85,0,15.7-.45,23.54-.4,6.93-.48,13.88-.82,20.81-.62,12.84-1.55,25.66-2.86,38.46-1.63,16-4.11,31.89-6.94,47.74q-2.9,16.24-5.68,32.52c-.26,1.49-.25,3.09-1.25,4.39h0c-.32.29-.1.74-.3,1.07-1.68,8.91-4.07,17.66-6,26.5-.78,3.51-1.36,7.07-2.15,10.58a20.18,20.18,0,0,1-3.44,7.68c3.07,3.27,5.89,6.84,10.08,8.94a64.25,64.25,0,0,0,13,4.74c4.18,1.07,8.38,2,12.62,2.73,1.07.2,2.11.52,3.17.78.26.16.63.09.83.38h0c.22.18.61.09.73.43h0c.22,0,.32.18.45.32h0a4.21,4.21,0,0,1,1.54,1.54h0c.15.13.31.25.31.47l0,0c.38.14.3.52.42.79l0,0c.59.39.06,1.1.44,1.55v0a1.86,1.86,0,0,1,0,1.92l-.06.07.05.09c-.21.43,0,1-.36,1.37h0a5.59,5.59,0,0,1-.76,1.55h0c-.23.18-.12.61-.48.7l0,0a.5.5,0,0,1-.36.44h0a1,1,0,0,1-.36.42h0a3.48,3.48,0,0,1-1.56,1.5h0a.5.5,0,0,1-.44.35l.1.08-.1-.09a1.84,1.84,0,0,1-1.14.78l.06.09-.06-.09c-.12.35-.51.25-.73.44h0c-.17.28-.54.19-.75.4h0c-.19.25-.54.18-.76.37h0c-.2.25-.54.2-.79.34h0c-.25.46-.82.1-1.12.43h0c-.31.38-.83.07-1.16.37h0c-.43.48-1.09,0-1.54.4h0c-2.81.73-5.63.3-8.44,0h0c-.72-.45-1.62.18-2.31-.4h0c-.71-.44-1.62.18-2.31-.4h0c-2.81-.55-5.67-.77-8.5-1.18v0a90.23,90.23,0,0,0-10.27.07c-3.64.23-7.3,1.13-11,.28h0c-.47-.33-1.13.12-1.55-.38h0a3.4,3.4,0,0,1-1.55-.75h0a2.51,2.51,0,0,1-1.16-1.14h0c-.15-.12-.31-.23-.34-.44l0,0c-.33-.13-.23-.53-.45-.73h0c-.25-.2-.17-.56-.39-.77h0c-.24-.21-.19-.56-.36-.81v0c-.29-.21-.25-.55-.35-.84l0,0c-.51-.25-.16-.83-.43-1.17l0,0c-.55-.4,0-1.1-.44-1.54v0c-.52-.72,0-1.62-.38-2.36l0,0c-.53-2.27-.2-4.56-.21-6.84,0-1.83-.33-3.68.2-5.49v0c.48-1.26-.19-2.64.4-3.89v0c.47-1-.18-2.14.39-3.13v0c.49-1-.08-1.51-.78-2h0a3.78,3.78,0,0,1-1.55-1.52h0a.66.66,0,0,1-.33-.45l0,0c-.35-.13-.26-.52-.45-.74h0c-.28-.19-.21-.55-.4-.79v0c-.27-.21-.24-.55-.35-.83v0c-.48-.27-.14-.83-.42-1.18l0,0c-.54-.4,0-1.11-.44-1.54h0c-.43-.46,0-1.11-.36-1.59v0c-.53-.77,0-1.7-.4-2.49l.06-.11-.08-.08c-.54-1,.1-2.14-.38-3.14v0c-.55-1,.07-2.13-.38-3.14v0c-.62-1.12.08-2.38-.4-3.52l0,0c-.62-1.56.08-3.23-.41-4.8l.07-.1-.07-.09c-.6-2.11.13-4.3-.4-6.41l.08-.07,0-.09c-.52-1.94-.11-3.91-.24-5.87a10.42,10.42,0,0,0-.17-2.84l.07-.08-.06-.1c-.52-2.4-.08-4.83-.23-7.25a19.89,19.89,0,0,0-.16-4l0,0c-.47-.64-.22-1.37-.23-2q0-6.35,0-12.69C123.28,404.92,123,404.25,123.53,403.69Z"/><path fill="#e3ae27" d="M200.85,225.3A34,34,0,0,1,214,228.5a125.14,125.14,0,0,0,11.67,5,32,32,0,0,0,5.77,1.43,10.61,10.61,0,0,0,2.87,0,56.6,56.6,0,0,0,7.29,18.18A214.73,214.73,0,0,1,260.12,293c2.6,7.48,6.15,14.59,9,22,.83,2.16,1.69,4.32,2.5,6.49a4.51,4.51,0,0,1,.17.52l.27,1c.11.42-.12.83-.06,1.25a1.71,1.71,0,0,0,.3.64,5.93,5.93,0,0,0,.24.92.19.19,0,0,0,0,.26c.3.38.09.9.33,1.29a.17.17,0,0,0,0,.25,7.65,7.65,0,0,1,0,3.86h0c-.33.33,0,.85-.37,1.18h0c-.38.28,0,.89-.47,1.13l0,0a5.23,5.23,0,0,1-.74,1.22v0c-.29.38-.44.86-.85,1.14l.05,0a.65.65,0,0,1-.42.42l0,0a.65.65,0,0,1-.42.42l0-.05a3.43,3.43,0,0,1-1.16.83l0,0c-.19.28-.56.21-.79.42l0,0c-.2.27-.56.2-.79.4h0c-.2.26-.56.2-.8.39h0c-.24.28-.6.24-.9.38h-.14l-.12.08a4.2,4.2,0,0,1-.9.32l-.14,0-.11.08a3.48,3.48,0,0,1-.94.32l-.12,0-.1.08c-.23.23-.57.19-.84.33l0,0a1.9,1.9,0,0,1-.83.54c-3.65,1-7.42,1.22-11.16,1.64-.91.05-1.82,0-2.74,0-6.77.14-13.54-.47-20.32-.36a12.59,12.59,0,0,0-3.24.3c-1.14,0-2.22-.53-3.38-.35a48.47,48.47,0,0,1-20.65-4.87c-.46-.21-.92-.44-1.4-.65-2.36-1-2.36-1-3.66.82a.76.76,0,0,1-.58-.85c.11-1.72-.83-2.64-2.31-3.2a33.54,33.54,0,0,1-5.15-6.23c-2.75-4.83-2.72-9.94-1.73-15.17,3-15.86,5.43-31.82,8.43-47.68,2.22-11.69,3.71-23.51,6.14-35.15C199.8,227.73,199.66,226.27,200.85,225.3Z"/><path fill="#f3dda4" d="M200.85,225.3c-1.17,6-2.47,11.94-3.45,17.95-.84,5.19-1.6,10.39-2.51,15.57-1.21,6.81-2.54,13.61-3.73,20.43-1.26,7.2-2.39,14.42-3.62,21.63-.65,3.79-1.49,7.55-2.08,11.35s-1.08,7.37.2,11a19.4,19.4,0,0,0,4.57,7.5c.75.76,1.77,1.32,2.07,2.47.73,1.14.35,2.35.27,3.55-.26,4.36-1.1,8.69-.94,13.05a131.38,131.38,0,0,0,1.21,15.34c1.08,6.91,4.86,12.36,9.6,17.23,6.59,6.77,13.61,13.09,20.42,19.63,1.72,1.65,2.65,3.28,2,5.76a19,19,0,0,0-.53,4.78c0,.58.1,1.35-.8,1.52-.06-.69-.11-1.37-.17-2.11-1.14.15-1.75,1-2.48,1.55a70.42,70.42,0,0,1-17.81,9.38,84,84,0,0,1-10.84,3.28,79.13,79.13,0,0,1-9.08,1.47,70.45,70.45,0,0,1-10.57.29,45.78,45.78,0,0,1-10.93-1.89,70.65,70.65,0,0,1,1.28-7.79q2.76-16.26,5.65-32.51c1.48-8.23,3-16.45,4.06-24.75,1-7.27,1.79-14.55,2.54-21.85,1-9.22,1.63-18.46,2.18-27.71.28-4.69.42-9.39.57-14.09.35-11.19,1.15-22.37,1.23-33.58a126.89,126.89,0,0,0-.89-18.49c-.2-1.4-.49-2.79-.7-4.19s-.78-2.61.21-3.88c.19-.24.07-.74.08-1.13q.17-6,.34-12a1.58,1.58,0,0,1,.3-1.24C185.89,224,193.38,224.54,200.85,225.3Z"/><path d="M223.58,414.11c.35-2.93.7-5.85,1.07-8.77.1-.79-.47-1.15-.91-1.59-5.56-5.43-11.12-10.86-16.85-16.12a103.52,103.52,0,0,1-7.47-7.78,29.83,29.83,0,0,1-7.59-18.53c-.21-3.34-.46-6.67-.66-10a35.94,35.94,0,0,1,.1-5.39c.37-4.22.69-8.45,1-12.68,1.36,0,2.25.63,2.31,1.76,0,.64,0,1.27,0,1.91a9.74,9.74,0,0,1,.28,4.76,95.81,95.81,0,0,0,0,15.8c.18,2.24.3,4.48.6,6.71a25,25,0,0,0,6.9,14c8.5,9.14,17.93,17.34,26.78,26.13,4.43,4.4,9.07,8.56,13.64,12.8,3.26,3,6.73,5.81,9.75,9.06,4,4.3,7.61,8.9,11.3,13.45a52.88,52.88,0,0,1,9.62,17.7,31.9,31.9,0,0,0,5.06,10.13,22.83,22.83,0,0,1,2.35,4,9.83,9.83,0,0,1,0,8.93c-.31.64-.66,1.26-.92,1.92-1,2.73.54,4.76,3.42,4.23a8.5,8.5,0,0,0,6.31-5.19,14.2,14.2,0,0,0,1.17-6.6c-.3-7.34,0-14.53,3.65-21.17a5.09,5.09,0,0,0,.22-.54c1.79-4.81.63-7.39-4.16-9.23a19.2,19.2,0,0,0-4.45-1.28c-6.32-.83-10.63-4.33-13.75-9.76-4.39-7.65-8.84-15.27-13.87-22.52-4-5.76-7.89-11.6-12.33-17a119.38,119.38,0,0,0-13.71-13.83,98.19,98.19,0,0,1-7.51-7.21,18.38,18.38,0,0,1-4.68-12.54c-.05-2.37.18-4.77.14-7.12a81.91,81.91,0,0,0-.33-8.86c-.08-.69-.34-1.4.25-2,.73-.05,1.47-.08,2.2-.16.5-.05.57.36.78.64.76.44.58,1.21.65,1.89a116.83,116.83,0,0,1,.36,16,13.81,13.81,0,0,0,4.23,10.39,88.16,88.16,0,0,0,6.45,6.08c3.08,2.63,5.94,5.49,9,8.58-.61-3.79-1.48-7.29-1.83-10.87a64.21,64.21,0,0,1,2.12-24.24c.59-2,1.32-4,2-6a3.51,3.51,0,0,1,1.18-1.94,11.78,11.78,0,0,1,2.72,0c.62.9.13,1.74-.17,2.57a71.45,71.45,0,0,0-4.33,24.18,44.44,44.44,0,0,0,.71,7.28,21.18,21.18,0,0,1,.37,3.63c.25.71-.07,1.48.25,2.18l0,0c.62.69,0,1.61.43,2.33v0c.51.58,0,1.37.4,2v0c.43.52.09,1.21.38,1.75l0,.09.07.08c.49.58-.06,1.37.39,2v0c.35.35.11.85.33,1.23v0c.42.26.52.76.85,1.09l0,0a2,2,0,0,1,.34.42h0a.6.6,0,0,1,.36.44l0,0c.43.25.54.75.85,1.1h0c.14.13.3.24.34.44v0c.39.28.53.76.82,1.12h0c.14.12.31.23.33.45l0,0a3.52,3.52,0,0,1,.83,1.13h0a.59.59,0,0,1,.33.46l0,0c.45.25.59.72.83,1.13v0a5.69,5.69,0,0,1,.81,1.15h0a.68.68,0,0,1,.33.46l0,0c.35.09.24.51.48.69v0c.12.14.29.24.33.45l0,0a3.51,3.51,0,0,1,.8,1.15h0a6.35,6.35,0,0,1,.79,1.15h0c.16.12.32.24.33.46l0,0c.36.1.24.52.48.7h0c.13.14.3.25.33.45l0,0a3,3,0,0,1,.8,1.16v0a4.62,4.62,0,0,1,.8,1.16h0c.17.11.34.23.33.47l0,0c.38.08.26.51.49.7h0c.15.13.31.25.31.47l0,0c.37.1.26.52.48.72h0c.15.13.31.24.31.47l0,0c.37.09.26.51.48.7h0c.14.13.3.24.32.46l0,0c.35.11.24.53.47.71h0c.13.14.29.25.31.47l0,0c.35.12.25.52.47.72h0c.15.12.32.24.3.47l0,0c.38.1.28.51.47.73v0c.28.17.18.55.44.72v0c.11.15.28.26.31.47l0,0c.32.13.23.53.45.73h0c.14.14.31.25.29.48l0,0c.39.1.28.51.47.73h0c.28.16.19.54.43.73v0c.13.14.3.26.28.48l0,0c.39.11.29.51.45.75v0c.31.16.22.54.43.75h0a4.68,4.68,0,0,1,.74,1.21l0,0c.32.14.22.53.45.73h0c.14.13.3.25.3.47l0,0c.37.12.27.52.46.75v0c.28.17.19.55.43.74h0c.12.15.29.26.29.48l0,0c.37.11.27.51.45.75v0c.29.16.2.54.43.74h0a5.73,5.73,0,0,1,.73,1.21l0,0c.32.15.23.54.44.75h0c.26.18.17.55.42.73v0c.12.14.29.26.28.48l0,0c.38.12.28.52.45.76l0,0c.31.15.21.54.45.73h0c.12.15.3.25.31.47l0,0c.35.12.25.53.47.73h0c.15.13.32.24.3.48l0,0c.39.09.28.51.48.72h0a9.3,9.3,0,0,1,.8,1.14h0a1.19,1.19,0,0,1,.35.42v0a.75.75,0,0,1,.39.41h0a.64.64,0,0,1,.39.41l0,0a.53.53,0,0,1,.39.42h0a.53.53,0,0,1,.42.38h0a.81.81,0,0,1,.43.34h0c.19.22.61.1.68.48.23,0,.34.14.47.28h0c.2.22.57.14.75.4h0c.23.19.56.13.77.35l0,0c.42.43,1.09-.07,1.49.41h0c.47.37,1.12-.06,1.58.36l.09.09.11-.06c.53.31,1.2-.05,1.7.37h0c.44.39,1.09-.05,1.53.37h0c.41.42,1.1-.09,1.49.43h0c.32.29.88-.06,1.14.42.26.11.6.06.8.34h0c.23.18.59.11.77.38h0c.23.19.6.1.75.42h0a4,4,0,0,1,1.19.74h0c.14.1.28.2.41.31l.06,0c.13.26.57.14.63.5l.08-.09-.09.08a.39.39,0,0,1,.41.38v0a.42.42,0,0,1,.39.41l0,0c.45.24.58.73.85,1.11h0c.26.19.18.55.4.76h0a1.69,1.69,0,0,1,.31.86l0,0a10.25,10.25,0,0,1,0,5.33l0-.05a7.35,7.35,0,0,1-.72,2.39h0c-.36.29,0,.89-.46,1.13l0,0c-.12.27-.07.62-.38.81l0,0c-.16.25-.11.61-.38.81v0c-.18.24-.14.58-.36.8h0c-.36.29,0,.87-.44,1.13l0,0c-.3.33.06.91-.44,1.17l0,0c-.24.37.09.92-.41,1.2l0,0c-.21.38,0,.9-.35,1.23v0c-.42.59.15,1.39-.41,1.95l0,0c-.36,3.83-.05,7.68-.17,11.52,0,.69.21,1.41-.2,2.06l-.07.09.06.09c-.36.67.08,1.48-.38,2.13v0c-.41.44.08,1.13-.42,1.55v0c-.3.34,0,.9-.41,1.18v0c-.15.26-.1.61-.37.81h0c-.19.23-.11.61-.43.76v0a2.17,2.17,0,0,1-.81,1.14h0a.47.47,0,0,1-.36.43h0a.64.64,0,0,1-.39.41v0a.62.62,0,0,1-.39.4h0a.66.66,0,0,1-.41.39h0a.47.47,0,0,1-.42.36l.09.07-.09-.08a1.71,1.71,0,0,1-1.15.75l0,.09-.06-.08c-.09.38-.49.27-.71.44h0a5.57,5.57,0,0,1-2.31,1.14h0c-1.12.16-2.16,1.06-3.38.38h0c-.46-.34-1.12.13-1.54-.39h0a3.36,3.36,0,0,1-1.56-.73h0c-.35-.28-.86-.38-1.07-.85v0a2.1,2.1,0,0,1-.82-1.14v0c-.32-.18-.26-.54-.39-.81l0,0c-.57-.39,0-1.1-.44-1.55v0c-.58-1.24.2-2.28.46-3.4l0,0c.08-.29,0-.63.34-.84v0c.17-.24.11-.61.4-.79l0,0c.18-.24.1-.62.43-.78l0,0c.15-.26.07-.65.43-.78v0c.09-.28.06-.62.34-.84l0,0a5.36,5.36,0,0,0,0-2.81l0,0c-.45-.3-.15-.84-.39-1.21l0,0c-.45-.75-.76-1.57-1.19-2.34l0,0c-.33-.13-.23-.53-.46-.72h0c-.13-.14-.3-.24-.31-.46l0,0a2.41,2.41,0,0,1-.8-1.16h0a2.77,2.77,0,0,1-.79-1.17v0a2.41,2.41,0,0,1-.75-1.2v0c-.36-.12-.26-.52-.45-.75v0c-.28-.18-.2-.55-.42-.76h0a6,6,0,0,1-.78-1.54h0c-.23-.22-.18-.57-.36-.81v0c-.28-.21-.24-.55-.35-.83l0,0c-.51-.24-.13-.84-.46-1.15v0c-.4-.29-.07-.84-.4-1.16h0c-.37-.31-.07-.85-.39-1.18v0c-.38-.31-.08-.85-.39-1.18v0c-.39-.31-.07-.85-.4-1.17h0a13.77,13.77,0,0,1-.75-2v0c-.3-.2-.26-.54-.35-.83l0,0a33.78,33.78,0,0,1-1.56-3.13l0,0c-.38-.13-.3-.52-.42-.78v0c-.35-.14-.27-.53-.42-.78v0c-.31-.15-.23-.53-.43-.76h0a3.73,3.73,0,0,1-.73-1.21v0c-.32-.13-.22-.53-.46-.71v0c-.12-.14-.29-.24-.32-.45l0,0a3.09,3.09,0,0,1-.81-1.15h0a7.7,7.7,0,0,1-1.17-1.55h0a.5.5,0,0,1-.35-.44h0c-.45-.23-.55-.74-.85-1.08h0a1,1,0,0,1-.35-.43h0c-.2-.08-.36-.2-.35-.44l-.08.09.09-.08a4.65,4.65,0,0,1-1.24-1.48h0a.67.67,0,0,1-.35-.44v0a6.53,6.53,0,0,1-1.21-1.51h0a.69.69,0,0,1-.36-.44l0,0a6.33,6.33,0,0,1-1.21-1.52h0a.66.66,0,0,1-.37-.43l0,0c-.22-.07-.37-.19-.36-.44l-.09.1.1-.09c-.48-.19-.55-.73-.88-1.05l0,0c-.12-.13-.24-.26-.35-.4h0a1,1,0,0,1-.38-.41h0a.59.59,0,0,1-.36-.42h0a.45.45,0,0,1-.38-.42h0a6.4,6.4,0,0,1-1.25-1.45l0,0a4.38,4.38,0,0,1-.36-.39h0a2.28,2.28,0,0,1-.38-.38h0a2.79,2.79,0,0,1-.38-.39h0a1.15,1.15,0,0,1-.38-.41h0a.84.84,0,0,1-.39-.4h0a.8.8,0,0,1-.4-.39h0a.8.8,0,0,1-.39-.4h0a.8.8,0,0,1-.39-.4h0a.8.8,0,0,1-.4-.39h0c-.45-.21-.6.18-.83.41v0c-.47.72.17,1.64-.41,2.34v0c-.35.49.06,1.14-.35,1.6l-.09.09.05.1c-.31.54.08,1.23-.4,1.72v0c-.35.47.09,1.14-.38,1.58v0c-.39.45.1,1.14-.42,1.56l0,0c-.27.36,0,.87-.35,1.21h0c-.43.42.08,1.12-.43,1.53v0c-.27.36,0,.88-.36,1.21h0c-.45.41.13,1.15-.49,1.51l0,0c-.22.37.11.92-.4,1.2l0,0c-.23.37.1.92-.4,1.2l0,0c-.23.37.08.92-.4,1.2l0,0c-.24.36.08.91-.41,1.2l0,0c-.24.36.08.91-.4,1.2l0,0c-.25.36.07.91-.4,1.2l0,0c-.25.36,0,.91-.39,1.2v0c-.27.35,0,.9-.39,1.2v0c-.28.34,0,.89-.4,1.19v0c-.28.35,0,.9-.4,1.19v0c-.27.35.06.9-.41,1.18l0,0c-.26.35.06.91-.41,1.19l0,0c-.26.35.07.91-.41,1.18v0c-.24.36.09.92-.41,1.19l0,0c-.23.36.07.9-.38,1.2v0c-.24.36,0,.89-.36,1.21v0c-.3.35,0,.87-.37,1.2h0c-.43.42.09,1.13-.44,1.52l0,0c-.27.37,0,.88-.35,1.22l-.08.08,0,.1c-.2.43,0,1-.35,1.36h0c-.41.44.06,1.12-.4,1.55v0c-.46.57.17,1.39-.44,1.93l0,0c-.34.63.11,1.39-.34,2l-.1.1.07.13a18.37,18.37,0,0,0,0,5.39l-.07.08.06.09c.56.85-.08,1.88.39,2.75v0c.38.34.15.85.33,1.24l0,0c.53.24.16.83.45,1.16v0c.31.19.27.54.35.84l0,0c.55.2.13.82.48,1.12v0c.37.34.12.85.34,1.23l0-.05a2.21,2.21,0,0,1,0,2.26v0c-.29.33,0,.89-.41,1.18l0,0c-.17.24-.06.65-.46.74v0c0,.25-.14.37-.35.45l0,0a.65.65,0,0,1-.38.41h0a.62.62,0,0,1-.41.38h0a3.91,3.91,0,0,1-1.13.81h0c-.19.27-.55.2-.77.39h0c-.31.38-.82.11-1.18.34h0a21,21,0,0,1-7.25,0h0c-.72-.43-1.62.17-2.32-.39v0c-3-.24-6.09-.23-9.13-.54-3.26-.34-6.55-.51-9.79-1v0c-2.68-.44-5.41-.39-8.1-.81v0c-1.4-.31-2.93.05-4.22-.81l-.06.08,0-.08c-.26-.11-.62,0-.77-.37h0a2.73,2.73,0,0,1-1.57-1.57c-.34-2.41.13-3.4,2.2-4.6a15.78,15.78,0,0,1,4.17-1.46c2.17-.56,4.34-1.16,6.48-1.83a20.9,20.9,0,0,0,11.54-9.15c2.68-4.18,4.09-8.84,5.31-13.58a113.12,113.12,0,0,0,3.57-24.77C222.62,425.27,223.18,419.69,223.58,414.11Z"/><path fill="#f3dba7" d="M271.92,324.47l-.15-1.45c-.16-.27-.1-.61-.32-.85a.7.7,0,0,1-.05-.35c-.53-1.33,0-2.29.93-3.27a119.46,119.46,0,0,1,16-14.45c7.17-5.46,14.8-10.26,22.3-15.23,6.71-4.44,13.49-8.77,19.7-13.9a85.35,85.35,0,0,0,19.76-24,80.3,80.3,0,0,0,8.17-19.32c3.32-12.66,3.33-25.18-2.09-37.37a59.66,59.66,0,0,0-8.14-12.6c-6-7.63-13.08-14.16-20.26-20.6a26.3,26.3,0,0,0-2-1.87c.08,1.27.67,2.8-1,3.26s-1.92-1.11-2.45-2.16c-1.88-3.74-4-7.32-6-11-1-1.88-1.85-3.81-2.78-5.65a3.82,3.82,0,0,1-.12,1.73,1.46,1.46,0,0,1-2.51.41,3,3,0,0,1-.66-1.17c-1.17-3.74-2.57-7.41-3.45-11.24a4,4,0,0,1,.14-1.47l-.06-.1.08-.09c.55-.86-.06-1.88.38-2.75l0,0c.56-1.21.07-2.5.29-3.73a.3.3,0,0,1,.51-.07,1,1,0,0,0,0,.34c.22.22.13.58.36.79a1.65,1.65,0,0,0,.05.38l.34.39v0c.24.22.18.58.38.82a1.41,1.41,0,0,0,.05.35c.2.21.12.56.35.77h0c.23.21.16.57.39.78h0c.24.21.17.57.39.8a1.19,1.19,0,0,0,.06.37,3.9,3.9,0,0,0,.33.38h0c.23.22.17.58.38.81a1.11,1.11,0,0,0,0,.36l.35.4v0c.25.21.18.58.39.81a1.34,1.34,0,0,0,0,.35l.35.4h0c.25.21.18.57.39.81a1.39,1.39,0,0,0,0,.35l.36.39h0c.25.21.19.56.39.79h0c.25.2.18.57.39.8a1.49,1.49,0,0,0,.05.36c.11.13.23.26.35.38h0c.24.2.17.56.4.77h0a1.59,1.59,0,0,1,.37.45.69.69,0,0,0,0,.32,4.79,4.79,0,0,1,.36.41v0c.25.2.18.57.4.78h0c.23.2.15.57.4.76h0c.12.14.25.28.36.43a1,1,0,0,0,0,.35l.35.4v0c.24.2.17.57.4.78h0c.23.2.14.57.4.76h0a4.82,4.82,0,0,1,.35.44,1.06,1.06,0,0,0,.05.35l.35.39h0c.25.2.18.56.41.77h0a2.86,2.86,0,0,1,.38.4h0c.25.2.18.56.41.78h0a1.77,1.77,0,0,1,.38.44,1,1,0,0,0,.06.34,2,2,0,0,0,.35.36h0c.12.14.26.27.37.41h0a2.4,2.4,0,0,1,.38.4h0c.25.18.17.56.42.74v0c.12.13.24.27.37.4h0a4.89,4.89,0,0,1,.39.4h0a2.46,2.46,0,0,1,.39.4h0a1.85,1.85,0,0,1,.39.4h0c.26.17.16.55.43.72l0,0a1.33,1.33,0,0,0,.35.36l0,0a3.24,3.24,0,0,0,.36.38h0a4.54,4.54,0,0,0,.38.38h0a4.68,4.68,0,0,0,.38.39h0a4.64,4.64,0,0,0,.38.39h0a4.68,4.68,0,0,0,.39.38h0a4.54,4.54,0,0,0,.38.38h0a3.3,3.3,0,0,0,.37.38h0l.38.38h0a3.3,3.3,0,0,0,.38.37v0a3.24,3.24,0,0,0,.38.36l0,0a1.54,1.54,0,0,0,.36.36l0,0c.17.27.56.17.73.43v0a1.9,1.9,0,0,1,.4.4h0a1.52,1.52,0,0,1,.4.4h0a1.65,1.65,0,0,1,.4.39h0a2.16,2.16,0,0,1,.4.4h0a2.11,2.11,0,0,1,.4.39h0a4.89,4.89,0,0,1,.4.39h0l.39.39h0l.4.38h0c.12.13.25.25.38.37h0a2.65,2.65,0,0,0,.37.38h0a2.6,2.6,0,0,0,.38.36l0,0c.18.26.56.17.73.43v0a1.65,1.65,0,0,1,.4.39h0a2.52,2.52,0,0,1,.4.4h0a2.94,2.94,0,0,1,.4.39h0c.14.12.27.26.4.39h0l.39.39h0l.38.38h0l.39.38h0a2.53,2.53,0,0,0,.37.36l0,0a1.8,1.8,0,0,0,.37.36l0,0a1.3,1.3,0,0,0,.35.35l0,0a5.74,5.74,0,0,1,.73.75l.43.43c.17.25.55.16.72.41h0c.26.17.16.54.42.71l.43.44a4.71,4.71,0,0,1,.74.74l0,0a1.8,1.8,0,0,0,.36.37l0,0a2.1,2.1,0,0,0,.36.37h0a3.91,3.91,0,0,1,.76.76l0,0a2.1,2.1,0,0,0,.36.37h0a2.22,2.22,0,0,0,.37.38h0a4.44,4.44,0,0,0,.37.38h0a4.54,4.54,0,0,0,.38.38h0l.38.39h0l.39.39h0a4.89,4.89,0,0,1,.39.4h0a3.78,3.78,0,0,1,.4.4h0a3,3,0,0,1,.39.4h0a1.33,1.33,0,0,1,.38.44.88.88,0,0,0,.07.33,1.45,1.45,0,0,0,.35.35l0,0a3.33,3.33,0,0,0,.36.39h0a4.68,4.68,0,0,0,.38.39h0l.39.4h0a2.46,2.46,0,0,1,.38.41h0a1.65,1.65,0,0,1,.4.39h0c.26.18.18.56.43.75h0c.12.14.25.26.37.4h0a4.75,4.75,0,0,1,.38.4h0a1.63,1.63,0,0,1,.39.44,1,1,0,0,0,0,.34,3.06,3.06,0,0,0,.36.36h0a4.61,4.61,0,0,0,.37.4h0a3.78,3.78,0,0,1,.39.41v0a2.17,2.17,0,0,1,.39.41h0c.33.34.5.78.8,1.14h0c.29.37.48.8.78,1.15h0c.11.14.25.26.37.39h0c.29.37.49.79.77,1.17h0a1.59,1.59,0,0,1,.37.45,1,1,0,0,0,0,.33l.35.39h0c.25.19.16.56.41.75h0c.11.15.25.27.36.42v0c.25.2.18.57.4.78h0c.24.2.17.57.41.77h0c.23.21.15.57.4.76h0c.2.22.13.57.37.76h0a3.83,3.83,0,0,1,.36.44,1.27,1.27,0,0,0,0,.34l.35.41,0,0c.26.21.19.58.4.81a1.34,1.34,0,0,0,0,.35c.2.22.12.57.35.77h0a2,2,0,0,1,.37.45.7.7,0,0,0,0,.32c.24.22.16.58.37.81a1,1,0,0,0,0,.35c.22.22.14.57.37.78h0c.36.31,0,.85.4,1.16h0c.24.22.18.58.38.82a.92.92,0,0,0,0,.33c.35.34.05.87.37,1.21a1.3,1.3,0,0,0,0,.34c.34.34,0,.86.37,1.2a1,1,0,0,0,0,.35c.41.45,0,1.11.37,1.56h0c.47.58-.06,1.37.38,2l0,.73c.43.6-.07,1.37.36,2l0,.72c.52,1.26-.15,2.64.37,3.9v4.58c-.51,1.39.14,2.88-.37,4.27a1.51,1.51,0,0,0,0,.37c-.47.72.08,1.6-.36,2.33l0,.76c-.46.59.06,1.36-.38,2a1,1,0,0,0,0,.35c-.4.46,0,1.12-.37,1.58a.83.83,0,0,0,0,.35c-.41.46,0,1.13-.4,1.58h0c-.34.32,0,.84-.37,1.17a1,1,0,0,0,0,.35c-.21.23-.14.58-.36.81a1.45,1.45,0,0,0,0,.36c-.34.33,0,.86-.37,1.19a.93.93,0,0,0,0,.33c-.2.24-.14.6-.37.82h0c-.36.31,0,.84-.37,1.16a1,1,0,0,0,0,.34c-.2.24-.14.6-.38.82h0c-.35.32,0,.86-.39,1.17h0c-.23.21-.15.57-.37.78a1,1,0,0,0,0,.34c-.2.24-.13.6-.39.82h0c-.22.22-.14.57-.37.79a.73.73,0,0,0,0,.33c-.2.24-.14.6-.39.82v0c-.21.23-.15.58-.38.8h0c-.23.21-.16.57-.39.78h0c-.24.21-.15.57-.38.78a1,1,0,0,0,0,.34c-.2.24-.13.6-.39.81h0c-.11.14-.23.27-.35.4a.75.75,0,0,0,0,.33,2,2,0,0,1-.36.45.93.93,0,0,0,0,.33c-.19.24-.13.61-.39.82h0c-.11.15-.25.27-.37.41h0c-.25.19-.17.55-.39.76h0c-.24.19-.17.56-.4.76h0c-.22.21-.15.58-.4.78h0l-.35.39a1.39,1.39,0,0,0,0,.35c-.11.16-.24.29-.36.44h0c-.25.19-.17.55-.4.76h0c-.23.21-.16.58-.41.77h0l-.36.4a.71.71,0,0,0,0,.32,1.82,1.82,0,0,1-.37.45h0c-.23.21-.16.58-.41.77h0a4.86,4.86,0,0,1-.38.41h0c-.24.2-.16.57-.41.76h0c-.12.15-.25.27-.38.41s-.16.56-.41.76h0c-.12.14-.26.26-.37.41h0c-.25.19-.16.56-.41.75h0c-.11.14-.25.27-.37.4h0c-.23.2-.15.58-.41.77v0a2.86,2.86,0,0,1-.37.41h0a3.33,3.33,0,0,0-.36.39v0c-.26.18-.18.56-.42.75h0c-.12.14-.25.26-.37.4h0a3.11,3.11,0,0,0-.35.37.72.72,0,0,0-.05.33,1.63,1.63,0,0,1-.39.44h0c-.11.14-.25.27-.37.4h0a4.27,4.27,0,0,0-.36.38v0c-.26.18-.17.56-.43.74h0a2.46,2.46,0,0,1-.39.4h0c-.12.14-.26.27-.38.41h0a4.59,4.59,0,0,0-.37.39h0a1.8,1.8,0,0,0-.36.37l0,0c-.27.17-.17.55-.43.73h0a2.52,2.52,0,0,1-.4.4h0a3.66,3.66,0,0,1-.39.4h0a4.89,4.89,0,0,1-.39.4h0l-.39.4h0l-.38.39h0c-.14.12-.26.25-.39.38h0a4.68,4.68,0,0,0-.38.39h0a3.3,3.3,0,0,0-.37.38l0,0a2.59,2.59,0,0,0-.37.37v0a2.16,2.16,0,0,0-.37.37h0a4.44,4.44,0,0,0-.38.37h0a3.32,3.32,0,0,0-.37.38h0a2.73,2.73,0,0,0-.38.38h0a3.41,3.41,0,0,0-.39.37h0l-.39.39h0l-.39.39h0a3,3,0,0,1-.4.39h0a2.52,2.52,0,0,1-.4.4l0,0a1.63,1.63,0,0,1-.44.39,1,1,0,0,0-.34.08,1,1,0,0,0-.33.33l0,0a1.85,1.85,0,0,0-.38.36h0a4.4,4.4,0,0,0-.38.37h0c-.13.13-.26.26-.4.38h0a2.46,2.46,0,0,1-.4.39h0a2.52,2.52,0,0,1-.4.4v0c-.18.26-.56.17-.74.42h0l-.4.37h0a4.83,4.83,0,0,1-.4.38h0a1.84,1.84,0,0,1-.44.39,1,1,0,0,0-.34.06,1.88,1.88,0,0,0-.35.34l0,0c-.13.11-.26.24-.39.37h0a4.75,4.75,0,0,1-.4.38h0c-.18.25-.56.16-.74.42h0a4.49,4.49,0,0,0-.39.36h0a3.08,3.08,0,0,1-.43.38,1.17,1.17,0,0,0-.36.08,1.19,1.19,0,0,0-.35.32l0,0-.4.36h0a2.67,2.67,0,0,1-.44.38,1,1,0,0,0-.34.06,2,2,0,0,0-.37.34h0c-.14.11-.27.25-.41.37h0c-.2.24-.56.16-.76.4h0l-.4.38h0a1.65,1.65,0,0,1-.45.38.86.86,0,0,0-.32,0c-.13.11-.27.23-.39.35h0a2.93,2.93,0,0,1-.41.38h0c-.19.25-.56.18-.76.41h0a3.69,3.69,0,0,1-.41.38v0c-.19.26-.56.18-.75.42h0c-.14.12-.26.26-.41.37v0c-.18.26-.56.18-.75.42h0a4.89,4.89,0,0,1-.41.37h0c-.19.25-.57.17-.77.41h0a2.54,2.54,0,0,1-.43.37,1.36,1.36,0,0,0-.35.07,2.35,2.35,0,0,0-.37.33h0l-.43.37a1,1,0,0,0-.36.06,3,3,0,0,0-.38.33h0a3.59,3.59,0,0,1-.4.38h0c-.19.25-.56.17-.76.41h0c-.14.12-.26.26-.41.37h0c-.19.25-.56.17-.76.41h0a2.54,2.54,0,0,1-.44.37,1.07,1.07,0,0,0-.35.06,3,3,0,0,0-.37.34h0a2.54,2.54,0,0,1-.44.37,1.27,1.27,0,0,0-.34.05,4.4,4.4,0,0,0-.39.35h0a2.67,2.67,0,0,1-.44.38,1,1,0,0,0-.34.05,3.25,3.25,0,0,0-.39.35h0a3.69,3.69,0,0,1-.41.38h0c-.19.25-.56.18-.77.41h0c-.2.23-.57.15-.75.41h0c-.14.12-.27.23-.4.36h0c-.19.24-.57.15-.75.41h0l-.39.36h0c-.19.23-.56.14-.74.4l0,0-.41.35h0c-.19.24-.56.16-.75.41v0c-.15.1-.27.24-.41.35h0c-.36.31-.79.5-1.16.79h0c-.19.24-.56.15-.74.41l0,0a4.55,4.55,0,0,0-.4.35h0a2.46,2.46,0,0,1-.4.39v0c-.19.26-.56.19-.77.41h0a2,2,0,0,1-.45.38.72.72,0,0,0-.33.05,4.4,4.4,0,0,0-.39.35h0a2.22,2.22,0,0,1-.44.37,1,1,0,0,0-.34.06,3.07,3.07,0,0,0-.38.34h0a4.75,4.75,0,0,1-.4.38h0c-.2.25-.57.17-.76.41h0c-.14.12-.26.26-.4.37h0a1.53,1.53,0,0,1-.45.39.7.7,0,0,0-.32.05,4.4,4.4,0,0,0-.39.35h0a3.59,3.59,0,0,1-.4.38v0c-.19.26-.56.18-.76.42h0c-.14.13-.26.26-.41.38v0a1.41,1.41,0,0,1-.45.39.72.72,0,0,0-.32.05,4.27,4.27,0,0,0-.38.36h0a4.89,4.89,0,0,1-.41.37h0a1.53,1.53,0,0,1-.45.39.85.85,0,0,0-.32,0l-.39.36h0a2.89,2.89,0,0,1-.4.38h0a1.49,1.49,0,0,1-.44.39.92.92,0,0,0-.33.06,2.5,2.5,0,0,0-.38.35h0c-.13.12-.26.26-.4.37h0a1.63,1.63,0,0,1-.44.39,1,1,0,0,0-.34.06,2.38,2.38,0,0,0-.36.35h0a4.68,4.68,0,0,0-.39.38h0c-.13.13-.26.26-.4.38h0a2.17,2.17,0,0,1-.41.39v0c-.18.26-.55.17-.74.43h0a3.41,3.41,0,0,0-.39.37h0c-.14.12-.26.26-.4.38h0a3,3,0,0,1-.41.39h0a1.8,1.8,0,0,1-.39.39h0c-.18.25-.56.16-.73.42l0,0a2.6,2.6,0,0,0-.38.36h0c-.14.11-.26.25-.39.37h0l-.39.39h0a3,3,0,0,1-.4.39h0a3,3,0,0,1-.39.4h0a2.46,2.46,0,0,1-.4.39h0a2.11,2.11,0,0,1-.4.39h0a6.79,6.79,0,0,0-.83.78.78.78,0,0,0-.33.07,1.33,1.33,0,0,0-.33.34l0,0a1.17,1.17,0,0,0-.35.35l0,0c-.28.16-.18.55-.44.72l0,0c-.17.26-.56.16-.72.44l0,0c-.27.16-.18.55-.44.72l0,0c-.17.26-.54.16-.71.42a1.14,1.14,0,0,0-.07.32,5.05,5.05,0,0,0-.77.83h0a3,3,0,0,1-.39.4h0a3.68,3.68,0,0,1-.4.39h0a3,3,0,0,1-.39.4h0c-.12.14-.26.27-.38.41h0a3.3,3.3,0,0,0-.37.38l0,0a1.71,1.71,0,0,0-.35.36.88.88,0,0,0-.06.33,1.49,1.49,0,0,1-.39.44h0a2.11,2.11,0,0,1-.39.4h0l-.36.4.07.83-.2.1Z"/><path fill="#f3dda4" d="M246.63,379.8a50.82,50.82,0,0,1-1.28-16.21,73,73,0,0,1,4.34-19.86c.22-.59.34-1.23.51-1.85,3.42-.45,6.89-.66,10.27-1.43a5,5,0,0,1,.95-.05.86.86,0,0,1-.07,1.07v0c-.21.22-.14.59-.4.79l0,0c-.12.14-.24.27-.35.41a.82.82,0,0,0,0,.35c-.21.23-.14.6-.39.81v0c-.21.23-.15.58-.38.79h0a7.15,7.15,0,0,1-.75,1.55.85.85,0,0,0,0,.32,2.58,2.58,0,0,1-.35.45.78.78,0,0,0,0,.34c-.2.24-.14.6-.37.82h0c-.23.21-.16.56-.38.77h0c-.24.19-.16.54-.36.75a1.61,1.61,0,0,0,0,.37c-.22.23-.15.59-.38.8h0c-.35.31,0,.85-.4,1.16h0c-.22.22-.15.57-.38.79h0c-.36.31,0,.86-.41,1.16v0c-.21.23-.15.58-.37.8h0c-.36.3,0,.85-.41,1.15h0c-.21.22-.14.57-.36.79a1,1,0,0,0,0,.34c-.2.24-.14.6-.38.82h0c-.36.32,0,.85-.39,1.17h0c-.23.21-.15.56-.36.77a1.1,1.1,0,0,0,0,.36c-.22.23-.14.57-.35.8a1.55,1.55,0,0,0,0,.37c-.22.22-.14.58-.36.8a1,1,0,0,0,0,.35c-.33.33,0,.87-.38,1.19h0c-.22.21-.15.56-.36.78a1.1,1.1,0,0,0,0,.36c-.21.22-.14.57-.34.8a1.17,1.17,0,0,0,0,.37c-.35.32,0,.87-.4,1.18h0c-.34.31,0,.86-.4,1.17v0c-.21.22-.14.57-.35.79a1.1,1.1,0,0,0,0,.36c-.35.33,0,.87-.4,1.18h0c-.34.32,0,.86-.39,1.18h0c-.35.31,0,.85-.4,1.16h0c-.22.22-.15.56-.36.78a1.1,1.1,0,0,0,0,.36c-.34.33,0,.88-.4,1.19v0c-.21.23-.14.58-.36.79a.93.93,0,0,0,0,.33,2.46,2.46,0,0,1-.34.44,1.11,1.11,0,0,0,0,.36c-.22.23-.14.58-.35.8a.84.84,0,0,0,0,.35c-.21.24-.14.6-.38.82h0C246.79,379.16,247,379.63,246.63,379.8Z"/><path fill="#f3dba7" d="M286.5,86.27c-1.9-.91-3.76-1.91-5.7-2.7s-4-1.38-5.95-2.06c-.84-1.61-2.42-2.46-3.82-3.41a39.54,39.54,0,0,0-6.73-3.76,2.83,2.83,0,0,1-1-.53c-3.39-3.58-8.19-4.33-12.41-6.24-1.05-.48-2.52-.5-2.66-2.14a2.35,2.35,0,0,1,.12-.83,2.07,2.07,0,0,1,.68-.87,99.31,99.31,0,0,1,10.3,3.94c.29.12.61.19.91.28h0c.3.37.85,0,1.15.41h0l.4.34a1.12,1.12,0,0,0,.36,0c.23.21.59.14.81.38h0c.21.23.57.16.78.39h0c.21.23.57.16.77.4h0c.22.22.57.16.79.38h0c.2.24.57.16.77.39h0c.22.23.57.16.78.39h0c.21.22.57.15.77.4h0l.39.33a1.18,1.18,0,0,0,.37,0c.22.23.59.15.79.41v0c.15.11.27.25.41.36h0c.19.25.56.17.76.4h0c.2.23.57.15.77.4h0l.39.36a1.24,1.24,0,0,0,.33,0,1.59,1.59,0,0,1,.45.37h0a3.15,3.15,0,0,0,.38.35.83.83,0,0,0,.35,0,2.6,2.6,0,0,1,.43.38h0c.2.23.57.16.77.4h0c.14.11.26.25.4.37h0c.19.25.57.17.76.42l0,0a5,5,0,0,1,.41.38h0c.2.24.57.16.76.41h0a2.89,2.89,0,0,1,.4.38h0l.4.37h0c.19.25.56.17.75.42h0a3.59,3.59,0,0,1,.4.38h0c.12.13.26.25.39.37h0c.18.25.56.17.74.42h0a2.11,2.11,0,0,1,.4.39h0c.14.11.27.25.41.37h0a2.57,2.57,0,0,0,.39.35l0,0c.32.34.78.49,1.12.81v0a3,3,0,0,1,.4.4h0c.14.12.27.25.4.38h0a4.54,4.54,0,0,0,.38.38h0a2.65,2.65,0,0,0,.38.37h0a4.9,4.9,0,0,1,.76.75l0,0a1.3,1.3,0,0,0,.35.35l0,0a6.39,6.39,0,0,1,.73.74l.43.43C286.11,85.33,286.82,85.51,286.5,86.27Z"/><path fill="#e3af29" d="M332.44,139a.2.2,0,0,0,.07-.25c.13-.3.1-.67.38-.9l0,0c.19-.23.14-.59.39-.8v0c.21-.23.14-.59.4-.79v0c.21-.23.13-.61.43-.78l0,0a1.19,1.19,0,0,1,.36-.44h0c.12-.13.24-.26.35-.4l0,0a2.22,2.22,0,0,0,.38-.37h0c.15-.11.27-.25.42-.35h0c.18-.25.56-.16.74-.42h0c.23-.2.57-.14.78-.37h0c.26-.23.61-.22.9-.35a.21.21,0,0,0,.26-.07c.26-.2.61-.18.89-.32a.22.22,0,0,0,.27-.07c.25-.2.59-.16.85-.33a.34.34,0,0,0,.32-.08,1.09,1.09,0,0,1,.55-.29.15.15,0,0,0,.21-.07,1.23,1.23,0,0,1,.46-.32l0,0a11.33,11.33,0,0,0,1.18-1.22l0,0c.17-.25.12-.61.39-.81l0,0c.19-.23.14-.57.35-.8a.17.17,0,0,0,.06-.24c.13-.3.11-.67.37-.92v0c.2-.23.15-.57.37-.8h0c.23-.2.16-.56.38-.77h0c.24-.2.16-.58.43-.76l0,0c.09-.16.24-.28.33-.44l0,0c.28-.15.17-.57.47-.71l0,0a1.1,1.1,0,0,1,.39-.44l0,0c.11-.15.25-.27.37-.42h0a1.85,1.85,0,0,0,.35-.39l0,0c.38-.28.46-.82.89-1.06l-.05,0a.64.64,0,0,1,.42-.44l0,0a.65.65,0,0,1,.42-.42l0,0a.67.67,0,0,1,.42-.42l0,0a.67.67,0,0,1,.43-.42l0,0c.27-.42.76-.57,1.14-.85h0a.49.49,0,0,1,.76,0h0c.41.29.78.59.41,1.15v0c-.26.17-.16.59-.49.72l.05,0a.62.62,0,0,1-.43.43l0,0a.61.61,0,0,1-.43.42l0,0a.56.56,0,0,1-.42.42l0,0a.56.56,0,0,1-.42.42l0,0a.64.64,0,0,1-.42.44l0,0a.73.73,0,0,1-.41.43l0,0a.88.88,0,0,1-.4.43l0,0a1.21,1.21,0,0,1-.39.42h0c-.11.15-.25.27-.37.41h0c-.33.34-.47.81-.83,1.13l0,0c-.1.15-.21.29-.32.43a.16.16,0,0,0-.09.21,1,1,0,0,1-.33.57h0c-.24.19-.16.54-.36.75a.2.2,0,0,0-.08.25c-.12.3-.1.67-.36.91v0c-.2.23-.15.56-.33.79a.24.24,0,0,0-.08.28c-.15.28-.1.66-.4.88l0,0c-.19.24-.11.63-.44.78l0,0a.77.77,0,0,1-.39.44l0,0a1.15,1.15,0,0,1-.41.41l0,0a.9.9,0,0,1-.44.4l0,0c-.16.31-.55.23-.76.45h0c-.21.25-.57.18-.79.39h0c-.24.25-.6.21-.88.36h-.15l-.14.08c-.24.19-.58.14-.83.32h-.17l-.16.08c-.25.17-.58.13-.83.31h-.17l-.16.08c-.22.17-.56.1-.76.33h0c-.2.22-.56.14-.75.4h0c-.15.1-.27.25-.43.35l0,0a1.9,1.9,0,0,1-.39.41h0a3.89,3.89,0,0,0-.32.39.18.18,0,0,0-.1.23,1,1,0,0,1-.34.56h0c-.24.2-.17.55-.37.77h0c-.4.28,0,.87-.46,1.12l0,0c-.16.25-.12.6-.37.82v0c-.21.22-.14.57-.35.79a.16.16,0,0,0-.07.22,1.09,1.09,0,0,1-.29.55.2.2,0,0,0-.09.24,1.27,1.27,0,0,1-.32.55v0c-.27.17-.17.56-.43.74l0,0c-.1.16-.25.27-.34.43l0,0c-.27.15-.16.58-.5.69l.05,0a.56.56,0,0,1-.43.42l0-.05c-.1.34-.53.23-.68.51l0,0a4.35,4.35,0,0,0-.42.33h0a.93.93,0,0,1-.54.37.21.21,0,0,0-.24.11,3.08,3.08,0,0,0-.41.3l0,0c-.19.27-.56.2-.79.4h0a1.25,1.25,0,0,1-1.52,0l0,0a.75.75,0,0,1,0-1.13l0,0a.77.77,0,0,1,.51-.39.24.24,0,0,0,.26-.1c.14-.11.28-.2.43-.3l0,0c.16-.31.55-.22.77-.44h0a1,1,0,0,1,.46-.36l0,0c.12-.32.54-.21.69-.49l0,0a1.42,1.42,0,0,0,.38-.35v0a1,1,0,0,0,.34-.38l0,0c.3-.14.19-.55.47-.7l0,0c.18-.24.11-.62.43-.79l0,0c.09-.15.19-.3.29-.44a.25.25,0,0,0,.1-.28c.15-.29.11-.65.37-.88h0C332.3,139.61,332.23,139.27,332.44,139Z"/><path fill="#e3af2a" d="M328.19,83.8a.16.16,0,0,0,.07-.22,1.05,1.05,0,0,1,.32-.57h0c.26-.19.17-.55.4-.75h0c.23-.2.15-.58.42-.77l0,0,.31-.41a.17.17,0,0,0,.1-.22.74.74,0,0,1,.39-.55l0,0a2.16,2.16,0,0,1,.37-.43h0a2.23,2.23,0,0,0,.35-.4l0,0a1,1,0,0,0,.36-.36l0,0a1.88,1.88,0,0,0,.39-.35h0a2.49,2.49,0,0,1,.43-.36l0,0c.18-.28.56-.2.77-.43h0c.22-.24.57-.19.81-.38l0,0c.25-.28.61-.26.92-.38a.16.16,0,0,0,.23-.07c.2-.21.57-.1.72-.38l0,0a2.23,2.23,0,0,0,.4-.35h0a3.44,3.44,0,0,0,.35-.41l0,0c.27-.16.18-.54.41-.72h0c.22-.22.15-.59.4-.78h0c.21-.22.14-.59.42-.78l0,0c.09-.17.24-.28.33-.44l0,0c.28-.15.18-.56.46-.71l0,0a1.31,1.31,0,0,1,.38-.43h0c.11-.14.25-.27.37-.41h0a2.22,2.22,0,0,0,.37-.38l0,0a1.58,1.58,0,0,0,.36-.37l0,0a1.58,1.58,0,0,0,.37-.36l0,0a1.54,1.54,0,0,0,.36-.36l0,0a1.16,1.16,0,0,0,.36-.37l0,0c.28-.16.17-.59.51-.69l-.06,0c.18-.37.58-.3.87-.44h.1c1,.42.87,1.1.46,1.87l0,0a1,1,0,0,1-.39.44l0,0a1.42,1.42,0,0,1-.4.41l0,0a1.46,1.46,0,0,1-.41.41l0,0a1.46,1.46,0,0,1-.41.41l0,0a1.52,1.52,0,0,1-.4.4l0,0a1.73,1.73,0,0,1-.4.41h0a4.86,4.86,0,0,1-.38.41h0a2.71,2.71,0,0,0-.35.41l0,0c-.28.16-.18.56-.45.71l0,0c-.2.23-.12.62-.44.78l0,0a1.39,1.39,0,0,1-.31.45.17.17,0,0,0-.08.23,1.08,1.08,0,0,1-.33.55h0c-.25.19-.16.58-.44.75l0,0a2.16,2.16,0,0,1-.37.43h0l-.38.39h0a2.16,2.16,0,0,1-.43.37l0,0c-.18.27-.56.19-.76.43h0c-.22.22-.57.16-.8.37l0,0c-.25.27-.61.24-.9.37h-.15l-.11.09a1.11,1.11,0,0,1-.55.3.19.19,0,0,0-.23.1c-.14.1-.27.21-.4.32l0,0a1.37,1.37,0,0,1-.43.4l0,0a1.24,1.24,0,0,1-.4.42l0,0c-.1.16-.25.28-.36.43h0c-.25.19-.15.59-.46.74l0,0a1.4,1.4,0,0,1-.35.45h0c-.24.2-.16.58-.43.76l0,0c-.2.23-.13.6-.42.79l0,0c-.18.24-.12.62-.41.8l0,0c-.18.25-.11.62-.42.8l0,0c-.07.19-.23.3-.33.46h0c-.27.17-.17.58-.47.72l0,0a1,1,0,0,1-.41.43l0,0a.88.88,0,0,1-.43.4l0,0c-.14.31-.54.22-.73.46h0a1,1,0,0,1-.56.33h-.12l-.1.08c-.22.2-.56.13-.78.35h0c-.3.36-.85,0-1.14.4h0a1.5,1.5,0,0,1-.46.33l.05,0c-.53.36-1,.55-1.49-.11a.13.13,0,0,0,0-.2.49.49,0,0,1,0-.76l0,0a3.7,3.7,0,0,1,.37-.42h0a1.23,1.23,0,0,1,.52-.35.26.26,0,0,0,.27-.08c.24-.18.57-.13.8-.33a.39.39,0,0,0,.36-.08,1.3,1.3,0,0,1,.52-.27.22.22,0,0,0,.25-.08,1,1,0,0,1,.53-.31.21.21,0,0,0,.24-.11,2.37,2.37,0,0,0,.39-.32h0c.12-.14.26-.27.39-.4h0c.23-.2.14-.61.46-.75l0,0c0-.2.22-.31.32-.46v0C328.08,84.36,328,84,328.19,83.8Z"/><path fill="#060505" d="M332.86,135.56l-.1.07,0,.11c-.1.33-.08.71-.4.94l0,0c-.34.52-.56,1.27-1.45.77h0a.75.75,0,0,1-.41-.39l0,0a.7.7,0,0,1,0-1.1l0,0c.15-.27.11-.6.35-.83h0c.35-.3,0-.89.45-1.14l0,0c.14-.27.1-.61.35-.83h0c.2-.22.14-.58.38-.78h0c.22-.2.12-.6.45-.74l0,0a.75.75,0,0,1,.36-.44h0a1.07,1.07,0,0,1,.4-.39h0a.6.6,0,0,1,.45-.34l0,0c.16-.38.56-.3.84-.44.12.07.2,0,.25-.08.23-.2.56-.14.8-.32h0c.29-.4.83-.07,1.14-.39h0c.31-.38.84-.07,1.16-.37h0c.27-.41.82-.05,1.1-.42l0,0c.14-.12.24-.29.45-.3h0a.46.46,0,0,1,.42-.39l0,0a.6.6,0,0,1,.34-.46h0c.2-.22.12-.6.42-.77v0c.17-.25.09-.62.42-.79l0,0c.15-.26.06-.64.43-.78l0,0c0-.23.17-.35.35-.46l0,0c1.82-.6,1.31.56,1.12,1.48h0c-.22.21-.14.57-.4.76h0c-.2.23-.13.59-.38.79h0c-.21.22-.12.6-.43.76v0a2.77,2.77,0,0,1-1.55,1.53h0c-.15.32-.51.24-.76.39h0c-.27.45-.82.1-1.13.42h0c-.29.39-.83.07-1.15.39h0c-.29.39-.82.06-1.13.39h0c-.21.25-.54.2-.79.33h0a5.79,5.79,0,0,0-1.93,2.74v0C333,135,333.08,135.33,332.86,135.56Z"/><path fill="#060606" d="M288.06,415.82l.06-.09-.06-.08c-.54-.86.08-1.88-.38-2.76l0,0c-.57-.71.05-1.62-.41-2.34v0c-.45-.45,0-1.11-.38-1.58l0,0c-.42-.31-.13-.85-.38-1.21l0,0c-.47-.26-.12-.83-.44-1.15v0a1.5,1.5,0,0,1,.09-1.83l0,0c.32-.49.66-.4,1,0l0,0c.33.13.23.53.46.73h0c.24.24.22.57.32.85l0,0c.51.25.15.83.44,1.16v0c.42.31.13.85.38,1.21l0,0c.62.53,0,1.36.46,1.92h0c.47.6,0,1.37.36,2v0c.6.85,0,1.88.4,2.74l0,0c.64,1.41-.09,2.94.41,4.36a.66.66,0,0,0,.05.65c.39.85.14,1.53-.74,1.72-1.2.27-.87-.89-1.16-1.46l.06-.14-.1-.12C287.91,418.83,288.53,417.28,288.06,415.82Z"/><path fill="#070606" d="M335.75,80.74l.11.05.08-.08c.23-.24.56-.2.84-.31.11-.34.52-.23.71-.45v0a1.76,1.76,0,0,1,.4-.37h0a1.6,1.6,0,0,1,.38-.4h0a7.53,7.53,0,0,1,.8-1.14v0c.18-.24.12-.6.39-.8v0c.19-.22.09-.62.46-.73l0,0c.66-.61,1.09-.34,1.41.36l0,0c.33.23.35.46,0,.67l0,0c-.09.29-.06.63-.35.84v0c-.18.24-.1.61-.4.78v0a2.77,2.77,0,0,1-.82,1.15l0,0a.58.58,0,0,1-.37.43v0a.75.75,0,0,1-.39.41h0a.62.62,0,0,1-.42.37h0a2.11,2.11,0,0,1-1.17.74l0,.09-.05-.09c-.24.52-.79.16-1.13.4h0c-.67.37-1.49.47-2,1.17v0c0,.23-.16.34-.3.47h0c-.22.21-.14.58-.41.76v0c-.19.24-.12.6-.41.78v0c-.17.24-.09.62-.42.78l0,0A2.77,2.77,0,0,1,332,87.6l0,0a.7.7,0,0,1-.38.43v0c-.09.18-.21.34-.44.33l.1.06-.1-.06c-.32.46-.66.4-1,0l0,0a.44.44,0,0,1-.38-.43l0,0c-.38-.2-.35-.42,0-.66l0,0A6.17,6.17,0,0,1,331,85.75h0c.19-.23.1-.62.45-.75l0,0c.12-.27,0-.65.42-.78v0a2.81,2.81,0,0,1,.7-1.23h0c.22-.2.1-.63.49-.7v0c0-.26.13-.37.35-.45l0,0a.51.51,0,0,1,.41-.39l0,0c.13-.34.52-.24.73-.44h0C334.8,80.76,335.33,81,335.75,80.74Z"/><path fill="#090909" d="M295.75,414.49a1.6,1.6,0,0,0,0-1.16c-.46-1.28.12-2.64-.32-3.92v0c-.28-.24-.31-.48,0-.7l0,.05a.74.74,0,0,1,.35-.46h0c.38-.25.75-.4,1.06.09l0,0c.53.23.14.83.46,1.14v0a39.68,39.68,0,0,1,0,10l0,0c-.32.71-.76,1-1.41.36l0,0A12.38,12.38,0,0,1,295.75,414.49Z"/><path fill="#e7ba48" d="M267.6,59.81a1.09,1.09,0,0,1,1.49-.73h0a1,1,0,0,1-.4,1.53l-.58,0c-.41-.09-.32-.53-.53-.76Z"/><path fill="#fefefe" d="M268.69 60.6a1.3 1.3 0 00.4-1.53C269.69 60.05 269.66 60.17 268.69 60.6zM267.58 59.81l.53.76C267.67 60.5 267.57 60.19 267.58 59.81z"/><path fill="#f3dda4" d="M248.6,65.19c0,.61.11,1.08.85,1.3a32.39,32.39,0,0,1,3.24,1.2c2.95,1.23,5.88,2.49,8.84,3.72.43.18.87.33,1,.83.16.93.9,1.23,1.61,1.49a43,43,0,0,1,6.59,3.54,22.34,22.34,0,0,1,4.51,3.55c.47.47.1.62-.34.69l-.19,0-.16-.1c-.47-.38-1.1,0-1.58-.34a57.34,57.34,0,0,0-8.08-.43l-1.73,0a3.93,3.93,0,0,0-4,2.94A27.85,27.85,0,0,0,258,88.33c-.06.51-.05,1-.59,1.32-3,1.94-4.93,4.85-6.6,7.91-.93,1.69-1.71,3.46-2.54,5.2a9.93,9.93,0,0,1-4.1,4.48c-3.63,2.08-4.1,4.2-1.81,7.75.14.22.27.44.4.66-2.26,1.91-2.32,2.22-1,5-.11.34-.44.44-.69.63-1.58,1.14-1.73,1.88-.54,3.49a3.47,3.47,0,0,1,.57,2.17c.06,3.38,1.28,5.06,4.5,6.14a17.2,17.2,0,0,0,4.15.85c.7.05,1.41.11,2.11.22,1.74.29,1.72.3,1.8,2a35.21,35.21,0,0,1-.45,6.73,14.47,14.47,0,0,1-4.3,8.23c-3.28,3.28-3.25,3.29-7.84,3.31-9.46,0-18.92.17-28.36.84-2.82.2-5.63.58-8.43,1A3.62,3.62,0,0,1,200.5,155c-2.15-2.46-4.71-4.56-7.08-6.83-6.38-6.09-12.34-12.6-18.55-18.85-4.35-4.39-8.7-8.77-13.1-13.11a11.23,11.23,0,0,1-3.27-5.35,11,11,0,0,0-1.14-3.06c-1-1.63-.67-3.34-.65-5.05,0-.66.35-.9,1-.79a28.65,28.65,0,0,0,4,.4,11.11,11.11,0,0,0,5-1.24,4.79,4.79,0,0,0,2.89-3.83,5.68,5.68,0,0,1,1.49-3.47,2,2,0,0,0,.33-2.18,1.41,1.41,0,0,1,.78-2c1.14-.56,1.23-1.68,1-2.85-.24-1.56-.22-1.56,1.21-2.24.64-.3,1.3-.57,1.91-.92,2.28-1.31,3.22-3.55,2.07-5.91-2.07-4.24-.59-8.31.21-12.44a1.12,1.12,0,0,1,.75-.81A25,25,0,0,0,189.5,56a44.44,44.44,0,0,1,7.46-.7,64.47,64.47,0,0,1,8.68,0c4,.28,7.93.46,11.88,1,4.13.55,8.25,1.15,12.31,2a69,69,0,0,1,11.46,3.09c-.51,2.84-1,5.67-1.44,8.52a1.56,1.56,0,0,1-1.28,1.49c-.53.1-1,.32-1,1a.87.87,0,0,0,.74.79,1.19,1.19,0,0,0,1.3-.63,5.26,5.26,0,0,0,.73-2.38c.2-1.85.58-3.68.85-5.53s.84-2.2,2.6-2c3.65.45,3.9-.31,3.37,4.11-.18,1.53.07,3.29-1.89,4.07-.54.21-.61.82-.22,1.31a1,1,0,0,0,1.52.13,2.23,2.23,0,0,0,.69-1.55c.14-1.28.42-2.54.47-3.83C247.79,66.24,247.6,65.39,248.6,65.19Z"/><path fill="#e3af2a" d="M86.84 60.23a1.58 1.58 0 011.23.82c.56.79 1.11 1.58 1.59 2.41a15 15 0 004.47 5 9.46 9.46 0 014 5.71 4.65 4.65 0 003.06 3.42 19 19 0 014 2.25 11.51 11.51 0 013.67 4.86c.21.45.34.87-.19 1.15s-.85-.07-1.13-.44a2.76 2.76 0 01-.38-.67 10.36 10.36 0 00-5.32-5.07c-.58-.29-1.17-.54-1.76-.78A5.34 5.34 0 0196.66 75 8.84 8.84 0 0092.9 69.6a15.8 15.8 0 01-4.6-5.12c-.62-1-1.38-2-2-3C85.86 60.82 86.18 60.21 86.84 60.23zM248.6 65.19c-.63 1.71-.35 3.54-.69 5.29a5 5 0 01-.7 2.16 1.44 1.44 0 01-1.68.64 1.92 1.92 0 01-1.44-1.65 1.35 1.35 0 011.17-1.54c1-.06 1-.52 1.15-1.27.34-1.52.13-3.08.57-4.58.18-.59-.2-1-.85-1a15.83 15.83 0 01-3.07-.24c-.93-.19-1.22.5-1.33 1.26-.28 2-.58 3.93-.81 5.9a7.22 7.22 0 01-.79 2.75 1.69 1.69 0 01-2.87.41 1.44 1.44 0 01-.38-1.59c.26-.58.72-1.08 1.3-.94 1.12.28 1.09-.34 1.2-1.11.31-2.15.73-4.29 1-6.44a3.77 3.77 0 01.88-1.88l5 .11c2 0 2.11.17 2.39 2.17a.66.66 0 010 .8zM237.92 20.81a13.74 13.74 0 01-1.58 6.68c-.54 1.15-1.42 2.17-1.35 3.56a.61.61 0 01-.61.62.72.72 0 01-.83-.62 2.72 2.72 0 01.22-1.88c.46-1 .92-2 1.39-3a11.41 11.41 0 00.94-7.52 10.48 10.48 0 012-9.26 13.72 13.72 0 002.7-7.5 2.15 2.15 0 01.59-1.58.93.93 0 011-.28.71.71 0 01.36 1A21.66 21.66 0 00242 5.19a10.73 10.73 0 01-1.62 3.89c-.53.81-1.07 1.6-1.6 2.41a7.58 7.58 0 00-1.18 6.06A16.3 16.3 0 01237.92 20.81zM169.43 6a.81.81 0 01.75.63c.23.74.5 1.47.66 2.22a8.93 8.93 0 005.45 7 7.55 7.55 0 014.76 5.43 3.78 3.78 0 002.07 2.42 12.49 12.49 0 013.4 2.82 6.52 6.52 0 01.76 1.1.73.73 0 01-.27 1 .67.67 0 01-.88-.08 7.28 7.28 0 01-.66-.7 11.64 11.64 0 00-3.39-2.82 5.07 5.07 0 01-2.67-3.37 5.89 5.89 0 00-3.3-4c-.51-.26-1-.57-1.52-.83a9.11 9.11 0 01-4.71-5.6c-.43-1.34-.76-2.72-1.1-4.09C168.63 6.43 168.87 6 169.43 6zM28.63 54.14a2.71 2.71 0 01.11-.51.65.65 0 01.73-.49.59.59 0 01.52.5c.11.63.2 1.27.31 1.9A4.47 4.47 0 0032.83 59c.63.32 1.26.63 1.89 1a5.64 5.64 0 013 3.58 3.5 3.5 0 002.48 2.67 10.69 10.69 0 014 2.91c.39.39.71.85.27 1.33s-1 .23-1.36-.14A16.07 16.07 0 0038 67 2.63 2.63 0 0136.51 65a6 6 0 00-3.91-4.4C30 59.48 28.69 57.41 28.63 54.14z"/><path fill="#050505" d="M245.12,7a5.86,5.86,0,0,1-.8,2.13,8.71,8.71,0,0,1-1.19,1.75,5.54,5.54,0,0,0-1.33,5,17.17,17.17,0,0,1,.27,4.8,11.93,11.93,0,0,1-.95,3.52c-.24.54-.58,1.1-1.3.78s-.5-.82-.29-1.32a12.81,12.81,0,0,0,.66-7.57,7,7,0,0,1,1.87-6.41,6.82,6.82,0,0,0,1.58-3,.79.79,0,0,1,.83-.66C244.92,6,245.12,6.34,245.12,7Z"/><path fill="#080707" d="M46,66.25c-.06.71-.72,1.09-1.13.68-1.15-1.15-2.69-1.44-4.06-2.11a3.61,3.61,0,0,1-2.24-2.93,5,5,0,0,0-1.79-3.3,5.48,5.48,0,0,1-.56-.52.71.71,0,0,1,0-1,.72.72,0,0,1,1,0,5.67,5.67,0,0,1,2.73,3.8,3.29,3.29,0,0,0,2.75,3,6,6,0,0,1,2.7,1.42C45.69,65.57,46,65.9,46,66.25Z"/><path fill="#070606" d="M97.22,67.13c.52,0,.8.35,1.08.69a8.92,8.92,0,0,1,1.85,3.57,4.12,4.12,0,0,0,3.28,3.37,5,5,0,0,1,2.2,1.15c.42.37.7.83.36,1.34s-.89.4-1.32,0A7,7,0,0,0,102.09,76,4.7,4.7,0,0,1,99,72.86a12.56,12.56,0,0,0-2.17-4.47C96.31,67.8,96.6,67.13,97.22,67.13Z"/><path fill="#e4b12f" d="M209.65,42.24a15,15,0,0,1-.83,4.39,2.66,2.66,0,0,1-1,1.58,1.14,1.14,0,0,1-1.69-.23c-.41-.54-.41-1.26.12-1.53,2-1,1.65-2.93,1.87-4.64.08-.65-.15-1.68.81-1.66,1.17,0,.65,1.11.76,1.79A2.29,2.29,0,0,1,209.65,42.24Z"/><path fill="#e4b12e" d="M254.65,43.24c-.22,1.39-.41,2.78-.66,4.17a3,3,0,0,1-.82,1.7,1.43,1.43,0,0,1-2-.16c-.47-.64-.33-1.72.44-1.91,1.09-.27,1.15-1,1.26-1.83a10.33,10.33,0,0,1,.36-2.27c.15-.44.35-.89.91-.76S254.72,42.75,254.65,43.24Z"/><path fill="#0b0a0a" d="M182.24,16.79c.64,0,.81.48.86.9a3.27,3.27,0,0,0,2.28,2.78,2.3,2.3,0,0,1,1.37,1.26.68.68,0,0,1-.78.95c-2.11-.36-4.45-3-4.37-5C181.62,17.27,181.65,16.8,182.24,16.79Z"/><path fill="#e7ba48" d="M232.19,53.58c-.08.43-.29.75-.74.7a.68.68,0,0,1-.65-.77.61.61,0,0,1,.73-.64A.64.64,0,0,1,232.19,53.58Z"/><path fill="#f3dda4" d="M248.65,64.47l0-.8a1,1,0,0,1,.33.06A.77.77,0,0,1,248.65,64.47Z"/><polygon fill="#f3dda4" points="189.69 55.5 189.68 55.35 189.84 55.3 189.84 55.46 189.69 55.5"/><path fill="#e3af29" d="M57.69,127.89c1.47,1.38,3.82,1.14,5.36,2.65a8.39,8.39,0,0,1,2,4.67c.11.57.2,1.13.27,1.7a4.93,4.93,0,0,0,3,4c2.8,1.37,5.1,3.44,7.53,5.32a3.6,3.6,0,0,1,.65.7.75.75,0,0,1,0,.9.66.66,0,0,1-1,.13c-1.19-.86-2.39-1.72-3.54-2.64a27.19,27.19,0,0,0-4.5-2.94,6.77,6.77,0,0,1-3.91-6,13,13,0,0,0-.49-2.64,3.89,3.89,0,0,0-2.61-2.86c-.79-.27-1.59-.51-2.37-.79a2.36,2.36,0,0,1-1.28-.81.82.82,0,0,1,0-.9A.9.9,0,0,1,57.69,127.89Z"/><path fill="#030202" d="M91,166.85a5,5,0,0,0,.75-2.55c0-.41.13-.79.58-.9a1.14,1.14,0,0,1,1,.42,1,1,0,0,1,.3.48c.39,2.23,2.12,3.07,4,3.83a7,7,0,0,1,1,.47c.82.54.84,1.41-.06,1.77a5.35,5.35,0,0,0-3,3.56c-.48,1.3-1.25,1.36-2,.23-.55-.79-1-1.66-2-2a4,4,0,0,1-2-.43c-2.06-1.11-2.07-1.41-.14-3.43A20.82,20.82,0,0,1,91,166.85Z"/><path fill="#e3ae29" d="M89.88,171.49a2.72,2.72,0,0,1,1.7.67,6.34,6.34,0,0,0-1.72,3.59c-.11.54-.33,1-.93,1.06a1,1,0,0,1-1.05-.71A5.18,5.18,0,0,0,83.55,173c-.63-.08-1.31-.26-1.43-1s.39-1,.87-1.37a7.27,7.27,0,0,0,3.41-5.73,1.52,1.52,0,0,1,.12-.56c.19-.47.25-1.08.84-1.2s.84.46,1.11.88A7.52,7.52,0,0,0,91,166.85a2.23,2.23,0,0,1-1.1,1.58,1.4,1.4,0,0,1-.7-.29l-.45-.37c-.59-.49-1.09-.2-1.09.4,0,1.33-2.49,1.85-1.2,3.45C87.52,172.94,88.78,172.58,89.88,171.49Z"/><path fill="#070503" d="M89.86,100.8a7.42,7.42,0,0,1,1.86-.44,3.69,3.69,0,0,1,3.82,3.72,3.76,3.76,0,0,1-4.16,3.59,12.88,12.88,0,0,1-1.49-.35c-.89-.14-1.29-.83-1.7-1.51a5.07,5.07,0,0,1-.29-2.93A3.18,3.18,0,0,1,89.86,100.8Z"/><path fill="#060504" d="M87.73,210.1c.55,0,.74.37.87.82a33.81,33.81,0,0,0,4.18,8.61c.79,1.24,1.72,2.39,2.59,3.58a2.72,2.72,0,0,1,.7,1.13.78.78,0,0,1-.2.71.63.63,0,0,1-.87,0,6.49,6.49,0,0,1-1-.92,40.53,40.53,0,0,1-6.68-11.82,3.1,3.1,0,0,1-.24-1.5A.7.7,0,0,1,87.73,210.1Z"/><path fill="#070604" d="M65.35,128.48a1.3,1.3,0,0,1,1.19.91,12.52,12.52,0,0,1,1.27,3.83,6.54,6.54,0,0,0,3.77,5.44,4.46,4.46,0,0,1,.66.4c.43.33.82.76.43,1.29s-.91.35-1.39.08c-2.37-1.33-4.37-2.93-4.81-5.88a13.73,13.73,0,0,0-1.56-4.93C64.59,129.07,64.75,128.64,65.35,128.48Z"/><path fill="#e1ad2a" d="M89.86,100.8a9.35,9.35,0,0,0-1.55,1.88,2.09,2.09,0,0,0,.24,3.16l1.34,1.48A3.19,3.19,0,0,1,85.66,105a3.55,3.55,0,0,1,2.67-4.22A9.78,9.78,0,0,1,89.86,100.8Z"/><path fill="#0a0806" d="M103.59,220.05c-.19.53-.59.71-1,.45a3.64,3.64,0,0,1-1-.9,38.77,38.77,0,0,1-3.34-5.15,2.26,2.26,0,0,1-.29-.7.71.71,0,0,1,.36-.81.66.66,0,0,1,.86.2c.27.35.51.73.75,1.11a44.43,44.43,0,0,0,3.11,4.62A2,2,0,0,1,103.59,220.05Z"/><path fill="#f3dda4" d="M307,133.63a53.34,53.34,0,0,1,2.71,7.77,21.54,21.54,0,0,0,1.34,3.81c.26.49.58.85,1.2.74s.84-.64,1-1.27c.14-.79-.48-1.46-.3-2.25.68,0,.91.52,1.1,1,.33.83.82,1.59,1.19,2.4,2.11,4.6,4.73,8.94,7.11,13.4a16.55,16.55,0,0,1,.94,2.11,1.14,1.14,0,0,0,1.32.86c.81-.1,1-.7,1-1.41a2.67,2.67,0,0,0-.6-1.78.54.54,0,0,1,.11-.83c.26-.16.5,0,.68.22.89.84,1.75,1.71,2.65,2.54,3.77,3.46,7.61,6.86,11.23,10.5a119.32,119.32,0,0,1,13.4,16,45.45,45.45,0,0,1,7.18,17.65,47.88,47.88,0,0,1,.86,12.81,67.77,67.77,0,0,1-3.69,18.33c-1.3,3.48-2.74,6.86-4.32,10.22a97.54,97.54,0,0,1-6.84,11.77,92.39,92.39,0,0,1-6.1,7.9,84.77,84.77,0,0,1-8.91,8.77,79.58,79.58,0,0,1-7.15,5.48c-3.46,2.44-7,4.8-10.49,7.15-3.73,2.49-7.51,4.9-11.24,7.39s-7.84,4.92-11.44,7.79c-3.2,2.55-6.5,5-9.54,7.75s-5.86,5.57-8.67,8.48a3.77,3.77,0,0,0-1.23,2.87c-1.67-3.33-2.71-6.92-4.17-10.34-2.36-5.55-4.73-11.11-7-16.71-1.88-4.71-3.53-9.51-5.37-14.24a158.85,158.85,0,0,0-10.56-21.62c-3.34-5.78-6.74-11.54-8.86-17.93-.47-1.4-.88-2.81-1.35-4.21a1.87,1.87,0,0,1,.21-1.83,10.41,10.41,0,0,0,4.24-7c.21-1.06.32-2.15.5-3.22a4.48,4.48,0,0,1,1.45-2.85,4.18,4.18,0,0,0,1.29-2.3c-.35-2.34,1.15-3.72,2.72-5,5.51-4.33,10.66-9.1,16.16-13.45a80.91,80.91,0,0,0,7.71-7c.55-.56,1-1.39,2.06-1.15a51.37,51.37,0,0,1,5.79,7.21,20.54,20.54,0,0,1,3.33,8.35,9.2,9.2,0,0,0,.7,2.6,2.92,2.92,0,0,0,3.77,1.76,6.79,6.79,0,0,0,1.44-.55c4.47-2.48,8-5.86,9.65-10.82a35.1,35.1,0,0,0,2.16-13.81,41.47,41.47,0,0,0-1.34-7,48.8,48.8,0,0,1-1.37-7.39,27,27,0,0,1,2.15-13c1.28-3.09,2.64-6.14,4-9.2,2.2-5.07,3.67-10.4,5.46-15.62.44-.47,0-1.14.36-1.64a.19.19,0,0,1,0-.29C306.72,133.44,306.84,133.44,307,133.63Z"/><path fill="#fffefd" d="M127.14,381.41q.26-15.74.5-31.48c.19-11.08-.24-22.14-.94-33.19-.45-7.13-.86-14.27-1.31-21.4-.39-6.1-1.07-12.18-1.72-18.25-.82-7.78-1.12-15.54.89-23.21a39.37,39.37,0,0,1,4.3-10.49,25.41,25.41,0,0,0,2-3.71c.52-1.32,1.46-1.6,2.67-1.77a38.92,38.92,0,0,1,13,.65c4.15.84,8.28,1.87,12.45,2.62,4.84.87,9.71,1.3,14.49-.44,1.1-.4,1.12.25,1.27,1a99.53,99.53,0,0,1,1.52,17.48c.12,7.54-.26,15.06-.63,22.59-.29,5.85-.43,11.7-.65,17.56-.35,9.52-.86,19-1.71,28.52-.62,6.92-1.21,13.85-2,20.75-1.32,11.57-3,23.09-5.16,34.54-1.49,7.9-2.73,15.84-4.13,23.76-2.47,13.93-4.8,27.88-8.51,41.56-1.18,4.35-1.8,8.82-2.67,13.23a27.33,27.33,0,0,1-2,6.23,6.21,6.21,0,0,1-5.09,3.89,25.36,25.36,0,0,1-10.29-1,4.1,4.1,0,0,1-2.53-2.5,19.21,19.21,0,0,1-1.62-5.74c-1-7.46-1.78-14.94-2.08-22.48s-.56-14.79-.82-22.19c-.29-8.06.18-16.09.34-24.14.09-4.11.28-8.23.43-12.35Z"/><path fill="#e3ae27" d="M162.06,193c-2.48,6.78-4,13.89-6.48,20.66-.6,1.62-1.1,3.27-1.65,4.9-.54.52-1.1.19-1.62,0-7.12-2.72-13-6.61-17.13-13.55-6.78-11.43-11.83-23.54-16.25-36a131.55,131.55,0,0,1-5.85-21.38c-1.26-7.18-.38-14,3.4-20.28,3.45-5.71,8.28-9.34,15.31-8.91,6.81.41,11.24,4.35,14.21,10.14a46,46,0,0,1,3.25,8.66,224,224,0,0,1,6.41,35.87c.56,5.05,1.63,10,2,15.11.08,1.32,1,2,2,2.71S161.59,191.89,162.06,193Z"/><path fill="#fffefd" d="M162.06,193a31.17,31.17,0,0,1-3.79-2.31,2.85,2.85,0,0,1-1.23-2.29c-.26-5.66-1.42-11.21-2.13-16.82-.57-4.53-1-9.08-1.73-13.58a145,145,0,0,0-6.12-25.66,23.84,23.84,0,0,0-3.51-6.84c-3.68-4.68-8.42-7.13-14.44-6.53a14.54,14.54,0,0,0-9.39,4.87,25.32,25.32,0,0,0-6.35,13.81c-.82,5.52.19,10.9,1.53,16.21a210.56,210.56,0,0,0,16.33,43.22c1.88,3.72,4.22,7.22,6.4,10.78a17.89,17.89,0,0,0,5.87,5.77,46.74,46.74,0,0,0,10.43,4.93c.26,2.4.78,3,3,3.59a16.59,16.59,0,0,1,4.22,1.25c1.09.62,2.24-.12,2.89-1,1-1.34,2.17-1.4,3.64-1.11,2.27.45,4.57.77,6.86,1,.83.1,1.08.43,1.05,1.22-.19,4-.38,8.1-.51,12.15,0,1.06-.77,1.44-1.49,1.81a14.65,14.65,0,0,1-6.91,1.48,53.14,53.14,0,0,1-11.82-1.67c-5.38-1.25-10.76-2.57-16.35-2.56a29.43,29.43,0,0,0-9.13,1.33c-.24.08-.48.17-.73.23-1.08.23-1.14.2-1.26-1s-.25-2.69-.33-4c-.94-15.57-4.58-30.62-8.78-45.56-3-10.83-6.1-21.66-8.87-32.55A58.12,58.12,0,0,1,108,132a36.16,36.16,0,0,1,9.17-20.43c1.93-2.14,3.91-4.25,6.1-6.29.49.79.9,1.43,1.3,2.08a24.61,24.61,0,0,0,6.06,6.68,37.13,37.13,0,0,0,14,7,12.46,12.46,0,0,0,5,.25,1.32,1.32,0,0,1,1.44.6c3.35,4.23,6.71,8.47,10.1,12.68a4.37,4.37,0,0,1,.84,2.12c1.73,10.87,4.54,21.52,6.46,32.34,1.32,7.47,2.45,15,3.65,22.48.08.5.08,1,.11,1.53s.58,1.24-.5,1.33a19.83,19.83,0,0,0-6.32-3.07C163.82,190.77,162.89,191.89,162.06,193Z"/><path fill="#fffefd" d="M135,92.64a3.63,3.63,0,0,0-.43.62,1.16,1.16,0,0,0,.4,1.54,1.07,1.07,0,0,0,1.42-.06c1-.89,1.91-.5,2.86-.08a18.34,18.34,0,0,1,3.61,2.22c2.77,2.09,5.42,4.34,8,6.65a13.8,13.8,0,0,1,4.46,6.86,19.64,19.64,0,0,0,6.6,9.93c2.94,2.58,5.55,5.54,8.3,8.34,6.18,6.29,12.29,12.64,18.53,18.87,2.87,2.86,6,5.48,9,8.22.56.52,1.37.88.35,1.91-.73.73,0,1.8,1.07,1.81a21.35,21.35,0,0,0,2.48-.33c14.47-1.67,29-1.83,43.56-1.88a24.15,24.15,0,0,1,6.11.72,10.55,10.55,0,0,1,5.85,3.51,5.08,5.08,0,0,1,.36,6.26,9.58,9.58,0,0,1-3.57,3.44,27.45,27.45,0,0,1-11.36,3.39,141.3,141.3,0,0,1-17.94.08c-3.79-.18-7.59,0-11.39-.08a72,72,0,0,1-12.85-1.13,19.39,19.39,0,0,1-12.57-8.23c-10.14-14.67-21.29-28.57-32.59-42.36-4-4.94-3-4.27-8.44-6.67a15.8,15.8,0,0,1-8-7.52,27,27,0,0,0-5.32-7.29c-.51-.49-.84-.93-.14-1.58a1.07,1.07,0,0,0,0-1.57,1.3,1.3,0,0,0-1.59-.33c-.47.19-.88.76-1.48.06s-.17-1.06,0-1.58a2.37,2.37,0,0,0,.2-.54c.37-2.33,1.67-3.58,4.07-3.58C135,92.11,135.11,92.29,135,92.64Z"/><path fill="#e3ae27" d="M270.46,193a10.69,10.69,0,0,0-1,.85c-4.38,4.56-9.4,8.37-14.24,12.41-3.75,3.13-7.45,6.31-11.18,9.46a5.09,5.09,0,0,0-2.19,3.82,10.33,10.33,0,0,0-.5-3,2.82,2.82,0,0,1,0-2.39c.69-1.78.08-3-1.68-3.63a8.48,8.48,0,0,0-3-.45,33.67,33.67,0,0,0-4.81.29c-8.43,1.23-16.77.41-25.07-1.2a1.28,1.28,0,0,1-.34-.19c-.45-1,.1-1.89.51-2.73a19.5,19.5,0,0,0,1.43-13.46c-1-4.11-1.9-8.25-1.6-12.53.08-1.08,0-2.22,1.06-3,7-.17,14,.09,21,.39a106.92,106.92,0,0,0,15.6-.42,28.19,28.19,0,0,0,11.25-3.76,14.61,14.61,0,0,0,3.47-3c.52,2.13.85,3.94,1.4,5.7A42,42,0,0,0,268.1,190C268.9,191,269.68,192,270.46,193Z"/><path fill="#f3dda4" d="M207.8,177.29c-1,3.43-.57,6.86,0,10.28.54,3,1.22,6,1.64,9.06.44,3.27-.54,6.34-1.83,9.31-.43,1-.83,2-1.25,3-3.05-.12-5.94-1.07-8.87-1.77a78.83,78.83,0,0,1-18.28-7.1c-2.35-1.24-3.56-2.54-3.91-5.37-1.24-10-2.8-20-4.75-29.92-1.38-7-3-14-4.46-20.94-.22-1-.37-2.09-.57-3.24.77.27,1,.83,1.35,1.27,6.36,8.18,12.81,16.3,18.6,24.9,3.82,5.68,9.28,8.75,16,9.74C203.58,176.84,205.69,177,207.8,177.29Z"/><path fill="#fffefd" d="M163.43 217.72c1.77-6.75 4.11-13.15 6.06-19.8 2.56 1.38 5 2.61 7.4 4 9.27 5.51 19.41 8.39 30 10.14 3.49.58 7 1.17 10.5 1.49a76 76 0 0016.37-.54 18.35 18.35 0 013.85-.1c.64.06 1.1.22.75 1.08a4 4 0 00.21 3.19 2.56 2.56 0 01-.6 3.28c-1.67 1.56-1.74 3.81-2 5.9a11.64 11.64 0 01-1.66 4.67 2 2 0 01-2.41 1 32.62 32.62 0 01-5-1.27 77.68 77.68 0 01-9.41-4c-5.92-3.2-12.33-4.31-18.93-4.74s-13.19-1.23-19.77-2.08C173.66 219.39 168.62 218.72 163.43 217.72zM133.64 487.13a91.46 91.46 0 01.66-11.93c.08-.81.34-1.09 1.23-.92a28.12 28.12 0 004.58.58 17.24 17.24 0 006.47-.77 1.33 1.33 0 011.68.43c.81.92 1.73 1.73 2.52 2.66a29.49 29.49 0 0011.82 8.08c6.28 2.56 12.86 4 19.47 5.34 2 .41 4.09.57 6 1.51a3.76 3.76 0 011.63 5.81 8.12 8.12 0 01-1.77 2 16.69 16.69 0 01-10.1 3.79 46.63 46.63 0 01-10.32-1.27 79.65 79.65 0 00-21.14-.8 54.7 54.7 0 01-7.13.25 4.13 4.13 0 01-3.84-2.68 20.55 20.55 0 01-1.71-8.05C133.61 489.83 133.64 488.48 133.64 487.13zM260.3 103.46c1.1 3.07 2.29 6.12 3.08 9.29a15.66 15.66 0 01-.29 9.12 21.94 21.94 0 00-.92 12.14c.41 1.81.87 3.62 1.31 5.43.24 1 .49 2 .75 3a14.52 14.52 0 01-1.46 11.18c-1.08 2-2.31 3.83-3.53 5.82a16 16 0 00-9.5-4.66A.67.67 0 01250 154c4.27-3.67 6.15-8.44 6.39-13.95.07-1.79.07-3.6 0-5.39-.09-2-.79-2.77-2.73-3.11-1.45-.26-2.92-.42-4.39-.58a12.92 12.92 0 01-3.53-.91 2.6 2.6 0 01-1.78-2.69 6.71 6.71 0 00-.48-3.4.62.62 0 01.15-.82c1.76-2 1.75-2.1.44-4.48 0-.41.34-.5.57-.7a2.63 2.63 0 00.62-3.76c-.28-.5-.66-1-.95-1.45-.75-1.29-.6-1.92.6-2.74a5 5 0 01.49-.31 12 12 0 005.43-5.8A20.75 20.75 0 00252 101.5c.38-1.11 1.15-1.27 2.13-1.13a5.65 5.65 0 013 1.58c.54.51 1.06 1 1.86.73C260.24 101.52 259.8 103.29 260.3 103.46zM174.5 72.32a15.6 15.6 0 001.22 6c.66 1.62.37 2.28-1.23 3.07a22.87 22.87 0 00-3.09 1.55 1.34 1.34 0 01-.91.24c-5.52-.59-10.93-1.54-15.73-4.59a6.65 6.65 0 01-1.09-.8c-1.29-1.31-2-2.8-1.32-4.69.18-.48.29-1 .46-1.47.54-1.51.55-1.51 2.23-1.4a5.17 5.17 0 003.39-1.14 7.05 7.05 0 012.38-1.57 39.9 39.9 0 015.68-.1c.68.54.11.86-.22 1.2s-1.15.59-1.45 1.62c1.7-.3 3.08-1.41 4.71-1.13s3 1.42 4.53 2A.88.88 0 01174.5 72.32z"/><path fill="#e2ad27" d="M302.81,118.73c0,6.45-1.94,12.41-4.54,18.21a6.56,6.56,0,0,1-1,1.43.91.91,0,0,1-1.55-.88,10.12,10.12,0,0,1,.51-1.24,46.21,46.21,0,0,0,4.28-14.55c1-9.61-2.4-17.25-10.26-22.89-.62-.45-1.27-.88-1.86-1.37a1.08,1.08,0,0,1-.28-1.55c.46-.6,1-.3,1.5.09,1.42,1.11,2.95,2.06,4.33,3.23C300,104.32,302.78,110.9,302.81,118.73Z"/><path fill="#fefdfc" d="M140.79 116.68c-6-2.54-11.3-6-14.72-11.83-1-1.73-.89-1.36.24-2.52.76-.78 1.57-1.51 2.35-2.26 3.27 3.41 6.61 6.76 8.62 11.18a14.92 14.92 0 004.31 5.11.6.6 0 01.36.28H142c.07.35 0 .53-.4.39l-.36-.12zM159.19 219.72l-.34-.08c-2.15-.36-2.2-.4-1.47-2.42 2.31-6.41 4.26-12.93 6-19.52.2-.74.44-1.48.7-2.2.64-1.86.81-1.87 2.58-1 .86.42.87.85.6 1.67q-2.53 7.49-4.93 15c-.8 2.51-1.47 5.06-2.19 7.59C160 219.35 159.9 220 159.19 219.72z"/><path fill="#e1ac27" d="M289.51 168.12c-.05 4.35 1 8.55 1.81 12.76a31.38 31.38 0 01.19 12.06 7.9 7.9 0 01-.48 1.66.9.9 0 01-1.09.58.87.87 0 01-.73-1c.08-.83.23-1.65.38-2.47a29.57 29.57 0 00-.58-11.66 51 51 0 01-1.35-14.14 7.8 7.8 0 01.18-1.53c.14-.51.45-1 1.08-.89s.76.6.74 1.16zM187.73 49.9c-.17 3.17-2.17 5.92-4.88 8.27a2.57 2.57 0 01-.86.43.93.93 0 01-1.16-.44A.82.82 0 01181 57.1c.3-.33.68-.59 1-.9a12.51 12.51 0 003.5-5.46 4.62 4.62 0 00-5.73-6c-.67.2-1.34.43-2 .63-1.29.4-2.57.82-3.87 1.17-.74.2-1.72.48-2-.54s.77-1.1 1.51-1.33c1.65-.51 3.29-1.08 4.94-1.62a8.3 8.3 0 013.79-.52C185.54 43.09 187.84 45.86 187.73 49.9zM127.25 63.52c.8-6.43 3.7-11.76 9.57-15.23a25 25 0 014.36-2 8.58 8.58 0 011.3-.34.88.88 0 011.09.57 1 1 0 01-.55 1.28c-.4.21-.83.34-1.25.51a26.45 26.45 0 00-4.65 2.3 17.81 17.81 0 00-7.86 12.5c-.07.45-.09.9-.2 1.34s-.42 1-1.07.86-.7-.49-.73-1C127.24 64.11 127.25 63.92 127.25 63.52z"/><path fill="#fcfcfb" d="M137.39,91.14a5.85,5.85,0,0,0,2.19-1.52,1.1,1.1,0,0,1,1.9-.12c.88.84,1.88,1.56,2.81,2.36a74.88,74.88,0,0,0,9.16,6.7,2.92,2.92,0,0,1,1.57,3.62c-.09.36,0,.78-.4,1.12-3-3.61-6.89-6.09-10.62-8.8a16.43,16.43,0,0,0-5.1-2.65C138.5,91.38,137.49,92.22,137.39,91.14Z"/><path fill="#fdfcfb" d="M144.66,79.57a6.49,6.49,0,0,1-2.19-1.35,5.49,5.49,0,0,1-1.75-7.32c.84-1.73,2.27-2.09,3.92-1.08a2.49,2.49,0,0,1,1.37,3A62.69,62.69,0,0,1,144.66,79.57Z"/><path fill="#dfab26" d="M266.78,90.84a31.4,31.4,0,0,0,2,9.67c.1.24.21.47.32.7.3.67.66,1.42-.26,1.81s-1.27-.39-1.6-1a21.35,21.35,0,0,1-1.91-6.44,20.77,20.77,0,0,1-.47-4.79,5.54,5.54,0,0,1,.11-1.15c.17-.62.4-1.33,1.24-1.19s.76.88.65,1.53C266.83,90.22,266.82,90.48,266.78,90.84Z"/><path fill="#faf9f8" d="M260.3,103.46c-.52-.13-.45-1.28-1.34-.78a1.53,1.53,0,0,0-.31-2.07,7.42,7.42,0,0,0-3.4-2.08c-.47-.14-1,0-1.49-.55A19.77,19.77,0,0,1,258,92.33C258.36,96.38,259.59,99.86,260.3,103.46Z"/><path fill="#deaa26" d="M267.17,172.32a.86.86,0,0,1,.88.87,15.22,15.22,0,0,0,3.71,8.11c.37.47.69,1,.15,1.55s-1.23.22-1.67-.29a15.32,15.32,0,0,1-3.95-8.41,3.38,3.38,0,0,1,.08-1.14A.84.84,0,0,1,267.17,172.32Z"/><path fill="#f4f6f5" d="M166.73,67.92c-.45-.5-1-.34-1.59-.35l-4.33-.06c.44-.51,1.05-.42,1.61-.39A53.65,53.65,0,0,0,174.8,66c.23,0,.47-.07,1-.14-.45,2.27-.86,4.37-1.27,6.46-.07-.51-.29-.87-.85-.93-.17-2-2-3.32-4.7-3.35C168.21,68,167.43,68.51,166.73,67.92Z"/><path fill="#dba826" d="M127.69,78.38a5.57,5.57,0,0,1,.11-.84.88.88,0,0,1,.79-.72.8.8,0,0,1,1,.72,16.27,16.27,0,0,0,1.81,5.81.83.83,0,0,1-.3,1.16,1,1,0,0,1-1.23-.16,1.69,1.69,0,0,1-.36-.44A15.52,15.52,0,0,1,127.69,78.38Z"/><path fill="#d6a625" d="M153.41,67.61c-.76,0-1.3,0-1.45-.63a1,1,0,0,1,.75-1.16l2.36-.79a.88.88,0,0,1,1.17.34.94.94,0,0,1-.36,1.33A6,6,0,0,1,153.41,67.61Z"/><path fill="#dededd" d="M171.7,194.31c.53-.3.31-.9.5-1.33a6.25,6.25,0,0,1,.41,2.38c.1.49.21,1-.57.93C171.39,195.73,172,194.93,171.7,194.31Z"/><path fill="#3f4f4f" d="M137.39,91.14c.3.65,1.18.11,1.51.71l-3.09,0,0,0A2,2,0,0,1,137.39,91.14Z"/><path fill="#a6a7a6" d="M141.6,117l.4-.39.77.39c.08.35,0,.54-.42.42A1,1,0,0,1,141.6,117Z"/><path fill="#5e5858" d="M142.35,117.46c.2-.08.39-.17.42-.42.29.1.74.33.61.54C143.06,118.1,142.68,117.69,142.35,117.46Z"/><path fill="#9e9292" d="M172,196.29c.52-.11.43-.59.57-.93.26.35.44.78.14,1.13S172.22,196.57,172,196.29Z"/><path fill="#556261" d="M135,92.64l-.38-.38c.3-.44.74-.4,1.19-.34l0,0A.93.93,0,0,1,135,92.64Z"/><path fill="#bfc4c4" d="M140.79 116.68a.31.31 0 01.45.24A.35.35 0 01140.79 116.68zM142 116.64c-.22 0-.35 0-.36-.28A.31.31 0 01142 116.64z"/><path fill="#fffefd" d="M220.4,341.61a89.41,89.41,0,0,1,.53,14.07c0,1.09,0,2.19-.06,3.28a18.23,18.23,0,0,0,6.29,14.75q4.88,4.55,9.81,9a113.86,113.86,0,0,1,15.88,18.35Q263.17,415.56,272,431a36.08,36.08,0,0,0,4,5.9,14.16,14.16,0,0,0,7.82,4.64c1.81.4,3.64.77,5.44,1.23a14.39,14.39,0,0,1,4.83,2.36,4.75,4.75,0,0,1,2,4.71,14.54,14.54,0,0,1-1.4,4.78,31.23,31.23,0,0,0-3.39,15.08,48.87,48.87,0,0,1-.15,8.29,16.06,16.06,0,0,1-.8,3.37c-1.11,3.14-3.62,4.71-6.57,5.74a3.34,3.34,0,0,1-1.34.09c-2.6-.15-4-2.08-3.16-4.54a12.63,12.63,0,0,1,1.17-2.43,8.27,8.27,0,0,0,.51-7.42,18.7,18.7,0,0,0-2.51-4.55,38.08,38.08,0,0,1-5.59-11.36c-2.12-6.86-6-12.72-10.42-18.33a162.31,162.31,0,0,0-20.29-21.4c-8.5-7.49-16.54-15.47-24.62-23.41-4-4-8.37-7.62-12.29-11.71a75.47,75.47,0,0,1-5.55-6.43,24.33,24.33,0,0,1-4.76-12.25,99.36,99.36,0,0,1-.48-22.34c.15-1.35.13-2.7.2-4.06.42-.69,0-1.53.53-2.46C203.11,338.43,211.37,341.45,220.4,341.61Z"/><path fill="#fffefd" d="M247.48,341.92c-.72,2.12-1.49,4.24-2.15,6.38a61.91,61.91,0,0,0-2,30.09c.48,2.52.93,5,1.4,7.59-.7.06-.9-.5-1.22-.83-4.29-4.44-9.06-8.38-13.53-12.63a35.07,35.07,0,0,1-3.72-4.17,11.65,11.65,0,0,1-2.4-6.79c-.07-1.67-.1-3.35-.06-5a120.22,120.22,0,0,0-.45-14.45c.28-.59.82-.53,1.33-.54,1.54,0,3.09-.05,4.63,0Q238.41,341.71,247.48,341.92Z"/><path fill="#020100" d="M261.11,326.39c0,.76,0,1.32-.62,1.5s-1.08-.27-1.28-.86c-.3-.85-.52-1.72-.81-2.57a84.35,84.35,0,0,0-4.26-10.1c-2.65-5.35-4.9-10.88-7-16.46a18.76,18.76,0,0,1-.67-2.21c-.15-.62,0-1.19.7-1.35s.93.25,1.11.8c2.62,7.87,6.42,15.24,9.82,22.78a52.76,52.76,0,0,1,2.61,6.83C260.89,325.36,261,326,261.11,326.39Z"/><path fill="#020200" d="M200.35,277.32c.28-2.56.59-5.11.84-7.68.49-5.18.94-10.37,1.42-15.56.1-1.09.25-2.17.39-3.25.08-.63.34-1.22,1-1.16s1,.75.85,1.45c-.44,3.13-.57,6.28-.78,9.42-.39,5.78-1,11.54-1.71,17.29-.09.76.22,1.95-1.06,1.86s-.94-1.17-1-2Z"/><path fill="#060401" d="M248.55,335.76c-.21,0-.79,0-1.36-.08a.85.85,0,0,1-.75-.77A.92.92,0,0,1,247,334a3.26,3.26,0,0,1,1.51-.23,17.18,17.18,0,0,0,7.09-1.55c.63-.3,1.26-.5,1.62.31s-.2,1.05-.71,1.38C255.2,334.81,251.59,335.68,248.55,335.76Z"/><path fill="#070501" d="M195,307.47a31.25,31.25,0,0,1,1-5c.29-1.05.58-2.1.93-3.14a.9.9,0,0,1,1-.7c.62.11.81.58.75,1.15a7.24,7.24,0,0,1-.25,1.12,40.81,40.81,0,0,0-1.43,6.56,3.57,3.57,0,0,1-.1.57c-.11.46-.32.86-.87.88a1,1,0,0,1-.94-.81A4.56,4.56,0,0,1,195,307.47Z"/><path fill="#fffefd" d="M191.88,485A4.91,4.91,0,0,1,195,483.3c1.92-.55,3.85-1.05,5.78-1.54,8.75-2.18,14.38-7.86,17.83-16a85.72,85.72,0,0,0,4.52-15.73,100.73,100.73,0,0,0,2-15.87c.49-8.93,1-17.86,1.9-26.75.53-.26.72.19,1,.42,5,4.88,10.25,9.59,15.5,14.24a3.59,3.59,0,0,1,1.17,3.74,105.94,105.94,0,0,1-3.9,15.7c-2.59,8.15-5.63,16.15-7.73,24.45a33.43,33.43,0,0,0-.63,13.21,19,19,0,0,0,1.53,4.75c1.18,2.78.38,4.22-2.61,4.87a18.41,18.41,0,0,1-6.9-.28,43.43,43.43,0,0,0-5.57-.56c-5.67-.15-11.29-.79-16.91-1.49-2.17-.26-4.36-.37-6.54-.55A7.2,7.2,0,0,1,191.88,485Z"/><path fill="#090808" d="M116.2,465a.43.43,0,0,0-.46-.3.87.87,0,0,0-.69-.49.44.44,0,0,0-.44-.31,2,2,0,0,0-1.12-.82.43.43,0,0,0-.44-.33,2,2,0,0,0-1.08-.86.44.44,0,0,0-.42-.34.43.43,0,0,0-.42-.35.42.42,0,0,0-.41-.36c-.77-.78-1.54-1.55-2.3-2.33.37-1.37.63-1.51,1.48-.71a8.4,8.4,0,0,0,1.88,1.59.42.42,0,0,0,.42.35.41.41,0,0,0,.42.35.43.43,0,0,0,.41.36.88.88,0,0,0,.68.5.44.44,0,0,0,.44.33,1.91,1.91,0,0,0,1.11.83.43.43,0,0,0,.45.31,2,2,0,0,0,1.13.8.41.41,0,0,0,.43.34c1.17,1.43,1.16,1.51-.35,1.88A.92.92,0,0,0,116.2,465Z"/><path fill="#060505" d="M116.92,453.48a.44.44,0,0,0-.34-.43,2,2,0,0,0-.82-1.11.44.44,0,0,0-.32-.45.82.82,0,0,0-.48-.69.41.41,0,0,0-.31-.45,1.91,1.91,0,0,0-.76-1.17.79.79,0,0,0-.45-.71,2,2,0,0,0-.74-1.2.8.8,0,0,0-.43-.73,2,2,0,0,0-.72-1.21.78.78,0,0,0-.41-.74.82.82,0,0,0-.42-.75,2.11,2.11,0,0,0-.67-1.24.88.88,0,0,0-.41-.76.87.87,0,0,0-.39-.77,1.46,1.46,0,0,0-.47-1.08l0-1.14.38-.38h.73l.37.39a1.24,1.24,0,0,0,.43,1.13.8.8,0,0,0,.39.77,2,2,0,0,0,.67,1.24.81.81,0,0,0,.42.75.79.79,0,0,0,.42.74,1.83,1.83,0,0,0,.71,1.21.8.8,0,0,0,.44.73,1.86,1.86,0,0,0,.73,1.2.8.8,0,0,0,.45.71.45.45,0,0,0,.3.47.81.81,0,0,0,.46.7.45.45,0,0,0,.3.47.81.81,0,0,0,.48.68.45.45,0,0,0,.31.46.79.79,0,0,0,.49.68.41.41,0,0,0,.33.44.42.42,0,0,0,.32.44.8.8,0,0,0,.5.67.4.4,0,0,0,.33.44c.11.61,1,1.25.2,1.81s-1.16-.32-1.63-.77Z"/><path fill="#e3af28" d="M192,80.92a4.91,4.91,0,0,0,.58-3c.13-4,.13-4.14,4-4.49,4.14-.39,3.94-.28,3.59,3.54a17.61,17.61,0,0,1-.61,4,3.87,3.87,0,0,1-.68,1.36,1.5,1.5,0,0,1-1.88.51,1.63,1.63,0,0,1-1-1.91c.13-.75.51-1.35,1.41-1.23.44.05.77.07.84-.46.14-1.08.27-2.16.41-3.24.12-.84-.27-1.2-1.09-1.1s-1.78.22-2.66.38-.77.76-.79,1.35a18.51,18.51,0,0,1-.4,4.39,6.59,6.59,0,0,1-.81,2,2,2,0,0,1-2.37.7,2.08,2.08,0,0,1-1.34-1.95,1.34,1.34,0,0,1,1.83-1.34A3.86,3.86,0,0,1,192,80.92Z"/><path fill="#e3af29" d="M232.06,93.33a12.62,12.62,0,0,1-.41,3.62,5.83,5.83,0,0,1-.37,1.09,1.26,1.26,0,0,1-1.89.64c-.57-.41-.79-1.68-.17-2.05,1.66-1,1.14-2.54,1.26-3.94.07-.79-.23-1.23-1.09-1.16a7.69,7.69,0,0,1-1,0A1.23,1.23,0,0,0,227,92.89a15.77,15.77,0,0,1-.76,4,2.19,2.19,0,0,1-1.34,1.54,1.59,1.59,0,0,1-2.1-1.12c-.19-.81.17-1.41,1.23-1.5.89-.08,1-.53,1.16-1.2a14.49,14.49,0,0,0,.32-2.86c.11-1.43.36-1.65,1.74-1.68,1.09,0,2.19-.08,3.28-.06,1.24,0,1.45.26,1.56,1.44,0,.13,0,.26,0,.39Z"/><path fill="#040302" d="M207.92,137.92a6.67,6.67,0,0,0,.85-2.33c.3-1.14.9-1.52,1.72-.86a9.74,9.74,0,0,0,4.48,2c.88.16,1.08.94.43,1.57a7.07,7.07,0,0,0-1.85,3.29c-.29,1-.8,1.21-1.7.69a7.59,7.59,0,0,0-2-1.1,4.6,4.6,0,0,1-2.35-.31,1.41,1.41,0,0,1-.91-1.29C206.65,138.71,207.3,138.33,207.92,137.92Z"/><path fill="#e3af2a" d="M207.81 140.69a4.55 4.55 0 012.05.49 8.32 8.32 0 00-1.4 2.71c-.46 1.28-1 1.46-1.91.55A6.42 6.42 0 00203.3 143a2.75 2.75 0 01-1.09-.32c-.52-.4-.86-.9-.3-1.44a6.29 6.29 0 002-4.23c.07-1 .81-1.25 1.61-.56a5.58 5.58 0 002.4 1.51 4.48 4.48 0 01-1.08 1.53 2.06 2.06 0 01-.74.08 1 1 0 00-1 1.4 1.3 1.3 0 001.76.6C207.24 141.37 207.31 140.77 207.81 140.69zM218.68 67.31a4.58 4.58 0 00.58-2.42 13.53 13.53 0 01.37-2.46.64.64 0 01.62-.61.57.57 0 01.59.62 14.58 14.58 0 01-.79 6.22c-.7 1.72-2.2 2.06-3.31.89a1.51 1.51 0 01-.43-1.74c.28-.64.86-.71 1.46-.64C218.08 67.2 218.38 67.26 218.68 67.31zM218.89 123.76a9.87 9.87 0 01-.52 4 2 2 0 01-1.06 1.29 1.63 1.63 0 01-2-.69 1.06 1.06 0 01.68-1.66c1.4-.38 1.32-1.34 1.33-2.37s0-1.92.06-2.87a.82.82 0 01.82-.89c.63 0 .66.46.67.93z"/><path fill="#e4af2b" d="M204,106.3a5.54,5.54,0,0,0,.58-2.74,1.75,1.75,0,0,1,.31-1.27.79.79,0,0,1,.68-.28.55.55,0,0,1,.5.5,10.81,10.81,0,0,1-.69,5.07,1.76,1.76,0,0,1-1.94.94,1.57,1.57,0,0,1-1.48-1,1.14,1.14,0,0,1,.25-1.41C202.8,105.58,203.39,105.71,204,106.3Z"/><path fill="#e4b02c" d="M184.47,106.4c-.39,1.32-.21,2.9-.76,4.36a2.14,2.14,0,0,1-1.36,1.5,1.21,1.21,0,0,1-1.35-.48.88.88,0,0,1,.08-1.37c1.9-.91,1.53-2.72,1.83-4.27.12-.63.05-1.46,1-1.34C184.59,104.9,184.47,105.66,184.47,106.4Z"/><path fill="#e6b63d" d="M199.69,120.52a.77.77,0,0,1,.88.61c.08.53-.29.81-.78.87a.72.72,0,0,1-.84-.6C198.87,120.87,199.22,120.6,199.69,120.52Z"/><path fill="#e6b63e" d="M201,92.59c-.12.55-.38.8-.82.79s-.64-.34-.62-.77a.61.61,0,0,1,.72-.66C200.74,92,200.88,92.34,201,92.59Z"/><path fill="#e7ba48" d="M199.17,63.82a.72.72,0,0,1,.74.67.55.55,0,0,1-.48.69.71.71,0,0,1-.87-.73C198.55,64.1,198.81,63.9,199.17,63.82Z"/><path fill="#e5b335" d="M232,113.92c0,.41-.2.74-.69.69s-.51-.34-.5-.68.19-.75.67-.7S232,113.56,232,113.92Z"/><path fill="#e4b02c" d="M243.8,85.71c-.35,0-.59-.22-.58-.59s.2-.74.66-.68.5.33.5.68S244.15,85.66,243.8,85.71Z"/><path fill="#e1b02f" d="M214.36,28c-1.53.28-1.8,0-1.43-1.73h0c-.09-.65-.19-1.3-.29-1.95-1.55.75-1.81,2.08-1.48,3.57A2.79,2.79,0,0,0,213.65,30a3,3,0,0,0,2.86-1.18A5.45,5.45,0,0,1,214.36,28Z"/><path fill="#050404" d="M220.72,24.27a4,4,0,0,0-3.92-3.55,4.09,4.09,0,0,0-4.16,3.55,2.09,2.09,0,0,0,0,2A4.4,4.4,0,0,0,214,28.16a2.85,2.85,0,0,0,2.52.62c.44-.08.9-.12,1.32-.24A4.09,4.09,0,0,0,220.72,24.27Zm-6.07,1.52a.73.73,0,0,1,.73.82A.86.86,0,0,1,214.65,25.79ZM217.12,27c-.81-1-1.69-2-2.52-3.07.77-1.37,1.49-1.78,2.66-1.51a2.47,2.47,0,0,1,1.84,2.19C219.17,25.69,218.56,26.42,217.12,27Z"/><path fill="#d6a52c" d="M214.6,23.9a1.53,1.53,0,0,0,.05,1.89.73.73,0,0,1,.73.82h0a1.69,1.69,0,0,0,1.74.36A3.24,3.24,0,0,0,214.6,23.9Z"/><path fill="#e1b02f" d="M364.52,143.05c-1.54.28-1.81-.05-1.43-1.74h0c-.1-.65-.19-1.3-.29-1.95-1.55.75-1.82,2.09-1.48,3.58a2.76,2.76,0,0,0,2.49,2.11,3,3,0,0,0,2.86-1.17A5.7,5.7,0,0,1,364.52,143.05Z"/><path fill="#050404" d="M370.88,139.37a4,4,0,0,0-3.92-3.55,4.08,4.08,0,0,0-4.16,3.54,2.11,2.11,0,0,0,0,2,4.43,4.43,0,0,0,1.38,1.85,2.87,2.87,0,0,0,2.53.63c.44-.08.89-.13,1.32-.25A4.09,4.09,0,0,0,370.88,139.37Zm-6.08,1.51c.48.07.76.31.73.82A.86.86,0,0,1,364.8,140.88Zm2.47,1.18c-.81-1-1.68-2-2.51-3.06.77-1.38,1.49-1.78,2.66-1.51a2.48,2.48,0,0,1,1.84,2.19C369.32,140.79,368.71,141.52,367.27,142.06Z"/><path fill="#d6a52c" d="M364.76,139a1.52,1.52,0,0,0,0,1.88c.48.07.76.31.73.82h0a1.67,1.67,0,0,0,1.74.36A3.24,3.24,0,0,0,364.76,139Z"/><path fill="#e1b02f" d="M79.08,39.64c-1.53.28-1.8,0-1.43-1.74h0c-.09-.65-.19-1.3-.29-1.95-1.55.76-1.81,2.09-1.48,3.58a2.78,2.78,0,0,0,2.49,2.11,3,3,0,0,0,2.86-1.17A5.45,5.45,0,0,1,79.08,39.64Z"/><path fill="#050404" d="M85.44,36a4,4,0,0,0-3.92-3.55A4.08,4.08,0,0,0,77.36,36a2.11,2.11,0,0,0,0,2,4.46,4.46,0,0,0,1.38,1.86,2.85,2.85,0,0,0,2.52.62,11.81,11.81,0,0,0,1.32-.25A4.08,4.08,0,0,0,85.44,36Zm-6.07,1.52a.72.72,0,0,1,.73.82A.86.86,0,0,1,79.37,37.48Zm2.47,1.18c-.81-1-1.69-2-2.52-3.07.77-1.37,1.49-1.78,2.66-1.51a2.46,2.46,0,0,1,1.84,2.19C83.89,37.38,83.28,38.11,81.84,38.66Z"/><path fill="#d6a52c" d="M79.32,35.59a1.53,1.53,0,0,0,.05,1.89.72.72,0,0,1,.73.82h0a1.71,1.71,0,0,0,1.74.36A3.24,3.24,0,0,0,79.32,35.59Z"/><path fill="#e1b02f" d="M4.71,55.57c-1.53.29-1.8,0-1.42-1.73h0l-.3-2c-1.55.75-1.81,2.09-1.48,3.58A2.79,2.79,0,0,0,4,57.58a3,3,0,0,0,2.87-1.17A5.6,5.6,0,0,1,4.71,55.57Z"/><path fill="#050404" d="M11.07,51.9a4,4,0,0,0-3.92-3.56A4.1,4.1,0,0,0,3,51.89a2.11,2.11,0,0,0,0,2,4.43,4.43,0,0,0,1.38,1.85,2.85,2.85,0,0,0,2.52.63c.44-.08.9-.13,1.32-.25A4.08,4.08,0,0,0,11.07,51.9ZM5,53.41a.73.73,0,0,1,.73.82A.85.85,0,0,1,5,53.41Zm2.47,1.18c-.81-1-1.69-2-2.52-3.06.78-1.38,1.49-1.79,2.66-1.51a2.45,2.45,0,0,1,1.84,2.19C9.52,53.31,8.91,54.05,7.47,54.59Z"/><path fill="#d6a52c" d="M5,51.53a1.52,1.52,0,0,0,0,1.88.73.73,0,0,1,.73.82h0a1.69,1.69,0,0,0,1.74.36A3.24,3.24,0,0,0,5,51.53Z"/><path fill="#e3af2b" d="M123.15,23.47l-.18.09.14.18-1,1.84A11,11,0,0,0,119.26,24a13.37,13.37,0,0,0,1.5-3.22l1.83,1.69a1.55,1.55,0,0,0,0,.22h.06c.62-.37,1.37-.66,1-1.64a1.47,1.47,0,0,1-.9-.68c-.43-1-1.52-1.31-2.16-2.1-.46-.55-.93-.33-1.16.27a4.27,4.27,0,0,0-.22,1.13,5,5,0,0,1-2.14,3.9c-.39.27-.73.57-.65,1.09a1.05,1.05,0,0,0,1.16.82,4.26,4.26,0,0,1,4,2.57c.25.48.61.85,1.22.71s.64-.7.75-1.2a7.29,7.29,0,0,1,1.17-3.22C124.66,23.17,123.79,23.54,123.15,23.47Z"/><path fill="#040403" d="M129.66,20.3a5.64,5.64,0,0,1-2.85-2.13c-.57-.94-1.16-.84-1.61.2A8.55,8.55,0,0,1,123.71,21l-1.12,1.41c-.32.63-.07,1,.52,1.31a3.33,3.33,0,0,1,1.63.57,4.07,4.07,0,0,1,1.64,1.27c.76.72,1.33.62,1.73-.36A7.62,7.62,0,0,1,130,22.39C131,21.4,131,20.86,129.66,20.3Zm-2.55,3c-.33.51-.64,0-.93-.13a4.37,4.37,0,0,1-.85-1.46c.16-.34.31-.68.5-1a1.92,1.92,0,0,1,.42-.37l1.92,1.21A6.44,6.44,0,0,1,127.11,23.31Z"/><path fill="#c19429" d="M125.33,21.72a1.26,1.26,0,0,1,.85,1.46c-.28-.13-.57-.26-.84-.4C124.68,22.43,124.73,22.08,125.33,21.72Z"/><path fill="#e3af2b" d="M314,61l-.19.08a1.24,1.24,0,0,0,.14.18l-1,1.84a11.26,11.26,0,0,0-2.86-1.61,13.81,13.81,0,0,0,1.49-3.23l1.83,1.69a1.77,1.77,0,0,0,0,.23h.06c.63-.37,1.38-.65,1-1.63a1.45,1.45,0,0,1-.9-.69c-.43-1-1.52-1.31-2.16-2.09-.46-.56-.93-.33-1.16.26a4.27,4.27,0,0,0-.22,1.13A5,5,0,0,1,308,61c-.38.26-.73.56-.65,1.08a1.06,1.06,0,0,0,1.16.82,4.26,4.26,0,0,1,4,2.57c.25.49.61.86,1.22.72s.64-.7.75-1.21a7.34,7.34,0,0,1,1.17-3.22C315.55,60.65,314.68,61,314,61Z"/><path fill="#040403" d="M320.54,57.77a5.56,5.56,0,0,1-2.85-2.12c-.56-.94-1.16-.85-1.61.2a8.5,8.5,0,0,1-1.49,2.64l-1.12,1.41c-.32.63-.07,1,.52,1.32a3.29,3.29,0,0,1,1.63.56,4.09,4.09,0,0,1,1.64,1.27c.76.72,1.33.63,1.73-.35a7.66,7.66,0,0,1,1.89-2.84C321.92,58.88,321.83,58.34,320.54,57.77Zm-2.55,3c-.33.5-.63,0-.93-.13a4.42,4.42,0,0,1-.85-1.47c.16-.33.31-.68.5-1a2.63,2.63,0,0,1,.42-.37L319.05,59A6.12,6.12,0,0,1,318,60.79Z"/><path fill="#c19429" d="M316.21,59.19a1.26,1.26,0,0,1,.85,1.47l-.84-.41C315.56,59.91,315.62,59.55,316.21,59.19Z"/><path fill="#e3af2b" d="M16.56,104.51l-.19.08.14.18c-.3.56-.59,1.12-1,1.84A11.09,11.09,0,0,0,12.67,105a14,14,0,0,0,1.5-3.23L16,103.46a.89.89,0,0,0,0,.23h.06c.63-.37,1.38-.65,1.05-1.64a1.41,1.41,0,0,1-.89-.68c-.44-1-1.52-1.31-2.17-2.09-.45-.56-.92-.33-1.16.26a4.26,4.26,0,0,0-.21,1.13,5.08,5.08,0,0,1-2.14,3.91c-.39.26-.73.56-.65,1.08a1.05,1.05,0,0,0,1.16.82,4.26,4.26,0,0,1,4,2.57,1,1,0,0,0,1.21.72c.63-.15.65-.71.75-1.21a7.59,7.59,0,0,1,1.17-3.22C18.07,104.21,17.2,104.57,16.56,104.51Z"/><path fill="#040403" d="M23.06,101.33a5.52,5.52,0,0,1-2.84-2.13c-.57-.93-1.17-.84-1.62.21a8.3,8.3,0,0,1-1.49,2.64L16,103.46c-.33.63-.07,1,.51,1.31a3.26,3.26,0,0,1,1.63.57,4.13,4.13,0,0,1,1.65,1.27c.76.72,1.33.63,1.73-.35a7.63,7.63,0,0,1,1.88-2.84C24.45,102.44,24.36,101.89,23.06,101.33Zm-2.55,3c-.33.5-.63,0-.93-.13a4.6,4.6,0,0,1-.85-1.47c.17-.33.31-.68.51-1a1.73,1.73,0,0,1,.42-.37l1.92,1.21A6.28,6.28,0,0,1,20.51,104.35Z"/><path fill="#c19429" d="M18.73,102.75a1.25,1.25,0,0,1,.85,1.47l-.84-.41C18.09,103.47,18.14,103.11,18.73,102.75Z"/><path fill="#f1dba0" d="M89.88,171.49l-1.42,2.18a6.44,6.44,0,0,0-3.78-2c1.38-1.64,2.63-3.09,3-5.17a6.44,6.44,0,0,1,2.18,2,3,3,0,0,1-.36.43C87.88,170.35,87.9,170.54,89.88,171.49Z"/><path fill="#dfab29" d="M91.72,169.1l.69-1.15c.72-.45,1.17.22,1.74.41H94.1c1,1.43.92,1.78-.86,2.76L91.29,170C91.42,169.7,91.61,169.42,91.72,169.1Z"/><path fill="#ddc890" d="M93.24,171.12a4,4,0,0,1,.6-.74c.81-.6.71-1.28.26-2a9.22,9.22,0,0,1,2.25,1.11l-2,2.66A3.28,3.28,0,0,1,93.24,171.12Z"/><path fill="#bfb97f" d="M94.15,168.36c-.64.08-1.14-.37-1.74-.41.12-.71.25-1.4,1.06-.46C93.71,167.77,94.08,168,94.15,168.36Z"/><path fill="#cfc680" d="M91.72,169.1a.77.77,0,0,1-.43.91C90.69,169.36,91.45,169.35,91.72,169.1Z"/><path fill="#dfaf33" d="M90.24,103a1.6,1.6,0,0,1,1.81-.92,2.49,2.49,0,0,1,.18,3.78,1.44,1.44,0,0,1-2-.78C90.61,104.39,90.17,103.7,90.24,103Z"/><path fill="#e9d59c" d="M92.23,105.86a5.3,5.3,0,0,0-.18-3.78A1.78,1.78,0,0,1,93.78,104,1.63,1.63,0,0,1,92.23,105.86Z"/><path fill="#dbc384" d="M88.55,105.84c-1.84-1.07-1.91-2-.24-3.16A6.29,6.29,0,0,0,88.55,105.84Z"/><path fill="#f2dba0" d="M90.24,103c.58.69,1.1,1.38,0,2.08A1.51,1.51,0,0,1,90.24,103Z"/><path fill="#e3af29" d="M334.7,201.4a1.3,1.3,0,0,1-.55,1,5.13,5.13,0,0,1-2.26,1,2.81,2.81,0,0,0-2.09,2c-.24.73-.52,1.45-.71,2.2a5,5,0,0,1-3.92,3.85c-2.73.62-4.1,2.45-5,4.84-.55,1.44-1,2.9-1.6,4.33a3.54,3.54,0,0,1-2.44,2.28,1.49,1.49,0,0,1-.93.11c-.31-.11-.63-.23-.7-.58a.61.61,0,0,1,.48-.73c1.76-.35,2.24-1.8,2.74-3.19a41.47,41.47,0,0,1,1.72-4.49,6.76,6.76,0,0,1,4.67-4,4.34,4.34,0,0,0,3.58-3.57,18.26,18.26,0,0,1,.65-2,3.66,3.66,0,0,1,1.81-2.16c1.1-.52,2.27-.89,3.35-1.47A.77.77,0,0,1,334.7,201.4Z"/><path fill="#030302" d="M325.52,168.49a4.54,4.54,0,0,0,2.31-2.45,8,8,0,0,1,.72-1.36c.46-.63,1-.67,1.35,0a7.45,7.45,0,0,0,3.78,3.37c1.25.63,1.24,1.39,0,2a6,6,0,0,0-2.59,2.73c-.81,1.43-1.32,1.46-2.41.2a3.27,3.27,0,0,0-2.37-1.45,2.13,2.13,0,0,1-2.06-.56,1.51,1.51,0,0,1-.5-1C323.85,168.89,324.68,168.68,325.52,168.49Z"/><path fill="#e3ae29" d="M324.46,170.86c.58.29,1.31.19,1.83.65a12.94,12.94,0,0,0-1.86,3.33c-.35,1.1-1.05,1.29-1.82.46a6.45,6.45,0,0,0-3.62-2c-1.26-.25-1.5-1.13-.59-2.11a9,9,0,0,0,2.37-4.08c.28-1.21,1.11-1.33,1.93-.33s1.49,1.77,2.82,1.69c-.46.56-1.32.69-1.58,1.46-1.44-.29-2.59,0-3,1.58C322.41,173.23,323.41,171.89,324.46,170.86Z"/><path fill="#050403" d="M321.08,221.74a.66.66,0,0,1-.63-.79,1.9,1.9,0,0,1,.52-1,7.54,7.54,0,0,0,1.41-3.33,4.58,4.58,0,0,1,3.17-3.76c.48-.18,1-.32,1.45-.5a4.51,4.51,0,0,0,3.17-3.54,5.44,5.44,0,0,1,.48-1.46.72.72,0,0,1,1-.39.64.64,0,0,1,.42.77c-.49,2.36-1.1,4.65-3.61,5.74a9.27,9.27,0,0,1-1.24.51,4,4,0,0,0-3.37,3.88,6.38,6.38,0,0,1-1.61,3.24A1.29,1.29,0,0,1,321.08,221.74Z"/><path fill="#080605" d="M251.8,237.12a6.1,6.1,0,0,1-.91-.18.75.75,0,0,1-.55-.71.73.73,0,0,1,.57-.69,6.66,6.66,0,0,1,.76-.12,19.43,19.43,0,0,0,10-4.15c.43-.35.89-.63,1.33-.12s0,1-.36,1.31a10.91,10.91,0,0,1-1.65,1.31,24.72,24.72,0,0,1-8.19,3.2C252.47,237,252.15,237.07,251.8,237.12Z"/><path fill="#090705" d="M259.51,222.7a2.85,2.85,0,0,1-.65,1.38,25.39,25.39,0,0,1-6.93,6,2.28,2.28,0,0,1-.36.15c-.62.25-1.34.52-1.69-.24s.52-1,1-1.27a20.94,20.94,0,0,0,7-6.16,5,5,0,0,1,.32-.48.65.65,0,0,1,.84-.24A.81.81,0,0,1,259.51,222.7Z"/><path fill="#020202" d="M128.16,263.4a25.55,25.55,0,0,1,3.52-14.76c1-1.67,1.94-3.33,2.93-5a4.64,4.64,0,0,1,.82-1.05.81.81,0,0,1,1.07,0,.73.73,0,0,1,.29.85,12.52,12.52,0,0,1-.67,1.38q-1.41,2.52-2.83,5a26.28,26.28,0,0,0-3.1,14.87,50.89,50.89,0,0,0,.54,6.53,6.48,6.48,0,0,1,.07.77c0,.56-.09,1.08-.68,1.22s-1.08-.27-1.26-.88a29.89,29.89,0,0,1-.68-5.73A32.62,32.62,0,0,1,128.16,263.4Z"/><path fill="#030303" d="M148.13,450.21c.21-1,.48-2.43.79-3.81q1.94-8.56,3.91-17.11a14.07,14.07,0,0,1,.73-2.19.8.8,0,0,1,.95-.49.86.86,0,0,1,.69,1c0,.32-.1.64-.16.95q-2.39,10.83-4.78,21.66a5.62,5.62,0,0,0-.09.57c-.11.73-.24,1.55-1.18,1.45S148.12,451.28,148.13,450.21Z"/><path fill="#050505" d="M130.43,284.06c0-.32,0-.58,0-.83,0-.49.27-.87.8-.92a.87.87,0,0,1,1,.87c.14,1.53.46,3,.74,4.54.41,2.2.77,4.41,1.15,6.61a6.09,6.09,0,0,1,.08.95.93.93,0,0,1-1.8.41,5.74,5.74,0,0,1-.39-1.28c-.54-3.28-1.06-6.56-1.59-9.84C130.43,284.38,130.44,284.19,130.43,284.06Z"/><path fill="#0a0a0a" d="M147.71,460.55a23.23,23.23,0,0,1-1.6,4.4,2.47,2.47,0,0,1-.77.84,1,1,0,0,1-1.09,0,.78.78,0,0,1-.28-1,28.59,28.59,0,0,0,1.93-4.81.9.9,0,0,1,1.24-.61A1,1,0,0,1,147.71,460.55Z"/><path fill="#030200" d="M118.82,140.11a14.77,14.77,0,0,1,3.34-9.82,3.36,3.36,0,0,1,1.6-1.33,1,1,0,0,1,1.2.33,1,1,0,0,1,0,1.09,5.42,5.42,0,0,1-.65.71,13.33,13.33,0,0,0-3.32,10.51c.29,3.32.74,6.63,1.12,10,0,.12.06.25.08.37.07.64-.08,1.21-.8,1.31s-.92-.36-1-.91c-.2-1-.42-2-.54-3C119.4,146.23,118.93,143.19,118.82,140.11Z"/><path fill="#030301" d="M148.12,209.42a5.38,5.38,0,0,1-3.54-1.7,8.52,8.52,0,0,1-1.43-2c-1.54-3-3.06-6.08-4.59-9.12-.08-.17-.16-.35-.23-.53-.25-.66-.6-1.45.29-1.83s1.17.46,1.49,1.08q2.37,4.64,4.76,9.25a4.54,4.54,0,0,0,3.61,2.84c.72.08,1.31.33,1.17,1.17S148.82,209.41,148.12,209.42Z"/><path fill="#0c0802" d="M134.15 125.94a7.44 7.44 0 013.66 1.19c.47.35.87.84.42 1.47s-.87.46-1.37.19a6.75 6.75 0 00-3.1-.9c-.61 0-1.18-.13-1.27-.87S133.06 126 134.15 125.94zM135.66 185.13a1.17 1.17 0 011 .78c.44 1.06.88 2.11 1.31 3.17a.92.92 0 01-.41 1.3.87.87 0 01-1.27-.47c-.52-1.16-1-2.33-1.44-3.53C134.64 185.76 135 185.29 135.66 185.13z"/><path fill="#040303" d="M140.46,227.55a37.61,37.61,0,0,1,9.13,1.36,35.69,35.69,0,0,0,6.92,1.62c.67.05,1.19.33,1.14,1a1.1,1.1,0,0,1-1.23,1,15.54,15.54,0,0,1-5.1-.93,37.64,37.64,0,0,0-9.19-2c-1.28-.09-2.57-.11-3.85-.14-.62,0-1.22-.12-1.27-.87s.53-1,1.14-1C138.92,227.51,139.69,227.55,140.46,227.55Z"/><path fill="#040404" d="M132.71,222.67c0,.7,0,1.41,0,2.11a.89.89,0,0,1-.91.83.92.92,0,0,1-1-.78,4.33,4.33,0,0,1-.11-1c-.24-4-.47-7.94-1.06-11.87a7.54,7.54,0,0,1-.08-1.34c0-.5.22-.88.77-.93a.84.84,0,0,1,1,.72c.21,1,.41,2,.52,3,.34,3.06.63,6.12.94,9.18Z"/><path fill="#060505" d="M137.39,99.19c-.44-.46-.91-.9-1.31-1.39a1,1,0,0,1,0-1.42,1.09,1.09,0,0,1,1.53-.37,18.76,18.76,0,0,1,4.08,3.51,1.09,1.09,0,0,1-.82,1.83,3.56,3.56,0,0,1-1.12-.21A3.45,3.45,0,0,1,137.39,99.19Z"/><path fill="#080807" d="M139.28,101.56c.18.26.39.51.55.78a1.1,1.1,0,0,1-.27,1.54,1,1,0,0,1-1.41.08,19.31,19.31,0,0,1-2.61-2.23c-.81-.91-.22-1.74,1.36-2A3.12,3.12,0,0,1,139.28,101.56Z"/><path fill="#c9cfce" d="M139.28,101.56c-.8-.61-1.59-1.23-2.38-1.85.16-.17.33-.34.49-.52a10.21,10.21,0,0,1,2.34,2Z"/><path fill="#080601" d="M262.32,191.35a1.66,1.66,0,0,1-.42,1.07,33.48,33.48,0,0,1-3.07,3.45l-.44.38c-.51.36-1.07.6-1.54,0s-.17-1,.21-1.39l3.52-3.84a1.4,1.4,0,0,1,.63-.42C261.82,190.46,262.17,190.78,262.32,191.35Z"/><path fill="#070501" d="M220.61,196.32a5.77,5.77,0,0,1-3.62-1.08c-.49-.37-.88-.83-.44-1.46a1,1,0,0,1,1.38-.18,5.57,5.57,0,0,0,4.26.52c.61-.12,1.22-.11,1.39.62s-.44,1.13-1.08,1.29A16.89,16.89,0,0,1,220.61,196.32Z"/><path fill="#0f0b02" d="M252.83,199.87a3.58,3.58,0,0,1-2.25,2.18.84.84,0,0,1-.84-1.29,4.89,4.89,0,0,1,1.77-1.73A.89.89,0,0,1,252.83,199.87Z"/><path fill="#0b0a0a" d="M139.91,491.31a.94.94,0,0,1,.89.85,4.23,4.23,0,0,0,2.17,3c.52.28.79.7.52,1.26s-.81.53-1.32.42c-1.51-.33-3.44-3.06-3.24-4.58C139,491.65,139.39,491.28,139.91,491.31Z"/><path fill="#0f0e0e" d="M254.82,106.89a6.3,6.3,0,0,1-2.82-1.45,1,1,0,0,1-.22-1.22.83.83,0,0,1,1.16-.33c.87.38,1.72.82,2.56,1.26a.87.87,0,0,1,.46,1.14A1,1,0,0,1,254.82,106.89Z"/><path fill="#090707" d="M166.73,67.92a7.48,7.48,0,0,1,6.69,1.19c1.1.76,1.09,1.11.23,2.28a4.22,4.22,0,0,1-1.86-.94,5,5,0,0,0-5.62,0c-.64.38-1.36,1.11-1.94.08s.37-1.35,1-1.76A17,17,0,0,1,166.73,67.92Z"/><path fill="#0d0909" d="M167.72,73.38a3,3,0,0,0,2.65-.61c.47-.42,1-.69,1.52-.11s.12,1.19-.35,1.66a5.31,5.31,0,0,1-4.9.84A1.07,1.07,0,0,1,165.9,74c.13-.66.64-.73,1.19-.67C167.35,73.31,167.6,73.36,167.72,73.38Z"/><path fill="#0c0a0a" d="M291.23,450.09c0,.86-.76,1.36-1.31.88a10.79,10.79,0,0,0-3.3-1.94.89.89,0,0,1-.57-1.09.8.8,0,0,1,1-.64,6.33,6.33,0,0,1,3.82,2A2.75,2.75,0,0,1,291.23,450.09Z"/><path fill="#090908" d="M228.33,481.89a5,5,0,0,1-1.64,3.36c-.49.38-1.06.57-1.55,0s-.25-1,.17-1.36a4.24,4.24,0,0,0,1.15-2.38c.13-.63.35-1.15,1.11-1S228.3,481.29,228.33,481.89Z"/><path fill="#efd99d" d="M207.81,140.69c-.12.37-.22.74-.37,1.09a4.27,4.27,0,0,1-.4.64c-.24-.06-.46,0-.59-.16-.65-.52-2-.18-2.1-1s.53-1.63.82-2.42c.75-.07,1.16.42,1.67.64A1.16,1.16,0,0,0,207.81,140.69Z"/><path fill="#dfc888" d="M209.21,139.23c.37-1,.63-1.7.92-2.5a22,22,0,0,0,2.91,1.32c0,.88-.68,1.41-.78,2.24C211.12,140.16,210.41,139.27,209.21,139.23Z"/><path fill="#e4cf96" d="M331.89,169a14.35,14.35,0,0,0-2.08,2.52l-2.68-1.76a.61.61,0,0,1,.08-.21c.67-.83,1.36-1.66,2-2.48A17,17,0,0,0,331.89,169Z"/><path fill="#f2dba0" d="M324.46,170.86l-1.23,2.43-2.94-1.54c.43-1,1.29-1.77,1.55-2.93l2.1,1.13Z"/><circle cx="61.82" cy="77.82" r="1.77" fill="#e3ae27"/><circle cx="290.06" cy="48.6" r="1.77" fill="#e3ae27"/><circle cx="158.32" cy="30.54" r="1.77" fill="#e3ae27"/><circle cx="326.54" cy="112.35" r="1.77" fill="#e3ae27"/></g></g></svg>