<?xml version="1.0" encoding="UTF-8" standalone="no"?><!-- Generator: Gravit.io --><svg xmlns="http://www.w3.org/2000/svg" xmlns:xlink="http://www.w3.org/1999/xlink" style="isolation:isolate" viewBox="299.618 58.26 75.382 75.382" width="75.382pt" height="75.382pt"><g><path d=" M 317.747 90.532 C 316.835 91.444 315.355 91.444 314.443 90.532 C 313.531 89.62 313.531 88.141 314.443 87.229 C 315.355 86.316 316.835 86.317 317.747 87.229 C 318.659 88.141 318.659 89.62 317.747 90.532 Z " fill="rgb(0,0,0)"/><path d=" M 331.89 104.674 C 330.978 105.586 329.498 105.586 328.586 104.674 C 327.674 103.762 327.674 102.283 328.586 101.371 C 329.498 100.458 330.977 100.459 331.889 101.371 C 332.801 102.283 332.802 103.762 331.89 104.674 Z " fill="rgb(0,0,0)"/><path d=" M 346.031 118.816 C 345.119 119.729 343.641 119.729 342.729 118.816 C 341.815 117.904 341.815 116.425 342.729 115.513 C 343.641 114.601 345.119 114.601 346.031 115.513 C 346.943 116.425 346.943 117.904 346.031 118.816 Z " fill="rgb(0,0,0)"/><path d=" M 303.605 104.674 C 302.693 105.586 301.214 105.586 300.302 104.674 C 299.39 103.762 299.39 102.283 300.302 101.371 C 301.214 100.458 302.692 100.459 303.604 101.371 C 304.517 102.283 304.518 103.762 303.605 104.674 Z " fill="rgb(0,0,0)"/><path d=" M 317.747 118.816 C 316.835 119.729 315.355 119.729 314.443 118.816 C 313.531 117.904 313.531 116.425 314.443 115.513 C 315.355 114.601 316.835 114.601 317.747 115.513 C 318.659 116.425 318.659 117.904 317.747 118.816 Z " fill="rgb(0,0,0)"/><path d=" M 331.89 132.958 C 330.978 133.871 329.498 133.871 328.586 132.958 C 327.674 132.046 327.674 130.567 328.586 129.655 C 329.498 128.743 330.977 128.743 331.889 129.655 C 332.801 130.567 332.802 132.046 331.89 132.958 Z " fill="rgb(0,0,0)"/><path d=" M 346.031 62.248 C 345.119 63.16 343.641 63.16 342.729 62.248 C 341.815 61.335 341.815 59.856 342.729 58.944 C 343.641 58.032 345.119 58.033 346.031 58.945 C 346.943 59.857 346.943 61.335 346.031 62.248 Z " fill="rgb(0,0,0)"/><path d=" M 360.174 76.39 C 359.262 77.302 357.782 77.302 356.87 76.39 C 355.958 75.478 355.958 73.999 356.87 73.086 C 357.782 72.174 359.261 72.175 360.174 73.087 C 361.086 73.999 361.086 75.478 360.174 76.39 Z " fill="rgb(0,0,0)"/><path d=" M 374.315 90.532 C 373.403 91.444 371.925 91.444 371.013 90.532 C 370.1 89.62 370.1 88.141 371.013 87.229 C 371.925 86.316 373.403 86.317 374.315 87.229 C 375.228 88.141 375.229 89.62 374.315 90.532 Z " fill="rgb(0,0,0)"/><path d=" M 331.89 76.39 C 330.978 77.302 329.498 77.302 328.586 76.39 C 327.674 75.478 327.674 73.999 328.586 73.086 C 329.498 72.174 330.977 72.175 331.889 73.087 C 332.801 73.999 332.802 75.478 331.89 76.39 Z " fill="rgb(0,0,0)"/><path d=" M 346.031 90.532 C 345.119 91.444 343.641 91.444 342.729 90.532 C 341.815 89.62 341.815 88.141 342.729 87.229 C 343.641 86.316 345.119 86.317 346.031 87.229 C 346.943 88.141 346.943 89.62 346.031 90.532 Z " fill="rgb(0,0,0)"/><path d=" M 360.174 104.674 C 359.262 105.586 357.782 105.586 356.87 104.674 C 355.958 103.762 355.958 102.283 356.87 101.371 C 357.782 100.458 359.261 100.459 360.174 101.371 C 361.086 102.283 361.086 103.762 360.174 104.674 Z " fill="rgb(0,0,0)"/></g></svg>