<?xml version="1.0" encoding="UTF-8" standalone="no"?><!-- Generator: Gravit.io --><svg xmlns="http://www.w3.org/2000/svg" xmlns:xlink="http://www.w3.org/1999/xlink" style="isolation:isolate" viewBox="69.448 -78.215 156.431 156.431" width="156.431pt" height="156.431pt"><g><path d=" M 75.096 0 L 147.664 72.568 L 220.231 0 L 147.664 -72.567 L 75.096 0 Z  M 147.664 78.216 L 69.448 0 L 147.664 -78.215 L 225.879 0 L 147.664 78.216 Z " fill="rgb(0,0,0)"/><path d=" M 91.787 0 L 147.664 55.877 L 203.54 0 L 147.664 -55.876 L 91.787 0 Z  M 147.664 61.524 L 86.139 0 L 147.664 -61.524 L 209.188 0 L 147.664 61.524 Z " fill="rgb(0,0,0)"/><path d=" M 109.968 0 L 147.664 37.696 L 185.359 0 L 147.664 -37.695 L 109.968 0 Z  M 147.664 43.344 L 104.32 0 L 147.664 -43.343 L 191.007 0 L 147.664 43.344 Z " fill="rgb(0,0,0)"/></g></svg>