<?xml version="1.0" encoding="UTF-8" standalone="no"?><!-- Generator: Gravit.io --><svg xmlns="http://www.w3.org/2000/svg" xmlns:xlink="http://www.w3.org/1999/xlink" style="isolation:isolate" viewBox="302.338 321.44 109.499 97.945" width="109.499pt" height="97.945pt"><g><path d=" M 410.44 419.385 L 302.338 419.385 L 302.338 322.837 C 302.338 322.065 302.963 321.44 303.734 321.44 C 304.506 321.44 305.131 322.065 305.131 322.837 L 305.131 416.592 L 410.44 416.592 C 411.212 416.592 411.837 417.217 411.837 417.988 C 411.837 418.76 411.212 419.385 410.44 419.385 Z " fill="rgb(0,0,0)"/><path d=" M 410.44 411.056 L 311.679 411.056 L 311.679 322.837 C 311.679 322.065 312.304 321.44 313.075 321.44 C 313.847 321.44 314.472 322.065 314.472 322.837 L 314.472 408.263 L 410.44 408.263 C 411.212 408.263 411.837 408.888 411.837 409.659 C 411.837 410.431 411.212 411.056 410.44 411.056 Z " fill="rgb(0,0,0)"/><path d=" M 410.44 402.727 L 321.02 402.727 L 321.02 322.837 C 321.02 322.065 321.645 321.44 322.416 321.44 C 323.188 321.44 323.813 322.065 323.813 322.837 L 323.813 399.934 L 410.44 399.934 C 411.212 399.934 411.837 400.559 411.837 401.33 C 411.837 402.102 411.212 402.727 410.44 402.727 Z " fill="rgb(0,0,0)"/><path d=" M 410.44 394.396 L 330.36 394.396 L 330.36 322.837 C 330.36 322.065 330.985 321.44 331.757 321.44 C 332.528 321.44 333.153 322.065 333.153 322.837 L 333.153 391.604 L 410.44 391.604 C 411.212 391.604 411.837 392.229 411.837 393 C 411.837 393.771 411.212 394.396 410.44 394.396 Z " fill="rgb(0,0,0)"/><path d=" M 410.44 386.067 L 339.702 386.067 L 339.702 322.837 C 339.702 322.065 340.327 321.44 341.098 321.44 C 341.87 321.44 342.495 322.065 342.495 322.837 L 342.495 383.274 L 410.44 383.274 C 411.212 383.274 411.837 383.899 411.837 384.671 C 411.837 385.442 411.212 386.067 410.44 386.067 Z " fill="rgb(0,0,0)"/></g></svg>