<?xml version="1.0" encoding="UTF-8" standalone="no"?><!-- Generator: Gravit.io --><svg xmlns="http://www.w3.org/2000/svg" xmlns:xlink="http://www.w3.org/1999/xlink" style="isolation:isolate" viewBox="558.896 24.641 109.984 50.719" width="109.984pt" height="50.719pt"><g><path d=" M 666.999 75.359 C 666.984 75.359 666.97 75.359 666.955 75.359 C 666.184 75.335 665.578 74.69 665.603 73.919 C 666.072 58.779 666.086 43.021 666.087 27.735 C 630.088 27.735 596.016 27.731 560.28 27.434 C 559.509 27.427 558.889 26.797 558.896 26.025 C 558.901 25.258 559.526 24.641 560.292 24.641 C 560.296 24.641 560.3 24.641 560.304 24.641 C 596.489 24.942 630.974 24.942 667.483 24.942 L 668.88 24.942 L 668.88 26.338 C 668.88 42.081 668.88 58.36 668.394 74.006 C 668.37 74.763 667.75 75.359 666.999 75.359 Z " fill="rgb(0,0,0)"/><path d=" M 657.657 75.164 C 656.894 75.164 656.271 74.551 656.261 73.786 C 656.093 60.836 656.087 48.087 656.087 35.735 C 624.523 35.735 592.017 35.735 560.293 35.763 L 560.292 35.763 C 559.521 35.763 558.896 35.139 558.896 34.368 C 558.895 33.597 559.52 32.971 560.291 32.97 C 592.482 32.942 625.483 32.942 657.483 32.942 L 658.88 32.942 L 658.88 34.338 C 658.88 47.116 658.88 60.329 659.054 73.75 C 659.063 74.521 658.446 75.154 657.676 75.164 C 657.669 75.164 657.663 75.164 657.657 75.164 Z " fill="rgb(0,0,0)"/><path d=" M 648.316 75.182 C 648.31 75.182 648.302 75.182 648.294 75.182 C 647.522 75.17 646.907 74.535 646.92 73.763 C 647.079 63.818 647.086 53.224 647.087 43.735 C 618.52 43.735 589.023 43.741 560.31 44.092 C 559.578 44.106 558.905 43.484 558.896 42.713 C 558.886 41.941 559.504 41.309 560.274 41.299 C 589.475 40.942 619.473 40.942 648.483 40.942 L 649.88 40.942 L 649.88 42.338 C 649.88 52.187 649.88 63.35 649.713 73.808 C 649.7 74.572 649.078 75.182 648.316 75.182 Z " fill="rgb(0,0,0)"/><path d=" M 638.974 75.322 C 638.32 75.322 637.736 74.86 637.605 74.194 C 636.772 69.96 636.985 65.872 637.191 61.919 C 637.346 58.95 637.505 55.892 637.228 52.735 C 612.049 52.735 586.047 52.73 560.275 52.422 C 559.504 52.413 558.887 51.78 558.896 51.009 C 558.904 50.243 559.528 49.629 560.292 49.629 C 560.297 49.629 560.303 49.629 560.309 49.629 C 586.492 49.942 612.923 49.942 638.483 49.942 L 639.717 49.942 L 639.869 51.165 C 640.349 55.002 640.162 58.592 639.98 62.065 C 639.774 66.022 639.58 69.76 640.346 73.655 C 640.495 74.412 640.002 75.147 639.245 75.295 C 639.154 75.313 639.063 75.322 638.974 75.322 Z " fill="rgb(0,0,0)"/><path d=" M 629.634 75.356 C 628.884 75.356 628.264 74.761 628.239 74.005 C 628.102 69.799 628.088 65.222 628.087 60.735 C 605.553 60.735 583.014 60.735 560.293 60.752 L 560.292 60.752 C 559.521 60.752 558.896 60.127 558.896 59.356 C 558.895 58.584 559.52 57.959 560.291 57.959 C 583.482 57.942 606.483 57.942 629.483 57.942 L 630.88 57.942 L 630.88 59.338 C 630.88 64.244 630.88 69.315 631.03 73.914 C 631.056 74.685 630.451 75.33 629.681 75.356 C 629.665 75.356 629.649 75.356 629.634 75.356 Z " fill="rgb(0,0,0)"/></g></svg>