<?xml version="1.0" encoding="UTF-8" standalone="no"?><!-- Generator: Gravit.io --><svg xmlns="http://www.w3.org/2000/svg" xmlns:xlink="http://www.w3.org/1999/xlink" style="isolation:isolate" viewBox="421.504 223.543 166.483 24.5" width="166.483pt" height="24.5pt"><g><path d=" M 578.987 248.043 L 566.995 236.051 L 579.503 223.543 L 587.987 223.543 L 575.479 236.051 L 587.473 248.043 L 578.987 248.043 Z " fill="rgb(0,0,0)"/><path d=" M 558.237 248.043 L 546.245 236.051 L 558.753 223.543 L 567.237 223.543 L 554.729 236.051 L 566.723 248.043 L 558.237 248.043 Z " fill="rgb(0,0,0)"/><path d=" M 537.487 248.043 L 525.495 236.051 L 538.003 223.543 L 546.487 223.543 L 533.979 236.051 L 545.973 248.043 L 537.487 248.043 Z " fill="rgb(0,0,0)"/><path d=" M 516.737 248.043 L 504.745 236.051 L 517.253 223.543 L 525.737 223.543 L 513.229 236.051 L 525.222 248.043 L 516.737 248.043 Z " fill="rgb(0,0,0)"/><path d=" M 495.746 248.043 L 483.754 236.051 L 496.261 223.543 L 504.745 223.543 L 492.238 236.051 L 504.23 248.043 L 495.746 248.043 Z " fill="rgb(0,0,0)"/><path d=" M 474.996 248.043 L 463.004 236.051 L 475.511 223.543 L 483.995 223.543 L 471.488 236.051 L 483.48 248.043 L 474.996 248.043 Z " fill="rgb(0,0,0)"/><path d=" M 454.246 248.043 L 442.254 236.051 L 454.761 223.543 L 463.245 223.543 L 450.738 236.051 L 462.73 248.043 L 454.246 248.043 Z " fill="rgb(0,0,0)"/><path d=" M 433.496 248.043 L 421.504 236.051 L 434.011 223.543 L 442.495 223.543 L 429.988 236.051 L 441.98 248.043 L 433.496 248.043 Z " fill="rgb(0,0,0)"/></g></svg>