<?xml version="1.0" encoding="UTF-8" standalone="no"?><!-- Generator: Gravit.io --><svg xmlns="http://www.w3.org/2000/svg" xmlns:xlink="http://www.w3.org/1999/xlink" style="isolation:isolate" viewBox="517.414 338.639 45.006 41.441" width="45.006pt" height="41.441pt"><g><path d=" M 558.216 347.047 C 555.895 347.047 554.012 345.165 554.012 342.843 C 554.012 340.521 555.895 338.639 558.216 338.639 C 560.538 338.639 562.42 340.521 562.42 342.843 C 562.42 345.165 560.538 347.047 558.216 347.047 Z " fill="rgb(0,0,0)"/><path d=" M 558.216 363.563 C 555.895 363.563 554.012 361.682 554.012 359.359 C 554.012 357.037 555.895 355.155 558.216 355.155 C 560.538 355.155 562.42 357.037 562.42 359.359 C 562.42 361.682 560.538 363.563 558.216 363.563 Z " fill="rgb(0,0,0)"/><path d=" M 558.216 380.08 C 555.895 380.08 554.012 378.197 554.012 375.876 C 554.012 373.554 555.895 371.672 558.216 371.672 C 560.538 371.672 562.42 373.554 562.42 375.876 C 562.42 378.197 560.538 380.08 558.216 380.08 Z " fill="rgb(0,0,0)"/><path d=" M 539.917 347.047 C 537.596 347.047 535.713 345.165 535.713 342.843 C 535.713 340.521 537.596 338.639 539.917 338.639 C 542.239 338.639 544.121 340.521 544.121 342.843 C 544.121 345.165 542.239 347.047 539.917 347.047 Z " fill="rgb(0,0,0)"/><path d=" M 539.917 363.563 C 537.596 363.563 535.713 361.682 535.713 359.359 C 535.713 357.037 537.596 355.155 539.917 355.155 C 542.239 355.155 544.121 357.037 544.121 359.359 C 544.121 361.682 542.239 363.563 539.917 363.563 Z " fill="rgb(0,0,0)"/><path d=" M 539.917 380.08 C 537.596 380.08 535.713 378.197 535.713 375.876 C 535.713 373.554 537.596 371.672 539.917 371.672 C 542.239 371.672 544.121 373.554 544.121 375.876 C 544.121 378.197 542.239 380.08 539.917 380.08 Z " fill="rgb(0,0,0)"/><path d=" M 521.618 347.047 C 519.297 347.047 517.414 345.165 517.414 342.843 C 517.414 340.521 519.297 338.639 521.618 338.639 C 523.94 338.639 525.822 340.521 525.822 342.843 C 525.822 345.165 523.94 347.047 521.618 347.047 Z " fill="rgb(0,0,0)"/><path d=" M 521.618 363.563 C 519.297 363.563 517.414 361.682 517.414 359.359 C 517.414 357.037 519.297 355.155 521.618 355.155 C 523.94 355.155 525.822 357.037 525.822 359.359 C 525.822 361.682 523.94 363.563 521.618 363.563 Z " fill="rgb(0,0,0)"/><path d=" M 521.618 380.08 C 519.297 380.08 517.414 378.197 517.414 375.876 C 517.414 373.554 519.297 371.672 521.618 371.672 C 523.94 371.672 525.822 373.554 525.822 375.876 C 525.822 378.197 523.94 380.08 521.618 380.08 Z " fill="rgb(0,0,0)"/></g></svg>