<?xml version="1.0" encoding="UTF-8" standalone="no"?><!-- Generator: Gravit.io --><svg xmlns="http://www.w3.org/2000/svg" xmlns:xlink="http://www.w3.org/1999/xlink" style="isolation:isolate" viewBox="222.656 186.922 64 64.001" width="64pt" height="64.001pt"><g><path d=" M 224.656 190.922 C 225.182 190.922 225.698 190.709 226.07 190.337 C 226.442 189.964 226.656 189.449 226.656 188.922 C 226.656 188.396 226.442 187.881 226.07 187.508 C 225.698 187.136 225.182 186.922 224.656 186.922 C 224.129 186.922 223.614 187.136 223.242 187.508 C 222.869 187.881 222.656 188.396 222.656 188.922 C 222.656 189.449 222.869 189.964 223.242 190.337 C 223.614 190.709 224.129 190.922 224.656 190.922 Z " fill="rgb(70,73,76)"/><path d=" M 232.156 190.922 C 233.26 190.922 234.156 190.027 234.156 188.922 C 234.156 187.818 233.26 186.922 232.156 186.922 C 231.051 186.922 230.156 187.818 230.156 188.922 C 230.156 190.027 231.051 190.922 232.156 190.922 Z  M 239.656 190.922 C 240.76 190.922 241.656 190.027 241.656 188.922 C 241.656 187.818 240.76 186.922 239.656 186.922 C 238.551 186.922 237.656 187.818 237.656 188.922 C 237.656 190.027 238.551 190.922 239.656 190.922 Z  M 247.156 190.922 C 248.26 190.922 249.156 190.027 249.156 188.922 C 249.156 187.818 248.26 186.922 247.156 186.922 C 246.051 186.922 245.156 187.818 245.156 188.922 C 245.156 190.027 246.051 190.922 247.156 190.922 Z  M 254.656 190.922 C 255.76 190.922 256.656 190.027 256.656 188.922 C 256.656 187.818 255.76 186.922 254.656 186.922 C 253.551 186.922 252.656 187.818 252.656 188.922 C 252.656 190.027 253.551 190.922 254.656 190.922 Z  M 262.156 190.922 C 263.26 190.922 264.156 190.027 264.156 188.922 C 264.156 187.818 263.26 186.922 262.156 186.922 C 261.051 186.922 260.156 187.818 260.156 188.922 C 260.156 190.027 261.051 190.922 262.156 190.922 Z  M 269.656 190.922 C 270.76 190.922 271.656 190.027 271.656 188.922 C 271.656 187.818 270.76 186.922 269.656 186.922 C 268.551 186.922 267.656 187.818 267.656 188.922 C 267.656 190.027 268.551 190.922 269.656 190.922 Z  M 277.156 190.922 C 278.26 190.922 279.156 190.027 279.156 188.922 C 279.156 187.818 278.26 186.922 277.156 186.922 C 276.051 186.922 275.156 187.818 275.156 188.922 C 275.156 190.027 276.051 190.922 277.156 190.922 Z " fill="rgb(70,73,76)"/><path d=" M 284.656 190.922 C 285.182 190.922 285.698 190.709 286.07 190.337 C 286.442 189.964 286.656 189.449 286.656 188.922 C 286.656 188.396 286.442 187.881 286.07 187.508 C 285.698 187.136 285.182 186.922 284.656 186.922 C 284.129 186.922 283.614 187.136 283.242 187.508 C 282.869 187.881 282.656 188.396 282.656 188.922 C 282.656 189.449 282.869 189.964 283.242 190.337 C 283.614 190.709 284.129 190.922 284.656 190.922 Z " fill="rgb(70,73,76)"/><path d=" M 224.656 197.59 C 225.182 197.59 225.698 197.377 226.07 197.005 C 226.442 196.632 226.656 196.117 226.656 195.59 C 226.656 195.064 226.442 194.549 226.07 194.176 C 225.698 193.804 225.182 193.59 224.656 193.59 C 224.129 193.59 223.614 193.804 223.242 194.176 C 222.869 194.549 222.656 195.064 222.656 195.59 C 222.656 196.117 222.869 196.632 223.242 197.005 C 223.614 197.377 224.129 197.59 224.656 197.59 Z " fill="rgb(70,73,76)"/><path d=" M 232.156 197.59 C 233.26 197.59 234.156 196.695 234.156 195.59 C 234.156 194.486 233.26 193.59 232.156 193.59 C 231.051 193.59 230.156 194.486 230.156 195.59 C 230.156 196.695 231.051 197.59 232.156 197.59 Z  M 239.656 197.59 C 240.76 197.59 241.656 196.695 241.656 195.59 C 241.656 194.486 240.76 193.59 239.656 193.59 C 238.551 193.59 237.656 194.486 237.656 195.59 C 237.656 196.695 238.551 197.59 239.656 197.59 Z  M 247.156 197.59 C 248.26 197.59 249.156 196.695 249.156 195.59 C 249.156 194.486 248.26 193.59 247.156 193.59 C 246.051 193.59 245.156 194.486 245.156 195.59 C 245.156 196.695 246.051 197.59 247.156 197.59 Z  M 254.656 197.59 C 255.76 197.59 256.656 196.695 256.656 195.59 C 256.656 194.486 255.76 193.59 254.656 193.59 C 253.551 193.59 252.656 194.486 252.656 195.59 C 252.656 196.695 253.551 197.59 254.656 197.59 Z  M 262.156 197.59 C 263.26 197.59 264.156 196.695 264.156 195.59 C 264.156 194.486 263.26 193.59 262.156 193.59 C 261.051 193.59 260.156 194.486 260.156 195.59 C 260.156 196.695 261.051 197.59 262.156 197.59 Z  M 269.656 197.59 C 270.76 197.59 271.656 196.695 271.656 195.59 C 271.656 194.486 270.76 193.59 269.656 193.59 C 268.551 193.59 267.656 194.486 267.656 195.59 C 267.656 196.695 268.551 197.59 269.656 197.59 Z  M 277.156 197.59 C 278.26 197.59 279.156 196.695 279.156 195.59 C 279.156 194.486 278.26 193.59 277.156 193.59 C 276.051 193.59 275.156 194.486 275.156 195.59 C 275.156 196.695 276.051 197.59 277.156 197.59 Z " fill="rgb(70,73,76)"/><path d=" M 284.656 197.59 C 285.182 197.59 285.698 197.377 286.07 197.005 C 286.442 196.632 286.656 196.117 286.656 195.59 C 286.656 195.064 286.442 194.549 286.07 194.176 C 285.698 193.804 285.182 193.59 284.656 193.59 C 284.129 193.59 283.614 193.804 283.242 194.176 C 282.869 194.549 282.656 195.064 282.656 195.59 C 282.656 196.117 282.869 196.632 283.242 197.005 C 283.614 197.377 284.129 197.59 284.656 197.59 Z " fill="rgb(70,73,76)"/><path d=" M 224.656 204.256 C 225.182 204.256 225.698 204.043 226.07 203.67 C 226.442 203.298 226.656 202.783 226.656 202.256 C 226.656 201.73 226.442 201.215 226.07 200.842 C 225.698 200.47 225.182 200.256 224.656 200.256 C 224.129 200.256 223.614 200.47 223.242 200.842 C 222.869 201.215 222.656 201.73 222.656 202.256 C 222.656 202.783 222.869 203.298 223.242 203.67 C 223.614 204.043 224.129 204.256 224.656 204.256 Z " fill="rgb(70,73,76)"/><path d=" M 232.156 204.256 L 232.156 204.256 C 233.26 204.256 234.156 203.361 234.156 202.256 C 234.156 201.152 233.26 200.256 232.156 200.256 C 231.051 200.256 230.156 201.152 230.156 202.256 C 230.156 203.361 231.051 204.256 232.156 204.256 Z  M 239.656 204.256 L 239.656 204.256 C 240.76 204.256 241.656 203.361 241.656 202.256 C 241.656 201.152 240.76 200.256 239.656 200.256 C 238.551 200.256 237.656 201.152 237.656 202.256 C 237.656 203.361 238.551 204.256 239.656 204.256 Z  M 247.156 204.256 L 247.156 204.256 C 248.26 204.256 249.156 203.361 249.156 202.256 C 249.156 201.152 248.26 200.256 247.156 200.256 C 246.051 200.256 245.156 201.152 245.156 202.256 C 245.156 203.361 246.051 204.256 247.156 204.256 Z  M 254.656 204.256 L 254.656 204.256 C 255.76 204.256 256.656 203.361 256.656 202.256 C 256.656 201.152 255.76 200.256 254.656 200.256 C 253.551 200.256 252.656 201.152 252.656 202.256 C 252.656 203.361 253.551 204.256 254.656 204.256 Z  M 262.156 204.256 L 262.156 204.256 C 263.26 204.256 264.156 203.361 264.156 202.256 C 264.156 201.152 263.26 200.256 262.156 200.256 C 261.051 200.256 260.156 201.152 260.156 202.256 C 260.156 203.361 261.051 204.256 262.156 204.256 Z  M 269.656 204.256 L 269.656 204.256 C 270.76 204.256 271.656 203.361 271.656 202.256 C 271.656 201.152 270.76 200.256 269.656 200.256 C 268.551 200.256 267.656 201.152 267.656 202.256 C 267.656 203.361 268.551 204.256 269.656 204.256 Z  M 277.156 204.256 L 277.156 204.256 C 278.26 204.256 279.156 203.361 279.156 202.256 C 279.156 201.152 278.26 200.256 277.156 200.256 C 276.051 200.256 275.156 201.152 275.156 202.256 C 275.156 203.361 276.051 204.256 277.156 204.256 Z " fill="rgb(70,73,76)"/><path d=" M 284.656 204.256 C 285.182 204.256 285.698 204.043 286.07 203.671 C 286.442 203.298 286.656 202.783 286.656 202.256 C 286.656 201.73 286.442 201.215 286.07 200.842 C 285.698 200.47 285.182 200.256 284.656 200.256 C 284.129 200.256 283.614 200.47 283.242 200.842 C 282.869 201.215 282.656 201.73 282.656 202.256 C 282.656 202.783 282.869 203.298 283.242 203.671 C 283.614 204.043 284.129 204.256 284.656 204.256 Z " fill="rgb(70,73,76)"/><path d=" M 224.656 210.922 C 225.182 210.922 225.698 210.709 226.07 210.337 C 226.442 209.964 226.656 209.449 226.656 208.922 C 226.656 208.396 226.442 207.881 226.07 207.508 C 225.698 207.136 225.182 206.922 224.656 206.922 C 224.129 206.922 223.614 207.136 223.242 207.508 C 222.869 207.881 222.656 208.396 222.656 208.922 C 222.656 209.449 222.869 209.964 223.242 210.337 C 223.614 210.709 224.129 210.922 224.656 210.922 Z " fill="rgb(70,73,76)"/><path d=" M 232.156 210.922 L 232.156 210.922 C 233.26 210.922 234.156 210.027 234.156 208.922 C 234.156 207.818 233.26 206.922 232.156 206.922 C 231.051 206.922 230.156 207.818 230.156 208.922 C 230.156 210.027 231.051 210.922 232.156 210.922 Z  M 239.656 210.922 L 239.656 210.922 C 240.76 210.922 241.656 210.027 241.656 208.922 C 241.656 207.818 240.76 206.922 239.656 206.922 C 238.551 206.922 237.656 207.818 237.656 208.922 C 237.656 210.027 238.551 210.922 239.656 210.922 Z  M 247.156 210.922 L 247.156 210.922 C 248.26 210.922 249.156 210.027 249.156 208.922 C 249.156 207.818 248.26 206.922 247.156 206.922 C 246.051 206.922 245.156 207.818 245.156 208.922 C 245.156 210.027 246.051 210.922 247.156 210.922 Z  M 254.656 210.922 L 254.656 210.922 C 255.76 210.922 256.656 210.027 256.656 208.922 C 256.656 207.818 255.76 206.922 254.656 206.922 C 253.551 206.922 252.656 207.818 252.656 208.922 C 252.656 210.027 253.551 210.922 254.656 210.922 Z  M 262.156 210.922 L 262.156 210.922 C 263.26 210.922 264.156 210.027 264.156 208.922 C 264.156 207.818 263.26 206.922 262.156 206.922 C 261.051 206.922 260.156 207.818 260.156 208.922 C 260.156 210.027 261.051 210.922 262.156 210.922 Z  M 269.656 210.922 L 269.656 210.922 C 270.76 210.922 271.656 210.027 271.656 208.922 C 271.656 207.818 270.76 206.922 269.656 206.922 C 268.551 206.922 267.656 207.818 267.656 208.922 C 267.656 210.027 268.551 210.922 269.656 210.922 Z  M 277.156 210.922 L 277.156 210.922 C 278.26 210.922 279.156 210.027 279.156 208.922 C 279.156 207.818 278.26 206.922 277.156 206.922 C 276.051 206.922 275.156 207.818 275.156 208.922 C 275.156 210.027 276.051 210.922 277.156 210.922 Z " fill="rgb(70,73,76)"/><path d=" M 284.656 210.922 C 285.182 210.922 285.698 210.709 286.07 210.337 C 286.442 209.964 286.656 209.449 286.656 208.922 C 286.656 208.396 286.442 207.881 286.07 207.508 C 285.698 207.136 285.182 206.922 284.656 206.922 C 284.129 206.922 283.614 207.136 283.242 207.508 C 282.869 207.881 282.656 208.396 282.656 208.922 C 282.656 209.449 282.869 209.964 283.242 210.337 C 283.614 210.709 284.129 210.922 284.656 210.922 Z " fill="rgb(70,73,76)"/><path d=" M 224.656 217.591 C 225.182 217.591 225.698 217.377 226.07 217.005 C 226.442 216.633 226.656 216.117 226.656 215.591 C 226.656 215.064 226.442 214.549 226.07 214.177 C 225.698 213.804 225.182 213.591 224.656 213.591 C 224.129 213.591 223.614 213.804 223.242 214.177 C 222.869 214.549 222.656 215.064 222.656 215.591 C 222.656 216.117 222.869 216.633 223.242 217.005 C 223.614 217.377 224.129 217.591 224.656 217.591 Z " fill="rgb(70,73,76)"/><path d=" M 232.156 217.591 L 232.156 217.591 C 233.26 217.591 234.156 216.695 234.156 215.591 C 234.156 214.486 233.26 213.591 232.156 213.591 C 231.051 213.591 230.156 214.486 230.156 215.591 C 230.156 216.695 231.051 217.591 232.156 217.591 Z  M 239.656 217.591 L 239.656 217.591 C 240.76 217.591 241.656 216.695 241.656 215.591 C 241.656 214.486 240.76 213.591 239.656 213.591 C 238.551 213.591 237.656 214.486 237.656 215.591 C 237.656 216.695 238.551 217.591 239.656 217.591 Z  M 247.156 217.591 L 247.156 217.591 C 248.26 217.591 249.156 216.695 249.156 215.591 C 249.156 214.486 248.26 213.591 247.156 213.591 C 246.051 213.591 245.156 214.486 245.156 215.591 C 245.156 216.695 246.051 217.591 247.156 217.591 Z  M 254.656 217.591 L 254.656 217.591 C 255.76 217.591 256.656 216.695 256.656 215.591 C 256.656 214.486 255.76 213.591 254.656 213.591 C 253.551 213.591 252.656 214.486 252.656 215.591 C 252.656 216.695 253.551 217.591 254.656 217.591 Z  M 262.156 217.591 L 262.156 217.591 C 263.26 217.591 264.156 216.695 264.156 215.591 C 264.156 214.486 263.26 213.591 262.156 213.591 C 261.051 213.591 260.156 214.486 260.156 215.591 C 260.156 216.695 261.051 217.591 262.156 217.591 Z  M 269.656 217.591 L 269.656 217.591 C 270.76 217.591 271.656 216.695 271.656 215.591 C 271.656 214.486 270.76 213.591 269.656 213.591 C 268.551 213.591 267.656 214.486 267.656 215.591 C 267.656 216.695 268.551 217.591 269.656 217.591 Z  M 277.156 217.591 L 277.156 217.591 C 278.26 217.591 279.156 216.695 279.156 215.591 C 279.156 214.486 278.26 213.591 277.156 213.591 C 276.051 213.591 275.156 214.486 275.156 215.591 C 275.156 216.695 276.051 217.591 277.156 217.591 Z " fill="rgb(70,73,76)"/><path d=" M 284.656 217.591 C 285.182 217.591 285.698 217.377 286.07 217.005 C 286.442 216.633 286.656 216.117 286.656 215.591 C 286.656 215.064 286.442 214.549 286.07 214.177 C 285.698 213.804 285.182 213.591 284.656 213.591 C 284.129 213.591 283.614 213.804 283.242 214.177 C 282.869 214.549 282.656 215.064 282.656 215.591 C 282.656 216.117 282.869 216.633 283.242 217.005 C 283.614 217.377 284.129 217.591 284.656 217.591 Z " fill="rgb(70,73,76)"/><path d=" M 224.656 224.257 C 225.182 224.257 225.698 224.043 226.07 223.671 C 226.442 223.299 226.656 222.783 226.656 222.257 C 226.656 221.73 226.442 221.215 226.07 220.843 C 225.698 220.47 225.182 220.257 224.656 220.257 C 224.129 220.257 223.614 220.47 223.242 220.843 C 222.869 221.215 222.656 221.73 222.656 222.257 C 222.656 222.783 222.869 223.299 223.242 223.671 C 223.614 224.043 224.129 224.257 224.656 224.257 Z " fill="rgb(70,73,76)"/><path d=" M 232.156 224.257 L 232.156 224.257 C 233.26 224.257 234.156 223.361 234.156 222.257 C 234.156 221.152 233.26 220.257 232.156 220.257 C 231.051 220.257 230.156 221.152 230.156 222.257 C 230.156 223.361 231.051 224.257 232.156 224.257 Z  M 239.656 224.257 L 239.656 224.257 C 240.76 224.257 241.656 223.361 241.656 222.257 C 241.656 221.152 240.76 220.257 239.656 220.257 C 238.551 220.257 237.656 221.152 237.656 222.257 C 237.656 223.361 238.551 224.257 239.656 224.257 Z  M 247.156 224.257 L 247.156 224.257 C 248.26 224.257 249.156 223.361 249.156 222.257 C 249.156 221.152 248.26 220.257 247.156 220.257 C 246.051 220.257 245.156 221.152 245.156 222.257 C 245.156 223.361 246.051 224.257 247.156 224.257 Z  M 254.656 224.257 L 254.656 224.257 C 255.76 224.257 256.656 223.361 256.656 222.257 C 256.656 221.152 255.76 220.257 254.656 220.257 C 253.551 220.257 252.656 221.152 252.656 222.257 C 252.656 223.361 253.551 224.257 254.656 224.257 Z  M 262.156 224.257 L 262.156 224.257 C 263.26 224.257 264.156 223.361 264.156 222.257 C 264.156 221.152 263.26 220.257 262.156 220.257 C 261.051 220.257 260.156 221.152 260.156 222.257 C 260.156 223.361 261.051 224.257 262.156 224.257 Z  M 269.656 224.257 L 269.656 224.257 C 270.76 224.257 271.656 223.361 271.656 222.257 C 271.656 221.152 270.76 220.257 269.656 220.257 C 268.551 220.257 267.656 221.152 267.656 222.257 C 267.656 223.361 268.551 224.257 269.656 224.257 Z  M 277.156 224.257 L 277.156 224.257 C 278.26 224.257 279.156 223.361 279.156 222.257 C 279.156 221.152 278.26 220.257 277.156 220.257 C 276.051 220.257 275.156 221.152 275.156 222.257 C 275.156 223.361 276.051 224.257 277.156 224.257 Z " fill="rgb(70,73,76)"/><path d=" M 284.656 224.257 C 285.182 224.257 285.698 224.043 286.07 223.671 C 286.442 223.299 286.656 222.783 286.656 222.257 C 286.656 221.73 286.442 221.215 286.07 220.843 C 285.698 220.47 285.182 220.257 284.656 220.257 C 284.129 220.257 283.614 220.47 283.242 220.843 C 282.869 221.215 282.656 221.73 282.656 222.257 C 282.656 222.783 282.869 223.299 283.242 223.671 C 283.614 224.043 284.129 224.257 284.656 224.257 Z " fill="rgb(70,73,76)"/><path d=" M 224.656 230.923 C 225.182 230.923 225.698 230.709 226.07 230.337 C 226.442 229.965 226.656 229.45 226.656 228.923 C 226.656 228.396 226.442 227.881 226.07 227.509 C 225.698 227.136 225.182 226.923 224.656 226.923 C 224.129 226.923 223.614 227.136 223.242 227.509 C 222.869 227.881 222.656 228.396 222.656 228.923 C 222.656 229.45 222.869 229.965 223.242 230.337 C 223.614 230.709 224.129 230.923 224.656 230.923 Z " fill="rgb(70,73,76)"/><path d=" M 232.156 230.923 L 232.156 230.923 C 233.26 230.923 234.156 230.027 234.156 228.923 C 234.156 227.818 233.26 226.923 232.156 226.923 C 231.051 226.923 230.156 227.818 230.156 228.923 C 230.156 230.027 231.051 230.923 232.156 230.923 Z  M 239.656 230.923 L 239.656 230.923 C 240.76 230.923 241.656 230.027 241.656 228.923 C 241.656 227.818 240.76 226.923 239.656 226.923 C 238.551 226.923 237.656 227.818 237.656 228.923 C 237.656 230.027 238.551 230.923 239.656 230.923 Z  M 247.156 230.923 L 247.156 230.923 C 248.26 230.923 249.156 230.027 249.156 228.923 C 249.156 227.818 248.26 226.923 247.156 226.923 C 246.051 226.923 245.156 227.818 245.156 228.923 C 245.156 230.027 246.051 230.923 247.156 230.923 Z  M 254.656 230.923 L 254.656 230.923 C 255.76 230.923 256.656 230.027 256.656 228.923 C 256.656 227.818 255.76 226.923 254.656 226.923 C 253.551 226.923 252.656 227.818 252.656 228.923 C 252.656 230.027 253.551 230.923 254.656 230.923 Z  M 262.156 230.923 L 262.156 230.923 C 263.26 230.923 264.156 230.027 264.156 228.923 C 264.156 227.818 263.26 226.923 262.156 226.923 C 261.051 226.923 260.156 227.818 260.156 228.923 C 260.156 230.027 261.051 230.923 262.156 230.923 Z  M 269.656 230.923 L 269.656 230.923 C 270.76 230.923 271.656 230.027 271.656 228.923 C 271.656 227.818 270.76 226.923 269.656 226.923 C 268.551 226.923 267.656 227.818 267.656 228.923 C 267.656 230.027 268.551 230.923 269.656 230.923 Z  M 277.156 230.923 L 277.156 230.923 C 278.26 230.923 279.156 230.027 279.156 228.923 C 279.156 227.818 278.26 226.923 277.156 226.923 C 276.051 226.923 275.156 227.818 275.156 228.923 C 275.156 230.027 276.051 230.923 277.156 230.923 Z " fill="rgb(70,73,76)"/><path d=" M 284.656 230.923 C 285.182 230.923 285.698 230.709 286.07 230.337 C 286.442 229.965 286.656 229.45 286.656 228.923 C 286.656 228.396 286.442 227.881 286.07 227.509 C 285.698 227.136 285.182 226.923 284.656 226.923 C 284.129 226.923 283.614 227.136 283.242 227.509 C 282.869 227.881 282.656 228.396 282.656 228.923 C 282.656 229.45 282.869 229.965 283.242 230.337 C 283.614 230.709 284.129 230.923 284.656 230.923 Z " fill="rgb(70,73,76)"/><path d=" M 224.656 237.591 C 225.182 237.591 225.698 237.377 226.07 237.005 C 226.442 236.633 226.656 236.117 226.656 235.591 C 226.656 235.064 226.442 234.549 226.07 234.177 C 225.698 233.804 225.182 233.591 224.656 233.591 C 224.129 233.591 223.614 233.804 223.242 234.177 C 222.869 234.549 222.656 235.064 222.656 235.591 C 222.656 236.117 222.869 236.633 223.242 237.005 C 223.614 237.377 224.129 237.591 224.656 237.591 Z " fill="rgb(70,73,76)"/><path d=" M 232.156 237.591 L 232.156 237.591 C 233.26 237.591 234.156 236.695 234.156 235.591 C 234.156 234.486 233.26 233.591 232.156 233.591 C 231.051 233.591 230.156 234.486 230.156 235.591 C 230.156 236.695 231.051 237.591 232.156 237.591 Z  M 239.656 237.591 L 239.656 237.591 C 240.76 237.591 241.656 236.695 241.656 235.591 C 241.656 234.486 240.76 233.591 239.656 233.591 C 238.551 233.591 237.656 234.486 237.656 235.591 C 237.656 236.695 238.551 237.591 239.656 237.591 Z  M 247.156 237.591 L 247.156 237.591 C 248.26 237.591 249.156 236.695 249.156 235.591 C 249.156 234.486 248.26 233.591 247.156 233.591 C 246.051 233.591 245.156 234.486 245.156 235.591 C 245.156 236.695 246.051 237.591 247.156 237.591 Z  M 254.656 237.591 L 254.656 237.591 C 255.76 237.591 256.656 236.695 256.656 235.591 C 256.656 234.486 255.76 233.591 254.656 233.591 C 253.551 233.591 252.656 234.486 252.656 235.591 C 252.656 236.695 253.551 237.591 254.656 237.591 Z  M 262.156 237.591 L 262.156 237.591 C 263.26 237.591 264.156 236.695 264.156 235.591 C 264.156 234.486 263.26 233.591 262.156 233.591 C 261.051 233.591 260.156 234.486 260.156 235.591 C 260.156 236.695 261.051 237.591 262.156 237.591 Z  M 269.656 237.591 L 269.656 237.591 C 270.76 237.591 271.656 236.695 271.656 235.591 C 271.656 234.486 270.76 233.591 269.656 233.591 C 268.551 233.591 267.656 234.486 267.656 235.591 C 267.656 236.695 268.551 237.591 269.656 237.591 Z  M 277.156 237.591 L 277.156 237.591 C 278.26 237.591 279.156 236.695 279.156 235.591 C 279.156 234.486 278.26 233.591 277.156 233.591 C 276.051 233.591 275.156 234.486 275.156 235.591 C 275.156 236.695 276.051 237.591 277.156 237.591 Z " fill="rgb(70,73,76)"/><path d=" M 284.656 237.591 C 285.182 237.591 285.698 237.377 286.07 237.005 C 286.442 236.633 286.656 236.117 286.656 235.591 C 286.656 235.064 286.442 234.549 286.07 234.177 C 285.698 233.804 285.182 233.591 284.656 233.591 C 284.129 233.591 283.614 233.804 283.242 234.177 C 282.869 234.549 282.656 235.064 282.656 235.591 C 282.656 236.117 282.869 236.633 283.242 237.005 C 283.614 237.377 284.129 237.591 284.656 237.591 Z " fill="rgb(70,73,76)"/><path d=" M 224.656 244.257 C 225.182 244.257 225.698 244.043 226.07 243.671 C 226.442 243.299 226.656 242.783 226.656 242.257 C 226.656 241.73 226.442 241.215 226.07 240.843 C 225.698 240.47 225.182 240.257 224.656 240.257 C 224.129 240.257 223.614 240.47 223.242 240.843 C 222.869 241.215 222.656 241.73 222.656 242.257 C 222.656 242.783 222.869 243.299 223.242 243.671 C 223.614 244.043 224.129 244.257 224.656 244.257 Z " fill="rgb(70,73,76)"/><path d=" M 232.156 244.257 L 232.156 244.257 C 233.26 244.257 234.156 243.361 234.156 242.257 C 234.156 241.152 233.26 240.257 232.156 240.257 C 231.051 240.257 230.156 241.152 230.156 242.257 C 230.156 243.361 231.051 244.257 232.156 244.257 Z  M 239.656 244.257 L 239.656 244.257 C 240.76 244.257 241.656 243.361 241.656 242.257 C 241.656 241.152 240.76 240.257 239.656 240.257 C 238.551 240.257 237.656 241.152 237.656 242.257 C 237.656 243.361 238.551 244.257 239.656 244.257 Z  M 247.156 244.257 L 247.156 244.257 C 248.26 244.257 249.156 243.361 249.156 242.257 C 249.156 241.152 248.26 240.257 247.156 240.257 C 246.051 240.257 245.156 241.152 245.156 242.257 C 245.156 243.361 246.051 244.257 247.156 244.257 Z  M 254.656 244.257 L 254.656 244.257 C 255.76 244.257 256.656 243.361 256.656 242.257 C 256.656 241.152 255.76 240.257 254.656 240.257 C 253.551 240.257 252.656 241.152 252.656 242.257 C 252.656 243.361 253.551 244.257 254.656 244.257 Z  M 262.156 244.257 L 262.156 244.257 C 263.26 244.257 264.156 243.361 264.156 242.257 C 264.156 241.152 263.26 240.257 262.156 240.257 C 261.051 240.257 260.156 241.152 260.156 242.257 C 260.156 243.361 261.051 244.257 262.156 244.257 Z  M 269.656 244.257 L 269.656 244.257 C 270.76 244.257 271.656 243.361 271.656 242.257 C 271.656 241.152 270.76 240.257 269.656 240.257 C 268.551 240.257 267.656 241.152 267.656 242.257 C 267.656 243.361 268.551 244.257 269.656 244.257 Z  M 277.156 244.257 L 277.156 244.257 C 278.26 244.257 279.156 243.361 279.156 242.257 C 279.156 241.152 278.26 240.257 277.156 240.257 C 276.051 240.257 275.156 241.152 275.156 242.257 C 275.156 243.361 276.051 244.257 277.156 244.257 Z " fill="rgb(70,73,76)"/><path d=" M 284.656 244.257 C 285.182 244.257 285.698 244.043 286.07 243.671 C 286.442 243.299 286.656 242.783 286.656 242.257 C 286.656 241.73 286.442 241.215 286.07 240.843 C 285.698 240.47 285.182 240.257 284.656 240.257 C 284.129 240.257 283.614 240.47 283.242 240.843 C 282.869 241.215 282.656 241.73 282.656 242.257 C 282.656 242.783 282.869 243.299 283.242 243.671 C 283.614 244.043 284.129 244.257 284.656 244.257 Z " fill="rgb(70,73,76)"/><path d=" M 224.656 250.923 C 225.182 250.923 225.698 250.709 226.07 250.337 C 226.442 249.965 226.656 249.45 226.656 248.923 C 226.656 248.396 226.442 247.881 226.07 247.509 C 225.698 247.136 225.182 246.923 224.656 246.923 C 224.129 246.923 223.614 247.136 223.242 247.509 C 222.869 247.881 222.656 248.396 222.656 248.923 C 222.656 249.45 222.869 249.965 223.242 250.337 C 223.614 250.709 224.129 250.923 224.656 250.923 Z " fill="rgb(70,73,76)"/><path d=" M 232.156 250.923 L 232.156 250.923 C 233.26 250.923 234.156 250.027 234.156 248.923 C 234.156 247.818 233.26 246.923 232.156 246.923 C 231.051 246.923 230.156 247.818 230.156 248.923 C 230.156 250.027 231.051 250.923 232.156 250.923 Z  M 239.656 250.923 L 239.656 250.923 C 240.76 250.923 241.656 250.027 241.656 248.923 C 241.656 247.818 240.76 246.923 239.656 246.923 C 238.551 246.923 237.656 247.818 237.656 248.923 C 237.656 250.027 238.551 250.923 239.656 250.923 Z  M 247.156 250.923 L 247.156 250.923 C 248.26 250.923 249.156 250.027 249.156 248.923 C 249.156 247.818 248.26 246.923 247.156 246.923 C 246.051 246.923 245.156 247.818 245.156 248.923 C 245.156 250.027 246.051 250.923 247.156 250.923 Z  M 254.656 250.923 L 254.656 250.923 C 255.76 250.923 256.656 250.027 256.656 248.923 C 256.656 247.818 255.76 246.923 254.656 246.923 C 253.551 246.923 252.656 247.818 252.656 248.923 C 252.656 250.027 253.551 250.923 254.656 250.923 Z  M 262.156 250.923 L 262.156 250.923 C 263.26 250.923 264.156 250.027 264.156 248.923 C 264.156 247.818 263.26 246.923 262.156 246.923 C 261.051 246.923 260.156 247.818 260.156 248.923 C 260.156 250.027 261.051 250.923 262.156 250.923 Z  M 269.656 250.923 L 269.656 250.923 C 270.76 250.923 271.656 250.027 271.656 248.923 C 271.656 247.818 270.76 246.923 269.656 246.923 C 268.551 246.923 267.656 247.818 267.656 248.923 C 267.656 250.027 268.551 250.923 269.656 250.923 Z  M 277.156 250.923 L 277.156 250.923 C 278.26 250.923 279.156 250.027 279.156 248.923 C 279.156 247.818 278.26 246.923 277.156 246.923 C 276.051 246.923 275.156 247.818 275.156 248.923 C 275.156 250.027 276.051 250.923 277.156 250.923 Z " fill="rgb(70,73,76)"/><path d=" M 284.656 250.923 C 285.182 250.923 285.698 250.709 286.07 250.337 C 286.442 249.965 286.656 249.45 286.656 248.923 C 286.656 248.396 286.442 247.881 286.07 247.509 C 285.698 247.136 285.182 246.923 284.656 246.923 C 284.129 246.923 283.614 247.136 283.242 247.509 C 282.869 247.881 282.656 248.396 282.656 248.923 C 282.656 249.45 282.869 249.965 283.242 250.337 C 283.614 250.709 284.129 250.923 284.656 250.923 Z " fill="rgb(70,73,76)"/></g></svg>