<?xml version="1.0" encoding="UTF-8" standalone="no"?><!-- Generator: Gravit.io --><svg xmlns="http://www.w3.org/2000/svg" xmlns:xlink="http://www.w3.org/1999/xlink" style="isolation:isolate" viewBox="308.317 265.887 39.222 39.222" width="39.222pt" height="39.222pt"><g><path d=" M 327.928 267.117 C 317.792 267.117 309.547 275.363 309.547 285.498 C 309.547 295.634 317.792 303.879 327.928 303.879 C 338.063 303.879 346.309 295.634 346.309 285.498 C 346.309 275.363 338.063 267.117 327.928 267.117 Z  M 327.928 305.109 C 317.114 305.109 308.317 296.312 308.317 285.498 C 308.317 274.685 317.114 265.887 327.928 265.887 C 338.742 265.887 347.539 274.685 347.539 285.498 C 347.539 296.312 338.742 305.109 327.928 305.109 Z " fill="rgb(0,0,0)"/><path d=" M 327.928 275.711 C 322.532 275.711 318.141 280.102 318.141 285.498 C 318.141 290.895 322.532 295.285 327.928 295.285 C 333.325 295.285 337.715 290.895 337.715 285.498 C 337.715 280.102 333.325 275.711 327.928 275.711 Z  M 327.928 296.516 C 321.853 296.516 316.911 291.573 316.911 285.498 C 316.911 279.423 321.853 274.48 327.928 274.48 C 334.003 274.48 338.946 279.423 338.946 285.498 C 338.946 291.573 334.003 296.516 327.928 296.516 Z " fill="rgb(0,0,0)"/></g></svg>