<?xml version="1.0" encoding="UTF-8" standalone="no"?><!-- Generator: Gravit.io --><svg xmlns="http://www.w3.org/2000/svg" xmlns:xlink="http://www.w3.org/1999/xlink" style="isolation:isolate" viewBox="128.69 205.631 106.498 105.616" width="106.498pt" height="105.616pt"><g><path d=" M 133.868 208.221 C 133.868 209.651 132.709 210.81 131.279 210.81 C 129.849 210.81 128.69 209.651 128.69 208.221 C 128.69 206.79 129.849 205.631 131.279 205.631 C 132.709 205.631 133.868 206.79 133.868 208.221 Z " fill="rgb(41,41,41)"/><path d=" M 167.642 208.221 C 167.642 209.651 166.482 210.81 165.052 210.81 C 163.622 210.81 162.463 209.651 162.463 208.221 C 162.463 206.79 163.622 205.631 165.052 205.631 C 166.482 205.631 167.642 206.79 167.642 208.221 Z " fill="rgb(41,41,41)"/><path d=" M 201.415 208.221 C 201.415 209.651 200.256 210.81 198.825 210.81 C 197.395 210.81 196.236 209.651 196.236 208.221 C 196.236 206.79 197.395 205.631 198.825 205.631 C 200.256 205.631 201.415 206.79 201.415 208.221 Z " fill="rgb(41,41,41)"/><path d=" M 235.188 208.221 C 235.188 209.651 234.028 210.81 232.598 210.81 C 231.168 210.81 230.009 209.651 230.009 208.221 C 230.009 206.79 231.168 205.631 232.598 205.631 C 234.028 205.631 235.188 206.79 235.188 208.221 Z " fill="rgb(41,41,41)"/><path d=" M 133.868 241.7 C 133.868 243.129 132.709 244.289 131.279 244.289 C 129.849 244.289 128.69 243.129 128.69 241.7 C 128.69 240.27 129.849 239.111 131.279 239.111 C 132.709 239.111 133.868 240.27 133.868 241.7 Z " fill="rgb(41,41,41)"/><path d=" M 167.642 241.7 C 167.642 243.129 166.482 244.289 165.052 244.289 C 163.622 244.289 162.463 243.129 162.463 241.7 C 162.463 240.27 163.622 239.111 165.052 239.111 C 166.482 239.111 167.642 240.27 167.642 241.7 Z " fill="rgb(41,41,41)"/><path d=" M 201.415 241.7 C 201.415 243.129 200.256 244.289 198.825 244.289 C 197.395 244.289 196.236 243.129 196.236 241.7 C 196.236 240.27 197.395 239.111 198.825 239.111 C 200.256 239.111 201.415 240.27 201.415 241.7 Z " fill="rgb(41,41,41)"/><path d=" M 235.188 241.7 C 235.188 243.129 234.028 244.289 232.598 244.289 C 231.168 244.289 230.009 243.129 230.009 241.7 C 230.009 240.27 231.168 239.111 232.598 239.111 C 234.028 239.111 235.188 240.27 235.188 241.7 Z " fill="rgb(41,41,41)"/><path d=" M 133.868 275.179 C 133.868 276.609 132.709 277.768 131.279 277.768 C 129.849 277.768 128.69 276.609 128.69 275.179 C 128.69 273.748 129.849 272.589 131.279 272.589 C 132.709 272.589 133.868 273.748 133.868 275.179 Z " fill="rgb(41,41,41)"/><path d=" M 167.642 275.179 C 167.642 276.609 166.482 277.768 165.052 277.768 C 163.622 277.768 162.463 276.609 162.463 275.179 C 162.463 273.748 163.622 272.589 165.052 272.589 C 166.482 272.589 167.642 273.748 167.642 275.179 Z " fill="rgb(41,41,41)"/><path d=" M 201.415 275.179 C 201.415 276.609 200.256 277.768 198.825 277.768 C 197.395 277.768 196.236 276.609 196.236 275.179 C 196.236 273.748 197.395 272.589 198.825 272.589 C 200.256 272.589 201.415 273.748 201.415 275.179 Z " fill="rgb(41,41,41)"/><path d=" M 235.188 275.179 C 235.188 276.609 234.028 277.768 232.598 277.768 C 231.168 277.768 230.009 276.609 230.009 275.179 C 230.009 273.748 231.168 272.589 232.598 272.589 C 234.028 272.589 235.188 273.748 235.188 275.179 Z " fill="rgb(41,41,41)"/><path d=" M 133.868 308.659 C 133.868 310.088 132.709 311.247 131.279 311.247 C 129.849 311.247 128.69 310.088 128.69 308.659 C 128.69 307.228 129.849 306.069 131.279 306.069 C 132.709 306.069 133.868 307.228 133.868 308.659 Z " fill="rgb(41,41,41)"/><path d=" M 167.642 308.659 C 167.642 310.088 166.482 311.247 165.052 311.247 C 163.622 311.247 162.463 310.088 162.463 308.659 C 162.463 307.228 163.622 306.069 165.052 306.069 C 166.482 306.069 167.642 307.228 167.642 308.659 Z " fill="rgb(41,41,41)"/><path d=" M 201.415 308.659 C 201.415 310.088 200.256 311.247 198.825 311.247 C 197.395 311.247 196.236 310.088 196.236 308.659 C 196.236 307.228 197.395 306.069 198.825 306.069 C 200.256 306.069 201.415 307.228 201.415 308.659 Z " fill="rgb(41,41,41)"/><path d=" M 235.188 308.659 C 235.188 310.088 234.028 311.247 232.598 311.247 C 231.168 311.247 230.009 310.088 230.009 308.659 C 230.009 307.228 231.168 306.069 232.598 306.069 C 234.028 306.069 235.188 307.228 235.188 308.659 Z " fill="rgb(41,41,41)"/></g></svg>