<?xml version="1.0" encoding="UTF-8" standalone="no"?><!-- Generator: Gravit.io --><svg xmlns="http://www.w3.org/2000/svg" xmlns:xlink="http://www.w3.org/1999/xlink" style="isolation:isolate" viewBox="130.467 256.849 21.004 21.004" width="21.004pt" height="21.004pt"><g><path d=" M 138.469 259.351 C 138.469 264.684 138.469 270.018 138.469 275.351 C 138.469 276.658 139.619 277.911 140.969 277.851 C 142.324 277.79 143.469 276.752 143.469 275.351 C 143.469 270.018 143.469 264.684 143.469 259.351 C 143.469 258.043 142.319 256.79 140.969 256.851 C 139.615 256.911 138.469 257.949 138.469 259.351 Z " fill="rgb(0,0,0)"/><path d=" M 132.969 269.851 C 138.303 269.851 143.636 269.851 148.969 269.851 C 150.277 269.851 151.53 268.7 151.469 267.351 C 151.409 265.996 150.371 264.851 148.969 264.851 C 143.636 264.851 138.303 264.851 132.969 264.851 C 131.662 264.851 130.409 266 130.469 267.351 C 130.53 268.705 131.568 269.851 132.969 269.851 Z " fill="rgb(0,0,0)"/></g></svg>