<?xml version="1.0" encoding="UTF-8" standalone="no"?><!-- Generator: Gravit.io --><svg xmlns="http://www.w3.org/2000/svg" xmlns:xlink="http://www.w3.org/1999/xlink" style="isolation:isolate" viewBox="514.445 -9.865 32.066 126.686" width="32.066pt" height="126.686pt"><g><path d=" M 546.511 9.054 L 514.445 -9.865 L 514.445 -4.296 L 546.511 14.623 L 546.511 9.054 Z " fill="rgb(0,0,0)"/><path d=" M 546.511 29.494 L 514.445 10.575 L 514.445 16.144 L 546.511 35.063 L 546.511 29.494 Z " fill="rgb(0,0,0)"/><path d=" M 546.511 49.934 L 514.445 31.014 L 514.445 36.583 L 546.511 55.502 L 546.511 49.934 Z " fill="rgb(0,0,0)"/><path d=" M 546.511 70.373 L 514.445 51.454 L 514.445 57.022 L 546.511 75.941 L 546.511 70.373 Z " fill="rgb(0,0,0)"/><path d=" M 546.511 90.813 L 514.445 71.894 L 514.445 77.462 L 546.511 96.381 L 546.511 90.813 Z " fill="rgb(0,0,0)"/><path d=" M 546.511 111.253 L 514.445 92.332 L 514.445 97.903 L 546.511 116.821 L 546.511 111.253 Z " fill="rgb(0,0,0)"/></g></svg>