<?xml version="1.0" encoding="UTF-8" standalone="no"?><!-- Generator: Gravit.io --><svg xmlns="http://www.w3.org/2000/svg" xmlns:xlink="http://www.w3.org/1999/xlink" style="isolation:isolate" viewBox="254.774 367.112 85 18.339" width="85pt" height="18.339pt"><path d=" M 255.011 368.758 L 268.837 385.097 C 269.026 385.321 269.307 385.451 269.6 385.451 C 269.893 385.451 270.174 385.321 270.363 385.097 L 283.43 369.66 L 296.501 385.097 C 296.69 385.321 296.971 385.451 297.264 385.451 C 297.557 385.451 297.838 385.321 298.027 385.097 L 311.094 369.66 L 324.171 385.098 C 324.36 385.321 324.641 385.451 324.934 385.451 C 325.227 385.451 325.508 385.321 325.697 385.098 L 339.537 368.759 C 339.894 368.337 339.842 367.706 339.42 367.349 C 338.999 366.992 338.368 367.045 338.011 367.466 L 324.934 382.904 L 311.857 367.466 C 311.668 367.242 311.387 367.112 311.094 367.112 C 310.801 367.112 310.52 367.243 310.331 367.466 L 297.264 382.903 L 284.193 367.466 C 284.003 367.242 283.723 367.112 283.43 367.112 C 283.137 367.112 282.856 367.243 282.666 367.466 L 269.6 382.903 L 256.537 367.466 C 256.18 367.045 255.549 366.992 255.128 367.349 C 254.706 367.706 254.654 368.337 255.011 368.758 Z " fill="rgb(0,0,0)"/></svg>