<svg xmlns="http://www.w3.org/2000/svg" data-name="Layer 1" viewBox="0 0 512 512"><path fill="#fff" d="M504.37,149.62c0,10.34-17.78,18.55-20,28.23-2.27,10,10.14,25.11,5.8,34.13s-24,8.83-30.26,16.71-1.65,26.95-9.55,33.27-25.34-2.47-34.49,2c-9,4.35-13,23.55-23,25.82-9.67,2.2-21.59-13.29-31.91-13.29s-22.25,15.49-31.91,13.29c-10-2.27-14-21.47-23-25.82s-26.63,4.33-34.49-2-3.24-25.36-9.55-33.27-25.84-7.55-30.26-16.71,8.07-24.13,5.81-34.13c-2.2-9.68-20-17.89-20-28.23s17.78-18.56,20-28.24c2.26-10-10.15-25.11-5.81-34.13s24-8.83,30.26-16.71,1.66-26.95,9.55-33.27,25.35,2.47,34.5-2,13-23.55,23-25.82c9.66-2.2,21.58,13.29,31.91,13.29S383.22,7.3,392.89,9.5c10,2.27,14,21.47,23,25.82,9.15,4.42,26.63-4.33,34.49,2s3.24,25.36,9.55,33.27,25.85,7.55,30.26,16.71-8.07,24.13-5.8,34.13C486.59,131.06,504.37,139.27,504.37,149.62Z"/><ellipse cx="117.7" cy="438.38" rx="7.5" ry="7.51" transform="rotate(-27.29 117.67 438.341)"/><path fill="#e4222e" d="M504.37,149.62c0,10.34-17.78,18.55-20,28.23-2.27,10,10.14,25.11,5.8,34.13s-24,8.83-30.26,16.71-1.65,26.95-9.55,33.27-25.34-2.47-34.49,2c-9,4.35-13,23.55-23,25.82-9.67,2.2-21.59-13.29-31.91-13.29s-22.25,15.49-31.91,13.29c-10-2.27-14-21.47-23-25.82s-26.63,4.33-34.49-2-3.24-25.36-9.55-33.27-25.84-7.55-30.26-16.71,8.07-24.13,5.81-34.13c-2.2-9.68-20-17.89-20-28.23s17.78-18.56,20-28.24c2.26-10-10.15-25.11-5.81-34.13s24-8.83,30.26-16.71,1.66-26.95,9.55-33.27,25.35,2.47,34.5-2,13-23.55,23-25.82c9.66-2.2,21.58,13.29,31.91,13.29S383.22,7.3,392.89,9.5c10,2.27,14,21.47,23,25.82,9.15,4.42,26.63-4.33,34.49,2s3.24,25.36,9.55,33.27,25.85,7.55,30.26,16.71-8.07,24.13-5.8,34.13C486.59,131.06,504.37,139.27,504.37,149.62Z"/><path fill="#e4222e" d="M504.37,149.62c0,10.34-17.78,18.55-20,28.23-2.27,10,10.14,25.11,5.8,34.13s-24,8.83-30.26,16.71-1.65,26.95-9.55,33.27-25.34-2.47-34.49,2c-9,4.35-13,23.55-23,25.82-9.67,2.2-21.59-13.29-31.91-13.29s-22.25,15.49-31.91,13.29c-10-2.27-14-21.47-23-25.82s-26.63,4.33-34.49-2-3.24-25.36-9.55-33.27-25.84-7.55-30.26-16.71,8.07-24.13,5.81-34.13c-2.2-9.68-20-17.89-20-28.23s17.78-18.56,20-28.24c2.26-10-10.15-25.11-5.81-34.13s24-8.83,30.26-16.71,1.66-26.95,9.55-33.27,25.35,2.47,34.5-2,13-23.55,23-25.82c9.66-2.2,21.58,13.29,31.91,13.29S383.22,7.3,392.89,9.5c10,2.27,14,21.47,23,25.82,9.15,4.42,26.63-4.33,34.49,2s3.24,25.36,9.55,33.27,25.85,7.55,30.26,16.71-8.07,24.13-5.8,34.13C486.59,131.06,504.37,139.27,504.37,149.62Z"/><path fill="#c0232c" d="M237.56 106.38c1.33-5.89-2.42-13.54-4.85-20.68a9.11 9.11 0 0 0-1 1.55c-2.88 6 1.61 14.65 4.3 22.72A12.35 12.35 0 0 0 237.56 106.38zM484.4 106.38a12.31 12.31 0 0 0 1.5 3.59c2.69-8.07 7.18-16.73 4.3-22.72a9.11 9.11 0 0 0-1-1.55C486.81 92.84 483.06 100.49 484.4 106.38zM459.94 213.69c-6.31 7.91-1.65 26.95-9.55 33.27s-25.34-2.47-34.49 1.95c-9 4.35-13 23.55-23 25.82-9.67 2.2-21.59-13.29-31.91-13.29s-22.25 15.49-31.91 13.29c-10-2.27-14-21.47-23-25.82s-26.63 4.33-34.49-1.95-3.24-25.36-9.55-33.27c-5.89-7.4-23.53-7.56-29.3-15.16-1.69 5-2.74 9.74-1 13.45 4.42 9.16 24 8.83 30.26 16.71s1.66 26.95 9.55 33.27 25.35-2.47 34.49 2 13 23.55 23 25.82c9.66 2.2 21.58-13.29 31.91-13.29s22.24 15.49 31.91 13.29c10-2.27 14-21.47 23-25.82 9.15-4.42 26.63 4.33 34.49-2s3.24-25.36 9.55-33.27 25.84-7.55 30.26-16.71c1.79-3.71.73-8.46-1-13.45C483.47 206.13 465.84 206.29 459.94 213.69zM237.56 162.85c-1.64-7.23-12-13.64-17.1-20.73a12.93 12.93 0 0 0-2.88 7.5c0 9 13.59 16.45 18.47 24.64C237.42 170.16 238.32 166.22 237.56 162.85zM484.4 162.85c-.77 3.37.14 7.31 1.5 11.41 4.89-8.19 18.47-15.6 18.47-24.64a13 13 0 0 0-2.87-7.5C496.37 149.21 486 155.62 484.4 162.85z"/><path fill="#fff" d="M323 194.92a7.5 7.5 0 0 1-5.23-12.87l76.84-74.83A7.5 7.5 0 0 1 405 118L328.19 192.8A7.5 7.5 0 0 1 323 194.92zM396.78 209.59a25.78 25.78 0 0 1-18-7.27 24.82 24.82 0 0 1 0-35.69 26 26 0 0 1 36.08 0 24.82 24.82 0 0 1 0 35.69h0A25.76 25.76 0 0 1 396.78 209.59zm0-35.26a10.82 10.82 0 0 0-7.57 3 9.81 9.81 0 0 0 0 14.2 10.94 10.94 0 0 0 15.15 0h0a9.83 9.83 0 0 0 0-14.2A10.86 10.86 0 0 0 396.78 174.33zM325.17 139.86a25.81 25.81 0 0 1-18-7.26 24.82 24.82 0 0 1 0-35.69 26 26 0 0 1 36.08 0 24.82 24.82 0 0 1 0 35.69h0A25.8 25.8 0 0 1 325.17 139.86zM338 127.22h0zM325.17 104.6a10.84 10.84 0 0 0-7.57 3.05 9.81 9.81 0 0 0 0 14.2 10.93 10.93 0 0 0 15.15 0 9.83 9.83 0 0 0 0-14.2A10.86 10.86 0 0 0 325.17 104.6z"/><path fill="#fdd8ae" d="M62.33,381.11a87.21,87.21,0,0,0,37.32-58.64l11.88-75.17a97.7,97.7,0,0,1,17-41.49L170,147.6a25.29,25.29,0,0,1,10.26-8.4l50.3-22.52a15.61,15.61,0,0,1,21.52,10.44v0a15.62,15.62,0,0,1-8.43,17.9l-33.7,16a27.63,27.63,0,0,0-15,18.61l-12.17,51.6a28.47,28.47,0,0,0,2,18.73l14.35,30.16A28.38,28.38,0,0,0,219.82,296h0a28.29,28.29,0,0,0,18.3-2.92l66.73-35.67a17.47,17.47,0,0,1,25.51,12.89h0a17.47,17.47,0,0,1-8.25,17.48l-53.7,39.64L227.52,364a187.82,187.82,0,0,1-40.81,27.8l-25,12.56-28.15,24.78"/><path fill="#fbbf7d" d="M328.86 265.29a17.45 17.45 0 0 1-6.75 7.46l-53.7 39.64L227.52 349a187.82 187.82 0 0 1-40.81 27.8l-25 12.56-28.15 24.78L72.58 373a85.87 85.87 0 0 1-10.25 8.1l71.26 48 28.15-24.78 25-12.56A187.82 187.82 0 0 0 227.52 364l40.89-36.58 53.7-39.64a17.51 17.51 0 0 0 6.75-22.46zM243.65 130.05l-33.7 16a27.63 27.63 0 0 0-15 18.61l-12.17 51.6a28.47 28.47 0 0 0 .24 14l11.93-50.57a27.63 27.63 0 0 1 15-18.61l33.7-16a15.62 15.62 0 0 0 8.43-17.9v0a15.35 15.35 0 0 0-1.45-3.67A15.59 15.59 0 0 1 243.65 130.05z"/><path fill="#2370b5" d="M7.63,366.65l39-36.15A17.22,17.22,0,0,1,71,332.1l98.56,110.14A17.24,17.24,0,0,1,168,466.56l-39,36.15Z"/><path fill="#0a56a4" d="M168,451.56l-28,26a14.72,14.72,0,0,1-21-1L15,359.87l-7.32,6.78L129,502.71l39-36.15a17.22,17.22,0,0,0,4.11-20.4A17.16,17.16,0,0,1,168,451.56Z"/><ellipse cx="117.7" cy="438.38" fill="#fff" rx="7.5" ry="7.51" transform="rotate(-27.29 117.67 438.341)"/></svg>