<svg xmlns="http://www.w3.org/2000/svg" data-name="Layer 1" viewBox="0 0 512 512"><circle cx="323.5" cy="332.25" r="7.5"/><circle cx="383.5" cy="347.25" r="7.5"/><circle cx="188.5" cy="332.25" r="7.5"/><circle cx="128.5" cy="347.25" r="7.5"/><circle cx="257" cy="326.75" r="7.5"/><path fill="#2370b5" d="M427,289c-3.73,10.87-7.84,21.29-12.24,31.25A390.82,390.82,0,0,1,360.15,409,412.63,412.63,0,0,1,256,500a412.63,412.63,0,0,1-104.14-91,390.89,390.89,0,0,1-54.61-88.77Q90.64,305.3,85,289c-27.3-79.6-23.27-148.63-17.29-187.32a451.67,451.67,0,0,0,124.8-48.27A428.25,428.25,0,0,0,256,9a430.26,430.26,0,0,0,89,58,449.15,449.15,0,0,0,99.29,34.71C449.65,139.68,454.22,209.63,427,289Z"/><path fill="#fed947" d="M256,458.22c-43.66-30.33-105.94-87.42-137.88-180.58A360.72,360.72,0,0,1,99.6,129.73,482.09,482.09,0,0,0,209.92,83.78,465.7,465.7,0,0,0,256,53.64a469,469,0,0,0,73.64,44.78,483.24,483.24,0,0,0,82.55,31.29,368.46,368.46,0,0,1-18.29,147.93C362,370.8,299.67,427.89,256,458.22Z"/><path fill="#fed947" d="M393.89,277.64c-3.78,11-8,21.55-12.54,31.58a356.14,356.14,0,0,1-59.93,91.36A379.85,379.85,0,0,1,256,458.22a379.85,379.85,0,0,1-65.41-57.64,356.21,356.21,0,0,1-59.93-91.37q-6.84-15-12.54-31.57A360.72,360.72,0,0,1,99.6,129.73,482.09,482.09,0,0,0,209.92,83.78,465.7,465.7,0,0,0,256,53.64a469,469,0,0,0,73.64,44.78,483.24,483.24,0,0,0,82.55,31.29A368.46,368.46,0,0,1,393.89,277.64Z"/><path fill="#2370b5" d="M216.83 229.62a7.51 7.51 0 0 1-5.3-12.81l77.27-77.3a7.5 7.5 0 0 1 10.61 10.61l-77.28 77.3A7.48 7.48 0 0 1 216.83 229.62zM288 240.45a24.47 24.47 0 1 1 17.29-7.17h0A24.3 24.3 0 0 1 288 240.45zm0-33.93a9.47 9.47 0 1 0 6.68 16.16h0A9.47 9.47 0 0 0 288 206.52zM224 176.48a24.47 24.47 0 1 1 17.3-7.17h0A24.3 24.3 0 0 1 224 176.48zm0-33.93a9.36 9.36 0 0 0-6.68 2.77 9.46 9.46 0 1 0 13.37 13.39h0a9.48 9.48 0 0 0 0-13.39A9.39 9.39 0 0 0 224 142.55z"/><path fill="#eb304a" d="M462.77,447.35q7.38,27.79,12.9,55.64a428.7,428.7,0,0,0-82.85-43.45q6.58-31.38,13.18-62.75l4.77-22.69a484.25,484.25,0,0,1,93.73,49.15A447.22,447.22,0,0,0,462.77,447.35Z"/><path fill="#c0232c" d="M439.83,424.29a464.51,464.51,0,0,0-47,35.25q6.58-31.38,13.18-62.75Z"/><path fill="#eb304a" d="M36.33,503q5.52-27.83,12.9-55.64A447.22,447.22,0,0,0,7.5,423.25a484.25,484.25,0,0,1,93.73-49.15l5.37,25.58q6.3,29.93,12.58,59.86A428.7,428.7,0,0,0,36.33,503Z"/><path fill="#c0232c" d="M119.18,459.54a464.51,464.51,0,0,0-47-35.25l34.43-24.61Q112.9,429.61,119.18,459.54Z"/><path fill="#0a56a4" d="M414.76,320.25A390.82,390.82,0,0,1,360.15,409q-19.26-5.17-38.72-8.43c-28.67-4.78-57.56-21.41-86.38-19.88-14.85.79-29.68,17.42-44.46,19.88q-19.44,3.26-38.72,8.43a390.89,390.89,0,0,1-54.61-88.77C201.15,281.62,310.87,281.62,414.76,320.25Z"/><path fill="#f8be32" d="M381.35,309.22a356.14,356.14,0,0,1-59.93,91.36,396.14,396.14,0,0,0-130.82,0,356.21,356.21,0,0,1-59.93-91.37A446.91,446.91,0,0,1,381.35,309.22Z"/><path fill="#e4222e" d="M439.83,424.29c-118.68-58.86-249-58.86-367.66,0-7.46-27.83-14.91-70.66-22.37-98.49,133.13-66,279.27-66,412.4,0C454.74,353.63,447.29,396.46,439.83,424.29Z"/><circle cx="323.5" cy="332.25" r="7.5" fill="#fff"/><circle cx="383.5" cy="347.25" r="7.5" fill="#fff"/><circle cx="188.5" cy="332.25" r="7.5" fill="#fff"/><circle cx="128.5" cy="347.25" r="7.5" fill="#fff"/><circle cx="257" cy="326.75" r="7.5" fill="#fff"/></svg>