<svg xmlns="http://www.w3.org/2000/svg" data-name="Layer 1" viewBox="0 0 512 512"><path fill="#fff" d="M377,38.91c34.09,18.9,14.82,93.3,33.47,124.5,19.24,32.18,93.46,50.77,94.05,88.29.58,36.36-72.35,57.39-91.36,91.49s1.56,107-29.71,125.68c-32.27,19.29-87.26-33.78-124.83-33.1-36.41.66-89.61,56.23-123.7,37.32s-14.82-93.3-33.47-124.5C82.25,316.41,8,297.82,7.44,260.3c-.58-36.36,72.35-57.39,91.36-91.49s-1.56-107,29.71-125.68c32.27-19.29,87.26,33.78,124.83,33.1C289.75,75.57,343,20,377,38.91Z"/><path fill="#fff" d="M471.72,131.77c19.56,33.79-35.29,87.79-35.32,124.19,0,37.56,54.16,91.73,35.36,124.27-18.21,31.54-91.7,12.07-125.58,31.58S292.47,504.53,256,504.5c-37.65,0-57.58-73.93-90.2-92.68C134.15,393.65,59.84,414,40.28,380.23S75.57,292.44,75.6,256c0-37.56-54.16-91.73-35.36-124.27,18.21-31.54,91.7-12.07,125.58-31.58S219.53,7.47,256,7.5c37.65,0,57.58,73.93,90.2,92.68C377.85,118.35,452.16,98,471.72,131.77Z"/><path fill="#e4222e" d="M377,38.91c34.09,18.9,14.82,93.3,33.47,124.5,19.24,32.18,93.46,50.77,94.05,88.29.58,36.36-72.35,57.39-91.36,91.49s1.56,107-29.71,125.68c-32.27,19.29-87.26-33.78-124.83-33.1-36.41.66-89.61,56.23-123.7,37.32s-14.82-93.3-33.47-124.5C82.25,316.41,8,297.82,7.44,260.3c-.58-36.36,72.35-57.39,91.36-91.49s-1.56-107,29.71-125.68c32.27-19.29,87.26,33.78,124.83,33.1C289.75,75.57,343,20,377,38.91Z"/><path fill="#c0232c" d="M413.2,313.19c-19,34.09,1.56,107-29.71,125.68-32.27,19.29-87.26-33.78-124.83-33.1-36.41.66-89.61,56.23-123.7,37.32s-14.82-93.3-33.47-124.5C84.93,290.9,27.7,273.27,11.65,245a29.54,29.54,0,0,0-4.21,15.3c.59,37.52,74.81,56.11,94.05,88.29,18.65,31.2-.62,105.6,33.47,124.5s87.29-36.66,123.7-37.32c37.57-.68,92.56,52.39,124.83,33.1,31.27-18.7,10.7-91.59,29.71-125.68s91.94-55.13,91.36-91.49a30.34,30.34,0,0,0-4.21-14.7C484.63,264.61,429.38,284.16,413.2,313.19Z"/><path fill="#874799" d="M471.72,131.77c19.56,33.79-35.29,87.79-35.32,124.19,0,37.56,54.16,91.73,35.36,124.27-18.21,31.54-91.7,12.07-125.58,31.58S292.47,504.53,256,504.5c-37.65,0-57.58-73.93-90.2-92.68C134.15,393.65,59.84,414,40.28,380.23S75.57,292.44,75.6,256c0-37.56-54.16-91.73-35.36-124.27,18.21-31.54,91.7-12.07,125.58-31.58S219.53,7.47,256,7.5c37.65,0,57.58,73.93,90.2,92.68C377.85,118.35,452.16,98,471.72,131.77Z"/><path fill="#fed947" d="M471.72,131.77c19.56,33.79-35.29,87.79-35.32,124.19,0,37.56,54.16,91.73,35.36,124.27-18.21,31.54-91.7,12.07-125.58,31.58S292.47,504.53,256,504.5c-37.65,0-57.58-73.93-90.2-92.68C134.15,393.65,59.84,414,40.28,380.23S75.57,292.44,75.6,256c0-37.56-54.16-91.73-35.36-124.27,18.21-31.54,91.7-12.07,125.58-31.58S219.53,7.47,256,7.5c37.65,0,57.58,73.93,90.2,92.68C377.85,118.35,452.16,98,471.72,131.77Z"/><path fill="#f8be32" d="M75.6 226c0-26.82-27.6-62.11-36.55-91.94C26 162.52 63.14 205.83 73.17 240.75A52.81 52.81 0 0 0 75.6 226zM436.4 226a55.79 55.79 0 0 0 2.43 15.29c10-33.95 47.29-77 34.43-106.42C464.39 165 436.43 200 436.4 226zM471.76 350.23c-18.21 31.54-91.7 12.07-125.58 31.58S292.47 474.53 256 474.5c-37.65 0-57.58-73.93-90.2-92.68C134.15 363.65 59.84 384 40.28 350.23a29.19 29.19 0 0 1-1.54-3.06c-3.55 12.08-4.05 23.4 1.54 33.06 19.56 33.79 93.87 13.42 125.49 31.59 32.62 18.75 52.55 92.65 90.2 92.68 36.5 0 56.34-73.18 90.21-92.69s107.37 0 125.58-31.58c5.38-9.31 4.78-20.38 1.19-32.33C472.59 348.69 472.2 349.46 471.76 350.23z"/><path fill="#e4222e" d="M210.69 403.24a7.39 7.39 0 0 1-2.34-.38l2.34-7.12-2.37 7.11a7.5 7.5 0 0 1 4.55-14.29l.16.05a7.5 7.5 0 0 1-2.34 14.63zm90.66 0a7.61 7.61 0 1 1 2.47-.42l-.22.07A7.38 7.38 0 0 1 301.35 403.23zM137.23 349.92a7.45 7.45 0 0 1-6-3.06l-.1-.14a7.48 7.48 0 1 1 6.13 3.2zm237.55 0a7.55 7.55 0 1 1 4.46-13.7 7.52 7.52 0 0 1 1.69 10.49l-.15.2A7.47 7.47 0 0 1 374.78 349.89zM109.14 263.66a7.5 7.5 0 0 1-7.5-7.5v-.1a7.5 7.5 0 0 1 15 0v.1A7.5 7.5 0 0 1 109.14 263.66zm293.72-.06a7.5 7.5 0 0 1-7.5-7.5v-.42a7.5 7.5 0 1 1 15 0v.42A7.5 7.5 0 0 1 402.86 263.6zm-265.8-86.3A7.48 7.48 0 0 1 131 165.45l.09-.14a7.5 7.5 0 1 1 6 12zM374.72 177a7.5 7.5 0 0 1-6-3.05l-.07-.1a7.5 7.5 0 1 1 12.1-8.86l.05.06a7.5 7.5 0 0 1-6 11.95zM210.37 123.87A7.51 7.51 0 0 1 208 109.24l.22-.07a7.5 7.5 0 1 1 2.12 14.7zm90.88-.12a7.63 7.63 0 0 1-2.24-.35l-.19-.06a7.5 7.5 0 1 1 4.68-14.25l-2.34 7.12 2.36-7.12a7.51 7.51 0 0 1-2.27 14.66zM199.13 318.84a7.5 7.5 0 0 1-5.31-12.8L306 193.81a7.5 7.5 0 1 1 10.61 10.6L204.43 316.65A7.47 7.47 0 0 1 199.13 318.84zM302.43 334.57a32.13 32.13 0 1 1 22.71-9.41h0A31.9 31.9 0 0 1 302.43 334.57zm0-49.26a17 17 0 0 0-12.11 5 17.13 17.13 0 0 0 24.21 24.23h0a17.15 17.15 0 0 0 0-24.23A17 17 0 0 0 302.43 285.31zM209.57 241.69a32.13 32.13 0 1 1 22.72-9.41h0A32 32 0 0 1 209.57 241.69zM227 227h0zm-17.41-34.54a17.13 17.13 0 1 0 12.11 5A17 17 0 0 0 209.57 192.43z"/></svg>