<svg xmlns="http://www.w3.org/2000/svg" data-name="Layer 1" viewBox="0 0 512 512"><circle cx="101.25" cy="472.95" r="8.96"/><circle cx="410.75" cy="472.95" r="8.96"/><path fill="#fff" d="M329.66,26.61c20.75,11.51,9,56.78,20.37,75.77,11.71,19.58,56.87,30.9,57.23,53.73.36,22.13-44,34.93-55.6,55.67s1,65.11-18.08,76.49c-19.63,11.74-53.1-20.56-76-20.15-22.16.4-54.53,34.23-75.28,22.72s-9-56.78-20.37-75.77c-11.71-19.58-56.87-30.9-57.23-53.73-.36-22.13,44-34.92,55.6-55.67s-1-65.11,18.08-76.49c19.63-11.73,53.1,20.56,76,20.15C276.54,48.93,308.91,15.1,329.66,26.61Z"/><path fill="#fff" d="M387.28,83.12c11.9,20.57-21.48,53.43-21.5,75.58,0,22.86,33,55.82,21.52,75.62-11.08,19.2-55.8,7.35-76.42,19.22S278.19,310,256,310c-22.91,0-35-45-54.89-56.4-19.24-11.06-64.46,1.34-76.37-19.22s21.48-53.43,21.5-75.58c0-22.86-33-55.82-21.52-75.62,11.08-19.2,55.8-7.35,76.42-19.22S233.81,7.48,256,7.5c22.91,0,35,45,54.89,56.4C330.15,75,375.37,62.56,387.28,83.12Z"/><path fill="#e4222e" d="M329.66,26.61c20.75,11.51,9,56.78,20.37,75.77,11.71,19.58,56.87,30.9,57.23,53.73.36,22.13-44,34.93-55.6,55.67s1,65.11-18.08,76.49c-19.63,11.74-53.1-20.56-76-20.15-22.16.4-54.53,34.23-75.28,22.72s-9-56.78-20.37-75.77c-11.71-19.58-56.87-30.9-57.23-53.73-.36-22.13,44-34.92,55.6-55.67s-1-65.11,18.08-76.49c19.63-11.73,53.1,20.56,76,20.15C276.54,48.93,308.91,15.1,329.66,26.61Z"/><path fill="#2370b5" d="M407.26,156.11c.18,10.9-10.51,19.54-22.78,28-12.63,8.69-27,17.17-32.82,27.69-6.15,11.05-5.48,28.79-6.39,44.68-.78,14-2.79,26.49-11.69,31.81-9.64,5.77-22.62.91-36-5.48-13.9-6.62-28.29-14.88-39.92-14.67-12,.22-27.05,10.28-41.6,17.59-12.27,6.17-24.19,10.39-33.68,5.13-10-5.57-12.47-19-13.6-33.58-1.2-15.56-.91-32.38-6.77-42.19-6.39-10.69-22.75-18.91-36.34-27.9-11.32-7.47-20.73-15.46-20.89-25.83-.18-10.9,10.51-19.54,22.78-28,12.63-8.69,27-17.17,32.82-27.7,6.15-11,5.48-28.79,6.39-44.68.78-14,2.79-26.49,11.69-31.81,9.64-5.76,22.62-.9,36,5.48,13.91,6.62,28.29,14.88,39.92,14.67,12-.22,27.05-10.28,41.6-17.59,12.27-6.17,24.19-10.39,33.68-5.13,10,5.56,12.47,19,13.6,33.57,1.2,15.56.91,32.39,6.77,42.2,6.39,10.69,22.75,18.91,36.34,27.9C397.69,137.75,407.1,145.75,407.26,156.11Z"/><path fill="#fed947" d="M387.28,83.12c11.9,20.57-21.48,53.43-21.5,75.58,0,22.86,33,55.82,21.52,75.62-11.08,19.2-55.8,7.35-76.42,19.22S278.19,310,256,310c-22.91,0-35-45-54.89-56.4-19.24-11.06-64.46,1.34-76.37-19.22s21.48-53.43,21.5-75.58c0-22.86-33-55.82-21.52-75.62,11.08-19.2,55.8-7.35,76.42-19.22S233.81,7.48,256,7.5c22.91,0,35,45,54.89,56.4C330.15,75,375.37,62.56,387.28,83.12Z"/><path fill="#0a56a4" d="M376.78,158.7c0,7.67,3.37,16.38,7.7,25.39-12.63,8.69-27,17.17-32.82,27.69-6.15,11.05-5.48,28.79-6.39,44.68-11,.8-21.39,2.26-28.89,6.58-7,4-13.05,11.42-18.84,19.75-13.9-6.62-28.29-14.88-39.92-14.67-12,.22-27.05,10.28-41.6,17.59-6.35-9.59-12.89-18.33-20.43-22.66-6.75-3.88-16.4-5.14-26.85-5.79-1.2-15.56-.91-32.38-6.77-42.19-6.39-10.69-22.75-18.91-36.34-27.9,5.2-10.18,9.58-20,9.59-28.42,0-7.67-3.36-16.37-7.7-25.38,12.63-8.69,27-17.17,32.82-27.7,6.15-11,5.48-28.79,6.39-44.68,11-.8,21.39-2.26,28.89-6.58,7-4,13-11.42,18.84-19.75,13.91,6.62,28.29,14.88,39.92,14.67,12-.22,27.05-10.28,41.6-17.59,6.35,9.58,12.89,18.32,20.43,22.66,6.75,3.88,16.4,5.14,26.85,5.78,1.2,15.56.91,32.39,6.77,42.2,6.39,10.69,22.75,18.91,36.34,27.9C381.17,140.46,376.79,150.29,376.78,158.7Z"/><path fill="#fed947" d="M387.28,83.12c11.9,20.57-21.48,53.43-21.5,75.58,0,22.86,33,55.82,21.52,75.62-11.08,19.2-55.8,7.35-76.42,19.22S278.19,310,256,310c-22.91,0-35-45-54.89-56.4-19.24-11.06-64.46,1.34-76.37-19.22s21.48-53.43,21.5-75.58c0-22.86-33-55.82-21.52-75.62,11.08-19.2,55.8-7.35,76.42-19.22S233.81,7.48,256,7.5c22.91,0,35,45,54.89,56.4C330.15,75,375.37,62.56,387.28,83.12Z"/><path fill="#f8be32" d="M146.22 143.75c0-16.91-18-39.35-22.79-57.9C117 103.61 140 130.1 145.18 151.1A30 30 0 0 0 146.22 143.75zM387.3 219.32c-11.08 19.2-55.8 7.35-76.42 19.22S278.19 295 256 295c-22.91 0-35-45-54.89-56.4-19.24-11.06-64.46 1.34-76.37-19.22a18.46 18.46 0 0 1-1.46-3.21c-1.66 6.63-1.64 12.84 1.46 18.21 11.91 20.56 57.13 8.16 76.37 19.22 19.85 11.41 32 56.38 54.89 56.4 22.21 0 34.29-44.53 54.9-56.41s65.34 0 76.42-19.22c3-5.15 2.94-11.19 1.27-17.72A17.18 17.18 0 0 1 387.3 219.32zM365.78 143.7a31.71 31.71 0 0 0 1 7.65c5.22-20.38 28.27-46.67 21.92-65C384 105.11 365.8 127.33 365.78 143.7z"/><circle cx="256" cy="173.73" r="89.37" fill="#f8be32"/><circle cx="256" cy="158.73" r="89.37" fill="#fff"/><path fill="#e1e1e3" d="M256,233.1a89.39,89.39,0,0,1-89.06-81.87c-.2,2.47-.31,5-.31,7.5a89.37,89.37,0,0,0,178.74,0c0-2.53-.11-5-.31-7.5A89.39,89.39,0,0,1,256,233.1Z"/><path fill="#2370b5" d="M224.86 198a7.51 7.51 0 0 1-5.3-12.81l62.94-62.93a7.5 7.5 0 0 1 10.6 10.6l-62.93 62.94A7.52 7.52 0 0 1 224.86 198zM285.32 210.39a22.34 22.34 0 1 1 15.8-6.55h0A22.2 22.2 0 0 1 285.32 210.39zm10.49-11.85h0zm-10.49-17.82a7.34 7.34 0 1 0 5.19 12.52h0a7.33 7.33 0 0 0-5.19-12.52zM226.67 151.74a22.34 22.34 0 1 1 15.8-6.55A22.2 22.2 0 0 1 226.67 151.74zm0-29.67a7.34 7.34 0 1 0 5.19 12.52h0a7.33 7.33 0 0 0-5.19-12.52z"/><path fill="#fdd8ae" d="M93,491.6l1.57-55.46A34.7,34.7,0,0,0,79.86,406.8l-4.71-3.33A127.93,127.93,0,0,1,23,321.76h0a126.62,126.62,0,0,1,8.48-73l18-54.74a20.16,20.16,0,0,1,20-12h0A20.1,20.1,0,0,1,87.7,205.82l-8.33,56.53L93.82,342,67.54,296.16a19,19,0,0,1,1.78-21.53h0a13.66,13.66,0,0,1,20.7-.51l72,79.56a75.26,75.26,0,0,1,19.46,50.5v89.13"/><path fill="#fbbf7d" d="M93.82,342,67.54,296.16a19,19,0,0,1,1.78-21.53,13.65,13.65,0,0,1,18.07-2.75,13.72,13.72,0,0,0-3.07,2.75,19,19,0,0,0-1.78,21.53L101.36,329a8.69,8.69,0,0,1-7.54,13Z"/><path fill="#e4222e" d="M206,512V458.13a14.32,14.32,0,0,0-14.34-14.3H86.46a14.31,14.31,0,0,0-14.33,14.3V512Z"/><rect width="133.86" height="15" x="72.13" y="497" fill="#c0232c"/><circle cx="101.25" cy="472.95" r="7.5" fill="#fff"/><path fill="#fdd8ae" d="M419,491.6l-1.57-55.46a34.7,34.7,0,0,1,14.69-29.34l4.71-3.33A127.93,127.93,0,0,0,489,321.76h0a126.62,126.62,0,0,0-8.48-73l-18-54.74a20.16,20.16,0,0,0-20-12h0a20.1,20.1,0,0,0-18.26,23.84l8.33,56.53L418.18,342l26.28-45.88a19,19,0,0,0-1.78-21.53h0a13.66,13.66,0,0,0-20.7-.51l-72,79.56a75.26,75.26,0,0,0-19.46,50.5v89.13"/><path fill="#fbbf7d" d="M418.18,342l26.28-45.88a19,19,0,0,0-1.78-21.53,13.65,13.65,0,0,0-18.07-2.75,13.72,13.72,0,0,1,3.07,2.75,19,19,0,0,1,1.78,21.53L410.64,329a8.69,8.69,0,0,0,7.54,13Z"/><path fill="#e4222e" d="M306,512V458.13a14.32,14.32,0,0,1,14.34-14.3H425.54a14.31,14.31,0,0,1,14.33,14.3V512Z"/><rect width="133.86" height="15" x="306.01" y="497" fill="#c0232c"/><circle cx="410.75" cy="472.95" r="7.5" fill="#fff"/></svg>