<svg xmlns="http://www.w3.org/2000/svg" data-name="Layer 1" viewBox="0 0 512 512"><circle cx="101.25" cy="472.95" r="8.96"/><circle cx="410.75" cy="472.95" r="8.96"/><path fill="#fff" d="M399.4,147.83c0,10.35-17.78,18.55-20,28.24-2.27,10,10.14,25.1,5.8,34.12-4.41,9.17-24,8.84-30.26,16.71s-1.65,26.95-9.55,33.27-25.34-2.47-34.49,2-13,23.54-23,25.82c-9.66,2.2-21.58-13.3-31.91-13.3s-22.25,15.5-31.91,13.3c-10-2.28-14-21.47-23-25.82-9.15-4.43-26.63,4.33-34.49-2s-3.25-25.36-9.55-33.27-25.85-7.54-30.26-16.71c-4.34-9,8.07-24.13,5.8-34.12-2.2-9.69-20-17.89-20-28.24s17.78-18.56,20-28.24c2.27-10-10.14-25.1-5.8-34.12,4.41-9.17,24-8.84,30.26-16.71s1.65-26.95,9.55-33.27,25.34,2.47,34.49-2c9-4.35,13-23.54,23-25.82C233.75,5.51,245.67,21,256,21s22.25-15.5,31.91-13.3c10,2.28,14,21.47,23,25.82s26.63-4.33,34.49,2,3.25,25.36,9.55,33.27,25.85,7.54,30.26,16.71c4.34,9-8.07,24.13-5.8,34.12C381.62,129.27,399.4,137.48,399.4,147.83Z"/><path fill="#fdd8ae" d="M93,491.6l1.57-55.46A34.7,34.7,0,0,0,79.86,406.8l-4.71-3.33A127.93,127.93,0,0,1,23,321.76h0a126.62,126.62,0,0,1,8.48-73l18-54.74a20.16,20.16,0,0,1,20-12h0A20.1,20.1,0,0,1,87.7,205.82l-8.33,56.53L93.82,342,67.54,296.16a19,19,0,0,1,1.78-21.53h0a13.66,13.66,0,0,1,20.7-.51l72,79.56a75.26,75.26,0,0,1,19.46,50.5v89.13"/><path fill="#fbbf7d" d="M93.82,342,67.54,296.16a19,19,0,0,1,1.78-21.53,13.65,13.65,0,0,1,18.07-2.75,13.72,13.72,0,0,0-3.07,2.75,19,19,0,0,0-1.78,21.53L101.36,329a8.69,8.69,0,0,1-7.54,13Z"/><path fill="#2370b5" d="M206,512V458.13a14.32,14.32,0,0,0-14.34-14.3H86.46a14.31,14.31,0,0,0-14.33,14.3V512Z"/><rect width="133.86" height="15" x="72.13" y="497" fill="#0a56a4"/><circle cx="101.25" cy="472.95" r="7.5" fill="#fff"/><path fill="#fdd8ae" d="M419,491.6l-1.57-55.46a34.7,34.7,0,0,1,14.69-29.34l4.71-3.33A127.93,127.93,0,0,0,489,321.76h0a126.62,126.62,0,0,0-8.48-73l-18-54.74a20.16,20.16,0,0,0-20-12h0a20.1,20.1,0,0,0-18.26,23.84l8.33,56.53L418.18,342l26.28-45.88a19,19,0,0,0-1.78-21.53h0a13.66,13.66,0,0,0-20.7-.51l-72,79.56a75.26,75.26,0,0,0-19.46,50.5v89.13"/><path fill="#fbbf7d" d="M418.18,342l26.28-45.88a19,19,0,0,0-1.78-21.53,13.65,13.65,0,0,0-18.07-2.75,13.72,13.72,0,0,1,3.07,2.75,19,19,0,0,1,1.78,21.53L410.64,329a8.69,8.69,0,0,0,7.54,13Z"/><path fill="#2370b5" d="M306,512V458.13a14.32,14.32,0,0,1,14.34-14.3H425.54a14.31,14.31,0,0,1,14.33,14.3V512Z"/><rect width="133.86" height="15" x="306.01" y="497" fill="#0a56a4"/><circle cx="410.75" cy="472.95" r="7.5" fill="#fff"/><path fill="#fed947" d="M399.4,148.58c0,10.35-17.78,18.56-20,28.24-2.27,10,10.14,25.1,5.8,34.12-4.41,9.17-24,8.84-30.26,16.71s-1.65,26.95-9.55,33.27-25.34-2.47-34.49,2-13,23.54-23,25.82c-9.66,2.2-21.58-13.3-31.91-13.3s-22.25,15.5-31.91,13.3c-10-2.28-14-21.47-23-25.82-9.15-4.43-26.63,4.33-34.49-2s-3.25-25.36-9.55-33.27-25.85-7.54-30.26-16.71c-4.34-9,8.07-24.13,5.8-34.12-2.2-9.68-20-17.89-20-28.24s17.78-18.56,20-28.24c2.27-10-10.14-25.1-5.8-34.12,4.41-9.17,24-8.84,30.26-16.71s1.65-26.95,9.55-33.27,25.34,2.47,34.49-2c9-4.35,13-23.54,23-25.82,9.66-2.2,21.58,13.3,31.91,13.3s22.25-15.5,31.91-13.3c10,2.28,14,21.47,23,25.82s26.63-4.33,34.49,2S348.66,61.6,355,69.51s25.85,7.54,30.26,16.71c4.34,9-8.07,24.13-5.8,34.12C381.62,130,399.4,138.23,399.4,148.58Z"/><path fill="#f8be32" d="M132.58 105.34c1.33-5.88-2.42-13.54-4.84-20.68a9 9 0 0 0-1 1.56c-2.88 6 1.61 14.64 4.3 22.72A12.65 12.65 0 0 0 132.58 105.34zM132.58 161.82c-1.64-7.24-12-13.65-17.1-20.74a12.93 12.93 0 0 0-2.88 7.5c0 9 13.59 16.46 18.48 24.64C132.44 169.13 133.34 165.18 132.58 161.82zM379.42 105.34a12.65 12.65 0 0 0 1.5 3.6c2.69-8.08 7.18-16.74 4.3-22.72a9 9 0 0 0-1-1.56C381.84 91.8 378.09 99.46 379.42 105.34zM355 212.65c-6.3 7.91-1.65 26.95-9.55 33.27s-25.34-2.47-34.49 2-13 23.54-23 25.82c-9.66 2.2-21.58-13.3-31.91-13.3s-22.25 15.5-31.91 13.3c-10-2.28-14-21.47-23-25.82-9.15-4.43-26.63 4.33-34.49-2s-3.25-25.36-9.55-33.27c-5.9-7.4-23.53-7.55-29.3-15.15-1.7 5-2.75 9.73-1 13.44 4.41 9.17 24 8.84 30.26 16.71s1.65 26.95 9.55 33.27 25.34-2.47 34.49 2c9 4.35 13 23.54 23 25.82 9.66 2.2 21.58-13.3 31.91-13.3s22.25 15.5 31.91 13.3c10-2.28 14-21.47 23-25.82s26.63 4.33 34.49-2 3.25-25.36 9.55-33.27 25.85-7.54 30.26-16.71c1.79-3.71.74-8.45-1-13.44C378.49 205.1 360.86 205.25 355 212.65zM379.42 161.82c-.76 3.36.14 7.31 1.5 11.4 4.89-8.18 18.48-15.59 18.48-24.64a12.93 12.93 0 0 0-2.88-7.5C391.4 148.17 381.06 154.58 379.42 161.82z"/><circle cx="256" cy="163.58" r="90.77" fill="#f8be32"/><circle cx="256" cy="148.58" r="90.77" fill="#e4222e"/><path fill="#c0232c" d="M256,224.35a90.78,90.78,0,0,1-90.46-83.27c-.2,2.47-.31,5-.31,7.5a90.77,90.77,0,0,0,181.54,0c0-2.53-.11-5-.31-7.5A90.78,90.78,0,0,1,256,224.35Z"/><path fill="#fff" d="M224.86 187.88a7.5 7.5 0 0 1-5.3-12.8l62.94-62.94a7.5 7.5 0 1 1 10.6 10.61l-62.93 62.93A7.48 7.48 0 0 1 224.86 187.88zM285.33 200.24a22.33 22.33 0 1 1 15.79-6.54h0A22.19 22.19 0 0 1 285.33 200.24zm0-29.67a7.34 7.34 0 1 0 5.18 12.52h0a7.34 7.34 0 0 0-5.18-12.52zM226.67 141.58a22.31 22.31 0 1 1 15.8-6.53h0A22.31 22.31 0 0 1 226.67 141.58zm0-29.66a7.33 7.33 0 1 0 5.19 12.52h0a7.34 7.34 0 0 0-5.19-12.52z"/></svg>