<svg xmlns="http://www.w3.org/2000/svg" data-name="Layer 1" viewBox="0 0 512 512"><circle cx="59.76" cy="464.58" r="7.5"/><path fill="#fff" d="M372.87,121.54c0,8.41-14.49,15.07-16.28,22.94-1.85,8.13,8.26,20.4,4.72,27.73s-19.54,7.18-24.66,13.58-1.34,21.9-7.78,27-20.65-2-28.11,1.59-10.62,19.13-18.75,21c-7.88,1.79-17.59-10.8-26-10.8s-18.13,12.59-26,10.8c-8.13-1.85-11.41-17.45-18.75-21s-21.7,3.52-28.11-1.59-2.64-20.61-7.78-27-21.07-6.13-24.66-13.58,6.57-19.6,4.72-27.73c-1.79-7.87-16.28-14.53-16.28-22.94s14.49-15.08,16.28-23c1.85-8.12-8.26-20.4-4.72-27.73s19.54-7.18,24.66-13.58,1.34-21.9,7.78-27,20.65,2,28.11-1.58S221.86,9.52,230,7.67c7.88-1.78,17.59,10.81,26,10.81S274.13,5.89,282,7.67c8.13,1.85,11.41,17.45,18.75,21s21.7-3.53,28.11,1.58,2.64,20.61,7.78,27,21.07,6.13,24.66,13.58-6.57,19.61-4.72,27.73C358.38,106.46,372.87,113.13,372.87,121.54Z"/><path fill="#fdd8ae" d="M198,408.92l64.5,14.55a21.68,21.68,0,0,0,24.72-12.9h0a22.26,22.26,0,0,0-14-30.05l-90.8-26.69a44.26,44.26,0,0,0-23.73-.34L70.08,384.66l2.29,34.75,3,45.56,21.9,9.54,124,28.07a142.71,142.71,0,0,0,100.44-18.91L418,424.37a23.67,23.67,0,0,0,.85-37.73h0a22.68,22.68,0,0,0-19.8-4.12L286.55,412.11"/><path fill="#fbbf7d" d="M287.2,395.57h0c-.22.53-.47,1-.73,1.54h.08l1.82-.48a23.53,23.53,0,0,0-.69-2.31C287.54,394.74,287.38,395.15,287.2,395.57Z"/><path fill="#fbbf7d" d="M418,409.37l-96.23,59.3a142.71,142.71,0,0,1-100.44,18.91l-124-28.07L75.38,450l-3-45.56-1.32-20.09-1,.34,2.29,34.75,3,45.56,21.89,9.54,124,28.07a142.71,142.71,0,0,0,100.44-18.91L418,424.37a23.65,23.65,0,0,0,8.6-26.69A23.09,23.09,0,0,1,418,409.37Z"/><path fill="#fbbf7d" d="M287.2,395.57h0a21.68,21.68,0,0,1-24.72,12.9l-49.87-11.25A12,12,0,0,0,198,408.92h0l64.5,14.55a21.68,21.68,0,0,0,24.72-12.9h0a22.41,22.41,0,0,0,.48-16.25C287.54,394.74,287.38,395.15,287.2,395.57Z"/><path fill="#e4222e" d="M0,349.11H78.52a18.93,18.93,0,0,1,18.76,19.1V484.06a18.93,18.93,0,0,1-18.76,19.1H0Z"/><path fill="#c0232c" d="M78.52,488.16H0v15H78.52a18.92,18.92,0,0,0,18.75-19.1v-15A18.92,18.92,0,0,1,78.52,488.16Z"/><circle cx="59.76" cy="464.97" r="7.5" fill="#fff"/><polygon fill="#2370b5" points="371.28 285.87 335.29 284.09 318.83 316.15 275.62 249.38 256 219.05 238.4 191.85 256 181.69 290.85 161.57 331.42 224.26 371.28 285.87"/><polygon fill="#2370b5" points="273.6 191.85 256 219.05 236.38 249.38 193.17 316.15 176.71 284.09 140.72 285.87 180.58 224.26 221.15 161.57 256 181.69 273.6 191.85"/><path fill="#fed947" d="M372.87,121.54c0,8.41-14.49,15.07-16.28,22.94-1.85,8.13,8.26,20.4,4.72,27.73s-19.54,7.18-24.66,13.58-1.34,21.9-7.78,27-20.65-2-28.11,1.59-10.62,19.13-18.75,21c-7.88,1.79-17.59-10.8-26-10.8s-18.13,12.59-26,10.8c-8.13-1.85-11.41-17.45-18.75-21s-21.7,3.52-28.11-1.59-2.64-20.61-7.78-27-21.07-6.13-24.66-13.58,6.57-19.6,4.72-27.73c-1.79-7.87-16.28-14.53-16.28-22.94s14.49-15.08,16.28-23c1.85-8.12-8.26-20.4-4.72-27.73s19.54-7.18,24.66-13.58,1.34-21.9,7.78-27,20.65,2,28.11-1.58S221.86,9.52,230,7.67c7.88-1.78,17.59,10.81,26,10.81S274.13,5.89,282,7.67c8.13,1.85,11.41,17.45,18.75,21s21.7-3.53,28.11,1.58,2.64,20.61,7.78,27,21.07,6.13,24.66,13.58-6.57,19.61-4.72,27.73C358.38,106.46,372.87,113.13,372.87,121.54Z"/><path fill="#144e92" d="M331.42,224.26a8.75,8.75,0,0,1-2.55,3.57c-6.41,5.11-20.65-2-28.11,1.59s-10.62,19.13-18.75,21a10.19,10.19,0,0,1-6.39-1L256,219.05l-19.62,30.33a10.19,10.19,0,0,1-6.39,1c-8.13-1.85-11.41-17.45-18.75-21s-21.7,3.52-28.11-1.59a8.75,8.75,0,0,1-2.55-3.57l40.57-62.69L256,181.69l34.85-20.12Z"/><path fill="#fed947" d="M372.87,121.54c0,8.41-14.49,15.07-16.28,22.94-1.85,8.13,8.26,20.4,4.72,27.73s-19.54,7.18-24.66,13.58-1.34,21.9-7.78,27-20.65-2-28.11,1.59-10.62,19.13-18.75,21c-7.88,1.79-17.59-10.8-26-10.8s-18.13,12.59-26,10.8c-8.13-1.85-11.41-17.45-18.75-21s-21.7,3.52-28.11-1.59-2.64-20.61-7.78-27-21.07-6.13-24.66-13.58,6.57-19.6,4.72-27.73c-1.79-7.87-16.28-14.53-16.28-22.94s14.49-15.08,16.28-23c1.85-8.12-8.26-20.4-4.72-27.73s19.54-7.18,24.66-13.58,1.34-21.9,7.78-27,20.65,2,28.11-1.58S221.86,9.52,230,7.67c7.88-1.78,17.59,10.81,26,10.81S274.13,5.89,282,7.67c8.13,1.85,11.41,17.45,18.75,21s21.7-3.53,28.11,1.58,2.64,20.61,7.78,27,21.07,6.13,24.66,13.58-6.57,19.61-4.72,27.73C358.38,106.46,372.87,113.13,372.87,121.54Z"/><circle cx="256" cy="121.54" r="77.27" fill="#fff"/><path fill="#2370b5" d="M225.4 158.81A7.51 7.51 0 0 1 220.09 146l60.37-60.37a7.5 7.5 0 0 1 10.61 10.61L230.7 156.61A7.48 7.48 0 0 1 225.4 158.81zM281 167.26a20.74 20.74 0 1 1 14.67-6.07h0A20.7 20.7 0 0 1 281 167.26zm9.37-11.37h0zM281 140.77a5.74 5.74 0 1 0 4.07 1.68A5.72 5.72 0 0 0 281 140.77zM231 117.3a20.74 20.74 0 1 1 14.67-6.07A20.65 20.65 0 0 1 231 117.3zm0-26.49a5.75 5.75 0 1 0 4.06 1.68A5.7 5.7 0 0 0 231 90.81z"/></svg>