<svg xmlns="http://www.w3.org/2000/svg" data-name="Layer 1" viewBox="0 0 512 512"><circle cx="59.76" cy="422.96" r="7.5"/><path fill="#fff" d="M459.5,147.83c0,10.35-17.78,18.55-20,28.24-2.26,10,10.15,25.1,5.81,34.12-4.42,9.17-24,8.84-30.26,16.71s-1.66,26.95-9.55,33.27-25.35-2.47-34.5,2c-9,4.35-13,23.54-23,25.82-9.66,2.2-21.58-13.3-31.91-13.3s-22.24,15.5-31.91,13.3c-10-2.28-14-21.47-23-25.82-9.15-4.43-26.63,4.33-34.49-2s-3.24-25.36-9.55-33.27-25.85-7.54-30.26-16.71c-4.34-9,8.07-24.13,5.8-34.12-2.19-9.69-20-17.89-20-28.24s17.78-18.56,20-28.24c2.27-10-10.14-25.1-5.8-34.12,4.41-9.17,24-8.84,30.26-16.71s1.65-26.95,9.55-33.27,25.34,2.47,34.49-2c9-4.35,13-23.54,23-25.82C293.86,5.51,305.78,21,316.1,21S338.35,5.51,348,7.71c10,2.28,14,21.47,23,25.82,9.15,4.43,26.64-4.33,34.5,2s3.24,25.36,9.55,33.27,25.84,7.54,30.26,16.71c4.34,9-8.07,24.13-5.81,34.12C441.72,129.27,459.5,137.48,459.5,147.83Z"/><path fill="#fdd8ae" d="M198,366.92l64.5,14.55a21.68,21.68,0,0,0,24.72-12.91h0a22.27,22.27,0,0,0-14-30.05l-90.8-26.69a44.26,44.26,0,0,0-23.73-.34L70.08,342.65l2.29,34.75,3,45.56,21.9,9.55,124,28.06a142.65,142.65,0,0,0,100.44-18.9L418,382.37a23.67,23.67,0,0,0,.85-37.73h0a22.72,22.72,0,0,0-19.8-4.13L286.55,370.1"/><path fill="#fbbf7d" d="M287.2,353.56h0c-.22.53-.47,1-.73,1.54h.08l1.82-.47a22,22,0,0,0-.69-2.31C287.54,352.73,287.38,353.15,287.2,353.56Z"/><path fill="#fbbf7d" d="M418,367.37l-96.23,59.3a142.65,142.65,0,0,1-100.44,18.9l-124-28.06L75.38,408l-3-45.56-1.32-20.09-1,.34,2.29,34.75,3,45.56,21.9,9.55,124,28.06a142.65,142.65,0,0,0,100.44-18.9L418,382.37a23.65,23.65,0,0,0,8.6-26.69A23.17,23.17,0,0,1,418,367.37Z"/><path fill="#fbbf7d" d="M287.2,353.56h0a21.68,21.68,0,0,1-24.72,12.91l-49.87-11.25A12,12,0,0,0,198,366.92h0l64.5,14.55a21.68,21.68,0,0,0,24.72-12.91h0a22.38,22.38,0,0,0,.48-16.24C287.54,352.73,287.38,353.15,287.2,353.56Z"/><path fill="#2370b5" d="M0,307.11H78.52A18.93,18.93,0,0,1,97.28,326.2V442.06a18.93,18.93,0,0,1-18.76,19.1H0Z"/><path fill="#0a56a4" d="M78.52,446.16H0v15H78.52a18.93,18.93,0,0,0,18.76-19.1v-15A18.93,18.93,0,0,1,78.52,446.16Z"/><circle cx="59.76" cy="422.96" r="7.5" fill="#fff"/><path fill="#fed947" d="M459.5,147.83c0,10.35-17.78,18.55-20,28.24-2.26,10,10.15,25.1,5.81,34.12-4.42,9.17-24,8.84-30.26,16.71s-1.66,26.95-9.55,33.27-25.35-2.47-34.5,2c-9,4.35-13,23.54-23,25.82-9.66,2.2-21.58-13.3-31.91-13.3s-22.24,15.5-31.91,13.3c-10-2.28-14-21.47-23-25.82-9.15-4.43-26.63,4.33-34.49-2s-3.24-25.36-9.55-33.27-25.85-7.54-30.26-16.71c-4.34-9,8.07-24.13,5.8-34.12-2.19-9.69-20-17.89-20-28.24s17.78-18.56,20-28.24c2.27-10-10.14-25.1-5.8-34.12,4.41-9.17,24-8.84,30.26-16.71s1.65-26.95,9.55-33.27,25.34,2.47,34.49-2c9-4.35,13-23.54,23-25.82C293.86,5.51,305.78,21,316.1,21S338.35,5.51,348,7.71c10,2.28,14,21.47,23,25.82,9.15,4.43,26.64-4.33,34.5,2s3.24,25.36,9.55,33.27,25.84,7.54,30.26,16.71c4.34,9-8.07,24.13-5.81,34.12C441.72,129.27,459.5,137.48,459.5,147.83Z"/><path fill="#fed947" d="M459.5,147.83c0,10.35-17.78,18.55-20,28.24-2.26,10,10.15,25.1,5.81,34.12-4.42,9.17-24,8.84-30.26,16.71s-1.66,26.95-9.55,33.27-25.35-2.47-34.5,2c-9,4.35-13,23.54-23,25.82-9.66,2.2-21.58-13.3-31.91-13.3s-22.24,15.5-31.91,13.3c-10-2.28-14-21.47-23-25.82-9.15-4.43-26.63,4.33-34.49-2s-3.24-25.36-9.55-33.27-25.85-7.54-30.26-16.71c-4.34-9,8.07-24.13,5.8-34.12-2.19-9.69-20-17.89-20-28.24s17.78-18.56,20-28.24c2.27-10-10.14-25.1-5.8-34.12,4.41-9.17,24-8.84,30.26-16.71s1.65-26.95,9.55-33.27,25.34,2.47,34.49-2c9-4.35,13-23.54,23-25.82C293.86,5.51,305.78,21,316.1,21S338.35,5.51,348,7.71c10,2.28,14,21.47,23,25.82,9.15,4.43,26.64-4.33,34.5,2s3.24,25.36,9.55,33.27,25.84,7.54,30.26,16.71c4.34,9-8.07,24.13-5.81,34.12C441.72,129.27,459.5,137.48,459.5,147.83Z"/><path fill="#f8be32" d="M439.52 104.59a12.4 12.4 0 0 0 1.51 3.6c2.69-8.08 7.18-16.74 4.3-22.72a9.61 9.61 0 0 0-1-1.56C441.94 91.05 438.19 98.71 439.52 104.59zM192.68 161.07c-1.64-7.24-12-13.65-17.1-20.74a13 13 0 0 0-2.87 7.5c0 9 13.58 16.46 18.47 24.64C192.54 168.38 193.45 164.43 192.68 161.07zM192.68 104.59c1.34-5.88-2.41-13.54-4.84-20.68a9.61 9.61 0 0 0-1 1.56c-2.88 6 1.61 14.64 4.3 22.72A12.37 12.37 0 0 0 192.68 104.59zM415.07 211.9c-6.31 7.91-1.66 26.95-9.55 33.27s-25.35-2.47-34.5 2c-9 4.35-13 23.54-23 25.82-9.66 2.2-21.58-13.3-31.91-13.3s-22.24 15.5-31.91 13.3c-10-2.28-14-21.47-23-25.82-9.15-4.43-26.63 4.33-34.49-2s-3.24-25.36-9.55-33.27c-5.9-7.4-23.53-7.55-29.3-15.15-1.7 5-2.75 9.73-1 13.44 4.41 9.17 24 8.84 30.26 16.71s1.65 26.95 9.55 33.27 25.34-2.47 34.49 2c9 4.35 13 23.54 23 25.82 9.67 2.2 21.59-13.3 31.91-13.3S338.35 290.15 348 288c10-2.28 14-21.47 23-25.82 9.15-4.43 26.64 4.33 34.5-2s3.24-25.36 9.55-33.27 25.84-7.54 30.26-16.71c1.78-3.71.73-8.45-1-13.44C438.6 204.35 421 204.5 415.07 211.9zM439.52 161.07c-.76 3.36.14 7.31 1.51 11.4 4.88-8.18 18.47-15.59 18.47-24.64a12.93 12.93 0 0 0-2.88-7.5C451.5 147.42 441.16 153.83 439.52 161.07z"/><circle cx="316.1" cy="147.83" r="90.77" fill="#e4222e"/><path fill="#c0232c" d="M316.1,223.6a90.77,90.77,0,0,1-90.45-83.27q-.32,3.71-.31,7.5a90.77,90.77,0,1,0,181.53,0c0-2.53-.11-5-.31-7.5A90.77,90.77,0,0,1,316.1,223.6Z"/><path fill="#fff" d="M285 187.13a7.5 7.5 0 0 1-5.31-12.8l62.94-62.94A7.5 7.5 0 0 1 353.21 122l-62.94 62.93A7.47 7.47 0 0 1 285 187.13zM345.43 199.49A22.34 22.34 0 1 1 361.22 193h0A22.19 22.19 0 0 1 345.43 199.49zm10.49-11.85h0zm-10.49-17.82a7.34 7.34 0 1 0 5.18 2.15A7.28 7.28 0 0 0 345.43 169.82zM286.78 140.84a22.34 22.34 0 1 1 15.79-6.54A22.19 22.19 0 0 1 286.78 140.84zm0-29.67A7.34 7.34 0 1 0 292 123.69h0a7.34 7.34 0 0 0-5.18-12.52z"/></svg>