<svg xmlns="http://www.w3.org/2000/svg" data-name="Layer 1" viewBox="0 0 512 512"><path fill="#fff" d="M443.29,190.31c0,13.48-23.23,24.18-26.1,36.79-3,13,13.25,32.7,7.58,44.45-5.76,11.95-31.32,11.51-39.52,21.77s-2.16,35.11-12.47,43.35-33.1-3.22-45,2.54c-11.76,5.67-17,30.68-30.06,33.64-12.61,2.87-28.18-17.32-41.67-17.32s-29.06,20.19-41.68,17.32c-13-3-18.3-28-30-33.64-12-5.76-34.79,5.65-45.05-2.54s-4.24-33-12.47-43.35S93,283.5,87.22,271.55c-5.67-11.75,10.54-31.43,7.58-44.45-2.87-12.61-26.09-23.31-26.09-36.79s23.22-24.17,26.09-36.78c3-13-13.25-32.71-7.57-44.46C93,97.13,118.55,97.56,126.75,87.3S128.91,52.19,139.22,44s33.1,3.22,45.05-2.54c11.75-5.67,17-30.68,30-33.64C226.94,4.91,242.51,25.09,256,25.09S285.06,4.91,297.67,7.78c13,3,18.3,28,30.06,33.64,11.95,5.76,34.78-5.65,45,2.54S377,77,385.25,87.3s33.76,9.83,39.52,21.77c5.67,11.75-10.54,31.44-7.58,44.46C420.06,166.14,443.29,176.83,443.29,190.31Z"/><path fill="#fed947" d="M443.29,190.31c0,13.48-23.23,24.18-26.1,36.79-3,13,13.25,32.7,7.58,44.45-5.76,11.95-31.32,11.51-39.52,21.77s-2.16,35.11-12.47,43.35-33.1-3.22-45,2.54c-11.76,5.67-17,30.68-30.06,33.64-12.61,2.87-28.18-17.32-41.67-17.32s-29.06,20.19-41.68,17.32c-13-3-18.3-28-30-33.64-12-5.76-34.79,5.65-45.05-2.54s-4.24-33-12.47-43.35S93,283.5,87.22,271.55c-5.67-11.75,10.54-31.43,7.58-44.45-2.87-12.61-26.09-23.31-26.09-36.79s23.22-24.17,26.09-36.78c3-13-13.25-32.71-7.57-44.46C93,97.13,118.55,97.56,126.75,87.3S128.91,52.19,139.22,44s33.1,3.22,45.05-2.54c11.75-5.67,17-30.68,30-33.64C226.94,4.91,242.51,25.09,256,25.09S285.06,4.91,297.67,7.78c13,3,18.3,28,30.06,33.64,11.95,5.76,34.78-5.65,45,2.54S377,77,385.25,87.3s33.76,9.83,39.52,21.77c5.67,11.75-10.54,31.44-7.58,44.46C420.06,166.14,443.29,176.83,443.29,190.31Z"/><path fill="#fed947" d="M417.19,227.1c-3,13,13.25,32.7,7.58,44.45-5.76,11.95-31.32,11.51-39.52,21.77a15.17,15.17,0,0,0-1.85,3c-5.45,11.5-1.21,32.82-10.62,40.34-10.27,8.19-33.1-3.22-45,2.54-9.73,4.69-15,22.61-23.93,30.34a14.11,14.11,0,0,1-6.13,3.3c-5.32,1.21-11.17-1.68-17.17-5.44-8.21-5.14-16.71-11.88-24.5-11.88s-16.29,6.75-24.51,11.88c-6,3.76-11.85,6.65-17.17,5.44a14.2,14.2,0,0,1-6.14-3.3c-8.9-7.73-14.19-25.65-23.91-30.34-12-5.76-34.79,5.65-45.05-2.54-9.41-7.52-5.17-28.84-10.63-40.34a15.14,15.14,0,0,0-1.84-3c-8.2-10.26-33.76-9.82-39.53-21.77-5.67-11.75,10.54-31.43,7.58-44.45-2.87-12.61-26.09-23.31-26.09-36.79s23.22-24.17,26.09-36.78c3-13-13.25-32.71-7.57-44.46C93,97.13,118.55,97.56,126.75,87.3S128.91,52.19,139.22,44s33.1,3.22,45.05-2.54c11.75-5.67,17-30.68,30-33.64C226.94,4.91,242.51,25.09,256,25.09S285.06,4.91,297.67,7.78c13,3,18.3,28,30.06,33.64,11.95,5.76,34.78-5.65,45,2.54S377,77,385.25,87.3s33.76,9.83,39.52,21.77c5.67,11.75-10.54,31.44-7.58,44.46,2.87,12.61,26.1,23.3,26.1,36.78S420.06,214.49,417.19,227.1Z"/><path fill="#fed947" d="M443.29,190.31c0,13.48-23.23,24.18-26.1,36.79-3,13,13.25,32.7,7.58,44.45-5.76,11.95-31.32,11.51-39.52,21.77s-2.16,35.11-12.47,43.35-33.1-3.22-45,2.54c-11.76,5.67-17,30.68-30.06,33.64-12.61,2.87-28.18-17.32-41.67-17.32s-29.06,20.19-41.68,17.32c-13-3-18.3-28-30-33.64-12-5.76-34.79,5.65-45.05-2.54s-4.24-33-12.47-43.35S93,283.5,87.22,271.55c-5.67-11.75,10.54-31.43,7.58-44.45-2.87-12.61-26.09-23.31-26.09-36.79s23.22-24.17,26.09-36.78c3-13-13.25-32.71-7.57-44.46C93,97.13,118.55,97.56,126.75,87.3S128.91,52.19,139.22,44s33.1,3.22,45.05-2.54c11.75-5.67,17-30.68,30-33.64C226.94,4.91,242.51,25.09,256,25.09S285.06,4.91,297.67,7.78c13,3,18.3,28,30.06,33.64,11.95,5.76,34.78-5.65,45,2.54S377,77,385.25,87.3s33.76,9.83,39.52,21.77c5.67,11.75-10.54,31.44-7.58,44.46C420.06,166.14,443.29,176.83,443.29,190.31Z"/><path fill="#fecc30" d="M417.19 123.53a20.67 20.67 0 0 0 4.47 8.19c3.11-8.33 6-16.56 3.11-22.65a13.77 13.77 0 0 0-4-4.81C418.18 111.14 415.92 118 417.19 123.53zM90.33 218.9c2.88-7.72 5.89-15.53 4.47-21.8-1.73-7.61-10.88-14.53-17.86-21.79-4.58 4.76-8.23 9.66-8.23 15C68.71 200.79 82.73 209.58 90.33 218.9zM94.8 123.53c1.27-5.58-1-12.38-3.53-19.26a13.62 13.62 0 0 0-4 4.8c-3 6.09 0 14.33 3.1 22.65A20.67 20.67 0 0 0 94.8 123.53z"/><path fill="#f8be32" d="M383.4,296.33c-5.45,11.5-1.21,32.82-10.62,40.34-10.27,8.19-33.1-3.22-45,2.54-9.73,4.69-15,22.61-23.93,30.34q-11.64-1.41-23.3-2.14a392.86,392.86,0,0,0-49,0q-11.67.72-23.31,2.14c-8.9-7.73-14.19-25.65-23.91-30.34-12-5.76-34.79,5.65-45.05-2.54-9.41-7.52-5.17-28.84-10.63-40.34A447,447,0,0,1,383.4,296.33Z"/><ellipse cx="256" cy="190.31" fill="#e4222e" rx="123.83" ry="123.87"/><path fill="#c0232c" d="M256,284.19A123.87,123.87,0,0,1,133.07,175.31a126,126,0,0,0-.9,15,123.83,123.83,0,1,0,246.75-15A123.86,123.86,0,0,1,256,284.19Z"/><path fill="#fff" d="M216.83 235.93a7.51 7.51 0 0 1-5.31-12.8l77.28-77.3a7.5 7.5 0 1 1 10.61 10.6l-77.28 77.3A7.44 7.44 0 0 1 216.83 235.93zM288 246.76a24.46 24.46 0 1 1 17.3-7.16A24.29 24.29 0 0 1 288 246.76zm0-33.92a9.36 9.36 0 0 0-6.68 2.77 9.47 9.47 0 0 0 0 13.38 9.45 9.45 0 0 0 13.37 0A9.46 9.46 0 0 0 288 212.84zM224 182.79a24.47 24.47 0 1 1 17.3-7.17h0A24.26 24.26 0 0 1 224 182.79zm0-33.93a9.37 9.37 0 0 0-6.68 2.78 9.47 9.47 0 0 0 0 13.38 9.45 9.45 0 0 0 13.37 0h0A9.47 9.47 0 0 0 224 148.86z"/><path fill="#1067ae" d="M462.77,448.86q7.38,27.79,12.9,55.64a428.15,428.15,0,0,0-82.85-43.45Q398.72,433,404.6,405q3.09-14.67,6.17-29.35a484.25,484.25,0,0,1,93.73,49.15A447.22,447.22,0,0,0,462.77,448.86Z"/><path fill="#0a56a4" d="M439.83,425.8a464.51,464.51,0,0,0-47,35.25Q398.72,433,404.6,405Z"/><path fill="#1067ae" d="M36.33,504.5q5.52-27.83,12.9-55.64A447.22,447.22,0,0,0,7.5,424.76a484.25,484.25,0,0,1,93.73-49.15q2.82,13.41,5.63,26.82,6.17,29.31,12.32,58.62A428.15,428.15,0,0,0,36.33,504.5Z"/><path fill="#0a56a4" d="M119.18,461.05a464.51,464.51,0,0,0-47-35.25l23.51-29.52,11.18,6.15Q113,431.74,119.18,461.05Z"/><path fill="#2370b5" d="M439.83,425.8c-118.68-58.87-249-58.87-367.66,0Q61,384.06,49.8,342.31c133.13-66,279.27-66,412.4,0Q451,384.05,439.83,425.8Z"/></svg>