<svg xmlns="http://www.w3.org/2000/svg" data-name="Layer 1" viewBox="0 0 512 512"><circle cx="225.36" cy="151.97" r="16.25" fill="none"/><circle cx="286.64" cy="213.25" r="16.25" fill="none"/><path fill="none" d="M435.46,182.61c0-12.91-22.25-23.15-25-35.23-2.84-12.48,12.69-31.33,7.26-42.58-5.52-11.45-30-11-37.87-20.86s-2.07-33.63-12-41.51S336.18,45.51,324.73,40c-11.26-5.43-16.31-29.39-28.8-32.22C283.84,5,268.92,24.35,256,24.35S228.16,5,216.07,7.77C203.58,10.6,198.53,34.56,187.27,40c-11.45,5.52-33.33-5.41-43.17,2.44S140,74.07,132.15,83.94s-32.34,9.41-37.87,20.85c-5.43,11.26,10.1,30.11,7.26,42.59-2.75,12.08-25,22.32-25,35.23s22.25,23.16,25,35.24c2.84,12.47-12.69,31.33-7.26,42.58,5.52,11.44,30,11,37.87,20.85s2.07,33.64,11.95,41.52c2.9,2.31,6.83,3,11.24,2.94,10.57-.1,23.85-4.4,31.93-.5,11.26,5.43,16.31,29.38,28.8,32.22,11.44,2.6,25.41-14.57,37.83-16.42h0a13.86,13.86,0,0,1,4.2,0h0c12.42,1.85,26.39,19,37.83,16.42,12.49-2.84,17.54-26.79,28.8-32.22,8.08-3.9,21.36.4,31.93.5,4.41.05,8.34-.63,11.24-2.94,9.88-7.88,4.06-31.64,12-41.52s32.34-9.41,37.87-20.85c5.43-11.25-10.1-30.11-7.26-42.58C413.21,205.77,435.46,195.53,435.46,182.61ZM183.67,276.67a118.65,118.65,0,1,1,144.66,0"/><path fill="#2370b5" d="M427.52,457.73l-47.84-2.36a3,3,0,0,0-2.81,1.62L355,499.6a3,3,0,0,1-5.26.13L269.56,360.88,256,337.39l-25.52-44.2a3,3,0,0,1,1.1-4.1L256,275l50.92-29.4a3,3,0,0,1,4.1,1.1l53.64,92.91,65.61,113.63A3,3,0,0,1,427.52,457.73Z"/><path fill="#2370b5" d="M280.42,289.09a3,3,0,0,1,1.1,4.1L256,337.39l-13.56,23.49L162.27,499.73a3,3,0,0,1-5.26-.13L135.13,457a3,3,0,0,0-2.81-1.62l-47.84,2.36a3,3,0,0,1-2.75-4.5L147.34,339.6,201,246.69a3,3,0,0,1,4.1-1.1L256,275Z"/><path fill="#0a56a4" d="M364.66,339.6c-10.81,4.06-29.61-4.34-39.93.64-11.26,5.43-16.31,29.38-28.8,32.22-8,1.82-17.28-6.06-26.37-11.58L256,337.39l-13.56,23.49c-9.09,5.52-18.35,13.4-26.37,11.58-12.49-2.84-17.54-26.79-28.8-32.22-10.32-5-29.12,3.42-39.93-.64l55.14-95.51L256,275l53.52-30.9Z"/><path fill="#fed947" d="M435.46,182.61c0,12.92-22.25,23.16-25,35.24-2.84,12.47,12.69,31.33,7.26,42.58-5.53,11.44-30,11-37.87,20.85s-2.07,33.64-12,41.52-31.72-3.08-43.17,2.44c-11.26,5.43-16.31,29.38-28.8,32.22-12.09,2.75-27-16.59-39.93-16.59s-27.84,19.34-39.93,16.59c-12.49-2.84-17.54-26.79-28.8-32.22-11.45-5.52-33.33,5.41-43.17-2.44s-4.06-31.64-11.95-41.52-32.35-9.41-37.87-20.85c-5.43-11.25,10.1-30.11,7.26-42.58-2.75-12.08-25-22.32-25-35.24s22.25-23.15,25-35.23c2.84-12.48-12.69-31.33-7.26-42.59,5.53-11.44,30-11,37.87-20.85s2.07-33.63,11.95-41.51,31.72,3.08,43.17-2.44c11.26-5.43,16.31-29.39,28.8-32.22C228.16,5,243.08,24.35,256,24.35S283.84,5,295.93,7.77c12.49,2.83,17.54,26.79,28.8,32.22,11.45,5.52,33.33-5.41,43.17,2.44s4.06,31.64,12,41.51,32.35,9.41,37.87,20.86c5.43,11.25-10.1,30.1-7.26,42.58C413.21,159.46,435.46,169.7,435.46,182.61Z"/><path fill="#fed947" d="M435.46,182.61c0,12.92-22.25,23.16-25,35.24-2.84,12.47,12.69,31.33,7.26,42.58-5.53,11.44-30,11-37.87,20.85s-2.07,33.64-12,41.52-31.72-3.08-43.17,2.44c-11.26,5.43-16.31,29.38-28.8,32.22-12.09,2.75-27-16.59-39.93-16.59s-27.84,19.34-39.93,16.59c-12.49-2.84-17.54-26.79-28.8-32.22-11.45-5.52-33.33,5.41-43.17-2.44s-4.06-31.64-11.95-41.52-32.35-9.41-37.87-20.85c-5.43-11.25,10.1-30.11,7.26-42.58-2.75-12.08-25-22.32-25-35.24s22.25-23.15,25-35.23c2.84-12.48-12.69-31.33-7.26-42.59,5.53-11.44,30-11,37.87-20.85s2.07-33.63,11.95-41.51,31.72,3.08,43.17-2.44c11.26-5.43,16.31-29.39,28.8-32.22C228.16,5,243.08,24.35,256,24.35S283.84,5,295.93,7.77c12.49,2.83,17.54,26.79,28.8,32.22,11.45,5.52,33.33-5.41,43.17,2.44s4.06,31.64,12,41.51,32.35,9.41,37.87,20.86c5.43,11.25-10.1,30.1-7.26,42.58C413.21,159.46,435.46,169.7,435.46,182.61Z"/><path fill="#f8be32" d="M410.46 132.38a14.09 14.09 0 0 0 1.14 3.11c3.17-10.71 10-22.65 6.12-30.69-.12-.25-.26-.49-.4-.73C414.42 113.67 408.63 124.34 410.46 132.38zM101.54 132.38c1.83-8-4-18.71-6.86-28.31-.14.24-.28.48-.4.72-3.89 8 3 20 6.12 30.7A14.09 14.09 0 0 0 101.54 132.38zM379.85 266.28c-7.89 9.88-2.07 33.64-12 41.52s-31.72-3.08-43.17 2.44c-11.26 5.43-16.31 29.38-28.8 32.22-12.09 2.75-27-16.59-39.93-16.59s-27.84 19.34-39.93 16.59c-12.49-2.84-17.54-26.79-28.8-32.22-11.45-5.52-33.33 5.41-43.17-2.44s-4.06-31.64-11.95-41.52c-7.68-9.61-31.28-9.43-37.47-20.13-1.61 5.3-2.33 10.27-.4 14.28 5.52 11.44 30 11 37.87 20.85s2.07 33.64 11.95 41.52 31.72-3.08 43.17 2.44c11.26 5.43 16.31 29.38 28.8 32.22 12.09 2.75 27-16.59 39.93-16.59s27.84 19.34 39.93 16.59c12.49-2.84 17.54-26.79 28.8-32.22 11.45-5.52 33.33 5.41 43.17-2.44s4.06-31.64 12-41.52 32.34-9.41 37.87-20.85c1.93-4 1.21-9-.4-14.28C411.13 256.85 387.53 256.67 379.85 266.28zM100.4 214.74c1.27-4.27 1.95-8.34 1.14-11.89-2.19-9.65-16.83-18.13-22.63-27.74a14.55 14.55 0 0 0-2.37 7.5C76.54 194.4 95.09 204 100.4 214.74zM410.46 202.85c-.81 3.55-.13 7.62 1.14 11.89 5.31-10.77 23.86-20.34 23.86-32.13a14.55 14.55 0 0 0-2.37-7.5C427.29 184.72 412.65 193.2 410.46 202.85z"/><circle cx="256" cy="212.61" r="118.65" fill="#f8be32"/><circle cx="256" cy="182.61" r="118.65" fill="#e4222e"/><path fill="#c0232c" d="M256,279A118.67,118.67,0,0,1,137.87,171.47c-.34,3.67-.52,7.38-.52,11.14a118.65,118.65,0,1,0,237.3,0c0-3.76-.18-7.47-.52-11.14A118.67,118.67,0,0,1,256,279Z"/><path fill="#fff" d="M218.47 226.62a7.5 7.5 0 0 1-5.31-12.8l74-74a7.5 7.5 0 1 1 10.6 10.6l-74 74.05A7.47 7.47 0 0 1 218.47 226.62zM286.64 237a23.74 23.74 0 1 1 16.79-7h0A23.71 23.71 0 0 1 286.64 237zm11.49-12.25h0zm-11.49-20.23a8.75 8.75 0 1 0 6.19 2.56A8.72 8.72 0 0 0 286.64 204.51zM225.36 175.71a23.74 23.74 0 1 1 16.79-6.94A23.67 23.67 0 0 1 225.36 175.71zm0-32.48a8.75 8.75 0 1 0 6.19 2.56A8.72 8.72 0 0 0 225.36 143.23z"/></svg>