<svg xmlns="http://www.w3.org/2000/svg" data-name="Layer 1" viewBox="0 0 512 512"><text font-family="Dosis-ExtraBold,Dosis" font-size="75" font-weight="800" letter-spacing=".07em" transform="matrix(.99 0 0 1 139.96 421.28)">OFFER</text><text font-family="Dosis-ExtraBold,Dosis" font-size="75" font-weight="800" letter-spacing=".08em" transform="matrix(.99 0 0 1 163.27 167.28)">BEST</text><circle cx="338.5" cy="261" r="7.5"/><circle cx="173.5" cy="261" r="7.5"/><path fill="#c0232c" d="M500.1,175.4a14.92,14.92,0,0,0-10.6-4.4H22.5a15,15,0,0,0-15,15,13.82,13.82,0,0,0,.09,1.58A15,15,0,0,0,22.5,201h467a15,15,0,0,0,14.91-13.42,13.82,13.82,0,0,0,.09-1.58A14.92,14.92,0,0,0,500.1,175.4Z"/><path fill="#fed947" d="M474.47,186l-.69,15-5.33,115c-.59,1.68-1.2,3.34-1.84,5C434.35,405.91,352.22,466.24,256,466.24S77.65,405.91,45.39,321c-.64-1.66-1.25-3.32-1.84-5L38.22,201l-.69-15c.28-1.14.58-2.28.88-3.42q2.25-8.43,5.14-16.58C74.45,78.48,157.9,15.76,256,15.76S437.55,78.48,468.45,166q2.88,8.15,5.14,16.58C473.89,183.72,474.19,184.86,474.47,186Z"/><path fill="#f8be32" d="M473.78,201l-5.33,115c-.59,1.68-1.2,3.34-1.84,5C434.35,405.91,352.22,466.24,256,466.24S77.65,405.91,45.39,321c-.64-1.66-1.25-3.32-1.84-5L38.22,201l-.1-2.27c-.2.75-.4,1.51-.59,2.27l.69,15,5.33,115c.59,1.68,1.2,3.34,1.84,5C77.65,420.91,159.78,481.24,256,481.24S434.35,420.91,466.61,336c.64-1.66,1.25-3.32,1.84-5l5.33-115,.69-15c-.19-.76-.39-1.52-.59-2.27Z"/><path fill="#e4222e" d="M143.39 404V384.16c0-12.9 8-17.7 18.28-17.7s18.35 4.8 18.35 17.7V404c0 12.9-8.06 17.7-18.35 17.7S143.39 416.93 143.39 404zm25-19.87c0-5.18-2.54-7.5-6.71-7.5S155 379 155 384.16V404c0 5.18 2.46 7.5 6.64 7.5s6.71-2.32 6.71-7.5zM193.07 370.06c0-2.4 2.54-3.6 5.08-3.6H224c2.46 0 3.51 2.62 3.51 5 0 2.78-1.27 5.18-3.51 5.18H204.71v12.67H216c2.23 0 3.5 2.18 3.5 4.58 0 2-1 4.42-3.5 4.42H204.71v19.35c0 2.4-2.91 3.6-5.82 3.6s-5.82-1.2-5.82-3.6zM237.09 370.06c0-2.4 2.53-3.6 5.07-3.6h25.89c2.46 0 3.5 2.62 3.5 5 0 2.78-1.26 5.18-3.5 5.18H248.73v12.67H260c2.24 0 3.51 2.18 3.51 4.58 0 2-1.05 4.42-3.51 4.42H248.73v19.35c0 2.4-2.91 3.6-5.82 3.6s-5.82-1.2-5.82-3.6zM292.74 389.33h11.19c2.24 0 3.51 2.18 3.51 4.58 0 2-1.05 4.42-3.51 4.42H292.74v12.75h20c2.24 0 3.51 2.4 3.51 5.18 0 2.4-1 5-3.51 5H286.18c-2.54 0-5.08-1.2-5.08-3.6V370.06c0-2.4 2.54-3.6 5.08-3.6h26.55c2.47 0 3.51 2.62 3.51 5 0 2.78-1.27 5.18-3.51 5.18h-20zM326.91 370a3.48 3.48 0 0 1 3.58-3.52h15.44c10.22 0 18.35 3.82 18.35 16.05 0 8.4-3.8 13.2-9 15.22l9.1 16.58a2.45 2.45 0 0 1 .37 1.35c0 2.92-3.88 6.07-7.31 6.07a4 4 0 0 1-3.73-2.17l-10.22-19.95h-4.92v18.07c0 2.4-2.91 3.6-5.82 3.6s-5.82-1.2-5.82-3.6zm11.64 6.68v13.95h7.38c4.18 0 6.72-1.73 6.72-7s-2.54-7-6.72-7zM167.3 116.06c0-2.4 2.54-3.6 5.07-3.6h15.3c7.46 0 14.92 2.7 14.92 13.35 0 6.07-2.39 10.05-6.35 11.77 4.55 1.73 7.69 4.5 7.69 12v1.58c0 11.85-6.57 16.12-15 16.12H172.37c-3.13 0-5.07-1.65-5.07-3.52zm11.56 17h7.84c2.83 0 4.25-2.62 4.25-5.17s-1.42-5.25-4.25-5.25h-7.84zm7.46 24c3.73 0 6-2.1 6-6.9V149c0-5.1-2.24-6.9-6-6.9h-7.46v15zM227.2 135.33h11.2c2.23 0 3.5 2.18 3.5 4.58 0 2-1 4.42-3.5 4.42H227.2v12.75h20c2.24 0 3.5 2.4 3.5 5.18 0 2.4-1 5-3.5 5H220.64c-2.54 0-5.07-1.2-5.07-3.6V116.06c0-2.4 2.53-3.6 5.07-3.6H247.2c2.46 0 3.5 2.62 3.5 5 0 2.78-1.26 5.18-3.5 5.18h-20zM283.75 152.58c0-9.07-23.65-7.5-23.65-25.05 0-11.25 9.78-15.52 19.1-15.52 3.95 0 14.85.75 14.85 6.6 0 2-1.35 6.15-4.63 6.15-2.68 0-4.1-2.85-10.22-2.85-5.3 0-7.46 2.17-7.46 4.5 0 7.5 23.65 6.07 23.65 25 0 10.8-7.83 16.65-18.65 16.65-9.77 0-18-4.8-18-9.75 0-2.55 2.24-6.3 5.07-6.3 3.51 0 5.75 5.55 12.69 5.55C280 157.53 283.75 156.18 283.75 152.58zM339 112.46c2.46 0 3.51 2.7 3.51 5.17 0 2.85-1.27 5.33-3.51 5.33H328.74v40.72c0 2.4-2.91 3.6-5.82 3.6s-5.82-1.2-5.82-3.6V123H306.8c-2.23 0-3.5-2.48-3.5-5.33 0-2.47 1-5.17 3.5-5.17z"/><path fill="#f8be32" d="M473.78,216l-5.33,115c-.59,1.68-1.2,3.34-1.84,5H45.39c-.64-1.66-1.25-3.32-1.84-5L38.22,216Z"/><path fill="#e4222e" d="M504.5,187.58V291a30,30,0,0,1-30,30H37.5a30,30,0,0,1-30-30V187.58h.09A15,15,0,0,0,22.5,201h467a15,15,0,0,0,14.91-13.42Z"/><path fill="#fed947" d="M257.84,228l9.47,19.19a2,2,0,0,0,1.55,1.12L290,251.39a2.06,2.06,0,0,1,1.14,3.5l-15.33,14.94a2,2,0,0,0-.59,1.82l3.62,21.09a2.06,2.06,0,0,1-3,2.17L257,285a2,2,0,0,0-1.9,0l-19,10a2.06,2.06,0,0,1-3-2.17l3.62-21.09a2,2,0,0,0-.59-1.82l-15.33-14.94a2.06,2.06,0,0,1,1.14-3.5l21.18-3.08a2,2,0,0,0,1.55-1.12L254.16,228A2,2,0,0,1,257.84,228Z"/><circle cx="338.5" cy="261" r="7.5" fill="#fff"/><circle cx="173.5" cy="261" r="7.5" fill="#fff"/></svg>