<svg xmlns="http://www.w3.org/2000/svg" data-name="Layer 1" viewBox="0 0 512 512"><path fill="none" d="M504.5,256c0,17.88-30.81,32.06-34.62,48.79-3.93,17.28,17.58,43.38,10.06,59-7.65,15.84-41.57,15.26-52.44,28.87S424.63,439.2,411,450.12s-43.92-4.26-59.77,3.38c-15.6,7.52-22.59,40.69-39.88,44.61-16.75,3.81-37.4-23-55.3-23s-38.55,26.77-55.3,23c-17.29-3.92-24.28-37.09-39.88-44.61-15.85-7.64-46.15,7.49-59.77-3.38S95.43,406.3,84.5,392.63s-44.79-13-52.44-28.87c-7.52-15.59,14-41.69,10.06-59C38.31,288.06,7.5,273.88,7.5,256s30.81-32.06,34.62-48.79c3.93-17.28-17.58-43.38-10.06-59C39.71,132.4,73.63,133,84.5,119.37s2.87-46.57,16.55-57.49S145,66.14,160.82,58.5c15.6-7.52,22.59-40.69,39.88-44.61,16.75-3.81,37.4,23,55.3,23s38.55-26.77,55.3-23C328.59,17.81,335.58,51,351.18,58.5,367,66.14,397.33,51,411,61.88s5.62,43.82,16.55,57.49,44.79,13,52.44,28.87c7.52,15.59-14,41.69-10.06,59C473.69,223.94,504.5,238.12,504.5,256Z"/><path fill="#fff" d="M504.5,256c0,17.88-30.81,32.06-34.62,48.79-3.93,17.28,17.58,43.38,10.06,59-7.65,15.84-41.57,15.26-52.44,28.87S424.63,439.2,411,450.12s-43.92-4.26-59.77,3.38c-15.6,7.52-22.59,40.69-39.88,44.61-16.75,3.81-37.4-23-55.3-23s-38.55,26.77-55.3,23c-17.29-3.92-24.28-37.09-39.88-44.61-15.85-7.64-46.15,7.49-59.77-3.38S95.43,406.3,84.5,392.63s-44.79-13-52.44-28.87c-7.52-15.59,14-41.69,10.06-59C38.31,288.06,7.5,273.88,7.5,256s30.81-32.06,34.62-48.79c3.93-17.28-17.58-43.38-10.06-59C39.71,132.4,73.63,133,84.5,119.37s2.87-46.57,16.55-57.49S145,66.14,160.82,58.5c15.6-7.52,22.59-40.69,39.88-44.61,16.75-3.81,37.4,23,55.3,23s38.55-26.77,55.3-23C328.59,17.81,335.58,51,351.18,58.5,367,66.14,397.33,51,411,61.88s5.62,43.82,16.55,57.49,44.79,13,52.44,28.87c7.52,15.59-14,41.69-10.06,59C473.69,223.94,504.5,238.12,504.5,256Z"/><path fill="#fed947" d="M504.5,256c0,17.88-30.81,32.06-34.62,48.79-3.93,17.28,17.58,43.38,10.06,59-7.65,15.84-41.57,15.26-52.44,28.87S424.63,439.2,411,450.12s-43.92-4.26-59.77,3.38c-15.6,7.52-22.59,40.69-39.88,44.61-16.75,3.81-37.4-23-55.3-23s-38.55,26.77-55.3,23c-17.29-3.92-24.28-37.09-39.88-44.61-15.85-7.64-46.15,7.49-59.77-3.38S95.43,406.3,84.5,392.63s-44.79-13-52.44-28.87c-7.52-15.59,14-41.69,10.06-59C38.31,288.06,7.5,273.88,7.5,256s30.81-32.06,34.62-48.79c3.93-17.28-17.58-43.38-10.06-59C39.71,132.4,73.63,133,84.5,119.37s2.87-46.57,16.55-57.49S145,66.14,160.82,58.5c15.6-7.52,22.59-40.69,39.88-44.61,16.75-3.81,37.4,23,55.3,23s38.55-26.77,55.3-23C328.59,17.81,335.58,51,351.18,58.5,367,66.14,397.33,51,411,61.88s5.62,43.82,16.55,57.49,44.79,13,52.44,28.87c7.52,15.59-14,41.69-10.06,59C473.69,223.94,504.5,238.12,504.5,256Z"/><path fill="#f8be32" d="M42.12 192.21c2.77-12.17-7.07-28.71-10.51-42.87-4.67 12 6.27 29.74 9.88 44.95A17.7 17.7 0 0 0 42.12 192.21zM469.88 192.21a17.7 17.7 0 0 0 .63 2.08c3.61-15.21 14.55-32.91 9.88-44.95C477 163.5 467.11 180 469.88 192.21zM41.49 302.71c1.09-4.61 1.52-9 .63-12.92C38.86 275.47 15.82 263 9.26 248.5A18 18 0 0 0 7.5 256C7.5 273.13 35.78 286.87 41.49 302.71zM469.88 289.79c-.89 3.93-.46 8.31.63 12.92 5.71-15.84 34-29.58 34-46.71a18 18 0 0 0-1.76-7.5C496.18 263 473.14 275.47 469.88 289.79zM479.94 348.76c-7.65 15.84-41.57 15.26-52.44 28.87S424.63 424.2 411 435.12s-43.92-4.26-59.77 3.38c-15.6 7.52-22.59 40.69-39.88 44.61-16.75 3.81-37.4-23-55.3-23s-38.55 26.77-55.3 23c-17.29-3.92-24.28-37.09-39.88-44.61-15.85-7.64-46.15 7.49-59.77-3.38S95.43 391.3 84.5 377.63s-44.79-13-52.44-28.87c-.17-.36-.31-.73-.45-1.1-1.45 5.95-1.77 11.49.45 16.1C39.71 379.6 73.63 379 84.5 392.63s2.87 46.57 16.55 57.49 43.92-4.26 59.77 3.38c15.6 7.52 22.59 40.69 39.88 44.61 16.75 3.81 37.4-23 55.3-23s38.55 26.77 55.3 23c17.29-3.92 24.28-37.09 39.88-44.61C367 445.86 397.33 461 411 450.12s5.62-43.82 16.55-57.49 44.79-13 52.44-28.87c2.22-4.61 1.9-10.15.45-16.1C480.25 348 480.11 348.4 479.94 348.76z"/><path fill="#f8be32" d="M41.49 302.71c1.09-4.61 1.52-9 .63-12.92C38.86 275.47 15.82 263 9.26 248.5A18 18 0 0 0 7.5 256C7.5 273.13 35.78 286.87 41.49 302.71zM469.88 192.21a17.7 17.7 0 0 0 .63 2.08c3.61-15.21 14.55-32.91 9.88-44.95C477 163.5 467.11 180 469.88 192.21zM42.12 192.21c2.77-12.17-7.07-28.71-10.51-42.87-4.67 12 6.27 29.74 9.88 44.95A17.7 17.7 0 0 0 42.12 192.21zM469.88 289.79c-.89 3.93-.46 8.31.63 12.92 5.71-15.84 34-29.58 34-46.71a18 18 0 0 0-1.76-7.5C496.18 263 473.14 275.47 469.88 289.79zM105 452.38c6.66 2.75 15.64 1.87 24.84.68C123.09 450.33 114.12 451.19 105 452.38z"/><circle cx="256" cy="286" r="171.35" fill="#f8be32"/><circle cx="256" cy="256" r="171.35" fill="#e4222e"/><path fill="#c0232c" d="M256,397.35A171.36,171.36,0,0,1,85.31,241c-.43,4.94-.66,9.94-.66,15a171.35,171.35,0,0,0,342.7,0c0-5.06-.23-10.06-.66-15A171.36,171.36,0,0,1,256,397.35Z"/><path fill="#fff" d="M189.2 328.48a7.5 7.5 0 0 1-5.3-12.8L315.68 183.9a7.5 7.5 0 1 1 10.6 10.6L194.5 326.28A7.44 7.44 0 0 1 189.2 328.48zM299.92 336.32a36.4 36.4 0 1 1 25.75-10.65h0A36.29 36.29 0 0 1 299.92 336.32zm0-57.81a21.42 21.42 0 1 0 15.15 6.27A21.33 21.33 0 0 0 299.92 278.51zm20.45 41.86h0zM212.08 248.48a36.4 36.4 0 1 1 25.75-10.65A36.29 36.29 0 0 1 212.08 248.48zm0-57.81a21.41 21.41 0 1 0 15.14 6.26A21.38 21.38 0 0 0 212.08 190.67z"/></svg>