<svg xmlns="http://www.w3.org/2000/svg" data-name="Layer 1" viewBox="0 0 512 512"><path fill="#fed947" d="M454,256c0,14.33-24.55,25.69-27.58,39.1-3.13,13.84,14,34.76,8,47.25-6.09,12.69-33.12,12.23-41.78,23.13s-2.29,37.32-13.19,46.07-35-3.42-47.62,2.71c-12.43,6-18,32.6-31.78,35.75-13.34,3-29.8-18.41-44.06-18.41S225.28,453.05,211.94,450c-13.78-3.15-19.35-29.73-31.78-35.75-12.63-6.13-36.77,6-47.62-2.71s-4.48-35.11-13.19-46.07S83.66,355,77.57,342.35c-6-12.49,11.14-33.41,8-47.25C82.55,281.69,58,270.33,58,256s24.55-25.69,27.58-39.1c3.13-13.84-14-34.76-8-47.25,6.09-12.69,33.12-12.23,41.78-23.13s2.29-37.32,13.19-46.07,35,3.42,47.62-2.71c12.43-6,18-32.6,31.78-35.75C225.28,59,241.74,80.4,256,80.4S286.72,59,300.06,62c13.78,3.15,19.35,29.73,31.78,35.75,12.63,6.13,36.77-6,47.62,2.71s4.48,35.11,13.19,46.07,35.69,10.44,41.78,23.13c6,12.49-11.14,33.41-8,47.25C429.45,230.31,454,241.67,454,256Z"/><path fill="#fed947" d="M454,256c0,14.33-24.55,25.69-27.58,39.1-2.31,10.2,6.4,24.24,8.72,35.93.85,4.17.87,8-.71,11.32a13.62,13.62,0,0,1-2.65,3.68c-9,9-31.4,9.72-39.13,19.45-8.71,11-2.29,37.32-13.19,46.07s-35-3.42-47.62,2.71c-12.43,6-18,32.6-31.78,35.75-13.34,3-29.8-18.41-44.06-18.41S225.28,453.05,211.94,450c-13.78-3.15-19.35-29.73-31.78-35.75-12.63-6.13-36.77,6-47.62-2.71s-4.48-35.11-13.19-46.07c-7.73-9.73-30.08-10.41-39.13-19.45a13.62,13.62,0,0,1-2.65-3.68C76,339.06,76,335.2,76.86,331c2.32-11.69,11-25.73,8.72-35.93C82.55,281.69,58,270.33,58,256c0-11,14.47-20.25,22.56-30a22.63,22.63,0,0,0,5-9.07,18.48,18.48,0,0,0,.27-5.93c-1.33-13.38-13.47-30.51-8.28-41.32,6.09-12.69,33.12-12.23,41.78-23.13s2.29-37.32,13.19-46.07,35,3.42,47.62-2.71c12.43-6,18-32.6,31.78-35.75C225.28,59,241.74,80.4,256,80.4S286.72,59,300.06,62c13.78,3.15,19.35,29.73,31.78,35.75,12.63,6.13,36.77-6,47.62,2.71s4.48,35.11,13.19,46.07,35.69,10.44,41.78,23.13c5.19,10.81-6.95,27.94-8.28,41.32a18.48,18.48,0,0,0,.27,5.93,22.63,22.63,0,0,0,5,9.07C439.53,235.75,454,245,454,256Z"/><ellipse cx="255.43" cy="285.43" fill="#f8be32" rx="130.79" ry="131.49"/><path fill="#2370b5" d="M386.22,255.43a131.37,131.37,0,0,1-36,90.6,130.29,130.29,0,0,1-189.54,0A132.21,132.21,0,0,1,127.94,226c13.3-58.44,65.34-102,127.49-102s114.19,43.59,127.49,102A132.35,132.35,0,0,1,386.22,255.43Z"/><path fill="#f8be32" d="M454,256c0,14.33-24.55,25.69-27.58,39.1-2.31,10.2,6.4,24.24,8.72,35.93H76.86c2.32-11.69,11-25.73,8.72-35.93C82.55,281.69,58,270.33,58,256c0-11,14.47-20.25,22.56-30a22.63,22.63,0,0,0,5-9.07,18.48,18.48,0,0,0,.27-5.93h340.3a18.48,18.48,0,0,0,.27,5.93,22.63,22.63,0,0,0,5,9.07C439.53,235.75,454,245,454,256Z"/><path fill="#2370b5" d="M386.22,255.43A130.78,130.78,0,1,1,132.32,211c18.12-50.75,66.41-87,123.11-87s105,36.28,123.11,87a130,130,0,0,1,4.38,15A132.35,132.35,0,0,1,386.22,255.43Z"/><path fill="#0a56a4" d="M386.22,255.43A131.25,131.25,0,0,1,362.43,331h-214A132,132,0,0,1,132.32,211H378.54a130,130,0,0,1,4.38,15A132.35,132.35,0,0,1,386.22,255.43Z"/><polygon fill="#e4222e" points="504.5 316.03 7.5 316.03 26.62 255.43 7.5 195.97 504.5 195.97 485.38 255.43 504.5 316.03"/><path fill="#fff" d="M99.57 233.75c10.29 0 18.35 4.8 18.35 17.7v19.42c0 12.9-8.06 17.7-18.35 17.7H86.37c-3.06 0-5.08-1.65-5.08-3.53V237.27c0-1.87 2-3.52 5.08-3.52zM92.93 244v34.42h6.64c4.18 0 6.71-2.4 6.71-7.5V251.45c0-5.1-2.53-7.5-6.71-7.5zM130.9 237.27c0-2.47 2.91-3.52 5.82-3.52s5.82 1.05 5.82 3.52V285c0 2.4-2.91 3.6-5.82 3.6s-5.82-1.2-5.82-3.6zM178.57 273.87c0-9.08-23.65-7.5-23.65-25.05 0-11.25 9.78-15.52 19.1-15.52 4 0 14.85.75 14.85 6.6 0 2-1.35 6.14-4.63 6.14-2.68 0-4.1-2.84-10.22-2.84-5.29 0-7.46 2.17-7.46 4.5 0 7.5 23.65 6.07 23.65 25 0 10.8-7.83 16.65-18.65 16.65-9.77 0-18-4.8-18-9.75 0-2.55 2.24-6.3 5.07-6.3 3.51 0 5.75 5.55 12.69 5.55C174.77 278.82 178.57 277.47 178.57 273.87zM219.3 244c-4.25 0-6.71 2.4-6.71 7.5v19.87c0 5.1 2.46 7.5 6.79 7.5 6 0 6.34-4.58 6.56-7.5s2.76-3.53 5.75-3.53c4 0 5.89 1 5.89 5.55 0 10-8.05 15.68-18.72 15.68-9.78 0-17.91-4.8-17.91-17.7V251.45c0-12.9 8.13-17.7 17.91-17.7 10.67 0 18.72 5.4 18.72 14.92 0 4.5-1.86 5.55-5.82 5.55-3.13 0-5.67-.82-5.82-3.52C225.87 248.75 225.65 244 219.3 244zM248.47 271.32V251.45c0-12.9 8-17.7 18.28-17.7s18.35 4.8 18.35 17.7v19.87c0 12.9-8.05 17.7-18.35 17.7S248.47 284.22 248.47 271.32zm25-19.87c0-5.18-2.54-7.5-6.72-7.5s-6.64 2.32-6.64 7.5v19.87c0 5.17 2.46 7.5 6.64 7.5s6.72-2.33 6.72-7.5zM323.9 237.27c0-2.47 2.83-3.52 5.81-3.52s5.82 1.05 5.82 3.52v34c0 12.9-8.28 17.7-18.8 17.7s-18.79-4.8-18.79-17.7v-34c0-2.47 2.83-3.52 5.81-3.52s5.82 1.05 5.82 3.52v34c0 5.1 2.69 7.5 7.16 7.5s7.17-2.4 7.17-7.5zM374.77 285.42L360.6 259.47V285c0 2.4-2.91 3.6-5.82 3.6S349 287.37 349 285V237.35c0-2.48 2.91-3.6 5.82-3.6 4.18 0 5.75.37 8.58 5.85l12.09 23.17v-25.5c0-2.47 2.9-3.52 5.81-3.52s5.82 1.05 5.82 3.52V285c0 2.4-2.91 3.6-5.82 3.6C378.58 288.57 376.19 288 374.77 285.42zM433 233.75c2.46 0 3.5 2.7 3.5 5.17 0 2.85-1.26 5.33-3.5 5.33h-10.3V285c0 2.4-2.91 3.6-5.82 3.6s-5.82-1.2-5.82-3.6V244.25H400.81c-2.24 0-3.51-2.48-3.51-5.33 0-2.47 1.05-5.17 3.51-5.17z"/><circle cx="448" cy="256" r="7.5" fill="#fff"/><circle cx="59" cy="256" r="7.5" fill="#fff"/></svg>