<svg xmlns="http://www.w3.org/2000/svg" data-name="Layer 1" viewBox="0 0 512 512"><polygon fill="#f8be32" points="418.5 149.53 479.55 193.04 427.1 202.32 418.5 149.53"/><polygon fill="#f8be32" points="32.44 193.04 94.43 148.87 120.68 179.79 112.28 200.39 32.44 193.04"/><polygon fill="#e4222e" points="457.25 256 428.88 333.95 389.36 442.52 122.64 442.52 83.12 333.95 54.75 256 72.51 208.05 123.83 69.48 389.36 69.48 439.8 208.05 457.25 256"/><polygon fill="#c0232c" points="457.25 256 428.88 333.95 83.12 333.95 54.75 256 72.51 208.05 439.8 208.05 457.25 256"/><polygon fill="#fed947" points="479.55 318.95 32.45 318.95 7.5 256 32.45 193.04 479.55 193.04 504.5 256 479.55 318.95"/><path fill="#e4222e" d="M100.57 228.75c10.29 0 18.35 4.8 18.35 17.7v19.42c0 12.9-8.06 17.7-18.35 17.7H87.37c-3.06 0-5.08-1.65-5.08-3.53V232.27c0-1.87 2-3.52 5.08-3.52zM93.93 239v34.42h6.64c4.18 0 6.71-2.4 6.71-7.5V246.45c0-5.1-2.53-7.5-6.71-7.5zM131.9 232.27c0-2.47 2.91-3.52 5.82-3.52s5.82 1.05 5.82 3.52V280c0 2.4-2.91 3.6-5.82 3.6s-5.82-1.2-5.82-3.6zM179.57 268.87c0-9.08-23.65-7.5-23.65-25.05 0-11.25 9.78-15.52 19.1-15.52 4 0 14.85.75 14.85 6.6 0 2-1.35 6.14-4.63 6.14-2.68 0-4.1-2.84-10.22-2.84-5.29 0-7.46 2.17-7.46 4.5 0 7.5 23.65 6.07 23.65 25 0 10.8-7.83 16.65-18.65 16.65-9.77 0-18-4.8-18-9.75 0-2.55 2.24-6.3 5.07-6.3 3.51 0 5.75 5.55 12.69 5.55C175.77 273.82 179.57 272.47 179.57 268.87zM220.3 239c-4.25 0-6.71 2.4-6.71 7.5v19.87c0 5.1 2.46 7.5 6.79 7.5 6 0 6.34-4.58 6.56-7.5s2.76-3.53 5.75-3.53c4 0 5.89 1 5.89 5.55 0 10-8.05 15.68-18.72 15.68-9.78 0-17.91-4.8-17.91-17.7V246.45c0-12.9 8.13-17.7 17.91-17.7 10.67 0 18.72 5.4 18.72 14.92 0 4.5-1.86 5.55-5.82 5.55-3.13 0-5.67-.82-5.82-3.52C226.87 243.75 226.65 239 220.3 239zM249.47 266.32V246.45c0-12.9 8-17.7 18.28-17.7s18.35 4.8 18.35 17.7v19.87c0 12.9-8.05 17.7-18.35 17.7S249.47 279.22 249.47 266.32zm25-19.87c0-5.18-2.54-7.5-6.72-7.5s-6.64 2.32-6.64 7.5v19.87c0 5.17 2.46 7.5 6.64 7.5s6.72-2.33 6.72-7.5zM324.9 232.27c0-2.47 2.83-3.52 5.81-3.52s5.82 1.05 5.82 3.52v34c0 12.9-8.28 17.7-18.8 17.7s-18.79-4.8-18.79-17.7v-34c0-2.47 2.83-3.52 5.81-3.52s5.82 1.05 5.82 3.52v34c0 5.1 2.69 7.5 7.16 7.5s7.17-2.4 7.17-7.5zM375.77 280.42l-14.17-26V280c0 2.4-2.91 3.6-5.82 3.6S350 282.37 350 280V232.35c0-2.48 2.91-3.6 5.82-3.6 4.18 0 5.75.37 8.58 5.85l12.09 23.17v-25.5c0-2.47 2.9-3.52 5.81-3.52s5.82 1.05 5.82 3.52V280c0 2.4-2.91 3.6-5.82 3.6C379.58 283.57 377.19 283 375.77 280.42zM434 228.75c2.46 0 3.5 2.7 3.5 5.17 0 2.85-1.26 5.33-3.5 5.33h-10.3V280c0 2.4-2.91 3.6-5.82 3.6s-5.82-1.2-5.82-3.6V239.25H401.81c-2.24 0-3.51-2.48-3.51-5.33 0-2.47 1.05-5.17 3.51-5.17z"/><path fill="#fed947" d="M257.84,99l9.47,19.19a2,2,0,0,0,1.55,1.12L290,122.39a2.06,2.06,0,0,1,1.14,3.5l-15.33,14.94a2,2,0,0,0-.59,1.82l3.62,21.09a2.06,2.06,0,0,1-3,2.17L257,156a2,2,0,0,0-1.9,0l-19,10a2.06,2.06,0,0,1-3-2.17l3.62-21.09a2,2,0,0,0-.59-1.82l-15.33-14.94a2.06,2.06,0,0,1,1.14-3.5l21.18-3.08a2,2,0,0,0,1.55-1.12L254.16,99A2,2,0,0,1,257.84,99Z"/><circle cx="338.5" cy="132" r="7.5" fill="#fff"/><circle cx="173.5" cy="132" r="7.5" fill="#fff"/><circle cx="338.5" cy="381" r="7.5" fill="#fff"/><circle cx="297.25" cy="381" r="7.5" fill="#fed947"/><circle cx="173.5" cy="381" r="7.5" fill="#fff"/><circle cx="214.75" cy="381" r="7.5" fill="#fed947"/><circle cx="256" cy="381" r="7.5" fill="#fff"/></svg>