<svg xmlns="http://www.w3.org/2000/svg" data-name="Layer 1" viewBox="0 0 512 512"><rect width="438.64" height="110.05" x="36.68" y="7.5" fill="#e4222e"/><polygon fill="#2370b5" points="447 117.55 447 429.32 256 504.5 65 429.32 65 117.55 447 117.55"/><rect width="382" height="15" x="65" y="117.55" fill="#0a56a4"/><path fill="#fff" d="M95.57 37.75c10.29 0 18.35 4.79 18.35 17.7V74.87c0 12.9-8.06 17.7-18.35 17.7H82.36c-3 0-5.07-1.65-5.07-3.53V41.27c0-1.87 2-3.52 5.07-3.52zM88.93 48V82.37h6.64c4.18 0 6.71-2.4 6.71-7.5V55.45c0-5.1-2.53-7.5-6.71-7.5zM126.9 41.27c0-2.48 2.91-3.52 5.82-3.52s5.82 1 5.82 3.52V89c0 2.4-2.91 3.6-5.82 3.6s-5.82-1.2-5.82-3.6zM174.57 77.87c0-9.08-23.65-7.5-23.65-25.05 0-11.25 9.78-15.53 19.1-15.53 4 0 14.85.75 14.85 6.61 0 2-1.35 6.14-4.63 6.14-2.68 0-4.1-2.84-10.22-2.84-5.29 0-7.46 2.17-7.46 4.5 0 7.5 23.65 6.07 23.65 25 0 10.8-7.83 16.65-18.65 16.65-9.77 0-18-4.8-18-9.75 0-2.55 2.24-6.3 5.07-6.3 3.51 0 5.75 5.55 12.69 5.55C170.77 82.82 174.57 81.47 174.57 77.87zM215.3 48c-4.25 0-6.71 2.4-6.71 7.5V75.32c0 5.1 2.46 7.5 6.79 7.5 6 0 6.34-4.58 6.56-7.5s2.76-3.53 5.75-3.53c4 0 5.89 1 5.89 5.55 0 10-8.06 15.68-18.72 15.68-9.78 0-17.91-4.8-17.91-17.7V55.45c0-12.91 8.13-17.7 17.91-17.7 10.66 0 18.72 5.4 18.72 14.92 0 4.5-1.86 5.55-5.82 5.55-3.13 0-5.67-.83-5.82-3.52C221.87 52.75 221.65 48 215.3 48zM244.47 75.32V55.45c0-12.91 8-17.7 18.28-17.7s18.35 4.79 18.35 17.7V75.32c0 12.9-8.05 17.7-18.35 17.7S244.47 88.22 244.47 75.32zm25-19.87c0-5.18-2.54-7.5-6.72-7.5s-6.64 2.32-6.64 7.5V75.32c0 5.17 2.46 7.5 6.64 7.5s6.72-2.33 6.72-7.5zM319.9 41.27c0-2.48 2.83-3.52 5.81-3.52s5.82 1 5.82 3.52v34c0 12.9-8.28 17.7-18.8 17.7s-18.79-4.8-18.79-17.7v-34c0-2.48 2.83-3.52 5.81-3.52s5.82 1 5.82 3.52v34c0 5.1 2.69 7.5 7.16 7.5s7.17-2.4 7.17-7.5zM370.77 89.42L356.6 63.47V89c0 2.4-2.91 3.6-5.82 3.6S345 91.37 345 89V41.35c0-2.48 2.91-3.6 5.82-3.6 4.18 0 5.74.37 8.58 5.85l12.08 23.17V41.27c0-2.48 2.91-3.52 5.82-3.52s5.82 1 5.82 3.52V89c0 2.4-2.91 3.6-5.82 3.6C374.58 92.57 372.19 92 370.77 89.42zM429 37.75c2.46 0 3.5 2.7 3.5 5.17 0 2.85-1.27 5.33-3.5 5.33h-10.3V89c0 2.4-2.91 3.6-5.82 3.6s-5.82-1.2-5.82-3.6V48.25H396.81c-2.24 0-3.51-2.48-3.51-5.33 0-2.47 1.05-5.17 3.51-5.17z"/><polygon fill="#fed947" points="100 405.48 100 152.55 412 152.55 412 405.48 256 466.89 100 405.48"/><path fill="#e4222e" d="M258 254.21l10.15 21.08a2.22 2.22 0 0 0 1.65 1.23l22.7 3.38a2.26 2.26 0 0 1 1.21 3.84l-16.42 16.41a2.31 2.31 0 0 0-.63 2l3.88 23.17a2.21 2.21 0 0 1-3.19 2.38L257 316.75a2.11 2.11 0 0 0-2 0l-20.3 10.94a2.21 2.21 0 0 1-3.19-2.38l3.88-23.17a2.31 2.31 0 0 0-.63-2l-16.42-16.41a2.26 2.26 0 0 1 1.21-3.84l22.7-3.38a2.22 2.22 0 0 0 1.65-1.23L254 254.21A2.17 2.17 0 0 1 258 254.21zM164.18 298.44l8.26 16.86a1.8 1.8 0 0 0 1.34 1l18.46 2.7a1.81 1.81 0 0 1 1 3.07l-13.36 13.13a1.81 1.81 0 0 0-.51 1.6l3.15 18.53a1.79 1.79 0 0 1-2.59 1.9l-16.51-8.75a1.75 1.75 0 0 0-1.66 0l-16.51 8.75a1.79 1.79 0 0 1-2.59-1.9l3.15-18.53a1.79 1.79 0 0 0-.52-1.6l-13.35-13.13a1.8 1.8 0 0 1 1-3.07l18.46-2.7a1.8 1.8 0 0 0 1.34-1L161 298.44A1.78 1.78 0 0 1 164.18 298.44zM351 298.44l8.26 16.86a1.8 1.8 0 0 0 1.34 1l18.46 2.7a1.8 1.8 0 0 1 1 3.07l-13.35 13.13a1.79 1.79 0 0 0-.52 1.6l3.15 18.53a1.79 1.79 0 0 1-2.59 1.9l-16.51-8.75a1.75 1.75 0 0 0-1.66 0l-16.51 8.75a1.79 1.79 0 0 1-2.59-1.9l3.15-18.53a1.81 1.81 0 0 0-.51-1.6l-13.36-13.13a1.81 1.81 0 0 1 1-3.07l18.46-2.7a1.8 1.8 0 0 0 1.34-1l8.26-16.86A1.78 1.78 0 0 1 351 298.44z"/><circle cx="256" cy="394" r="7.5" fill="#fff"/><circle cx="226" cy="394" r="7.5" fill="#fff"/><circle cx="286" cy="394" r="7.5" fill="#fff"/><circle cx="256" cy="199" r="7.5" fill="#fff"/><circle cx="226" cy="199" r="7.5" fill="#fff"/><circle cx="286" cy="199" r="7.5" fill="#fff"/></svg>