<svg xmlns="http://www.w3.org/2000/svg" data-name="Layer 1" viewBox="0 0 512 512"><path fill="#2370b5" d="M448.47,222.06A40.89,40.89,0,0,0,444.86,211a41.32,41.32,0,0,0-16.67-17.67,41.3,41.3,0,0,0-31.82-55.12,41.29,41.29,0,0,0-48.75-40.9,41.29,41.29,0,0,0-59.8-21.77,41.29,41.29,0,0,0-63.64,0,41.29,41.29,0,0,0-59.8,21.77,41.29,41.29,0,0,0-48.75,40.9,41.3,41.3,0,0,0-31.82,55.12A41.32,41.32,0,0,0,67.14,211a41.31,41.31,0,0,0,5.62,45,41.28,41.28,0,0,0,11,62.67A41.88,41.88,0,0,0,81.26,331a41.32,41.32,0,0,0,34.37,42.79,41.29,41.29,0,0,0,48.75,40.9,41.29,41.29,0,0,0,59.8,21.77,41.29,41.29,0,0,0,63.64,0,41.29,41.29,0,0,0,59.8-21.77,41.29,41.29,0,0,0,48.75-40.9A41.32,41.32,0,0,0,430.74,331a41.88,41.88,0,0,0-2.55-12.33A41.28,41.28,0,0,0,439.24,256,41.21,41.21,0,0,0,448.47,222.06Z"/><path fill="#2370b5" d="M368,331a135,135,0,0,0,15.08-120h61.8a41.32,41.32,0,0,0-16.67-17.67,41.3,41.3,0,0,0-31.82-55.12,41.29,41.29,0,0,0-48.75-40.9,41.29,41.29,0,0,0-59.8-21.77,41.29,41.29,0,0,0-63.64,0,41.29,41.29,0,0,0-59.8,21.77,41.29,41.29,0,0,0-48.75,40.9,41.3,41.3,0,0,0-31.82,55.12A41.32,41.32,0,0,0,67.14,211h61.8A135,135,0,0,0,144,331H81.26a41.32,41.32,0,0,0,34.37,42.79,41.29,41.29,0,0,0,48.75,40.9,41.29,41.29,0,0,0,59.8,21.77,41.29,41.29,0,0,0,63.64,0,41.29,41.29,0,0,0,59.8-21.77,41.29,41.29,0,0,0,48.75-40.9A41.32,41.32,0,0,0,430.74,331Z"/><path fill="#fed947" d="M390.76,256a134.64,134.64,0,1,1-7.7-45A134.12,134.12,0,0,1,390.76,256Z"/><path fill="#f8be32" d="M439.24,256a41.28,41.28,0,0,1-11.05,62.67A41.88,41.88,0,0,1,430.74,331l-40-15L368,331H144l-25-15L81.26,331a41.88,41.88,0,0,1,2.55-12.33,41.28,41.28,0,0,1-11-62.67,41.31,41.31,0,0,1-5.62-45H444.86a41.31,41.31,0,0,1-5.62,45Z"/><path fill="#1067ae" d="M439.24 256a41.28 41.28 0 0 1-11.05 62.67A41.88 41.88 0 0 1 430.74 331H368a135 135 0 0 0 15.08-120h61.8a41.31 41.31 0 0 1-5.62 45zM81.26 331a41.88 41.88 0 0 1 2.55-12.33 41.28 41.28 0 0 1-11-62.67 41.31 41.31 0 0 1-5.62-45h61.8A135 135 0 0 0 144 331z"/><path fill="#f8be32" d="M390.76,256A134.12,134.12,0,0,1,368,331H144a135,135,0,0,1-15.08-120H383.06A134.38,134.38,0,0,1,390.76,256Z"/><polygon fill="#e4222e" points="504.5 316 7.5 316 22.5 255.79 7.5 196 504.5 196 489.5 255.79 504.5 316"/><path fill="#fff" d="M97.57 229.75c10.29 0 18.35 4.8 18.35 17.7v19.42c0 12.9-8.06 17.7-18.35 17.7H84.36c-3 0-5.07-1.65-5.07-3.53V233.27c0-1.87 2-3.52 5.07-3.52zM90.93 240v34.42h6.64c4.18 0 6.71-2.4 6.71-7.5V247.45c0-5.1-2.53-7.5-6.71-7.5zM128.9 233.27c0-2.47 2.91-3.52 5.82-3.52s5.82 1.05 5.82 3.52V281c0 2.4-2.91 3.6-5.82 3.6s-5.82-1.2-5.82-3.6zM176.57 269.87c0-9.08-23.65-7.5-23.65-25.05 0-11.25 9.78-15.52 19.1-15.52 4 0 14.85.75 14.85 6.6 0 2-1.35 6.15-4.63 6.15-2.68 0-4.1-2.85-10.22-2.85-5.29 0-7.46 2.17-7.46 4.5 0 7.5 23.65 6.07 23.65 25 0 10.8-7.83 16.65-18.65 16.65-9.77 0-18-4.8-18-9.75 0-2.55 2.24-6.3 5.07-6.3 3.51 0 5.75 5.55 12.69 5.55C172.77 274.82 176.57 273.47 176.57 269.87zM217.3 240c-4.25 0-6.71 2.4-6.71 7.5v19.87c0 5.1 2.46 7.5 6.79 7.5 6 0 6.34-4.58 6.56-7.5s2.76-3.53 5.75-3.53c4 0 5.89 1 5.89 5.55 0 10-8.06 15.68-18.72 15.68-9.78 0-17.91-4.8-17.91-17.7V247.45c0-12.9 8.13-17.7 17.91-17.7 10.66 0 18.72 5.4 18.72 14.92 0 4.5-1.86 5.55-5.82 5.55-3.13 0-5.67-.82-5.82-3.52C223.87 244.75 223.65 240 217.3 240zM246.47 267.32V247.45c0-12.9 8-17.7 18.28-17.7s18.35 4.8 18.35 17.7v19.87c0 12.9-8.05 17.7-18.35 17.7S246.47 280.22 246.47 267.32zm25-19.87c0-5.18-2.54-7.5-6.72-7.5s-6.64 2.32-6.64 7.5v19.87c0 5.17 2.46 7.5 6.64 7.5s6.72-2.33 6.72-7.5zM321.9 233.27c0-2.47 2.83-3.52 5.81-3.52s5.82 1.05 5.82 3.52v34c0 12.9-8.28 17.7-18.8 17.7s-18.79-4.8-18.79-17.7v-34c0-2.47 2.83-3.52 5.81-3.52s5.82 1.05 5.82 3.52v34c0 5.1 2.69 7.5 7.16 7.5s7.17-2.4 7.17-7.5zM372.77 281.42l-14.17-26V281c0 2.4-2.91 3.6-5.82 3.6S347 283.37 347 281V233.35c0-2.48 2.91-3.6 5.82-3.6 4.18 0 5.74.37 8.58 5.85l12.08 23.17v-25.5c0-2.47 2.91-3.52 5.82-3.52s5.82 1.05 5.82 3.52V281c0 2.4-2.91 3.6-5.82 3.6C376.58 284.57 374.19 284 372.77 281.42zM431 229.75c2.46 0 3.5 2.7 3.5 5.17 0 2.85-1.27 5.33-3.5 5.33h-10.3V281c0 2.4-2.91 3.6-5.82 3.6s-5.82-1.2-5.82-3.6V240.25H398.81c-2.24 0-3.51-2.48-3.51-5.33 0-2.47 1.05-5.17 3.51-5.17z"/><circle cx="458.5" cy="256" r="7.5" fill="#fff"/><circle cx="53.5" cy="256" r="7.5" fill="#fff"/></svg>