<svg xmlns="http://www.w3.org/2000/svg" data-name="Layer 1" viewBox="0 0 512 512"><line x1="94.5" x2="15" y1="390.28" y2="331.5" fill="#803391"/><polyline fill="#672e79" points="94.5 390.28 140.54 333.25 86.5 301.5 15 331.5"/><polygon fill="#672e79" points="417.5 390.28 497 331.5 407.07 301.5 417.5 390.28"/><polygon fill="#fed947" points="417.5 7.5 417.5 504.5 94.5 453.3 94.5 7.5 417.5 7.5"/><rect width="323" height="195" x="94.5" y="151.5" fill="#f8be32"/><rect width="482" height="195" x="15" y="136.5" fill="#803391"/><path fill="#fff" d="M97.57 208.75c10.29 0 18.35 4.79 18.35 17.7v19.42c0 12.9-8.06 17.7-18.35 17.7H84.37c-3.06 0-5.08-1.65-5.08-3.53V212.27c0-1.87 2-3.52 5.08-3.52zM90.93 219v34.42h6.64c4.18 0 6.71-2.4 6.71-7.5V226.45c0-5.1-2.53-7.5-6.71-7.5zM128.9 212.27c0-2.48 2.91-3.52 5.82-3.52s5.82 1 5.82 3.52V260c0 2.4-2.91 3.6-5.82 3.6s-5.82-1.2-5.82-3.6zM176.57 248.87c0-9.08-23.65-7.5-23.65-25.05 0-11.25 9.78-15.53 19.1-15.53 4 0 14.85.75 14.85 6.61 0 2-1.35 6.14-4.63 6.14-2.68 0-4.1-2.84-10.22-2.84-5.29 0-7.46 2.17-7.46 4.5 0 7.5 23.65 6.07 23.65 25 0 10.8-7.83 16.65-18.65 16.65-9.77 0-18-4.8-18-9.75 0-2.55 2.24-6.3 5.07-6.3 3.51 0 5.75 5.55 12.69 5.55C172.77 253.82 176.57 252.47 176.57 248.87zM217.3 219c-4.25 0-6.71 2.4-6.71 7.5v19.87c0 5.1 2.46 7.5 6.79 7.5 6 0 6.34-4.58 6.56-7.5s2.76-3.53 5.75-3.53c4 0 5.89 1.05 5.89 5.55 0 10-8.05 15.68-18.72 15.68-9.78 0-17.91-4.8-17.91-17.7V226.45c0-12.91 8.13-17.7 17.91-17.7 10.67 0 18.72 5.4 18.72 14.92 0 4.5-1.86 5.55-5.82 5.55-3.13 0-5.67-.83-5.82-3.52C223.87 223.75 223.65 219 217.3 219zM246.47 246.32V226.45c0-12.91 8-17.7 18.28-17.7s18.35 4.79 18.35 17.7v19.87c0 12.9-8.05 17.7-18.35 17.7S246.47 259.22 246.47 246.32zm25-19.87c0-5.18-2.54-7.5-6.72-7.5s-6.64 2.32-6.64 7.5v19.87c0 5.17 2.46 7.5 6.64 7.5s6.72-2.33 6.72-7.5zM321.9 212.27c0-2.48 2.83-3.52 5.81-3.52s5.82 1 5.82 3.52v34c0 12.9-8.28 17.7-18.8 17.7s-18.79-4.8-18.79-17.7v-34c0-2.48 2.83-3.52 5.81-3.52s5.82 1 5.82 3.52v34c0 5.1 2.69 7.5 7.16 7.5s7.17-2.4 7.17-7.5zM372.77 260.42l-14.17-26V260c0 2.4-2.91 3.6-5.82 3.6S347 262.37 347 260V212.35c0-2.48 2.91-3.6 5.82-3.6 4.18 0 5.75.37 8.58 5.85l12.09 23.17v-25.5c0-2.48 2.9-3.52 5.81-3.52s5.82 1 5.82 3.52V260c0 2.4-2.91 3.6-5.82 3.6C376.58 263.57 374.19 263 372.77 260.42zM431 208.75c2.46 0 3.5 2.7 3.5 5.17 0 2.85-1.26 5.33-3.5 5.33h-10.3V260c0 2.4-2.91 3.6-5.82 3.6s-5.82-1.2-5.82-3.6V219.25H398.81c-2.24 0-3.51-2.48-3.51-5.33 0-2.47 1.05-5.17 3.51-5.17z"/><path fill="#e4222e" d="M257.84 41l9.47 19.19a2 2 0 0 0 1.55 1.12L290 64.39a2.06 2.06 0 0 1 1.14 3.5L275.85 82.83a2 2 0 0 0-.59 1.82l3.62 21.09a2.06 2.06 0 0 1-3 2.17L257 98a2 2 0 0 0-1.9 0l-19 10a2.06 2.06 0 0 1-3-2.17l3.62-21.09a2 2 0 0 0-.59-1.82L220.82 67.89a2.06 2.06 0 0 1 1.14-3.5l21.18-3.08a2 2 0 0 0 1.55-1.12L254.16 41A2 2 0 0 1 257.84 41zM257.84 371l9.47 19.19a2 2 0 0 0 1.55 1.12L290 394.39a2.06 2.06 0 0 1 1.14 3.5l-15.33 14.94a2 2 0 0 0-.59 1.82l3.62 21.09a2.06 2.06 0 0 1-3 2.17L257 428a2 2 0 0 0-1.9 0l-19 10a2.06 2.06 0 0 1-3-2.17l3.62-21.09a2 2 0 0 0-.59-1.82l-15.33-14.94a2.06 2.06 0 0 1 1.14-3.5l21.18-3.08a2 2 0 0 0 1.55-1.12L254.16 371A2 2 0 0 1 257.84 371z"/><circle cx="458.5" cy="235" r="7.5" fill="#fff"/><circle cx="53.5" cy="235" r="7.5" fill="#fff"/></svg>