<svg xmlns="http://www.w3.org/2000/svg" data-name="Layer 1" viewBox="0 0 512 512"><polygon fill="#f8be32" points="7.5 172.59 73.72 100.88 118.92 137.67 110.33 187.93 7.5 172.59"/><polygon fill="#f8be32" points="504.5 292.59 440 361.67 405.61 344.09 427.77 281.74 504.5 292.59"/><polygon fill="#e4222e" points="440 7.5 440 504.5 256 429.5 78.07 504.5 75.67 307.59 74.2 187.59 72 7.5 440 7.5"/><polygon fill="#c0232c" points="440 187.59 440 307.59 75.67 307.59 74.2 187.59 440 187.59"/><rect width="497" height="120" x="7.5" y="172.59" fill="#fed947"/><path fill="#e4222e" d="M100.57 206.75c10.29 0 18.35 4.8 18.35 17.7v19.42c0 12.9-8.06 17.7-18.35 17.7H87.37c-3.06 0-5.08-1.65-5.08-3.53V210.27c0-1.87 2-3.52 5.08-3.52zM93.93 217v34.42h6.64c4.18 0 6.71-2.4 6.71-7.5V224.45c0-5.1-2.53-7.5-6.71-7.5zM131.9 210.27c0-2.47 2.91-3.52 5.82-3.52s5.82 1.05 5.82 3.52V258c0 2.4-2.91 3.6-5.82 3.6s-5.82-1.2-5.82-3.6zM179.57 246.87c0-9.08-23.65-7.5-23.65-25.05 0-11.25 9.78-15.52 19.1-15.52 4 0 14.85.75 14.85 6.6 0 2-1.35 6.14-4.63 6.14-2.68 0-4.1-2.84-10.22-2.84-5.29 0-7.46 2.17-7.46 4.5 0 7.5 23.65 6.07 23.65 25 0 10.8-7.83 16.65-18.65 16.65-9.77 0-18-4.8-18-9.75 0-2.55 2.24-6.3 5.07-6.3 3.51 0 5.75 5.55 12.69 5.55C175.77 251.82 179.57 250.47 179.57 246.87zM220.31 217c-4.26 0-6.72 2.4-6.72 7.5v19.87c0 5.1 2.46 7.5 6.79 7.5 6 0 6.34-4.58 6.56-7.5s2.76-3.53 5.75-3.53c4 0 5.89 1.05 5.89 5.55 0 10-8.05 15.68-18.72 15.68-9.78 0-17.91-4.8-17.91-17.7V224.45c0-12.9 8.13-17.7 17.91-17.7 10.67 0 18.72 5.4 18.72 14.92 0 4.5-1.86 5.55-5.82 5.55-3.13 0-5.67-.82-5.82-3.52C226.87 221.75 226.65 217 220.31 217zM249.48 244.32V224.45c0-12.9 8-17.7 18.27-17.7s18.35 4.8 18.35 17.7v19.87c0 12.9-8.05 17.7-18.35 17.7S249.48 257.22 249.48 244.32zm25-19.87c0-5.18-2.54-7.5-6.72-7.5s-6.64 2.32-6.64 7.5v19.87c0 5.17 2.46 7.5 6.64 7.5s6.72-2.33 6.72-7.5zM324.9 210.27c0-2.47 2.83-3.52 5.82-3.52 2.83 0 5.81 1.05 5.81 3.52v34c0 12.9-8.28 17.7-18.8 17.7s-18.79-4.8-18.79-17.7v-34c0-2.47 2.83-3.52 5.81-3.52s5.82 1.05 5.82 3.52v34c0 5.1 2.69 7.5 7.16 7.5s7.17-2.4 7.17-7.5zM375.77 258.42l-14.17-26V258c0 2.4-2.91 3.6-5.82 3.6S350 260.37 350 258V210.35c0-2.48 2.91-3.6 5.82-3.6 4.18 0 5.75.37 8.58 5.85l12.09 23.17v-25.5c0-2.47 2.9-3.52 5.81-3.52s5.82 1.05 5.82 3.52V258c0 2.4-2.91 3.6-5.82 3.6C379.58 261.57 377.19 261 375.77 258.42zM434 206.75c2.46 0 3.5 2.7 3.5 5.17 0 2.85-1.26 5.33-3.5 5.33h-10.3V258c0 2.4-2.91 3.6-5.82 3.6s-5.82-1.2-5.82-3.6V217.25H401.81c-2.24 0-3.51-2.48-3.51-5.33 0-2.47 1.05-5.17 3.51-5.17z"/><path fill="#fed947" d="M257.84 328l9.47 19.19a2 2 0 0 0 1.55 1.12L290 351.39a2.06 2.06 0 0 1 1.14 3.5l-15.33 14.94a2 2 0 0 0-.59 1.82l3.62 21.09a2.06 2.06 0 0 1-3 2.17L257 385a2 2 0 0 0-1.9 0l-19 10a2.06 2.06 0 0 1-3-2.17l3.62-21.09a2 2 0 0 0-.59-1.82l-15.33-14.94a2.06 2.06 0 0 1 1.14-3.5l21.18-3.08a2 2 0 0 0 1.55-1.12L254.16 328A2 2 0 0 1 257.84 328zM257.84 60l9.47 19.19a2 2 0 0 0 1.55 1.12L290 83.39a2.06 2.06 0 0 1 1.14 3.5l-15.33 14.94a2 2 0 0 0-.59 1.82l3.62 21.09a2.06 2.06 0 0 1-3 2.17L257 117a2 2 0 0 0-1.9 0l-19 10a2.06 2.06 0 0 1-3-2.17l3.62-21.09a2 2 0 0 0-.59-1.82L220.82 86.89a2.06 2.06 0 0 1 1.14-3.5l21.18-3.08a2 2 0 0 0 1.55-1.12L254.16 60A2 2 0 0 1 257.84 60z"/><circle cx="458.5" cy="235" r="7.5" fill="#fff"/><circle cx="53.5" cy="235" r="7.5" fill="#fff"/></svg>