<svg xmlns="http://www.w3.org/2000/svg" data-name="Layer 1" viewBox="0 0 512 512"><text font-family="Dosis-ExtraBold,Dosis" font-size="75" font-weight="800" letter-spacing=".08em" transform="matrix(.99 0 0 1 139.51 148.57)">FLASH</text><text font-family="Dosis-ExtraBold,Dosis" font-size="75" font-weight="800" letter-spacing=".07em" transform="matrix(.99 0 0 1 164.5 417.28)">SALE</text><circle cx="338.5" cy="250" r="7.5"/><circle cx="173.5" cy="250" r="7.5"/><polygon fill="#672e79" points="504.5 309.25 432.5 346.75 401.47 342.96 409.39 304.36 504.5 309.25"/><polygon fill="#672e79" points="7.5 309.25 79.5 346.75 111.99 331.49 84.28 274.17 7.5 309.25"/><polygon fill="#fed947" points="432.5 81 432.5 431 256.5 504.5 79.5 431 79.5 81 256 7.5 432.5 81"/><path fill="#803391" d="M143.54 97.35c0-2.4 2.53-3.6 5.07-3.6H174.5c2.46 0 3.5 2.62 3.5 5 0 2.77-1.26 5.18-3.5 5.18H155.18v12.67h11.26c2.24 0 3.51 2.17 3.51 4.57 0 2-1 4.43-3.51 4.43H155.18V145c0 2.4-2.91 3.6-5.82 3.6s-5.82-1.2-5.82-3.6zM192.63 148.57c-2.54 0-5.08-1.2-5.08-3.6V97.27c0-2.48 2.91-3.52 5.82-3.52s5.82 1 5.82 3.52v41.1h17c2.24 0 3.36 2.55 3.36 5.1s-1.12 5.1-3.36 5.1zM226.12 143.77a4.19 4.19 0 0 1 .15-.83L240.15 97.2c.82-2.63 4.18-3.91 7.61-3.91s6.79 1.28 7.61 3.91l13.95 45.74a4.19 4.19 0 0 1 .15.83c0 2.77-4.26 4.8-7.46 4.8-1.87 0-3.36-.6-3.81-2.18L255.66 137H239.92l-2.53 9.37c-.45 1.58-1.94 2.18-3.81 2.18C230.38 148.57 226.12 146.54 226.12 143.77zM253.2 128l-5.44-20.1L242.31 128zM301.77 133.87c0-9.08-23.65-7.5-23.65-25.05 0-11.25 9.77-15.53 19.1-15.53 3.95 0 14.84.75 14.84 6.61 0 2-1.34 6.14-4.62 6.14-2.69 0-4.11-2.84-10.22-2.84-5.3 0-7.46 2.17-7.46 4.5 0 7.5 23.65 6.07 23.65 25 0 10.8-7.84 16.65-18.65 16.65-9.78 0-18-4.8-18-9.75 0-2.55 2.23-6.3 5.07-6.3 3.51 0 5.74 5.55 12.68 5.55C298 138.82 301.77 137.47 301.77 133.87zM351.23 124.64H336.38V145c0 2.4-2.91 3.6-5.82 3.6s-5.81-1.2-5.81-3.6V97.27c0-2.48 2.9-3.52 5.81-3.52s5.82 1 5.82 3.52v18.37h14.85V97.27c0-2.48 2.91-3.52 5.82-3.52s5.82 1 5.82 3.52V145c0 2.4-2.91 3.6-5.82 3.6s-5.82-1.2-5.82-3.6zM190.91 402.58c0-9.07-23.65-7.5-23.65-25.05 0-11.25 9.78-15.52 19.1-15.52 3.95 0 14.85.75 14.85 6.6 0 2-1.35 6.15-4.63 6.15-2.69 0-4.1-2.85-10.22-2.85-5.3 0-7.46 2.17-7.46 4.5 0 7.5 23.65 6.07 23.65 25 0 10.8-7.84 16.65-18.65 16.65-9.78 0-18-4.8-18-9.75 0-2.55 2.24-6.3 5.07-6.3 3.51 0 5.75 5.55 12.68 5.55C187.11 407.53 190.91 406.18 190.91 402.58zM210.16 412.48a3.59 3.59 0 0 1 .15-.82l13.87-45.75c.82-2.63 4.18-3.9 7.61-3.9s6.79 1.27 7.61 3.9l13.95 45.75a3.59 3.59 0 0 1 .15.82c0 2.78-4.25 4.8-7.46 4.8-1.86 0-3.36-.6-3.8-2.17l-2.54-9.38H224l-2.54 9.38c-.45 1.57-1.94 2.17-3.8 2.17C214.41 417.28 210.16 415.26 210.16 412.48zm27.08-15.75l-5.45-20.1-5.44 20.1zM268.5 417.28c-2.54 0-5.08-1.2-5.08-3.6V366c0-2.47 2.91-3.52 5.82-3.52s5.82 1.05 5.82 3.52v41.1h17c2.24 0 3.36 2.55 3.36 5.1s-1.12 5.1-3.36 5.1zM317.36 385.33h11.19c2.24 0 3.51 2.18 3.51 4.58 0 2-1.05 4.42-3.51 4.42H317.36v12.75h20c2.24 0 3.51 2.4 3.51 5.18 0 2.4-1.05 5-3.51 5H310.79c-2.53 0-5.07-1.2-5.07-3.6V366.06c0-2.4 2.54-3.6 5.07-3.6h26.56c2.46 0 3.51 2.62 3.51 5 0 2.78-1.27 5.18-3.51 5.18h-20z"/><rect width="353" height="120" x="79.5" y="204.25" fill="#f8be32"/><polygon fill="#803391" points="504.5 309.25 7.5 309.25 67.5 189.25 444.5 189.25 504.5 309.25"/><path fill="#fed947" d="M257.84,217l9.47,19.19a2,2,0,0,0,1.55,1.12L290,240.39a2.06,2.06,0,0,1,1.14,3.5l-15.33,14.94a2,2,0,0,0-.59,1.82l3.62,21.09a2.06,2.06,0,0,1-3,2.17L257,274a2,2,0,0,0-1.9,0l-19,10a2.06,2.06,0,0,1-3-2.17l3.62-21.09a2,2,0,0,0-.59-1.82l-15.33-14.94a2.06,2.06,0,0,1,1.14-3.5l21.18-3.08a2,2,0,0,0,1.55-1.12L254.16,217A2,2,0,0,1,257.84,217Z"/><circle cx="338.5" cy="250" r="7.5" fill="#fff"/><circle cx="173.5" cy="250" r="7.5" fill="#fff"/></svg>