<svg xmlns="http://www.w3.org/2000/svg" data-name="Layer 1" viewBox="0 0 512 512"><text font-family="Dosis-ExtraBold,Dosis" font-size="75" font-weight="800" letter-spacing=".08em" transform="matrix(.99 0 0 1 172.51 158.57)">FLASH</text><text font-family="Dosis-ExtraBold,Dosis" font-size="75" font-weight="800" letter-spacing=".07em" transform="matrix(.99 0 0 1 152.5 404.57)">SALE</text><polygon fill="#c0232c" points="72.6 191.27 153.8 221.24 197.58 196.82 189.75 176.57 72.6 191.27"/><polygon fill="#c0232c" points="349.99 285.06 429.5 317.31 358.11 326.83 311.78 319.34 344.48 285.06 349.99 285.06"/><polygon fill="#fed947" points="381.62 251.89 304.96 332.3 190.55 452.3 140.78 504.5 163.43 452.3 215.51 332.3 229.5 300.07 124.53 251.89 170.77 206.27 292.41 86.27 372.25 7.5 339.97 86.27 291.85 203.7 296.64 206.27 381.62 251.89"/><polygon fill="#f8be32" points="291.85 203.7 170.77 206.27 292.41 86.27 339.97 86.27 291.85 203.7"/><polygon fill="#e4222e" points="450.22 191.27 72.6 191.27 141.88 71.27 474.5 71.27 450.22 191.27"/><polygon fill="#f8be32" points="304.96 332.3 190.55 452.3 163.43 452.3 215.51 332.3 304.96 332.3"/><polygon fill="#e4222e" points="405.22 437.31 27.6 437.31 96.88 317.31 429.5 317.31 405.22 437.31"/><path fill="#fff" d="M176.54 107.35c0-2.4 2.53-3.6 5.07-3.6H207.5c2.46 0 3.5 2.62 3.5 5 0 2.78-1.26 5.18-3.5 5.18H188.18v12.67h11.26c2.24 0 3.51 2.17 3.51 4.57 0 2-1 4.43-3.51 4.43H188.18V155c0 2.4-2.91 3.6-5.82 3.6s-5.82-1.2-5.82-3.6zM225.63 158.57c-2.54 0-5.08-1.2-5.08-3.6v-47.7c0-2.47 2.91-3.52 5.82-3.52s5.82 1 5.82 3.52v41.1h17c2.24 0 3.36 2.55 3.36 5.1s-1.12 5.1-3.36 5.1zM259.12 153.77a4.19 4.19 0 0 1 .15-.83l13.88-45.74c.82-2.63 4.18-3.9 7.61-3.9s6.79 1.27 7.61 3.9l13.95 45.74a4.19 4.19 0 0 1 .15.83c0 2.77-4.26 4.8-7.46 4.8-1.87 0-3.36-.6-3.81-2.18L288.66 147H272.92l-2.53 9.37c-.45 1.58-1.94 2.18-3.81 2.18C263.38 158.57 259.12 156.54 259.12 153.77zM286.2 138l-5.44-20.1L275.31 138zM334.77 143.87c0-9.08-23.65-7.5-23.65-25.05 0-11.25 9.77-15.52 19.1-15.52 3.95 0 14.84.75 14.84 6.6 0 2-1.34 6.14-4.62 6.14-2.69 0-4.11-2.84-10.22-2.84-5.3 0-7.46 2.17-7.46 4.5 0 7.5 23.65 6.07 23.65 25 0 10.8-7.84 16.65-18.65 16.65-9.78 0-18-4.8-18-9.75 0-2.55 2.23-6.3 5.07-6.3 3.51 0 5.74 5.55 12.68 5.55C331 148.82 334.77 147.47 334.77 143.87zM384.23 134.64H369.38V155c0 2.4-2.91 3.6-5.82 3.6s-5.81-1.2-5.81-3.6v-47.7c0-2.47 2.9-3.52 5.81-3.52s5.82 1 5.82 3.52v18.37h14.85V107.27c0-2.47 2.91-3.52 5.82-3.52s5.82 1 5.82 3.52V155c0 2.4-2.91 3.6-5.82 3.6s-5.82-1.2-5.82-3.6zM178.91 389.87c0-9.08-23.65-7.5-23.65-25.05 0-11.25 9.78-15.52 19.1-15.52 3.95 0 14.85.75 14.85 6.6 0 2-1.35 6.14-4.63 6.14-2.69 0-4.1-2.84-10.22-2.84-5.3 0-7.46 2.17-7.46 4.5 0 7.5 23.65 6.07 23.65 25 0 10.8-7.84 16.65-18.65 16.65-9.78 0-18-4.8-18-9.75 0-2.55 2.24-6.3 5.07-6.3 3.51 0 5.75 5.55 12.68 5.55C175.11 394.82 178.91 393.47 178.91 389.87zM198.16 399.77a3.57 3.57 0 0 1 .15-.83l13.87-45.74c.82-2.63 4.18-3.9 7.61-3.9s6.79 1.27 7.61 3.9l13.95 45.74a3.57 3.57 0 0 1 .15.83c0 2.77-4.25 4.8-7.46 4.8-1.86 0-3.36-.6-3.8-2.18L227.7 393H212l-2.54 9.37c-.45 1.58-1.94 2.18-3.8 2.18C202.41 404.57 198.16 402.54 198.16 399.77zM225.24 384l-5.45-20.1L214.35 384zM256.5 404.57c-2.54 0-5.08-1.2-5.08-3.6v-47.7c0-2.47 2.91-3.52 5.82-3.52s5.82 1.05 5.82 3.52v41.1h17c2.24 0 3.36 2.55 3.36 5.1s-1.12 5.1-3.36 5.1zM305.36 372.62h11.19c2.24 0 3.51 2.17 3.51 4.58 0 2-1.05 4.42-3.51 4.42H305.36v12.75h20c2.24 0 3.51 2.4 3.51 5.17 0 2.4-1.05 5-3.51 5H298.79c-2.53 0-5.07-1.2-5.07-3.6V353.35c0-2.4 2.54-3.6 5.07-3.6h26.56c2.46 0 3.51 2.62 3.51 5 0 2.78-1.27 5.18-3.51 5.18h-20z"/></svg>