<svg xmlns="http://www.w3.org/2000/svg" data-name="Layer 1" viewBox="0 0 512 512"><text font-family="Dosis-ExtraBold,Dosis" font-size="75" font-weight="800" letter-spacing=".07em" transform="matrix(.99 0 0 1 139.96 239.96)">OFFER</text><text font-family="Dosis-ExtraBold,Dosis" font-size="75" font-weight="800" letter-spacing=".08em" transform="matrix(.99 0 0 1 158.08 140.6)">M<tspan x="59.02" y="0" letter-spacing=".07em">E</tspan><tspan x="104.55" y="0" letter-spacing=".07em">GA</tspan></text><polygon fill="#672e79" points="7.5 282.5 60.23 314.83 88.87 271.64 15.42 271.64 7.5 282.5"/><polygon fill="#672e79" points="504.5 282.5 452.79 313.44 435.97 271.64 504.5 282.5"/><path fill="#fed947" d="M457.08,303.42c0,12.69-23,23-25.41,35-2.44,12.36,14.86,30.64,10.15,42-4.8,11.57-30,12.24-36.9,22.52s2.05,33.91-6.74,42.7-32.32-.2-42.69,6.73-10.95,32.1-22.52,36.9c-11.37,4.71-29.65-12.59-42-10.15-12,2.37-22.27,25.41-35,25.41s-23-23-35-25.41c-12.36-2.44-30.64,14.86-42,10.15-11.57-4.8-12.24-30-22.52-36.9s-33.91,2.05-42.7-6.74.2-32.32-6.73-42.69S75,392,70.18,380.39c-4.71-11.37,12.59-29.65,10.15-42-2.37-12-25.41-22.27-25.41-35s23-23,25.41-35c2.44-12.36-14.86-30.64-10.15-42,4.8-11.57,30-12.24,36.9-22.52s-2-33.91,6.74-42.7,32.32.2,42.69-6.73,11-32.1,22.52-36.9c11.37-4.71,29.65,12.59,42,10.15,12-2.37,22.27-25.41,35-25.41s23,23,35,25.41c12.36,2.44,30.64-14.86,42-10.15,11.57,4.8,12.24,30,22.52,36.9s33.91-2.05,42.7,6.74-.2,32.32,6.73,42.69,32.1,10.95,36.9,22.52c4.71,11.37-12.59,29.65-10.15,42C434,280.46,457.08,290.73,457.08,303.42Z"/><path fill="#fed947" d="M431.67,338.38c-2.44,12.36,14.86,30.64,10.15,42-4.8,11.57-30,12.24-36.9,22.52s2.05,33.91-6.74,42.7-32.32-.2-42.69,6.73-10.95,32.1-22.52,36.9c-11.37,4.71-29.65-12.59-42-10.15-12,2.37-22.27,25.41-35,25.41s-23-23-35-25.41c-12.36-2.44-30.64,14.86-42,10.15-11.57-4.8-12.24-30-22.52-36.9s-33.91,2.05-42.7-6.74.2-32.32-6.73-42.69S75,392,70.18,380.39c-4.71-11.37,12.59-29.65,10.15-42-2.37-12-25.41-22.27-25.41-35a12.78,12.78,0,0,1,1.59-5.92c5.26-10.1,21.83-19,23.82-29,2.44-12.36-14.86-30.64-10.15-42,4.8-11.57,30-12.24,36.9-22.52s-2-33.91,6.74-42.7,32.32.2,42.69-6.73,11-32.1,22.52-36.9c11.37-4.71,29.65,12.59,42,10.15,12-2.37,22.27-25.41,35-25.41s23,23,35,25.41c12.36,2.44,30.64-14.86,42-10.15,11.57,4.8,12.24,30,22.52,36.9s33.91-2.05,42.7,6.74-.2,32.32,6.73,42.69,32.1,10.95,36.9,22.52c4.71,11.37-12.59,29.65-10.15,42,2,10.08,18.56,18.94,23.82,29a12.78,12.78,0,0,1,1.59,5.92C457.08,316.11,434,326.38,431.67,338.38Z"/><path fill="#f8be32" d="M80.33 253.46c1.63-8.27-5.57-19.19-9.1-28.92a10.15 10.15 0 0 0-1 1.91c-3.44 8.31 4.86 20.3 8.63 31A14.05 14.05 0 0 0 80.33 253.46zM109.9 171.29a70.55 70.55 0 0 0-.19 9.16A70.59 70.59 0 0 0 109.9 171.29zM402.3 180.45a70.53 70.53 0 0 0-.2-9.16A70.53 70.53 0 0 0 402.3 180.45zM78.81 334.42c1.4-3.94 2.18-7.71 1.52-11-1.89-9.55-16.86-18-22.89-27.46-.34.52-.65 1.05-.93 1.58a12.78 12.78 0 0 0-1.59 5.92C54.92 314.69 73.09 324.06 78.81 334.42zM431.67 253.46a14.05 14.05 0 0 0 1.52 4c3.77-10.68 12.07-22.67 8.63-31a10.15 10.15 0 0 0-1.05-1.91C437.24 234.27 430 245.19 431.67 253.46zM454.56 295.92c-6 9.45-21 17.91-22.89 27.46-.66 3.33.12 7.1 1.52 11 5.72-10.36 23.89-19.73 23.89-31a12.78 12.78 0 0 0-1.59-5.92C455.21 297 454.9 296.44 454.56 295.92zM404.92 387.91c-3.69 5.51-2.88 14.73-2.63 23.48a18.8 18.8 0 0 1 2.63-8.48c6.89-10.28 32.1-11 36.9-22.52 1.56-3.76.7-8.28-1.05-13.09C434.14 377.07 411.41 378.23 404.92 387.91zM398.18 430.61c-8.78 8.78-32.32-.2-42.69 6.73s-10.95 32.1-22.52 36.9c-11.37 4.71-29.65-12.59-42-10.15-12 2.37-22.27 25.41-35 25.41s-23-23-35-25.41c-12.36-2.44-30.64 14.86-42 10.15-11.57-4.8-12.24-30-22.52-36.9s-33.91 2.05-42.7-6.74c-2.42-2.42-3.49-6-3.91-10.05-.28 9.67-1.24 19.9 3.91 25.05 8.79 8.79 32.33-.2 42.7 6.74s11 32.1 22.52 36.9c11.37 4.71 29.65-12.59 42-10.15 12 2.37 22.27 25.41 35 25.41s23-23 35-25.41c12.36-2.44 30.64 14.86 42 10.15 11.57-4.8 12.24-30 22.52-36.9s33.91 2.05 42.69-6.73c5.16-5.16 4.2-15.39 3.92-25.06C401.67 424.63 400.61 428.18 398.18 430.61zM107.08 387.91c-6.49-9.68-29.22-10.84-35.85-20.61-1.75 4.81-2.61 9.33-1 13.09 4.8 11.57 30 12.24 36.9 22.52a18.63 18.63 0 0 1 2.62 8.48C110 402.63 110.76 393.42 107.08 387.91z"/><path fill="#7f3077" d="M216.83 421.62a7.51 7.51 0 0 1-5.3-12.81l77.27-77.3a7.5 7.5 0 0 1 10.61 10.61l-77.28 77.3A7.48 7.48 0 0 1 216.83 421.62zM288 432.45a24.47 24.47 0 1 1 17.29-7.17L300 420l5.3 5.3A24.3 24.3 0 0 1 288 432.45zm0-33.93a9.47 9.47 0 1 0 6.68 2.77A9.41 9.41 0 0 0 288 398.52zM224 368.48a24.47 24.47 0 1 1 17.3-7.17h0A24.3 24.3 0 0 1 224 368.48zM236 356h0zm-12-21.46a9.36 9.36 0 0 0-6.68 2.77 9.46 9.46 0 1 0 13.37 0A9.37 9.37 0 0 0 224 334.55z"/><path fill="#f8be32" d="M455.49,297.5h-399c5.26-10.1,21.83-19,23.82-29,2.44-12.36-14.86-30.64-10.15-42,4.8-11.57,30-12.24,36.9-22.52s-2-33.91,6.74-42.7,32.32.2,42.69-6.73,11-32.1,22.52-36.9c11.37-4.71,29.65,12.59,42,10.15,12-2.37,22.27-25.41,35-25.41s23,23,35,25.41c12.36,2.44,30.64-14.86,42-10.15,11.57,4.8,12.24,30,22.52,36.9s33.91-2.05,42.7,6.74-.2,32.32,6.73,42.69,32.1,10.95,36.9,22.52c4.71,11.37-12.59,29.65-10.15,42C433.66,278.54,450.23,287.4,455.49,297.5Z"/><rect width="497" height="256" x="7.5" y="26.5" fill="#803391"/><path fill="#fff" d="M143.39 222.71V202.84c0-12.9 8-17.7 18.28-17.7s18.35 4.8 18.35 17.7v19.87c0 12.9-8.06 17.7-18.35 17.7S143.39 235.61 143.39 222.71zm25-19.87c0-5.18-2.54-7.5-6.71-7.5s-6.64 2.32-6.64 7.5v19.87c0 5.18 2.46 7.5 6.64 7.5s6.71-2.32 6.71-7.5zM193.07 188.74c0-2.4 2.54-3.6 5.08-3.6H224c2.46 0 3.51 2.62 3.51 5 0 2.78-1.27 5.18-3.51 5.18H204.71V208H216c2.24 0 3.51 2.18 3.51 4.58 0 2-1 4.42-3.51 4.42H204.71v19.35c0 2.4-2.91 3.6-5.82 3.6s-5.82-1.2-5.82-3.6zM237.09 188.74c0-2.4 2.53-3.6 5.07-3.6h25.89c2.46 0 3.5 2.62 3.5 5 0 2.78-1.26 5.18-3.5 5.18H248.73V208H260c2.24 0 3.51 2.18 3.51 4.58 0 2-1.05 4.42-3.51 4.42H248.73v19.35c0 2.4-2.91 3.6-5.82 3.6s-5.82-1.2-5.82-3.6zM292.74 208h11.19c2.24 0 3.51 2.18 3.51 4.58 0 2-1.05 4.42-3.51 4.42H292.74v12.75h20c2.24 0 3.51 2.4 3.51 5.18 0 2.4-1 5-3.51 5H286.18c-2.54 0-5.08-1.2-5.08-3.6V188.74c0-2.4 2.54-3.6 5.08-3.6h26.55c2.47 0 3.51 2.62 3.51 5 0 2.78-1.27 5.18-3.51 5.18h-20zM326.91 188.66a3.48 3.48 0 0 1 3.58-3.52h15.44c10.22 0 18.35 3.82 18.35 16.05 0 8.4-3.8 13.2-9 15.22l9.1 16.58a2.45 2.45 0 0 1 .37 1.35c0 2.92-3.88 6.07-7.31 6.07a4 4 0 0 1-3.73-2.17l-10.22-20h-4.92v18.07c0 2.4-2.91 3.6-5.82 3.6s-5.82-1.2-5.82-3.6zm11.64 6.68v13.95h7.38c4.18 0 6.72-1.73 6.72-7s-2.54-7-6.72-7zM188.37 121.18a4.26 4.26 0 0 1-3.88 2.17 3.82 3.82 0 0 1-3.65-2.17l-7.09-13.05V137c0 2.4-2.91 3.6-5.82 3.6s-5.82-1.2-5.82-3.6V91.63c0-4.28 2.91-5.85 5.82-5.85 4.18 0 6 .45 9 5.85l7.68 13.5 7.69-13.5c3-5.4 4.85-5.85 9-5.85 3 0 5.82 1.57 5.82 5.85V137c0 2.4-2.91 3.6-5.82 3.6s-5.82-1.2-5.82-3.6V108.88zM232.46 108.65h11.19c2.24 0 3.51 2.18 3.51 4.58 0 2-1 4.42-3.51 4.42H232.46V130.4h20c2.23 0 3.5 2.4 3.5 5.18 0 2.4-1 5-3.5 5H225.9c-2.54 0-5.07-1.2-5.07-3.6V89.38c0-2.4 2.53-3.6 5.07-3.6h26.56c2.46 0 3.5 2.62 3.5 5 0 2.78-1.27 5.18-3.5 5.18h-20zM283.86 96c-4.25 0-6.71 2.4-6.71 7.5v19.87c0 5.1 2.46 7.5 6.64 7.5s6.71-2.4 6.71-7.5V120.8h-4.4c-2.24 0-3.51-2.17-3.51-4.5 0-2.17 1.27-4.5 3.51-4.5h12.53a3.46 3.46 0 0 1 3.51 3.68v7.87c0 12.9-8.06 17.7-18.35 17.7s-18.28-4.8-18.28-17.7V103.48c0-12.9 8.13-17.7 17.91-17.7 10.66 0 18.72 5.4 18.72 14.92 0 4.5-1.86 5.55-5.82 5.55-3.13 0-5.74-.82-5.82-3.52S290.2 96 283.86 96zM310.72 135.8a3.59 3.59 0 0 1 .15-.82l13.88-45.75c.82-2.63 4.17-3.9 7.6-3.9s6.79 1.27 7.61 3.9l14 45.75a3.59 3.59 0 0 1 .15.82c0 2.78-4.25 4.8-7.46 4.8-1.86 0-3.35-.6-3.8-2.17l-2.54-9.38H324.52L322 138.43c-.45 1.57-1.95 2.17-3.81 2.17C315 140.6 310.72 138.58 310.72 135.8zm27.08-15.75L332.35 100l-5.44 20.1z"/><path fill="#fed947" d="M75.14 121.5l9.47 19.19a2 2 0 0 0 1.54 1.12l21.19 3.08a2.05 2.05 0 0 1 1.13 3.5L93.15 163.33a2 2 0 0 0-.59 1.82l3.61 21.09a2.05 2.05 0 0 1-3 2.17l-19-10a2 2 0 0 0-1.91 0l-18.94 10a2.06 2.06 0 0 1-3-2.17L54 165.15a2.08 2.08 0 0 0-.59-1.82L38.12 148.39a2.05 2.05 0 0 1 1.14-3.5l21.18-3.08A2 2 0 0 0 62 140.69l9.47-19.19A2 2 0 0 1 75.14 121.5zM440.54 121.5L450 140.69a2 2 0 0 0 1.55 1.12l21.18 3.08a2.05 2.05 0 0 1 1.14 3.5l-15.33 14.94a2.08 2.08 0 0 0-.59 1.82l3.62 21.09a2.06 2.06 0 0 1-3 2.17l-18.94-10a2 2 0 0 0-1.91 0l-18.95 10a2.05 2.05 0 0 1-3-2.17l3.61-21.09a2 2 0 0 0-.59-1.82l-15.32-14.94a2.05 2.05 0 0 1 1.13-3.5l21.19-3.08a2 2 0 0 0 1.54-1.12l9.47-19.19A2 2 0 0 1 440.54 121.5z"/></svg>