<svg xmlns="http://www.w3.org/2000/svg" data-name="Layer 1" viewBox="0 0 512 512"><text font-family="Dosis-ExtraBold,Dosis" font-size="75" font-weight="800" letter-spacing=".07em" transform="matrix(.99 0 0 1 139.96 403.57)">OFFER</text><text font-family="Dosis-ExtraBold,Dosis" font-size="75" font-weight="800" letter-spacing=".08em" transform="matrix(.99 0 0 1 163.27 169.57)">BEST</text><path fill="#672e79" d="M489.5,168H475.36v15H37V168H22.5a15,15,0,0,0-15,15v.08A15,15,0,0,0,22.5,198h467a15,15,0,0,0,15-14.92V183A15,15,0,0,0,489.5,168Z"/><path fill="#fed947" d="M475.36,113.12v294a30,30,0,0,1-30.12,30L66.9,435.62a30,30,0,0,1-29.88-30v-294a30,30,0,0,1,30.12-30l378.34,1.5A30,30,0,0,1,475.36,113.12Z"/><path fill="#803391" d="M145.33 386.32V366.45c0-12.9 8-17.7 18.28-17.7s18.35 4.8 18.35 17.7v19.87c0 12.9-8.06 17.7-18.35 17.7S145.33 399.22 145.33 386.32zm25-19.87c0-5.18-2.54-7.5-6.71-7.5s-6.64 2.32-6.64 7.5v19.87c0 5.17 2.46 7.5 6.64 7.5s6.71-2.33 6.71-7.5zM195 352.35c0-2.4 2.54-3.6 5.08-3.6H226c2.46 0 3.51 2.62 3.51 5 0 2.78-1.27 5.18-3.51 5.18H206.65v12.67h11.27c2.23 0 3.5 2.17 3.5 4.57 0 2-1 4.43-3.5 4.43H206.65V400c0 2.4-2.91 3.6-5.82 3.6S195 402.37 195 400zM239 352.35c0-2.4 2.53-3.6 5.07-3.6H270c2.46 0 3.5 2.62 3.5 5 0 2.78-1.26 5.18-3.5 5.18H250.67v12.67h11.26c2.24 0 3.51 2.17 3.51 4.57 0 2-1.05 4.43-3.51 4.43H250.67V400c0 2.4-2.91 3.6-5.82 3.6S239 402.37 239 400zM294.68 371.62h11.19c2.24 0 3.51 2.17 3.51 4.57 0 2-1.05 4.43-3.51 4.43H294.68v12.75h20c2.23 0 3.5 2.4 3.5 5.17 0 2.4-1 5-3.5 5H288.12c-2.54 0-5.08-1.2-5.08-3.6V352.35c0-2.4 2.54-3.6 5.08-3.6h26.56c2.46 0 3.5 2.62 3.5 5 0 2.78-1.27 5.18-3.5 5.18h-20zM328.85 352.27a3.48 3.48 0 0 1 3.58-3.52h15.44c10.22 0 18.35 3.82 18.35 16 0 8.41-3.8 13.21-9 15.23l9.1 16.57a2.47 2.47 0 0 1 .37 1.35c0 2.93-3.88 6.08-7.31 6.08a4 4 0 0 1-3.73-2.18l-10.22-19.95h-4.92V400c0 2.4-2.91 3.6-5.82 3.6s-5.82-1.2-5.82-3.6zM340.49 359v13.94h7.38c4.18 0 6.72-1.72 6.72-7s-2.54-7-6.72-7zM168.38 118.35c0-2.4 2.54-3.6 5.07-3.6h15.3c7.46 0 14.92 2.7 14.92 13.35 0 6.07-2.39 10-6.34 11.77 4.55 1.72 7.68 4.5 7.68 12v1.57c0 11.85-6.56 16.13-15 16.13H173.45c-3.13 0-5.07-1.65-5.07-3.53zm11.56 17h7.84c2.83 0 4.25-2.62 4.25-5.17s-1.42-5.25-4.25-5.25h-7.84zm7.46 24c3.73 0 6-2.1 6-6.9v-1.2c0-5.1-2.24-6.9-6-6.9h-7.46v15zM228.29 137.62h11.19c2.23 0 3.5 2.17 3.5 4.57 0 2-1 4.43-3.5 4.43H228.29v12.75h20c2.24 0 3.51 2.4 3.51 5.17 0 2.4-1 5-3.51 5H221.72c-2.54 0-5.07-1.2-5.07-3.6V118.35c0-2.4 2.53-3.6 5.07-3.6h26.56c2.46 0 3.51 2.62 3.51 5 0 2.78-1.27 5.18-3.51 5.18h-20zM284.83 154.87c0-9.08-23.65-7.5-23.65-25.05 0-11.25 9.78-15.52 19.1-15.52 4 0 14.85.75 14.85 6.6 0 2-1.34 6.14-4.63 6.14-2.68 0-4.1-2.84-10.22-2.84-5.29 0-7.46 2.17-7.46 4.5 0 7.5 23.65 6.07 23.65 25 0 10.8-7.83 16.65-18.65 16.65-9.77 0-18-4.8-18-9.75 0-2.55 2.24-6.3 5.07-6.3 3.51 0 5.75 5.55 12.69 5.55C281 159.82 284.83 158.47 284.83 154.87zM340.11 114.75c2.46 0 3.51 2.7 3.51 5.17 0 2.85-1.27 5.33-3.51 5.33H329.82V166c0 2.4-2.91 3.6-5.82 3.6s-5.82-1.2-5.82-3.6V125.25h-10.3c-2.23 0-3.5-2.48-3.5-5.33 0-2.47 1-5.17 3.5-5.17z"/><rect width="438.34" height="118.5" x="37.02" y="213" fill="#f8be32"/><path fill="#803391" d="M504.5,183.08V301.5a15,15,0,0,1-15,15H22.5a15,15,0,0,1-15-15V183.08A15,15,0,0,0,22.5,198h467a15,15,0,0,0,15-14.92Z"/><path fill="#fed947" d="M135.14 223l9.47 19.19a2 2 0 0 0 1.54 1.12l21.19 3.08a2.05 2.05 0 0 1 1.13 3.5l-15.32 14.94a2 2 0 0 0-.59 1.82l3.61 21.09a2.05 2.05 0 0 1-3 2.17l-18.95-10a2 2 0 0 0-1.91 0l-18.94 10a2.06 2.06 0 0 1-3-2.17L114 266.65a2.08 2.08 0 0 0-.59-1.82L98.12 249.89a2.05 2.05 0 0 1 1.14-3.5l21.18-3.08a2 2 0 0 0 1.55-1.12L131.46 223A2 2 0 0 1 135.14 223zM257.84 223l9.47 19.19a2 2 0 0 0 1.55 1.12L290 246.39a2.06 2.06 0 0 1 1.14 3.5l-15.33 14.94a2 2 0 0 0-.59 1.82l3.62 21.09a2.06 2.06 0 0 1-3 2.17L257 280a2 2 0 0 0-1.9 0l-19 10a2.06 2.06 0 0 1-3-2.17l3.62-21.09a2 2 0 0 0-.59-1.82l-15.33-14.94a2.06 2.06 0 0 1 1.14-3.5l21.18-3.08a2 2 0 0 0 1.55-1.12L254.16 223A2 2 0 0 1 257.84 223zM380.54 223L390 242.19a2 2 0 0 0 1.55 1.12l21.18 3.08a2.05 2.05 0 0 1 1.14 3.5l-15.33 14.94a2.08 2.08 0 0 0-.59 1.82l3.62 21.09a2.06 2.06 0 0 1-3 2.17l-18.94-10a2 2 0 0 0-1.91 0l-18.95 10a2.05 2.05 0 0 1-3-2.17l3.61-21.09a2 2 0 0 0-.59-1.82l-15.32-14.94a2.05 2.05 0 0 1 1.13-3.5l21.19-3.08a2 2 0 0 0 1.54-1.12L376.86 223A2 2 0 0 1 380.54 223z"/></svg>