<svg xmlns="http://www.w3.org/2000/svg" data-name="Layer 1" viewBox="0 0 512 512"><text font-family="Dosis-ExtraBold,Dosis" font-size="75" font-weight="800" letter-spacing=".07em" transform="matrix(.99 0 0 1 139.96 332.25)">OFFER</text><text font-family="Dosis-ExtraBold,Dosis" font-size="75" font-weight="800" letter-spacing=".08em" transform="matrix(.99 0 0 1 158.09 232.89)">M<tspan x="59.02" y="0" letter-spacing=".07em">E</tspan><tspan x="104.55" y="0" letter-spacing=".07em">GA</tspan></text><circle cx="406" cy="263" r="7.5"/><circle cx="106" cy="263" r="7.5"/><text font-family="Dosis-ExtraBold,Dosis" font-size="75" font-weight="800" letter-spacing=".07em" transform="matrix(.99 0 0 1 139.96 332.25)">OFFER</text><text font-family="Dosis-ExtraBold,Dosis" font-size="75" font-weight="800" letter-spacing=".08em" transform="matrix(.99 0 0 1 158.09 232.89)">M<tspan x="59.02" y="0" letter-spacing=".07em">E</tspan><tspan x="104.55" y="0" letter-spacing=".07em">GA</tspan></text><circle cx="406" cy="263" r="7.5"/><circle cx="106" cy="263" r="7.5"/><polygon fill="#fed947" points="256 390.06 57.76 412.52 57.76 367.6 256 390.06"/><polygon fill="#f8be32" points="57.76 397.52 57.76 412.52 256 390.06 189.8 382.56 57.76 397.52"/><polygon fill="#fed947" points="256 121.94 57.76 144.4 57.76 99.48 256 121.94"/><polygon fill="#fed947" points="504.5 150.09 504.5 361.91 454.24 367.6 454.24 144.4 504.5 150.09"/><polygon fill="#f8be32" points="454.24 367.6 504.5 361.91 504.5 346.91 454.24 352.6 454.24 367.6"/><polygon fill="#e4222e" points="454.24 144.4 454.24 367.6 256 390.06 57.76 367.6 57.76 144.4 256 121.94 454.24 144.4"/><polygon fill="#c0232c" points="57.76 352.6 57.76 367.6 256 390.06 454.24 367.6 454.24 352.6 256 375.06 57.76 352.6"/><polygon fill="#fed947" points="7.5 150.09 57.76 144.4 57.76 367.6 7.5 361.91 7.5 150.09"/><polygon fill="#f8be32" points="7.5 361.91 57.76 367.6 57.76 352.6 7.5 346.91 7.5 361.91"/><polygon fill="#fed947" points="454.24 99.48 454.24 144.4 256 121.94 454.24 99.48"/><polygon fill="#fed947" points="454.24 367.6 454.24 412.52 256 390.06 454.24 367.6"/><polygon fill="#f8be32" points="256 390.06 454.24 412.52 454.24 397.52 322.2 382.56 256 390.06"/><path fill="#fff" d="M143.39 315V295.12c0-12.89 8-17.69 18.28-17.69S180 282.23 180 295.12V315c0 12.9-8.06 17.7-18.35 17.7S143.39 327.9 143.39 315zm25-19.88c0-5.17-2.54-7.5-6.71-7.5S155 290 155 295.12V315c0 5.17 2.46 7.5 6.64 7.5s6.71-2.33 6.71-7.5zM193.07 281c0-2.41 2.54-3.6 5.08-3.6H224c2.46 0 3.51 2.62 3.51 5 0 2.78-1.27 5.17-3.51 5.17H204.71V300.3H216c2.24 0 3.51 2.17 3.51 4.57 0 2-1 4.43-3.51 4.43H204.71v19.35c0 2.4-2.91 3.6-5.82 3.6s-5.82-1.2-5.82-3.6zM237.09 281c0-2.41 2.53-3.6 5.07-3.6h25.89c2.46 0 3.5 2.62 3.5 5 0 2.78-1.26 5.17-3.5 5.17H248.73V300.3H260c2.24 0 3.51 2.17 3.51 4.57 0 2-1.05 4.43-3.51 4.43H248.73v19.35c0 2.4-2.91 3.6-5.82 3.6s-5.82-1.2-5.82-3.6zM292.74 300.3h11.19c2.24 0 3.51 2.17 3.51 4.57 0 2-1.05 4.43-3.51 4.43H292.74v12.75h20c2.24 0 3.51 2.4 3.51 5.17 0 2.4-1 5-3.51 5H286.18c-2.54 0-5.08-1.2-5.08-3.6V281c0-2.41 2.54-3.6 5.08-3.6h26.55c2.47 0 3.51 2.62 3.51 5 0 2.78-1.27 5.17-3.51 5.17h-20zM326.91 281a3.48 3.48 0 0 1 3.58-3.52h15.44c10.22 0 18.35 3.82 18.35 16 0 8.41-3.8 13.2-9 15.23l9.1 16.57a2.47 2.47 0 0 1 .37 1.35c0 2.93-3.88 6.08-7.31 6.08a4 4 0 0 1-3.73-2.18l-10.22-19.95h-4.92v18.08c0 2.4-2.91 3.6-5.82 3.6s-5.82-1.2-5.82-3.6zm11.64 6.67v13.95h7.38c4.18 0 6.72-1.72 6.72-7s-2.54-7-6.72-7zM188.37 213.46a4.27 4.27 0 0 1-3.88 2.18 3.81 3.81 0 0 1-3.65-2.18l-7.09-13v28.87c0 2.4-2.91 3.6-5.82 3.6s-5.82-1.2-5.82-3.6V183.92c0-4.28 2.91-5.85 5.82-5.85 4.18 0 6 .45 9 5.85l7.68 13.5 7.69-13.5c3-5.4 4.85-5.85 9-5.85 3 0 5.82 1.57 5.82 5.85v45.37c0 2.4-2.91 3.6-5.82 3.6s-5.81-1.2-5.81-3.6V201.17zM232.46 200.94h11.19c2.24 0 3.51 2.17 3.51 4.57 0 2-1 4.43-3.51 4.43H232.46v12.75h20c2.23 0 3.5 2.4 3.5 5.17 0 2.4-1 5-3.5 5H225.9c-2.54 0-5.07-1.2-5.07-3.6V181.67c0-2.4 2.53-3.6 5.07-3.6h26.56c2.46 0 3.5 2.62 3.5 5 0 2.78-1.27 5.18-3.5 5.18h-20zM283.86 188.27c-4.25 0-6.71 2.4-6.71 7.5v19.87c0 5.1 2.46 7.5 6.64 7.5s6.71-2.4 6.71-7.5v-2.55h-4.4c-2.24 0-3.5-2.18-3.5-4.5s1.26-4.5 3.5-4.5h12.53a3.45 3.45 0 0 1 3.51 3.67v7.88c0 12.9-8.06 17.7-18.35 17.7s-18.28-4.8-18.28-17.7V195.77c0-12.9 8.13-17.7 17.91-17.7 10.66 0 18.72 5.4 18.72 14.92 0 4.5-1.86 5.55-5.82 5.55-3.13 0-5.74-.82-5.82-3.52S290.21 188.27 283.86 188.27zM310.72 228.09a3.57 3.57 0 0 1 .15-.83l13.88-45.74c.82-2.63 4.17-3.9 7.61-3.9s6.78 1.27 7.6 3.9l14 45.74a3.57 3.57 0 0 1 .15.83c0 2.77-4.25 4.8-7.46 4.8-1.86 0-3.35-.6-3.8-2.18l-2.54-9.37H324.52L322 230.71c-.45 1.58-1.95 2.18-3.81 2.18C315 232.89 310.72 230.86 310.72 228.09zm27.08-15.75l-5.44-20.1-5.45 20.1z"/><circle cx="406" cy="263" r="7.5" fill="#fff"/><circle cx="106" cy="263" r="7.5" fill="#fff"/></svg>