<svg xmlns="http://www.w3.org/2000/svg" data-name="Layer 1" viewBox="0 0 512 512"><text font-family="Dosis-ExtraBold,Dosis" font-size="75" font-weight="800" letter-spacing=".07em" transform="matrix(.99 0 0 1 139.96 337.96)">OFFER</text><text font-family="Dosis-ExtraBold,Dosis" font-size="75" font-weight="800" letter-spacing=".08em" transform="matrix(.99 0 0 1 158.09 238.6)">M<tspan x="59.02" y="0" letter-spacing=".07em">E</tspan><tspan x="104.55" y="0" letter-spacing=".07em">GA</tspan></text><circle cx="421" cy="256" r="7.5"/><circle cx="91" cy="256" r="7.5"/><polygon fill="#2370b5" points="504.5 386 256.7 459.5 7.5 386 7.5 126 256 52.5 504.5 126 504.5 386"/><polygon fill="#0a56a4" points="37.5 378.57 37.5 163.41 256 98.78 474.5 163.41 474.5 378.61 256.68 443.21 37.5 378.57"/><polygon fill="#fed947" points="37.5 363.57 37.5 148.41 256 83.78 474.5 148.41 474.5 363.61 256.68 428.21 37.5 363.57"/><polygon fill="#f8be32" points="37.5 348.57 37.5 363.57 256.68 428.21 474.5 363.61 474.5 348.61 256.68 413.21 37.5 348.57"/><path fill="#2370b5" d="M143.39 320.71V300.84c0-12.9 8-17.7 18.28-17.7s18.35 4.8 18.35 17.7v19.87c0 12.9-8.06 17.7-18.35 17.7S143.39 333.61 143.39 320.71zm25-19.87c0-5.18-2.54-7.5-6.71-7.5s-6.64 2.32-6.64 7.5v19.87c0 5.18 2.46 7.5 6.64 7.5s6.71-2.32 6.71-7.5zM193.07 286.74c0-2.4 2.54-3.6 5.08-3.6H224c2.46 0 3.51 2.62 3.51 5 0 2.78-1.27 5.18-3.51 5.18H204.71V306H216c2.23 0 3.5 2.18 3.5 4.58 0 2-1 4.42-3.5 4.42H204.71v19.35c0 2.4-2.91 3.6-5.82 3.6s-5.82-1.2-5.82-3.6zM237.09 286.74c0-2.4 2.53-3.6 5.07-3.6h25.89c2.46 0 3.5 2.62 3.5 5 0 2.78-1.26 5.18-3.5 5.18H248.73V306H260c2.24 0 3.51 2.18 3.51 4.58 0 2-1.05 4.42-3.51 4.42H248.73v19.35c0 2.4-2.91 3.6-5.82 3.6s-5.82-1.2-5.82-3.6zM292.74 306h11.19c2.24 0 3.51 2.18 3.51 4.58 0 2-1.05 4.42-3.51 4.42H292.74v12.75h20c2.24 0 3.51 2.4 3.51 5.18 0 2.4-1 5-3.51 5H286.18c-2.54 0-5.08-1.2-5.08-3.6V286.74c0-2.4 2.54-3.6 5.08-3.6h26.55c2.47 0 3.51 2.62 3.51 5 0 2.78-1.27 5.18-3.51 5.18h-20zM326.91 286.66a3.48 3.48 0 0 1 3.58-3.52h15.44c10.22 0 18.35 3.82 18.35 16.05 0 8.4-3.8 13.2-9 15.22l9.1 16.58a2.45 2.45 0 0 1 .37 1.35c0 2.92-3.88 6.07-7.31 6.07a4 4 0 0 1-3.73-2.17l-10.22-19.95h-4.92v18.07c0 2.4-2.91 3.6-5.82 3.6s-5.82-1.2-5.82-3.6zm11.64 6.68v14h7.38c4.18 0 6.72-1.73 6.72-7s-2.54-7-6.72-7zM188.37 219.18a4.26 4.26 0 0 1-3.88 2.17 3.82 3.82 0 0 1-3.65-2.17l-7.09-13.05V235c0 2.4-2.91 3.6-5.82 3.6s-5.82-1.2-5.82-3.6V189.63c0-4.28 2.91-5.85 5.82-5.85 4.18 0 6 .45 9 5.85l7.68 13.5 7.69-13.5c3.06-5.4 4.85-5.85 9-5.85 3 0 5.82 1.57 5.82 5.85V235c0 2.4-2.91 3.6-5.82 3.6s-5.82-1.2-5.82-3.6V206.88zM232.46 206.65h11.19c2.24 0 3.51 2.18 3.51 4.58 0 2-1 4.42-3.51 4.42H232.46V228.4h20c2.23 0 3.5 2.4 3.5 5.18 0 2.4-1 5-3.5 5H225.9c-2.54 0-5.07-1.2-5.07-3.6V187.38c0-2.4 2.53-3.6 5.07-3.6h26.56c2.46 0 3.5 2.62 3.5 5 0 2.78-1.27 5.18-3.5 5.18h-20zM283.86 194c-4.25 0-6.71 2.4-6.71 7.5v19.87c0 5.1 2.46 7.5 6.64 7.5s6.71-2.4 6.71-7.5V218.8h-4.4c-2.24 0-3.5-2.17-3.5-4.5 0-2.17 1.26-4.5 3.5-4.5h12.53a3.46 3.46 0 0 1 3.51 3.68v7.87c0 12.9-8.06 17.7-18.35 17.7s-18.28-4.8-18.28-17.7V201.48c0-12.9 8.13-17.7 17.91-17.7 10.66 0 18.72 5.4 18.72 14.92 0 4.5-1.86 5.55-5.82 5.55-3.13 0-5.74-.82-5.82-3.52S290.2 194 283.86 194zM310.72 233.8a4.23 4.23 0 0 1 .15-.82l13.88-45.75c.82-2.63 4.17-3.9 7.6-3.9s6.79 1.27 7.61 3.9l14 45.75a3.59 3.59 0 0 1 .15.82c0 2.78-4.25 4.8-7.46 4.8-1.86 0-3.35-.6-3.8-2.17l-2.54-9.38H324.52L322 236.43c-.45 1.57-1.94 2.17-3.81 2.17C315 238.6 310.72 236.58 310.72 233.8zm27.08-15.75L332.35 198l-5.44 20.1z"/><circle cx="421" cy="256" r="7.5" fill="#fff"/><circle cx="91" cy="256" r="7.5" fill="#fff"/></svg>