<svg xmlns="http://www.w3.org/2000/svg" data-name="Layer 1" viewBox="0 0 512 512"><text font-family="Dosis-ExtraBold,Dosis" font-size="75" font-weight="800" letter-spacing=".08em" transform="matrix(.99 0 0 1 139.96 260.28)">OFFER</text><path fill="#fff" d="M350.81,427.87c-1.45,6.82-14.37,9.72-17.18,15.8-2.91,6.27,3.17,18-1,23.31s-17.11,2.44-22.36,6.75-4.89,17.53-11,20.58-16.41-5.21-23.08-3.58-11.94,13.68-18.86,13.77c-6.7.09-12.4-11.81-19.22-13.27s-16.9,7.07-23,4.25c-6.28-2.9-6.24-16.13-11.58-20.27s-18.22-.9-22.53-6.16,1.42-17.18-1.63-23.28-16-8.63-17.66-15.3,8.74-14.76,8.65-21.67c-.09-6.7-10.69-14.62-9.23-21.44s14.37-9.72,17.18-15.8c2.91-6.27-3.17-18,1-23.31s17.11-2.44,22.36-6.75,4.89-17.53,11-20.58,16.41,5.21,23.08,3.58,11.94-13.68,18.86-13.77c6.7-.09,12.4,11.81,19.22,13.27s16.9-7.07,23-4.26c6.28,2.91,6.24,16.14,11.58,20.28s18.22.9,22.53,6.16-1.42,17.18,1.63,23.28,16,8.63,17.66,15.29-8.74,14.77-8.65,21.68C341.67,413.13,352.27,421.05,350.81,427.87Z"/><circle cx="323.5" cy="68" r="7.5"/><circle cx="188.5" cy="68" r="7.5"/><path fill="#e4222e" d="M478.26,284.9,354.56,408.47,284.93,478a41,41,0,0,1-57.86,0l-69.3-69.23L33.74,284.9a40.84,40.84,0,0,1,0-57.8l85.79-85.7L227.07,34A40.7,40.7,0,0,1,249.68,22.5a41.21,41.21,0,0,1,12.64,0A40.7,40.7,0,0,1,284.93,34L392.47,141.4l85.79,85.7A40.84,40.84,0,0,1,478.26,284.9Z"/><path fill="#c0232c" d="M392.47,141.4A60.07,60.07,0,0,1,381,142.5H131a60.07,60.07,0,0,1-11.45-1.1L227.07,34A40.7,40.7,0,0,1,249.68,22.5h12.64A40.7,40.7,0,0,1,284.93,34Z"/><rect width="370.03" height="120" x="70.98" y="7.5" fill="#fed947" rx="60"/><path fill="#fff" d="M143.39 258V238.16c0-12.9 8-17.7 18.27-17.7s18.36 4.8 18.36 17.7V258c0 12.9-8.06 17.7-18.36 17.7S143.39 270.93 143.39 258zm25-19.87c0-5.18-2.54-7.5-6.72-7.5S155 233 155 238.16V258c0 5.18 2.46 7.5 6.63 7.5s6.72-2.32 6.72-7.5zM193.07 224.06c0-2.4 2.54-3.6 5.08-3.6H224c2.46 0 3.51 2.62 3.51 5 0 2.78-1.27 5.18-3.51 5.18H204.71v12.67H216c2.23 0 3.5 2.18 3.5 4.58 0 2-1 4.42-3.5 4.42H204.71v19.35c0 2.4-2.91 3.6-5.82 3.6s-5.82-1.2-5.82-3.6zM237.09 224.06c0-2.4 2.54-3.6 5.07-3.6h25.89c2.46 0 3.5 2.62 3.5 5 0 2.78-1.26 5.18-3.5 5.18H248.73v12.67H260c2.24 0 3.51 2.18 3.51 4.58 0 2-1.05 4.42-3.51 4.42H248.73v19.35c0 2.4-2.91 3.6-5.82 3.6s-5.82-1.2-5.82-3.6zM292.74 243.33h11.19c2.24 0 3.51 2.18 3.51 4.58 0 2-1.05 4.42-3.51 4.42H292.74v12.75h20c2.24 0 3.51 2.4 3.51 5.18 0 2.4-1 5-3.51 5H286.18c-2.54 0-5.08-1.2-5.08-3.6V224.06c0-2.4 2.54-3.6 5.08-3.6h26.55c2.47 0 3.51 2.62 3.51 5 0 2.78-1.27 5.18-3.51 5.18h-20zM326.91 224a3.48 3.48 0 0 1 3.58-3.52h15.44c10.22 0 18.35 3.82 18.35 16 0 8.4-3.8 13.2-9 15.22l9.1 16.58a2.45 2.45 0 0 1 .37 1.35c0 2.92-3.88 6.07-7.31 6.07a4 4 0 0 1-3.73-2.17l-10.22-19.95h-4.92v18.07c0 2.4-2.91 3.6-5.82 3.6s-5.82-1.2-5.82-3.6zm11.64 6.68v14h7.38c4.18 0 6.72-1.73 6.72-7s-2.54-7-6.72-7z"/><path fill="#e4222e" d="M350.81,427.87c-1.45,6.82-14.37,9.72-17.18,15.8-2.91,6.27,3.17,18-1,23.31s-17.11,2.44-22.36,6.75-4.89,17.53-11,20.58-16.41-5.21-23.08-3.58-11.94,13.68-18.86,13.77c-6.7.09-12.4-11.81-19.22-13.27s-16.9,7.07-23,4.25c-6.28-2.9-6.24-16.13-11.58-20.27s-18.22-.9-22.53-6.16,1.42-17.18-1.63-23.28-16-8.63-17.66-15.3,8.74-14.76,8.65-21.67c-.09-6.7-10.69-14.62-9.23-21.44s14.37-9.72,17.18-15.8c2.91-6.27-3.17-18,1-23.31s17.11-2.44,22.36-6.75,4.89-17.53,11-20.58,16.41,5.21,23.08,3.58,11.94-13.68,18.86-13.77c6.7-.09,12.4,11.81,19.22,13.27s16.9-7.07,23-4.26c6.28,2.91,6.24,16.14,11.58,20.28s18.22.9,22.53,6.16-1.42,17.18,1.63,23.28,16,8.63,17.66,15.29-8.74,14.77-8.65,21.68C341.67,413.13,352.27,421.05,350.81,427.87Z"/><path fill="#c0232c" d="M354.22,406.26a8.6,8.6,0,0,0,.34,2.21L284.93,478a41,41,0,0,1-57.86,0l-69.3-69.23c-.28-7.64-12.24-16.65-10.58-24.42s16.49-11.16,19.72-18.13c3.34-7.19-3.64-20.64,1.12-26.76s19.62-2.79,25.66-7.74,5.61-20.12,12.62-23.62,18.83,6,26.49,4.11,13.7-15.7,21.64-15.8c7.68-.1,14.22,13.55,22.06,15.23s19.39-8.12,26.36-4.89c7.21,3.34,7.16,18.52,13.29,23.27s20.91,1,25.86,7.07-1.64,19.71,1.87,26.72,18.39,9.9,20.26,17.55S354.11,398.33,354.22,406.26Z"/><path fill="#fed947" d="M350.81,427.87c-1.45,6.82-14.37,9.72-17.18,15.8-2.91,6.27,3.17,18-1,23.31s-17.11,2.44-22.36,6.75-4.89,17.53-11,20.58-16.41-5.21-23.08-3.58-11.94,13.68-18.86,13.77c-6.7.09-12.4-11.81-19.22-13.27s-16.9,7.07-23,4.25c-6.28-2.9-6.24-16.13-11.58-20.27s-18.22-.9-22.53-6.16,1.42-17.18-1.63-23.28-16-8.63-17.66-15.3,8.74-14.76,8.65-21.67c-.09-6.7-10.69-14.62-9.23-21.44s14.37-9.72,17.18-15.8c2.91-6.27-3.17-18,1-23.31s17.11-2.44,22.36-6.75,4.89-17.53,11-20.58,16.41,5.21,23.08,3.58,11.94-13.68,18.86-13.77c6.7-.09,12.4,11.81,19.22,13.27s16.9-7.07,23-4.26c6.28,2.91,6.24,16.14,11.58,20.28s18.22.9,22.53,6.16-1.42,17.18,1.63,23.28,16,8.63,17.66,15.29-8.74,14.77-8.65,21.68C341.67,413.13,352.27,421.05,350.81,427.87Z"/><path fill="#f8be32" d="M350.23 384.75a9 9 0 0 0-3.49-4.72c-2.44 3.87-5.2 7.81-5.16 11.4 0 2.3 1.3 4.73 2.89 7.22C347.36 393.86 351.25 389 350.23 384.75zM170.42 393.8c0-3.59-3.11-7.53-5.72-11.46a9.28 9.28 0 0 0-3.51 5c-1 4.48 3.29 9.44 6.34 14.22C169.15 398.91 170.45 396.27 170.42 393.8zM332.55 354.4c.18-2.64.09-5.09-.84-7C331.52 350 331.61 352.5 332.55 354.4zM178.37 356.56c1-2.12.94-4.87.61-7.79-1.32 2.15-1.28 5.15-.91 8.37A6.36 6.36 0 0 0 178.37 356.56zM333.63 428.67c-1.72 3.71-.29 9.34.3 14.42 3.33-5.69 15.47-8.62 16.88-15.22.68-3.17-1.24-6.57-3.51-10C342.85 421.59 335.65 424.31 333.63 428.67zM332.66 452c-4.21 5.42-17.11 2.44-22.36 6.75s-4.89 17.53-11 20.58-16.41-5.21-23.08-3.58-11.94 13.68-18.86 13.77c-6.7.09-12.4-11.81-19.22-13.27s-16.9 7.07-23 4.25c-6.28-2.9-6.24-16.13-11.58-20.27s-18.22-.9-22.53-6.16a6 6 0 0 1-.77-1.22c-.42 5.85-2.21 12.59.77 16.22 4.31 5.26 17.1 1.95 22.53 6.16s5.3 17.37 11.58 20.27c6.07 2.82 16.14-5.71 23-4.25s12.52 13.36 19.22 13.27c6.92-.09 12.29-12.18 18.86-13.77s17 6.62 23.08 3.58 5.71-16.26 11-20.58 18.15-1.33 22.36-6.75c2.74-3.52 1-9.84.36-15.52A6 6 0 0 1 332.66 452zM179.45 445.83c.38-5.28 1.87-11.28 0-15.06-2.21-4.41-9.63-7-14.17-10.57-2.27 3.59-4.26 7.12-3.49 10.27 1.63 6.67 14.62 9.22 17.66 15.3A.14.14 0 0 1 179.45 445.83z"/><path fill="#e4222e" d="M257.84,374.61l9.47,19.2a2.08,2.08,0,0,0,1.55,1.12L290,398a2,2,0,0,1,1.14,3.49l-15.33,14.95a2,2,0,0,0-.59,1.81l3.62,21.1a2.05,2.05,0,0,1-3,2.16l-18.95-10a2.06,2.06,0,0,0-1.9,0l-19,10a2.05,2.05,0,0,1-3-2.16l3.62-21.1a2,2,0,0,0-.59-1.81L220.82,401.5A2,2,0,0,1,222,398l21.18-3.08a2.08,2.08,0,0,0,1.55-1.12l9.47-19.2A2.05,2.05,0,0,1,257.84,374.61Z"/><circle cx="323.5" cy="68" r="7.5" fill="#fff"/><circle cx="188.5" cy="68" r="7.5" fill="#fff"/><circle cx="257" cy="67.5" r="22.5" fill="#fff"/></svg>