<svg xmlns="http://www.w3.org/2000/svg" data-name="Layer 1" viewBox="0 0 512 512"><path fill="#fff" d="M462.22,223.25c0,14.83-25.57,26.6-28.73,40.49-3.26,14.33,14.59,36,8.34,48.93-6.35,13.14-34.49,12.67-43.51,24s-2.38,38.65-13.74,47.71-36.44-3.54-49.6,2.8c-12.94,6.24-18.74,33.77-33.09,37-13.9,3.16-31-19.06-45.89-19.06s-32,22.22-45.89,19.06c-14.35-3.25-20.15-30.78-33.09-37-13.16-6.34-38.3,6.21-49.6-2.8s-4.67-36.36-13.74-47.71-37.16-10.82-43.51-24c-6.25-12.93,11.6-34.6,8.34-48.93-3.16-13.89-28.73-25.66-28.73-40.49s25.57-26.61,28.73-40.49c3.26-14.34-14.59-36-8.34-48.93,6.35-13.15,34.49-12.67,43.51-24s2.38-38.64,13.74-47.7,36.44,3.54,49.6-2.81c12.94-6.23,18.74-33.76,33.09-37,13.9-3.15,31,19.06,45.89,19.06s32-22.21,45.89-19.06c14.35,3.26,20.15,30.79,33.09,37,13.16,6.35,38.3-6.21,49.6,2.81s4.67,36.36,13.74,47.7,37.16,10.82,43.51,24c6.25,12.93-11.6,34.59-8.34,48.93C436.65,196.64,462.22,208.41,462.22,223.25Z"/><path fill="#fff" d="M470,497.07a628,628,0,0,0-427.32,1.19q5-35,12.52-70Q32.44,402.6,7.5,378.34c161.66-57.73,335.64-57.3,497,1.19q-24.72,23.55-47.36,48.7Q464.76,462.72,470,497.07Z"/><text font-family="Dosis-ExtraBold,Dosis" font-size="75" font-weight="800" letter-spacing=".08em" transform="matrix(.99 0 0 1 176.85 201.98)">50%</text><text font-family="Dosis-ExtraBold,Dosis" font-size="75" font-weight="800" letter-spacing=".08em" transform="matrix(.99 0 0 1 193.26 297.16)">OFF</text><circle cx="338.5" cy="413" r="7.5"/><circle cx="173.5" cy="413" r="7.5"/><path fill="#fed947" d="M462.22,223.25c0,14.83-25.57,26.6-28.73,40.49-3.26,14.33,14.59,36,8.34,48.93-6.35,13.14-34.49,12.67-43.51,24s-2.38,38.65-13.74,47.71-36.44-3.54-49.6,2.8c-12.94,6.24-18.74,33.77-33.09,37-13.9,3.16-31-19.06-45.89-19.06s-32,22.22-45.89,19.06c-14.35-3.25-20.15-30.78-33.09-37-13.16-6.34-38.3,6.21-49.6-2.8s-4.67-36.36-13.74-47.71-37.16-10.82-43.51-24c-6.25-12.93,11.6-34.6,8.34-48.93-3.16-13.89-28.73-25.66-28.73-40.49s25.57-26.61,28.73-40.49c3.26-14.34-14.59-36-8.34-48.93,6.35-13.15,34.49-12.67,43.51-24s2.38-38.64,13.74-47.7,36.44,3.54,49.6-2.81c12.94-6.23,18.74-33.76,33.09-37,13.9-3.15,31,19.06,45.89,19.06s32-22.21,45.89-19.06c14.35,3.26,20.15,30.79,33.09,37,13.16,6.35,38.3-6.21,49.6,2.81s4.67,36.36,13.74,47.7,37.16,10.82,43.51,24c6.25,12.93-11.6,34.59-8.34,48.93C436.65,196.64,462.22,208.41,462.22,223.25Z"/><path fill="#fed947" d="M433.49,263.74c-3.26,14.33,14.59,36,8.34,48.93-6,12.49-31.75,12.68-42,22.37a14.75,14.75,0,0,0-1.48,1.59c-9.07,11.35-2.38,38.65-13.74,47.71s-36.44-3.54-49.6,2.8c-12.94,6.24-18.74,33.77-33.09,37-13.9,3.16-31-19.06-45.89-19.06s-32,22.22-45.89,19.06c-14.35-3.25-20.15-30.78-33.09-37-13.16-6.34-38.3,6.21-49.6-2.8s-4.67-36.36-13.74-47.71a16.06,16.06,0,0,0-2.08-2.13c-10.64-9.16-35.51-9.58-41.43-21.83-6.25-12.93,11.6-34.6,8.34-48.93-3.16-13.89-28.73-25.66-28.73-40.49s25.57-26.61,28.73-40.49c3.26-14.34-14.59-36-8.34-48.93,6.35-13.15,34.49-12.67,43.51-24s2.38-38.64,13.74-47.7,36.44,3.54,49.6-2.81c12.94-6.23,18.74-33.76,33.09-37,13.9-3.15,31,19.06,45.89,19.06s32-22.21,45.89-19.06c14.35,3.26,20.15,30.79,33.09,37,13.16,6.35,38.3-6.21,49.6,2.81s4.67,36.36,13.74,47.7,37.16,10.82,43.51,24c6.25,12.93-11.6,34.59-8.34,48.93,3.16,13.88,28.73,25.65,28.73,40.49S436.65,249.85,433.49,263.74Z"/><circle cx="256.02" cy="223.5" r="142" fill="#1067ae"/><path fill="#144e92" d="M398,223.5a142,142,0,1,1-283.21-15,142,142,0,0,0,282.42,0A142.9,142.9,0,0,1,398,223.5Z"/><path fill="#f8be32" d="M399.8,335a14.75,14.75,0,0,0-1.48,1.59c-9.07,11.35-2.38,38.65-13.74,47.71s-36.44-3.54-49.6,2.8c-12.94,6.24-18.74,33.77-33.09,37-13.9,3.16-31-19.06-45.89-19.06s-32,22.22-45.89,19.06c-14.35-3.25-20.15-30.78-33.09-37-13.16-6.34-38.3,6.21-49.6-2.8s-4.67-36.36-13.74-47.71a16.06,16.06,0,0,0-2.08-2.13q23.37-4.67,46.9-7.79a142,142,0,0,0,194.63.39Q376.55,330.31,399.8,335Z"/><path fill="#144e92" d="M353.13,327.1a142,142,0,0,1-194.63-.39q19.16-2.55,38.38-4.08a726,726,0,0,1,117.78.23Q333.92,324.47,353.13,327.1Z"/><path fill="#e4222e" d="M470,497.07a628,628,0,0,0-427.32,1.19q5-35,12.52-70Q32.44,402.6,7.5,378.34c161.66-57.73,335.64-57.3,497,1.19q-24.72,23.55-47.36,48.7Q464.76,462.72,470,497.07Z"/><path fill="#e4222e" d="M470,497.07a628,628,0,0,0-427.32,1.19q5-35,12.52-70Q32.44,402.6,7.5,378.34c161.66-57.73,335.64-57.3,497,1.19q-24.72,23.55-47.36,48.7Q464.76,462.72,470,497.07Z"/><path fill="#fff" d="M196.1 167.41c10.29 0 18.27 4.35 18.27 16.34v1.43c0 12.52-8.13 17.25-18.13 17.25-12 0-18.42-6.9-18.42-14 0-4 2.16-5.18 5.82-5.18 5.07 0 5.82 1.95 5.82 4.36 0 3 2.83 4.57 6.49 4.57 4.25 0 6.78-2.18 6.78-7v-1.43c0-4.94-2.53-7.34-6.63-7.34H184.76c-3.44 0-4.48-1.73-4.48-4.58a21 21 0 0 1 .15-2.17l2-18.9c.23-2.25.82-3.6 2.09-3.6h23.8c2.24 0 3.36 2.55 3.36 5.1s-1.12 5.1-3.36 5.1H192l-.74 10zM224.22 184.73V164.86c0-12.9 8-17.7 18.28-17.7s18.35 4.8 18.35 17.7v19.87c0 12.9-8.06 17.7-18.35 17.7S224.22 197.63 224.22 184.73zm25-19.87c0-5.18-2.53-7.5-6.71-7.5s-6.64 2.32-6.64 7.5v19.87c0 5.17 2.46 7.5 6.64 7.5s6.71-2.33 6.71-7.5zm-2.91 10a3.77 3.77 0 1 1-7.53 0 3.77 3.77 0 0 1 7.53 0zM271.14 167.93V157.28c0-7.42 4.85-10.12 11.19-10.12s11.19 2.7 11.19 10.12v10.65c0 7.43-4.92 10.13-11.19 10.13S271.14 175.36 271.14 167.93zm14.92-10.65c0-2.47-1.41-3.6-3.73-3.6s-3.65 1.13-3.65 3.6v10.65c0 2.48 1.34 3.6 3.65 3.6s3.73-1.12 3.73-3.6zm30.59-9.22a3.16 3.16 0 0 1-.3 1.42l-26.26 54.07a3.72 3.72 0 0 1-3.35 1.88 4.14 4.14 0 0 1-4.18-4 3.41 3.41 0 0 1 .37-1.42L309.12 146a3.27 3.27 0 0 1 3.13-1.88C314.34 144.08 316.65 145.66 316.65 148.06zm-11.26 44V181.43c0-7.42 4.84-10.12 11.19-10.12s11.19 2.7 11.19 10.12v10.65c0 7.42-4.93 10.12-11.19 10.12S305.39 199.5 305.39 192.08zm14.92-10.65c0-2.47-1.42-3.6-3.73-3.6s-3.66 1.13-3.66 3.6v10.65c0 2.47 1.34 3.6 3.66 3.6s3.73-1.13 3.73-3.6zM196.69 279.91V260c0-12.9 8-17.7 18.28-17.7s18.35 4.8 18.35 17.7v19.88c0 12.9-8.06 17.7-18.35 17.7S196.69 292.81 196.69 279.91zm25-19.88c0-5.17-2.53-7.49-6.71-7.49s-6.64 2.32-6.64 7.49v19.88c0 5.17 2.46 7.5 6.64 7.5s6.71-2.33 6.71-7.5zM246.38 245.93c0-2.39 2.53-3.6 5.07-3.6h25.89c2.46 0 3.5 2.63 3.5 5 0 2.77-1.27 5.18-3.5 5.18H258v12.67h11.27c2.24 0 3.5 2.17 3.5 4.57 0 2-1 4.43-3.5 4.43H258v19.35c0 2.4-2.91 3.6-5.82 3.6s-5.81-1.2-5.81-3.6zM290.39 245.93c0-2.39 2.54-3.6 5.07-3.6h25.89c2.46 0 3.51 2.63 3.51 5 0 2.77-1.27 5.18-3.51 5.18H302v12.67h11.26c2.24 0 3.51 2.17 3.51 4.57 0 2-1 4.43-3.51 4.43H302v19.35c0 2.4-2.91 3.6-5.82 3.6s-5.82-1.2-5.82-3.6z"/><path fill="#fed947" d="M257.84,365l9.47,19.19a2,2,0,0,0,1.55,1.12L290,388.39a2.06,2.06,0,0,1,1.14,3.5l-15.33,14.94a2,2,0,0,0-.59,1.82l3.62,21.09a2.06,2.06,0,0,1-3,2.17L257,422a2,2,0,0,0-1.9,0l-19,10a2.06,2.06,0,0,1-3-2.17l3.62-21.09a2,2,0,0,0-.59-1.82l-15.33-14.94a2.06,2.06,0,0,1,1.14-3.5l21.18-3.08a2,2,0,0,0,1.55-1.12L254.16,365A2,2,0,0,1,257.84,365Z"/><circle cx="338.5" cy="413" r="7.5" fill="#fff"/><circle cx="173.5" cy="413" r="7.5" fill="#fff"/></svg>