<svg xmlns="http://www.w3.org/2000/svg" data-name="Layer 1" viewBox="0 0 512 512"><text font-family="Dosis-ExtraBold,Dosis" font-size="75" font-weight="800" letter-spacing=".07em" transform="matrix(.99 0 0 1 139.96 292.57)">OFFER</text><circle cx="406" cy="269" r="7.5"/><circle cx="106" cy="269" r="7.5"/><path fill="#f8be32" d="M458.2,178.4a15.28,15.28,0,0,0-10.77-4.4H64.57a15.12,15.12,0,0,0-15.23,15,13.82,13.82,0,0,0,.09,1.58,14.82,14.82,0,0,0,4.37,9A15.28,15.28,0,0,0,64.57,204H447.43a15.14,15.14,0,0,0,15.14-13.42,13.82,13.82,0,0,0,.09-1.58A14.8,14.8,0,0,0,458.2,178.4Z"/><polygon fill="#e4222e" points="432.5 81 432.5 431 256.5 504.5 79.5 431 79.5 81 256 7.5 432.5 81"/><rect width="353" height="120" x="79.5" y="219" fill="#c0232c"/><path fill="#fed947" d="M462.66,190.58V309a15,15,0,0,1-15,15H64.34a15,15,0,0,1-15-15V190.58h.09a14.82,14.82,0,0,0,4.37,9A15.28,15.28,0,0,0,64.57,204H447.43a15.14,15.14,0,0,0,15.14-13.42Z"/><path fill="#e4222e" d="M143.39 275.32V255.45c0-12.9 8-17.7 18.28-17.7s18.35 4.8 18.35 17.7v19.87c0 12.9-8.06 17.7-18.35 17.7S143.39 288.22 143.39 275.32zm25-19.87c0-5.18-2.54-7.5-6.71-7.5s-6.64 2.32-6.64 7.5v19.87c0 5.17 2.46 7.5 6.64 7.5s6.71-2.33 6.71-7.5zM193.07 241.35c0-2.4 2.54-3.6 5.08-3.6H224c2.46 0 3.51 2.62 3.51 5 0 2.78-1.27 5.18-3.51 5.18H204.71v12.67H216c2.23 0 3.5 2.17 3.5 4.57 0 2-1 4.43-3.5 4.43H204.71V289c0 2.4-2.91 3.6-5.82 3.6s-5.82-1.2-5.82-3.6zM237.09 241.35c0-2.4 2.53-3.6 5.07-3.6h25.89c2.46 0 3.5 2.62 3.5 5 0 2.78-1.26 5.18-3.5 5.18H248.73v12.67H260c2.24 0 3.51 2.17 3.51 4.57 0 2-1.05 4.43-3.51 4.43H248.73V289c0 2.4-2.91 3.6-5.82 3.6s-5.82-1.2-5.82-3.6zM292.74 260.62h11.19c2.24 0 3.51 2.17 3.51 4.57 0 2-1.05 4.43-3.51 4.43H292.74v12.75h20c2.24 0 3.51 2.4 3.51 5.17 0 2.4-1 5-3.51 5H286.18c-2.54 0-5.08-1.2-5.08-3.6V241.35c0-2.4 2.54-3.6 5.08-3.6h26.55c2.47 0 3.51 2.62 3.51 5 0 2.78-1.27 5.18-3.51 5.18h-20zM326.91 241.27a3.48 3.48 0 0 1 3.58-3.52h15.44c10.22 0 18.35 3.82 18.35 16 0 8.41-3.8 13.21-9 15.23l9.1 16.57a2.47 2.47 0 0 1 .37 1.35c0 2.93-3.88 6.08-7.31 6.08a4 4 0 0 1-3.73-2.18l-10.22-19.95h-4.92V289c0 2.4-2.91 3.6-5.82 3.6s-5.82-1.2-5.82-3.6zM338.55 248v13.94h7.38c4.18 0 6.72-1.72 6.72-7s-2.54-7-6.72-7z"/><path fill="#fed947" d="M257.84 374l9.47 19.19a2 2 0 0 0 1.55 1.12L290 397.39a2.06 2.06 0 0 1 1.14 3.5l-15.33 14.94a2 2 0 0 0-.59 1.82l3.62 21.09a2.06 2.06 0 0 1-3 2.17L257 431a2 2 0 0 0-1.9 0l-19 10a2.06 2.06 0 0 1-3-2.17l3.62-21.09a2 2 0 0 0-.59-1.82l-15.33-14.94a2.06 2.06 0 0 1 1.14-3.5l21.18-3.08a2 2 0 0 0 1.55-1.12L254.16 374A2 2 0 0 1 257.84 374zM257.84 79l9.47 19.19a2 2 0 0 0 1.55 1.12L290 102.39a2.06 2.06 0 0 1 1.14 3.5l-15.33 14.94a2 2 0 0 0-.59 1.82l3.62 21.09a2.06 2.06 0 0 1-3 2.17L257 136a2 2 0 0 0-1.9 0l-19 10a2.06 2.06 0 0 1-3-2.17l3.62-21.09a2 2 0 0 0-.59-1.82l-15.33-14.94a2.06 2.06 0 0 1 1.14-3.5l21.18-3.08a2 2 0 0 0 1.55-1.12L254.16 79A2 2 0 0 1 257.84 79z"/><circle cx="406" cy="269" r="7.5" fill="#fff"/><circle cx="106" cy="269" r="7.5" fill="#fff"/></svg>