<svg xmlns="http://www.w3.org/2000/svg" data-name="Layer 1" viewBox="0 0 512 512"><path fill="#fff" d="M411.16,379.1C408.78,390.26,387.65,395,383,404.94c-4.76,10.27,5.19,29.44-1.59,38.16s-28,4-36.59,11-8,28.69-18,33.69S300,479.3,289.08,482c-10.74,2.61-19.53,22.39-30.85,22.54-11,.14-20.29-19.33-31.46-21.72s-27.65,11.57-37.6,7C178.9,485,179,463.34,170.23,456.57c-8.89-6.89-29.82-1.48-36.88-10.08s2.34-28.11-2.66-38.11-26.23-14.11-28.89-25c-2.62-10.74,14.29-24.17,14.14-35.48-.14-10.95-17.49-23.92-15.1-35.08S124.35,296.89,129,287c4.76-10.26-5.19-29.43,1.59-38.16s28-4,36.59-11,8-28.7,18-33.69,26.85,8.52,37.77,5.86c10.74-2.61,19.53-22.39,30.85-22.54,11-.14,20.29,19.33,31.46,21.72s27.65-11.57,37.6-7c10.27,4.75,10.21,26.4,18.94,33.17,8.89,6.89,29.82,1.49,36.88,10.09s-2.34,28.11,2.66,38.1,26.23,14.11,28.89,25c2.62,10.73-14.29,24.16-14.14,35.47C396.2,355,413.55,367.93,411.16,379.1Z"/><text font-family="Dosis-ExtraBold,Dosis" font-size="75" font-weight="800" letter-spacing=".07em" transform="matrix(.99 0 0 1 139.96 147.28)">OFFER</text><circle cx="406" cy="123" r="7.5"/><circle cx="106" cy="123" r="7.5"/><polygon fill="#803391" points="447.5 7.5 447.5 297.5 416.83 323.76 256.5 461 88.85 318.24 64.5 297.5 64.5 7.5 253.93 37.5 447.5 7.5"/><path fill="#fed947" d="M411.16,379.1C408.78,390.26,387.65,395,383,404.94c-4.76,10.27,5.19,29.44-1.59,38.16s-28,4-36.59,11-8,28.69-18,33.69S300,479.3,289.08,482c-10.74,2.61-19.53,22.39-30.85,22.54-11,.14-20.29-19.33-31.46-21.72s-27.65,11.57-37.6,7C178.9,485,179,463.34,170.23,456.57c-8.89-6.89-29.82-1.48-36.88-10.08s2.34-28.11-2.66-38.11-26.23-14.11-28.89-25c-2.62-10.74,14.29-24.17,14.14-35.48-.14-10.95-17.49-23.92-15.1-35.08S124.35,296.89,129,287c4.76-10.26-5.19-29.43,1.59-38.16s28-4,36.59-11,8-28.7,18-33.69,26.85,8.52,37.77,5.86c10.74-2.61,19.53-22.39,30.85-22.54,11-.14,20.29,19.33,31.46,21.72s27.65-11.57,37.6-7c10.27,4.75,10.21,26.4,18.94,33.17,8.89,6.89,29.82,1.49,36.88,10.09s-2.34,28.11,2.66,38.1,26.23,14.11,28.89,25c2.62,10.73-14.29,24.16-14.14,35.47C396.2,355,413.55,367.93,411.16,379.1Z"/><path fill="#672e79" d="M416.83,323.76,256.5,461,88.85,318.24a14.34,14.34,0,0,1-1-8.21c2.58-12.1,25.48-17.24,30.47-28,5.16-11.12-5.62-31.89,1.72-41.34,7.47-9.62,30.33-4.33,39.65-12s8.67-31.09,19.51-36.5,29.09,9.23,40.93,6.35c11.63-2.83,21.16-24.26,33.42-24.42,11.88-.15,22,20.95,34.1,23.53s29.95-12.54,40.73-7.54c11.13,5.15,11.06,28.61,20.53,36,9.62,7.46,32.3,1.6,39.95,10.92s-2.53,30.46,2.88,41.29,28.42,15.29,31.31,27.11C424.45,311,420.87,317.35,416.83,323.76Z"/><path fill="#fed947" d="M411.16,379.1C408.78,390.26,387.65,395,383,404.94c-4.76,10.27,5.19,29.44-1.59,38.16s-28,4-36.59,11-8,28.69-18,33.69S300,479.3,289.08,482c-10.74,2.61-19.53,22.39-30.85,22.54-11,.14-20.29-19.33-31.46-21.72s-27.65,11.57-37.6,7C178.9,485,179,463.34,170.23,456.57c-8.89-6.89-29.82-1.48-36.88-10.08s2.34-28.11-2.66-38.11-26.23-14.11-28.89-25c-2.62-10.74,14.29-24.17,14.14-35.48-.14-10.95-17.49-23.92-15.1-35.08S124.35,296.89,129,287c4.76-10.26-5.19-29.43,1.59-38.16s28-4,36.59-11,8-28.7,18-33.69,26.85,8.52,37.77,5.86c10.74-2.61,19.53-22.39,30.85-22.54,11-.14,20.29,19.33,31.46,21.72s27.65-11.57,37.6-7c10.27,4.75,10.21,26.4,18.94,33.17,8.89,6.89,29.82,1.49,36.88,10.09s-2.34,28.11,2.66,38.1,26.23,14.11,28.89,25c2.62,10.73-14.29,24.16-14.14,35.47C396.2,355,413.55,367.93,411.16,379.1Z"/><path fill="#f8be32" d="M410.2 308.54a11.36 11.36 0 0 0-2.16-4.27c-4.14 8.21-12.09 17-12 24.74a17.1 17.1 0 0 0 2 7.17C402.49 326.84 412.24 316.87 410.2 308.54zM128.94 251.87c-1.7 5.05-.43 12 .54 18.72C131.15 265.46 129.9 258.56 128.94 251.87zM380.48 266.32c.72-6 1.54-12.12.22-16.82C380 255.53 379.16 261.63 380.48 266.32zM115.94 332.88c-.1-7.67-8.63-16.32-12.92-24.66a11.6 11.6 0 0 0-2.18 4.58c-1.89 8.81 8.51 18.74 13.06 27.92A18.19 18.19 0 0 0 115.94 332.88zM383 389.94c-2 4.35-1.39 10.29-.52 16.36a13.13 13.13 0 0 1 .52-1.36c4.61-9.93 25.74-14.68 28.12-25.84.72-3.35-.35-6.86-2.18-10.43C402.87 376.78 387 381.48 383 389.94zM381.45 428.1c-6.89 8.87-28 4-36.59 11s-8 28.69-18 33.69S300 464.3 289.08 467c-10.74 2.61-19.53 22.39-30.85 22.54-11 .14-20.29-19.33-31.46-21.72s-27.65 11.57-37.6 7C178.9 470 179 448.34 170.23 441.57c-8.89-6.89-29.82-1.48-36.88-10.08a11.38 11.38 0 0 1-2-4.1c-.87 7.39-1.58 14.66 2 19.1 7.06 8.6 28 3.19 36.88 10.08 8.73 6.77 8.67 28.42 18.94 33.18 10 4.6 26.42-9.36 37.6-7s20.5 21.86 31.46 21.72c11.32-.15 20.11-19.93 30.85-22.54 10.92-2.66 27.82 10.83 37.77 5.87s9.36-26.61 18-33.69 29.7-2.17 36.59-11c3.32-4.28 2.63-11.06 1.61-18.08A10.4 10.4 0 0 1 381.45 428.1zM131.52 410.57c.76-6.41 1.4-12.74-.83-17.19-4.27-8.54-20.52-12.82-26.73-20.76-1.89 3.75-3 7.37-2.16 10.74 2.66 10.91 23.92 15.07 28.89 25A13 13 0 0 1 131.52 410.57z"/><path fill="#f8be32" d="M129 257a18 18 0 0 0 1.34-7.8c-1.74 2.47-2.26 5.7-2.19 9.3A12.48 12.48 0 0 0 129 257zM381.31 253.51l0 .07a16.29 16.29 0 0 0-1.52-6.34A16.15 16.15 0 0 0 381.31 253.51z"/><path fill="#fff" d="M143.39 130V110.16c0-12.9 8-17.7 18.28-17.7S180 97.26 180 110.16V130c0 12.9-8.06 17.7-18.35 17.7S143.39 142.93 143.39 130zm25-19.87c0-5.18-2.54-7.5-6.71-7.5S155 105 155 110.16V130c0 5.18 2.46 7.5 6.64 7.5s6.71-2.32 6.71-7.5zM193.07 96.06c0-2.4 2.54-3.6 5.08-3.6H224c2.46 0 3.51 2.62 3.51 5 0 2.78-1.27 5.18-3.51 5.18H204.71v12.67H216c2.23 0 3.5 2.18 3.5 4.58 0 2-1 4.42-3.5 4.42H204.71v19.35c0 2.4-2.91 3.6-5.82 3.6s-5.82-1.2-5.82-3.6zM237.09 96.06c0-2.4 2.53-3.6 5.07-3.6h25.89c2.46 0 3.5 2.62 3.5 5 0 2.78-1.26 5.18-3.5 5.18H248.73v12.67H260c2.24 0 3.51 2.18 3.51 4.58 0 2-1.05 4.42-3.51 4.42H248.73v19.35c0 2.4-2.91 3.6-5.82 3.6s-5.82-1.2-5.82-3.6zM292.74 115.33h11.19c2.24 0 3.51 2.18 3.51 4.58 0 2-1.05 4.42-3.51 4.42H292.74v12.75h20c2.24 0 3.51 2.4 3.51 5.18 0 2.4-1 5-3.51 5H286.18c-2.54 0-5.08-1.2-5.08-3.6V96.06c0-2.4 2.54-3.6 5.08-3.6h26.55c2.47 0 3.51 2.62 3.51 5 0 2.78-1.27 5.18-3.51 5.18h-20zM326.91 96a3.48 3.48 0 0 1 3.58-3.52h15.44c10.22 0 18.35 3.82 18.35 16.05 0 8.4-3.8 13.2-9 15.22l9.1 16.58a2.45 2.45 0 0 1 .37 1.35c0 2.92-3.88 6.07-7.31 6.07a4 4 0 0 1-3.73-2.17l-10.22-20h-4.92v18.07c0 2.4-2.91 3.6-5.82 3.6s-5.82-1.2-5.82-3.6zm11.64 6.68v14h7.38c4.18 0 6.72-1.73 6.72-7s-2.54-7-6.72-7z"/><path fill="#e4222e" d="M218.46 390a7.51 7.51 0 0 1-5.3-12.81l74-74a7.5 7.5 0 0 1 10.61 10.61l-74 74A7.52 7.52 0 0 1 218.46 390zM286.63 400.32a23.71 23.71 0 1 1 16.8-6.94h0A23.69 23.69 0 0 1 286.63 400.32zm0-32.48a8.75 8.75 0 1 0 6.19 14.93h0a8.75 8.75 0 0 0-6.19-14.93zM225.36 339a23.74 23.74 0 1 1 16.79-6.94h0A23.67 23.67 0 0 1 225.36 339zm11.49-12.24h0zm-11.49-20.24a8.75 8.75 0 1 0 6.18 2.56A8.69 8.69 0 0 0 225.36 306.56z"/><circle cx="406" cy="123" r="7.5" fill="#fed947"/><circle cx="106" cy="123" r="7.5" fill="#fed947"/></svg>