<svg xmlns="http://www.w3.org/2000/svg" data-name="Layer 1" viewBox="0 0 512 512"><text font-family="Dosis-ExtraBold,Dosis" font-size="60" font-weight="800" letter-spacing=".08em" transform="matrix(.99 0 0 1 163.16 178.27)">OFFER</text><ellipse cx="284.59" cy="492.36" rx="7.49" ry="7.5" transform="rotate(-75.98 284.587 492.36)"/><circle cx="256" cy="217.5" r="7.5"/><circle cx="226" cy="217.5" r="7.5"/><circle cx="286" cy="217.5" r="7.5"/><path d="M254.8,92.63l-5.32,2.68a2.66,2.66,0,0,1-3.81-2.85l1-5.36a2.65,2.65,0,0,0-.8-2.41l-4-3.72a2.65,2.65,0,0,1,1.44-4.57l5.71-.8a2.68,2.68,0,0,0,2-1.41l2.64-5.13a2.65,2.65,0,0,1,4.72,0L261,74.19a2.68,2.68,0,0,0,2,1.41l5.71.8A2.65,2.65,0,0,1,270.15,81l-4,3.72a2.65,2.65,0,0,0-.8,2.41l1,5.36a2.66,2.66,0,0,1-3.81,2.85l-5.32-2.68A2.67,2.67,0,0,0,254.8,92.63Z"/><text font-family="Dosis-ExtraBold,Dosis" font-size="60" font-weight="800" letter-spacing=".08em" transform="matrix(.99 0 0 1 163.16 178.27)">OFFER</text><ellipse cx="284.59" cy="492.36" rx="7.49" ry="7.5" transform="rotate(-75.98 284.587 492.36)"/><circle cx="256" cy="217.5" r="7.5"/><circle cx="226" cy="217.5" r="7.5"/><circle cx="286" cy="217.5" r="7.5"/><path d="M254.8,92.63l-5.32,2.68a2.66,2.66,0,0,1-3.81-2.85l1-5.36a2.65,2.65,0,0,0-.8-2.41l-4-3.72a2.65,2.65,0,0,1,1.44-4.57l5.71-.8a2.68,2.68,0,0,0,2-1.41l2.64-5.13a2.65,2.65,0,0,1,4.72,0L261,74.19a2.68,2.68,0,0,0,2,1.41l5.71.8A2.65,2.65,0,0,1,270.15,81l-4,3.72a2.65,2.65,0,0,0-.8,2.41l1,5.36a2.66,2.66,0,0,1-3.81,2.85l-5.32-2.68A2.67,2.67,0,0,0,254.8,92.63Z"/><path fill="#fdd8ae" d="M287.59,495.79V466.63a76,76,0,0,1,7.07-32L311,399.41a76.08,76.08,0,0,0,6-45L305.6,288.61a20.06,20.06,0,0,0-8.44-13.14l-33.6-23-58.92,20.45a23.72,23.72,0,0,0-8.32,16.89,23,23,0,0,0,7.06,17.46l17.94,17.27L211,474.15Z"/><path fill="#fbbf7d" d="M263.56,252.44l-58.92,20.45a23.72,23.72,0,0,0-8.32,16.89,23,23,0,0,0,7.06,17.46l17.94,17.27S277.09,261.71,263.56,252.44Z"/><path fill="#e4222e" d="M115.86,136.82,237.76,15.05a25.8,25.8,0,0,1,36.48,0l121.9,121.77a25.75,25.75,0,0,1,0,36.45L274.24,295a25.8,25.8,0,0,1-36.48,0L115.86,173.27A25.75,25.75,0,0,1,115.86,136.82Z"/><path fill="#c0232c" d="M396.14,158.27,274.24,280a25.8,25.8,0,0,1-36.48,0L115.86,158.27a25.62,25.62,0,0,1-6.44-10.73,25.74,25.74,0,0,0,6.44,25.73L237.76,295a25.8,25.8,0,0,0,36.48,0l121.9-121.76a25.74,25.74,0,0,0,6.44-25.73A25.62,25.62,0,0,1,396.14,158.27Z"/><path fill="#fed947" d="M165.91 164.47v-15.9c0-10.32 6.39-14.16 14.62-14.16s14.68 3.84 14.68 14.16v15.9c0 10.32-6.44 14.16-14.68 14.16S165.91 174.79 165.91 164.47zm20-15.9c0-4.14-2-6-5.37-6s-5.31 1.86-5.31 6v15.9c0 4.14 2 6 5.31 6s5.37-1.86 5.37-6zM205.66 137.29c0-1.92 2-2.88 4.06-2.88h20.7c2 0 2.81 2.1 2.81 4 0 2.22-1 4.14-2.81 4.14H215v10.14h9c1.79 0 2.8 1.74 2.8 3.66 0 1.62-.83 3.54-2.8 3.54h-9v15.48c0 1.92-2.33 2.88-4.66 2.88s-4.65-1-4.65-2.88zM240.87 137.29c0-1.92 2-2.88 4.06-2.88h20.71c2 0 2.8 2.1 2.8 4 0 2.22-1 4.14-2.8 4.14H250.18v10.14h9c1.79 0 2.81 1.74 2.81 3.66 0 1.62-.84 3.54-2.81 3.54h-9v15.48c0 1.92-2.33 2.88-4.66 2.88s-4.65-1-4.65-2.88zM285.39 152.71h8.95c1.79 0 2.81 1.74 2.81 3.66 0 1.62-.84 3.54-2.81 3.54h-8.95v10.2h16c1.79 0 2.8 1.92 2.8 4.14 0 1.92-.83 4-2.8 4H280.14c-2 0-4.06-1-4.06-2.88v-38.1c0-1.92 2-2.88 4.06-2.88h21.25c2 0 2.8 2.1 2.8 4 0 2.22-1 4.14-2.8 4.14h-16zM312.73 137.23a2.78 2.78 0 0 1 2.86-2.82h12.35c8.18 0 14.68 3.06 14.68 12.84 0 6.72-3 10.56-7.22 12.18l7.28 13.26a2 2 0 0 1 .3 1.08c0 2.34-3.1 4.86-5.85 4.86a3.18 3.18 0 0 1-3-1.74l-8.18-16H322v14.46c0 1.92-2.33 2.88-4.66 2.88s-4.65-1-4.65-2.88zm9.31 5.34v11.16h5.9c3.35 0 5.38-1.38 5.38-5.58s-2-5.58-5.38-5.58z"/><path fill="#fdd8ae" d="M196.66,490v-94.3a73.88,73.88,0,0,1,6.37-30l21.86-49.22,13.76-49.93a17.09,17.09,0,0,1,18.65-12.41h0A17.09,17.09,0,0,1,272,273.62l-7.54,50,1.82,45.05Z"/><path fill="#fbbf7d" d="M258.59,254.34a17,17,0,0,0-11,1.39A17.06,17.06,0,0,1,257,273.61l-7.54,50,1.22,30.06a15.61,15.61,0,0,0,15.6,15h0l-1.82-45.05L272,274.06C273.31,265,267.55,256.19,258.59,254.34Z"/><path fill="#2370b5" d="M175.27,512l0-34.9A14.72,14.72,0,0,1,190,462.4l108.23,0A14.73,14.73,0,0,1,313,477.13L313,512Z"/><path fill="#0a56a4" d="M175.27,497V477a.66.66,0,0,0,0,.14l0,34.9H313V497Z"/><ellipse cx="284.59" cy="492.36" fill="#fff" rx="7.49" ry="7.5" transform="rotate(-75.98 284.587 492.36)"/><circle cx="256" cy="217.5" r="7.5" fill="#fff"/><circle cx="226" cy="217.5" r="7.5" fill="#fff"/><circle cx="286" cy="217.5" r="7.5" fill="#fff"/><path fill="#fff" d="M254.8,92.63l-5.32,2.68a2.66,2.66,0,0,1-3.81-2.85l1-5.36a2.65,2.65,0,0,0-.8-2.41l-4-3.72a2.65,2.65,0,0,1,1.44-4.57l5.71-.8a2.68,2.68,0,0,0,2-1.41l2.64-5.13a2.65,2.65,0,0,1,4.72,0L261,74.19a2.68,2.68,0,0,0,2,1.41l5.71.8A2.65,2.65,0,0,1,270.15,81l-4,3.72a2.65,2.65,0,0,0-.8,2.41l1,5.36a2.66,2.66,0,0,1-3.81,2.85l-5.32-2.68A2.67,2.67,0,0,0,254.8,92.63Z"/></svg>