<svg xmlns="http://www.w3.org/2000/svg" data-name="Layer 1" viewBox="0 0 512 512"><path fill="#fff" d="M377,38.91c34.09,18.9,14.82,93.3,33.47,124.5,19.24,32.18,93.46,50.77,94.05,88.29.58,36.36-72.35,57.39-91.36,91.49s1.56,107-29.71,125.68c-32.27,19.29-87.26-33.78-124.83-33.1-36.41.66-89.61,56.23-123.7,37.32s-14.82-93.3-33.47-124.5C82.25,316.41,8,297.82,7.44,260.3c-.58-36.36,72.35-57.39,91.36-91.49s-1.56-107,29.71-125.68c32.27-19.29,87.26,33.78,124.83,33.1C289.75,75.57,343,20,377,38.91Z"/><path fill="#fff" d="M471.72,131.77c19.56,33.79-35.29,87.79-35.32,124.19,0,37.56,54.16,91.73,35.36,124.27-18.21,31.54-91.7,12.07-125.58,31.58S292.47,504.53,256,504.5c-37.65,0-57.58-73.93-90.2-92.68C134.15,393.65,59.84,414,40.28,380.23S75.57,292.44,75.6,256c0-37.56-54.16-91.73-35.36-124.27,18.21-31.54,91.7-12.07,125.58-31.58S219.53,7.47,256,7.5c37.65,0,57.58,73.93,90.2,92.68C377.85,118.35,452.16,98,471.72,131.77Z"/><text font-family="Dosis-ExtraBold,Dosis" font-size="75" font-weight="800" letter-spacing=".07em" transform="matrix(.99 0 0 1 175.95 234.57)">80%<tspan x="11.55" y="90">OFF</tspan></text><circle cx="256" cy="408.79" r="7.5"/><circle cx="256" cy="93.79" r="7.5"/><circle cx="119.6" cy="330.04" r="7.5"/><circle cx="392.4" cy="172.54" r="7.5"/><circle cx="392.4" cy="330.04" r="7.5"/><circle cx="119.6" cy="172.54" r="7.5"/><path fill="#fed947" d="M377,38.91c34.09,18.9,14.82,93.3,33.47,124.5,19.24,32.18,93.46,50.77,94.05,88.29.58,36.36-72.35,57.39-91.36,91.49s1.56,107-29.71,125.68c-32.27,19.29-87.26-33.78-124.83-33.1-36.41.66-89.61,56.23-123.7,37.32s-14.82-93.3-33.47-124.5C82.25,316.41,8,297.82,7.44,260.3c-.58-36.36,72.35-57.39,91.36-91.49s-1.56-107,29.71-125.68c32.27-19.29,87.26,33.78,124.83,33.1C289.75,75.57,343,20,377,38.91Z"/><path fill="#e4222e" d="M377,38.91c34.09,18.9,14.82,93.3,33.47,124.5,19.24,32.18,93.46,50.77,94.05,88.29.58,36.36-72.35,57.39-91.36,91.49s1.56,107-29.71,125.68c-32.27,19.29-87.26-33.78-124.83-33.1-36.41.66-89.61,56.23-123.7,37.32s-14.82-93.3-33.47-124.5C82.25,316.41,8,297.82,7.44,260.3c-.58-36.36,72.35-57.39,91.36-91.49s-1.56-107,29.71-125.68c32.27-19.29,87.26,33.78,124.83,33.1C289.75,75.57,343,20,377,38.91Z"/><path fill="#c0232c" d="M413.2,313.19c-19,34.09,1.56,107-29.71,125.68-32.27,19.29-87.26-33.78-124.83-33.1-36.41.66-89.61,56.23-123.7,37.32s-14.82-93.3-33.47-124.5C84.93,290.9,27.7,273.27,11.65,245a29.54,29.54,0,0,0-4.21,15.3c.59,37.52,74.81,56.11,94.05,88.29,18.65,31.2-.62,105.6,33.47,124.5s87.29-36.66,123.7-37.32c37.57-.68,92.56,52.39,124.83,33.1,31.27-18.7,10.7-91.59,29.71-125.68s91.94-55.13,91.36-91.49a30.34,30.34,0,0,0-4.21-14.7C484.63,264.61,429.38,284.16,413.2,313.19Z"/><path fill="#e4222e" d="M471.72,131.77c19.56,33.79-35.29,87.79-35.32,124.19,0,37.56,54.16,91.73,35.36,124.27-18.21,31.54-91.7,12.07-125.58,31.58S292.47,504.53,256,504.5c-37.65,0-57.58-73.93-90.2-92.68C134.15,393.65,59.84,414,40.28,380.23S75.57,292.44,75.6,256c0-37.56-54.16-91.73-35.36-124.27,18.21-31.54,91.7-12.07,125.58-31.58S219.53,7.47,256,7.5c37.65,0,57.58,73.93,90.2,92.68C377.85,118.35,452.16,98,471.72,131.77Z"/><path fill="#fed947" d="M471.72,131.77c19.56,33.79-35.29,87.79-35.32,124.19,0,37.56,54.16,91.73,35.36,124.27-18.21,31.54-91.7,12.07-125.58,31.58S292.47,504.53,256,504.5c-37.65,0-57.58-73.93-90.2-92.68C134.15,393.65,59.84,414,40.28,380.23S75.57,292.44,75.6,256c0-37.56-54.16-91.73-35.36-124.27,18.21-31.54,91.7-12.07,125.58-31.58S219.53,7.47,256,7.5c37.65,0,57.58,73.93,90.2,92.68C377.85,118.35,452.16,98,471.72,131.77Z"/><path fill="#f8be32" d="M75.6 226c0-26.82-27.6-62.11-36.55-91.94C26 162.52 63.14 205.83 73.17 240.75A52.81 52.81 0 0 0 75.6 226zM471.76 350.23c-18.21 31.54-91.7 12.07-125.58 31.58S292.47 474.53 256 474.5c-37.65 0-57.58-73.93-90.2-92.68C134.15 363.65 59.84 384 40.28 350.23a29.19 29.19 0 0 1-1.54-3.06c-3.55 12.08-4.05 23.4 1.54 33.06 19.56 33.79 93.87 13.42 125.49 31.59 32.62 18.75 52.55 92.65 90.2 92.68 36.5 0 56.34-73.18 90.21-92.69s107.37 0 125.58-31.58c5.38-9.31 4.78-20.38 1.19-32.33C472.59 348.69 472.2 349.46 471.76 350.23zM436.4 226a55.79 55.79 0 0 0 2.43 15.29c10-33.95 47.29-77 34.43-106.42C464.39 165 436.43 200 436.4 226z"/><path fill="#e4222e" d="M212.81 193.1c0 6.22-3 10-7.39 11.47 5.52 1.87 9.18 6.37 9.18 14.1v.9c0 11.17-8 15.45-18.28 15.45S178 230.74 178 219.57v-.9c0-7.73 3.73-12.23 9.25-14.1-4.4-1.5-7.39-5.25-7.39-11.47 0-9.38 6.87-13.35 16.49-13.35S212.81 183.72 212.81 193.1zM203 216.49c0-4.87-2.46-7.12-6.64-7.12s-6.72 2.25-6.72 7.12v1.65c0 5.18 2.62 7.5 6.72 7.5 4.25 0 6.64-2.47 6.64-7.5zM191 194.6c0 3.89 1.94 5.39 5.3 5.39s5.3-1.5 5.3-5.39-1.94-5.48-5.3-5.48S191 190.77 191 194.6zM225.12 217.32V197.44c0-12.89 8-17.69 18.27-17.69s18.35 4.8 18.35 17.69v19.88c0 12.9-8.05 17.7-18.35 17.7S225.12 230.22 225.12 217.32zm25-19.88c0-5.17-2.54-7.49-6.72-7.49s-6.64 2.32-6.64 7.49v19.88c0 5.17 2.46 7.5 6.64 7.5s6.72-2.33 6.72-7.5zM272 200.52V189.87c0-7.42 4.85-10.12 11.19-10.12s11.19 2.7 11.19 10.12v10.65c0 7.42-4.92 10.12-11.19 10.12S272 207.94 272 200.52zM287 189.87c0-2.47-1.42-3.6-3.73-3.6s-3.66 1.13-3.66 3.6v10.65c0 2.47 1.35 3.6 3.66 3.6S287 203 287 200.52zm30.59-9.22a3.3 3.3 0 0 1-.3 1.42L291 236.14a3.73 3.73 0 0 1-3.36 1.88 4.14 4.14 0 0 1-4.18-4 3.28 3.28 0 0 1 .38-1.42L310 178.55a3.28 3.28 0 0 1 3.13-1.88C315.23 176.67 317.55 178.25 317.55 180.65zm-11.27 44V214c0-7.43 4.85-10.13 11.19-10.13s11.19 2.7 11.19 10.13v10.65c0 7.42-4.92 10.12-11.19 10.12S306.28 232.09 306.28 224.67zM321.2 214c0-2.48-1.42-3.6-3.73-3.6s-3.65 1.12-3.65 3.6v10.65c0 2.47 1.34 3.6 3.65 3.6s3.73-1.13 3.73-3.6zM190.87 307.32V287.45c0-12.9 8-17.7 18.28-17.7s18.35 4.8 18.35 17.7v19.87c0 12.9-8.05 17.7-18.35 17.7S190.87 320.22 190.87 307.32zm25-19.87c0-5.18-2.53-7.5-6.71-7.5s-6.64 2.32-6.64 7.5v19.87c0 5.17 2.46 7.5 6.64 7.5s6.71-2.33 6.71-7.5zM240.56 273.35c0-2.4 2.53-3.6 5.07-3.6h25.89c2.46 0 3.5 2.62 3.5 5 0 2.78-1.27 5.18-3.5 5.18H252.2v12.67h11.26c2.24 0 3.51 2.17 3.51 4.57 0 2-1.05 4.43-3.51 4.43H252.2V321c0 2.4-2.91 3.6-5.82 3.6s-5.82-1.2-5.82-3.6zM284.57 273.35c0-2.4 2.54-3.6 5.08-3.6h25.88c2.46 0 3.51 2.62 3.51 5 0 2.78-1.27 5.18-3.51 5.18H296.21v12.67h11.27c2.23 0 3.5 2.17 3.5 4.57 0 2-1 4.43-3.5 4.43H296.21V321c0 2.4-2.91 3.6-5.82 3.6s-5.82-1.2-5.82-3.6z"/><circle cx="256" cy="408.79" r="7.5" fill="#e4222e"/><circle cx="256" cy="93.79" r="7.5" fill="#e4222e"/><circle cx="119.6" cy="330.04" r="7.5" fill="#e4222e"/><circle cx="392.4" cy="172.54" r="7.5" fill="#e4222e"/><circle cx="392.4" cy="330.04" r="7.5" fill="#e4222e"/><circle cx="119.6" cy="172.54" r="7.5" fill="#e4222e"/></svg>