<svg xmlns="http://www.w3.org/2000/svg" data-name="Layer 1" viewBox="0 0 512 512"><circle cx="406" cy="256" r="7.5"/><circle cx="106" cy="256" r="7.5"/><text font-family="Dosis-ExtraBold,Dosis" font-size="75" font-weight="800" letter-spacing=".07em" transform="matrix(.99 0 0 1 139.96 282.57)">OFFER</text><polygon fill="#672e79" points="7.5 325.34 72.13 363.35 106 354.36 92.71 288.04 9.84 313.44 7.5 325.34"/><polygon fill="#672e79" points="504.5 185.73 440.22 140.6 419.66 197.82 502.08 197.82 504.5 185.73"/><polygon fill="#f8be32" points="254.79 67.26 272.64 7.5 272.64 7.5 177.37 47.32 254.79 67.26"/><polygon fill="#fed947" points="447.38 110.91 428.35 200.73 398.77 340.34 385.9 401.09 64.62 401.09 77.62 340.34 107.51 200.73 126.74 110.91 447.38 110.91"/><polygon fill="#fed947" points="312.55 59.2 160.31 101.57 177.37 47.32 312.55 59.2"/><polygon fill="#f8be32" points="295.54 110.91 312.55 59.2 160.31 101.57 126.74 110.91 295.54 110.91"/><polygon fill="#f8be32" points="258.69 456.01 239.36 504.5 239.36 504.5 334.63 464.68 258.69 456.01"/><polygon fill="#fed947" points="351.69 410.43 334.63 464.68 199.45 452.8 351.69 410.43"/><polygon fill="#f8be32" points="385.26 401.09 351.69 410.43 199.45 452.8 216.46 401.09 385.26 401.09"/><polygon fill="#f8be32" points="428.35 200.73 398.77 340.34 77.62 340.34 107.51 200.73 428.35 200.73"/><polygon fill="#803391" points="7.5 325.34 476.5 325.34 504.5 185.73 34.94 185.73 7.5 325.34"/><circle cx="406" cy="256" r="7.5" fill="#fed947"/><circle cx="106" cy="256" r="7.5" fill="#fed947"/><path fill="#fff" d="M143.39 265.32V245.44c0-12.89 8-17.69 18.28-17.69S180 232.55 180 245.44v19.88c0 12.9-8.06 17.7-18.35 17.7S143.39 278.22 143.39 265.32zm25-19.88c0-5.17-2.54-7.49-6.71-7.49s-6.64 2.32-6.64 7.49v19.88c0 5.17 2.46 7.5 6.64 7.5s6.71-2.33 6.71-7.5zM193.07 231.35c0-2.4 2.54-3.6 5.08-3.6H224c2.46 0 3.51 2.62 3.51 5 0 2.78-1.27 5.18-3.51 5.18H204.71v12.67H216c2.23 0 3.5 2.17 3.5 4.57 0 2-1 4.43-3.5 4.43H204.71V279c0 2.4-2.91 3.6-5.82 3.6s-5.82-1.2-5.82-3.6zM237.09 231.35c0-2.4 2.53-3.6 5.07-3.6h25.89c2.46 0 3.5 2.62 3.5 5 0 2.78-1.26 5.18-3.5 5.18H248.73v12.67H260c2.24 0 3.51 2.17 3.51 4.57 0 2-1.05 4.43-3.51 4.43H248.73V279c0 2.4-2.91 3.6-5.82 3.6s-5.82-1.2-5.82-3.6zM292.74 250.62h11.19c2.24 0 3.51 2.17 3.51 4.57 0 2-1.05 4.43-3.51 4.43H292.74v12.75h20c2.24 0 3.51 2.4 3.51 5.17 0 2.4-1 5-3.51 5H286.18c-2.54 0-5.08-1.2-5.08-3.6V231.35c0-2.4 2.54-3.6 5.08-3.6h26.55c2.47 0 3.51 2.62 3.51 5 0 2.78-1.27 5.18-3.51 5.18h-20zM326.91 231.27a3.48 3.48 0 0 1 3.58-3.52h15.44c10.22 0 18.35 3.82 18.35 16 0 8.4-3.8 13.2-9 15.23l9.1 16.57a2.47 2.47 0 0 1 .37 1.35c0 2.93-3.88 6.08-7.31 6.08a4 4 0 0 1-3.73-2.18l-10.22-19.95h-4.92V279c0 2.4-2.91 3.6-5.82 3.6s-5.82-1.2-5.82-3.6zM338.55 238v13.94h7.38c4.18 0 6.72-1.72 6.72-7s-2.54-7-6.72-7z"/></svg>