<svg xmlns="http://www.w3.org/2000/svg" data-name="Layer 1" viewBox="0 0 512 512"><text font-family="Dosis-ExtraBold,Dosis" font-size="75" font-weight="800" letter-spacing=".07em" transform="matrix(.99 0 0 1 164.5 411.28)">SALE</text><text font-family="Dosis-ExtraBold,Dosis" font-size="75" font-weight="800" letter-spacing=".08em" transform="matrix(.99 0 0 1 195.05 173.36)">BIG</text><circle cx="338.5" cy="262" r="7.5"/><circle cx="173.5" cy="262" r="7.5"/><path fill="#c0232c" d="M500.1,177.4a14.92,14.92,0,0,0-10.6-4.4H22.5a15,15,0,0,0-15,15,13.82,13.82,0,0,0,.09,1.58A15,15,0,0,0,22.5,203h467a15,15,0,0,0,14.91-13.42,13.82,13.82,0,0,0,.09-1.58A14.92,14.92,0,0,0,500.1,177.4Z"/><polygon fill="#1067ae" points="459.5 96 459.5 431 256.7 504.5 52.5 431 52.5 96 256 22.5 459.5 96"/><polygon fill="#1067ae" points="429.5 218 429.5 338 459.5 338 459.5 431 256.7 504.5 52.5 431 52.5 338 82.5 338 82.5 218 52.5 218 52.5 96 256 22.5 459.5 96 459.5 218 429.5 218"/><polygon fill="#fed947" points="429.5 118.41 429.5 408.61 256.68 473.22 82.5 408.57 82.5 118.41 256 53.78 429.5 118.41"/><rect width="30" height="120" x="429.5" y="218" fill="#144e92"/><rect width="30" height="120" x="52.5" y="218" fill="#144e92"/><rect width="347" height="120" x="82.5" y="218" fill="#f8be32"/><path fill="#1067ae" d="M190.91 396.58c0-9.07-23.65-7.5-23.65-25.05 0-11.25 9.78-15.52 19.1-15.52 3.95 0 14.85.75 14.85 6.6 0 2-1.35 6.15-4.63 6.15-2.68 0-4.1-2.85-10.22-2.85-5.3 0-7.46 2.17-7.46 4.5 0 7.5 23.65 6.07 23.65 25 0 10.8-7.83 16.65-18.65 16.65-9.77 0-18-4.8-18-9.75 0-2.55 2.24-6.3 5.07-6.3 3.51 0 5.75 5.55 12.68 5.55C187.11 401.53 190.91 400.18 190.91 396.58zM210.16 406.48a3.59 3.59 0 0 1 .15-.82l13.87-45.75c.82-2.63 4.18-3.9 7.61-3.9s6.79 1.27 7.61 3.9l13.95 45.75a3.59 3.59 0 0 1 .15.82c0 2.78-4.25 4.8-7.46 4.8-1.86 0-3.36-.6-3.8-2.17l-2.54-9.38H224l-2.54 9.38c-.44 1.57-1.94 2.17-3.8 2.17C214.41 411.28 210.16 409.26 210.16 406.48zm27.08-15.75l-5.45-20.1-5.44 20.1zM268.5 411.28c-2.54 0-5.08-1.2-5.08-3.6V360c0-2.47 2.91-3.52 5.82-3.52s5.82 1.05 5.82 3.52v41.1h17c2.24 0 3.36 2.55 3.36 5.1s-1.12 5.1-3.36 5.1zM317.36 379.33h11.19c2.24 0 3.51 2.18 3.51 4.58 0 2-1.05 4.42-3.51 4.42H317.36v12.75h20c2.24 0 3.51 2.4 3.51 5.18 0 2.4-1.05 5-3.51 5H310.8c-2.54 0-5.08-1.2-5.08-3.6V360.06c0-2.4 2.54-3.6 5.08-3.6h26.55c2.46 0 3.51 2.62 3.51 5 0 2.78-1.27 5.18-3.51 5.18h-20z"/><path fill="#e4222e" d="M504.5,189.58V308a15,15,0,0,1-15,15H22.5a15,15,0,0,1-15-15V189.58h.09A15,15,0,0,0,22.5,203h467a15,15,0,0,0,14.91-13.42Z"/><path fill="#1067ae" d="M199.08 122.13c0-2.4 2.53-3.6 5.07-3.6h15.29c7.46 0 14.92 2.7 14.92 13.35 0 6.08-2.38 10.05-6.34 11.78 4.55 1.72 7.69 4.5 7.69 12v1.57c0 11.85-6.57 16.13-15 16.13H204.15c-3.13 0-5.07-1.65-5.07-3.53zm11.56 17h7.84c2.83 0 4.25-2.63 4.25-5.18s-1.42-5.25-4.25-5.25h-7.84zm7.46 24c3.73 0 6-2.1 6-6.9v-1.2c0-5.1-2.24-6.9-6-6.9h-7.46v15zM247.35 122.06c0-2.48 2.91-3.53 5.82-3.53s5.81 1 5.81 3.53v47.7c0 2.4-2.91 3.6-5.81 3.6s-5.82-1.2-5.82-3.6zM290.39 128.73c-4.25 0-6.71 2.4-6.71 7.5v19.88c0 5.1 2.46 7.5 6.64 7.5s6.71-2.4 6.71-7.5v-2.55h-4.4c-2.24 0-3.51-2.18-3.51-4.5s1.27-4.5 3.51-4.5h12.53a3.45 3.45 0 0 1 3.51 3.67v7.88c0 12.9-8.06 17.7-18.35 17.7S272 169 272 156.11V136.23c0-12.9 8.13-17.7 17.9-17.7 10.67 0 18.73 5.4 18.73 14.93 0 4.5-1.87 5.55-5.82 5.55-3.13 0-5.75-.83-5.82-3.53S296.73 128.73 290.39 128.73z"/><path fill="#fff" d="M257.84,229l9.47,19.19a2,2,0,0,0,1.55,1.12L290,252.39a2.06,2.06,0,0,1,1.14,3.5l-15.33,14.94a2,2,0,0,0-.59,1.82l3.62,21.09a2.06,2.06,0,0,1-3,2.17L257,286a2,2,0,0,0-1.9,0l-19,10a2.06,2.06,0,0,1-3-2.17l3.62-21.09a2,2,0,0,0-.59-1.82l-15.33-14.94a2.06,2.06,0,0,1,1.14-3.5l21.18-3.08a2,2,0,0,0,1.55-1.12L254.16,229A2,2,0,0,1,257.84,229Z"/><circle cx="338.5" cy="262" r="7.5" fill="#fed947"/><circle cx="173.5" cy="262" r="7.5" fill="#fed947"/></svg>