<svg xmlns="http://www.w3.org/2000/svg" data-name="Layer 1" viewBox="0 0 512 512"><path fill="#fff" d="M454,256c0,14.33-24.55,25.69-27.58,39.1-3.13,13.84,14,34.76,8,47.25-6.09,12.69-33.12,12.23-41.78,23.13s-2.29,37.32-13.19,46.07-35-3.42-47.62,2.71c-12.43,6-18,32.6-31.78,35.75-13.34,3-29.8-18.41-44.06-18.41S225.28,453.05,211.94,450c-13.78-3.15-19.35-29.73-31.78-35.75-12.63-6.13-36.77,6-47.62-2.71s-4.48-35.11-13.19-46.07S83.66,355,77.57,342.35c-6-12.49,11.14-33.41,8-47.25C82.55,281.69,58,270.33,58,256s24.55-25.69,27.58-39.1c3.13-13.84-14-34.76-8-47.25,6.09-12.69,33.12-12.23,41.78-23.13s2.29-37.32,13.19-46.07,35,3.42,47.62-2.71c12.43-6,18-32.6,31.78-35.75C225.28,59,241.74,80.4,256,80.4S286.72,59,300.06,62c13.78,3.15,19.35,29.73,31.78,35.75,12.63,6.13,36.77-6,47.62,2.71s4.48,35.11,13.19,46.07,35.69,10.44,41.78,23.13c6,12.49-11.14,33.41-8,47.25C429.45,230.31,454,241.67,454,256Z"/><text font-family="Dosis-ExtraBold,Dosis" font-size="75" font-weight="800" letter-spacing=".08em" transform="matrix(.99 0 0 1 139.96 285.57)">OFFER</text><circle cx="413.5" cy="256" r="7.5"/><circle cx="98.5" cy="256" r="7.5"/><path fill="#fed947" d="M454,256c0,14.33-24.55,25.69-27.58,39.1-3.13,13.84,14,34.76,8,47.25-6.09,12.69-33.12,12.23-41.78,23.13s-2.29,37.32-13.19,46.07-35-3.42-47.62,2.71c-12.43,6-18,32.6-31.78,35.75-13.34,3-29.8-18.41-44.06-18.41S225.28,453.05,211.94,450c-13.78-3.15-19.35-29.73-31.78-35.75-12.63-6.13-36.77,6-47.62-2.71s-4.48-35.11-13.19-46.07S83.66,355,77.57,342.35c-6-12.49,11.14-33.41,8-47.25C82.55,281.69,58,270.33,58,256s24.55-25.69,27.58-39.1c3.13-13.84-14-34.76-8-47.25,6.09-12.69,33.12-12.23,41.78-23.13s2.29-37.32,13.19-46.07,35,3.42,47.62-2.71c12.43-6,18-32.6,31.78-35.75C225.28,59,241.74,80.4,256,80.4S286.72,59,300.06,62c13.78,3.15,19.35,29.73,31.78,35.75,12.63,6.13,36.77-6,47.62,2.71s4.48,35.11,13.19,46.07,35.69,10.44,41.78,23.13c6,12.49-11.14,33.41-8,47.25C429.45,230.31,454,241.67,454,256Z"/><path fill="#fed947" d="M454,256c0,14.33-24.55,25.69-27.58,39.1-2.31,10.2,6.4,24.24,8.72,35.93.85,4.17.87,8-.71,11.32-6.09,12.69-33.12,12.23-41.78,23.13s-2.29,37.32-13.19,46.07-35-3.42-47.62,2.71c-12.43,6-18,32.6-31.78,35.75-13.34,3-29.8-18.41-44.06-18.41S225.28,453.05,211.94,450c-13.78-3.15-19.35-29.73-31.78-35.75-12.63-6.13-36.77,6-47.62-2.71s-4.48-35.11-13.19-46.07S83.66,355,77.57,342.35C76,339.06,76,335.2,76.86,331c2.32-11.69,11-25.73,8.72-35.93C82.55,281.69,58,270.33,58,256s24.55-25.69,27.58-39.1a18.48,18.48,0,0,0,.27-5.93c-1.33-13.38-13.47-30.51-8.28-41.32,6.09-12.69,33.12-12.23,41.78-23.13s2.29-37.32,13.19-46.07,35,3.42,47.62-2.71c12.43-6,18-32.6,31.78-35.75C225.28,59,241.74,80.4,256,80.4S286.72,59,300.06,62c13.78,3.15,19.35,29.73,31.78,35.75,12.63,6.13,36.77-6,47.62,2.71s4.48,35.11,13.19,46.07,35.69,10.44,41.78,23.13c5.19,10.81-6.95,27.94-8.28,41.32a18.48,18.48,0,0,0,.27,5.93C429.45,230.31,454,241.67,454,256Z"/><path fill="#f8be32" d="M85.58 201.9a18.48 18.48 0 0 0 .27-5.93c-.82-8.21-5.7-17.84-8.16-26.55a2.53 2.53 0 0 1-.12.23c-4.41 9.19 3.7 22.94 7 35.08A15.54 15.54 0 0 0 85.58 201.9zM426.42 201.9a15.54 15.54 0 0 0 1 2.83c3.34-12.14 11.45-25.89 7-35.08a2.53 2.53 0 0 1-.12-.23c-2.46 8.71-7.34 18.34-8.16 26.55A18.48 18.48 0 0 0 426.42 201.9zM434.3 327.58c-6.31 12.45-33 12.07-41.65 22.9s-2.29 37.32-13.19 46.07-35-3.42-47.62 2.71c-12.43 6-18 32.6-31.78 35.75-13.34 3-29.8-18.41-44.06-18.41S225.28 438.05 211.94 435c-13.78-3.15-19.35-29.73-31.78-35.75-12.63-6.13-36.77 6-47.62-2.71s-4.48-35.11-13.19-46.07S84 340 77.7 327.58c-.33 1.17-.62 2.32-.84 3.45-.85 4.17-.87 8 .71 11.32 6.09 12.69 33.12 12.23 41.78 23.13s2.28 37.32 13.19 46.07 35-3.42 47.62 2.71c12.43 6 18 32.6 31.78 35.75 13.34 3 29.8-18.41 44.06-18.41s30.72 21.45 44.06 18.41c13.78-3.15 19.35-29.73 31.78-35.75 12.63-6.13 36.77 6 47.62-2.71s4.48-35.11 13.19-46.07 35.69-10.44 41.78-23.13c1.58-3.29 1.56-7.15.71-11.32C434.92 329.9 434.63 328.75 434.3 327.58zM85.58 280.1c-2.48-11-19.41-20.6-25.44-31.6A15.54 15.54 0 0 0 58 256c0 13.31 21.17 24.06 26.61 36.27C85.82 287.91 86.41 283.76 85.58 280.1zM426.42 280.1c-.83 3.66-.24 7.81 1 12.17 5.44-12.21 26.61-23 26.61-36.27a15.54 15.54 0 0 0-2.14-7.5C445.83 259.5 428.9 269.11 426.42 280.1z"/><ellipse cx="255.43" cy="285.43" fill="#f8be32" rx="130.79" ry="131.49"/><ellipse cx="255.43" cy="255.43" fill="#e4222e" rx="130.79" ry="131.49"/><path fill="#f8be32" d="M454,256c0,14.33-24.55,25.69-27.58,39.1-2.31,10.2,6.4,24.24,8.72,35.93H76.86c2.32-11.69,11-25.73,8.72-35.93C82.55,281.69,58,270.33,58,256s24.55-25.69,27.58-39.1a18.48,18.48,0,0,0,.27-5.93h340.3a18.48,18.48,0,0,0,.27,5.93C429.45,230.31,454,241.67,454,256Z"/><path fill="#c0232c" d="M386.22,255.43A131.93,131.93,0,0,0,378.55,211H132.32A132.23,132.23,0,0,0,148.42,331h214A131.41,131.41,0,0,0,386.22,255.43Z"/><polygon fill="#2370b5" points="504.5 316.03 7.5 316.03 41.62 255.43 7.5 195.97 504.5 195.97 470.38 255.43 504.5 316.03"/><path fill="#fff" d="M143.39 268.32V248.45c0-12.9 8-17.7 18.28-17.7s18.35 4.8 18.35 17.7v19.87c0 12.9-8.06 17.7-18.35 17.7S143.39 281.22 143.39 268.32zm25-19.87c0-5.18-2.54-7.5-6.71-7.5s-6.64 2.32-6.64 7.5v19.87c0 5.17 2.46 7.5 6.64 7.5s6.71-2.33 6.71-7.5zM193.07 234.35c0-2.4 2.54-3.6 5.08-3.6H224c2.46 0 3.51 2.62 3.51 5 0 2.78-1.27 5.18-3.51 5.18H204.71v12.67H216c2.23 0 3.5 2.17 3.5 4.57 0 2-1 4.43-3.5 4.43H204.71V282c0 2.4-2.91 3.6-5.82 3.6s-5.82-1.2-5.82-3.6zM237.09 234.35c0-2.4 2.53-3.6 5.07-3.6h25.89c2.46 0 3.5 2.62 3.5 5 0 2.78-1.26 5.18-3.5 5.18H248.73v12.67H260c2.24 0 3.51 2.17 3.51 4.57 0 2-1.05 4.43-3.51 4.43H248.73V282c0 2.4-2.91 3.6-5.82 3.6s-5.82-1.2-5.82-3.6zM292.74 253.62h11.19c2.24 0 3.51 2.17 3.51 4.57 0 2-1.05 4.43-3.51 4.43H292.74v12.75h20c2.24 0 3.51 2.4 3.51 5.17 0 2.4-1 5-3.51 5H286.18c-2.54 0-5.08-1.2-5.08-3.6V234.35c0-2.4 2.54-3.6 5.08-3.6h26.55c2.47 0 3.51 2.62 3.51 5 0 2.78-1.27 5.18-3.51 5.18h-20zM326.91 234.27a3.48 3.48 0 0 1 3.58-3.52h15.44c10.22 0 18.35 3.82 18.35 16 0 8.41-3.8 13.21-9 15.23l9.1 16.57a2.47 2.47 0 0 1 .37 1.35c0 2.93-3.88 6.08-7.31 6.08a4 4 0 0 1-3.73-2.18l-10.22-19.95h-4.92V282c0 2.4-2.91 3.6-5.82 3.6s-5.82-1.2-5.82-3.6zM338.55 241v13.94h7.38c4.18 0 6.72-1.72 6.72-7s-2.54-7-6.72-7z"/><circle cx="413.5" cy="256" r="7.5" fill="#fff"/><circle cx="98.5" cy="256" r="7.5" fill="#fff"/></svg>