<svg xmlns="http://www.w3.org/2000/svg" data-name="Layer 1" viewBox="0 0 512 512"><path fill="#fff" d="M470,328.1a695,695,0,0,0-427.32,1.07q5-31.44,12.52-62.9-22.77-23-47.71-44.82a808.24,808.24,0,0,1,497,1.06q-24.72,21.17-47.36,43.76Q464.76,297.23,470,328.1Z"/><path d="M140 266.76q-3.1-9.54-6.2-19.09c-4.11-12.35 3.39-20 15.18-23.09s22.11-.28 24.73 12.43q2.1 9.78 4.18 19.56c2.63 12.73-4.37 19.1-14.46 21.84S144.11 279.14 140 266.76zm20.94-26.83c-1.24-5.06-4.64-6.65-9.29-5.41s-6.72 4.29-5.26 9.3q2.78 9.65 5.56 19.27c1.46 5 4.59 6.53 8.82 5.39s6.24-4 5-9.11zM185.68 220.26c-.43-2.37 2.3-4.07 5.24-4.53q15-2.35 30.09-3.61c2.88-.24 4.3 2.31 4.47 4.7.21 2.78-1 5.28-3.59 5.49q-11 .91-21.92 2.44.89 6.3 1.78 12.61 6.18-.87 12.37-1.54c2.46-.26 4.07 1.78 4.3 4.17.2 2-.69 4.52-3.33 4.81q-6 .66-12.07 1.51 1.35 9.62 2.72 19.24c.33 2.39-2.43 4-5.35 4.47s-6-.21-6.46-2.59zM236.43 214.74c-.13-2.4 2.78-3.74 5.75-3.83q15.12-.48 30.25.15c2.88.12 4 2.81 3.85 5.2-.14 2.77-1.7 5.08-4.25 5q-11-.45-22-.3l.21 12.68q6.21-.09 12.43 0c2.48.05 3.82 2.26 3.76 4.66-.06 2-1.25 4.38-3.9 4.34q-6.08-.1-12.15 0 .16 9.67.31 19.36c0 2.4-2.89 3.65-5.84 3.75s-5.94-1-6.07-3.35Q237.59 238.56 236.43 214.74zM298.75 235.93q6.15.67 12.28 1.55c2.46.35 3.52 2.7 3.16 5.07-.31 2-1.78 4.17-4.41 3.8q-6-.85-12-1.51l-1.38 12.63q10.38 1.13 20.7 2.84c2.32.39 3.21 3 2.72 5.69-.42 2.35-1.92 4.73-4.39 4.32q-13.32-2.2-26.76-3.39c-2.56-.23-5-1.61-4.86-4q1.79-23.69 3.58-47.38c.18-2.38 3.23-3.34 6.19-3.07q15.46 1.44 30.83 4.05c2.85.49 3.59 3.28 3.18 5.63-.49 2.72-2.33 4.8-4.85 4.38q-11.28-1.9-22.62-3.17Q299.43 229.66 298.75 235.93zM340 223.07c.38-1.82 2.34-3.09 4.83-2.54q8.86 2 17.65 4.33c11.68 3.14 19.67 9.81 15.87 21.29-2.58 7.91-8 11.11-14.06 11.43q2.44 9.29 4.45 18.55a2.38 2.38 0 0 1 0 1.39c-.91 2.74-5.66 4.49-9 3.5a4.15 4.15 0 0 1-3.07-3.15q-2.29-11-5.18-21.92-2.58-.66-5.17-1.29l-4.25 17.42c-.57 2.31-3.73 2.77-6.63 2.13s-5.55-2.42-5.07-4.75Q335.19 246.27 340 223.07zm11.66 9.46q-1.63 6.72-3.28 13.45c2.65.65 5.3 1.32 7.94 2 4.47 1.19 7.64.35 9.09-4.66s-.89-7.46-5.53-8.71C357.17 233.91 354.43 233.2 351.69 232.53z"/><circle cx="338.5" cy="138.43" r="7.5"/><circle cx="173.5" cy="138.43" r="7.5"/><circle cx="413.5" cy="258.43" r="7.5"/><circle cx="98.5" cy="258.43" r="7.5"/><polygon fill="#2370b5" points="488.31 59.63 459.04 224.18 439.48 334.09 418.44 452.37 253.59 504.5 93.56 452.37 72.7 335.14 52.82 223.35 23.69 59.63 253.59 7.5 488.31 59.63"/><path fill="#fed947" d="M410.3 326.87L392.09 429.24 253.72 473 119.94 429.41 101.86 327.75A694.92 694.92 0 0 1 410.3 326.87zM453.74 82.69L429.83 217.11a808.14 808.14 0 0 0-347.78-.7L58.24 82.56 253.65 38.25z"/><path fill="#e4222e" d="M220.46 419.08a7.5 7.5 0 0 1-5.3-12.8l70.11-70.13a7.5 7.5 0 0 1 10.61 10.6l-70.11 70.13A7.48 7.48 0 0 1 220.46 419.08zM285 428.91a22.89 22.89 0 1 1 16.18-6.7h0A22.74 22.74 0 0 1 285 428.91zm0-30.78a7.8 7.8 0 0 0-5.57 2.31 7.89 7.89 0 0 0 0 11.16 7.87 7.87 0 0 0 11.14 0h0A7.89 7.89 0 0 0 285 398.13zM227 370.87a22.9 22.9 0 1 1 16.18-6.71h0A22.74 22.74 0 0 1 227 370.87zm10.88-12h0zM227 340.09a7.8 7.8 0 0 0-5.57 2.31A7.89 7.89 0 0 0 227 355.87a7.81 7.81 0 0 0 5.57-2.31 7.89 7.89 0 0 0 0-11.16A7.81 7.81 0 0 0 227 340.09z"/><path fill="#fed947" d="M470,328.1a695,695,0,0,0-427.32,1.07q5-31.44,12.52-62.9-22.77-23-47.71-44.82a808.24,808.24,0,0,1,497,1.06q-24.72,21.17-47.36,43.76Q464.76,297.23,470,328.1Z"/><path fill="#f8be32" d="M459,224.18l-19.56,79.91c-9.69-2.62-19.42,25-29.18,22.78a694.92,694.92,0,0,0-308.44.88C92.1,330,82.38,302.46,72.7,305.14L52.82,223.35A808.3,808.3,0,0,1,459,224.18Z"/><path fill="#0a56a4" d="M82.05 216.41l19.81 111.34q-14.64 3.38-29.16 7.39L52.82 223.35Q67.39 219.6 82.05 216.41zM459 224.18L439.48 334.09q-14.53-3.93-29.18-7.22l19.53-109.76Q444.49 220.37 459 224.18z"/><path fill="#e4222e" d="M470,328.1a695,695,0,0,0-427.32,1.07q5-31.44,12.52-62.9-22.77-23-47.71-44.82a808.24,808.24,0,0,1,497,1.06q-24.72,21.17-47.36,43.76Q464.76,297.23,470,328.1Z"/><path fill="#fff" d="M140 266.76q-3.1-9.54-6.2-19.09c-4.11-12.35 3.4-20 15.18-23.09s22.11-.28 24.73 12.43q2.1 9.78 4.18 19.56c2.63 12.73-4.37 19.1-14.46 21.84S144.11 279.14 140 266.76zm20.94-26.83c-1.24-5.06-4.64-6.65-9.29-5.41s-6.72 4.29-5.26 9.3q2.78 9.65 5.56 19.27c1.46 5 4.59 6.53 8.82 5.39s6.24-4 5-9.11zM185.67 220.26c-.42-2.37 2.31-4.07 5.25-4.53q15-2.35 30.09-3.61c2.88-.24 4.3 2.3 4.47 4.7.21 2.78-1 5.28-3.59 5.49q-11 .91-21.92 2.44.89 6.3 1.78 12.6 6.17-.85 12.37-1.53c2.46-.26 4.07 1.78 4.3 4.17.2 2-.69 4.52-3.33 4.81q-6 .66-12.08 1.51l2.73 19.24c.33 2.39-2.43 4-5.34 4.47s-6-.21-6.47-2.59Q189.81 243.85 185.67 220.26zM236.43 214.74c-.13-2.4 2.78-3.74 5.75-3.83q15.12-.48 30.25.15c2.88.12 4 2.81 3.85 5.2-.14 2.77-1.7 5.08-4.25 5q-11-.45-22-.3l.21 12.68q6.21-.09 12.43 0c2.48.05 3.82 2.26 3.76 4.66-.06 2-1.25 4.38-3.9 4.34q-6.08-.1-12.15 0 .16 9.67.31 19.36c0 2.4-2.89 3.65-5.84 3.75s-5.94-1-6.07-3.35Q237.59 238.56 236.43 214.74zM298.75 235.93q6.15.67 12.28 1.55c2.46.35 3.52 2.71 3.16 5.06-.3 2-1.78 4.18-4.41 3.81q-6-.85-12-1.51l-1.38 12.63q10.38 1.13 20.7 2.84c2.32.39 3.21 3 2.72 5.69-.42 2.35-1.93 4.73-4.39 4.32q-13.32-2.2-26.76-3.39c-2.56-.23-5-1.61-4.86-4q1.79-23.69 3.58-47.38c.18-2.38 3.23-3.35 6.19-3.07q15.46 1.44 30.83 4.05c2.85.49 3.6 3.28 3.18 5.63-.49 2.72-2.33 4.8-4.85 4.38q-11.28-1.9-22.62-3.17Q299.43 229.66 298.75 235.93zM340 223.07c.38-1.82 2.34-3.09 4.83-2.54q8.86 2 17.65 4.33c11.67 3.14 19.67 9.81 15.87 21.29-2.58 7.91-8 11.11-14.06 11.43q2.44 9.29 4.45 18.55a2.38 2.38 0 0 1 0 1.39c-.91 2.75-5.66 4.49-9 3.5a4.15 4.15 0 0 1-3.07-3.15q-2.29-11-5.18-21.92-2.58-.66-5.17-1.29-2.13 8.7-4.25 17.42c-.57 2.31-3.74 2.77-6.63 2.13s-5.55-2.42-5.07-4.75Q335.19 246.26 340 223.07zm11.66 9.46q-1.63 6.72-3.28 13.45c2.65.65 5.3 1.32 7.94 2 4.47 1.19 7.64.34 9.09-4.66s-.89-7.46-5.53-8.71C357.17 233.91 354.43 233.2 351.69 232.53z"/><path fill="#e4222e" d="M257.84,80l9.47,19.19a2,2,0,0,0,1.55,1.12L290,103.39a2.06,2.06,0,0,1,1.14,3.5l-15.33,14.94a2,2,0,0,0-.59,1.82l3.62,21.09a2.06,2.06,0,0,1-3,2.17L257,137a2,2,0,0,0-1.9,0l-19,10a2.06,2.06,0,0,1-3-2.17l3.62-21.09a2,2,0,0,0-.59-1.82l-15.33-14.94a2.06,2.06,0,0,1,1.14-3.5l21.18-3.08a2,2,0,0,0,1.55-1.12L254.16,80A2,2,0,0,1,257.84,80Z"/><circle cx="338.5" cy="138.43" r="7.5" fill="#fff"/><circle cx="173.5" cy="138.43" r="7.5" fill="#fff"/><circle cx="413.5" cy="258.43" r="7.5" fill="#fed947"/><circle cx="98.5" cy="258.43" r="7.5" fill="#fed947"/></svg>