<svg xmlns="http://www.w3.org/2000/svg" data-name="Layer 1" viewBox="0 0 512 512"><text font-family="Dosis-ExtraBold,Dosis" font-size="90" font-weight="800" letter-spacing=".07em" transform="matrix(.99 0 0 1 119.75 396.28)">OFFER</text><circle cx="421" cy="361" r="7.5"/><circle cx="91" cy="361" r="7.5"/><path fill="#c0232c" d="M470.1,275.4a14.92,14.92,0,0,0-10.6-4.4l-33.18-.09-338.64-.29L52.5,271a15,15,0,0,0-15,15,13.82,13.82,0,0,0,.09,1.58A15,15,0,0,0,52.5,301h407a15,15,0,0,0,14.91-13.42,13.82,13.82,0,0,0,.09-1.58A14.92,14.92,0,0,0,470.1,275.4Z"/><path fill="#2370b5" d="M415.15,289q-4.47,14-9.67,27a397.31,397.31,0,0,1-75,120A387.69,387.69,0,0,1,256,500a387.69,387.69,0,0,1-74.51-64,397.31,397.31,0,0,1-75-120q-5.17-13-9.67-27A423.25,423.25,0,0,1,80.76,101.68,402.85,402.85,0,0,0,196.91,53.41,399.14,399.14,0,0,0,256,9a398.93,398.93,0,0,0,82.83,58,398.82,398.82,0,0,0,92.41,34.71C436.23,139.68,440.48,209.63,415.15,289Z"/><path fill="#fed947" d="M256,463.4A366.52,366.52,0,0,1,125.43,279.88a393.43,393.43,0,0,1-17.24-154.5A431.47,431.47,0,0,0,212.63,79,428.49,428.49,0,0,0,256,48.42a429.31,429.31,0,0,0,68.9,45.11,428.29,428.29,0,0,0,78.73,31.83c4.35,52.69-1.47,105.72-17,154.52A366.52,366.52,0,0,1,256,463.4Z"/><path fill="#fed947" d="M220.67,436h70.66c-12.45,10.47-24.51,19.37-35.33,27.4C245.18,455.37,233.12,446.47,220.67,436Z"/><path fill="#fed947" d="M256,463.4A366.52,366.52,0,0,1,125.43,279.88a393.43,393.43,0,0,1-17.24-154.5A431.47,431.47,0,0,0,212.63,79,428.49,428.49,0,0,0,256,48.42a429.31,429.31,0,0,0,68.9,45.11,428.29,428.29,0,0,0,78.73,31.83c4.35,52.69-1.47,105.72-17,154.52A366.52,366.52,0,0,1,256,463.4Z"/><path fill="#0a56a4" d="M405.48,316a397.31,397.31,0,0,1-75,120H291.33L266,421l-45.35,15H181.49a397.31,397.31,0,0,1-75-120Z"/><path fill="#f8be32" d="M379,316c-22.76,57.55-56.47,93.74-87.71,120H220.67c-31.24-26.26-64.95-62.45-87.71-120Z"/><path fill="#e4222e" d="M474.5,287.58V406a15,15,0,0,1-15,15H52.5a15,15,0,0,1-15-15V287.58h.09A15,15,0,0,0,52.5,301h407a15,15,0,0,0,14.91-13.42Z"/><path fill="#fff" d="M123.87 375.58V351.73c0-15.48 9.57-21.23 21.93-21.23s22 5.75 22 21.23v23.85c0 15.48-9.67 21.24-22 21.24S123.87 391.06 123.87 375.58zm30-23.85c0-6.21-3.05-9-8.06-9s-8 2.79-8 9v23.85c0 6.21 3 9 8 9s8.06-2.79 8.06-9zM183.49 334.81c0-2.87 3-4.31 6.08-4.31h31.07c3 0 4.21 3.14 4.21 6 0 3.33-1.53 6.21-4.21 6.21H197.45v15.21H211c2.69 0 4.21 2.61 4.21 5.49 0 2.43-1.26 5.31-4.21 5.31H197.45V392c0 2.88-3.49 4.32-7 4.32s-7-1.44-7-4.32zM236.31 334.81c0-2.87 3-4.31 6.08-4.31h31.07c3 0 4.21 3.14 4.21 6 0 3.33-1.53 6.21-4.21 6.21H250.27v15.21h13.52c2.69 0 4.21 2.61 4.21 5.49 0 2.43-1.26 5.31-4.21 5.31H250.27V392c0 2.88-3.49 4.32-7 4.32s-7-1.44-7-4.32zM303.09 357.94h13.43c2.68 0 4.21 2.61 4.21 5.49 0 2.43-1.26 5.31-4.21 5.31H303.09V384h24c2.69 0 4.21 2.88 4.21 6.21 0 2.88-1.25 6-4.21 6H295.21c-3 0-6.09-1.44-6.09-4.32V334.81c0-2.87 3.05-4.31 6.09-4.31h31.87c3 0 4.21 3.14 4.21 6 0 3.33-1.52 6.21-4.21 6.21h-24zM344.09 334.72a4.17 4.17 0 0 1 4.3-4.22h18.53c12.26 0 22 4.58 22 19.25 0 10.08-4.56 15.84-10.83 18.27L389 387.91a3 3 0 0 1 .45 1.62c0 3.51-4.66 7.29-8.77 7.29a4.76 4.76 0 0 1-4.48-2.61L364 370.27h-5.9V392c0 2.88-3.5 4.32-7 4.32s-7-1.44-7-4.32zm14 8v16.74h8.86c5 0 8.06-2.07 8.06-8.37s-3.05-8.37-8.06-8.37z"/><path fill="#e4222e" d="M257.84 112l9.47 19.19a2 2 0 0 0 1.55 1.12L290 135.39a2.06 2.06 0 0 1 1.14 3.5l-15.33 14.94a2 2 0 0 0-.59 1.82l3.62 21.09a2.06 2.06 0 0 1-3 2.17L257 169a2 2 0 0 0-1.9 0l-19 10a2.06 2.06 0 0 1-3-2.17l3.62-21.09a2 2 0 0 0-.59-1.82l-15.33-14.94a2.06 2.06 0 0 1 1.14-3.5l21.18-3.08a2 2 0 0 0 1.55-1.12L254.16 112A2 2 0 0 1 257.84 112zM182.84 187l9.47 19.19a2 2 0 0 0 1.55 1.12L215 210.39a2.06 2.06 0 0 1 1.14 3.5l-15.33 14.94a2 2 0 0 0-.59 1.82l3.62 21.09a2.06 2.06 0 0 1-3 2.17l-19-10a2 2 0 0 0-1.9 0l-19 10a2.06 2.06 0 0 1-3-2.17l3.62-21.09a2 2 0 0 0-.59-1.82l-15.33-14.94a2.06 2.06 0 0 1 1.14-3.5l21.18-3.08a2 2 0 0 0 1.55-1.12L179.16 187A2 2 0 0 1 182.84 187zM332.84 187l9.47 19.19a2 2 0 0 0 1.55 1.12L365 210.39a2.06 2.06 0 0 1 1.14 3.5l-15.33 14.94a2 2 0 0 0-.59 1.82l3.62 21.09a2.06 2.06 0 0 1-3 2.17L332 244a2 2 0 0 0-1.9 0l-18.95 10a2.06 2.06 0 0 1-3-2.17l3.62-21.09a2 2 0 0 0-.59-1.82l-15.33-14.94a2.06 2.06 0 0 1 1.14-3.5l21.18-3.08a2 2 0 0 0 1.55-1.12L329.16 187A2 2 0 0 1 332.84 187z"/><circle cx="421" cy="361" r="7.5" fill="#fff"/><circle cx="91" cy="361" r="7.5" fill="#fff"/></svg>