<svg xmlns="http://www.w3.org/2000/svg" data-name="Layer 1" viewBox="0 0 512 512"><text font-family="Dosis-ExtraBold,Dosis" font-size="75" font-weight="800" letter-spacing=".08em" transform="matrix(.99 0 0 1 139.96 284.57)">OFFER</text><circle cx="406" cy="256" r="7.5"/><circle cx="106" cy="256" r="7.5"/><path fill="#fed947" d="M474.5,256,387.91,361,278.53,493.63a28.79,28.79,0,0,1-45.06,0L124.09,361,37.5,256l61.85-75L233.47,18.37a28.79,28.79,0,0,1,45.06,0L412.65,181Z"/><polygon fill="#f8be32" points="474.5 256 387.91 361 124.09 361 37.5 256 99.35 181 412.65 181 474.5 256"/><polygon fill="#2370b5" points="462.06 346 49.94 346 7.5 256 49.94 166 462.06 166 504.5 256 462.06 346"/><polygon fill="#fed947" points="68.96 316 40.67 256 68.96 196 443.04 196 471.33 256 443.04 316 68.96 316"/><path fill="#2370b5" d="M257.84 67.62l9.47 18.83a2 2 0 0 0 1.55 1.1l21.18 3A2 2 0 0 1 291.18 94l-15.33 14.65a2 2 0 0 0-.59 1.79l3.62 20.69a2 2 0 0 1-3 2.12L257 123.49a2.06 2.06 0 0 0-1.9 0l-19 9.77a2 2 0 0 1-3-2.12l3.62-20.69a2 2 0 0 0-.59-1.79L220.82 94A2 2 0 0 1 222 90.57l21.18-3a2 2 0 0 0 1.55-1.1l9.47-18.83A2.07 2.07 0 0 1 257.84 67.62zM257.84 375.62l9.47 18.83a2 2 0 0 0 1.55 1.1l21.18 3a2 2 0 0 1 1.14 3.44l-15.33 14.65a2 2 0 0 0-.59 1.79l3.62 20.69a2 2 0 0 1-3 2.12L257 431.49a2.06 2.06 0 0 0-1.9 0l-19 9.77a2 2 0 0 1-3-2.12l3.62-20.69a2 2 0 0 0-.59-1.79L220.82 402a2 2 0 0 1 1.14-3.44l21.18-3a2 2 0 0 0 1.55-1.1l9.47-18.83A2.07 2.07 0 0 1 257.84 375.62z"/><path fill="#e4222e" d="M143.39 267.32V247.45c0-12.9 8-17.7 18.28-17.7s18.35 4.8 18.35 17.7v19.87c0 12.9-8.06 17.7-18.35 17.7S143.39 280.22 143.39 267.32zm25-19.87c0-5.18-2.54-7.5-6.71-7.5s-6.64 2.32-6.64 7.5v19.87c0 5.17 2.46 7.5 6.64 7.5s6.71-2.33 6.71-7.5zM193.07 233.35c0-2.4 2.54-3.6 5.08-3.6H224c2.46 0 3.51 2.62 3.51 5 0 2.78-1.27 5.18-3.51 5.18H204.71v12.67H216c2.23 0 3.5 2.17 3.5 4.57 0 2-1 4.43-3.5 4.43H204.71V281c0 2.4-2.91 3.6-5.82 3.6s-5.82-1.2-5.82-3.6zM237.09 233.35c0-2.4 2.54-3.6 5.07-3.6h25.89c2.46 0 3.5 2.62 3.5 5 0 2.78-1.26 5.18-3.5 5.18H248.73v12.67H260c2.24 0 3.51 2.17 3.51 4.57 0 2-1.05 4.43-3.51 4.43H248.73V281c0 2.4-2.91 3.6-5.82 3.6s-5.82-1.2-5.82-3.6zM292.74 252.62h11.19c2.24 0 3.51 2.17 3.51 4.57 0 2-1.05 4.43-3.51 4.43H292.74v12.75h20c2.24 0 3.51 2.4 3.51 5.17 0 2.4-1 5-3.51 5H286.18c-2.54 0-5.08-1.2-5.08-3.6V233.35c0-2.4 2.54-3.6 5.08-3.6h26.55c2.47 0 3.51 2.62 3.51 5 0 2.78-1.27 5.18-3.51 5.18h-20zM326.91 233.27a3.48 3.48 0 0 1 3.58-3.52h15.44c10.22 0 18.35 3.82 18.35 16.05 0 8.4-3.8 13.2-9 15.22l9.1 16.57a2.47 2.47 0 0 1 .37 1.35c0 2.93-3.88 6.08-7.31 6.08a4 4 0 0 1-3.73-2.18l-10.22-19.95h-4.92V281c0 2.4-2.91 3.6-5.82 3.6s-5.82-1.2-5.82-3.6zM338.55 240v14h7.38c4.18 0 6.72-1.73 6.72-7s-2.54-7-6.72-7z"/><circle cx="406" cy="256" r="7.5" fill="#fff"/><circle cx="106" cy="256" r="7.5" fill="#fff"/></svg>