<svg xmlns="http://www.w3.org/2000/svg" data-name="Layer 1" viewBox="0 0 512 512"><text font-family="Dosis-ExtraBold,Dosis" font-size="75" font-weight="800" letter-spacing=".07em" transform="matrix(.99 0 0 1 164.5 270.57)">SALE</text><circle cx="368.5" cy="244" r="7.5"/><circle cx="143.5" cy="244" r="7.5"/><polygon fill="#672e79" points="489.5 301.5 444.5 365 422.63 344.9 418.73 285.75 489.5 301.5"/><polygon fill="#672e79" points="22.5 181.5 67.5 118 110.83 158.73 102 201.98 22.5 181.5"/><rect width="377" height="381" x="67.5" y="51" fill="#fed947" rx="15"/><rect width="377" height="120" x="67.5" y="196.5" fill="#f8be32"/><rect width="467" height="120" x="22.5" y="181.5" fill="#803391"/><path fill="#e4222e" d="M257.84 85l9.47 19.19a2 2 0 0 0 1.55 1.12L290 108.39a2.06 2.06 0 0 1 1.14 3.5l-15.33 14.94a2 2 0 0 0-.59 1.82l3.62 21.09a2.06 2.06 0 0 1-3 2.17L257 142a2 2 0 0 0-1.9 0l-19 10a2.06 2.06 0 0 1-3-2.17l3.62-21.09a2 2 0 0 0-.59-1.82l-15.33-14.94a2.06 2.06 0 0 1 1.14-3.5l21.18-3.08a2 2 0 0 0 1.55-1.12L254.16 85A2 2 0 0 1 257.84 85zM257.84 334l9.47 19.19a2 2 0 0 0 1.55 1.12L290 357.39a2.06 2.06 0 0 1 1.14 3.5l-15.33 14.94a2 2 0 0 0-.59 1.82l3.62 21.09a2.06 2.06 0 0 1-3 2.17L257 391a2 2 0 0 0-1.9 0l-19 10a2.06 2.06 0 0 1-3-2.17l3.62-21.09a2 2 0 0 0-.59-1.82l-15.33-14.94a2.06 2.06 0 0 1 1.14-3.5l21.18-3.08a2 2 0 0 0 1.55-1.12L254.16 334A2 2 0 0 1 257.84 334z"/><path fill="#fff" d="M190.91 255.87c0-9.08-23.65-7.5-23.65-25.05 0-11.25 9.78-15.52 19.1-15.52 3.95 0 14.85.75 14.85 6.6 0 2-1.35 6.14-4.63 6.14-2.69 0-4.1-2.84-10.22-2.84-5.3 0-7.46 2.17-7.46 4.5 0 7.5 23.65 6.07 23.65 25 0 10.8-7.84 16.65-18.65 16.65-9.78 0-18-4.8-18-9.75 0-2.55 2.24-6.3 5.07-6.3 3.51 0 5.75 5.55 12.68 5.55C187.11 260.82 190.91 259.47 190.91 255.87zM210.16 265.77a3.57 3.57 0 0 1 .15-.83l13.87-45.74c.82-2.63 4.18-3.9 7.61-3.9s6.79 1.27 7.61 3.9l13.95 45.74a3.57 3.57 0 0 1 .15.83c0 2.77-4.25 4.8-7.46 4.8-1.86 0-3.36-.6-3.8-2.18L239.7 259H224l-2.54 9.37c-.45 1.58-1.94 2.18-3.8 2.18C214.41 270.57 210.16 268.54 210.16 265.77zM237.24 250l-5.45-20.1L226.35 250zM268.5 270.57c-2.54 0-5.08-1.2-5.08-3.6v-47.7c0-2.47 2.91-3.52 5.82-3.52s5.82 1.05 5.82 3.52v41.1h17c2.24 0 3.36 2.55 3.36 5.1s-1.12 5.1-3.36 5.1zM317.36 238.62h11.19c2.24 0 3.51 2.17 3.51 4.57 0 2-1.05 4.43-3.51 4.43H317.36v12.75h20c2.24 0 3.51 2.4 3.51 5.17 0 2.4-1.05 5-3.51 5H310.79c-2.53 0-5.07-1.2-5.07-3.6V219.35c0-2.4 2.54-3.6 5.07-3.6h26.56c2.46 0 3.51 2.62 3.51 5 0 2.78-1.27 5.18-3.51 5.18h-20z"/><circle cx="368.5" cy="244" r="7.5" fill="#fff"/><circle cx="143.5" cy="244" r="7.5" fill="#fff"/></svg>