<svg xmlns="http://www.w3.org/2000/svg" data-name="Layer 1" viewBox="0 0 512 512"><circle cx="338.5" cy="256" r="7.5"/><circle cx="173.5" cy="256" r="7.5"/><path fill="#c0232c" d="M489.5,166H22.5a15,15,0,0,0-15,15,13.82,13.82,0,0,0,.09,1.58A15,15,0,0,0,22.5,196h467a15,15,0,0,0,14.91-13.42,13.82,13.82,0,0,0,.09-1.58A15,15,0,0,0,489.5,166Z"/><polygon fill="#fed947" points="492.38 116.4 466.47 211 433.6 331 415.91 395.6 19.62 395.6 37.46 331 70.61 211 96.74 116.4 492.38 116.4"/><polygon fill="#fed947" points="382.98 395.6 365.26 466.91 296.17 454.54 215.08 440.03 382.98 395.6"/><polygon fill="#f8be32" points="365.26 466.91 269.99 499 296.17 454.54 365.26 466.91"/><polygon fill="#f8be32" points="215.08 440.02 247.09 395.6 415.9 395.6 215.08 440.02"/><polygon fill="#fed947" points="128.66 117.41 145.1 45.79 214.4 56.92 295.74 69.97 128.66 117.41"/><polygon fill="#f8be32" points="145.1 45.79 239.78 11.99 214.4 56.92 145.1 45.79"/><polygon fill="#f8be32" points="295.73 69.97 263.53 116.4 96.74 116.4 295.73 69.97"/><polygon fill="#f8be32" points="466.47 211 433.6 331 37.46 331 70.61 211 466.47 211"/><path fill="#e4222e" d="M504.5,182.58V301a15,15,0,0,1-15,15H22.5a15,15,0,0,1-15-15V182.58h.09A15,15,0,0,0,22.5,196h467a15,15,0,0,0,14.91-13.42Z"/><path fill="#fed947" d="M257.84,223l9.47,19.19a2,2,0,0,0,1.55,1.12L290,246.39a2.06,2.06,0,0,1,1.14,3.5l-15.33,14.94a2,2,0,0,0-.59,1.82l3.62,21.09a2.06,2.06,0,0,1-3,2.17L257,280a2,2,0,0,0-1.9,0l-19,10a2.06,2.06,0,0,1-3-2.17l3.62-21.09a2,2,0,0,0-.59-1.82l-15.33-14.94a2.06,2.06,0,0,1,1.14-3.5l21.18-3.08a2,2,0,0,0,1.55-1.12L254.16,223A2,2,0,0,1,257.84,223Z"/><circle cx="338.5" cy="256" r="7.5" fill="#fff"/><circle cx="173.5" cy="256" r="7.5" fill="#fff"/></svg>