<svg xmlns="http://www.w3.org/2000/svg" data-name="Layer 1" viewBox="0 0 512 512"><path fill="#fff" d="M454,256c0,14.33-24.55,25.69-27.58,39.1-3.13,13.84,14,34.76,8,47.25-6.09,12.69-33.12,12.23-41.78,23.13s-2.29,37.32-13.19,46.07-35-3.42-47.62,2.71c-12.43,6-18,32.6-31.78,35.75-13.34,3-29.8-18.41-44.06-18.41S225.28,453.05,211.94,450c-13.78-3.15-19.35-29.73-31.78-35.75-12.63-6.13-36.77,6-47.62-2.71s-4.48-35.11-13.19-46.07S83.66,355,77.57,342.35c-6-12.49,11.14-33.41,8-47.25C82.55,281.69,58,270.33,58,256s24.55-25.69,27.58-39.1c3.13-13.84-14-34.76-8-47.25,6.09-12.69,33.12-12.23,41.78-23.13s2.29-37.32,13.19-46.07,35,3.42,47.62-2.71c12.43-6,18-32.6,31.78-35.75C225.28,59,241.74,80.4,256,80.4S286.72,59,300.06,62c13.78,3.15,19.35,29.73,31.78,35.75,12.63,6.13,36.77-6,47.62,2.71s4.48,35.11,13.19,46.07,35.69,10.44,41.78,23.13c6,12.49-11.14,33.41-8,47.25C429.45,230.31,454,241.67,454,256Z"/><text font-family="Dosis-ExtraBold,Dosis" font-size="75" font-weight="800" letter-spacing=".07em" transform="matrix(.99 0 0 1 164.5 283.57)">SALE</text><circle cx="391" cy="256" r="7.5"/><circle cx="121" cy="256" r="7.5"/><path fill="#fed947" d="M454,256c0,14.33-24.55,25.69-27.58,39.1-3.13,13.84,14,34.76,8,47.25-6.09,12.69-33.12,12.23-41.78,23.13s-2.29,37.32-13.19,46.07-35-3.42-47.62,2.71c-12.43,6-18,32.6-31.78,35.75-13.34,3-29.8-18.41-44.06-18.41S225.28,453.05,211.94,450c-13.78-3.15-19.35-29.73-31.78-35.75-12.63-6.13-36.77,6-47.62-2.71s-4.48-35.11-13.19-46.07S83.66,355,77.57,342.35c-6-12.49,11.14-33.41,8-47.25C82.55,281.69,58,270.33,58,256s24.55-25.69,27.58-39.1c3.13-13.84-14-34.76-8-47.25,6.09-12.69,33.12-12.23,41.78-23.13s2.29-37.32,13.19-46.07,35,3.42,47.62-2.71c12.43-6,18-32.6,31.78-35.75C225.28,59,241.74,80.4,256,80.4S286.72,59,300.06,62c13.78,3.15,19.35,29.73,31.78,35.75,12.63,6.13,36.77-6,47.62,2.71s4.48,35.11,13.19,46.07,35.69,10.44,41.78,23.13c6,12.49-11.14,33.41-8,47.25C429.45,230.31,454,241.67,454,256Z"/><path fill="#fed947" d="M454,256c0,14.33-24.55,25.69-27.58,39.1-2.31,10.2,6.4,24.24,8.72,35.93.85,4.17.87,8-.71,11.32a13.62,13.62,0,0,1-2.65,3.68c-9,9-31.4,9.72-39.13,19.45-8.71,11-2.29,37.32-13.19,46.07s-35-3.42-47.62,2.71c-12.43,6-18,32.6-31.78,35.75-13.34,3-29.8-18.41-44.06-18.41S225.28,453.05,211.94,450c-13.78-3.15-19.35-29.73-31.78-35.75-12.63-6.13-36.77,6-47.62-2.71s-4.48-35.11-13.19-46.07c-7.73-9.73-30.08-10.41-39.13-19.45a13.62,13.62,0,0,1-2.65-3.68C76,339.06,76,335.2,76.86,331c2.32-11.69,11-25.73,8.72-35.93C82.55,281.69,58,270.33,58,256c0-11,14.47-20.25,22.56-30a22.63,22.63,0,0,0,5-9.07,18.48,18.48,0,0,0,.27-5.93c-1.33-13.38-13.47-30.51-8.28-41.32,6.09-12.69,33.12-12.23,41.78-23.13s2.29-37.32,13.19-46.07,35,3.42,47.62-2.71c12.43-6,18-32.6,31.78-35.75C225.28,59,241.74,80.4,256,80.4S286.72,59,300.06,62c13.78,3.15,19.35,29.73,31.78,35.75,12.63,6.13,36.77-6,47.62,2.71s4.48,35.11,13.19,46.07,35.69,10.44,41.78,23.13c5.19,10.81-6.95,27.94-8.28,41.32a18.48,18.48,0,0,0,.27,5.93,22.63,22.63,0,0,0,5,9.07C439.53,235.75,454,245,454,256Z"/><path fill="#f8be32" d="M85.58 201.9a18.48 18.48 0 0 0 .27-5.93c-.82-8.21-5.7-17.84-8.16-26.55a2.53 2.53 0 0 1-.12.23c-4.41 9.19 3.69 22.94 7 35.07A15.19 15.19 0 0 0 85.58 201.9zM426.42 201.9a15.19 15.19 0 0 0 1 2.82c3.35-12.13 11.45-25.88 7-35.07a2.53 2.53 0 0 1-.12-.23c-2.46 8.71-7.34 18.34-8.16 26.55A18.48 18.48 0 0 0 426.42 201.9zM426.42 280.1c-.83 3.66-.24 7.81 1 12.17 5.44-12.21 26.61-23 26.61-36.27a15.54 15.54 0 0 0-2.14-7.5C445.83 259.5 428.9 269.11 426.42 280.1zM434.3 327.58a13.41 13.41 0 0 1-2.52 3.45c-9 9-31.4 9.72-39.13 19.45-8.71 11-2.29 37.32-13.19 46.07s-35-3.42-47.62 2.71c-12.43 6-18 32.6-31.78 35.75-13.34 3-29.8-18.41-44.06-18.41S225.28 438.05 211.94 435c-13.78-3.15-19.35-29.73-31.78-35.75-12.63-6.13-36.77 6-47.62-2.71s-4.48-35.11-13.19-46.07c-7.73-9.73-30.08-10.41-39.13-19.45a13.41 13.41 0 0 1-2.52-3.45c-.33 1.17-.62 2.32-.84 3.45-.85 4.17-.87 8 .71 11.32A13.62 13.62 0 0 0 80.22 346c9 9 31.4 9.72 39.13 19.45 8.71 11 2.28 37.32 13.19 46.07s35-3.42 47.62 2.71c12.43 6 18 32.6 31.78 35.75 13.34 3 29.8-18.41 44.06-18.41s30.72 21.45 44.06 18.41c13.78-3.15 19.35-29.73 31.78-35.75 12.63-6.13 36.77 6 47.62-2.71s4.48-35.11 13.19-46.07c7.73-9.73 30.08-10.41 39.13-19.45a13.62 13.62 0 0 0 2.65-3.68c1.58-3.29 1.56-7.15.71-11.32C434.92 329.9 434.63 328.75 434.3 327.58zM85.58 280.1c-2.48-11-19.41-20.6-25.44-31.6A15.54 15.54 0 0 0 58 256c0 13.31 21.17 24.06 26.61 36.27C85.82 287.91 86.41 283.76 85.58 280.1z"/><ellipse cx="255.43" cy="285.43" fill="#f8be32" rx="130.79" ry="131.49"/><path fill="#fff" d="M386.22,255.43a131.37,131.37,0,0,1-36,90.6,130.29,130.29,0,0,1-189.54,0A132.21,132.21,0,0,1,127.94,226c13.3-58.44,65.34-102,127.49-102s114.19,43.59,127.49,102A132.35,132.35,0,0,1,386.22,255.43Z"/><path fill="#f8be32" d="M454,256c0,14.33-24.55,25.69-27.58,39.1-2.31,10.2,6.4,24.24,8.72,35.93H76.86c2.32-11.69,11-25.73,8.72-35.93C82.55,281.69,58,270.33,58,256c0-11,14.47-20.25,22.56-30a22.63,22.63,0,0,0,5-9.07,18.48,18.48,0,0,0,.27-5.93h340.3a18.48,18.48,0,0,0,.27,5.93,22.63,22.63,0,0,0,5,9.07C439.53,235.75,454,245,454,256Z"/><path fill="#fff" d="M386.22,255.43A130.78,130.78,0,1,1,132.32,211c18.12-50.75,66.41-87,123.11-87s105,36.28,123.11,87a130,130,0,0,1,4.38,15A132.35,132.35,0,0,1,386.22,255.43Z"/><path fill="#e1e1e3" d="M386.22,255.43A131.25,131.25,0,0,1,362.43,331h-214A132,132,0,0,1,132.32,211H378.54a130,130,0,0,1,4.38,15A132.35,132.35,0,0,1,386.22,255.43Z"/><path fill="#f8be32" d="M454,241c0,14.33-24.55,25.69-27.58,39.1-2.31,10.2,6.4,24.24,8.72,35.93H76.86c2.32-11.69,11-25.73,8.72-35.93C82.55,266.69,58,255.33,58,241c0-11,14.47-20.25,22.56-30a22.63,22.63,0,0,0,5-9.07,18.48,18.48,0,0,0,.27-5.93h340.3a18.48,18.48,0,0,0,.27,5.93,22.63,22.63,0,0,0,5,9.07C439.53,220.75,454,230,454,241Z"/><polygon fill="#e4222e" points="504.5 316.03 7.5 316.03 26.62 255.43 7.5 195.97 504.5 195.97 485.38 255.43 504.5 316.03"/><path fill="#fff" d="M190.91 268.87c0-9.08-23.65-7.5-23.65-25.05 0-11.25 9.78-15.52 19.1-15.52 3.95 0 14.85.75 14.85 6.6 0 2-1.35 6.14-4.63 6.14-2.69 0-4.1-2.84-10.22-2.84-5.3 0-7.46 2.17-7.46 4.5 0 7.5 23.65 6.07 23.65 25 0 10.8-7.84 16.65-18.65 16.65-9.78 0-18-4.8-18-9.75 0-2.55 2.24-6.3 5.07-6.3 3.51 0 5.75 5.55 12.68 5.55C187.11 273.82 190.91 272.47 190.91 268.87zM210.16 278.77a3.57 3.57 0 0 1 .15-.83l13.87-45.74c.82-2.63 4.18-3.9 7.61-3.9s6.79 1.27 7.61 3.9l13.95 45.74a3.57 3.57 0 0 1 .15.83c0 2.77-4.25 4.8-7.46 4.8-1.86 0-3.36-.6-3.8-2.18L239.7 272H224l-2.54 9.37c-.45 1.58-1.94 2.18-3.8 2.18C214.41 283.57 210.16 281.54 210.16 278.77zM237.24 263l-5.45-20.1L226.35 263zM268.5 283.57c-2.54 0-5.08-1.2-5.08-3.6v-47.7c0-2.47 2.91-3.52 5.82-3.52s5.82 1.05 5.82 3.52v41.1h17c2.24 0 3.36 2.55 3.36 5.1s-1.12 5.1-3.36 5.1zM317.36 251.62h11.19c2.24 0 3.51 2.17 3.51 4.57 0 2-1.05 4.43-3.51 4.43H317.36v12.75h20c2.24 0 3.51 2.4 3.51 5.17 0 2.4-1.05 5-3.51 5H310.79c-2.53 0-5.07-1.2-5.07-3.6V232.35c0-2.4 2.54-3.6 5.07-3.6h26.56c2.46 0 3.51 2.62 3.51 5 0 2.78-1.27 5.18-3.51 5.18h-20z"/><circle cx="391" cy="256" r="7.5" fill="#fff"/><circle cx="121" cy="256" r="7.5" fill="#fff"/></svg>