<svg xmlns="http://www.w3.org/2000/svg" data-name="Layer 1" viewBox="0 0 512 512"><polygon fill="#672e79" points="7.5 309.25 68.5 353.73 103.55 309.25 59.76 292.57 7.5 309.25"/><polygon fill="#672e79" points="504.5 309.25 443.5 353.73 412.19 360.73 416.25 277.75 504.5 309.25"/><polygon fill="#fed947" points="443.5 51 443.5 431 256.53 504.5 68.5 431 68.5 51 443.5 51"/><path fill="#803391" d="M122.79 120.71c10.3 0 18.28 4.35 18.28 16.35v1.42c0 12.53-8.13 17.25-18.13 17.25-12 0-18.42-6.9-18.42-13.95 0-4.05 2.16-5.17 5.81-5.17 5.08 0 5.82 1.95 5.82 4.35 0 3 2.84 4.57 6.49 4.57 4.26 0 6.79-2.17 6.79-7.05v-1.42c0-4.95-2.53-7.35-6.64-7.35H111.45c-3.43 0-4.47-1.73-4.47-4.58a21 21 0 0 1 .15-2.17l2-18.9c.22-2.25.82-3.6 2.09-3.6H135c2.23 0 3.35 2.55 3.35 5.1s-1.12 5.1-3.35 5.1H118.69l-.75 10zM150.92 138V118.16c0-12.9 8-17.7 18.28-17.7s18.35 4.8 18.35 17.7V138c0 12.9-8.06 17.7-18.35 17.7S150.92 150.93 150.92 138zm25-19.87c0-5.18-2.54-7.5-6.71-7.5s-6.64 2.32-6.64 7.5V138c0 5.18 2.46 7.5 6.64 7.5s6.71-2.32 6.71-7.5zM197.84 121.23V110.58c0-7.42 4.85-10.12 11.19-10.12s11.19 2.7 11.19 10.12v10.65c0 7.43-4.92 10.13-11.19 10.13S197.84 128.66 197.84 121.23zm14.92-10.65c0-2.47-1.42-3.6-3.73-3.6s-3.65 1.13-3.65 3.6v10.65c0 2.48 1.34 3.6 3.65 3.6s3.73-1.12 3.73-3.6zm30.59-9.22a3.3 3.3 0 0 1-.3 1.42l-26.26 54.08a3.74 3.74 0 0 1-3.36 1.87 4.13 4.13 0 0 1-4.17-4 3.45 3.45 0 0 1 .37-1.43l26.18-54.07A3.29 3.29 0 0 1 239 97.38C241 97.38 243.35 99 243.35 101.36zm-11.27 44V134.73c0-7.42 4.85-10.12 11.19-10.12s11.19 2.7 11.19 10.12v10.65c0 7.43-4.92 10.13-11.19 10.13S232.08 152.81 232.08 145.38zM247 134.73c0-2.47-1.41-3.6-3.73-3.6s-3.65 1.13-3.65 3.6v10.65c0 2.48 1.34 3.6 3.65 3.6s3.73-1.12 3.73-3.6zM285.8 138V118.16c0-12.9 8-17.7 18.27-17.7s18.36 4.8 18.36 17.7V138c0 12.9-8.06 17.7-18.36 17.7S285.8 150.93 285.8 138zm25-19.87c0-5.18-2.54-7.5-6.72-7.5s-6.64 2.32-6.64 7.5V138c0 5.18 2.47 7.5 6.64 7.5s6.72-2.32 6.72-7.5zM335.48 104.06c0-2.4 2.54-3.6 5.07-3.6h25.89c2.46 0 3.51 2.62 3.51 5 0 2.78-1.27 5.18-3.51 5.18H347.12v12.67h11.26c2.24 0 3.51 2.18 3.51 4.58 0 2-1 4.42-3.51 4.42H347.12v19.35c0 2.4-2.91 3.6-5.82 3.6s-5.82-1.2-5.82-3.6zM379.5 104.06c0-2.4 2.53-3.6 5.07-3.6h25.89c2.46 0 3.5 2.62 3.5 5 0 2.78-1.27 5.18-3.5 5.18H391.13v12.67H402.4c2.24 0 3.51 2.18 3.51 4.58 0 2-1.05 4.42-3.51 4.42H391.13v19.35c0 2.4-2.9 3.6-5.81 3.6s-5.82-1.2-5.82-3.6z"/><rect width="375" height="120" x="68.5" y="204.25" fill="#f8be32"/><path fill="#803391" d="M190.91 402.58c0-9.07-23.65-7.5-23.65-25.05 0-11.25 9.78-15.52 19.1-15.52 3.95 0 14.85.75 14.85 6.6 0 2-1.35 6.15-4.63 6.15-2.69 0-4.1-2.85-10.22-2.85-5.3 0-7.46 2.17-7.46 4.5 0 7.5 23.65 6.07 23.65 25 0 10.8-7.84 16.65-18.65 16.65-9.78 0-18-4.8-18-9.75 0-2.55 2.24-6.3 5.07-6.3 3.51 0 5.75 5.55 12.68 5.55C187.11 407.53 190.91 406.18 190.91 402.58zM210.16 412.48a3.59 3.59 0 0 1 .15-.82l13.87-45.75c.82-2.63 4.18-3.9 7.61-3.9s6.79 1.27 7.61 3.9l13.95 45.75a3.59 3.59 0 0 1 .15.82c0 2.78-4.25 4.8-7.46 4.8-1.86 0-3.36-.6-3.8-2.17l-2.54-9.38H224l-2.54 9.38c-.45 1.57-1.94 2.17-3.8 2.17C214.41 417.28 210.16 415.26 210.16 412.48zm27.08-15.75l-5.45-20.1-5.44 20.1zM268.5 417.28c-2.54 0-5.08-1.2-5.08-3.6V366c0-2.47 2.91-3.52 5.82-3.52s5.82 1.05 5.82 3.52v41.1h17c2.24 0 3.36 2.55 3.36 5.1s-1.12 5.1-3.36 5.1zM317.36 385.33h11.19c2.24 0 3.51 2.18 3.51 4.58 0 2-1.05 4.42-3.51 4.42H317.36v12.75h20c2.24 0 3.51 2.4 3.51 5.18 0 2.4-1.05 5-3.51 5H310.79c-2.53 0-5.07-1.2-5.07-3.6V366.06c0-2.4 2.54-3.6 5.07-3.6h26.56c2.46 0 3.51 2.62 3.51 5 0 2.78-1.27 5.18-3.51 5.18h-20z"/><polygon fill="#803391" points="504.5 309.25 7.5 309.25 52.5 189.25 459.5 189.25 504.5 309.25"/><path fill="#fed947" d="M257.84,217l9.47,19.19a2,2,0,0,0,1.55,1.12L290,240.39a2.06,2.06,0,0,1,1.14,3.5l-15.33,14.94a2,2,0,0,0-.59,1.82l3.62,21.09a2.06,2.06,0,0,1-3,2.17L257,274a2,2,0,0,0-1.9,0l-19,10a2.06,2.06,0,0,1-3-2.17l3.62-21.09a2,2,0,0,0-.59-1.82l-15.33-14.94a2.06,2.06,0,0,1,1.14-3.5l21.18-3.08a2,2,0,0,0,1.55-1.12L254.16,217A2,2,0,0,1,257.84,217Z"/><circle cx="338.5" cy="250" r="7.5" fill="#fff"/><circle cx="173.5" cy="250" r="7.5" fill="#fff"/></svg>