<svg xmlns="http://www.w3.org/2000/svg" data-name="Layer 1" viewBox="0 0 512 512"><text font-family="Dosis-ExtraBold,Dosis" font-size="75" font-weight="800" letter-spacing=".08em" transform="matrix(.99 0 0 1 110.34 130.57)">SP<tspan x="93.9" y="0" letter-spacing=".07em">E</tspan><tspan x="139.42" y="0" letter-spacing=".07em">CIAL</tspan></text><text font-family="Dosis-ExtraBold,Dosis" font-size="75" font-weight="800" letter-spacing=".07em" transform="matrix(.99 0 0 1 148.96 410.57)">OFFER</text><circle cx="338.5" cy="256" r="7.5"/><circle cx="173.5" cy="256" r="7.5"/><polygon fill="#fed947" points="455 7.5 455 504.5 256 444.5 63.07 504.5 60.94 330.5 59.48 210.5 57 7.5 455 7.5"/><polygon fill="#f8be32" points="63.07 489.5 60.94 315.5 59.48 195.5 57.18 7.5 57 7.5 59.48 210.5 60.94 330.5 63.07 504.5 256 444.5 455 504.5 455 489.5 256 429.5 63.07 489.5"/><path fill="#2370b5" d="M136.74 115.87c0-9.08-23.64-7.5-23.64-25.05 0-11.25 9.77-15.52 19.09-15.52 4 0 14.85.75 14.85 6.6 0 2-1.34 6.14-4.63 6.14-2.68 0-4.1-2.84-10.22-2.84-5.29 0-7.46 2.17-7.46 4.5 0 7.5 23.65 6.07 23.65 25 0 10.8-7.83 16.65-18.65 16.65-9.77 0-18-4.8-18-9.75 0-2.55 2.24-6.3 5.08-6.3 3.5 0 5.74 5.55 12.68 5.55C132.94 120.82 136.74 119.47 136.74 115.87zM159.72 79.27c0-1.87 1.72-3.52 4.33-3.52h15.44c9.85 0 17.61 4.65 17.61 17.25v.37c0 12.6-8.06 17.4-18.36 17.4h-7.38V127c0 2.4-2.91 3.6-5.82 3.6s-5.82-1.2-5.82-3.6zM171.36 86v15.82h7.38c4.18 0 6.72-2.4 6.72-7.5v-.82c0-5.1-2.54-7.5-6.72-7.5zM219.4 98.62h11.19c2.24 0 3.51 2.17 3.51 4.57 0 2-1 4.43-3.51 4.43H219.4v12.75h20c2.23 0 3.5 2.4 3.5 5.17 0 2.4-1 5-3.5 5H212.84c-2.54 0-5.08-1.2-5.08-3.6V79.35c0-2.4 2.54-3.6 5.08-3.6H239.4c2.46 0 3.5 2.62 3.5 5 0 2.78-1.27 5.18-3.5 5.18h-20zM270.8 86c-4.25 0-6.71 2.4-6.71 7.5v19.87c0 5.1 2.46 7.5 6.79 7.5 6 0 6.34-4.58 6.56-7.5s2.76-3.53 5.75-3.53c4 0 5.89 1 5.89 5.55 0 10-8.06 15.68-18.73 15.68-9.77 0-17.9-4.8-17.9-17.7V93.45c0-12.9 8.13-17.7 17.9-17.7 10.67 0 18.73 5.4 18.73 14.92 0 4.5-1.87 5.55-5.82 5.55-3.13 0-5.67-.82-5.82-3.52C277.37 90.75 277.14 86 270.8 86zM300.57 79.27c0-2.47 2.91-3.52 5.82-3.52s5.82 1 5.82 3.52V127c0 2.4-2.91 3.6-5.82 3.6s-5.82-1.2-5.82-3.6zM322.13 125.77a3.57 3.57 0 0 1 .15-.83L336.15 79.2c.82-2.63 4.18-3.9 7.61-3.9s6.79 1.27 7.61 3.9l13.95 45.74a3.57 3.57 0 0 1 .15.83c0 2.77-4.25 4.8-7.46 4.8-1.86 0-3.36-.6-3.8-2.18L351.67 119H335.93l-2.54 9.37c-.44 1.58-1.94 2.18-3.8 2.18C326.38 130.57 322.13 128.54 322.13 125.77zM349.21 110l-5.45-20.1L338.32 110zM380.47 130.57c-2.54 0-5.08-1.2-5.08-3.6V79.27c0-2.47 2.91-3.52 5.82-3.52s5.82 1 5.82 3.52v41.1h17c2.24 0 3.36 2.55 3.36 5.1s-1.12 5.1-3.36 5.1zM152.39 378.32V358.45c0-12.9 8-17.7 18.28-17.7s18.35 4.8 18.35 17.7v19.87c0 12.9-8.06 17.7-18.35 17.7S152.39 391.22 152.39 378.32zm25-19.87c0-5.18-2.54-7.5-6.71-7.5s-6.64 2.32-6.64 7.5v19.87c0 5.17 2.46 7.5 6.64 7.5s6.71-2.33 6.71-7.5zM202.07 344.35c0-2.4 2.54-3.6 5.08-3.6H233c2.46 0 3.51 2.62 3.51 5 0 2.78-1.27 5.18-3.51 5.18H213.71v12.67H225c2.23 0 3.5 2.17 3.5 4.57 0 2-1 4.43-3.5 4.43H213.71V392c0 2.4-2.91 3.6-5.82 3.6s-5.82-1.2-5.82-3.6zM246.09 344.35c0-2.4 2.53-3.6 5.07-3.6h25.89c2.46 0 3.5 2.62 3.5 5 0 2.78-1.26 5.18-3.5 5.18H257.73v12.67H269c2.24 0 3.51 2.17 3.51 4.57 0 2-1.05 4.43-3.51 4.43H257.73V392c0 2.4-2.91 3.6-5.82 3.6s-5.82-1.2-5.82-3.6zM301.74 363.62h11.19c2.24 0 3.51 2.17 3.51 4.57 0 2-1.05 4.43-3.51 4.43H301.74v12.75h20c2.24 0 3.51 2.4 3.51 5.17 0 2.4-1 5-3.51 5H295.18c-2.54 0-5.08-1.2-5.08-3.6V344.35c0-2.4 2.54-3.6 5.08-3.6h26.55c2.47 0 3.51 2.62 3.51 5 0 2.78-1.27 5.18-3.51 5.18h-20zM335.91 344.27a3.48 3.48 0 0 1 3.58-3.52h15.44c10.22 0 18.35 3.82 18.35 16 0 8.41-3.8 13.21-9 15.23l9.1 16.57a2.47 2.47 0 0 1 .37 1.35c0 2.93-3.88 6.08-7.31 6.08a4 4 0 0 1-3.73-2.18l-10.22-19.95h-4.92V392c0 2.4-2.91 3.6-5.82 3.6s-5.82-1.2-5.82-3.6zM347.55 351v13.94h7.38c4.18 0 6.72-1.72 6.72-7s-2.54-7-6.72-7z"/><polygon fill="#f8be32" points="455 195.5 455 315.5 60.94 315.5 59.48 195.5 455 195.5"/><polygon fill="#e4222e" points="504.5 300.5 7.5 300.5 37.5 240.29 7.5 180.5 504.5 180.5 474.5 240.29 504.5 300.5"/><path fill="#fed947" d="M257.84,208l9.47,19.19a2,2,0,0,0,1.55,1.12L290,231.39a2.06,2.06,0,0,1,1.14,3.5l-15.33,14.94a2,2,0,0,0-.59,1.82l3.62,21.09a2.06,2.06,0,0,1-3,2.17L257,265a2,2,0,0,0-1.9,0l-19,10a2.06,2.06,0,0,1-3-2.17l3.62-21.09a2,2,0,0,0-.59-1.82l-15.33-14.94a2.06,2.06,0,0,1,1.14-3.5l21.18-3.08a2,2,0,0,0,1.55-1.12L254.16,208A2,2,0,0,1,257.84,208Z"/><circle cx="338.5" cy="241" r="7.5" fill="#fff"/><circle cx="173.5" cy="241" r="7.5" fill="#fff"/></svg>