<svg xmlns="http://www.w3.org/2000/svg" data-name="Layer 1" viewBox="0 0 512 512"><text font-family="Dosis-ExtraBold,Dosis" font-size="75" font-weight="800" letter-spacing=".07em" transform="matrix(.99 0 0 1 248.17 148.28)">SALE</text><text font-family="Dosis-ExtraBold,Dosis" font-size="75" font-weight="800" letter-spacing=".08em" transform="matrix(.99 0 0 1 90.83 148.28)">BIG</text><text font-family="Dosis-ExtraBold,Dosis" font-size="75" font-weight="800" letter-spacing=".07em" transform="matrix(.99 0 0 1 139.96 428.57)">OFFER</text><circle cx="338.5" cy="256" r="7.5"/><circle cx="173.5" cy="256" r="7.5"/><polygon fill="#f8be32" points="7.5 176.5 39.5 206.5 90.83 191.5 79.47 166.15 7.5 176.5"/><polygon fill="#f8be32" points="7.5 339.5 39.5 309.5 52.19 298.27 101.72 360.63 7.5 339.5"/><polygon fill="#f8be32" points="504.5 339.5 472.5 309.5 458.97 296.37 427.74 345.36 492.5 347 504.5 339.5"/><polygon fill="#f8be32" points="504.5 176.5 472.5 206.5 424.53 207.14 432.53 166.15 504.5 176.5"/><path fill="#e4222e" d="M491.79,286.66,423.88,354.5l-120.13,120-17.05,17a43.44,43.44,0,0,1-61.4,0l-17.05-17L88.12,354.5,20.21,286.66a43.33,43.33,0,0,1,0-61.32L54.09,191.5l120.13-120,51.08-51a43.44,43.44,0,0,1,61.4,0l51.08,51,120.13,120,33.88,33.84A43.33,43.33,0,0,1,491.79,286.66Z"/><polygon fill="#c0232c" points="457.91 191.5 54.09 191.5 174.22 71.5 337.78 71.5 457.91 191.5"/><polygon fill="#fed947" points="504.5 176.5 7.5 176.5 67.5 56.5 444.5 56.5 504.5 176.5"/><polygon fill="#c0232c" points="423.88 354.5 303.75 474.5 208.25 474.5 88.12 354.5 423.88 354.5"/><polygon fill="#fed947" points="504.5 339.5 7.5 339.5 67.5 459.5 444.5 459.5 504.5 339.5"/><path fill="#e4222e" d="M274.58 133.58c0-9.07-23.65-7.5-23.65-25.05C250.93 97.28 260.71 93 270 93c4 0 14.85.75 14.85 6.6 0 2-1.35 6.15-4.63 6.15-2.68 0-4.1-2.85-10.22-2.85-5.3 0-7.46 2.17-7.46 4.5 0 7.5 23.65 6.07 23.65 25 0 10.8-7.83 16.65-18.65 16.65-9.77 0-18-4.8-18-9.75 0-2.55 2.24-6.3 5.07-6.3 3.51 0 5.75 5.55 12.68 5.55C270.78 138.53 274.58 137.18 274.58 133.58zM293.83 143.48a3.59 3.59 0 0 1 .15-.82l13.87-45.75c.82-2.62 4.18-3.9 7.61-3.9s6.79 1.28 7.61 3.9L337 142.66a3.59 3.59 0 0 1 .15.82c0 2.78-4.25 4.8-7.46 4.8-1.86 0-3.36-.6-3.8-2.17l-2.54-9.38H307.63l-2.54 9.38c-.44 1.57-1.94 2.17-3.8 2.17C298.08 148.28 293.83 146.26 293.83 143.48zm27.08-15.75l-5.45-20.1L310 127.73zM352.17 148.28c-2.54 0-5.08-1.2-5.08-3.6V97c0-2.47 2.91-3.52 5.82-3.52s5.82 1.05 5.82 3.52v41.1h17c2.24 0 3.36 2.55 3.36 5.1s-1.12 5.1-3.36 5.1zM401 116.33h11.19c2.24 0 3.51 2.18 3.51 4.58 0 2-1.05 4.42-3.51 4.42H401v12.75h20c2.24 0 3.51 2.4 3.51 5.18 0 2.4-1 5-3.51 5H394.47c-2.54 0-5.08-1.2-5.08-3.6V97.06c0-2.4 2.54-3.6 5.08-3.6H421c2.47 0 3.51 2.62 3.51 5 0 2.78-1.27 5.18-3.51 5.18H401zM94.86 97.06c0-2.4 2.54-3.6 5.07-3.6h15.3c7.46 0 14.92 2.7 14.92 13.35 0 6.07-2.39 10-6.35 11.77 4.55 1.73 7.69 4.5 7.69 12v1.58c0 11.85-6.57 16.12-15 16.12H99.93c-3.13 0-5.07-1.65-5.07-3.52zm11.56 17h7.84c2.83 0 4.25-2.62 4.25-5.17s-1.42-5.25-4.25-5.25h-7.84zm7.46 24c3.73 0 6-2.1 6-6.9V130c0-5.1-2.24-6.9-6-6.9h-7.46v15zM143.13 97c0-2.47 2.91-3.52 5.82-3.52s5.81 1.05 5.81 3.52v47.7c0 2.4-2.9 3.6-5.81 3.6s-5.82-1.2-5.82-3.6zM186.17 103.66c-4.25 0-6.71 2.4-6.71 7.5V131c0 5.1 2.46 7.5 6.64 7.5s6.71-2.4 6.71-7.5v-2.55h-4.4c-2.24 0-3.51-2.17-3.51-4.5 0-2.17 1.27-4.5 3.51-4.5h12.53a3.46 3.46 0 0 1 3.51 3.68V131c0 12.9-8.06 17.7-18.35 17.7s-18.28-4.8-18.28-17.7V111.16c0-12.9 8.13-17.7 17.9-17.7 10.67 0 18.73 5.4 18.73 14.92 0 4.5-1.87 5.55-5.82 5.55-3.13 0-5.75-.82-5.82-3.52S192.51 103.66 186.17 103.66zM143.39 411.32V391.45c0-12.9 8-17.7 18.28-17.7s18.35 4.8 18.35 17.7v19.87c0 12.9-8.06 17.7-18.35 17.7S143.39 424.22 143.39 411.32zm25-19.87c0-5.18-2.54-7.5-6.71-7.5s-6.64 2.32-6.64 7.5v19.87c0 5.17 2.46 7.5 6.64 7.5s6.71-2.33 6.71-7.5zM193.07 377.35c0-2.4 2.54-3.6 5.08-3.6H224c2.46 0 3.51 2.62 3.51 5 0 2.78-1.27 5.18-3.51 5.18H204.71v12.67H216c2.23 0 3.5 2.17 3.5 4.57 0 2-1 4.43-3.5 4.43H204.71V425c0 2.4-2.91 3.6-5.82 3.6s-5.82-1.2-5.82-3.6zM237.09 377.35c0-2.4 2.53-3.6 5.07-3.6h25.89c2.46 0 3.5 2.62 3.5 5 0 2.78-1.26 5.18-3.5 5.18H248.73v12.67H260c2.24 0 3.51 2.17 3.51 4.57 0 2-1.05 4.43-3.51 4.43H248.73V425c0 2.4-2.91 3.6-5.82 3.6s-5.82-1.2-5.82-3.6zM292.74 396.62h11.19c2.24 0 3.51 2.17 3.51 4.57 0 2-1.05 4.43-3.51 4.43H292.74v12.75h20c2.24 0 3.51 2.4 3.51 5.17 0 2.4-1 5-3.51 5H286.18c-2.54 0-5.08-1.2-5.08-3.6V377.35c0-2.4 2.54-3.6 5.08-3.6h26.55c2.47 0 3.51 2.62 3.51 5 0 2.78-1.27 5.18-3.51 5.18h-20zM326.91 377.27a3.48 3.48 0 0 1 3.58-3.52h15.44c10.22 0 18.35 3.82 18.35 16 0 8.41-3.8 13.21-9 15.23l9.1 16.57a2.47 2.47 0 0 1 .37 1.35c0 2.93-3.88 6.08-7.31 6.08a4 4 0 0 1-3.73-2.18l-10.22-19.95h-4.92V425c0 2.4-2.91 3.6-5.82 3.6s-5.82-1.2-5.82-3.6zM338.55 384v13.94h7.38c4.18 0 6.72-1.72 6.72-7s-2.54-7-6.72-7z"/><path fill="#fff" d="M257.84,223l9.47,19.19a2,2,0,0,0,1.55,1.12L290,246.39a2.06,2.06,0,0,1,1.14,3.5l-15.33,14.94a2,2,0,0,0-.59,1.82l3.62,21.09a2.06,2.06,0,0,1-3,2.17L257,280a2,2,0,0,0-1.9,0l-19,10a2.06,2.06,0,0,1-3-2.17l3.62-21.09a2,2,0,0,0-.59-1.82l-15.33-14.94a2.06,2.06,0,0,1,1.14-3.5l21.18-3.08a2,2,0,0,0,1.55-1.12L254.16,223A2,2,0,0,1,257.84,223Z"/><circle cx="338.5" cy="256" r="7.5" fill="#fff"/><circle cx="173.5" cy="256" r="7.5" fill="#fff"/></svg>