<svg xmlns="http://www.w3.org/2000/svg" data-name="Layer 1" viewBox="0 0 512 512"><text font-family="Dosis-ExtraBold,Dosis" font-size="75" font-weight="800" letter-spacing=".08em" transform="matrix(.99 0 0 1 104.34 131.27)">SP<tspan x="93.9" y="0" letter-spacing=".07em">E</tspan><tspan x="139.42" y="0" letter-spacing=".07em">CIAL</tspan></text><text font-family="Dosis-ExtraBold,Dosis" font-size="75" font-weight="800" letter-spacing=".07em" transform="matrix(.99 0 0 1 139.96 419.28)">OFFER</text><circle cx="338.5" cy="252" r="7.5"/><circle cx="173.5" cy="252" r="7.5"/><path fill="#672e79" d="M500.1,150.92a15,15,0,0,0-10.6-4.39H22.5a15,15,0,0,0-15,15,13.82,13.82,0,0,0,.09,1.58A15,15,0,0,0,22.5,176.53h467a15,15,0,0,0,14.91-13.42,13.82,13.82,0,0,0,.09-1.58A15,15,0,0,0,500.1,150.92Z"/><polygon fill="#fed947" points="474.79 7.5 474.79 423.95 256.62 504.5 37.21 423.95 37.21 7.5 474.79 7.5"/><rect width="437.58" height="120" x="37.21" y="191.53" fill="#f8be32"/><path fill="#803391" d="M504.5 163.11V281.53a15 15 0 0 1-15 15H22.5a15 15 0 0 1-15-15V163.11h.09A15 15 0 0 0 22.5 176.53h467a15 15 0 0 0 14.91-13.42zM133.17 116.57c0-9.07-23.65-7.5-23.65-25 0-11.25 9.77-15.53 19.1-15.53 3.95 0 14.84.75 14.84 6.6 0 2-1.34 6.15-4.62 6.15-2.69 0-4.11-2.85-10.22-2.85-5.3 0-7.46 2.18-7.46 4.5 0 7.5 23.65 6.08 23.65 25 0 10.8-7.84 16.65-18.65 16.65-9.78 0-18-4.8-18-9.75 0-2.55 2.24-6.3 5.07-6.3 3.51 0 5.74 5.55 12.68 5.55C129.36 121.52 133.17 120.17 133.17 116.57zM156.15 80c0-1.88 1.71-3.53 4.32-3.53h15.44c9.85 0 17.61 4.65 17.61 17.25v.38c0 12.59-8.06 17.39-18.35 17.39h-7.39v16.2c0 2.4-2.91 3.6-5.82 3.6s-5.81-1.2-5.81-3.6zm11.63 6.67v15.82h7.39c4.18 0 6.71-2.39 6.71-7.49v-.83c0-5.1-2.53-7.5-6.71-7.5zM215.83 99.33H227c2.23 0 3.5 2.17 3.5 4.57 0 2-1 4.42-3.5 4.42H215.83v12.75h20c2.24 0 3.51 2.4 3.51 5.18 0 2.4-1.05 5-3.51 5H209.26c-2.53 0-5.07-1.2-5.07-3.6V80.05c0-2.4 2.54-3.6 5.07-3.6h26.56c2.46 0 3.51 2.63 3.51 5 0 2.77-1.27 5.17-3.51 5.17h-20zM267.23 86.65c-4.25 0-6.72 2.4-6.72 7.5V114c0 5.1 2.47 7.5 6.79 7.5 6 0 6.34-4.57 6.57-7.5.22-2.77 2.76-3.52 5.74-3.52 4 0 5.89 1 5.89 5.55 0 10-8.05 15.67-18.72 15.67-9.77 0-17.9-4.8-17.9-17.7V94.15c0-12.9 8.13-17.7 17.9-17.7 10.67 0 18.72 5.4 18.72 14.93 0 4.5-1.86 5.54-5.81 5.54-3.14 0-5.67-.82-5.82-3.52C273.79 91.45 273.57 86.65 267.23 86.65zM297 80c0-2.48 2.91-3.53 5.82-3.53s5.82 1 5.82 3.53v47.69c0 2.4-2.91 3.6-5.82 3.6s-5.82-1.2-5.82-3.6zM318.55 126.47a4.23 4.23 0 0 1 .15-.82L332.58 79.9c.82-2.62 4.18-3.9 7.61-3.9s6.79 1.28 7.61 3.9l13.95 45.75a4.23 4.23 0 0 1 .15.82c0 2.78-4.26 4.8-7.46 4.8-1.87 0-3.36-.6-3.81-2.17l-2.53-9.38H332.35l-2.53 9.38c-.45 1.57-1.94 2.17-3.81 2.17C322.81 131.27 318.55 129.25 318.55 126.47zm27.08-15.75l-5.44-20.1-5.45 20.1zM376.89 131.27c-2.54 0-5.07-1.2-5.07-3.6V80c0-2.48 2.91-3.53 5.82-3.53s5.82 1 5.82 3.53v41.09h17c2.23 0 3.35 2.55 3.35 5.1s-1.12 5.1-3.35 5.1zM145.33 387V367.16c0-12.9 8-17.7 18.28-17.7s18.35 4.8 18.35 17.7V387c0 12.9-8.06 17.7-18.35 17.7S145.33 399.93 145.33 387zm25-19.87c0-5.18-2.54-7.5-6.71-7.5S157 362 157 367.16V387c0 5.18 2.46 7.5 6.64 7.5s6.71-2.32 6.71-7.5zM195 353.06c0-2.4 2.54-3.6 5.08-3.6H226c2.46 0 3.51 2.62 3.51 5 0 2.78-1.27 5.18-3.51 5.18H206.65v12.67h11.27c2.23 0 3.5 2.18 3.5 4.58 0 2-1 4.42-3.5 4.42H206.65v19.35c0 2.4-2.91 3.6-5.82 3.6s-5.82-1.2-5.82-3.6zM239 353.06c0-2.4 2.53-3.6 5.07-3.6H270c2.46 0 3.5 2.62 3.5 5 0 2.78-1.26 5.18-3.5 5.18H250.67v12.67h11.26c2.24 0 3.51 2.18 3.51 4.58 0 2-1.05 4.42-3.51 4.42H250.67v19.35c0 2.4-2.91 3.6-5.82 3.6s-5.82-1.2-5.82-3.6zM294.68 372.33h11.19c2.24 0 3.51 2.18 3.51 4.58 0 2-1.05 4.42-3.51 4.42H294.68v12.75h20c2.23 0 3.5 2.4 3.5 5.18 0 2.4-1 5-3.5 5H288.12c-2.54 0-5.08-1.2-5.08-3.6V353.06c0-2.4 2.54-3.6 5.08-3.6h26.56c2.46 0 3.5 2.62 3.5 5 0 2.78-1.27 5.18-3.5 5.18h-20zM328.85 353a3.48 3.48 0 0 1 3.58-3.52h15.44c10.22 0 18.35 3.82 18.35 16.05 0 8.4-3.8 13.2-9 15.22l9.1 16.58a2.45 2.45 0 0 1 .37 1.35c0 2.92-3.88 6.07-7.31 6.07a4 4 0 0 1-3.73-2.17l-10.22-19.95h-4.92v18.07c0 2.4-2.91 3.6-5.82 3.6s-5.82-1.2-5.82-3.6zm11.64 6.68v13.95h7.38c4.18 0 6.72-1.73 6.72-7s-2.54-7-6.72-7z"/><path fill="#fed947" d="M257.84,204l9.47,19.19a2,2,0,0,0,1.55,1.12L290,227.39a2.06,2.06,0,0,1,1.14,3.5l-15.33,14.94a2,2,0,0,0-.59,1.82l3.62,21.09a2.06,2.06,0,0,1-3,2.17L257,261a2,2,0,0,0-1.9,0l-19,10a2.06,2.06,0,0,1-3-2.17l3.62-21.09a2,2,0,0,0-.59-1.82l-15.33-14.94a2.06,2.06,0,0,1,1.14-3.5l21.18-3.08a2,2,0,0,0,1.55-1.12L254.16,204A2,2,0,0,1,257.84,204Z"/><circle cx="338.5" cy="237" r="7.5" fill="#fff"/><circle cx="173.5" cy="237" r="7.5" fill="#fff"/></svg>