<svg xmlns="http://www.w3.org/2000/svg" data-name="Layer 1" viewBox="0 0 512 512"><text font-family="Dosis-ExtraBold,Dosis" font-size="75" font-weight="800" letter-spacing=".07em" transform="matrix(.99 0 0 1 154.96 398.57)">OFFER</text><text font-family="Dosis-ExtraBold,Dosis" font-size="75" font-weight="800" letter-spacing=".07em" transform="matrix(.99 0 0 1 94.34 171.57)">SP<tspan x="93.9" y="0">E</tspan><tspan x="139.42" y="0">CIAL</tspan></text><circle cx="417" cy="375" r="7.5"/><circle cx="117" cy="375" r="7.5"/><circle cx="406" cy="143.85" r="7.5"/><circle cx="76" cy="143.85" r="7.5"/><polygon fill="#e4222e" points="7.5 218.47 444.5 218.47 444.5 68.42 7.5 68.42 41.62 142.88 7.5 218.47"/><polygon fill="#e4222e" points="504.5 443.58 67.5 443.58 67.5 293.53 504.5 293.53 470.38 367.98 504.5 443.58"/><polygon fill="#c0232c" points="67.5 293.53 172.69 218.47 444.5 218.47 339.45 293.53 67.5 293.53"/><path fill="#fff" d="M158.39 381.32V361.44c0-12.89 8-17.69 18.28-17.69S195 348.55 195 361.44v19.88c0 12.9-8.06 17.7-18.35 17.7S158.39 394.22 158.39 381.32zm25-19.88c0-5.17-2.54-7.49-6.71-7.49s-6.64 2.32-6.64 7.49v19.88c0 5.17 2.46 7.5 6.64 7.5s6.71-2.33 6.71-7.5zM208.07 347.35c0-2.4 2.54-3.6 5.08-3.6H239c2.46 0 3.51 2.62 3.51 5 0 2.78-1.27 5.18-3.51 5.18H219.71v12.67H231c2.24 0 3.51 2.17 3.51 4.57 0 2-1 4.43-3.51 4.43H219.71V395c0 2.4-2.91 3.6-5.82 3.6s-5.82-1.2-5.82-3.6zM252.09 347.35c0-2.4 2.53-3.6 5.07-3.6h25.89c2.46 0 3.5 2.62 3.5 5 0 2.78-1.26 5.18-3.5 5.18H263.73v12.67H275c2.24 0 3.51 2.17 3.51 4.57 0 2-1.05 4.43-3.51 4.43H263.73V395c0 2.4-2.91 3.6-5.82 3.6s-5.82-1.2-5.82-3.6zM307.74 366.62h11.19c2.24 0 3.51 2.17 3.51 4.57 0 2-1.05 4.43-3.51 4.43H307.74v12.75h20c2.24 0 3.51 2.4 3.51 5.17 0 2.4-1 5-3.51 5H301.18c-2.54 0-5.08-1.2-5.08-3.6V347.35c0-2.4 2.54-3.6 5.08-3.6h26.55c2.47 0 3.51 2.62 3.51 5 0 2.78-1.27 5.18-3.51 5.18h-20zM341.91 347.27a3.48 3.48 0 0 1 3.58-3.52h15.44c10.22 0 18.35 3.82 18.35 16 0 8.4-3.8 13.2-9 15.23l9.1 16.57a2.47 2.47 0 0 1 .37 1.35c0 2.93-3.88 6.08-7.31 6.08a4 4 0 0 1-3.73-2.18l-10.22-19.95h-4.92V395c0 2.4-2.91 3.6-5.82 3.6s-5.82-1.2-5.82-3.6zM353.55 354v13.94h7.38c4.18 0 6.72-1.72 6.72-7s-2.54-7-6.72-7zM120.74 156.87c0-9.08-23.65-7.5-23.65-25.05 0-11.25 9.78-15.52 19.1-15.52 4 0 14.85.75 14.85 6.6 0 2-1.34 6.15-4.63 6.15-2.68 0-4.1-2.85-10.22-2.85-5.29 0-7.46 2.17-7.46 4.5 0 7.5 23.65 6.07 23.65 25 0 10.8-7.83 16.65-18.65 16.65-9.77 0-18-4.8-18-9.75 0-2.55 2.24-6.3 5.08-6.3 3.5 0 5.74 5.55 12.68 5.55C116.94 161.82 120.74 160.47 120.74 156.87zM143.72 120.27c0-1.87 1.72-3.52 4.33-3.52h15.44c9.85 0 17.61 4.65 17.61 17.25v.37c0 12.6-8.06 17.4-18.36 17.4h-7.38V168c0 2.4-2.91 3.6-5.82 3.6s-5.82-1.2-5.82-3.6zM155.36 127v15.82h7.38c4.18 0 6.72-2.4 6.72-7.5v-.82c0-5.1-2.54-7.5-6.72-7.5zM203.4 139.62h11.19c2.24 0 3.51 2.17 3.51 4.57 0 2-1 4.43-3.51 4.43H203.4v12.75h20c2.24 0 3.51 2.4 3.51 5.17 0 2.4-1 5-3.51 5H196.84c-2.54 0-5.08-1.2-5.08-3.6V120.35c0-2.4 2.54-3.6 5.08-3.6h26.55c2.47 0 3.51 2.62 3.51 5 0 2.78-1.27 5.18-3.51 5.18h-20zM254.8 127c-4.25 0-6.71 2.4-6.71 7.5v19.87c0 5.1 2.46 7.5 6.79 7.5 6 0 6.34-4.58 6.56-7.5s2.76-3.53 5.75-3.53c4 0 5.89 1.05 5.89 5.55 0 10-8.06 15.68-18.73 15.68-9.77 0-17.9-4.8-17.9-17.7V134.45c0-12.9 8.13-17.7 17.9-17.7 10.67 0 18.73 5.4 18.73 14.92 0 4.5-1.87 5.55-5.82 5.55-3.13 0-5.67-.82-5.82-3.52C261.37 131.75 261.14 127 254.8 127zM284.57 120.27c0-2.47 2.91-3.52 5.82-3.52s5.82 1 5.82 3.52V168c0 2.4-2.91 3.6-5.82 3.6s-5.82-1.2-5.82-3.6zM306.13 166.77a3.57 3.57 0 0 1 .15-.83l13.87-45.74c.82-2.63 4.18-3.9 7.61-3.9s6.79 1.27 7.61 3.9l13.95 45.74a3.57 3.57 0 0 1 .15.83c0 2.77-4.25 4.8-7.46 4.8-1.86 0-3.36-.6-3.8-2.18L335.67 160H319.93l-2.54 9.37c-.44 1.58-1.94 2.18-3.8 2.18C310.38 171.57 306.13 169.54 306.13 166.77zM333.21 151l-5.45-20.1L322.32 151zM364.47 171.57c-2.54 0-5.08-1.2-5.08-3.6v-47.7c0-2.47 2.91-3.52 5.82-3.52s5.82 1 5.82 3.52v41.1h17c2.24 0 3.36 2.55 3.36 5.1s-1.12 5.1-3.36 5.1z"/><circle cx="417" cy="375" r="7.5" fill="#fff"/><circle cx="117" cy="375" r="7.5" fill="#fff"/><circle cx="406" cy="143.85" r="7.5" fill="#fff"/><circle cx="76" cy="143.85" r="7.5" fill="#fff"/></svg>