<svg xmlns="http://www.w3.org/2000/svg" data-name="Layer 1" viewBox="0 0 512 512"><text font-family="Dosis-ExtraBold,Dosis" font-size="75" font-weight="800" letter-spacing=".08em" transform="rotate(-9.99 1057.346 -624.227) scale(.99 1)">SUPER</text><text font-family="Dosis-ExtraBold,Dosis" font-size="75" font-weight="800" letter-spacing=".08em" transform="rotate(-9.99 2248.86 -776.55) scale(.99 1)">OFFER</text><circle cx="321.92" cy="213.19" r="7.5"/><circle cx="190.08" cy="242.22" r="7.5"/><polygon fill="#144e92" points="7.5 221.53 76.54 268.69 102.36 253.54 86.88 184.05 16.59 204.5 7.5 221.53"/><polygon fill="#144e92" points="504.5 236.05 439.09 191.37 423.05 180.49 434.27 256 504.5 236.05"/><polygon fill="#e4222e" points="436.97 7.5 436.97 504.5 252.97 429.5 75.03 504.5 75.36 439.74 75.91 328.63 76.44 224.05 76.99 115.43 77.53 7.5 436.97 7.5"/><polygon fill="#c0232c" points="436.97 47.77 436.97 158.79 76.44 224.05 76.99 115.43 436.97 47.77"/><polygon fill="#1067ae" points="480.64 135.88 7.5 221.53 7.5 113.48 480.64 24.57 440 87 480.64 135.88"/><path fill="#fff" d="M147.77 154.9c-1.57-8.93-24.59-3.28-27.63-20.56-2-11.08 6.93-17 16.11-18.6 3.9-.69 14.75-1.84 15.77 3.92.35 2-.26 6.29-3.49 6.86-2.64.46-4.54-2.1-10.56-1-5.22.91-7 3.43-6.57 5.72 1.31 7.39 24.35 1.88 27.63 20.49 1.87 10.64-4.83 17.76-15.48 19.64-9.62 1.69-18.54-1.61-19.4-6.49-.44-2.51 1.11-6.59 3.91-7.08 3.45-.61 6.61 4.47 13.45 3.26C144.89 160.44 148.4 158.45 147.77 154.9zM189.4 110.41c-.43-2.44 2.18-4 5.12-4.48 2.79-.5 5.91 0 6.34 2.46l5.91 33.53c2.24 12.7-5.08 18.87-15.44 20.69s-19.35-1.46-21.59-14.16l-5.91-33.54c-.43-2.44 2.18-4 5.12-4.48s5.91 0 6.34 2.46l5.91 33.53c.89 5 4 6.92 8.36 6.15s6.63-3.61 5.75-8.63zM214.09 106.06c-.33-1.85 1.07-3.77 3.64-4.23l15.21-2.67c9.7-1.71 18.15 1.52 20.33 13.93l.07.37c2.19 12.41-4.91 18.53-15.05 20.32L231 135.06 233.82 151c.42 2.37-2.24 4.05-5.1 4.56s-5.94-.18-6.36-2.54zm12.61 4.55l2.75 15.59 7.27-1.29c4.12-.72 6.2-3.53 5.31-8.55l-.14-.81c-.88-5-3.8-7-7.91-6.22zM276.22 114.76l11-2c2.2-.39 3.83 1.54 4.24 3.9.36 2-.26 4.54-2.68 5l-11 1.94L280 136.18l19.69-3.47c2.21-.39 3.87 1.75 4.35 4.48.42 2.37-.15 5.13-2.58 5.56l-26.15 4.61c-2.5.44-5.21-.3-5.62-2.67l-8.27-46.9c-.41-2.36 1.88-4 4.37-4.42l26.16-4.61c2.42-.43 3.91 2 4.32 4.34.48 2.73-.35 5.32-2.55 5.7L274 102.27zM306.51 89.77a3.47 3.47 0 0 1 2.91-4.09L324.63 83c10.07-1.78 18.74.58 20.86 12.62 1.46 8.27-1.46 13.66-6.25 16.56l11.84 14.74a2.46 2.46 0 0 1 .6 1.27c.51 2.88-2.76 6.65-6.14 7.25a4 4 0 0 1-4.05-1.5L328 116.07l-4.85.86 3.14 17.8c.41 2.36-2.24 4.05-5.11 4.55s-5.94-.17-6.35-2.53zm12.62 4.55l2.42 13.74 7.27-1.28c4.12-.72 6.32-2.86 5.41-8s-3.71-6.43-7.83-5.71z"/><polygon fill="#c0232c" points="436.97 263.27 436.97 371.78 75.36 439.74 75.91 328.63 436.97 263.27"/><polygon fill="#1067ae" points="31.36 321.69 504.5 236.05 504.5 344.09 31.36 433.01 72 370.57 31.36 321.69"/><path fill="#fff" d="M169.19 360.77l-3.45-19.58c-2.23-12.7 4.79-18.81 14.93-20.6s18.91 1.54 21.15 14.25l3.45 19.57c2.24 12.7-4.87 18.83-15 20.62S171.43 373.47 169.19 360.77zm21.17-23.91c-.9-5.1-3.8-6.95-7.92-6.23s-6.13 3.45-5.23 8.54l3.44 19.58c.9 5.09 3.73 7 7.84 6.23s6.21-3.45 5.32-8.55zM212.23 318.68c-.42-2.36 1.87-4 4.37-4.42l25.49-4.49c2.43-.43 3.91 2 4.33 4.34.48 2.73-.35 5.31-2.56 5.7l-19 3.36 2.2 12.48 11.1-2c2.2-.39 3.83 1.54 4.25 3.9.35 2-.27 4.54-2.69 5l-11.09 1.95L232 363.57c.42 2.36-2.24 4.05-5.1 4.55s-5.94-.17-6.36-2.53zM255.58 311.05c-.42-2.37 1.87-4 4.37-4.43l25.49-4.49c2.43-.43 3.91 2 4.33 4.34.48 2.73-.35 5.32-2.56 5.7l-19 3.36 2.2 12.48 11.1-2c2.2-.38 3.83 1.54 4.24 3.9.35 2-.26 4.54-2.68 5l-11.1 1.95 3.36 19.06c.42 2.36-2.24 4.05-5.1 4.55s-5.94-.17-6.36-2.53zM313.73 320.37l11-1.94c2.2-.39 3.83 1.53 4.25 3.9.35 2-.26 4.53-2.69 5l-11 1.94 2.21 12.56 19.69-3.47c2.21-.39 3.87 1.75 4.35 4.49.42 2.36-.15 5.13-2.58 5.56L312.81 353c-2.5.44-5.21-.3-5.62-2.66l-8.27-46.9c-.41-2.37 1.88-4 4.37-4.43l26.16-4.61c2.42-.42 3.91 2 4.32 4.34.49 2.74-.35 5.32-2.55 5.71l-19.69 3.47zM344 295.38a3.49 3.49 0 0 1 2.92-4.09l15.2-2.68c10.07-1.77 18.74.58 20.86 12.62 1.46 8.28-1.45 13.66-6.25 16.56l11.84 14.75a2.45 2.45 0 0 1 .61 1.26c.5 2.88-2.77 6.66-6.15 7.25a4 4 0 0 1-4.05-1.49l-13.53-17.87-4.85.85 3.14 17.8c.42 2.36-2.24 4.05-5.11 4.56s-5.93-.18-6.35-2.54zm12.62 4.56l2.42 13.74 7.27-1.28c4.12-.73 6.32-2.87 5.41-8s-3.71-6.43-7.83-5.7z"/><circle cx="321.92" cy="213.19" r="7.5" fill="#fed947"/><circle cx="190.08" cy="242.22" r="7.5" fill="#fed947"/><circle cx="256.87" cy="227" r="22.5" fill="#fff"/></svg>