<svg xmlns="http://www.w3.org/2000/svg" data-name="Layer 1" viewBox="0 0 512 512"><text font-family="Dosis-ExtraBold,Dosis" font-size="75" font-weight="800" letter-spacing=".08em" transform="rotate(-9.99 1278.515 -714.422) scale(.99 1)">SUPER</text><text font-family="Dosis-ExtraBold,Dosis" font-size="75" font-weight="800" letter-spacing=".07em" transform="rotate(-9.99 2367.874 -836.301) scale(.99 1)">SALE</text><polygon fill="#f8be32" points="451.98 267.4 404.5 234.5 393.72 226.32 397.15 299.39 451.98 267.4"/><polygon fill="#f8be32" points="60.02 251.8 106.5 283.5 122.23 294.06 137.21 241.54 103.72 231.65 60.02 251.8"/><polygon fill="#e4222e" points="402.5 58.5 402.5 453.5 256 504.5 112.67 454.6 109.5 453.5 109.5 58.5 256 7.5 402.5 58.5"/><polygon fill="#c0232c" points="402.5 94 402.5 204.42 109.5 257.46 109.5 149.08 402.5 94"/><polygon fill="#fed947" points="467.58 177.64 59.42 251.53 59.42 143.49 452.58 69.59 422.58 131 467.58 177.64"/><polygon fill="#c0232c" points="402.5 291.74 402.5 400.13 112.67 454.6 109.5 453.5 109.5 344.78 402.5 291.74"/><polygon fill="#fed947" points="452.58 375.72 59.42 449.61 89.5 392 44.42 341.56 452.58 267.67 452.58 375.72"/><path fill="#e4222e" d="M166.78 191.9c-1.58-8.93-24.6-3.28-27.64-20.56-1.95-11.08 6.93-17 16.11-18.6 3.9-.69 14.75-1.84 15.77 3.92.35 2-.26 6.29-3.49 6.86-2.64.46-4.53-2.1-10.56-1-5.22.91-7 3.43-6.57 5.72 1.31 7.39 24.35 1.88 27.63 20.49 1.87 10.64-4.83 17.76-15.48 19.64-9.62 1.69-18.54-1.61-19.4-6.49-.44-2.51 1.11-6.59 3.91-7.08 3.45-.61 6.61 4.47 13.45 3.26C163.89 197.44 167.4 195.45 166.78 191.9zM208.4 147.41c-.43-2.44 2.18-4 5.12-4.48 2.79-.5 5.91 0 6.34 2.46l5.91 33.53c2.24 12.7-5.08 18.87-15.44 20.69s-19.35-1.46-21.59-14.16l-5.91-33.54c-.43-2.44 2.18-4 5.12-4.48s5.91 0 6.34 2.46l5.91 33.53c.89 5 4 6.92 8.36 6.15s6.63-3.61 5.75-8.63zM233.09 143.06c-.33-1.85 1.07-3.77 3.65-4.23l15.2-2.68c9.7-1.7 18.15 1.53 20.34 13.94l.06.37c2.19 12.41-4.91 18.53-15 20.32L250 172.06 252.82 188c.42 2.37-2.24 4.05-5.1 4.56s-5.94-.18-6.36-2.54zm12.62 4.55l2.74 15.59 7.27-1.29c4.12-.72 6.2-3.53 5.32-8.55l-.15-.81c-.88-5-3.8-7-7.91-6.22zM295.22 151.76l11-1.95c2.2-.39 3.83 1.54 4.25 3.9.35 2-.27 4.54-2.69 5l-11 1.94L299 173.18l19.69-3.47c2.21-.39 3.87 1.75 4.35 4.48.42 2.37-.15 5.13-2.58 5.56l-26.15 4.61c-2.5.44-5.21-.3-5.62-2.67l-8.27-46.9c-.41-2.36 1.88-4 4.37-4.42l26.16-4.61c2.42-.43 3.91 2 4.32 4.34.49 2.73-.35 5.32-2.55 5.7L293 139.27zM325.51 126.77a3.47 3.47 0 0 1 2.91-4.09L343.63 120c10.07-1.78 18.74.58 20.86 12.62 1.46 8.27-1.45 13.66-6.25 16.56l11.84 14.74a2.38 2.38 0 0 1 .6 1.27c.51 2.88-2.76 6.65-6.14 7.25a4 4 0 0 1-4.05-1.5L347 153.07l-4.85.86 3.14 17.8c.42 2.36-2.24 4.05-5.11 4.55s-5.94-.17-6.35-2.53zm12.62 4.55l2.42 13.74 7.27-1.28c4.12-.72 6.32-2.86 5.41-8s-3.71-6.43-7.83-5.71zM204.44 379c-1.58-8.94-24.59-3.28-27.64-20.57-2-11.07 6.93-17 16.11-18.6 3.9-.68 14.75-1.84 15.77 3.93.35 2-.26 6.29-3.49 6.85-2.64.47-4.53-2.09-10.56-1-5.21.92-7 3.44-6.56 5.73 1.3 7.38 24.34 1.88 27.62 20.49 1.87 10.63-4.82 17.75-15.48 19.63-9.62 1.7-18.54-1.6-19.4-6.48-.44-2.51 1.11-6.59 3.91-7.08 3.45-.61 6.62 4.46 13.45 3.26C201.55 384.57 205.06 382.58 204.44 379zM225.11 385.44a3.91 3.91 0 0 1 0-.84l5.73-47.46c.35-2.73 3.44-4.57 6.82-5.16s6.9.08 8.17 2.52l21.68 42.63a3.61 3.61 0 0 1 .28.79c.49 2.73-3.35 5.46-6.51 6-1.83.32-3.41 0-4.12-1.48L253 373.67l-15.5 2.73-.87 9.67c-.17 1.63-1.53 2.48-3.37 2.8C230.13 389.43 225.59 388.17 225.11 385.44zm23.94-20.21l-8.85-18.85-1.88 20.74zM283.4 380c-2.5.44-5.21-.3-5.62-2.66l-8.28-47c-.43-2.43 2.25-4 5.12-4.48s5.91 0 6.34 2.46l7.13 40.48 16.75-2.95c2.21-.39 3.75 1.92 4.19 4.44s-.21 5.21-2.42 5.6zM326 340.1l11-1.94c2.21-.39 3.83 1.53 4.25 3.89.35 2-.26 4.54-2.68 5l-11 1.94 2.21 12.56 19.69-3.47c2.2-.39 3.87 1.75 4.35 4.49.42 2.36-.16 5.13-2.58 5.55l-26.16 4.61c-2.5.44-5.2-.3-5.62-2.66l-8.26-46.9c-.42-2.37 1.87-4 4.37-4.43l26.16-4.61c2.42-.43 3.9 2 4.32 4.34.48 2.73-.35 5.32-2.56 5.71l-19.69 3.47z"/></svg>