<svg xmlns="http://www.w3.org/2000/svg" data-name="Layer 1" viewBox="0 0 512 512"><text font-family="Dosis-ExtraBold,Dosis" font-size="75" font-weight="800" letter-spacing=".08em" transform="matrix(.99 0 0 1 136.41 146.57)">SUPER</text><text font-family="Dosis-ExtraBold,Dosis" font-size="75" font-weight="800" letter-spacing=".07em" transform="matrix(.99 0 0 1 164.5 432.28)">SALE</text><polygon fill="#144e92" points="7.5 182.59 79.5 119.62 108.66 190.17 7.5 182.59"/><polygon fill="#144e92" points="504.5 332.59 435.34 391.67 423.75 401.68 420.6 326.62 504.5 332.59"/><polygon fill="#e4222e" points="432.5 51 432.5 431 256.5 504.5 79.5 431 79.5 51 432.5 51"/><path fill="#fff" d="M162.82 131.87c0-9.08-23.65-7.5-23.65-25.05 0-11.25 9.78-15.52 19.1-15.52 4 0 14.85.75 14.85 6.6 0 2-1.35 6.14-4.63 6.14-2.68 0-4.1-2.84-10.22-2.84-5.29 0-7.46 2.17-7.46 4.49 0 7.5 23.65 6.08 23.65 25 0 10.8-7.83 16.65-18.65 16.65-9.77 0-18-4.8-18-9.75 0-2.55 2.24-6.3 5.07-6.3 3.51 0 5.75 5.55 12.69 5.55C159 136.82 162.82 135.47 162.82 131.87zM211.54 95.27c0-2.47 2.83-3.52 5.82-3.52 2.83 0 5.81 1 5.81 3.52v34.05c0 12.9-8.28 17.7-18.79 17.7s-18.8-4.8-18.8-17.7v-34c0-2.47 2.83-3.52 5.82-3.52 2.83 0 5.81 1 5.81 3.52v34.05c0 5.1 2.69 7.5 7.17 7.5s7.16-2.4 7.16-7.5zM236.6 95.27c0-1.87 1.72-3.52 4.33-3.52h15.44C266.22 91.75 274 96.4 274 109v.37c0 12.6-8.06 17.4-18.35 17.4h-7.39V143c0 2.4-2.91 3.6-5.82 3.6s-5.82-1.2-5.82-3.6zM248.24 102v15.82h7.39c4.17 0 6.71-2.4 6.71-7.5v-.83c0-5.09-2.54-7.49-6.71-7.49zM296.28 114.62h11.19c2.24 0 3.51 2.17 3.51 4.57 0 2-1 4.43-3.51 4.43H296.28v12.75h20c2.23 0 3.5 2.4 3.5 5.17 0 2.4-1 5-3.5 5H289.72c-2.54 0-5.07-1.2-5.07-3.6V95.35c0-2.4 2.53-3.6 5.07-3.6h26.56c2.46 0 3.5 2.62 3.5 5 0 2.78-1.27 5.18-3.5 5.18h-20zM330.45 95.27A3.48 3.48 0 0 1 334 91.75h15.44c10.22 0 18.36 3.82 18.36 16 0 8.4-3.81 13.2-9 15.23l9.1 16.57a2.47 2.47 0 0 1 .37 1.35c0 2.93-3.88 6.08-7.31 6.08a4 4 0 0 1-3.73-2.18l-10.22-20h-4.92V143c0 2.4-2.91 3.6-5.82 3.6s-5.82-1.2-5.82-3.6zM342.09 102v13.94h7.38c4.18 0 6.72-1.72 6.72-7s-2.54-7-6.72-7zM190.91 417.58c0-9.07-23.65-7.5-23.65-25.05 0-11.25 9.77-15.52 19.1-15.52 3.95 0 14.84.75 14.84 6.6 0 2-1.34 6.15-4.62 6.15-2.69 0-4.1-2.85-10.22-2.85-5.3 0-7.46 2.17-7.46 4.5 0 7.5 23.65 6.07 23.65 25 0 10.8-7.84 16.65-18.65 16.65-9.78 0-18-4.8-18-9.75 0-2.55 2.24-6.3 5.07-6.3 3.51 0 5.75 5.55 12.68 5.55C187.1 422.53 190.91 421.18 190.91 417.58zM210.16 427.48a3.59 3.59 0 0 1 .15-.82l13.87-45.75c.82-2.63 4.18-3.9 7.61-3.9s6.79 1.27 7.61 3.9l13.95 45.75a3.59 3.59 0 0 1 .15.82c0 2.78-4.25 4.8-7.46 4.8-1.86 0-3.36-.6-3.8-2.17l-2.54-9.38H224l-2.54 9.38c-.45 1.57-1.94 2.17-3.8 2.17C214.41 432.28 210.16 430.26 210.16 427.48zm27.08-15.75l-5.45-20.1-5.44 20.1zM268.5 432.28c-2.54 0-5.08-1.2-5.08-3.6V381c0-2.47 2.91-3.52 5.82-3.52s5.82 1.05 5.82 3.52v41.1h17c2.24 0 3.36 2.55 3.36 5.1s-1.12 5.1-3.36 5.1zM317.36 400.33h11.19c2.24 0 3.51 2.18 3.51 4.58 0 2-1.05 4.42-3.51 4.42H317.36v12.75h20c2.24 0 3.51 2.4 3.51 5.18 0 2.4-1.05 5-3.51 5H310.79c-2.53 0-5.07-1.2-5.07-3.6V381.06c0-2.4 2.54-3.6 5.07-3.6h26.56c2.46 0 3.51 2.62 3.51 5 0 2.78-1.27 5.18-3.51 5.18h-20z"/><rect width="353" height="150" x="79.5" y="197.59" fill="#c0232c"/><rect width="497" height="150" x="7.5" y="182.59" fill="#1067ae"/><path fill="#fed947" d="M135.14 224l9.47 19.19a2 2 0 0 0 1.54 1.12l21.19 3.08a2.05 2.05 0 0 1 1.13 3.5l-15.32 14.94a2 2 0 0 0-.59 1.82l3.61 21.09a2.05 2.05 0 0 1-3 2.17l-18.95-10a2 2 0 0 0-1.91 0l-18.94 10a2.06 2.06 0 0 1-3-2.17L114 267.65a2.08 2.08 0 0 0-.59-1.82L98.12 250.89a2.05 2.05 0 0 1 1.14-3.5l21.18-3.08a2 2 0 0 0 1.55-1.12L131.46 224A2 2 0 0 1 135.14 224zM257.84 224l9.47 19.19a2 2 0 0 0 1.55 1.12L290 247.39a2.06 2.06 0 0 1 1.14 3.5l-15.33 14.94a2 2 0 0 0-.59 1.82l3.62 21.09a2.06 2.06 0 0 1-3 2.17L257 281a2 2 0 0 0-1.9 0l-19 10a2.06 2.06 0 0 1-3-2.17l3.62-21.09a2 2 0 0 0-.59-1.82l-15.33-14.94a2.06 2.06 0 0 1 1.14-3.5l21.18-3.08a2 2 0 0 0 1.55-1.12L254.16 224A2 2 0 0 1 257.84 224zM380.54 224L390 243.19a2 2 0 0 0 1.55 1.12l21.18 3.08a2.05 2.05 0 0 1 1.14 3.5l-15.33 14.94a2.08 2.08 0 0 0-.59 1.82l3.62 21.09a2.06 2.06 0 0 1-3 2.17l-18.94-10a2 2 0 0 0-1.91 0l-18.95 10a2.05 2.05 0 0 1-3-2.17l3.61-21.09a2 2 0 0 0-.59-1.82l-15.32-14.94a2.05 2.05 0 0 1 1.13-3.5l21.19-3.08a2 2 0 0 0 1.54-1.12L376.86 224A2 2 0 0 1 380.54 224z"/></svg>