<svg xmlns="http://www.w3.org/2000/svg" data-name="Layer 1" viewBox="0 0 512 512"><ellipse cx="256" cy="256" fill="#fff" rx="248.5" ry="247.06"/><ellipse cx="256" cy="256" fill="#fff" rx="551.61" ry="181.02"/><text font-family="Dosis-ExtraBold,Dosis" font-size="75" font-weight="800" letter-spacing=".08em" transform="matrix(.99 0 0 1 136.41 204.69)">SUPER</text><text font-family="Dosis-ExtraBold,Dosis" font-size="75" font-weight="800" letter-spacing=".07em" transform="matrix(.99 0 0 1 166.59 298.44)">SALE</text><path fill="#fff" d="M469.44,503.43A695,695,0,0,0,42.12,504.5q5-31.44,12.52-62.9-22.77-23-47.71-44.83a808.31,808.31,0,0,1,497,1.07Q479.21,419,456.57,441.6,464.19,472.56,469.44,503.43Z"/><circle cx="323.5" cy="416.58" r="7.5"/><circle cx="383.5" cy="431.58" r="7.5"/><circle cx="188.5" cy="416.58" r="7.5"/><circle cx="128.5" cy="431.58" r="7.5"/><path fill="#2370b5" d="M504.5,256c-41,0-248.5,161.26-248.5,202.06C256,417.26,48.54,256,7.5,256,48.54,256,256,49.74,256,8.94,256,49.74,463.46,256,504.5,256Z"/><path fill="#fed947" d="M504.5,256c-41,0-248.5,161.26-248.5,202.06C256,417.26,48.54,256,7.5,256,48.54,256,256,49.74,256,8.94,256,49.74,463.46,256,504.5,256Z"/><ellipse cx="256" cy="256" fill="#fed947" rx="551.61" ry="181.02"/><path fill="#2370b5" d="M429.29,362.45c3.89,43.17,10.42,76.2,19.59,85.32C417,416.1,95,416.1,63.12,447.77c9.24-9.19,15.8-42.66,19.68-86.32C92.29,254.6,85.73,86.71,63.12,64.23,95,95.9,417,95.9,448.88,64.23,426.2,86.78,419.67,255.65,429.29,362.45Z"/><path fill="#fff" d="M162.82 190c0-9.07-23.65-7.5-23.65-25.05 0-11.25 9.78-15.52 19.1-15.52 3.95 0 14.85.75 14.85 6.6 0 2-1.35 6.15-4.63 6.15-2.68 0-4.1-2.85-10.22-2.85-5.3 0-7.46 2.17-7.46 4.5 0 7.5 23.65 6.07 23.65 25 0 10.8-7.83 16.65-18.65 16.65-9.77 0-18-4.8-18-9.75 0-2.55 2.24-6.3 5.07-6.3 3.51 0 5.75 5.55 12.69 5.55C159 194.94 162.82 193.59 162.82 190zM211.54 153.4c0-2.48 2.83-3.53 5.82-3.53 2.83 0 5.81 1 5.81 3.53v34c0 12.9-8.28 17.7-18.79 17.7s-18.8-4.8-18.8-17.7v-34c0-2.48 2.83-3.53 5.81-3.53s5.82 1 5.82 3.53v34c0 5.1 2.69 7.5 7.17 7.5s7.16-2.4 7.16-7.5zM236.6 153.4c0-1.88 1.72-3.53 4.33-3.53h15.44c9.85 0 17.61 4.65 17.61 17.25v.37c0 12.6-8.06 17.4-18.35 17.4h-7.39v16.2c0 2.4-2.91 3.6-5.82 3.6s-5.82-1.2-5.82-3.6zm11.64 6.67v15.82h7.39c4.17 0 6.71-2.4 6.71-7.5v-.82c0-5.1-2.54-7.5-6.71-7.5zM296.28 172.74h11.19c2.24 0 3.51 2.18 3.51 4.58 0 2-1 4.42-3.51 4.42H296.28v12.75h20c2.23 0 3.5 2.4 3.5 5.18 0 2.4-1 5-3.5 5H289.72c-2.54 0-5.07-1.2-5.07-3.6V153.47c0-2.4 2.53-3.6 5.07-3.6h26.56c2.46 0 3.5 2.63 3.5 5 0 2.77-1.27 5.17-3.5 5.17h-20zM330.45 153.4a3.48 3.48 0 0 1 3.58-3.53h15.44c10.22 0 18.36 3.82 18.36 16 0 8.4-3.81 13.2-9 15.22l9.1 16.58a2.45 2.45 0 0 1 .37 1.35c0 2.92-3.88 6.07-7.31 6.07a4 4 0 0 1-3.73-2.17L347 183h-4.92v18.07c0 2.4-2.91 3.6-5.82 3.6s-5.82-1.2-5.82-3.6zm11.64 6.67v14h7.38c4.18 0 6.72-1.73 6.72-7s-2.54-7-6.72-7zM193 283.75c0-9.08-23.65-7.5-23.65-25.05 0-11.25 9.77-15.53 19.1-15.53 4 0 14.84.75 14.84 6.6 0 2-1.34 6.15-4.62 6.15-2.69 0-4.1-2.85-10.22-2.85-5.3 0-7.46 2.18-7.46 4.5 0 7.5 23.65 6.08 23.65 25 0 10.8-7.84 16.65-18.65 16.65-9.78 0-18-4.8-18-9.74 0-2.55 2.24-6.3 5.07-6.3 3.51 0 5.75 5.55 12.68 5.55C189.2 288.7 193 287.34 193 283.75zM212.25 293.64a3.59 3.59 0 0 1 .15-.82l13.87-45.75c.82-2.62 4.18-3.9 7.61-3.9s6.79 1.28 7.61 3.9l13.95 45.75a3.59 3.59 0 0 1 .15.82c0 2.78-4.25 4.8-7.46 4.8-1.86 0-3.36-.6-3.8-2.17l-2.54-9.37H226.05l-2.54 9.37c-.45 1.57-1.94 2.17-3.8 2.17C216.5 298.44 212.25 296.42 212.25 293.64zm27.08-15.74l-5.45-20.1-5.44 20.1zM270.59 298.44c-2.54 0-5.08-1.19-5.08-3.6V247.15c0-2.48 2.91-3.53 5.82-3.53s5.82 1 5.82 3.53v41.1h17c2.24 0 3.36 2.54 3.36 5.09s-1.12 5.1-3.36 5.1zM319.45 266.5h11.19c2.24 0 3.51 2.17 3.51 4.57 0 2-1 4.43-3.51 4.43H319.45v12.75h20c2.24 0 3.51 2.39 3.51 5.17 0 2.4-1.05 5-3.51 5H312.88c-2.53 0-5.07-1.19-5.07-3.6V247.22c0-2.4 2.54-3.6 5.07-3.6h26.56c2.46 0 3.51 2.63 3.51 5 0 2.77-1.27 5.17-3.51 5.17h-20z"/><path fill="#e4222e" d="M469.44,503.43A695,695,0,0,0,42.12,504.5q5-31.44,12.52-62.9-22.77-23-47.71-44.83a808.31,808.31,0,0,1,497,1.07Q479.21,419,456.57,441.6,464.19,472.56,469.44,503.43Z"/><path fill="#0a56a4" d="M448.88,447.77C417,416.1,95,416.1,63.12,447.77c9.24-9.19,15.8-42.66,19.68-86.32a808.17,808.17,0,0,1,346.49,1C433.18,405.62,439.71,438.65,448.88,447.77Z"/><path fill="#e4222e" d="M469.44,503.43A695,695,0,0,0,42.12,504.5q5-31.44,12.52-62.9-22.77-23-47.71-44.83a808.31,808.31,0,0,1,497,1.07Q479.21,419,456.57,441.6,464.19,472.56,469.44,503.43Z"/><circle cx="323.5" cy="416.58" r="7.5" fill="#fff"/><circle cx="383.5" cy="431.58" r="7.5" fill="#fff"/><circle cx="188.5" cy="416.58" r="7.5" fill="#fff"/><circle cx="128.5" cy="431.58" r="7.5" fill="#fff"/><circle cx="257" cy="416.08" r="22.5" fill="#fff"/></svg>