<svg xmlns="http://www.w3.org/2000/svg" data-name="Layer 1" viewBox="0 0 512 512"><circle cx="338.5" cy="256" r="7.5"/><circle cx="173.5" cy="256" r="7.5"/><text font-family="Dosis-ExtraBold,Dosis" font-size="75" font-weight="800" letter-spacing=".07em" transform="matrix(.99 0 0 1 139.41 149.57)">SUPER</text><text font-family="Dosis-ExtraBold,Dosis" font-size="75" font-weight="800" letter-spacing=".07em" transform="matrix(.99 0 0 1 164.5 417.81)">SALE</text><path fill="#c0232c" d="M315.49 325.9L52 301H22.5a15 15 0 0 0-15 15 13.82 13.82 0 0 0 .09 1.58A15 15 0 0 0 22.5 331h347zM504.41 194.42A15 15 0 0 0 489.5 181H97.5l21.65 1.79L460.36 211H489.5a15 15 0 0 0 15-15A13.82 13.82 0 0 0 504.41 194.42z"/><path fill="#fed947" d="M504.5,256l-90,90-120,120-38.47,38.47a.08.08,0,0,1-.12,0L217.47,466l-120-120-90-90,59.77-59.78L187.48,76,255.94,7.53a.07.07,0,0,1,.12,0L324.52,76l120,120Z"/><polygon fill="#f8be32" points="67.27 196.22 187.48 76 324.52 76 444.51 196 67.27 196.22"/><path fill="#e4222e" d="M504.5,76V194.42h-.09A15,15,0,0,0,489.5,181H97.5l-90-1.58V61h482A15,15,0,0,1,504.5,76Z"/><polygon fill="#f8be32" points="414.51 346 294.53 466 217.47 466 97.49 346 414.51 346"/><path fill="#e4222e" d="M504.5 331V451H22.5a15 15 0 0 1-15-15V317.58h.09A15 15 0 0 0 22.5 331h482zM257.84 223l9.47 19.19a2 2 0 0 0 1.55 1.12L290 246.39a2.06 2.06 0 0 1 1.14 3.5l-15.33 14.94a2 2 0 0 0-.59 1.82l3.62 21.09a2.06 2.06 0 0 1-3 2.17L257 280a2 2 0 0 0-1.9 0l-19 10a2.06 2.06 0 0 1-3-2.17l3.62-21.09a2 2 0 0 0-.59-1.82l-15.33-14.94a2.06 2.06 0 0 1 1.14-3.5l21.18-3.08a2 2 0 0 0 1.55-1.12L254.16 223A2 2 0 0 1 257.84 223z"/><circle cx="338.5" cy="256" r="7.5" fill="#fff"/><circle cx="173.5" cy="256" r="7.5" fill="#fff"/><path fill="#fff" d="M165.82 134.87c0-9.08-23.65-7.5-23.65-25.05 0-11.25 9.78-15.52 19.1-15.52 4 0 14.85.75 14.85 6.6 0 2-1.35 6.15-4.63 6.15-2.68 0-4.1-2.85-10.22-2.85-5.29 0-7.46 2.17-7.46 4.5 0 7.5 23.65 6.07 23.65 25 0 10.8-7.83 16.65-18.65 16.65-9.77 0-18-4.8-18-9.75 0-2.55 2.24-6.3 5.07-6.3 3.51 0 5.75 5.55 12.69 5.55C162 139.82 165.82 138.47 165.82 134.87zM214.54 98.27c0-2.47 2.83-3.52 5.82-3.52 2.83 0 5.82 1 5.82 3.52v34.05c0 12.9-8.29 17.7-18.8 17.7s-18.8-4.8-18.8-17.7v-34c0-2.47 2.83-3.52 5.82-3.52 2.83 0 5.81 1 5.81 3.52v34.05c0 5.1 2.69 7.5 7.17 7.5s7.16-2.4 7.16-7.5zM239.6 98.27c0-1.87 1.72-3.52 4.33-3.52h15.44C269.22 94.75 277 99.4 277 112v.37c0 12.6-8.06 17.4-18.35 17.4h-7.39V146c0 2.4-2.91 3.6-5.82 3.6s-5.82-1.2-5.82-3.6zM251.24 105v15.82h7.39c4.18 0 6.71-2.4 6.71-7.5v-.82c0-5.1-2.53-7.5-6.71-7.5zM299.28 117.62h11.2c2.23 0 3.5 2.17 3.5 4.57 0 2-1 4.43-3.5 4.43h-11.2v12.75h20c2.24 0 3.5 2.4 3.5 5.17 0 2.4-1 5-3.5 5H292.72c-2.54 0-5.07-1.2-5.07-3.6V98.35c0-2.4 2.53-3.6 5.07-3.6h26.56c2.46 0 3.5 2.62 3.5 5 0 2.78-1.26 5.18-3.5 5.18h-20zM333.45 98.27A3.48 3.48 0 0 1 337 94.75h15.45c10.21 0 18.35 3.82 18.35 16 0 8.4-3.81 13.2-9 15.22l9.1 16.57a2.47 2.47 0 0 1 .37 1.35c0 2.93-3.87 6.08-7.31 6.08a4 4 0 0 1-3.73-2.18l-10.22-20h-4.92V146c0 2.4-2.91 3.6-5.82 3.6s-5.82-1.2-5.82-3.6zM345.09 105v14h7.39c4.17 0 6.71-1.73 6.71-7s-2.54-7-6.71-7zM190.91 403.11c0-9.07-23.65-7.5-23.65-25.05 0-11.25 9.78-15.52 19.1-15.52 3.95 0 14.85.75 14.85 6.6 0 2-1.35 6.15-4.63 6.15-2.68 0-4.1-2.85-10.22-2.85-5.3 0-7.46 2.17-7.46 4.5 0 7.5 23.65 6.07 23.65 25 0 10.8-7.83 16.65-18.65 16.65-9.77 0-18-4.8-18-9.75 0-2.55 2.24-6.3 5.07-6.3 3.51 0 5.75 5.55 12.68 5.55C187.11 408.06 190.91 406.71 190.91 403.11zM210.16 413a3.59 3.59 0 0 1 .15-.82l13.87-45.75c.82-2.63 4.18-3.9 7.61-3.9s6.79 1.27 7.61 3.9l13.95 45.75a3.59 3.59 0 0 1 .15.82c0 2.78-4.25 4.8-7.46 4.8-1.86 0-3.36-.6-3.8-2.17l-2.54-9.38H224l-2.54 9.38c-.44 1.57-1.94 2.17-3.8 2.17C214.41 417.81 210.16 415.79 210.16 413zm27.08-15.75l-5.45-20.1-5.44 20.1zM268.5 417.81c-2.54 0-5.08-1.2-5.08-3.6v-47.7c0-2.47 2.91-3.52 5.82-3.52s5.82 1.05 5.82 3.52v41.1h17c2.24 0 3.36 2.55 3.36 5.1s-1.12 5.1-3.36 5.1zM317.36 385.86h11.19c2.24 0 3.51 2.18 3.51 4.58 0 2-1.05 4.42-3.51 4.42H317.36v12.75h20c2.24 0 3.51 2.4 3.51 5.18 0 2.4-1.05 5-3.51 5H310.8c-2.54 0-5.08-1.2-5.08-3.6V366.59c0-2.4 2.54-3.6 5.08-3.6h26.55c2.46 0 3.51 2.62 3.51 5 0 2.78-1.27 5.18-3.51 5.18h-20z"/></svg>