<svg xmlns="http://www.w3.org/2000/svg" data-name="Layer 1" viewBox="0 0 512 512"><ellipse cx="19.64" cy="48.23" rx="7.5" ry="7.51" transform="rotate(-14.02 19.62 48.231)"/><circle cx="493.04" cy="462.21" r="7.5"/><path fill="#fdd8ae" d="M44.15,50,120,14.46a73.69,73.69,0,0,1,49.05-4.78l42.39,10.55a73.7,73.7,0,0,1,31.67,16.91l95.28,86.38-35.57,22.25L225.21,78.45a10.3,10.3,0,0,0-10.08-2L184,87.21a10.29,10.29,0,0,0-1.68,18.7l40,22.36"/><path fill="#2370b5" d="M172.62,178.34,284.29,66.79a23.65,23.65,0,0,1,33.42,0L429.38,178.34a23.59,23.59,0,0,1,0,33.39L317.71,323.28a23.65,23.65,0,0,1-33.42,0L172.62,211.73A23.59,23.59,0,0,1,172.62,178.34Z"/><path fill="#0a56a4" d="M429.38,196.73,317.71,308.28a23.65,23.65,0,0,1-33.42,0L172.62,196.73a23.37,23.37,0,0,1-5.68-9.2,23.57,23.57,0,0,0,5.68,24.2L284.29,323.28a23.65,23.65,0,0,0,33.42,0L429.38,211.73a23.57,23.57,0,0,0,5.68-24.2A23.37,23.37,0,0,1,429.38,196.73Z"/><path fill="#fff" d="M266.56 230.72a7.5 7.5 0 0 1-4.69-13.35l69.47-55.65a7.5 7.5 0 0 1 9.38 11.71l-69.47 55.65A7.45 7.45 0 0 1 266.56 230.72zM327 249.74a23.09 23.09 0 0 1-2.49-.14 22.33 22.33 0 1 1 16.41-4.77h0A22.14 22.14 0 0 1 327 249.74zm-.05-29.67a7.33 7.33 0 1 0 4.59 13.05h0a7.33 7.33 0 0 0-4.59-13.05zM275.09 185A22.31 22.31 0 1 1 289 180.1 22.3 22.3 0 0 1 275.09 185zm0-29.66a7.33 7.33 0 1 0 5.74 2.75A7.31 7.31 0 0 0 275.06 155.33z"/><path fill="#fdd8ae" d="M190.39,110.45l35.46,19.84a19.75,19.75,0,0,1,6.81,28.15h0A19.75,19.75,0,0,1,211,166.58l-65.51-17.77-56-3.61L44.15,132.77,38.91,47.12Z"/><path fill="#fbbf7d" d="M232.66,143.44A19.75,19.75,0,0,1,211,151.58l-65.51-17.77-56-3.61L44.15,117.77l-4.3-70.25-.94-.4,5.24,85.65L89.53,145.2l56,3.61L211,166.58A19.72,19.72,0,0,0,234.45,140,20.13,20.13,0,0,1,232.66,143.44Z"/><path fill="#e4222e" d="M0,157.55l34.9,0a14.72,14.72,0,0,0,14.7-14.75l0-108.22A14.75,14.75,0,0,0,34.87,19.84H0Z"/><path fill="#c0232c" d="M34.9,142.57l-34.9,0v15l34.9,0a14.72,14.72,0,0,0,14.7-14.75V127.89A14.73,14.73,0,0,1,34.9,142.57Z"/><ellipse cx="19.64" cy="48.23" fill="#fff" rx="7.5" ry="7.51" transform="rotate(-14.02 19.62 48.231)"/><path fill="#fdd8ae" d="M482.73,381.9,409.1,350.73a44.27,44.27,0,0,0-23.73.35l-90.8,26.69a22.27,22.27,0,0,0-14,30.05h0a21.69,21.69,0,0,0,24.72,12.9l64.5-14.55"/><path fill="#fdd8ae" d="M477.43,462.21l-21.9,9.55L321.72,491.44a74.21,74.21,0,0,1-52.51-14.3l-74.39-55.52a23.67,23.67,0,0,1-.84-37.73h0a22.66,22.66,0,0,1,19.79-4.12l67.48,29.59,179.64-24.89Z"/><path fill="#fbbf7d" d="M455.53,456.76,321.72,476.44a74.21,74.21,0,0,1-52.51-14.3l-74.39-55.52a23.15,23.15,0,0,1-8.6-11.69,23.65,23.65,0,0,0,8.6,26.69l74.39,55.52a74.21,74.21,0,0,0,52.51,14.3l133.81-19.68,21.9-9.55-2.92-13.72Z"/><path fill="#fbbf7d" d="M369.33,394.93a51.4,51.4,0,0,0-17.14.74l-46.87,10.05a21.7,21.7,0,0,1-24.72-12.9h0c-.17-.42-.33-.83-.48-1.25a22.46,22.46,0,0,0,.48,16.25h0a21.7,21.7,0,0,0,24.72,12.9l64.5-14.55h0c6.29-1.35,5.89-10.45-.49-11.24Z"/><path fill="#2370b5" d="M512,346.36H474.28a18.93,18.93,0,0,0-18.75,19.1V481.31a18.93,18.93,0,0,0,18.75,19.1H512Z"/><path fill="#144e92" d="M455.53,466.31v15a18.93,18.93,0,0,0,18.75,19.1H512v-15H474.28A18.93,18.93,0,0,1,455.53,466.31Z"/><circle cx="493.04" cy="462.21" r="7.5" fill="#fff"/></svg>