<svg xmlns="http://www.w3.org/2000/svg" data-name="Layer 1" viewBox="0 0 512 512"><circle cx="338.5" cy="265" r="7.5"/><circle cx="173.5" cy="265" r="7.5"/><text font-family="Dosis-ExtraBold,Dosis" font-size="75" font-weight="800" letter-spacing=".07em" transform="matrix(.99 0 0 1 136.41 155.57)">SUPER</text><text font-family="Dosis-ExtraBold,Dosis" font-size="75" font-weight="800" letter-spacing=".07em" transform="matrix(.99 0 0 1 164.5 417.57)">SALE</text><path fill="#c0232c" d="M500.1,170.4a14.92,14.92,0,0,0-10.6-4.4H22.5a15,15,0,0,0-15,15,13.82,13.82,0,0,0,.09,1.58A15,15,0,0,0,22.5,196h467a15,15,0,0,0,14.91-13.42,13.82,13.82,0,0,0,.09-1.58A14.92,14.92,0,0,0,500.1,170.4Z"/><polygon fill="#fed947" points="488.31 59.63 467.16 211 448.3 346 433.44 452.37 253.59 504.5 78.56 452.37 63.7 346 44.84 211 23.69 59.63 253.59 7.5 488.31 59.63"/><polygon fill="#2370b5" points="93.71 346 418.3 346 407.09 429.24 253.72 472.99 104.94 429.41 93.71 346"/><polygon fill="#2370b5" points="453.74 82.69 436.47 211 75.53 211 58.24 82.56 253.65 38.25 453.74 82.69"/><polygon fill="#f8be32" points="467.16 211 448.3 346 418.3 346 119.72 331 93.71 346 63.7 346 44.84 211 467.16 211"/><polygon fill="#1067ae" points="436.47 211 418.3 346 93.71 346 75.53 211 436.47 211"/><path fill="#e4222e" d="M504.5,182.58V316a15,15,0,0,1-15,15H22.5a15,15,0,0,1-15-15V182.58h.09A15,15,0,0,0,22.5,196h467a15,15,0,0,0,14.91-13.42Z"/><path fill="#fff" d="M257.84,232l9.47,19.19a2,2,0,0,0,1.55,1.12L290,255.39a2.06,2.06,0,0,1,1.14,3.5l-15.33,14.94a2,2,0,0,0-.59,1.82l3.62,21.09a2.06,2.06,0,0,1-3,2.17L257,289a2,2,0,0,0-1.9,0l-19,10a2.06,2.06,0,0,1-3-2.17l3.62-21.09a2,2,0,0,0-.59-1.82l-15.33-14.94a2.06,2.06,0,0,1,1.14-3.5l21.18-3.08a2,2,0,0,0,1.55-1.12L254.16,232A2,2,0,0,1,257.84,232Z"/><circle cx="338.5" cy="265" r="7.5" fill="#fff"/><circle cx="173.5" cy="265" r="7.5" fill="#fff"/><path fill="#fff" d="M162.82 140.87c0-9.08-23.65-7.5-23.65-25.05 0-11.25 9.78-15.52 19.1-15.52 4 0 14.85.75 14.85 6.6 0 2-1.35 6.15-4.63 6.15-2.68 0-4.1-2.85-10.22-2.85-5.29 0-7.46 2.17-7.46 4.5 0 7.5 23.65 6.07 23.65 25 0 10.8-7.83 16.65-18.65 16.65-9.77 0-18-4.8-18-9.75 0-2.55 2.24-6.3 5.07-6.3 3.51 0 5.75 5.55 12.69 5.55C159 145.82 162.82 144.47 162.82 140.87zM211.54 104.27c0-2.47 2.83-3.52 5.82-3.52 2.83 0 5.82 1 5.82 3.52v34.05c0 12.9-8.29 17.7-18.8 17.7s-18.8-4.8-18.8-17.7v-34c0-2.47 2.83-3.52 5.82-3.52 2.83 0 5.81 1 5.81 3.52v34.05c0 5.1 2.69 7.5 7.17 7.5s7.16-2.4 7.16-7.5zM236.6 104.27c0-1.87 1.72-3.52 4.33-3.52h15.44c9.85 0 17.61 4.65 17.61 17.25v.37c0 12.6-8.06 17.4-18.35 17.4h-7.39V152c0 2.4-2.91 3.6-5.82 3.6s-5.82-1.2-5.82-3.6zM248.24 111v15.82h7.39c4.18 0 6.71-2.4 6.71-7.5v-.82c0-5.1-2.53-7.5-6.71-7.5zM296.28 123.62h11.2c2.23 0 3.5 2.17 3.5 4.57 0 2-1 4.43-3.5 4.43h-11.2v12.75h20c2.24 0 3.5 2.4 3.5 5.17 0 2.4-1 5-3.5 5H289.72c-2.54 0-5.07-1.2-5.07-3.6V104.35c0-2.4 2.53-3.6 5.07-3.6h26.56c2.46 0 3.5 2.62 3.5 5 0 2.78-1.26 5.18-3.5 5.18h-20zM330.45 104.27a3.48 3.48 0 0 1 3.58-3.52h15.45c10.21 0 18.35 3.82 18.35 16 0 8.4-3.81 13.2-9 15.22l9.1 16.57a2.47 2.47 0 0 1 .37 1.35c0 2.93-3.87 6.08-7.31 6.08a4 4 0 0 1-3.73-2.18l-10.22-20h-4.92V152c0 2.4-2.91 3.6-5.82 3.6s-5.82-1.2-5.82-3.6zM342.09 111v14h7.39c4.17 0 6.71-1.73 6.71-7s-2.54-7-6.71-7zM190.91 402.87c0-9.08-23.65-7.5-23.65-25.05 0-11.25 9.77-15.52 19.1-15.52 3.95 0 14.84.75 14.84 6.6 0 2-1.34 6.14-4.62 6.14-2.69 0-4.1-2.84-10.22-2.84-5.3 0-7.46 2.17-7.46 4.49 0 7.5 23.65 6.08 23.65 25 0 10.8-7.84 16.65-18.65 16.65-9.78 0-18-4.8-18-9.75 0-2.55 2.24-6.3 5.07-6.3 3.51 0 5.75 5.55 12.68 5.55C187.1 407.82 190.91 406.47 190.91 402.87zM210.16 412.77a3.57 3.57 0 0 1 .15-.83l13.87-45.74c.82-2.63 4.18-3.9 7.61-3.9s6.79 1.27 7.61 3.9l13.95 45.74a3.57 3.57 0 0 1 .15.83c0 2.77-4.25 4.8-7.46 4.8-1.86 0-3.36-.6-3.8-2.18L239.7 406H224l-2.54 9.37c-.45 1.58-1.94 2.18-3.8 2.18C214.41 417.57 210.16 415.54 210.16 412.77zM237.24 397l-5.45-20.1L226.35 397zM268.5 417.57c-2.54 0-5.08-1.2-5.08-3.6v-47.7c0-2.47 2.91-3.52 5.82-3.52s5.82 1.05 5.82 3.52v41.1h17c2.24 0 3.36 2.55 3.36 5.1s-1.12 5.1-3.36 5.1zM317.36 385.62h11.19c2.24 0 3.51 2.17 3.51 4.57 0 2-1.05 4.43-3.51 4.43H317.36v12.75h20c2.24 0 3.51 2.4 3.51 5.17 0 2.4-1.05 5-3.51 5H310.79c-2.53 0-5.07-1.2-5.07-3.6V366.35c0-2.4 2.54-3.6 5.07-3.6h26.56c2.46 0 3.51 2.62 3.51 5 0 2.78-1.27 5.18-3.51 5.18h-20z"/></svg>