<svg xmlns="http://www.w3.org/2000/svg" data-name="Layer 1" viewBox="0 0 512 512"><ellipse cx="20.33" cy="91.93" rx="7.93" ry="7.95" transform="rotate(-4.3 20.292 91.854)"/><path fill="#fdd8ae" d="M46.24,93.86l80.22-37.69a77.69,77.69,0,0,1,51.84-5.06l44.81,11.17a77.71,77.71,0,0,1,33.47,17.91L357.3,171.68l-37.6,23.57L237.63,124A10.83,10.83,0,0,0,227,121.88L194,133.23a10.9,10.9,0,0,0-1.77,19.8l42.24,23.69L52,183.06Z"/><path fill="#e4222e" d="M0,207.73l36.46,0A15.57,15.57,0,0,0,52,192.13L52,77.5A15.6,15.6,0,0,0,36.43,61.87L0,61.85Z"/><path fill="#c0232c" d="M36.46,192.75,0,192.73v15l36.46,0A15.57,15.57,0,0,0,52,192.13V177.2A15.58,15.58,0,0,1,36.46,192.75Z"/><ellipse cx="20.33" cy="91.93" fill="#fff" rx="7.93" ry="7.95" transform="rotate(-4.3 20.292 91.854)"/><path fill="#2370b5" d="M504.5,296.47c-.05,91.47-73.87,166.73-163.58,166.73S177.34,387.87,177.34,296.38c0-92.13,73.24-166.83,163.58-166.83,25,0,48.66,7.51,48.66,7.51.63.2,20.19,7.95,20.19,7.95"/><path fill="#0a56a4" d="M504.5,296.47q0,7.54-.67,14.92C496.29,396,425.7,463.2,340.92,463.2c-89.75,0-163.58-75.33-163.58-166.82,0-2.53.07-5,.18-7.54,3.88,88.08,76.1,159.36,163.4,159.36,79.79,0,147-59.54,160.93-137.07q1.38-7.69,2-15.62Z"/><path fill="#0a56a4" d="M461.09,298.78q.62,6.23.62,12.6c0,68-54.08,123.19-120.79,123.19S220.13,379.42,220.13,311.38s54.08-123.19,120.79-123.19a118.52,118.52,0,0,1,63.74,18.52"/><path fill="#fed947" d="M461.09,283.78q.62,6.23.62,12.6c0,68-54.08,123.19-120.79,123.19S220.13,364.42,220.13,296.38s54.08-123.19,120.79-123.19a118.52,118.52,0,0,1,63.74,18.52Z"/><path fill="#fed947" d="M461.7,297.54c-.61,67.51-54.45,122-120.78,122-66.71,0-120.79-55.15-120.79-123.19s54.08-123.19,120.79-123.19a118.52,118.52,0,0,1,63.74,18.52l.11.17c-.85,21.72,3.05,51.1,23.59,77.32A109.16,109.16,0,0,0,461.7,297.54Z"/><path fill="#f8be32" d="M461.71,296.38c0,.39,0,.78,0,1.16a109.16,109.16,0,0,1-33.34-28.34c-20.54-26.22-24.44-55.6-23.59-77.32,41.2,34.17,53.08,66.39,56,89.33.11.85.21,1.71.3,2.57C461.46,290.81,461.71,296,461.71,296.38Z"/><path fill="#0a56a4" d="M504.5,296.47q0,7.54-.67,14.92l-2-.26a119.71,119.71,0,0,1-40.15-13.59c0-.38,0-.77,0-1.16q0-6.37-.62-12.6c-.06-.57-.12-1.13-.2-1.69,0-.3-.06-.59-.1-.88-2.93-22.89-14.77-55-55.77-89.12l-.25-.21c0-.72.05-1.45.09-2.2a135.94,135.94,0,0,1,2.41-19.43,99.46,99.46,0,0,1,2.5-10.24c5,3.38,10.85,7.56,17.2,12.49l37.56,84,40,39.88A.34.34,0,0,1,504.5,296.47Z"/><path fill="#f8be32" d="M460.61,283c-8,60.17-58.51,106.56-119.69,106.56-61.73,0-112.64-47.23-119.9-108.19a128,128,0,0,0-.89,15c0,68,54.08,123.19,120.79,123.19s120.79-55.15,120.79-123.19q0-6.37-.62-12.6Z"/><path fill="#e1e1e3" d="M504.5,296.38v.09a118.86,118.86,0,0,1-43.61-14.38,109.17,109.17,0,0,1-32.53-27.89c-16.06-20.5-21.94-42.92-23.34-62.11-.06-.81-.11-1.61-.16-2.41A135.37,135.37,0,0,1,409.77,145L427,172.5l77.52,123.87Z"/><path fill="#2370b5" d="M303.48 341a7.49 7.49 0 0 1-5.35-12.75L372 252.94a7.5 7.5 0 0 1 10.72 10.5l-73.86 75.34A7.47 7.47 0 0 1 303.48 341zM371.48 351.59a23.38 23.38 0 0 1-16.81-7.09 24.32 24.32 0 0 1 0-33.88 23.35 23.35 0 0 1 16.81-7.1h0a23.37 23.37 0 0 1 16.82 7.1 24.32 24.32 0 0 1 0 33.88h0A23.4 23.4 0 0 1 371.48 351.59zm0-33.07a8.48 8.48 0 0 0-6.1 2.6 9.25 9.25 0 0 0 0 12.88 8.49 8.49 0 0 0 12.21 0h0a9.25 9.25 0 0 0 0-12.88A8.48 8.48 0 0 0 371.48 318.52zM310.36 289.24a23.39 23.39 0 0 1-16.82-7.1 24.34 24.34 0 0 1 0-33.88 23.38 23.38 0 0 1 16.82-7.09h0a23.42 23.42 0 0 1 16.82 7.09 24.34 24.34 0 0 1 0 33.88A23.39 23.39 0 0 1 310.36 289.24zm0-33.07a8.49 8.49 0 0 0-6.1 2.59 9.25 9.25 0 0 0 0 12.88 8.46 8.46 0 0 0 12.2 0 9.23 9.23 0 0 0 0-12.88A8.47 8.47 0 0 0 310.36 256.17z"/><path fill="#fdd8ae" d="M52,183.06l42.2,11.59,59.2,3.82,46.85,12.73,22.39,6.09a20.91,20.91,0,0,0,15.66-38.43l-3.81-2.14h0L229.71,174l-28.89-16.2"/><path fill="#fbbf7d" d="M245.5,193.67a21.2,21.2,0,0,1-3.67,4.2,20.85,20.85,0,0,1-19.19,4.42l-22.39-6.09L153.4,183.47l-59.2-3.82L52,171v12.1l42.2,11.59,59.2,3.82,46.85,12.73,22.39,6.09a20.89,20.89,0,0,0,25-27.67A21,21,0,0,1,245.5,193.67Z"/></svg>