<svg xmlns="http://www.w3.org/2000/svg" data-name="Layer 1" viewBox="0 0 512 512"><path fill="#fff" d="M399.4,162.83c0,10.35-17.78,18.55-20,28.24-2.27,10,10.14,25.1,5.8,34.12-4.41,9.17-24,8.84-30.26,16.71s-1.65,27-9.55,33.27-25.34-2.47-34.49,2-13,23.54-23,25.82c-9.66,2.2-21.58-13.3-31.91-13.3s-22.25,15.5-31.91,13.3c-10-2.28-14-21.47-23-25.82-9.15-4.43-26.63,4.33-34.49-2s-3.25-25.36-9.55-33.27-25.85-7.54-30.26-16.71c-4.34-9,8.07-24.13,5.8-34.12-2.2-9.69-20-17.89-20-28.24s17.78-18.56,20-28.24c2.27-10-10.14-25.1-5.8-34.12,4.41-9.17,24-8.84,30.26-16.71s1.65-26.95,9.55-33.27,25.34,2.47,34.49-2c9-4.35,13-23.54,23-25.82C233.75,20.51,245.67,36,256,36s22.25-15.5,31.91-13.3c10,2.28,14,21.47,23,25.82s26.63-4.33,34.49,2,3.25,25.36,9.55,33.27,25.85,7.54,30.26,16.71c4.34,9-8.07,24.13-5.8,34.12C381.62,144.27,399.4,152.48,399.4,162.83Z"/><ellipse cx="284.59" cy="492.36" rx="7.49" ry="7.5" transform="rotate(-75.98 284.587 492.36)"/><path fill="#fdd8ae" d="M287.59,495.79V466.63a76,76,0,0,1,7.07-32L311,399.41a76.08,76.08,0,0,0,6-45l-12.82-74.12L260,253.64c-16.56,5.37-21.31,4.72-62.69,39.32A23.71,23.71,0,0,0,189,309.85a12.13,12.13,0,0,0,.32,2.95,18.63,18.63,0,0,0,18.47,14.41l12.38-.11-8.29,151.83Z"/><path fill="#fbbf7d" d="M304.16,280.26,260,253.64c-16.56,5.37-21.31,4.72-62.69,39.32A23.71,23.71,0,0,0,189,309.85a12.13,12.13,0,0,0,.32,2.95,18.63,18.63,0,0,0,18.47,14.41l12.38-.11Z"/><path fill="#2370b5" d="M399.4,162.83c0,10.35-17.78,18.55-20,28.24-2.27,10,10.14,25.1,5.8,34.12-4.41,9.17-24,8.84-30.26,16.71s-1.65,27-9.55,33.27-25.34-2.47-34.49,2-13,23.54-23,25.82c-9.66,2.2-21.58-13.3-31.91-13.3s-22.25,15.5-31.91,13.3c-10-2.28-14-21.47-23-25.82-9.15-4.43-26.63,4.33-34.49-2s-3.25-25.36-9.55-33.27-25.85-7.54-30.26-16.71c-4.34-9,8.07-24.13,5.8-34.12-2.2-9.69-20-17.89-20-28.24s17.78-18.56,20-28.24c2.27-10-10.14-25.1-5.8-34.12,4.41-9.17,24-8.84,30.26-16.71s1.65-26.95,9.55-33.27,25.34,2.47,34.49-2c9-4.35,13-23.54,23-25.82C233.75,20.51,245.67,36,256,36s22.25-15.5,31.91-13.3c10,2.28,14,21.47,23,25.82s26.63-4.33,34.49,2,3.25,25.36,9.55,33.27,25.85,7.54,30.26,16.71c4.34,9-8.07,24.13-5.8,34.12C381.62,144.27,399.4,152.48,399.4,162.83Z"/><path fill="#0a56a4" d="M379.42 119.59a12.65 12.65 0 0 0 1.5 3.6c2.69-8.08 7.18-16.74 4.3-22.72a9 9 0 0 0-1-1.56C381.84 106.05 378.09 113.71 379.42 119.59zM132.58 119.59c1.33-5.88-2.42-13.54-4.84-20.68a9 9 0 0 0-1 1.56c-2.88 6 1.61 14.64 4.3 22.72A12.65 12.65 0 0 0 132.58 119.59zM355 226.9c-6.3 7.91-1.65 26.95-9.55 33.27s-25.34-2.47-34.49 2-13 23.54-23 25.82c-9.66 2.2-21.58-13.3-31.91-13.3s-22.25 15.5-31.91 13.3c-10-2.28-14-21.47-23-25.82-9.15-4.43-26.63 4.33-34.49-2s-3.25-25.36-9.55-33.27c-5.9-7.4-23.53-7.55-29.3-15.15-1.7 5-2.75 9.73-1 13.44 4.41 9.17 24 8.84 30.26 16.71s1.65 27 9.55 33.27 25.34-2.47 34.49 2c9 4.35 13 23.54 23 25.82 9.66 2.2 21.58-13.3 31.91-13.3s22.25 15.5 31.91 13.3c10-2.28 14-21.47 23-25.82s26.63 4.33 34.49-2 3.25-25.36 9.55-33.27 25.85-7.54 30.26-16.71c1.79-3.71.74-8.45-1-13.44C378.49 219.35 360.86 219.5 355 226.9zM132.58 176.07c-1.64-7.24-12-13.65-17.1-20.74a12.93 12.93 0 0 0-2.88 7.5c0 9 13.59 16.46 18.48 24.64C132.44 183.38 133.34 179.43 132.58 176.07zM379.42 176.07c-.76 3.36.14 7.31 1.5 11.4 4.89-8.18 18.48-15.59 18.48-24.64a12.93 12.93 0 0 0-2.88-7.5C391.4 162.42 381.06 168.83 379.42 176.07z"/><circle cx="256" cy="177.83" r="90.77" fill="#0a56a4"/><circle cx="256" cy="162.83" r="90.77" fill="#fed947"/><path fill="#f8be32" d="M256,238.6a90.78,90.78,0,0,1-90.46-83.27c-.2,2.47-.31,5-.31,7.5a90.77,90.77,0,0,0,181.54,0c0-2.53-.11-5-.31-7.5A90.78,90.78,0,0,1,256,238.6Z"/><path fill="#2370b5" d="M224.86 202.13a7.5 7.5 0 0 1-5.3-12.8l62.94-62.94A7.5 7.5 0 1 1 293.1 137l-62.93 62.93A7.48 7.48 0 0 1 224.86 202.13zM285.33 214.48A22.31 22.31 0 1 1 301.12 208h0A22.3 22.3 0 0 1 285.33 214.48zm0-29.66a7.34 7.34 0 1 0 5.18 12.52h0a7.34 7.34 0 0 0-5.18-12.52zM226.67 155.83a22.31 22.31 0 1 1 15.8-6.53h0A22.31 22.31 0 0 1 226.67 155.83zm0-29.66a7.34 7.34 0 1 0 5.19 12.52h0a7.34 7.34 0 0 0-5.19-12.52z"/><path fill="#fdd8ae" d="M196.66,490v-94.3a73.88,73.88,0,0,1,6.37-30l21.86-49.22,13.76-49.93a17.09,17.09,0,0,1,18.65-12.41h0A17.09,17.09,0,0,1,272,273.62l-7.54,50,1.82,45.05Z"/><path fill="#fbbf7d" d="M257.3,254.12h0a17.05,17.05,0,0,0-9.67,1.61A17.06,17.06,0,0,1,257,273.61l-7.54,50,1.22,30.06a15.61,15.61,0,0,0,15.6,15h0l-1.82-45.05,7.54-50A17.09,17.09,0,0,0,257.3,254.12Z"/><path fill="#e4222e" d="M175.27,512l0-34.9A14.72,14.72,0,0,1,190,462.4l108.23,0A14.73,14.73,0,0,1,313,477.13L313,512Z"/><path fill="#c0232c" d="M175.27,497V477a.66.66,0,0,0,0,.14l0,34.9H313V497Z"/><ellipse cx="284.59" cy="492.36" fill="#fff" rx="7.49" ry="7.5" transform="rotate(-75.98 284.587 492.36)"/></svg>