<svg xmlns="http://www.w3.org/2000/svg" data-name="Layer 1" viewBox="0 0 512 512"><path fill="#672e79" d="M504.5 187a13.82 13.82 0 0 1-.09 1.58H7.59A13.82 13.82 0 0 1 7.5 187a15 15 0 0 1 15-15h467a15 15 0 0 1 15 15zM504.41 188.58A15 15 0 0 1 489.5 202H22.5A15 15 0 0 1 7.59 188.58z"/><path fill="#f8be32" d="M462.22,256c0,14.84-25.57,26.61-28.73,40.49-3.26,14.33,14.59,36,8.35,48.93-6.35,13.15-34.5,12.67-43.52,24s-2.38,38.65-13.73,47.71-36.45-3.54-49.6,2.8c-12.95,6.24-18.75,33.77-33.1,37-13.89,3.15-31-19.06-45.89-19.06s-32,22.21-45.89,19.06c-14.34-3.26-20.14-30.79-33.09-37-13.16-6.34-38.3,6.22-49.6-2.8s-4.66-36.36-13.73-47.71-37.17-10.81-43.52-24c-6.24-12.93,11.61-34.6,8.35-48.93C75.36,282.61,49.79,270.84,49.79,256s25.57-26.61,28.73-40.49c3.26-14.33-14.59-36-8.35-48.93,6.35-13.15,34.49-12.67,43.52-24s2.38-38.65,13.73-47.71,36.44,3.54,49.6-2.8c12.95-6.24,18.75-33.77,33.09-37,13.9-3.15,31,19.06,45.89,19.06s32-22.21,45.89-19.06c14.35,3.26,20.15,30.79,33.1,37,13.15,6.34,38.29-6.22,49.6,2.8s4.66,36.36,13.73,47.71,37.17,10.81,43.52,24c6.24,12.93-11.61,34.6-8.35,48.93C436.65,229.39,462.22,241.16,462.22,256Z"/><path fill="#fed947" d="M433.49,296.49c-2.63,11.54,8.44,27.84,9.58,40.51a15.73,15.73,0,0,1-1.23,8.42c-6.35,13.15-34.5,12.67-43.52,24s-2.38,38.65-13.73,47.71-36.45-3.54-49.61,2.8c-12.94,6.24-18.74,33.77-33.09,37-13.89,3.15-31-19.06-45.89-19.06s-32,22.21-45.89,19.06c-14.34-3.26-20.14-30.79-33.09-37-13.16-6.34-38.3,6.22-49.6-2.8s-4.66-36.36-13.73-47.71-37.17-10.81-43.52-24A15.73,15.73,0,0,1,68.94,337c1.14-12.67,12.21-29,9.58-40.51C75.36,282.61,49.79,270.84,49.79,256c0-14.31,23.77-25.76,28.3-39a13.92,13.92,0,0,0,.43-1.49c3.26-14.33-14.59-36-8.35-48.93,6.35-13.15,34.49-12.67,43.52-24s2.38-38.65,13.73-47.71,36.44,3.54,49.6-2.8c12.95-6.24,18.75-33.77,33.09-37,13.9-3.15,31,19.06,45.89,19.06s32-22.21,45.89-19.06c14.35,3.26,20.15,30.79,33.1,37,13.15,6.34,38.29-6.22,49.6,2.8s4.66,36.36,13.73,47.71,37.17,10.81,43.52,24c6.24,12.93-11.61,34.6-8.35,48.93a13.92,13.92,0,0,0,.43,1.49c4.53,13.24,28.3,24.69,28.3,39C462.22,270.84,436.65,282.61,433.49,296.49Z"/><path fill="#f8be32" d="M78.09 202a13.92 13.92 0 0 0 .43-1.49c2.19-9.64-5.16-22.6-8.31-34a.21.21 0 0 0 0 .06c-4.63 9.6 4 24 7.43 36.67C77.78 202.83 78 202.42 78.09 202zM433.49 200.51a13.92 13.92 0 0 0 .43 1.49c.14.42.31.83.49 1.25 3.42-12.66 12.06-27.07 7.43-36.67l0-.06C438.65 177.91 431.3 190.87 433.49 200.51zM441.8 330.49c-6.41 13.08-34.48 12.62-43.48 23.89s-2.38 38.65-13.73 47.71-36.45-3.54-49.61 2.8c-12.94 6.24-18.74 33.77-33.09 37-13.89 3.15-31-19.06-45.89-19.06s-32 22.21-45.89 19.06c-14.34-3.26-20.14-30.79-33.09-37-13.16-6.34-38.3 6.22-49.6-2.8s-4.66-36.36-13.73-47.71-37.07-10.81-43.48-23.89A37.51 37.51 0 0 0 68.94 337a15.73 15.73 0 0 0 1.23 8.42c6.35 13.15 34.49 12.67 43.52 24s2.37 38.65 13.73 47.71 36.44-3.54 49.6 2.8c12.95 6.24 18.75 33.77 33.09 37 13.9 3.15 31-19.06 45.89-19.06s32 22.21 45.89 19.06c14.35-3.26 20.15-30.79 33.09-37 13.16-6.34 38.3 6.22 49.61-2.8s4.66-36.36 13.73-47.71 37.17-10.81 43.52-24a15.73 15.73 0 0 0 1.23-8.42A37.51 37.51 0 0 0 441.8 330.49zM433.49 281.49c-.84 3.69-.28 7.88.91 12.27 5.53-12.72 27.82-23.9 27.82-37.76a15.79 15.79 0 0 0-2.08-7.5C454 260 436.1 270 433.49 281.49zM77.61 293.76c1.19-4.39 1.75-8.58.91-12.27C75.91 270 58 260 51.87 248.5a15.79 15.79 0 0 0-2.08 7.5C49.79 269.86 72.08 281 77.61 293.76z"/><circle cx="256" cy="256" r="115.66" fill="#fff"/><path fill="#fff" d="M173.45 337h165.1a115.63 115.63 0 0 1-165.1 0zM364.92 217H147.09a115.7 115.7 0 0 1 217.83 0z"/><path fill="#f8be32" d="M433.49,296.49c-2.63,11.54,8.44,27.84,9.58,40.51H338.55a115.74,115.74,0,0,0,26.37-120h69c4.53,13.24,28.3,24.69,28.3,39C462.22,270.84,436.65,282.61,433.49,296.49Z"/><path fill="#e1e1e3" d="M371.67,256a115.19,115.19,0,0,1-33.12,81H173.45a115.76,115.76,0,0,1-26.36-120H364.92A115.26,115.26,0,0,1,371.67,256Z"/><path fill="#f8be32" d="M68.94,337c1.14-12.67,12.21-29,9.58-40.51C75.36,282.61,49.79,270.84,49.79,256c0-14.31,23.77-25.76,28.3-39h69a115.76,115.76,0,0,0,26.36,120Z"/><path fill="#803391" d="M504.5,188.58V307a15,15,0,0,1-15,15H22.5a15,15,0,0,1-15-15V188.58h.09A15,15,0,0,0,22.5,202h467a15,15,0,0,0,14.91-13.42Z"/><path fill="#fff" d="M97.57 233.75c10.3 0 18.35 4.8 18.35 17.69v19.43c0 12.9-8 17.7-18.35 17.7H84.37c-3.06 0-5.07-1.65-5.07-3.53V237.27c0-1.87 2-3.52 5.07-3.52zM90.93 244v34.42h6.64c4.18 0 6.72-2.4 6.72-7.5V251.44c0-5.09-2.54-7.49-6.72-7.49zM128.91 237.27c0-2.47 2.91-3.52 5.82-3.52s5.81 1.05 5.81 3.52V285c0 2.4-2.91 3.6-5.81 3.6s-5.82-1.2-5.82-3.6zM176.58 273.87c0-9.08-23.65-7.5-23.65-25.05 0-11.25 9.77-15.52 19.1-15.52 3.95 0 14.84.75 14.84 6.6 0 2-1.34 6.15-4.62 6.15-2.69 0-4.11-2.85-10.22-2.85-5.3 0-7.46 2.17-7.46 4.49 0 7.5 23.64 6.08 23.64 25 0 10.8-7.83 16.65-18.65 16.65-9.77 0-18-4.8-18-9.75 0-2.55 2.24-6.3 5.08-6.3 3.5 0 5.74 5.55 12.68 5.55C172.77 278.82 176.58 277.47 176.58 273.87zM217.31 244c-4.25 0-6.72 2.4-6.72 7.49v19.88c0 5.1 2.47 7.5 6.79 7.5 6 0 6.34-4.58 6.57-7.5s2.76-3.53 5.74-3.53c4 0 5.9 1 5.9 5.55 0 10-8.06 15.68-18.73 15.68-9.77 0-17.9-4.8-17.9-17.7V251.44c0-12.89 8.13-17.69 17.9-17.69 10.67 0 18.73 5.4 18.73 14.92 0 4.5-1.87 5.55-5.82 5.55-3.14 0-5.67-.82-5.82-3.53C223.87 248.75 223.65 244 217.31 244zM246.48 271.32V251.44c0-12.89 8-17.69 18.28-17.69s18.35 4.8 18.35 17.69v19.88c0 12.9-8.06 17.7-18.35 17.7S246.48 284.22 246.48 271.32zm25-19.88c0-5.17-2.54-7.49-6.71-7.49s-6.64 2.32-6.64 7.49v19.88c0 5.17 2.46 7.5 6.64 7.5s6.71-2.33 6.71-7.5zM321.9 237.27c0-2.47 2.84-3.52 5.82-3.52 2.83 0 5.82 1.05 5.82 3.52v34c0 12.9-8.28 17.7-18.8 17.7s-18.8-4.8-18.8-17.7v-34c0-2.47 2.83-3.52 5.82-3.52 2.83 0 5.82 1.05 5.82 3.52v34c0 5.1 2.68 7.5 7.16 7.5s7.16-2.4 7.16-7.5zM372.78 285.42L358.6 259.47V285c0 2.4-2.91 3.6-5.82 3.6S347 287.37 347 285V237.35c0-2.48 2.9-3.6 5.81-3.6 4.18 0 5.75.37 8.58 5.85l12.09 23.17v-25.5c0-2.47 2.91-3.52 5.82-3.52s5.82 1.05 5.82 3.52V285c0 2.4-2.91 3.6-5.82 3.6C376.58 288.57 374.2 288 372.78 285.42zM431 233.75c2.46 0 3.51 2.7 3.51 5.17 0 2.85-1.27 5.33-3.51 5.33H420.75V285c0 2.4-2.91 3.6-5.82 3.6s-5.82-1.2-5.82-3.6V244.25h-10.3c-2.23 0-3.5-2.48-3.5-5.33 0-2.47 1-5.17 3.5-5.17z"/><circle cx="458.5" cy="262" r="7.5" fill="#f8be32"/><circle cx="53.5" cy="262" r="7.5" fill="#f8be32"/></svg>