<?xml version="1.0" encoding="UTF-8"?><!DOCTYPE svg PUBLIC "-//W3C//DTD SVG 1.1//EN" "http://www.w3.org/Graphics/SVG/1.1/DTD/svg11.dtd"><svg xmlns="http://www.w3.org/2000/svg" xmlns:xlink="http://www.w3.org/1999/xlink" version="1.1" id="Layer_1" x="0px" y="0px" width="512px" height="512px" viewBox="0 0 512 512" xml:space="preserve"><path fill="#ED7826" d="M7.9 255.6C7.9 118.8 118.8 7.9 255.6 7.9s247.7 110.9 247.7 247.7c0 136.8-110.9 247.7-247.7 247.7S7.9 392.5 7.9 255.6z"/><path fill="#DB6D27" d="M431.5 81.2c96.7 96.7 96.7 253.6 0 350.3-96.7 96.7-253.6 96.7-350.3 0L431.5 81.2z"/><path fill="#CE6028" d="M494.6 321L316.9 143.3l-36.2 36.2-99.4-14 20.5 92.8-71.4 71.4 25.1 25.1-6.2 6.2 140 140c99.1-13.4 179.5-85.5 205.3-180z"/><path id="Blogger_3_" fill="#FFF" d="M307 386.8c46.4 0 84-37.8 84.3-83.9l.5-67.9-.8-3.7-2.2-4.6-3.8-2.9c-4.9-3.8-29.7.3-36.4-5.8-4.7-4.3-5.5-12.1-6.9-22.7-2.7-20.5-4.3-21.6-7.6-28.5-11.7-24.7-43.4-43.3-65.1-45.8h-59c-46.4 0-84.3 37.8-84.3 84v98c0 46.1 37.9 83.9 84.3 83.9h97zm-95.8-197.3H258c8.9 0 16.2 7.2 16.2 16s-7.2 16.1-16.2 16.1h-46.7c-8.9 0-16.1-7.3-16.1-16.1-.1-8.8 7.1-16 16-16zm-16.1 112.2c0-8.8 7.2-16 16.1-16h95c8.9 0 16.1 7.2 16.1 16 0 8.7-7.2 16-16.1 16h-95c-8.9 0-16.1-7.3-16.1-16z"/><metadata><rdf:RDF xmlns:rdf="http://www.w3.org/1999/02/22-rdf-syntax-ns#" xmlns:rdfs="http://www.w3.org/2000/01/rdf-schema#" xmlns:dc="http://purl.org/dc/elements/1.1/"><rdf:Description about="https://iconscout.com/legal#licenses" dc:title="blogger" dc:description="blogger" dc:publisher="Iconscout" dc:date="2018-03-26" dc:format="image/svg+xml" dc:language="en"><dc:creator><rdf:Bag><rdf:li>Roundicons.com</rdf:li></rdf:Bag></dc:creator></rdf:Description></rdf:RDF></metadata></svg>