<?xml version="1.0" encoding="UTF-8"?><!DOCTYPE svg PUBLIC "-//W3C//DTD SVG 1.1//EN" "http://www.w3.org/Graphics/SVG/1.1/DTD/svg11.dtd"><svg xmlns="http://www.w3.org/2000/svg" xmlns:xlink="http://www.w3.org/1999/xlink" version="1.1" id="Layer_1" x="0px" y="0px" width="512px" height="512px" viewBox="0 0 512 512" xml:space="preserve"><path fill="#F68D2C" d="M7.9 256C7.9 119 119 7.9 256 7.9S504.1 119 504.1 256 393 504.1 256 504.1 7.9 393 7.9 256z"/><path fill="#E17F2C" d="M431.4 80.6c96.9 96.9 96.9 253.9 0 350.8s-254 96.9-350.8 0L431.4 80.6z"/><path fill="#CD7028" d="M504.1 256v-.6L359.3 110.6l-26.2 26.2-19.6-19.6-29.8 29.8 60.7 60.7-24 24-97.4-97.3-56.8 56.7 32.3 32.3-27.4 27.4 24 24-28.9 28.9 36.7 36.7-53.4 53.4L259.7 504c135.3-2 244.4-112.2 244.4-248z"/><path id="Hyves_3_" fill-rule="evenodd" clip-rule="evenodd" fill="#FFF" d="M334.8 109.2h20.3c7-.4 17.8 19.8 14.9 28.5-1.8 5.7-16.9 8.3-20.3 12.5-5.7 7.3-3.6 29.9-3.6 45.2v121.8c0 6.8-.9 20.4 1.2 22.6 2.2 2.2 9.9.8 13.1 1.8 7.2 2.3 15.8 16.1 10.2 25.5-1.6 2.5-8.8 4.2-13.7 6.5-11.8 5.6-32 12-48.8 10.7-9.5-.7-24.7-14.7-23.2-25 .7-4.4 4.4-6.8 9.5-8.9 3.4-1.4 11.3-.6 14.3-3.5 3.8-3.7.9-19.2.6-27.9-.1-5.3.1-9 0-15.5 0-4.6.5-12.9-.6-14.3-2.6-3.3-24.5-.7-29.2 0-22.2 3.3-34.1 4.9-52.4 10.7-5.5 1.8-18.4 4-22.1 9.6-3.8 5.8-.7 25.5 0 34.4.4 4.1-1.2 12 .7 14.8 2.4 3.9 12.5 2.1 14.8 3 5.8 2 14.2 10.9 13.2 19.6-1.9 15.2-38.7 20.6-56.6 22-6.9.5-9.4.7-14.3-.5-7.9-2.2-18.1-12.9-17.3-20.8.7-6.5 9.8-10.3 16.2-12.5 2-.7 5.9-1 7-2.4 2.4-2.9 1-15.2 0-22.5-2.6-21.8-3.2-48.2-3.5-70.7-.4-26.8-1.8-45.4-1.8-73.2 0-7.8.7-20.6-1.2-23.2-2.2-2.8-9.4-2.3-13.7-4.1-7.4-3.2-11.1-7.9-14.9-17.2v-5.3c6.4-12.5 22.5-15.1 39.9-18.5 24.6-4.7 48.4-9.2 55.4 11.3 1.4 4.1 2.3 11 0 14.8-4.3 7.1-20.9 5.6-24.4 11.4-1.5 2.4-1.2 11.3-1.2 19 0 23.2-2.9 39.3-1.2 63 .2 3.5 1.4 14.3 3.6 15.4 3.5 1.8 9.9-1.1 13.1-1.7 23.4-5.1 37.3-8.6 63.1-11.3 6.7-.8 22.9-.9 26.2-3.6 4.9-4.1 1.9-16.2 1.2-22-2-17.8-1.8-30.4 0-47.6.7-6.5 2.8-19.1-.6-22.6-2.2-2.2-10.6-2.5-13.1-3.6-9-3.8-19.8-13.1-16-26.2.9-3.5 6.3-6.3 10.1-8.3 13.2-6.9 29-7.9 45.1-11.2z"/><metadata><rdf:RDF xmlns:rdf="http://www.w3.org/1999/02/22-rdf-syntax-ns#" xmlns:rdfs="http://www.w3.org/2000/01/rdf-schema#" xmlns:dc="http://purl.org/dc/elements/1.1/"><rdf:Description about="https://iconscout.com/legal#licenses" dc:title="hyves" dc:description="hyves" dc:publisher="Iconscout" dc:date="2018-03-26" dc:format="image/svg+xml" dc:language="en"><dc:creator><rdf:Bag><rdf:li>Roundicons.com</rdf:li></rdf:Bag></dc:creator></rdf:Description></rdf:RDF></metadata></svg>