<?xml version="1.0" encoding="UTF-8"?><!DOCTYPE svg PUBLIC "-//W3C//DTD SVG 1.1//EN" "http://www.w3.org/Graphics/SVG/1.1/DTD/svg11.dtd"><svg xmlns="http://www.w3.org/2000/svg" xmlns:xlink="http://www.w3.org/1999/xlink" version="1.1" id="Layer_1" x="0px" y="0px" width="512px" height="512px" viewBox="0 0 512 512" xml:space="preserve"><path fill="#4A86C5" d="M7.9 256C7.9 119 119 7.9 256 7.9S504.1 119 504.1 256 393 504.1 256 504.1 7.9 393 7.9 256z"/><path fill="#3D80B2" d="M431.4 80.6c96.9 96.9 96.9 254 0 350.8-96.9 96.9-254 96.9-350.8 0L431.4 80.6z"/><path fill="#4A86C5" d="M492.3 331.7c.9-2.8 1.7-5.7 2.5-8.6-.8 2.9-1.6 5.8-2.5 8.6z"/><path fill="#377CA5" d="M494.8 323.1z"/><path fill="#377CA5" d="M494.8 323.1L360.4 188.7l-30.6 30.6-21.2-21.3-17.7 17.7L187 111.8l-6.4-2.5-39.9 39.9 48.1 48.1-47.1 47.1 46 46-50.3 50.3 160 159.8c92.1-15.5 167-81.6 194.9-168.9.9-2.7 1.7-5.6 2.5-8.5z"/><path id="LinkedIn_3_" fill="#FFF" d="M383.3 249.2v92H330v-85.8c0-21.6-7.7-36.3-27-36.3-14.7 0-23.5 9.9-27.4 19.5-1.4 3.4-1.8 8.2-1.8 13v89.6h-53.3s.7-145.4 0-160.4h53.3v22.7c-.1.2-.2.4-.3.5h.3v-.5c7.1-10.9 19.7-26.5 48.1-26.5 35.1 0 61.4 22.9 61.4 72.2zM164.7 103.4c-18.2 0-30.2 12-30.2 27.7 0 15.4 11.6 27.7 29.5 27.7h.4c18.6 0 30.2-12.3 30.2-27.7-.5-15.7-11.7-27.7-29.9-27.7zm-27.1 237.8H191V180.8h-53.3v160.4z"/><metadata><rdf:RDF xmlns:rdf="http://www.w3.org/1999/02/22-rdf-syntax-ns#" xmlns:rdfs="http://www.w3.org/2000/01/rdf-schema#" xmlns:dc="http://purl.org/dc/elements/1.1/"><rdf:Description about="https://iconscout.com/legal#licenses" dc:title="linkedin" dc:description="linkedin" dc:publisher="Iconscout" dc:date="2018-03-26" dc:format="image/svg+xml" dc:language="en"><dc:creator><rdf:Bag><rdf:li>Roundicons.com</rdf:li></rdf:Bag></dc:creator></rdf:Description></rdf:RDF></metadata></svg>