<?xml version="1.0" encoding="UTF-8"?><!DOCTYPE svg PUBLIC "-//W3C//DTD SVG 1.1//EN" "http://www.w3.org/Graphics/SVG/1.1/DTD/svg11.dtd"><svg xmlns="http://www.w3.org/2000/svg" xmlns:xlink="http://www.w3.org/1999/xlink" version="1.1" id="Layer_1" x="0px" y="0px" width="512px" height="512px" viewBox="0 0 512 512" xml:space="preserve"><path fill="#1B468E" d="M7.9 256C7.9 119 119 7.9 256 7.9S504.1 119 504.1 256 393 504.1 256 504.1 7.9 393 7.9 256z"/><path fill="#16467C" d="M431.4 80.6c96.9 96.9 96.9 254 0 350.8-96.9 96.9-254 96.9-350.8 0L431.4 80.6z"/><path fill="#143E68" d="M499.6 303L334.5 137.9 285.4 187l-35.9-35.9-35.7 35.7-28.9-28.9-36.2 36.2 64.8 64.8-23.2 23.2-18-18-39.9 39.9L323 494.8c89.7-25.1 158.8-99.3 176.6-191.8z"/><path id="Myspace__x28_alt_x29__3_" fill="#FFF" d="M306.5 213c-23.5 0-42.5-19-42.5-42.4s19-42.4 42.5-42.4 42.5 19 42.5 42.4-19 42.4-42.5 42.4zm-34.8 40.8c0-23.4-19-42.4-42.5-42.4s-42.5 19-42.5 42.4c0 1 .1 1.9.1 2.8h-.1v73.5h85v-73.5h-.1c0-.9.1-1.8.1-2.8zm-42.5-48.1c17.2 0 31.2-13.9 31.2-31.1 0-17.2-14-31.1-31.2-31.1S198 157.4 198 174.6c.1 17.2 14 31.1 31.2 31.1zm135.2 72.8c0-31.9-25.9-57.8-57.9-57.8s-57.9 25.9-57.9 57.8c0 1.3.1 2.6.2 3.8h-.2v100.2h115.9V282.3h-.2c0-1.3.1-2.5.1-3.8zm-197-71.7c-19.2 0-34.8 15.5-34.8 34.7 0 .8.1 1.5.1 2.3h-.1v60.1h69.5v-60.1h-.1c0-.8.1-1.5.1-2.3.1-19.2-15.5-34.7-34.7-34.7zm0-4.6c14.1 0 25.5-11.4 25.5-25.4 0-14-11.4-25.4-25.5-25.4s-25.5 11.4-25.5 25.4c0 14 11.5 25.4 25.5 25.4z"/><metadata><rdf:RDF xmlns:rdf="http://www.w3.org/1999/02/22-rdf-syntax-ns#" xmlns:rdfs="http://www.w3.org/2000/01/rdf-schema#" xmlns:dc="http://purl.org/dc/elements/1.1/"><rdf:Description about="https://iconscout.com/legal#licenses" dc:title="myspace" dc:description="myspace" dc:publisher="Iconscout" dc:date="2018-03-26" dc:format="image/svg+xml" dc:language="en"><dc:creator><rdf:Bag><rdf:li>Roundicons.com</rdf:li></rdf:Bag></dc:creator></rdf:Description></rdf:RDF></metadata></svg>