<?xml version="1.0" encoding="UTF-8"?><!DOCTYPE svg PUBLIC "-//W3C//DTD SVG 1.1//EN" "http://www.w3.org/Graphics/SVG/1.1/DTD/svg11.dtd"><svg xmlns="http://www.w3.org/2000/svg" xmlns:xlink="http://www.w3.org/1999/xlink" version="1.1" id="Layer_1" x="0px" y="0px" width="512px" height="512px" viewBox="0 0 512 512" xml:space="preserve"><path fill="#D42028" d="M7.9 256C7.9 119 119 7.9 256 7.9S504.1 119 504.1 256 393 504.1 256 504.1 7.9 393 7.9 256z"/><path fill="#C52232" d="M431.4 80.6c96.9 96.9 96.9 253.9 0 350.8s-254 96.9-350.8 0L431.4 80.6z"/><path fill="#B21F2F" d="M501.6 290.9l-129.1-129-33.9 33.9-44.4-44.4-13.7 13.7-30-30-104.6 104.6 30 30-37.2 37.2 44.4 44.4-7.8 7.8 24.2 24.2-21.5 21.5 98.3 98.3c115.8-9.2 209.2-98.2 225.3-212.2z"/><path id="Path" fill="#FFF" d="M189.5 136.8c-37.3 14.8-62.6 43.2-69.7 81.6-4.3 23.6-2.7 49.2 7.7 71.2 2.3 4.9 5.1 9.6 8.4 13.9 1.6 2.1 3.3 4.2 5.2 6.1 3.3-1.2 6.5-2.7 9.6-4.4 12.6-7.1 21.9-18.1 32.7-27.3-36.1-41.8 2.2-93.6 50-105.1 44.5-10.7 104.9 7.8 118.4 53.6 5.6 19 1.9 40-13.5 53.7-8.1 7.2-18.4 11.9-29.2 13.9-6.3 1.1-12.9 1.3-19.3.7-3.6-.4-7.1-1-10.6-1.8-5.9-1.4-11.2-1.2-11.2-7.6v-50.1-25c0-5.1.5-4.2-3.7-4.7-3.4-.4-6.7-.7-10.1-1-11.8-.9-24.2-1.6-35.9.5-4.4.8-4.7 0-4.7 4.8v39.6c0 28 2.1 56.3 1 84.2-.3 8.3-.6 28.3-9.9 32.4-10.8 4.8-20.3-5.3-30.3-7.4 1.4 14-7.4 41.8 8.9 48.9 15 6.5 32.2 8.9 48 3.5 33.1-11.2 43.8-48.1 39.6-78.3C322 348 377.1 322.4 399 276.3c15.6-32.9 9-73.7-14.4-101.6-43.9-52.5-133-62.5-195.1-37.9z"/><metadata><rdf:RDF xmlns:rdf="http://www.w3.org/1999/02/22-rdf-syntax-ns#" xmlns:rdfs="http://www.w3.org/2000/01/rdf-schema#" xmlns:dc="http://purl.org/dc/elements/1.1/"><rdf:Description about="https://iconscout.com/legal#licenses" dc:title="path" dc:description="path" dc:publisher="Iconscout" dc:date="2018-03-26" dc:format="image/svg+xml" dc:language="en"><dc:creator><rdf:Bag><rdf:li>Roundicons.com</rdf:li></rdf:Bag></dc:creator></rdf:Description></rdf:RDF></metadata></svg>