<?xml version="1.0" encoding="UTF-8"?><!DOCTYPE svg PUBLIC "-//W3C//DTD SVG 1.1//EN" "http://www.w3.org/Graphics/SVG/1.1/DTD/svg11.dtd"><svg xmlns="http://www.w3.org/2000/svg" xmlns:xlink="http://www.w3.org/1999/xlink" version="1.1" id="Layer_1" x="0px" y="0px" width="512px" height="512px" viewBox="0 0 512 512" xml:space="preserve"><path fill="#E1E1E1" d="M7.9 256C7.9 119 119 7.9 256 7.9S504.1 119 504.1 256 393 504.1 256 504.1 7.9 393 7.9 256z"/><path fill="#D5D5D5" d="M431.4 80.6c96.9 96.9 96.9 254 0 350.8-96.9 96.9-254 96.9-350.8 0L431.4 80.6z"/><path fill="#CCCBCB" d="M504.1 256c0-9-.5-17.9-1.4-26.6L404.3 131l.1 16.8-68.5-68.5-21.9 21.9-128.8-25.3L394 284.7l-10.5 11.4-144.3-144.3-26 15.6-11.2 5.3L63.5 311.3l65 65-18.6 18.6 106 106c13.1 2.1 26.5 3.3 40.2 3.3 136.9-.1 248-111.2 248-248.2z"/><path fill="#C6C5C5" d="M504.1 256c0-9.2-.5-18.2-1.5-27.1L395 121.3l-37.4 37.4 83.2 83.2-84.2 84.2 24 24-104.3 104.4-58-58-45 45 61.6 61.6c7 .6 14 1 21.1 1 137 0 248.1-111.1 248.1-248.1z"/><path fill="#E14E42" d="M335.7 79.9c-25.8-11.7-53.2-17.8-81.6-17.8-23.6 0-46.8 4.6-69.1 12.9 5.2 4.8 143.9 130.9 150.6 137 .1-9.1.1-129.4.1-132.1z"/><path fill="#FDD14C" d="M356.5 91.2v234.3h84.2c7.4-21.1 11.2-43 11.2-65.2 0-68.9-36.5-133.2-95.4-169.1z"/><path fill="#01A961" d="M173.1 346.4h258.7c-30.3 62.7-91.3 104.9-159.7 111.3h-36.3c-21.7-2-42.7-7.6-62.8-16.7.1-2.8.1-90.4.1-94.6z"/><path fill="#5880C0" d="M152.3 429.6V259.2c-6.6 6-79.5 72.4-81.7 74.4 15.8 39.8 44.8 73.6 81.7 96z"/><path fill="#9B4A9B" d="M164 84.1C97.6 118.2 56.3 185.6 56.3 260.3c0 17 2.6 34.3 7.2 51.5 5.4-4.9 171.9-156.5 175.3-159.6-3.3-3.1-72.6-66.1-74.8-68.1z" id="Picasa"/><metadata><rdf:RDF xmlns:rdf="http://www.w3.org/1999/02/22-rdf-syntax-ns#" xmlns:rdfs="http://www.w3.org/2000/01/rdf-schema#" xmlns:dc="http://purl.org/dc/elements/1.1/"><rdf:Description about="https://iconscout.com/legal#licenses" dc:title="picasa" dc:description="picasa" dc:publisher="Iconscout" dc:date="2018-03-26" dc:format="image/svg+xml" dc:language="en"><dc:creator><rdf:Bag><rdf:li>Roundicons.com</rdf:li></rdf:Bag></dc:creator></rdf:Description></rdf:RDF></metadata></svg>