<?xml version="1.0" encoding="UTF-8"?><!DOCTYPE svg PUBLIC "-//W3C//DTD SVG 1.1//EN" "http://www.w3.org/Graphics/SVG/1.1/DTD/svg11.dtd"><svg xmlns="http://www.w3.org/2000/svg" xmlns:xlink="http://www.w3.org/1999/xlink" version="1.1" id="Layer_1" x="0px" y="0px" width="512px" height="512px" viewBox="0 0 512 512" xml:space="preserve"><path fill="#D42428" d="M7.9 256C7.9 119 119 7.9 256 7.9S504.1 119 504.1 256 393 504.1 256 504.1 7.9 393 7.9 256z"/><path fill="#CC202D" d="M431.4 80.6c96.9 96.9 96.9 254 0 350.8-96.9 96.9-254 96.9-350.8 0L431.4 80.6z"/><path fill="#BA202E" d="M499.1 305.7L376.3 182.9l-144.8 16.5L143.9 335l163.7 163.7c96.2-20.4 171.9-96.5 191.5-193z"/><path id="YouTube__x28_alt_x29__2_" fill-rule="evenodd" clip-rule="evenodd" fill="#FFF" d="M385.8 208.1c0-20.8-16.8-37.6-37.6-37.6H171.6c-20.8 0-37.6 16.9-37.6 37.6v101c0 20.8 16.8 37.7 37.6 37.7h176.5c20.8 0 37.6-16.9 37.6-37.7v-101zm-151.1 93.1v-94.8l71.9 47.4-71.9 47.4z"/><metadata><rdf:RDF xmlns:rdf="http://www.w3.org/1999/02/22-rdf-syntax-ns#" xmlns:rdfs="http://www.w3.org/2000/01/rdf-schema#" xmlns:dc="http://purl.org/dc/elements/1.1/"><rdf:Description about="https://iconscout.com/legal#licenses" dc:title="play,youtube" dc:description="play,youtube" dc:publisher="Iconscout" dc:date="2018-03-26" dc:format="image/svg+xml" dc:language="en"><dc:creator><rdf:Bag><rdf:li>Roundicons.com</rdf:li></rdf:Bag></dc:creator></rdf:Description></rdf:RDF></metadata></svg>