<?xml version="1.0" encoding="UTF-8"?><!DOCTYPE svg PUBLIC "-//W3C//DTD SVG 1.1//EN" "http://www.w3.org/Graphics/SVG/1.1/DTD/svg11.dtd"><svg xmlns="http://www.w3.org/2000/svg" xmlns:xlink="http://www.w3.org/1999/xlink" version="1.1" id="Layer_1" x="0px" y="0px" width="512px" height="512px" viewBox="0 0 512 512" xml:space="preserve"><path fill="#D4E5F6" d="M7.9 255.5C7.9 118.8 118.8 7.9 255.5 7.9s247.6 110.8 247.6 247.6c0 136.7-110.9 247.6-247.6 247.6S7.9 392.3 7.9 255.5z"/><path fill="#C7D8E5" d="M431.6 81.4c96.7 96.7 96.7 253.5 0 350.1-96.7 96.7-253.5 96.7-350.1 0L431.6 81.4z"/><path fill="#B5CAD7" d="M367.4 133.1l-9.1 9.1-14.9-14.9-32.3 32.3-21.5-21.6-13.2 13.2-3.4-3.4-17.1 17.1 3.4 3.4-12.2 12.2 6.4 6.4-78.7 34.7-13.3-13.3-29.2 3.9-18.6 21.5-4.9 27.3 1.7 1.7-.2.2 22.1 22.1 9.6 46.4 166 166c107.4-23.2 188.9-116.1 194.7-229L367.4 133.1z"/><path id="reddit_2_" fill="#4E4E4E" d="M300.9 306.6c-1.5-1-3.3-1.6-5.1-1.6-1.5 0-3.1.4-4.5 1.4-13.1 7.8-28.6 12.1-43.9 12.1-11.5 0-22.9-2.4-33.3-7.5h-.1c-1.6-.6-3.3-2-5.3-3.3-1-.6-2-1.3-3.2-1.7-1.1-.5-2.4-.8-3.7-.8-1.1 0-2.3.3-3.4.8-.1 0-.1 0-.2.1-1.8.7-3.2 2-4.1 3.5-.9 1.5-1.4 3.3-1.4 5.1 0 1.6.4 3.2 1.2 4.7.7 1.4 1.9 2.6 3.4 3.4 14.8 10 32.2 14.5 49.7 14.5 15.8 0 31.6-3.7 45.8-10.3h.2c1.9-1.1 4.3-2.1 6.7-3.5 1.2-.7 2.3-1.6 3.3-2.7s1.7-2.5 2.2-4.1c.2-.7.3-1.4.3-2.1 0-1.3-.3-2.6-.9-3.7-.9-1.9-2.2-3.3-3.7-4.3zm96.5-70.6c0 .7.1 1.3.1 2 0 7.2-2.3 14.2-6.2 20-3.6 5.5-8.6 10.1-14.3 13.2.4 2.9.6 5.8.6 8.7 0 15.5-5.4 30.8-14.7 43.1-17.2 22.9-43.7 36.5-70.5 43.3-14.3 3.5-29 5.2-43.7 5.2-21.9 0-43.8-4-64.3-12.1-21.2-8.7-41.4-22.6-53.8-42.9-6.7-10.9-10.3-23.6-10.3-36.4 0-2.9.2-5.8.6-8.7-5.6-3.1-10.4-7.6-14-12.9-3.8-5.7-6.3-12.4-6.6-19.5v-.1c0-9.9 4.3-19.3 11-26.2 6.7-6.9 15.8-11.4 25.6-11.4h.4c1-.1 2.1-.1 3.1-.1 4.9 0 9.8.8 14.5 2.6 4 1.7 8 3.7 11.5 6.5 1.1-.6 2.4-1.3 3.8-1.8 21.5-12.7 46.4-17.6 70.7-19 .2-12 1.7-24.6 7.6-35.7 4.9-9.2 13.4-16.3 23.5-18.8h.1c3.8-.7 7.7-1.1 11.6-1.1 10.3 0 20.4 2.4 29.9 6.2 4.2-6.3 10.2-11.3 17.2-14.1h.2c4.1-1.3 8.5-2 12.9-2 4.6 0 9.3.8 13.6 2.8h.1c6.3 2.4 11.5 6.9 15.3 12.4 3.8 5.6 6 12.2 6 19.1 0 1.3-.1 2.5-.2 3.8v.1c-.7 8.8-5.2 16.6-11.6 22.1-6.4 5.6-14.7 8.9-23.1 8.9-1.4 0-2.7-.1-4.1-.3-8.4-.6-16.3-4.7-22-10.8-5.8-6-9.5-14.1-9.5-22.8 0-.4 0-.9.1-1.3-7.9-3.5-16.3-6.4-24.6-6.4-1.2 0-2.4.1-3.6.2-6.2.6-12 4.5-14.9 10.2-4.3 8.3-5.1 18-5.2 27.7 23.9 1.6 48 7.3 69.1 19.4l.3.2c.4.2 1.1.6 1.8 1 1.5-1.2 3-2.4 4.7-3.4 6.4-4.3 14-6.4 21.6-6.4 3.4 0 6.7.4 10 1.3h.2c7.7 2 14.7 6.4 20 12.4 5.3 6 8.8 13.5 9.5 21.8zm-70.5-78.3v1c.2 4.2 2.1 8 5.1 10.9 3 2.9 7 4.6 11 4.6h1c4.1 0 8.1-1.7 11.2-4.6 3-2.9 5-6.8 5.2-10.9v-1c0-4.3-2-8.4-5.2-11.5-3.1-3-7.4-4.9-11.6-4.9-1.4 0-2.7.2-4 .6-3.4.9-6.7 3-9 5.8-2.3 2.9-3.7 6.4-3.7 10zm-176.6 64.1c-3.2-1.5-6.5-2.6-9.8-2.5-.5 0-1.1 0-1.6.1h-.2c-4.7.1-9.4 2.2-13 5.5-3.6 3.3-5.9 7.7-6.1 12.5v1.3c0 3 .9 5.9 2.5 8.5 1.2 2 2.7 3.8 4.4 5.3 5.4-12 14-22.2 23.8-30.7zm208.4 58.8c0-10.7-3.9-21.5-10.1-30.1-12.5-17.3-31.8-28.7-51.9-35h-.1c-3.9-1.2-7.8-2.2-11.7-3.1-11.8-2.7-23.8-4-35.9-4-16.2 0-32.4 2.4-47.8 7.2-20.1 6.4-39.5 17.6-52 35-6.3 8.7-10 19.5-10 30.2 0 3.9.5 7.9 1.5 11.8 2.3 8.6 6.7 16.3 12.4 23.1 5.7 6.7 12.8 12.5 20.2 17.2 1.6 1 3.3 2 5 2.9 21.5 12 46.2 17.2 70.8 17.2 4.2 0 8.3-.1 12.5-.4 24.7-2 49.6-9.3 69.6-24.3 6.4-4.7 12.3-10.4 17-16.9 4.7-6.5 8.1-13.8 9.7-21.7.5-3.1.8-6.1.8-9.1zm19.5-42.6c0-2.6-.6-5.2-1.9-7.6-1.7-3.6-4.5-6.3-7.8-8.1-3.3-1.9-7.1-2.8-11-2.8-3.5 0-7 .8-10.1 2.3 9.8 8.5 18.4 18.8 24 30.8 1.8-1.6 3.3-3.5 4.5-5.6 1.5-2.8 2.3-6 2.3-9z"/><path fill="#EF4923" d="M312.7 258.8c.8 2 1.1 4 1.1 6 0 4.1-1.4 8-3.7 11.2-2.3 3.2-5.6 5.6-9.5 6.7h-.1c-1.8.6-3.7.9-5.5.9-4.3 0-8.6-1.6-12-4.2-3.4-2.6-5.9-6.4-6.7-10.9-.3-1.2-.4-2.3-.4-3.5 0-3.9 1.3-7.6 3.5-10.7 2.2-3.1 5.3-5.5 8.9-6.8 2-.8 4.2-1.1 6.3-1.1 3.9 0 7.7 1.2 10.9 3.3 3.2 2.1 5.8 5.2 7.1 9.1.1-.1.1-.1.1 0 0-.1 0-.1 0 0z"/><path fill="#EF4923" d="M196.9 282.6c.1 0 .1 0 0 0 2 .7 3.9 1 5.9 1 4.8 0 9.5-2 13-5.2s5.9-7.8 5.9-13v-.4-.7c0-5.2-2.4-9.7-5.9-13-3.5-3.2-8.2-5.2-13-5.2-1.3 0-2.6.2-3.9.5-6.4 1.3-12 6.1-14.1 12.6-.6 1.8-.9 3.6-.9 5.5 0 4 1.3 7.9 3.6 11.1 2.4 3.2 5.5 5.6 9.4 6.8z"/><metadata><rdf:RDF xmlns:rdf="http://www.w3.org/1999/02/22-rdf-syntax-ns#" xmlns:rdfs="http://www.w3.org/2000/01/rdf-schema#" xmlns:dc="http://purl.org/dc/elements/1.1/"><rdf:Description about="https://iconscout.com/legal#licenses" dc:title="reddit" dc:description="reddit" dc:publisher="Iconscout" dc:date="2018-03-26" dc:format="image/svg+xml" dc:language="en"><dc:creator><rdf:Bag><rdf:li>Roundicons.com</rdf:li></rdf:Bag></dc:creator></rdf:Description></rdf:RDF></metadata></svg>