<?xml version="1.0" encoding="UTF-8"?><!DOCTYPE svg PUBLIC "-//W3C//DTD SVG 1.1//EN" "http://www.w3.org/Graphics/SVG/1.1/DTD/svg11.dtd"><svg xmlns="http://www.w3.org/2000/svg" xmlns:xlink="http://www.w3.org/1999/xlink" version="1.1" id="Layer_1" x="0px" y="0px" width="512px" height="512px" viewBox="0 0 512 512" xml:space="preserve"><path fill="#CBDB2B" d="M7.9 256C7.9 119 119 7.9 256 7.9S504.1 119 504.1 256 393 504.1 256 504.1 7.9 393 7.9 256z"/><path fill="#C7D02D" d="M431.4 80.6c96.9 96.9 96.9 254 0 350.8-96.9 96.9-254 96.9-350.8 0L431.4 80.6z"/><path fill="#C0C130" d="M503 278.7l-53.5-53.5-137.7-45.9-112.6 15.2-83.2 80.3-8.2 62 166.5 166.5c120.9-8.8 217.8-104.2 228.7-224.6z"/><path id="deviantART_3_" fill="#FFF" d="M219 171.7l-3 .6-17.3-35.4-51.4 5.9 21 43.1C59.7 230.8 107.8 337 107.8 337l165.4-47.9-45.5-92.8c81.6-23.6 149.7 24.6 149.7 24.6l-56.2 15.3-16.1-30.2c-15.2-2.8-32.5-3.7-51-.6l38.2 78.1 165.2-47.9c0 .1-59.9-94.5-238.5-63.9zM152.5 282s-15.9-35.4 30.4-65.7l24.7 50.8-55.1 14.9z"/><metadata><rdf:RDF xmlns:rdf="http://www.w3.org/1999/02/22-rdf-syntax-ns#" xmlns:rdfs="http://www.w3.org/2000/01/rdf-schema#" xmlns:dc="http://purl.org/dc/elements/1.1/"><rdf:Description about="https://iconscout.com/legal#licenses" dc:title="deviantart" dc:description="deviantart" dc:publisher="Iconscout" dc:date="2018-03-26" dc:format="image/svg+xml" dc:language="en"><dc:creator><rdf:Bag><rdf:li>Roundicons.com</rdf:li></rdf:Bag></dc:creator></rdf:Description></rdf:RDF></metadata></svg>