<?xml version="1.0" encoding="UTF-8"?><!DOCTYPE svg PUBLIC "-//W3C//DTD SVG 1.1//EN" "http://www.w3.org/Graphics/SVG/1.1/DTD/svg11.dtd"><svg xmlns="http://www.w3.org/2000/svg" xmlns:xlink="http://www.w3.org/1999/xlink" version="1.1" id="Layer_1" x="0px" y="0px" width="512px" height="512px" viewBox="0 0 512 512" xml:space="preserve"><path fill="#ED802C" d="M7.9 256C7.9 119 119 7.9 256 7.9S504.1 119 504.1 256 393 504.1 256 504.1 7.9 393 7.9 256z"/><path fill="#E5772E" d="M431.4 80.6c96.9 96.9 96.9 254 0 350.8-96.9 96.9-254 96.9-350.8 0L431.4 80.6z"/><g fill="#D56727"><path d="M476.4 369.9L310.7 204.2 283 231.8l-74.5-74.5-34-12.9L139 180l97.7 97.7-8.1 8.1-56.6-56.6-33 33 219.6 219.6c50.7-23 92.3-62.6 117.8-111.9z"/><path d="M148.2 366.3l136.2 136.2c25.3-2.9 49.5-9.6 71.9-19.5L193.9 320.6l-45.7 45.7z"/></g><path id="RSS_2_" fill="#FFF" d="M194.1 321.3c5.9 5.9 9.5 13.8 9.5 22.7 0 8.9-3.6 16.8-9.5 22.7-5.9 5.8-13.9 9.4-22.8 9.4s-16.9-3.6-22.8-9.4c-5.9-5.8-9.5-13.8-9.5-22.7 0-8.9 3.6-16.9 9.5-22.7 5.9-5.8 13.9-9.4 22.8-9.4 8.9-.1 16.9 3.5 22.8 9.4zm0 0zm-45.6 45.4zm-9.4-150.5v46.4c30.3 0 58.9 11.9 80.3 33.4 21.4 21.4 33.3 50 33.3 80.4v.1h46.5c0-44.2-18-84.2-47-113.2-29-29.1-69-47.1-113.1-47.1zm.1-82.6V180c108.2.1 196.1 88.2 196.2 196.4h46.5c0-66.9-27.2-127.6-71.2-171.5-44-44-104.6-71.3-171.5-71.3z"/><metadata><rdf:RDF xmlns:rdf="http://www.w3.org/1999/02/22-rdf-syntax-ns#" xmlns:rdfs="http://www.w3.org/2000/01/rdf-schema#" xmlns:dc="http://purl.org/dc/elements/1.1/"><rdf:Description about="https://iconscout.com/legal#licenses" dc:title="rss" dc:description="rss" dc:publisher="Iconscout" dc:date="2018-03-26" dc:format="image/svg+xml" dc:language="en"><dc:creator><rdf:Bag><rdf:li>Roundicons.com</rdf:li></rdf:Bag></dc:creator></rdf:Description></rdf:RDF></metadata></svg>