<?xml version="1.0" encoding="UTF-8"?><!DOCTYPE svg PUBLIC "-//W3C//DTD SVG 1.1//EN" "http://www.w3.org/Graphics/SVG/1.1/DTD/svg11.dtd"><svg xmlns="http://www.w3.org/2000/svg" xmlns:xlink="http://www.w3.org/1999/xlink" version="1.1" id="Layer_1" x="0px" y="0px" width="512px" height="512px" viewBox="0 0 512 512" xml:space="preserve"><path fill="#1B92D0" d="M7.9 256C7.9 119 119 7.9 256 7.9S504.1 119 504.1 256 393 504.1 256 504.1 7.9 393 7.9 256z"/><path fill="#1A8ABA" d="M431.4 79.6c96.9 96.9 96.9 254 0 350.8-96.9 96.9-254 96.9-350.8 0L431.4 79.6z"/><path fill="#1B88AD" d="M497.2 313.9L348.5 165.2 319 194.6l-72.8-57.1-114.1 114.1 50.5 79.5-19.7 19.7 147.3 147.3c92.2-20.6 165.1-92.5 187-184.2z"/><path fill="#1D839F" d="M479.6 363.6L268.2 152.1l-34.4 8.9-44.4 20.9-18.6 60.4-1.2 51.5L358 482.1c53.1-24 96.3-66.1 121.6-118.5z"/><path id="Skype_2_" fill="#FFF" d="M386.9 280.6c1.1-6.7 1.6-13.5 1.6-20.4 0-72.3-58.6-130.9-130.9-130.9-6.9 0-13.8.6-20.4 1.6-12.1-7.4-26.3-11.8-41.5-11.8-43.7 0-79.1 35.4-79.1 79.1 0 15.2 4.3 29.5 11.8 41.5-1 6.7-1.6 13.4-1.6 20.4 0 72.3 58.6 130.8 130.8 130.8 6.9 0 13.8-.5 20.4-1.6 12.1 7.4 26.3 11.8 41.5 11.8 43.7 0 79.1-35.4 79.1-79.1.1-15.2-4.2-29.4-11.7-41.4zm-67.1 39c-5.5 8-13.7 14.2-24.3 18.7-10.6 4.5-23.2 6.7-37.8 6.7-17.4 0-31.8-3-43.2-9.2-8.1-4.4-14.6-10.3-19.7-17.7-5.1-7.4-7.6-14.6-7.6-21.6 0-4.2 1.6-7.8 4.7-10.7 3.1-3 7.1-4.5 11.9-4.5 3.9 0 7.2 1.2 9.9 3.5s5 5.7 6.8 10.1c2.2 5.1 4.6 9.5 7.2 12.9 2.5 3.4 6.1 6.2 10.8 8.4 4.6 2.2 10.7 3.3 18.3 3.3 10.5 0 18.9-2.3 25.4-6.7 6.5-4.5 9.6-10 9.6-16.6 0-5.3-1.7-9.5-5.1-12.7-3.5-3.3-8-5.8-13.6-7.6-5.6-1.8-13.1-3.7-22.6-5.6-12.7-2.8-23.2-6-31.8-9.7-8.6-3.7-15.4-8.8-20.5-15.2-5.1-6.5-7.6-14.5-7.6-24 0-9.1 2.7-17.2 8-24.3 5.3-7.1 13.1-12.5 23.2-16.3 10.1-3.8 21.9-5.7 35.5-5.7 10.8 0 20.2 1.3 28.2 3.8 7.9 2.5 14.5 5.8 19.8 10 5.2 4.1 9.1 8.5 11.6 13.1 2.4 4.6 3.7 9.1 3.7 13.5 0 4.1-1.6 7.8-4.7 11.1s-7 4.9-11.6 4.9c-4.2 0-7.4-1-9.7-3-2.2-2-4.5-5.1-7-9.4-3.2-6.1-7-10.8-11.4-14.2-4.3-3.3-11.4-5.1-21.2-5-9.1 0-16.4 1.9-21.9 5.5-5.5 3.7-8.2 8-8.2 13 0 3.2.9 5.8 2.7 8.1 1.9 2.3 4.4 4.3 7.7 6 3.3 1.7 6.7 3 10.1 4 3.4 1 9.1 2.4 17 4.2 9.9 2.1 18.9 4.5 27 7.1 8.1 2.6 14.9 5.8 20.6 9.5 5.7 3.7 10.2 8.5 13.4 14.3 3.2 5.8 4.8 12.8 4.8 21.1-.1 10-2.9 19-8.4 26.9z"/><metadata><rdf:RDF xmlns:rdf="http://www.w3.org/1999/02/22-rdf-syntax-ns#" xmlns:rdfs="http://www.w3.org/2000/01/rdf-schema#" xmlns:dc="http://purl.org/dc/elements/1.1/"><rdf:Description about="https://iconscout.com/legal#licenses" dc:title="skype" dc:description="skype" dc:publisher="Iconscout" dc:date="2018-03-26" dc:format="image/svg+xml" dc:language="en"><dc:creator><rdf:Bag><rdf:li>Roundicons.com</rdf:li></rdf:Bag></dc:creator></rdf:Description></rdf:RDF></metadata></svg>