<?xml version="1.0" encoding="UTF-8"?><!DOCTYPE svg PUBLIC "-//W3C//DTD SVG 1.1//EN" "http://www.w3.org/Graphics/SVG/1.1/DTD/svg11.dtd"><svg xmlns="http://www.w3.org/2000/svg" xmlns:xlink="http://www.w3.org/1999/xlink" version="1.1" id="Layer_1" x="0px" y="0px" width="512px" height="512px" viewBox="0 0 512 512" xml:space="preserve"><path fill="#F9A11C" d="M7.9 256C7.9 119 119 7.9 256 7.9S504.1 119 504.1 256 393 504.1 256 504.1 7.9 393 7.9 256z"/><path fill="#F09520" d="M431.4 80.6c96.9 96.9 96.9 254 0 350.8-96.9 96.9-254 96.9-350.8 0L431.4 80.6z"/><path fill="#F9A11C" d="M355.9 483.1c.1-.1.3-.1.4-.2l-.4-.4v.6z"/><path fill="#DF8326" d="M417.1 444.5c36.3-31 63.5-72.3 77.1-119.5l-84.5-83.8-6.9 6.9-58.3-59.1-40.6 40.6 13.2 13.2-12.9 12.9-60.8-60.7v28.4l-27.7-27.7v30l-27.5-27.5-.2 46.8-27.2-27.2.1 46.9-27.9-27.9-.2 36.3-27.2-27.2-.5 54.9 198.7 198.7c18.2-3.5 35.7-9.1 52.2-16.4v-.6l.4.4c9.9-4.4 19.5-9.4 28.7-15 0-2.5 4.4-2.8 4.4-2.8 9.6-6.2 18.9-13.1 27.6-20.6z"/><path id="SoundCloud_1_" fill="#FFF" d="M92.3 273.2c0 11.1 5.1 21.1 13 27.8v-55.5c-7.9 6.6-13 16.6-13 27.7m26.8-35.1v70.1c3.3.9 6.7 1.4 10.2 1.4h3.6v-72.8c-1.2-.1-2.4-.2-3.6-.2-3.5.1-6.9.6-10.2 1.5m30.5 4.6c-.9-.6-1.9-1.2-2.9-1.7v68.7h13.8v-91.8c-5.5 7.1-9.3 15.6-10.9 24.8m24.7-37.8v104.7h13.8V198.1c-4.9 1.7-9.6 4-13.8 6.8m27.6-9.6v114.4h13.8v-114c-2.8-.4-5.7-.6-8.7-.6-1.7 0-3.4 0-5.1.2m35.2 8.1c-4.5-2.7-9.4-4.8-14.5-6.2v112.5h20.7V195.1c-2.3 2.6-4.3 5.3-6.2 8.3m13.1-15.3v121.5h131.1v-.2c27.6-1.8 40-18.9 40-39.8 0-22.1-16.7-39.9-39.1-39.9-5.8 0-10.5 1.2-15.5 3.3-3.6-35-33.3-62.4-69.9-62.4-17.9.2-34.2 6.7-46.6 17.5"/><metadata><rdf:RDF xmlns:rdf="http://www.w3.org/1999/02/22-rdf-syntax-ns#" xmlns:rdfs="http://www.w3.org/2000/01/rdf-schema#" xmlns:dc="http://purl.org/dc/elements/1.1/"><rdf:Description about="https://iconscout.com/legal#licenses" dc:title="soundcloud" dc:description="soundcloud" dc:publisher="Iconscout" dc:date="2018-03-26" dc:format="image/svg+xml" dc:language="en"><dc:creator><rdf:Bag><rdf:li>Roundicons.com</rdf:li></rdf:Bag></dc:creator></rdf:Description></rdf:RDF></metadata></svg>