<?xml version="1.0" encoding="UTF-8"?><!DOCTYPE svg PUBLIC "-//W3C//DTD SVG 1.1//EN" "http://www.w3.org/Graphics/SVG/1.1/DTD/svg11.dtd"><svg xmlns="http://www.w3.org/2000/svg" xmlns:xlink="http://www.w3.org/1999/xlink" version="1.1" id="Layer_1" x="0px" y="0px" width="512px" height="512px" viewBox="0 0 512 512" xml:space="preserve"><path fill="#EF4E23" d="M7.9 256C7.9 119 119 7.9 256 7.9S504.1 119 504.1 256 393 504.1 256 504.1 7.9 393 7.9 256z"/><path fill="#E74525" d="M431.4 80.6c96.9 96.9 96.9 254 0 350.8-96.9 96.9-254 96.9-350.8 0L431.4 80.6z"/><path fill="#DC4127" d="M494.8 323l-79-79-1.1 1.1L306.6 137l-30.4 30.4-39.1 2.6-.3 36.9-43.5 43.5 42.4 42.4-14.1 14.1-62.7-62.7-35.6 35.6 27.9 27.9-26.4 26.4 167.3 167.3c97.5-14.1 176.6-85.1 202.7-178.4z"/><path fill="#D23D28" d="M494.9 323l-79.1-79.1-71.2 71.1-12.2-12.2-34.2 34.2 112.7 112.7c40-32 69.8-76.1 84-126.7z"/><g><path id="icon" fill="#FFF" d="M272.4 203.7l21.1 9.8 31.5-9.4v-21.9c-1.1-37.2-31.5-67.1-69-67.1-37.4 0-67.7 29.6-69 66.7v99.9c0 9.1-7.3 16.4-16.4 16.4s-16.4-7.3-16.4-16.4v-42.3h-52.9v42.9c0 38.2 31 69.2 69.2 69.2 37.9 0 68.6-30.4 69.1-68.2l.1-98.7c0-9 7.3-16.4 16.4-16.4s16.4 7.3 16.4 16.4v19.1zm85.4 35.7v44.3c0 9-7.3 16.4-16.4 16.4s-16.4-7.3-16.4-16.4v-43.5l-31.5 9.4-21.1-9.8V283c.3 37.9 31.2 68.6 69.2 68.6 38.2 0 69.2-31 69.2-69.2v-42.9h-53z"/></g><metadata><rdf:RDF xmlns:rdf="http://www.w3.org/1999/02/22-rdf-syntax-ns#" xmlns:rdfs="http://www.w3.org/2000/01/rdf-schema#" xmlns:dc="http://purl.org/dc/elements/1.1/"><rdf:Description about="https://iconscout.com/legal#licenses" dc:title="stumbleupon" dc:description="stumbleupon" dc:publisher="Iconscout" dc:date="2018-03-26" dc:format="image/svg+xml" dc:language="en"><dc:creator><rdf:Bag><rdf:li>Roundicons.com</rdf:li></rdf:Bag></dc:creator></rdf:Description></rdf:RDF></metadata></svg>