<?xml version="1.0" encoding="UTF-8"?><!DOCTYPE svg PUBLIC "-//W3C//DTD SVG 1.1//EN" "http://www.w3.org/Graphics/SVG/1.1/DTD/svg11.dtd"><svg xmlns="http://www.w3.org/2000/svg" xmlns:xlink="http://www.w3.org/1999/xlink" version="1.1" id="Layer_1" x="0px" y="0px" width="512px" height="512px" viewBox="0 0 512 512" xml:space="preserve"><path fill="#44546B" d="M7.9 256C7.9 119 119 7.9 256 7.9S504.1 119 504.1 256 393 504.1 256 504.1 7.9 393 7.9 256z"/><path fill="#3C485B" d="M431.4 80.6c96.9 96.9 96.9 254 0 350.8-96.9 96.9-254 96.9-350.8 0L431.4 80.6z"/><path fill="#303A49" d="M489.6 339.5L262.8 112.7l-91.4 91.4 9.8 9.8-20.4 19.9 96 96-51.4 51.9 114.2 114.2c79.1-21 142.7-80 170-156.4z"/><path fill="#EDF0F3" d="M263.2 112.5v74.9h70.3v46.5h-70.3v76c0 17.2.9 28.2 2.7 33.1 1.8 4.9 5.2 8.8 10.2 11.7 6.6 3.9 14 5.9 22.5 5.9 15 0 29.9-4.9 44.8-14.7v46.7c-12.7 6-24.1 10.2-34.4 12.6-10.3 2.4-21.4 3.6-33.3 3.6-13.5 0-25.5-1.7-35.9-5.1-10.4-3.4-19.3-8.3-26.6-14.6-7.4-6.3-12.4-13.1-15.3-20.2-2.8-7.1-4.2-17.4-4.2-31v-104h-32.8V192c11.7-3.8 21.6-9.2 29.9-16.2 8.3-7.1 15-15.6 20-25.5s8.5-22.5 10.4-37.8h42z"/><metadata><rdf:RDF xmlns:rdf="http://www.w3.org/1999/02/22-rdf-syntax-ns#" xmlns:rdfs="http://www.w3.org/2000/01/rdf-schema#" xmlns:dc="http://purl.org/dc/elements/1.1/"><rdf:Description about="https://iconscout.com/legal#licenses" dc:title="tumblr" dc:description="tumblr" dc:publisher="Iconscout" dc:date="2018-03-26" dc:format="image/svg+xml" dc:language="en"><dc:creator><rdf:Bag><rdf:li>Roundicons.com</rdf:li></rdf:Bag></dc:creator></rdf:Description></rdf:RDF></metadata></svg>