<?xml version="1.0" encoding="UTF-8"?><!DOCTYPE svg PUBLIC "-//W3C//DTD SVG 1.1//EN" "http://www.w3.org/Graphics/SVG/1.1/DTD/svg11.dtd"><svg xmlns="http://www.w3.org/2000/svg" xmlns:xlink="http://www.w3.org/1999/xlink" version="1.1" id="Layer_1" x="0px" y="0px" width="512px" height="512px" viewBox="0 0 512 512" xml:space="preserve"><path fill="#13B3CA" d="M7.9 256C7.9 119 119 7.9 256 7.9S504.1 119 504.1 256 393 504.1 256 504.1 7.9 393 7.9 256z"/><path fill="#10ABB6" d="M431.4 80.6c96.9 96.9 96.9 253.9 0 350.8s-254 96.9-350.8 0L431.4 80.6z"/><path fill="#0EA2A4" d="M488.1 343.6L350.8 206.2 326.1 231 217.6 122.5l-51 51 46.3 46.3-37 37 62.2 62.2-49.3 49.3L317 496.5c78.9-20 142.7-77.7 171.1-152.9z"/><path id="Twitter_2_" fill="#FFF" d="M332.2 325h-70.8c-9.8 0-18.2-3.4-25.1-10.4-6.9-6.9-10.3-15.3-10.3-25.2v-25.2h100.8c9.1 0 16.9-3.3 23.4-9.8 6.5-6.5 9.8-14.4 9.8-23.5s-3.3-16.9-9.8-23.5c-6.5-6.5-14.4-9.8-23.5-9.8H226.1v-52c0-9.8-3.5-18.3-10.5-25.3-6.9-7-15.3-10.6-25.1-10.6-10 0-18.6 3.5-25.5 10.4-7 6.9-10.4 15.4-10.4 25.5v143.6c0 29.5 10.4 54.8 31.3 75.7 20.9 21 46.1 31.5 75.6 31.5h70.7c9.8 0 18.2-3.5 25.3-10.6 7-7 10.5-15.4 10.5-25.3 0-9.8-3.5-18.3-10.5-25.3-7-6.6-15.5-10.2-25.3-10.2z"/><metadata><rdf:RDF xmlns:rdf="http://www.w3.org/1999/02/22-rdf-syntax-ns#" xmlns:rdfs="http://www.w3.org/2000/01/rdf-schema#" xmlns:dc="http://purl.org/dc/elements/1.1/"><rdf:Description about="https://iconscout.com/legal#licenses" dc:title="twitter" dc:description="twitter" dc:publisher="Iconscout" dc:date="2018-03-26" dc:format="image/svg+xml" dc:language="en"><dc:creator><rdf:Bag><rdf:li>Roundicons.com</rdf:li></rdf:Bag></dc:creator></rdf:Description></rdf:RDF></metadata></svg>