<?xml version="1.0" encoding="UTF-8"?><!DOCTYPE svg PUBLIC "-//W3C//DTD SVG 1.1//EN" "http://www.w3.org/Graphics/SVG/1.1/DTD/svg11.dtd"><svg xmlns="http://www.w3.org/2000/svg" xmlns:xlink="http://www.w3.org/1999/xlink" version="1.1" id="Layer_1" x="0px" y="0px" width="512px" height="512px" viewBox="0 0 512 512" xml:space="preserve"><path fill="#13B3CA" d="M7.9 256C7.9 119 119 7.9 256 7.9S504.1 119 504.1 256 393 504.1 256 504.1 7.9 393 7.9 256z"/><path fill="#10ABB6" d="M431.4 80.6c96.9 96.9 96.9 253.9 0 350.8s-254 96.9-350.8 0L431.4 80.6z"/><path fill="#0EA2A4" d="M501.8 289.1l-67-67-5.5 5.5-84.5-84.5-4.4 4.4-10.1-10.1-12.4 12.4-10-10-16.1 16.1 19.7 19.7-75.6 75.6-73.7-73.7-16.1 16.1 21.2 21.2-15 14.9 24.4 24.4-10.8 10.7 29.7 29.7-4.9 4.9 27.3 27.3-32 32-23.9-23.9L139 358l-28.6-28.6-5.8 5.8L273 503.4c118-8 213.4-98.5 228.8-214.3z"/><path id="Twitter__x28_alt_x29__1_" fill="#FFF" d="M395.7 245.3c19.8-1.6 33.3-10.6 38.4-22.9-7.2 4.4-29.4 9.2-41.6 4.6-.6-2.9-1.3-5.6-1.9-8.1-9.3-34.3-41.3-61.9-74.8-58.6 2.7-1.1 5.5-2.1 8.2-3 3.7-1.3 25.3-4.9 21.9-12.5-2.9-6.7-29.3 5.1-34.3 6.6 6.6-2.5 17.4-6.7 18.6-14.3-10.1 1.4-20 6.1-27.6 13.1 2.8-3 4.8-6.6 5.3-10.5-26.9 17.2-42.6 51.7-55.2 85.3-10-9.7-18.8-17.3-26.7-21.5-22.2-11.9-48.8-24.4-90.6-39.9-1.3 13.8 6.8 32.2 30.2 44.4-5.1-.7-14.3.8-21.7 2.6 3 15.8 12.9 28.9 39.5 35.2-12.2.8-18.5 3.6-24.2 9.6 5.5 11 19.1 24 43.4 21.3-27.1 11.7-11 33.3 11 30.1-37.6 38.8-96.9 36-130.9 3.5 88.9 121.1 282.1 71.6 310.9-45 21.6.2 34.3-7.5 42.1-15.9-12.4 2.1-30.4-.1-40-4.1z"/><metadata><rdf:RDF xmlns:rdf="http://www.w3.org/1999/02/22-rdf-syntax-ns#" xmlns:rdfs="http://www.w3.org/2000/01/rdf-schema#" xmlns:dc="http://purl.org/dc/elements/1.1/"><rdf:Description about="https://iconscout.com/legal#licenses" dc:title="twitter" dc:description="twitter" dc:publisher="Iconscout" dc:date="2018-03-26" dc:format="image/svg+xml" dc:language="en"><dc:creator><rdf:Bag><rdf:li>Roundicons.com</rdf:li></rdf:Bag></dc:creator></rdf:Description></rdf:RDF></metadata></svg>