<?xml version="1.0" encoding="UTF-8"?><!DOCTYPE svg PUBLIC "-//W3C//DTD SVG 1.1//EN" "http://www.w3.org/Graphics/SVG/1.1/DTD/svg11.dtd"><svg xmlns="http://www.w3.org/2000/svg" xmlns:xlink="http://www.w3.org/1999/xlink" version="1.1" id="Layer_1" x="0px" y="0px" width="512px" height="512px" viewBox="0 0 512 512" xml:space="preserve"><path fill="#0FB2BC" d="M7.9 256C7.9 119 119 7.9 256 7.9S504.1 119 504.1 256 393 504.1 256 504.1 7.9 393 7.9 256z"/><path fill="#0CAEB1" d="M431.4 80.6c96.9 96.9 96.9 254 0 350.8-96.9 96.9-254 96.9-350.8 0L431.4 80.6z"/><path fill="#0BA0A0" d="M503.9 263L388.4 147.5l-51.6 51.6-26.8-26.8-36.2 36.2-59.7-59.7-25.5 25.5-11.1-11.1-64.7 64.7 128.6 128.6-32.3 32.3 107.7 107.7C422.2 470 500.8 375.9 503.9 263z"/><path id="Vimeo_2_" fill="#FFF" d="M359.2 138.3c-42.5-1.4-71.2 22.4-86.3 71.5 7.8-3.2 15.3-4.8 22.6-4.8 15.5 0 22.3 8.7 20.5 26.1-.9 10.6-7.8 25.9-20.5 46.1-12.8 20.2-22.4 30.3-28.7 30.3-8.3 0-15.8-15.6-22.6-46.8-2.3-9.2-6.4-32.5-12.3-70.2-5.5-34.8-20.1-51.1-43.8-48.8-10 .9-25.1 10.1-45.1 27.5-14.6 13.3-29.5 26.6-44.6 39.9l14.4 18.5c13.7-9.6 21.7-14.4 24-14.4 10.5 0 20.3 16.5 29.5 49.5 8.2 30.3 16.5 60.5 24.7 90.8 12.3 33 27.4 49.5 45.1 49.5 28.8 0 64-27 105.5-81.1 40.2-51.8 60.9-92.6 62.3-122.4 1.6-39.9-13.2-60.3-44.7-61.2z"/><metadata><rdf:RDF xmlns:rdf="http://www.w3.org/1999/02/22-rdf-syntax-ns#" xmlns:rdfs="http://www.w3.org/2000/01/rdf-schema#" xmlns:dc="http://purl.org/dc/elements/1.1/"><rdf:Description about="https://iconscout.com/legal#licenses" dc:title="vimeo" dc:description="vimeo" dc:publisher="Iconscout" dc:date="2018-03-26" dc:format="image/svg+xml" dc:language="en"><dc:creator><rdf:Bag><rdf:li>Roundicons.com</rdf:li></rdf:Bag></dc:creator></rdf:Description></rdf:RDF></metadata></svg>