<?xml version="1.0" encoding="UTF-8"?><!DOCTYPE svg PUBLIC "-//W3C//DTD SVG 1.1//EN" "http://www.w3.org/Graphics/SVG/1.1/DTD/svg11.dtd"><svg xmlns="http://www.w3.org/2000/svg" xmlns:xlink="http://www.w3.org/1999/xlink" version="1.1" id="Layer_1" x="0px" y="0px" width="512px" height="512px" viewBox="0 0 512 512" xml:space="preserve"><path fill="#E1E1E1" d="M7.9 255.4C7.9 118.7 118.7 7.9 255.4 7.9s247.5 110.8 247.5 247.5-110.8 247.5-247.5 247.5S7.9 392.1 7.9 255.4z"/><path fill="#D1D1D1" d="M431.6 81.6c96.6 96.6 96.6 253.3 0 350-96.6 96.6-253.3 96.6-350 0l350-350z"/><path fill="#C8C8C8" d="M502.6 266.5l-89.1-89.1-26 14.8-18 29.2-43-43-18.4 13-19.9 25.3-38.5-38.5-37.2 37.2-36.4-36.4-66.7-.7-7.8 7.8 37.9 37.9 65.9 168.7 104.1 104.1C416.6 473 497.6 379.7 502.6 266.5z"/><path id="Wikipedia_2_" fill="#4E4E4E" d="M413.2 177.6h-64.6l-4.6.8v6.2c0 .7 2.2 1.3 2.8 1.8.6.5 2.2.8 2.8.8l5.9.3c6.6.3 8.7 1.8 11.2 4.2 2.5 2.5 3 6.8 1 12.8l-57.1 149.1-2.2-.6-36.4-81.7c.5-1.2.8-1.9.8-1.9l29.7-61.1c3.5-6.4 6.8-12.2 8.5-14.9 3.1-4.9 4.6-5.8 13.1-6.2 1.7 0 2.4-.9 2.4-2.6v-6.2l-.4-.7s-35.5-.1-51.7 0v6.8c0 .8-.4 1.4.2 1.8.6.5.9.7 1.5.7l2.4.3c6.6.3 9.6 2.2 10.5 3.4 1.6 2.1 2.3 4.4-1.5 13.6l-22.9 50.1-20.6-46.3c-6.8-14.8-8.5-19.4 1.8-20.3l2.7-.6c2 0 1.7-.8 1.7-2.3v-6.5l-.2-.5h-55.1l-.2.6v6.5c0 1.5 1.4 1.8 4.1 2.2 9.6 1.4 9.4 2.5 18.9 23.1l5.6 12.4 21.6 46.5s2.4 6 6.3 15.2L219.9 353l-1.8-.5s-48.6-112.6-62.7-150.3c-1.5-3.9-2.1-6.8-2.1-8.6 0-3.8 3.1-5.9 9.4-6.2l9.6-.3c2 0 5.2-.8 5.2-2.5v-6.2l-2.9-.6s-59.5-.1-71.6 0l-2 .6v6.5c0 1.2 1.6 1.9 4.3 2.2 7.4.5 12.4 1.7 14.7 3.9 2.3 2.2 4.8 7.7 8.1 16.3 17.7 46.6 55.2 129.8 73.5 177.2 5.3 12.9 11.9 14.9 19.9-.4 8.3-16.8 24.9-54.2 37.1-81.8 11.4 27.5 26.9 64.8 34.3 81.6 5.9 13.5 12.7 14.8 19.6.4 18-44 70.6-176.2 70.6-176.2 2.3-6.5 5.4-11.5 9.5-15.1 4.1-3.6 10.1-5.6 18.6-6 1.7 0 2.4-.9 2.4-2.5v-6.2l-.4-.7z"/><metadata><rdf:RDF xmlns:rdf="http://www.w3.org/1999/02/22-rdf-syntax-ns#" xmlns:rdfs="http://www.w3.org/2000/01/rdf-schema#" xmlns:dc="http://purl.org/dc/elements/1.1/"><rdf:Description about="https://iconscout.com/legal#licenses" dc:title="wordpress" dc:description="wordpress" dc:publisher="Iconscout" dc:date="2018-03-26" dc:format="image/svg+xml" dc:language="en"><dc:creator><rdf:Bag><rdf:li>Roundicons.com</rdf:li></rdf:Bag></dc:creator></rdf:Description></rdf:RDF></metadata></svg>