<?xml version="1.0" encoding="UTF-8"?><!DOCTYPE svg PUBLIC "-//W3C//DTD SVG 1.1//EN" "http://www.w3.org/Graphics/SVG/1.1/DTD/svg11.dtd"><svg xmlns="http://www.w3.org/2000/svg" xmlns:xlink="http://www.w3.org/1999/xlink" version="1.1" id="Layer_1" x="0px" y="0px" width="512px" height="512px" viewBox="0 0 512 512" xml:space="preserve"><path fill="#702C90" d="M7.9 255.5C7.9 118.8 118.8 7.9 255.5 7.9s247.6 110.8 247.6 247.6c0 136.7-110.9 247.6-247.6 247.6S7.9 392.3 7.9 255.5z"/><path fill="#5F2C80" d="M431.6 81.4c96.7 96.7 96.7 253.5 0 350.1-96.7 96.7-253.5 96.7-350.1 0L431.6 81.4z"/><path fill="#4F286E" d="M497.7 307.1L391.2 194.8l-16.1 15.3-13.2-14-33.8 32-29.4-31.1-14.3 13.5-40.1-40.1-18.4 18.4-17.6-17.6-16.9 16.9 17.6 17.6-13.4 13.4-45.3-45.3-9.5 9.5-11.4-11.3-16.9 16.9L245.6 322l-23.9 23.9-9-9-7.5 7.5-7.5-7.5-11.6 11.6 143.4 143.4c84.6-26.5 149.6-97.1 168.2-184.8z"/><path id="Yahoo_x21__2_" fill="#FFF" d="M351 214.7c-7.3 2-73.6 53.4-78 66.1-1 4.4.1 46.7 1.1 53 4.4 1 36 .1 41.7 1.1l-.7 13.1c-5.7-.4-45.8-.3-68.7-.3-11.6 0-49 1.3-60.5 1l2.2-12.5c6.3-.5 32.4 1.2 38.1-4.9 2.8-3 2-43.2 1-50-2.4-7.3-60.6-80.2-75.8-92.1h-39.2v-18.3h132.1v1.3h.5l-.5 3.1v13.9h-39.8c17.8 26 43.2 57.3 54.1 72.4l53.2-48.2h-31.6l-4.5-18.3h115.9l-.9 1.3h.4l-8.3 12h-.3l-3.3 4.9h-21.4c-2.7.5-5.2 1.1-6.8 1.4zm37.8 114.8l-10.2-.5-11.4-1.4.1 19.6 9 .8 9.7.7 2.8-19.2zm19.8-93.6c-3.5-.1-34.8-3.1-38.9-3.9l.5 82.7 17.8 1.4 20.6-80.2z"/><metadata><rdf:RDF xmlns:rdf="http://www.w3.org/1999/02/22-rdf-syntax-ns#" xmlns:rdfs="http://www.w3.org/2000/01/rdf-schema#" xmlns:dc="http://purl.org/dc/elements/1.1/"><rdf:Description about="https://iconscout.com/legal#licenses" dc:title="yahoo" dc:description="yahoo" dc:publisher="Iconscout" dc:date="2018-03-26" dc:format="image/svg+xml" dc:language="en"><dc:creator><rdf:Bag><rdf:li>Roundicons.com</rdf:li></rdf:Bag></dc:creator></rdf:Description></rdf:RDF></metadata></svg>