<?xml version="1.0" encoding="UTF-8"?><!DOCTYPE svg PUBLIC "-//W3C//DTD SVG 1.1//EN" "http://www.w3.org/Graphics/SVG/1.1/DTD/svg11.dtd"><svg xmlns="http://www.w3.org/2000/svg" xmlns:xlink="http://www.w3.org/1999/xlink" version="1.1" id="Layer_1" x="0px" y="0px" width="512px" height="512px" viewBox="0 0 512 512" xml:space="preserve"><path fill="#407CA8" d="M7.9 256C7.9 119 119 7.9 256 7.9S504.1 119 504.1 256 393 504.1 256 504.1 7.9 393 7.9 256z"/><path fill="#37759B" d="M431.4 80.6c96.9 96.9 96.9 253.9 0 350.8s-254 96.9-350.8 0L431.4 80.6z"/><path fill="#306B81" d="M501.6 290.6l-91-91h-136l-55.2-55.2-19.4 19.4-19.5-19.5-31.6 31.7 23.5 23.5h-80v114.2l189.1 189.1c113.6-11.6 204.5-99.9 220.1-212.2z"/><path id="Digg_1_" fill-rule="evenodd" clip-rule="evenodd" fill="#FFF" d="M148.8 144.4v56.5H92.3v113h88.3V144.5h-31.8zm-24.7 141.3v-56.5h24.7v56.5h-24.7zm63.5-84.8h31.8v113h-31.8v-113zm0-56.5h31.8v31.8h-31.8v-31.8zm130.7 56.5h-84.7v112.9h53v24.7h-53v31.8h84.7V200.9zm-53 84.8v-56.5h21.2v56.5h-21.2zm144.8-84.8h-84.7v112.9h56.5v24.7h-56.5v31.8h84.7V200.9zm-28.3 84.8h-24.7v-56.5h24.7v56.5z"/><metadata><rdf:RDF xmlns:rdf="http://www.w3.org/1999/02/22-rdf-syntax-ns#" xmlns:rdfs="http://www.w3.org/2000/01/rdf-schema#" xmlns:dc="http://purl.org/dc/elements/1.1/"><rdf:Description about="https://iconscout.com/legal#licenses" dc:title="digg" dc:description="digg" dc:publisher="Iconscout" dc:date="2018-03-26" dc:format="image/svg+xml" dc:language="en"><dc:creator><rdf:Bag><rdf:li>Roundicons.com</rdf:li></rdf:Bag></dc:creator></rdf:Description></rdf:RDF></metadata></svg>