<?xml version="1.0" encoding="UTF-8"?><!DOCTYPE svg PUBLIC "-//W3C//DTD SVG 1.1//EN" "http://www.w3.org/Graphics/SVG/1.1/DTD/svg11.dtd"><svg xmlns="http://www.w3.org/2000/svg" xmlns:xlink="http://www.w3.org/1999/xlink" version="1.1" id="Layer_1" x="0px" y="0px" width="512px" height="512px" viewBox="0 0 512 512" xml:space="preserve"><path fill="#1B92D0" d="M7.9 256C7.9 119 119 7.9 256 7.9S504.1 119 504.1 256 393 504.1 256 504.1 7.9 393 7.9 256z"/><path fill="#1D8CB2" d="M431.4 80.6c96.9 96.9 96.9 253.9 0 350.8s-254 96.9-350.8 0L431.4 80.6z"/><path fill="#1F7F98" d="M502.8 281.1l-97.7-97.7-7.8 7.8-5.9-5.9-17 17-67.6-67.6-48.5 40L371.6 288l-3.6 3.6-116.8-116.8-37.2 19.8-9.1-9.1-5.2 5.2L159 150l-55.1 33.4 57.6 57.6-1.2-.7-52.3 43 61 61-4.8-1 153.2 153.2c99.3-25.3 174.9-110.7 185.4-215.4z"/><path id="Dropbox_2_" fill="#FFF" d="M348.9 229.9l-90.5-55.1 57.1-47.2 90.6 55.7-57.2 46.6zm-34 104.2l86.9-50.9-52.3-44.2-85.1 51.5 50.5 43.6zm-69.8-43.7l-84.7-50.3-52.7 43 86.9 50.9 50.5-43.6zm-80.9 36.4v16.4l86.9 53.3V295.3l-57.7 47.3-29.2-15.8zm181.1 0l-29.2 15.7-57.7-47.3v101.2l86.8-53.3v-16.3zm-94.2-152.1L194 127.5l-90.6 55.7 57.1 46.6 90.6-55.1z"/><metadata><rdf:RDF xmlns:rdf="http://www.w3.org/1999/02/22-rdf-syntax-ns#" xmlns:rdfs="http://www.w3.org/2000/01/rdf-schema#" xmlns:dc="http://purl.org/dc/elements/1.1/"><rdf:Description about="https://iconscout.com/legal#licenses" dc:title="dropbox" dc:description="dropbox" dc:publisher="Iconscout" dc:date="2018-03-26" dc:format="image/svg+xml" dc:language="en"><dc:creator><rdf:Bag><rdf:li>Roundicons.com</rdf:li></rdf:Bag></dc:creator></rdf:Description></rdf:RDF></metadata></svg>