<?xml version="1.0" encoding="UTF-8"?><!DOCTYPE svg PUBLIC "-//W3C//DTD SVG 1.1//EN" "http://www.w3.org/Graphics/SVG/1.1/DTD/svg11.dtd"><svg xmlns="http://www.w3.org/2000/svg" xmlns:xlink="http://www.w3.org/1999/xlink" version="1.1" id="Layer_1" x="0px" y="0px" width="512px" height="512px" viewBox="0 0 512 512" xml:space="preserve"><path fill="#5BA545" d="M7.9 256C7.9 119 119 7.9 256 7.9S504.1 119 504.1 256 393 504.1 256 504.1 7.9 393 7.9 256z"/><path fill="#539A44" d="M431.2 80.3c96.9 96.9 96.9 253.9 0 350.8s-254 96.9-350.8 0L431.2 80.3z"/><path fill="#518E42" d="M502.2 286.2L351.3 135.4l-45 45-21.5-21.5-22 22L181 99.1l-65.3 65.3 81.8 81.8-69.5 69.5 182.4 182.4c101.2-22.6 179.1-107.2 191.8-211.9z"/><path id="Evernote_3_" fill-rule="evenodd" clip-rule="evenodd" fill="#FFF" d="M168 165l-52.7-.1 66-66.4v53.6L168 165zm186.6-26.4c-5.6-9.7-35-20.8-50.2-20.8h-39.3S252.5 95 222.8 95c-29.7 0-27.7 13.2-27.7 24.5v45.7l-13.5 14.2h-62.1S102 191 102 216s7.8 112.2 59.9 120.3c61.7 9.6 72.3-19.1 72.3-22.6 0-14.5.4-36.5.4-36.5s18.1 34.5 45.3 34.5 43.1 15.7 43.1 31.8v29.9s-1 18.6-17 18.6h-34.2s-11.2-8.8-11.2-20.9c0-12.1 5.5-15.4 11.9-15.4s11.7.7 11.7.7v-25.5s-51.7-.3-51.7 39.2c0 39.6 27 49.7 48.7 49.7h35.3s63.7-8.2 63.7-134.1c-.1-125.7-20-137.4-25.6-147.1zm-63.4 112.9s3.1-20.8 15.1-20.8 28.6 27.7 28.6 27.7-37.7-6.9-43.7-6.9z"/><metadata><rdf:RDF xmlns:rdf="http://www.w3.org/1999/02/22-rdf-syntax-ns#" xmlns:rdfs="http://www.w3.org/2000/01/rdf-schema#" xmlns:dc="http://purl.org/dc/elements/1.1/"><rdf:Description about="https://iconscout.com/legal#licenses" dc:title="evernote" dc:description="evernote" dc:publisher="Iconscout" dc:date="2018-03-26" dc:format="image/svg+xml" dc:language="en"><dc:creator><rdf:Bag><rdf:li>Roundicons.com</rdf:li></rdf:Bag></dc:creator></rdf:Description></rdf:RDF></metadata></svg>