<?xml version="1.0" encoding="UTF-8"?><!DOCTYPE svg PUBLIC "-//W3C//DTD SVG 1.1//EN" "http://www.w3.org/Graphics/SVG/1.1/DTD/svg11.dtd"><svg xmlns="http://www.w3.org/2000/svg" xmlns:xlink="http://www.w3.org/1999/xlink" version="1.1" id="Layer_1" x="0px" y="0px" width="512px" height="512px" viewBox="0 0 512 512" xml:space="preserve"><path fill="#E1E1E1" d="M7.9 256C7.9 119 119 7.9 256 7.9S504.1 119 504.1 256 393 504.1 256 504.1 7.9 393 7.9 256z"/><path fill="#D5D5D5" d="M431.4 80.6c96.9 96.9 96.9 254 0 350.8-96.9 96.9-254 96.9-350.8 0L431.4 80.6z"/><path fill="#CCCBCB" d="M496.1 318.7L379.6 202.2l-80.3 80.3-76.4-76.4-91.2 91.2 196.1 196.1c82.3-24.8 146.5-91.1 168.3-174.7z"/><path id="Flickr_3_" fill="#3A58A6" d="M177.5 187c-35.9 0-65 28.8-65 64.4 0 35.6 29.1 64.4 65 64.4s65-28.8 65-64.4c-.1-35.5-29.1-64.4-65-64.4z"/><path fill="#E62D7E" d="M402.4 251.5c0 35.6-29.1 64.4-65 64.4s-65-28.8-65-64.4c0-35.6 29.1-64.4 65-64.4 35.9-.1 65 28.8 65 64.4z"/><metadata><rdf:RDF xmlns:rdf="http://www.w3.org/1999/02/22-rdf-syntax-ns#" xmlns:rdfs="http://www.w3.org/2000/01/rdf-schema#" xmlns:dc="http://purl.org/dc/elements/1.1/"><rdf:Description about="https://iconscout.com/legal#licenses" dc:title="flickr" dc:description="flickr" dc:publisher="Iconscout" dc:date="2018-03-26" dc:format="image/svg+xml" dc:language="en"><dc:creator><rdf:Bag><rdf:li>Roundicons.com</rdf:li></rdf:Bag></dc:creator></rdf:Description></rdf:RDF></metadata></svg>