<?xml version="1.0" encoding="UTF-8"?><!DOCTYPE svg PUBLIC "-//W3C//DTD SVG 1.1//EN" "http://www.w3.org/Graphics/SVG/1.1/DTD/svg11.dtd"><svg xmlns="http://www.w3.org/2000/svg" xmlns:xlink="http://www.w3.org/1999/xlink" version="1.1" id="Layer_1" x="0px" y="0px" width="512px" height="512px" viewBox="0 0 512 512" xml:space="preserve"><path fill="#4077B5" d="M174.8 284.7c-9.5-12.1-20.3-25-20.3-45.9 0-11.5 3.4-18.2 6.8-26.3-7.5.7-14.9 1.3-21.6 1.3-54.6 0-91.1-31.1-105.4-69.2C17.5 178.2 7.9 216 7.9 256c0 27.7 4.6 54.2 13 79.1 6.7-6.9 15-13.5 24.9-19.4 41.9-25.6 98.6-29 129-31z"/><path fill="#EDC92C" d="M107.8 454.9c17.9 7.2 39.6 11.3 64.3 11.3 64.8 0 99.3-31 99.3-72.9 0-34.4-22.3-52.6-73.6-89.1-5.4-.7-8.8-.7-15.6-.7-6.1 0-42.5 1.3-70.9 10.8-14.8 5.4-58.1 21.6-58.1 69.5 0 6.4.9 12.5 2.5 18.4 14.6 20.1 32.2 37.9 52.1 52.7z"/><path fill="#F3C716" d="M107.8 454.9c17.9 7.2 39.6 11.3 64.3 11.3 64.8 0 99.3-31 99.3-72.9 0-34.4-22.3-52.6-73.6-89.1-5.4-.7-8.8-.7-15.6-.7-6.1 0-42.5 1.3-70.9 10.8-14.8 5.4-58.1 21.6-58.1 69.5 0 6.4.9 12.5 2.5 18.4 14.6 20.1 32.2 37.9 52.1 52.7z"/><path fill="#4077B5" d="M87 74.9c0 45.2 26.3 120.1 84.4 120.1 16.9 0 35.1-8.1 46-18.9 15.5-15.5 16.9-37.1 16.9-49.3 0-35.4-15.5-85.2-45.6-109.6C150.1 28.1 115.5 48 87 74.5v.4z"/><path fill="#ED2A26" d="M256 7.9c-2.1 0-4.2.1-6.3.2 16.5 13.9 43.9 40.5 43.9 87.7 0 49.9-28.4 73.5-56.7 95.8-8.8 8.8-18.9 18.2-18.9 33.1 0 14.9 10.1 22.9 17.5 29l24.3 18.9c29.7 25 56.7 47.9 56.7 94.4 0 55.7-47.4 112-137.7 124.8 24.3 7.9 50.2 12.3 77.1 12.3C392.9 504.1 504 393 504 256 504.1 119 393 7.9 256 7.9z"/><path opacity="0.1" d="M431.4 80.6c96.9 96.9 96.9 254 0 350.8-96.9 96.9-254 96.9-350.8 0L431.4 80.6z"/><path fill="#118241" d="M218 224.7c1.5 14.8 10.1 22.9 17.5 29l24.3 18.9c29.7 25 56.7 47.9 56.7 94.4 0 55.7-47.4 112-137.7 124.8 24.3 7.9 50.2 12.3 77.1 12.3C392.9 504.1 504 393 504 256c0-8.9-.7-21.4-2.2-32.4-1.7-12.7-4.1-23.3-4.1-23.3-66.8-69.3-181-51.1-241.6-20.8-29.9 15.1-39.1 35.3-38.1 45.2z"/><path fill="#FFF" d="M316.6 367c0-46.5-27-69.5-56.7-94.4l-24.3-18.9c-7.4-6.1-17.5-14.2-17.5-29s10.1-24.3 18.9-33.1c28.3-22.3 56.7-45.9 56.7-95.8 0-47.2-27.5-73.8-43.9-87.7-21.1.5-41.6 3.7-61.1 9.2 30.1 24.3 45.6 74.1 45.6 109.6 0 12.2-1.4 33.7-16.9 49.3-10.8 10.8-29.1 18.9-46 18.9-58.1-.1-84.4-75-84.4-120.2v-.4c-21.5 20-39.4 43.8-52.7 70.3C48.5 182.9 85.1 214 139.7 214c6.8 0 14.1-.7 21.6-1.3-3.4 8.1-6.8 14.8-6.8 26.3 0 20.9 10.8 33.7 20.3 45.9-30.4 2-87.1 5.4-129 31-9.9 5.9-18.2 12.5-24.9 19.4 8.2 24.3 20 46.9 34.8 67.2-1.6-5.9-2.5-12-2.5-18.4 0-47.9 43.2-64.1 58.1-69.5 28.4-9.5 64.8-10.8 70.9-10.8 6.8 0 10.1 0 15.6.7 51.3 36.4 73.6 54.7 73.6 89.1 0 41.8-34.5 72.9-99.3 72.9-24.7 0-46.4-4-64.3-11.3 21.3 15.9 45.3 28.4 71.2 36.9C269.2 479 316.6 422.7 316.6 367z"/><g fill="#FFF"><path d="M45.8 315.7c-9.9 5.9-18.2 12.5-24.9 19.4 8.2 24.3 20 46.9 34.8 67.2-1.6-5.9-2.5-12-2.5-18.4 0-47.9 43.2-64.1 58.1-69.5 24.7-8.2 55.5-10.3 67.1-10.7l-18-18c-31.8 2.4-78.7 8-114.6 30z"/><path d="M269.6 28c-6.9-8.5-14.1-15-19.9-19.9-15.5.4-30.6 2.2-45.2 5.3l39.9 39.9L269.6 28z"/><path d="M51.3 115.9c-6.3 9.2-12 18.8-17 28.8 5.3 14.2 13.7 27.4 25 38.4l29.6-29.6-37.6-37.6z"/></g><g><path fill="none" d="M188.6 17.3z"/><path fill="none" d="M76.9 84.4l.6-.6-.6.6z"/><path fill="none" d="M68.3 93.9l-.5.5.5-.5z"/><g opacity="0.15"><path d="M173.5 490c1 .4 2.1.7 3.1 1-1-.4-2-.7-3.1-1z"/><path d="M178.9 491.8s.1 0 0 0c-.7-.3-1.5-.5-2.3-.8.8.3 1.5.5 2.3.8z"/></g></g><g opacity="0.15"><path d="M174.8 284.7c-9.5-12.1-20.3-25-20.3-45.9 0-11.5 3.4-18.2 6.8-26.3-7.5.7-14.9 1.3-21.6 1.3-34.3 0-61.4-12.2-80.4-30.8L162 285.7c5.2-.4 8.5-.7 12.8-1z"/><path d="M171.4 195c16.9 0 35.1-8.1 46-18.9 15.5-15.5 16.9-37.1 16.9-49.3 0-35.4-15.5-85.2-45.6-109.6C125.8 34 87 74.5 87 74.5v.4c0 45.2 26.3 120.1 84.4 120.1z"/><path d="M271.4 393.3c0-34.4-22.3-52.6-73.6-89.1-5.4-.7-8.8-.7-15.6-.7-6.1 0-42.5 1.3-70.9 10.8-14.8 5.4-58.1 21.6-58.1 69.5 0 6.4.9 12.5 2.5 18.4 14.7 20 32.2 37.8 52.1 52.6 17.9 7.2 39.6 11.3 64.3 11.3 64.8.1 99.3-30.9 99.3-72.8z"/><path d="M269.6 28c12.5 15.4 24 37.3 24 67.8 0 49.9-28.4 73.5-56.7 95.8-8.8 8.8-18.9 18.2-18.9 33.1 0 14.9 10.1 22.9 17.5 29l24.3 18.9c29.7 25 56.7 47.9 56.7 94.4 0 55.7-47.4 111.9-137.6 124.8 24.2 7.9 50.1 12.3 77 12.3 134.9 0 244.6-107.7 247.9-241.8L269.6 28z"/></g><metadata><rdf:RDF xmlns:rdf="http://www.w3.org/1999/02/22-rdf-syntax-ns#" xmlns:rdfs="http://www.w3.org/2000/01/rdf-schema#" xmlns:dc="http://purl.org/dc/elements/1.1/"><rdf:Description about="https://iconscout.com/legal#licenses" dc:title="google" dc:description="google" dc:publisher="Iconscout" dc:date="2018-03-26" dc:format="image/svg+xml" dc:language="en"><dc:creator><rdf:Bag><rdf:li>Roundicons.com</rdf:li></rdf:Bag></dc:creator></rdf:Description></rdf:RDF></metadata></svg>