<?xml version="1.0" encoding="UTF-8"?><!DOCTYPE svg PUBLIC "-//W3C//DTD SVG 1.1//EN" "http://www.w3.org/Graphics/SVG/1.1/DTD/svg11.dtd"><svg xmlns="http://www.w3.org/2000/svg" xmlns:xlink="http://www.w3.org/1999/xlink" version="1.1" id="Layer_1" x="0px" y="0px" width="512px" height="512px" viewBox="0 0 512 512" xml:space="preserve"><path fill="#CC3731" d="M7.9 256C7.9 119 119 7.9 256 7.9S504.1 119 504.1 256 393 504.1 256 504.1 7.9 393 7.9 256z"/><path fill="#BC2B2A" d="M431.4 80.6c96.9 96.9 96.9 253.9 0 350.8s-254 96.9-350.8 0L431.4 80.6z"/><path fill="#A52728" d="M502 287.6L360.1 145.7l-29.4 29.4-31.3-31.3-39.8 7.3-13.7 5.8-44.4-8.4-39.8 24.8-7.6 75.4 62 62-38.1 8.1-36.6 17.6-9.6 58.5 108.7 108.7c5.1.3 10.3.5 15.5.5 126.3 0 230.5-94.4 246-216.5z"/><g fill="#FFF"><path d="M254.6 156.6c2.3 1.4 4.9 3.5 7.7 6.2 2.7 2.8 5.4 6.3 8 10.5 2.5 3.9 4.7 8.5 6.7 13.8 1.6 5.3 2.4 11.5 2.4 18.6-.2 13-3.1 23.4-8.6 31.2-2.7 3.8-5.6 7.3-8.6 10.5-3.4 3.2-6.9 6.4-10.7 9.7-2.2 2.2-4.2 4.8-6 7.6-2.2 3-3.2 6.4-3.2 10.3 0 3.8 1.1 6.9 3.3 9.4 1.9 2.4 3.7 4.4 5.5 6.2l12.3 10.1c7.7 6.3 14.4 13.2 20.2 20.7 5.4 7.7 8.3 17.7 8.5 30.2 0 17.6-7.8 33.2-23.3 46.8-16.1 14.1-39.4 21.3-69.8 21.8-25.5-.2-44.5-5.7-57-16.3-12.7-9.9-19-21.8-19-35.6 0-6.7 2.1-14.2 6.2-22.5 4-8.2 11.2-15.5 21.7-21.8 11.8-6.7 24.1-11.2 37.1-13.5 12.8-1.9 23.5-2.9 32-3.2-2.6-3.5-5-7.1-7-11.1-2.4-3.8-3.6-8.4-3.6-13.7 0-3.2.5-5.9 1.4-8 .8-2.3 1.5-4.3 2.2-6.2-4.1.5-8 .7-11.7.7-19.4-.2-34.1-6.3-44.3-18.3-10.6-11.1-15.9-24.1-15.9-38.8 0-17.9 7.5-34 22.6-48.6 10.3-8.5 21.1-14 32.2-16.7 11-2.2 21.4-3.4 31-3.4h72.7L277 156.6h-22.4zm14.1 209.2c0-9.2-3-17.3-9-24.1-6.4-6.5-16.3-14.5-29.9-23.9-2.3-.2-5-.4-8.2-.4-1.9-.2-6.6 0-14.2.7-7.5 1.1-15.2 2.8-23.1 5.1-1.9.7-4.4 1.8-7.8 3.2-3.4 1.5-6.8 3.7-10.2 6.6-3.4 3-6.2 6.6-8.5 11-2.7 4.6-4 10.2-4 16.7 0 12.8 5.8 23.3 17.3 31.6 11 8.3 26 12.5 45.2 12.8 17.1-.2 30.2-4 39.2-11.4 8.8-7.2 13.2-16.5 13.2-27.9zM218 259.3c9.6-.4 17.5-3.8 23.9-10.3 3.1-4.6 5.1-9.4 5.9-14.2.5-4.9.8-8.9.8-12.3 0-14.3-3.7-28.8-11-43.3-3.4-7-8-12.7-13.6-17.1-5.7-4.1-12.3-6.3-19.8-6.6-9.9.2-18 4.2-24.6 11.9-5.5 8-8.1 17.1-7.9 27 0 13.1 3.8 26.8 11.5 41 3.7 6.6 8.5 12.3 14.4 16.9 6.1 4.7 12.8 7 20.4 7z"/><path d="M398 183.2h-38.2V145h-18.4v38.2h-38.2v18.5h38.2v38.1h18.4v-38.1H398z"/></g><metadata><rdf:RDF xmlns:rdf="http://www.w3.org/1999/02/22-rdf-syntax-ns#" xmlns:rdfs="http://www.w3.org/2000/01/rdf-schema#" xmlns:dc="http://purl.org/dc/elements/1.1/"><rdf:Description about="https://iconscout.com/legal#licenses" dc:title="google,plus" dc:description="google,plus" dc:publisher="Iconscout" dc:date="2018-03-26" dc:format="image/svg+xml" dc:language="en"><dc:creator><rdf:Bag><rdf:li>Roundicons.com</rdf:li></rdf:Bag></dc:creator></rdf:Description></rdf:RDF></metadata></svg>