<?xml version="1.0" encoding="UTF-8" standalone="no"?><!-- Generator: Gravit.io --><svg xmlns="http://www.w3.org/2000/svg" xmlns:xlink="http://www.w3.org/1999/xlink" style="isolation:isolate" viewBox="251.01 297.912 30.347 34.754" width="30.347pt" height="34.754pt"><path d=" M 270.516 328.839 L 270.906 329.072 L 271.158 329.27 L 270.375 329.256 L 268.072 329.21 L 267.243 328.75 L 265.935 327.02 L 266.491 326.416 L 267.813 325.792 L 268.457 327.828 L 268.825 328.566 L 270.516 328.839 Z  M 276.628 305.24 L 278.469 305.591 L 280.005 305.406 L 280.988 305.344 L 281.357 305.591 L 281.294 304.67 L 280.926 303.072 L 279.821 301.66 L 278.224 300.493 L 277.006 300.187 L 276.995 300.124 L 276.319 299.203 L 276.025 299.069 L 273.739 298.035 L 272.019 297.912 L 269.993 298.71 L 268.087 302.028 L 267.78 303.625 L 267.659 305.529 L 266.123 307.433 L 265.629 308.601 L 265.384 309.154 L 261.269 312.778 L 259.857 315.051 L 259.549 315.604 L 255.679 318.429 C 255.78 318.682 257.615 318.272 258.273 318.118 C 258.417 318.083 258.504 318.06 258.504 318.06 L 255.373 320.703 L 253.958 322.545 L 253.345 323.467 L 251.01 325.617 L 251.809 327.029 L 252.916 327.828 L 256.232 325.801 L 259.365 325.002 L 261.023 325.249 L 262.006 325.739 L 262.614 326.537 L 262.614 326.536 L 262.989 327.029 L 264.402 327.828 L 264.613 327.727 L 266.368 329.441 L 266.551 330.086 L 267.197 331.099 L 269.786 332.28 L 269.792 332.374 L 270.315 332.528 L 270.667 332.666 L 270.229 332.239 L 270.791 332.16 L 273.14 331.652 L 273.201 331.625 L 273.524 331.714 L 273.954 331.775 L 274.031 331.836 L 273.877 331.529 L 273.611 331.438 L 273.861 331.324 L 273.861 331.324 L 274.154 331.191 L 273.693 330.269 L 273.221 329.65 L 273.221 329.65 L 273.181 329.597 L 273.263 329.594 L 273.617 329.655 L 273.431 329.424 L 273.024 329.391 L 272.956 329.302 L 271.201 329.271 L 271.006 328.881 L 274.784 328.996 L 275.729 329.232 L 275.927 329.417 L 276.434 329.649 L 276.388 329.325 L 276.14 329.079 L 276.243 328.903 L 276.243 328.903 L 276.933 327.706 L 276.958 327.469 L 277.287 327.436 L 277.631 327.529 L 277.541 327.275 L 276.984 327.198 L 276.995 327.09 L 274.599 326.722 L 272.081 326.784 L 269.993 326.846 L 269.148 325.205 L 271.037 324.45 L 276.074 321.194 L 279.207 318.06 L 279.927 316.62 L 280.005 316.463 L 280.435 313.761 C 280.435 313.761 280.251 311.857 280.251 311.672 C 280.251 311.489 279.083 309.215 279.083 309.215 L 277.916 308.109 L 277.118 307.679 L 276.454 305.627 L 276.468 305.621 L 276.628 305.24 Z " fill="rgb(0,0,0)"/></svg>