<?xml version="1.0" encoding="UTF-8" standalone="no"?><!-- Generator: Gravit.io --><svg xmlns="http://www.w3.org/2000/svg" xmlns:xlink="http://www.w3.org/1999/xlink" style="isolation:isolate" viewBox="335.33 98.094 31.292 64.734" width="31.292pt" height="64.734pt"><path d=" M 341.352 157.285 L 341.03 157.21 L 341.03 157.209 L 340.984 156.982 L 341.583 157.077 L 341.352 157.285 Z  M 343.76 153.537 L 342.469 153.885 L 341.971 153.979 L 343.686 153.263 C 343.686 153.263 343.994 153.333 344.348 153.415 L 343.76 153.537 Z  M 345.225 152.122 L 346.119 151.973 L 346.246 151.617 L 346.466 151.576 L 346.961 150.435 L 347.508 149.341 L 347.559 148.917 L 347.906 148.697 L 347.835 148.104 L 351.083 149.855 L 352.704 151.306 C 352.723 151.409 352.746 151.526 352.769 151.649 L 351.728 151.278 L 350.288 151.476 L 348.501 151.874 L 346.913 152.221 L 346.156 152.631 L 345.919 152.618 L 345.026 152.469 L 344.629 152.32 L 345.225 152.122 Z  M 366.273 148.051 L 364.684 148.299 L 363.841 148.944 L 362.336 149.528 L 362.07 148.465 L 362.467 148.135 L 361.872 146.744 C 361.872 146.744 360.283 139.992 360.283 139.793 C 360.283 139.595 360.547 138.934 360.547 138.934 L 359.886 137.279 L 358.76 133.771 L 355.981 127.615 L 356.312 127.151 L 354.325 125.232 L 354.392 124.703 L 353.267 123.511 L 352.34 122.32 L 351.414 119.805 L 351.016 118.48 L 349.477 115.816 L 350.222 115.965 L 353.068 116.429 L 354.79 115.767 L 354.59 115.303 C 354.59 115.303 353.201 115.237 353.002 115.237 C 352.803 115.237 350.95 114.972 350.751 114.972 C 350.552 114.972 348.567 114.443 348.567 114.443 L 347.782 114.594 L 347.77 114.586 L 348.369 114.244 L 349.824 114.178 L 351.745 114.311 L 354.126 113.516 L 356.179 112.457 L 356.908 111.199 L 356.861 111.176 L 356.861 111.176 L 356.51 111 L 355.716 111.795 L 353.995 112.391 L 352.273 112.258 L 349.958 112.258 L 348.634 112.391 L 349.361 111.861 L 351.545 110.802 L 354.392 109.743 L 355.981 108.088 L 356.112 106.5 L 356.026 106.5 L 355.649 106.5 L 354.988 107.625 L 353.598 108.221 L 351.148 109.147 L 349.119 109.575 L 350.552 107.228 L 351.414 104.978 L 351.745 102.198 L 351.225 101.391 L 351.225 101.391 L 351.148 101.271 L 350.487 101.072 L 350.552 102.264 L 349.891 105.176 L 348.435 107.625 L 347.177 109.346 L 346.569 110.027 L 346.582 110.008 L 347.707 107.758 C 347.707 107.758 348.17 105.971 348.236 105.772 C 348.302 105.573 348.501 103.786 348.501 103.786 L 348.567 101.271 L 348.17 99.947 L 347.64 99.55 L 347.707 100.212 L 347.906 102.33 L 347.375 105.838 L 346.382 108.353 L 345.191 109.611 L 344.641 110.234 L 344.59 110.207 L 343.399 111.663 L 343.142 111.893 L 343.47 111.199 L 344.529 109.876 L 345.523 108.486 L 346.317 106.434 L 346.582 104.382 L 346.449 102.065 L 346.119 99.352 L 345.523 98.094 L 345.352 98.14 L 345.352 98.14 L 344.794 98.292 L 345.125 98.888 L 345.324 101.006 L 345.191 103.125 L 344.529 106.169 L 343.736 107.691 L 342.542 109.32 L 342.345 108.817 L 342.208 108.936 L 342.676 108.088 L 343.537 105.904 L 343.801 102.727 L 343.073 100.542 L 341.618 98.623 L 340.889 98.557 L 340.955 99.484 L 341.816 100.742 L 342.279 101.999 L 342.194 102.853 L 342.081 102.33 L 340.691 107.426 L 339.632 109.677 L 337.778 112.258 L 337.315 113.979 L 337.712 116.098 L 337.884 116.289 L 336.454 117.554 L 335.395 119.871 L 335.33 122.253 L 336.057 123.71 L 336.586 124.305 L 336.837 124.139 L 336.837 124.139 L 336.984 124.041 L 336.454 123.048 L 336.792 121.7 L 337.182 122.717 L 338.109 123.445 L 338.901 123.588 L 338.771 124.106 L 339.037 125.695 L 337.249 128.674 L 337.712 135.425 L 340.625 142.11 L 342.014 143.5 L 342.544 145.867 L 342.779 146.185 L 342.793 146.711 L 343.041 148.2 L 343.535 148.739 L 343.586 149.044 L 344.232 150.235 L 344.828 151.129 L 344.89 151.359 L 344.877 151.377 L 343.834 151.526 L 343.09 151.676 L 342.296 152.072 L 341.253 152.568 L 340.161 153.313 L 339.375 154.098 L 340.756 154.207 L 338.871 154.058 L 336.785 154.008 L 336.984 156.441 L 337.679 156.788 L 339.545 156.788 L 339.665 157.384 L 340.559 157.881 L 340.636 157.795 L 341.004 157.98 L 341.75 157.682 L 342 157.143 L 342.892 157.285 L 344.779 156.838 L 346.217 156.342 L 348.054 155.199 L 348.073 155.19 L 348.163 155.271 L 348.302 155.795 L 347.956 156.688 L 347.757 157.285 L 348.501 156.987 L 348.949 156.093 L 349.066 155.505 L 349.444 155.547 L 349.62 154.844 L 349.841 154.803 L 351.132 154.207 L 353.172 153.731 C 353.219 153.958 353.254 154.118 353.267 154.158 C 353.333 154.356 354.591 158.195 354.722 158.46 C 354.855 158.724 356.114 160.975 356.114 160.975 L 357.172 161.372 L 358.958 162.498 L 360.878 162.828 L 362.269 161.769 L 363.394 161.042 L 363.857 160.776 L 363.196 159.254 L 362.136 156.475 L 361.12 153.37 L 361.208 153.032 L 362.402 153.562 L 363.196 153.23 L 362.826 151.625 L 365.033 150.583 L 366.471 150.435 L 366.622 149.193 L 366.273 148.051 Z " fill="rgb(0,0,0)"/></svg>