<?xml version="1.0" encoding="UTF-8" standalone="no"?><!-- Generator: Gravit.io --><svg xmlns="http://www.w3.org/2000/svg" xmlns:xlink="http://www.w3.org/1999/xlink" style="isolation:isolate" viewBox="333.208 164.987 97.904 52.624" width="97.904pt" height="52.624pt"><path d=" M 416.429 211.305 L 414.475 212.077 L 413.981 212.237 L 413.494 209.306 L 413.189 203.667 L 414.162 201.29 L 414.591 201.925 L 415.967 205.842 L 416.401 210.982 L 416.401 210.982 L 416.429 211.305 Z  M 333.26 183.371 L 334.631 186.322 L 334.631 186.322 L 334.767 186.615 L 334.838 187.941 L 339.187 188.372 L 339.75 188.485 L 339.75 188.485 L 341.709 188.875 L 341.709 188.875 L 345.744 189.681 L 350.422 190.093 L 354.751 190.191 L 357.964 191.182 L 359.327 191.68 L 360.559 199.194 L 361.241 205.644 L 360.375 211.178 L 359.835 212.421 L 359.835 212.421 L 359.784 212.541 L 357.766 213.042 L 357.766 213.042 L 355.517 213.603 L 354.97 215.793 L 359.483 216.216 L 366.229 214.851 L 367.568 211.954 L 368.736 210.57 L 368.859 211.215 L 368.335 213.125 L 368.335 213.125 L 368.165 213.747 L 366.229 214.851 L 364.311 216.285 L 364.382 217.611 L 364.739 217.592 C 364.74 217.592 364.74 217.592 364.74 217.592 L 366.704 217.486 L 371.521 217.391 L 378.302 216.692 L 378.553 215.182 L 377.828 214.057 L 379.091 212.825 L 380.467 210.588 L 380.831 208.074 L 382.045 202.853 L 392.101 204.305 L 393.98 204.243 L 395.131 204.976 L 395.09 204.208 L 397.209 204.138 L 397.846 204.415 L 399.02 204.6 L 398.675 204.09 L 399.381 204.067 L 400.844 204.501 L 400.868 203.864 L 402.17 203.613 L 402.717 203.762 L 403.074 210.368 L 400.729 211.222 L 400.729 211.222 L 399.323 211.735 L 398.148 214.625 L 401.465 214.446 L 408.292 214.577 L 410.901 214.216 L 411.512 214.132 L 410.848 215.764 L 413.686 215.944 L 418.145 215.371 L 423.819 215.729 L 428.592 214.806 L 429.534 213.757 L 429.043 212.767 L 429.043 212.767 L 428.413 211.49 L 428.145 200.361 L 428.032 195.211 L 429.524 188.978 L 427.899 182.348 L 430.915 183.917 L 431.112 181.412 L 430.057 177.311 L 427.917 174.599 L 424.684 173.277 L 423.269 173.265 L 422.475 172.395 L 416.29 168.738 L 408.788 165.317 L 402.617 164.987 L 394.24 166.936 L 388.204 169.091 L 382.112 170.252 L 376.568 169.221 L 372.028 168.303 L 369.201 168.289 L 363.625 169.754 L 353.855 173.609 L 348.467 174.993 L 348.118 174.38 L 347.025 174.938 L 346.656 175.426 L 343.515 176.164 L 341.968 177.544 L 341.968 177.544 L 341.929 177.581 L 340.221 179.833 L 335.982 181.394 L 334.277 181.998 L 334.277 181.998 L 333.208 182.375 L 333.26 183.371 Z " fill="rgb(0,0,0)"/></svg>