<?xml version="1.0" encoding="UTF-8" standalone="no"?><!-- Generator: Gravit.io --><svg xmlns="http://www.w3.org/2000/svg" xmlns:xlink="http://www.w3.org/1999/xlink" style="isolation:isolate" viewBox="309.492 319.377 117.988 114.547" width="117.988pt" height="114.547pt"><path d=" M 424.264 372.17 L 420.372 369.563 L 416.736 370.172 L 414.786 368.096 L 406.662 365 L 399.215 365.49 L 381.613 365.49 L 378.567 365.326 L 373.659 364.838 L 371.12 363.697 L 367.227 361.905 L 365.928 361.964 L 365.928 361.964 L 363.967 362.055 C 363.967 362.054 363.967 362.054 363.967 362.054 L 363.672 362.068 L 359.272 364.511 L 353.348 365.815 L 347.424 365.49 L 342.59 363.627 L 342.59 363.627 L 340.655 362.882 L 337.814 362.509 L 338.039 362.217 L 338.296 358.992 L 339.301 358.483 L 344.716 357.343 L 352.677 354.542 L 354.703 355.224 L 358.087 355.224 L 363.165 354.898 L 365.704 353.757 L 365.365 352.455 L 363.502 352.943 L 359.272 353.269 L 356.056 352.617 L 354.807 352.546 L 356.734 350.009 L 358.724 342.934 L 361.641 341.375 L 365.196 339.093 L 368.581 338.605 L 371.627 339.256 L 371.965 337.953 L 370.273 336.812 L 367.566 335.998 L 366.38 334.857 L 366.719 331.923 L 366.719 329.969 L 365.704 330.62 L 364.688 336.487 L 361.472 338.442 L 358.658 340.29 L 357.749 334.042 L 356.734 333.581 L 356.734 331.272 L 356.734 325.732 L 358.087 321.496 L 357.58 321.007 L 355.379 324.428 L 354.025 329.48 L 354.025 332.349 L 351.656 331.272 L 349.336 330.658 L 349.456 328.828 L 349.963 325.244 L 351.994 323.125 L 353.517 321.984 C 353.179 321.333 351.994 321.822 351.994 321.822 L 349.793 322.799 L 347.763 320.68 L 346.409 319.377 L 345.563 320.192 L 346.917 321.984 L 347.424 324.265 L 346.427 329.887 L 344.886 329.48 L 341.163 328.013 L 339.808 323.776 L 338.962 323.94 L 338.624 328.828 L 342.516 331.435 L 349.963 333.39 L 354.703 335.671 L 355.718 342.352 L 352.333 350.662 L 348.61 352.455 L 343.023 353.757 L 336.931 355.876 L 333.715 358.971 L 330.668 357.343 L 327.736 356.953 L 328.129 353.921 L 327.96 351.151 L 326.945 350.826 L 326.945 352.128 L 326.268 355.224 L 325.27 356.719 L 322.444 356.884 L 323.39 354.41 L 322.883 351.64 L 322.037 348.217 L 321.36 348.054 L 321.36 349.521 L 321.698 352.128 L 321.021 354.898 L 319.16 356.691 L 318.313 355.062 L 317.467 351.965 L 317.636 348.87 L 316.621 348.87 L 316.113 350.988 L 316.113 354.41 L 316.377 356.191 L 314.928 355.876 L 313.913 353.757 L 311.882 350.009 L 309.85 348.707 C 309.85 348.707 309.174 349.521 309.681 349.684 C 310.189 349.847 311.712 352.943 311.712 352.943 L 312.137 354.853 L 312.137 354.853 L 312.728 357.505 L 315.775 358.971 L 324.237 359.949 L 332.023 360.276 L 332.98 363.043 C 332.543 363.252 332.085 363.5 331.64 363.755 L 331.642 363.753 C 331.588 363.785 331.535 363.815 331.482 363.846 C 331.459 363.859 331.438 363.872 331.416 363.884 C 331.3 363.952 331.187 364.02 331.075 364.087 C 331.046 364.104 331.018 364.121 330.991 364.138 C 330.879 364.205 330.772 364.271 330.668 364.335 C 330.648 364.348 330.629 364.36 330.61 364.372 C 330.51 364.433 330.414 364.495 330.321 364.553 C 330.308 364.56 330.296 364.569 330.284 364.577 C 330.185 364.639 330.091 364.699 330.002 364.757 C 329.984 364.769 329.965 364.78 329.947 364.792 C 329.862 364.848 329.781 364.901 329.708 364.949 C 329.694 364.958 329.682 364.965 329.669 364.974 C 329.6 365.02 329.536 365.063 329.479 365.1 C 329.472 365.104 329.465 365.109 329.46 365.113 C 329.402 365.152 329.353 365.185 329.31 365.213 C 329.298 365.221 329.288 365.228 329.277 365.236 C 329.239 365.261 329.209 365.283 329.188 365.297 C 329.18 365.302 329.179 365.303 329.173 365.306 C 329.157 365.318 329.144 365.326 329.144 365.326 L 328.129 367.445 L 325.421 369.563 L 320.852 372.659 L 318.483 373.636 L 318.144 374.94 L 319.667 377.384 L 321.529 378.851 L 322.544 379.991 L 323.997 379.875 L 323.997 379.875 L 324.576 379.829 L 327.283 378.688 L 331.176 377.547 L 335.577 378.036 L 339.639 381.946 L 341.5 386.998 L 342.813 391.042 L 342.813 391.042 L 343.193 392.211 L 344.547 393.027 L 345.563 392.701 L 346.579 394.167 L 349.286 395.796 L 354.025 397.751 L 355.081 398.846 L 351.826 400.36 L 348.078 403.451 L 348.078 403.451 L 347.086 404.269 L 344.886 405.247 L 344.547 407.855 L 345.563 410.461 L 349.456 418.934 L 350.809 420.563 L 354.364 421.378 L 359.102 422.681 L 358.426 417.63 L 357.963 416.918 L 357.964 416.918 L 356.734 415.023 L 356.064 414.815 L 356.064 414.816 L 352.252 413.632 L 352.252 413.632 L 351.487 413.394 L 350.471 410.95 L 350.471 409.32 L 354.534 406.714 L 361.235 403.677 L 361.303 406.224 L 360.795 410.625 L 362.149 414.372 L 362.319 417.793 L 360.964 428.874 L 359.542 430.014 L 359.542 430.014 L 358.934 430.503 L 357.072 433.924 L 364.18 433.924 L 366.719 433.273 L 368.75 432.621 L 367.227 428.547 L 366.211 424.637 L 366.38 420.563 L 366.888 415.674 L 368.243 412.58 L 368.75 407.528 L 370.101 400.246 L 371.183 400.227 L 371.184 400.226 L 372.981 400.196 L 378.736 399.708 L 384.152 398.567 L 393.798 395.959 L 396.517 395.748 L 400.569 401.988 L 404.8 405.573 L 406.155 408.179 L 405.816 409.647 L 400.061 416.979 L 396.675 420.89 L 393.798 422.681 L 392.445 423.66 L 391.938 424.962 L 391.846 425.051 L 391.846 425.051 L 389.567 427.245 L 389.06 428.384 L 395.153 429.2 L 397.238 428.597 L 397.238 428.597 L 398.539 428.221 L 399.723 427.407 L 401.246 422.193 L 402.802 419.985 L 402.802 419.985 L 404.461 417.63 L 410.046 412.417 L 412.079 409.81 L 412.294 408.769 L 413.094 410.461 L 412.924 412.09 L 410.046 420.726 L 407.507 425.941 L 405.477 427.57 L 404.631 428.874 L 402.43 430.666 L 401.077 432.948 L 407.169 433.761 L 410.893 432.458 L 411.782 432.091 L 413.262 431.48 L 414.786 430.503 L 414.278 427.733 L 413.602 423.007 L 415.293 418.609 L 419.017 411.113 L 420.71 407.855 L 420.879 406.551 L 417.325 402.803 L 417.302 402.259 L 417.302 402.259 L 417.221 400.319 L 417.221 400.32 L 417.155 398.729 L 418.51 394.493 L 420.372 387.324 L 420.034 380.154 L 419.37 377.333 C 420.974 377.862 422.74 378.362 422.74 378.362 L 426.972 379.014 L 427.48 378.036 L 424.264 372.17 Z " fill="rgb(0,0,0)"/></svg>