<?xml version="1.0" encoding="UTF-8" standalone="no"?><!-- Generator: Gravit.io --><svg xmlns="http://www.w3.org/2000/svg" xmlns:xlink="http://www.w3.org/1999/xlink" style="isolation:isolate" viewBox="143.629 268.441 98.895 52.372" width="98.895pt" height="52.372pt"><path d=" M 241.987 313.221 L 242.524 312.516 L 241.249 310.882 L 240.471 310.669 L 240.631 309.617 L 239.461 308.099 L 236.588 306.955 L 231.096 306.477 L 228.672 306.413 L 228.477 305.531 L 225.749 302.854 L 220.672 299.02 L 216.638 295.383 L 202.781 289.946 L 188.569 285.692 L 179.176 281.06 L 170.643 277.366 L 167.846 276.187 L 164.696 272.891 L 160.192 270.112 L 160.192 270.112 L 159.442 269.648 L 152.745 268.441 L 148.518 268.998 L 147.557 270.41 L 147.338 270.145 L 146.417 270.627 L 145.723 272.622 L 145.34 276.055 L 145.684 276.861 L 145.131 278.525 L 144.43 281.551 L 143.629 286.674 L 143.913 291.437 L 144.672 294.958 L 144.952 294.927 L 144.952 294.927 L 145.053 294.916 L 145.026 293.409 L 145.223 288.311 L 145.495 285.024 L 146.782 279.49 L 147.368 277.801 L 148.098 278.132 L 148.563 278.123 L 147.922 280.059 L 146.829 283.945 L 146.334 287.987 L 145.987 292.406 L 146.395 296.007 L 146.754 296.012 L 146.754 296.012 L 146.995 296.014 L 147.104 293.017 L 147.848 286.729 L 148.94 282.843 L 149.934 280.334 L 150.233 283.933 L 150.149 289.031 L 151.106 294.328 L 151.67 298.405 L 152.403 302.041 L 154.51 308.44 L 155.069 308.994 C 154.028 309.202 152.206 309.61 152.206 309.61 L 150.45 310.28 L 147.971 310.316 L 147.7 311.354 L 149.26 311.651 L 152.262 311.638 L 155.625 311.943 L 157.715 312.189 L 158.436 311.682 L 158.565 311.719 L 158.565 311.719 L 160.004 312.12 L 159.768 313.221 L 159.252 314.661 L 159.772 315.584 L 160.256 315.87 L 160.256 315.87 L 163.717 317.904 L 173.151 320.813 L 174.84 320.779 L 175.213 320.007 L 174.684 319.308 L 175.256 319.109 L 175.868 318.011 L 176.68 317.486 L 177.18 316.383 L 175.756 315.53 L 172.627 315.049 L 172.706 314.712 L 179.122 315.515 L 179.122 315.514 L 179.842 315.605 L 184.772 316.131 L 189.27 316.188 L 202.859 314.41 L 208.89 313.787 L 216.55 312.573 L 216.55 312.573 L 219.169 312.157 L 226.208 312.481 L 226.249 312.464 L 227.881 312.746 L 232.475 313.18 L 233.803 313.692 L 235.907 314.463 L 239.143 315.062 L 239.52 314.179 L 241.446 313.93 L 241.624 313.698 L 241.624 313.698 L 241.987 313.221 L 241.987 313.221 Z " fill="rgb(0,0,0)"/></svg>