<?xml version="1.0" encoding="UTF-8" standalone="no"?><!-- Generator: Gravit.io --><svg xmlns="http://www.w3.org/2000/svg" xmlns:xlink="http://www.w3.org/1999/xlink" style="isolation:isolate" viewBox="289.118 297.653 39.654 40.35" width="39.654pt" height="40.35pt"><path d=" M 328.209 336.251 L 328.209 336.251 L 328.772 335.22 L 327.977 333.63 L 326.784 331.542 L 325.727 330.152 L 326.087 329.92 L 325.89 328.793 L 323.745 327.551 L 321.716 324.884 L 317.244 318.424 L 315.455 316.238 C 315.455 316.238 313.765 312.262 313.467 312.064 C 313.168 311.866 310.584 308.287 310.584 308.287 L 306.509 306.796 L 303.727 305.207 L 303.428 304.511 L 302.236 301.132 L 300.348 298.746 L 298.061 297.653 L 294.881 297.851 L 292.894 298.449 L 291.503 299.641 L 290.309 302.125 L 290.111 305.007 L 289.814 308.174 L 289.814 308.174 L 289.813 308.188 L 289.415 309.778 L 290.012 310.275 L 289.118 316.635 L 289.514 318.921 L 290.905 321.505 L 294.285 327.369 L 295.775 328.86 L 297.068 328.958 L 299.155 331.444 L 299.811 331.847 L 299.105 331.792 L 298.26 332.19 L 298.211 332.636 L 298.211 332.636 L 296.918 333.381 L 296.83 333.704 L 296.222 333.779 L 295.478 334.375 L 295.427 335.021 L 296.173 334.624 L 296.868 334.473 L 297.316 334.921 L 298.162 335.171 L 298.806 334.921 L 299.502 334.326 L 300.581 334.243 L 300.448 334.723 L 300.795 334.971 L 301.666 335.146 L 301.838 336.314 L 302.286 335.569 L 302.375 335.127 L 303.131 335.071 L 304.124 334.971 L 304.224 334.475 L 303.627 333.482 L 303.522 333.465 L 303.826 333.431 L 306.808 333.233 L 307.005 332.437 L 309.292 332.139 L 312.274 331.841 L 313.002 332.054 L 313.002 332.054 L 313.31 332.145 L 313.309 332.146 L 313.963 332.337 L 318.137 334.326 C 318.137 334.326 319.553 335.21 319.962 334.891 C 319.988 334.873 320.009 334.851 320.026 334.823 L 322.212 336.91 L 323.802 337.903 L 324.697 337.805 L 325.392 337.208 L 326.585 337.705 L 327.756 337.999 L 327.756 337.998 L 327.778 338.003 L 328.573 337.606 L 328.175 336.314 L 328.209 336.251 Z " fill="rgb(0,0,0)"/></svg>