<?xml version="1.0" encoding="UTF-8" standalone="no"?><!-- Generator: Gravit.io --><svg xmlns="http://www.w3.org/2000/svg" xmlns:xlink="http://www.w3.org/1999/xlink" style="isolation:isolate" viewBox="370.552 310.739 61.39 47.525" width="61.39pt" height="47.525pt"><path d=" M 431.052 348.921 L 425.936 344.326 L 423.638 342.545 L 420.672 336.911 L 418.745 332.389 L 416.965 329.571 L 415.368 328.726 L 414.371 327.272 L 411.553 326.532 L 406.363 326.902 L 398.653 326.605 L 394.5 325.641 L 392.424 324.751 L 390.794 322.083 L 389.163 318.747 L 386.79 315.781 L 384.862 314.001 L 383.157 313.112 L 382.898 313.159 L 382.898 313.159 L 382.676 313.199 L 381.376 310.961 L 380.561 310.739 L 380.042 311.777 L 379.833 313.716 L 379.079 313.853 L 376.04 315.855 L 375.223 317.412 L 374.779 318.598 L 373.984 319.147 L 373.984 319.147 L 370.701 321.416 L 370.552 322.231 L 370.998 322.825 L 371.158 322.922 L 371.158 322.922 L 372.88 323.977 L 372.93 324.009 L 372.93 324.009 L 373.296 324.233 L 374.483 324.159 L 375.965 323.936 L 376.341 324.008 L 376.341 324.008 L 377.522 324.233 L 378.263 326.086 L 378.115 328.013 L 378.708 328.236 L 378.559 329.274 L 378.263 329.719 L 379.079 329.422 L 378.93 330.239 L 379.45 330.09 L 379.005 331.203 L 379.375 332.462 L 379.82 332.389 L 380.339 332.241 L 380.191 333.352 L 380.042 334.539 L 380.635 334.464 L 381.081 336.169 L 381.6 337.875 L 382.267 338.987 L 383.083 338.987 L 383.38 339.729 L 384.013 340.363 L 384.417 346.549 L 384.492 352.777 L 384.713 354.704 L 383.454 355.15 L 382.637 356.114 L 382.786 356.929 L 383.937 356.828 L 383.898 356.855 L 383.75 357.893 L 385.306 358.264 L 387.977 358.042 L 388.644 356.558 L 389.237 355.743 L 389.83 350.257 L 390.794 346.698 L 391.609 344.77 L 391.461 343.583 L 391.879 342.118 L 391.879 342.119 L 391.906 342.027 L 395.242 343.509 L 398.356 343.806 L 402.508 343.065 L 405.634 342.873 L 406.215 344.176 L 408.291 347.217 L 410.071 349.07 L 409.625 351.219 L 407.772 353.888 L 406.66 354.037 L 405.993 354.26 L 405.77 356.04 L 407.548 356.114 L 409.773 356.04 L 411.331 352.852 L 413.258 349.738 L 413.704 348.996 L 413.063 347.928 L 414 348.477 L 414.963 350.924 L 413.629 355.447 L 413.613 355.472 L 413.613 355.472 L 413.406 355.817 L 412.294 355.817 L 411.553 356.336 L 411.182 357.818 L 413.924 357.967 L 415.706 357.375 L 416.224 355.669 L 417.335 351.739 L 418.078 350.702 L 417.41 348.254 L 416.594 345.215 L 416.897 344.124 C 417.179 344.753 417.388 345.224 417.41 345.289 C 417.484 345.512 419.337 348.254 419.337 348.254 L 421.339 349.663 L 423.146 350.187 L 423.144 350.185 L 429.792 352.11 L 431.645 351.886 L 431.942 350.478 L 431.052 348.921 Z " fill="rgb(0,0,0)"/></svg>