<?xml version="1.0" encoding="UTF-8" standalone="no"?><!-- Generator: Gravit.io --><svg xmlns="http://www.w3.org/2000/svg" xmlns:xlink="http://www.w3.org/1999/xlink" style="isolation:isolate" viewBox="213.69 389.439 73.626 42.446" width="73.626pt" height="42.446pt"><path d=" M 284.167 430.768 L 282.615 429.507 L 280.585 429.616 L 277.914 429.616 L 277.912 429.618 L 277.806 429.618 L 277.557 428.458 L 278.825 428.06 L 279.409 428.868 L 283.791 428.76 L 287.316 428.01 L 286.568 427.155 L 285.871 427.125 L 285.868 427.125 L 284.111 427.049 L 282.519 424.856 L 282.933 424.166 L 284.214 419.57 L 284.958 412.624 L 286.238 404.609 L 286.451 401.296 L 285.592 396.381 L 283.348 392.214 L 280.355 389.866 L 277.47 389.439 L 274.906 389.974 L 270.631 392.647 L 269.458 396.174 L 267.963 400.449 L 266.041 403.228 L 263.263 404.083 L 257.814 405.155 L 253.006 405.905 L 242.962 408.259 L 236.446 410.719 L 231.85 413.608 L 227.758 420.201 L 227.759 420.201 L 227.473 420.662 L 226.772 422.136 L 221.596 422.053 L 215.613 422.803 L 213.69 423.98 L 213.905 425.583 L 214.973 426.543 L 216.522 427.354 L 214.44 428.894 L 214.557 429.192 L 214.559 429.191 L 214.823 429.852 L 214.823 429.852 L 215.082 430.498 L 215.951 430.715 L 215.953 430.714 L 216.364 430.816 L 216.413 430.988 L 216.413 430.988 L 216.578 431.565 L 218.181 431.885 L 223.417 430.814 L 227.004 429.265 L 227.048 429.317 L 237.307 429.633 L 250.13 429.414 L 259.213 429.518 L 270.005 429.513 L 271.209 429.42 L 271.93 430.794 L 272.572 431.65 L 277.38 431.861 L 281.121 431.86 L 284.005 431.645 L 284.326 430.896 L 284.167 430.768 L 284.167 430.768 Z " fill="rgb(0,0,0)"/></svg>