<?xml version="1.0" encoding="UTF-8" standalone="no"?><!-- Generator: Gravit.io --><svg xmlns="http://www.w3.org/2000/svg" xmlns:xlink="http://www.w3.org/1999/xlink" style="isolation:isolate" viewBox="225.741 319.792 77.374 62.235" width="77.374pt" height="62.235pt"><path d=" M 301.247 363.616 L 295.912 351.343 L 290.841 345.606 L 287.908 344.085 L 287.24 343.206 L 279.902 341.872 L 270.031 342.005 L 260.025 341.072 L 258.562 340.058 L 258.562 340.058 L 258.291 339.871 L 254.289 337.336 L 253.455 336.699 L 253.455 336.699 L 252.021 335.602 L 247.619 328.398 L 241.882 323.862 L 241.506 323.802 L 241.506 323.802 L 240.55 323.648 L 239.081 320.259 L 237.679 319.792 C 237.679 319.792 237.147 320.459 237.147 320.66 C 237.147 320.793 237.176 322.385 237.196 323.427 L 235.212 324.263 L 232.543 326.129 L 232.174 326.868 L 232.174 326.868 L 231.342 328.531 L 226.535 329.395 L 226.535 329.394 L 226.141 329.465 L 225.741 330.533 L 225.905 331.222 L 225.905 331.222 L 226.408 333.334 L 228.141 334.535 L 233.079 335.602 L 234.812 336.802 L 234.91 337.884 L 234.91 337.884 L 235.212 341.206 L 235.826 343.157 L 235.826 343.157 L 236.679 345.875 L 238.546 349.476 L 240.015 354.412 L 242.822 358.496 C 243.31 361.256 244.283 366.417 244.283 366.417 L 245.35 373.487 L 243.883 377.089 L 241.349 377.623 L 240.548 379.625 L 243.429 379.768 L 243.216 379.892 L 243.083 381.626 L 244.417 382.027 L 247.335 381.932 L 247.335 381.932 L 248.553 381.893 L 249.753 378.692 L 251.087 375.223 L 251.488 369.086 L 252.554 362.95 L 253.136 362.993 L 253.136 362.993 L 256.156 363.216 L 264.161 362.55 L 274.033 360.815 L 276.701 360.149 L 277.729 359.955 L 280.036 364.683 L 282.437 367.619 L 284.572 370.153 L 284.706 372.954 L 283.771 377.623 L 282.303 378.157 L 281.502 378.557 L 281.636 379.891 L 285.504 380.025 L 286.576 380.041 L 286.973 377.223 L 288.241 370.354 L 289.641 371.754 L 289.374 374.824 L 288.427 378.493 L 288.427 378.493 L 288.306 378.958 L 286.576 380.041 L 286.576 380.041 L 286.172 380.292 L 286.706 382.027 L 288.707 382.027 L 291.775 381.893 L 294.043 370.955 L 294.043 369.753 L 292.843 368.286 L 292.354 367.001 L 292.354 367.001 L 291.775 365.484 L 291.642 363.483 L 292.116 360.798 L 292.976 363.216 L 295.244 369.619 L 299.247 374.822 L 302.714 376.422 C 302.714 376.422 303.115 374.289 303.115 373.888 C 303.115 373.563 303.115 370.786 303.115 369.745 C 303.115 369.501 303.115 369.353 303.115 369.353 L 301.247 363.616 Z " fill="rgb(0,0,0)"/></svg>