<?xml version="1.0" encoding="UTF-8" standalone="no"?><!-- Generator: Gravit.io --><svg xmlns="http://www.w3.org/2000/svg" xmlns:xlink="http://www.w3.org/1999/xlink" style="isolation:isolate" viewBox="322.534 5.409 93.667 47.618" width="93.667pt" height="47.618pt"><path d=" M 416.018 28.7 L 416.018 28.7 L 415.537 29.007 L 413.543 30.878 L 411.916 31.24 L 409.019 30.938 L 407.631 30.516 L 407.389 29.793 L 407.425 29.711 L 407.425 29.712 L 407.993 28.464 L 408.656 26.955 L 408.295 26.412 L 406.183 26.351 L 404.432 25.868 L 404.071 24.723 L 402.862 18.446 L 402.507 17.589 L 402.833 17.45 L 404.191 17.902 L 406.363 16.726 L 406.842 16.343 L 406.84 16.343 L 408.172 15.277 L 408.172 14.826 L 407.08 14.826 L 406.997 14.826 L 402.2 15.277 L 400.858 16.108 L 397.008 14.341 L 392.694 11.112 L 387.894 7.492 L 385.179 5.953 L 381.014 5.409 L 377.393 5.953 L 373.5 7.129 L 368.612 8.216 L 361.371 8.668 L 351.502 7.401 L 345.437 5.409 L 344.079 5.5 L 337.017 8.216 L 331.042 8.125 L 329.414 9.393 L 323.62 17.269 L 323.293 18.466 L 323.293 18.465 L 323.204 18.797 L 323.204 18.795 L 322.534 21.252 L 322.625 28.315 L 324.255 32.027 L 324.313 32.568 L 325.218 35.375 L 324.856 37.999 L 323.59 41.984 L 323.59 43.704 L 324.825 44.286 L 324.825 44.286 L 325.128 44.427 L 325.973 46.296 L 325.973 46.296 L 326.396 47.235 L 326.124 49.678 L 326.396 50.403 L 327.392 50.481 L 327.392 50.481 L 332.986 50.921 L 332.986 50.92 L 334.452 51.035 L 334.55 50.97 L 334.551 50.97 L 335.54 50.313 L 335.72 49.678 L 335.086 48.682 L 333.729 48.049 L 331.827 46.872 L 331.375 45.243 L 332.279 41.533 L 332.452 40.332 L 332.492 40.354 L 333.577 42.435 L 333.849 45.966 L 334.122 47.143 L 335.389 47.687 L 337.198 48.411 L 338.104 49.225 L 338.556 51.761 L 339.552 52.304 L 342.359 52.756 L 347.519 53.027 L 348.515 52.394 L 348.515 52.313 L 348.515 51.399 L 346.983 49.597 L 346.984 49.597 L 346.977 49.588 L 344.306 48.463 L 344.306 48.464 L 343.537 48.14 L 342.087 45.152 L 340.277 39.901 L 340.096 38.725 L 340.096 37.638 L 342.54 35.284 L 343.173 33.474 L 344.17 33.655 L 351.865 37.91 L 356.481 39.811 L 366.079 39.72 L 373.321 39.177 L 375.945 37.005 L 376.776 36.849 L 376.776 36.849 L 377.393 36.732 L 377.45 36.834 L 377.452 36.834 L 377.547 37.004 L 377.695 37.264 L 377.694 37.266 L 378.571 38.814 L 379.385 39.901 L 378.932 44.337 L 379.024 46.691 L 379.444 47.888 L 379.445 47.884 L 379.567 48.229 L 379.002 49.427 L 379.003 49.427 L 378.842 49.768 L 378.842 50.31 L 378.842 50.764 L 381.377 52.122 L 384.999 52.304 L 388.077 51.851 L 388.077 51.527 L 388.077 50.104 L 388.077 50.041 L 387.773 49.844 L 390.974 49.768 L 390.882 48.863 L 390.158 47.776 L 388.89 47.053 L 388.167 44.337 L 388.347 41.892 L 389.163 37.729 L 390.068 33.835 L 389.846 33.215 L 389.887 33.021 L 390.882 32.659 L 392.058 33.111 L 392.123 33.088 L 392.123 33.088 L 392.784 32.839 L 393.086 31.904 L 393.278 31.904 L 393.69 31.904 L 396.286 34.197 L 398.517 34.5 L 399.061 34.619 L 399.786 35.526 L 401.172 38.241 L 404.613 40.956 L 405.879 41.017 L 407.444 40.452 L 407.442 40.453 L 409.38 39.75 L 410.167 38.361 L 410.709 37.638 L 409.682 36.128 L 409.682 35.164 L 409.767 35.118 L 409.767 35.118 L 409.772 35.114 L 410.226 34.863 L 410.225 34.862 L 411.313 34.258 L 413.787 33.655 L 415.053 31.361 L 416.201 29.189 L 416.201 28.585 L 416.018 28.7 Z " fill="rgb(0,0,0)"/></svg>