<?xml version="1.0" encoding="UTF-8" standalone="no"?><!-- Generator: Gravit.io --><svg xmlns="http://www.w3.org/2000/svg" xmlns:xlink="http://www.w3.org/1999/xlink" style="isolation:isolate" viewBox="0 332.794 106.498 101.516" width="106.498pt" height="101.516pt"><path d=" M 45.774 418.395 L 46.393 412.833 L 47.4 410.1 L 47.938 412.523 L 49.483 419.014 L 50.565 423.649 L 49.328 425.503 L 48.402 427.822 C 48.402 427.822 47.673 428.586 46.905 429.462 L 46.905 429.462 C 46.901 429.466 46.898 429.471 46.895 429.474 C 46.815 429.566 46.734 429.66 46.653 429.751 C 46.631 429.778 46.609 429.802 46.587 429.829 C 46.533 429.893 46.479 429.956 46.426 430.019 C 46.448 428.744 45.774 426.43 45.774 426.43 L 45.774 418.395 Z  M 102.636 386.565 L 103.25 380.298 L 104.644 381.313 L 106.498 379.149 L 104.644 372.815 L 98 366.479 L 89.193 361.226 L 83.786 361.998 L 79.768 363.698 L 69.416 363.853 L 53.809 362.618 L 48.71 359.217 L 45.157 357.98 L 37.276 358.444 L 29.627 358.828 L 32.217 356.55 L 31.643 354.027 L 34.766 351.917 L 39.401 348.555 L 42.877 343.34 L 42.353 339.591 L 42.353 339.591 L 42.066 337.546 L 41.024 334.649 L 40.097 334.88 L 40.676 336.387 C 40.676 336.387 40.792 338.242 40.676 338.589 C 40.56 338.936 39.749 339.632 39.749 339.632 L 38.358 339.168 L 37.895 336.503 L 37.199 336.156 L 36.852 338.589 L 36.04 339.285 L 35.461 338.474 L 36.272 335.808 L 35.809 335.229 L 34.534 337.893 L 33.144 338.936 L 33.144 335.46 L 31.984 334.186 L 31.404 334.766 L 30.71 338.242 L 29.434 339.285 L 28.971 338.474 L 28.392 335.113 C 28.392 335.113 27.58 335.113 27.58 335.46 C 27.58 335.808 27.117 338.589 27.117 338.589 L 25.843 341.718 L 24.916 341.718 L 25.031 340.559 L 23.872 336.04 L 21.787 332.794 L 20.512 333.142 L 21.438 334.998 L 22.597 338.242 L 21.092 346.701 L 19.933 350.989 L 18.773 351.337 L 18.194 348.091 L 16.688 341.139 L 15.76 340.559 L 15.296 342.182 L 16.108 345.542 L 15.876 349.597 L 14.254 349.831 L 11.241 347.627 L 9.734 344.846 L 8.807 344.5 L 8.923 346.354 L 10.43 349.597 L 10.43 350.989 L 7.88 350.41 L 4.983 347.397 L 3.477 343.224 L 2.898 342.645 L 3.013 346.238 L 2.317 346.354 L 1.043 343.457 L 0 343.574 L 0.58 345.658 L 2.202 348.323 L 6.838 352.958 L 11.82 355.508 L 16.108 355.972 L 18.542 357.827 L 17.87 360.798 L 13.019 364.471 L 11.936 366.17 L 12.091 367.715 L 11.998 367.809 L 11.998 367.809 L 9.155 370.652 L 5.755 375.595 L 5.755 378.068 L 5.91 380.539 L 6.683 381.467 L 9.001 381.003 L 10.062 381.003 L 10.236 381.003 L 10.249 381.011 L 10.249 381.011 L 10.363 381.094 L 10.516 381.203 L 10.516 381.203 L 11.318 381.776 L 12.709 381.622 L 14.873 379.613 L 16.263 378.84 L 18.581 379.921 L 20.125 382.548 L 20.435 386.875 L 21.98 388.112 L 22.597 389.501 L 23.834 387.337 L 25.688 384.402 L 25.843 380.539 L 29.087 383.94 L 31.868 387.029 L 35.885 389.501 L 36.504 393.209 L 38.358 395.682 L 38.535 395.811 L 38.536 395.811 L 40.058 396.917 L 39.749 400.008 L 40.985 406.189 L 41.242 409.274 L 41.242 409.274 L 41.294 409.897 L 41.139 411.752 L 41.758 413.452 L 42.066 415.459 L 42.685 424.731 L 42.376 427.358 L 40.985 428.748 L 38.977 429.984 L 38.512 430.911 L 35.885 433.692 L 36.814 434.156 L 42.066 434.31 L 42.529 433.382 L 44.539 429.831 L 44.682 429.831 L 45.465 429.831 L 46.027 430.502 C 46.018 430.513 46.01 430.525 46.001 430.535 C 45.947 430.604 45.898 430.667 45.847 430.732 C 45.813 430.776 45.777 430.82 45.746 430.863 C 45.699 430.924 45.658 430.981 45.617 431.038 C 45.586 431.082 45.552 431.126 45.523 431.167 C 45.484 431.223 45.453 431.272 45.419 431.324 C 45.395 431.36 45.367 431.401 45.346 431.436 C 45.314 431.49 45.29 431.536 45.265 431.582 C 45.251 431.608 45.232 431.638 45.221 431.663 C 45.189 431.731 45.167 431.79 45.157 431.839 L 52.11 431.993 L 52.574 430.911 L 52.264 428.285 L 52.882 427.049 L 53.81 427.203 L 54.582 427.049 L 53.655 424.113 L 53.037 421.949 L 52.419 415.151 L 52.11 410.979 L 52.728 409.125 L 52.728 404.643 L 52.556 403.117 L 52.556 403.118 L 51.638 394.974 L 52.419 394.91 L 55.355 395.682 L 63.389 395.529 L 71.887 394.91 L 77.604 392.901 L 81.622 394.291 L 82.858 395.682 L 84.093 401.245 L 86.257 405.571 L 87.184 409.125 L 86.721 412.678 L 81.159 423.341 L 80.54 424.268 L 80.543 424.264 L 78.067 427.975 L 76.523 428.902 L 76.369 429.984 L 75.744 430.261 L 75.744 430.261 L 74.978 430.602 L 72.197 433.382 L 78.223 433.228 L 78.223 432.084 L 78.223 431.993 L 80.077 429.831 L 80.772 430.137 L 80.772 430.14 L 81.467 430.447 L 82.704 429.521 L 83.321 427.358 L 90.12 416.079 L 93.056 413.141 L 95.837 411.442 L 95.064 408.199 L 94.91 404.026 L 95.057 402.976 L 95.097 403.064 L 95.097 403.064 L 96.456 406.035 L 98.618 409.897 L 97.538 422.105 L 95.683 424.731 L 94.446 427.203 L 91.047 429.984 L 90.894 430.911 L 91.974 431.22 L 97.691 430.447 L 98 428.748 L 98.871 428.023 L 98.871 428.023 L 98.927 427.975 L 99.699 428.438 L 100.627 427.822 L 100.317 425.04 L 100.337 424.942 L 100.337 424.942 L 102.48 414.068 L 104.026 407.117 L 104.181 405.262 L 103.1 404.026 L 101.399 401.862 L 100.472 399.7 L 101.091 394.91 L 102.636 386.565 Z " fill="rgb(0,0,0)"/></svg>