<?xml version="1.0" encoding="UTF-8" standalone="no"?><!-- Generator: Gravit.io --><svg xmlns="http://www.w3.org/2000/svg" xmlns:xlink="http://www.w3.org/1999/xlink" style="isolation:isolate" viewBox="192.695 113.718 88.791 43.543" width="88.791pt" height="43.543pt"><path d=" M 281.486 129.882 L 281.21 128.013 L 280.386 126.639 L 277.747 124.22 L 275.897 122.638 L 274.069 119.813 L 274.071 119.814 L 273.294 118.613 L 265.101 115.369 L 260.099 113.718 L 254.492 115.039 L 248.718 116.523 L 238.932 116.523 L 228.596 116.302 L 226.122 115.809 L 223.649 115.918 L 222.659 115.479 L 221.395 115.588 L 220.569 116.192 L 219.361 116.027 L 216.666 116.083 L 215.016 116.797 L 212.433 117.348 L 209.573 118.667 L 208.051 119.534 L 207.1 119.67 L 206.663 120.325 L 205.231 121.142 L 205.085 121.282 L 205.085 121.281 L 203.432 122.873 L 201.822 121.306 L 200.503 120.976 L 200.121 121.741 L 200.12 121.74 L 199.952 122.076 L 201.052 124.276 L 202.261 124.678 L 202.261 125.87 L 200.173 126.42 L 199.348 126.748 L 199.128 128.397 L 199.842 128.948 L 199.733 129.663 L 199.568 130.048 L 196.708 133.237 L 193.575 136.04 L 192.695 138.131 L 193.301 140.713 L 196.49 144.781 L 200.559 145.496 L 202.922 145.551 L 203.197 145.277 L 203.801 145.661 L 205.066 145.386 L 206.254 144.383 L 206.254 144.383 L 206.825 143.901 L 207.32 141.979 L 208.969 141.372 L 210.783 140.438 L 211.254 138.384 L 211.254 138.384 L 211.347 137.978 L 211.347 137.978 L 211.389 137.8 L 211.743 137.8 L 212.292 137.8 L 213.038 137.8 L 215.456 138.348 L 216.501 136.7 L 216.538 136.754 L 216.538 136.754 L 216.877 137.264 L 217.491 138.185 L 217.947 138.447 L 217.946 138.449 L 219.581 139.394 L 220.461 139.119 L 221.105 139.48 L 221.229 143.463 L 221.229 146.32 L 222 149.896 L 218.096 151.654 L 216.831 153.303 L 216.831 153.798 L 218.811 154.349 L 220.623 154.466 L 220.438 154.902 L 220.438 154.902 L 220.02 155.888 L 220.85 156.258 L 220.849 156.258 L 223.098 157.261 L 228.157 156.382 L 229.586 154.457 L 229.78 154.272 L 229.78 154.272 L 230.905 153.193 L 231.346 152.094 L 231.456 147.695 L 232.06 145.551 L 232.995 145.057 L 235.579 145.331 L 241.186 146.541 L 250.478 147.146 L 258.394 146.21 L 263.233 144.947 L 263.989 144.349 L 264.276 145.606 L 265.708 147.861 L 264.662 149.95 L 264.168 151.325 L 261.638 151.709 L 261.089 152.534 L 261.089 153.414 L 263.469 153.685 L 263.177 153.909 L 263.124 155.337 L 264.827 155.888 L 270.655 155.063 L 271.554 154.677 L 271.554 154.677 L 272.194 154.403 L 272.523 152.863 L 273.953 151.325 L 274.723 150.116 L 274.392 148.794 L 275.218 144.287 L 275.712 143.352 L 277.747 140.218 L 279.726 134.666 L 279.375 129.794 L 280.551 130.487 L 281.486 129.882 Z " fill="rgb(0,0,0)"/></svg>