<?xml version="1.0" encoding="UTF-8" standalone="no"?><!-- Generator: Gravit.io --><svg xmlns="http://www.w3.org/2000/svg" xmlns:xlink="http://www.w3.org/1999/xlink" style="isolation:isolate" viewBox="206.82 47.362 78.092 62.601" width="78.092pt" height="62.601pt"><path d=" M 284.039 99 L 283.006 97.252 L 282.847 95.186 L 282.609 92.723 L 281.814 91.612 L 281.29 91.86 L 280.224 86.766 L 280.463 79.297 L 279.987 73.896 L 279.912 73.652 L 279.912 73.652 L 279.625 72.727 L 279.583 72.584 L 279.583 72.584 L 279.208 71.371 L 279.208 71.371 L 278.962 70.579 L 278.963 70.58 L 278.32 68.494 L 273.077 63.966 L 272.365 63.657 L 272.365 63.657 L 268.866 62.137 L 263.224 63.013 L 261.534 63.062 L 261.535 63.062 L 259.833 63.112 L 259.833 63.112 L 258.267 63.157 L 258.267 63.157 L 257.416 63.182 L 257.416 63.182 L 252.34 63.33 L 248.92 62.802 L 248.92 62.801 L 248.274 62.701 L 248.274 62.701 L 247.136 62.525 L 247.137 62.523 L 246.238 62.386 L 244.956 62.188 L 244.956 62.187 L 244.635 62.137 L 244.325 61.966 L 245.112 60.789 L 244.778 60.595 L 244.778 60.595 L 243.945 60.113 L 243.945 60.112 L 243.603 59.915 L 243.265 59.605 L 243.265 59.606 L 242.019 58.463 L 242.02 58.463 L 241.695 58.166 L 240.594 57.213 L 240.594 57.213 L 239.861 56.577 L 239.861 56.577 L 239.312 56.101 L 238.467 55.528 C 238.467 55.528 238.467 55.528 238.467 55.529 L 238.032 55.236 L 238.032 55.234 L 236.794 54.399 L 234.73 53.003 L 234.73 53.002 L 233.671 52.288 L 233.165 51.909 L 233.165 51.909 L 232.101 51.117 L 232.103 51.117 L 231.181 50.431 L 229.302 49.03 L 228.664 48.903 L 228.664 48.903 L 228.442 48.857 L 226.057 48.38 L 225.587 48.287 L 225.587 48.288 L 224.933 48.157 L 224.606 48.109 L 224.606 48.109 L 223.538 47.957 L 222.063 47.747 L 222.063 47.747 L 221.42 47.655 L 219.373 47.362 L 218.463 47.703 L 218.148 47.82 L 218.148 47.82 L 216.765 48.34 L 216.765 48.34 L 216.621 48.393 L 214.923 49.03 L 211.657 51.208 L 211.657 51.208 L 211.127 51.562 L 211.127 51.562 L 210.634 51.891 L 211.428 52.368 L 212.667 53.379 L 212.303 54.035 L 211.349 56.022 L 210.793 57.134 L 209.919 58.483 L 206.979 62.933 L 206.82 64.522 L 206.933 64.636 L 206.933 64.634 L 208.488 66.19 L 209.363 66.666 L 209.919 67.539 L 210.634 67.302 L 211.904 66.666 L 212.303 66.031 L 213.255 65.078 L 213.542 64.982 L 213.542 64.983 L 213.69 64.933 L 214.923 64.522 L 215.248 64.397 L 215.248 64.397 L 215.346 64.361 L 215.882 64.155 L 215.882 64.155 L 216.897 63.767 L 216.897 63.767 L 217.624 63.489 L 217.729 63.375 L 217.729 63.375 L 218.562 62.471 L 218.562 62.473 L 218.749 62.266 L 219.061 61.926 L 219.061 61.926 L 219.452 61.503 L 219.549 61.713 L 219.549 61.713 L 219.556 61.724 L 220.254 63.194 L 220.254 63.194 L 220.307 63.312 L 220.881 64.522 L 221.764 66.066 L 221.764 66.066 L 222.668 67.649 L 222.668 67.649 L 224.06 70.083 L 224.349 70.456 L 224.349 70.456 L 226.863 73.698 L 226.863 73.698 L 227.08 73.976 L 230.653 75.803 L 231.946 78.952 L 231.946 78.952 L 232.48 80.252 L 233.671 81.999 L 233.96 82.192 L 234.44 85.123 L 235.154 89.135 L 234.837 91.122 L 235.58 93.28 L 236.214 93.995 L 236.85 98.443 L 237.089 101.859 L 236.927 103.291 L 235.5 104.719 L 234.863 105.355 L 234.625 106.309 L 236.134 106.864 L 237.297 106.739 L 236.292 107.818 L 236.214 109.168 L 237.644 109.328 L 240.187 108.533 L 240.266 107.024 L 240.312 106.953 L 240.312 106.953 L 241.06 105.751 L 241.855 105.196 L 241.298 102.416 L 241.06 94.313 L 241.458 93.519 L 241.458 91.218 L 241.458 90.648 L 241.458 89.282 L 241.458 88.85 L 241.458 88.117 L 241.665 86.579 L 241.665 86.579 L 241.682 86.445 L 241.722 86.151 L 241.722 86.151 L 242.014 83.985 L 242.126 83.793 L 242.126 83.793 L 242.225 83.624 L 242.348 83.412 L 242.57 83.031 L 243.919 82.794 L 244.864 83.248 L 245.018 83.323 L 245.018 83.323 L 246.627 84.099 L 246.627 84.099 L 247.146 84.35 L 248.37 84.938 L 253.93 85.653 L 254.569 85.611 L 254.569 85.611 L 256.153 85.505 L 256.153 85.505 L 258.018 85.381 L 258.018 85.381 L 258.985 85.316 L 258.985 85.316 L 260.358 85.225 L 261.266 85.164 L 261.266 85.164 L 262.272 85.097 L 262.485 85.002 L 264.099 87.243 L 266.64 90.023 L 268.31 91.215 L 269.74 92.883 L 270.135 95.981 L 268.787 101.462 L 268.23 103.687 L 266.164 104.562 L 265.211 106.39 L 265.132 107.024 L 267.117 107.183 L 269.103 107.024 L 269.74 105.355 L 269.74 104.878 L 271.01 104.243 L 271.327 102.575 L 271.566 98.92 L 272.249 96.354 L 272.519 97.015 L 272.597 102.196 L 272.597 102.196 L 272.599 102.336 L 271.167 106.071 L 270.613 106.864 L 269.5 107.739 L 268.945 109.407 L 270.771 109.963 L 272.997 109.328 L 273.314 108.295 L 273.711 107.183 L 274.744 106.707 L 275.141 103.687 L 276.73 96.219 L 276.968 94.948 L 276.332 93.916 L 275.781 92.443 L 275.781 92.443 L 275.712 92.263 L 275.141 90.739 L 275.155 90.379 L 275.166 90.119 L 275.167 90.038 L 275.167 90.038 L 275.3 86.527 L 277.286 83.509 L 278.494 80.486 L 278.498 80.484 L 279.034 79.139 L 279.034 83.588 L 279.75 87.957 L 280.635 92.166 L 280.463 92.248 L 280.067 93.995 L 281.02 97.015 L 282.451 99 L 284.119 100.033 L 284.912 99.714 L 284.039 99 Z " fill="rgb(0,0,0)"/></svg>