<?xml version="1.0" encoding="UTF-8" standalone="no"?><!-- Generator: Gravit.io --><svg xmlns="http://www.w3.org/2000/svg" xmlns:xlink="http://www.w3.org/1999/xlink" style="isolation:isolate" viewBox="209.828 179.801 143.901 111.711" width="143.901pt" height="111.711pt"><path d=" M 352.391 256.206 L 352.002 256.247 L 352.002 252.641 L 351.333 234.26 L 349.998 218.227 L 341.978 208.034 L 332.289 199.848 L 324.458 195.777 L 324.459 195.777 L 319.759 193.334 L 306.725 193.666 L 288.516 195.839 L 282.167 195.672 L 269.638 190.994 L 269.052 190.622 L 268.636 188.488 L 263.624 182.25 L 259.725 179.801 L 257.609 182.14 L 255.898 183.485 L 252.097 184.311 L 236.782 188.042 L 234.219 190.048 L 232.049 192.163 L 231.211 194.334 L 229.709 196.674 L 228.372 200.85 L 227.537 208.034 L 225.031 215.552 L 223.632 222.336 L 223.632 222.336 L 222.704 226.852 L 218.347 227.917 L 211.999 228.75 L 209.828 228.083 L 209.828 229.159 L 209.828 229.25 L 211.5 230.422 L 217.345 230.756 L 222.35 230 L 221.355 238.942 L 223.193 247.629 L 228.873 254.647 L 236.39 252.975 L 239.063 247.963 L 238.563 242.452 L 235.558 238.44 L 231.88 238.776 L 229.207 238.776 L 229.375 241.948 L 231.713 245.624 L 232.549 245.292 L 232.215 244.12 L 233.551 241.782 L 234.888 242.452 L 233.885 246.961 L 231.377 247.293 L 228.707 243.62 L 228.873 236.938 L 229.542 230.756 L 230.468 227.788 L 231.88 227.247 L 234.219 225.909 L 234.229 225.893 L 235.387 226.079 L 237.727 225.575 L 242.071 221.901 L 244.076 221.067 L 246.246 228.418 L 248.253 238.274 L 249.28 244.2 L 248.586 252.528 L 247.139 265.784 L 246.028 276.588 L 243.353 282.155 L 243.575 285.497 L 248.811 286.165 L 249.201 286.157 L 249.033 286.612 L 249.59 290.844 L 255.048 291.512 L 267.968 290.176 L 267.633 284.551 L 265.961 279.706 L 265.125 265.842 L 266.297 256.149 L 266.462 251.471 L 267.799 246.293 L 283.003 252.309 L 295.869 255.149 L 310.193 253.702 L 309.398 265.338 L 308.173 276.7 L 306.838 281.155 L 305.724 283.713 L 306.725 286.276 L 306.901 286.305 L 306.901 286.305 L 307.421 286.389 L 311.516 287.055 L 323.879 286.612 L 324.102 284.829 L 322.095 277.813 L 322.208 273.022 L 324.326 264.668 L 326.125 262.387 L 330.116 273.358 L 330.785 282.045 L 329.279 285.719 L 326.441 288.559 L 327.108 290.899 L 329.447 291.233 L 331.823 291.163 L 331.822 291.161 L 332.807 291.133 L 332.807 291.133 L 335.485 291.053 L 338.655 290.959 L 338.655 290.959 L 340.641 290.899 L 345.488 289.561 L 345.987 287.225 L 343.983 283.381 L 342.477 273.692 L 341.978 266.506 L 343.483 263.836 L 345.317 258.821 L 344.149 246.793 L 344.65 240.112 L 347.826 229.084 L 348.327 227.581 L 349.998 248.129 L 350.788 256.366 L 350.165 256.428 L 349.498 261.997 L 350.61 266.899 L 350.053 269.792 L 349.05 271.018 L 351.834 269.125 L 353.395 265.563 L 353.729 259.436 L 352.391 256.206 Z " fill="rgb(0,0,0)"/></svg>