<?xml version="1.0" encoding="UTF-8" standalone="no"?><!-- Generator: Gravit.io --><svg xmlns="http://www.w3.org/2000/svg" xmlns:xlink="http://www.w3.org/1999/xlink" style="isolation:isolate" viewBox="362.514 107.124 77.345 49.824" width="77.345pt" height="49.824pt"><path d=" M 438.801 148.588 L 435.26 146.518 L 433.835 146.553 L 433.478 146.817 L 433.397 147.016 L 428.442 142.425 L 425.814 136.404 L 423.995 130.435 L 423.995 130.435 L 423.424 128.563 L 420.121 124.05 L 417.556 121.853 L 413.347 119.779 L 411.615 119.59 L 406.498 120.132 L 401.163 120.273 L 391.949 119.81 L 391.949 119.81 L 391.917 119.809 L 390.5 119.088 L 389.309 117.655 L 387.981 116.803 L 385.819 114.609 L 382.415 111.562 L 379.195 108.071 L 377.444 107.259 L 377.444 107.259 L 377.155 107.124 L 373.951 107.546 L 368.826 109.111 L 368.242 110.174 L 367.876 111.461 L 368.539 112.356 L 367.552 113.371 L 366.209 114.606 L 365.896 115.138 L 362.561 118.16 L 362.514 118.605 L 363.132 119.454 L 363.658 120.346 L 364.155 120.672 C 364.116 120.666 364.089 120.661 364.089 120.661 L 364.254 120.895 L 364.431 120.903 L 364.542 121.241 L 365.178 122.445 L 365.845 122.407 L 367.397 121.729 L 367.397 121.729 L 367.674 121.607 L 367.674 121.607 L 368.297 121.334 L 369.399 122.765 L 369.39 124.099 L 369.541 128.057 L 369.527 128.115 L 369.527 128.115 L 369.312 128.989 L 369.842 129.304 L 370.692 128.954 L 371.392 130.47 L 371.561 131.583 L 372.226 131.988 L 372.847 132.258 L 372.53 132.969 L 372.478 133.901 L 372.747 133.593 L 373.193 133.596 L 373.23 134.618 L 373.579 135.51 L 373.893 135.29 L 374.558 135.339 L 374.996 136.631 L 376.84 139.712 L 377.856 140.564 L 378.824 142.304 L 378.972 146.395 L 379.071 151.376 L 378.531 152.483 L 377.012 153.407 L 375.49 155.041 L 375.53 155.665 L 376.454 155.741 L 376.454 155.741 L 376.686 155.76 L 376.904 156.162 L 381.083 156.191 L 382.687 155.714 L 382.769 154.646 L 385.095 154.664 L 386.257 153.958 L 386.492 152.138 L 387.296 151.477 L 387.398 149.699 L 386.917 148.451 L 386.859 144.048 L 387.586 141.387 L 390.211 141.405 L 393.187 141.914 L 394.833 141.703 L 395.553 140.642 L 397.243 140.43 L 400.762 139.477 L 404.507 137.902 L 407.494 136.9 L 410.469 137.587 L 411.573 138.501 L 411.573 138.501 L 411.661 138.574 L 413.102 142.408 L 414.188 145.972 L 416.832 149.502 L 416.869 150.571 L 413.154 154.102 L 412.042 154.137 L 411.377 153.911 L 410.44 154.526 L 409.905 154.702 L 409.739 154.917 L 409.737 154.917 L 409.248 155.553 L 409.248 155.553 L 409.052 155.806 L 408.826 156.383 L 411.268 156.845 L 413.312 156.948 L 416.029 156.211 L 418.941 153.208 L 422.033 149.761 L 421.247 147.576 L 421.12 145.672 L 422.447 147.497 L 423.23 149.991 L 421.654 153.093 L 420.628 153.353 L 419.605 153.391 L 418.626 153.562 L 417.954 154.49 L 417.634 155.688 L 419.543 156.057 L 422.655 156.034 L 424.486 155.113 L 425.939 150.677 L 427.593 149.266 L 427.869 148.067 L 427.253 146.864 L 425.321 143.56 L 423.099 136.698 L 423.124 133.363 L 422.925 131.031 L 424.662 136.086 L 425.596 138.623 L 425.596 138.623 L 426.93 142.236 L 430.418 145.686 L 433.062 147.82 L 432.981 148.014 L 434.302 149.891 L 435.855 150.435 L 437.948 150.137 L 439.859 150.063 L 438.801 148.588 Z " fill="rgb(0,0,0)"/></svg>