<?xml version="1.0" encoding="UTF-8" standalone="no"?><!-- Generator: Gravit.io --><svg xmlns="http://www.w3.org/2000/svg" xmlns:xlink="http://www.w3.org/1999/xlink" style="isolation:isolate" viewBox="353.854 52.107 75.441 46.815" width="75.441pt" height="46.815pt"><path d=" M 429.249 60.46 L 429.249 60.46 L 429.164 60.034 L 425.86 57.569 L 425.199 56.071 L 425.125 55.699 L 425.125 55.699 L 425.067 55.411 L 424.187 55.008 L 424.187 55.008 L 422.788 54.37 L 422.645 53.164 L 421.764 52.107 L 420.708 52.504 L 419.981 53.535 L 419.914 53.517 L 417.932 53.825 L 415.333 54.795 L 413.544 56.868 L 413.543 56.868 L 413.397 57.04 L 411.15 58.053 L 406.965 59.374 L 406.938 59.384 L 406.938 59.384 L 405.337 59.946 L 404.281 60.739 L 402.447 60.751 L 402.447 60.751 L 401.746 60.755 L 401.746 60.755 L 399.058 60.772 L 399.058 60.772 L 397.698 60.78 C 397.698 60.78 397.698 60.78 397.698 60.781 L 397.233 60.784 L 395.972 60.82 L 395.972 60.818 L 394.197 60.869 L 394.197 60.87 L 392.622 60.914 L 392.622 60.914 L 391.518 60.945 L 391.024 60.959 L 385.694 61.268 L 385.274 61.201 L 385.274 61.201 L 384.625 61.098 L 384.625 61.098 L 382.841 60.815 L 382.841 60.815 L 381.654 60.627 L 381.654 60.627 L 379.309 60.255 L 377.908 60.529 L 377.908 60.529 L 377.206 60.666 L 375.038 61.091 L 373.794 62.243 L 371.38 63.601 L 367.902 70.031 L 367.65 70.954 L 367.65 70.954 L 367.567 71.258 L 366.901 73.705 L 366.856 73.865 L 366.856 73.865 L 366.417 75.481 L 366.376 75.623 L 366.376 75.623 L 366.052 76.815 L 365.855 77.54 L 365.855 77.54 L 365.527 78.736 L 365.527 78.736 L 364.629 82.019 L 364.629 82.019 L 364.511 82.452 L 364.039 82.897 L 364.04 82.897 L 362.044 84.784 L 359.447 85.182 L 356.802 84.213 L 355.483 81.659 L 354.25 81.351 L 353.854 82.452 L 355.527 86.415 L 358.961 87.56 L 361.957 87.736 L 363.414 86.971 L 363.366 87.207 L 364.291 88.309 L 364.571 89.411 L 364.653 89.732 L 364.653 89.732 L 366.185 95.751 L 367.021 96.502 L 367.902 97.822 L 370.148 97.997 L 371.82 97.925 L 371.82 97.925 L 372.173 97.91 L 372.268 97.66 L 372.268 97.66 L 372.306 97.557 L 373.626 97.249 L 373.407 95.927 L 372.394 95.268 L 371.867 95.116 L 371.867 95.116 L 370.292 94.666 L 370.292 94.666 L 370.237 94.65 L 369.665 92.405 L 368.959 88.221 L 369.866 87.389 L 369.866 87.389 L 370.016 87.252 L 373.551 84.313 L 373.23 86.15 L 372.13 87.384 L 372.218 88.528 L 373.848 90.026 L 376.095 92.712 L 377.547 94.915 L 378.164 95.135 L 379.132 96.412 L 379.177 96.94 L 379.75 97.249 L 381.688 97.381 L 383.934 97.381 L 384.153 96.809 L 384.77 96.809 L 385.475 96.633 L 385.342 95.751 L 384.505 94.297 L 383.494 94.078 L 381.333 93.638 L 379.661 92.184 L 377.371 89.32 L 377.371 88.616 L 378.471 87.736 L 380.794 85.588 L 380.794 85.588 L 380.806 85.578 L 382.398 82.925 C 382.398 82.925 382.398 82.925 382.399 82.925 L 383.041 81.853 L 383.317 81.394 L 384.008 78.844 L 387.06 80.337 L 391.288 81.086 L 393.201 80.693 L 394.7 80.387 C 394.7 80.387 394.7 80.387 394.699 80.387 L 396.44 80.029 L 399.963 79.325 L 403.179 80.029 L 404.281 80.998 L 404.409 82.424 L 404.407 82.422 L 404.49 83.324 L 404.632 84.917 L 404.616 85.603 L 404.614 85.603 L 404.583 86.817 L 404.583 86.817 L 404.548 88.136 L 404.548 88.136 L 404.457 91.656 L 403.796 93.153 L 404.27 94 L 404.27 94 L 404.413 94.254 L 404.148 96.016 L 404.588 96.765 L 405.953 97.602 L 406.306 98.526 L 408.817 98.922 L 410.68 98.677 L 410.68 98.677 L 411.15 98.615 L 411.234 98.447 L 411.234 98.446 L 411.372 98.174 L 412.075 98.129 L 412.25 96.94 L 411.966 96.685 L 412.516 96.633 L 412.912 96.412 L 413.617 95.972 L 413.617 95.355 L 412.339 93.903 L 411.239 93.109 L 411.063 92.228 L 411.194 90.863 L 411.613 86.628 L 411.65 86.264 L 411.648 86.264 L 411.944 83.288 L 412.988 79.401 L 414.321 77.651 L 415.159 73.996 L 416.656 71.881 L 418.726 69.327 L 419.151 67.845 L 419.151 67.846 L 419.345 67.173 L 419.651 66.112 L 420.483 65.192 L 420.483 65.192 L 420.927 64.703 L 423.438 64.306 L 425.419 65.275 L 426.432 65.319 L 426.741 64.835 L 427.004 63.866 L 427.067 63.806 L 427.069 63.806 L 427.261 63.623 L 427.261 63.623 L 427.798 63.117 L 428.326 62.324 L 428.59 61.62 L 429.295 60.695 L 429.249 60.46 Z " fill="rgb(0,0,0)"/></svg>