<?xml version="1.0" encoding="UTF-8" standalone="no"?><!-- Generator: Gravit.io --><svg xmlns="http://www.w3.org/2000/svg" xmlns:xlink="http://www.w3.org/1999/xlink" style="isolation:isolate" viewBox="264.211 0 68.247 128.553" width="68.247pt" height="128.553pt"><path d=" M 332.081 104.293 L 331.096 100.516 L 330.417 98.703 L 329.512 98.476 L 329.433 98.173 L 329.207 94.318 L 329.81 88.348 L 330.417 82.302 L 330.266 75.047 L 329.358 70.89 L 328.938 69.781 L 328.829 68.698 L 324.52 65.41 L 320.327 64.163 L 314.886 61.329 L 307.971 56.795 L 305.364 55.207 L 303.55 51.692 L 302.076 47.045 L 300.28 46.242 L 299.468 45.118 L 297.541 43.532 L 295.501 40.244 L 292.553 31.854 L 290.172 23.465 L 286.771 13.603 L 285.524 9.522 L 284.547 8.398 L 286.205 7.103 L 286.581 4.987 L 285.977 4.61 L 284.39 5.291 L 282.667 6.501 L 280.991 5.328 L 280.839 4.383 L 282.124 1.888 L 282.728 1.965 L 283.255 1.284 L 281.897 0.075 L 280.16 0.15 L 280.083 0.68 L 280.461 1.284 L 279.554 2.947 L 278.724 4.232 L 278.4 4.328 L 278.281 1.209 L 278.281 1.209 L 278.269 0.906 L 278.875 0.605 L 278.797 0 L 276.002 0.075 L 275.699 0.605 L 276.379 1.133 L 276.379 1.43 L 276.379 2.493 L 276.313 4.82 L 274.869 4.76 L 273.884 5.516 L 272.677 7.406 L 270.787 8.162 L 268.067 9.673 L 265.271 11.789 L 264.211 13.263 L 264.779 14.963 L 264.886 15.324 L 264.886 15.324 L 264.934 15.481 L 265.118 16.097 L 266.139 15.984 L 270.333 15.417 L 272.374 15.643 L 275.436 15.643 L 276.795 15.19 L 278.949 17.231 L 280.649 25.733 L 281.331 35.482 L 281.804 37.175 L 282.545 39.826 L 282.546 39.826 L 283.71 43.984 L 286.319 53.281 L 286.432 62.464 L 285.637 68.132 L 286.885 74.366 L 287.986 75.787 L 288.396 80.789 L 288.925 85.93 L 290.964 91.143 L 291.495 95.604 L 291.645 98.022 L 291.495 99.761 L 291.343 100.892 L 292.099 102.33 L 292.628 103.84 L 292.931 108.83 L 292.931 117.747 L 293.082 118.729 L 292.099 120.166 L 291.418 122.13 L 291.042 124.55 L 291.495 125.002 L 292.797 125.002 L 292.779 125.04 L 292.553 126.627 L 294.82 127.193 L 297.768 126.741 L 298.902 126.287 L 298.902 125.38 L 298.784 124.979 L 298.784 124.979 L 298.334 123.452 L 298.846 123.173 L 298.848 123.173 L 299.582 122.772 L 300.374 121.413 L 299.355 118.352 L 298.561 109.396 L 298.221 103.614 L 299.128 102.368 L 299.054 101.875 L 299.054 101.875 L 298.674 99.305 L 299.807 90.01 L 301.168 85.93 L 301.675 86.305 L 301.674 86.305 L 304.229 88.198 L 311.937 90.01 L 312.958 89.699 L 313.79 95.528 L 315.98 101.573 L 317.04 104.899 L 316.511 107.47 L 314.09 117.747 L 313.259 121.753 L 312.43 122.81 L 311.371 125.153 L 312.203 125.757 L 314.847 125.757 L 316.133 125.38 L 316.133 124.353 L 316.133 123.718 L 316.735 122.586 L 317.19 121.903 L 316.584 120.09 L 316.964 116.613 L 319.156 110.416 L 321.197 105.958 L 321.662 104.349 L 321.914 106.108 L 323.047 108.942 L 322.595 115.176 L 321.801 121.979 L 321.347 123.452 L 320.1 125.38 L 320.077 125.463 L 320.077 125.463 L 319.419 127.874 L 321.801 128.214 L 324.749 128.553 L 325.428 127.42 L 324.86 124.925 L 325.995 124.134 L 325.995 121.073 L 325.882 116.539 L 326.334 110.416 L 326.399 110.134 L 326.399 110.134 L 327.355 105.881 L 326.109 102.368 L 326.221 93.523 L 328.603 84.909 L 329.168 79.046 L 329.509 81.849 L 329.056 86.383 L 328.451 91.824 L 328.375 96.134 L 329.019 98.804 L 328.679 99.533 L 329.132 102.178 L 329.887 105.126 L 330.871 108.375 L 330.946 112.455 L 330.493 114.496 L 331.701 112.911 L 332.458 107.847 L 332.081 104.293 Z " fill="rgb(0,0,0)"/></svg>