<?xml version="1.0" encoding="UTF-8" standalone="no"?><!-- Generator: Gravit.io --><svg xmlns="http://www.w3.org/2000/svg" xmlns:xlink="http://www.w3.org/1999/xlink" style="isolation:isolate" viewBox="110.058 374.313 97.82 59.877" width="97.82pt" height="59.877pt"><path d=" M 207.609 394.092 L 200.598 386.231 L 200.599 386.231 L 198.729 384.135 L 189.982 377.137 L 186.08 376.6 L 172.491 377.676 L 162.399 377.003 L 150.962 374.448 L 147.329 374.313 L 138.583 379.022 L 133.2 380.502 L 129.299 380.099 L 124.454 381.04 L 124.165 381.262 L 123.177 380.838 L 122.168 380.906 L 121.091 381.713 L 120.62 382.924 L 120.741 383.887 L 120.417 384.135 L 117.054 387.365 L 115.675 390.714 L 115.675 390.713 L 115.17 391.94 L 114.677 392.398 L 114.678 392.399 L 111.269 395.573 L 111.151 395.616 L 111.151 395.616 L 110.192 395.976 L 110.058 397.322 L 110.867 398.186 L 110.868 398.185 L 112.076 399.474 L 112.976 399.751 L 112.976 399.751 L 113.824 400.012 L 114.498 400.956 L 115.709 401.089 L 119.708 400.861 L 119.708 400.861 L 120.417 400.82 L 123.782 400.956 L 126.338 403.107 L 130.913 404.722 L 134.143 405.125 L 135.489 402.3 L 136.273 402.229 L 136.833 405.125 L 137.238 409.297 L 138.315 412.391 L 138.045 416.832 L 137.527 420.083 C 137.528 420.082 137.528 420.082 137.529 420.081 L 137.104 422.752 L 136.699 426.251 L 135.623 427.461 L 133.066 428.672 L 131.99 429.749 L 131.99 431.229 L 135.22 431.767 L 139.525 431.632 L 142.619 430.825 L 143.292 428.672 L 144.773 428.134 L 145.041 426.654 L 145.849 426.251 L 146.118 424.905 C 146.118 424.905 146.253 423.559 146.387 423.156 C 146.405 423.104 146.457 422.953 146.533 422.73 L 146.533 422.732 C 146.784 422.004 147.303 420.508 147.767 419.173 L 148.405 422.214 L 149.212 427.058 L 148.136 428.943 L 145.984 429.749 L 144.369 430.96 L 144.369 432.708 L 145.354 433.009 L 145.354 433.009 L 145.984 433.201 L 145.984 433.201 L 147.463 433.651 L 152.039 433.382 L 154.354 433.073 L 154.354 433.073 L 156.075 432.844 L 156.748 429.749 L 157.028 429.12 L 157.028 429.12 L 157.286 428.539 L 156.882 427.461 L 157.421 425.847 L 157.824 424.502 L 158.766 424.098 L 159.305 423.291 L 158.901 422.214 L 159.842 420.465 L 160.515 413.738 L 160.515 409.97 L 165.494 412.795 L 171.279 411.989 L 176.527 411.315 L 179.891 413.199 L 182.048 412.851 L 183.39 416.698 L 185.543 420.6 L 187.292 423.963 L 187.023 426.251 L 184.466 427.866 L 182.582 429.077 L 181.91 430.556 L 183.792 431.229 L 186.08 431.229 L 187.789 431.229 L 187.023 433.787 L 188.502 434.054 C 188.502 434.054 188.561 434.046 188.658 434.036 L 188.658 434.038 C 188.809 434.019 189.059 433.994 189.357 433.971 L 189.358 433.969 C 190.335 433.89 191.822 433.832 192.001 434.19 L 192.623 434.19 L 198.19 434.19 L 200.479 433.248 L 202.63 429.749 L 204.246 421.811 L 207.341 415.89 L 207.878 405.664 L 207.609 394.092 Z " fill="rgb(0,0,0)"/></svg>