<?xml version="1.0" encoding="UTF-8" standalone="no"?><!-- Generator: Gravit.io --><svg xmlns="http://www.w3.org/2000/svg" xmlns:xlink="http://www.w3.org/1999/xlink" style="isolation:isolate" viewBox="101.37 235.985 62.79 29.265" width="62.79pt" height="29.265pt"><path d=" M 163.974 240.152 L 163.492 239.509 L 163.492 239.509 L 163.419 239.412 L 160.084 237.466 L 156.472 236.819 L 154.436 236.541 L 153.51 237.096 L 150.454 238.393 L 148.972 238.763 L 145.73 237.375 L 140.915 235.985 L 138.043 236.448 L 130.265 239.412 L 127.949 242.375 L 124.337 253.673 L 123.688 256.173 L 121.837 257.748 L 121.905 258.059 L 118.041 258.673 L 111.649 259.136 L 104.611 259.507 L 102.204 260.156 L 101.662 261.478 L 101.662 261.478 L 101.37 262.193 L 102.296 263.397 L 108.593 265.25 L 115.817 264.787 L 122.021 262.841 L 123.351 262.01 L 123.412 262.1 L 126.283 262.193 L 128.783 262.378 L 128.979 262.36 L 128.875 262.749 L 129.524 263.304 L 131.126 263.41 L 131.126 263.41 L 135.173 263.675 L 138.877 264.069 L 138.877 264.069 L 139.446 264.129 L 139.446 264.129 L 139.525 264.138 L 140.957 263.686 L 140.957 263.686 L 141.285 263.583 L 141.933 262.286 L 140.266 261.544 L 139.026 261.497 L 142.582 260.896 L 145.175 259.599 L 147.027 257.376 L 148.416 257.655 L 149.25 257.563 L 149.529 257.984 L 149.529 257.983 L 150.175 258.952 L 152.028 261.637 L 151.75 262.563 L 152.213 262.934 L 153.559 263.062 L 153.559 263.062 L 156.102 263.304 L 157.121 262.378 L 157.028 261.637 L 155.176 261.359 L 155.165 261.313 L 155.166 261.313 L 154.898 260.248 L 154.878 259.853 L 154.878 259.854 L 154.713 256.636 L 155.401 255.169 L 157.862 255.802 L 158.325 257.1 L 159.714 258.396 L 160.826 258.581 L 161.011 257.839 L 160.178 256.358 L 159.529 254.228 L 158.232 253.581 L 156.353 252.673 L 157.028 249.969 L 157.584 247.375 L 159.992 245.894 L 162.122 245.061 L 162.386 244.401 L 162.386 244.401 L 162.483 244.157 L 162.483 244.157 L 162.493 244.134 L 163.048 243.763 L 164.16 241.171 L 163.974 240.152 Z " fill="rgb(0,0,0)"/></svg>