<?xml version="1.0" encoding="UTF-8" standalone="no"?><!-- Generator: Gravit.io --><svg xmlns="http://www.w3.org/2000/svg" xmlns:xlink="http://www.w3.org/1999/xlink" style="isolation:isolate" viewBox="4.716 1.693 89.519 89.899" width="89.519pt" height="89.899pt"><path d=" M 65.431 76.073 L 65.159 84.191 L 65.159 84.206 L 63.327 83.047 L 63.098 80.451 L 63.148 78.229 L 63.148 78.229 L 63.251 73.659 L 64.394 67.172 L 64.742 63.756 L 65.464 67.859 L 65.464 75.109 L 65.432 76.072 L 65.431 76.073 Z  M 93.167 18.33 L 92.348 17.607 L 92.365 17.528 L 91.793 16.899 L 91.778 17.123 L 88.436 14.819 L 85.153 11.919 L 84.392 10.971 L 84.392 10.971 L 82.562 8.693 L 82.864 8.638 L 84.848 7.493 L 83.628 5.814 L 82.965 5.152 L 82.965 5.152 L 82.92 5.107 L 81.795 3.982 L 80.105 3.879 L 80.428 2.598 L 80.428 2.598 L 80.575 2.02 L 80.116 1.693 L 78.198 3.762 L 78.056 3.754 L 75.888 4.098 L 75.888 4.098 L 75.874 4.101 L 71.206 4.842 L 71.206 4.841 L 71.03 4.87 L 70.646 4.931 L 70.646 4.931 L 70.255 4.992 L 70.255 4.992 L 69.891 5.051 L 69.834 5.104 L 69.834 5.104 L 69.381 5.529 L 69.381 5.529 L 67.735 7.074 L 67.735 7.074 L 67.507 7.288 L 67.507 7.288 L 67.027 7.739 L 66.844 7.911 L 66.844 7.911 L 66.151 8.562 L 62.71 14.637 L 62.71 14.637 L 62.503 15.001 L 62.503 15.001 L 59.969 19.475 L 57.069 25.274 L 57.04 25.676 L 54.78 27.183 L 50.43 28.861 C 50.43 28.861 50.402 28.862 50.362 28.862 C 49.943 28.865 47.62 28.883 45.252 28.9 C 45.209 28.9 45.165 28.9 45.12 28.901 C 44.998 28.902 44.876 28.902 44.752 28.903 C 44.627 28.904 44.5 28.905 44.374 28.906 C 44.259 28.907 44.144 28.908 44.03 28.908 C 41.847 28.924 39.907 28.938 39.745 28.938 C 39.364 28.938 34.785 27.87 34.785 27.87 L 26.466 24.97 L 19.904 25.122 L 12.653 30.998 L 12.614 31.075 L 9.753 31.075 L 6.929 36.264 L 5.632 46.567 L 6.243 53.817 L 5.632 57.786 L 4.716 60.762 C 4.716 60.762 7.234 64.425 7.234 64.729 C 7.234 65.036 7.845 72.362 7.845 72.591 C 7.845 72.82 7.006 75.49 7.006 75.49 L 6.166 76.407 L 6.166 77.093 L 7.464 76.407 L 8.456 78.314 L 8.685 80.68 L 9.753 82.97 L 10.211 82.741 L 9.601 80.833 L 10.287 78.162 L 12.348 73.583 L 12.676 71.309 L 13.035 72.82 L 13.188 78.696 L 13.798 83.275 L 14.484 84.267 L 15.553 86.938 L 14.79 88.922 L 17.919 90.067 L 22.193 91.136 L 23.032 90.677 L 22.117 87.319 L 21.786 86.805 L 21.786 86.805 L 21.43 86.252 L 19.14 84.802 L 17.08 76.483 L 16.088 69.996 L 18.072 66.867 L 18.147 66.697 L 19.598 69.309 L 21.277 77.551 L 20.743 80.298 L 22.346 82.13 L 22.422 83.504 L 21.583 84.802 L 21.583 85.498 L 21.583 86.405 L 24.101 87.396 L 28.679 87.854 L 29.214 87.472 L 28.111 84.311 L 28.111 84.311 L 28.069 84.191 L 27.382 83.504 L 27.076 82.665 L 24.94 80.604 L 23.81 74.954 L 23.81 74.954 L 22.422 68.012 C 22.422 68.012 22.727 66.104 22.88 65.875 C 23.033 65.646 25.703 59.312 25.703 59.312 L 28.679 55.267 L 32.898 52.3 L 40.05 55.19 L 49.819 56.03 L 55.009 56.488 L 58.954 57.098 L 60.122 59.769 L 60.275 67.325 L 59.358 74.651 L 59.349 75.648 L 59.348 75.648 L 59.283 82.207 L 60.045 84.115 L 60.503 85.259 L 60.275 86.709 L 63.327 87.397 L 65.082 87.243 L 66.456 88.541 L 66.151 90.983 L 67.753 91.593 L 73.935 90.982 L 72.562 87.854 L 70.653 85.717 L 69.814 80.757 L 69.9 75.352 L 69.9 75.352 L 69.966 71.141 L 70.807 64.654 L 71.646 57.709 L 76.377 52.367 L 76.671 46.998 L 76.672 46.998 L 76.682 46.796 L 80.116 34.967 L 81.109 25.503 L 80.956 22.832 L 81.152 22.813 L 81.204 22.965 L 81.947 22.909 L 81.894 22.744 L 82.559 22.68 L 87.595 24.054 L 88.089 24.359 L 88.015 24.435 L 88.644 24.854 L 88.745 24.765 L 89.199 25.046 L 91.03 25.732 L 93.929 23.901 L 94.235 19.856 L 93.167 18.33 Z " fill="rgb(0,0,0)"/></svg>