<?xml version="1.0" encoding="UTF-8" standalone="no"?><!-- Generator: Gravit.io --><svg xmlns="http://www.w3.org/2000/svg" xmlns:xlink="http://www.w3.org/1999/xlink" style="isolation:isolate" viewBox="78.08 270.576 60.811 44.709" width="60.811pt" height="44.709pt"><path d=" M 138.81 310.153 L 138.81 310.153 L 138.564 307.264 L 138.346 306.712 L 138.346 306.712 L 137.337 304.153 L 135.291 301.289 C 135.291 301.289 133.572 299.08 133.326 298.833 C 133.082 298.587 132.017 297.605 132.017 297.605 C 132.017 297.605 132.261 297.442 132.18 297.197 C 132.098 296.952 129.398 294.414 129.398 294.414 L 128.662 293.759 L 128.169 293.267 L 126.697 292.286 L 126.369 291.794 L 124.978 290.24 L 122.054 288.379 C 121.718 287.903 121.458 287.539 121.458 287.539 L 120.324 287.056 L 120.326 287.056 L 117.039 285.657 L 109.345 285.001 L 102.797 284.347 L 101.161 283.447 L 98.706 283.202 L 97.396 282.628 L 95.268 279.436 L 91.994 275.262 L 91.482 274.985 L 91.503 274.934 L 89.969 271.006 L 89.048 270.576 L 88.908 270.888 L 88.908 270.888 L 87.697 273.584 L 87.69 273.802 C 87.371 273.178 86.592 271.743 86.592 271.743 L 85.671 271.436 L 85.487 272.11 L 85.426 273.277 L 85.377 274.551 L 82.991 276.326 L 82.254 277.717 L 81.026 278.782 L 78.08 280.5 L 78.571 281.973 L 79.881 282.956 L 82.5 282.71 L 84.546 282.71 L 86.101 283.938 L 87.82 289.339 L 89.047 293.922 L 90.685 296.624 L 91.904 298.108 L 92.126 300.854 L 92.125 300.854 L 92.239 302.272 L 92.566 306.036 L 92.648 308.082 L 92.076 310.209 L 91.012 310.62 L 90.275 311.52 L 90.357 312.337 L 92.484 312.256 L 93.549 311.192 L 94.096 309.095 L 94.122 309.719 L 94.286 310.784 L 93.712 312.667 L 92.648 312.912 L 91.912 314.302 L 92.321 314.63 L 94.908 314.365 L 94.908 314.365 L 95.513 314.302 L 96.332 311.192 L 96.475 309.309 L 96.659 307.468 L 97.232 305.791 L 97.982 299.941 L 97.982 299.941 L 98.05 299.407 L 98.325 299.196 L 98.325 299.196 L 99.114 298.587 L 101.57 299.161 L 105.99 299.08 L 110.546 298.418 L 110.41 301.371 L 111.392 303.908 L 112.947 305.626 L 114.337 306.773 L 114.425 307.09 L 114.424 307.09 L 114.583 307.672 L 114.337 309.309 L 113.273 311.601 L 112.947 311.928 L 112.046 312.174 L 111.228 313.156 L 111.392 313.811 L 113.519 313.811 L 114.911 313.73 L 115.074 312.583 L 115.484 312.092 L 115.565 311.274 L 116.466 309.555 L 117.775 307.182 L 117.702 306.923 L 117.702 306.923 L 117.449 306.036 L 116.056 305.298 L 115.809 304.445 L 116.22 304.808 L 119.904 306.691 L 120.885 307.591 L 120.437 311.558 L 120.437 311.558 L 120.312 312.667 L 119.331 312.993 L 118.43 313.73 L 118.185 315.203 L 119.003 315.285 L 121.049 315.285 L 122.359 314.139 L 122.931 313.648 L 123.095 310.538 L 124.324 306.2 L 122.359 303.745 L 122.339 303.569 L 122.339 303.569 L 122.113 301.535 L 123.259 297.607 L 123.47 296.794 L 124.16 299.243 C 124.16 299.243 124.324 301.862 124.324 302.189 C 124.324 302.517 125.141 303.008 125.223 303.253 C 125.304 303.499 126.615 304.726 126.697 304.971 C 126.779 305.217 130.052 308.737 130.052 308.737 L 132.054 310.314 L 132.054 310.314 L 132.753 310.865 C 132.753 310.865 136.191 311.438 136.437 311.601 C 136.682 311.765 138.564 312.01 138.564 312.01 L 138.891 311.111 L 138.81 310.153 Z " fill="rgb(0,0,0)"/></svg>