<?xml version="1.0" encoding="UTF-8" standalone="no"?><!-- Generator: Gravit.io --><svg xmlns="http://www.w3.org/2000/svg" xmlns:xlink="http://www.w3.org/1999/xlink" style="isolation:isolate" viewBox="52.397 323.626 71.512 31.968" width="71.512pt" height="31.968pt"><path d=" M 120.85 333.148 L 120.663 332.878 L 120.664 332.878 L 120.224 332.245 L 118.904 329.534 L 118.557 329.325 L 119.251 328.908 L 119.32 327.936 L 118.417 327.101 L 117.229 328.529 L 116.819 328.283 L 115.678 327.88 L 115.499 326.268 L 114.456 325.502 L 113.206 326.407 L 112.845 327.789 L 110.495 328.283 L 106.951 328.005 L 101.878 326.338 L 97.36 324.043 L 94.302 323.626 L 88.187 324.669 L 78.875 329.394 L 75.608 332.799 L 75.259 333.848 L 72.55 336.345 L 71.584 337.047 L 71.584 337.046 L 70.871 337.563 L 70.871 337.564 L 69.95 338.232 L 69.95 338.232 L 68.902 338.993 L 68.902 338.993 L 68.241 339.471 L 67.128 339.982 L 66.408 340.312 L 66.408 340.312 L 65.237 340.849 L 63.926 341.449 C 63.926 341.45 63.926 341.45 63.926 341.45 L 61.57 342.529 L 58.769 343.711 L 58.769 343.711 L 57.123 344.407 L 57.002 344.489 L 57.002 344.49 L 54.852 345.97 L 54.852 345.969 L 53.995 346.56 L 52.397 348.645 L 52.459 349.693 L 52.459 349.693 L 52.606 352.12 L 53.716 352.954 L 57.795 353.087 L 57.794 353.087 L 57.956 353.092 L 59.639 352.372 L 59.64 352.372 L 61.606 351.529 L 62.686 351.066 L 62.687 351.066 L 64.576 350.256 L 64.575 350.256 L 65.74 349.757 L 66.594 349.153 L 67.735 348.347 L 67.735 348.347 L 69.844 346.857 L 69.844 346.857 L 70.952 346.074 L 71.142 345.903 L 71.142 345.903 L 73.731 343.573 L 74.86 341.933 L 74.877 341.909 L 74.877 341.909 L 75.171 341.483 C 75.239 341.951 75.276 342.275 75.26 342.321 C 75.191 342.529 79.152 347.046 79.152 347.046 L 81.446 348.368 L 79.916 349.757 L 79.431 351.425 L 81.099 352.467 L 84.653 353.853 L 84.653 353.853 L 85.198 354.066 L 86.449 354.414 L 86.936 355.108 L 88.882 355.108 L 91.87 355.178 L 91.731 354.206 L 89.993 353.44 L 86.728 352.538 L 85.278 351.704 L 85.278 351.704 L 83.948 350.939 L 84.504 350.591 L 85.971 349.583 L 87.908 350.939 L 89.785 352.398 L 90.828 352.745 L 91.106 353.648 L 94.789 354.066 L 95.067 353.371 L 93.955 351.981 L 91.175 350.939 L 90.718 350.312 L 90.718 350.312 L 89.299 348.368 L 91.175 347.186 L 92.982 345.795 L 93.239 344.96 L 94.302 345.378 L 99.793 346.421 L 101.808 346.143 L 102.572 346.839 L 105.213 349.41 L 106.273 352.12 L 106.273 352.12 L 106.464 352.606 L 106.812 354.275 L 107.715 354.692 L 108.132 355.386 L 111.273 355.557 L 111.273 355.557 L 111.954 355.594 L 111.954 354.969 L 110.842 354.066 L 109.244 353.371 L 108.688 352.467 L 108.652 351.469 L 108.651 351.469 L 108.619 350.591 L 108.874 347.889 L 112.371 349.549 L 112.788 350.382 L 111.676 351.912 L 111.954 352.538 L 113.206 352.398 L 114.873 350.661 L 115.012 349.27 L 113.761 348.228 L 113.597 348.082 L 113.597 348.082 L 111.189 345.935 L 110.371 344.615 L 111.259 343.225 L 113.136 339.958 L 114.731 338.644 L 114.731 338.645 L 115.499 338.012 L 116.86 337.741 L 116.859 337.741 L 117.583 337.596 L 122.31 337.387 L 123.629 336.624 L 123.908 335.024 L 120.85 333.148 Z " fill="rgb(0,0,0)"/></svg>