<?xml version="1.0" encoding="UTF-8" standalone="no"?><!-- Generator: Gravit.io --><svg xmlns="http://www.w3.org/2000/svg" xmlns:xlink="http://www.w3.org/1999/xlink" style="isolation:isolate" viewBox="38.04 309.334 23.728 23.154" width="23.728pt" height="23.154pt"><path d=" M 58.633 310.588 L 54.661 309.334 L 53.408 309.714 L 53.408 309.714 L 52.482 309.996 L 52.483 309.996 L 51.734 310.222 L 49.486 313.777 L 49.224 315.867 L 49.799 318.272 L 50.071 318.607 L 49.382 318.48 L 48.441 318.324 L 47.741 317.623 C 47.741 317.624 47.741 317.624 47.741 317.624 L 47.71 317.591 L 46.246 316.807 L 45.828 315.606 L 45.085 314.319 L 45.086 314.319 L 45.044 314.248 L 44.237 313.725 L 44.364 313.409 L 44.33 312.272 L 44.186 311.419 L 43.619 311.384 L 42.771 312.147 L 42.331 311.525 L 41.939 311.596 L 41.581 312.131 L 41.76 312.99 L 41.844 313.8 L 39.817 314.927 L 39.3 315.985 L 39.301 315.984 L 38.747 317.121 L 38.746 317.121 L 38.72 317.173 L 38.616 317.591 L 38.572 317.67 L 38.571 317.67 L 38.354 318.062 L 39.137 319.575 L 39.136 319.575 L 39.139 319.579 L 39.46 319.699 L 39.46 319.699 L 39.557 319.734 L 39.766 320.153 L 40.235 320.101 L 41.438 320.048 L 42.169 320.675 L 41.96 321.512 L 41.071 321.982 L 39.975 321.25 L 39.139 320.257 L 38.668 320.205 L 38.668 320.467 L 38.354 320.414 L 38.04 320.675 L 38.214 321.282 L 38.214 321.282 L 38.25 321.408 L 38.459 322.243 L 39.139 322.505 L 39.4 322.871 L 40.131 323.811 L 42.745 325.222 L 43.581 325.169 L 43.586 325.245 L 43.587 325.245 L 43.79 327.835 L 44.792 329.449 L 45.044 330.134 L 45.619 330.972 L 45.037 330.875 L 45.037 330.875 L 44.677 330.814 L 43.058 330.814 L 42.431 330.972 L 42.169 331.912 L 42.535 332.122 L 42.64 332.488 L 42.771 332.488 L 44.574 332.488 L 47.761 332.331 L 48.742 332.304 L 48.742 332.305 L 49.747 332.278 L 49.94 331.765 L 50.375 331.912 L 52.413 332.017 L 53.564 331.443 L 53.612 331.306 L 53.775 331.422 L 53.775 331.421 L 54.242 331.755 L 55.393 331.651 L 56.699 329.508 L 58.214 325.589 L 57.431 322.557 L 56.23 319.682 L 56.439 317.8 L 57.118 317.54 L 57.64 318.794 L 58.999 319.63 L 61.142 318.899 L 61.768 315.031 L 58.633 310.588 Z " fill="rgb(0,0,0)"/></svg>