<?xml version="1.0" encoding="UTF-8" standalone="no"?><!-- Generator: Gravit.io --><svg xmlns="http://www.w3.org/2000/svg" xmlns:xlink="http://www.w3.org/1999/xlink" style="isolation:isolate" viewBox="192.225 78.813 26.859 31.561" width="26.859pt" height="31.561pt"><path d=" M 219.084 83.981 L 218.93 83.669 L 218.369 83.288 L 217.48 82.871 L 217.335 82.461 L 217.336 82.461 L 217.263 82.256 L 216.792 81.748 L 216.51 80.9 L 216.51 80.9 L 216.502 80.878 L 215.886 80.516 L 215.597 80.19 L 215.162 79.356 L 214.111 78.813 L 213.814 79.383 L 213.814 79.383 L 213.64 79.719 L 212.879 78.922 L 212.045 79.139 L 211.647 79.864 L 211.257 79.956 L 211.257 79.956 L 211.03 80.009 L 211.212 81.422 L 210.404 83.168 L 210.405 83.168 L 210.089 83.85 L 208.422 87.799 L 207.915 88.379 L 205.125 88.633 L 201.465 89.249 L 200.232 88.923 L 198.385 87.763 L 197.407 84.974 L 195.269 83.777 L 194.737 84.183 L 194.736 84.182 L 194.534 84.336 L 194.535 84.336 L 194.508 84.357 L 194.471 85.154 L 194.149 85.456 L 193.973 85.621 L 193.973 85.621 L 193.348 86.205 L 193.283 86.233 L 193.283 86.233 L 193.216 86.262 L 192.591 86.53 L 192.591 86.529 L 192.587 86.531 L 192.261 87.111 L 192.479 88.089 L 192.479 89.321 L 192.225 90.553 L 192.66 91.459 L 193.42 92.546 L 194.365 95.3 L 194.365 95.3 L 194.689 96.242 L 195.667 98.344 L 197.986 99.141 L 198.457 99.902 L 201.139 101.352 L 202.806 102.149 L 204.726 104.069 L 205.128 104.231 L 205.129 104.231 L 205.27 104.287 L 205.849 106.534 L 205.849 108.07 L 205.849 108.127 L 205.016 108.381 L 203.675 108.925 L 203.494 109.07 L 203.584 109.124 L 203.584 109.124 L 203.675 109.178 L 204.255 109.033 L 204.762 109.106 L 206.471 108.783 L 206.472 108.784 L 206.683 108.743 L 207.878 109.359 L 209.183 109.65 L 210.233 110.084 L 210.596 110.374 L 210.741 110.374 L 210.451 109.903 L 210.285 109.768 L 210.284 109.768 L 209.871 109.432 L 208.35 108.708 L 208.929 108.526 L 210.487 108.599 L 210.85 108.454 L 211.719 108.78 L 211.828 108.562 L 210.886 108.055 L 210.487 107.729 L 209.582 107.946 L 208.53 108.019 L 207.009 107.874 L 206.501 106.968 L 206.32 104.177 L 206.442 104.111 L 206.443 104.111 L 207.045 103.779 L 207.951 102.402 L 208.966 100.59 L 211.357 99.685 L 213.857 98.308 L 214.944 96.786 L 215.778 95.989 L 215.886 94.901 L 216.43 93.778 L 216.212 89.901 L 216.321 88.706 L 215.343 86.604 L 215.089 85.19 L 215.144 85.229 L 215.416 86.332 L 216.095 86.44 L 216.536 86.033 L 216.992 86.278 L 217.318 85.435 L 217.419 84.2 L 218.283 84.076 L 219.084 83.981 Z " fill="rgb(0,0,0)"/></svg>