<?xml version="1.0" encoding="UTF-8" standalone="no"?><!-- Generator: Gravit.io --><svg xmlns="http://www.w3.org/2000/svg" xmlns:xlink="http://www.w3.org/1999/xlink" style="isolation:isolate" viewBox="7.172 96.946 57.056 48.554" width="57.056pt" height="48.554pt"><path d=" M 64.102 116.664 L 63.898 113.619 L 64.229 111.109 L 63.653 108.816 L 61.403 107.319 L 60.001 105.667 L 53.932 104.681 L 48.918 104.143 L 41.728 104.052 L 36.235 103.775 L 30.649 104.233 L 28.226 102.986 L 26.949 101.451 L 23.365 100.209 L 23.365 100.209 L 23.307 100.189 L 24.412 98.807 L 24.533 97.219 L 23.565 97.378 L 20.605 98.831 L 19.318 98.606 L 18.185 97.644 L 17.335 96.946 L 13.904 97.991 L 11.791 100.082 L 11.431 100.703 L 10.763 101.857 L 11.717 102.917 L 8.208 106.706 L 7.264 107.503 L 7.172 108.299 L 7.395 109.325 L 7.432 110.298 L 8.01 110.624 L 8.01 110.624 L 8.241 110.755 L 9.074 111.819 L 10.58 111.396 L 12.181 110.239 L 13.404 110.375 L 14.99 110.436 L 15.52 113.156 L 16.776 114.144 L 16.85 116.09 L 17.91 116.719 L 18.59 118.581 L 20.418 118.572 L 20.974 121.961 L 22.518 122.511 L 22.763 123.286 L 22.763 123.286 L 23.071 124.257 C 23.071 124.257 24.037 127.204 24.044 127.387 C 24.05 127.569 26.876 131.359 26.876 131.359 L 29.126 132.856 L 29.355 134.065 L 29.86 134.533 L 30.107 137.813 L 29.711 140.204 L 28.851 141.577 L 28.427 141.93 L 28.427 141.929 L 27.316 142.854 L 27.307 143.635 L 27.306 143.635 L 27.301 144.072 L 29.072 144.187 L 30.59 144.068 L 30.691 143.785 L 30.691 143.785 L 31.14 142.524 L 31.112 141.794 L 31.571 141.616 L 31.571 141.617 L 32.853 141.119 L 32.574 140.216 L 32.715 139.114 L 33.146 134.287 L 33.146 134.287 L 33.184 133.858 L 36.001 132.654 L 36.064 131.129 L 36.455 130.201 L 40.237 130.36 L 46.723 131.147 L 50.337 130.095 L 52.689 131.041 L 55.619 132.817 L 56.671 134.847 L 57.642 136.333 L 57.541 138.469 L 56.899 140.808 L 55.882 141.272 L 55.288 142.022 L 55.287 142.022 L 55.185 142.153 L 54.401 142.365 L 53.382 144.203 L 53.382 144.203 L 53.09 144.729 L 53.401 144.9 L 54.192 144.87 L 54.028 145.363 L 55.252 145.5 L 58.22 145.082 L 58.342 144.721 L 58.342 144.721 L 58.658 143.786 L 58.576 143.241 L 59.9 142.824 L 59.774 141.124 L 60.301 138.972 L 61.219 135.819 L 61.219 135.819 L 61.431 135.092 L 61.088 134.069 L 62.471 130.422 L 63.319 123.934 L 64.183 117.871 L 64.102 116.664 L 64.102 116.664 Z " fill="rgb(0,0,0)"/></svg>