<?xml version="1.0" encoding="UTF-8" standalone="no"?><!-- Generator: Gravit.io --><svg xmlns="http://www.w3.org/2000/svg" xmlns:xlink="http://www.w3.org/1999/xlink" style="isolation:isolate" viewBox="152.42 2.917 32.745 55.146" width="32.745pt" height="55.146pt"><path d=" M 184.777 40.307 L 183.782 40.861 L 183.505 40.307 L 182.178 40.861 L 179.357 39.257 L 175.264 35.938 L 171.061 32.342 L 168.184 29.853 L 163.593 28.36 L 162.542 26.48 L 162.542 24.654 L 164.644 16.523 L 166.082 9.886 L 165.86 7.01 L 163.648 3.857 L 163.206 3.47 L 162.266 3.359 L 157.958 2.918 L 157.958 2.917 L 157.952 2.917 L 157.398 3.027 L 156.513 4.134 L 155.684 5.406 L 153.139 5.793 L 152.42 6.457 L 152.456 6.925 L 152.456 6.925 L 152.469 7.097 L 152.47 7.097 L 152.476 7.176 L 153.803 7.231 L 155.446 7.536 L 155.446 7.536 L 156.14 7.664 L 156.513 7.733 L 156.513 7.733 L 156.79 7.785 L 158.283 9.223 L 159.832 9.997 L 160.938 11.712 L 161.381 13.537 L 160.108 18.847 L 157.785 24.323 L 154.633 28.692 L 154.19 31.292 L 154.19 34.832 L 155.407 37.266 L 156.015 40.086 L 156.182 40.837 L 156.182 40.836 L 156.79 43.571 L 159.445 46.613 L 163.427 49.157 L 164.976 50.872 L 167.078 51.979 L 167.022 55.353 L 166.192 56.292 L 164.976 56.016 L 161.989 55.574 L 161.562 56.099 L 161.562 56.099 L 161.27 56.459 L 159.61 57.399 L 159.721 58.063 L 161.159 57.676 L 163.593 57.676 L 164.976 58.007 L 167.686 57.786 L 167.962 57.012 L 168.35 56.237 L 168.958 56.514 L 169.234 55.795 L 168.792 54.799 L 168.847 52.974 L 169.069 51.702 L 169.469 51.425 L 169.469 51.425 L 171.226 50.208 L 176.425 48.604 L 181.237 45.175 L 183.56 44.179 L 184.777 42.078 L 185.165 40.971 L 184.777 40.307 Z " fill="rgb(0,0,0)"/></svg>