<?xml version="1.0" encoding="UTF-8" standalone="no"?><!-- Generator: Gravit.io --><svg xmlns="http://www.w3.org/2000/svg" xmlns:xlink="http://www.w3.org/1999/xlink" style="isolation:isolate" viewBox="80.792 150.446 69.676 63.016" width="69.676pt" height="63.016pt"><path d=" M 150.263 165.475 L 148.828 164.723 L 146.71 163.493 L 143.978 161.478 L 142.134 160.181 L 138.854 157.824 L 138.188 157.761 L 137.865 156.082 L 136.061 153.931 L 136.062 153.933 L 135.2 152.905 L 129.564 150.446 L 129.229 150.867 L 129.228 150.867 L 129.155 150.959 L 133.356 153.11 L 135.303 156.184 L 135.691 157.674 L 132.707 158.917 L 130.248 164.108 L 126.696 167.387 L 123.93 169.504 L 120.138 170.119 C 120.138 170.119 117.884 171.759 117.577 171.861 C 117.27 171.964 110.609 172.988 110.609 172.988 L 102.514 171.657 L 98.723 170.426 L 94.42 170.837 L 88.989 172.579 L 88.067 174.013 L 85.095 173.91 L 82.022 171.964 L 81.103 172.422 L 81.103 172.422 L 80.792 172.579 L 81.816 176.882 L 83.968 178.112 L 86.632 177.086 L 87.453 178.112 L 87.145 180.57 L 88.169 183.336 L 89.707 187.333 L 88.847 192.4 L 88.848 192.4 L 88.682 193.379 L 86.53 195.222 L 86.632 196.247 L 88.169 199.833 L 89.092 206.904 L 88.887 208.235 L 90.321 209.26 L 90.424 210.285 L 90.099 211.196 L 90.098 211.196 L 89.912 211.719 L 93.6 212.949 L 95.035 212.539 L 95.138 211.412 L 93.702 209.26 L 92.473 208.235 L 91.96 203.83 L 92.268 197.887 L 94.112 196.247 L 94.361 196.037 L 94.727 198.604 L 95.138 202.908 L 94.83 206.084 L 95.752 206.904 L 95.752 208.133 L 95.035 209.362 L 97.596 210.592 L 99.748 210.387 L 100.055 209.362 L 98.826 207.621 L 97.698 206.186 L 97.391 204.854 L 96.674 199.833 L 96.982 198.912 L 98.211 197.041 L 98.211 198.297 L 99.44 198.399 L 99.953 197.272 L 100.875 197.477 L 101.08 198.912 L 102.002 198.502 L 102.514 197.579 L 104.973 194.402 L 105.651 192.167 L 106.306 192.251 L 113.375 193.583 L 121.982 191.329 L 123.93 190.611 L 124.017 190.787 L 124.017 190.787 L 124.851 192.456 L 124.646 196.453 L 124.237 198.604 L 125.364 200.96 L 126.388 201.883 L 127.823 209.465 L 127.413 210.797 L 127.766 211.044 L 127.766 211.044 L 128.437 211.515 L 129.052 212.949 L 131.921 213.462 L 133.766 213.256 L 133.663 211.002 L 133.628 210.987 L 133.628 210.987 L 132.691 210.56 L 134.585 209.978 L 133.663 208.235 L 132.229 207.416 L 132.229 206.084 L 130.999 201.985 L 131.204 198.808 L 131.921 194.608 L 132.152 189.535 L 133.663 188.152 L 134.996 184.259 L 135.098 180.98 L 138.889 172.886 L 140.427 169.642 L 142.202 169.778 L 145.344 169.71 L 144.934 171.008 L 145.208 174.013 L 146.231 175.857 L 146.506 176.95 L 147.053 176.54 L 147.053 175.244 L 147.94 172.238 L 149.033 169.71 L 149.989 169.505 L 150.468 167.729 L 150.263 165.475 Z " fill="rgb(0,0,0)"/></svg>