<?xml version="1.0" encoding="UTF-8" standalone="no"?><!-- Generator: Gravit.io --><svg xmlns="http://www.w3.org/2000/svg" xmlns:xlink="http://www.w3.org/1999/xlink" style="isolation:isolate" viewBox="11.452 152.118 52.286 53.62" width="52.286pt" height="53.62pt"><path d=" M 11.515 162.036 L 11.452 161.509 L 12.294 157.575 L 12.49 156.665 L 12.49 156.665 L 12.951 154.507 L 16.775 152.245 L 16.775 152.245 L 16.897 152.173 L 19.513 152.173 L 22.12 152.173 L 26.009 152.618 L 26.009 153.34 L 27.288 155.84 L 30.065 158.452 L 32.9 159.897 L 33.844 160.009 L 34.035 159.94 L 34.035 159.941 L 40.456 157.675 L 41.623 158.008 L 41.517 158.354 L 41.517 158.354 L 41.401 158.73 L 47.124 164.064 L 51.458 166.843 L 51.485 166.815 L 51.485 166.815 L 52.18 166.12 L 52.199 165.694 L 52.199 165.694 L 52.236 164.842 L 50.346 162.23 L 49.013 157.675 L 48.736 155.729 L 49.624 153.452 L 50.958 152.952 L 51.014 152.396 L 52.402 152.396 L 52.791 152.118 L 54.514 152.896 L 55.64 153.646 L 55.64 153.646 L 56.347 154.118 L 56.903 155.507 L 57.403 156.175 L 59.292 157.174 L 59.515 157.675 L 58.9 157.762 L 58.9 157.762 L 58.737 157.785 L 59.07 160.564 L 58.626 162.842 L 59.014 164.287 L 57.903 164.454 L 57.348 162.508 L 57.459 159.007 L 56.959 158.12 L 56.89 158.143 L 56.89 158.143 L 55.347 158.674 L 55.514 159.786 L 55.626 162.731 L 56.57 164.342 L 58.015 165.954 L 58.959 168.343 L 59.524 168.958 L 59.524 168.959 L 60.181 169.676 L 62.293 173.232 L 63.737 177.177 L 63.208 179.614 L 63.208 179.614 L 61.793 186.124 L 59.348 188.958 L 54.069 193.569 L 46.457 196.625 L 42.728 197.977 L 42.729 197.977 L 42.012 198.236 L 42.012 198.585 L 42.012 200.57 L 42.623 201.015 L 46.012 201.349 L 47.679 201.126 L 49.513 201.96 L 49.624 202.904 L 49.481 202.781 L 49.481 202.782 L 49.235 202.571 L 48.68 202.571 L 47.791 202.237 L 45.513 202.349 L 41.778 202.349 L 41.567 202.349 L 43.79 203.127 L 46.29 203.793 L 46.804 204.615 L 46.804 204.615 L 47.124 205.127 L 46.846 205.738 L 46.624 205.349 L 45.846 205.294 L 45.401 204.849 L 41.234 204.016 L 38.567 202.904 L 36.4 202.96 L 35.788 202.737 L 34.511 202.904 L 33.677 203.127 L 33.844 202.571 L 34.733 202.237 L 35.344 201.459 L 37.066 201.626 L 39.733 200.959 L 39.733 200.909 L 39.733 198.715 L 39.733 198.681 L 38.767 198.053 L 38.768 198.053 L 37.511 197.236 L 34.677 196.681 L 28.288 192.848 L 24.842 189.069 L 21.62 190.068 L 21.009 189.458 L 16.674 188.18 L 16.23 185.624 L 16.508 185.179 L 17.341 185.123 L 20.954 183.512 L 20.731 180.29 L 13.286 178.845 L 13.063 178.123 L 13.396 177.567 L 12.505 170.212 L 12.505 170.212 L 12.482 170.02 L 12.096 166.834 L 12.018 166.191 L 12.019 166.191 L 11.516 162.036 L 11.515 162.036 Z " fill="rgb(0,0,0)"/></svg>