<?xml version="1.0" encoding="UTF-8" standalone="no"?><!-- Generator: Gravit.io --><svg xmlns="http://www.w3.org/2000/svg" xmlns:xlink="http://www.w3.org/1999/xlink" style="isolation:isolate" viewBox="88.252 51.755 62.506 34.644" width="62.506pt" height="34.644pt"><path d=" M 92.219 64.395 L 91.112 64.718 L 89.959 62.873 L 90.097 62.227 L 91.112 61.72 L 92.035 62.55 L 92.542 63.519 L 92.219 64.395 Z  M 150.25 69.7 L 149.374 68.547 L 147.806 67.163 L 145.868 65.133 L 145.545 63.242 L 144.945 61.489 L 144.644 61.252 L 144.761 60.981 L 145.268 59.229 L 145.396 58.675 L 146.099 57.429 L 147.714 56.276 L 147.759 55.308 L 143.607 56.184 L 142.316 57.614 L 141.028 58.34 L 139.871 57.337 L 139.177 56.629 L 139.178 56.629 L 137.657 55.077 L 132.444 53.001 L 122.849 53.001 L 118.421 51.848 L 115.192 51.94 L 107.857 51.755 L 103.823 53.218 L 103.824 53.218 L 99.969 54.616 L 95.771 57.383 L 93.787 60.889 L 94.027 61.836 L 93.188 63.15 L 91.389 60.612 L 88.528 61.997 L 89.82 65.133 L 90.927 65.686 L 91.527 65.779 L 90.605 66.564 L 89.313 66.84 L 88.252 66.702 L 88.99 67.67 L 91.02 67.117 L 92.588 65.594 L 93.28 65.41 L 94.406 63.334 L 94.756 64.718 L 95.356 68.87 L 96.203 69.784 L 96.509 72.099 L 97.662 74.221 L 98.862 79.295 L 99.646 80.725 L 99.692 82.201 L 100.983 82.939 L 102.326 82.872 L 102.413 83.17 L 102.275 84.692 L 102.829 85.43 L 102.736 86.122 L 102.851 86.116 L 102.851 86.116 L 106.335 85.938 L 106.335 85.615 L 104.905 83.954 L 104.766 81.878 L 104.627 80.587 L 105.966 78.788 L 106.519 78.142 L 106.289 75.835 L 106.657 74.913 L 107.812 73.252 L 107.895 73.291 L 107.895 73.291 L 110.209 74.359 L 114.223 75.604 L 116.022 76.296 L 119.759 76.343 L 123.08 74.913 L 124.596 74.183 L 125.386 75.42 L 125.801 75.928 L 126.54 83.032 L 127.093 83.723 L 128.846 83.908 L 130.369 83.908 L 130.322 83.309 L 128.754 82.109 L 128.8 80.771 L 129.252 77.455 L 129.907 78.142 L 131.245 81.786 L 131.614 83.124 L 132.398 84.646 L 132.167 85.476 L 133.598 85.984 L 134.444 86.116 L 134.444 86.115 L 136.272 86.399 L 136.596 85.892 L 135.027 84.139 C 135.027 84.139 134.566 82.663 134.566 82.524 C 134.566 82.386 134.151 81.786 134.151 81.786 L 133.69 78.557 L 134.197 75.374 L 134.013 74.359 L 134.52 73.113 L 135.304 72.514 L 138.302 73.621 L 141.625 74.682 L 144.023 74.221 L 145.5 73.668 L 147.852 73.436 L 147.99 73.76 L 148.359 74.082 L 148.723 73.496 L 148.723 73.496 L 148.858 73.278 L 148.858 73.278 L 150.619 70.438 L 150.758 69.885 L 150.25 69.7 Z " fill="rgb(0,0,0)"/></svg>