<?xml version="1.0" encoding="UTF-8" standalone="no"?><!-- Generator: Gravit.io --><svg xmlns="http://www.w3.org/2000/svg" xmlns:xlink="http://www.w3.org/1999/xlink" style="isolation:isolate" viewBox="280.129 264.616 23.045 15.971" width="23.045pt" height="15.971pt"><path d=" M 280.241 267.681 L 280.129 267.598 L 280.163 267.347 L 280.163 267.347 L 280.184 267.18 L 280.826 266.818 L 282.637 266.707 L 285.149 267.322 L 284.728 266.902 L 284.031 266.316 L 283.978 266.243 L 283.978 266.243 L 283.972 266.235 L 283.885 266.115 L 283.885 266.115 L 283.686 265.838 L 283.686 265.838 L 283.477 265.551 L 283.477 265.551 L 283.446 265.507 L 283.403 265.433 L 283.403 265.433 L 283.139 264.978 L 283.278 264.616 L 283.92 264.643 L 284.952 264.811 L 286.512 265.256 L 288.268 266.288 L 288.797 266.762 L 289.356 267.069 L 290.833 268.24 L 291.808 269.466 L 292.163 270.254 L 292.163 270.254 L 292.375 270.728 L 292.393 270.72 L 293.174 270.134 L 293.899 269.549 L 294.568 269.494 L 295.823 269.605 L 296.436 270.134 L 296.993 270.665 L 297.356 271 L 297.348 271.023 L 297.425 271.006 L 297.906 271.131 L 299.432 271.32 L 301.774 271.696 L 302.881 272.009 L 303.174 272.282 L 303.139 272.351 L 303.139 272.351 L 303.112 272.407 L 302.777 272.24 L 302.045 271.989 L 301.083 271.863 L 298.909 271.779 L 297.279 271.863 L 296.895 271.822 L 296.727 271.989 L 296.727 271.989 L 296.713 272.002 L 296.212 272.504 L 295.153 273.005 L 294.54 273.089 L 294.526 273.121 L 294.526 273.121 L 294.122 274.065 L 293.788 274.929 L 293.09 276.016 L 292.309 276.491 L 291.055 277.335 L 291.049 277.382 L 290.819 277.716 L 290.672 277.633 L 290.731 277.5 L 290.223 277.714 L 289.983 277.988 L 289.668 278.009 L 289.681 277.942 L 289.356 278.08 L 288.295 278.247 L 287.375 278.525 L 286.01 279.446 L 285.872 279.305 L 285.063 279.975 L 284.282 280.587 L 284.115 280.449 L 284.282 280.169 L 284.31 279.891 L 284.115 279.947 L 284.254 279.389 L 284.481 279.048 L 284.481 279.048 L 284.588 278.888 L 285.537 277.94 L 286.624 276.908 L 287.209 275.989 L 288.045 274.623 L 287.959 274.549 L 287.959 274.549 L 287.817 274.426 L 287.817 274.426 L 287.655 274.289 L 287.375 273.34 L 286.679 272.504 L 286.51 272.372 L 286.51 272.372 L 286.493 272.357 L 285.846 271.847 L 285.846 271.847 L 285.846 271.847 L 285.12 271.275 L 285.12 271.275 L 284.977 271.163 L 284.977 271.163 L 284.127 270.493 L 284.007 270.398 L 284.007 270.398 L 283.829 270.257 L 283.83 270.257 L 283.305 269.844 L 283.304 269.844 L 282.913 269.536 L 282.913 269.536 L 282.861 269.494 L 282.747 269.43 L 282.747 269.43 L 281.55 268.769 L 280.993 268.239 L 280.68 268.006 L 280.68 268.006 L 280.328 267.747 L 280.329 267.747 L 280.241 267.681 L 280.241 267.681 Z " fill="rgb(0,0,0)"/></svg>