<?xml version="1.0" encoding="UTF-8" standalone="no"?><!-- Generator: Gravit.io --><svg xmlns="http://www.w3.org/2000/svg" xmlns:xlink="http://www.w3.org/1999/xlink" style="isolation:isolate" viewBox="71.4 128.981 29.852 26.653" width="29.852pt" height="26.653pt"><path d=" M 101.252 155.423 L 101.192 153.069 L 100.77 149.597 L 99.94 147.553 L 99.94 147.553 L 99.2 145.734 L 97.782 143.5 L 96.702 142.904 L 96.702 142.904 L 95.759 142.383 L 94.582 141.267 L 93.586 140.209 L 93.745 140.091 L 93.745 140.092 L 94.005 139.899 L 94.005 139.899 L 94.401 139.606 L 95.065 138.972 L 95.669 138.61 L 96.212 137.855 L 96.212 137.765 L 96.665 137.614 L 96.876 137.614 L 96.755 137.373 L 96.129 137.236 L 96.07 137.097 L 96.07 137.097 L 95.88 136.648 L 94.854 136.075 L 93.254 135.531 L 92.168 135.5 L 91.288 135.755 L 91.289 135.755 L 91.02 135.833 C 91.02 135.833 90.851 135.783 90.63 135.718 L 90.63 135.718 C 90.615 135.714 90.598 135.709 90.582 135.705 C 90.294 135.622 89.939 135.521 89.743 135.471 C 89.735 135.469 89.728 135.467 89.72 135.465 C 89.698 135.459 89.678 135.456 89.661 135.452 C 89.655 135.451 89.648 135.449 89.643 135.448 C 89.624 135.444 89.608 135.441 89.602 135.441 C 89.511 135.441 88.756 135.079 88.756 135.079 L 88.213 134.022 L 87.398 133.569 L 87.066 133.431 L 87.066 133.431 L 84.198 132.241 L 83.069 131.813 L 83.069 131.813 L 78.705 130.159 L 75.204 128.981 L 75.088 129.146 L 75.088 129.146 L 74.932 129.374 L 75.173 129.706 L 75.807 130.097 L 75.626 130.37 L 75.958 130.762 L 76.592 131.125 L 76.984 131.185 L 77.528 131.667 L 78.37 132.412 L 78.37 132.412 L 78.49 132.518 L 78.49 132.518 L 78.77 132.765 L 79.339 133.267 L 79.384 133.303 L 79.384 133.303 L 79.448 133.355 L 79.448 133.355 L 79.732 133.585 L 79.732 133.585 L 79.973 133.781 L 80.425 134.113 L 80.818 134.354 L 80.848 134.716 L 80.999 134.958 L 81.093 134.93 L 81.093 134.931 L 81.21 134.897 L 81.227 134.938 L 81.227 134.938 L 81.29 135.097 L 81.452 135.5 L 81.377 135.663 L 81.292 135.846 L 81.293 135.846 L 81.271 135.894 L 81.317 136.018 L 81.317 136.018 L 81.452 136.376 L 81.663 136.678 L 81.814 137.071 L 81.723 137.765 C 81.723 137.765 81.722 137.77 81.721 137.778 L 81.721 137.778 C 81.721 137.781 81.72 137.786 81.719 137.789 C 81.716 137.807 81.711 137.836 81.706 137.875 C 81.705 137.878 81.705 137.882 81.704 137.887 L 81.704 137.887 C 81.671 138.098 81.61 138.52 81.633 138.61 C 81.647 138.667 81.708 138.723 81.769 138.767 L 81.768 138.767 C 81.77 138.768 81.771 138.769 81.773 138.77 C 81.783 138.778 81.794 138.785 81.805 138.792 C 81.811 138.796 81.817 138.801 81.824 138.805 C 81.83 138.808 81.835 138.812 81.841 138.815 C 81.845 138.818 81.849 138.821 81.853 138.823 L 81.853 138.823 C 81.883 138.841 81.905 138.851 81.905 138.851 L 81.904 138.853 L 81.904 138.853 L 81.874 139.123 C 81.864 139.14 81.857 139.162 81.85 139.186 C 81.848 139.195 81.846 139.204 81.844 139.213 C 81.843 139.22 81.84 139.227 81.839 139.236 L 81.841 139.235 C 81.807 139.446 81.855 139.808 81.905 139.908 C 81.914 139.925 81.923 139.951 81.932 139.979 C 81.935 139.989 81.939 140 81.941 140.009 C 81.948 140.031 81.955 140.054 81.962 140.08 C 81.965 140.09 81.968 140.101 81.971 140.112 C 81.979 140.142 81.986 140.172 81.994 140.204 C 81.995 140.208 81.997 140.214 81.998 140.219 C 82.007 140.257 82.015 140.295 82.023 140.329 L 82.023 140.329 C 82.043 140.417 82.055 140.482 82.055 140.482 C 82.055 140.482 81.916 140.701 81.792 140.904 L 81.792 140.904 C 81.79 140.908 81.788 140.911 81.786 140.915 C 81.742 140.986 81.701 141.054 81.669 141.111 C 81.669 141.111 81.668 141.112 81.667 141.113 C 81.651 141.141 81.637 141.166 81.626 141.186 C 81.625 141.188 81.625 141.19 81.624 141.192 C 81.613 141.21 81.606 141.227 81.603 141.236 C 81.589 141.278 81.408 141.448 81.217 141.62 L 81.217 141.62 C 81.024 141.792 80.823 141.964 80.771 142.009 C 80.763 142.016 80.757 142.021 80.757 142.021 L 79.479 142.93 L 79.48 142.93 L 79.188 143.138 L 78.723 143.366 L 78.724 143.366 L 77.769 143.832 L 77.475 143.937 L 77.475 143.937 L 76.603 144.25 L 76.544 144.271 L 76.544 144.271 L 75.758 144.553 L 75.758 144.553 L 75.6 144.61 L 73.392 145.402 L 71.551 146.066 L 71.4 146.368 L 71.521 146.579 L 73.815 145.734 L 74.606 145.518 L 74.824 145.458 L 74.824 145.458 L 75.77 145.201 L 75.769 145.201 L 75.986 145.141 L 76.803 144.918 L 77.33 144.887 L 77.33 144.887 L 77.455 144.879 L 78.118 144.84 L 78.118 144.84 L 78.312 144.829 L 78.525 145.226 L 78.524 145.226 L 78.554 145.281 L 78.424 145.597 L 78.425 145.597 L 78.283 145.945 L 77.569 146.897 L 77.569 146.897 L 77.242 147.332 L 77.243 147.332 L 77.105 147.515 L 75.324 149.597 L 74.057 150.382 L 73.785 150.714 L 74.026 150.925 L 75.083 150.261 L 76.562 149.326 L 78.071 147.455 L 79.105 146.67 L 79.106 146.669 L 80.522 145.595 L 80.521 145.595 L 81.572 144.798 L 82.961 144.164 L 84.124 144.138 C 84.124 144.138 84.124 144.138 84.125 144.138 L 84.289 144.133 L 84.833 144.194 L 85.135 143.893 L 85.376 144.133 L 85.949 144.466 L 86.637 144.531 L 86.646 144.532 L 86.646 144.532 L 86.916 144.556 L 87.639 144.436 L 87.899 144.618 L 87.899 144.618 L 87.941 144.647 L 88.093 144.698 L 88.093 144.698 L 88.332 144.778 L 88.333 144.778 L 88.394 144.798 L 88.772 144.866 L 88.772 144.866 L 88.913 144.891 L 88.913 144.891 L 89.239 144.949 L 89.891 144.86 L 89.891 144.86 L 89.903 144.858 L 90.028 145 L 90.028 145 L 90.115 145.1 C 90.115 145.1 90.133 145.113 90.161 145.133 L 90.161 145.132 C 90.247 145.194 90.438 145.331 90.598 145.444 L 90.598 145.444 C 90.626 145.464 90.652 145.482 90.677 145.5 C 90.689 145.508 90.699 145.515 90.71 145.523 L 90.71 145.523 C 90.71 145.524 90.71 145.524 90.71 145.524 C 90.772 145.566 90.819 145.6 90.839 145.613 C 90.846 145.618 90.862 145.626 90.884 145.636 C 90.886 145.637 90.889 145.639 90.892 145.64 C 91.02 145.702 91.352 145.844 91.672 145.98 C 91.728 146.003 91.783 146.027 91.836 146.049 L 91.836 146.049 C 91.861 146.059 91.886 146.071 91.91 146.081 C 91.965 146.104 92.018 146.125 92.066 146.146 L 92.067 146.146 C 92.249 146.223 92.378 146.277 92.378 146.277 L 92.794 146.526 L 92.794 146.526 L 92.832 146.548 L 92.837 146.581 L 92.837 146.581 L 92.922 147.001 L 93.312 147.498 L 93.419 147.635 L 93.419 147.635 L 94.582 149.115 L 94.89 149.657 L 94.91 149.691 L 94.91 149.691 L 95.337 150.442 L 95.612 150.374 L 95.612 150.374 L 95.699 150.352 L 95.74 150.424 L 95.74 150.424 L 95.907 150.721 L 95.907 150.721 L 96.091 151.046 L 96.151 151.207 L 96.151 151.207 L 96.235 151.436 L 96.235 151.436 L 96.265 151.515 L 96.393 151.861 L 96.755 151.952 L 97.499 152.448 L 97.499 152.448 L 97.66 152.555 L 98.265 153.672 L 98.577 153.866 L 98.577 153.866 L 98.62 153.893 L 98.625 153.895 L 98.625 153.895 L 98.776 153.99 L 98.776 153.99 L 99.633 154.521 L 99.633 154.521 L 99.681 154.55 L 99.71 154.569 L 99.71 154.569 L 99.773 154.608 L 100.152 154.93 L 100.152 154.93 L 100.981 155.634 L 101.252 155.423 Z " fill="rgb(0,0,0)"/></svg>