<?xml version="1.0" encoding="UTF-8" standalone="no"?><!-- Generator: Gravit.io --><svg xmlns="http://www.w3.org/2000/svg" xmlns:xlink="http://www.w3.org/1999/xlink" style="isolation:isolate" viewBox="389.524 280.975 43.066 32.372" width="43.066pt" height="32.372pt"><path d=" M 432.389 305.318 L 432.59 305.083 L 431.719 303.963 L 431.641 303.897 L 431.703 303.37 L 430.139 301.804 L 429.73 301.763 L 429.71 301.525 L 428.025 301.19 L 426.428 301.567 L 425.073 302.238 L 425.073 302.238 L 424.722 301.765 L 422.747 302.11 L 420.125 303.006 L 419.734 303.101 L 421.654 301.907 L 422.09 300.784 L 422.09 300.353 L 423.621 300.206 L 425.215 300.001 L 425.539 299.231 L 426.534 299.077 L 427.381 298.125 L 428.468 296.585 L 428.372 296.091 L 428.229 295.922 L 428.43 295.785 L 428.61 295.342 L 428.517 295.166 L 428.834 295.163 L 429.931 290.894 L 429.776 290.706 L 429.709 290.711 L 429.668 289.828 L 429.215 289.869 L 429.214 290.761 L 428.901 290.793 L 428.099 293.181 L 427.799 294.6 L 427.624 294.52 L 427.433 294.674 L 427.314 295.163 L 426.405 295.241 L 425.52 296.724 L 424.721 298.109 L 424.171 297.802 L 423.826 297.958 L 422.833 298.659 L 422.09 298.837 L 422.09 298.1 L 421.967 297.944 L 423.332 297.588 L 424.712 295.524 L 425.079 294.282 L 424.975 293.157 L 424.668 292.838 L 424.434 292.778 L 424.649 292.214 L 423.745 290.451 L 420.706 287.804 L 419.227 286.747 L 418.917 286.679 L 418.838 286.779 L 415.195 283.769 L 413.027 282.886 L 409.74 283.417 L 409.853 284.044 L 410.79 284.061 L 412.715 284.597 L 414.809 286.04 L 416.249 287.565 L 416.284 288.185 L 415.338 287.797 L 413.749 287.706 L 411.965 287.954 L 410.866 288.37 L 410.891 288.651 L 410.969 288.677 L 410.969 288.677 L 412.72 289.278 L 415.195 290.478 L 418.371 292.535 L 419.91 293.655 L 420.365 293.74 L 420.638 294.792 L 420.713 295.761 L 420.508 296.083 L 418.909 294.044 L 416.787 293.17 L 413.604 292.422 L 412.606 292.047 L 411.67 292.547 L 410.61 291.673 L 409.737 292.61 L 409.174 292.047 L 408.875 292.047 L 408.426 292.047 L 407.677 292.61 L 406.367 292.547 L 403.809 293.545 L 401.257 295.21 L 400.91 294.806 L 400.894 294.551 L 400.894 294.551 L 400.848 293.835 L 400.97 292.755 L 401.409 292.608 L 402.775 291.282 L 405.627 288.797 L 407.908 287.259 L 409.557 286.418 L 409.557 286.418 L 409.629 286.38 L 409.617 286.098 L 408.468 285.841 L 406.668 285.848 L 405.108 286.164 L 404.227 286.681 L 404.175 286.061 L 405.382 284.349 L 407.253 282.624 L 409.083 281.823 L 410.006 281.674 L 410.02 281.317 L 410.02 281.317 L 410.03 281.038 L 406.702 280.975 L 404.68 282.155 L 401.5 285.649 L 401.407 285.561 L 401.11 285.672 L 399.795 286.927 L 397.16 289.976 L 396.514 291.851 L 396.806 292.378 L 396.583 292.471 L 396.325 292.83 L 396.38 293.958 L 396.918 295.135 L 398.577 296.985 L 400.183 297.167 L 399.815 298.225 L 400.024 299.428 L 399.221 299.068 L 398.379 298.194 L 398.068 297.975 L 397.471 298.174 L 396.944 296.665 L 396.351 295.043 L 395.473 294.795 L 395.447 294.294 L 395.291 294.107 L 395.102 294.152 L 395.073 292.703 L 394.728 290.208 L 394.428 290.118 L 394.594 289.24 L 394.158 289.116 L 393.951 289.976 L 393.887 289.958 L 393.699 290.114 L 393.98 294.512 L 394.29 294.575 L 394.167 294.731 L 394.261 295.199 L 394.433 295.372 L 394.261 295.511 L 394.074 295.979 L 394.854 297.696 L 395.51 298.787 L 396.459 299.124 L 396.632 299.941 L 398.161 300.44 L 399.659 300.876 L 400.274 300.876 L 400.377 301.469 L 401.628 303.02 L 398.924 302.458 L 396.92 302.36 L 396.632 302.873 L 396.632 302.873 L 395.205 302.375 L 393.572 302.199 L 391.941 302.741 L 391.952 302.978 L 391.55 303.07 L 390.192 304.818 L 390.32 305.333 L 390.25 305.408 L 389.524 306.627 L 389.752 306.836 L 389.752 306.836 L 389.714 307.37 L 390 308.199 L 390.212 308.065 L 390.197 307.106 L 390.36 307.153 L 391.179 305.929 L 391.275 305.987 L 392.283 305.473 L 393.247 304.418 L 393.267 304.43 L 393.604 304.398 L 393.604 304.398 L 393.92 304.369 L 395.964 304.028 L 396.621 303.981 L 396.616 304.591 L 397.027 304.729 L 402.037 305.002 L 404.695 304.441 L 405.348 304.767 L 404.162 305.302 L 402.221 305.331 L 398.635 305.518 L 397.482 305.597 L 397.458 305.899 L 397.385 305.889 L 395.738 306.362 L 395.232 307.946 L 395.388 308.061 L 394.522 310.019 L 394.791 310.091 L 394.753 310.154 L 395.53 311.05 L 397.602 312.075 L 397.708 311.879 L 398.604 312.386 L 398.708 312.156 L 397.875 311.579 L 398.002 311.346 L 396.034 309.969 L 396.717 308.72 L 396.938 308.752 L 397.881 308.444 L 398.673 307.514 L 398.9 307.624 L 399.16 307.526 L 399.159 307.526 L 399.565 307.373 L 402.087 306.879 L 404.755 306.592 L 405.763 305.995 L 406.234 305.61 L 406.566 306.135 L 405.62 306.652 L 403.697 306.956 L 401.011 307.27 L 401.011 307.27 L 400.683 307.308 L 400.6 307.531 L 400.651 307.625 L 400.032 308.087 L 399.604 309.011 L 399.737 309.084 L 399.628 309.573 L 400.314 310.917 L 401.517 311.988 L 401.728 311.964 L 402.524 312.847 L 402.857 312.615 L 402.156 311.753 L 402.37 311.48 L 401.028 309.541 L 401.441 309.069 L 401.451 309.086 L 401.949 309.063 L 402.9 308.677 L 406.225 307.624 L 407.167 307.133 L 407.49 307.709 L 408.675 307.772 L 411.795 307.772 L 414.291 307.834 L 414.896 307.136 L 415.595 307.642 L 418.733 309.167 L 419.563 309.654 L 419.563 309.654 L 419.618 309.686 L 420.109 309.781 L 420.121 309.765 L 420.46 310.291 L 418.853 312.017 L 419.025 312.318 L 418.206 313.069 L 418.501 313.347 L 419.417 312.588 L 419.622 312.641 L 420.968 311.756 L 421.839 310.526 L 421.802 310.027 L 421.946 309.974 L 421.658 308.999 L 421.111 308.451 L 421.175 308.365 L 421.125 308.132 L 418.193 307.347 L 416.335 306.767 L 415.565 306.188 L 415.817 305.8 L 416.566 306.25 L 417.649 306.698 L 420.331 306.601 L 422.897 306.728 L 423.591 306.882 L 423.801 306.741 L 424.717 307.547 L 425.695 307.719 L 425.909 307.655 L 426.764 308.793 L 425.012 310.437 L 425.171 310.65 L 424.429 311.34 L 424.565 311.552 L 425.377 310.923 L 425.511 311.101 L 427.417 309.792 L 428.056 308.793 L 428.011 308.736 L 428.267 308.626 L 427.129 306.812 L 427.269 306.676 L 426.542 305.179 L 424.843 304.949 L 424.772 304.969 L 424.706 304.673 L 423.553 304.76 L 419.977 305.087 L 418.052 305.335 L 416.874 304.998 L 417.182 304.786 L 419.973 305.022 L 424.717 304.164 L 424.717 304.164 L 424.91 304.129 L 425.301 303.941 L 425.219 303.336 L 425.876 303.301 L 427.95 303.386 L 428.266 303.376 L 428.266 303.376 L 428.604 303.366 L 428.624 303.352 L 429.709 304.28 L 430.773 304.665 L 430.863 304.595 L 431.827 305.707 L 431.983 305.641 L 432.084 306.594 L 432.313 306.702 L 432.495 305.842 L 432.39 305.318 L 432.389 305.318 Z " fill="rgb(0,0,0)"/></svg>