<?xml version="1.0" encoding="UTF-8" standalone="no"?><!-- Generator: Gravit.io --><svg xmlns="http://www.w3.org/2000/svg" xmlns:xlink="http://www.w3.org/1999/xlink" style="isolation:isolate" viewBox="219.992 382.89 25.323 19.339" width="25.323pt" height="19.339pt"><path d=" M 245.004 394.787 L 244.109 394.443 L 243.298 394.426 L 243.522 394.203 L 243.936 393.306 L 243.899 393.005 L 243.899 393.005 L 243.798 392.204 L 242.434 390.526 L 241.86 389.82 L 241.858 389.819 L 241.697 389.621 L 239.871 387.587 L 238.734 386.588 L 237.942 386.451 L 235.564 386.312 L 233.875 385.864 L 232.084 384.693 L 229.708 384.003 L 228.225 383.866 L 227.785 383.84 L 227.239 382.982 L 226.273 382.89 L 225.539 383.073 L 225.283 383.696 L 222.299 384.141 L 221.163 384.831 L 221.143 384.886 L 221.143 384.886 L 220.922 385.485 L 221.301 386.139 L 222.163 386.519 L 222.231 387.139 L 223.403 388.483 L 224.547 389.346 L 222.782 390.274 L 221.749 391.239 L 221.817 391.549 L 222.334 391.308 L 223.885 390.481 L 224.195 390.654 L 223.885 391.48 L 223.575 392.375 L 224.056 392.445 L 224.608 391.48 L 224.987 390.894 L 225.503 391.17 L 226.227 391.067 L 226.248 391.039 L 226.745 391.687 L 227.573 392.382 L 227.605 392.824 L 226.332 393.547 L 224.918 394.96 L 224.552 395.516 L 224.126 395.202 L 223.781 394.271 L 222.885 393.891 L 222.645 394.098 L 223.092 394.339 L 223.575 394.96 L 223.747 395.787 L 223.911 396.304 L 222.85 395.581 L 222.093 394.857 L 221.405 393.789 L 220.991 393.719 L 220.784 394.098 L 221.059 394.339 L 221.783 395.545 L 222.383 396.419 L 220.956 395.856 L 220.198 395.856 L 219.992 396.131 L 220.68 396.648 L 221.783 396.958 L 222.61 397.648 L 223.471 398.027 L 224.954 398.06 L 225.917 397.715 L 227.261 397.165 L 228.673 396.373 L 230.293 395.27 L 230.839 394.766 L 230.839 394.766 L 231.086 394.538 L 231.981 394.994 L 234.984 395.495 L 234.332 396.755 L 234.332 396.755 L 234.048 397.303 L 234.361 397.976 L 232.774 398.268 L 232.36 398.578 L 232.395 398.784 L 232.774 398.612 L 233.875 398.508 L 234.719 398.332 L 235.172 398.46 L 234.496 398.647 L 232.945 399.026 L 231.154 399.714 L 229.914 400.3 L 229.949 400.495 L 229.638 400.61 L 228.364 401.264 L 227.365 402.023 L 227.572 402.229 L 228.398 401.747 L 229.914 401.264 L 232.326 400.61 L 234.116 400.163 L 233.394 400.472 L 232.084 400.92 L 232.073 400.942 L 232.073 400.942 L 231.67 401.643 L 232.05 401.851 L 232.705 401.299 L 235.254 400.885 L 239.458 399.852 L 241.421 399.232 L 243.076 397.992 L 244.832 396.235 L 245.315 395.752 L 245.004 394.787 Z " fill="rgb(0,0,0)"/></svg>