<?xml version="1.0" encoding="UTF-8" standalone="no"?><!-- Generator: Gravit.io --><svg xmlns="http://www.w3.org/2000/svg" xmlns:xlink="http://www.w3.org/1999/xlink" style="isolation:isolate" viewBox="345.874 289.985 35.793 17.928" width="35.793pt" height="17.928pt"><path d=" M 381.667 295.266 L 381.022 294.374 L 378.096 293.878 L 377.204 294.027 L 374.714 295.093 L 374.625 294.858 L 373.824 294.991 L 373.824 294.991 L 373.508 295.043 L 372.467 295.341 L 372.226 295.435 L 371.697 295.04 L 371.054 294.561 L 368.153 292.142 L 365.883 290.543 L 365.248 290.403 L 365.248 290.403 L 363.354 289.985 L 359.299 290.17 L 355.469 291.175 L 352.626 293.071 L 352.626 293.071 L 352.344 293.258 L 348.812 297.275 L 348.793 297.312 L 347.807 299.321 L 346.387 300.413 L 346.387 300.413 L 345.874 300.808 L 345.947 301.739 L 346.15 301.739 C 346.196 302.082 346.26 302.527 346.282 302.593 C 346.306 302.667 347.357 303.283 348.096 303.709 L 347.508 304.9 L 347.583 306.239 L 348.179 306.797 L 348.938 306.767 L 349.145 307.392 L 349.481 307.318 L 349.481 306.746 L 350.276 306.713 L 350.485 307.207 L 350.746 307.169 L 350.71 306.696 L 350.969 306.685 L 351.671 306.613 L 351.862 307.02 L 352.159 307.02 L 352.159 306.396 L 352.606 305.681 L 352.018 305.124 L 352.018 305.124 L 351.862 304.974 L 351.813 304.702 L 352.456 304.826 L 355.469 305.272 L 357.032 305.085 L 364.209 304.938 L 367 304.417 L 368.763 304 L 368.599 304.602 L 368.153 306.723 L 368.274 306.755 L 368.041 307.541 L 368.264 307.69 L 368.624 306.851 L 368.898 306.925 L 368.673 307.727 L 368.933 307.838 L 369.292 307.032 L 369.602 307.116 L 369.38 307.838 L 369.603 307.875 L 369.899 307.197 L 370.346 307.318 L 370.441 307.258 L 370.346 307.913 L 370.608 307.764 L 370.748 307.065 L 371.054 306.872 L 371.117 306.701 L 371.117 306.701 L 372.424 303.129 L 372.579 304.602 L 373.099 306.127 L 373.302 306.123 L 373.471 306.797 L 373.806 306.76 L 373.778 306.111 L 374.205 306.1 L 374.364 306.685 L 374.587 306.611 L 374.587 306.09 L 375.062 305.634 L 375.219 306.239 L 375.443 306.09 L 375.3 305.406 L 375.517 305.197 L 375.629 303.263 L 375.219 301.032 L 374.921 300.735 L 373.895 300.549 L 373.993 300.437 L 373.77 300.295 L 377.004 299.097 L 377.181 298.976 L 377.181 298.976 L 377.488 298.762 L 377.432 298.513 L 378.839 298.044 L 380.625 297.3 L 381.022 296.854 L 381.057 296.078 L 381.518 296.159 L 381.667 295.266 Z " fill="rgb(0,0,0)"/></svg>