<?xml version="1.0" encoding="UTF-8" standalone="no"?><!-- Generator: Gravit.io --><svg xmlns="http://www.w3.org/2000/svg" xmlns:xlink="http://www.w3.org/1999/xlink" style="isolation:isolate" viewBox="93.956 216.912 32.166 28.556" width="32.166pt" height="28.556pt"><path d=" M 94.046 231.841 L 95.54 230.92 L 97.855 230.089 L 99.063 229.2 L 99.647 228.17 L 100.093 226.755 L 100.824 225.479 L 101.764 224.698 L 101.914 224.956 L 101.13 225.865 C 101.13 225.865 100.923 227.053 100.953 227.171 C 100.983 227.29 101.032 228.329 101.032 228.329 L 100.785 230.031 L 99.953 230.912 L 97.984 231.95 L 96.856 232.484 L 96.529 232.692 L 96.717 233.445 L 97.405 233.924 L 97.858 234.072 L 97.858 234.072 L 98.32 234.221 L 101.075 233.721 L 103.584 233.158 L 105.821 232.851 L 107.662 233.148 L 108.797 233.643 C 108.797 233.643 108.797 233.643 108.796 233.643 L 109.501 233.95 L 110.461 234.93 L 110.678 236.305 L 110.353 238.027 L 111.609 238.175 L 113.043 238.869 L 114.558 239.205 L 114.439 238.393 L 114.349 238.258 L 114.349 238.257 L 113.301 236.667 L 113.301 236.667 L 112.677 235.722 L 110.342 231.427 L 109.254 228.25 L 109.354 223.936 L 110.136 221.344 L 111.354 220.157 L 113.045 219.187 L 113.774 219.028 L 114.262 218.504 L 115.579 218.048 L 118.18 217.525 L 120.298 216.912 L 121.134 217.253 L 121.134 217.253 L 121.892 217.566 L 122.793 217.97 L 123.128 218.643 L 122.901 219.248 L 122.594 219.189 L 122.938 219.396 L 123.769 219.945 L 124.808 220.821 L 125.631 221.845 L 126.122 222.794 L 126.062 222.936 L 125.431 221.926 L 125.031 221.458 L 124.845 221.474 L 125.016 221.904 L 125.513 223.262 L 125.372 223.33 L 124.971 222.232 L 124.348 221.125 L 123.606 220.301 L 122.849 219.797 L 122.521 219.671 L 122.466 220.198 L 121.951 220.832 L 120.64 221.242 L 121.278 223.354 L 121.139 226.5 L 120.307 231.754 L 119.457 235.752 L 119.098 237.156 L 119.742 240.433 L 119.257 243.204 L 117.931 244.459 L 115.14 244.737 L 112.45 244.063 L 110.866 243.114 L 109.996 242.658 L 108.917 242.885 L 105.384 244.736 L 102.792 245.468 L 99.961 244.913 L 98.299 243.478 L 97.389 241.182 L 97.429 239.491 L 98.459 238.056 L 100.027 237.108 L 98.617 236.838 L 96.658 236.403 L 95.322 235.937 L 94.401 234.781 L 93.956 233.502 L 94.046 231.841 Z " fill="rgb(0,0,0)"/></svg>