<?xml version="1.0" encoding="UTF-8" standalone="no"?><!-- Generator: Gravit.io --><svg xmlns="http://www.w3.org/2000/svg" xmlns:xlink="http://www.w3.org/1999/xlink" style="isolation:isolate" viewBox="180.73 324.494 34.884 16.103" width="34.884pt" height="16.103pt"><path d=" M 215.493 339.728 L 215.493 339.728 L 215.413 339.587 L 213.948 339.335 L 213.292 338.375 L 212.384 337.77 L 210.717 337.316 L 209.113 337.048 L 210.314 336.003 L 211.728 334.236 L 211.77 333.602 L 212.131 332.924 L 212.182 331.965 L 212.03 330.652 L 211.626 329.845 L 211.187 329.782 L 210.92 329.087 L 210.091 328.535 L 209.759 327.371 L 208.648 326.16 L 206.351 325.084 L 206.35 325.083 L 206.275 325.048 L 203.771 324.681 L 203.771 324.681 L 202.489 324.494 L 199.157 325.149 L 198.13 325.664 L 198.129 325.664 L 196.431 326.512 L 196.222 326.865 L 196.223 326.865 L 194.614 329.591 L 193.806 332.015 L 194.014 333.261 L 194.014 333.261 L 194.051 333.486 L 192.09 332.469 L 189.515 330.803 L 188.151 330.249 L 187.668 330.249 L 187.319 329.717 L 186.031 327.75 L 185.038 325.92 L 185.173 325.629 L 185.097 325.2 L 184.769 325.125 L 184.441 325.2 L 184.315 325.528 L 184.466 325.932 L 184.693 326.083 L 184.75 326.062 L 185.199 327.269 L 185.779 328.784 L 186.581 330.476 L 186.12 330.816 L 185.968 330.577 L 184.265 329.213 L 182.674 327.925 L 181.576 326.828 L 181.432 326.684 L 181.463 326.665 L 181.513 326.411 L 181.412 326.185 L 181.135 326.083 L 180.832 326.185 L 180.73 326.386 L 180.857 326.714 L 181.059 326.84 L 181.231 326.798 L 182.182 327.888 L 183.356 328.987 L 184.416 330.123 L 185.135 330.841 L 185.553 331.286 L 184.719 332.015 C 184.723 332.032 184.727 332.06 184.73 332.092 L 183.86 332.671 L 182.958 333.492 L 182.952 333.479 L 182.548 333.479 L 182.346 333.882 L 182.396 334.288 L 182.75 334.337 L 183.154 334.236 L 183.154 333.882 L 183.147 333.87 L 184.763 332.931 C 184.769 333.341 184.769 333.732 184.769 333.732 L 185.375 333.882 L 185.14 334.472 L 184.871 334.438 L 184.668 334.892 L 184.871 335.196 L 185.073 335.347 L 185.375 335.297 L 185.577 334.792 L 185.447 334.662 L 185.776 334.175 L 186.183 334.741 L 186.89 336.155 L 187.142 337.063 L 187.293 337.669 L 187.899 338.073 L 187.849 338.477 L 187.95 339.234 L 189.161 339.386 L 190.357 339.236 L 190.373 339.285 L 191.181 339.89 L 192.241 340.092 L 193.856 340.092 L 195.472 340.092 L 198.753 340.597 L 202.641 340.496 L 206.376 339.992 L 207.941 340.042 L 212.585 340.245 L 214.554 340.345 L 215.614 339.941 L 215.493 339.728 Z " fill="rgb(0,0,0)"/></svg>