<?xml version="1.0" encoding="UTF-8" standalone="no"?><!-- Generator: Gravit.io --><svg xmlns="http://www.w3.org/2000/svg" xmlns:xlink="http://www.w3.org/1999/xlink" style="isolation:isolate" viewBox="275.259 140.259 50.958 45.616" width="50.958pt" height="45.616pt"><path d=" M 325.965 180.633 L 325.109 180.279 L 324.353 179.523 L 323.835 179.092 L 323.949 179.02 L 323.597 178.163 L 322.777 177.187 L 322.891 176.65 L 321.833 175.441 L 320.774 173.828 L 320.384 173.828 L 320.321 173.828 L 320.321 173.626 L 318.959 172.82 L 317.144 171.711 L 315.957 170.714 L 315.935 170.25 L 314.675 169.896 L 313.89 170.299 L 316.01 167.15 L 316.994 164.882 L 316.799 164.584 L 316.799 164.584 L 316.5 164.128 L 317.042 164.251 L 318.606 163.496 L 319.565 162.034 L 320.068 160.773 L 319.166 159.442 L 319.261 159.413 L 319.666 158.605 L 319.817 156.942 L 319.716 154.978 L 319.261 153.364 L 318.959 152.305 L 318.401 152.026 L 318.557 151.599 L 318.254 149.534 L 317.649 148.071 L 316.842 146.811 L 316.036 146.105 L 316.027 146.103 L 316.027 146.103 L 315.38 145.904 L 315.058 146.041 L 315.078 145.602 L 314.625 144.14 L 313.011 142.124 L 311.045 141.115 L 308.829 140.612 L 308.269 140.663 L 308.269 140.662 L 307.719 140.712 L 307.449 140.915 L 307.417 140.763 L 306.61 140.41 L 304.041 140.259 C 304.041 140.259 302.477 140.915 302.276 140.964 C 302.075 141.015 300.36 142.022 300.36 142.022 L 299.553 142.779 L 299.503 143.989 L 299.73 144.239 L 299.321 144.478 L 299.321 144.478 L 298.95 144.695 L 298.748 146.257 L 299.202 148.071 L 300.36 149.08 L 301.67 149.332 L 302.578 149.785 L 302.678 150.844 L 302.075 151.701 L 300.511 152.356 L 301.016 152.608 L 302.528 152.104 L 303.687 151.398 L 304.191 149.785 L 304.241 148.273 L 303.687 146.559 L 303.515 146.348 L 303.516 146.347 L 303.272 146.047 L 304.543 145.653 L 305.824 145.109 L 305.753 145.3 L 306.005 146.357 L 307.165 147.466 L 309.382 148.727 L 311.079 148.997 L 310.946 149.13 L 310.794 150.239 L 311.399 151.347 L 312.659 152.507 L 314.013 153.532 L 313.717 154.372 L 314.17 155.532 L 315.667 158.615 L 315.27 158.812 L 315.27 158.813 L 314.877 159.01 L 314.625 160.168 L 314.776 162.034 L 314.941 162.571 L 313.969 162.386 L 311.701 163.218 L 308.601 163.822 L 304.821 164.957 L 302.785 165.261 L 301.666 165.429 L 301.666 165.429 L 301.317 165.48 L 301.317 165.48 L 298.42 165.913 L 298.42 165.913 L 298.244 165.94 L 295.143 166.394 L 293.717 166.801 L 293.657 166.519 L 293.102 166.167 L 292.886 166.226 L 292.649 165.511 C 292.649 165.511 291.64 165.31 291.489 165.31 C 291.338 165.31 289.121 165.31 289.121 165.31 L 285.775 165.802 L 285.693 165.662 L 284.382 165.511 L 282.064 165.915 L 280.351 166.671 L 277.579 168.032 L 275.309 168.989 L 275.259 169.493 L 276.57 168.889 L 278.132 168.435 L 280.199 167.931 L 281.761 167.477 L 282.208 168.005 L 281.207 168.384 L 278.435 169.14 L 275.763 169.695 L 276.369 169.947 L 278.887 169.645 L 281.409 169.241 L 283.505 168.727 L 283.727 168.838 L 285.793 168.334 L 286.135 167.688 L 286.197 167.779 L 287.911 167.981 L 287.962 167.969 L 287.608 168.284 L 287.744 168.752 L 286.75 169.267 L 286.75 169.505 L 286.096 169.796 L 286.146 170.703 L 286.6 171.61 L 287.136 171.341 L 287.206 171.535 L 287.941 172.573 L 286.801 173.374 L 287.054 174.433 L 287.81 175.088 L 288.654 174.632 L 288.868 174.987 L 290.481 175.189 L 292.649 175.24 L 294.077 175.277 L 293.707 176.499 L 293.406 177.448 L 293.406 177.448 L 293.051 178.565 L 293.091 178.813 L 292.437 178.717 L 292.293 179.256 L 291.288 179.071 L 288.868 178.969 L 286.6 179.675 L 283.526 180.431 L 281.106 180.834 L 280.703 181.54 L 282.518 181.086 L 285.34 180.733 L 287.306 180.683 L 287.936 181.498 L 287.357 181.54 L 284.936 181.59 L 283.122 181.741 L 280.854 181.741 L 281.106 182.245 L 283.122 182.296 L 285.29 182.599 L 287.608 182.75 L 289.438 182.642 L 289.675 182.8 L 291.792 182.8 L 292.901 182.296 L 293.707 181.338 L 293.667 180.971 L 294.065 181.187 L 294.514 180.9 L 294.368 180.204 L 295.168 179.927 C 295.168 179.927 296.68 177.104 296.731 176.954 C 296.756 176.876 296.849 176.214 296.933 175.587 L 297.74 175.844 L 300.259 176.197 L 302.093 176.162 L 301.923 176.701 L 301.418 178.313 L 301.621 179.474 L 301.942 179.68 L 300.764 181.338 L 299.655 182.699 L 299.605 183.203 L 299.799 183.353 L 299.706 185.875 L 300.259 185.875 L 300.511 184.867 L 300.625 183.729 L 301.117 183.757 L 301.873 182.599 L 302.748 179.927 L 303.133 179.927 C 303.133 179.927 303.738 178.969 303.789 178.818 C 303.839 178.667 303.939 177.306 303.888 177.155 C 303.867 177.088 303.806 176.575 303.746 176.016 L 303.99 176.046 L 305.552 175.996 L 306.913 175.541 L 308.676 174.483 L 308.698 174.471 L 310.103 173.843 L 310.34 174.937 L 310.844 177.206 L 311.399 178.717 L 312.155 179.625 L 312.452 179.76 L 312.306 179.776 L 311.55 181.54 L 311.096 182.75 L 311.159 182.838 L 310.794 183.203 L 309.736 183.959 L 309.181 184.262 L 309.433 184.564 L 310.745 184.262 L 311.701 183.304 L 311.692 183.216 L 312.104 183.152 L 312.961 182.296 L 313.769 180.582 L 313.668 179.632 L 313.818 179.071 L 313.163 177.911 L 312.003 175.541 L 311.298 173.728 L 311.205 173.353 L 311.55 173.198 L 311.966 172.702 L 315.179 171.862 L 315.493 171.666 L 315.935 172.316 L 318.354 174.584 L 319.514 174.937 L 319.916 174.687 L 320.168 175.391 L 321.177 177.155 L 322.236 178.012 L 322.359 177.852 L 322.741 179.121 L 323.244 179.474 L 323.352 179.404 L 323.496 179.675 L 324.252 180.532 L 325.411 180.733 C 325.411 180.733 326.016 181.187 326.217 180.986 L 325.965 180.633 Z " fill="rgb(0,0,0)"/></svg>