<?xml version="1.0" encoding="UTF-8" standalone="no"?><!-- Generator: Gravit.io --><svg xmlns="http://www.w3.org/2000/svg" xmlns:xlink="http://www.w3.org/1999/xlink" style="isolation:isolate" viewBox="300.832 388.418 23.001 42.295" width="23.001pt" height="42.295pt"><path d=" M 322.114 427.604 L 322.114 427.604 L 322.033 427.548 L 320.478 425.174 L 320.535 423.985 L 320.535 423.985 L 320.559 423.456 L 321.133 420.017 L 320.969 410.194 L 320.969 408.557 L 320.068 401.843 L 319.003 397.75 L 317.122 395.867 L 317.04 394.886 L 316.466 393.494 L 316.067 392.85 L 316.068 392.851 L 313.929 389.402 L 311.228 388.418 L 309.59 388.582 L 306.888 390.219 L 303.205 390.547 L 301.404 390.875 L 300.832 391.857 L 302.632 391.611 L 305.58 392.02 L 306.807 392.757 L 306.888 393.986 L 306.07 395.376 C 306.07 395.376 306.063 395.384 306.048 395.399 C 305.901 395.566 304.572 397.056 303.783 398.022 C 303.78 398.026 303.777 398.029 303.773 398.032 C 303.724 398.094 303.676 398.154 303.63 398.21 C 303.626 398.215 303.623 398.22 303.619 398.225 L 303.619 398.225 C 303.386 398.517 303.223 398.74 303.205 398.814 C 303.123 399.142 301.977 401.515 301.977 401.843 C 301.977 402.171 302.14 404.544 302.222 404.954 C 302.304 405.363 302.467 408.147 302.467 408.147 L 302.632 410.521 L 303.778 412.323 L 305.661 416.333 L 307.707 422.391 L 307.871 424.601 L 309.099 425.748 L 309.099 428.04 L 309.437 429.112 L 307.708 429.24 L 305.033 429.349 L 304.214 430.059 L 304.488 430.659 L 306.999 430.333 L 309.181 430.495 L 311.692 430.713 L 313.383 430.386 L 313.329 429.786 L 313.329 429.445 L 314.011 429.185 L 314.605 429.185 L 317.203 429.185 L 320.068 430.086 L 323.261 430.25 L 323.833 429.513 L 323.833 429.252 L 323.833 428.776 L 322.114 427.604 Z " fill="rgb(0,0,0)"/></svg>