<?xml version="1.0" encoding="UTF-8" standalone="no"?><!-- Generator: Gravit.io --><svg xmlns="http://www.w3.org/2000/svg" xmlns:xlink="http://www.w3.org/1999/xlink" style="isolation:isolate" viewBox="5.325 218.365 29.615 24.842" width="29.615pt" height="24.842pt"><path d=" M 26.481 241.774 L 26.613 242.114 L 26.436 242.202 C 26.343 242.156 26.267 242.123 26.245 242.124 C 26.171 242.126 25.161 241.932 25.161 241.932 L 24.35 241.88 L 24.151 241.303 L 24.06 240.993 L 24.179 240.99 L 24.155 240.072 L 24.177 239.332 L 24.436 239.597 L 25.199 240.607 L 25.559 240.947 L 25.559 240.947 L 25.903 241.274 L 26.076 241.251 L 26.481 241.774 Z  M 34.145 220.454 L 33.29 220.108 L 33.29 220.108 L 33.285 220.106 L 33.28 220.085 L 32.565 219.025 L 31.566 218.366 L 29.751 218.365 L 28.146 218.874 L 26.446 221.297 L 25.643 224.262 L 24.469 226.207 L 24.393 226.27 L 23.682 226.129 L 21.304 227.077 L 18.273 229.5 L 18.273 229.5 L 17.505 230.112 L 17.505 230.112 L 17.367 230.223 L 15.657 232.28 L 15.055 233.568 L 14.885 233.687 L 14.704 233.814 L 14.704 233.814 L 13.224 234.847 L 11.236 235.685 L 10.957 235.771 L 10.957 235.771 L 10.006 236.065 L 10.006 236.065 L 8.804 236.437 L 7.832 236.757 L 7.75 237.348 L 9.014 237.7 L 8.354 237.92 L 7.383 238.339 L 7.462 238.622 L 7.462 238.622 L 7.547 238.923 L 8.279 238.805 L 8.833 238.801 L 5.996 241.417 L 5.325 242.024 L 5.576 242.262 L 6.308 242.095 L 6.343 242.128 L 6.343 242.128 L 6.609 242.382 L 7.579 241.963 L 10.773 240.356 L 13.094 239.118 L 13.394 238.82 L 14.557 238.833 L 17.305 238.857 L 19.615 238.472 L 19.747 238.498 L 21.308 238.66 L 21.308 238.661 L 21.616 238.692 L 22.224 238.898 L 22.707 239.594 L 23.173 240.501 L 23.444 241.009 L 23.556 241.006 L 23.651 241.409 L 23.515 241.805 L 23.228 242.083 L 22.64 242.123 L 22.032 242.31 L 21.442 242.253 L 21.003 242.337 L 20.841 242.685 L 20.514 242.854 L 20.484 243.112 L 20.738 242.958 L 20.894 242.889 L 20.973 243.05 L 21.192 242.995 L 21.481 242.766 C 21.481 242.766 22.216 242.748 22.288 242.72 C 22.361 242.694 23.535 242.565 23.535 242.565 L 23.688 242.56 L 23.681 242.661 L 23.2 242.875 L 23.135 243.207 L 23.46 242.958 L 23.702 242.898 L 24.088 243.088 L 24.67 242.803 L 25.528 242.804 L 27.028 242.961 L 27.984 242.935 L 29.398 242.854 L 30.119 243.019 L 30.585 243.038 L 30.709 242.93 L 30.835 242.981 L 31.135 243.194 L 31.055 242.938 L 30.838 242.819 L 30.849 242.809 L 30.347 242.356 L 29.855 242.321 L 29 242.442 L 27.992 242.346 L 27.251 242.121 L 26.767 241.161 L 26.832 241.152 L 26.655 240.028 L 27.021 239.038 L 27.24 238.05 L 28.148 237.192 L 29.788 236.167 L 32.267 233.501 L 33.29 231.415 L 33.118 228.672 L 31.882 226.498 L 31.003 224.806 L 31.115 223.478 L 31.533 222.633 L 32.258 222.221 L 33.169 221.461 L 33.291 221.108 L 33.96 221.122 L 34.572 221.288 L 34.879 221.428 L 34.94 221.168 L 34.145 220.454 Z " fill="rgb(0,0,0)"/></svg>