<?xml version="1.0" encoding="UTF-8" standalone="no"?><!-- Generator: Gravit.io --><svg xmlns="http://www.w3.org/2000/svg" xmlns:xlink="http://www.w3.org/1999/xlink" style="isolation:isolate" viewBox="177.502 237.889 43.48 42.061" width="43.48pt" height="42.061pt"><path d=" M 203.638 264.943 L 203.685 264.282 L 205.314 262.495 L 206.23 260.809 L 206.313 260.812 L 206.862 261.153 L 207.049 262.021 L 208.101 262.81 L 209.028 263.132 L 209.678 264.072 L 209.983 265.077 L 207.47 265.386 L 204 265.228 L 203.638 264.943 Z  M 195.838 262.379 L 196.534 262.126 L 196.679 261.452 L 196.679 261.452 L 196.692 261.39 L 197.533 259.76 L 197.601 259.41 L 199.479 260.128 L 202.587 260.625 L 202.37 261.075 L 201.739 262.599 L 199.426 263.178 L 199.453 263.522 L 196.271 262.546 L 195.838 262.379 Z  M 187.835 259.06 L 187.912 258.867 L 187.819 258.708 L 189.857 258.708 L 192.434 258.025 L 193.582 257.26 L 194.067 257.627 L 194.011 258.867 L 194.168 260.338 L 193.327 261.075 L 193.149 261.342 L 188.595 259.603 L 187.835 259.06 Z  M 220.982 266.806 L 218.143 265.439 L 216.98 265.405 L 216.381 263.309 L 216.417 263.111 L 216.417 263.111 L 216.501 262.623 L 216.501 262.623 L 216.698 261.496 L 216.698 260.976 L 216.698 260.494 L 216.698 258.744 L 216.698 258.419 L 216.145 255.739 L 215.962 255.08 L 215.833 254.62 L 215.833 254.62 L 214.41 249.508 L 212.438 246.748 L 210.513 245.072 L 210.509 245.069 L 210.509 245.069 L 208.18 243.042 L 205.661 242.636 L 205.433 242.599 L 205.433 242.599 L 203.764 242.332 L 202.868 242.332 L 202.376 242.332 L 202.052 242.332 L 201.311 242.332 L 198.709 242.332 L 198.085 242.332 L 196.114 242.568 L 195.214 243.054 L 195.214 243.054 L 194.601 243.386 L 194.601 243.386 L 194.394 243.498 L 193.195 244.146 L 192.622 244.454 L 192.622 244.454 L 191.464 245.075 L 191.698 243.672 L 191.435 239.834 L 190.541 238.309 L 189.704 237.938 L 189.704 237.938 L 189.594 237.889 L 187.649 238.363 L 186.808 240.097 L 185.651 241.517 L 184.284 242.673 L 183.811 243.882 L 183.493 244.382 L 183.493 244.382 L 183.443 244.461 L 182.759 244.777 L 182.35 245.55 L 182.35 245.55 L 182.287 245.669 L 181.498 246.144 L 180.078 246.88 L 178.501 247.72 L 178.216 248.527 L 178.216 248.527 L 178.186 248.615 L 178.445 249.46 L 178.446 249.46 L 178.606 249.981 L 178.652 250.021 L 178.652 250.021 L 180.341 251.454 L 183.496 252.874 L 186.177 254.24 L 187.281 254.555 L 188.28 254.083 L 188.332 254.004 L 190.698 254.976 L 190.935 255.167 L 190.12 255.344 L 188.385 256.132 L 186.68 257.31 L 186.545 257.184 L 185.125 257.394 L 183.864 257.605 L 183.233 258.499 L 183.243 258.541 L 183.243 258.541 L 183.312 258.825 L 182.497 259.077 L 180.447 259.288 L 178.238 259.077 L 177.502 261.758 L 177.71 261.789 L 177.71 261.788 L 181.183 262.285 L 183.917 262.285 L 185.704 261.916 L 187.333 262.495 L 187.311 262.534 L 187.31 262.534 L 186.65 263.651 L 185.389 265.281 L 186.124 265.492 L 187.754 264.282 L 189.122 263.125 L 191.172 263.494 L 192.696 263.989 L 192.696 264.072 L 193.17 264.703 L 193.8 264.914 L 193.643 264.387 L 193.646 264.35 L 194.208 264.612 L 194.642 265.333 L 195.114 265.492 L 194.972 264.968 L 195.641 265.281 L 199.531 266.648 L 200.974 267.025 L 200.899 268.331 L 201.477 268.488 L 202.503 267.425 L 202.949 267.542 L 206.892 267.857 L 210.152 268.225 L 210.906 268.116 L 211.833 271.169 L 211.886 274.376 L 211.098 275.902 L 209.363 277.058 L 207.575 276.847 L 206.261 276.269 L 205.787 274.324 L 205.998 272.116 L 207.312 271.59 L 208.574 271.748 L 209.73 272.957 L 209.889 274.167 L 209.1 275.271 L 208.154 275.428 L 207.522 274.692 L 207.26 273.746 L 207.627 273.325 L 207.995 273.378 L 207.785 273.876 L 208.495 274.666 L 208.969 274.429 L 209.284 273.719 L 208.495 272.537 L 207.233 272.378 L 206.445 272.931 L 206.445 274.745 L 206.917 276.006 L 208.258 276.48 L 209.756 276.322 L 211.176 275.06 L 211.571 273.246 L 211.019 271.353 L 209.205 269.145 L 206.681 269.145 L 203.527 270.407 L 202.659 274.586 L 203.606 277.11 L 206.603 279.24 L 209.599 279.95 L 211.886 279.397 L 215.198 276.637 L 215.442 276.366 L 215.442 276.366 L 217.249 274.35 L 218.038 271.984 L 218.038 271.708 L 218.038 271.372 L 218.038 270.547 L 218.038 270.012 L 218.036 270.004 L 218.036 270.004 L 217.872 269.222 L 217.819 268.966 L 217.818 268.966 L 217.48 267.352 L 220.247 268.225 L 220.469 267.795 L 220.469 267.795 L 220.982 266.806 Z " fill="rgb(0,0,0)"/></svg>