<?xml version="1.0" encoding="UTF-8" standalone="no"?><!-- Generator: Gravit.io --><svg xmlns="http://www.w3.org/2000/svg" xmlns:xlink="http://www.w3.org/1999/xlink" style="isolation:isolate" viewBox="126.823 338.862 101.758 35.337" width="101.758pt" height="35.337pt"><path d=" M 219.272 364.082 L 219.842 364.328 L 219.61 364.429 L 219.272 364.082 Z  M 228.215 361.335 L 228.581 358.029 L 227.864 357.405 L 228.135 356.867 L 227.565 356.107 L 226.92 356.588 L 226.155 355.923 L 226.278 355.291 L 225.635 354.713 L 224.95 355.08 L 224.163 354.779 L 224.241 353.979 L 223.784 353.768 L 223.309 354.453 L 222.6 354.182 L 222.694 353.271 L 221.815 353 L 221.28 353.676 L 219.739 353.088 L 219.788 352.271 L 219.301 351.958 L 218.739 352.707 L 217.241 352.132 L 216.963 351.041 L 216.292 350.991 L 216.061 351.814 L 214.43 351.542 L 214.257 350.649 L 213.512 350.445 L 213.26 351.344 L 212.573 351.228 L 212.298 350.123 L 211.878 350.015 L 211.308 351.015 L 210.121 350.817 L 209.919 349.83 L 209.405 349.706 L 209.024 350.633 L 206.558 350.219 L 206.361 349.315 L 205.744 349.225 L 205.352 350.034 L 204.395 349.921 L 204.171 349.047 L 203.602 348.965 L 203.292 349.792 L 197.617 349.125 L 197.479 348.42 L 197.054 348.359 L 196.807 349.029 L 196.05 348.939 L 192.973 348.03 L 192.965 347.479 L 192.519 347.22 L 192.068 347.763 L 188.368 346.668 L 187.109 346.39 L 186.954 345.834 L 186.493 345.672 L 186.275 346.206 L 184.641 345.845 L 184.597 345.398 L 184.228 345.249 L 183.909 345.683 L 183.378 345.567 L 183.389 345.03 L 183.07 344.886 L 182.816 345.442 L 180.327 344.893 L 180.243 344.333 L 179.647 344.102 L 179.261 344.657 L 178.229 344.429 L 177.594 344.375 L 177.457 343.833 L 177.037 343.724 L 176.698 344.297 L 175.947 344.232 L 175.77 343.445 L 175.248 343.371 L 174.886 344.14 L 173.766 344.042 L 173.642 343.089 L 172.794 342.918 L 172.307 343.917 L 171.319 343.833 L 170.835 342.734 L 170.096 342.819 L 169.814 343.702 L 169.297 343.656 L 169.056 343.695 L 168.692 342.81 L 168.102 342.871 L 168.083 343.851 L 167.689 343.913 L 167.2 343.08 L 166.76 343.113 L 166.826 344.051 L 166.44 344.112 L 165.851 343.37 L 165.105 343.503 L 165.018 344.339 L 164.52 344.418 L 164.317 343.583 L 163.524 343.711 L 163.322 344.617 L 163.224 344.655 L 162.398 343.792 L 161.714 344.177 L 161.592 345.29 L 160.2 345.831 L 157.555 345.506 L 157.109 344.417 L 156.224 344.288 L 155.578 345.261 L 154.479 345.125 L 154.107 344.629 L 150.602 343.866 L 149.472 342.734 L 148.424 342.838 L 147.628 342.983 L 145.371 341.624 L 144.493 341.884 L 143.614 342.598 L 142.366 342.74 L 136.24 341.339 L 130.709 339.83 L 130.268 338.862 L 128.378 338.977 L 127.454 340.458 L 127.161 342.813 L 127.161 342.813 L 127.051 343.694 L 128.011 344.36 L 127.96 345.457 L 128.189 346.215 L 128.488 346.162 L 128.658 345.313 L 128.788 344.751 L 129.237 344.747 L 129.22 345.444 L 129.389 346.292 L 129.735 346.245 L 129.879 345.25 L 130.006 344.738 L 130.764 344.73 L 130.747 345.277 L 130.969 345.745 L 131.234 345.589 L 131.559 344.773 L 132.292 345.312 L 132.055 345.949 L 132.086 346.729 L 132.385 346.675 L 132.845 345.734 L 133.46 346.205 L 133.294 346.759 L 133.306 347.68 L 133.4 348.034 L 133.699 347.978 L 133.815 347.172 L 134.099 346.693 L 134.756 347.197 L 134.662 347.683 L 134.688 348.849 L 134.95 349.71 L 135.222 349.507 L 135.44 348.328 L 135.724 347.634 L 136.483 347.705 L 137.643 347.677 L 137.597 348.155 L 137.813 349.009 L 138.125 348.861 L 138.248 348.006 L 138.361 347.663 L 139.205 347.644 L 139.988 348.103 L 139.84 348.72 L 139.968 349.514 L 140.267 349.461 L 140.478 348.667 L 140.601 348.46 L 141.11 348.758 L 142.15 349.336 L 142.07 349.721 L 142.116 350.746 L 142.4 350.786 L 142.612 349.993 L 142.821 349.71 L 143.622 350.154 L 143.879 350.161 L 143.845 350.51 L 144.081 351.222 L 144.393 351.074 L 144.591 350.178 L 145.231 350.193 L 146.618 350.101 L 146.604 350.521 L 146.983 351.253 L 147.261 351.004 L 147.438 350.047 L 148.296 349.99 L 149.634 350.119 L 149.478 351.647 L 149.668 352.221 L 148.107 352.19 L 146.249 352.649 L 144.702 353.298 C 144.702 353.298 144.702 353.298 144.56 353.278 C 144.542 353.275 144.493 353.281 144.422 353.291 L 144.235 352.842 L 144.114 352.001 L 143.734 351.947 L 143.495 352.93 L 143.62 353.446 C 142.948 353.583 142.166 353.755 142.166 353.755 L 141.721 353.782 L 141.528 353.469 L 141.313 352.615 L 140.981 352.568 L 140.851 353.468 L 140.938 353.828 L 140.504 353.855 L 138.836 353.662 L 138.722 353.668 L 138.586 353.383 L 138.161 352.306 L 137.828 352.257 L 137.793 353.172 L 137.938 353.716 L 137.175 353.761 L 136.739 353.83 L 136.491 353.469 L 135.924 352.031 L 135.523 352.119 L 135.447 353.319 L 135.563 354.018 L 134.944 354.118 L 133.66 354.112 L 133.122 352.983 L 132.75 351.863 L 132.378 351.761 L 132.269 352.181 L 132.45 354.159 L 130.692 354.375 L 130.128 354.391 L 129.738 353.269 L 129.496 351.926 L 129.062 351.912 L 128.931 353.491 L 129.109 354.482 L 128.69 354.648 L 128.036 352.974 L 127.752 352.934 L 127.688 354.377 L 127.888 355.202 L 126.897 355.944 L 126.823 357.353 L 128.432 358.296 L 133.662 360.536 L 138.116 362.342 L 140.784 362.211 L 143.315 361.671 L 147.157 361.904 L 150.464 363.157 L 153.655 362.97 L 155.202 362.548 L 155.771 361.596 L 157.753 361.883 L 161.175 361.967 L 161.051 362.295 L 163.501 362.778 L 162.424 363.527 L 160.289 364.446 L 159.528 365.692 L 159.536 366.533 L 159.617 366.56 L 159.118 367.634 L 159.597 367.897 L 160.537 366.865 L 161.375 367.143 L 160.826 368.333 L 161.431 368.615 L 162.491 367.514 L 163.431 367.827 L 163.174 369.061 L 163.789 369.278 L 164.575 368.147 L 165.51 368.396 L 165.227 369.616 L 165.732 369.689 L 166.528 368.294 L 166.982 368.189 L 167.473 367.643 L 167.473 367.643 L 167.597 367.502 L 167.882 367.513 L 167.882 367.513 L 171.196 367.634 L 174.434 366.68 L 175.754 366.032 L 176.137 364.977 L 183.025 364.886 L 194.509 364.089 L 197.042 363.702 L 197.023 364 L 196.979 364.107 L 196.979 364.107 L 196.274 365.83 L 196.969 366.173 L 197.037 367.587 L 197.756 367.643 L 198.039 366.705 L 198.944 367.153 L 198.936 367.861 L 199.769 367.788 L 199.873 367.179 L 200.804 367.159 L 200.969 368.204 L 201.532 368.333 L 201.731 367.139 L 202.714 367.119 L 202.807 368.226 L 203.423 368.316 L 203.758 367.094 L 204.571 367.076 L 204.783 365.605 C 204.783 365.605 204.591 365.531 204.475 365.437 C 204.459 365.425 204.444 365.413 204.433 365.398 C 204.424 365.388 204.415 365.377 204.408 365.368 C 204.404 365.363 204.403 365.358 204.4 365.354 C 204.393 365.337 204.389 365.322 204.392 365.306 C 204.41 365.165 204.664 363.748 204.664 363.748 L 204.054 362.631 L 204.944 362.495 L 208.921 361.778 L 217.364 363.255 L 218.6 363.791 L 218.143 363.998 L 218.256 365.033 L 217.366 365.426 L 216.915 364.79 L 216.256 364.986 L 216.255 365.895 L 215.186 366.273 L 214.689 365.776 L 214.275 365.958 L 213.962 366.708 L 212.96 367.062 L 212.633 366.593 L 212.125 366.762 L 211.692 367.512 L 210.503 367.932 L 202.664 368.883 L 194.864 370.23 L 193.282 371.453 L 193.444 372.348 L 201.24 373.038 L 210.954 374.199 L 217.547 373.165 L 224.348 372.692 L 226.555 370.153 L 227.276 367.835 L 228.139 361.869 L 228.161 361.843 L 228.213 361.345 L 228.215 361.335 L 228.215 361.335 Z " fill="rgb(0,0,0)"/></svg>