<?xml version="1.0" encoding="UTF-8" standalone="no"?><!-- Generator: Gravit.io --><svg xmlns="http://www.w3.org/2000/svg" xmlns:xlink="http://www.w3.org/1999/xlink" style="isolation:isolate" viewBox="103.981 13.517 41.245 27.402" width="41.245pt" height="27.402pt"><path d=" M 126.172 34.473 L 126.125 34.636 L 124.946 33.736 L 124.687 33.568 L 124.75 33.591 L 126.234 34.059 L 126.172 34.473 Z  M 127.396 35.768 L 126.841 35.698 L 126.786 35.215 L 126.581 35.037 L 126.599 34.832 L 126.604 34.175 L 126.896 34.267 L 127.474 35.043 C 127.474 35.043 127.502 35.229 127.524 35.401 L 127.396 35.768 Z  M 121.998 34.465 L 122.8 35.272 L 122.869 35.487 L 122.061 35.502 C 122.063 35.274 122.063 35.024 122.064 34.966 C 122.067 34.927 122.035 34.712 121.998 34.465 Z  M 120.796 33.683 L 120.75 33.405 L 121.543 34.019 L 121.551 34.296 L 121.337 35.274 L 121.296 35.515 L 120.757 35.524 C 120.778 35.255 120.81 34.873 120.813 34.807 C 120.818 34.706 120.796 33.683 120.796 33.683 Z  M 119.816 35.002 C 119.788 34.898 119.865 33.947 119.835 33.843 C 119.807 33.741 119.755 33.364 119.755 33.364 L 119.581 33.459 L 119.44 34.337 L 119.154 35.379 L 119.109 35.519 L 117.562 35.466 C 117.58 35.332 117.594 35.212 117.598 35.172 C 117.602 35.07 117.61 34.15 117.61 34.15 L 117.531 33.637 L 117.325 33.696 L 117.1 34.877 L 116.895 35.443 L 116.597 35.432 L 114.063 35.452 L 114.171 34.913 L 114.151 33.858 L 114.102 33.448 L 113.896 33.471 L 113.746 34.52 L 113.436 35.457 L 113.397 35.457 L 112.958 35.375 C 112.999 35.123 113.052 34.828 113.052 34.828 L 113.103 33.708 L 113.021 33.262 L 112.783 33.25 L 112.672 34.199 L 112.43 35.039 L 112.341 35.257 L 111.783 35.151 L 111.942 34.506 L 112.021 33.523 L 111.98 32.941 L 111.777 32.899 L 111.56 33.944 L 111.178 35.026 L 110.759 34.902 L 110.895 34.356 L 111.077 33.343 L 111.003 32.728 L 110.833 32.719 L 110.624 33.562 L 110.313 34.432 L 110.149 34.722 L 110.051 34.693 L 109.804 34.409 L 109.747 33.385 L 111.042 31.861 L 113.338 29.668 L 114.291 29.291 L 114.511 29.687 L 115.153 29.785 L 116.533 29.371 L 117.365 28.898 L 117.367 29.75 L 117.703 30.615 L 118.329 31.052 L 118.67 31.782 L 118.975 32.231 L 118.975 32.231 L 119.245 32.626 L 120.185 32.906 L 120.48 32.984 L 120.596 33.181 L 120.48 33.158 L 120.354 34.446 L 120.173 35.425 L 120.146 35.533 L 119.733 35.541 C 119.784 35.31 119.833 35.054 119.816 35.002 Z  M 122.809 33.604 L 124.428 34.666 L 125.424 35.562 L 123.97 35.497 L 123.952 35.393 L 122.997 33.954 L 122.505 33.523 L 122.366 33.38 L 122.8 33.399 L 122.809 33.604 Z  M 145.226 15.937 L 145.046 15.385 L 144.311 15.113 L 143.033 14.748 L 141.989 14.498 L 141.765 14.215 L 141.203 13.849 L 140.489 13.85 L 139.758 14.191 L 139.133 14.433 C 139.044 14.281 138.863 13.998 138.863 13.998 L 138.459 13.537 L 138.341 13.531 L 138.59 14.019 L 138.712 14.676 L 138.508 14.847 L 138.388 14.351 L 138.066 13.944 L 137.66 13.517 L 137.54 13.529 L 137.819 14.154 L 137.976 14.825 L 138.025 15.253 L 138.006 15.269 L 137.966 15.311 L 137.835 15.356 L 137.592 14.654 L 137.205 14.177 L 136.865 13.804 L 136.681 13.711 L 136.641 13.846 L 136.927 14.301 L 137.078 15.107 L 137.184 15.579 L 137.158 15.587 L 136.958 15.704 C 136.874 15.492 136.716 15.094 136.706 15.057 C 136.69 15.005 136.19 14.403 136.19 14.403 L 135.589 13.797 L 135.451 13.826 L 135.838 14.66 L 136.029 15.349 L 136.066 15.997 L 136.13 16.187 L 135.829 16.362 L 135.579 15.873 L 135.194 15.345 L 134.704 14.914 L 134.581 14.978 L 134.87 15.738 L 134.988 16.51 L 135.056 16.756 L 134.873 16.842 L 134.74 16.346 C 134.74 16.346 134.463 15.687 134.449 15.635 C 134.435 15.583 133.962 14.761 133.962 14.761 L 133.824 14.79 L 134.155 15.741 L 134.253 16.596 L 134.256 17.101 L 133.959 17.13 L 133.732 16.402 L 133.313 15.583 L 132.88 14.951 L 132.759 14.997 L 132.956 15.908 L 132.981 16.845 L 132.977 17.232 L 132.697 17.261 L 132.526 16.755 L 132.132 15.716 L 131.694 15.22 L 131.589 15.266 L 131.806 16.144 L 131.71 17.109 L 131.688 17.365 L 130.997 17.435 L 130.865 16.986 L 130.569 16.019 L 130.257 15.41 L 130.136 15.438 L 130.204 16.548 L 130.138 17.259 L 130.114 17.526 L 129.511 17.588 L 129.18 17.589 C 129.119 17.347 128.999 16.867 129.001 16.816 C 129.004 16.748 128.552 15.825 128.552 15.825 L 128.305 15.645 L 128.233 15.725 L 128.384 16.907 L 128.379 17.592 L 127.466 17.594 L 127.379 16.913 L 127.186 16.309 L 127.033 16.302 L 126.792 17.597 L 126.301 17.598 L 126.275 16.504 L 126.051 15.423 L 125.934 15.026 L 125.796 15.071 L 125.821 16.008 L 125.702 17.144 L 125.618 17.6 L 125.042 17.603 L 124.893 16.579 L 124.564 15.577 L 124.248 15.034 L 124.16 15.116 L 124.296 16.228 L 124.25 17.231 L 124.2 17.614 L 123.416 17.765 C 123.406 17.454 123.384 16.734 123.374 16.68 C 123.359 16.611 123.163 15.701 123.132 15.631 C 123.102 15.56 122.869 15.04 122.869 15.04 L 122.732 15.067 L 122.809 16.024 L 122.717 17.279 L 122.573 17.926 L 122.193 17.999 L 122.148 17.424 L 121.932 16.563 L 121.711 16.178 L 121.607 16.226 L 121.625 16.975 L 121.609 17.705 L 121.578 18.118 L 121.301 18.171 L 121.229 17.433 C 121.229 17.433 121.063 16.591 121.049 16.54 C 121.034 16.488 120.695 15.707 120.695 15.707 L 120.584 15.515 L 120.465 15.526 L 120.652 16.657 L 120.629 17.881 L 120.598 18.307 L 120.289 18.365 L 120.244 17.763 L 119.891 16.539 L 119.688 16.138 L 119.583 16.184 L 119.694 17.482 L 119.634 18.491 L 119.306 18.554 L 118.697 18.695 L 118.545 18.077 L 118.27 17.384 L 117.858 16.719 L 117.752 16.781 L 118.012 17.815 L 118.009 18.853 L 117.305 19.016 L 117.233 18.476 L 116.88 17.269 L 116.559 16.847 L 116.452 16.961 L 116.498 17.456 L 116.589 18.396 L 116.554 19.189 L 115.897 19.341 L 115.639 18.728 L 115.211 18.044 L 114.882 17.791 L 114.794 17.854 L 115.106 18.483 L 115.343 19.259 L 115.447 19.746 L 115.191 20.027 L 114.706 19.418 L 114.242 19.141 L 114.007 19.079 L 113.95 19.195 L 114.273 19.584 L 114.639 20.128 L 114.807 20.449 L 114.341 20.958 C 114.229 20.829 113.975 20.53 113.976 20.49 C 113.979 20.438 113.542 19.942 113.542 19.942 L 113.263 19.708 L 113.189 19.841 L 113.603 20.83 L 113.956 21.379 L 113.397 21.991 L 112.861 21.051 L 112.461 20.114 L 112.385 20.299 L 112.795 21.747 L 113.143 22.271 L 112.703 22.752 L 112.371 22.119 L 112.074 21.135 L 111.938 20.771 L 111.833 20.834 L 112.06 22.207 L 112.219 22.844 L 112.386 23.098 L 112.007 23.514 C 111.893 23.256 111.676 22.771 111.679 22.734 C 111.681 22.683 111.484 21.755 111.484 21.755 L 111.399 21.377 L 111.295 21.441 L 111.352 22.055 C 111.352 22.055 111.498 22.981 111.511 23.033 C 111.527 23.084 111.636 23.668 111.636 23.668 L 111.742 23.804 L 111.505 24.062 L 111.267 23.566 L 111.035 22.671 L 110.827 22.032 L 110.707 22.043 L 110.811 23.103 L 111.041 24.033 L 111.21 24.387 L 110.904 24.721 L 110.637 24.287 L 110.384 23.526 L 110.193 22.837 L 110.088 22.9 L 110.143 23.941 L 110.375 24.819 L 110.586 25.062 L 110.117 25.539 L 109.718 25.045 L 109.472 24.488 L 109.282 24.157 L 109.191 24.272 L 109.343 25.062 L 109.588 25.651 L 109.773 25.89 L 109.334 26.336 L 109.08 26.068 L 108.816 25.543 L 108.65 25.234 L 108.542 25.29 L 108.594 26.136 L 108.856 26.661 L 108.916 26.762 L 107.43 28.276 L 106.57 28.942 L 105.848 30.076 L 105.817 30.228 L 104.824 31.629 L 103.981 33.701 L 103.99 33.83 L 103.99 33.829 L 104.102 35.511 L 104.464 37.264 L 105.289 37.88 L 106.896 38.429 L 113.872 39.256 L 118.616 38.962 L 122.542 38.698 L 124.99 38.776 L 127.745 38.8 L 130.573 38.757 L 134.231 39.128 L 137.206 39.604 L 139.461 40.148 L 140.685 40.919 L 140.971 40.627 L 140.231 39.674 L 139.531 39.153 L 139.532 39.153 L 139.312 38.99 L 139.46 38.685 L 139.609 37.637 L 139.563 37.158 L 139.361 37.115 L 138.823 38.452 L 138.748 38.571 L 138.717 38.549 L 138.368 38.367 L 138.581 37.794 L 138.904 36.685 L 138.671 36.573 L 137.817 38.078 L 137.477 37.9 L 137.686 37.276 L 137.905 36.197 L 137.705 36.121 L 137.169 37.39 L 137.032 37.668 L 136.618 37.452 L 136.911 36.357 L 137.002 35.85 L 136.8 35.807 L 136.188 37.229 L 135.791 37.021 L 133.58 36.666 L 133.854 35.469 L 133.838 35.059 L 133.566 35.047 L 133.064 36.582 L 130.183 36.12 L 130.18 36.118 C 130.253 35.829 130.347 35.479 130.347 35.479 L 130.443 34.122 L 130.24 34.079 L 129.828 35.661 L 129.634 36.05 L 129.21 35.996 L 129.401 35.334 L 129.409 34.382 L 129.301 33.797 L 129.097 33.789 L 128.9 35.107 L 128.571 35.916 L 128.471 35.903 L 128.435 35.631 L 128.262 35.179 L 128.333 34.878 L 128.358 33.55 L 128.302 33.31 L 128.058 33.435 L 127.917 34.28 L 127.494 33.853 L 125.521 33.047 L 123.657 32.146 L 123.231 31.786 L 122.651 31.08 L 120.917 30.285 C 120.917 30.285 121.149 28.901 121.189 28.8 C 121.197 28.777 121.195 28.658 121.187 28.488 L 123.784 28.969 L 127.989 28.598 L 129.263 28.353 L 129.867 28.82 L 130.483 29.494 L 131.452 29.913 L 132.26 30.087 C 132.26 30.087 132.477 30.572 132.473 30.675 C 132.467 30.777 132.866 30.998 132.866 30.998 L 132.87 31.646 L 133.233 31.151 L 133.219 30.709 L 132.955 29.778 L 132.351 29.614 L 131.676 29.448 L 131.316 29.125 L 132.188 29.437 L 133.036 29.509 L 133.19 29.856 L 133.68 30.321 L 133.762 30.768 L 133.84 31.282 L 134.022 31.017 L 134.114 30.511 L 133.979 30.192 C 134.107 30.259 134.225 30.312 134.225 30.312 L 134.305 30.793 L 134.479 30.698 L 134.568 30.225 L 134.074 29.897 L 133.922 29.481 L 133.82 28.728 L 133.462 28.371 L 133.021 28.317 L 132.477 28.327 L 131.728 28.327 L 130.857 28.262 L 130.708 28.073 L 132.057 27.813 L 133.941 26.827 L 134.022 26.58 L 134.583 26.307 L 135.284 24.722 L 135.51 25.265 L 136.407 25.748 L 137.175 26.055 L 137.334 25.552 L 138.534 23.87 L 139.608 22.694 L 141.568 21.523 L 142.911 20.427 L 144.135 18.952 L 144.583 18.087 L 144.842 17.623 L 145.105 17.089 L 145.018 16.779 L 145.078 16.681 L 145.078 16.681 L 145.202 16.481 L 145.224 15.985 L 145.224 15.985 L 145.226 15.937 Z " fill="rgb(0,0,0)"/></svg>