<?xml version="1.0" encoding="UTF-8" standalone="no"?><!-- Generator: Gravit.io --><svg xmlns="http://www.w3.org/2000/svg" xmlns:xlink="http://www.w3.org/1999/xlink" style="isolation:isolate" viewBox="0 0 1200 800" width="1200pt" height="800pt"><defs><clipPath id="_clipPath_dhV1ePfVtLIPdGAuJwA5VT4g6NVipBlJ"><rect width="1200" height="800"/></clipPath></defs><g clip-path="url(#_clipPath_dhV1ePfVtLIPdGAuJwA5VT4g6NVipBlJ)"><clipPath id="_clipPath_s5exjBr3NLuEKDDvAcbvE8GX43sJ9wjC"><path d=" M 0 0 L 0 800 L 1200 800 L 1200 0 L 0 0 Z " id="Path" fill="rgb(255,255,255)"/></clipPath><g clip-path="url(#_clipPath_s5exjBr3NLuEKDDvAcbvE8GX43sJ9wjC)"><clipPath id="_clipPath_RL6Qf6zUFrOSDDvl1M4qnHQb07mFShac"><path d=" M 0 800 L 0 0 L 1200 0 L 1200 800 L 0 800 Z " id="Path" fill="rgb(255,255,255)"/></clipPath><g clip-path="url(#_clipPath_RL6Qf6zUFrOSDDvl1M4qnHQb07mFShac)"><path d=" M 371.498 754.019 L -41.982 762.804 L -42.344 357.417 L -25.385 357.136 L 371.498 754.019 Z " id="Path" fill="rgb(145,71,81)"/><path d=" M 501.283 822.665 L -41.889 828.224 L -41.889 507.275 L 185.612 506.994 L 501.283 822.665 Z " id="Path" fill="rgb(219,68,75)"/><path d=" M 275.637 824.975 L -41.889 828.225 L -42.344 506.994 L 275.637 824.975 Z " id="Path" fill="rgb(185,51,63)"/><path d=" M 0 507.223 L 0 465.835 L 41.337 507.172 L 0 507.223 Z " id="Path" fill="rgb(105,14,20)"/><path d=" M 334.165 800 L 282.964 800 L 0 528.784 L 0 507.223 L 41.337 507.172 L 334.165 800 Z " id="Path" fill="rgb(159,14,19)"/><path d=" M 776.125 -32.82 L 1224.04 415.092 L 1227.01 -32.82 L 776.125 -32.82 Z " id="Path" fill="rgb(155,46,61)"/><path d=" M 981.162 216.84 L 1223.49 459.166 L 1223.49 357.042 L 980.158 105.887 L 981.162 216.84 Z " id="Path" fill="rgb(185,51,63)"/><path d=" M 1200 332.799 L 980.158 105.887 L 980.498 143.466 L 837.032 0 L 1146.87 0 L 1200 54.372 L 1200 332.799 Z " id="Path" fill="rgb(112,9,15)"/><path d=" M 1200 362.967 L 980.498 143.466 L 980.158 105.887 L 1200 332.799 L 1200 362.967 Z " id="Path" fill="rgb(134,10,16)"/></g></g></g></svg>