<?xml version="1.0" encoding="UTF-8" standalone="no"?><!-- Generator: Gravit.io --><svg xmlns="http://www.w3.org/2000/svg" xmlns:xlink="http://www.w3.org/1999/xlink" style="isolation:isolate" viewBox="0 0 1200 800" width="1200pt" height="800pt"><defs><clipPath id="_clipPath_nghgYKBwvnydGQrMsHwh19qa3RLjkoHp"><rect width="1200" height="800"/></clipPath></defs><g clip-path="url(#_clipPath_nghgYKBwvnydGQrMsHwh19qa3RLjkoHp)"><clipPath id="_clipPath_03VATA9ugT5awjdQ2ymXvCFDPxP5dnmz"><path d=" M 0 0 L 0 800 L 1200 800 L 1200 0 L 0 0 Z " id="Path" fill="rgb(255,255,255)"/></clipPath><g clip-path="url(#_clipPath_03VATA9ugT5awjdQ2ymXvCFDPxP5dnmz)"><clipPath id="_clipPath_7IwzQSrEk2urMI50H7xHpdAH3ZILqmTG"><path d=" M 1200 800 L 0 800 L 0 0 L 1200 0 L 1200 800 Z " id="Path" fill="rgb(255,255,255)"/></clipPath><g clip-path="url(#_clipPath_7IwzQSrEk2urMI50H7xHpdAH3ZILqmTG)"><linearGradient id="_lgradient_96" x1="0" y1="0" x2="1" y2="0" gradientTransform="matrix(663.853,-1.011,1.011,663.853,839.244,-36.118)" gradientUnits="userSpaceOnUse"><stop offset="0%" stop-opacity="1" style="stop-color:rgb(11,193,199)"/><stop offset="100%" stop-opacity="1" style="stop-color:rgb(50,76,252)"/></linearGradient><path d=" M 1495.53 -138.767 L 1495.09 -139.2 C 1485.19 -149.07 1469.16 -149.045 1459.29 -139.144 L 1455.05 -134.888 C 1445.18 -124.986 1429.15 -124.961 1419.25 -134.832 L 1418.81 -135.265 C 1408.91 -145.135 1392.88 -145.109 1383.01 -135.208 L 1344.74 -96.821 C 1334.75 -86.8 1318.52 -86.775 1308.5 -96.766 L 1308.5 -96.766 C 1298.48 -106.757 1298.46 -122.979 1308.45 -133 L 1365.01 -189.733 C 1374.88 -199.635 1374.85 -215.663 1364.95 -225.533 L 1364.52 -225.966 C 1354.62 -235.837 1338.59 -235.812 1328.72 -225.911 L 1204.24 -101.06 C 1194.25 -91.039 1178.03 -91.014 1168.01 -101.005 L 1168.01 -101.005 C 1157.99 -110.996 1157.96 -127.218 1167.96 -137.239 L 1292.43 -262.091 C 1302.3 -271.993 1302.27 -288.021 1292.37 -297.892 L 1291.94 -298.325 C 1282.04 -308.196 1266.01 -308.171 1256.14 -298.27 L 971.229 -12.494 C 961.239 -2.473 961.264 13.75 971.285 23.741 L 971.285 23.741 C 981.306 33.731 981.331 49.954 971.34 59.975 L 847.084 184.61 C 837.094 194.631 837.118 210.854 847.14 220.845 L 847.14 220.845 C 857.161 230.835 873.384 230.811 883.374 220.79 L 1007.63 96.155 C 1017.62 86.133 1033.84 86.109 1043.86 96.1 L 1043.86 96.1 C 1053.89 106.09 1053.91 122.313 1043.92 132.334 L 987.577 188.849 C 977.586 198.87 977.611 215.093 987.632 225.083 L 987.632 225.083 C 997.653 235.074 1013.88 235.049 1023.87 225.028 L 1061.92 186.856 C 1071.91 176.835 1088.14 176.811 1098.16 186.801 L 1098.16 186.802 C 1108.18 196.792 1124.4 196.768 1134.39 186.746 L 1138.21 182.921 C 1148.2 172.9 1164.42 172.875 1174.44 182.866 L 1174.44 182.866 C 1184.46 192.856 1200.68 192.832 1210.67 182.811 L 1495.58 -102.966 C 1505.45 -112.868 1505.43 -128.896 1495.53 -138.767 Z " id="Path" fill="url(#_lgradient_96)"/><linearGradient id="_lgradient_97" x1="0" y1="0" x2="1" y2="0" gradientTransform="matrix(589.221,-0.898,0.898,589.221,780.096,-109.235)" gradientUnits="userSpaceOnUse"><stop offset="0%" stop-opacity="1" style="stop-color:rgb(58,161,199)"/><stop offset="100%" stop-opacity="1" style="stop-color:rgb(50,76,252)"/></linearGradient><path d=" M 1074.83 -26.281 L 1074.83 -26.281 C 1084.63 -16.512 1084.66 -0.649 1074.89 9.15 L 1000.32 83.947 C 990.55 93.746 990.573 109.609 1000.37 119.378 L 1000.37 119.379 C 1010.17 129.148 1010.2 145.011 1000.43 154.81 L 984.783 170.501 C 975.014 180.3 975.038 196.164 984.837 205.933 L 984.837 205.933 C 994.636 215.702 1010.5 215.678 1020.27 205.879 L 1271.73 -46.346 C 1281.5 -56.144 1281.47 -72.008 1271.67 -81.777 L 1271.67 -81.777 C 1261.87 -91.546 1261.85 -107.41 1271.62 -117.208 L 1287.26 -132.9 C 1297.03 -142.699 1297.01 -158.563 1287.21 -168.332 L 1287.21 -168.332 C 1277.41 -178.101 1277.38 -193.964 1287.15 -203.763 L 1361.72 -278.56 C 1371.49 -288.359 1371.47 -304.222 1361.67 -313.992 L 1361.67 -313.992 C 1351.87 -323.761 1336.01 -323.737 1326.24 -313.938 L 1284.39 -271.965 C 1274.62 -262.166 1258.76 -262.142 1248.96 -271.911 L 1248.96 -271.911 C 1239.16 -281.68 1223.3 -281.656 1213.53 -271.857 L 1158.97 -217.131 C 1149.2 -207.333 1133.34 -207.308 1123.54 -217.078 L 1123.54 -217.078 C 1113.74 -226.847 1113.72 -242.71 1123.49 -252.509 L 1145.32 -274.41 C 1155.09 -284.209 1155.06 -300.073 1145.27 -309.842 L 1145.27 -309.842 C 1135.47 -319.611 1135.44 -335.475 1145.21 -345.273 L 1189.71 -389.908 C 1199.48 -399.707 1199.46 -415.57 1189.66 -425.339 L 1189.66 -425.339 C 1179.86 -435.108 1163.99 -435.084 1154.22 -425.285 L 1109.73 -380.651 C 1099.96 -370.852 1084.09 -370.828 1074.29 -380.597 L 1074.29 -380.597 C 1064.5 -390.366 1048.63 -390.342 1038.86 -380.543 L 787.405 -128.318 C 777.637 -118.52 777.66 -102.656 787.459 -92.887 L 787.46 -92.887 C 797.259 -83.118 813.122 -83.142 822.891 -92.941 L 867.39 -137.575 C 877.159 -147.374 893.021 -147.398 902.821 -137.629 L 902.821 -137.629 C 912.62 -127.86 912.645 -111.997 902.875 -102.198 L 858.377 -57.563 C 848.607 -47.764 848.632 -31.901 858.431 -22.132 L 858.431 -22.132 C 868.229 -12.363 868.254 3.5 858.484 13.3 L 836.649 35.201 C 826.881 45 826.905 60.863 836.704 70.632 L 836.704 70.633 C 846.503 80.402 862.366 80.377 872.136 70.579 L 926.694 15.853 C 936.464 6.054 952.327 6.03 962.126 15.799 L 962.126 15.799 C 971.925 25.568 987.788 25.544 997.558 15.745 L 1039.4 -26.227 C 1049.17 -36.026 1065.04 -36.051 1074.83 -26.281 Z " id="Path" fill="url(#_lgradient_97)"/><linearGradient id="_lgradient_98" x1="0" y1="0" x2="1" y2="0" gradientTransform="matrix(51.244,-0.078,0.078,51.244,1126.03,232.377)" gradientUnits="userSpaceOnUse"><stop offset="0%" stop-opacity="1" style="stop-color:rgb(75,246,250)"/><stop offset="100%" stop-opacity="1" style="stop-color:rgb(50,76,252)"/></linearGradient><path d=" M 1177.27 232.299 C 1177.29 246.45 1165.84 257.938 1151.69 257.96 C 1137.54 257.981 1126.05 246.528 1126.03 232.377 C 1126.01 218.227 1137.46 206.738 1151.61 206.716 C 1165.76 206.695 1177.25 218.148 1177.27 232.299 Z " id="Path" fill="url(#_lgradient_98)"/><linearGradient id="_lgradient_99" x1="0" y1="0" x2="1" y2="0" gradientTransform="matrix(51.244,-0.078,0.078,51.244,788.211,102.299)" gradientUnits="userSpaceOnUse"><stop offset="0%" stop-opacity="1" style="stop-color:rgb(58,161,199)"/><stop offset="100%" stop-opacity="1" style="stop-color:rgb(50,76,252)"/></linearGradient><path d=" M 839.454 102.221 C 839.476 116.371 828.022 127.86 813.872 127.881 C 799.721 127.903 788.232 116.449 788.211 102.299 C 788.189 88.148 799.643 76.66 813.794 76.638 C 827.944 76.616 839.433 88.07 839.454 102.221 Z " id="Path" fill="url(#_lgradient_99)"/><linearGradient id="_lgradient_100" x1="0" y1="0" x2="1" y2="0" gradientTransform="matrix(589.221,-0.898,0.898,589.221,-370.263,502.112)" gradientUnits="userSpaceOnUse"><stop offset="0%" stop-opacity="1" style="stop-color:rgb(134,163,252)"/><stop offset="100%" stop-opacity="1" style="stop-color:rgb(48,196,199)"/></linearGradient><path d=" M -141.934 585.167 L -141.933 585.167 C -132.134 594.937 -132.11 610.8 -141.879 620.599 L -216.449 695.396 C -226.218 705.194 -226.194 721.058 -216.395 730.827 L -216.395 730.827 C -206.596 740.597 -206.572 756.46 -216.341 766.259 L -231.984 781.95 C -241.753 791.749 -241.729 807.612 -231.93 817.382 L -231.93 817.382 C -222.131 827.151 -206.268 827.127 -196.499 817.328 L 54.959 565.103 C 64.728 555.304 64.704 539.44 54.905 529.672 L 54.904 529.672 C 45.106 519.902 45.082 504.039 54.851 494.24 L 70.494 478.549 C 80.263 468.75 80.239 452.887 70.44 443.117 L 70.44 443.117 C 60.641 433.348 60.617 417.484 70.386 407.686 L 144.956 332.889 C 154.725 323.09 154.701 307.227 144.902 297.457 L 144.901 297.457 C 135.103 287.688 119.239 287.712 109.47 297.511 L 67.625 339.484 C 57.856 349.283 41.993 349.307 32.193 339.538 L 32.193 339.538 C 22.395 329.769 6.531 329.792 -3.238 339.592 L -57.797 394.317 C -67.566 404.116 -83.43 404.141 -93.228 394.371 L -93.228 394.371 C -103.028 384.602 -103.052 368.739 -93.283 358.939 L -71.448 337.038 C -61.679 327.239 -61.703 311.376 -71.502 301.607 L -71.502 301.607 C -81.301 291.837 -81.325 275.974 -71.556 266.175 L -27.058 221.541 C -17.288 211.742 -17.312 195.879 -27.111 186.109 L -27.111 186.109 C -36.911 176.34 -52.774 176.364 -62.543 186.164 L -107.042 230.797 C -116.811 240.597 -132.674 240.621 -142.473 230.852 L -142.473 230.852 C -152.272 221.083 -168.135 221.106 -177.905 230.905 L -429.362 483.13 C -439.131 492.929 -439.107 508.792 -429.308 518.562 L -429.308 518.562 C -419.509 528.331 -403.646 528.307 -393.876 518.508 L -349.378 473.873 C -339.609 464.074 -323.746 464.05 -313.946 473.819 L -313.946 473.819 C -304.147 483.589 -304.123 499.452 -313.893 509.251 L -358.391 553.886 C -368.16 563.685 -368.136 579.548 -358.337 589.316 L -358.337 589.317 C -348.538 599.086 -348.514 614.949 -358.283 624.748 L -380.118 646.649 C -389.887 656.449 -389.863 672.312 -380.063 682.081 L -380.063 682.081 C -370.265 691.851 -354.401 691.826 -344.632 682.027 L -290.073 627.302 C -280.304 617.503 -264.44 617.479 -254.642 627.248 L -254.642 627.248 C -244.843 637.018 -228.979 636.993 -219.21 627.194 L -177.365 585.222 C -167.596 575.422 -151.732 575.398 -141.934 585.167 Z " id="Path" fill="url(#_lgradient_100)"/><linearGradient id="_lgradient_101" x1="0" y1="0" x2="1" y2="0" gradientTransform="matrix(520.206,-0.792,0.792,520.206,181.353,983.4)" gradientUnits="userSpaceOnUse"><stop offset="0%" stop-opacity="1" style="stop-color:rgb(58,161,199)"/><stop offset="99.92490000000001%" stop-opacity="1" style="stop-color:rgb(144,229,252)"/><stop offset="100%" stop-opacity="1" style="stop-color:rgb(144,229,252)"/></linearGradient><path d=" M 207.209 1047.16 L 188.982 1065.45 C 178.992 1075.47 179.017 1091.69 189.038 1101.68 L 189.038 1101.68 C 199.059 1111.67 215.282 1111.65 225.272 1101.63 L 295.114 1031.57 C 305.105 1021.55 321.328 1021.52 331.349 1031.52 L 331.349 1031.52 C 341.37 1041.51 341.395 1057.73 331.404 1067.75 L 261.563 1137.8 C 251.572 1147.83 251.596 1164.05 261.618 1174.04 L 261.618 1174.04 C 271.639 1184.03 287.861 1184.01 297.852 1173.98 L 336.691 1135.03 C 346.682 1125.01 362.905 1124.98 372.926 1134.97 L 372.926 1134.97 C 382.947 1144.96 382.972 1161.19 372.981 1171.21 L 303.628 1240.77 C 293.637 1250.79 293.662 1267.02 303.683 1277.01 L 303.683 1277.01 C 313.704 1287 329.927 1286.97 339.917 1276.95 L 624.608 991.392 C 634.6 981.37 634.574 965.147 624.554 955.156 L 624.554 955.156 C 614.532 945.166 614.508 928.943 624.498 918.922 L 693.852 849.357 C 703.842 839.336 703.817 823.113 693.797 813.122 L 693.796 813.122 C 683.775 803.132 667.553 803.156 657.562 813.178 L 618.723 852.135 C 608.731 862.156 592.509 862.181 582.488 852.19 L 582.488 852.19 C 572.467 842.199 572.442 825.977 582.433 815.956 L 652.274 745.9 C 662.265 735.88 662.24 719.657 652.219 709.666 L 652.219 709.666 C 642.198 699.676 625.976 699.7 615.984 709.722 L 546.143 779.776 C 536.152 789.797 519.929 789.822 509.908 779.831 L 509.908 779.831 C 499.887 769.841 499.862 753.618 509.853 743.597 L 528.08 725.314 C 538.07 715.293 538.045 699.07 528.024 689.08 L 528.024 689.08 C 518.003 679.089 501.78 679.114 491.79 689.135 L 207.099 974.694 C 197.108 984.716 197.133 1000.94 207.154 1010.93 L 207.154 1010.93 C 217.175 1020.92 217.2 1037.14 207.209 1047.16 Z " id="Path" fill="url(#_lgradient_101)"/><linearGradient id="_lgradient_102" x1="0" y1="0" x2="1" y2="0" gradientTransform="matrix(528.814,-0.806,0.806,528.814,-51.721,912.639)" gradientUnits="userSpaceOnUse"><stop offset="0%" stop-opacity="1" style="stop-color:rgb(50,76,252)"/><stop offset="100%" stop-opacity="1" style="stop-color:rgb(75,246,250)"/></linearGradient><path d=" M 86.08 1149.11 L 112.188 1122.92 C 122.178 1112.9 138.401 1112.87 148.422 1122.86 L 148.422 1122.86 C 158.443 1132.85 174.666 1132.83 184.657 1122.81 L 469.564 837.031 C 479.435 827.13 479.411 811.102 469.51 801.23 L 469.075 800.797 C 459.174 790.926 443.146 790.95 433.274 800.852 L 406.951 827.256 C 396.96 837.277 380.737 837.302 370.716 827.311 L 370.716 827.311 C 360.695 817.32 360.67 801.098 370.661 791.076 L 378.225 783.488 C 388.096 773.588 388.072 757.559 378.171 747.688 L 377.736 747.255 C 367.835 737.384 367.811 721.354 377.682 711.454 L 377.682 711.454 C 387.553 701.553 387.528 685.523 377.627 675.653 L 377.193 675.22 C 367.292 665.349 351.263 665.373 341.392 675.274 L 312.844 703.909 C 302.973 713.811 286.944 713.835 277.043 703.964 L 276.608 703.53 C 266.708 693.66 250.679 693.685 240.808 703.585 L -44.1 989.362 C -54.09 999.383 -54.066 1015.61 -44.044 1025.6 L -44.044 1025.6 C -34.023 1035.59 -17.801 1035.56 -7.81 1025.54 L 20.738 996.906 C 30.49 987.125 46.324 987.101 56.106 996.853 L 56.974 997.719 C 66.755 1007.47 66.779 1023.3 57.028 1033.09 L 57.028 1033.09 C 47.037 1043.11 47.062 1059.33 57.083 1069.32 L 57.083 1069.32 C 67.105 1079.31 67.129 1095.53 57.138 1105.56 L 49.791 1112.93 C 39.8 1122.95 39.824 1139.17 49.846 1149.16 L 49.846 1149.16 C 59.867 1159.15 76.089 1159.13 86.08 1149.11 Z " id="Path" fill="url(#_lgradient_102)"/><linearGradient id="_lgradient_103" x1="0" y1="0" x2="1" y2="0" gradientTransform="matrix(659.016,-1.004,1.004,659.016,-401.75,842.212)" gradientUnits="userSpaceOnUse"><stop offset="0%" stop-opacity="1" style="stop-color:rgb(50,76,252)"/><stop offset="100%" stop-opacity="1" style="stop-color:rgb(58,161,199)"/></linearGradient><path d=" M -254.316 912.906 L -393.925 1052.94 C -403.916 1062.96 -403.891 1079.19 -393.87 1089.18 L -393.87 1089.18 C -383.849 1099.17 -367.625 1099.14 -357.635 1089.12 L -302.011 1033.33 C -292.021 1023.31 -275.797 1023.28 -265.776 1033.27 L -265.776 1033.27 C -255.755 1043.26 -255.73 1059.49 -265.721 1069.51 L -343.96 1147.98 C -353.951 1158.01 -353.926 1174.23 -343.905 1184.22 L -343.905 1184.22 C -333.884 1194.21 -317.661 1194.19 -307.67 1184.16 L -291.474 1167.92 C -281.483 1157.9 -265.261 1157.87 -255.239 1167.86 L -255.239 1167.86 C -245.218 1177.85 -228.996 1177.83 -219.005 1167.81 L -184.576 1133.27 C -174.585 1123.25 -158.362 1123.23 -148.341 1133.22 L -147.463 1134.09 C -137.927 1143.6 -137.903 1159.04 -147.411 1168.58 L -147.411 1168.58 C -157.401 1178.6 -157.376 1194.82 -147.355 1204.81 L -147.355 1204.81 C -137.334 1214.8 -121.111 1214.78 -111.121 1204.75 L 249.944 842.588 C 259.693 832.81 259.669 816.979 249.891 807.23 L 249.013 806.354 C 239.234 796.606 239.21 780.775 248.959 770.997 L 248.959 770.997 C 258.708 761.218 258.684 745.388 248.905 735.639 L 248.027 734.764 C 238.248 725.015 222.418 725.039 212.669 734.817 L 177.365 770.229 C 167.616 780.008 151.786 780.032 142.007 770.283 L 141.129 769.408 C 131.35 759.659 115.52 759.683 105.771 769.462 L 89.137 786.146 C 79.147 796.167 62.923 796.192 52.902 786.201 L 52.902 786.201 C 42.881 776.211 42.856 759.988 52.847 749.967 L 131.523 671.05 C 141.272 661.271 141.249 645.441 131.47 635.692 L 130.592 634.816 C 120.813 625.068 104.983 625.092 95.234 634.871 L 39.172 691.104 C 29.182 701.124 12.959 701.149 2.938 691.158 L 2.938 691.158 C -7.083 681.168 -7.108 664.945 2.882 654.924 L 142.929 514.45 C 152.678 504.671 152.654 488.841 142.875 479.092 L 141.997 478.217 C 132.219 468.468 116.388 468.491 106.639 478.271 L -254.426 840.438 C -264.417 850.459 -264.392 866.682 -254.371 876.672 L -254.371 876.672 C -244.35 886.663 -244.325 902.886 -254.316 912.906 Z " id="Path" fill="url(#_lgradient_103)"/><linearGradient id="_lgradient_104" x1="0" y1="0" x2="1" y2="0" gradientTransform="matrix(51.244,-0.078,0.078,51.244,129.541,610.275)" gradientUnits="userSpaceOnUse"><stop offset="0%" stop-opacity="1" style="stop-color:rgb(75,246,250)"/><stop offset="100%" stop-opacity="1" style="stop-color:rgb(50,76,252)"/></linearGradient><path d=" M 180.785 610.197 C 180.806 624.348 169.353 635.836 155.202 635.857 C 141.051 635.88 129.563 624.426 129.541 610.275 C 129.52 596.125 140.973 584.636 155.124 584.614 C 169.274 584.593 180.763 596.047 180.785 610.197 Z " id="Path" fill="url(#_lgradient_104)"/><linearGradient id="_lgradient_105" x1="0" y1="0" x2="1" y2="0" gradientTransform="matrix(51.244,-0.078,0.078,51.244,30.551,301.789)" gradientUnits="userSpaceOnUse"><stop offset="0%" stop-opacity="1" style="stop-color:rgb(58,161,199)"/><stop offset="100%" stop-opacity="1" style="stop-color:rgb(50,76,252)"/></linearGradient><path d=" M 81.795 301.71 C 81.816 315.861 70.362 327.35 56.212 327.372 C 42.062 327.393 30.573 315.939 30.551 301.789 C 30.53 287.638 41.983 276.149 56.134 276.128 C 70.285 276.106 81.773 287.56 81.795 301.71 Z " id="Path" fill="url(#_lgradient_105)"/><linearGradient id="_lgradient_106" x1="0" y1="0" x2="1" y2="0" gradientTransform="matrix(1.011,663.853,663.853,-1.011,914.109,614.668)" gradientUnits="userSpaceOnUse"><stop offset="0%" stop-opacity="1" style="stop-color:rgb(58,161,199)"/><stop offset="100%" stop-opacity="1" style="stop-color:rgb(50,76,252)"/></linearGradient><path d=" M 813.459 1271.26 L 813.025 1270.83 C 803.125 1260.96 803.101 1244.93 812.972 1235.03 L 817.216 1230.77 C 827.087 1220.87 827.063 1204.84 817.163 1194.97 L 816.729 1194.53 C 806.828 1184.66 806.805 1168.63 816.676 1158.73 L 854.945 1120.34 C 864.937 1110.32 864.912 1094.1 854.891 1084.11 L 854.891 1084.11 C 844.869 1074.12 828.646 1074.14 818.656 1084.17 L 762.096 1140.9 C 752.225 1150.8 736.196 1150.82 726.296 1140.95 L 725.861 1140.52 C 715.961 1130.65 715.937 1114.62 725.808 1104.72 L 850.279 979.865 C 860.27 969.844 860.245 953.621 850.224 943.631 L 850.224 943.631 C 840.202 933.64 823.979 933.664 813.989 943.686 L 689.517 1068.54 C 679.646 1078.44 663.617 1078.46 653.716 1068.59 L 653.281 1068.16 C 643.381 1058.29 643.356 1042.26 653.228 1032.36 L 938.135 746.581 C 948.125 736.561 964.348 736.535 974.369 746.526 L 974.369 746.526 C 984.391 756.517 1000.61 756.492 1010.6 746.471 L 1134.86 621.836 C 1144.85 611.815 1161.07 611.79 1171.09 621.781 L 1171.09 621.781 C 1181.12 631.771 1181.14 647.994 1171.15 658.016 L 1046.89 782.65 C 1036.9 792.672 1036.93 808.895 1046.95 818.885 L 1046.95 818.886 C 1056.97 828.876 1073.19 828.852 1083.18 818.83 L 1139.53 762.315 C 1149.52 752.294 1165.74 752.27 1175.76 762.261 L 1175.76 762.261 C 1185.78 772.251 1185.81 788.474 1175.82 798.495 L 1137.76 836.666 C 1127.77 846.688 1127.79 862.91 1137.82 872.901 L 1137.82 872.901 C 1147.84 882.892 1147.86 899.114 1137.87 909.136 L 1134.06 912.961 C 1124.07 922.982 1124.09 939.205 1134.11 949.196 L 1134.11 949.196 C 1144.13 959.187 1144.16 975.409 1134.17 985.431 L 849.26 1271.21 C 839.389 1281.11 823.36 1281.13 813.459 1271.26 Z " id="Path" fill="url(#_lgradient_106)"/><linearGradient id="_lgradient_107" x1="0" y1="0" x2="1" y2="0" gradientTransform="matrix(51.244,-0.078,0.078,51.244,969.901,714.825)" gradientUnits="userSpaceOnUse"><stop offset="0%" stop-opacity="1" style="stop-color:rgb(75,246,250)"/><stop offset="100%" stop-opacity="1" style="stop-color:rgb(50,76,252)"/></linearGradient><path d=" M 1021.14 714.746 C 1021.17 728.897 1009.71 740.386 995.563 740.407 C 981.411 740.429 969.923 728.975 969.901 714.824 C 969.88 700.674 981.334 689.186 995.484 689.164 C 1009.63 689.143 1021.12 700.596 1021.14 714.746 Z " id="Path" fill="url(#_lgradient_107)"/></g></g></g></svg>