<?xml version="1.0" encoding="UTF-8" standalone="no"?><!-- Generator: Gravit.io --><svg xmlns="http://www.w3.org/2000/svg" xmlns:xlink="http://www.w3.org/1999/xlink" style="isolation:isolate" viewBox="831.605 600.299 301.956 224.67" width="301.956pt" height="224.67pt"><path d=" M 1131.99 737.058 C 1126.73 714.517 1108.73 708.861 1083.73 704.34 C 1059.17 699.899 1036.23 686.811 1020.16 667.771 C 1003.38 647.885 994.898 620.153 970.388 607.654 C 958.415 601.548 944.567 600.009 931.268 600.341 C 917.573 600.684 903.509 603.464 891.659 610.61 C 879.343 618.039 872.682 630.049 868.383 643.336 C 863.452 658.575 858.992 673.977 854.323 689.297 C 849.625 704.711 844.928 720.126 840.23 735.54 C 836.057 749.234 830.017 763.93 831.991 778.497 C 835.488 804.307 860.356 821.668 884.995 824.429 C 914.468 827.731 942.193 815.242 968.811 804.383 C 983.422 798.423 998.211 793.069 1013.87 790.702 C 1028.84 788.438 1044 788.056 1059.06 786.633 C 1075.86 785.045 1133.9 775.248 1133.56 751.166 C 1133.48 745.838 1132.95 741.167 1131.99 737.058 Z " fill="#FFFFFF"/></svg>