<?xml version="1.0" encoding="UTF-8" standalone="no"?><!-- Generator: Gravit.io --><svg xmlns="http://www.w3.org/2000/svg" xmlns:xlink="http://www.w3.org/1999/xlink" style="isolation:isolate" viewBox="85.146 636.844 273.39 212.74" width="273.39pt" height="212.74pt"><path d=" M 355.986 765.439 C 351.539 753.574 342.278 744.354 332.066 737.222 C 320.622 729.228 307.582 723.419 294.063 719.983 C 268.336 713.445 240.281 715.413 215.875 703.906 C 204.251 698.425 194.488 689.933 186.102 680.295 C 167.841 659.31 155.079 630.82 121.475 637.967 C 105.66 641.33 92.104 653.745 87.367 669.205 C 81.344 688.861 89.032 709.702 93.185 729.836 C 96.522 746.01 97.655 762.91 104.581 777.902 C 113.402 796.996 130.408 810.323 147.94 821.04 C 165.049 831.497 180.983 845.213 201.399 848.397 C 208.796 849.552 216.304 849.718 223.775 849.505 C 231.452 849.286 239.127 848.799 246.781 848.171 C 261.708 846.945 276.673 845.111 291.336 842.008 C 304.398 839.244 317.388 835.138 328.815 828.089 C 339.5 821.498 348.485 812.165 353.769 800.696 C 358.85 789.669 360.307 776.969 355.986 765.439 Z " fill="#FFFFFF"/></svg>