<?xml version="1.0" encoding="UTF-8" standalone="no"?><!-- Generator: Gravit.io --><svg xmlns="http://www.w3.org/2000/svg" xmlns:xlink="http://www.w3.org/1999/xlink" style="isolation:isolate" viewBox="348.895 235.126 250.174 231.685" width="250.174pt" height="231.685pt"><path d=" M 592.799 316.368 C 591.243 312.731 589.385 309.003 587.215 305.138 C 574.902 283.204 552.588 268.435 529.125 259.368 C 505.664 250.301 480.646 246.179 456.178 240.346 C 445.773 237.864 435.298 235.048 424.602 235.128 C 402.218 235.294 381.2 248.624 368.31 266.924 C 355.42 285.225 349.928 307.918 349.021 330.284 C 348.207 350.355 351.182 371.35 362.449 387.98 C 368.475 396.877 376.587 404.121 384.613 411.268 C 397.119 422.402 409.625 433.538 422.129 444.673 C 428.877 450.682 435.725 456.759 443.786 460.842 C 470.243 474.242 510.444 463.421 531.308 444.839 C 536.31 440.385 541.579 436.294 546.959 432.312 C 557.292 424.665 567.906 417.118 576.164 407.148 C 583.196 398.658 588.606 388.968 592.315 378.591 C 600.76 354.964 601.691 337.149 592.799 316.368 Z " fill="#FFFFFF"/></svg>