<?xml version="1.0" encoding="UTF-8" standalone="no"?><!-- Generator: Gravit.io --><svg xmlns="http://www.w3.org/2000/svg" xmlns:xlink="http://www.w3.org/1999/xlink" style="isolation:isolate" viewBox="60.275 913.418 193.835 210.838" width="193.835pt" height="210.838pt"><path d=" M 242.235 1081.94 C 230.61 1093.19 213.333 1095.54 197.471 1098.71 C 179.63 1102.28 162.139 1107.59 145.328 1114.55 C 123.573 1123.55 85.982 1133.48 70.009 1108.14 C 63.725 1098.17 62.975 1085.68 64.111 1073.95 C 65.247 1062.22 68.076 1050.65 68.252 1038.87 C 68.507 1021.89 63.259 1005.36 60.905 988.537 C 56.454 956.751 75.724 910.694 114.492 913.544 C 132.784 914.889 147.27 928.715 161.306 940.521 C 177.096 953.804 194.208 964.452 211.925 974.896 C 223.955 981.987 237.705 990.338 244.176 1003.33 C 254.767 1024.6 260.595 1064.17 242.235 1081.94 Z " fill="#FFFFFF"/></svg>