<?xml version="1.0" encoding="UTF-8" standalone="no"?><!-- Generator: Gravit.io --><svg xmlns="http://www.w3.org/2000/svg" xmlns:xlink="http://www.w3.org/1999/xlink" style="isolation:isolate" viewBox="98.194 32.24 72.733 63.511" width="72.733pt" height="63.511pt"><path d=" M 156.379 32.814 C 150.267 32.169 143.843 31.568 138.191 33.979 C 132.538 36.391 128.138 42.922 130.287 48.679 C 130.973 50.515 132.277 52.366 131.733 54.249 C 131.096 56.456 128.392 57.188 126.122 57.548 C 119.89 58.538 113.494 59.525 107.99 62.612 C 102.486 65.699 97.979 71.404 98.202 77.711 C 98.522 86.709 107.844 92.726 116.623 94.727 C 122.587 96.086 129.007 96.322 134.674 94.018 C 140.341 91.714 145.066 86.491 145.53 80.391 C 145.847 76.234 144.246 71.965 145.359 67.947 C 147.014 61.97 153.672 59.199 159.361 56.73 C 165.051 54.261 171.362 49.903 170.903 43.718 C 170.626 39.983 167.742 36.846 164.379 35.198 C 161.016 33.55 157.256 32.907 156.379 32.814 Z " fill="rgb(255,255,255)"/></svg>