<?xml version="1.0" encoding="UTF-8" standalone="no"?><!-- Generator: Gravit.io --><svg xmlns="http://www.w3.org/2000/svg" xmlns:xlink="http://www.w3.org/1999/xlink" style="isolation:isolate" viewBox="196.072 32.24 82.498 59.094" width="82.498pt" height="59.094pt"><path d=" M 221.377 32.959 C 210.258 36.534 201.078 45.661 197.438 56.759 C 196.292 60.253 195.669 64.007 196.364 67.617 C 197.114 71.51 199.353 74.985 202.075 77.868 C 211.375 87.722 225.761 90.962 239.305 91.302 C 246.634 91.486 254.109 90.94 260.942 88.285 C 267.777 85.632 273.946 80.649 276.775 73.886 C 280.117 65.894 278.405 56.596 274.815 48.713 C 272.351 43.304 268.88 38.128 263.82 35.01 C 258.762 31.891 251.881 31.241 246.964 34.58 C 245.267 35.732 243.665 37.373 241.614 37.398 C 239.856 37.419 238.355 36.229 236.884 35.263 C 231.434 31.684 224.947 31.812 221.377 32.959 Z " fill="rgb(255,255,255)"/></svg>