<?xml version="1.0" encoding="UTF-8" standalone="no"?><!-- Generator: Gravit.io --><svg xmlns="http://www.w3.org/2000/svg" xmlns:xlink="http://www.w3.org/1999/xlink" style="isolation:isolate" viewBox="303.718 32.707 81.602 52.742" width="81.602pt" height="52.742pt"><path d=" M 306.286 57.281 C 304.361 63.298 302.698 69.792 304.474 75.854 C 306.252 81.916 312.766 87.01 318.758 85.006 C 321.584 84.06 323.73 81.802 326.095 79.988 C 333.761 74.104 344.727 72.867 353.513 76.895 C 357.629 78.783 361.459 81.771 365.981 82.004 C 371.365 82.282 376.144 78.525 379.503 74.308 C 383.199 69.666 385.941 63.83 385.198 57.942 C 384.455 52.053 379.265 46.529 373.35 47.011 C 369.364 47.337 365.898 50.148 361.91 50.44 C 355.011 50.945 350.15 44.22 345.038 39.559 C 339.361 34.382 331.223 31.176 323.885 33.451 C 313.944 36.532 309.347 47.715 306.286 57.281 Z " fill="rgb(255,255,255)"/></svg>