<?xml version="1.0" encoding="UTF-8" standalone="no"?><!-- Generator: Gravit.io --><svg xmlns="http://www.w3.org/2000/svg" xmlns:xlink="http://www.w3.org/1999/xlink" style="isolation:isolate" viewBox="482.79 977.215 326.473 177.707" width="326.473pt" height="177.707pt"><path d=" M 618.721 1136.27 C 603.909 1133.27 588.917 1131.16 573.854 1129.96 C 556.636 1128.58 539.091 1128.35 522.611 1123.18 C 506.13 1118.01 490.418 1106.82 484.997 1090.42 C 481.941 1081.18 482.395 1071.1 484.319 1061.56 C 486.508 1050.7 491.414 1039.25 501.402 1034.46 C 506.012 1032.25 511.257 1031.71 516.369 1031.84 C 535.872 1032.33 553.792 1041.9 571.58 1049.92 C 589.369 1057.93 609.352 1064.66 628.094 1059.24 C 642.316 1055.13 653.627 1044.62 664.708 1034.81 C 679.837 1021.41 695.575 1008.69 711.945 996.836 C 723.574 988.416 736.009 980.233 750.17 977.871 C 766.773 975.102 784.596 981.234 795.979 993.634 C 803.743 1002.09 808.361 1013.3 809.165 1024.73 C 810.143 1038.66 803.612 1048.09 797.276 1059.94 C 786.007 1081.04 771.7 1100.51 754.875 1117.51 C 739.667 1132.87 718.298 1155.17 695.31 1154.92 C 682.324 1154.77 669.868 1150.17 657.483 1146.27 C 644.75 1142.25 631.806 1138.91 618.721 1136.27 Z " fill="#FFFFFF"/></svg>