<?xml version="1.0" encoding="UTF-8" standalone="no"?><!-- Generator: Gravit.io --><svg xmlns="http://www.w3.org/2000/svg" xmlns:xlink="http://www.w3.org/1999/xlink" style="isolation:isolate" viewBox="411.177 21.166 66.313 61.421" width="66.313pt" height="61.421pt"><path d=" M 435.572 34.572 C 422.501 35.228 413.895 41.039 412.054 46.853 C 410.229 52.628 411.379 59.084 414.326 64.376 C 417.273 69.667 421.874 73.885 426.933 77.213 C 430.888 79.813 435.274 81.958 439.979 82.465 C 444.576 82.96 449.182 81.869 453.656 80.697 C 459.409 79.19 465.219 77.496 470.233 74.296 C 474.323 71.688 478.069 67.285 477.225 62.508 C 476.504 58.436 472.652 55.439 472.001 51.356 C 471.09 45.637 476.678 40.863 477.426 35.12 C 478.299 28.423 469.979 21.529 465.397 21.228 C 448.398 20.114 441.662 34.267 435.572 34.572 Z " fill="rgb(255,255,255)"/></svg>