<?xml version="1.0" encoding="UTF-8" standalone="no"?><!-- Generator: Gravit.io --><svg xmlns="http://www.w3.org/2000/svg" xmlns:xlink="http://www.w3.org/1999/xlink" style="isolation:isolate" viewBox="22.005 116.004 64.605 70.153" width="64.605pt" height="70.153pt"><path d=" M 44.44 118.803 C 40.335 120.619 36.062 122.561 33.277 126.081 C 30.492 129.601 29.786 135.205 32.96 138.379 C 34.473 139.893 36.584 140.621 38.373 141.797 C 40.162 142.973 41.748 145.016 41.219 147.091 C 40.886 148.4 39.8 149.36 38.769 150.233 C 35.286 153.185 31.802 156.138 28.319 159.09 C 25.273 161.671 21.965 164.795 22.006 168.787 C 22.026 170.721 22.865 172.556 23.875 174.206 C 30.793 185.513 47.261 189.634 58.689 182.918 C 60.257 181.996 61.818 180.783 62.343 179.042 C 63.195 176.22 61.039 173.412 60.696 170.484 C 60.169 165.971 64.034 162.086 68.123 160.103 C 72.211 158.12 76.846 157.222 80.558 154.602 C 84.373 151.91 86.916 147.293 86.581 142.637 C 86.246 137.981 82.746 133.574 78.159 132.706 C 75.367 132.178 72.505 132.901 69.665 132.962 C 66.824 133.023 63.589 132.126 62.358 129.565 C 61.254 127.272 62.155 124.507 61.579 122.029 C 60.757 118.492 57.003 116.263 53.38 116.024 C 49.757 115.784 46.707 117.8 44.44 118.803 Z " fill="rgb(255,255,255)"/></svg>