<?xml version="1.0" encoding="UTF-8" standalone="no"?><!-- Generator: Gravit.io --><svg xmlns="http://www.w3.org/2000/svg" xmlns:xlink="http://www.w3.org/1999/xlink" style="isolation:isolate" viewBox="103.389 117.298 84.672 76.319" width="84.672pt" height="76.319pt"><path d=" M 134.695 126.628 C 130.791 134.477 120.784 139.454 115.821 143.338 C 111.279 146.894 103.149 156.226 103.394 162.779 C 103.638 169.334 108.617 175.852 115.152 176.399 C 117.996 176.636 120.841 175.796 123.688 175.99 C 132.801 176.612 137.877 186.833 145.889 191.216 C 155.124 196.268 166.893 192.695 175.437 186.548 C 180.871 182.639 185.761 177.453 187.492 170.987 C 189.222 164.522 186.978 156.69 181.086 153.514 C 175.777 150.652 167.691 151.072 165.624 145.407 C 164.177 141.446 166.998 137.305 167.632 133.136 C 168.624 126.604 163.655 120.102 157.357 118.105 C 151.058 116.109 144.001 117.996 138.577 121.77 C 136.95 122.901 135.687 124.635 134.695 126.628 Z " fill="rgb(255,255,255)"/></svg>