<?xml version="1.0" encoding="UTF-8" standalone="no"?><!-- Generator: Gravit.io --><svg xmlns="http://www.w3.org/2000/svg" xmlns:xlink="http://www.w3.org/1999/xlink" style="isolation:isolate" viewBox="205.027 117.63 83.409 75.654" width="83.409pt" height="75.654pt"><path d=" M 249.715 119.076 C 245.022 117.368 239.892 117.053 235.205 118.781 C 227.444 121.643 220.771 127.578 217.437 135.174 C 216.531 137.238 215.852 139.577 216.543 141.722 C 218.433 147.582 229.263 148.914 225.448 156.462 C 224.4 158.536 222.262 159.772 219.946 159.982 C 211.834 160.718 205.394 168.101 205.042 176.028 C 204.75 182.617 208.682 189.203 214.619 192.073 C 216.304 192.886 218.173 193.424 220.035 193.252 C 225.819 192.718 228.927 186.062 234.153 183.53 C 242.674 179.401 251.89 187.398 261.197 189.135 C 269.454 190.677 278.467 186.592 282.752 179.368 C 287.038 172.144 286.302 162.278 280.991 155.769 C 280.068 154.638 278.997 153.558 278.53 152.174 C 277.586 149.363 279.405 146.429 281.225 144.089 C 285.513 138.567 290.656 131.924 287.416 125.268 C 286.058 122.48 283.485 120.493 280.54 119.519 C 273.437 117.17 266.515 119.539 259.49 120.071 C 256.049 120.332 252.36 120.038 249.715 119.076 Z " fill="rgb(255,255,255)"/></svg>