<?xml version="1.0" encoding="UTF-8" standalone="no"?><!-- Generator: Gravit.io --><svg xmlns="http://www.w3.org/2000/svg" xmlns:xlink="http://www.w3.org/1999/xlink" style="isolation:isolate" viewBox="304.839 113.281 93.224 86.583" width="93.224pt" height="86.583pt"><path d=" M 333.999 115.68 C 328.779 118.101 326.718 125.552 329.951 130.311 C 330.828 131.6 332.078 133.017 331.579 134.494 C 331.322 135.257 330.646 135.788 329.994 136.259 C 321.738 142.217 311.363 146.157 306.216 154.941 C 304.856 157.26 303.89 160.046 306.381 162.766 C 307.592 164.089 309.274 164.893 311.049 165.16 C 315.263 165.794 319.244 164.006 323.384 163.598 C 323.419 163.595 323.455 163.591 323.491 163.588 C 328.378 163.149 331.023 169.225 327.481 172.621 L 324.064 175.896 C 320.399 179.41 316.634 183.06 315.43 188.235 C 314.911 190.462 315.037 192.835 316.02 194.9 C 319.543 202.301 329.753 200.513 335.297 195.483 C 340.396 190.856 343.489 184.3 348.767 179.876 C 350.406 178.502 352.317 177.326 354.443 177.081 C 358.125 176.657 361.468 179.034 364.508 181.155 C 370.836 185.572 377.996 189.503 385.963 188.446 C 389.802 187.936 393.409 186.089 395.705 182.971 C 401.983 174.444 394.587 163.842 386.859 159.845 C 384.223 158.481 382.4 155.842 382.107 152.888 C 381.479 146.574 387.968 145.407 391.982 142.281 C 396.091 139.083 397.647 132.999 395.58 128.221 C 393.514 123.443 388.014 120.412 382.87 121.216 C 379.343 121.768 376.28 123.856 373.011 125.288 C 369.74 126.72 365.686 127.419 362.784 125.341 C 360.912 124 359.921 121.786 358.621 119.886 C 352.898 111.515 341.286 112.301 333.999 115.68 Z " fill="rgb(255,255,255)"/></svg>