<?xml version="1.0" encoding="UTF-8" standalone="no"?><!-- Generator: Gravit.io --><svg xmlns="http://www.w3.org/2000/svg" xmlns:xlink="http://www.w3.org/1999/xlink" style="isolation:isolate" viewBox="429.135 105.646 44.623 90.868" width="44.623pt" height="90.868pt"><path d=" M 455.62 105.676 C 448.31 105.353 440.733 107.674 435.49 112.779 C 430.248 117.883 427.714 125.903 429.949 132.871 C 431.57 137.924 435.363 141.937 438.056 146.509 C 441.656 152.625 443.278 159.885 442.621 166.951 C 442.117 172.368 440.319 177.769 441.182 183.14 C 442.178 189.346 447.097 194.82 453.232 196.187 C 459.368 197.555 466.299 194.535 469.228 188.973 C 471.992 183.724 471.123 177.324 469.5 171.619 C 467.877 165.913 465.551 160.263 465.597 154.331 C 465.652 147.076 469.229 140.395 471.644 133.553 C 474.058 126.711 475.147 118.499 470.795 112.694 C 466.628 107.136 459.016 105.826 455.62 105.676 Z " fill="rgb(255,255,255)"/></svg>