<?xml version="1.0" encoding="UTF-8" standalone="no"?><!-- Generator: Gravit.io --><svg xmlns="http://www.w3.org/2000/svg" xmlns:xlink="http://www.w3.org/1999/xlink" style="isolation:isolate" viewBox="22.468 219.607 129.316 51.198" width="129.316pt" height="51.198pt"><path d=" M 34.755 229.642 C 27.706 236.132 21.861 245.021 22.519 254.58 C 23.175 264.139 32.82 273.144 41.957 270.257 C 51.001 267.401 56.117 254.933 65.569 255.704 C 71.578 256.195 75.592 262.021 80.977 264.73 C 87.752 268.136 96.887 265.744 101.12 259.452 C 103.122 256.478 104.331 252.606 107.56 251.046 C 110.743 249.508 114.613 250.957 117.397 253.138 C 120.18 255.318 122.391 258.202 125.354 260.13 C 134.05 265.793 147.162 260.294 150.677 250.531 C 154.192 240.767 148.977 229.191 140.121 223.783 C 131.265 218.374 119.759 218.541 110.143 222.441 C 104.137 224.878 98.575 228.687 92.17 229.679 C 80.813 231.436 70.135 224.021 58.748 222.468 C 49.315 221.182 40.015 224.799 34.755 229.642 Z " fill="rgb(255,255,255)"/></svg>