<?xml version="1.0" encoding="UTF-8" standalone="no"?><!-- Generator: Gravit.io --><svg xmlns="http://www.w3.org/2000/svg" xmlns:xlink="http://www.w3.org/1999/xlink" style="isolation:isolate" viewBox="176.97 214.479 88.317 69.389" width="88.317pt" height="69.389pt"><path d=" M 227.341 214.545 C 216.32 214.465 205.288 216.496 195.018 220.496 C 190.938 222.085 186.866 224.062 183.928 227.307 C 180.988 230.553 179.39 235.322 180.906 239.429 C 182.68 244.227 188.355 248.666 185.947 253.179 C 184.912 255.119 182.695 256.046 180.983 257.426 C 175.814 261.591 175.858 270.092 179.854 275.392 C 183.851 280.691 190.681 283.161 197.296 283.714 C 203.91 284.266 210.538 283.185 217.164 282.78 C 232.57 281.842 249.986 283.952 261.549 273.729 C 263.549 271.96 265.37 269.609 265.284 266.941 C 265.123 261.906 258.946 259.721 253.986 258.847 C 249.595 258.074 245.204 257.301 240.814 256.527 C 236.62 255.789 231.48 254.109 230.977 249.881 C 230.401 245.033 236.309 242.397 240.942 240.86 C 245.028 239.505 248.998 237.802 252.795 235.775 C 256.082 234.022 259.688 231.119 259.076 227.444 C 258.576 224.433 255.481 222.685 252.726 221.369 C 243.768 217.09 234.406 213.981 227.341 214.545 Z " fill="rgb(255,255,255)"/></svg>