<?xml version="1.0" encoding="UTF-8" standalone="no"?><!-- Generator: Gravit.io --><svg xmlns="http://www.w3.org/2000/svg" xmlns:xlink="http://www.w3.org/1999/xlink" style="isolation:isolate" viewBox="284.092 218.543 113.972 92.939" width="113.972pt" height="92.939pt"><path d=" M 317.492 218.745 C 315.053 219.513 312.619 220.283 310.095 220.695 C 304.254 221.649 298.636 223.915 294.955 228.423 C 290.134 234.328 290.739 244.808 297.606 248.117 C 303.02 250.725 311.751 249.579 313.019 255.453 C 313.527 257.802 312.443 260.216 310.494 261.623 C 306.015 264.853 300.679 263.743 295.795 264.988 C 286.471 267.365 281.179 279.493 285.779 287.944 C 290.379 296.396 303.436 298.539 310.495 292 C 311.942 290.66 313.178 289.022 314.937 288.134 C 319.735 285.711 325.293 290.082 327.844 294.813 C 330.394 299.545 331.86 305.233 336.215 308.385 C 339.579 310.817 343.97 311.181 348.117 311.364 C 353.232 311.589 358.47 311.65 363.335 310.054 C 368.199 308.457 372.697 304.906 374.141 299.994 C 376.002 293.662 372.537 286.614 374.636 280.357 C 377.969 270.422 392.712 268.659 396.93 259.066 C 399.118 254.09 397.817 248.275 395.75 243.246 C 392.81 236.094 387.855 229.151 380.513 226.722 C 372.724 224.144 364.343 227.177 356.504 229.598 C 348.665 232.019 339.47 233.644 332.803 228.863 C 329.782 226.697 327.698 223.46 324.849 221.073 C 322.714 219.282 319.746 218.036 317.492 218.745 Z " fill="rgb(255,255,255)"/></svg>