<?xml version="1.0" encoding="UTF-8" standalone="no"?><!-- Generator: Gravit.io --><svg xmlns="http://www.w3.org/2000/svg" xmlns:xlink="http://www.w3.org/1999/xlink" style="isolation:isolate" viewBox="413.738 218.543 70.655 78.292" width="70.655pt" height="78.292pt"><path d=" M 441.652 220.006 C 439.222 220.737 436.729 221.217 434.195 221.334 C 430.778 221.492 427.383 223.29 424.94 225.785 C 421.663 229.132 419.746 233.544 417.898 237.848 C 414.602 245.528 411.42 254.829 416.091 261.757 C 419.467 266.764 425.801 268.635 431.548 270.493 C 440.651 273.435 450.461 278.188 453.506 287.258 C 454.256 289.492 454.58 291.959 456.039 293.81 C 457.264 295.365 459.168 296.28 461.115 296.638 C 469.553 298.196 476.758 290.23 480.097 282.324 C 482.838 275.835 484.304 268.81 484.39 261.767 C 484.424 258.955 484.22 256.058 483.005 253.522 C 479.954 247.156 471.844 245.229 464.788 245.037 C 457.474 244.838 449.564 245.539 443.539 241.237 C 442.85 240.746 442.238 240.126 441.911 239.346 C 440.753 236.591 443.486 234.407 445.836 233.028 L 458.475 225.611 C 459.203 225.184 459.83 224.573 460.163 223.799 C 461.634 220.383 456.93 218.518 453.542 218.543 C 449.285 218.573 445.032 218.989 441.652 220.006 Z " fill="rgb(255,255,255)"/></svg>