<?xml version="1.0" encoding="UTF-8" standalone="no"?><!-- Generator: Gravit.io --><svg xmlns="http://www.w3.org/2000/svg" xmlns:xlink="http://www.w3.org/1999/xlink" style="isolation:isolate" viewBox="924.885 410.955 210.445 156.374" width="210.445pt" height="156.374pt"><path d=" M 927.386 441.834 C 923.881 449.576 924.137 458.568 927.673 466.25 C 931.515 474.597 938.466 481.173 945.708 486.608 C 953.529 492.477 962.128 497.302 970.456 502.398 C 979.455 507.907 988.454 513.415 997.454 518.924 L 1051.45 551.975 C 1055.98 554.751 1060.52 557.533 1065.06 560.303 C 1068.77 562.569 1072.6 564.89 1076.77 566.205 C 1086.25 569.192 1095.2 565.948 1102.61 559.779 C 1115.53 549.028 1125.17 533.593 1130.5 517.765 C 1133.22 509.705 1135.36 500.871 1135.33 492.321 C 1135.32 487.366 1134.44 482.53 1131.89 478.214 C 1129.36 473.914 1125.84 470.454 1121.97 467.34 C 1114.08 460.984 1105.6 455.268 1097.41 449.296 C 1078.38 435.414 1063.49 424.031 1041.71 414.72 C 1038.14 413.196 1034.51 411.655 1030.65 411.267 C 1014.68 409.659 994.026 414.775 977.333 415.21 C 958.636 415.697 935.623 423.717 927.386 441.834 Z " fill="#FFFFFF"/></svg>