<?xml version="1.0" encoding="UTF-8" standalone="no"?><!-- Generator: Gravit.io --><svg xmlns="http://www.w3.org/2000/svg" xmlns:xlink="http://www.w3.org/1999/xlink" style="isolation:isolate" viewBox="28.04 299.621 82.876 70.33" width="82.876pt" height="70.33pt"><path d=" M 47.727 308.534 C 38.043 313.565 30.841 323.13 28.68 333.826 C 27.788 338.245 27.731 342.91 29.142 347.192 C 30.741 352.042 34.134 356.141 38.091 359.369 C 48.406 367.781 62.39 370.573 75.679 369.839 C 86.241 369.256 97.274 366.277 104.509 358.562 C 111.746 350.847 113.561 337.493 106.251 329.847 C 103.338 326.801 99.383 324.953 96.27 322.11 C 88.768 315.26 85.932 302.677 76.109 300.082 C 73.098 299.287 69.909 299.649 66.845 300.209 C 58.555 301.722 51.975 306.326 47.727 308.534 Z " fill="rgb(255,255,255)"/></svg>