<?xml version="1.0" encoding="UTF-8" standalone="no"?><!-- Generator: Gravit.io --><svg xmlns="http://www.w3.org/2000/svg" xmlns:xlink="http://www.w3.org/1999/xlink" style="isolation:isolate" viewBox="145.724 308.656 115.445 62.187" width="115.445pt" height="62.187pt"><path d=" M 149.483 338.35 C 149.863 342.178 149.172 346.019 147.657 349.555 C 145.86 353.746 144.66 358.374 147.1 361.723 C 151.412 367.634 159.28 369.59 166.547 370.435 C 173.088 371.195 180.238 371.243 185.618 367.444 C 189.313 364.835 191.662 360.75 194.906 357.599 C 199.904 352.744 207.125 350.275 214.048 351.054 C 221.318 351.872 227.87 355.998 235.111 357.038 C 243.461 358.239 252.481 354.807 257.399 347.954 C 262.317 341.101 262.533 331.027 257.401 324.332 C 252.322 317.707 243.376 315.279 235.03 315.094 C 228.406 314.949 221.758 315.955 215.475 318.056 C 211.645 319.336 207.809 321.043 203.774 320.879 C 196.443 320.579 190.909 314.382 184.345 311.102 C 172.108 304.985 155.365 310.828 149.589 323.231 C 148.621 325.313 147.926 327.569 147.972 329.865 C 148.026 332.547 149.08 335.109 149.419 337.771 C 149.443 337.962 149.464 338.157 149.483 338.35 Z " fill="rgb(255,255,255)"/></svg>