<?xml version="1.0" encoding="UTF-8" standalone="no"?><!-- Generator: Gravit.io --><svg xmlns="http://www.w3.org/2000/svg" xmlns:xlink="http://www.w3.org/1999/xlink" style="isolation:isolate" viewBox="297.624 324.1 96.438 65.264" width="96.438pt" height="65.264pt"><path d=" M 299.838 364.626 C 298.043 368.269 297.301 372.365 297.753 376.401 C 297.851 377.272 297.995 378.07 298.202 378.708 C 301.01 387.331 312.041 391.305 320.648 388.446 C 327.944 386.022 333.791 379.839 341.382 378.613 C 351.23 377.023 360.651 384.251 370.613 383.745 C 381.257 383.204 389.708 373.665 392.519 363.385 C 395.328 353.105 393.744 342.199 392.143 331.663 C 391.821 329.555 391.394 327.248 389.747 325.892 C 388.666 325.002 387.221 324.68 385.822 324.616 C 377.555 324.239 370.896 331.635 362.744 333.069 C 355.367 334.367 348.178 330.645 341.133 328.101 C 335.808 326.178 330.253 324.891 324.625 324.275 C 317.788 323.527 307.456 325.22 303.719 328.625 C 300.281 331.757 300.065 335.208 301.185 338.465 C 304.169 347.137 303.817 356.548 299.838 364.626 Z " fill="rgb(255,255,255)"/></svg>