<?xml version="1.0" encoding="UTF-8" standalone="no"?><!-- Generator: Gravit.io --><svg xmlns="http://www.w3.org/2000/svg" xmlns:xlink="http://www.w3.org/1999/xlink" style="isolation:isolate" viewBox="416.921 313.036 69.61 72.116" width="69.61pt" height="72.116pt"><path d=" M 421.46 362.265 C 419.052 366.521 416.842 371.14 416.923 376.03 C 416.967 378.693 417.859 381.551 420.07 383.036 C 421.566 384.039 423.436 384.272 425.231 384.444 C 437.87 385.661 450.661 385.306 463.215 383.389 C 469.094 382.492 475.081 381.188 480.039 377.905 C 484.273 375.101 487.756 369.94 486.117 365.133 C 483.981 358.865 474.686 357.094 473.084 350.668 C 472.519 348.396 473.085 346.013 473.65 343.741 C 475.048 338.127 476.444 332.514 477.842 326.901 C 478.801 323.046 479.622 318.52 477.076 315.47 C 474.637 312.547 469.972 312.437 466.587 314.181 C 463.202 315.925 431.431 344.649 421.46 362.265 Z " fill="rgb(255,255,255)"/></svg>