<?xml version="1.0" encoding="UTF-8" standalone="no"?><!-- Generator: Gravit.io --><svg xmlns="http://www.w3.org/2000/svg" xmlns:xlink="http://www.w3.org/1999/xlink" style="isolation:isolate" viewBox="108.621 396.714 76.92 90.166" width="76.92pt" height="90.166pt"><path d=" M 117.608 437.605 C 122.705 437.38 127.632 435.502 130.84 431.536 C 134.438 427.089 137.254 421.694 139.988 416.654 C 145.438 406.607 153.49 395.797 165.494 396.776 C 171.129 397.236 176.167 400.375 179.591 404.873 C 186.152 413.493 186.398 424.576 184.541 434.787 C 181.491 451.554 172.921 467.271 160.478 478.917 C 156.144 482.972 150.927 486.704 144.995 486.874 C 139.776 487.023 134.928 484.398 130.373 481.849 C 126.421 479.639 122.436 477.404 119.054 474.393 C 113.342 469.306 109.606 462.056 108.777 454.453 C 108.28 449.887 108.899 444.975 111.695 441.333 C 113.326 439.208 115.831 437.683 117.608 437.605 Z " fill="rgb(255,255,255)"/></svg>