<?xml version="1.0" encoding="UTF-8" standalone="no"?><!-- Generator: Gravit.io --><svg xmlns="http://www.w3.org/2000/svg" xmlns:xlink="http://www.w3.org/1999/xlink" style="isolation:isolate" viewBox="325.723 403.823 80.166 80.947" width="80.166pt" height="80.947pt"><path d=" M 347.407 409.639 C 350.975 406.125 355.717 403.998 360.722 403.844 C 368.398 403.607 376.903 405.465 385.954 406.895 C 389.479 407.452 392.73 409.29 394.84 412.168 C 399.44 418.448 395.269 424.536 391.807 429.833 C 389.061 434.035 386.57 439.449 388.974 443.856 C 390.728 447.072 394.466 448.515 397.631 450.356 C 401.706 452.727 405.388 456.521 405.842 461.214 C 406.413 467.11 401.644 472.382 396.222 474.77 C 390.8 477.158 384.73 477.456 378.908 478.549 C 370.583 480.11 362.606 483.344 354.207 484.44 C 345.809 485.538 336.378 484.047 330.742 477.724 C 326.306 472.745 325.012 465.527 326.072 458.944 C 327.134 452.361 330.295 446.302 333.89 440.685 C 336.764 436.193 340.035 431.668 340.727 426.38 C 340.819 425.678 340.863 424.971 340.881 424.262 C 341.015 418.968 343.075 413.906 346.848 410.19 L 347.407 409.639 Z " fill="rgb(255,255,255)"/></svg>