<?xml version="1.0" encoding="UTF-8" standalone="no"?><!-- Generator: Gravit.io --><svg xmlns="http://www.w3.org/2000/svg" xmlns:xlink="http://www.w3.org/1999/xlink" style="isolation:isolate" viewBox="414.141 411.244 74.61 65.333" width="74.61pt" height="65.333pt"><path d=" M 446.339 415.518 C 447.419 415.531 451.826 415.276 456.075 415.011 C 462.69 414.598 469.097 417.887 472.293 423.693 C 472.544 424.149 472.76 424.593 472.93 425.015 C 478.321 438.436 483.262 452.038 487.739 465.79 C 488.708 468.766 489.618 472.223 487.252 474.721 C 486.124 475.914 484.505 476.507 482.864 476.571 C 479.754 476.692 477.012 475.139 474.493 473.469 C 462.179 465.304 452.584 453.48 440.071 445.621 C 434.199 441.932 427.716 439.139 422.429 434.652 C 417.141 430.165 413.093 423.327 414.383 416.513 C 414.618 415.268 415.05 414.017 415.912 413.088 C 417.551 411.326 420.254 411.164 422.658 411.269 C 426.727 411.447 436.391 415.405 446.339 415.518 Z " fill="rgb(255,255,255)"/></svg>