<?xml version="1.0" encoding="UTF-8" standalone="no"?><!-- Generator: Gravit.io --><svg xmlns="http://www.w3.org/2000/svg" xmlns:xlink="http://www.w3.org/1999/xlink" style="isolation:isolate" viewBox="22.468 29.157 66.025 54.603" width="66.025pt" height="54.603pt"><path d=" M 51.435 31.331 C 42.225 32.312 33.735 36.845 27.6 43.784 C 23.119 48.85 21.947 53.502 22.663 64.329 C 22.943 68.556 24.147 72.852 26.875 76.093 C 31.139 81.16 38.214 82.743 44.805 83.399 C 50.096 83.925 55.524 84.041 60.645 82.606 C 65.767 81.17 70.589 78.008 73.056 73.297 C 76.944 65.869 74.596 55.788 80.103 49.469 C 81.814 47.505 84.116 46.15 85.939 44.291 C 87.762 42.431 89.11 39.693 88.205 37.252 C 87.614 35.661 86.183 34.518 84.822 33.561 C 79.216 29.619 72.203 28.283 65.5 29.717 C 61.644 30.541 57.856 31.183 53.91 31.183 C 53.182 31.183 52.344 31.235 51.435 31.331 Z " fill="rgb(255,255,255)"/></svg>