<?xml version="1.0" encoding="UTF-8" standalone="no"?><!-- Generator: Gravit.io --><svg xmlns="http://www.w3.org/2000/svg" xmlns:xlink="http://www.w3.org/1999/xlink" style="isolation:isolate" viewBox="451.77 659.34 264.258 290.095" width="264.258pt" height="290.095pt"><path d=" M 709.239 741.921 C 709.235 740.66 709.251 739.398 709.289 738.135 C 709.654 725.878 712.047 713.669 711.414 701.44 C 710.397 681.843 699.847 669.809 683.816 663.354 C 666.798 656.501 647.734 659.372 630.183 664.885 C 622.897 667.173 615.584 669.975 609.467 674.973 C 600.508 682.291 594.983 693.538 588.061 703.21 C 569.394 729.295 535.97 725.292 510.519 737.203 C 495.808 744.089 483.301 755.904 472.554 769.065 C 465.707 777.451 459.379 786.629 455.773 797.194 C 452.319 807.311 451.506 818.294 451.838 829.056 C 452.43 848.29 456.702 867.578 465.863 883.789 C 479.381 907.711 500.333 913.317 520.817 926.32 C 542.634 940.171 567.655 947.569 592.797 949.129 C 620.658 950.856 649.985 945.508 672.811 927.3 C 682.375 919.671 696.21 906.481 699.916 894.106 C 708.355 865.914 716.898 836.975 715.957 807.411 C 715.256 785.413 709.297 763.887 709.239 741.921 Z " fill="#FFFFFF"/></svg>