<?xml version="1.0" encoding="UTF-8" standalone="no"?><!-- Generator: Gravit.io --><svg xmlns="http://www.w3.org/2000/svg" xmlns:xlink="http://www.w3.org/1999/xlink" style="isolation:isolate" viewBox="37.312 1134.454 575.096 329.989" width="575.096pt" height="329.989pt"><path d=" M 56.289 1263.56 C 28.13 1280.32 28.633 1368.5 76.028 1419.51 C 118.231 1464.93 193.812 1476.79 243.813 1451.09 C 303.02 1420.66 297.178 1352.58 350.407 1340.55 C 385.121 1332.7 394.759 1360.04 449.104 1364.24 C 459.894 1365.07 549.178 1371.95 591.228 1308.96 C 623.935 1259.97 617.819 1184.07 579.385 1151.05 C 540.178 1117.37 499.209 1155.7 368.172 1151.05 C 258.93 1147.18 223.902 1118.29 188.543 1147.1 C 145.222 1182.41 161.513 1255.34 119.455 1269.49 C 92.653 1278.5 74.391 1252.79 56.289 1263.56 Z " fill="rgb(255,255,255)"/></svg>