<?xml version="1.0" encoding="UTF-8" standalone="no"?><!-- Generator: Gravit.io --><svg xmlns="http://www.w3.org/2000/svg" xmlns:xlink="http://www.w3.org/1999/xlink" style="isolation:isolate" viewBox="729.533 1033.673 525.716 444.917" width="525.716pt" height="444.917pt"><path d=" M 744.373 1114.87 C 712.649 1149.67 740.274 1224.04 749.369 1248.52 C 756.39 1267.42 774.138 1313.4 819.316 1347.19 C 879.218 1392 912.819 1359.63 980.443 1403.4 C 1034.04 1438.1 1039.4 1475.56 1081.62 1478.42 C 1109.69 1480.32 1143.13 1466.18 1152.81 1442.12 C 1169.85 1399.8 1107.52 1341.28 1097.85 1332.21 C 1053.42 1290.49 1020.34 1292.73 1014.17 1264.76 C 1007.64 1235.2 1036.3 1195.15 1070.38 1183.57 C 1108.36 1170.66 1127.66 1201.75 1174.05 1193.56 C 1212.52 1186.77 1254.24 1155.67 1255.23 1124.86 C 1256.61 1082 1179.34 1033.02 1107.85 1033.68 C 1033.89 1034.37 1024.87 1087.63 934.229 1107.38 C 833.929 1129.23 777.277 1078.78 744.373 1114.87 Z " fill="rgb(255,255,255)"/></svg>