<?xml version="1.0" encoding="UTF-8" standalone="no"?><!-- Generator: Gravit.io --><svg xmlns="http://www.w3.org/2000/svg" xmlns:xlink="http://www.w3.org/1999/xlink" style="isolation:isolate" viewBox="1854.794 86.59 615.04 282.035" width="615.04pt" height="282.035pt"><path d=" M 1855 271.612 C 1855.97 290.121 1858.5 338.417 1892.12 357.051 C 1923.57 374.484 1963.29 355.461 1968.29 352.981 C 2010.25 332.174 2012.23 293.4 2043.43 291.481 C 2062.72 290.295 2079.89 304.01 2086.3 309.135 C 2104.53 323.69 2102.19 334.768 2115.84 347.869 C 2139.25 370.354 2186.2 376.212 2209.82 357.267 C 2230.52 340.663 2218.72 316.706 2240.14 296.525 C 2244.19 292.712 2259.5 279.539 2313.28 281.394 C 2396.1 284.25 2425.98 317.781 2451.39 300.012 C 2473.34 284.659 2471.41 245.391 2467.12 225.911 C 2456.5 177.726 2410.34 154.648 2396.5 147.731 C 2345.73 122.352 2315.18 139.266 2243.12 136.714 C 2107.72 131.919 2081.85 67.446 1992.99 92.249 C 1981.5 95.457 1929.77 111.096 1892.12 160.341 C 1883.08 172.153 1851.98 214.086 1855 271.612 Z " fill="rgb(255,255,255)"/></svg>