<?xml version="1.0" encoding="UTF-8" standalone="no"?><!-- Generator: Gravit.io --><svg xmlns="http://www.w3.org/2000/svg" xmlns:xlink="http://www.w3.org/1999/xlink" style="isolation:isolate" viewBox="2440.905 1007.827 421.675 276.553" width="421.675pt" height="276.553pt"><path d=" M 2637.03 1043.88 C 2601.25 1064.45 2586.99 1084.44 2552.97 1085.01 C 2524.37 1085.48 2512.8 1071.71 2490.05 1078.8 C 2465.22 1086.55 2446.21 1113.2 2441.9 1137.58 C 2432.39 1191.54 2493 1245.02 2539.71 1267.23 C 2601.87 1296.8 2661.01 1281.27 2699.32 1271.21 C 2711.76 1267.94 2803.26 1243.91 2806.06 1202.91 C 2806.93 1190.09 2799.23 1174.24 2791.97 1173.59 C 2785.2 1172.99 2782.06 1185.91 2767.93 1190.72 C 2760.9 1193.11 2754.81 1192.25 2749.54 1191.45 C 2731.76 1188.75 2690.36 1173.62 2687.68 1146.52 C 2684.92 1118.5 2724.51 1087.3 2757.32 1088.69 C 2791.95 1090.16 2805.6 1127.38 2832.97 1120.85 C 2848.08 1117.25 2859.6 1102.18 2862.05 1088.43 C 2867.07 1060.33 2835.43 1031.05 2808.95 1018.48 C 2740.36 985.944 2647.71 1037.74 2637.03 1043.88 Z " fill="rgb(255,255,255)"/></svg>