<?xml version="1.0" encoding="UTF-8" standalone="no"?><!-- Generator: Gravit.io --><svg xmlns="http://www.w3.org/2000/svg" xmlns:xlink="http://www.w3.org/1999/xlink" style="isolation:isolate" viewBox="2449.425 519.565 423.847 349.84" width="423.847pt" height="349.84pt"><path d=" M 2460.06 612.037 C 2440.12 645.277 2452.75 682.881 2461.43 708.714 C 2477.35 756.126 2521.82 828.281 2588.06 836.708 C 2638.86 843.17 2650.87 805.592 2701.07 816.283 C 2750.87 826.886 2760.44 868.396 2808.64 869.387 C 2829.36 869.813 2862.44 862.859 2871.28 842.154 C 2885.29 809.331 2821.07 782.534 2814.09 715.522 C 2808.19 658.839 2850.24 640.527 2837.24 594.336 C 2824.91 550.552 2771.67 512.092 2732.39 520.808 C 2682.67 531.84 2682.06 612.526 2637.08 617.484 C 2601.06 621.453 2587.98 571.216 2537.68 569.827 C 2507.63 568.996 2475.74 585.915 2460.06 612.037 Z " fill="rgb(255,255,255)"/></svg>