<?xml version="1.0" encoding="UTF-8" standalone="no"?><!-- Generator: Gravit.io --><svg xmlns="http://www.w3.org/2000/svg" xmlns:xlink="http://www.w3.org/1999/xlink" style="isolation:isolate" viewBox="589.917 411.03 252.223 156.225" width="252.223pt" height="156.225pt"><path d=" M 595.255 491.646 C 602.53 479.241 615.053 471 627.139 463.205 C 641.516 453.934 655.893 444.661 670.27 435.39 C 685.725 425.422 701.722 415.235 719.837 412.059 C 747.878 407.142 776.865 420.358 796.72 440.761 C 816.576 461.164 828.564 487.913 837.679 514.884 C 841.318 525.651 844.504 537.75 839.723 548.062 C 835.076 558.086 823.993 563.601 813.156 565.755 C 788.372 570.68 763.068 561.979 737.815 561.072 C 700.905 559.749 661.218 574.619 628.569 557.352 C 605.033 544.903 578.319 520.526 595.255 491.646 Z " fill="#FFFFFF"/></svg>