<?xml version="1.0" encoding="UTF-8" standalone="no"?><!-- Generator: Gravit.io --><svg xmlns="http://www.w3.org/2000/svg" xmlns:xlink="http://www.w3.org/1999/xlink" style="isolation:isolate" viewBox="680.376 56.274 227.93 228.72" width="227.93pt" height="228.72pt"><path d=" M 796.161 218.02 C 800.189 196.192 800.868 173.329 810.353 153.187 C 813.692 146.096 818.607 139.053 826.074 136.399 C 837.121 132.475 848.959 139.442 860.69 139.535 C 872.356 139.627 883.016 132.862 891.436 124.884 C 902.013 114.863 910.703 100.745 907.708 86.638 C 905.586 76.647 897.783 68.491 888.586 63.79 C 879.39 59.088 868.897 57.431 858.547 56.702 C 838.787 55.31 818.495 57.151 800.151 64.595 C 787.763 69.62 776.497 77.088 764.033 81.925 C 749.71 87.482 734.009 89.49 720.389 96.563 C 701.578 106.333 688.369 125.889 686.511 146.718 C 685.564 157.343 687.378 168.006 687.29 178.669 C 687.193 190.28 684.843 201.752 682.719 213.182 C 680.714 223.966 678.927 235.242 682.13 245.724 C 688.172 265.491 718.42 286.493 739.463 284.909 C 745.52 284.453 751.123 281.684 756.515 278.918 C 780.101 266.821 791.593 242.772 796.161 218.02 Z " fill="#FFFFFF"/></svg>