<?xml version="1.0" encoding="UTF-8" standalone="no"?><!-- Generator: Gravit.io --><svg xmlns="http://www.w3.org/2000/svg" xmlns:xlink="http://www.w3.org/1999/xlink" style="isolation:isolate" viewBox="880.631 886.396 262.776 225.984" width="262.776pt" height="225.984pt"><path d=" M 946.552 1094.58 C 936.158 1088.16 926.454 1080.51 916.884 1072.87 C 904.177 1062.72 891.02 1051.78 885.13 1036.62 C 873.214 1005.95 886.364 950.001 908.189 926.11 C 922.367 910.591 951.835 899.835 971.568 893.323 C 994.686 885.694 1019.89 884.22 1043.66 889.633 C 1081.53 898.259 1115.08 924.228 1132.93 958.724 C 1139.16 970.772 1143.6 984.06 1143.4 997.624 C 1143.13 1015.31 1135.04 1032.02 1124.96 1046.56 C 1107.28 1072.07 1082.55 1093.07 1053.53 1104.06 C 1024.51 1115.06 991.181 1115.55 962.734 1103.15 C 957.121 1100.7 951.75 1097.79 946.552 1094.58 Z " fill="#FFFFFF"/></svg>