<?xml version="1.0" encoding="UTF-8" standalone="no"?><!-- Generator: Gravit.io --><svg xmlns="http://www.w3.org/2000/svg" xmlns:xlink="http://www.w3.org/1999/xlink" style="isolation:isolate" viewBox="0 0 1200 600" width="1200pt" height="600pt"><defs><clipPath id="_clipPath_m5mDkugQ6q4jUYAUZDRzaVpwkOEK6V0F"><rect width="1200" height="600"/></clipPath></defs><g clip-path="url(#_clipPath_m5mDkugQ6q4jUYAUZDRzaVpwkOEK6V0F)"><g><path d=" M 0.144 300.104 L 0.144 0.14 L 600.072 0.14 L 1200 0.14 L 1200 300.104 L 1200 600.068 L 600.072 600.068 L 0.144 600.068 L 0.144 300.104 Z  M 1157.005 298.604 L 1157.005 39.135 L 598.572 39.135 L 40.139 39.135 L 40.139 298.604 L 40.139 558.073 L 598.572 558.073 L 1157.005 558.073 L 1157.005 298.604 Z " fill="rgb(80,93,119)"/><path d=" M 0.144 300.104 L 0.144 0.14 L 600.072 0.14 L 1200 0.14 L 1200 300.104 L 1200 600.068 L 600.072 600.068 L 0.144 600.068 L 0.144 300.104 Z  M 20.612 594.818 C 20.892 593.588 21.242 590.319 21.382 587.569 L 21.642 582.57 L 33.14 582.57 L 44.639 582.57 L 45.139 589.569 L 45.639 596.568 L 58.137 596.568 L 70.636 596.568 L 70.946 590.609 C 71.116 587.329 71.736 584.07 72.316 583.36 C 73.056 582.46 76.525 582.07 83.724 582.07 C 92.563 582.07 94.193 582.33 94.963 583.82 C 95.463 584.79 95.653 586.159 95.393 586.889 C 95.143 587.609 95.223 590.199 95.593 592.639 L 96.263 597.068 L 108.681 597.068 C 122.77 597.068 121.84 597.718 122.37 587.569 L 122.63 582.57 L 134.128 582.57 L 145.627 582.57 L 146.127 589.569 L 146.627 596.568 L 159.125 596.568 L 171.624 596.568 L 172.124 589.569 L 172.624 582.57 L 184.122 582.57 L 195.621 582.57 L 196.121 589.569 L 196.621 596.568 L 209.349 596.848 C 223.817 597.168 222.828 597.828 223.357 587.569 L 223.617 582.57 L 233.976 582.29 C 240.745 582.1 244.805 582.4 245.725 583.16 C 246.655 583.93 247.115 586.459 247.115 590.729 L 247.115 597.128 L 259.863 596.848 L 272.612 596.568 L 273.111 589.569 L 273.611 582.57 L 285.11 582.57 L 296.609 582.57 L 297.109 589.569 L 297.609 596.568 L 310.357 596.848 L 323.105 597.128 L 323.105 590.729 C 323.105 586.459 323.575 583.93 324.505 583.16 C 325.415 582.4 329.475 582.1 336.254 582.29 L 346.603 582.57 L 346.863 587.569 C 347.393 597.718 346.463 597.068 360.601 597.068 C 374.739 597.068 373.809 597.718 374.339 587.569 L 374.599 582.57 L 384.958 582.29 C 391.727 582.1 395.787 582.4 396.707 583.16 C 397.636 583.93 398.096 586.459 398.096 590.729 L 398.096 597.128 L 410.845 596.848 L 423.593 596.568 L 424.093 589.569 L 424.593 582.57 L 436.092 582.57 L 447.59 582.57 L 447.85 587.569 C 448.38 597.718 447.45 597.068 461.589 597.068 C 475.727 597.068 474.797 597.718 475.327 587.569 L 475.587 582.57 L 485.946 582.29 C 492.525 582.11 496.785 582.41 497.644 583.12 C 498.444 583.78 499.114 586.779 499.294 590.409 L 499.584 596.568 L 512.083 596.568 L 524.581 596.568 L 525.081 589.569 L 525.581 582.57 L 537.08 582.57 L 548.578 582.57 L 549.078 589.569 L 549.578 596.568 L 562.077 596.568 L 574.575 596.568 L 574.885 590.609 C 575.055 587.329 575.675 584.07 576.255 583.36 C 577.685 581.63 597.162 581.56 598.872 583.27 C 599.552 583.95 600.072 587.209 600.072 590.799 L 600.072 597.128 L 612.821 596.848 L 625.569 596.568 L 626.069 589.569 L 626.569 582.57 L 638.068 582.57 L 649.566 582.57 L 650.066 589.569 L 650.566 596.568 L 663.315 596.848 L 676.063 597.128 L 676.063 590.729 C 676.063 586.459 676.533 583.93 677.463 583.16 C 678.373 582.4 682.432 582.1 689.211 582.29 L 699.56 582.57 L 699.82 587.569 C 700.36 597.828 699.37 597.168 713.838 596.848 L 726.56 596.568 L 727.06 589.569 L 727.56 582.57 L 739.058 582.57 L 750.557 582.57 L 751.057 589.569 L 751.557 596.568 L 764.055 596.568 L 776.554 596.568 L 776.85 590.409 C 777.024 586.779 777.701 583.78 778.496 583.12 C 779.355 582.41 783.612 582.11 790.198 582.29 L 800.551 582.57 L 801.051 589.569 L 801.551 596.568 L 814.274 596.848 C 828.741 597.168 827.751 597.828 828.287 587.569 L 828.548 582.57 L 838.901 582.29 C 845.487 582.11 849.744 582.41 850.604 583.12 C 851.398 583.78 852.076 586.779 852.25 590.409 L 852.545 596.568 L 865.043 596.568 L 877.542 596.568 L 878.042 589.569 L 878.542 582.57 L 890.04 582.57 L 901.539 582.57 L 902.039 589.569 L 902.539 596.568 L 915.284 596.848 L 928.033 597.128 L 928.033 590.729 C 928.033 586.459 928.503 583.93 929.433 583.16 C 930.343 582.4 934.402 582.1 941.181 582.29 L 951.53 582.57 L 951.79 587.569 C 952.33 597.828 951.34 597.168 965.808 596.848 L 978.527 596.568 L 979.027 589.569 L 979.527 582.57 L 989.885 582.29 C 996.465 582.11 1000.724 582.41 1001.584 583.12 C 1002.384 583.78 1003.054 586.779 1003.234 590.409 L 1003.524 596.568 L 1016.022 596.568 L 1028.521 596.568 L 1029.021 589.569 L 1029.521 582.57 L 1041.019 582.57 L 1052.518 582.57 L 1052.778 587.569 C 1053.308 597.718 1052.378 597.068 1066.516 597.068 C 1080.655 597.068 1079.725 597.718 1080.255 587.569 L 1080.515 582.57 L 1092.013 582.57 L 1103.512 582.57 L 1104.012 589.569 L 1104.512 596.568 L 1117.01 596.568 L 1129.509 596.568 L 1130.009 589.569 L 1130.509 582.57 L 1142.007 582.57 L 1153.506 582.57 L 1153.766 587.569 C 1154.306 597.828 1153.316 597.168 1167.784 596.848 L 1180.503 596.568 L 1181.002 589.569 L 1181.502 582.57 L 1189.002 582.07 L 1196.501 581.57 L 1196.501 569.571 L 1196.501 557.573 L 1189.002 557.073 L 1181.502 556.573 L 1181.502 545.074 L 1181.502 533.576 L 1189.002 533.076 L 1196.501 532.576 L 1196.781 520.377 L 1197.061 508.169 L 1189.281 507.879 L 1181.502 507.579 L 1181.222 496.33 L 1180.942 485.082 L 1187.722 485.072 C 1191.451 485.062 1195.081 484.692 1195.791 484.242 C 1196.741 483.632 1197.001 480.372 1196.791 471.503 L 1196.501 459.585 L 1189.002 459.085 L 1181.502 458.585 L 1181.502 447.086 L 1181.502 435.587 L 1189.002 435.088 L 1196.501 434.588 L 1196.781 422.339 L 1197.061 410.091 L 1190.281 410.081 C 1186.552 410.071 1182.922 409.701 1182.222 409.251 C 1181.272 408.651 1181.012 405.581 1181.222 397.512 L 1181.502 386.593 L 1189.002 386.093 L 1196.501 385.594 L 1196.501 373.595 L 1196.501 361.596 L 1189.002 361.096 L 1181.502 360.597 L 1181.222 349.348 L 1180.942 338.099 L 1186.722 338.089 C 1197.56 338.069 1197.101 338.669 1196.781 324.731 L 1196.501 312.602 L 1189.002 312.102 L 1181.502 311.602 L 1181.502 300.104 L 1181.502 288.605 L 1189.002 288.105 L 1196.501 287.605 L 1196.781 275.357 L 1197.061 263.108 L 1190.281 263.098 C 1186.552 263.088 1182.922 262.718 1182.222 262.268 C 1181.272 261.668 1181.012 258.599 1181.222 250.53 L 1181.502 239.611 L 1189.002 239.111 L 1196.501 238.611 L 1196.501 226.613 L 1196.501 214.614 L 1189.002 214.114 L 1181.502 213.614 L 1181.222 202.705 C 1181.012 194.636 1181.272 191.567 1182.222 190.967 C 1182.922 190.517 1186.552 190.147 1190.281 190.137 L 1197.061 190.117 L 1196.781 177.868 L 1196.501 165.62 L 1189.002 165.12 L 1181.502 164.62 L 1181.502 153.121 L 1181.502 141.623 L 1189.002 141.123 L 1196.501 140.623 L 1196.781 128.374 L 1197.061 116.126 L 1190.281 116.116 C 1186.552 116.106 1182.922 115.736 1182.222 115.286 C 1181.272 114.686 1181.012 111.616 1181.222 103.547 L 1181.502 92.629 L 1189.281 92.339 L 1197.061 92.049 L 1196.781 79.84 L 1196.501 67.632 L 1189.002 67.132 L 1181.502 66.632 L 1181.222 55.723 C 1181.012 47.654 1181.272 44.585 1182.222 43.985 C 1182.922 43.535 1186.552 43.165 1190.281 43.155 L 1197.061 43.135 L 1196.781 30.886 L 1196.501 18.638 L 1189.002 18.138 L 1181.502 17.638 L 1181.002 10.639 L 1180.503 3.639 L 1167.784 3.359 C 1153.316 3.05 1154.306 2.39 1153.766 12.638 L 1153.506 17.638 L 1142.007 17.638 L 1130.509 17.638 L 1130.009 10.639 L 1129.509 3.639 L 1117.01 3.639 L 1104.512 3.639 L 1104.012 10.639 L 1103.512 17.638 L 1092.013 17.638 L 1080.515 17.638 L 1080.255 12.638 C 1079.725 2.5 1080.655 3.139 1066.516 3.139 C 1052.378 3.139 1053.308 2.5 1052.778 12.638 L 1052.518 17.638 L 1041.019 17.638 L 1029.521 17.638 L 1029.021 10.639 L 1028.521 3.639 L 1016.022 3.639 L 1003.524 3.639 L 1003.024 10.639 L 1002.524 17.638 L 991.025 17.638 L 979.527 17.638 L 979.027 10.639 L 978.527 3.639 L 965.808 3.359 C 951.34 3.05 952.33 2.39 951.79 12.638 L 951.53 17.638 L 940.611 17.928 C 932.552 18.138 929.483 17.878 928.883 16.928 C 928.433 16.218 928.063 12.818 928.053 9.359 L 928.033 3.08 L 915.284 3.359 L 902.539 3.639 L 902.039 10.639 L 901.539 17.638 L 890.04 17.638 L 878.542 17.638 L 878.042 10.639 L 877.542 3.639 L 865.043 3.639 L 852.545 3.639 L 852.25 9.809 C 852.076 13.438 851.398 16.438 850.604 17.098 C 849.744 17.808 845.487 18.108 838.901 17.928 L 828.548 17.638 L 828.287 12.638 C 827.751 2.39 828.741 3.05 814.274 3.359 L 801.551 3.639 L 801.051 10.639 L 800.551 17.638 L 789.053 17.638 L 777.554 17.638 L 777.054 10.639 L 776.554 3.639 L 764.056 3.639 L 751.557 3.639 L 751.057 10.639 L 750.557 17.638 L 739.059 17.638 L 727.56 17.638 L 727.06 10.639 L 726.56 3.639 L 713.839 3.359 C 699.371 3.05 700.36 2.39 699.821 12.638 L 699.561 17.638 L 689.212 17.928 C 682.433 18.118 678.373 17.818 677.463 17.058 C 676.533 16.288 676.063 13.758 676.063 9.489 L 676.063 3.08 L 663.315 3.359 L 650.566 3.639 L 650.067 10.639 L 649.567 17.638 L 638.068 17.638 L 626.569 17.638 L 626.069 10.639 L 625.569 3.639 L 612.821 3.359 L 600.073 3.08 L 600.073 9.409 C 600.073 12.998 599.553 16.258 598.873 16.938 C 597.163 18.658 577.685 18.578 576.255 16.858 C 575.675 16.148 575.056 12.888 574.886 9.609 L 574.576 3.639 L 562.077 3.639 L 549.579 3.639 L 549.079 10.639 L 548.579 17.638 L 537.08 17.638 L 525.582 17.638 L 525.082 10.639 L 524.582 3.639 L 512.083 3.639 L 499.585 3.639 L 499.295 9.809 C 499.115 13.438 498.445 16.438 497.645 17.098 C 496.785 17.808 492.525 18.108 485.946 17.928 L 475.588 17.638 L 475.328 12.638 C 474.798 2.5 475.727 3.139 461.589 3.139 C 447.451 3.139 448.381 2.5 447.851 12.638 L 447.591 17.638 L 436.092 17.638 L 424.594 17.638 L 424.094 10.639 L 423.594 3.639 L 410.845 3.359 L 398.097 3.08 L 398.097 9.489 C 398.097 13.758 397.637 16.288 396.707 17.058 C 395.787 17.818 391.728 18.118 384.958 17.928 L 374.6 17.638 L 374.34 12.638 C 373.81 2.5 374.74 3.139 360.601 3.139 C 346.463 3.139 347.393 2.5 346.863 12.638 L 346.603 17.638 L 336.254 17.928 C 329.475 18.118 325.416 17.818 324.506 17.058 C 323.576 16.288 323.106 13.758 323.106 9.489 L 323.106 3.08 L 310.357 3.359 L 297.609 3.639 L 297.109 10.639 L 296.609 17.638 L 285.11 17.638 L 273.612 17.638 L 273.112 10.639 L 272.612 3.639 L 259.863 3.359 L 247.115 3.08 L 247.115 9.489 C 247.115 13.758 246.655 16.288 245.725 17.058 C 244.805 17.818 240.746 18.118 233.977 17.928 L 223.618 17.638 L 223.358 12.638 C 222.828 2.39 223.818 3.05 209.35 3.359 L 196.621 3.639 L 196.121 10.639 L 195.621 17.638 L 184.123 17.638 L 172.624 17.638 L 172.124 10.639 L 171.624 3.639 L 159.126 3.639 L 146.627 3.639 L 146.127 10.639 L 145.627 17.638 L 134.129 17.638 L 122.63 17.638 L 122.37 12.638 C 121.84 2.5 122.77 3.139 108.682 3.139 L 96.263 3.139 L 95.593 7.579 C 95.223 10.019 95.143 12.608 95.393 13.328 C 95.653 14.048 95.463 15.428 94.963 16.388 C 94.193 17.888 92.564 18.138 83.725 18.138 C 76.526 18.138 73.056 17.748 72.316 16.858 C 71.736 16.148 71.116 12.888 70.946 9.609 L 70.636 3.639 L 58.138 3.639 L 45.639 3.639 L 45.349 10.919 L 45.049 18.208 L 32.851 17.918 L 20.642 17.638 L 20.352 10.349 L 20.052 3.06 L 11.853 3.349 L 3.644 3.639 L 3.644 11.139 L 3.644 18.638 L 11.643 19.138 L 19.642 19.638 L 19.642 30.636 L 19.642 41.635 L 13.643 41.895 C 2.304 42.385 3.044 41.405 3.364 55.413 L 3.644 67.632 L 11.643 68.132 L 19.642 68.632 L 19.642 79.63 L 19.642 90.629 L 11.643 91.129 L 3.644 91.629 L 3.364 103.857 C 3.044 117.866 2.304 116.886 13.643 117.376 L 19.642 117.626 L 19.642 128.624 L 19.642 139.623 L 11.643 140.123 L 3.644 140.623 L 3.644 153.121 L 3.644 165.62 L 11.643 166.12 L 19.642 166.62 L 19.642 177.619 L 19.642 188.617 L 13.643 188.877 C 2.304 189.367 3.044 188.387 3.364 202.396 L 3.644 214.614 L 11.643 215.114 L 19.642 215.614 L 19.642 226.613 L 19.642 237.611 L 11.643 238.111 L 3.644 238.611 L 3.364 250.84 C 3.044 264.848 2.304 263.868 13.643 264.358 L 19.642 264.608 L 19.642 275.607 L 19.642 286.605 L 11.643 287.105 L 3.644 287.605 L 3.644 300.104 L 3.644 312.602 L 11.643 313.102 L 19.642 313.602 L 19.642 324.601 L 19.642 335.6 L 13.643 335.859 C 2.304 336.349 3.044 335.37 3.364 349.378 L 3.644 361.596 L 11.643 362.096 L 19.642 362.596 L 19.642 373.595 L 19.642 384.594 L 11.643 385.094 L 3.644 385.594 L 3.644 398.092 L 3.644 410.59 L 11.643 411.09 L 19.642 411.59 L 19.642 422.589 L 19.642 433.588 L 13.643 433.848 C 2.304 434.338 3.044 433.358 3.364 447.366 L 3.644 459.585 L 11.643 460.085 L 19.642 460.584 L 19.642 471.583 L 19.642 482.582 L 13.643 482.842 C 2.304 483.332 3.044 482.352 3.364 496.36 L 3.644 508.579 L 11.643 509.079 L 19.642 509.579 L 19.642 520.577 L 19.642 531.576 L 11.643 532.076 L 3.644 532.576 L 3.644 545.074 L 3.644 557.573 L 11.643 558.073 L 19.642 558.573 L 19.642 569.571 L 19.642 580.57 L 13.643 580.83 C 2.954 581.29 3.144 581.14 3.144 588.929 C 3.144 592.669 3.444 596.038 3.814 596.408 C 4.184 596.768 7.994 597.068 12.293 597.068 C 19.582 597.068 20.142 596.918 20.612 594.818 L 20.612 594.818 Z  M 46.139 572.681 C 46.139 563.422 45.899 563.072 39.47 563.072 C 36.51 563.072 35.8 562.622 34.85 560.123 C 33.81 557.343 33.36 557.143 27.691 556.873 L 21.642 556.573 L 21.642 545.074 L 21.642 533.576 L 27.891 533.286 L 34.14 532.986 L 34.14 520.577 L 34.14 508.179 L 27.891 507.879 L 21.642 507.579 L 21.362 496.33 L 21.082 485.082 L 26.361 485.072 C 29.271 485.062 32.22 484.692 32.93 484.242 C 33.88 483.632 34.14 480.372 33.93 471.503 L 33.64 459.585 L 27.361 459.295 L 21.082 458.995 L 21.362 447.296 L 21.642 435.587 L 27.891 435.298 L 34.14 434.998 L 34.14 422.549 L 34.14 410.091 L 28.891 410.081 C 26.011 410.071 23.062 409.701 22.362 409.251 C 21.412 408.651 21.152 405.581 21.362 397.512 L 21.642 386.593 L 27.891 386.303 L 34.14 386.003 L 34.14 373.595 L 34.14 361.196 L 27.891 360.896 L 21.642 360.597 L 21.362 349.348 L 21.082 338.099 L 26.031 338.099 C 34.37 338.099 34.14 338.489 34.14 324.551 L 34.14 312.202 L 27.891 311.902 L 21.642 311.602 L 21.642 300.104 L 21.642 288.605 L 27.891 288.315 L 34.14 288.015 L 34.14 275.567 L 34.14 263.108 L 28.891 263.098 C 26.011 263.088 23.062 262.718 22.362 262.268 C 21.412 261.668 21.152 258.599 21.362 250.53 L 21.642 239.611 L 27.891 239.321 L 34.14 239.021 L 34.14 226.613 L 34.14 214.214 L 27.891 213.914 L 21.642 213.614 L 21.362 202.705 C 21.152 194.636 21.412 191.567 22.362 190.967 C 23.062 190.517 26.011 190.147 28.891 190.137 L 34.14 190.117 L 34.14 177.669 L 34.14 165.22 L 27.891 164.92 L 21.642 164.62 L 21.642 153.121 L 21.642 141.623 L 27.891 141.333 L 34.14 141.033 L 34.14 128.584 L 34.14 116.126 L 28.891 116.116 C 26.011 116.106 23.062 115.736 22.362 115.286 C 21.412 114.686 21.152 111.616 21.362 103.547 L 21.642 92.629 L 27.891 92.339 L 34.14 92.039 L 34.14 79.63 L 34.14 67.232 L 27.891 66.932 L 21.642 66.632 L 21.362 55.723 C 21.042 43.465 21.252 43.035 27.641 43.215 C 33.91 43.385 34.14 43.295 34.14 40.575 C 34.14 36.046 35.85 34.146 39.93 34.126 C 41.969 34.116 44.179 33.766 44.839 33.346 C 45.509 32.926 46.169 29.726 46.339 26.117 L 46.639 19.638 L 58.387 19.358 L 70.136 19.078 L 70.136 25.407 C 70.136 28.996 70.656 32.256 71.336 32.936 C 72.986 34.586 94.283 34.586 95.933 32.936 C 96.613 32.256 97.133 28.996 97.133 25.407 L 97.133 19.078 L 108.881 19.358 L 120.63 19.638 L 121.13 26.637 L 121.63 33.636 L 132.988 33.926 C 140.297 34.106 144.827 33.806 145.687 33.086 C 146.487 32.436 147.157 29.426 147.337 25.807 L 147.627 19.638 L 159.125 19.638 L 170.624 19.638 L 170.924 26.387 C 171.274 34.486 171.004 34.356 186.122 33.936 L 196.621 33.636 L 197.121 26.637 L 197.621 19.638 L 209.369 19.358 L 221.118 19.078 L 221.118 25.407 C 221.118 28.996 221.638 32.256 222.318 32.936 C 223.967 34.586 245.265 34.586 246.915 32.936 C 247.595 32.256 248.114 28.996 248.114 25.407 L 248.114 19.078 L 259.863 19.358 L 271.612 19.638 L 272.112 26.637 L 272.612 33.636 L 283.11 33.936 C 298.238 34.356 297.958 34.486 298.318 26.387 L 298.608 19.638 L 310.357 19.358 L 322.106 19.078 L 322.106 25.407 C 322.106 28.996 322.626 32.256 323.305 32.936 C 324.925 34.556 346.703 34.606 347.692 32.996 C 348.082 32.376 348.472 30.456 348.562 28.746 C 348.652 27.037 348.812 24.177 348.922 22.387 L 349.102 19.138 L 360.601 19.138 L 372.1 19.138 L 372.1 24.707 C 372.1 33.956 372.36 34.136 385.438 34.136 C 392.867 34.136 397.107 33.736 397.896 32.936 C 398.576 32.256 399.096 28.996 399.096 25.407 L 399.096 19.078 L 410.845 19.358 L 422.593 19.638 L 422.893 26.387 C 423.243 34.486 422.973 34.356 438.092 33.936 L 448.59 33.636 L 449.09 26.637 L 449.59 19.638 L 461.289 19.358 L 472.987 19.078 L 473.537 22.357 C 473.837 24.167 474.197 27.437 474.337 29.636 L 474.587 33.636 L 485.946 33.926 C 493.465 34.116 497.774 33.816 498.694 33.056 C 499.624 32.286 500.084 29.746 500.084 25.487 L 500.084 19.078 L 511.833 19.358 L 523.581 19.638 L 523.891 25.607 C 524.061 28.886 524.681 32.146 525.261 32.856 C 526.451 34.286 546.649 34.706 548.778 33.346 C 549.448 32.926 550.108 29.726 550.278 26.117 L 550.578 19.638 L 562.327 19.358 L 574.075 19.078 L 574.075 25.407 C 574.075 28.996 574.595 32.256 575.275 32.936 C 576.065 33.736 580.315 34.136 587.744 34.136 C 600.822 34.136 601.072 33.956 601.072 24.677 L 601.072 19.078 L 612.821 19.358 L 624.569 19.638 L 624.879 26.117 C 625.049 29.726 625.709 32.926 626.379 33.346 C 627.939 34.336 648.206 34.336 649.766 33.346 C 650.436 32.926 651.096 29.726 651.266 26.117 L 651.566 19.638 L 663.315 19.358 L 675.063 19.078 L 675.063 25.407 C 675.063 28.996 675.583 32.256 676.263 32.936 C 677.913 34.586 699.21 34.586 700.86 32.936 C 701.54 32.256 702.06 28.996 702.06 25.407 L 702.06 19.078 L 713.811 19.358 L 725.56 19.638 L 726.06 26.637 L 726.56 33.636 L 737.059 33.936 C 752.179 34.356 751.906 34.486 752.262 26.387 L 752.557 19.638 L 764.305 19.358 L 776.054 19.078 L 776.054 25.487 C 776.054 29.746 776.522 32.286 777.447 33.056 C 778.369 33.816 782.679 34.116 790.195 33.926 L 801.551 33.636 L 801.812 28.636 C 802.339 18.558 801.553 19.138 814.569 19.138 L 826.048 19.138 L 826.048 25.437 C 826.048 29.006 826.569 32.256 827.248 32.936 C 828.899 34.586 850.196 34.586 851.845 32.936 C 852.526 32.256 853.045 28.996 853.045 25.407 L 853.045 19.078 L 864.794 19.358 L 876.542 19.638 L 876.846 26.117 C 877.015 29.726 877.678 32.926 878.346 33.346 C 879.904 34.336 900.178 34.336 901.736 33.346 C 902.404 32.926 903.066 29.726 903.236 26.117 L 903.536 19.638 L 915.285 19.358 L 927.033 19.078 L 927.033 25.487 C 927.033 29.746 927.503 32.286 928.433 33.056 C 929.353 33.816 933.663 34.116 941.182 33.926 L 952.53 33.636 L 952.79 28.636 C 953.32 18.558 952.54 19.138 965.529 19.138 C 978.527 19.138 977.737 18.558 978.267 28.636 L 978.527 33.636 L 989.026 33.936 C 1004.154 34.356 1003.874 34.486 1004.234 26.387 L 1004.524 19.638 L 1016.023 19.638 L 1027.521 19.638 L 1027.821 25.807 C 1027.991 29.426 1028.671 32.436 1029.461 33.086 C 1030.331 33.806 1034.86 34.106 1042.169 33.926 L 1053.518 33.636 L 1053.778 28.636 C 1054.318 18.438 1053.478 19.038 1066.797 19.358 L 1078.515 19.638 L 1078.825 26.117 C 1078.995 29.726 1079.655 32.926 1080.325 33.346 C 1082.455 34.706 1102.652 34.286 1103.832 32.856 C 1104.422 32.146 1105.042 28.886 1105.212 25.607 L 1105.512 19.638 L 1117.01 19.638 L 1128.509 19.638 L 1128.819 25.607 C 1128.989 28.886 1129.609 32.146 1130.189 32.856 C 1130.949 33.766 1134.578 34.136 1142.597 34.136 C 1155.766 34.136 1156.006 33.966 1156.006 24.677 L 1156.006 19.078 L 1167.754 19.358 L 1179.503 19.638 L 1179.503 30.636 L 1179.503 41.635 L 1171.504 42.135 L 1163.505 42.635 L 1163.505 55.133 L 1163.505 67.632 L 1171.504 68.132 L 1179.503 68.632 L 1179.503 79.63 L 1179.503 90.629 L 1171.504 91.129 L 1163.505 91.629 L 1163.505 104.127 L 1163.505 116.626 L 1171.504 117.126 L 1179.503 117.626 L 1179.503 128.624 L 1179.503 139.623 L 1171.504 140.123 L 1163.505 140.623 L 1163.505 153.121 L 1163.505 165.62 L 1171.504 166.12 L 1179.503 166.62 L 1179.503 177.619 L 1179.503 188.617 L 1173.504 188.877 C 1162.165 189.367 1162.905 188.387 1163.225 202.396 L 1163.505 214.614 L 1171.504 215.114 L 1179.503 215.614 L 1179.503 226.613 L 1179.503 237.611 L 1171.504 238.111 L 1163.505 238.611 L 1163.225 250.84 C 1162.905 264.848 1162.165 263.868 1173.504 264.358 L 1179.503 264.608 L 1179.503 275.607 L 1179.503 286.605 L 1171.504 287.105 L 1163.505 287.605 L 1163.505 300.104 L 1163.505 312.602 L 1171.504 313.102 L 1179.503 313.602 L 1179.503 324.601 L 1179.503 335.6 L 1173.504 335.859 C 1162.165 336.349 1162.905 335.37 1163.225 349.378 L 1163.505 361.596 L 1171.504 362.096 L 1179.503 362.596 L 1179.503 373.595 L 1179.503 384.594 L 1171.504 385.094 L 1163.505 385.594 L 1163.505 398.092 L 1163.505 410.59 L 1171.504 411.09 L 1179.503 411.59 L 1179.503 422.589 L 1179.503 433.588 L 1171.504 434.088 L 1163.505 434.588 L 1163.505 447.086 L 1163.505 459.585 L 1171.504 460.085 L 1179.503 460.584 L 1179.503 471.583 L 1179.503 482.582 L 1171.504 483.082 L 1163.505 483.582 L 1163.505 496.08 L 1163.505 508.579 L 1171.504 509.079 L 1179.503 509.579 L 1179.503 520.577 L 1179.503 531.576 L 1171.504 532.076 L 1163.505 532.576 L 1163.505 545.074 L 1163.505 557.573 L 1171.504 558.073 L 1179.503 558.573 L 1179.503 569.571 L 1179.503 580.57 L 1167.754 580.86 L 1156.006 581.14 L 1156.006 574.041 C 1156.006 563.092 1155.986 563.072 1142.677 563.072 C 1135.248 563.072 1130.999 563.482 1130.209 564.272 C 1129.479 565.002 1129.009 568.542 1129.009 573.271 L 1129.009 581.07 L 1117.01 581.07 L 1105.012 581.07 L 1105.012 573.271 C 1105.012 568.542 1104.542 565.002 1103.812 564.272 C 1102.472 562.932 1082.345 562.582 1080.315 563.872 C 1079.585 564.332 1078.995 567.782 1078.815 572.601 L 1078.515 580.57 L 1066.517 580.57 L 1054.518 580.57 L 1054.018 572.071 L 1053.518 563.572 L 1042.169 563.292 C 1034.65 563.102 1030.341 563.402 1029.421 564.162 C 1028.441 564.972 1028.021 567.682 1028.021 573.201 L 1028.021 581.07 L 1016.023 581.07 L 1004.024 581.07 L 1004.024 572.591 C 1004.024 562.472 1004.644 562.852 989.026 563.282 L 978.527 563.572 L 978.027 572.071 L 977.527 580.57 L 965.529 580.57 L 953.53 580.57 L 953.03 572.071 L 952.53 563.572 L 941.182 563.292 C 933.663 563.102 929.353 563.402 928.433 564.162 C 927.453 564.972 927.033 567.692 927.033 573.231 L 927.033 581.14 L 915.285 580.86 L 903.536 580.57 L 903.039 572.071 L 902.539 563.572 L 890.041 563.572 L 877.542 563.572 L 877.042 572.071 L 876.542 580.57 L 864.794 580.86 L 853.045 581.14 L 853.045 573.311 C 853.045 568.552 852.574 565.002 851.845 564.272 C 851.056 563.492 846.846 563.072 839.547 563.072 C 832.248 563.072 828.037 563.492 827.248 564.272 C 826.519 565.002 826.048 568.552 826.048 573.311 L 826.048 581.14 L 814.3 580.86 L 802.551 580.57 L 802.052 572.071 L 801.552 563.572 L 791.053 563.282 C 775.437 562.852 776.055 562.472 776.055 572.591 L 776.055 581.07 L 764.056 581.07 L 752.058 581.07 L 752.058 572.591 C 752.058 562.472 752.676 562.852 737.059 563.282 L 726.561 563.572 L 726.061 572.071 L 725.561 580.57 L 713.812 580.86 L 702.061 581.14 L 702.061 573.311 C 702.061 568.552 701.591 565.002 700.861 564.272 C 700.071 563.492 695.861 563.072 688.562 563.072 C 681.263 563.072 677.054 563.492 676.264 564.272 C 675.534 565.002 675.064 568.552 675.064 573.311 L 675.064 581.14 L 663.315 580.86 L 651.567 580.57 L 651.067 572.071 L 650.567 563.572 L 640.068 563.282 C 624.45 562.852 625.07 562.472 625.07 572.591 L 625.07 581.07 L 613.071 581.07 L 601.073 581.07 L 601.073 573.271 C 601.073 568.542 600.603 565.002 599.873 564.272 C 599.083 563.492 594.873 563.072 587.574 563.072 C 580.275 563.072 576.066 563.492 575.276 564.272 C 574.546 565.002 574.076 568.542 574.076 573.271 L 574.076 581.07 L 562.077 581.07 L 550.079 581.07 L 550.079 572.681 C 550.079 565.952 549.769 564.172 548.499 563.682 C 546.219 562.802 526.812 562.962 525.382 563.872 C 524.652 564.332 524.062 567.782 523.882 572.601 L 523.582 580.57 L 511.833 580.86 L 500.085 581.14 L 500.085 573.231 C 500.085 567.692 499.675 564.972 498.695 564.162 C 497.775 563.402 493.466 563.102 485.947 563.292 L 474.588 563.572 L 474.338 570.071 C 473.868 581.95 474.798 581.18 461.32 580.86 L 449.591 580.57 L 449.091 572.071 L 448.591 563.572 L 436.093 563.572 L 423.594 563.572 L 423.094 572.071 L 422.594 580.57 L 410.846 580.86 L 399.097 581.14 L 399.097 573.311 C 399.097 568.552 398.627 565.002 397.897 564.272 C 397.107 563.482 392.868 563.072 385.439 563.072 C 372.13 563.072 372.1 563.092 372.1 574.011 L 372.1 581.07 L 360.602 581.07 C 354.282 581.07 349.053 580.74 348.983 580.32 C 348.923 579.91 348.783 576.411 348.683 572.541 C 348.573 568.671 348.153 564.962 347.743 564.292 C 346.703 562.612 324.986 562.602 323.306 564.272 C 322.576 565.002 322.106 568.542 322.106 573.271 L 322.106 581.07 L 310.108 581.07 L 298.109 581.07 L 298.109 572.591 C 298.109 562.472 298.729 562.852 283.111 563.282 L 272.612 563.572 L 272.112 572.071 L 271.612 580.57 L 259.864 580.86 L 248.115 581.14 L 248.115 573.311 C 248.115 568.552 247.645 565.002 246.915 564.272 C 246.125 563.492 241.916 563.072 234.617 563.072 C 227.318 563.072 223.108 563.492 222.318 564.272 C 221.588 565.002 221.118 568.552 221.118 573.311 L 221.118 581.14 L 209.37 580.86 L 197.621 580.57 L 197.121 572.071 L 196.621 563.572 L 186.123 563.282 C 170.674 562.852 171.264 562.502 170.914 572.331 L 170.624 580.57 L 158.876 580.86 L 147.127 581.14 L 147.127 573.231 C 147.127 567.692 146.717 564.972 145.737 564.162 C 144.818 563.402 140.508 563.102 132.989 563.292 L 121.63 563.572 L 121.13 572.071 L 120.63 580.57 L 108.882 580.86 L 97.133 581.14 L 97.133 573.311 C 97.133 568.552 96.663 565.002 95.933 564.272 C 95.144 563.492 90.934 563.072 83.635 563.072 C 76.336 563.072 72.126 563.492 71.336 564.272 C 70.607 565.002 70.137 568.542 70.137 573.271 L 70.137 581.07 L 58.138 581.07 L 46.139 581.07 L 46.139 572.681 L 46.139 572.681 Z  M 1158.505 298.604 L 1158.505 37.635 L 598.572 37.635 L 38.64 37.635 L 38.39 297.604 C 38.25 440.587 38.34 558.143 38.61 558.833 C 38.99 559.823 151.546 560.033 598.792 559.833 L 1158.505 559.573 L 1158.505 298.604 Z " fill="rgb(7,8,10)"/></g></g></svg>