<svg xmlns="http://www.w3.org/2000/svg" enable-background="new 0 0 64 64" viewBox="0 0 64 64"><path fill="#000000" d="M50.64 9.27c-3.74-.11-7.31 1.28-10.01 3.89-2.7 2.61-4.18 6.13-4.18 9.88 0 7.11 5.4 12.97 12.31 13.7-1.52 4-5.74 7.51-8.29 9.35-1.24.89-1.96 2.33-1.96 3.83 0 .85.22 1.67.65 2.41.7 1.17 1.83 2 3.15 2.31.33.07.67.09 1 .09.98 0 1.91-.28 2.72-.85 3.24-2.24 6.18-4.68 8.72-7.24C60.63 40.7 64 32.31 64 23.58 64 15.91 58 9.51 50.64 9.27zM14.18 9.27c-3.74-.11-7.31 1.28-10.01 3.89C1.48 15.77 0 19.3 0 23.04c0 7.11 5.4 12.97 12.31 13.7-1.52 4-5.74 7.51-8.29 9.35-1.22.89-1.96 2.33-1.96 3.83 0 .85.22 1.67.67 2.41.67 1.17 1.81 2 3.13 2.31.33.07.67.09 1.02.09.96 0 1.91-.28 2.7-.85 3.24-2.24 6.18-4.68 8.72-7.24 5.85-5.94 9.22-14.34 9.22-23.06C27.54 15.91 21.56 9.51 14.18 9.27z"/></svg>