<svg xmlns="http://www.w3.org/2000/svg" data-name="Layer 2" viewBox="0 0 35 35"><path d="M4.9 28.66c-.31 0-.63 0-1-.05a2.33 2.33 0 0 1-1.43-4 5.19 5.19 0 0 0 1.73-4.16 7.48 7.48 0 0 1-3.63-9A7 7 0 0 1 2.34 8.66a7.54 7.54 0 0 1 7.88-1.91 8.43 8.43 0 0 1 5.65 6.75 12.75 12.75 0 0 1-1.23 8.1l0 .08C11.56 26.52 8.62 28.66 4.9 28.66zm-.37-2.51c2.21.11 4.7-.64 7.92-5.76a10.33 10.33 0 0 0 1-6.4 6 6 0 0 0-4-4.87 5 5 0 0 0-5.31 1.3A4.55 4.55 0 0 0 3 12.26a5 5 0 0 0 2.85 6.2 1.25 1.25 0 0 1 .76.91A7.51 7.51 0 0 1 4.53 26.15zm9-5.13h0zM23.59 28.66c-.32 0-.63 0-1-.05a2.33 2.33 0 0 1-1.43-4 5.19 5.19 0 0 0 1.73-4.16 7.49 7.49 0 0 1-3.63-9A7.09 7.09 0 0 1 21 8.66 7.55 7.55 0 0 1 28.9 6.75a8.41 8.41 0 0 1 5.65 6.75 12.75 12.75 0 0 1-1.23 8.1.59.59 0 0 1 0 .08C30.25 26.52 27.3 28.66 23.59 28.66zm-.38-2.51c2.22.11 4.7-.64 7.93-5.76a10.21 10.21 0 0 0 1-6.4.36.36 0 0 0 0-.1 5.9 5.9 0 0 0-4-4.77 5 5 0 0 0-5.31 1.3 4.42 4.42 0 0 0-1.11 1.84 5 5 0 0 0 2.85 6.2 1.26 1.26 0 0 1 .75.91A7.49 7.49 0 0 1 23.21 26.15zm9-5.13h0z"/></svg>