<svg xmlns="http://www.w3.org/2000/svg" enable-background="new 0 0 32 32" viewBox="0 0 32 32"><path d="M27.791 6.459C27.6074 6.1729 27.29 6 26.9502 6H20c-1.6543 0-3 1.3457-3 3v7c0 1.6543 1.3457 3 3 3h1.9854c-.9287 2.6895-1.7217 3.9775-4.3604 5.0771-.4404.1836-.6895.6523-.5957 1.1201C17.123 25.6641 17.5332 26 18.0098 26c.001 0 .001 0 .002 0 5.5049-.0098 8.667-2.2168 10.9092-7.6113C29.6367 16.6943 30 14.8809 30 13 30 10.1074 29.125 8.5322 27.791 6.459zM11.9502 6H5C3.3457 6 2 7.3457 2 9v7c0 1.6543 1.3457 3 3 3h1.9854c-.9287 2.6895-1.7217 3.9775-4.3604 5.0771-.4404.1836-.6895.6523-.5957 1.1201C2.123 25.6641 2.5332 26 3.0098 26c.001 0 .001 0 .002 0 5.5049-.0098 8.667-2.2168 10.9092-7.6113C14.6367 16.6943 15 14.8809 15 13c0-2.8926-.875-4.4678-2.209-6.541C12.6074 6.1729 12.29 6 11.9502 6z"/></svg>