<?xml version="1.0" encoding="UTF-8" standalone="no"?>
<svg xmlns="http://www.w3.org/2000/svg" xmlns:xlink="http://www.w3.org/1999/xlink" width="120px" height="76px" viewBox="0 0 120 76" version="1.1">
    
    <title>payment_011-skrill-card</title>
    <desc>Created with Sketch.</desc>
    <defs/>
    <g id="round-rect" stroke="none" stroke-width="1" fill="none" fill-rule="evenodd">
        <g id="payment_011-skrill-card">
            <path d="M111.998561,0 L8.0014394,0 C3.58236644,0 0,3.58906554 0,8.00758637 L0,67.9924136 C0,72.4148815 3.59136164,76 8.0014394,76 L111.998561,76 C116.417634,76 120,72.4109345 120,67.9924136 L120,8.00758637 C120,3.58511853 116.408638,0 111.998561,0 Z" id="bg" fill="#9C56B8"/>
            <path d="M81.7692772,47.0833634 C84.0028252,47.0833634 85.8132111,48.8586826 85.8132111,51.048314 C85.8132111,53.2383716 84.0028252,55.0153958 81.7692772,55.0153958 C79.5383361,55.0153958 77.728819,53.2383716 77.728819,51.048314 C77.728819,48.8586826 79.5383361,47.0833634 81.7692772,47.0833634 C81.7692772,47.0833634 79.5383361,47.0833634 81.7692772,47.0833634 L81.7692772,47.0833634 L81.7692772,47.0833634 Z M50.7976445,44.9427504 C50.6156066,44.4926335 49.3022405,40.8529095 46.125919,37.0806226 L46.125919,53.2106655 L37.6626796,51.5691879 L37.6626796,22.332899 L46.125919,22.332899 L46.125919,31.3701901 C48.5771303,27.7632871 49.7875299,22.332899 49.7875299,22.332899 L59.9247354,22.332899 C58.9220067,26.4223137 54.53572,33.9639037 54.53572,33.9639037 C58.4723428,38.8606305 60.2014851,44.0778951 60.4764969,44.9427504 L50.7976445,44.9427504 L50.7976445,44.9427504 L50.7976445,44.9427504 L50.7976445,44.9427504 Z M73.0475355,45.2475171 C65.4671145,45.0088187 61.6191211,41.6721564 61.6191211,35.0393252 L61.6191211,22.332899 L69.8890267,22.332899 L69.8890267,32.6945399 C69.8890267,36.6667366 70.4190653,38.3691676 75.222866,38.5311415 L75.222866,45.1311517 C74.4143399,45.2995193 73.0475355,45.2475171 73.0475355,45.2475171 L73.0475355,45.2475171 L73.0475355,45.2475171 L73.0475355,45.2475171 Z M23.4689409,41.7233061 C22.4323244,41.7902268 20.0323792,41.9419708 20.0323792,44.0616977 C20.0323792,46.6196065 23.4876226,46.6196065 24.7836104,46.6196065 C27.062342,46.6196065 30.0136143,45.9593498 32.1211695,45.3408652 C32.1211695,45.3408652 33.2968125,44.9342255 34.2969345,44.5173558 L34.3903429,44.4926335 L34.3903429,51.4980047 L34.2626123,51.5350882 C31.775341,52.3888611 28.8831549,53.2106655 23.5210759,53.2106655 C14.2758124,53.2106655 11,47.9264802 11,43.3993097 C11,40.7898249 12.139583,34.6484566 22.7281903,33.9400339 C23.6257802,33.8859005 26.0074783,33.7516327 26.0074783,31.5607226 C26.0074783,29.7521561 24.0576313,28.6856858 20.7774744,28.6856858 C17.18277,28.6856858 13.6958111,29.5850672 11.577829,30.4379877 L11.577829,23.2229029 C14.7485025,22.4074922 18.3227874,22 22.5118302,22 C31.5515952,22 35.6003081,26.9998785 35.6003081,31.9550011 C35.6003081,37.5733642 31.0697814,41.2233182 23.4689409,41.7233061 C23.4689409,41.7233061 31.0697814,41.2233182 23.4689409,41.7233061 L23.4689409,41.7233061 L23.4689409,41.7233061 Z M77.6697328,22.332899 L85.8727318,22.332899 L85.8727318,44.9171756 L77.6697328,44.9171756 L77.6697328,22.332899 L77.6697328,22.332899 L77.6697328,22.332899 L77.6697328,22.332899 Z M101.318578,51.7708028 L101.318578,22.332899 L109.522881,22.332899 L109.522881,53.2106655 L101.318578,51.7708028 L101.318578,51.7708028 L101.318578,51.7708028 L101.318578,51.7708028 Z M89.3475259,51.7708028 L97.5440081,53.2106655 L97.5440081,22.332899 L89.3475259,22.332899 L89.3475259,51.7708028 L89.3475259,51.7708028 Z" id="skrill" fill="#FFFFFF" transform="translate(60.261440, 38.507698) scale(1, -1) translate(-60.261440, -38.507698) "/>
        </g>
    </g>

	
	<metadata>
		<rdf:RDF xmlns:rdf="http://www.w3.org/1999/02/22-rdf-syntax-ns#" xmlns:rdfs="http://www.w3.org/2000/01/rdf-schema#" xmlns:dc="http://purl.org/dc/elements/1.1/">
			<rdf:Description about="https://iconscout.com/legal#licenses" dc:title="Payment, Skrill, Card, Pay, Bank, Transaction" dc:description="Payment, Skrill, Card, Pay, Bank, Transaction" dc:publisher="Iconscout" dc:date="2016-12-14" dc:format="image/svg+xml" dc:language="en">
				<dc:creator>
					<rdf:Bag>
						<rdf:li>Linh Pham</rdf:li>
					</rdf:Bag>
				</dc:creator>
			</rdf:Description>
		</rdf:RDF>
    </metadata></svg>
