<?xml version="1.0" encoding="UTF-8" standalone="no"?>
<svg xmlns="http://www.w3.org/2000/svg" xmlns:xlink="http://www.w3.org/1999/xlink" width="120px" height="76px" viewBox="0 0 120 76" version="1.1">
    
    <title>payment_012-world pay-card</title>
    <desc>Created with Sketch.</desc>
    <defs/>
    <g id="round-rect" stroke="none" stroke-width="1" fill="none" fill-rule="evenodd">
        <g id="payment_012-world-pay-card">
            <path d="M111.998561,0 L8.0014394,0 C3.58236644,0 0,3.58906554 0,8.00758637 L0,67.9924136 C0,72.4148815 3.59136164,76 8.0014394,76 L111.998561,76 C116.417634,76 120,72.4109345 120,67.9924136 L120,8.00758637 C120,3.58511853 116.408638,0 111.998561,0 Z" id="bg" fill="#227FBB"/>
            <path d="M5,24.0390182 L7.85753012,24.0390182 L12.3152771,41.3172125 L12.3724277,41.3172125 L17.144503,24.0390182 L20.2877861,24.0390182 L25.0598614,41.3172125 L25.117012,41.3172125 L29.574759,24.0390182 L32.4322892,24.0390182 L26.5457771,45.6520245 L23.6596717,45.6520245 L18.7447199,28.0075081 L18.6875693,28.0075081 L13.8011928,45.6520245 L10.9150873,45.6520245 L5,24.0390182 Z M30.746753,38.8765186 C30.746753,37.885441 30.9324906,36.9610845 31.3039714,36.1034212 C31.6754522,35.2457579 32.1850399,34.4929315 32.83275,33.8449192 C33.4804601,33.196907 34.2424605,32.6870814 35.1187741,32.3154274 C35.9950877,31.9437733 36.9380632,31.757949 37.9477289,31.757949 C38.9573946,31.757949 39.9003701,31.9437733 40.7766837,32.3154274 C41.6529974,32.6870814 42.4149978,33.196907 43.0627078,33.8449192 C43.7104179,34.4929315 44.2200057,35.2457579 44.5914864,36.1034212 C44.9629672,36.9610845 45.1487048,37.885441 45.1487048,38.8765186 C45.1487048,39.8675961 44.9629672,40.7967174 44.5914864,41.6639102 C44.2200057,42.5311031 43.7104179,43.2839296 43.0627078,43.9224122 C42.4149978,44.5608949 41.6529974,45.0659557 40.7766837,45.4376098 C39.9003701,45.8092638 38.9573946,45.9950881 37.9477289,45.9950881 C36.9380632,45.9950881 35.9950877,45.8092638 35.1187741,45.4376098 C34.2424605,45.0659557 33.4804601,44.5608949 32.83275,43.9224122 C32.1850399,43.2839296 31.6754522,42.5311031 31.3039714,41.6639102 C30.9324906,40.7967174 30.746753,39.8675961 30.746753,38.8765186 C30.746753,38.8765186 30.746753,39.8675961 30.746753,38.8765186 Z M33.4899819,38.8765186 C33.4899819,39.5626492 33.594757,40.1963575 33.8043102,40.7776626 C34.0138635,41.3589677 34.3091387,41.8544991 34.6901446,42.2642715 C35.0711505,42.674044 35.5378758,42.9980453 36.0903343,43.236285 C36.6427929,43.4745248 37.2619183,43.593643 37.9477289,43.593643 C38.6335396,43.593643 39.2526649,43.4745248 39.8051235,43.236285 C40.3575821,42.9980453 40.8243073,42.674044 41.2053133,42.2642715 C41.5863192,41.8544991 41.8815943,41.3589677 42.0911476,40.7776626 C42.3007008,40.1963575 42.4054759,39.5626492 42.4054759,38.8765186 C42.4054759,38.1903879 42.3007008,37.5566796 42.0911476,36.9753745 C41.8815943,36.3940694 41.5863192,35.898538 41.2053133,35.4887656 C40.8243073,35.0789931 40.3575821,34.7549919 39.8051235,34.5167521 C39.2526649,34.2785123 38.6335396,34.1593942 37.9477289,34.1593942 C37.2619183,34.1593942 36.6427929,34.2785123 36.0903343,34.5167521 C35.5378758,34.7549919 35.0711505,35.0789931 34.6901446,35.4887656 C34.3091387,35.898538 34.0138635,36.3940694 33.8043102,36.9753745 C33.594757,37.5566796 33.4899819,38.1903879 33.4899819,38.8765186 C33.4899819,38.8765186 33.4899819,38.1903879 33.4899819,38.8765186 Z M46.1277139,32.1010126 L48.699491,32.1010126 L48.699491,34.1879828 L48.7566416,34.1879828 C48.9280942,33.8258583 49.1566944,33.4970923 49.4424488,33.201675 C49.7282032,32.9062576 50.0472909,32.6537272 50.3997214,32.4440762 C50.7521519,32.2344252 51.1379146,32.0676598 51.5570211,31.9437751 C51.9761276,31.8198904 52.3952278,31.757949 52.8143343,31.757949 C53.2334409,31.757949 53.6144411,31.8151257 53.9573464,31.9294808 L53.8430452,34.7025782 C53.6334919,34.6454006 53.4239418,34.5977534 53.2143886,34.559635 C53.0048353,34.5215167 52.7952852,34.5024578 52.5857319,34.5024578 C51.3284124,34.5024578 50.3663869,34.8550474 49.6996265,35.5602372 C49.0328661,36.265427 48.699491,37.3613136 48.699491,38.8479299 L48.699491,45.6520245 L46.1277139,45.6520245 L46.1277139,32.1010126 Z M57.9723795,24.0390182 L57.9723795,45.6520245 L55.4006024,45.6520245 L55.4006024,24.0390182 L57.9723795,24.0390182 Z M71.5601386,45.9927539 L71.5601386,43.7079975 L71.502988,43.7079975 C71.0076803,44.4322465 70.3266424,44.994484 69.4598539,45.3947268 C68.5930654,45.7949697 67.7024775,45.9950881 66.7880633,45.9950881 C65.740297,45.9950881 64.792559,45.8140286 63.9448208,45.4519041 C63.0970826,45.0897796 62.3731822,44.5847188 61.7730979,43.9367065 C61.1730136,43.2886943 60.7110508,42.5358678 60.3871958,41.6782046 C60.0633408,40.8205413 59.9014157,39.8866553 59.9014157,38.8765186 C59.9014157,37.8663818 60.0633408,36.9277311 60.3871958,36.0605382 C60.7110508,35.1933454 61.1730136,34.4405189 61.7730979,33.8020363 C62.3731822,33.1635536 63.0970826,32.6632575 63.9448208,32.301133 C64.792559,31.9390086 65.740297,31.757949 66.7880633,31.757949 C67.7596284,31.757949 68.6740288,31.9628322 69.5312922,32.3726046 C70.3885555,32.7823771 71.0457808,33.3398498 71.502988,34.0450396 L71.5601386,34.0450396 L71.5601386,24.0390182 L74.1319157,24.0390182 L74.1319157,45.9927539 L71.5601386,45.9927539 Z M67.1023916,43.593643 C67.7882022,43.593643 68.4073276,43.4745248 68.9597861,43.236285 C69.5122447,42.9980453 69.97897,42.674044 70.3599759,42.2642715 C70.7409818,41.8544991 71.036257,41.3589677 71.2458102,40.7776626 C71.4553635,40.1963575 71.5601386,39.5626492 71.5601386,38.8765186 C71.5601386,38.1903879 71.4553635,37.5566796 71.2458102,36.9753745 C71.036257,36.3940694 70.7409818,35.898538 70.3599759,35.4887656 C69.97897,35.0789931 69.5122447,34.7549919 68.9597861,34.5167521 C68.4073276,34.2785123 67.7882022,34.1593942 67.1023916,34.1593942 C66.4165809,34.1593942 65.7974556,34.2785123 65.244997,34.5167521 C64.6925384,34.7549919 64.2258131,35.0789931 63.8448072,35.4887656 C63.4638013,35.898538 63.1685261,36.3940694 62.9589729,36.9753745 C62.7494196,37.5566796 62.6446446,38.1903879 62.6446446,38.8765186 C62.6446446,39.5626492 62.7494196,40.1963575 62.9589729,40.7776626 C63.1685261,41.3589677 63.4638013,41.8544991 63.8448072,42.2642715 C64.2258131,42.674044 64.6925384,42.9980453 65.244997,43.236285 C65.7974556,43.4745248 66.4165809,43.593643 67.1023916,43.593643 C67.1023916,43.593643 66.4165809,43.593643 67.1023916,43.593643 Z M83.5406386,24 C84.8360587,24 85.9028593,24.1762948 86.7410723,24.5288897 C87.5792853,24.8814846 88.2412732,25.3293687 88.7270557,25.8725554 C89.2128383,26.4157422 89.550976,27.0256269 89.7414789,27.7022279 C89.9319819,28.378829 90.0272319,29.0315962 90.0272319,29.6605493 C90.0272319,30.2895023 89.9319819,30.9422696 89.7414789,31.6188706 C89.550976,32.2954716 89.2128383,32.9053564 88.7270557,33.4485431 C88.2412732,33.9917298 87.5792853,34.4396139 86.7410723,34.7922088 C85.9028593,35.1448037 84.8360587,35.3210985 83.5406386,35.3210985 L79.1686175,35.3210985 L79.1686175,45.9927539 L76.4253886,45.9927539 L76.4253886,24 L83.5406386,24 Z M79.1686175,32.8302262 L82.7691054,32.8302262 C83.3025137,32.8302262 83.8311515,32.7873436 84.3550346,32.7015773 C84.8789178,32.615811 85.345643,32.4585751 85.7552244,32.2298649 C86.1648058,32.0011547 86.4934184,31.6723887 86.7410723,31.243557 C86.9887261,30.8147254 87.1125512,30.2572526 87.1125512,29.571122 C87.1125512,28.8849914 86.9887261,28.3275187 86.7410723,27.898687 C86.4934184,27.4698554 86.1648058,27.1410894 85.7552244,26.9123792 C85.345643,26.683669 84.8789178,26.5264331 84.3550346,26.4406667 C83.8311515,26.3549004 83.3025137,26.3120179 82.7691054,26.3120179 L79.1686175,26.3120179 L79.1686175,32.8302262 Z M92.2850873,32.2582501 C93.2376022,31.9247144 94.1901027,31.757949 95.1426175,31.757949 C96.1332329,31.757949 96.9857208,31.8818319 97.7001069,32.1296012 C98.414493,32.3773706 99.0002808,32.7109013 99.457488,33.1302034 C99.9146951,33.5495054 100.252833,34.0307426 100.471911,34.5739293 C100.69099,35.1171161 100.800527,35.6841183 100.800527,36.274953 L100.800527,43.1934021 C100.800527,43.6698817 100.810052,44.1082363 100.829102,44.5084792 C100.848153,44.9087221 100.876728,45.6306294 100.914828,45.9927539 L98.6288042,45.9927539 C98.5716533,45.3066232 98.5430783,44.2797736 98.5430783,43.593643 L98.4859277,43.593643 C97.9144188,44.4703654 97.2381435,45.0897796 96.4570813,45.4519041 C95.6760192,45.8140286 94.7711437,45.9950881 93.7424277,45.9950881 C93.1137679,45.9950881 92.5136926,45.9093231 91.9421837,45.7377904 C91.3706749,45.5662578 90.8706121,45.3089626 90.4419804,44.9658973 C90.0133488,44.622832 89.6752111,44.1987715 89.4275572,43.6937032 C89.1799034,43.1886348 89.0560783,42.6025737 89.0560783,41.9355023 C89.0560783,41.0587798 89.2513409,40.3250122 89.641872,39.7341775 C90.0324031,39.1433428 90.5658033,38.6621057 91.2420889,38.2904516 C91.9183744,37.9187975 92.7089498,37.6519729 93.6138389,37.4899699 C94.5187279,37.3279668 95.4855159,37.2469665 96.5142319,37.2469665 L98.4002018,37.2469665 L98.4002018,36.6751938 C98.4002018,36.3321285 98.3335268,35.9890684 98.2001747,35.6460031 C98.0668226,35.3029378 97.8667975,34.9932307 97.6000934,34.7168725 C97.3333892,34.4405143 97.000014,34.221337 96.5999578,34.059334 C96.1999016,33.8973309 95.7236514,33.8163306 95.1711928,33.8163306 C94.6758851,33.8163306 94.2424973,33.8639778 93.8710166,33.9592737 C93.4995358,34.0545697 93.1613981,34.1736878 92.8565934,34.3166316 C92.5517886,34.4595755 92.2755635,34.6263409 92.0279096,34.8169327 C91.7802558,35.0075246 91.5421307,35.1885841 91.3135271,35.3601167 L89.7704608,33.7591533 C90.4943721,33.0920819 91.3325725,32.5917858 92.2850873,32.2582501 Z M97.7785873,39.1338163 C97.1689779,39.1338163 96.54509,39.1671693 95.9069051,39.2338765 C95.2687202,39.3005836 94.6876949,39.4292312 94.1638117,39.619823 C93.6399286,39.8104148 93.2113034,40.0772394 92.8779232,40.4203047 C92.544543,40.76337 92.3778554,41.2017247 92.3778554,41.7353818 C92.3778554,42.5168084 92.6397931,43.0790459 93.1636762,43.4221112 C93.6875593,43.7651765 94.3971722,43.9367065 95.2925361,43.9367065 C95.9973971,43.9367065 96.5974724,43.8175884 97.0927801,43.5793486 C97.5880878,43.3411088 97.988138,43.0314018 98.2929428,42.6502181 C98.5977475,42.2690344 98.8168226,41.8449739 98.9501747,41.3780239 C99.0835268,40.9110739 99.1502018,40.4488956 99.1502018,39.9914752 L99.1502018,39.1338163 L97.7785873,39.1338163 Z M101.415099,32.1010126 L104.386931,32.1010126 L108.416048,42.6788067 L108.473199,42.6788067 L112.302289,32.1010126 L115.074093,32.1010126 L108.644651,48.568065 C108.416047,49.1588997 108.177922,49.6973136 107.930268,50.1833228 C107.682614,50.669332 107.387339,51.083863 107.044434,51.4269283 C106.701528,51.7699936 106.287191,52.0368182 105.801408,52.22741 C105.315626,52.4180019 104.720313,52.5132964 104.015452,52.5132964 C103.634446,52.5132964 103.248683,52.4894727 102.858152,52.4418248 C102.467621,52.3941768 102.091383,52.2941176 101.729428,52.1416441 L102.043756,49.7973763 C102.558114,50.0070273 103.072464,50.1118512 103.586822,50.1118512 C103.986879,50.1118512 104.325016,50.0594392 104.601245,49.9546137 C104.877475,49.8497882 105.1156,49.697317 105.315628,49.4971956 C105.515656,49.2970742 105.682344,49.0636027 105.815696,48.7967741 C105.949048,48.5299455 106.082398,48.2250032 106.21575,47.8819379 L107.044434,45.7377904 L101.415099,32.1010126 Z" id="WorldPay" fill="#FFFFFF"/>
        </g>
    </g>

	
	<metadata>
		<rdf:RDF xmlns:rdf="http://www.w3.org/1999/02/22-rdf-syntax-ns#" xmlns:rdfs="http://www.w3.org/2000/01/rdf-schema#" xmlns:dc="http://purl.org/dc/elements/1.1/">
			<rdf:Description about="https://iconscout.com/legal#licenses" dc:title="Payment, World, Pay, Card, Transaction, Bank" dc:description="Payment, World, Pay, Card, Transaction, Bank" dc:publisher="Iconscout" dc:date="2016-12-14" dc:format="image/svg+xml" dc:language="en">
				<dc:creator>
					<rdf:Bag>
						<rdf:li>Linh Pham</rdf:li>
					</rdf:Bag>
				</dc:creator>
			</rdf:Description>
		</rdf:RDF>
    </metadata></svg>
