<?xml version="1.0" encoding="UTF-8" standalone="no"?>
<svg xmlns="http://www.w3.org/2000/svg" xmlns:xlink="http://www.w3.org/1999/xlink" width="120px" height="76px" viewBox="0 0 120 76" version="1.1">
    
    <title>payment_018-ideal-card</title>
    <desc>Created with Sketch.</desc>
    <defs/>
    <g id="round-rect" stroke="none" stroke-width="1" fill="none" fill-rule="evenodd">
        <g id="payment_018-ideal-card">
            <path d="M111.998561,0 L8.0014394,0 C3.58236644,0 0,3.58906554 0,8.00758637 L0,67.9924136 C0,72.4148815 3.59136164,76 8.0014394,76 L111.998561,76 C116.417634,76 120,72.4109345 120,67.9924136 L120,8.00758637 C120,3.58511853 116.408638,0 111.998561,0 Z" id="bg" fill="#F4F4F4"/>
            <g id="ideal" transform="translate(35.000000, 16.000000)">
                <path d="M28.75,43.2473748 L28.75,43.25 L0,43.25 L0,0 L28.75,0 L28.75,0.00262522956 C40.5201658,0.167675779 50,8.10761884 50,21.625 C50,35.1423812 40.5201658,43.0823242 28.75,43.2473748 L28.75,43.2473748 Z M28.5,41 L2.25,41 L2.25,2.25 L28.5,2.25 L28.5,2.25030663 C39.789424,2.30573889 47.75,9.87276794 47.75,21.625 C47.75,33.3772321 39.789424,40.9442611 28.5,40.9996934 L28.5,41 L28.5,41 Z" id="Rectangle-31" fill="#000000"/>
                <path d="M5.25,24.5 L12.75,24.5 L12.75,38 L5.25,38 L5.25,24.5 Z M9,22.5 C11.6233526,22.5 13.75,20.3733526 13.75,17.75 C13.75,15.1266474 11.6233526,13 9,13 C6.37664744,13 4.25,15.1266474 4.25,17.75 C4.25,20.3733526 6.37664744,22.5 9,22.5 Z" id="Rectangle-31" fill="#000000"/>
                <path d="M44.6751057,19.75 C43.4845772,5.25 28.5,5.25 28.5,5.25 L16.75,5.25 L16.75,38 L28.5,38 C28.5,38 44.5009517,38 44.74713,22 L39.25,22 L39.25,13.25 L41.5,13.25 L41.5,19.75 L44.6751057,19.75 Z M23.25,13.25 L28.5,13.25 L28.5,15.5 L25.5,15.5 L25.5,16.5 L28.25,16.5 L28.25,18.5 L25.5,18.5 L25.5,19.75 L28.75,19.75 L28.75,22 L23.25,22 L23.25,13.25 Z M19.9084105,17.625 C19.9084105,15.5 18.5,15.5 18.5,15.5 L16.75,15.5 L16.75,13.25 L18.25,13.25 C18.25,13.25 22,13.25 22,17.625 C22,22 18.25,22 18.25,22 L16.75,22 L16.75,19.75 L18.5,19.75 C18.5,19.75 19.9084105,19.75 19.9084105,17.625 Z M32.4313354,13.25 L35.5,13.25 L38.1372681,22 L35.8618164,22 L35.388855,20.3369751 L32.5044556,20.3369751 L32.0181274,22 L29.7450562,22 L32.4313354,13.25 Z M33.9666748,15.5629883 L34.7531128,18.1427002 L33.1655884,18.1427002 L33.9666748,15.5629883 Z" id="Rectangle-32" fill="#E54279"/>
            </g>
        </g>
    </g>

	
	<metadata>
		<rdf:RDF xmlns:rdf="http://www.w3.org/1999/02/22-rdf-syntax-ns#" xmlns:rdfs="http://www.w3.org/2000/01/rdf-schema#" xmlns:dc="http://purl.org/dc/elements/1.1/">
			<rdf:Description about="https://iconscout.com/legal#licenses" dc:title="Payment, Ideal, Card, Pay, Bank, Transaction" dc:description="Payment, Ideal, Card, Pay, Bank, Transaction" dc:publisher="Iconscout" dc:date="2016-12-14" dc:format="image/svg+xml" dc:language="en">
				<dc:creator>
					<rdf:Bag>
						<rdf:li>Linh Pham</rdf:li>
					</rdf:Bag>
				</dc:creator>
			</rdf:Description>
		</rdf:RDF>
    </metadata></svg>
