<?xml version="1.0" encoding="UTF-8" standalone="no"?>
<svg xmlns="http://www.w3.org/2000/svg" xmlns:xlink="http://www.w3.org/1999/xlink" width="120px" height="76px" viewBox="0 0 120 76" version="1.1">
    
    <title>payment_017-stripe-card</title>
    <desc>Created with Sketch.</desc>
    <defs/>
    <g id="round-rect" stroke="none" stroke-width="1" fill="none" fill-rule="evenodd">
        <g id="payment_017-stripe-card">
            <path d="M111.998561,0 L8.0014394,0 C3.58236644,0 0,3.58906554 0,8.00758637 L0,67.9924136 C0,72.4148815 3.59136164,76 8.0014394,76 L111.998561,76 C116.417634,76 120,72.4109345 120,67.9924136 L120,8.00758637 C120,3.58511853 116.408638,0 111.998561,0 Z" id="bg" fill="#2C97DE"/>
            <g id="Group" transform="translate(12.500000, 17.750000)" fill="#FFFFFF">
                <path d="M83.4499492,22.6688696 C83.4506528,22.6866214 83.4513472,22.7042806 83.4520316,22.7218454 C83.7116168,29.3841391 92.8265897,25.6940574 93.6072882,25.1955444 L94.3265079,30.0462473 C93.3656054,30.7937731 90.7160024,31.8647301 86.5089753,31.8647301 C79.5563105,31.8647301 76.525804,27.448912 76.525804,20.494653 C76.525804,13.540394 80.3855121,9.12457595 85.7273747,9.12457595 C92.7651108,9.12457595 95,14.2767813 95,19.6312879 L95,22.6688684 L83.4499493,22.6688684 Z M83.4011658,18.4630091 C83.5353927,16.0643812 84.1107031,13.8646606 86.0077767,13.8646606 C88.2153959,13.8646606 88.5099533,17.1620442 88.4091307,18.4293155 L88.4615114,18.4630091 L83.4011658,18.4630091 Z" id="e"/>
                <path d="M62.3805445,11.6758989 C64.1081894,9.93315213 65.964411,9.12457595 67.7860883,9.12457595 C73.8347498,9.12457595 75.104712,14.7597701 75.104712,20.6015816 C75.104712,26.7137777 72.1463936,31.8647301 65.8676141,31.8647301 C64.5807027,31.8647301 63.5778455,31.6566425 62.8833209,31.3225243 L62.8833209,38.3517333 L55.9910247,39.4923053 L55.9910247,9.4810047 L62.0306657,9.4810047 L62.3805445,11.6758989 Z M62.8525134,15.7836207 C64.7197687,14.2067462 68.1163811,12.5759562 68.1163811,20.1425404 C68.1163811,27.3815009 64.7543904,27.0891217 62.8833209,26.1914931 L62.8833209,17.3920521 C62.8833209,16.8078854 62.8718524,16.2719992 62.8525134,15.7836207 Z" id="p"/>
                <path d="M49.7382199,7.41371796 C51.7788232,7.41371796 53.4330591,5.75410066 53.4330591,3.70685898 C53.4330591,1.6596173 51.7788232,0 49.7382199,0 C47.6976166,0 46.0433807,1.6596173 46.0433807,3.70685898 C46.0433807,5.75410066 47.6976166,7.41371796 49.7382199,7.41371796 Z M46.1854899,9.4810047 L53.2909499,9.4810047 L53.2909499,31.4370156 L46.1854899,31.4370156 L46.1854899,9.4810047 Z" id="i"/>
                <path d="M32.6140613,9.4810047 L38.6537023,9.4810047 L39.0402743,12.1199435 C39.0402743,12.1199435 40.1615309,8.40990848 44.5512341,9.40389563 L44.5512341,15.8254364 C40.5662611,15.4440762 39.5063575,17.1286116 39.5063575,17.3920521 L39.5063575,31.4370156 L32.6140613,31.4370156 L32.6140613,9.4810047 Z" id="r"/>
                <path d="M17.0285402,31.3526422 L17.0285402,25.8767271 C19.9664813,26.5752439 21.0075978,26.1255311 21.0075978,23.6526674 L21.0075978,14.7177227 L17.4154547,14.7177227 L16.603184,9.55061969 L21.0075978,9.55061969 L21.0075978,3.20785873 L26.9761841,4.20585923 L27.8288393,9.55061969 L29.9613794,9.87787975 L30.6946157,14.7177227 L27.8288393,14.7177227 L27.8288393,25.0925839 C27.9030165,30.3428072 24.6428316,33.0278573 17.0285402,31.3526422 Z" id="r" transform="translate(23.648900, 17.528380) scale(-1, 1) translate(-23.648900, -17.528380) "/>
                <path d="M6.73894554,25.8680946 C5.9894026,23.7942642 8.88149013,23.1891428 10.5417548,22.5247652 C15.5401406,20.5245928 15.6981501,18.9506556 15.9312184,15.8555099 C16.1642868,12.7603643 14.3723977,10.9705278 12.2255545,9.93934981 C8.89313141,8.33871063 2.43112174,9.5482528 1.12674238,10.6676619 L1.85477447,15.8555101 C8.52904974,12.9753987 9.28032714,14.6917531 9.4359668,15.2921853 C10.0586668,17.6944594 2.66274312,17.7447214 0.7816002,21.6421862 C-0.213608063,23.7041185 -0.37054359,27.2226224 1.67588891,29.4050941 C6.09274794,34.1155695 15.0233285,30.815633 16.2126609,29.9644442 L15.3600057,24.6817803 C14.3845319,25.6458837 7.48848847,27.941925 6.73894554,25.8680946 Z" id="s" transform="translate(8.141858, 20.524593) scale(-1, 1) translate(-8.141858, -20.524593) "/>
            </g>
        </g>
    </g>

	
	<metadata>
		<rdf:RDF xmlns:rdf="http://www.w3.org/1999/02/22-rdf-syntax-ns#" xmlns:rdfs="http://www.w3.org/2000/01/rdf-schema#" xmlns:dc="http://purl.org/dc/elements/1.1/">
			<rdf:Description about="https://iconscout.com/legal#licenses" dc:title="Payment, Stripe, Card, Pay, Bank, Transaction" dc:description="Payment, Stripe, Card, Pay, Bank, Transaction" dc:publisher="Iconscout" dc:date="2016-12-14" dc:format="image/svg+xml" dc:language="en">
				<dc:creator>
					<rdf:Bag>
						<rdf:li>Linh Pham</rdf:li>
					</rdf:Bag>
				</dc:creator>
			</rdf:Description>
		</rdf:RDF>
    </metadata></svg>
