<?xml version="1.0" encoding="UTF-8" standalone="no"?>
<svg xmlns="http://www.w3.org/2000/svg" xmlns:xlink="http://www.w3.org/1999/xlink" width="120px" height="76px" viewBox="0 0 120 76" version="1.1">
    
    <title>payment_021-bbb_better_business_bureau-card</title>
    <desc>Created with Sketch.</desc>
    <defs/>
    <g id="round-rect" stroke="none" stroke-width="1" fill="none" fill-rule="evenodd">
        <g id="payment_021-bbb_better_business_bureau-card">
            <path d="M111.998561,0 L8.0014394,0 C3.58236644,0 0,3.58906554 0,8.00758637 L0,67.9924136 C0,72.4148815 3.59136164,76 8.0014394,76 L111.998561,76 C116.417634,76 120,72.4109345 120,67.9924136 L120,8.00758637 C120,3.58511853 116.408638,0 111.998561,0 Z" id="bg" fill="#F4F4F4"/>
            <g id="Group" transform="translate(42.000000, 10.000000)" fill="#227FBB">
                <path d="M17.4997153,0.0999824365 C15.1245765,4.99770458 6.6432878,9.74820541 17.0959518,17.3127634 C19.9810091,19.4406168 24.8185592,20.7134175 22.3448979,25.7190039 C22.125539,26.1004758 22.5077655,26.2056288 22.8496042,25.9191535 C26.3774175,21.8598367 32.123324,15.4571341 27.2883057,10.2281829 C24.5429487,7.28273545 18.9095026,5.3404752 17.7819359,2.54391648 C17.5637778,2.00284213 17.8049842,1.21891568 18.1053643,0.600354019 C18.3475168,0.0250892073 17.6285449,-0.12518249 17.4997153,0.0999824365 Z M12.5700329,17.0963527 C11.3272221,20.4051366 5.04349608,24.2110231 13.4328012,28.6040321 C15.3725913,29.7364659 17.8821275,31.1537802 17.6068461,33.2278778 C17.5032004,33.4924321 17.7459282,33.5283714 17.9323011,33.3149 C20.6963419,30.2181938 22.7712501,25.7871975 19.3861952,22.8160072 C17.6180445,21.1406392 13.4355044,20.2356227 12.9815779,17.3687292 C13.0835525,16.9771804 12.6308131,16.9402522 12.5700329,17.0963527 Z M7.01452861,34.0206186 L5.71428571,36.2886598 L29.1428571,36.2886598 L27.8426143,34.0206186 L7.01452861,34.0206186 Z M11.4285714,36.8556701 L12.9670338,40.8247423 L22.0131865,40.7955587 L23.4285714,36.8556701 L11.4285714,36.8556701 Z" id="path6722"/>
                <path d="M2.85714286,54.4694723 L3.01982346,55 L7.92676665,54.9217908 C10.9826067,54.9142234 12.3400427,49.7019492 8.54496346,48.626021 C11.3859334,46.4838579 9.69924267,42.505544 7.50175773,42.5648787 L3.05846215,42.5257732 L2.85714286,42.627649 L2.85714286,42.5257732 L0,42.5257732 L0,55 L2.85714286,55 L2.85714286,54.4694723 Z M2.85714286,52.7364148 L6.99947144,52.7710621 C8.48043771,52.8134306 8.57620664,49.7809915 7.03810827,49.7600437 L2.85714286,49.8362856 L2.85714286,52.7364148 Z M2.85714286,47.4920021 L6.4585483,47.4920021 C8.20060987,47.5654153 7.66018916,44.7476166 6.49718514,44.7547093 L2.85714286,44.6802856 L2.85714286,47.4920021 Z" id="b"/>
                <path d="M28,54.4694723 L28.1626806,55 L33.0696238,54.9217908 C36.1254639,54.9142234 37.4828998,49.7019492 33.6878206,48.626021 C36.5287906,46.4838579 34.8420998,42.505544 32.6446149,42.5648787 L28.2013193,42.5257732 L28,42.627649 L28,42.5257732 L25.1428571,42.5257732 L25.1428571,55 L28,55 L28,54.4694723 Z M28,52.7364148 L32.1423286,52.7710621 C33.6232949,52.8134306 33.7190638,49.7809915 32.1809654,49.7600437 L28,49.8362856 L28,52.7364148 Z M28,47.4920021 L31.6014054,47.4920021 C33.343467,47.5654153 32.8030463,44.7476166 31.6400423,44.7547093 L28,44.6802856 L28,47.4920021 Z" id="b"/>
                <path d="M15.4285714,54.4694723 L15.591252,55 L20.4981952,54.9217908 C23.5540353,54.9142234 24.9114712,49.7019492 21.116392,48.626021 C23.957362,46.4838579 22.2706712,42.505544 20.0731863,42.5648787 L15.6298907,42.5257732 L15.4285714,42.627649 L15.4285714,42.5257732 L12.5714286,42.5257732 L12.5714286,55 L15.4285714,55 L15.4285714,54.4694723 Z M15.4285714,52.7364148 L19.5709,52.7710621 C21.0518663,52.8134306 21.1476352,49.7809915 19.6095368,49.7600437 L15.4285714,49.8362856 L15.4285714,52.7364148 Z M15.4285714,47.4920021 L19.0299769,47.4920021 C20.7720384,47.5654153 20.2316177,44.7476166 19.0686137,44.7547093 L15.4285714,44.6802856 L15.4285714,47.4920021 Z" id="b"/>
            </g>
        </g>
    </g>

	
	<metadata>
		<rdf:RDF xmlns:rdf="http://www.w3.org/1999/02/22-rdf-syntax-ns#" xmlns:rdfs="http://www.w3.org/2000/01/rdf-schema#" xmlns:dc="http://purl.org/dc/elements/1.1/">
			<rdf:Description about="https://iconscout.com/legal#licenses" dc:title="Payment, Bbb, Better, Business, Bureau, Card" dc:description="Payment, Bbb, Better, Business, Bureau, Card" dc:publisher="Iconscout" dc:date="2016-12-14" dc:format="image/svg+xml" dc:language="en">
				<dc:creator>
					<rdf:Bag>
						<rdf:li>Linh Pham</rdf:li>
					</rdf:Bag>
				</dc:creator>
			</rdf:Description>
		</rdf:RDF>
    </metadata></svg>
