<?xml version="1.0" encoding="UTF-8" standalone="no"?>
<svg xmlns="http://www.w3.org/2000/svg" xmlns:xlink="http://www.w3.org/1999/xlink" width="120px" height="76px" viewBox="0 0 120 76" version="1.1">
    
    <title>payment_015-dinner_club-card</title>
    <desc>Created with Sketch.</desc>
    <defs/>
    <g id="round-rect" stroke="none" stroke-width="1" fill="none" fill-rule="evenodd">
        <g id="payment_015-dinner_club-card">
            <path d="M111.998561,0 L8.0014394,0 C3.58236644,0 0,3.58906554 0,8.00758637 L0,67.9924136 C0,72.4148815 3.59136164,76 8.0014394,76 L111.998561,76 C116.417634,76 120,72.4109345 120,67.9924136 L120,8.00758637 C120,3.58511853 116.408638,0 111.998561,0 Z" id="bg" fill="#F4F4F4"/>
            <g id="logo" transform="translate(25.000000, 13.250000)">
                <path d="M38.605027,33.333143 C47.6992942,33.3767274 56,25.9032254 56,16.8114126 C56,6.86900935 47.6992942,-0.00330566642 38.605027,1.19288887e-06 L30.7783454,1.19288887e-06 C21.575145,-0.00330566642 14,6.8710596 14,16.8114126 C14,25.9052095 21.575145,33.3767936 30.7783454,33.333143 L38.605027,33.333143 L38.605027,33.333143 Z" id="Shape" fill="#2C97DE"/>
                <path d="M30.6653703,1.33333333 C22.1972835,1.33599185 15.3353277,8.19829075 15.3333333,16.6677301 C15.3353277,25.1357072 22.197217,31.9973415 30.6653703,32 C39.1354516,31.9973415 45.9988034,25.1357072 46,16.6677301 C45.9987369,8.19829075 39.1354516,1.33599185 30.6653703,1.33333333 L30.6653703,1.33333333 Z M21.3333333,16.3343886 L21.3333333,16.3343886 C21.3410052,12.2273204 23.8273131,8.72506687 27.3333333,7.33333333 L27.3333333,25.3333333 C23.8273131,23.9423913 21.3409412,20.4420505 21.3333333,16.3343886 L21.3333333,16.3343886 Z M34,25.3333333 L34,25.3333333 L34,7.33333333 C37.505058,8.72135219 39.9936109,12.2246986 40,16.3327069 C39.9936109,20.4419681 37.505058,23.9426769 34,25.3333333 L34,25.3333333 Z" id="Shape" fill="#FFFFFF"/>
                <g id="text" transform="translate(0.000000, 36.500000)" fill="#211E1F">
                    <path d="M1.4184865,2.36278076 C1.4184865,0.988305706 0.694389684,1.07881893 5.82492814e-05,1.06388713 L5.82492814e-05,0.666666667 C0.601773327,0.696069052 1.21863322,0.696069052 1.82157153,0.696069052 C2.46988603,0.696069052 3.35003267,0.666666667 4.49282533,0.666666667 C8.48989102,0.666666667 10.6666667,3.30942228 10.6666667,6.01553714 C10.6666667,7.52889523 9.77201595,11.3333333 4.30701012,11.3333333 C3.52006233,11.3333333 2.79369379,11.3032968 2.06849023,11.3032968 C1.3741588,11.3032968 0.694389684,11.3183439 0,11.3333333 L0,10.9366894 C0.925639331,10.844389 1.3741588,10.8138912 1.41842825,9.77443037 L1.41842825,2.36278076 L1.4184865,2.36278076 L1.4184865,2.36278076 Z M2.66666667,9.40085694 L2.66666667,9.40085694 C2.66666667,10.5344759 3.51140275,10.6666667 4.26292258,10.6666667 C7.57817878,10.6666667 8.66666667,8.26668254 8.66666667,6.07276045 C8.66666667,3.32063794 6.824922,1.33333333 3.86406124,1.33333333 C3.23412783,1.33333333 2.94463637,1.37665635 2.66672456,1.39226375 L2.66666667,9.40085694 L2.66666667,9.40085694 Z" id="Shape"/>
                    <path d="M10.6666667,10.954189 L10.961782,10.954189 C11.3974004,10.954189 11.709623,10.954189 11.709623,10.4715367 L11.709623,6.51946623 C11.709623,5.8784427 11.4761762,5.78924199 10.8995256,5.49924336 L10.8995256,5.2653735 C11.6314351,5.05956803 12.5050822,4.78442702 12.5661629,4.74040446 C12.6760962,4.68207456 12.7689811,4.66666667 12.8471691,4.66666667 C12.92424,4.66666667 12.9565146,4.75471179 12.9565146,4.87192186 L12.9565146,10.4715367 C12.9565146,10.954189 13.2992481,10.954189 13.7354544,10.954189 L14,10.954189 L14,11.3333333 C13.4696743,11.3333333 12.9241812,11.3042234 12.3645203,11.3042234 C11.8036837,11.3042234 11.2422591,11.3185307 10.6667255,11.3333333 L10.6667255,10.954189 L10.6666667,10.954189 L10.6666667,10.954189 Z M11.9997176,2 L11.9997176,2 C11.6455004,2 11.3333333,1.67389744 11.3333333,1.32051282 C11.3333333,0.98 11.6598765,0.666666667 11.9997176,0.666666667 C12.3524459,0.666666667 12.6666667,0.953384615 12.6666667,1.32051282 C12.6666667,1.68769231 12.3663599,2 11.9997176,2 L11.9997176,2 Z" id="Shape"/>
                    <path d="M15.6307682,6.60641079 C15.6307682,6.06713441 15.4692211,5.92185995 14.7841755,5.64451782 L14.7841755,5.36778099 C15.4119548,5.16362636 16.0100262,4.97377906 16.7115517,4.66672169 C16.755149,4.66672169 16.7980849,4.69643692 16.7980849,4.81254643 L16.7980849,5.7611776 C17.6320559,5.16362636 18.3480219,4.66666667 19.3279419,4.66666667 C20.5680679,4.66666667 21.0061906,5.57127528 21.0061906,6.70870821 L21.0061906,10.4715917 C21.0061906,10.954189 21.327521,10.954189 21.7370382,10.954189 L22,10.954189 L22,11.3333333 C21.4873595,11.3333333 20.9764827,11.3042234 20.4517716,11.3042234 C19.9253519,11.3042234 19.3989322,11.3185307 18.8737251,11.3333333 L18.8737251,10.954189 L19.1360807,10.954189 C19.5460939,10.954189 19.8366691,10.954189 19.8366691,10.4715917 L19.8366691,6.69495116 C19.8366691,5.86237447 19.3279419,5.45461549 18.493971,5.45461549 C18.0271876,5.45461549 17.2819545,5.83381483 16.7980298,6.1551245 L16.7980298,10.4714816 C16.7980298,10.954134 17.1209586,10.954134 17.530586,10.954134 L17.7929416,10.954134 L17.7929416,11.3332783 C17.2819545,11.3332783 16.7699203,11.3041134 16.244162,11.3041134 C15.7188447,11.3041134 15.191984,11.3184757 14.6666667,11.3332783 L14.6666667,10.954134 L14.9301245,10.954134 C15.3390905,10.954134 15.6306579,10.954134 15.6306579,10.4714816 L15.6306579,6.60641079 L15.6307682,6.60641079 L15.6307682,6.60641079 Z" id="Shape"/>
                    <path d="M23.2771773,7.4793798 C23.2440016,7.61951726 23.2440016,7.85214194 23.2771773,8.38080776 C23.3711654,9.85603154 24.3471114,11.0675671 25.6216997,11.0675671 C26.5001656,11.0675671 27.1877653,10.6016145 27.7772827,10.0272325 L28,10.2452632 C27.2654966,11.1924073 26.3562031,12 25.0484993,12 C22.5106421,12 22,9.60693734 22,8.61354966 C22,5.56809463 24.1061505,4.66666667 25.2224463,4.66666667 C26.51576,4.66666667 27.904868,5.45855179 27.9199205,7.10544544 C27.9199205,7.19980818 27.9199205,7.29182651 27.904868,7.38618926 L27.7603637,7.4793798 L23.2771773,7.4793798 L23.2771773,7.4793798 Z M26.2063575,6.66666667 L26.2063575,6.66666667 C26.617964,6.66666667 26.6666667,6.5183322 26.6666667,6.38203648 C26.6666667,5.80069438 26.1552882,5.33333333 25.2304348,5.33333333 C24.2246179,5.33333333 23.5313827,5.84540969 23.3333333,6.66666667 L26.2063575,6.66666667 L26.2063575,6.66666667 Z" id="Shape"/>
                    <path d="M28,10.9541922 L28.3697392,10.9541922 C28.7517687,10.9541922 29.0255099,10.9541922 29.0255099,10.4715438 L29.0255099,6.3736274 C29.0255099,5.92184959 28.5200103,5.8338052 28.3139685,5.71714637 L28.3139685,5.49923649 C29.3131939,5.04635813 29.861038,4.66666667 29.9854893,4.66666667 C30.0665634,4.66666667 30.1068422,4.71068886 30.1068422,4.85706267 L30.1068422,6.16947446 L30.135812,6.16947446 C30.4770979,5.60103782 31.0529305,4.66666667 31.8869094,4.66666667 C32.229228,4.66666667 32.6666667,4.91429153 32.6666667,5.43980652 C32.6666667,5.8338052 32.4074361,6.18488223 32.0243222,6.18488223 C31.5982959,6.18488223 31.5982959,5.8338052 31.1201136,5.8338052 C30.8872192,5.8338052 30.1214046,6.16947446 30.1214046,7.04496592 L30.1214046,10.4715438 C30.1214046,10.9541371 30.3945262,10.9541371 30.7782081,10.9541371 L31.5440227,10.9541371 L31.5440227,11.3333333 C30.791118,11.3184208 30.2184353,11.3041686 29.6287116,11.3041686 C29.0679577,11.3041686 28.4926414,11.3184758 28.0000516,11.3333333 L28.0000516,10.9541922 L28,10.9541922 L28,10.9541922 Z" id="Shape"/>
                    <path d="M33.6093612,9.60683925 C33.8086024,10.6325131 34.4200091,11.5029292 35.5376882,11.5029292 C36.4383438,11.5029292 36.7754547,10.9437904 36.7754547,10.3998902 C36.7754547,8.56657156 33.4407192,9.15677358 33.4407192,6.65588777 C33.4407192,5.78553027 34.1300095,4.66666667 35.8124459,4.66666667 C36.3015135,4.66666667 36.9589921,4.8073305 37.5553879,5.11854924 L37.6639861,6.70166212 L37.3112871,6.70166212 C37.1588107,5.72398984 36.6236711,5.1643236 35.6432843,5.1643236 C35.0313003,5.1643236 34.4504928,5.5219028 34.4504928,6.18941132 C34.4504928,8.00866361 38,7.44776656 38,9.88652584 C38,10.9116136 37.1887748,12 35.3678915,12 C34.7559075,12 34.0370572,11.7825572 33.5019176,11.4725106 L33.3333333,9.68555239 L33.6093612,9.60683925 L33.6093612,9.60683925 Z" id="Shape"/>
                    <path d="M51.318198,3.71860373 L50.9462285,3.71860373 C50.662708,1.89812944 49.4248729,1.16582897 47.7554833,1.16582897 C46.0393937,1.16582897 43.5490944,2.36375978 43.5490944,6.0993143 C43.5490944,9.24579857 45.6978075,11.5019535 47.9934853,11.5019535 C49.4692661,11.5019535 50.693035,10.4437294 50.9912407,8.80888474 L51.3333333,8.90167021 L50.9912407,11.1742681 C50.3649524,11.5800577 48.6798649,12 47.6946606,12 C44.2062161,12 42,9.64929789 42,6.14688153 C42,2.95576627 44.7283012,0.666666667 47.6507175,0.666666667 C48.8582257,0.666666667 50.0212281,1.07304351 51.1696015,1.49351434 L51.318198,3.71860373 L51.318198,3.71860373 Z" id="Shape"/>
                    <path d="M52.0001176,10.9477792 L52.2952798,10.9477792 C52.7321433,10.9477792 53.0449446,10.9477792 53.0449446,10.4569671 L53.0449446,2.19642754 C53.0449446,1.2317028 52.8109316,1.20198883 52.2181966,1.03914956 L52.2181966,0.801885473 C52.8414474,0.609444151 53.4958607,0.341906506 53.8234201,0.163454813 C53.9932854,0.0750403642 54.1191115,0 54.1649733,0 C54.2602836,0 54.2913874,0.0895895772 54.2913874,0.208725249 L54.2913874,10.4569671 C54.2913874,10.9477792 54.6335873,10.9477792 55.0704509,10.9477792 L55.3333333,10.9477792 L55.3333333,11.3333333 C54.8058633,11.3333333 54.2602836,11.3036753 53.6987112,11.3036753 C53.1384322,11.3036753 52.5774477,11.3182805 52,11.3333333 L52,10.9477792 L52.0001176,10.9477792 L52.0001176,10.9477792 Z" id="Shape"/>
                    <path d="M61.6619728,10.3113162 C61.6619728,10.5749383 61.8237593,10.5892476 62.0748072,10.5892476 C62.2527165,10.5892476 62.4736945,10.5749383 62.6666667,10.5749383 L62.6666667,10.8820388 C62.0302323,10.9398265 60.8178939,11.2463766 60.5366644,11.3333333 L60.4624658,11.2892496 L60.4624658,10.108784 C59.5766013,10.8230953 58.8953688,11.3333333 57.8448727,11.3333333 C57.046596,11.3333333 56.2187515,10.8230953 56.2187515,9.59854595 L56.2187515,5.86270738 C56.2187515,5.48350986 56.1601179,5.11856664 55.3333333,5.04597426 L55.3333333,4.7685932 C55.8661686,4.75428386 57.0466518,4.6667217 57.239624,4.6667217 C57.4036978,4.6667217 57.4036978,4.7685932 57.4036978,5.08945264 L57.4036978,8.85220378 C57.4036978,9.29089513 57.4036978,10.5451088 58.6890074,10.5451088 C59.1916612,10.5451088 59.8566592,10.1659113 60.4770824,9.656829 L60.4770824,5.73056613 C60.4770824,5.43997644 59.7679556,5.2798219 59.2369056,5.13337131 L59.2369056,4.87084995 C60.565786,4.78279247 61.3953041,4.66666667 61.5420835,4.66666667 C61.661917,4.66666667 61.661917,4.76848313 61.661917,4.92973839 L61.661917,10.3113162 L61.6619728,10.3113162 L61.6619728,10.3113162 Z" id="Shape"/>
                    <path d="M64.7515749,5.83850847 C65.3777036,5.31486683 66.2236573,4.72916223 67.0862842,4.72916223 C68.9043634,4.72916223 70,6.28654722 70,7.96416465 C70,9.98184988 68.4964633,12 66.254343,12 C65.0955022,12 64.4847459,11.6298305 64.0767866,11.4612494 L63.607397,11.8145666 L63.279315,11.6461017 C63.4182577,10.7372397 63.4980166,9.84348668 63.4980166,8.90440678 L63.4980166,2.28087167 C63.4980166,1.27908959 63.2615185,1.24823245 62.6666667,1.07912833 L62.6666667,0.832736077 C63.2952195,0.632891041 63.9514426,0.355060533 64.2808254,0.16968523 C64.453469,0.0778692494 64.5781626,0 64.6267039,0 C64.7201206,0 64.7513975,0.0930363196 64.7513975,0.216755448 L64.7513975,5.83845036 L64.7515749,5.83845036 L64.7515749,5.83850847 Z M64.6667259,9.77096264 L64.6667259,9.77096264 C64.6667259,10.3529544 65.2308307,11.3333333 66.2822004,11.3333333 C67.9610176,11.3333333 68.6666667,9.72535019 68.6666667,8.36280821 C68.6666667,6.71036737 67.3815211,5.33333333 66.1572911,5.33333333 C65.5753674,5.33333333 65.0898785,5.70111978 64.6666667,6.0538368 L64.6666667,9.77096264 L64.6667259,9.77096264 L64.6667259,9.77096264 Z" id="Shape"/>
                </g>
            </g>
        </g>
    </g>

	
	<metadata>
		<rdf:RDF xmlns:rdf="http://www.w3.org/1999/02/22-rdf-syntax-ns#" xmlns:rdfs="http://www.w3.org/2000/01/rdf-schema#" xmlns:dc="http://purl.org/dc/elements/1.1/">
			<rdf:Description about="https://iconscout.com/legal#licenses" dc:title="Payment, Dinner, Club, Card, Bank, Transaction" dc:description="Payment, Dinner, Club, Card, Bank, Transaction" dc:publisher="Iconscout" dc:date="2016-12-14" dc:format="image/svg+xml" dc:language="en">
				<dc:creator>
					<rdf:Bag>
						<rdf:li>Linh Pham</rdf:li>
					</rdf:Bag>
				</dc:creator>
			</rdf:Description>
		</rdf:RDF>
    </metadata></svg>
