<?xml version="1.0" encoding="UTF-8" standalone="no"?>
<svg xmlns="http://www.w3.org/2000/svg" xmlns:xlink="http://www.w3.org/1999/xlink" width="120px" height="76px" viewBox="0 0 120 76" version="1.1">
    
    <title>payment_019-payu-money-card</title>
    <desc>Created with Sketch.</desc>
    <defs/>
    <g id="round-rect" stroke="none" stroke-width="1" fill="none" fill-rule="evenodd">
        <g id="payment_019-payu-money-card">
            <path d="M111.998561,0 L8.0014394,0 C3.58236644,0 0,3.58906554 0,8.00758637 L0,67.9924136 C0,72.4148815 3.59136164,76 8.0014394,76 L111.998561,76 C116.417634,76 120,72.4109345 120,67.9924136 L120,8.00758637 C120,3.58511853 116.408638,0 111.998561,0 Z" id="bg" fill="#1AAF5D"/>
            <g id="payU" transform="translate(18.000000, 17.500000)" fill="#FFFFFF">
                <path d="M71.7943883,10.4020279 L70.5689625,10.4020279 C69.3317028,10.4020279 68.3270457,11.4063059 68.3270457,12.6451457 L68.3270457,26.7189343 C68.3270457,26.7189343 68.2113215,29.1664703 64.1458384,29.1664703 C60.0803553,29.1664703 59.9646311,26.7189343 59.9646311,26.7189343 L59.9646311,12.6451457 C59.9646311,11.4073414 58.9608908,10.4020279 57.7227143,10.4020279 L55.2718628,10.4020279 C54.0346031,10.4020279 53.0299459,11.4058438 53.0299459,12.6441134 L53.0299459,26.10904 C53.0299459,30.9502862 56.9566913,34.8773875 61.8005772,34.8773875 L66.4910996,34.8773875 C71.3351181,34.8773875 75.2617309,30.9516646 75.2617309,26.10904 L75.2617309,15.9089838 L77.9140342,15.9089838 C78.4756209,15.9089838 78.9330349,15.4527616 78.9330349,14.8899831 L78.9330349,9.78933792 C78.9330349,9.22775115 78.4768127,8.77033721 77.9140342,8.77033721 L72.813389,8.77033721 C72.2518023,8.77033721 71.7943883,9.22655937 71.7943883,9.78933792 L71.7943883,10.4020279 Z M71.7943883,10.4020279 L73.0198141,10.4020279 C74.2579906,10.4020279 75.2617309,11.408466 75.2617309,12.6441134 L75.2617309,15.9089838 L72.813389,15.9089838 C72.2506105,15.9089838 71.7943883,15.4515698 71.7943883,14.8899831 L71.7943883,10.4020279 Z M78.7290735,4.28431386 C78.7290735,3.8331131 79.0935698,3.46734262 79.5460448,3.46734262 L83.2150969,3.46734262 C83.6662977,3.46734262 84.0320681,3.83183891 84.0320681,4.28431386 L84.0320681,7.95336597 C84.0320681,8.40456673 83.6675718,8.77033721 83.2150969,8.77033721 L79.5460448,8.77033721 C79.094844,8.77033721 78.7290735,8.40584091 78.7290735,7.95336597 L78.7290735,4.28431386 Z M75.2617309,0.610362391 C75.2617309,0.27326855 75.5376754,0 75.8720933,0 L78.3226725,0 C78.6597663,0 78.9330349,0.275944493 78.9330349,0.610362391 L78.9330349,3.06094156 C78.9330349,3.3980354 78.6570904,3.67130395 78.3226725,3.67130395 L75.8720933,3.67130395 C75.5349995,3.67130395 75.2617309,3.39535945 75.2617309,3.06094156 L75.2617309,0.610362391 Z M43.0888229,34.8817695 C43.015768,34.8953504 42.6257745,34.9551431 42.6257745,34.9551431 C38.675535,35.4677247 37.892696,32.5339961 37.2071804,30.2948892 L33.7675924,17.4996215 C33.5920022,16.846426 33.9958748,16.3169064 34.6741056,16.3169064 L35.4885921,16.3169064 C36.1648357,16.3169064 36.8550519,16.8451925 37.0309336,17.4994728 C37.0309336,17.4994728 39.2204104,25.6443262 40.4740958,30.3080361 C40.8466421,31.253389 41.3231826,32.1272956 42.3574299,32.1272956 C43.3916772,32.1272956 43.9336215,31.9142434 44.4076002,30.1507231 L47.3931991,17.5083431 C47.5485939,16.8503308 48.2227191,16.3169064 48.8997599,16.3169064 L49.702397,16.3169064 C50.3790527,16.3169064 50.797266,16.8506867 50.6371047,17.5066714 L46.6892183,33.6763262 C44.8719906,40.812483 42.5361952,41.8497179 38.7621138,42 C37.6104494,41.8497179 37.0171888,39.5116319 37.9571239,39.133686 C37.9571239,39.133686 39.8592605,39.1469172 40.9588809,38.3495105 C42.1471305,37.487833 42.6524415,36.1095735 42.9272638,35.3236273 C42.9434593,35.3210444 43.0696205,34.9265041 43.0888229,34.8817695 Z"/>
                <path d="M29.3704316,23.8634757 L23.1515536,23.8634757 C20.1658256,23.8634757 17.7446357,26.2833655 17.7446357,29.2684509 C17.7446357,32.2541927 20.1653953,34.6734262 23.1515536,34.6734262 L27.226895,34.6734262 C30.212623,34.6734262 32.6338129,32.2535363 32.6338129,29.2684509 L32.6338129,24.679321 L32.6338129,21.4159397 C32.6338129,15.9089838 26.7132576,15.9089838 25.0872436,15.9089838 C22.9834277,15.9089838 20.3902713,16.2268811 20.3902713,16.2268811 C19.9414766,16.2755478 19.5802877,16.6815429 19.5802877,17.1313449 L19.5802877,18.3579266 C19.5802877,18.8078189 19.9426361,19.1341633 20.3896154,19.087039 C20.3896154,19.087039 23.2335658,18.7653387 24.928596,18.7653387 C26.5498296,18.7653387 29.3704316,18.7653387 29.3704316,21.4159397 L29.3704316,23.8634757 Z M21.008017,29.1664703 C21.008017,27.589444 22.2780878,26.3110116 23.8624969,26.3110116 L29.3704316,26.3110116 L29.3704316,29.1664703 C29.3704316,30.7434965 28.1003608,32.0219289 26.5159517,32.0219289 L23.8624969,32.0219289 C22.2860112,32.0219289 21.008017,30.7402876 21.008017,29.1664703 Z" id="Path"/>
                <path d="M0,13.8698528 C0,11.954626 1.55141425,10.4020278 3.46874655,10.4020278 L11.0140118,10.4020278 C14.7312327,10.4020278 17.7446358,13.4161738 17.7446358,17.1307158 L17.7446358,19.3783623 C17.7446358,23.094514 14.7298765,26.1070503 11.013615,26.1070503 L3.46734263,26.1070503 L3.46734263,33.6528738 C3.46734263,34.2165093 3.0104826,34.6734263 2.44577913,34.6734263 L1.0215635,34.6734263 C0.45736955,34.6734263 0,34.215586 0,33.6537295 L0,13.8698528 L0,13.8698528 Z M3.46734263,14.6651157 C3.46734263,14.112993 3.91274218,13.6654092 4.4690604,13.6654092 L9.890118,13.6654092 C12.4257325,13.6654092 14.4812545,15.7194752 14.4812545,18.254539 C14.4812545,20.7890455 12.4289918,22.843669 9.890118,22.843669 L3.46734263,22.843669 L3.46734263,14.6651157 L3.46734263,14.6651157 Z" id="Path"/>
            </g>
        </g>
    </g>

	
	<metadata>
		<rdf:RDF xmlns:rdf="http://www.w3.org/1999/02/22-rdf-syntax-ns#" xmlns:rdfs="http://www.w3.org/2000/01/rdf-schema#" xmlns:dc="http://purl.org/dc/elements/1.1/">
			<rdf:Description about="https://iconscout.com/legal#licenses" dc:title="Payment, Payu, Money, Card" dc:description="Payment, Payu, Money, Card" dc:publisher="Iconscout" dc:date="2016-12-14" dc:format="image/svg+xml" dc:language="en">
				<dc:creator>
					<rdf:Bag>
						<rdf:li>Linh Pham</rdf:li>
					</rdf:Bag>
				</dc:creator>
			</rdf:Description>
		</rdf:RDF>
    </metadata></svg>
