<?xml version="1.0" encoding="UTF-8" standalone="no"?>
<svg xmlns="http://www.w3.org/2000/svg" xmlns:xlink="http://www.w3.org/1999/xlink" width="120px" height="76px" viewBox="0 0 120 76" version="1.1">
    
    <title>payment_007-google_checkout-card</title>
    <desc>Created with Sketch.</desc>
    <defs/>
    <g id="round-rect" stroke="none" stroke-width="1" fill="none" fill-rule="evenodd">
        <g id="payment_007-google_checkout-card">
            <path d="M111.998561,0 L8.0014394,0 C3.58236644,0 0,3.58906554 0,8.00758637 L0,67.9924136 C0,72.4148815 3.59136164,76 8.0014394,76 L111.998561,76 C116.417634,76 120,72.4109345 120,67.9924136 L120,8.00758637 C120,3.58511853 116.408638,0 111.998561,0 Z" id="bg" fill="#F4F4F4"/>
            <path d="M51.577952,35.1435304 C48.5645025,30.9115177 44.3672318,27.2053953 39.6128615,24.6130102 C38.8876325,24.2183819 38.0741097,24.0111969 37.2561513,24.0111969 C35.4031092,24.0111969 33.7129368,25.0404014 32.8413417,26.6999815 C31.5399318,29.1771706 32.4585621,32.2667786 34.8906732,33.5942131 C42.2281623,37.590686 46.9612843,45.2142123 47.5169391,54.0251931 C47.5169391,54.0251931 47.5152846,54.005561 47.5152846,54.0026279 C47.432251,53.0210979 47.5886223,52.0612009 48.0333937,51.1477181 C48.0927036,51.0205483 48.1635658,50.8851917 48.2518599,50.7375476 C50.5403897,46.9001612 51.75,42.483121 51.75,37.9661112 C51.75,37.0184988 51.6847089,36.0779232 51.5779492,35.1435421" id="path34" fill="#2C97DE"/>
            <path d="M66.2228515,56.3968068 C69.0625598,50.54828 70.5,44.2720195 70.5,37.7461019 C70.5,35.5025969 70.3423047,33.8669734 70.2230759,32.8314612 C66.4930838,27.0145301 61.083156,21.815011 54.75,18.0083977 C54.7554075,18.0112999 54.8965394,18.1043244 54.9069547,18.1108508 C55.3457208,18.4183136 55.7150949,18.7413154 56.1003035,19.2285112 C56.1941378,19.3486788 56.3248428,19.5178453 56.432807,19.6942635 C59.8062794,25.1267624 61.5879108,31.3686303 61.5879108,37.7461019 C61.5879108,38.5067823 61.5617551,39.2655977 61.511933,40.0222357 C64.2171099,45.0400543 65.692805,50.743655 65.692805,56.7286134 C65.692805,57.2041028 65.7015334,57.9688257 65.6898368,58.5272925 C65.7159925,57.9021097 65.8775024,57.2412927 66.1087334,56.6638685 C66.1451809,56.5728119 66.1817371,56.4825804 66.2228603,56.3968068" id="path40" fill="#F2C500"/>
            <path d="M79.6379356,25.7106008 C78.7557528,21.8227476 77.446675,18.0268797 75.7441457,14.4239961 C74.8337694,12.4991297 72.8781302,11.2552486 70.757968,11.2552486 C69.9384438,11.2552486 69.1410408,11.4369412 68.394365,11.795044 C65.6480098,13.1109184 64.4788666,16.4390875 65.7842367,19.195867 C68.5856388,25.1424223 69.9702369,31.425327 69.9702369,37.9513531 C69.9702369,44.4769626 68.5784367,50.7529268 65.8305392,56.6011775 C65.7890741,56.6901586 65.3083701,57.7260369 65.3083701,58.9217488 C65.3039595,59.2575792 65.3441754,59.7593594 65.4491242,60.2085159 C65.8055355,61.7805637 66.8264151,63.2068614 68.4602163,63.9958876 C69.2065819,64.3499524 69.9967829,64.5300918 70.8142469,64.5300918 C72.8254509,64.5300918 74.6891055,63.4091686 75.6501038,61.6498338 C76.7509286,59.5700011 77.8622505,56.8387047 78.8304508,53.3223155 C79.1367551,52.2634413 79.3931602,51.2687933 79.6343331,50.1936555 C80.5306127,46.2241764 81,42.1332923 81,37.9513531 C81,33.8191355 80.5306127,29.6687906 79.6379356,25.7106008" id="path36" fill="#1FCE6D"/>
            <path d="M57.1738415,19.806872 C57.0753787,19.6432547 56.9609043,19.490939 56.84643,19.340697 C56.4748644,18.8554436 56.0294249,18.4528286 55.5294684,18.1276674 C54.6822198,17.5776098 53.663578,17.2580478 52.6311211,17.2580478 C51.7747714,17.2580478 51.3354003,17.3613196 50.7190856,17.6059162 C50.0870776,17.8554899 49.4159334,18.197241 48.8097703,18.8315956 C48.2077946,19.4609737 47.8463764,20.1024825 47.5937822,20.7716762 C47.0861872,22.1134847 47.1475047,23.8774012 48.0339908,25.2897166 C49.8962205,28.2565019 50.9920843,31.6222732 51.3938905,35.0881013 C51.5021923,36.0107058 51.5684264,36.9394267 51.5684264,37.8750957 C51.5684264,42.3351744 50.3413445,46.6965436 48.0197603,50.4855649 C47.9383524,50.6179739 47.8668853,50.754839 47.7981385,50.8905657 C47.3469429,51.7925353 47.1838136,52.7707128 47.2738015,53.7217289 C47.4270952,55.3324986 48.3127453,56.8565882 49.8120909,57.757729 C50.198308,57.9886382 50.6086944,58.1628331 51.0329973,58.2924405 C51.5352573,58.4422669 52.0539426,58.5272925 52.5800593,58.5272925 C54.4642619,58.5272925 56.1733006,57.5755509 57.1509252,55.9805412 C60.0914415,51.1822353 61.8077003,45.7527882 62.1751857,40.1532955 C62.2242593,39.3959707 62.25,38.6372953 62.25,37.8750957 C62.25,31.4918354 60.4956525,25.2443019 57.1738415,19.806872" id="path38" fill="#E94B35"/>
        </g>
    </g>

	
	<metadata>
		<rdf:RDF xmlns:rdf="http://www.w3.org/1999/02/22-rdf-syntax-ns#" xmlns:rdfs="http://www.w3.org/2000/01/rdf-schema#" xmlns:dc="http://purl.org/dc/elements/1.1/">
			<rdf:Description about="https://iconscout.com/legal#licenses" dc:title="Payment, Google, Checkout, Card, Pay, Transaction, Bank" dc:description="Payment, Google, Checkout, Card, Pay, Transaction, Bank" dc:publisher="Iconscout" dc:date="2016-12-14" dc:format="image/svg+xml" dc:language="en">
				<dc:creator>
					<rdf:Bag>
						<rdf:li>Linh Pham</rdf:li>
					</rdf:Bag>
				</dc:creator>
			</rdf:Description>
		</rdf:RDF>
    </metadata></svg>
