<?xml version="1.0" encoding="UTF-8" standalone="no"?>
<svg xmlns="http://www.w3.org/2000/svg" xmlns:xlink="http://www.w3.org/1999/xlink" width="120px" height="76px" viewBox="0 0 120 76" version="1.1">
    
    <title>payment_022-direct_debit-card</title>
    <desc>Created with Sketch.</desc>
    <defs/>
    <g id="round-rect" stroke="none" stroke-width="1" fill="none" fill-rule="evenodd">
        <g id="payment_022-direct_debit-card">
            <path d="M111.998561,0 L8.0014394,0 C3.58236644,0 0,3.58906554 0,8.00758637 L0,67.9924136 C0,72.4148815 3.59136164,76 8.0014394,76 L111.998561,76 C116.417634,76 120,72.4109345 120,67.9924136 L120,8.00758637 C120,3.58511853 116.408638,0 111.998561,0 Z" id="bg" fill="#000000"/>
            <g id="logo" transform="translate(8.000000, 22.000000)" fill="#FFFFFF">
                <path d="M21.07,28.869883 C32.7066403,28.869883 42.14,22.40714 42.14,14.4349415 C42.14,6.46274306 32.7066403,0 21.07,0 C9.43335975,0 0,6.46274306 0,14.4349415 C0,22.40714 9.43335975,28.869883 21.07,28.869883 Z M22.792408,0.740253411 L22.8183972,10.4617653 C22.8183972,10.4617653 3.69649082,9.65563185 3.69649123,17.7672604 C3.69649191,25.878889 18.2678391,27.3893762 22.8183972,27.3893762 C23.712572,27.3893762 34.0077193,25.7949863 34.0077193,13.6307613 C34.0077187,1.46653628 22.792408,0.740253411 22.792408,0.740253411 Z M22.9182456,11.8440555 L22.9182456,25.9088694 C22.9182456,25.9088694 11.0894741,25.0939839 11.0894737,18.4554674 C11.0894734,11.8169509 22.9182456,11.8440555 22.9182456,11.8440555 Z" id="Oval-22"/>
                <path d="M46,4.33500591 L51.5830235,4.33500591 C51.5830235,4.33500591 57.1097024,4.22354142 57.0539701,9.24801762 C56.9982379,12.9882024 51.694488,13.5467498 51.694488,13.5467498 L46,13.5467498 L46,4.33500591 L46,4.33500591 Z M62.7013001,22.3683679 C62.8574729,23.0996239 63.3860105,23.9043731 65.1486193,23.9864403 C67.4936607,24.0421726 68.8336843,23.1486193 68.8336843,23.1486193 L68.8336843,24.8793811 C68.8336843,24.8793811 66.2651015,25.4936607 65.0371548,25.4936607 C63.7534759,25.4936607 59.9569464,25.214387 59.9569464,21.6971312 C59.9569464,18.8504996 63.0834641,17.9569464 64.8693457,17.9569464 C67.9958633,18.0684109 69.5030837,19.1848931 69.4473515,22.367143 C69.4473515,22.4143011 64.303449,22.3793919 62.7013001,22.3683679 L62.7013001,22.3683679 Z M62.708037,20.9713871 L66.9908456,20.9713871 C66.9908456,20.9713871 66.9908456,19.3527023 64.9256903,19.3527023 C63.3713119,19.3527023 62.8629849,20.1905233 62.708037,20.9713871 L62.708037,20.9713871 Z M76.2583217,19.223477 C76.8775008,18.5516278 77.9180402,18.0126786 79.664113,18.0126786 C83.1250242,18.0126786 83.6835715,20.9156549 83.6278393,21.6971312 C83.572107,22.4792199 83.2928334,25.4379284 79.2733749,25.4379284 C77.755743,25.4379284 76.8266681,24.9198023 76.2583217,24.2761255 L76.2583217,25.214387 L73.5231546,25.214387 L73.5231546,15.1654346 L76.2583217,15.1654346 L76.2583217,19.223477 L76.2583217,19.223477 Z M78.6033631,23.8749758 C80.2220479,23.8186311 80.947792,22.4234877 80.947792,21.7534759 C80.947792,21.0834641 80.5570538,19.6877082 78.4918986,19.6877082 C76.8885248,19.6877082 76.4010207,20.8985065 76.2583217,21.4907382 L76.2583217,22.218932 C76.398571,22.8215752 76.8897497,23.8749758 78.6033631,23.8749758 L78.6033631,23.8749758 Z M102.218524,23.5957022 L102.274256,25.1586548 C102.274256,25.1586548 100.989965,25.4379284 100.152756,25.4379284 C99.3155474,25.4379284 97.1377028,24.9351134 97.1377028,22.8142259 L97.1377028,19.5756312 L94.8490061,19.5756312 L94.8490061,18.1241431 L97.1377028,18.1241431 L97.1377028,16.3939938 L99.9292146,16.3939938 L99.9292146,18.1241431 L102.218524,18.1241431 L102.218524,19.5756312 L99.9292146,19.5756312 L99.9292146,22.367143 C99.9292146,22.367143 99.9292146,23.7628989 101.045697,23.7628989 C102.162179,23.7628989 102.218524,23.5957022 102.218524,23.5957022 L102.218524,23.5957022 Z M93.7325239,5.84222628 L96.9705061,5.84222628 L96.9705061,13.602482 L99.7062856,13.602482 L99.7062856,5.84222628 L103,5.84222628 L103,4.22354142 L93.7325239,4.22354142 L93.7325239,5.84222628 L93.7325239,5.84222628 Z M92.6160417,6.23296444 L92.9510476,4.61427957 C92.9510476,4.61427957 91.5552917,4 89.0987859,4 C86.6980122,4 82.846363,5.34002364 82.846363,8.96874396 C82.846363,12.541732 86.9215537,13.7696787 89.4337918,13.7696787 C91.9460299,13.7696787 92.7832384,13.3789406 92.7832384,13.3789406 L92.5045772,11.5924465 C92.5045772,11.5924465 91.3874825,11.9274525 89.489524,11.9274525 C87.6472977,11.8717202 85.7493392,10.4202321 85.7493392,8.80093478 C85.8050715,7.34944665 87.480101,5.73076179 89.6573332,5.73076179 C91.3317503,5.73076179 92.6160417,6.23296444 92.6160417,6.23296444 L92.6160417,6.23296444 Z M67.9401311,4.27927366 C67.9401311,4.27927366 72.5181369,4.05573224 72.5181369,6.73577952 C72.5181369,9.0244762 69.8944343,9.19228538 69.8944343,9.19228538 C69.8944343,9.19228538 70.6195659,9.30374987 70.9551843,9.80595251 C71.2338455,10.2530353 73.0760718,13.602482 73.0760718,13.602482 L70.2851725,13.602482 C70.2851725,13.602482 69.8380896,13.0439347 69.6151606,12.6531965 C69.4473515,12.2624584 68.9451488,11.4252498 68.9451488,11.4252498 C68.9451488,11.4252498 68.5544107,10.0294939 67.214387,10.0294939 C67.1807027,10.0294939 66.6344042,10.0086709 66.2093693,9.99274739 L66.2093693,13.602482 L63.5299345,13.602482 L63.5299345,4.27927366 L67.9401311,4.27927366 L67.9401311,4.27927366 Z M66.2093693,8.46592887 L67.6608574,8.46592887 C67.6608574,8.46592887 69.6708929,8.35446438 69.7823574,7.12651767 C69.8380896,5.95369077 67.8286666,5.78649404 67.8286666,5.78649404 L66.2093693,5.78649404 L66.2093693,8.46592887 L66.2093693,8.46592887 Z M77.4311486,9.917417 L81.8970775,9.917417 L81.8970775,8.18726765 L77.4311486,8.18726765 L77.4311486,6.0657677 L82.2878156,6.0657677 L82.2878156,4.27927366 L74.6953691,4.27927366 L74.6953691,13.602482 L82.3435479,13.602482 L82.3435479,11.9274525 L77.4311486,11.9274525 L77.4311486,9.917417 L77.4311486,9.917417 Z M88.3173096,17.0633931 L91.0530891,17.0633931 L91.0530891,15.1654346 L88.3173096,15.1654346 L88.3173096,17.0633931 Z M88.3173096,25.214387 L91.0530891,25.214387 L91.0530891,18.1241431 L88.3173096,18.1241431 L88.3173096,25.214387 Z M58.5054583,13.602482 L61.1855055,13.602482 L61.1855055,4.27927366 L58.5054583,4.27927366 L58.5054583,13.602482 Z M46,15.9469109 L51.5830235,15.9469109 C51.5830235,15.9469109 57.1097024,15.8354464 57.0539701,20.8599226 C56.9982379,24.6001074 51.694488,25.1586548 51.694488,25.1586548 L46,25.1586548 L46,15.9469109 L46,15.9469109 Z M48.7351671,23.427893 L50.5222736,23.427893 C50.5222736,23.427893 54.2067261,23.204964 54.2067261,20.35772 C54.2067261,17.510476 50.2987321,17.2312023 50.2987321,17.2312023 L48.7351671,17.2312023 L48.7351671,23.427893 L48.7351671,23.427893 Z M48.7351671,11.815988 L50.5222736,11.815988 C50.5222736,11.815988 54.2067261,11.5367143 54.2067261,8.74520254 C54.2067261,5.84222628 50.2987321,5.6192973 50.2987321,5.6192973 L48.7351671,5.6192973 L48.7351671,11.815988 L48.7351671,11.815988 Z" id="Fill-2"/>
            </g>
        </g>
    </g>

	
	<metadata>
		<rdf:RDF xmlns:rdf="http://www.w3.org/1999/02/22-rdf-syntax-ns#" xmlns:rdfs="http://www.w3.org/2000/01/rdf-schema#" xmlns:dc="http://purl.org/dc/elements/1.1/">
			<rdf:Description about="https://iconscout.com/legal#licenses" dc:title="Payment, Direct, Debit, Card, Transaction, Bank" dc:description="Payment, Direct, Debit, Card, Transaction, Bank" dc:publisher="Iconscout" dc:date="2016-12-14" dc:format="image/svg+xml" dc:language="en">
				<dc:creator>
					<rdf:Bag>
						<rdf:li>Linh Pham</rdf:li>
					</rdf:Bag>
				</dc:creator>
			</rdf:Description>
		</rdf:RDF>
    </metadata></svg>
