<?xml version="1.0" encoding="UTF-8" standalone="no"?>
<svg xmlns="http://www.w3.org/2000/svg" xmlns:xlink="http://www.w3.org/1999/xlink" width="120px" height="76px" viewBox="0 0 120 76" version="1.1">
    
    <title>payment_020-electronic_cash-card</title>
    <desc>Created with Sketch.</desc>
    <defs/>
    <g id="round-rect" stroke="none" stroke-width="1" fill="none" fill-rule="evenodd">
        <g id="payment_020-electronic_cash-card">
            <path d="M111.998561,0 L8.0014394,0 C3.58236644,0 0,3.58906554 0,8.00758637 L0,67.9924136 C0,72.4148815 3.59136164,76 8.0014394,76 L111.998561,76 C116.417634,76 120,72.4109345 120,67.9924136 L120,8.00758637 C120,3.58511853 116.408638,0 111.998561,0 Z" id="bg" fill="#F4F4F4"/>
            <g id="logo" transform="translate(36.838095, 9.000000)">
                <path d="M24.8852005,0 L24.8852013,25.9473958 L10.86516,25.9473958 L10.8651592,33.2692066 C10.8651592,35.4077992 11.9583462,35.2953507 11.9583462,35.2953507 L13.4666109,35.2953497 L13.4666109,28.6362105 L25.1428571,28.6362115 L25.1428571,44.4190272 L4.26807927,44.4190272 C4.26807927,44.4190272 0,44.4737672 0,38.9184859 L0,4.57894626 C0,0 4.26807927,0 4.26807927,0 L24.8852005,0 Z M13.4095238,9.21904762 L13.4095238,17.6 L10.8952381,17.6 L10.8952381,10.4270328 C10.8952381,9.21904762 11.7962423,9.21904762 11.7962423,9.21904762 L13.4095238,9.21904762 Z" id="Path-181" fill="#227FBB"/>
                <path d="M44.9994862,0 L44.9994862,17.5925534 L33.9926329,17.5925534 L33.9926329,9.33275643 L32.6857143,9.33275643 C32.6857143,9.33275643 31.116055,9.33275643 31.116055,10.5175437 L30.8948117,33.2692066 C30.8948117,35.4077992 32.072632,35.1831716 32.072632,35.1831716 L33.9926329,35.1831716 L33.9926329,26.3714129 L45.2571429,26.3714129 L45.2571429,44.4190272 L24.382365,44.4190272 C24.382365,44.4190272 20.1142857,44.4737672 20.1142857,38.9184859 L20.1142857,4.57894626 C20.1142857,0 24.382365,0 24.382365,0 L44.9994862,0 Z" id="Path-181" fill="#E94B35"/>
                <path d="M25.2877232,0 L25.1604539,44.4190272 L24.382365,44.4190272 C24.382365,44.4190272 20.1142857,44.4737672 20.1142857,38.9184859 L20.1142857,4.57894626 C20.1142857,0 24.382365,0 24.382365,0 L25.2877232,0 Z M20.1142857,25.9809524 L20.1142857,28.4952381 L25.1428571,28.4952381 L25.1428571,25.9809524 L20.1142857,25.9809524 Z" id="Path-181" fill="#1C1C1C"/>
            </g>
            <path d="M43.7789975,63.0645753 L43.7789976,64.8768309 C43.7789976,65.0288317 43.8217471,65.1459972 43.9072476,65.2283309 C43.992748,65.3106647 44.1083302,65.3518309 44.2539976,65.3518309 C44.4376651,65.3518309 44.5595806,65.2979981 44.6197476,65.1903309 C44.6799145,65.0826637 44.7163308,64.9749981 44.7289976,64.8673309 L44.7289976,63.9892577 L45.6979976,63.9892577 L45.6979976,64.8673309 C45.6979976,65.0699986 45.6647479,65.2599967 45.5982476,65.4373309 C45.5317472,65.6146651 45.4351649,65.7666636 45.3084976,65.8933309 C45.1818303,66.0263316 45.0298318,66.1308305 44.8524976,66.2068309 C44.6751633,66.2828313 44.4756653,66.3208309 44.2539976,66.3208309 C43.9563294,66.3208309 43.699832,66.2574982 43.4844976,66.1308309 C43.2691631,66.0041636 43.1044981,65.836332 42.9904976,65.6273309 C42.9208305,65.5006636 42.873331,65.3549984 42.8479976,65.1903309 C42.8226641,65.0256634 42.8099976,64.8451652 42.8099976,64.6488309 L42.8099976,60.7985 C42.8099976,60.6021657 42.8226641,60.4216675 42.8479976,60.257 C42.873331,60.0923325 42.9208306,59.9466673 42.9904976,59.82 C43.1044981,59.610999 43.2691632,59.4431673 43.4844976,59.3165 C43.699832,59.1898327 43.9563294,59.1265 44.2539976,59.1265 C44.4756654,59.1265 44.6767467,59.1644996 44.8572476,59.2405 C45.0377485,59.3165004 45.189747,59.4225827 45.3132476,59.55875 C45.4367482,59.6949173 45.5317472,59.8548324 45.5982476,60.0385 C45.6647479,60.2221676 45.6979976,60.418499 45.6979976,60.6275 L45.6979975,63.0645753 L43.7789975,63.0645753 Z M43.7799988,61.8731079 L44.7299988,61.8731079 L44.7299988,60.8067017 C44.7299988,60.6230341 44.6872492,60.4852855 44.6017488,60.3934517 C44.5162484,60.3016179 44.4006662,60.2557017 44.2549988,60.2557017 C44.1093314,60.2557017 43.9937492,60.3016179 43.9082488,60.3934517 C43.8227484,60.4852855 43.7799988,60.6230341 43.7799988,60.8067017 L43.7799988,61.8731079 Z M41.1000061,57.236 L42.0690061,57.236 L42.0690061,66.3372802 L41.1000061,66.3372802 L41.1000061,57.236 Z M47.3190061,64.8668822 C47.3190061,65.018883 47.3617557,65.1360484 47.4472561,65.2183822 C47.5327566,65.3007159 47.6483387,65.3418822 47.7940061,65.3418822 C47.9776737,65.3418822 48.0995892,65.2880494 48.1597561,65.1803822 C48.2199231,65.072715 48.2563394,64.9650494 48.2690061,64.8573822 L48.2690061,63.5526732 L49.2380061,63.5526732 L49.2380061,64.8573822 C49.2380061,65.0600499 49.2047565,65.250048 49.1382561,65.4273822 C49.0717558,65.6047164 48.9751734,65.7567149 48.8485061,65.8833822 C48.7218388,66.0163829 48.5698403,66.1208818 48.3925061,66.1968822 C48.2151719,66.2728826 48.0156739,66.3108822 47.7940061,66.3108822 C47.496338,66.3108822 47.2398405,66.2475495 47.0245061,66.1208822 C46.8091717,65.9942149 46.6445067,65.8263832 46.5305061,65.6173822 C46.4608391,65.4907149 46.4133396,65.3450497 46.3880061,65.1803822 C46.3626727,65.0157147 46.3500061,64.8352165 46.3500061,64.6388822 L46.3500061,60.7985 C46.3500061,60.6021657 46.3626726,60.4216675 46.3880061,60.257 C46.4133396,60.0923325 46.4608391,59.9466673 46.5305061,59.82 C46.6445067,59.610999 46.8091717,59.4431673 47.0245061,59.3165 C47.2398405,59.1898327 47.4963379,59.1265 47.7940061,59.1265 C48.0156739,59.1265 48.2167552,59.1644996 48.3972561,59.2405 C48.577757,59.3165004 48.7297555,59.4225827 48.8532561,59.55875 C48.9767567,59.6949173 49.0717558,59.857999 49.1382561,60.048 C49.2047564,60.238001 49.2380061,60.4438322 49.2380061,60.6655 L49.2380061,61.796631 L48.2690061,61.796631 L48.2690061,60.6655 C48.2690061,60.4691657 48.2262565,60.3250838 48.1407561,60.23325 C48.0552557,60.1414162 47.9396735,60.0955 47.7940061,60.0955 C47.6483387,60.0955 47.5327565,60.1414162 47.4472561,60.23325 C47.3617557,60.3250838 47.3190061,60.4628324 47.3190061,60.6465 L47.3190061,64.8668822 Z M64.3190061,64.8668822 C64.3190061,65.018883 64.3617557,65.1360484 64.4472561,65.2183822 C64.5327566,65.3007159 64.6483387,65.3418822 64.7940061,65.3418822 C64.9776737,65.3418822 65.0995892,65.2880494 65.1597561,65.1803822 C65.2199231,65.072715 65.2563394,64.9650494 65.2690061,64.8573822 L65.2690061,63.5526732 L66.2380061,63.5526732 L66.2380061,64.8573822 C66.2380061,65.0600499 66.2047565,65.250048 66.1382561,65.4273822 C66.0717558,65.6047164 65.9751734,65.7567149 65.8485061,65.8833822 C65.7218388,66.0163829 65.5698403,66.1208818 65.3925061,66.1968822 C65.2151719,66.2728826 65.0156739,66.3108822 64.7940061,66.3108822 C64.496338,66.3108822 64.2398405,66.2475495 64.0245061,66.1208822 C63.8091717,65.9942149 63.6445067,65.8263832 63.5305061,65.6173822 C63.4608391,65.4907149 63.4133396,65.3450497 63.3880061,65.1803822 C63.3626727,65.0157147 63.3500061,64.8352165 63.3500061,64.6388822 L63.3500061,60.7985 C63.3500061,60.6021657 63.3626726,60.4216675 63.3880061,60.257 C63.4133396,60.0923325 63.4608391,59.9466673 63.5305061,59.82 C63.6445067,59.610999 63.8091717,59.4431673 64.0245061,59.3165 C64.2398405,59.1898327 64.4963379,59.1265 64.7940061,59.1265 C65.0156739,59.1265 65.2167552,59.1644996 65.3972561,59.2405 C65.577757,59.3165004 65.7297555,59.4225827 65.8532561,59.55875 C65.9767567,59.6949173 66.0717558,59.857999 66.1382561,60.048 C66.2047564,60.238001 66.2380061,60.4438322 66.2380061,60.6655 L66.2380061,61.796631 L65.2690061,61.796631 L65.2690061,60.6655 C65.2690061,60.4691657 65.2262565,60.3250838 65.1407561,60.23325 C65.0552557,60.1414162 64.9396735,60.0955 64.7940061,60.0955 C64.6483387,60.0955 64.5327565,60.1414162 64.4472561,60.23325 C64.3617557,60.3250838 64.3190061,60.4628324 64.3190061,60.6465 L64.3190061,64.8668822 Z M49.9144927,57.7205 L50.8834927,57.7205 L50.8834927,59.4088843 L51.4819927,59.4088843 L51.4819927,60.425293 L50.8834927,60.425293 L50.8834927,64.5559692 C50.8834927,64.6699698 50.8945759,64.7586356 50.9167427,64.8219692 C50.9389095,64.8853029 50.9737425,64.9328024 51.0212427,64.9644692 C51.0687429,64.9961361 51.1304923,65.0151359 51.2064927,65.0214692 C51.2824931,65.0278026 51.3743255,65.0309692 51.4819927,65.0309692 L51.4819927,66.166877 L51.0829927,66.166877 C50.8613249,66.166877 50.6760767,66.132044 50.5272427,66.062377 C50.3784086,65.9927099 50.2596598,65.9040442 50.1709927,65.796377 C50.0823256,65.6887098 50.0174095,65.5667943 49.9762427,65.430627 C49.9350758,65.2944596 49.9144927,65.1630443 49.9144927,65.036377 L49.9144927,60.425293 L49.4299927,60.425293 L49.4299927,59.4088843 L49.9144927,59.4088843 L49.9144927,57.7205 Z M51.8500061,59.1835 L52.8190061,59.1835 L52.8190061,60.3589955 C52.9140061,59.885376 53.6295351,59.1835 53.9082031,59.1835 L53.9082031,60.9547119 C53.9082031,60.9547119 52.8190061,60.8309936 52.8190061,61.8414306 L52.8190061,66.1466063 L51.8500061,66.1466063 L51.8500061,59.1835 Z M54.2045,60.7985 C54.2045,60.6021657 54.2171665,60.4216675 54.2425,60.257 C54.2678335,60.0923325 54.315333,59.9466673 54.385,59.82 C54.4990006,59.610999 54.6636656,59.4431673 54.879,59.3165 C55.0943344,59.1898327 55.3508318,59.1265 55.6485,59.1265 C55.9461682,59.1265 56.2026656,59.1898327 56.418,59.3165 C56.6333344,59.4431673 56.7979994,59.610999 56.912,59.82 C56.981667,59.9466673 57.0291665,60.0923325 57.0545,60.257 C57.0798335,60.4216675 57.0925,60.6021657 57.0925,60.7985 L57.0925,64.6833495 C57.0925,64.8796838 57.0798335,65.060182 57.0545,65.2248495 C57.0291666,65.389517 56.981667,65.5351822 56.912,65.6618495 C56.7979994,65.8708505 56.6333344,66.0386822 56.418,66.1653495 C56.2026656,66.2920168 55.9461682,66.3553495 55.6485,66.3553495 C55.3508319,66.3553495 55.0943344,66.2920168 54.879,66.1653495 C54.6636656,66.0386822 54.4990006,65.8708505 54.385,65.6618495 C54.315333,65.5351822 54.2678335,65.389517 54.2425,65.2248495 C54.2171666,65.060182 54.2045,64.8796838 54.2045,64.6833495 L54.2045,60.7985 Z M55.1735,64.6464844 C55.1735,64.830152 55.2162496,64.9679006 55.30175,65.0597344 C55.3872505,65.1515682 55.5028327,65.1974844 55.6485,65.1974844 C55.7941674,65.1974844 55.9097496,65.1515682 55.99525,65.0597344 C56.0807505,64.9679006 56.1235,64.830152 56.1235,64.6464844 L56.1235001,60.6525269 C56.1235001,60.4688593 56.0807505,60.3311107 55.9952501,60.2392769 C55.9097497,60.1474431 55.7941675,60.1015269 55.6485001,60.1015269 C55.5028327,60.1015269 55.3872505,60.1474431 55.3017501,60.2392769 C55.2162497,60.3311107 55.1735001,60.4688593 55.1735001,60.6525269 L55.1735,64.6464844 Z M57.805,59.1835 L58.774,59.1835 L58.774,59.649 L58.793,59.649 C58.8943338,59.4969992 59.0162493,59.3719172 59.15875,59.27375 C59.3012507,59.1755828 59.4833322,59.1265 59.705,59.1265 C59.8253339,59.1265 59.9456661,59.1470831 60.066,59.18825 C60.1863339,59.2294169 60.2939995,59.2974995 60.389,59.3925 C60.4840005,59.4875005 60.5599997,59.6094159 60.617,59.75825 C60.6740003,59.9070841 60.7025,60.0891656 60.7025,60.3045 L60.7025,66.1192626 L59.7335,66.1192626 L59.7335,60.6655 C59.7335,60.4881658 59.6923337,60.3488338 59.61,60.2475 C59.5276663,60.1461662 59.4105008,60.0955 59.2585,60.0955 C59.0748324,60.0955 58.948167,60.1524994 58.8785,60.2665 C58.808833,60.3805006 58.774,60.5451656 58.774,60.7605 L58.774,66.1192626 L57.805,66.1192626 L57.805,59.1835 Z M61.6000061,59.1835 L62.5690061,59.1835 L62.5690061,66.1484987 L61.6000061,66.1484987 L61.6000061,59.1835 Z M61.6000061,57.236 L62.5690061,57.236 L62.5690061,58.205 L61.6000061,58.205 L61.6000061,57.236 Z M73.5950062,65.6835511 L73.5760062,65.6835511 C73.4493389,65.8608854 73.3210901,65.9970507 73.1912562,66.0920511 C73.0614222,66.1870516 72.8793407,66.2345511 72.6450062,66.2345511 C72.5310056,66.2345511 72.4138401,66.2171346 72.2935062,66.1823011 C72.1731722,66.1474676 72.0607567,66.0841349 71.9562562,65.9923011 C71.8517556,65.9004673 71.7662565,65.7706353 71.6997562,65.6028011 C71.6332558,65.434967 71.6000062,65.2180525 71.6000062,64.9520511 C71.6000062,64.6797164 71.5848631,63.8723146 71.8204346,63.1245729 C72.0560061,62.3768312 73.3613891,61.8447877 73.5950061,61.498047 L73.5950061,60.6655 C73.5950061,60.5008325 73.5601731,60.3646672 73.4905061,60.257 C73.4208391,60.1493328 73.2941737,60.0955 73.1105061,60.0955 C72.9838388,60.0955 72.8682566,60.1366663 72.7637561,60.219 C72.6592556,60.3013337 72.5911729,60.4216659 72.5595061,60.58 L72.5599976,61.3465511 L71.6190061,61.3465511 L71.6190061,60.58 C71.6506729,60.1429978 71.7963381,59.794668 72.0560061,59.535 C72.1826734,59.4083327 72.3346719,59.3085837 72.5120061,59.23575 C72.6893403,59.1629163 72.8888383,59.1265 73.1105061,59.1265 C73.3131738,59.1265 73.5031719,59.1581663 73.6805061,59.2215 C73.8578403,59.2848336 74.0114221,59.3798327 74.1412561,59.5065 C74.2710901,59.6331673 74.3740057,59.7914991 74.4500061,59.9815 C74.5260065,60.1715009 74.5640061,60.3931654 74.5640061,60.6465 L74.5640062,66.1775511 L73.5950062,66.1775511 L73.5950062,65.6835511 Z M73.5960073,62.7370605 C73.4883401,62.7180605 72.8604736,63.0119019 72.7030073,63.4279175 C72.545541,63.8439331 72.5700073,64.2327636 72.5700073,64.4924316 C72.5700073,64.6760992 72.6143402,64.824931 72.7030073,64.9389316 C72.7916744,65.0529322 72.9151732,65.1099316 73.0735073,65.1099316 C73.2381748,65.1099316 73.3664235,65.0560988 73.4582573,64.9484316 C73.5500911,64.8407644 73.5960073,64.6887659 73.5960073,64.4924316 L73.5960073,62.7370605 Z M78.1504977,61.4404842 L77.2399902,61.4404842 L77.2384976,60.5325 C77.2321642,60.3678325 77.1799147,60.2443337 77.0817476,60.162 C76.9835804,60.0796663 76.8711649,60.0385 76.7444976,60.0385 C76.5924968,60.0385 76.4753313,60.0875828 76.3929976,60.18575 C76.3106638,60.2839172 76.2694976,60.3963327 76.2694976,60.523 C76.2694976,60.6116671 76.269989,61.235962 76.269989,61.235962 C76.3118349,62.031128 78.1504977,63.0733033 78.1504977,64.1764525 C78.1504977,64.5277897 78.150085,64.7011296 78.150085,64.8182372 C78.150085,65.0209049 78.1136687,65.2093196 78.040835,65.3834872 C77.9680013,65.5576547 77.8682523,65.7112365 77.741585,65.8442372 C77.6149177,65.9772378 77.4629192,66.0817368 77.285585,66.1577372 C77.1082507,66.2337376 76.915086,66.2717372 76.706085,66.2717372 C76.516084,66.2717372 76.3355858,66.2400708 76.164585,66.1767372 C75.9935841,66.1134035 75.8431689,66.0215711 75.713335,65.9012372 C75.583501,65.7809032 75.4774187,65.6304881 75.395085,65.4499872 C75.3127512,65.2694863 75.2684183,65.058905 75.262085,64.8182372 L75.262085,63.9843138 L76.1700134,63.9843138 L76.174085,64.8182372 C76.1930851,64.9512378 76.2390013,65.0747366 76.311835,65.1887372 C76.3846687,65.3027377 76.5129174,65.3597372 76.696585,65.3597372 C76.835919,65.3597372 76.9610011,65.313821 77.071835,65.2219872 C77.1826688,65.1301534 77.238085,65.0019047 77.238085,64.8372372 C77.238085,64.7707815 77.2380849,64.239868 77.2380849,64.239868 C77.2380849,63.5434569 75.3574976,62.4288942 75.3574976,61.4404842 C75.3168811,61.0662217 75.3574976,60.6884818 75.3574976,60.5325 C75.3574976,60.3298323 75.3954972,60.1414175 75.4714976,59.96725 C75.5474979,59.7930825 75.6504136,59.6442506 75.7802476,59.52075 C75.9100815,59.3972494 76.0604967,59.300667 76.2314976,59.231 C76.4024984,59.161333 76.5861632,59.1265 76.7824976,59.1265 C76.9788319,59.1265 77.1609134,59.1629163 77.3287476,59.23575 C77.4965817,59.3085837 77.6406636,59.4067494 77.7609976,59.53025 C77.8813315,59.6537506 77.9763305,59.8025825 78.0459976,59.97675 C78.1156646,60.1509175 78.1504976,60.3361657 78.1504976,60.5325 L78.1504977,61.4404842 Z M78.7200012,57.236 L79.6890012,57.236 L79.6890012,59.649 L79.7080012,59.649 C79.8093351,59.4969992 79.9312505,59.3719172 80.0737512,59.27375 C80.2162519,59.1755828 80.3983334,59.1265 80.6200012,59.1265 C80.7403352,59.1265 80.8606673,59.1470831 80.9810012,59.18825 C81.1013352,59.2294169 81.2090007,59.2974995 81.3040012,59.3925 C81.3990017,59.4875005 81.4750009,59.6094159 81.5320012,59.75825 C81.5890015,59.9070841 81.6175012,60.0891656 81.6175012,60.3045 L81.6175012,66.1497192 L80.6485012,66.1497192 L80.6485012,60.6655 C80.6485012,60.4881658 80.607335,60.3488338 80.5250012,60.2475 C80.4426675,60.1461662 80.325502,60.0955 80.1735012,60.0955 C79.9898336,60.0955 79.8631682,60.1524994 79.7935012,60.2665 C79.7238342,60.3805006 79.6890012,60.5451656 79.6890012,60.7605 L79.6890012,66.1497192 L78.7200012,66.1497192 L78.7200012,57.236 Z" id="electronic-cash" fill="#000000" opacity="0.751107743"/>
            <path d="M69.3190061,64.8668822 C69.3190061,65.018883 69.3617557,65.1360484 69.4472561,65.2183822 C69.5327566,65.3007159 69.6483387,65.3418822 69.7940061,65.3418822 C69.9776737,65.3418822 70.0995892,65.2880494 70.1597561,65.1803822 C70.2199231,65.072715 70.2563394,64.9650494 70.2690061,64.8573822 L70.2690061,63.5526732 L71.2380061,63.5526732 L71.2380061,64.8573822 C71.2380061,65.0600499 71.2047565,65.250048 71.1382561,65.4273822 C71.0717558,65.6047164 70.9751734,65.7567149 70.8485061,65.8833822 C70.7218388,66.0163829 70.5698403,66.1208818 70.3925061,66.1968822 C70.2151719,66.2728826 70.0156739,66.3108822 69.7940061,66.3108822 C69.496338,66.3108822 69.2398405,66.2475495 69.0245061,66.1208822 C68.8091717,65.9942149 68.6445067,65.8263832 68.5305061,65.6173822 C68.4608391,65.4907149 68.4133396,65.3450497 68.3880061,65.1803822 C68.3626727,65.0157147 68.3500061,64.8352165 68.3500061,64.6388822 L68.3500061,60.7985 C68.3500061,60.6021657 68.3626726,60.4216675 68.3880061,60.257 C68.4133396,60.0923325 68.4608391,59.9466673 68.5305061,59.82 C68.6445067,59.610999 68.8091717,59.4431673 69.0245061,59.3165 C69.2398405,59.1898327 69.4963379,59.1265 69.7940061,59.1265 C70.0156739,59.1265 70.2167552,59.1644996 70.3972561,59.2405 C70.577757,59.3165004 70.7297555,59.4225827 70.8532561,59.55875 C70.9767567,59.6949173 71.0717558,59.857999 71.1382561,60.048 C71.2047564,60.238001 71.2380061,60.4438322 71.2380061,60.6655 L71.2380061,61.796631 L70.2690061,61.796631 L70.2690061,60.6655 C70.2690061,60.4691657 70.2262565,60.3250838 70.1407561,60.23325 C70.0552557,60.1414162 69.9396735,60.0955 69.7940061,60.0955 C69.6483387,60.0955 69.5327565,60.1414162 69.4472561,60.23325 C69.3617557,60.3250838 69.3190061,60.4628324 69.3190061,60.6465 L69.3190061,64.8668822 Z" id="Path" fill="#CA4738" opacity="0.751107743"/>
            <path d="M38.1689969,63.0645753 L38.1689969,64.8768309 C38.1689969,65.0288317 38.2117465,65.1459972 38.2972469,65.2283309 C38.3827474,65.3106647 38.4983296,65.3518309 38.6439969,65.3518309 C38.8276645,65.3518309 38.94958,65.2979981 39.0097469,65.1903309 C39.0699139,65.0826637 39.1063302,64.9749981 39.1189969,64.8673309 L39.118997,63.9892577 L40.087997,63.9892577 L40.0879969,64.8673309 C40.0879969,65.0699986 40.0547473,65.2599967 39.9882469,65.4373309 C39.9217466,65.6146651 39.8251642,65.7666636 39.6984969,65.8933309 C39.5718296,66.0263316 39.4198312,66.1308305 39.2424969,66.2068309 C39.0651627,66.2828313 38.8656647,66.3208309 38.6439969,66.3208309 C38.3463288,66.3208309 38.0898314,66.2574982 37.8744969,66.1308309 C37.6591625,66.0041636 37.4944975,65.836332 37.3804969,65.6273309 C37.3108299,65.5006636 37.2633304,65.3549984 37.2379969,65.1903309 C37.2126635,65.0256634 37.1999969,64.8451652 37.1999969,64.6488309 L37.199997,60.7985 C37.199997,60.6021657 37.2126635,60.4216675 37.237997,60.257 C37.2633304,60.0923325 37.31083,59.9466673 37.380497,59.82 C37.4944975,59.610999 37.6591626,59.4431673 37.874497,59.3165 C38.0898314,59.1898327 38.3463288,59.1265 38.643997,59.1265 C38.8656647,59.1265 39.0667461,59.1644996 39.247247,59.2405 C39.4277479,59.3165004 39.5797463,59.4225827 39.703247,59.55875 C39.8267476,59.6949173 39.9217466,59.8548324 39.988247,60.0385 C40.0547473,60.2221676 40.087997,60.418499 40.087997,60.6275 L40.0879969,63.0645753 L38.1689969,63.0645753 Z M38.1699982,61.8731079 L39.1199982,61.8731079 L39.1199982,60.8067017 C39.1199982,60.6230341 39.0772486,60.4852855 38.9917482,60.3934517 C38.9062477,60.3016179 38.7906656,60.2557017 38.6449982,60.2557017 C38.4993308,60.2557017 38.3837486,60.3016179 38.2982482,60.3934517 C38.2127477,60.4852855 38.1699982,60.6230341 38.1699982,60.8067017 L38.1699982,61.8731079 Z" id="Combined-Shape" fill="#4186CD" opacity="0.751107743"/>
        </g>
    </g>

	
	<metadata>
		<rdf:RDF xmlns:rdf="http://www.w3.org/1999/02/22-rdf-syntax-ns#" xmlns:rdfs="http://www.w3.org/2000/01/rdf-schema#" xmlns:dc="http://purl.org/dc/elements/1.1/">
			<rdf:Description about="https://iconscout.com/legal#licenses" dc:title="Payment, Electronic, Cash, Card, Bank, Transaction" dc:description="Payment, Electronic, Cash, Card, Bank, Transaction" dc:publisher="Iconscout" dc:date="2016-12-14" dc:format="image/svg+xml" dc:language="en">
				<dc:creator>
					<rdf:Bag>
						<rdf:li>Linh Pham</rdf:li>
					</rdf:Bag>
				</dc:creator>
			</rdf:Description>
		</rdf:RDF>
    </metadata></svg>
