<?xml version="1.0" encoding="UTF-8" standalone="no"?>
<svg xmlns="http://www.w3.org/2000/svg" xmlns:xlink="http://www.w3.org/1999/xlink" width="120px" height="76px" viewBox="0 0 120 76" version="1.1">
    
    <title>payment_023-payza-card</title>
    <desc>Created with Sketch.</desc>
    <defs/>
    <g id="round-rect" stroke="none" stroke-width="1" fill="none" fill-rule="evenodd">
        <g id="payment_023-payza-card">
            <path d="M111.998561,0 L8.0014394,0 C3.58236644,0 0,3.58906554 0,8.00758637 L0,67.9924136 C0,72.4148815 3.59136164,76 8.0014394,76 L111.998561,76 C116.417634,76 120,72.4109345 120,67.9924136 L120,8.00758637 C120,3.58511853 116.408638,0 111.998561,0 Z" id="bg" fill="#F4F4F4"/>
            <g id="Group-2" transform="translate(11.000000, 23.000000)">
                <path d="M13.1150332,24.364239 C7.3238178,23.9741488 0.204474664,20.358637 0.204473919,11.0466517 C0.20447349,1.73466645 10.0605083,0.0131553142 12.5668663,0.0131553185 C15.0732244,0.0131553229 25.9999998,1.65795193 26,9.70871757 C25.9999999,17.7594832 15.6074981,19.6961849 8.88422862,18.4885208 C8.17226986,22.0422737 13.1150332,24.364239 13.1150332,24.364239 Z M6.90336972,9.47712414 C7.17367497,13.0936002 9.81360173,14.6211519 12.9717153,14.6211519 C16.1298288,14.6211519 20.1310318,12.2673424 20.1310318,9.47712414 C20.1310317,6.68690585 15.5394953,4.66842466 12.9717153,4.66842441 C10.4039352,4.66842416 6.63306425,5.86064806 6.90336972,9.47712414 Z" id="Path-209" fill="#1AAF5D"/>
                <path d="M39.270036,17.5980952 L36.641223,17.5980952 L36.641223,23.6552381 L33.1079137,23.6552381 C33.1079137,23.6552381 33.1079136,11.3085714 33.1079137,9.05904762 C33.1079138,6.80952381 34.9936443,6.80952381 34.9936443,6.80952381 L39.5356115,6.80952381 C43.113424,7.07571429 45.1473381,10.3257052 45.1473381,12.1466667 C45.1473381,14.135248 43.1535971,17.5980952 39.270036,17.5980952 Z M37.9844964,8.76 L36.641223,8.76 L36.641223,15.6704762 L37.9844964,15.6704762 C38.8235653,15.6704762 39.4759509,15.4685734 39.9416727,15.0647619 C40.4073944,14.6609504 40.6402518,13.0457187 40.6402518,12.1695238 C40.6402518,11.293329 40.4073944,9.6933352 39.9416727,9.32 C39.4759509,8.9466648 38.8235653,8.76 37.9844964,8.76 Z M54.7811871,15.792381 C55.2507577,15.5942847 55.4855396,15.2857164 55.4855396,14.8666667 C55.4855396,14.3561879 55.3065665,14.0038105 54.9486151,13.8095238 C54.5906637,13.6152371 54.0652912,13.5180952 53.372482,13.5180952 C52.5949961,13.5180952 52.0446059,13.7085695 51.721295,14.0895238 C51.4903586,14.37143 51.3364033,14.7523786 51.2594245,15.232381 L48.0840647,15.232381 C48.1533457,14.1428517 48.4612563,13.2476226 49.0078058,12.5466667 C49.8776662,11.4495183 51.3710326,10.9009524 53.4879496,10.9009524 C54.8658702,10.9009524 56.0898148,11.1714259 57.1598201,11.712381 C58.2298255,12.253336 58.7648201,13.2742782 58.7648201,14.7752381 L58.7648201,20.4895238 C58.7648201,20.6542401 58.7679086,21.3184421 58.3267648,21.7728571 C57.7068249,22.4114474 56.5451002,23.239446 56.1987927,23.4397619 C55.4905877,23.8435734 52.5103282,24.0438095 51.6173741,24.0438095 C50.4780878,24.0438095 49.5370361,23.721908 48.7941906,23.0780952 C48.0513452,22.4342825 47.6799281,21.5219107 47.6799281,20.3409524 C47.6799281,18.8095162 48.2765048,17.7009558 49.4696763,17.0152381 C50.1239961,16.6419029 51.0862167,16.3752389 52.3563669,16.2152381 L53.4764029,16.0780952 C54.0845354,16.0019044 54.5194591,15.9066672 54.7811871,15.792381 Z M55.4739928,17.5980952 C55.26615,17.7276197 55.056386,17.8323806 54.8446942,17.912381 C54.6330025,17.9923814 54.3424119,18.0666663 53.9729137,18.1352381 L53.2339209,18.272381 C52.5411116,18.3942863 52.0446058,18.5428563 51.7443885,18.7180952 C51.2363284,19.0152396 50.9823022,19.4761874 50.9823022,20.1009524 C50.9823022,20.6571456 51.1381819,21.0590464 51.449946,21.3066667 C51.7617102,21.554287 52.1408251,21.6780952 52.5873022,21.6780952 C53.2955071,21.6780952 53.9478927,21.472383 54.5444784,21.0609524 C55.1410641,20.6495218 55.4508992,19.8990531 55.4739928,18.8095238 C55.4739928,18.8095238 55.4508992,19.8990531 55.4739928,18.8095238 L55.4739928,17.5980952 Z M64.7330531,24.192381 L60.3929137,11.1980952 L64.0532374,11.1980952 L66.8013669,20.3866667 L69.3993885,11.1980952 L72.8980576,11.1980952 L68.8369649,23.3609524 C68.0055939,25.722869 66.5685096,27.6780924 66.0835432,28.2457143 C66.0835432,28.2457143 62.5483111,28.6723811 62.1942086,28.6495238 C62.1942086,28.6495238 64.7638446,24.28381 64.7330531,24.192381 Z M74.1220144,11.1980952 L83.3440288,11.1980952 L79.129701,20.9809524 L83.5634173,20.9809524 L83.5634173,23.6552381 L73.6832374,23.6552381 L78.6233273,13.8495238 L74.1220144,13.8495238 L74.1220144,11.1980952 Z M92.9085971,15.792381 C93.3781678,15.5942847 93.6129496,15.2857164 93.6129496,14.8666667 C93.6129496,14.3561879 93.4339766,14.0038105 93.0760252,13.8095238 C92.7180737,13.6152371 92.1927013,13.5180952 91.4998921,13.5180952 C90.7224062,13.5180952 90.172016,13.7085695 89.848705,14.0895238 C89.6177686,14.37143 89.4638133,14.7523786 89.3868345,15.232381 L86.2114748,15.232381 C86.2807557,14.1428517 86.5886663,13.2476226 87.1352158,12.5466667 C88.0050763,11.4495183 89.4984427,10.9009524 91.6153597,10.9009524 C92.9932803,10.9009524 94.2172249,11.1714259 95.2872302,11.712381 C96.3572356,12.253336 96.8922302,13.2742782 96.8922302,14.7752381 L96.8922302,20.4895238 C96.8922302,20.8857163 96.899928,21.3657115 96.9153237,21.9295238 C96.9384174,22.3561926 95.3779204,23.1121429 94.3877855,23.4771429 C93.6372183,23.7538293 90.6377383,24.0438095 89.7447842,24.0438095 C88.6054979,24.0438095 87.6644462,23.721908 86.9216007,23.0780952 C86.1787553,22.4342825 85.8073381,21.5219107 85.8073381,20.3409524 C85.8073381,18.8095162 86.4039149,17.7009558 87.5970863,17.0152381 C88.2514061,16.6419029 89.2136267,16.3752389 90.483777,16.2152381 L91.6038129,16.0780952 C92.2119455,16.0019044 92.6468692,15.9066672 92.9085971,15.792381 Z M93.6014029,17.5980952 C93.3935601,17.7276197 93.183796,17.8323806 92.9721043,17.912381 C92.7604126,17.9923814 92.469822,18.0666663 92.1003237,18.1352381 L91.3613309,18.272381 C90.6685217,18.3942863 90.1720159,18.5428563 89.8717986,18.7180952 C89.3637385,19.0152396 89.1097122,19.4761874 89.1097122,20.1009524 C89.1097122,20.6571456 89.265592,21.0590464 89.5773561,21.3066667 C89.8891203,21.554287 90.2682352,21.6780952 90.7147122,21.6780952 C91.4229172,21.6780952 92.0753028,21.472383 92.6718885,21.0609524 C93.2684742,20.6495218 93.5783092,19.8990531 93.6014029,18.8095238 C93.6014029,18.8095238 93.5783092,19.8990531 93.6014029,18.8095238 L93.6014029,17.5980952 Z" id="Payza" fill="#000000"/>
            </g>
        </g>
    </g>

	
	<metadata>
		<rdf:RDF xmlns:rdf="http://www.w3.org/1999/02/22-rdf-syntax-ns#" xmlns:rdfs="http://www.w3.org/2000/01/rdf-schema#" xmlns:dc="http://purl.org/dc/elements/1.1/">
			<rdf:Description about="https://iconscout.com/legal#licenses" dc:title="Payment, Payza, Card, Pay, Bank, Methods, Transaction" dc:description="Payment, Payza, Card, Pay, Bank, Methods, Transaction" dc:publisher="Iconscout" dc:date="2016-12-14" dc:format="image/svg+xml" dc:language="en">
				<dc:creator>
					<rdf:Bag>
						<rdf:li>Linh Pham</rdf:li>
					</rdf:Bag>
				</dc:creator>
			</rdf:Description>
		</rdf:RDF>
    </metadata></svg>
