<?xml version="1.0" encoding="UTF-8" standalone="no"?>
<svg xmlns="http://www.w3.org/2000/svg" xmlns:xlink="http://www.w3.org/1999/xlink" width="120px" height="76px" viewBox="0 0 120 76" version="1.1">
    
    <title>payment_026-visa_delta-card</title>
    <desc>Created with Sketch.</desc>
    <defs/>
    <g id="round-rect" stroke="none" stroke-width="1" fill="none" fill-rule="evenodd">
        <g id="payment_026-visa_delta-card">
            <path d="M111.998561,0 L8.0014394,0 C3.58236644,0 0,3.58906554 0,8.00758637 L0,67.9924136 C0,72.4148815 3.59136164,76 8.0014394,76 L111.998561,76 C116.417634,76 120,72.4109345 120,67.9924136 L120,8.00758637 C120,3.58511853 116.408638,0 111.998561,0 Z" id="bg" fill="#F4F4F4"/>
            <path d="M2.90198617,1.83792458 C4.28652533,0.690218814 6.06352819,0 8.0014394,0 L111.998561,0 C116.408638,0 120,3.58511853 120,8.00758637 L120,67.9924136 C120,70.4732654 118.870678,72.6926357 117.098014,74.1620754 L2.90198617,1.83792458 Z" id="Combined-Shape" fill="#227FBB"/>
            <polygon id="path3231" fill="#F59D00" points="0 37.5 60 37.5 60 75 0 37.6387276"/>
            <polygon id="path3229" fill="#E94B35" points="0 56 29.72 56 29.7199993 75"/>
            <g id="Group" transform="translate(48.080000, 16.760000)" fill="#FFFFFF">
                <path d="M8.32278025,10.4623686 C8.88184739,10.2036816 9.60716275,9.50544142 9.9345856,8.91072372 C10.3567251,8.14391063 10.5300822,7.25935874 10.5305247,5.86944102 C10.5305247,4.65588488 10.3347494,3.4740607 10.0154384,2.76615133 C9.72034486,2.11205299 9.05791829,1.37844184 8.46725927,1.05168177 C7.70799223,0.631640076 6.71295125,0.480398802 4.70632114,0.480023141 L0.512573242,0.479370117 L0.512573242,5.70596328 L0.512573242,10.9325565 L4.64204597,10.9325562 C6.29349603,10.9327032 7.6927125,10.7539047 8.32278025,10.4623686 Z M3.81270108,5.68284342 L3.81270108,3.23902344 C3.81270108,3.23902344 7.21016107,2.65779147 7.21016107,5.68284344 C7.21016107,8.7078954 3.81270108,8.17774427 3.81270108,8.17774427 C3.81270108,8.17774427 3.81270108,8.44125184 3.81270108,5.68284342 Z" id="Path"/>
                <polygon id="Path" points="24.9965376 10.888392 24.9965376 8.15210915 19.419878 8.15210937 19.4198779 6.91993164 24.3630023 6.91993141 24.3630023 4.42127442 19.4255797 4.50555465 19.419878 3.29240642 24.8181929 3.2342627 24.8181929 0.435058594 16.1269173 0.435058594 16.1269173 5.66172526 16.1269173 10.8883919"/>
                <polygon id="Path" points="38.5868699 10.898569 38.5868701 8.11951637 33.9476364 8.11951637 33.9476365 0.463022461 30.628252 0.463022105 30.6282517 10.8985686"/>
                <polygon id="Path" points="47.8853322 10.8243509 47.8853322 3.25245127 50.8553031 3.25245127 50.8553028 0.443561169 41.7224899 0.443561169 41.7224902 3.25245127 44.5689257 3.25245127 44.5689257 10.8243509"/>
                <path d="M57.9460621,9.40314696 L61.2096119,9.40314696 L61.6884327,10.8605444 L65.0736866,10.8605444 L61.2830372,0.470346669 L58.1137257,0.470346669 L54.1497974,10.8605444 L57.5130177,10.8605444 L57.9460621,9.40314696 Z M58.7523975,7.16822695 L59.6782397,4.20856689 L60.5558643,7.16822695 L58.7523975,7.16822695 Z" id="Path"/>
            </g>
        </g>
    </g>

	
	<metadata>
		<rdf:RDF xmlns:rdf="http://www.w3.org/1999/02/22-rdf-syntax-ns#" xmlns:rdfs="http://www.w3.org/2000/01/rdf-schema#" xmlns:dc="http://purl.org/dc/elements/1.1/">
			<rdf:Description about="https://iconscout.com/legal#licenses" dc:title="Payment, Visa, Delta, Card, Bank, Transaction" dc:description="Payment, Visa, Delta, Card, Bank, Transaction" dc:publisher="Iconscout" dc:date="2016-12-14" dc:format="image/svg+xml" dc:language="en">
				<dc:creator>
					<rdf:Bag>
						<rdf:li>Linh Pham</rdf:li>
					</rdf:Bag>
				</dc:creator>
			</rdf:Description>
		</rdf:RDF>
    </metadata></svg>
