<?xml version="1.0" encoding="UTF-8" standalone="no"?>
<svg xmlns="http://www.w3.org/2000/svg" xmlns:xlink="http://www.w3.org/1999/xlink" width="120px" height="76px" viewBox="0 0 120 76" version="1.1">
    
    <title>payment_030-amazon-card</title>
    <desc>Created with Sketch.</desc>
    <defs/>
    <g id="round-rect" stroke="none" stroke-width="1" fill="none" fill-rule="evenodd">
        <g id="payment_030-amazon-card">
            <path d="M111.998561,0 L8.0014394,0 C3.58236644,0 0,3.58906554 0,8.00758637 L0,67.9924136 C0,72.4148815 3.59136164,76 8.0014394,76 L111.998561,76 C116.417634,76 120,72.4109345 120,67.9924136 L120,8.00758637 C120,3.58511853 116.408638,0 111.998561,0 Z" id="bg" fill="#F4F4F4"/>
            <path d="M76.792202,61.5538271 C72.234978,64.9005155 65.62956,66.6860948 59.9424182,66.6860948 C51.9681279,66.6860948 44.7892203,63.7475413 39.3580992,58.860154 C38.9313935,58.4758271 39.3137203,57.9520589 39.8257698,58.2513545 C45.6870081,61.6490591 52.934193,63.6931235 60.420331,63.6931235 C65.4691186,63.6931235 71.0231303,62.6523837 76.1299533,60.4926833 C76.9014389,60.1661757 77.5466186,60.9960464 76.792202,61.5538271" id="path8" fill="#E87E04"/>
            <path d="M78.6867801,59.3941268 C78.1064572,58.6526864 74.8361798,59.0438137 73.36831,59.2172701 C72.9211199,59.2716879 72.8528491,58.883962 73.2556577,58.6050691 C75.8602749,56.7786768 80.1341681,57.3058479 80.6325613,57.9180464 C81.130952,58.5336477 80.5028426,62.8020347 78.0552527,64.8392935 C77.6797514,65.1521951 77.3213178,64.985543 77.4885887,64.5706064 C78.038185,63.2033627 79.2705145,60.1389687 78.6867801,59.3941268" id="path10" fill="#E87E04"/>
            <path d="M64.5501689,34.4913281 C64.5501689,37.7068534 64.6317196,40.3883942 63.000555,43.2440643 C61.6839587,45.56575 59.5983908,46.9935828 57.2681443,46.9935828 C54.0873579,46.9935828 52.234816,44.5790276 52.234816,41.0152482 C52.234816,33.9805589 58.561431,32.7036357 64.5501689,32.7036357 L64.5501689,34.4913281 M72.9040975,54.6086869 C72.3564904,55.096241 71.5642003,55.131066 70.9466864,54.8060358 C68.1970029,52.5307893 67.7076456,51.4744258 66.1929857,49.3036543 C61.6490052,53.9237972 58.4332742,55.3051908 52.5377444,55.3051908 C45.5703058,55.3051908 40.1408413,51.0216923 40.1408413,42.4430899 C40.1408413,35.7450361 43.7876752,31.1829333 48.97247,28.9541216 C53.4698439,26.9806857 59.7498572,26.6324404 64.5501689,26.0868461 L64.5501689,25.0188728 C64.5501689,23.0570467 64.7016354,20.7353654 63.5481625,19.040547 C62.5344986,17.5198402 60.6004016,16.8929862 58.8993173,16.8929862 C55.7418406,16.8929862 52.9222368,18.5065537 52.234816,21.8497735 C52.0949977,22.5927166 51.5473907,23.3240456 50.8017155,23.3588705 L42.762368,22.4998427 C42.0865953,22.3489418 41.3409158,21.8033387 41.5273356,20.7701993 C43.379882,11.0655745 52.1765573,8.14025003 60.0527946,8.14025003 C64.0841125,8.14025003 69.3504668,9.20822332 72.5312533,12.2496237 C76.5625841,15.9991378 76.1780872,21.0023599 76.1780872,26.4467057 L76.1780872,39.3088155 C76.1780872,43.1744188 77.7859638,44.8692372 79.3006238,46.9587579 C79.8365782,47.7016877 79.9530912,48.5955361 79.2773186,49.1527402 C77.5878913,50.5573623 74.5818766,53.1692531 72.9273939,54.6319109 L72.9040975,54.6086648" id="path30" fill="#221F1F"/>
        </g>
    </g>

	
	<metadata>
		<rdf:RDF xmlns:rdf="http://www.w3.org/1999/02/22-rdf-syntax-ns#" xmlns:rdfs="http://www.w3.org/2000/01/rdf-schema#" xmlns:dc="http://purl.org/dc/elements/1.1/">
			<rdf:Description about="https://iconscout.com/legal#licenses" dc:title="Payment, Amazon, Card, Pay, Bank, Transaction" dc:description="Payment, Amazon, Card, Pay, Bank, Transaction" dc:publisher="Iconscout" dc:date="2016-12-14" dc:format="image/svg+xml" dc:language="en">
				<dc:creator>
					<rdf:Bag>
						<rdf:li>Linh Pham</rdf:li>
					</rdf:Bag>
				</dc:creator>
			</rdf:Description>
		</rdf:RDF>
    </metadata></svg>
