<?xml version="1.0" encoding="UTF-8" standalone="no"?>
<svg xmlns="http://www.w3.org/2000/svg" xmlns:xlink="http://www.w3.org/1999/xlink" width="120px" height="76px" viewBox="0 0 120 76" version="1.1">
    
    <title>payment_025-solo-card</title>
    <desc>Created with Sketch.</desc>
    <defs/>
    <g id="round-rect" stroke="none" stroke-width="1" fill="none" fill-rule="evenodd">
        <g id="payment_025-solo-card">
            <path d="M111.998561,0 L8.0014394,0 C3.58236644,0 0,3.58906554 0,8.00758637 L0,67.9924136 C0,72.4148815 3.59136164,76 8.0014394,76 L111.998561,76 C116.417634,76 120,72.4109345 120,67.9924136 L120,8.00758637 C120,3.58511853 116.408638,0 111.998561,0 Z" id="bg" fill="#9C56B8"/>
            <g id="logo" transform="translate(36.000000, 7.000000)">
                <circle id="Oval-2" fill="#FFFFFF" cx="24.5" cy="24.5" r="24.5"/>
                <ellipse id="Oval-2" fill="#9C56B8" cx="24.5" cy="24.5" rx="23.03" ry="23.03"/>
                <g id="Oval-16-+-Oval-16" transform="translate(24.895980, 24.429289) rotate(-45.000000) translate(-24.895980, -24.429289) translate(8.395980, 12.929289)">
                    <path d="M32.34,11.27 C32.34,5.04575056 27.1845592,8.52651283e-14 20.825,8.52651283e-14 C14.4654408,8.52651283e-14 9.31,5.04575056 9.31,11.27 L12.74,11.27 C12.74,6.94008735 16.3597776,3.43 20.825,3.43 C25.2902224,3.43 28.91,6.94008735 28.91,11.27 L32.34,11.27 Z" id="Oval-16" fill="#000000"/>
                    <path d="M23.03,22.54 C23.03,16.3157506 17.8745592,11.27 11.515,11.27 C5.15544079,11.27 -5.68434189e-14,16.3157506 -5.68434189e-14,22.54 L3.43,22.54 C3.43,18.2100873 7.04977758,14.7 11.515,14.7 C15.9802224,14.7 19.6,18.2100873 19.6,22.54 L23.03,22.54 Z" id="Oval-16" fill="#FFFFFF" transform="translate(11.515000, 16.905000) scale(1, -1) translate(-11.515000, -16.905000) "/>
                </g>
                <path d="M12.1418537,58.7025 C12.1165202,59.2281693 12.2463523,59.5986656 12.5313537,59.814 C12.8163551,60.0293344 13.2058512,60.137 13.6998537,60.137 C13.8581878,60.137 14.0276028,60.1180002 14.2081037,60.08 C14.3886046,60.0419998 14.5516863,59.9802504 14.6973537,59.89475 C14.8430211,59.8092496 14.9649365,59.6984173 15.0631037,59.56225 C15.1612708,59.4260827 15.2103537,59.2566677 15.2103537,59.054 C15.2103537,58.863999 15.1644375,58.7056673 15.0726037,58.579 C14.9807699,58.4523327 14.8604378,58.3462504 14.7116037,58.26075 C14.5627696,58.1752496 14.390188,58.102417 14.1938537,58.04225 C13.9975194,57.982083 13.7948547,57.9235003 13.5858537,57.8665 C13.4338529,57.8284998 13.2533547,57.7762503 13.0443537,57.70975 C12.8353526,57.6432497 12.632688,57.545084 12.4363537,57.41525 C12.2400194,57.285416 12.073771,57.116001 11.9376037,56.907 C11.8014363,56.697999 11.7333537,56.4320016 11.7333537,56.109 C11.7333537,55.8049985 11.7903531,55.523168 11.9043537,55.2635 C12.0183543,55.003832 12.1830193,54.7805843 12.3983537,54.59375 C12.6136881,54.4069157 12.8781021,54.2612505 13.1916037,54.15675 C13.5051053,54.0522495 13.8613517,54 14.2603537,54 C14.6150221,54 14.9475188,54.0379996 15.2578537,54.114 C15.5681886,54.1900004 15.8373525,54.3134991 16.0653537,54.4845 C16.2933548,54.6555009 16.4706864,54.8787486 16.5973537,55.15425 C16.724021,55.4297514 16.7810204,55.766998 16.7683537,56.166 L15.6283537,56.166 C15.6220203,55.7416645 15.5048548,55.4360843 15.2768537,55.24925 C15.0488525,55.0624157 14.7036893,54.969 14.2413537,54.969 C14.1590199,54.969 14.0450211,54.9784999 13.8993537,54.9975 C13.7536863,55.0165001 13.6080211,55.060833 13.4623537,55.1305 C13.3166863,55.200167 13.1900209,55.299916 13.0823537,55.42975 C12.9746865,55.559584 12.9208537,55.7384989 12.9208537,55.9665 C12.9208537,56.1311675 12.9588533,56.2673328 13.0348537,56.375 C13.1108541,56.4826672 13.2137697,56.5744996 13.3436037,56.6505 C13.4734377,56.7265004 13.6238528,56.7898331 13.7948537,56.8405 C13.9658545,56.8911669 14.1463527,56.9386664 14.3363537,56.983 C14.5770216,57.0463337 14.8192691,57.1159996 15.0631037,57.192 C15.3069382,57.2680004 15.5286027,57.3740827 15.7281037,57.51025 C15.9276047,57.6464173 16.0891031,57.8253322 16.2126037,58.047 C16.3361043,58.2686678 16.3978537,58.5568316 16.3978537,58.9115 C16.3978537,59.1775013 16.3471875,59.440332 16.2458537,59.7 C16.1445198,59.959668 15.9814381,60.193999 15.7566037,60.403 C15.5317692,60.612001 15.2404388,60.781416 14.8826037,60.91125 C14.5247686,61.041084 14.0893563,61.106 13.5763537,61.106 C13.1773517,61.106 12.8163553,61.0600838 12.4933537,60.96825 C12.1703521,60.8764162 11.8964381,60.7339176 11.6716037,60.54075 C11.4467692,60.3475824 11.2757709,60.0990015 11.1586037,59.795 C11.0414364,59.4909985 10.989187,59.1268355 11.0018537,58.7025 L12.1418537,58.7025 Z M18.5163537,58.104 C18.5163537,58.7373365 18.6778521,59.2344982 19.0008537,59.5955 C19.3238553,59.9565018 19.7830174,60.137 20.3783537,60.137 C20.7710223,60.137 21.1146022,60.0451676 21.4091037,59.8615 C21.7036052,59.6778324 21.9506027,59.4371682 22.1501037,59.1395 C22.3496047,58.8418318 22.4984365,58.5061685 22.5966037,58.1325 C22.6947708,57.7588315 22.7438537,57.3820019 22.7438537,57.002 C22.7438537,56.3686635 22.5902719,55.8715018 22.2831037,55.5105 C21.9759355,55.1494982 21.52469,54.969 20.9293537,54.969 C20.5240183,54.969 20.1709385,55.0608324 19.8701037,55.2445 C19.5692689,55.4281676 19.3191047,55.6688318 19.1196037,55.9665 C18.9201027,56.2641682 18.7696875,56.5998315 18.6683537,56.9735 C18.5670198,57.3471685 18.5163537,57.7239981 18.5163537,58.104 L18.5163537,58.104 Z M17.3288537,58.142 C17.3288537,57.4326631 17.434936,56.8167526 17.6471037,56.29425 C17.8592714,55.7717474 18.1379353,55.341085 18.4831037,55.00225 C18.8282721,54.663415 19.2177682,54.4116675 19.6516037,54.247 C20.0854392,54.0823325 20.5240181,54 20.9673537,54 C21.4106892,54 21.8160185,54.0728326 22.1833537,54.2185 C22.5506889,54.3641674 22.8626024,54.5684154 23.1191037,54.83125 C23.375605,55.0940846 23.575103,55.4059982 23.7176037,55.767 C23.8601044,56.1280018 23.9313537,56.5269978 23.9313537,56.964 C23.9313537,57.6796702 23.8300214,58.2971641 23.6273537,58.8165 C23.424686,59.3358359 23.155522,59.764915 22.8198537,60.10375 C22.4841853,60.442585 22.1010225,60.6943325 21.6703537,60.859 C21.2396849,61.0236675 20.796356,61.106 20.3403537,61.106 C19.8526846,61.106 19.4220222,61.0300008 19.0483537,60.878 C18.6746852,60.7259992 18.3611883,60.5170013 18.1078537,60.251 C17.8545191,59.9849987 17.6613544,59.6715018 17.5283537,59.3105 C17.395353,58.9494982 17.3288537,58.5600021 17.3288537,58.142 L17.3288537,58.142 Z M25.6888537,54.1615 L26.8763537,54.1615 L25.6793537,59.9185 L29.0993537,59.9185 L28.8903537,60.9445 L24.2828537,60.9445 L25.6888537,54.1615 Z M31.1798537,58.104 C31.1798537,58.7373365 31.3413521,59.2344982 31.6643537,59.5955 C31.9873553,59.9565018 32.4465174,60.137 33.0418537,60.137 C33.4345223,60.137 33.7781022,60.0451676 34.0726037,59.8615 C34.3671052,59.6778324 34.6141027,59.4371682 34.8136037,59.1395 C35.0131047,58.8418318 35.1619365,58.5061685 35.2601037,58.1325 C35.3582708,57.7588315 35.4073537,57.3820019 35.4073537,57.002 C35.4073537,56.3686635 35.2537719,55.8715018 34.9466037,55.5105 C34.6394355,55.1494982 34.18819,54.969 33.5928537,54.969 C33.1875183,54.969 32.8344385,55.0608324 32.5336037,55.2445 C32.2327689,55.4281676 31.9826047,55.6688318 31.7831037,55.9665 C31.5836027,56.2641682 31.4331875,56.5998315 31.3318537,56.9735 C31.2305198,57.3471685 31.1798537,57.7239981 31.1798537,58.104 L31.1798537,58.104 Z M29.9923537,58.142 C29.9923537,57.4326631 30.098436,56.8167526 30.3106037,56.29425 C30.5227714,55.7717474 30.8014353,55.341085 31.1466037,55.00225 C31.4917721,54.663415 31.8812682,54.4116675 32.3151037,54.247 C32.7489392,54.0823325 33.1875181,54 33.6308537,54 C34.0741892,54 34.4795185,54.0728326 34.8468537,54.2185 C35.2141889,54.3641674 35.5261024,54.5684154 35.7826037,54.83125 C36.039105,55.0940846 36.238603,55.4059982 36.3811037,55.767 C36.5236044,56.1280018 36.5948537,56.5269978 36.5948537,56.964 C36.5948537,57.6796702 36.4935214,58.2971641 36.2908537,58.8165 C36.088186,59.3358359 35.819022,59.764915 35.4833537,60.10375 C35.1476853,60.442585 34.7645225,60.6943325 34.3338537,60.859 C33.9031849,61.0236675 33.459856,61.106 33.0038537,61.106 C32.5161846,61.106 32.0855222,61.0300008 31.7118537,60.878 C31.3381852,60.7259992 31.0246883,60.5170013 30.7713537,60.251 C30.5180191,59.9849987 30.3248544,59.6715018 30.1918537,59.3105 C30.058853,58.9494982 29.9923537,58.5600021 29.9923537,58.142 L29.9923537,58.142 Z" id="SOLO" fill="#FFFFFF"/>
            </g>
        </g>
    </g>

	
	<metadata>
		<rdf:RDF xmlns:rdf="http://www.w3.org/1999/02/22-rdf-syntax-ns#" xmlns:rdfs="http://www.w3.org/2000/01/rdf-schema#" xmlns:dc="http://purl.org/dc/elements/1.1/">
			<rdf:Description about="https://iconscout.com/legal#licenses" dc:title="Payment, Solo, Card, Pay, Money" dc:description="Payment, Solo, Card, Pay, Money" dc:publisher="Iconscout" dc:date="2016-12-14" dc:format="image/svg+xml" dc:language="en">
				<dc:creator>
					<rdf:Bag>
						<rdf:li>Linh Pham</rdf:li>
					</rdf:Bag>
				</dc:creator>
			</rdf:Description>
		</rdf:RDF>
    </metadata></svg>
