<?xml version="1.0" encoding="UTF-8" standalone="no"?>
<svg xmlns="http://www.w3.org/2000/svg" xmlns:xlink="http://www.w3.org/1999/xlink" width="120px" height="76px" viewBox="0 0 120 76" version="1.1">
    
    <title>payment_029-discover-card</title>
    <desc>Created with Sketch.</desc>
    <defs/>
    <g id="round-rect" stroke="none" stroke-width="1" fill="none" fill-rule="evenodd">
        <g id="payment_029-discover-card">
            <path d="M111.998561,0 L8.0014394,0 C3.58236644,0 0,3.58906554 0,8.00758637 L0,67.9924136 C0,72.4148815 3.59136164,76 8.0014394,76 L111.998561,76 C116.417634,76 120,72.4109345 120,67.9924136 L120,8.00758637 C120,3.58511853 116.408638,0 111.998561,0 Z" id="bg" fill="#F4F4F4"/>
            <path d="M111,75.9999997 C117,75.9999997 120,72.9999998 120,66.9999999 C120,62.9172306 119.999999,47.2258674 119.999999,31.3356806 C119.998523,31.3382802 102.116703,62.8318669 37.1572274,75.9999998 C69.3967467,76 106.450424,76.0000002 111,75.9999997 Z" id="Combined-Shape" fill="#E87E04"/>
            <path d="M39.0288197,36.7077294 L40.1071854,36.7077294 L43.444984,41.6910757 L43.4621009,41.6910757 L43.4621009,36.7077294 L44.2837129,36.7077294 L44.2837129,42.7699445 L43.239581,42.7699445 L39.8675486,37.7865982 L39.8504316,37.7865982 L39.8504316,42.7699445 L39.0288197,42.7699445 L39.0288197,36.7077294 Z M45.8413522,36.7077294 L49.7525675,36.7077294 L49.7525675,37.4783499 L46.6629642,37.4783499 L46.6629642,39.2850271 L49.538606,39.2850271 L49.538606,40.0556476 L46.6629642,40.0556476 L46.6629642,41.999324 L49.9066197,41.999324 L49.9066197,42.7699445 L45.8413522,42.7699445 L45.8413522,36.7077294 Z M52.3372218,37.4783499 L50.3858934,37.4783499 L50.3858934,36.7077294 L55.1101622,36.7077294 L55.1101622,37.4783499 L53.1588337,37.4783499 L53.1588337,42.7699445 L52.3372218,42.7699445 L52.3372218,37.4783499 Z M55.2128636,36.7077294 L56.0687094,36.7077294 L57.4038289,41.5540765 L57.4209458,41.5540765 L58.8502083,36.7077294 L59.7916387,36.7077294 L61.2209011,41.5540765 L61.238018,41.5540765 L62.5731375,36.7077294 L63.4289833,36.7077294 L61.6659409,42.7699445 L60.8015367,42.7699445 L59.3294819,37.820848 L59.312365,37.820848 L57.8488687,42.7699445 L56.9844644,42.7699445 L55.2128636,36.7077294 Z M66.9978602,42.9240686 C66.5357012,42.9240686 66.1106354,42.8427262 65.72265,42.6800388 C65.3346646,42.5173514 65.0023145,42.2933029 64.7255897,42.0078864 C64.4488648,41.72247 64.2320527,41.3856836 64.0751469,40.9975172 C63.918241,40.6093508 63.8397893,40.1897949 63.8397893,39.738837 C63.8397893,39.287879 63.918241,38.8683231 64.0751469,38.4801567 C64.2320527,38.0919903 64.4488648,37.7552039 64.7255897,37.4697875 C65.0023145,37.184371 65.3346646,36.9603225 65.72265,36.7976351 C66.1106354,36.6349477 66.5357012,36.5536053 66.9978602,36.5536053 C67.4600193,36.5536053 67.8850851,36.6349477 68.2730705,36.7976351 C68.6610558,36.9603225 68.993406,37.184371 69.2701308,37.4697875 C69.5468557,37.7552039 69.7636678,38.0919903 69.9205736,38.4801567 C70.0774795,38.8683231 70.1559312,39.287879 70.1559312,39.738837 C70.1559312,40.1897949 70.0774795,40.6093508 69.9205736,40.9975172 C69.7636678,41.3856836 69.5468557,41.72247 69.2701308,42.0078864 C68.993406,42.2933029 68.6610558,42.5173514 68.2730705,42.6800388 C67.8850851,42.8427262 67.4600193,42.9240686 66.9978602,42.9240686 Z M66.9978602,42.1534481 C67.3459059,42.1534481 67.6597129,42.0892303 67.9392906,41.9607929 C68.2188683,41.8323555 68.4585027,41.6596812 68.6582011,41.4427647 C68.8578994,41.2258482 69.0119501,40.9704043 69.1203578,40.6764253 C69.2287655,40.3824464 69.2829685,40.06992 69.2829685,39.738837 C69.2829685,39.4077539 69.2287655,39.0952275 69.1203578,38.8012486 C69.0119501,38.5072696 68.8578994,38.2518257 68.6582011,38.0349092 C68.4585027,37.8179927 68.2188683,37.6453184 67.9392906,37.516881 C67.6597129,37.3884436 67.3459059,37.3242258 66.9978602,37.3242258 C66.6498145,37.3242258 66.3360076,37.3884436 66.0564299,37.516881 C65.7768522,37.6453184 65.5372178,37.8179927 65.3375194,38.0349092 C65.137821,38.2518257 64.9837703,38.5072696 64.8753627,38.8012486 C64.766955,39.0952275 64.712752,39.4077539 64.712752,39.738837 C64.712752,40.06992 64.766955,40.3824464 64.8753627,40.6764253 C64.9837703,40.9704043 65.137821,41.2258482 65.3375194,41.4427647 C65.5372178,41.6596812 65.7768522,41.8323555 66.0564299,41.9607929 C66.3360076,42.0892303 66.6498145,42.1534481 66.9978602,42.1534481 C66.9978602,42.1534481 66.6498145,42.1534481 66.9978602,42.1534481 Z M71.3369984,36.7077294 L73.4680544,36.7077294 C73.8560398,36.7077294 74.1755524,36.7605306 74.4266017,36.8661347 C74.6776511,36.9717388 74.8759201,37.1058825 75.0214146,37.2685699 C75.1669091,37.4312573 75.2681832,37.6139211 75.3252398,37.8165667 C75.3822965,38.0192124 75.4108244,38.2147198 75.4108244,38.4030946 C75.4108244,38.5971778 75.3765909,38.7841228 75.3081229,38.9639352 C75.2396549,39.1437475 75.1412336,39.3064325 75.0128561,39.4519948 C74.8844786,39.5975572 74.7275751,39.7202845 74.5421409,39.8201802 C74.3567067,39.920076 74.1498794,39.9814396 73.9216527,40.0042729 L75.6419028,42.7699445 L74.6148878,42.7699445 L73.0743654,40.0984599 L72.1586104,40.0984599 L72.1586104,42.7699445 L71.3369984,42.7699445 L71.3369984,36.7077294 Z M72.1586104,39.379214 L73.2369761,39.379214 C73.3967348,39.379214 73.5550647,39.3663705 73.7119705,39.340683 C73.8688763,39.3149955 74.0086631,39.2679025 74.1313349,39.1994026 C74.2540068,39.1309026 74.3524281,39.0324354 74.4266017,38.903998 C74.5007754,38.7755606 74.5378617,38.6085945 74.5378617,38.4030946 C74.5378617,38.1975948 74.5007754,38.0306287 74.4266017,37.9021913 C74.3524281,37.7737539 74.2540068,37.6752867 74.1313349,37.6067867 C74.0086631,37.5382868 73.8688763,37.4911937 73.7119705,37.4655063 C73.5550647,37.4398188 73.3967348,37.4269752 73.2369761,37.4269752 L72.1586104,37.4269752 L72.1586104,39.379214 Z M76.5662162,36.7077294 L77.3878282,36.7077294 L77.3878282,39.3278393 L77.4562959,39.3278393 L80.1350932,36.7077294 L81.2819266,36.7077294 L78.3549339,39.5076508 L81.4787711,42.7699445 L80.280587,42.7699445 L77.4562959,39.738837 L77.3878282,39.738837 L77.3878282,42.7699445 L76.5662162,42.7699445 L76.5662162,36.7077294 Z" id="NETWORK" fill="#000000"/>
            <path d="M10.600125,17.9213571 L16.249875,17.9213571 C17.1948797,17.9213571 18.1061206,18.0665484 18.983625,18.3569352 C19.8611294,18.6473221 20.6373716,19.0896489 21.312375,19.683929 C21.9873784,20.2782091 22.527373,21.0244246 22.932375,21.922598 C23.337377,22.8207713 23.539875,23.8776286 23.539875,25.0932015 C23.539875,26.3222808 23.3070023,27.3858911 22.84125,28.2840645 C22.3754977,29.1822378 21.7747537,29.9250768 21.039,30.5126037 C20.3032463,31.1001306 19.4865045,31.5390809 18.58875,31.8294678 C17.6909955,32.1198546 16.8101293,32.2650459 15.946125,32.2650459 L10.600125,32.2650459 L10.600125,17.9213571 Z M15.055125,29.9554689 C15.851629,29.9554689 16.6042465,29.8643023 17.313,29.6819663 C18.0217535,29.4996304 18.6393724,29.216001 19.165875,28.8310695 C19.6923776,28.4461381 20.1074985,27.9464101 20.41125,27.3318704 C20.7150015,26.7173308 20.866875,25.9711153 20.866875,25.0932015 C20.866875,24.2287941 20.7318764,23.4859551 20.461875,22.8646623 C20.1918737,22.2433695 19.8172524,21.7402649 19.338,21.3553334 C18.8587476,20.970402 18.2917533,20.6867726 17.637,20.5044367 C16.9822467,20.3221007 16.2633789,20.2309341 15.480375,20.2309341 L13.151625,20.2309341 L13.151625,29.9554689 L15.055125,29.9554689 Z M25.909125,17.9213571 L28.460625,17.9213571 L28.460625,32.2650459 L25.909125,32.2650459 L25.909125,17.9213571 Z M38.626125,21.0007931 C38.3561237,20.6091085 37.9950023,20.3221025 37.54275,20.1397666 C37.0904977,19.9574307 36.6146275,19.8662641 36.115125,19.8662641 C35.8181235,19.8662641 35.5312514,19.9000295 35.2545,19.9675613 C34.9777486,20.0350931 34.7280011,20.1431424 34.50525,20.2917125 C34.2824989,20.4402825 34.1036257,20.6327453 33.968625,20.8691067 C33.8336243,21.1054681 33.766125,21.385721 33.766125,21.7098738 C33.766125,22.1961029 33.9348733,22.5675224 34.272375,22.8241434 C34.6098767,23.0807643 35.0283725,23.303616 35.527875,23.4927051 C36.0273775,23.6817943 36.574122,23.8641275 37.168125,24.0397102 C37.762128,24.215293 38.3088725,24.4584039 38.808375,24.7690503 C39.3078775,25.0796967 39.7263733,25.4916347 40.063875,26.0048766 C40.4013767,26.5181185 40.570125,27.2001798 40.570125,28.0510808 C40.570125,28.8209437 40.4283764,29.4928753 40.144875,30.0668958 C39.8613736,30.6409164 39.4800024,31.1170086 39.00075,31.4951869 C38.5214976,31.8733651 37.9646282,32.1569945 37.330125,32.3460837 C36.6956218,32.5351728 36.0273785,32.6297159 35.325375,32.6297159 C34.4343705,32.6297159 33.5771291,32.4811481 32.753625,32.1840081 C31.9301209,31.886868 31.221378,31.38714 30.627375,30.684809 L32.551125,28.8209398 C32.8616266,29.2936626 33.2699975,29.6617056 33.77625,29.9250797 C34.2825025,30.1884538 34.8191222,30.3201389 35.386125,30.3201389 C35.6831265,30.3201389 35.9801235,30.2796204 36.277125,30.1985822 C36.5741265,30.117544 36.8441238,29.9959886 37.087125,29.8339122 C37.3301262,29.6718358 37.5258743,29.4658668 37.674375,29.215999 C37.8228757,28.9661313 37.897125,28.6791253 37.897125,28.3549725 C37.897125,27.8282243 37.7283767,27.4230394 37.390875,27.1394057 C37.0533733,26.855772 36.6348775,26.6160376 36.135375,26.4201953 C35.6358725,26.224353 35.089128,26.0386432 34.495125,25.8630605 C33.901122,25.6874777 33.3543775,25.4477433 32.854875,25.1438501 C32.3553725,24.8399569 31.9368767,24.434772 31.599375,23.9282833 C31.2618733,23.4217945 31.093125,22.7431098 31.093125,21.8922088 C31.093125,21.1493587 31.2449985,20.5078159 31.54875,19.9675613 C31.8525015,19.4273067 32.2507475,18.9782267 32.7435,18.620308 C33.2362525,18.2623894 33.7998718,17.9956426 34.434375,17.8200599 C35.0688782,17.6444771 35.7168717,17.5566871 36.378375,17.5566871 C37.1343788,17.5566871 37.8667465,17.6714894 38.5755,17.9010977 C39.2842535,18.1307059 39.9221222,18.5088785 40.489125,19.0356267 C40.489125,19.0356267 39.9221222,18.5088785 40.489125,19.0356267 L38.626125,21.0007931 Z M53.064375,21.2844254 C52.5378724,20.717158 52.0282525,20.3389854 51.5355,20.1498963 C51.0427475,19.9608072 50.5466275,19.8662641 50.047125,19.8662641 C49.3046213,19.8662641 48.633003,19.9979492 48.03225,20.2613233 C47.431497,20.5246974 46.9151272,20.8893638 46.483125,21.3553334 C46.0511228,21.8213031 45.7170012,22.3649261 45.48075,22.986219 C45.2444988,23.6075118 45.126375,24.2760669 45.126375,24.9919043 C45.126375,25.7617671 45.2444988,26.4708407 45.48075,27.1191462 C45.7170012,27.7674518 46.0511228,28.3279576 46.483125,28.8006804 C46.9151272,29.2734032 47.431497,29.6448227 48.03225,29.91495 C48.633003,30.1850773 49.3046213,30.3201389 50.047125,30.3201389 C50.6276279,30.3201389 51.1912473,30.1817008 51.738,29.9048203 C52.2847527,29.6279398 52.7943726,29.1856129 53.266875,28.5778264 L55.372875,30.0770256 C54.7248718,30.9684457 53.9351297,31.6167415 53.003625,32.0219325 C52.0721203,32.4271235 51.0798803,32.6297159 50.026875,32.6297159 C48.9198695,32.6297159 47.9040046,32.4507593 46.97925,32.0928406 C46.0544954,31.7349219 45.2580033,31.2284408 44.58975,30.573382 C43.9214967,29.9183233 43.3983769,29.1315893 43.020375,28.2131564 C42.6423731,27.2947235 42.453375,26.2750082 42.453375,25.1539798 C42.453375,24.0059387 42.6423731,22.9625876 43.020375,22.0238952 C43.3983769,21.0852028 43.9214967,20.2849626 44.58975,19.6231507 C45.2580033,18.9613388 46.0544954,18.4514811 46.97925,18.0935624 C47.9040046,17.7356437 48.9198695,17.5566871 50.026875,17.5566871 C50.9988799,17.5566871 51.8999958,17.7288906 52.73025,18.073303 C53.5605042,18.4177153 54.3333714,19.0018569 55.048875,19.8257452 C55.048875,19.8257452 54.3333714,19.0018569 55.048875,19.8257452 L53.064375,21.2844254 Z M72.301875,17.9213571 L75.238125,17.9213571 L79.146375,28.7601615 L83.176125,17.9213571 L85.930125,17.9213571 L80.138625,32.2650459 L77.931375,32.2650459 L72.301875,17.9213571 Z M87.469125,17.9213571 L96.966375,17.9213571 L96.966375,20.2309341 L90.020625,20.2309341 L90.020625,23.756078 L96.601875,23.756078 L96.601875,26.065655 L90.020625,26.065655 L90.020625,29.9554689 L97.330875,29.9554689 L97.330875,32.2650459 L87.469125,32.2650459 L87.469125,17.9213571 Z M99.841875,17.9213571 L104.823375,17.9213571 C105.511878,17.9213571 106.176747,17.9855114 106.818,18.1138219 C107.459253,18.2421323 108.029623,18.4616075 108.529125,18.7722539 C109.028627,19.0829003 109.426874,19.5015914 109.723875,20.0283396 C110.020876,20.5550879 110.169375,21.223643 110.169375,22.0340249 C110.169375,23.0740151 109.882503,23.9451626 109.30875,24.6474936 C108.734997,25.3498247 107.91488,25.7752688 106.848375,25.9238388 L110.655375,32.2650459 L107.577375,32.2650459 L104.256375,26.1872117 L102.393375,26.1872117 L102.393375,32.2650459 L99.841875,32.2650459 L99.841875,17.9213571 Z M104.377875,23.9991913 C104.742377,23.9991913 105.106873,23.9823086 105.471375,23.9485427 C105.835877,23.9147768 106.169998,23.8337398 106.47375,23.7054293 C106.777502,23.5771189 107.023874,23.3812795 107.212875,23.1179054 C107.401876,22.8545312 107.496375,22.4864883 107.496375,22.0137655 C107.496375,21.5950681 107.408626,21.2574141 107.233125,21.0007931 C107.057624,20.7441722 106.828126,20.5517093 106.544625,20.4233989 C106.261124,20.2950884 105.947252,20.2106749 105.603,20.1701558 C105.258748,20.1296367 104.924627,20.1093774 104.600625,20.1093774 L102.393375,20.1093774 L102.393375,23.9991913 L104.377875,23.9991913 Z" id="DISCOVER" fill="#000000"/>
            <ellipse id="Oval-1" fill="#E87E04" cx="64.5375" cy="25.0992043" rx="7.5375" ry="7.54101654"/>
        </g>
    </g>

	
	<metadata>
		<rdf:RDF xmlns:rdf="http://www.w3.org/1999/02/22-rdf-syntax-ns#" xmlns:rdfs="http://www.w3.org/2000/01/rdf-schema#" xmlns:dc="http://purl.org/dc/elements/1.1/">
			<rdf:Description about="https://iconscout.com/legal#licenses" dc:title="Payment, Discover, Card, Bank, Transaction" dc:description="Payment, Discover, Card, Bank, Transaction" dc:publisher="Iconscout" dc:date="2016-12-14" dc:format="image/svg+xml" dc:language="en">
				<dc:creator>
					<rdf:Bag>
						<rdf:li>Linh Pham</rdf:li>
					</rdf:Bag>
				</dc:creator>
			</rdf:Description>
		</rdf:RDF>
    </metadata></svg>
