<?xml version="1.0" encoding="UTF-8" standalone="no"?>
<svg xmlns="http://www.w3.org/2000/svg" xmlns:xlink="http://www.w3.org/1999/xlink" width="120px" height="76px" viewBox="0 0 120 76" version="1.1">
    
    <title>payment_028-moneygram-card</title>
    <desc>Created with Sketch.</desc>
    <defs/>
    <g id="round-rect" stroke="none" stroke-width="1" fill="none" fill-rule="evenodd">
        <g id="payment_028-moneygram-card">
            <path d="M111.998561,0 L8.0014394,0 C3.58236644,0 0,3.58906554 0,8.00758637 L0,67.9924136 C0,72.4148815 3.59136164,76 8.0014394,76 L111.998561,76 C116.417634,76 120,72.4109345 120,67.9924136 L120,8.00758637 C120,3.58511853 116.408638,0 111.998561,0 Z" id="bg" fill="#F4F4F4"/>
            <path d="M24.052,52.361 L26.374,52.361 L27.427,59.705 L27.454,59.705 L31.639,52.361 L34.0285,52.361 L32.044,62 L30.424,62 L32.098,54.278 L32.071,54.278 L27.7105,62 L26.3875,62 L25.1725,54.278 L25.1455,54.278 L23.674,62 L22.054,62 L24.052,52.361 Z M38.0515,56.0465 C37.655498,56.0465 37.3112515,56.145499 37.01875,56.3435 C36.7262485,56.541501 36.481001,56.7912485 36.283,57.09275 C36.084999,57.3942515 35.9387505,57.7294982 35.84425,58.0985 C35.7497495,58.4675018 35.7025,58.8274982 35.7025,59.1785 C35.7025,59.6915026 35.8307487,60.1189983 36.08725,60.461 C36.3437513,60.8030017 36.7509972,60.974 37.309,60.974 C37.705002,60.974 38.0492485,60.877251 38.34175,60.68375 C38.6342515,60.490249 38.879499,60.2427515 39.0775,59.94125 C39.275501,59.6397485 39.4217495,59.3022519 39.51625,58.92875 C39.6107505,58.5552481 39.658,58.1930018 39.658,57.842 C39.658,57.3289974 39.5297513,56.9015017 39.27325,56.5595 C39.0167487,56.2174983 38.6095028,56.0465 38.0515,56.0465 L38.0515,56.0465 Z M37.2145,62.189 C36.2424951,62.189 35.4910027,61.9257526 34.96,61.39925 C34.4289973,60.8727474 34.1635,60.1190049 34.1635,59.138 C34.1635,58.5619971 34.2579991,58.0152526 34.447,57.49775 C34.6360009,56.9802474 34.9037483,56.523502 35.25025,56.1275 C35.5967517,55.731498 36.0152475,55.4165012 36.50575,55.1825 C36.9962525,54.9484988 37.542997,54.8315 38.146,54.8315 C39.1180049,54.8315 39.8694973,55.0857475 40.4005,55.59425 C40.9315027,56.1027525 41.197,56.8474951 41.197,57.8285 C41.197,58.4405031 41.1070009,59.0119973 40.927,59.543 C40.7469991,60.0740027 40.4837517,60.535248 40.13725,60.92675 C39.7907483,61.318252 39.3722525,61.6264989 38.88175,61.8515 C38.3912475,62.0765011 37.8355031,62.189 37.2145,62.189 L37.2145,62.189 Z M43.2895,55.0205 L44.734,55.0205 L44.518,56.033 L44.545,56.06 C44.8240014,55.6729981 45.1727479,55.3715011 45.59125,55.1555 C46.0097521,54.9394989 46.4619976,54.8315 46.948,54.8315 C47.6500035,54.8315 48.1652484,54.9979983 48.49375,55.331 C48.8222516,55.6640017 48.9865,56.1139972 48.9865,56.681 C48.9865,56.8070006 48.982,56.9509992 48.973,57.113 C48.964,57.2750008 48.9460001,57.4189994 48.919,57.545 L47.9875,62 L46.4485,62 L47.3395,57.6935 C47.3665001,57.5764994 47.3912499,57.4640005 47.41375,57.356 C47.4362501,57.2479995 47.4475,57.1445005 47.4475,57.0455 C47.4475,56.9914997 47.44525,56.9082506 47.44075,56.79575 C47.43625,56.6832494 47.4025003,56.5707506 47.3395,56.45825 C47.2764997,56.3457494 47.1707507,56.2490004 47.02225,56.168 C46.8737493,56.0869996 46.6600014,56.0465 46.381,56.0465 C46.0749985,56.0465 45.8027512,56.1117493 45.56425,56.24225 C45.3257488,56.3727507 45.1120009,56.5324991 44.923,56.7215 C44.7429991,56.9015009 44.5877507,57.1242487 44.45725,57.38975 C44.3267493,57.6552513 44.2300003,57.9319986 44.167,58.22 L43.384,62 L41.845,62 L43.2895,55.0205 Z M55.183,57.896 C55.192,57.8509998 55.1965,57.8127502 55.1965,57.78125 L55.1965,57.68 L55.1965,57.464 C55.1965,57.0499979 55.0660013,56.7102513 54.805,56.44475 C54.5439987,56.1792487 54.1840023,56.0465 53.725,56.0465 C53.1489971,56.0465 52.6900017,56.2197483 52.348,56.56625 C52.0059983,56.9127517 51.7585008,57.3559973 51.6055,57.896 L55.183,57.896 Z M56.3035,59.84 C56.0604988,60.6590041 55.6510029,61.2552481 55.075,61.62875 C54.4989971,62.0022519 53.7880042,62.189 52.942,62.189 C52.5009978,62.189 52.0937519,62.1192507 51.72025,61.97975 C51.3467481,61.8402493 51.0250013,61.6377513 50.755,61.37225 C50.4849986,61.1067487 50.2735008,60.7872519 50.1205,60.41375 C49.9674992,60.0402481 49.891,59.6150024 49.891,59.138 C49.891,58.5979973 49.9764991,58.0715026 50.1475,57.5585 C50.3185009,57.0454974 50.5682484,56.586502 50.89675,56.1815 C51.2252516,55.776498 51.6302476,55.4502512 52.11175,55.20275 C52.5932524,54.9552488 53.1444969,54.8315 53.7655,54.8315 C54.3865031,54.8315 54.8904981,54.934999 55.2775,55.142 C55.6645019,55.349001 55.9659989,55.6099984 56.182,55.925 C56.3980011,56.2400016 56.5442496,56.5864981 56.62075,56.9645 C56.6972504,57.3425019 56.7355,57.7024983 56.7355,58.0445 C56.7355,58.2155009 56.7265001,58.3729993 56.7085,58.517 C56.6904999,58.6610007 56.6725001,58.7914994 56.6545,58.9085 L51.457,58.9085 C51.448,58.9535002 51.44125,58.9939998 51.43675,59.03 C51.43225,59.0660002 51.43,59.1019998 51.43,59.138 L51.43,59.354 C51.43,59.8400024 51.5582487,60.2314985 51.81475,60.5285 C52.0712513,60.8255015 52.496497,60.974 53.0905,60.974 C53.5045021,60.974 53.8599985,60.8795009 54.157,60.6905 C54.4540015,60.5014991 54.6564995,60.2180019 54.7645,59.84 L56.3035,59.84 Z M57.6535,55.0205 L59.2735,55.0205 L60.0025,60.1235 L60.0295,60.1235 L62.662,55.0205 L64.309,55.0205 L60.313,62.216 C60.1329991,62.5490017 59.9575009,62.8684985 59.7865,63.1745 C59.6154991,63.4805015 59.4197511,63.7527488 59.19925,63.99125 C58.9787489,64.2297512 58.7200015,64.4187493 58.423,64.55825 C58.1259985,64.6977507 57.7615022,64.7675 57.3295,64.7675 C57.0684987,64.7675 56.7580018,64.7315004 56.398,64.6595 L56.6815,63.377 C56.7805005,63.4040001 56.8794995,63.4287499 56.9785,63.45125 C57.0775005,63.4737501 57.1764995,63.485 57.2755,63.485 C57.5095012,63.485 57.7097492,63.4422504 57.87625,63.35675 C58.0427508,63.2712496 58.1754995,63.1160011 58.2745,62.891 L58.882,61.7705 L57.6535,55.0205 Z M72.382,62 L71.302,62 L71.302,60.9875 L71.275,60.9875 C71.1039991,61.2035011 70.9127511,61.3879992 70.70125,61.541 C70.4897489,61.6940008 70.2692511,61.8222495 70.03975,61.92575 C69.8102489,62.0292505 69.5807511,62.1057498 69.35125,62.15525 C69.1217489,62.2047502 68.908001,62.2295 68.71,62.2295 C68.0169965,62.2295 67.4050027,62.1215011 66.874,61.9055 C66.3429973,61.6894989 65.8975018,61.3925019 65.5375,61.0145 C65.1774982,60.6364981 64.9030009,60.1910026 64.714,59.678 C64.5249991,59.1649974 64.4305,58.611503 64.4305,58.0175 C64.4305,57.009495 64.5812485,56.1342537 64.88275,55.39175 C65.1842515,54.6492463 65.5802475,54.0372524 66.07075,53.55575 C66.5612525,53.0742476 67.1147469,52.7165012 67.73125,52.4825 C68.3477531,52.2484988 68.9709969,52.1315 69.601,52.1315 C70.1680028,52.1315 70.6967475,52.1989993 71.18725,52.334 C71.6777525,52.4690007 72.1029982,52.6714986 72.463,52.9415 C72.8230018,53.2115013 73.106499,53.5534979 73.3135,53.9675 C73.520501,54.3815021 73.624,54.8719972 73.624,55.439 L71.9365,55.439 C71.9004998,54.7819967 71.6710021,54.2960016 71.248,53.981 C70.8249979,53.6659984 70.2580036,53.5085 69.547,53.5085 C68.9709971,53.5085 68.4692521,53.6389987 68.04175,53.9 C67.6142479,54.1610013 67.2587514,54.5029979 66.97525,54.926 C66.6917486,55.3490021 66.4780007,55.8259973 66.334,56.357 C66.1899993,56.8880027 66.118,57.4234973 66.118,57.9635 C66.118,58.8635045 66.3474977,59.5699974 66.8065,60.083 C67.2655023,60.5960026 67.9179958,60.8525 68.764,60.8525 C69.1780021,60.8525 69.5469984,60.7872507 69.871,60.65675 C70.1950016,60.5262493 70.4762488,60.3440012 70.71475,60.11 C70.9532512,59.8759988 71.1534992,59.5970016 71.3155,59.273 C71.4775008,58.9489984 71.6034996,58.5935019 71.6935,58.2065 L69.0475,58.2065 L69.3175,56.924 L73.462,56.924 L72.382,62 Z M75.541,55.0205 L76.999,55.0205 L76.7155,56.384 L76.7425,56.411 C76.8505005,56.2219991 76.9832492,56.0330009 77.14075,55.844 C77.2982508,55.6549991 77.4714991,55.4862507 77.6605,55.33775 C77.8495009,55.1892493 78.0542489,55.0677505 78.27475,54.97325 C78.4952511,54.8787495 78.7269988,54.8315 78.97,54.8315 C79.0960006,54.8315 79.2197494,54.83375 79.34125,54.83825 C79.4627506,54.84275 79.5864994,54.8539999 79.7125,54.872 L79.3885,56.3435 C79.2984996,56.3254999 79.2085005,56.312 79.1185,56.303 C79.0284995,56.294 78.9385004,56.2895 78.8485,56.2895 C78.452498,56.2895 78.1082515,56.3592493 77.81575,56.49875 C77.5232485,56.6382507 77.275751,56.8294988 77.07325,57.0725 C76.870749,57.3155012 76.7065006,57.5944984 76.5805,57.9095 C76.4544994,58.2245016 76.3555004,58.5574982 76.2835,58.9085 L75.6355,62 L74.0965,62 L75.541,55.0205 Z M80.671,60.083 C80.671,60.2540009 80.7092496,60.3957494 80.78575,60.50825 C80.8622504,60.6207506 80.9589994,60.7107497 81.076,60.77825 C81.1930006,60.8457503 81.3234993,60.8952498 81.4675,60.92675 C81.6115007,60.9582502 81.7554993,60.974 81.8995,60.974 C82.2775019,60.974 82.5947487,60.9110006 82.85125,60.785 C83.1077513,60.6589994 83.3192492,60.4880011 83.48575,60.272 C83.6522508,60.0559989 83.7827495,59.8017515 83.87725,59.50925 C83.9717505,59.2167485 84.0459997,58.9040017 84.1,58.571 L84.073,58.544 C83.9649995,58.6520005 83.8210009,58.7284998 83.641,58.7735 C83.4609991,58.8185002 83.2855009,58.8499999 83.1145,58.868 C82.8984989,58.8860001 82.6487514,58.9039999 82.36525,58.922 C82.0817486,58.9400001 81.8162512,58.9872496 81.56875,59.06375 C81.3212488,59.1402504 81.1097509,59.2572492 80.93425,59.41475 C80.7587491,59.5722508 80.671,59.7949986 80.671,60.083 L80.671,60.083 Z M85.3015,59.975 C85.2744999,60.1010006 85.2452502,60.2224994 85.21375,60.3395 C85.1822498,60.4565006 85.1665,60.5644995 85.1665,60.6635 C85.1665,60.7625005 85.1889998,60.8389997 85.234,60.893 C85.2790002,60.9470003 85.3644994,60.974 85.4905,60.974 C85.5805004,60.974 85.6704995,60.9627501 85.7605,60.94025 C85.8505004,60.9177499 85.9404995,60.902 86.0305,60.893 L85.7875,62 C85.589499,62.0450002 85.391501,62.0877498 85.1935,62.12825 C84.995499,62.1687502 84.793001,62.189 84.586,62.189 C84.3249987,62.189 84.1090009,62.1080008 83.938,61.946 C83.7669991,61.7839992 83.6725001,61.5680013 83.6545,61.298 C83.3484985,61.6040015 82.9885021,61.8289993 82.5745,61.973 C82.1604979,62.1170007 81.7375022,62.189 81.3055,62.189 C81.0174986,62.189 80.7430013,62.1485004 80.482,62.0675 C80.2209987,61.9864996 79.989251,61.8695008 79.78675,61.7165 C79.584249,61.5634992 79.4245006,61.3700012 79.3075,61.136 C79.1904994,60.9019988 79.132,60.6320015 79.132,60.326 C79.132,59.8939978 79.2129992,59.5317515 79.375,59.23925 C79.5370008,58.9467485 79.7529986,58.7060009 80.023,58.517 C80.2930013,58.3279991 80.6034982,58.1885004 80.9545,58.0985 C81.3055018,58.0084996 81.6744981,57.9500001 82.0615,57.923 C82.5835026,57.8869998 83.0964975,57.8465002 83.6005,57.8015 C83.8795014,57.7834999 84.0842493,57.6912508 84.21475,57.52475 C84.3452507,57.3582492 84.4105,57.1445013 84.4105,56.8835 C84.4105,56.5504983 84.2935012,56.3277506 84.0595,56.21525 C83.8254988,56.1027494 83.5510016,56.0465 83.236,56.0465 C82.8039978,56.0465 82.4327516,56.1207493 82.12225,56.26925 C81.8117484,56.4177507 81.6025005,56.7079978 81.4945,57.14 L80.0365,57.14 C80.1175004,56.7079978 80.256999,56.3457515 80.455,56.05325 C80.653001,55.7607485 80.8959986,55.5222509 81.184,55.33775 C81.4720014,55.1532491 81.7982482,55.0227504 82.16275,54.94625 C82.5272518,54.8697496 82.9164979,54.8315 83.3305,54.8315 C83.9605031,54.8315 84.4532482,54.8922494 84.80875,55.01375 C85.1642518,55.1352506 85.4252492,55.2814991 85.59175,55.4525 C85.7582508,55.6235009 85.8594998,55.8012491 85.8955,55.98575 C85.9315002,56.1702509 85.9495,56.3254994 85.9495,56.4515 C85.9495,56.7575015 85.9045005,57.108498 85.8145,57.5045 L85.3015,59.975 Z M88.123,55.0205 L89.581,55.0205 L89.3785,56.006 L89.4055,56.033 C89.6935014,55.6549981 90.042248,55.3602511 90.45175,55.14875 C90.861252,54.9372489 91.3089976,54.8315 91.795,54.8315 C92.2270022,54.8315 92.6049984,54.9237491 92.929,55.10825 C93.2530016,55.2927509 93.4644995,55.6144977 93.5635,56.0735 C93.8785016,55.7134982 94.2294981,55.4165012 94.6165,55.1825 C95.0035019,54.9484988 95.4399976,54.8315 95.926,54.8315 C96.6010034,54.8315 97.1004984,54.9979983 97.4245,55.331 C97.7485016,55.6640017 97.9105,56.1139972 97.9105,56.681 C97.9105,56.8070006 97.8992501,56.9509992 97.87675,57.113 C97.8542499,57.2750008 97.8295001,57.4189994 97.8025,57.545 L96.9115,62 L95.3725,62 L96.2365,57.869 C96.2545001,57.7879996 96.2792498,57.6732507 96.31075,57.52475 C96.3422502,57.3762493 96.3625,57.2165009 96.3715,57.0455 C96.3715,56.9284994 96.3602501,56.8092506 96.33775,56.68775 C96.3152499,56.5662494 96.2680004,56.4582505 96.196,56.36375 C96.1239996,56.2692495 96.0250006,56.1927503 95.899,56.13425 C95.7729994,56.0757497 95.611001,56.0465 95.413,56.0465 C95.1159985,56.0465 94.8527511,56.1072494 94.62325,56.22875 C94.3937489,56.3502506 94.1957508,56.5032491 94.02925,56.68775 C93.8627492,56.8722509 93.7277505,57.0747489 93.62425,57.29525 C93.5207495,57.5157511 93.4510002,57.724999 93.415,57.923 L92.5645,62 L91.0255,62 L91.822,58.166 C91.8580002,57.9859991 91.9007498,57.7835011 91.95025,57.5585 C91.9997502,57.3334989 92.0245,57.117501 92.0245,56.9105 C92.0245,56.6764988 91.9637506,56.4740009 91.84225,56.303 C91.7207494,56.1319991 91.4980016,56.0465 91.174,56.0465 C90.8769985,56.0465 90.6227511,56.1004995 90.41125,56.2085 C90.1997489,56.3165005 90.0175008,56.4469992 89.8645,56.6 C89.7114992,56.7530008 89.5540008,56.9487488 89.392,57.18725 C89.2299992,57.4257512 89.1175003,57.6844986 89.0545,57.9635 L88.2175,62 L86.6785,62 L88.123,55.0205 Z" id="MoneyGram" fill="#000000"/>
            <path d="M99.0165965,61.3348264 L99.1565359,61.3348264 C99.2040153,61.3348264 99.2489958,61.3414973 99.2489958,61.3214845 C99.2964753,61.2964685 99.3422887,61.2581106 99.3422887,61.2205865 C99.3422887,61.1813947 99.2956423,61.1438707 99.2489958,61.1246917 C99.2489958,61.1055128 99.1565359,61.1113498 99.1565359,61.1113498 L99.0165965,61.1113498 L99.0165965,61.3348264 L99.0165965,61.3348264 Z M99.0165965,61.8434857 L98.8308436,61.8434857 L98.8308436,60.952915 L99.2031823,60.952915 C99.2956423,60.952915 99.3422887,60.952915 99.4355817,60.9979438 C99.4822281,61.0488098 99.5280416,61.1313627 99.5280416,61.2214204 C99.5280416,61.3223184 99.4813952,61.4123761 99.3881022,61.4490663 L99.5280416,61.8443196 L99.2956423,61.8443196 L99.2031823,61.4882581 L99.0157635,61.4882581 L99.0157635,61.8434857 L99.0165965,61.8434857 L99.0165965,61.8434857 Z M99.1565359,62.1686942 C99.5755211,62.1686942 99.9478598,61.8251406 99.9478598,61.3982003 C99.9478598,60.9712601 99.5755211,60.6277065 99.1565359,60.6277065 C98.7383836,60.6277065 98.4118583,60.9712601 98.4118583,61.3982003 C98.4118583,61.8251406 98.7383836,62.1686942 99.1565359,62.1686942 L99.1565359,62.1686942 Z M98.1328125,61.3982003 C98.1328125,60.8378412 98.5984442,60.3867188 99.1565359,60.3867188 C99.7154605,60.3867188 100.180259,60.8378412 100.180259,61.3982003 C100.180259,61.9585595 99.7146275,62.4096819 99.1565359,62.4096819 C98.5984442,62.4096819 98.1328125,61.9585595 98.1328125,61.3982003 L98.1328125,61.3982003 Z" id="path626" fill="#231F20"/>
            <g id="money_gram" transform="translate(42.000000, 10.000000)">
                <path d="M18.5,37 C28.7172684,37 37,28.7172684 37,18.5 C37,8.28273162 28.7172684,0 18.5,0 C8.28273162,0 0,8.28273162 0,18.5 C0,28.7172684 8.28273162,37 18.5,37 Z" id="Oval-2" fill="#E94B35"/>
                <path d="M17.8946045,0.00971837126 C11.6220189,0.211385413 6.13817547,3.53558334 2.94664985,8.47873659 C2.80825958,8.77911197 2.67852251,9.04470242 2.56269584,9.25954705 C2.10818012,10.1026195 1.14950446,12.0351746 0.842901246,14.2255097 C0.49142153,16.7364371 0.853553836,19.5444028 1.38431011,20.7306366 C2.06085041,22.242696 3.90489347,24.2310576 6.37631224,25.1812534 C7.38757812,25.5700588 11.8305185,26.090762 15.165808,24.9176916 C19.9910793,23.2205728 23.9447632,19.506073 23.9447632,19.506073 L24.8542937,25.7491455 L28.054306,13.3956757 L15.9272308,15.0696411 L21.9817352,16.7701416 C21.9817352,16.7701416 18.8581862,19.9086832 15.4375131,21.081831 C14.9928698,21.2343251 11.7898159,22.099675 9.60601096,21.3363927 C8.62842886,20.9947087 6.79718703,20.3239321 5.95257264,18.6457773 C5.53176678,17.8096828 5.04176268,15.6632007 5.32173815,13.3956757 C5.390414,12.839469 5.80840296,10.0443553 7.25381096,7.64489232 C8.30977887,5.8919233 10.40375,4.36315918 10.8809645,4.00816742 C13.9672061,1.7123649 17.3806681,0.227480378 17.8946045,0.00971837125 Z" id="Oval-2" fill="#FFFFFF"/>
            </g>
        </g>
    </g>

	
	<metadata>
		<rdf:RDF xmlns:rdf="http://www.w3.org/1999/02/22-rdf-syntax-ns#" xmlns:rdfs="http://www.w3.org/2000/01/rdf-schema#" xmlns:dc="http://purl.org/dc/elements/1.1/">
			<rdf:Description about="https://iconscout.com/legal#licenses" dc:title="Payment, Moneygram, Card, Bank, Transaction" dc:description="Payment, Moneygram, Card, Bank, Transaction" dc:publisher="Iconscout" dc:date="2016-12-14" dc:format="image/svg+xml" dc:language="en">
				<dc:creator>
					<rdf:Bag>
						<rdf:li>Linh Pham</rdf:li>
					</rdf:Bag>
				</dc:creator>
			</rdf:Description>
		</rdf:RDF>
    </metadata></svg>
