<?xml version="1.0" encoding="UTF-8" standalone="no"?>
<svg xmlns="http://www.w3.org/2000/svg" xmlns:xlink="http://www.w3.org/1999/xlink" width="120px" height="76px" viewBox="0 0 120 76" version="1.1">
    
    <title>payment_004-cirrus-card</title>
    <desc>Created with Sketch.</desc>
    <defs/>
    <g id="round-rect" stroke="none" stroke-width="1" fill="none" fill-rule="evenodd">
        <g id="payment_004-cirrus-card">
            <path d="M111.998561,0 L8.0014394,0 C3.58236644,0 0,3.58906554 0,8.00758637 L0,67.9924136 C0,72.4148815 3.59136164,76 8.0014394,76 L111.998561,76 C116.417634,76 120,72.4109345 120,67.9924136 L120,8.00758637 C120,3.58511853 116.408638,0 111.998561,0 Z" id="bg" fill="#F4F4F4"/>
            <g id="Group" transform="translate(8.000000, 7.000000)">
                <g>
                    <path d="M100.13854,48.696439 C100.13854,48.1396829 100.588906,47.6879268 101.143949,47.6879268 C101.698992,47.6879268 102.149358,48.1396829 102.149358,48.696439 C102.149358,49.2531951 101.698992,49.7049512 101.143949,49.7049512 C100.588906,49.7049512 100.13854,49.2531951 100.13854,48.696439 L100.13854,48.696439 Z M101.143949,49.4626829 C101.565721,49.4626829 101.907835,49.1195122 101.907835,48.6959268 C101.907835,48.2728537 101.565721,47.9296829 101.143949,47.9296829 C100.721667,47.9296829 100.379552,48.2728537 100.379552,48.6959268 C100.379552,49.1195122 100.721667,49.4626829 101.143949,49.4626829 L101.143949,49.4626829 Z M101.007614,49.1384634 L100.801834,49.1384634 L100.801834,48.252878 L101.175097,48.252878 C101.252201,48.252878 101.332368,48.2544146 101.399769,48.2979512 C101.472277,48.3466098 101.512616,48.4321463 101.512616,48.5192195 C101.512616,48.6196098 101.454406,48.7128293 101.359941,48.7486829 L101.522318,49.1384634 L101.294071,49.1384634 L101.159268,48.7886341 L101.007614,48.7886341 L101.007614,49.1384634 L101.007614,49.1384634 Z M101.007614,48.6365122 L101.121993,48.6365122 C101.163863,48.6365122 101.21033,48.6400976 101.247605,48.6196098 C101.281816,48.5980976 101.299177,48.5560976 101.299177,48.5176829 C101.299177,48.4843902 101.278242,48.4449512 101.249137,48.4280488 C101.213393,48.4065366 101.155694,48.4111463 101.116886,48.4111463 L101.007614,48.4111463 L101.007614,48.6365122 L101.007614,48.6365122 Z" id="copyright" fill="#009DDD"/>
                    <g id="circle">
                        <path d="M52.2628899,54.4340488 C57.7867677,59.4550976 65.1156842,62.514439 73.1569144,62.514439 C90.3469076,62.514439 104.282725,48.5356098 104.282725,31.292561 C104.282725,14.0500244 90.3469076,0.0706829268 73.1569144,0.0706829268 C65.1151736,0.0706829268 57.7867677,3.1295122 52.2628899,8.15107317 C45.9787002,13.8646098 42.0311036,22.1165854 42.0311036,31.2930732 C42.0311036,40.4700732 45.9787002,48.7215366 52.2628899,54.4340488" id="Shape" fill="#2C97DE"/>
                        <path d="M62.3271931,27.9868537 C62.2097507,26.8666829 62.0330765,25.7634146 61.8002341,24.6811463 L42.7378005,24.6811463 C42.979834,23.5553415 43.2821205,22.4520732 43.642107,21.3749268 L60.8969489,21.3749268 C60.5185801,20.2434878 60.0779158,19.1397073 59.5780197,18.0692195 L44.9666531,18.0692195 C45.4997394,16.9275366 46.10227,15.8247805 46.7635218,14.763 L57.783704,14.763 C57.063731,13.6085122 56.2707395,12.5042195 55.4108569,11.4572927 L49.1307521,11.4572927 C50.0968435,10.2812927 51.1431021,9.17392683 52.2685067,8.15158537 C46.7446289,3.13053659 39.4157124,0.071195122 31.3739716,0.071195122 C14.184489,0.071195122 0.248160901,14.0500244 0.248160901,31.2935854 C0.248160901,48.5366341 14.1839784,62.5149512 31.3739716,62.5149512 C39.4157124,62.5149512 46.7446289,59.4550976 52.2679961,54.434561 L52.2679961,54.434561 L52.2679961,54.434561 L52.2679961,54.434561 C53.3944219,53.4106829 54.4442549,52.3053659 55.4103463,51.1283415 L49.1307521,51.1283415 C48.2713801,50.082439 47.4829842,48.9766098 46.7635218,47.8226341 L57.783704,47.8226341 C58.4449558,46.7613659 59.0454439,45.6580976 59.5785303,44.5164146 L44.9666531,44.5164146 C44.4667569,43.4454146 44.0199652,42.3441951 43.642107,41.2107073 L60.8969489,41.2107073 C61.2559141,40.133561 61.5587113,39.0302927 61.8007448,37.9044878 C62.0335871,36.8222195 62.2097507,35.7189512 62.3277037,34.5982683 C62.4415718,33.5119024 62.500293,32.4091463 62.500293,31.2930732 L62.500293,31.2930732 C62.4997824,30.1759756 62.4410612,29.0737317 62.3271931,27.9868537 L62.3271931,27.9868537 Z" id="Shape" fill="#227FBB"/>
                    </g>
                    <path d="M89.6882089,38.6174634 C89.6882089,38.0607073 90.138575,37.6094634 90.6941286,37.6094634 C91.248661,37.6094634 91.6995377,38.0607073 91.6995377,38.6174634 C91.6995377,39.1747317 91.2491716,39.6259756 90.6941286,39.6259756 C90.138575,39.6254634 89.6882089,39.1742195 89.6882089,38.6174634 L89.6882089,38.6174634 Z M90.6941286,39.3842195 C91.1159,39.3842195 91.4580149,39.0405366 91.4580149,38.6174634 C91.4580149,38.193878 91.1164107,37.8507073 90.6941286,37.8507073 C90.2718466,37.8507073 89.9297318,38.193878 89.9297318,38.6174634 C89.9297318,39.0405366 90.2718466,39.3842195 90.6941286,39.3842195 L90.6941286,39.3842195 Z M90.5577933,39.0594878 L90.3520138,39.0594878 L90.3520138,38.1739024 L90.7247658,38.1739024 C90.8018693,38.1739024 90.8825471,38.175439 90.9499488,38.2189756 C91.0224567,38.2676341 91.0627956,38.3531707 91.0627956,38.4402439 C91.0627956,38.540122 91.0045851,38.6338537 90.9101205,38.6691951 L91.0719868,39.0594878 L90.84374,39.0594878 L90.7089366,38.7091463 L90.5572827,38.7091463 L90.5572827,39.0594878 L90.5577933,39.0594878 Z M90.5577933,38.5575366 L90.672172,38.5575366 C90.7140428,38.5575366 90.7605091,38.561122 90.7977843,38.540122 C90.8309746,38.519122 90.8493568,38.477122 90.8493568,38.4387073 C90.8493568,38.4043902 90.8284215,38.3659756 90.7993162,38.3480488 C90.7635728,38.3270488 90.7058729,38.3321707 90.6675764,38.3321707 L90.5583039,38.3321707 L90.5583039,38.5575366 L90.5577933,38.5575366 Z" id="copyright" fill="#FFFFFF"/>
                </g>
                <polygon id="i" fill="#003473" points="31.3617168 26.9670732 36.2524269 26.9670732 33.3924491 40.3118049 28.501739 40.3118049"/>
                <path d="M29.4652773,24.1033902 C29.1875005,25.3300976 29.041974,26.0230976 28.6646265,27.5146098 C26.3254802,26.5189024 23.1856832,25.9990244 20.7781139,27.5079512 C18.5073906,28.9579756 17.7389088,31.221878 17.9043494,33.7275366 C18.0718325,34.9352927 18.9740965,36.1138537 20.2455382,36.6250244 C22.4493704,37.440439 24.5521,37.1418293 26.8932887,35.9417561 C26.5608756,37.4511951 26.3091404,38.6359024 26.0191087,39.7166341 C23.2112141,40.5018293 20.5457822,40.7599756 17.7399301,39.8252195 C15.2327901,38.9503902 13.1801012,36.705439 13.0146606,34.2602195 C12.4453202,30.3357805 14.3305261,26.3022439 18.1397448,24.4588537 C21.6808886,22.8587561 25.722439,23.136878 29.4652773,24.1033902 L29.4652773,24.1033902 Z" id="c" fill="#003473"/>
                <path d="M77.3439913,31.3729756 C77.3439913,33.0872927 78.4755233,34.2679024 81.0403632,35.1550244 C83.0062469,35.8357317 83.3105759,36.036 83.3105759,36.6516585 C83.3105759,37.4962683 82.4435446,37.8778537 80.5236167,37.8778537 C79.0749902,37.8778537 77.7274663,37.7113902 76.1721204,37.3410732 L75.5072943,40.4705854 L75.7222649,40.5013171 L76.6127847,40.640122 C76.8977102,40.682122 77.3210134,40.721561 77.8801414,40.758439 C79.0341406,40.8347561 79.9287454,40.8716341 80.5568069,40.8716341 C85.6793381,40.8716341 88.0455472,39.4395366 88.0455472,36.3438293 C88.0455472,34.482 87.0564779,33.3884634 84.6243989,32.5669024 C82.5895817,31.8800488 82.3541863,31.7274146 82.3541863,31.0948537 C82.3541863,30.363439 83.1614751,29.9874878 84.7306077,29.9874878 C85.683423,29.9874878 86.98397,30.0638049 88.2181364,30.1903171 L88.9095147,27.0495366 C87.6518598,26.9030488 85.7462292,26.7837073 84.637675,26.7837073 C79.2067299,26.7847317 77.3276515,28.869878 77.3439913,31.3729756 L77.3439913,31.3729756 Z" id="s" fill="#003473"/>
                <path d="M73.8217405,36.8903415 C73.579707,38.0381707 73.3647364,39.1603902 73.2304435,40.3584146 L68.6032129,40.3584146 L68.9453277,38.3547073 L69.0632808,38.1908049 C67.6652056,39.6695122 66.2130047,40.6641951 63.6593984,40.6641951 C60.8361852,40.6641951 59.3043278,38.6753415 59.3043278,36.0744146 C59.3043278,35.1821707 59.384495,34.6720244 59.6801435,33.2696341 L60.9709887,27.0730976 L65.7197466,27.0730976 L64.3752865,33.2947317 C64.2409936,33.9575122 64.0530858,34.6208049 64.0530858,35.3091951 C64.0530858,36.0995122 64.8419923,36.8898293 66.1864525,36.839122 C68.2299503,36.839122 69.2307638,35.156561 69.5800273,33.1928049 L70.980145,27.0730976 L75.9995311,27.0730976 L73.8217405,36.8903415 L73.8217405,36.8903415 Z" id="u" fill="#003473"/>
                <path d="M59.6735054,26.9214878 L58.1217339,30.6103171 L57.3369123,30.465878 C56.0292167,30.2784146 54.8358997,31.2469756 54.2394966,32.250878 C53.1023478,34.7631951 52.734702,37.6028049 52.1316608,40.3128293 L47.072957,40.3143659 L47.3063099,39.3929268 C48.1952979,35.2600244 49.3324467,31.0928049 49.9727631,26.9619512 L54.4182133,26.9619512 C54.5249327,27.654439 54.2037532,28.3161951 54.1348197,29.0107317 C55.094273,28.1517805 56.0486202,26.4282439 59.6229541,26.8922927 L59.6735054,26.9214878 L59.6735054,26.9214878 Z" id="r" fill="#003473"/>
                <path d="M60.7412101,25.8750732 C57.2368309,25.4110244 56.2421448,27.1391707 55.3010738,27.998122 C55.3684755,27.3035854 55.6835275,26.6418293 55.5788506,25.9493415 L51.2212269,25.9493415 C50.5931653,30.0796829 49.4784838,34.2474146 48.6063463,38.3803171 L48.3780995,39.2771707 L53.3382538,39.2756341 C53.9300614,36.5656098 54.2895373,33.7510976 55.4047295,31.2387805 C55.989899,30.234878 57.1592168,29.2663171 58.4408708,29.4537805 L59.2272243,29.607439 L60.7412101,25.8750732 L60.7412101,25.8750732 Z" id="r" fill="#FFFFFF"/>
                <polygon id="i" fill="#FFFFFF" points="32.5652461 25.9390976 37.328812 25.9390976 34.4969183 39.2843415 29.7333523 39.2843415"/>
                <path d="M30.5472792,23.021122 C30.2700131,24.2483415 30.123976,24.9408293 29.7466284,26.4328537 C27.4074822,25.4366341 24.2676851,24.9167561 21.8606265,26.4256829 C19.588882,27.8767317 18.8209108,30.1390976 18.9863514,32.6457805 C19.1543451,33.8530244 20.0566091,35.0315854 21.3275401,35.5427561 C23.5313723,36.3581707 25.6341019,36.059561 27.9758013,34.8594878 C27.642367,36.369439 27.3911424,37.5541463 27.1011107,38.634878 C24.2932161,39.4200732 21.6277842,39.6792439 18.8209108,38.7434634 C16.3137708,37.8686341 14.274358,35.6047317 14.109428,33.1595122 C13.539577,29.2350732 15.4120174,25.2204878 19.2212362,23.3776098 C22.7628905,21.777 26.8049516,22.0546098 30.5472792,23.021122 L30.5472792,23.021122 Z" id="c" fill="#FFFFFF"/>
                <path d="M78.4259932,30.2907073 C78.4259932,32.0050244 79.5575253,33.1856341 82.1223652,34.0727561 C84.0882489,34.7534634 84.3930885,34.9537317 84.3930885,35.5693902 C84.3930885,36.414 83.5260572,36.7955854 81.6061292,36.7955854 C80.1575027,36.7955854 78.8099788,36.629122 77.2546329,36.2588049 L76.5892962,39.3883171 L76.8047775,39.4190488 L77.6952973,39.5578537 C77.9802227,39.6003659 78.4040366,39.6403171 78.962654,39.6761707 C80.1176744,39.7524878 81.0112579,39.789878 81.6398301,39.789878 C86.7623613,39.789878 89.1285704,38.3567561 89.1285704,35.261561 C89.1285704,33.3997317 88.1389905,32.3067073 85.7069115,31.4846341 C83.6720943,30.7977805 83.4366988,30.6451463 83.4366988,30.0130976 C83.4366988,29.2811707 84.2439877,28.9052195 85.8126097,28.9052195 C86.7659356,28.9052195 88.0664826,28.9815366 89.300649,29.1080488 L89.9920273,25.9672683 C88.734883,25.8202683 86.8287418,25.701439 85.719677,25.701439 C80.2887319,25.7029756 78.4096534,27.7876098 78.4259932,30.2907073 L78.4259932,30.2907073 Z" id="s" fill="#FFFFFF"/>
                <path d="M74.9037424,35.8085854 C74.661709,36.9559024 74.4467383,38.078122 74.3124455,39.2766585 L69.8225714,39.2766585 L70.1988977,37.109561 L70.1452827,37.109561 C68.7477181,38.5882683 67.2960279,39.5829512 64.7414004,39.5829512 C61.9186978,39.5829512 60.3858191,37.5940976 60.3858191,34.9926585 C60.3858191,34.1004146 60.466497,33.5902683 60.7626561,32.187878 L62.0529906,25.9913415 L66.8017486,25.9913415 L65.4572884,32.2129756 C65.3229956,32.8757561 65.1345771,33.5390488 65.1345771,34.227439 C65.1345771,35.0182683 65.9239943,35.8085854 67.2689651,35.7573659 C69.3119523,35.7573659 70.5221196,34.0742927 70.8718937,32.1110488 L72.2429061,25.9913415 L77.0825543,25.9913415 L74.9037424,35.8085854 L74.9037424,35.8085854 Z" id="u" fill="#FFFFFF"/>
                <path d="M48.8146789,26.919439 L47.2629073,30.6077561 L46.4780857,30.4633171 C45.1703901,30.2758537 43.9780944,31.2444146 43.38067,32.2488293 C42.2435212,34.7606341 41.8768967,37.6002439 41.2733448,40.3102683 L36.2146411,40.3118049 L36.447994,39.3898537 C37.3369819,35.2569512 38.4741307,31.0897317 39.1149577,26.958878 L43.5598973,26.958878 C43.6666167,27.6513659 43.3454373,28.313122 43.2765037,29.0076585 C44.2359571,28.1487073 45.1903042,26.4256829 48.7646382,26.8892195 L48.8146789,26.919439 L48.8146789,26.919439 Z" id="r" fill="#003473"/>
                <path d="M48.3923968,29.6053902 L47.6060434,29.4512195 C46.3243893,29.2637561 45.1545609,30.2323171 44.569902,31.2367317 C43.4552204,33.7490488 43.0952339,36.5630488 42.5034263,39.2730732 L37.5442933,39.2746098 L37.77254,38.3777561 C38.6441669,34.2448537 39.7593591,30.0776341 40.38691,25.9467805 L44.7445337,25.9467805 C44.8492107,26.6392683 44.5346693,27.3010244 44.4672675,27.995561 C45.4073174,27.1366098 46.4025141,25.4089756 49.9074038,25.8725122 L48.3923968,29.6053902 L48.3923968,29.6053902 Z" id="r" fill="#FFFFFF"/>
            </g>
        </g>
    </g>

	
	<metadata>
		<rdf:RDF xmlns:rdf="http://www.w3.org/1999/02/22-rdf-syntax-ns#" xmlns:rdfs="http://www.w3.org/2000/01/rdf-schema#" xmlns:dc="http://purl.org/dc/elements/1.1/">
			<rdf:Description about="https://iconscout.com/legal#licenses" dc:title="Payment, Cirrus, Card, Pay, Bank, Transaction" dc:description="Payment, Cirrus, Card, Pay, Bank, Transaction" dc:publisher="Iconscout" dc:date="2016-12-14" dc:format="image/svg+xml" dc:language="en">
				<dc:creator>
					<rdf:Bag>
						<rdf:li>Linh Pham</rdf:li>
					</rdf:Bag>
				</dc:creator>
			</rdf:Description>
		</rdf:RDF>
    </metadata></svg>
