<?xml version="1.0" encoding="UTF-8" standalone="no"?>
<svg xmlns="http://www.w3.org/2000/svg" xmlns:xlink="http://www.w3.org/1999/xlink" width="120px" height="76px" viewBox="0 0 120 76" version="1.1">
    
    <title>payment_006-bitcoin-card</title>
    <desc>Created with Sketch.</desc>
    <defs/>
    <g id="round-rect" stroke="none" stroke-width="1" fill="none" fill-rule="evenodd">
        <g id="payment_006-bitcoin-card">
            <path d="M111.998561,0 L8.0014394,0 C3.58236644,0 0,3.58906554 0,8.00758637 L0,67.9924136 C0,72.4148815 3.59136164,76 8.0014394,76 L111.998561,76 C116.417634,76 120,72.4109345 120,67.9924136 L120,8.00758637 C120,3.58511853 116.408638,0 111.998561,0 Z" id="bg" fill="#F4F4F4"/>
            <path d="M29.0308588,40.6806658 C27.4692951,47.013342 21.125488,50.8673238 14.8613301,49.2881258 C8.59972984,47.7092973 4.78789206,41.2949831 6.35018654,34.9626764 C7.91101957,28.6292614 14.2548267,24.7749102 20.5171577,26.3537387 C26.7809502,27.9325673 30.5924226,34.3476203 29.0308588,40.6806658 C29.0308588,40.6806658 30.5924226,34.3476203 29.0308588,40.6806658 Z M22.8434273,36.1370086 C23.0761639,34.5640905 21.8916553,33.7185269 20.2719987,33.1544485 L20.7973915,31.0237318 L19.5146001,30.7005042 L19.0030912,32.7750716 C18.6658606,32.6901089 18.319496,32.6099485 17.9753236,32.5305268 L18.4904861,30.4422915 L17.2084255,30.1190638 L16.6826674,32.2490417 C16.4035296,32.1847656 16.129507,32.1212282 15.8635223,32.0543663 L15.8649838,32.047717 L14.0958935,31.6011088 L13.754644,32.9863701 C13.754644,32.9863701 14.706416,33.2069038 14.686321,33.2205717 C15.2058679,33.3517097 15.2997664,33.699318 15.2840557,33.9748926 L14.6855903,36.40224 C14.7213959,36.411475 14.7677971,36.4247735 14.818948,36.4454601 C14.7762004,36.4347474 14.73053,36.4229265 14.6833981,36.411475 L13.8445234,39.8118299 C13.7809502,39.971412 13.6198248,40.2107852 13.2566535,40.119912 C13.2694412,40.1387516 12.3242457,39.8846023 12.3242457,39.8846023 L11.6874171,41.3692331 L13.3567631,41.7899831 C13.6673221,41.868666 13.9716699,41.9510429 14.271268,42.0286175 L13.7403948,44.1837148 L15.0217247,44.5069424 L15.5474829,42.3747481 C15.8975011,42.4707929 16.2372892,42.5594497 16.56977,42.6429347 L16.0458387,44.7651551 L17.3286301,45.0883828 L17.8595033,42.937349 C20.0469348,43.3558826 21.6918014,43.1870654 22.3841653,41.186748 C22.9420755,39.5761508 22.3563977,38.6471022 21.2055026,38.0412812 C22.0436465,37.845867 22.6749947,37.2884378 22.8434273,36.1370086 C22.8434273,36.1370086 22.6749947,37.2884378 22.8434273,36.1370086 L22.8434273,36.1370086 Z M19.912481,40.2924233 C19.5160616,41.9030205 16.8339279,41.0323375 15.9643626,40.8140203 L16.6687835,37.9589043 C17.5383488,38.1783297 20.3268033,38.6127477 19.912481,40.2924233 C19.912481,40.2924233 20.3268033,38.6127477 19.912481,40.2924233 L19.912481,40.2924233 Z M20.3092658,36.1137362 C19.9475559,37.5787886 17.7151847,36.8344415 16.9910342,36.6519564 L17.6296896,34.0624412 C18.3538402,34.2449263 20.6859556,34.5855159 20.3092658,36.1137362 C20.3092658,36.1137362 20.6859556,34.5855159 20.3092658,36.1137362 L20.3092658,36.1137362 Z" id="oval" fill="#F59D00"/>
            <path d="M39.3259043,33.1486874 C40.2740227,33.1486874 41.0931677,33.3204598 41.7815126,33.6577248 C42.4731458,33.9983144 43.0438436,34.457113 43.5016441,35.0341205 C43.9532335,35.6140833 44.2893679,36.2919378 44.5063939,37.0687924 C44.7219583,37.8478634 44.830106,38.6853 44.830106,39.5818412 C44.830106,40.9589757 44.5805627,42.2600132 44.0767263,43.4864312 C43.57289,44.7146963 42.8892948,45.7800546 42.0197296,46.6887861 C41.1508951,47.5964093 40.1249543,48.311943 38.9419072,48.8405587 C37.7606869,49.3695439 36.4764341,49.6340364 35.0975521,49.6340364 C34.9192547,49.6340364 34.6057727,49.6288648 34.1629521,49.6196297 C33.7201315,49.6103946 33.2111801,49.5642193 32.641213,49.4862752 C32.0675923,49.405376 31.4610888,49.2856894 30.8206065,49.1253685 C30.1804896,48.9680028 29.5725247,48.7474692 29,48.4674617 L34.1194739,26.7184889 L38.7047863,26 L36.8717574,33.7179375 C37.2641578,33.5391464 37.6594812,33.4006203 38.0540738,33.2997733 C38.4490318,33.2004039 38.8728535,33.1486874 39.3259043,33.1486874 C39.3259043,33.1486874 38.8728535,33.1486874 39.3259043,33.1486874 L39.3259043,33.1486874 L39.3259043,33.1486874 Z M35.4797223,45.9562599 C36.1702594,45.9562599 36.8209719,45.7844875 37.4322251,45.4472225 C38.0453051,45.1095881 38.5743515,44.6537448 39.0175374,44.0859723 C39.4607234,43.5156141 39.8114724,42.8732222 40.0672269,42.1554721 C40.3229814,41.437722 40.4523201,40.6889421 40.4523201,39.9098711 C40.4523201,38.9527478 40.2941176,38.2061843 39.9788089,37.6664865 C39.6635002,37.1290051 39.0800146,36.8586021 38.2327366,36.8586021 C37.9550603,36.8586021 37.5973694,36.9121655 37.153818,37.0078409 C36.7088053,37.1094267 36.310559,37.3203558 35.9535988,37.637673 L34.0018268,45.8339875 C34.1194739,45.8550434 34.2236025,45.8749912 34.3123858,45.8938308 C34.3993423,45.9141479 34.495433,45.9285546 34.5911582,45.9385285 C34.6923639,45.94998 34.8081841,45.9558905 34.9481184,45.9558905 C35.0880526,45.9558905 35.2630617,45.9562599 35.4797223,45.9562599 C35.4797223,45.9562599 35.2630617,45.9562599 35.4797223,45.9562599 L35.4797223,45.9562599 Z M48.8361953,49.2158722 L44.4565826,49.2158722 L48.1551577,33.4804114 L52.5647302,33.4804114 L48.8361953,49.2158722 L48.8361953,49.2158722 Z M50.9673609,31.5632096 C50.3561077,31.5632096 49.8018512,31.3792469 49.3100719,31.0105827 C48.8142735,30.6441349 48.5687492,30.0800565 48.5687492,29.319825 C48.5687492,28.9016608 48.6527829,28.5093548 48.8193886,28.1392129 C48.9885519,27.7698099 49.2095969,27.4517539 49.4865424,27.1813509 C49.7631226,26.9131643 50.0835465,26.6989105 50.4474485,26.5374814 C50.8135428,26.3786381 51.2030203,26.2992165 51.6180733,26.2992165 C52.2289611,26.2992165 52.7802947,26.4831792 53.2739009,26.8518434 C53.7656802,27.2223546 54.0130313,27.7864331 54.0130313,28.5426011 C54.0130313,28.9622429 53.929363,29.3560265 53.7612958,29.7254296 C53.5943247,30.0948326 53.3732797,30.4128886 53.0963342,30.6832916 C52.8219462,30.9518476 52.4985994,31.1653626 52.1354281,31.3253141 C51.7689685,31.4867432 51.3809524,31.5632096 50.9673609,31.5632096 L50.9673609,31.5632096 Z M55.6519303,29.5606758 L60.2390695,28.8421869 L59.1126538,33.4804114 L64.0253319,33.4804114 L63.1382292,37.1293745 L58.2551455,37.1293745 L56.9544513,42.6334796 C56.8346121,43.0922782 56.7666545,43.5207857 56.7476556,43.9190022 C56.7260991,44.3190656 56.7761539,44.6626105 56.8945317,44.951853 C57.0121788,45.2418344 57.2237243,45.4653232 57.5306296,45.6234277 C57.8360736,45.7841181 58.2734137,45.8650173 58.8470345,45.8650173 C59.3194495,45.8650173 59.7798076,45.8195808 60.2248204,45.7294464 C60.6672756,45.6407897 61.1155767,45.5174091 61.5693582,45.35598 L61.8959932,48.7677863 C61.3041043,48.9872117 60.6632566,49.1759767 59.9727195,49.33482 C59.2810863,49.4958797 58.4623067,49.5734543 57.5160151,49.5734543 C56.1554013,49.5734543 55.1005968,49.3691745 54.349044,48.9624617 C53.5985873,48.5527938 53.0680794,47.9931482 52.7505785,47.2846332 C52.4374619,46.578704 52.2975277,45.7649091 52.3366216,44.8480508 C52.377177,43.928976 52.5141883,42.9629871 52.7505785,41.9456512 L55.6519303,29.5606758 Z M63.8320546,42.9341737 C63.8320546,41.578834 64.0490805,40.3006995 64.482767,39.1042031 C64.9157228,37.9065985 65.5393984,36.8593409 66.3486786,35.9605833 C67.1550359,35.0662586 68.1374985,34.3577435 69.2938741,33.8376241 C70.4447692,33.3204598 71.7334064,33.0596613 73.1535745,33.0596613 C74.042504,33.0596613 74.8364389,33.144624 75.535014,33.3149188 C76.236512,33.4866912 76.8711485,33.7087024 77.4451346,33.9872323 L75.9347217,37.4596208 C75.5401291,37.2978223 75.1305566,37.1552327 74.7071002,37.0259416 C74.2832785,36.8940647 73.7659238,36.8305274 73.1539398,36.8305274 C71.6921203,36.8305274 70.5364755,37.3399342 69.6764097,38.3554231 C68.8196322,39.3716509 68.3881379,40.7395503 68.3881379,42.4554274 C68.3881379,43.4723939 68.6051638,44.294685 69.0406771,44.9237784 C69.4739983,45.5528718 70.2745098,45.8657561 71.4367312,45.8657561 C72.010352,45.8657561 72.5638777,45.805174 73.0940202,45.6869651 C73.6281817,45.5672785 74.099866,45.416562 74.5152844,45.2385098 L74.8422847,48.7980774 C74.2883936,49.0152864 73.6775058,49.2114394 73.0074291,49.3832118 C72.3358909,49.5490737 71.5364755,49.6351446 70.6095482,49.6351446 C69.3859457,49.6351446 68.3501401,49.4541372 67.502862,49.0976632 C66.6552186,48.7356483 65.9548167,48.2550549 65.4031178,47.6462787 C64.8484959,47.0360249 64.4502497,46.3234465 64.2039946,45.5055882 C63.9577396,44.6884687 63.8320546,43.829976 63.8320546,42.9341737 C63.8320546,42.9341737 63.8320546,43.829976 63.8320546,42.9341737 L63.8320546,42.9341737 Z M82.536719,49.6344058 C81.491414,49.6344058 80.5834856,49.4733461 79.8132992,49.1545513 C79.0453051,48.8357565 78.4092072,48.3884094 77.9061016,47.8084467 C77.4022653,47.2314391 77.0252101,46.5476741 76.7668981,45.7597375 C76.508586,44.9721702 76.3843624,44.1000096 76.3843624,43.144364 C76.3843624,41.9456512 76.5747168,40.7473078 76.9594446,39.552289 C77.3423456,38.3546843 77.9104859,37.2786133 78.6624041,36.3222289 C79.4084764,35.3643668 80.3288272,34.5812324 81.4124954,33.9706092 C82.4950676,33.3640494 83.7402265,33.0589225 85.1388381,33.0589225 C86.1651443,33.0589225 87.068323,33.2203516 87.8491049,33.5391464 C88.6262331,33.8572024 89.26635,34.3082435 89.7723785,34.8852511 C90.2729266,35.4652138 90.65327,36.1460236 90.9090245,36.9350685 C91.1666058,37.7211581 91.2937523,38.5955351 91.2937523,39.5519195 C91.2937523,40.7469383 91.1059554,41.9452818 90.7332846,43.1439946 C90.3602484,44.336797 89.8067227,45.4154538 89.0759956,46.3740547 C88.34673,47.3304391 87.4347826,48.1132042 86.3394227,48.7212416 C85.2455243,49.3292789 83.9769821,49.6344058 82.536719,49.6344058 L82.536719,49.6344058 Z M84.725612,36.830158 C84.076361,36.830158 83.5023749,37.02077 83.0109609,37.3971917 C82.5177201,37.7780462 82.1033979,38.2567925 81.7694556,38.8341695 C81.4318597,39.4141322 81.1815857,40.0465502 81.0124224,40.7340092 C80.8447205,41.4229459 80.7625137,42.0742034 80.7625137,42.6929535 C80.7625137,43.6914499 80.9218122,44.4690433 81.2349288,45.0286889 C81.5524297,45.5853792 82.1227621,45.8653867 82.951772,45.8653867 C83.6032152,45.8653867 84.1742784,45.6762524 84.6686153,45.2957673 C85.1589331,44.917868 85.5736208,44.4387522 85.9101206,43.8602671 C86.2455243,43.2832596 86.4979905,42.6489945 86.6671538,41.9604273 C86.8326635,41.2737071 86.9170625,40.6187555 86.9170625,40.0011136 C86.9170625,39.0052031 86.7584947,38.2257627 86.4424552,37.6668559 C86.1267811,37.1101655 85.5538911,36.830158 84.725612,36.830158 L84.725612,36.830158 Z M95.3173791,49.2158722 L90.9341128,49.2158722 L94.6326879,33.4804114 L99.0444526,33.4804114 L95.3173791,49.2158722 L95.3173791,49.2158722 Z M97.4452564,31.5632096 C96.8343685,31.5632096 96.2804774,31.3792469 95.7894288,31.0105827 C95.296188,30.6441349 95.0484716,30.0800565 95.0484716,29.319825 C95.0484716,28.9016608 95.1336013,28.5093548 95.3005724,28.1392129 C95.4675435,27.7698099 95.6900499,27.4517539 95.9669955,27.1813509 C96.2421142,26.9131643 96.565461,26.6989105 96.9286323,26.5374814 C97.2925344,26.3786381 97.6820119,26.2992165 98.0956035,26.2992165 C98.7079527,26.2992165 99.2611131,26.4831792 99.7536232,26.8518434 C100.246499,27.2223546 100.495311,27.7864331 100.495311,28.5426011 C100.495311,28.9622429 100.406893,29.3560265 100.241384,29.7254296 C100.075874,30.0948326 99.8533674,30.4128886 99.577518,30.6832916 C99.2998417,30.9518476 98.9805139,31.1653626 98.6166119,31.3253141 C98.2497869,31.4867432 97.8610401,31.5632096 97.4452564,31.5632096 L97.4452564,31.5632096 Z M100.698575,34.1974226 C101.031056,34.0991614 101.402265,33.9809525 101.805992,33.8524002 C102.21118,33.7238479 102.663866,33.6041614 103.169529,33.4962957 C103.669711,33.3851054 104.234198,33.294971 104.854951,33.2251539 C105.475703,33.1538591 106.183047,33.1191352 106.968944,33.1191352 C109.278772,33.1191352 110.871027,33.7992062 111.750091,35.1552847 C112.628425,36.5113632 112.780417,38.367244 112.210449,40.7196025 L110.195835,49.2158722 L105.787358,49.2158722 L107.739861,40.8983936 C107.85897,40.3790129 107.952503,39.8769942 108.021556,39.386427 C108.091341,38.9002926 108.087322,38.4717851 108.005846,38.1009044 C107.928023,37.7344566 107.744611,37.4345014 107.459993,37.2021469 C107.17099,36.9734864 106.734381,36.8586021 106.142126,36.8586021 C105.571063,36.8586021 104.990135,36.9206618 104.39715,37.0403483 L101.526489,49.2155028 L97.1161856,49.2155028 L100.698575,34.1974226 L100.698575,34.1974226 Z" id="b" fill="#4D4D4D"/>
        </g>
    </g>

	
	<metadata>
		<rdf:RDF xmlns:rdf="http://www.w3.org/1999/02/22-rdf-syntax-ns#" xmlns:rdfs="http://www.w3.org/2000/01/rdf-schema#" xmlns:dc="http://purl.org/dc/elements/1.1/">
			<rdf:Description about="https://iconscout.com/legal#licenses" dc:title="Payment, Bitcoin, Card, Pay, Bank" dc:description="Payment, Bitcoin, Card, Pay, Bank" dc:publisher="Iconscout" dc:date="2016-12-14" dc:format="image/svg+xml" dc:language="en">
				<dc:creator>
					<rdf:Bag>
						<rdf:li>Linh Pham</rdf:li>
					</rdf:Bag>
				</dc:creator>
			</rdf:Description>
		</rdf:RDF>
    </metadata></svg>
