<?xml version="1.0" encoding="UTF-8" standalone="no"?>
<svg xmlns="http://www.w3.org/2000/svg" xmlns:xlink="http://www.w3.org/1999/xlink" width="120px" height="76px" viewBox="0 0 120 76" version="1.1">
    
    <title>payment_009-western_union-card</title>
    <desc>Created with Sketch.</desc>
    <defs/>
    <g id="round-rect" stroke="none" stroke-width="1" fill="none" fill-rule="evenodd">
        <g id="payment_009-western_union-card">
            <path d="M111.998561,0 L8.0014394,0 C3.58236644,0 0,3.58906554 0,8.00758637 L0,67.9924136 C0,72.4148815 3.59136164,76 8.0014394,76 L111.998561,76 C116.417634,76 120,72.4109345 120,67.9924136 L120,8.00758637 C120,3.58511853 116.408638,0 111.998561,0 Z" id="bg" fill="#000000"/>
            <path d="M41.0479111,49.1277526 C40.2969448,48.9647293 39.4474641,48.55984 38.9912434,48.1474796 C38.7877738,47.9635719 38.4925684,47.549642 38.3314663,47.2223579 L38.0399156,46.6300611 L38.014109,42.5788587 L37.9883025,38.5276555 L40.1383453,38.5276555 L42.2883882,38.5276555 L42.2885671,41.9951317 C42.2886565,45.1196275 42.3041746,45.4929239 42.4450897,45.7690979 C42.6412028,46.1534518 42.8219901,46.2658508 43.1226523,46.1903547 C43.613527,46.0670852 43.6300111,45.9331153 43.6300111,42.0666879 L43.6300111,38.5276555 L45.8213286,38.5276555 L48.012646,38.5276555 L48.012646,42.1842555 C48.012646,44.2662821 47.9738364,46.0455913 47.9225203,46.3163095 C47.6371007,47.8220219 46.6086984,48.7660157 44.863603,49.1241608 C44.0014806,49.3010933 41.8557103,49.3031138 41.0479111,49.127749 L41.0479111,49.1277526 L41.0479111,49.1277526 L41.0479111,49.1277526 L41.0479111,49.1277526 Z M75.5776843,49.0844445 C74.6744429,48.8477103 74.0900785,48.5137632 73.4445942,47.8654463 C72.4470618,46.8635354 72.044049,45.6828745 72.044049,43.762426 C72.044049,41.8412125 72.4545132,40.6521473 73.4691495,39.6340829 C74.4378245,38.6621337 75.5948642,38.2623135 77.4389089,38.2623135 C79.291962,38.2623135 80.448602,38.6618446 81.4257757,39.6394743 C82.4451158,40.6592899 82.8447924,41.8205508 82.8447924,43.762426 C82.8447924,45.7114868 82.4518114,46.86199 81.4404495,47.8738246 C80.4222015,48.8925468 79.3266179,49.2688176 77.4022414,49.2607194 C76.5491222,49.2571311 76.0540615,49.2093005 75.5776843,49.0844445 C75.5776843,49.0844445 76.0540615,49.2093005 75.5776843,49.0844445 L75.5776843,49.0844445 L75.5776843,49.0844445 Z M77.8637418,46.1751336 C78.4533287,45.7619777 78.6029349,42.7195658 78.0856042,41.6633019 C77.7924301,41.0647099 77.1182753,41.0605453 76.8149174,41.6554542 C76.2671873,42.7295942 76.4707276,45.9990824 77.1011115,46.2526404 C77.3293081,46.3444269 77.6718325,46.3096162 77.8637418,46.1751353 L77.8637418,46.1751336 L77.8637418,46.1751336 L77.8637418,46.1751336 L77.8637418,46.1751336 Z M99.7443172,37.5433397 L99.7443172,26 L100.549295,26 L101.354268,26 L101.354268,37.5433397 L101.354268,49.0866798 L100.549295,49.0866798 L99.7443172,49.0866798 L99.7443172,37.5433397 L99.7443172,37.5433397 L99.7443172,37.5433397 L99.7443172,37.5433397 Z M108.206798,37.6775646 L108.206798,26.2684498 L108.967051,26.2684498 L109.727304,26.2684498 L109.727304,37.6775646 L109.727304,49.0866798 L108.967051,49.0866798 L108.206798,49.0866798 L108.206798,37.6775646 L108.206798,37.6775646 L108.206798,37.6775646 L108.206798,37.6775646 Z M51.053658,43.762426 L51.053658,38.5276555 L53.6390038,38.5276555 L56.2243488,38.5276555 L56.4885885,39.2658924 C56.6339203,39.6719227 57.050276,40.8573119 57.4138227,41.9000907 L58.074818,43.7960521 L58.0985092,41.1618538 L58.1222005,38.5276555 L59.9097002,38.5276555 L61.6971999,38.5276555 L61.6971999,43.762426 L61.6971999,48.9971965 L59.1257559,48.9961048 L56.554312,48.9950131 L55.6151759,46.2694015 L54.6760399,43.5437871 L54.6523871,46.2704923 L54.6287343,48.9971965 L52.8411961,48.9971965 L51.053658,48.9971965 L51.053658,43.762426 L51.053658,43.762426 L51.053658,43.762426 L51.053658,43.762426 Z M64.9170949,43.762426 L64.9170949,38.5276555 L67.0636916,38.5276555 L69.2102882,38.5276555 L69.2102882,43.762426 L69.2102882,48.9971965 L67.0636916,48.9971965 L64.9170949,48.9971965 L64.9170949,43.762426 L64.9170949,43.762426 L64.9170949,43.762426 L64.9170949,43.762426 Z M85.6675295,43.762426 L85.6675295,38.5276555 L88.2498933,38.5276555 L90.8322572,38.5276555 L91.7604733,41.1897824 L92.6886895,43.8519093 L92.7123807,41.1897824 L92.736072,38.5276555 L94.5235717,38.5276555 L96.3110714,38.5276555 L96.3110714,43.762426 L96.3110714,48.9971965 L93.7349595,48.9971965 L91.1588476,48.9971965 L90.2243795,46.2946286 L89.2899114,43.5920607 L89.2662398,46.2946286 L89.2425673,48.9971965 L87.4550488,48.9971965 L85.6675295,48.9971965 L85.6675295,43.762426 L85.6675295,43.762426 L85.6675295,43.762426 L85.6675295,43.762426 Z M41.2460983,36.9138134 C40.2260642,36.7315091 39.1908715,36.1985397 38.7605898,35.6341473 C38.4363705,35.2088764 38.1998549,34.5608198 38.1239745,33.8898121 L38.0615309,33.337627 L40.1749591,33.337627 C42.2458292,33.337627 42.2883882,33.3413227 42.2883882,33.5210373 C42.2883882,33.7797504 42.5268554,34.2101765 42.7306417,34.3192906 C43.0564503,34.4937387 43.4494582,34.4268634 43.7263325,34.1498594 C44.2953407,33.5805857 44.0243722,33.3829852 41.7467178,32.7062493 C39.3935228,32.0070692 38.9405954,31.7419088 38.545415,30.8320959 C38.1854665,30.0033968 38.2247152,28.6568536 38.6321053,27.857931 C39.0496067,27.039178 40.0333589,26.3957504 41.2676421,26.1341461 C42.1120945,25.9551662 44.1550874,25.9590838 45.0372,26.1413764 C46.7130311,26.48769 47.6072076,27.3861762 47.7239377,28.8410639 L47.7688123,29.4003655 L45.7888532,29.4003655 L43.8088942,29.4003655 L43.8088942,29.1922561 C43.8088942,28.8846154 43.4541467,28.5950162 43.0772991,28.5950162 C42.7724422,28.5950162 42.2883882,28.8713853 42.2883882,29.0454418 C42.2883882,29.2690238 42.7542846,29.4950737 43.7481571,29.7537117 C45.9601418,30.329344 46.6662872,30.6212644 47.269556,31.2094593 C47.8482981,31.7737398 48.0467456,32.3163967 48.0478207,33.3376288 C48.0483573,33.8051788 47.9957487,34.3487896 47.9310109,34.5456524 C47.5943548,35.5694035 46.7829887,36.3086524 45.5590341,36.7068001 C44.9125114,36.9171108 44.6746944,36.9443639 43.272245,36.9688563 C42.4113703,36.9838913 41.4996042,36.9591223 41.2460983,36.9138152 C41.2460983,36.9138152 41.4996042,36.9591223 41.2460983,36.9138152 L41.2460983,36.9138134 L41.2460983,36.9138134 Z M12.1465933,36.6610089 C12.1465933,36.618669 11.6636709,34.3536244 11.0734325,31.6275761 C10.483194,28.9015277 10.0002097,26.5797379 10.0001342,26.4680422 L10,26.2649599 L11.9422285,26.2890757 L13.8844569,26.3131914 L14.2427703,29.0151822 C14.4398426,30.5012771 14.6113412,31.7069101 14.6238784,31.6943672 C14.6364156,31.6818235 14.808812,30.5665972 15.0069815,29.2160846 C15.205151,27.8655729 15.3904325,26.6498722 15.4187181,26.5145287 L15.4701465,26.2684498 L17.6898964,26.2684498 L19.9096464,26.2684498 L20.0032228,26.8277201 C20.0546902,27.1353188 20.2226846,28.2728747 20.3765437,29.3556221 C20.5304028,30.4383695 20.6838907,31.3962976 20.7176281,31.48435 C20.7513654,31.5724034 20.9385165,30.4348475 21.1335196,28.9564481 L21.4880712,26.2684498 L23.4360066,26.2684498 C25.2313789,26.2684498 25.3839796,26.2807152 25.3844098,26.4250455 C25.3846781,26.5111731 24.8920386,28.8668198 24.2896821,31.659816 L23.1944885,36.7379904 L20.8565898,36.7379904 L18.5186902,36.7379904 L18.423579,36.0892368 C18.3712673,35.7324223 18.19924,34.5143315 18.0412952,33.3823687 C17.8833504,32.2504055 17.7288187,31.2948075 17.6978898,31.2588173 C17.6669618,31.2228281 17.4655368,32.4409189 17.2502779,33.9656858 L16.8588982,36.7379904 L14.5027474,36.7379904 C13.2068612,36.7379904 12.1465933,36.7033488 12.1465933,36.6610089 C12.1465933,36.6610089 12.1465933,36.7033488 12.1465933,36.6610089 L12.1465933,36.6610089 L12.1465933,36.6610089 Z M14.6211517,32.1090971 C14.5879225,32.0793618 14.5642879,32.1322133 14.56863,32.2265439 C14.573428,32.3307865 14.5971241,32.3519904 14.6290467,32.2806061 C14.6579338,32.2160108 14.6543811,32.1388315 14.6211517,32.1090971 C14.6211517,32.1090971 14.6543811,32.1388315 14.6211517,32.1090971 L14.6211517,32.1090971 L14.6211517,32.1090971 Z M27.6199775,31.5032203 L27.6199775,26.2684498 L31.6448463,26.2684498 L35.6697151,26.2684498 L35.6697151,27.7449235 L35.6697151,29.2213972 L33.7467222,29.2213972 L31.8237294,29.2213972 L31.8237294,29.6240719 L31.8237294,30.0267465 L33.6125599,30.0267465 L35.4013905,30.0267465 L35.4013905,31.5032203 L35.4013905,32.979694 L33.6125599,32.979694 L31.8237294,32.979694 L31.8237294,33.3823687 L31.8237294,33.7850433 L33.8361638,33.7850433 L35.8485981,33.7850433 L35.8485981,35.2615167 L35.8485981,36.7379904 L31.7342878,36.7379904 L27.6199775,36.7379904 L27.6199775,31.5032203 L27.6199775,31.5032203 L27.6199775,31.5032203 L27.6199775,31.5032203 Z M52.6636055,32.979694 L52.6636055,29.2213972 L51.4114241,29.2213972 L50.1592427,29.2213972 L50.1592427,27.7449235 L50.1592427,26.2684498 L54.8102022,26.2684498 L59.4611616,26.2684498 L59.4611616,27.7449235 L59.4611616,29.2213972 L58.2089802,29.2213972 L56.9567989,29.2213972 L56.9567989,32.979694 L56.9567989,36.7379904 L54.8102022,36.7379904 L52.6636055,36.7379904 L52.6636055,32.979694 L52.6636055,32.979694 L52.6636055,32.979694 L52.6636055,32.979694 Z M61.9655244,31.5032203 L61.9655244,26.2684498 L65.9903932,26.2684498 L70.015262,26.2684498 L70.015262,27.7449235 L70.015262,29.2213972 L68.0922691,29.2213972 L66.1692763,29.2213972 L66.1692763,29.6240719 L66.1692763,30.0267465 L67.9581068,30.0267465 L69.7469374,30.0267465 L69.7469374,31.5032203 L69.7469374,32.979694 L67.9581068,32.979694 L66.1692763,32.979694 L66.1692763,33.3823687 L66.1692763,33.7850433 L68.1817107,33.7850433 L70.1941451,33.7850433 L70.1941451,35.2615167 L70.1941451,36.7379904 L66.0798348,36.7379904 L61.9655244,36.7379904 L61.9655244,31.5032203 L61.9655244,31.5032203 L61.9655244,31.5032203 L61.9655244,31.5032203 Z M72.9668324,31.5032203 L72.9668324,26.2684498 L76.584812,26.2684498 C80.3849017,26.2684498 80.8238575,26.304227 81.5532192,26.6733973 C82.389112,27.0964885 82.7110684,27.7134621 82.7139949,28.897824 C82.7150771,29.3350562 82.6700183,29.8462007 82.6138678,30.0337012 C82.4778496,30.4879021 82.0647979,30.9745702 81.6246516,31.1992206 L81.2661798,31.3821852 L81.6433145,31.5688634 C82.2901512,31.8890425 82.4465576,32.2727772 82.6742569,34.0982347 C82.7540638,34.7380396 82.8967168,35.5791214 82.9912636,35.9673051 C83.0858105,36.3554889 83.1631667,36.6876955 83.1631667,36.705542 C83.1631667,36.7233885 82.1987491,36.7379904 81.0200171,36.7379904 L78.8768684,36.7379904 L78.7865342,36.4023584 C78.7368503,36.2177607 78.6134792,35.5030132 78.5123771,34.8140306 C78.3037494,33.3923004 78.2060167,33.2195727 77.5507108,33.1144343 L77.1705843,33.053447 L77.1705843,34.8957181 L77.1705843,36.7379904 L75.0687084,36.7379904 L72.9668324,36.7379904 L72.9668324,31.5032203 L72.9668324,31.5032203 L72.9668324,31.5032203 L72.9668324,31.5032203 Z M78.2944001,30.1957124 C78.6228848,29.8668695 78.6633419,29.4820995 78.4014616,29.1775039 C78.2233665,28.9703591 78.0943936,28.9179479 77.6776677,28.8833742 L77.1705843,28.8413028 L77.1705843,29.6691178 L77.1705843,30.4969327 L77.6257558,30.4531763 C77.946706,30.4223225 78.1438754,30.3464013 78.2944001,30.1957124 C78.2944001,30.1957124 78.1438754,30.3464013 78.2944001,30.1957124 L78.2944001,30.1957124 L78.2944001,30.1957124 Z M85.6675295,31.5032203 L85.6675295,26.2684498 L88.2498933,26.2684498 L90.8322572,26.2684498 L91.7604733,28.9305767 L92.6886895,31.5927035 L92.7123807,28.9305767 L92.736072,26.2684498 L94.5235717,26.2684498 L96.3110714,26.2684498 L96.3110714,31.5032203 L96.3110714,36.7379904 L93.7379316,36.7379904 L91.1647919,36.7379904 L90.2273516,34.0354685 L89.2899114,31.3329471 L89.2662398,34.0354685 L89.2425673,36.7379904 L87.4550488,36.7379904 L85.6675295,36.7379904 L85.6675295,31.5032203 L85.6675295,31.5032203 L85.6675295,31.5032203 L85.6675295,31.5032203 Z" id="western-union" fill="#F2C500"/>
        </g>
    </g>

	
	<metadata>
		<rdf:RDF xmlns:rdf="http://www.w3.org/1999/02/22-rdf-syntax-ns#" xmlns:rdfs="http://www.w3.org/2000/01/rdf-schema#" xmlns:dc="http://purl.org/dc/elements/1.1/">
			<rdf:Description about="https://iconscout.com/legal#licenses" dc:title="Payment, Western, Union, Card, Pay, Bank, Transaction" dc:description="Payment, Western, Union, Card, Pay, Bank, Transaction" dc:publisher="Iconscout" dc:date="2016-12-14" dc:format="image/svg+xml" dc:language="en">
				<dc:creator>
					<rdf:Bag>
						<rdf:li>Linh Pham</rdf:li>
					</rdf:Bag>
				</dc:creator>
			</rdf:Description>
		</rdf:RDF>
    </metadata></svg>
